<?xml version="1.0" encoding="UTF-8"?>
<!--Generator: Apple Native CoreSVG 175.5-->
<!DOCTYPE svg
PUBLIC "-//W3C//DTD SVG 1.1//EN"
       "http://www.w3.org/Graphics/SVG/1.1/DTD/svg11.dtd">
<svg version="1.1" xmlns="http://www.w3.org/2000/svg" xmlns:xlink="http://www.w3.org/1999/xlink" width="3300" height="2200">
 <!--glyph: "", point size: 100.0, font version: "18.0d12e2", template writer version: "101"-->
 <g id="Notes">
  <rect height="2200" id="artboard" style="fill:white;opacity:1" width="3300" x="0" y="0"/>
  <line style="fill:none;stroke:black;opacity:1;stroke-width:0.5;" x1="263" x2="3036" y1="292" y2="292"/>
  <text style="stroke:none;fill:black;font-family:sans-serif;font-size:13;font-weight:bold;" transform="matrix(1 0 0 1 263 322)">Weight/Scale Variations</text>
  <text style="stroke:none;fill:black;font-family:sans-serif;font-size:13;text-anchor:middle;" transform="matrix(1 0 0 1 559.711 322)">Ultralight</text>
  <text style="stroke:none;fill:black;font-family:sans-serif;font-size:13;text-anchor:middle;" transform="matrix(1 0 0 1 856.422 322)">Thin</text>
  <text style="stroke:none;fill:black;font-family:sans-serif;font-size:13;text-anchor:middle;" transform="matrix(1 0 0 1 1153.13 322)">Light</text>
  <text style="stroke:none;fill:black;font-family:sans-serif;font-size:13;text-anchor:middle;" transform="matrix(1 0 0 1 1449.84 322)">Regular</text>
  <text style="stroke:none;fill:black;font-family:sans-serif;font-size:13;text-anchor:middle;" transform="matrix(1 0 0 1 1746.56 322)">Medium</text>
  <text style="stroke:none;fill:black;font-family:sans-serif;font-size:13;text-anchor:middle;" transform="matrix(1 0 0 1 2043.27 322)">Semibold</text>
  <text style="stroke:none;fill:black;font-family:sans-serif;font-size:13;text-anchor:middle;" transform="matrix(1 0 0 1 2339.98 322)">Bold</text>
  <text style="stroke:none;fill:black;font-family:sans-serif;font-size:13;text-anchor:middle;" transform="matrix(1 0 0 1 2636.69 322)">Heavy</text>
  <text style="stroke:none;fill:black;font-family:sans-serif;font-size:13;text-anchor:middle;" transform="matrix(1 0 0 1 2933.4 322)">Black</text>
  <line style="fill:none;stroke:black;opacity:1;stroke-width:0.5;" x1="263" x2="3036" y1="1903" y2="1903"/>
  <g transform="matrix(1 0 0 1 263 1933)">
   <path d="M9.24805 0.830078C13.5547 0.830078 17.1387-2.74414 17.1387-7.05078C17.1387-11.3574 13.5449-14.9316 9.23828-14.9316C4.94141-14.9316 1.36719-11.3574 1.36719-7.05078C1.36719-2.74414 4.95117 0.830078 9.24805 0.830078ZM9.24805-0.654297C5.70312-0.654297 2.87109-3.49609 2.87109-7.05078C2.87109-10.6055 5.69336-13.4473 9.23828-13.4473C12.793-13.4473 15.6445-10.6055 15.6445-7.05078C15.6445-3.49609 12.8027-0.654297 9.24805-0.654297ZM5.6543-7.05078C5.6543-6.62109 5.95703-6.32812 6.40625-6.32812L8.50586-6.32812L8.50586-4.20898C8.50586-3.76953 8.79883-3.4668 9.22852-3.4668C9.67773-3.4668 9.9707-3.76953 9.9707-4.20898L9.9707-6.32812L12.0898-6.32812C12.5293-6.32812 12.832-6.62109 12.832-7.05078C12.832-7.49023 12.5293-7.79297 12.0898-7.79297L9.9707-7.79297L9.9707-9.90234C9.9707-10.3516 9.67773-10.6543 9.22852-10.6543C8.79883-10.6543 8.50586-10.3516 8.50586-9.90234L8.50586-7.79297L6.40625-7.79297C5.95703-7.79297 5.6543-7.49023 5.6543-7.05078Z"/>
  </g>
  <g transform="matrix(1 0 0 1 281.867 1933)">
   <path d="M11.709 2.91016C17.1582 2.91016 21.6699-1.61133 21.6699-7.05078C21.6699-12.5 17.1484-17.0117 11.6992-17.0117C6.25977-17.0117 1.74805-12.5 1.74805-7.05078C1.74805-1.61133 6.26953 2.91016 11.709 2.91016ZM11.709 1.25C7.09961 1.25 3.41797-2.44141 3.41797-7.05078C3.41797-11.6602 7.08984-15.3516 11.6992-15.3516C16.3086-15.3516 20.0098-11.6602 20.0098-7.05078C20.0098-2.44141 16.3184 1.25 11.709 1.25ZM7.17773-7.05078C7.17773-6.57227 7.50977-6.25 8.00781-6.25L10.8789-6.25L10.8789-3.36914C10.8789-2.88086 11.2109-2.53906 11.6895-2.53906C12.1777-2.53906 12.5195-2.87109 12.5195-3.36914L12.5195-6.25L15.4004-6.25C15.8887-6.25 16.2305-6.57227 16.2305-7.05078C16.2305-7.53906 15.8887-7.88086 15.4004-7.88086L12.5195-7.88086L12.5195-10.752C12.5195-11.25 12.1777-11.5918 11.6895-11.5918C11.2109-11.5918 10.8789-11.25 10.8789-10.752L10.8789-7.88086L8.00781-7.88086C7.50977-7.88086 7.17773-7.53906 7.17773-7.05078Z"/>
  </g>
  <g transform="matrix(1 0 0 1 305.646 1933)">
   <path d="M14.9707 5.66406C21.9336 5.66406 27.6953-0.0976562 27.6953-7.05078C27.6953-14.0137 21.9238-19.7754 14.9609-19.7754C8.00781-19.7754 2.25586-14.0137 2.25586-7.05078C2.25586-0.0976562 8.01758 5.66406 14.9707 5.66406ZM14.9707 3.84766C8.93555 3.84766 4.08203-1.01562 4.08203-7.05078C4.08203-13.0957 8.92578-17.9492 14.9609-17.9492C21.0059-17.9492 25.8691-13.0957 25.8691-7.05078C25.8691-1.01562 21.0156 3.84766 14.9707 3.84766ZM9.19922-7.05078C9.19922-6.5332 9.57031-6.17188 10.1172-6.17188L14.0625-6.17188L14.0625-2.2168C14.0625-1.67969 14.4336-1.29883 14.9512-1.29883C15.4883-1.29883 15.8594-1.66992 15.8594-2.2168L15.8594-6.17188L19.8145-6.17188C20.3516-6.17188 20.7324-6.5332 20.7324-7.05078C20.7324-7.59766 20.3613-7.96875 19.8145-7.96875L15.8594-7.96875L15.8594-11.9141C15.8594-12.4609 15.4883-12.8418 14.9512-12.8418C14.4336-12.8418 14.0625-12.4609 14.0625-11.9141L14.0625-7.96875L10.1172-7.96875C9.57031-7.96875 9.19922-7.59766 9.19922-7.05078Z"/>
  </g>
  <text style="stroke:none;fill:black;font-family:sans-serif;font-size:13;font-weight:bold;" transform="matrix(1 0 0 1 263 1953)">Design Variations</text>
  <text style="stroke:none;fill:black;font-family:sans-serif;font-size:13;" transform="matrix(1 0 0 1 263 1971)">Symbols are supported in up to nine weights and three scales.</text>
  <text style="stroke:none;fill:black;font-family:sans-serif;font-size:13;" transform="matrix(1 0 0 1 263 1989)">For optimal layout with text and other symbols, vertically align</text>
  <text style="stroke:none;fill:black;font-family:sans-serif;font-size:13;" transform="matrix(1 0 0 1 263 2007)">symbols with the adjacent text.</text>
  <line style="fill:none;stroke:#00AEEF;stroke-width:0.5;opacity:1.0;" x1="776" x2="776" y1="1919" y2="1933"/>
  <g transform="matrix(1 0 0 1 776 1933)">
   <path d="M3.31055 0.15625C3.82812 0.15625 4.08203-0.0390625 4.26758-0.585938L5.52734-4.0332L11.2891-4.0332L12.5488-0.585938C12.7344-0.0390625 12.9883 0.15625 13.4961 0.15625C14.0137 0.15625 14.3457-0.15625 14.3457-0.644531C14.3457-0.810547 14.3164-0.966797 14.2383-1.17188L9.6582-13.3691C9.43359-13.9648 9.0332-14.2676 8.4082-14.2676C7.80273-14.2676 7.39258-13.9746 7.17773-13.3789L2.59766-1.16211C2.51953-0.957031 2.49023-0.800781 2.49023-0.634766C2.49023-0.146484 2.80273 0.15625 3.31055 0.15625ZM6.00586-5.51758L8.37891-12.0898L8.42773-12.0898L10.8008-5.51758Z"/>
  </g>
  <line style="fill:none;stroke:#00AEEF;stroke-width:0.5;opacity:1.0;" x1="793.197" x2="793.197" y1="1919" y2="1933"/>
  <text style="stroke:none;fill:black;font-family:sans-serif;font-size:13;font-weight:bold;" transform="matrix(1 0 0 1 776 1953)">Margins</text>
  <text style="stroke:none;fill:black;font-family:sans-serif;font-size:13;" transform="matrix(1 0 0 1 776 1971)">Leading and trailing margins on the left and right side of each symbol</text>
  <text style="stroke:none;fill:black;font-family:sans-serif;font-size:13;" transform="matrix(1 0 0 1 776 1989)">can be adjusted by modifying the x-location of the margin guidelines.</text>
  <text style="stroke:none;fill:black;font-family:sans-serif;font-size:13;" transform="matrix(1 0 0 1 776 2007)">Modifications are automatically applied proportionally to all</text>
  <text style="stroke:none;fill:black;font-family:sans-serif;font-size:13;" transform="matrix(1 0 0 1 776 2025)">scales and weights.</text>
  <g transform="matrix(1 0 0 1 1289 1933)">
   <path d="M2.8418 1.86523L4.54102 3.57422C5.40039 4.44336 6.38672 4.38477 7.31445 3.35938L18.0078-8.42773L17.041-9.4043L6.42578 2.27539C6.07422 2.67578 5.74219 2.77344 5.27344 2.30469L4.10156 1.14258C3.63281 0.683594 3.74023 0.341797 4.14062-0.0195312L15.6152-10.8203L14.6387-11.7871L3.04688-0.898438C2.06055 0.0195312 1.98242 0.996094 2.8418 1.86523ZM9.25781-16.3281C8.83789-15.918 8.80859-15.3418 9.04297-14.9512C9.27734-14.5898 9.73633-14.3555 10.3809-14.5215C11.8457-14.8633 13.3691-14.9219 14.7949-13.9844L14.209-12.5293C13.8672-11.6992 14.043-11.1133 14.5801-10.5664L16.875-8.25195C17.3633-7.76367 17.7734-7.74414 18.3398-7.8418L19.4043-8.03711L20.0684-7.36328L20.0293-6.80664C19.9902-6.30859 20.1172-5.92773 20.6055-5.44922L21.3672-4.70703C21.8457-4.22852 22.4609-4.19922 22.9297-4.66797L25.8398-7.58789C26.3086-8.05664 26.2891-8.65234 25.8105-9.13086L25.0391-9.89258C24.5605-10.3711 24.1895-10.5273 23.7109-10.4883L23.1348-10.4395L22.4902-11.0742L22.7344-12.1973C22.8613-12.7637 22.7051-13.2031 22.1191-13.7891L19.9219-15.9766C16.582-19.2969 12.1484-19.2188 9.25781-16.3281ZM10.752-15.957C13.1836-17.7344 16.4746-17.4316 18.7012-15.2051L21.1328-12.793C21.3672-12.5586 21.4062-12.373 21.3379-12.0312L21.0156-10.5469L22.5195-9.0625L23.5059-9.12109C23.7598-9.13086 23.8379-9.11133 24.0332-8.91602L24.6094-8.33984L22.168-5.89844L21.5918-6.47461C21.3965-6.66992 21.3672-6.74805 21.377-7.01172L21.4453-7.98828L19.9512-9.47266L18.4277-9.21875C18.1055-9.15039 17.959-9.17969 17.7148-9.41406L15.7129-11.416C15.459-11.6504 15.4297-11.8164 15.5859-12.1875L16.4648-14.2773C14.9023-15.7324 12.8711-16.3574 10.8398-15.7617C10.6836-15.7227 10.625-15.8496 10.752-15.957Z"/>
  </g>
  <text style="stroke:none;fill:black;font-family:sans-serif;font-size:13;font-weight:bold;" transform="matrix(1 0 0 1 1289 1953)">Exporting</text>
  <text style="stroke:none;fill:black;font-family:sans-serif;font-size:13;" transform="matrix(1 0 0 1 1289 1971)">Symbols should be outlined when exporting to ensure the</text>
  <text style="stroke:none;fill:black;font-family:sans-serif;font-size:13;" transform="matrix(1 0 0 1 1289 1989)">design is preserved when submitting to Xcode.</text>
  <text id="template-version" style="stroke:none;fill:black;font-family:sans-serif;font-size:13;text-anchor:end;" transform="matrix(1 0 0 1 3036 1933)">Template v.2.0</text>
  <text style="stroke:none;fill:black;font-family:sans-serif;font-size:13;text-anchor:end;" transform="matrix(1 0 0 1 3036 1951)">Requires Xcode 12 or greater</text>
  <text id="descriptive-name" style="stroke:none;fill:black;font-family:sans-serif;font-size:13;text-anchor:end;" transform="matrix(1 0 0 1 3036 1969)">Generated from brave.globe</text>
  <text style="stroke:none;fill:black;font-family:sans-serif;font-size:13;text-anchor:end;" transform="matrix(1 0 0 1 3036 1987)">Typeset at 100 points</text>
  <text style="stroke:none;fill:black;font-family:sans-serif;font-size:13;" transform="matrix(1 0 0 1 263 726)">Small</text>
  <text style="stroke:none;fill:black;font-family:sans-serif;font-size:13;" transform="matrix(1 0 0 1 263 1156)">Medium</text>
  <text style="stroke:none;fill:black;font-family:sans-serif;font-size:13;" transform="matrix(1 0 0 1 263 1586)">Large</text>
 </g>
 <g id="Guides">
  <g id="H-reference" style="fill:#27AAE1;stroke:none;" transform="matrix(1 0 0 1 339 696)">
   <path d="M0.993654 0L3.63775 0L29.3281-67.1323L30.0303-67.1323L30.0303-70.459L28.1226-70.459ZM11.6885-24.4799L46.9815-24.4799L46.2315-26.7285L12.4385-26.7285ZM55.1196 0L57.7637 0L30.6382-70.459L29.4326-70.459L29.4326-67.1323Z"/>
  </g>
  <line id="Baseline-S" style="fill:none;stroke:#27AAE1;opacity:1;stroke-width:0.5;" x1="263" x2="3036" y1="696" y2="696"/>
  <line id="Capline-S" style="fill:none;stroke:#27AAE1;opacity:1;stroke-width:0.5;" x1="263" x2="3036" y1="625.541" y2="625.541"/>
  <g id="H-reference" style="fill:#27AAE1;stroke:none;" transform="matrix(1 0 0 1 339 1126)">
   <path d="M0.993654 0L3.63775 0L29.3281-67.1323L30.0303-67.1323L30.0303-70.459L28.1226-70.459ZM11.6885-24.4799L46.9815-24.4799L46.2315-26.7285L12.4385-26.7285ZM55.1196 0L57.7637 0L30.6382-70.459L29.4326-70.459L29.4326-67.1323Z"/>
  </g>
  <line id="Baseline-M" style="fill:none;stroke:#27AAE1;opacity:1;stroke-width:0.5;" x1="263" x2="3036" y1="1126" y2="1126"/>
  <line id="Capline-M" style="fill:none;stroke:#27AAE1;opacity:1;stroke-width:0.5;" x1="263" x2="3036" y1="1055.54" y2="1055.54"/>
  <g id="H-reference" style="fill:#27AAE1;stroke:none;" transform="matrix(1 0 0 1 339 1556)">
   <path d="M0.993654 0L3.63775 0L29.3281-67.1323L30.0303-67.1323L30.0303-70.459L28.1226-70.459ZM11.6885-24.4799L46.9815-24.4799L46.2315-26.7285L12.4385-26.7285ZM55.1196 0L57.7637 0L30.6382-70.459L29.4326-70.459L29.4326-67.1323Z"/>
  </g>
  <line id="Baseline-L" style="fill:none;stroke:#27AAE1;opacity:1;stroke-width:0.5;" x1="263" x2="3036" y1="1556" y2="1556"/>
  <line id="Capline-L" style="fill:none;stroke:#27AAE1;opacity:1;stroke-width:0.5;" x1="263" x2="3036" y1="1485.54" y2="1485.54"/>
  <line id="left-margin" style="fill:none;stroke:#00AEEF;stroke-width:0.5;opacity:1.0;" x1="1391.32" x2="1391.32" y1="1030.79" y2="1150.12"/>
  <line id="right-margin" style="fill:none;stroke:#00AEEF;stroke-width:0.5;opacity:1.0;" x1="1508.37" x2="1508.37" y1="1030.79" y2="1150.12"/>
 </g>
 <g id="Symbols">
  <g id="Regular-L" transform="matrix(1 0 0 1 1376.82 1556)">
   <path d="M72.6854-77.8036C71.6102-77.8036 70.5349-77.2661 69.9977-76.7286C68.9224-75.6536 67.8479-75.6536 66.7727-75.1161C65.1602-75.1161 64.6229-74.0411 63.5477-72.9661C63.5477-72.4286 63.0104-71.8911 62.4724-71.8911C62.4724-71.3536 61.9352-71.3536 60.8599-71.3536C59.2476-71.8911 59.2476-72.4286 59.2476-73.5036C59.2476-74.0411 59.2476-74.0411 59.2476-74.5786C59.2476-75.6536 59.7852-76.1911 60.8599-76.7286C61.3979-76.7286 61.3979-77.2661 61.9352-77.2661C61.9352-77.8036 62.4724-77.8036 61.9352-78.3411C60.8599-78.8786 60.8599-79.9536 60.3227-80.4911C60.3227-81.0286 59.7852-81.5661 58.7102-82.1036C58.7102-82.6411 59.2476-82.6411 59.2476-82.6411C59.2476-82.6411 59.2476-83.1786 58.7102-83.1786C59.7852-84.2536 60.8599-84.7911 62.4724-84.7911C65.6974-84.7911 68.3852-85.3286 71.6102-86.4036C73.2227-86.9411 75.3724-86.9411 77.5229-86.9411C78.0602-86.9411 78.5974-86.9411 79.1354-86.4036C79.6727-86.4036 80.7479-85.8661 81.2852-85.8661C80.7479-85.8661 80.7479-85.8661 80.2099-85.3286C79.6727-85.3286 79.1354-84.7911 78.5974-84.7911C78.0602-84.7911 78.0602-84.2536 78.0602-83.7161C78.0602-83.1786 78.0602-83.1786 77.5229-82.6411C76.4477-81.5661 75.3724-81.0286 74.2979-81.0286C74.2979-81.0286 74.2979-81.0286 73.7599-81.0286C74.2979-80.4911 74.8352-79.9536 75.3724-79.9536C74.2979-79.4161 73.7599-79.9536 73.2227-80.4911C73.2227-79.9536 72.6854-79.9536 72.6854-79.4161C73.2227-79.4161 73.2227-79.4161 73.7599-79.4161L74.2979-79.4161C74.2979-79.4161 74.2979-78.8786 73.7599-78.8786C74.2979-78.3411 73.2227-77.8036 72.6854-77.8036ZM53.3352-75.6536C52.7976-76.1911 52.2602-76.7286 52.2602-77.2661C51.7227-77.2661 51.1851-77.8036 50.6477-78.3411C50.6477-78.3411 50.1102-78.8786 49.5726-78.3411C49.5726-78.3411 49.0352-78.3411 48.4977-78.3411C47.9601-78.8786 47.4227-78.8786 46.3476-78.3411C46.3476-78.3411 45.8102-78.3411 45.2727-77.8036L45.8102-78.3411C44.7351-78.8786 43.6602-78.3411 43.1226-77.2661C43.1226-76.7286 42.5852-76.7286 43.1226-76.7286C44.1977-76.7286 45.8102-76.1911 46.8852-76.7286C47.9601-77.2661 48.4977-76.7286 49.0352-75.6536C49.0352-75.1161 49.5726-74.5786 49.5726-74.0411C49.0352-74.0411 48.4977-74.0411 47.9601-74.0411C47.4227-74.0411 46.8852-73.5036 46.3476-72.9661C47.4227-72.9661 47.4227-72.4286 47.9601-72.4286C48.4977-71.8911 49.5726-71.8911 50.1102-72.4286L49.5726-72.9661L50.1102-72.9661C50.6477-72.4286 51.1851-72.9661 51.1851-73.5036C51.1851-74.0411 51.1851-74.0411 51.1851-74.5786C51.7227-74.5786 52.2602-74.5786 52.7976-74.5786C53.3352-74.5786 53.8727-74.5786 53.8727-75.1161C53.8727-75.6536 53.3352-75.6536 53.3352-75.6536ZM83.4349-64.9036C84.5102-64.9036 85.5854-65.4411 86.6599-65.4411C87.1979-65.4411 87.7352-65.9786 87.7352-66.5161C87.1979-67.0536 86.6599-67.0536 86.1227-67.5911L85.5854-67.5911C84.5102-67.5911 83.9729-67.0536 83.9729-66.5161C84.5102-66.5161 84.5102-66.5161 85.0474-65.9786C83.9729-65.4411 83.4349-65.4411 83.4349-64.9036ZM51.7227-62.7536C51.1851-62.7536 50.6477-63.2911 51.1851-63.8286C50.1102-63.8286 49.0352-62.7536 48.4977-61.6786C49.0352-61.6786 49.5726-61.1411 50.1102-61.1411C50.6477-61.1411 51.1851-61.6786 51.7227-61.6786C51.7227-61.6786 52.2602-61.6786 52.2602-62.2161C52.2602-62.2161 52.2602-62.2161 51.7227-62.7536ZM80.2099-65.9786C81.2852-65.9786 82.8977-67.0536 82.8977-68.6661C81.2852-68.6661 80.2099-67.5911 80.2099-65.9786ZM31.8351-40.1786C31.8351-39.1034 30.7602-39.6413 30.7602-39.1034C32.3727-38.5661 33.4476-39.1034 35.0601-39.6413C33.9852-40.1786 32.9102-40.1786 31.8351-40.1786ZM41.5101-72.9661C40.9727-73.5036 39.8976-72.9661 39.8976-71.8911C40.9727-71.8911 41.5101-71.8911 42.5852-71.8911C42.5852-72.9661 42.0477-72.9661 41.5101-72.9661ZM24.3102-41.7911C25.9227-41.2538 26.9976-41.2538 28.6101-40.7159C27.5352-41.7911 25.9227-42.3284 24.3102-41.7911ZM40.9727-77.2661C42.0477-77.8036 42.5852-77.8036 43.6602-78.3411C42.5852-78.8786 41.5101-78.3411 40.9727-77.2661ZM25.3851-32.1161C24.8477-32.1161 24.3102-32.6534 23.7726-32.6534C23.2352-32.6534 23.2352-33.1913 22.6977-33.1913C22.6977-32.1161 23.7726-31.5788 25.3851-32.1161ZM54.9477-83.7161C54.4101-83.1786 53.3352-83.1786 52.7976-82.6411C53.3352-82.6411 54.4101-82.6411 54.9477-83.7161ZM41.5101-74.0411C42.5852-74.0411 43.1226-74.5786 44.1977-75.1161C43.1226-75.1161 42.0477-74.5786 41.5101-74.0411ZM44.7351-72.9661C45.2727-72.9661 45.8102-72.9661 46.3476-73.5036C45.2727-73.5036 45.2727-73.5036 44.7351-72.9661ZM54.9477-83.7161C54.9477-83.7161 54.9477-84.2536 54.9477-83.7161C54.4101-83.7161 53.8727-83.7161 52.7976-83.7161C53.8727-83.7161 54.4101-83.7161 54.9477-83.7161ZM84.5102-69.7411C83.9729-69.2036 83.9729-69.2036 85.0474-68.6661C85.0474-69.2036 84.5102-69.2036 84.5102-69.7411ZM137.723-35.3411C137.723 0.1339 108.698 29.1589 73.2227 29.1589C37.7477 29.1589 8.72266 0.1339 8.72266-35.3411C8.72266-70.8161 37.7477-99.8411 73.2227-99.8411C108.698-99.8411 137.723-70.8161 137.723-35.3411ZM121.06-11.6909C124.823-18.6788 126.435-26.7413 126.435-35.3411C126.435-36.9536 126.435-38.0288 126.435-39.6413L125.898-39.1034L125.36-38.5661C124.285-38.5661 123.747-38.0288 123.21-36.9536C123.21-36.9536 123.21-36.9536 122.673-36.4163C121.06-35.8784 119.985-35.3411 118.373-34.8038C117.297-34.2659 116.76-34.8038 116.76-35.8784C116.76-36.9536 116.223-38.0288 115.685-38.5661C115.148-39.1034 115.148-39.1034 114.61-39.6413C114.072-40.1786 114.072-40.7159 113.535-41.2538C113.535-42.3284 112.998-42.8663 112.46-43.4036C111.385-44.4788 110.31-45.5534 110.31-47.1659C110.31-47.1659 110.31-46.6286 109.773-46.0913C109.235-46.6286 109.235-47.1659 108.698-47.1659C109.235-46.0913 109.773-45.0161 110.31-43.9409C110.847-42.8663 111.385-42.3284 111.923-41.2538C111.923-41.2538 112.46-40.7159 111.923-40.7159C111.923-39.6413 112.46-39.1034 112.998-38.5661C113.535-38.0288 113.535-37.4909 113.535-37.4909C113.535-36.9536 114.072-36.4163 114.61-35.8784C115.685-35.3411 116.76-34.2659 117.297-32.6534C117.297-32.1161 118.373-31.5788 118.91-31.5788C119.985-31.5788 120.522-32.1161 121.598-32.6534C122.135-32.6534 122.135-32.6534 122.673-33.1913C122.135-29.9663 121.598-27.2786 118.91-25.6661C117.297-24.5909 116.223-23.5163 115.148-21.9038C113.535-20.2913 112.998-18.1409 114.072-15.9911C114.61-14.9159 114.61-13.8413 114.61-12.7661C114.61-11.6909 114.072-10.6163 112.998-10.0784C111.923-9.5411 111.385-9.00382 110.847-8.46589C109.773-7.39132 109.773-6.85339 110.31-5.77882C110.847-5.24089 110.31-4.16632 109.235-3.62838L108.698-3.62838C108.16-3.0911 107.622-3.0911 108.16-2.01589C108.16-1.4786 108.16-0.941315 108.16-0.941315C107.085 0.1339 106.01 1.7464 104.935 2.82161C104.397 3.3589 103.86 3.3589 103.323 3.89618C102.248 3.89618 100.635 3.89618 99.5599 4.43412C99.0227 4.43412 98.4854 4.43412 98.4854 3.3589C98.4854 2.82161 98.4854 2.28368 97.9474 1.7464C97.4102 1.20911 97.4102 0.671185 96.8729 0.1339C96.3349-0.403385 95.7977-0.941315 96.3349-2.01589C96.3349-3.0911 96.3349-4.16632 95.7977-5.24089C94.7224-7.9286 94.7224-8.46589 94.1852-9.5411C93.6479-11.1536 93.6479-12.2288 94.1852-13.8413C94.1852-14.3786 94.7224-14.3786 94.7224-14.9159C95.2604-15.4538 95.2604-15.9911 94.7224-17.0663C94.1852-18.1409 93.6479-19.2161 93.6479-20.2913C93.6479-21.3659 93.1099-22.4411 92.0354-22.9784C91.4974-23.5163 90.9602-24.5909 91.4974-25.1288C91.4974-25.6661 92.0354-26.2034 92.0354-26.7413C92.5727-28.3538 91.4974-29.4284 89.8849-29.4284L89.3477-29.4284C89.3477-29.4284 88.8104-29.4284 88.8104-29.9663C88.2724-31.0409 87.7352-31.5788 86.1227-31.0409C85.5854-30.5036 84.5102-30.5036 83.9729-29.9663C83.4349-29.9663 82.8977-29.9663 82.8977-29.9663C81.8224-30.5036 81.2852-29.9663 80.7479-29.9663C80.2099-29.4284 79.1354-29.4284 78.5974-29.9663C76.9849-30.5036 75.9104-31.5788 74.8352-33.7286C74.2979-34.8038 74.2979-35.3411 73.2227-35.8784C72.6854-35.8784 72.6854-36.4163 72.6854-36.4163C73.2227-36.9536 73.2227-36.9536 73.2227-37.4909C72.6854-38.0288 72.6854-38.0288 73.2227-38.5661L73.7599-39.1034C74.2979-39.6413 74.2979-40.1786 73.7599-40.7159C73.7599-41.2538 73.7599-41.2538 73.2227-41.7911C72.6854-42.8663 73.2227-43.4036 73.2227-43.9409C74.2979-45.0161 74.8352-46.0913 75.9104-47.7038C76.4477-48.2411 76.9849-48.7786 77.5229-48.7786C78.0602-48.2411 78.5974-49.3161 78.5974-50.3911C78.5974-50.9286 78.5974-51.4661 79.1354-52.0036C79.6727-52.5411 80.2099-53.0786 80.7479-53.6161C81.2852-54.1536 81.2852-54.1536 81.8224-53.6161C82.3604-53.6161 82.8977-53.0786 83.4349-53.0786C83.9729-53.0786 84.5102-53.6161 85.0474-53.6161C85.5854-54.1536 86.6599-54.1536 87.1979-54.6911C88.8104-54.6911 89.8849-54.6911 91.4974-54.6911C92.5727-54.6911 92.5727-54.6911 92.0354-53.6161C91.4974-52.0036 92.0354-52.0036 93.6479-51.4661C94.7224-51.4661 94.7224-51.4661 94.7224-51.4661C95.2604-51.4661 95.7977-50.9286 96.3349-50.3911L96.8729-49.8536C97.4102-49.8536 97.4102-49.8536 97.9474-49.3161C99.0227-49.3161 99.0227-49.3161 99.0227-50.3911C99.5599-50.9286 100.098-51.4661 100.635-51.4661C101.172-51.4661 101.71-50.9286 102.248-50.9286C102.785-50.9286 103.323-50.3911 103.86-50.3911C105.473-50.3911 107.085-50.3911 108.698-50.3911C109.235-50.3911 109.773-50.9286 109.773-51.4661C109.773-52.5411 110.31-53.0786 110.31-54.1536C110.31-55.2286 110.31-55.2286 109.235-54.6911C108.698-54.6911 108.16-54.1536 107.622-54.6911C107.085-55.2286 106.548-55.2286 105.473-54.6911C104.397-54.1536 103.86-54.6911 103.86-55.7661C103.86-56.3036 103.323-56.8411 103.323-57.3786C104.397-57.9161 106.01-58.4536 107.085-58.9911L107.622-58.9911C108.698-58.9911 109.773-58.4536 110.31-58.4536C110.847-58.4536 111.385-58.4536 111.923-58.4536C112.46-58.4536 112.998-59.5286 112.46-60.0661C112.46-60.0661 111.923-60.6036 111.385-60.6036C110.847-60.6036 110.31-61.1411 109.773-61.1411C109.235-61.1411 109.235-61.6786 109.235-62.2161C110.847-61.6786 110.847-62.2161 110.847-62.7536C110.31-62.2161 109.235-62.2161 108.698-61.6786C109.235-61.1411 109.235-61.1411 109.773-61.1411C109.235-61.1411 108.698-60.6036 108.698-60.6036C108.16-60.6036 108.16-60.6036 107.622-61.1411C107.622-62.2161 106.548-62.2161 106.01-61.6786C105.473-61.1411 104.935-60.6036 104.935-60.0661C104.397-59.5286 104.397-58.4536 104.935-57.9161C103.86-57.3786 102.248-57.9161 101.172-56.8411C101.172-56.3036 101.71-55.7661 101.71-55.2286C101.71-54.6911 101.71-54.1536 101.172-54.1536C100.635-54.1536 100.635-54.6911 100.098-54.6911C100.098-54.6911 100.098-55.2286 100.098-55.7661L99.5599-55.7661C99.0227-55.7661 98.4854-56.3036 98.4854-56.8411C98.4854-57.9161 97.9474-58.9911 96.3349-58.9911C95.7977-59.5286 94.7224-59.5286 94.1852-60.6036C94.1852-61.1411 93.6479-60.6036 93.6479-60.6036C94.1852-60.6036 94.1852-60.0661 94.7224-60.0661C95.2604-59.5286 96.3349-58.4536 96.8729-57.9161C97.4102-57.3786 96.8729-56.8411 96.3349-56.3036C95.7977-55.7661 94.1852-56.3036 94.1852-56.8411C93.6479-57.3786 94.1852-57.9161 94.7224-58.4536C94.1852-58.9911 93.1099-59.5286 92.5727-60.0661L92.0354-60.0661C90.9602-59.5286 89.8849-59.5286 88.8104-59.5286L88.2724-58.9911C88.2724-58.4536 88.2724-58.4536 87.7352-57.9161C87.1979-57.9161 86.6599-57.3786 86.6599-57.3786C85.5854-56.8411 85.5854-56.8411 85.5854-56.3036C85.5854-55.7661 85.5854-55.7661 85.5854-55.2286C85.0474-54.6911 84.5102-54.6911 83.9729-54.1536C82.8977-54.1536 81.8224-54.1536 80.7479-54.1536C79.1354-54.1536 79.1354-54.6911 79.6727-56.3036C79.6727-57.3786 80.2099-57.9161 80.2099-58.9911C80.2099-58.9911 80.2099-59.5286 80.7479-59.5286C81.2852-59.5286 81.2852-59.5286 81.8224-59.5286C82.3604-59.5286 83.4349-58.9911 83.9729-58.9911C85.0474-58.9911 85.5854-59.5286 85.5854-60.6036C85.5854-61.6786 85.0474-62.7536 83.4349-63.2911C83.9729-63.2911 84.5102-63.8286 85.0474-63.8286C86.1227-63.8286 87.1979-64.3661 87.7352-64.9036C88.2724-65.4411 88.8104-65.9786 89.3477-66.5161C89.8849-67.0536 90.4229-67.5911 91.4974-67.5911C92.0354-67.5911 92.0354-67.5911 92.0354-68.1286C92.0354-68.6661 92.0354-68.6661 91.4974-69.2036C91.4974-69.7411 91.4974-70.2786 92.5727-70.2786C93.1099-70.2786 93.6479-69.7411 93.1099-69.2036L93.1099-68.6661C93.1099-68.6661 93.1099-68.1286 93.6479-68.1286C94.1852-68.1286 95.2604-68.1286 95.7977-67.5911L96.3349-67.5911C96.8729-67.5911 97.4102-68.1286 98.4854-68.1286C99.5599-68.1286 100.098-68.6661 100.098-69.7411C100.098-70.2786 100.098-70.2786 100.635-70.2786L101.172-70.2786L101.71-70.2786L101.71-70.8161C101.71-70.8161 101.71-71.3536 101.172-71.3536C101.71-71.3536 102.248-71.3536 102.785-71.8911C103.323-71.8911 103.86-72.4286 104.397-72.4286L103.86-72.4286C102.785-72.4286 102.248-72.4286 101.172-72.4286C100.635-72.4286 100.098-72.4286 99.5599-72.9661C99.0227-73.5036 99.5599-74.0411 100.098-74.5786C100.098-75.1161 100.098-75.6536 100.098-76.1911L100.098-76.7286L99.5599-76.7286C99.0227-76.7286 99.0227-76.1911 99.0227-76.1911C98.4854-75.6536 97.9474-75.1161 97.4102-75.1161C96.8729-75.1161 96.8729-74.5786 96.8729-74.0411L97.4102-73.5036C97.9474-72.9661 97.9474-72.4286 97.4102-72.4286C96.8729-72.4286 96.8729-71.8911 96.3349-71.3536C96.3349-70.8161 95.7977-70.8161 95.7977-70.2786C95.7977-69.7411 95.2604-69.7411 94.7224-69.7411C94.1852-69.7411 94.1852-70.2786 93.6479-70.8161C93.1099-72.4286 93.1099-72.4286 92.0354-71.3536C91.4974-71.3536 90.9602-70.8161 90.4229-71.3536C89.3477-72.4286 89.8849-73.5036 90.9602-74.0411C92.5727-75.1161 94.1852-76.1911 95.7977-77.8036C97.9474-79.9536 100.635-80.4911 103.323-79.9536L103.86-79.9536C103.323-80.4911 102.785-80.4911 102.785-81.0286C101.172-82.1036 99.5599-82.6411 97.9474-83.7161C97.4102-83.7161 97.4102-83.7161 96.8729-83.7161C95.7977-82.6411 94.7224-82.6411 94.1852-83.7161C94.1852-84.2536 93.6479-84.2536 93.6479-84.2536C93.6479-84.2536 93.1099-84.2536 93.1099-84.7911C93.1099-85.3286 92.5727-85.3286 92.5727-85.3286C88.2724-86.9411 83.9729-88.0161 79.6727-88.5536C71.6102-89.6286 64.0849-88.5536 56.5602-86.4036C54.4101-85.8661 52.2602-84.7911 50.6477-84.2536C50.1102-83.7161 49.5726-83.7161 49.0352-83.1786L49.0352-82.6411C48.4977-82.6411 47.9601-82.1036 47.4227-82.1036C46.8852-82.1036 46.8852-82.1036 46.3476-82.1036C44.1977-80.4911 42.0477-79.4161 39.8976-77.2661C39.8976-77.2661 39.3602-77.2661 39.3602-76.7286C39.3602-76.7286 38.8227-76.1911 38.2851-76.1911C37.7477-75.6536 36.6726-74.5786 36.1352-74.0411C37.2102-74.0411 38.2851-74.0411 38.8227-75.1161C39.3602-75.1161 39.3602-75.6536 38.8227-75.6536C38.8227-75.6536 38.8227-75.6536 38.8227-76.1911C40.4352-76.7286 40.4352-76.7286 40.9727-76.7286C40.9727-76.1911 40.4352-75.6536 40.9727-75.6536C40.9727-75.6536 41.5101-75.6536 42.0477-75.1161C41.5101-75.1161 40.9727-74.5786 40.9727-74.0411C40.9727-73.5036 40.4352-73.5036 39.8976-72.9661C39.8976-72.9661 39.3602-72.9661 38.8227-72.9661C39.3602-72.4286 39.3602-71.8911 38.8227-71.8911C38.2851-71.8911 37.7477-71.8911 37.2102-71.3536C37.2102-71.3536 36.6726-71.3536 36.6726-70.8161C36.6726-70.2786 36.1352-70.2786 35.5977-69.7411C35.0601-70.2786 33.9852-69.7411 33.4476-69.2036C32.9102-69.2036 32.3727-68.6661 32.3727-68.1286C31.8351-67.5911 31.8351-67.0536 32.3727-66.5161C32.9102-66.5161 32.9102-65.9786 33.4476-65.9786C34.5227-65.9786 35.5977-65.4411 36.1352-65.4411C36.1352-64.9036 36.1352-64.3661 36.1352-63.8286C36.1352-63.8286 36.1352-63.2911 36.6726-63.2911C36.6726-63.2911 37.2102-63.2911 37.7477-63.2911C37.7477-63.2911 38.2851-63.8286 38.2851-64.3661C38.8227-65.4411 39.3602-65.9786 39.8976-65.9786C40.4352-65.9786 40.9727-66.5161 41.5101-67.0536C41.5101-67.0536 42.0477-67.5911 42.0477-68.1286C42.0477-68.6661 42.0477-69.2036 42.5852-69.2036C43.1226-69.7411 43.1226-70.2786 43.6602-70.2786C43.6602-71.8911 44.7351-71.8911 46.3476-71.3536C47.4227-70.8161 47.4227-70.2786 46.8852-69.7411C46.8852-69.2036 46.8852-69.2036 47.4227-69.2036C47.9601-69.2036 48.4977-69.2036 48.4977-69.7411C49.0352-70.2786 49.5726-70.2786 50.1102-70.8161C50.1102-69.2036 50.6477-67.5911 50.6477-66.5161C50.6477-66.5161 51.1851-66.5161 51.7227-66.5161C51.7227-66.5161 52.2602-66.5161 52.2602-65.9786L52.2602-65.4411C52.2602-65.4411 52.2602-65.4411 51.7227-64.9036C50.1102-64.3661 48.4977-63.2911 46.8852-63.2911C45.8102-63.2911 44.1977-62.7536 43.1226-62.2161C42.5852-62.2161 42.0477-61.6786 41.5101-61.6786C41.5101-61.6786 41.5101-61.6786 41.5101-61.1411C42.0477-61.1411 42.5852-61.6786 43.1226-61.6786C43.6602-62.2161 44.1977-62.2161 44.7351-62.2161C44.7351-61.6786 44.1977-61.1411 44.1977-60.6036C44.7351-59.5286 45.8102-60.0661 46.3476-60.0661C45.2727-58.9911 43.6602-58.4536 42.5852-58.4536C43.1226-58.9911 43.6602-58.9911 44.1977-59.5286C42.5852-59.5286 40.9727-58.9911 39.8976-57.9161L39.3602-57.3786C39.3602-56.8411 38.8227-56.3036 38.2851-56.3036C36.1352-55.7661 35.0601-54.6911 33.9852-53.6161C33.9852-53.6161 33.4476-53.6161 33.4476-54.1536C33.4476-53.6161 33.4476-53.0786 33.4476-53.0786C33.4476-52.5411 32.9102-51.4661 32.3727-51.4661C31.2977-50.3911 30.7602-50.3911 30.2226-49.8536C29.6852-49.3161 28.6101-49.3161 28.0727-48.7786C27.5352-48.2411 27.5352-47.1659 26.9976-47.1659C26.4602-46.6286 25.9227-46.6286 25.3851-47.1659C24.8477-47.1659 24.3102-47.7038 24.3102-47.7038C23.7726-47.7038 23.2352-47.7038 22.6977-47.1659C22.1601-46.6286 21.6227-46.6286 20.5476-46.6286C20.0102-44.4788 20.0102-42.8663 19.4727-40.7159C20.0102-41.2538 20.5476-41.2538 21.6227-40.7159C21.0852-39.6413 20.5476-38.5661 20.0102-36.9536C20.5476-36.9536 21.0852-36.9536 21.6227-36.9536C22.1601-36.9536 22.6977-36.9536 22.6977-36.9536C23.7726-36.9536 23.7726-36.4163 23.7726-35.8784C23.7726-35.3411 23.2352-34.8038 23.2352-34.2659C23.2352-33.7286 23.2352-33.7286 23.2352-33.1913L22.6977-32.6534L22.1601-33.1913C21.6227-33.7286 21.6227-34.2659 21.6227-34.8038C20.5476-35.3411 20.0102-35.3411 19.4727-35.3411C19.4727-20.8286 25.3851-7.39132 35.0601 2.28368C36.1352 3.3589 37.7477 4.43412 38.8227 5.50868C38.8227 5.50868 38.8227 4.9714 38.2851 4.9714C36.6726 3.3589 36.6726 1.7464 36.1352-0.403385C36.1352-3.0911 35.5977-6.3161 35.0601-9.00382C34.5227-11.1536 33.4476-12.7661 31.2977-13.8413C30.2226-14.3786 29.6852-14.3786 29.6852-15.4538C29.6852-15.9911 29.1477-15.9911 29.1477-16.5284C28.0727-18.1409 26.4602-20.2913 25.3851-21.9038C24.8477-22.4411 24.8477-22.9784 25.3851-23.5163C25.3851-23.5163 25.3851-23.5163 25.9227-24.0536C25.3851-25.1288 25.3851-25.1288 25.9227-26.2034C25.9227-26.7413 26.4602-26.7413 26.4602-27.2786C26.9976-27.8159 26.9976-28.3538 27.5352-28.8911C28.0727-29.9663 28.0727-30.5036 27.5352-31.5788L27.5352-32.1161C26.9976-32.1161 26.4602-32.6534 25.9227-32.6534C26.9976-32.6534 27.5352-32.6534 28.0727-32.1161C28.6101-33.1913 31.2977-35.3411 32.3727-35.3411C32.3727-34.8038 32.3727-34.8038 32.3727-34.2659L32.3727-33.7286C33.4476-35.3411 33.4476-35.3411 35.0601-34.8038C36.6726-34.2659 37.7477-33.7286 39.3602-34.2659L39.8976-34.2659C39.8976-33.7286 39.8976-33.7286 39.8976-33.7286C40.4352-33.1913 40.9727-32.6534 41.5101-32.1161C42.0477-31.0409 43.1226-30.5036 44.1977-30.5036C44.7351-30.5036 45.2727-30.5036 45.8102-30.5036C46.8852-30.5036 47.4227-29.9663 47.4227-28.8911C47.4227-28.3538 47.4227-27.2786 47.9601-26.7413C48.4977-26.7413 49.0352-26.7413 49.5726-25.6661C51.1851-26.2034 52.2602-25.6661 52.2602-24.5909C53.3352-24.5909 53.8727-24.5909 54.9477-24.5909C56.0226-24.5909 56.5602-24.0536 57.0977-23.5163C57.6351-22.9784 58.1727-22.4411 58.7102-22.4411C59.7852-21.9038 60.3227-21.3659 59.7852-20.2913C59.2476-19.2161 58.7102-17.6036 57.6351-16.5284C57.0977-14.9159 57.0977-14.3786 57.0977-13.8413C57.0977-12.7661 57.0977-12.2288 57.0977-11.1536C57.0977-10.0784 56.5602-9.00382 56.0226-7.9286C55.4852-7.39132 55.4852-7.39132 54.4101-7.39132C53.8727-7.39132 53.8727-7.39132 53.3352-7.39132C52.7976-6.85339 52.2602-6.85339 51.1851-6.3161C50.6477-6.3161 50.6477-5.77882 51.1851-5.24089C51.7227-4.7036 51.1851-4.16632 51.1851-3.62838C51.1851-3.0911 50.6477-2.55382 50.6477-2.55382C50.6477-2.01589 50.6477-1.4786 50.6477-1.4786C50.1102-0.941315 50.1102-0.403385 49.5726 0.1339C49.0352 1.20911 48.4977 1.20911 47.4227 0.671185C46.8852 0.671185 46.8852 0.1339 46.3476 0.1339L46.8852 0.671185C47.4227 1.20911 47.4227 1.20911 47.9601 1.7464C48.4977 2.82161 47.9601 3.3589 46.8852 3.3589C46.3476 3.3589 46.3476 3.3589 45.8102 3.3589C45.2727 3.3589 45.2727 3.3589 45.2727 4.43412L45.2727 4.9714L45.2727 5.50868L44.7351 5.50868C44.7351 5.50868 44.1977 5.50868 44.1977 4.9714C44.1977 5.50868 44.7351 5.50868 44.7351 6.04661C45.2727 6.5839 45.2727 6.5839 44.7351 7.12118C44.7351 7.65911 44.1977 7.65911 44.1977 8.1964L44.1977 8.73368C44.7351 9.27161 45.2727 9.8089 45.8102 10.3462C51.7227 14.1091 58.7102 16.2589 65.6974 17.3341C71.6102 18.4087 77.5229 17.8714 82.8977 16.7962C92.5727 15.1837 100.635 10.8841 108.16 4.43412C108.698 3.89618 109.235 3.3589 109.773 2.82161C110.31 2.28368 110.847 1.7464 111.385 1.20911C112.46 0.1339 113.535-0.941315 114.072-2.01589C115.148-3.0911 115.685-4.16632 116.223-5.24089C115.148-6.3161 115.148-6.85339 115.685-7.9286C115.685-8.46589 116.223-8.46589 116.223-9.00382C116.223-9.5411 116.76-10.6163 116.76-11.1536C116.76-12.2288 116.76-12.7661 117.835-12.7661C118.91-13.3034 119.985-13.8413 120.522-15.4538C121.598-14.3786 121.598-13.8413 121.06-11.6909ZM31.2977-58.4536C31.2977-58.4536 31.2977-57.9161 31.2977-58.4536C30.7602-57.9161 30.7602-57.3786 30.7602-57.3786L31.2977-57.3786C31.2977-57.3786 31.8351-57.3786 31.8351-57.9161C32.3727-57.9161 32.3727-58.4536 32.9102-58.4536L33.4476-58.9911L32.9102-58.9911C31.8351-58.9911 31.8351-58.9911 31.2977-60.0661C31.2977-60.6036 30.7602-61.1411 30.2226-61.1411C29.1477-61.1411 28.0727-60.0661 26.9976-59.5286C28.0727-59.5286 29.1477-59.5286 30.2226-59.5286C30.2226-59.5286 30.2226-59.5286 29.6852-59.5286C29.1477-58.4536 28.0727-57.9161 27.5352-56.8411C27.5352-56.8411 27.5352-56.3036 27.5352-55.7661C28.0727-55.7661 28.0727-55.7661 28.6101-56.3036L29.1477-56.8411C29.6852-57.3786 29.6852-57.9161 30.2226-57.9161C30.2226-58.4536 30.7602-58.9911 31.2977-58.4536ZM124.823-46.0913C123.747-45.5534 122.673-46.0913 121.598-47.1659C121.598-47.7038 121.598-47.7038 121.598-48.2411L121.06-48.7786C120.522-48.7786 120.522-48.7786 119.985-48.7786C119.985-48.2411 119.985-48.2411 119.985-47.7038C120.522-47.1659 121.06-46.6286 121.06-46.0913C121.598-45.0161 121.598-45.0161 122.673-45.0161C122.673-43.9409 123.21-43.9409 124.285-44.4788C124.823-45.0161 125.36-45.0161 125.898-45.5534L126.435-45.0161C126.435-45.5534 126.435-46.0913 125.898-46.6286C125.36-46.0913 125.36-46.0913 124.823-46.0913ZM119.448-62.2161C118.91-62.2161 118.91-62.2161 117.835-62.2161C117.297-62.2161 117.297-61.6786 116.76-61.6786C116.223-61.1411 116.223-60.6036 116.76-60.0661C117.297-59.5286 117.835-58.4536 118.91-57.9161C119.448-57.3786 119.448-56.8411 118.91-56.3036C118.373-55.7661 118.373-55.2286 118.91-55.2286C119.448-54.6911 119.985-54.6911 121.06-54.6911C121.598-54.6911 122.135-54.6911 122.135-55.2286C122.673-55.7661 122.135-56.3036 121.598-56.8411C122.135-56.3036 121.598-56.3036 121.06-56.8411C121.598-56.8411 121.598-56.8411 122.135-56.8411C122.135-56.8411 122.135-57.3786 121.598-57.3786C121.598-57.3786 121.06-57.3786 121.06-57.9161C120.522-58.4536 119.985-58.4536 119.448-58.9911C119.448-58.9911 118.91-59.5286 119.448-60.0661C119.448-60.0661 119.985-60.6036 120.522-60.6036C120.522-60.6036 120.522-60.6036 121.06-60.6036C119.985-61.1411 119.985-61.6786 119.448-62.2161ZM107.622-75.6536L108.16-75.6536C107.622-76.1911 107.085-76.7286 106.548-77.2661C106.01-77.8036 105.473-77.8036 104.397-77.8036C104.397-77.8036 104.935-77.8036 105.473-77.8036C104.935-77.8036 104.935-78.3411 104.397-78.3411C104.397-77.8036 104.397-77.8036 104.397-77.2661C104.397-76.7286 104.935-76.1911 105.473-75.6536C106.01-75.6536 106.548-75.1161 107.622-75.6536C107.622-75.1161 108.16-75.1161 107.622-75.6536Z"/>
  </g>
  <g id="Regular-M" transform="matrix(1 0 0 1 1391.32 1126)">
   <path d="M58.3062-67.9507C57.4727-67.9507 56.6392-67.5341 56.2227-67.1175C55.3892-66.2841 54.5562-66.2841 53.7227-65.8675C52.4727-65.8675 52.0562-65.0341 51.2227-64.2007C51.2227-63.7841 50.8062-63.3675 50.3892-63.3675C50.3892-62.9507 49.9727-62.9507 49.1392-62.9507C47.8893-63.3675 47.8893-63.7841 47.8893-64.6175C47.8893-65.0341 47.8893-65.0341 47.8893-65.4507C47.8893-66.2841 48.306-66.7007 49.1392-67.1175C49.5562-67.1175 49.5562-67.5341 49.9727-67.5341C49.9727-67.9507 50.3892-67.9507 49.9727-68.3675C49.1392-68.7841 49.1392-69.6175 48.7227-70.0341C48.7227-70.4507 48.306-70.8675 47.4727-71.2841C47.4727-71.7007 47.8893-71.7007 47.8893-71.7007C47.8893-71.7007 47.8893-72.1175 47.4727-72.1175C48.306-72.9507 49.1392-73.3675 50.3892-73.3675C52.8892-73.3675 54.9727-73.7841 57.4727-74.6175C58.7227-75.0341 60.3892-75.0341 62.0562-75.0341C62.4727-75.0341 62.8892-75.0341 63.3062-74.6175C63.7227-74.6175 64.5562-74.2007 64.9727-74.2007C64.5562-74.2007 64.5562-74.2007 64.1392-73.7841C63.7227-73.7841 63.3062-73.3675 62.8892-73.3675C62.4727-73.3675 62.4727-72.9507 62.4727-72.5341C62.4727-72.1175 62.4727-72.1175 62.0562-71.7007C61.2227-70.8675 60.3892-70.4507 59.5562-70.4507C59.5562-70.4507 59.5562-70.4507 59.1392-70.4507C59.5562-70.0341 59.9727-69.6175 60.3892-69.6175C59.5562-69.2007 59.1392-69.6175 58.7227-70.0341C58.7227-69.6175 58.3062-69.6175 58.3062-69.2007C58.7227-69.2007 58.7227-69.2007 59.1392-69.2007L59.5562-69.2007C59.5562-69.2007 59.5562-68.7841 59.1392-68.7841C59.5562-68.3675 58.7227-67.9507 58.3062-67.9507ZM43.306-66.2841C42.8893-66.7007 42.4727-67.1175 42.4727-67.5341C42.056-67.5341 41.6393-67.9507 41.2227-68.3675C41.2227-68.3675 40.806-68.7841 40.3893-68.3675C40.3893-68.3675 39.9727-68.3675 39.556-68.3675C39.1393-68.7841 38.7227-68.7841 37.8893-68.3675C37.8893-68.3675 37.4727-68.3675 37.056-67.9507L37.4727-68.3675C36.6393-68.7841 35.806-68.3675 35.3893-67.5341C35.3893-67.1175 34.9727-67.1175 35.3893-67.1175C36.2227-67.1175 37.4727-66.7007 38.306-67.1175C39.1393-67.5341 39.556-67.1175 39.9727-66.2841C39.9727-65.8675 40.3893-65.4507 40.3893-65.0341C39.9727-65.0341 39.556-65.0341 39.1393-65.0341C38.7227-65.0341 38.306-64.6175 37.8893-64.2007C38.7227-64.2007 38.7227-63.7841 39.1393-63.7841C39.556-63.3675 40.3893-63.3675 40.806-63.7841L40.3893-64.2007L40.806-64.2007C41.2227-63.7841 41.6393-64.2007 41.6393-64.6175C41.6393-65.0341 41.6393-65.0341 41.6393-65.4507C42.056-65.4507 42.4727-65.4507 42.8893-65.4507C43.306-65.4507 43.7227-65.4507 43.7227-65.8675C43.7227-66.2841 43.306-66.2841 43.306-66.2841ZM66.6392-57.9507C67.4727-57.9507 68.3062-58.3675 69.1392-58.3675C69.5562-58.3675 69.9727-58.7841 69.9727-59.2007C69.5562-59.6175 69.1392-59.6175 68.7227-60.0341L68.3062-60.0341C67.4727-60.0341 67.0562-59.6175 67.0562-59.2007C67.4727-59.2007 67.4727-59.2007 67.8892-58.7841C67.0562-58.3675 66.6392-58.3675 66.6392-57.9507ZM42.056-56.2841C41.6393-56.2841 41.2227-56.7007 41.6393-57.1175C40.806-57.1175 39.9727-56.2841 39.556-55.4507C39.9727-55.4507 40.3893-55.0341 40.806-55.0341C41.2227-55.0341 41.6393-55.4507 42.056-55.4507C42.056-55.4507 42.4727-55.4507 42.4727-55.8675C42.4727-55.8675 42.4727-55.8675 42.056-56.2841ZM64.1392-58.7841C64.9727-58.7841 66.2227-59.6175 66.2227-60.8675C64.9727-60.8675 64.1392-60.0341 64.1392-58.7841ZM26.6393-38.7841C26.6393-37.9506 25.806-38.3676 25.806-37.9506C27.056-37.5341 27.8893-37.9506 29.1393-38.3676C28.306-38.7841 27.4727-38.7841 26.6393-38.7841ZM34.1393-64.2007C33.7227-64.6175 32.8893-64.2007 32.8893-63.3675C33.7227-63.3675 34.1393-63.3675 34.9727-63.3675C34.9727-64.2007 34.556-64.2007 34.1393-64.2007ZM20.806-40.0341C22.056-39.6176 22.8893-39.6176 24.1393-39.2006C23.306-40.0341 22.056-40.4506 20.806-40.0341ZM33.7227-67.5341C34.556-67.9507 34.9727-67.9507 35.806-68.3675C34.9727-68.7841 34.1393-68.3675 33.7227-67.5341ZM21.6393-32.5341C21.2227-32.5341 20.806-32.9506 20.3893-32.9506C19.9727-32.9506 19.9727-33.3676 19.556-33.3676C19.556-32.5341 20.3893-32.1176 21.6393-32.5341ZM44.556-72.5341C44.1393-72.1175 43.306-72.1175 42.8893-71.7007C43.306-71.7007 44.1393-71.7007 44.556-72.5341ZM34.1393-65.0341C34.9727-65.0341 35.3893-65.4507 36.2227-65.8675C35.3893-65.8675 34.556-65.4507 34.1393-65.0341ZM36.6393-64.2007C37.056-64.2007 37.4727-64.2007 37.8893-64.6175C37.056-64.6175 37.056-64.6175 36.6393-64.2007ZM44.556-72.5341C44.556-72.5341 44.556-72.9507 44.556-72.5341C44.1393-72.5341 43.7227-72.5341 42.8893-72.5341C43.7227-72.5341 44.1393-72.5341 44.556-72.5341ZM67.4727-61.7007C67.0562-61.2841 67.0562-61.2841 67.8892-60.8675C67.8892-61.2841 67.4727-61.2841 67.4727-61.7007ZM108.723-35.0341C108.723-7.5341 86.2227 14.9659 58.7227 14.9659C31.2227 14.9659 8.72266-7.5341 8.72266-35.0341C8.72266-62.5341 31.2227-85.0341 58.7227-85.0341C86.2227-85.0341 108.723-62.5341 108.723-35.0341ZM95.8062-16.7006C98.7227-22.1176 99.9727-28.3676 99.9727-35.0341C99.9727-36.2841 99.9727-37.1176 99.9727-38.3676L99.5562-37.9506L99.1392-37.5341C98.3062-37.5341 97.8892-37.1176 97.4727-36.2841C97.4727-36.2841 97.4727-36.2841 97.0562-35.8676C95.8062-35.4506 94.9727-35.0341 93.7227-34.6176C92.8892-34.2006 92.4727-34.6176 92.4727-35.4506C92.4727-36.2841 92.0562-37.1176 91.6392-37.5341C91.2227-37.9506 91.2227-37.9506 90.8062-38.3676C90.3892-38.7841 90.3892-39.2006 89.9727-39.6176C89.9727-40.4506 89.5562-40.8676 89.1392-41.2841C88.3062-42.1176 87.4727-42.9506 87.4727-44.2006C87.4727-44.2006 87.4727-43.7841 87.0562-43.3676C86.6392-43.7841 86.6392-44.2006 86.2227-44.2006C86.6392-43.3676 87.0562-42.5341 87.4727-41.7006C87.8892-40.8676 88.3062-40.4506 88.7227-39.6176C88.7227-39.6176 89.1392-39.2006 88.7227-39.2006C88.7227-38.3676 89.1392-37.9506 89.5562-37.5341C89.9727-37.1176 89.9727-36.7006 89.9727-36.7006C89.9727-36.2841 90.3892-35.8676 90.8062-35.4506C91.6392-35.0341 92.4727-34.2006 92.8892-32.9506C92.8892-32.5341 93.7227-32.1176 94.1392-32.1176C94.9727-32.1176 95.3892-32.5341 96.2227-32.9506C96.6392-32.9506 96.6392-32.9506 97.0562-33.3676C96.6392-30.8676 96.2227-28.7841 94.1392-27.5341C92.8892-26.7006 92.0562-25.8676 91.2227-24.6176C89.9727-23.3676 89.5562-21.7006 90.3892-20.0341C90.8062-19.2006 90.8062-18.3676 90.8062-17.5341C90.8062-16.7006 90.3892-15.8676 89.5562-15.4506C88.7227-15.0341 88.3062-14.6176 87.8892-14.2006C87.0562-13.3676 87.0562-12.9506 87.4727-12.1176C87.8892-11.7006 87.4727-10.8676 86.6392-10.4506L86.2227-10.4506C85.8062-10.0341 85.3892-10.0341 85.8062-9.2006C85.8062-8.7841 85.8062-8.3676 85.8062-8.3676C84.9727-7.5341 84.1392-6.2841 83.3062-5.4506C82.8892-5.0341 82.4727-5.0341 82.0562-4.6176C81.2227-4.6176 79.9727-4.6176 79.1392-4.2006C78.7227-4.2006 78.3062-4.2006 78.3062-5.0341C78.3062-5.4506 78.3062-5.8676 77.8892-6.2841C77.4727-6.7006 77.4727-7.1176 77.0562-7.5341C76.6392-7.9506 76.2227-8.3676 76.6392-9.2006C76.6392-10.0341 76.6392-10.8676 76.2227-11.7006C75.3892-13.7841 75.3892-14.2006 74.9727-15.0341C74.5562-16.2841 74.5562-17.1176 74.9727-18.3676C74.9727-18.7841 75.3892-18.7841 75.3892-19.2006C75.8062-19.6176 75.8062-20.0341 75.3892-20.8676C74.9727-21.7006 74.5562-22.5341 74.5562-23.3676C74.5562-24.2006 74.1392-25.0341 73.3062-25.4506C72.8892-25.8676 72.4727-26.7006 72.8892-27.1176C72.8892-27.5341 73.3062-27.9506 73.3062-28.3676C73.7227-29.6176 72.8892-30.4506 71.6392-30.4506L71.2227-30.4506C71.2227-30.4506 70.8062-30.4506 70.8062-30.8676C70.3892-31.7006 69.9727-32.1176 68.7227-31.7006C68.3062-31.2841 67.4727-31.2841 67.0562-30.8676C66.6392-30.8676 66.2227-30.8676 66.2227-30.8676C65.3892-31.2841 64.9727-30.8676 64.5562-30.8676C64.1392-30.4506 63.3062-30.4506 62.8892-30.8676C61.6392-31.2841 60.8062-32.1176 59.9727-33.7841C59.5562-34.6176 59.5562-35.0341 58.7227-35.4506C58.3062-35.4506 58.3062-35.8676 58.3062-35.8676C58.7227-36.2841 58.7227-36.2841 58.7227-36.7006C58.3062-37.1176 58.3062-37.1176 58.7227-37.5341L59.1392-37.9506C59.5562-38.3676 59.5562-38.7841 59.1392-39.2006C59.1392-39.6176 59.1392-39.6176 58.7227-40.0341C58.3062-40.8676 58.7227-41.2841 58.7227-41.7006C59.5562-42.5341 59.9727-43.3676 60.8062-44.6176C61.2227-45.0341 61.6392-45.4507 62.0562-45.4507C62.4727-45.0341 62.8892-45.8675 62.8892-46.7007C62.8892-47.1175 62.8892-47.5341 63.3062-47.9507C63.7227-48.3675 64.1392-48.7841 64.5562-49.2007C64.9727-49.6175 64.9727-49.6175 65.3892-49.2007C65.8062-49.2007 66.2227-48.7841 66.6392-48.7841C67.0562-48.7841 67.4727-49.2007 67.8892-49.2007C68.3062-49.6175 69.1392-49.6175 69.5562-50.0341C70.8062-50.0341 71.6392-50.0341 72.8892-50.0341C73.7227-50.0341 73.7227-50.0341 73.3062-49.2007C72.8892-47.9507 73.3062-47.9507 74.5562-47.5341C75.3892-47.5341 75.3892-47.5341 75.3892-47.5341C75.8062-47.5341 76.2227-47.1175 76.6392-46.7007L77.0562-46.2841C77.4727-46.2841 77.4727-46.2841 77.8892-45.8675C78.7227-45.8675 78.7227-45.8675 78.7227-46.7007C79.1392-47.1175 79.5562-47.5341 79.9727-47.5341C80.3892-47.5341 80.8062-47.1175 81.2227-47.1175C81.6392-47.1175 82.0562-46.7007 82.4727-46.7007C83.7227-46.7007 84.9727-46.7007 86.2227-46.7007C86.6392-46.7007 87.0562-47.1175 87.0562-47.5341C87.0562-48.3675 87.4727-48.7841 87.4727-49.6175C87.4727-50.4507 87.4727-50.4507 86.6392-50.0341C86.2227-50.0341 85.8062-49.6175 85.3892-50.0341C84.9727-50.4507 84.5562-50.4507 83.7227-50.0341C82.8892-49.6175 82.4727-50.0341 82.4727-50.8675C82.4727-51.2841 82.0562-51.7007 82.0562-52.1175C82.8892-52.5341 84.1392-52.9507 84.9727-53.3675L85.3892-53.3675C86.2227-53.3675 87.0562-52.9507 87.4727-52.9507C87.8892-52.9507 88.3062-52.9507 88.7227-52.9507C89.1392-52.9507 89.5562-53.7841 89.1392-54.2007C89.1392-54.2007 88.7227-54.6175 88.3062-54.6175C87.8892-54.6175 87.4727-55.0341 87.0562-55.0341C86.6392-55.0341 86.6392-55.4507 86.6392-55.8675C87.8892-55.4507 87.8892-55.8675 87.8892-56.2841C87.4727-55.8675 86.6392-55.8675 86.2227-55.4507C86.6392-55.0341 86.6392-55.0341 87.0562-55.0341C86.6392-55.0341 86.2227-54.6175 86.2227-54.6175C85.8062-54.6175 85.8062-54.6175 85.3892-55.0341C85.3892-55.8675 84.5562-55.8675 84.1392-55.4507C83.7227-55.0341 83.3062-54.6175 83.3062-54.2007C82.8892-53.7841 82.8892-52.9507 83.3062-52.5341C82.4727-52.1175 81.2227-52.5341 80.3892-51.7007C80.3892-51.2841 80.8062-50.8675 80.8062-50.4507C80.8062-50.0341 80.8062-49.6175 80.3892-49.6175C79.9727-49.6175 79.9727-50.0341 79.5562-50.0341C79.5562-50.0341 79.5562-50.4507 79.5562-50.8675L79.1392-50.8675C78.7227-50.8675 78.3062-51.2841 78.3062-51.7007C78.3062-52.5341 77.8892-53.3675 76.6392-53.3675C76.2227-53.7841 75.3892-53.7841 74.9727-54.6175C74.9727-55.0341 74.5562-54.6175 74.5562-54.6175C74.9727-54.6175 74.9727-54.2007 75.3892-54.2007C75.8062-53.7841 76.6392-52.9507 77.0562-52.5341C77.4727-52.1175 77.0562-51.7007 76.6392-51.2841C76.2227-50.8675 74.9727-51.2841 74.9727-51.7007C74.5562-52.1175 74.9727-52.5341 75.3892-52.9507C74.9727-53.3675 74.1392-53.7841 73.7227-54.2007L73.3062-54.2007C72.4727-53.7841 71.6392-53.7841 70.8062-53.7841L70.3892-53.3675C70.3892-52.9507 70.3892-52.9507 69.9727-52.5341C69.5562-52.5341 69.1392-52.1175 69.1392-52.1175C68.3062-51.7007 68.3062-51.7007 68.3062-51.2841C68.3062-50.8675 68.3062-50.8675 68.3062-50.4507C67.8892-50.0341 67.4727-50.0341 67.0562-49.6175C66.2227-49.6175 65.3892-49.6175 64.5562-49.6175C63.3062-49.6175 63.3062-50.0341 63.7227-51.2841C63.7227-52.1175 64.1392-52.5341 64.1392-53.3675C64.1392-53.3675 64.1392-53.7841 64.5562-53.7841C64.9727-53.7841 64.9727-53.7841 65.3892-53.7841C65.8062-53.7841 66.6392-53.3675 67.0562-53.3675C67.8892-53.3675 68.3062-53.7841 68.3062-54.6175C68.3062-55.4507 67.8892-56.2841 66.6392-56.7007C67.0562-56.7007 67.4727-57.1175 67.8892-57.1175C68.7227-57.1175 69.5562-57.5341 69.9727-57.9507C70.3892-58.3675 70.8062-58.7841 71.2227-59.2007C71.6392-59.6175 72.0562-60.0341 72.8892-60.0341C73.3062-60.0341 73.3062-60.0341 73.3062-60.4507C73.3062-60.8675 73.3062-60.8675 72.8892-61.2841C72.8892-61.7007 72.8892-62.1175 73.7227-62.1175C74.1392-62.1175 74.5562-61.7007 74.1392-61.2841L74.1392-60.8675C74.1392-60.8675 74.1392-60.4507 74.5562-60.4507C74.9727-60.4507 75.8062-60.4507 76.2227-60.0341L76.6392-60.0341C77.0562-60.0341 77.4727-60.4507 78.3062-60.4507C79.1392-60.4507 79.5562-60.8675 79.5562-61.7007C79.5562-62.1175 79.5562-62.1175 79.9727-62.1175L80.3892-62.1175L80.8062-62.1175L80.8062-62.5341C80.8062-62.5341 80.8062-62.9507 80.3892-62.9507C80.8062-62.9507 81.2227-62.9507 81.6392-63.3675C82.0562-63.3675 82.4727-63.7841 82.8892-63.7841L82.4727-63.7841C81.6392-63.7841 81.2227-63.7841 80.3892-63.7841C79.9727-63.7841 79.5562-63.7841 79.1392-64.2007C78.7227-64.6175 79.1392-65.0341 79.5562-65.4507C79.5562-65.8675 79.5562-66.2841 79.5562-66.7007L79.5562-67.1175L79.1392-67.1175C78.7227-67.1175 78.7227-66.7007 78.7227-66.7007C78.3062-66.2841 77.8892-65.8675 77.4727-65.8675C77.0562-65.8675 77.0562-65.4507 77.0562-65.0341L77.4727-64.6175C77.8892-64.2007 77.8892-63.7841 77.4727-63.7841C77.0562-63.7841 77.0562-63.3675 76.6392-62.9507C76.6392-62.5341 76.2227-62.5341 76.2227-62.1175C76.2227-61.7007 75.8062-61.7007 75.3892-61.7007C74.9727-61.7007 74.9727-62.1175 74.5562-62.5341C74.1392-63.7841 74.1392-63.7841 73.3062-62.9507C72.8892-62.9507 72.4727-62.5341 72.0562-62.9507C71.2227-63.7841 71.6392-64.6175 72.4727-65.0341C73.7227-65.8675 74.9727-66.7007 76.2227-67.9507C77.8892-69.6175 79.9727-70.0341 82.0562-69.6175L82.4727-69.6175C82.0562-70.0341 81.6392-70.0341 81.6392-70.4507C80.3892-71.2841 79.1392-71.7007 77.8892-72.5341C77.4727-72.5341 77.4727-72.5341 77.0562-72.5341C76.2227-71.7007 75.3892-71.7007 74.9727-72.5341C74.9727-72.9507 74.5562-72.9507 74.5562-72.9507C74.5562-72.9507 74.1392-72.9507 74.1392-73.3675C74.1392-73.7841 73.7227-73.7841 73.7227-73.7841C70.3892-75.0341 67.0562-75.8675 63.7227-76.2841C57.4727-77.1175 51.6392-76.2841 45.806-74.6175C44.1393-74.2007 42.4727-73.3675 41.2227-72.9507C40.806-72.5341 40.3893-72.5341 39.9727-72.1175L39.9727-71.7007C39.556-71.7007 39.1393-71.2841 38.7227-71.2841C38.306-71.2841 38.306-71.2841 37.8893-71.2841C36.2227-70.0341 34.556-69.2007 32.8893-67.5341C32.8893-67.5341 32.4727-67.5341 32.4727-67.1175C32.4727-67.1175 32.056-66.7007 31.6393-66.7007C31.2227-66.2841 30.3893-65.4507 29.9727-65.0341C30.806-65.0341 31.6393-65.0341 32.056-65.8675C32.4727-65.8675 32.4727-66.2841 32.056-66.2841C32.056-66.2841 32.056-66.2841 32.056-66.7007C33.306-67.1175 33.306-67.1175 33.7227-67.1175C33.7227-66.7007 33.306-66.2841 33.7227-66.2841C33.7227-66.2841 34.1393-66.2841 34.556-65.8675C34.1393-65.8675 33.7227-65.4507 33.7227-65.0341C33.7227-64.6175 33.306-64.6175 32.8893-64.2007C32.8893-64.2007 32.4727-64.2007 32.056-64.2007C32.4727-63.7841 32.4727-63.3675 32.056-63.3675C31.6393-63.3675 31.2227-63.3675 30.806-62.9507C30.806-62.9507 30.3893-62.9507 30.3893-62.5341C30.3893-62.1175 29.9727-62.1175 29.556-61.7007C29.1393-62.1175 28.306-61.7007 27.8893-61.2841C27.4727-61.2841 27.056-60.8675 27.056-60.4507C26.6393-60.0341 26.6393-59.6175 27.056-59.2007C27.4727-59.2007 27.4727-58.7841 27.8893-58.7841C28.7227-58.7841 29.556-58.3675 29.9727-58.3675C29.9727-57.9507 29.9727-57.5341 29.9727-57.1175C29.9727-57.1175 29.9727-56.7007 30.3893-56.7007C30.3893-56.7007 30.806-56.7007 31.2227-56.7007C31.2227-56.7007 31.6393-57.1175 31.6393-57.5341C32.056-58.3675 32.4727-58.7841 32.8893-58.7841C33.306-58.7841 33.7227-59.2007 34.1393-59.6175C34.1393-59.6175 34.556-60.0341 34.556-60.4507C34.556-60.8675 34.556-61.2841 34.9727-61.2841C35.3893-61.7007 35.3893-62.1175 35.806-62.1175C35.806-63.3675 36.6393-63.3675 37.8893-62.9507C38.7227-62.5341 38.7227-62.1175 38.306-61.7007C38.306-61.2841 38.306-61.2841 38.7227-61.2841C39.1393-61.2841 39.556-61.2841 39.556-61.7007C39.9727-62.1175 40.3893-62.1175 40.806-62.5341C40.806-61.2841 41.2227-60.0341 41.2227-59.2007C41.2227-59.2007 41.6393-59.2007 42.056-59.2007C42.056-59.2007 42.4727-59.2007 42.4727-58.7841L42.4727-58.3675C42.4727-58.3675 42.4727-58.3675 42.056-57.9507C40.806-57.5341 39.556-56.7007 38.306-56.7007C37.4727-56.7007 36.2227-56.2841 35.3893-55.8675C34.9727-55.8675 34.556-55.4507 34.1393-55.4507C34.1393-55.4507 34.1393-55.4507 34.1393-55.0341C34.556-55.0341 34.9727-55.4507 35.3893-55.4507C35.806-55.8675 36.2227-55.8675 36.6393-55.8675C36.6393-55.4507 36.2227-55.0341 36.2227-54.6175C36.6393-53.7841 37.4727-54.2007 37.8893-54.2007C37.056-53.3675 35.806-52.9507 34.9727-52.9507C35.3893-53.3675 35.806-53.3675 36.2227-53.7841C34.9727-53.7841 33.7227-53.3675 32.8893-52.5341L32.4727-52.1175C32.4727-51.7007 32.056-51.2841 31.6393-51.2841C29.9727-50.8675 29.1393-50.0341 28.306-49.2007C28.306-49.2007 27.8893-49.2007 27.8893-49.6175C27.8893-49.2007 27.8893-48.7841 27.8893-48.7841C27.8893-48.3675 27.4727-47.5341 27.056-47.5341C26.2227-46.7007 25.806-46.7007 25.3893-46.2841C24.9727-45.8675 24.1393-45.8675 23.7227-45.4507C23.306-45.0341 23.306-44.2006 22.8893-44.2006C22.4727-43.7841 22.056-43.7841 21.6393-44.2006C21.2227-44.2006 20.806-44.6176 20.806-44.6176C20.3893-44.6176 19.9727-44.6176 19.556-44.2006C19.1393-43.7841 18.7227-43.7841 17.8893-43.7841C17.4727-42.1176 17.4727-40.8676 17.056-39.2006C17.4727-39.6176 17.8893-39.6176 18.7227-39.2006C18.306-38.3676 17.8893-37.5341 17.4727-36.2841C17.8893-36.2841 18.306-36.2841 18.7227-36.2841C19.1393-36.2841 19.556-36.2841 19.556-36.2841C20.3893-36.2841 20.3893-35.8676 20.3893-35.4506C20.3893-35.0341 19.9727-34.6176 19.9727-34.2006C19.9727-33.7841 19.9727-33.7841 19.9727-33.3676L19.556-32.9506L19.1393-33.3676C18.7227-33.7841 18.7227-34.2006 18.7227-34.6176C17.8893-35.0341 17.4727-35.0341 17.056-35.0341C17.056-23.7841 21.6393-13.3676 29.1393-5.8676C29.9727-5.0341 31.2227-4.2006 32.056-3.3676C32.056-3.3676 32.056-3.7841 31.6393-3.7841C30.3893-5.0341 30.3893-6.2841 29.9727-7.9506C29.9727-10.0341 29.556-12.5341 29.1393-14.6176C28.7227-16.2841 27.8893-17.5341 26.2227-18.3676C25.3893-18.7841 24.9727-18.7841 24.9727-19.6176C24.9727-20.0341 24.556-20.0341 24.556-20.4506C23.7227-21.7006 22.4727-23.3676 21.6393-24.6176C21.2227-25.0341 21.2227-25.4506 21.6393-25.8676C21.6393-25.8676 21.6393-25.8676 22.056-26.2841C21.6393-27.1176 21.6393-27.1176 22.056-27.9506C22.056-28.3676 22.4727-28.3676 22.4727-28.7841C22.8893-29.2006 22.8893-29.6176 23.306-30.0341C23.7227-30.8676 23.7227-31.2841 23.306-32.1176L23.306-32.5341C22.8893-32.5341 22.4727-32.9506 22.056-32.9506C22.8893-32.9506 23.306-32.9506 23.7227-32.5341C24.1393-33.3676 26.2227-35.0341 27.056-35.0341C27.056-34.6176 27.056-34.6176 27.056-34.2006L27.056-33.7841C27.8893-35.0341 27.8893-35.0341 29.1393-34.6176C30.3893-34.2006 31.2227-33.7841 32.4727-34.2006L32.8893-34.2006C32.8893-33.7841 32.8893-33.7841 32.8893-33.7841C33.306-33.3676 33.7227-32.9506 34.1393-32.5341C34.556-31.7006 35.3893-31.2841 36.2227-31.2841C36.6393-31.2841 37.056-31.2841 37.4727-31.2841C38.306-31.2841 38.7227-30.8676 38.7227-30.0341C38.7227-29.6176 38.7227-28.7841 39.1393-28.3676C39.556-28.3676 39.9727-28.3676 40.3893-27.5341C41.6393-27.9506 42.4727-27.5341 42.4727-26.7006C43.306-26.7006 43.7227-26.7006 44.556-26.7006C45.3893-26.7006 45.806-26.2841 46.2227-25.8676C46.6393-25.4506 47.056-25.0341 47.4727-25.0341C48.306-24.6176 48.7227-24.2006 48.306-23.3676C47.8893-22.5341 47.4727-21.2841 46.6393-20.4506C46.2227-19.2006 46.2227-18.7841 46.2227-18.3676C46.2227-17.5341 46.2227-17.1176 46.2227-16.2841C46.2227-15.4506 45.806-14.6176 45.3893-13.7841C44.9727-13.3676 44.9727-13.3676 44.1393-13.3676C43.7227-13.3676 43.7227-13.3676 43.306-13.3676C42.8893-12.9506 42.4727-12.9506 41.6393-12.5341C41.2227-12.5341 41.2227-12.1176 41.6393-11.7006C42.056-11.2841 41.6393-10.8676 41.6393-10.4506C41.6393-10.0341 41.2227-9.6176 41.2227-9.6176C41.2227-9.2006 41.2227-8.7841 41.2227-8.7841C40.806-8.3676 40.806-7.9506 40.3893-7.5341C39.9727-6.7006 39.556-6.7006 38.7227-7.1176C38.306-7.1176 38.306-7.5341 37.8893-7.5341L38.306-7.1176C38.7227-6.7006 38.7227-6.7006 39.1393-6.2841C39.556-5.4506 39.1393-5.0341 38.306-5.0341C37.8893-5.0341 37.8893-5.0341 37.4727-5.0341C37.056-5.0341 37.056-5.0341 37.056-4.2006L37.056-3.7841L37.056-3.3676L36.6393-3.3676C36.6393-3.3676 36.2227-3.3676 36.2227-3.7841C36.2227-3.3676 36.6393-3.3676 36.6393-2.9506C37.056-2.5341 37.056-2.5341 36.6393-2.1176C36.6393-1.7006 36.2227-1.7006 36.2227-1.2841L36.2227-0.8676C36.6393-0.4506 37.056-0.0341 37.4727 0.3824C42.056 3.2994 47.4727 4.9659 52.8892 5.7994C57.4727 6.6324 62.0562 6.2159 66.2227 5.3824C73.7227 4.1324 79.9727 0.7994 85.8062-4.2006C86.2227-4.6176 86.6392-5.0341 87.0562-5.4506C87.4727-5.8676 87.8892-6.2841 88.3062-6.7006C89.1392-7.5341 89.9727-8.3676 90.3892-9.2006C91.2227-10.0341 91.6392-10.8676 92.0562-11.7006C91.2227-12.5341 91.2227-12.9506 91.6392-13.7841C91.6392-14.2006 92.0562-14.2006 92.0562-14.6176C92.0562-15.0341 92.4727-15.8676 92.4727-16.2841C92.4727-17.1176 92.4727-17.5341 93.3062-17.5341C94.1392-17.9506 94.9727-18.3676 95.3892-19.6176C96.2227-18.7841 96.2227-18.3676 95.8062-16.7006ZM26.2227-52.9507C26.2227-52.9507 26.2227-52.5341 26.2227-52.9507C25.806-52.5341 25.806-52.1175 25.806-52.1175L26.2227-52.1175C26.2227-52.1175 26.6393-52.1175 26.6393-52.5341C27.056-52.5341 27.056-52.9507 27.4727-52.9507L27.8893-53.3675L27.4727-53.3675C26.6393-53.3675 26.6393-53.3675 26.2227-54.2007C26.2227-54.6175 25.806-55.0341 25.3893-55.0341C24.556-55.0341 23.7227-54.2007 22.8893-53.7841C23.7227-53.7841 24.556-53.7841 25.3893-53.7841C25.3893-53.7841 25.3893-53.7841 24.9727-53.7841C24.556-52.9507 23.7227-52.5341 23.306-51.7007C23.306-51.7007 23.306-51.2841 23.306-50.8675C23.7227-50.8675 23.7227-50.8675 24.1393-51.2841L24.556-51.7007C24.9727-52.1175 24.9727-52.5341 25.3893-52.5341C25.3893-52.9507 25.806-53.3675 26.2227-52.9507ZM98.7227-43.3676C97.8892-42.9506 97.0562-43.3676 96.2227-44.2006C96.2227-44.6176 96.2227-44.6176 96.2227-45.0341L95.8062-45.4507C95.3892-45.4507 95.3892-45.4507 94.9727-45.4507C94.9727-45.0341 94.9727-45.0341 94.9727-44.6176C95.3892-44.2006 95.8062-43.7841 95.8062-43.3676C96.2227-42.5341 96.2227-42.5341 97.0562-42.5341C97.0562-41.7006 97.4727-41.7006 98.3062-42.1176C98.7227-42.5341 99.1392-42.5341 99.5562-42.9506L99.9727-42.5341C99.9727-42.9506 99.9727-43.3676 99.5562-43.7841C99.1392-43.3676 99.1392-43.3676 98.7227-43.3676ZM94.5562-55.8675C94.1392-55.8675 94.1392-55.8675 93.3062-55.8675C92.8892-55.8675 92.8892-55.4507 92.4727-55.4507C92.0562-55.0341 92.0562-54.6175 92.4727-54.2007C92.8892-53.7841 93.3062-52.9507 94.1392-52.5341C94.5562-52.1175 94.5562-51.7007 94.1392-51.2841C93.7227-50.8675 93.7227-50.4507 94.1392-50.4507C94.5562-50.0341 94.9727-50.0341 95.8062-50.0341C96.2227-50.0341 96.6392-50.0341 96.6392-50.4507C97.0562-50.8675 96.6392-51.2841 96.2227-51.7007C96.6392-51.2841 96.2227-51.2841 95.8062-51.7007C96.2227-51.7007 96.2227-51.7007 96.6392-51.7007C96.6392-51.7007 96.6392-52.1175 96.2227-52.1175C96.2227-52.1175 95.8062-52.1175 95.8062-52.5341C95.3892-52.9507 94.9727-52.9507 94.5562-53.3675C94.5562-53.3675 94.1392-53.7841 94.5562-54.2007C94.5562-54.2007 94.9727-54.6175 95.3892-54.6175C95.3892-54.6175 95.3892-54.6175 95.8062-54.6175C94.9727-55.0341 94.9727-55.4507 94.5562-55.8675ZM85.3892-66.2841L85.8062-66.2841C85.3892-66.7007 84.9727-67.1175 84.5562-67.5341C84.1392-67.9507 83.7227-67.9507 82.8892-67.9507C82.8892-67.9507 83.3062-67.9507 83.7227-67.9507C83.3062-67.9507 83.3062-68.3675 82.8892-68.3675C82.8892-67.9507 82.8892-67.9507 82.8892-67.5341C82.8892-67.1175 83.3062-66.7007 83.7227-66.2841C84.1392-66.2841 84.5562-65.8675 85.3892-66.2841C85.3892-65.8675 85.8062-65.8675 85.3892-66.2841Z"/>
  </g>
  <g id="Regular-S" transform="matrix(1 0 0 1 1402.32 696)">
   <path d="M47.3978-60.675C46.7477-60.675 46.0975-60.35 45.7727-60.025C45.1225-59.375 44.4728-59.375 43.8227-59.05C42.8477-59.05 42.5228-58.4 41.8727-57.75C41.8727-57.425 41.5478-57.1 41.2225-57.1C41.2225-56.775 40.8977-56.775 40.2475-56.775C39.2726-57.1 39.2726-57.425 39.2726-58.075C39.2726-58.4 39.2726-58.4 39.2726-58.725C39.2726-59.375 39.5977-59.7 40.2475-60.025C40.5728-60.025 40.5728-60.35 40.8977-60.35C40.8977-60.675 41.2225-60.675 40.8977-61C40.2475-61.325 40.2475-61.975 39.9227-62.3C39.9227-62.625 39.5977-62.95 38.9477-63.275C38.9477-63.6 39.2726-63.6 39.2726-63.6C39.2726-63.6 39.2726-63.925 38.9477-63.925C39.5977-64.575 40.2475-64.9 41.2225-64.9C43.1725-64.9 44.7977-65.225 46.7477-65.875C47.7227-66.2 49.0225-66.2 50.3228-66.2C50.6477-66.2 50.9725-66.2 51.2978-65.875C51.6227-65.875 52.2728-65.55 52.5977-65.55C52.2728-65.55 52.2728-65.55 51.9475-65.225C51.6227-65.225 51.2978-64.9 50.9725-64.9C50.6477-64.9 50.6477-64.575 50.6477-64.25C50.6477-63.925 50.6477-63.925 50.3228-63.6C49.6727-62.95 49.0225-62.625 48.3728-62.625C48.3728-62.625 48.3728-62.625 48.0475-62.625C48.3728-62.3 48.6977-61.975 49.0225-61.975C48.3728-61.65 48.0475-61.975 47.7227-62.3C47.7227-61.975 47.3978-61.975 47.3978-61.65C47.7227-61.65 47.7227-61.65 48.0475-61.65L48.3728-61.65C48.3728-61.65 48.3728-61.325 48.0475-61.325C48.3728-61 47.7227-60.675 47.3978-60.675ZM35.6977-59.375C35.3726-59.7 35.0477-60.025 35.0477-60.35C34.7227-60.35 34.3976-60.675 34.0727-61C34.0727-61 33.7477-61.325 33.4226-61C33.4226-61 33.0977-61 32.7727-61C32.4476-61.325 32.1227-61.325 31.4726-61C31.4726-61 31.1477-61 30.8227-60.675L31.1477-61C30.4976-61.325 29.8477-61 29.5226-60.35C29.5226-60.025 29.1977-60.025 29.5226-60.025C30.1727-60.025 31.1477-59.7 31.7977-60.025C32.4476-60.35 32.7727-60.025 33.0977-59.375C33.0977-59.05 33.4226-58.725 33.4226-58.4C33.0977-58.4 32.7727-58.4 32.4476-58.4C32.1227-58.4 31.7977-58.075 31.4726-57.75C32.1227-57.75 32.1227-57.425 32.4476-57.425C32.7727-57.1 33.4226-57.1 33.7477-57.425L33.4226-57.75L33.7477-57.75C34.0727-57.425 34.3976-57.75 34.3976-58.075C34.3976-58.4 34.3976-58.4 34.3976-58.725C34.7227-58.725 35.0477-58.725 35.3726-58.725C35.6977-58.725 36.0227-58.725 36.0227-59.05C36.0227-59.375 35.6977-59.375 35.6977-59.375ZM53.8975-52.875C54.5477-52.875 55.1978-53.2 55.8475-53.2C56.1728-53.2 56.4977-53.525 56.4977-53.85C56.1728-54.175 55.8475-54.175 55.5227-54.5L55.1978-54.5C54.5477-54.5 54.2228-54.175 54.2228-53.85C54.5477-53.85 54.5477-53.85 54.8725-53.525C54.2228-53.2 53.8975-53.2 53.8975-52.875ZM34.7227-51.575C34.3976-51.575 34.0727-51.9 34.3976-52.225C33.7477-52.225 33.0977-51.575 32.7727-50.925C33.0977-50.925 33.4226-50.6 33.7477-50.6C34.0727-50.6 34.3976-50.925 34.7227-50.925C34.7227-50.925 35.0477-50.925 35.0477-51.25C35.0477-51.25 35.0477-51.25 34.7227-51.575ZM51.9475-53.525C52.5977-53.525 53.5727-54.175 53.5727-55.15C52.5977-55.15 51.9475-54.5 51.9475-53.525ZM22.6976-37.925C22.6976-37.2749 22.0477-37.6001 22.0477-37.2749C23.0227-36.95 23.6726-37.2749 24.6476-37.6001C23.9977-37.925 23.3477-37.925 22.6976-37.925ZM28.5476-57.75C28.2227-58.075 27.5726-57.75 27.5726-57.1C28.2227-57.1 28.5476-57.1 29.1977-57.1C29.1977-57.75 28.8727-57.75 28.5476-57.75ZM18.1477-38.9C19.1227-38.5751 19.7726-38.5751 20.7476-38.2499C20.0977-38.9 19.1227-39.2249 18.1477-38.9ZM28.2227-60.35C28.8727-60.675 29.1977-60.675 29.8477-61C29.1977-61.325 28.5476-61 28.2227-60.35ZM18.7976-33.05C18.4727-33.05 18.1477-33.3749 17.8226-33.3749C17.4977-33.3749 17.4977-33.7001 17.1727-33.7001C17.1727-33.05 17.8226-32.7251 18.7976-33.05ZM36.6727-64.25C36.3476-63.925 35.6977-63.925 35.3726-63.6C35.6977-63.6 36.3476-63.6 36.6727-64.25ZM28.5476-58.4C29.1977-58.4 29.5226-58.725 30.1727-59.05C29.5226-59.05 28.8727-58.725 28.5476-58.4ZM30.4976-57.75C30.8227-57.75 31.1477-57.75 31.4726-58.075C30.8227-58.075 30.8227-58.075 30.4976-57.75ZM36.6727-64.25C36.6727-64.25 36.6727-64.575 36.6727-64.25C36.3476-64.25 36.0227-64.25 35.3726-64.25C36.0227-64.25 36.3476-64.25 36.6727-64.25ZM54.5477-55.8C54.2228-55.475 54.2228-55.475 54.8725-55.15C54.8725-55.475 54.5477-55.475 54.5477-55.8ZM86.7227-35C86.7227-13.55 69.1727 4 47.7227 4C26.2727 4 8.72266-13.55 8.72266-35C8.72266-56.45 26.2727-74 47.7227-74C69.1727-74 86.7227-56.45 86.7227-35ZM76.6478-20.6999C78.9227-24.9251 79.8977-29.8001 79.8977-35C79.8977-35.975 79.8977-36.6251 79.8977-37.6001L79.5728-37.2749L79.2475-36.95C78.5978-36.95 78.2725-36.6251 77.9477-35.975C77.9477-35.975 77.9477-35.975 77.6228-35.6501C76.6478-35.3249 75.9977-35 75.0227-34.6751C74.3725-34.3499 74.0477-34.6751 74.0477-35.3249C74.0477-35.975 73.7228-36.6251 73.3975-36.95C73.0727-37.2749 73.0727-37.2749 72.7478-37.6001C72.4225-37.925 72.4225-38.2499 72.0977-38.5751C72.0977-39.2249 71.7728-39.5501 71.4475-39.875C70.7978-40.5251 70.1477-41.1749 70.1477-42.1499C70.1477-42.1499 70.1477-41.825 69.8228-41.5001C69.4975-41.825 69.4975-42.1499 69.1727-42.1499C69.4975-41.5001 69.8228-40.85 70.1477-40.1999C70.4725-39.5501 70.7978-39.2249 71.1227-38.5751C71.1227-38.5751 71.4475-38.2499 71.1227-38.2499C71.1227-37.6001 71.4475-37.2749 71.7728-36.95C72.0977-36.6251 72.0977-36.2999 72.0977-36.2999C72.0977-35.975 72.4225-35.6501 72.7478-35.3249C73.3975-35 74.0477-34.3499 74.3725-33.3749C74.3725-33.05 75.0227-32.7251 75.3475-32.7251C75.9977-32.7251 76.3225-33.05 76.9727-33.3749C77.2975-33.3749 77.2975-33.3749 77.6228-33.7001C77.2975-31.7501 76.9727-30.125 75.3475-29.15C74.3725-28.4999 73.7228-27.8501 73.0727-26.8751C72.0977-25.9001 71.7728-24.5999 72.4225-23.3C72.7478-22.6499 72.7478-22.0001 72.7478-21.35C72.7478-20.6999 72.4225-20.0501 71.7728-19.7249C71.1227-19.4 70.7978-19.0751 70.4725-18.7499C69.8228-18.1001 69.8228-17.7749 70.1477-17.1251C70.4725-16.7999 70.1477-16.1501 69.4975-15.8249L69.1727-15.8249C68.8478-15.5 68.5225-15.5 68.8478-14.8499C68.8478-14.525 68.8478-14.2001 68.8478-14.2001C68.1977-13.55 67.5475-12.575 66.8978-11.9249C66.5725-11.6 66.2477-11.6 65.9228-11.2751C65.2727-11.2751 64.2977-11.2751 63.6475-10.9499C63.3227-10.9499 62.9978-10.9499 62.9978-11.6C62.9978-11.9249 62.9978-12.2501 62.6725-12.575C62.3477-12.8999 62.3477-13.2251 62.0228-13.55C61.6975-13.8749 61.3727-14.2001 61.6975-14.8499C61.6975-15.5 61.6975-16.1501 61.3727-16.7999C60.7225-18.425 60.7225-18.7499 60.3977-19.4C60.0728-20.375 60.0728-21.0251 60.3977-22.0001C60.3977-22.325 60.7225-22.325 60.7225-22.6499C61.0478-22.9751 61.0478-23.3 60.7225-23.9501C60.3977-24.5999 60.0728-25.25 60.0728-25.9001C60.0728-26.5499 59.7475-27.2 59.0978-27.5249C58.7725-27.8501 58.4477-28.4999 58.7725-28.8251C58.7725-29.15 59.0978-29.4749 59.0978-29.8001C59.4227-30.7751 58.7725-31.4249 57.7975-31.4249L57.4727-31.4249C57.4727-31.4249 57.1478-31.4249 57.1478-31.7501C56.8225-32.3999 56.4977-32.7251 55.5227-32.3999C55.1978-32.075 54.5477-32.075 54.2228-31.7501C53.8975-31.7501 53.5727-31.7501 53.5727-31.7501C52.9225-32.075 52.5977-31.7501 52.2728-31.7501C51.9475-31.4249 51.2978-31.4249 50.9725-31.7501C49.9975-32.075 49.3478-32.7251 48.6977-34.025C48.3728-34.6751 48.3728-35 47.7227-35.3249C47.3978-35.3249 47.3978-35.6501 47.3978-35.6501C47.7227-35.975 47.7227-35.975 47.7227-36.2999C47.3978-36.6251 47.3978-36.6251 47.7227-36.95L48.0475-37.2749C48.3728-37.6001 48.3728-37.925 48.0475-38.2499C48.0475-38.5751 48.0475-38.5751 47.7227-38.9C47.3978-39.5501 47.7227-39.875 47.7227-40.1999C48.3728-40.85 48.6977-41.5001 49.3478-42.4751C49.6727-42.8 49.9975-43.125 50.3228-43.125C50.6477-42.8 50.9725-43.45 50.9725-44.1C50.9725-44.425 50.9725-44.75 51.2978-45.075C51.6227-45.4 51.9475-45.725 52.2728-46.05C52.5977-46.375 52.5977-46.375 52.9225-46.05C53.2478-46.05 53.5727-45.725 53.8975-45.725C54.2228-45.725 54.5477-46.05 54.8725-46.05C55.1978-46.375 55.8475-46.375 56.1728-46.7C57.1478-46.7 57.7975-46.7 58.7725-46.7C59.4227-46.7 59.4227-46.7 59.0978-46.05C58.7725-45.075 59.0978-45.075 60.0728-44.75C60.7225-44.75 60.7225-44.75 60.7225-44.75C61.0478-44.75 61.3727-44.425 61.6975-44.1L62.0228-43.775C62.3477-43.775 62.3477-43.775 62.6725-43.45C63.3227-43.45 63.3227-43.45 63.3227-44.1C63.6475-44.425 63.9728-44.75 64.2977-44.75C64.6225-44.75 64.9478-44.425 65.2727-44.425C65.5975-44.425 65.9228-44.1 66.2477-44.1C67.2227-44.1 68.1977-44.1 69.1727-44.1C69.4975-44.1 69.8228-44.425 69.8228-44.75C69.8228-45.4 70.1477-45.725 70.1477-46.375C70.1477-47.025 70.1477-47.025 69.4975-46.7C69.1727-46.7 68.8478-46.375 68.5225-46.7C68.1977-47.025 67.8728-47.025 67.2227-46.7C66.5725-46.375 66.2477-46.7 66.2477-47.35C66.2477-47.675 65.9228-48 65.9228-48.325C66.5725-48.65 67.5475-48.975 68.1977-49.3L68.5225-49.3C69.1727-49.3 69.8228-48.975 70.1477-48.975C70.4725-48.975 70.7978-48.975 71.1227-48.975C71.4475-48.975 71.7728-49.625 71.4475-49.95C71.4475-49.95 71.1227-50.275 70.7978-50.275C70.4725-50.275 70.1477-50.6 69.8228-50.6C69.4975-50.6 69.4975-50.925 69.4975-51.25C70.4725-50.925 70.4725-51.25 70.4725-51.575C70.1477-51.25 69.4975-51.25 69.1727-50.925C69.4975-50.6 69.4975-50.6 69.8228-50.6C69.4975-50.6 69.1727-50.275 69.1727-50.275C68.8478-50.275 68.8478-50.275 68.5225-50.6C68.5225-51.25 67.8728-51.25 67.5475-50.925C67.2227-50.6 66.8978-50.275 66.8978-49.95C66.5725-49.625 66.5725-48.975 66.8978-48.65C66.2477-48.325 65.2727-48.65 64.6225-48C64.6225-47.675 64.9478-47.35 64.9478-47.025C64.9478-46.7 64.9478-46.375 64.6225-46.375C64.2977-46.375 64.2977-46.7 63.9728-46.7C63.9728-46.7 63.9728-47.025 63.9728-47.35L63.6475-47.35C63.3227-47.35 62.9978-47.675 62.9978-48C62.9978-48.65 62.6725-49.3 61.6975-49.3C61.3727-49.625 60.7225-49.625 60.3977-50.275C60.3977-50.6 60.0728-50.275 60.0728-50.275C60.3977-50.275 60.3977-49.95 60.7225-49.95C61.0478-49.625 61.6975-48.975 62.0228-48.65C62.3477-48.325 62.0228-48 61.6975-47.675C61.3727-47.35 60.3977-47.675 60.3977-48C60.0728-48.325 60.3977-48.65 60.7225-48.975C60.3977-49.3 59.7475-49.625 59.4227-49.95L59.0978-49.95C58.4477-49.625 57.7975-49.625 57.1478-49.625L56.8225-49.3C56.8225-48.975 56.8225-48.975 56.4977-48.65C56.1728-48.65 55.8475-48.325 55.8475-48.325C55.1978-48 55.1978-48 55.1978-47.675C55.1978-47.35 55.1978-47.35 55.1978-47.025C54.8725-46.7 54.5477-46.7 54.2228-46.375C53.5727-46.375 52.9225-46.375 52.2728-46.375C51.2978-46.375 51.2978-46.7 51.6227-47.675C51.6227-48.325 51.9475-48.65 51.9475-49.3C51.9475-49.3 51.9475-49.625 52.2728-49.625C52.5977-49.625 52.5977-49.625 52.9225-49.625C53.2478-49.625 53.8975-49.3 54.2228-49.3C54.8725-49.3 55.1978-49.625 55.1978-50.275C55.1978-50.925 54.8725-51.575 53.8975-51.9C54.2228-51.9 54.5477-52.225 54.8725-52.225C55.5227-52.225 56.1728-52.55 56.4977-52.875C56.8225-53.2 57.1478-53.525 57.4727-53.85C57.7975-54.175 58.1228-54.5 58.7725-54.5C59.0978-54.5 59.0978-54.5 59.0978-54.825C59.0978-55.15 59.0978-55.15 58.7725-55.475C58.7725-55.8 58.7725-56.125 59.4227-56.125C59.7475-56.125 60.0728-55.8 59.7475-55.475L59.7475-55.15C59.7475-55.15 59.7475-54.825 60.0728-54.825C60.3977-54.825 61.0478-54.825 61.3727-54.5L61.6975-54.5C62.0228-54.5 62.3477-54.825 62.9978-54.825C63.6475-54.825 63.9728-55.15 63.9728-55.8C63.9728-56.125 63.9728-56.125 64.2977-56.125L64.6225-56.125L64.9478-56.125L64.9478-56.45C64.9478-56.45 64.9478-56.775 64.6225-56.775C64.9478-56.775 65.2727-56.775 65.5975-57.1C65.9228-57.1 66.2477-57.425 66.5725-57.425L66.2477-57.425C65.5975-57.425 65.2727-57.425 64.6225-57.425C64.2977-57.425 63.9728-57.425 63.6475-57.75C63.3227-58.075 63.6475-58.4 63.9728-58.725C63.9728-59.05 63.9728-59.375 63.9728-59.7L63.9728-60.025L63.6475-60.025C63.3227-60.025 63.3227-59.7 63.3227-59.7C62.9978-59.375 62.6725-59.05 62.3477-59.05C62.0228-59.05 62.0228-58.725 62.0228-58.4L62.3477-58.075C62.6725-57.75 62.6725-57.425 62.3477-57.425C62.0228-57.425 62.0228-57.1 61.6975-56.775C61.6975-56.45 61.3727-56.45 61.3727-56.125C61.3727-55.8 61.0478-55.8 60.7225-55.8C60.3977-55.8 60.3977-56.125 60.0728-56.45C59.7475-57.425 59.7475-57.425 59.0978-56.775C58.7725-56.775 58.4477-56.45 58.1228-56.775C57.4727-57.425 57.7975-58.075 58.4477-58.4C59.4227-59.05 60.3977-59.7 61.3727-60.675C62.6725-61.975 64.2977-62.3 65.9228-61.975L66.2477-61.975C65.9228-62.3 65.5975-62.3 65.5975-62.625C64.6225-63.275 63.6475-63.6 62.6725-64.25C62.3477-64.25 62.3477-64.25 62.0228-64.25C61.3727-63.6 60.7225-63.6 60.3977-64.25C60.3977-64.575 60.0728-64.575 60.0728-64.575C60.0728-64.575 59.7475-64.575 59.7475-64.9C59.7475-65.225 59.4227-65.225 59.4227-65.225C56.8225-66.2 54.2228-66.85 51.6227-67.175C46.7477-67.825 42.1975-67.175 37.6477-65.875C36.3476-65.55 35.0477-64.9 34.0727-64.575C33.7477-64.25 33.4226-64.25 33.0977-63.925L33.0977-63.6C32.7727-63.6 32.4476-63.275 32.1227-63.275C31.7977-63.275 31.7977-63.275 31.4726-63.275C30.1727-62.3 28.8727-61.65 27.5726-60.35C27.5726-60.35 27.2477-60.35 27.2477-60.025C27.2477-60.025 26.9227-59.7 26.5976-59.7C26.2727-59.375 25.6226-58.725 25.2977-58.4C25.9477-58.4 26.5976-58.4 26.9227-59.05C27.2477-59.05 27.2477-59.375 26.9227-59.375C26.9227-59.375 26.9227-59.375 26.9227-59.7C27.8977-60.025 27.8977-60.025 28.2227-60.025C28.2227-59.7 27.8977-59.375 28.2227-59.375C28.2227-59.375 28.5476-59.375 28.8727-59.05C28.5476-59.05 28.2227-58.725 28.2227-58.4C28.2227-58.075 27.8977-58.075 27.5726-57.75C27.5726-57.75 27.2477-57.75 26.9227-57.75C27.2477-57.425 27.2477-57.1 26.9227-57.1C26.5976-57.1 26.2727-57.1 25.9477-56.775C25.9477-56.775 25.6226-56.775 25.6226-56.45C25.6226-56.125 25.2977-56.125 24.9727-55.8C24.6476-56.125 23.9977-55.8 23.6726-55.475C23.3477-55.475 23.0227-55.15 23.0227-54.825C22.6976-54.5 22.6976-54.175 23.0227-53.85C23.3477-53.85 23.3477-53.525 23.6726-53.525C24.3227-53.525 24.9727-53.2 25.2977-53.2C25.2977-52.875 25.2977-52.55 25.2977-52.225C25.2977-52.225 25.2977-51.9 25.6226-51.9C25.6226-51.9 25.9477-51.9 26.2727-51.9C26.2727-51.9 26.5976-52.225 26.5976-52.55C26.9227-53.2 27.2477-53.525 27.5726-53.525C27.8977-53.525 28.2227-53.85 28.5476-54.175C28.5476-54.175 28.8727-54.5 28.8727-54.825C28.8727-55.15 28.8727-55.475 29.1977-55.475C29.5226-55.8 29.5226-56.125 29.8477-56.125C29.8477-57.1 30.4976-57.1 31.4726-56.775C32.1227-56.45 32.1227-56.125 31.7977-55.8C31.7977-55.475 31.7977-55.475 32.1227-55.475C32.4476-55.475 32.7727-55.475 32.7727-55.8C33.0977-56.125 33.4226-56.125 33.7477-56.45C33.7477-55.475 34.0727-54.5 34.0727-53.85C34.0727-53.85 34.3976-53.85 34.7227-53.85C34.7227-53.85 35.0477-53.85 35.0477-53.525L35.0477-53.2C35.0477-53.2 35.0477-53.2 34.7227-52.875C33.7477-52.55 32.7727-51.9 31.7977-51.9C31.1477-51.9 30.1727-51.575 29.5226-51.25C29.1977-51.25 28.8727-50.925 28.5476-50.925C28.5476-50.925 28.5476-50.925 28.5476-50.6C28.8727-50.6 29.1977-50.925 29.5226-50.925C29.8477-51.25 30.1727-51.25 30.4976-51.25C30.4976-50.925 30.1727-50.6 30.1727-50.275C30.4976-49.625 31.1477-49.95 31.4726-49.95C30.8227-49.3 29.8477-48.975 29.1977-48.975C29.5226-49.3 29.8477-49.3 30.1727-49.625C29.1977-49.625 28.2227-49.3 27.5726-48.65L27.2477-48.325C27.2477-48 26.9227-47.675 26.5976-47.675C25.2977-47.35 24.6476-46.7 23.9977-46.05C23.9977-46.05 23.6726-46.05 23.6726-46.375C23.6726-46.05 23.6726-45.725 23.6726-45.725C23.6726-45.4 23.3477-44.75 23.0227-44.75C22.3727-44.1 22.0477-44.1 21.7226-43.775C21.3977-43.45 20.7476-43.45 20.4227-43.125C20.0977-42.8 20.0977-42.1499 19.7726-42.1499C19.4477-41.825 19.1227-41.825 18.7976-42.1499C18.4727-42.1499 18.1477-42.4751 18.1477-42.4751C17.8226-42.4751 17.4977-42.4751 17.1727-42.1499C16.8476-41.825 16.5227-41.825 15.8726-41.825C15.5477-40.5251 15.5477-39.5501 15.2227-38.2499C15.5477-38.5751 15.8726-38.5751 16.5227-38.2499C16.1977-37.6001 15.8726-36.95 15.5477-35.975C15.8726-35.975 16.1977-35.975 16.5227-35.975C16.8476-35.975 17.1727-35.975 17.1727-35.975C17.8226-35.975 17.8226-35.6501 17.8226-35.3249C17.8226-35 17.4977-34.6751 17.4977-34.3499C17.4977-34.025 17.4977-34.025 17.4977-33.7001L17.1727-33.3749L16.8476-33.7001C16.5227-34.025 16.5227-34.3499 16.5227-34.6751C15.8726-35 15.5477-35 15.2227-35C15.2227-26.225 18.7976-18.1001 24.6476-12.2501C25.2977-11.6 26.2727-10.9499 26.9227-10.3001C26.9227-10.3001 26.9227-10.625 26.5976-10.625C25.6226-11.6 25.6226-12.575 25.2977-13.8749C25.2977-15.5 24.9727-17.45 24.6476-19.0751C24.3227-20.375 23.6726-21.35 22.3727-22.0001C21.7226-22.325 21.3977-22.325 21.3977-22.9751C21.3977-23.3 21.0727-23.3 21.0727-23.6249C20.4227-24.5999 19.4477-25.9001 18.7976-26.8751C18.4727-27.2 18.4727-27.5249 18.7976-27.8501C18.7976-27.8501 18.7976-27.8501 19.1227-28.175C18.7976-28.8251 18.7976-28.8251 19.1227-29.4749C19.1227-29.8001 19.4477-29.8001 19.4477-30.125C19.7726-30.4499 19.7726-30.7751 20.0977-31.1C20.4227-31.7501 20.4227-32.075 20.0977-32.7251L20.0977-33.05C19.7726-33.05 19.4477-33.3749 19.1227-33.3749C19.7726-33.3749 20.0977-33.3749 20.4227-33.05C20.7476-33.7001 22.3727-35 23.0227-35C23.0227-34.6751 23.0227-34.6751 23.0227-34.3499L23.0227-34.025C23.6726-35 23.6726-35 24.6476-34.6751C25.6226-34.3499 26.2727-34.025 27.2477-34.3499L27.5726-34.3499C27.5726-34.025 27.5726-34.025 27.5726-34.025C27.8977-33.7001 28.2227-33.3749 28.5476-33.05C28.8727-32.3999 29.5226-32.075 30.1727-32.075C30.4976-32.075 30.8227-32.075 31.1477-32.075C31.7977-32.075 32.1227-31.7501 32.1227-31.1C32.1227-30.7751 32.1227-30.125 32.4476-29.8001C32.7727-29.8001 33.0977-29.8001 33.4226-29.15C34.3976-29.4749 35.0477-29.15 35.0477-28.4999C35.6977-28.4999 36.0227-28.4999 36.6727-28.4999C37.3226-28.4999 37.6477-28.175 37.9727-27.8501C38.2976-27.5249 38.6227-27.2 38.9477-27.2C39.5977-26.8751 39.9227-26.5499 39.5977-25.9001C39.2726-25.25 38.9477-24.275 38.2976-23.6249C37.9727-22.6499 37.9727-22.325 37.9727-22.0001C37.9727-21.35 37.9727-21.0251 37.9727-20.375C37.9727-19.7249 37.6477-19.0751 37.3226-18.425C36.9977-18.1001 36.9977-18.1001 36.3476-18.1001C36.0227-18.1001 36.0227-18.1001 35.6977-18.1001C35.3726-17.7749 35.0477-17.7749 34.3976-17.45C34.0727-17.45 34.0727-17.1251 34.3976-16.7999C34.7227-16.475 34.3976-16.1501 34.3976-15.8249C34.3976-15.5 34.0727-15.1751 34.0727-15.1751C34.0727-14.8499 34.0727-14.525 34.0727-14.525C33.7477-14.2001 33.7477-13.8749 33.4226-13.55C33.0977-12.8999 32.7727-12.8999 32.1227-13.2251C31.7977-13.2251 31.7977-13.55 31.4726-13.55L31.7977-13.2251C32.1227-12.8999 32.1227-12.8999 32.4476-12.575C32.7727-11.9249 32.4476-11.6 31.7977-11.6C31.4726-11.6 31.4726-11.6 31.1477-11.6C30.8227-11.6 30.8227-11.6 30.8227-10.9499L30.8227-10.625L30.8227-10.3001L30.4976-10.3001C30.4976-10.3001 30.1727-10.3001 30.1727-10.625C30.1727-10.3001 30.4976-10.3001 30.4976-9.97487C30.8227-9.65 30.8227-9.65 30.4976-9.32513C30.4976-8.99987 30.1727-8.99987 30.1727-8.675L30.1727-8.35013C30.4976-8.02487 30.8227-7.7 31.1477-7.37513C34.7227-5.09987 38.9477-3.8 43.1725-3.14987C46.7477-2.50013 50.3228-2.825 53.5727-3.47513C59.4227-4.45013 64.2977-7.04987 68.8478-10.9499C69.1727-11.2751 69.4975-11.6 69.8228-11.9249C70.1477-12.2501 70.4725-12.575 70.7978-12.8999C71.4475-13.55 72.0977-14.2001 72.4225-14.8499C73.0727-15.5 73.3975-16.1501 73.7228-16.7999C73.0727-17.45 73.0727-17.7749 73.3975-18.425C73.3975-18.7499 73.7228-18.7499 73.7228-19.0751C73.7228-19.4 74.0477-20.0501 74.0477-20.375C74.0477-21.0251 74.0477-21.35 74.6978-21.35C75.3475-21.6749 75.9977-22.0001 76.3225-22.9751C76.9727-22.325 76.9727-22.0001 76.6478-20.6999ZM22.3727-48.975C22.3727-48.975 22.3727-48.65 22.3727-48.975C22.0477-48.65 22.0477-48.325 22.0477-48.325L22.3727-48.325C22.3727-48.325 22.6976-48.325 22.6976-48.65C23.0227-48.65 23.0227-48.975 23.3477-48.975L23.6726-49.3L23.3477-49.3C22.6976-49.3 22.6976-49.3 22.3727-49.95C22.3727-50.275 22.0477-50.6 21.7226-50.6C21.0727-50.6 20.4227-49.95 19.7726-49.625C20.4227-49.625 21.0727-49.625 21.7226-49.625C21.7226-49.625 21.7226-49.625 21.3977-49.625C21.0727-48.975 20.4227-48.65 20.0977-48C20.0977-48 20.0977-47.675 20.0977-47.35C20.4227-47.35 20.4227-47.35 20.7476-47.675L21.0727-48C21.3977-48.325 21.3977-48.65 21.7226-48.65C21.7226-48.975 22.0477-49.3 22.3727-48.975ZM78.9227-41.5001C78.2725-41.1749 77.6228-41.5001 76.9727-42.1499C76.9727-42.4751 76.9727-42.4751 76.9727-42.8L76.6478-43.125C76.3225-43.125 76.3225-43.125 75.9977-43.125C75.9977-42.8 75.9977-42.8 75.9977-42.4751C76.3225-42.1499 76.6478-41.825 76.6478-41.5001C76.9727-40.85 76.9727-40.85 77.6228-40.85C77.6228-40.1999 77.9477-40.1999 78.5978-40.5251C78.9227-40.85 79.2475-40.85 79.5728-41.1749L79.8977-40.85C79.8977-41.1749 79.8977-41.5001 79.5728-41.825C79.2475-41.5001 79.2475-41.5001 78.9227-41.5001ZM75.6728-51.25C75.3475-51.25 75.3475-51.25 74.6978-51.25C74.3725-51.25 74.3725-50.925 74.0477-50.925C73.7228-50.6 73.7228-50.275 74.0477-49.95C74.3725-49.625 74.6978-48.975 75.3475-48.65C75.6728-48.325 75.6728-48 75.3475-47.675C75.0227-47.35 75.0227-47.025 75.3475-47.025C75.6728-46.7 75.9977-46.7 76.6478-46.7C76.9727-46.7 77.2975-46.7 77.2975-47.025C77.6228-47.35 77.2975-47.675 76.9727-48C77.2975-47.675 76.9727-47.675 76.6478-48C76.9727-48 76.9727-48 77.2975-48C77.2975-48 77.2975-48.325 76.9727-48.325C76.9727-48.325 76.6478-48.325 76.6478-48.65C76.3225-48.975 75.9977-48.975 75.6728-49.3C75.6728-49.3 75.3475-49.625 75.6728-49.95C75.6728-49.95 75.9977-50.275 76.3225-50.275C76.3225-50.275 76.3225-50.275 76.6478-50.275C75.9977-50.6 75.9977-50.925 75.6728-51.25ZM68.5225-59.375L68.8478-59.375C68.5225-59.7 68.1977-60.025 67.8728-60.35C67.5475-60.675 67.2227-60.675 66.5725-60.675C66.5725-60.675 66.8978-60.675 67.2227-60.675C66.8978-60.675 66.8978-61 66.5725-61C66.5725-60.675 66.5725-60.675 66.5725-60.35C66.5725-60.025 66.8978-59.7 67.2227-59.375C67.5475-59.375 67.8728-59.05 68.5225-59.375C68.5225-59.05 68.8478-59.05 68.5225-59.375Z"/>
  </g>
 </g>
</svg>
