<!-- Copyright (c) 2023 The Brave Authors. All rights reserved.
This Source Code Form is subject to the terms of the Mozilla Public
License, v. 2.0. If a copy of the MPL was not distributed with this file,
You can obtain one at https://mozilla.org/MPL/2.0/. -->

<svg width="82" height="80" viewBox="0 0 82 80" fill="none" xmlns="http://www.w3.org/2000/svg">
<path d="M40.9474 78.6663C61.1979 78.6663 77.6141 62.2501 77.6141 41.9997C77.6141 21.7492 61.1979 5.33301 40.9474 5.33301C20.697 5.33301 4.28076 21.7492 4.28076 41.9997C4.28076 62.2501 20.697 78.6663 40.9474 78.6663Z" fill="url(#paint0_linear_3027_22616)"/>
<g clip-path="url(#clip0_3027_22616)">
<path d="M62.1065 12.1089C63.4931 13.0348 64.8076 14.0702 66.0448 15.2124C66.1725 15.3305 66.2992 15.4487 66.4242 15.5685C66.3808 15.5242 66.3357 15.4791 66.2888 15.4348L65.8477 15.0204C65.1601 14.3985 65.0168 14.2682 64.2979 13.6663C63.7619 13.2326 63.353 12.9092 63.0711 12.6961C62.5131 12.2826 62.0868 11.974 61.7922 11.7701L61.1479 11.335C61.5343 11.5895 61.853 11.8483 62.1065 12.108" fill="#5F5CF1" fill-opacity="0.2"/>
<path d="M54.6221 8.03613C55.0571 8.28368 55.3974 8.53645 55.6475 8.79268C57.3935 9.45369 59.0631 10.2545 60.6468 11.1918C60.3255 10.8626 59.8923 10.536 59.3418 10.2172L59.0579 10.0539C57.6488 9.25304 56.1684 8.57901 54.6221 8.03613Z" fill="#5F5CF1" fill-opacity="0.05"/>
<path d="M47.9941 6.5791C48.2173 6.70592 48.3918 6.83534 48.5194 6.9665C50.3809 7.22968 52.2077 7.64574 53.9902 8.21468C53.7688 7.98797 53.4675 7.763 53.0812 7.54412C51.4237 7.06725 49.7245 6.74587 47.9941 6.5791Z" fill="#5F5CF1" fill-opacity="0.05"/>
<path d="M41.0273 6.7283C42.9661 6.58585 44.8815 6.59888 46.7638 6.76565C46.6657 6.66489 46.532 6.56587 46.3618 6.46859C44.6114 6.3991 42.8307 6.48509 41.0273 6.7283Z" fill="white" fill-opacity="0.1"/>
<path d="M77.5202 38.9544C77.5323 39.1004 77.5428 39.2472 77.5532 39.394L77.521 38.964L77.5176 38.918C77.5184 38.9301 77.5193 38.9423 77.5202 38.9544Z" fill="#5F5CF1" fill-opacity="0.1"/>
<path d="M76.0912 31.624C76.6608 33.4385 77.0732 35.293 77.3285 37.1778C77.3241 37.1162 77.318 37.0545 77.3094 36.9928C77.2633 36.6749 77.2017 36.251 77.1505 35.934C77.0336 35.2687 76.9404 34.7695 76.8709 34.4365C76.7262 33.7764 76.6122 33.2816 76.5288 32.9521C76.3563 32.2983 76.2215 31.8081 76.1242 31.4816L75.9653 30.9639C76.0348 31.1836 76.0765 31.4034 76.0912 31.6231" fill="#5F5CF1" fill-opacity="0.05"/>
<path d="M73.0637 24.7383C73.6958 25.8327 74.2671 26.9619 74.7776 28.125C75.0398 28.7226 75.2846 29.3254 75.5112 29.9334C75.493 29.6659 75.434 29.3975 75.3333 29.1291L75.1257 28.5879C74.8705 27.9556 74.6731 27.4819 74.5336 27.1669C74.261 26.5653 74.0514 26.1153 73.905 25.8171C73.6086 25.2276 73.3814 24.7869 73.2234 24.4951C73.0559 24.192 72.8301 23.7889 72.6582 23.4893C72.9013 23.9053 73.035 24.3231 73.0637 24.7383Z" fill="#5F5CF1" fill-opacity="0.1"/>
<path d="M68.0234 17.2383C68.3759 17.7073 68.5644 18.1798 68.5973 18.6498C69.9058 20.0803 71.084 21.603 72.1259 23.209C72.0937 22.7487 71.9297 22.2866 71.6266 21.8262C71.3992 21.4875 71.0918 21.0384 70.8582 20.704C70.7002 20.4868 70.4901 20.1959 70.3286 19.9796C69.6132 19.0267 68.8448 18.1121 68.0234 17.2383Z" fill="white" fill-opacity="0.5"/>
<path d="M62.4058 12.457C62.6845 12.8288 62.8347 13.2032 62.8598 13.5749C64.2959 14.5973 65.6582 15.7238 66.9388 16.9529C67.0708 17.0797 67.2019 17.2074 67.3322 17.336C67.3009 16.8878 67.1212 16.437 66.7852 15.9888C66.6575 15.8672 66.5299 15.7464 66.4005 15.6266C65.1459 14.4635 63.8132 13.4064 62.4066 12.4579" fill="white" fill-opacity="0.5"/>
<path d="M55.855 9.0331C56.0486 9.29107 56.1519 9.54991 56.1702 9.80789C57.9787 10.5905 59.7074 11.5077 61.3483 12.5544C61.3249 12.2078 61.1851 11.8595 60.9255 11.5138C59.3193 10.5505 57.6262 9.7219 55.855 9.03223" fill="#5F5CF1" fill-opacity="0.05"/>
<path d="M48.626 7.08984C48.725 7.22187 48.7779 7.35477 48.7875 7.48679C50.7158 7.8794 52.6077 8.42228 54.4545 9.11542C54.4388 8.88698 54.3468 8.6568 54.1749 8.42836C52.3664 7.82989 50.5144 7.38343 48.626 7.08984Z" fill="white" fill-opacity="0.5"/>
<path d="M41.0273 6.72801C43.0356 6.7202 45.0195 6.86612 46.9696 7.16405C46.9626 7.06243 46.9218 6.9608 46.8463 6.86004C44.937 6.662 42.9948 6.6177 41.0282 6.72801" fill="#5F5CF1" fill-opacity="0.1"/>
<path d="M71.3097 62.5519C70.7531 63.3927 70.1567 64.2065 69.522 64.9926L69.8727 64.5505C70.2768 64.023 70.5769 63.6225 70.7731 63.3492C71.0093 63.0131 71.321 62.5631 71.5502 62.2227C71.4773 62.333 71.3965 62.4424 71.3088 62.551" fill="#5F5CF1" fill-opacity="0.2"/>
<path d="M74.6377 56.0246C74.4137 56.6213 74.1723 57.2111 73.9136 57.7956C73.4118 58.9266 72.8509 60.021 72.231 61.0772C72.369 60.907 72.4888 60.735 72.5904 60.5621C72.7623 60.2633 72.9907 59.8638 73.1574 59.5624C73.4676 58.9804 73.6968 58.54 73.845 58.2412C74.1321 57.6465 74.3434 57.1972 74.4788 56.8932C74.7509 56.2655 74.95 55.7921 75.0762 55.473L75.288 54.9258C75.1482 55.2958 74.9303 55.6632 74.6386 56.0254" fill="white" fill-opacity="0.5"/>
<path d="M76.4349 48.8869C76.1797 50.757 75.7707 52.5863 75.209 54.3678C75.5485 53.9482 75.7881 53.5217 75.9253 53.0909L76.0842 52.5802C76.2734 51.9299 76.4103 51.44 76.4948 51.1105C76.6563 50.4538 76.7724 49.9593 76.843 49.6269C76.9767 48.9645 77.0719 48.4653 77.1287 48.1295C77.179 47.8107 77.2467 47.3851 77.2928 47.0654C77.2077 47.6813 76.9186 48.291 76.4367 48.8878" fill="white" fill-opacity="0.1"/>
<path d="M77.4993 39.5371C77.4133 40.1564 77.1233 40.7705 76.6388 41.3699C76.7152 42.3279 76.7517 43.2903 76.75 44.2562C76.7482 45.2204 76.7074 46.1758 76.6284 47.1226C77.1129 46.5224 77.4029 45.9092 77.4888 45.2898C77.5696 44.3396 77.6113 43.3815 77.613 42.4174C77.6147 41.4515 77.5765 40.4908 77.4984 39.5371" fill="white" fill-opacity="0.5"/>
<path d="M76.0712 32.1836C75.9887 32.7786 75.71 33.3684 75.2446 33.9442C75.8003 35.797 76.2032 37.6784 76.4515 39.5806C76.9334 38.9839 77.2225 38.3732 77.3076 37.7574C77.0532 35.8682 76.6399 34.0068 76.0712 32.1836Z" fill="white" fill-opacity="0.5"/>
<path d="M73.0464 25.25C72.9708 25.7937 72.7165 26.3314 72.291 26.8578C72.9075 27.9939 73.4657 29.1613 73.9641 30.3582C74.2202 30.9732 74.459 31.5925 74.6795 32.2153C75.1371 31.649 75.4115 31.0688 75.4922 30.4842C75.2656 29.8727 75.0216 29.2655 74.7594 28.6636C74.2489 27.4927 73.6776 26.354 73.0464 25.25Z" fill="#5F5CF1" fill-opacity="0.1"/>
<path d="M68.5816 19.0898C68.5165 19.5572 68.2977 20.021 67.9321 20.4735C69.2093 21.991 70.3589 23.5909 71.3756 25.2665C71.788 24.7557 72.0354 24.2328 72.1084 23.7056C71.0665 22.083 69.8891 20.5421 68.5816 19.0907" fill="#5F5CF1" fill-opacity="0.05"/>
<path d="M62.848 13.9227C62.7968 14.2928 62.6231 14.6593 62.334 15.018C63.7353 16.1351 65.0646 17.3528 66.3149 18.6653C66.4442 18.8008 66.5719 18.9372 66.6986 19.0744C67.0477 18.6427 67.2569 18.2006 67.3186 17.7541C67.1883 17.6239 67.0581 17.4936 66.9252 17.365C65.6446 16.116 64.2841 14.9668 62.848 13.9219" fill="#5F5CF1" fill-opacity="0.05"/>
<path d="M56.1615 10.0508C56.1259 10.3079 56.0061 10.5615 55.8047 10.8108C57.5698 11.7133 59.2568 12.7443 60.8578 13.8995C61.1279 13.566 61.2885 13.2246 61.3363 12.8798C59.697 11.8071 57.9692 10.8621 56.1615 10.0508Z" fill="white" fill-opacity="0.5"/>
<path d="M48.7834 7.61133C48.7652 7.74249 48.7035 7.87278 48.6011 8.00046C50.4826 8.51988 52.3293 9.18871 54.1309 10.0035C54.3089 9.78283 54.4157 9.55786 54.4469 9.33029C52.6011 8.60761 50.7109 8.03434 48.7834 7.61133Z" fill="white" fill-opacity="0.1"/>
<path d="M41.0273 6.72754C42.987 6.85262 44.9231 7.1297 46.8263 7.55618C46.9053 7.4589 46.9522 7.35901 46.9661 7.25825C45.0169 6.92992 43.0347 6.75186 41.0273 6.72754Z" fill="white" fill-opacity="0.1"/>
<path d="M59.1441 73.8401L58.9219 73.9669L59.224 73.7949L59.1441 73.8401Z" fill="#5F5CF1" fill-opacity="0.05"/>
<path d="M64.5264 69.7831C64.4083 69.8969 64.2893 70.0098 64.1686 70.1218C63.0165 71.1937 61.7931 72.1552 60.5029 73.003C60.6896 72.8979 60.865 72.7919 61.0291 72.6842C61.3486 72.4697 61.774 72.1813 62.0901 71.9615C62.9132 71.3665 62.9288 71.3552 63.3551 71.026C64.1469 70.4006 64.1626 70.3885 64.5698 70.0454C65.3321 69.3896 65.3468 69.3766 65.7358 69.0204L66.1838 68.6035C65.7549 69.0092 65.201 69.4044 64.5264 69.7831Z" fill="#5F5CF1" fill-opacity="0.05"/>
<path d="M70.8746 63.0273C70.3589 63.5303 69.6799 64.0202 68.8455 64.4892C67.9052 65.9693 66.8433 67.3486 65.666 68.622C66.4058 68.2059 67.0074 67.7725 67.465 67.3261C68.7283 65.9919 69.8674 64.5569 70.8755 63.0273" fill="#5F5CF1" fill-opacity="0.05"/>
<path d="M74.1541 56.5518C73.5819 57.1094 72.8283 57.6523 71.9027 58.1726C71.6969 58.7545 71.4747 59.3295 71.2368 59.8976C70.7757 60.9973 70.2591 62.0561 69.6904 63.0723C70.55 62.5894 71.2498 62.0847 71.7812 61.5662C72.3915 60.5204 72.9455 59.4346 73.4395 58.3115C73.6948 57.7313 73.9327 57.145 74.1532 56.5518" fill="white" fill-opacity="0.5"/>
<path d="M75.9264 49.4434C75.3238 50.0305 74.5311 50.6021 73.5561 51.1502C73.3216 53.0038 72.9448 54.8078 72.4282 56.5537C73.3694 56.0247 74.1352 55.4723 74.7169 54.9051C75.2708 53.1323 75.6746 51.3091 75.9255 49.4434" fill="white" fill-opacity="0.5"/>
<path d="M76.1277 41.9277C75.5217 42.5184 74.7247 43.0934 73.7453 43.6441C73.8147 44.6074 73.8495 45.5724 73.8469 46.5383C73.8451 47.5024 73.8078 48.4553 73.7349 49.3968C74.7142 48.8461 75.5122 48.2711 76.1173 47.6805C76.1955 46.7354 76.2354 45.78 76.2371 44.8158C76.2389 43.8499 76.2024 42.8867 76.1277 41.9277Z" fill="white" fill-opacity="0.5"/>
<path d="M74.754 34.4795C74.1723 35.0467 73.4065 35.5991 72.4653 36.1281C72.975 38.0164 73.3449 39.9239 73.5732 41.8426C74.5474 41.2945 75.3409 40.723 75.9435 40.1358C75.6987 38.2292 75.3019 36.3418 74.754 34.4804" fill="#5F5CF1" fill-opacity="0.2"/>
<path d="M71.8422 27.3477C71.3108 27.8662 70.611 28.37 69.7515 28.8538C70.3176 30.029 70.8307 31.2329 71.2883 32.4611C71.5235 33.0926 71.7423 33.7275 71.9455 34.3642C72.8711 33.8439 73.6238 33.301 74.196 32.7434C73.9781 32.1171 73.7428 31.4944 73.491 30.875C73.0004 29.6703 72.45 28.4942 71.8422 27.3485" fill="#5F5CF1" fill-opacity="0.1"/>
<path d="M67.547 20.8944C67.0895 21.34 66.4878 21.7743 65.748 22.1895C66.921 23.7886 67.9768 25.4624 68.9119 27.2022C69.7463 26.7332 70.4253 26.2433 70.941 25.7403C69.9382 24.0492 68.8051 22.431 67.547 20.8936" fill="white" fill-opacity="0.5"/>
<path d="M62.0284 15.3525C61.6663 15.7052 61.1897 16.0492 60.6045 16.3784C61.8921 17.5848 63.1128 18.8869 64.2615 20.2801C64.3796 20.4234 64.4977 20.5685 64.614 20.7135C65.3199 20.3166 65.8938 19.9031 66.3305 19.4775C66.2055 19.3385 66.0796 19.2004 65.952 19.0623C64.72 17.7299 63.4098 16.4913 62.0284 15.3525Z" fill="white" fill-opacity="0.5"/>
<path d="M55.5931 11.041C55.3422 11.286 55.0114 11.524 54.606 11.7524C56.2278 12.7669 57.7776 13.9065 59.2484 15.1643C59.7937 14.8576 60.2374 14.538 60.5742 14.2097C58.9966 13.0292 57.334 11.9713 55.594 11.041" fill="#5F5CF1" fill-opacity="0.1"/>
<path d="M48.4915 8.11816C48.363 8.24324 48.1937 8.36572 47.9854 8.48298C49.714 9.12227 51.4106 9.90922 53.0663 10.8386C53.4266 10.6362 53.7192 10.4252 53.9415 10.208C52.1651 9.36461 50.3452 8.66712 48.4907 8.11816" fill="#5F5CF1" fill-opacity="0.05"/>
<path d="M41.0273 6.72754C42.8281 6.9777 44.6071 7.37812 46.3557 7.92621C46.5146 7.83674 46.6449 7.74293 46.743 7.64739C44.8676 7.19137 42.9592 6.88389 41.0273 6.72841" fill="white" fill-opacity="0.5"/>
<path d="M58.6031 74.1239C57.9953 74.4218 57.2877 74.705 56.4854 74.9691C55.2256 75.7265 53.8981 76.3397 52.5098 76.8035C52.5237 76.7992 52.5375 76.794 52.5523 76.7896L53.1514 76.5838C54.1368 76.2242 54.2167 76.1947 54.8505 75.9367C55.8134 75.5302 55.8707 75.5059 56.4455 75.2383L57.0949 74.9274C57.6072 74.6763 58.1099 74.4079 58.6039 74.123" fill="white" fill-opacity="0.5"/>
<path d="M63.8262 70.1494C63.0387 70.5351 62.1228 70.9016 61.0843 71.2439C60.9836 71.3507 60.8812 71.4558 60.7787 71.5609C59.7941 72.5624 58.7488 73.4484 57.647 74.2162C58.5091 73.9322 59.2697 73.6282 59.9226 73.3076C61.1746 72.4799 62.3615 71.5374 63.4798 70.483C63.5962 70.3726 63.7125 70.2615 63.8271 70.1494" fill="#5F5CF1" fill-opacity="0.1"/>
<path d="M68.0172 64.9229C67.0865 65.3789 66.0029 65.8123 64.7752 66.2171C63.9712 67.639 63.0648 68.9532 62.0576 70.1536C63.1464 69.7948 64.1067 69.41 64.9315 69.0061C66.075 67.7519 67.1047 66.3882 68.0172 64.9229Z" fill="white" fill-opacity="0.5"/>
<path d="M70.9852 58.6533C69.9529 59.1588 68.7512 59.6401 67.389 60.0891C67.2127 60.6589 67.0234 61.22 66.8194 61.7733C66.4252 62.8443 65.9842 63.871 65.4971 64.8525C66.7621 64.4356 67.8787 63.9891 68.8372 63.5192C69.3894 62.5116 69.8904 61.4606 70.3384 60.3688C70.5693 59.8051 70.7847 59.2327 70.9843 58.6542" fill="#5F5CF1" fill-opacity="0.1"/>
<path d="M72.5894 51.6561C71.5024 52.1886 70.2373 52.695 68.803 53.1675C68.6016 55.0072 68.2794 56.7878 67.8384 58.5016C69.2232 58.0447 70.4457 57.5557 71.4954 57.0415C71.9964 55.3043 72.3619 53.5063 72.5903 51.6553" fill="white" fill-opacity="0.5"/>
<path d="M72.7737 44.1543C71.6806 44.6894 70.4086 45.1984 68.9665 45.6743C69.0255 46.642 69.0542 47.6087 69.0524 48.5746C69.0507 49.5387 69.0186 50.4899 68.9561 51.4271C70.3982 50.952 71.6702 50.443 72.7633 49.907C72.8345 48.9663 72.8709 48.0144 72.8727 47.0502C72.8744 46.0843 72.8414 45.1184 72.7737 44.1552" fill="white" fill-opacity="0.5"/>
<path d="M71.5312 36.6181C70.4815 37.1323 69.2598 37.6213 67.875 38.0773C68.31 39.9969 68.626 41.9278 68.8196 43.8604C70.254 43.3879 71.519 42.8815 72.606 42.3491C72.3846 40.4269 72.0261 38.5133 71.5312 36.6172" fill="#5F5CF1" fill-opacity="0.05"/>
<path d="M68.8997 29.3007C67.9412 29.7706 66.8246 30.217 65.5596 30.634C66.0432 31.8448 66.4808 33.08 66.8715 34.3368C67.072 34.9831 67.2596 35.631 67.4324 36.2807C68.7946 35.8317 69.9963 35.3513 71.0286 34.845C70.8315 34.2048 70.6188 33.5672 70.3913 32.9314C69.9477 31.6954 69.4502 30.4846 68.9006 29.2998" fill="white" fill-opacity="0.1"/>
<path d="M65.014 22.5752C64.1892 22.9791 63.2289 23.3639 62.1401 23.7226C63.1421 25.3947 64.0433 27.1336 64.8412 28.9316C66.0689 28.5268 67.1525 28.0934 68.0832 27.6374C67.1768 25.8828 66.1514 24.1925 65.014 22.5752Z" fill="#5F5CF1" fill-opacity="0.2"/>
<path d="M60.0233 16.6826C59.3704 17.0023 58.6098 17.3071 57.7485 17.5912C58.8486 18.8776 59.8914 20.2552 60.8716 21.7196C60.9732 21.8708 61.073 22.0228 61.1729 22.1748C62.2113 21.8325 63.1273 21.466 63.9148 21.0803C63.8019 20.9335 63.6882 20.7868 63.5727 20.6417C62.4579 19.2311 61.2736 17.9091 60.0242 16.6826" fill="#5F5CF1" fill-opacity="0.2"/>
<path d="M54.2031 11.9629C53.7499 12.1844 53.2228 12.3955 52.6255 12.5926C54.0103 13.7079 55.3344 14.9431 56.5907 16.292C57.393 16.0279 58.1006 15.7448 58.7084 15.4468C57.281 14.1665 55.7772 13.0026 54.2039 11.9629" fill="#5F5CF1" fill-opacity="0.05"/>
<path d="M47.7795 8.59082C47.5477 8.70461 47.2777 8.81231 46.9712 8.91394C48.4481 9.66094 49.8972 10.5521 51.3107 11.5849C51.8403 11.4103 52.3083 11.2235 52.7094 11.0264C51.1023 10.0709 49.457 9.25791 47.7787 8.59169" fill="white" fill-opacity="0.1"/>
<path d="M41.0273 6.72754C42.5659 7.08888 44.0853 7.59961 45.5787 8.25541C45.8131 8.1781 46.0197 8.09558 46.1977 8.00872C44.5012 7.43371 42.7751 7.00549 41.0273 6.72754Z" fill="#5F5CF1" fill-opacity="0.05"/>
<path d="M48.7912 77.8103C48.5984 77.8607 48.404 77.9058 48.2095 77.9458C48.5186 77.8798 48.931 77.7938 49.2392 77.7226L49.9868 77.541C49.6099 77.6366 49.2114 77.726 48.7903 77.8103" fill="#5F5CF1" fill-opacity="0.1"/>
<path d="M55.7057 75.2119C54.8453 75.4638 53.8911 75.6957 52.85 75.9033C51.8837 76.586 50.8661 77.1194 49.8008 77.4998C50.577 77.3452 51.2872 77.1723 51.9288 76.9847C53.2477 76.5426 54.5084 75.9502 55.7057 75.2119Z" fill="#5F5CF1" fill-opacity="0.05"/>
<path d="M60.0745 71.5585C58.9606 71.8851 57.726 72.1856 56.3776 72.454C56.3003 72.5548 56.2222 72.6538 56.1431 72.7519C55.3878 73.6944 54.5864 74.5178 53.7407 75.2196C54.859 74.9964 55.8835 74.7471 56.8091 74.4761C57.8562 73.7256 58.8495 72.8553 59.7846 71.8694C59.8818 71.767 59.979 71.6627 60.0745 71.5576" fill="white" fill-opacity="0.1"/>
<path d="M63.5806 66.5889C62.2627 66.9745 60.8031 67.3298 59.2091 67.6477C58.5926 69.0218 57.8963 70.2813 57.1235 71.4218C58.5362 71.1403 59.8298 70.825 60.9985 70.4828C61.9553 69.2989 62.8166 67.9986 63.5806 66.5889Z" fill="#5F5CF1" fill-opacity="0.05"/>
<path d="M66.0655 60.5C64.6042 60.9282 62.985 61.3217 61.2172 61.6744C61.0818 62.2337 60.9359 62.7836 60.7796 63.3247C60.4766 64.3722 60.138 65.3729 59.7646 66.3248C61.4065 65.9974 62.9103 65.6317 64.2682 65.2339C64.731 64.2602 65.1495 63.2404 65.5246 62.1755C65.7182 61.6257 65.8988 61.0672 66.0655 60.5Z" fill="#5F5CF1" fill-opacity="0.05"/>
<path d="M67.4087 53.6016C65.8702 54.0524 64.165 54.4676 62.3044 54.8384C62.1498 56.666 61.9015 58.4275 61.562 60.1152C63.3593 59.7565 65.0055 59.356 66.4919 58.9209C66.9112 57.2141 67.2177 55.4378 67.4087 53.6016Z" fill="white" fill-opacity="0.5"/>
<path d="M67.565 46.1084C66.0177 46.5618 64.3038 46.9787 62.4328 47.3514C62.4779 48.3225 62.4996 49.2918 62.4979 50.2577C62.4962 51.2218 62.471 52.1712 62.4224 53.1041C64.2934 52.7315 66.0073 52.3137 67.5545 51.8611C67.6144 50.9248 67.6448 49.9745 67.6466 49.0104C67.6483 48.0445 67.6214 47.0769 67.565 46.1084Z" fill="#5F5CF1" fill-opacity="0.05"/>
<path d="M66.5285 38.4961C65.0429 38.9313 63.3959 39.3317 61.5986 39.6904C61.9312 41.637 62.1725 43.587 62.321 45.5309C64.1825 45.16 65.8869 44.7448 67.4254 44.294C67.2413 42.3579 66.9418 40.4226 66.5285 38.4961Z" fill="#5F5CF1" fill-opacity="0.05"/>
<path d="M64.3294 31.0156C62.9723 31.4134 61.4685 31.7791 59.8267 32.1066C60.1965 33.3461 60.5317 34.6082 60.8312 35.8885C60.9849 36.5469 61.1282 37.2061 61.2601 37.8663C63.0279 37.5136 64.6463 37.1202 66.1075 36.6919C65.9434 36.0396 65.7654 35.3882 65.5744 34.7393C65.2037 33.4764 64.7878 32.2343 64.3285 31.0156" fill="#5F5CF1" fill-opacity="0.2"/>
<path d="M61.0826 24.0507C59.9148 24.3929 58.6211 24.7073 57.2085 24.9888C57.976 26.7208 58.6663 28.5144 59.2775 30.3602C60.8707 30.0423 62.3311 29.687 63.6482 29.3014C62.8903 27.4912 62.0342 25.7375 61.0826 24.0498" fill="#5F5CF1" fill-opacity="0.2"/>
<path d="M56.9103 17.8506C55.9856 18.1216 54.9611 18.3709 53.8428 18.5932C54.6858 19.9457 55.4846 21.3867 56.2356 22.9093C56.3129 23.0665 56.3902 23.2246 56.4666 23.3827C57.8141 23.1143 59.0487 22.8138 60.1627 22.4872C60.0681 22.3334 59.9726 22.1797 59.877 22.0277C58.9454 20.5485 57.9548 19.1535 56.9103 17.8506Z" fill="#5F5CF1" fill-opacity="0.2"/>
<path d="M52.0442 12.7734C51.4034 12.9611 50.6923 13.1339 49.917 13.2885C50.9789 14.4872 51.993 15.8014 52.9558 17.2259C53.9969 17.0183 54.9502 16.7864 55.8106 16.5345C54.6176 15.1664 53.3604 13.9104 52.0442 12.7734Z" fill="#5F5CF1" fill-opacity="0.1"/>
<path d="M46.6736 9.00586C46.3454 9.10227 45.9808 9.19087 45.584 9.26991C46.7162 10.1055 47.8267 11.0836 48.9102 12.2006C49.5979 12.0633 50.2273 11.9105 50.796 11.7437C49.4529 10.6892 48.0767 9.77544 46.6736 9.00586Z" fill="white" fill-opacity="0.5"/>
<path d="M41.0264 6.72754C42.2054 7.18095 43.3706 7.78289 44.5158 8.52902C44.8197 8.46821 45.0984 8.40046 45.3502 8.32663C43.9315 7.64739 42.4885 7.1132 41.0264 6.72754Z" fill="white" fill-opacity="0.1"/>
<path d="M48.1285 77.9346C47.7091 78.0075 47.2715 78.0753 46.8148 78.137C46.4831 78.1813 46.148 78.2221 45.8094 78.2586C45.5107 78.3558 45.2086 78.4219 44.9038 78.4566C45.1886 78.4227 45.5697 78.3793 45.8545 78.3411C46.3104 78.2742 46.9173 78.1804 47.3722 78.1048C47.6257 78.0588 47.8784 78.0015 48.1293 77.9346" fill="#5F5CF1" fill-opacity="0.1"/>
<path d="M51.8482 76.0908C51.2135 76.202 50.5511 76.3045 49.8599 76.3974C49.3572 76.4652 48.8502 76.526 48.3388 76.5816C47.7362 77.2096 47.1024 77.6847 46.4399 78.0052C46.8211 77.9644 47.1997 77.9184 47.5739 77.868C48.0887 77.7985 48.5828 77.7221 49.0551 77.6395C50.0301 77.2756 50.9635 76.7579 51.8491 76.0908" fill="white" fill-opacity="0.1"/>
<path d="M55.0806 72.6962C54.2593 72.8404 53.4015 72.9724 52.5063 73.0931C51.856 73.1809 51.1987 73.2599 50.5371 73.3311C50.4885 73.4275 50.4399 73.5222 50.3913 73.616C49.9207 74.5159 49.4206 75.2933 48.8936 75.9473C49.4432 75.8883 49.9884 75.8223 50.5284 75.7493C51.2708 75.6494 51.9828 75.5391 52.6643 75.4201C53.4388 74.7313 54.1742 73.9209 54.8662 72.9898C54.9382 72.8925 55.0103 72.7943 55.0806 72.6953" fill="white" fill-opacity="0.1"/>
<path d="M57.6768 67.9336C56.7061 68.1038 55.6912 68.2602 54.6336 68.4026C53.8644 68.506 53.0882 68.5998 52.305 68.6841C51.9204 70.0234 51.4854 71.2438 51.0044 72.34C51.6981 72.2653 52.3875 72.1819 53.0691 72.0907C54.0068 71.9648 54.9063 71.8258 55.7667 71.6747C56.4743 70.5472 57.1125 69.2982 57.6777 67.9336" fill="#5F5CF1" fill-opacity="0.1"/>
<path d="M59.5164 61.9932C58.4398 62.1817 57.3137 62.3554 56.1407 62.5135C55.2881 62.6281 54.4259 62.7323 53.5577 62.8261C53.4735 63.3777 53.3823 63.9197 53.2842 64.4513C53.0949 65.4815 52.8831 66.463 52.6504 67.3941C53.457 67.3073 54.2575 67.2108 55.0493 67.104C56.139 66.9572 57.1843 66.7957 58.1846 66.6211C58.5266 65.6752 58.8375 64.6797 59.1153 63.6366C59.2586 63.098 59.3923 62.5499 59.5164 61.9932Z" fill="white" fill-opacity="0.5"/>
<path d="M60.5132 55.1729C59.3793 55.3718 58.1941 55.5542 56.9586 55.7209C56.0609 55.8417 55.1536 55.9511 54.2393 56.0501C54.1412 57.869 53.9858 59.6175 53.7739 61.2852C54.6569 61.1896 55.533 61.0846 56.4004 60.9673C57.5933 60.8066 58.7377 60.6303 59.8325 60.4383C60.1433 58.7558 60.3708 56.9987 60.5132 55.1729Z" fill="white" fill-opacity="0.5"/>
<path d="M60.6322 47.6885C59.4922 47.8883 58.3001 48.0724 57.0585 48.2392C56.1555 48.3608 55.2439 48.4711 54.3244 48.5701C54.3522 49.5438 54.3643 50.514 54.3626 51.4799C54.3608 52.4441 54.3444 53.3917 54.314 54.3228C55.2334 54.2238 56.146 54.1135 57.0481 53.9919C58.2896 53.8251 59.4817 53.641 60.6217 53.4412C60.666 52.5083 60.6895 51.5598 60.6912 50.5957C60.6929 49.6298 60.673 48.6604 60.6322 47.6885Z" fill="#5F5CF1" fill-opacity="0.05"/>
<path d="M59.8701 40.0136C58.7753 40.2055 57.63 40.3818 56.438 40.5425C55.5706 40.6589 54.6945 40.7649 53.8115 40.8604C54.0173 42.8261 54.1658 44.79 54.2569 46.7426C55.1712 46.6445 56.0785 46.5341 56.9763 46.4134C58.2109 46.2475 59.3969 46.0642 60.5308 45.8653C60.3954 43.9188 60.1749 41.9644 59.8701 40.0127" fill="white" fill-opacity="0.1"/>
<path d="M58.2471 32.4022C57.2468 32.5777 56.2015 32.7393 55.1118 32.8852C54.32 32.992 53.5195 33.0884 52.7129 33.1753C52.9421 34.4365 53.1505 35.7168 53.3354 37.0145C53.4309 37.6816 53.5195 38.3495 53.6011 39.0166C54.4693 38.9228 55.3315 38.8195 56.1841 38.7039C57.3571 38.5458 58.4823 38.3721 59.5598 38.1836C59.4383 37.5218 59.3072 36.8599 59.1665 36.1989C58.893 34.9134 58.5865 33.6469 58.2471 32.4014" fill="#5F5CF1" fill-opacity="0.2"/>
<path d="M55.8488 25.2432C54.9884 25.3943 54.0889 25.5324 53.1512 25.6592C52.4696 25.7513 51.7811 25.8338 51.0874 25.9085C51.5641 27.6839 51.993 29.5167 52.3715 31.3981C53.1547 31.3138 53.9318 31.22 54.7002 31.1166C55.7577 30.9742 56.7726 30.8178 57.7433 30.6476C57.1842 28.7923 56.5512 26.9873 55.8488 25.2432Z" fill="white" fill-opacity="0.1"/>
<path d="M52.767 18.7949C52.0854 18.9139 51.3734 19.0242 50.6311 19.1241C50.0919 19.1971 49.5467 19.2622 48.9971 19.3222C49.5206 20.7223 50.0173 22.2085 50.4835 23.7746C50.5313 23.9362 50.579 24.0986 50.6268 24.261C51.2892 24.1898 51.9456 24.1108 52.5959 24.023C53.4902 23.9023 54.348 23.7703 55.1694 23.6261C55.0999 23.4663 55.0296 23.3073 54.9584 23.1492C54.2699 21.6144 53.5388 20.1612 52.767 18.7949Z" fill="#5F5CF1" fill-opacity="0.05"/>
<path d="M49.1714 13.4287C48.6991 13.5112 48.205 13.5877 47.6902 13.6572C47.316 13.7075 46.9383 13.7536 46.5571 13.7944C47.217 15.053 47.8482 16.4254 48.4464 17.9046C48.9578 17.8499 49.4649 17.7882 49.9676 17.7205C50.6578 17.6275 51.3212 17.525 51.955 17.4138C51.0737 15.9746 50.1438 14.6439 49.1714 13.4287Z" fill="white" fill-opacity="0.5"/>
<path d="M45.201 9.34277C44.9588 9.38533 44.7061 9.42442 44.4422 9.46003C44.2503 9.48609 44.0567 9.50954 43.8613 9.53039C44.5655 10.4303 45.2566 11.4717 45.9303 12.6504C46.2681 12.6139 46.6032 12.5731 46.9349 12.5288C47.3916 12.4671 47.8292 12.3994 48.2477 12.3264C47.2544 11.192 46.2377 10.1966 45.2002 9.34364" fill="#5F5CF1" fill-opacity="0.05"/>
<path d="M41.0264 6.72754C41.76 7.2487 42.485 7.91578 43.197 8.72706C43.3463 8.71055 43.4948 8.69318 43.6415 8.6732C43.8438 8.64628 44.0374 8.61588 44.2224 8.58374C43.1735 7.82024 42.1065 7.20006 41.0264 6.72754Z" fill="#5F5CF1" fill-opacity="0.05"/>
<path d="M45.0531 78.334C44.2422 78.4061 43.4191 78.4556 42.5943 78.4834C42.464 78.5894 42.3321 78.6449 42.1992 78.6493C42.649 78.6293 43.2489 78.5972 43.6987 78.5676L44.2196 78.5251C44.5009 78.499 44.7788 78.4347 45.054 78.334" fill="white" fill-opacity="0.1"/>
<path d="M47.1936 76.6934C45.9659 76.8028 44.72 76.8775 43.4715 76.9192C43.2622 77.5194 43.0426 77.9667 42.8125 78.2568C43.7433 78.2256 44.6714 78.17 45.5865 78.0883C46.1474 77.7782 46.684 77.3118 47.1936 76.6934Z" fill="#5F5CF1" fill-opacity="0.05"/>
<path d="M49.054 73.4775C47.4642 73.6191 45.8511 73.7155 44.2353 73.7703C44.2188 73.8641 44.2014 73.957 44.184 74.0491C44.0199 74.9272 43.8463 75.6829 43.6631 76.3127C45.0045 76.2675 46.3433 76.1867 47.6622 76.0694C48.1085 75.4232 48.5313 74.6528 48.9298 73.7607C48.9715 73.6678 49.0123 73.5731 49.054 73.4775Z" fill="white" fill-opacity="0.1"/>
<path d="M50.5503 68.8564C48.6706 69.0241 46.763 69.1379 44.852 69.2021C44.7175 70.5242 44.5655 71.7246 44.3979 72.799C46.0919 72.7417 47.7824 72.6401 49.4494 72.4924C49.8574 71.4032 50.2247 70.1897 50.5512 68.8564" fill="white" fill-opacity="0.5"/>
<path d="M51.6131 63.0166C49.5284 63.2025 47.4125 63.3293 45.2931 63.4005C45.2636 63.9477 45.2306 64.4863 45.1968 65.0135C45.1299 66.035 45.0561 67.007 44.9736 67.9277C46.9428 67.8617 48.9076 67.7435 50.8438 67.5715C51.0418 66.6439 51.2206 65.6658 51.3812 64.6383C51.4637 64.1076 51.541 63.5673 51.6131 63.0166Z" fill="white" fill-opacity="0.1"/>
<path d="M52.1913 56.25C49.9964 56.4454 47.7685 56.5792 45.5362 56.6539C45.5006 58.4684 45.4442 60.2099 45.3687 61.869C47.5245 61.7969 49.6751 61.6675 51.7954 61.479C51.976 59.8139 52.1079 58.068 52.1913 56.2509" fill="white" fill-opacity="0.1"/>
<path d="M52.266 48.7724C50.059 48.9687 47.8198 49.1033 45.5754 49.1789C45.584 50.1543 45.5866 51.1245 45.5849 52.0904C45.5832 53.0546 45.5762 54.0013 45.5649 54.9307C47.8093 54.8552 50.0485 54.7205 52.2556 54.5242C52.2817 53.594 52.2964 52.6463 52.2981 51.6822C52.2999 50.7163 52.2895 49.7461 52.2669 48.7715" fill="white" fill-opacity="0.5"/>
<path d="M51.8336 41.0547C49.7133 41.2432 47.5627 41.3726 45.4077 41.4447C45.4763 43.4199 45.5258 45.3907 45.5544 47.3477C47.7867 47.273 50.0137 47.1392 52.2086 46.9438C52.1322 44.9894 52.0072 43.0229 51.8336 41.0547Z" fill="#5F5CF1" fill-opacity="0.1"/>
<path d="M50.9063 33.3534C48.9701 33.5254 47.0053 33.6435 45.0361 33.7095C45.1143 34.9812 45.1846 36.271 45.2471 37.5774C45.2792 38.2488 45.3088 38.9203 45.3365 39.5917C47.4559 39.5205 49.5718 39.3937 51.6565 39.2078C51.587 38.539 51.5123 37.8701 51.4325 37.2013C51.2762 35.901 51.1008 34.6172 50.9072 33.3525" fill="white" fill-opacity="0.1"/>
<path d="M49.5335 26.0615C47.8673 26.2101 46.1768 26.3117 44.4829 26.3681C44.6453 28.1653 44.792 30.018 44.9205 31.9168C46.8315 31.8525 48.739 31.7378 50.6179 31.5711C50.2975 29.6845 49.9355 27.8448 49.5326 26.0624" fill="white" fill-opacity="0.5"/>
<path d="M47.7668 19.4424C46.4479 19.5596 45.1091 19.6404 43.7686 19.6856C43.9483 21.1101 44.1176 22.6189 44.2773 24.2058C44.2938 24.37 44.3103 24.5341 44.326 24.6992C45.9418 24.6444 47.555 24.548 49.1447 24.4064C49.1048 24.2431 49.064 24.0798 49.024 23.9183C48.6298 22.3452 48.2105 20.8513 47.7677 19.4433" fill="white" fill-opacity="0.5"/>
<path d="M45.7038 13.877C44.7896 13.9586 43.8614 14.0142 42.9307 14.0455C43.1573 15.3345 43.3743 16.7355 43.5792 18.2417C44.8278 18.2 46.0728 18.1253 47.3005 18.0158C46.7952 16.5279 46.2612 15.146 45.7038 13.877Z" fill="white" fill-opacity="0.5"/>
<path d="M43.4243 9.57227C42.9555 9.61396 42.4806 9.64262 42.0039 9.65826C42.2461 10.5903 42.484 11.663 42.7159 12.8729C43.5407 12.8452 44.3629 12.7956 45.1739 12.7235C44.6043 11.5344 44.02 10.4826 43.4243 9.57227Z" fill="white" fill-opacity="0.1"/>
<path d="M41.0264 6.72754C41.2799 7.28171 41.5291 7.98267 41.7748 8.82521C42.1395 8.81305 42.5041 8.79133 42.8627 8.7592C42.2601 7.9375 41.6472 7.25912 41.0264 6.72754Z" fill="#5F5CF1" fill-opacity="0.05"/>
<path d="M41.8211 78.5023C40.9962 78.5162 40.1731 78.5092 39.3613 78.4814C39.4785 78.5874 39.5966 78.643 39.7164 78.6473L40.431 78.6647C40.7826 78.6665 41.2506 78.6673 41.6023 78.663C41.6761 78.6612 41.749 78.6065 41.8211 78.5014" fill="#5F5CF1" fill-opacity="0.05"/>
<path d="M42.3002 76.9492C41.0516 76.971 39.8057 76.9597 38.5771 76.918C38.763 77.5182 38.96 77.9655 39.1658 78.2556C40.0809 78.2869 41.01 78.2947 41.9398 78.2791C42.0657 77.9916 42.1856 77.5477 42.3002 76.9492Z" fill="#5F5CF1" fill-opacity="0.05"/>
<path d="M42.7194 73.8085C41.1027 73.8363 39.4895 73.8224 37.8989 73.7686C37.9137 73.8624 37.9284 73.9553 37.9441 74.0474C38.0882 74.9255 38.2427 75.6812 38.4051 76.3109C39.7248 76.3561 41.0645 76.3674 42.406 76.344C42.5067 75.716 42.6013 74.9629 42.6916 74.0865C42.7012 73.9953 42.7107 73.9023 42.7194 73.8085Z" fill="white" fill-opacity="0.5"/>
<path d="M43.0589 69.248C41.1479 69.281 39.2395 69.2645 37.3589 69.2002C37.4752 70.5222 37.6081 71.7235 37.7557 72.7971C39.4227 72.8535 41.114 72.8683 42.808 72.8396C42.9 71.7669 42.9842 70.5682 43.0589 69.248Z" fill="#5F5CF1" fill-opacity="0.2"/>
<path d="M43.3046 63.4514C41.1852 63.4879 39.0693 63.4697 36.9829 63.3984C37.0081 63.9465 37.035 64.4842 37.0645 65.0114C37.121 66.0329 37.1843 67.0057 37.2547 67.9256C39.1917 67.9916 41.1574 68.009 43.1266 67.9742C43.1717 67.0544 43.2134 66.0833 43.2507 65.0627C43.2698 64.5354 43.2881 63.9978 43.3046 63.4506" fill="white" fill-opacity="0.5"/>
<path d="M43.4435 56.7079C41.2113 56.7461 38.9834 56.727 36.7876 56.6523C36.8136 58.4669 36.8579 60.2084 36.9204 61.8674C39.0415 61.9395 41.193 61.9586 43.3489 61.9213C43.3914 60.2631 43.4236 58.5233 43.4444 56.7088" fill="#5F5CF1" fill-opacity="0.1"/>
<path d="M43.4704 49.2323C41.2269 49.2714 38.9868 49.2515 36.7789 49.1768C36.7676 50.1522 36.7615 51.1224 36.7598 52.0883C36.7581 53.0525 36.7607 53.9992 36.7685 54.9286C38.9764 55.0033 41.2165 55.0233 43.4609 54.9842C43.4678 54.0548 43.4722 53.108 43.4748 52.1439C43.4765 51.178 43.4748 50.2069 43.4722 49.2315" fill="#5F5CF1" fill-opacity="0.1"/>
<path d="M43.3856 41.4962C41.2306 41.5336 39.0791 41.5145 36.958 41.4424C36.8894 43.4176 36.8382 45.3876 36.8052 47.3454C39.0018 47.4201 41.2297 47.4392 43.4611 47.401C43.4472 45.4432 43.422 43.4714 43.3856 41.4962Z" fill="#5F5CF1" fill-opacity="0.2"/>
<path d="M43.1902 33.7566C41.2211 33.7905 39.2562 33.7732 37.3192 33.708C37.2445 34.9796 37.1768 36.2695 37.116 37.5759C37.0848 38.2473 37.0552 38.9187 37.0283 39.5902C39.1138 39.6614 41.2297 39.6796 43.3491 39.6432C43.3344 38.9717 43.3187 38.2994 43.3022 37.6271C43.2692 36.3199 43.2319 35.0291 43.1902 33.7566Z" fill="white" fill-opacity="0.1"/>
<path d="M42.8948 26.4078C41.2008 26.4373 39.5104 26.4226 37.8433 26.3652C37.6905 28.1624 37.5525 30.0151 37.4292 31.913C39.3098 31.9773 41.2173 31.9938 43.1283 31.9608C43.0597 30.0611 42.9816 28.2067 42.8948 26.4069" fill="#5F5CF1" fill-opacity="0.1"/>
<path d="M42.5104 19.7176C41.169 19.741 39.831 19.7289 38.5113 19.6846C38.3446 21.1091 38.1866 22.6178 38.0372 24.2048C38.0216 24.3689 38.0068 24.5331 37.9912 24.6973C39.5818 24.7511 41.195 24.765 42.8108 24.7372C42.8021 24.5722 42.7934 24.408 42.7848 24.2439C42.6988 22.6543 42.6076 21.1438 42.5113 19.7176" fill="#5F5CF1" fill-opacity="0.05"/>
<path d="M42.0588 14.0684C41.1289 14.084 40.2007 14.0762 39.2856 14.0449C39.0764 15.3339 38.8767 16.735 38.6865 18.2411C39.9151 18.2828 41.161 18.2941 42.4087 18.2724C42.2984 16.7636 42.1812 15.36 42.0588 14.0684Z" fill="#5F5CF1" fill-opacity="0.1"/>
<path d="M41.5571 9.67036C41.0805 9.67818 40.6047 9.67471 40.1358 9.6582C39.9144 10.5902 39.6965 11.6629 39.4829 12.872C40.2938 12.8998 41.1169 12.9068 41.9418 12.8929C41.8167 11.6803 41.6874 10.605 41.5563 9.67036" fill="white" fill-opacity="0.5"/>
<path d="M41.0263 6.72754C40.7962 7.28171 40.5687 7.9818 40.3447 8.82521C40.7033 8.83737 41.068 8.84084 41.4326 8.8339C41.2998 7.98788 41.1643 7.28431 41.0263 6.72754Z" fill="white" fill-opacity="0.1"/>
<path d="M38.6031 78.4502C37.8 78.4102 37.0107 78.3494 36.2476 78.2695C36.5454 78.372 36.8466 78.4389 37.1505 78.471H37.1523C38.2219 78.5709 38.2419 78.5727 38.8314 78.6074L39.124 78.623C38.9487 78.6135 38.775 78.5562 38.604 78.4502" fill="white" fill-opacity="0.5"/>
<path d="M37.4302 76.8704C36.2138 76.8096 35.0209 76.7184 33.8652 76.5977C34.4322 77.2239 35.0295 77.6982 35.6547 78.0169C36.516 78.1064 37.4051 78.175 38.3115 78.2202C38.0033 77.9257 37.7098 77.4749 37.4311 76.8704" fill="#5F5CF1" fill-opacity="0.1"/>
<path d="M36.4154 73.7061C34.8412 73.627 33.2958 73.5089 31.7998 73.3525C31.845 73.449 31.891 73.5436 31.937 73.6374C32.3789 74.5356 32.8478 75.313 33.3435 75.9662C34.5851 76.0956 35.8675 76.1937 37.1742 76.2597C36.9302 75.6257 36.7002 74.8674 36.4831 73.9857C36.4605 73.8937 36.4379 73.8007 36.4154 73.7061Z" fill="#5F5CF1" fill-opacity="0.2"/>
<path d="M35.6052 69.1278C33.7437 69.0348 31.9169 68.8941 30.1475 68.71C30.506 70.0485 30.9124 71.268 31.363 72.3633C32.931 72.5266 34.5503 72.6508 36.2008 72.7333C35.9794 71.6563 35.7806 70.4515 35.6052 69.1278Z" fill="#5F5CF1" fill-opacity="0.1"/>
<path d="M35.0364 63.3165C32.9717 63.2131 30.9452 63.0576 28.9839 62.8535C29.062 63.4051 29.1462 63.9462 29.2365 64.4787C29.4119 65.5088 29.6082 66.4895 29.8252 67.4206C31.6476 67.6108 33.53 67.755 35.4471 67.8506C35.3411 66.9281 35.2448 65.9553 35.1597 64.9321C35.1154 64.404 35.0746 63.8654 35.0364 63.3174" fill="#5F5CF1" fill-opacity="0.05"/>
<path d="M34.738 56.5663C32.5639 56.4568 30.4307 56.2935 28.3643 56.0781C28.4502 57.897 28.5909 59.6446 28.7854 61.3123C30.7806 61.5199 32.8409 61.678 34.9403 61.7831C34.8457 60.1232 34.778 58.3808 34.738 56.5654" fill="white" fill-opacity="0.1"/>
<path d="M34.7188 49.0894C32.5335 48.98 30.388 48.8158 28.3112 48.5986C28.2817 49.5723 28.2661 50.5426 28.2643 51.5084C28.2626 52.4726 28.2747 53.4202 28.2999 54.3514C30.3768 54.5677 32.5222 54.7318 34.7075 54.8421C34.6954 53.9127 34.691 52.9651 34.6928 52.0009C34.6945 51.0351 34.7032 50.064 34.7188 49.0894Z" fill="white" fill-opacity="0.1"/>
<path d="M34.9782 41.3595C32.8788 41.2544 30.8185 41.0963 28.8233 40.8887C28.6219 42.8543 28.4742 44.8182 28.3813 46.7717C30.4469 46.9871 32.581 47.1504 34.7542 47.2599C34.802 45.3029 34.8767 43.3338 34.9774 41.3595" fill="white" fill-opacity="0.5"/>
<path d="M35.5106 33.6311C33.5927 33.5347 31.7112 33.3905 29.8887 33.2012C29.6673 34.4624 29.4668 35.7436 29.2871 37.0421C29.195 37.7092 29.1082 38.3772 29.0283 39.0451C30.9897 39.2492 33.0161 39.4047 35.0808 39.5081C35.1208 38.8375 35.1642 38.1661 35.2102 37.4955C35.2996 36.1909 35.4003 34.9019 35.5106 33.632" fill="white" fill-opacity="0.1"/>
<path d="M36.2876 26.3007C34.638 26.2182 33.0187 26.094 31.4507 25.9307C30.994 27.707 30.5824 29.5414 30.2178 31.4228C31.9864 31.607 33.8132 31.7468 35.6747 31.8406C35.8561 29.9445 36.061 28.0952 36.2876 26.3007Z" fill="white" fill-opacity="0.5"/>
<path d="M37.279 19.6316C35.9732 19.5664 34.6908 19.4674 33.4492 19.3389C32.9491 20.7408 32.4751 22.2278 32.0288 23.7948C31.9828 23.9563 31.9368 24.1188 31.8916 24.2812C33.3876 24.4367 34.9322 24.5557 36.5063 24.6347C36.5289 24.4706 36.5514 24.3064 36.574 24.1431C36.7954 22.5588 37.0307 21.0535 37.279 19.6325" fill="#5F5CF1" fill-opacity="0.05"/>
<path d="M38.4314 14.0099C37.5258 13.9647 36.6367 13.8961 35.7754 13.8066C35.1468 15.067 34.546 16.4402 33.9756 17.9212C35.1303 18.0419 36.3242 18.1331 37.5397 18.1939C37.8228 16.6913 38.1197 15.2946 38.4305 14.0099" fill="white" fill-opacity="0.1"/>
<path d="M39.6978 9.63939C39.2333 9.61594 38.7783 9.58119 38.3373 9.53516C37.6687 10.4368 37.0123 11.4791 36.3716 12.6595C37.1348 12.7394 37.9231 12.7994 38.7263 12.8393C39.0432 11.6337 39.3679 10.5662 39.6987 9.63852" fill="#5F5CF1" fill-opacity="0.05"/>
<path d="M41.0264 6.72754C40.3309 7.24957 39.6441 7.91926 38.9678 8.7314C39.3055 8.76701 39.6546 8.79307 40.0097 8.81131C40.3439 7.97311 40.6834 7.27736 41.0264 6.72754Z" fill="#5F5CF1" fill-opacity="0.1"/>
<path d="M35.5401 78.1894C34.7934 78.0982 34.0753 77.9879 33.3955 77.8594C33.6386 77.9245 33.8835 77.981 34.13 78.0279C34.4825 78.0904 34.9514 78.1738 35.3048 78.2303C35.6564 78.2807 36.1261 78.3484 36.4786 78.3936C36.1626 78.3536 35.85 78.2859 35.5401 78.1886" fill="white" fill-opacity="0.5"/>
<path d="M32.7927 76.476C31.6623 76.3379 30.5753 76.1711 29.5464 75.9766C30.4615 76.6532 31.4261 77.1804 32.4359 77.5539C33.2025 77.6981 34.0126 77.8223 34.8548 77.9257C34.1342 77.5956 33.4457 77.1118 32.7927 76.4751" fill="#5F5CF1" fill-opacity="0.05"/>
<path d="M30.4121 73.1951C28.9492 73.0161 27.5409 72.7999 26.209 72.5488C26.2819 72.6487 26.3557 72.7477 26.4304 72.8459C27.1441 73.7831 27.9029 74.6022 28.7034 75.2988C29.8087 75.5073 30.9774 75.6862 32.192 75.8347C31.6207 75.1729 31.0798 74.3885 30.5702 73.4817C30.5172 73.387 30.4642 73.2915 30.4121 73.1942" fill="#5F5CF1" fill-opacity="0.05"/>
<path d="M28.5064 68.5241C26.776 68.3122 25.1116 68.0568 23.5366 67.7598C24.1175 69.1295 24.7739 70.3855 25.5032 71.5208C26.8993 71.784 28.3753 72.0107 29.9086 72.1983C29.3886 71.0952 28.9206 69.8687 28.5064 68.5241Z" fill="white" fill-opacity="0.1"/>
<path d="M27.1643 62.6476C25.2455 62.413 23.3996 62.129 21.6519 61.7998C21.7786 62.3583 21.9149 62.9073 22.0608 63.4475C22.3447 64.4933 22.6625 65.4914 23.0141 66.4416C24.6369 66.7474 26.3516 67.0105 28.1341 67.2286C27.8841 66.2939 27.6575 65.3098 27.4552 64.277C27.351 63.7437 27.2537 63.2 27.1634 62.6476" fill="white" fill-opacity="0.1"/>
<path d="M26.4477 55.8608C24.4273 55.6132 22.4834 55.3153 20.6436 54.9688C20.7842 56.7954 21.0134 58.5561 21.3295 60.2412C23.1059 60.5756 24.983 60.8639 26.9348 61.1028C26.71 59.4316 26.5476 57.6814 26.4477 55.8608Z" fill="white" fill-opacity="0.1"/>
<path d="M26.3847 48.3816C24.353 48.1332 22.3986 47.8327 20.5492 47.4844C20.5032 48.4555 20.4789 49.4248 20.4772 50.3907C20.4754 51.3549 20.4954 52.3042 20.5388 53.2371C22.3882 53.5854 24.3426 53.886 26.3742 54.1344C26.3447 53.2032 26.33 52.2556 26.3317 51.2915C26.3334 50.3256 26.3508 49.3553 26.3847 48.3825" fill="white" fill-opacity="0.5"/>
<path d="M26.9729 40.6781C25.0219 40.4392 23.1448 40.1508 21.3684 39.8164C21.0454 41.7647 20.8092 43.7164 20.6616 45.6621C22.5014 46.0087 24.4454 46.3066 26.4658 46.5541C26.5726 44.6024 26.7419 42.6411 26.9737 40.6781" fill="white" fill-opacity="0.1"/>
<path d="M28.199 33.0096C26.4165 32.7916 24.7018 32.5284 23.079 32.2227C22.723 33.4648 22.4001 34.7286 22.1118 36.0106C21.9633 36.6699 21.8253 37.33 21.6968 37.991C23.4437 38.3202 25.2896 38.6034 27.2084 38.8388C27.3004 38.1726 27.3994 37.5064 27.5053 36.8401C27.7119 35.5451 27.9429 34.2673 28.1982 33.0096" fill="white" fill-opacity="0.5"/>
<path d="M29.9964 25.7664C28.4631 25.5788 26.988 25.3521 25.5918 25.0889C24.8573 26.8252 24.1948 28.6232 23.6079 30.4733C25.1829 30.7704 26.8473 31.0258 28.5777 31.2377C28.9979 29.3624 29.472 27.5357 29.9973 25.7664" fill="white" fill-opacity="0.1"/>
<path d="M32.2982 19.2088C31.0844 19.0602 29.9158 18.8804 28.8105 18.6729C28.0056 20.0305 27.2416 21.4758 26.5218 23.0037C26.448 23.1618 26.3742 23.3199 26.3013 23.4779C27.6332 23.729 29.0406 23.9453 30.5036 24.1242C30.5556 23.9626 30.6086 23.8011 30.6616 23.6395C31.1756 22.0804 31.7217 20.6011 32.2973 19.2079" fill="#5F5CF1" fill-opacity="0.1"/>
<path d="M34.9776 13.7155C34.1354 13.6121 33.3254 13.4879 32.5596 13.3438C31.5472 14.5485 30.5791 15.8696 29.6597 17.3002C30.6885 17.4939 31.7756 17.6607 32.9052 17.7988C33.5624 16.3283 34.2544 14.9646 34.9776 13.7155Z" fill="#5F5CF1" fill-opacity="0.1"/>
<path d="M37.9285 9.48905C37.4969 9.43607 37.0819 9.37266 36.6895 9.29883C35.6111 10.1414 34.5527 11.1264 33.5195 12.2503C34.1994 12.378 34.9174 12.4883 35.6641 12.5804C36.403 11.4113 37.1583 10.3794 37.9285 9.48992" fill="white" fill-opacity="0.5"/>
<path d="M41.0262 6.72754C39.9044 7.18877 38.7957 7.79765 37.7061 8.54986C38.0065 8.60632 38.3242 8.65496 38.655 8.69579C39.4339 7.89494 40.2257 7.23741 41.0262 6.72754Z" fill="#5F5CF1" fill-opacity="0.05"/>
<path d="M32.7693 77.7341C32.4524 77.6663 32.1451 77.5951 31.8481 77.5195C32.2397 77.6151 32.7615 77.741 33.1548 77.8296L33.3233 77.8661C33.1383 77.8261 32.9534 77.7827 32.7693 77.7341Z" fill="white" fill-opacity="0.1"/>
<path d="M28.5995 75.7868C27.6088 75.5766 26.6807 75.3395 25.8315 75.0771C27.0471 75.8259 28.3277 76.4296 29.6683 76.8838C30.3012 77.0793 30.9924 77.2556 31.7312 77.4128C30.6373 77.0219 29.5919 76.4791 28.6004 75.7868" fill="#5F5CF1" fill-opacity="0.1"/>
<path d="M24.9822 72.3037C23.6989 72.031 22.4981 71.7244 21.3989 71.3848C21.4962 71.4907 21.5943 71.5958 21.6933 71.6992C22.6414 72.6937 23.6485 73.5719 24.7113 74.3328C25.6238 74.6142 26.6205 74.8696 27.685 75.0954C26.8176 74.3849 25.9954 73.5537 25.2218 72.6043C25.141 72.5053 25.0612 72.4054 24.9813 72.3037" fill="#5F5CF1" fill-opacity="0.05"/>
<path d="M22.0865 67.4694C20.5697 67.1472 19.1493 66.7841 17.8486 66.3828C18.6205 67.7995 19.4931 69.1067 20.462 70.3002C21.6142 70.6563 22.8731 70.9777 24.218 71.2635C23.4271 70.1161 22.716 68.8496 22.0865 67.4694Z" fill="white" fill-opacity="0.5"/>
<path d="M20.0435 61.4781C18.3609 61.1202 16.7859 60.7181 15.3438 60.2725C15.5122 60.8405 15.6937 61.4008 15.8881 61.9523C16.2658 63.0207 16.6878 64.0448 17.1549 65.022C18.4946 65.4354 19.9576 65.8098 21.5204 66.1416C21.1393 65.1861 20.7946 64.182 20.4872 63.1319C20.3283 62.589 20.1807 62.0383 20.0435 61.4772" fill="#5F5CF1" fill-opacity="0.05"/>
<path d="M18.9504 54.6304C17.1792 54.2542 15.52 53.8295 14.0015 53.3613C14.189 55.1993 14.4938 56.9782 14.9149 58.6885C16.3813 59.141 17.9832 59.5501 19.6937 59.9141C19.3507 58.2229 19.1024 56.4596 18.9496 54.6304" fill="white" fill-opacity="0.5"/>
<path d="M18.8462 47.1432C17.0654 46.7645 15.3976 46.3388 13.8712 45.8672C13.8104 46.8348 13.7792 47.8024 13.7774 48.7683C13.7757 49.7325 13.8035 50.6836 13.8608 51.6199C15.3871 52.0907 17.055 52.5172 18.8358 52.8959C18.7898 51.9622 18.7672 51.0128 18.7689 50.0486C18.7707 49.0827 18.7967 48.1143 18.8471 47.1432" fill="white" fill-opacity="0.1"/>
<path d="M19.7329 39.4893C18.0225 39.1253 16.4206 38.7162 14.9541 38.2637C14.5261 40.1868 14.2144 42.1194 14.019 44.0538C15.5376 44.5228 17.1959 44.9467 18.9671 45.3228C19.1269 43.3797 19.3822 41.4323 19.7321 39.4893" fill="#5F5CF1" fill-opacity="0.2"/>
<path d="M21.5859 31.9233C20.0231 31.5915 18.5601 31.2172 17.2213 30.8037C16.7489 32.018 16.3218 33.2558 15.9397 34.5161C15.7435 35.1641 15.5603 35.8129 15.3901 36.4644C16.8323 36.9091 18.4073 37.3121 20.0899 37.67C20.2288 37.0116 20.3782 36.3532 20.5388 35.6965C20.8514 34.4188 21.2004 33.1611 21.5859 31.9242" fill="#5F5CF1" fill-opacity="0.1"/>
<path d="M24.3067 24.8314C22.9618 24.5457 21.7037 24.2243 20.5507 23.8682C19.5765 25.5472 18.6979 27.2922 17.9199 29.0963C19.2197 29.4976 20.6401 29.8606 22.1569 30.1829C22.7925 28.3432 23.5097 26.5556 24.3058 24.8314" fill="white" fill-opacity="0.5"/>
<path d="M27.7935 18.4687C26.729 18.2428 25.7323 17.9875 24.8198 17.7061C23.7518 19.0003 22.7386 20.3848 21.7853 21.8562C21.6872 22.0082 21.5891 22.1602 21.4927 22.3131C22.5919 22.6527 23.7926 22.9593 25.0759 23.2321C25.1549 23.0749 25.2348 22.9177 25.3147 22.7613C26.0935 21.2456 26.9209 19.8124 27.7935 18.4687Z" fill="#5F5CF1" fill-opacity="0.1"/>
<path d="M31.8526 13.2028C31.1146 13.0456 30.4235 12.8693 29.7905 12.6738C28.4474 13.7987 27.1632 15.0434 25.9434 16.401C26.7925 16.6633 27.7198 16.9004 28.7104 17.1106C29.7063 15.6957 30.7551 14.3911 31.8517 13.2028" fill="#5F5CF1" fill-opacity="0.2"/>
<path d="M36.3273 9.22608C35.9488 9.1453 35.5954 9.05497 35.2707 8.95508C33.8398 9.7125 32.4359 10.6132 31.0649 11.6556C31.6258 11.8284 32.2388 11.9856 32.8935 12.1246C34.0126 11.018 35.1596 10.0504 36.3273 9.22608Z" fill="#5F5CF1" fill-opacity="0.05"/>
<path d="M41.0256 6.72754C39.5365 7.10017 38.0657 7.62046 36.6201 8.28755C36.8684 8.36398 37.1393 8.43347 37.4293 8.49514C38.6101 7.7603 39.8109 7.17053 41.0264 6.72841" fill="white" fill-opacity="0.1"/>
<path d="M25.0584 74.825C24.2596 74.5471 23.5442 74.2448 22.9277 73.9199C23.2308 74.0962 23.5364 74.2656 23.8463 74.4298L24.3282 74.6799C25.298 75.1603 25.3163 75.1698 25.865 75.4191C26.8574 75.8543 26.8965 75.8717 27.4895 76.1071C27.914 76.2695 28.4827 76.4814 28.9108 76.6352C27.5667 76.167 26.2809 75.5624 25.0575 74.8259" fill="#5F5CF1" fill-opacity="0.05"/>
<path d="M20.3977 71.0565C19.3636 70.6969 18.438 70.306 17.6401 69.8848C17.7565 69.9986 17.8728 70.1106 17.9909 70.2218C19.1214 71.2893 20.3239 72.2456 21.5915 73.0873C22.254 73.4365 23.0224 73.7613 23.8802 74.0601C22.7628 73.2819 21.7035 72.3863 20.7068 71.3762C20.6026 71.2711 20.4993 71.1642 20.3977 71.0565Z" fill="#5F5CF1" fill-opacity="0.2"/>
<path d="M16.6654 65.9957C15.4429 65.5709 14.3481 65.108 13.4043 64.6094C14.3255 66.0851 15.3665 67.4601 16.5221 68.7283C17.3583 69.1695 18.329 69.5795 19.4125 69.9565C18.3941 68.7474 17.4763 67.4245 16.6654 65.9948" fill="#5F5CF1" fill-opacity="0.2"/>
<path d="M14.0312 59.8431C12.675 59.3714 11.4612 58.8581 10.4141 58.3057C10.6146 58.8868 10.8317 59.4609 11.0635 60.0281C11.5141 61.1251 12.0186 62.1822 12.576 63.1959C13.5475 63.7092 14.6763 64.1861 15.9352 64.6239C15.4438 63.638 14.9992 62.607 14.6033 61.5325C14.3984 60.9775 14.2074 60.4146 14.0312 59.8431Z" fill="white" fill-opacity="0.1"/>
<path d="M12.6201 52.9092C11.1919 52.4124 9.91381 51.8721 8.81201 51.291C9.03689 53.1437 9.40068 54.9461 9.90339 56.6894C10.9679 57.2514 12.2025 57.7725 13.5813 58.252C13.1385 56.5339 12.8181 54.7507 12.621 52.9092" fill="#5F5CF1" fill-opacity="0.2"/>
<path d="M12.4821 45.413C11.0469 44.9136 9.76107 44.3707 8.65319 43.7861C8.58113 44.7494 8.54379 45.7144 8.54206 46.6803C8.54032 47.6445 8.57331 48.5973 8.6419 49.5389C9.74978 50.1234 11.0348 50.6672 12.4708 51.1658C12.4109 50.2285 12.3814 49.2766 12.3832 48.3124C12.3849 47.3465 12.4179 46.3798 12.4821 45.413Z" fill="#5F5CF1" fill-opacity="0.1"/>
<path d="M13.6205 37.8263C12.2418 37.3468 11.0071 36.8248 9.94267 36.2637C9.43302 38.1537 9.06141 40.0638 8.82959 41.9825C9.93139 42.5645 11.2103 43.1048 12.6377 43.6007C12.8426 41.6698 13.1699 39.7424 13.6197 37.8263" fill="#5F5CF1" fill-opacity="0.05"/>
<path d="M16.002 30.4055C14.7422 29.9677 13.6144 29.4909 12.6428 28.9775C12.0802 30.1554 11.5705 31.361 11.1156 32.5918C10.8812 33.2241 10.6632 33.8599 10.4609 34.4975C11.5072 35.0499 12.7218 35.5633 14.0772 36.034C14.256 35.3861 14.4479 34.7398 14.6545 34.0953C15.0565 32.8419 15.5054 31.6111 16.0012 30.4047" fill="#5F5CF1" fill-opacity="0.05"/>
<path d="M19.5017 23.5251C18.4181 23.1481 17.4474 22.7381 16.6113 22.2969C15.4496 23.9012 14.4025 25.5793 13.4761 27.3235C14.4199 27.8212 15.5147 28.2841 16.7372 28.7089C17.5551 26.9187 18.478 25.1876 19.5025 23.5251" fill="white" fill-opacity="0.1"/>
<path d="M23.99 17.4347C23.1322 17.1368 22.3638 16.812 21.7014 16.4619C20.4277 17.6736 19.2199 18.9817 18.0834 20.3793C17.9662 20.5235 17.8499 20.6685 17.7344 20.8145C18.5323 21.2357 19.4578 21.6266 20.4919 21.9862C20.5935 21.8351 20.6959 21.6839 20.7993 21.5337C21.8012 20.0788 22.8665 18.7107 23.9892 17.4339" fill="#5F5CF1" fill-opacity="0.2"/>
<path d="M29.2156 12.4846C28.6208 12.2779 28.0877 12.0529 27.6284 11.8105C26.0265 12.832 24.4949 13.9786 23.0415 15.2424C23.658 15.5672 24.3725 15.8695 25.1713 16.1475C26.4528 14.8107 27.8029 13.5877 29.2156 12.4854" fill="white" fill-opacity="0.5"/>
<path d="M34.9766 8.8584C34.6718 8.75243 34.3992 8.63691 34.1639 8.5127C32.4578 9.1598 30.7838 9.9537 29.1489 10.8901C29.5561 11.1046 30.0285 11.3044 30.5555 11.4877C31.9968 10.4688 33.4728 9.59063 34.9766 8.85753" fill="#5F5CF1" fill-opacity="0.05"/>
<path d="M41.0257 6.72754C39.2501 6.98551 37.4963 7.39376 35.772 7.94879C35.9517 8.04347 36.1609 8.13207 36.3945 8.21371C37.9148 7.57182 39.4611 7.07498 41.0266 6.72754" fill="#5F5CF1" fill-opacity="0.1"/>
<path d="M16.933 69.4828C16.4086 69.1606 15.9753 68.834 15.6289 68.5039L16.0752 68.9226C16.5834 69.3824 16.9703 69.7252 17.236 69.951C17.7651 70.3911 18.1685 70.7191 18.4463 70.9351C18.9974 71.3549 19.4179 71.6685 19.7079 71.8758C20.0239 72.0964 20.4468 72.3883 20.7672 72.6028C20.8436 72.6532 20.9234 72.7036 21.0051 72.754C19.6984 71.8897 18.4602 70.9125 17.2951 69.8259C17.1735 69.7121 17.0528 69.5983 16.933 69.4828Z" fill="white" fill-opacity="0.5"/>
<path d="M12.5683 64.1336C11.7339 63.6211 11.0931 63.0973 10.6382 62.5684C11.1852 63.3822 11.865 64.3959 13.1248 65.8673C13.3592 66.134 13.6718 66.4884 13.9097 66.7507L14.2101 67.0738C14.6008 67.4898 15.1235 67.9016 15.7816 68.3055C14.5904 67.0182 13.5181 65.6241 12.5692 64.1327" fill="white" fill-opacity="0.5"/>
<path d="M9.48678 57.7784C8.56124 57.2095 7.85015 56.6293 7.3457 56.043C7.56624 56.6388 7.805 57.2295 8.06113 57.814C8.5569 58.945 9.11257 60.0394 9.72642 61.0947C10.1953 61.6394 10.8551 62.1788 11.7156 62.7069C11.1417 61.6837 10.6216 60.6179 10.1571 59.513C9.91743 58.9424 9.69429 58.3647 9.48765 57.7793" fill="white" fill-opacity="0.5"/>
<path d="M7.83441 50.7348C6.85938 50.1363 6.11095 49.5239 5.57959 48.9072C5.82704 50.7773 6.22817 52.6066 6.78123 54.3872C7.29437 54.9831 8.01674 55.5737 8.95878 56.1522C8.44131 54.4003 8.06536 52.5918 7.83441 50.7348Z" fill="white" fill-opacity="0.1"/>
<path d="M7.6713 43.2267C6.69106 42.6248 5.93916 42.0098 5.40433 41.3896C5.32532 42.3477 5.28451 43.3101 5.28277 44.276C5.28104 45.2402 5.3175 46.1956 5.39304 47.1424C5.92701 47.7626 6.67977 48.3775 7.66002 48.9795C7.58969 48.037 7.55496 47.0833 7.5567 46.1192C7.55843 45.1533 7.59663 44.1892 7.6713 43.2267Z" fill="#5F5CF1" fill-opacity="0.05"/>
<path d="M8.99866 35.7279C8.05749 35.1494 7.33425 34.5588 6.82198 33.9629C6.26197 35.8156 5.85303 37.6979 5.59863 39.6001C6.13 40.2168 6.87842 40.8292 7.85345 41.4276C8.09222 39.5124 8.47511 37.6093 8.99953 35.7279" fill="#5F5CF1" fill-opacity="0.2"/>
<path d="M11.7807 28.4871C10.9211 27.959 10.2604 27.4196 9.7924 26.875C9.17334 28.0111 8.61332 29.1794 8.11235 30.3763C7.85448 30.9913 7.61485 31.6106 7.39258 32.2343C7.89703 32.8206 8.60811 33.4008 9.53366 33.9697C9.74204 33.3357 9.96691 32.7033 10.2083 32.0753C10.6771 30.8523 11.2024 29.6563 11.7815 28.488" fill="#5F5CF1" fill-opacity="0.05"/>
<path d="M15.8698 21.8745C15.1301 21.4202 14.5622 20.9555 14.1585 20.4873C12.8805 22.0056 11.7283 23.6064 10.709 25.282C11.1639 25.8101 11.8047 26.3339 12.6391 26.8463C13.5941 25.1187 14.6725 23.4579 15.8698 21.8736" fill="#5F5CF1" fill-opacity="0.2"/>
<path d="M21.1141 16.1282C20.5281 15.7686 20.0783 15.4012 19.7597 15.0303C18.3583 16.1482 17.0299 17.3659 15.7788 18.6801C15.6494 18.8156 15.5218 18.952 15.395 19.0892C15.7797 19.5357 16.3214 19.9787 17.0273 20.4121C17.1463 20.2688 17.2661 20.1255 17.3868 19.983C18.558 18.6046 19.8022 17.3182 21.1141 16.1282Z" fill="white" fill-opacity="0.1"/>
<path d="M27.2214 11.5791C26.815 11.3299 26.5033 11.0745 26.2819 10.8174C24.5194 11.7207 22.8342 12.7526 21.2349 13.9096C21.5318 14.2544 21.9503 14.5967 22.4955 14.9319C23.9933 13.6933 25.5709 12.5737 27.2214 11.5791Z" fill="#5F5CF1" fill-opacity="0.1"/>
<path d="M33.9546 8.39488C33.7462 8.2672 33.5865 8.13604 33.4736 8.00488C31.5965 8.52604 29.7541 9.19487 27.9551 10.0113C28.1513 10.2389 28.4274 10.4656 28.7877 10.6863C30.4721 9.7777 32.1973 9.01246 33.9546 8.39488Z" fill="white" fill-opacity="0.5"/>
<path d="M41.0256 6.72754C39.0721 6.85349 37.1411 7.13144 35.2432 7.55966C35.33 7.66042 35.4524 7.76031 35.6113 7.85846C37.3886 7.33295 39.1954 6.95511 41.0248 6.72841" fill="white" fill-opacity="0.1"/>
<path d="M6.93237 55.4921C6.7865 55.2645 6.67103 55.0361 6.58594 54.8076L6.79605 55.3548C7.05189 55.9872 7.24927 56.4609 7.38819 56.7759C7.66082 57.3775 7.87035 57.8274 8.0168 58.1257C8.31316 58.7152 8.54035 59.1558 8.69837 59.4477C8.86507 59.7491 9.08908 60.1495 9.26099 60.4483C9.28703 60.4926 9.31395 60.5378 9.3426 60.5821C8.72181 59.5163 8.15919 58.4132 7.65735 57.2744C7.39774 56.6864 7.15637 56.0923 6.93323 55.4921" fill="#5F5CF1" fill-opacity="0.05"/>
<path d="M5.1454 48.3273C4.85107 47.8669 4.67482 47.4057 4.6123 46.9453C4.65919 47.265 4.72083 47.6906 4.77206 48.0093C4.88898 48.6747 4.98218 49.1738 5.05163 49.5068C5.19634 50.1669 5.31037 50.6618 5.39372 50.9913C5.56621 51.645 5.70108 52.1352 5.79832 52.4618L5.9546 52.9734C6.04403 53.2583 6.17948 53.5432 6.36181 53.8281C5.80179 52.0379 5.39546 50.2017 5.1454 48.3281" fill="#5F5CF1" fill-opacity="0.05"/>
<path d="M4.96754 40.8066C4.56902 40.1838 4.38582 39.5576 4.40752 38.9365C4.34154 39.8182 4.33286 39.9319 4.30507 40.6294C4.29552 41.0142 4.28423 41.5267 4.28076 41.9115C4.28655 42.5948 4.2961 43.1075 4.30941 43.4498C4.34299 44.129 4.37337 44.6389 4.40058 44.9794L4.40405 45.0193C4.44573 45.5318 4.62806 46.046 4.95625 46.5585C4.87985 45.6108 4.84251 44.6545 4.84425 43.6904C4.84599 42.7245 4.88679 41.763 4.96754 40.8058" fill="#5F5CF1" fill-opacity="0.2"/>
<path d="M6.40199 33.4027C6.01909 32.8042 5.84284 32.2032 5.86454 31.6064C5.2889 33.421 4.86867 35.2754 4.60733 37.1603C4.58476 37.7779 4.76709 38.4006 5.16387 39.0199C5.42174 37.1221 5.83502 35.2459 6.40199 33.4027Z" fill="#5F5CF1" fill-opacity="0.1"/>
<path d="M9.40861 26.3634C9.05871 25.8171 8.89809 25.2681 8.91806 24.7227C8.28164 25.8162 7.70599 26.9463 7.19113 28.1085C6.92632 28.7061 6.67973 29.3089 6.45139 29.9169C6.43055 30.5032 6.60333 31.0947 6.98015 31.6836C7.20502 31.0643 7.44813 30.4485 7.7086 29.8378C8.21565 28.6487 8.78348 27.49 9.40948 26.3643" fill="white" fill-opacity="0.5"/>
<path d="M13.8296 20.0482C13.5283 19.5783 13.3902 19.1058 13.4067 18.6367C12.0931 20.0664 10.9088 21.5882 9.85996 23.1943C9.84086 23.7232 9.99714 24.2566 10.3366 24.7864C11.369 23.1274 12.535 21.5457 13.8287 20.0482" fill="white" fill-opacity="0.5"/>
<path d="M19.4985 14.6814C19.2606 14.3087 19.1503 13.9352 19.1642 13.5635C17.7238 14.585 16.3581 15.7115 15.0722 16.9389C14.9394 17.0657 14.8083 17.1934 14.6771 17.321C14.6607 17.7684 14.7935 18.2192 15.08 18.6674C15.2085 18.5327 15.3379 18.3981 15.469 18.2643C16.7349 16.971 18.0807 15.7749 19.4985 14.6796" fill="#5F5CF1" fill-opacity="0.2"/>
<path d="M26.1006 10.5756C25.9356 10.3176 25.8592 10.0579 25.8688 9.80078C24.0568 10.5825 22.3246 11.4989 20.6802 12.5447C20.668 12.8904 20.7696 13.2387 20.991 13.5844C22.6103 12.4544 24.3164 11.4494 26.1006 10.5747" fill="white" fill-opacity="0.1"/>
<path d="M33.3805 7.88035C33.2963 7.74832 33.2572 7.61543 33.2616 7.4834C31.3315 7.87427 29.4379 8.41714 27.5885 9.10942C27.5807 9.33786 27.6475 9.56804 27.7943 9.79648C29.6158 9.0104 31.4808 8.37111 33.3805 7.88122" fill="#5F5CF1" fill-opacity="0.05"/>
<path d="M41.0258 6.72791C39.0175 6.71922 37.0328 6.86428 35.0818 7.16047C35.0783 7.26123 35.1079 7.36285 35.173 7.46448C37.0944 7.0684 39.0488 6.82172 41.0267 6.72791" fill="white" fill-opacity="0.1"/>
<path d="M5.94149 31.0491C5.95798 30.9813 5.97708 30.9136 5.99792 30.8467L5.8373 31.3644C5.6486 32.0147 5.51171 32.5045 5.42662 32.834L5.31201 33.2918C5.49521 32.5378 5.70446 31.79 5.94062 31.0491" fill="white" fill-opacity="0.1"/>
<path d="M8.98843 24.2134C9.08567 23.9598 9.20375 23.6141 9.33572 23.377C9.16294 23.6775 8.93373 24.0788 8.76616 24.3819C8.45533 24.9639 8.22611 25.4043 8.07851 25.7031C7.79141 26.2978 7.58014 26.7474 7.44469 27.052C7.17322 27.6791 6.97411 28.1525 6.84734 28.4722L6.6381 29.0133C6.59295 29.1314 6.55648 29.2504 6.52783 29.3694C6.75618 28.7657 7.00189 28.1664 7.2667 27.5732C7.7807 26.4188 8.35548 25.2983 8.99016 24.2152" fill="#5F5CF1" fill-opacity="0.05"/>
<path d="M13.4686 18.198C13.5815 17.7316 13.8481 17.2712 14.2605 16.8213C14.1398 16.9481 14.0208 17.0758 13.9028 17.2052C13.6301 17.5084 13.2689 17.9157 13.0024 18.2241C12.5752 18.7366 12.2572 19.1263 12.0482 19.3932C11.6442 19.9207 11.3441 20.3212 11.1478 20.5945C10.9125 20.9289 10.6026 21.3771 10.3742 21.7159C10.1589 22.0398 10.0104 22.3682 9.92969 22.6991C10.9759 21.1104 12.1576 19.6078 13.4686 18.198Z" fill="#5F5CF1" fill-opacity="0.1"/>
<path d="M19.2129 13.217C19.3023 12.8479 19.5133 12.4831 19.8397 12.127C18.4436 13.0537 17.1195 14.0909 15.8736 15.2339C15.7451 15.3521 15.6175 15.4711 15.4907 15.5909C15.0974 16.02 14.843 16.4595 14.7354 16.9043C14.8656 16.7783 14.9967 16.6524 15.1295 16.5282C16.4128 15.3208 17.7759 14.2159 19.2129 13.217Z" fill="#5F5CF1" fill-opacity="0.05"/>
<path d="M25.9024 9.56037C25.9649 9.30413 26.1108 9.05137 26.3374 8.80469C24.5818 9.46743 22.9026 10.27 21.3086 11.2081C21.0047 11.539 20.8084 11.8787 20.7251 12.2226C22.3661 11.2029 24.0947 10.3134 25.9024 9.56124" fill="white" fill-opacity="0.1"/>
<path d="M33.2791 7.36005C33.3112 7.22889 33.3859 7.09947 33.5022 6.97266C31.632 7.23671 29.7966 7.65538 28.0037 8.22518C27.8031 8.44407 27.6737 8.66816 27.6182 8.89487C29.4632 8.23213 31.3533 7.71965 33.2791 7.35918" fill="white" fill-opacity="0.5"/>
<path d="M41.0257 6.72759C39.0791 6.58688 37.1559 6.60164 35.2649 6.76928C35.1763 6.8657 35.119 6.96559 35.0947 7.06548C37.0422 6.79968 39.0218 6.68677 41.0257 6.72672" fill="#5F5CF1" fill-opacity="0.05"/>
<path d="M20.1791 11.796C20.3875 11.6127 20.628 11.4321 20.898 11.2549C20.5768 11.4703 20.1487 11.7604 19.831 11.9819C19.0079 12.5769 18.9922 12.5882 18.5659 12.9174C17.7741 13.5428 17.7585 13.5549 17.3513 13.898C17.1724 14.0526 16.9319 14.2559 16.7539 14.4122C17.8392 13.4577 18.9818 12.5847 20.1782 11.796" fill="#5F5CF1" fill-opacity="0.05"/>
<path d="M26.5726 8.57564C26.8487 8.3333 27.2038 8.09791 27.6336 7.87207C26.3668 8.30811 25.1444 8.83448 23.9696 9.45032L23.9653 9.45292C23.585 9.65704 23.0806 9.93413 22.7037 10.1461C22.3703 10.358 21.9353 10.6568 21.6245 10.9009C23.1926 9.98798 24.8448 9.21145 26.5726 8.57651" fill="white" fill-opacity="0.5"/>
<path d="M33.6219 6.85559C33.7634 6.73138 33.9449 6.61064 34.1654 6.49512C32.4602 6.64104 30.7862 6.94245 29.1522 7.39846C28.7711 7.59824 28.4568 7.8067 28.2119 8.02212C29.9753 7.48011 31.7821 7.09011 33.6219 6.85559Z" fill="#5F5CF1" fill-opacity="0.05"/>
<path d="M41.0258 6.72757C39.2511 6.46352 37.4981 6.35581 35.7738 6.40358C35.6054 6.49218 35.4656 6.58425 35.3579 6.6798C37.2186 6.54082 39.1104 6.55646 41.0258 6.72757Z" fill="#5F5CF1" fill-opacity="0.05"/>
<path d="M28.0585 7.66482C28.4492 7.48589 28.8894 7.31477 29.3765 7.15234L28.7705 7.35994C27.785 7.71954 27.7051 7.74907 27.0713 8.00705C26.6528 8.18424 26.0971 8.42397 25.6821 8.60986C26.4549 8.25547 27.2467 7.94016 28.0576 7.66482" fill="#5F5CF1" fill-opacity="0.05"/>
<path d="M34.3836 6.38844C34.6276 6.27639 34.9098 6.17042 35.2267 6.07227C33.7854 6.11309 32.3702 6.31113 30.9888 6.66726C30.4392 6.8375 29.9521 7.02165 29.5293 7.21534C31.1121 6.78452 32.7322 6.5083 34.3836 6.3893" fill="#5F5CF1" fill-opacity="0.2"/>
<path d="M41.0256 6.72805C39.5253 6.35456 38.0432 6.13827 36.5854 6.08008C36.3423 6.15565 36.127 6.23643 35.9395 6.32242C37.6091 6.3007 39.3065 6.4362 41.0247 6.72805" fill="#5F5CF1" fill-opacity="0.2"/>
<path d="M35.535 5.98179C35.8745 5.88798 36.2495 5.80199 36.6576 5.72556C35.8276 5.69081 35.0097 5.74901 34.2048 5.90101L33.9157 5.9566C32.8617 6.17549 32.7523 6.19894 32.0151 6.38135L31.522 6.51077C32.8304 6.17636 34.1701 6.00003 35.535 5.98179Z" fill="white" fill-opacity="0.1"/>
<path d="M41.0258 6.72833C39.8962 6.26536 38.7797 5.96049 37.6813 5.81543C37.3688 5.87363 37.0822 5.93964 36.8218 6.01173C38.2023 6.09251 39.6054 6.33138 41.0258 6.72833Z" fill="#5F5CF1" fill-opacity="0.05"/>
<path d="M37.0498 5.65776C37.2303 5.62822 37.4161 5.60043 37.608 5.57437C37.872 5.53876 38.1394 5.50836 38.4094 5.48143C38.0612 5.42497 37.7166 5.41368 37.3762 5.44842C36.9864 5.49185 36.4663 5.55005 36.0773 5.59956C35.7569 5.64647 35.3298 5.70727 35.0103 5.75938C35.6805 5.64733 36.3612 5.61346 37.0506 5.65689" fill="#5F5CF1" fill-opacity="0.05"/>
<path d="M41.0265 6.72758C40.3492 6.20121 39.6807 5.83466 39.0226 5.62793C38.8159 5.64791 38.611 5.67223 38.4096 5.69915C38.2629 5.71913 38.1205 5.73998 37.9824 5.76256C38.9818 5.92499 39.9985 6.24637 41.0265 6.72758Z" fill="#5F5CF1" fill-opacity="0.1"/>
<path d="M41.0263 6.72752C40.8318 6.17162 40.6391 5.77641 40.4489 5.54102C40.0842 5.55057 39.7187 5.56881 39.3584 5.59747C39.9063 5.81376 40.4628 6.19073 41.0254 6.72752" fill="white" fill-opacity="0.1"/>
<path d="M41.0263 6.72833C41.3137 6.17677 41.5976 5.78503 41.8763 5.55398C41.5186 5.53922 41.1557 5.53314 40.791 5.53574C40.8683 5.77287 40.9473 6.16982 41.0263 6.72833Z" fill="#5F5CF1" fill-opacity="0.05"/>
<path d="M42.5708 5.40572C43.0318 5.43265 43.4833 5.47086 43.92 5.52037C44.3177 5.46739 44.711 5.46305 45.1 5.50734L44.7631 5.47086C43.6952 5.37184 43.6752 5.36924 43.0917 5.33536C42.9198 5.32494 42.7462 5.34926 42.5708 5.40572Z" fill="#5F5CF1" fill-opacity="0.2"/>
<path d="M41.0264 6.72816C41.7757 6.21134 42.5154 5.85521 43.2421 5.65804C42.9078 5.61982 42.5623 5.59116 42.2089 5.57031C41.8208 5.79615 41.4258 6.18181 41.0264 6.72816Z" fill="#5F5CF1" fill-opacity="0.1"/>
<path d="M44.3247 5.57021C44.751 5.62667 45.1591 5.69355 45.5455 5.77086C46.4423 5.74307 47.3262 5.81776 48.1936 5.99322C47.7204 5.90376 47.0883 5.78997 46.6125 5.71093L45.7799 5.59106C45.1973 5.52678 44.8986 5.52244 44.3247 5.57021Z" fill="#5F5CF1" fill-opacity="0.2"/>
<path d="M41.0264 6.72819C42.1959 6.27651 43.3506 5.9838 44.4863 5.85003C44.1911 5.79097 43.8785 5.73972 43.5521 5.69629C42.7238 5.88043 41.8807 6.2244 41.0264 6.72819Z" fill="#5F5CF1" fill-opacity="0.1"/>
<path d="M45.8999 5.84589C46.2706 5.92928 46.6162 6.02309 46.9305 6.12645C48.397 6.1803 49.8365 6.39224 51.2404 6.76053C50.8741 6.64066 50.4833 6.52774 50.0709 6.42264C49.7644 6.34794 49.3572 6.24632 49.0499 6.17596C48.0201 5.94231 46.9687 5.832 45.8999 5.84589Z" fill="#5F5CF1" fill-opacity="0.1"/>
<path d="M41.0264 6.72805C42.5545 6.36845 44.0635 6.16607 45.5464 6.12177C45.3059 6.04273 45.0411 5.9715 44.7572 5.90723C43.533 6.02188 42.2871 6.29549 41.0264 6.72805Z" fill="white" fill-opacity="0.5"/>
<path d="M53.1029 7.34657C53.6768 7.55851 54.1874 7.78869 54.6223 8.03624C56.1687 8.57912 57.649 9.25315 59.0582 10.054C58.7647 9.89157 58.3749 9.67529 58.0788 9.5172C57.122 9.02471 57.1038 9.01602 56.5663 8.76152C55.5878 8.31419 55.5496 8.29682 54.9722 8.05709C54.5876 7.90334 54.0745 7.70009 53.6872 7.5533C53.4936 7.4812 53.2983 7.41259 53.1021 7.3457" fill="#5F5CF1" fill-opacity="0.05"/>
<path d="M47.2163 6.22559C47.5106 6.33416 47.772 6.45229 47.9951 6.57911C49.7264 6.74588 51.4247 7.06726 53.0821 7.54412C52.6966 7.32523 52.2443 7.12111 51.7355 6.93263C50.263 6.54002 48.754 6.30463 47.2163 6.22559Z" fill="#5F5CF1" fill-opacity="0.05"/>
<path d="M41.0273 6.72798C42.8307 6.48564 44.6114 6.39878 46.3618 6.46827C46.1908 6.37099 45.9911 6.28065 45.7662 6.19727C44.2112 6.21637 42.6292 6.39357 41.0273 6.72711" fill="#5F5CF1" fill-opacity="0.05"/>
</g>
<path d="M81.6668 24.0079C81.668 25.1199 81.2612 26.1944 80.5223 27.031C79.7834 27.8676 78.7628 28.4092 77.6509 28.5549C77.4476 28.5806 77.2429 28.5938 77.038 28.5944H61.6495C61.3157 28.5937 60.9825 28.5664 60.653 28.5129C59.2385 28.2709 57.9643 27.5188 57.0756 26.4012C56.1869 25.2837 55.7465 23.8797 55.8393 22.4596C55.9321 21.0395 56.5514 19.7036 57.5781 18.709C58.6048 17.7145 59.9662 17.1316 61.4004 17.0725C62.1437 15.4724 63.3917 14.1552 64.9562 13.3198C66.5206 12.4844 68.3166 12.176 70.0733 12.4411C71.83 12.7063 73.4521 13.5306 74.695 14.7897C75.9378 16.0488 76.7339 17.6744 76.9633 19.4213H77.033C77.6412 19.4204 78.2436 19.5383 78.8057 19.7683C79.3679 19.9984 79.8788 20.3361 80.3091 20.7621C80.7395 21.1881 81.081 21.694 81.3139 22.251C81.5469 22.8079 81.6668 23.4049 81.6668 24.0079Z" fill="url(#paint1_linear_3027_22616)"/>
<path d="M3.41553 15.0251C3.41553 15.9422 3.78299 16.8217 4.43707 17.4702C5.09115 18.1186 5.97827 18.4829 6.90328 18.4829H18.4826C19.6235 18.477 20.717 18.0296 21.5301 17.2361C22.3432 16.4426 22.8116 15.3657 22.8356 14.2349C22.8597 13.104 22.4374 12.0085 21.6587 11.1818C20.8801 10.3551 19.8066 9.86241 18.667 9.80878C18.1049 8.60853 17.1653 7.6214 15.9892 6.9956C14.8132 6.36981 13.4641 6.1391 12.1445 6.33812C10.8249 6.53714 9.60605 7.15515 8.67088 8.09937C7.73572 9.04359 7.13471 10.2631 6.95809 11.5747H6.90577C5.98163 11.5741 5.09499 11.9371 4.44059 12.584C3.78618 13.2309 3.41751 14.1089 3.41553 15.0251Z" fill="url(#paint2_linear_3027_22616)"/>
<g filter="url(#filter0_f_3027_22616)">
<ellipse cx="41.0003" cy="49.2637" rx="15.1096" ry="3.20998" fill="#5858FC" fill-opacity="0.2"/>
</g>
<path fill-rule="evenodd" clip-rule="evenodd" d="M53.5481 35.2452C53.069 35.7917 52.2369 35.8499 51.6862 35.3683L43.3189 28.0472V49.9773C43.3189 50.0104 43.303 50.0382 43.3003 50.07C43.303 50.1216 43.3189 50.1679 43.3189 50.2195C43.3189 53.1238 40.3595 55.487 36.722 55.487C33.0844 55.487 30.125 53.1238 30.125 50.2195C30.125 47.3032 33.0844 44.9308 36.722 44.9308C38.2534 44.9308 39.6469 45.3687 40.7682 46.074V25.1058C40.7682 24.5871 40.9832 24.1518 41.4557 23.9375C41.9255 23.7244 42.4775 23.8065 42.869 24.1465L53.4247 33.3822C53.9728 33.8625 54.0285 34.6948 53.5481 35.2452ZM36.7219 47.5705C34.5774 47.5705 32.7645 48.7838 32.7645 50.2195C32.7645 51.6445 34.5774 52.8486 36.7219 52.8486C38.8678 52.8486 40.6806 51.6445 40.6806 50.2195C40.6806 48.7838 38.8678 47.5705 36.7219 47.5705Z" fill="url(#paint3_linear_3027_22616)"/>
<path d="M0.333502 59.2346C0.33295 60.342 0.7385 61.4119 1.47459 62.2448C2.21068 63.0777 3.22709 63.6169 4.33446 63.7619C4.53587 63.7897 4.73897 63.8037 4.94232 63.8039H20.2635C20.5974 63.8034 20.9306 63.7761 21.26 63.7224C22.6765 63.4886 23.9549 62.7415 24.8472 61.626C25.7395 60.5105 26.182 59.1062 26.0889 57.6856C25.9958 56.2649 25.3737 54.9292 24.3433 53.9375C23.3129 52.9459 21.9478 52.3691 20.5127 52.319C19.7716 50.7267 18.5285 49.4162 16.9709 48.5851C15.4132 47.754 13.6253 47.4474 11.8766 47.7113C10.1278 47.9752 8.51293 48.7954 7.27526 50.0484C6.03759 51.3013 5.24418 52.9191 5.01457 54.658H4.94232C4.33645 54.658 3.73653 54.7764 3.17688 55.0065C2.61722 55.2366 2.10882 55.5738 1.68075 55.9989C1.25268 56.424 0.913355 56.9286 0.68218 57.4838C0.451005 58.039 0.33252 58.634 0.333502 59.2346Z" fill="url(#paint4_linear_3027_22616)"/>
<path d="M69.6862 35.3049C69.4342 34.325 70.3464 33.4423 71.3284 33.7159C72.3105 33.9895 72.6257 35.2145 71.8957 35.9208C71.1658 36.6271 69.9382 36.2849 69.6862 35.3049Z" fill="url(#paint5_linear_3027_22616)"/>
<path d="M8.46838 35.3049C8.21638 34.325 9.12864 33.4423 10.1106 33.7159C11.0927 33.9895 11.4079 35.2145 10.678 35.9208C9.94802 36.6271 8.72042 36.2849 8.46838 35.3049Z" fill="url(#paint6_linear_3027_22616)"/>
<path d="M31.5034 4.42584C31.778 3.29794 33.384 3.29794 33.6586 4.42584C33.7563 4.82675 34.0702 5.13993 34.4715 5.23597C35.5967 5.50526 35.5967 7.10613 34.4715 7.37542C34.0702 7.47146 33.7563 7.78464 33.6586 8.18556C33.384 9.31345 31.778 9.31345 31.5034 8.18556C31.4058 7.78464 31.0918 7.47146 30.6905 7.37542C29.5653 7.10613 29.5653 5.50526 30.6905 5.23597C31.0918 5.13993 31.4058 4.82675 31.5034 4.42584Z" fill="url(#paint7_linear_3027_22616)"/>
<path d="M42.0654 71.9896C42.0654 72.2732 41.8304 72.5223 41.5167 72.5223C41.203 72.5223 40.968 72.2732 40.968 71.9896C40.968 71.7059 41.203 71.4568 41.5167 71.4568C41.8304 71.4568 42.0654 71.7059 42.0654 71.9896Z" stroke="url(#paint8_linear_3027_22616)" stroke-width="2.61276"/>
<path d="M68.5302 61.9649C68.8049 60.837 70.4109 60.837 70.6855 61.9649C70.7831 62.3658 71.0971 62.679 71.4983 62.775C72.6236 63.0443 72.6236 64.6452 71.4983 64.9145C71.0971 65.0105 70.7831 65.3237 70.6855 65.7246C70.4109 66.8525 68.8049 66.8525 68.5302 65.7246C68.4326 65.3237 68.1187 65.0105 67.7174 64.9145C66.5922 64.6452 66.5922 63.0443 67.7174 62.775C68.1187 62.679 68.4326 62.3658 68.5302 61.9649Z" fill="url(#paint9_linear_3027_22616)"/>
<mask id="path-223-inside-1_3027_22616" fill="white">
<ellipse cx="71.463" cy="50.971" rx="1.85509" ry="1.83916"/>
</mask>
<path d="M70.7053 50.971C70.7053 50.5226 71.0658 50.1974 71.463 50.1974V55.4229C73.9092 55.4229 75.9309 53.4509 75.9309 50.971H70.7053ZM71.463 50.1974C71.8602 50.1974 72.2207 50.5226 72.2207 50.971H66.9952C66.9952 53.4509 69.0168 55.4229 71.463 55.4229V50.1974ZM72.2207 50.971C72.2207 51.4194 71.8602 51.7446 71.463 51.7446V46.5191C69.0168 46.5191 66.9952 48.4911 66.9952 50.971H72.2207ZM71.463 51.7446C71.0658 51.7446 70.7053 51.4194 70.7053 50.971H75.9309C75.9309 48.4911 73.9092 46.5191 71.463 46.5191V51.7446Z" fill="url(#paint10_linear_3027_22616)" mask="url(#path-223-inside-1_3027_22616)"/>
<defs>
<filter id="filter0_f_3027_22616" x="5.20006" y="25.3631" width="71.6004" height="47.8011" filterUnits="userSpaceOnUse" color-interpolation-filters="sRGB">
<feFlood flood-opacity="0" result="BackgroundImageFix"/>
<feBlend mode="normal" in="SourceGraphic" in2="BackgroundImageFix" result="shape"/>
<feGaussianBlur stdDeviation="10.3453" result="effect1_foregroundBlur_3027_22616"/>
</filter>
<linearGradient id="paint0_linear_3027_22616" x1="40.6648" y1="-6.60656" x2="41.4159" y2="122.161" gradientUnits="userSpaceOnUse">
<stop stop-color="#6767EF" stop-opacity="0"/>
<stop offset="1" stop-color="#2A2ADE" stop-opacity="0.15"/>
</linearGradient>
<linearGradient id="paint1_linear_3027_22616" x1="78.8625" y1="19.5788" x2="61.8499" y2="16.4956" gradientUnits="userSpaceOnUse">
<stop stop-color="#F0F0FF"/>
<stop offset="1" stop-color="white" stop-opacity="0.7"/>
</linearGradient>
<linearGradient id="paint2_linear_3027_22616" x1="20.7289" y1="11.7045" x2="7.94196" y2="9.38795" gradientUnits="userSpaceOnUse">
<stop stop-color="#F0F0FF" stop-opacity="0.7"/>
<stop offset="1" stop-color="#FAFAFF"/>
</linearGradient>
<linearGradient id="paint3_linear_3027_22616" x1="52.6412" y1="53.2986" x2="23.955" y2="32.2153" gradientUnits="userSpaceOnUse">
<stop offset="0.0260417" stop-color="#FA7250"/>
<stop offset="0.401042" stop-color="#FF1893"/>
<stop offset="0.994792" stop-color="#A78AFF"/>
</linearGradient>
<linearGradient id="paint4_linear_3027_22616" x1="23.3046" y1="54.8221" x2="6.3405" y2="51.7448" gradientUnits="userSpaceOnUse">
<stop stop-color="white" stop-opacity="0.7"/>
<stop offset="1" stop-color="#F0F0FF"/>
</linearGradient>
<linearGradient id="paint5_linear_3027_22616" x1="69.1192" y1="33.1004" x2="72.7886" y2="36.8926" gradientUnits="userSpaceOnUse">
<stop stop-color="#CCCCFF"/>
<stop offset="1" stop-color="#9090FE"/>
</linearGradient>
<linearGradient id="paint6_linear_3027_22616" x1="7.90144" y1="33.1004" x2="11.5708" y2="36.8926" gradientUnits="userSpaceOnUse">
<stop stop-color="#CCCCFF"/>
<stop offset="1" stop-color="#9090FE"/>
</linearGradient>
<linearGradient id="paint7_linear_3027_22616" x1="32.581" y1="0" x2="32.581" y2="12.6114" gradientUnits="userSpaceOnUse">
<stop stop-color="#CCCCFF"/>
<stop offset="1" stop-color="#9090FE"/>
</linearGradient>
<linearGradient id="paint8_linear_3027_22616" x1="39.2365" y1="70.8401" x2="44.9907" y2="75.8703" gradientUnits="userSpaceOnUse">
<stop stop-color="#9494FF"/>
<stop offset="1" stop-color="#4C4CFE"/>
</linearGradient>
<linearGradient id="paint9_linear_3027_22616" x1="69.6079" y1="57.5391" x2="69.6079" y2="70.1504" gradientUnits="userSpaceOnUse">
<stop stop-color="#CCCCFF"/>
<stop offset="1" stop-color="#9090FE"/>
</linearGradient>
<linearGradient id="paint10_linear_3027_22616" x1="69.1828" y1="49.8215" x2="74.937" y2="54.8517" gradientUnits="userSpaceOnUse">
<stop stop-color="#9494FF"/>
<stop offset="1" stop-color="#4C4CFE"/>
</linearGradient>
<clipPath id="clip0_3027_22616">
<rect width="73.3333" height="73.3333" fill="white" transform="translate(4.28076 5.33301)"/>
</clipPath>
</defs>
</svg>
