<!-- Copyright (c) 2023 The Brave Authors. All rights reserved.
This Source Code Form is subject to the terms of the Mozilla Public
License, v. 2.0. If a copy of the MPL was not distributed with this file,
You can obtain one at https://mozilla.org/MPL/2.0/. -->

<svg width="80" height="96" viewBox="0 0 80 96" fill="none" xmlns="http://www.w3.org/2000/svg">
<g opacity="0.3">
<path d="M115.856 -33.2862C116.139 -32.8431 116.675 -32.4815 117.058 -32.4815C117.44 -32.4815 117.516 -32.8431 117.225 -33.2862C116.933 -33.7292 116.391 -34.0863 116.017 -34.0863C115.643 -34.0863 115.572 -33.7292 115.855 -33.2862L115.856 -33.2862Z" fill="#171553"/>
<path d="M109.747 -33.2862C110.067 -32.71 110.726 -32.2393 111.224 -32.2393C111.723 -32.2393 111.86 -32.71 111.527 -33.2862C111.193 -33.8623 110.525 -34.3257 110.041 -34.3257C109.556 -34.3257 109.427 -33.8623 109.747 -33.2862Z" fill="#171553"/>
<path d="M103.638 -33.2862C104.004 -32.5387 104.69 -32.0144 105.353 -31.9967C105.956 -31.9803 106.187 -32.5982 105.829 -33.2862C105.449 -34.015 104.764 -34.5443 104.104 -34.5643C103.522 -34.582 103.301 -33.9754 103.638 -33.2862L103.638 -33.2862Z" fill="#171553"/>
<path d="M97.5283 -33.2862C97.8946 -32.3847 98.6815 -31.7713 99.4412 -31.7536C100.162 -31.7372 100.491 -32.4701 100.13 -33.2862C99.7425 -34.1608 98.9596 -34.7819 98.2044 -34.8024C97.5156 -34.821 97.1962 -34.1031 97.5283 -33.2862Z" fill="#171553"/>
<path d="M91.4194 -33.2862C91.7724 -32.2243 92.6539 -31.5491 93.4922 -31.51C94.2206 -31.4764 94.7953 -32.3279 94.4318 -33.2862C94.0456 -34.3039 93.1841 -35.0019 92.3454 -35.0409C91.6247 -35.0746 91.1109 -34.2153 91.4198 -33.2862L91.4194 -33.2862Z" fill="#171553"/>
<path d="M85.3104 -33.2862C85.6016 -32.0612 86.5835 -31.2983 87.505 -31.2665C88.3233 -31.2383 89.0662 -32.1402 88.7336 -33.2862C88.3924 -34.4612 87.4468 -35.2472 86.5258 -35.2781C85.7152 -35.3054 85.0482 -34.3875 85.3104 -33.2862Z" fill="#171553"/>
<path d="M79.2014 -33.2862C79.4018 -31.9031 80.4864 -31.0389 81.4792 -31.022C82.3934 -31.007 83.3084 -31.958 83.0349 -33.2862C82.7632 -34.6047 81.7441 -35.4953 80.7458 -35.5153C79.8398 -35.5335 79.016 -34.5625 79.201 -33.2862L79.2014 -33.2862Z" fill="#171553"/>
<path d="M73.0924 -33.2862C73.176 -31.7522 74.3479 -30.7849 75.4161 -30.7776C76.4375 -30.7708 77.5175 -31.7731 77.3372 -33.2862C77.1631 -34.7451 76.0672 -35.7438 75.0067 -35.752C73.993 -35.7597 73.0147 -34.7206 73.0929 -33.2862L73.0924 -33.2862Z" fill="#171553"/>
<path d="M71.6389 -33.2862C71.5817 -34.8751 70.4362 -35.9883 69.3071 -35.9883C68.1794 -35.9883 67.0357 -34.8755 66.9835 -33.2862C66.9285 -31.6036 68.1735 -30.5327 69.3153 -30.5327C70.4562 -30.5327 71.6994 -31.605 71.6389 -33.2862Z" fill="#171553"/>
<path d="M22.5499 -33.2862C22.833 -33.7292 22.7621 -34.0863 22.3882 -34.0863C22.0142 -34.0863 21.4722 -33.7292 21.1809 -33.2862C20.8897 -32.8431 20.966 -32.4815 21.3481 -32.4815C21.7303 -32.4815 22.2669 -32.8431 22.5499 -33.2862Z" fill="#171553"/>
<path d="M28.6594 -33.2862C28.9792 -33.8623 28.8497 -34.3257 28.3654 -34.3253C27.881 -34.3253 27.2136 -33.8623 26.8796 -33.2862C26.5456 -32.71 26.6833 -32.2393 27.1818 -32.2393C27.6802 -32.2393 28.3399 -32.71 28.6598 -33.2862L28.6594 -33.2862Z" fill="#171553"/>
<path d="M34.7683 -33.2862C35.1059 -33.975 34.8837 -34.5816 34.3031 -34.5643C33.6433 -34.5443 32.9572 -34.015 32.5778 -33.2862C32.2193 -32.5982 32.4506 -31.9808 33.054 -31.9967C33.7169 -32.0144 34.4026 -32.5387 34.7688 -33.2862L34.7683 -33.2862Z" fill="#171553"/>
<path d="M40.8773 -33.2862C41.2094 -34.1031 40.8905 -34.821 40.2017 -34.8024C39.4465 -34.7819 38.6636 -34.1608 38.2761 -33.2862C37.9144 -32.4706 38.2438 -31.7372 38.9649 -31.7536C39.7246 -31.7708 40.5115 -32.3842 40.8778 -33.2862L40.8773 -33.2862Z" fill="#171553"/>
<path d="M46.9863 -33.2862C47.2953 -34.2153 46.7814 -35.0741 46.0603 -35.0409C45.2215 -35.0018 44.3605 -34.3035 43.9738 -33.2866C43.6103 -32.3288 44.1851 -31.4769 44.913 -31.5105C45.7513 -31.5496 46.6328 -32.2238 46.9858 -33.2866L46.9863 -33.2862Z" fill="#171553"/>
<path d="M53.0957 -33.2862C53.3579 -34.3871 52.6909 -35.3058 51.8803 -35.2781C50.9593 -35.2468 50.0137 -34.4612 49.6725 -33.2862C49.3399 -32.1402 50.0828 -31.2383 50.9011 -31.2665C51.8226 -31.2983 52.804 -32.0616 53.0957 -33.2862Z" fill="#171553"/>
<path d="M59.2047 -33.2862C59.3892 -34.562 58.5658 -35.5335 57.6598 -35.5153C56.662 -35.4957 55.6424 -34.6052 55.3707 -33.2862C55.0968 -31.9571 56.0128 -31.007 56.9269 -31.022C57.9202 -31.0389 59.0048 -31.9031 59.2052 -33.2862L59.2047 -33.2862Z" fill="#171553"/>
<path d="M65.3132 -33.2862C65.3914 -34.7211 64.4131 -35.7602 63.3994 -35.752C62.3394 -35.7438 61.243 -34.746 61.069 -33.2862C60.8881 -31.7722 61.9691 -30.7708 62.99 -30.7776C64.0583 -30.7849 65.2301 -31.7522 65.3137 -33.2862L65.3132 -33.2862Z" fill="#171553"/>
<path d="M107.515 -24.2974C107.854 -23.4791 108.587 -22.9506 109.279 -22.9361C109.951 -22.922 110.271 -23.5745 109.952 -24.2974C109.598 -25.0994 108.868 -25.6323 108.177 -25.6487C107.525 -25.6637 107.214 -25.0212 107.515 -24.2974Z" fill="#171553"/>
<path d="M100.718 -24.2974C101.07 -23.306 101.921 -22.7171 102.705 -22.6798C103.363 -22.649 103.966 -23.3873 103.612 -24.2974C103.238 -25.2607 102.397 -25.8631 101.613 -25.9009C100.957 -25.9322 100.402 -25.1875 100.718 -24.2974Z" fill="#171553"/>
<path d="M93.9211 -24.2974C94.2401 -23.1374 95.2152 -22.4563 96.0962 -22.4231C96.8527 -22.3945 97.6147 -23.2056 97.273 -24.2974C96.9199 -25.4247 95.9658 -26.1194 95.0843 -26.1526C94.3305 -26.1812 93.6299 -25.3579 93.9216 -24.2974L93.9211 -24.2974Z" fill="#171553"/>
<path d="M87.1242 -24.2974C87.3905 -22.9684 88.4778 -22.1878 89.4538 -22.1664C90.3121 -22.1478 91.244 -23.0193 90.9327 -24.2974C90.6197 -25.5837 89.566 -26.3816 88.59 -26.4043C87.7349 -26.4243 86.8761 -25.5351 87.1242 -24.2974Z" fill="#171553"/>
<path d="M80.3273 -24.2974C80.5077 -22.7994 81.7268 -21.9229 82.7778 -21.9088C83.7456 -21.8956 84.8388 -22.8312 84.5925 -24.2974C84.3499 -25.7409 83.1808 -26.641 82.1307 -26.6551C81.167 -26.6683 80.157 -25.7109 80.3269 -24.2974L80.3273 -24.2974Z" fill="#171553"/>
<path d="M73.5305 -24.2974C73.6095 -22.6308 74.9349 -21.6571 76.069 -21.6512C77.1531 -21.6453 78.4176 -22.6471 78.2527 -24.2974C78.0932 -25.8963 76.8382 -26.8996 75.7073 -26.9064C74.6287 -26.9127 73.455 -25.8822 73.5305 -24.2974Z" fill="#171553"/>
<path d="M71.9129 -24.2974C71.8611 -26.0508 70.5234 -27.1567 69.3194 -27.1567C68.1158 -27.1567 66.7808 -26.0494 66.7331 -24.2974C66.6831 -22.464 68.1158 -21.3931 69.3266 -21.3931C70.5362 -21.3931 71.9674 -22.4627 71.9129 -24.2974Z" fill="#171553"/>
<path d="M30.8912 -24.2974C31.1916 -25.0208 30.8812 -25.6637 30.2292 -25.6487C29.5386 -25.6328 28.8075 -25.0994 28.454 -24.2974C28.135 -23.5745 28.4554 -22.9225 29.1269 -22.9361C29.8189 -22.9502 30.5518 -23.4791 30.8912 -24.2974Z" fill="#171553"/>
<path d="M37.6881 -24.2974C38.0034 -25.1875 37.4491 -25.9322 36.7925 -25.9009C36.0083 -25.8632 35.1677 -25.2607 34.7933 -24.2974C34.4398 -23.3873 35.0428 -22.649 35.7012 -22.6799C36.4845 -22.7167 37.3364 -23.3055 37.6876 -24.2974L37.6881 -24.2974Z" fill="#171553"/>
<path d="M44.4845 -24.2974C44.7762 -25.3583 44.0756 -26.1812 43.3218 -26.1526C42.4399 -26.1194 41.4866 -25.4242 41.1331 -24.2974C40.791 -23.206 41.5534 -22.395 42.3095 -22.4231C43.19 -22.4563 44.1656 -23.1369 44.4845 -24.2974Z" fill="#171553"/>
<path d="M51.2819 -24.2974C51.5295 -25.5337 50.6712 -26.4243 49.8161 -26.4043C48.8401 -26.3811 47.7869 -25.5842 47.4734 -24.2974C47.1617 -23.0184 48.094 -22.1478 48.9523 -22.1664C49.9283 -22.1878 51.0161 -22.9693 51.2819 -24.2974Z" fill="#171553"/>
<path d="M58.0783 -24.2974C58.2482 -25.7109 57.2386 -26.6683 56.2749 -26.6551C55.2249 -26.641 54.0553 -25.7405 53.8127 -24.2974C53.566 -22.8316 54.6601 -21.8961 55.6279 -21.9088C56.6789 -21.9229 57.8984 -22.7994 58.0783 -24.2974Z" fill="#171553"/>
<path d="M64.8752 -24.2974C64.9502 -25.8813 63.7779 -26.9127 62.6983 -26.9064C61.5674 -26.8996 60.3129 -25.8968 60.153 -24.2974C59.988 -22.6467 61.253 -21.6453 62.3371 -21.6512C63.4712 -21.6571 64.797 -22.6317 64.8752 -24.2974Z" fill="#171553"/>
<path d="M125.705 -14.8475C125.921 -14.3572 126.468 -13.9587 126.929 -13.9587C127.39 -13.9587 127.586 -14.3576 127.363 -14.8475C127.141 -15.3377 126.588 -15.733 126.134 -15.733C125.68 -15.733 125.489 -15.3377 125.706 -14.8475L125.705 -14.8475Z" fill="#171553"/>
<path d="M118.306 -14.8475C118.595 -14.1391 119.237 -13.702 119.832 -13.6911C120.425 -13.6802 120.722 -14.235 120.462 -14.8475C120.164 -15.5463 119.522 -15.9861 118.927 -15.9979C118.346 -16.0093 118.056 -15.4604 118.306 -14.8475Z" fill="#171553"/>
<path d="M110.907 -14.8475C111.215 -13.9674 111.991 -13.4344 112.706 -13.4235C113.438 -13.4121 113.84 -14.0941 113.56 -14.8475C113.239 -15.7139 112.464 -16.2501 111.751 -16.2628C111.036 -16.2755 110.644 -15.6017 110.907 -14.8475Z" fill="#171553"/>
<path d="M103.509 -14.8475C103.818 -13.7838 104.741 -13.1867 105.551 -13.1558C106.23 -13.13 106.98 -13.8388 106.66 -14.8475C106.329 -15.8902 105.417 -16.4955 104.605 -16.5268C103.926 -16.5532 103.222 -15.8362 103.509 -14.8475L103.509 -14.8475Z" fill="#171553"/>
<path d="M96.1098 -14.8475C96.3879 -13.6111 97.4511 -12.915 98.3653 -12.8873C99.1554 -12.8632 100.062 -13.6597 99.7579 -14.8475C99.448 -16.0565 98.4044 -16.7631 97.4884 -16.7912C96.6987 -16.8153 95.8485 -16.0079 96.1094 -14.8475L96.1098 -14.8475Z" fill="#171553"/>
<path d="M88.7109 -14.8475C88.9408 -13.4257 90.144 -12.6351 91.1513 -12.6188C92.0496 -12.6042 93.1305 -13.4562 92.8565 -14.8475C92.5835 -16.2324 91.4103 -17.038 90.4029 -17.0548C89.5056 -17.0698 88.4919 -16.2019 88.7109 -14.8475Z" fill="#171553"/>
<path d="M81.312 -14.8475C81.4746 -13.2458 82.8059 -12.3589 83.9082 -12.3503C84.9233 -12.3421 86.1778 -13.2658 85.9547 -14.8475C85.7357 -16.4023 84.4489 -17.3083 83.3475 -17.3183C82.3338 -17.3274 81.1557 -16.3832 81.3115 -14.8475L81.312 -14.8475Z" fill="#171553"/>
<path d="M73.9135 -14.8475C73.9794 -13.0663 75.4524 -12.0858 76.637 -12.0808C77.7783 -12.0763 79.196 -13.075 79.0542 -14.8475C78.9161 -16.5709 77.5071 -17.5764 76.3239 -17.5814C75.1844 -17.5859 73.8499 -16.5627 73.9135 -14.8475Z" fill="#171553"/>
<path d="M72.1528 -14.8475C72.106 -16.7363 70.6011 -17.844 69.3307 -17.844C68.0612 -17.844 66.5573 -16.7363 66.5146 -14.8475C66.4705 -12.8891 68.0644 -11.8118 69.3366 -11.8118C70.608 -11.8118 72.201 -12.8896 72.1528 -14.8475Z" fill="#171553"/>
<path d="M42.2963 -14.8475C42.5571 -16.0075 41.7074 -16.8158 40.9173 -16.7912C40.0008 -16.7626 38.9576 -16.0565 38.6477 -14.8475C38.3438 -13.6607 39.2498 -12.8632 40.0399 -12.8873C40.9541 -12.915 42.0182 -13.6111 42.2959 -14.8475L42.2963 -14.8475Z" fill="#171553"/>
<path d="M49.6948 -14.8475C49.9138 -16.2019 48.9005 -17.0698 48.0027 -17.0548C46.9949 -17.038 45.8217 -16.2319 45.5487 -14.8475C45.2747 -13.4566 46.3556 -12.6047 47.2539 -12.6188C48.2612 -12.6347 49.4649 -13.4262 49.6943 -14.8475L49.6948 -14.8475Z" fill="#171553"/>
<path d="M57.0937 -14.8475C57.2496 -16.3837 56.0718 -17.3274 55.0581 -17.3183C53.9563 -17.3083 52.6691 -16.4023 52.4505 -14.8475C52.2279 -13.2658 53.4824 -12.3421 54.4975 -12.3503C55.5993 -12.3593 56.9315 -13.2458 57.0937 -14.8475Z" fill="#171553"/>
<path d="M64.4922 -14.8475C64.5558 -16.5632 63.2209 -17.5859 62.0822 -17.5814C60.8986 -17.5764 59.4905 -16.5709 59.3519 -14.8475C59.2092 -13.075 60.6282 -12.0763 61.7691 -12.0808C62.9537 -12.0858 64.4267 -13.0654 64.4926 -14.8475L64.4922 -14.8475Z" fill="#171553"/>
<path d="M121.729 -4.99676C121.984 -4.24388 122.655 -3.80496 123.261 -3.79678C123.896 -3.78815 124.259 -4.36338 124.035 -4.99676C123.772 -5.74238 123.102 -6.18312 122.495 -6.19175C121.87 -6.20084 121.515 -5.63106 121.729 -4.99676Z" fill="#171553"/>
<path d="M113.815 -4.99676C114.086 -4.06349 114.902 -3.52733 115.633 -3.5196C116.417 -3.51097 116.894 -4.21752 116.653 -4.99676C116.369 -5.91867 115.555 -6.45755 114.825 -6.46709C114.055 -6.47709 113.588 -5.77827 113.815 -4.99676L113.815 -4.99676Z" fill="#171553"/>
<path d="M105.9 -4.99676C106.161 -3.87629 107.15 -3.26698 107.979 -3.24154C108.686 -3.22019 109.546 -3.91582 109.271 -4.99676C108.989 -6.10042 108.01 -6.71564 107.179 -6.74199C106.472 -6.76426 105.652 -6.06044 105.9 -4.99676Z" fill="#171553"/>
<path d="M97.9859 -4.99676C98.2303 -3.68864 99.3567 -2.98073 100.301 -2.96347C101.119 -2.94847 102.16 -3.71908 101.888 -4.99676C101.615 -6.28217 100.505 -6.99825 99.5594 -7.01643C98.7406 -7.03233 97.7514 -6.25127 97.9859 -4.99676Z" fill="#171553"/>
<path d="M90.0713 -4.99677C90.2666 -3.50008 91.5602 -2.69857 92.5985 -2.6854C93.5372 -2.67313 94.7403 -3.52189 94.5059 -4.99677C94.2728 -6.46301 93.0051 -7.27678 91.9651 -7.29087C91.0259 -7.30359 89.8822 -6.44256 90.0713 -4.99677Z" fill="#171553"/>
<path d="M82.1566 -4.99676C82.2966 -3.31106 83.731 -2.41368 84.8719 -2.40687C85.9315 -2.40005 87.316 -3.32424 87.1238 -4.99676C86.9343 -6.6443 85.5394 -7.55667 84.3976 -7.56485C83.3371 -7.57212 82.0212 -6.63067 82.1566 -4.99676Z" fill="#171553"/>
<path d="M74.242 -4.99676C74.302 -3.11705 75.8891 -2.13061 77.1209 -2.12789C78.3086 -2.12516 79.8666 -3.1225 79.7412 -4.99676C79.619 -6.82832 78.0878 -7.8352 76.856 -7.83838C75.6683 -7.84156 74.1843 -6.82287 74.242 -4.99676Z" fill="#171553"/>
<path d="M72.3586 -4.99676C72.3182 -7.00144 70.6657 -8.11191 69.3403 -8.11191C68.0149 -8.11191 66.3642 -7.00098 66.3274 -4.99676C66.2896 -2.93484 68.0199 -1.84845 69.3457 -1.84891C70.6702 -1.84891 72.4 -2.93439 72.3586 -4.99676Z" fill="#171553"/>
<path d="M24.5909 -4.99676C24.8181 -5.77782 24.3506 -6.47709 23.5813 -6.4671C22.8516 -6.45756 22.0374 -5.91867 21.753 -4.99676C21.5122 -4.21707 21.9892 -3.51098 22.773 -3.51961C23.5032 -3.52733 24.3192 -4.06349 24.5909 -4.99676Z" fill="#171553"/>
<path d="M32.5056 -4.99676C32.7537 -6.06044 31.9344 -6.7638 31.2265 -6.74199C30.3955 -6.71609 29.4163 -6.10042 29.1351 -4.99676C28.8597 -3.91673 29.7199 -3.22019 30.4264 -3.24154C31.2556 -3.26653 32.2443 -3.87629 32.5051 -4.99676L32.5056 -4.99676Z" fill="#171553"/>
<path d="M40.4202 -4.99677C40.6547 -6.25082 39.666 -7.03233 38.8467 -7.01643C37.9007 -6.99826 36.7907 -6.28217 36.5181 -4.99677C36.2464 -3.71863 37.2874 -2.94893 38.1052 -2.96347C39.0494 -2.98028 40.1762 -3.6891 40.4207 -4.99677L40.4202 -4.99677Z" fill="#171553"/>
<path d="M48.3349 -4.99677C48.5239 -6.44211 47.3802 -7.30314 46.4406 -7.29087C45.4005 -7.27678 44.1338 -6.46347 43.8998 -4.99677C43.6644 -3.52143 44.8689 -2.67313 45.8072 -2.68539C46.8459 -2.69903 48.139 -3.50008 48.3344 -4.99677L48.3349 -4.99677Z" fill="#171553"/>
<path d="M56.249 -4.99676C56.3844 -6.63113 55.0695 -7.57212 54.0085 -7.56485C52.8663 -7.55667 51.4714 -6.64385 51.2823 -4.99677C51.0901 -3.32469 52.4746 -2.40005 53.5342 -2.40687C54.6751 -2.41414 56.1095 -3.31106 56.249 -4.99676Z" fill="#171553"/>
<path d="M64.1637 -4.99676C64.2218 -6.82196 62.7383 -7.84156 61.5501 -7.83838C60.3183 -7.8352 58.7871 -6.82878 58.6649 -4.99676C58.5395 -3.12204 60.098 -2.12516 61.2852 -2.12789C62.5175 -2.13107 64.1041 -3.11841 64.1637 -4.99676Z" fill="#171553"/>
<path d="M107.893 5.19198C108.105 6.35789 109.149 6.97992 109.991 7.00037C110.726 7.01809 111.672 6.32836 111.447 5.19198C111.218 4.04016 110.18 3.41359 109.336 3.39269C108.599 3.37451 107.689 4.07015 107.893 5.19198Z" fill="#171553"/>
<path d="M99.5489 5.19198C99.7452 6.56054 100.951 7.2739 101.903 7.28662C102.752 7.29798 103.884 6.54418 103.664 5.19198C103.443 3.8416 102.249 3.12234 101.296 3.10916C100.445 3.09735 99.3585 3.86069 99.5489 5.19198Z" fill="#171553"/>
<path d="M91.2045 5.19198C91.3708 6.75636 92.7302 7.56514 93.7948 7.57286C94.7653 7.57968 96.0803 6.74455 95.8804 5.19198C95.6818 3.65212 94.3423 2.83472 93.2768 2.82609C92.3045 2.81836 91.0427 3.6653 91.2045 5.19198Z" fill="#171553"/>
<path d="M82.86 5.19198C82.9709 6.95311 84.503 7.85367 85.6666 7.85958C86.7666 7.86503 88.2511 6.9463 88.0966 5.19198C87.9439 3.46221 86.4436 2.54938 85.2786 2.54302C84.1767 2.53711 82.7514 3.46993 82.86 5.19198Z" fill="#171553"/>
<path d="M74.5155 5.19198C74.5646 7.14894 76.2507 8.14401 77.5193 8.14628C78.7489 8.14855 80.4169 7.14667 80.3133 5.19198C80.2115 3.27318 78.5717 2.26312 77.3026 2.2604C76.0713 2.25767 74.4674 3.27773 74.5155 5.19198Z" fill="#171553"/>
<path d="M72.5299 5.19198C72.4968 3.08235 70.7147 1.97778 69.3485 1.97778C67.9826 1.97778 66.2024 3.0819 66.1715 5.19198C66.1402 7.34932 67.9872 8.43344 69.353 8.43344C70.7184 8.43344 72.5645 7.34977 72.5304 5.19198L72.5299 5.19198Z" fill="#171553"/>
<path d="M13.8242 5.19198C14.0037 4.5395 13.5884 3.95292 12.926 3.95973C12.3144 3.96609 11.6178 4.40728 11.3929 5.19198C11.2062 5.844 11.6287 6.43422 12.2994 6.42831C12.911 6.42286 13.6071 5.98167 13.8242 5.19198Z" fill="#171553"/>
<path d="M22.1683 5.19198C22.3836 4.26552 21.6239 3.65667 21.0078 3.67621C20.2713 3.69938 19.4139 4.22735 19.1758 5.19198C18.9445 6.12888 19.7324 6.73274 20.3467 6.71411C21.0819 6.69184 21.942 6.16523 22.1678 5.19198L22.1683 5.19198Z" fill="#171553"/>
<path d="M30.5127 5.19198C30.7167 4.06969 29.8066 3.37405 29.0697 3.39268C28.2263 3.41358 27.1886 4.04061 26.9596 5.19198C26.7333 6.3279 27.6797 7.01763 28.4154 7.00036C29.2573 6.98037 30.3015 6.35789 30.5132 5.19198L30.5127 5.19198Z" fill="#171553"/>
<path d="M38.8572 5.19198C39.048 3.86023 37.9612 3.09689 37.1101 3.10916C36.1573 3.12279 34.9633 3.84251 34.7429 5.19198C34.5221 6.54282 35.6544 7.29752 36.5036 7.28662C37.4546 7.27389 38.6614 6.56099 38.8576 5.19198L38.8572 5.19198Z" fill="#171553"/>
<path d="M47.2012 5.19198C47.3634 3.6644 46.1007 2.81791 45.1293 2.82609C44.0633 2.83472 42.7243 3.65213 42.5258 5.19198C42.3254 6.74456 43.6408 7.57968 44.6113 7.57287C45.6754 7.56514 47.0349 6.75682 47.2012 5.19198Z" fill="#171553"/>
<path d="M55.5457 5.19198C55.6538 3.47038 54.2294 2.53711 53.1271 2.54302C51.9621 2.54893 50.4618 3.4622 50.3091 5.19198C50.1541 6.94675 51.6386 7.86503 52.739 7.85958C53.9036 7.85367 55.4348 6.95266 55.5457 5.19198Z" fill="#171553"/>
<path d="M63.8901 5.19198C63.9383 3.27773 62.3348 2.25767 61.103 2.2604C59.8331 2.26312 58.1942 3.27364 58.0924 5.19197C57.9883 7.14576 59.6568 8.14855 60.8863 8.14627C62.1544 8.14401 63.8406 7.14848 63.8901 5.19198Z" fill="#171553"/>
<path d="M118.175 15.6583C118.351 16.6593 119.247 17.1991 119.985 17.2159C120.623 17.2305 121.473 16.6316 121.291 15.6583C121.106 14.6642 120.211 14.123 119.471 14.1058C118.832 14.0903 118.006 14.6924 118.176 15.6588L118.175 15.6583Z" fill="#171553"/>
<path d="M109.487 15.6583C109.65 16.8583 110.737 17.4926 111.586 17.5085C112.35 17.5226 113.361 16.8365 113.187 15.6583C113.011 14.4688 111.926 13.8313 111.076 13.815C110.311 13.8 109.33 14.4906 109.487 15.6583Z" fill="#171553"/>
<path d="M100.799 15.6583C100.95 17.0701 102.208 17.7916 103.17 17.8011C104.049 17.8098 105.254 17.0587 105.083 15.6583C104.911 14.2603 103.66 13.5346 102.698 13.5242C101.816 13.5146 100.65 14.2734 100.799 15.6583Z" fill="#171553"/>
<path d="M92.1109 15.6583C92.2413 17.2723 93.6599 18.0883 94.7399 18.0938C95.7431 18.0992 97.1367 17.2636 96.9795 15.6584C96.8232 14.0631 95.4192 13.2407 94.3373 13.2343C93.3323 13.2284 91.9832 14.0722 92.1114 15.6583L92.1109 15.6583Z" fill="#171553"/>
<path d="M83.4225 15.6583C83.5125 17.479 85.1068 18.3836 86.2941 18.3868C87.4246 18.3895 88.9999 17.4763 88.8749 15.6583C88.7518 13.8609 87.1801 12.9476 85.9924 12.9439C84.8597 12.9403 83.3339 13.8663 83.4225 15.6583Z" fill="#171553"/>
<path d="M74.7345 15.6583C74.7732 17.6762 76.5366 18.6785 77.8338 18.6803C79.0996 18.6822 80.8526 17.6748 80.7713 15.6583C80.6913 13.67 78.9638 12.6559 77.6652 12.6541C76.3975 12.6522 74.6964 13.6728 74.7345 15.6583Z" fill="#171553"/>
<path d="M72.6672 15.6583C72.6408 13.4701 70.7574 12.3642 69.3548 12.3642C67.9535 12.3642 66.0702 13.4701 66.0461 15.6583C66.022 17.8829 67.9572 18.9734 69.358 18.9734C70.7584 18.9734 72.6935 17.8829 72.6667 15.6583L72.6672 15.6583Z" fill="#171553"/>
<path d="M2.854 15.6583C2.97032 15.1213 2.63318 14.6874 2.09749 14.6874C1.56178 14.6874 1.02653 15.1217 0.906583 15.6583C0.786634 16.1954 1.12968 16.6311 1.66946 16.6311C2.20926 16.6311 2.73768 16.1949 2.854 15.6583Z" fill="#171553"/>
<path d="M11.5424 15.6583C11.6865 14.9904 11.2171 14.392 10.5242 14.3961C9.91124 14.4002 9.19424 14.8428 9.01068 15.6583C8.86075 16.3249 9.33781 16.9269 10.0371 16.9233C10.65 16.9201 11.3657 16.478 11.5424 15.6583Z" fill="#171553"/>
<path d="M20.2304 15.6583C20.4003 14.6919 19.5743 14.0903 18.935 14.1053C18.1953 14.123 17.3006 14.6633 17.1148 15.6583C16.933 16.632 17.7827 17.23 18.4206 17.2159C19.159 17.1995 20.0541 16.6598 20.2304 15.6583Z" fill="#171553"/>
<path d="M28.9188 15.6583C29.0765 14.4902 28.0955 13.8 27.3299 13.815C26.4802 13.8313 25.3947 14.4688 25.2189 15.6583C25.0449 16.8365 26.0558 17.5222 26.8205 17.5085C27.6684 17.4931 28.7566 16.8583 28.9188 15.6583Z" fill="#171553"/>
<path d="M37.6068 15.6583C37.7554 14.273 36.589 13.5146 35.7075 13.5242C34.7447 13.5346 33.4938 14.2612 33.323 15.6583C33.1517 17.0578 34.3558 17.8102 35.2359 17.8011C36.1973 17.7911 37.4555 17.0705 37.6072 15.6583L37.6068 15.6583Z" fill="#171553"/>
<path d="M46.2952 15.6583C46.4233 14.0712 45.0738 13.2279 44.0692 13.2338C42.9878 13.2402 41.5829 14.0626 41.4271 15.6579C41.2699 17.2641 42.6634 18.0988 43.6667 18.0933C44.7467 18.0878 46.1652 17.2718 46.2956 15.6579L46.2952 15.6583Z" fill="#171553"/>
<path d="M54.9832 15.6583C55.0722 13.8654 53.5456 12.9403 52.4133 12.9439C51.2256 12.9476 49.6539 13.8604 49.5308 15.6583C49.4063 17.4767 50.9811 18.39 52.1116 18.3868C53.2984 18.3836 54.8923 17.4794 54.9832 15.6583Z" fill="#171553"/>
<path d="M63.6716 15.6583C63.7098 13.6732 62.0091 12.6518 60.7409 12.6541C59.4423 12.6559 57.7153 13.6691 57.6348 15.6583C57.5535 17.6753 59.3074 18.6817 60.5723 18.6799C61.8696 18.6781 63.6325 17.6753 63.6716 15.6583Z" fill="#171553"/>
<path d="M137.52 26.3396C137.604 26.8858 138.118 27.3292 138.673 27.3292C139.228 27.3292 139.611 26.8858 139.526 26.3396C139.44 25.7935 138.92 25.3509 138.367 25.3509C137.815 25.3509 137.437 25.7935 137.52 26.3396Z" fill="#171553"/>
<path d="M128.574 26.3396C128.708 27.182 129.438 27.6255 130.047 27.6264C130.768 27.6277 131.294 27.0189 131.181 26.3396C131.041 25.4999 130.31 25.0565 129.699 25.0547C128.983 25.0528 128.466 25.659 128.574 26.3396L128.574 26.3396Z" fill="#171553"/>
<path d="M119.628 26.3396C119.754 27.3597 120.675 27.9122 121.411 27.9236C122.072 27.9336 122.967 27.3397 122.837 26.3396C122.704 25.3246 121.781 24.7711 121.044 24.7589C120.382 24.7475 119.506 25.3441 119.628 26.3396Z" fill="#171553"/>
<path d="M110.682 26.3396C110.807 27.5769 111.911 28.2134 112.762 28.2207C113.54 28.2275 114.627 27.566 114.492 26.3396C114.356 25.1087 113.251 24.4713 112.399 24.4631C111.62 24.4554 110.56 25.1215 110.682 26.3396Z" fill="#171553"/>
<path d="M101.737 26.3396C101.843 27.7818 103.138 28.5115 104.104 28.5183C105.011 28.5247 106.269 27.7754 106.148 26.3396C106.027 24.9065 104.733 24.1746 103.767 24.1668C102.857 24.1596 101.632 24.9156 101.737 26.3396Z" fill="#171553"/>
<path d="M92.7907 26.3396C92.8838 27.989 94.3459 28.8118 95.4342 28.8159C96.4656 28.8196 97.9164 27.9844 97.8032 26.3396C97.6906 24.703 96.2361 23.876 95.1465 23.871C94.1133 23.8665 92.6984 24.7089 92.7907 26.3396Z" fill="#171553"/>
<path d="M83.8446 26.3396C83.9091 28.2003 85.553 29.1113 86.7539 29.1135C87.913 29.1158 89.5483 28.1993 89.4588 26.3396C89.3702 24.4944 87.7399 23.5784 86.5385 23.5757C85.3772 23.573 83.7805 24.499 83.8446 26.3396Z" fill="#171553"/>
<path d="M74.8986 26.3396C74.9231 28.4056 76.7506 29.4098 78.0632 29.4111C79.3573 29.4125 81.1688 28.4061 81.1143 26.3396C81.0602 24.2936 79.2559 23.2822 77.9428 23.2804C76.6474 23.2785 74.8745 24.2954 74.8986 26.3396Z" fill="#171553"/>
<path d="M72.7698 26.3396C72.7508 24.0923 70.7888 22.9846 69.3603 22.9846C67.9317 22.9846 65.9698 24.0928 65.953 26.3396C65.9357 28.6119 67.9349 29.7092 69.3625 29.7092C70.7893 29.7092 72.7889 28.6128 72.7698 26.3396Z" fill="#171553"/>
<path d="M27.7234 26.3396C27.846 25.1206 26.7856 24.4554 26.0063 24.4631C25.1535 24.4713 24.0484 25.1096 23.9135 26.3396C23.7785 27.565 24.8649 28.2275 25.6428 28.2207C26.4943 28.2134 27.5984 27.5778 27.7234 26.3396Z" fill="#171553"/>
<path d="M36.6694 26.3396C36.7744 24.9152 35.5485 24.1596 34.6393 24.1668C33.6729 24.1746 32.3788 24.9075 32.2584 26.3396C32.1375 27.7745 33.3948 28.5251 34.3022 28.5183C35.2677 28.5115 36.5631 27.7827 36.6694 26.3396Z" fill="#171553"/>
<path d="M45.6155 26.3396C45.7081 24.7089 44.2923 23.867 43.2596 23.871C42.17 23.8756 40.7151 24.7025 40.6029 26.3396C40.4897 27.9849 41.941 28.8196 42.9719 28.8159C44.0606 28.8123 45.5219 27.9894 45.6155 26.3396Z" fill="#171553"/>
<path d="M54.561 26.3396C54.6256 24.4972 53.0276 23.573 51.8671 23.5757C50.6653 23.5784 49.0355 24.4949 48.9464 26.3396C48.8565 28.1993 50.4926 29.1158 51.6517 29.1135C52.8526 29.1113 54.4961 28.2016 54.561 26.3396Z" fill="#171553"/>
<path d="M63.5071 26.3396C63.5312 24.294 61.7582 23.2785 60.4628 23.2804C59.1497 23.2822 57.3454 24.2936 57.2913 26.3396C57.2368 28.4065 59.0484 29.413 60.3424 29.4111C61.6542 29.4093 63.4826 28.407 63.5067 26.3396L63.5071 26.3396Z" fill="#171553"/>
<path d="M120.597 37.1749C120.672 38.2054 121.608 38.7702 122.336 38.7761C123.019 38.782 123.945 38.1927 123.867 37.1749C123.788 36.1481 122.846 35.5833 122.116 35.5756C121.433 35.5687 120.523 36.159 120.597 37.1749L120.597 37.1749Z" fill="#171553"/>
<path d="M111.479 37.1749C111.554 38.429 112.677 39.0728 113.523 39.0769C114.323 39.081 115.443 38.4222 115.361 37.1749C115.28 35.9254 114.151 35.2811 113.305 35.2761C112.504 35.2716 111.404 35.9327 111.479 37.1749Z" fill="#171553"/>
<path d="M102.361 37.1749C102.421 38.6366 103.74 39.3727 104.703 39.3773C105.635 39.3818 106.926 38.633 106.857 37.1749C106.787 35.7187 105.464 34.9812 104.501 34.9762C103.567 34.9713 102.301 35.7237 102.361 37.1749L102.361 37.1749Z" fill="#171553"/>
<path d="M93.2437 37.1749C93.3 38.8465 94.7876 39.6758 95.8776 39.678C96.9318 39.6803 98.4207 38.8447 98.3526 37.1749C98.2844 35.5101 96.7954 34.6795 95.7054 34.6768C94.6495 34.6741 93.1878 35.5147 93.2441 37.1749L93.2437 37.1749Z" fill="#171553"/>
<path d="M84.1259 37.1749C84.1649 39.0619 85.8388 39.9775 87.0456 39.9784C88.2265 39.9793 89.9013 39.0624 89.8477 37.1749C89.7941 35.2966 88.1234 34.3792 86.9166 34.3774C85.7343 34.3756 84.0868 35.2997 84.1259 37.1749Z" fill="#171553"/>
<path d="M75.0081 37.1749C75.0244 39.2741 76.8832 40.2787 78.2082 40.2792C79.519 40.2796 81.3778 39.2746 81.3429 37.1749C81.3083 35.088 79.4609 34.0789 78.1359 34.078C76.8237 34.0771 74.9912 35.0889 75.0081 37.1749Z" fill="#171553"/>
<path d="M72.8385 37.1749C72.8271 34.8867 70.8092 33.7785 69.3634 33.779C67.9177 33.779 65.9007 34.8867 65.8903 37.1749C65.8798 39.4786 67.9199 40.58 69.3648 40.58C70.8097 40.58 72.8498 39.4786 72.8385 37.1749Z" fill="#171553"/>
<path d="M17.8091 37.1749C17.8827 36.159 16.973 35.5687 16.2896 35.5755C15.5599 35.5828 14.6185 36.1476 14.5394 37.1749C14.4608 38.1932 15.3864 38.7825 16.0697 38.7766C16.7981 38.7702 17.7341 38.2054 17.8091 37.1749Z" fill="#171553"/>
<path d="M26.9273 37.1749C27.0014 35.9322 25.9022 35.2711 25.1012 35.2761C24.2543 35.2811 23.1261 35.9263 23.0443 37.1749C22.9629 38.4213 24.083 39.0805 24.8831 39.0769C25.7287 39.0728 26.8523 38.429 26.9273 37.1749Z" fill="#171553"/>
<path d="M36.0447 37.1749C36.1042 35.7228 34.8378 34.9712 33.9046 34.9762C32.9413 34.9812 31.6182 35.7191 31.5491 37.1749C31.4801 38.633 32.7705 39.3813 33.7028 39.3773C34.6656 39.3732 35.9847 38.6371 36.0451 37.1749L36.0447 37.1749Z" fill="#171553"/>
<path d="M45.1624 37.1749C45.2183 35.5138 43.7562 34.6741 42.7007 34.6768C41.6102 34.6795 40.1212 35.5106 40.0535 37.1749C39.9854 38.8443 41.4739 39.6799 42.5285 39.678C43.6181 39.6762 45.1061 38.8474 45.1624 37.1749Z" fill="#171553"/>
<path d="M54.2802 37.1749C54.3189 35.2997 52.6718 34.3756 51.4895 34.3774C50.2823 34.3792 48.6116 35.2975 48.5584 37.1749C48.5048 39.0619 50.1791 39.9797 51.3605 39.9784C52.5677 39.977 54.2421 39.0624 54.2807 37.1749L54.2802 37.1749Z" fill="#171553"/>
<path d="M63.3981 37.1749C63.4149 35.088 61.5815 34.0771 60.2702 34.078C58.9457 34.0789 57.0978 35.0862 57.0633 37.1749C57.0283 39.2764 58.888 40.2796 60.1979 40.2792C61.522 40.2792 63.3812 39.275 63.3981 37.1749Z" fill="#171553"/>
<path d="M115.856 129.287C116.139 128.844 116.675 128.482 117.058 128.482C117.44 128.482 117.516 128.844 117.225 129.287C116.933 129.73 116.391 130.087 116.017 130.087C115.643 130.087 115.572 129.73 115.855 129.287L115.856 129.287Z" fill="#171553"/>
<path d="M109.747 129.287C110.067 128.711 110.726 128.239 111.224 128.239C111.723 128.239 111.86 128.711 111.527 129.287C111.193 129.863 110.525 130.326 110.041 130.326C109.556 130.326 109.427 129.863 109.747 129.287Z" fill="#171553"/>
<path d="M103.638 129.287C104.004 128.539 104.69 128.015 105.353 127.997C105.955 127.981 106.187 128.599 105.829 129.287C105.449 130.015 104.764 130.545 104.103 130.565C103.522 130.583 103.301 129.976 103.638 129.287L103.638 129.287Z" fill="#171553"/>
<path d="M97.5283 129.287C97.8946 128.385 98.6815 127.772 99.4412 127.754C100.162 127.738 100.491 128.471 100.13 129.287C99.7425 130.161 98.9596 130.782 98.2044 130.803C97.5156 130.822 97.1962 130.104 97.5283 129.287Z" fill="#171553"/>
<path d="M91.4194 129.287C91.7724 128.225 92.6539 127.55 93.4922 127.511C94.2205 127.477 94.7953 128.329 94.4318 129.287C94.0456 130.304 93.1841 131.002 92.3454 131.041C91.6247 131.075 91.1108 130.215 91.4198 129.287L91.4194 129.287Z" fill="#171553"/>
<path d="M85.3104 129.287C85.6016 128.062 86.5835 127.298 87.505 127.267C88.3233 127.239 89.0662 128.141 88.7336 129.287C88.3924 130.462 87.4468 131.248 86.5258 131.279C85.7152 131.306 85.0482 130.388 85.3104 129.287Z" fill="#171553"/>
<path d="M79.2014 129.287C79.4018 127.903 80.4864 127.039 81.4792 127.023C82.3933 127.007 83.3084 127.959 83.0349 129.287C82.7632 130.605 81.7441 131.496 80.7458 131.516C79.8398 131.534 79.016 130.563 79.201 129.287L79.2014 129.287Z" fill="#171553"/>
<path d="M73.0924 129.287C73.176 127.753 74.3479 126.785 75.4161 126.778C76.4375 126.771 77.5175 127.774 77.3371 129.287C77.1631 130.746 76.0672 131.744 75.0067 131.752C73.993 131.761 73.0147 130.722 73.0929 129.287L73.0924 129.287Z" fill="#171553"/>
<path d="M71.6389 129.287C71.5817 130.876 70.4367 131.989 69.3071 131.989C68.1794 131.989 67.0357 130.876 66.9835 129.287C66.9285 127.604 68.1735 126.533 69.3153 126.533C70.4562 126.533 71.6993 127.605 71.6389 129.287Z" fill="#171553"/>
<path d="M22.5499 129.287C22.833 129.73 22.7621 130.087 22.3882 130.087C22.0142 130.087 21.4722 129.73 21.1809 129.287C20.8897 128.843 20.966 128.482 21.3481 128.482C21.7303 128.482 22.2669 128.843 22.5499 129.287Z" fill="#171553"/>
<path d="M28.6594 129.287C28.9792 129.863 28.8497 130.326 28.3654 130.326C27.881 130.326 27.2136 129.863 26.8796 129.287C26.5456 128.711 26.6833 128.239 27.1817 128.239C27.6802 128.239 28.3399 128.71 28.6598 129.287L28.6594 129.287Z" fill="#171553"/>
<path d="M34.7683 129.287C35.1059 129.975 34.8837 130.582 34.3031 130.565C33.6433 130.545 32.9572 130.015 32.5778 129.287C32.2193 128.599 32.4506 127.981 33.054 127.997C33.7169 128.015 34.4026 128.539 34.7688 129.287L34.7683 129.287Z" fill="#171553"/>
<path d="M40.8773 129.287C41.2094 130.104 40.8905 130.822 40.2017 130.803C39.4465 130.783 38.6636 130.162 38.276 129.287C37.9144 128.472 38.2438 127.738 38.9649 127.755C39.7246 127.772 40.5115 128.385 40.8778 129.287L40.8773 129.287Z" fill="#171553"/>
<path d="M46.9863 129.287C47.2953 130.216 46.7814 131.075 46.0603 131.041C45.2215 131.002 44.3605 130.304 43.9738 129.287C43.6103 128.329 44.1851 127.477 44.913 127.511C45.7513 127.55 46.6328 128.224 46.9858 129.287L46.9863 129.287Z" fill="#171553"/>
<path d="M53.0957 129.287C53.3579 130.388 52.6909 131.306 51.8803 131.279C50.9593 131.247 50.0137 130.462 49.6725 129.287C49.3399 128.141 50.0828 127.238 50.9011 127.267C51.8226 127.299 52.804 128.062 53.0957 129.287Z" fill="#171553"/>
<path d="M59.2047 129.287C59.3892 130.563 58.5658 131.534 57.6598 131.516C56.662 131.496 55.6424 130.606 55.3707 129.287C55.0967 127.958 56.0127 127.007 56.9269 127.023C57.9202 127.039 59.0048 127.904 59.2051 129.287L59.2047 129.287Z" fill="#171553"/>
<path d="M65.3132 129.287C65.3914 130.722 64.4131 131.76 63.3994 131.752C62.3394 131.744 61.243 130.747 61.069 129.287C60.8881 127.773 61.9691 126.771 62.99 126.778C64.0582 126.785 65.2301 127.753 65.3137 129.287L65.3132 129.287Z" fill="#171553"/>
<path d="M107.515 120.298C107.854 119.48 108.587 118.952 109.279 118.937C109.951 118.923 110.271 119.575 109.952 120.298C109.598 121.1 108.868 121.633 108.177 121.65C107.525 121.665 107.214 121.022 107.515 120.298Z" fill="#171553"/>
<path d="M100.718 120.298C101.07 119.307 101.921 118.718 102.704 118.681C103.363 118.649 103.966 119.388 103.612 120.298C103.238 121.262 102.397 121.864 101.613 121.902C100.957 121.933 100.402 121.188 100.718 120.298Z" fill="#171553"/>
<path d="M93.9211 120.298C94.2401 119.138 95.2151 118.457 96.0962 118.424C96.8527 118.396 97.6147 119.206 97.273 120.298C96.9199 121.426 95.9658 122.12 95.0843 122.154C94.3305 122.182 93.6299 121.359 93.9216 120.298L93.9211 120.298Z" fill="#171553"/>
<path d="M87.1242 120.298C87.3905 118.969 88.4778 118.189 89.4538 118.167C90.3121 118.149 91.244 119.02 90.9327 120.298C90.6197 121.585 89.566 122.383 88.59 122.405C87.7349 122.425 86.8761 121.536 87.1242 120.298Z" fill="#171553"/>
<path d="M80.3273 120.298C80.5077 118.8 81.7268 117.924 82.7777 117.91C83.7455 117.897 84.8388 118.833 84.5925 120.298C84.3499 121.742 83.1808 122.642 82.1307 122.656C81.167 122.669 80.1569 121.712 80.3269 120.298L80.3273 120.298Z" fill="#171553"/>
<path d="M73.5304 120.298C73.6095 118.632 74.9349 117.658 76.069 117.652C77.1531 117.647 78.4176 118.648 78.2527 120.298C78.0932 121.897 76.8382 122.901 75.7073 122.907C74.6287 122.914 73.455 121.883 73.5304 120.298Z" fill="#171553"/>
<path d="M71.9129 120.298C71.8611 122.052 70.5234 123.158 69.3194 123.158C68.1157 123.158 66.7808 122.05 66.7331 120.298C66.6831 118.465 68.1157 117.394 69.3266 117.394C70.5362 117.394 71.9674 118.464 71.9129 120.298Z" fill="#171553"/>
<path d="M30.8912 120.298C31.1916 121.022 30.8812 121.665 30.2292 121.65C29.5386 121.634 28.8075 121.101 28.454 120.298C28.135 119.576 28.4553 118.923 29.1269 118.938C29.8189 118.952 30.5518 119.48 30.8912 120.298Z" fill="#171553"/>
<path d="M37.6881 120.298C38.0034 121.188 37.4491 121.933 36.7925 121.902C36.0083 121.864 35.1677 121.262 34.7933 120.298C34.4398 119.389 35.0428 118.65 35.7011 118.681C36.4845 118.718 37.3364 119.306 37.6876 120.298L37.6881 120.298Z" fill="#171553"/>
<path d="M44.4845 120.298C44.7762 121.359 44.0756 122.182 43.3218 122.154C42.4399 122.12 41.4866 121.425 41.1331 120.298C40.791 119.207 41.5534 118.396 42.3095 118.424C43.19 118.457 44.1656 119.138 44.4845 120.298Z" fill="#171553"/>
<path d="M51.2819 120.298C51.5295 121.535 50.6712 122.425 49.8161 122.405C48.8401 122.382 47.7869 121.585 47.4734 120.298C47.1617 119.019 48.094 118.149 48.9523 118.167C49.9283 118.189 51.0161 118.97 51.2819 120.298Z" fill="#171553"/>
<path d="M58.0783 120.298C58.2482 121.712 57.2386 122.669 56.2749 122.656C55.2249 122.642 54.0553 121.741 53.8127 120.298C53.566 118.833 54.6601 117.897 55.6279 117.91C56.6789 117.924 57.8984 118.801 58.0783 120.298Z" fill="#171553"/>
<path d="M64.8752 120.298C64.9502 121.882 63.7779 122.914 62.6983 122.907C61.5674 122.901 60.3129 121.898 60.1529 120.298C59.988 118.648 61.253 117.646 62.3371 117.652C63.4712 117.658 64.797 118.633 64.8752 120.298Z" fill="#171553"/>
<path d="M125.705 110.848C125.921 110.358 126.468 109.959 126.929 109.959C127.39 109.959 127.586 110.358 127.363 110.848C127.141 111.338 126.588 111.734 126.134 111.734C125.68 111.734 125.489 111.338 125.706 110.848L125.705 110.848Z" fill="#171553"/>
<path d="M118.306 110.848C118.595 110.14 119.237 109.702 119.832 109.692C120.425 109.681 120.722 110.235 120.462 110.848C120.164 111.547 119.522 111.987 118.927 111.998C118.346 112.01 118.056 111.461 118.306 110.848Z" fill="#171553"/>
<path d="M110.907 110.848C111.215 109.968 111.991 109.435 112.706 109.424C113.438 109.413 113.84 110.095 113.56 110.848C113.239 111.714 112.464 112.251 111.751 112.263C111.036 112.276 110.644 111.603 110.907 110.848Z" fill="#171553"/>
<path d="M103.509 110.848C103.818 109.784 104.741 109.187 105.551 109.156C106.23 109.13 106.98 109.839 106.66 110.848C106.329 111.891 105.417 112.496 104.605 112.528C103.926 112.554 103.222 111.837 103.509 110.848L103.509 110.848Z" fill="#171553"/>
<path d="M96.1098 110.848C96.3879 109.611 97.4511 108.916 98.3653 108.888C99.1554 108.864 100.062 109.66 99.7579 110.848C99.448 112.057 98.4044 112.764 97.4884 112.792C96.6987 112.816 95.8485 112.008 96.1093 110.848L96.1098 110.848Z" fill="#171553"/>
<path d="M88.7109 110.848C88.9408 109.426 90.144 108.636 91.1513 108.62C92.0496 108.605 93.1305 109.457 92.8565 110.848C92.5835 112.233 91.4103 113.038 90.4029 113.055C89.5056 113.07 88.4919 112.203 88.7109 110.848Z" fill="#171553"/>
<path d="M81.312 110.848C81.4746 109.246 82.8059 108.36 83.9082 108.351C84.9233 108.343 86.1778 109.266 85.9547 110.848C85.7357 112.403 84.4489 113.309 83.3475 113.319C82.3338 113.328 81.1557 112.384 81.3115 110.848L81.312 110.848Z" fill="#171553"/>
<path d="M73.9135 110.848C73.9794 109.067 75.4524 108.086 76.637 108.082C77.7783 108.077 79.196 109.076 79.0542 110.848C78.9161 112.571 77.5071 113.577 76.3239 113.582C75.1844 113.586 73.8499 112.563 73.9135 110.848Z" fill="#171553"/>
<path d="M72.1528 110.848C72.106 112.737 70.6011 113.845 69.3307 113.845C68.0612 113.845 66.5573 112.737 66.5146 110.848C66.4705 108.89 68.0644 107.812 69.3366 107.812C70.608 107.812 72.201 108.89 72.1528 110.848Z" fill="#171553"/>
<path d="M42.2963 110.848C42.5571 112.008 41.7074 112.816 40.9173 112.792C40.0008 112.763 38.9576 112.057 38.6477 110.848C38.3438 109.661 39.2498 108.864 40.0399 108.888C40.9541 108.916 42.0182 109.612 42.2958 110.848L42.2963 110.848Z" fill="#171553"/>
<path d="M49.6948 110.848C49.9138 112.202 48.9005 113.07 48.0027 113.055C46.9949 113.038 45.8217 112.232 45.5487 110.848C45.2747 109.457 46.3556 108.605 47.2539 108.62C48.2612 108.636 49.4649 109.427 49.6943 110.848L49.6948 110.848Z" fill="#171553"/>
<path d="M57.0937 110.848C57.2496 112.384 56.0718 113.328 55.0581 113.319C53.9563 113.309 52.6691 112.403 52.4505 110.848C52.2279 109.266 53.4824 108.342 54.4974 108.351C55.5993 108.36 56.9315 109.246 57.0937 110.848Z" fill="#171553"/>
<path d="M64.4922 110.848C64.5558 112.564 63.2208 113.586 62.0822 113.582C60.8986 113.577 59.4905 112.571 59.3519 110.848C59.2092 109.076 60.6282 108.077 61.7691 108.082C62.9537 108.087 64.4267 109.066 64.4926 110.848L64.4922 110.848Z" fill="#171553"/>
<path d="M121.729 100.997C121.984 100.244 122.655 99.8054 123.261 99.7973C123.896 99.7886 124.259 100.364 124.035 100.997C123.772 101.742 123.102 102.183 122.495 102.192C121.87 102.201 121.515 101.632 121.729 100.997Z" fill="#171553"/>
<path d="M113.815 100.997C114.086 100.064 114.902 99.5278 115.633 99.5201C116.417 99.5119 116.894 100.218 116.653 100.997C116.369 101.919 115.555 102.458 114.825 102.467C114.055 102.477 113.588 101.778 113.815 100.997L113.815 100.997Z" fill="#171553"/>
<path d="M105.9 100.997C106.161 99.8768 107.15 99.267 107.979 99.242C108.686 99.2207 109.546 99.9163 109.271 100.997C108.989 102.101 108.01 102.716 107.179 102.742C106.472 102.764 105.652 102.06 105.9 100.997Z" fill="#171553"/>
<path d="M97.9859 100.997C98.2303 99.6887 99.3567 98.9808 100.301 98.964C101.119 98.949 102.16 99.7191 101.888 100.997C101.615 102.283 100.505 102.999 99.5594 103.017C98.7406 103.033 97.7514 102.252 97.9859 100.997Z" fill="#171553"/>
<path d="M90.0713 100.997C90.2666 99.5001 91.5602 98.6991 92.5984 98.6854C93.5372 98.6732 94.7403 99.5219 94.5059 100.997C94.2728 102.463 93.0051 103.277 91.9651 103.291C91.0259 103.304 89.8822 102.443 90.0713 100.997Z" fill="#171553"/>
<path d="M82.1566 100.997C82.2966 99.3116 83.731 98.4142 84.8719 98.4069C85.9315 98.4001 87.316 99.3243 87.1238 100.997C86.9343 102.645 85.5394 103.557 84.3976 103.565C83.3371 103.573 82.0212 102.631 82.1566 100.997Z" fill="#171553"/>
<path d="M74.242 100.997C74.302 99.1175 75.8891 98.1311 77.1209 98.1284C78.3086 98.1256 79.8666 99.123 79.7412 100.997C79.619 102.828 78.0878 103.835 76.856 103.839C75.6682 103.842 74.1843 102.824 74.242 100.997Z" fill="#171553"/>
<path d="M72.3586 100.997C72.3182 103.002 70.6657 104.112 69.3403 104.112C68.0149 104.112 66.3642 103.001 66.3274 100.997C66.2896 98.9353 68.0199 97.8489 69.3457 97.8489C70.6702 97.8489 72.4 98.9344 72.3586 100.997Z" fill="#171553"/>
<path d="M24.5909 100.997C24.8181 101.778 24.3506 102.478 23.5813 102.468C22.8516 102.458 22.0374 101.919 21.753 100.997C21.5121 100.217 21.9892 99.5115 22.773 99.5201C23.5032 99.5278 24.3192 100.064 24.5909 100.997Z" fill="#171553"/>
<path d="M32.5056 100.997C32.7537 102.061 31.9344 102.764 31.2265 102.742C30.3955 102.716 29.4163 102.1 29.1351 100.997C28.8597 99.9168 29.7199 99.2202 30.4264 99.242C31.2556 99.2675 32.2443 99.8768 32.5051 100.997L32.5056 100.997Z" fill="#171553"/>
<path d="M40.4202 100.997C40.6547 102.251 39.666 103.032 38.8467 103.017C37.9007 102.999 36.7907 102.283 36.5181 100.997C36.2464 99.7191 37.2874 98.9494 38.1052 98.964C39.0494 98.9808 40.1762 99.6896 40.4207 100.997L40.4202 100.997Z" fill="#171553"/>
<path d="M48.3348 100.997C48.5239 102.443 47.3802 103.304 46.4406 103.291C45.4005 103.277 44.1338 102.464 43.8998 100.998C43.6644 99.5219 44.8689 98.6741 45.8072 98.6859C46.8459 98.6995 48.139 99.501 48.3344 100.997L48.3348 100.997Z" fill="#171553"/>
<path d="M56.249 100.997C56.3844 102.632 55.0695 103.573 54.0085 103.565C52.8663 103.557 51.4713 102.644 51.2823 100.997C51.0901 99.3252 52.4746 98.4001 53.5342 98.4069C54.6751 98.4142 56.1095 99.3111 56.249 100.997Z" fill="#171553"/>
<path d="M64.1637 100.997C64.2218 102.822 62.7383 103.842 61.5501 103.839C60.3183 103.836 58.7871 102.829 58.6649 100.997C58.5395 99.1221 60.098 98.1252 61.2852 98.1284C62.5175 98.1311 64.1041 99.1189 64.1637 100.997Z" fill="#171553"/>
<path d="M107.893 90.8085C108.105 89.6426 109.149 89.0206 109.991 89.0006C110.726 88.9829 111.672 89.6726 111.447 90.8085C111.218 91.9603 110.18 92.5869 109.336 92.6083C108.599 92.6264 107.689 91.9308 107.893 90.8085Z" fill="#171553"/>
<path d="M99.5489 90.8085C99.7452 89.4395 100.951 88.7266 101.903 88.7139C102.752 88.7025 103.884 89.4563 103.664 90.8085C103.443 92.1589 102.249 92.8782 101.296 92.8913C100.445 92.9036 99.3585 92.1398 99.5489 90.8085Z" fill="#171553"/>
<path d="M91.2045 90.8085C91.3707 89.2441 92.7302 88.4353 93.7948 88.4276C94.7653 88.4203 96.0803 89.2559 95.8804 90.8085C95.6818 92.3488 94.3423 93.1658 93.2768 93.1744C92.3045 93.1821 91.0427 92.3352 91.2045 90.8085Z" fill="#171553"/>
<path d="M82.86 90.8085C82.9709 89.0474 84.503 88.1468 85.6666 88.1409C86.7666 88.1355 88.2511 89.0542 88.0966 90.8085C87.9439 92.5383 86.4436 93.4511 85.2786 93.4575C84.1767 93.4634 82.7514 92.5306 82.86 90.8085Z" fill="#171553"/>
<path d="M74.5155 90.8085C74.5646 88.8516 76.2507 87.8565 77.5193 87.8542C78.7489 87.8519 80.4168 88.8538 80.3133 90.8085C80.2115 92.7273 78.5717 93.7374 77.3026 93.7401C76.0713 93.7424 74.4674 92.7228 74.5155 90.8085Z" fill="#171553"/>
<path d="M72.5299 90.8085C72.4968 92.9186 70.7147 94.0227 69.3485 94.0227C67.9826 94.0227 66.2024 92.9186 66.1715 90.8085C66.1402 88.6512 67.9872 87.5675 69.353 87.567C70.7184 87.567 72.5645 88.6507 72.5304 90.8085L72.5299 90.8085Z" fill="#171553"/>
<path d="M13.8242 90.8085C14.0037 91.461 13.5884 92.0476 12.926 92.0408C12.3144 92.0344 11.6178 91.5932 11.3929 90.8085C11.2062 90.1565 11.6287 89.5663 12.2994 89.5722C12.911 89.5776 13.6071 90.0188 13.8242 90.8085Z" fill="#171553"/>
<path d="M22.1683 90.8085C22.3836 91.735 21.6239 92.3438 21.0078 92.3243C20.2713 92.3006 19.4139 91.7727 19.1758 90.8085C18.9445 89.8716 19.7324 89.2677 20.3467 89.2864C21.0819 89.3086 21.942 89.8353 22.1678 90.8085L22.1683 90.8085Z" fill="#171553"/>
<path d="M30.5127 90.8085C30.7167 91.9308 29.8066 92.6264 29.0697 92.6083C28.2263 92.5874 27.1886 91.9603 26.9596 90.8085C26.7333 89.6726 27.6797 88.9829 28.4154 89.0006C29.2573 89.0206 30.3014 89.6431 30.5132 90.8085L30.5127 90.8085Z" fill="#171553"/>
<path d="M38.8572 90.8085C39.048 92.1403 37.9612 92.9036 37.1101 92.8913C36.1573 92.8782 34.9633 92.158 34.7429 90.8085C34.5221 89.4577 35.6544 88.703 36.5036 88.7139C37.4546 88.7266 38.6614 89.4395 38.8576 90.8085L38.8572 90.8085Z" fill="#171553"/>
<path d="M47.2012 90.8085C47.3634 92.3361 46.1007 93.1826 45.1293 93.1744C44.0633 93.1658 42.7243 92.3484 42.5258 90.8085C42.3254 89.2559 43.6408 88.4208 44.6113 88.4276C45.6754 88.4349 47.0349 89.2437 47.2012 90.8085Z" fill="#171553"/>
<path d="M55.5457 90.8085C55.6538 92.5301 54.2294 93.4629 53.1271 93.4575C51.9621 93.4516 50.4617 92.5383 50.3091 90.8085C50.1541 89.0537 51.6386 88.1355 52.739 88.1409C53.9036 88.1468 55.4348 89.0478 55.5457 90.8085Z" fill="#171553"/>
<path d="M63.8901 90.8085C63.9383 92.7228 62.3348 93.7428 61.103 93.7401C59.8331 93.7374 58.1942 92.7268 58.0924 90.8085C57.9883 88.8543 59.6568 87.8519 60.8863 87.8542C62.1544 87.8565 63.8406 88.852 63.8901 90.8085Z" fill="#171553"/>
<path d="M118.175 80.3421C118.351 79.3407 119.247 78.8009 119.985 78.7846C120.623 78.77 121.473 79.3689 121.291 80.3421C121.106 81.3363 120.211 81.8774 119.471 81.8947C118.832 81.9102 118.006 81.3081 118.176 80.3417L118.175 80.3421Z" fill="#171553"/>
<path d="M109.487 80.3426C109.65 79.1426 110.737 78.5079 111.586 78.4924C112.35 78.4783 113.361 79.1644 113.187 80.3426C113.011 81.5317 111.926 82.1696 111.076 82.186C110.311 82.2005 109.33 81.5103 109.487 80.3426Z" fill="#171553"/>
<path d="M100.799 80.3426C100.95 78.9309 102.208 78.2093 103.17 78.1998C104.049 78.1912 105.254 78.9422 105.083 80.3426C104.911 81.7402 103.66 82.4663 102.698 82.4768C101.816 82.4863 100.65 81.7271 100.799 80.3426Z" fill="#171553"/>
<path d="M92.1109 80.3426C92.2413 78.7287 93.6599 77.9126 94.7399 77.9067C95.7431 77.9013 97.1367 78.7364 96.9795 80.3426C96.8232 81.9379 95.4192 82.7603 94.3373 82.7666C93.3323 82.7726 91.9832 81.9288 92.1114 80.3426L92.1109 80.3426Z" fill="#171553"/>
<path d="M83.4225 80.3426C83.5125 78.5219 85.1068 77.6173 86.2941 77.6137C87.4246 77.6109 88.9999 78.5242 88.8749 80.3426C88.7518 82.1401 87.1801 83.0534 85.9924 83.057C84.8597 83.0606 83.3339 82.1346 83.4225 80.3426Z" fill="#171553"/>
<path d="M74.7345 80.3426C74.7732 78.3247 76.5365 77.3224 77.8338 77.3206C79.0996 77.3188 80.8526 78.3261 80.7713 80.3426C80.6913 82.3309 78.9638 83.3446 77.6652 83.3469C76.3975 83.3491 74.6964 82.3282 74.7345 80.3426Z" fill="#171553"/>
<path d="M72.6672 80.3426C72.6408 82.5308 70.7574 83.6368 69.3548 83.6368C67.9535 83.6368 66.0702 82.5308 66.0461 80.3426C66.022 78.118 67.9572 77.0275 69.358 77.0275C70.7583 77.0275 72.6935 78.118 72.6667 80.3426L72.6672 80.3426Z" fill="#171553"/>
<path d="M2.854 80.3426C2.97032 80.8792 2.63317 81.3136 2.09748 81.3136C1.56178 81.3136 1.02653 80.8792 0.906581 80.3426C0.786631 79.8055 1.12968 79.3693 1.66946 79.3693C2.20925 79.3693 2.73768 79.8055 2.854 80.3426Z" fill="#171553"/>
<path d="M11.5424 80.3426C11.6864 81.0105 11.2171 81.6089 10.5242 81.6044C9.91123 81.6003 9.19424 81.1577 9.01068 80.3426C8.86074 79.676 9.33781 79.0735 10.0371 79.0772C10.65 79.0804 11.3657 79.5225 11.5424 80.3426Z" fill="#171553"/>
<path d="M20.2304 80.3426C20.4003 81.309 19.5743 81.9106 18.935 81.8952C18.1953 81.8779 17.3006 81.3372 17.1148 80.3426C16.933 79.3689 17.7827 78.7705 18.4206 78.785C19.159 78.8014 20.0541 79.3412 20.2304 80.3426Z" fill="#171553"/>
<path d="M28.9188 80.3426C29.0765 81.5108 28.0955 82.201 27.3299 82.186C26.4802 82.1696 25.3947 81.5317 25.2189 80.3421C25.0449 79.164 26.0558 78.4779 26.8205 78.492C27.6684 78.5079 28.7566 79.1422 28.9188 80.3421L28.9188 80.3426Z" fill="#171553"/>
<path d="M37.6068 80.3426C37.7554 81.728 36.589 82.4859 35.7075 82.4768C34.7447 82.4663 33.4938 81.7398 33.323 80.3426C33.1517 78.9431 34.3558 78.1907 35.2359 78.1998C36.1973 78.2098 37.4555 78.9304 37.6072 80.3426L37.6068 80.3426Z" fill="#171553"/>
<path d="M46.2952 80.3421C46.4233 81.9292 45.0738 82.7725 44.0692 82.7666C42.9878 82.7603 41.5829 81.9374 41.4271 80.3426C41.2699 78.7364 42.6634 77.9017 43.6667 77.9067C44.7467 77.9122 46.1652 78.7282 46.2956 80.3421L46.2952 80.3421Z" fill="#171553"/>
<path d="M54.9832 80.3426C55.0722 82.1355 53.5455 83.0602 52.4133 83.057C51.2256 83.0534 49.6539 82.1405 49.5307 80.3426C49.4063 78.5242 50.9811 77.6109 52.1116 77.6141C53.2984 77.6173 54.8923 78.5215 54.9832 80.3431L54.9832 80.3426Z" fill="#171553"/>
<path d="M63.6716 80.3421C63.7097 82.3273 62.0091 83.3487 60.7409 83.3464C59.4423 83.3446 57.7153 82.3314 57.6348 80.3421C57.5535 78.3257 59.3074 77.3192 60.5723 77.3206C61.8696 77.3224 63.6325 78.3252 63.6716 80.3421Z" fill="#171553"/>
<path d="M137.52 69.6609C137.604 69.1147 138.118 68.6712 138.673 68.6712C139.228 68.6712 139.611 69.1147 139.526 69.6609C139.44 70.207 138.92 70.6491 138.367 70.6491C137.815 70.6491 137.437 70.207 137.52 69.6609Z" fill="#171553"/>
<path d="M128.574 69.6609C128.708 68.8185 129.438 68.375 130.047 68.3741C130.768 68.3727 131.294 68.9816 131.181 69.6609C131.041 70.5005 130.31 70.944 129.699 70.9454C128.983 70.9472 128.466 70.3411 128.574 69.6609L128.574 69.6609Z" fill="#171553"/>
<path d="M119.628 69.6609C119.754 68.6408 120.675 68.0879 121.411 68.0769C122.072 68.0669 122.967 68.6608 122.837 69.6609C122.704 70.6759 121.781 71.2293 121.044 71.2416C120.382 71.253 119.506 70.6564 119.628 69.6609Z" fill="#171553"/>
<path d="M110.682 69.6609C110.807 68.4232 111.911 67.7866 112.762 67.7793C113.54 67.7725 114.627 68.4341 114.492 69.6609C114.356 70.8917 113.251 71.5292 112.399 71.5374C111.62 71.5447 110.56 70.879 110.682 69.6609Z" fill="#171553"/>
<path d="M101.737 69.6609C101.843 68.2187 103.138 67.489 104.104 67.4822C105.011 67.4758 106.269 68.2251 106.148 69.6609C106.027 71.0939 104.733 71.8259 103.767 71.8337C102.857 71.8409 101.632 71.0849 101.737 69.6609Z" fill="#171553"/>
<path d="M92.7906 69.6609C92.8838 68.0111 94.3459 67.1887 95.4342 67.1846C96.4656 67.1809 97.9164 68.0161 97.8032 69.6609C97.6906 71.2975 96.2361 72.1244 95.1465 72.129C94.1133 72.1335 92.6984 71.2911 92.7906 69.6609Z" fill="#171553"/>
<path d="M83.8446 69.6609C83.9091 67.8002 85.553 66.8888 86.7539 66.8869C87.913 66.8847 89.5483 67.8011 89.4588 69.6609C89.3702 71.506 87.7399 72.4221 86.5385 72.4248C85.3772 72.4275 83.7805 71.5015 83.8446 69.6609Z" fill="#171553"/>
<path d="M74.8986 69.6609C74.9231 67.5944 76.7506 66.5903 78.0632 66.5889C79.3573 66.5875 81.1688 67.5935 81.1143 69.6609C81.0602 71.7069 79.2559 72.7183 77.9428 72.7201C76.6474 72.7219 74.8745 71.7051 74.8986 69.6609Z" fill="#171553"/>
<path d="M72.7698 69.6609C72.7508 71.9082 70.7888 73.0155 69.3603 73.0155C67.9317 73.0155 65.9698 71.9073 65.953 69.6609C65.9357 67.3886 67.9349 66.2913 69.3625 66.2913C70.7892 66.2913 72.7889 67.3877 72.7698 69.6609Z" fill="#171553"/>
<path d="M27.7234 69.6609C27.846 70.8799 26.7855 71.5451 26.0063 71.5374C25.1535 71.5288 24.0484 70.8908 23.9135 69.6609C23.7785 68.4354 24.8649 67.773 25.6428 67.7793C26.4943 67.7871 27.5984 68.4223 27.7234 69.6609Z" fill="#171553"/>
<path d="M36.6694 69.6609C36.7744 71.0853 35.5485 71.8409 34.6393 71.8337C33.6729 71.8259 32.3788 71.093 32.2584 69.6609C32.1375 68.226 33.3948 67.4754 34.3022 67.4822C35.2677 67.489 36.5631 68.2178 36.6694 69.6609Z" fill="#171553"/>
<path d="M45.6155 69.6609C45.7081 71.292 44.2923 72.1335 43.2596 72.1294C42.17 72.1249 40.7151 71.2979 40.6029 69.6613C40.4897 68.016 41.941 67.1814 42.9719 67.185C44.0606 67.1886 45.5219 68.0115 45.6155 69.6613L45.6155 69.6609Z" fill="#171553"/>
<path d="M54.561 69.6609C54.6256 71.5029 53.0276 72.4275 51.8671 72.4248C50.6653 72.4221 49.0355 71.5056 48.9464 69.6609C48.8565 67.8011 50.4926 66.8847 51.6517 66.8869C52.8526 66.8888 54.4961 67.7989 54.561 69.6609Z" fill="#171553"/>
<path d="M63.5071 69.6609C63.5312 71.7064 61.7582 72.7219 60.4628 72.7201C59.1497 72.7183 57.3454 71.7069 57.2913 69.6609C57.2368 67.5935 59.0484 66.5875 60.3424 66.5889C61.6542 66.5907 63.4826 67.593 63.5066 69.6609L63.5071 69.6609Z" fill="#171553"/>
<path d="M120.597 58.826C120.672 57.7955 121.608 57.2307 122.336 57.2248C123.019 57.2189 123.945 57.8082 123.867 58.826C123.788 59.8529 122.846 60.4181 122.116 60.4254C121.433 60.4327 120.523 59.842 120.597 58.826L120.597 58.826Z" fill="#171553"/>
<path d="M111.479 58.826C111.554 57.572 112.677 56.9281 113.523 56.924C114.323 56.9199 115.443 57.5788 115.361 58.826C115.28 60.0755 114.151 60.7198 113.305 60.7248C112.504 60.7294 111.404 60.0683 111.479 58.826Z" fill="#171553"/>
<path d="M102.361 58.826C102.421 57.3643 103.74 56.6278 104.703 56.6237C105.635 56.6191 106.926 57.3679 106.857 58.826C106.787 60.2823 105.464 61.0197 104.501 61.0247C103.567 61.0297 102.301 60.2773 102.361 58.826L102.361 58.826Z" fill="#171553"/>
<path d="M93.2437 58.826C93.3 57.1544 94.7876 56.3252 95.8776 56.3229C96.9318 56.3211 98.4207 57.1562 98.3526 58.826C98.2844 60.4904 96.7954 61.3214 95.7054 61.3241C94.6495 61.3268 93.1878 60.4867 93.2441 58.826L93.2437 58.826Z" fill="#171553"/>
<path d="M84.1259 58.826C84.1649 56.939 85.8388 56.0235 87.0456 56.0221C88.2265 56.0207 89.9013 56.9381 89.8477 58.826C89.7941 60.7039 88.1234 61.6217 86.9166 61.6236C85.7343 61.6254 84.0868 60.7016 84.1259 58.826Z" fill="#171553"/>
<path d="M75.0081 58.826C75.0244 56.7268 76.8832 55.7222 78.2082 55.7218C79.519 55.7218 81.3778 56.7264 81.3429 58.826C81.3083 60.9129 79.4609 61.9221 78.1359 61.923C76.8237 61.9239 74.9912 60.912 75.0081 58.826Z" fill="#171553"/>
<path d="M72.8385 58.826C72.8271 61.1147 70.8092 62.222 69.3634 62.222C67.9177 62.222 65.9007 61.1142 65.8903 58.826C65.8798 56.5224 67.9199 55.421 69.3648 55.421C70.8097 55.421 72.8498 56.5219 72.8385 58.826Z" fill="#171553"/>
<path d="M17.8091 58.826C17.8827 59.842 16.973 60.4322 16.2896 60.4254C15.5599 60.4181 14.6185 59.8533 14.5394 58.826C14.4608 57.8078 15.3864 57.2185 16.0697 57.2244C16.7981 57.2307 17.7341 57.7955 17.8091 58.826Z" fill="#171553"/>
<path d="M26.9273 58.826C27.0014 60.0687 25.9022 60.7298 25.1012 60.7248C24.2543 60.7198 23.1261 60.0746 23.0443 58.826C22.9629 57.5792 24.083 56.9204 24.8831 56.924C25.7287 56.9277 26.8523 57.5719 26.9273 58.826Z" fill="#171553"/>
<path d="M36.0447 58.826C36.1042 60.2782 34.8378 61.0297 33.9046 61.0247C32.9413 61.0197 31.6182 60.2818 31.5491 58.826C31.4801 57.3679 32.7705 56.6196 33.7028 56.6237C34.6656 56.6282 35.9847 57.3638 36.0451 58.826L36.0447 58.826Z" fill="#171553"/>
<path d="M45.1624 58.8255C45.2183 60.4867 43.7562 61.3264 42.7007 61.3237C41.6102 61.3209 40.1212 60.4899 40.0535 58.8255C39.9854 57.1562 41.4739 56.3206 42.5285 56.3224C43.6181 56.3247 45.1061 57.153 45.1624 58.8255Z" fill="#171553"/>
<path d="M54.2802 58.826C54.3189 60.7012 52.6718 61.6254 51.4895 61.6236C50.2823 61.6217 48.6116 60.7035 48.5584 58.826C48.5048 56.939 50.1791 56.0212 51.3605 56.0221C52.5677 56.0235 54.2421 56.9381 54.2807 58.826L54.2802 58.826Z" fill="#171553"/>
<path d="M63.3981 58.8256C63.4149 60.9125 61.5815 61.9234 60.2702 61.9225C58.9457 61.9216 57.0978 60.9143 57.0633 58.8256C57.0283 56.7241 58.888 55.7209 60.1979 55.7213C61.522 55.7213 63.3812 56.7255 63.3981 58.8256Z" fill="#171553"/>
<path d="M130.283 48.102C130.327 48.9671 131.073 49.4042 131.655 49.4101C132.25 49.4161 132.97 48.9131 132.965 48.102C132.959 47.2892 132.173 46.7921 131.585 46.7944C130.848 46.7975 130.248 47.405 130.283 48.102Z" fill="#171553"/>
<path d="M121.08 48.102C121.105 49.1353 122.045 49.71 122.762 49.7119C123.464 49.7137 124.407 49.1303 124.381 48.102C124.355 47.0711 123.406 46.4958 122.689 46.4931C121.987 46.4904 121.056 47.0738 121.08 48.102Z" fill="#171553"/>
<path d="M111.876 48.102C111.901 49.362 113.03 50.0126 113.866 50.0135C114.685 50.0145 115.823 49.3602 115.795 48.102C115.768 46.843 114.628 46.1932 113.793 46.1914C112.973 46.1896 111.851 46.8457 111.876 48.102L111.876 48.102Z" fill="#171553"/>
<path d="M102.673 48.102C102.696 49.5814 104.013 50.3153 104.969 50.3157C105.911 50.3162 107.237 49.5814 107.211 48.102C107.185 46.6235 105.857 45.8911 104.901 45.8897C103.959 45.8883 102.65 46.6253 102.673 48.102L102.673 48.102Z" fill="#171553"/>
<path d="M93.4695 48.102C93.4881 49.7836 94.9862 50.6169 96.0698 50.6174C97.1421 50.6174 98.6488 49.7827 98.6266 48.102C98.6038 46.4227 97.0971 45.5894 96.0126 45.5885C94.9394 45.5871 93.4508 46.4245 93.4695 48.102Z" fill="#171553"/>
<path d="M84.2663 48.102C84.279 50.0008 85.9642 50.9191 87.1701 50.9196C88.3669 50.9196 90.0604 50.0008 90.0422 48.102C90.024 46.2064 88.3333 45.2872 87.1274 45.2868C85.9297 45.2858 84.2535 46.2078 84.2667 48.102L84.2663 48.102Z" fill="#171553"/>
<path d="M75.0626 48.102C75.068 50.2135 76.94 51.2213 78.2686 51.2213C79.5917 51.2213 81.4692 50.2144 81.4574 48.102C81.4455 45.9937 79.5731 44.9855 78.245 44.9851C76.9209 44.9851 75.0576 45.9947 75.063 48.102L75.0626 48.102Z" fill="#171553"/>
<path d="M65.8594 48.102C65.8557 50.4198 67.9126 51.5234 69.3662 51.5234C70.8206 51.5234 72.8762 50.4184 72.8725 48.102C72.8689 45.7906 70.8201 44.6838 69.3657 44.6838C67.9117 44.6838 65.863 45.7893 65.8594 48.102Z" fill="#171553"/>
<path d="M8.12286 48.102C8.15829 47.405 7.55807 46.798 6.82064 46.7948C6.23269 46.7921 5.44662 47.2896 5.44117 48.102C5.43527 48.9131 6.1559 49.4156 6.75113 49.4101C7.3318 49.4047 8.07878 48.9671 8.1224 48.102L8.12286 48.102Z" fill="#171553"/>
<path d="M17.3261 48.102C17.3506 47.0742 16.4196 46.4904 15.7176 46.4931C15.0001 46.4958 14.0519 47.0701 14.0255 48.102C13.9996 49.1312 14.9424 49.7132 15.6445 49.7118C16.3614 49.71 17.3011 49.1348 17.3256 48.102L17.3261 48.102Z" fill="#171553"/>
<path d="M26.5293 48.102C26.5538 46.8452 25.432 46.1896 24.6123 46.1914C23.7767 46.1932 22.6372 46.8434 22.6104 48.102C22.5836 49.3602 23.7199 50.0145 24.5401 50.0135C25.3752 50.0126 26.5047 49.3624 26.5297 48.102L26.5293 48.102Z" fill="#171553"/>
<path d="M35.733 48.102C35.7552 46.6249 34.4471 45.8883 33.5043 45.8897C32.5483 45.8911 31.2206 46.6244 31.1952 48.102C31.1697 49.581 32.4951 50.3162 33.4375 50.3157C34.393 50.3152 35.7107 49.5823 35.733 48.102Z" fill="#171553"/>
<path d="M44.9362 48.102C44.9548 46.424 43.4658 45.5871 42.3931 45.5885C41.3085 45.5894 39.8018 46.4231 39.7796 48.102C39.7573 49.7832 41.2635 50.6179 42.3363 50.6174C43.4204 50.6174 44.9185 49.7836 44.9366 48.102L44.9362 48.102Z" fill="#171553"/>
<path d="M54.1399 48.102C54.153 46.2064 52.4764 45.2858 51.2792 45.2868C50.0737 45.2877 48.3816 46.2059 48.3644 48.102C48.3467 50.0013 50.0396 50.92 51.2364 50.9196C52.4419 50.9196 54.1271 50.0017 54.1399 48.102Z" fill="#171553"/>
<path d="M63.3431 48.102C63.349 45.9942 61.4847 44.9846 60.1611 44.9851C58.8335 44.9851 56.9601 45.9924 56.9483 48.102C56.9365 50.2157 58.8148 51.2213 60.1371 51.2213C61.4593 51.2213 63.3367 50.2139 63.3426 48.102L63.3431 48.102Z" fill="#171553"/>
</g>
</svg>
