<?xml version="1.0" encoding="UTF-8"?>
<!--Generator: Apple Native CoreSVG 175-->
<!DOCTYPE svg
PUBLIC "-//W3C//DTD SVG 1.1//EN"
       "http://www.w3.org/Graphics/SVG/1.1/DTD/svg11.dtd">
<svg version="1.1" xmlns="http://www.w3.org/2000/svg" xmlns:xlink="http://www.w3.org/1999/xlink" width="3300" height="2200">
 <!--glyph: "", point size: 100.0, font version: "17.0d12e1", template writer version: "65.1"-->
 <g id="Notes">
  <rect height="2200" id="artboard" style="fill:white;opacity:1" width="3300" x="0" y="0"/>
  <line style="fill:none;stroke:black;opacity:1;stroke-width:0.5;" x1="263" x2="3036" y1="292" y2="292"/>
  <text style="stroke:none;fill:black;font-family:sans-serif;font-size:13;font-weight:bold;" transform="matrix(1 0 0 1 263 322)">Weight/Scale Variations</text>
  <text style="stroke:none;fill:black;font-family:sans-serif;font-size:13;text-anchor:middle;" transform="matrix(1 0 0 1 559.711 322)">Ultralight</text>
  <text style="stroke:none;fill:black;font-family:sans-serif;font-size:13;text-anchor:middle;" transform="matrix(1 0 0 1 856.422 322)">Thin</text>
  <text style="stroke:none;fill:black;font-family:sans-serif;font-size:13;text-anchor:middle;" transform="matrix(1 0 0 1 1153.13 322)">Light</text>
  <text style="stroke:none;fill:black;font-family:sans-serif;font-size:13;text-anchor:middle;" transform="matrix(1 0 0 1 1449.84 322)">Regular</text>
  <text style="stroke:none;fill:black;font-family:sans-serif;font-size:13;text-anchor:middle;" transform="matrix(1 0 0 1 1746.56 322)">Medium</text>
  <text style="stroke:none;fill:black;font-family:sans-serif;font-size:13;text-anchor:middle;" transform="matrix(1 0 0 1 2043.27 322)">Semibold</text>
  <text style="stroke:none;fill:black;font-family:sans-serif;font-size:13;text-anchor:middle;" transform="matrix(1 0 0 1 2339.98 322)">Bold</text>
  <text style="stroke:none;fill:black;font-family:sans-serif;font-size:13;text-anchor:middle;" transform="matrix(1 0 0 1 2636.69 322)">Heavy</text>
  <text style="stroke:none;fill:black;font-family:sans-serif;font-size:13;text-anchor:middle;" transform="matrix(1 0 0 1 2933.4 322)">Black</text>
  <line style="fill:none;stroke:black;opacity:1;stroke-width:0.5;" x1="263" x2="3036" y1="1903" y2="1903"/>
  <g transform="matrix(1 0 0 1 263 1933)">
   <path d="M9.24805 0.830078Q10.8691 0.830078 12.2949 0.214844Q13.7207-0.400391 14.8096-1.49414Q15.8984-2.58789 16.5186-4.01367Q17.1387-5.43945 17.1387-7.05078Q17.1387-8.66211 16.5186-10.0879Q15.8984-11.5137 14.8047-12.6074Q13.7109-13.7012 12.2852-14.3164Q10.8594-14.9316 9.23828-14.9316Q7.62695-14.9316 6.20117-14.3164Q4.77539-13.7012 3.69141-12.6074Q2.60742-11.5137 1.9873-10.0879Q1.36719-8.66211 1.36719-7.05078Q1.36719-5.43945 1.9873-4.01367Q2.60742-2.58789 3.69629-1.49414Q4.78516-0.400391 6.21094 0.214844Q7.63672 0.830078 9.24805 0.830078ZM9.24805-0.654297Q7.91992-0.654297 6.7627-1.14746Q5.60547-1.64062 4.73145-2.51953Q3.85742-3.39844 3.36426-4.56055Q2.87109-5.72266 2.87109-7.05078Q2.87109-8.37891 3.35938-9.54102Q3.84766-10.7031 4.72168-11.582Q5.5957-12.4609 6.75293-12.9541Q7.91016-13.4473 9.23828-13.4473Q10.5762-13.4473 11.7334-12.9541Q12.8906-12.4609 13.7695-11.582Q14.6484-10.7031 15.1465-9.54102Q15.6445-8.37891 15.6445-7.05078Q15.6445-5.72266 15.1514-4.56055Q14.6582-3.39844 13.7842-2.51953Q12.9102-1.64062 11.748-1.14746Q10.5859-0.654297 9.24805-0.654297ZM5.6543-7.05078Q5.6543-6.72852 5.85938-6.52832Q6.06445-6.32812 6.40625-6.32812L8.51562-6.32812L8.51562-4.20898Q8.51562-3.88672 8.71094-3.67676Q8.90625-3.4668 9.23828-3.4668Q9.56055-3.4668 9.77051-3.67676Q9.98047-3.88672 9.98047-4.20898L9.98047-6.32812L12.0898-6.32812Q12.4219-6.32812 12.627-6.52832Q12.832-6.72852 12.832-7.05078Q12.832-7.38281 12.627-7.58789Q12.4219-7.79297 12.0898-7.79297L9.98047-7.79297L9.98047-9.90234Q9.98047-10.2344 9.77051-10.4443Q9.56055-10.6543 9.23828-10.6543Q8.90625-10.6543 8.71094-10.4443Q8.51562-10.2344 8.51562-9.90234L8.51562-7.79297L6.40625-7.79297Q6.06445-7.79297 5.85938-7.58789Q5.6543-7.38281 5.6543-7.05078Z"/>
  </g>
  <g transform="matrix(1 0 0 1 281.867 1933)">
   <path d="M11.709 2.91016Q13.75 2.91016 15.5518 2.12891Q17.3535 1.34766 18.7305-0.0292969Q20.1074-1.40625 20.8887-3.20801Q21.6699-5.00977 21.6699-7.05078Q21.6699-9.0918 20.8887-10.8936Q20.1074-12.6953 18.7305-14.0723Q17.3535-15.4492 15.5469-16.2305Q13.7402-17.0117 11.6992-17.0117Q9.6582-17.0117 7.85645-16.2305Q6.05469-15.4492 4.68262-14.0723Q3.31055-12.6953 2.5293-10.8936Q1.74805-9.0918 1.74805-7.05078Q1.74805-5.00977 2.5293-3.20801Q3.31055-1.40625 4.6875-0.0292969Q6.06445 1.34766 7.86621 2.12891Q9.66797 2.91016 11.709 2.91016ZM11.709 1.25Q9.98047 1.25 8.47656 0.605469Q6.97266-0.0390625 5.83496-1.17676Q4.69727-2.31445 4.05762-3.81836Q3.41797-5.32227 3.41797-7.05078Q3.41797-8.7793 4.05762-10.2832Q4.69727-11.7871 5.83008-12.9297Q6.96289-14.0723 8.4668-14.7119Q9.9707-15.3516 11.6992-15.3516Q13.4277-15.3516 14.9316-14.7119Q16.4355-14.0723 17.5781-12.9297Q18.7207-11.7871 19.3652-10.2832Q20.0098-8.7793 20.0098-7.05078Q20.0098-5.32227 19.3701-3.81836Q18.7305-2.31445 17.5928-1.17676Q16.4551-0.0390625 14.9463 0.605469Q13.4375 1.25 11.709 1.25ZM7.17773-7.05078Q7.17773-6.69922 7.41211-6.47461Q7.64648-6.25 8.01758-6.25L10.8887-6.25L10.8887-3.36914Q10.8887-2.99805 11.1133-2.76855Q11.3379-2.53906 11.6895-2.53906Q12.0605-2.53906 12.29-2.76855Q12.5195-2.99805 12.5195-3.36914L12.5195-6.25L15.4004-6.25Q15.7715-6.25 16.001-6.47461Q16.2305-6.69922 16.2305-7.05078Q16.2305-7.42188 16.001-7.65137Q15.7715-7.88086 15.4004-7.88086L12.5195-7.88086L12.5195-10.752Q12.5195-11.1328 12.29-11.3623Q12.0605-11.5918 11.6895-11.5918Q11.3379-11.5918 11.1133-11.3574Q10.8887-11.123 10.8887-10.752L10.8887-7.88086L8.01758-7.88086Q7.63672-7.88086 7.40723-7.65137Q7.17773-7.42188 7.17773-7.05078Z"/>
  </g>
  <g transform="matrix(1 0 0 1 305.646 1933)">
   <path d="M14.9707 5.66406Q17.0605 5.66406 18.96 5.01465Q20.8594 4.36523 22.4512 3.19336Q24.043 2.02148 25.2197 0.429688Q26.3965-1.16211 27.0459-3.06641Q27.6953-4.9707 27.6953-7.05078Q27.6953-9.14062 27.0459-11.04Q26.3965-12.9395 25.2197-14.5312Q24.043-16.123 22.4512-17.2998Q20.8594-18.4766 18.9551-19.126Q17.0508-19.7754 14.9609-19.7754Q12.8711-19.7754 10.9717-19.126Q9.07227-18.4766 7.48535-17.2998Q5.89844-16.123 4.72168-14.5312Q3.54492-12.9395 2.90039-11.04Q2.25586-9.14062 2.25586-7.05078Q2.25586-4.9707 2.90527-3.06641Q3.55469-1.16211 4.72656 0.429688Q5.89844 2.02148 7.49023 3.19336Q9.08203 4.36523 10.9814 5.01465Q12.8809 5.66406 14.9707 5.66406ZM14.9707 3.84766Q13.1641 3.84766 11.5283 3.2959Q9.89258 2.74414 8.53516 1.74805Q7.17773 0.751953 6.17676-0.610352Q5.17578-1.97266 4.62891-3.6084Q4.08203-5.24414 4.08203-7.05078Q4.08203-8.86719 4.62891-10.5029Q5.17578-12.1387 6.17188-13.501Q7.16797-14.8633 8.52539-15.8594Q9.88281-16.8555 11.5186-17.4023Q13.1543-17.9492 14.9609-17.9492Q16.7773-17.9492 18.4131-17.4023Q20.0488-16.8555 21.4111-15.8594Q22.7734-14.8633 23.7695-13.501Q24.7656-12.1387 25.3174-10.5029Q25.8691-8.86719 25.8691-7.05078Q25.8789-5.24414 25.332-3.6084Q24.7852-1.97266 23.7842-0.610352Q22.7832 0.751953 21.4209 1.74805Q20.0586 2.74414 18.4229 3.2959Q16.7871 3.84766 14.9707 3.84766ZM9.19922-7.05078Q9.19922-6.66992 9.45801-6.4209Q9.7168-6.17188 10.1172-6.17188L14.0625-6.17188L14.0625-2.2168Q14.0625-1.81641 14.3115-1.55762Q14.5605-1.29883 14.9512-1.29883Q15.3516-1.29883 15.6104-1.55273Q15.8691-1.80664 15.8691-2.2168L15.8691-6.17188L19.8242-6.17188Q20.2246-6.17188 20.4785-6.4209Q20.7324-6.66992 20.7324-7.05078Q20.7324-7.46094 20.4785-7.71484Q20.2246-7.96875 19.8242-7.96875L15.8691-7.96875L15.8691-11.9141Q15.8691-12.3242 15.6104-12.583Q15.3516-12.8418 14.9512-12.8418Q14.5605-12.8418 14.3115-12.583Q14.0625-12.3242 14.0625-11.9141L14.0625-7.96875L10.1172-7.96875Q9.70703-7.96875 9.45312-7.71484Q9.19922-7.46094 9.19922-7.05078Z"/>
  </g>
  <text style="stroke:none;fill:black;font-family:sans-serif;font-size:13;font-weight:bold;" transform="matrix(1 0 0 1 263 1953)">Design Variations</text>
  <text style="stroke:none;fill:black;font-family:sans-serif;font-size:13;" transform="matrix(1 0 0 1 263 1971)">Symbols are supported in up to nine weights and three scales.</text>
  <text style="stroke:none;fill:black;font-family:sans-serif;font-size:13;" transform="matrix(1 0 0 1 263 1989)">For optimal layout with text and other symbols, vertically align</text>
  <text style="stroke:none;fill:black;font-family:sans-serif;font-size:13;" transform="matrix(1 0 0 1 263 2007)">symbols with the adjacent text.</text>
  <line style="fill:none;stroke:#00AEEF;stroke-width:0.5;opacity:1.0;" x1="776" x2="776" y1="1919" y2="1933"/>
  <g transform="matrix(1 0 0 1 776 1933)">
   <path d="M3.31055 0.15625Q3.70117 0.15625 3.91602-0.00976562Q4.13086-0.175781 4.26758-0.585938L5.52734-4.0332L11.2891-4.0332L12.5488-0.585938Q12.6855-0.175781 12.9004-0.00976562Q13.1152 0.15625 13.4961 0.15625Q13.8867 0.15625 14.1162-0.0585938Q14.3457-0.273438 14.3457-0.644531Q14.3457-0.869141 14.2383-1.17188L9.6582-13.3691Q9.48242-13.8184 9.17969-14.043Q8.87695-14.2676 8.4082-14.2676Q7.5-14.2676 7.17773-13.3789L2.59766-1.16211Q2.49023-0.859375 2.49023-0.634766Q2.49023-0.263672 2.70996-0.0537109Q2.92969 0.15625 3.31055 0.15625ZM6.00586-5.51758L8.37891-12.0898L8.42773-12.0898L10.8008-5.51758Z"/>
  </g>
  <line style="fill:none;stroke:#00AEEF;stroke-width:0.5;opacity:1.0;" x1="793.197" x2="793.197" y1="1919" y2="1933"/>
  <text style="stroke:none;fill:black;font-family:sans-serif;font-size:13;font-weight:bold;" transform="matrix(1 0 0 1 776 1953)">Margins</text>
  <text style="stroke:none;fill:black;font-family:sans-serif;font-size:13;" transform="matrix(1 0 0 1 776 1971)">Leading and trailing margins on the left and right side of each symbol</text>
  <text style="stroke:none;fill:black;font-family:sans-serif;font-size:13;" transform="matrix(1 0 0 1 776 1989)">can be adjusted by modifying the x-location of the margin guidelines.</text>
  <text style="stroke:none;fill:black;font-family:sans-serif;font-size:13;" transform="matrix(1 0 0 1 776 2007)">Modifications are automatically applied proportionally to all</text>
  <text style="stroke:none;fill:black;font-family:sans-serif;font-size:13;" transform="matrix(1 0 0 1 776 2025)">scales and weights.</text>
  <g transform="matrix(1 0 0 1 1289 1933)">
   <path d="M2.8418 1.86523L4.54102 3.57422Q5.18555 4.22852 5.90332 4.17969Q6.62109 4.13086 7.31445 3.35938L18.0078-8.42773L17.041-9.4043L6.42578 2.27539Q6.16211 2.57812 5.89355 2.61719Q5.625 2.65625 5.27344 2.30469L4.10156 1.14258Q3.75 0.791016 3.79395 0.522461Q3.83789 0.253906 4.14062-0.0195312L15.6152-10.8203L14.6387-11.7871L3.04688-0.898438Q2.30469-0.214844 2.25098 0.498047Q2.19727 1.21094 2.8418 1.86523ZM9.25781-16.3281Q8.94531-16.0254 8.90625-15.6348Q8.86719-15.2441 9.04297-14.9512Q9.21875-14.6777 9.55566-14.541Q9.89258-14.4043 10.3809-14.5215Q11.4746-14.7754 12.5977-14.7314Q13.7207-14.6875 14.7949-13.9844L14.209-12.5293Q13.9551-11.9043 14.0674-11.4404Q14.1797-10.9766 14.5801-10.5664L16.875-8.25195Q17.2363-7.88086 17.5781-7.82227Q17.9199-7.76367 18.3398-7.8418L19.4043-8.03711L20.0684-7.36328L20.0293-6.80664Q20-6.43555 20.1221-6.12305Q20.2441-5.81055 20.6055-5.44922L21.3672-4.70703Q21.7285-4.3457 22.1533-4.33105Q22.5781-4.31641 22.9297-4.66797L25.8398-7.58789Q26.1914-7.93945 26.1816-8.35449Q26.1719-8.76953 25.8105-9.13086L25.0391-9.89258Q24.6875-10.2539 24.3799-10.3857Q24.0723-10.5176 23.7109-10.4883L23.1348-10.4395L22.4902-11.0742L22.7344-12.1973Q22.832-12.6172 22.6953-12.9834Q22.5586-13.3496 22.1191-13.7891L19.9219-15.9766Q18.6719-17.2168 17.2607-17.8369Q15.8496-18.457 14.4189-18.4814Q12.9883-18.5059 11.665-17.959Q10.3418-17.4121 9.25781-16.3281ZM10.752-15.957Q11.6602-16.6211 12.7002-16.9043Q13.7402-17.1875 14.8047-17.085Q15.8691-16.9824 16.8701-16.5137Q17.8711-16.0449 18.7012-15.2051L21.1328-12.793Q21.3086-12.6172 21.3525-12.4512Q21.3965-12.2852 21.3379-12.0312L21.0156-10.5469L22.5195-9.0625L23.5059-9.12109Q23.6914-9.13086 23.7891-9.09668Q23.8867-9.0625 24.0332-8.91602L24.6094-8.33984L22.168-5.89844L21.5918-6.47461Q21.4453-6.62109 21.4062-6.71875Q21.3672-6.81641 21.377-7.01172L21.4453-7.98828L19.9512-9.47266L18.4277-9.21875Q18.1836-9.16992 18.042-9.2041Q17.9004-9.23828 17.7148-9.41406L15.7129-11.416Q15.5176-11.5918 15.4932-11.7529Q15.4688-11.9141 15.5859-12.1875L16.4648-14.2773Q15.293-15.3711 13.8281-15.791Q12.3633-16.2109 10.8398-15.7617Q10.7227-15.7324 10.6885-15.8057Q10.6543-15.8789 10.752-15.957Z"/>
  </g>
  <text style="stroke:none;fill:black;font-family:sans-serif;font-size:13;font-weight:bold;" transform="matrix(1 0 0 1 1289 1953)">Exporting</text>
  <text style="stroke:none;fill:black;font-family:sans-serif;font-size:13;" transform="matrix(1 0 0 1 1289 1971)">Symbols should be outlined when exporting to ensure the</text>
  <text style="stroke:none;fill:black;font-family:sans-serif;font-size:13;" transform="matrix(1 0 0 1 1289 1989)">design is preserved when submitting to Xcode.</text>
  <text id="template-version" style="stroke:none;fill:black;font-family:sans-serif;font-size:13;text-anchor:end;" transform="matrix(1 0 0 1 3036 1933)">Template v.2.0</text>
  <text style="stroke:none;fill:black;font-family:sans-serif;font-size:13;text-anchor:end;" transform="matrix(1 0 0 1 3036 1951)">Requires Xcode 13 or greater</text>
  <text id="descriptive-name" style="stroke:none;fill:black;font-family:sans-serif;font-size:13;text-anchor:end;" transform="matrix(1 0 0 1 3036 1969)">Generated from brave.gear</text>
  <text style="stroke:none;fill:black;font-family:sans-serif;font-size:13;text-anchor:end;" transform="matrix(1 0 0 1 3036 1987)">Typeset at 100 points</text>
  <text style="stroke:none;fill:black;font-family:sans-serif;font-size:13;" transform="matrix(1 0 0 1 263 726)">Small</text>
  <text style="stroke:none;fill:black;font-family:sans-serif;font-size:13;" transform="matrix(1 0 0 1 263 1156)">Medium</text>
  <text style="stroke:none;fill:black;font-family:sans-serif;font-size:13;" transform="matrix(1 0 0 1 263 1586)">Large</text>
 </g>
 <g id="Guides">
  <g id="H-reference" style="fill:#27AAE1;stroke:none;" transform="matrix(1 0 0 1 339 696)">
   <path d="M0.993347 0L3.6377 0L29.3282-67.1326L30.0301-67.1326L30.0301-70.459L28.1227-70.459ZM11.6882-24.4797L46.9818-24.4797L46.2311-26.7288L12.4382-26.7288ZM55.1193 0L57.7637 0L30.6381-70.459L29.4327-70.459L29.4327-67.1326Z"/>
  </g>
  <line id="Baseline-S" style="fill:none;stroke:#27AAE1;opacity:1;stroke-width:0.5;" x1="263" x2="3036" y1="696" y2="696"/>
  <line id="Capline-S" style="fill:none;stroke:#27AAE1;opacity:1;stroke-width:0.5;" x1="263" x2="3036" y1="625.541" y2="625.541"/>
  <g id="H-reference" style="fill:#27AAE1;stroke:none;" transform="matrix(1 0 0 1 339 1126)">
   <path d="M0.993347 0L3.6377 0L29.3282-67.1326L30.0301-67.1326L30.0301-70.459L28.1227-70.459ZM11.6882-24.4797L46.9818-24.4797L46.2311-26.7288L12.4382-26.7288ZM55.1193 0L57.7637 0L30.6381-70.459L29.4327-70.459L29.4327-67.1326Z"/>
  </g>
  <line id="Baseline-M" style="fill:none;stroke:#27AAE1;opacity:1;stroke-width:0.5;" x1="263" x2="3036" y1="1126" y2="1126"/>
  <line id="Capline-M" style="fill:none;stroke:#27AAE1;opacity:1;stroke-width:0.5;" x1="263" x2="3036" y1="1055.54" y2="1055.54"/>
  <g id="H-reference" style="fill:#27AAE1;stroke:none;" transform="matrix(1 0 0 1 339 1556)">
   <path d="M0.993347 0L3.6377 0L29.3282-67.1326L30.0301-67.1326L30.0301-70.459L28.1227-70.459ZM11.6882-24.4797L46.9818-24.4797L46.2311-26.7288L12.4382-26.7288ZM55.1193 0L57.7637 0L30.6381-70.459L29.4327-70.459L29.4327-67.1326Z"/>
  </g>
  <line id="Baseline-L" style="fill:none;stroke:#27AAE1;opacity:1;stroke-width:0.5;" x1="263" x2="3036" y1="1556" y2="1556"/>
  <line id="Capline-L" style="fill:none;stroke:#27AAE1;opacity:1;stroke-width:0.5;" x1="263" x2="3036" y1="1485.54" y2="1485.54"/>
  <line id="left-margin" style="fill:none;stroke:#00AEEF;stroke-width:0.5;opacity:1.0;" x1="1388.86" x2="1388.86" y1="1030.78" y2="1150.12"/>
  <line id="right-margin" style="fill:none;stroke:#00AEEF;stroke-width:0.5;opacity:1.0;" x1="1510.83" x2="1510.83" y1="1030.78" y2="1150.12"/>
 </g>
 <g id="Symbols">
  <g id="Regular-L" transform="matrix(1 0 0 1 1373.36 1556)">
   <path d="M76.5 13.0352C75.9385 13.0352 75.3734 13.0247 74.8045 13.0051L67.096 24.8137C65.1091 27.8582 61.3494 29.3061 57.8569 28.2941C47.2554 25.2615 37.6081 19.6929 29.7029 12.1038C27.0544 9.55249 26.4272 5.54793 28.0877 2.28771L34.495-10.2872C33.9139-11.217 33.3648-12.1635 32.8488-13.125L18.6878-13.88C15.0684-14.0542 11.9327-16.5678 11.0311-20.1304C9.6918-25.4721 9-30.9089 9-36.3863C9-41.8637 9.6918-47.3003 11.0341-52.6541C11.9327-56.2044 15.0684-58.7185 18.6605-58.8911L32.8488-59.6473C33.3648-60.6093 33.9139-61.5556 34.495-62.4854L28.0874-75.0609C26.4272-78.3203 27.0544-82.3253 29.709-84.882C37.6081-92.4652 47.2554-98.0337 57.839-101.062C61.3494-102.079 65.1091-100.63 67.0957-97.5864L74.8045-85.7775C75.3734-85.7974 75.9385-85.8075 76.5-85.8075C77.0615-85.8075 77.6266-85.7974 78.1955-85.7775L85.9043-97.5859C87.891-100.631 91.6486-102.077 95.1495-101.067C105.746-98.0331 115.393-92.464 123.297-84.8761C125.942-82.3282 126.564-78.3334 124.913-75.0604L118.504-62.4842C119.084-61.5564 119.632-60.6105 120.148-59.6473L134.312-58.8924C137.928-58.718 141.068-56.2038 141.969-52.6422C143.308-47.3003 144-41.8637 144-36.3863C144-30.9089 143.308-25.4721 141.966-20.1183C141.068-16.5686 137.928-14.0542 134.34-13.8815L120.148-13.125C119.632-12.162 119.084-11.2163 118.504-10.2887L124.922 2.30656C126.564 5.56076 125.942 9.55549 123.291 12.1099C115.393 19.6914 105.746 25.2609 95.1608 28.2903C91.6486 29.3039 87.891 27.8582 85.9043 24.8137L78.1955 13.0051C77.6266 13.0247 77.0615 13.0352 76.5 13.0352ZM59.162 17.5813L67.6504 4.57884C68.7257 2.931 70.6189 2.0162 72.5699 2.20173C73.9251 2.33069 75.2337 2.39706 76.5001 2.39706C77.7663 2.39706 79.075 2.33069 80.4301 2.20173C82.3812 2.0162 84.2744 2.931 85.35 4.57884L93.8392 17.5836C101.601 15.1152 108.712 11.0201 114.713 5.59997L107.666-8.23128C106.758-10.0127 106.921-12.1544 108.088-13.7759C109.609-15.8875 110.909-18.1266 111.977-20.4804C112.795-22.2835 114.541-23.4789 116.509-23.5838L132.107-24.4156C132.975-28.3719 133.421-32.3703 133.421-36.3863C133.421-40.4047 132.975-44.4063 132.107-48.3572L116.509-49.1884C114.541-49.2932 112.795-50.4892 111.977-52.2919C110.909-54.6458 109.609-56.8852 108.088-58.9967C106.921-60.6177 106.758-62.7602 107.666-64.5412L114.713-78.3725C108.711-83.7922 101.604-87.8853 93.8392-90.3554L85.35-77.351C84.2744-75.7035 82.3812-74.789 80.4301-74.9745C79.075-75.1032 77.7663-75.1693 76.5001-75.1693C75.2337-75.1693 73.9251-75.1032 72.5699-74.9745C70.6189-74.789 68.7257-75.7035 67.6504-77.351L59.1618-90.3554C51.3979-87.8865 44.2878-83.7921 38.2871-78.3728L45.3346-64.5412C46.2421-62.7602 46.0787-60.6177 44.9116-58.9967C43.3807-56.8704 42.0803-54.6328 41.0269-52.3005C40.2107-50.4933 38.4617-49.2935 36.4905-49.1884L20.8934-48.3572C20.0246-44.4008 19.5795-40.4021 19.5795-36.3863C19.5795-32.3677 20.0252-28.3666 20.8932-24.4156L36.4905-23.5838C38.4617-23.4789 40.2107-22.2791 41.0269-20.4721C42.0803-18.1395 43.3807-15.9019 44.9116-13.7759C46.0787-12.1544 46.2421-10.0127 45.3346-8.23128L38.2872 5.59997C44.288 11.0186 51.3921 15.1099 59.162 17.5813ZM51.9038-36.3863C51.9038-50.0459 62.9156-61.1189 76.5001-61.1189C90.0848-61.1189 101.096-50.0459 101.096-36.3863C101.096-22.7263 90.0848-11.6537 76.5001-11.6537C62.9156-11.6537 51.9038-22.7263 51.9038-36.3863ZM62.4832-36.3862C62.4832-28.6019 68.7585-22.2918 76.5001-22.2918C84.2415-22.2918 90.5168-28.6019 90.5168-36.3862C90.5168-44.1707 84.2415-50.4809 76.5001-50.4809C68.7585-50.4809 62.4832-44.1707 62.4832-36.3862Z"/>
  </g>
  <g id="Regular-M" transform="matrix(1 0 0 1 1388.86 1126)">
   <path d="M61 0.883405C60.5674 0.883405 60.1321 0.875285 59.6938 0.860205L53.7554 9.94373C52.2248 12.2856 49.3284 13.3994 46.6379 12.6209C38.4708 10.2882 31.0388 6.00472 24.9489 0.16696C22.9086-1.79559 22.4254-4.87605 23.7046-7.38391L28.6406-17.057C28.1929-17.7722 27.7699-18.5003 27.3724-19.2399L16.4632-19.8207C13.6749-19.9547 11.2593-21.8882 10.5647-24.6287C9.53294-28.7377 9-32.9198 9-37.1332C9-41.3466 9.53294-45.5286 10.567-49.6469C11.2593-52.3779 13.6749-54.3118 16.4422-54.4446L27.3724-55.0263C27.7699-55.7663 28.1929-56.4942 28.6406-57.2094L23.7044-66.8829C22.4254-69.3901 22.9086-72.4709 24.9536-74.4376C31.0388-80.2708 38.4708-84.5543 46.6241-86.8831C49.3284-87.6659 52.2248-86.5517 53.7552-84.2102L59.6938-75.1264C60.1321-75.1417 60.5674-75.1495 61-75.1495C61.4326-75.1495 61.8679-75.1417 62.3062-75.1264L68.2448-84.2098C69.7753-86.5518 72.67-87.6641 75.367-86.8869C83.5304-84.5538 90.9624-80.2699 97.051-74.433C99.0888-72.4731 99.5678-69.4002 98.2956-66.8825L93.359-57.2085C93.8051-56.4948 94.2274-55.7672 94.6255-55.0263L105.537-54.4456C108.322-54.3114 110.741-52.3774 111.435-49.6377C112.467-45.5286 113-41.3466 113-37.1332C113-32.9198 112.467-28.7377 111.433-24.6194C110.741-21.8888 108.322-19.9547 105.558-19.8218L94.6255-19.2399C94.2274-18.4991 93.8051-17.7717 93.359-17.0581L98.3031-7.36941C99.5678-4.86618 99.0888-1.79327 97.0464 0.1716C90.9624 6.00356 83.5304 10.2877 75.3757 12.618C72.67 13.3977 69.7753 12.2856 68.2448 9.94373L62.3062 0.860205C61.8679 0.875285 61.4326 0.883405 61 0.883405ZM47.6433 4.38038L54.1825-5.6215C55.0109-6.88907 56.4694-7.59276 57.9724-7.45005C59.0164-7.35085 60.0245-7.29979 61.0001-7.29979C61.9755-7.29979 62.9837-7.35085 64.0276-7.45005C65.5307-7.59276 66.9892-6.88907 67.8178-5.6215L74.3576 4.38212C80.3371 2.48338 85.815-0.666668 90.4384-4.83602L85.009-15.4755C84.3099-16.8458 84.4358-18.4933 85.3348-19.7406C86.506-21.3649 87.5079-23.0873 88.3306-24.8979C88.9604-26.2849 90.306-27.2044 91.8221-27.2851L103.838-27.925C104.507-30.9683 104.85-34.044 104.85-37.1332C104.85-40.2243 104.507-43.3024 103.838-46.3416L91.8221-46.981C90.306-47.0616 88.9604-47.9816 88.3306-49.3683C87.5079-51.179 86.506-52.9016 85.3348-54.5258C84.4358-55.7727 84.3099-57.4208 85.009-58.7908L90.4384-69.4303C85.8144-73.5993 80.3394-76.7478 74.3576-78.6479L67.8178-68.6445C66.9892-67.3772 65.5307-66.6737 64.0276-66.8164C62.9837-66.9154 61.9755-66.9663 61.0001-66.9663C60.0245-66.9663 59.0164-66.9154 57.9724-66.8164C56.4694-66.6737 55.0109-67.3772 54.1825-68.6445L47.6432-78.6479C41.6621-76.7487 36.1847-73.5992 31.5619-69.4305L36.9911-58.7908C37.6902-57.4208 37.5643-55.7727 36.6652-54.5258C35.4859-52.8902 34.4841-51.169 33.6726-49.3749C33.0438-47.9847 31.6964-47.0618 30.1779-46.981L18.1623-46.3416C17.493-43.2982 17.1501-40.2223 17.1501-37.1332C17.1501-34.042 17.4935-30.9642 18.1622-27.925L30.1779-27.2851C31.6964-27.2044 33.0438-26.2815 33.6726-24.8915C34.4841-23.0972 35.4859-21.376 36.6652-19.7406C37.5643-18.4933 37.6902-16.8458 36.9911-15.4755L31.562-4.83602C36.1848-0.667828 41.6576 2.47932 47.6433 4.38038ZM42.0518-37.1332C42.0518-47.6406 50.535-56.1583 61.0001-56.1583C71.4653-56.1583 79.9482-47.6406 79.9482-37.1332C79.9482-26.6255 71.4653-18.1081 61.0001-18.1081C50.535-18.1081 42.0518-26.6255 42.0518-37.1332ZM50.2019-37.1331C50.2019-31.1452 55.0362-26.2913 61.0001-26.2913C66.9638-26.2913 71.7981-31.1452 71.7981-37.1331C71.7981-43.1212 66.9638-47.9752 61.0001-47.9752C55.0362-47.9752 50.2019-43.1212 50.2019-37.1331Z"/>
  </g>
  <g id="Regular-S" transform="matrix(1 0 0 1 1400.36 696)">
   <path d="M49.4999-6.76333C49.163-6.76333 48.824-6.76967 48.4827-6.78143L43.8575 0.303769C42.6654 2.13045 40.4096 2.99921 38.3141 2.39198C31.9533 0.572474 26.1648-2.7687 21.4217-7.32217C19.8326-8.85298 19.4563-11.2557 20.4526-13.2119L24.297-20.7569C23.9483-21.3146 23.6188-21.8826 23.3092-22.4595L14.8126-22.9125C12.641-23.017 10.7596-24.5251 10.2187-26.6628C9.41508-29.8678 9-33.1298 9-36.4163C9-39.7027 9.41508-42.9647 10.2204-46.1769C10.7596-48.3071 12.641-49.8156 14.7963-49.9192L23.3092-50.3729C23.6188-50.9501 23.9483-51.5179 24.297-52.0757L20.4525-59.6211C19.4563-61.5767 19.8326-63.9796 21.4254-65.5137C26.1648-70.0636 31.9533-73.4048 38.3034-75.2212C40.4096-75.8318 42.6654-74.9627 43.8574-73.1363L48.4827-66.0509C48.824-66.0629 49.163-66.0689 49.4999-66.0689C49.8369-66.0689 50.1759-66.0629 50.5173-66.0509L55.1426-73.136C56.3346-74.9628 58.5891-75.8303 60.6896-75.2241C67.0477-73.4043 72.8361-70.0628 77.5782-65.5101C79.1653-63.9814 79.5383-61.5845 78.5475-59.6207L74.7026-52.075C75.05-51.5183 75.379-50.9508 75.689-50.3729L84.1875-49.92C86.3566-49.8153 88.2406-48.3068 88.7811-46.1698C89.5848-42.9647 90-39.7027 90-36.4163C90-33.1298 89.5848-29.8678 88.7795-26.6555C88.2406-24.5256 86.3566-23.017 84.2038-22.9134L75.689-22.4595C75.379-21.8816 75.05-21.3143 74.7026-20.7576L78.5533-13.2005C79.5383-11.248 79.1653-8.85122 77.5746-7.31855C72.8361-2.76962 67.0477 0.572089 60.6964 2.38972C58.5891 2.99789 56.3346 2.13045 55.1426 0.303769L50.5173-6.78143C50.1759-6.76967 49.8369-6.76333 49.4999-6.76333ZM39.0971-4.0357L44.1902-11.8372C44.8354-12.8259 45.9714-13.3748 47.1419-13.2635C47.9551-13.1861 48.7402-13.1463 49.5001-13.1463C50.2597-13.1463 51.0449-13.1861 51.858-13.2635C53.0287-13.3748 54.1646-12.8259 54.81-11.8372L59.9035-4.03434C64.5606-5.51536 68.8271-7.9724 72.4279-11.2245L68.1992-19.5233C67.6548-20.5921 67.7529-21.8771 68.453-22.85C69.3652-24.117 70.1455-25.4605 70.7863-26.8727C71.2769-27.9546 72.3249-28.6718 73.5056-28.7347L82.8642-29.2338C83.3853-31.6077 83.6524-34.0066 83.6524-36.4163C83.6524-38.8273 83.3853-41.2282 82.8642-43.5988L73.5056-44.0975C72.3249-44.1604 71.2769-44.878 70.7863-45.9596C70.1455-47.372 69.3652-48.7156 68.453-49.9825C67.7529-50.955 67.6548-52.2406 68.1992-53.3092L72.4279-61.608C68.8266-64.8598 64.5624-67.3156 59.9035-68.7977L54.81-60.9951C54.1646-60.0066 53.0287-59.4578 51.858-59.5691C51.0449-59.6463 50.2597-59.6861 49.5001-59.6861C48.7402-59.6861 47.9551-59.6463 47.1419-59.5691C45.9714-59.4578 44.8354-60.0066 44.1902-60.9951L39.097-68.7977C34.4387-67.3164 30.1727-64.8597 26.5723-61.6082L30.8008-53.3092C31.3452-52.2406 31.2472-50.955 30.547-49.9825C29.6285-48.7067 28.8482-47.3642 28.2162-45.9648C27.7264-44.8804 26.677-44.1606 25.4943-44.0975L16.136-43.5988C15.6147-41.2249 15.3477-38.8257 15.3477-36.4163C15.3477-34.0051 15.6152-31.6045 16.1359-29.2338L25.4943-28.7347C26.677-28.6718 27.7264-27.952 28.2162-26.8678C28.8482-25.4682 29.6285-24.1256 30.547-22.85C31.2472-21.8771 31.3452-20.5921 30.8008-19.5233L26.5723-11.2245C30.1727-7.97331 34.4352-5.51852 39.0971-4.0357ZM34.7422-36.4163C34.7422-44.612 41.3494-51.2558 49.5001-51.2558C57.6508-51.2558 64.2577-44.612 64.2577-36.4163C64.2577-28.2203 57.6508-21.5766 49.5001-21.5766C41.3494-21.5766 34.7422-28.2203 34.7422-36.4163ZM41.0899-36.4162C41.0899-31.7456 44.8551-27.9596 49.5001-27.9596C54.1449-27.9596 57.91-31.7456 57.91-36.4162C57.91-41.0868 54.1449-44.873 49.5001-44.873C44.8551-44.873 41.0899-41.0868 41.0899-36.4162Z"/>
  </g>
 </g>
</svg>
