<svg xmlns="http://www.w3.org/2000/svg" xml:space="preserve" id="Layer_1" x="0" y="0" style="enable-background:new 0 0 430 132" version="1.1" viewBox="0 0 430 132"><style>.st0{fill:#131525}</style><g id="Group-4" transform="translate(153 26)"><path id="Shape" d="M-9.8 45.5V.2h4.3C-1.9.2 1 3.1 1 6.6v20.2c7-6.2 12.9-8.7 20.8-8.8 15.1-.3 28.2 10.9 29.5 26 1.5 18-11.6 31.5-28.7 31.5-18.8-.1-32.4-11.7-32.4-30zM.8 49.1c1.1 9.4 10 17.1 19.5 17.3 12.3.2 20.7-7.8 20.7-19.7S32.7 27 20.8 27C8 27-.7 36.2.8 49.1z" class="st0"/><path id="Shape_1_" d="M69.1 19v8.1c6.8-7.5 10.8-9.5 18.7-9.5 2.3 0 4.6.2 6.9.6v10.7c-2.4-.7-4.9-1-7.4-1-5.7 0-10.5 1.9-14.1 5.4-3.1 3.1-4 5.5-4 10.4v29.9H58V19h11.1z" class="st0"/><path id="Shape_2_" d="M97.3 37.1c.6-5.3 1.6-8.2 3.9-10.9 4.6-5.6 12.8-8.5 24.5-8.5 9.3 0 16 1.4 20.7 4.5 3.9 2.5 5.5 6.3 5.5 12.9v24.2c0 5.3 1.4 7.2 5.2 7.1.8 0 1.7-.1 2.5-.2v7.3c-1.9.6-3.9.9-5.8.9-7 0-10.2-2.1-12.4-8.2-6.9 6.3-14 9-24.2 9-13.6 0-22-6.2-22-16.3-.1-5.7 3.3-11 8.6-13.3 4.1-1.8 6.6-2.3 18.4-3.5 10.1-1 11.8-1.2 14.7-2.1 3.1-1 4.5-2.7 4.5-5.4 0-5.9-4.9-8.5-15.2-8.5-9.7 0-14.8 1.9-16.8 6.9-1 2.5-3.4 4.2-6.1 4.2l-6-.1zm44.1 9.3c-7.1 2.1-14.3 3.4-21.7 4-10 1-13.1 2.9-13.1 7.8 0 5.5 4.6 8.4 13.6 8.4 7.4 0 13.1-1.9 17.1-5.5 3.2-3 4-5.1 4-10.3v-4.4z" class="st0"/><path id="Shape_3_" d="M186.5 73.5h-2.9c-2.5 0-4.8-1.4-5.9-3.7l-24-50.8h6.7c3.9 0 7.4 2.2 9 5.8l16 36.5L202 24.7c1.6-3.5 5.1-5.7 9-5.7h6.1l-24.6 50.9c-1.2 2.3-3.5 3.7-6 3.6z" class="st0"/><path id="Shape_4_" d="M224.6 49.5c1.1 10.5 9.4 17 21.6 17 7 0 12.2-2.1 15.4-6.2 1.9-2.4 4.8-3.7 7.8-3.7h6.5C270.2 68.9 260.2 75 245.2 75c-18.7 0-31.4-11.4-31.4-28.4s12.9-29 31.6-29c13.5 0 24.4 6.1 28.8 16.3 1.9 4.7 2.7 8.8 2.7 15.6h-52.3zm41-8.5c-2.5-9.6-10-15-20.3-15s-17.8 5.4-20.4 15h40.7z" class="st0"/></g><g id="build-icons_x2F_Stable"><g id="Logo" transform="translate(10.382)"><linearGradient id="Head_1_" x1="95.665" x2="96.665" y1="174.189" y2="174.189" gradientTransform="matrix(112.3123 0 0 -131.86 -10754.413 23034.498)" gradientUnits="userSpaceOnUse"><stop offset="0" style="stop-color:#f50"/><stop offset=".41" style="stop-color:#f50"/><stop offset=".582" style="stop-color:#ff2000"/><stop offset="1" style="stop-color:#ff2000"/></linearGradient><path id="Head" d="m98.4 31.6 3.1-7.6s-3.9-4.2-8.7-9c-4.8-4.8-14.9-2-14.9-2L66.4 0H25.9L14.4 13.1s-10.1-2.8-14.9 2-8.7 9-8.7 9l3.1 7.6-3.9 11.2S1.6 86.7 2.9 92.1c2.7 10.5 4.5 14.6 12.1 20s21.3 14.6 23.6 16c2.2 1.4 5.1 3.8 7.6 3.8s5.3-2.4 7.6-3.8c2.2-1.4 16-10.7 23.6-16 7.6-5.3 9.4-9.4 12.1-20 1.4-5.4 12.9-49.2 12.9-49.2l-4-11.3z" style="fill:url(#Head_1_)"/><path id="Face" d="M74.7 21.4s14.8 17.9 14.8 21.8-1.9 4.8-3.8 6.8-10.1 10.7-11.1 11.8c-1.1 1.1-3.2 2.8-2 5.9 1.3 3 3.2 6.9 1.1 10.9-2.1 3.9-5.7 6.6-8 6.1-2.3-.4-7.8-3.3-9.8-4.6-2-1.3-8.3-6.5-8.3-8.5s6.6-5.6 7.8-6.4c1.2-.8 6.7-4 6.8-5.2.1-1.2.1-1.6-1.6-4.7-1.6-3.1-4.6-7.2-4.1-9.9s5.2-4.1 8.6-5.4c3.4-1.3 9.9-3.7 10.7-4.1.8-.4.6-.7-1.9-1-2.5-.2-9.4-1.2-12.6-.3s-8.5 2.2-9 2.9c-.4.7-.8.7-.4 3.2.4 2.4 2.8 14.2 3 16.3.2 2.1.7 3.5-1.6 4-2.2.5-6 1.4-7.3 1.4s-5.1-.9-7.3-1.4c-2.2-.5-1.8-1.9-1.6-4s2.5-13.8 3-16.3c.4-2.4.1-2.5-.4-3.2-.4-.7-5.8-2-9-2.9s-10.1 0-12.6.3c-2.5.2-2.7.6-1.9 1 .8.4 7.3 2.8 10.7 4.1 3.4 1.3 8.1 2.7 8.6 5.4s-2.4 6.8-4.1 9.9c-1.6 3.1-1.7 3.4-1.6 4.7.1 1.2 5.6 4.4 6.8 5.2 1.2.8 7.8 4.4 7.8 6.4s-6.3 7.2-8.3 8.5c-2 1.3-7.4 4.1-9.8 4.6-2.3.4-5.9-2.2-8-6.1-2.1-3.9-.2-7.8 1.1-10.9 1.3-3-.9-4.7-2-5.9-.8-1.2-8.9-9.9-10.8-11.8-1.9-2-3.7-3-3.7-6.8s14.8-21.8 14.8-21.8 12.5 2.4 14.2 2.4 5.3-1.4 8.7-2.5 5.6-1.1 5.6-1.1 2.2 0 5.6 1.1 7 2.5 8.7 2.5 14.2-2.4 14.2-2.4zM63.6 89.9c.9.6.4 1.7-.5 2.2-.8.6-12.1 9.3-13.1 10.3-1.1 1-2.7 2.5-3.8 2.5-1.1 0-2.7-1.6-3.8-2.5-1.1-1-12.3-9.7-13.1-10.3-.8-.6-1.4-1.7-.5-2.2.9-.6 3.8-2 7.7-4.1 4-2.1 8.9-3.8 9.7-3.8.8 0 5.7 1.7 9.7 3.8 3.9 2.1 6.7 3.6 7.7 4.1z" style="fill:#fff"/><g id="Top-Head"><linearGradient id="path-3_2_" x1="95.492" x2="96.47" y1="172.774" y2="172.774" gradientTransform="matrix(93.2192 0 0 -23.7599 -8900.126 4116.98)" gradientUnits="userSpaceOnUse"><stop offset="0" style="stop-color:#ff452a"/><stop offset="1" style="stop-color:#ff2000"/></linearGradient><path id="path-3_1_" d="M77.9 13.1 66.4 0H25.9L14.4 13.1s-10.1-2.8-14.9 2c0 0 13.5-1.2 18.1 6.3 0 0 12.5 2.4 14.2 2.4s5.3-1.4 8.7-2.5 5.6-1.1 5.6-1.1 2.2 0 5.6 1.1 7 2.5 8.7 2.5 14.2-2.4 14.2-2.4c4.6-7.5 18.1-6.3 18.1-6.3-4.7-4.8-14.8-2-14.8-2" style="fill:url(#path-3_2_)"/></g></g></g></svg>