<svg width="101" height="31" viewBox="0 0 101 31" fill="none" xmlns="http://www.w3.org/2000/svg">
<path fill-rule="evenodd" clip-rule="evenodd" d="M33.6328 16.6563V6.10156H34.6449C35.4694 6.10156 36.1379 6.76841 36.1379 7.591V12.2839C37.7598 10.8403 39.1391 10.2624 40.9775 10.2253C44.5034 10.1534 47.5637 12.7659 47.8544 16.2725C48.202 20.4616 45.1482 23.615 41.1699 23.615C36.8024 23.615 33.6328 20.9131 33.6328 16.6563ZM36.0964 17.485C36.3434 19.6657 38.4309 21.467 40.6321 21.5019C43.5001 21.5455 45.4543 19.6809 45.4543 16.9223C45.4543 14.1637 43.5438 12.3428 40.7567 12.3428C37.7773 12.3363 35.7575 14.4952 36.0964 17.485Z" fill="white"/>
<path fill-rule="evenodd" clip-rule="evenodd" d="M52.0356 10.4899V12.3697C53.6117 10.6251 54.5451 10.1562 56.39 10.1562C56.9266 10.1568 57.4624 10.1998 57.9923 10.2849V12.7818C57.4269 12.6268 56.843 12.549 56.2566 12.5507C54.921 12.5507 53.7997 12.9868 52.9778 13.8111C52.2564 14.533 52.0422 15.0978 52.0422 16.2318V23.1839H49.4453V10.4899H52.0356Z" fill="white"/>
<path fill-rule="evenodd" clip-rule="evenodd" d="M58.6095 14.6878C58.7429 13.4513 58.9833 12.7818 59.5167 12.1385C60.5856 10.8301 62.5092 10.1562 65.2329 10.1562C67.3969 10.1562 68.973 10.4921 70.0681 11.2117C70.9774 11.8027 71.3512 12.6793 71.3512 14.2233V19.8605C71.3512 21.097 71.6726 21.5331 72.5535 21.5091C72.7503 21.5022 72.9466 21.4847 73.1415 21.4568V23.1556C72.7036 23.3049 72.2423 23.3743 71.7797 23.3605C70.1512 23.3605 69.4036 22.8721 68.8965 21.4546C67.2942 22.9222 65.6372 23.5394 63.2612 23.5394C60.0828 23.5394 58.133 22.0979 58.133 19.7536C58.1191 18.4168 58.9074 17.2011 60.1353 16.6657C61.0971 16.2536 61.6851 16.1249 64.435 15.8414C66.7849 15.6102 67.1871 15.5579 67.8538 15.3507C68.5751 15.1196 68.8965 14.7336 68.8965 14.0903C68.8965 12.7251 67.7488 12.108 65.3443 12.108C63.071 12.108 61.8993 12.5572 61.4294 13.7043C61.1966 14.2909 60.6299 14.6775 59.9976 14.6813L58.6095 14.6878ZM68.8833 16.8511C67.2358 17.3291 65.544 17.6396 63.8338 17.7779C61.5102 18.009 60.7889 18.4473 60.7889 19.6053C60.7889 20.8919 61.8578 21.568 63.9672 21.568C65.7028 21.568 67.0122 21.1318 67.9477 20.2813C68.6953 19.5857 68.8833 19.0972 68.8833 17.8825V16.8511Z" fill="white"/>
<path fill-rule="evenodd" clip-rule="evenodd" d="M79.4073 23.1811H78.7384C78.1491 23.1848 77.6101 22.8506 77.3525 22.3219L71.75 10.4893H73.3064C74.2133 10.482 75.039 11.0098 75.4114 11.8348L79.1493 20.3396L83.0119 11.8021C83.3898 10.9901 84.2086 10.4734 85.106 10.4805H86.5203L80.7866 22.335C80.5263 22.8565 79.9912 23.1847 79.4073 23.1811Z" fill="white"/>
<path fill-rule="evenodd" clip-rule="evenodd" d="M88.2794 17.5705C88.5461 20.0173 90.4654 21.5351 93.3267 21.5351C94.9509 21.5351 96.1684 21.0531 96.9226 20.0914C97.3624 19.5399 98.0304 19.2188 98.7369 19.2191H100.243C98.9314 22.102 96.5838 23.5195 93.0841 23.5195C88.7122 23.5195 85.7656 20.8678 85.7656 16.9032C85.7656 12.9386 88.7844 10.1582 93.1387 10.1582C96.2887 10.1582 98.8221 11.5735 99.843 13.9439C100.298 15.0343 100.483 16.0025 100.483 17.5727L88.2794 17.5705ZM97.8407 15.6078C97.2526 13.3682 95.517 12.1056 93.1125 12.1056C90.708 12.1056 88.9724 13.3682 88.3581 15.6078H97.8407Z" fill="white"/>
<path fill-rule="evenodd" clip-rule="evenodd" d="M25.5931 7.35846L26.3133 5.59267C26.3133 5.59267 25.3967 4.61167 24.2837 3.49987C23.1706 2.38807 20.8136 3.04207 20.8136 3.04207L18.1291 0H13.415H8.70094L6.01652 3.04207C6.01652 3.04207 3.65947 2.38807 2.54642 3.49987C1.43336 4.61167 0.516733 5.59267 0.516733 5.59267L1.23694 7.35846L0.320312 9.97445C0.320312 9.97445 3.01619 20.1739 3.3321 21.4194C3.9541 23.8719 4.37968 24.8202 6.14747 26.0628C7.91525 27.3054 11.1235 29.4636 11.6473 29.7906C12.171 30.1176 12.8258 30.6746 13.415 30.6746C14.0043 30.6746 14.659 30.1176 15.1828 29.7906C15.7066 29.4636 18.9148 27.3054 20.6826 26.0628C22.4504 24.8202 22.876 23.8719 23.498 21.4194C23.8138 20.1739 26.5098 9.97445 26.5098 9.97445L25.5931 7.35846Z" fill="url(#paint0_linear_8378_88766)"/>
<path fill-rule="evenodd" clip-rule="evenodd" d="M16.7579 5.52788C17.1507 5.52788 20.0643 4.97198 20.0643 4.97198C20.0643 4.97198 23.5171 9.14121 23.5171 10.0323C23.5171 10.769 23.2202 11.0574 22.8705 11.397C22.7972 11.4681 22.7217 11.5415 22.646 11.6218L20.0571 14.3678C20.0314 14.3951 20.0028 14.4237 19.9726 14.4541C19.7142 14.7137 19.3336 15.0958 19.6022 15.7306C19.6201 15.773 19.6386 15.8161 19.6573 15.8599C19.9517 16.5476 20.3151 17.3965 19.8525 18.2568C19.3604 19.1719 18.5175 19.7827 17.9773 19.6817C17.4371 19.5807 16.1686 18.9185 15.7021 18.616C15.2356 18.3135 13.7571 17.0955 13.7571 16.6295C13.7571 16.2408 14.8204 15.5942 15.337 15.28C15.4398 15.2176 15.5209 15.1682 15.5677 15.1367C15.6211 15.1008 15.7103 15.0454 15.82 14.9773C16.2916 14.6847 17.143 14.1563 17.1644 13.922C17.1908 13.6331 17.1807 13.5484 16.8007 12.8348C16.7199 12.683 16.6253 12.5205 16.5275 12.3525C16.1656 11.7305 15.7604 11.034 15.8501 10.5351C15.9513 9.97188 16.8348 9.64896 17.5832 9.37544C17.6767 9.34125 17.7681 9.30784 17.8557 9.27483C18.074 9.19245 18.3485 9.08976 18.6351 8.98251C19.3823 8.70295 20.2125 8.39233 20.3494 8.32928C20.539 8.24197 20.49 8.15884 19.916 8.1045C19.84 8.09731 19.7456 8.08728 19.6373 8.07578C18.9267 8.00036 17.6162 7.86125 16.9791 8.03864C16.8538 8.07353 16.7133 8.11152 16.566 8.15137C15.8502 8.34499 14.973 8.58227 14.8887 8.71906C14.874 8.74299 14.8595 8.76357 14.8458 8.78299C14.7652 8.89747 14.7126 8.97211 14.8018 9.45853C14.8284 9.60339 14.883 9.88833 14.9505 10.2406C15.1483 11.2721 15.4567 12.8812 15.4955 13.2426C15.501 13.2932 15.507 13.342 15.5127 13.389C15.5622 13.7923 15.5951 14.0606 15.1263 14.1677C15.0872 14.1766 15.0462 14.186 15.0036 14.1958C14.4746 14.3171 13.6989 14.4948 13.4187 14.4948C13.1383 14.4948 12.3621 14.3169 11.8331 14.1956C11.7907 14.1859 11.75 14.1766 11.7112 14.1677C11.2422 14.0606 11.2752 13.7923 11.3246 13.389C11.3304 13.342 11.3364 13.2932 11.3418 13.2426C11.3808 12.8806 11.69 11.2676 11.8877 10.2363C11.9548 9.88598 12.0091 9.60279 12.0356 9.45853C12.1247 8.97215 12.0722 8.89748 11.9916 8.78302C11.9779 8.76358 11.9634 8.743 11.9487 8.71906C11.8644 8.58228 10.9873 8.34502 10.2715 8.1514C10.1241 8.11155 9.9836 8.07354 9.85825 8.03864C9.22116 7.86126 7.91079 8.00035 7.20019 8.07577C7.09178 8.08728 6.99733 8.0973 6.92136 8.1045C6.34742 8.15884 6.29845 8.24197 6.48793 8.32928C6.62483 8.39231 7.45459 8.70277 8.20162 8.98227C8.48851 9.08961 8.7632 9.19238 8.98175 9.27483C9.06931 9.30786 9.16077 9.34129 9.25435 9.37549C10.0026 9.64901 10.8861 9.97191 10.9873 10.5351C11.077 11.0339 10.6719 11.7303 10.31 12.3522C10.2122 12.5203 10.1176 12.683 10.0367 12.8348C9.65665 13.5484 9.64657 13.6331 9.67296 13.922C9.6943 14.1562 10.5454 14.6845 11.017 14.9771C11.1269 15.0453 11.2162 15.1008 11.2696 15.1367C11.3164 15.1682 11.3975 15.2175 11.5001 15.2799C12.0167 15.594 13.0803 16.2408 13.0803 16.6295C13.0803 17.0955 11.6018 18.3135 11.1353 18.616C10.6688 18.9185 9.40026 19.5807 8.8601 19.6817C8.31994 19.7827 7.47697 19.1719 6.98487 18.2568C6.52232 17.3966 6.88564 16.5477 7.17997 15.8601C7.19873 15.8162 7.21721 15.7731 7.23518 15.7306C7.50372 15.0958 7.12312 14.7136 6.86466 14.454C6.83445 14.4237 6.80591 14.395 6.78027 14.3678L4.19131 11.6218C4.11569 11.5416 4.04014 11.4682 3.9669 11.397C3.61722 11.0574 3.32031 10.7691 3.32031 10.0323C3.32031 9.14121 6.77313 4.97198 6.77313 4.97198C6.77313 4.97198 9.68671 5.52788 10.0795 5.52788C10.393 5.52788 10.9983 5.31966 11.6293 5.10261C11.7891 5.04765 11.9505 4.99213 12.1092 4.93928C12.8949 4.67768 13.4187 4.67578 13.4187 4.67578C13.4187 4.67578 13.9425 4.67768 14.7282 4.93928C14.8869 4.99213 15.0483 5.04765 15.2081 5.10261C15.8391 5.31966 16.4444 5.52788 16.7579 5.52788ZM16.2578 20.2749C16.8737 20.592 17.3106 20.8169 17.4758 20.9201C17.6895 21.0538 17.5592 21.3058 17.3645 21.4433C17.1698 21.5807 14.5534 23.6045 14.2995 23.8281C14.267 23.8568 14.2326 23.8878 14.1967 23.9201C13.952 24.1404 13.6399 24.4213 13.4187 24.4213C13.1974 24.4213 12.8851 24.1401 12.6404 23.9198C12.6046 23.8876 12.5703 23.8567 12.5379 23.8281C12.2839 23.6045 9.66757 21.5807 9.47286 21.4433C9.27814 21.3058 9.14785 21.0538 9.36155 20.9201C9.52686 20.8168 9.96421 20.5917 10.5807 20.2744C10.7614 20.1814 10.9576 20.0804 11.1667 19.9723C12.0893 19.4954 13.2392 19.0899 13.4187 19.0899C13.5982 19.0899 14.748 19.4954 15.6707 19.9723C15.8803 20.0806 16.0768 20.1818 16.2578 20.2749Z" fill="#F8F9FA"/>
<path fill-rule="evenodd" clip-rule="evenodd" d="M20.814 3.04207L18.1296 0H13.4155H8.7014L6.01698 3.04207C6.01698 3.04207 3.65993 2.38807 2.54688 3.49987C2.54688 3.49987 5.68961 3.21649 6.76992 4.97137C6.76992 4.97137 9.6835 5.52727 10.0763 5.52727C10.4692 5.52727 11.3203 5.20027 12.106 4.93867C12.8917 4.67707 13.4155 4.67517 13.4155 4.67517C13.4155 4.67517 13.9393 4.67707 14.725 4.93867C15.5107 5.20027 16.3618 5.52727 16.7547 5.52727C17.1475 5.52727 20.0611 4.97137 20.0611 4.97137C21.1414 3.21649 24.2841 3.49987 24.2841 3.49987C23.1711 2.38807 20.814 3.04207 20.814 3.04207Z" fill="url(#paint1_linear_8378_88766)"/>
<mask id="mask0_8378_88766" style="mask-type:alpha" maskUnits="userSpaceOnUse" x="2" y="0" width="23" height="6">
<path fill-rule="evenodd" clip-rule="evenodd" d="M20.814 3.04207L18.1296 0H13.4155H8.7014L6.01698 3.04207C6.01698 3.04207 3.65993 2.38807 2.54688 3.49987C2.54688 3.49987 5.68961 3.21649 6.76992 4.97137C6.76992 4.97137 9.6835 5.52727 10.0763 5.52727C10.4692 5.52727 11.3203 5.20027 12.106 4.93867C12.8917 4.67707 13.4155 4.67517 13.4155 4.67517C13.4155 4.67517 13.9393 4.67707 14.725 4.93867C15.5107 5.20027 16.3618 5.52727 16.7547 5.52727C17.1475 5.52727 20.0611 4.97137 20.0611 4.97137C21.1414 3.21649 24.2841 3.49987 24.2841 3.49987C23.1711 2.38807 20.814 3.04207 20.814 3.04207Z" fill="white"/>
</mask>
<g mask="url(#mask0_8378_88766)">
</g>
<defs>
<linearGradient id="paint0_linear_8378_88766" x1="0.320312" y1="30.891" x2="26.5098" y2="30.891" gradientUnits="userSpaceOnUse">
<stop stop-color="#FF5500"/>
<stop offset="0.409877" stop-color="#FF5500"/>
<stop offset="0.581981" stop-color="#FF2000"/>
<stop offset="1" stop-color="#FF2000"/>
</linearGradient>
<linearGradient id="paint1_linear_8378_88766" x1="3.01389" y1="5.50689" x2="24.2841" y2="5.50689" gradientUnits="userSpaceOnUse">
<stop stop-color="#FF452A"/>
<stop offset="1" stop-color="#FF2000"/>
</linearGradient>
</defs>
</svg>
