<?xml version="1.0" encoding="utf-8"?>
<!-- Generator: Adobe Illustrator 22.1.0, SVG Export Plug-In . SVG Version: 6.00 Build 0)  -->
<svg version="1.1" id="Layer_1" xmlns="http://www.w3.org/2000/svg" xmlns:xlink="http://www.w3.org/1999/xlink" x="0px" y="0px"
	 viewBox="0 0 430 132" style="enable-background:new 0 0 430 132;" xml:space="preserve">
<style type="text/css">
	.st0{fill:#131525;}
	.st1{fill:url(#Head_1_);}
	.st2{fill:#FFFFFF;}
	.st3{fill:url(#path-3_2_);}
</style>
<title>logo</title>
<desc>Created with Sketch.</desc>
<g>
	<g id="Group-4" transform="translate(153.000000, 26.000000)">
		<path id="Shape" class="st0" d="M-9.8,45.5V0.2h4.3C-1.9,0.2,1,3.1,1,6.6v20.2c7-6.2,12.9-8.7,20.8-8.8
			c15.1-0.3,28.2,10.9,29.5,26c1.5,18-11.6,31.5-28.7,31.5C3.8,75.4-9.8,63.8-9.8,45.5z M0.8,49.1c1.1,9.4,10,17.1,19.5,17.3
			c12.3,0.2,20.7-7.8,20.7-19.7S32.7,27,20.8,27C8,27-0.7,36.2,0.8,49.1z"/>
		<path id="Shape_1_" class="st0" d="M69.1,19v8.1c6.8-7.5,10.8-9.5,18.7-9.5c2.3,0,4.6,0.2,6.9,0.6v10.7c-2.4-0.7-4.9-1-7.4-1
			c-5.7,0-10.5,1.9-14.1,5.4c-3.1,3.1-4,5.5-4,10.4v29.9H58V19H69.1z"/>
		<path id="Shape_2_" class="st0" d="M97.3,37.1c0.6-5.3,1.6-8.2,3.9-10.9c4.6-5.6,12.8-8.5,24.5-8.5c9.3,0,16,1.4,20.7,4.5
			c3.9,2.5,5.5,6.3,5.5,12.9v24.2c0,5.3,1.4,7.2,5.2,7.1c0.8,0,1.7-0.1,2.5-0.2v7.3c-1.9,0.6-3.9,0.9-5.8,0.9
			c-7,0-10.2-2.1-12.4-8.2c-6.9,6.3-14,9-24.2,9c-13.6,0-22-6.2-22-16.3c-0.1-5.7,3.3-11,8.6-13.3c4.1-1.8,6.6-2.3,18.4-3.5
			c10.1-1,11.8-1.2,14.7-2.1c3.1-1,4.5-2.7,4.5-5.4c0-5.9-4.9-8.5-15.2-8.5c-9.7,0-14.8,1.9-16.8,6.9c-1,2.5-3.4,4.2-6.1,4.2
			L97.3,37.1z M141.4,46.4c-7.1,2.1-14.3,3.4-21.7,4c-10,1-13.1,2.9-13.1,7.8c0,5.5,4.6,8.4,13.6,8.4c7.4,0,13.1-1.9,17.1-5.5
			c3.2-3,4-5.1,4-10.3V46.4z"/>
		<path id="Shape_3_" class="st0" d="M186.5,73.5h-2.9c-2.5,0-4.8-1.4-5.9-3.7l-24-50.8h6.7c3.9,0,7.4,2.2,9,5.8l16,36.5L202,24.7
			c1.6-3.5,5.1-5.7,9-5.7l6.1,0l-24.6,50.9C191.3,72.2,189,73.6,186.5,73.5z"/>
		<path id="Shape_4_" class="st0" d="M224.6,49.5c1.1,10.5,9.4,17,21.6,17c7,0,12.2-2.1,15.4-6.2c1.9-2.4,4.8-3.7,7.8-3.7h6.5
			C270.2,68.9,260.2,75,245.2,75c-18.7,0-31.4-11.4-31.4-28.4s12.9-29,31.6-29c13.5,0,24.4,6.1,28.8,16.3c1.9,4.7,2.7,8.8,2.7,15.6
			L224.6,49.5z M265.6,41c-2.5-9.6-10-15-20.3-15c-10.3,0-17.8,5.4-20.4,15H265.6z"/>
	</g>
	<g id="build-icons_x2F_Stable">
		<g id="Logo" transform="translate(10.381810, 0.000000)">
			
				<linearGradient id="Head_1_" gradientUnits="userSpaceOnUse" x1="95.6655" y1="174.1891" x2="96.6655" y2="174.1891" gradientTransform="matrix(112.3123 0 0 -131.86 -10754.4131 23034.498)">
				<stop  offset="0" style="stop-color:#FF5500"/>
				<stop  offset="0.4099" style="stop-color:#FF5500"/>
				<stop  offset="0.582" style="stop-color:#FF2000"/>
				<stop  offset="1" style="stop-color:#FF2000"/>
			</linearGradient>
			<path id="Head" class="st1" d="M98.4,31.6l3.1-7.6c0,0-3.9-4.2-8.7-9c-4.8-4.8-14.9-2-14.9-2L66.4,0H46.2H25.9L14.4,13.1
				c0,0-10.1-2.8-14.9,2s-8.7,9-8.7,9l3.1,7.6L-10,42.9c0,0,11.6,43.8,12.9,49.2c2.7,10.5,4.5,14.6,12.1,20s21.3,14.6,23.6,16
				c2.2,1.4,5.1,3.8,7.6,3.8s5.3-2.4,7.6-3.8c2.2-1.4,16-10.7,23.6-16c7.6-5.3,9.4-9.4,12.1-20c1.4-5.4,12.9-49.2,12.9-49.2
				L98.4,31.6z"/>
			<path id="Face" class="st2" d="M74.7,21.4c0,0,14.8,17.9,14.8,21.8S87.6,48,85.7,50c-1.9,2-10.1,10.7-11.1,11.8
				c-1.1,1.1-3.2,2.8-2,5.9c1.3,3,3.2,6.9,1.1,10.9c-2.1,3.9-5.7,6.6-8,6.1c-2.3-0.4-7.8-3.3-9.8-4.6c-2-1.3-8.3-6.5-8.3-8.5
				c0-2,6.6-5.6,7.8-6.4c1.2-0.8,6.7-4,6.8-5.2c0.1-1.2,0.1-1.6-1.6-4.7c-1.6-3.1-4.6-7.2-4.1-9.9c0.5-2.7,5.2-4.1,8.6-5.4
				c3.4-1.3,9.9-3.7,10.7-4.1c0.8-0.4,0.6-0.7-1.9-1c-2.5-0.2-9.4-1.2-12.6-0.3s-8.5,2.2-9,2.9c-0.4,0.7-0.8,0.7-0.4,3.2
				c0.4,2.4,2.8,14.2,3,16.3c0.2,2.1,0.7,3.5-1.6,4c-2.2,0.5-6,1.4-7.3,1.4s-5.1-0.9-7.3-1.4c-2.2-0.5-1.8-1.9-1.6-4
				s2.5-13.8,3-16.3c0.4-2.4,0.1-2.5-0.4-3.2c-0.4-0.7-5.8-2-9-2.9s-10.1,0-12.6,0.3c-2.5,0.2-2.7,0.6-1.9,1
				c0.8,0.4,7.3,2.8,10.7,4.1c3.4,1.3,8.1,2.7,8.6,5.4c0.5,2.7-2.4,6.8-4.1,9.9c-1.6,3.1-1.7,3.4-1.6,4.7c0.1,1.2,5.6,4.4,6.8,5.2
				c1.2,0.8,7.8,4.4,7.8,6.4c0,2-6.3,7.2-8.3,8.5c-2,1.3-7.4,4.1-9.8,4.6c-2.3,0.4-5.9-2.2-8-6.1c-2.1-3.9-0.2-7.8,1.1-10.9
				c1.3-3-0.9-4.7-2-5.9C16.6,60.6,8.5,51.9,6.6,50c-1.9-2-3.7-3-3.7-6.8s14.8-21.8,14.8-21.8s12.5,2.4,14.2,2.4s5.3-1.4,8.7-2.5
				s5.6-1.1,5.6-1.1s2.2,0,5.6,1.1s7,2.5,8.7,2.5S74.7,21.4,74.7,21.4z M63.6,89.9c0.9,0.6,0.4,1.7-0.5,2.2
				c-0.8,0.6-12.1,9.3-13.1,10.3c-1.1,1-2.7,2.5-3.8,2.5c-1.1,0-2.7-1.6-3.8-2.5c-1.1-1-12.3-9.7-13.1-10.3
				c-0.8-0.6-1.4-1.7-0.5-2.2c0.9-0.6,3.8-2,7.7-4.1c4-2.1,8.9-3.8,9.7-3.8c0.8,0,5.7,1.7,9.7,3.8C59.8,87.9,62.6,89.4,63.6,89.9z"
				/>
			<g id="Top-Head">
				
					<linearGradient id="path-3_2_" gradientUnits="userSpaceOnUse" x1="95.4918" y1="172.7744" x2="96.4704" y2="172.7744" gradientTransform="matrix(93.2192 0 0 -23.7599 -8900.126 4116.9805)">
					<stop  offset="0" style="stop-color:#FF452A"/>
					<stop  offset="1" style="stop-color:#FF2000"/>
				</linearGradient>
				<path id="path-3_1_" class="st3" d="M77.9,13.1L66.4,0H46.2H25.9L14.4,13.1c0,0-10.1-2.8-14.9,2c0,0,13.5-1.2,18.1,6.3
					c0,0,12.5,2.4,14.2,2.4s5.3-1.4,8.7-2.5s5.6-1.1,5.6-1.1s2.2,0,5.6,1.1s7,2.5,8.7,2.5s14.2-2.4,14.2-2.4
					c4.6-7.5,18.1-6.3,18.1-6.3C88,10.3,77.9,13.1,77.9,13.1"/>
			</g>
		</g>
	</g>
</g>
</svg>
