<svg width="101" height="32" viewBox="0 0 101 32" fill="none" xmlns="http://www.w3.org/2000/svg">
<path fill-rule="evenodd" clip-rule="evenodd" d="M33.6293 17.5078V6.95312H34.6414C35.4659 6.95312 36.1343 7.61997 36.1343 8.44256V13.1355C37.7563 11.6918 39.1356 11.114 40.974 11.0769C44.4999 11.0049 47.5601 13.6174 47.8509 17.124C48.1984 21.3132 45.1447 24.4665 41.1663 24.4665C36.7989 24.4665 33.6293 21.7646 33.6293 17.5078ZM36.0928 18.3365C36.3398 20.5172 38.4274 22.3185 40.6286 22.3534C43.4965 22.397 45.4507 20.5325 45.4507 17.7739C45.4507 15.0153 43.5402 13.1944 40.7532 13.1944C37.7738 13.1878 35.754 15.3467 36.0928 18.3365Z" fill="#212529"/>
<path fill-rule="evenodd" clip-rule="evenodd" d="M52.0304 11.3415V13.2212C53.6064 11.4767 54.5398 11.0078 56.3847 11.0078C56.9214 11.0084 57.4572 11.0514 57.987 11.1365V13.6334C57.4216 13.4784 56.8377 13.4006 56.2514 13.4022C54.9158 13.4022 53.7944 13.8384 52.9725 14.6627C52.2512 15.3845 52.0369 15.9493 52.0369 17.0833V24.0355H49.4401V11.3415H52.0304Z" fill="#212529"/>
<path fill-rule="evenodd" clip-rule="evenodd" d="M58.6034 15.5394C58.7368 14.3029 58.9772 13.6334 59.5106 12.9901C60.5795 11.6817 62.5031 11.0078 65.2268 11.0078C67.3908 11.0078 68.9669 11.3436 70.062 12.0633C70.9713 12.6543 71.3451 13.5309 71.3451 15.0749V20.712C71.3451 21.9485 71.6665 22.3847 72.5474 22.3607C72.7442 22.3537 72.9405 22.3363 73.1354 22.3083V24.0071C72.6975 24.1564 72.2362 24.2259 71.7736 24.2121C70.1451 24.2121 69.3975 23.7236 68.8903 22.3062C67.2881 23.7738 65.6311 24.3909 63.2551 24.3909C60.0767 24.3909 58.1269 22.9495 58.1269 20.6052C58.113 19.2684 58.9013 18.0527 60.1292 17.5173C61.091 17.1051 61.679 16.9765 64.4289 16.693C66.7788 16.4618 67.181 16.4095 67.8477 16.2023C68.569 15.9711 68.8903 15.5852 68.8903 14.9418C68.8903 13.5767 67.7427 12.9596 65.3382 12.9596C63.0649 12.9596 61.8932 13.4088 61.4233 14.5559C61.1905 15.1424 60.6238 15.5291 59.9915 15.5328L58.6034 15.5394ZM68.8772 17.7026C67.2297 18.1807 65.5379 18.4912 63.8277 18.6294C61.5041 18.8606 60.7828 19.2989 60.7828 20.4569C60.7828 21.7435 61.8517 22.4195 63.9611 22.4195C65.6967 22.4195 67.0061 21.9834 67.9416 21.1329C68.6892 20.4372 68.8772 19.9488 68.8772 18.7341V17.7026Z" fill="#212529"/>
<path fill-rule="evenodd" clip-rule="evenodd" d="M79.4047 24.0327H78.7358C78.1465 24.0364 77.6075 23.7022 77.3499 23.1734L71.7474 11.3408H73.3038C74.2107 11.3336 75.0363 11.8613 75.4088 12.6863L79.1467 21.1912L83.0092 12.6536C83.3872 11.8416 84.206 11.3249 85.1034 11.3321H86.5176L80.784 23.1865C80.5237 23.708 79.9886 24.0363 79.4047 24.0327Z" fill="#212529"/>
<path fill-rule="evenodd" clip-rule="evenodd" d="M88.2729 18.4201C88.5396 20.8669 90.4588 22.3847 93.3202 22.3847C94.9443 22.3847 96.1619 21.9027 96.916 20.941C97.3559 20.3895 98.0239 20.0684 98.7304 20.0687H100.236C98.9249 22.9517 96.5772 24.3691 93.0776 24.3691C88.7057 24.3691 85.7591 21.7174 85.7591 17.7528C85.7591 13.7882 88.7779 11.0078 93.1322 11.0078C96.2821 11.0078 98.8156 12.4231 99.8364 14.7936C100.291 15.8839 100.477 16.8522 100.477 18.4223L88.2729 18.4201ZM97.8341 16.4575C97.2461 14.2178 95.5105 12.9552 93.106 12.9552C90.7015 12.9552 88.9659 14.2178 88.3516 16.4575H97.8341Z" fill="#212529"/>
<path fill-rule="evenodd" clip-rule="evenodd" d="M25.595 8.21002L26.3152 6.44423C26.3152 6.44423 25.3986 5.46323 24.2856 4.35143C23.1725 3.23964 20.8155 3.89363 20.8155 3.89363L18.131 0.851562H13.4169H8.70283L6.01841 3.89363C6.01841 3.89363 3.66136 3.23964 2.54831 4.35143C1.43526 5.46323 0.518625 6.44423 0.518625 6.44423L1.23884 8.21002L0.322205 10.826C0.322205 10.826 3.01808 21.0254 3.33399 22.271C3.95599 24.7235 4.38157 25.6718 6.14936 26.9144C7.91715 28.157 11.1254 30.3152 11.6491 30.6422C12.1729 30.9692 12.8277 31.5262 13.4169 31.5262C14.0062 31.5262 14.6609 30.9692 15.1847 30.6422C15.7085 30.3152 18.9167 28.157 20.6845 26.9144C22.4523 25.6718 22.8779 24.7235 23.4999 22.271C23.8157 21.0254 26.5117 10.826 26.5117 10.826L25.595 8.21002Z" fill="url(#paint0_linear_8378_60966)"/>
<path fill-rule="evenodd" clip-rule="evenodd" d="M16.7561 6.37944C17.1489 6.37944 20.0625 5.82354 20.0625 5.82354C20.0625 5.82354 23.5153 9.99278 23.5153 10.8838C23.5153 11.6206 23.2184 11.909 22.8687 12.2486C22.7955 12.3197 22.7199 12.3931 22.6443 12.4733L20.0553 15.2194C20.0296 15.2466 20.0011 15.2753 19.9708 15.3057C19.7124 15.5652 19.3319 15.9474 19.6004 16.5821C19.6183 16.6246 19.6368 16.6677 19.6555 16.7115C19.9499 17.3992 20.3134 18.2481 19.8508 19.1084C19.3587 20.0235 18.5157 20.6342 17.9755 20.5333C17.4354 20.4322 16.1668 19.77 15.7003 19.4676C15.2338 19.1651 13.7553 17.9471 13.7553 17.4811C13.7553 17.0924 14.8186 16.4458 15.3352 16.1316C15.438 16.0691 15.5191 16.0198 15.566 15.9882C15.6193 15.9523 15.7085 15.897 15.8183 15.8289C16.2898 15.5362 17.1413 15.0078 17.1627 14.7736C17.189 14.4847 17.179 14.4 16.7989 13.6864C16.7181 13.5346 16.6235 13.3721 16.5258 13.2041C16.1638 12.5821 15.7586 11.8856 15.8483 11.3866C15.9496 10.8234 16.833 10.5005 17.5814 10.227C17.6749 10.1928 17.7664 10.1594 17.8539 10.1264C18.0723 10.044 18.3467 9.94133 18.6334 9.83407C19.3806 9.55451 20.2107 9.24389 20.3476 9.18084C20.5372 9.09353 20.4882 9.01041 19.9142 8.95606C19.8383 8.94887 19.7439 8.93885 19.6355 8.92734C18.9249 8.85192 17.6144 8.71282 16.9773 8.8902C16.852 8.92509 16.7115 8.96309 16.5642 9.00293C15.8484 9.19655 14.9712 9.43383 14.8869 9.57062C14.8722 9.59455 14.8577 9.61513 14.844 9.63456C14.7634 9.74903 14.7108 9.82367 14.8001 10.3101C14.8266 10.455 14.8812 10.7399 14.9488 11.0922C15.1465 12.1237 15.4549 13.7327 15.4938 14.0942C15.4992 14.1448 15.5052 14.1936 15.5109 14.2406C15.5604 14.6438 15.5933 14.9122 15.1245 15.0193C15.0855 15.0282 15.0445 15.0376 15.0019 15.0473C14.4728 15.1686 13.6972 15.3464 13.4169 15.3464C13.1366 15.3464 12.3603 15.1685 11.8313 15.0472C11.789 15.0375 11.7482 15.0281 11.7094 15.0193C11.2405 14.9122 11.2734 14.6438 11.3229 14.2406C11.3286 14.1936 11.3346 14.1448 11.34 14.0942C11.379 13.7322 11.6882 12.1192 11.8859 11.0878C11.9531 10.7375 12.0073 10.4544 12.0338 10.3101C12.123 9.82371 12.0704 9.74904 11.9898 9.63458C11.9761 9.61515 11.9617 9.59456 11.9469 9.57062C11.8627 9.43384 10.9855 9.19658 10.2697 9.00297C10.1223 8.96311 9.98183 8.9251 9.85648 8.8902C9.21939 8.71282 7.90902 8.85191 7.19842 8.92733C7.09001 8.93884 6.99556 8.94887 6.91959 8.95606C6.34565 9.01041 6.29668 9.09353 6.48616 9.18084C6.62306 9.24387 7.45282 9.55433 8.19985 9.83383C8.48674 9.94117 8.76143 10.0439 8.97998 10.1264C9.06754 10.1594 9.159 10.1929 9.25258 10.2271C10.0009 10.5006 10.8843 10.8235 10.9856 11.3866C11.0753 11.8855 10.6701 12.5819 10.3082 13.2038C10.2104 13.3719 10.1158 13.5345 10.035 13.6864C9.65488 14.4 9.6448 14.4847 9.67119 14.7736C9.69253 15.0078 10.5437 15.536 11.0153 15.8287C11.1252 15.8969 11.2145 15.9523 11.2678 15.9882C11.3146 16.0198 11.3957 16.069 11.4984 16.1315C12.0149 16.4456 13.0785 17.0923 13.0785 17.4811C13.0785 17.9471 11.6 19.1651 11.1335 19.4676C10.667 19.77 9.39849 20.4322 8.85833 20.5333C8.31817 20.6342 7.4752 20.0235 6.9831 19.1084C6.52055 18.2482 6.88387 17.3993 7.1782 16.7116C7.19696 16.6678 7.21544 16.6246 7.23341 16.5821C7.50195 15.9473 7.12135 15.5651 6.86289 15.3056C6.83268 15.2753 6.80414 15.2466 6.7785 15.2194L4.18954 12.4733C4.11392 12.3931 4.03837 12.3197 3.96513 12.2486C3.61545 11.909 3.31854 11.6206 3.31854 10.8838C3.31854 9.99278 6.77136 5.82354 6.77136 5.82354C6.77136 5.82354 9.68494 6.37944 10.0778 6.37944C10.3912 6.37944 10.9966 6.17122 11.6275 5.95417C11.7873 5.89922 11.9487 5.84369 12.1075 5.79084C12.8931 5.52924 13.4169 5.52734 13.4169 5.52734C13.4169 5.52734 13.9407 5.52924 14.7264 5.79084C14.8851 5.84369 15.0466 5.89922 15.2063 5.95417C15.8373 6.17122 16.4426 6.37944 16.7561 6.37944ZM16.256 21.1265C16.8719 21.4435 17.3088 21.6684 17.4741 21.7717C17.6878 21.9054 17.5574 22.1574 17.3628 22.2948C17.168 22.4323 14.5516 24.456 14.2977 24.6797C14.2652 24.7083 14.2308 24.7393 14.1949 24.7717C13.9502 24.9919 13.6382 25.2729 13.4169 25.2729C13.1956 25.2729 12.8833 24.9917 12.6386 24.7714C12.6028 24.7392 12.5685 24.7083 12.5361 24.6797C12.2821 24.456 9.6658 22.4323 9.47109 22.2948C9.27637 22.1574 9.14608 21.9054 9.35978 21.7717C9.52509 21.6684 9.96244 21.4433 10.5789 21.1259C10.7597 21.0329 10.9558 20.932 11.165 20.8239C12.0875 20.347 13.2375 19.9415 13.4169 19.9415C13.5964 19.9415 14.7462 20.347 15.669 20.8239C15.8785 20.9322 16.075 21.0333 16.256 21.1265Z" fill="#F8F9FA"/>
<path fill-rule="evenodd" clip-rule="evenodd" d="M20.8154 3.89363L18.131 0.851562H13.4169H8.7028L6.01838 3.89363C6.01838 3.89363 3.66133 3.23964 2.54828 4.35143C2.54828 4.35143 5.69101 4.06806 6.77133 5.82293C6.77133 5.82293 9.6849 6.37883 10.0777 6.37883C10.4706 6.37883 11.3217 6.05183 12.1074 5.79023C12.8931 5.52863 13.4169 5.52673 13.4169 5.52673C13.4169 5.52673 13.9407 5.52863 14.7264 5.79023C15.5121 6.05183 16.3632 6.37883 16.7561 6.37883C17.1489 6.37883 20.0625 5.82293 20.0625 5.82293C21.1428 4.06806 24.2855 4.35143 24.2855 4.35143C23.1725 3.23964 20.8154 3.89363 20.8154 3.89363Z" fill="url(#paint1_linear_8378_60966)"/>
<mask id="mask0_8378_60966" style="mask-type:alpha" maskUnits="userSpaceOnUse" x="2" y="0" width="23" height="7">
<path fill-rule="evenodd" clip-rule="evenodd" d="M20.8154 3.89363L18.131 0.851562H13.4169H8.7028L6.01838 3.89363C6.01838 3.89363 3.66133 3.23964 2.54828 4.35143C2.54828 4.35143 5.69101 4.06806 6.77133 5.82293C6.77133 5.82293 9.6849 6.37883 10.0777 6.37883C10.4706 6.37883 11.3217 6.05183 12.1074 5.79023C12.8931 5.52863 13.4169 5.52673 13.4169 5.52673C13.4169 5.52673 13.9407 5.52863 14.7264 5.79023C15.5121 6.05183 16.3632 6.37883 16.7561 6.37883C17.1489 6.37883 20.0625 5.82293 20.0625 5.82293C21.1428 4.06806 24.2855 4.35143 24.2855 4.35143C23.1725 3.23964 20.8154 3.89363 20.8154 3.89363Z" fill="white"/>
</mask>
<g mask="url(#mask0_8378_60966)">
</g>
<defs>
<linearGradient id="paint0_linear_8378_60966" x1="0.322205" y1="31.7426" x2="26.5117" y2="31.7426" gradientUnits="userSpaceOnUse">
<stop stop-color="#FF5500"/>
<stop offset="0.409877" stop-color="#FF5500"/>
<stop offset="0.581981" stop-color="#FF2000"/>
<stop offset="1" stop-color="#FF2000"/>
</linearGradient>
<linearGradient id="paint1_linear_8378_60966" x1="3.01529" y1="6.35845" x2="24.2855" y2="6.35845" gradientUnits="userSpaceOnUse">
<stop stop-color="#FF452A"/>
<stop offset="1" stop-color="#FF2000"/>
</linearGradient>
</defs>
</svg>
