<svg xmlns="http://www.w3.org/2000/svg" xmlns:xlink="http://www.w3.org/1999/xlink" width="430" height="132"><defs><linearGradient id="a" x1="0%" x2="100%" y1="50.706%" y2="50.706%"><stop offset="0%" stop-color="#F50"/><stop offset="40.988%" stop-color="#F50"/><stop offset="58.198%" stop-color="#FF2000"/><stop offset="100%" stop-color="#FF2000"/></linearGradient><linearGradient id="c" x1="2.148%" x2="100%" y1="50.706%" y2="50.706%"><stop offset="0%" stop-color="#FF452A"/><stop offset="100%" stop-color="#FF2000"/></linearGradient><path id="b" d="M87.884 13.077 76.372 0H35.94L24.428 13.077S14.32 10.266 9.547 15.045c0 0 13.477-1.218 18.11 6.325 0 0 12.495 2.39 14.18 2.39 1.684 0 5.334-1.406 8.704-2.53 3.369-1.125 5.615-1.133 5.615-1.133s2.246.008 5.616 1.133c3.37 1.124 7.02 2.53 8.704 2.53 1.685 0 14.18-2.39 14.18-2.39 4.632-7.543 18.11-6.325 18.11-6.325-4.773-4.78-14.882-1.968-14.882-1.968"/></defs><g fill="none" fill-rule="evenodd"><g fill="#FFF" fill-rule="nonzero"><path d="M143.218 71.53V26.204h4.34a6.4 6.4 0 0 1 6.403 6.396v20.154c6.955-6.2 12.87-8.682 20.754-8.84 15.12-.31 28.245 10.91 29.491 25.968 1.49 17.99-11.605 31.531-28.666 31.531-18.73 0-32.322-11.603-32.322-29.883Zm10.564 3.559c1.06 9.365 10.012 17.1 19.452 17.25 12.299.187 20.68-7.82 20.68-19.666 0-11.847-8.194-19.667-20.146-19.667-12.777-.028-21.439 9.244-19.986 22.083ZM222.13 45.046v8.073c6.759-7.492 10.761-9.505 18.673-9.505 2.302.002 4.6.187 6.872.552V54.89c-2.425-.666-4.929-1-7.444-.993-5.727 0-10.536 1.873-14.06 5.413-3.094 3.1-4.013 5.525-4.013 10.395v29.855h-11.137V45.046h11.109ZM250.318 63.074c.572-5.31 1.603-8.185 3.89-10.948 4.584-5.619 12.834-8.512 24.514-8.512 9.28 0 16.04 1.442 20.736 4.532 3.9 2.538 5.502 6.303 5.502 12.933v24.208c0 5.31 1.378 7.183 5.156 7.08a23.6 23.6 0 0 0 2.522-.225v7.295c-1.878.642-3.856.94-5.84.88-6.984 0-10.19-2.097-12.365-8.184-6.871 6.302-13.977 8.953-24.167 8.953-13.63 0-21.991-6.19-21.991-16.258a14.309 14.309 0 0 1 8.586-13.26c4.125-1.77 6.647-2.323 18.44-3.54 10.077-.993 11.802-1.218 14.66-2.107 3.094-.993 4.472-2.65 4.472-5.413 0-5.863-4.921-8.513-15.233-8.513-9.75 0-14.774 1.93-16.79 6.855a6.646 6.646 0 0 1-6.14 4.196l-5.952.028Zm44.059 9.29a109.176 109.176 0 0 1-21.654 3.98c-9.965.992-13.059 2.875-13.059 7.847 0 5.526 4.584 8.429 13.63 8.429 7.443 0 13.059-1.873 17.07-5.525 3.207-2.988 4.013-5.086 4.013-10.302v-4.43ZM339.523 99.55h-2.868a6.563 6.563 0 0 1-5.944-3.69l-24.026-50.814h6.675a9.815 9.815 0 0 1 9.027 5.778l16.03 36.523 16.564-36.663a9.816 9.816 0 0 1 8.98-5.675h6.066l-24.589 50.907a6.563 6.563 0 0 1-5.915 3.634ZM377.554 75.454c1.144 10.507 9.375 17.025 21.646 17.025 6.965 0 12.186-2.07 15.42-6.2a9.94 9.94 0 0 1 7.78-3.745h6.46C423.235 94.914 413.167 101 398.159 101c-18.748 0-31.385-11.387-31.385-28.413 0-17.025 12.946-28.965 31.62-28.965 13.508 0 24.372 6.078 28.75 16.257 1.95 4.683 2.747 8.84 2.747 15.583l-52.337-.009Zm41.003-8.428c-2.521-9.618-9.965-15.04-20.276-15.04-10.312 0-17.755 5.422-20.39 15.04h40.666Z"/></g><g transform="translate(.382)"><path fill="url(#a)" d="m108.381 31.632 3.089-7.59s-3.93-4.218-8.704-8.997c-4.773-4.78-14.882-1.968-14.882-1.968L76.372 0H35.94L24.428 13.077S14.32 10.266 9.547 15.045C4.773 19.825.842 24.04.842 24.04l3.089 7.59-3.93 11.246S11.56 86.72 12.915 92.075c2.667 10.543 4.492 14.619 12.074 19.96 7.58 5.342 21.339 14.62 23.585 16.025 2.246 1.406 5.054 3.8 7.581 3.8s5.335-2.394 7.581-3.8c2.247-1.406 16.005-10.683 23.586-16.025 7.581-5.341 9.406-9.417 12.073-19.96 1.355-5.354 12.916-49.198 12.916-49.198l-3.93-11.245Z"/><path fill="#FFF" d="M84.655 21.37s14.808 17.922 14.808 21.753c0 3.83-1.863 4.841-3.736 6.833L84.625 61.76c-1.05 1.117-3.238 2.81-1.951 5.858 1.286 3.048 3.183 6.926 1.073 10.86-2.11 3.933-5.725 6.559-8.041 6.125-2.317-.435-7.757-3.281-9.758-4.581-2-1.3-8.34-6.537-8.34-8.54 0-2.003 6.554-5.6 7.764-6.417 1.212-.817 6.735-3.98 6.848-5.221.113-1.242.07-1.606-1.56-4.674-1.63-3.068-4.566-7.162-4.077-9.886.489-2.723 5.223-4.14 8.6-5.417 3.379-1.277 9.883-3.69 10.695-4.065.813-.375.603-.732-1.859-.966-2.46-.234-9.445-1.162-12.594-.283-3.15.879-8.529 2.216-8.965 2.925-.435.709-.82.733-.372 3.179.447 2.445 2.751 14.182 2.975 16.266.223 2.085.66 3.463-1.584 3.977-2.245.514-6.024 1.406-7.323 1.406-1.298 0-5.078-.892-7.323-1.406-2.245-.514-1.807-1.892-1.583-3.977.223-2.084 2.527-13.82 2.975-16.266.447-2.446.063-2.47-.373-3.18-.436-.708-5.816-2.045-8.965-2.924s-10.133.05-12.594.283c-2.462.234-2.672.59-1.86.966.813.375 7.318 2.788 10.696 4.065 3.378 1.277 8.112 2.694 8.6 5.417.489 2.724-2.447 6.818-4.076 9.886-1.63 3.068-1.673 3.432-1.56 4.674.113 1.241 5.636 4.404 6.847 5.221 1.21.817 7.765 4.414 7.765 6.417s-6.34 7.24-8.341 8.54c-2 1.3-7.44 4.146-9.757 4.58-2.317.435-5.932-2.19-8.042-6.124-2.11-3.934-.213-7.812 1.073-10.86 1.287-3.048-.9-4.741-1.95-5.858L16.585 49.956c-1.873-1.992-3.735-3.003-3.735-6.833S27.657 21.37 27.657 21.37s12.495 2.39 14.18 2.39c1.684 0 5.334-1.406 8.704-2.53 3.369-1.125 5.615-1.133 5.615-1.133s2.246.008 5.616 1.133c3.37 1.124 7.02 2.53 8.704 2.53 1.685 0 14.18-2.39 14.18-2.39Zm-11.1 68.556c.916.575.357 1.658-.477 2.249-.835.59-12.056 9.29-13.145 10.252-1.089.962-2.689 2.55-3.777 2.55s-2.688-1.588-3.777-2.55c-1.09-.962-12.31-9.661-13.144-10.252-.835-.591-1.394-1.674-.478-2.249.917-.574 3.785-2.024 7.742-4.074 3.956-2.05 8.888-3.793 9.657-3.793.77 0 5.7 1.743 9.658 3.793 3.957 2.05 6.824 3.5 7.741 4.074Z"/><use xlink:href="#b" fill="url(#c)"/></g></g></svg>