<svg width="20" height="20" viewBox="0 0 20 20" fill="none" xmlns="http://www.w3.org/2000/svg">
<path d="M11.0233 2.41797C11.0233 2.00268 10.6867 1.66602 10.2714 1.66602C9.8561 1.66602 9.51943 2.00268 9.51943 2.41797V4.43335C9.51943 4.84865 9.8561 5.18531 10.2714 5.18531C10.6867 5.18531 11.0233 4.84865 11.0233 4.43335V2.41797Z" fill="#4C54D2"/>
<path d="M15.972 5.0907C16.2657 4.79704 16.2657 4.32093 15.972 4.02727C15.6783 3.73362 15.2022 3.73362 14.9086 4.02727L13.4835 5.45236C13.1898 5.74602 13.1898 6.22213 13.4835 6.51579C13.7771 6.80945 14.2533 6.80945 14.5469 6.51579L15.972 5.0907Z" fill="#4C54D2"/>
<path fill-rule="evenodd" clip-rule="evenodd" d="M6.54182 9.71513C6.54182 7.65595 8.2111 5.98667 10.2703 5.98667C12.3294 5.98667 13.9987 7.65595 13.9987 9.71513C13.9987 11.7743 12.3294 13.4436 10.2703 13.4436C8.2111 13.4436 6.54182 11.7743 6.54182 9.71513ZM10.2703 7.39744C8.99025 7.39744 7.95258 8.4351 7.95258 9.71513C7.95258 10.9951 8.99025 12.0328 10.2703 12.0328C11.5503 12.0328 12.588 10.9951 12.588 9.71513C12.588 8.4351 11.5503 7.39744 10.2703 7.39744Z" fill="#4C54D2"/>
<path d="M18.3332 9.72789C18.3332 10.1432 17.9965 10.4798 17.5812 10.4798H15.5658C15.1505 10.4798 14.8139 10.1432 14.8139 9.72789C14.8139 9.3126 15.1505 8.97593 15.5658 8.97593H17.5812C17.9965 8.97593 18.3332 9.3126 18.3332 9.72789Z" fill="#4C54D2"/>
<path d="M15.972 15.4285C15.6783 15.7222 15.2022 15.7222 14.9086 15.4285L13.4835 14.0034C13.1898 13.7098 13.1898 13.2337 13.4835 12.94C13.7771 12.6463 14.2533 12.6463 14.5469 12.94L15.972 14.3651C16.2657 14.6587 16.2657 15.1349 15.972 15.4285Z" fill="#4C54D2"/>
<path d="M5.1858 9.72789C5.1858 10.1432 4.84913 10.4798 4.43384 10.4798H2.41846C2.00317 10.4798 1.6665 10.1432 1.6665 9.72789C1.6665 9.3126 2.00317 8.97593 2.41846 8.97593H4.43384C4.84913 8.97593 5.1858 9.3126 5.1858 9.72789Z" fill="#4C54D2"/>
<path d="M6.67528 14.3873C6.96894 14.0936 6.96894 13.6175 6.67528 13.3239C6.38163 13.0302 5.90551 13.0302 5.61186 13.3239L4.18677 14.749C3.89311 15.0426 3.89311 15.5187 4.18677 15.8124C4.48042 16.106 4.95653 16.106 5.25019 15.8124L6.67528 14.3873Z" fill="#4C54D2"/>
<path d="M6.67528 6.13192C6.38163 6.42558 5.90551 6.42558 5.61186 6.13192L4.18677 4.70683C3.89311 4.41317 3.89311 3.93706 4.18677 3.64341C4.48042 3.34975 4.95653 3.34975 5.25019 3.64341L6.67528 5.0685C6.96894 5.36215 6.96894 5.83827 6.67528 6.13192Z" fill="#4C54D2"/>
<path d="M11.0233 15.5653C11.0233 15.1501 10.6867 14.8134 10.2714 14.8134C9.8561 14.8134 9.51943 15.1501 9.51943 15.5653V17.5807C9.51943 17.996 9.8561 18.3327 10.2714 18.3327C10.6867 18.3327 11.0233 17.996 11.0233 17.5807V15.5653Z" fill="#4C54D2"/>
</svg>
