<svg width="20" height="20" viewBox="0 0 20 20" fill="none" xmlns="http://www.w3.org/2000/svg">
<path d="M16.3252 3.77649C14.2104 5.20902 12.7336 7.4395 12.7336 10.0565C12.7336 12.6319 14.1645 14.8343 16.2255 16.2682C15.3644 16.6574 14.4081 16.8743 13.3979 16.8743C12.5856 16.8743 11.8061 16.7335 11.0827 16.4748C10.7181 16.9031 10.2632 17.2522 9.74744 17.4927C10.8499 18.0307 12.0886 18.3327 13.3979 18.3327C14.8215 18.3327 16.1617 17.9757 17.3339 17.3464C18.1952 16.8841 17.9773 15.69 17.166 15.1447C15.3467 13.9218 14.1919 12.0961 14.1919 10.0565C14.1919 7.98464 15.3835 6.13351 17.2529 4.91076C18.0687 4.37711 18.3007 3.18996 17.4492 2.71533C16.2499 2.04688 14.8684 1.66602 13.3979 1.66602C8.79556 1.66602 5.0646 5.39698 5.0646 9.99935C5.0646 10.4427 5.09922 10.8779 5.1659 11.3025C5.54203 10.8842 6.00665 10.5471 6.5303 10.3206C6.52541 10.2141 6.52293 10.107 6.52293 9.99935C6.52293 6.20239 9.60097 3.12435 13.3979 3.12435C14.4471 3.12435 15.4383 3.35842 16.3252 3.77649Z" fill="#737ADE"/>
<path fill-rule="evenodd" clip-rule="evenodd" d="M7.81735 10.9739C6.58869 10.9739 5.52399 11.6738 4.99967 12.6969C4.71174 12.5744 4.39486 12.5066 4.06217 12.5066C2.73773 12.5066 1.66406 13.5802 1.66406 14.9047C1.66406 16.1065 2.54769 17.1012 3.70117 17.2757C3.76401 17.2933 3.83029 17.3028 3.89878 17.3028H8.08468C8.16904 17.3028 8.25005 17.2884 8.32542 17.2621C9.83186 17.0186 10.9818 15.7132 10.9818 14.1383C10.9818 12.3907 9.56503 10.9739 7.81735 10.9739ZM7.93977 15.8444L4.00594 15.8444C3.99383 15.8426 3.98161 15.8411 3.96929 15.84C3.49423 15.7938 3.1224 15.3922 3.1224 14.9047C3.1224 14.3856 3.54315 13.9649 4.06217 13.9649C4.36793 13.9649 4.63953 14.1101 4.81234 14.3385C4.99353 14.5779 5.30295 14.6817 5.59189 14.6001C5.88084 14.5185 6.09023 14.2682 6.11945 13.9694C6.20381 13.1068 6.93225 12.4322 7.81735 12.4322C8.75961 12.4322 9.52346 13.1961 9.52346 14.1383C9.52346 15.0168 8.8589 15.7411 8.00554 15.8342C7.98327 15.8367 7.96134 15.8401 7.93977 15.8444Z" fill="#737ADE"/>
</svg>
