<svg width="16" height="16" viewBox="0 0 16 16" fill="none" xmlns="http://www.w3.org/2000/svg">
<path fill-rule="evenodd" clip-rule="evenodd" d="M13.9987 16H1.9987C1.6307 16 1.33203 15.7013 1.33203 15.3333V14.8887C1.33203 12.1233 3.38536 9.71333 6.1167 8.93333C4.4787 8.208 3.33203 6.57 3.33203 4.66667C3.33203 2.09333 5.42536 0 7.9987 0C10.572 0 12.6654 2.09333 12.6654 4.66667C12.6654 6.57 11.5187 8.208 9.8807 8.93333C12.612 9.71333 14.6654 12.1233 14.6654 14.8887V15.3333C14.6654 15.7013 14.3667 16 13.9987 16ZM11.332 4.66667C11.332 2.82867 9.8367 1.33333 7.9987 1.33333C6.1607 1.33333 4.66536 2.82867 4.66536 4.66667C4.66536 6.50467 6.1607 8 7.9987 8C9.8367 8 11.332 6.50467 11.332 4.66667ZM7.9987 10C5.1887 10 2.8027 12.1153 2.67136 14.6667H13.326C13.1947 12.1153 10.8087 10 7.9987 10Z" fill="#868E96"/>
</svg>
