<svg width="22" height="22" viewBox="0 0 22 22" fill="none" xmlns="http://www.w3.org/2000/svg">
<path fill-rule="evenodd" clip-rule="evenodd" d="M11 22C4.93442 22 0 17.0656 0 11C0 4.93442 4.93442 0 11 0C17.0656 0 22 4.93442 22 11C22 17.0656 17.0656 22 11 22ZM11 1.83333C5.9455 1.83333 1.83333 5.9455 1.83333 11C1.83333 16.0545 5.9455 20.1667 11 20.1667C16.0545 20.1667 20.1667 16.0545 20.1667 11C20.1667 5.9455 16.0545 1.83333 11 1.83333ZM11 17.4167C10.7617 17.4167 10.5233 17.3158 10.3492 17.1508C10.1832 16.9767 10.0833 16.7383 10.0833 16.5C10.0833 16.2525 10.1832 16.0233 10.3492 15.8492C10.6883 15.51 11.3025 15.51 11.6508 15.8492C11.8158 16.0233 11.9167 16.2525 11.9167 16.5C11.9167 16.7383 11.8158 16.9767 11.6508 17.1508C11.4767 17.3158 11.2383 17.4167 11 17.4167ZM11 13.75C10.4931 13.75 10.0833 13.3393 10.0833 12.8333V5.5C10.0833 4.994 10.4931 4.58333 11 4.58333C11.5069 4.58333 11.9167 4.994 11.9167 5.5V12.8333C11.9167 13.3393 11.5069 13.75 11 13.75Z" fill="#E32444"/>
</svg>
