<svg width="17" height="18" fill="#4C54D2" xmlns="http://www.w3.org/2000/svg"><path fill-rule="evenodd" clip-rule="evenodd" d="M13.813 11.126A3.191 3.191 0 0 1 17 14.312a3.191 3.191 0 0 1-3.188 3.188 3.191 3.191 0 0 1-3.187-3.188 3.191 3.191 0 0 1 3.188-3.186Zm0 1.417c-.228 0-.444.046-.644.125l2.289 2.288c.079-.2.125-.416.125-.644 0-.976-.794-1.77-1.77-1.77Zm0 3.54c.227 0 .444-.046.643-.125l-2.289-2.29c-.079.2-.125.417-.125.644 0 .977.794 1.772 1.77 1.772Z" fill="#4C54D2"/><path d="M8.5.5C3.825.5 0 4.325 0 9s3.825 8.5 8.5 8.5h.354a.71.71 0 0 0 .709-.708c0-.355-.355-.638-.709-.638-.708-.92-1.558-2.267-2.054-3.966h1.913c.425 0 .708-.284.708-.709s-.284-.708-.708-.708H6.517c0-.142-.071-.284-.071-.425-.142-1.133-.071-2.054.07-2.975h3.896c.071.637.142 1.346.142 2.054 0 .425.284.708.708.708a.71.71 0 0 0 .709-.708c0-.708 0-1.417-.142-2.125h3.542c.141.496.212 1.063.212 1.63 0 .283 0 .566-.07.85-.071.353.212.708.637.778.354.071.708-.212.78-.637C17 9.708 17 9.354 17 9 17 4.325 13.175.5 8.5.5ZM7.013 2.058c-.567.992-1.276 2.267-1.63 3.896H2.125c.92-1.983 2.763-3.4 4.888-3.896Zm0 13.884c-2.125-.496-3.896-1.913-4.817-3.825h3.187a11.962 11.962 0 0 0 1.63 3.825Zm-1.984-5.525c0 .07 0 .212.071.283H1.63c-.142-.496-.213-1.133-.213-1.7s.07-1.133.212-1.63H5.1c-.142.922-.212 1.984-.07 3.047Zm3.33-4.463H6.87A12.229 12.229 0 0 1 8.5 2.484a12.23 12.23 0 0 1 1.63 3.47H8.357Zm6.516 0h-3.33c-.424-1.629-1.062-2.975-1.7-3.896 2.197.425 4.11 1.913 5.03 3.896Z" fill="#4C54D2"/></svg>
