<svg width="17" height="13" fill="none" xmlns="http://www.w3.org/2000/svg"><path fill-rule="evenodd" clip-rule="evenodd" d="M16.292 1.75H3.542a.709.709 0 0 1 0-1.417h12.75a.709.709 0 0 1 0 1.417ZM0 10.958h1.417v1.417H0v-1.417Zm0-3.541h1.417v1.416H0V7.417Zm0-3.542h1.417v1.417H0V3.875ZM0 .333h1.417V1.75H0V.333Zm3.542 3.542h9.916a.709.709 0 0 1 0 1.417H3.542a.709.709 0 0 1 0-1.417Zm0 3.542h12.75a.709.709 0 0 1 0 1.416H3.542a.709.709 0 0 1 0-1.416Zm0 3.541h9.916a.709.709 0 0 1 0 1.417H3.542a.709.709 0 0 1 0-1.417Z" fill="#4C54D2"/></svg>
