<svg width="15" height="14" viewBox="0 0 15 14" fill="none" xmlns="http://www.w3.org/2000/svg">
<path fill-rule="evenodd" clip-rule="evenodd" d="M0.558105 0.625016C0.558105 0.312055 0.811811 0.0583496 1.12477 0.0583496L9.62477 0.0583496C9.93773 0.0583496 10.1914 0.312055 10.1914 0.625016C10.1914 0.926083 9.95665 1.17231 9.66019 1.19059V3.24585L13.8748 3.24585C14.1877 3.24585 14.4414 3.49955 14.4414 3.81252C14.4414 4.11358 14.2067 4.35981 13.9102 4.37809L13.9102 13.375C13.9102 13.688 13.6565 13.9417 13.3435 13.9417L1.65602 13.9417C1.34306 13.9417 1.08936 13.688 1.08936 13.375L1.08936 1.19059C0.792892 1.17231 0.558105 0.926083 0.558105 0.625016ZM2.22269 1.19168L2.22269 12.8083H3.21436L3.21436 10.9844C3.21436 10.2313 3.82483 9.62085 4.5779 9.62085L6.17165 9.62085C6.92471 9.62085 7.53519 10.2313 7.53519 10.9844L7.53519 12.8083H8.52686L8.52686 1.19168L2.22269 1.19168ZM9.66019 4.37918L9.66019 12.8083H12.7769L12.7769 4.37918L9.66019 4.37918ZM6.40186 12.8083L6.40186 10.9844C6.40186 10.8573 6.29879 10.7542 6.17165 10.7542L4.5779 10.7542C4.45076 10.7542 4.34769 10.8573 4.34769 10.9844L4.34769 12.8083L6.40186 12.8083ZM3.21436 3.28127C3.21436 2.9683 3.46806 2.7146 3.78102 2.7146L4.31227 2.7146C4.62523 2.7146 4.87894 2.9683 4.87894 3.28127C4.87894 3.59423 4.62523 3.84793 4.31227 3.84793L3.78102 3.84793C3.46806 3.84793 3.21436 3.59423 3.21436 3.28127ZM5.87061 3.28127C5.87061 2.9683 6.12431 2.7146 6.43727 2.7146H6.96852C7.28148 2.7146 7.53519 2.9683 7.53519 3.28127C7.53519 3.59423 7.28148 3.84793 6.96852 3.84793H6.43727C6.12431 3.84793 5.87061 3.59423 5.87061 3.28127ZM3.21436 5.40627C3.21436 5.09331 3.46806 4.8396 3.78102 4.8396H4.31227C4.62523 4.8396 4.87894 5.09331 4.87894 5.40627C4.87894 5.71923 4.62523 5.97293 4.31227 5.97293H3.78102C3.46806 5.97293 3.21436 5.71923 3.21436 5.40627ZM5.87061 5.40627C5.87061 5.09331 6.12431 4.8396 6.43727 4.8396H6.96852C7.28148 4.8396 7.53519 5.09331 7.53519 5.40627C7.53519 5.71923 7.28148 5.97293 6.96852 5.97293H6.43727C6.12431 5.97293 5.87061 5.71923 5.87061 5.40627ZM10.6519 6.46877C10.6519 6.15581 10.9056 5.9021 11.2185 5.9021H11.2238C11.5368 5.9021 11.7905 6.15581 11.7905 6.46877V6.47408C11.7905 6.78704 11.5368 7.04075 11.2238 7.04075H11.2185C10.9056 7.04075 10.6519 6.78704 10.6519 6.47408V6.46877ZM3.21436 7.53127C3.21436 7.2183 3.46806 6.9646 3.78102 6.9646H4.31227C4.62523 6.9646 4.87894 7.2183 4.87894 7.53127C4.87894 7.84423 4.62523 8.09793 4.31227 8.09793H3.78102C3.46806 8.09793 3.21436 7.84423 3.21436 7.53127ZM5.87061 7.53127C5.87061 7.2183 6.12431 6.9646 6.43727 6.9646H6.96852C7.28148 6.9646 7.53519 7.2183 7.53519 7.53127C7.53519 7.84423 7.28148 8.09793 6.96852 8.09793H6.43727C6.12431 8.09793 5.87061 7.84423 5.87061 7.53127ZM10.6519 8.59377C10.6519 8.2808 10.9056 8.0271 11.2185 8.0271H11.2238C11.5368 8.0271 11.7905 8.2808 11.7905 8.59377V8.59908C11.7905 8.91204 11.5368 9.16574 11.2238 9.16574H11.2185C10.9056 9.16574 10.6519 8.91204 10.6519 8.59908V8.59377ZM10.6519 10.7188C10.6519 10.4058 10.9056 10.1521 11.2185 10.1521H11.2238C11.5368 10.1521 11.7905 10.4058 11.7905 10.7188V10.7241C11.7905 11.037 11.5368 11.2907 11.2238 11.2907H11.2185C10.9056 11.2907 10.6519 11.037 10.6519 10.7241V10.7188Z" fill="#4C54D2"/>
</svg>
