<?xml version="1.0" encoding="UTF-8"?>
<!--Generator: Apple Native CoreSVG 175.5-->
<!DOCTYPE svg
PUBLIC "-//W3C//DTD SVG 1.1//EN"
       "http://www.w3.org/Graphics/SVG/1.1/DTD/svg11.dtd">
<svg version="1.1" xmlns="http://www.w3.org/2000/svg" xmlns:xlink="http://www.w3.org/1999/xlink" width="3300" height="2200">
 <!--glyph: "", point size: 100.0, font version: "18.0d12e2", template writer version: "101"-->
 <g id="Notes">
  <rect height="2200" id="artboard" style="fill:white;opacity:1" width="3300" x="0" y="0"/>
  <line style="fill:none;stroke:black;opacity:1;stroke-width:0.5;" x1="263" x2="3036" y1="292" y2="292"/>
  <text style="stroke:none;fill:black;font-family:sans-serif;font-size:13;font-weight:bold;" transform="matrix(1 0 0 1 263 322)">Weight/Scale Variations</text>
  <text style="stroke:none;fill:black;font-family:sans-serif;font-size:13;text-anchor:middle;" transform="matrix(1 0 0 1 559.711 322)">Ultralight</text>
  <text style="stroke:none;fill:black;font-family:sans-serif;font-size:13;text-anchor:middle;" transform="matrix(1 0 0 1 856.422 322)">Thin</text>
  <text style="stroke:none;fill:black;font-family:sans-serif;font-size:13;text-anchor:middle;" transform="matrix(1 0 0 1 1153.13 322)">Light</text>
  <text style="stroke:none;fill:black;font-family:sans-serif;font-size:13;text-anchor:middle;" transform="matrix(1 0 0 1 1449.84 322)">Regular</text>
  <text style="stroke:none;fill:black;font-family:sans-serif;font-size:13;text-anchor:middle;" transform="matrix(1 0 0 1 1746.56 322)">Medium</text>
  <text style="stroke:none;fill:black;font-family:sans-serif;font-size:13;text-anchor:middle;" transform="matrix(1 0 0 1 2043.27 322)">Semibold</text>
  <text style="stroke:none;fill:black;font-family:sans-serif;font-size:13;text-anchor:middle;" transform="matrix(1 0 0 1 2339.98 322)">Bold</text>
  <text style="stroke:none;fill:black;font-family:sans-serif;font-size:13;text-anchor:middle;" transform="matrix(1 0 0 1 2636.69 322)">Heavy</text>
  <text style="stroke:none;fill:black;font-family:sans-serif;font-size:13;text-anchor:middle;" transform="matrix(1 0 0 1 2933.4 322)">Black</text>
  <line style="fill:none;stroke:black;opacity:1;stroke-width:0.5;" x1="263" x2="3036" y1="1903" y2="1903"/>
  <g transform="matrix(1 0 0 1 263 1933)">
   <path d="M9.24805 0.830078C13.5547 0.830078 17.1387-2.74414 17.1387-7.05078C17.1387-11.3574 13.5449-14.9316 9.23828-14.9316C4.94141-14.9316 1.36719-11.3574 1.36719-7.05078C1.36719-2.74414 4.95117 0.830078 9.24805 0.830078ZM9.24805-0.654297C5.70312-0.654297 2.87109-3.49609 2.87109-7.05078C2.87109-10.6055 5.69336-13.4473 9.23828-13.4473C12.793-13.4473 15.6445-10.6055 15.6445-7.05078C15.6445-3.49609 12.8027-0.654297 9.24805-0.654297ZM5.6543-7.05078C5.6543-6.62109 5.95703-6.32812 6.40625-6.32812L8.50586-6.32812L8.50586-4.20898C8.50586-3.76953 8.79883-3.4668 9.22852-3.4668C9.67773-3.4668 9.9707-3.76953 9.9707-4.20898L9.9707-6.32812L12.0898-6.32812C12.5293-6.32812 12.832-6.62109 12.832-7.05078C12.832-7.49023 12.5293-7.79297 12.0898-7.79297L9.9707-7.79297L9.9707-9.90234C9.9707-10.3516 9.67773-10.6543 9.22852-10.6543C8.79883-10.6543 8.50586-10.3516 8.50586-9.90234L8.50586-7.79297L6.40625-7.79297C5.95703-7.79297 5.6543-7.49023 5.6543-7.05078Z"/>
  </g>
  <g transform="matrix(1 0 0 1 281.867 1933)">
   <path d="M11.709 2.91016C17.1582 2.91016 21.6699-1.61133 21.6699-7.05078C21.6699-12.5 17.1484-17.0117 11.6992-17.0117C6.25977-17.0117 1.74805-12.5 1.74805-7.05078C1.74805-1.61133 6.26953 2.91016 11.709 2.91016ZM11.709 1.25C7.09961 1.25 3.41797-2.44141 3.41797-7.05078C3.41797-11.6602 7.08984-15.3516 11.6992-15.3516C16.3086-15.3516 20.0098-11.6602 20.0098-7.05078C20.0098-2.44141 16.3184 1.25 11.709 1.25ZM7.17773-7.05078C7.17773-6.57227 7.50977-6.25 8.00781-6.25L10.8789-6.25L10.8789-3.36914C10.8789-2.88086 11.2109-2.53906 11.6895-2.53906C12.1777-2.53906 12.5195-2.87109 12.5195-3.36914L12.5195-6.25L15.4004-6.25C15.8887-6.25 16.2305-6.57227 16.2305-7.05078C16.2305-7.53906 15.8887-7.88086 15.4004-7.88086L12.5195-7.88086L12.5195-10.752C12.5195-11.25 12.1777-11.5918 11.6895-11.5918C11.2109-11.5918 10.8789-11.25 10.8789-10.752L10.8789-7.88086L8.00781-7.88086C7.50977-7.88086 7.17773-7.53906 7.17773-7.05078Z"/>
  </g>
  <g transform="matrix(1 0 0 1 305.646 1933)">
   <path d="M14.9707 5.66406C21.9336 5.66406 27.6953-0.0976562 27.6953-7.05078C27.6953-14.0137 21.9238-19.7754 14.9609-19.7754C8.00781-19.7754 2.25586-14.0137 2.25586-7.05078C2.25586-0.0976562 8.01758 5.66406 14.9707 5.66406ZM14.9707 3.84766C8.93555 3.84766 4.08203-1.01562 4.08203-7.05078C4.08203-13.0957 8.92578-17.9492 14.9609-17.9492C21.0059-17.9492 25.8691-13.0957 25.8691-7.05078C25.8691-1.01562 21.0156 3.84766 14.9707 3.84766ZM9.19922-7.05078C9.19922-6.5332 9.57031-6.17188 10.1172-6.17188L14.0625-6.17188L14.0625-2.2168C14.0625-1.67969 14.4336-1.29883 14.9512-1.29883C15.4883-1.29883 15.8594-1.66992 15.8594-2.2168L15.8594-6.17188L19.8145-6.17188C20.3516-6.17188 20.7324-6.5332 20.7324-7.05078C20.7324-7.59766 20.3613-7.96875 19.8145-7.96875L15.8594-7.96875L15.8594-11.9141C15.8594-12.4609 15.4883-12.8418 14.9512-12.8418C14.4336-12.8418 14.0625-12.4609 14.0625-11.9141L14.0625-7.96875L10.1172-7.96875C9.57031-7.96875 9.19922-7.59766 9.19922-7.05078Z"/>
  </g>
  <text style="stroke:none;fill:black;font-family:sans-serif;font-size:13;font-weight:bold;" transform="matrix(1 0 0 1 263 1953)">Design Variations</text>
  <text style="stroke:none;fill:black;font-family:sans-serif;font-size:13;" transform="matrix(1 0 0 1 263 1971)">Symbols are supported in up to nine weights and three scales.</text>
  <text style="stroke:none;fill:black;font-family:sans-serif;font-size:13;" transform="matrix(1 0 0 1 263 1989)">For optimal layout with text and other symbols, vertically align</text>
  <text style="stroke:none;fill:black;font-family:sans-serif;font-size:13;" transform="matrix(1 0 0 1 263 2007)">symbols with the adjacent text.</text>
  <line style="fill:none;stroke:#00AEEF;stroke-width:0.5;opacity:1.0;" x1="776" x2="776" y1="1919" y2="1933"/>
  <g transform="matrix(1 0 0 1 776 1933)">
   <path d="M3.31055 0.15625C3.82812 0.15625 4.08203-0.0390625 4.26758-0.585938L5.52734-4.0332L11.2891-4.0332L12.5488-0.585938C12.7344-0.0390625 12.9883 0.15625 13.4961 0.15625C14.0137 0.15625 14.3457-0.15625 14.3457-0.644531C14.3457-0.810547 14.3164-0.966797 14.2383-1.17188L9.6582-13.3691C9.43359-13.9648 9.0332-14.2676 8.4082-14.2676C7.80273-14.2676 7.39258-13.9746 7.17773-13.3789L2.59766-1.16211C2.51953-0.957031 2.49023-0.800781 2.49023-0.634766C2.49023-0.146484 2.80273 0.15625 3.31055 0.15625ZM6.00586-5.51758L8.37891-12.0898L8.42773-12.0898L10.8008-5.51758Z"/>
  </g>
  <line style="fill:none;stroke:#00AEEF;stroke-width:0.5;opacity:1.0;" x1="793.197" x2="793.197" y1="1919" y2="1933"/>
  <text style="stroke:none;fill:black;font-family:sans-serif;font-size:13;font-weight:bold;" transform="matrix(1 0 0 1 776 1953)">Margins</text>
  <text style="stroke:none;fill:black;font-family:sans-serif;font-size:13;" transform="matrix(1 0 0 1 776 1971)">Leading and trailing margins on the left and right side of each symbol</text>
  <text style="stroke:none;fill:black;font-family:sans-serif;font-size:13;" transform="matrix(1 0 0 1 776 1989)">can be adjusted by modifying the x-location of the margin guidelines.</text>
  <text style="stroke:none;fill:black;font-family:sans-serif;font-size:13;" transform="matrix(1 0 0 1 776 2007)">Modifications are automatically applied proportionally to all</text>
  <text style="stroke:none;fill:black;font-family:sans-serif;font-size:13;" transform="matrix(1 0 0 1 776 2025)">scales and weights.</text>
  <g transform="matrix(1 0 0 1 1289 1933)">
   <path d="M2.8418 1.86523L4.54102 3.57422C5.40039 4.44336 6.38672 4.38477 7.31445 3.35938L18.0078-8.42773L17.041-9.4043L6.42578 2.27539C6.07422 2.67578 5.74219 2.77344 5.27344 2.30469L4.10156 1.14258C3.63281 0.683594 3.74023 0.341797 4.14062-0.0195312L15.6152-10.8203L14.6387-11.7871L3.04688-0.898438C2.06055 0.0195312 1.98242 0.996094 2.8418 1.86523ZM9.25781-16.3281C8.83789-15.918 8.80859-15.3418 9.04297-14.9512C9.27734-14.5898 9.73633-14.3555 10.3809-14.5215C11.8457-14.8633 13.3691-14.9219 14.7949-13.9844L14.209-12.5293C13.8672-11.6992 14.043-11.1133 14.5801-10.5664L16.875-8.25195C17.3633-7.76367 17.7734-7.74414 18.3398-7.8418L19.4043-8.03711L20.0684-7.36328L20.0293-6.80664C19.9902-6.30859 20.1172-5.92773 20.6055-5.44922L21.3672-4.70703C21.8457-4.22852 22.4609-4.19922 22.9297-4.66797L25.8398-7.58789C26.3086-8.05664 26.2891-8.65234 25.8105-9.13086L25.0391-9.89258C24.5605-10.3711 24.1895-10.5273 23.7109-10.4883L23.1348-10.4395L22.4902-11.0742L22.7344-12.1973C22.8613-12.7637 22.7051-13.2031 22.1191-13.7891L19.9219-15.9766C16.582-19.2969 12.1484-19.2188 9.25781-16.3281ZM10.752-15.957C13.1836-17.7344 16.4746-17.4316 18.7012-15.2051L21.1328-12.793C21.3672-12.5586 21.4062-12.373 21.3379-12.0312L21.0156-10.5469L22.5195-9.0625L23.5059-9.12109C23.7598-9.13086 23.8379-9.11133 24.0332-8.91602L24.6094-8.33984L22.168-5.89844L21.5918-6.47461C21.3965-6.66992 21.3672-6.74805 21.377-7.01172L21.4453-7.98828L19.9512-9.47266L18.4277-9.21875C18.1055-9.15039 17.959-9.17969 17.7148-9.41406L15.7129-11.416C15.459-11.6504 15.4297-11.8164 15.5859-12.1875L16.4648-14.2773C14.9023-15.7324 12.8711-16.3574 10.8398-15.7617C10.6836-15.7227 10.625-15.8496 10.752-15.957Z"/>
  </g>
  <text style="stroke:none;fill:black;font-family:sans-serif;font-size:13;font-weight:bold;" transform="matrix(1 0 0 1 1289 1953)">Exporting</text>
  <text style="stroke:none;fill:black;font-family:sans-serif;font-size:13;" transform="matrix(1 0 0 1 1289 1971)">Symbols should be outlined when exporting to ensure the</text>
  <text style="stroke:none;fill:black;font-family:sans-serif;font-size:13;" transform="matrix(1 0 0 1 1289 1989)">design is preserved when submitting to Xcode.</text>
  <text id="template-version" style="stroke:none;fill:black;font-family:sans-serif;font-size:13;text-anchor:end;" transform="matrix(1 0 0 1 3036 1933)">Template v.2.0</text>
  <text style="stroke:none;fill:black;font-family:sans-serif;font-size:13;text-anchor:end;" transform="matrix(1 0 0 1 3036 1951)">Requires Xcode 12 or greater</text>
  <text id="descriptive-name" style="stroke:none;fill:black;font-family:sans-serif;font-size:13;text-anchor:end;" transform="matrix(1 0 0 1 3036 1969)">Generated from brave.party.popper</text>
  <text style="stroke:none;fill:black;font-family:sans-serif;font-size:13;text-anchor:end;" transform="matrix(1 0 0 1 3036 1987)">Typeset at 100 points</text>
  <text style="stroke:none;fill:black;font-family:sans-serif;font-size:13;" transform="matrix(1 0 0 1 263 726)">Small</text>
  <text style="stroke:none;fill:black;font-family:sans-serif;font-size:13;" transform="matrix(1 0 0 1 263 1156)">Medium</text>
  <text style="stroke:none;fill:black;font-family:sans-serif;font-size:13;" transform="matrix(1 0 0 1 263 1586)">Large</text>
 </g>
 <g id="Guides">
  <g id="H-reference" style="fill:#27AAE1;stroke:none;" transform="matrix(1 0 0 1 339 696)">
   <path d="M0.993654 0L3.63775 0L29.3281-67.1323L30.0303-67.1323L30.0303-70.459L28.1226-70.459ZM11.6885-24.4799L46.9815-24.4799L46.2315-26.7285L12.4385-26.7285ZM55.1196 0L57.7637 0L30.6382-70.459L29.4326-70.459L29.4326-67.1323Z"/>
  </g>
  <line id="Baseline-S" style="fill:none;stroke:#27AAE1;opacity:1;stroke-width:0.5;" x1="263" x2="3036" y1="696" y2="696"/>
  <line id="Capline-S" style="fill:none;stroke:#27AAE1;opacity:1;stroke-width:0.5;" x1="263" x2="3036" y1="625.541" y2="625.541"/>
  <g id="H-reference" style="fill:#27AAE1;stroke:none;" transform="matrix(1 0 0 1 339 1126)">
   <path d="M0.993654 0L3.63775 0L29.3281-67.1323L30.0303-67.1323L30.0303-70.459L28.1226-70.459ZM11.6885-24.4799L46.9815-24.4799L46.2315-26.7285L12.4385-26.7285ZM55.1196 0L57.7637 0L30.6382-70.459L29.4326-70.459L29.4326-67.1323Z"/>
  </g>
  <line id="Baseline-M" style="fill:none;stroke:#27AAE1;opacity:1;stroke-width:0.5;" x1="263" x2="3036" y1="1126" y2="1126"/>
  <line id="Capline-M" style="fill:none;stroke:#27AAE1;opacity:1;stroke-width:0.5;" x1="263" x2="3036" y1="1055.54" y2="1055.54"/>
  <g id="H-reference" style="fill:#27AAE1;stroke:none;" transform="matrix(1 0 0 1 339 1556)">
   <path d="M0.993654 0L3.63775 0L29.3281-67.1323L30.0303-67.1323L30.0303-70.459L28.1226-70.459ZM11.6885-24.4799L46.9815-24.4799L46.2315-26.7285L12.4385-26.7285ZM55.1196 0L57.7637 0L30.6382-70.459L29.4326-70.459L29.4326-67.1323Z"/>
  </g>
  <line id="Baseline-L" style="fill:none;stroke:#27AAE1;opacity:1;stroke-width:0.5;" x1="263" x2="3036" y1="1556" y2="1556"/>
  <line id="Capline-L" style="fill:none;stroke:#27AAE1;opacity:1;stroke-width:0.5;" x1="263" x2="3036" y1="1485.54" y2="1485.54"/>
  <line id="left-margin" style="fill:none;stroke:#00AEEF;stroke-width:0.5;opacity:1.0;" x1="1387.37" x2="1387.37" y1="1030.79" y2="1150.12"/>
  <line id="right-margin" style="fill:none;stroke:#00AEEF;stroke-width:0.5;opacity:1.0;" x1="1512.31" x2="1512.31" y1="1030.79" y2="1150.12"/>
 </g>
 <g id="Symbols">
  <g id="Regular-L" transform="matrix(1 0 0 1 1372.87 1556)">
   <path d="M78.3152-100.049C81.2979-99.303 83.111-96.2811 82.3654-93.2989L78.8982-79.432C78.1526-76.4497 75.1306-74.6366 72.148-75.3821C69.166-76.1277 67.3527-79.1496 68.0984-82.1317L71.5648-95.9987C72.3105-98.981 75.3326-100.794 78.3152-100.049ZM31.8947-100.215C34.9689-100.215 37.4611-97.7229 37.4611-94.6488L37.4611-93.2813L38.8286-93.2813C41.9028-93.2813 44.395-90.7894 44.395-87.7153C44.395-84.6413 41.9028-82.1494 38.8286-82.1494L37.4611-82.1494L37.4611-80.7819C37.4611-77.7078 34.9689-75.2159 31.8947-75.2159C28.8206-75.2159 26.3286-77.7078 26.3286-80.7819L26.3286-82.1494L24.9608-82.1494C21.8866-82.1494 19.3946-84.6413 19.3946-87.7153C19.3946-90.7894 21.8866-93.2813 24.9608-93.2813L26.3286-93.2813L26.3286-94.6488C26.3286-97.7229 28.8206-100.215 31.8947-100.215ZM128.969-100.215C132.044-100.215 134.535-97.7229 134.535-94.6488L134.535-93.2813L135.903-93.2813C138.978-93.2813 141.469-90.7894 141.469-87.7153C141.469-84.6413 138.978-82.1494 135.903-82.1494L134.535-82.1494L134.535-80.7819C134.535-77.7078 132.044-75.2159 128.969-75.2159C125.895-75.2159 123.403-77.7078 123.403-80.7819L123.403-82.1494L122.036-82.1494C118.962-82.1494 116.469-84.6413 116.469-87.7153C116.469-90.7894 118.962-93.2813 122.036-93.2813L123.403-93.2813L123.403-94.6488C123.403-97.7229 125.895-100.215 128.969-100.215ZM105.17-63.917C107.344-61.7434 107.344-58.2192 105.17-56.0456L98.2359-49.1122C96.0621-46.9384 92.5376-46.9384 90.3638-49.1122C88.19-51.2858 88.19-54.81 90.3638-56.9835L97.298-63.917C99.4718-66.0907 102.996-66.0907 105.17-63.917ZM48.1199-58.526C49.9138-58.8484 51.752-58.2722 53.0407-56.9835L98.2359-11.7911C99.5247-10.5023 100.101-8.66468 99.7781-6.87099C99.4563-5.07719 98.2759-3.55499 96.6194-2.79582L30.1921 27.6527C27.8703 28.7131 25.2798 29.0382 22.7678 28.5848C20.2558 28.132 17.9425 26.922 16.1375 25.1173C14.3327 23.3118 13.1226 20.9989 12.6693 18.4873C12.2161 15.975 12.5413 13.3847 13.6015 11.0633L13.6047 11.0562L44.0444-55.3665C44.8038-57.0234 46.3261-58.2035 48.1199-58.526ZM50.8299-43.4515L23.7283 15.6873C23.6117 15.944 23.5748 16.233 23.6248 16.5103C23.675 16.789 23.8093 17.0457 24.0095 17.2456C24.2097 17.4456 24.4662 17.5797 24.7447 17.6301C25.0223 17.6804 25.3087 17.6442 25.5655 17.5281L84.7036-9.57929L50.8299-43.4515ZM141.303-37.064C142.049-34.0815 140.235-31.0598 137.253-30.3142L123.386-26.8472C120.403-26.1023 117.381-27.9153 116.635-30.8972C115.89-33.8797 117.703-36.9015 120.686-37.6471L134.554-41.114C137.536-41.8597 140.558-40.0459 141.303-37.064ZM128.969-3.14541C132.044-3.14541 134.535-0.653779 134.535 2.42029L134.535 3.78769L135.903 3.78769C138.978 3.78769 141.469 6.27998 141.469 9.35405C141.469 12.4275 138.978 14.9198 135.903 14.9198L134.535 14.9198L134.535 16.2872C134.535 19.3613 132.044 21.8529 128.969 21.8529C125.895 21.8529 123.403 19.3613 123.403 16.2872L123.403 14.9198L122.036 14.9198C118.962 14.9198 116.469 12.4275 116.469 9.35405C116.469 6.27998 118.962 3.78769 122.036 3.78769L123.403 3.78769L123.403 2.42029C123.403-0.653779 125.895-3.14541 128.969-3.14541Z"/>
  </g>
  <g id="Regular-M" transform="matrix(1 0 0 1 1387.37 1126)">
   <path d="M63.5128-86.302C65.825-85.724 67.2306-83.3814 66.6526-81.0696L63.9648-70.3201C63.3868-68.0083 61.0442-66.6027 58.7321-67.1806C56.4204-67.7586 55.0148-70.1012 55.5929-72.4129L58.28-83.1625C58.8581-85.4743 61.2007-86.8799 63.5128-86.302ZM27.528-86.4308C29.9111-86.4308 31.843-84.4991 31.843-82.1161L31.843-81.056L32.9031-81.056C35.2862-81.056 37.2181-79.1243 37.2181-76.7413C37.2181-74.3583 35.2862-72.4266 32.9031-72.4266L31.843-72.4266L31.843-71.3665C31.843-68.9835 29.9111-67.0518 27.528-67.0518C25.145-67.0518 23.2132-68.9835 23.2132-71.3665L23.2132-72.4266L22.1529-72.4266C19.7698-72.4266 17.838-74.3583 17.838-76.7413C17.838-79.1243 19.7698-81.056 22.1529-81.056L23.2132-81.056L23.2132-82.1161C23.2132-84.4991 25.145-86.4308 27.528-86.4308ZM102.779-86.4308C105.163-86.4308 107.094-84.4991 107.094-82.1161L107.094-81.056L108.155-81.056C110.539-81.056 112.469-79.1243 112.469-76.7413C112.469-74.3583 110.539-72.4266 108.155-72.4266L107.094-72.4266L107.094-71.3665C107.094-68.9835 105.163-67.0518 102.779-67.0518C100.397-67.0518 98.4649-68.9835 98.4649-71.3665L98.4649-72.4266L97.4048-72.4266C95.0221-72.4266 93.0894-74.3583 93.0894-76.7413C93.0894-79.1243 95.0221-81.056 97.4048-81.056L98.4649-81.056L98.4649-82.1161C98.4649-84.4991 100.397-86.4308 102.779-86.4308ZM84.3305-58.293C86.0156-56.608 86.0156-53.8761 84.3305-52.1911L78.9552-46.8163C77.2701-45.1313 74.538-45.1313 72.8529-46.8163C71.1678-48.5013 71.1678-51.2333 72.8529-52.9182L78.2282-58.293C79.9133-59.978 82.6454-59.978 84.3305-58.293ZM40.1057-54.1139C41.4963-54.3638 42.9212-53.9172 43.9202-52.9182L78.9552-17.8853C79.9543-16.8863 80.4008-15.4617 80.1508-14.0713C79.9013-12.6807 78.9862-11.5007 77.7021-10.9122L26.2082 12.6913C24.4082 13.5133 22.4001 13.7653 20.4529 13.4138C18.5056 13.0628 16.7123 12.1248 15.3131 10.7258C13.914 9.32629 12.9759 7.53329 12.6246 5.58631C12.2732 3.63881 12.5253 1.6308 13.3472-0.168704L13.3497-0.174204L36.9464-51.6647C37.535-52.9491 38.7151-53.8639 40.1057-54.1139ZM42.2064-42.4283L21.1974 3.41581C21.1071 3.61481 21.0784 3.83881 21.1172 4.05381C21.1561 4.26981 21.2602 4.46881 21.4154 4.62381C21.5706 4.77881 21.7694 4.88281 21.9853 4.92181C22.2005 4.96081 22.4225 4.93281 22.6216 4.84281L68.4651-16.1707L42.2064-42.4283ZM112.34-37.4767C112.919-35.1647 111.513-32.8223 109.201-32.2443L98.4512-29.5567C96.1394-28.9793 93.7967-30.3847 93.2185-32.6963C92.6403-35.0083 94.0457-37.3507 96.3585-37.9287L107.109-40.6163C109.42-41.1943 111.763-39.7883 112.34-37.4767ZM102.779-11.1832C105.163-11.1832 107.094-9.25171 107.094-6.86871L107.094-5.80871L108.155-5.80871C110.539-5.80871 112.469-3.87671 112.469-1.4937C112.469 0.888796 110.539 2.82081 108.155 2.82081L107.094 2.82081L107.094 3.88081C107.094 6.26383 105.163 8.19529 102.779 8.19529C100.397 8.19529 98.4649 6.26383 98.4649 3.88081L98.4649 2.82081L97.4048 2.82081C95.0221 2.82081 93.0894 0.888796 93.0894-1.4937C93.0894-3.87671 95.0221-5.80871 97.4048-5.80871L98.4649-5.80871L98.4649-6.86871C98.4649-9.25171 100.397-11.1832 102.779-11.1832Z"/>
  </g>
  <g id="Regular-S" transform="matrix(1 0 0 1 1398.37 696)">
   <path d="M52.2835-74.8987C54.087-74.4479 55.1833-72.6207 54.7325-70.8175L52.636-62.4328C52.1852-60.6296 50.3579-59.5333 48.5545-59.9841C46.7514-60.4349 45.655-62.2621 46.1059-64.0652L48.2019-72.45C48.6528-74.2532 50.48-75.3495 52.2835-74.8987ZM24.2153-74.9992C26.0741-74.9992 27.581-73.4925 27.581-71.6337L27.581-70.8069L28.4079-70.8069C30.2667-70.8069 31.7736-69.3001 31.7736-67.4414C31.7736-65.5827 30.2667-64.0759 28.4079-64.0759L27.581-64.0759L27.581-63.2491C27.581-61.3903 26.0741-59.8836 24.2153-59.8836C22.3565-59.8836 20.8497-61.3903 20.8497-63.2491L20.8497-64.0759L20.0227-64.0759C18.1639-64.0759 16.6571-65.5827 16.6571-67.4414C16.6571-69.3001 18.1639-70.8069 20.0227-70.8069L20.8497-70.8069L20.8497-71.6337C20.8497-73.4925 22.3565-74.9992 24.2153-74.9992ZM82.9114-74.9992C84.7706-74.9992 86.2768-73.4925 86.2768-71.6337L86.2768-70.8069L87.1043-70.8069C88.9635-70.8069 90.4696-69.3001 90.4696-67.4414C90.4696-65.5827 88.9635-64.0759 87.1043-64.0759L86.2768-64.0759L86.2768-63.2491C86.2768-61.3903 84.7706-59.8836 82.9114-59.8836C81.0529-59.8836 79.546-61.3903 79.546-63.2491L79.546-64.0759L78.7192-64.0759C76.8607-64.0759 75.3532-65.5827 75.3532-67.4414C75.3532-69.3001 76.8607-70.8069 78.7192-70.8069L79.546-70.8069L79.546-71.6337C79.546-73.4925 81.0529-74.9992 82.9114-74.9992ZM68.5213-53.0517C69.8357-51.7374 69.8357-49.6065 68.5213-48.2922L64.3286-44.0999C63.0142-42.7856 60.8831-42.7856 59.5687-44.0999C58.2543-45.4142 58.2543-47.5451 59.5687-48.8594L63.7615-53.0517C65.0759-54.366 67.2069-54.366 68.5213-53.0517ZM34.0259-49.792C35.1106-49.9869 36.222-49.6386 37.0012-48.8594L64.3286-21.5337C65.1078-20.7545 65.4561-19.6433 65.2611-18.5588C65.0665-17.4741 64.3527-16.5537 63.3511-16.0947L23.1858 2.31602C21.7819 2.95718 20.2156 3.15374 18.6967 2.8796C17.1778 2.60582 15.7791 1.87418 14.6877 0.782965C13.5964-0.308681 12.8647-1.70722 12.5906-3.22587C12.3166-4.74492 12.5132-6.31116 13.1543-7.71477L13.1562-7.71906L31.5616-47.8817C32.0208-48.8835 32.9413-49.597 34.0259-49.792ZM35.6645-40.6772L19.2775-4.91886C19.207-4.76364 19.1846-4.58892 19.2149-4.42122C19.2453-4.25274 19.3264-4.09752 19.4475-3.97662C19.5685-3.85572 19.7236-3.7746 19.892-3.74418C20.0599-3.71376 20.233-3.7356 20.3883-3.8058L56.1463-20.1963L35.6645-40.6772ZM90.3689-36.815C90.8199-35.0117 89.7237-33.1845 87.9204-32.7337L79.5354-30.6374C77.7322-30.187 75.9049-31.2833 75.4539-33.0863C75.0029-34.8896 76.0991-36.7167 77.9031-37.1676L86.2881-39.2639C88.0913-39.7147 89.9187-38.618 90.3689-36.815ZM82.9114-16.3061C84.7706-16.3061 86.2768-14.7995 86.2768-12.9408L86.2768-12.114L87.1043-12.114C88.9635-12.114 90.4696-10.607 90.4696-8.74827C90.4696-6.88992 88.9635-5.38296 87.1043-5.38296L86.2768-5.38296L86.2768-4.55616C86.2768-2.6974 84.7706-1.19086 82.9114-1.19086C81.0529-1.19086 79.546-2.6974 79.546-4.55616L79.546-5.38296L78.7192-5.38296C76.8607-5.38296 75.3532-6.88992 75.3532-8.74827C75.3532-10.607 76.8607-12.114 78.7192-12.114L79.546-12.114L79.546-12.9408C79.546-14.7995 81.0529-16.3061 82.9114-16.3061Z"/>
  </g>
 </g>
</svg>
