<svg width="333" height="231" viewBox="0 0 333 231" fill="none" xmlns="http://www.w3.org/2000/svg">
<g clip-path="url(#clip0_6_2438)">
<rect width="282.31" height="28.3289" transform="translate(7.24585 12.8289)" fill="white"/>
<rect x="10.0779" y="15.6609" width="60.1846" height="22.6644" rx="2.83222" fill="#E8E9EE"/>
<path fill-rule="evenodd" clip-rule="evenodd" d="M26.524 24.9903L26.168 24.0424L26.4154 23.4979C26.4471 23.4278 26.4319 23.3456 26.3769 23.2912L25.7039 22.6236C25.4097 22.3319 24.9706 22.2316 24.5751 22.3661L24.387 22.4301L23.4042 21.3287H21.9583H21.042H19.7903L18.82 22.4434L18.6371 22.3803C18.238 22.2426 17.7936 22.3439 17.4974 22.6403L16.8126 23.3203C16.7687 23.3639 16.7566 23.4293 16.7822 23.4851L17.0406 24.0502L16.6864 24.9976L16.9156 25.8518L17.9598 29.745C18.0801 30.1939 18.3571 30.587 18.7425 30.8562C18.7425 30.8562 20.0104 31.733 21.2615 32.5293C21.3715 32.5994 21.4865 32.6506 21.61 32.6487C21.7335 32.6504 21.8486 32.5994 21.9583 32.5289C23.3635 31.6258 24.4752 30.8526 24.4752 30.8526C24.8602 30.583 25.1368 30.1894 25.2566 29.7404L26.2959 25.8456L26.524 24.9903Z" fill="url(#paint0_linear_6_2438)"/>
<path fill-rule="evenodd" clip-rule="evenodd" d="M25.413 25.1782L25.3967 25.229L25.3708 25.32C25.3016 25.4045 25.1558 25.5667 25.0466 25.6806L24.0427 26.7268C23.9335 26.8405 23.8719 26.9832 23.9342 27.127L24.0696 27.4542C24.1318 27.5978 24.138 27.8355 24.0783 27.9951C24.0177 28.1575 23.9133 28.301 23.7765 28.4104L23.6717 28.4941C23.5482 28.5929 23.3293 28.6189 23.1852 28.5517L22.7228 28.3367C22.5789 28.2697 22.3641 28.1294 22.2455 28.0248L21.8081 27.6393C21.7227 27.564 21.7179 27.4347 21.7974 27.3537L22.8627 26.6491C22.9948 26.5618 23.0647 26.4002 22.9896 26.2624L22.6109 25.5868C22.5358 25.449 22.5058 25.2659 22.5441 25.1799C22.5825 25.0938 22.7359 24.9782 22.8851 24.9228L24.1217 24.4724C24.2708 24.4171 24.2629 24.3599 24.1041 24.3453L23.3139 24.2877C23.1551 24.2731 23.0387 24.2957 22.8851 24.3378L22.287 24.4828C22.1335 24.5248 22.101 24.685 22.1298 24.8384L22.3765 26.15C22.4055 26.3035 22.4196 26.4581 22.408 26.4937C22.3964 26.5292 22.2597 26.5864 22.1042 26.621L21.8997 26.6664C21.7442 26.701 21.4894 26.7026 21.3335 26.6701L21.0861 26.6184C20.9301 26.5858 20.793 26.5301 20.7814 26.4947C20.7698 26.4592 20.7838 26.3043 20.8126 26.1509L21.0577 24.8391C21.0866 24.6856 21.0538 24.5257 20.9003 24.4838L20.302 24.3394C20.1484 24.2975 20.0319 24.2753 19.8731 24.2899L19.083 24.3483C18.9242 24.363 18.9164 24.4201 19.0655 24.4753L20.3028 24.9244C20.4519 24.9796 20.6055 25.095 20.6439 25.1811C20.6825 25.267 20.6526 25.45 20.5778 25.5879L20.1997 26.2637C20.1249 26.4016 20.1949 26.5632 20.3272 26.6504L21.3934 27.354C21.473 27.4348 21.4683 27.5643 21.3831 27.6396L20.946 28.0257C20.8276 28.1303 20.613 28.2708 20.469 28.3381L20.007 28.5537C19.8631 28.6209 19.6441 28.5953 19.5205 28.4967L19.4158 28.4131C19.2787 28.3038 19.1741 28.1604 19.1084 27.9852C19.0535 27.8385 19.0592 27.601 19.1212 27.4571L19.2563 27.1299C19.3184 26.9861 19.2566 26.8434 19.1472 26.7297L18.1422 25.6847C18.033 25.571 17.8869 25.409 17.8177 25.3247L17.7915 25.2336L17.7753 25.1828C17.7737 25.1244 17.795 24.9382 17.8193 24.8878C17.8435 24.8376 17.9363 24.6905 18.0256 24.5612L18.2407 24.2495C18.33 24.1201 18.4844 23.9144 18.5837 23.7922L18.8989 23.4051C18.9982 23.2831 19.083 23.1837 19.0958 23.1845C19.0964 23.1837 19.225 23.2072 19.3816 23.2365L19.859 23.3264C20.0156 23.3558 20.1883 23.3881 20.2429 23.3981C20.2974 23.4083 20.4661 23.3771 20.6179 23.329L20.9613 23.22C21.113 23.1718 21.3432 23.1083 21.4728 23.0787L21.5928 23.0805L21.7129 23.0786C21.8424 23.1079 22.0727 23.1712 22.2244 23.2192L22.5681 23.3278C22.7198 23.3758 22.8886 23.4067 22.9431 23.3966C22.9899 23.3879 23.1238 23.3626 23.2598 23.3368L23.3269 23.3241L23.8042 23.234C23.9608 23.2043 24.0894 23.1807 24.0985 23.1814C24.1028 23.1807 24.1875 23.2797 24.2871 23.4019L24.6027 23.7887C24.7023 23.9106 24.8568 24.1161 24.9464 24.2455L25.1618 24.5568C25.2512 24.6861 25.3909 24.9213 25.3996 24.9747C25.4085 25.0282 25.4144 25.1198 25.413 25.1782ZM21.6579 28.3002C21.6719 28.3002 21.804 28.349 21.9513 28.4088L22.088 28.4643C22.2353 28.524 22.4722 28.6307 22.6144 28.7014L23.0177 28.9021C23.1598 28.9726 23.17 29.1048 23.0403 29.1957L22.6963 29.4367C22.5666 29.5276 22.3627 29.6853 22.2432 29.7875L21.8094 30.1583C21.6903 30.2602 21.4973 30.2607 21.3805 30.1596C21.2636 30.0585 21.0702 29.8929 20.9505 29.7917C20.8309 29.6905 20.6265 29.534 20.4962 29.444L20.1533 29.2068C20.023 29.1166 20.0323 28.9838 20.1737 28.9117L20.5792 28.7049C20.7206 28.6327 20.9567 28.5246 21.104 28.4649L21.2407 28.4092C21.3879 28.3493 21.5199 28.3002 21.534 28.3002H21.5959H21.6579Z" fill="url(#paint1_linear_6_2438)"/>
<path d="M36.2503 26.9345C36.5015 26.9741 36.7295 27.0765 36.9343 27.2418C37.1458 27.407 37.311 27.6118 37.43 27.8563C37.5555 28.1009 37.6183 28.3619 37.6183 28.6394C37.6183 28.9897 37.5291 29.3069 37.3507 29.5911C37.1722 29.8686 36.9112 30.09 36.5676 30.2552C36.2305 30.4138 35.8307 30.4931 35.3681 30.4931H32.7908V23.5839H35.269C35.7382 23.5839 36.138 23.6632 36.4684 23.8219C36.7988 23.9738 37.0467 24.182 37.2119 24.4464C37.3771 24.7107 37.4597 25.0081 37.4597 25.3385C37.4597 25.7482 37.3474 26.0886 37.1227 26.3595C36.9046 26.6239 36.6138 26.8155 36.2503 26.9345ZM33.6929 26.5677H35.2095C35.6324 26.5677 35.9596 26.4686 36.1909 26.2703C36.4222 26.072 36.5378 25.7978 36.5378 25.4475C36.5378 25.0973 36.4222 24.823 36.1909 24.6248C35.9596 24.4265 35.6258 24.3274 35.1897 24.3274H33.6929V26.5677ZM35.2888 29.7497C35.7382 29.7497 36.0884 29.6439 36.3396 29.4325C36.5907 29.221 36.7162 28.9269 36.7162 28.5502C36.7162 28.1669 36.5841 27.8663 36.3197 27.6482C36.0554 27.4235 35.7018 27.3111 35.2591 27.3111H33.6929V29.7497H35.2888ZM39.7722 25.9432C39.9308 25.6326 40.1555 25.3914 40.4462 25.2195C40.7436 25.0477 41.1038 24.9618 41.5267 24.9618V25.8936H41.2888C40.2777 25.8936 39.7722 26.4421 39.7722 27.5391V30.4931H38.8701V25.0609H39.7722V25.9432ZM42.231 27.7572C42.231 27.2021 42.3433 26.7164 42.568 26.3C42.7927 25.8771 43.1 25.55 43.4899 25.3187C43.8864 25.0874 44.3259 24.9717 44.8083 24.9717C45.2841 24.9717 45.6971 25.0742 46.0474 25.279C46.3976 25.4839 46.6587 25.7416 46.8305 26.0522V25.0609H47.7425V30.4931H46.8305V29.482C46.6521 29.7992 46.3844 30.0636 46.0276 30.2751C45.6773 30.4799 45.2676 30.5823 44.7984 30.5823C44.316 30.5823 43.8798 30.4634 43.4899 30.2255C43.1 29.9876 42.7927 29.6539 42.568 29.2243C42.3433 28.7947 42.231 28.3057 42.231 27.7572ZM46.8305 27.7671C46.8305 27.3574 46.7479 27.0005 46.5827 26.6965C46.4175 26.3926 46.1928 26.1613 45.9086 26.0027C45.6311 25.8374 45.3238 25.7548 44.9867 25.7548C44.6497 25.7548 44.3424 25.8341 44.0648 25.9927C43.7873 26.1513 43.5659 26.3826 43.4007 26.6866C43.2355 26.9906 43.1529 27.3475 43.1529 27.7572C43.1529 28.1735 43.2355 28.537 43.4007 28.8476C43.5659 29.1516 43.7873 29.3862 44.0648 29.5514C44.3424 29.71 44.6497 29.7893 44.9867 29.7893C45.3238 29.7893 45.6311 29.71 45.9086 29.5514C46.1928 29.3862 46.4175 29.1516 46.5827 28.8476C46.7479 28.537 46.8305 28.1769 46.8305 27.7671ZM51.2891 29.6605L52.9742 25.0609H53.9358L51.8045 30.4931H50.7538L48.6225 25.0609H49.594L51.2891 29.6605ZM59.7798 27.5689C59.7798 27.7407 59.7699 27.9224 59.7501 28.1141H55.4083C55.4413 28.6494 55.6231 29.069 55.9535 29.373C56.2905 29.6704 56.6969 29.8191 57.1728 29.8191C57.5627 29.8191 57.8865 29.7299 58.1442 29.5514C58.4085 29.3664 58.5936 29.1219 58.6993 28.8179H59.6708C59.5254 29.3399 59.2346 29.7662 58.7984 30.0966C58.3623 30.4204 57.8204 30.5823 57.1728 30.5823C56.6573 30.5823 56.1947 30.4667 55.785 30.2354C55.3819 30.0041 55.0646 29.677 54.8333 29.254C54.602 28.8245 54.4864 28.3288 54.4864 27.7671C54.4864 27.2054 54.5987 26.7131 54.8234 26.2901C55.0481 25.8672 55.362 25.5434 55.7651 25.3187C56.1749 25.0874 56.6441 24.9717 57.1728 24.9717C57.6882 24.9717 58.1442 25.0841 58.5407 25.3088C58.9372 25.5335 59.2412 25.8441 59.4527 26.2406C59.6708 26.6305 59.7798 27.0732 59.7798 27.5689ZM58.848 27.3805C58.848 27.0369 58.772 26.7428 58.62 26.4983C58.468 26.2472 58.2599 26.0588 57.9955 25.9333C57.7378 25.8011 57.4503 25.735 57.1331 25.735C56.6771 25.735 56.2872 25.8804 55.9634 26.1712C55.6462 26.4619 55.4645 26.8651 55.4182 27.3805H58.848Z" fill="black"/>
<rect x="79.4673" y="22.7159" width="173.948" height="8.55484" rx="4.27742" fill="#ECEFF2"/>
</g>
<g filter="url(#filter0_dd_6_2438)">
<rect width="285.346" height="164.977" transform="translate(7.24585 56.0235)" fill="white"/>
<rect x="18.5746" y="67.3523" width="173.948" height="8.55484" rx="4.27742" fill="#ECEFF2"/>
<rect x="18.9286" y="81.9258" width="261.98" height="84.9665" stroke="#E8E9EE" stroke-width="0.708054"/>
<rect width="262.688" height="29.9419" transform="translate(18.5746 81.5717)" fill="#FDF4F2"/>
<rect x="24.239" y="92.2653" width="173.948" height="8.55484" rx="4.27742" fill="#FC9378"/>
</g>
<rect x="172.222" y="12.8322" width="121.077" height="28.3222" fill="url(#paint2_linear_6_2438)"/>
<rect x="249.366" y="-3.05176e-05" width="82.6968" height="82.6968" rx="41.3484" fill="white"/>
<g clip-path="url(#clip1_6_2438)">
<path d="M313.592 50.3836V51.6851H322.535V45.8151H321.232V50.3836H313.592ZM313.592 31.0112V32.3128H321.232V36.8816H322.535V31.0112H313.592ZM308.98 41.0804V38.0559H311.024C312.021 38.0559 312.378 38.3877 312.378 39.2939V39.8298C312.378 40.7613 312.033 41.0804 311.024 41.0804H308.98ZM312.225 41.6163C313.157 41.3738 313.809 40.5059 313.809 39.4724C313.809 38.8216 313.553 38.2345 313.068 37.7622C312.455 37.175 311.637 36.8816 310.577 36.8816H307.702V45.8147H308.98V42.2544H310.896C311.88 42.2544 312.276 42.6627 312.276 43.6839V45.8151H313.579V43.888C313.579 42.4842 313.247 41.9483 312.225 41.7951V41.6163ZM301.468 41.9097H305.403V40.7357H301.468V38.0556H305.786V36.8816H300.164V45.8147H305.978V44.6407H301.468V41.9097ZM297.188 42.382V42.9944C297.188 44.2834 296.715 44.7047 295.527 44.7047H295.246C294.057 44.7047 293.482 44.3217 293.482 42.5478V40.1485C293.482 38.362 294.083 37.9917 295.271 37.9917H295.526C296.689 37.9917 297.06 38.4256 297.072 39.6253H298.478C298.35 37.8641 297.175 36.7541 295.411 36.7541C294.556 36.7541 293.84 37.0221 293.304 37.5324C292.499 38.2854 292.051 39.5617 292.051 41.3482C292.051 43.0711 292.435 44.3473 293.227 45.1383C293.763 45.6615 294.505 45.9423 295.233 45.9423C295.999 45.9423 296.702 45.6359 297.06 44.9725H297.238V45.8147H298.414V41.208H294.951V42.382H297.188ZM285.919 38.0556H287.312C288.628 38.0556 289.344 38.3873 289.344 40.1742V42.5222C289.344 44.3087 288.628 44.6407 287.312 44.6407H285.919V38.0556ZM287.427 45.8151C289.867 45.8151 290.774 43.9646 290.774 41.3485C290.774 38.6941 289.803 36.8819 287.401 36.8819H284.641V45.8151H287.427ZM278.471 41.9097H282.406V40.7357H278.471V38.0556H282.789V36.8816H277.168V45.8147H282.981V44.6407H278.471V41.9097ZM270.933 36.8816H269.63V45.8147H275.507V44.6407H270.933V36.8816ZM260.674 45.8151V51.6854H269.617V50.3836H261.977V45.8151H260.674ZM260.674 31.0112V36.8816H261.977V32.3128H269.617V31.0112H260.674Z" fill="black"/>
</g>
<defs>
<filter id="filter0_dd_6_2438" x="0.165312" y="51.7751" width="299.507" height="179.138" filterUnits="userSpaceOnUse" color-interpolation-filters="sRGB">
<feFlood flood-opacity="0" result="BackgroundImageFix"/>
<feColorMatrix in="SourceAlpha" type="matrix" values="0 0 0 0 0 0 0 0 0 0 0 0 0 0 0 0 0 0 127 0" result="hardAlpha"/>
<feOffset dy="0.177013"/>
<feGaussianBlur stdDeviation="1.06208"/>
<feComposite in2="hardAlpha" operator="out"/>
<feColorMatrix type="matrix" values="0 0 0 0 0 0 0 0 0 0 0 0 0 0 0 0 0 0 0.02 0"/>
<feBlend mode="multiply" in2="BackgroundImageFix" result="effect1_dropShadow_6_2438"/>
<feColorMatrix in="SourceAlpha" type="matrix" values="0 0 0 0 0 0 0 0 0 0 0 0 0 0 0 0 0 0 127 0" result="hardAlpha"/>
<feMorphology radius="1.41611" operator="erode" in="SourceAlpha" result="effect2_dropShadow_6_2438"/>
<feOffset dy="2.83222"/>
<feGaussianBlur stdDeviation="4.24832"/>
<feComposite in2="hardAlpha" operator="out"/>
<feColorMatrix type="matrix" values="0 0 0 0 0 0 0 0 0 0 0 0 0 0 0 0 0 0 0.11 0"/>
<feBlend mode="multiply" in2="effect1_dropShadow_6_2438" result="effect2_dropShadow_6_2438"/>
<feBlend mode="normal" in="SourceGraphic" in2="effect2_dropShadow_6_2438" result="shape"/>
</filter>
<linearGradient id="paint0_linear_6_2438" x1="16.6864" y1="32.7286" x2="26.524" y2="32.7286" gradientUnits="userSpaceOnUse">
<stop stop-color="#FF5500"/>
<stop offset="0.409877" stop-color="#FF5500"/>
<stop offset="0.49434" stop-color="#FF4530"/>
<stop offset="0.572365" stop-color="#FF2000"/>
<stop offset="1" stop-color="#FF2000"/>
</linearGradient>
<linearGradient id="paint1_linear_6_2438" x1="21.5942" y1="31.9085" x2="25.1663" y2="31.9085" gradientUnits="userSpaceOnUse">
<stop stop-color="white"/>
<stop offset="1" stop-color="#F4F4F4"/>
</linearGradient>
<linearGradient id="paint2_linear_6_2438" x1="293.299" y1="26.9933" x2="172.222" y2="26.9933" gradientUnits="userSpaceOnUse">
<stop stop-color="white"/>
<stop offset="1" stop-color="white" stop-opacity="0"/>
</linearGradient>
<clipPath id="clip0_6_2438">
<rect width="285.346" height="28.3222" fill="white" transform="translate(7.24585 12.8322)"/>
</clipPath>
<clipPath id="clip1_6_2438">
<rect width="61.8611" height="20.6742" fill="white" transform="translate(260.673 31.0112)"/>
</clipPath>
</defs>
</svg>
