<svg width="333" height="189" viewBox="0 0 333 189" fill="none" xmlns="http://www.w3.org/2000/svg">
<g clip-path="url(#clip0_9017_61015)">
<rect width="282.31" height="28.3289" transform="translate(7.24585 12.8281)" fill="#F4F6F8"/>
<rect x="10.0779" y="15.6602" width="60.1846" height="22.6644" rx="2.83222" fill="#E2E3E7"/>
<path fill-rule="evenodd" clip-rule="evenodd" d="M26.5241 24.9897L26.1681 24.0419L26.4154 23.4974C26.4472 23.4273 26.4319 23.345 26.3769 23.2906L25.704 22.623C25.4097 22.3313 24.9707 22.231 24.5752 22.3655L24.387 22.4295L23.4042 21.3281H21.9584H21.0421H19.7903L18.8201 22.4428L18.6371 22.3797C18.238 22.242 17.7937 22.3434 17.4975 22.6397L16.8127 23.3198C16.7687 23.3633 16.7567 23.4287 16.7822 23.4845L17.0406 24.0496L16.6864 24.997L16.9157 25.8512L17.9599 29.7444C18.0801 30.1933 18.3572 30.5864 18.7426 30.8556C18.7426 30.8556 20.0104 31.7324 21.2615 32.5287C21.3715 32.5988 21.4866 32.65 21.6101 32.6481C21.7335 32.6498 21.8486 32.5988 21.9584 32.5284C23.3635 31.6252 24.4753 30.852 24.4753 30.852C24.8603 30.5824 25.1369 30.1888 25.2566 29.7398L26.2959 25.845L26.5241 24.9897Z" fill="url(#paint0_linear_9017_61015)"/>
<path fill-rule="evenodd" clip-rule="evenodd" d="M25.4131 25.1758L25.3968 25.2265L25.3709 25.3175C25.3017 25.402 25.1558 25.5642 25.0466 25.6781L24.0428 26.7243C23.9336 26.8381 23.872 26.9808 23.9343 27.1245L24.0697 27.4517C24.1319 27.5953 24.138 27.8331 24.0784 27.9926C24.0177 28.155 23.9133 28.2986 23.7765 28.408L23.6718 28.4916C23.5482 28.5904 23.3293 28.6164 23.1853 28.5492L22.7229 28.3342C22.579 28.2673 22.3642 28.1269 22.2456 28.0224L21.8082 27.6369C21.7228 27.5616 21.718 27.4322 21.7974 27.3513L22.8627 26.6466C22.9949 26.5593 23.0648 26.3977 22.9897 26.26L22.6109 25.5844C22.5358 25.4465 22.5058 25.2635 22.5442 25.1774C22.5826 25.0914 22.7359 24.9757 22.8852 24.9204L24.1218 24.47C24.2709 24.4146 24.2629 24.3575 24.1042 24.3428L23.314 24.2853C23.1551 24.2706 23.0387 24.2933 22.8852 24.3353L22.2871 24.4804C22.1335 24.5224 22.1011 24.6825 22.1299 24.836L22.3766 26.1475C22.4055 26.3011 22.4197 26.4557 22.4081 26.4912C22.3965 26.5267 22.2598 26.584 22.1043 26.6185L21.8998 26.664C21.7443 26.6986 21.4895 26.7001 21.3336 26.6676L21.0861 26.6159C20.9302 26.5834 20.7931 26.5277 20.7814 26.4923C20.7699 26.4567 20.7838 26.3019 20.8126 26.1484L21.0578 24.8367C21.0866 24.6831 21.0539 24.5232 20.9004 24.4813L20.3021 24.3369C20.1485 24.295 20.032 24.2729 19.8732 24.2875L19.083 24.3458C18.9243 24.3606 18.9165 24.4177 19.0656 24.4728L20.3029 24.9219C20.452 24.9771 20.6056 25.0926 20.644 25.1786C20.6826 25.2645 20.6527 25.4476 20.5778 25.5854L20.1998 26.2613C20.125 26.3991 20.195 26.5607 20.3272 26.6479L21.3935 27.3515C21.4731 27.4323 21.4684 27.5618 21.3832 27.6371L20.9461 28.0232C20.8277 28.1279 20.613 28.2683 20.4691 28.3356L20.0071 28.5513C19.8632 28.6184 19.6442 28.5928 19.5206 28.4942L19.4159 28.4107C19.2788 28.3014 19.1742 28.158 19.1085 27.9827C19.0535 27.836 19.0593 27.5985 19.1213 27.4547L19.2564 27.1275C19.3185 26.9836 19.2566 26.8409 19.1473 26.7272L18.1423 25.6822C18.0331 25.5686 17.887 25.4065 17.8178 25.3222L17.7916 25.2311L17.7753 25.1804C17.7738 25.122 17.7951 24.9357 17.8193 24.8853C17.8436 24.8351 17.9364 24.6881 18.0257 24.5587L18.2407 24.247C18.3301 24.1177 18.4845 23.9119 18.5838 23.7898L18.899 23.4026C18.9983 23.2806 19.0831 23.1812 19.0958 23.182C19.0964 23.1812 19.2251 23.2047 19.3816 23.2341L19.8591 23.3239C20.0157 23.3533 20.1884 23.3856 20.243 23.3957C20.2975 23.4058 20.4662 23.3747 20.618 23.3265L20.9614 23.2176C21.113 23.1693 21.3433 23.1058 21.4728 23.0763L21.5929 23.0781L21.7129 23.0762C21.8425 23.1054 22.0727 23.1687 22.2245 23.2167L22.5682 23.3253C22.7199 23.3734 22.8887 23.4043 22.9431 23.3941C22.99 23.3854 23.1239 23.3601 23.2599 23.3344L23.3269 23.3217L23.8043 23.2315C23.9608 23.2019 24.0895 23.1783 24.0986 23.179C24.1028 23.1783 24.1876 23.2773 24.2871 23.3995L24.6028 23.7862C24.7024 23.9082 24.8569 24.1136 24.9465 24.243L25.1619 24.5544C25.2513 24.6836 25.391 24.9188 25.3997 24.9723C25.4086 25.0258 25.4145 25.1173 25.4131 25.1758ZM21.658 28.2981C21.6719 28.2981 21.804 28.3468 21.9513 28.4067L22.088 28.4621C22.2353 28.5218 22.4723 28.6285 22.6144 28.6992L23.0177 28.8999C23.1598 28.9705 23.1701 29.1027 23.0404 29.1935L22.6964 29.4346C22.5667 29.5254 22.3627 29.6831 22.2433 29.7853L21.8095 30.1562C21.6904 30.258 21.4974 30.2585 21.3806 30.1575C21.2637 30.0563 21.0702 29.8907 20.9505 29.7896C20.8309 29.6883 20.6265 29.5318 20.4962 29.4419L20.1534 29.2046C20.0231 29.1145 20.0324 28.9817 20.1738 28.9096L20.5793 28.7028C20.7207 28.6306 20.9568 28.5224 21.1041 28.4627L21.2408 28.407C21.3879 28.3472 21.5199 28.2981 21.534 28.2981H21.596H21.658Z" fill="url(#paint1_linear_9017_61015)"/>
<path d="M36.2504 26.9335C36.5015 26.9732 36.7295 27.0756 36.9344 27.2408C37.1459 27.406 37.3111 27.6109 37.43 27.8554C37.5556 28.0999 37.6184 28.3609 37.6184 28.6385C37.6184 28.9888 37.5292 29.306 37.3507 29.5901C37.1723 29.8677 36.9113 30.0891 36.5676 30.2543C36.2306 30.4129 35.8308 30.4922 35.3682 30.4922H32.7909V23.583H35.2691C35.7383 23.583 36.1381 23.6623 36.4685 23.8209C36.7989 23.9729 37.0467 24.1811 37.212 24.4454C37.3772 24.7097 37.4598 25.0071 37.4598 25.3376C37.4598 25.7473 37.3474 26.0876 37.1227 26.3586C36.9047 26.6229 36.6139 26.8146 36.2504 26.9335ZM33.6929 26.5667H35.2096C35.6325 26.5667 35.9596 26.4676 36.1909 26.2694C36.4222 26.0711 36.5379 25.7968 36.5379 25.4466C36.5379 25.0963 36.4222 24.8221 36.1909 24.6238C35.9596 24.4256 35.6259 24.3265 35.1898 24.3265H33.6929V26.5667ZM35.2889 29.7487C35.7383 29.7487 36.0885 29.643 36.3396 29.4315C36.5908 29.2201 36.7163 28.926 36.7163 28.5493C36.7163 28.166 36.5841 27.8653 36.3198 27.6472C36.0555 27.4225 35.7019 27.3102 35.2591 27.3102H33.6929V29.7487H35.2889ZM39.7722 25.9422C39.9308 25.6316 40.1555 25.3904 40.4463 25.2186C40.7437 25.0468 41.1038 24.9609 41.5268 24.9609V25.8927H41.2889C40.2778 25.8927 39.7722 26.4412 39.7722 27.5382V30.4922H38.8702V25.06H39.7722V25.9422ZM42.2311 27.7563C42.2311 27.2012 42.3434 26.7154 42.5681 26.2991C42.7928 25.8761 43.1001 25.549 43.49 25.3177C43.8865 25.0864 44.326 24.9708 44.8084 24.9708C45.2842 24.9708 45.6972 25.0732 46.0475 25.2781C46.3977 25.4829 46.6588 25.7407 46.8306 26.0513V25.06H47.7426V30.4922H46.8306V29.4811C46.6522 29.7983 46.3845 30.0626 46.0276 30.2741C45.6774 30.479 45.2677 30.5814 44.7985 30.5814C44.316 30.5814 43.8799 30.4624 43.49 30.2245C43.1001 29.9866 42.7928 29.6529 42.5681 29.2234C42.3434 28.7938 42.2311 28.3048 42.2311 27.7563ZM46.8306 27.7662C46.8306 27.3565 46.748 26.9996 46.5828 26.6956C46.4175 26.3916 46.1929 26.1603 45.9087 26.0017C45.6311 25.8365 45.3238 25.7539 44.9868 25.7539C44.6498 25.7539 44.3425 25.8332 44.0649 25.9918C43.7874 26.1504 43.566 26.3817 43.4008 26.6857C43.2356 26.9897 43.1529 27.3465 43.1529 27.7563C43.1529 28.1726 43.2356 28.5361 43.4008 28.8467C43.566 29.1507 43.7874 29.3853 44.0649 29.5505C44.3425 29.7091 44.6498 29.7884 44.9868 29.7884C45.3238 29.7884 45.6311 29.7091 45.9087 29.5505C46.1929 29.3853 46.4175 29.1507 46.5828 28.8467C46.748 28.5361 46.8306 28.1759 46.8306 27.7662ZM51.2891 29.6595L52.9743 25.06H53.9359L51.8046 30.4922H50.7539L48.6226 25.06H49.5941L51.2891 29.6595ZM59.7799 27.5679C59.7799 27.7397 59.77 27.9215 59.7501 28.1131H55.4084C55.4414 28.6484 55.6231 29.0681 55.9536 29.372C56.2906 29.6694 56.697 29.8181 57.1728 29.8181C57.5627 29.8181 57.8866 29.7289 58.1443 29.5505C58.4086 29.3654 58.5937 29.1209 58.6994 28.8169H59.6708C59.5255 29.339 59.2347 29.7653 58.7985 30.0957C58.3624 30.4195 57.8205 30.5814 57.1728 30.5814C56.6574 30.5814 56.1948 30.4658 55.785 30.2345C55.3819 30.0032 55.0647 29.676 54.8334 29.2531C54.6021 28.8235 54.4865 28.3279 54.4865 27.7662C54.4865 27.2045 54.5988 26.7121 54.8235 26.2892C55.0482 25.8662 55.3621 25.5424 55.7652 25.3177C56.1749 25.0864 56.6442 24.9708 57.1728 24.9708C57.6883 24.9708 58.1443 25.0831 58.5408 25.3078C58.9373 25.5325 59.2413 25.8431 59.4528 26.2396C59.6708 26.6295 59.7799 27.0723 59.7799 27.5679ZM58.8481 27.3796C58.8481 27.0359 58.7721 26.7419 58.6201 26.4973C58.4681 26.2462 58.2599 26.0579 57.9956 25.9323C57.7379 25.8002 57.4504 25.7341 57.1332 25.7341C56.6772 25.7341 56.2873 25.8795 55.9635 26.1702C55.6463 26.461 55.4645 26.8641 55.4183 27.3796H58.8481Z" fill="black"/>
<rect x="79.4673" y="22.7148" width="173.948" height="8.55484" rx="4.27742" fill="#ECEFF2"/>
</g>
<g filter="url(#filter0_dd_9017_61015)">
<rect width="285.346" height="122.551" transform="translate(7.24585 56.0234)" fill="white"/>
<rect x="18.5746" y="67.3516" width="173.948" height="8.55484" rx="4.27742" fill="#ECEFF2"/>
<rect x="18.9286" y="81.9263" width="261.98" height="84.9665" stroke="#E2E3E7" stroke-width="0.708054"/>
<rect width="262.688" height="29.9419" transform="translate(18.5746 81.5723)" fill="#FDF4F2"/>
<rect x="24.239" y="92.2656" width="173.948" height="8.55484" rx="4.27742" fill="#FC9378"/>
</g>
<rect x="172.222" y="12.832" width="121.077" height="28.3222" fill="url(#paint2_linear_9017_61015)"/>
<rect x="249.366" width="82.6968" height="82.6968" rx="41.3484" fill="#F4F6F8"/>
<g clip-path="url(#clip1_9017_61015)">
<path d="M269.12 36.7128C269.12 34.6835 267.35 33 265.195 33C263.04 33 261.269 34.6843 261.269 36.7124V37.8996H259.654V46.435L265.194 49L270.737 46.4358V37.9372H269.121L269.12 36.7124L269.12 36.7128ZM263.27 36.7128C263.27 35.7561 264.117 34.9904 265.195 34.9904C266.273 34.9904 267.119 35.7561 267.119 36.7128V37.8996H263.271V36.7128H263.27ZM268.505 45.0576L265.194 46.5897L261.884 45.0588V39.9285H268.504V45.0576H268.505Z" fill="black"/>
<path d="M275.24 37.8986H282.205V39.9275H279.819V46.4725H277.587V39.9275H275.24V37.8986ZM290.21 40.7692C290.21 39.0465 289.017 37.9366 287.247 37.9366H283.206V46.4721H285.438V43.6018H286.285L287.862 46.4721H290.443L288.557 43.2957C289.364 42.9896 290.21 42.1852 290.21 40.7692ZM286.979 41.6114H285.438V39.8886H286.977C287.555 39.8886 287.939 40.2336 287.939 40.7312C287.939 41.2669 287.555 41.6114 286.977 41.6114H286.979ZM291.249 37.8986H297.484V39.889H293.481V41.1523H297.368V43.1042H293.481V44.4817H297.484V46.4725H291.249V37.8986ZM309.991 37.7832C307.374 37.7832 305.528 39.659 305.528 42.1855C305.528 44.7117 307.412 46.5887 309.991 46.5887C312.57 46.5887 314.494 44.7132 314.494 42.1867C314.494 39.6602 312.608 37.7836 309.991 37.7836V37.7832ZM309.991 44.5971C308.683 44.5971 307.797 43.6018 307.797 42.1875C307.797 40.7327 308.683 39.7772 309.991 39.7772C311.3 39.7772 312.223 40.7728 312.223 42.1871C312.223 43.6018 311.3 44.5967 309.991 44.5967V44.5971ZM320.767 43.2957C321.575 42.9896 322.422 42.1852 322.422 40.7692C322.422 39.0465 321.229 37.9366 319.458 37.9366H315.418V46.4721H317.65V43.6018H318.498L320.076 46.4721H322.654L320.767 43.2957ZM319.189 41.6114H317.65V39.8886H319.189C319.767 39.8886 320.151 40.2336 320.151 40.7312C320.151 41.2669 319.767 41.6114 319.189 41.6114ZM298.561 37.8986H305.142V39.621L301.563 44.444H305.142V46.4725H298.561V44.7497L302.14 39.9275H298.561V37.8986Z" fill="black"/>
</g>
<defs>
<filter id="filter0_dd_9017_61015" x="0.165312" y="51.7751" width="299.507" height="136.712" filterUnits="userSpaceOnUse" color-interpolation-filters="sRGB">
<feFlood flood-opacity="0" result="BackgroundImageFix"/>
<feColorMatrix in="SourceAlpha" type="matrix" values="0 0 0 0 0 0 0 0 0 0 0 0 0 0 0 0 0 0 127 0" result="hardAlpha"/>
<feOffset dy="0.177013"/>
<feGaussianBlur stdDeviation="1.06208"/>
<feComposite in2="hardAlpha" operator="out"/>
<feColorMatrix type="matrix" values="0 0 0 0 0 0 0 0 0 0 0 0 0 0 0 0 0 0 0.02 0"/>
<feBlend mode="multiply" in2="BackgroundImageFix" result="effect1_dropShadow_9017_61015"/>
<feColorMatrix in="SourceAlpha" type="matrix" values="0 0 0 0 0 0 0 0 0 0 0 0 0 0 0 0 0 0 127 0" result="hardAlpha"/>
<feMorphology radius="1.41611" operator="erode" in="SourceAlpha" result="effect2_dropShadow_9017_61015"/>
<feOffset dy="2.83222"/>
<feGaussianBlur stdDeviation="4.24832"/>
<feComposite in2="hardAlpha" operator="out"/>
<feColorMatrix type="matrix" values="0 0 0 0 0 0 0 0 0 0 0 0 0 0 0 0 0 0 0.11 0"/>
<feBlend mode="multiply" in2="effect1_dropShadow_9017_61015" result="effect2_dropShadow_9017_61015"/>
<feBlend mode="normal" in="SourceGraphic" in2="effect2_dropShadow_9017_61015" result="shape"/>
</filter>
<linearGradient id="paint0_linear_9017_61015" x1="16.6864" y1="32.7281" x2="26.5241" y2="32.7281" gradientUnits="userSpaceOnUse">
<stop stop-color="#FF5500"/>
<stop offset="0.409877" stop-color="#FF5500"/>
<stop offset="0.49434" stop-color="#FF4530"/>
<stop offset="0.572365" stop-color="#FF2000"/>
<stop offset="1" stop-color="#FF2000"/>
</linearGradient>
<linearGradient id="paint1_linear_9017_61015" x1="21.5943" y1="31.9064" x2="25.1664" y2="31.9064" gradientUnits="userSpaceOnUse">
<stop stop-color="white"/>
<stop offset="1" stop-color="#F4F4F4"/>
</linearGradient>
<linearGradient id="paint2_linear_9017_61015" x1="293.299" y1="26.9931" x2="172.222" y2="26.9931" gradientUnits="userSpaceOnUse">
<stop stop-color="white"/>
<stop offset="1" stop-color="white" stop-opacity="0"/>
</linearGradient>
<clipPath id="clip0_9017_61015">
<rect width="285.346" height="28.3222" fill="white" transform="translate(7.24585 12.832)"/>
</clipPath>
<clipPath id="clip1_9017_61015">
<rect width="63" height="16" fill="white" transform="translate(259.654 33)"/>
</clipPath>
</defs>
</svg>
