<svg width="24" height="24" viewBox="0 0 24 24" fill="none" xmlns="http://www.w3.org/2000/svg">
<g clip-path="url(#clip0_1265_21389)">
<path d="M12 24C18.6275 24 24 18.6275 24 12C24 5.3725 18.6275 0 12 0C5.3725 0 0 5.3725 0 12C0 18.6275 5.3725 24 12 24Z" fill="#7950DD"/>
<path d="M15.31 9.7351C15.0701 9.58738 14.7583 9.58738 14.4945 9.7351L12.6236 10.8675L11.3524 11.6061L9.48155 12.7385C9.24171 12.8862 8.92989 12.8862 8.66605 12.7385L7.17897 11.8523C6.93912 11.7046 6.77122 11.4338 6.77122 11.1383V9.39044C6.77122 9.09501 6.91513 8.82421 7.17897 8.6765L8.64207 7.81486C8.88192 7.66715 9.19371 7.66715 9.45757 7.81486L10.9207 8.6765C11.1605 8.82421 11.3284 9.09501 11.3284 9.39044V10.5229L12.5996 9.75971V8.62727C12.5996 8.33184 12.4557 8.06104 12.1919 7.91333L9.48155 6.28852C9.24171 6.14081 8.92989 6.14081 8.66605 6.28852L5.90775 7.91333C5.64391 8.06104 5.5 8.33184 5.5 8.62727V11.9015C5.5 12.1969 5.64391 12.4677 5.90775 12.6154L8.66605 14.2402C8.90591 14.388 9.21773 14.388 9.48155 14.2402L11.3524 13.1324L12.6236 12.3693L14.4945 11.2614C14.7343 11.1137 15.0461 11.1137 15.31 11.2614L16.773 12.1231C17.0129 12.2708 17.1808 12.5416 17.1808 12.837V14.5849C17.1808 14.8803 17.0369 15.1511 16.773 15.2988L15.31 16.1851C15.0701 16.3328 14.7583 16.3328 14.4945 16.1851L13.0314 15.3235C12.7915 15.1758 12.6236 14.905 12.6236 14.6095V13.4771L11.3524 14.2402V15.3727C11.3524 15.6681 11.4963 15.9389 11.7602 16.0866L14.5185 17.7115C14.7583 17.8592 15.0701 17.8592 15.3339 17.7115L18.0923 16.0866C18.3321 15.9389 18.5 15.6681 18.5 15.3727V12.0985C18.5 11.8031 18.3561 11.5322 18.0923 11.3845L15.31 9.7351Z" fill="white"/>
</g>
<defs>
<clipPath id="clip0_1265_21389">
<rect width="24" height="24" fill="white"/>
</clipPath>
</defs>
</svg>
