<?xml version="1.0" encoding="UTF-8"?>
<!--Generator: Apple Native CoreSVG 175.5-->
<!DOCTYPE svg
PUBLIC "-//W3C//DTD SVG 1.1//EN"
       "http://www.w3.org/Graphics/SVG/1.1/DTD/svg11.dtd">
<svg version="1.1" xmlns="http://www.w3.org/2000/svg" xmlns:xlink="http://www.w3.org/1999/xlink" width="3300" height="2200">
 <!--glyph: "", point size: 100.0, font version: "18.0d12e2", template writer version: "101"-->
 <g id="Notes">
  <rect height="2200" id="artboard" style="fill:white;opacity:1" width="3300" x="0" y="0"/>
  <line style="fill:none;stroke:black;opacity:1;stroke-width:0.5;" x1="263" x2="3036" y1="292" y2="292"/>
  <text style="stroke:none;fill:black;font-family:sans-serif;font-size:13;font-weight:bold;" transform="matrix(1 0 0 1 263 322)">Weight/Scale Variations</text>
  <text style="stroke:none;fill:black;font-family:sans-serif;font-size:13;text-anchor:middle;" transform="matrix(1 0 0 1 559.711 322)">Ultralight</text>
  <text style="stroke:none;fill:black;font-family:sans-serif;font-size:13;text-anchor:middle;" transform="matrix(1 0 0 1 856.422 322)">Thin</text>
  <text style="stroke:none;fill:black;font-family:sans-serif;font-size:13;text-anchor:middle;" transform="matrix(1 0 0 1 1153.13 322)">Light</text>
  <text style="stroke:none;fill:black;font-family:sans-serif;font-size:13;text-anchor:middle;" transform="matrix(1 0 0 1 1449.84 322)">Regular</text>
  <text style="stroke:none;fill:black;font-family:sans-serif;font-size:13;text-anchor:middle;" transform="matrix(1 0 0 1 1746.56 322)">Medium</text>
  <text style="stroke:none;fill:black;font-family:sans-serif;font-size:13;text-anchor:middle;" transform="matrix(1 0 0 1 2043.27 322)">Semibold</text>
  <text style="stroke:none;fill:black;font-family:sans-serif;font-size:13;text-anchor:middle;" transform="matrix(1 0 0 1 2339.98 322)">Bold</text>
  <text style="stroke:none;fill:black;font-family:sans-serif;font-size:13;text-anchor:middle;" transform="matrix(1 0 0 1 2636.69 322)">Heavy</text>
  <text style="stroke:none;fill:black;font-family:sans-serif;font-size:13;text-anchor:middle;" transform="matrix(1 0 0 1 2933.4 322)">Black</text>
  <line style="fill:none;stroke:black;opacity:1;stroke-width:0.5;" x1="263" x2="3036" y1="1903" y2="1903"/>
  <g transform="matrix(1 0 0 1 263 1933)">
   <path d="M9.24805 0.830078C13.5547 0.830078 17.1387-2.74414 17.1387-7.05078C17.1387-11.3574 13.5449-14.9316 9.23828-14.9316C4.94141-14.9316 1.36719-11.3574 1.36719-7.05078C1.36719-2.74414 4.95117 0.830078 9.24805 0.830078ZM9.24805-0.654297C5.70312-0.654297 2.87109-3.49609 2.87109-7.05078C2.87109-10.6055 5.69336-13.4473 9.23828-13.4473C12.793-13.4473 15.6445-10.6055 15.6445-7.05078C15.6445-3.49609 12.8027-0.654297 9.24805-0.654297ZM5.6543-7.05078C5.6543-6.62109 5.95703-6.32812 6.40625-6.32812L8.50586-6.32812L8.50586-4.20898C8.50586-3.76953 8.79883-3.4668 9.22852-3.4668C9.67773-3.4668 9.9707-3.76953 9.9707-4.20898L9.9707-6.32812L12.0898-6.32812C12.5293-6.32812 12.832-6.62109 12.832-7.05078C12.832-7.49023 12.5293-7.79297 12.0898-7.79297L9.9707-7.79297L9.9707-9.90234C9.9707-10.3516 9.67773-10.6543 9.22852-10.6543C8.79883-10.6543 8.50586-10.3516 8.50586-9.90234L8.50586-7.79297L6.40625-7.79297C5.95703-7.79297 5.6543-7.49023 5.6543-7.05078Z"/>
  </g>
  <g transform="matrix(1 0 0 1 281.867 1933)">
   <path d="M11.709 2.91016C17.1582 2.91016 21.6699-1.61133 21.6699-7.05078C21.6699-12.5 17.1484-17.0117 11.6992-17.0117C6.25977-17.0117 1.74805-12.5 1.74805-7.05078C1.74805-1.61133 6.26953 2.91016 11.709 2.91016ZM11.709 1.25C7.09961 1.25 3.41797-2.44141 3.41797-7.05078C3.41797-11.6602 7.08984-15.3516 11.6992-15.3516C16.3086-15.3516 20.0098-11.6602 20.0098-7.05078C20.0098-2.44141 16.3184 1.25 11.709 1.25ZM7.17773-7.05078C7.17773-6.57227 7.50977-6.25 8.00781-6.25L10.8789-6.25L10.8789-3.36914C10.8789-2.88086 11.2109-2.53906 11.6895-2.53906C12.1777-2.53906 12.5195-2.87109 12.5195-3.36914L12.5195-6.25L15.4004-6.25C15.8887-6.25 16.2305-6.57227 16.2305-7.05078C16.2305-7.53906 15.8887-7.88086 15.4004-7.88086L12.5195-7.88086L12.5195-10.752C12.5195-11.25 12.1777-11.5918 11.6895-11.5918C11.2109-11.5918 10.8789-11.25 10.8789-10.752L10.8789-7.88086L8.00781-7.88086C7.50977-7.88086 7.17773-7.53906 7.17773-7.05078Z"/>
  </g>
  <g transform="matrix(1 0 0 1 305.646 1933)">
   <path d="M14.9707 5.66406C21.9336 5.66406 27.6953-0.0976562 27.6953-7.05078C27.6953-14.0137 21.9238-19.7754 14.9609-19.7754C8.00781-19.7754 2.25586-14.0137 2.25586-7.05078C2.25586-0.0976562 8.01758 5.66406 14.9707 5.66406ZM14.9707 3.84766C8.93555 3.84766 4.08203-1.01562 4.08203-7.05078C4.08203-13.0957 8.92578-17.9492 14.9609-17.9492C21.0059-17.9492 25.8691-13.0957 25.8691-7.05078C25.8691-1.01562 21.0156 3.84766 14.9707 3.84766ZM9.19922-7.05078C9.19922-6.5332 9.57031-6.17188 10.1172-6.17188L14.0625-6.17188L14.0625-2.2168C14.0625-1.67969 14.4336-1.29883 14.9512-1.29883C15.4883-1.29883 15.8594-1.66992 15.8594-2.2168L15.8594-6.17188L19.8145-6.17188C20.3516-6.17188 20.7324-6.5332 20.7324-7.05078C20.7324-7.59766 20.3613-7.96875 19.8145-7.96875L15.8594-7.96875L15.8594-11.9141C15.8594-12.4609 15.4883-12.8418 14.9512-12.8418C14.4336-12.8418 14.0625-12.4609 14.0625-11.9141L14.0625-7.96875L10.1172-7.96875C9.57031-7.96875 9.19922-7.59766 9.19922-7.05078Z"/>
  </g>
  <text style="stroke:none;fill:black;font-family:sans-serif;font-size:13;font-weight:bold;" transform="matrix(1 0 0 1 263 1953)">Design Variations</text>
  <text style="stroke:none;fill:black;font-family:sans-serif;font-size:13;" transform="matrix(1 0 0 1 263 1971)">Symbols are supported in up to nine weights and three scales.</text>
  <text style="stroke:none;fill:black;font-family:sans-serif;font-size:13;" transform="matrix(1 0 0 1 263 1989)">For optimal layout with text and other symbols, vertically align</text>
  <text style="stroke:none;fill:black;font-family:sans-serif;font-size:13;" transform="matrix(1 0 0 1 263 2007)">symbols with the adjacent text.</text>
  <line style="fill:none;stroke:#00AEEF;stroke-width:0.5;opacity:1.0;" x1="776" x2="776" y1="1919" y2="1933"/>
  <g transform="matrix(1 0 0 1 776 1933)">
   <path d="M3.31055 0.15625C3.82812 0.15625 4.08203-0.0390625 4.26758-0.585938L5.52734-4.0332L11.2891-4.0332L12.5488-0.585938C12.7344-0.0390625 12.9883 0.15625 13.4961 0.15625C14.0137 0.15625 14.3457-0.15625 14.3457-0.644531C14.3457-0.810547 14.3164-0.966797 14.2383-1.17188L9.6582-13.3691C9.43359-13.9648 9.0332-14.2676 8.4082-14.2676C7.80273-14.2676 7.39258-13.9746 7.17773-13.3789L2.59766-1.16211C2.51953-0.957031 2.49023-0.800781 2.49023-0.634766C2.49023-0.146484 2.80273 0.15625 3.31055 0.15625ZM6.00586-5.51758L8.37891-12.0898L8.42773-12.0898L10.8008-5.51758Z"/>
  </g>
  <line style="fill:none;stroke:#00AEEF;stroke-width:0.5;opacity:1.0;" x1="793.197" x2="793.197" y1="1919" y2="1933"/>
  <text style="stroke:none;fill:black;font-family:sans-serif;font-size:13;font-weight:bold;" transform="matrix(1 0 0 1 776 1953)">Margins</text>
  <text style="stroke:none;fill:black;font-family:sans-serif;font-size:13;" transform="matrix(1 0 0 1 776 1971)">Leading and trailing margins on the left and right side of each symbol</text>
  <text style="stroke:none;fill:black;font-family:sans-serif;font-size:13;" transform="matrix(1 0 0 1 776 1989)">can be adjusted by modifying the x-location of the margin guidelines.</text>
  <text style="stroke:none;fill:black;font-family:sans-serif;font-size:13;" transform="matrix(1 0 0 1 776 2007)">Modifications are automatically applied proportionally to all</text>
  <text style="stroke:none;fill:black;font-family:sans-serif;font-size:13;" transform="matrix(1 0 0 1 776 2025)">scales and weights.</text>
  <g transform="matrix(1 0 0 1 1289 1933)">
   <path d="M2.8418 1.86523L4.54102 3.57422C5.40039 4.44336 6.38672 4.38477 7.31445 3.35938L18.0078-8.42773L17.041-9.4043L6.42578 2.27539C6.07422 2.67578 5.74219 2.77344 5.27344 2.30469L4.10156 1.14258C3.63281 0.683594 3.74023 0.341797 4.14062-0.0195312L15.6152-10.8203L14.6387-11.7871L3.04688-0.898438C2.06055 0.0195312 1.98242 0.996094 2.8418 1.86523ZM9.25781-16.3281C8.83789-15.918 8.80859-15.3418 9.04297-14.9512C9.27734-14.5898 9.73633-14.3555 10.3809-14.5215C11.8457-14.8633 13.3691-14.9219 14.7949-13.9844L14.209-12.5293C13.8672-11.6992 14.043-11.1133 14.5801-10.5664L16.875-8.25195C17.3633-7.76367 17.7734-7.74414 18.3398-7.8418L19.4043-8.03711L20.0684-7.36328L20.0293-6.80664C19.9902-6.30859 20.1172-5.92773 20.6055-5.44922L21.3672-4.70703C21.8457-4.22852 22.4609-4.19922 22.9297-4.66797L25.8398-7.58789C26.3086-8.05664 26.2891-8.65234 25.8105-9.13086L25.0391-9.89258C24.5605-10.3711 24.1895-10.5273 23.7109-10.4883L23.1348-10.4395L22.4902-11.0742L22.7344-12.1973C22.8613-12.7637 22.7051-13.2031 22.1191-13.7891L19.9219-15.9766C16.582-19.2969 12.1484-19.2188 9.25781-16.3281ZM10.752-15.957C13.1836-17.7344 16.4746-17.4316 18.7012-15.2051L21.1328-12.793C21.3672-12.5586 21.4062-12.373 21.3379-12.0312L21.0156-10.5469L22.5195-9.0625L23.5059-9.12109C23.7598-9.13086 23.8379-9.11133 24.0332-8.91602L24.6094-8.33984L22.168-5.89844L21.5918-6.47461C21.3965-6.66992 21.3672-6.74805 21.377-7.01172L21.4453-7.98828L19.9512-9.47266L18.4277-9.21875C18.1055-9.15039 17.959-9.17969 17.7148-9.41406L15.7129-11.416C15.459-11.6504 15.4297-11.8164 15.5859-12.1875L16.4648-14.2773C14.9023-15.7324 12.8711-16.3574 10.8398-15.7617C10.6836-15.7227 10.625-15.8496 10.752-15.957Z"/>
  </g>
  <text style="stroke:none;fill:black;font-family:sans-serif;font-size:13;font-weight:bold;" transform="matrix(1 0 0 1 1289 1953)">Exporting</text>
  <text style="stroke:none;fill:black;font-family:sans-serif;font-size:13;" transform="matrix(1 0 0 1 1289 1971)">Symbols should be outlined when exporting to ensure the</text>
  <text style="stroke:none;fill:black;font-family:sans-serif;font-size:13;" transform="matrix(1 0 0 1 1289 1989)">design is preserved when submitting to Xcode.</text>
  <text id="template-version" style="stroke:none;fill:black;font-family:sans-serif;font-size:13;text-anchor:end;" transform="matrix(1 0 0 1 3036 1933)">Template v.2.0</text>
  <text style="stroke:none;fill:black;font-family:sans-serif;font-size:13;text-anchor:end;" transform="matrix(1 0 0 1 3036 1951)">Requires Xcode 12 or greater</text>
  <text id="descriptive-name" style="stroke:none;fill:black;font-family:sans-serif;font-size:13;text-anchor:end;" transform="matrix(1 0 0 1 3036 1969)">Generated from brave.laptop.and.phone.star</text>
  <text style="stroke:none;fill:black;font-family:sans-serif;font-size:13;text-anchor:end;" transform="matrix(1 0 0 1 3036 1987)">Typeset at 100 points</text>
  <text style="stroke:none;fill:black;font-family:sans-serif;font-size:13;" transform="matrix(1 0 0 1 263 726)">Small</text>
  <text style="stroke:none;fill:black;font-family:sans-serif;font-size:13;" transform="matrix(1 0 0 1 263 1156)">Medium</text>
  <text style="stroke:none;fill:black;font-family:sans-serif;font-size:13;" transform="matrix(1 0 0 1 263 1586)">Large</text>
 </g>
 <g id="Guides">
  <g id="H-reference" style="fill:#27AAE1;stroke:none;" transform="matrix(1 0 0 1 339 696)">
   <path d="M0.993654 0L3.63775 0L29.3281-67.1323L30.0303-67.1323L30.0303-70.459L28.1226-70.459ZM11.6885-24.4799L46.9815-24.4799L46.2315-26.7285L12.4385-26.7285ZM55.1196 0L57.7637 0L30.6382-70.459L29.4326-70.459L29.4326-67.1323Z"/>
  </g>
  <line id="Baseline-S" style="fill:none;stroke:#27AAE1;opacity:1;stroke-width:0.5;" x1="263" x2="3036" y1="696" y2="696"/>
  <line id="Capline-S" style="fill:none;stroke:#27AAE1;opacity:1;stroke-width:0.5;" x1="263" x2="3036" y1="625.541" y2="625.541"/>
  <g id="H-reference" style="fill:#27AAE1;stroke:none;" transform="matrix(1 0 0 1 339 1126)">
   <path d="M0.993654 0L3.63775 0L29.3281-67.1323L30.0303-67.1323L30.0303-70.459L28.1226-70.459ZM11.6885-24.4799L46.9815-24.4799L46.2315-26.7285L12.4385-26.7285ZM55.1196 0L57.7637 0L30.6382-70.459L29.4326-70.459L29.4326-67.1323Z"/>
  </g>
  <line id="Baseline-M" style="fill:none;stroke:#27AAE1;opacity:1;stroke-width:0.5;" x1="263" x2="3036" y1="1126" y2="1126"/>
  <line id="Capline-M" style="fill:none;stroke:#27AAE1;opacity:1;stroke-width:0.5;" x1="263" x2="3036" y1="1055.54" y2="1055.54"/>
  <g id="H-reference" style="fill:#27AAE1;stroke:none;" transform="matrix(1 0 0 1 339 1556)">
   <path d="M0.993654 0L3.63775 0L29.3281-67.1323L30.0303-67.1323L30.0303-70.459L28.1226-70.459ZM11.6885-24.4799L46.9815-24.4799L46.2315-26.7285L12.4385-26.7285ZM55.1196 0L57.7637 0L30.6382-70.459L29.4326-70.459L29.4326-67.1323Z"/>
  </g>
  <line id="Baseline-L" style="fill:none;stroke:#27AAE1;opacity:1;stroke-width:0.5;" x1="263" x2="3036" y1="1556" y2="1556"/>
  <line id="Capline-L" style="fill:none;stroke:#27AAE1;opacity:1;stroke-width:0.5;" x1="263" x2="3036" y1="1485.54" y2="1485.54"/>
  <line id="left-margin" style="fill:none;stroke:#00AEEF;stroke-width:0.5;opacity:1.0;" x1="1389.5" x2="1389.5" y1="1030.79" y2="1150.12"/>
  <line id="right-margin" style="fill:none;stroke:#00AEEF;stroke-width:0.5;opacity:1.0;" x1="1510.19" x2="1510.19" y1="1030.79" y2="1150.12"/>
 </g>
 <g id="Symbols">
  <g id="Regular-L" transform="matrix(1 0 0 1 1375 1556)">
   <path d="M123.092-54.9323C123.179-54.9323 123.267-54.9301 123.354-54.9259L126.814-54.9259C134.893-54.9259 141.461-48.527 141.461-40.6621L141.461 17.3615C141.461 25.2259 134.893 31.6195 126.814 31.6195L102.347 31.6195C94.2735 31.6195 87.7106 25.2259 87.7106 17.3615L87.7106 0.289772L87.7203 0.289772L87.7203-6.18882C87.7203-9.17139 90.1229-11.5893 93.0867-11.5893C96.0505-11.5893 98.4532-9.17139 98.4532-6.18882L98.4532 0.289772L98.4628 17.3615C98.4628 19.2218 100.242 20.8017 102.349 20.8017L126.816 20.8017C128.928 20.8017 130.713 19.2218 130.713 17.3615L130.713-40.6621C130.713-42.5283 128.928-44.1077 126.816-44.1077L120.231-44.1077L120.231-44.1246L114.424-44.1246C111.458-44.1246 109.054-46.544 109.054-49.5284C109.054-52.5128 111.458-54.9323 114.424-54.9323ZM119.962 4.57443L119.962 15.3922L109.212 15.3922L109.212 4.57443L119.962 4.57443ZM121.413-87.3805C126.541-87.3805 130.712-83.064 130.712-77.7631L130.712-65.7441C130.712-62.7528 128.304-60.335 125.337-60.335C122.37-60.335 119.962-62.7528 119.962-65.7441L119.962-76.5623L28.5861-76.5623L28.5861-11.6529L76.9615-11.6529C79.9286-11.6529 82.3364-9.23501 82.3364-6.24399C82.3364-3.25297 79.9286-0.835104 76.9615-0.835104L23.211-0.835104L23.211 4.57443L76.9615 4.57443C79.9286 4.57443 82.3364 6.9923 82.3364 9.98331C82.3364 12.9691 79.9286 15.3922 76.9615 15.3922L21.8726 15.3922C16.6857 15.3922 12.4609 11.1465 12.4609 5.92649L12.4609-6.24399C12.4609-9.23501 14.8689-11.6529 17.8359-11.6529L17.8359-77.7631C17.8359-83.064 22.007-87.3805 27.1348-87.3805L121.413-87.3805ZM74.3544-62.9083C75.3181-65.2406 78.6012-65.2406 79.5654-62.9083L84.0418-52.0777L95.6603-51.1404C98.1629-50.9385 99.1775-47.7963 97.2709-46.153L88.4188-38.522L91.1233-27.1123C91.7057-24.6548 89.0496-22.7128 86.9075-24.0298L76.9596-30.1442L67.0123-24.0298C64.8703-22.7128 62.2142-24.6548 62.7966-27.1123L65.5011-38.522L56.6488-46.153C54.7425-47.7963 55.757-50.9385 58.2591-51.1404L69.8781-52.0777ZM118.403-37.1297C119.371-36.1022 119.962-34.6956 119.962-33.2897C119.962-31.8831 119.371-30.4824 118.403-29.449C117.382-28.4754 115.984-27.8802 114.587-27.8802C113.19-27.8802 111.792-28.4754 110.771-29.449C109.803-30.4824 109.212-31.8293 109.212-33.2897C109.212-34.6956 109.803-36.1022 110.771-37.1297C112.759-39.1315 116.415-39.1315 118.403-37.1297Z"/>
  </g>
  <g id="Regular-M" transform="matrix(1 0 0 1 1389.5 1126)">
   <path d="M98.2213-49.8162C98.2893-49.8162 98.3573-49.8145 98.4243-49.8112L101.107-49.8112C107.369-49.8112 112.461-44.8642 112.461-38.7838L112.461 6.07484C112.461 12.1549 107.369 17.0978 101.107 17.0978L82.1401 17.0978C75.8815 17.0978 70.794 12.1549 70.794 6.07484L70.794-7.1235L70.8015-12.1322C70.8015-14.438 72.664-16.3073 74.9615-16.3073C77.259-16.3073 79.1216-14.438 79.1216-12.1322L79.1216-7.1235L79.1291 6.07484C79.1291 7.51306 80.5081 8.73448 82.1416 8.73448L101.108 8.73448C102.746 8.73448 104.129 7.51306 104.129 6.07484L104.129-38.7838C104.129-40.2266 102.746-41.4476 101.108-41.4476L96.0032-41.4476L96.0032-41.4607L91.5022-41.4607C89.2032-41.4607 87.3396-43.3311 87.3396-45.6384C87.3396-47.9457 89.2032-49.8162 91.5022-49.8162ZM95.7952-3.81099L95.7952 4.55232L87.4616 4.55232L87.4616-3.81099L95.7952-3.81099ZM96.9202-74.9022C100.895-74.9022 104.128-71.5651 104.128-67.4669L104.128-58.1749C104.128-55.8623 102.262-53.9931 99.9618-53.9931C97.6618-53.9931 95.7952-55.8623 95.7952-58.1749L95.7952-66.5385L24.961-66.5385L24.961-16.3565L62.4614-16.3565C64.7614-16.3565 66.6279-14.4872 66.6279-12.1748C66.6279-9.86243 64.7614-7.99315 62.4614-7.99315L20.7943-7.99315L20.7943-3.81099L62.4614-3.81099C64.7614-3.81099 66.6279-1.94172 66.6279 0.370664C66.6279 2.67903 64.7614 4.55232 62.4614 4.55232L19.7568 4.55232C15.7359 4.55232 12.4609 1.26992 12.4609-2.76571L12.4609-12.1748C12.4609-14.4872 14.3276-16.3565 16.6276-16.3565L16.6276-67.4669C16.6276-71.5651 19.861-74.9022 23.836-74.9022L96.9202-74.9022ZM60.4404-55.9825C61.1874-57.7857 63.7324-57.7857 64.4799-55.9825L67.95-47.6093L76.9565-46.8846C78.8966-46.7286 79.6831-44.2993 78.2051-43.0288L71.343-37.1293L73.4395-28.3083C73.891-26.4084 71.832-24.907 70.1715-25.9252L62.4599-30.6523L54.7488-25.9252C53.0883-24.907 51.0293-26.4084 51.4808-28.3083L53.5773-37.1293L46.7151-43.0288C45.2373-44.2993 46.0238-46.7286 47.9634-46.8846L56.9703-47.6093ZM94.5867-36.0529C95.3367-35.2585 95.7952-34.171 95.7952-33.0841C95.7952-31.9967 95.3367-30.9137 94.5867-30.1148C93.7952-29.3621 92.7117-28.9019 91.6282-28.9019C90.5452-28.9019 89.4617-29.3621 88.6702-30.1148C87.9202-30.9137 87.4616-31.955 87.4616-33.0841C87.4616-34.171 87.9202-35.2585 88.6702-36.0529C90.2117-37.6005 93.0452-37.6005 94.5867-36.0529Z"/>
  </g>
  <g id="Regular-S" transform="matrix(1 0 0 1 1400.5 696)">
   <path d="M79.354-47.3674C79.407-47.3674 79.4601-47.3662 79.5123-47.3636L81.6047-47.3636C86.4895-47.3636 90.4609-43.492 90.4609-38.7334L90.4609-3.62666C90.4609 1.13163 86.4895 5 81.6047 5L66.8107 5C61.929 5 57.9607 1.13163 57.9607-3.62666L57.9607-13.9558L57.9666-17.8756C57.9666-19.6802 59.4193-21.1431 61.2114-21.1431C63.0035-21.1431 64.4562-19.6802 64.4562-17.8756L64.4562-13.9558L64.4621-3.62666C64.4621-2.5011 65.5377-1.5452 66.8118-1.5452L81.6059-1.5452C82.8831-1.5452 83.9623-2.5011 83.9623-3.62666L83.9623-38.7334C83.9623-39.8625 82.8831-40.8182 81.6059-40.8182L77.6239-40.8182L77.6239-40.8284L74.1131-40.8284C72.3199-40.8284 70.8663-42.2922 70.8663-44.0979C70.8663-45.9036 72.3199-47.3674 74.1131-47.3674ZM77.4617-11.3634L77.4617-4.8182L70.9615-4.8182L70.9615-11.3634L77.4617-11.3634ZM78.3392-67C81.4397-67 83.9615-64.3884 83.9615-61.1811L83.9615-53.9091C83.9615-52.0992 82.5056-50.6363 80.7116-50.6363C78.9176-50.6363 77.4617-52.0992 77.4617-53.9091L77.4617-60.4545L22.211-60.4545L22.211-21.1816L51.4613-21.1816C53.2553-21.1816 54.7112-19.7187 54.7112-17.909C54.7112-16.0993 53.2553-14.6364 51.4613-14.6364L18.961-14.6364L18.961-11.3634L51.4613-11.3634C53.2553-11.3634 54.7112-9.90049 54.7112-8.0908C54.7112-6.28425 53.2553-4.8182 51.4613-4.8182L18.1517-4.8182C15.0154-4.8182 12.4609-7.38703 12.4609-10.5454L12.4609-17.909C12.4609-19.7187 13.9169-21.1816 15.7109-21.1816L15.7109-61.1811C15.7109-64.3884 18.233-67 21.3335-67L78.3392-67ZM49.8849-52.1933C50.4676-53.6044 52.4527-53.6044 53.0357-52.1933L55.7424-45.6403L62.7675-45.0732C64.2807-44.9511 64.8942-43.0499 63.7413-42.0556L58.3889-37.4386L60.0242-30.5352C60.3764-29.0483 58.7704-27.8733 57.4752-28.6701L51.4601-32.3696L45.4455-28.6701C44.1503-27.8733 42.5443-29.0483 42.8965-30.5352L44.5317-37.4386L39.1792-42.0556C38.0265-43.0499 38.64-44.9511 40.1528-45.0732L47.1783-45.6403ZM76.519-36.5962C77.104-35.9745 77.4617-35.1234 77.4617-34.2728C77.4617-33.4218 77.104-32.5743 76.519-31.949C75.9017-31.3599 75.0565-30.9998 74.2114-30.9998C73.3666-30.9998 72.5215-31.3599 71.9041-31.949C71.3191-32.5743 70.9615-33.3892 70.9615-34.2728C70.9615-35.1234 71.3191-35.9745 71.9041-36.5962C73.1065-37.8074 75.3167-37.8074 76.519-36.5962Z"/>
  </g>
 </g>
</svg>
