<svg fill="none" xmlns="http://www.w3.org/2000/svg" viewBox="0 0 1104 454">
  <g>
    <path fill="url(#paint0_linear)" d="M0 0h1104v454H0z"/>
  </g>
  <g clip-path="url(#clip0)">
    <path opacity=".16" d="M-964.18 287.054h0c6.468-.52 13.069.927 19.796 3.442 6.731 2.517 13.524 6.078 20.381 9.74l1.402.749c6.377 3.409 12.809 6.848 19.213 9.489 6.878 2.836 13.794 4.783 20.677 4.783 6.862 0 13.737-1.953 20.566-4.808 6.48-2.709 12.981-6.258 19.43-9.779l1.032-.563c13.669-7.458 27.02-14.518 40.075-13.794 29.205 1.621 57.908 11.328 86.811 21.415l3.331 1.163c27.759 9.7 55.723 19.471 84.297 22.291 28.36 2.8 57.621-1.285 86.731-5.349l3.766-.525c30.403-4.231 60.598-8.116 89.67-3.957 29.291 4.189 57.15 16.381 84.99 28.964l3.999 1.81c26.46 11.978 52.964 23.976 80.534 29.243 19.718 3.766 40.848-.405 61.797-4.725l1.626-.336c20.485-4.229 40.766-8.415 59.761-5.638 18.583 2.716 36.435 12.164 54.471 21.709l2.673 1.414c18.867 9.967 37.98 19.679 58.068 21.046 20.09 1.367 40.267-5.658 60.244-13.143 1.415-.53 2.83-1.063 4.244-1.595 18.617-7.011 37.06-13.955 55.397-14.758 18.477-.808 37.677 4.087 57.063 9.028 1.931.493 3.863.985 5.797 1.473 21.269 5.362 42.683 10.098 63.129 6.385 20.376-3.7 38.739-15.676 56.81-27.97 1.059-.72 2.117-1.442 3.174-2.162 17.059-11.634 33.956-23.158 52.361-28.297 18.983-5.302 40.154-4.001 61.489-2.689l2.057.126c21.943 1.342 43.994 2.47 63.484-4.092 22.984-7.743 42.772-23.44 62.254-39.303l2.445-1.992c18.703-15.245 37.238-30.353 58.33-38.805 22.065-8.84 47.014-10.471 72.251-11.85l2.781-.151c24.26-1.316 48.692-2.641 70.644-10.302 20.13-7.025 38.712-19.618 57.234-32.171 2.309-1.565 4.617-3.129 6.927-4.681 20.9-14.049 41.985-27.178 65.619-31.774 16.023-3.117 33.326 1.795 50.977 7.252 1.016.314 2.032.63 3.05.946 16.555 5.142 33.35 10.358 49.184 9 15.842-1.359 31.439-9.364 46.813-17.255l2.81-1.441c16.385-8.384 32.535-16.175 48.865-15.845 16.34.329 32.14 8.759 48.15 17.796.92.52 1.85 1.043 2.77 1.566 15.02 8.498 30.25 17.119 46.01 19.126 25.4 3.232 51.94.898 78.41-1.431 2.79-.245 5.58-.49 8.36-.729 29.29-2.508 58.36-4.295 85.89 2.036 27.34 6.292 52.66 20.605 78.06 35.273l2.56 1.479c24.51 14.162 49.16 28.409 75.68 35.587 27.59 7.47 57.2 7.374 86.59 7.117l1.96-.017c28.78-.255 57.31-.508 83.79 6.065l.24-.971-.24.971c26.21 6.502 49.21 20.221 71.4 33.67l1.65 1.006c21.55 13.064 42.42 25.719 64.61 30.733 25.32 5.719 51.46 3.227 77.28.291l4.99-.572c24.16-2.778 47.97-5.514 70.75-1.993 21.01 3.249 41.59 12.429 62.87 21.927 2.3 1.026 4.61 2.056 6.92 3.082 23.71 10.501 48.39 20.619 75.33 22.439 5.07.341 10.12-1.409 15.04-4.102 4.93-2.693 9.83-6.389 14.61-10.052l1.02-.783c4.44-3.413 8.76-6.735 12.98-9.234 4.54-2.695 8.81-4.346 12.82-4.187 4.68.185 9.29 2.209 13.89 5.251 4.6 3.042 9.1 7.039 13.57 11.074l.92.831c4.13 3.737 8.24 7.454 12.3 10.302 4.35 3.053 8.77 5.214 13.25 5.267 10.71.124 24.73-4.701 37.81-9.491 1.28-.468 2.55-.936 3.81-1.4 5.22-1.923 10.23-3.772 14.81-5.243 5.29-1.7 9.9-2.861 13.48-3.068 1.58 7.528.54 13.423-1.91 18.53-2.56 5.332-6.67 9.851-11.13 14.505-.44.455-.88.912-1.32 1.371-8.51 8.846-17.71 18.396-17.71 34.684 0 17.075 8.31 25.664 16.38 34.005l.03.034c8.05 8.321 15.85 16.405 15.85 32.65 0 8.422 1.08 15.726 2.16 21.943.19 1.097.38 2.156.57 3.179.86 4.82 1.58 8.83 1.59 12.184 0 3.986-.99 6.807-3.84 8.825-2.96 2.098-8.06 3.439-16.6 3.922-556.6 31.413-587.7 31.407-1086.46 31.309-29.5-.006-60.63-.012-93.6-.012-295.232 0-442.845-7.832-590.466-15.665h-.005c-147.642-7.834-295.293-15.668-590.581-15.668-259.823 0-405.674 11.83-537.734 22.543-18.036 1.463-35.814 2.905-53.59 4.293-147.903 11.551-295.704 19.377-590.524 4.476-3.74-.189-6.09-1.018-7.48-2.216-1.34-1.158-1.93-2.789-1.86-4.981.07-2.225.82-4.938 2.1-8.074 1.27-3.123 3.03-6.591 5.05-10.31a447.43 447.43 0 014-7.207c3.05-5.449 6.29-11.221 9.04-16.972 4.01-8.369 7.07-16.88 7.07-24.575 0-7.609-1.56-13.192-4.05-17.735-2.48-4.525-5.86-7.956-9.38-11.28-.53-.498-1.06-.995-1.6-1.494-6.58-6.149-13.44-12.555-16.79-25.662-4.2-16.472-6.34-26.215-6.35-35.389-.01-9.061 2.06-17.626 6.43-31.644 5.22-2.26 12.05-3.558 19.96-4.383 7.42-.776 15.71-1.126 24.39-1.494l2.38-.101c19.03-.813 39.67-1.889 56.43-7.877l-.34-.942.34.942c6.51-2.326 12.53-6.551 18.37-11.645 4.86-4.24 9.65-9.128 14.49-14.077.97-.992 1.94-1.986 2.92-2.978 11.75-11.947 24.06-23.592 39.42-27.735 6.57-1.773 13.76-1.672 21.39-.572 7.63 1.101 15.64 3.188 23.83 5.344l.57.149c16.13 4.246 33.01 8.688 48.59 5.812 6.78-1.252 13.25-4.386 19.51-8.36 5.74-3.636 11.35-8.011 16.92-12.346.51-.401 1.03-.801 1.54-1.2 12.231-9.509 24.185-18.406 37.13-19.44z" stroke="url(#paint1_linear)" stroke-width="2"/>
    <path opacity=".04" d="M-1312.84 387.226c21.68-9.757 70.47-2.209 103.64-14.066 25.35-9.061 43.96-48.011 75.28-56.459 27.01-7.288 63.45 16.437 94.46 10.716 26.43-4.879 48.607-39.235 75.2-41.36 26.673-2.143 54.753 28.2 81.549 28.2 26.706 0 54.372-30.427 81.159-28.942 58.733 3.258 115.331 39.035 174.481 44.872 58.882 5.812 121.745-18.189 180.211-9.826 58.904 8.425 111.932 49.014 169.568 60.025 38.98 7.444 83.727-16.469 123.142-10.707 39.415 5.762 75.449 41.46 115.135 44.161 39.686 2.701 79.923-27.752 119.773-29.497 40.999-1.792 85.446 24.239 125.854 16.901 40.273-7.313 72.779-47.385 112.255-58.408 39.576-11.054 88.433 6.339 126.98-6.639 45.573-15.354 78.613-62.303 122.976-80.082 44.483-17.822 100.459-6.523 145.719-22.318 44.972-15.695 82.207-59.386 129.918-68.664 32.618-6.344 70.178 20.025 103.316 17.184 33.138-2.842 65.344-35.216 98.594-34.545 33.26.67 64.05 34.297 97.04 38.496 55.89 7.112 117.35-12.847 172.76-.107 55.02 12.662 101.76 57.575 156.33 72.348 54.88 14.858 117.86-.357 172.32 13.16 52.75 13.088 92.5 55.206 137.64 65.405 50.27 11.352 103.94-9.864 152.95-2.287 46.9 7.25 91.55 43.825 145.03 47.438 19.2 1.294 39.25-29.04 56.45-28.36 19.74.784 37.21 32.53 53.9 32.725 20.99.244 55.33-18.979 70.69-19.233 7.53 32.534-31.86 36.779-31.86 70.121 0 33.341 32.26 33.344 32.26 66.689 0 33.345 17.2 49.115-17.07 51.051-589.53 33.273-589.58 31.299-1180.11 31.299-590.522 0-590.525-31.333-1181.052-31.333-590.526 0-592.165 61.118-1181.898 31.311-30.69-1.548 16.97-45.49 16.97-75.334 0-29.845-24.39-26.947-31.79-55.924-8.39-32.909-8.69-39.448.23-68.011z" fill="url(#paint2_linear)"/>
    <path opacity=".08" d="M-1210.84 371.712c21.68-9.757 70.48-2.209 103.65-14.065 25.35-9.062 43.96-48.012 75.27-56.46 27.02-7.288 63.46 16.438 94.463 10.716 26.431-4.878 48.611-39.235 75.204-41.359 26.673-2.144 54.753 28.199 81.549 28.199 26.705 0 54.372-30.427 81.158-28.942 58.734 3.259 115.332 39.035 174.482 44.872 58.882 5.812 121.745-18.189 180.21-9.826 58.905 8.426 111.932 49.014 169.569 60.025 38.98 7.445 83.727-16.469 123.142-10.707 39.415 5.763 75.449 41.46 115.135 44.161 39.685 2.701 79.923-27.751 119.773-29.497 40.999-1.792 85.446 24.24 125.854 16.901 40.273-7.313 72.779-47.385 112.255-58.408 39.576-11.054 88.433 6.339 126.98-6.639 45.572-15.353 78.613-62.303 122.976-80.081 44.483-17.823 100.459-6.524 145.718-22.319 44.973-15.695 82.207-59.386 129.919-68.663 32.618-6.345 70.183 20.025 103.313 17.183 33.14-2.842 65.34-35.215 98.6-34.545 33.26.671 64.05 34.297 97.03 38.496 55.89 7.113 117.35-12.847 172.76-.107 55.02 12.662 101.76 57.575 156.34 72.349 54.88 14.858 117.86-.358 172.32 13.159 52.75 13.088 92.5 55.206 137.64 65.405 50.26 11.352 103.93-9.863 152.95-2.287 46.9 7.25 91.55 43.825 145.03 47.438 19.2 1.294 39.25-29.039 56.45-28.359 19.73.783 37.21 32.53 53.9 32.724 20.99.244 55.33-18.979 70.69-19.232 7.53 32.533-31.86 36.778-31.86 70.12 0 33.342 32.25 33.345 32.25 66.689 0 33.345 17.21 49.115-17.06 51.051-589.54 33.273-589.58 31.299-1180.11 31.299-590.525 0-590.528-31.333-1181.055-31.333-590.526 0-592.165 61.118-1181.895 31.311-30.69-1.548 16.96-45.489 16.96-75.334 0-29.845-24.38-26.947-31.78-55.923-8.4-32.91-8.69-39.449.22-68.012z" fill="url(#paint3_linear)"/>
    <path opacity=".5" d="M-862.174 271.54h.001c6.468-.519 13.069.927 19.796 3.442 6.731 2.517 13.523 6.078 20.381 9.74l1.402.749c6.377 3.41 12.809 6.848 19.213 9.489 6.877 2.836 13.794 4.783 20.677 4.783 6.862 0 13.737-1.953 20.566-4.808 6.48-2.709 12.981-6.258 19.429-9.778l1.033-.564c13.669-7.457 27.02-14.517 40.075-13.794 29.204 1.621 57.908 11.328 86.811 21.415l3.331 1.164c27.759 9.699 55.723 19.47 84.297 22.29 28.36 2.8 57.621-1.285 86.731-5.349l3.766-.525c30.402-4.231 60.598-8.115 89.67-3.957 29.291 4.19 57.15 16.381 84.989 28.964l4 1.81c26.46 11.978 52.964 23.976 80.534 29.243 19.718 3.766 40.848-.405 61.797-4.725l1.626-.336c20.485-4.228 40.766-8.415 59.761-5.638 18.583 2.717 36.435 12.164 54.471 21.71l2.672 1.413c18.867 9.967 37.98 19.679 58.069 21.046 20.09 1.367 40.266-5.658 60.243-13.142 1.416-.531 2.831-1.064 4.245-1.596 18.617-7.01 37.059-13.955 55.397-14.758 18.477-.807 37.676 4.087 57.062 9.029 1.931.492 3.864.985 5.798 1.472 21.269 5.362 42.683 10.098 63.129 6.385 20.376-3.7 38.738-15.676 56.81-27.97 1.059-.72 2.116-1.441 3.173-2.162 17.06-11.634 33.957-23.157 52.362-28.297 18.983-5.302 40.153-4 61.489-2.689l2.057.126c21.943 1.342 43.994 2.47 63.484-4.091 22.984-7.744 42.771-23.441 62.254-39.304l2.445-1.992c18.703-15.245 37.238-30.352 58.33-38.805 22.064-8.84 47.014-10.47 72.25-11.849l2.782-.152c24.26-1.316 48.692-2.641 70.644-10.302 20.13-7.025 38.712-19.618 57.234-32.17 2.309-1.565 4.617-3.129 6.927-4.682 20.9-14.049 41.984-27.178 65.619-31.774 16.023-3.116 33.325 1.795 50.977 7.252 1.015.314 2.032.63 3.045.946 16.56 5.142 33.35 10.358 49.19 9 15.84-1.358 31.44-9.364 46.81-17.254l2.81-1.441c16.39-8.385 32.53-16.176 48.87-15.846 16.34.329 32.13 8.759 48.15 17.796.92.52 1.84 1.043 2.77 1.566 15.01 8.498 30.25 17.12 46.01 19.126 25.4 3.233 51.94.898 78.41-1.43 2.79-.246 5.57-.491 8.36-.729 29.28-2.509 58.36-4.296 85.89 2.035 27.34 6.292 52.65 20.605 78.06 35.274l2.56 1.478c24.5 14.162 49.16 28.409 75.68 35.587 27.59 7.471 57.19 7.374 86.58 7.117l1.97-.017c28.78-.255 57.31-.508 83.78 6.065l.25-.971-.25.971c26.21 6.502 49.21 20.221 71.4 33.67l1.66 1.006c21.55 13.064 42.42 25.72 64.61 30.734 25.32 5.718 51.46 3.226 77.28.29 1.66-.189 3.32-.381 4.99-.572 24.16-2.777 47.97-5.514 70.74-1.993 21.02 3.249 41.59 12.429 62.88 21.927 2.3 1.026 4.6 2.056 6.92 3.083 23.71 10.501 48.39 20.618 75.32 22.438 5.07.342 10.13-1.408 15.05-4.101 4.93-2.694 9.83-6.39 14.6-10.053l1.02-.783c4.45-3.413 8.77-6.735 12.98-9.234 4.55-2.695 8.82-4.346 12.83-4.187 4.67.185 9.29 2.209 13.89 5.251 4.6 3.042 9.1 7.039 13.57 11.075l.92.83c4.13 3.737 8.24 7.454 12.29 10.302 4.35 3.054 8.78 5.215 13.26 5.267 10.71.125 24.73-4.701 37.81-9.49 1.28-.469 2.55-.937 3.8-1.4 5.22-1.924 10.24-3.773 14.82-5.244 5.29-1.7 9.9-2.861 13.47-3.068 1.58 7.528.54 13.424-1.91 18.53-2.55 5.332-6.66 9.851-11.12 14.505l-1.32 1.371c-8.52 8.846-17.71 18.396-17.71 34.684 0 17.075 8.31 25.664 16.37 34.006l.04.033c8.05 8.321 15.84 16.405 15.84 32.65 0 8.422 1.09 15.726 2.17 21.943.19 1.097.38 2.157.56 3.179.87 4.821 1.59 8.831 1.59 12.184.01 3.986-.99 6.807-3.84 8.825-2.96 2.098-8.06 3.44-16.6 3.922-556.6 31.414-587.7 31.408-1086.46 31.309-29.49-.006-60.62-.012-93.59-.012-295.235 0-442.848-7.832-590.469-15.665h-.005c-147.642-7.834-295.293-15.668-590.58-15.668-259.824 0-405.675 11.831-537.735 22.543-18.036 1.463-35.814 2.905-53.59 4.293-147.904 11.551-295.703 19.378-590.521 4.476-3.74-.188-6.09-1.018-7.48-2.216-1.34-1.158-1.94-2.789-1.87-4.98.07-2.225.83-4.939 2.11-8.075 1.27-3.123 3.03-6.591 5.04-10.309a683.76 683.76 0 014-7.207c3.06-5.45 6.3-11.221 9.05-16.973 4-8.369 7.06-16.88 7.06-24.575 0-7.608-1.55-13.192-4.04-17.735-2.49-4.524-5.87-7.956-9.39-11.279-.52-.499-1.06-.996-1.59-1.495-6.59-6.149-13.44-12.555-16.79-25.662-4.2-16.471-6.34-26.215-6.35-35.389-.01-9.06 2.06-17.626 6.42-31.644 5.22-2.26 12.06-3.558 19.96-4.383 7.43-.775 15.72-1.126 24.4-1.493l2.38-.101c19.02-.814 39.67-1.89 56.43-7.878l-.34-.941.34.941c6.5-2.326 12.53-6.551 18.37-11.645 4.86-4.24 9.64-9.127 14.48-14.077.97-.992 1.95-1.986 2.92-2.978 11.76-11.946 24.06-23.592 39.42-27.735 6.58-1.773 13.77-1.672 21.4-.572 7.63 1.101 15.632 3.189 23.824 5.344l.568.149c16.132 4.246 33.011 8.688 48.592 5.813 6.785-1.252 13.251-4.387 19.516-8.361 5.732-3.636 11.35-8.011 16.916-12.346l1.542-1.2c12.229-9.508 24.184-18.405 37.128-19.44z" stroke="url(#paint4_linear)" stroke-width="2"/>
  </g>
  <defs>
    <linearGradient id="paint0_linear" x1=".666" y1="1.536" x2="458.789" y2="809.55" gradientUnits="userSpaceOnUse">
      <stop stop-color="#A43CE4"/>
      <stop offset="1" stop-color="#A72B6D"/>
    </linearGradient>
    <linearGradient id="paint1_linear" x1="1296.23" y1="225.11" x2="1190.58" y2="-102.902" gradientUnits="userSpaceOnUse">
      <stop stop-color="#fff" stop-opacity="0"/>
      <stop offset="1" stop-color="#fff"/>
    </linearGradient>
    <linearGradient id="paint2_linear" x1="-1319.45" y1="147.762" x2="-1142.4" y2="1173.37" gradientUnits="userSpaceOnUse">
      <stop stop-color="#fff"/>
      <stop offset="1" stop-color="#fff" stop-opacity="0"/>
    </linearGradient>
    <linearGradient id="paint3_linear" x1="494.252" y1="265.752" x2="481.907" y2="426.897" gradientUnits="userSpaceOnUse">
      <stop stop-color="#fff" stop-opacity=".23"/>
      <stop offset="1" stop-color="#fff"/>
    </linearGradient>
    <linearGradient id="paint4_linear" x1="1354.27" y1="355.711" x2="1233.03" y2="-44.569" gradientUnits="userSpaceOnUse">
      <stop stop-color="#fff"/>
      <stop offset="1" stop-color="#fff" stop-opacity="0"/>
    </linearGradient>
    <clipPath id="clip0">
      <path fill="#fff" transform="translate(1 1)" d="M0 0h1103v452H0z"/>
    </clipPath>
  </defs>
</svg>
