<svg fill="none" xmlns="http://www.w3.org/2000/svg" viewBox="0 0 1102 459">
  <g>
    <path fill="url(#paint0_linear)" d="M0 0h1102v459H0z"/>
    <path opacity=".16" d="M-333.523 290.144h.001c6.455-.525 13.044.936 19.761 3.479 6.72 2.543 13.502 6.143 20.35 9.845l1.399.757c6.368 3.446 12.79 6.923 19.185 9.592 6.867 2.867 13.776 4.836 20.65 4.836 6.854 0 13.721-1.975 20.541-4.861 6.47-2.739 12.962-6.327 19.401-9.885l1.03-.57c6.799-3.755 13.538-7.427 20.237-10.072 6.695-2.644 13.285-4.234 19.773-3.87 29.158 1.638 57.817 11.45 86.677 21.647l3.326 1.176c27.717 9.804 55.64 19.682 84.173 22.532 28.32 2.83 57.539-1.299 86.605-5.407l3.76-.53c30.357-4.277 60.506-8.204 89.532-4 29.245 4.234 57.062 16.557 84.859 29.277 1.332.609 2.663 1.219 3.994 1.83 26.42 12.108 52.886 24.236 80.415 29.56 19.692 3.808 40.793-.41 61.71-4.776l1.623-.339c20.454-4.275 40.703-8.507 59.668-5.7 18.553 2.746 36.377 12.295 54.387 21.945l2.667 1.428c18.838 10.074 37.925 19.893 57.986 21.275 20.063 1.382 40.212-5.72 60.159-13.286 1.413-.536 2.826-1.074 4.237-1.612 18.59-7.087 37.003-14.106 55.311-14.917 18.447-.817 37.616 4.13 56.974 9.126 1.928.497 3.857.995 5.788 1.488 21.237 5.42 42.622 10.208 63.04 6.455 20.349-3.741 38.685-15.848 56.728-28.275 1.057-.728 2.113-1.456 3.168-2.185 17.034-11.76 33.906-23.408 52.282-28.603l-.272-.962.272.962c18.953-5.359 40.089-4.044 61.396-2.718l2.05.127c21.91 1.357 43.93 2.498 63.39-4.136 22.96-7.828 42.71-23.696 62.17-39.73.81-.671 1.62-1.342 2.44-2.013 18.67-15.411 37.18-30.682 58.24-39.226 22.03-8.936 46.94-10.584 72.14-11.977.92-.052 1.85-.102 2.78-.153 24.22-1.331 48.62-2.67 70.54-10.415 20.1-7.101 38.65-19.831 57.15-32.52 2.3-1.582 4.61-3.163 6.91-4.732 20.87-14.201 41.92-27.472 65.52-32.117 16-3.15 33.27 1.813 50.9 7.33 1.01.317 2.03.637 3.04.956 16.53 5.198 33.3 10.471 49.12 9.098 15.82-1.373 31.39-9.466 46.74-17.442.94-.486 1.87-.973 2.81-1.457 16.36-8.476 32.48-16.349 48.79-16.016 16.31.332 32.08 8.852 48.07 17.987.92.526 1.84 1.055 2.76 1.583 15 8.59 30.21 17.306 45.95 19.335 25.36 3.268 51.86.908 78.3-1.446 2.78-.248 5.56-.496 8.34-.737 29.25-2.536 58.27-4.341 85.76 2.057 27.3 6.36 52.57 20.828 77.94 35.655l2.56 1.495c24.47 14.315 49.09 28.717 75.56 35.973 27.56 7.552 57.12 7.455 86.47 7.195l1.96-.017c28.73-.258 57.22-.513 83.65 6.13 26.17 6.572 49.14 20.439 71.29 34.035l1.66 1.017c21.51 13.205 42.35 25.998 64.51 31.067 25.29 5.781 51.39 3.262 77.17.294l4.98-.578c24.13-2.808 47.9-5.574 70.64-2.015 20.98 3.284 41.52 12.563 62.77 22.164 2.3 1.037 4.61 2.078 6.92 3.116 23.67 10.614 48.31 20.843 75.21 22.682 5.07.346 10.12-1.424 15.03-4.147 4.92-2.723 9.82-6.459 14.59-10.161l1.01-.79c4.44-3.45 8.76-6.809 12.96-9.336 4.54-2.724 8.81-4.391 12.81-4.231 4.66.187 9.26 2.231 13.86 5.307 4.59 3.074 9.09 7.115 13.55 11.194l.91.84c4.13 3.778 8.23 7.534 12.28 10.414 4.34 3.086 8.77 5.272 13.24 5.325 10.7.126 24.7-4.753 37.76-9.594 1.28-.473 2.54-.945 3.8-1.414 5.21-1.944 10.22-3.814 14.79-5.302 5.29-1.718 9.88-2.89 13.45-3.1 1.58 7.617.54 13.584-1.91 18.75-2.55 5.392-6.66 9.961-11.11 14.665-.43.461-.87.922-1.31 1.385-8.51 8.944-17.69 18.593-17.69 35.049 0 17.252 8.3 25.931 16.35 34.364l.03.032c8.04 8.41 15.83 16.586 15.83 33.017 0 8.511 1.09 15.893 2.17 22.177.19 1.109.38 2.18.56 3.214.86 4.872 1.58 8.927 1.58 12.319.01 4.036-.99 6.892-3.83 8.933-2.96 2.119-8.05 3.475-16.57 3.963-555.77 31.754-586.82 31.748-1084.84 31.648-29.44-.006-60.53-.012-93.45-.012-294.79 0-442.18-7.917-589.58-15.834l-.01-.001c-147.419-7.918-294.849-15.838-589.695-15.838-259.435 0-405.068 11.96-536.93 22.788-18.009 1.479-35.76 2.936-53.51 4.34-147.681 11.676-295.259 19.587-589.637 4.524-3.732-.19-6.076-1.028-7.463-2.238-1.343-1.172-1.937-2.826-1.868-5.048.071-2.253.827-4.999 2.103-8.169 1.272-3.158 3.028-6.664 5.04-10.423a564.722 564.722 0 013.994-7.286c3.054-5.508 6.288-11.342 9.033-17.155 3.996-8.46 7.052-17.06 7.052-24.833 0-7.687-1.554-13.328-4.041-17.917-2.477-4.572-5.85-8.04-9.366-11.4-.528-.504-1.059-1.006-1.592-1.51-6.574-6.216-13.425-12.693-16.767-25.947-4.197-16.65-6.333-26.501-6.342-35.778-.008-9.164 2.059-17.826 6.417-31.999 5.212-2.284 12.034-3.596 19.928-4.43 7.415-.784 15.693-1.138 24.358-1.509l2.377-.103c18.995-.822 39.614-1.909 56.345-7.963l-.34-.94.34.94c6.499-2.352 12.517-6.623 18.348-11.772 4.854-4.286 9.628-9.226 14.463-14.23.968-1.002 1.939-2.007 2.914-3.01 11.739-12.077 24.026-23.847 39.361-28.035 6.559-1.791 13.738-1.689 21.356-.577 7.621 1.112 15.609 3.222 23.788 5.401l.569.152c16.106 4.291 32.963 8.782 48.524 5.875 6.776-1.267 13.233-4.436 19.489-8.453 5.724-3.675 11.333-8.098 16.891-12.48l1.54-1.213c6.082-4.787 12.113-9.442 18.268-13.037 6.151-3.593 12.366-6.091 18.8-6.612z" stroke="url(#paint1_linear)" stroke-width="2"/>
    <path opacity=".04" d="M-681.664 391.413c21.647-9.863 70.366-2.233 103.49-14.218 25.313-9.16 43.894-48.533 75.162-57.072 26.975-7.367 63.361 16.616 94.317 10.833 26.392-4.932 48.539-39.661 75.092-41.809 26.633-2.166 54.671 28.506 81.426 28.506 26.666 0 54.291-30.757 81.038-29.256 58.645 3.294 115.159 39.458 174.22 45.358 58.794 5.876 121.562-18.386 179.94-9.932 58.817 8.517 111.765 49.546 169.315 60.675 38.921 7.526 83.601-16.647 122.957-10.822 39.356 5.824 75.336 41.909 114.963 44.639 39.626 2.731 79.803-28.052 119.594-29.816 40.937-1.812 85.318 24.502 125.666 17.084 40.212-7.392 72.669-47.899 112.086-59.041 39.517-11.174 88.298 6.407 126.788-6.712 45.51-15.519 78.5-62.978 122.79-80.949 44.42-18.016 100.31-6.594 145.5-22.561 44.91-15.865 82.09-60.029 129.73-69.407 32.57-6.414 70.07 20.242 103.16 17.369 33.09-2.873 65.24-35.597 98.45-34.919 33.21.678 63.95 34.669 96.89 38.913 55.8 7.19 117.17-12.986 172.5-.108 54.93 12.799 101.61 58.199 156.1 73.133 54.8 15.019 117.68-.361 172.06 13.302 52.67 13.23 92.36 55.805 137.44 66.114 50.18 11.475 103.78-9.97 152.71-2.312 46.84 7.329 91.42 44.301 144.82 47.953 19.17 1.308 39.19-29.355 56.37-28.667 19.7.791 37.15 32.882 53.81 33.079 20.96.247 55.25-19.185 70.59-19.441 7.51 32.886-31.82 37.177-31.82 70.88 0 33.703 32.21 33.707 32.21 67.413 0 33.706 17.18 49.647-17.04 51.604-588.65 33.634-588.7 31.638-1178.34 31.638-589.64 0-589.64-31.673-1179.285-31.673-589.642 0-591.278 61.781-1180.128 31.651-30.64-1.565 16.942-45.983 16.942-76.151s-24.35-27.238-31.735-56.529c-8.387-33.266-8.681-39.876.222-68.749z" fill="url(#paint2_linear)"/>
    <path opacity=".08" d="M-579.81 375.731c21.648-9.863 70.367-2.233 103.49-14.218 25.313-9.16 43.894-48.532 75.163-57.071 26.974-7.368 63.361 16.615 94.317 10.832 26.391-4.932 48.538-39.661 75.091-41.808 26.633-2.167 54.671 28.505 81.427 28.505 26.666 0 54.29-30.757 81.037-29.256 58.646 3.294 115.16 39.458 174.22 45.358 58.794 5.876 121.562-18.386 179.941-9.932 58.816 8.517 111.764 49.546 169.315 60.675 38.921 7.526 83.601-16.647 122.957-10.822 39.356 5.825 75.336 41.909 114.962 44.64 39.627 2.73 79.804-28.053 119.594-29.817 40.938-1.812 85.318 24.502 125.666 17.084 40.213-7.392 72.67-47.899 112.09-59.041 39.51-11.174 88.3 6.407 126.79-6.712 45.5-15.519 78.49-62.978 122.79-80.949 44.41-18.016 100.31-6.594 145.5-22.561 44.9-15.864 82.08-60.029 129.72-69.407 32.57-6.414 70.08 20.242 103.16 17.369 33.09-2.873 65.25-35.597 98.45-34.919 33.21.678 63.96 34.669 96.89 38.913 55.81 7.19 117.18-12.986 172.5-.108 54.94 12.799 101.61 58.199 156.1 73.133 54.8 15.019 117.69-.361 172.06 13.302 52.68 13.23 92.36 55.805 137.44 66.114 50.19 11.475 103.78-9.97 152.72-2.312 46.83 7.329 91.41 44.301 144.82 47.953 19.17 1.308 39.19-29.355 56.36-28.667 19.7.791 37.15 32.882 53.82 33.079 20.96.247 55.24-19.185 70.58-19.441 7.52 32.886-31.81 37.177-31.81 70.88 0 33.704 32.21 33.707 32.21 67.413 0 33.706 17.18 49.647-17.04 51.604-588.66 33.634-588.7 31.638-1178.34 31.638-589.64 0-589.65-31.672-1179.29-31.672-589.642 0-591.279 61.78-1180.128 31.65-30.641-1.564 16.941-45.982 16.941-76.151 0-30.168-24.349-27.238-31.735-56.529-8.387-33.266-8.68-39.876.222-68.749z" fill="url(#paint3_linear)"/>
    <path opacity=".5" d="M-231.668 274.462h0c6.456-.525 13.045.937 19.761 3.479 6.721 2.544 13.502 6.143 20.35 9.845l1.4.757c6.367 3.447 12.79 6.923 19.184 9.592 6.868 2.867 13.776 4.836 20.651 4.836 6.854 0 13.721-1.975 20.54-4.861 6.471-2.739 12.962-6.327 19.402-9.885l1.03-.57c6.798-3.755 13.538-7.427 20.237-10.072 6.695-2.644 13.284-4.234 19.772-3.87 29.158 1.638 57.817 11.45 86.677 21.647l3.327 1.176c27.717 9.804 55.64 19.682 84.173 22.533 28.319 2.829 57.538-1.3 86.604-5.407l3.761-.531c30.357-4.277 60.505-8.204 89.532-4 29.245 4.234 57.061 16.557 84.859 29.277 1.331.609 2.663 1.219 3.994 1.83 26.42 12.108 52.885 24.236 80.415 29.56 19.692 3.808 40.793-.41 61.71-4.776l1.622-.339c20.455-4.275 40.704-8.507 59.668-5.7 18.554 2.746 36.378 12.296 54.388 21.945l2.667 1.428c18.838 10.075 37.925 19.893 57.986 21.275 20.063 1.382 40.212-5.72 60.158-13.285 1.414-.537 2.826-1.075 4.238-1.613 18.59-7.087 37.003-14.106 55.311-14.917 18.447-.817 37.616 4.13 56.973 9.126 1.928.497 3.858.995 5.789 1.488 21.237 5.42 42.622 10.208 63.04 6.455 20.348-3.741 38.684-15.848 56.728-28.275l3.168-2.185c17.033-11.76 33.903-23.408 52.283-28.603l-.27-.962.27.962c18.95-5.359 40.09-4.044 61.39-2.718l2.05.127c21.92 1.357 43.94 2.498 63.4-4.136 22.95-7.828 42.71-23.696 62.16-39.73.82-.671 1.63-1.342 2.44-2.013 18.68-15.411 37.18-30.682 58.24-39.226 22.03-8.936 46.94-10.583 72.14-11.977l2.78-.153c24.22-1.33 48.62-2.67 70.54-10.415 20.1-7.101 38.66-19.831 57.15-32.52 2.31-1.582 4.61-3.163 6.92-4.732 20.87-14.201 41.92-27.472 65.52-32.117 15.99-3.15 33.26 1.813 50.89 7.33l3.05.956c16.53 5.198 33.3 10.471 49.11 9.098 15.82-1.373 31.4-9.466 46.75-17.442.93-.486 1.87-.973 2.8-1.457 16.37-8.476 32.48-16.349 48.79-16.016 16.31.332 32.08 8.852 48.07 17.987.92.526 1.85 1.055 2.77 1.583 14.99 8.591 30.2 17.306 45.94 19.335 25.37 3.268 51.87.908 78.3-1.446 2.79-.248 5.57-.496 8.35-.737 29.24-2.536 58.27-4.341 85.76 2.057 27.29 6.36 52.57 20.828 77.93 35.655l2.56 1.495c24.47 14.315 49.09 28.717 75.57 35.973 27.55 7.553 57.11 7.455 86.46 7.195l1.96-.017c28.74-.258 57.22-.513 83.66 6.13 26.17 6.572 49.13 20.439 71.29 34.035l1.66 1.017c21.51 13.205 42.35 25.998 64.51 31.067 25.28 5.781 51.39 3.262 77.16.294l4.99-.578c24.12-2.808 47.89-5.574 70.63-2.015 20.99 3.284 41.53 12.563 62.78 22.164 2.3 1.037 4.6 2.078 6.91 3.116 23.68 10.615 48.32 20.843 75.22 22.682 5.07.346 10.11-1.424 15.03-4.146 4.92-2.724 9.81-6.46 14.58-10.162l1.02-.79c4.43-3.45 8.75-6.809 12.96-9.336 4.54-2.724 8.8-4.391 12.8-4.231 4.66.187 9.27 2.231 13.86 5.307 4.6 3.074 9.09 7.115 13.55 11.194l.92.84c4.13 3.778 8.23 7.534 12.28 10.414 4.34 3.086 8.76 5.272 13.24 5.325 10.7.126 24.69-4.753 37.75-9.594 1.28-.473 2.55-.945 3.8-1.414 5.21-1.944 10.23-3.814 14.8-5.302 5.28-1.717 9.88-2.89 13.44-3.1 1.59 7.617.55 13.584-1.9 18.75-2.56 5.393-6.66 9.961-11.11 14.665l-1.32 1.385c-8.5 8.944-17.68 18.593-17.68 35.049 0 17.252 8.29 25.931 16.35 34.365l.03.031c8.04 8.41 15.83 16.586 15.83 33.017 0 8.511 1.08 15.893 2.16 22.177.19 1.109.38 2.18.56 3.214.86 4.872 1.58 8.927 1.59 12.319.01 4.036-.99 6.892-3.84 8.933-2.95 2.119-8.04 3.475-16.57 3.963-555.76 31.754-586.82 31.748-1084.83 31.648-29.45-.005-60.53-.012-93.45-.012-294.8 0-442.19-7.917-589.59-15.834v-.001c-147.42-7.918-294.855-15.837-589.7-15.837-259.436 0-405.068 11.959-536.931 22.787-18.008 1.479-35.76 2.937-53.51 4.34-147.681 11.676-295.259 19.587-589.636 4.524-3.733-.19-6.076-1.028-7.463-2.238-1.343-1.172-1.938-2.826-1.868-5.048.071-2.253.827-4.999 2.103-8.169 1.271-3.158 3.028-6.664 5.039-10.423 1.252-2.34 2.605-4.779 3.994-7.286 3.054-5.508 6.288-11.342 9.034-17.155 3.995-8.46 7.051-17.06 7.051-24.833 0-7.687-1.553-13.328-4.04-17.917-2.478-4.572-5.851-8.039-9.367-11.4-.527-.504-1.059-1.006-1.592-1.51-6.574-6.216-13.424-12.693-16.766-25.947-4.198-16.65-6.334-26.501-6.342-35.778-.009-9.164 2.059-17.826 6.417-31.998 5.211-2.285 12.033-3.597 19.927-4.431 7.416-.783 15.693-1.138 24.359-1.509l2.376-.102c18.996-.823 39.615-1.91 56.346-7.964l-.341-.94.341.94c6.499-2.352 12.516-6.623 18.347-11.772 4.855-4.286 9.629-9.226 14.463-14.23.969-1.002 1.94-2.007 2.914-3.01 11.739-12.077 24.026-23.847 39.361-28.035 6.559-1.791 13.738-1.689 21.356-.577 7.621 1.112 15.609 3.222 23.789 5.401l.569.152c16.106 4.291 32.963 8.782 48.523 5.875 6.777-1.267 13.234-4.436 19.49-8.453 5.724-3.675 11.333-8.098 16.891-12.48l1.539-1.213c6.082-4.787 12.114-9.442 18.269-13.037 6.151-3.593 12.366-6.091 18.8-6.612z" stroke="url(#paint4_linear)" stroke-width="2"/>
  </g>
  <defs>
    <linearGradient id="paint0_linear" x1=".905" y1="1.536" x2="460.129" y2="808.909" gradientUnits="userSpaceOnUse">
      <stop stop-color="#FBD460"/>
      <stop offset="1" stop-color="#AC346D"/>
    </linearGradient>
    <linearGradient id="paint1_linear" x1="1923.5" y1="227.54" x2="1815.64" y2="-103.256" gradientUnits="userSpaceOnUse">
      <stop stop-color="#fff" stop-opacity="0"/>
      <stop offset="1" stop-color="#fff"/>
    </linearGradient>
    <linearGradient id="paint2_linear" x1="-688.259" y1="149.352" x2="-507.216" y2="1185.33" gradientUnits="userSpaceOnUse">
      <stop stop-color="#fff"/>
      <stop offset="1" stop-color="#fff" stop-opacity="0"/>
    </linearGradient>
    <linearGradient id="paint3_linear" x1="1122.73" y1="268.622" x2="1110.09" y2="431.491" gradientUnits="userSpaceOnUse">
      <stop stop-color="#fff" stop-opacity=".23"/>
      <stop offset="1" stop-color="#fff"/>
    </linearGradient>
    <linearGradient id="paint4_linear" x1="1981.45" y1="359.556" x2="1857.65" y2="-44.219" gradientUnits="userSpaceOnUse">
      <stop stop-color="#fff"/>
      <stop offset="1" stop-color="#fff" stop-opacity="0"/>
    </linearGradient>
  </defs>
</svg>
