<svg width="239" height="136" viewBox="0 0 239 136" fill="none" xmlns="http://www.w3.org/2000/svg">
<path fill-rule="evenodd" clip-rule="evenodd" d="M5.3013 0C2.59387 0 0.393555 2.20157 0.393555 4.91238V115.088C0.393555 117.8 2.59018 120 5.3013 120H197.699C200.406 120 202.606 117.798 202.606 115.088V4.91238C202.606 2.19964 200.41 0 197.699 0H5.3013ZM2.43611 4.94915C2.43611 3.3449 3.73892 2.0428 5.34573 2.0428H197.654C199.262 2.0428 200.564 3.34342 200.564 4.94915V19.4089H73.4148V11.0839C73.4148 8.3511 71.1956 6.1322 68.4611 6.1322H17.0919C14.3539 6.1322 12.1382 8.34753 12.1382 11.0839V19.4089H2.43611V4.94915ZM14.1808 11.0839C14.1808 9.47629 15.4813 8.175 17.0919 8.175H68.4611C70.0681 8.175 71.3723 9.47986 71.3723 11.0839V20.9441C71.3723 21.2262 71.6009 21.4548 71.8829 21.4548H72.3936C72.414 21.4548 72.433 21.4536 72.4501 21.4517H200.564V24.2612H2.43611V21.4517H13.1029C13.12 21.4536 13.139 21.4548 13.1595 21.4548H13.6702C13.9522 21.4548 14.1808 21.2262 14.1808 20.9441V11.0839ZM13.0016 21.4306C12.9979 21.4295 12.9968 21.4291 12.9984 21.4296L13.0016 21.4306ZM2.43611 115.088V26.3039H200.564V115.088C200.564 116.671 199.277 117.957 197.699 117.957H5.3013C3.71955 117.957 2.43611 116.674 2.43611 115.088Z" fill="url(#paint0_linear_158_16991)"/>
<rect x="26.9468" y="34.7234" width="77.617" height="6.12766" rx="3.06383" fill="#E6E8F5"/>
<rect x="26.9468" y="48" width="88.3404" height="6.12766" rx="3.06383" fill="#E6E8F5"/>
<rect x="140.819" y="34.7234" width="33.1915" height="6.12766" rx="3.06383" fill="#E6E8F5"/>
<rect x="140.819" y="61.2766" width="33.1915" height="50.5532" rx="6" fill="#E6E8F5"/>
<rect x="140.819" y="48" width="33.1915" height="6.12766" rx="3.06383" fill="#E6E8F5"/>
<rect x="26.9468" y="87.8298" width="85.2766" height="6.12766" rx="3.06383" fill="#E6E8F5"/>
<rect x="26.9468" y="61.2766" width="98.5532" height="6.12766" rx="3.06383" fill="#E6E8F5"/>
<rect x="26.9468" y="101.106" width="98.5532" height="6.12766" rx="3.06383" fill="#E6E8F5"/>
<rect x="26.9468" y="74.5532" width="69.9575" height="6.12766" rx="3.06383" fill="#E6E8F5"/>
<g filter="url(#filter0_d_158_16991)">
<path fill-rule="evenodd" clip-rule="evenodd" d="M176.702 19.5115L179.623 16.3403L182.544 19.5115H213.433C215.914 19.5115 217.926 21.33 217.926 23.5765V100.616C217.926 102.861 215.913 104.681 213.433 104.681H145.313C142.831 104.681 140.819 102.862 140.819 100.616V23.5765C140.819 21.3313 142.833 19.5115 145.313 19.5115H176.702Z" fill="url(#paint1_linear_158_16991)"/>
</g>
<rect x="156.139" y="76.5957" width="46.9787" height="18.383" rx="9.19149" fill="white"/>
<path fill-rule="evenodd" clip-rule="evenodd" d="M187.692 85.2617C187.528 85.4358 187.446 85.6727 187.446 85.973C187.446 86.2686 187.528 86.5046 187.692 86.6807C187.857 86.8569 188.068 86.9452 188.325 86.9452C188.587 86.9452 188.798 86.8594 188.958 86.6879C189.117 86.5163 189.197 86.2778 189.197 85.973C189.197 85.6681 189.117 85.4297 188.958 85.2581C188.798 85.0865 188.587 85.0007 188.325 85.0007C188.068 85.0007 187.857 85.0875 187.692 85.2617ZM189.601 84.175C189.861 84.3389 190.066 84.5754 190.216 84.8828C190.366 85.1897 190.441 85.5532 190.441 85.973C190.441 86.3876 190.366 86.7497 190.216 87.0596C190.066 87.3696 189.861 87.6065 189.601 87.7709C189.341 87.9349 189.047 88.0171 188.718 88.0171C188.413 88.0171 188.151 87.9486 187.932 87.8103C187.713 87.6724 187.553 87.484 187.453 87.2455V89.8686H186.23V83.9784H187.453V84.7C187.553 84.4625 187.713 84.2736 187.932 84.1357C188.151 83.9973 188.413 83.9284 188.718 83.9284C189.047 83.9284 189.341 84.0106 189.601 84.175ZM183.878 87.9675H185.101V83.9784H183.878V87.9675ZM183.964 82.3949C184.097 82.2729 184.274 82.2126 184.493 82.2126C184.712 82.2126 184.889 82.2729 185.022 82.3949C185.155 82.5165 185.222 82.6702 185.222 82.856C185.222 83.0373 185.155 83.188 185.022 83.31C184.889 83.4315 184.712 83.4923 184.493 83.4923C184.274 83.4923 184.097 83.4315 183.964 83.31C183.831 83.188 183.764 83.0373 183.764 82.856C183.764 82.6702 183.831 82.5165 183.964 82.3949ZM183.078 82.9127V83.8855H181.705V87.9675H180.475V83.8855H179.118V82.9127H183.078Z" fill="#4F30AB"/>
<path d="M171.542 81.2083V84.388L173.445 87.6862L176.206 89.2898C176.23 89.2464 176.227 89.1864 176.189 89.1206L173.935 85.214L171.68 81.3072C171.642 81.2412 171.592 81.2083 171.542 81.2083Z" fill="#9E1F63"/>
<path d="M166.878 89.2898L169.639 87.6862L171.542 84.388V81.2083C171.492 81.2083 171.441 81.2412 171.403 81.3072L169.149 85.214L166.895 89.1206C166.857 89.1865 166.853 89.2464 166.878 89.2898Z" fill="#FF4724"/>
<path d="M176.205 89.2899L173.445 87.6863H169.639L166.878 89.2899C166.903 89.3335 166.957 89.3606 167.033 89.3606H176.051C176.127 89.3606 176.18 89.3335 176.205 89.2899Z" fill="#662D91"/>
<path d="M169.639 87.6863H173.445L171.542 84.3882L169.639 87.6863Z" fill="white"/>
<path fill-rule="evenodd" clip-rule="evenodd" d="M198.621 66.4293C198.454 66.6028 198.371 66.8411 198.371 67.1438C198.371 67.4466 198.454 67.6838 198.621 67.8551C198.787 68.0268 199.008 68.1126 199.283 68.1126C199.549 68.1126 199.769 68.0246 199.941 67.849C200.114 67.6734 200.201 67.4384 200.201 67.1438C200.201 66.845 200.114 66.6078 199.941 66.4322C199.769 66.2566 199.549 66.1689 199.283 66.1689C199.008 66.1689 198.787 66.2559 198.621 66.4293ZM199.757 65.624C199.966 65.7572 200.113 65.9367 200.201 66.1629V65.4666H201.075V68.8331C201.075 69.1441 201.011 69.4233 200.884 69.6719C200.757 69.9198 200.568 70.1147 200.316 70.2561C200.064 70.3975 199.759 70.468 199.401 70.468C198.902 70.468 198.498 70.3529 198.19 70.1229C197.882 69.8928 197.695 69.5797 197.628 69.1843H198.496C198.546 69.3539 198.643 69.486 198.786 69.5808C198.93 69.6755 199.114 69.7232 199.339 69.7232C199.597 69.7232 199.805 69.6495 199.963 69.502C200.121 69.3546 200.201 69.1316 200.201 68.8331V68.1187C200.113 68.3448 199.966 68.5254 199.757 68.6604C199.549 68.7957 199.299 68.8634 199.008 68.8634C198.716 68.8634 198.454 68.7947 198.221 68.6575C197.988 68.5204 197.806 68.3213 197.675 68.0613C197.544 67.8009 197.478 67.495 197.478 67.1438C197.478 66.7926 197.544 66.4867 197.675 66.2263C197.806 65.9659 197.988 65.7672 198.221 65.63C198.454 65.4929 198.716 65.4242 199.008 65.4242C199.299 65.4242 199.549 65.4908 199.757 65.624ZM196.454 65.6026C196.667 65.4797 196.904 65.4181 197.166 65.4181V66.3324H196.91C196.265 66.3324 195.942 66.6231 195.942 67.2043V68.821H195.062V65.4666H195.942V66.1084C196.071 65.8943 196.242 65.7259 196.454 65.6026ZM192.041 66.4143C191.87 66.5818 191.784 66.825 191.784 67.1438C191.784 67.4626 191.87 67.7058 192.041 67.8732C192.211 68.041 192.419 68.1247 192.665 68.1247C192.91 68.1247 193.119 68.041 193.289 67.8732C193.46 67.7058 193.545 67.4626 193.545 67.1438C193.545 66.825 193.46 66.5818 193.289 66.4143C193.119 66.2466 192.91 66.1629 192.665 66.1629C192.419 66.1629 192.211 66.2466 192.041 66.4143ZM193.573 65.63C193.842 65.7672 194.053 65.9659 194.207 66.2263C194.361 66.4867 194.438 66.7926 194.438 67.1438C194.438 67.495 194.361 67.7999 194.207 68.0581C194.053 68.3163 193.842 68.5151 193.573 68.6547C193.305 68.7936 193.002 68.8634 192.665 68.8634C192.327 68.8634 192.025 68.7936 191.756 68.6547C191.488 68.5151 191.276 68.3163 191.122 68.0581C190.969 67.7999 190.891 67.495 190.891 67.1438C190.891 66.7926 190.969 66.4867 191.122 66.2263C191.276 65.9659 191.488 65.7672 191.756 65.63C192.025 65.4929 192.327 65.4242 192.665 65.4242C193.002 65.4242 193.305 65.4929 193.573 65.63ZM189.531 68.821H190.48V67.9309H189.531V68.821ZM186.496 66.4293C186.33 66.6028 186.247 66.8411 186.247 67.1438C186.247 67.4466 186.33 67.6838 186.496 67.8551C186.663 68.0268 186.884 68.1126 187.158 68.1126C187.424 68.1126 187.644 68.0246 187.817 67.849C187.989 67.6734 188.076 67.4384 188.076 67.1438C188.076 66.845 187.989 66.6078 187.817 66.4322C187.644 66.2566 187.424 66.1689 187.158 66.1689C186.884 66.1689 186.663 66.2559 186.496 66.4293ZM187.633 65.624C187.841 65.7572 187.989 65.9367 188.076 66.1629V65.4666H188.95V68.8331C188.95 69.1441 188.887 69.4233 188.759 69.6719C188.632 69.9198 188.443 70.1147 188.191 70.2561C187.94 70.3975 187.635 70.468 187.277 70.468C186.777 70.468 186.373 70.3529 186.065 70.1229C185.757 69.8928 185.57 69.5797 185.504 69.1843H186.371C186.421 69.3539 186.518 69.486 186.662 69.5808C186.805 69.6755 186.99 69.7232 187.214 69.7232C187.472 69.7232 187.68 69.6495 187.839 69.502C187.997 69.3546 188.076 69.1316 188.076 68.8331V68.1187C187.989 68.3448 187.841 68.5254 187.633 68.6604C187.424 68.7957 187.175 68.8634 186.883 68.8634C186.592 68.8634 186.33 68.7947 186.096 68.6575C185.864 68.5204 185.681 68.3213 185.55 68.0613C185.419 67.8009 185.353 67.495 185.353 67.1438C185.353 66.7926 185.419 66.4867 185.55 66.2263C185.681 65.9659 185.864 65.7672 186.096 65.63C186.33 65.4929 186.592 65.4242 186.883 65.4242C187.175 65.4242 187.424 65.4908 187.633 65.624ZM182.507 66.4143C182.336 66.5818 182.251 66.825 182.251 67.1438C182.251 67.4626 182.336 67.7058 182.507 67.8732C182.677 68.041 182.885 68.1247 183.131 68.1247C183.376 68.1247 183.585 68.041 183.755 67.8732C183.926 67.7058 184.011 67.4626 184.011 67.1438C184.011 66.825 183.926 66.5818 183.755 66.4143C183.585 66.2466 183.376 66.1629 183.131 66.1629C182.885 66.1629 182.677 66.2466 182.507 66.4143ZM184.039 65.63C184.308 65.7672 184.519 65.9659 184.673 66.2263C184.827 66.4867 184.904 66.7926 184.904 67.1438C184.904 67.495 184.827 67.7999 184.673 68.0581C184.519 68.3163 184.308 68.5151 184.039 68.6547C183.771 68.7936 183.468 68.8634 183.131 68.8634C182.794 68.8634 182.491 68.7936 182.223 68.6547C181.954 68.5151 181.743 68.3163 181.589 68.0581C181.435 67.7999 181.358 67.495 181.358 67.1438C181.358 66.7926 181.435 66.4867 181.589 66.2263C181.743 65.9659 181.954 65.7672 182.223 65.63C182.491 65.4929 182.794 65.4242 183.131 65.4242C183.468 65.4242 183.771 65.4929 184.039 65.63ZM179.853 68.821H180.734V64.3403H179.853V68.821ZM178.149 67.9762C178.274 67.8775 178.336 67.7333 178.336 67.5434C178.336 67.3536 178.273 67.2076 178.146 67.1046C178.019 67.0013 177.839 66.95 177.606 66.95H176.775V68.1247H177.612C177.845 68.1247 178.024 68.0752 178.149 67.9762ZM176.775 66.3385H177.568C177.789 66.3385 177.956 66.2911 178.071 66.196C178.185 66.1013 178.242 65.9652 178.242 65.7875C178.242 65.6097 178.186 65.4726 178.074 65.3757C177.962 65.2789 177.789 65.2304 177.556 65.2304H176.775V66.3385ZM178.995 66.9832C179.155 67.1751 179.235 67.4002 179.235 67.6585C179.235 68.0175 179.111 68.3014 178.864 68.509C178.616 68.717 178.257 68.821 177.787 68.821H175.895V64.5462H177.749C178.195 64.5462 178.537 64.6409 178.776 64.8308C179.016 65.0206 179.135 65.2867 179.135 65.63C179.135 65.8965 179.064 66.1144 178.92 66.284C178.776 66.4535 178.588 66.5647 178.355 66.617C178.621 66.6694 178.834 66.7915 178.995 66.9832ZM174.163 66.3082C174.002 66.1668 173.806 66.0963 173.572 66.0963C173.335 66.0963 173.135 66.1668 172.973 66.3082C172.811 66.4496 172.721 66.6573 172.705 66.9319H174.384C174.397 66.6573 174.323 66.4496 174.163 66.3082ZM175.239 67.3073H172.705C172.717 67.6061 172.8 67.8259 172.955 67.9673C173.108 68.1087 173.3 68.1792 173.529 68.1792C173.733 68.1792 173.902 68.1308 174.038 68.0339C174.173 67.937 174.259 67.8059 174.297 67.6403H175.227C175.181 67.8743 175.084 68.0841 174.933 68.27C174.784 68.4556 174.591 68.6009 174.356 68.706C174.121 68.8111 173.86 68.8634 173.572 68.8634C173.235 68.8634 172.935 68.7936 172.674 68.6547C172.411 68.5151 172.207 68.3163 172.062 68.0581C171.916 67.7999 171.843 67.495 171.843 67.1438C171.843 66.7926 171.916 66.4867 172.062 66.2263C172.207 65.9659 172.411 65.7672 172.674 65.63C172.935 65.4929 173.235 65.4242 173.572 65.4242C173.914 65.4242 174.212 65.4929 174.468 65.63C174.724 65.7672 174.922 65.956 175.062 66.196C175.201 66.4364 175.271 66.71 175.271 67.0166C175.271 67.1014 175.26 67.1983 175.239 67.3073ZM170.878 65.7964C171.122 66.0489 171.244 66.4072 171.244 66.8713V68.821H170.37V66.9682C170.37 66.71 170.302 66.5109 170.167 66.3716C170.031 66.2323 169.845 66.1629 169.608 66.1629C169.362 66.1629 169.167 66.2377 169.021 66.3869C168.875 66.5362 168.803 66.7541 168.803 67.0409V68.821H167.929V66.9682C167.929 66.71 167.861 66.5109 167.725 66.3716C167.59 66.2323 167.404 66.1629 167.167 66.1629C166.921 66.1629 166.725 66.2377 166.58 66.3869C166.434 66.5362 166.361 66.7541 166.361 67.0409V68.821H165.481V65.4666H166.361V66.1023C166.453 65.8844 166.598 65.7159 166.795 65.5966C166.993 65.4776 167.223 65.4181 167.485 65.4181C167.764 65.4181 168.006 65.4826 168.212 65.6119C168.418 65.7412 168.574 65.9267 168.678 66.1689C168.786 65.9389 168.947 65.7561 169.161 65.6208C169.376 65.4858 169.616 65.4181 169.883 65.4181C170.303 65.4181 170.635 65.5442 170.878 65.7964ZM162.459 66.4143C162.288 66.5818 162.203 66.825 162.203 67.1438C162.203 67.4626 162.288 67.7058 162.459 67.8732C162.63 68.041 162.838 68.1247 163.084 68.1247C163.329 68.1247 163.537 68.041 163.708 67.8732C163.878 67.7058 163.964 67.4626 163.964 67.1438C163.964 66.825 163.878 66.5818 163.708 66.4143C163.537 66.2466 163.329 66.1629 163.084 66.1629C162.838 66.1629 162.63 66.2466 162.459 66.4143ZM163.992 65.63C164.26 65.7672 164.472 65.9659 164.626 66.2263C164.78 66.4867 164.857 66.7926 164.857 67.1438C164.857 67.495 164.78 67.7999 164.626 68.0581C164.472 68.3163 164.26 68.5151 163.992 68.6547C163.723 68.7936 163.421 68.8634 163.084 68.8634C162.746 68.8634 162.443 68.7936 162.175 68.6547C161.906 68.5151 161.695 68.3163 161.541 68.0581C161.388 67.7999 161.31 67.495 161.31 67.1438C161.31 66.7926 161.388 66.4867 161.541 66.2263C161.695 65.9659 161.906 65.7672 162.175 65.63C162.443 65.4929 162.746 65.4242 163.084 65.4242C163.421 65.4242 163.723 65.4929 163.992 65.63ZM160.667 68.2547C160.555 68.4385 160.389 68.586 160.168 68.6967C159.947 68.8079 159.679 68.8634 159.362 68.8634C159.05 68.8634 158.771 68.8118 158.526 68.7088C158.28 68.6059 158.084 68.4577 157.936 68.264C157.788 68.0702 157.704 67.844 157.683 67.5858H158.619C158.64 67.7593 158.712 67.9035 158.835 68.0186C158.958 68.1336 159.121 68.1913 159.325 68.1913C159.508 68.1913 159.649 68.1439 159.747 68.0488C159.844 67.9541 159.893 67.8319 159.893 67.6827C159.893 67.5495 159.853 67.4394 159.774 67.3525C159.696 67.266 159.596 67.1962 159.475 67.1438C159.354 67.0914 159.188 67.0305 158.975 66.9621C158.701 66.8735 158.476 66.7855 158.301 66.6986C158.126 66.612 157.977 66.4859 157.854 66.3203C157.732 66.1547 157.67 65.9389 157.67 65.6724C157.67 65.3052 157.807 65.0153 158.08 64.8037C158.352 64.5914 158.713 64.4857 159.163 64.4857C159.629 64.4857 160 64.5946 160.277 64.8126C160.554 65.0306 160.711 65.3212 160.748 65.6845H159.799C159.774 65.531 159.708 65.4049 159.6 65.3059C159.492 65.2073 159.344 65.1578 159.156 65.1578C158.994 65.1578 158.863 65.1991 158.763 65.2817C158.663 65.3647 158.613 65.4847 158.613 65.6422C158.613 65.7672 158.652 65.8712 158.729 65.9542C158.806 66.0368 158.903 66.1045 159.022 66.1568C159.141 66.2092 159.302 66.268 159.506 66.3324C159.789 66.4293 160.019 66.5201 160.196 66.6049C160.373 66.6897 160.524 66.8168 160.649 66.9864C160.773 67.1559 160.836 67.3778 160.836 67.6524C160.836 67.8704 160.78 68.0713 160.667 68.2547Z" fill="#FEFEFE"/>
<path fill-rule="evenodd" clip-rule="evenodd" d="M179.454 56.1099C187.254 56.1099 193.577 49.8586 193.577 42.1473C193.577 34.436 187.254 28.1848 179.454 28.1848C171.653 28.1848 165.33 34.436 165.33 42.1473C165.33 49.8586 171.653 56.1099 179.454 56.1099Z" fill="#D0D2F7"/>
<mask id="mask0_158_16991" style="mask-type:alpha" maskUnits="userSpaceOnUse" x="165" y="28" width="29" height="29">
<path fill-rule="evenodd" clip-rule="evenodd" d="M179.454 56.1099C187.254 56.1099 193.577 49.8586 193.577 42.1473C193.577 34.436 187.254 28.1848 179.454 28.1848C171.653 28.1848 165.33 34.436 165.33 42.1473C165.33 49.8586 171.653 56.1099 179.454 56.1099Z" fill="white"/>
</mask>
<g mask="url(#mask0_158_16991)">
<path d="M179.512 56.5548C183.595 56.5548 187.286 54.883 189.799 52.2666C189.564 47.179 185.087 43.1089 179.512 43.1089C173.936 43.1089 169.46 47.179 169.224 52.2666C171.737 54.883 175.428 56.5548 179.512 56.5548Z" fill="#4C54D2"/>
</g>
<path fill-rule="evenodd" clip-rule="evenodd" d="M190.443 37.1385C189.801 36.0534 188.703 35.8169 187.429 35.2224C187.507 32.2737 186.11 29.4457 183.708 28.003C180.402 26.0169 176.52 27.4439 174.584 29.8334C173.561 31.0971 172.842 32.9293 172.788 34.4061C170.953 35.1025 169.713 36.508 169.598 38.053C169.493 39.4545 170.347 40.5072 170.674 40.864C171.373 41.6268 172.407 42.1994 175.891 42.6935C178.661 43.0861 181.733 43.4949 185.738 42.7406C189.286 42.072 190.026 41.1579 190.282 40.7841C191.003 39.7255 191.089 38.2303 190.443 37.1385Z" fill="#FB542B"/>
<path fill-rule="evenodd" clip-rule="evenodd" d="M180.267 41.6878C177.361 41.6878 175.005 39.3216 175.005 36.403C175.005 36.179 175.023 35.9596 175.05 35.7429C175.619 35.7729 176.401 35.834 177.51 35.9879C178.471 36.1216 180.863 36.4541 181.617 35.6352C181.656 35.593 181.685 35.5494 181.711 35.5046C182.099 34.827 181.736 33.8281 181.435 33.1985C181.733 33.3443 182.224 33.6167 182.74 34.0794C184.164 35.3578 184.251 36.7835 185.319 37.0958C185.37 37.1111 185.423 37.1192 185.475 37.129C185.121 39.7035 182.928 41.6878 180.267 41.6878Z" fill="#4C54D2"/>
<path fill-rule="evenodd" clip-rule="evenodd" d="M197.858 27.156L205.286 31.2519C205.523 31.3825 205.671 31.6326 205.671 31.9042V40.0956C205.671 40.3672 205.523 40.6172 205.286 40.7483L197.858 44.8438C197.635 44.9668 197.365 44.9668 197.142 44.8438L189.715 40.7483C189.477 40.6172 189.33 40.3672 189.33 40.0956V31.9042C189.33 31.6326 189.477 31.3825 189.715 31.2519L197.142 27.156C197.365 27.033 197.635 27.033 197.858 27.156ZM199.901 33.2891L196.708 37.1309L195.055 35.4735C194.764 35.1826 194.294 35.1826 194.005 35.4735C193.714 35.7644 193.714 36.2358 194.005 36.5267L196.233 38.761C196.541 39.0703 197.049 39.0474 197.328 38.7107L201.042 34.2426C201.305 33.927 201.262 33.4574 200.947 33.1939C200.632 32.9304 200.164 32.9731 199.901 33.2891Z" fill="white"/>
<g filter="url(#filter1_d_158_16991)">
<mask id="path-25-outside-1_158_16991" maskUnits="userSpaceOnUse" x="189.351" y="87.8511" width="15" height="18" fill="black">
<rect fill="white" x="189.351" y="87.8511" width="15" height="18"/>
<path fill-rule="evenodd" clip-rule="evenodd" d="M193.744 97.8623L192.96 96.6416C192.424 95.8081 191.284 95.504 190.411 95.9609L190.614 95.8545C190.398 95.9679 190.294 96.2506 190.383 96.4855L191.469 99.3469C191.641 99.8005 192.08 100.442 192.445 100.764C192.445 100.764 194.629 102.606 194.629 103.296V104.17H198.167L199.052 102.368L199.937 104.17H200.821V103.296C200.821 102.606 202.156 100.431 202.156 100.431C202.402 100.008 202.606 99.2638 202.606 98.7694V95.1335C202.59 94.3286 201.919 93.6762 201.09 93.6762C200.675 93.6762 200.339 94.0024 200.339 94.4051V94.6963C200.339 93.8913 199.668 93.2389 198.839 93.2389C198.424 93.2389 198.088 93.5651 198.088 93.9678V94.259C198.088 93.4541 197.416 92.8017 196.588 92.8017C196.173 92.8017 195.837 93.1279 195.837 93.5306V93.8218C195.837 93.6924 195.824 93.5896 195.797 93.5081L195.568 89.7533C195.537 89.2456 195.117 88.8511 194.629 88.8511C194.137 88.8511 193.744 89.2544 193.744 89.752V93.3567V97.8623ZM199.953 96.9612H200.837V100.566H199.953V96.9612ZM198.183 96.9612H199.068V100.566H198.183V96.9612ZM196.414 96.9612H197.299V100.566H196.414V96.9612Z"/>
</mask>
<path fill-rule="evenodd" clip-rule="evenodd" d="M193.744 97.8623L192.96 96.6416C192.424 95.8081 191.284 95.504 190.411 95.9609L190.614 95.8545C190.398 95.9679 190.294 96.2506 190.383 96.4855L191.469 99.3469C191.641 99.8005 192.08 100.442 192.445 100.764C192.445 100.764 194.629 102.606 194.629 103.296V104.17H198.167L199.052 102.368L199.937 104.17H200.821V103.296C200.821 102.606 202.156 100.431 202.156 100.431C202.402 100.008 202.606 99.2638 202.606 98.7694V95.1335C202.59 94.3286 201.919 93.6762 201.09 93.6762C200.675 93.6762 200.339 94.0024 200.339 94.4051V94.6963C200.339 93.8913 199.668 93.2389 198.839 93.2389C198.424 93.2389 198.088 93.5651 198.088 93.9678V94.259C198.088 93.4541 197.416 92.8017 196.588 92.8017C196.173 92.8017 195.837 93.1279 195.837 93.5306V93.8218C195.837 93.6924 195.824 93.5896 195.797 93.5081L195.568 89.7533C195.537 89.2456 195.117 88.8511 194.629 88.8511C194.137 88.8511 193.744 89.2544 193.744 89.752V93.3567V97.8623ZM199.953 96.9612H200.837V100.566H199.953V96.9612ZM198.183 96.9612H199.068V100.566H198.183V96.9612ZM196.414 96.9612H197.299V100.566H196.414V96.9612Z" fill="white"/>
<path d="M193.744 97.8623L192.903 98.4029L194.744 101.269V97.8623H193.744ZM192.96 96.6416L193.801 96.1011H193.801L192.96 96.6416ZM190.383 96.4855L189.448 96.8403L190.383 96.4855ZM191.469 99.3469L192.404 98.9921L191.469 99.3469ZM192.445 100.764L191.782 101.513L191.791 101.521L191.8 101.529L192.445 100.764ZM194.629 104.17H193.629V105.17H194.629V104.17ZM198.167 104.17V105.17H198.79L199.065 104.611L198.167 104.17ZM199.052 102.368L199.95 101.927L199.052 100.098L198.154 101.927L199.052 102.368ZM199.937 104.17L199.039 104.611L199.313 105.17H199.937V104.17ZM200.821 104.17V105.17H201.821V104.17H200.821ZM202.156 100.431L203.008 100.954L203.014 100.944L203.02 100.934L202.156 100.431ZM202.606 95.1335H203.606V95.1236L203.606 95.1137L202.606 95.1335ZM195.797 93.5081L194.799 93.5689L194.807 93.6946L194.845 93.8144L195.797 93.5081ZM195.568 89.7533L194.57 89.8141L195.568 89.7533ZM193.744 89.752H192.744H193.744ZM200.837 96.9612H201.837V95.9612H200.837V96.9612ZM200.837 100.566V101.566H201.837V100.566H200.837ZM199.953 100.566H198.953V101.566H199.953V100.566ZM199.068 96.9612H200.068V95.9612H199.068V96.9612ZM199.068 100.566V101.566H200.068V100.566H199.068ZM198.183 100.566H197.183V101.566H198.183V100.566ZM197.299 96.9612H198.299V95.9612H197.299V96.9612ZM197.299 100.566V101.566H198.299V100.566H197.299ZM196.414 100.566H195.414V101.566H196.414V100.566ZM194.585 97.3218L193.801 96.1011L192.118 97.1822L192.903 98.4029L194.585 97.3218ZM193.801 96.1011C192.988 94.8351 191.282 94.376 189.947 95.0751L190.875 96.8468C191.285 96.632 191.861 96.7811 192.118 97.1822L193.801 96.1011ZM190.875 96.8468L191.078 96.7403L190.15 94.9686L189.947 95.0751L190.875 96.8468ZM190.15 94.9686C189.468 95.3261 189.187 96.1513 189.448 96.8403L191.318 96.1308C191.366 96.2579 191.356 96.3775 191.323 96.4687C191.29 96.5593 191.215 96.6685 191.078 96.7403L190.15 94.9686ZM189.448 96.8403L190.534 99.7016L192.404 98.9921L191.318 96.1308L189.448 96.8403ZM190.534 99.7016C190.762 100.304 191.294 101.081 191.782 101.513L193.107 100.015C192.867 99.8025 192.519 99.2971 192.404 98.9921L190.534 99.7016ZM192.445 100.764C191.8 101.529 191.8 101.529 191.8 101.529C191.8 101.529 191.8 101.529 191.8 101.529C191.8 101.529 191.8 101.529 191.8 101.529C191.8 101.529 191.8 101.529 191.801 101.529C191.801 101.53 191.802 101.531 191.804 101.532C191.807 101.535 191.813 101.54 191.82 101.546C191.834 101.558 191.856 101.577 191.884 101.601C191.94 101.649 192.021 101.72 192.119 101.808C192.315 101.983 192.573 102.222 192.829 102.478C193.089 102.738 193.326 102.997 193.491 103.214C193.574 103.323 193.622 103.4 193.645 103.446C193.678 103.51 193.629 103.445 193.629 103.296H195.629C195.629 102.974 195.511 102.701 195.425 102.533C195.328 102.345 195.206 102.165 195.084 102.005C194.839 101.682 194.53 101.351 194.244 101.065C193.954 100.774 193.666 100.509 193.453 100.318C193.346 100.222 193.256 100.144 193.193 100.089C193.161 100.061 193.136 100.04 193.118 100.025C193.11 100.017 193.103 100.011 193.098 100.007C193.095 100.005 193.093 100.003 193.092 100.002C193.091 100.001 193.091 100.001 193.09 100.001C193.09 100 193.09 100 193.09 100C193.09 100 193.089 99.9999 193.089 99.9999C193.089 99.9998 193.089 99.9997 192.445 100.764ZM193.629 103.296V104.17H195.629V103.296H193.629ZM194.629 105.17H198.167V103.17H194.629V105.17ZM199.065 104.611L199.95 102.809L198.154 101.927L197.27 103.73L199.065 104.611ZM198.154 102.809L199.039 104.611L200.834 103.73L199.95 101.927L198.154 102.809ZM199.937 105.17H200.821V103.17H199.937V105.17ZM201.821 104.17V103.296H199.821V104.17H201.821ZM201.821 103.296C201.821 103.347 201.824 103.251 201.953 102.941C202.061 102.681 202.212 102.375 202.372 102.073C202.531 101.773 202.691 101.492 202.811 101.285C202.871 101.182 202.921 101.098 202.956 101.041C202.973 101.012 202.987 100.99 202.996 100.975C203 100.968 203.003 100.962 203.006 100.959C203.007 100.957 203.007 100.956 203.008 100.955C203.008 100.955 203.008 100.954 203.008 100.954C203.008 100.954 203.008 100.954 203.008 100.954C203.008 100.954 203.008 100.954 203.008 100.954C203.008 100.954 203.008 100.954 202.156 100.431C201.304 99.908 201.304 99.9081 201.304 99.9082C201.304 99.9082 201.303 99.9083 201.303 99.9084C201.303 99.9085 201.303 99.9087 201.303 99.9089C201.303 99.9093 201.303 99.9099 201.302 99.9106C201.301 99.9119 201.3 99.9138 201.299 99.9162C201.296 99.921 201.292 99.9279 201.286 99.9366C201.276 99.9541 201.26 99.9793 201.241 100.011C201.203 100.075 201.148 100.167 201.083 100.278C200.954 100.5 200.78 100.806 200.605 101.137C200.431 101.464 200.248 101.831 200.106 102.173C199.985 102.465 199.821 102.9 199.821 103.296H201.821ZM203.02 100.934C203.201 100.623 203.342 100.243 203.438 99.8899C203.534 99.5369 203.606 99.1343 203.606 98.7694H201.606C201.606 98.8989 201.576 99.1159 201.508 99.3644C201.441 99.6126 201.357 99.8162 201.291 99.9286L203.02 100.934ZM203.606 98.7694V95.1335H201.606V98.7694H203.606ZM203.606 95.1137C203.579 93.7488 202.448 92.6762 201.09 92.6762V94.6762C201.39 94.6762 201.602 94.9084 201.607 95.1534L203.606 95.1137ZM201.09 92.6762C200.151 92.6762 199.339 93.4227 199.339 94.4051H201.339C201.339 94.582 201.2 94.6762 201.09 94.6762V92.6762ZM199.339 94.4051V94.6963H201.339V94.4051H199.339ZM201.339 94.6963C201.339 93.3117 200.192 92.2389 198.839 92.2389V94.2389C199.143 94.2389 199.339 94.471 199.339 94.6963H201.339ZM198.839 92.2389C197.9 92.2389 197.088 92.9855 197.088 93.9678H199.088C199.088 94.1448 198.949 94.2389 198.839 94.2389V92.2389ZM197.088 93.9678V94.259H199.088V93.9678H197.088ZM199.088 94.259C199.088 92.8744 197.941 91.8017 196.588 91.8017V93.8017C196.892 93.8017 197.088 94.0337 197.088 94.259H199.088ZM196.588 91.8017C195.648 91.8017 194.837 92.5482 194.837 93.5306H196.837C196.837 93.7075 196.697 93.8017 196.588 93.8017V91.8017ZM194.837 93.5306V93.8218H196.837V93.5306H194.837ZM196.837 93.8218C196.837 93.63 196.818 93.4152 196.749 93.2018L194.845 93.8144C194.837 93.7869 194.835 93.7717 194.835 93.7741C194.835 93.775 194.836 93.7792 194.836 93.7874C194.837 93.7955 194.837 93.8068 194.837 93.8218H196.837ZM196.795 93.4472L196.567 89.6924L194.57 89.8141L194.799 93.5689L196.795 93.4472ZM196.567 89.6924C196.504 88.6693 195.658 87.8511 194.629 87.8511V89.8511C194.6 89.8511 194.584 89.8393 194.58 89.8355C194.575 89.831 194.571 89.823 194.57 89.8141L196.567 89.6924ZM194.629 87.8511C193.565 87.8511 192.744 88.722 192.744 89.752H194.744C194.744 89.7706 194.736 89.795 194.716 89.8146C194.696 89.835 194.663 89.8511 194.629 89.8511V87.8511ZM192.744 89.752V93.3567H194.744V89.752H192.744ZM192.744 93.3567V97.8623H194.744V93.3567H192.744ZM199.953 97.9612H200.837V95.9612H199.953V97.9612ZM199.837 96.9612V100.566H201.837V96.9612H199.837ZM200.837 99.5657H199.953V101.566H200.837V99.5657ZM200.953 100.566V96.9612H198.953V100.566H200.953ZM198.183 97.9612H199.068V95.9612H198.183V97.9612ZM198.068 96.9612V100.566H200.068V96.9612H198.068ZM199.068 99.5657H198.183V101.566H199.068V99.5657ZM199.183 100.566V96.9612H197.183V100.566H199.183ZM196.414 97.9612H197.299V95.9612H196.414V97.9612ZM196.299 96.9612V100.566H198.299V96.9612H196.299ZM197.299 99.5657H196.414V101.566H197.299V99.5657ZM197.414 100.566V96.9612H195.414V100.566H197.414Z" fill="black" fill-opacity="0.8" mask="url(#path-25-outside-1_158_16991)"/>
</g>
<path fill-rule="evenodd" clip-rule="evenodd" d="M172.965 16.6832L177.045 14.309L179.858 9.42598V4.71802C179.784 4.71802 179.71 4.76702 179.654 4.86448L176.321 10.6486L172.99 16.4327C172.933 16.5303 172.928 16.6188 172.965 16.6832Z" fill="#FF4724"/>
<path fill-rule="evenodd" clip-rule="evenodd" d="M179.858 4.71802V9.42598L182.671 14.309L186.752 16.6832C186.789 16.6188 186.783 16.5303 186.727 16.4327L183.395 10.6486L180.063 4.86448C180.007 4.76688 179.932 4.71802 179.858 4.71802Z" fill="#9E1F63"/>
<path fill-rule="evenodd" clip-rule="evenodd" d="M186.752 16.6833L182.671 14.3091H177.045L172.965 16.6833C173.002 16.748 173.081 16.788 173.193 16.788H186.523C186.636 16.788 186.715 16.748 186.752 16.6833Z" fill="#662D91"/>
<path fill-rule="evenodd" clip-rule="evenodd" d="M177.045 14.309H182.671L179.858 9.42603L177.045 14.309Z" fill="white"/>
<defs>
<filter id="filter0_d_158_16991" x="119.819" y="5.34033" width="119.106" height="130.34" filterUnits="userSpaceOnUse" color-interpolation-filters="sRGB">
<feFlood flood-opacity="0" result="BackgroundImageFix"/>
<feColorMatrix in="SourceAlpha" type="matrix" values="0 0 0 0 0 0 0 0 0 0 0 0 0 0 0 0 0 0 127 0" result="hardAlpha"/>
<feOffset dy="10"/>
<feGaussianBlur stdDeviation="10.5"/>
<feColorMatrix type="matrix" values="0 0 0 0 0.152941 0 0 0 0 0.180392 0 0 0 0 0.25098 0 0 0 0.2 0"/>
<feBlend mode="normal" in2="BackgroundImageFix" result="effect1_dropShadow_158_16991"/>
<feBlend mode="normal" in="SourceGraphic" in2="effect1_dropShadow_158_16991" result="shape"/>
</filter>
<filter id="filter1_d_158_16991" x="186.352" y="85.8511" width="20.2549" height="23.3191" filterUnits="userSpaceOnUse" color-interpolation-filters="sRGB">
<feFlood flood-opacity="0" result="BackgroundImageFix"/>
<feColorMatrix in="SourceAlpha" type="matrix" values="0 0 0 0 0 0 0 0 0 0 0 0 0 0 0 0 0 0 127 0" result="hardAlpha"/>
<feOffset dy="1"/>
<feGaussianBlur stdDeviation="1.5"/>
<feColorMatrix type="matrix" values="0 0 0 0 0 0 0 0 0 0 0 0 0 0 0 0 0 0 0.2 0"/>
<feBlend mode="normal" in2="BackgroundImageFix" result="effect1_dropShadow_158_16991"/>
<feBlend mode="normal" in="SourceGraphic" in2="effect1_dropShadow_158_16991" result="shape"/>
</filter>
<linearGradient id="paint0_linear_158_16991" x1="0.393555" y1="0" x2="218.101" y2="44.9403" gradientUnits="userSpaceOnUse">
<stop stop-color="#444DD0"/>
<stop offset="0.505208" stop-color="#9E1F63"/>
<stop offset="1" stop-color="#DB2F04"/>
</linearGradient>
<linearGradient id="paint1_linear_158_16991" x1="81.9942" y1="65.4291" x2="187.888" y2="250.862" gradientUnits="userSpaceOnUse">
<stop stop-color="#4134DF"/>
<stop offset="1" stop-color="#FF4343"/>
</linearGradient>
</defs>
</svg>
