<svg fill="none" xmlns="http://www.w3.org/2000/svg" viewBox="13 13 100 100">
  <circle cx="61" cy="60.857" r="40" fill="url(#paint0_linear)"/>
  <path fill-rule="evenodd" clip-rule="evenodd" d="M74.913 51.964l-1.71 4.201c-.144.35-.448.61-.818.695l-3.695.858c.36.624.647 1.3.895 1.995.093.002.184-.007.276.019l4.279 1.166a1.167 1.167 0 01-.614 2.252l-3.303-.9a12.4 12.4 0 01.11 1.64c0 .448-.046.885-.113 1.318l2.165.503c.38.087.69.36.827.722l1.712 4.51a1.164 1.164 0 01-1.092 1.581c-.47 0-.913-.287-1.09-.754l-1.49-3.928-1.682-.39c-1.824 4.327-6.479 7.405-8.57 7.405-2.09 0-6.745-3.078-8.57-7.406l-1.682.391-1.49 3.928a1.167 1.167 0 11-2.182-.827l1.712-4.51c.138-.363.448-.635.826-.722l2.166-.503a8.572 8.572 0 01-.113-1.317c0-.556.038-1.104.11-1.642l-3.303.9a1.169 1.169 0 01-1.433-.819 1.168 1.168 0 01.82-1.432l4.277-1.166c.093-.027.185-.018.277-.02.247-.696.534-1.371.894-1.994l-3.695-.858a1.168 1.168 0 01-.817-.695l-1.71-4.201a1.166 1.166 0 01.64-1.52 1.162 1.162 0 011.52.64l1.483 3.64 4.007.931c.033.007.056.03.088.04.455-.476.94-.92 1.477-1.286.038-.025.081-.03.121-.051a3.097 3.097 0 01-.09-.733c0-.48.133-1.638 1.291-2.438-.014-.044-.043-.08-.053-.126A3.504 3.504 0 0161 46.858c1.93 0 3.5 1.57 3.5 3.5 0 .284-.04.566-.108.843a2.94 2.94 0 011.18 3.155c.041.022.086.026.125.053a9.48 9.48 0 011.478 1.286c.03-.01.056-.033.088-.04l4.007-.93 1.483-3.64a1.16 1.16 0 011.52-.641c.597.242.883.924.64 1.52zM61 49.19c-.644 0-1.167.522-1.167 1.166 0 .03.007.059.01.088A8.77 8.77 0 0161 50.357c.433 0 .8.042 1.155.088.002-.03.012-.058.012-.088 0-.644-.523-1.166-1.167-1.166zm3.38 7.143c-.087-.058-.144-.14-.21-.216-.492.167-1.05.01-1.348-.448a1.168 1.168 0 01.342-1.614c.058-.038.169-.222.169-.43 0-.844-1.632-.935-2.333-.935-.702 0-2.334.09-2.334.934 0 .214.1.398.15.435.516.36.685 1.085.34 1.613a1.168 1.168 0 01-.973.545c-.119 0-.236-.059-.352-.1-.066.077-.125.16-.213.219C55.388 57.86 54 60.755 54 63.89c0 4.755 5.628 8.633 7 8.633 1.372 0 7-3.878 7-8.633 0-3.134-1.387-6.028-3.62-7.557z" fill="#fff"/>
  <path fill-rule="evenodd" clip-rule="evenodd" d="M88.713 44.857C97.55 60.162 92.306 79.733 77 88.57c-15.305 8.836-34.876 3.592-43.713-11.713C24.451 61.552 29.695 41.981 45 33.144c15.306-8.836 34.876-3.592 43.713 11.713zm-1.13 51.068A44.453 44.453 0 0183 98.962c-21.045 12.15-47.955 4.94-60.105-16.105C10.745 61.812 17.955 34.902 39 22.752c21.045-12.15 47.955-4.94 60.105 16.105 9.122 15.8 7.332 34.904-3.032 48.588l10.447 10.447a6 6 0 01-8.485 8.486L87.583 95.925z" fill="#E9ECEF"/>
  <defs>
    <linearGradient id="paint0_linear" x1="101" y1="100.857" x2="11.825" y2="36.195" gradientUnits="userSpaceOnUse">
      <stop stop-color="#BF14A2"/>
      <stop offset="1" stop-color="#F73A1C"/>
    </linearGradient>
  </defs>
</svg>
