<svg width="56" height="56" viewBox="0 0 56 56" fill="none" xmlns="http://www.w3.org/2000/svg">
    <path fill-rule="evenodd" clip-rule="evenodd" d="M43.4583 48.9999H11.6667C4.68767 48.9999 0 44.9072 0 38.8196C0 34.0573 2.69267 29.7873 6.86233 27.6803C6.85067 27.4329 6.846 27.1879 6.846 26.9406C6.846 17.2316 14.8003 9.33325 24.577 9.33325C31.5093 9.33325 37.772 13.3676 40.6537 19.5276C49.1773 19.8799 56 26.8753 56 35.4246C56 43.1642 50.6077 48.9999 43.4583 48.9999ZM39.977 24.1803C39.7717 24.1803 39.5663 24.1943 39.3633 24.2176C38.2853 24.3413 37.268 23.6996 36.9063 22.6753C35.0723 17.4859 30.1163 13.9999 24.577 13.9999C17.374 13.9999 11.5127 19.8053 11.5127 26.9406C11.5127 27.5356 11.564 28.1399 11.669 28.7886C11.8533 29.9203 11.1837 31.0216 10.0917 31.3786C6.84833 32.4426 4.66667 35.4339 4.66667 38.8196C4.66667 43.9343 10.024 44.3333 11.6667 44.3333H43.4583C47.3713 44.3333 51.3333 41.2719 51.3333 35.4246C51.3333 29.2226 46.2373 24.1803 39.977 24.1803ZM35 39.6666C34.4027 39.6666 33.8053 39.4379 33.3503 38.9829C33.3037 38.9432 31.5443 37.3332 28 37.3332C24.4557 37.3332 22.6963 38.9432 22.624 39.0109C21.6907 39.8812 20.223 39.8556 19.3387 38.9432C18.452 38.0262 18.4497 36.5842 19.3503 35.6836C19.6583 35.3732 22.5237 32.6666 28 32.6666C33.4763 32.6666 36.3417 35.3732 36.6497 35.6836C37.562 36.5959 37.562 38.0729 36.6497 38.9829C36.1947 39.4379 35.5973 39.6666 35 39.6666ZM30.3333 25.6666H35V30.3333H30.3333V25.6666ZM21 25.6666H25.6667V30.3333H21V25.6666Z" fill="url(#paint0_linear)"/>
    <defs>
        <linearGradient id="paint0_linear" x1="0" y1="9.33325" x2="46.8611" y2="57.1021" gradientUnits="userSpaceOnUse">
            <stop stop-color="#392DD1"/>
            <stop offset="1" stop-color="#A91B78"/>
        </linearGradient>
    </defs>
</svg>
