<svg width="64" height="64" viewBox="0 0 64 64" fill="none" xmlns="http://www.w3.org/2000/svg">
    <path fill-rule="evenodd" clip-rule="evenodd" d="M58.584 59.167H5.414a2.423 2.423 0 01-2.116-3.589L29.86 7.158c.848-1.544 3.385-1.544 4.232 0l26.355 48.045a2.42 2.42 0 01-1.862 3.964zM31.975 13.35L9.498 54.325h44.954L31.975 13.35zm0 11.922a2.418 2.418 0 012.416 2.421V39.8a2.42 2.42 0 01-2.416 2.421 2.417 2.417 0 01-2.413-2.421V27.694a2.416 2.416 0 012.413-2.42zm1.721 20.069c.434.46.7 1.09.7 1.72 0 .63-.266 1.258-.724 1.718a2.437 2.437 0 01-1.69.703 2.486 2.486 0 01-1.714-.703 2.433 2.433 0 01-.702-1.718c0-.63.242-1.26.702-1.72.891-.896 2.535-.896 3.428 0z"
        fill="url(#paint0_linear)" />
    <defs>
        <linearGradient id="paint0_linear" x1=".643%" y1="49.357%" x2="99.357%" y2="49.357%" gradientUnits="userSpaceOnUse">
            <stop stop-color="#392DD1" offset="0%" />
            <stop stop-color="#A91B78" offset="100%" />
        </linearGradient>
    </defs>
</svg>
