<svg width="56" height="56" viewBox="0 0 56 56" fill="none" xmlns="http://www.w3.org/2000/svg">
    <path fill-rule="evenodd" clip-rule="evenodd" d="M51.3333 53.6663H4.66667C2.093 53.6663 0 51.5733 0 48.9997V6.99967C0 4.42834 2.093 2.33301 4.66667 2.33301H51.3333C53.907 2.33301 56 4.42834 56 6.99967V48.9997C56 51.5733 53.907 53.6663 51.3333 53.6663ZM51.3263 48.9998L51.331 16.3332H4.66666V48.9998H51.3263ZM4.66666 6.99977V11.6664H51.3333V6.99977H4.66666ZM20.159 41.1943C19.1684 42.0312 17.6972 41.8942 16.873 40.8883C16.0488 39.8825 16.1837 38.3886 17.1743 37.5517C20.6791 34.5909 24.3001 33.0613 28 33.0613C31.6999 33.0613 35.3209 34.5909 38.8257 37.5517C39.8163 38.3886 39.9512 39.8825 39.127 40.8883C38.3028 41.8942 36.8316 42.0312 35.841 41.1943C33.1235 38.8985 30.5223 37.7998 28 37.7998C25.4777 37.7998 22.8765 38.8985 20.159 41.1943ZM21 28.3232C22.2886 28.3232 23.3333 27.2624 23.3333 25.9539C23.3333 24.6454 22.2886 23.5847 21 23.5847C19.7113 23.5847 18.6666 24.6454 18.6666 25.9539C18.6666 27.2624 19.7113 28.3232 21 28.3232ZM35 28.3232C36.2887 28.3232 37.3333 27.2624 37.3333 25.9539C37.3333 24.6454 36.2887 23.5847 35 23.5847C33.7113 23.5847 32.6667 24.6454 32.6667 25.9539C32.6667 27.2624 33.7113 28.3232 35 28.3232Z" fill="url(#paint0_linear)"/>
    <defs>
        <linearGradient id="paint0_linear" x1="0" y1="2.33301" x2="58.9678" y2="48.7818" gradientUnits="userSpaceOnUse">
            <stop stop-color="#392DD1"/>
            <stop offset="1" stop-color="#A91B78"/>
        </linearGradient>
    </defs>
</svg>
