<svg width="56" height="56" viewBox="0 0 56 56" fill="none" xmlns="http://www.w3.org/2000/svg">
    <path fill-rule="evenodd" clip-rule="evenodd" d="M53.6669 42.0001H45.2998L55.3166 52.0169C56.2289 52.9292 56.2289 54.4039 55.3166 55.3162C54.8616 55.7712 54.2642 55.9998 53.6669 55.9998C53.0696 55.9998 52.4723 55.7712 52.0173 55.3162L42.0005 45.2994V53.6666C42.0005 54.9569 40.9552 55.9998 39.6672 55.9998C38.3792 55.9998 37.3339 54.9569 37.3339 53.6666V39.6668C37.3339 38.3765 38.3792 37.3336 39.6672 37.3336H53.6669C54.9549 37.3336 56.0002 38.3765 56.0002 39.6668C56.0002 40.9572 54.9549 42.0001 53.6669 42.0001Z" fill="url(#paint0_linear)"/>
    <path d="M28 0C12.6 0 0 12.6 0 28C0 43.4 12.6 56 28 56C28.4667 56 28.7 56 29.1667 56C30.5667 56 31.5 54.8333 31.5 53.6667C31.5 52.5 30.3333 51.5667 29.1667 51.5667C26.8333 48.5333 24.0333 44.1 22.4 38.5H28.7C30.1 38.5 31.0333 37.5667 31.0333 36.1667C31.0333 34.7667 30.1 33.8333 28.7 33.8333H21.4667C21.4667 33.3667 21.2333 32.9 21.2333 32.4333C20.7667 28.7 21 25.6667 21.4667 22.6333H27.5333H34.3C34.5333 24.7333 34.7667 27.0667 34.7667 29.4C34.7667 30.8 35.7 31.7333 37.1 31.7333C38.2667 31.7333 39.4333 30.8 39.4333 29.4C39.4333 27.0667 39.4333 24.7333 38.9667 22.4H49C49.2333 22.4 49.4667 22.4 49.7 22.4C50.1667 22.4 50.6333 22.4 50.6333 22.4C51.1 24.0333 51.3333 25.9 51.3333 27.7667C51.3333 28.7 51.3333 29.6333 51.1 30.5667C50.8667 31.7333 51.8 32.9 53.2 33.1333C54.3667 33.3667 55.5333 32.4333 55.7667 31.0333C56 30.3333 56 29.1667 56 28C56 12.6 43.4 0 28 0ZM23.1 5.13333C21.2333 8.4 18.9 12.6 17.7333 17.9667H7C10.0333 11.4333 16.1 6.76667 23.1 5.13333ZM23.1 50.8667C16.1 49.2333 10.2667 44.5667 7.23333 38.2667H17.7333C18.9 43.4 21 47.6 23.1 50.8667ZM16.5667 32.6667C16.5667 32.9 16.5667 33.3667 16.8 33.6H5.36667C4.9 31.9667 4.66667 29.8667 4.66667 28C4.66667 26.1333 4.9 24.2667 5.36667 22.6333C5.6 22.6333 5.83333 22.6333 6.06667 22.6333H16.8C16.3333 25.6667 16.1 29.1667 16.5667 32.6667ZM27.5333 17.9667H22.6333C24.0333 13.0667 26.1333 9.33333 28 6.53333C29.8667 9.33333 31.9667 13.0667 33.3667 17.9667H27.5333ZM49 17.9667H38.0333C36.6333 12.6 34.5333 8.16667 32.4333 5.13333C39.6667 6.53333 45.9667 11.4333 49 17.9667Z" fill="url(#paint1_linear)"/>
    <defs>
        <linearGradient id="paint0_linear" x1="37.3339" y1="37.3336" x2="58.2701" y2="52.4511" gradientUnits="userSpaceOnUse">
            <stop stop-color="#392DD1"/>
            <stop offset="1" stop-color="#A91B78"/>
        </linearGradient>
        <linearGradient id="paint1_linear" x1="0" y1="0" x2="62.809" y2="45.3516" gradientUnits="userSpaceOnUse">
            <stop stop-color="#392DD1"/>
            <stop offset="1" stop-color="#A91B78"/>
        </linearGradient>
    </defs>
</svg>
