<svg width="56" height="56" viewBox="0 0 56 56" fill="none" xmlns="http://www.w3.org/2000/svg">
    <path fill-rule="evenodd" clip-rule="evenodd" d="M47.7936 47.8007C42.5059 53.088 35.4735 56 27.9903 56C20.5095 56 13.4771 53.088 8.187 47.7983C-2.729 36.8807 -2.729 19.117 8.187 8.20167C13.4771 2.912 20.5095 0 27.9903 0C35.4735 0 42.5059 2.912 47.7936 8.20167C53.0861 13.489 56 20.5217 56 28C56 35.4783 53.0861 42.511 47.7936 47.8007ZM44.4946 11.501C40.0874 7.09333 34.2267 4.66667 27.9903 4.66667C21.7563 4.66667 15.8956 7.09333 11.4883 11.501C2.38971 20.5987 2.38971 35.4013 11.4883 44.499C15.8956 48.9067 21.7563 51.3333 27.9903 51.3333C34.2267 51.3333 40.0874 48.9067 44.4946 44.499C48.9042 40.0937 51.3321 34.2323 51.3321 28C51.3321 21.7677 48.9042 15.9087 44.4946 11.501ZM32.6605 44.3333H23.3248C22.038 44.3333 20.9908 43.288 20.9908 42C20.9908 40.712 22.038 39.6667 23.3248 39.6667H25.6587V30.3333H23.3248C22.038 30.3333 20.9908 29.288 20.9908 28C20.9908 26.712 22.038 25.6667 23.3248 25.6667H27.9927C29.2817 25.6667 30.3266 26.712 30.3266 28V39.6667H32.6605C33.9496 39.6667 34.9945 40.712 34.9945 42C34.9945 43.288 33.9496 44.3333 32.6605 44.3333ZM27.9927 21C25.4192 21 23.3248 18.9047 23.3248 16.331C23.3248 13.7597 25.4192 11.6667 27.9927 11.6667C30.5685 11.6667 32.6605 13.7597 32.6605 16.331C32.6605 18.9047 30.5685 21 27.9927 21Z" fill="url(#paint0_linear)"/>
    <defs>
        <linearGradient id="paint0_linear" x1="0" y1="0" x2="62.809" y2="45.3516" gradientUnits="userSpaceOnUse">
            <stop stop-color="#392DD1"/>
            <stop offset="1" stop-color="#A91B78"/>
        </linearGradient>
    </defs>
</svg>
