<svg width="54" height="54" viewBox="0 0 54 54" fill="none" xmlns="http://www.w3.org/2000/svg">
<path d="M26.667 0C41.3946 0 53.334 11.9394 53.334 26.667C53.334 41.3946 41.3946 53.334 26.667 53.334C11.9394 53.334 1.11677e-06 41.3946 0 26.667C0 11.9394 11.9394 1.76106e-06 26.667 0ZM26.667 4.10254C14.2052 4.10254 4.10254 14.2052 4.10254 26.667C4.10254 39.1288 14.2052 49.2314 26.667 49.2314C39.1288 49.2314 49.2314 39.1288 49.2314 26.667C49.2314 14.2052 39.1288 4.10254 26.667 4.10254ZM26.667 22.5645C27.7997 22.5645 28.7185 23.4826 28.7188 24.6152V37.5391C28.7186 38.6718 27.7998 39.5898 26.667 39.5898C25.5342 39.5898 24.6154 38.6718 24.6152 37.5391V24.6152C24.6155 23.4826 25.5343 22.5645 26.667 22.5645ZM26.667 13.334C28.2869 13.334 29.6004 14.6467 29.6006 16.2666C29.6006 17.8866 28.287 19.2002 26.667 19.2002C25.047 19.2002 23.7334 17.8866 23.7334 16.2666C23.7336 14.6467 25.0471 13.334 26.667 13.334Z" fill="url(#paint0_linear_552_4734)"/>
<defs>
<linearGradient id="paint0_linear_552_4734" x1="50.5633" y1="49.6483" x2="-0.04942" y2="0.0503829" gradientUnits="userSpaceOnUse">
<stop offset="0.0260417" stop-color="#FA7250"/>
<stop offset="0.401042" stop-color="#FF1893"/>
<stop offset="0.994792" stop-color="#A78AFF"/>
</linearGradient>
</defs>
</svg>
