<svg width="64" height="65" viewBox="0 0 64 65" fill="none" xmlns="http://www.w3.org/2000/svg">
<path fill-rule="evenodd" clip-rule="evenodd" d="M28.7823 14.4575C30.2118 11.9796 33.7881 11.9796 35.2177 14.4575L54.0588 47.1155C55.4876 49.592 53.7003 52.6867 50.8412 52.6867H13.1588C10.2997 52.6867 8.51236 49.592 9.94112 47.1155L28.7823 14.4575ZM38.7682 12.4091C35.7612 7.19697 28.2387 7.19697 25.2317 12.4091L6.39057 45.0671C3.38524 50.2764 7.14482 56.7857 13.1588 56.7857H50.8412C56.8551 56.7857 60.6147 50.2764 57.6094 45.0671L38.7682 12.4091ZM31.9998 22.3865C33.1327 22.3865 34.0511 23.3049 34.0511 24.4378V34.6942C34.0511 35.8271 33.1327 36.7454 31.9998 36.7454C30.8669 36.7454 29.9485 35.8271 29.9485 34.6942V24.4378C29.9485 23.3049 30.8669 22.3865 31.9998 22.3865ZM34.9334 43.5762C34.9334 45.1963 33.6201 46.5096 32 46.5096C30.38 46.5096 29.0667 45.1963 29.0667 43.5762C29.0667 41.9562 30.38 40.6429 32 40.6429C33.6201 40.6429 34.9334 41.9562 34.9334 43.5762Z" fill="url(#paint0_linear_1839_11571)"/>
<defs>
<linearGradient id="paint0_linear_1839_11571" x1="55.896" y1="53.4489" x2="10.2078" y2="3.99648" gradientUnits="userSpaceOnUse">
<stop offset="0.0260417" stop-color="#FA7250"/>
<stop offset="0.401042" stop-color="#FF1893"/>
<stop offset="0.994792" stop-color="#A78AFF"/>
</linearGradient>
</defs>
</svg>
