<svg width="56" height="56" viewBox="0 0 56 56" fill="none" xmlns="http://www.w3.org/2000/svg">
    <path fill-rule="evenodd" clip-rule="evenodd" d="M53.6674 53.6667C53.651 53.6667 53.637 53.6667 53.6206 53.6667H2.33116C1.50844 53.6667 0.744145 53.2298 0.325771 52.5179C-0.0949415 51.8085 -0.108965 50.9252 0.288374 50.2016L25.9331 3.45219C26.7512 1.96044 29.2006 1.96044 30.0187 3.45219L55.4648 49.8398C55.799 50.2439 56 50.7631 56 51.3292C56 52.619 54.9552 53.6667 53.6674 53.6667ZM27.9759 9.43095L6.27417 48.9918H49.6776L27.9759 9.43095ZM27.9759 20.9421C29.2638 20.9421 30.3085 21.9875 30.3085 23.2796V34.9669C30.3085 36.2567 29.2638 37.3044 27.9759 37.3044C26.6881 37.3044 25.6456 36.2567 25.6456 34.9669V23.2796C25.6456 21.9875 26.6881 20.9421 27.9759 20.9421ZM29.6377 40.3185C30.0561 40.7625 30.3132 41.3709 30.3132 41.9794C30.3132 42.5878 30.0561 43.1939 29.6143 43.6379C29.1936 44.0584 28.5883 44.3168 27.9829 44.3168C27.3518 44.3168 26.7699 44.0584 26.3281 43.6379C25.884 43.1939 25.6503 42.5878 25.6503 41.9794C25.6503 41.3709 25.884 40.7625 26.3281 40.3185C27.1882 39.4539 28.7753 39.4539 29.6377 40.3185Z" fill="#FFD43B"/>
</svg>
