<svg xmlns="http://www.w3.org/2000/svg" width="122" height="111" fill="none"><g filter="url(#a)"><path fill="#fff" d="M22.71 47.342c0-22.789 18.475-41.263 41.264-41.263s41.263 18.474 41.263 41.263c0 22.79-18.474 41.263-41.263 41.263S22.711 70.131 22.711 47.342" shape-rendering="crispEdges"/><path stroke="#000" stroke-width="2.947" d="M24.185 47.342c0-21.975 17.814-39.79 39.79-39.79 21.974 0 39.789 17.815 39.789 39.79s-17.815 39.79-39.79 39.79-39.79-17.815-39.79-39.79Z" shape-rendering="crispEdges"/><path fill="#000" fill-rule="evenodd" d="M50.665 34.57h26.667c.368 0 .667.298.667.667v2h-28v-2c0-.369.298-.667.666-.667m-3.333 5.334v-4.667a3.333 3.333 0 0 1 3.333-3.334h26.667a3.333 3.333 0 0 1 3.333 3.334v24a3.333 3.333 0 0 1-3.333 3.333H50.665a3.333 3.333 0 0 1-3.333-3.333zm30.667 0v19.333a.667.667 0 0 1-.667.666H50.665a.667.667 0 0 1-.666-.666V39.904zM59.333 55.368a1.375 1.375 0 0 1-1.956-.182 1.425 1.425 0 0 1 .18-1.986c2.086-1.762 4.241-2.673 6.443-2.673s4.358.91 6.444 2.673c.59.498.67 1.387.18 1.986s-1.367.68-1.956.182c-1.618-1.366-3.166-2.02-4.668-2.02-1.501 0-3.05.654-4.667 2.02m.499-7.662a1.4 1.4 0 0 0 1.389-1.41 1.4 1.4 0 0 0-1.389-1.41 1.4 1.4 0 0 0-1.389 1.41 1.4 1.4 0 0 0 1.389 1.41m8.336 0a1.4 1.4 0 0 0 1.388-1.41 1.4 1.4 0 0 0-1.388-1.41 1.4 1.4 0 0 0-1.39 1.41 1.4 1.4 0 0 0 1.39 1.41" clip-rule="evenodd"/></g><path fill="#000" d="M101.978 5.663a.874.874 0 0 0 0 1.233l5.656 5.657-5.656 5.656a.872.872 0 1 0 1.234 1.234l5.656-5.657 5.655 5.655a.873.873 0 0 0 1.234-1.233l-5.655-5.655 5.655-5.655a.872.872 0 1 0-1.234-1.234l-5.655 5.655-5.656-5.656a.873.873 0 0 0-1.234 0M18.68 20.735a.41.41 0 0 0-.504.291l-.977 3.647-3.646-.977a.412.412 0 0 0-.213.795l3.646.977-.977 3.645a.412.412 0 0 0 .796.214l.976-3.646 3.646.977a.412.412 0 0 0 .213-.796l-3.646-.976.978-3.647a.41.41 0 0 0-.292-.504"/><circle cx="6.447" cy="76.131" r="5.895" fill="#000"/><circle cx="118.5" cy="85.185" r="2.947" fill="#000"/><path stroke="#000" stroke-linecap="round" stroke-width="1.474" d="m59.679 103.469 4.168 4.168M63.848 103.469l-4.169 4.168"/><defs><filter id="a" width="85.473" height="88.421" x="22.711" y="6.079" color-interpolation-filters="sRGB" filterUnits="userSpaceOnUse"><feFlood flood-opacity="0" result="BackgroundImageFix"/><feColorMatrix in="SourceAlpha" result="hardAlpha" values="0 0 0 0 0 0 0 0 0 0 0 0 0 0 0 0 0 0 127 0"/><feOffset dx="2.947" dy="5.895"/><feComposite in2="hardAlpha" operator="out"/><feColorMatrix values="0 0 0 0 0 0 0 0 0 0 0 0 0 0 0 0 0 0 1 0"/><feBlend in2="BackgroundImageFix" result="effect1_dropShadow_21431_225581"/><feBlend in="SourceGraphic" in2="effect1_dropShadow_21431_225581" result="shape"/></filter></defs></svg>
