<svg width="16" height="16" viewBox="0 0 16 16" fill="none" xmlns="http://www.w3.org/2000/svg">    <path fill-rule="evenodd" clip-rule="evenodd" d="M7.99773 14.6668C9.77944 14.6668 11.4538 13.9735 12.7128 12.7146C13.9729 11.4552 14.6667 9.78072 14.6667 8.00016C14.6667 6.21961 13.9729 4.54516 12.7128 3.28627C11.4538 2.02683 9.77944 1.3335 7.99773 1.3335C6.21658 1.3335 4.54221 2.02683 3.28266 3.28627C0.683612 5.88516 0.683612 10.1146 3.28266 12.7141C4.54221 13.9735 6.21658 14.6668 7.99773 14.6668ZM7.99774 2.44461C9.48259 2.44461 10.878 3.02238 11.9273 4.07183C12.9772 5.12127 13.5553 6.51627 13.5553 8.00016C13.5553 9.48405 12.9772 10.8796 11.9273 11.9285C10.878 12.9779 9.48259 13.5557 7.99774 13.5557C6.51345 13.5557 5.11804 12.9779 4.0687 11.9285C1.90236 9.76238 1.90236 6.23794 4.0687 4.07183C5.11804 3.02238 6.51345 2.44461 7.99774 2.44461ZM6.8869 5.22183C6.8869 5.83461 7.38557 6.3335 7.9983 6.3335C8.61158 6.3335 9.1097 5.83461 9.1097 5.22183C9.1097 4.60961 8.61158 4.11127 7.9983 4.11127C7.38557 4.11127 6.8869 4.60961 6.8869 5.22183ZM8.00006 7.46683C7.6871 7.46683 7.43339 7.72053 7.43339 8.03349V11.4335C7.43339 11.7465 7.6871 12.0002 8.00006 12.0002C8.31302 12.0002 8.56672 11.7465 8.56672 11.4335V8.0335C8.56672 7.72053 8.31302 7.46683 8.00006 7.46683Z" fill="#6B7084"/></svg>