<svg xmlns="http://www.w3.org/2000/svg" width="194" height="181" fill="none">
    <g filter="url(#a)">
        <g filter="url(#b)">
            <path fill="url(#c)" fill-opacity=".13" d="M98.309.107 0 29.651l96.855 43.854L194 36.114 98.309.107Z" />
            <path fill="url(#d)" d="M98.309.107 0 29.651l96.855 43.854L194 36.114 98.309.107Z" />
        </g>
        <path fill="url(#e)" fill-opacity=".24"
            d="M96.578 82.824.283 126.632l96.295 54.324 97.803-53.777-97.803-44.355Z" />
        <g filter="url(#f)">
            <path fill="url(#g)" fill-opacity=".32"
                d="M.023 29.708v96.556l48.394 27.663 48.16 27.052.233-107.566L.023 29.708Z" />
        </g>
        <g filter="url(#h)">
            <path fill="url(#i)" fill-opacity=".32"
                d="M193.887 35.982 96.81 73.412l-.234 107.497 48.773-26.807 48.538-26.597V35.982Z" />
        </g>
        <path fill="#D5DCFF" fill-rule="evenodd"
            d="M96.901 117.191c-20.993 3.007-40.45-11.575-43.457-32.57-3.006-20.99 11.576-40.447 32.568-43.454 20.992-3.007 40.45 11.574 43.456 32.565a38.224 38.224 0 0 1-3.663 22.622l33.081 21.386a5.669 5.669 0 1 1-6.386 9.368l-33.213-21.47a38.236 38.236 0 0 1-22.386 11.553Zm-2.063-12.15c14.432-2.067 24.457-15.444 22.389-29.879-2.067-14.43-15.444-24.455-29.876-22.388-14.432 2.067-24.457 15.444-22.39 29.875 2.067 14.434 15.444 24.459 29.877 22.392Z"
            clip-rule="evenodd" />
    </g>
    <defs>
        <linearGradient id="c" x1="114.281" x2="136.418" y1="36.806" y2="61.798" gradientUnits="userSpaceOnUse">
            <stop stop-color="#F8F9FA" />
            <stop offset="1" stop-color="#0094FF" />
        </linearGradient>
        <linearGradient id="d" x1="-93.537" x2="115.75" y1="19.844" y2="27.823" gradientUnits="userSpaceOnUse">
            <stop stop-color="#0094FF" />
            <stop offset="1" stop-color="#fff" stop-opacity="0" />
        </linearGradient>
        <linearGradient id="g" x1="101.139" x2="18.237" y1="193.709" y2="47.129" gradientUnits="userSpaceOnUse">
            <stop stop-color="#0094FF" />
            <stop offset="1" stop-color="#fff" stop-opacity="0" />
        </linearGradient>
        <linearGradient id="i" x1="84.463" x2="206.113" y1="193.709" y2="20.344" gradientUnits="userSpaceOnUse">
            <stop stop-color="#0094FF" />
            <stop offset="1" stop-color="#fff" stop-opacity="0" />
        </linearGradient>
        <filter id="a" width="245.773" height="232.392" x="-25.696" y="-25.589" color-interpolation-filters="sRGB"
            filterUnits="userSpaceOnUse">
            <feFlood flood-opacity="0" result="BackgroundImageFix" />
            <feGaussianBlur in="BackgroundImageFix" stdDeviation="12.848" />
            <feComposite in2="SourceAlpha" operator="in" result="effect1_backgroundBlur_6164_15669" />
            <feBlend in="SourceGraphic" in2="effect1_backgroundBlur_6164_15669" result="shape" />
        </filter>
        <filter id="b" width="204.946" height="84.344" x="-5.473" y="-5.366" color-interpolation-filters="sRGB"
            filterUnits="userSpaceOnUse">
            <feFlood flood-opacity="0" result="BackgroundImageFix" />
            <feGaussianBlur in="BackgroundImageFix" stdDeviation="2.737" />
            <feComposite in2="SourceAlpha" operator="in" result="effect1_backgroundBlur_6164_15669" />
            <feBlend in="SourceGraphic" in2="effect1_backgroundBlur_6164_15669" result="shape" />
        </filter>
        <filter id="f" width="107.733" height="162.218" x="-5.45" y="24.235" color-interpolation-filters="sRGB"
            filterUnits="userSpaceOnUse">
            <feFlood flood-opacity="0" result="BackgroundImageFix" />
            <feGaussianBlur in="BackgroundImageFix" stdDeviation="2.737" />
            <feComposite in2="SourceAlpha" operator="in" result="effect1_backgroundBlur_6164_15669" />
            <feBlend in="SourceGraphic" in2="effect1_backgroundBlur_6164_15669" result="shape" />
        </filter>
        <filter id="h" width="108.257" height="155.873" x="91.103" y="30.509" color-interpolation-filters="sRGB"
            filterUnits="userSpaceOnUse">
            <feFlood flood-opacity="0" result="BackgroundImageFix" />
            <feGaussianBlur in="BackgroundImageFix" stdDeviation="2.737" />
            <feComposite in2="SourceAlpha" operator="in" result="effect1_backgroundBlur_6164_15669" />
            <feBlend in="SourceGraphic" in2="effect1_backgroundBlur_6164_15669" result="shape" />
        </filter>
        <radialGradient id="e" cx="0" cy="0" r="1" gradientTransform="matrix(0 49.0658 -97.0487 0 97.332 131.89)"
            gradientUnits="userSpaceOnUse">
            <stop offset=".689" stop-color="#fff" />
            <stop offset="1" stop-color="#0094FF" />
        </radialGradient>
    </defs>
</svg>
