<svg xmlns="http://www.w3.org/2000/svg" width="194" height="181" fill="none">
    <g filter="url(#a)">
        <g filter="url(#b)">
            <path fill="url(#c)" fill-opacity=".13" d="M98.309.107 0 29.651l96.855 43.854L194 36.114 98.309.107Z" />
            <path fill="url(#d)" d="M98.309.107 0 29.651l96.855 43.854L194 36.114 98.309.107Z" />
        </g>
        <path fill="url(#e)" fill-opacity=".24"
            d="M96.578 82.824.283 126.632l96.295 54.324 97.803-53.777-97.803-44.355Z" />
        <g filter="url(#f)">
            <path fill="url(#g)" fill-opacity=".32"
                d="M.023 29.708v96.556l48.394 27.663 48.16 27.052.233-107.566L.023 29.708Z" />
        </g>
        <g filter="url(#h)">
            <path fill="url(#i)" fill-opacity=".32"
                d="M193.887 35.982 96.81 73.412l-.234 107.497 48.773-26.807 48.538-26.597V35.982Z" />
        </g>
        <g filter="url(#j)">
            <path fill="url(#k)" fill-rule="evenodd"
                d="M104.69 130.794c-28.2 4.039-54.337-15.549-58.377-43.752-4.038-28.198 15.55-54.334 43.75-58.373 28.199-4.04 54.337 15.548 58.375 43.745a51.35 51.35 0 0 1-5.254 31.042l43.429 28.075a7.616 7.616 0 0 1-8.579 12.585l-43.787-28.306a51.362 51.362 0 0 1-29.557 14.984Zm-2.772-16.322c19.388-2.777 32.854-20.746 30.077-40.136-2.777-19.385-20.747-32.852-40.133-30.075-19.387 2.777-32.855 20.746-30.078 40.131 2.777 19.39 20.747 32.857 40.134 30.08Z"
                clip-rule="evenodd" />
        </g>
    </g>
    <defs>
        <linearGradient id="c" x1="114.281" x2="136.418" y1="36.806" y2="61.798" gradientUnits="userSpaceOnUse">
            <stop stop-color="#F8F9FA" />
            <stop offset="1" stop-color="#0094FF" />
        </linearGradient>
        <linearGradient id="d" x1="-93.537" x2="115.75" y1="19.844" y2="27.823" gradientUnits="userSpaceOnUse">
            <stop stop-color="#0094FF" />
            <stop offset="1" stop-color="#fff" stop-opacity="0" />
        </linearGradient>
        <linearGradient id="g" x1="101.139" x2="18.237" y1="193.709" y2="47.129" gradientUnits="userSpaceOnUse">
            <stop stop-color="#0094FF" />
            <stop offset="1" stop-color="#fff" stop-opacity="0" />
        </linearGradient>
        <linearGradient id="i" x1="84.463" x2="206.113" y1="193.709" y2="20.344" gradientUnits="userSpaceOnUse">
            <stop stop-color="#0094FF" />
            <stop offset="1" stop-color="#fff" stop-opacity="0" />
        </linearGradient>
        <linearGradient id="k" x1="39" x2="204.743" y1="35.982" y2="115.526" gradientUnits="userSpaceOnUse">
            <stop stop-color="#4C54D2" />
            <stop offset=".563" stop-color="#BF14A2" />
            <stop offset="1" stop-color="#F73A1C" />
        </linearGradient>
        <filter id="a" width="245.773" height="232.392" x="-25.696" y="-25.589" color-interpolation-filters="sRGB"
            filterUnits="userSpaceOnUse">
            <feFlood flood-opacity="0" result="BackgroundImageFix" />
            <feGaussianBlur in="BackgroundImageFix" stdDeviation="12.848" />
            <feComposite in2="SourceAlpha" operator="in" result="effect1_backgroundBlur_6001_26875" />
            <feBlend in="SourceGraphic" in2="effect1_backgroundBlur_6001_26875" result="shape" />
        </filter>
        <filter id="b" width="204.946" height="84.344" x="-5.473" y="-5.366" color-interpolation-filters="sRGB"
            filterUnits="userSpaceOnUse">
            <feFlood flood-opacity="0" result="BackgroundImageFix" />
            <feGaussianBlur in="BackgroundImageFix" stdDeviation="2.737" />
            <feComposite in2="SourceAlpha" operator="in" result="effect1_backgroundBlur_6001_26875" />
            <feBlend in="SourceGraphic" in2="effect1_backgroundBlur_6001_26875" result="shape" />
        </filter>
        <filter id="f" width="107.733" height="162.218" x="-5.45" y="24.235" color-interpolation-filters="sRGB"
            filterUnits="userSpaceOnUse">
            <feFlood flood-opacity="0" result="BackgroundImageFix" />
            <feGaussianBlur in="BackgroundImageFix" stdDeviation="2.737" />
            <feComposite in2="SourceAlpha" operator="in" result="effect1_backgroundBlur_6001_26875" />
            <feBlend in="SourceGraphic" in2="effect1_backgroundBlur_6001_26875" result="shape" />
        </filter>
        <filter id="h" width="108.257" height="155.873" x="91.103" y="30.509" color-interpolation-filters="sRGB"
            filterUnits="userSpaceOnUse">
            <feFlood flood-opacity="0" result="BackgroundImageFix" />
            <feGaussianBlur in="BackgroundImageFix" stdDeviation="2.737" />
            <feComposite in2="SourceAlpha" operator="in" result="effect1_backgroundBlur_6001_26875" />
            <feBlend in="SourceGraphic" in2="effect1_backgroundBlur_6001_26875" result="shape" />
        </filter>
        <filter id="j" width="206.939" height="201.94" x="11" y="-9.302" color-interpolation-filters="sRGB"
            filterUnits="userSpaceOnUse">
            <feFlood flood-opacity="0" result="BackgroundImageFix" />
            <feColorMatrix in="SourceAlpha" result="hardAlpha" values="0 0 0 0 0 0 0 0 0 0 0 0 0 0 0 0 0 0 127 0" />
            <feOffset dy="1" />
            <feGaussianBlur stdDeviation="14" />
            <feComposite in2="hardAlpha" operator="out" />
            <feColorMatrix values="0 0 0 0 1 0 0 0 0 1 0 0 0 0 1 0 0 0 0.84 0" />
            <feBlend in2="BackgroundImageFix" result="effect1_dropShadow_6001_26875" />
            <feBlend in="SourceGraphic" in2="effect1_dropShadow_6001_26875" result="shape" />
        </filter>
        <radialGradient id="e" cx="0" cy="0" r="1" gradientTransform="matrix(0 49.0658 -97.0487 0 97.332 131.89)"
            gradientUnits="userSpaceOnUse">
            <stop offset=".689" stop-color="#fff" />
            <stop offset="1" stop-color="#0094FF" />
        </radialGradient>
    </defs>
</svg>
