<?xml version="1.0" encoding="UTF-8"?>
<!--Generator: Apple Native CoreSVG 175-->
<!DOCTYPE svg
PUBLIC "-//W3C//DTD SVG 1.1//EN"
       "http://www.w3.org/Graphics/SVG/1.1/DTD/svg11.dtd">
<svg version="1.1" xmlns="http://www.w3.org/2000/svg" xmlns:xlink="http://www.w3.org/1999/xlink" width="3300" height="2200">
 <!--glyph: "", point size: 100.0, font version: "17.3d3e1", template writer version: "65.1"-->
 <g id="Notes">
  <rect height="2200" id="artboard" style="fill:white;opacity:1" width="3300" x="0" y="0"/>
  <line style="fill:none;stroke:black;opacity:1;stroke-width:0.5;" x1="263" x2="3036" y1="292" y2="292"/>
  <text style="stroke:none;fill:black;font-family:sans-serif;font-size:13;font-weight:bold;" transform="matrix(1 0 0 1 263 322)">Weight/Scale Variations</text>
  <text style="stroke:none;fill:black;font-family:sans-serif;font-size:13;text-anchor:middle;" transform="matrix(1 0 0 1 559.711 322)">Ultralight</text>
  <text style="stroke:none;fill:black;font-family:sans-serif;font-size:13;text-anchor:middle;" transform="matrix(1 0 0 1 856.422 322)">Thin</text>
  <text style="stroke:none;fill:black;font-family:sans-serif;font-size:13;text-anchor:middle;" transform="matrix(1 0 0 1 1153.13 322)">Light</text>
  <text style="stroke:none;fill:black;font-family:sans-serif;font-size:13;text-anchor:middle;" transform="matrix(1 0 0 1 1449.84 322)">Regular</text>
  <text style="stroke:none;fill:black;font-family:sans-serif;font-size:13;text-anchor:middle;" transform="matrix(1 0 0 1 1746.56 322)">Medium</text>
  <text style="stroke:none;fill:black;font-family:sans-serif;font-size:13;text-anchor:middle;" transform="matrix(1 0 0 1 2043.27 322)">Semibold</text>
  <text style="stroke:none;fill:black;font-family:sans-serif;font-size:13;text-anchor:middle;" transform="matrix(1 0 0 1 2339.98 322)">Bold</text>
  <text style="stroke:none;fill:black;font-family:sans-serif;font-size:13;text-anchor:middle;" transform="matrix(1 0 0 1 2636.69 322)">Heavy</text>
  <text style="stroke:none;fill:black;font-family:sans-serif;font-size:13;text-anchor:middle;" transform="matrix(1 0 0 1 2933.4 322)">Black</text>
  <line style="fill:none;stroke:black;opacity:1;stroke-width:0.5;" x1="263" x2="3036" y1="1903" y2="1903"/>
  <g transform="matrix(1 0 0 1 263 1933)">
   <path d="M9.24805 0.830078Q10.8691 0.830078 12.2949 0.214844Q13.7207-0.400391 14.8096-1.49414Q15.8984-2.58789 16.5186-4.01367Q17.1387-5.43945 17.1387-7.05078Q17.1387-8.66211 16.5186-10.0879Q15.8984-11.5137 14.8047-12.6074Q13.7109-13.7012 12.2852-14.3164Q10.8594-14.9316 9.23828-14.9316Q7.62695-14.9316 6.20117-14.3164Q4.77539-13.7012 3.69141-12.6074Q2.60742-11.5137 1.9873-10.0879Q1.36719-8.66211 1.36719-7.05078Q1.36719-5.43945 1.9873-4.01367Q2.60742-2.58789 3.69629-1.49414Q4.78516-0.400391 6.21094 0.214844Q7.63672 0.830078 9.24805 0.830078ZM9.24805-0.654297Q7.91992-0.654297 6.7627-1.14746Q5.60547-1.64062 4.73145-2.51953Q3.85742-3.39844 3.36426-4.56055Q2.87109-5.72266 2.87109-7.05078Q2.87109-8.37891 3.35938-9.54102Q3.84766-10.7031 4.72168-11.582Q5.5957-12.4609 6.75293-12.9541Q7.91016-13.4473 9.23828-13.4473Q10.5762-13.4473 11.7334-12.9541Q12.8906-12.4609 13.7695-11.582Q14.6484-10.7031 15.1465-9.54102Q15.6445-8.37891 15.6445-7.05078Q15.6445-5.72266 15.1514-4.56055Q14.6582-3.39844 13.7842-2.51953Q12.9102-1.64062 11.748-1.14746Q10.5859-0.654297 9.24805-0.654297ZM5.6543-7.05078Q5.6543-6.72852 5.85938-6.52832Q6.06445-6.32812 6.40625-6.32812L8.51562-6.32812L8.51562-4.20898Q8.51562-3.88672 8.71094-3.67676Q8.90625-3.4668 9.23828-3.4668Q9.56055-3.4668 9.77051-3.67676Q9.98047-3.88672 9.98047-4.20898L9.98047-6.32812L12.0898-6.32812Q12.4219-6.32812 12.627-6.52832Q12.832-6.72852 12.832-7.05078Q12.832-7.38281 12.627-7.58789Q12.4219-7.79297 12.0898-7.79297L9.98047-7.79297L9.98047-9.90234Q9.98047-10.2344 9.77051-10.4443Q9.56055-10.6543 9.23828-10.6543Q8.90625-10.6543 8.71094-10.4443Q8.51562-10.2344 8.51562-9.90234L8.51562-7.79297L6.40625-7.79297Q6.06445-7.79297 5.85938-7.58789Q5.6543-7.38281 5.6543-7.05078Z"/>
  </g>
  <g transform="matrix(1 0 0 1 281.867 1933)">
   <path d="M11.709 2.91016Q13.75 2.91016 15.5518 2.12891Q17.3535 1.34766 18.7305-0.0292969Q20.1074-1.40625 20.8887-3.20801Q21.6699-5.00977 21.6699-7.05078Q21.6699-9.0918 20.8887-10.8936Q20.1074-12.6953 18.7305-14.0723Q17.3535-15.4492 15.5469-16.2305Q13.7402-17.0117 11.6992-17.0117Q9.6582-17.0117 7.85645-16.2305Q6.05469-15.4492 4.68262-14.0723Q3.31055-12.6953 2.5293-10.8936Q1.74805-9.0918 1.74805-7.05078Q1.74805-5.00977 2.5293-3.20801Q3.31055-1.40625 4.6875-0.0292969Q6.06445 1.34766 7.86621 2.12891Q9.66797 2.91016 11.709 2.91016ZM11.709 1.25Q9.98047 1.25 8.47656 0.605469Q6.97266-0.0390625 5.83496-1.17676Q4.69727-2.31445 4.05762-3.81836Q3.41797-5.32227 3.41797-7.05078Q3.41797-8.7793 4.05762-10.2832Q4.69727-11.7871 5.83008-12.9297Q6.96289-14.0723 8.4668-14.7119Q9.9707-15.3516 11.6992-15.3516Q13.4277-15.3516 14.9316-14.7119Q16.4355-14.0723 17.5781-12.9297Q18.7207-11.7871 19.3652-10.2832Q20.0098-8.7793 20.0098-7.05078Q20.0098-5.32227 19.3701-3.81836Q18.7305-2.31445 17.5928-1.17676Q16.4551-0.0390625 14.9463 0.605469Q13.4375 1.25 11.709 1.25ZM7.17773-7.05078Q7.17773-6.69922 7.41211-6.47461Q7.64648-6.25 8.01758-6.25L10.8887-6.25L10.8887-3.36914Q10.8887-2.99805 11.1133-2.76855Q11.3379-2.53906 11.6895-2.53906Q12.0605-2.53906 12.29-2.76855Q12.5195-2.99805 12.5195-3.36914L12.5195-6.25L15.4004-6.25Q15.7715-6.25 16.001-6.47461Q16.2305-6.69922 16.2305-7.05078Q16.2305-7.42188 16.001-7.65137Q15.7715-7.88086 15.4004-7.88086L12.5195-7.88086L12.5195-10.752Q12.5195-11.1328 12.29-11.3623Q12.0605-11.5918 11.6895-11.5918Q11.3379-11.5918 11.1133-11.3574Q10.8887-11.123 10.8887-10.752L10.8887-7.88086L8.01758-7.88086Q7.63672-7.88086 7.40723-7.65137Q7.17773-7.42188 7.17773-7.05078Z"/>
  </g>
  <g transform="matrix(1 0 0 1 305.646 1933)">
   <path d="M14.9707 5.66406Q17.0605 5.66406 18.96 5.01465Q20.8594 4.36523 22.4512 3.19336Q24.043 2.02148 25.2197 0.429688Q26.3965-1.16211 27.0459-3.06641Q27.6953-4.9707 27.6953-7.05078Q27.6953-9.14062 27.0459-11.04Q26.3965-12.9395 25.2197-14.5312Q24.043-16.123 22.4512-17.2998Q20.8594-18.4766 18.9551-19.126Q17.0508-19.7754 14.9609-19.7754Q12.8711-19.7754 10.9717-19.126Q9.07227-18.4766 7.48535-17.2998Q5.89844-16.123 4.72168-14.5312Q3.54492-12.9395 2.90039-11.04Q2.25586-9.14062 2.25586-7.05078Q2.25586-4.9707 2.90527-3.06641Q3.55469-1.16211 4.72656 0.429688Q5.89844 2.02148 7.49023 3.19336Q9.08203 4.36523 10.9814 5.01465Q12.8809 5.66406 14.9707 5.66406ZM14.9707 3.84766Q13.1641 3.84766 11.5283 3.2959Q9.89258 2.74414 8.53516 1.74805Q7.17773 0.751953 6.17676-0.610352Q5.17578-1.97266 4.62891-3.6084Q4.08203-5.24414 4.08203-7.05078Q4.08203-8.86719 4.62891-10.5029Q5.17578-12.1387 6.17188-13.501Q7.16797-14.8633 8.52539-15.8594Q9.88281-16.8555 11.5186-17.4023Q13.1543-17.9492 14.9609-17.9492Q16.7773-17.9492 18.4131-17.4023Q20.0488-16.8555 21.4111-15.8594Q22.7734-14.8633 23.7695-13.501Q24.7656-12.1387 25.3174-10.5029Q25.8691-8.86719 25.8691-7.05078Q25.8789-5.24414 25.332-3.6084Q24.7852-1.97266 23.7842-0.610352Q22.7832 0.751953 21.4209 1.74805Q20.0586 2.74414 18.4229 3.2959Q16.7871 3.84766 14.9707 3.84766ZM9.19922-7.05078Q9.19922-6.66992 9.45801-6.4209Q9.7168-6.17188 10.1172-6.17188L14.0625-6.17188L14.0625-2.2168Q14.0625-1.81641 14.3115-1.55762Q14.5605-1.29883 14.9512-1.29883Q15.3516-1.29883 15.6104-1.55273Q15.8691-1.80664 15.8691-2.2168L15.8691-6.17188L19.8242-6.17188Q20.2246-6.17188 20.4785-6.4209Q20.7324-6.66992 20.7324-7.05078Q20.7324-7.46094 20.4785-7.71484Q20.2246-7.96875 19.8242-7.96875L15.8691-7.96875L15.8691-11.9141Q15.8691-12.3242 15.6104-12.583Q15.3516-12.8418 14.9512-12.8418Q14.5605-12.8418 14.3115-12.583Q14.0625-12.3242 14.0625-11.9141L14.0625-7.96875L10.1172-7.96875Q9.70703-7.96875 9.45312-7.71484Q9.19922-7.46094 9.19922-7.05078Z"/>
  </g>
  <text style="stroke:none;fill:black;font-family:sans-serif;font-size:13;font-weight:bold;" transform="matrix(1 0 0 1 263 1953)">Design Variations</text>
  <text style="stroke:none;fill:black;font-family:sans-serif;font-size:13;" transform="matrix(1 0 0 1 263 1971)">Symbols are supported in up to nine weights and three scales.</text>
  <text style="stroke:none;fill:black;font-family:sans-serif;font-size:13;" transform="matrix(1 0 0 1 263 1989)">For optimal layout with text and other symbols, vertically align</text>
  <text style="stroke:none;fill:black;font-family:sans-serif;font-size:13;" transform="matrix(1 0 0 1 263 2007)">symbols with the adjacent text.</text>
  <line style="fill:none;stroke:#00AEEF;stroke-width:0.5;opacity:1.0;" x1="776" x2="776" y1="1919" y2="1933"/>
  <g transform="matrix(1 0 0 1 776 1933)">
   <path d="M3.31055 0.15625Q3.70117 0.15625 3.91602-0.00976562Q4.13086-0.175781 4.26758-0.585938L5.52734-4.0332L11.2891-4.0332L12.5488-0.585938Q12.6855-0.175781 12.9004-0.00976562Q13.1152 0.15625 13.4961 0.15625Q13.8867 0.15625 14.1162-0.0585938Q14.3457-0.273438 14.3457-0.644531Q14.3457-0.869141 14.2383-1.17188L9.6582-13.3691Q9.48242-13.8184 9.17969-14.043Q8.87695-14.2676 8.4082-14.2676Q7.5-14.2676 7.17773-13.3789L2.59766-1.16211Q2.49023-0.859375 2.49023-0.634766Q2.49023-0.263672 2.70996-0.0537109Q2.92969 0.15625 3.31055 0.15625ZM6.00586-5.51758L8.37891-12.0898L8.42773-12.0898L10.8008-5.51758Z"/>
  </g>
  <line style="fill:none;stroke:#00AEEF;stroke-width:0.5;opacity:1.0;" x1="793.197" x2="793.197" y1="1919" y2="1933"/>
  <text style="stroke:none;fill:black;font-family:sans-serif;font-size:13;font-weight:bold;" transform="matrix(1 0 0 1 776 1953)">Margins</text>
  <text style="stroke:none;fill:black;font-family:sans-serif;font-size:13;" transform="matrix(1 0 0 1 776 1971)">Leading and trailing margins on the left and right side of each symbol</text>
  <text style="stroke:none;fill:black;font-family:sans-serif;font-size:13;" transform="matrix(1 0 0 1 776 1989)">can be adjusted by modifying the x-location of the margin guidelines.</text>
  <text style="stroke:none;fill:black;font-family:sans-serif;font-size:13;" transform="matrix(1 0 0 1 776 2007)">Modifications are automatically applied proportionally to all</text>
  <text style="stroke:none;fill:black;font-family:sans-serif;font-size:13;" transform="matrix(1 0 0 1 776 2025)">scales and weights.</text>
  <g transform="matrix(1 0 0 1 1289 1933)">
   <path d="M2.8418 1.86523L4.54102 3.57422Q5.18555 4.22852 5.90332 4.17969Q6.62109 4.13086 7.31445 3.35938L18.0078-8.42773L17.041-9.4043L6.42578 2.27539Q6.16211 2.57812 5.89355 2.61719Q5.625 2.65625 5.27344 2.30469L4.10156 1.14258Q3.75 0.791016 3.79395 0.522461Q3.83789 0.253906 4.14062-0.0195312L15.6152-10.8203L14.6387-11.7871L3.04688-0.898438Q2.30469-0.214844 2.25098 0.498047Q2.19727 1.21094 2.8418 1.86523ZM9.25781-16.3281Q8.94531-16.0254 8.90625-15.6348Q8.86719-15.2441 9.04297-14.9512Q9.21875-14.6777 9.55566-14.541Q9.89258-14.4043 10.3809-14.5215Q11.4746-14.7754 12.5977-14.7314Q13.7207-14.6875 14.7949-13.9844L14.209-12.5293Q13.9551-11.9043 14.0674-11.4404Q14.1797-10.9766 14.5801-10.5664L16.875-8.25195Q17.2363-7.88086 17.5781-7.82227Q17.9199-7.76367 18.3398-7.8418L19.4043-8.03711L20.0684-7.36328L20.0293-6.80664Q20-6.43555 20.1221-6.12305Q20.2441-5.81055 20.6055-5.44922L21.3672-4.70703Q21.7285-4.3457 22.1533-4.33105Q22.5781-4.31641 22.9297-4.66797L25.8398-7.58789Q26.1914-7.93945 26.1816-8.35449Q26.1719-8.76953 25.8105-9.13086L25.0391-9.89258Q24.6875-10.2539 24.3799-10.3857Q24.0723-10.5176 23.7109-10.4883L23.1348-10.4395L22.4902-11.0742L22.7344-12.1973Q22.832-12.6172 22.6953-12.9834Q22.5586-13.3496 22.1191-13.7891L19.9219-15.9766Q18.6719-17.2168 17.2607-17.8369Q15.8496-18.457 14.4189-18.4814Q12.9883-18.5059 11.665-17.959Q10.3418-17.4121 9.25781-16.3281ZM10.752-15.957Q11.6602-16.6211 12.7002-16.9043Q13.7402-17.1875 14.8047-17.085Q15.8691-16.9824 16.8701-16.5137Q17.8711-16.0449 18.7012-15.2051L21.1328-12.793Q21.3086-12.6172 21.3525-12.4512Q21.3965-12.2852 21.3379-12.0312L21.0156-10.5469L22.5195-9.0625L23.5059-9.12109Q23.6914-9.13086 23.7891-9.09668Q23.8867-9.0625 24.0332-8.91602L24.6094-8.33984L22.168-5.89844L21.5918-6.47461Q21.4453-6.62109 21.4062-6.71875Q21.3672-6.81641 21.377-7.01172L21.4453-7.98828L19.9512-9.47266L18.4277-9.21875Q18.1836-9.16992 18.042-9.2041Q17.9004-9.23828 17.7148-9.41406L15.7129-11.416Q15.5176-11.5918 15.4932-11.7529Q15.4688-11.9141 15.5859-12.1875L16.4648-14.2773Q15.293-15.3711 13.8281-15.791Q12.3633-16.2109 10.8398-15.7617Q10.7227-15.7324 10.6885-15.8057Q10.6543-15.8789 10.752-15.957Z"/>
  </g>
  <text style="stroke:none;fill:black;font-family:sans-serif;font-size:13;font-weight:bold;" transform="matrix(1 0 0 1 1289 1953)">Exporting</text>
  <text style="stroke:none;fill:black;font-family:sans-serif;font-size:13;" transform="matrix(1 0 0 1 1289 1971)">Symbols should be outlined when exporting to ensure the</text>
  <text style="stroke:none;fill:black;font-family:sans-serif;font-size:13;" transform="matrix(1 0 0 1 1289 1989)">design is preserved when submitting to Xcode.</text>
  <text id="template-version" style="stroke:none;fill:black;font-family:sans-serif;font-size:13;text-anchor:end;" transform="matrix(1 0 0 1 3036 1933)">Template v.2.0</text>
  <text style="stroke:none;fill:black;font-family:sans-serif;font-size:13;text-anchor:end;" transform="matrix(1 0 0 1 3036 1951)">Requires Xcode 12 or greater</text>
  <text id="descriptive-name" style="stroke:none;fill:black;font-family:sans-serif;font-size:13;text-anchor:end;" transform="matrix(1 0 0 1 3036 1969)">Generated from brave.list.bullet.and.heart</text>
  <text style="stroke:none;fill:black;font-family:sans-serif;font-size:13;text-anchor:end;" transform="matrix(1 0 0 1 3036 1987)">Typeset at 100 points</text>
  <text style="stroke:none;fill:black;font-family:sans-serif;font-size:13;" transform="matrix(1 0 0 1 263 726)">Small</text>
  <text style="stroke:none;fill:black;font-family:sans-serif;font-size:13;" transform="matrix(1 0 0 1 263 1156)">Medium</text>
  <text style="stroke:none;fill:black;font-family:sans-serif;font-size:13;" transform="matrix(1 0 0 1 263 1586)">Large</text>
 </g>
 <g id="Guides">
  <g id="H-reference" style="fill:#27AAE1;stroke:none;" transform="matrix(1 0 0 1 339 696)">
   <path d="M0.993347 0L3.6377 0L29.3282-67.1326L30.0301-67.1326L30.0301-70.459L28.1227-70.459ZM11.6882-24.4797L46.9818-24.4797L46.2311-26.7288L12.4382-26.7288ZM55.1193 0L57.7637 0L30.6381-70.459L29.4327-70.459L29.4327-67.1326Z"/>
  </g>
  <line id="Baseline-S" style="fill:none;stroke:#27AAE1;opacity:1;stroke-width:0.5;" x1="263" x2="3036" y1="696" y2="696"/>
  <line id="Capline-S" style="fill:none;stroke:#27AAE1;opacity:1;stroke-width:0.5;" x1="263" x2="3036" y1="625.541" y2="625.541"/>
  <g id="H-reference" style="fill:#27AAE1;stroke:none;" transform="matrix(1 0 0 1 339 1126)">
   <path d="M0.993347 0L3.6377 0L29.3282-67.1326L30.0301-67.1326L30.0301-70.459L28.1227-70.459ZM11.6882-24.4797L46.9818-24.4797L46.2311-26.7288L12.4382-26.7288ZM55.1193 0L57.7637 0L30.6381-70.459L29.4327-70.459L29.4327-67.1326Z"/>
  </g>
  <line id="Baseline-M" style="fill:none;stroke:#27AAE1;opacity:1;stroke-width:0.5;" x1="263" x2="3036" y1="1126" y2="1126"/>
  <line id="Capline-M" style="fill:none;stroke:#27AAE1;opacity:1;stroke-width:0.5;" x1="263" x2="3036" y1="1055.54" y2="1055.54"/>
  <g id="H-reference" style="fill:#27AAE1;stroke:none;" transform="matrix(1 0 0 1 339 1556)">
   <path d="M0.993347 0L3.6377 0L29.3282-67.1326L30.0301-67.1326L30.0301-70.459L28.1227-70.459ZM11.6882-24.4797L46.9818-24.4797L46.2311-26.7288L12.4382-26.7288ZM55.1193 0L57.7637 0L30.6381-70.459L29.4327-70.459L29.4327-67.1326Z"/>
  </g>
  <line id="Baseline-L" style="fill:none;stroke:#27AAE1;opacity:1;stroke-width:0.5;" x1="263" x2="3036" y1="1556" y2="1556"/>
  <line id="Capline-L" style="fill:none;stroke:#27AAE1;opacity:1;stroke-width:0.5;" x1="263" x2="3036" y1="1485.54" y2="1485.54"/>
  <line id="left-margin" style="fill:none;stroke:#00AEEF;stroke-width:0.5;opacity:1.0;" x1="1400.42" x2="1400.42" y1="1030.78" y2="1150.12"/>
  <line id="right-margin" style="fill:none;stroke:#00AEEF;stroke-width:0.5;opacity:1.0;" x1="1499.27" x2="1499.27" y1="1030.78" y2="1150.12"/>
 </g>
 <g id="Symbols">
  <g id="Regular-L" transform="matrix(1 0 0 1 1388.42 1556)">
   <path d="M116.042-79.8198C116.01-79.7818 116.004-79.7383 115.972-79.7058L99.5993-61.5289C98.1032-59.8513 95.957-58.8795 93.7346-58.8795C93.7292-58.8795 93.7292-58.8795 93.7237-58.8795C91.5021-58.8795 89.3614-59.8459 87.8435-61.5343L71.4758-79.7058C71.4431-79.7438 71.4377-79.7927 71.4058-79.8307C65.4439-86.1665 65.4983-96.216 71.6492-102.438C77.5302-108.372 87.5838-108.502 93.7292-102.964C99.8753-108.497 109.929-108.361 115.793-102.443C121.944-96.2051 122.004-86.1502 116.042-79.8198ZM108.217-94.8532C106.211-96.8837 102.672-96.8891 100.645-94.8424C100.585-94.7826 100.51-94.7664 100.45-94.712C100.39-94.6578 100.369-94.5872 100.309-94.5329L97.1763-91.8726C96.9165-91.65 96.6125-91.5414 96.331-91.3786C96.1304-91.2645 95.957-91.1234 95.7509-91.0365C95.0954-90.7705 94.4181-90.5967 93.7299-90.5967C93.7299-90.5967 93.7299-90.5967 93.7245-90.5967C93.7245-90.5967 93.7245-90.5967 93.719-90.5967C93.0355-90.5967 92.3582-90.7651 91.7082-91.0365C91.4967-91.1234 91.3178-91.2645 91.1172-91.3786C90.8357-91.5414 90.5371-91.65 90.2774-91.8672L87.1444-94.5329C87.069-94.5926 87.0363-94.6849 86.971-94.75C86.922-94.7935 86.852-94.7989 86.8031-94.8424C84.7813-96.8837 81.2588-96.8891 79.2261-94.8424C77.1235-92.7195 77.1235-89.2449 79.2316-87.1112C79.2642-87.0786 79.2697-87.0406 79.3023-87.0081C79.3295-86.9755 79.3731-86.9646 79.405-86.9321L93.7245-71.03L108.049-86.9321C108.076-86.9646 108.119-86.9755 108.146-87.0081C108.179-87.0406 108.184-87.0786 108.217-87.1112C110.325-89.2449 110.325-92.7195 108.217-94.8532ZM39.5485-4.56568L34.1992-4.56568C31.2455-4.56568 28.8554-6.97669 28.8554-9.94654C28.8554-12.9156 31.2455-15.3266 34.1992-15.3266L39.5485-15.3266C42.5023-15.3266 44.8923-12.9156 44.8923-9.94654C44.8923-6.97669 42.5023-4.56568 39.5485-4.56568ZM39.5485-36.8477L34.1992-36.8477C31.2455-36.8477 28.8554-39.2526 28.8554-42.2278C28.8554-45.1979 31.2455-47.603 34.1992-47.603L39.5485-47.603C42.5023-47.603 44.8923-45.1979 44.8923-42.2278C44.8923-39.2526 42.5023-36.8477 39.5485-36.8477ZM39.5485-20.7067L34.1992-20.7067C31.2455-20.7067 28.8554-23.1177 28.8554-26.0868C28.8554-29.0566 31.2455-31.4677 34.1992-31.4677L39.5485-31.4677C42.5023-31.4677 44.8923-29.0566 44.8923-26.0868C44.8923-23.1177 42.5023-20.7067 39.5485-20.7067ZM87.6646-4.56568L55.5857-4.56568C52.6319-4.56568 50.2419-6.97669 50.2419-9.94654C50.2419-12.9156 52.6319-15.3266 55.5857-15.3266L87.6646-15.3266C90.6187-15.3266 93.0145-12.9156 93.0145-9.94654C93.0145-6.97669 90.6187-4.56568 87.6646-4.56568ZM87.6646-36.8477L55.5857-36.8477C52.6319-36.8477 50.2419-39.2526 50.2419-42.2278C50.2419-45.1979 52.6319-47.603 55.5857-47.603L87.6646-47.603C90.6187-47.603 93.0145-45.1979 93.0145-42.2278C93.0145-39.2526 90.6187-36.8477 87.6646-36.8477ZM87.6646-20.7067L55.5857-20.7067C52.6319-20.7067 50.2419-23.1177 50.2419-26.0868C50.2419-29.0566 52.6319-31.4677 55.5857-31.4677L87.6646-31.4677C90.6187-31.4677 93.0145-29.0566 93.0145-26.0868C93.0145-23.1177 90.6187-20.7067 87.6646-20.7067ZM55.4772-85.9005L23.3003-85.9005L23.3003 11.8246L99.1762 11.8246L99.1762-47.8962C99.1762-50.866 101.642-53.3254 104.596-53.3254C107.55-53.3254 110.016-50.866 110.016-47.8962L110.016 11.8246C110.016 16.9663 103.041 21.9934 97.9515 21.9934L20.1894 21.9934C15.1003 21.9934 12.4609 16.9663 12.4609 11.8246L12.4609-85.9005C12.4609-91.0419 15.1003-96.3625 20.1894-96.3625L53.3852-96.3625C56.339-96.3625 58.729-93.9574 58.729-90.9822C58.729-88.0124 58.4364-85.9005 55.4772-85.9005Z"/>
  </g>
  <g id="Regular-M" transform="matrix(1 0 0 1 1400.42 1126)">
   <path d="M93.0243-69.6569C92.9989-69.6274 92.9947-69.5937 92.9693-69.5685L80.2352-55.4778C79.0715-54.1774 77.4023-53.424 75.6738-53.424C75.6695-53.424 75.6695-53.424 75.6653-53.424C73.9374-53.424 72.2724-54.1732 71.0918-55.482L58.3614-69.5685C58.3359-69.598 58.3317-69.6358 58.3069-69.6653C53.6699-74.5768 53.7122-82.3671 58.4962-87.1902C63.0703-91.7903 70.8898-91.8912 75.6695-87.5984C80.4499-91.887 88.2694-91.7818 92.8302-87.1944C97.6147-82.3586 97.6613-74.5642 93.0243-69.6569ZM86.9376-81.3106C85.3778-82.8847 82.6254-82.8889 81.0486-81.3022C81.0021-81.2559 80.9434-81.2433 80.8968-81.2012C80.8503-81.1591 80.8339-81.1044 80.7874-81.0624L78.3506-79.0001C78.1486-78.8275 77.9121-78.7434 77.6932-78.6171C77.5372-78.5287 77.4023-78.4193 77.242-78.352C76.7322-78.1458 76.2054-78.0111 75.6701-78.0111C75.6701-78.0111 75.6701-78.0111 75.6659-78.0111C75.6659-78.0111 75.6659-78.0111 75.6617-78.0111C75.1301-78.0111 74.6033-78.1416 74.0977-78.352C73.9332-78.4193 73.7941-78.5287 73.638-78.6171C73.4191-78.7434 73.1868-78.8275 72.9848-78.9959L70.5481-81.0624C70.4894-81.1086 70.464-81.1802 70.4132-81.2307C70.3751-81.2644 70.3207-81.2686 70.2826-81.3022C68.7101-82.8847 65.9703-82.8889 64.3894-81.3022C62.754-79.6566 62.754-76.9631 64.3936-75.3091C64.419-75.2838 64.4233-75.2543 64.4487-75.2291C64.4698-75.2039 64.5037-75.1954 64.5285-75.1702L75.6659-62.843L86.8069-75.1702C86.8281-75.1954 86.8614-75.2039 86.8825-75.2291C86.9079-75.2543 86.9122-75.2838 86.9376-75.3091C88.5772-76.9631 88.5772-79.6566 86.9376-81.3106ZM33.529-11.3203L29.3685-11.3203C27.0711-11.3203 25.2122-13.1893 25.2122-15.4915C25.2122-17.7931 27.0711-19.6621 29.3685-19.6621L33.529-19.6621C35.8264-19.6621 37.6853-17.7931 37.6853-15.4915C37.6853-13.1893 35.8264-11.3203 33.529-11.3203ZM33.529-36.3452L29.3685-36.3452C27.0711-36.3452 25.2122-38.2094 25.2122-40.5158C25.2122-42.8182 27.0711-44.6826 29.3685-44.6826L33.529-44.6826C35.8264-44.6826 37.6853-42.8182 37.6853-40.5158C37.6853-38.2094 35.8264-36.3452 33.529-36.3452ZM33.529-23.8327L29.3685-23.8327C27.0711-23.8327 25.2122-25.7017 25.2122-28.0033C25.2122-30.3056 27.0711-32.1746 29.3685-32.1746L33.529-32.1746C35.8264-32.1746 37.6853-30.3056 37.6853-28.0033C37.6853-25.7017 35.8264-23.8327 33.529-23.8327ZM70.9527-11.3203L46.0024-11.3203C43.705-11.3203 41.8461-13.1893 41.8461-15.4915C41.8461-17.7931 43.705-19.6621 46.0024-19.6621L70.9527-19.6621C73.2503-19.6621 75.1137-17.7931 75.1137-15.4915C75.1137-13.1893 73.2503-11.3203 70.9527-11.3203ZM70.9527-36.3452L46.0024-36.3452C43.705-36.3452 41.8461-38.2094 41.8461-40.5158C41.8461-42.8182 43.705-44.6826 46.0024-44.6826L70.9527-44.6826C73.2503-44.6826 75.1137-42.8182 75.1137-40.5158C75.1137-38.2094 73.2503-36.3452 70.9527-36.3452ZM70.9527-23.8327L46.0024-23.8327C43.705-23.8327 41.8461-25.7017 41.8461-28.0033C41.8461-30.3056 43.705-32.1746 46.0024-32.1746L70.9527-32.1746C73.2503-32.1746 75.1137-30.3056 75.1137-28.0033C75.1137-25.7017 73.2503-23.8327 70.9527-23.8327ZM45.9181-74.3705L20.8916-74.3705L20.8916 1.38531L79.9062 1.38531L79.9062-44.9099C79.9062-47.212 81.824-49.1185 84.1216-49.1185C86.4193-49.1185 88.3371-47.212 88.3371-44.9099L88.3371 1.38531C88.3371 5.37112 82.912 9.26813 78.9536 9.26813L18.472 9.26813C14.5138 9.26813 12.4609 5.37112 12.4609 1.38531L12.4609-74.3705C12.4609-78.3562 14.5138-82.4806 18.472-82.4806L44.2909-82.4806C46.5883-82.4806 48.4472-80.6162 48.4472-78.3099C48.4472-76.0077 48.2196-74.3705 45.9181-74.3705Z"/>
  </g>
  <g id="Regular-S" transform="matrix(1 0 0 1 1409.42 696)">
   <path d="M75.7607-62.2667C75.7408-62.2434 75.7374-62.2167 75.7175-62.1968L65.7121-51.0652C64.7978-50.0379 63.4863-49.4427 62.1282-49.4427C62.1248-49.4427 62.1248-49.4427 62.1215-49.4427C60.7639-49.4427 59.4556-50.0345 58.528-51.0685L48.5255-62.1968C48.5056-62.2201 48.5023-62.25 48.4828-62.2733C44.8394-66.1534 44.8727-72.3077 48.6315-76.118C52.2255-79.752 58.3693-79.8318 62.1248-76.4405C65.8808-79.8285 72.0247-79.7453 75.6082-76.1213C79.3675-72.301 79.4041-66.1434 75.7607-62.2667ZM70.9783-71.4731C69.7528-72.7166 67.5901-72.7199 66.3513-71.4665C66.3147-71.4299 66.2686-71.4199 66.232-71.3867C66.1954-71.3534 66.1826-71.3102 66.146-71.277L64.2314-69.6478C64.0727-69.5115 63.8869-69.445 63.7149-69.3452C63.5923-69.2754 63.4863-69.189 63.3604-69.1358C62.9598-68.9729 62.5459-68.8665 62.1253-68.8665C62.1253-68.8665 62.1253-68.8665 62.122-68.8665C62.122-68.8665 62.122-68.8665 62.1187-68.8665C61.701-68.8665 61.2871-68.9696 60.8898-69.1358C60.7605-69.189 60.6512-69.2754 60.5286-69.3452C60.3566-69.445 60.1741-69.5115 60.0154-69.6445L58.1008-71.277C58.0547-71.3135 58.0348-71.3701 57.9949-71.4099C57.9649-71.4366 57.9222-71.4399 57.8922-71.4665C56.6567-72.7166 54.504-72.7199 53.2619-71.4665C51.9769-70.1665 51.9769-68.0386 53.2652-66.7319C53.2851-66.7119 53.2885-66.6887 53.3084-66.6688C53.3251-66.6488 53.3517-66.6421 53.3712-66.6222L62.122-56.8837L70.8757-66.6222C70.8923-66.6421 70.9184-66.6488 70.9351-66.6688C70.955-66.6887 70.9583-66.7119 70.9783-66.7319C72.2666-68.0386 72.2666-70.1665 70.9783-71.4731ZM29.0144-16.1808L25.7454-16.1808C23.9404-16.1808 22.4797-17.6573 22.4797-19.476C22.4797-21.2943 23.9404-22.7708 25.7454-22.7708L29.0144-22.7708C30.8195-22.7708 32.2801-21.2943 32.2801-19.476C32.2801-17.6573 30.8195-16.1808 29.0144-16.1808ZM29.0144-35.9504L25.7454-35.9504C23.9404-35.9504 22.4797-37.4231 22.4797-39.2452C22.4797-41.0641 23.9404-42.537 25.7454-42.537L29.0144-42.537C30.8195-42.537 32.2801-41.0641 32.2801-39.2452C32.2801-37.4231 30.8195-35.9504 29.0144-35.9504ZM29.0144-26.0656L25.7454-26.0656C23.9404-26.0656 22.4797-27.5421 22.4797-29.3604C22.4797-31.1791 23.9404-32.6556 25.7454-32.6556L29.0144-32.6556C30.8195-32.6556 32.2801-31.1791 32.2801-29.3604C32.2801-27.5421 30.8195-26.0656 29.0144-26.0656ZM58.4187-16.1808L38.815-16.1808C37.0099-16.1808 35.5493-17.6573 35.5493-19.476C35.5493-21.2943 37.0099-22.7708 38.815-22.7708L58.4187-22.7708C60.224-22.7708 61.6881-21.2943 61.6881-19.476C61.6881-17.6573 60.224-16.1808 58.4187-16.1808ZM58.4187-35.9504L38.815-35.9504C37.0099-35.9504 35.5493-37.4231 35.5493-39.2452C35.5493-41.0641 37.0099-42.537 38.815-42.537L58.4187-42.537C60.224-42.537 61.6881-41.0641 61.6881-39.2452C61.6881-37.4231 60.224-35.9504 58.4187-35.9504ZM58.4187-26.0656L38.815-26.0656C37.0099-26.0656 35.5493-27.5421 35.5493-29.3604C35.5493-31.1791 37.0099-32.6556 38.815-32.6556L58.4187-32.6556C60.224-32.6556 61.6881-31.1791 61.6881-29.3604C61.6881-27.5421 60.224-26.0656 58.4187-26.0656ZM38.7487-65.9905L19.085-65.9905L19.085-6.14333L65.4536-6.14333L65.4536-42.7165C65.4536-44.5352 66.9605-46.0414 68.7658-46.0414C70.571-46.0414 72.0779-44.5352 72.0779-42.7165L72.0779-6.14333C72.0779-2.99454 67.8154 0.0840969 64.7052 0.0840969L17.1839 0.0840969C14.0739 0.0840969 12.4609-2.99454 12.4609-6.14333L12.4609-65.9905C12.4609-69.1391 14.0739-72.3974 17.1839-72.3974L37.4702-72.3974C39.2753-72.3974 40.7359-70.9245 40.7359-69.1025C40.7359-67.2838 40.557-65.9905 38.7487-65.9905Z"/>
  </g>
 </g>
</svg>
