<svg width="24" height="24" viewBox="0 0 24 24" fill="none" xmlns="http://www.w3.org/2000/svg">
<g clip-path="url(#clip0_3713_14995)">
<path d="M12 24C18.6274 24 24 18.6274 24 12C24 5.37258 18.6274 0 12 0C5.37258 0 0 5.37258 0 12C0 18.6274 5.37258 24 12 24Z" fill="#FF0420"/>
<path fill-rule="evenodd" clip-rule="evenodd" d="M6.74418 14.6832C7.20018 15.0192 7.78578 15.1872 8.50098 15.1872C9.36498 15.1872 10.0562 14.9904 10.5698 14.5872C11.0882 14.1792 11.4482 13.56 11.6594 12.7392C11.789 12.2352 11.8946 11.712 11.9858 11.1792C12.0146 10.9872 12.029 10.8288 12.029 10.704C12.029 10.2864 11.9234 9.92639 11.7122 9.62399C11.501 9.31679 11.213 9.08639 10.8482 8.93759C10.4834 8.77919 10.0658 8.70239 9.60498 8.70239C7.90578 8.70239 6.84978 9.52799 6.44178 11.1792C6.29778 11.7888 6.18738 12.3072 6.11058 12.7392C6.08178 12.9312 6.06738 13.0896 6.06738 13.224C6.06738 13.8528 6.29298 14.3424 6.74418 14.6832ZM9.48498 13.5936C9.24978 13.7904 8.96658 13.8912 8.63058 13.8912C8.05458 13.8912 7.76178 13.6176 7.76658 13.0608C7.76658 12.9264 7.78098 12.8016 7.80498 12.6816C7.91538 12.096 8.02098 11.6064 8.13138 11.2032C8.23218 10.7904 8.40018 10.488 8.63538 10.2912C8.87538 10.0944 9.16338 9.99359 9.49938 9.99359C10.0706 9.99359 10.3538 10.2672 10.3538 10.8144C10.3538 10.9488 10.3394 11.0784 10.3154 11.2032C10.2434 11.6256 10.1378 12.1152 9.99858 12.6816C9.89778 13.0944 9.72498 13.3968 9.48498 13.5936ZM12.0326 15.2448C12.071 15.288 12.119 15.3072 12.1862 15.3072H13.4102C13.4726 15.3072 13.5302 15.288 13.583 15.2448C13.6406 15.2016 13.6694 15.1488 13.6838 15.0816L14.0966 13.1088H15.311C16.0982 13.1088 16.7174 12.9456 17.1686 12.6144C17.6294 12.2832 17.9318 11.7744 18.0806 11.0832C18.1142 10.92 18.1334 10.7616 18.1334 10.6128C18.1334 10.0896 17.927 9.6912 17.519 9.4128C17.1158 9.1392 16.583 9 15.9158 9H13.5206C13.4582 9 13.4006 9.0192 13.3478 9.0624C13.2902 9.1056 13.2566 9.1584 13.247 9.2256L12.0038 15.0816C11.9942 15.144 12.0038 15.1968 12.0326 15.2448ZM16.031 11.6592C15.8438 11.7984 15.6278 11.8656 15.3734 11.8656H14.3414L14.6822 10.2528H15.7622C16.007 10.2528 16.1846 10.3008 16.2854 10.3968C16.3862 10.488 16.439 10.6224 16.439 10.7952C16.439 10.872 16.4294 10.9632 16.4102 11.064C16.3478 11.3232 16.223 11.52 16.031 11.6592Z" fill="white"/>
</g>
<defs>
<clipPath id="clip0_3713_14995">
<rect width="24" height="24" fill="white"/>
</clipPath>
</defs>
</svg>
