<?xml version="1.0" encoding="UTF-8"?>
<!--Generator: Apple Native CoreSVG 175.5-->
<!DOCTYPE svg
PUBLIC "-//W3C//DTD SVG 1.1//EN"
       "http://www.w3.org/Graphics/SVG/1.1/DTD/svg11.dtd">
<svg version="1.1" xmlns="http://www.w3.org/2000/svg" xmlns:xlink="http://www.w3.org/1999/xlink" width="3300" height="2200">
 <!--glyph: "", point size: 100.0, font version: "18.0d12e2", template writer version: "101"-->
 <g id="Notes">
  <rect height="2200" id="artboard" style="fill:white;opacity:1" width="3300" x="0" y="0"/>
  <line style="fill:none;stroke:black;opacity:1;stroke-width:0.5;" x1="263" x2="3036" y1="292" y2="292"/>
  <text style="stroke:none;fill:black;font-family:sans-serif;font-size:13;font-weight:bold;" transform="matrix(1 0 0 1 263 322)">Weight/Scale Variations</text>
  <text style="stroke:none;fill:black;font-family:sans-serif;font-size:13;text-anchor:middle;" transform="matrix(1 0 0 1 559.711 322)">Ultralight</text>
  <text style="stroke:none;fill:black;font-family:sans-serif;font-size:13;text-anchor:middle;" transform="matrix(1 0 0 1 856.422 322)">Thin</text>
  <text style="stroke:none;fill:black;font-family:sans-serif;font-size:13;text-anchor:middle;" transform="matrix(1 0 0 1 1153.13 322)">Light</text>
  <text style="stroke:none;fill:black;font-family:sans-serif;font-size:13;text-anchor:middle;" transform="matrix(1 0 0 1 1449.84 322)">Regular</text>
  <text style="stroke:none;fill:black;font-family:sans-serif;font-size:13;text-anchor:middle;" transform="matrix(1 0 0 1 1746.56 322)">Medium</text>
  <text style="stroke:none;fill:black;font-family:sans-serif;font-size:13;text-anchor:middle;" transform="matrix(1 0 0 1 2043.27 322)">Semibold</text>
  <text style="stroke:none;fill:black;font-family:sans-serif;font-size:13;text-anchor:middle;" transform="matrix(1 0 0 1 2339.98 322)">Bold</text>
  <text style="stroke:none;fill:black;font-family:sans-serif;font-size:13;text-anchor:middle;" transform="matrix(1 0 0 1 2636.69 322)">Heavy</text>
  <text style="stroke:none;fill:black;font-family:sans-serif;font-size:13;text-anchor:middle;" transform="matrix(1 0 0 1 2933.4 322)">Black</text>
  <line style="fill:none;stroke:black;opacity:1;stroke-width:0.5;" x1="263" x2="3036" y1="1903" y2="1903"/>
  <g transform="matrix(1 0 0 1 263 1933)">
   <path d="M9.24805 0.830078C13.5547 0.830078 17.1387-2.74414 17.1387-7.05078C17.1387-11.3574 13.5449-14.9316 9.23828-14.9316C4.94141-14.9316 1.36719-11.3574 1.36719-7.05078C1.36719-2.74414 4.95117 0.830078 9.24805 0.830078ZM9.24805-0.654297C5.70312-0.654297 2.87109-3.49609 2.87109-7.05078C2.87109-10.6055 5.69336-13.4473 9.23828-13.4473C12.793-13.4473 15.6445-10.6055 15.6445-7.05078C15.6445-3.49609 12.8027-0.654297 9.24805-0.654297ZM5.6543-7.05078C5.6543-6.62109 5.95703-6.32812 6.40625-6.32812L8.50586-6.32812L8.50586-4.20898C8.50586-3.76953 8.79883-3.4668 9.22852-3.4668C9.67773-3.4668 9.9707-3.76953 9.9707-4.20898L9.9707-6.32812L12.0898-6.32812C12.5293-6.32812 12.832-6.62109 12.832-7.05078C12.832-7.49023 12.5293-7.79297 12.0898-7.79297L9.9707-7.79297L9.9707-9.90234C9.9707-10.3516 9.67773-10.6543 9.22852-10.6543C8.79883-10.6543 8.50586-10.3516 8.50586-9.90234L8.50586-7.79297L6.40625-7.79297C5.95703-7.79297 5.6543-7.49023 5.6543-7.05078Z"/>
  </g>
  <g transform="matrix(1 0 0 1 281.867 1933)">
   <path d="M11.709 2.91016C17.1582 2.91016 21.6699-1.61133 21.6699-7.05078C21.6699-12.5 17.1484-17.0117 11.6992-17.0117C6.25977-17.0117 1.74805-12.5 1.74805-7.05078C1.74805-1.61133 6.26953 2.91016 11.709 2.91016ZM11.709 1.25C7.09961 1.25 3.41797-2.44141 3.41797-7.05078C3.41797-11.6602 7.08984-15.3516 11.6992-15.3516C16.3086-15.3516 20.0098-11.6602 20.0098-7.05078C20.0098-2.44141 16.3184 1.25 11.709 1.25ZM7.17773-7.05078C7.17773-6.57227 7.50977-6.25 8.00781-6.25L10.8789-6.25L10.8789-3.36914C10.8789-2.88086 11.2109-2.53906 11.6895-2.53906C12.1777-2.53906 12.5195-2.87109 12.5195-3.36914L12.5195-6.25L15.4004-6.25C15.8887-6.25 16.2305-6.57227 16.2305-7.05078C16.2305-7.53906 15.8887-7.88086 15.4004-7.88086L12.5195-7.88086L12.5195-10.752C12.5195-11.25 12.1777-11.5918 11.6895-11.5918C11.2109-11.5918 10.8789-11.25 10.8789-10.752L10.8789-7.88086L8.00781-7.88086C7.50977-7.88086 7.17773-7.53906 7.17773-7.05078Z"/>
  </g>
  <g transform="matrix(1 0 0 1 305.646 1933)">
   <path d="M14.9707 5.66406C21.9336 5.66406 27.6953-0.0976562 27.6953-7.05078C27.6953-14.0137 21.9238-19.7754 14.9609-19.7754C8.00781-19.7754 2.25586-14.0137 2.25586-7.05078C2.25586-0.0976562 8.01758 5.66406 14.9707 5.66406ZM14.9707 3.84766C8.93555 3.84766 4.08203-1.01562 4.08203-7.05078C4.08203-13.0957 8.92578-17.9492 14.9609-17.9492C21.0059-17.9492 25.8691-13.0957 25.8691-7.05078C25.8691-1.01562 21.0156 3.84766 14.9707 3.84766ZM9.19922-7.05078C9.19922-6.5332 9.57031-6.17188 10.1172-6.17188L14.0625-6.17188L14.0625-2.2168C14.0625-1.67969 14.4336-1.29883 14.9512-1.29883C15.4883-1.29883 15.8594-1.66992 15.8594-2.2168L15.8594-6.17188L19.8145-6.17188C20.3516-6.17188 20.7324-6.5332 20.7324-7.05078C20.7324-7.59766 20.3613-7.96875 19.8145-7.96875L15.8594-7.96875L15.8594-11.9141C15.8594-12.4609 15.4883-12.8418 14.9512-12.8418C14.4336-12.8418 14.0625-12.4609 14.0625-11.9141L14.0625-7.96875L10.1172-7.96875C9.57031-7.96875 9.19922-7.59766 9.19922-7.05078Z"/>
  </g>
  <text style="stroke:none;fill:black;font-family:sans-serif;font-size:13;font-weight:bold;" transform="matrix(1 0 0 1 263 1953)">Design Variations</text>
  <text style="stroke:none;fill:black;font-family:sans-serif;font-size:13;" transform="matrix(1 0 0 1 263 1971)">Symbols are supported in up to nine weights and three scales.</text>
  <text style="stroke:none;fill:black;font-family:sans-serif;font-size:13;" transform="matrix(1 0 0 1 263 1989)">For optimal layout with text and other symbols, vertically align</text>
  <text style="stroke:none;fill:black;font-family:sans-serif;font-size:13;" transform="matrix(1 0 0 1 263 2007)">symbols with the adjacent text.</text>
  <line style="fill:none;stroke:#00AEEF;stroke-width:0.5;opacity:1.0;" x1="776" x2="776" y1="1919" y2="1933"/>
  <g transform="matrix(1 0 0 1 776 1933)">
   <path d="M3.31055 0.15625C3.82812 0.15625 4.08203-0.0390625 4.26758-0.585938L5.52734-4.0332L11.2891-4.0332L12.5488-0.585938C12.7344-0.0390625 12.9883 0.15625 13.4961 0.15625C14.0137 0.15625 14.3457-0.15625 14.3457-0.644531C14.3457-0.810547 14.3164-0.966797 14.2383-1.17188L9.6582-13.3691C9.43359-13.9648 9.0332-14.2676 8.4082-14.2676C7.80273-14.2676 7.39258-13.9746 7.17773-13.3789L2.59766-1.16211C2.51953-0.957031 2.49023-0.800781 2.49023-0.634766C2.49023-0.146484 2.80273 0.15625 3.31055 0.15625ZM6.00586-5.51758L8.37891-12.0898L8.42773-12.0898L10.8008-5.51758Z"/>
  </g>
  <line style="fill:none;stroke:#00AEEF;stroke-width:0.5;opacity:1.0;" x1="793.197" x2="793.197" y1="1919" y2="1933"/>
  <text style="stroke:none;fill:black;font-family:sans-serif;font-size:13;font-weight:bold;" transform="matrix(1 0 0 1 776 1953)">Margins</text>
  <text style="stroke:none;fill:black;font-family:sans-serif;font-size:13;" transform="matrix(1 0 0 1 776 1971)">Leading and trailing margins on the left and right side of each symbol</text>
  <text style="stroke:none;fill:black;font-family:sans-serif;font-size:13;" transform="matrix(1 0 0 1 776 1989)">can be adjusted by modifying the x-location of the margin guidelines.</text>
  <text style="stroke:none;fill:black;font-family:sans-serif;font-size:13;" transform="matrix(1 0 0 1 776 2007)">Modifications are automatically applied proportionally to all</text>
  <text style="stroke:none;fill:black;font-family:sans-serif;font-size:13;" transform="matrix(1 0 0 1 776 2025)">scales and weights.</text>
  <g transform="matrix(1 0 0 1 1289 1933)">
   <path d="M2.8418 1.86523L4.54102 3.57422C5.40039 4.44336 6.38672 4.38477 7.31445 3.35938L18.0078-8.42773L17.041-9.4043L6.42578 2.27539C6.07422 2.67578 5.74219 2.77344 5.27344 2.30469L4.10156 1.14258C3.63281 0.683594 3.74023 0.341797 4.14062-0.0195312L15.6152-10.8203L14.6387-11.7871L3.04688-0.898438C2.06055 0.0195312 1.98242 0.996094 2.8418 1.86523ZM9.25781-16.3281C8.83789-15.918 8.80859-15.3418 9.04297-14.9512C9.27734-14.5898 9.73633-14.3555 10.3809-14.5215C11.8457-14.8633 13.3691-14.9219 14.7949-13.9844L14.209-12.5293C13.8672-11.6992 14.043-11.1133 14.5801-10.5664L16.875-8.25195C17.3633-7.76367 17.7734-7.74414 18.3398-7.8418L19.4043-8.03711L20.0684-7.36328L20.0293-6.80664C19.9902-6.30859 20.1172-5.92773 20.6055-5.44922L21.3672-4.70703C21.8457-4.22852 22.4609-4.19922 22.9297-4.66797L25.8398-7.58789C26.3086-8.05664 26.2891-8.65234 25.8105-9.13086L25.0391-9.89258C24.5605-10.3711 24.1895-10.5273 23.7109-10.4883L23.1348-10.4395L22.4902-11.0742L22.7344-12.1973C22.8613-12.7637 22.7051-13.2031 22.1191-13.7891L19.9219-15.9766C16.582-19.2969 12.1484-19.2188 9.25781-16.3281ZM10.752-15.957C13.1836-17.7344 16.4746-17.4316 18.7012-15.2051L21.1328-12.793C21.3672-12.5586 21.4062-12.373 21.3379-12.0312L21.0156-10.5469L22.5195-9.0625L23.5059-9.12109C23.7598-9.13086 23.8379-9.11133 24.0332-8.91602L24.6094-8.33984L22.168-5.89844L21.5918-6.47461C21.3965-6.66992 21.3672-6.74805 21.377-7.01172L21.4453-7.98828L19.9512-9.47266L18.4277-9.21875C18.1055-9.15039 17.959-9.17969 17.7148-9.41406L15.7129-11.416C15.459-11.6504 15.4297-11.8164 15.5859-12.1875L16.4648-14.2773C14.9023-15.7324 12.8711-16.3574 10.8398-15.7617C10.6836-15.7227 10.625-15.8496 10.752-15.957Z"/>
  </g>
  <text style="stroke:none;fill:black;font-family:sans-serif;font-size:13;font-weight:bold;" transform="matrix(1 0 0 1 1289 1953)">Exporting</text>
  <text style="stroke:none;fill:black;font-family:sans-serif;font-size:13;" transform="matrix(1 0 0 1 1289 1971)">Symbols should be outlined when exporting to ensure the</text>
  <text style="stroke:none;fill:black;font-family:sans-serif;font-size:13;" transform="matrix(1 0 0 1 1289 1989)">design is preserved when submitting to Xcode.</text>
  <text id="template-version" style="stroke:none;fill:black;font-family:sans-serif;font-size:13;text-anchor:end;" transform="matrix(1 0 0 1 3036 1933)">Template v.2.0</text>
  <text style="stroke:none;fill:black;font-family:sans-serif;font-size:13;text-anchor:end;" transform="matrix(1 0 0 1 3036 1951)">Requires Xcode 12 or greater</text>
  <text id="descriptive-name" style="stroke:none;fill:black;font-family:sans-serif;font-size:13;text-anchor:end;" transform="matrix(1 0 0 1 3036 1969)">Generated from brave.heart.and.hands</text>
  <text style="stroke:none;fill:black;font-family:sans-serif;font-size:13;text-anchor:end;" transform="matrix(1 0 0 1 3036 1987)">Typeset at 100 points</text>
  <text style="stroke:none;fill:black;font-family:sans-serif;font-size:13;" transform="matrix(1 0 0 1 263 726)">Small</text>
  <text style="stroke:none;fill:black;font-family:sans-serif;font-size:13;" transform="matrix(1 0 0 1 263 1156)">Medium</text>
  <text style="stroke:none;fill:black;font-family:sans-serif;font-size:13;" transform="matrix(1 0 0 1 263 1586)">Large</text>
 </g>
 <g id="Guides">
  <g id="H-reference" style="fill:#27AAE1;stroke:none;" transform="matrix(1 0 0 1 339 696)">
   <path d="M0.993654 0L3.63775 0L29.3281-67.1323L30.0303-67.1323L30.0303-70.459L28.1226-70.459ZM11.6885-24.4799L46.9815-24.4799L46.2315-26.7285L12.4385-26.7285ZM55.1196 0L57.7637 0L30.6382-70.459L29.4326-70.459L29.4326-67.1323Z"/>
  </g>
  <line id="Baseline-S" style="fill:none;stroke:#27AAE1;opacity:1;stroke-width:0.5;" x1="263" x2="3036" y1="696" y2="696"/>
  <line id="Capline-S" style="fill:none;stroke:#27AAE1;opacity:1;stroke-width:0.5;" x1="263" x2="3036" y1="625.541" y2="625.541"/>
  <g id="H-reference" style="fill:#27AAE1;stroke:none;" transform="matrix(1 0 0 1 339 1126)">
   <path d="M0.993654 0L3.63775 0L29.3281-67.1323L30.0303-67.1323L30.0303-70.459L28.1226-70.459ZM11.6885-24.4799L46.9815-24.4799L46.2315-26.7285L12.4385-26.7285ZM55.1196 0L57.7637 0L30.6382-70.459L29.4326-70.459L29.4326-67.1323Z"/>
  </g>
  <line id="Baseline-M" style="fill:none;stroke:#27AAE1;opacity:1;stroke-width:0.5;" x1="263" x2="3036" y1="1126" y2="1126"/>
  <line id="Capline-M" style="fill:none;stroke:#27AAE1;opacity:1;stroke-width:0.5;" x1="263" x2="3036" y1="1055.54" y2="1055.54"/>
  <g id="H-reference" style="fill:#27AAE1;stroke:none;" transform="matrix(1 0 0 1 339 1556)">
   <path d="M0.993654 0L3.63775 0L29.3281-67.1323L30.0303-67.1323L30.0303-70.459L28.1226-70.459ZM11.6885-24.4799L46.9815-24.4799L46.2315-26.7285L12.4385-26.7285ZM55.1196 0L57.7637 0L30.6382-70.459L29.4326-70.459L29.4326-67.1323Z"/>
  </g>
  <line id="Baseline-L" style="fill:none;stroke:#27AAE1;opacity:1;stroke-width:0.5;" x1="263" x2="3036" y1="1556" y2="1556"/>
  <line id="Capline-L" style="fill:none;stroke:#27AAE1;opacity:1;stroke-width:0.5;" x1="263" x2="3036" y1="1485.54" y2="1485.54"/>
  <line id="left-margin" style="fill:none;stroke:#00AEEF;stroke-width:0.5;opacity:1.0;" x1="1390.44" x2="1390.44" y1="1030.79" y2="1150.12"/>
  <line id="right-margin" style="fill:none;stroke:#00AEEF;stroke-width:0.5;opacity:1.0;" x1="1509.25" x2="1509.25" y1="1030.79" y2="1150.12"/>
 </g>
 <g id="Symbols">
  <g id="Regular-L" transform="matrix(1 0 0 1 1375.94 1556)">
   <path d="M102.097-93.7607C121.686-93.7607 137.934-78.4895 137.934-59.208C137.934-33.482 121.932-12.6271 106.884 1.37585C99.2753 8.45654 91.6874 13.9961 86.0097 17.7636C83.1663 19.651 80.7878 21.1028 79.1088 22.0892C78.5489 22.4178 78.0659 22.6951 77.669 22.9199L77.301 23.1272L77.1392 23.2177C76.9073 23.3468 76.7258 23.4465 76.5991 23.515L76.4495 23.5958L76.4064 23.6193L76.3927 23.6265C76.3666 23.5813 76.1392 23.1704 73.9339 19.0244L73.9329 19.0253L76.3842 23.631C74.9328 24.4006 73.2053 24.4393 71.7242 23.7506L71.4799 23.6288L71.4867 23.6165L71.4998 23.5924C71.5782 23.4474 71.9637 22.7284 73.8598 19.1638L71.4797 23.6291L71.4615 23.6193L71.4184 23.5958L71.2688 23.515C71.1415 23.4465 70.9606 23.3468 70.7287 23.2177C70.2651 22.9595 69.5989 22.5821 68.7591 22.0892C67.0794 21.1028 64.7016 19.651 61.8582 17.7636C56.1802 13.9961 48.5928 8.45654 40.9837 1.37585C25.9361-12.6271 9.93395-33.482 9.93395-59.208C9.93395-78.4895 26.1817-93.7607 45.7707-93.7607C57.1439-93.7607 67.3472-88.6395 73.9339-80.579C80.5207-88.6395 90.7242-93.7607 102.097-93.7607ZM45.7707-83.3297C31.5464-83.3297 20.3829-72.3314 20.3829-59.208C20.3829-37.8604 33.7685-19.5989 48.1086-6.25443C55.1934 0.339264 62.2997 5.5313 67.6424 9.07718C70.2376 10.7996 72.4045 12.125 73.9339 13.026C75.4628 12.125 77.6296 10.7996 80.2255 9.07718C82.0907 7.83915 84.1713 6.40033 86.3911 4.77114L74.8796-5.67942C72.7388-7.81974 72.7388-11.2907 74.8796-13.4316C77.0197-15.5719 80.49-15.5719 82.6308-13.4316L94.4962-1.59829C96.2334-3.06124 97.9973-4.61416 99.7593-6.25443C101.111-7.51202 102.454-8.81394 103.779-10.1576L91.4889-22.2901C89.3482-24.4305 89.3482-27.9014 91.4889-30.0423C93.6296-32.1826 97.1-32.1826 99.2401-30.0423L111.106-18.3296C113.758-21.6063 116.225-25.0707 118.398-28.7059L106.437-40.562C103.501-43.499 99.5176-45.149 95.3648-45.149C91.2113-45.149 87.2283-43.499 84.2915-40.562L77.6479-33.9175C70.9233-27.1921 60.0118-27.1921 53.2871-33.9175L49.6795-37.5253C47.4065-39.7992 46.1289-42.8836 46.1289-46.0989C46.1289-49.3146 47.4059-52.3983 49.6789-54.6723L67.1806-72.1754C62.698-78.8373 54.8292-83.3297 45.7707-83.3297ZM102.097-83.3297C91.5-83.3297 82.5308-77.1815 78.7072-68.6043C78.3284-67.7549 77.7393-67.0418 77.0177-66.5151L57.4315-46.921C57.2139-46.7033 57.0912-46.4073 57.0912-46.0989C57.0912-45.7912 57.2134-45.4959 57.431-45.2775L61.0386-41.6696C63.4824-39.2262 67.453-39.2262 69.8967-41.6696L76.5403-48.3142C81.533-53.3071 88.3039-56.1121 95.3648-56.1121C102.425-56.1121 109.196-53.3071 114.189-48.3142L123.501-39.0013C126.004-45.3505 127.485-52.1087 127.485-59.208C127.485-72.3314 116.322-83.3297 102.097-83.3297Z"/>
  </g>
  <g id="Regular-M" transform="matrix(1 0 0 1 1390.44 1126)">
   <path d="M81.2165-78.8281C96.3675-78.8281 108.934-67.0512 108.934-52.1815C108.934-32.342 96.5574-16.259 84.9189-5.46009C79.0339 0.0004497 73.1651 4.27245 68.7738 7.17793C66.5746 8.63344 64.735 9.75309 63.4364 10.5138C62.7868 10.8939 62.2711 11.185 61.913 11.3841C61.7337 11.4836 61.5933 11.5605 61.4953 11.6133L61.3796 11.6757L61.3357 11.6993C61.3256 11.6825 61.1969 11.455 59.4339 8.15028L59.4329 8.1509L61.3291 11.7028C60.2138 12.2924 58.8878 12.3258 57.7473 11.8054L57.5358 11.7013C57.5358 11.7013 57.5385 11.7027 59.1816 8.62327L57.5358 11.7013L57.5216 11.6938L57.4883 11.6757L57.3726 11.6133C57.2741 11.5605 57.1342 11.4836 56.9549 11.3841C56.5963 11.185 56.0811 10.8939 55.4315 10.5138C54.1324 9.75309 52.2933 8.63344 50.0941 7.17793C45.7025 4.27245 39.8341 0.0004497 33.949-5.46009C22.3106-16.259 9.93395-32.342 9.93395-52.1815C9.93395-67.0512 22.5005-78.8281 37.6514-78.8281C46.4479-78.8281 54.3395-74.8787 59.4339-68.6626C64.5284-74.8787 72.4201-78.8281 81.2165-78.8281ZM37.6514-70.7839C26.6498-70.7839 18.0156-62.3021 18.0156-52.1815C18.0156-35.7185 28.3685-21.6356 39.4596-11.3445C44.9393-6.25948 50.4356-2.25546 54.5678 0.479083C56.5751 1.80739 58.251 2.82951 59.4339 3.52433C60.6164 2.82951 62.2923 1.80739 64.3001 0.479083C65.7427-0.475669 67.3519-1.58527 69.0688-2.84168L60.1653-10.901C58.5096-12.5516 58.5096-15.2283 60.1653-16.8794C61.8206-18.53 64.5047-18.53 66.1604-16.8794L75.3376-7.7537C76.6812-8.88191 78.0454-10.0795 79.4082-11.3445C80.4538-12.3143 81.4928-13.3183 82.5171-14.3545L73.0116-23.711C71.3559-25.3616 71.3559-28.0383 73.0116-29.6894C74.6673-31.3399 77.3514-31.3399 79.0067-29.6894L88.1839-20.6567C90.2351-23.1836 92.1433-25.8553 93.8238-28.6587L84.5734-37.802C82.3019-40.0669 79.2213-41.3394 76.0094-41.3394C72.7969-41.3394 69.7163-40.0669 67.4449-37.802L62.3065-32.6778C57.1054-27.4913 48.666-27.4913 43.4649-32.6778L40.6747-35.4601C38.9166-37.2137 37.9285-39.5923 37.9285-42.072C37.9285-44.5519 38.9161-46.93 40.6742-48.6836L54.2107-62.1818C50.7437-67.3193 44.6576-70.7839 37.6514-70.7839ZM81.2165-70.7839C73.0202-70.7839 66.0831-66.0424 63.1257-59.4278C62.8328-58.7728 62.3772-58.2229 61.819-57.8166L46.6704-42.706C46.5021-42.538 46.4071-42.3098 46.4071-42.072C46.4071-41.8347 46.5016-41.6069 46.6699-41.4385L49.4602-38.6562C51.3503-36.7718 54.4213-36.7718 56.3114-38.6562L61.4498-43.7804C65.3113-47.6308 70.5482-49.794 76.0094-49.794C81.47-49.794 86.7069-47.6308 90.5684-43.7804L97.7707-36.5984C99.7073-41.4948 100.852-46.7066 100.852-52.1815C100.852-62.3021 92.2181-70.7839 81.2165-70.7839Z"/>
  </g>
  <g id="Regular-S" transform="matrix(1 0 0 1 1400.94 696)">
   <path d="M66.0959-70C78.0331-70 87.9339-60.682 87.9339-48.917C87.9339-33.2198 78.1828-20.4948 69.013-11.9506C64.3764-7.63016 59.7525-4.25012 56.2926-1.95127C54.5599-0.799664 53.1105 0.0862199 52.0874 0.68808C51.7218 0.902888 51.4101 1.08177 51.159 1.22386L50.8871 1.37666C50.7459 1.45542 50.6352 1.51628 50.558 1.55805L50.4669 1.60738L50.4406 1.6217L50.4276 1.61803C50.4004 1.56945 50.2138 1.22732 48.9339-1.18194L48.9329-1.181L50.4271 1.62886C49.5557 2.09147 48.5211 2.12127 47.6276 1.7202L47.4387 1.62715L47.4273 1.6217L47.401 1.60738L47.3099 1.55805C47.2323 1.51628 47.122 1.45542 46.9808 1.37666L46.7088 1.22386C46.4576 1.08177 46.1461 0.902888 45.7805 0.68808C44.757 0.0862199 43.308-0.799664 41.5753-1.95127C38.1152-4.25012 33.4917-7.63016 28.8549-11.9506C19.6853-20.4948 9.93395-33.2198 9.93395-48.917C9.93395-60.682 19.8349-70 31.772-70C38.7025-70 44.9201-66.8752 48.9339-61.957C52.9478-66.8752 59.1655-70 66.0959-70ZM31.772-63.6353C23.104-63.6353 16.3013-56.9245 16.3013-48.917C16.3013-35.8913 24.4581-24.7488 33.1966-16.6063C37.514-12.5831 41.8443-9.41505 45.1-7.25146C46.6815-6.20049 48.0019-5.39178 48.9339-4.84203C49.8656-5.39178 51.186-6.20049 52.7679-7.25146C53.9045-8.00687 55.1724-8.8848 56.525-9.87888L49.5102-16.2555C48.2057-17.5614 48.2057-19.6793 49.5102-20.9856C50.8143-22.2916 52.9291-22.2916 54.2336-20.9856L61.4641-13.7653C62.5227-14.658 63.5976-15.6055 64.6712-16.6063C65.495-17.3737 66.3136-18.1681 67.1207-18.9879L59.6315-26.3908C58.327-27.6968 58.327-29.8146 59.6315-31.121C60.936-32.4269 63.0508-32.4269 64.3549-31.121L71.5854-23.9743C73.2015-25.9736 74.705-28.0874 76.029-30.3055L68.7408-37.5398C66.9512-39.3318 64.524-40.3386 61.9934-40.3386C59.4624-40.3386 57.0352-39.3318 55.2456-37.5398L51.1971-33.4855C47.0994-29.3818 40.4501-29.3818 36.3523-33.4855L34.1539-35.6869C32.7688-37.0744 31.9902-38.9563 31.9902-40.9182C31.9902-42.8803 32.7684-44.7619 34.1535-46.1494L44.8187-56.8293C42.0871-60.8942 37.292-63.6353 31.772-63.6353ZM66.0959-63.6353C59.6383-63.6353 54.1727-59.8839 51.8426-54.6503C51.6118-54.1321 51.2529-53.697 50.8131-53.3755L38.8778-41.4198C38.7452-41.287 38.6704-41.1064 38.6704-40.9182C38.6704-40.7305 38.7448-40.5503 38.8774-40.417L41.0758-38.2156C42.565-36.7247 44.9846-36.7247 46.4738-38.2156L50.5222-42.2699C53.5646-45.3164 57.6906-47.028 61.9934-47.028C66.2957-47.028 70.4218-45.3165 73.4642-42.2699L79.1387-36.5875C80.6644-40.4616 81.5666-44.5852 81.5666-48.917C81.5666-56.9245 74.7639-63.6353 66.0959-63.6353Z"/>
  </g>
 </g>
</svg>
