<svg width="12" height="12" viewBox="0 0 12 12" fill="none" xmlns="http://www.w3.org/2000/svg">
	<path fill-rule="evenodd" clip-rule="evenodd" d="M11.0769 10.6154C11.0769 10.8697 10.8702 11.0769 10.6154 11.0769H5.53846C5.28369 11.0769 5.07692 10.8697 5.07692 10.6154V9.23077H6.46154C7.22492 9.23077 7.84615 8.60954 7.84615 7.84615V3.69231H10.6154C10.8702 3.69231 11.0769 3.89954 11.0769 4.15385V10.6154ZM0.923077 7.84615V1.38462C0.923077 1.13031 1.12985 0.923077 1.38462 0.923077H6.46154C6.71631 0.923077 6.92308 1.13031 6.92308 1.38462V7.84615C6.92308 8.10046 6.71631 8.30769 6.46154 8.30769H1.38462C1.12985 8.30769 0.923077 8.10046 0.923077 7.84615ZM10.6154 2.76923H7.84615V1.38462C7.84615 0.621231 7.22492 0 6.46154 0H1.38462C0.621231 0 0 0.621231 0 1.38462V7.84615C0 8.60954 0.621231 9.23077 1.38462 9.23077H4.15385V10.6154C4.15385 11.3788 4.77508 12 5.53846 12H10.6154C11.3788 12 12 11.3788 12 10.6154V4.15385C12 3.39046 11.3788 2.76923 10.6154 2.76923Z" fill="#495057" />
</svg>
