<svg width="14" height="14" viewBox="0 0 14 14" fill="none" xmlns="http://www.w3.org/2000/svg">
<path fill-rule="evenodd" clip-rule="evenodd" d="M11.9484 11.9502C10.6265 13.272 8.86837 14 6.99758 14C5.12737 14 3.36928 13.272 2.04675 11.9496C-0.68225 9.22017 -0.68225 4.77925 2.04675 2.05042C3.36928 0.728 5.12737 0 6.99758 0C8.86837 0 10.6265 0.728 11.9484 2.05042C13.2715 3.37225 14 5.13042 14 7C14 8.86958 13.2715 10.6277 11.9484 11.9502ZM11.1237 2.87525C10.0218 1.77333 8.55667 1.16667 6.99758 1.16667C5.43907 1.16667 3.9739 1.77333 2.87208 2.87525C0.597428 5.14967 0.597428 8.85033 2.87208 11.1247C3.9739 12.2267 5.43907 12.8333 6.99758 12.8333C8.55667 12.8333 10.0218 12.2267 11.1237 11.1247C12.2261 10.0234 12.833 8.55808 12.833 7C12.833 5.44192 12.2261 3.97717 11.1237 2.87525ZM8.16514 11.0833H5.83119C5.50951 11.0833 5.24771 10.822 5.24771 10.5C5.24771 10.178 5.50951 9.91667 5.83119 9.91667H6.41468V7.58333H5.83119C5.50951 7.58333 5.24771 7.322 5.24771 7C5.24771 6.678 5.50951 6.41667 5.83119 6.41667L6.99817 6.41667C7.32043 6.41667 7.58165 6.678 7.58165 7V9.91667H8.16514C8.48741 9.91667 8.74862 10.178 8.74862 10.5C8.74862 10.822 8.48741 11.0833 8.16514 11.0833ZM6.99817 5.25C6.3548 5.25 5.83119 4.72617 5.83119 4.08275C5.83119 3.43992 6.3548 2.91667 6.99817 2.91667C7.64211 2.91667 8.16514 3.43992 8.16514 4.08275C8.16514 4.72617 7.64211 5.25 6.99817 5.25Z" fill="#AEB1C2"/>
</svg>
