<svg width="1398" height="1078" viewBox="0 0 1398 1078" fill="none" xmlns="http://www.w3.org/2000/svg">
	<path d="M1398 0H0V1078H1398V0Z" fill="url(#paint0_linear_0_4)" />
	<g filter="url(#filter0_f_0_4)">
		<path d="M1192.99 640.868C1236.12 640.868 1271.09 610.078 1271.09 572.096C1271.09 534.115 1236.12 503.325 1192.99 503.325C1149.85 503.325 1114.89 534.115 1114.89 572.096C1114.89 610.078 1149.85 640.868 1192.99 640.868Z" fill="url(#paint1_linear_0_4)" fill-opacity="0.5" />
	</g>
	<g filter="url(#filter1_f_0_4)">
		<path d="M1299.4 291.851C1317.19 291.851 1331.61 279.15 1331.61 263.482C1331.61 247.815 1317.19 235.114 1299.4 235.114C1281.61 235.114 1267.18 247.815 1267.18 263.482C1267.18 279.15 1281.61 291.851 1299.4 291.851Z" fill="url(#paint2_linear_0_4)" fill-opacity="0.6" />
	</g>
	<g filter="url(#filter2_f_0_4)">
		<path d="M93.2326 364.061C102.668 364.061 110.317 357.326 110.317 349.018C110.317 340.709 102.668 333.974 93.2326 333.974C83.7971 333.974 76.1481 340.709 76.1481 349.018C76.1481 357.326 83.7971 364.061 93.2326 364.061Z" fill="url(#paint3_linear_0_4)" fill-opacity="0.4" />
	</g>
	<defs>
		<filter id="filter0_f_0_4" x="1094.89" y="483.325" width="196.201" height="177.544" filterUnits="userSpaceOnUse" color-interpolation-filters="sRGB">
			<feFlood flood-opacity="0" result="BackgroundImageFix" />
			<feBlend mode="normal" in="SourceGraphic" in2="BackgroundImageFix" result="shape" />
			<feGaussianBlur stdDeviation="10" result="effect1_foregroundBlur_0_4" />
		</filter>
		<filter id="filter1_f_0_4" x="1247.18" y="215.114" width="104.433" height="96.7368" filterUnits="userSpaceOnUse" color-interpolation-filters="sRGB">
			<feFlood flood-opacity="0" result="BackgroundImageFix" />
			<feBlend mode="normal" in="SourceGraphic" in2="BackgroundImageFix" result="shape" />
			<feGaussianBlur stdDeviation="10" result="effect1_foregroundBlur_0_4" />
		</filter>
		<filter id="filter2_f_0_4" x="66.1481" y="323.974" width="54.169" height="50.0877" filterUnits="userSpaceOnUse" color-interpolation-filters="sRGB">
			<feFlood flood-opacity="0" result="BackgroundImageFix" />
			<feBlend mode="normal" in="SourceGraphic" in2="BackgroundImageFix" result="shape" />
			<feGaussianBlur stdDeviation="5" result="effect1_foregroundBlur_0_4" />
		</filter>
		<linearGradient id="paint0_linear_0_4" x1="-29.4365" y1="-370.601" x2="2842.56" y2="1039.73" gradientUnits="userSpaceOnUse">
			<stop stop-color="#000029" />
			<stop offset="1" stop-color="#000027" />
		</linearGradient>
		<linearGradient id="paint1_linear_0_4" x1="1040.2" y1="464.211" x2="1272.8" y2="722.537" gradientUnits="userSpaceOnUse">
			<stop stop-color="#B0009B" />
			<stop offset="1" stop-color="#290199" />
		</linearGradient>
		<linearGradient id="paint2_linear_0_4" x1="1299.4" y1="235.114" x2="1299.4" y2="291.851" gradientUnits="userSpaceOnUse">
			<stop stop-color="#DD13D2" />
			<stop offset="1" stop-color="#5048BB" />
		</linearGradient>
		<linearGradient id="paint3_linear_0_4" x1="93.2326" y1="333.974" x2="93.2326" y2="364.061" gradientUnits="userSpaceOnUse">
			<stop stop-color="#DD9A2E" />
			<stop offset="1" stop-color="#BB4C1D" />
		</linearGradient>
	</defs>
</svg>
