<svg width="56" height="56" viewBox="0 0 56 56" fill="none" xmlns="http://www.w3.org/2000/svg">
<path d="M51.4555 15.1374C51.4555 15.0894 51.4315 15.0174 51.4315 14.9693C51.4075 14.7293 51.3355 14.4892 51.2395 14.2731C51.2155 14.2251 51.2395 14.2011 51.2154 14.1531C51.2154 14.129 51.1914 14.129 51.1674 14.105C51.0474 13.865 50.8793 13.6489 50.6632 13.4568C50.6152 13.4088 50.5672 13.3848 50.5192 13.3368C50.4232 13.2647 50.3511 13.1927 50.2551 13.1207L28.0952 0.324116C27.3509 -0.108039 26.4386 -0.108039 25.6943 0.324116L3.53441 13.1447C3.43838 13.1927 3.34234 13.2647 3.27032 13.3368C3.2223 13.3848 3.17428 13.4088 3.12627 13.4568C2.91019 13.6489 2.74213 13.865 2.62209 14.105C2.62209 14.129 2.59808 14.129 2.57407 14.1531C2.55006 14.2011 2.57407 14.2251 2.55006 14.2731C2.45403 14.4892 2.382 14.7293 2.35799 14.9693C2.35799 15.0174 2.35799 15.0654 2.33398 15.1374C2.33398 15.1614 2.33398 15.1854 2.33398 15.2094V40.8026C2.33398 41.6669 2.79015 42.4592 3.53441 42.8913L25.6943 55.6879C25.7423 55.7119 25.8144 55.7359 25.8624 55.7599C25.9344 55.7839 25.9824 55.8079 26.0545 55.8319C26.3186 55.928 26.6067 56 26.8708 56C27.1348 56 27.4229 55.928 27.687 55.8319C27.7591 55.8079 27.8311 55.7839 27.8791 55.7599C27.9271 55.7359 27.9992 55.7119 28.0472 55.6879L50.2071 42.8913C50.9514 42.4592 51.4075 41.6669 51.4075 40.8026V15.2094C51.4795 15.1854 51.4555 15.1614 51.4555 15.1374ZM26.8948 5.19786L43.9649 15.0414L26.8948 23.3723L9.84867 15.0414L26.8948 5.19786ZM7.1357 19.0508L24.4939 27.5498V49.4457L7.1357 39.4341V19.0508ZM29.2956 49.4457V27.5498L46.6538 19.0508V39.4101L29.2956 49.4457Z" fill="white"/>
</svg>
