<svg width="14" height="14" viewBox="0 0 24 24" fill="none" xmlns="http://www.w3.org/2000/svg">
	<circle cx="12" cy="12" r="12" fill="#BFE3E7" fill-opacity="0.6" />
	<path d="M6 15.4623L12.1208 18.9497L18.2415 15.4623V8.48742L12.1208 5L6 8.48742V15.4623Z" fill="#469EA2" />
	<path d="M11.4953 5.83398L7.05048 8.36506C7.05776 8.444 7.05776 8.52342 7.05048 8.60235L11.488 11.1334C11.6705 11.0003 11.8914 10.9285 12.1183 10.9285C12.3452 10.9285 12.5662 11.0003 12.7486 11.1334L17.1862 8.60235C17.1789 8.52342 17.1789 8.444 17.1862 8.36506L12.7559 5.83398C12.5735 5.9671 12.3525 6.03895 12.1256 6.03895C11.8987 6.03895 11.6778 5.9671 11.4953 5.83398ZM17.6161 9.29984L13.1712 11.8597C13.1953 12.0817 13.1477 12.3055 13.0352 12.4992C12.9226 12.693 12.7509 12.8466 12.5446 12.9383L12.5519 17.9717C12.6237 18.0029 12.6921 18.0415 12.7559 18.0867L17.1935 15.5556C17.1694 15.3336 17.217 15.1098 17.3295 14.9161C17.4421 14.7223 17.6138 14.5687 17.8201 14.477V9.41488C17.7491 9.38202 17.6809 9.34354 17.6161 9.29984ZM6.62785 9.3286C6.56406 9.37381 6.49569 9.41237 6.42383 9.44365V14.5058C6.63268 14.5942 6.80674 14.7472 6.91977 14.9418C7.03281 15.1363 7.07868 15.3619 7.05048 15.5844L11.488 18.1155C11.5518 18.0702 11.6202 18.0317 11.6921 18.0004V12.9383C11.4832 12.8499 11.3091 12.6968 11.1961 12.5023C11.0831 12.3077 11.0372 12.0822 11.0654 11.8597L6.62785 9.3286Z" fill="#6ACAD1" />
	<path d="M12.1208 5.75528L17.593 8.87598V15.1102L12.1208 18.2309L6.64851 15.1102V8.86879L12.1208 5.75528ZM12.1208 5.01465L6 8.50207V15.4769L12.1208 18.9643L18.2415 15.4769V8.50207L12.1208 5.01465Z" fill="#469EA2" />
	<path d="M12.1645 13.1616H12.077C11.9267 13.1619 11.7778 13.133 11.6388 13.0764C11.4998 13.0198 11.3736 12.9367 11.2673 12.8318C11.161 12.7268 11.0767 12.6022 11.0193 12.4651C10.962 12.328 10.9327 12.181 10.933 12.0326V11.9464C10.9327 11.798 10.962 11.651 11.0193 11.5139C11.0767 11.3767 11.161 11.2521 11.2673 11.1472C11.3736 11.0423 11.4998 10.9592 11.6388 10.9026C11.7778 10.846 11.9267 10.8171 12.077 10.8174H12.1645C12.3148 10.8171 12.4638 10.846 12.6027 10.9026C12.7417 10.9592 12.868 11.0423 12.9743 11.1472C13.0806 11.2521 13.1648 11.3767 13.2222 11.5139C13.2795 11.651 13.3089 11.798 13.3085 11.9464V12.0326C13.3089 12.181 13.2795 12.328 13.2222 12.4651C13.1648 12.6022 13.0806 12.7268 12.9743 12.8318C12.868 12.9367 12.7417 13.0198 12.6027 13.0764C12.4638 13.133 12.3148 13.1619 12.1645 13.1616ZM12.1645 17.7995H12.077C11.8738 17.7989 11.6741 17.8519 11.4986 17.953C11.3231 18.0542 11.1781 18.1997 11.0788 18.3747L12.1208 18.9643L13.1628 18.3747C13.0634 18.1997 12.9185 18.0542 12.743 17.953C12.5674 17.8519 12.3677 17.7989 12.1645 17.7995ZM18.2488 14.312H18.2051C18.0548 14.3117 17.9058 14.3406 17.7669 14.3972C17.6279 14.4538 17.5016 14.5369 17.3953 14.6419C17.289 14.7468 17.2048 14.8714 17.1474 15.0085C17.09 15.1456 17.0607 15.2926 17.0611 15.441V15.5273C17.0601 15.7189 17.1103 15.9074 17.2068 16.0737L18.2488 15.4769V14.312ZM17.2068 7.91245C17.1112 8.0791 17.061 8.2674 17.0611 8.45893V8.54522C17.0607 8.69357 17.09 8.84054 17.1474 8.97768C17.2048 9.11482 17.289 9.23942 17.3953 9.34433C17.5016 9.44923 17.6279 9.53237 17.7669 9.58897C17.9058 9.64557 18.0548 9.67451 18.2051 9.67413H18.2488V8.50207L17.2068 7.91245ZM12.1208 5.01465L11.0788 5.60427C11.1777 5.78019 11.3223 5.92689 11.4978 6.02927C11.6732 6.13165 11.8732 6.186 12.077 6.18671H12.1645C12.3677 6.18731 12.5674 6.1343 12.743 6.03317C12.9185 5.93203 13.0634 5.78644 13.1628 5.61147L12.1208 5.01465ZM7.04199 7.90526L6 8.50207V9.67413H6.04372C6.19406 9.67451 6.34299 9.64557 6.48196 9.58897C6.62093 9.53237 6.7472 9.44923 6.85351 9.34433C6.95981 9.23942 7.04407 9.11482 7.10142 8.97768C7.15878 8.84054 7.1881 8.69357 7.18772 8.54522V8.45893C7.18525 8.26545 7.13524 8.07546 7.04199 7.90526ZM6.04372 14.312H6V15.4769L7.04199 16.0737C7.13764 15.9071 7.18785 15.7188 7.18772 15.5273V15.441C7.1881 15.2926 7.15878 15.1456 7.10142 15.0085C7.04407 14.8714 6.95981 14.7468 6.85351 14.6419C6.7472 14.5369 6.62093 14.4538 6.48196 14.3972C6.34299 14.3406 6.19406 14.3117 6.04372 14.312Z" fill="#469EA2" />
	<path d="M12.1208 18.9997V12.0177L6 8.53027V15.5123L12.1208 18.9997Z" fill="#083B54" fill-opacity="0.15" />
	<path d="M18.2536 15.4475V8.47266L12.1328 11.9601V18.9421L18.2536 15.4475Z" fill="#083B54" fill-opacity="0.05" />
</svg>
