<svg width="20" height="20" viewBox="0 0 20 20" fill="none" xmlns="http://www.w3.org/2000/svg">
	<path d="M2.5 14.1221L9.69055 18.2737L16.8811 14.1221V5.81868L9.69055 1.66699L2.5 5.81868V14.1221Z" fill="#469EA2" />
	<path d="M8.95398 2.66016L3.73227 5.67334C3.74083 5.76731 3.74083 5.86186 3.73227 5.95582L8.94542 8.96901C9.15977 8.81053 9.4193 8.72501 9.68587 8.72501C9.95244 8.72501 10.212 8.81053 10.4263 8.96901L15.6395 5.95582C15.6309 5.86186 15.6309 5.76731 15.6395 5.67334L10.4349 2.66016C10.2205 2.81863 9.961 2.90416 9.69443 2.90416C9.42786 2.90416 9.16833 2.81863 8.95398 2.66016ZM16.1445 6.78616L10.9228 9.83359C10.9511 10.0979 10.8952 10.3644 10.763 10.595C10.6307 10.8256 10.429 11.0085 10.1866 11.1176L10.1952 17.1097C10.2796 17.147 10.36 17.1929 10.4349 17.2467L15.648 14.2335C15.6197 13.9692 15.6757 13.7027 15.8079 13.4721C15.9401 13.2415 16.1418 13.0586 16.3842 12.9495V6.92313C16.3008 6.884 16.2206 6.83819 16.1445 6.78616ZM3.23578 6.8204C3.16084 6.87423 3.08051 6.92013 2.99609 6.95737V12.9837C3.24145 13.089 3.44593 13.2711 3.57872 13.5027C3.71151 13.7344 3.7654 14.0028 3.73227 14.2678L8.94542 17.2809C9.02036 17.2271 9.10068 17.1812 9.1851 17.144V11.1176C8.93975 11.0124 8.73526 10.8302 8.60248 10.5986C8.46969 10.367 8.4158 10.0985 8.44893 9.83359L3.23578 6.8204Z" fill="#6ACAD1" />
	<path d="M9.69055 2.56627L16.1192 6.28139V13.7031L9.69055 17.4182L3.26186 13.7031V6.27283L9.69055 2.56627ZM9.69055 1.68457L2.5 5.83626V14.1396L9.69055 18.2913L16.8811 14.1396V5.83626L9.69055 1.68457Z" fill="#469EA2" />
	<path d="M9.74191 11.3833H9.63919C9.46257 11.3837 9.28761 11.3493 9.12435 11.2819C8.96109 11.2145 8.81275 11.1155 8.68787 10.9906C8.56298 10.8657 8.464 10.7174 8.39662 10.5541C8.32924 10.3909 8.29479 10.2159 8.29524 10.0393V9.93658C8.29479 9.75996 8.32924 9.585 8.39662 9.42174C8.464 9.25848 8.56298 9.11015 8.68787 8.98526C8.81275 8.86037 8.96109 8.7614 9.12435 8.69402C9.28761 8.62664 9.46257 8.59218 9.63919 8.59263H9.74191C9.91853 8.59218 10.0935 8.62664 10.2568 8.69402C10.42 8.7614 10.5683 8.86037 10.6932 8.98526C10.8181 9.11015 10.9171 9.25848 10.9845 9.42174C11.0519 9.585 11.0863 9.75996 11.0859 9.93658V10.0393C11.0863 10.2159 11.0519 10.3909 10.9845 10.5541C10.9171 10.7174 10.8181 10.8657 10.6932 10.9906C10.5683 11.1155 10.42 11.2145 10.2568 11.2819C10.0935 11.3493 9.91853 11.3837 9.74191 11.3833ZM9.74191 16.9046H9.63919C9.40042 16.9038 9.1658 16.967 8.95961 17.0874C8.75342 17.2078 8.58316 17.3811 8.46644 17.5894L9.69055 18.2913L10.9147 17.5894C10.7979 17.3811 10.6277 17.2078 10.4215 17.0874C10.2153 16.967 9.98068 16.9038 9.74191 16.9046ZM16.8897 12.7529H16.8383C16.6617 12.7524 16.4867 12.7869 16.3235 12.8543C16.1602 12.9216 16.0119 13.0206 15.887 13.1455C15.7621 13.2704 15.6631 13.4187 15.5957 13.582C15.5284 13.7452 15.4939 13.9202 15.4944 14.0968V14.1996C15.4931 14.4277 15.5522 14.6521 15.6656 14.8501L16.8897 14.1396V12.7529ZM15.6656 5.13432C15.5532 5.33272 15.4942 5.55688 15.4944 5.7849V5.88762C15.4939 6.06423 15.5284 6.2392 15.5957 6.40246C15.6631 6.56572 15.7621 6.71405 15.887 6.83894C16.0119 6.96383 16.1602 7.0628 16.3235 7.13018C16.4867 7.19756 16.6617 7.23202 16.8383 7.23157H16.8897V5.83626L15.6656 5.13432ZM9.69055 1.68457L8.46644 2.3865C8.5826 2.59592 8.75251 2.77057 8.95865 2.89245C9.1648 3.01433 9.39971 3.07903 9.63919 3.07988H9.74191C9.98068 3.0806 10.2153 3.01749 10.4215 2.89709C10.6277 2.77669 10.7979 2.60336 10.9147 2.39507L9.69055 1.68457ZM3.72411 5.12576L2.5 5.83626V7.23157H2.55136C2.72798 7.23202 2.90294 7.19756 3.0662 7.13018C3.22946 7.0628 3.3778 6.96383 3.50268 6.83894C3.62757 6.71405 3.72655 6.56572 3.79393 6.40246C3.86131 6.2392 3.89576 6.06423 3.89531 5.88762V5.7849C3.89241 5.55457 3.83366 5.32839 3.72411 5.12576ZM2.55136 12.7529H2.5V14.1396L3.72411 14.8501C3.83648 14.6517 3.89547 14.4276 3.89531 14.1996V14.0968C3.89576 13.9202 3.86131 13.7452 3.79393 13.582C3.72655 13.4187 3.62757 13.2704 3.50268 13.1455C3.3778 13.0206 3.22946 12.9216 3.0662 12.8543C2.90294 12.7869 2.72798 12.7524 2.55136 12.7529Z" fill="#469EA2" />
	<path d="M9.69055 18.3337V10.0218L2.5 5.87012V14.1821L9.69055 18.3337Z" fill="#083B54" fill-opacity="0.15" />
	<path d="M16.8898 14.1051V5.80176L9.69922 9.95344V18.2654L16.8898 14.1051Z" fill="#083B54" fill-opacity="0.05" />
</svg>
