<svg width="24" height="24" viewBox="0 0 24 24" fill="none" xmlns="http://www.w3.org/2000/svg">
<path d="M22.0521 6.48746C22.0521 6.46688 22.0418 6.43601 22.0418 6.41543C22.0315 6.31254 22.0006 6.20965 21.9595 6.11704C21.9492 6.09646 21.9595 6.08617 21.9492 6.0656C21.9492 6.05531 21.9389 6.05531 21.9286 6.04502C21.8772 5.94212 21.8051 5.84952 21.7125 5.7672C21.692 5.74662 21.6714 5.73634 21.6508 5.71576C21.6096 5.68489 21.5788 5.65402 21.5376 5.62315L12.0405 0.138907C11.7215 -0.0463023 11.3305 -0.0463023 11.0116 0.138907L1.51447 5.63344C1.47331 5.65402 1.43215 5.68489 1.40129 5.71576C1.38071 5.73634 1.36013 5.74662 1.33955 5.7672C1.24695 5.84952 1.17492 5.94212 1.12347 6.04502C1.12347 6.05531 1.11318 6.05531 1.10289 6.0656C1.0926 6.08617 1.10289 6.09646 1.0926 6.11704C1.05145 6.20965 1.02058 6.31254 1.01029 6.41543C1.01029 6.43601 1.01029 6.45659 1 6.48746C1 6.49775 1 6.50804 1 6.51833V17.4868C1 17.8572 1.1955 18.1968 1.51447 18.382L11.0116 23.8662C11.0322 23.8765 11.063 23.8868 11.0836 23.8971C11.1145 23.9074 11.135 23.9177 11.1659 23.928C11.2791 23.9691 11.4026 24 11.5158 24C11.6289 24 11.7524 23.9691 11.8656 23.928C11.8965 23.9177 11.9273 23.9074 11.9479 23.8971C11.9685 23.8868 11.9994 23.8765 12.0199 23.8662L21.517 18.382C21.836 18.1968 22.0315 17.8572 22.0315 17.4868V6.51833C22.0624 6.50804 22.0521 6.49775 22.0521 6.48746ZM11.526 2.22765L18.8418 6.4463L11.526 10.0167L4.22058 6.4463L11.526 2.22765ZM3.05788 8.16463L10.4971 11.8071V21.191L3.05788 16.9003V8.16463ZM12.555 21.191V11.8071L19.9942 8.16463V16.89L12.555 21.191Z" fill="white"/>
</svg>
