<svg width="24" height="24" viewBox="0 0 24 24" fill="none" xmlns="http://www.w3.org/2000/svg">
<g clip-path="url(#clip0_3713_14993)">
<path d="M12 24C18.6274 24 24 18.6274 24 12C24 5.37258 18.6274 0 12 0C5.37258 0 0 5.37258 0 12C0 18.6274 5.37258 24 12 24Z" fill="#70D44B"/>
<path d="M12 5.91663C12.2477 5.91584 12.4907 5.98442 12.7015 6.11461C12.9122 6.24479 13.0823 6.43139 13.1924 6.65326L16.9423 14.1529C17.044 14.3562 17.0921 14.5821 17.0819 14.8092C17.0717 15.0363 17.0037 15.257 16.8842 15.4504C16.7647 15.6438 16.5978 15.8034 16.3992 15.9141C16.2007 16.0248 15.9772 16.0829 15.7498 16.0829H8.25016C8.02285 16.0829 7.79931 16.0248 7.60077 15.9141C7.40223 15.8034 7.23529 15.6438 7.11581 15.4504C6.99632 15.257 6.92827 15.0363 6.9181 14.8092C6.90793 14.5821 6.95599 14.3562 7.05771 14.1529L10.8076 6.65326C10.9177 6.43139 11.0878 6.24479 11.2985 6.11461C11.5093 5.98442 11.7523 5.91584 12 5.91663ZM12 5C11.5822 4.99995 11.1727 5.11624 10.8172 5.33583C10.4618 5.55541 10.1745 5.86963 9.98759 6.24328L6.23775 13.743C6.06613 14.086 5.98507 14.4672 6.00226 14.8504C6.01945 15.2336 6.13432 15.606 6.33596 15.9323C6.5376 16.2586 6.81932 16.528 7.15434 16.7147C7.48937 16.9015 7.86659 16.9995 8.25016 16.9995H15.7498C16.1334 16.9995 16.5106 16.9015 16.8457 16.7147C17.1807 16.528 17.4624 16.2586 17.664 15.9323C17.8657 15.606 17.9805 15.2336 17.9977 14.8504C18.0149 14.4672 17.9339 14.086 17.7623 13.743L14.0124 6.24328C13.8255 5.86963 13.5382 5.55541 13.1828 5.33583C12.8274 5.11624 12.4178 4.99995 12 5Z" fill="white"/>
</g>
<defs>
<clipPath id="clip0_3713_14993">
<rect width="24" height="24" fill="white"/>
</clipPath>
</defs>
</svg>
