<svg width="154" height="56" viewBox="0 0 154 56" fill="none" xmlns="http://www.w3.org/2000/svg">
<g clip-path="url(#clip0_1752_658)">
<path d="M42.738 5.11403C40.4757 5.5614 35.7412 6.31635 34.8753 6.41421H34.8613H34.8335C34.3726 6.31635 33.3391 5.95286 32.6549 5.71519C32.3057 5.58937 31.9705 5.47752 31.6493 5.36568C29.9175 4.7785 28.6326 4.68064 28.1717 4.66666H27.9902H27.9484C27.4875 4.66666 26.2026 4.7785 24.4708 5.36568C24.1356 5.47752 23.8005 5.60335 23.4653 5.71519C22.7671 5.95286 21.7475 6.31635 21.2866 6.41421H21.2448C20.3789 6.31635 17.474 5.78509 15.1417 5.33772L13.424 5.00219L12.3207 6.35829C4.6814 15.7811 4.6814 17.8083 4.6814 18.6611C4.6814 21.4012 6.03607 22.7573 6.86005 23.5543L6.90196 23.5961C7.01368 23.708 7.1254 23.8199 7.23713 23.9318L12.4882 29.6078C12.4882 29.6078 12.5581 29.6777 12.586 29.7055L12.6698 29.7896L12.6279 29.8873C12.0693 31.2435 10.9101 34.0535 12.4743 37.0175C13.4519 38.8907 15.0161 40.4146 16.6361 41.1137L16.7478 41.1555V41.2814C16.7478 41.2814 16.7338 41.3933 16.7338 41.4492C16.7059 42.6655 17.3204 43.8398 18.3958 44.6227C18.9265 45.0142 23.8843 48.9426 24.3732 49.3622L24.5547 49.5299C25.3367 50.2429 26.5238 51.3333 28.1019 51.3333C29.6802 51.3333 30.8672 50.2429 31.6493 49.5299L31.8308 49.3622C32.3057 48.9426 37.2775 45.0142 37.8082 44.6227C38.8696 43.8538 39.498 42.6655 39.4561 41.4632C39.4561 41.4073 39.4561 41.3513 39.4561 41.3094V41.1835L39.5538 41.1417C41.1739 40.4426 42.738 38.9048 43.7157 37.0453C45.2798 34.0675 44.1206 31.2574 43.5621 29.9013L43.5202 29.8034L43.6039 29.7195C43.6039 29.7195 43.6459 29.6777 43.6737 29.6497L43.7017 29.6078L48.9389 23.9318C49.0506 23.8199 49.1484 23.708 49.2601 23.6101L49.3159 23.5543C50.126 22.7434 51.4946 21.4012 51.4946 18.6611C51.4946 17.7943 51.4946 15.7811 43.8414 6.35829L42.8078 5.11403H42.738ZM36.1462 42.4139C35.7831 42.6795 30.4762 46.8596 29.9455 47.335L29.736 47.5167C29.2053 48.0059 28.5628 48.6072 28.0461 48.6072C27.5294 48.6072 26.873 48.0061 26.3563 47.5307L26.1468 47.335C25.6161 46.8596 20.3231 42.6795 19.946 42.4139C19.6387 42.1901 19.3454 41.7846 19.4572 41.4073L19.4851 41.3234L19.5689 41.2954C24.2753 39.6177 26.7053 37.7723 27.9344 36.5141L28.0601 36.3882L28.1857 36.5141C29.4008 37.7723 31.8448 39.6177 36.5513 41.2954L36.6351 41.3234L36.663 41.4073C36.7608 41.7708 36.4814 42.1901 36.1741 42.4139H36.1462ZM48.6876 18.6611C48.6876 20.2549 48.059 20.884 47.3328 21.611C47.1791 21.7507 47.0395 21.9046 46.8859 22.0723L43.8414 25.3717C42.8078 26.4902 41.8721 27.5106 41.6348 27.7484C41.5929 27.7902 41.5371 27.8463 41.4951 27.9021L41.4673 27.9301C40.9226 28.4894 40.2522 29.1743 40.7549 30.3907L40.8667 30.6563C41.4811 32.1102 42.2353 33.9137 41.2577 35.7591C40.3499 37.4788 38.7858 38.7929 37.5987 38.8209H37.5847H37.5568C34.1211 37.5627 30.2945 35.5355 29.4287 33.8298V33.7739L29.4148 30.3486L34.6798 28.8388L33.9118 20.2409C33.8139 19.2203 34.4983 18.2976 35.5039 18.0879L41.2856 16.9974L39.6376 14.6207L30.8951 16.3263L31.8448 26.8675L28.3114 27.8741H28.2836L24.3312 26.8397V26.6998L25.2809 16.3263L16.5383 14.6207L14.8904 16.9974L20.6583 18.0879C21.6638 18.2976 22.348 19.2203 22.2504 20.2409L21.4683 28.8668L26.7473 30.2369V33.8298C25.8674 35.5215 22.0408 37.5487 18.6192 38.8069H18.5634C17.3623 38.7929 15.7981 37.4788 14.8904 35.7591C13.9128 33.9137 14.6669 32.0962 15.2814 30.6563L15.3931 30.3907C15.8959 29.1883 15.2255 28.4894 14.6809 27.9301L14.6529 27.9021C14.6529 27.9021 14.5552 27.7902 14.4993 27.7484L9.24819 22.0723C9.09458 21.9046 8.94095 21.7647 8.80129 21.611C8.07508 20.884 7.44661 20.2549 7.44661 18.6611C7.44661 16.7597 14.1921 8.44138 14.4854 8.09187L14.5552 8.00798L14.6809 8.03594C15.2814 8.14779 20.6024 9.18234 21.3286 9.18234C21.9292 9.18234 23.1301 8.76292 24.415 8.31554L24.4708 8.28758C24.7782 8.17575 25.0854 8.07788 25.3926 7.96605C26.845 7.47672 27.8785 7.4208 28.0601 7.40683H28.1159C28.3114 7.40683 29.331 7.46275 30.7974 7.96605C31.1186 8.07788 31.4538 8.18972 31.775 8.30157C33.0459 8.74894 34.247 9.16835 34.8613 9.16835C35.5876 9.16835 40.8946 8.14779 41.5091 8.02195L41.6348 7.99399L41.7046 8.07788C41.998 8.42739 48.7434 16.7457 48.7434 18.6471L48.6876 18.6611Z" fill="white"/>
<path d="M66.8924 21.9078C68.0138 21.3184 69.2958 21.0237 70.7353 21.0237C72.4126 21.0237 73.9292 21.4369 75.2851 22.2601C76.641 23.0833 77.7174 24.2556 78.5078 25.7739C79.2983 27.2921 79.6935 29.0506 79.6935 31.0525C79.6935 33.0544 79.2983 34.8257 78.5078 36.3664C77.7174 37.9071 76.641 39.1018 75.2851 39.9506C73.9259 40.7994 72.4093 41.2222 70.7353 41.2222C69.2701 41.2222 67.9913 40.9339 66.8924 40.3574C65.7935 39.7808 64.9132 39.0345 64.2545 38.1153V40.9051H59.2966V14.7778H64.2545V24.2044C64.8907 23.2627 65.7711 22.4971 66.8924 21.911V21.9078ZM73.9067 28C73.4215 27.1416 72.7853 26.4882 71.9949 26.0397C71.2044 25.5913 70.3465 25.3703 69.4276 25.3703C68.5086 25.3703 67.6861 25.6009 66.8956 26.0589C66.1052 26.517 65.4658 27.1832 64.9838 28.0544C64.4987 28.9257 64.2577 29.9507 64.2577 31.1262C64.2577 32.3017 64.4987 33.3267 64.9838 34.1979C65.469 35.0691 66.1052 35.7322 66.8956 36.1934C67.6861 36.6515 68.5311 36.8821 69.4276 36.8821C70.324 36.8821 71.2044 36.6483 71.9949 36.1774C72.7853 35.7066 73.4247 35.0371 73.9067 34.1659C74.3918 33.2947 74.6328 32.2601 74.6328 31.0589C74.6328 29.8578 74.3918 28.8648 73.9067 28.0064V28Z" fill="white"/>
<path d="M88.6387 21.943C89.6669 21.3536 90.8397 21.059 92.1635 21.059V26.2479H90.8526C89.2942 26.2479 88.1182 26.6131 87.3278 27.3434C86.5374 28.0737 86.1422 29.3453 86.1422 31.155V40.8987H81.1843V21.3408H86.1422V24.3773C86.7784 23.3427 87.6106 22.5292 88.6387 21.9398V21.943Z" fill="white"/>
<path d="M93.9854 25.7931C94.7759 24.262 95.849 23.0865 97.2082 22.2633C98.5641 21.4401 100.084 21.0269 101.758 21.0269C103.223 21.0269 104.502 21.3216 105.601 21.911C106.7 22.5004 107.577 23.2403 108.239 24.1339V21.344H113.232V40.9019H108.239V38.0416C107.603 38.9609 106.722 39.72 105.601 40.319C104.479 40.9179 103.188 41.219 101.723 41.219C100.071 41.219 98.5641 40.7962 97.2082 39.9474C95.849 39.0986 94.7759 37.9071 93.9854 36.3632C93.195 34.8225 92.7998 33.0512 92.7998 31.0493C92.7998 29.0474 93.195 27.3178 93.9854 25.7899V25.7931ZM107.532 28.0352C107.06 27.1768 106.423 26.517 105.62 26.059C104.817 25.6009 103.956 25.3703 103.034 25.3703C102.111 25.3703 101.263 25.5945 100.482 26.0397C99.7048 26.4882 99.0718 27.1416 98.5866 28C98.1014 28.8584 97.8605 29.877 97.8605 31.0525C97.8605 32.228 98.1014 33.2594 98.5866 34.1403C99.0718 35.0243 99.708 35.7002 100.498 36.171C101.289 36.6419 102.134 36.8757 103.03 36.8757C103.927 36.8757 104.814 36.6451 105.617 36.187C106.42 35.729 107.056 35.0692 107.529 34.2107C108.001 33.3523 108.236 32.3209 108.236 31.123C108.236 29.925 107.998 28.8937 107.529 28.0352H107.532Z" fill="white"/>
<path d="M124.85 36.3504L129.808 21.3441H135.084L127.823 40.9019H121.801L114.575 21.3441H119.886L124.844 36.3504H124.85Z" fill="white"/>
<path d="M153.859 32.606H139.515C139.634 34.0186 140.129 35.1236 141.003 35.9244C141.877 36.7251 142.95 37.1255 144.226 37.1255C146.067 37.1255 147.378 36.3376 148.159 34.7585H153.505C152.94 36.6419 151.854 38.1889 150.247 39.3997C148.641 40.6136 146.671 41.219 144.332 41.219C142.442 41.219 140.749 40.8026 139.249 39.9666C137.748 39.1306 136.582 37.9487 135.743 36.4176C134.905 34.8866 134.487 33.1217 134.487 31.123C134.487 29.1243 134.898 27.321 135.727 25.7931C136.553 24.262 137.71 23.0865 139.197 22.2633C140.685 21.4401 142.398 21.0269 144.332 21.0269C146.266 21.0269 147.866 21.4273 149.344 22.2281C150.819 23.0289 151.966 24.1659 152.779 25.6361C153.592 27.1064 154 28.7976 154 30.7034C154 31.4081 153.952 32.0455 153.859 32.6092V32.606ZM148.865 29.2876C148.843 28.016 148.38 26.9974 147.484 26.2351C146.587 25.4696 145.489 25.0884 144.19 25.0884C142.963 25.0884 141.928 25.46 141.093 26.1999C140.254 26.9398 139.74 27.9712 139.554 29.2876H148.869H148.865Z" fill="white"/>
</g>
<defs>
<clipPath id="clip0_1752_658">
<rect width="154" height="56" fill="white"/>
</clipPath>
</defs>
</svg>
