<svg width="481" height="459" viewBox="0 0 481 459" fill="none" xmlns="http://www.w3.org/2000/svg">
<g filter="url(#filter0_f_6228_28610)">
<ellipse cx="240.5" cy="229.5" rx="140.5" ry="129.5" fill="#4F5277" fill-opacity="0.3"/>
</g>
<g clip-path="url(#clip0_6228_28610)">
<path d="M333.27 157.618C347.78 161.506 362.697 152.888 366.587 138.369C370.478 123.85 361.869 108.928 347.359 105.04C332.849 101.152 317.932 109.77 314.042 124.289C310.151 138.808 318.76 153.73 333.27 157.618Z" fill="#A6ABE8"/>
<path d="M344.128 117.088L341.307 127.616L349.727 134.133L344.128 117.088Z" fill="#F5F4FE"/>
<path d="M344.127 117.088L330.754 129.05L341.306 127.616L344.127 117.088Z" fill="#F5F4FE"/>
<path d="M338.414 138.414L336.497 145.568L349.29 135.792L338.414 138.414Z" fill="#F5F4FE"/>
<path d="M336.496 145.568L338.414 138.413L330.311 130.707L336.496 145.568Z" fill="#F5F4FE"/>
<path d="M338.858 136.758L349.727 134.134L341.307 127.618L338.858 136.758Z" fill="#F5F4FE"/>
<path d="M330.755 129.05L338.857 136.758L341.306 127.618L330.755 129.05Z" fill="#F5F4FE"/>
</g>
<g clip-path="url(#clip1_6228_28610)">
<path d="M394.192 179.241C401.992 179.241 408.315 172.914 408.315 165.109C408.315 157.304 401.992 150.977 394.192 150.977C386.393 150.977 380.07 157.304 380.07 165.109C380.07 172.914 386.393 179.241 394.192 179.241Z" fill="#A6ABE8"/>
<path d="M396.938 162.424C396.969 162.374 396.997 162.307 397.026 162.249C397.675 161.099 398.017 159.801 398.018 158.48C397.103 157.951 396.137 157.618 395.087 157.503C395.476 159.201 396.026 160.845 396.823 162.395L396.938 162.424ZM391.693 162.134L391.664 162.128L391.441 162.077V162.073H391.438L391.639 161.197C391.787 161.229 391.936 161.264 392.084 161.3H392.087C392.628 160.078 393.05 158.806 393.347 157.503C391.978 157.654 390.676 158.173 389.577 159.005V159.008C388.656 159.706 387.904 160.604 387.379 161.634C386.854 162.664 386.568 163.8 386.544 164.957V165.11C387.36 165.579 388.256 165.896 389.185 166.045L389.19 166.04C390.166 164.835 391.006 163.525 391.695 162.135H391.693V162.134ZM396.481 163.426C396.649 163.515 396.712 163.643 396.791 163.893C396.902 164.27 396.827 164.668 396.749 165.041L397.673 165.256L397.903 164.259C398.837 165.697 399.873 167.183 401.13 168.349C400.902 168.868 400.761 169.049 400.425 169.504C398.366 168.87 396.173 168.534 394.018 168.555L394.203 167.818L393.588 167.675C393.493 167.651 393.395 167.608 393.338 167.524C393.266 167.428 393.266 167.302 393.29 167.189L393.674 165.516C393.873 165.564 394.081 165.595 394.267 165.684C394.354 165.719 394.432 165.774 394.494 165.844C394.556 165.915 394.6 165.999 394.623 166.09C394.674 166.344 394.566 166.588 394.523 166.832L395.35 167.023L396.04 164.033L395.97 164.009L395.915 163.999C396.107 163.798 396.274 163.62 396.446 163.402L396.482 163.426H396.481ZM389.21 166.237L389.229 166.21C389.39 166.245 389.514 166.232 389.678 166.249C390.267 166.301 390.838 166.313 391.423 166.23C391.468 166.224 391.514 166.219 391.559 166.217L391.423 166.739C391.399 166.842 391.354 166.949 391.265 167.015C391.222 167.044 391.172 167.063 391.12 167.072C391.069 167.081 391.016 167.079 390.965 167.067C390.754 167.024 390.544 166.967 390.331 166.926C390.267 167.217 390.197 167.51 390.13 167.799L391.543 168.126C391.485 168.39 391.471 168.461 391.411 168.722C390.236 168.884 389.074 169.137 387.938 169.481C387.603 169.026 387.46 168.916 387.236 168.397C387.951 167.733 388.595 166.995 389.21 166.237ZM392.489 168.345L393.056 168.476L393.037 168.588L392.432 168.632L392.489 168.345ZM391.445 166.062C391.488 166.055 391.533 166.052 391.577 166.05V166.047L392.306 162.89C392.335 162.746 392.392 162.603 392.347 162.459C392.33 162.408 392.3 162.361 392.262 162.323C392.224 162.284 392.177 162.255 392.125 162.238L392.102 162.23C391.981 162.198 392.074 162.221 391.951 162.192C391.937 162.189 391.876 162.209 391.862 162.207C391.181 163.581 390.348 164.874 389.381 166.064C389.541 166.098 389.515 166.088 389.675 166.105C390.265 166.159 390.858 166.144 391.444 166.062L391.445 166.062Z" fill="#F5F4FE"/>
<path d="M393.065 161.524V161.526C393.177 161.053 393.283 160.577 393.397 160.103L394.339 160.32L394.012 161.744L394.576 161.875C394.632 161.639 394.688 161.401 394.742 161.164L394.824 160.808L394.906 160.452L395.848 160.667C395.835 160.731 395.821 160.795 395.807 160.859C395.716 161.271 395.614 161.68 395.523 162.094L396.607 162.347C395.811 160.797 395.284 159.176 394.896 157.478C394.652 157.45 394.55 157.459 394.303 157.455H394.153C393.882 157.455 393.782 157.448 393.517 157.478C393.219 158.782 392.867 160.149 392.325 161.371L393.065 161.524ZM394.315 162.742L394.344 162.748L394.347 162.742H394.315Z" fill="white"/>
<path d="M394.317 162.742L393.88 164.639C394.152 164.699 394.435 164.798 394.714 164.72C394.804 164.692 394.885 164.642 394.951 164.574C395.017 164.507 395.065 164.425 395.092 164.335C395.144 164.167 395.17 163.995 395.216 163.827L395.678 163.945C395.698 163.948 395.675 163.96 395.688 163.947L395.699 163.938C395.891 163.732 396.107 163.507 396.279 163.29C395.997 163.148 395.696 163.048 395.386 162.991L394.317 162.742ZM401.183 161.996C400.523 160.52 399.583 159.409 398.185 158.599C398.183 159.92 397.866 161.1 397.217 162.251C397.178 162.323 397.142 162.397 397.109 162.473C397.547 162.568 397.819 162.627 398.257 162.725V162.73L397.975 163.997C398.907 165.435 399.947 167.018 401.202 168.185C401.602 167.272 401.82 166.289 401.842 165.291V164.932C401.818 163.919 401.594 162.921 401.183 161.995V161.996ZM386.544 165.277V165.388C386.559 166.408 386.777 167.247 387.185 168.182C387.861 167.557 388.49 166.882 389.066 166.163C388.138 166.015 387.357 165.749 386.544 165.277ZM393.992 168.722L393.672 170.119H393.67L392.723 169.902L392.986 168.756L392.384 168.799L392.161 169.77H392.16L391.212 169.552C391.261 169.337 391.308 169.126 391.361 168.914C390.233 169.067 389.12 169.313 388.034 169.648C388.732 170.596 389.639 171.371 390.684 171.911C391.729 172.452 392.885 172.744 394.062 172.765H394.375C395.543 172.735 396.688 172.438 397.724 171.898C398.76 171.358 399.659 170.589 400.353 169.648C398.293 169.013 396.148 168.701 393.992 168.722Z" fill="white"/>
</g>
<g clip-path="url(#clip2_6228_28610)">
<path d="M138.055 171.545C146.705 169.226 151.838 160.328 149.52 151.672C147.202 143.016 138.312 137.879 129.662 140.199C121.012 142.518 115.879 151.416 118.197 160.072C120.514 168.728 129.405 173.864 138.055 171.545Z" fill="#A6ABE8"/>
<path d="M141.929 157.578L140.223 160.691C140.186 160.759 140.135 160.818 140.073 160.866C140.012 160.914 139.941 160.949 139.866 160.97L128.631 163.982C128.577 163.996 128.521 163.995 128.468 163.979C128.416 163.962 128.369 163.931 128.335 163.888C128.301 163.846 128.28 163.795 128.276 163.741C128.271 163.687 128.282 163.633 128.309 163.585L130.017 160.471C130.054 160.403 130.105 160.344 130.166 160.296C130.227 160.248 130.298 160.213 130.373 160.193L141.607 157.18C141.661 157.166 141.717 157.167 141.77 157.184C141.822 157.2 141.868 157.232 141.903 157.274C141.937 157.316 141.958 157.367 141.962 157.421C141.967 157.475 141.956 157.53 141.929 157.578ZM138.223 153.223C138.157 153.183 138.083 153.157 138.006 153.146C137.929 153.136 137.85 153.141 137.775 153.161L126.54 156.173C126.486 156.188 126.438 156.217 126.401 156.258C126.364 156.298 126.339 156.349 126.331 156.402C126.322 156.456 126.33 156.511 126.353 156.56C126.376 156.609 126.413 156.65 126.46 156.679L129.495 158.521C129.561 158.56 129.634 158.587 129.711 158.597C129.788 158.608 129.867 158.603 129.942 158.583L141.176 155.571C141.23 155.557 141.278 155.527 141.315 155.487C141.352 155.446 141.377 155.396 141.385 155.342C141.394 155.288 141.386 155.234 141.363 155.185C141.341 155.135 141.303 155.094 141.257 155.066L138.223 153.223ZM126.109 154.564L137.344 151.551C137.419 151.531 137.49 151.496 137.552 151.448C137.613 151.4 137.664 151.341 137.701 151.273L139.407 148.16C139.434 148.112 139.445 148.057 139.441 148.003C139.436 147.949 139.415 147.898 139.381 147.856C139.347 147.814 139.301 147.782 139.248 147.766C139.196 147.749 139.139 147.748 139.085 147.762L127.851 150.775C127.776 150.795 127.705 150.83 127.644 150.878C127.583 150.926 127.532 150.985 127.495 151.053L125.788 154.166C125.761 154.214 125.75 154.269 125.754 154.323C125.759 154.377 125.78 154.428 125.814 154.47C125.848 154.512 125.894 154.543 125.947 154.56C125.999 154.577 126.055 154.578 126.109 154.564Z" fill="#F5F4FE"/>
</g>
<path d="M371.963 275.942L369.975 279.524C369.9 279.658 369.771 279.753 369.62 279.783L365.585 280.59C365.175 280.672 365.022 281.178 365.317 281.473L368.113 284.271C368.224 284.382 368.279 284.536 368.264 284.692L367.855 288.784C367.815 289.184 368.221 289.477 368.588 289.314L372.234 287.693C372.384 287.626 372.557 287.633 372.701 287.713L376.214 289.666C376.599 289.881 377.061 289.55 376.982 289.116L376.183 284.715C376.152 284.547 376.206 284.374 376.327 284.252L379.105 281.473C379.4 281.178 379.247 280.672 378.837 280.59L374.83 279.788C374.664 279.755 374.524 279.643 374.455 279.488L372.899 275.984C372.723 275.589 372.173 275.565 371.963 275.942Z" fill="#E85FA9"/>
<path d="M99.6397 210.515L98.4629 212.635C98.3884 212.769 98.2587 212.864 98.1082 212.894L95.696 213.377C95.2865 213.459 95.1335 213.964 95.4287 214.259L97.0882 215.92C97.199 216.031 97.2543 216.186 97.2387 216.342L96.9921 218.809C96.9522 219.209 97.3584 219.502 97.7251 219.339L99.9105 218.367C100.061 218.3 100.234 218.308 100.377 218.388L102.429 219.529C102.815 219.743 103.277 219.413 103.198 218.978L102.723 216.365C102.692 216.196 102.746 216.023 102.868 215.902L104.509 214.259C104.804 213.964 104.651 213.459 104.241 213.377L101.857 212.9C101.691 212.866 101.551 212.754 101.482 212.599L100.575 210.557C100.4 210.162 99.8492 210.138 99.6397 210.515Z" fill="#E85FA9"/>
<ellipse cx="80.0922" cy="209.598" rx="2.09217" ry="2.09368" fill="#E2A500"/>
<ellipse cx="84.2756" cy="204.362" rx="1.04608" ry="1.04684" fill="#E85FA9"/>
<ellipse cx="96.307" cy="256.181" rx="4.70737" ry="4.71077" fill="#E2A500"/>
<ellipse cx="105.199" cy="256.705" rx="2.09217" ry="2.09368" fill="#E85FA9"/>
<ellipse cx="385.547" cy="288.111" rx="2.09217" ry="2.09368" fill="#E2A500"/>
<ellipse cx="404.901" cy="276.072" rx="4.70737" ry="4.71077" fill="#E2A500"/>
<ellipse cx="391.825" cy="295.438" rx="1.04608" ry="1.04684" fill="#E85FA9"/>
<g clip-path="url(#clip3_6228_28610)">
<path d="M334.865 159.994C350.602 164.211 366.778 154.872 370.995 139.134C375.212 123.397 365.873 107.221 350.135 103.004C334.398 98.7875 318.222 108.127 314.005 123.864C309.789 139.601 319.128 155.777 334.865 159.994Z" fill="#5472E8"/>
<path d="M346.633 116.063L343.575 127.475L352.708 134.541L346.633 116.063Z" fill="#C1CCF8"/>
<path d="M346.633 116.064L332.131 129.027L343.575 127.475L346.633 116.064Z" fill="white"/>
<path d="M340.439 139.18L338.362 146.933L352.234 136.339L340.439 139.18Z" fill="#C1CCF8"/>
<path d="M338.362 146.933L340.44 139.178L331.65 130.823L338.362 146.933Z" fill="white"/>
<path d="M340.921 137.385L352.709 134.541L343.575 127.478L340.921 137.385Z" fill="#8BA1F6"/>
<path d="M332.131 129.028L340.92 137.385L343.574 127.478L332.131 129.028Z" fill="#C1CCF8"/>
</g>
<g clip-path="url(#clip4_6228_28610)">
<path d="M138.808 173.301C149.744 170.371 156.234 159.13 153.303 148.194C150.373 137.258 139.132 130.768 128.196 133.698C117.26 136.628 110.77 147.869 113.7 158.805C116.631 169.741 127.872 176.231 138.808 173.301Z" fill="black"/>
<path d="M143.707 155.655L141.549 159.588C141.502 159.674 141.438 159.749 141.36 159.81C141.282 159.87 141.193 159.915 141.098 159.94L126.893 163.746C126.825 163.764 126.754 163.763 126.687 163.742C126.621 163.721 126.563 163.681 126.519 163.628C126.476 163.575 126.45 163.51 126.444 163.442C126.438 163.374 126.453 163.305 126.486 163.244L128.646 159.31C128.693 159.225 128.757 159.15 128.834 159.089C128.911 159.029 129 158.984 129.096 158.959L143.299 155.153C143.367 155.135 143.439 155.136 143.505 155.157C143.571 155.178 143.63 155.218 143.673 155.271C143.716 155.325 143.743 155.389 143.748 155.457C143.754 155.526 143.74 155.594 143.707 155.655ZM139.021 150.154C138.938 150.103 138.844 150.07 138.747 150.056C138.649 150.043 138.55 150.049 138.454 150.075L124.25 153.881C124.182 153.899 124.121 153.936 124.074 153.987C124.027 154.039 123.996 154.102 123.985 154.17C123.974 154.238 123.984 154.307 124.013 154.369C124.042 154.431 124.089 154.483 124.148 154.519L127.986 156.846C128.069 156.896 128.162 156.93 128.259 156.943C128.356 156.957 128.456 156.951 128.551 156.925L142.755 153.12C142.822 153.101 142.883 153.064 142.93 153.013C142.977 152.962 143.008 152.898 143.019 152.83C143.03 152.762 143.02 152.693 142.991 152.631C142.962 152.569 142.915 152.517 142.856 152.481L139.021 150.154ZM123.705 151.847L137.909 148.041C138.005 148.016 138.094 147.971 138.172 147.911C138.249 147.85 138.314 147.775 138.361 147.689L140.518 143.756C140.552 143.695 140.566 143.627 140.56 143.558C140.554 143.49 140.528 143.426 140.485 143.372C140.441 143.319 140.383 143.279 140.317 143.258C140.25 143.237 140.179 143.236 140.111 143.254L125.907 147.06C125.812 147.086 125.723 147.13 125.646 147.19C125.568 147.251 125.504 147.326 125.458 147.411L123.298 151.345C123.265 151.406 123.251 151.474 123.257 151.542C123.262 151.61 123.289 151.675 123.332 151.728C123.375 151.782 123.433 151.821 123.499 151.843C123.566 151.864 123.637 151.865 123.705 151.847Z" fill="#66FFF6"/>
</g>
<g clip-path="url(#clip5_6228_28610)">
<path d="M401.498 177.991C408.673 173.848 411.131 164.675 406.989 157.5C402.846 150.326 393.673 147.868 386.498 152.01C379.324 156.152 376.866 165.326 381.008 172.5C385.15 179.675 394.324 182.133 401.498 177.991Z" fill="#42C1CA"/>
<path d="M392.322 162.99C391.965 161.793 391.72 160.672 391.684 159.869C391.632 159.506 391.702 158.524 391.957 157.754C392.382 156.471 393.248 155.708 394.638 155.759L394.631 155.953L394.638 155.759C395.348 155.785 395.751 156.001 395.842 156.371C395.91 156.645 395.761 156.983 395.612 157.043C395.422 157.18 395.195 157.257 394.918 157.226C394.682 157.195 394.459 157.099 394.273 156.951C393.936 156.696 393.683 156.69 393.469 156.85C393.313 156.965 393.181 157.183 393.161 157.289L393.104 157.556C393.057 157.758 393.03 157.964 393.025 158.172C393.013 158.891 393.282 160.041 394.043 162.306L396.992 161.134L397.471 162.31L394.478 163.499L394.774 164.284L394.847 164.48C394.885 164.583 394.926 164.694 394.968 164.813L397.99 163.613L398.458 164.793L395.365 166.022C395.844 167.612 396.276 169.362 396.312 170.131C396.364 170.495 396.294 171.476 396.039 172.247C395.614 173.529 394.748 174.293 393.358 174.241C392.648 174.215 392.245 173.999 392.154 173.629C392.085 173.355 392.235 173.018 392.384 172.958C392.574 172.821 392.801 172.744 393.077 172.774C393.291 172.798 393.507 172.887 393.722 173.05C394.059 173.304 394.313 173.311 394.527 173.151C394.682 173.035 394.814 172.817 394.834 172.711C395.053 171.677 394.78 170.087 393.645 166.706L390.696 167.877L390.216 166.701L393.209 165.513L392.914 164.728C392.847 164.552 392.783 164.375 392.72 164.198L389.71 165.394L389.241 164.214L392.322 162.99Z" fill="white"/>
</g>
<g opacity="0.8" filter="url(#filter1_f_6228_28610)">
<ellipse cx="243.051" cy="334" rx="70" ry="6" fill="#0E0E34"/>
</g>
<rect x="145" y="186.566" width="186.798" height="121.433" rx="12.6732" fill="#3B3F70"/>
<path d="M279.392 247.16C279.392 236.333 288.169 227.556 298.996 227.556H323.085C333.912 227.556 342.689 236.333 342.689 247.16C342.689 257.987 333.912 266.764 323.085 266.764H298.996C288.169 266.764 279.392 257.987 279.392 247.16Z" fill="#0E0E34"/>
<ellipse cx="297.041" cy="247.13" rx="9.63738" ry="9.62471" fill="#6D71A5"/>
<path d="M268.269 235.177C267.676 233.536 267.093 231.889 266.522 230.236C266.464 230.047 266.47 229.843 266.54 229.658C266.974 228.574 267.426 227.489 267.886 226.383C267.936 226.297 267.953 226.196 267.935 226.098C267.917 226 267.865 225.912 267.787 225.848C266.329 224.377 264.921 222.881 263.455 221.428C262.645 220.622 261.576 220.319 260.468 220.167C259.047 220.018 257.611 220.105 256.219 220.423C256.134 220.436 256.047 220.431 255.964 220.408C255.882 220.386 255.804 220.347 255.737 220.293C253.867 218.222 252.017 216.133 250.157 214.04C250.117 213.983 250.088 213.92 250.07 213.853H229.216C228.333 214.868 227.454 215.887 226.564 216.896C225.616 217.98 224.639 219.021 223.712 220.116C223.606 220.254 223.461 220.357 223.295 220.412C223.13 220.468 222.951 220.473 222.782 220.427C221.712 220.257 220.631 220.159 219.547 220.134C218.36 220.082 217.19 220.427 216.225 221.114C215.612 221.615 215.036 222.159 214.5 222.74C214.135 223.102 213.807 223.445 213.464 223.803L211.557 225.78C211.448 225.862 211.372 225.98 211.343 226.112C211.314 226.245 211.334 226.383 211.4 226.503C211.845 227.515 212.268 228.537 212.662 229.575C212.752 229.827 212.761 230.101 212.687 230.359C212.14 231.967 211.553 233.569 211.002 235.181C210.899 235.462 210.875 235.765 210.933 236.059C212.053 240.349 213.194 244.632 214.325 248.918C214.956 251.3 215.583 253.689 216.214 256.068C216.763 258.157 217.317 260.244 217.873 262.331C217.975 262.693 218.085 263.087 218.198 263.459C218.606 264.937 219.259 266.338 220.131 267.604C220.342 267.897 220.565 268.172 220.798 268.436C221.4 269.101 222.066 269.706 222.786 270.243C223.151 270.521 223.515 270.785 223.906 271.045C223.96 271.081 224.015 271.118 224.066 271.157C224.113 271.191 224.162 271.222 224.212 271.251L225.062 271.83C225.138 271.88 225.219 271.938 225.302 271.989C227.629 273.564 229.96 275.138 232.294 276.709L234.96 278.516L235.277 278.729L235.58 278.928C235.606 278.949 235.634 278.968 235.664 278.982C236.441 279.495 237.228 279.987 238.027 280.468C238.378 280.703 238.778 280.858 239.197 280.921C239.616 280.983 240.044 280.952 240.449 280.829C240.724 280.741 240.988 280.62 241.233 280.468C241.306 280.421 241.386 280.374 241.459 280.323C242.281 279.805 243.098 279.285 243.91 278.762L244.191 278.581L244.311 278.502L244.366 278.469C245.135 277.974 245.901 277.464 246.66 276.955C246.711 276.926 246.758 276.89 246.806 276.857L247.003 276.727L247.108 276.655C248.222 275.905 249.333 275.153 250.442 274.399C252.346 273.105 254.248 271.805 256.15 270.499C258.735 268.728 260.3 266.26 261.099 263.271C261.799 260.635 262.502 257.999 263.207 255.363C263.327 254.904 263.451 254.445 263.571 253.986C265.147 248.049 266.727 242.11 268.313 236.171C268.408 235.844 268.393 235.495 268.269 235.177ZM248.4 260.705C247.783 261.2 247.141 261.659 246.521 262.15C244.559 263.688 242.603 265.23 240.653 266.777C239.818 267.438 239.453 267.46 238.629 266.816C236.04 264.8 233.456 262.777 230.879 260.748C230.226 260.235 230.259 259.783 231.003 259.393C233.516 258.077 236.003 256.689 238.724 255.807C239.016 255.713 239.311 255.641 239.646 255.547C240.117 255.699 240.609 255.84 241.105 256.013C243.658 256.921 246.018 258.243 248.4 259.494C248.965 259.808 248.961 260.264 248.4 260.716V260.705ZM260.851 238.43C258.502 240.862 256.168 243.313 253.823 245.752C253.454 246.082 253.205 246.523 253.114 247.007C253.023 247.491 253.095 247.991 253.319 248.431C253.64 249.165 253.911 249.92 254.133 250.689C254.308 251.28 254.349 251.901 254.251 252.509C254.154 253.116 253.922 253.695 253.571 254.203C252.842 255.287 252.017 256.248 250.777 256.787C250.304 257.002 249.764 257.024 249.275 256.848C246.079 255.793 243.218 253.923 240.981 251.427C240.095 250.422 240.091 249.93 241.178 249.121C242.422 248.192 243.757 247.39 245.048 246.529C245.777 246.038 246.507 245.561 247.236 245.044C247.966 244.527 248.082 244.133 247.71 243.345C247.189 242.239 246.539 241.177 245.996 240.092C245.613 239.341 245.282 238.565 245.008 237.768C244.872 237.434 244.86 237.064 244.973 236.722C245.087 236.38 245.318 236.089 245.628 235.9C246.414 235.394 247.247 234.963 248.115 234.613C250.256 233.764 252.426 232.987 254.578 232.181C254.735 232.119 254.88 232.04 255.034 231.964V231.79C254.669 231.732 254.275 231.646 253.892 231.613C252.484 231.498 251.076 231.404 249.672 231.295C248.162 231.176 246.755 231.657 245.354 232.054C244.716 232.228 244.081 232.416 243.465 232.64C242.736 232.911 242.491 233.334 242.633 234.085C242.951 235.791 243.286 237.49 243.593 239.196C243.836 240.613 244.067 242.044 244.286 243.49C244.421 244.357 244.176 244.701 243.312 244.896C242.293 245.176 241.256 245.388 240.208 245.532C239.374 245.55 238.54 245.471 237.724 245.297C237.072 245.199 236.433 245.026 235.792 244.87C235.15 244.715 234.872 244.433 234.949 243.786C235.091 242.503 235.281 241.224 235.507 239.951C235.85 238.047 236.258 236.156 236.601 234.252C236.736 233.471 236.776 232.914 235.638 232.596C234.083 232.095 232.5 231.682 230.897 231.36C229.756 231.176 228.552 231.36 227.378 231.414C226.586 231.458 225.798 231.566 225.011 231.653C224.752 231.685 224.5 231.751 224.245 231.794C224.241 231.836 224.231 231.877 224.216 231.917C224.406 232.029 224.605 232.127 224.81 232.21C227.082 233.07 229.369 233.905 231.637 234.779C232.254 235.015 232.844 235.315 233.395 235.676C234.314 236.272 234.599 236.999 234.205 238.014C233.811 239.03 233.22 240.085 232.702 241.112C232.338 241.802 231.94 242.46 231.608 243.161C231.244 244.025 231.306 244.545 232.039 245.029C233.184 245.792 234.344 246.533 235.485 247.303C236.375 247.896 237.247 248.514 238.126 249.11C238.196 249.162 238.262 249.22 238.323 249.284C239.052 249.974 239.107 250.415 238.432 251.159C237.719 251.954 236.959 252.705 236.156 253.411C234.387 254.972 232.283 255.97 230.087 256.801C229.794 256.918 229.477 256.967 229.162 256.946C228.846 256.925 228.539 256.833 228.264 256.678C227.463 256.275 226.76 255.705 226.201 255.008C225.643 254.311 225.243 253.502 225.029 252.638C224.737 251.43 225.146 250.277 225.602 249.157C225.722 248.864 225.842 248.564 225.966 248.272C226.157 247.898 226.224 247.475 226.158 247.062C226.093 246.649 225.898 246.267 225.602 245.969C224.449 244.719 223.278 243.49 222.111 242.261C220.842 240.924 219.566 239.598 218.282 238.285C217.831 237.809 217.539 237.207 217.444 236.561C217.349 235.915 217.455 235.255 217.749 234.671C218.87 232.718 220.135 230.85 221.535 229.083C222.542 227.76 223.607 226.474 224.62 225.154C224.718 225.007 224.862 224.895 225.03 224.837C225.199 224.779 225.381 224.778 225.55 224.833C227.655 225.22 229.756 225.639 231.878 225.917C232.608 226.007 233.439 225.74 234.194 225.534C235.288 225.23 236.382 224.833 237.451 224.479C239.176 223.915 240.861 224.117 242.557 224.688C243.832 225.159 245.135 225.552 246.459 225.863C247.257 225.96 248.066 225.915 248.848 225.729C250.559 225.462 252.254 225.126 253.954 224.836C254.047 224.822 254.143 224.827 254.234 224.852C254.326 224.877 254.41 224.921 254.483 224.981C256.824 227.872 259.177 230.764 261.113 233.923C261.226 234.111 261.321 234.309 261.438 234.497C262.273 235.878 261.835 237.392 260.851 238.43Z" fill="#0E0E34"/>
<path d="M248.4 260.715C247.784 261.21 247.142 261.669 246.522 262.161C244.56 263.698 242.604 265.24 240.654 266.787C239.818 267.449 239.454 267.47 238.629 266.827C236.04 264.81 233.452 262.787 230.865 260.759C230.212 260.245 230.245 259.794 230.989 259.403C233.502 258.088 235.989 256.7 238.71 255.818C239.001 255.724 239.297 255.652 239.632 255.558C240.103 255.709 240.595 255.85 241.091 256.024C243.644 256.931 246.004 258.254 248.385 259.504C248.965 259.808 248.962 260.263 248.4 260.715Z" fill="white"/>
<path d="M253.841 245.736C253.473 246.066 253.224 246.507 253.133 246.991C253.042 247.475 253.114 247.975 253.338 248.414C253.658 249.149 253.93 249.904 254.151 250.673C254.326 251.263 254.367 251.885 254.27 252.493C254.173 253.1 253.94 253.679 253.59 254.186C252.86 255.271 252.036 256.232 250.796 256.771C250.322 256.985 249.783 257.007 249.293 256.832C246.097 255.777 243.237 253.907 241 251.411C240.114 250.406 240.11 249.914 241.197 249.105C242.44 248.176 243.775 247.373 245.066 246.513C245.796 246.022 246.525 245.545 247.255 245.028C247.984 244.511 248.101 244.117 247.729 243.329C247.207 242.223 246.558 241.16 246.015 240.076C245.631 239.325 245.301 238.549 245.026 237.752C244.894 237.419 244.884 237.051 244.997 236.712C245.11 236.373 245.34 236.083 245.646 235.894C246.432 235.388 247.265 234.957 248.133 234.608C250.274 233.758 252.444 232.981 254.596 232.175C254.753 232.114 254.899 232.034 255.052 231.958V231.785C254.687 231.727 254.293 231.64 253.91 231.608C252.503 231.492 251.095 231.398 249.691 231.29C248.181 231.17 246.773 231.651 245.373 232.049C244.734 232.222 244.1 232.41 243.483 232.634C242.754 232.905 242.51 233.328 242.652 234.08C242.969 235.786 243.305 237.485 243.611 239.191C243.854 240.607 244.085 242.039 244.304 243.484C244.439 244.352 244.195 244.695 243.33 244.89C242.311 245.171 241.274 245.383 240.227 245.526C239.392 245.544 238.559 245.466 237.743 245.292C237.09 245.194 236.452 245.02 235.81 244.865C235.168 244.71 234.891 244.428 234.967 243.781C235.11 242.498 235.299 241.218 235.525 239.946C235.868 238.041 236.277 236.151 236.62 234.246C236.755 233.466 236.795 232.909 235.657 232.591C234.102 232.089 232.519 231.677 230.916 231.355C229.774 231.17 228.57 231.355 227.396 231.409C226.605 231.452 225.817 231.561 225.029 231.648C224.77 231.68 224.519 231.745 224.263 231.789C224.26 231.831 224.25 231.872 224.234 231.911C224.425 232.023 224.623 232.121 224.829 232.204C227.101 233.064 229.387 233.899 231.656 234.774C232.273 235.009 232.862 235.31 233.414 235.67C234.333 236.267 234.617 236.993 234.223 238.009C233.83 239.024 233.239 240.08 232.721 241.106C232.356 241.797 231.959 242.454 231.627 243.155C231.262 244.019 231.324 244.54 232.057 245.024C233.202 245.787 234.362 246.528 235.504 247.297C236.393 247.89 237.265 248.508 238.144 249.105C238.215 249.156 238.281 249.215 238.341 249.278C239.07 249.968 239.125 250.409 238.45 251.154C237.737 251.948 236.977 252.7 236.175 253.406C234.406 254.967 232.301 255.965 230.106 256.796C229.812 256.912 229.496 256.962 229.18 256.94C228.864 256.919 228.558 256.828 228.282 256.673C227.478 256.272 226.771 255.703 226.21 255.005C225.648 254.308 225.245 253.498 225.029 252.632C224.737 251.425 225.146 250.272 225.602 249.152C225.722 248.859 225.842 248.559 225.966 248.266C226.157 247.893 226.224 247.47 226.159 247.057C226.093 246.644 225.898 246.261 225.602 245.964C224.449 244.713 223.279 243.484 222.111 242.256C220.842 240.918 219.566 239.593 218.282 238.28C217.832 237.803 217.539 237.201 217.444 236.555C217.349 235.909 217.455 235.25 217.75 234.666C218.87 232.712 220.135 230.845 221.535 229.078C222.542 227.755 223.607 226.468 224.621 225.149C224.718 225.002 224.863 224.89 225.031 224.832C225.199 224.774 225.382 224.772 225.551 224.827C227.655 225.214 229.756 225.633 231.878 225.912C232.608 226.002 233.439 225.735 234.194 225.529C235.288 225.225 236.383 224.827 237.451 224.473C239.176 223.909 240.861 224.112 242.557 224.683C243.832 225.154 245.135 225.546 246.459 225.857C247.257 225.955 248.066 225.909 248.848 225.724C250.559 225.456 252.255 225.12 253.954 224.831C254.048 224.816 254.143 224.821 254.235 224.846C254.326 224.871 254.411 224.915 254.483 224.976C256.824 227.867 259.177 230.758 261.113 233.917C261.227 234.105 261.321 234.304 261.438 234.492C262.313 235.916 261.876 237.43 260.891 238.468C258.502 240.846 256.168 243.296 253.841 245.736Z" fill="white"/>
<path d="M268.117 127.387L211.768 137.456C206.889 138.328 203.832 143.226 205.193 147.992L216.249 186.717H290.521L277.724 133.662C276.686 129.358 272.475 126.608 268.117 127.387Z" fill="#6D71A5"/>
<path d="M194.531 172.897L203.173 186.67H282.675L261.965 145.22C260.058 141.404 255.586 139.632 251.584 141.108L198.724 160.597C193.738 162.435 191.706 168.395 194.531 172.897Z" fill="#ACACCE"/>
<defs>
<filter id="filter0_f_6228_28610" x="0" y="0" width="481" height="459" filterUnits="userSpaceOnUse" color-interpolation-filters="sRGB">
<feFlood flood-opacity="0" result="BackgroundImageFix"/>
<feBlend mode="normal" in="SourceGraphic" in2="BackgroundImageFix" result="shape"/>
<feGaussianBlur stdDeviation="50" result="effect1_foregroundBlur_6228_28610"/>
</filter>
<filter id="filter1_f_6228_28610" x="157.051" y="312" width="172" height="44" filterUnits="userSpaceOnUse" color-interpolation-filters="sRGB">
<feFlood flood-opacity="0" result="BackgroundImageFix"/>
<feBlend mode="normal" in="SourceGraphic" in2="BackgroundImageFix" result="shape"/>
<feGaussianBlur stdDeviation="8" result="effect1_foregroundBlur_6228_28610"/>
</filter>
<clipPath id="clip0_6228_28610">
<rect width="54.3989" height="54.433" fill="white" transform="translate(321.086 98) rotate(15)"/>
</clipPath>
<clipPath id="clip1_6228_28610">
<rect width="28.2442" height="28.2646" fill="white" transform="translate(380.07 150.977)"/>
</clipPath>
<clipPath id="clip2_6228_28610">
<rect width="32.4301" height="32.4504" fill="white" transform="matrix(0.965879 -0.258993 0.258645 0.965972 114 144.398)"/>
</clipPath>
<clipPath id="clip3_6228_28610">
<rect width="59" height="59" fill="white" transform="translate(321.641 95.3691) rotate(15)"/>
</clipPath>
<clipPath id="clip4_6228_28610">
<rect width="41" height="41" fill="white" transform="translate(108.395 139.004) rotate(-15)"/>
</clipPath>
<clipPath id="clip5_6228_28610">
<rect width="30" height="30" fill="white" transform="translate(373.508 159.51) rotate(-30)"/>
</clipPath>
</defs>
</svg>
