<svg width="481" height="459" viewBox="0 0 481 459" fill="none" xmlns="http://www.w3.org/2000/svg">
<g filter="url(#filter0_f_8119_93080)">
<ellipse cx="240.5" cy="229.5" rx="140.5" ry="129.5" fill="#8D94EB" fill-opacity="0.43"/>
</g>
<g opacity="0.8" filter="url(#filter1_f_8119_93080)">
<ellipse cx="244" cy="333.998" rx="70" ry="6" fill="#C1C5F8"/>
</g>
<rect x="144.949" y="186.564" width="186.798" height="121.433" rx="12.6732" fill="#5D65D3"/>
<path d="M279.341 247.158C279.341 236.331 288.118 227.554 298.945 227.554H323.034C333.861 227.554 342.638 236.331 342.638 247.158C342.638 257.985 333.861 266.762 323.034 266.762H298.945C288.118 266.762 279.341 257.985 279.341 247.158Z" fill="#393E82"/>
<ellipse cx="296.99" cy="247.128" rx="9.63738" ry="9.62471" fill="#A6ABE8"/>
<path d="M268.217 235.175C267.624 233.534 267.042 231.887 266.47 230.234C266.412 230.045 266.419 229.841 266.489 229.656C266.923 228.572 267.375 227.487 267.834 226.381C267.884 226.295 267.901 226.194 267.883 226.096C267.865 225.998 267.813 225.91 267.736 225.846C266.277 224.375 264.869 222.879 263.403 221.426C262.594 220.62 261.525 220.317 260.416 220.165C258.995 220.016 257.56 220.103 256.167 220.421C256.082 220.434 255.996 220.429 255.913 220.406C255.83 220.384 255.753 220.345 255.686 220.291C253.815 218.22 251.966 216.131 250.106 214.039C250.066 213.981 250.036 213.918 250.018 213.851H229.164C228.282 214.866 227.403 215.885 226.513 216.894C225.565 217.978 224.587 219.019 223.661 220.114C223.555 220.252 223.409 220.355 223.244 220.41C223.078 220.466 222.899 220.471 222.731 220.425C221.66 220.255 220.58 220.158 219.496 220.132C218.309 220.08 217.139 220.425 216.173 221.112C215.561 221.613 214.984 222.157 214.448 222.738C214.084 223.1 213.755 223.443 213.413 223.801L211.505 225.778C211.396 225.86 211.32 225.978 211.292 226.11C211.263 226.243 211.283 226.381 211.348 226.501C211.793 227.513 212.216 228.535 212.61 229.573C212.7 229.825 212.709 230.099 212.636 230.357C212.089 231.965 211.501 233.567 210.951 235.179C210.848 235.46 210.824 235.763 210.881 236.057C212.001 240.347 213.143 244.63 214.273 248.917C214.904 251.298 215.531 253.687 216.162 256.066C216.712 258.155 217.265 260.243 217.822 262.329C217.924 262.691 218.033 263.085 218.146 263.457C218.555 264.935 219.208 266.336 220.079 267.602C220.291 267.895 220.513 268.17 220.747 268.434C221.348 269.099 222.014 269.704 222.734 270.241C223.099 270.519 223.464 270.783 223.854 271.043C223.909 271.079 223.964 271.116 224.015 271.155C224.062 271.189 224.11 271.221 224.16 271.249L225.01 271.828C225.087 271.878 225.167 271.936 225.251 271.987C227.578 273.562 229.908 275.136 232.242 276.707L234.908 278.514L235.226 278.727L235.528 278.926C235.554 278.947 235.582 278.966 235.612 278.98C236.389 279.493 237.177 279.985 237.976 280.466C238.326 280.701 238.726 280.856 239.145 280.919C239.564 280.981 239.992 280.95 240.397 280.827C240.673 280.739 240.936 280.618 241.181 280.466C241.254 280.419 241.335 280.372 241.408 280.321C242.229 279.803 243.046 279.283 243.858 278.76L244.139 278.579L244.26 278.5L244.314 278.467C245.084 277.972 245.85 277.462 246.608 276.953C246.659 276.924 246.707 276.888 246.754 276.855L246.951 276.725L247.057 276.653C248.171 275.903 249.282 275.152 250.39 274.397C252.294 273.103 254.197 271.803 256.098 270.498C258.684 268.727 260.248 266.258 261.047 263.269C261.747 260.633 262.45 257.997 263.155 255.361C263.276 254.902 263.4 254.443 263.52 253.984C265.095 248.047 266.676 242.108 268.261 236.169C268.357 235.842 268.341 235.493 268.217 235.175ZM248.348 260.703C247.732 261.198 247.09 261.657 246.47 262.148C244.508 263.686 242.552 265.228 240.602 266.775C239.766 267.436 239.402 267.458 238.577 266.815C235.988 264.798 233.405 262.775 230.827 260.746C230.175 260.233 230.207 259.781 230.951 259.391C233.464 258.075 235.952 256.687 238.672 255.805C238.964 255.711 239.259 255.639 239.595 255.545C240.065 255.697 240.558 255.838 241.054 256.011C243.607 256.919 245.966 258.241 248.348 259.492C248.913 259.806 248.91 260.262 248.348 260.714V260.703ZM260.799 238.428C258.45 240.86 256.116 243.311 253.771 245.75C253.403 246.08 253.154 246.521 253.063 247.005C252.972 247.489 253.044 247.989 253.268 248.429C253.588 249.163 253.86 249.918 254.081 250.688C254.257 251.278 254.297 251.899 254.2 252.507C254.103 253.114 253.87 253.693 253.52 254.201C252.79 255.285 251.966 256.246 250.726 256.785C250.252 257 249.713 257.022 249.223 256.846C246.027 255.791 243.167 253.921 240.93 251.425C240.044 250.42 240.04 249.929 241.127 249.119C242.37 248.19 243.705 247.388 244.996 246.527C245.726 246.036 246.455 245.559 247.185 245.042C247.914 244.525 248.031 244.131 247.659 243.343C247.137 242.237 246.488 241.175 245.945 240.09C245.561 239.339 245.231 238.563 244.956 237.766C244.82 237.433 244.808 237.062 244.922 236.72C245.035 236.378 245.267 236.087 245.576 235.898C246.362 235.392 247.195 234.961 248.064 234.611C250.204 233.762 252.374 232.985 254.526 232.179C254.683 232.117 254.829 232.038 254.982 231.962V231.788C254.617 231.731 254.223 231.644 253.841 231.611C252.433 231.496 251.025 231.402 249.621 231.293C248.111 231.174 246.703 231.655 245.303 232.052C244.664 232.226 244.03 232.414 243.413 232.638C242.684 232.909 242.44 233.332 242.582 234.083C242.899 235.789 243.235 237.488 243.541 239.194C243.784 240.611 244.015 242.042 244.234 243.488C244.369 244.355 244.125 244.699 243.26 244.894C242.241 245.174 241.204 245.386 240.157 245.53C239.322 245.548 238.489 245.469 237.673 245.295C237.02 245.197 236.382 245.024 235.74 244.869C235.098 244.713 234.821 244.431 234.898 243.784C235.04 242.501 235.229 241.222 235.456 239.949C235.798 238.045 236.207 236.154 236.55 234.25C236.685 233.469 236.725 232.912 235.587 232.594C234.032 232.093 232.449 231.68 230.846 231.358C229.704 231.174 228.501 231.358 227.326 231.412C226.535 231.456 225.747 231.564 224.959 231.651C224.7 231.684 224.449 231.749 224.193 231.792C224.19 231.834 224.18 231.876 224.164 231.915C224.355 232.027 224.553 232.125 224.759 232.208C227.031 233.068 229.317 233.903 231.586 234.777C232.203 235.013 232.792 235.313 233.344 235.674C234.263 236.27 234.547 236.997 234.154 238.012C233.76 239.028 233.169 240.083 232.651 241.11C232.286 241.8 231.889 242.458 231.557 243.159C231.192 244.023 231.254 244.543 231.987 245.028C233.132 245.79 234.292 246.531 235.434 247.301C236.324 247.894 237.195 248.512 238.074 249.108C238.145 249.16 238.211 249.218 238.271 249.282C239.001 249.972 239.055 250.413 238.38 251.157C237.667 251.952 236.907 252.703 236.105 253.409C234.336 254.97 232.232 255.968 230.036 256.799C229.742 256.916 229.426 256.965 229.11 256.944C228.794 256.923 228.488 256.831 228.212 256.676C227.412 256.273 226.708 255.703 226.15 255.006C225.592 254.309 225.192 253.5 224.977 252.636C224.686 251.428 225.094 250.276 225.55 249.155C225.67 248.862 225.791 248.562 225.915 248.27C226.105 247.896 226.172 247.473 226.107 247.06C226.041 246.647 225.847 246.265 225.55 245.967C224.398 244.717 223.227 243.488 222.06 242.259C220.791 240.922 219.514 239.596 218.23 238.283C217.78 237.807 217.488 237.205 217.392 236.559C217.297 235.913 217.404 235.253 217.698 234.669C218.818 232.716 220.084 230.848 221.484 229.081C222.49 227.758 223.555 226.472 224.569 225.153C224.667 225.005 224.811 224.894 224.979 224.835C225.147 224.777 225.33 224.776 225.499 224.831C227.603 225.218 229.704 225.637 231.827 225.915C232.556 226.005 233.388 225.738 234.143 225.532C235.237 225.228 236.331 224.831 237.399 224.477C239.125 223.913 240.809 224.115 242.505 224.686C243.78 225.157 245.084 225.55 246.408 225.861C247.206 225.958 248.015 225.913 248.797 225.727C250.507 225.46 252.203 225.124 253.903 224.834C253.996 224.82 254.092 224.825 254.183 224.85C254.274 224.875 254.359 224.919 254.431 224.979C256.773 227.87 259.125 230.762 261.062 233.921C261.175 234.109 261.27 234.308 261.386 234.495C262.222 235.876 261.784 237.391 260.799 238.428Z" fill="#393E82"/>
<path d="M248.349 260.713C247.732 261.208 247.09 261.667 246.47 262.159C244.508 263.696 242.552 265.238 240.602 266.785C239.767 267.447 239.402 267.468 238.578 266.825C235.989 264.808 233.4 262.785 230.813 260.757C230.16 260.243 230.193 259.792 230.937 259.401C233.45 258.086 235.937 256.698 238.658 255.816C238.95 255.722 239.245 255.65 239.581 255.556C240.051 255.707 240.544 255.848 241.04 256.022C243.593 256.929 245.952 258.252 248.334 259.502C248.914 259.806 248.91 260.261 248.349 260.713Z" fill="#F5F4FE"/>
<path d="M253.79 245.734C253.421 246.064 253.172 246.505 253.081 246.989C252.99 247.473 253.062 247.973 253.286 248.412C253.607 249.147 253.878 249.902 254.1 250.671C254.275 251.261 254.315 251.883 254.218 252.491C254.121 253.098 253.889 253.677 253.538 254.184C252.809 255.269 251.984 256.23 250.744 256.769C250.271 256.983 249.731 257.005 249.242 256.83C246.045 255.775 243.185 253.905 240.948 251.409C240.062 250.404 240.058 249.912 241.145 249.103C242.389 248.174 243.724 247.371 245.015 246.511C245.744 246.02 246.474 245.543 247.203 245.026C247.932 244.509 248.049 244.115 247.677 243.327C247.156 242.221 246.506 241.158 245.963 240.074C245.58 239.323 245.249 238.547 244.975 237.75C244.843 237.418 244.832 237.05 244.945 236.71C245.059 236.371 245.288 236.081 245.595 235.892C246.381 235.386 247.214 234.956 248.082 234.606C250.223 233.756 252.393 232.979 254.545 232.173C254.701 232.112 254.847 232.032 255 231.956V231.783C254.636 231.725 254.242 231.638 253.859 231.606C252.451 231.49 251.043 231.396 249.639 231.288C248.129 231.169 246.722 231.649 245.321 232.047C244.683 232.22 244.048 232.408 243.432 232.632C242.702 232.903 242.458 233.326 242.6 234.078C242.918 235.784 243.253 237.483 243.56 239.189C243.803 240.605 244.034 242.037 244.253 243.482C244.387 244.35 244.143 244.693 243.279 244.888C242.26 245.169 241.223 245.381 240.175 245.525C239.341 245.542 238.507 245.464 237.691 245.29C237.039 245.192 236.4 245.019 235.758 244.863C235.117 244.708 234.839 244.426 234.916 243.779C235.058 242.496 235.248 241.216 235.474 239.944C235.817 238.039 236.225 236.149 236.568 234.244C236.703 233.464 236.743 232.907 235.605 232.589C234.05 232.087 232.467 231.675 230.864 231.353C229.722 231.169 228.519 231.353 227.345 231.407C226.553 231.45 225.765 231.559 224.978 231.646C224.719 231.678 224.467 231.743 224.212 231.787C224.208 231.829 224.198 231.87 224.183 231.909C224.373 232.021 224.572 232.119 224.777 232.202C227.049 233.062 229.336 233.897 231.604 234.772C232.221 235.007 232.81 235.308 233.362 235.668C234.281 236.265 234.566 236.991 234.172 238.007C233.778 239.022 233.187 240.078 232.669 241.104C232.305 241.795 231.907 242.452 231.575 243.154C231.211 244.017 231.273 244.538 232.006 245.022C233.151 245.785 234.311 246.526 235.452 247.296C236.342 247.888 237.214 248.506 238.093 249.103C238.163 249.155 238.229 249.213 238.29 249.276C239.019 249.967 239.074 250.407 238.399 251.152C237.686 251.946 236.926 252.698 236.123 253.404C234.354 254.965 232.25 255.963 230.054 256.794C229.761 256.91 229.444 256.96 229.128 256.939C228.813 256.917 228.506 256.826 228.231 256.671C227.427 256.27 226.72 255.701 226.158 255.003C225.597 254.306 225.194 253.496 224.978 252.63C224.686 251.423 225.094 250.27 225.55 249.15C225.671 248.857 225.791 248.557 225.915 248.264C226.105 247.891 226.172 247.468 226.107 247.055C226.042 246.642 225.847 246.259 225.55 245.962C224.398 244.711 223.227 243.482 222.06 242.254C220.791 240.916 219.514 239.591 218.231 238.278C217.78 237.801 217.488 237.2 217.393 236.553C217.297 235.907 217.404 235.248 217.698 234.664C218.818 232.711 220.084 230.843 221.484 229.076C222.49 227.753 223.555 226.466 224.569 225.147C224.667 225 224.811 224.888 224.979 224.83C225.147 224.772 225.33 224.77 225.499 224.825C227.604 225.212 229.704 225.631 231.827 225.91C232.556 226 233.388 225.733 234.143 225.527C235.237 225.223 236.331 224.825 237.4 224.471C239.125 223.907 240.81 224.11 242.506 224.681C243.781 225.152 245.084 225.544 246.408 225.856C247.206 225.953 248.015 225.907 248.797 225.722C250.507 225.454 252.203 225.118 253.903 224.829C253.996 224.814 254.092 224.819 254.183 224.844C254.274 224.869 254.359 224.913 254.432 224.974C256.773 227.865 259.125 230.756 261.062 233.915C261.175 234.103 261.27 234.302 261.387 234.49C262.262 235.914 261.824 237.428 260.839 238.466C258.451 240.844 256.117 243.295 253.79 245.734Z" fill="#F5F4FE"/>
<g clip-path="url(#clip0_8119_93080)">
<path d="M333.27 157.616C347.78 161.504 362.697 152.886 366.587 138.367C370.478 123.848 361.869 108.926 347.359 105.038C332.849 101.15 317.932 109.768 314.042 124.287C310.151 138.806 318.76 153.728 333.27 157.616Z" fill="#A6ABE8"/>
<path d="M344.128 117.086L341.307 127.614L349.727 134.131L344.128 117.086Z" fill="#F5F4FE"/>
<path d="M344.127 117.086L330.754 129.048L341.306 127.614L344.127 117.086Z" fill="#F5F4FE"/>
<path d="M338.413 138.412L336.496 145.566L349.289 135.79L338.413 138.412Z" fill="#F5F4FE"/>
<path d="M336.496 145.566L338.413 138.411L330.31 130.705L336.496 145.566Z" fill="#F5F4FE"/>
<path d="M338.857 136.757L349.727 134.132L341.306 127.616L338.857 136.757Z" fill="#F5F4FE"/>
<path d="M330.754 129.048L338.857 136.756L341.306 127.616L330.754 129.048Z" fill="#F5F4FE"/>
</g>
<g clip-path="url(#clip1_8119_93080)">
<path d="M394.192 179.239C401.992 179.239 408.315 172.912 408.315 165.107C408.315 157.302 401.992 150.975 394.192 150.975C386.393 150.975 380.07 157.302 380.07 165.107C380.07 172.912 386.393 179.239 394.192 179.239Z" fill="#A6ABE8"/>
<path d="M396.937 162.422C396.968 162.372 396.996 162.305 397.025 162.248C397.674 161.097 398.016 159.799 398.017 158.478C397.102 157.949 396.137 157.616 395.086 157.501C395.475 159.199 396.026 160.844 396.822 162.393L396.937 162.422ZM391.692 162.132L391.664 162.126L391.441 162.075V162.071H391.437L391.638 161.195C391.787 161.227 391.935 161.262 392.083 161.298H392.086C392.628 160.076 393.05 158.804 393.347 157.501C391.978 157.652 390.675 158.171 389.577 159.003V159.006C388.655 159.704 387.904 160.602 387.378 161.632C386.853 162.662 386.568 163.798 386.543 164.955V165.108C387.36 165.577 388.255 165.894 389.185 166.043L389.189 166.039C390.165 164.833 391.005 163.523 391.694 162.133H391.692V162.132ZM396.481 163.424C396.648 163.513 396.711 163.641 396.791 163.891C396.901 164.268 396.826 164.666 396.748 165.039L397.673 165.254L397.902 164.257C398.836 165.695 399.872 167.181 401.13 168.347C400.901 168.866 400.76 169.047 400.424 169.502C398.365 168.868 396.172 168.532 394.018 168.553L394.202 167.816L393.587 167.673C393.492 167.649 393.394 167.606 393.337 167.522C393.265 167.426 393.265 167.3 393.289 167.187L393.674 165.514C393.872 165.562 394.08 165.593 394.266 165.682C394.353 165.717 394.431 165.772 394.493 165.843C394.555 165.913 394.599 165.997 394.623 166.088C394.673 166.342 394.565 166.586 394.522 166.83L395.349 167.022L396.039 164.031L395.969 164.007L395.915 163.997C396.106 163.796 396.273 163.618 396.446 163.4L396.481 163.424H396.481ZM389.209 166.235L389.229 166.208C389.389 166.243 389.513 166.23 389.677 166.247C390.266 166.299 390.837 166.311 391.423 166.228C391.467 166.222 391.513 166.217 391.559 166.215L391.423 166.737C391.399 166.84 391.353 166.948 391.265 167.013C391.221 167.042 391.171 167.061 391.12 167.07C391.068 167.079 391.015 167.077 390.964 167.065C390.753 167.022 390.543 166.965 390.33 166.924C390.266 167.215 390.196 167.508 390.129 167.797L391.542 168.124C391.485 168.388 391.471 168.459 391.411 168.72C390.235 168.882 389.073 169.135 387.937 169.479C387.603 169.024 387.459 168.914 387.235 168.395C387.95 167.731 388.594 166.993 389.209 166.235V166.235ZM392.489 168.343L393.055 168.474L393.036 168.586L392.431 168.63L392.489 168.343ZM391.444 166.06C391.488 166.053 391.532 166.05 391.576 166.048V166.046L392.306 162.888C392.334 162.744 392.392 162.601 392.346 162.457C392.329 162.406 392.3 162.359 392.261 162.321C392.223 162.282 392.176 162.253 392.125 162.236L392.101 162.228C391.98 162.196 392.073 162.219 391.95 162.19C391.937 162.187 391.875 162.207 391.861 162.205C391.18 163.579 390.348 164.872 389.38 166.062C389.54 166.096 389.514 166.086 389.674 166.103C390.264 166.157 390.857 166.142 391.443 166.06L391.444 166.06Z" fill="#F5F4FE"/>
<path d="M393.064 161.522V161.525C393.176 161.051 393.281 160.575 393.396 160.101L394.338 160.318L394.011 161.742L394.575 161.873C394.631 161.637 394.686 161.399 394.74 161.162L394.823 160.806L394.905 160.45L395.846 160.665C395.834 160.729 395.82 160.793 395.806 160.857C395.714 161.269 395.613 161.678 395.522 162.092L396.606 162.345C395.81 160.795 395.283 159.175 394.895 157.476C394.651 157.448 394.549 157.457 394.302 157.453H394.151C393.881 157.453 393.781 157.446 393.516 157.476C393.218 158.78 392.866 160.147 392.324 161.369L393.064 161.522V161.522ZM394.314 162.74L394.343 162.746L394.346 162.74H394.314Z" fill="white"/>
<path d="M394.317 162.74L393.879 164.637C394.151 164.697 394.434 164.796 394.713 164.718C394.803 164.69 394.884 164.64 394.95 164.572C395.016 164.505 395.065 164.423 395.091 164.333C395.143 164.165 395.17 163.993 395.215 163.825L395.677 163.943C395.697 163.946 395.674 163.958 395.687 163.945L395.699 163.936C395.89 163.73 396.107 163.505 396.279 163.288C395.996 163.146 395.695 163.046 395.385 162.989L394.317 162.74V162.74ZM401.182 161.994C400.522 160.518 399.582 159.407 398.184 158.597C398.183 159.918 397.865 161.098 397.216 162.249C397.177 162.321 397.141 162.395 397.109 162.471C397.546 162.566 397.819 162.625 398.256 162.723V162.728L397.974 163.995C398.906 165.433 399.946 167.016 401.201 168.184C401.601 167.27 401.819 166.287 401.842 165.289V164.93C401.817 163.917 401.593 162.919 401.182 161.993V161.994ZM386.543 165.275V165.386C386.558 166.406 386.776 167.245 387.184 168.18C387.861 167.555 388.489 166.88 389.065 166.161C388.137 166.013 387.356 165.747 386.543 165.275ZM393.992 168.72L393.671 170.117H393.669L392.722 169.9L392.986 168.754L392.383 168.797L392.16 169.768H392.159L391.212 169.551C391.26 169.335 391.307 169.124 391.36 168.912C390.233 169.065 389.12 169.311 388.033 169.646C388.731 170.594 389.638 171.369 390.683 171.909C391.729 172.45 392.885 172.742 394.061 172.763H394.374C395.542 172.733 396.687 172.436 397.723 171.896C398.759 171.356 399.659 170.587 400.353 169.646C398.293 169.011 396.147 168.699 393.992 168.72V168.72Z" fill="white"/>
</g>
<g clip-path="url(#clip2_8119_93080)">
<path d="M138.055 171.543C146.705 169.224 151.838 160.326 149.52 151.67C147.202 143.014 138.312 137.878 129.662 140.197C121.012 142.516 115.879 151.414 118.197 160.07C120.514 168.726 129.405 173.862 138.055 171.543Z" fill="#A6ABE8"/>
<path d="M141.93 157.576L140.223 160.689C140.186 160.757 140.135 160.816 140.074 160.864C140.012 160.912 139.942 160.947 139.866 160.968L128.631 163.98C128.578 163.995 128.521 163.993 128.469 163.977C128.416 163.96 128.37 163.929 128.336 163.886C128.302 163.844 128.281 163.793 128.276 163.739C128.271 163.685 128.283 163.631 128.309 163.583L130.018 160.469C130.055 160.401 130.105 160.342 130.166 160.294C130.228 160.246 130.298 160.211 130.373 160.191L141.608 157.178C141.661 157.164 141.718 157.165 141.77 157.182C141.823 157.199 141.869 157.23 141.903 157.272C141.937 157.314 141.958 157.365 141.963 157.419C141.968 157.473 141.956 157.528 141.93 157.576ZM138.224 153.221C138.158 153.181 138.084 153.155 138.007 153.144C137.93 153.134 137.851 153.139 137.775 153.159L126.54 156.171C126.487 156.186 126.438 156.215 126.401 156.256C126.364 156.297 126.34 156.347 126.331 156.4C126.323 156.454 126.33 156.509 126.353 156.558C126.376 156.607 126.413 156.648 126.46 156.677L129.495 158.519C129.561 158.558 129.635 158.585 129.712 158.595C129.788 158.606 129.867 158.601 129.942 158.581L141.177 155.569C141.23 155.555 141.279 155.525 141.316 155.485C141.353 155.444 141.377 155.394 141.386 155.34C141.394 155.286 141.387 155.232 141.364 155.183C141.341 155.134 141.304 155.092 141.257 155.064L138.224 153.221ZM126.109 154.562L137.344 151.549C137.42 151.529 137.491 151.494 137.552 151.446C137.613 151.398 137.664 151.339 137.701 151.271L139.408 148.158C139.434 148.11 139.446 148.055 139.441 148.001C139.436 147.947 139.416 147.896 139.381 147.854C139.347 147.812 139.301 147.78 139.249 147.764C139.196 147.747 139.139 147.746 139.086 147.76L127.852 150.773C127.776 150.793 127.706 150.828 127.645 150.876C127.583 150.924 127.533 150.983 127.496 151.051L125.788 154.165C125.762 154.213 125.75 154.267 125.755 154.321C125.76 154.375 125.78 154.426 125.814 154.468C125.848 154.51 125.895 154.542 125.947 154.558C125.999 154.575 126.056 154.576 126.109 154.562Z" fill="#F5F4FE"/>
</g>
<path d="M371.964 275.94L369.975 279.522C369.901 279.656 369.771 279.751 369.621 279.781L365.585 280.588C365.176 280.67 365.023 281.176 365.318 281.471L368.114 284.269C368.224 284.38 368.28 284.534 368.264 284.691L367.855 288.782C367.815 289.182 368.221 289.475 368.588 289.312L372.235 287.691C372.385 287.624 372.558 287.632 372.701 287.711L376.214 289.664C376.6 289.879 377.062 289.548 376.983 289.114L376.183 284.713C376.153 284.545 376.207 284.372 376.328 284.25L379.105 281.471C379.4 281.176 379.247 280.67 378.838 280.588L374.831 279.786C374.664 279.753 374.524 279.641 374.455 279.486L372.899 275.982C372.724 275.587 372.173 275.563 371.964 275.94Z" fill="#F195A4"/>
<path d="M99.6397 210.513L98.4629 212.633C98.3884 212.767 98.2587 212.862 98.1082 212.892L95.696 213.375C95.2865 213.457 95.1335 213.962 95.4287 214.257L97.0882 215.918C97.199 216.029 97.2543 216.184 97.2387 216.34L96.9921 218.807C96.9522 219.207 97.3584 219.5 97.7251 219.337L99.9105 218.365C100.061 218.298 100.234 218.306 100.377 218.386L102.429 219.527C102.815 219.741 103.277 219.411 103.198 218.976L102.723 216.363C102.692 216.194 102.746 216.021 102.868 215.9L104.509 214.257C104.804 213.962 104.651 213.457 104.241 213.375L101.857 212.898C101.691 212.864 101.551 212.752 101.482 212.597L100.575 210.555C100.4 210.16 99.8492 210.136 99.6397 210.513Z" fill="#F195A4"/>
<ellipse cx="80.0922" cy="209.596" rx="2.09217" ry="2.09368" fill="#E2A500"/>
<ellipse cx="84.2761" cy="204.36" rx="1.04608" ry="1.04684" fill="#F195A4"/>
<ellipse cx="96.3072" cy="256.18" rx="4.70737" ry="4.71077" fill="#E2A500"/>
<ellipse cx="105.199" cy="256.703" rx="2.09217" ry="2.09368" fill="#F195A4"/>
<ellipse cx="385.548" cy="288.109" rx="2.09217" ry="2.09368" fill="#E2A500"/>
<ellipse cx="404.901" cy="276.07" rx="4.70737" ry="4.71077" fill="#E2A500"/>
<ellipse cx="391.825" cy="295.436" rx="1.04608" ry="1.04684" fill="#F195A4"/>
<path d="M268.066 127.385L211.717 137.454C206.838 138.326 203.782 143.224 205.142 147.99L216.199 186.715H290.471L277.674 133.661C276.635 129.356 272.425 126.606 268.066 127.385Z" fill="#5D65D3"/>
<path d="M194.48 172.895L203.122 186.668H282.624L261.914 145.218C260.007 141.402 255.535 139.63 251.533 141.106L198.674 160.595C193.687 162.433 191.655 168.393 194.48 172.895Z" fill="#E5E2F0"/>
<g clip-path="url(#clip3_8119_93080)">
<path d="M334.865 159.992C350.602 164.209 366.778 154.87 370.995 139.132C375.212 123.395 365.873 107.219 350.135 103.002C334.398 98.7856 318.222 108.125 314.005 123.862C309.789 139.599 319.128 155.775 334.865 159.992Z" fill="#5472E8"/>
<path d="M346.634 116.062L343.576 127.473L352.709 134.539L346.634 116.062Z" fill="#C1CCF8"/>
<path d="M346.633 116.062L332.132 129.026L343.575 127.473L346.633 116.062Z" fill="white"/>
<path d="M340.44 139.178L338.362 146.932L352.234 136.338L340.44 139.178Z" fill="#C1CCF8"/>
<path d="M338.362 146.931L340.44 139.176L331.65 130.821L338.362 146.931Z" fill="white"/>
<path d="M340.921 137.383L352.709 134.539L343.575 127.476L340.921 137.383Z" fill="#8BA1F6"/>
<path d="M332.132 129.026L340.92 137.383L343.575 127.476L332.132 129.026Z" fill="#C1CCF8"/>
</g>
<g clip-path="url(#clip4_8119_93080)">
<path d="M138.808 173.299C149.744 170.369 156.234 159.128 153.303 148.192C150.373 137.256 139.132 130.766 128.196 133.696C117.26 136.626 110.77 147.867 113.7 158.803C116.631 169.739 127.872 176.229 138.808 173.299Z" fill="black"/>
<path d="M143.706 155.653L141.549 159.586C141.502 159.672 141.438 159.747 141.36 159.808C141.282 159.868 141.193 159.913 141.097 159.938L126.893 163.744C126.825 163.762 126.754 163.761 126.687 163.74C126.621 163.719 126.562 163.679 126.519 163.626C126.476 163.573 126.45 163.508 126.444 163.44C126.438 163.372 126.452 163.303 126.486 163.242L128.646 159.308C128.692 159.223 128.756 159.148 128.834 159.087C128.911 159.027 129 158.983 129.095 158.957L143.299 155.151C143.367 155.133 143.438 155.134 143.505 155.155C143.571 155.176 143.63 155.216 143.673 155.269C143.716 155.323 143.742 155.387 143.748 155.455C143.754 155.524 143.74 155.592 143.706 155.653ZM139.021 150.152C138.937 150.101 138.844 150.068 138.746 150.054C138.649 150.041 138.549 150.047 138.454 150.073L124.249 153.879C124.182 153.897 124.12 153.934 124.074 153.985C124.027 154.037 123.996 154.1 123.985 154.168C123.974 154.236 123.984 154.305 124.013 154.367C124.042 154.429 124.089 154.481 124.148 154.517L127.985 156.844C128.068 156.895 128.162 156.928 128.259 156.941C128.356 156.955 128.455 156.949 128.551 156.923L142.754 153.118C142.822 153.099 142.883 153.062 142.93 153.011C142.977 152.96 143.008 152.896 143.019 152.828C143.03 152.761 143.02 152.691 142.991 152.629C142.962 152.567 142.915 152.515 142.856 152.479L139.021 150.152ZM123.705 151.845L137.909 148.039C138.005 148.014 138.094 147.969 138.172 147.909C138.249 147.848 138.314 147.773 138.36 147.687L140.518 143.754C140.551 143.693 140.566 143.625 140.56 143.557C140.554 143.488 140.528 143.424 140.485 143.37C140.441 143.317 140.383 143.277 140.317 143.256C140.25 143.235 140.179 143.234 140.111 143.252L125.907 147.058C125.812 147.084 125.723 147.128 125.646 147.188C125.568 147.249 125.504 147.324 125.457 147.409L123.298 151.343C123.265 151.404 123.25 151.472 123.256 151.54C123.262 151.609 123.288 151.673 123.331 151.727C123.375 151.78 123.433 151.819 123.499 151.841C123.565 151.862 123.637 151.863 123.705 151.845Z" fill="#66FFF6"/>
</g>
<g clip-path="url(#clip5_8119_93080)">
<path d="M401.498 177.989C408.673 173.846 411.131 164.673 406.989 157.498C402.846 150.324 393.673 147.866 386.498 152.008C379.324 156.15 376.866 165.324 381.008 172.498C385.15 179.673 394.324 182.131 401.498 177.989Z" fill="#42C1CA"/>
<path d="M392.322 162.989C391.965 161.791 391.72 160.67 391.684 159.867C391.632 159.504 391.702 158.522 391.957 157.752C392.382 156.469 393.248 155.706 394.639 155.757L394.631 155.951L394.639 155.757C395.348 155.784 395.751 155.999 395.842 156.369C395.911 156.643 395.762 156.981 395.612 157.041C395.422 157.178 395.195 157.255 394.919 157.224C394.683 157.193 394.46 157.097 394.274 156.949C393.936 156.694 393.683 156.688 393.469 156.848C393.313 156.963 393.182 157.181 393.161 157.287L393.104 157.554C393.057 157.756 393.03 157.962 393.025 158.17C393.013 158.889 393.282 160.039 394.043 162.304L396.992 161.132L397.471 162.308L394.479 163.497L394.774 164.282L394.848 164.478C394.885 164.581 394.926 164.692 394.968 164.811L397.99 163.611L398.458 164.791L395.366 166.02C395.844 167.61 396.277 169.36 396.312 170.129C396.364 170.493 396.294 171.475 396.039 172.245C395.614 173.527 394.748 174.291 393.358 174.239C392.649 174.213 392.245 173.997 392.154 173.627C392.085 173.353 392.235 173.016 392.384 172.956C392.575 172.819 392.801 172.742 393.077 172.772C393.291 172.796 393.507 172.885 393.723 173.048C394.06 173.302 394.313 173.309 394.528 173.149C394.683 173.033 394.815 172.815 394.835 172.709C395.053 171.676 394.78 170.085 393.645 166.704L390.696 167.875L390.216 166.699L393.209 165.511L392.914 164.726C392.847 164.55 392.783 164.373 392.72 164.196L389.71 165.392L389.241 164.212L392.322 162.989V162.989Z" fill="white"/>
</g>
<defs>
<filter id="filter0_f_8119_93080" x="0" y="0" width="481" height="459" filterUnits="userSpaceOnUse" color-interpolation-filters="sRGB">
<feFlood flood-opacity="0" result="BackgroundImageFix"/>
<feBlend mode="normal" in="SourceGraphic" in2="BackgroundImageFix" result="shape"/>
<feGaussianBlur stdDeviation="50" result="effect1_foregroundBlur_8119_93080"/>
</filter>
<filter id="filter1_f_8119_93080" x="158" y="311.998" width="172" height="44" filterUnits="userSpaceOnUse" color-interpolation-filters="sRGB">
<feFlood flood-opacity="0" result="BackgroundImageFix"/>
<feBlend mode="normal" in="SourceGraphic" in2="BackgroundImageFix" result="shape"/>
<feGaussianBlur stdDeviation="8" result="effect1_foregroundBlur_8119_93080"/>
</filter>
<clipPath id="clip0_8119_93080">
<rect width="54.3989" height="54.433" fill="white" transform="translate(321.086 97.998) rotate(15)"/>
</clipPath>
<clipPath id="clip1_8119_93080">
<rect width="28.2442" height="28.2646" fill="white" transform="translate(380.07 150.975)"/>
</clipPath>
<clipPath id="clip2_8119_93080">
<rect width="32.4301" height="32.4504" fill="white" transform="matrix(0.965879 -0.258993 0.258645 0.965972 114 144.396)"/>
</clipPath>
<clipPath id="clip3_8119_93080">
<rect width="59" height="59" fill="white" transform="translate(321.641 95.3672) rotate(15)"/>
</clipPath>
<clipPath id="clip4_8119_93080">
<rect width="41" height="41" fill="white" transform="translate(108.395 139.002) rotate(-15)"/>
</clipPath>
<clipPath id="clip5_8119_93080">
<rect width="30" height="30" fill="white" transform="translate(373.508 159.508) rotate(-30)"/>
</clipPath>
</defs>
</svg>
