<svg width="337" height="261" viewBox="0 0 337 261" fill="none" xmlns="http://www.w3.org/2000/svg">
<g clip-path="url(#clip0_0_27)">
<path d="M255.27 62.618C269.78 66.5059 284.697 57.8877 288.587 43.3686C292.478 28.8495 283.869 13.9277 269.359 10.0397C254.849 6.1518 239.932 14.77 236.042 29.2891C232.151 43.8082 240.76 58.73 255.27 62.618Z" fill="#A6ABE8"/>
<path d="M266.128 22.0883L263.307 32.6161L271.727 39.1338L266.128 22.0883Z" fill="#F5F4FE"/>
<path d="M266.127 22.0882L252.754 34.0501L263.306 32.616L266.127 22.0882Z" fill="#F5F4FE"/>
<path d="M260.413 43.4146L258.497 50.5681L271.289 40.7926L260.413 43.4146Z" fill="#F5F4FE"/>
<path d="M258.496 50.568L260.413 43.4134L252.31 35.7072L258.496 50.568Z" fill="#F5F4FE"/>
<path d="M260.857 41.7588L271.727 39.1338L263.306 32.6185L260.857 41.7588Z" fill="#F5F4FE"/>
<path d="M252.754 34.0502L260.857 41.7587L263.306 32.6184L252.754 34.0502Z" fill="#F5F4FE"/>
</g>
<g clip-path="url(#clip1_0_27)">
<path d="M316.192 84.2412C323.992 84.2412 330.315 77.9139 330.315 70.1089C330.315 62.3038 323.992 55.9765 316.192 55.9765C308.393 55.9765 302.07 62.3038 302.07 70.1089C302.07 77.9139 308.393 84.2412 316.192 84.2412Z" fill="#A6ABE8"/>
<path d="M318.937 67.4238C318.968 67.3734 318.996 67.3064 319.025 67.249C319.674 66.0986 320.016 64.8002 320.017 63.4791C319.102 62.9509 318.137 62.6179 317.086 62.5024C317.475 64.2005 318.026 65.845 318.822 67.3944L318.937 67.4238ZM313.692 67.1335L313.664 67.1272L313.441 67.0761V67.0723H313.437L313.638 66.1965C313.787 66.2284 313.935 66.2634 314.083 66.2998H314.086C314.628 65.0776 315.05 63.8059 315.347 62.5024C313.978 62.6537 312.675 63.1728 311.577 64.0047V64.0072C310.655 64.7055 309.904 65.6034 309.378 66.6337C308.853 67.6639 308.568 68.7998 308.543 69.9562V70.1093C309.36 70.5789 310.255 70.8958 311.185 71.0444L311.189 71.04C312.165 69.8341 313.005 68.5242 313.694 67.1342H313.692V67.1335ZM318.481 68.4253C318.648 68.5146 318.711 68.6421 318.791 68.8922C318.901 69.2698 318.826 69.6672 318.748 70.0404L319.673 70.2554L319.902 69.2583C320.836 70.6968 321.872 72.1824 323.13 73.3485C322.901 73.8671 322.76 74.0483 322.424 74.5037C320.365 73.8697 318.172 73.5335 316.018 73.5545L316.202 72.8178L315.587 72.6743C315.492 72.65 315.394 72.6073 315.337 72.5231C315.265 72.4274 315.265 72.3011 315.289 72.1882L315.674 70.5156C315.872 70.5635 316.08 70.5947 316.266 70.6834C316.353 70.7184 316.431 70.7734 316.493 70.844C316.555 70.9146 316.599 70.9988 316.623 71.0897C316.673 71.3436 316.565 71.5873 316.522 71.8316L317.349 72.023L318.039 69.0325L317.969 69.0089L317.915 68.9987C318.106 68.7978 318.273 68.6192 318.446 68.401L318.481 68.4253H318.481ZM311.209 71.2364L311.229 71.209C311.389 71.2447 311.513 71.2313 311.677 71.2486C312.266 71.3009 312.837 71.3124 313.423 71.2294C313.467 71.2231 313.513 71.2186 313.559 71.2167L313.423 71.7385C313.399 71.8418 313.353 71.949 313.265 72.014C313.221 72.0431 313.172 72.0628 313.12 72.0718C313.068 72.0808 313.015 72.0789 312.964 72.0663C312.753 72.0236 312.543 71.9662 312.33 71.9254C312.266 72.2169 312.196 72.509 312.129 72.7986L313.542 73.1259C313.485 73.3893 313.471 73.4608 313.411 73.7217C312.235 73.883 311.073 74.1366 309.937 74.4801C309.603 74.0253 309.459 73.9156 309.235 73.3963C309.95 72.7329 310.594 71.9949 311.209 71.2364V71.2364ZM314.489 73.344L315.055 73.4754L315.036 73.5877L314.431 73.6311L314.489 73.344ZM313.444 71.061C313.488 71.055 313.532 71.0511 313.576 71.0495V71.047L314.306 67.8894C314.334 67.7459 314.392 67.6024 314.346 67.4589C314.329 67.4074 314.3 67.3607 314.261 67.3223C314.223 67.2839 314.176 67.2549 314.125 67.2375L314.101 67.2299C313.98 67.1973 314.073 67.2203 313.95 67.1916C313.937 67.1884 313.875 67.2088 313.861 67.2063C313.18 68.5801 312.348 69.8738 311.38 71.0636C311.54 71.0974 311.514 71.0878 311.674 71.1044C312.264 71.1586 312.857 71.144 313.443 71.0617L313.444 71.061Z" fill="#F5F4FE"/>
<path d="M315.064 66.5237V66.5262C315.176 66.0523 315.282 65.5764 315.396 65.1031L316.338 65.32L316.011 66.7437L316.575 66.8751C316.631 66.6385 316.686 66.4012 316.741 66.1639L316.823 65.8079L316.905 65.452L317.847 65.667C317.834 65.7308 317.82 65.7945 317.806 65.8583C317.715 66.2711 317.613 66.6799 317.522 67.0939L318.606 67.3465C317.81 65.7965 317.283 64.1762 316.895 62.4782C316.651 62.4494 316.549 62.459 316.302 62.4546H316.152C315.881 62.4546 315.781 62.4475 315.516 62.4782C315.218 63.7814 314.866 65.1484 314.324 66.3706L315.064 66.5237V66.5237ZM316.314 67.7414L316.343 67.7478L316.346 67.7414H316.314Z" fill="white"/>
<path d="M316.317 67.7407L315.879 69.6378C316.151 69.6978 316.434 69.7973 316.713 69.7188C316.803 69.6905 316.884 69.6406 316.95 69.5734C317.016 69.5062 317.065 69.4239 317.091 69.3335C317.143 69.1658 317.17 68.9935 317.215 68.8264L317.677 68.9438C317.697 68.947 317.674 68.9591 317.687 68.9457L317.699 68.9368C317.89 68.7314 318.107 68.5062 318.279 68.2887C317.996 68.1474 317.696 68.0466 317.385 67.9895L316.317 67.7407V67.7407ZM323.182 66.995C322.522 65.5189 321.582 64.4077 320.184 63.5976C320.183 64.9193 319.865 66.0988 319.216 67.2502C319.177 67.3222 319.141 67.3961 319.109 67.4715C319.546 67.5672 319.819 67.6259 320.256 67.7241V67.7286L319.974 68.9961C320.906 70.4339 321.946 72.0171 323.201 73.1845C323.601 72.271 323.819 71.288 323.842 70.2904V69.9312C323.817 68.9183 323.593 67.9203 323.182 66.9944V66.995ZM308.543 70.2763V70.3867C308.558 71.4067 308.776 72.2455 309.184 73.1807C309.861 72.5559 310.489 71.881 311.065 71.1617C310.137 71.0137 309.356 70.7484 308.543 70.2763ZM315.992 73.721L315.671 75.1179H315.669L314.722 74.901L314.986 73.7548L314.383 73.7975L314.16 74.769H314.159L313.212 74.5515C313.26 74.3359 313.307 74.1254 313.36 73.913C312.233 74.066 311.12 74.3116 310.033 74.6472C310.731 75.5952 311.638 76.3695 312.683 76.91C313.729 77.4506 314.885 77.7427 316.061 77.7639H316.374C317.542 77.7338 318.687 77.4374 319.723 76.8972C320.759 76.3571 321.659 75.5876 322.353 74.6472C320.293 74.0123 318.147 73.6999 315.992 73.721V73.721Z" fill="white"/>
</g>
<g clip-path="url(#clip2_0_27)">
<path d="M60.0549 76.5451C68.7047 74.2257 73.8379 65.3284 71.5202 56.6724C69.2025 48.0163 60.3116 42.8795 51.6618 45.1988C43.012 47.5182 37.8789 56.4155 40.1966 65.0715C42.5143 73.7276 51.4052 78.8644 60.0549 76.5451Z" fill="#A6ABE8"/>
<path d="M63.9295 62.5775L62.223 65.6909C62.1859 65.7585 62.135 65.8182 62.0736 65.8661C62.0122 65.914 61.9415 65.9491 61.866 65.9693L50.631 68.9819C50.5774 68.9963 50.5209 68.9951 50.4684 68.9784C50.4159 68.9618 50.3697 68.9305 50.3355 68.8883C50.3013 68.8461 50.2806 68.7948 50.2759 68.7409C50.2712 68.687 50.2827 68.6326 50.3091 68.5846L52.0174 65.4707C52.0544 65.4033 52.105 65.3438 52.1662 65.2959C52.2274 65.2481 52.2978 65.2129 52.3731 65.1926L63.6075 62.1802C63.6611 62.1658 63.7176 62.167 63.7701 62.1837C63.8226 62.2003 63.8687 62.2317 63.903 62.2738C63.9372 62.3161 63.9579 62.3673 63.9626 62.4212C63.9673 62.4752 63.9558 62.5295 63.9295 62.5775ZM60.2234 58.2231C60.1575 58.1831 60.0837 58.1569 60.0065 58.1462C59.9294 58.1354 59.8507 58.1403 59.7752 58.1606L48.5402 61.1732C48.4866 61.1876 48.4382 61.2169 48.4011 61.2576C48.3639 61.2983 48.3396 61.3485 48.3311 61.4022C48.3225 61.4558 48.3302 61.5106 48.3531 61.5596C48.3759 61.6087 48.4131 61.65 48.4599 61.6784L51.4951 63.5203C51.5609 63.5602 51.6345 63.5864 51.7114 63.5972C51.7883 63.608 51.8668 63.6032 51.9422 63.5832L63.1765 60.5708C63.2301 60.5564 63.2785 60.5271 63.3157 60.4864C63.3528 60.4457 63.3771 60.3955 63.3857 60.3418C63.3942 60.2881 63.3866 60.2334 63.3637 60.1843C63.3408 60.1353 63.3037 60.094 63.2569 60.0656L60.2234 58.2231ZM48.1093 59.5638L59.3442 56.5512C59.4197 56.531 59.4904 56.4958 59.5518 56.4479C59.6132 56.4 59.6641 56.3404 59.7012 56.2728L61.4077 53.1593C61.434 53.1113 61.4455 53.057 61.4408 53.0031C61.4362 52.9491 61.4154 52.8979 61.3813 52.8557C61.347 52.8135 61.3008 52.7822 61.2484 52.7655C61.1958 52.7489 61.1393 52.7477 61.0857 52.7621L49.8514 55.7745C49.7761 55.7948 49.7057 55.8299 49.6445 55.8778C49.5833 55.9256 49.5326 55.9851 49.4956 56.0526L47.7879 59.1663C47.7616 59.2143 47.7501 59.2685 47.7547 59.3224C47.7594 59.3763 47.78 59.4275 47.8142 59.4697C47.8483 59.5119 47.8944 59.5433 47.9468 59.56C47.9992 59.5767 48.0557 59.578 48.1093 59.5638Z" fill="#F5F4FE"/>
</g>
<path d="M293.964 180.942L291.975 184.524C291.901 184.658 291.771 184.753 291.621 184.783L287.585 185.59C287.176 185.672 287.023 186.178 287.318 186.473L290.114 189.271C290.224 189.382 290.28 189.536 290.264 189.693L289.855 193.784C289.815 194.184 290.221 194.477 290.588 194.314L294.235 192.693C294.385 192.626 294.558 192.634 294.701 192.713L298.214 194.666C298.6 194.881 299.062 194.55 298.983 194.116L298.183 189.715C298.153 189.547 298.207 189.374 298.328 189.252L301.105 186.473C301.4 186.178 301.247 185.672 300.838 185.59L296.831 184.788C296.664 184.755 296.524 184.643 296.455 184.488L294.899 180.984C294.724 180.589 294.173 180.565 293.964 180.942Z" fill="#E85FA9"/>
<path d="M21.6396 115.515L20.4628 117.635C20.3883 117.769 20.2586 117.864 20.1081 117.894L17.6959 118.377C17.2864 118.459 17.1334 118.964 17.4286 119.259L19.0881 120.92C19.1989 121.031 19.2541 121.186 19.2386 121.342L18.992 123.809C18.9521 124.209 19.3583 124.502 19.725 124.339L21.9104 123.367C22.0606 123.3 22.2334 123.308 22.3771 123.388L24.429 124.529C24.8149 124.743 25.2767 124.413 25.1977 123.978L24.7229 121.365C24.6923 121.196 24.7463 121.023 24.8676 120.902L26.5086 119.259C26.8038 118.964 26.6508 118.459 26.2413 118.377L23.8573 117.9C23.6908 117.866 23.5508 117.754 23.4819 117.599L22.5749 115.557C22.3997 115.162 21.8491 115.138 21.6396 115.515Z" fill="#E85FA9"/>
<ellipse cx="2.09217" cy="114.597" rx="2.09217" ry="2.09368" fill="#E2A500"/>
<ellipse cx="6.27594" cy="109.363" rx="1.04608" ry="1.04684" fill="#E85FA9"/>
<ellipse cx="18.3072" cy="161.182" rx="4.70737" ry="4.71077" fill="#E2A500"/>
<ellipse cx="27.1985" cy="161.705" rx="2.09217" ry="2.09368" fill="#E85FA9"/>
<ellipse cx="307.548" cy="193.111" rx="2.09217" ry="2.09368" fill="#E2A500"/>
<ellipse cx="326.901" cy="181.072" rx="4.70737" ry="4.71077" fill="#E2A500"/>
<ellipse cx="313.825" cy="200.438" rx="1.04608" ry="1.04684" fill="#E85FA9"/>
<g clip-path="url(#clip3_0_27)">
<path d="M256.865 64.9939C272.602 69.2107 288.778 59.8715 292.995 44.1343C297.212 28.397 287.873 12.2211 272.135 8.0043C256.398 3.78752 240.222 13.1267 236.005 28.864C231.789 44.6012 241.128 60.7771 256.865 64.9939Z" fill="#5472E8"/>
<path d="M268.633 21.0637L265.576 32.4748L274.709 39.5411L268.633 21.0637Z" fill="#C1CCF8"/>
<path d="M268.633 21.0636L254.132 34.0275L265.575 32.4747L268.633 21.0636Z" fill="white"/>
<path d="M262.44 44.1794L260.362 51.933L274.234 41.3391L262.44 44.1794Z" fill="#C1CCF8"/>
<path d="M260.362 51.9329L262.44 44.178L253.65 35.8236L260.362 51.9329Z" fill="white"/>
<path d="M262.92 42.3846L274.709 39.5412L265.575 32.4774L262.92 42.3846Z" fill="#8BA1F6"/>
<path d="M254.132 34.0275L262.92 42.3845L265.575 32.4773L254.132 34.0275Z" fill="#C1CCF8"/>
</g>
<g clip-path="url(#clip4_0_27)">
<path d="M60.8076 78.3011C71.7436 75.3708 78.2336 64.1299 75.3033 53.1938C72.373 42.2577 61.1321 35.7678 50.196 38.6981C39.26 41.6284 32.77 52.8693 35.7003 63.8054C38.6306 74.7414 49.8715 81.2314 60.8076 78.3011Z" fill="black"/>
<path d="M65.7063 60.6544L63.5487 64.5879C63.5018 64.6733 63.4375 64.7487 63.3598 64.8092C63.2822 64.8697 63.1928 64.9141 63.0973 64.9397L48.8928 68.7458C48.825 68.7639 48.7536 68.7624 48.6872 68.7414C48.6208 68.7203 48.5624 68.6807 48.5192 68.6274C48.4759 68.5741 48.4497 68.5094 48.4438 68.4412C48.4378 68.3731 48.4524 68.3045 48.4857 68.2438L50.6456 64.3097C50.6923 64.2245 50.7564 64.1493 50.8338 64.0889C50.9111 64.0284 51.0002 63.984 51.0954 63.9583L65.2991 60.1524C65.3669 60.1343 65.4384 60.1358 65.5048 60.1568C65.5711 60.1778 65.6295 60.2175 65.6728 60.2707C65.716 60.3241 65.7422 60.3888 65.7481 60.4569C65.7541 60.5251 65.7395 60.5937 65.7063 60.6544ZM61.0206 55.1531C60.9373 55.1025 60.8439 55.0694 60.7464 55.0558C60.6489 55.0423 60.5493 55.0485 60.4539 55.0741L46.2493 58.8802C46.1816 58.8984 46.1204 58.9354 46.0735 58.9868C46.0265 59.0382 45.9957 59.1017 45.9849 59.1695C45.9741 59.2373 45.9838 59.3064 46.0127 59.3684C46.0416 59.4304 46.0886 59.4825 46.1478 59.5184L49.9853 61.8456C50.0684 61.896 50.1615 61.929 50.2587 61.9427C50.3559 61.9563 50.4553 61.9503 50.5505 61.9249L64.7543 58.1191C64.822 58.1009 64.8832 58.0639 64.9302 58.0124C64.9771 57.9611 65.0079 57.8976 65.0188 57.8298C65.0295 57.762 65.0198 57.6928 64.9909 57.6308C64.962 57.5689 64.915 57.5167 64.8559 57.4808L61.0206 55.1531ZM45.7045 56.8468L59.909 53.0407C60.0045 53.0152 60.0939 52.9708 60.1715 52.9103C60.2492 52.8497 60.3135 52.7744 60.3604 52.6889L62.518 48.7554C62.5512 48.6948 62.5658 48.6262 62.5598 48.558C62.5539 48.4899 62.5277 48.4251 62.4845 48.3718C62.4412 48.3185 62.3828 48.2789 62.3165 48.2579C62.25 48.2369 62.1786 48.2353 62.1108 48.2535L47.9071 52.0594C47.8119 52.0851 47.7228 52.1295 47.6455 52.1899C47.5681 52.2504 47.504 52.3255 47.4572 52.4108L45.2982 56.3447C45.2649 56.4053 45.2503 56.4738 45.2562 56.5419C45.2621 56.61 45.2882 56.6747 45.3314 56.728C45.3745 56.7813 45.4328 56.8209 45.4991 56.842C45.5654 56.8632 45.6367 56.8648 45.7045 56.8468Z" fill="#66FFF6"/>
</g>
<g clip-path="url(#clip5_0_27)">
<path d="M323.498 82.9905C330.673 78.8484 333.131 69.6745 328.989 62.5001C324.846 55.3257 315.673 52.8676 308.498 57.0098C301.324 61.1519 298.866 70.3257 303.008 77.5001C307.15 84.6745 316.324 87.1327 323.498 82.9905Z" fill="#42C1CA"/>
<path d="M314.322 67.9904C313.965 66.7928 313.72 65.6721 313.684 64.8693C313.632 64.5062 313.702 63.5234 313.958 62.7536C314.382 61.4711 315.248 60.7079 316.639 60.7593L316.631 60.9531L316.639 60.7593C317.348 60.7853 317.751 61.0009 317.842 61.3704C317.911 61.6451 317.762 61.9827 317.612 62.0428C317.422 62.1797 317.195 62.2568 316.919 62.226C316.683 62.1945 316.46 62.0993 316.274 61.9507C315.937 61.6963 315.683 61.6899 315.469 61.8495C315.313 61.9644 315.182 62.1825 315.162 62.2893L315.104 62.5558C315.057 62.7579 315.03 62.9643 315.025 63.1718C315.013 63.8911 315.282 65.0406 316.043 67.3058L318.992 66.1342L319.471 67.3098L316.479 68.4987L316.775 69.2835L316.848 69.4802C316.885 69.5825 316.926 69.6936 316.968 69.8131L319.99 68.6127L320.458 69.7928L317.366 71.0214C317.845 72.6114 318.277 74.3621 318.312 75.1311C318.364 75.4953 318.294 76.4764 318.039 77.2468C317.614 78.5286 316.748 79.2925 315.358 79.2411C314.649 79.2151 314.245 78.9988 314.154 78.6293C314.085 78.3547 314.235 78.0178 314.384 77.9576C314.575 77.8207 314.801 77.7436 315.078 77.7738C315.291 77.7979 315.507 77.8867 315.723 78.0497C316.06 78.3034 316.313 78.3105 316.528 78.1509C316.683 78.0353 316.815 77.8173 316.835 77.7105C317.053 76.6773 316.78 75.0868 315.645 71.706L312.696 72.8769L312.217 71.7013L315.209 70.5125L314.914 69.7279C314.848 69.5519 314.783 69.3752 314.72 69.1977L311.71 70.3938L311.241 69.2141L314.322 67.9904V67.9904Z" fill="white"/>
</g>
<g opacity="0.8" filter="url(#filter0_f_0_27)">
<ellipse cx="165.051" cy="239" rx="70" ry="6" fill="#0E0E34"/>
</g>
<rect x="67" y="91.5664" width="186.798" height="121.433" rx="12.6732" fill="#3B3F70"/>
<path d="M201.392 152.16C201.392 141.333 210.169 132.555 220.996 132.555H245.085C255.912 132.555 264.689 141.333 264.689 152.16C264.689 162.987 255.912 171.764 245.085 171.764H220.996C210.169 171.764 201.392 162.987 201.392 152.16Z" fill="#0E0E34"/>
<ellipse cx="219.041" cy="152.13" rx="9.63738" ry="9.62471" fill="#6D71A5"/>
<path d="M190.268 140.177C189.675 138.536 189.093 136.889 188.521 135.236C188.463 135.047 188.47 134.844 188.54 134.658C188.974 133.574 189.426 132.489 189.885 131.383C189.935 131.297 189.952 131.196 189.934 131.098C189.916 131 189.864 130.912 189.787 130.848C188.328 129.377 186.92 127.881 185.454 126.428C184.645 125.622 183.576 125.319 182.467 125.167C181.046 125.019 179.611 125.105 178.218 125.423C178.133 125.436 178.047 125.431 177.964 125.408C177.881 125.386 177.804 125.347 177.737 125.293C175.866 123.222 174.017 121.133 172.157 119.041C172.117 118.983 172.087 118.92 172.069 118.853H151.215C150.333 119.868 149.454 120.887 148.564 121.896C147.616 122.98 146.638 124.021 145.712 125.116C145.606 125.254 145.46 125.357 145.295 125.412C145.129 125.468 144.951 125.473 144.782 125.427C143.711 125.257 142.631 125.16 141.547 125.134C140.36 125.082 139.19 125.427 138.224 126.114C137.612 126.615 137.035 127.159 136.499 127.74C136.135 128.102 135.806 128.445 135.464 128.803L133.556 130.78C133.447 130.862 133.371 130.98 133.343 131.112C133.314 131.245 133.334 131.383 133.399 131.503C133.844 132.515 134.267 133.538 134.661 134.575C134.751 134.827 134.76 135.101 134.687 135.359C134.14 136.967 133.552 138.569 133.002 140.181C132.899 140.462 132.875 140.765 132.932 141.059C134.052 145.349 135.194 149.632 136.324 153.919C136.955 156.3 137.583 158.689 138.213 161.068C138.763 163.157 139.316 165.245 139.873 167.331C139.975 167.693 140.084 168.087 140.197 168.459C140.606 169.937 141.259 171.338 142.13 172.604C142.342 172.897 142.564 173.172 142.798 173.436C143.4 174.101 144.065 174.706 144.786 175.243C145.15 175.521 145.515 175.785 145.905 176.045C145.96 176.081 146.015 176.118 146.066 176.157C146.113 176.191 146.161 176.223 146.212 176.251L147.061 176.83C147.138 176.88 147.218 176.938 147.302 176.989C149.629 178.564 151.959 180.138 154.293 181.709L156.96 183.516L157.277 183.729L157.58 183.928C157.605 183.949 157.633 183.968 157.663 183.982C158.44 184.496 159.228 184.987 160.027 185.468C160.378 185.703 160.777 185.858 161.196 185.921C161.615 185.983 162.043 185.952 162.448 185.829C162.724 185.741 162.987 185.62 163.233 185.468C163.305 185.421 163.386 185.374 163.459 185.323C164.28 184.805 165.097 184.285 165.909 183.762L166.19 183.581L166.311 183.502L166.365 183.469C167.135 182.974 167.901 182.464 168.659 181.955C168.71 181.926 168.758 181.89 168.805 181.857L169.002 181.727L169.108 181.655C170.222 180.905 171.333 180.154 172.441 179.399C174.345 178.105 176.248 176.806 178.149 175.5C180.735 173.729 182.3 171.26 183.098 168.271C183.798 165.635 184.501 162.999 185.206 160.363C185.327 159.904 185.451 159.445 185.571 158.986C187.146 153.049 188.727 147.11 190.312 141.171C190.408 140.844 190.393 140.495 190.268 140.177ZM170.399 165.705C169.783 166.2 169.141 166.659 168.521 167.151C166.559 168.688 164.603 170.23 162.653 171.777C161.817 172.438 161.453 172.46 160.628 171.817C158.039 169.8 155.456 167.777 152.878 165.748C152.226 165.235 152.258 164.783 153.002 164.393C155.515 163.077 158.003 161.689 160.723 160.807C161.015 160.713 161.311 160.641 161.646 160.547C162.117 160.699 162.609 160.84 163.105 161.013C165.658 161.921 168.018 163.243 170.399 164.494C170.964 164.808 170.961 165.264 170.399 165.716V165.705ZM182.85 143.43C180.502 145.862 178.167 148.313 175.822 150.752C175.454 151.082 175.205 151.523 175.114 152.007C175.023 152.491 175.095 152.991 175.319 153.431C175.639 154.165 175.911 154.92 176.132 155.69C176.308 156.28 176.348 156.901 176.251 157.509C176.154 158.116 175.921 158.695 175.571 159.203C174.841 160.287 174.017 161.248 172.777 161.787C172.304 162.002 171.764 162.024 171.274 161.848C168.078 160.793 165.218 158.923 162.981 156.427C162.095 155.422 162.091 154.931 163.178 154.121C164.421 153.192 165.756 152.39 167.047 151.53C167.777 151.038 168.506 150.561 169.236 150.044C169.965 149.527 170.082 149.133 169.71 148.345C169.188 147.239 168.539 146.177 167.996 145.092C167.612 144.341 167.282 143.565 167.007 142.768C166.871 142.435 166.859 142.064 166.973 141.722C167.086 141.38 167.318 141.089 167.627 140.9C168.413 140.394 169.246 139.963 170.115 139.613C172.255 138.764 174.425 137.987 176.577 137.181C176.734 137.119 176.88 137.04 177.033 136.964V136.79C176.668 136.733 176.275 136.646 175.892 136.613C174.484 136.498 173.076 136.404 171.672 136.295C170.162 136.176 168.754 136.657 167.354 137.054C166.715 137.228 166.081 137.416 165.465 137.64C164.735 137.911 164.491 138.334 164.633 139.085C164.95 140.791 165.286 142.49 165.592 144.196C165.835 145.613 166.066 147.044 166.285 148.49C166.42 149.357 166.176 149.701 165.311 149.896C164.292 150.176 163.255 150.389 162.208 150.532C161.373 150.55 160.54 150.471 159.724 150.297C159.071 150.199 158.433 150.026 157.791 149.871C157.149 149.715 156.872 149.433 156.949 148.786C157.091 147.503 157.28 146.224 157.507 144.951C157.849 143.047 158.258 141.156 158.601 139.252C158.736 138.471 158.776 137.914 157.638 137.596C156.083 137.095 154.5 136.682 152.897 136.36C151.755 136.176 150.552 136.36 149.377 136.415C148.586 136.458 147.798 136.566 147.01 136.653C146.751 136.686 146.5 136.751 146.244 136.794C146.241 136.836 146.231 136.878 146.215 136.917C146.406 137.029 146.605 137.127 146.81 137.21C149.082 138.07 151.369 138.905 153.637 139.779C154.254 140.015 154.843 140.315 155.395 140.676C156.314 141.272 156.598 141.999 156.205 143.014C155.811 144.03 155.22 145.085 154.702 146.112C154.337 146.802 153.94 147.46 153.608 148.161C153.243 149.025 153.305 149.545 154.038 150.03C155.183 150.792 156.343 151.533 157.485 152.303C158.375 152.896 159.246 153.514 160.125 154.11C160.196 154.162 160.262 154.22 160.322 154.284C161.052 154.974 161.106 155.415 160.432 156.159C159.718 156.954 158.958 157.706 158.156 158.411C156.387 159.973 154.283 160.97 152.087 161.801C151.793 161.918 151.477 161.967 151.161 161.946C150.845 161.925 150.539 161.833 150.263 161.678C149.463 161.275 148.759 160.705 148.201 160.008C147.643 159.311 147.243 158.502 147.028 157.638C146.737 156.431 147.145 155.278 147.601 154.157C147.721 153.864 147.842 153.564 147.966 153.272C148.156 152.898 148.223 152.475 148.158 152.062C148.092 151.649 147.898 151.267 147.601 150.969C146.449 149.719 145.278 148.49 144.111 147.261C142.842 145.924 141.565 144.598 140.281 143.285C139.831 142.809 139.539 142.207 139.443 141.561C139.348 140.915 139.455 140.255 139.749 139.671C140.869 137.718 142.135 135.85 143.535 134.083C144.541 132.76 145.606 131.474 146.62 130.155C146.718 130.007 146.862 129.896 147.03 129.837C147.198 129.779 147.381 129.778 147.55 129.833C149.654 130.22 151.755 130.639 153.878 130.917C154.607 131.008 155.439 130.74 156.194 130.534C157.288 130.23 158.382 129.833 159.45 129.479C161.176 128.915 162.861 129.117 164.556 129.688C165.831 130.159 167.135 130.552 168.459 130.863C169.257 130.96 170.066 130.915 170.848 130.729C172.558 130.462 174.254 130.126 175.954 129.836C176.047 129.822 176.143 129.827 176.234 129.852C176.325 129.877 176.41 129.921 176.482 129.981C178.824 132.872 181.176 135.764 183.113 138.923C183.226 139.111 183.321 139.31 183.437 139.498C184.273 140.878 183.835 142.393 182.85 143.43Z" fill="#0E0E34"/>
<path d="M170.4 165.716C169.783 166.211 169.141 166.67 168.521 167.161C166.559 168.699 164.603 170.241 162.653 171.788C161.818 172.449 161.453 172.471 160.629 171.827C158.04 169.811 155.451 167.788 152.864 165.759C152.212 165.246 152.244 164.794 152.988 164.404C155.501 163.088 157.989 161.7 160.709 160.818C161.001 160.724 161.297 160.652 161.632 160.558C162.103 160.71 162.595 160.851 163.091 161.024C165.644 161.931 168.004 163.254 170.385 164.505C170.965 164.808 170.961 165.264 170.4 165.716Z" fill="white"/>
<path d="M175.841 150.736C175.472 151.066 175.223 151.507 175.132 151.991C175.041 152.475 175.113 152.975 175.337 153.414C175.658 154.149 175.929 154.903 176.151 155.673C176.326 156.263 176.367 156.885 176.269 157.492C176.172 158.1 175.94 158.679 175.589 159.186C174.86 160.271 174.035 161.232 172.795 161.77C172.322 161.985 171.782 162.007 171.293 161.832C168.097 160.776 165.236 158.907 162.999 156.41C162.113 155.406 162.109 154.914 163.196 154.105C164.44 153.176 165.775 152.373 167.066 151.513C167.795 151.022 168.525 150.544 169.254 150.028C169.983 149.511 170.1 149.117 169.728 148.329C169.207 147.223 168.557 146.16 168.014 145.076C167.631 144.325 167.3 143.548 167.026 142.752C166.894 142.419 166.883 142.051 166.997 141.712C167.11 141.373 167.339 141.083 167.646 140.894C168.432 140.388 169.265 139.957 170.133 139.608C172.274 138.758 174.444 137.981 176.596 137.175C176.752 137.114 176.898 137.034 177.052 136.958V136.785C176.687 136.727 176.293 136.64 175.91 136.608C174.502 136.492 173.094 136.398 171.69 136.29C170.18 136.17 168.773 136.651 167.372 137.049C166.734 137.222 166.099 137.41 165.483 137.634C164.754 137.905 164.509 138.328 164.651 139.08C164.969 140.786 165.304 142.485 165.611 144.191C165.854 145.607 166.085 147.039 166.304 148.484C166.439 149.352 166.194 149.695 165.33 149.89C164.311 150.17 163.274 150.383 162.226 150.526C161.392 150.544 160.558 150.465 159.742 150.291C159.09 150.194 158.451 150.02 157.809 149.865C157.168 149.71 156.89 149.428 156.967 148.781C157.109 147.498 157.299 146.218 157.525 144.946C157.868 143.041 158.276 141.151 158.619 139.246C158.754 138.465 158.794 137.909 157.656 137.591C156.101 137.089 154.518 136.677 152.915 136.355C151.774 136.17 150.57 136.355 149.396 136.409C148.604 136.452 147.816 136.561 147.029 136.647C146.77 136.68 146.518 136.745 146.263 136.788C146.259 136.831 146.249 136.872 146.234 136.911C146.424 137.023 146.623 137.121 146.828 137.204C149.1 138.064 151.387 138.899 153.655 139.774C154.272 140.009 154.862 140.31 155.413 140.67C156.332 141.267 156.617 141.993 156.223 143.009C155.829 144.024 155.238 145.08 154.72 146.106C154.356 146.796 153.958 147.454 153.626 148.155C153.262 149.019 153.324 149.54 154.057 150.024C155.202 150.787 156.362 151.528 157.503 152.297C158.393 152.89 159.265 153.508 160.144 154.105C160.214 154.156 160.28 154.214 160.341 154.278C161.07 154.968 161.125 155.409 160.45 156.154C159.737 156.948 158.977 157.7 158.174 158.406C156.405 159.967 154.301 160.964 152.105 161.796C151.812 161.912 151.495 161.962 151.18 161.94C150.864 161.919 150.557 161.828 150.282 161.673C149.478 161.272 148.771 160.703 148.209 160.005C147.648 159.308 147.245 158.498 147.029 157.632C146.737 156.425 147.145 155.272 147.601 154.152C147.722 153.859 147.842 153.559 147.966 153.266C148.156 152.893 148.224 152.47 148.158 152.057C148.093 151.643 147.898 151.261 147.601 150.964C146.449 149.713 145.278 148.484 144.111 147.255C142.842 145.918 141.565 144.593 140.282 143.28C139.831 142.803 139.539 142.201 139.444 141.555C139.348 140.909 139.455 140.25 139.749 139.665C140.869 137.712 142.135 135.845 143.535 134.078C144.541 132.755 145.606 131.468 146.62 130.149C146.718 130.001 146.862 129.89 147.03 129.832C147.198 129.774 147.381 129.772 147.55 129.827C149.655 130.214 151.755 130.633 153.878 130.912C154.607 131.002 155.439 130.734 156.194 130.528C157.288 130.225 158.382 129.827 159.451 129.473C161.176 128.909 162.861 129.112 164.557 129.683C165.832 130.154 167.135 130.546 168.459 130.857C169.257 130.955 170.066 130.909 170.848 130.724C172.558 130.456 174.254 130.12 175.954 129.831C176.047 129.816 176.143 129.821 176.234 129.846C176.325 129.871 176.41 129.915 176.483 129.975C178.824 132.867 181.176 135.758 183.113 138.917C183.226 139.105 183.321 139.304 183.438 139.492C184.313 140.916 183.875 142.43 182.891 143.468C180.502 145.846 178.168 148.296 175.841 150.736Z" fill="white"/>
<path d="M190.117 32.3866L133.768 42.4561C128.889 43.328 125.832 48.2258 127.193 52.9918L138.249 91.7166H212.521L199.724 38.6625C198.686 34.3584 194.475 31.6077 190.117 32.3866Z" fill="#6D71A5"/>
<path d="M116.531 77.8965L125.173 91.6702H204.675L183.965 50.2197C182.058 46.4036 177.586 44.6324 173.584 46.1081L120.724 65.5966C115.738 67.435 113.706 73.395 116.531 77.8965Z" fill="#ACACCE"/>
<defs>
<filter id="filter0_f_0_27" x="79.0508" y="217" width="172" height="44" filterUnits="userSpaceOnUse" color-interpolation-filters="sRGB">
<feFlood flood-opacity="0" result="BackgroundImageFix"/>
<feBlend mode="normal" in="SourceGraphic" in2="BackgroundImageFix" result="shape"/>
<feGaussianBlur stdDeviation="8" result="effect1_foregroundBlur_0_27"/>
</filter>
<clipPath id="clip0_0_27">
<rect width="54.3989" height="54.433" fill="white" transform="translate(243.086 3) rotate(15)"/>
</clipPath>
<clipPath id="clip1_0_27">
<rect width="28.2442" height="28.2646" fill="white" transform="translate(302.07 55.9766)"/>
</clipPath>
<clipPath id="clip2_0_27">
<rect width="32.4301" height="32.4504" fill="white" transform="matrix(0.965879 -0.258993 0.258645 0.965972 36 49.3984)"/>
</clipPath>
<clipPath id="clip3_0_27">
<rect width="59" height="59" fill="white" transform="translate(243.641 0.369141) rotate(15)"/>
</clipPath>
<clipPath id="clip4_0_27">
<rect width="41" height="41" fill="white" transform="translate(30.3945 44.0039) rotate(-15)"/>
</clipPath>
<clipPath id="clip5_0_27">
<rect width="30" height="30" fill="white" transform="translate(295.508 64.5098) rotate(-30)"/>
</clipPath>
</defs>
</svg>
