<svg width="337" height="261" viewBox="0 0 337 261" fill="none" xmlns="http://www.w3.org/2000/svg">
<g opacity="0.8" filter="url(#filter0_f_7204_239737)">
<ellipse cx="166" cy="238.998" rx="70" ry="6" fill="#C1C5F8"/>
</g>
<rect x="66.949" y="91.5645" width="186.798" height="121.433" rx="12.6732" fill="#5D65D3"/>
<path d="M201.341 152.158C201.341 141.331 210.118 132.554 220.945 132.554H245.034C255.861 132.554 264.638 141.331 264.638 152.158C264.638 162.985 255.861 171.762 245.034 171.762H220.945C210.118 171.762 201.341 162.985 201.341 152.158Z" fill="#393E82"/>
<ellipse cx="218.99" cy="152.128" rx="9.63738" ry="9.62471" fill="#A6ABE8"/>
<path d="M190.217 140.175C189.624 138.534 189.042 136.887 188.47 135.234C188.412 135.045 188.419 134.841 188.489 134.656C188.923 133.572 189.375 132.487 189.834 131.381C189.884 131.295 189.901 131.194 189.883 131.096C189.865 130.998 189.813 130.91 189.736 130.846C188.277 129.375 186.869 127.879 185.403 126.426C184.594 125.62 183.525 125.317 182.416 125.165C180.995 125.016 179.56 125.103 178.167 125.421C178.082 125.434 177.996 125.429 177.913 125.406C177.83 125.384 177.753 125.345 177.686 125.291C175.815 123.22 173.966 121.131 172.106 119.039C172.066 118.981 172.036 118.918 172.018 118.851H151.164C150.282 119.866 149.403 120.885 148.513 121.894C147.565 122.978 146.587 124.019 145.661 125.114C145.555 125.252 145.409 125.355 145.244 125.41C145.078 125.466 144.899 125.471 144.731 125.425C143.66 125.255 142.58 125.158 141.496 125.132C140.309 125.08 139.139 125.425 138.173 126.112C137.561 126.613 136.984 127.157 136.448 127.738C136.084 128.1 135.755 128.443 135.413 128.801L133.505 130.778C133.396 130.86 133.32 130.978 133.292 131.11C133.263 131.243 133.283 131.381 133.348 131.501C133.793 132.513 134.216 133.535 134.61 134.573C134.7 134.825 134.709 135.099 134.636 135.357C134.089 136.965 133.501 138.567 132.951 140.179C132.848 140.46 132.824 140.763 132.881 141.057C134.001 145.347 135.143 149.63 136.273 153.917C136.904 156.298 137.531 158.687 138.162 161.066C138.712 163.155 139.265 165.243 139.822 167.329C139.924 167.691 140.033 168.085 140.146 168.457C140.555 169.935 141.208 171.336 142.079 172.602C142.291 172.895 142.513 173.17 142.747 173.434C143.348 174.099 144.014 174.704 144.734 175.241C145.099 175.519 145.464 175.783 145.854 176.043C145.909 176.079 145.964 176.116 146.015 176.155C146.062 176.189 146.11 176.221 146.16 176.249L147.01 176.828C147.087 176.878 147.167 176.936 147.251 176.987C149.578 178.562 151.908 180.136 154.242 181.707L156.908 183.514L157.226 183.727L157.528 183.926C157.554 183.947 157.582 183.966 157.612 183.98C158.389 184.493 159.177 184.985 159.976 185.466C160.326 185.701 160.726 185.856 161.145 185.919C161.564 185.981 161.992 185.95 162.397 185.827C162.673 185.739 162.936 185.618 163.181 185.466C163.254 185.419 163.335 185.372 163.408 185.321C164.229 184.803 165.046 184.283 165.858 183.76L166.139 183.579L166.26 183.5L166.314 183.467C167.084 182.972 167.85 182.462 168.608 181.953C168.659 181.924 168.707 181.888 168.754 181.855L168.951 181.725L169.057 181.653C170.171 180.903 171.282 180.152 172.39 179.397C174.294 178.103 176.197 176.803 178.098 175.498C180.684 173.727 182.248 171.258 183.047 168.269C183.747 165.633 184.45 162.997 185.155 160.361C185.276 159.902 185.4 159.443 185.52 158.984C187.095 153.047 188.676 147.108 190.261 141.169C190.357 140.842 190.341 140.493 190.217 140.175ZM170.348 165.703C169.732 166.198 169.09 166.657 168.47 167.148C166.508 168.686 164.552 170.228 162.602 171.775C161.766 172.436 161.402 172.458 160.577 171.815C157.988 169.798 155.405 167.775 152.827 165.746C152.175 165.233 152.207 164.781 152.951 164.391C155.464 163.075 157.952 161.687 160.672 160.805C160.964 160.711 161.259 160.639 161.595 160.545C162.065 160.697 162.558 160.838 163.054 161.011C165.607 161.919 167.966 163.241 170.348 164.492C170.913 164.806 170.91 165.262 170.348 165.714V165.703ZM182.799 143.428C180.45 145.86 178.116 148.311 175.771 150.75C175.403 151.08 175.154 151.521 175.063 152.005C174.972 152.489 175.044 152.989 175.268 153.429C175.588 154.163 175.86 154.918 176.081 155.688C176.257 156.278 176.297 156.899 176.2 157.507C176.103 158.114 175.87 158.693 175.52 159.201C174.79 160.285 173.966 161.246 172.726 161.785C172.252 162 171.713 162.022 171.223 161.846C168.027 160.791 165.167 158.921 162.93 156.425C162.044 155.42 162.04 154.929 163.127 154.119C164.37 153.19 165.705 152.388 166.996 151.527C167.726 151.036 168.455 150.559 169.185 150.042C169.914 149.525 170.031 149.131 169.659 148.343C169.137 147.237 168.488 146.175 167.945 145.09C167.561 144.339 167.231 143.563 166.956 142.766C166.82 142.433 166.808 142.062 166.922 141.72C167.035 141.378 167.267 141.087 167.576 140.898C168.362 140.392 169.195 139.961 170.064 139.611C172.204 138.762 174.374 137.985 176.526 137.179C176.683 137.117 176.829 137.038 176.982 136.962V136.788C176.617 136.731 176.223 136.644 175.841 136.611C174.433 136.496 173.025 136.402 171.621 136.293C170.111 136.174 168.703 136.655 167.303 137.052C166.664 137.226 166.03 137.414 165.413 137.638C164.684 137.909 164.44 138.332 164.582 139.083C164.899 140.789 165.235 142.488 165.541 144.194C165.784 145.611 166.015 147.042 166.234 148.488C166.369 149.355 166.125 149.699 165.26 149.894C164.241 150.174 163.204 150.386 162.157 150.53C161.322 150.548 160.489 150.469 159.673 150.295C159.02 150.197 158.382 150.024 157.74 149.869C157.098 149.713 156.821 149.431 156.898 148.784C157.04 147.501 157.229 146.222 157.456 144.949C157.798 143.045 158.207 141.154 158.55 139.25C158.685 138.469 158.725 137.912 157.587 137.594C156.032 137.093 154.449 136.68 152.846 136.358C151.704 136.174 150.501 136.358 149.326 136.412C148.535 136.456 147.747 136.564 146.959 136.651C146.7 136.684 146.449 136.749 146.193 136.792C146.19 136.834 146.18 136.876 146.164 136.915C146.355 137.027 146.553 137.125 146.759 137.208C149.031 138.068 151.317 138.903 153.586 139.777C154.203 140.013 154.792 140.313 155.344 140.674C156.263 141.27 156.547 141.997 156.154 143.012C155.76 144.028 155.169 145.083 154.651 146.11C154.286 146.8 153.889 147.458 153.557 148.159C153.192 149.023 153.254 149.543 153.987 150.028C155.132 150.79 156.292 151.531 157.434 152.301C158.324 152.894 159.195 153.512 160.074 154.108C160.145 154.16 160.211 154.218 160.271 154.282C161.001 154.972 161.055 155.413 160.38 156.157C159.667 156.952 158.907 157.703 158.105 158.409C156.336 159.97 154.232 160.968 152.036 161.799C151.742 161.916 151.426 161.965 151.11 161.944C150.794 161.923 150.488 161.831 150.212 161.676C149.412 161.273 148.708 160.703 148.15 160.006C147.592 159.309 147.192 158.5 146.977 157.636C146.686 156.428 147.094 155.276 147.55 154.155C147.67 153.862 147.791 153.562 147.915 153.27C148.105 152.896 148.172 152.473 148.107 152.06C148.041 151.647 147.847 151.265 147.55 150.967C146.398 149.717 145.227 148.488 144.06 147.259C142.791 145.922 141.514 144.596 140.23 143.283C139.78 142.807 139.488 142.205 139.392 141.559C139.297 140.913 139.404 140.253 139.698 139.669C140.818 137.716 142.084 135.848 143.484 134.081C144.49 132.758 145.555 131.472 146.569 130.153C146.667 130.005 146.811 129.894 146.979 129.835C147.147 129.777 147.33 129.776 147.499 129.831C149.603 130.218 151.704 130.637 153.827 130.915C154.556 131.005 155.388 130.738 156.143 130.532C157.237 130.228 158.331 129.831 159.399 129.477C161.125 128.913 162.809 129.115 164.505 129.686C165.78 130.157 167.084 130.55 168.408 130.861C169.206 130.958 170.015 130.913 170.797 130.727C172.507 130.46 174.203 130.124 175.903 129.834C175.996 129.82 176.092 129.825 176.183 129.85C176.274 129.875 176.359 129.919 176.431 129.979C178.773 132.87 181.125 135.762 183.062 138.921C183.175 139.109 183.27 139.308 183.386 139.495C184.222 140.876 183.784 142.391 182.799 143.428Z" fill="#393E82"/>
<path d="M170.349 165.713C169.732 166.208 169.09 166.667 168.47 167.159C166.508 168.696 164.552 170.238 162.602 171.785C161.767 172.447 161.402 172.468 160.578 171.825C157.989 169.808 155.4 167.785 152.813 165.757C152.16 165.243 152.193 164.792 152.937 164.401C155.45 163.086 157.937 161.698 160.658 160.816C160.95 160.722 161.245 160.65 161.581 160.556C162.051 160.707 162.544 160.848 163.04 161.022C165.593 161.929 167.952 163.252 170.334 164.502C170.914 164.806 170.91 165.261 170.349 165.713Z" fill="#F5F4FE"/>
<path d="M175.79 150.734C175.421 151.064 175.172 151.505 175.081 151.989C174.99 152.473 175.062 152.973 175.286 153.412C175.607 154.147 175.878 154.902 176.1 155.671C176.275 156.261 176.315 156.883 176.218 157.491C176.121 158.098 175.889 158.677 175.538 159.184C174.809 160.269 173.984 161.23 172.744 161.769C172.271 161.983 171.731 162.005 171.242 161.83C168.045 160.775 165.185 158.905 162.948 156.409C162.062 155.404 162.058 154.912 163.145 154.103C164.389 153.174 165.724 152.371 167.015 151.511C167.744 151.02 168.474 150.543 169.203 150.026C169.932 149.509 170.049 149.115 169.677 148.327C169.156 147.221 168.506 146.158 167.963 145.074C167.58 144.323 167.249 143.547 166.975 142.75C166.843 142.418 166.832 142.05 166.945 141.71C167.059 141.371 167.288 141.081 167.595 140.892C168.381 140.386 169.214 139.956 170.082 139.606C172.223 138.756 174.393 137.979 176.545 137.173C176.701 137.112 176.847 137.032 177 136.956V136.783C176.636 136.725 176.242 136.638 175.859 136.606C174.451 136.49 173.043 136.396 171.639 136.288C170.129 136.169 168.722 136.649 167.321 137.047C166.683 137.22 166.048 137.408 165.432 137.632C164.702 137.903 164.458 138.326 164.6 139.078C164.918 140.784 165.253 142.483 165.56 144.189C165.803 145.605 166.034 147.037 166.253 148.482C166.387 149.35 166.143 149.693 165.279 149.888C164.26 150.169 163.223 150.381 162.175 150.525C161.341 150.542 160.507 150.464 159.691 150.29C159.039 150.192 158.4 150.019 157.758 149.863C157.117 149.708 156.839 149.426 156.916 148.779C157.058 147.496 157.248 146.216 157.474 144.944C157.817 143.039 158.225 141.149 158.568 139.244C158.703 138.464 158.743 137.907 157.605 137.589C156.05 137.087 154.467 136.675 152.864 136.353C151.722 136.169 150.519 136.353 149.345 136.407C148.553 136.45 147.765 136.559 146.978 136.646C146.719 136.678 146.467 136.743 146.212 136.787C146.208 136.829 146.198 136.87 146.183 136.909C146.373 137.021 146.572 137.119 146.777 137.202C149.049 138.062 151.336 138.897 153.604 139.772C154.221 140.007 154.81 140.308 155.362 140.668C156.281 141.265 156.566 141.991 156.172 143.007C155.778 144.022 155.187 145.078 154.669 146.104C154.305 146.795 153.907 147.452 153.575 148.154C153.211 149.017 153.273 149.538 154.006 150.022C155.151 150.785 156.311 151.526 157.452 152.296C158.342 152.888 159.214 153.506 160.093 154.103C160.163 154.155 160.229 154.213 160.29 154.276C161.019 154.967 161.074 155.407 160.399 156.152C159.686 156.946 158.926 157.698 158.123 158.404C156.354 159.965 154.25 160.963 152.054 161.794C151.761 161.91 151.444 161.96 151.128 161.939C150.813 161.917 150.506 161.826 150.231 161.671C149.427 161.27 148.72 160.701 148.158 160.003C147.597 159.306 147.194 158.496 146.978 157.63C146.686 156.423 147.094 155.27 147.55 154.15C147.671 153.857 147.791 153.557 147.915 153.264C148.105 152.891 148.172 152.468 148.107 152.055C148.042 151.642 147.847 151.259 147.55 150.962C146.398 149.711 145.227 148.482 144.06 147.254C142.791 145.916 141.514 144.591 140.231 143.278C139.78 142.801 139.488 142.2 139.393 141.553C139.297 140.907 139.404 140.248 139.698 139.664C140.818 137.711 142.084 135.843 143.484 134.076C144.49 132.753 145.555 131.466 146.569 130.147C146.667 130 146.811 129.888 146.979 129.83C147.147 129.772 147.33 129.77 147.499 129.825C149.604 130.212 151.704 130.631 153.827 130.91C154.556 131 155.388 130.733 156.143 130.527C157.237 130.223 158.331 129.825 159.4 129.471C161.125 128.907 162.81 129.11 164.506 129.681C165.781 130.152 167.084 130.544 168.408 130.856C169.206 130.953 170.015 130.907 170.797 130.722C172.507 130.454 174.203 130.118 175.903 129.829C175.996 129.814 176.092 129.819 176.183 129.844C176.274 129.869 176.359 129.913 176.432 129.974C178.773 132.865 181.125 135.756 183.062 138.915C183.175 139.103 183.27 139.302 183.387 139.49C184.262 140.914 183.824 142.428 182.839 143.466C180.451 145.844 178.117 148.295 175.79 150.734Z" fill="#F5F4FE"/>
<g clip-path="url(#clip0_7204_239737)">
<path d="M255.27 62.616C269.78 66.504 284.697 57.8857 288.587 43.3666C292.478 28.8476 283.869 13.9257 269.359 10.0378C254.849 6.14985 239.932 14.7681 236.042 29.2872C232.151 43.8062 240.76 58.7281 255.27 62.616Z" fill="#A6ABE8"/>
<path d="M266.128 22.0859L263.307 32.6137L271.727 39.1315L266.128 22.0859Z" fill="#F5F4FE"/>
<path d="M266.127 22.0859L252.754 34.0479L263.306 32.6137L266.127 22.0859Z" fill="#F5F4FE"/>
<path d="M260.413 43.4125L258.497 50.5659L271.289 40.7904L260.413 43.4125Z" fill="#F5F4FE"/>
<path d="M258.496 50.5659L260.413 43.4112L252.31 35.7051L258.496 50.5659Z" fill="#F5F4FE"/>
<path d="M260.857 41.7565L271.727 39.1316L263.306 32.6162L260.857 41.7565Z" fill="#F5F4FE"/>
<path d="M252.754 34.048L260.857 41.7565L263.306 32.6162L252.754 34.048Z" fill="#F5F4FE"/>
</g>
<g clip-path="url(#clip1_7204_239737)">
<path d="M316.192 84.2393C323.992 84.2393 330.315 77.912 330.315 70.1069C330.315 62.3019 323.992 55.9746 316.192 55.9746C308.393 55.9746 302.07 62.3019 302.07 70.1069C302.07 77.912 308.393 84.2393 316.192 84.2393Z" fill="#A6ABE8"/>
<path d="M318.937 67.4223C318.968 67.3719 318.996 67.3049 319.025 67.2475C319.674 66.0972 320.016 64.7987 320.017 63.4776C319.102 62.9494 318.137 62.6164 317.086 62.501C317.475 64.199 318.026 65.8435 318.822 67.393L318.937 67.4223ZM313.692 67.1321L313.664 67.1257L313.441 67.0747V67.0708H313.437L313.638 66.195C313.787 66.2269 313.935 66.262 314.083 66.2983H314.086C314.628 65.0761 315.05 63.8044 315.347 62.501C313.978 62.6523 312.675 63.1713 311.577 64.0032V64.0058C310.655 64.704 309.904 65.6019 309.378 66.6322C308.853 67.6625 308.568 68.7983 308.543 69.9547V70.1078C309.36 70.5774 310.255 70.8943 311.185 71.043L311.189 71.0385C312.165 69.8326 313.005 68.5228 313.694 67.1327H313.692V67.1321ZM318.481 68.4238C318.648 68.5131 318.711 68.6407 318.791 68.8907C318.901 69.2684 318.826 69.6658 318.748 70.0389L319.673 70.2539L319.902 69.2569C320.836 70.6953 321.872 72.181 323.13 73.347C322.901 73.8656 322.76 74.0468 322.424 74.5023C320.365 73.8682 318.172 73.532 316.018 73.5531L316.202 72.8163L315.587 72.6728C315.492 72.6486 315.394 72.6058 315.337 72.5216C315.265 72.4259 315.265 72.2996 315.289 72.1867L315.674 70.5142C315.872 70.562 316.08 70.5933 316.266 70.6819C316.353 70.7169 316.431 70.7719 316.493 70.8425C316.555 70.9131 316.599 70.9973 316.623 71.0883C316.673 71.3421 316.565 71.5858 316.522 71.8301L317.349 72.0215L318.039 69.0311L317.969 69.0075L317.915 68.9973C318.106 68.7963 318.273 68.6177 318.446 68.3996L318.481 68.4238H318.481ZM311.209 71.235L311.229 71.2076C311.389 71.2433 311.513 71.2299 311.677 71.2471C312.266 71.2994 312.837 71.3109 313.423 71.228C313.467 71.2216 313.513 71.2171 313.559 71.2152L313.423 71.737C313.399 71.8403 313.353 71.9475 313.265 72.0126C313.221 72.0416 313.171 72.0613 313.12 72.0703C313.068 72.0793 313.015 72.0775 312.964 72.0649C312.753 72.0221 312.543 71.9647 312.33 71.9239C312.266 72.2154 312.196 72.5076 312.129 72.7972L313.542 73.1244C313.485 73.3879 313.471 73.4593 313.411 73.7202C312.235 73.8816 311.073 74.1352 309.937 74.4787C309.603 74.0238 309.459 73.9141 309.235 73.3949C309.95 72.7315 310.594 71.9934 311.209 71.235ZM314.489 73.3426L315.055 73.474L315.036 73.5862L314.431 73.6296L314.489 73.3426ZM313.444 71.0596C313.488 71.0535 313.532 71.0497 313.576 71.0481V71.0455L314.306 67.888C314.334 67.7444 314.392 67.6009 314.346 67.4574C314.329 67.4059 314.3 67.3592 314.261 67.3208C314.223 67.2824 314.176 67.2534 314.125 67.236L314.101 67.2284C313.98 67.1959 314.073 67.2188 313.95 67.1901C313.937 67.1869 313.875 67.2073 313.861 67.2048C313.18 68.5786 312.348 69.8724 311.38 71.0621C311.54 71.0959 311.514 71.0864 311.674 71.1029C312.264 71.1572 312.857 71.1425 313.443 71.0602L313.444 71.0596Z" fill="#F5F4FE"/>
<path d="M315.064 66.5219V66.5245C315.176 66.0505 315.282 65.5747 315.396 65.1014L316.338 65.3182L316.011 66.742L316.575 66.8734C316.631 66.6368 316.687 66.3995 316.741 66.1622L316.823 65.8062L316.905 65.4503L317.847 65.6653C317.834 65.7291 317.82 65.7928 317.806 65.8566C317.715 66.2693 317.613 66.6782 317.522 67.0922L318.606 67.3448C317.81 65.7948 317.283 64.1745 316.895 62.4764C316.651 62.4477 316.549 62.4573 316.302 62.4528H316.152C315.881 62.4528 315.781 62.4458 315.516 62.4764C315.218 63.7797 314.866 65.1467 314.324 66.3689L315.064 66.5219ZM316.314 67.7397L316.343 67.7461L316.346 67.7397H316.314Z" fill="white"/>
<path d="M316.317 67.7398L315.879 69.6369C316.151 69.6968 316.434 69.7963 316.713 69.7179C316.803 69.6896 316.884 69.6397 316.95 69.5725C317.016 69.5053 317.065 69.4229 317.091 69.3326C317.143 69.1648 317.17 68.9926 317.215 68.8255L317.677 68.9428C317.697 68.946 317.674 68.9582 317.687 68.9448L317.699 68.9358C317.89 68.7304 318.107 68.5053 318.279 68.2877C317.996 68.1464 317.695 68.0457 317.385 67.9886L316.317 67.7398ZM323.182 66.9941C322.522 65.518 321.582 64.4068 320.184 63.5967C320.183 64.9184 319.865 66.0979 319.216 67.2492C319.177 67.3213 319.141 67.3952 319.109 67.4706C319.546 67.5663 319.819 67.625 320.256 67.7232V67.7277L319.974 68.9952C320.906 70.433 321.946 72.0162 323.201 73.1835C323.601 72.2701 323.819 71.2871 323.842 70.2894V69.9303C323.817 68.9174 323.593 67.9193 323.182 66.9934V66.9941ZM308.543 70.2754V70.3858C308.558 71.4057 308.776 72.2446 309.184 73.1797C309.861 72.555 310.489 71.8801 311.065 71.1608C310.137 71.0128 309.356 70.7474 308.543 70.2754ZM315.992 73.72L315.671 75.117H315.669L314.722 74.9001L314.986 73.7538L314.383 73.7966L314.16 74.7681H314.159L313.212 74.5505C313.26 74.3349 313.307 74.1244 313.36 73.912C312.233 74.0651 311.12 74.3107 310.033 74.6462C310.731 75.5943 311.638 76.3686 312.683 76.9091C313.729 77.4496 314.885 77.7418 316.061 77.763H316.374C317.542 77.7328 318.687 77.4364 319.723 76.8963C320.759 76.3562 321.659 75.5866 322.353 74.6462C320.293 74.0114 318.147 73.699 315.992 73.72Z" fill="white"/>
</g>
<g clip-path="url(#clip2_7204_239737)">
<path d="M60.0549 76.5431C68.7047 74.2237 73.8379 65.3264 71.5202 56.6704C69.2025 48.0144 60.3116 42.8775 51.6618 45.1969C43.012 47.5163 37.8789 56.4136 40.1966 65.0696C42.5143 73.7256 51.4052 78.8625 60.0549 76.5431Z" fill="#A6ABE8"/>
<path d="M63.9295 62.5757L62.2229 65.6891C62.1858 65.7568 62.135 65.8164 62.0736 65.8643C62.0121 65.9122 61.9415 65.9474 61.8659 65.9676L50.631 68.9801C50.5774 68.9945 50.5209 68.9933 50.4684 68.9767C50.4159 68.96 50.3697 68.9287 50.3355 68.8865C50.3013 68.8443 50.2805 68.7931 50.2758 68.7391C50.2711 68.6852 50.2827 68.6309 50.309 68.5828L52.0173 65.4689C52.0543 65.4015 52.105 65.342 52.1662 65.2942C52.2274 65.2463 52.2978 65.2112 52.3731 65.1908L63.6074 62.1784C63.661 62.1641 63.7175 62.1653 63.7701 62.1819C63.8225 62.1985 63.8687 62.2299 63.903 62.2721C63.9372 62.3143 63.9579 62.3655 63.9626 62.4194C63.9673 62.4734 63.9558 62.5277 63.9295 62.5757ZM60.2234 58.2214C60.1575 58.1814 60.0836 58.1552 60.0065 58.1444C59.9294 58.1337 59.8506 58.1386 59.7751 58.1589L48.5402 61.1714C48.4866 61.1858 48.4382 61.2151 48.4011 61.2558C48.3639 61.2965 48.3396 61.3468 48.331 61.4004C48.3225 61.4541 48.3301 61.5088 48.353 61.5579C48.3759 61.6069 48.413 61.6482 48.4598 61.6766L51.4951 63.5186C51.5609 63.5585 51.6344 63.5846 51.7113 63.5954C51.7882 63.6062 51.8668 63.6015 51.9422 63.5814L63.1765 60.569C63.2301 60.5546 63.2784 60.5253 63.3156 60.4846C63.3527 60.4439 63.377 60.3937 63.3857 60.34C63.3942 60.2864 63.3865 60.2316 63.3636 60.1826C63.3407 60.1335 63.3036 60.0922 63.2569 60.0638L60.2234 58.2214ZM48.1092 59.562L59.3442 56.5494C59.4197 56.5292 59.4904 56.4941 59.5518 56.4462C59.6132 56.3983 59.6641 56.3386 59.7012 56.271L61.4077 53.1576C61.434 53.1096 61.4455 53.0552 61.4408 53.0013C61.4361 52.9474 61.4154 52.8961 61.3812 52.8539C61.3469 52.8117 61.3008 52.7804 61.2483 52.7637C61.1958 52.7471 61.1393 52.7459 61.0857 52.7603L49.8513 55.7727C49.776 55.793 49.7056 55.8282 49.6444 55.876C49.5832 55.9238 49.5326 55.9833 49.4956 56.0508L47.7879 59.1645C47.7615 59.2125 47.75 59.2668 47.7547 59.3207C47.7593 59.3746 47.78 59.4257 47.8141 59.4679C47.8482 59.5101 47.8943 59.5415 47.9468 59.5582C47.9992 59.5749 48.0556 59.5762 48.1092 59.562Z" fill="#F5F4FE"/>
</g>
<path d="M293.964 180.94L291.975 184.522C291.901 184.656 291.771 184.751 291.621 184.781L287.585 185.588C287.176 185.67 287.023 186.176 287.318 186.471L290.114 189.269C290.224 189.38 290.28 189.534 290.264 189.691L289.855 193.782C289.815 194.182 290.221 194.475 290.588 194.312L294.235 192.691C294.385 192.624 294.558 192.632 294.701 192.711L298.214 194.664C298.6 194.879 299.062 194.548 298.983 194.114L298.183 189.713C298.153 189.545 298.207 189.372 298.328 189.25L301.105 186.471C301.4 186.176 301.247 185.67 300.838 185.588L296.831 184.786C296.664 184.753 296.524 184.641 296.455 184.486L294.899 180.982C294.724 180.587 294.173 180.563 293.964 180.94Z" fill="#F195A4"/>
<path d="M21.6397 115.513L20.4629 117.633C20.3884 117.767 20.2587 117.862 20.1082 117.892L17.696 118.375C17.2865 118.457 17.1335 118.962 17.4287 119.257L19.0882 120.918C19.199 121.029 19.2543 121.184 19.2387 121.34L18.9921 123.807C18.9522 124.207 19.3584 124.5 19.7251 124.337L21.9105 123.365C22.0607 123.298 22.2336 123.306 22.3772 123.386L24.4291 124.527C24.815 124.741 25.2768 124.411 25.1979 123.976L24.723 121.363C24.6924 121.194 24.7464 121.021 24.8677 120.9L26.5087 119.257C26.8039 118.962 26.6509 118.457 26.2414 118.375L23.8574 117.898C23.6909 117.864 23.551 117.752 23.482 117.597L22.575 115.555C22.3998 115.16 21.8492 115.136 21.6397 115.513Z" fill="#F195A4"/>
<ellipse cx="2.09217" cy="114.596" rx="2.09217" ry="2.09368" fill="#E2A500"/>
<ellipse cx="6.27606" cy="109.36" rx="1.04608" ry="1.04684" fill="#F195A4"/>
<ellipse cx="18.3072" cy="161.18" rx="4.70737" ry="4.71077" fill="#E2A500"/>
<ellipse cx="27.1986" cy="161.703" rx="2.09217" ry="2.09368" fill="#F195A4"/>
<ellipse cx="307.548" cy="193.109" rx="2.09217" ry="2.09368" fill="#E2A500"/>
<ellipse cx="326.901" cy="181.07" rx="4.70737" ry="4.71077" fill="#E2A500"/>
<ellipse cx="313.825" cy="200.436" rx="1.04608" ry="1.04684" fill="#F195A4"/>
<path d="M190.066 32.3846L133.717 42.4542C128.838 43.3261 125.782 48.2239 127.142 52.9899L138.199 91.7147H212.471L199.674 38.6605C198.635 34.3565 194.425 31.6058 190.066 32.3846Z" fill="#5D65D3"/>
<path d="M116.48 77.8946L125.122 91.6683H204.624L183.914 50.2177C182.007 46.4016 177.535 44.6304 173.533 46.1061L120.674 65.5947C115.687 67.433 113.655 73.393 116.48 77.8946Z" fill="#E5E2F0"/>
<g clip-path="url(#clip3_7204_239737)">
<path d="M256.865 64.992C272.602 69.2088 288.778 59.8696 292.995 44.1323C297.212 28.3951 287.873 12.2191 272.135 8.00235C256.398 3.78557 240.222 13.1247 236.005 28.862C231.789 44.5992 241.128 60.7752 256.865 64.992Z" fill="#5472E8"/>
<path d="M268.634 21.0615L265.576 32.4726L274.709 39.5389L268.634 21.0615Z" fill="#C1CCF8"/>
<path d="M268.633 21.0616L254.132 34.0255L265.575 32.4727L268.633 21.0616Z" fill="white"/>
<path d="M262.44 44.1779L260.362 51.9315L274.234 41.3375L262.44 44.1779Z" fill="#C1CCF8"/>
<path d="M260.362 51.9306L262.44 44.1757L253.65 35.8213L260.362 51.9306Z" fill="white"/>
<path d="M262.921 42.3828L274.709 39.5393L265.575 32.4756L262.921 42.3828Z" fill="#8BA1F6"/>
<path d="M254.132 34.0259L262.92 42.3829L265.575 32.4757L254.132 34.0259Z" fill="#C1CCF8"/>
</g>
<g clip-path="url(#clip4_7204_239737)">
<path d="M60.8076 78.2991C71.7436 75.3688 78.2336 64.1279 75.3033 53.1919C72.373 42.2558 61.1321 35.7659 50.196 38.6962C39.26 41.6265 32.77 52.8674 35.7003 63.8034C38.6306 74.7395 49.8715 81.2294 60.8076 78.2991Z" fill="black"/>
<path d="M65.7063 60.6529L63.5487 64.5864C63.5018 64.6719 63.4375 64.7472 63.3599 64.8077C63.2822 64.8682 63.1929 64.9127 63.0974 64.9382L48.8929 68.7443C48.8251 68.7624 48.7536 68.7609 48.6872 68.7399C48.6209 68.7189 48.5625 68.6793 48.5192 68.626C48.476 68.5726 48.4498 68.5079 48.4438 68.4398C48.4379 68.3716 48.4525 68.303 48.4858 68.2423L50.6456 64.3082C50.6924 64.223 50.7565 64.1478 50.8338 64.0874C50.9112 64.0269 51.0002 63.9825 51.0954 63.9568L65.2992 60.151C65.3669 60.1328 65.4384 60.1343 65.5048 60.1553C65.5711 60.1764 65.6295 60.216 65.6729 60.2693C65.7161 60.3226 65.7423 60.3873 65.7482 60.4555C65.7541 60.5236 65.7396 60.5922 65.7063 60.6529ZM61.0207 55.1516C60.9373 55.101 60.844 55.0679 60.7465 55.0544C60.649 55.0408 60.5494 55.047 60.4539 55.0726L46.2494 58.8787C46.1816 58.8969 46.1205 58.9339 46.0735 58.9853C46.0265 59.0367 45.9958 59.1002 45.985 59.168C45.9742 59.2358 45.9838 59.305 46.0128 59.3669C46.0417 59.4289 46.0886 59.4811 46.1478 59.517L49.9853 61.8441C50.0685 61.8945 50.1615 61.9276 50.2588 61.9412C50.356 61.9549 50.4553 61.9488 50.5506 61.9235L64.7543 58.1176C64.8221 58.0994 64.8832 58.0624 64.9302 58.011C64.9772 57.9596 65.0079 57.8961 65.0188 57.8283C65.0296 57.7605 65.0199 57.6914 64.9909 57.6294C64.962 57.5674 64.9151 57.5152 64.856 57.4793L61.0207 55.1516ZM45.7046 56.8454L59.9091 53.0393C60.0046 53.0137 60.0939 52.9693 60.1716 52.9088C60.2492 52.8483 60.3135 52.7729 60.3604 52.6875L62.518 48.754C62.5513 48.6933 62.5658 48.6247 62.5599 48.5565C62.554 48.4884 62.5278 48.4237 62.4846 48.3703C62.4412 48.3171 62.3828 48.2775 62.3165 48.2564C62.2501 48.2354 62.1786 48.2339 62.1109 48.252L47.9071 52.0579C47.8119 52.0836 47.7229 52.128 47.6455 52.1885C47.5682 52.2489 47.5041 52.3241 47.4573 52.4093L45.2982 56.3432C45.265 56.4038 45.2504 56.4724 45.2563 56.5404C45.2622 56.6085 45.2883 56.6732 45.3314 56.7265C45.3746 56.7798 45.4329 56.8195 45.4991 56.8406C45.5654 56.8617 45.6368 56.8633 45.7046 56.8454Z" fill="#66FFF6"/>
</g>
<g clip-path="url(#clip5_7204_239737)">
<path d="M323.498 82.9886C330.673 78.8464 333.131 69.6726 328.989 62.4982C324.846 55.3238 315.673 52.8657 308.498 57.0078C301.324 61.1499 298.866 70.3238 303.008 77.4982C307.15 84.6726 316.324 87.1307 323.498 82.9886Z" fill="#42C1CA"/>
<path d="M314.322 67.9885C313.965 66.791 313.72 65.6703 313.684 64.8674C313.632 64.5043 313.702 63.5216 313.957 62.7518C314.382 61.4693 315.248 60.706 316.639 60.7574L316.631 60.9513L316.639 60.7574C317.348 60.7835 317.751 60.9991 317.842 61.3686C317.911 61.6433 317.762 61.9808 317.612 62.041C317.422 62.1779 317.195 62.2549 316.919 62.2241C316.683 62.1926 316.46 62.0975 316.274 61.9489C315.936 61.6945 315.683 61.6881 315.469 61.8477C315.313 61.9626 315.182 62.1806 315.161 62.2874L315.104 62.554C315.057 62.7561 315.03 62.9625 315.025 63.17C315.013 63.8893 315.282 65.0388 316.043 67.304L318.992 66.1324L319.471 67.308L316.479 68.4968L316.774 69.2816L316.848 69.4783C316.885 69.5806 316.926 69.6918 316.968 69.8112L319.99 68.6109L320.458 69.791L317.366 71.0196C317.844 72.6096 318.277 74.3602 318.312 75.1293C318.364 75.4935 318.294 76.4745 318.039 77.245C317.614 78.5268 316.748 79.2907 315.358 79.2393C314.649 79.2132 314.245 78.997 314.154 78.6275C314.085 78.3528 314.235 78.0159 314.384 77.9557C314.575 77.8188 314.801 77.7418 315.077 77.7719C315.291 77.7961 315.507 77.8848 315.723 78.0479C316.06 78.3016 316.313 78.3086 316.528 78.1491C316.683 78.0335 316.815 77.8154 316.835 77.7086C317.053 76.6755 316.78 75.085 315.645 71.7042L312.696 72.8751L312.216 71.6995L315.209 70.5106L314.914 69.7261C314.847 69.5501 314.783 69.3733 314.72 69.1958L311.71 70.392L311.241 69.2123L314.322 67.9885Z" fill="white"/>
</g>
<defs>
<filter id="filter0_f_7204_239737" x="80" y="216.998" width="172" height="44" filterUnits="userSpaceOnUse" color-interpolation-filters="sRGB">
<feFlood flood-opacity="0" result="BackgroundImageFix"/>
<feBlend mode="normal" in="SourceGraphic" in2="BackgroundImageFix" result="shape"/>
<feGaussianBlur stdDeviation="8" result="effect1_foregroundBlur_7204_239737"/>
</filter>
<clipPath id="clip0_7204_239737">
<rect width="54.3989" height="54.433" fill="white" transform="translate(243.086 2.99805) rotate(15)"/>
</clipPath>
<clipPath id="clip1_7204_239737">
<rect width="28.2442" height="28.2646" fill="white" transform="translate(302.07 55.9746)"/>
</clipPath>
<clipPath id="clip2_7204_239737">
<rect width="32.4301" height="32.4504" fill="white" transform="matrix(0.965879 -0.258993 0.258645 0.965972 36 49.3965)"/>
</clipPath>
<clipPath id="clip3_7204_239737">
<rect width="59" height="59" fill="white" transform="translate(243.641 0.367188) rotate(15)"/>
</clipPath>
<clipPath id="clip4_7204_239737">
<rect width="41" height="41" fill="white" transform="translate(30.3945 44.002) rotate(-15)"/>
</clipPath>
<clipPath id="clip5_7204_239737">
<rect width="30" height="30" fill="white" transform="translate(295.508 64.5078) rotate(-30)"/>
</clipPath>
</defs>
</svg>
