<svg width="208" height="118" viewBox="0 0 208 118" fill="none" xmlns="http://www.w3.org/2000/svg">
<g clip-path="url(#clip0_539_30122)">
<rect width="208" height="118" rx="8" fill="#EAEAEA"/>
<g filter="url(#filter0_d_539_30122)">
<g clip-path="url(#clip1_539_30122)">
<path d="M-3 29H165C169.418 29 173 32.5817 173 37V134H-3V29Z" fill="#D6D9DC"/>
<rect x="-3" y="65" width="176" height="69" fill="#F3F3F3"/>
<rect x="142" y="87" width="10" height="1.5" rx="0.75" fill="#424242"/>
<rect x="142" y="81.5" width="10" height="1.5" rx="0.75" fill="#424242"/>
<rect x="142" y="76" width="10" height="1.5" rx="0.75" fill="#424242"/>
<path fill-rule="evenodd" clip-rule="evenodd" d="M115 94C121.075 94 126 89.0751 126 83C126 82.6442 125.983 82.2924 125.95 81.9453L116.071 79.1791L104.722 86.9291C106.304 91.0639 110.309 94 115 94ZM104.397 85.9402L114.813 78.8269L106.19 76.4124C104.815 78.2487 104 80.5292 104 83C104 84.0183 104.138 85.0043 104.397 85.9402ZM106.889 75.5696L115.892 78.0904L121.595 74.1955C119.757 72.8168 117.474 72 115 72C111.789 72 108.9 73.3756 106.889 75.5696ZM122.397 74.8586L117.149 78.4426L125.792 80.8627C125.328 78.5033 124.109 76.4147 122.397 74.8586Z" fill="url(#paint0_linear_539_30122)"/>
<path d="M-52 69H49C51.2091 69 53 70.7909 53 73V93C53 95.2091 51.2091 97 49 97H-52V69Z" fill="white"/>
<circle cx="81" cy="82" r="25.5" fill="#F3F3F3" stroke="white"/>
<path fill-rule="evenodd" clip-rule="evenodd" d="M71 75.0104C71 73.8079 71.9749 72.833 73.1774 72.833H86.6897C88.0704 72.833 89.1897 73.9523 89.1897 75.333V75.5212H89.3333C90.714 75.5212 91.8333 76.6405 91.8333 78.0212V88.6663C91.8333 90.0471 90.714 91.1663 89.3333 91.1663H73.5C72.1193 91.1663 71 90.0471 71 88.6663V75.0104ZM72.6667 77.1276V88.6663C72.6667 89.1266 73.0398 89.4997 73.5 89.4997H89.3333C89.7936 89.4997 90.1667 89.1266 90.1667 88.6663V87.09H84.0747C82.694 87.09 81.5747 85.9708 81.5747 84.59V82.2245C81.5747 80.8437 82.694 79.7245 84.0747 79.7245H90.1667V78.0212C90.1667 77.5609 89.7936 77.1878 89.3333 77.1878H73.1774C73.0015 77.1878 72.8305 77.167 72.6667 77.1276ZM90.1667 81.3911H84.0747C83.6145 81.3911 83.2414 81.7642 83.2414 82.2245V84.59C83.2414 85.0503 83.6145 85.4234 84.0747 85.4234H90.1667V81.3911ZM72.6667 75.0104C72.6667 75.2925 72.8953 75.5212 73.1774 75.5212H87.523V75.333C87.523 74.8728 87.1499 74.4997 86.6897 74.4997H73.1774C72.8953 74.4997 72.6667 74.7283 72.6667 75.0104Z" fill="#495057"/>
<path d="M81.0004 56C75.6316 56 69.1424 59.7117 65 62.5H97.5C93.3576 59.7117 86.3693 56 81.0004 56Z" fill="#D6D9DC"/>
<path fill-rule="evenodd" clip-rule="evenodd" d="M71 75.0104C71 73.8079 71.9749 72.833 73.1774 72.833H86.6897C88.0704 72.833 89.1897 73.9523 89.1897 75.333V75.5212H89.3333C90.714 75.5212 91.8333 76.6405 91.8333 78.0212V88.6663C91.8333 90.0471 90.714 91.1663 89.3333 91.1663H73.5C72.1193 91.1663 71 90.0471 71 88.6663V75.0104ZM72.6667 77.1276V88.6663C72.6667 89.1266 73.0398 89.4997 73.5 89.4997H89.3333C89.7936 89.4997 90.1667 89.1266 90.1667 88.6663V87.09H84.0747C82.694 87.09 81.5747 85.9708 81.5747 84.59V82.2245C81.5747 80.8437 82.694 79.7245 84.0747 79.7245H90.1667V78.0212C90.1667 77.5609 89.7936 77.1878 89.3333 77.1878H73.1774C73.0015 77.1878 72.8305 77.167 72.6667 77.1276ZM90.1667 81.3911H84.0747C83.6145 81.3911 83.2414 81.7642 83.2414 82.2245V84.59C83.2414 85.0503 83.6145 85.4234 84.0747 85.4234H90.1667V81.3911ZM72.6667 75.0104C72.6667 75.2925 72.8953 75.5212 73.1774 75.5212H87.523V75.333C87.523 74.8728 87.1499 74.4997 86.6897 74.4997H73.1774C72.8953 74.4997 72.6667 74.7283 72.6667 75.0104Z" fill="#495057"/>
<circle cx="81" cy="82" r="25.5" stroke="white"/>
</g>
</g>
</g>
<defs>
<filter id="filter0_d_539_30122" x="-27" y="5" width="224" height="153" filterUnits="userSpaceOnUse" color-interpolation-filters="sRGB">
<feFlood flood-opacity="0" result="BackgroundImageFix"/>
<feColorMatrix in="SourceAlpha" type="matrix" values="0 0 0 0 0 0 0 0 0 0 0 0 0 0 0 0 0 0 127 0" result="hardAlpha"/>
<feOffset/>
<feGaussianBlur stdDeviation="12"/>
<feColorMatrix type="matrix" values="0 0 0 0 0.388235 0 0 0 0 0.411765 0 0 0 0 0.431373 0 0 0 0.36 0"/>
<feBlend mode="normal" in2="BackgroundImageFix" result="effect1_dropShadow_539_30122"/>
<feBlend mode="normal" in="SourceGraphic" in2="effect1_dropShadow_539_30122" result="shape"/>
</filter>
<linearGradient id="paint0_linear_539_30122" x1="121.935" y1="91.3696" x2="100.753" y2="76.6823" gradientUnits="userSpaceOnUse">
<stop stop-color="#6F4CD2"/>
<stop offset="0.5625" stop-color="#BF14A2"/>
<stop offset="1" stop-color="#F73A1C"/>
</linearGradient>
<clipPath id="clip0_539_30122">
<rect width="208" height="118" rx="8" fill="white"/>
</clipPath>
<clipPath id="clip1_539_30122">
<path d="M-3 29H165C169.418 29 173 32.5817 173 37V134H-3V29Z" fill="white"/>
</clipPath>
</defs>
</svg>
