<svg width="120" height="100" viewBox="0 0 120 100" fill="none" xmlns="http://www.w3.org/2000/svg">
<path d="M0 19.2C0 12.4794 0 9.11905 1.30792 6.55211C2.4584 4.29417 4.29417 2.4584 6.55211 1.30792C9.11905 0 12.4794 0 19.2 0H100.8C107.521 0 110.881 0 113.448 1.30792C115.706 2.4584 117.542 4.29417 118.692 6.55211C120 9.11905 120 12.4794 120 19.2V80.8C120 87.5206 120 90.8809 118.692 93.4479C117.542 95.7058 115.706 97.5416 113.448 98.6921C110.881 100 107.521 100 100.8 100H19.2C12.4794 100 9.11905 100 6.55211 98.6921C4.29417 97.5416 2.4584 95.7058 1.30792 93.4479C0 90.8809 0 87.5206 0 80.8V19.2Z" fill="#F98354"/>
<rect x="45.5" y="15.5" width="59" height="73" rx="4.5" fill="black" stroke="black"/>
<rect x="45.5" y="13.5" width="59" height="73" rx="4.5" fill="#D96738" stroke="black"/>
<rect x="54" y="22" width="42" height="12" rx="2" fill="#FFB597"/>
<rect x="54" y="42" width="36" height="6" rx="3" fill="#FFB597"/>
<rect x="54" y="52" width="28" height="6" rx="3" fill="#FFB597"/>
<rect x="54" y="62" width="20" height="6" rx="3" fill="#FFB597"/>
<rect x="18" y="32" width="40" height="36" rx="1" fill="#F98354"/>
<mask id="path-9-outside-1_2881_17185" maskUnits="userSpaceOnUse" x="15" y="30" width="46" height="43" fill="black">
<rect fill="white" x="15" y="30" width="46" height="43"/>
<path d="M55.5996 31C58.0294 31 59.9995 32.9698 60 35.3994V67.0791C60 69.5091 58.0296 71.4795 55.5996 71.4795H20.4004C17.9704 71.4795 16 69.5091 16 67.0791V35.3994C16.0005 32.9698 17.9706 31 20.4004 31H55.5996ZM19.5195 67.0791C19.5195 67.5651 19.9144 67.96 20.4004 67.96H55.5996C56.0856 67.96 56.4795 67.5651 56.4795 67.0791V41.5596H19.5195V67.0791ZM38.001 57.2266C40.9079 57.2266 43.7532 58.4286 46.5068 60.7549C47.2851 61.4125 47.3907 62.5867 46.7432 63.377C46.0955 64.167 44.9394 64.2746 44.1611 63.6172C42.0261 61.8135 39.9827 60.9503 38.001 60.9502C36.0192 60.9502 33.975 61.8134 31.8398 63.6172C31.0615 64.2745 29.9053 64.1671 29.2578 63.377C28.6102 62.5866 28.7168 61.4124 29.4951 60.7549C32.2488 58.4286 35.094 57.2266 38.001 57.2266ZM32.4395 46.3125C33.167 45.5853 34.3468 45.5852 35.0742 46.3125C35.8014 47.0399 35.8013 48.2198 35.0742 48.9473L33.7598 50.2607L35.0742 51.5752C35.8016 52.3026 35.8014 53.4824 35.0742 54.21C34.3467 54.9373 33.1669 54.9374 32.4395 54.21L31.125 52.8955L29.8115 54.21C29.084 54.9374 27.9043 54.9373 27.1768 54.21C26.4493 53.4824 26.4492 52.3027 27.1768 51.5752L28.4902 50.2607L27.1768 48.9473C26.4494 48.2198 26.4494 47.04 27.1768 46.3125C27.9043 45.5853 29.0841 45.5852 29.8115 46.3125L31.125 47.626L32.4395 46.3125ZM46.1875 46.3125C46.915 45.5853 48.0948 45.5853 48.8223 46.3125C49.5497 47.04 49.5496 48.2197 48.8223 48.9473L47.5078 50.2607L48.8223 51.5752C49.5498 52.3027 49.5498 53.4824 48.8223 54.21C48.0947 54.9373 46.915 54.9374 46.1875 54.21L44.873 52.8955L43.5596 54.21C42.832 54.9373 41.6523 54.9374 40.9248 54.21C40.1976 53.4825 40.1976 52.3027 40.9248 51.5752L42.2383 50.2607L40.9248 48.9473C40.1976 48.2198 40.1976 47.04 40.9248 46.3125C41.6523 45.585 42.832 45.5852 43.5596 46.3125L44.873 47.626L46.1875 46.3125ZM20.4004 34.5195C19.9147 34.5195 19.52 34.9138 19.5195 35.3994V38.04H56.4795V35.3994C56.479 34.9138 56.0853 34.5195 55.5996 34.5195H20.4004Z"/>
</mask>
<path d="M55.5996 31C58.0294 31 59.9995 32.9698 60 35.3994V67.0791C60 69.5091 58.0296 71.4795 55.5996 71.4795H20.4004C17.9704 71.4795 16 69.5091 16 67.0791V35.3994C16.0005 32.9698 17.9706 31 20.4004 31H55.5996ZM19.5195 67.0791C19.5195 67.5651 19.9144 67.96 20.4004 67.96H55.5996C56.0856 67.96 56.4795 67.5651 56.4795 67.0791V41.5596H19.5195V67.0791ZM38.001 57.2266C40.9079 57.2266 43.7532 58.4286 46.5068 60.7549C47.2851 61.4125 47.3907 62.5867 46.7432 63.377C46.0955 64.167 44.9394 64.2746 44.1611 63.6172C42.0261 61.8135 39.9827 60.9503 38.001 60.9502C36.0192 60.9502 33.975 61.8134 31.8398 63.6172C31.0615 64.2745 29.9053 64.1671 29.2578 63.377C28.6102 62.5866 28.7168 61.4124 29.4951 60.7549C32.2488 58.4286 35.094 57.2266 38.001 57.2266ZM32.4395 46.3125C33.167 45.5853 34.3468 45.5852 35.0742 46.3125C35.8014 47.0399 35.8013 48.2198 35.0742 48.9473L33.7598 50.2607L35.0742 51.5752C35.8016 52.3026 35.8014 53.4824 35.0742 54.21C34.3467 54.9373 33.1669 54.9374 32.4395 54.21L31.125 52.8955L29.8115 54.21C29.084 54.9374 27.9043 54.9373 27.1768 54.21C26.4493 53.4824 26.4492 52.3027 27.1768 51.5752L28.4902 50.2607L27.1768 48.9473C26.4494 48.2198 26.4494 47.04 27.1768 46.3125C27.9043 45.5853 29.0841 45.5852 29.8115 46.3125L31.125 47.626L32.4395 46.3125ZM46.1875 46.3125C46.915 45.5853 48.0948 45.5853 48.8223 46.3125C49.5497 47.04 49.5496 48.2197 48.8223 48.9473L47.5078 50.2607L48.8223 51.5752C49.5498 52.3027 49.5498 53.4824 48.8223 54.21C48.0947 54.9373 46.915 54.9374 46.1875 54.21L44.873 52.8955L43.5596 54.21C42.832 54.9373 41.6523 54.9374 40.9248 54.21C40.1976 53.4825 40.1976 52.3027 40.9248 51.5752L42.2383 50.2607L40.9248 48.9473C40.1976 48.2198 40.1976 47.04 40.9248 46.3125C41.6523 45.585 42.832 45.5852 43.5596 46.3125L44.873 47.626L46.1875 46.3125ZM20.4004 34.5195C19.9147 34.5195 19.52 34.9138 19.5195 35.3994V38.04H56.4795V35.3994C56.479 34.9138 56.0853 34.5195 55.5996 34.5195H20.4004Z" fill="black"/>
<path d="M60 35.3994H61V35.3992L60 35.3994ZM16 35.3994L15 35.3992V35.3994H16ZM56.4795 41.5596H57.4795V40.5596H56.4795V41.5596ZM19.5195 41.5596V40.5596H18.5195V41.5596H19.5195ZM38.001 57.2266L38.001 56.2266H38.001V57.2266ZM46.5068 60.7549L47.1523 59.9911L47.1522 59.991L46.5068 60.7549ZM46.7432 63.377L47.5165 64.0109L47.5167 64.0108L46.7432 63.377ZM44.1611 63.6172L44.8065 62.8533L44.8065 62.8533L44.1611 63.6172ZM38.001 60.9502L38.001 59.9502H38.001V60.9502ZM31.8398 63.6172L32.4851 64.3812L32.4852 64.3811L31.8398 63.6172ZM29.2578 63.377L28.4843 64.0108L28.4844 64.0108L29.2578 63.377ZM29.4951 60.7549L28.8498 59.991L28.8498 59.991L29.4951 60.7549ZM32.4395 46.3125L33.1463 47.0199L33.1464 47.0198L32.4395 46.3125ZM35.0742 46.3125L35.7814 45.6055L35.7813 45.6053L35.0742 46.3125ZM35.0742 48.9473L35.7811 49.6546L35.7815 49.6542L35.0742 48.9473ZM33.7598 50.2607L33.0529 49.5534L32.3453 50.2605L33.0527 50.9678L33.7598 50.2607ZM35.0742 51.5752L35.7814 50.8681L35.7813 50.8681L35.0742 51.5752ZM35.0742 54.21L35.7812 54.9172L35.7815 54.9169L35.0742 54.21ZM32.4395 54.21L31.7323 54.9171L31.7324 54.9171L32.4395 54.21ZM31.125 52.8955L31.8321 52.1884L31.1247 51.481L30.4176 52.1887L31.125 52.8955ZM29.8115 54.21L30.5186 54.9171L30.5189 54.9168L29.8115 54.21ZM27.1768 54.21L26.4696 54.917L26.4698 54.9172L27.1768 54.21ZM27.1768 51.5752L27.8839 52.2823L27.8841 52.282L27.1768 51.5752ZM28.4902 50.2607L29.1976 50.9676L29.9042 50.2605L29.1973 49.5536L28.4902 50.2607ZM27.1768 48.9473L26.4696 49.6543L26.4697 49.6544L27.1768 48.9473ZM27.1768 46.3125L26.4698 45.6052L26.4695 45.6055L27.1768 46.3125ZM29.8115 46.3125L30.5186 45.6054L30.5186 45.6053L29.8115 46.3125ZM31.125 47.626L30.4179 48.3331L31.1247 49.0399L31.8318 48.3333L31.125 47.626ZM46.1875 46.3125L46.8943 47.0199L46.8945 47.0197L46.1875 46.3125ZM48.8223 46.3125L49.5294 45.6054L49.5292 45.6053L48.8223 46.3125ZM48.8223 48.9473L49.5291 49.6546L49.5295 49.6543L48.8223 48.9473ZM47.5078 50.2607L46.801 49.5534L46.0933 50.2605L46.8007 50.9678L47.5078 50.2607ZM48.8223 51.5752L48.1152 52.2823L48.8223 51.5752ZM48.8223 54.21L49.5292 54.9172L49.5294 54.9171L48.8223 54.21ZM46.1875 54.21L45.4804 54.9171H45.4804L46.1875 54.21ZM44.873 52.8955L45.5802 52.1884L44.8728 51.481L44.1657 52.1887L44.873 52.8955ZM43.5596 54.21L44.2665 54.9172L44.2669 54.9168L43.5596 54.21ZM40.9248 54.21L40.2176 54.9169L40.2177 54.9171L40.9248 54.21ZM40.9248 51.5752L41.632 52.2822L41.6322 52.282L40.9248 51.5752ZM42.2383 50.2607L42.9457 50.9676L43.6522 50.2605L42.9454 49.5536L42.2383 50.2607ZM40.9248 48.9473L40.2176 49.6542L40.2177 49.6544L40.9248 48.9473ZM40.9248 46.3125L40.2177 45.6054L40.2176 45.6055L40.9248 46.3125ZM43.5596 46.3125L44.2667 45.6054L44.2666 45.6053L43.5596 46.3125ZM44.873 47.626L44.1659 48.3331L44.8728 49.0399L45.5799 48.3333L44.873 47.626ZM19.5195 35.3994L18.5195 35.3984V35.3994H19.5195ZM19.5195 38.04H18.5195V39.04H19.5195V38.04ZM56.4795 38.04V39.04H57.4795V38.04H56.4795ZM56.4795 35.3994H57.4795V35.3984L56.4795 35.3994ZM55.5996 31V32C57.4772 32 58.9996 33.5222 59 35.3996L60 35.3994L61 35.3992C60.9994 32.4174 58.5815 30 55.5996 30V31ZM60 35.3994H59V67.0791H60H61V35.3994H60ZM60 67.0791H59C59 68.9568 57.4774 70.4795 55.5996 70.4795V71.4795V72.4795C58.5819 72.4795 61 70.0614 61 67.0791H60ZM55.5996 71.4795V70.4795H20.4004V71.4795V72.4795H55.5996V71.4795ZM20.4004 71.4795V70.4795C18.5226 70.4795 17 68.9568 17 67.0791H16H15C15 70.0614 17.4181 72.4795 20.4004 72.4795V71.4795ZM16 67.0791H17V35.3994H16H15V67.0791H16ZM16 35.3994L17 35.3996C17.0004 33.5222 18.5228 32 20.4004 32V31V30C17.4185 30 15.0006 32.4174 15 35.3992L16 35.3994ZM20.4004 31V32H55.5996V31V30H20.4004V31ZM19.5195 67.0791H18.5195C18.5195 68.1174 19.3621 68.96 20.4004 68.96V67.96V66.96C20.4667 66.96 20.5195 67.0128 20.5195 67.0791H19.5195ZM20.4004 67.96V68.96H55.5996V67.96V66.96H20.4004V67.96ZM55.5996 67.96V68.96C56.6394 68.96 57.4795 68.1159 57.4795 67.0791H56.4795H55.4795C55.4795 67.0143 55.5319 66.96 55.5996 66.96V67.96ZM56.4795 67.0791H57.4795V41.5596H56.4795H55.4795V67.0791H56.4795ZM56.4795 41.5596V40.5596H19.5195V41.5596V42.5596H56.4795V41.5596ZM19.5195 41.5596H18.5195V67.0791H19.5195H20.5195V41.5596H19.5195ZM38.001 57.2266L38.001 58.2266C40.6129 58.2266 43.2376 59.3021 45.8615 61.5188L46.5068 60.7549L47.1522 59.991C44.2688 57.5551 41.203 56.2266 38.001 56.2266L38.001 57.2266ZM46.5068 60.7549L45.8614 61.5187C46.2201 61.8218 46.2727 62.3733 45.9697 62.7431L46.7432 63.377L47.5167 64.0108C48.5087 62.8001 48.35 61.0031 47.1523 59.9911L46.5068 60.7549ZM46.7432 63.377L45.9698 62.743C45.6742 63.1036 45.1562 63.1488 44.8065 62.8533L44.1611 63.6172L43.5158 64.3811C44.7225 65.4005 46.5169 65.2303 47.5165 64.0109L46.7432 63.377ZM44.1611 63.6172L44.8065 62.8533C42.5559 60.952 40.2919 59.9503 38.001 59.9502L38.001 60.9502L38.0009 61.9502C39.6735 61.9503 41.4963 62.675 43.5158 64.3811L44.1611 63.6172ZM38.001 60.9502V59.9502C35.7101 59.9502 33.4453 60.9518 31.1945 62.8533L31.8398 63.6172L32.4852 64.3811C34.5047 62.675 36.3283 61.9502 38.001 61.9502V60.9502ZM31.8398 63.6172L31.1946 62.8532C30.8445 63.1489 30.3266 63.1034 30.0313 62.7431L29.2578 63.377L28.4844 64.0108C29.4841 65.2308 31.2786 65.4001 32.4851 64.3812L31.8398 63.6172ZM29.2578 63.377L30.0313 62.7431C29.7287 62.3739 29.7811 61.8224 30.1405 61.5188L29.4951 60.7549L28.8498 59.991C27.6524 61.0025 27.4917 62.7994 28.4843 64.0108L29.2578 63.377ZM29.4951 60.7549L30.1405 61.5188C32.7644 59.3021 35.3891 58.2266 38.001 58.2266V57.2266V56.2266C34.7989 56.2266 31.7332 57.5551 28.8498 59.991L29.4951 60.7549ZM32.4395 46.3125L33.1464 47.0198C33.4836 46.6828 34.0304 46.6829 34.3672 47.0197L35.0742 46.3125L35.7813 45.6053C34.6632 44.4875 32.8504 44.4879 31.7325 45.6052L32.4395 46.3125ZM35.0742 46.3125L34.367 47.0195C34.7038 47.3564 34.7039 47.9032 34.3669 48.2403L35.0742 48.9473L35.7815 49.6542C36.8988 48.5363 36.8991 46.7235 35.7814 45.6055L35.0742 46.3125ZM35.0742 48.9473L34.3674 48.2399L33.0529 49.5534L33.7598 50.2607L34.4666 50.9681L35.7811 49.6546L35.0742 48.9473ZM33.7598 50.2607L33.0527 50.9678L34.3671 52.2823L35.0742 51.5752L35.7813 50.8681L34.4669 49.5536L33.7598 50.2607ZM35.0742 51.5752L34.3671 52.2823C34.7038 52.6191 34.704 53.1658 34.3669 53.503L35.0742 54.21L35.7815 54.9169C36.8988 53.799 36.8994 51.9862 35.7814 50.8681L35.0742 51.5752ZM35.0742 54.21L34.3672 53.5027C34.0301 53.8398 33.4834 53.8397 33.1465 53.5028L32.4395 54.21L31.7324 54.9171C32.8505 56.0351 34.6632 56.0348 35.7812 54.9172L35.0742 54.21ZM32.4395 54.21L33.1466 53.5029L31.8321 52.1884L31.125 52.8955L30.4179 53.6026L31.7323 54.9171L32.4395 54.21ZM31.125 52.8955L30.4176 52.1887L29.1042 53.5031L29.8115 54.21L30.5189 54.9168L31.8324 53.6024L31.125 52.8955ZM29.8115 54.21L29.1044 53.5029C28.7676 53.8397 28.2209 53.8398 27.8838 53.5027L27.1768 54.21L26.4698 54.9172C27.5877 56.0348 29.4005 56.0352 30.5186 54.9171L29.8115 54.21ZM27.1768 54.21L27.8839 53.5029C27.5469 53.1658 27.5469 52.6192 27.8839 52.2823L27.1768 51.5752L26.4697 50.8681C25.3516 51.9862 25.3518 53.799 26.4696 54.917L27.1768 54.21ZM27.1768 51.5752L27.8841 52.282L29.1976 50.9676L28.4902 50.2607L27.7829 49.5539L26.4694 50.8684L27.1768 51.5752ZM28.4902 50.2607L29.1973 49.5536L27.8839 48.2402L27.1768 48.9473L26.4697 49.6544L27.7831 50.9678L28.4902 50.2607ZM27.1768 48.9473L27.8839 48.2402C27.547 47.9033 27.547 47.3566 27.884 47.0195L27.1768 46.3125L26.4695 45.6055C25.3519 46.7235 25.3517 48.5363 26.4696 49.6543L27.1768 48.9473ZM27.1768 46.3125L27.8837 47.0198C28.2209 46.6828 28.7677 46.6829 29.1045 47.0197L29.8115 46.3125L30.5186 45.6053C29.4005 44.4875 27.5877 44.4879 26.4698 45.6052L27.1768 46.3125ZM29.8115 46.3125L29.1044 47.0196L30.4179 48.3331L31.125 47.626L31.8321 46.9189L30.5186 45.6054L29.8115 46.3125ZM31.125 47.626L31.8318 48.3333L33.1463 47.0199L32.4395 46.3125L31.7326 45.6051L30.4182 46.9186L31.125 47.626ZM46.1875 46.3125L46.8945 47.0197C47.2315 46.6829 47.7783 46.6829 48.1153 47.0197L48.8223 46.3125L49.5292 45.6053C48.4113 44.4877 46.5985 44.4877 45.4805 45.6053L46.1875 46.3125ZM48.8223 46.3125L48.1151 47.0196C48.452 47.3564 48.4521 47.9031 48.115 48.2403L48.8223 48.9473L49.5295 49.6543C50.6471 48.5363 50.6475 46.7235 49.5294 45.6054L48.8223 46.3125ZM48.8223 48.9473L48.1154 48.2399L46.801 49.5534L47.5078 50.2607L48.2147 50.9681L49.5291 49.6546L48.8223 48.9473ZM47.5078 50.2607L46.8007 50.9678L48.1152 52.2823L48.8223 51.5752L49.5294 50.8681L48.2149 49.5536L47.5078 50.2607ZM48.8223 51.5752L48.1152 52.2823C48.4522 52.6193 48.4522 53.1658 48.1152 53.5029L48.8223 54.21L49.5294 54.9171C50.6474 53.799 50.6475 51.9862 49.5294 50.8681L48.8223 51.5752ZM48.8223 54.21L48.1153 53.5027C47.7781 53.8398 47.2314 53.8397 46.8946 53.5029L46.1875 54.21L45.4804 54.9171C46.5985 56.0352 48.4113 56.0347 49.5292 54.9172L48.8223 54.21ZM46.1875 54.21L46.8946 53.5029L45.5802 52.1884L44.873 52.8955L44.1659 53.6026L45.4804 54.9171L46.1875 54.21ZM44.873 52.8955L44.1657 52.1887L42.8522 53.5031L43.5596 54.21L44.2669 54.9168L45.5804 53.6024L44.873 52.8955ZM43.5596 54.21L42.8526 53.5027C42.5154 53.8398 41.9687 53.8397 41.6319 53.5028L40.9248 54.21L40.2177 54.9171C41.3358 56.0351 43.1486 56.0347 44.2665 54.9172L43.5596 54.21ZM40.9248 54.21L41.632 53.503C41.2952 53.166 41.2952 52.6192 41.632 52.2822L40.9248 51.5752L40.2176 50.8682C39.1 51.9862 39.1 53.799 40.2176 54.9169L40.9248 54.21ZM40.9248 51.5752L41.6322 52.282L42.9457 50.9676L42.2383 50.2607L41.5309 49.5539L40.2174 50.8684L40.9248 51.5752ZM42.2383 50.2607L42.9454 49.5536L41.6319 48.2402L40.9248 48.9473L40.2177 49.6544L41.5312 50.9678L42.2383 50.2607ZM40.9248 48.9473L41.632 48.2403C41.2952 47.9033 41.2952 47.3565 41.632 47.0195L40.9248 46.3125L40.2176 45.6055C39.1 46.7235 39.1 48.5363 40.2176 49.6542L40.9248 48.9473ZM40.9248 46.3125L41.6319 47.0196C41.9687 46.6828 42.5154 46.6827 42.8526 47.0197L43.5596 46.3125L44.2666 45.6053C43.1486 44.4877 41.3358 44.4873 40.2177 45.6054L40.9248 46.3125ZM43.5596 46.3125L42.8525 47.0196L44.1659 48.3331L44.873 47.626L45.5802 46.9189L44.2667 45.6054L43.5596 46.3125ZM44.873 47.626L45.5799 48.3333L46.8943 47.0199L46.1875 46.3125L45.4807 45.6051L44.1662 46.9186L44.873 47.626ZM20.4004 34.5195V33.5195C19.3629 33.5195 18.5205 34.3608 18.5195 35.3984L19.5195 35.3994L20.5195 35.4004C20.5195 35.4668 20.4665 35.5195 20.4004 35.5195V34.5195ZM19.5195 35.3994H18.5195V38.04H19.5195H20.5195V35.3994H19.5195ZM19.5195 38.04V39.04H56.4795V38.04V37.04H19.5195V38.04ZM56.4795 38.04H57.4795V35.3994H56.4795H55.4795V38.04H56.4795ZM56.4795 35.3994L57.4795 35.3984C57.4785 34.3623 56.6386 33.5195 55.5996 33.5195V34.5195V35.5195C55.5321 35.5195 55.4796 35.4653 55.4795 35.4004L56.4795 35.3994ZM55.5996 34.5195V33.5195H20.4004V34.5195V35.5195H55.5996V34.5195Z" fill="black" mask="url(#path-9-outside-1_2881_17185)"/>
<mask id="path-11-outside-2_2881_17185" maskUnits="userSpaceOnUse" x="15" y="29" width="46" height="43" fill="black">
<rect fill="white" x="15" y="29" width="46" height="43"/>
<path d="M55.5996 30C58.0294 30 59.9995 31.9698 60 34.3994V66.0791C60 68.5091 58.0296 70.4795 55.5996 70.4795H20.4004C17.9704 70.4795 16 68.5091 16 66.0791V34.3994C16.0005 31.9698 17.9706 30 20.4004 30H55.5996ZM19.5195 66.0791C19.5195 66.5651 19.9144 66.96 20.4004 66.96H55.5996C56.0856 66.96 56.4795 66.5651 56.4795 66.0791V40.5596H19.5195V66.0791ZM38.001 56.2266C40.9079 56.2266 43.7532 57.4286 46.5068 59.7549C47.2851 60.4125 47.3907 61.5867 46.7432 62.377C46.0955 63.167 44.9394 63.2746 44.1611 62.6172C42.0261 60.8135 39.9827 59.9503 38.001 59.9502C36.0192 59.9502 33.975 60.8134 31.8398 62.6172C31.0615 63.2745 29.9053 63.1671 29.2578 62.377C28.6102 61.5866 28.7168 60.4124 29.4951 59.7549C32.2488 57.4286 35.094 56.2266 38.001 56.2266ZM32.4395 45.3125C33.167 44.5853 34.3468 44.5852 35.0742 45.3125C35.8014 46.0399 35.8013 47.2198 35.0742 47.9473L33.7598 49.2607L35.0742 50.5752C35.8016 51.3026 35.8014 52.4824 35.0742 53.21C34.3467 53.9373 33.1669 53.9374 32.4395 53.21L31.125 51.8955L29.8115 53.21C29.084 53.9374 27.9043 53.9373 27.1768 53.21C26.4493 52.4824 26.4492 51.3027 27.1768 50.5752L28.4902 49.2607L27.1768 47.9473C26.4494 47.2198 26.4494 46.04 27.1768 45.3125C27.9043 44.5853 29.0841 44.5852 29.8115 45.3125L31.125 46.626L32.4395 45.3125ZM46.1875 45.3125C46.915 44.5853 48.0948 44.5853 48.8223 45.3125C49.5497 46.04 49.5496 47.2197 48.8223 47.9473L47.5078 49.2607L48.8223 50.5752C49.5498 51.3027 49.5498 52.4824 48.8223 53.21C48.0947 53.9373 46.915 53.9374 46.1875 53.21L44.873 51.8955L43.5596 53.21C42.832 53.9373 41.6523 53.9374 40.9248 53.21C40.1976 52.4825 40.1976 51.3027 40.9248 50.5752L42.2383 49.2607L40.9248 47.9473C40.1976 47.2198 40.1976 46.04 40.9248 45.3125C41.6523 44.585 42.832 44.5852 43.5596 45.3125L44.873 46.626L46.1875 45.3125ZM20.4004 33.5195C19.9147 33.5195 19.52 33.9138 19.5195 34.3994V37.04H56.4795V34.3994C56.479 33.9138 56.0853 33.5195 55.5996 33.5195H20.4004Z"/>
</mask>
<path d="M55.5996 30C58.0294 30 59.9995 31.9698 60 34.3994V66.0791C60 68.5091 58.0296 70.4795 55.5996 70.4795H20.4004C17.9704 70.4795 16 68.5091 16 66.0791V34.3994C16.0005 31.9698 17.9706 30 20.4004 30H55.5996ZM19.5195 66.0791C19.5195 66.5651 19.9144 66.96 20.4004 66.96H55.5996C56.0856 66.96 56.4795 66.5651 56.4795 66.0791V40.5596H19.5195V66.0791ZM38.001 56.2266C40.9079 56.2266 43.7532 57.4286 46.5068 59.7549C47.2851 60.4125 47.3907 61.5867 46.7432 62.377C46.0955 63.167 44.9394 63.2746 44.1611 62.6172C42.0261 60.8135 39.9827 59.9503 38.001 59.9502C36.0192 59.9502 33.975 60.8134 31.8398 62.6172C31.0615 63.2745 29.9053 63.1671 29.2578 62.377C28.6102 61.5866 28.7168 60.4124 29.4951 59.7549C32.2488 57.4286 35.094 56.2266 38.001 56.2266ZM32.4395 45.3125C33.167 44.5853 34.3468 44.5852 35.0742 45.3125C35.8014 46.0399 35.8013 47.2198 35.0742 47.9473L33.7598 49.2607L35.0742 50.5752C35.8016 51.3026 35.8014 52.4824 35.0742 53.21C34.3467 53.9373 33.1669 53.9374 32.4395 53.21L31.125 51.8955L29.8115 53.21C29.084 53.9374 27.9043 53.9373 27.1768 53.21C26.4493 52.4824 26.4492 51.3027 27.1768 50.5752L28.4902 49.2607L27.1768 47.9473C26.4494 47.2198 26.4494 46.04 27.1768 45.3125C27.9043 44.5853 29.0841 44.5852 29.8115 45.3125L31.125 46.626L32.4395 45.3125ZM46.1875 45.3125C46.915 44.5853 48.0948 44.5853 48.8223 45.3125C49.5497 46.04 49.5496 47.2197 48.8223 47.9473L47.5078 49.2607L48.8223 50.5752C49.5498 51.3027 49.5498 52.4824 48.8223 53.21C48.0947 53.9373 46.915 53.9374 46.1875 53.21L44.873 51.8955L43.5596 53.21C42.832 53.9373 41.6523 53.9374 40.9248 53.21C40.1976 52.4825 40.1976 51.3027 40.9248 50.5752L42.2383 49.2607L40.9248 47.9473C40.1976 47.2198 40.1976 46.04 40.9248 45.3125C41.6523 44.585 42.832 44.5852 43.5596 45.3125L44.873 46.626L46.1875 45.3125ZM20.4004 33.5195C19.9147 33.5195 19.52 33.9138 19.5195 34.3994V37.04H56.4795V34.3994C56.479 33.9138 56.0853 33.5195 55.5996 33.5195H20.4004Z" fill="#FFEFE8"/>
<path d="M60 34.3994H61V34.3992L60 34.3994ZM16 34.3994L15 34.3992V34.3994H16ZM56.4795 40.5596H57.4795V39.5596H56.4795V40.5596ZM19.5195 40.5596V39.5596H18.5195V40.5596H19.5195ZM38.001 56.2266L38.001 55.2266H38.001V56.2266ZM46.5068 59.7549L47.1523 58.9911L47.1522 58.991L46.5068 59.7549ZM46.7432 62.377L47.5165 63.0109L47.5167 63.0108L46.7432 62.377ZM44.1611 62.6172L44.8065 61.8533L44.8065 61.8533L44.1611 62.6172ZM38.001 59.9502L38.001 58.9502H38.001V59.9502ZM31.8398 62.6172L32.4851 63.3812L32.4852 63.3811L31.8398 62.6172ZM29.2578 62.377L28.4843 63.0108L28.4844 63.0108L29.2578 62.377ZM29.4951 59.7549L28.8498 58.991L28.8498 58.991L29.4951 59.7549ZM32.4395 45.3125L33.1463 46.0199L33.1464 46.0198L32.4395 45.3125ZM35.0742 45.3125L35.7814 44.6055L35.7813 44.6053L35.0742 45.3125ZM35.0742 47.9473L35.7811 48.6546L35.7815 48.6542L35.0742 47.9473ZM33.7598 49.2607L33.0529 48.5534L32.3453 49.2605L33.0527 49.9678L33.7598 49.2607ZM35.0742 50.5752L35.7814 49.8681L35.7813 49.8681L35.0742 50.5752ZM35.0742 53.21L35.7812 53.9172L35.7815 53.9169L35.0742 53.21ZM32.4395 53.21L31.7323 53.9171L31.7324 53.9171L32.4395 53.21ZM31.125 51.8955L31.8321 51.1884L31.1247 50.481L30.4176 51.1887L31.125 51.8955ZM29.8115 53.21L30.5186 53.9171L30.5189 53.9168L29.8115 53.21ZM27.1768 53.21L26.4696 53.917L26.4698 53.9172L27.1768 53.21ZM27.1768 50.5752L27.8839 51.2823L27.8841 51.282L27.1768 50.5752ZM28.4902 49.2607L29.1976 49.9676L29.9042 49.2605L29.1973 48.5536L28.4902 49.2607ZM27.1768 47.9473L26.4696 48.6543L26.4697 48.6544L27.1768 47.9473ZM27.1768 45.3125L26.4698 44.6052L26.4695 44.6055L27.1768 45.3125ZM29.8115 45.3125L30.5186 44.6054L30.5186 44.6053L29.8115 45.3125ZM31.125 46.626L30.4179 47.3331L31.1247 48.0399L31.8318 47.3333L31.125 46.626ZM46.1875 45.3125L46.8943 46.0199L46.8945 46.0197L46.1875 45.3125ZM48.8223 45.3125L49.5294 44.6054L49.5292 44.6053L48.8223 45.3125ZM48.8223 47.9473L49.5291 48.6546L49.5295 48.6543L48.8223 47.9473ZM47.5078 49.2607L46.801 48.5534L46.0933 49.2605L46.8007 49.9678L47.5078 49.2607ZM48.8223 50.5752L48.1152 51.2823L48.8223 50.5752ZM48.8223 53.21L49.5292 53.9172L49.5294 53.9171L48.8223 53.21ZM46.1875 53.21L45.4804 53.9171H45.4804L46.1875 53.21ZM44.873 51.8955L45.5802 51.1884L44.8728 50.481L44.1657 51.1887L44.873 51.8955ZM43.5596 53.21L44.2665 53.9172L44.2669 53.9168L43.5596 53.21ZM40.9248 53.21L40.2176 53.9169L40.2177 53.9171L40.9248 53.21ZM40.9248 50.5752L41.632 51.2822L41.6322 51.282L40.9248 50.5752ZM42.2383 49.2607L42.9457 49.9676L43.6522 49.2605L42.9454 48.5536L42.2383 49.2607ZM40.9248 47.9473L40.2176 48.6542L40.2177 48.6544L40.9248 47.9473ZM40.9248 45.3125L40.2177 44.6054L40.2176 44.6055L40.9248 45.3125ZM43.5596 45.3125L44.2667 44.6054L44.2666 44.6053L43.5596 45.3125ZM44.873 46.626L44.1659 47.3331L44.8728 48.0399L45.5799 47.3333L44.873 46.626ZM19.5195 34.3994L18.5195 34.3984V34.3994H19.5195ZM19.5195 37.04H18.5195V38.04H19.5195V37.04ZM56.4795 37.04V38.04H57.4795V37.04H56.4795ZM56.4795 34.3994H57.4795V34.3984L56.4795 34.3994ZM55.5996 30V31C57.4772 31 58.9996 32.5222 59 34.3996L60 34.3994L61 34.3992C60.9994 31.4174 58.5815 29 55.5996 29V30ZM60 34.3994H59V66.0791H60H61V34.3994H60ZM60 66.0791H59C59 67.9568 57.4774 69.4795 55.5996 69.4795V70.4795V71.4795C58.5819 71.4795 61 69.0614 61 66.0791H60ZM55.5996 70.4795V69.4795H20.4004V70.4795V71.4795H55.5996V70.4795ZM20.4004 70.4795V69.4795C18.5226 69.4795 17 67.9568 17 66.0791H16H15C15 69.0614 17.4181 71.4795 20.4004 71.4795V70.4795ZM16 66.0791H17V34.3994H16H15V66.0791H16ZM16 34.3994L17 34.3996C17.0004 32.5222 18.5228 31 20.4004 31V30V29C17.4185 29 15.0006 31.4174 15 34.3992L16 34.3994ZM20.4004 30V31H55.5996V30V29H20.4004V30ZM19.5195 66.0791H18.5195C18.5195 67.1174 19.3621 67.96 20.4004 67.96V66.96V65.96C20.4667 65.96 20.5195 66.0128 20.5195 66.0791H19.5195ZM20.4004 66.96V67.96H55.5996V66.96V65.96H20.4004V66.96ZM55.5996 66.96V67.96C56.6394 67.96 57.4795 67.1159 57.4795 66.0791H56.4795H55.4795C55.4795 66.0143 55.5319 65.96 55.5996 65.96V66.96ZM56.4795 66.0791H57.4795V40.5596H56.4795H55.4795V66.0791H56.4795ZM56.4795 40.5596V39.5596H19.5195V40.5596V41.5596H56.4795V40.5596ZM19.5195 40.5596H18.5195V66.0791H19.5195H20.5195V40.5596H19.5195ZM38.001 56.2266L38.001 57.2266C40.6129 57.2266 43.2376 58.3021 45.8615 60.5188L46.5068 59.7549L47.1522 58.991C44.2688 56.5551 41.203 55.2266 38.001 55.2266L38.001 56.2266ZM46.5068 59.7549L45.8614 60.5187C46.2201 60.8218 46.2727 61.3733 45.9697 61.7431L46.7432 62.377L47.5167 63.0108C48.5087 61.8001 48.35 60.0031 47.1523 58.9911L46.5068 59.7549ZM46.7432 62.377L45.9698 61.743C45.6742 62.1036 45.1562 62.1488 44.8065 61.8533L44.1611 62.6172L43.5158 63.3811C44.7225 64.4005 46.5169 64.2303 47.5165 63.0109L46.7432 62.377ZM44.1611 62.6172L44.8065 61.8533C42.5559 59.952 40.2919 58.9503 38.001 58.9502L38.001 59.9502L38.0009 60.9502C39.6735 60.9503 41.4963 61.675 43.5158 63.3811L44.1611 62.6172ZM38.001 59.9502V58.9502C35.7101 58.9502 33.4453 59.9518 31.1945 61.8533L31.8398 62.6172L32.4852 63.3811C34.5047 61.675 36.3283 60.9502 38.001 60.9502V59.9502ZM31.8398 62.6172L31.1946 61.8532C30.8445 62.1489 30.3266 62.1034 30.0313 61.7431L29.2578 62.377L28.4844 63.0108C29.4841 64.2308 31.2786 64.4001 32.4851 63.3812L31.8398 62.6172ZM29.2578 62.377L30.0313 61.7431C29.7287 61.3739 29.7811 60.8224 30.1405 60.5188L29.4951 59.7549L28.8498 58.991C27.6524 60.0025 27.4917 61.7994 28.4843 63.0108L29.2578 62.377ZM29.4951 59.7549L30.1405 60.5188C32.7644 58.3021 35.3891 57.2266 38.001 57.2266V56.2266V55.2266C34.7989 55.2266 31.7332 56.5551 28.8498 58.991L29.4951 59.7549ZM32.4395 45.3125L33.1464 46.0198C33.4836 45.6828 34.0304 45.6829 34.3672 46.0197L35.0742 45.3125L35.7813 44.6053C34.6632 43.4875 32.8504 43.4879 31.7325 44.6052L32.4395 45.3125ZM35.0742 45.3125L34.367 46.0195C34.7038 46.3564 34.7039 46.9032 34.3669 47.2403L35.0742 47.9473L35.7815 48.6542C36.8988 47.5363 36.8991 45.7235 35.7814 44.6055L35.0742 45.3125ZM35.0742 47.9473L34.3674 47.2399L33.0529 48.5534L33.7598 49.2607L34.4666 49.9681L35.7811 48.6546L35.0742 47.9473ZM33.7598 49.2607L33.0527 49.9678L34.3671 51.2823L35.0742 50.5752L35.7813 49.8681L34.4669 48.5536L33.7598 49.2607ZM35.0742 50.5752L34.3671 51.2823C34.7038 51.6191 34.704 52.1658 34.3669 52.503L35.0742 53.21L35.7815 53.9169C36.8988 52.799 36.8994 50.9862 35.7814 49.8681L35.0742 50.5752ZM35.0742 53.21L34.3672 52.5027C34.0301 52.8398 33.4834 52.8397 33.1465 52.5028L32.4395 53.21L31.7324 53.9171C32.8505 55.0351 34.6632 55.0348 35.7812 53.9172L35.0742 53.21ZM32.4395 53.21L33.1466 52.5029L31.8321 51.1884L31.125 51.8955L30.4179 52.6026L31.7323 53.9171L32.4395 53.21ZM31.125 51.8955L30.4176 51.1887L29.1042 52.5031L29.8115 53.21L30.5189 53.9168L31.8324 52.6024L31.125 51.8955ZM29.8115 53.21L29.1044 52.5029C28.7676 52.8397 28.2209 52.8398 27.8838 52.5027L27.1768 53.21L26.4698 53.9172C27.5877 55.0348 29.4005 55.0352 30.5186 53.9171L29.8115 53.21ZM27.1768 53.21L27.8839 52.5029C27.5469 52.1658 27.5469 51.6192 27.8839 51.2823L27.1768 50.5752L26.4697 49.8681C25.3516 50.9862 25.3518 52.799 26.4696 53.917L27.1768 53.21ZM27.1768 50.5752L27.8841 51.282L29.1976 49.9676L28.4902 49.2607L27.7829 48.5539L26.4694 49.8684L27.1768 50.5752ZM28.4902 49.2607L29.1973 48.5536L27.8839 47.2402L27.1768 47.9473L26.4697 48.6544L27.7831 49.9678L28.4902 49.2607ZM27.1768 47.9473L27.8839 47.2402C27.547 46.9033 27.547 46.3566 27.884 46.0195L27.1768 45.3125L26.4695 44.6055C25.3519 45.7235 25.3517 47.5363 26.4696 48.6543L27.1768 47.9473ZM27.1768 45.3125L27.8837 46.0198C28.2209 45.6828 28.7677 45.6829 29.1045 46.0197L29.8115 45.3125L30.5186 44.6053C29.4005 43.4875 27.5877 43.4879 26.4698 44.6052L27.1768 45.3125ZM29.8115 45.3125L29.1044 46.0196L30.4179 47.3331L31.125 46.626L31.8321 45.9189L30.5186 44.6054L29.8115 45.3125ZM31.125 46.626L31.8318 47.3333L33.1463 46.0199L32.4395 45.3125L31.7326 44.6051L30.4182 45.9186L31.125 46.626ZM46.1875 45.3125L46.8945 46.0197C47.2315 45.6829 47.7783 45.6829 48.1153 46.0197L48.8223 45.3125L49.5292 44.6053C48.4113 43.4877 46.5985 43.4877 45.4805 44.6053L46.1875 45.3125ZM48.8223 45.3125L48.1151 46.0196C48.452 46.3564 48.4521 46.9031 48.115 47.2403L48.8223 47.9473L49.5295 48.6543C50.6471 47.5363 50.6475 45.7235 49.5294 44.6054L48.8223 45.3125ZM48.8223 47.9473L48.1154 47.2399L46.801 48.5534L47.5078 49.2607L48.2147 49.9681L49.5291 48.6546L48.8223 47.9473ZM47.5078 49.2607L46.8007 49.9678L48.1152 51.2823L48.8223 50.5752L49.5294 49.8681L48.2149 48.5536L47.5078 49.2607ZM48.8223 50.5752L48.1152 51.2823C48.4522 51.6193 48.4522 52.1658 48.1152 52.5029L48.8223 53.21L49.5294 53.9171C50.6474 52.799 50.6475 50.9862 49.5294 49.8681L48.8223 50.5752ZM48.8223 53.21L48.1153 52.5027C47.7781 52.8398 47.2314 52.8397 46.8946 52.5029L46.1875 53.21L45.4804 53.9171C46.5985 55.0352 48.4113 55.0347 49.5292 53.9172L48.8223 53.21ZM46.1875 53.21L46.8946 52.5029L45.5802 51.1884L44.873 51.8955L44.1659 52.6026L45.4804 53.9171L46.1875 53.21ZM44.873 51.8955L44.1657 51.1887L42.8522 52.5031L43.5596 53.21L44.2669 53.9168L45.5804 52.6024L44.873 51.8955ZM43.5596 53.21L42.8526 52.5027C42.5154 52.8398 41.9687 52.8397 41.6319 52.5028L40.9248 53.21L40.2177 53.9171C41.3358 55.0351 43.1486 55.0347 44.2665 53.9172L43.5596 53.21ZM40.9248 53.21L41.632 52.503C41.2952 52.166 41.2952 51.6192 41.632 51.2822L40.9248 50.5752L40.2176 49.8682C39.1 50.9862 39.1 52.799 40.2176 53.9169L40.9248 53.21ZM40.9248 50.5752L41.6322 51.282L42.9457 49.9676L42.2383 49.2607L41.5309 48.5539L40.2174 49.8684L40.9248 50.5752ZM42.2383 49.2607L42.9454 48.5536L41.6319 47.2402L40.9248 47.9473L40.2177 48.6544L41.5312 49.9678L42.2383 49.2607ZM40.9248 47.9473L41.632 47.2403C41.2952 46.9033 41.2952 46.3565 41.632 46.0195L40.9248 45.3125L40.2176 44.6055C39.1 45.7235 39.1 47.5363 40.2176 48.6542L40.9248 47.9473ZM40.9248 45.3125L41.6319 46.0196C41.9687 45.6828 42.5154 45.6827 42.8526 46.0197L43.5596 45.3125L44.2666 44.6053C43.1486 43.4877 41.3358 43.4873 40.2177 44.6054L40.9248 45.3125ZM43.5596 45.3125L42.8525 46.0196L44.1659 47.3331L44.873 46.626L45.5802 45.9189L44.2667 44.6054L43.5596 45.3125ZM44.873 46.626L45.5799 47.3333L46.8943 46.0199L46.1875 45.3125L45.4807 44.6051L44.1662 45.9186L44.873 46.626ZM20.4004 33.5195V32.5195C19.3629 32.5195 18.5205 33.3608 18.5195 34.3984L19.5195 34.3994L20.5195 34.4004C20.5195 34.4668 20.4665 34.5195 20.4004 34.5195V33.5195ZM19.5195 34.3994H18.5195V37.04H19.5195H20.5195V34.3994H19.5195ZM19.5195 37.04V38.04H56.4795V37.04V36.04H19.5195V37.04ZM56.4795 37.04H57.4795V34.3994H56.4795H55.4795V37.04H56.4795ZM56.4795 34.3994L57.4795 34.3984C57.4785 33.3623 56.6386 32.5195 55.5996 32.5195V33.5195V34.5195C55.5321 34.5195 55.4796 34.4653 55.4795 34.4004L56.4795 34.3994ZM55.5996 33.5195V32.5195H20.4004V33.5195V34.5195H55.5996V33.5195Z" fill="black" mask="url(#path-11-outside-2_2881_17185)"/>
<path d="M89.9932 62C91.1832 62.0001 92.28 62.5437 93 63.4912L93.332 63.9287L93.874 63.8525C95.1691 63.675 96.4078 64.1566 97.2412 65.1123C97.958 65.9323 98.2844 67.0238 98.1377 68.1055L98.0635 68.6484L98.502 68.9795C99.4519 69.6987 99.9983 70.7959 100 71.9883C100.001 73.1807 99.457 74.2785 98.5078 75.001L98.0723 75.3311L98.1475 75.875C98.2974 76.9583 97.9717 78.0507 97.2559 78.874C96.4242 79.8288 95.1896 80.3167 93.8955 80.1377L93.3516 80.0645L93.0205 80.502C92.2996 81.4543 91.2018 82 90.0068 82C88.8168 82.0008 87.72 81.4571 87 80.5088L86.668 80.0723L86.125 80.1484C84.8283 80.3259 83.5904 79.8435 82.7578 78.8887C82.0411 78.0678 81.7148 76.9754 81.8623 75.8945L81.9365 75.3525L81.499 75.0215C80.5473 74.3023 80.0017 73.2052 80 72.0127C79.9984 70.8202 80.542 69.7217 81.4912 69L81.9277 68.668L81.8525 68.125C81.7026 67.0426 82.0276 65.9493 82.7441 65.126C83.5751 64.1718 84.8185 63.684 86.1045 63.8623L86.6494 63.9365L86.9795 63.499C87.6996 62.5466 88.7981 62 89.9932 62ZM93.8672 68.8604C93.5122 68.5655 92.9884 68.6136 92.6934 68.9668L89.1104 73.2656L87.2559 71.4111C86.93 71.0853 86.403 71.0853 86.0772 71.4111C85.7514 71.7362 85.7513 72.264 86.0772 72.5898L88.5781 75.0898C88.734 75.2463 88.9463 75.334 89.167 75.334C89.1785 75.334 89.1917 75.333 89.2041 75.333C89.4381 75.3222 89.6558 75.214 89.8066 75.0342L93.9746 70.0332C94.2684 69.6799 94.2196 69.1544 93.8672 68.8604Z" fill="#F6D7CA"/>
</svg>
