<svg width="120" height="100" viewBox="0 0 120 100" fill="none" xmlns="http://www.w3.org/2000/svg">
<path d="M0 19.2C0 12.4794 0 9.11905 1.30792 6.55211C2.4584 4.29417 4.29417 2.4584 6.55211 1.30792C9.11905 0 12.4794 0 19.2 0H100.8C107.521 0 110.881 0 113.448 1.30792C115.706 2.4584 117.542 4.29417 118.692 6.55211C120 9.11905 120 12.4794 120 19.2V80.8C120 87.5206 120 90.8809 118.692 93.4479C117.542 95.7058 115.706 97.5416 113.448 98.6921C110.881 100 107.521 100 100.8 100H19.2C12.4794 100 9.11905 100 6.55211 98.6921C4.29417 97.5416 2.4584 95.7058 1.30792 93.4479C0 90.8809 0 87.5206 0 80.8V19.2Z" fill="#96A5F1"/>
<rect x="6" y="64" width="108" height="30" rx="6" fill="#B2C3FF"/>
<rect x="57" y="82" width="6" height="6" rx="3" fill="black"/>
<rect x="27" y="12" width="64" height="64" rx="14" fill="black"/>
<rect x="26.5" y="8.5" width="65" height="65" rx="12.5" fill="white" stroke="black"/>
<path fill-rule="evenodd" clip-rule="evenodd" d="M77.9687 29.4909L79.0934 26.7334C79.0934 26.7334 77.662 25.2015 75.9238 23.4654C74.1857 21.7292 70.505 22.7505 70.505 22.7505L66.313 18H58.9515H51.59L47.3981 22.7505C47.3981 22.7505 43.7173 21.7292 41.9792 23.4654C40.2411 25.2015 38.8097 26.7334 38.8097 26.7334L39.9343 29.4909L38.5029 33.576C38.5029 33.576 42.7128 49.5033 43.2061 51.4483C44.1774 55.2781 44.842 56.759 47.6025 58.6994C50.3631 60.6398 55.373 64.01 56.191 64.5207C57.0089 65.0313 58.0313 65.9011 58.9515 65.9011C59.8717 65.9011 60.8941 65.0313 61.7121 64.5207C62.53 64.01 67.5399 60.6398 70.3005 58.6994C73.061 56.759 73.7256 55.2781 74.6969 51.4483C75.1901 49.5033 79.4001 33.576 79.4001 33.576L77.9687 29.4909Z" fill="url(#paint0_linear_2881_17219)"/>
<path d="M64.1665 26.6313C64.78 26.6313 69.3298 25.7632 69.3298 25.7632C69.3298 25.7632 74.7217 32.2738 74.7217 33.6653C74.7217 34.8158 74.258 35.2661 73.712 35.7965C73.5976 35.9075 73.4796 36.0221 73.3614 36.1474L69.3186 40.4357C69.2785 40.4782 69.2339 40.523 69.1867 40.5704C68.7831 40.9757 68.1889 41.5725 68.6082 42.5637C68.6362 42.63 68.665 42.6973 68.6943 42.7656C69.154 43.8396 69.7215 45.1652 68.9992 46.5087C68.2307 47.9377 66.9143 48.8914 66.0708 48.7338C65.2273 48.576 63.2464 47.5419 62.5179 47.0696C61.7894 46.5972 59.4805 44.6952 59.4805 43.9675C59.4805 43.3605 61.141 42.3508 61.9478 41.8602C62.1082 41.7626 62.2349 41.6855 62.3081 41.6363C62.3914 41.5802 62.5306 41.4938 62.7021 41.3874C63.4385 40.9304 64.768 40.1053 64.8015 39.7395C64.8426 39.2884 64.8269 39.1561 64.2334 38.0417C64.1072 37.8047 63.9595 37.5509 63.8069 37.2886C63.2417 36.3172 62.6089 35.2296 62.7489 34.4505C62.9071 33.571 64.2867 33.0667 65.4554 32.6396C65.6014 32.5862 65.7442 32.534 65.8808 32.4825C66.2219 32.3538 66.6505 32.1935 67.0982 32.026C68.2649 31.5894 69.5613 31.1044 69.7751 31.0059C70.0711 30.8696 69.9946 30.7398 69.0982 30.6549C68.9796 30.6437 68.8322 30.628 68.663 30.6101C67.5534 30.4923 65.5069 30.2751 64.512 30.5521C64.3163 30.6065 64.097 30.6659 63.867 30.7281C62.7492 31.0305 61.3793 31.401 61.2477 31.6146C61.2247 31.652 61.2021 31.6841 61.1807 31.7144C61.0548 31.8932 60.9727 32.0098 61.112 32.7694C61.1535 32.9956 61.2388 33.4405 61.3442 33.9906C61.653 35.6014 62.1346 38.1141 62.1953 38.6786C62.2038 38.7576 62.2131 38.8338 62.2221 38.9071C62.2994 39.5369 62.3508 39.9559 61.6186 40.1232C61.5577 40.1371 61.4936 40.1518 61.4271 40.167C60.6009 40.3564 59.3898 40.634 58.9522 40.634C58.5143 40.634 57.3022 40.3561 56.4761 40.1668C56.41 40.1516 56.3463 40.137 56.2857 40.1232C55.5534 39.9559 55.6048 39.5369 55.6821 38.9071C55.6911 38.8338 55.7004 38.7576 55.7089 38.6786C55.7697 38.1133 56.2526 35.5945 56.5613 33.9839C56.6662 33.4369 56.7509 32.9946 56.7923 32.7694C56.9315 32.0098 56.8494 31.8932 56.7236 31.7145C56.7022 31.6841 56.6796 31.652 56.6566 31.6146C56.525 31.401 55.1553 31.0305 54.0375 30.7282C53.8074 30.6659 53.5879 30.6066 53.3922 30.5521C52.3973 30.2751 50.3511 30.4923 49.2414 30.61C49.0721 30.628 48.9246 30.6437 48.806 30.6549C47.9097 30.7398 47.8332 30.8696 48.1291 31.0059C48.3429 31.1044 49.6387 31.5892 50.8052 32.0256C51.2532 32.1932 51.6822 32.3537 52.0235 32.4825C52.1602 32.5341 52.303 32.5863 52.4491 32.6397C53.6177 33.0668 54.9972 33.571 55.1554 34.4505C55.2954 35.2295 54.6627 36.3169 54.0976 37.2881C53.9449 37.5506 53.7971 37.8046 53.6709 38.0417C53.0774 39.1561 53.0616 39.2884 53.1028 39.7395C53.1362 40.1052 54.4653 40.9301 55.2017 41.3871C55.3734 41.4937 55.5128 41.5802 55.5961 41.6363C55.6692 41.6855 55.7958 41.7625 55.9561 41.8599C56.7628 42.3505 58.4237 43.3604 58.4237 43.9675C58.4237 44.6952 56.1149 46.5972 55.3864 47.0696C54.658 47.5419 52.677 48.576 51.8335 48.7338C50.99 48.8914 49.6736 47.9377 48.9052 46.5087C48.1828 45.1653 48.7502 43.8398 49.2098 42.7659C49.2391 42.6975 49.268 42.63 49.296 42.5637C49.7154 41.5724 49.121 40.9756 48.7174 40.5703C48.6703 40.5229 48.6257 40.4781 48.5856 40.4357L44.5428 36.1474C44.4247 36.0222 44.3067 35.9076 44.1923 35.7965C43.6463 35.2662 43.1826 34.8159 43.1826 33.6653C43.1826 32.2738 48.5745 25.7632 48.5745 25.7632C48.5745 25.7632 53.1243 26.6313 53.7378 26.6313C54.2273 26.6313 55.1725 26.3061 56.1579 25.9672C56.4073 25.8814 56.6594 25.7947 56.9073 25.7121C58.1342 25.3036 58.9522 25.3007 58.9522 25.3007C58.9522 25.3007 59.7701 25.3036 60.997 25.7121C61.2449 25.7947 61.497 25.8814 61.7464 25.9672C62.7318 26.3061 63.677 26.6313 64.1665 26.6313Z" fill="white"/>
<path d="M63.3855 49.6601C64.3474 50.1552 65.0297 50.5064 65.2877 50.6677C65.6214 50.8764 65.4179 51.2699 65.1139 51.4846C64.8098 51.6993 60.7241 54.8595 60.3276 55.2088C60.2769 55.2535 60.2231 55.3019 60.167 55.3524C59.785 55.6963 59.2976 56.1351 58.9521 56.1351C58.6065 56.1351 58.1188 55.696 57.7368 55.352C57.6809 55.3016 57.6273 55.2534 57.5767 55.2088C57.1801 54.8595 53.0944 51.6993 52.7904 51.4846C52.4863 51.2699 52.2828 50.8764 52.6166 50.6677C52.8747 50.5063 53.5577 50.1548 54.5205 49.6592C54.8027 49.514 55.1089 49.3563 55.4355 49.1875C56.8762 48.4428 58.6719 47.8096 58.9521 47.8096C59.2324 47.8096 61.028 48.4428 62.4689 49.1875C62.7961 49.3567 63.1029 49.5146 63.3855 49.6601Z" fill="white"/>
<defs>
<linearGradient id="paint0_linear_2881_17219" x1="38.5029" y1="66.2391" x2="79.4001" y2="66.2391" gradientUnits="userSpaceOnUse">
<stop stop-color="#FF5601"/>
<stop offset="0.5" stop-color="#FF4000"/>
<stop offset="1" stop-color="#FF1F01"/>
</linearGradient>
</defs>
</svg>
