<svg width="120" height="100" viewBox="0 0 120 100" fill="none" xmlns="http://www.w3.org/2000/svg">
<path d="M0 19.2C0 12.4794 0 9.11905 1.30792 6.55211C2.4584 4.29417 4.29417 2.4584 6.55211 1.30792C9.11905 0 12.4794 0 19.2 0H100.8C107.521 0 110.881 0 113.448 1.30792C115.706 2.4584 117.542 4.29417 118.692 6.55211C120 9.11905 120 12.4794 120 19.2V80.8C120 87.5206 120 90.8809 118.692 93.4479C117.542 95.7058 115.706 97.5416 113.448 98.6921C110.881 100 107.521 100 100.8 100H19.2C12.4794 100 9.11905 100 6.55211 98.6921C4.29417 97.5416 2.4584 95.7058 1.30792 93.4479C0 90.8809 0 87.5206 0 80.8V19.2Z" fill="#F98354"/>
<path d="M60 87C80.9868 87 98 69.9868 98 49C98 28.0132 80.9868 11 60 11C39.0132 11 22 28.0132 22 49C22 69.9868 39.0132 87 60 87Z" fill="#F6D7CA"/>
<path d="M59.3133 17.6658C59.4758 16.3662 59.5571 15.7165 59.6806 15.6004C59.8603 15.4314 60.1396 15.4314 60.3193 15.6004C60.4428 15.7165 60.5241 16.3662 60.6866 17.6658L62.7533 34.1908C62.8189 34.7153 62.8517 34.9776 62.9459 35.0858C63.0825 35.243 63.3059 35.2907 63.4943 35.203C63.624 35.1427 63.7601 34.9165 64.0322 34.4641L72.6052 20.213C73.2795 19.0922 73.6166 18.5318 73.7764 18.4763C74.0089 18.3954 74.264 18.5096 74.3599 18.7375C74.4257 18.8941 74.2371 19.5209 73.8598 20.7746L69.0629 36.7161C68.9106 37.2221 68.8345 37.4751 68.8767 37.6125C68.938 37.8119 69.1227 37.9468 69.3303 37.9438C69.4732 37.9417 69.689 37.7907 70.1206 37.4888L83.7176 27.9756C84.7869 27.2275 85.3216 26.8534 85.4901 26.868C85.7352 26.8892 85.9221 27.0979 85.9174 27.3452C85.9143 27.5152 85.4884 28.0107 84.6366 29.0017L73.8054 41.6033C73.4616 42.0033 73.2897 42.2033 73.2727 42.346C73.248 42.5533 73.3621 42.7521 73.553 42.8342C73.6844 42.8908 73.9427 42.8411 74.4591 42.7417L90.729 39.6115C92.0085 39.3653 92.6483 39.2422 92.7963 39.3245C93.0117 39.4441 93.0979 39.7111 92.9937 39.9352C92.922 40.0892 92.3325 40.3677 91.1534 40.9247L76.1608 48.0075C75.6849 48.2323 75.4469 48.3447 75.3737 48.4681C75.2673 48.6473 75.2911 48.8757 75.4323 49.0287C75.5295 49.1341 75.7855 49.1944 76.2975 49.3148L92.4271 53.1087C93.6956 53.407 94.3298 53.5562 94.4317 53.6919C94.5801 53.8893 94.5509 54.1685 94.365 54.3305C94.2372 54.4419 93.586 54.4552 92.2835 54.4819L75.7218 54.8212C75.1961 54.8319 74.9333 54.8373 74.8164 54.9201C74.6467 55.0403 74.5761 55.2587 74.6432 55.4562C74.6893 55.5923 74.8988 55.752 75.3178 56.0713L88.5182 66.1334C89.5563 66.9247 90.0754 67.3204 90.1136 67.486C90.1693 67.727 90.0297 67.9701 89.7943 68.0421C89.6325 68.0916 89.0322 67.8375 87.8315 67.3292L72.5644 60.8663C72.0798 60.6611 71.8375 60.5585 71.6973 60.5864C71.4936 60.6268 71.3408 60.7974 71.3221 61.0053C71.3092 61.1485 71.436 61.38 71.6896 61.8432L79.6782 76.4335C80.3065 77.581 80.6206 78.1547 80.5886 78.3216C80.5419 78.5645 80.316 78.7295 80.0718 78.6991C79.904 78.6781 79.4584 78.2005 78.5672 77.2451L67.2345 65.0975C66.8748 64.712 66.6949 64.5192 66.5555 64.4872C66.3531 64.4409 66.1445 64.5342 66.0433 64.7165C65.9737 64.842 65.9958 65.1054 66.0401 65.6322L67.4357 82.2281C67.5455 83.5333 67.6004 84.1859 67.5036 84.3252C67.3627 84.5281 67.0896 84.5865 66.8788 84.4588C66.734 84.371 66.5201 83.7524 66.0924 82.5152L60.6537 66.7834C60.481 66.284 60.3947 66.0343 60.2803 65.9481C60.1141 65.823 59.8858 65.823 59.7196 65.9481C59.6052 66.0343 59.5189 66.284 59.3462 66.7834L53.9075 82.5152C53.4798 83.7524 53.2659 84.371 53.1211 84.4588C52.9103 84.5865 52.6372 84.5281 52.4964 84.3252C52.3995 84.1859 52.4544 83.5333 52.5642 82.2281L53.9598 65.6322C54.0041 65.1054 54.0262 64.842 53.9566 64.7165C53.8554 64.5342 53.6468 64.4409 53.4444 64.4872C53.305 64.5192 53.1251 64.712 52.7654 65.0975L41.4327 77.2451C40.5415 78.2005 40.0959 78.6781 39.9281 78.6991C39.6839 78.7295 39.458 78.5645 39.4113 78.3216C39.3793 78.1547 39.6934 77.581 40.3217 76.4335L48.3103 61.8432C48.5639 61.38 48.6907 61.1485 48.6778 61.0053C48.6591 60.7974 48.5063 60.6268 48.3027 60.5864C48.1624 60.5585 47.9201 60.6611 47.4355 60.8663L32.1684 67.3292C30.9677 67.8375 30.3674 68.0916 30.2056 68.0421C29.9702 67.9701 29.8306 67.727 29.8863 67.486C29.9245 67.3204 30.4436 66.9247 31.4817 66.1334L44.6821 56.0713C45.1011 55.752 45.3106 55.5923 45.3568 55.4562C45.4238 55.2587 45.3532 55.0403 45.1835 54.9201C45.0666 54.8373 44.8038 54.8319 44.2781 54.8212L27.7164 54.4819C26.4139 54.4552 25.7627 54.4419 25.6349 54.3305C25.449 54.1685 25.4198 53.8893 25.5682 53.6919C25.6701 53.5562 26.3044 53.407 27.5728 53.1087L43.7025 49.3148C44.2144 49.1944 44.4704 49.1341 44.5676 49.0287C44.7088 48.8757 44.7326 48.6473 44.6262 48.4681C44.553 48.3447 44.315 48.2323 43.8391 48.0075L28.8465 40.9247C27.6674 40.3677 27.0779 40.0892 27.0062 39.9352C26.902 39.7111 26.9882 39.4441 27.2036 39.3245C27.3516 39.2422 27.9914 39.3653 29.2709 39.6115L45.5408 42.7417C46.0572 42.8411 46.3155 42.8908 46.4469 42.8342C46.6378 42.7521 46.7519 42.5533 46.7272 42.346C46.7102 42.2033 46.5383 42.0033 46.1945 41.6033L35.3633 29.0017C34.5115 28.0107 34.0856 27.5152 34.0825 27.3452C34.0779 27.0979 34.2647 26.8892 34.5098 26.868C34.6783 26.8534 35.213 27.2275 36.2823 27.9756L49.8793 37.4888C50.3109 37.7907 50.5267 37.9417 50.6696 37.9438C50.8772 37.9468 51.0619 37.8119 51.1232 37.6125C51.1654 37.4751 51.0893 37.2221 50.937 36.7161L46.1401 20.7746C45.7628 19.5209 45.5742 18.8941 45.6401 18.7375C45.7359 18.5096 45.991 18.3954 46.2235 18.4763C46.3833 18.5318 46.7205 19.0922 47.3947 20.213L55.9677 34.4641C56.2398 34.9165 56.3759 35.1427 56.5056 35.203C56.6941 35.2907 56.9174 35.243 57.0541 35.0858C57.1482 34.9776 57.181 34.7153 57.2466 34.1908L59.3133 17.6658Z" fill="#FFEFE8"/>
<path d="M60 10C82.6435 10.0001 101 28.3564 101 51C101 73.6435 82.6435 91.9999 60 92C37.3564 92 19.0001 73.6435 19 51C19 28.3564 37.3564 10 60 10ZM94.5273 79.0527C98.1025 79.0529 101.001 81.9512 101.001 85.5264C101.001 89.1015 98.1024 91.9998 94.5273 92C90.9521 92 88.0538 89.1016 88.0537 85.5264C88.0537 81.9511 90.952 79.0527 94.5273 79.0527ZM60 16.4736C40.9317 16.4736 25.4736 31.9317 25.4736 51C25.4737 70.0682 40.9318 85.5264 60 85.5264C79.0682 85.5263 94.5263 70.0682 94.5264 51C94.5264 31.9318 79.0682 16.4737 60 16.4736Z" fill="black"/>
<mask id="path-5-inside-1_2881_17182" fill="white">
<path d="M60 8C82.6435 8.00007 101 26.3564 101 49C101 71.6435 82.6435 89.9999 60 90C37.3564 90 19.0001 71.6435 19 49C19 26.3564 37.3564 8 60 8ZM94.5273 77.0527C98.1025 77.0529 101.001 79.9512 101.001 83.5264C101.001 87.1015 98.1024 89.9998 94.5273 90C90.9521 90 88.0538 87.1016 88.0537 83.5264C88.0537 79.9511 90.952 77.0527 94.5273 77.0527ZM60 14.4736C40.9317 14.4736 25.4736 29.9317 25.4736 49C25.4737 68.0682 40.9318 83.5264 60 83.5264C79.0682 83.5263 94.5263 68.0682 94.5264 49C94.5264 29.9318 79.0682 14.4737 60 14.4736Z"/>
</mask>
<path d="M60 8C82.6435 8.00007 101 26.3564 101 49C101 71.6435 82.6435 89.9999 60 90C37.3564 90 19.0001 71.6435 19 49C19 26.3564 37.3564 8 60 8ZM94.5273 77.0527C98.1025 77.0529 101.001 79.9512 101.001 83.5264C101.001 87.1015 98.1024 89.9998 94.5273 90C90.9521 90 88.0538 87.1016 88.0537 83.5264C88.0537 79.9511 90.952 77.0527 94.5273 77.0527ZM60 14.4736C40.9317 14.4736 25.4736 29.9317 25.4736 49C25.4737 68.0682 40.9318 83.5264 60 83.5264C79.0682 83.5263 94.5263 68.0682 94.5264 49C94.5264 29.9318 79.0682 14.4737 60 14.4736Z" fill="#FFB597"/>
<path d="M60 8L60 7H60V8ZM101 49L102 49V49H101ZM60 90V91H60L60 90ZM19 49H18V49L19 49ZM94.5273 77.0527L94.5274 76.0527H94.5273V77.0527ZM101.001 83.5264L102.001 83.5264V83.5264H101.001ZM94.5273 90V91H94.5274L94.5273 90ZM88.0537 83.5264H87.0537V83.5264L88.0537 83.5264ZM60 14.4736L60 13.4736H60V14.4736ZM25.4736 49H24.4736V49L25.4736 49ZM60 83.5264V84.5264H60L60 83.5264ZM94.5264 49L95.5264 49V49H94.5264ZM60 8L60 9C82.0913 9.00007 100 26.9087 100 49H101H102C102 25.8042 83.1958 7.00008 60 7L60 8ZM101 49L100 49C99.9999 71.0912 82.0912 88.9999 60 89L60 90L60 91C83.1958 90.9999 102 72.1958 102 49L101 49ZM60 90V89C37.9087 89 20.0001 71.0913 20 49L19 49L18 49C18.0001 72.1958 36.8042 91 60 91V90ZM19 49H20C20 26.9087 37.9087 9 60 9V8V7C36.8041 7 18 25.8041 18 49H19ZM94.5273 77.0527L94.5273 78.0527C97.5502 78.0529 100.001 80.5035 100.001 83.5264H101.001H102.001C102.001 79.3988 98.6547 76.053 94.5274 76.0527L94.5273 77.0527ZM101.001 83.5264L100.001 83.5263C100.001 86.5491 97.5502 88.9998 94.5273 89L94.5273 90L94.5274 91C98.6547 90.9998 102.001 87.6538 102.001 83.5264L101.001 83.5264ZM94.5273 90V89C91.5044 89 89.0538 86.5493 89.0537 83.5263L88.0537 83.5264L87.0537 83.5264C87.0538 87.6539 90.3998 91 94.5273 91V90ZM88.0537 83.5264H89.0537C89.0537 80.5033 91.5043 78.0527 94.5273 78.0527V77.0527V76.0527C90.3998 76.0527 87.0537 79.3988 87.0537 83.5264H88.0537ZM60 14.4736V13.4736C40.3794 13.4736 24.4736 29.3794 24.4736 49H25.4736H26.4736C26.4736 30.484 41.484 15.4736 60 15.4736V14.4736ZM25.4736 49L24.4736 49C24.4737 68.6205 40.3795 84.5264 60 84.5264V83.5264V82.5264C41.484 82.5264 26.4737 67.5159 26.4736 49L25.4736 49ZM60 83.5264L60 84.5264C79.6205 84.5263 95.5263 68.6205 95.5264 49L94.5264 49L93.5264 49C93.5263 67.5159 78.5159 82.5263 60 82.5264L60 83.5264ZM94.5264 49H95.5264C95.5264 29.3795 79.6205 13.4737 60 13.4736L60 14.4736L60 15.4736C78.5159 15.4737 93.5264 30.484 93.5264 49H94.5264Z" fill="black" mask="url(#path-5-inside-1_2881_17182)"/>
<path fill-rule="evenodd" clip-rule="evenodd" d="M81.6792 35.8848L82.9645 32.5529C82.9645 32.5529 81.3286 30.7019 79.3422 28.604C77.3558 26.5061 73.1492 27.7401 73.1492 27.7401L68.3584 22H59.9452H51.5321L46.7413 27.7401C46.7413 27.7401 42.5347 26.5061 40.5483 28.604C38.5619 30.7019 36.926 32.5529 36.926 32.5529L38.2113 35.8848L36.5754 40.821C36.5754 40.821 41.3867 60.0665 41.9505 62.4167C43.0606 67.0444 43.8201 68.8338 46.975 71.1784C50.1299 73.5231 55.8555 77.5955 56.7903 78.2125C57.7251 78.8295 58.8936 79.8805 59.9452 79.8805C60.9969 79.8805 62.1654 78.8295 63.1002 78.2125C64.035 77.5955 69.7606 73.5231 72.9155 71.1784C76.0704 68.8338 76.8299 67.0444 77.94 62.4167C78.5037 60.0665 83.3151 40.821 83.3151 40.821L81.6792 35.8848Z" fill="url(#paint0_linear_2881_17182)"/>
<path d="M65.9047 32.4295C66.6058 32.4295 71.8056 31.3806 71.8056 31.3806C71.8056 31.3806 77.9677 39.2476 77.9677 40.929C77.9677 42.3191 77.4378 42.8633 76.8138 43.5041C76.683 43.6383 76.5482 43.7768 76.4132 43.9282L71.7927 49.1098C71.7469 49.1612 71.696 49.2153 71.642 49.2726C71.1808 49.7623 70.5017 50.4835 70.9809 51.6812C71.0129 51.7612 71.0459 51.8426 71.0793 51.9252C71.6047 53.2228 72.2533 54.8247 71.4277 56.448C70.5495 58.1747 69.045 59.3272 68.081 59.1366C67.117 58.946 64.8531 57.6965 64.0205 57.1258C63.188 56.555 60.5493 54.2567 60.5493 53.3774C60.5493 52.644 62.447 51.4239 63.369 50.8311C63.5524 50.7131 63.6972 50.62 63.7808 50.5605C63.8759 50.4928 64.0351 50.3884 64.231 50.2598C65.0726 49.7076 66.5922 48.7106 66.6304 48.2685C66.6773 47.7235 66.6594 47.5637 65.9811 46.2171C65.8369 45.9307 65.6681 45.624 65.4937 45.307C64.8478 44.1333 64.1245 42.8191 64.2846 41.8777C64.4653 40.815 66.0421 40.2057 67.3777 39.6895C67.5446 39.625 67.7077 39.562 67.8639 39.4997C68.2537 39.3442 68.7435 39.1505 69.2551 38.9481C70.5886 38.4206 72.0702 37.8345 72.3145 37.7155C72.6528 37.5508 72.5654 37.3939 71.5409 37.2914C71.4054 37.2778 71.2369 37.2589 71.0435 37.2372C69.7754 37.0949 67.4366 36.8324 66.2996 37.1671C66.0759 37.2329 65.8252 37.3046 65.5623 37.3798C64.2849 37.7452 62.7193 38.1929 62.5689 38.451C62.5426 38.4962 62.5167 38.535 62.4923 38.5716C62.3484 38.7876 62.2546 38.9285 62.4139 39.8463C62.4612 40.1197 62.5587 40.6573 62.6792 41.322C63.0321 43.2684 63.5825 46.3045 63.6519 46.9866C63.6616 47.0821 63.6723 47.1742 63.6826 47.2628C63.7708 48.0238 63.8296 48.5301 62.9928 48.7322C62.9232 48.749 62.85 48.7667 62.7739 48.7852C61.8298 49.014 60.4456 49.3494 59.9454 49.3494C59.4451 49.3494 58.0598 49.0137 57.1157 48.7849C57.0401 48.7665 56.9673 48.7489 56.898 48.7322C56.0611 48.5301 56.1199 48.0238 56.2082 47.2628C56.2185 47.1742 56.2291 47.0821 56.2389 46.9866C56.3084 46.3036 56.8602 43.26 57.213 41.314C57.3329 40.6529 57.4298 40.1185 57.477 39.8463C57.6361 38.9286 57.5423 38.7877 57.3985 38.5717C57.3741 38.535 57.3482 38.4962 57.3219 38.451C57.1715 38.1929 55.6061 37.7452 54.3286 37.3799C54.0657 37.3047 53.8149 37.233 53.5912 37.1671C52.4542 36.8324 50.1156 37.0948 48.8474 37.2372C48.6539 37.2589 48.4854 37.2778 48.3498 37.2914C47.3255 37.3939 47.2381 37.5508 47.5763 37.7155C47.8206 37.8345 49.3014 38.4203 50.6346 38.9477C51.1466 39.1502 51.6369 39.3441 52.0269 39.4997C52.1832 39.562 52.3464 39.6251 52.5134 39.6896C53.8489 40.2057 55.4255 40.815 55.6062 41.8777C55.7663 42.819 55.0432 44.133 54.3974 45.3065C54.2229 45.6237 54.054 45.9306 53.9097 46.2171C53.2314 47.5637 53.2134 47.7235 53.2605 48.2685C53.2986 48.7105 54.8176 49.7072 55.6592 50.2595C55.8554 50.3882 56.0147 50.4928 56.11 50.5605C56.1935 50.62 56.3382 50.713 56.5214 50.8308C57.4433 51.4235 59.3414 52.6439 59.3414 53.3774C59.3414 54.2567 56.7029 56.555 55.8703 57.1258C55.0378 57.6965 52.7738 58.946 51.8098 59.1366C50.8458 59.3272 49.3414 58.1747 48.4631 56.448C47.6376 54.8248 48.286 53.2231 48.8113 51.9255C48.8448 51.8428 48.8778 51.7613 48.9098 51.6812C49.3891 50.4834 48.7099 49.7622 48.2486 49.2724C48.1947 49.2152 48.1437 49.1611 48.098 49.1098L43.4775 43.9282C43.3426 43.7768 43.2077 43.6384 43.0771 43.5042C42.453 42.8633 41.9231 42.3192 41.9231 40.929C41.9231 39.2476 48.0852 31.3806 48.0852 31.3806C48.0852 31.3806 53.285 32.4295 53.9861 32.4295C54.5456 32.4295 55.6258 32.0366 56.7519 31.627C57.0371 31.5233 57.3251 31.4186 57.6084 31.3189C59.0106 30.8252 59.9454 30.8217 59.9454 30.8217C59.9454 30.8217 60.8802 30.8252 62.2824 31.3189C62.5657 31.4186 62.8538 31.5233 63.1389 31.627C64.265 32.0366 65.3453 32.4295 65.9047 32.4295Z" fill="white"/>
<path d="M65.0122 60.256C66.1114 60.8542 66.8912 61.2786 67.1861 61.4735C67.5675 61.7257 67.3348 62.2012 66.9874 62.4606C66.6399 62.72 61.9705 66.5386 61.5174 66.9606C61.4594 67.0146 61.3979 67.0732 61.3338 67.1341C60.8972 67.5498 60.3403 68.0799 59.9454 68.0799C59.5504 68.0799 58.9931 67.5493 58.5564 67.1336C58.4925 67.0728 58.4312 67.0145 58.3734 66.9606C57.9202 66.5386 53.2509 62.72 52.9034 62.4606C52.5559 62.2012 52.3233 61.7257 52.7047 61.4735C52.9998 61.2785 53.7804 60.8537 54.8807 60.2549C55.2032 60.0794 55.5531 59.8889 55.9264 59.685C57.5729 58.7851 59.6251 58.02 59.9454 58.02C60.2657 58.02 62.3178 58.7851 63.9645 59.685C64.3385 59.8894 64.6891 60.0802 65.0122 60.256Z" fill="white"/>
<defs>
<linearGradient id="paint0_linear_2881_17182" x1="36.5754" y1="80.2889" x2="83.3151" y2="80.2889" gradientUnits="userSpaceOnUse">
<stop stop-color="#FF5601"/>
<stop offset="0.5" stop-color="#FF4000"/>
<stop offset="1" stop-color="#FF1F01"/>
</linearGradient>
</defs>
</svg>
