<?xml version="1.0" encoding="UTF-8"?>
<!--Generator: Apple Native CoreSVG 175.5-->
<!DOCTYPE svg
PUBLIC "-//W3C//DTD SVG 1.1//EN"
       "http://www.w3.org/Graphics/SVG/1.1/DTD/svg11.dtd">
<svg version="1.1" xmlns="http://www.w3.org/2000/svg" xmlns:xlink="http://www.w3.org/1999/xlink" width="3300" height="2200">
 <!--glyph: "", point size: 100.0, font version: "18.0d12e2", template writer version: "101"-->
 <g id="Notes">
  <rect height="2200" id="artboard" style="fill:white;opacity:1" width="3300" x="0" y="0"/>
  <line style="fill:none;stroke:black;opacity:1;stroke-width:0.5;" x1="263" x2="3036" y1="292" y2="292"/>
  <text style="stroke:none;fill:black;font-family:sans-serif;font-size:13;font-weight:bold;" transform="matrix(1 0 0 1 263 322)">Weight/Scale Variations</text>
  <text style="stroke:none;fill:black;font-family:sans-serif;font-size:13;text-anchor:middle;" transform="matrix(1 0 0 1 559.711 322)">Ultralight</text>
  <text style="stroke:none;fill:black;font-family:sans-serif;font-size:13;text-anchor:middle;" transform="matrix(1 0 0 1 856.422 322)">Thin</text>
  <text style="stroke:none;fill:black;font-family:sans-serif;font-size:13;text-anchor:middle;" transform="matrix(1 0 0 1 1153.13 322)">Light</text>
  <text style="stroke:none;fill:black;font-family:sans-serif;font-size:13;text-anchor:middle;" transform="matrix(1 0 0 1 1449.84 322)">Regular</text>
  <text style="stroke:none;fill:black;font-family:sans-serif;font-size:13;text-anchor:middle;" transform="matrix(1 0 0 1 1746.56 322)">Medium</text>
  <text style="stroke:none;fill:black;font-family:sans-serif;font-size:13;text-anchor:middle;" transform="matrix(1 0 0 1 2043.27 322)">Semibold</text>
  <text style="stroke:none;fill:black;font-family:sans-serif;font-size:13;text-anchor:middle;" transform="matrix(1 0 0 1 2339.98 322)">Bold</text>
  <text style="stroke:none;fill:black;font-family:sans-serif;font-size:13;text-anchor:middle;" transform="matrix(1 0 0 1 2636.69 322)">Heavy</text>
  <text style="stroke:none;fill:black;font-family:sans-serif;font-size:13;text-anchor:middle;" transform="matrix(1 0 0 1 2933.4 322)">Black</text>
  <line style="fill:none;stroke:black;opacity:1;stroke-width:0.5;" x1="263" x2="3036" y1="1903" y2="1903"/>
  <g transform="matrix(1 0 0 1 263 1933)">
   <path d="M9.24805 0.830078C13.5547 0.830078 17.1387-2.74414 17.1387-7.05078C17.1387-11.3574 13.5449-14.9316 9.23828-14.9316C4.94141-14.9316 1.36719-11.3574 1.36719-7.05078C1.36719-2.74414 4.95117 0.830078 9.24805 0.830078ZM9.24805-0.654297C5.70312-0.654297 2.87109-3.49609 2.87109-7.05078C2.87109-10.6055 5.69336-13.4473 9.23828-13.4473C12.793-13.4473 15.6445-10.6055 15.6445-7.05078C15.6445-3.49609 12.8027-0.654297 9.24805-0.654297ZM5.6543-7.05078C5.6543-6.62109 5.95703-6.32812 6.40625-6.32812L8.50586-6.32812L8.50586-4.20898C8.50586-3.76953 8.79883-3.4668 9.22852-3.4668C9.67773-3.4668 9.9707-3.76953 9.9707-4.20898L9.9707-6.32812L12.0898-6.32812C12.5293-6.32812 12.832-6.62109 12.832-7.05078C12.832-7.49023 12.5293-7.79297 12.0898-7.79297L9.9707-7.79297L9.9707-9.90234C9.9707-10.3516 9.67773-10.6543 9.22852-10.6543C8.79883-10.6543 8.50586-10.3516 8.50586-9.90234L8.50586-7.79297L6.40625-7.79297C5.95703-7.79297 5.6543-7.49023 5.6543-7.05078Z"/>
  </g>
  <g transform="matrix(1 0 0 1 281.867 1933)">
   <path d="M11.709 2.91016C17.1582 2.91016 21.6699-1.61133 21.6699-7.05078C21.6699-12.5 17.1484-17.0117 11.6992-17.0117C6.25977-17.0117 1.74805-12.5 1.74805-7.05078C1.74805-1.61133 6.26953 2.91016 11.709 2.91016ZM11.709 1.25C7.09961 1.25 3.41797-2.44141 3.41797-7.05078C3.41797-11.6602 7.08984-15.3516 11.6992-15.3516C16.3086-15.3516 20.0098-11.6602 20.0098-7.05078C20.0098-2.44141 16.3184 1.25 11.709 1.25ZM7.17773-7.05078C7.17773-6.57227 7.50977-6.25 8.00781-6.25L10.8789-6.25L10.8789-3.36914C10.8789-2.88086 11.2109-2.53906 11.6895-2.53906C12.1777-2.53906 12.5195-2.87109 12.5195-3.36914L12.5195-6.25L15.4004-6.25C15.8887-6.25 16.2305-6.57227 16.2305-7.05078C16.2305-7.53906 15.8887-7.88086 15.4004-7.88086L12.5195-7.88086L12.5195-10.752C12.5195-11.25 12.1777-11.5918 11.6895-11.5918C11.2109-11.5918 10.8789-11.25 10.8789-10.752L10.8789-7.88086L8.00781-7.88086C7.50977-7.88086 7.17773-7.53906 7.17773-7.05078Z"/>
  </g>
  <g transform="matrix(1 0 0 1 305.646 1933)">
   <path d="M14.9707 5.66406C21.9336 5.66406 27.6953-0.0976562 27.6953-7.05078C27.6953-14.0137 21.9238-19.7754 14.9609-19.7754C8.00781-19.7754 2.25586-14.0137 2.25586-7.05078C2.25586-0.0976562 8.01758 5.66406 14.9707 5.66406ZM14.9707 3.84766C8.93555 3.84766 4.08203-1.01562 4.08203-7.05078C4.08203-13.0957 8.92578-17.9492 14.9609-17.9492C21.0059-17.9492 25.8691-13.0957 25.8691-7.05078C25.8691-1.01562 21.0156 3.84766 14.9707 3.84766ZM9.19922-7.05078C9.19922-6.5332 9.57031-6.17188 10.1172-6.17188L14.0625-6.17188L14.0625-2.2168C14.0625-1.67969 14.4336-1.29883 14.9512-1.29883C15.4883-1.29883 15.8594-1.66992 15.8594-2.2168L15.8594-6.17188L19.8145-6.17188C20.3516-6.17188 20.7324-6.5332 20.7324-7.05078C20.7324-7.59766 20.3613-7.96875 19.8145-7.96875L15.8594-7.96875L15.8594-11.9141C15.8594-12.4609 15.4883-12.8418 14.9512-12.8418C14.4336-12.8418 14.0625-12.4609 14.0625-11.9141L14.0625-7.96875L10.1172-7.96875C9.57031-7.96875 9.19922-7.59766 9.19922-7.05078Z"/>
  </g>
  <text style="stroke:none;fill:black;font-family:sans-serif;font-size:13;font-weight:bold;" transform="matrix(1 0 0 1 263 1953)">Design Variations</text>
  <text style="stroke:none;fill:black;font-family:sans-serif;font-size:13;" transform="matrix(1 0 0 1 263 1971)">Symbols are supported in up to nine weights and three scales.</text>
  <text style="stroke:none;fill:black;font-family:sans-serif;font-size:13;" transform="matrix(1 0 0 1 263 1989)">For optimal layout with text and other symbols, vertically align</text>
  <text style="stroke:none;fill:black;font-family:sans-serif;font-size:13;" transform="matrix(1 0 0 1 263 2007)">symbols with the adjacent text.</text>
  <line style="fill:none;stroke:#00AEEF;stroke-width:0.5;opacity:1.0;" x1="776" x2="776" y1="1919" y2="1933"/>
  <g transform="matrix(1 0 0 1 776 1933)">
   <path d="M3.31055 0.15625C3.82812 0.15625 4.08203-0.0390625 4.26758-0.585938L5.52734-4.0332L11.2891-4.0332L12.5488-0.585938C12.7344-0.0390625 12.9883 0.15625 13.4961 0.15625C14.0137 0.15625 14.3457-0.15625 14.3457-0.644531C14.3457-0.810547 14.3164-0.966797 14.2383-1.17188L9.6582-13.3691C9.43359-13.9648 9.0332-14.2676 8.4082-14.2676C7.80273-14.2676 7.39258-13.9746 7.17773-13.3789L2.59766-1.16211C2.51953-0.957031 2.49023-0.800781 2.49023-0.634766C2.49023-0.146484 2.80273 0.15625 3.31055 0.15625ZM6.00586-5.51758L8.37891-12.0898L8.42773-12.0898L10.8008-5.51758Z"/>
  </g>
  <line style="fill:none;stroke:#00AEEF;stroke-width:0.5;opacity:1.0;" x1="793.197" x2="793.197" y1="1919" y2="1933"/>
  <text style="stroke:none;fill:black;font-family:sans-serif;font-size:13;font-weight:bold;" transform="matrix(1 0 0 1 776 1953)">Margins</text>
  <text style="stroke:none;fill:black;font-family:sans-serif;font-size:13;" transform="matrix(1 0 0 1 776 1971)">Leading and trailing margins on the left and right side of each symbol</text>
  <text style="stroke:none;fill:black;font-family:sans-serif;font-size:13;" transform="matrix(1 0 0 1 776 1989)">can be adjusted by modifying the x-location of the margin guidelines.</text>
  <text style="stroke:none;fill:black;font-family:sans-serif;font-size:13;" transform="matrix(1 0 0 1 776 2007)">Modifications are automatically applied proportionally to all</text>
  <text style="stroke:none;fill:black;font-family:sans-serif;font-size:13;" transform="matrix(1 0 0 1 776 2025)">scales and weights.</text>
  <g transform="matrix(1 0 0 1 1289 1933)">
   <path d="M2.8418 1.86523L4.54102 3.57422C5.40039 4.44336 6.38672 4.38477 7.31445 3.35938L18.0078-8.42773L17.041-9.4043L6.42578 2.27539C6.07422 2.67578 5.74219 2.77344 5.27344 2.30469L4.10156 1.14258C3.63281 0.683594 3.74023 0.341797 4.14062-0.0195312L15.6152-10.8203L14.6387-11.7871L3.04688-0.898438C2.06055 0.0195312 1.98242 0.996094 2.8418 1.86523ZM9.25781-16.3281C8.83789-15.918 8.80859-15.3418 9.04297-14.9512C9.27734-14.5898 9.73633-14.3555 10.3809-14.5215C11.8457-14.8633 13.3691-14.9219 14.7949-13.9844L14.209-12.5293C13.8672-11.6992 14.043-11.1133 14.5801-10.5664L16.875-8.25195C17.3633-7.76367 17.7734-7.74414 18.3398-7.8418L19.4043-8.03711L20.0684-7.36328L20.0293-6.80664C19.9902-6.30859 20.1172-5.92773 20.6055-5.44922L21.3672-4.70703C21.8457-4.22852 22.4609-4.19922 22.9297-4.66797L25.8398-7.58789C26.3086-8.05664 26.2891-8.65234 25.8105-9.13086L25.0391-9.89258C24.5605-10.3711 24.1895-10.5273 23.7109-10.4883L23.1348-10.4395L22.4902-11.0742L22.7344-12.1973C22.8613-12.7637 22.7051-13.2031 22.1191-13.7891L19.9219-15.9766C16.582-19.2969 12.1484-19.2188 9.25781-16.3281ZM10.752-15.957C13.1836-17.7344 16.4746-17.4316 18.7012-15.2051L21.1328-12.793C21.3672-12.5586 21.4062-12.373 21.3379-12.0312L21.0156-10.5469L22.5195-9.0625L23.5059-9.12109C23.7598-9.13086 23.8379-9.11133 24.0332-8.91602L24.6094-8.33984L22.168-5.89844L21.5918-6.47461C21.3965-6.66992 21.3672-6.74805 21.377-7.01172L21.4453-7.98828L19.9512-9.47266L18.4277-9.21875C18.1055-9.15039 17.959-9.17969 17.7148-9.41406L15.7129-11.416C15.459-11.6504 15.4297-11.8164 15.5859-12.1875L16.4648-14.2773C14.9023-15.7324 12.8711-16.3574 10.8398-15.7617C10.6836-15.7227 10.625-15.8496 10.752-15.957Z"/>
  </g>
  <text style="stroke:none;fill:black;font-family:sans-serif;font-size:13;font-weight:bold;" transform="matrix(1 0 0 1 1289 1953)">Exporting</text>
  <text style="stroke:none;fill:black;font-family:sans-serif;font-size:13;" transform="matrix(1 0 0 1 1289 1971)">Symbols should be outlined when exporting to ensure the</text>
  <text style="stroke:none;fill:black;font-family:sans-serif;font-size:13;" transform="matrix(1 0 0 1 1289 1989)">design is preserved when submitting to Xcode.</text>
  <text id="template-version" style="stroke:none;fill:black;font-family:sans-serif;font-size:13;text-anchor:end;" transform="matrix(1 0 0 1 3036 1933)">Template v.2.0</text>
  <text style="stroke:none;fill:black;font-family:sans-serif;font-size:13;text-anchor:end;" transform="matrix(1 0 0 1 3036 1951)">Requires Xcode 12 or greater</text>
  <text id="descriptive-name" style="stroke:none;fill:black;font-family:sans-serif;font-size:13;text-anchor:end;" transform="matrix(1 0 0 1 3036 1969)">Generated from brave.building.2</text>
  <text style="stroke:none;fill:black;font-family:sans-serif;font-size:13;text-anchor:end;" transform="matrix(1 0 0 1 3036 1987)">Typeset at 100 points</text>
  <text style="stroke:none;fill:black;font-family:sans-serif;font-size:13;" transform="matrix(1 0 0 1 263 726)">Small</text>
  <text style="stroke:none;fill:black;font-family:sans-serif;font-size:13;" transform="matrix(1 0 0 1 263 1156)">Medium</text>
  <text style="stroke:none;fill:black;font-family:sans-serif;font-size:13;" transform="matrix(1 0 0 1 263 1586)">Large</text>
 </g>
 <g id="Guides">
  <g id="H-reference" style="fill:#27AAE1;stroke:none;" transform="matrix(1 0 0 1 339 696)">
   <path d="M0.993654 0L3.63775 0L29.3281-67.1323L30.0303-67.1323L30.0303-70.459L28.1226-70.459ZM11.6885-24.4799L46.9815-24.4799L46.2315-26.7285L12.4385-26.7285ZM55.1196 0L57.7637 0L30.6382-70.459L29.4326-70.459L29.4326-67.1323Z"/>
  </g>
  <line id="Baseline-S" style="fill:none;stroke:#27AAE1;opacity:1;stroke-width:0.5;" x1="263" x2="3036" y1="696" y2="696"/>
  <line id="Capline-S" style="fill:none;stroke:#27AAE1;opacity:1;stroke-width:0.5;" x1="263" x2="3036" y1="625.541" y2="625.541"/>
  <g id="H-reference" style="fill:#27AAE1;stroke:none;" transform="matrix(1 0 0 1 339 1126)">
   <path d="M0.993654 0L3.63775 0L29.3281-67.1323L30.0303-67.1323L30.0303-70.459L28.1226-70.459ZM11.6885-24.4799L46.9815-24.4799L46.2315-26.7285L12.4385-26.7285ZM55.1196 0L57.7637 0L30.6382-70.459L29.4326-70.459L29.4326-67.1323Z"/>
  </g>
  <line id="Baseline-M" style="fill:none;stroke:#27AAE1;opacity:1;stroke-width:0.5;" x1="263" x2="3036" y1="1126" y2="1126"/>
  <line id="Capline-M" style="fill:none;stroke:#27AAE1;opacity:1;stroke-width:0.5;" x1="263" x2="3036" y1="1055.54" y2="1055.54"/>
  <g id="H-reference" style="fill:#27AAE1;stroke:none;" transform="matrix(1 0 0 1 339 1556)">
   <path d="M0.993654 0L3.63775 0L29.3281-67.1323L30.0303-67.1323L30.0303-70.459L28.1226-70.459ZM11.6885-24.4799L46.9815-24.4799L46.2315-26.7285L12.4385-26.7285ZM55.1196 0L57.7637 0L30.6382-70.459L29.4326-70.459L29.4326-67.1323Z"/>
  </g>
  <line id="Baseline-L" style="fill:none;stroke:#27AAE1;opacity:1;stroke-width:0.5;" x1="263" x2="3036" y1="1556" y2="1556"/>
  <line id="Capline-L" style="fill:none;stroke:#27AAE1;opacity:1;stroke-width:0.5;" x1="263" x2="3036" y1="1485.54" y2="1485.54"/>
  <line id="left-margin" style="fill:none;stroke:#00AEEF;stroke-width:0.5;opacity:1.0;" x1="1385.98" x2="1385.98" y1="1030.79" y2="1150.12"/>
  <line id="right-margin" style="fill:none;stroke:#00AEEF;stroke-width:0.5;opacity:1.0;" x1="1513.71" x2="1513.71" y1="1030.79" y2="1150.12"/>
 </g>
 <g id="Symbols">
  <g id="Regular-L" transform="matrix(1 0 0 1 1370.98 1556)">
   <path d="M12.02-97.3546C12.02-100.375 14.4688-102.824 17.4894-102.824L99.53-102.824C102.551-102.824 105-100.375 105-97.3546C105-94.4487 102.734-92.0721 99.8721-91.8956L99.8721-72.0586L140.55-72.0586C143.571-72.0586 146.02-69.6099 146.02-66.5892C146.02-63.6833 143.754-61.3067 140.892-61.1303L140.892 25.7071C140.892 28.7279 138.444 31.176 135.423 31.176L22.617 31.176C19.5963 31.176 17.1475 28.7279 17.1475 25.7071L17.1475-91.8956C14.2861-92.0721 12.02-94.4487 12.02-97.3546ZM28.0864-91.8851L28.0864 20.2375L37.6577 20.2375L37.6577 2.6331C37.6577-4.63573 43.55-10.5279 50.8185-10.5279L66.2011-10.5279C73.4696-10.5279 79.3619-4.63573 79.3619 2.6331L79.3619 20.2375L88.9336 20.2375L88.9336-91.8851L28.0864-91.8851ZM99.8721-61.1198L99.8721 20.2375L129.954 20.2375L129.954-61.1198L99.8721-61.1198ZM68.423 20.2375L68.423 2.6331C68.423 1.40577 67.4283 0.410612 66.2011 0.410612L50.8185 0.410612C49.5913 0.410612 48.5965 1.40577 48.5965 2.6331L48.5965 20.2375L68.423 20.2375ZM37.6577-71.7167C37.6577-74.7374 40.1065-77.1862 43.1271-77.1862L48.2547-77.1862C51.2753-77.1862 53.7241-74.7374 53.7241-71.7167C53.7241-68.6961 51.2753-66.2473 48.2547-66.2473L43.1271-66.2473C40.1065-66.2473 37.6577-68.6961 37.6577-71.7167ZM63.2955-71.7167C63.2955-74.7374 65.7442-77.1862 68.7649-77.1862L73.8924-77.1862C76.9131-77.1862 79.3619-74.7374 79.3619-71.7167C79.3619-68.6961 76.9131-66.2473 73.8924-66.2473L68.7649-66.2473C65.7442-66.2473 63.2955-68.6961 63.2955-71.7167ZM37.6577-51.2065C37.6577-54.2272 40.1065-56.6759 43.1271-56.6759L48.2547-56.6759C51.2753-56.6759 53.7241-54.2272 53.7241-51.2065C53.7241-48.1858 51.2753-45.7371 48.2547-45.7371L43.1271-45.7371C40.1065-45.7371 37.6577-48.1858 37.6577-51.2065ZM63.2955-51.2065C63.2955-54.2272 65.7442-56.6759 68.7649-56.6759L73.8924-56.6759C76.9131-56.6759 79.3619-54.2272 79.3619-51.2065C79.3619-48.1858 76.9131-45.7371 73.8924-45.7371L68.7649-45.7371C65.7442-45.7371 63.2955-48.1858 63.2955-51.2065ZM109.444-40.9514C109.444-43.972 111.892-46.4208 114.913-46.4208L114.964-46.4208C117.985-46.4208 120.433-43.972 120.433-40.9514L120.433-40.9001C120.433-37.8794 117.985-35.4307 114.964-35.4307L114.913-35.4307C111.892-35.4307 109.444-37.8794 109.444-40.9001L109.444-40.9514ZM37.6577-30.6961C37.6577-33.7168 40.1065-36.1657 43.1271-36.1657L48.2547-36.1657C51.2753-36.1657 53.7241-33.7168 53.7241-30.6961C53.7241-27.6753 51.2753-25.2272 48.2547-25.2272L43.1271-25.2272C40.1065-25.2272 37.6577-27.6753 37.6577-30.6961ZM63.2955-30.6961C63.2955-33.7168 65.7442-36.1657 68.7649-36.1657L73.8924-36.1657C76.9131-36.1657 79.3619-33.7168 79.3619-30.6961C79.3619-27.6753 76.9131-25.2272 73.8924-25.2272L68.7649-25.2272C65.7442-25.2272 63.2955-27.6753 63.2955-30.6961ZM109.444-20.4409C109.444-23.4617 111.892-25.9106 114.913-25.9106L114.964-25.9106C117.985-25.9106 120.433-23.4617 120.433-20.4409L120.433-20.3901C120.433-17.3693 117.985-14.9204 114.964-14.9204L114.913-14.9204C111.892-14.9204 109.444-17.3693 109.444-20.3901L109.444-20.4409ZM109.444 0.069322C109.444-2.95143 111.892-5.40035 114.913-5.40035L114.964-5.40035C117.985-5.40035 120.433-2.95143 120.433 0.069322L120.433 0.120187C120.433 3.14094 117.985 5.58986 114.964 5.58986L114.913 5.58986C111.892 5.58986 109.444 3.14094 109.444 0.120187L109.444 0.069322Z"/>
  </g>
  <g id="Regular-M" transform="matrix(1 0 0 1 1385.98 1126)">
   <path d="M12.02-83.0025C12.02-85.3469 13.9205-87.2474 16.2649-87.2474L79.9382-87.2474C82.2826-87.2474 84.1833-85.3469 84.1833-83.0025C84.1833-80.7471 82.4246-78.9027 80.2037-78.7657L80.2037-63.3698L111.775-63.3698C114.119-63.3698 116.02-61.4693 116.02-59.1249C116.02-56.8695 114.261-55.025 112.04-54.8881L112.04 12.5081C112.04 14.8526 110.14 16.7526 107.795 16.7526L20.2445 16.7526C17.9001 16.7526 15.9996 14.8526 15.9996 12.5081L15.9996-78.7657C13.7788-78.9027 12.02-80.7471 12.02-83.0025ZM24.4894-78.7575L24.4894 8.26299L31.9179 8.26299L31.9179-5.4001C31.9179-11.0416 36.491-15.6146 42.1322-15.6146L54.071-15.6146C59.7122-15.6146 64.2854-11.0416 64.2854-5.4001L64.2854 8.26299L71.7141 8.26299L71.7141-78.7575L24.4894-78.7575ZM80.2037-54.8799L80.2037 8.26299L103.551 8.26299L103.551-54.8799L80.2037-54.8799ZM55.7955 8.26299L55.7955-5.4001C55.7955-6.35265 55.0234-7.12501 54.071-7.12501L42.1322-7.12501C41.1798-7.12501 40.4078-6.35265 40.4078-5.4001L40.4078 8.26299L55.7955 8.26299ZM31.9179-63.1045C31.9179-65.4489 33.8185-67.3494 36.1629-67.3494L40.1424-67.3494C42.4868-67.3494 44.3874-65.4489 44.3874-63.1045C44.3874-60.7601 42.4868-58.8595 40.1424-58.8595L36.1629-58.8595C33.8185-58.8595 31.9179-60.7601 31.9179-63.1045ZM51.8159-63.1045C51.8159-65.4489 53.7164-67.3494 56.0608-67.3494L60.0404-67.3494C62.3848-67.3494 64.2854-65.4489 64.2854-63.1045C64.2854-60.7601 62.3848-58.8595 60.0404-58.8595L56.0608-58.8595C53.7164-58.8595 51.8159-60.7601 51.8159-63.1045ZM31.9179-47.186C31.9179-49.5304 33.8185-51.431 36.1629-51.431L40.1424-51.431C42.4868-51.431 44.3874-49.5304 44.3874-47.186C44.3874-44.8416 42.4868-42.9411 40.1424-42.9411L36.1629-42.9411C33.8185-42.9411 31.9179-44.8416 31.9179-47.186ZM51.8159-47.186C51.8159-49.5304 53.7164-51.431 56.0608-51.431L60.0404-51.431C62.3848-51.431 64.2854-49.5304 64.2854-47.186C64.2854-44.8416 62.3848-42.9411 60.0404-42.9411L56.0608-42.9411C53.7164-42.9411 51.8159-44.8416 51.8159-47.186ZM87.6325-39.2268C87.6325-41.5712 89.5325-43.4718 91.877-43.4718L91.9171-43.4718C94.2615-43.4718 96.1615-41.5712 96.1615-39.2268L96.1615-39.187C96.1615-36.8426 94.2615-34.9421 91.9171-34.9421L91.877-34.9421C89.5325-34.9421 87.6325-36.8426 87.6325-39.187L87.6325-39.2268ZM31.9179-31.2675C31.9179-33.612 33.8185-35.5126 36.1629-35.5126L40.1424-35.5126C42.4868-35.5126 44.3874-33.612 44.3874-31.2675C44.3874-28.923 42.4868-27.023 40.1424-27.023L36.1629-27.023C33.8185-27.023 31.9179-28.923 31.9179-31.2675ZM51.8159-31.2675C51.8159-33.612 53.7164-35.5126 56.0608-35.5126L60.0404-35.5126C62.3848-35.5126 64.2854-33.612 64.2854-31.2675C64.2854-28.923 62.3848-27.023 60.0404-27.023L56.0608-27.023C53.7164-27.023 51.8159-28.923 51.8159-31.2675ZM87.6325-23.3083C87.6325-25.6528 89.5325-27.5534 91.877-27.5534L91.9171-27.5534C94.2615-27.5534 96.1615-25.6528 96.1615-23.3083L96.1615-23.2688C96.1615-20.9244 94.2615-19.0237 91.9171-19.0237L91.877-19.0237C89.5325-19.0237 87.6325-20.9244 87.6325-23.2688L87.6325-23.3083ZM87.6325-7.3899C87.6325-9.73436 89.5325-11.635 91.877-11.635L91.9171-11.635C94.2615-11.635 96.1615-9.73436 96.1615-7.3899L96.1615-7.35042C96.1615-5.00596 94.2615-3.1053 91.9171-3.1053L91.877-3.1053C89.5325-3.1053 87.6325-5.00596 87.6325-7.35042L87.6325-7.3899Z"/>
  </g>
  <g id="Regular-S" transform="matrix(1 0 0 1 1397.48 696)">
   <path d="M12.02-72.6939C12.02-74.5198 13.5002-76 15.3261-76L64.9178-76C66.7438-76 68.2241-74.5198 68.2241-72.6939C68.2241-70.9373 66.8544-69.5007 65.1246-69.3941L65.1246-57.403L89.7137-57.403C91.5397-57.403 93.02-55.9228 93.02-54.0969C93.02-52.3403 91.6503-50.9037 89.9205-50.7971L89.9205 1.6942C89.9205 3.52018 88.4402 5 86.6142 5L18.4256 5C16.5997 5 15.1195 3.52018 15.1195 1.6942L15.1195-69.3941C13.3898-69.5007 12.02-70.9373 12.02-72.6939ZM21.7318-69.3877L21.7318-1.6121L27.5174-1.6121L27.5174-12.2535C27.5174-16.6474 31.0792-20.2091 35.4728-20.2091L44.7713-20.2091C49.1649-20.2091 52.7267-16.6474 52.7267-12.2535L52.7267-1.6121L58.5125-1.6121L58.5125-69.3877L21.7318-69.3877ZM65.1246-50.7907L65.1246-1.6121L83.3084-1.6121L83.3084-50.7907L65.1246-50.7907ZM46.1144-1.6121L46.1144-12.2535C46.1144-12.9954 45.5131-13.597 44.7713-13.597L35.4728-13.597C34.731-13.597 34.1297-12.9954 34.1297-12.2535L34.1297-1.6121L46.1144-1.6121ZM27.5174-57.1964C27.5174-59.0223 28.9976-60.5025 30.8236-60.5025L33.9231-60.5025C35.749-60.5025 37.2292-59.0223 37.2292-57.1964C37.2292-55.3704 35.749-53.8902 33.9231-53.8902L30.8236-53.8902C28.9976-53.8902 27.5174-55.3704 27.5174-57.1964ZM43.0149-57.1964C43.0149-59.0223 44.4951-60.5025 46.321-60.5025L49.4205-60.5025C51.2464-60.5025 52.7267-59.0223 52.7267-57.1964C52.7267-55.3704 51.2464-53.8902 49.4205-53.8902L46.321-53.8902C44.4951-53.8902 43.0149-55.3704 43.0149-57.1964ZM27.5174-44.7984C27.5174-46.6243 28.9976-48.1045 30.8236-48.1045L33.9231-48.1045C35.749-48.1045 37.2292-46.6243 37.2292-44.7984C37.2292-42.9724 35.749-41.4922 33.9231-41.4922L30.8236-41.4922C28.9976-41.4922 27.5174-42.9724 27.5174-44.7984ZM43.0149-44.7984C43.0149-46.6243 44.4951-48.1045 46.321-48.1045L49.4205-48.1045C51.2464-48.1045 52.7267-46.6243 52.7267-44.7984C52.7267-42.9724 51.2464-41.4922 49.4205-41.4922L46.321-41.4922C44.4951-41.4922 43.0149-42.9724 43.0149-44.7984ZM70.9105-38.5994C70.9105-40.4253 72.3903-41.9055 74.2163-41.9055L74.2475-41.9055C76.0735-41.9055 77.5533-40.4253 77.5533-38.5994L77.5533-38.5684C77.5533-36.7425 76.0735-35.2622 74.2475-35.2622L74.2163-35.2622C72.3903-35.2622 70.9105-36.7425 70.9105-38.5684L70.9105-38.5994ZM27.5174-32.4003C27.5174-34.2263 28.9976-35.7065 30.8236-35.7065L33.9231-35.7065C35.749-35.7065 37.2292-34.2263 37.2292-32.4003C37.2292-30.5743 35.749-29.0945 33.9231-29.0945L30.8236-29.0945C28.9976-29.0945 27.5174-30.5743 27.5174-32.4003ZM43.0149-32.4003C43.0149-34.2263 44.4951-35.7065 46.321-35.7065L49.4205-35.7065C51.2464-35.7065 52.7267-34.2263 52.7267-32.4003C52.7267-30.5743 51.2464-29.0945 49.4205-29.0945L46.321-29.0945C44.4951-29.0945 43.0149-30.5743 43.0149-32.4003ZM70.9105-26.2013C70.9105-28.0273 72.3903-29.5076 74.2163-29.5076L74.2475-29.5076C76.0735-29.5076 77.5533-28.0273 77.5533-26.2013L77.5533-26.1705C77.5533-24.3446 76.0735-22.8642 74.2475-22.8642L74.2163-22.8642C72.3903-22.8642 70.9105-24.3446 70.9105-26.1705L70.9105-26.2013ZM70.9105-13.8033C70.9105-15.6293 72.3903-17.1096 74.2163-17.1096L74.2475-17.1096C76.0735-17.1096 77.5533-15.6293 77.5533-13.8033L77.5533-13.7725C77.5533-11.9466 76.0735-10.4662 74.2475-10.4662L74.2163-10.4662C72.3903-10.4662 70.9105-11.9466 70.9105-13.7725L70.9105-13.8033Z"/>
  </g>
 </g>
</svg>
