<svg viewBox="0 0 18 18" fill="none" xmlns="http://www.w3.org/2000/svg">
  <path fill-rule="evenodd" clip-rule="evenodd" d="M1.9722 8.6801c0-3.4755 3.0917-6.3876 7.0276-6.3876 3.9359 0 7.0277 2.9121 7.0277 6.3876s-3.0918 6.3876-7.0277 6.3876a7.6804 7.6804 0 0 1-2.0095-.265.653.653 0 0 0-.546.096 4.4403 4.4403 0 0 1-2.333.8032 4.4639 4.4639 0 0 0 .304-.8784c.1813-.7787-.2235-1.4526-.6342-1.8662-1.1308-1.1391-1.809-2.6398-1.809-4.2772Zm.8841 8.2429c.1502.0269.3024.0479.456.0629.1868.0182.376.0275.5672.0275 1.123 0 2.1727-.3213 3.0601-.8769a9.0134 9.0134 0 0 0 2.0602.2369c4.5478 0 8.3334-3.3921 8.3334-7.6933S13.5476.9868 8.9998.9868C4.4521.9868.6665 4.379.6665 8.6801c0 2.0111.8356 3.8348 2.188 5.1971.2617.2636.3242.4993.2891.6501a3.1716 3.1716 0 0 1-.6704 1.331.653.653 0 0 0 .3831 1.0647Zm9.7629-6.1554c-.2391.4357-.806.5632-1.2086.2717L9.6073 9.7334l.1983 2.2449c.0418.4729-.3309.8799-.8056.8799-.4747 0-.8474-.407-.8056-.8799l.1983-2.2449-1.8038 1.3063c-.4023.2913-.9689.1639-1.2078-.2715-.2288-.4172-.0584-.941.372-1.1438l2.0434-.962-2.0461-.9633c-.4294-.2022-.6-.7241-.373-1.141.2397-.4399.813-.5663 1.2156-.2679l1.7997 1.3343-.1993-2.2889c-.0413-.4731.3317-.88.8066-.88.475 0 .8479.4069.8067.88l-.1994 2.289 1.7992-1.334c.4028-.2986.9766-.172 1.2164.2682.227.4166.0569.9384-.3721 1.1412l-2.0362.9624 2.0334.9611c.4301.2033.6.727.3712 1.1441Z" fill="currentColor"/>
</svg>
