
<svg width="256" height="256" viewBox="0 0 256 256" fill="none" xmlns="http://www.w3.org/2000/svg">
<path d="M128 0C198.667 0 256 57.3333 256 128C256 198.667 198.667 256 128 256C57.3333 256 0 198.667 0 128C0 57.3333 57.3333 0 128 0Z" fill="#70D44B"/>
<path d="M128 52.2667C134.756 52.2667 140.889 56.0889 143.911 62.1333L193.867 162.133C198.222 170.933 194.667 181.6 185.867 185.956C183.378 187.2 180.711 187.822 177.955 187.822H78.0444C68.2666 187.822 60.2666 179.822 60.2666 170.044C60.2666 167.289 60.8888 164.533 62.1333 162.133L112.089 62.1333C115.111 56 121.244 52.1778 128 52.2667ZM128 40C116.622 40 106.222 46.4 101.156 56.6222L51.1999 156.622C43.8222 171.467 49.7777 189.422 64.6222 196.889C68.7999 198.933 73.4222 200.089 78.0444 200.089H178.044C194.578 200.089 208.089 186.667 208.089 170.133C208.089 165.511 207.022 160.889 204.889 156.711L154.844 56.6222C149.778 46.4 139.378 40 128 40Z" fill="white"/>
</svg>
