<svg xmlns="http://www.w3.org/2000/svg" xmlns:xlink="http://www.w3.org/1999/xlink" viewBox="0 0 84 90"><defs><linearGradient id="a" x1=".643%" x2="99.357%" y1="49.357%" y2="49.357%"><stop offset="0%" stop-color="#392DD1"/><stop offset="100%" stop-color="#A91B78"/></linearGradient><linearGradient id="b" x1="0%" y1="50.706%" y2="50.706%"><stop offset="0%" stop-color="#F50"/><stop offset="40.988%" stop-color="#F50"/><stop offset="58.198%" stop-color="#FF2000"/><stop offset="100%" stop-color="#FF2000"/></linearGradient><linearGradient id="c" x1="2.148%" y1="50.706%" y2="50.706%"><stop offset="0%" stop-color="#FF452A"/><stop offset="100%" stop-color="#FF2000"/></linearGradient><path id="d" d="M9.295 1.383L8.078 0H3.8L2.584 1.383s-1.07-.297-1.574.208c0 0 1.425-.129 1.915.67 0 0 1.322.252 1.5.252.178 0 .564-.149.92-.268.357-.119.594-.12.594-.12s.238.001.594.12c.357.12.743.268.92.268.18 0 1.5-.253 1.5-.253.49-.798 1.916-.669 1.916-.669-.505-.505-1.574-.208-1.574-.208"/><linearGradient id="e" x1="-18.33%" x2="139.352%" y1="7.408%" y2="107.403%"><stop offset="0%" stop-color="#392DD1"/><stop offset="100%" stop-color="#A91B78"/></linearGradient><path id="f" d="M5.983.89L5.2 0H2.447l-.784.89S.975.7.65 1.024c0 0 .917-.083 1.233.43 0 0 .85.164.965.164.115 0 .363-.096.593-.173.23-.076.382-.077.382-.077s.153 0 .382.077c.23.077.478.173.593.173.115 0 .965-.163.965-.163.316-.514 1.233-.43 1.233-.43C6.671.698 5.983.89 5.983.89"/></defs><g fill="none" fill-rule="evenodd"><path fill="url(#a)" d="M0 3.76A3.767 3.767 0 0 1 3.768 0h63.01a3.771 3.771 0 0 1 3.767 3.76v81.29a3.767 3.767 0 0 1-3.767 3.759H3.768A3.771 3.771 0 0 1 0 85.049V3.76z"/><path fill="#FFF" d="M2.91 5.7c0-1.138.914-2.06 2.061-2.06h60.603c1.14 0 2.062.91 2.062 2.06v67.946c0 1.138-.915 2.06-2.062 2.06H4.971a2.054 2.054 0 0 1-2.062-2.06V5.7z"/><g fill="#F1F1F1" fill-rule="nonzero" opacity=".519" transform="translate(7.455 11.647)"><rect width="32.953" height="2.702" x="17.784" rx=".342"/><rect width="32.106" height="2.702" x="17.784" y="10.036" rx=".342"/><rect width="45.69" height="2.702" x="2" y="48.152" rx=".342"/><rect width="54.805" height="5.79" x=".124" y="22.388" rx=".342"/><rect width="54.929" height="11.966" y="31" rx=".342"/><rect width="37.307" height="1.537" x="17.784" y="5.635" rx=".342"/><rect width="53.387" height="1.537" y="18" rx=".342"/><rect width="51.559" height="1.537" x="2" y="53.787" rx=".342"/></g><ellipse cx="35.636" cy="81.529" fill="#FFF" fill-rule="nonzero" rx="2.909" ry="2.912"/><g transform="translate(9.098 12)"><path fill="url(#b)" d="M11.463 3.346l.327-.803s-.416-.446-.92-.952c-.506-.505-1.575-.208-1.575-.208L8.078 0H3.8L2.584 1.383s-1.07-.297-1.574.208c-.505.506-.92.952-.92.952l.326.803L0 4.535s1.223 4.637 1.366 5.203c.282 1.115.475 1.547 1.277 2.112.802.564 2.257 1.546 2.495 1.694.237.149.534.402.801.402.268 0 .565-.253.802-.402.238-.148 1.693-1.13 2.495-1.694.802-.565.995-.997 1.277-2.112.143-.566 1.366-5.203 1.366-5.203l-.416-1.19z"/><path fill="#FFF" d="M8.954 2.26s1.566 1.896 1.566 2.3c0 .406-.197.513-.395.724L8.95 6.532c-.11.118-.342.297-.206.62.136.322.337.732.114 1.148-.224.416-.606.694-.85.648-.246-.046-.821-.347-1.033-.484-.212-.138-.882-.692-.882-.904 0-.211.693-.592.821-.678.128-.087.712-.421.724-.553.012-.13.008-.17-.165-.494-.172-.324-.482-.757-.43-1.045.05-.289.552-.438.909-.573.357-.136 1.045-.39 1.131-.43.086-.04.064-.078-.197-.103-.26-.024-.999-.122-1.332-.03-.333.093-.902.235-.948.31-.046.075-.087.077-.04.336.048.259.292 1.5.315 1.72.024.221.07.367-.167.421-.238.054-.637.149-.775.149-.137 0-.537-.095-.774-.149-.238-.054-.191-.2-.168-.42.024-.221.268-1.462.315-1.72.047-.26.007-.262-.04-.337-.045-.075-.614-.217-.948-.31-.333-.092-1.071.006-1.332.03-.26.025-.282.063-.196.103.086.04.774.294 1.13.43.358.135.859.284.91.573.052.288-.258.72-.43 1.045-.173.325-.178.363-.166.494.012.132.597.466.725.553.128.086.82.467.82.678 0 .212-.67.766-.881.904-.212.137-.787.438-1.032.484-.245.046-.628-.232-.85-.648-.224-.416-.023-.826.113-1.148.136-.323-.095-.502-.207-.62L1.754 5.284c-.198-.211-.395-.318-.395-.723 0-.405 1.566-2.3 1.566-2.3s1.322.252 1.5.252c.178 0 .564-.149.92-.268.357-.119.594-.12.594-.12s.238.001.594.12c.357.12.743.268.92.268.18 0 1.5-.253 1.5-.253zM7.78 9.511c.097.06.037.175-.05.238-.09.062-1.276.983-1.391 1.084-.115.102-.285.27-.4.27-.115 0-.284-.168-.4-.27A72.063 72.063 0 0 0 4.15 9.75c-.088-.063-.147-.177-.05-.238.097-.06.4-.214.819-.43.418-.218.94-.402 1.021-.402.082 0 .603.184 1.022.401.418.217.722.37.819.431z"/><use fill="url(#c)" xlink:href="#d"/></g><path fill="url(#e)" d="M0 5.077A5.08 5.08 0 0 1 5.077 0h27.635a5.076 5.076 0 0 1 5.076 5.077v58.698a5.08 5.08 0 0 1-5.076 5.077H5.077A5.076 5.076 0 0 1 0 63.775V5.077z" transform="translate(46 21)"/><path fill="#FFF" d="M47.692 26.029a2.774 2.774 0 0 1 2.772-2.772h28.86a2.767 2.767 0 0 1 2.772 2.772v54.843a2.774 2.774 0 0 1-2.771 2.772H50.464a2.767 2.767 0 0 1-2.772-2.772V26.03zM51.64 85.9c0-.311.262-.564.566-.564h25.376c.313 0 .566.262.566.564a.571.571 0 0 1-.566.565H52.206a.571.571 0 0 1-.566-.565z"/><g transform="translate(52.768 29.465)"><g fill="#EBEBEB" fill-rule="nonzero" transform="translate(.108 .564)"><rect width="11.14" height="1.975" x="11.633" rx=".461"/><rect width="21.357" height="1.975" y="10.158" rx=".461"/><rect width="21.357" height="1.975" y="40.634" rx=".461"/><rect width="24.741" height="4.233" y="19.188" rx=".461"/><rect width="24.741" height="8.748" y="25.961" rx=".461"/></g><rect width="12.574" height="1" x="11.633" y="4.652" fill="#EBEBEB" fill-rule="nonzero" rx=".461"/><rect width="12.574" height="1" x="11.633" y="7.753" fill="#EBEBEB" fill-rule="nonzero" rx=".461"/><rect width="24.105" height="1" y="14.673" fill="#EBEBEB" fill-rule="nonzero" rx=".461"/><rect width="24.105" height="1" y="45.149" fill="#EBEBEB" fill-rule="nonzero" rx=".461"/><g transform="translate(1.27)"><path fill="url(#b)" d="M7.379 2.153l.21-.516s-.268-.287-.593-.613C6.671.7 5.983.89 5.983.89L5.2 0H2.447l-.784.89S.975.7.65 1.024c-.325.326-.593.613-.593.613l.21.516L0 2.92s.787 2.985.88 3.35c.18.717.305.995.821 1.358.516.364 1.453.996 1.606 1.091.153.096.344.259.516.259.172 0 .363-.163.516-.259.153-.095 1.09-.727 1.606-1.09.516-.364.64-.642.822-1.36.092-.364.88-3.349.88-3.349l-.268-.766z"/><path fill="#FFF" d="M5.763 1.455s1.008 1.22 1.008 1.48c0 .262-.126.33-.254.466l-.756.804c-.071.076-.22.19-.133.398.088.208.217.472.074.74-.144.268-.39.446-.548.417-.158-.03-.528-.224-.664-.312-.136-.089-.568-.445-.568-.581 0-.137.446-.382.529-.437.082-.056.458-.271.466-.356.007-.084.004-.11-.106-.318-.111-.209-.311-.488-.278-.673.033-.185.356-.282.586-.369.23-.087.672-.251.728-.277.055-.025.04-.05-.127-.065-.167-.016-.643-.08-.857-.02-.215.06-.581.151-.61.2-.03.048-.057.05-.026.216.03.166.187.965.202 1.107.016.142.045.236-.107.271-.153.035-.41.096-.499.096-.088 0-.346-.061-.498-.096-.153-.035-.123-.129-.108-.27.015-.143.172-.942.202-1.108.03-.167.005-.168-.025-.217-.03-.048-.396-.139-.61-.199-.215-.06-.69.004-.858.02-.167.016-.182.04-.126.065.055.026.498.19.728.277.23.087.552.184.585.369.034.185-.166.464-.277.673-.111.209-.114.234-.106.318.007.085.383.3.466.356.082.055.528.3.528.437 0 .136-.431.492-.568.58-.136.09-.506.283-.664.313-.158.03-.404-.15-.547-.417-.144-.268-.015-.532.073-.74.087-.207-.061-.322-.133-.398L1.129 3.4c-.127-.136-.254-.204-.254-.465s1.008-1.481 1.008-1.481.85.163.965.163c.115 0 .363-.096.593-.173.23-.076.382-.077.382-.077s.153 0 .382.077c.23.077.478.173.593.173.115 0 .965-.163.965-.163zm-.755 4.667c.062.04.024.113-.033.153-.057.04-.82.633-.895.698-.074.066-.183.174-.257.174-.074 0-.183-.108-.257-.174a46.386 46.386 0 0 0-.895-.698c-.057-.04-.095-.114-.032-.153.062-.039.257-.138.527-.277.269-.14.605-.258.657-.258.053 0 .388.118.658.258.269.14.464.238.527.277z"/><use fill="url(#c)" xlink:href="#f"/></g></g></g></svg>