<svg xmlns="http://www.w3.org/2000/svg" xmlns:xlink="http://www.w3.org/1999/xlink" viewBox="0 0 99 78"><defs><linearGradient id="a" x1=".643%" x2="99.357%" y1="49.357%" y2="49.357%"><stop offset="0%" stop-color="#392DD1"/><stop offset="100%" stop-color="#A91B78"/></linearGradient><linearGradient id="b" x1="78.208%" x2="57.719%" y1="100%" y2="-320.563%"><stop offset="0%" stop-color="#392DD1"/><stop offset="100%" stop-color="#A91B78"/></linearGradient><linearGradient id="c" x1="0%" y1="50.706%" y2="50.706%"><stop offset="0%" stop-color="#F50"/><stop offset="40.988%" stop-color="#F50"/><stop offset="58.198%" stop-color="#FF2000"/><stop offset="100%" stop-color="#FF2000"/></linearGradient><linearGradient id="d" x1="2.148%" y1="50.706%" y2="50.706%"><stop offset="0%" stop-color="#FF452A"/><stop offset="100%" stop-color="#FF2000"/></linearGradient><path id="e" d="M9.99 1.387L8.682 0H4.086l-1.31 1.387s-1.148-.298-1.69.21c0 0 1.531-.13 2.058.67 0 0 1.42.254 1.612.254.191 0 .606-.15.99-.269.382-.119.638-.12.638-.12s.255.001.638.12c.383.12.798.269.99.269.191 0 1.611-.254 1.611-.254.527-.8 2.06-.67 2.06-.67-.544-.508-1.693-.21-1.693-.21"/></defs><g fill="none" fill-rule="evenodd"><path fill="url(#a)" d="M6.208 3.544A3.544 3.544 0 0 1 9.755 0h78.938a3.551 3.551 0 0 1 3.546 3.544v63.695H6.21V3.544z"/><path fill="url(#b)" d="M1.427 71.547C-.341 69.168.63 67.24 3.595 67.24H95.74c2.965 0 3.834 1.86 1.952 4.139l-5.453 6.605H6.21l-4.782-6.436z" transform="matrix(1 0 0 -1 0 145.223)"/><path fill="#000" fill-opacity=".26" d="M6.373 72.142c-1.454 1.586-.9 2.873 1.254 2.873h84.07c2.147 0 2.65-1.215 1.118-2.72l-5.148-5.055H10.866l-4.493 4.902z"/><path fill="#FFF" d="M9.756 6.923a2.5 2.5 0 0 1 2.515-2.5h73.906a2.508 2.508 0 0 1 2.515 2.5v49.854a2.5 2.5 0 0 1-2.515 2.5H12.271a2.508 2.508 0 0 1-2.515-2.5V6.923z"/><g fill="#F1F1F1" fill-rule="nonzero" opacity=".519" transform="translate(17.738 14.156)"><rect width="40.186" height="3.284" x="19.249" rx=".418"/><rect width="39.154" height="3.284" x="19.249" y="12.197" rx=".418"/><rect width="64.548" height="7.037" y="27.21" rx=".418"/><rect width="45.496" height="1.868" x="19.249" y="6.848" rx=".418"/><rect width="62.877" height="1.868" y="20.662" rx=".418"/></g><g transform="translate(19.805 15.04)"><path fill="url(#c)" d="M12.32 3.356l.352-.805s-.447-.448-.99-.955c-.543-.507-1.692-.209-1.692-.209L8.682 0H4.086l-1.31 1.387s-1.148-.298-1.69.21c-.543.506-.99.954-.99.954l.35.805L0 4.55s1.314 4.652 1.468 5.22c.303 1.119.51 1.551 1.373 2.118.862.567 2.426 1.55 2.68 1.7.256.15.575.403.863.403.287 0 .606-.254.861-.403.256-.15 1.82-1.133 2.682-1.7.861-.567 1.069-1 1.372-2.118.154-.568 1.468-5.22 1.468-5.22l-.447-1.193z"/><path fill="#FFF" d="M9.623 2.267s1.684 1.902 1.684 2.308c0 .407-.212.514-.425.725L9.62 6.553c-.12.118-.368.298-.222.621.146.324.362.735.122 1.152-.24.418-.65.696-.914.65-.263-.046-.882-.348-1.11-.486-.227-.138-.947-.693-.947-.906 0-.212.745-.594.882-.68.138-.087.766-.423.779-.555.013-.131.008-.17-.178-.496-.185-.325-.519-.76-.463-1.048.055-.29.594-.44.978-.575.384-.136 1.123-.392 1.215-.431.093-.04.069-.078-.21-.103-.28-.025-1.075-.123-1.433-.03-.358.093-.97.235-1.019.31-.05.076-.093.078-.042.338.05.26.313 1.504.338 1.725.026.222.075.368-.18.422-.255.055-.685.15-.832.15-.148 0-.578-.095-.833-.15-.255-.054-.205-.2-.18-.422.026-.22.288-1.466.338-1.725.051-.26.008-.262-.042-.338-.05-.075-.661-.217-1.019-.31-.358-.093-1.152.005-1.432.03-.28.025-.303.063-.211.103.092.04.832.295 1.216.43.384.136.922.287.977.576.056.289-.278.723-.463 1.048-.185.326-.19.365-.177.496.012.132.64.468.778.554.138.087.883.469.883.681 0 .213-.721.768-.948.906-.228.138-.846.44-1.11.486-.263.046-.674-.232-.914-.65-.24-.417-.024-.828.122-1.152.146-.323-.102-.503-.222-.621L1.885 5.3c-.213-.211-.424-.318-.424-.725 0-.406 1.683-2.308 1.683-2.308s1.42.254 1.612.254c.191 0 .606-.15.99-.269.382-.119.638-.12.638-.12s.255.001.638.12c.383.12.798.269.99.269.191 0 1.611-.254 1.611-.254zM8.362 9.541c.104.061.04.176-.055.239-.095.062-1.37.985-1.494 1.087-.124.102-.306.27-.43.27-.123 0-.305-.168-.429-.27A76.993 76.993 0 0 0 4.46 9.78c-.095-.063-.158-.178-.054-.239.104-.06.43-.215.88-.432.45-.218 1.01-.403 1.098-.403.087 0 .648.185 1.098.403.45.217.775.371.88.432z"/><use fill="url(#d)" xlink:href="#e"/></g></g></svg>