<svg width="200" height="160" viewBox="0 0 200 160" fill="none" xmlns="http://www.w3.org/2000/svg">
<path d="M110.481 14.8375C119.783 16.3337 128.657 19.804 136.506 25.0151C144.355 30.2263 150.997 37.0576 155.986 45.0496" stroke="#76767A" stroke-width="2"/>
<path d="M165.336 70.6604C166.562 79.2404 166.087 87.978 163.937 96.3742C161.786 104.771 158.003 112.661 152.804 119.595C147.604 126.53 141.089 132.372 133.632 136.788C126.174 141.205 117.92 144.109 109.34 145.336" stroke="#76767A" stroke-width="2"/>
<path d="M41.0996 109.778C33.2019 94.1569 31.8333 76.0381 37.2947 59.4076C42.7562 42.7771 54.6003 28.9974 70.2217 21.0997" stroke="#76767A" stroke-width="2"/>
<path d="M158.397 38.9562L156.046 44.4766C155.83 44.9847 155.242 45.2212 154.734 45.0048L149.214 42.6542" stroke="#76767A" stroke-width="2" stroke-linecap="round" stroke-linejoin="round"/>
<path d="M113.431 149.847L108.776 146.062C108.347 145.713 108.282 145.083 108.631 144.655L112.417 140" stroke="#76767A" stroke-width="2" stroke-linecap="round" stroke-linejoin="round"/>
<path d="M64.482 19L70.346 20.2703C70.8858 20.3872 71.2285 20.9196 71.1116 21.4593L69.8413 27.3233" stroke="#76767A" stroke-width="2" stroke-linecap="round" stroke-linejoin="round"/>
<path d="M78.5595 9.34824L78.5 9.45906V9.58485V48V48.0311L78.5039 48.062L79.0039 52.062L79.0133 52.1376L79.0449 52.207L80.0964 54.5191C81.4761 57.5526 84.5012 59.5 87.8338 59.5H107C111.694 59.5 115.5 55.6944 115.5 51V11.6669C115.5 8.06889 113.235 4.86067 109.844 3.65679L106.667 2.52882L106.586 2.5H106.5H95.7442H95.726L95.7079 2.50132L81.9637 3.50132L81.6896 3.52126L81.5595 3.76339L78.5595 9.34824Z" fill="#FF4000" stroke="black"/>
<rect x="78.5" y="2.5" width="34" height="54" rx="6.5" fill="url(#paint0_linear_1003_1256)" stroke="black"/>
<rect x="81.5" y="5.5" width="28" height="48" rx="4.5" fill="white" stroke="black"/>
<rect x="91" y="8" width="9" height="3" rx="1.5" fill="black"/>
<path d="M135.56 58.3482L135.5 58.4591V58.5848V121V121.031L135.504 121.062L136.004 125.062L136.013 125.138L136.045 125.207L137.096 127.519C138.476 130.553 141.501 132.5 144.834 132.5H188C192.694 132.5 196.5 128.694 196.5 124V60.6669C196.5 57.0689 194.235 53.8607 190.844 52.6568L187.667 51.5288L187.586 51.5H187.5H152.744H152.726L152.708 51.5013L138.964 52.5013L138.69 52.5213L138.56 52.7634L135.56 58.3482Z" fill="#FF4000" stroke="black"/>
<rect x="135.5" y="51.5" width="58" height="78" rx="6.5" fill="url(#paint1_linear_1003_1256)" stroke="black"/>
<rect x="138.5" y="54.5" width="52" height="72" rx="4.5" fill="white" stroke="black"/>
<rect x="185" y="57" width="3" height="3" rx="1.5" fill="black"/>
<path d="M19 73.5C15.4101 73.5 12.5 76.4101 12.5 80V121.022C12.5 121.912 12.284 122.789 11.8705 123.577L5.22298 136.249C4.74809 137.154 4.5 138.161 4.5 139.183C4.5 142.672 7.32816 145.5 10.8169 145.5H94C98.6944 145.5 102.5 141.694 102.5 137V135.319C102.5 134.205 102.213 133.109 101.668 132.137L95.2041 120.623C94.7425 119.801 94.5 118.874 94.5 117.931V80C94.5 76.4101 91.5899 73.5 88 73.5H19Z" fill="#FF4000" stroke="black"/>
<path d="M16 70.5C12.4101 70.5 9.5 73.4101 9.5 77V118.022C9.5 118.912 9.28399 119.789 8.87051 120.577L2.22298 133.249C1.74809 134.154 1.5 135.161 1.5 136.183C1.5 139.672 4.32816 142.5 7.81687 142.5H93.1831C96.6718 142.5 99.5 139.672 99.5 136.183C99.5 135.161 99.2519 134.154 98.777 133.249L92.1295 120.577C91.716 119.789 91.5 118.912 91.5 118.022V77C91.5 73.4101 88.5899 70.5 85 70.5H16Z" fill="url(#paint2_linear_1003_1256)" stroke="black"/>
<path d="M17 73.5C14.5147 73.5 12.5 75.5147 12.5 78V115C12.5 117.485 14.5147 119.5 17 119.5H84C86.4853 119.5 88.5 117.485 88.5 115V78C88.5 75.5147 86.4853 73.5 84 73.5H17Z" fill="white" stroke="black"/>
<path d="M12.2361 122.5C11.2891 122.5 10.4235 123.035 10 123.882L8 127.882C7.16887 129.544 8.37762 131.5 10.2361 131.5H90.7639C92.6224 131.5 93.8311 129.544 93 127.882L91 123.882C90.5765 123.035 89.7109 122.5 88.7639 122.5H12.2361Z" fill="black" fill-opacity="0.25" stroke="black"/>
<path d="M44.1324 133.5C43.2542 133.5 42.4405 133.961 41.9886 134.714L41.3886 135.714C40.3889 137.38 41.5891 139.5 43.5324 139.5H57.4676C59.4109 139.5 60.6111 137.38 59.6114 135.714L59.0114 134.714C58.5595 133.961 57.7458 133.5 56.8676 133.5H44.1324Z" fill="black" fill-opacity="0.25" stroke="black"/>
<path d="M44 74H58C58 75.6569 56.6569 77 55 77H47C45.3431 77 44 75.6569 44 74Z" fill="black"/>
<path fill-rule="evenodd" clip-rule="evenodd" d="M94.5164 16.8727L94.7842 16.1834C94.7842 16.1834 94.4434 15.8004 94.0296 15.3663C93.6157 14.9323 92.7393 15.1876 92.7393 15.1876L91.7413 14H89.9885H88.2358L87.2377 15.1876C87.2377 15.1876 86.3613 14.9323 85.9475 15.3663C85.5337 15.8004 85.1928 16.1834 85.1928 16.1834L85.4606 16.8727L85.1198 17.894C85.1198 17.894 86.1222 21.8758 86.2396 22.3621C86.4709 23.3195 86.6291 23.6897 87.2864 24.1749C87.9437 24.66 89.1365 25.5025 89.3312 25.6302C89.526 25.7578 89.7694 25.9753 89.9885 25.9753C90.2076 25.9753 90.451 25.7578 90.6458 25.6302C90.8405 25.5025 92.0334 24.66 92.6907 24.1749C93.3479 23.6897 93.5062 23.3195 93.7374 22.3621C93.8549 21.8758 94.8572 17.894 94.8572 17.894L94.5164 16.8727Z" fill="url(#paint3_linear_1003_1256)"/>
<path d="M91.2301 16.1578C91.3761 16.1578 92.4594 15.9408 92.4594 15.9408C92.4594 15.9408 93.7432 17.5685 93.7432 17.9163C93.7432 18.204 93.6328 18.3165 93.5028 18.4491C93.4755 18.4769 93.4474 18.5055 93.4193 18.5369L92.4567 19.6089C92.4472 19.6196 92.4366 19.6308 92.4253 19.6426C92.3292 19.7439 92.1878 19.8931 92.2876 20.1409C92.2943 20.1575 92.3011 20.1743 92.3081 20.1914C92.4176 20.4599 92.5527 20.7913 92.3807 21.1272C92.1977 21.4844 91.8843 21.7229 91.6835 21.6834C91.4826 21.644 91.011 21.3855 90.8375 21.2674C90.6641 21.1493 90.1143 20.6738 90.1143 20.4919C90.1143 20.3401 90.5097 20.0877 90.7018 19.965C90.74 19.9407 90.7702 19.9214 90.7876 19.9091C90.8074 19.8951 90.8406 19.8735 90.8814 19.8469C91.0567 19.7326 91.3733 19.5263 91.3812 19.4349C91.391 19.3221 91.3873 19.289 91.246 19.0104C91.2159 18.9512 91.1808 18.8877 91.1444 18.8222C91.0099 18.5793 90.8592 18.3074 90.8925 18.1126C90.9302 17.8928 91.2587 17.7667 91.5369 17.6599C91.5717 17.6466 91.6057 17.6335 91.6382 17.6206C91.7194 17.5885 91.8215 17.5484 91.9281 17.5065C92.2059 17.3974 92.5145 17.2761 92.5654 17.2515C92.6359 17.2174 92.6177 17.185 92.4043 17.1637C92.376 17.1609 92.3409 17.157 92.3006 17.1525C92.0365 17.1231 91.5492 17.0688 91.3123 17.138C91.2657 17.1516 91.2135 17.1665 91.1587 17.182C90.8926 17.2576 90.5664 17.3503 90.5351 17.4037C90.5296 17.413 90.5242 17.421 90.5191 17.4286C90.4892 17.4733 90.4696 17.5024 90.5028 17.6923C90.5127 17.7489 90.533 17.8601 90.5581 17.9977C90.6316 18.4004 90.7463 19.0285 90.7607 19.1696C90.7627 19.1894 90.765 19.2085 90.7671 19.2268C90.7855 19.3842 90.7977 19.489 90.6234 19.5308C90.6089 19.5343 90.5937 19.5379 90.5778 19.5418C90.3811 19.5891 90.0927 19.6585 89.9885 19.6585C89.8843 19.6585 89.5957 19.589 89.399 19.5417C89.3833 19.5379 89.3681 19.5343 89.3537 19.5308C89.1793 19.489 89.1916 19.3842 89.2099 19.2268C89.2121 19.2085 89.2143 19.1894 89.2163 19.1696C89.2308 19.0283 89.3458 18.3986 89.4193 17.996C89.4443 17.8592 89.4644 17.7487 89.4743 17.6923C89.5074 17.5025 89.4879 17.4733 89.4579 17.4286C89.4528 17.421 89.4475 17.413 89.442 17.4037C89.4106 17.3503 89.0845 17.2576 88.8184 17.182C88.7636 17.1665 88.7113 17.1516 88.6647 17.138C88.4279 17.0688 87.9407 17.1231 87.6765 17.1525C87.6361 17.157 87.601 17.1609 87.5728 17.1637C87.3594 17.185 87.3412 17.2174 87.4116 17.2515C87.4625 17.2761 87.771 17.3973 88.0488 17.5064C88.1555 17.5483 88.2576 17.5884 88.3388 17.6206C88.3714 17.6335 88.4054 17.6466 88.4402 17.6599C88.7184 17.7667 89.0469 17.8928 89.0845 18.1126C89.1179 18.3074 88.9672 18.5792 88.8327 18.822C88.7963 18.8877 88.7612 18.9512 88.7311 19.0104C88.5898 19.289 88.586 19.3221 88.5958 19.4349C88.6038 19.5263 88.9202 19.7325 89.0956 19.8468C89.1364 19.8734 89.1696 19.8951 89.1895 19.9091C89.2069 19.9214 89.237 19.9406 89.2752 19.965C89.4673 20.0876 89.8627 20.3401 89.8627 20.4919C89.8627 20.6738 89.313 21.1493 89.1396 21.2674C88.9661 21.3855 88.4945 21.644 88.2936 21.6834C88.0928 21.7229 87.7794 21.4844 87.5964 21.1272C87.4244 20.7913 87.5595 20.46 87.6689 20.1915C87.6759 20.1744 87.6828 20.1575 87.6895 20.1409C87.7893 19.8931 87.6478 19.7439 87.5517 19.6426C87.5405 19.6307 87.5299 19.6195 87.5203 19.6089L86.5577 18.5369C86.5296 18.5056 86.5015 18.4769 86.4743 18.4491C86.3443 18.3165 86.2339 18.204 86.2339 17.9163C86.2339 17.5685 87.5177 15.9408 87.5177 15.9408C87.5177 15.9408 88.601 16.1578 88.747 16.1578C88.8636 16.1578 89.0886 16.0765 89.3232 15.9918C89.3826 15.9704 89.4426 15.9487 89.5017 15.928C89.7938 15.8259 89.9885 15.8252 89.9885 15.8252C89.9885 15.8252 90.1833 15.8259 90.4754 15.928C90.5344 15.9487 90.5944 15.9704 90.6538 15.9918C90.8885 16.0765 91.1135 16.1578 91.2301 16.1578Z" fill="white"/>
<path d="M91.0441 21.915C91.2731 22.0388 91.4356 22.1266 91.497 22.1669C91.5765 22.2191 91.528 22.3175 91.4556 22.3712C91.3832 22.4248 90.4104 23.2149 90.316 23.3022C90.3039 23.3134 90.2911 23.3255 90.2778 23.3381C90.1868 23.4241 90.0708 23.5338 89.9885 23.5338C89.9062 23.5338 89.7901 23.424 89.6992 23.338C89.6859 23.3254 89.6731 23.3133 89.661 23.3022C89.5666 23.2149 88.5938 22.4248 88.5214 22.3712C88.449 22.3175 88.4006 22.2191 88.4801 22.1669C88.5415 22.1266 88.7041 22.0387 88.9334 21.9148C89.0006 21.8785 89.0735 21.8391 89.1512 21.7969C89.4943 21.6107 89.9218 21.4524 89.9885 21.4524C90.0553 21.4524 90.4828 21.6107 90.8259 21.7969C90.9038 21.8392 90.9768 21.8787 91.0441 21.915Z" fill="white"/>
<rect x="97" y="16" width="9" height="3" rx="1.5" fill="#C7C7CC"/>
<rect x="85" y="29" width="21" height="8" rx="2" fill="#C7C7CC"/>
<rect x="85" y="38" width="21" height="2" rx="1" fill="#C7C7CC"/>
<rect x="85" y="43" width="15" height="2" rx="1" fill="#C7C7CC"/>
<rect x="85" y="46" width="15" height="2" rx="1" fill="#C7C7CC"/>
<rect x="97" y="21" width="6" height="3" rx="1.5" fill="#C7C7CC"/>
<path fill-rule="evenodd" clip-rule="evenodd" d="M154.516 65.8727L154.784 65.1834C154.784 65.1834 154.443 64.8004 154.03 64.3663C153.616 63.9323 152.739 64.1876 152.739 64.1876L151.741 63H149.989H148.236L147.238 64.1876C147.238 64.1876 146.361 63.9323 145.947 64.3663C145.534 64.8004 145.193 65.1834 145.193 65.1834L145.461 65.8727L145.12 66.894C145.12 66.894 146.122 70.8758 146.24 71.3621C146.471 72.3195 146.629 72.6897 147.286 73.1749C147.944 73.66 149.136 74.5025 149.331 74.6302C149.526 74.7578 149.769 74.9753 149.989 74.9753C150.208 74.9753 150.451 74.7578 150.646 74.6302C150.841 74.5025 152.033 73.66 152.691 73.1749C153.348 72.6897 153.506 72.3195 153.737 71.3621C153.855 70.8758 154.857 66.894 154.857 66.894L154.516 65.8727Z" fill="url(#paint4_linear_1003_1256)"/>
<path d="M151.23 65.1578C151.376 65.1578 152.459 64.9408 152.459 64.9408C152.459 64.9408 153.743 66.5685 153.743 66.9163C153.743 67.204 153.633 67.3165 153.503 67.4491C153.476 67.4769 153.447 67.5055 153.419 67.5369L152.457 68.6089C152.447 68.6196 152.437 68.6308 152.425 68.6426C152.329 68.7439 152.188 68.8931 152.288 69.1409C152.294 69.1575 152.301 69.1743 152.308 69.1914C152.418 69.4599 152.553 69.7913 152.381 70.1272C152.198 70.4844 151.884 70.7229 151.683 70.6834C151.483 70.644 151.011 70.3855 150.838 70.2674C150.664 70.1493 150.114 69.6738 150.114 69.4919C150.114 69.3401 150.51 69.0877 150.702 68.965C150.74 68.9407 150.77 68.9214 150.788 68.9091C150.807 68.8951 150.841 68.8735 150.881 68.8469C151.057 68.7326 151.373 68.5263 151.381 68.4349C151.391 68.3221 151.387 68.289 151.246 68.0104C151.216 67.9512 151.181 67.8877 151.144 67.8222C151.01 67.5793 150.859 67.3074 150.893 67.1126C150.93 66.8928 151.259 66.7667 151.537 66.6599C151.572 66.6466 151.606 66.6335 151.638 66.6206C151.719 66.5885 151.821 66.5484 151.928 66.5065C152.206 66.3974 152.515 66.2761 152.565 66.2515C152.636 66.2174 152.618 66.185 152.404 66.1637C152.376 66.1609 152.341 66.157 152.301 66.1525C152.036 66.1231 151.549 66.0688 151.312 66.138C151.266 66.1516 151.213 66.1665 151.159 66.182C150.893 66.2576 150.566 66.3503 150.535 66.4037C150.53 66.413 150.524 66.421 150.519 66.4286C150.489 66.4733 150.47 66.5024 150.503 66.6923C150.513 66.7489 150.533 66.8601 150.558 66.9977C150.632 67.4004 150.746 68.0285 150.761 68.1696C150.763 68.1894 150.765 68.2085 150.767 68.2268C150.785 68.3842 150.798 68.489 150.623 68.5308C150.609 68.5343 150.594 68.5379 150.578 68.5418C150.381 68.5891 150.093 68.6585 149.989 68.6585C149.884 68.6585 149.596 68.589 149.399 68.5417C149.383 68.5379 149.368 68.5343 149.354 68.5308C149.179 68.489 149.192 68.3842 149.21 68.2268C149.212 68.2085 149.214 68.1894 149.216 68.1696C149.231 68.0283 149.346 67.3986 149.419 66.996C149.444 66.8592 149.464 66.7487 149.474 66.6923C149.507 66.5025 149.488 66.4733 149.458 66.4286C149.453 66.421 149.447 66.413 149.442 66.4037C149.411 66.3503 149.085 66.2576 148.818 66.182C148.764 66.1665 148.711 66.1516 148.665 66.138C148.428 66.0688 147.941 66.1231 147.676 66.1525C147.636 66.157 147.601 66.1609 147.573 66.1637C147.359 66.185 147.341 66.2174 147.412 66.2515C147.463 66.2761 147.771 66.3973 148.049 66.5064C148.155 66.5483 148.258 66.5884 148.339 66.6206C148.371 66.6335 148.405 66.6466 148.44 66.6599C148.718 66.7667 149.047 66.8928 149.085 67.1126C149.118 67.3074 148.967 67.5792 148.833 67.822C148.796 67.8877 148.761 67.9512 148.731 68.0104C148.59 68.289 148.586 68.3221 148.596 68.4349C148.604 68.5263 148.92 68.7325 149.096 68.8468C149.136 68.8734 149.17 68.8951 149.189 68.9091C149.207 68.9214 149.237 68.9406 149.275 68.965C149.467 69.0876 149.863 69.3401 149.863 69.4919C149.863 69.6738 149.313 70.1493 149.14 70.2674C148.966 70.3855 148.494 70.644 148.294 70.6834C148.093 70.7229 147.779 70.4844 147.596 70.1272C147.424 69.7913 147.559 69.46 147.669 69.1915C147.676 69.1744 147.683 69.1575 147.689 69.1409C147.789 68.8931 147.648 68.7439 147.552 68.6426C147.54 68.6307 147.53 68.6195 147.52 68.6089L146.558 67.5369C146.53 67.5056 146.502 67.4769 146.474 67.4491C146.344 67.3165 146.234 67.204 146.234 66.9163C146.234 66.5685 147.518 64.9408 147.518 64.9408C147.518 64.9408 148.601 65.1578 148.747 65.1578C148.864 65.1578 149.089 65.0765 149.323 64.9918C149.383 64.9704 149.443 64.9487 149.502 64.928C149.794 64.8259 149.989 64.8252 149.989 64.8252C149.989 64.8252 150.183 64.8259 150.475 64.928C150.534 64.9487 150.594 64.9704 150.654 64.9918C150.888 65.0765 151.114 65.1578 151.23 65.1578Z" fill="white"/>
<path d="M151.044 70.915C151.273 71.0388 151.436 71.1266 151.497 71.1669C151.576 71.2191 151.528 71.3175 151.456 71.3712C151.383 71.4248 150.41 72.2149 150.316 72.3022C150.304 72.3134 150.291 72.3255 150.278 72.3381C150.187 72.4241 150.071 72.5338 149.989 72.5338C149.906 72.5338 149.79 72.424 149.699 72.338C149.686 72.3254 149.673 72.3133 149.661 72.3022C149.567 72.2149 148.594 71.4248 148.521 71.3712C148.449 71.3175 148.401 71.2191 148.48 71.1669C148.542 71.1266 148.704 71.0387 148.933 70.9148C149.001 70.8785 149.073 70.8391 149.151 70.7969C149.494 70.6107 149.922 70.4524 149.989 70.4524C150.055 70.4524 150.483 70.6107 150.826 70.7969C150.904 70.8392 150.977 70.8787 151.044 70.915Z" fill="white"/>
<rect x="157" y="65" width="24" height="3" rx="1.5" fill="#C7C7CC"/>
<rect x="145" y="78" width="39" height="16" rx="2" fill="#C7C7CC"/>
<rect x="145" y="96" width="33" height="2" rx="1" fill="#C7C7CC"/>
<rect x="145" y="103" width="39" height="3" rx="1.5" fill="#C7C7CC"/>
<rect x="145" y="108" width="33" height="3" rx="1.5" fill="#C7C7CC"/>
<rect x="145" y="113" width="39" height="3" rx="1.5" fill="#C7C7CC"/>
<rect x="145" y="118" width="30" height="3" rx="1.5" fill="#C7C7CC"/>
<rect x="157" y="70" width="16" height="3" rx="1.5" fill="#C7C7CC"/>
<path fill-rule="evenodd" clip-rule="evenodd" d="M36.5164 82.8727L36.7842 82.1834C36.7842 82.1834 36.4434 81.8004 36.0296 81.3663C35.6157 80.9323 34.7393 81.1876 34.7393 81.1876L33.7413 80H31.9885H30.2358L29.2377 81.1876C29.2377 81.1876 28.3613 80.9323 27.9475 81.3663C27.5337 81.8004 27.1928 82.1834 27.1928 82.1834L27.4606 82.8727L27.1198 83.894C27.1198 83.894 28.1222 87.8758 28.2396 88.3621C28.4709 89.3195 28.6291 89.6897 29.2864 90.1749C29.9437 90.66 31.1365 91.5025 31.3312 91.6302C31.526 91.7578 31.7694 91.9753 31.9885 91.9753C32.2076 91.9753 32.451 91.7578 32.6458 91.6302C32.8405 91.5025 34.0334 90.66 34.6907 90.1749C35.3479 89.6897 35.5062 89.3195 35.7374 88.3621C35.8549 87.8758 36.8572 83.894 36.8572 83.894L36.5164 82.8727Z" fill="url(#paint5_linear_1003_1256)"/>
<path d="M33.2301 82.1578C33.3761 82.1578 34.4594 81.9408 34.4594 81.9408C34.4594 81.9408 35.7432 83.5685 35.7432 83.9163C35.7432 84.204 35.6328 84.3165 35.5028 84.4491C35.4755 84.4769 35.4474 84.5055 35.4193 84.5369L34.4567 85.6089C34.4472 85.6196 34.4366 85.6308 34.4253 85.6426C34.3292 85.7439 34.1878 85.8931 34.2876 86.1409C34.2943 86.1575 34.3011 86.1743 34.3081 86.1914C34.4176 86.4599 34.5527 86.7913 34.3807 87.1272C34.1977 87.4844 33.8843 87.7229 33.6835 87.6834C33.4826 87.644 33.011 87.3855 32.8375 87.2674C32.6641 87.1493 32.1143 86.6738 32.1143 86.4919C32.1143 86.3401 32.5097 86.0877 32.7018 85.965C32.74 85.9407 32.7702 85.9214 32.7876 85.9091C32.8074 85.8951 32.8406 85.8735 32.8814 85.8469C33.0567 85.7326 33.3733 85.5263 33.3812 85.4349C33.391 85.3221 33.3873 85.289 33.246 85.0104C33.2159 84.9512 33.1808 84.8877 33.1444 84.8222C33.0099 84.5793 32.8592 84.3074 32.8925 84.1126C32.9302 83.8928 33.2587 83.7667 33.5369 83.6599C33.5717 83.6466 33.6057 83.6335 33.6382 83.6206C33.7194 83.5885 33.8215 83.5484 33.9281 83.5065C34.2059 83.3974 34.5145 83.2761 34.5654 83.2515C34.6359 83.2174 34.6177 83.185 34.4043 83.1637C34.376 83.1609 34.3409 83.157 34.3006 83.1525C34.0365 83.1231 33.5492 83.0688 33.3123 83.138C33.2657 83.1516 33.2135 83.1665 33.1587 83.182C32.8926 83.2576 32.5664 83.3503 32.5351 83.4037C32.5296 83.413 32.5242 83.421 32.5191 83.4286C32.4892 83.4733 32.4696 83.5024 32.5028 83.6923C32.5127 83.7489 32.533 83.8601 32.5581 83.9977C32.6316 84.4004 32.7463 85.0285 32.7607 85.1696C32.7627 85.1894 32.765 85.2085 32.7671 85.2268C32.7855 85.3842 32.7977 85.489 32.6234 85.5308C32.6089 85.5343 32.5937 85.5379 32.5778 85.5418C32.3811 85.5891 32.0927 85.6585 31.9885 85.6585C31.8843 85.6585 31.5957 85.589 31.399 85.5417C31.3833 85.5379 31.3681 85.5343 31.3537 85.5308C31.1793 85.489 31.1916 85.3842 31.2099 85.2268C31.2121 85.2085 31.2143 85.1894 31.2163 85.1696C31.2308 85.0283 31.3458 84.3986 31.4193 83.996C31.4443 83.8592 31.4644 83.7487 31.4743 83.6923C31.5074 83.5025 31.4879 83.4733 31.4579 83.4286C31.4528 83.421 31.4475 83.413 31.442 83.4037C31.4106 83.3503 31.0845 83.2576 30.8184 83.182C30.7636 83.1665 30.7113 83.1516 30.6647 83.138C30.4279 83.0688 29.9407 83.1231 29.6765 83.1525C29.6361 83.157 29.601 83.1609 29.5728 83.1637C29.3594 83.185 29.3412 83.2174 29.4116 83.2515C29.4625 83.2761 29.771 83.3973 30.0488 83.5064C30.1555 83.5483 30.2576 83.5884 30.3388 83.6206C30.3714 83.6335 30.4054 83.6466 30.4402 83.6599C30.7184 83.7667 31.0469 83.8928 31.0845 84.1126C31.1179 84.3074 30.9672 84.5792 30.8327 84.822C30.7963 84.8877 30.7612 84.9512 30.7311 85.0104C30.5898 85.289 30.586 85.3221 30.5958 85.4349C30.6038 85.5263 30.9202 85.7325 31.0956 85.8468C31.1364 85.8734 31.1696 85.8951 31.1895 85.9091C31.2069 85.9214 31.237 85.9406 31.2752 85.965C31.4673 86.0876 31.8627 86.3401 31.8627 86.4919C31.8627 86.6738 31.313 87.1493 31.1396 87.2674C30.9661 87.3855 30.4945 87.644 30.2936 87.6834C30.0928 87.7229 29.7794 87.4844 29.5964 87.1272C29.4244 86.7913 29.5595 86.46 29.6689 86.1915C29.6759 86.1744 29.6828 86.1575 29.6895 86.1409C29.7893 85.8931 29.6478 85.7439 29.5517 85.6426C29.5405 85.6307 29.5299 85.6195 29.5203 85.6089L28.5577 84.5369C28.5296 84.5056 28.5015 84.4769 28.4743 84.4491C28.3443 84.3165 28.2339 84.204 28.2339 83.9163C28.2339 83.5685 29.5177 81.9408 29.5177 81.9408C29.5177 81.9408 30.601 82.1578 30.747 82.1578C30.8636 82.1578 31.0886 82.0765 31.3232 81.9918C31.3826 81.9704 31.4426 81.9487 31.5017 81.928C31.7938 81.8259 31.9885 81.8252 31.9885 81.8252C31.9885 81.8252 32.1833 81.8259 32.4754 81.928C32.5344 81.9487 32.5944 81.9704 32.6538 81.9918C32.8885 82.0765 33.1135 82.1578 33.2301 82.1578Z" fill="white"/>
<path d="M33.0441 87.915C33.2731 88.0388 33.4356 88.1266 33.497 88.1669C33.5765 88.2191 33.528 88.3175 33.4556 88.3712C33.3832 88.4248 32.4104 89.2149 32.316 89.3022C32.3039 89.3134 32.2911 89.3255 32.2778 89.3381C32.1868 89.4241 32.0708 89.5338 31.9885 89.5338C31.9062 89.5338 31.7901 89.424 31.6992 89.338C31.6859 89.3254 31.6731 89.3133 31.661 89.3022C31.5666 89.2149 30.5938 88.4248 30.5214 88.3712C30.449 88.3175 30.4006 88.2191 30.4801 88.1669C30.5415 88.1266 30.7041 88.0387 30.9334 87.9148C31.0006 87.8785 31.0735 87.8391 31.1512 87.7969C31.4943 87.6107 31.9218 87.4524 31.9885 87.4524C32.0553 87.4524 32.4828 87.6107 32.8259 87.7969C32.9038 87.8392 32.9768 87.8787 33.0441 87.915Z" fill="white"/>
<rect x="39" y="82" width="31" height="3" rx="1.5" fill="#C7C7CC"/>
<rect x="27" y="95" width="47" height="16" rx="2" fill="#C7C7CC"/>
<rect x="27" y="113" width="41" height="2" rx="1" fill="#C7C7CC"/>
<rect x="39" y="87" width="23" height="3" rx="1.5" fill="#C7C7CC"/>
<defs>
<linearGradient id="paint0_linear_1003_1256" x1="110.286" y1="52.3374" x2="65.5508" y2="25.0421" gradientUnits="userSpaceOnUse">
<stop offset="0.0260417" stop-color="#FA7250"/>
<stop offset="0.401042" stop-color="#FF1893"/>
<stop offset="0.994792" stop-color="#A78AFF"/>
</linearGradient>
<linearGradient id="paint1_linear_1003_1256" x1="190.039" y1="123.679" x2="120.563" y2="73.2799" gradientUnits="userSpaceOnUse">
<stop offset="0.0260417" stop-color="#FA7250"/>
<stop offset="0.401042" stop-color="#FF1893"/>
<stop offset="0.994792" stop-color="#A78AFF"/>
</linearGradient>
<linearGradient id="paint2_linear_1003_1256" x1="93.9609" y1="137.093" x2="29.34" y2="50.5788" gradientUnits="userSpaceOnUse">
<stop offset="0.0260417" stop-color="#FA7250"/>
<stop offset="0.401042" stop-color="#FF1893"/>
<stop offset="0.994792" stop-color="#A78AFF"/>
</linearGradient>
<linearGradient id="paint3_linear_1003_1256" x1="85.1198" y1="26.0598" x2="94.8572" y2="26.0598" gradientUnits="userSpaceOnUse">
<stop stop-color="#FF5601"/>
<stop offset="0.5" stop-color="#FF4000"/>
<stop offset="1" stop-color="#FF1F01"/>
</linearGradient>
<linearGradient id="paint4_linear_1003_1256" x1="145.12" y1="75.0598" x2="154.857" y2="75.0598" gradientUnits="userSpaceOnUse">
<stop stop-color="#FF5601"/>
<stop offset="0.5" stop-color="#FF4000"/>
<stop offset="1" stop-color="#FF1F01"/>
</linearGradient>
<linearGradient id="paint5_linear_1003_1256" x1="27.1198" y1="92.0598" x2="36.8572" y2="92.0598" gradientUnits="userSpaceOnUse">
<stop stop-color="#FF5601"/>
<stop offset="0.5" stop-color="#FF4000"/>
<stop offset="1" stop-color="#FF1F01"/>
</linearGradient>
</defs>
</svg>
