<svg width="35" height="34" viewBox="0 0 35 34" fill="none" xmlns="http://www.w3.org/2000/svg">
<g clip-path="url(#clip0_1189_43843)">
<path fill-rule="evenodd" clip-rule="evenodd" d="M17.451 33.9851C8.08092 34.0119 0.424229 26.3284 0.477772 16.9048C0.531316 7.58823 8.13447 -0.0684583 17.5581 0.0118566C26.8479 0.0653999 34.4778 7.69532 34.4242 17.1457C34.3439 26.4087 26.7943 34.0119 17.451 33.9851Z" fill="#0090FF"/>
<path fill-rule="evenodd" clip-rule="evenodd" d="M19.566 15.6195C21.0384 15.8337 22.4841 16.0211 23.9833 16.2353C24.1171 15.7801 24.2242 15.4053 24.3313 14.977C22.8053 14.7361 21.3329 14.5219 19.7534 14.2809C20.2888 12.4069 20.7439 10.6132 21.3061 8.87306C21.4935 8.28408 21.9219 7.74865 22.3502 7.29353C22.9124 6.70456 23.6888 6.83841 24.1707 7.48093C24.3581 7.74865 24.5455 8.04314 24.7864 8.25731C25.0809 8.5518 25.536 8.68566 25.8573 8.41794C26.0715 8.23054 26.0447 7.77542 26.0715 7.45416C26.0715 7.3203 25.9108 7.15967 25.8038 7.02582C25.2683 6.41007 24.5455 6.1959 23.7959 6.16912C22.1093 6.08881 20.8778 6.97227 19.9408 8.25731C19.0038 9.54235 18.5754 11.0683 18.1203 12.5675C17.9864 12.9959 17.8793 13.451 17.7455 13.9329C16.0856 13.692 14.5061 13.4778 12.8998 13.2368L12.7392 14.5219C14.3455 14.7628 15.8982 15.0038 17.4778 15.2447C17.2636 16.155 17.0762 16.9849 16.862 17.8416C15.3093 17.6274 13.8101 17.4132 12.3376 17.199C12.2841 17.6809 12.2305 18.0557 12.177 18.4841C13.6762 18.725 15.1219 18.9392 16.5675 19.1534C16.5675 19.314 16.5943 19.4211 16.5675 19.5014C16.1124 21.4825 15.6841 23.4636 15.1486 25.4447C14.9077 26.3817 14.5061 27.292 13.7297 27.9345C13.0872 28.4699 12.3912 28.3896 11.9093 27.7203C11.6951 27.4258 11.5077 27.051 11.2132 26.8368C10.999 26.6762 10.5439 26.5959 10.3833 26.703C10.1423 26.8904 9.98171 27.292 10.0085 27.5864C10.0352 27.8542 10.2762 28.1754 10.5171 28.3361C11.3203 28.9518 12.2305 29.0321 13.1943 28.8447C14.7738 28.5235 15.8982 27.5329 16.5943 26.1408C17.1297 25.0431 17.5313 23.8652 17.9329 22.714C18.2809 21.6699 18.5219 20.5723 18.8163 19.4479C20.3691 19.662 21.8951 19.903 23.4478 20.1172C23.5817 19.662 23.6888 19.2605 23.8226 18.8321C22.1896 18.5912 20.6368 18.377 19.0841 18.1361C19.2179 17.3329 19.3786 16.503 19.566 15.6195Z" fill="white"/>
</g>
<defs>
<clipPath id="clip0_1189_43843">
<rect width="34" height="34" fill="white" transform="translate(0.451172)"/>
</clipPath>
</defs>
</svg>
