<svg fill="none" xmlns="http://www.w3.org/2000/svg" viewBox="0 0 1150 264">
  <g clip-path="url(#a)">
    <path fill="url(#b)" d="M0 0h1150v264H0z"/>
    <g filter="url(#c)">
      <path d="M1617.35 285.804c-73.86 39.821-147.16 84.282-219.91 133.383-72.75 49.1-190.14 72.297-352.17 69.591-162.035-2.706-306.983-20.877-434.846-54.513-127.863-33.636-206.675-76.744-236.436-129.324-29.762-52.58-5.512-99.168 72.749-139.763S609.873 88.4346 701.361 56.7319c91.488-31.7027 185.181-27.0632 281.078 13.9183 95.901 40.9818 165.341 68.0448 208.331 81.1898 42.99 13.145 143.29 28.803 300.92 46.974 157.62 18.171 199.51 47.168 125.66 86.99Z" fill="url(#d)" fill-opacity=".6"/>
    </g>
    <g filter="url(#e)">
      <path d="M405.674 213.396C257.625 218.069 268.878 86.7564 101.289 44.863-66.2998 2.96961-139.988 163.141-235.757 174.196c-76.591 8.735-174.023-54.63-213.228-87.3571l37.803 329.5321L633.346 295.796c-26.878-30.117-104.665-86.198-227.672-82.4Z" fill="url(#f)"/>
    </g>
    <g opacity=".3">
      <path d="M228.452 212.789h-2.118v-2.134h-1.47v2.134h-2.118v1.471h2.118v2.119h1.47v-2.119h2.118v-1.471ZM526.337 185.675h-2.133v-2.134h-1.47v2.134h-2.118v1.471h2.118v2.119h1.47v-2.119h2.133v-1.471ZM814.519 145.782h-2.117v-2.119h-1.471v2.119h-2.132v1.472h2.132v2.133h1.471v-2.133h2.117v-1.472ZM110.041 178.933h-2.118v-2.119h-1.47v2.119h-2.133v1.472h2.133v2.134h1.47v-2.134h2.118v-1.472ZM1007.19 248.715h-2.12v-2.134h-1.47v2.134h-2.13v1.471h2.13v2.119h1.47v-2.119h2.12v-1.471ZM1031.47 34.2987h-2.12v-2.119h-1.47v2.119h-2.13v1.4715h2.13v2.1337h1.47v-2.1337h2.12v-1.4715ZM1088.28 41.1335h-1.64v-1.6218h-1.12v1.6218h-1.62v1.1262h1.62v1.6218h1.12v-1.6218h1.64v-1.1262ZM503.47 2.64637c.527 0 .955-.42821.955-.95648 0-.52828-.428-.956492-.955-.956492-.528 0-.956.428212-.956.956492 0 .52827.428.95648.956.95648ZM443.472 99.3553c.528 0 .956-.4282.956-.9564 0-.5283-.428-.9565-.956-.9565-.527 0-.955.4282-.955.9565 0 .5282.428.9564.955.9564ZM195.13 133.96c.528 0 .956-.428.956-.957 0-.528-.428-.956-.956-.956s-.956.428-.956.956c0 .529.428.957.956.957ZM170.381 241.632c.528 0 .956-.429.956-.957s-.428-.956-.956-.956-.956.428-.956.956.428.957.956.957ZM267.025 194.939c.528 0 .956-.428.956-.956s-.428-.957-.956-.957-.956.429-.956.957.428.956.956.956ZM802.461 213.222c.528 0 .956-.429.956-.957s-.428-.956-.956-.956-.956.428-.956.956.428.957.956.957ZM97.9822 246.374c.528 0 .9559-.428.9559-.957 0-.528-.4279-.956-.9559-.956-.5279 0-.9558.428-.9558.956 0 .529.4279.957.9558.957ZM765.33 140.808c.528 0 .956-.429.956-.957s-.428-.956-.956-.956-.956.428-.956.956.428.957.956.957ZM60.8513 173.96c.528 0 .9559-.428.9559-.957 0-.528-.4279-.956-.9559-.956-.5279 0-.9558.428-.9558.956 0 .529.4279.957.9558.957ZM734.86 36.9471c.528 0 .956-.4282.956-.9564 0-.5283-.428-.9565-.956-.9565s-.956.4282-.956.9565c0 .5282.428.9564.956.9564ZM912.442 196.077c.528 0 .956-.428.956-.956 0-.529-.428-.957-.956-.957s-.956.428-.956.957c0 .528.428.956.956.956ZM994.337 161.776c.528 0 .956-.428.956-.956 0-.529-.428-.957-.956-.957s-.956.428-.956.957c0 .528.428.956.956.956ZM1097.17 106.507c.53 0 .96-.428.96-.957 0-.528-.43-.956-.96-.956s-.96.428-.96.956c0 .529.43.957.96.957ZM1110.02 55.4891c.53 0 .96-.4282.96-.9565 0-.5282-.43-.9564-.96-.9564-.52 0-.95.4282-.95.9564 0 .5283.43.9565.95.9565ZM1002.42 57.4022c.53 0 .96-.4282.96-.9564 0-.5283-.43-.9565-.96-.9565-.52 0-.95.4282-.95.9565 0 .5282.43.9564.95.9564Z" fill="#fff"/>
      <path d="M33.4701 206.953 19 231.719h28.8079l-14.3378-24.766Zm-5.8822 19.91 5.8822-9.889 5.8822 9.845-11.7644.044Z" fill="#FB5930"/>
      <g filter="url(#g)">
        <path d="m206.982 255.405-20.396 20.19 27.837 7.357-7.441-27.547Zm-10.911 17.659 8.279-8.02 3.162 11.036-11.441-3.016Z" fill="#662D91"/>
      </g>
      <path d="m887.957 140.808-7.573 27.679 27.808-7.49-20.235-20.189Zm-.603 20.777 3.162-11.08 8.25 7.961-11.412 3.119Z" fill="#fff"/>
      <g filter="url(#h)">
        <path d="m335.292 132.361-20.411 20.175 27.764 7.431-7.353-27.606Zm-10.897 17.659 8.279-8.02 3.162 11.036-11.441-3.016Z" fill="#fff"/>
      </g>
      <path d="m725.354-14.1928 3.139 26.4652 21.284-16.10502-24.423-10.36018Zm6.723 18.05801L730.923-6.7764l9.891 3.97909-8.737 6.66252Z" fill="#5F5CF1"/>
      <g filter="url(#i)">
        <path d="m940.843 99.4596 2.047 17.2604 13.881-10.504-15.928-6.7564Zm4.384 11.7774-.752-6.941 6.45 2.595-5.698 4.346Z" fill="#FF4724"/>
      </g>
      <g filter="url(#j)">
        <path d="m464.947-20.137 2.048 17.25991 13.88-10.50331-15.928-6.7566Zm4.385 11.77693-.752-6.94023 6.45 2.5951-5.698 4.34513Z" fill="#FF4724"/>
      </g>
      <path d="m210.126 22.4386 2.593 21.8626 17.582-13.3042-20.175-8.5584Zm5.553 14.9175-.953-8.7909 8.171 3.2871-7.218 5.5038Z" fill="#5F5CF1"/>
      <path opacity=".1" d="m869.076 42.6279-2.867 3.5464-2.706-10.4331 5.573 6.8867Z" fill="#9E1F63"/>
      <path opacity=".3" d="M109.364 67.3768c6.519 0 12.891 1.9351 18.31 5.5579 5.421 3.6244 9.644 8.7762 12.138 14.802 2.494 6.0274 3.146 12.6583 1.874 19.0563-1.274 6.397-4.414 12.272-9.024 16.884-4.61 4.61-10.483 7.751-16.877 9.022-6.394 1.27-13.02.615-19.0422-1.884-6.0218-2.497-11.1673-6.726-14.7863-12.151-3.619-5.426-5.5498-11.802-5.5469-18.325.0118-8.741 3.4882-17.1213 9.6659-23.3002 6.1778-6.1789 14.5535-9.6546 23.2885-9.662Zm0-1.6922c-6.852 0-13.552 2.0336-19.2489 5.8434-5.6984 3.8112-10.1394 9.2264-12.7599 15.5612-2.622 6.3364-3.3073 13.3088-1.9706 20.0338 1.3382 6.724 4.6396 12.902 9.4865 17.75 4.847 4.848 11.0217 8.15 17.7439 9.486 6.722 1.334 13.688.646 20.018-1.979 6.331-2.627 11.741-7.072 15.545-12.776 3.806-5.704 5.835-12.408 5.833-19.265 0-4.5516-.896-9.0603-2.639-13.2659-1.741-4.2041-4.292-8.0257-7.51-11.2439-3.217-3.2182-7.036-5.7698-11.241-7.5106-4.202-1.7408-8.707-2.6355-13.257-2.634Z" fill="#5F5CF1"/>
      <path d="m656.418 214.321-.117.044 1.97 4.871-1.853-4.915Z" fill="#423EEE"/>
    </g>
    <g opacity=".3">
      <path d="M527.391 11.7524h2.106v2.108h1.453v-2.108h2.092v-1.4538h-2.092V8.20516h-1.453v2.09344h-2.106v1.4538ZM242.686 51.1644h2.092v2.0934h1.452v-2.0934h2.107v-1.4538h-2.107v-2.1079h-1.452v2.1079h-2.092v1.4538ZM938.665 18.4124h2.092v2.0935h1.453v-2.0935h2.106v-1.4537h-2.106v-2.108h-1.453v2.108h-2.092v1.4537ZM28.3544 161.302h2.0921v2.094h1.4528v-2.094h2.1066v-1.454h-2.1066v-2.108h-1.4528v2.108h-2.0921v1.454ZM549.981 192.573c-.521 0-.944.423-.944.945s.423.945.944.945c.522 0 .945-.423.945-.945s-.423-.945-.945-.945ZM609.256 97.031c-.522 0-.944.423-.944.9449 0 .522.422.945.944.945.521 0 .944-.423.944-.9449 0-.522-.423-.945-.944-.945ZM854.603 62.8435c-.522 0-.945.4231-.945.945s.423.9449.945.9449c.521 0 .944-.423.944-.9449s-.423-.945-.944-.945ZM783.574 2.5993c-.521 0-.944.42307-.944.94499 0 .52192.423.94497.944.94497.522 0 .945-.42305.945-.94497 0-.52192-.423-.94499-.945-.94499ZM291.281 56.0778c-.521 0-.944.4231-.944.945s.423.945.944.945c.522 0 .945-.4231.945-.945s-.423-.945-.945-.945ZM987.261 23.3259c-.522 0-.945.423-.945.945 0 .5219.423.9449.945.9449.521 0 .944-.423.944-.9449 0-.522-.423-.945-.944-.945ZM321.385 158.685c-.522 0-.945.423-.945.945s.423.945.945.945c.521 0 .944-.423.944-.945s-.423-.945-.944-.945ZM145.944 1.4753c-.521 0-.944.42305-.944.94496 0 .52191.423.94497.944.94497.522 0 .945-.42306.945-.94497s-.423-.94496-.945-.94496ZM65.0371 35.363c-.5215 0-.9443.4231-.9443.945s.4228.9449.9443.9449c.5216 0 .9443-.423.9443-.9449s-.4227-.945-.9443-.945ZM57.0478 138.478c-.5215 0-.9442.423-.9442.945s.4227.945.9442.945c.5216 0 .9444-.423.9444-.945s-.4228-.945-.9444-.945ZM54.2285 237.756c-.5215 0-.9442.423-.9442.945 0 .521.4227.945.9442.945.5216 0 .9444-.424.9444-.945 0-.522-.4228-.945-.9444-.945ZM170.133 56.0791l7.482-27.3454-27.472 7.3997 19.99 19.9457Zm.596-20.5272-3.124 10.9469-8.15-7.8649 11.274-3.082Z" fill="#fff"/>
      <g filter="url(#k)">
        <path d="m577.474 64.5254 20.165-19.9312-27.429-7.3415 7.264 27.2727Zm10.765-17.4452-8.179 7.923-3.124-10.9033 11.303 2.9803Z" fill="#fff"/>
      </g>
      <path d="m320.05 239.138-3.101-26.146-21.027 15.911 24.128 10.235Zm-6.642-17.84 1.14 10.513-9.771-3.931 8.631-6.582Z" fill="#5F5CF1"/>
      <path d="m117.887 96.9276-2.023-17.0518-13.713 10.3766 15.736 6.6752Zm-4.332-11.6349.743 6.8564-6.373-2.5637 5.63-4.2927ZM588.041 215.081l-2.023-17.052-13.713 10.377 15.736 6.675Zm-4.332-11.635.743 6.856-6.372-2.563 5.629-4.293Z" fill="#FF4724"/>
      <path d="m839.787 173.02-2.562-21.599-17.37 13.144 19.932 8.455Zm-5.487-14.738.942 8.685-8.072-3.247 7.13-5.438Z" fill="#5F5CF1"/>
      <path opacity=".1" d="m188.786 153.074 2.833-3.503 2.673 10.307-5.506-6.804Z" fill="#9E1F63"/>
    </g>
  </g>
  <defs>
    <filter id="c" x="345.688" y="19.9902" width="1323" height="485" filterUnits="userSpaceOnUse" color-interpolation-filters="sRGB">
      <feFlood flood-opacity="0" result="BackgroundImageFix"/>
      <feBlend mode="normal" in="SourceGraphic" in2="BackgroundImageFix" result="shape"/>
      <feGaussianBlur stdDeviation="8" result="effect1_foregroundBlur_623_38270"/>
    </filter>
    <filter id="e" x="-459.985" y="26.8926" width="1104.33" height="400.479" filterUnits="userSpaceOnUse" color-interpolation-filters="sRGB">
      <feFlood flood-opacity="0" result="BackgroundImageFix"/>
      <feBlend mode="normal" in="SourceGraphic" in2="BackgroundImageFix" result="shape"/>
      <feGaussianBlur stdDeviation="5.5" result="effect1_foregroundBlur_623_38270"/>
    </filter>
    <filter id="g" x="182.586" y="251.405" width="35.8369" height="35.5469" filterUnits="userSpaceOnUse" color-interpolation-filters="sRGB">
      <feFlood flood-opacity="0" result="BackgroundImageFix"/>
      <feBlend mode="normal" in="SourceGraphic" in2="BackgroundImageFix" result="shape"/>
      <feGaussianBlur stdDeviation="2" result="effect1_foregroundBlur_623_38270"/>
    </filter>
    <filter id="h" x="310.881" y="128.361" width="35.7637" height="35.6055" filterUnits="userSpaceOnUse" color-interpolation-filters="sRGB">
      <feFlood flood-opacity="0" result="BackgroundImageFix"/>
      <feBlend mode="normal" in="SourceGraphic" in2="BackgroundImageFix" result="shape"/>
      <feGaussianBlur stdDeviation="2" result="effect1_foregroundBlur_623_38270"/>
    </filter>
    <filter id="i" x="936.843" y="95.46" width="23.9277" height="25.2598" filterUnits="userSpaceOnUse" color-interpolation-filters="sRGB">
      <feFlood flood-opacity="0" result="BackgroundImageFix"/>
      <feBlend mode="normal" in="SourceGraphic" in2="BackgroundImageFix" result="shape"/>
      <feGaussianBlur stdDeviation="2" result="effect1_foregroundBlur_623_38270"/>
    </filter>
    <filter id="j" x="460.947" y="-24.1367" width="23.9277" height="25.2598" filterUnits="userSpaceOnUse" color-interpolation-filters="sRGB">
      <feFlood flood-opacity="0" result="BackgroundImageFix"/>
      <feBlend mode="normal" in="SourceGraphic" in2="BackgroundImageFix" result="shape"/>
      <feGaussianBlur stdDeviation="2" result="effect1_foregroundBlur_623_38270"/>
    </filter>
    <filter id="k" x="566.21" y="33.2529" width="35.4287" height="35.2725" filterUnits="userSpaceOnUse" color-interpolation-filters="sRGB">
      <feFlood flood-opacity="0" result="BackgroundImageFix"/>
      <feBlend mode="normal" in="SourceGraphic" in2="BackgroundImageFix" result="shape"/>
      <feGaussianBlur stdDeviation="2" result="effect1_foregroundBlur_623_38270"/>
    </filter>
    <linearGradient id="b" x1="-170.271" y1="26.6408" x2="16.9323" y2="658.286" gradientUnits="userSpaceOnUse">
      <stop stop-color="#3900B8"/>
      <stop offset="1" stop-color="#B2226D"/>
    </linearGradient>
    <linearGradient id="d" x1="498.723" y1="575.808" x2="851.786" y2="56.5544" gradientUnits="userSpaceOnUse">
      <stop stop-color="#2B34AD"/>
      <stop offset="1" stop-color="#D22983"/>
    </linearGradient>
    <linearGradient id="f" x1="-210.081" y1="293.712" x2="652.479" y2="405.66" gradientUnits="userSpaceOnUse">
      <stop stop-color="#444DD0"/>
      <stop offset=".984446" stop-color="#D22983"/>
    </linearGradient>
    <clipPath id="a">
      <path fill="#fff" d="M0 0h1150v264H0z"/>
    </clipPath>
  </defs>
</svg>
