<svg fill="none" xmlns="http://www.w3.org/2000/svg" viewBox="0 0 192 241">
  <path d="M17.4816 82.3213c.1377-1.099.354-2.1981.6589-3.307.1967-.911.4622-1.8021.7867-2.6635C33.1961 28.6856 73.8099-12.1774 122.379-23.4848c25.519-5.9408 54.972-4.3962 78.219 8.743 11.918 6.74279 21.733 17.22835 30.731 27.407 9.283 10.4954 15.724 22.0107 20.66 35.1003 8.802 23.3376 8.92 49.8733 3.875 74.0625-2.419 11.614-6.677 22.951-12.046 33.506-2.243 4.406-4.819 8.654-7.73 12.654-1.662 2.277-3.422 4.535-5.153 6.753 6.018-7.713-1.849 2.435-2.576 3.386-1.997 2.545-4.042 5.03-6.225 7.416-31.695 34.536-84.247 50.101-128.794 33.714-13.2266-4.871-24.683-11.456-35.4216-20.624-4.0417-3.446-7.2278-7.446-10.8074-11.327-5.1136-5.555-10.001-10.625-14.4852-16.843-18.291-25.367-20.8675-58.17-15.1442-88.1219v-.0198Z" fill="url(#a)" fill-opacity=".8"/>
  <path d="M125.237 143.888c27.951 4.628 54.358-14.304 58.981-42.287 4.623-27.9823-14.288-54.4185-42.239-59.0469-27.951-4.6283-54.3579 14.304-58.981 42.2865-4.6232 27.9824 14.2879 54.4184 42.239 59.0474Z" fill="#fff" fill-opacity=".7"/>
  <path d="M40.9251 94.8311C59.3101 26.9267 137.248-26.1677 205.001 4.79477 259.473 35.2913 259.693 121.201 223.849 166.042 158.697 255.423 14.7475 214.11 40.9251 94.8311ZM64.1489 126.87c2.0831 43.587 45.2021 67.416 84.6281 56.278 32.824-9.263 60.523-37.608 69.671-70.5 10.846-43.8759-7.153-97.0813-60.545-89.8038C107.885 25.185 61.757 76.8927 64.1378 126.87h.0111Z" fill="#FFECE5"/>
  <path d="M30.3877 83.6358C48.7726 15.7314 126.721-37.363 194.475-6.40055 248.935 24.0849 250.434 110.76 214.59 155.601 149.438 244.982 4.21002 202.915 30.3987 83.6358h-.011Zm23.2237 32.0382c2.0832 43.588 45.2019 67.417 84.6286 56.279 32.824-9.264 60.522-37.608 69.671-70.501 10.845-43.8752-7.154-97.08057-60.545-89.8031-50.0187 2.3408-96.1464 54.0484-93.7657 104.0251h.0111Z" fill="url(#b)"/>
  <path d="M96.4107 35.6453C183.982-8.56306 260.685 126.114 174.04 170.411c-16.467 6.191-35.139 3.728-51.87.122C64.4464 157.82 38.9191 65.4207 96.3997 35.6564l.011-.0111Zm-6.1503 57.6761c.3306 22.7646 16.6326 46.0946 38.9416 51.5306 35.689 9.274 59.365-3.872 55.287-43.332-7.451-56.5449-93.8539-66.9619-94.2397-8.1986h.0111Z" fill="#FFECE6"/>
  <path d="M91.7489 24.1077C179.331-20.1117 256.023 114.577 169.378 158.863c-16.467 6.19-35.139 3.727-51.87.122C59.7846 146.271 34.2572 53.8721 91.7378 24.1077h.0111Zm-6.1504 57.6761c.3307 22.7642 16.6325 46.0942 38.9415 51.5302 35.69 9.274 59.365-3.872 55.287-43.332-7.451-56.5445-93.8537-66.9615-94.2395-8.1982h.011Z" fill="url(#c)"/>
  <path d="m112.876 68.2742-.168.9756 3.191 27.3654.31.2447 11.827-8.9906-15.16-19.5951Z" fill="#FFCCD8"/>
  <path d="m112.876 68.2738-10.245 22.5591 13.578 6.0265-1.549-13.2824-1.784-15.3032Z" fill="#FFF0EB"/>
  <path d="m116.49 99.2657-.135.2091 1.137 9.7482.21.438 10.623-19.3829-11.835 8.9876Z" fill="#FFCCD8"/>
  <path d="m117.702 109.66-1.212-10.3952-13.578-6.0226 14.79 16.4178Z" fill="#FFF0EB"/>
  <path d="m116.209 96.8606 11.827-8.9906-13.376-4.2919 1.549 13.2825Z" fill="#FFB8C9"/>
  <path d="m102.631 90.8344 13.578 6.0265-1.549-13.2824-12.029 7.2559Z" fill="#FFE1D6"/>
  <path d="M140.39 106.718c.262-.179.589-.25.909-.196l29.523 4.907c.538.089.704.756.263 1.057l-6.761 4.609c-.262.179-.589.249-.909.196l-29.523-4.907c-.538-.089-.704-.757-.263-1.057l6.761-4.609Z" fill="url(#d)"/>
  <path d="M143.854 85.8764c.262-.1789.589-.2495.909-.1963l29.523 4.907c.538.0894.704.7565.263 1.0571l-6.761 4.6091c-.262.1788-.589.2493-.909.1962l-29.523-4.907c-.538-.0894-.704-.7566-.263-1.0571l6.761-4.609Z" fill="url(#e)"/>
  <path d="M167.102 100.381c-.19-.254-.477-.4269-.797-.4801l-29.523-4.9069c-.538-.0894-.91.4882-.59.9152l4.906 6.5478c.19.255.477.427.797.48l29.523 4.907c.538.09.91-.488.59-.915l-4.906-6.548Z" fill="url(#f)"/>
  <defs>
    <linearGradient id="b" x1="133.08" y1="-15.4453" x2="133.08" y2="203.577" gradientUnits="userSpaceOnUse">
      <stop stop-color="#FFF4F0"/>
      <stop offset=".776042" stop-color="#FFFBFA"/>
    </linearGradient>
    <linearGradient id="c" x1="133.377" y1="15.3145" x2="133.377" y2="162.648" gradientUnits="userSpaceOnUse">
      <stop offset=".208333" stop-color="#FFFBFA"/>
      <stop offset="1" stop-color="#FFF4F0"/>
    </linearGradient>
    <linearGradient id="d" x1="164.172" y1="81.0854" x2="138.775" y2="116.06" gradientUnits="userSpaceOnUse">
      <stop stop-color="#FFE7E3"/>
      <stop offset="1" stop-color="#FFB9C9"/>
    </linearGradient>
    <linearGradient id="e" x1="164.172" y1="81.0854" x2="138.775" y2="116.06" gradientUnits="userSpaceOnUse">
      <stop stop-color="#FFE7E3"/>
      <stop offset="1" stop-color="#FFB9C9"/>
    </linearGradient>
    <linearGradient id="f" x1="164.172" y1="81.0854" x2="138.775" y2="116.06" gradientUnits="userSpaceOnUse">
      <stop stop-color="#FFE7E3"/>
      <stop offset="1" stop-color="#FFB9C9"/>
    </linearGradient>
    <radialGradient id="a" cx="0" cy="0" r="1" gradientUnits="userSpaceOnUse" gradientTransform="matrix(0 126.299 -122.228 0 137 99.4998)">
      <stop stop-color="#fff"/>
      <stop offset="1" stop-color="#fff" stop-opacity=".6"/>
    </radialGradient>
  </defs>
</svg>
