<svg fill="none" xmlns="http://www.w3.org/2000/svg" viewBox="0 0 436 359">
  <path d="m395.128 106.748-27.586 17.124-4.429-27.7479L390.699 79l4.429 27.748Z" fill="#fff" stroke="#FFD6E1" stroke-width=".96" stroke-linecap="round" stroke-linejoin="round"/>
  <path d="m395.129 106.747 20.775 16.557-27.586 17.123-20.775-16.556 27.586-17.124Z" fill="#FCF7F0"/>
  <mask id="a" style="mask-type:luminance" maskUnits="userSpaceOnUse" x="367" y="106" width="49" height="35">
    <path fill-rule="evenodd" clip-rule="evenodd" d="m395.129 106.748 20.775 16.556-27.586 17.124-20.775-16.556 27.586-17.124Z" fill="#fff"/>
  </mask>
  <g mask="url(#a)">
    <path d="M356.328 140.631h70.791-70.791Z" fill="#FCF7F0"/>
    <path d="M356.328 140.631h70.791" stroke="#FFD6E1" stroke-width=".96" stroke-linecap="round" stroke-linejoin="round"/>
    <path d="M356.328 137.791h70.791-70.791Z" fill="#FCF7F0"/>
    <path d="M356.328 137.791h70.791" stroke="#FFD6E1" stroke-width=".96" stroke-linecap="round" stroke-linejoin="round"/>
    <path d="M356.328 134.951h70.791-70.791Z" fill="#FCF7F0"/>
    <path d="M356.328 134.951h70.791" stroke="#FFD6E1" stroke-width=".96" stroke-linecap="round" stroke-linejoin="round"/>
    <path d="M356.328 132.11h70.791-70.791Z" fill="#FCF7F0"/>
    <path d="M356.328 132.11h70.791" stroke="#FFD6E1" stroke-width=".96" stroke-linecap="round" stroke-linejoin="round"/>
    <path d="M356.328 129.27h70.791-70.791Z" fill="#FCF7F0"/>
    <path d="M356.328 129.27h70.791" stroke="#FFD6E1" stroke-width=".96" stroke-linecap="round" stroke-linejoin="round"/>
    <path d="M356.328 126.428h70.791-70.791Z" fill="#FCF7F0"/>
    <path d="M356.328 126.428h70.791" stroke="#FFD6E1" stroke-width=".96" stroke-linecap="round" stroke-linejoin="round"/>
    <path d="M356.328 123.588h70.791-70.791Z" fill="#FCF7F0"/>
    <path d="M356.328 123.588h70.791" stroke="#FFD6E1" stroke-width=".96" stroke-linecap="round" stroke-linejoin="round"/>
    <path d="M356.328 120.747h70.791-70.791Z" fill="#FCF7F0"/>
    <path d="M356.328 120.747h70.791" stroke="#FFD6E1" stroke-width=".96" stroke-linecap="round" stroke-linejoin="round"/>
    <path d="M356.328 117.907h70.791-70.791Z" fill="#FCF7F0"/>
    <path d="M356.328 117.907h70.791" stroke="#FFD6E1" stroke-width=".96" stroke-linecap="round" stroke-linejoin="round"/>
    <path d="M356.328 115.066h70.791-70.791Z" fill="#FCF7F0"/>
    <path d="M356.328 115.066h70.791" stroke="#FFD6E1" stroke-width=".96" stroke-linecap="round" stroke-linejoin="round"/>
    <path d="M356.328 112.225h70.791-70.791Z" fill="#FCF7F0"/>
    <path d="M356.328 112.225h70.791" stroke="#FFD6E1" stroke-width=".96" stroke-linecap="round" stroke-linejoin="round"/>
    <path d="M356.328 109.385h70.791-70.791Z" fill="#FCF7F0"/>
    <path d="M356.328 109.385h70.791" stroke="#FFD6E1" stroke-width=".96" stroke-linecap="round" stroke-linejoin="round"/>
    <path d="M356.328 106.544h70.791-70.791Z" fill="#FCF7F0"/>
    <path d="M356.328 106.544h70.791" stroke="#FFD6E1" stroke-width=".96" stroke-linecap="round" stroke-linejoin="round"/>
  </g>
  <path clip-rule="evenodd" d="m395.129 106.747 20.775 16.557-27.586 17.123-20.775-16.556 27.586-17.124v0Z" stroke="#FFD6E1" stroke-width=".96" stroke-linecap="round" stroke-linejoin="round"/>
  <path d="m390.699 79 20.775 16.5563 4.429 27.7477-20.775-16.556L390.699 79Z" fill="#FEFDFB" stroke="#FFD6E1" stroke-width=".96" stroke-linecap="round" stroke-linejoin="round"/>
  <path d="M378.237 104.342c-.371 1.558-1.247 2.933-2.477 3.89l2.477-3.89Z" fill="#FCF7F0"/>
  <path d="M378.237 104.342c-.371 1.558-1.247 2.933-2.477 3.89" stroke="#FFD6E1" stroke-width=".96" stroke-linecap="round" stroke-linejoin="round"/>
  <path d="m407.196 96.8184-.348 1.0713.348-1.0713Z" fill="#FCF7F0"/>
  <path d="m407.196 96.8184-.348 1.0713" stroke="#FFD6E1" stroke-width=".96" stroke-linecap="round" stroke-linejoin="round"/>
  <mask id="c" fill="#fff">
    <path fill-rule="evenodd" clip-rule="evenodd" d="M16.5234 149C7.68688 149 .523438 156.163.523438 165v168c0 8.837 7.163432 16 15.999962 16H207.508l8.322 8.724c1.182 1.239 3.159 1.239 4.341 0l8.322-8.724h190.984c8.837 0 16-7.163 16-16V165c0-8.837-7.163-16-16-16H16.5234Z"/>
  </mask>
  <path fill-rule="evenodd" clip-rule="evenodd" d="M16.5234 149C7.68688 149 .523438 156.163.523438 165v168c0 8.837 7.163432 16 15.999962 16H207.508l8.322 8.724c1.182 1.239 3.159 1.239 4.341 0l8.322-8.724h190.984c8.837 0 16-7.163 16-16V165c0-8.837-7.163-16-16-16H16.5234Z" fill="url(#b)"/>
  <path d="m207.508 349 .724-.69-.296-.31h-.428v1Zm8.322 8.724-.724.69.724-.69Zm4.341 0 .724.69-.724-.69Zm8.322-8.724v-1h-.428l-.296.31.724.69ZM1.52344 165c0-8.284 6.71573-15 14.99996-15v-2c-9.3888 0-16.999962 7.611-16.999962 17H1.52344Zm0 168V165H-.476562v168H1.52344Zm14.99996 15c-8.28424 0-14.99996-6.716-14.99996-15H-.476562c0 9.389 7.611142 17 16.999962 17v-2Zm190.9846 0H16.5234v2H207.508v-2Zm9.045 9.034-8.321-8.724-1.448 1.38 8.322 8.724 1.447-1.38Zm2.895 0c-.788.826-2.107.826-2.895 0l-1.447 1.38c1.576 1.653 4.213 1.653 5.789 0l-1.447-1.38Zm8.321-8.724-8.321 8.724 1.447 1.38 8.321-8.724-1.447-1.38Zm191.708-.31H228.493v2h190.984v-2Zm15-15c0 8.284-6.715 15-15 15v2c9.389 0 17-7.611 17-17h-2Zm0-168v168h2V165h-2Zm-15-15c8.285 0 15 6.716 15 15h2c0-9.389-7.611-17-17-17v2Zm-402.9536 0H419.477v-2H16.5234v2Z" fill="#FFD6E1" mask="url(#c)"/>
  <path fill-rule="evenodd" clip-rule="evenodd" d="M302.631 1h-87.782c-2.476.00118-4.482 2.76945-4.481 6.18314V47.5011l-8.195 7.7734c-.655.6219-.215 1.7255.688 1.7255h7.507v10.6114c-.001 3.4136 2.005 6.1819 4.481 6.1831h87.782c2.475-.0011 4.481-2.7694 4.481-6.1831V7.18314c0-3.41371-2.006-6.18199-4.481-6.18314Z" fill="#fff"/>
  <path d="M214.849 1V.52h-.001l.001.48Zm87.782 0V.52 1Zm-92.263 6.18314h.48v-.00012l-.48.00012Zm0 40.31796.331.3483c.095-.0907.149-.2166.149-.3483h-.48Zm-8.195 7.7734-.33-.3483.33.3483ZM210.368 57h.48c0-.2651-.215-.48-.48-.48V57Zm0 10.6114.48.0001v-.0001h-.48Zm4.481 6.1831-.001.48h.001v-.48Zm66.925 0v-.48.48Zm20.857 0v.48h.001l-.001-.48Zm4.481-6.1831h-.48v.0001l.48-.0001Zm0-60.42826-.48-.00012v.00012h.48ZM214.849 1.48h87.782V.52h-87.782v.96Zm-4.001 5.70302c0-1.61674.475-3.06107 1.221-4.0895.745-1.02899 1.734-1.61302 2.78-1.61352l-.001-.96c-1.429.000682-2.681.80137-3.557 2.01024-.876 1.20941-1.403 2.85606-1.403 4.65301l.96-.00023Zm0 40.31808V7.18314h-.96V47.5011h.96Zm-8.344 8.1216 8.195-7.7733-.661-.6965-8.195 7.7733.661.6965Zm.357.8973c-.47 0-.698-.5739-.357-.8973l-.661-.6965c-.971.9204-.319 2.5538 1.018 2.5538v-.96Zm7.507 0h-7.507v.96h7.507v-.96Zm.48 11.0914V57h-.96v10.6114h.96Zm4.001 5.7031c-1.046-.0005-2.035-.5845-2.78-1.6135-.746-1.0285-1.221-2.4728-1.221-4.0895l-.96-.0003c0 1.797.527 3.4436 1.403 4.6531.876 1.2088 2.128 2.0095 3.557 2.0102l.001-.96Zm66.925 0h-66.925v.96h66.925v-.96Zm20.857 0h-20.857v.96h20.857v-.96Zm4.001-5.703c0 1.6167-.476 3.0611-1.221 4.0895-.745 1.029-1.734 1.613-2.78 1.6135l.001.96c1.429-.0006 2.681-.8013 3.557-2.0102.876-1.2094 1.403-2.8561 1.403-4.653l-.96.0002Zm0-60.42836V67.6114h.96V7.18314h-.96ZM302.631 1.48c1.046.00049 2.035.58452 2.78 1.6135.745 1.02844 1.221 2.47277 1.221 4.08952l.96.00023c0-1.79696-.527-3.44362-1.403-4.65303-.876-1.20887-2.128-2.009553-3.558-2.01022v.96Z" fill="#FFD6E1"/>
  <path fill-rule="evenodd" clip-rule="evenodd" d="m279.451 56.0462-12.661-7.7975-8.728-16.0367V16.75c.23 0 .46.1609.635.481l10.339 18.9963 10.338 18.9962c.174.3205.191.6113.077.8227Z" fill="#FE5907"/>
  <path fill-rule="evenodd" clip-rule="evenodd" d="M258.062 16.75v15.462l-8.728 16.0367-12.661 7.7975c-.114-.2114-.098-.5022.076-.8227l10.339-18.9962 10.339-18.9963c.175-.3205.405-.481.635-.481Z" fill="#9E1F63"/>
  <path fill-rule="evenodd" clip-rule="evenodd" d="m236.673 56.0465 12.66-7.7975h17.457l12.66 7.7975c-.114.2123-.359.344-.709.344h-41.359c-.349 0-.595-.1317-.709-.344Z" fill="#662D91"/>
  <path fill-rule="evenodd" clip-rule="evenodd" d="M266.79 48.2487h-17.456l8.728-16.0368 8.728 16.0368Z" fill="#fff"/>
  <path d="m224.22 9.45898-5.148 4.04882 5.148-4.04882Z" fill="#FCF7F0"/>
  <path d="m224.22 9.45898-5.148 4.04882" stroke="#FFD6E1" stroke-width=".96" stroke-linecap="round" stroke-linejoin="round"/>
  <path d="M296.436 56.4375c-.93 1.9269-2.268 3.6057-3.912 4.9084l3.912-4.9084Z" fill="#FCF7F0"/>
  <path d="M296.436 56.4375c-.93 1.9269-2.268 3.6057-3.912 4.9084" stroke="#FFD6E1" stroke-width=".96" stroke-linecap="round" stroke-linejoin="round"/>
  <path d="m297.884 61.8135-3.536 2.4454 3.536-2.4454Z" fill="#FCF7F0"/>
  <path d="m297.884 61.8135-3.536 2.4454" stroke="#FFD6E1" stroke-width=".96" stroke-linecap="round" stroke-linejoin="round"/>
  <g filter="url(#d)">
    <path d="m217.26 309.646-.04-.024-.138-.083c-.118-.072-.287-.176-.503-.311-.432-.27-1.054-.665-1.838-1.182-1.568-1.033-3.79-2.554-6.447-4.533-5.306-3.95-12.396-9.757-19.505-17.178-14.068-14.687-28.974-36.507-28.974-63.385 0-20.05 15.064-35.95 33.247-35.95 10.694 0 20.269 5.472 26.369 14.049 6.1-8.577 15.675-14.049 26.368-14.049 18.184 0 33.247 15.9 33.247 35.95 0 26.878-14.906 48.698-28.973 63.385-7.109 7.421-14.199 13.228-19.505 17.178-2.658 1.979-4.879 3.5-6.447 4.533-.785.517-1.406.912-1.838 1.182-.216.135-.385.239-.503.311l-.138.083-.04.024-.017.01c-1.345.8-2.963.8-4.308 0l-.017-.01Z" fill="#FEFDFB"/>
  </g>
  <path d="M.523438 45.2571c0-5.0996 4.134062-9.2337 9.233692-9.2337H158.853c5.099 0 9.234 4.1341 9.234 9.2337v32.589c0 5.0996-4.135 9.2337-9.234 9.2337H9.75713c-5.09963 0-9.233692-4.1341-9.233692-9.2337v-32.589Z" fill="#fff" stroke="#FFD6E1" stroke-width=".96" stroke-linecap="round" stroke-linejoin="round"/>
  <path d="M58.9844 53.3981c0-1.9485 1.5795-3.528 3.5279-3.528H142.31c1.949 0 3.528 1.5795 3.528 3.528 0 1.9484-1.579 3.5279-3.528 3.5279H62.5123c-1.9484 0-3.5279-1.5795-3.5279-3.5279Z" fill="url(#e)" stroke="#FFD6E1"/>
  <rect x="58.9844" y="62.0518" width="39.4852" height="6.93415" rx="3.46708" fill="url(#f)" stroke="#FFD6E1"/>
  <path d="M103.925 65.5188c0-1.9148 1.552-3.467 3.467-3.467h24.92c1.915 0 3.467 1.5522 3.467 3.467s-1.552 3.4671-3.467 3.4671h-24.92c-1.915 0-3.467-1.5523-3.467-3.4671Z" fill="url(#g)" stroke="#FFD6E1"/>
  <path d="m17.5223 61.6277-.0003-.0002c-1.4061-1.354-1.498-3.6342-.2114-5.1066 1.2986-1.4859 3.5129-1.5913 4.9357-.228l.0007.0006 7.6758 7.3813 13.8727-13.8004.0002-.0002c1.3994-1.3906 3.6175-1.3268 4.9417.1379 1.312 1.4511 1.2548 3.7348-.1313 5.1123 0 .0001-.0001.0002-.0002.0002l-16.237 16.1525-14.8466-9.6494Zm0 0 10.0781 9.6914m-10.0781-9.6914 10.0781 9.6914m0 0 .0004.0004c.6403.617 1.483.9629 2.3619.9622h.0011l-.0006-.5-2.3628-.4626Z" fill="url(#h)" stroke="#FFD6E1"/>
  <path d="m27.5741 45.7236-1.3954 1.4638 1.3954-1.4638Z" fill="#FCF7F0"/>
  <path d="m27.5741 45.7236-1.3954 1.4638" stroke="#FFD6E1" stroke-width=".96" stroke-linecap="round" stroke-linejoin="round"/>
  <path d="M172.635 71.5264c-2.504 2.3859-5.546 4.0642-8.84 4.8769l8.84-4.8769Z" fill="#FCF7F0"/>
  <path d="M172.635 71.5264c-2.504 2.3859-5.546 4.0642-8.84 4.8769" stroke="#FFD6E1" stroke-width=".96" stroke-linecap="round" stroke-linejoin="round"/>
  <path d="m336.096 146.704-5.023-.179-11.536-.41-8.555-.304-8.413 9.214 43.451.873-9.924-9.194Z" fill="#fff"/>
  <mask id="i" style="mask-type:luminance" maskUnits="userSpaceOnUse" x="302" y="145" width="45" height="11">
    <path fill-rule="evenodd" clip-rule="evenodd" d="m336.096 146.704-5.023-.179-11.536-.41-8.555-.304-8.413 9.214 43.451.873-9.924-9.194Z" fill="#fff"/>
  </mask>
  <g mask="url(#i)">
    <path d="M319.423 147.089c2.721 4.841 3.531 3.25 5.354 5.793 3.072 4.286 15.098 2.302 14.923 3.016-.176.714-15.011 4.841-15.011 4.841l-6.934-3.571.614-7.222" fill="#8C8AF5" fill-opacity=".2"/>
  </g>
  <path clip-rule="evenodd" d="m336.096 146.704-5.023-.179-11.536-.41-8.555-.304-8.413 9.214 43.451.873-9.924-9.194v0Z" stroke="#B6B4F8" stroke-width=".96" stroke-linecap="round" stroke-linejoin="round"/>
  <path d="m251.061 132.65 14.486 15.592 7.047-4.87s-9.988-13.44-11.186-15.088c-1.198-1.648-10.347 4.366-10.347 4.366Z" fill="#fff"/>
  <mask id="j" style="mask-type:luminance" maskUnits="userSpaceOnUse" x="251" y="127" width="22" height="22">
    <path fill-rule="evenodd" clip-rule="evenodd" d="m251.061 132.651 14.486 15.592 7.047-4.87s-9.988-13.44-11.186-15.088c-1.198-1.648-10.347 4.366-10.347 4.366Z" fill="#fff"/>
  </mask>
  <g mask="url(#j)">
    <path d="M261.791 130.087c.383 7.415-3.449 5.821-1.916 9.425 1.533 3.603-.92 6.236-1.84 6.444-.919.208-6.132-9.84-6.132-9.84l4.063-2.356 5.825-3.673Z" fill="#BAB9F9"/>
  </g>
  <path clip-rule="evenodd" d="m251.061 132.65 14.486 15.592 7.047-4.87s-9.988-13.44-11.186-15.088c-1.198-1.648-10.347 4.366-10.347 4.366Z" stroke="#B6B4F8" stroke-width=".96" stroke-linecap="round" stroke-linejoin="round"/>
  <path d="m259.395 144.607.594 4.998c.195 1.647 1.989 2.735 3.75 2.273l25.784-6.764c-.648-2.205-2.655-3.868-5.141-4.26l-15.383-2.426s1.063 3.616-9.604 6.179ZM331.91 146.555s5.03 6.607 1.558 9.343l19.241 3.826c7.821 1.417 10.577.54 10.096-1.796l.481-.25-23.159-11.867-8.217.744Z" fill="#BAB9F9" stroke="#B6B4F8" stroke-width=".96" stroke-linecap="round" stroke-linejoin="round"/>
  <path d="M114.056 158.221c4.756.623 13.674-1.248 14.268-.624.595.624-1.189 1.871-1.189 1.871s10.702.624 8.918 4.366c-.958 2.011-7.729-.624-10.107 0-2.378.623-7.729 1.871-11.89-1.248-4.162-3.118.594-3.742.594-3.742" fill="#fff"/>
  <path d="M114.056 158.221c4.756.623 13.674-1.248 14.268-.624.595.624-1.189 1.871-1.189 1.871s10.702.624 8.918 4.366c-.958 2.011-7.729-.624-10.107 0-2.378.623-7.729 1.871-11.89-1.248-4.162-3.118.594-3.742.594-3.742" stroke="#B6B4F8" stroke-width=".96" stroke-linecap="round" stroke-linejoin="round"/>
  <path d="M167.562 62.1738s8.605-8.4625 10.801-20.5414c.256-1.4053.739-2.7542 1.429-3.9882 2.189-3.9134 6.942-11.9136 9.08-11.6372 2.828.3654-4.068 9.972-4.068 9.972s3.032 4.0815 3.567 6.8605c.535 2.7789-.274 4.1431-3.459 7.4842-4.756 4.9895-6.054 12.4737-6.054 12.4737l-11.296-.6236Z" fill="#fff"/>
  <mask id="k" style="mask-type:luminance" maskUnits="userSpaceOnUse" x="167" y="26" width="23" height="37">
    <path fill-rule="evenodd" clip-rule="evenodd" d="M167.562 62.1738s8.605-8.4625 10.801-20.5414c.256-1.4053.739-2.7542 1.429-3.9882 2.189-3.9134 6.942-11.9136 9.08-11.6372 2.828.3654-4.068 9.972-4.068 9.972s3.032 4.0815 3.567 6.8605c.535 2.7789-.274 4.1431-3.459 7.4842-4.756 4.9895-6.054 12.4737-6.054 12.4737l-11.296-.6236Z" fill="#fff"/>
  </mask>
  <g mask="url(#k)">
    <path d="M177.192 47.3174c6.67 6.9974 7.504.8746 10.839 2.624l1.668.8747-5.276 6.1912-1.394.8062-6.671-10.4961" fill="#BAB9F9"/>
  </g>
  <path clip-rule="evenodd" d="M167.562 62.1738s8.605-8.4625 10.801-20.5414c.256-1.4053.739-2.7542 1.429-3.9882 2.189-3.9134 6.942-11.9136 9.08-11.6372 2.828.3654-4.068 9.972-4.068 9.972s3.032 4.0815 3.567 6.8605c.535 2.7789-.274 4.1431-3.459 7.4842-4.756 4.9895-6.054 12.4737-6.054 12.4737l-11.296-.6236Z" stroke="#B6B4F8" stroke-width=".96" stroke-linecap="round" stroke-linejoin="round"/>
  <path d="M175.939 46.8486c6.527 2.5434 8.865 8.4636 8.865 8.4636s-6.487 23.9681-11.243 31.4523c-4.756 7.4843-19.619 28.0655-19.619 28.0655l-39.239-14.344s38.644-16.2161 43.4-23.0767c4.757-6.8605 17.836-30.5607 17.836-30.5607Z" fill="#D1D0FB"/>
  <mask id="l" style="mask-type:luminance" maskUnits="userSpaceOnUse" x="114" y="46" width="71" height="69">
    <path fill-rule="evenodd" clip-rule="evenodd" d="M175.939 46.8486c6.527 2.5434 8.865 8.4636 8.865 8.4636s-6.487 23.9681-11.243 31.4523c-4.756 7.4843-19.619 28.0655-19.619 28.0655l-39.239-14.344s38.644-16.2161 43.4-23.0767c4.757-6.8605 17.836-30.5607 17.836-30.5607Z" fill="#fff"/>
  </mask>
  <g mask="url(#l)">
    <path d="M128.126 101.216c20.83-.954 27.592 11.113 40.364-6.9091 12.772-18.022 4.267 19.6521 4.267 19.6521l-27.052 8.614-18.206-5.267" fill="#BAB9F9"/>
  </g>
  <path clip-rule="evenodd" d="M175.939 46.8486c6.527 2.5434 8.865 8.4636 8.865 8.4636s-6.487 23.9681-11.243 31.4523c-4.756 7.4843-19.619 28.0655-19.619 28.0655l-39.239-14.344s38.644-16.2161 43.4-23.0767c4.757-6.8605 17.836-30.5607 17.836-30.5607Z" stroke="#B6B4F8" stroke-width=".96" stroke-linecap="round" stroke-linejoin="round"/>
  <path d="M253.432 140.402s8.851-5.257 12.115-8.376c0 0-14.487-42.6877-29.434-44.3509-6.516-.725-69.187 29.0269-69.187 29.0269l11.498 23.076s-13.801-19.334-6.529 1.248c7.272 20.581 55.708-18.659 60.734-23.968l20.803 23.344Z" fill="#fff"/>
  <mask id="m" style="mask-type:luminance" maskUnits="userSpaceOnUse" x="166" y="87" width="100" height="60">
    <path fill-rule="evenodd" clip-rule="evenodd" d="M253.432 140.402s8.851-5.257 12.115-8.376c0 0-14.487-42.6877-29.434-44.3509-6.516-.725-69.187 29.0269-69.187 29.0269l11.498 23.076s-13.801-19.334-6.529 1.248c7.272 20.581 55.708-18.659 60.734-23.968l20.803 23.344Z" fill="#fff"/>
  </mask>
  <g mask="url(#m)">
    <path d="m263.116 119.475-20.135 16.178 8.997 9.553 20.615-10.152-10.766-17.748" fill="#fff"/>
    <path d="m263.116 119.475-20.135 16.178 8.997 9.553 20.615-10.152-10.766-17.748" stroke="#B6B4F8" stroke-width=".96" stroke-linecap="round" stroke-linejoin="round"/>
  </g>
  <path clip-rule="evenodd" d="M253.432 140.402s8.851-5.257 12.115-8.376c0 0-14.487-42.6877-29.434-44.3509-6.516-.725-69.187 29.0269-69.187 29.0269l11.498 23.076s-13.801-19.334-6.529 1.248c7.272 20.581 55.708-18.659 60.734-23.968l20.803 23.344Z" stroke="#B6B4F8" stroke-width=".96" stroke-linecap="round" stroke-linejoin="round"/>
  <path d="M189.517 130.566c24.488 3.459 62.12 8.739 64.265 8.815 3.194.114 61.176 5.234 65.396 6.071 4.22.836 5.817 13.21 4.485 14.39 0 0-66.099-1.259-75.683-1.6-9.583-.341-90.601 10.792-97.057-6.291-5.036-13.326 17.785-24.334 17.785-24.334" fill="#fff"/>
  <mask id="n" style="mask-type:luminance" maskUnits="userSpaceOnUse" x="150" y="127" width="175" height="35">
    <path fill-rule="evenodd" clip-rule="evenodd" d="M189.517 130.566c24.488 3.459 62.12 8.739 64.265 8.815 3.194.114 61.176 5.234 65.396 6.071 4.22.836 5.817 13.21 4.485 14.39 0 0-66.099-1.259-75.683-1.6-9.583-.341-90.601 10.792-97.057-6.291-5.036-13.326 17.785-24.334 17.785-24.334" fill="#fff"/>
  </mask>
  <g mask="url(#n)">
    <path d="M172.472 122.923c16.564 2.696-17.136 36.592 23.704 37.021 40.839.429-44.267 21.101-44.267 21.101s-10.567-33.574-9.71-33.265c.857.309 23.26-17.838 23.26-17.838" fill="#8C8AF5" fill-opacity=".2"/>
    <path d="M307.955 141.271c7.925 7.64 5.569 24.268 5.569 24.268l14.565-.225-5.354-25.616" fill="#fff"/>
    <path d="M307.955 141.271c7.925 7.64 5.569 24.268 5.569 24.268l14.565-.225-5.354-25.616" stroke="#B6B4F8" stroke-width=".96" stroke-linecap="round" stroke-linejoin="round"/>
    <path d="M177.725 134.604c9.71 5.693 3.569 17.38 3.569 17.38l-3.569-17.38Z" fill="#fff"/>
    <path d="M177.725 134.604c9.71 5.693 3.569 17.38 3.569 17.38" stroke="#B6B4F8" stroke-width=".96" stroke-linecap="round" stroke-linejoin="round"/>
  </g>
  <path d="M189.517 130.566c24.488 3.459 62.12 8.739 64.265 8.815 3.194.114 61.176 5.234 65.396 6.071 4.22.836 5.817 13.21 4.485 14.39 0 0-66.099-1.259-75.683-1.6-9.583-.341-90.601 10.792-97.057-6.291-5.036-13.326 17.785-24.334 17.785-24.334" stroke="#B6B4F8" stroke-width=".96" stroke-linecap="round" stroke-linejoin="round"/>
  <path d="M138.263 101.084c4.216 2.042 8.089 4.789 11.465 8.133 10.107 9.979 29.131-6.237 29.184 13.097.03 10.893-14.863 46.153-30.915 40.54-16.052-5.613-51.129-12.474-51.129-12.474l-1.1891-22.452-.0529-12.742s16.503-15.866 26.868-18.0835" fill="#D1D0FB"/>
  <mask id="o" style="mask-type:luminance" maskUnits="userSpaceOnUse" x="95" y="97" width="84" height="67">
    <path fill-rule="evenodd" clip-rule="evenodd" d="M138.263 101.084c4.216 2.042 8.089 4.789 11.465 8.133 10.107 9.979 29.131-6.237 29.184 13.097.03 10.893-14.863 46.153-30.915 40.54-16.052-5.613-51.129-12.474-51.129-12.474l-1.1891-22.452-.0529-12.742s16.503-15.866 26.868-18.0835" fill="#fff"/>
  </mask>
  <g mask="url(#o)">
    <path d="M100.996 124.81c5.35 9.979 4.737 20.937 19.6 24.056 14.864 3.118 38.05 21.205 38.05 21.829 0 .623-54.102 6.236-54.102 6.236l-21.9971-23.076 18.4491-29.045Z" fill="#8C8AF5" fill-opacity=".2"/>
    <path d="M114.702 101.069c1.659 3.015 1.363 10.035-3.863 13.2-5.226 3.166-13.4033 1.278-15.063-1.738-1.6597-3.015 1.2315-8.026 6.458-11.192 5.226-3.1649 10.808-3.2862 12.468-.27Z" fill="#fff" stroke="#B6B4F8" stroke-width=".96" stroke-linecap="round" stroke-linejoin="round"/>
  </g>
  <path d="M138.263 101.084c4.216 2.042 8.089 4.789 11.465 8.133 10.107 9.979 29.131-6.237 29.184 13.097.03 10.893-14.863 46.153-30.915 40.54-16.052-5.613-51.129-12.474-51.129-12.474l-1.1891-22.452-.0529-12.742s16.503-15.866 26.868-18.0835" stroke="#B6B4F8" stroke-width=".96" stroke-linecap="round" stroke-linejoin="round"/>
  <path d="M103.102 94.4873c.866 6.4307 6.241 8.9507 8.804 9.7957.365.121.662.4.817.767.154.367.151.785-.01 1.149-1.1 2.492-4.111 7.08-11.278 6.644-.735-.045-1.352-.598-1.5075-1.353-.2931-1.433-1.4787-4.039-5.8619-7.217-6.7397-4.8878 9.0364-9.7857 9.0364-9.7857Z" fill="#fff"/>
  <mask id="p" style="mask-type:luminance" maskUnits="userSpaceOnUse" x="92" y="94" width="21" height="19">
    <path fill-rule="evenodd" clip-rule="evenodd" d="M103.102 94.4873c.866 6.4307 6.241 8.9507 8.804 9.7957.365.121.662.4.817.767.154.367.151.785-.01 1.149-1.1 2.492-4.111 7.08-11.278 6.644-.735-.045-1.352-.598-1.5075-1.353-.2931-1.433-1.4787-4.039-5.8619-7.217-6.7397-4.8878 9.0364-9.7857 9.0364-9.7857Z" fill="#fff"/>
  </mask>
  <g mask="url(#p)">
    <ellipse cx="10.99" cy="9.32395" rx="10.99" ry="9.32395" transform="matrix(.475 -.87999 .86003 .51024 92.9287 96.8682)" fill="#BAB9F9"/>
  </g>
  <path clip-rule="evenodd" d="M103.102 94.4873c.866 6.4307 6.241 8.9507 8.804 9.7957.365.121.662.4.817.767.154.367.151.785-.01 1.149-1.1 2.492-4.111 7.08-11.278 6.644-.735-.045-1.352-.598-1.5075-1.353-.2931-1.433-1.4787-4.039-5.8619-7.217-6.7397-4.8878 9.0364-9.7857 9.0364-9.7857Z" stroke="#B6B4F8" stroke-width=".96" stroke-linecap="round" stroke-linejoin="round"/>
  <path d="M101.492 102.088c5.505-3.0578 9.187-9.5411-7.07-22.8146l-8.2435 2.44-2.2179 8.2321s-1.3653 2.5408-.934 3.4784c.4314.9375 18.4094 19.4191 18.4094 19.4191" fill="#fff"/>
  <mask id="q" style="mask-type:luminance" maskUnits="userSpaceOnUse" x="82" y="79" width="25" height="34">
    <path fill-rule="evenodd" clip-rule="evenodd" d="M101.492 102.088c5.505-3.0578 9.187-9.5411-7.07-22.8146l-8.2435 2.44-2.2179 8.2321s-1.3653 2.5408-.934 3.4784c.4314.9375 18.4094 19.4191 18.4094 19.4191" fill="#fff"/>
  </mask>
  <g mask="url(#q)">
    <ellipse cx="2.5686" cy="1.97044" rx="2.5686" ry="1.97044" transform="matrix(.74427 -.66788 .63243 .77462 100.783 88.0205)" fill="#BAB9F9" opacity=".27"/>
    <ellipse cx="2.5686" cy="1.97044" rx="2.5686" ry="1.97044" transform="matrix(.74427 -.66788 .63243 .77462 91.748 96.1152)" fill="#BAB9F9" opacity=".27"/>
    <path d="M97.9746 85.1633c.3517-.3639.9182-.36 1.2653.0087l1.0611 1.1274c.348.3687.344.9626-.008 1.3265-.3515.3639-.918.3601-1.2651-.0086l-1.0615-1.1275c-.3471-.3686-.3434-.9625.0082-1.3264v-.0001ZM92.8897 89.6839c.1689-.1748.3971-.2721.6343-.2704.2373.0016.4643.102.631.279l1.0615 1.1275c.3471.3687.3434.9626-.0083 1.3265-.3517.3639-.9181.36-1.2653-.0087l-1.0615-1.1275c-.3471-.3686-.3434-.9625.0083-1.3265v.0001Z" fill="#B6B4F8"/>
    <path d="M96.6541 83.4237c1.6734-.9471 2.0142.1663 1.005.8299-1.0093.6637-2.0982-.2111-1.005-.8299ZM91.3994 88.016c-.9257 1.7423-.0211 2.1599.6252 1.1103.6463-1.0496-.0205-2.2486-.6252-1.1103ZM97.4041 90.4262c.3734.4991.6327-.0341 1.1352-.4477.5025-.4137 1.0578-.5512.6845-1.0502-.4058-.485-1.1024-.5527-1.5864-.1543-.4839.3984-.5864 1.1239-.2333 1.6522ZM102.26 90.7c2.134 4.0766-2.199 5.3324-3.973 3.1844-.0901-.1128-.1034-.2726-.0333-.4.291-.5432 1.2463-1.9815 3.5843-2.9423.159-.0648.338.0025.422.1579Z" fill="#BAB9F9"/>
    <mask id="r" style="mask-type:luminance" maskUnits="userSpaceOnUse" x="98" y="90" width="5" height="5">
      <path fill-rule="evenodd" clip-rule="evenodd" d="M102.26 90.7c2.134 4.0766-2.199 5.3324-3.973 3.1844-.0901-.1128-.1034-.2726-.0333-.4.291-.5432 1.2463-1.9815 3.5843-2.9423.159-.0648.338.0025.422.1579Z" fill="#fff"/>
    </mask>
    <g mask="url(#r)">
      <ellipse cx="2.23609" cy="2.06971" rx="2.23609" ry="2.06971" transform="matrix(.93244 -.36133 .3325 .9431 98.5996 93.582)" fill="#BAB9F9" opacity=".29"/>
      <path d="M101.223 90.6406c.178.2386.397.5803.382.6878-.094.6625-1.9834 1.9557-2.3799 1.9474-.1104-.0024-.6929-.7626-.6929-.7626l2.3258-1.7807" fill="#fff"/>
    </g>
  </g>
  <path d="M101.492 102.088c5.505-3.0578 9.187-9.5411-7.07-22.8146l-8.2435 2.44-2.2179 8.2321s-1.3653 2.5408-.934 3.4784c.4314.9375 18.4094 19.4191 18.4094 19.4191" stroke="#B6B4F8" stroke-width=".96" stroke-linecap="round" stroke-linejoin="round"/>
  <path d="M88.9681 97.2352c-3.3821-4.3568-.5987-13.3954 5.454-17.9628 6.0529-4.5674-6.9955-16.2825-12.8852-7.2895 0 0-14.7632 4.1164-7.4341 17.7126.8001 1.4843.4034 3.3812-.4005 4.8632-1.3231 2.4388-3.0421 5.9273 2.4669 8.2873 1.8885.809 4.3244-.093 5.2976 1.787 1.9247 3.72 9.068 5.466 10.9243 1.359 3.6276-8.0253-3.423-8.7568-3.423-8.7568Z" fill="#fff" stroke="#B6B4F8" stroke-width=".96" stroke-linecap="round" stroke-linejoin="round"/>
  <path d="m88.8875 96.7056.5922-1.8286s-.5285-9.3031 7.326-13.5809l-2.9672-2.6516S82.6548 90.3037 86.7342 96.117l1.7334.3614.4199.2272Z" fill="#BAB9F9" stroke="#B6B4F8" stroke-width=".96" stroke-linecap="round" stroke-linejoin="round"/>
  <path d="M90.4111 94.1469s-4.9121-1.5915-4.9121 1.5914 8.1994 3.314 8.1994 3.314" fill="#fff"/>
  <path d="M90.4111 94.1469s-4.9121-1.5915-4.9121 1.5914 8.1994 3.314 8.1994 3.314" stroke="#B6B4F8" stroke-width=".96" stroke-linecap="round" stroke-linejoin="round"/>
  <path d="M127.135 159.468c5.706-.46 14.494-.409 17.577-1.079 1.633-.355 3.334-.06 4.772.827 7.367 4.547 8.867 4.23 8.867 5.398 0 1.247-28.378 2.191-28.378 2.191l-4.027-2.971" fill="#fff"/>
  <mask id="s" style="mask-type:luminance" maskUnits="userSpaceOnUse" x="125" y="158" width="34" height="9">
    <path fill-rule="evenodd" clip-rule="evenodd" d="M127.135 159.469c5.706-.46 14.494-.409 17.577-1.079 1.633-.355 3.334-.06 4.772.827 7.367 4.547 8.867 4.229 8.867 5.398 0 1.247-28.378 2.191-28.378 2.191l-4.027-2.971" fill="#fff"/>
  </mask>
  <g mask="url(#s)">
    <path d="M134.634 157.469c6.104 3.217 3.32 9.053 9.531 9.337 6.212.283-11.78 3.654-11.78 3.654l-1.285-9.418" fill="#BAB9F9"/>
  </g>
  <path d="M127.135 159.468c5.706-.46 14.494-.409 17.577-1.079 1.633-.355 3.334-.06 4.772.827 7.367 4.547 8.867 4.23 8.867 5.398 0 1.247-28.378 2.191-28.378 2.191l-4.027-2.971" stroke="#B6B4F8" stroke-width=".96" stroke-linecap="round" stroke-linejoin="round"/>
  <path d="M103.335 127.617c1.545 9.02 1.261 19.646 1.261 19.646l31.457 9.979s2.378 4.366 1.783 9.979c0 0-49.3452 7.484-52.3178-4.989-2.9727-12.474 2.378-47.313 10.7014-47.045" fill="#D1D0FB"/>
  <path d="M103.335 127.617c1.545 9.02 1.261 19.646 1.261 19.646l31.457 9.979s2.378 4.366 1.783 9.979c0 0-49.3452 7.484-52.3178-4.989-2.9727-12.474 2.378-47.313 10.7014-47.045" stroke="#B6B4F8" stroke-width=".96" stroke-linecap="round" stroke-linejoin="round"/>
  <path d="M81.374 72.1602c-.4426.8442-.4069 1.8752.093 2.6835l-.093-2.6835Z" fill="#FCF7F0"/>
  <path d="M81.374 72.1602c-.4426.8442-.4069 1.8752.093 2.6835" stroke="#B6B4F8" stroke-width=".96" stroke-linecap="round" stroke-linejoin="round"/>
  <path d="M74.1865 89.9688c.3657 1.0712 1.064 1.9827 1.9829 2.5882l-1.9829-2.5882Z" fill="#FCF7F0"/>
  <path d="M74.1865 89.9688c.3657 1.0712 1.064 1.9827 1.9829 2.5882" stroke="#B6B4F8" stroke-width=".96" stroke-linecap="round" stroke-linejoin="round"/>
  <path d="m88.6547 95.8443-.0712.1121.0712-.1121Z" fill="#FCF7F0"/>
  <path d="m88.6547 95.8443-.0712.1121" stroke="#B6B4F8" stroke-width=".96" stroke-linecap="round" stroke-linejoin="round"/>
  <path d="M104.689 147.34c-.48 1.048-1.138 1.996-1.942 2.796l1.942-2.796Z" fill="#FCF7F0"/>
  <path d="M104.689 147.34c-.48 1.048-1.138 1.996-1.942 2.796" stroke="#B6B4F8" stroke-width=".96" stroke-linecap="round" stroke-linejoin="round"/>
  <path d="m170.438 85.6357 2.708.768-2.708-.768Z" fill="#FCF7F0"/>
  <path d="m170.438 85.6357 2.708.768" stroke="#B6B4F8" stroke-width=".96" stroke-linecap="round" stroke-linejoin="round"/>
  <path d="M232.656 113.645c.238 1.071.164 2.193-.212 3.221l.212-3.221Z" fill="#FCF7F0"/>
  <path d="M232.656 113.645c.238 1.071.164 2.193-.212 3.221M131.077 128.469c-.341 3.003-1.556 5.824-3.478 8.079M336.505 156.032c1.22 1.767 2.771 3.255 4.558 4.373M336.369 155.875l-1.688 1.676M269.679 135.205c.13.976.37 1.931.715 2.847M271.987 135.068c-.572.892-1.077 1.828-1.511 2.802" stroke="#B6B4F8" stroke-width=".96" stroke-linecap="round" stroke-linejoin="round"/>
  <path d="m233.1 147.864-1.194 7.181 1.194-7.181Z" fill="#FCF7F0"/>
  <path d="m233.1 147.864-1.194 7.181" stroke="#B6B4F8" stroke-width=".96" stroke-linecap="round" stroke-linejoin="round"/>
  <path d="M83.6544 86.8789v1.1984-1.1984Z" fill="#FCF7F0"/>
  <path d="M83.6544 86.8789v1.1984" stroke="#B6B4F8" stroke-width=".96" stroke-linecap="round" stroke-linejoin="round"/>
  <defs>
    <linearGradient id="b" x1="218" y1="158.626" x2="218" y2="360.024" gradientUnits="userSpaceOnUse">
      <stop offset=".208333" stop-color="#FFFBFA"/>
      <stop offset="1" stop-color="#FFF4F0"/>
    </linearGradient>
    <linearGradient id="e" x1="113.857" y1="49.3701" x2="113.857" y2="57.426" gradientUnits="userSpaceOnUse">
      <stop offset=".208333" stop-color="#FFFBFA"/>
      <stop offset="1" stop-color="#FFF4F0"/>
    </linearGradient>
    <linearGradient id="f" x1="78.727" y1="61.5518" x2="78.727" y2="69.4859" gradientUnits="userSpaceOnUse">
      <stop offset=".208333" stop-color="#FFFBFA"/>
      <stop offset="1" stop-color="#FFF4F0"/>
    </linearGradient>
    <linearGradient id="g" x1="123.667" y1="61.5518" x2="123.667" y2="69.4859" gradientUnits="userSpaceOnUse">
      <stop offset=".208333" stop-color="#FFFBFA"/>
      <stop offset="1" stop-color="#FFF4F0"/>
    </linearGradient>
    <linearGradient id="h" x1="33.0441" y1="49.3711" x2="33.0441" y2="71.7817" gradientUnits="userSpaceOnUse">
      <stop offset=".208333" stop-color="#FFFBFA"/>
      <stop offset="1" stop-color="#FFF4F0"/>
    </linearGradient>
    <filter id="d" x="123.815" y="151" width="191.23" height="195.257" filterUnits="userSpaceOnUse" color-interpolation-filters="sRGB">
      <feFlood flood-opacity="0" result="BackgroundImageFix"/>
      <feColorMatrix in="SourceAlpha" type="matrix" values="0 0 0 0 0 0 0 0 0 0 0 0 0 0 0 0 0 0 127 0" result="hardAlpha"/>
      <feOffset/>
      <feGaussianBlur stdDeviation="18"/>
      <feComposite in2="hardAlpha" operator="out"/>
      <feColorMatrix type="matrix" values="0 0 0 0 1 0 0 0 0 0.8 0 0 0 0 0.85098 0 0 0 0.3 0"/>
      <feBlend mode="normal" in2="BackgroundImageFix" result="effect1_dropShadow_589_17091"/>
      <feBlend mode="normal" in="SourceGraphic" in2="effect1_dropShadow_589_17091" result="shape"/>
    </filter>
  </defs>
</svg>
