<svg fill="none" xmlns="http://www.w3.org/2000/svg" viewBox="0 0 436 358">
  <path d="m395.128 105.748-27.586 17.124-4.429-27.7479L390.699 78l4.429 27.748Z" fill="#02010E" stroke="#2A2956" stroke-width=".96" stroke-linecap="round" stroke-linejoin="round"/>
  <path d="m395.129 105.747 20.775 16.557-27.586 17.123-20.775-16.556 27.586-17.124Z" fill="#17171C"/>
  <mask id="a" style="mask-type:luminance" maskUnits="userSpaceOnUse" x="367" y="105" width="49" height="35">
    <path fill-rule="evenodd" clip-rule="evenodd" d="m395.129 105.748 20.775 16.556-27.586 17.124-20.775-16.556 27.586-17.124Z" fill="#fff"/>
  </mask>
  <g mask="url(#a)">
    <path d="M356.328 139.631h70.791-70.791Z" fill="#17171C"/>
    <path d="M356.328 139.631h70.791" stroke="#2A2956" stroke-width=".96" stroke-linecap="round" stroke-linejoin="round"/>
    <path d="M356.328 136.791h70.791-70.791Z" fill="#17171C"/>
    <path d="M356.328 136.791h70.791" stroke="#2A2956" stroke-width=".96" stroke-linecap="round" stroke-linejoin="round"/>
    <path d="M356.328 133.951h70.791-70.791Z" fill="#17171C"/>
    <path d="M356.328 133.951h70.791" stroke="#2A2956" stroke-width=".96" stroke-linecap="round" stroke-linejoin="round"/>
    <path d="M356.328 131.11h70.791-70.791Z" fill="#17171C"/>
    <path d="M356.328 131.11h70.791" stroke="#2A2956" stroke-width=".96" stroke-linecap="round" stroke-linejoin="round"/>
    <path d="M356.328 128.27h70.791-70.791Z" fill="#17171C"/>
    <path d="M356.328 128.27h70.791" stroke="#2A2956" stroke-width=".96" stroke-linecap="round" stroke-linejoin="round"/>
    <path d="M356.328 125.428h70.791-70.791Z" fill="#17171C"/>
    <path d="M356.328 125.428h70.791" stroke="#2A2956" stroke-width=".96" stroke-linecap="round" stroke-linejoin="round"/>
    <path d="M356.328 122.588h70.791-70.791Z" fill="#17171C"/>
    <path d="M356.328 122.588h70.791" stroke="#2A2956" stroke-width=".96" stroke-linecap="round" stroke-linejoin="round"/>
    <path d="M356.328 119.747h70.791-70.791Z" fill="#17171C"/>
    <path d="M356.328 119.747h70.791" stroke="#2A2956" stroke-width=".96" stroke-linecap="round" stroke-linejoin="round"/>
    <path d="M356.328 116.907h70.791-70.791Z" fill="#17171C"/>
    <path d="M356.328 116.907h70.791" stroke="#2A2956" stroke-width=".96" stroke-linecap="round" stroke-linejoin="round"/>
    <path d="M356.328 114.066h70.791-70.791Z" fill="#17171C"/>
    <path d="M356.328 114.066h70.791" stroke="#2A2956" stroke-width=".96" stroke-linecap="round" stroke-linejoin="round"/>
    <path d="M356.328 111.225h70.791-70.791Z" fill="#17171C"/>
    <path d="M356.328 111.225h70.791" stroke="#2A2956" stroke-width=".96" stroke-linecap="round" stroke-linejoin="round"/>
    <path d="M356.328 108.385h70.791-70.791Z" fill="#17171C"/>
    <path d="M356.328 108.385h70.791" stroke="#2A2956" stroke-width=".96" stroke-linecap="round" stroke-linejoin="round"/>
    <path d="M356.328 105.544h70.791-70.791Z" fill="#17171C"/>
    <path d="M356.328 105.544h70.791" stroke="#2A2956" stroke-width=".96" stroke-linecap="round" stroke-linejoin="round"/>
  </g>
  <path clip-rule="evenodd" d="m395.129 105.747 20.775 16.557-27.586 17.123-20.775-16.556 27.586-17.124v0Z" stroke="#2A2956" stroke-width=".96" stroke-linecap="round" stroke-linejoin="round"/>
  <path d="m390.699 78 20.775 16.5563 4.429 27.7477-20.775-16.556L390.699 78Z" fill="#17171C" stroke="#2A2956" stroke-width=".96" stroke-linecap="round" stroke-linejoin="round"/>
  <path d="M378.237 103.342c-.371 1.558-1.247 2.933-2.477 3.89l2.477-3.89Z" fill="#17171C"/>
  <path d="M378.237 103.342c-.371 1.558-1.247 2.933-2.477 3.89" stroke="#2A2956" stroke-width=".96" stroke-linecap="round" stroke-linejoin="round"/>
  <path d="m407.196 95.8184-.348 1.0713.348-1.0713Z" fill="#17171C"/>
  <path d="m407.196 95.8184-.348 1.0713" stroke="#2A2956" stroke-width=".96" stroke-linecap="round" stroke-linejoin="round"/>
  <mask id="c" fill="#fff">
    <path fill-rule="evenodd" clip-rule="evenodd" d="M435.477 156c0-4.418-3.581-8-8-8H8.52344c-4.41828 0-8.000002 3.582-8.000002 8v184c0 4.418 3.581732 8 8.000012 8H204.083c2.187 0 4.279.896 5.789 2.478l5.958 6.246c1.182 1.239 3.159 1.239 4.341 0l5.958-6.246c1.509-1.582 3.601-2.478 5.789-2.478h195.559c4.419 0 8-3.582 8-8V156Z"/>
  </mask>
  <path fill-rule="evenodd" clip-rule="evenodd" d="M435.477 156c0-4.418-3.581-8-8-8H8.52344c-4.41828 0-8.000002 3.582-8.000002 8v184c0 4.418 3.581732 8 8.000012 8H204.083c2.187 0 4.279.896 5.789 2.478l5.958 6.246c1.182 1.239 3.159 1.239 4.341 0l5.958-6.246c1.509-1.582 3.601-2.478 5.789-2.478h195.559c4.419 0 8-3.582 8-8V156Z" fill="url(#b)"/>
  <path d="m215.83 356.724-.724.69.724-.69Zm4.341 0 .724.69-.724-.69Zm-10.299-6.246.724-.69-.724.69Zm16.257 0-.724-.69.724.69ZM8.52344 149H427.477v-2H8.52344v2Zm-7 191V156H-.476562v184H1.52344Zm202.55956 7H8.52345v2H204.083v-2Zm12.47 9.034-5.957-6.246-1.448 1.381 5.958 6.245 1.447-1.38Zm2.895 0c-.788.826-2.107.826-2.895 0l-1.447 1.38c1.576 1.653 4.213 1.653 5.789 0l-1.447-1.38Zm5.957-6.246-5.957 6.246 1.447 1.38 5.957-6.245-1.447-1.381ZM427.477 347H231.918v2h195.559v-2Zm7-191v184h2V156h-2Zm-7 193c4.971 0 9-4.029 9-9h-2c0 3.866-3.134 7-7 7v2Zm-223.394 0c1.914 0 3.744.784 5.065 2.169l1.448-1.381c-1.699-1.78-4.052-2.788-6.513-2.788v2ZM-.476562 340c0 4.971 4.029452 9 9.000012 9v-2c-3.866 0-7.00001-3.134-7.00001-7H-.476562ZM226.852 351.169c1.321-1.385 3.152-2.169 5.066-2.169v-2c-2.461 0-4.814 1.008-6.513 2.788l1.447 1.381ZM427.477 149c3.866 0 7 3.134 7 7h2c0-4.971-4.029-9-9-9v2ZM8.52344 147c-4.97057 0-9.000002 4.029-9.000002 9H1.52344c0-3.866 3.134-7 7-7v-2Z" fill="#2A2956" mask="url(#c)"/>
  <mask id="e" fill="#fff">
    <path fill-rule="evenodd" clip-rule="evenodd" d="M302.631 0h-87.782c-2.476.00118-4.482 2.76945-4.481 6.18314V46.5011l-8.195 7.7734c-.655.6219-.215 1.7255.688 1.7255h7.507v10.6114c-.001 3.4136 2.005 6.1819 4.481 6.1831h87.782c2.475-.0011 4.481-2.7694 4.481-6.1831V6.18314c0-3.41371-2.006-6.181985-4.481-6.18314Z"/>
  </mask>
  <path fill-rule="evenodd" clip-rule="evenodd" d="M302.631 0h-87.782c-2.476.00118-4.482 2.76945-4.481 6.18314V46.5011l-8.195 7.7734c-.655.6219-.215 1.7255.688 1.7255h7.507v10.6114c-.001 3.4136 2.005 6.1819 4.481 6.1831h87.782c2.475-.0011 4.481-2.7694 4.481-6.1831V6.18314c0-3.41371-2.006-6.181985-4.481-6.18314Z" fill="url(#d)"/>
  <path d="M214.849 0v-1h-.001l.001 1Zm87.782 0 .001-1h-.001v1Zm-92.263 6.18314h1V6.1829l-1 .00024Zm0 40.31796.688.7256.312-.2958v-.4298h-1Zm-8.195 7.7734-.688-.7256.688.7256ZM210.368 56h1v-1h-1v1Zm0 10.6114 1 .0002v-.0002h-1Zm4.481 6.1831-.001 1h.001v-1Zm66.925 0v-1 1Zm20.857 0v1h.001l-.001-1Zm4.481-6.1831h-1v.0002l1-.0002Zm0-60.42826-1-.00024v.00024h1ZM214.849 1h87.782v-2h-87.782v2Zm-3.481 5.1829c0-1.51913.448-2.85387 1.122-3.78427.675-.93155 1.521-1.39823 2.359-1.39863l-.001-2c-1.638.000781-3.031.918824-3.978 2.22513-.947 1.30744-1.502 3.06368-1.502 4.95824l2-.00047Zm0 40.3182V6.18314h-2V46.5011h2ZM202.861 55l8.195-7.7733-1.376-1.4511-8.195 7.7733L202.861 55Zm0 0-1.376-1.4511C200.174 54.7928 201.054 57 202.861 57v-2Zm7.507 0h-7.507v2h7.507v-2Zm1 11.6114V56h-2v10.6114h2Zm3.481 5.1831c-.838-.0004-1.684-.4671-2.359-1.3986-.674-.9304-1.122-2.2652-1.122-3.7843l-2-.0005c0 1.8946.555 3.6508 1.502 4.9583.947 1.3063 2.34 2.2243 3.978 2.2251l.001-2Zm66.925 0h-66.925v2h66.925v-2Zm20.857 0h-20.857v2h20.857v-2Zm3.481-5.1829c0 1.5192-.448 2.8539-1.122 3.7843-.675.9316-1.522 1.3982-2.359 1.3986l.001 2c1.637-.0007 3.031-.9188 3.978-2.2251.947-1.3074 1.502-3.0637 1.502-4.9582l-2 .0004Zm0-60.42846V66.6114h2V6.18314h-2ZM302.631 1c.837.00039 1.684.46707 2.359 1.39861.674.93041 1.122 2.26516 1.122 3.78429l2 .00047c0-1.89457-.555-3.65082-1.502-4.95826C305.663-.081197 304.269-.999236 302.632-1l-.001 2Z" fill="#2A2956" mask="url(#e)"/>
  <path fill-rule="evenodd" clip-rule="evenodd" d="m279.451 55.0462-12.661-7.7975-8.728-16.0367V15.75c.23 0 .46.1609.635.481l10.339 18.9963 10.338 18.9962c.174.3205.191.6113.077.8227Z" fill="#FE5907"/>
  <path fill-rule="evenodd" clip-rule="evenodd" d="M258.062 15.75v15.462l-8.728 16.0367-12.661 7.7975c-.114-.2114-.098-.5022.076-.8227l10.339-18.9962 10.339-18.9963c.175-.3205.405-.481.635-.481Z" fill="#9E1F63"/>
  <path fill-rule="evenodd" clip-rule="evenodd" d="m236.673 55.0465 12.66-7.7975h17.457l12.66 7.7975c-.114.2123-.359.344-.709.344h-41.359c-.349 0-.595-.1317-.709-.344Z" fill="#662D91"/>
  <path fill-rule="evenodd" clip-rule="evenodd" d="M266.79 47.2487h-17.456l8.728-16.0368 8.728 16.0368Z" fill="#fff"/>
  <path d="m224.22 8.45898-5.148 4.04882M296.436 55.4375c-.93 1.9269-2.268 3.6057-3.912 4.9084M297.884 60.8135l-3.536 2.4454" stroke="#2A2956" stroke-linecap="round" stroke-linejoin="round"/>
  <g filter="url(#f)">
    <path d="m217.26 308.646-.04-.024-.138-.083c-.118-.072-.287-.176-.503-.311-.432-.27-1.054-.665-1.838-1.182-1.568-1.033-3.79-2.554-6.447-4.533-5.306-3.95-12.396-9.757-19.505-17.178-14.068-14.687-28.974-36.507-28.974-63.385 0-20.05 15.064-35.95 33.247-35.95 10.694 0 20.269 5.472 26.369 14.049 6.1-8.577 15.675-14.049 26.368-14.049 18.184 0 33.247 15.9 33.247 35.95 0 26.878-14.906 48.698-28.973 63.385-7.109 7.421-14.199 13.228-19.505 17.178-2.658 1.979-4.879 3.5-6.447 4.533-.785.517-1.406.912-1.838 1.182-.216.135-.385.239-.503.311l-.138.083-.04.024-.017.01c-1.345.8-2.963.8-4.308 0l-.017-.01Z" fill="#0D0D13"/>
  </g>
  <path d="M1.02344 43.0234c0-4.1421 3.35786-7.5 7.5-7.5H160.087c4.142 0 7.5 3.3579 7.5 7.5v35.0564c0 4.1421-3.358 7.5-7.5 7.5H8.52345c-4.14214 0-7.50001-3.3579-7.50001-7.5V43.0234Z" fill="url(#g)" stroke="#2A2956"/>
  <path d="M62.5123 47.8701c-2.5007 0-4.5279 2.0272-4.5279 4.528 0 2.5007 2.0272 4.5279 4.5279 4.5279H142.31c2.501 0 4.528-2.0272 4.528-4.5279 0-2.5008-2.027-4.528-4.528-4.528H62.5123Z" fill="url(#h)" stroke="#2A2956"/>
  <rect x="57.9844" y="60.0518" width="41.4852" height="8.93415" rx="4.46708" fill="url(#i)" stroke="#2A2956"/>
  <path d="M107.392 60.0518c-2.467 0-4.467 1.9999-4.467 4.467 0 2.4671 2 4.4671 4.467 4.4671h24.92c2.467 0 4.467-2 4.467-4.4671 0-2.4671-2-4.467-4.467-4.467h-24.92Z" fill="url(#j)" stroke="#2A2956"/>
  <path d="m17.5223 60.6277-.0003-.0002c-1.4061-1.354-1.498-3.6342-.2114-5.1066 1.2986-1.4859 3.5129-1.5913 4.9357-.228l.0007.0006 7.6758 7.3813 13.8727-13.8004.0002-.0002c1.3994-1.3906 3.6175-1.3268 4.9417.1379 1.312 1.4511 1.2548 3.7348-.1313 5.1123 0 .0001-.0001.0002-.0002.0002l-16.237 16.1525-14.8466-9.6494Zm0 0 10.0781 9.6914m-10.0781-9.6914 10.0781 9.6914m0 0 .0004.0004c.6403.617 1.483.9629 2.3619.9622h.0011l-.0006-.5-2.3628-.4626Z" fill="url(#k)" stroke="#2A2956"/>
  <path d="m27.5741 44.7236-1.3954 1.4638" stroke="#2A2956" stroke-width=".96" stroke-linecap="round" stroke-linejoin="round"/>
  <path d="M172.635 70.5264c-2.504 2.3859-5.546 4.0642-8.84 4.8769l8.84-4.8769Z" fill="#662D91"/>
  <path d="M172.635 70.5264c-2.504 2.3859-5.546 4.0642-8.84 4.8769" stroke="#662D91" stroke-width=".96" stroke-linecap="round" stroke-linejoin="round"/>
  <path d="m336.096 145.704-5.023-.179-11.536-.41-8.555-.304-8.413 9.214 43.451.873-9.924-9.194Z" fill="#8F8DC8"/>
  <mask id="l" style="mask-type:luminance" maskUnits="userSpaceOnUse" x="302" y="144" width="45" height="11">
    <path fill-rule="evenodd" clip-rule="evenodd" d="m336.096 145.704-5.023-.179-11.536-.41-8.555-.304-8.413 9.214 43.451.873-9.924-9.194Z" fill="#fff"/>
  </mask>
  <g mask="url(#l)">
    <path d="M319.423 146.089c2.721 4.841 3.531 3.25 5.354 5.793 3.072 4.286 15.098 2.302 14.923 3.016-.176.714-15.011 4.841-15.011 4.841l-6.934-3.571.614-7.222" fill="#112" fill-opacity=".2"/>
  </g>
  <path clip-rule="evenodd" d="m336.096 145.704-5.023-.179-11.536-.41-8.555-.304-8.413 9.214 43.451.873-9.924-9.194v0Z" stroke="#5250A5" stroke-width=".96" stroke-linecap="round" stroke-linejoin="round"/>
  <path d="m251.061 131.65 14.486 15.592 7.047-4.87s-9.988-13.44-11.186-15.088c-1.198-1.648-10.347 4.366-10.347 4.366Z" fill="#8F8DC8"/>
  <mask id="m" style="mask-type:luminance" maskUnits="userSpaceOnUse" x="251" y="126" width="22" height="22">
    <path fill-rule="evenodd" clip-rule="evenodd" d="m251.061 131.651 14.486 15.592 7.047-4.87s-9.988-13.44-11.186-15.088c-1.198-1.648-10.347 4.366-10.347 4.366Z" fill="#fff"/>
  </mask>
  <g mask="url(#m)">
    <path d="M261.791 129.087c.383 7.415-3.449 5.821-1.916 9.425 1.533 3.603-.92 6.236-1.84 6.444-.919.208-6.132-9.84-6.132-9.84l4.063-2.356 5.825-3.673Z" fill="#1B1B37"/>
  </g>
  <path clip-rule="evenodd" d="m251.061 131.65 14.486 15.592 7.047-4.87s-9.988-13.44-11.186-15.088c-1.198-1.648-10.347 4.366-10.347 4.366Z" stroke="#5250A5" stroke-width=".96" stroke-linecap="round" stroke-linejoin="round"/>
  <path d="m259.395 143.607.594 4.998c.195 1.647 1.989 2.735 3.75 2.273l25.784-6.764c-.648-2.205-2.655-3.868-5.141-4.26l-15.383-2.426s1.063 3.616-9.604 6.179ZM331.91 145.555s5.03 6.607 1.558 9.343l19.241 3.826c7.821 1.417 10.577.54 10.096-1.796l.481-.25-23.159-11.867-8.217.744Z" fill="#1B1B37" stroke="#5250A5" stroke-width=".96" stroke-linecap="round" stroke-linejoin="round"/>
  <path d="M114.056 157.221c4.756.623 13.674-1.248 14.268-.624.595.624-1.189 1.871-1.189 1.871s10.702.624 8.918 4.366c-.958 2.011-7.729-.624-10.107 0-2.378.623-7.729 1.871-11.89-1.248-4.162-3.118.594-3.742.594-3.742" fill="#8F8DC8"/>
  <path d="M114.056 157.221c4.756.623 13.674-1.248 14.268-.624.595.624-1.189 1.871-1.189 1.871s10.702.624 8.918 4.366c-.958 2.011-7.729-.624-10.107 0-2.378.623-7.729 1.871-11.89-1.248-4.162-3.118.594-3.742.594-3.742" stroke="#5250A5" stroke-width=".96" stroke-linecap="round" stroke-linejoin="round"/>
  <path d="M167.562 61.1738s8.605-8.4625 10.801-20.5414c.256-1.4053.739-2.7542 1.429-3.9882 2.189-3.9134 6.942-11.9136 9.08-11.6372 2.828.3654-4.068 9.972-4.068 9.972s3.032 4.0815 3.567 6.8605c.535 2.7789-.274 4.1431-3.459 7.4842-4.756 4.9895-6.054 12.4737-6.054 12.4737l-11.296-.6236Z" fill="#8F8DC8"/>
  <mask id="n" style="mask-type:luminance" maskUnits="userSpaceOnUse" x="167" y="25" width="23" height="37">
    <path fill-rule="evenodd" clip-rule="evenodd" d="M167.562 61.1738s8.605-8.4625 10.801-20.5414c.256-1.4053.739-2.7542 1.429-3.9882 2.189-3.9134 6.942-11.9136 9.08-11.6372 2.828.3654-4.068 9.972-4.068 9.972s3.032 4.0815 3.567 6.8605c.535 2.7789-.274 4.1431-3.459 7.4842-4.756 4.9895-6.054 12.4737-6.054 12.4737l-11.296-.6236Z" fill="#fff"/>
  </mask>
  <g mask="url(#n)">
    <path d="M177.192 46.3174c6.67 6.9974 7.504.8746 10.839 2.624l1.668.8747-5.276 6.1912-1.394.8062-6.671-10.4961" fill="#1B1B37"/>
  </g>
  <path clip-rule="evenodd" d="M167.562 61.1738s8.605-8.4625 10.801-20.5414c.256-1.4053.739-2.7542 1.429-3.9882 2.189-3.9134 6.942-11.9136 9.08-11.6372 2.828.3654-4.068 9.972-4.068 9.972s3.032 4.0815 3.567 6.8605c.535 2.7789-.274 4.1431-3.459 7.4842-4.756 4.9895-6.054 12.4737-6.054 12.4737l-11.296-.6236Z" stroke="#5250A5" stroke-width=".96" stroke-linecap="round" stroke-linejoin="round"/>
  <path d="M175.939 45.8486c6.527 2.5434 8.865 8.4636 8.865 8.4636s-6.487 23.9681-11.243 31.4523c-4.756 7.4843-19.619 28.0655-19.619 28.0655l-39.239-14.3443s38.644-16.2158 43.4-23.0764c4.757-6.8605 17.836-30.5607 17.836-30.5607Z" fill="#292853"/>
  <mask id="o" style="mask-type:luminance" maskUnits="userSpaceOnUse" x="114" y="45" width="71" height="69">
    <path fill-rule="evenodd" clip-rule="evenodd" d="M175.939 45.8486c6.527 2.5434 8.865 8.4636 8.865 8.4636s-6.487 23.9681-11.243 31.4523c-4.756 7.4843-19.619 28.0655-19.619 28.0655l-39.239-14.3443s38.644-16.2158 43.4-23.0764c4.757-6.8605 17.836-30.5607 17.836-30.5607Z" fill="#fff"/>
  </mask>
  <g mask="url(#o)">
    <path d="M128.126 100.216c20.83-.9539 27.592 11.113 40.364-6.9091 12.772-18.022 4.267 19.6521 4.267 19.6521l-27.052 8.614-18.206-5.267" fill="#1B1B37"/>
  </g>
  <path clip-rule="evenodd" d="M175.939 45.8486c6.527 2.5434 8.865 8.4636 8.865 8.4636s-6.487 23.9681-11.243 31.4523c-4.756 7.4843-19.619 28.0655-19.619 28.0655l-39.239-14.3443s38.644-16.2158 43.4-23.0764c4.757-6.8605 17.836-30.5607 17.836-30.5607Z" stroke="#5250A5" stroke-width=".96" stroke-linecap="round" stroke-linejoin="round"/>
  <path d="M253.432 139.402s8.851-5.257 12.115-8.376c0 0-14.487-42.6877-29.434-44.3509-6.516-.725-69.187 29.0269-69.187 29.0269l11.498 23.076s-13.801-19.334-6.529 1.248c7.272 20.581 55.708-18.659 60.734-23.968l20.803 23.344Z" fill="#1B1B37"/>
  <mask id="p" style="mask-type:luminance" maskUnits="userSpaceOnUse" x="166" y="86" width="100" height="60">
    <path fill-rule="evenodd" clip-rule="evenodd" d="M253.432 139.402s8.851-5.257 12.115-8.376c0 0-14.487-42.6877-29.434-44.3509-6.516-.725-69.187 29.0269-69.187 29.0269l11.498 23.076s-13.801-19.334-6.529 1.248c7.272 20.581 55.708-18.659 60.734-23.968l20.803 23.344Z" fill="#fff"/>
  </mask>
  <g mask="url(#p)">
    <path d="m263.116 118.475-20.135 16.178 8.997 9.553 20.615-10.152-10.766-17.748" fill="#292853"/>
    <path d="m263.116 118.475-20.135 16.178 8.997 9.553 20.615-10.152-10.766-17.748" stroke="#5250A5" stroke-width=".96" stroke-linecap="round" stroke-linejoin="round"/>
  </g>
  <path clip-rule="evenodd" d="M253.432 139.402s8.851-5.257 12.115-8.376c0 0-14.487-42.6877-29.434-44.3509-6.516-.725-69.187 29.0269-69.187 29.0269l11.498 23.076s-13.801-19.334-6.529 1.248c7.272 20.581 55.708-18.659 60.734-23.968l20.803 23.344Z" stroke="#5250A5" stroke-width=".96" stroke-linecap="round" stroke-linejoin="round"/>
  <path d="M189.517 129.566c24.488 3.459 62.12 8.739 64.265 8.815 3.194.114 61.176 5.234 65.396 6.071 4.22.836 5.817 13.21 4.485 14.39 0 0-66.099-1.259-75.683-1.6-9.583-.341-90.601 10.792-97.057-6.291-5.036-13.326 17.785-24.334 17.785-24.334" fill="#1B1B37"/>
  <mask id="q" style="mask-type:luminance" maskUnits="userSpaceOnUse" x="150" y="126" width="175" height="35">
    <path fill-rule="evenodd" clip-rule="evenodd" d="M189.517 129.566c24.488 3.459 62.12 8.739 64.265 8.815 3.194.114 61.176 5.234 65.396 6.071 4.22.836 5.817 13.21 4.485 14.39 0 0-66.099-1.259-75.683-1.6-9.583-.341-90.601 10.792-97.057-6.291-5.036-13.326 17.785-24.334 17.785-24.334" fill="#fff"/>
  </mask>
  <g mask="url(#q)">
    <path d="M172.472 121.923c16.564 2.696-17.136 36.592 23.704 37.021 40.839.429-44.267 21.101-44.267 21.101s-10.567-33.574-9.71-33.265c.857.309 23.26-17.838 23.26-17.838" fill="#112" fill-opacity=".2"/>
    <path d="M307.955 140.271c7.925 7.64 5.569 24.268 5.569 24.268l14.565-.225-5.354-25.616" fill="#292853"/>
    <path d="M307.955 140.271c7.925 7.64 5.569 24.268 5.569 24.268l14.565-.225-5.354-25.616" stroke="#5250A5" stroke-width=".96" stroke-linecap="round" stroke-linejoin="round"/>
    <path d="M177.725 133.604c9.71 5.693 3.569 17.38 3.569 17.38l-3.569-17.38Z" fill="#1B1B37"/>
    <path d="M177.725 133.604c9.71 5.693 3.569 17.38 3.569 17.38" stroke="#5250A5" stroke-width=".96" stroke-linecap="round" stroke-linejoin="round"/>
  </g>
  <path d="M189.517 129.566c24.488 3.459 62.12 8.739 64.265 8.815 3.194.114 61.176 5.234 65.396 6.071 4.22.836 5.817 13.21 4.485 14.39 0 0-66.099-1.259-75.683-1.6-9.583-.341-90.601 10.792-97.057-6.291-5.036-13.326 17.785-24.334 17.785-24.334" stroke="#5250A5" stroke-width=".96" stroke-linecap="round" stroke-linejoin="round"/>
  <path d="M138.263 100.084c4.216 2.042 8.089 4.789 11.465 8.133 10.107 9.979 29.131-6.237 29.184 13.097.03 10.893-14.863 46.153-30.915 40.54-16.052-5.613-51.129-12.474-51.129-12.474l-1.1891-22.452-.0529-12.742s16.503-15.866 26.868-18.0835" fill="#292853"/>
  <mask id="r" style="mask-type:luminance" maskUnits="userSpaceOnUse" x="95" y="96" width="84" height="67">
    <path fill-rule="evenodd" clip-rule="evenodd" d="M138.263 100.084c4.216 2.042 8.089 4.789 11.465 8.133 10.107 9.979 29.131-6.237 29.184 13.097.03 10.893-14.863 46.153-30.915 40.54-16.052-5.613-51.129-12.474-51.129-12.474l-1.1891-22.452-.0529-12.742s16.503-15.866 26.868-18.0835" fill="#fff"/>
  </mask>
  <g mask="url(#r)">
    <path d="M100.996 123.81c5.35 9.979 4.737 20.937 19.6 24.056 14.864 3.118 38.05 21.205 38.05 21.829 0 .623-54.102 6.236-54.102 6.236l-21.9971-23.076 18.4491-29.045Z" fill="#112" fill-opacity=".2"/>
    <path d="M114.702 100.069c1.659 3.015 1.363 10.035-3.863 13.2-5.226 3.166-13.4033 1.278-15.063-1.738-1.6597-3.015 1.2315-8.026 6.458-11.192 5.226-3.1649 10.808-3.2862 12.468-.27Z" fill="#1B1B37" stroke="#5250A5" stroke-width=".96" stroke-linecap="round" stroke-linejoin="round"/>
  </g>
  <path d="M138.263 100.084c4.216 2.042 8.089 4.789 11.465 8.133 10.107 9.979 29.131-6.237 29.184 13.097.03 10.893-14.863 46.153-30.915 40.54-16.052-5.613-51.129-12.474-51.129-12.474l-1.1891-22.452-.0529-12.742s16.503-15.866 26.868-18.0835" stroke="#5250A5" stroke-width=".96" stroke-linecap="round" stroke-linejoin="round"/>
  <path d="M103.102 93.4873c.866 6.4304 6.241 8.9507 8.804 9.7957.365.121.662.4.817.767.154.367.151.785-.01 1.149-1.1 2.492-4.111 7.08-11.278 6.644-.735-.045-1.352-.598-1.5075-1.353-.2931-1.433-1.4787-4.039-5.8619-7.217-6.7397-4.8878 9.0364-9.7857 9.0364-9.7857Z" fill="#8F8DC8"/>
  <mask id="s" style="mask-type:luminance" maskUnits="userSpaceOnUse" x="92" y="93" width="21" height="19">
    <path fill-rule="evenodd" clip-rule="evenodd" d="M103.102 93.4873c.866 6.4304 6.241 8.9507 8.804 9.7957.365.121.662.4.817.767.154.367.151.785-.01 1.149-1.1 2.492-4.111 7.08-11.278 6.644-.735-.045-1.352-.598-1.5075-1.353-.2931-1.433-1.4787-4.039-5.8619-7.217-6.7397-4.8878 9.0364-9.7857 9.0364-9.7857Z" fill="#fff"/>
  </mask>
  <g mask="url(#s)">
    <ellipse cx="10.99" cy="9.32395" rx="10.99" ry="9.32395" transform="matrix(.475 -.87999 .86003 .51024 92.9287 95.8682)" fill="#1B1B37"/>
  </g>
  <path clip-rule="evenodd" d="M103.102 93.4873c.866 6.4304 6.241 8.9507 8.804 9.7957.365.121.662.4.817.767.154.367.151.785-.01 1.149-1.1 2.492-4.111 7.08-11.278 6.644-.735-.045-1.352-.598-1.5075-1.353-.2931-1.433-1.4787-4.039-5.8619-7.217-6.7397-4.8878 9.0364-9.7857 9.0364-9.7857Z" stroke="#5250A5" stroke-width=".96" stroke-linecap="round" stroke-linejoin="round"/>
  <path d="M101.492 101.088c5.505-3.0578 9.187-9.5411-7.07-22.8146l-8.2435 2.44-2.2179 8.2321s-1.3653 2.5408-.934 3.4784c.4314.9375 18.4094 19.4191 18.4094 19.4191" fill="#8F8DC8"/>
  <mask id="t" style="mask-type:luminance" maskUnits="userSpaceOnUse" x="82" y="78" width="25" height="34">
    <path fill-rule="evenodd" clip-rule="evenodd" d="M101.492 101.088c5.505-3.0578 9.187-9.5411-7.07-22.8146l-8.2435 2.44-2.2179 8.2321s-1.3653 2.5408-.934 3.4784c.4314.9375 18.4094 19.4191 18.4094 19.4191" fill="#fff"/>
  </mask>
  <g mask="url(#t)">
    <ellipse cx="2.5686" cy="1.97044" rx="2.5686" ry="1.97044" transform="matrix(.74427 -.66788 .63243 .77462 100.783 87.0205)" fill="#1B1B37" opacity=".27"/>
    <ellipse cx="2.5686" cy="1.97044" rx="2.5686" ry="1.97044" transform="matrix(.74427 -.66788 .63243 .77462 91.748 95.1152)" fill="#1B1B37" opacity=".27"/>
    <path d="M97.9746 84.1633c.3517-.3639.9182-.36 1.2653.0087l1.0611 1.1274c.348.3687.344.9626-.008 1.3265-.3515.3639-.918.3601-1.2651-.0086l-1.0615-1.1275c-.3471-.3686-.3434-.9625.0082-1.3264v-.0001ZM92.8897 88.6839c.1689-.1748.3971-.2721.6343-.2704.2373.0016.4643.102.631.279l1.0615 1.1275c.3471.3687.3434.9626-.0083 1.3265-.3517.3639-.9181.36-1.2653-.0087l-1.0615-1.1275c-.3471-.3686-.3434-.9625.0083-1.3265v.0001ZM96.6541 82.4237c1.6734-.9471 2.0142.1663 1.005.8299-1.0093.6637-2.0982-.2111-1.005-.8299ZM91.3994 87.016c-.9257 1.7423-.0211 2.1599.6252 1.1103.6463-1.0496-.0205-2.2486-.6252-1.1103ZM97.4041 89.4262c.3734.4991.6327-.0341 1.1352-.4477.5025-.4137 1.0578-.5512.6845-1.0502-.4058-.485-1.1024-.5527-1.5864-.1543-.4839.3984-.5864 1.1239-.2333 1.6522ZM102.26 89.7c2.134 4.0766-2.199 5.3324-3.973 3.1844-.0901-.1128-.1034-.2726-.0333-.4.291-.5432 1.2463-1.9815 3.5843-2.9423.159-.0648.338.0025.422.1579Z" fill="#1B1B37"/>
    <mask id="u" style="mask-type:luminance" maskUnits="userSpaceOnUse" x="98" y="89" width="5" height="5">
      <path fill-rule="evenodd" clip-rule="evenodd" d="M102.26 89.7c2.134 4.0766-2.199 5.3324-3.973 3.1844-.0901-.1128-.1034-.2726-.0333-.4.291-.5432 1.2463-1.9815 3.5843-2.9423.159-.0648.338.0025.422.1579Z" fill="#fff"/>
    </mask>
    <g mask="url(#u)">
      <ellipse cx="2.23609" cy="2.06971" rx="2.23609" ry="2.06971" transform="matrix(.93244 -.36133 .3325 .9431 98.5996 92.582)" fill="#1B1B37" opacity=".29"/>
      <path d="M101.223 89.6406c.178.2386.397.5803.382.6878-.094.6625-1.9834 1.9557-2.3799 1.9474-.1104-.0024-.6929-.7626-.6929-.7626l2.3258-1.7807" fill="#8F8DC8"/>
    </g>
  </g>
  <path d="M101.492 101.088c5.505-3.0578 9.187-9.5411-7.07-22.8146l-8.2435 2.44-2.2179 8.2321s-1.3653 2.5408-.934 3.4784c.4314.9375 18.4094 19.4191 18.4094 19.4191" stroke="#5250A5" stroke-width=".96" stroke-linecap="round" stroke-linejoin="round"/>
  <path d="M88.9681 96.2352c-3.3821-4.3568-.5987-13.3954 5.454-17.9628 6.0529-4.5674-6.9955-16.2825-12.8852-7.2895 0 0-14.7632 4.1164-7.4341 17.7126.8001 1.4843.4034 3.3812-.4005 4.8632-1.3231 2.4388-3.0421 5.9275 2.4669 8.2873 1.8885.809 4.3244-.093 5.2976 1.787 1.9247 3.72 9.068 5.466 10.9243 1.359 3.6276-8.0253-3.423-8.7568-3.423-8.7568Z" fill="#1B1B37" stroke="#5250A5" stroke-width=".96" stroke-linecap="round" stroke-linejoin="round"/>
  <path d="m88.8875 95.7056.5922-1.8286s-.5285-9.3031 7.326-13.5809l-2.9672-2.6516S82.6548 89.3037 86.7342 95.117l1.7334.3614.4199.2272Z" fill="#1B1B37" stroke="#5250A5" stroke-width=".96" stroke-linecap="round" stroke-linejoin="round"/>
  <path d="M90.4111 93.1469s-4.9121-1.5915-4.9121 1.5914 8.1994 3.314 8.1994 3.314" fill="#8F8DC8"/>
  <path d="M90.4111 93.1469s-4.9121-1.5915-4.9121 1.5914 8.1994 3.314 8.1994 3.314" stroke="#5250A5" stroke-width=".96" stroke-linecap="round" stroke-linejoin="round"/>
  <path d="M127.135 158.468c5.706-.46 14.494-.409 17.577-1.079 1.633-.355 3.334-.06 4.772.827 7.367 4.547 8.867 4.23 8.867 5.398 0 1.247-28.378 2.191-28.378 2.191l-4.027-2.971" fill="#8F8DC8"/>
  <mask id="v" style="mask-type:luminance" maskUnits="userSpaceOnUse" x="125" y="157" width="34" height="9">
    <path fill-rule="evenodd" clip-rule="evenodd" d="M127.135 158.469c5.706-.46 14.494-.409 17.577-1.079 1.633-.355 3.334-.06 4.772.827 7.367 4.547 8.867 4.229 8.867 5.398 0 1.247-28.378 2.191-28.378 2.191l-4.027-2.971" fill="#fff"/>
  </mask>
  <g mask="url(#v)">
    <path d="M134.634 156.469c6.104 3.217 3.32 9.053 9.531 9.337 6.212.283-11.78 3.654-11.78 3.654l-1.285-9.418" fill="#1B1B37"/>
  </g>
  <path d="M127.135 158.468c5.706-.46 14.494-.409 17.577-1.079 1.633-.355 3.334-.06 4.772.827 7.367 4.547 8.867 4.23 8.867 5.398 0 1.247-28.378 2.191-28.378 2.191l-4.027-2.971" stroke="#5250A5" stroke-width=".96" stroke-linecap="round" stroke-linejoin="round"/>
  <path d="M103.335 126.617c1.545 9.02 1.261 19.646 1.261 19.646l31.457 9.979s2.378 4.366 1.783 9.979c0 0-49.3452 7.484-52.3178-4.989-2.9727-12.474 2.378-47.313 10.7014-47.045" fill="#292853"/>
  <path d="M103.335 126.617c1.545 9.02 1.261 19.646 1.261 19.646l31.457 9.979s2.378 4.366 1.783 9.979c0 0-49.3452 7.484-52.3178-4.989-2.9727-12.474 2.378-47.313 10.7014-47.045" stroke="#5250A5" stroke-width=".96" stroke-linecap="round" stroke-linejoin="round"/>
  <path d="M81.374 71.1602c-.4426.8442-.4069 1.8752.093 2.6835l-.093-2.6835Z" fill="#292853"/>
  <path d="M81.374 71.1602c-.4426.8442-.4069 1.8752.093 2.6835" stroke="#5250A5" stroke-width=".96" stroke-linecap="round" stroke-linejoin="round"/>
  <path d="M74.1865 88.9688c.3657 1.0712 1.064 1.9827 1.9829 2.5882l-1.9829-2.5882Z" fill="#292853"/>
  <path d="M74.1865 88.9688c.3657 1.0712 1.064 1.9827 1.9829 2.5882" stroke="#5250A5" stroke-width=".96" stroke-linecap="round" stroke-linejoin="round"/>
  <path d="m88.6547 94.8443-.0712.1121.0712-.1121Z" fill="#292853"/>
  <path d="m88.6547 94.8443-.0712.1121" stroke="#5250A5" stroke-width=".96" stroke-linecap="round" stroke-linejoin="round"/>
  <path d="M104.689 146.34c-.48 1.048-1.138 1.996-1.942 2.796l1.942-2.796Z" fill="#292853"/>
  <path d="M104.689 146.34c-.48 1.048-1.138 1.996-1.942 2.796" stroke="#5250A5" stroke-width=".96" stroke-linecap="round" stroke-linejoin="round"/>
  <path d="m170.438 84.6357 2.708.768-2.708-.768Z" fill="#292853"/>
  <path d="m170.438 84.6357 2.708.768" stroke="#5250A5" stroke-width=".96" stroke-linecap="round" stroke-linejoin="round"/>
  <path d="M232.656 112.645c.238 1.071.164 2.193-.212 3.221l.212-3.221Z" fill="#292853"/>
  <path d="M232.656 112.645c.238 1.071.164 2.193-.212 3.221M131.077 127.469c-.341 3.003-1.556 5.824-3.478 8.079M336.505 155.032c1.22 1.767 2.771 3.255 4.558 4.373M336.369 154.875l-1.688 1.676M269.679 134.205c.13.976.37 1.931.715 2.847M271.987 134.068c-.572.892-1.077 1.828-1.511 2.802" stroke="#5250A5" stroke-width=".96" stroke-linecap="round" stroke-linejoin="round"/>
  <path d="m233.1 146.864-1.194 7.181 1.194-7.181Z" fill="#292853"/>
  <path d="m233.1 146.864-1.194 7.181" stroke="#5250A5" stroke-width=".96" stroke-linecap="round" stroke-linejoin="round"/>
  <path d="M83.6544 85.8789v1.1984-1.1984Z" fill="#292853"/>
  <path d="M83.6544 85.8789v1.1984" stroke="#5250A5" stroke-width=".96" stroke-linecap="round" stroke-linejoin="round"/>
  <defs>
    <linearGradient id="b" x1="218" y1="157.626" x2="218" y2="359.024" gradientUnits="userSpaceOnUse">
      <stop offset=".208333" stop-color="#0C0C12"/>
      <stop offset="1" stop-color="#15141F"/>
    </linearGradient>
    <linearGradient id="d" x1="254.485" y1="3.34231" x2="254.485" y2="73.2703" gradientUnits="userSpaceOnUse">
      <stop offset=".208333" stop-color="#0C0C12"/>
      <stop offset="1" stop-color="#15141F"/>
    </linearGradient>
    <linearGradient id="g" x1="84.305" y1="37.3677" x2="84.305" y2="86.4135" gradientUnits="userSpaceOnUse">
      <stop offset=".208333" stop-color="#0C0C12"/>
      <stop offset="1" stop-color="#15141F"/>
    </linearGradient>
    <linearGradient id="h" x1="102.411" y1="48.3701" x2="102.411" y2="56.426" gradientUnits="userSpaceOnUse">
      <stop offset=".28125" stop-color="#1B1B37"/>
      <stop offset="1" stop-color="#1B1B37"/>
    </linearGradient>
    <linearGradient id="i" x1="78.727" y1="60.5518" x2="78.727" y2="68.4859" gradientUnits="userSpaceOnUse">
      <stop offset=".28125" stop-color="#1B1B37"/>
      <stop offset="1" stop-color="#1B1B37"/>
    </linearGradient>
    <linearGradient id="j" x1="119.852" y1="60.5518" x2="119.852" y2="68.4859" gradientUnits="userSpaceOnUse">
      <stop offset=".28125" stop-color="#1B1B37"/>
      <stop offset="1" stop-color="#1B1B37"/>
    </linearGradient>
    <linearGradient id="k" x1="33.0441" y1="48.3711" x2="33.0441" y2="70.7817" gradientUnits="userSpaceOnUse">
      <stop offset=".28125" stop-color="#1B1B37"/>
      <stop offset="1" stop-color="#1B1B37"/>
    </linearGradient>
    <filter id="f" x="123.815" y="150" width="191.23" height="195.257" filterUnits="userSpaceOnUse" color-interpolation-filters="sRGB">
      <feFlood flood-opacity="0" result="BackgroundImageFix"/>
      <feColorMatrix in="SourceAlpha" type="matrix" values="0 0 0 0 0 0 0 0 0 0 0 0 0 0 0 0 0 0 127 0" result="hardAlpha"/>
      <feOffset/>
      <feGaussianBlur stdDeviation="18"/>
      <feComposite in2="hardAlpha" operator="out"/>
      <feColorMatrix type="matrix" values="0 0 0 0 0.133368 0 0 0 0 0.1221 0 0 0 0 0.6179 0 0 0 0.4 0"/>
      <feBlend mode="normal" in2="BackgroundImageFix" result="effect1_dropShadow_612_17923"/>
      <feBlend mode="normal" in="SourceGraphic" in2="effect1_dropShadow_612_17923" result="shape"/>
    </filter>
  </defs>
</svg>
