<svg fill="none" xmlns="http://www.w3.org/2000/svg" viewBox="0 0 489 401">
  <path d="M434.381 311.74s.129-.167.203-.241c-.351.445-.37.482-.203.241Z" fill="#000"/>
  <path d="M62.3876 135.788c.2308-1.837.5934-3.674 1.1044-5.527.3297-1.523.7748-3.012 1.3187-4.452C88.729 46.1427 156.808-22.1548 238.222-41.0537c42.776-9.9294 92.146-7.3477 131.114 14.6127 19.978 11.2698 36.429 28.79516 51.512 45.8075 15.561 17.5418 26.358 36.7883 34.633 58.666 14.753 39.0055 14.951 83.3565 6.495 123.7865-4.055 19.411-11.193 38.36-20.193 56.001-3.758 7.364-8.077 14.464-12.956 21.15-2.786 3.806-5.737 7.579-8.638 11.286 10.088-12.892-3.099 4.071-4.319 5.66-3.346 4.253-6.775 8.407-10.434 12.395-53.128 57.723-141.219 83.738-215.891 56.349-22.171-8.142-41.375-19.147-59.375-34.471-6.775-5.759-12.116-12.445-18.116-18.932-8.572-9.284-16.7644-17.757-24.2811-28.15-30.6602-42.398-34.979-97.225-25.3853-147.286v-.033Z" fill="url(#a)" fill-opacity=".1"/>
  <path d="M243.013 238.69c46.853 7.735 91.117-23.908 98.867-70.677 7.749-46.769-23.951-90.9543-70.804-98.6899-46.853-7.7357-91.117 23.9073-98.867 70.6769-7.749 46.769 23.951 90.954 70.804 98.69Z" fill="#000" fill-opacity=".1"/>
  <path d="M101.686 156.695C132.503 43.2008 263.147-45.54 376.718 6.21c91.308 50.9713 91.677 194.559 31.594 269.504-109.211 149.391-350.5066 80.342-306.626-119.019Zm38.928 53.548c3.492 72.851 75.77 112.679 141.858 94.063 55.022-15.483 101.452-62.857 116.786-117.833 18.181-73.333-11.99-162.259-101.488-150.0956-83.843 3.9123-161.165 90.3356-157.174 173.8656h.018Z" fill="#02010E"/>
  <path d="M84.0221 137.985C114.84 24.4908 245.501-64.25 359.073-12.5c91.289 50.9528 93.802 195.819 33.718 270.765C283.58 407.656 40.1419 337.346 84.0406 137.985h-.0185Zm38.9289 53.548c3.492 72.851 75.769 112.679 141.858 94.063 55.021-15.483 101.451-62.857 116.786-117.833 18.18-73.3327-11.991-162.25892-101.488-150.0955-83.844 3.9123-161.165 90.3355-157.175 173.8655h.019Z" fill="url(#b)"/>
  <path d="M194.693 57.7731C341.484-16.1157 470.058 208.981 324.819 283.018c-27.603 10.347-58.901 6.23-86.948.204-96.758-21.249-139.5481-175.683-43.196-225.4303l.018-.0186Zm-10.309 96.3989c.554 38.047 27.88 77.041 65.275 86.126 59.825 15.501 99.511-6.471 92.675-72.424-12.49-94.5073-157.322-111.918-157.969-13.702h.019Z" fill="#02010E"/>
  <path d="M186.879 38.4918C333.688-35.4156 462.244 189.7 317.005 263.718c-27.603 10.347-58.901 6.23-86.948.204C133.299 242.674 90.5087 88.2393 186.86 38.4918h.019Zm-10.31 96.3982c.555 38.048 27.881 77.041 65.276 86.127 59.825 15.501 99.511-6.471 92.675-72.424-12.49-94.5076-157.322-111.9183-157.969-13.703h.018Z" fill="url(#c)"/>
  <defs>
    <linearGradient id="b" x1="256.16" y1="-27.6172" x2="256.16" y2="338.452" gradientUnits="userSpaceOnUse">
      <stop stop-color="#191934"/>
      <stop offset=".776042" stop-color="#080811"/>
    </linearGradient>
    <linearGradient id="c" x1="256.659" y1="23.7949" x2="256.659" y2="270.045" gradientUnits="userSpaceOnUse">
      <stop offset=".208333" stop-color="#112"/>
      <stop offset="1" stop-color="#191934"/>
    </linearGradient>
    <radialGradient id="a" cx="0" cy="0" r="1" gradientUnits="userSpaceOnUse" gradientTransform="matrix(0 211.093 -204.885 0 262.73 164.5)">
      <stop/>
      <stop offset="1" stop-opacity=".6"/>
    </radialGradient>
  </defs>
</svg>
