<svg width="129" height="40" viewBox="0 0 129 40" fill="none" xmlns="http://www.w3.org/2000/svg">
<path fill-rule="evenodd" clip-rule="evenodd" d="M33.3075 9.57574L34.2447 7.27787C34.2447 7.27787 33.0519 6.00128 31.6034 4.55447C30.155 3.10766 27.0877 3.95872 27.0877 3.95872L23.5944 0H17.4598H11.3252L7.83194 3.95872C7.83194 3.95872 4.76465 3.10766 3.31621 4.55447C1.86777 6.00128 0.674934 7.27787 0.674934 7.27787L1.61216 9.57574L0.419327 12.98C0.419327 12.98 3.92754 26.2528 4.33864 27.8736C5.14806 31.0651 5.70188 32.2991 8.00234 33.9162C10.3028 35.5332 14.4777 38.3417 15.1593 38.7672C15.841 39.1928 16.693 39.9176 17.4598 39.9176C18.2266 39.9176 19.0787 39.1928 19.7603 38.7672C20.4419 38.3417 24.6168 35.5332 26.9173 33.9162C29.2177 32.2991 29.7716 31.0651 30.581 27.8736C30.992 26.2528 34.5003 12.98 34.5003 12.98L33.3075 9.57574Z" fill="url(#paint0_linear_34_14821)"/>
<path d="M21.8051 7.19277C22.3163 7.19277 26.1079 6.46937 26.1079 6.46937C26.1079 6.46937 30.6011 11.8949 30.6011 13.0545C30.6011 14.0132 30.2147 14.3885 29.7596 14.8304C29.6643 14.923 29.566 15.0185 29.4676 15.1229L26.0985 18.6964C26.0651 18.7319 26.0279 18.7692 25.9886 18.8087C25.6523 19.1465 25.1571 19.6438 25.5065 20.4698C25.5299 20.525 25.5539 20.5811 25.5783 20.6381C25.9614 21.533 26.4343 22.6377 25.8323 23.7573C25.1919 24.9481 24.0949 25.7429 23.392 25.6115C22.6891 25.48 21.0383 24.6183 20.4312 24.2247C19.8242 23.8311 17.9001 22.2461 17.9001 21.6396C17.9001 21.1338 19.2838 20.2923 19.9562 19.8835C20.0899 19.8022 20.1955 19.738 20.2564 19.6969C20.3258 19.6502 20.4419 19.5782 20.5847 19.4896C21.1984 19.1087 22.3064 18.4211 22.3342 18.1163C22.3685 17.7403 22.3555 17.6301 21.8609 16.7015C21.7557 16.504 21.6326 16.2924 21.5054 16.0738C21.0344 15.2644 20.5071 14.358 20.6238 13.7088C20.7556 12.9759 21.9053 12.5557 22.8791 12.1997C23.0009 12.1552 23.1198 12.1117 23.2337 12.0688C23.5179 11.9616 23.8751 11.8279 24.2481 11.6884C25.2205 11.3246 26.3008 10.9204 26.4789 10.8383C26.7256 10.7247 26.6618 10.6165 25.9149 10.5458C25.816 10.5364 25.6932 10.5234 25.5522 10.5084C24.6275 10.4103 22.9221 10.2293 22.093 10.4601C21.93 10.5055 21.7472 10.5549 21.5555 10.6068C20.624 10.8588 19.4824 11.1675 19.3728 11.3455C19.3536 11.3767 19.3347 11.4035 19.3169 11.4287C19.212 11.5777 19.1436 11.6748 19.2597 12.3078C19.2943 12.4963 19.3653 12.8671 19.4532 13.3256C19.7105 14.6679 20.1119 16.7618 20.1624 17.2322C20.1695 17.298 20.1773 17.3615 20.1848 17.4227C20.2492 17.9474 20.292 18.2967 19.6819 18.436C19.6311 18.4476 19.5777 18.4598 19.5223 18.4726C18.8338 18.6304 17.8245 18.8617 17.4598 18.8617C17.095 18.8617 16.0849 18.6302 15.3965 18.4724C15.3413 18.4597 15.2882 18.4475 15.2377 18.436C14.6275 18.2967 14.6704 17.9474 14.7347 17.4226C14.7422 17.3615 14.75 17.298 14.7571 17.2322C14.8078 16.7611 15.2102 14.6621 15.4674 13.32C15.5548 12.8641 15.6255 12.4956 15.6599 12.3078C15.7759 11.6749 15.7075 11.5777 15.6027 11.4288C15.5849 11.4035 15.566 11.3767 15.5468 11.3455C15.4372 11.1675 14.2957 10.8588 13.3642 10.6068C13.1725 10.555 12.9896 10.5055 12.8265 10.4601C11.9974 10.2293 10.2922 10.4103 9.36751 10.5084C9.22644 10.5234 9.10352 10.5364 9.00466 10.5458C8.25778 10.6165 8.19404 10.7247 8.44062 10.8383C8.61878 10.9203 9.69856 11.3243 10.6707 11.6881C11.044 11.8277 11.4015 11.9615 11.6859 12.0688C11.7998 12.1118 11.9189 12.1553 12.0406 12.1998C13.0144 12.5557 14.164 12.9759 14.2958 13.7088C14.4125 14.3579 13.8853 15.2641 13.4144 16.0735C13.2871 16.2922 13.164 16.5039 13.0588 16.7015C12.5642 17.6301 12.551 17.7403 12.5854 18.1163C12.6132 18.4211 13.7208 19.1085 14.3345 19.4893C14.4775 19.5781 14.5937 19.6502 14.6631 19.6969C14.724 19.738 14.8295 19.8021 14.9631 19.8833C15.6353 20.2921 17.0194 21.1337 17.0194 21.6396C17.0194 22.2461 15.0954 23.8311 14.4884 24.2247C13.8813 24.6183 12.2305 25.48 11.5276 25.6115C10.8247 25.7429 9.72769 24.9481 9.08731 23.7573C8.48538 22.6378 8.95817 21.5332 9.34119 20.6383C9.36561 20.5813 9.38965 20.5251 9.41304 20.4698C9.7625 19.6437 9.26721 19.1463 8.93087 18.8086C8.89156 18.7691 8.85442 18.7318 8.82105 18.6964L5.45197 15.1229C5.35357 15.0185 5.25525 14.923 5.15995 14.8305C4.7049 14.3885 4.31853 14.0133 4.31853 13.0545C4.31853 11.8949 8.81176 6.46937 8.81176 6.46937C8.81176 6.46937 12.6033 7.19277 13.1145 7.19277C13.5224 7.19277 14.3101 6.92182 15.1312 6.63937C15.3391 6.56785 15.5492 6.4956 15.7558 6.42682C16.7782 6.08639 17.4598 6.08392 17.4598 6.08392C17.4598 6.08392 18.1414 6.08639 19.1639 6.42682C19.3704 6.4956 19.5805 6.56785 19.7884 6.63937C20.6095 6.92182 21.3972 7.19277 21.8051 7.19277Z" fill="white"/>
<path d="M21.1543 26.3835C21.9558 26.796 22.5244 27.0887 22.7394 27.2231C23.0175 27.3971 22.8479 27.725 22.5946 27.9039C22.3412 28.0828 18.9364 30.7163 18.606 31.0074C18.5637 31.0446 18.5189 31.085 18.4722 31.127C18.1538 31.4137 17.7477 31.7793 17.4598 31.7793C17.1718 31.7793 16.7654 31.4134 16.447 31.1267C16.4004 31.0847 16.3557 31.0445 16.3136 31.0074C15.9831 30.7163 12.5784 28.0828 12.325 27.9039C12.0716 27.725 11.902 27.3971 12.1801 27.2231C12.3953 27.0886 12.9644 26.7957 13.7668 26.3827C14.0019 26.2617 14.2571 26.1303 14.5293 25.9896C15.7298 25.3691 17.2263 24.8414 17.4598 24.8414C17.6933 24.8414 19.1897 25.3691 20.3904 25.9896C20.6631 26.1306 20.9188 26.2622 21.1543 26.3835Z" fill="white"/>
<path d="M49.8721 13.4709C50.8866 12.936 52.0465 12.6686 53.3488 12.6686C54.8663 12.6686 56.2384 13.0436 57.4651 13.7907C58.6919 14.5378 59.6657 15.6017 60.3808 16.9797C61.0959 18.3576 61.4535 19.9535 61.4535 21.7703C61.4535 23.5872 61.0959 25.1948 60.3808 26.593C59.6657 27.9913 58.6919 29.0756 57.4651 29.8459C56.2355 30.6163 54.8634 31 53.3488 31C52.0233 31 50.8663 30.7384 49.8721 30.2151C48.8779 29.6919 48.0814 29.0145 47.4855 28.1802V30.7122H43V7H47.4855V15.5552C48.061 14.7006 48.8576 14.0058 49.8721 13.4738V13.4709ZM56.218 19C55.7791 18.2209 55.2035 17.6279 54.4884 17.2209C53.7733 16.814 52.9971 16.6134 52.1657 16.6134C51.3343 16.6134 50.5901 16.8227 49.875 17.2384C49.1599 17.6541 48.5814 18.2587 48.1454 19.0494C47.7064 19.8401 47.4884 20.7704 47.4884 21.8372C47.4884 22.9041 47.7064 23.8343 48.1454 24.625C48.5843 25.4157 49.1599 26.0174 49.875 26.436C50.5901 26.8517 51.3547 27.061 52.1657 27.061C52.9767 27.061 53.7733 26.8488 54.4884 26.4215C55.2035 25.9942 55.782 25.3866 56.218 24.5959C56.657 23.8052 56.875 22.8663 56.875 21.7762C56.875 20.686 56.657 19.7849 56.218 19.0058V19Z" fill="#1B1B1F"/>
<path d="M69.5465 13.5029C70.4768 12.968 71.5378 12.7006 72.7355 12.7006V17.4099H71.5494C70.1395 17.4099 69.0756 17.7413 68.3605 18.404C67.6454 19.0668 67.2878 20.2209 67.2878 21.8634V30.7064H62.8023V12.9564H67.2878V15.7122C67.8634 14.7732 68.6163 14.0349 69.5465 13.5V13.5029Z" fill="#1B1B1F"/>
<path d="M74.3837 16.9971C75.0988 15.6076 76.0698 14.5407 77.2994 13.7936C78.5262 13.0465 79.9012 12.6715 81.4157 12.6715C82.7413 12.6715 83.8983 12.939 84.8924 13.4738C85.8866 14.0087 86.6802 14.6802 87.2791 15.4913V12.9593H91.7965V30.7093H87.2791V28.1134C86.7035 28.9477 85.907 29.6366 84.8924 30.1802C83.8779 30.7238 82.7093 30.9971 81.3837 30.9971C79.8895 30.9971 78.5262 30.6134 77.2994 29.843C76.0698 29.0727 75.0988 27.9913 74.3837 26.5901C73.6686 25.1919 73.3111 23.5843 73.3111 21.7674C73.3111 19.9506 73.6686 18.3808 74.3837 16.9942V16.9971ZM86.6395 19.032C86.2122 18.2529 85.6366 17.6541 84.9099 17.2384C84.1831 16.8227 83.4041 16.6134 82.5698 16.6134C81.7355 16.6134 80.968 16.8169 80.2616 17.2209C79.5581 17.6279 78.9855 18.2209 78.5465 19C78.1076 19.7791 77.8895 20.7035 77.8895 21.7703C77.8895 22.8372 78.1076 23.7733 78.5465 24.5727C78.9855 25.375 79.561 25.9884 80.2762 26.4157C80.9913 26.843 81.7558 27.0552 82.5669 27.0552C83.3779 27.0552 84.1802 26.8459 84.907 26.4302C85.6337 26.0145 86.2093 25.4157 86.6366 24.6366C87.064 23.8576 87.2762 22.9215 87.2762 21.8343C87.2762 20.7471 87.061 19.811 86.6366 19.032H86.6395Z" fill="#1B1B1F"/>
<path d="M102.308 26.5785L106.794 12.9593H111.567L104.997 30.7093H99.5494L93.0116 12.9593H97.8169L102.302 26.5785H102.308Z" fill="#1B1B1F"/>
<path d="M128.552 23.1802H115.576C115.683 24.4622 116.131 25.4651 116.922 26.1919C117.712 26.9186 118.683 27.282 119.837 27.282C121.503 27.282 122.689 26.5669 123.395 25.1337H128.233C127.721 26.843 126.738 28.2471 125.285 29.3459C123.831 30.4477 122.049 30.9971 119.933 30.9971C118.224 30.9971 116.692 30.6192 115.334 29.8605C113.977 29.1017 112.922 28.0291 112.163 26.6395C111.404 25.25 111.026 23.6483 111.026 21.8343C111.026 20.0203 111.398 18.3837 112.148 16.9971C112.895 15.6076 113.942 14.5407 115.288 13.7936C116.634 13.0465 118.183 12.6715 119.933 12.6715C121.683 12.6715 123.131 13.0349 124.468 13.7616C125.802 14.4884 126.84 15.5203 127.576 16.8546C128.311 18.189 128.68 19.7238 128.68 21.4535C128.68 22.093 128.637 22.6715 128.552 23.1831V23.1802ZM124.035 20.1686C124.015 19.0145 123.596 18.0901 122.785 17.3983C121.974 16.7035 120.98 16.3576 119.805 16.3576C118.695 16.3576 117.759 16.6948 117.003 17.3663C116.244 18.0378 115.779 18.9738 115.61 20.1686H124.038H124.035Z" fill="#1B1B1F"/>
<defs>
<linearGradient id="paint0_linear_34_14821" x1="0.419327" y1="40.1992" x2="34.5003" y2="40.1992" gradientUnits="userSpaceOnUse">
<stop stop-color="#FF5601"/>
<stop offset="0.5" stop-color="#FF4000"/>
<stop offset="1" stop-color="#FF1F01"/>
</linearGradient>
</defs>
</svg>
