<svg xmlns="http://www.w3.org/2000/svg" xmlns:xlink="http://www.w3.org/1999/xlink" viewBox="0 0 325 200">
  <defs>
    <linearGradient id="b" x1="58.196%" x2="33.589%" y1="-6.64%" y2="102.323%">
      <stop offset="0%" stop-color="#EEF1F3"/>
      <stop offset="100%" stop-color="#F2EDFD"/>
    </linearGradient>
    <path id="a" d="M178.175 175.379c-13.401-4.143-23.283-4.477-37.052-7.133-13.77-2.656-59.85 13.088-81.689 6.337-21.84-6.75-63.38-43.799-58.254-99.836C6.307 18.709 49.696-4.927 68.377.847c18.681 5.775 23.832 42.994 40.276 43.331 16.443.338 39.298-45.774 70.65-39.063 31.353 6.711 45.825 26.72 34.189 53.472-11.637 26.753 8.386 70.235 5.868 99.434-2.519 29.198-27.783 21.5-41.185 17.358z"/>
    <path id="e" d="M68 18.842C68 14.512 71.509 11 75.835 11h23.868c4.327 0 7.835 3.52 7.835 7.842v4.79c0 4.33-3.51 7.842-7.835 7.842H75.835c-4.327 0-7.835-3.52-7.835-7.843v-4.789z"/>
    <filter id="d" width="254.3%" height="397.9%" x="-77.1%" y="-100.1%" filterUnits="objectBoundingBox">
      <feOffset dy="10" in="SourceAlpha" result="shadowOffsetOuter1"/>
      <feGaussianBlur in="shadowOffsetOuter1" result="shadowBlurOuter1" stdDeviation="8.5"/>
      <feColorMatrix in="shadowBlurOuter1" values="0 0 0 0 0 0 0 0 0 0 0 0 0 0 0 0 0 0 0.2 0"/>
    </filter>
    <path id="g" d="M184 156.842c0-4.33 3.5-7.842 7.84-7.842h49.857c4.33 0 7.84 3.52 7.84 7.842v4.79c0 4.33-3.5 7.842-7.84 7.842H191.84c-4.33 0-7.84-3.52-7.84-7.843v-4.789z"/>
    <filter id="f" width="193.1%" height="397.9%" x="-46.5%" y="-100.1%" filterUnits="objectBoundingBox">
      <feOffset dy="10" in="SourceAlpha" result="shadowOffsetOuter1"/>
      <feGaussianBlur in="shadowOffsetOuter1" result="shadowBlurOuter1" stdDeviation="8.5"/>
      <feColorMatrix in="shadowBlurOuter1" values="0 0 0 0 0 0 0 0 0 0 0 0 0 0 0 0 0 0 0.2 0"/>
    </filter>
    <path id="i" d="M178.175 175.379c-13.401-4.143-23.283-4.477-37.052-7.133-13.77-2.656-59.85 13.088-81.689 6.337-21.84-6.75-63.38-43.799-58.254-99.836C6.307 18.709 49.696-4.927 68.377.847c18.681 5.775 23.832 42.994 40.276 43.331 16.443.338 39.298-45.774 70.65-39.063 31.353 6.711 45.825 26.72 34.189 53.472-11.637 26.753 8.386 70.235 5.868 99.434-2.519 29.198-27.783 21.5-41.185 17.358z"/>
    <filter id="h" width="104.1%" height="105%" x="-2.1%" y="-2.5%" filterUnits="objectBoundingBox">
      <feGaussianBlur in="SourceAlpha" result="shadowBlurInner1" stdDeviation="4.5"/>
      <feOffset in="shadowBlurInner1" result="shadowOffsetInner1"/>
      <feComposite in="shadowOffsetInner1" in2="SourceAlpha" k2="-1" k3="1" operator="arithmetic" result="shadowInnerInner1"/>
      <feColorMatrix in="shadowInnerInner1" values="0 0 0 0 0 0 0 0 0 0 0 0 0 0 0 0 0 0 0.05 0"/>
    </filter>
    <filter id="j" width="162.7%" height="336.8%" x="-31.4%" y="-91.1%" filterUnits="objectBoundingBox">
      <feOffset dy="10" in="SourceAlpha" result="shadowOffsetOuter1"/>
      <feGaussianBlur in="shadowOffsetOuter1" result="shadowBlurOuter1" stdDeviation="8.5"/>
      <feColorMatrix in="shadowBlurOuter1" result="shadowMatrixOuter1" values="0 0 0 0 0 0 0 0 0 0 0 0 0 0 0 0 0 0 0.2 0"/>
      <feMerge>
        <feMergeNode in="shadowMatrixOuter1"/>
        <feMergeNode in="SourceGraphic"/>
      </feMerge>
    </filter>
    <path id="l" d="M0 7.889C0 3.532 3.53 0 7.877 0H228.86c4.35 0 7.876 3.534 7.876 7.889v24.64c0 4.357-3.53 7.89-7.876 7.89H7.877c-4.35 0-7.877-3.535-7.877-7.89V7.89z"/>
    <filter id="k" width="132.1%" height="288%" x="-16.1%" y="-69.3%" filterUnits="objectBoundingBox">
      <feOffset dy="10" in="SourceAlpha" result="shadowOffsetOuter1"/>
      <feGaussianBlur in="shadowOffsetOuter1" result="shadowBlurOuter1" stdDeviation="11"/>
      <feColorMatrix in="shadowBlurOuter1" values="0 0 0 0 0.152941176 0 0 0 0 0.180392157 0 0 0 0 0.250980392 0 0 0 0.2 0"/>
    </filter>
    <linearGradient id="m" x1="35.192%" x2="146.327%" y1="0%" y2="222.965%">
      <stop offset="0%" stop-color="#392DD1"/>
      <stop offset="100%" stop-color="#FF4343"/>
    </linearGradient>
    <linearGradient id="n" x1="36.57%" x2="36.57%" y1="114.015%" y2="-19.4%">
      <stop offset="0%" stop-color="#FFF"/>
      <stop offset="100%" stop-color="#F2EDFD"/>
    </linearGradient>
    <linearGradient id="o" x1="0%" y1="50.706%" y2="50.706%">
      <stop offset="0%" stop-color="#F50"/>
      <stop offset="57.237%" stop-color="#FF2000"/>
      <stop offset="100%" stop-color="#FF2000"/>
    </linearGradient>
    <filter id="p" width="144.1%" height="284.2%" x="-22.1%" y="-92.1%" filterUnits="objectBoundingBox">
      <feOffset dy="10" in="SourceAlpha" result="shadowOffsetOuter1"/>
      <feGaussianBlur in="shadowOffsetOuter1" result="shadowBlurOuter1" stdDeviation="8.5"/>
      <feColorMatrix in="shadowBlurOuter1" result="shadowMatrixOuter1" values="0 0 0 0 0 0 0 0 0 0 0 0 0 0 0 0 0 0 0.2 0"/>
      <feMerge>
        <feMergeNode in="shadowMatrixOuter1"/>
        <feMergeNode in="SourceGraphic"/>
      </feMerge>
    </filter>
    <linearGradient id="q" x1="0%" y1="50.706%" y2="50.706%">
      <stop offset="0%" stop-color="#111"/>
      <stop offset="100%" stop-color="#555"/>
    </linearGradient>
    <circle id="s" cx="7.139" cy="7.139" r="7.139"/>
    <filter id="r" width="380.2%" height="380.2%" x="-140.1%" y="-91.1%" filterUnits="objectBoundingBox">
      <feOffset dy="7" in="SourceAlpha" result="shadowOffsetOuter1"/>
      <feGaussianBlur in="shadowOffsetOuter1" result="shadowBlurOuter1" stdDeviation="5.5"/>
      <feColorMatrix in="shadowBlurOuter1" values="0 0 0 0 0.152941 0 0 0 0 0.180392 0 0 0 0 0.25098 0 0 0 0.2 0"/>
    </filter>
    <circle id="u" cx="29.104" cy="7.139" r="7.139"/>
    <filter id="t" width="380.2%" height="380.2%" x="-140.1%" y="-91.1%" filterUnits="objectBoundingBox">
      <feOffset dy="7" in="SourceAlpha" result="shadowOffsetOuter1"/>
      <feGaussianBlur in="shadowOffsetOuter1" result="shadowBlurOuter1" stdDeviation="5.5"/>
      <feColorMatrix in="shadowBlurOuter1" values="0 0 0 0 0.152941 0 0 0 0 0.180392 0 0 0 0 0.25098 0 0 0 0.2 0"/>
    </filter>
    <linearGradient id="x" x1="0%" y1="50.706%" y2="50.706%">
      <stop offset="0%" stop-color="#FB542B"/>
      <stop offset="100%" stop-color="#E3380E"/>
    </linearGradient>
    <circle id="w" cx="51.069" cy="7.139" r="7.139"/>
    <filter id="v" width="380.2%" height="380.2%" x="-140.1%" y="-91.1%" filterUnits="objectBoundingBox">
      <feOffset dy="7" in="SourceAlpha" result="shadowOffsetOuter1"/>
      <feGaussianBlur in="shadowOffsetOuter1" result="shadowBlurOuter1" stdDeviation="5.5"/>
      <feColorMatrix in="shadowBlurOuter1" values="0 0 0 0 0.152941 0 0 0 0 0.180392 0 0 0 0 0.25098 0 0 0 0.2 0"/>
    </filter>
    <path id="z" d="M40 15.842C40 11.512 43.509 8 47.835 8h23.868c4.327 0 7.835 3.52 7.835 7.842v4.79c0 4.33-3.51 7.842-7.835 7.842H47.835c-4.327 0-7.835-3.52-7.835-7.843v-4.789z"/>
    <filter id="y" width="284.6%" height="456.6%" x="-92.3%" y="-129.4%" filterUnits="objectBoundingBox">
      <feOffset dy="10" in="SourceAlpha" result="shadowOffsetOuter1"/>
      <feGaussianBlur in="shadowOffsetOuter1" result="shadowBlurOuter1" stdDeviation="10.5"/>
      <feColorMatrix in="shadowBlurOuter1" values="0 0 0 0 0.152941 0 0 0 0 0.180392 0 0 0 0 0.25098 0 0 0 0.2 0"/>
    </filter>
    <rect id="B" width="43.298" height="20.474" x="133" y="157" rx="7.841"/>
    <filter id="A" width="192.4%" height="295.4%" x="-46.2%" y="-63.5%" filterUnits="objectBoundingBox">
      <feOffset dy="7" in="SourceAlpha" result="shadowOffsetOuter1"/>
      <feGaussianBlur in="shadowOffsetOuter1" result="shadowBlurOuter1" stdDeviation="5.5"/>
      <feColorMatrix in="shadowBlurOuter1" values="0 0 0 0 0.152941176 0 0 0 0 0.180392157 0 0 0 0 0.250980392 0 0 0 0.2 0"/>
    </filter>
    <rect id="D" width="30.358" height="20.474" x="23" y="111" rx="7.841"/>
    <filter id="C" width="231.8%" height="295.4%" x="-65.9%" y="-63.5%" filterUnits="objectBoundingBox">
      <feOffset dy="7" in="SourceAlpha" result="shadowOffsetOuter1"/>
      <feGaussianBlur in="shadowOffsetOuter1" result="shadowBlurOuter1" stdDeviation="5.5"/>
      <feColorMatrix in="shadowBlurOuter1" values="0 0 0 0 0.152941176 0 0 0 0 0.180392157 0 0 0 0 0.250980392 0 0 0 0.2 0"/>
    </filter>
    <rect id="F" width="22.358" height="20.474" x="249" y="54" rx="7.841"/>
    <filter id="E" width="278.9%" height="295.4%" x="-89.5%" y="-63.5%" filterUnits="objectBoundingBox">
      <feOffset dy="7" in="SourceAlpha" result="shadowOffsetOuter1"/>
      <feGaussianBlur in="shadowOffsetOuter1" result="shadowBlurOuter1" stdDeviation="5.5"/>
      <feColorMatrix in="shadowBlurOuter1" values="0 0 0 0 0.152941176 0 0 0 0 0.180392157 0 0 0 0 0.250980392 0 0 0 0.2 0"/>
    </filter>
  </defs>
  <g fill="none" fill-rule="evenodd" transform="translate(11 10)">
    <g transform="translate(40)">
      <mask id="c" fill="#fff">
        <use xlink:href="#a"/>
      </mask>
      <use fill="url(#b)" fill-rule="nonzero" xlink:href="#a"/>
      <g mask="url(#c)">
        <use fill="#000" filter="url(#d)" xlink:href="#e"/>
        <use fill="#FFF" xlink:href="#e"/>
      </g>
      <g mask="url(#c)">
        <use fill="#000" filter="url(#f)" xlink:href="#g"/>
        <use fill="#FFF" xlink:href="#g"/>
      </g>
      <use fill="#000" fill-rule="nonzero" filter="url(#h)" xlink:href="#i"/>
    </g>
    <g filter="url(#j)" transform="translate(0 40.8)">
      <g transform="translate(0 15.89)">
        <use fill="#000" filter="url(#k)" xlink:href="#l"/>
        <use fill="#FFF" xlink:href="#l"/>
        <path fill="#EBEBEB" fill-rule="nonzero" d="M11.924 23.834h39.747v5.959H11.924zM55.646 23.834H75.52v5.959H55.646zM79.495 23.834h31.798v5.959H79.495z"/>
      </g>
      <path fill="url(#m)" d="M0 0h236.737v29.793H0z"/>
      <path fill="url(#n)" d="M69.558 15.104a3.974 3.974 0 0 1 3.981-3.973h63.942a3.974 3.974 0 0 1 3.982 3.973v16.013H69.558V15.104z"/>
      <path fill="#EAEAEA" fill-rule="nonzero" d="M86.286 19.2h46.179v3.559H86.286z"/>
      <ellipse cx="79.095" cy="21.6" fill="url(#o)" fill-rule="nonzero" rx="3.595" ry="3.6"/>
      <path fill="#392DD1" d="M147.065 13.904a3.974 3.974 0 0 1 3.981-3.973h63.943a3.974 3.974 0 0 1 3.981 3.973v16.013h-71.905V13.904z"/>
      <ellipse cx="17.358" cy="14.171" fill="#FFF" rx="4.734" ry="4.724"/>
      <ellipse cx="33.138" cy="14.171" fill="#FFF" rx="4.734" ry="4.724"/>
      <ellipse cx="48.918" cy="14.171" fill="#FFF" rx="4.734" ry="4.724"/>
    </g>
    <g filter="url(#p)" transform="translate(64.714 87.6)">
      <path fill="#FFF" d="M0 23.779c0-4.357 3.53-7.889 7.877-7.889H228.86c4.35 0 7.876 3.534 7.876 7.889v24.64c0 4.357-3.53 7.89-7.876 7.89H7.877c-4.35 0-7.877-3.535-7.877-7.89V23.78z"/>
      <path fill="#EAEAEA" fill-rule="nonzero" d="M11.924 39.724h39.747v5.959H11.924zM55.646 39.724H75.52v5.959H55.646zM79.495 39.724h31.798v5.959H79.495z"/>
      <path fill="url(#q)" d="M0 0h236.737v29.793H0z"/>
      <path fill="url(#n)" d="M69.558 15.104a3.974 3.974 0 0 1 3.981-3.973h63.942a3.974 3.974 0 0 1 3.982 3.973v16.013H69.558V15.104z"/>
      <ellipse cx="79.095" cy="21.6" fill="url(#m)" fill-rule="nonzero" rx="3.595" ry="3.6"/>
      <path fill="#EAEAEA" fill-rule="nonzero" d="M87.484 19.2h46.179v3.559H87.484z"/>
      <path fill="#8E8E8E" d="M147.065 13.904a3.974 3.974 0 0 1 3.981-3.973h63.943a3.974 3.974 0 0 1 3.981 3.973v16.013h-71.905V13.904z"/>
      <g fill-rule="nonzero" stroke="#FFF" stroke-linecap="square" stroke-linejoin="round">
        <path d="M206.5 17.8l4.759 4.759M211.2 17.5l-4.759 4.759"/>
      </g>
      <ellipse cx="17.358" cy="14.171" fill="#D6D3DD" rx="4.734" ry="4.724"/>
      <ellipse cx="33.138" cy="14.171" fill="#D6D3DD" rx="4.734" ry="4.724"/>
      <ellipse cx="48.918" cy="14.171" fill="#D6D3DD" rx="4.734" ry="4.724"/>
    </g>
    <g fill-rule="nonzero" transform="translate(220 16)">
      <use fill="#000" filter="url(#r)" xlink:href="#s"/>
      <use fill="#FFF" xlink:href="#s"/>
      <use fill="#000" filter="url(#t)" xlink:href="#u"/>
      <use fill="url(#m)" xlink:href="#u"/>
      <use fill="#000" filter="url(#v)" xlink:href="#w"/>
      <use fill="url(#x)" xlink:href="#w"/>
    </g>
    <use fill="#000" filter="url(#y)" xlink:href="#z"/>
    <use fill="url(#m)" xlink:href="#z"/>
    <use fill="#000" filter="url(#A)" xlink:href="#B"/>
    <use fill="url(#o)" xlink:href="#B"/>
    <use fill="#000" filter="url(#C)" xlink:href="#D"/>
    <use fill="url(#x)" xlink:href="#D"/>
    <use fill="#000" filter="url(#E)" xlink:href="#F"/>
    <use fill="url(#x)" xlink:href="#F"/>
    <g fill-rule="nonzero" stroke="#FFF" stroke-linecap="square" stroke-linejoin="round">
      <path d="M204.5 58.8l4.759 4.759M209.2 58.5l-4.759 4.759"/>
    </g>
  </g>
</svg>
