<svg fill="none" xmlns="http://www.w3.org/2000/svg" viewBox="0 0 122 52">
  <path d="m22.0356 3.17034 1.9803-1.73273 1.4852 1.98026 1.7327-1.73273L28.719 3.6654l2.2278-1.98026" stroke="#FC5BF0" stroke-width=".990132" stroke-linecap="round" stroke-linejoin="round"/>
  <path d="M20.5002 47.1136h-2.1366c-.1739 0-.335.0912-.4245.2403l-1.1798 1.9663c-.0984.1641-.0935.3702.0126.5294l1.1645 1.7466c.0918.1378.2464.2205.4119.2205h2.1666c.1798 0 .3455-.0975.4328-.2547l.9694-1.7448c.0793-.1429.0831-.3157.01-.4619l-.9841-1.9681c-.0838-.1677-.2552-.2736-.4428-.2736Z" fill="#F58475"/>
  <path d="m8.05595 25.3632-.7426 2.7228-2.47533-.495-.49506 2.2278-2.2278-.4951-.7426 2.2278" stroke="#31F3D8" stroke-width=".990132" stroke-linecap="round" stroke-linejoin="round"/>
  <path d="m120.209 21.4528-3.917 2.154c-.146.0805-.242.2294-.255.3959l-.407 5.2972c-.03.3836.37.6528.715.4807l3.917-1.9585c.156-.078.259-.2323.272-.4062l.407-5.4927c.029-.3919-.388-.6597-.732-.4704Z" fill="#02CCB7"/>
  <path d="m88.7976 45.1461 2.6119-.3193.1146 2.4727 2.4072-.4585.1146 2.4727 2.9557-.3848" stroke="#FC5BF0" stroke-width=".990132" stroke-linecap="round" stroke-linejoin="round"/>
  <path d="M91.5213 5.79246c1.1374 1.86838 3.574 2.46099 5.4424 1.32362L92.8449.350069c-1.8684 1.137371-2.461 3.574011-1.3236 5.442391Z" fill="#FFB23A"/>
</svg>
