<svg fill="none" xmlns="http://www.w3.org/2000/svg" viewBox="0 0 129 67">
  <path d="m25.0356 6.17023 1.9803-1.73273 1.4852 1.98026 1.7327-1.73273L31.719 6.6653l2.2278-1.98027" stroke="#FC5BF0" stroke-width=".990132" stroke-linecap="round" stroke-linejoin="round"/>
  <path d="M18.5002 51.1133h-2.1366c-.1739 0-.335.0912-.4245.2403L14.7593 53.32c-.0984.164-.0935.3701.0126.5293l1.1645 1.7467c.0918.1377.2464.2204.4119.2204h2.1666c.1798 0 .3455-.0975.4328-.2546l.9694-1.7449c.0793-.1429.0831-.3157.01-.4618l-.9841-1.9682c-.0838-.1677-.2552-.2736-.4428-.2736Z" fill="#F58475"/>
  <path d="m8.05595 21.3633-.7426 2.7228-2.47533-.495-.49506 2.2278-2.2278-.4951-.7426 2.2278" stroke="#31F3D8" stroke-width=".990132" stroke-linecap="round" stroke-linejoin="round"/>
  <path d="m128.209 25.453-3.917 2.1541c-.146.0805-.242.2293-.255.3958l-.407 5.2972c-.03.3837.37.6529.715.4808l3.917-1.9586c.156-.0779.259-.2323.272-.4062l.407-5.4927c.029-.3918-.388-.6597-.732-.4704Z" fill="#02CCB7"/>
  <path d="m109.798 57.1462 2.611-.3193.115 2.4727 2.407-.4585.115 2.4727 2.956-.3848" stroke="#FC5BF0" stroke-width=".990132" stroke-linecap="round" stroke-linejoin="round"/>
  <path d="M106.521 12.7922c1.138 1.8684 3.574 2.461 5.443 1.3236l-4.119-6.76601c-1.868 1.13737-2.461 3.57401-1.324 5.44241Z" fill="#FFB23A"/>
  <g clip-path="url(#a)">
    <path d="M69 54c11.0457 0 20-8.9543 20-20s-8.9543-20-20-20-20 8.9543-20 20 8.9543 20 20 20Z" fill="#F2F4F7"/>
    <path fill-rule="evenodd" clip-rule="evenodd" d="m57.3727 42.7093 6.8824-4.0431 4.7448-8.3154v-8.0173c-.1251 0-.2503.0834-.3452.2494l-5.6204 9.8499-5.6199 9.8499c-.0947.1662-.1037.317-.0417.4266Z" fill="#FF4724"/>
    <path fill-rule="evenodd" clip-rule="evenodd" d="M68.9998 22.3335v8.0173l4.7445 8.3154 6.8824 4.0431c.0623-.1096.0533-.2604-.0415-.4266l-5.6201-9.8499-5.6203-9.8499c-.095-.1662-.2201-.2494-.345-.2494Z" fill="#9E1F63"/>
    <path fill-rule="evenodd" clip-rule="evenodd" d="m80.627 42.7096-6.8825-4.0431h-9.4893l-6.8824 4.0431c.062.1101.1954.1784.3854.1784h22.4832c.1899 0 .3233-.0683.3856-.1784Z" fill="#662D91"/>
    <path fill-rule="evenodd" clip-rule="evenodd" d="M64.2554 38.6664h9.4893l-4.7446-8.3153-4.7447 8.3153Z" fill="#fff"/>
  </g>
  <g clip-path="url(#b)">
    <path d="M83 54c4.4183 0 8-3.5817 8-8s-3.5817-8-8-8-8 3.5817-8 8 3.5817 8 8 8Z" fill="#000"/>
    <path d="m86.6288 47.8428-1.2106 1.2648c-.0263.0275-.0581.0494-.0935.0643-.0354.015-.0736.0227-.1121.0227h-5.7388c-.0274 0-.0542-.0078-.0771-.0224-.0229-.0146-.0409-.0355-.0518-.0599-.0109-.0245-.0143-.0515-.0096-.0778.0046-.0263.0171-.0507.0357-.0702l1.2115-1.2648c.0263-.0274.058-.0493.0933-.0642.0353-.015.0733-.0228.1118-.0228h5.7384c.0274 0 .0542.0078.0771.0224.0229.0146.0409.0354.0519.0599.0109.0245.0142.0515.0095.0778-.0046.0263-.017.0507-.0357.0702Zm-1.2106-2.547c-.0263-.0274-.0581-.0493-.0935-.0643s-.0736-.0227-.1121-.0227h-5.7388c-.0274 0-.0542.0078-.0771.0224-.0229.0147-.0409.0355-.0518.06-.0109.0244-.0143.0515-.0096.0778.0046.0262.0171.0506.0357.0701l1.2115 1.2649c.0263.0274.058.0492.0933.0642.0353.0149.0733.0227.1118.0228h5.7384c.0274 0 .0542-.0078.0771-.0225.0229-.0146.0409-.0354.0519-.0599a.133246.133246 0 0 0 .0095-.0778c-.0046-.0263-.017-.0507-.0357-.0702l-1.2106-1.2648Zm-5.9444-.9085h5.7388c.0385 0 .0767-.0077.1121-.0226.0354-.015.0672-.0369.0935-.0644l1.2106-1.2648c.0187-.0195.0311-.0439.0357-.0702.0047-.0263.0014-.0533-.0095-.0778-.011-.0244-.029-.0453-.0519-.0599-.0229-.0146-.0497-.0224-.0771-.0224h-5.7384c-.0385 0-.0765.0078-.1118.0228a.280527.280527 0 0 0-.0933.0642l-1.2111 1.2648c-.0187.0195-.0311.0439-.0358.0701a.134542.134542 0 0 0 .0095.0777c.0109.0245.0289.0453.0517.06.0229.0146.0496.0225.077.0225Z" fill="#66FFF6"/>
  </g>
  <defs>
    <clipPath id="a">
      <path fill="#fff" d="M49 14h40v40H49z"/>
    </clipPath>
    <clipPath id="b">
      <path fill="#fff" d="M75 38h16v16H75z"/>
    </clipPath>
  </defs>
</svg>
