<svg width="401" height="176" xmlns="http://www.w3.org/2000/svg"><g fill="none" fill-rule="evenodd"><path d="M237.613 109c3.67 0 7.551 2.42 10.462 5.1 2.912 2.68 4.713 5.358 4.713 5.358a2.933 2.933 0 0 0 4.842 0s1.812-2.68 4.713-5.359c2.9-2.68 6.75-5.099 10.419-5.099 8.12 0 14.613 6.514 14.613 14.607-.006 3.55-1.371 6.984-3.761 9.766-9.204 10.717-25.823 29.632-28.448 32.627-2.578-3.06-17.795-21.186-27.021-31.244-3.103-3.383-5.14-7.117-5.145-11.149A14.562 14.562 0 0 1 237.613 109M79.636 68.114c3.388.782 6.455 3.842 8.572 6.937 2.116 3.095 3.208 5.95 3.208 5.95a2.779 2.779 0 0 0 4.47 1.033s2.243-2.088 5.491-3.943c3.249-1.855 7.318-3.268 10.705-2.486a13.795 13.795 0 0 1 10.376 16.598c-.761 3.275-2.754 6.154-5.553 8.213-10.78 7.931-30.152 21.85-33.213 24.055-1.727-3.375-11.911-23.348-18.284-34.6-2.144-3.784-3.229-7.665-2.374-11.387a13.796 13.796 0 0 1 16.602-10.37" fill="#F43405" opacity=".131"/><path d="M334.625 40.861c-15.823 1.663-27.383 15.884-25.722 31.683.892 8.411 5.86 15.07 11.619 20.16 15.253 13.481 45.821 42.91 45.821 42.91a4.136 4.136 0 0 0 6.192-.567s25.577-36.152 37.852-53.909c3.962-5.732 6.008-12.707 5.275-19.792-1.66-15.798-15.925-27.305-31.748-25.642-8.46.89-14.848 6.42-19.213 11.394-2.474 2.818-2.724 3.689-3.89 5.555-1.535-1.582-1.947-2.382-4.96-4.625-5.318-3.954-12.764-8.033-21.223-7.144l-.003-.023M158.517 50.171c-11.297 5.51-16.037 19.192-10.535 30.473 2.935 6.003 8.423 9.605 14.074 11.828 14.967 5.886 45.614 19.475 45.614 19.475a3.268 3.268 0 0 0 4.443-2.094s9.22-33.752 13.535-50.252c1.393-5.326 1.027-11.057-1.432-16.12-5.502-11.28-19.201-15.968-30.5-10.457-6.04 2.946-9.288 8.778-11.184 13.65-1.076 2.761-1.026 3.475-1.388 5.176-1.566-.76-2.088-1.243-4.932-2.093-5.016-1.5-11.646-2.515-17.687.43l-.008-.016M9.496 6.473c-5.424 2.53-7.795 9.004-5.269 14.42 1.348 2.882 3.93 4.643 6.602 5.748 7.077 2.927 21.554 9.65 21.554 9.65a1.556 1.556 0 0 0 2.133-.96s4.67-15.991 6.862-23.81c.707-2.525.58-5.256-.548-7.687-2.526-5.416-9.009-7.762-14.433-5.232-2.9 1.352-4.496 4.102-5.439 6.406-.535 1.305-.517 1.645-.703 2.452-.74-.375-.985-.609-2.331-1.037-2.376-.756-5.524-1.295-8.424.058l-.004-.008" fill="#424056" opacity=".13"/></g></svg>