<svg width="120" height="98" xmlns="http://www.w3.org/2000/svg"><g fill="none" fill-rule="evenodd"><g stroke="#FFF" stroke-linecap="round" stroke-width="1.25"><g opacity=".496"><path d="M94.065 30.574c.83.672 1.328 1.755 1.123 2.95l-5.036 29.424-5.093 29.763a3 3 0 0 1-1.946 2.34M83.45 95.324c-1.122.553-2.388.572-3.309-.173L57.364 76.706 34.586 58.261c-.923-.747-1.167-1.99-.86-3.203M94.065 30.574c-.83-.672-1.992-.934-3.118-.485L63.212 41.132l-28.054 11.17a3 3 0 0 0-1.883 2.39M79.59 48.449l-12.37 4.683-11.106 3.328M75.057 71.8l2.266-11.677L79.59 48.45M76.166 75.271l-10.655-8.629-10.656-8.628" opacity=".261"/></g><g opacity=".311"><path d="M31.5 7.25c.698 0 1.396.338 1.783 1.016L42.83 24.95l9.657 16.876a1.89 1.89 0 0 1-.027 1.95M52.46 43.776c-.344.568-.981.974-1.757.974H12.298a2.035 2.035 0 0 1-1.76-.974M31.5 7.25c-.698 0-1.397.338-1.784 1.016L20.17 24.95l-9.656 16.876a1.89 1.89 0 0 0 .026 1.95M31.5 21.917l-4.48 7.299-4.393 6.117M39.008 35.333l-3.755-6.708-3.753-6.708M40.458 36.75H22.541" opacity=".261"/></g><g opacity=".496"><path d="M58.757-6.662a1.83 1.83 0 0 1 1.86.029l14.928 9.132 15.1 9.236c.588.357.864.966.843 1.568M91.713 13.179c.05.731-.222 1.425-.834 1.764L75.732 23.34l-15.148 8.397c-.614.34-1.346.203-1.94-.228M58.757-6.662a1.83 1.83 0 0 0-.96 1.592l-.167 17.5-.17 17.7a1.739 1.739 0 0 0 .885 1.545M65.277 5.1l-.206 7.753-.664 6.77M77.005 12.64L71.14 8.87 65.277 5.1M79.146 12.79l-7.086 3.928-7.086 3.928" opacity=".261"/></g></g></g></svg>
