<?xml version="1.0" encoding="UTF-8"?>
<!--Generator: Apple Native CoreSVG 175-->
<!DOCTYPE svg
PUBLIC "-//W3C//DTD SVG 1.1//EN"
       "http://www.w3.org/Graphics/SVG/1.1/DTD/svg11.dtd">
<svg version="1.1" xmlns="http://www.w3.org/2000/svg" xmlns:xlink="http://www.w3.org/1999/xlink" width="3300" height="2200">
 <!--glyph: "", point size: 100.0, font version: "17.3d3e1", template writer version: "65.1"-->
 <g id="Notes">
  <rect height="2200" id="artboard" style="fill:white;opacity:1" width="3300" x="0" y="0"/>
  <line style="fill:none;stroke:black;opacity:1;stroke-width:0.5;" x1="263" x2="3036" y1="292" y2="292"/>
  <text style="stroke:none;fill:black;font-family:sans-serif;font-size:13;font-weight:bold;" transform="matrix(1 0 0 1 263 322)">Weight/Scale Variations</text>
  <text style="stroke:none;fill:black;font-family:sans-serif;font-size:13;text-anchor:middle;" transform="matrix(1 0 0 1 559.711 322)">Ultralight</text>
  <text style="stroke:none;fill:black;font-family:sans-serif;font-size:13;text-anchor:middle;" transform="matrix(1 0 0 1 856.422 322)">Thin</text>
  <text style="stroke:none;fill:black;font-family:sans-serif;font-size:13;text-anchor:middle;" transform="matrix(1 0 0 1 1153.13 322)">Light</text>
  <text style="stroke:none;fill:black;font-family:sans-serif;font-size:13;text-anchor:middle;" transform="matrix(1 0 0 1 1449.84 322)">Regular</text>
  <text style="stroke:none;fill:black;font-family:sans-serif;font-size:13;text-anchor:middle;" transform="matrix(1 0 0 1 1746.56 322)">Medium</text>
  <text style="stroke:none;fill:black;font-family:sans-serif;font-size:13;text-anchor:middle;" transform="matrix(1 0 0 1 2043.27 322)">Semibold</text>
  <text style="stroke:none;fill:black;font-family:sans-serif;font-size:13;text-anchor:middle;" transform="matrix(1 0 0 1 2339.98 322)">Bold</text>
  <text style="stroke:none;fill:black;font-family:sans-serif;font-size:13;text-anchor:middle;" transform="matrix(1 0 0 1 2636.69 322)">Heavy</text>
  <text style="stroke:none;fill:black;font-family:sans-serif;font-size:13;text-anchor:middle;" transform="matrix(1 0 0 1 2933.4 322)">Black</text>
  <line style="fill:none;stroke:black;opacity:1;stroke-width:0.5;" x1="263" x2="3036" y1="1903" y2="1903"/>
  <g transform="matrix(1 0 0 1 263 1933)">
   <path d="M9.24805 0.830078Q10.8691 0.830078 12.2949 0.214844Q13.7207-0.400391 14.8096-1.49414Q15.8984-2.58789 16.5186-4.01367Q17.1387-5.43945 17.1387-7.05078Q17.1387-8.66211 16.5186-10.0879Q15.8984-11.5137 14.8047-12.6074Q13.7109-13.7012 12.2852-14.3164Q10.8594-14.9316 9.23828-14.9316Q7.62695-14.9316 6.20117-14.3164Q4.77539-13.7012 3.69141-12.6074Q2.60742-11.5137 1.9873-10.0879Q1.36719-8.66211 1.36719-7.05078Q1.36719-5.43945 1.9873-4.01367Q2.60742-2.58789 3.69629-1.49414Q4.78516-0.400391 6.21094 0.214844Q7.63672 0.830078 9.24805 0.830078ZM9.24805-0.654297Q7.91992-0.654297 6.7627-1.14746Q5.60547-1.64062 4.73145-2.51953Q3.85742-3.39844 3.36426-4.56055Q2.87109-5.72266 2.87109-7.05078Q2.87109-8.37891 3.35938-9.54102Q3.84766-10.7031 4.72168-11.582Q5.5957-12.4609 6.75293-12.9541Q7.91016-13.4473 9.23828-13.4473Q10.5762-13.4473 11.7334-12.9541Q12.8906-12.4609 13.7695-11.582Q14.6484-10.7031 15.1465-9.54102Q15.6445-8.37891 15.6445-7.05078Q15.6445-5.72266 15.1514-4.56055Q14.6582-3.39844 13.7842-2.51953Q12.9102-1.64062 11.748-1.14746Q10.5859-0.654297 9.24805-0.654297ZM5.6543-7.05078Q5.6543-6.72852 5.85938-6.52832Q6.06445-6.32812 6.40625-6.32812L8.51562-6.32812L8.51562-4.20898Q8.51562-3.88672 8.71094-3.67676Q8.90625-3.4668 9.23828-3.4668Q9.56055-3.4668 9.77051-3.67676Q9.98047-3.88672 9.98047-4.20898L9.98047-6.32812L12.0898-6.32812Q12.4219-6.32812 12.627-6.52832Q12.832-6.72852 12.832-7.05078Q12.832-7.38281 12.627-7.58789Q12.4219-7.79297 12.0898-7.79297L9.98047-7.79297L9.98047-9.90234Q9.98047-10.2344 9.77051-10.4443Q9.56055-10.6543 9.23828-10.6543Q8.90625-10.6543 8.71094-10.4443Q8.51562-10.2344 8.51562-9.90234L8.51562-7.79297L6.40625-7.79297Q6.06445-7.79297 5.85938-7.58789Q5.6543-7.38281 5.6543-7.05078Z"/>
  </g>
  <g transform="matrix(1 0 0 1 281.867 1933)">
   <path d="M11.709 2.91016Q13.75 2.91016 15.5518 2.12891Q17.3535 1.34766 18.7305-0.0292969Q20.1074-1.40625 20.8887-3.20801Q21.6699-5.00977 21.6699-7.05078Q21.6699-9.0918 20.8887-10.8936Q20.1074-12.6953 18.7305-14.0723Q17.3535-15.4492 15.5469-16.2305Q13.7402-17.0117 11.6992-17.0117Q9.6582-17.0117 7.85645-16.2305Q6.05469-15.4492 4.68262-14.0723Q3.31055-12.6953 2.5293-10.8936Q1.74805-9.0918 1.74805-7.05078Q1.74805-5.00977 2.5293-3.20801Q3.31055-1.40625 4.6875-0.0292969Q6.06445 1.34766 7.86621 2.12891Q9.66797 2.91016 11.709 2.91016ZM11.709 1.25Q9.98047 1.25 8.47656 0.605469Q6.97266-0.0390625 5.83496-1.17676Q4.69727-2.31445 4.05762-3.81836Q3.41797-5.32227 3.41797-7.05078Q3.41797-8.7793 4.05762-10.2832Q4.69727-11.7871 5.83008-12.9297Q6.96289-14.0723 8.4668-14.7119Q9.9707-15.3516 11.6992-15.3516Q13.4277-15.3516 14.9316-14.7119Q16.4355-14.0723 17.5781-12.9297Q18.7207-11.7871 19.3652-10.2832Q20.0098-8.7793 20.0098-7.05078Q20.0098-5.32227 19.3701-3.81836Q18.7305-2.31445 17.5928-1.17676Q16.4551-0.0390625 14.9463 0.605469Q13.4375 1.25 11.709 1.25ZM7.17773-7.05078Q7.17773-6.69922 7.41211-6.47461Q7.64648-6.25 8.01758-6.25L10.8887-6.25L10.8887-3.36914Q10.8887-2.99805 11.1133-2.76855Q11.3379-2.53906 11.6895-2.53906Q12.0605-2.53906 12.29-2.76855Q12.5195-2.99805 12.5195-3.36914L12.5195-6.25L15.4004-6.25Q15.7715-6.25 16.001-6.47461Q16.2305-6.69922 16.2305-7.05078Q16.2305-7.42188 16.001-7.65137Q15.7715-7.88086 15.4004-7.88086L12.5195-7.88086L12.5195-10.752Q12.5195-11.1328 12.29-11.3623Q12.0605-11.5918 11.6895-11.5918Q11.3379-11.5918 11.1133-11.3574Q10.8887-11.123 10.8887-10.752L10.8887-7.88086L8.01758-7.88086Q7.63672-7.88086 7.40723-7.65137Q7.17773-7.42188 7.17773-7.05078Z"/>
  </g>
  <g transform="matrix(1 0 0 1 305.646 1933)">
   <path d="M14.9707 5.66406Q17.0605 5.66406 18.96 5.01465Q20.8594 4.36523 22.4512 3.19336Q24.043 2.02148 25.2197 0.429688Q26.3965-1.16211 27.0459-3.06641Q27.6953-4.9707 27.6953-7.05078Q27.6953-9.14062 27.0459-11.04Q26.3965-12.9395 25.2197-14.5312Q24.043-16.123 22.4512-17.2998Q20.8594-18.4766 18.9551-19.126Q17.0508-19.7754 14.9609-19.7754Q12.8711-19.7754 10.9717-19.126Q9.07227-18.4766 7.48535-17.2998Q5.89844-16.123 4.72168-14.5312Q3.54492-12.9395 2.90039-11.04Q2.25586-9.14062 2.25586-7.05078Q2.25586-4.9707 2.90527-3.06641Q3.55469-1.16211 4.72656 0.429688Q5.89844 2.02148 7.49023 3.19336Q9.08203 4.36523 10.9814 5.01465Q12.8809 5.66406 14.9707 5.66406ZM14.9707 3.84766Q13.1641 3.84766 11.5283 3.2959Q9.89258 2.74414 8.53516 1.74805Q7.17773 0.751953 6.17676-0.610352Q5.17578-1.97266 4.62891-3.6084Q4.08203-5.24414 4.08203-7.05078Q4.08203-8.86719 4.62891-10.5029Q5.17578-12.1387 6.17188-13.501Q7.16797-14.8633 8.52539-15.8594Q9.88281-16.8555 11.5186-17.4023Q13.1543-17.9492 14.9609-17.9492Q16.7773-17.9492 18.4131-17.4023Q20.0488-16.8555 21.4111-15.8594Q22.7734-14.8633 23.7695-13.501Q24.7656-12.1387 25.3174-10.5029Q25.8691-8.86719 25.8691-7.05078Q25.8789-5.24414 25.332-3.6084Q24.7852-1.97266 23.7842-0.610352Q22.7832 0.751953 21.4209 1.74805Q20.0586 2.74414 18.4229 3.2959Q16.7871 3.84766 14.9707 3.84766ZM9.19922-7.05078Q9.19922-6.66992 9.45801-6.4209Q9.7168-6.17188 10.1172-6.17188L14.0625-6.17188L14.0625-2.2168Q14.0625-1.81641 14.3115-1.55762Q14.5605-1.29883 14.9512-1.29883Q15.3516-1.29883 15.6104-1.55273Q15.8691-1.80664 15.8691-2.2168L15.8691-6.17188L19.8242-6.17188Q20.2246-6.17188 20.4785-6.4209Q20.7324-6.66992 20.7324-7.05078Q20.7324-7.46094 20.4785-7.71484Q20.2246-7.96875 19.8242-7.96875L15.8691-7.96875L15.8691-11.9141Q15.8691-12.3242 15.6104-12.583Q15.3516-12.8418 14.9512-12.8418Q14.5605-12.8418 14.3115-12.583Q14.0625-12.3242 14.0625-11.9141L14.0625-7.96875L10.1172-7.96875Q9.70703-7.96875 9.45312-7.71484Q9.19922-7.46094 9.19922-7.05078Z"/>
  </g>
  <text style="stroke:none;fill:black;font-family:sans-serif;font-size:13;font-weight:bold;" transform="matrix(1 0 0 1 263 1953)">Design Variations</text>
  <text style="stroke:none;fill:black;font-family:sans-serif;font-size:13;" transform="matrix(1 0 0 1 263 1971)">Symbols are supported in up to nine weights and three scales.</text>
  <text style="stroke:none;fill:black;font-family:sans-serif;font-size:13;" transform="matrix(1 0 0 1 263 1989)">For optimal layout with text and other symbols, vertically align</text>
  <text style="stroke:none;fill:black;font-family:sans-serif;font-size:13;" transform="matrix(1 0 0 1 263 2007)">symbols with the adjacent text.</text>
  <line style="fill:none;stroke:#00AEEF;stroke-width:0.5;opacity:1.0;" x1="776" x2="776" y1="1919" y2="1933"/>
  <g transform="matrix(1 0 0 1 776 1933)">
   <path d="M3.31055 0.15625Q3.70117 0.15625 3.91602-0.00976562Q4.13086-0.175781 4.26758-0.585938L5.52734-4.0332L11.2891-4.0332L12.5488-0.585938Q12.6855-0.175781 12.9004-0.00976562Q13.1152 0.15625 13.4961 0.15625Q13.8867 0.15625 14.1162-0.0585938Q14.3457-0.273438 14.3457-0.644531Q14.3457-0.869141 14.2383-1.17188L9.6582-13.3691Q9.48242-13.8184 9.17969-14.043Q8.87695-14.2676 8.4082-14.2676Q7.5-14.2676 7.17773-13.3789L2.59766-1.16211Q2.49023-0.859375 2.49023-0.634766Q2.49023-0.263672 2.70996-0.0537109Q2.92969 0.15625 3.31055 0.15625ZM6.00586-5.51758L8.37891-12.0898L8.42773-12.0898L10.8008-5.51758Z"/>
  </g>
  <line style="fill:none;stroke:#00AEEF;stroke-width:0.5;opacity:1.0;" x1="793.197" x2="793.197" y1="1919" y2="1933"/>
  <text style="stroke:none;fill:black;font-family:sans-serif;font-size:13;font-weight:bold;" transform="matrix(1 0 0 1 776 1953)">Margins</text>
  <text style="stroke:none;fill:black;font-family:sans-serif;font-size:13;" transform="matrix(1 0 0 1 776 1971)">Leading and trailing margins on the left and right side of each symbol</text>
  <text style="stroke:none;fill:black;font-family:sans-serif;font-size:13;" transform="matrix(1 0 0 1 776 1989)">can be adjusted by modifying the x-location of the margin guidelines.</text>
  <text style="stroke:none;fill:black;font-family:sans-serif;font-size:13;" transform="matrix(1 0 0 1 776 2007)">Modifications are automatically applied proportionally to all</text>
  <text style="stroke:none;fill:black;font-family:sans-serif;font-size:13;" transform="matrix(1 0 0 1 776 2025)">scales and weights.</text>
  <g transform="matrix(1 0 0 1 1289 1933)">
   <path d="M2.8418 1.86523L4.54102 3.57422Q5.18555 4.22852 5.90332 4.17969Q6.62109 4.13086 7.31445 3.35938L18.0078-8.42773L17.041-9.4043L6.42578 2.27539Q6.16211 2.57812 5.89355 2.61719Q5.625 2.65625 5.27344 2.30469L4.10156 1.14258Q3.75 0.791016 3.79395 0.522461Q3.83789 0.253906 4.14062-0.0195312L15.6152-10.8203L14.6387-11.7871L3.04688-0.898438Q2.30469-0.214844 2.25098 0.498047Q2.19727 1.21094 2.8418 1.86523ZM9.25781-16.3281Q8.94531-16.0254 8.90625-15.6348Q8.86719-15.2441 9.04297-14.9512Q9.21875-14.6777 9.55566-14.541Q9.89258-14.4043 10.3809-14.5215Q11.4746-14.7754 12.5977-14.7314Q13.7207-14.6875 14.7949-13.9844L14.209-12.5293Q13.9551-11.9043 14.0674-11.4404Q14.1797-10.9766 14.5801-10.5664L16.875-8.25195Q17.2363-7.88086 17.5781-7.82227Q17.9199-7.76367 18.3398-7.8418L19.4043-8.03711L20.0684-7.36328L20.0293-6.80664Q20-6.43555 20.1221-6.12305Q20.2441-5.81055 20.6055-5.44922L21.3672-4.70703Q21.7285-4.3457 22.1533-4.33105Q22.5781-4.31641 22.9297-4.66797L25.8398-7.58789Q26.1914-7.93945 26.1816-8.35449Q26.1719-8.76953 25.8105-9.13086L25.0391-9.89258Q24.6875-10.2539 24.3799-10.3857Q24.0723-10.5176 23.7109-10.4883L23.1348-10.4395L22.4902-11.0742L22.7344-12.1973Q22.832-12.6172 22.6953-12.9834Q22.5586-13.3496 22.1191-13.7891L19.9219-15.9766Q18.6719-17.2168 17.2607-17.8369Q15.8496-18.457 14.4189-18.4814Q12.9883-18.5059 11.665-17.959Q10.3418-17.4121 9.25781-16.3281ZM10.752-15.957Q11.6602-16.6211 12.7002-16.9043Q13.7402-17.1875 14.8047-17.085Q15.8691-16.9824 16.8701-16.5137Q17.8711-16.0449 18.7012-15.2051L21.1328-12.793Q21.3086-12.6172 21.3525-12.4512Q21.3965-12.2852 21.3379-12.0312L21.0156-10.5469L22.5195-9.0625L23.5059-9.12109Q23.6914-9.13086 23.7891-9.09668Q23.8867-9.0625 24.0332-8.91602L24.6094-8.33984L22.168-5.89844L21.5918-6.47461Q21.4453-6.62109 21.4062-6.71875Q21.3672-6.81641 21.377-7.01172L21.4453-7.98828L19.9512-9.47266L18.4277-9.21875Q18.1836-9.16992 18.042-9.2041Q17.9004-9.23828 17.7148-9.41406L15.7129-11.416Q15.5176-11.5918 15.4932-11.7529Q15.4688-11.9141 15.5859-12.1875L16.4648-14.2773Q15.293-15.3711 13.8281-15.791Q12.3633-16.2109 10.8398-15.7617Q10.7227-15.7324 10.6885-15.8057Q10.6543-15.8789 10.752-15.957Z"/>
  </g>
  <text style="stroke:none;fill:black;font-family:sans-serif;font-size:13;font-weight:bold;" transform="matrix(1 0 0 1 1289 1953)">Exporting</text>
  <text style="stroke:none;fill:black;font-family:sans-serif;font-size:13;" transform="matrix(1 0 0 1 1289 1971)">Symbols should be outlined when exporting to ensure the</text>
  <text style="stroke:none;fill:black;font-family:sans-serif;font-size:13;" transform="matrix(1 0 0 1 1289 1989)">design is preserved when submitting to Xcode.</text>
  <text id="template-version" style="stroke:none;fill:black;font-family:sans-serif;font-size:13;text-anchor:end;" transform="matrix(1 0 0 1 3036 1933)">Template v.2.0</text>
  <text style="stroke:none;fill:black;font-family:sans-serif;font-size:13;text-anchor:end;" transform="matrix(1 0 0 1 3036 1951)">Requires Xcode 12 or greater</text>
  <text id="descriptive-name" style="stroke:none;fill:black;font-family:sans-serif;font-size:13;text-anchor:end;" transform="matrix(1 0 0 1 3036 1969)">Generated from brave.logo</text>
  <text style="stroke:none;fill:black;font-family:sans-serif;font-size:13;text-anchor:end;" transform="matrix(1 0 0 1 3036 1987)">Typeset at 100 points</text>
  <text style="stroke:none;fill:black;font-family:sans-serif;font-size:13;" transform="matrix(1 0 0 1 263 726)">Small</text>
  <text style="stroke:none;fill:black;font-family:sans-serif;font-size:13;" transform="matrix(1 0 0 1 263 1156)">Medium</text>
  <text style="stroke:none;fill:black;font-family:sans-serif;font-size:13;" transform="matrix(1 0 0 1 263 1586)">Large</text>
 </g>
 <g id="Guides">
  <g id="H-reference" style="fill:#27AAE1;stroke:none;" transform="matrix(1 0 0 1 339 696)">
   <path d="M0.993347 0L3.6377 0L29.3282-67.1326L30.0301-67.1326L30.0301-70.459L28.1227-70.459ZM11.6882-24.4797L46.9818-24.4797L46.2311-26.7288L12.4382-26.7288ZM55.1193 0L57.7637 0L30.6381-70.459L29.4327-70.459L29.4327-67.1326Z"/>
  </g>
  <line id="Baseline-S" style="fill:none;stroke:#27AAE1;opacity:1;stroke-width:0.5;" x1="263" x2="3036" y1="696" y2="696"/>
  <line id="Capline-S" style="fill:none;stroke:#27AAE1;opacity:1;stroke-width:0.5;" x1="263" x2="3036" y1="625.541" y2="625.541"/>
  <g id="H-reference" style="fill:#27AAE1;stroke:none;" transform="matrix(1 0 0 1 339 1126)">
   <path d="M0.993347 0L3.6377 0L29.3282-67.1326L30.0301-67.1326L30.0301-70.459L28.1227-70.459ZM11.6882-24.4797L46.9818-24.4797L46.2311-26.7288L12.4382-26.7288ZM55.1193 0L57.7637 0L30.6381-70.459L29.4327-70.459L29.4327-67.1326Z"/>
  </g>
  <line id="Baseline-M" style="fill:none;stroke:#27AAE1;opacity:1;stroke-width:0.5;" x1="263" x2="3036" y1="1126" y2="1126"/>
  <line id="Capline-M" style="fill:none;stroke:#27AAE1;opacity:1;stroke-width:0.5;" x1="263" x2="3036" y1="1055.54" y2="1055.54"/>
  <g id="H-reference" style="fill:#27AAE1;stroke:none;" transform="matrix(1 0 0 1 339 1556)">
   <path d="M0.993347 0L3.6377 0L29.3282-67.1326L30.0301-67.1326L30.0301-70.459L28.1227-70.459ZM11.6882-24.4797L46.9818-24.4797L46.2311-26.7288L12.4382-26.7288ZM55.1193 0L57.7637 0L30.6381-70.459L29.4327-70.459L29.4327-67.1326Z"/>
  </g>
  <line id="Baseline-L" style="fill:none;stroke:#27AAE1;opacity:1;stroke-width:0.5;" x1="263" x2="3036" y1="1556" y2="1556"/>
  <line id="Capline-L" style="fill:none;stroke:#27AAE1;opacity:1;stroke-width:0.5;" x1="263" x2="3036" y1="1485.54" y2="1485.54"/>
  <line id="left-margin" style="fill:none;stroke:#00AEEF;stroke-width:0.5;opacity:1.0;" x1="1389.49" x2="1389.49" y1="1030.78" y2="1150.12"/>
  <line id="right-margin" style="fill:none;stroke:#00AEEF;stroke-width:0.5;opacity:1.0;" x1="1510.2" x2="1510.2" y1="1030.78" y2="1150.12"/>
 </g>
 <g id="Symbols">
  <g id="Regular-L" transform="matrix(1 0 0 1 1377.49 1556)">
   <path d="M92.1655-96.3279L102.955-84.1661L105.02-84.8724C109.362-86.3579 114.182-85.2503 117.413-82.0291L124.8-74.6575C125.404-74.0568 125.572-73.1485 125.223-72.3745L122.508-66.362L126.416-55.8956L123.911-46.4508L112.502-3.44385C111.187 1.51488 108.15 5.86049 103.924 8.83798C103.924 8.83798 91.7188 17.3761 76.2927 27.3485C75.0879 28.1267 73.8246 28.6892 72.4688 28.6716C71.113 28.6917 69.8503 28.1267 68.6424 27.3523C68.505 27.2644 68.3677 27.1763 68.2303 27.0882L66.9942 26.2935C66.7197 26.1166 66.4453 25.9395 66.1712 25.7622L65.3497 25.2303C65.213 25.1416 65.0763 25.0529 64.9398 24.9643L64.122 24.4324C63.5778 24.0779 63.0358 23.724 62.4969 23.3711L61.691 22.8427C60.2181 21.8758 58.772 20.9199 57.3715 19.9891L56.6122 19.4839C48.3121 13.9565 41.7749 9.42319 41.0549 8.92315L41.0056 8.88889C40.9946 8.88123 40.989 8.87735 40.989 8.87735C36.7582 5.90486 33.7166 1.56426 32.3966-3.3926L20.933-46.383L18.416-55.8148L22.3046-66.276L19.4677-72.5165C19.1876-73.1329 19.3198-73.8548 19.802-74.3356L27.3202-81.8453C30.5719-85.1174 35.4501-86.2367 39.8315-84.7161L41.8399-84.0189L52.4916-96.3279L92.1655-96.3279ZM72.9945-19.3457L71.6343-19.3457C71.5603-19.3457 71.1902-19.2216 70.6475-19.0198L70.3351-18.9024C69.7883-18.6947 69.1174-18.4298 68.415-18.1426L66.9144-17.5276C65.2969-16.8682 62.7052-15.6744 61.153-14.8763L56.7012-12.5932C55.149-11.7969 55.0471-10.3307 56.4776-9.33508L60.2409-6.71509C61.6713-5.72197 63.9156-3.99385 65.2286-2.87573C66.5422-1.75886 68.6666 0.0698853 69.9498 1.18676C71.2323 2.30238 73.3505 2.29675 74.6579 1.17238L79.4207-2.9226C80.7317-4.05135 82.9712-5.79259 84.3947-6.79634L88.1714-9.45758C89.5956-10.4613 89.4831-11.9207 87.9228-12.7001L83.495-14.9157C81.9347-15.6963 79.333-16.8744 77.7162-17.5338L76.2156-18.1463C74.5988-18.8075 73.1486-19.3457 72.9945-19.3457ZM73.5984-77.0042L72.2799-76.9834L70.962-77.0029C69.5397-76.6771 67.0119-75.9759 65.3473-75.4429L61.5774-74.2399C59.9115-73.7082 58.0589-73.3641 57.4607-73.4762C56.9812-73.5648 55.6717-73.8111 54.287-74.0722L53.7657-74.1706C53.5917-74.2034 53.418-74.2362 53.2461-74.2686L48.0046-75.2604C46.2857-75.585 44.8737-75.8443 44.8671-75.8352C44.7269-75.8443 43.7965-74.7469 42.7062-73.3993L39.2458-69.1245C38.1554-67.7756 36.4603-65.5039 35.4798-64.0755L33.119-60.6335C32.1385-59.205 31.1196-57.5812 30.8536-57.0272C30.5876-56.4707 30.3534-54.4141 30.3706-53.769L30.5492-53.2086L30.8363-52.2024C31.5959-51.2719 33.1997-49.4824 34.3987-48.2273L45.4322-36.6881C46.6323-35.4331 47.3115-33.8569 46.63-32.2681L45.1463-28.6556C44.4661-27.0669 44.4026-24.4444 45.006-22.8244C45.7273-20.8894 46.8759-19.3057 48.3804-18.0988L49.5303-17.1763C50.8867-16.0882 53.2911-15.8051 54.8711-16.5469L59.9432-18.9275C61.5234-19.6707 63.8802-21.2219 65.1795-22.3775L69.9777-26.6406C70.9135-27.4725 70.9651-28.9019 70.0914-29.795L58.3857-37.5637C56.9341-38.5269 56.165-40.3112 56.9868-41.8331L61.1369-49.2961C61.9583-50.8183 62.287-52.8397 61.8633-53.7885C61.4414-54.7387 59.7553-56.0133 58.1184-56.6232L44.5347-61.5823C42.8978-62.1909 42.9838-62.8217 44.7265-62.9846L53.4012-63.6285C55.144-63.7901 56.4233-63.545 58.1091-63.0824L64.6774-61.4885C66.3632-61.0258 66.7224-59.2598 66.4061-57.5642L63.7143-43.0793C63.398-41.385 63.2446-39.675 63.372-39.2831C63.5-38.8919 65.0049-38.2769 66.7174-37.9169L69.434-37.3462C71.1446-36.9875 73.942-37.0044 75.6489-37.3862L77.8946-37.8881C79.6021-38.27 81.1027-38.9025 81.2295-39.2944C81.3568-39.6868 81.2015-41.3943 80.884-43.09L78.1754-57.572C77.8592-59.2663 78.2158-61.0349 79.9016-61.4988L86.467-63.1006C88.1527-63.5646 89.4309-63.8148 91.1751-63.6532L99.8494-63.0172C101.592-62.8556 101.68-62.2248 100.043-61.6136L86.467-56.6402C84.829-56.0289 83.1458-54.7517 82.7232-53.8015C82.3026-52.8515 82.6319-50.8301 83.4564-49.3078L87.6146-41.8475C88.4392-40.3268 87.6712-38.5425 86.2209-37.5781L74.5255-29.7975C73.6537-28.9031 73.7066-27.475 74.6436-26.6431L79.4455-22.3869C80.7479-21.2319 83.106-19.6825 84.6861-18.9432L89.7621-16.5688C91.3435-15.8276 93.7463-16.1138 95.1028-17.2051L96.2529-18.1288C97.7548-19.3369 98.9006-20.9219 99.566-22.715C100.221-24.4775 100.154-27.1019 99.471-28.6881L97.9847-32.3006C97.3005-33.8881 97.9772-35.4644 99.1758-36.7206L110.196-48.2729C111.395-49.5306 112.996-51.3214 113.756-52.2546L114.04-53.2594L114.219-53.8198C114.235-54.4649 114.17-55.4763 114.072-56.0667C114.013-56.43 113.41-57.5534 112.726-58.6964L112.466-59.1245C112.118-59.6927 111.763-60.2426 111.461-60.6817L109.097-64.1198C108.114-65.5482 106.417-67.8173 105.324-69.1636L101.858-73.4345C100.765-74.7834 99.8351-75.8769 99.7885-75.869C99.6878-75.8769 98.2761-75.6162 96.5574-75.2891L91.3168-74.2934L90.5798-74.1531C89.0867-73.8689 87.6184-73.5894 87.1033-73.4932C86.5055-73.381 84.6526-73.7225 82.9867-74.253L79.2144-75.452C77.5479-75.9825 75.0207-76.681 73.5984-77.0042Z"/>
  </g>
  <g id="Regular-M" transform="matrix(1 0 0 1 1389.49 1126)">
   <path d="M75.7768-83.0001L84.1685-73.5626L85.775-74.1107C89.1517-75.2634 92.9006-74.4039 95.4137-71.9042L101.159-66.1839C101.629-65.7177 101.759-65.0129 101.488-64.4122L99.3761-59.7466L102.416-51.6246L100.467-44.2954L91.5938-10.9221C90.5711-7.0741 88.2093-3.70191 84.922-1.39138C84.922-1.39138 75.4293 5.23418 63.4312 12.9728C62.4941 13.5766 61.5116 14.0131 60.4571 13.9995C59.4025 14.0151 58.4205 13.5766 57.481 12.9757L56.7765 12.5249C56.4243 12.2991 56.0722 12.0727 55.7206 11.8461L54.6677 11.1657C52.0995 9.50211 49.5793 7.84033 47.2621 6.2963L46.6353 5.87821C40.5234 1.79739 35.9728-1.36082 35.9728-1.36082C32.6821-3.66747 30.3164-7.03579 29.2898-10.8823L20.3737-44.2429L18.416-51.5619L21.4405-59.6798L19.234-64.5225C19.0161-65.0007 19.1189-65.561 19.494-65.9341L25.3415-71.7616C27.8706-74.3007 31.6648-75.1694 35.0725-73.9893L36.6346-73.4483L44.9192-83.0001L75.7768-83.0001ZM60.8659-23.2619L59.808-23.2619C59.6877-23.2619 58.5606-22.8409 57.3041-22.3283L56.137-21.851C54.879-21.3394 52.8632-20.413 51.6559-19.7937L48.1934-18.022C46.9861-17.4041 46.9069-16.2663 48.0195-15.4937L50.9465-13.4606C52.059-12.6899 53.8046-11.3489 54.8258-10.4812C55.8475-9.61452 57.4998-8.19542 58.4978-7.32873C59.4953-6.463 61.1428-6.46737 62.1597-7.33988L65.8641-10.5176C66.8838-11.3935 68.6256-12.7447 69.7328-13.5236L72.6702-15.5887C73.7779-16.3676 73.6904-17.5001 72.4769-18.1049L69.033-19.8242C67.8194-20.43 65.7959-21.3442 64.5384-21.8559L63.3713-22.3312C62.1138-22.8443 60.9858-23.2619 60.8659-23.2619ZM61.3357-68.0049L60.3101-67.9888L59.2851-68.0039C58.1788-67.7511 56.2128-67.207 54.9181-66.7933L51.986-65.8598C50.6903-65.4472 49.2493-65.1802 48.7841-65.2672C48.4002-65.338 47.3322-65.5384 46.2205-65.7476L45.7432-65.8374L45.5061-65.8821L41.4293-66.6517C40.0924-66.9036 38.9942-67.1048 38.9891-67.0977C38.88-67.1048 38.1564-66.2533 37.3084-65.2075L34.617-61.8903C33.7689-60.8435 32.4505-59.0807 31.6878-57.9722L29.8517-55.3012C29.089-54.1928 28.2966-52.9326 28.0897-52.5028C27.8828-52.0709 27.7006-50.475 27.714-49.9744L27.8529-49.5395L28.0763-48.7587C28.4139-48.3461 28.9659-47.7158 29.551-47.0697L29.9932-46.5852C30.2884-46.2645 30.5805-45.9523 30.847-45.674L39.4286-36.7196C40.362-35.7457 40.8903-34.5226 40.3602-33.2897L39.2063-30.4864C38.6772-29.2536 38.6278-27.2185 39.0971-25.9614C39.6581-24.4598 40.5514-23.2309 41.7217-22.2943L42.616-21.5785C43.671-20.7341 45.5411-20.5144 46.77-21.0901L50.715-22.9374C51.944-23.5141 53.7771-24.7179 54.7876-25.6146L58.5196-28.9228C59.2474-29.5683 59.2875-30.6775 58.608-31.3706L49.5036-37.3991C48.3745-38.1465 47.7763-39.5312 48.4155-40.7121L51.6434-46.5034C52.2823-47.6847 52.5379-49.2533 52.2083-49.9896C51.8802-50.7269 50.5688-51.716 49.2956-52.1893L38.7305-56.0375C37.4574-56.5098 37.5243-56.9993 38.8798-57.1257L45.6267-57.6253C46.9822-57.7507 47.9772-57.5606 49.2884-57.2016L54.3971-55.9647C55.7083-55.6057 55.9876-54.2352 55.7416-52.9195L53.648-41.6792C53.402-40.3644 53.2827-39.0374 53.3817-38.7333C53.4813-38.4297 54.6518-37.9525 55.9838-37.6731L58.0967-37.2303C59.4272-36.9519 61.6029-36.965 62.9305-37.2614L64.6771-37.6508C66.0052-37.9472 67.1723-38.438 67.2709-38.7421C67.37-39.0466 67.2492-40.3717 67.0022-41.6875L64.8956-52.9255C64.6496-54.2403 64.927-55.6127 66.2381-55.9727L71.3445-57.2157C72.6557-57.5758 73.6498-57.77 75.0064-57.6445L81.7531-57.151C83.1087-57.0256 83.1768-56.5361 81.9034-56.0618L71.3445-52.2024C70.0706-51.7281 68.7614-50.7369 68.4327-49.9997C68.1055-49.2624 68.3617-47.6938 69.003-46.5125L72.2372-40.7233C72.8785-39.5433 72.2811-38.1586 71.1532-37.4103L62.0567-31.3725C61.3787-30.6785 61.4198-29.5703 62.1486-28.9247L65.8834-25.6219C66.8964-24.7256 68.7304-23.5233 69.9594-22.9496L73.9074-21.107C75.1374-20.5318 77.0062-20.754 78.0613-21.6008L78.9558-22.3176C80.1239-23.2551 81.0151-24.4851 81.5327-25.8765C82.0421-27.2442 81.9899-29.2807 81.4588-30.5116L80.3027-33.3149C79.7706-34.5468 80.2969-35.77 81.2292-36.7448L89.8008-45.7095C90.733-46.6854 91.9785-48.075 92.569-48.7992L92.7904-49.5789L92.9296-50.0138C92.9416-50.5144 92.8914-51.2993 92.815-51.7574C92.7411-52.2156 91.5483-54.2312 90.7843-55.3387L88.9454-58.0066C88.1808-59.115 86.8609-60.8758 86.0108-61.9206L83.3155-65.2348C83.0918-65.5103 82.8769-65.772 82.6809-66.0081L82.4556-66.2782C82.0256-66.7908 81.7286-67.1279 81.7057-67.124C81.6274-67.1301 80.5294-66.9278 79.1926-66.674L75.1166-65.9013L74.5434-65.7925C73.3821-65.5719 72.2401-65.355 71.8394-65.2803C71.3745-65.1933 69.9333-65.4583 68.6376-65.87L65.7036-66.8004C64.4074-67.212 62.4419-67.7541 61.3357-68.0049Z"/>
  </g>
  <g id="Regular-S" transform="matrix(1 0 0 1 1398.49 696)">
   <path d="M63.4852-73L70.0787-65.6056L71.3409-66.0351C73.9941-66.9383 76.9396-66.2648 78.9142-64.3063L83.4283-59.8244C83.7974-59.4592 83.9-58.907 83.6869-58.4363L82.0275-54.7807L84.416-48.4172L82.8849-42.6747L75.9128-16.5265C75.1093-13.5116 73.2536-10.8695 70.6707-9.05915C70.6707-9.05915 63.2121-3.86798 53.7851 2.19528C53.0488 2.66837 52.2768 3.01037 51.4483 2.99968C50.6197 3.01189 49.8481 2.66837 49.1099 2.19755C48.5577 1.84583 48.005 1.49177 47.4543 1.1372L46.7945 0.711585C39.2217-4.18307 32.2106-9.03521 32.2106-9.03521C29.6251-10.8425 27.7664-13.4816 26.9597-16.4953L19.9542-42.6335L18.416-48.368L20.7924-54.7284L19.0587-58.5227C18.8875-58.8974 18.9683-59.3364 19.263-59.6287L23.8575-64.1946C25.8446-66.184 28.8257-66.8646 31.5033-65.94L32.7306-65.5161L39.24-73L63.4852-73ZM51.7695-26.1948L50.9383-26.1948C50.8437-26.1948 49.9582-25.865 48.9709-25.4633L48.0539-25.0894C47.0655-24.6885 45.4816-23.9627 44.5331-23.4774L41.8125-22.0893C40.8639-21.6052 40.8017-20.7137 41.6759-20.1084L43.9756-18.5154C44.8498-17.9116 46.2213-16.8609 47.0237-16.1811C47.8264-15.502 49.1247-14.3901 49.9089-13.7111C50.6926-13.0328 51.9871-13.0362 52.786-13.7198L55.6966-16.2096C56.4978-16.8959 57.8664-17.9545 58.7363-18.5648L61.0443-20.1828C61.9146-20.7931 61.8459-21.6804 60.8924-22.1543L58.1865-23.5014C57.233-23.976 55.6431-24.6923 54.655-25.0932L53.738-25.4656C52.75-25.8676 51.8637-26.1948 51.7695-26.1948ZM52.1386-61.2512L51.3328-61.2385L50.5274-61.2504C49.6582-61.0523 48.1135-60.626 47.0962-60.3019L44.7924-59.5705C43.7744-59.2472 42.6422-59.038 42.2767-59.1062C41.9104-59.1735 40.7516-59.3907 39.7011-59.5879L36.4979-60.191C35.4475-60.3883 34.5846-60.546 34.5806-60.5404C34.4949-60.546 33.9263-59.8788 33.26-59.0594L31.1453-56.4603C30.479-55.6402 29.4431-54.259 28.8439-53.3905L27.4012-51.2978C26.802-50.4293 26.1793-49.442 26.0167-49.1052C25.8542-48.7668 25.7111-47.5164 25.7216-47.1242L25.8307-46.7834L26.0062-46.1717C26.4704-45.6059 27.4505-44.518 28.1832-43.7548L34.9259-36.739C35.6593-35.976 36.0744-35.0176 35.6579-34.0517L34.7512-31.8553C34.3355-30.8893 34.2967-29.2948 34.6655-28.3099C35.1062-27.1334 35.8081-26.1705 36.7276-25.4367L37.4303-24.8758C38.2592-24.2143 39.7286-24.0421 40.6941-24.4932L43.7938-25.9406C44.7594-26.3924 46.1997-27.3356 46.9937-28.0382L49.9259-30.6301C50.4978-31.1359 50.5293-32.005 49.9954-32.548L42.8419-37.2714C41.9548-37.857 41.4848-38.9419 41.987-39.8672L44.5232-44.4046C45.0252-45.3302 45.2261-46.5592 44.9671-47.1361C44.7093-47.7137 43.6789-48.4887 42.6786-48.8596L34.3774-51.8747C33.3771-52.2447 33.4297-52.6282 34.4947-52.7273L39.7959-53.1187C40.8609-53.217 41.6427-53.068 42.6729-52.7867L46.6869-51.8176C47.7171-51.5363 47.9366-50.4626 47.7433-49.4317L46.0983-40.6249C45.905-39.5947 45.8112-38.555 45.8891-38.3168C45.9673-38.0789 46.887-37.705 47.9335-37.4861L49.5937-37.1391C50.6391-36.921 52.3486-36.9313 53.3917-37.1635L54.764-37.4686C55.8075-37.7008 56.7245-38.0853 56.802-38.3236C56.8798-38.5622 56.7849-39.6004 56.5909-40.6313L54.9357-49.4364C54.7424-50.4665 54.9603-51.5419 55.9905-51.8239L60.0027-52.7978C61.0329-53.0799 61.814-53.2321 62.8799-53.1338L68.1808-52.7471C69.246-52.6488 69.2995-52.2653 68.2989-51.8937L60.0027-48.8699C59.0018-48.4982 57.9731-47.7217 57.7149-47.144C57.4578-46.5663 57.659-45.3373 58.1629-44.4118L60.7041-39.8759C61.208-38.9514 60.7386-37.8665 59.8523-37.2801L52.7051-32.5495C52.1724-32.0057 52.2047-31.1374 52.7773-30.6317L55.7118-28.0439C56.5077-27.3416 57.9488-26.3996 58.9144-25.9501L62.0164-24.5065C62.9828-24.0558 64.4512-24.2298 65.2801-24.8933L65.983-25.4549C66.9008-26.1895 67.601-27.1532 68.0077-28.2434C68.4079-29.315 68.3669-30.9106 67.9496-31.875L67.0413-34.0714C66.6232-35.0366 67.0367-35.995 67.7692-36.7588L74.504-43.7826C75.2365-44.5473 76.2151-45.636 76.6791-46.2034L76.853-46.8143L76.9624-47.1551C76.9719-47.5473 76.9324-48.1622 76.8724-48.5212C76.8143-48.8802 75.8771-50.4594 75.2768-51.3271L73.8319-53.4175C73.2312-54.2859 72.1942-55.6655 71.5262-56.4841L69.4085-59.0808C68.7406-59.901 68.1721-60.5658 68.1436-60.561C68.0821-60.5658 67.2194-60.4073 66.1691-60.2084L62.9665-59.603L62.5161-59.5177C61.6036-59.3449 60.7063-59.175 60.3915-59.1165C60.0262-59.0483 58.8939-59.2559 57.8759-59.5784L55.5706-60.3075C54.5521-60.63 53.0078-61.0547 52.1386-61.2512Z"/>
  </g>
 </g>
</svg>
