<svg width="16" height="16" xmlns="http://www.w3.org/2000/svg" xmlns:xlink="http://www.w3.org/1999/xlink"><defs><path d="M2.212 7.54c.092.299.276 2.029.827 2.528.568.514 2.713.506 3.123.283.92-.498 1.292-2.107 1.454-2.812C7.708 7.14 8 7.14 8 7.14s.308 0 .4.4c.163.704.519 2.318 1.437 2.815.41.223 2.555.231 3.125-.282.55-.5.734-2.235.826-2.534.091-.299.551-.598.643-.698.092-.1.092-.498 0-.598-.184-.2-2.352-.377-4.686-.1-.466.055-.643.2-1.746.2-1.102 0-1.28-.145-1.745-.2-2.333-.277-4.501-.1-4.685.1-.092.1-.092.499 0 .599.092.1.551.399.643.698z" id="a"/></defs><g fill="none" fill-rule="evenodd"><use fill="#fff" xlink:href="#a"/></g></svg>
