<svg height="176" width="500" xmlns="http://www.w3.org/2000/svg"><g style="stroke:#fff;stroke-width:1.25;fill:none;fill-rule:evenodd;opacity:.216;stroke-linecap:round"><path d="m344.84 54.273c1.828-1.589 4.44-2.275 7.026-1.346l63.702 22.823 64.437 23.084c2.504.889 4.043 2.973 4.456 5.267"/><path d="m485.206 103.453c.79 2.724.336 5.559-1.69 7.32l-50.141 43.587-50.14 43.586c-2.032 1.766-4.902 1.823-7.49.66m-30.905-144.333c-1.827 1.588-2.87 4.079-2.31 6.77l13.736 66.258 13.891 67.023c.532 2.603 2.382 4.417 4.595 5.145m4.292-105.849 5.586 29.459 3.057 26.1m43.26-36.649-25.173-9.655-25.168-9.657m51.919 19.442-22.57 19.62-22.57 19.62"/><path d="m163.157 90.203c.332-1.71 1.508-3.254 3.385-3.872l46.19-15.266 46.723-15.443c1.812-.605 3.606-.106 4.856 1.011"/><path d="m264.446 55.937c1.654 1.193 2.65 3 2.282 4.895l-9.113 46.886-9.114 46.886c-.37 1.9-1.97 3.202-3.951 3.689m-81.393-68.09c-.332 1.709.18 3.581 1.688 4.857l37.109 31.458 37.535 31.822c1.453 1.24 3.304 1.448 4.88.88m-44.419-61.865 16.204 14.217 13.284 13.434m8.286-39.912-18.534 5.673-18.533 5.669m38.019-11.966-4.102 21.105-4.103 21.105"/><path d="m103.395 31.083c1.068-.018 2.146.49 2.756 1.538l15.056 25.777 15.23 26.074a3 3 0 0 1 .013 3.043"/><path d="m136.885 87.507c-.505 1.145-1.463 1.974-2.647 1.995l-29.305.511-29.304.512c-1.188.02-2.174-.774-2.719-1.901m30.485-57.541c-1.068.019-2.127.565-2.7 1.633l-14.147 26.287-14.312 26.59a3 3 0 0 0 .094 3.041m31.467-34.554-6.467 11.54-6.368 9.687m24.371-.425-5.77-10.401-5.766-10.401m14.618 22.748-13.71.24-13.708.239"/><path d="m45.057 29.305c.535-.45 1.287-.64 2.02-.369l18.037 6.645 18.245 6.72a1.89 1.89 0 0 1 1.233 1.512m0 0a2.035 2.035 0 0 1 -.72 1.875l-14.71 12.343-14.71 12.343c-.595.5-1.344.599-1.973.385m-7.422-41.454c-.534.448-.852 1.156-.713 1.924l3.412 18.917 3.45 19.135a1.89 1.89 0 0 0 1.274 1.477m2.005-30.218 1.26 8.471.567 7.51m12.548-10.529-7.188-2.726-7.187-2.726m16.397 5.605-6.862 5.758-6.863 5.758"/><path d="m21.995 5.126a1.83 1.83 0 0 1 1.443-1.173l17.306-2.6 17.505-2.63a1.739 1.739 0 0 1 1.653.66"/><path d="m59.994-.858c.509.528.746 1.234.495 1.888l-6.206 16.168-6.207 16.169c-.251.655-.9 1.02-1.631 1.072m-24.45-29.313a1.83 1.83 0 0 0 .288 1.838l11.12 13.512 11.249 13.668c.435.532 1.076.72 1.67.615m-11.772-24.813 4.826 6.072 3.843 5.612m5.161-13.446-6.915.882-6.914.88m15.567-3.024-2.904 7.564-2.903 7.563"/></g></svg>