<?xml version="1.0" encoding="UTF-8"?>
<!--Generator: Apple Native CoreSVG 175-->
<!DOCTYPE svg
PUBLIC "-//W3C//DTD SVG 1.1//EN"
       "http://www.w3.org/Graphics/SVG/1.1/DTD/svg11.dtd">
<svg version="1.1" xmlns="http://www.w3.org/2000/svg" xmlns:xlink="http://www.w3.org/1999/xlink" width="3300" height="2200">
 <!--glyph: "", point size: 100.0, font version: "17.3d3e1", template writer version: "65.1"-->
 <g id="Notes">
  <rect height="2200" id="artboard" style="fill:white;opacity:1" width="3300" x="0" y="0"/>
  <line style="fill:none;stroke:black;opacity:1;stroke-width:0.5;" x1="263" x2="3036" y1="292" y2="292"/>
  <text style="stroke:none;fill:black;font-family:sans-serif;font-size:13;font-weight:bold;" transform="matrix(1 0 0 1 263 322)">Weight/Scale Variations</text>
  <text style="stroke:none;fill:black;font-family:sans-serif;font-size:13;text-anchor:middle;" transform="matrix(1 0 0 1 559.711 322)">Ultralight</text>
  <text style="stroke:none;fill:black;font-family:sans-serif;font-size:13;text-anchor:middle;" transform="matrix(1 0 0 1 856.422 322)">Thin</text>
  <text style="stroke:none;fill:black;font-family:sans-serif;font-size:13;text-anchor:middle;" transform="matrix(1 0 0 1 1153.13 322)">Light</text>
  <text style="stroke:none;fill:black;font-family:sans-serif;font-size:13;text-anchor:middle;" transform="matrix(1 0 0 1 1449.84 322)">Regular</text>
  <text style="stroke:none;fill:black;font-family:sans-serif;font-size:13;text-anchor:middle;" transform="matrix(1 0 0 1 1746.56 322)">Medium</text>
  <text style="stroke:none;fill:black;font-family:sans-serif;font-size:13;text-anchor:middle;" transform="matrix(1 0 0 1 2043.27 322)">Semibold</text>
  <text style="stroke:none;fill:black;font-family:sans-serif;font-size:13;text-anchor:middle;" transform="matrix(1 0 0 1 2339.98 322)">Bold</text>
  <text style="stroke:none;fill:black;font-family:sans-serif;font-size:13;text-anchor:middle;" transform="matrix(1 0 0 1 2636.69 322)">Heavy</text>
  <text style="stroke:none;fill:black;font-family:sans-serif;font-size:13;text-anchor:middle;" transform="matrix(1 0 0 1 2933.4 322)">Black</text>
  <line style="fill:none;stroke:black;opacity:1;stroke-width:0.5;" x1="263" x2="3036" y1="1903" y2="1903"/>
  <g transform="matrix(1 0 0 1 263 1933)">
   <path d="M9.24805 0.830078Q10.8691 0.830078 12.2949 0.214844Q13.7207-0.400391 14.8096-1.49414Q15.8984-2.58789 16.5186-4.01367Q17.1387-5.43945 17.1387-7.05078Q17.1387-8.66211 16.5186-10.0879Q15.8984-11.5137 14.8047-12.6074Q13.7109-13.7012 12.2852-14.3164Q10.8594-14.9316 9.23828-14.9316Q7.62695-14.9316 6.20117-14.3164Q4.77539-13.7012 3.69141-12.6074Q2.60742-11.5137 1.9873-10.0879Q1.36719-8.66211 1.36719-7.05078Q1.36719-5.43945 1.9873-4.01367Q2.60742-2.58789 3.69629-1.49414Q4.78516-0.400391 6.21094 0.214844Q7.63672 0.830078 9.24805 0.830078ZM9.24805-0.654297Q7.91992-0.654297 6.7627-1.14746Q5.60547-1.64062 4.73145-2.51953Q3.85742-3.39844 3.36426-4.56055Q2.87109-5.72266 2.87109-7.05078Q2.87109-8.37891 3.35938-9.54102Q3.84766-10.7031 4.72168-11.582Q5.5957-12.4609 6.75293-12.9541Q7.91016-13.4473 9.23828-13.4473Q10.5762-13.4473 11.7334-12.9541Q12.8906-12.4609 13.7695-11.582Q14.6484-10.7031 15.1465-9.54102Q15.6445-8.37891 15.6445-7.05078Q15.6445-5.72266 15.1514-4.56055Q14.6582-3.39844 13.7842-2.51953Q12.9102-1.64062 11.748-1.14746Q10.5859-0.654297 9.24805-0.654297ZM5.6543-7.05078Q5.6543-6.72852 5.85938-6.52832Q6.06445-6.32812 6.40625-6.32812L8.51562-6.32812L8.51562-4.20898Q8.51562-3.88672 8.71094-3.67676Q8.90625-3.4668 9.23828-3.4668Q9.56055-3.4668 9.77051-3.67676Q9.98047-3.88672 9.98047-4.20898L9.98047-6.32812L12.0898-6.32812Q12.4219-6.32812 12.627-6.52832Q12.832-6.72852 12.832-7.05078Q12.832-7.38281 12.627-7.58789Q12.4219-7.79297 12.0898-7.79297L9.98047-7.79297L9.98047-9.90234Q9.98047-10.2344 9.77051-10.4443Q9.56055-10.6543 9.23828-10.6543Q8.90625-10.6543 8.71094-10.4443Q8.51562-10.2344 8.51562-9.90234L8.51562-7.79297L6.40625-7.79297Q6.06445-7.79297 5.85938-7.58789Q5.6543-7.38281 5.6543-7.05078Z"/>
  </g>
  <g transform="matrix(1 0 0 1 281.867 1933)">
   <path d="M11.709 2.91016Q13.75 2.91016 15.5518 2.12891Q17.3535 1.34766 18.7305-0.0292969Q20.1074-1.40625 20.8887-3.20801Q21.6699-5.00977 21.6699-7.05078Q21.6699-9.0918 20.8887-10.8936Q20.1074-12.6953 18.7305-14.0723Q17.3535-15.4492 15.5469-16.2305Q13.7402-17.0117 11.6992-17.0117Q9.6582-17.0117 7.85645-16.2305Q6.05469-15.4492 4.68262-14.0723Q3.31055-12.6953 2.5293-10.8936Q1.74805-9.0918 1.74805-7.05078Q1.74805-5.00977 2.5293-3.20801Q3.31055-1.40625 4.6875-0.0292969Q6.06445 1.34766 7.86621 2.12891Q9.66797 2.91016 11.709 2.91016ZM11.709 1.25Q9.98047 1.25 8.47656 0.605469Q6.97266-0.0390625 5.83496-1.17676Q4.69727-2.31445 4.05762-3.81836Q3.41797-5.32227 3.41797-7.05078Q3.41797-8.7793 4.05762-10.2832Q4.69727-11.7871 5.83008-12.9297Q6.96289-14.0723 8.4668-14.7119Q9.9707-15.3516 11.6992-15.3516Q13.4277-15.3516 14.9316-14.7119Q16.4355-14.0723 17.5781-12.9297Q18.7207-11.7871 19.3652-10.2832Q20.0098-8.7793 20.0098-7.05078Q20.0098-5.32227 19.3701-3.81836Q18.7305-2.31445 17.5928-1.17676Q16.4551-0.0390625 14.9463 0.605469Q13.4375 1.25 11.709 1.25ZM7.17773-7.05078Q7.17773-6.69922 7.41211-6.47461Q7.64648-6.25 8.01758-6.25L10.8887-6.25L10.8887-3.36914Q10.8887-2.99805 11.1133-2.76855Q11.3379-2.53906 11.6895-2.53906Q12.0605-2.53906 12.29-2.76855Q12.5195-2.99805 12.5195-3.36914L12.5195-6.25L15.4004-6.25Q15.7715-6.25 16.001-6.47461Q16.2305-6.69922 16.2305-7.05078Q16.2305-7.42188 16.001-7.65137Q15.7715-7.88086 15.4004-7.88086L12.5195-7.88086L12.5195-10.752Q12.5195-11.1328 12.29-11.3623Q12.0605-11.5918 11.6895-11.5918Q11.3379-11.5918 11.1133-11.3574Q10.8887-11.123 10.8887-10.752L10.8887-7.88086L8.01758-7.88086Q7.63672-7.88086 7.40723-7.65137Q7.17773-7.42188 7.17773-7.05078Z"/>
  </g>
  <g transform="matrix(1 0 0 1 305.646 1933)">
   <path d="M14.9707 5.66406Q17.0605 5.66406 18.96 5.01465Q20.8594 4.36523 22.4512 3.19336Q24.043 2.02148 25.2197 0.429688Q26.3965-1.16211 27.0459-3.06641Q27.6953-4.9707 27.6953-7.05078Q27.6953-9.14062 27.0459-11.04Q26.3965-12.9395 25.2197-14.5312Q24.043-16.123 22.4512-17.2998Q20.8594-18.4766 18.9551-19.126Q17.0508-19.7754 14.9609-19.7754Q12.8711-19.7754 10.9717-19.126Q9.07227-18.4766 7.48535-17.2998Q5.89844-16.123 4.72168-14.5312Q3.54492-12.9395 2.90039-11.04Q2.25586-9.14062 2.25586-7.05078Q2.25586-4.9707 2.90527-3.06641Q3.55469-1.16211 4.72656 0.429688Q5.89844 2.02148 7.49023 3.19336Q9.08203 4.36523 10.9814 5.01465Q12.8809 5.66406 14.9707 5.66406ZM14.9707 3.84766Q13.1641 3.84766 11.5283 3.2959Q9.89258 2.74414 8.53516 1.74805Q7.17773 0.751953 6.17676-0.610352Q5.17578-1.97266 4.62891-3.6084Q4.08203-5.24414 4.08203-7.05078Q4.08203-8.86719 4.62891-10.5029Q5.17578-12.1387 6.17188-13.501Q7.16797-14.8633 8.52539-15.8594Q9.88281-16.8555 11.5186-17.4023Q13.1543-17.9492 14.9609-17.9492Q16.7773-17.9492 18.4131-17.4023Q20.0488-16.8555 21.4111-15.8594Q22.7734-14.8633 23.7695-13.501Q24.7656-12.1387 25.3174-10.5029Q25.8691-8.86719 25.8691-7.05078Q25.8789-5.24414 25.332-3.6084Q24.7852-1.97266 23.7842-0.610352Q22.7832 0.751953 21.4209 1.74805Q20.0586 2.74414 18.4229 3.2959Q16.7871 3.84766 14.9707 3.84766ZM9.19922-7.05078Q9.19922-6.66992 9.45801-6.4209Q9.7168-6.17188 10.1172-6.17188L14.0625-6.17188L14.0625-2.2168Q14.0625-1.81641 14.3115-1.55762Q14.5605-1.29883 14.9512-1.29883Q15.3516-1.29883 15.6104-1.55273Q15.8691-1.80664 15.8691-2.2168L15.8691-6.17188L19.8242-6.17188Q20.2246-6.17188 20.4785-6.4209Q20.7324-6.66992 20.7324-7.05078Q20.7324-7.46094 20.4785-7.71484Q20.2246-7.96875 19.8242-7.96875L15.8691-7.96875L15.8691-11.9141Q15.8691-12.3242 15.6104-12.583Q15.3516-12.8418 14.9512-12.8418Q14.5605-12.8418 14.3115-12.583Q14.0625-12.3242 14.0625-11.9141L14.0625-7.96875L10.1172-7.96875Q9.70703-7.96875 9.45312-7.71484Q9.19922-7.46094 9.19922-7.05078Z"/>
  </g>
  <text style="stroke:none;fill:black;font-family:sans-serif;font-size:13;font-weight:bold;" transform="matrix(1 0 0 1 263 1953)">Design Variations</text>
  <text style="stroke:none;fill:black;font-family:sans-serif;font-size:13;" transform="matrix(1 0 0 1 263 1971)">Symbols are supported in up to nine weights and three scales.</text>
  <text style="stroke:none;fill:black;font-family:sans-serif;font-size:13;" transform="matrix(1 0 0 1 263 1989)">For optimal layout with text and other symbols, vertically align</text>
  <text style="stroke:none;fill:black;font-family:sans-serif;font-size:13;" transform="matrix(1 0 0 1 263 2007)">symbols with the adjacent text.</text>
  <line style="fill:none;stroke:#00AEEF;stroke-width:0.5;opacity:1.0;" x1="776" x2="776" y1="1919" y2="1933"/>
  <g transform="matrix(1 0 0 1 776 1933)">
   <path d="M3.31055 0.15625Q3.70117 0.15625 3.91602-0.00976562Q4.13086-0.175781 4.26758-0.585938L5.52734-4.0332L11.2891-4.0332L12.5488-0.585938Q12.6855-0.175781 12.9004-0.00976562Q13.1152 0.15625 13.4961 0.15625Q13.8867 0.15625 14.1162-0.0585938Q14.3457-0.273438 14.3457-0.644531Q14.3457-0.869141 14.2383-1.17188L9.6582-13.3691Q9.48242-13.8184 9.17969-14.043Q8.87695-14.2676 8.4082-14.2676Q7.5-14.2676 7.17773-13.3789L2.59766-1.16211Q2.49023-0.859375 2.49023-0.634766Q2.49023-0.263672 2.70996-0.0537109Q2.92969 0.15625 3.31055 0.15625ZM6.00586-5.51758L8.37891-12.0898L8.42773-12.0898L10.8008-5.51758Z"/>
  </g>
  <line style="fill:none;stroke:#00AEEF;stroke-width:0.5;opacity:1.0;" x1="793.197" x2="793.197" y1="1919" y2="1933"/>
  <text style="stroke:none;fill:black;font-family:sans-serif;font-size:13;font-weight:bold;" transform="matrix(1 0 0 1 776 1953)">Margins</text>
  <text style="stroke:none;fill:black;font-family:sans-serif;font-size:13;" transform="matrix(1 0 0 1 776 1971)">Leading and trailing margins on the left and right side of each symbol</text>
  <text style="stroke:none;fill:black;font-family:sans-serif;font-size:13;" transform="matrix(1 0 0 1 776 1989)">can be adjusted by modifying the x-location of the margin guidelines.</text>
  <text style="stroke:none;fill:black;font-family:sans-serif;font-size:13;" transform="matrix(1 0 0 1 776 2007)">Modifications are automatically applied proportionally to all</text>
  <text style="stroke:none;fill:black;font-family:sans-serif;font-size:13;" transform="matrix(1 0 0 1 776 2025)">scales and weights.</text>
  <g transform="matrix(1 0 0 1 1289 1933)">
   <path d="M2.8418 1.86523L4.54102 3.57422Q5.18555 4.22852 5.90332 4.17969Q6.62109 4.13086 7.31445 3.35938L18.0078-8.42773L17.041-9.4043L6.42578 2.27539Q6.16211 2.57812 5.89355 2.61719Q5.625 2.65625 5.27344 2.30469L4.10156 1.14258Q3.75 0.791016 3.79395 0.522461Q3.83789 0.253906 4.14062-0.0195312L15.6152-10.8203L14.6387-11.7871L3.04688-0.898438Q2.30469-0.214844 2.25098 0.498047Q2.19727 1.21094 2.8418 1.86523ZM9.25781-16.3281Q8.94531-16.0254 8.90625-15.6348Q8.86719-15.2441 9.04297-14.9512Q9.21875-14.6777 9.55566-14.541Q9.89258-14.4043 10.3809-14.5215Q11.4746-14.7754 12.5977-14.7314Q13.7207-14.6875 14.7949-13.9844L14.209-12.5293Q13.9551-11.9043 14.0674-11.4404Q14.1797-10.9766 14.5801-10.5664L16.875-8.25195Q17.2363-7.88086 17.5781-7.82227Q17.9199-7.76367 18.3398-7.8418L19.4043-8.03711L20.0684-7.36328L20.0293-6.80664Q20-6.43555 20.1221-6.12305Q20.2441-5.81055 20.6055-5.44922L21.3672-4.70703Q21.7285-4.3457 22.1533-4.33105Q22.5781-4.31641 22.9297-4.66797L25.8398-7.58789Q26.1914-7.93945 26.1816-8.35449Q26.1719-8.76953 25.8105-9.13086L25.0391-9.89258Q24.6875-10.2539 24.3799-10.3857Q24.0723-10.5176 23.7109-10.4883L23.1348-10.4395L22.4902-11.0742L22.7344-12.1973Q22.832-12.6172 22.6953-12.9834Q22.5586-13.3496 22.1191-13.7891L19.9219-15.9766Q18.6719-17.2168 17.2607-17.8369Q15.8496-18.457 14.4189-18.4814Q12.9883-18.5059 11.665-17.959Q10.3418-17.4121 9.25781-16.3281ZM10.752-15.957Q11.6602-16.6211 12.7002-16.9043Q13.7402-17.1875 14.8047-17.085Q15.8691-16.9824 16.8701-16.5137Q17.8711-16.0449 18.7012-15.2051L21.1328-12.793Q21.3086-12.6172 21.3525-12.4512Q21.3965-12.2852 21.3379-12.0312L21.0156-10.5469L22.5195-9.0625L23.5059-9.12109Q23.6914-9.13086 23.7891-9.09668Q23.8867-9.0625 24.0332-8.91602L24.6094-8.33984L22.168-5.89844L21.5918-6.47461Q21.4453-6.62109 21.4062-6.71875Q21.3672-6.81641 21.377-7.01172L21.4453-7.98828L19.9512-9.47266L18.4277-9.21875Q18.1836-9.16992 18.042-9.2041Q17.9004-9.23828 17.7148-9.41406L15.7129-11.416Q15.5176-11.5918 15.4932-11.7529Q15.4688-11.9141 15.5859-12.1875L16.4648-14.2773Q15.293-15.3711 13.8281-15.791Q12.3633-16.2109 10.8398-15.7617Q10.7227-15.7324 10.6885-15.8057Q10.6543-15.8789 10.752-15.957Z"/>
  </g>
  <text style="stroke:none;fill:black;font-family:sans-serif;font-size:13;font-weight:bold;" transform="matrix(1 0 0 1 1289 1953)">Exporting</text>
  <text style="stroke:none;fill:black;font-family:sans-serif;font-size:13;" transform="matrix(1 0 0 1 1289 1971)">Symbols should be outlined when exporting to ensure the</text>
  <text style="stroke:none;fill:black;font-family:sans-serif;font-size:13;" transform="matrix(1 0 0 1 1289 1989)">design is preserved when submitting to Xcode.</text>
  <text id="template-version" style="stroke:none;fill:black;font-family:sans-serif;font-size:13;text-anchor:end;" transform="matrix(1 0 0 1 3036 1933)">Template v.2.0</text>
  <text style="stroke:none;fill:black;font-family:sans-serif;font-size:13;text-anchor:end;" transform="matrix(1 0 0 1 3036 1951)">Requires Xcode 12 or greater</text>
  <text id="descriptive-name" style="stroke:none;fill:black;font-family:sans-serif;font-size:13;text-anchor:end;" transform="matrix(1 0 0 1 3036 1969)">Generated from brave.globe.and.mappin</text>
  <text style="stroke:none;fill:black;font-family:sans-serif;font-size:13;text-anchor:end;" transform="matrix(1 0 0 1 3036 1987)">Typeset at 100 points</text>
  <text style="stroke:none;fill:black;font-family:sans-serif;font-size:13;" transform="matrix(1 0 0 1 263 726)">Small</text>
  <text style="stroke:none;fill:black;font-family:sans-serif;font-size:13;" transform="matrix(1 0 0 1 263 1156)">Medium</text>
  <text style="stroke:none;fill:black;font-family:sans-serif;font-size:13;" transform="matrix(1 0 0 1 263 1586)">Large</text>
 </g>
 <g id="Guides">
  <g id="H-reference" style="fill:#27AAE1;stroke:none;" transform="matrix(1 0 0 1 339 696)">
   <path d="M0.993347 0L3.6377 0L29.3282-67.1326L30.0301-67.1326L30.0301-70.459L28.1227-70.459ZM11.6882-24.4797L46.9818-24.4797L46.2311-26.7288L12.4382-26.7288ZM55.1193 0L57.7637 0L30.6381-70.459L29.4327-70.459L29.4327-67.1326Z"/>
  </g>
  <line id="Baseline-S" style="fill:none;stroke:#27AAE1;opacity:1;stroke-width:0.5;" x1="263" x2="3036" y1="696" y2="696"/>
  <line id="Capline-S" style="fill:none;stroke:#27AAE1;opacity:1;stroke-width:0.5;" x1="263" x2="3036" y1="625.541" y2="625.541"/>
  <g id="H-reference" style="fill:#27AAE1;stroke:none;" transform="matrix(1 0 0 1 339 1126)">
   <path d="M0.993347 0L3.6377 0L29.3282-67.1326L30.0301-67.1326L30.0301-70.459L28.1227-70.459ZM11.6882-24.4797L46.9818-24.4797L46.2311-26.7288L12.4382-26.7288ZM55.1193 0L57.7637 0L30.6381-70.459L29.4327-70.459L29.4327-67.1326Z"/>
  </g>
  <line id="Baseline-M" style="fill:none;stroke:#27AAE1;opacity:1;stroke-width:0.5;" x1="263" x2="3036" y1="1126" y2="1126"/>
  <line id="Capline-M" style="fill:none;stroke:#27AAE1;opacity:1;stroke-width:0.5;" x1="263" x2="3036" y1="1055.54" y2="1055.54"/>
  <g id="H-reference" style="fill:#27AAE1;stroke:none;" transform="matrix(1 0 0 1 339 1556)">
   <path d="M0.993347 0L3.6377 0L29.3282-67.1326L30.0301-67.1326L30.0301-70.459L28.1227-70.459ZM11.6882-24.4797L46.9818-24.4797L46.2311-26.7288L12.4382-26.7288ZM55.1193 0L57.7637 0L30.6381-70.459L29.4327-70.459L29.4327-67.1326Z"/>
  </g>
  <line id="Baseline-L" style="fill:none;stroke:#27AAE1;opacity:1;stroke-width:0.5;" x1="263" x2="3036" y1="1556" y2="1556"/>
  <line id="Capline-L" style="fill:none;stroke:#27AAE1;opacity:1;stroke-width:0.5;" x1="263" x2="3036" y1="1485.54" y2="1485.54"/>
  <line id="left-margin" style="fill:none;stroke:#00AEEF;stroke-width:0.5;opacity:1.0;" x1="1391.32" x2="1391.32" y1="1030.78" y2="1150.12"/>
  <line id="right-margin" style="fill:none;stroke:#00AEEF;stroke-width:0.5;opacity:1.0;" x1="1508.37" x2="1508.37" y1="1030.78" y2="1150.12"/>
 </g>
 <g id="Symbols">
  <g id="Regular-L" transform="matrix(1 0 0 1 1376.82 1556)">
   <path d="M82.208-64.9034C82.7474-64.9034 83.2876-65.4409 83.2876-65.4409C82.7474-65.4409 82.7474-65.4409 82.208-65.9784C83.2876-67.0534 83.827-67.5909 84.3672-67.5909L84.9066-67.5909C85.446-67.0534 85.9862-67.0534 86.5256-66.5159C86.5256-65.9784 85.9862-65.9784 85.446-65.4409C84.9066-65.4409 83.827-64.9034 82.208-64.9034C82.7474-64.9034 82.7474-64.9034 82.208-64.9034ZM84.3672-68.6659C84.3672-69.2034 83.827-69.2034 83.827-69.7409C83.2876-69.2034 83.2876-69.2034 84.3672-68.6659ZM60.0782-76.7284C58.9987-76.7284 58.459-75.6535 58.459-74.5785C58.459-74.0409 58.459-74.0409 58.459-73.5034C58.459-71.8909 58.9987-71.3534 60.0782-71.3534C60.6179-71.3534 61.6974-71.3534 62.2372-71.8909C62.7769-72.4284 62.7769-72.4284 63.3167-72.9659C63.8564-74.0409 64.9359-75.1159 66.5552-75.1159C67.6347-75.1159 68.7142-75.6535 69.7937-76.7284C70.3334-77.2659 71.4129-77.8034 72.4926-77.8034C73.5721-77.8034 74.1115-77.8034 75.1911-78.3409C75.1911-78.3409 75.1911-78.3409 75.7305-78.8784L75.1911-78.8784C74.6517-78.8784 74.6517-78.8784 74.1115-78.8784C74.1115-79.416 74.6517-79.416 74.6517-79.9534C75.1911-79.9534 75.7305-78.8784 76.8101-79.416C76.2707-79.9534 75.7305-79.9534 75.1911-80.491C75.7305-80.491 75.7305-80.491 75.7305-80.491C76.8101-80.491 78.4299-81.0284 78.9693-82.1034C78.9693-82.1034 79.5095-82.6409 79.5095-83.1785C79.5095-83.7159 79.5095-83.7159 80.0489-84.2535C80.5883-84.2535 81.1284-84.7909 81.6678-84.7909C82.208-84.7909 82.7474-85.3285 82.7474-85.3285C82.208-85.3285 81.1284-85.8659 80.5883-85.8659C80.0489-85.8659 79.5095-86.4034 78.9693-86.4034C76.8101-86.4034 75.1911-86.4034 73.032-85.8659C69.7937-85.3285 67.095-84.7909 63.8564-84.2535C62.2372-84.2535 61.1577-83.7159 60.0782-82.6409C60.0782-82.6409 60.0782-82.1034 60.6179-82.1034C60.6179-82.1034 60.6179-81.5659 60.0782-81.5659C61.1577-81.5659 61.1577-81.0284 61.6974-79.9534C61.6974-79.416 62.2372-78.3409 62.7769-78.3409C63.3167-78.3409 63.3167-77.8034 62.7769-77.2659C60.6179-77.2659 60.0782-77.2659 60.0782-76.7284ZM24.4549-32.1156C23.9151-32.1156 23.3754-32.6535 22.8356-32.6535C22.2959-32.6535 22.2959-33.1907 21.7561-33.1907C21.7561-32.1156 22.8356-31.5784 24.4549-32.1156ZM79.5095-65.9784C80.5883-65.9784 82.208-67.0534 82.208-68.6659C80.5883-68.6659 79.5095-67.5909 79.5095-65.9784ZM72.4926-34.2658C73.5721-33.7286 74.1115-33.1907 74.1115-32.1156C74.6517-31.0405 74.6517-31.0405 74.6517-31.0405C75.1911-30.5033 75.7305-30.5033 76.8101-31.0405C78.9693-34.2658 82.208-38.5659 87.0658-42.3284C92.4629-46.6284 97.3206-48.7784 101.099-49.8534C101.639-49.8534 101.639-50.3909 101.639-50.3909C101.639-50.9284 100.559-50.9284 100.019-50.9284C98.9404-50.9284 98.4002-50.9284 98.4002-49.8534C98.4002-48.7784 97.8608-48.7784 97.3206-48.7784C96.7812-48.7784 96.7812-48.7784 96.241-49.3159L95.7016-49.8534C95.7016-50.9284 95.1615-51.4659 94.0827-51.4659L93.5425-51.4659C91.9235-52.0034 91.9235-52.0034 91.9235-53.6159C91.9235-54.1534 91.9235-54.6909 91.3833-54.6909C89.7643-54.6909 88.6847-54.6909 87.0658-54.6909C85.9862-54.6909 85.446-54.1534 84.9066-53.6159C84.3672-53.6159 83.827-53.0784 83.2876-53.0784C82.7474-53.0784 82.208-53.0784 81.6678-53.6159C81.1284-53.6159 81.1284-53.6159 80.5883-53.6159C80.0489-53.0784 79.5095-52.5409 78.9693-52.0034C78.4299-51.4659 77.8897-50.9284 77.8897-50.3909C77.8897-49.3159 77.3503-48.7784 76.2707-48.2409C75.7305-48.2409 75.1911-47.7033 74.6517-47.1659C73.5721-46.0909 73.032-45.0159 71.9527-43.4034C71.4129-42.8658 71.4129-41.7909 71.9527-41.2534C71.9527-40.7159 71.9527-40.7159 72.4926-40.1784C72.4926-39.6409 72.4926-39.1033 72.4926-38.5659L71.9527-38.0283C71.9527-37.4909 71.9527-36.9534 71.9527-36.9534C72.4926-35.8784 72.4926-35.3408 71.9527-35.3408C71.9527-34.8037 71.9527-34.8037 72.4926-34.2658ZM54.141-84.2535C53.6013-84.2535 53.0615-84.2535 51.982-84.2535C53.0615-83.7159 53.6013-83.7159 54.141-84.2535C54.141-83.7159 54.141-84.2535 54.141-84.2535ZM51.982-82.6409C53.0615-82.6409 53.6013-83.1785 54.6808-83.7159C53.6013-83.1785 52.5218-83.1785 51.982-82.6409ZM40.1076-77.2659C41.187-77.8034 41.7268-77.8034 42.8063-78.3409C41.7268-78.8784 40.6473-78.3409 40.1076-77.2659ZM30.9318-40.1784C30.9318-39.1033 29.8523-39.6409 29.8523-39.1033C31.4715-38.5659 32.551-39.1033 34.1703-39.6409C33.0908-40.1784 32.0113-40.1784 30.9318-40.1784ZM47.664-61.6784C48.2037-61.6784 48.7435-61.1409 49.2832-61.1409C49.823-61.1409 50.3627-61.6784 50.9025-61.6784C50.9025-61.6784 51.4423-61.6784 51.4423-62.2159L51.4423-62.7534C51.4423-62.7534 50.9025-62.7534 50.9025-63.2909C50.3627-63.2909 49.823-63.8284 50.3627-64.3659C49.2832-63.8284 48.2037-62.7534 47.664-61.6784ZM23.3754-41.7909C24.9946-41.2534 26.0741-41.2534 27.6933-40.7159C26.6138-41.7909 24.9946-42.3284 23.3754-41.7909ZM39.0281-71.8909C40.1076-71.8909 40.6473-71.8909 41.7268-71.8909C41.7268-72.9659 41.187-72.9659 40.6473-72.9659C40.1076-73.5034 39.0281-72.9659 39.0281-71.8909ZM43.8858-72.9659C44.4255-72.9659 44.9653-72.9659 45.505-73.5034C44.4255-73.5034 44.4255-73.5034 43.8858-72.9659ZM53.0615-75.1159C53.0615-75.6535 53.0615-75.6535 52.5218-76.1909C51.982-76.1909 51.4423-76.7284 51.4423-77.2659C50.9025-77.2659 50.3627-77.8034 49.823-78.3409C49.823-78.3409 49.2832-78.8784 48.7435-78.3409C48.7435-78.3409 48.2037-78.3409 47.664-78.3409C47.1242-78.8784 46.5845-78.8784 45.505-78.3409C45.505-78.3409 44.9653-78.3409 44.4255-77.8034L44.9653-78.3409C43.8858-78.8784 42.8063-78.3409 42.2665-77.2659C42.2665-76.7284 41.7268-76.7284 42.2665-76.7284C43.346-76.7284 44.9653-76.1909 46.0447-76.7284C47.1242-77.2659 47.664-76.7284 48.2037-75.6535C48.2037-75.1159 48.7435-74.5785 48.7435-74.0409C48.2037-74.0409 47.664-74.0409 47.1242-74.0409C46.5845-74.0409 46.0447-73.5034 45.505-72.9659C46.5845-72.9659 46.5845-72.4284 47.1242-72.4284C47.664-71.8909 48.7435-71.8909 49.2832-72.4284L48.7435-72.9659L49.2832-72.9659C49.823-72.4284 50.3627-72.9659 50.3627-73.5034C50.3627-74.0409 50.3627-74.0409 50.3627-74.5785C50.9025-74.5785 51.4423-74.5785 51.982-74.5785C52.5218-74.5785 52.5218-74.5785 53.0615-75.1159ZM42.8063-75.1159C42.2665-75.1159 41.187-74.5785 40.6473-74.0409C41.187-74.5785 42.2665-74.5785 42.8063-75.1159ZM88.1453-10.6161C88.1453 9.27181 108.116 27.0096 108.656 27.5468C109.735 28.6218 110.814 28.6218 112.434 28.6218C114.053 28.6218 115.133 28.0839 116.212 27.5468C117.292 27.0096 136.723 9.27181 136.723-10.6161C136.723-25.1287 126.467-35.3408 112.434-35.3408C98.4002-35.3408 88.1453-25.1287 88.1453-10.6161ZM98.9404-10.6161C98.9404-19.2161 104.338-24.5907 112.434-24.5907C120.53-24.5907 125.928-19.2161 125.928-10.6161C125.928 0.133954 117.292 10.8841 112.434 16.2595C107.036 10.3469 98.9404-0.403203 98.9404-10.6161ZM134.023-53.6159C134.023-50.9284 131.325-48.2409 128.626-48.2409C127.547-48.2409 127.547-48.2409 125.387-49.3159C123.229-49.8534 119.45-51.4659 115.672-51.4659C114.592-51.4659 112.973-51.4659 111.354-51.4659C110.275-52.0034 110.275-53.0784 110.275-53.0784L110.275-53.6159C110.275-53.6159 109.735-53.6159 109.195-53.6159C108.656-53.6159 108.116-53.0784 107.576-53.6159C107.036-54.1534 106.497-54.1534 105.417-53.6159C104.338-53.0784 103.798-53.6159 103.798-54.6909C103.798-55.2284 103.258-55.7659 103.258-56.3034C104.338-56.8409 105.957-57.3784 107.036-57.9159L107.576-57.9159C108.656-57.9159 109.735-57.3784 110.275-57.3784C110.814-57.3784 111.354-57.3784 111.894-57.3784C112.434-57.3784 112.973-58.4534 112.434-58.9909C112.434-58.9909 111.894-59.5284 111.354-59.5284C110.814-59.5284 110.275-60.0659 109.735-60.0659C109.195-60.0659 109.195-60.6034 109.195-61.1409C110.275-61.6784 110.275-62.2159 110.275-62.7534C109.735-62.2159 108.656-62.2159 108.116-61.6784C108.656-61.1409 108.656-61.1409 109.195-61.1409C108.656-61.1409 108.116-60.6034 108.116-60.6034C107.576-60.6034 107.576-60.6034 107.036-61.1409C107.036-62.2159 105.957-62.2159 105.417-61.6784C104.877-61.1409 104.338-60.6034 104.338-60.0659C103.798-59.5284 103.798-58.4534 104.338-57.9159C103.258-57.3784 101.639-57.9159 100.559-56.8409C100.559-56.3034 101.099-55.7659 101.099-55.2284C101.099-54.6909 101.099-54.1534 100.559-54.1534C100.019-54.1534 100.019-54.6909 99.4798-54.6909C99.4798-54.6909 99.4798-55.2284 99.4798-55.7659L98.9404-55.7659C98.4002-55.7659 97.8608-56.3034 97.8608-56.8409C97.8608-57.9159 97.3206-58.9909 95.7016-58.9909C95.1615-59.5284 94.0827-59.5284 93.5425-60.6034C93.5425-61.1409 93.0031-60.6034 93.0031-60.6034C93.5425-60.6034 93.5425-60.0659 94.0827-60.0659C94.6221-59.5284 95.7016-58.4534 96.241-57.9159C96.7812-57.3784 96.241-56.8409 95.7016-56.3034C95.1615-55.7659 93.5425-56.3034 93.5425-56.8409C93.0031-57.3784 93.5425-57.9159 94.0827-58.4534C93.5425-58.9909 92.4629-59.5284 91.9235-60.0659L91.3833-60.0659C90.3037-59.5284 89.2249-59.5284 88.1453-59.5284L87.6052-58.9909C87.6052-58.4534 87.6052-58.4534 87.0658-57.9159C86.5256-57.9159 85.9862-57.3784 85.9862-57.3784C84.9066-56.8409 84.9066-56.8409 84.9066-56.3034C84.9066-55.7659 84.9066-55.7659 84.9066-55.2284C84.3672-54.6909 83.827-54.6909 83.2876-54.1534C82.208-54.1534 81.1284-54.1534 80.0489-54.1534C78.4299-54.1534 78.4299-54.6909 78.9693-56.3034C78.9693-57.3784 79.5095-57.9159 79.5095-58.9909C79.5095-58.9909 79.5095-59.5284 80.0489-59.5284C80.5883-59.5284 80.5883-59.5284 81.1284-59.5284C81.6678-59.5284 82.7474-58.9909 83.2876-58.9909C84.3672-58.9909 84.9066-59.5284 84.9066-60.6034C84.9066-61.6784 84.3672-62.7534 82.7474-63.2909C83.2876-63.2909 83.827-63.8284 84.3672-63.8284C85.446-63.8284 86.5256-64.3659 87.0658-64.9034C87.6052-65.4409 88.1453-65.9784 88.6847-66.5159C89.2249-67.0534 89.7643-67.5909 90.8439-67.5909C91.3833-67.5909 91.3833-67.5909 91.3833-68.1284C91.3833-68.6659 91.3833-68.6659 90.8439-69.2034C90.8439-69.7409 90.8439-70.2784 91.9235-70.2784C92.4629-70.2784 93.0031-69.7409 92.4629-69.2034L92.4629-68.6659C92.4629-68.6659 92.4629-68.1284 93.0031-68.1284C93.5425-68.1284 94.6221-68.1284 95.1615-67.5909L95.7016-67.5909C96.241-67.5909 96.7812-68.1284 97.8608-68.1284C98.9404-68.1284 99.4798-68.6659 99.4798-69.7409C99.4798-70.2784 99.4798-70.2784 100.019-70.2784L100.559-70.2784L101.099-70.2784L101.099-70.816C101.099-70.816 101.099-71.3534 100.559-71.3534C101.099-71.3534 101.639-71.3534 102.178-71.8909C102.719-71.8909 103.258-72.4284 103.798-72.4284L103.258-72.4284C102.178-72.4284 101.639-72.4284 100.559-72.4284C100.019-72.4284 99.4798-72.4284 98.9404-72.9659C98.4002-73.5034 98.9404-74.0409 99.4798-74.5785C99.4798-75.1159 99.4798-75.6535 99.4798-76.1909L99.4798-76.7284L98.9404-76.7284C98.4002-76.7284 98.4002-76.1909 98.4002-76.1909C97.8608-75.6535 97.3206-75.1159 96.7812-75.1159C96.241-75.1159 96.241-74.5785 96.241-74.0409L96.7812-73.5034C97.3206-72.9659 97.3206-72.4284 96.7812-72.4284C96.241-72.4284 96.241-71.8909 95.7016-71.3534C95.7016-70.816 95.1615-70.816 95.1615-70.2784C95.1615-69.7409 94.6221-69.7409 94.0827-69.7409C93.5425-69.7409 93.5425-70.2784 93.0031-70.816C92.4629-72.4284 92.4629-72.4284 91.3833-71.3534C90.8439-71.3534 90.3037-70.816 89.7643-71.3534C88.6847-72.4284 89.2249-73.5034 90.3037-74.0409C91.9235-75.1159 93.5425-76.1909 95.1615-77.8034C97.3206-79.9534 100.019-80.491 102.719-79.9534L103.258-79.9534C102.719-80.491 102.178-80.491 102.178-81.0284C100.559-82.1034 98.9404-82.6409 97.3206-83.7159C96.7812-83.7159 96.7812-83.7159 96.241-83.7159C95.1615-82.6409 94.0827-82.6409 93.5425-83.7159C93.5425-84.2535 93.0031-84.2535 93.0031-84.2535C93.0031-84.2535 92.4629-84.2535 92.4629-84.7909C92.4629-85.3285 91.9235-85.3285 91.9235-85.3285C87.6052-86.941 83.2876-88.016 78.9693-88.5534C70.8732-89.6284 63.3167-88.5534 55.7602-86.4034C53.6013-85.8659 51.4423-84.7909 49.823-84.2535C49.2832-83.7159 48.7435-83.7159 48.2037-83.1785L48.2037-82.6409C47.664-82.6409 47.1242-82.1034 46.5845-82.1034C46.0447-82.1034 46.0447-82.1034 45.505-82.1034C43.346-80.491 41.187-79.416 39.0281-77.2659C39.0281-77.2659 38.4883-77.2659 38.4883-76.7284C38.4883-76.7284 37.9486-76.1909 37.4088-76.1909C36.8691-75.6535 35.7896-74.5785 35.2498-74.0409C36.3293-74.0409 37.4088-74.0409 37.9486-75.1159C38.4883-75.1159 38.4883-75.6535 37.9486-75.6535C37.9486-75.6535 37.9486-75.6535 37.9486-76.1909C39.5678-76.7284 39.5678-76.7284 40.1076-76.7284C40.1076-76.1909 39.5678-75.6535 40.1076-75.6535C40.1076-75.6535 40.6473-75.6535 41.187-75.1159C40.6473-75.1159 40.1076-74.5785 40.1076-74.0409C40.1076-73.5034 39.5678-73.5034 39.0281-72.9659C39.0281-72.9659 38.4883-72.9659 37.9486-72.9659C38.4883-72.4284 38.4883-71.8909 37.9486-71.8909C37.4088-71.8909 36.8691-71.8909 36.3293-71.3534C36.3293-71.3534 35.7896-71.3534 35.7896-70.816C35.7896-70.2784 35.2498-70.2784 34.71-69.7409C34.1703-70.2784 33.0908-69.7409 32.551-69.2034C32.0113-69.2034 31.4715-68.6659 31.4715-68.1284C30.9318-67.5909 30.9318-67.0534 31.4715-66.5159C32.0113-66.5159 32.0113-65.9784 32.551-65.9784C33.6305-65.9784 34.71-65.4409 35.2498-65.4409C35.2498-64.9034 35.2498-64.3659 35.2498-63.8284C35.2498-63.8284 35.2498-63.2909 35.7896-63.2909C35.7896-63.2909 36.3293-63.2909 36.8691-63.2909C36.8691-63.2909 37.4088-63.8284 37.4088-64.3659C37.9486-65.4409 38.4883-65.9784 39.0281-65.9784C39.5678-65.9784 40.1076-66.5159 40.6473-67.0534C40.6473-67.0534 41.187-67.5909 41.187-68.1284C41.187-68.6659 41.187-69.2034 41.7268-69.2034C42.2665-69.7409 42.2665-70.2784 42.8063-70.2784C42.8063-71.8909 43.8858-71.8909 45.505-71.3534C46.5845-70.816 46.5845-70.2784 46.0447-69.7409C46.0447-69.2034 46.0447-69.2034 46.5845-69.2034C47.1242-69.2034 47.664-69.2034 47.664-69.7409C48.2037-70.2784 48.7435-70.2784 49.2832-70.816C49.2832-69.2034 49.823-67.5909 49.823-66.5159C49.823-66.5159 50.3627-66.5159 50.9025-66.5159C50.9025-66.5159 51.4423-66.5159 51.4423-65.9784L51.4423-65.4409C51.4423-65.4409 51.4423-65.4409 50.9025-64.9034C49.2832-64.3659 47.664-63.2909 46.0447-63.2909C44.9653-63.2909 43.346-62.7534 42.2665-62.2159C41.7268-62.2159 41.187-61.6784 40.6473-61.6784C40.6473-61.6784 40.6473-61.6784 40.6473-61.1409C41.187-61.1409 41.7268-61.6784 42.2665-61.6784C42.8063-62.2159 43.346-62.2159 43.8858-62.2159C43.8858-61.6784 43.346-61.1409 43.346-60.6034C43.8858-59.5284 44.9653-60.0659 45.505-60.0659C44.4255-58.9909 42.8063-58.4534 41.7268-58.4534C42.2665-58.9909 42.8063-58.9909 43.346-59.5284C41.7268-59.5284 40.1076-58.9909 39.0281-57.9159L38.4883-57.3784C38.4883-56.8409 37.9486-56.3034 37.4088-56.3034C35.2498-55.7659 34.1703-54.6909 33.0908-53.6159C33.0908-53.6159 32.551-53.6159 32.551-54.1534C32.551-53.6159 32.551-53.0784 32.551-53.0784C32.551-52.5409 32.0113-51.4659 31.4715-51.4659C30.3921-50.3909 29.8523-50.3909 29.3126-49.8534C28.7728-49.3159 27.6933-49.3159 27.1536-48.7784C26.6138-48.2409 26.6138-47.1659 26.0741-47.1659C25.5343-46.6284 24.9946-46.6284 24.4549-47.1659C23.9151-47.1659 23.3754-47.7033 23.3754-47.7033C22.8356-47.7033 22.2959-47.7033 21.7561-47.1659C21.2164-46.6284 20.6766-46.6284 19.5971-46.6284C19.0573-44.4784 19.0573-42.8658 18.5176-40.7159C19.0573-41.2534 19.5971-41.2534 20.6766-40.7159C20.1368-39.6409 19.5971-38.5659 19.0573-36.9534C19.5971-36.9534 20.1368-36.9534 20.6766-36.9534C21.2164-36.9534 21.7561-36.9534 21.7561-36.9534C22.8356-36.9534 22.8356-36.4159 22.8356-35.8784C22.8356-35.3408 22.2959-34.8037 22.2959-34.2658C22.2959-33.7286 22.2959-33.7286 22.2959-33.1907L21.7561-32.6535L21.2164-33.1907C20.6766-33.7286 20.6766-34.2658 20.6766-34.8037C19.5971-35.3408 19.0573-35.3408 18.5176-35.3408C18.5176-20.8283 24.4549-7.39089 34.1703 2.28413C35.2498 3.35922 36.8691 4.4343 37.9486 5.50939C37.9486 5.50939 37.9486 4.97146 37.4088 4.97146C35.7896 3.35922 35.7896 1.74697 35.2498-0.403203C35.2498-3.09054 34.71-6.3158 34.1703-9.00313C33.6305-11.1533 32.551-12.7656 30.392-13.8406C29.3126-14.3786 28.7728-14.3786 28.7728-15.4537C28.7728-15.9908 28.2331-15.9908 28.2331-16.528C27.1536-18.141 25.5343-20.2912 24.4549-21.9034C23.9151-22.4406 23.9151-22.9785 24.4549-23.5157C24.4549-23.5157 24.4549-23.5157 24.9946-24.0536C24.4549-25.1287 24.4549-25.1287 24.9946-26.203C24.9946-26.7409 25.5343-26.7409 25.5343-27.2781C26.0741-27.816 26.0741-28.3532 26.6138-28.8911C27.1536-29.9662 27.1536-30.5033 26.6138-31.5784L26.6138-32.1156C26.0741-32.1156 25.5343-32.6535 24.9946-32.6535C26.0741-32.6535 26.6138-32.6535 27.1536-32.1156C27.6933-33.1907 30.3921-35.3408 31.4715-35.3408C31.4715-34.8037 31.4715-34.8037 31.4715-34.2658L31.4715-33.7286C32.551-35.3408 32.551-35.3408 34.1703-34.8037C35.7896-34.2658 36.8691-33.7286 38.4883-34.2658L39.0281-34.2658C39.0281-33.7286 39.0281-33.7286 39.0281-33.7286C39.5678-33.1907 40.1076-32.6535 40.6473-32.1156C41.187-31.0405 42.2665-30.5033 43.346-30.5033C43.8858-30.5033 44.4255-30.5033 44.9653-30.5033C46.0447-30.5033 46.5845-29.9662 46.5845-28.8911C46.5845-28.3532 46.5845-27.2781 47.1242-26.7409C47.664-26.7409 48.2037-26.7409 48.7435-25.6658C50.3627-26.203 51.4423-25.6658 51.4423-24.5907C52.5218-24.5907 53.0615-24.5907 54.141-24.5907C55.2205-24.5907 55.7602-24.0536 56.3-23.5157C56.8397-22.9785 57.3795-22.4406 57.9192-22.4406C58.9987-21.9034 59.5385-21.3655 58.9987-20.2912C58.459-19.2161 57.9192-17.6031 56.8397-16.528C56.3-14.9157 56.3-14.3786 56.3-13.8406C56.3-12.7656 56.3-12.2284 56.3-11.1533C56.3-10.0782 55.7602-9.00313 55.2205-7.92804C54.6808-7.39089 54.6808-7.39089 53.6013-7.39089C53.0615-7.39089 53.0615-7.39089 52.5218-7.39089C51.982-6.85296 51.4423-6.85296 50.3627-6.3158C49.823-6.3158 49.823-5.77864 50.3627-5.24071C50.9025-4.70355 50.3627-4.16562 50.3627-3.62847C50.3627-3.09054 49.823-2.55338 49.823-2.55338C49.823-2.01545 49.823-1.47829 49.823-1.47829C49.2832-0.941134 49.2832-0.403203 48.7435 0.133954C48.2037 1.20904 47.664 1.20904 46.5845 0.671884C46.0447 0.671884 46.0447 0.133954 45.505 0.133954L46.0447 0.671884C46.5845 1.20904 46.5845 1.20904 47.1242 1.74697C47.664 2.82206 47.1242 3.35922 46.0447 3.35922C45.505 3.35922 45.505 3.35922 44.9653 3.35922C44.4255 3.35922 44.4255 3.35922 44.4255 4.4343L44.4255 4.97146L44.4255 5.50939L43.8858 5.50939C43.8858 5.50939 43.346 5.50939 43.346 4.97146C43.346 5.50939 43.8858 5.50939 43.8858 6.04655C44.4255 6.58448 44.4255 6.58448 43.8858 7.12164C43.8858 7.65957 43.346 7.65957 43.346 8.19672L43.346 8.73388C43.8858 9.27181 44.4255 9.80897 44.9653 10.3469C50.9025 14.1093 57.9192 16.2595 64.9359 17.3346C69.7937 17.8717 74.1115 17.8717 78.9693 17.3346C82.7474 16.7967 85.446 19.484 85.9862 22.7092C85.9862 25.3966 83.827 27.5468 81.1284 28.0839C77.8897 28.6218 75.1911 29.159 72.4926 29.159C36.8691 29.159 7.72266 0.133954 7.72266-35.3408C7.72266-70.816 36.8691-99.841 72.4926-99.841C101.099-99.841 124.848-81.5659 133.484-56.3034C134.023-55.2284 134.023-54.1534 134.023-53.6159ZM30.392-60.0659C30.392-60.6034 29.8523-61.1409 29.3126-61.1409C28.2331-61.1409 27.1536-60.0659 26.0741-59.5284C27.1536-59.5284 28.2331-59.5284 29.3126-59.5284C29.3126-59.5284 29.3126-59.5284 28.7728-59.5284C28.2331-58.4534 27.1536-57.9159 26.6138-56.8409C26.6138-56.8409 26.6138-56.3034 26.6138-55.7659C27.1536-55.7659 27.1536-55.7659 27.6933-56.3034L28.2331-56.8409C28.7728-57.3784 28.7728-57.9159 29.3126-57.9159C29.8523-58.4534 30.3921-58.4534 30.9318-57.9159C30.9318-57.9159 30.9318-57.3784 30.392-57.3784L30.392-56.8409L30.9318-56.8409C30.9318-56.8409 31.4715-56.8409 31.4715-57.3784C32.0113-57.3784 32.0113-57.9159 32.551-57.9159L33.0908-58.4534L32.551-58.4534C30.392-58.9909 30.392-58.9909 30.392-60.0659ZM107.036-75.6535L107.576-75.6535C107.036-76.1909 106.497-76.7284 105.957-77.2659C105.417-77.8034 104.877-77.8034 103.798-77.8034C103.798-77.8034 104.338-77.8034 104.877-77.8034C104.338-77.8034 104.338-78.3409 103.798-78.3409C103.798-77.8034 103.798-77.8034 103.798-77.2659C103.798-76.7284 104.338-76.1909 104.877-75.6535C105.417-75.6535 105.957-75.1159 107.036-75.6535C107.036-75.1159 107.576-75.1159 107.036-75.6535ZM121.609-55.7659C121.609-56.3034 121.07-56.3034 120.53-56.8409C121.07-56.8409 121.07-56.8409 121.609-56.8409C121.609-56.8409 121.609-57.3784 121.07-57.3784C121.07-57.3784 120.53-57.3784 120.53-57.9159C119.99-58.4534 119.45-58.4534 118.911-58.9909C118.911-58.9909 118.371-59.5284 118.911-60.0659C118.911-60.0659 119.45-60.6034 119.99-60.6034C119.99-60.6034 119.99-60.6034 120.53-60.6034C120.53-61.1409 119.99-61.6784 119.99-61.6784C119.45-61.6784 119.45-61.6784 118.371-61.6784C117.831-61.6784 117.831-61.1409 117.292-61.1409C116.752-60.6034 116.752-60.0659 117.292-59.5284C117.831-58.9909 118.371-57.9159 119.45-57.3784C119.99-56.8409 119.99-56.3034 119.45-55.7659C118.911-55.2284 118.911-54.6909 119.45-54.6909C119.99-54.1534 120.53-54.1534 121.609-54.1534C122.149-54.1534 122.689-54.1534 122.689-54.6909C122.689-55.2284 122.149-55.2284 121.609-55.7659Z"/>
  </g>
  <g id="Regular-M" transform="matrix(1 0 0 1 1391.32 1126)">
   <path d="M65.4632-58.9507C65.8814-58.9507 66.3001-59.3674 66.3001-59.3674C65.8814-59.3674 65.8814-59.3674 65.4632-59.7841C66.3001-60.6173 66.7183-61.034 67.137-61.034L67.5552-61.034C67.9733-60.6173 68.392-60.6173 68.8102-60.2007C68.8102-59.7841 68.392-59.7841 67.9733-59.3674C67.5552-59.3674 66.7183-58.9507 65.4632-58.9507C65.8814-58.9507 65.8814-58.9507 65.4632-58.9507ZM67.137-61.8674C67.137-62.284 66.7183-62.284 66.7183-62.7007C66.3001-62.284 66.3001-62.284 67.137-61.8674ZM48.3084-68.1174C47.4715-68.1174 47.0532-67.2841 47.0532-66.4507C47.0532-66.034 47.0532-66.034 47.0532-65.6174C47.0532-64.3673 47.4715-63.9507 48.3084-63.9507C48.7267-63.9507 49.5636-63.9507 49.982-64.3673C50.4004-64.784 50.4004-64.784 50.8188-65.2007C51.2372-66.034 52.074-66.8674 53.3293-66.8674C54.1661-66.8674 55.0029-67.2841 55.8397-68.1174C56.2581-68.5341 57.0949-68.9507 57.9319-68.9507C58.7688-68.9507 59.1869-68.9507 60.0238-69.3674C60.0238-69.3674 60.0238-69.3674 60.4419-69.784L60.0238-69.784C59.6057-69.784 59.6057-69.784 59.1869-69.784C59.1869-70.2007 59.6057-70.2007 59.6057-70.6174C60.0238-70.6174 60.4419-69.784 61.2788-70.2007C60.8607-70.6174 60.4419-70.6174 60.0238-71.0341C60.4419-71.0341 60.4419-71.0341 60.4419-71.0341C61.2788-71.0341 62.5345-71.4507 62.9526-72.2841C62.9526-72.2841 63.3713-72.7007 63.3713-73.1174C63.3713-73.534 63.3713-73.534 63.7895-73.9507C64.2076-73.9507 64.6264-74.3674 65.0445-74.3674C65.4632-74.3674 65.8814-74.7841 65.8814-74.7841C65.4632-74.7841 64.6264-75.2007 64.2076-75.2007C63.7895-75.2007 63.3713-75.6174 62.9526-75.6174C61.2788-75.6174 60.0238-75.6174 58.35-75.2007C55.8397-74.7841 53.7477-74.3674 51.2372-73.9507C49.982-73.9507 49.1452-73.534 48.3084-72.7007C48.3084-72.7007 48.3084-72.2841 48.7267-72.2841C48.7267-72.2841 48.7267-71.8674 48.3084-71.8674C49.1452-71.8674 49.1452-71.4507 49.5636-70.6174C49.5636-70.2007 49.982-69.3674 50.4004-69.3674C50.8188-69.3674 50.8188-68.9507 50.4004-68.5341C48.7267-68.5341 48.3084-68.5341 48.3084-68.1174ZM20.6934-33.5338C20.2749-33.5338 19.8565-33.9508 19.4381-33.9508C19.0197-33.9508 19.0197-34.3672 18.6013-34.3672C18.6013-33.5338 19.4381-33.1174 20.6934-33.5338ZM63.3713-59.7841C64.2076-59.7841 65.4632-60.6173 65.4632-61.8674C64.2076-61.8674 63.3713-61.034 63.3713-59.7841ZM57.9319-35.2006C58.7688-34.7842 59.1869-34.3672 59.1869-33.5338C59.6057-32.7004 59.6057-32.7004 59.6057-32.7004C60.0238-32.284 60.4419-32.284 61.2788-32.7004C62.9526-35.2006 65.4632-38.534 69.2289-41.4507C73.4128-44.784 77.1784-46.4507 80.1072-47.284C80.526-47.284 80.526-47.7007 80.526-47.7007C80.526-48.1173 79.6891-48.1173 79.2704-48.1173C78.4341-48.1173 78.0153-48.1173 78.0153-47.284C78.0153-46.4507 77.5972-46.4507 77.1784-46.4507C76.7603-46.4507 76.7603-46.4507 76.3416-46.8674L75.9234-47.284C75.9234-48.1173 75.5047-48.534 74.6684-48.534L74.2496-48.534C72.9946-48.9507 72.9946-48.9507 72.9946-50.2007C72.9946-50.6174 72.9946-51.034 72.5759-51.034C71.3208-51.034 70.484-51.034 69.2289-51.034C68.392-51.034 67.9733-50.6174 67.5552-50.2007C67.137-50.2007 66.7183-49.784 66.3001-49.784C65.8814-49.784 65.4632-49.784 65.0445-50.2007C64.6264-50.2007 64.6264-50.2007 64.2076-50.2007C63.7895-49.784 63.3713-49.3673 62.9526-48.9507C62.5345-48.534 62.1157-48.1173 62.1157-47.7007C62.1157-46.8674 61.6976-46.4507 60.8607-46.034C60.4419-46.034 60.0238-45.6173 59.6057-45.2007C58.7688-44.3673 58.35-43.534 57.5134-42.284C57.0949-41.8673 57.0949-41.034 57.5134-40.6173C57.5134-40.2007 57.5134-40.2007 57.9319-39.784C57.9319-39.3673 57.9319-38.9506 57.9319-38.534L57.5134-38.1173C57.5134-37.7007 57.5134-37.284 57.5134-37.284C57.9319-36.4507 57.9319-36.034 57.5134-36.034C57.5134-35.6176 57.5134-35.6176 57.9319-35.2006ZM43.7059-73.9507C43.2875-73.9507 42.869-73.9507 42.0322-73.9507C42.869-73.534 43.2875-73.534 43.7059-73.9507C43.7059-73.534 43.7059-73.9507 43.7059-73.9507ZM42.0322-72.7007C42.869-72.7007 43.2875-73.1174 44.1243-73.534C43.2875-73.1174 42.4506-73.1174 42.0322-72.7007ZM32.8272-68.5341C33.664-68.9507 34.0824-68.9507 34.9193-69.3674C34.0824-69.784 33.2456-69.3674 32.8272-68.5341ZM25.7143-39.784C25.7143-38.9506 24.8774-39.3673 24.8774-38.9506C26.1326-38.534 26.9695-38.9506 28.2247-39.3673C27.3879-39.784 26.5511-39.784 25.7143-39.784ZM38.685-56.4507C39.1033-56.4507 39.5218-56.0341 39.9402-56.0341C40.3586-56.0341 40.777-56.4507 41.1954-56.4507C41.1954-56.4507 41.6138-56.4507 41.6138-56.8673L41.6138-57.284C41.6138-57.284 41.1954-57.284 41.1954-57.7007C40.777-57.7007 40.3586-58.1174 40.777-58.534C39.9402-58.1174 39.1033-57.284 38.685-56.4507ZM19.8565-41.034C21.1117-40.6173 21.9486-40.6173 23.2038-40.2007C22.367-41.034 21.1117-41.4507 19.8565-41.034ZM31.9904-64.3673C32.8272-64.3673 33.2456-64.3673 34.0824-64.3673C34.0824-65.2007 33.664-65.2007 33.2456-65.2007C32.8272-65.6174 31.9904-65.2007 31.9904-64.3673ZM35.7561-65.2007C36.1745-65.2007 36.5929-65.2007 37.0113-65.6174C36.1745-65.6174 36.1745-65.6174 35.7561-65.2007ZM42.869-66.8674C42.869-67.2841 42.869-67.2841 42.4506-67.7007C42.0322-67.7007 41.6138-68.1174 41.6138-68.5341C41.1954-68.5341 40.777-68.9507 40.3586-69.3674C40.3586-69.3674 39.9402-69.784 39.5218-69.3674C39.5218-69.3674 39.1033-69.3674 38.685-69.3674C38.2665-69.784 37.8481-69.784 37.0113-69.3674C37.0113-69.3674 36.5929-69.3674 36.1745-68.9507L36.5929-69.3674C35.7561-69.784 34.9193-69.3674 34.5008-68.5341C34.5008-68.1174 34.0824-68.1174 34.5008-68.1174C35.3377-68.1174 36.5929-67.7007 37.4297-68.1174C38.2665-68.5341 38.685-68.1174 39.1033-67.2841C39.1033-66.8674 39.5218-66.4507 39.5218-66.034C39.1033-66.034 38.685-66.034 38.2665-66.034C37.8481-66.034 37.4297-65.6174 37.0113-65.2007C37.8481-65.2007 37.8481-64.784 38.2665-64.784C38.685-64.3673 39.5218-64.3673 39.9402-64.784L39.5218-65.2007L39.9402-65.2007C40.3586-64.784 40.777-65.2007 40.777-65.6174C40.777-66.034 40.777-66.034 40.777-66.4507C41.1954-66.4507 41.6138-66.4507 42.0322-66.4507C42.4506-66.4507 42.4506-66.4507 42.869-66.8674ZM34.9193-66.8674C34.5008-66.8674 33.664-66.4507 33.2456-66.034C33.664-66.4507 34.5008-66.4507 34.9193-66.8674ZM70.0658-16.8675C70.0658-1.45052 85.5467 12.2997 85.9654 12.7161C86.8017 13.5495 87.6386 13.5495 88.8942 13.5495C90.1493 13.5495 90.9862 13.1325 91.823 12.7161C92.6599 12.2997 107.723-1.45052 107.723-16.8675C107.723-28.1176 99.7725-36.034 88.8942-36.034C78.0153-36.034 70.0658-28.1176 70.0658-16.8675ZM78.4341-16.8675C78.4341-23.5342 82.6179-27.7006 88.8942-27.7006C95.17-27.7006 99.3544-23.5342 99.3544-16.8675C99.3544-8.53414 92.6599-0.200723 88.8942 3.96628C84.7098-0.617123 78.4341-8.95054 78.4341-16.8675ZM105.63-50.2007C105.63-48.1173 103.538-46.034 101.446-46.034C100.609-46.034 100.609-46.034 98.9357-46.8674C97.2625-47.284 94.3331-48.534 91.4043-48.534C90.5674-48.534 89.3124-48.534 88.0574-48.534C87.2205-48.9507 87.2205-49.784 87.2205-49.784L87.2205-50.2007C87.2205-50.2007 86.8017-50.2007 86.3836-50.2007C85.9654-50.2007 85.5467-49.784 85.1286-50.2007C84.7098-50.6174 84.2917-50.6174 83.4548-50.2007C82.6179-49.784 82.1998-50.2007 82.1998-51.034C82.1998-51.4507 81.781-51.8673 81.781-52.284C82.6179-52.7007 83.8729-53.1173 84.7098-53.534L85.1286-53.534C85.9654-53.534 86.8017-53.1173 87.2205-53.1173C87.6386-53.1173 88.0574-53.1173 88.4755-53.1173C88.8942-53.1173 89.3124-53.9507 88.8942-54.3674C88.8942-54.3674 88.4755-54.784 88.0574-54.784C87.6386-54.784 87.2205-55.2007 86.8017-55.2007C86.3836-55.2007 86.3836-55.6174 86.3836-56.0341C87.2205-56.4507 87.2205-56.8673 87.2205-57.284C86.8017-56.8673 85.9654-56.8673 85.5467-56.4507C85.9654-56.0341 85.9654-56.0341 86.3836-56.0341C85.9654-56.0341 85.5467-55.6174 85.5467-55.6174C85.1286-55.6174 85.1286-55.6174 84.7098-56.0341C84.7098-56.8673 83.8729-56.8673 83.4548-56.4507C83.036-56.0341 82.6179-55.6174 82.6179-55.2007C82.1998-54.784 82.1998-53.9507 82.6179-53.534C81.781-53.1173 80.526-53.534 79.6891-52.7007C79.6891-52.284 80.1072-51.8673 80.1072-51.4507C80.1072-51.034 80.1072-50.6174 79.6891-50.6174C79.2704-50.6174 79.2704-51.034 78.8522-51.034C78.8522-51.034 78.8522-51.4507 78.8522-51.8673L78.4341-51.8673C78.0153-51.8673 77.5972-52.284 77.5972-52.7007C77.5972-53.534 77.1784-54.3674 75.9234-54.3674C75.5047-54.784 74.6684-54.784 74.2496-55.6174C74.2496-56.0341 73.8315-55.6174 73.8315-55.6174C74.2496-55.6174 74.2496-55.2007 74.6684-55.2007C75.0865-54.784 75.9234-53.9507 76.3416-53.534C76.7603-53.1173 76.3416-52.7007 75.9234-52.284C75.5047-51.8673 74.2496-52.284 74.2496-52.7007C73.8315-53.1173 74.2496-53.534 74.6684-53.9507C74.2496-54.3674 73.4128-54.784 72.9946-55.2007L72.5759-55.2007C71.739-54.784 70.9027-54.784 70.0658-54.784L69.6471-54.3674C69.6471-53.9507 69.6471-53.9507 69.2289-53.534C68.8102-53.534 68.392-53.1173 68.392-53.1173C67.5552-52.7007 67.5552-52.7007 67.5552-52.284C67.5552-51.8673 67.5552-51.8673 67.5552-51.4507C67.137-51.034 66.7183-51.034 66.3001-50.6174C65.4632-50.6174 64.6264-50.6174 63.7895-50.6174C62.5345-50.6174 62.5345-51.034 62.9526-52.284C62.9526-53.1173 63.3713-53.534 63.3713-54.3674C63.3713-54.3674 63.3713-54.784 63.7895-54.784C64.2076-54.784 64.2076-54.784 64.6264-54.784C65.0445-54.784 65.8814-54.3674 66.3001-54.3674C67.137-54.3674 67.5552-54.784 67.5552-55.6174C67.5552-56.4507 67.137-57.284 65.8814-57.7007C66.3001-57.7007 66.7183-58.1174 67.137-58.1174C67.9733-58.1174 68.8102-58.534 69.2289-58.9507C69.6471-59.3674 70.0658-59.7841 70.484-60.2007C70.9027-60.6173 71.3208-61.034 72.1577-61.034C72.5759-61.034 72.5759-61.034 72.5759-61.4507C72.5759-61.8674 72.5759-61.8674 72.1577-62.284C72.1577-62.7007 72.1577-63.1174 72.9946-63.1174C73.4128-63.1174 73.8315-62.7007 73.4128-62.284L73.4128-61.8674C73.4128-61.8674 73.4128-61.4507 73.8315-61.4507C74.2496-61.4507 75.0865-61.4507 75.5047-61.034L75.9234-61.034C76.3416-61.034 76.7603-61.4507 77.5972-61.4507C78.4341-61.4507 78.8522-61.8674 78.8522-62.7007C78.8522-63.1174 78.8522-63.1174 79.2704-63.1174L79.6891-63.1174L80.1072-63.1174L80.1072-63.5341C80.1072-63.5341 80.1072-63.9507 79.6891-63.9507C80.1072-63.9507 80.526-63.9507 80.9441-64.3673C81.3629-64.3673 81.781-64.784 82.1998-64.784L81.781-64.784C80.9441-64.784 80.526-64.784 79.6891-64.784C79.2704-64.784 78.8522-64.784 78.4341-65.2007C78.0153-65.6174 78.4341-66.034 78.8522-66.4507C78.8522-66.8674 78.8522-67.2841 78.8522-67.7007L78.8522-68.1174L78.4341-68.1174C78.0153-68.1174 78.0153-67.7007 78.0153-67.7007C77.5972-67.2841 77.1784-66.8674 76.7603-66.8674C76.3416-66.8674 76.3416-66.4507 76.3416-66.034L76.7603-65.6174C77.1784-65.2007 77.1784-64.784 76.7603-64.784C76.3416-64.784 76.3416-64.3673 75.9234-63.9507C75.9234-63.5341 75.5047-63.5341 75.5047-63.1174C75.5047-62.7007 75.0865-62.7007 74.6684-62.7007C74.2496-62.7007 74.2496-63.1174 73.8315-63.5341C73.4128-64.784 73.4128-64.784 72.5759-63.9507C72.1577-63.9507 71.739-63.5341 71.3208-63.9507C70.484-64.784 70.9027-65.6174 71.739-66.034C72.9946-66.8674 74.2496-67.7007 75.5047-68.9507C77.1784-70.6174 79.2704-71.0341 81.3629-70.6174L81.781-70.6174C81.3629-71.0341 80.9441-71.0341 80.9441-71.4507C79.6891-72.2841 78.4341-72.7007 77.1784-73.534C76.7603-73.534 76.7603-73.534 76.3416-73.534C75.5047-72.7007 74.6684-72.7007 74.2496-73.534C74.2496-73.9507 73.8315-73.9507 73.8315-73.9507C73.8315-73.9507 73.4128-73.9507 73.4128-74.3674C73.4128-74.7841 72.9946-74.7841 72.9946-74.7841C69.6471-76.0341 66.3001-76.8674 62.9526-77.284C56.6766-78.1174 50.8188-77.284 44.9611-75.6174C43.2875-75.2007 41.6138-74.3674 40.3586-73.9507C39.9402-73.534 39.5218-73.534 39.1033-73.1174L39.1033-72.7007C38.685-72.7007 38.2665-72.2841 37.8481-72.2841C37.4297-72.2841 37.4297-72.2841 37.0113-72.2841C35.3377-71.0341 33.664-70.2007 31.9904-68.5341C31.9904-68.5341 31.572-68.5341 31.572-68.1174C31.572-68.1174 31.1536-67.7007 30.7351-67.7007C30.3168-67.2841 29.4799-66.4507 29.0615-66.034C29.8983-66.034 30.7351-66.034 31.1536-66.8674C31.572-66.8674 31.572-67.2841 31.1536-67.2841C31.1536-67.2841 31.1536-67.2841 31.1536-67.7007C32.4088-68.1174 32.4088-68.1174 32.8272-68.1174C32.8272-67.7007 32.4088-67.2841 32.8272-67.2841C32.8272-67.2841 33.2456-67.2841 33.664-66.8674C33.2456-66.8674 32.8272-66.4507 32.8272-66.034C32.8272-65.6174 32.4088-65.6174 31.9904-65.2007C31.9904-65.2007 31.572-65.2007 31.1536-65.2007C31.572-64.784 31.572-64.3673 31.1536-64.3673C30.7351-64.3673 30.3168-64.3673 29.8983-63.9507C29.8983-63.9507 29.4799-63.9507 29.4799-63.5341C29.4799-63.1174 29.0615-63.1174 28.6431-62.7007C28.2247-63.1174 27.3879-62.7007 26.9695-62.284C26.5511-62.284 26.1326-61.8674 26.1326-61.4507C25.7143-61.034 25.7143-60.6173 26.1326-60.2007C26.5511-60.2007 26.5511-59.7841 26.9695-59.7841C27.8063-59.7841 28.6431-59.3674 29.0615-59.3674C29.0615-58.9507 29.0615-58.534 29.0615-58.1174C29.0615-58.1174 29.0615-57.7007 29.4799-57.7007C29.4799-57.7007 29.8983-57.7007 30.3168-57.7007C30.3168-57.7007 30.7351-58.1174 30.7351-58.534C31.1536-59.3674 31.572-59.7841 31.9904-59.7841C32.4088-59.7841 32.8272-60.2007 33.2456-60.6173C33.2456-60.6173 33.664-61.034 33.664-61.4507C33.664-61.8674 33.664-62.284 34.0824-62.284C34.5008-62.7007 34.5008-63.1174 34.9193-63.1174C34.9193-64.3673 35.7561-64.3673 37.0113-63.9507C37.8481-63.5341 37.8481-63.1174 37.4297-62.7007C37.4297-62.284 37.4297-62.284 37.8481-62.284C38.2665-62.284 38.685-62.284 38.685-62.7007C39.1033-63.1174 39.5218-63.1174 39.9402-63.5341C39.9402-62.284 40.3586-61.034 40.3586-60.2007C40.3586-60.2007 40.777-60.2007 41.1954-60.2007C41.1954-60.2007 41.6138-60.2007 41.6138-59.7841L41.6138-59.3674C41.6138-59.3674 41.6138-59.3674 41.1954-58.9507C39.9402-58.534 38.685-57.7007 37.4297-57.7007C36.5929-57.7007 35.3377-57.284 34.5008-56.8673C34.0824-56.8673 33.664-56.4507 33.2456-56.4507C33.2456-56.4507 33.2456-56.4507 33.2456-56.0341C33.664-56.0341 34.0824-56.4507 34.5008-56.4507C34.9193-56.8673 35.3377-56.8673 35.7561-56.8673C35.7561-56.4507 35.3377-56.0341 35.3377-55.6174C35.7561-54.784 36.5929-55.2007 37.0113-55.2007C36.1745-54.3674 34.9193-53.9507 34.0824-53.9507C34.5008-54.3674 34.9193-54.3674 35.3377-54.784C34.0824-54.784 32.8272-54.3674 31.9904-53.534L31.572-53.1173C31.572-52.7007 31.1536-52.284 30.7351-52.284C29.0615-51.8673 28.2247-51.034 27.3879-50.2007C27.3879-50.2007 26.9695-50.2007 26.9695-50.6174C26.9695-50.2007 26.9695-49.784 26.9695-49.784C26.9695-49.3673 26.5511-48.534 26.1326-48.534C25.2959-47.7007 24.8774-47.7007 24.459-47.284C24.0406-46.8674 23.2038-46.8674 22.7854-46.4507C22.367-46.034 22.367-45.2007 21.9486-45.2007C21.5301-44.784 21.1117-44.784 20.6934-45.2007C20.2749-45.2007 19.8565-45.6173 19.8565-45.6173C19.4381-45.6173 19.0197-45.6173 18.6013-45.2007C18.1829-44.784 17.7644-44.784 16.9277-44.784C16.5092-43.1174 16.5092-41.8673 16.0909-40.2007C16.5092-40.6173 16.9277-40.6173 17.7644-40.2007C17.3461-39.3673 16.9277-38.534 16.5092-37.284C16.9277-37.284 17.3461-37.284 17.7644-37.284C18.1829-37.284 18.6013-37.284 18.6013-37.284C19.4381-37.284 19.4381-36.8673 19.4381-36.4507C19.4381-36.034 19.0197-35.6176 19.0197-35.2006C19.0197-34.7842 19.0197-34.7842 19.0197-34.3672L18.6013-33.9508L18.1829-34.3672C17.7644-34.7842 17.7644-35.2006 17.7644-35.6176C16.9277-36.034 16.5092-36.034 16.0909-36.034C16.0909-24.784 20.6934-14.3673 28.2247-6.86733C29.0616-6.03393 30.3168-5.20053 31.1536-4.36713C31.1536-4.36713 31.1536-4.78413 30.7351-4.78413C29.4799-6.03393 29.4799-7.28373 29.0615-8.95054C29.0615-11.0337 28.6431-13.5339 28.2247-15.6171C27.8063-17.284 26.9695-18.5338 25.2958-19.3672C24.459-19.7842 24.0406-19.7842 24.0406-20.6176C24.0406-21.034 23.6222-21.034 23.6222-21.4504C22.7854-22.7008 21.5301-24.3676 20.6934-25.6174C20.2749-26.0338 20.2749-26.4508 20.6934-26.8672C20.6934-26.8672 20.6934-26.8672 21.1117-27.2842C20.6934-28.1176 20.6934-28.1176 21.1117-28.9504C21.1117-29.3674 21.5301-29.3674 21.5301-29.7838C21.9486-30.2008 21.9486-30.6172 22.367-31.0342C22.7854-31.8676 22.7854-32.284 22.367-33.1174L22.367-33.5338C21.9486-33.5338 21.5301-33.9508 21.1117-33.9508C21.9486-33.9508 22.367-33.9508 22.7854-33.5338C23.2038-34.3672 25.2959-36.034 26.1326-36.034C26.1326-35.6176 26.1326-35.6176 26.1326-35.2006L26.1326-34.7842C26.9695-36.034 26.9695-36.034 28.2247-35.6176C29.4799-35.2006 30.3168-34.7842 31.572-35.2006L31.9904-35.2006C31.9904-34.7842 31.9904-34.7842 31.9904-34.7842C32.4088-34.3672 32.8272-33.9508 33.2456-33.5338C33.664-32.7004 34.5008-32.284 35.3377-32.284C35.7561-32.284 36.1745-32.284 36.5929-32.284C37.4297-32.284 37.8481-31.8676 37.8481-31.0342C37.8481-30.6172 37.8481-29.7838 38.2665-29.3674C38.685-29.3674 39.1033-29.3674 39.5218-28.534C40.777-28.9504 41.6138-28.534 41.6138-27.7006C42.4506-27.7006 42.869-27.7006 43.7059-27.7006C44.5427-27.7006 44.9611-27.2842 45.3795-26.8672C45.7979-26.4508 46.2163-26.0338 46.6347-26.0338C47.4715-25.6174 47.89-25.2004 47.4715-24.3676C47.0532-23.5342 46.6347-22.2838 45.7979-21.4504C45.3795-20.2006 45.3795-19.7842 45.3795-19.3672C45.3795-18.5338 45.3795-18.1174 45.3795-17.284C45.3795-16.4505 44.9611-15.6171 44.5427-14.7837C44.1243-14.3673 44.1243-14.3673 43.2875-14.3673C42.869-14.3673 42.869-14.3673 42.4506-14.3673C42.0322-13.9503 41.6138-13.9503 40.777-13.5339C40.3586-13.5339 40.3586-13.1175 40.777-12.7005C41.1954-12.2841 40.777-11.8671 40.777-11.4507C40.777-11.0337 40.3586-10.6173 40.3586-10.6173C40.3586-10.2003 40.3586-9.78394 40.3586-9.78394C39.9402-9.36754 39.9402-8.95054 39.5218-8.53414C39.1033-7.70073 38.685-7.70073 37.8481-8.11714C37.4297-8.11714 37.4297-8.53414 37.0113-8.53414L37.4297-8.11714C37.8481-7.70073 37.8481-7.70073 38.2665-7.28373C38.685-6.45033 38.2665-6.03393 37.4297-6.03393C37.0113-6.03393 37.0113-6.03393 36.5929-6.03393C36.1745-6.03393 36.1745-6.03393 36.1745-5.20053L36.1745-4.78413L36.1745-4.36713L35.7561-4.36713C35.7561-4.36713 35.3377-4.36713 35.3377-4.78413C35.3377-4.36713 35.7561-4.36713 35.7561-3.95073C36.1745-3.53373 36.1745-3.53373 35.7561-3.11733C35.7561-2.70033 35.3377-2.70033 35.3377-2.28393L35.3377-1.86753C35.7561-1.45052 36.1745-1.03412 36.5929-0.617123C41.1954 2.29948 46.6347 3.96628 52.074 4.79969C55.8397 5.21609 59.1869 5.21609 62.9526 4.79969C65.8814 4.38268 67.9733 6.46589 68.392 8.96609C68.392 11.0493 66.7183 12.7161 64.6264 13.1325C62.1157 13.5495 60.0238 13.9659 57.9319 13.9659C30.3168 13.9659 7.72266-8.53414 7.72266-36.034C7.72266-63.5341 30.3168-86.0341 57.9319-86.0341C80.1072-86.0341 98.5175-71.8674 105.212-52.284C105.63-51.4507 105.63-50.6174 105.63-50.2007ZM25.2958-55.2007C25.2958-55.6174 24.8774-56.0341 24.459-56.0341C23.6222-56.0341 22.7854-55.2007 21.9486-54.784C22.7854-54.784 23.6222-54.784 24.459-54.784C24.459-54.784 24.459-54.784 24.0406-54.784C23.6222-53.9507 22.7854-53.534 22.367-52.7007C22.367-52.7007 22.367-52.284 22.367-51.8673C22.7854-51.8673 22.7854-51.8673 23.2038-52.284L23.6222-52.7007C24.0406-53.1173 24.0406-53.534 24.459-53.534C24.8774-53.9507 25.2959-53.9507 25.7143-53.534C25.7143-53.534 25.7143-53.1173 25.2958-53.1173L25.2958-52.7007L25.7143-52.7007C25.7143-52.7007 26.1326-52.7007 26.1326-53.1173C26.5511-53.1173 26.5511-53.534 26.9695-53.534L27.3879-53.9507L26.9695-53.9507C25.2958-54.3674 25.2958-54.3674 25.2958-55.2007ZM84.7098-67.2841L85.1286-67.2841C84.7098-67.7007 84.2917-68.1174 83.8729-68.5341C83.4548-68.9507 83.036-68.9507 82.1998-68.9507C82.1998-68.9507 82.6179-68.9507 83.036-68.9507C82.6179-68.9507 82.6179-69.3674 82.1998-69.3674C82.1998-68.9507 82.1998-68.9507 82.1998-68.5341C82.1998-68.1174 82.6179-67.7007 83.036-67.2841C83.4548-67.2841 83.8729-66.8674 84.7098-67.2841C84.7098-66.8674 85.1286-66.8674 84.7098-67.2841ZM96.0069-51.8673C96.0069-52.284 95.5887-52.284 95.17-52.7007C95.5887-52.7007 95.5887-52.7007 96.0069-52.7007C96.0069-52.7007 96.0069-53.1173 95.5887-53.1173C95.5887-53.1173 95.17-53.1173 95.17-53.534C94.7518-53.9507 94.3331-53.9507 93.915-54.3674C93.915-54.3674 93.4968-54.784 93.915-55.2007C93.915-55.2007 94.3331-55.6174 94.7518-55.6174C94.7518-55.6174 94.7518-55.6174 95.17-55.6174C95.17-56.0341 94.7518-56.4507 94.7518-56.4507C94.3331-56.4507 94.3331-56.4507 93.4968-56.4507C93.0781-56.4507 93.0781-56.0341 92.6599-56.0341C92.2412-55.6174 92.2412-55.2007 92.6599-54.784C93.0781-54.3674 93.4968-53.534 94.3331-53.1173C94.7518-52.7007 94.7518-52.284 94.3331-51.8673C93.915-51.4507 93.915-51.034 94.3331-51.034C94.7518-50.6174 95.17-50.6174 96.0069-50.6174C96.4256-50.6174 96.8437-50.6174 96.8437-51.034C96.8437-51.4507 96.4256-51.4507 96.0069-51.8673Z"/>
  </g>
  <g id="Regular-S" transform="matrix(1 0 0 1 1402.32 696)">
   <path d="M52.7603-52.875C53.0865-52.875 53.4131-53.1999 53.4131-53.1999C53.0865-53.1999 53.0865-53.1999 52.7603-53.525C53.4131-54.1749 53.7392-54.5 54.0659-54.5L54.392-54.5C54.7182-54.1749 55.0448-54.1749 55.3709-53.8499C55.3709-53.525 55.0448-53.525 54.7182-53.1999C54.392-53.1999 53.7392-52.875 52.7603-52.875C53.0865-52.875 53.0865-52.875 52.7603-52.875ZM54.0659-55.15C54.0659-55.4749 53.7392-55.4749 53.7392-55.8C53.4131-55.4749 53.4131-55.4749 54.0659-55.15ZM39.3795-60.0249C38.7268-60.0249 38.4004-59.375 38.4004-58.725C38.4004-58.3999 38.4004-58.3999 38.4004-58.075C38.4004-57.0999 38.7268-56.775 39.3795-56.775C39.7058-56.775 40.3586-56.775 40.685-57.0999C41.0113-57.425 41.0113-57.425 41.3377-57.7499C41.664-58.3999 42.3167-59.05 43.2958-59.05C43.9485-59.05 44.6012-59.375 45.254-60.0249C45.5803-60.35 46.233-60.6749 46.8859-60.6749C47.5386-60.6749 47.8648-60.6749 48.5175-61C48.5175-61 48.5175-61 48.8437-61.3249L48.5175-61.3249C48.1914-61.3249 48.1914-61.3249 47.8648-61.3249C47.8648-61.65 48.1914-61.65 48.1914-61.975C48.5175-61.975 48.8437-61.3249 49.4965-61.65C49.1703-61.975 48.8437-61.975 48.5175-62.3C48.8437-62.3 48.8437-62.3 48.8437-62.3C49.4965-62.3 50.4759-62.625 50.802-63.275C50.802-63.275 51.1286-63.5999 51.1286-63.925C51.1286-64.25 51.1286-64.25 51.4548-64.575C51.7809-64.575 52.1075-64.9 52.4337-64.9C52.7603-64.9 53.0865-65.225 53.0865-65.225C52.7603-65.225 52.1075-65.55 51.7809-65.55C51.4548-65.55 51.1286-65.8749 50.802-65.8749C49.4965-65.8749 48.5175-65.8749 47.212-65.55C45.254-65.225 43.6222-64.9 41.664-64.575C40.685-64.575 40.0322-64.25 39.3795-63.5999C39.3795-63.5999 39.3795-63.275 39.7058-63.275C39.7058-63.275 39.7058-62.9499 39.3795-62.9499C40.0322-62.9499 40.0322-62.625 40.3586-61.975C40.3586-61.65 40.685-61 41.0113-61C41.3377-61 41.3377-60.6749 41.0113-60.35C39.7058-60.35 39.3795-60.35 39.3795-60.0249ZM17.8398-33.0497C17.5134-33.0497 17.1871-33.375 16.8607-33.375C16.5344-33.375 16.5344-33.6998 16.208-33.6998C16.208-33.0497 16.8607-32.725 17.8398-33.0497ZM51.1286-53.525C51.7809-53.525 52.7603-54.1749 52.7603-55.15C51.7809-55.15 51.1286-54.5 51.1286-53.525ZM46.8859-34.3499C47.5386-34.0251 47.8648-33.6998 47.8648-33.0497C48.1914-32.3997 48.1914-32.3997 48.1914-32.3997C48.5175-32.0749 48.8437-32.0749 49.4965-32.3997C50.802-34.3499 52.7603-36.9499 55.6976-39.2249C58.9609-41.8249 61.8982-43.1249 64.1826-43.7749C64.5093-43.7749 64.5093-44.0999 64.5093-44.0999C64.5093-44.4249 63.8565-44.4249 63.5299-44.4249C62.8776-44.4249 62.5509-44.4249 62.5509-43.7749C62.5509-43.1249 62.2248-43.1249 61.8982-43.1249C61.572-43.1249 61.572-43.1249 61.2454-43.4499L60.9192-43.7749C60.9192-44.4249 60.5926-44.75 59.9403-44.75L59.6137-44.75C58.6348-45.0749 58.6348-45.0749 58.6348-46.0499C58.6348-46.3749 58.6348-46.6999 58.3082-46.6999C57.3292-46.6999 56.6765-46.6999 55.6976-46.6999C55.0448-46.6999 54.7182-46.3749 54.392-46.0499C54.0659-46.0499 53.7392-45.7249 53.4131-45.7249C53.0865-45.7249 52.7603-45.7249 52.4337-46.0499C52.1075-46.0499 52.1075-46.0499 51.7809-46.0499C51.4548-45.7249 51.1286-45.3999 50.802-45.0749C50.4759-44.75 50.1492-44.4249 50.1492-44.0999C50.1492-43.4499 49.8231-43.1249 49.1703-42.7999C48.8437-42.7999 48.5175-42.4749 48.1914-42.1499C47.5386-41.4999 47.212-40.8499 46.5594-39.8749C46.233-39.5499 46.233-38.8999 46.5594-38.5749C46.5594-38.2499 46.5594-38.2499 46.8859-37.9249C46.8859-37.5999 46.8859-37.2749 46.8859-36.9499L46.5594-36.6249C46.5594-36.2999 46.5594-35.9749 46.5594-35.9749C46.8859-35.3249 46.8859-34.9999 46.5594-34.9999C46.5594-34.6751 46.5594-34.6751 46.8859-34.3499ZM35.7895-64.575C35.4632-64.575 35.1368-64.575 34.4841-64.575C35.1368-64.25 35.4632-64.25 35.7895-64.575C35.7895-64.25 35.7895-64.575 35.7895-64.575ZM34.4841-63.5999C35.1368-63.5999 35.4632-63.925 36.1159-64.25C35.4632-63.925 34.8105-63.925 34.4841-63.5999ZM27.3042-60.35C27.9569-60.6749 28.2833-60.6749 28.936-61C28.2833-61.3249 27.6306-61 27.3042-60.35ZM21.7561-37.9249C21.7561-37.2749 21.1034-37.5999 21.1034-37.2749C22.0824-36.9499 22.7352-37.2749 23.7143-37.5999C23.0616-37.9249 22.4088-37.9249 21.7561-37.9249ZM31.8733-50.9249C32.1996-50.9249 32.526-50.6 32.8523-50.6C33.1787-50.6 33.505-50.9249 33.8314-50.9249C33.8314-50.9249 34.1578-50.9249 34.1578-51.2499L34.1578-51.5749C34.1578-51.5749 33.8314-51.5749 33.8314-51.8999C33.505-51.8999 33.1787-52.225 33.505-52.5499C32.8523-52.225 32.1996-51.5749 31.8733-50.9249ZM17.1871-38.8999C18.1661-38.5749 18.8189-38.5749 19.7979-38.2499C19.1452-38.8999 18.1661-39.2249 17.1871-38.8999ZM26.6515-57.0999C27.3042-57.0999 27.6306-57.0999 28.2833-57.0999C28.2833-57.7499 27.9569-57.7499 27.6306-57.7499C27.3042-58.075 26.6515-57.7499 26.6515-57.0999ZM29.5887-57.7499C29.9151-57.7499 30.2415-57.7499 30.5678-58.075C29.9151-58.075 29.9151-58.075 29.5887-57.7499ZM35.1368-59.05C35.1368-59.375 35.1368-59.375 34.8105-59.7C34.4841-59.7 34.1578-60.0249 34.1578-60.35C33.8314-60.35 33.505-60.6749 33.1787-61C33.1787-61 32.8523-61.3249 32.526-61C32.526-61 32.1996-61 31.8733-61C31.5469-61.3249 31.2205-61.3249 30.5678-61C30.5678-61 30.2415-61 29.9151-60.6749L30.2415-61C29.5887-61.3249 28.936-61 28.6096-60.35C28.6096-60.0249 28.2833-60.0249 28.6096-60.0249C29.2624-60.0249 30.2415-59.7 30.8941-60.0249C31.5469-60.35 31.8733-60.0249 32.1996-59.375C32.1996-59.05 32.526-58.725 32.526-58.3999C32.1996-58.3999 31.8733-58.3999 31.5469-58.3999C31.2205-58.3999 30.8941-58.075 30.5678-57.7499C31.2205-57.7499 31.2205-57.425 31.5469-57.425C31.8733-57.0999 32.526-57.0999 32.8523-57.425L32.526-57.7499L32.8523-57.7499C33.1787-57.425 33.505-57.7499 33.505-58.075C33.505-58.3999 33.505-58.3999 33.505-58.725C33.8314-58.725 34.1578-58.725 34.4841-58.725C34.8105-58.725 34.8105-58.725 35.1368-59.05ZM28.936-59.05C28.6096-59.05 27.9569-58.725 27.6306-58.3999C27.9569-58.725 28.6096-58.725 28.936-59.05ZM56.3503-20.0501C56.3503-8.02481 68.4254 2.70036 68.752 3.02515C69.4043 3.67521 70.0571 3.67521 71.0365 3.67521C72.0154 3.67521 72.6682 3.34995 73.321 3.02515C73.9737 2.70036 85.7227-8.02481 85.7227-20.0501C85.7227-28.8251 79.5216-34.9999 71.0365-34.9999C62.5509-34.9999 56.3503-28.8251 56.3503-20.0501ZM62.8776-20.0501C62.8776-25.25 66.1409-28.4998 71.0365-28.4998C75.9316-28.4998 79.1954-25.25 79.1954-20.0501C79.1954-13.55 73.9737-7.04997 71.0365-3.7997C67.7726-7.37476 62.8776-13.8748 62.8776-20.0501ZM84.0905-46.0499C84.0905-44.4249 82.4588-42.7999 80.8271-42.7999C80.1743-42.7999 80.1743-42.7999 78.8688-43.4499C77.5637-43.7749 75.2788-44.75 72.9943-44.75C72.3416-44.75 71.3626-44.75 70.3837-44.75C69.731-45.0749 69.731-45.7249 69.731-45.7249L69.731-46.0499C69.731-46.0499 69.4043-46.0499 69.0782-46.0499C68.752-46.0499 68.4254-45.7249 68.0993-46.0499C67.7726-46.3749 67.4465-46.3749 66.7937-46.0499C66.1409-45.7249 65.8148-46.0499 65.8148-46.6999C65.8148-47.025 65.4882-47.3499 65.4882-47.675C66.1409-47.9999 67.1199-48.3249 67.7726-48.6499L68.0993-48.6499C68.752-48.6499 69.4043-48.3249 69.731-48.3249C70.0571-48.3249 70.3837-48.3249 70.7099-48.3249C71.0365-48.3249 71.3626-48.9749 71.0365-49.3C71.0365-49.3 70.7099-49.6249 70.3837-49.6249C70.0571-49.6249 69.731-49.95 69.4043-49.95C69.0782-49.95 69.0782-50.2749 69.0782-50.6C69.731-50.9249 69.731-51.2499 69.731-51.5749C69.4043-51.2499 68.752-51.2499 68.4254-50.9249C68.752-50.6 68.752-50.6 69.0782-50.6C68.752-50.6 68.4254-50.2749 68.4254-50.2749C68.0993-50.2749 68.0993-50.2749 67.7726-50.6C67.7726-51.2499 67.1199-51.2499 66.7937-50.9249C66.4671-50.6 66.1409-50.2749 66.1409-49.95C65.8148-49.6249 65.8148-48.9749 66.1409-48.6499C65.4882-48.3249 64.5093-48.6499 63.8565-47.9999C63.8565-47.675 64.1826-47.3499 64.1826-47.025C64.1826-46.6999 64.1826-46.3749 63.8565-46.3749C63.5299-46.3749 63.5299-46.6999 63.2037-46.6999C63.2037-46.6999 63.2037-47.025 63.2037-47.3499L62.8776-47.3499C62.5509-47.3499 62.2248-47.675 62.2248-47.9999C62.2248-48.6499 61.8982-49.3 60.9192-49.3C60.5926-49.6249 59.9403-49.6249 59.6137-50.2749C59.6137-50.6 59.2876-50.2749 59.2876-50.2749C59.6137-50.2749 59.6137-49.95 59.9403-49.95C60.2665-49.6249 60.9192-48.9749 61.2454-48.6499C61.572-48.3249 61.2454-47.9999 60.9192-47.675C60.5926-47.3499 59.6137-47.675 59.6137-47.9999C59.2876-48.3249 59.6137-48.6499 59.9403-48.9749C59.6137-49.3 58.9609-49.6249 58.6348-49.95L58.3082-49.95C57.6554-49.6249 57.0031-49.6249 56.3503-49.6249L56.0237-49.3C56.0237-48.9749 56.0237-48.9749 55.6976-48.6499C55.3709-48.6499 55.0448-48.3249 55.0448-48.3249C54.392-47.9999 54.392-47.9999 54.392-47.675C54.392-47.3499 54.392-47.3499 54.392-47.025C54.0659-46.6999 53.7392-46.6999 53.4131-46.3749C52.7603-46.3749 52.1075-46.3749 51.4548-46.3749C50.4759-46.3749 50.4759-46.6999 50.802-47.675C50.802-48.3249 51.1286-48.6499 51.1286-49.3C51.1286-49.3 51.1286-49.6249 51.4548-49.6249C51.7809-49.6249 51.7809-49.6249 52.1075-49.6249C52.4337-49.6249 53.0865-49.3 53.4131-49.3C54.0659-49.3 54.392-49.6249 54.392-50.2749C54.392-50.9249 54.0659-51.5749 53.0865-51.8999C53.4131-51.8999 53.7392-52.225 54.0659-52.225C54.7182-52.225 55.3709-52.5499 55.6976-52.875C56.0237-53.1999 56.3503-53.525 56.6765-53.8499C57.0031-54.1749 57.3292-54.5 57.982-54.5C58.3082-54.5 58.3082-54.5 58.3082-54.8249C58.3082-55.15 58.3082-55.15 57.982-55.4749C57.982-55.8 57.982-56.1249 58.6348-56.1249C58.9609-56.1249 59.2876-55.8 58.9609-55.4749L58.9609-55.15C58.9609-55.15 58.9609-54.8249 59.2876-54.8249C59.6137-54.8249 60.2665-54.8249 60.5926-54.5L60.9192-54.5C61.2454-54.5 61.572-54.8249 62.2248-54.8249C62.8776-54.8249 63.2037-55.15 63.2037-55.8C63.2037-56.1249 63.2037-56.1249 63.5299-56.1249L63.8565-56.1249L64.1826-56.1249L64.1826-56.45C64.1826-56.45 64.1826-56.775 63.8565-56.775C64.1826-56.775 64.5093-56.775 64.8354-57.0999C65.162-57.0999 65.4882-57.425 65.8148-57.425L65.4882-57.425C64.8354-57.425 64.5093-57.425 63.8565-57.425C63.5299-57.425 63.2037-57.425 62.8776-57.7499C62.5509-58.075 62.8776-58.3999 63.2037-58.725C63.2037-59.05 63.2037-59.375 63.2037-59.7L63.2037-60.0249L62.8776-60.0249C62.5509-60.0249 62.5509-59.7 62.5509-59.7C62.2248-59.375 61.8982-59.05 61.572-59.05C61.2454-59.05 61.2454-58.725 61.2454-58.3999L61.572-58.075C61.8982-57.7499 61.8982-57.425 61.572-57.425C61.2454-57.425 61.2454-57.0999 60.9192-56.775C60.9192-56.45 60.5926-56.45 60.5926-56.1249C60.5926-55.8 60.2665-55.8 59.9403-55.8C59.6137-55.8 59.6137-56.1249 59.2876-56.45C58.9609-57.425 58.9609-57.425 58.3082-56.775C57.982-56.775 57.6554-56.45 57.3292-56.775C56.6765-57.425 57.0031-58.075 57.6554-58.3999C58.6348-59.05 59.6137-59.7 60.5926-60.6749C61.8982-61.975 63.5299-62.3 65.162-61.975L65.4882-61.975C65.162-62.3 64.8354-62.3 64.8354-62.625C63.8565-63.275 62.8776-63.5999 61.8982-64.25C61.572-64.25 61.572-64.25 61.2454-64.25C60.5926-63.5999 59.9403-63.5999 59.6137-64.25C59.6137-64.575 59.2876-64.575 59.2876-64.575C59.2876-64.575 58.9609-64.575 58.9609-64.9C58.9609-65.225 58.6348-65.225 58.6348-65.225C56.0237-66.2 53.4131-66.85 50.802-67.175C45.9067-67.825 41.3377-67.175 36.7686-65.8749C35.4632-65.55 34.1578-64.9 33.1787-64.575C32.8523-64.25 32.526-64.25 32.1996-63.925L32.1996-63.5999C31.8733-63.5999 31.5469-63.275 31.2205-63.275C30.8941-63.275 30.8941-63.275 30.5678-63.275C29.2624-62.3 27.9569-61.65 26.6515-60.35C26.6515-60.35 26.3251-60.35 26.3251-60.0249C26.3251-60.0249 25.9988-59.7 25.6724-59.7C25.3461-59.375 24.6933-58.725 24.367-58.3999C25.0197-58.3999 25.6724-58.3999 25.9988-59.05C26.3251-59.05 26.3251-59.375 25.9988-59.375C25.9988-59.375 25.9988-59.375 25.9988-59.7C26.9778-60.0249 26.9778-60.0249 27.3042-60.0249C27.3042-59.7 26.9778-59.375 27.3042-59.375C27.3042-59.375 27.6306-59.375 27.9569-59.05C27.6306-59.05 27.3042-58.725 27.3042-58.3999C27.3042-58.075 26.9778-58.075 26.6515-57.7499C26.6515-57.7499 26.3251-57.7499 25.9988-57.7499C26.3251-57.425 26.3251-57.0999 25.9988-57.0999C25.6724-57.0999 25.3461-57.0999 25.0197-56.775C25.0197-56.775 24.6933-56.775 24.6933-56.45C24.6933-56.1249 24.367-56.1249 24.0406-55.8C23.7143-56.1249 23.0616-55.8 22.7352-55.4749C22.4088-55.4749 22.0824-55.15 22.0824-54.8249C21.7561-54.5 21.7561-54.1749 22.0824-53.8499C22.4088-53.8499 22.4088-53.525 22.7352-53.525C23.3879-53.525 24.0406-53.1999 24.367-53.1999C24.367-52.875 24.367-52.5499 24.367-52.225C24.367-52.225 24.367-51.8999 24.6933-51.8999C24.6933-51.8999 25.0197-51.8999 25.3461-51.8999C25.3461-51.8999 25.6724-52.225 25.6724-52.5499C25.9988-53.1999 26.3251-53.525 26.6515-53.525C26.9778-53.525 27.3042-53.8499 27.6306-54.1749C27.6306-54.1749 27.9569-54.5 27.9569-54.8249C27.9569-55.15 27.9569-55.4749 28.2833-55.4749C28.6096-55.8 28.6096-56.1249 28.936-56.1249C28.936-57.0999 29.5887-57.0999 30.5678-56.775C31.2205-56.45 31.2205-56.1249 30.8941-55.8C30.8941-55.4749 30.8941-55.4749 31.2205-55.4749C31.5469-55.4749 31.8733-55.4749 31.8733-55.8C32.1996-56.1249 32.526-56.1249 32.8523-56.45C32.8523-55.4749 33.1787-54.5 33.1787-53.8499C33.1787-53.8499 33.505-53.8499 33.8314-53.8499C33.8314-53.8499 34.1578-53.8499 34.1578-53.525L34.1578-53.1999C34.1578-53.1999 34.1578-53.1999 33.8314-52.875C32.8523-52.5499 31.8733-51.8999 30.8941-51.8999C30.2415-51.8999 29.2624-51.5749 28.6096-51.2499C28.2833-51.2499 27.9569-50.9249 27.6306-50.9249C27.6306-50.9249 27.6306-50.9249 27.6306-50.6C27.9569-50.6 28.2833-50.9249 28.6096-50.9249C28.936-51.2499 29.2624-51.2499 29.5887-51.2499C29.5887-50.9249 29.2624-50.6 29.2624-50.2749C29.5887-49.6249 30.2415-49.95 30.5678-49.95C29.9151-49.3 28.936-48.9749 28.2833-48.9749C28.6096-49.3 28.936-49.3 29.2624-49.6249C28.2833-49.6249 27.3042-49.3 26.6515-48.6499L26.3251-48.3249C26.3251-47.9999 25.9988-47.675 25.6724-47.675C24.367-47.3499 23.7143-46.6999 23.0616-46.0499C23.0616-46.0499 22.7352-46.0499 22.7352-46.3749C22.7352-46.0499 22.7352-45.7249 22.7352-45.7249C22.7352-45.3999 22.4088-44.75 22.0824-44.75C21.4298-44.0999 21.1034-44.0999 20.777-43.7749C20.4507-43.4499 19.7979-43.4499 19.4716-43.1249C19.1452-42.7999 19.1452-42.1499 18.8189-42.1499C18.4925-41.8249 18.1661-41.8249 17.8398-42.1499C17.5134-42.1499 17.1871-42.4749 17.1871-42.4749C16.8607-42.4749 16.5344-42.4749 16.208-42.1499C15.8816-41.8249 15.5553-41.8249 14.9026-41.8249C14.5762-40.5249 14.5762-39.5499 14.2499-38.2499C14.5762-38.5749 14.9026-38.5749 15.5553-38.2499C15.2289-37.5999 14.9026-36.9499 14.5762-35.9749C14.9026-35.9749 15.2289-35.9749 15.5553-35.9749C15.8816-35.9749 16.208-35.9749 16.208-35.9749C16.8607-35.9749 16.8607-35.6499 16.8607-35.3249C16.8607-34.9999 16.5344-34.6751 16.5344-34.3499C16.5344-34.0251 16.5344-34.0251 16.5344-33.6998L16.208-33.375L15.8816-33.6998C15.5553-34.0251 15.5553-34.3499 15.5553-34.6751C14.9026-34.9999 14.5762-34.9999 14.2499-34.9999C14.2499-26.2249 17.8398-18.0999 23.7143-12.2499C24.367-11.5999 25.3461-10.9498 25.9988-10.2998C25.9988-10.2998 25.9988-10.625 25.6724-10.625C24.6933-11.5999 24.6933-12.5747 24.367-13.8748C24.367-15.4997 24.0406-17.4499 23.7143-19.0748C23.3879-20.3749 22.7352-21.3497 21.4297-21.9998C20.777-22.325 20.4507-22.325 20.4507-22.9751C20.4507-23.2999 20.1243-23.2999 20.1243-23.6247C19.4716-24.6 18.4925-25.9001 17.8398-26.8749C17.5134-27.1997 17.5134-27.525 17.8398-27.8498C17.8398-27.8498 17.8398-27.8498 18.1661-28.1751C17.8398-28.8251 17.8398-28.8251 18.1661-29.4747C18.1661-29.8 18.4925-29.8 18.4925-30.1247C18.8189-30.45 18.8189-30.7748 19.1452-31.1001C19.4716-31.7501 19.4716-32.0749 19.1452-32.725L19.1452-33.0497C18.8189-33.0497 18.4925-33.375 18.1661-33.375C18.8189-33.375 19.1452-33.375 19.4716-33.0497C19.7979-33.6998 21.4298-34.9999 22.0824-34.9999C22.0824-34.6751 22.0824-34.6751 22.0824-34.3499L22.0824-34.0251C22.7352-34.9999 22.7352-34.9999 23.7143-34.6751C24.6933-34.3499 25.3461-34.0251 26.3251-34.3499L26.6515-34.3499C26.6515-34.0251 26.6515-34.0251 26.6515-34.0251C26.9778-33.6998 27.3042-33.375 27.6306-33.0497C27.9569-32.3997 28.6096-32.0749 29.2624-32.0749C29.5887-32.0749 29.9151-32.0749 30.2415-32.0749C30.8941-32.0749 31.2205-31.7501 31.2205-31.1001C31.2205-30.7748 31.2205-30.1247 31.5469-29.8C31.8733-29.8 32.1996-29.8 32.526-29.1499C33.505-29.4747 34.1578-29.1499 34.1578-28.4998C34.8105-28.4998 35.1368-28.4998 35.7895-28.4998C36.4423-28.4998 36.7686-28.1751 37.095-27.8498C37.4213-27.525 37.7477-27.1997 38.0741-27.1997C38.7268-26.8749 39.0532-26.5497 38.7268-25.9001C38.4004-25.25 38.0741-24.2747 37.4213-23.6247C37.095-22.6498 37.095-22.325 37.095-21.9998C37.095-21.3497 37.095-21.0249 37.095-20.3749C37.095-19.7248 36.7686-19.0748 36.4423-18.4247C36.1159-18.0999 36.1159-18.0999 35.4632-18.0999C35.1368-18.0999 35.1368-18.0999 34.8105-18.0999C34.4841-17.7747 34.1578-17.7747 33.505-17.4499C33.1787-17.4499 33.1787-17.1251 33.505-16.7998C33.8314-16.475 33.505-16.1498 33.505-15.825C33.505-15.4997 33.1787-15.1749 33.1787-15.1749C33.1787-14.8497 33.1787-14.5249 33.1787-14.5249C32.8523-14.2001 32.8523-13.8748 32.526-13.55C32.1996-12.9 31.8733-12.9 31.2205-13.2248C30.8941-13.2248 30.8941-13.55 30.5678-13.55L30.8941-13.2248C31.2205-12.9 31.2205-12.9 31.5469-12.5747C31.8733-11.9247 31.5469-11.5999 30.8941-11.5999C30.5678-11.5999 30.5678-11.5999 30.2415-11.5999C29.9151-11.5999 29.9151-11.5999 29.9151-10.9498L29.9151-10.625L29.9151-10.2998L29.5887-10.2998C29.5887-10.2998 29.2624-10.2998 29.2624-10.625C29.2624-10.2998 29.5887-10.2998 29.5887-9.97497C29.9151-9.64971 29.9151-9.64971 29.5887-9.32492C29.5887-8.99966 29.2624-8.99966 29.2624-8.67486L29.2624-8.35007C29.5887-8.02481 29.9151-7.70002 30.2415-7.37476C33.8314-5.09981 38.0741-3.7997 42.3167-3.14965C45.254-2.82485 47.8648-2.82485 50.802-3.14965C53.0865-3.47491 54.7182-1.85001 55.0448 0.10015C55.0448 1.72505 53.7392 3.02515 52.1075 3.34995C50.1492 3.67521 48.5175 4 46.8859 4C25.3461 4 7.72266-13.55 7.72266-34.9999C7.72266-56.45 25.3461-74 46.8859-74C64.1826-74 78.5427-62.9499 83.7643-47.675C84.0905-47.025 84.0905-46.3749 84.0905-46.0499ZM21.4297-49.95C21.4297-50.2749 21.1034-50.6 20.777-50.6C20.1243-50.6 19.4716-49.95 18.8189-49.6249C19.4716-49.6249 20.1243-49.6249 20.777-49.6249C20.777-49.6249 20.777-49.6249 20.4507-49.6249C20.1243-48.9749 19.4716-48.6499 19.1452-47.9999C19.1452-47.9999 19.1452-47.675 19.1452-47.3499C19.4716-47.3499 19.4716-47.3499 19.7979-47.675L20.1243-47.9999C20.4507-48.3249 20.4507-48.6499 20.777-48.6499C21.1034-48.9749 21.4298-48.9749 21.7561-48.6499C21.7561-48.6499 21.7561-48.3249 21.4297-48.3249L21.4297-47.9999L21.7561-47.9999C21.7561-47.9999 22.0824-47.9999 22.0824-48.3249C22.4088-48.3249 22.4088-48.6499 22.7352-48.6499L23.0616-48.9749L22.7352-48.9749C21.4297-49.3 21.4297-49.3 21.4297-49.95ZM67.7726-59.375L68.0993-59.375C67.7726-59.7 67.4465-60.0249 67.1199-60.35C66.7937-60.6749 66.4671-60.6749 65.8148-60.6749C65.8148-60.6749 66.1409-60.6749 66.4671-60.6749C66.1409-60.6749 66.1409-61 65.8148-61C65.8148-60.6749 65.8148-60.6749 65.8148-60.35C65.8148-60.0249 66.1409-59.7 66.4671-59.375C66.7937-59.375 67.1199-59.05 67.7726-59.375C67.7726-59.05 68.0993-59.05 67.7726-59.375ZM76.5843-47.3499C76.5843-47.675 76.2582-47.675 75.9316-47.9999C76.2582-47.9999 76.2582-47.9999 76.5843-47.9999C76.5843-47.9999 76.5843-48.3249 76.2582-48.3249C76.2582-48.3249 75.9316-48.3249 75.9316-48.6499C75.6054-48.9749 75.2788-48.9749 74.9526-49.3C74.9526-49.3 74.6265-49.6249 74.9526-49.95C74.9526-49.95 75.2788-50.2749 75.6054-50.2749C75.6054-50.2749 75.6054-50.2749 75.9316-50.2749C75.9316-50.6 75.6054-50.9249 75.6054-50.9249C75.2788-50.9249 75.2788-50.9249 74.6265-50.9249C74.2999-50.9249 74.2999-50.6 73.9737-50.6C73.6471-50.2749 73.6471-49.95 73.9737-49.6249C74.2999-49.3 74.6265-48.6499 75.2788-48.3249C75.6054-47.9999 75.6054-47.675 75.2788-47.3499C74.9526-47.025 74.9526-46.6999 75.2788-46.6999C75.6054-46.3749 75.9316-46.3749 76.5843-46.3749C76.911-46.3749 77.2371-46.3749 77.2371-46.6999C77.2371-47.025 76.911-47.025 76.5843-47.3499Z"/>
  </g>
 </g>
</svg>
