<svg width="376" height="118" viewBox="0 0 376 118" fill="none" xmlns="http://www.w3.org/2000/svg">
<g clip-path="url(#clip0_539_29934)">
<rect width="376" height="118" rx="8" fill="#EAEAEA"/>
<rect x="57.3486" y="21.3486" width="261.418" height="144.303" rx="2.4399" fill="white"/>
<g clip-path="url(#clip1_539_29934)">
<rect x="70.9424" y="32.1543" width="66.9231" height="22.3077" rx="2.10402" fill="#F8F9FA"/>
<path d="M92.7111 41.7122V40.6331H94.7271V46.7314H93.5225V41.7122H92.7111ZM96.5366 46.79C96.3247 46.79 96.149 46.7259 96.0096 46.5976C95.8757 46.4638 95.8088 46.2992 95.8088 46.104C95.8088 45.9088 95.8757 45.7471 96.0096 45.6188C96.149 45.485 96.3247 45.4181 96.5366 45.4181C96.7429 45.4181 96.913 45.485 97.0469 45.6188C97.1807 45.7471 97.2477 45.9088 97.2477 46.104C97.2477 46.2992 97.1807 46.4638 97.0469 46.5976C96.913 46.7259 96.7429 46.79 96.5366 46.79ZM104.275 46.7314L102.151 44.1298V46.7314H100.979V40.8924H102.151V43.5108L104.275 40.8924H105.689L103.28 43.7868L105.756 46.7314H104.275ZM110.835 44.3138C110.835 44.4812 110.823 44.6317 110.801 44.7656H107.413C107.441 45.1002 107.558 45.3623 107.764 45.5519C107.971 45.7415 108.225 45.8363 108.526 45.8363C108.961 45.8363 109.27 45.6495 109.454 45.2759H110.717C110.584 45.722 110.327 46.0901 109.948 46.3801C109.569 46.6645 109.103 46.8067 108.551 46.8067C108.105 46.8067 107.703 46.7091 107.346 46.5139C106.995 46.3132 106.719 46.0315 106.518 45.669C106.323 45.3065 106.225 44.8883 106.225 44.4142C106.225 43.9346 106.323 43.5136 106.518 43.1511C106.713 42.7886 106.986 42.5097 107.338 42.3145C107.689 42.1193 108.094 42.0217 108.551 42.0217C108.991 42.0217 109.385 42.1165 109.73 42.3062C110.082 42.4958 110.352 42.7663 110.542 43.1176C110.737 43.4634 110.835 43.8621 110.835 44.3138ZM109.622 43.9792C109.616 43.6781 109.507 43.4383 109.295 43.2598C109.083 43.0758 108.824 42.9838 108.517 42.9838C108.227 42.9838 107.982 43.073 107.781 43.2514C107.586 43.4243 107.466 43.6669 107.421 43.9792H109.622ZM115.998 44.3138C115.998 44.4812 115.986 44.6317 115.964 44.7656H112.576C112.604 45.1002 112.721 45.3623 112.927 45.5519C113.134 45.7415 113.388 45.8363 113.689 45.8363C114.124 45.8363 114.433 45.6495 114.617 45.2759H115.88C115.747 45.722 115.49 46.0901 115.111 46.3801C114.732 46.6645 114.266 46.8067 113.714 46.8067C113.268 46.8067 112.866 46.7091 112.509 46.5139C112.158 46.3132 111.882 46.0315 111.681 45.669C111.486 45.3065 111.388 44.8883 111.388 44.4142C111.388 43.9346 111.486 43.5136 111.681 43.1511C111.876 42.7886 112.149 42.5097 112.501 42.3145C112.852 42.1193 113.257 42.0217 113.714 42.0217C114.154 42.0217 114.548 42.1165 114.893 42.3062C115.245 42.4958 115.515 42.7663 115.705 43.1176C115.9 43.4634 115.998 43.8621 115.998 44.3138ZM114.785 43.9792C114.779 43.6781 114.67 43.4383 114.458 43.2598C114.246 43.0758 113.987 42.9838 113.68 42.9838C113.39 42.9838 113.145 43.073 112.944 43.2514C112.749 43.4243 112.629 43.6669 112.584 43.9792H114.785ZM118.024 42.7663C118.174 42.5543 118.38 42.3787 118.643 42.2392C118.91 42.0942 119.214 42.0217 119.554 42.0217C119.95 42.0217 120.307 42.1193 120.625 42.3145C120.949 42.5097 121.202 42.7886 121.386 43.1511C121.576 43.508 121.671 43.9235 121.671 44.3975C121.671 44.8715 121.576 45.2926 121.386 45.6607C121.202 46.0232 120.949 46.3048 120.625 46.5056C120.307 46.7063 119.95 46.8067 119.554 46.8067C119.214 46.8067 118.913 46.737 118.651 46.5976C118.394 46.4582 118.185 46.2825 118.024 46.0706V48.9399H116.852V42.097H118.024V42.7663ZM120.475 44.3975C120.475 44.1187 120.416 43.8788 120.299 43.6781C120.187 43.4717 120.037 43.3156 119.847 43.2096C119.663 43.1037 119.462 43.0507 119.245 43.0507C119.033 43.0507 118.832 43.1064 118.643 43.218C118.459 43.3239 118.308 43.4801 118.191 43.6864C118.079 43.8928 118.024 44.1354 118.024 44.4142C118.024 44.6931 118.079 44.9357 118.191 45.142C118.308 45.3484 118.459 45.5073 118.643 45.6188C118.832 45.7248 119.033 45.7778 119.245 45.7778C119.462 45.7778 119.663 45.722 119.847 45.6105C120.037 45.4989 120.187 45.34 120.299 45.1337C120.416 44.9273 120.475 44.6819 120.475 44.3975Z" fill="#212529"/>
</g>
<g clip-path="url(#clip2_539_29934)">
<rect x="154.597" y="32.1543" width="66.9231" height="22.3077" rx="2.10402" fill="#F8F9FA"/>
<path d="M174.675 45.4097C175.21 44.9636 175.637 44.5927 175.954 44.2971C176.272 43.996 176.537 43.6837 176.749 43.3602C176.961 43.0367 177.067 42.7188 177.067 42.4065C177.067 42.1221 177 41.899 176.866 41.7373C176.732 41.5756 176.526 41.4947 176.247 41.4947C175.968 41.4947 175.754 41.5895 175.603 41.7791C175.453 41.9632 175.374 42.2169 175.369 42.5404H174.231C174.254 41.8712 174.452 41.3637 174.825 41.0179C175.204 40.6721 175.684 40.4992 176.264 40.4992C176.9 40.4992 177.388 40.6693 177.728 41.0095C178.068 41.3441 178.238 41.7875 178.238 42.3396C178.238 42.7746 178.121 43.1901 177.887 43.5861C177.653 43.982 177.385 44.3278 177.084 44.6234C176.783 44.9134 176.389 45.2647 175.904 45.6774H178.372V46.6478H174.24V45.7778L174.675 45.4097ZM179.763 46.79C179.551 46.79 179.375 46.7259 179.236 46.5976C179.102 46.4638 179.035 46.2992 179.035 46.104C179.035 45.9088 179.102 45.7471 179.236 45.6188C179.375 45.485 179.551 45.4181 179.763 45.4181C179.969 45.4181 180.139 45.485 180.273 45.6188C180.407 45.7471 180.474 45.9088 180.474 46.104C180.474 46.2992 180.407 46.4638 180.273 46.5976C180.139 46.7259 179.969 46.79 179.763 46.79ZM188.053 40.8924L186.079 44.6987V46.7314H184.908V44.6987L182.925 40.8924H184.247L185.502 43.561L186.748 40.8924H188.053ZM190.786 46.8067C190.34 46.8067 189.939 46.7091 189.582 46.5139C189.225 46.3132 188.943 46.0315 188.737 45.669C188.536 45.3065 188.436 44.8883 188.436 44.4142C188.436 43.9402 188.539 43.5219 188.745 43.1594C188.957 42.7969 189.244 42.5181 189.607 42.3229C189.969 42.1221 190.374 42.0217 190.82 42.0217C191.266 42.0217 191.67 42.1221 192.033 42.3229C192.395 42.5181 192.68 42.7969 192.886 43.1594C193.098 43.5219 193.204 43.9402 193.204 44.4142C193.204 44.8883 193.095 45.3065 192.878 45.669C192.666 46.0315 192.376 46.3132 192.008 46.5139C191.645 46.7091 191.238 46.8067 190.786 46.8067ZM190.786 45.7862C190.998 45.7862 191.196 45.736 191.38 45.6356C191.57 45.5296 191.721 45.3735 191.832 45.1671C191.944 44.9608 191.999 44.7098 191.999 44.4142C191.999 43.9737 191.882 43.6363 191.648 43.402C191.419 43.1622 191.138 43.0423 190.803 43.0423C190.468 43.0423 190.187 43.1622 189.958 43.402C189.735 43.6363 189.624 43.9737 189.624 44.4142C189.624 44.8548 189.732 45.195 189.95 45.4348C190.173 45.669 190.452 45.7862 190.786 45.7862ZM198.438 42.097V46.7314H197.259V46.1459C197.108 46.3466 196.91 46.5056 196.665 46.6227C196.425 46.7342 196.163 46.79 195.878 46.79C195.516 46.79 195.195 46.7147 194.916 46.5641C194.637 46.408 194.417 46.1821 194.255 45.8865C194.099 45.5854 194.021 45.2285 194.021 44.8158V42.097H195.192V44.6485C195.192 45.0165 195.284 45.301 195.468 45.5017C195.652 45.6969 195.903 45.7945 196.221 45.7945C196.545 45.7945 196.799 45.6969 196.983 45.5017C197.167 45.301 197.259 45.0165 197.259 44.6485V42.097H198.438ZM200.765 42.8164C200.915 42.5711 201.111 42.3787 201.35 42.2392C201.596 42.0998 201.875 42.0301 202.187 42.0301V43.2598H201.877C201.509 43.2598 201.231 43.3463 201.041 43.5191C200.857 43.692 200.765 43.9932 200.765 44.4226V46.7314H199.594V42.097H200.765V42.8164Z" fill="#212529"/>
</g>
<g clip-path="url(#clip3_539_29934)">
<rect x="238.25" y="32.1543" width="66.9231" height="22.3077" rx="2.10402" fill="#F8F9FA"/>
<path d="M248.207 42.2392C248.234 41.6815 248.43 41.2521 248.792 40.951C249.16 40.6442 249.643 40.4909 250.239 40.4909C250.646 40.4909 250.995 40.5634 251.285 40.7084C251.575 40.8478 251.792 41.0402 251.937 41.2856C252.088 41.5254 252.163 41.7987 252.163 42.1054C252.163 42.4567 252.071 42.7551 251.887 43.0005C251.709 43.2403 251.494 43.402 251.243 43.4857V43.5191C251.567 43.6195 251.818 43.798 251.996 44.0545C252.18 44.3111 252.272 44.6401 252.272 45.0416C252.272 45.3763 252.194 45.6746 252.038 45.9367C251.887 46.1988 251.661 46.4052 251.36 46.5558C251.065 46.7008 250.708 46.7733 250.289 46.7733C249.659 46.7733 249.146 46.6143 248.75 46.2964C248.354 45.9786 248.145 45.5101 248.123 44.8911H249.261C249.272 45.1643 249.364 45.3846 249.537 45.5519C249.715 45.7137 249.958 45.7945 250.264 45.7945C250.549 45.7945 250.766 45.7164 250.917 45.5603C251.073 45.3986 251.151 45.1922 251.151 44.9413C251.151 44.6066 251.045 44.3668 250.833 44.2218C250.621 44.0768 250.292 44.0043 249.846 44.0043H249.604V43.0423H249.846C250.638 43.0423 251.034 42.7774 251.034 42.2476C251.034 42.0078 250.962 41.821 250.817 41.6871C250.677 41.5533 250.474 41.4863 250.206 41.4863C249.944 41.4863 249.74 41.5588 249.595 41.7038C249.456 41.8433 249.375 42.0217 249.353 42.2392H248.207ZM253.85 46.79C253.638 46.79 253.462 46.7259 253.323 46.5976C253.189 46.4638 253.122 46.2992 253.122 46.104C253.122 45.9088 253.189 45.7471 253.323 45.6188C253.462 45.485 253.638 45.4181 253.85 45.4181C254.056 45.4181 254.227 45.485 254.36 45.6188C254.494 45.7471 254.561 45.9088 254.561 46.104C254.561 46.2992 254.494 46.4638 254.36 46.5976C254.227 46.7259 254.056 46.79 253.85 46.79ZM260.509 46.7314L259.221 44.4561H258.669V46.7314H257.498V40.8924H259.69C260.141 40.8924 260.526 40.9733 260.844 41.135C261.162 41.2912 261.399 41.5059 261.555 41.7791C261.717 42.0468 261.798 42.348 261.798 42.6826C261.798 43.0674 261.686 43.416 261.463 43.7283C261.24 44.035 260.908 44.2469 260.467 44.364L261.865 46.7314H260.509ZM258.669 43.5777H259.648C259.966 43.5777 260.203 43.5024 260.359 43.3518C260.515 43.1957 260.593 42.981 260.593 42.7077C260.593 42.44 260.515 42.2337 260.359 42.0887C260.203 41.9381 259.966 41.8628 259.648 41.8628H258.669V43.5777ZM267.165 44.3138C267.165 44.4812 267.154 44.6317 267.132 44.7656H263.744C263.771 45.1002 263.889 45.3623 264.095 45.5519C264.301 45.7415 264.555 45.8363 264.856 45.8363C265.291 45.8363 265.601 45.6495 265.785 45.2759H267.048C266.914 45.722 266.658 46.0901 266.278 46.3801C265.899 46.6645 265.433 46.8067 264.881 46.8067C264.435 46.8067 264.034 46.7091 263.677 46.5139C263.325 46.3132 263.049 46.0315 262.848 45.669C262.653 45.3065 262.556 44.8883 262.556 44.4142C262.556 43.9346 262.653 43.5136 262.848 43.1511C263.044 42.7886 263.317 42.5097 263.668 42.3145C264.02 42.1193 264.424 42.0217 264.881 42.0217C265.322 42.0217 265.715 42.1165 266.061 42.3062C266.412 42.4958 266.683 42.7663 266.872 43.1176C267.067 43.4634 267.165 43.8621 267.165 44.3138ZM265.952 43.9792C265.946 43.6781 265.838 43.4383 265.626 43.2598C265.414 43.0758 265.155 42.9838 264.848 42.9838C264.558 42.9838 264.312 43.073 264.112 43.2514C263.916 43.4243 263.797 43.6669 263.752 43.9792H265.952ZM267.719 44.4142C267.719 43.9346 267.816 43.5163 268.012 43.1594C268.207 42.7969 268.477 42.5181 268.823 42.3229C269.169 42.1221 269.565 42.0217 270.011 42.0217C270.585 42.0217 271.059 42.1667 271.433 42.4567C271.812 42.7412 272.066 43.1427 272.194 43.6613H270.931C270.864 43.4606 270.75 43.3044 270.588 43.1929C270.432 43.0758 270.237 43.0172 270.002 43.0172C269.668 43.0172 269.403 43.1399 269.208 43.3853C269.013 43.6251 268.915 43.9681 268.915 44.4142C268.915 44.8548 269.013 45.1978 269.208 45.4432C269.403 45.683 269.668 45.8029 270.002 45.8029C270.477 45.8029 270.786 45.591 270.931 45.1671H272.194C272.066 45.669 271.812 46.0678 271.433 46.3634C271.054 46.6589 270.58 46.8067 270.011 46.8067C269.565 46.8067 269.169 46.7091 268.823 46.5139C268.477 46.3132 268.207 46.0343 268.012 45.6774C267.816 45.3149 267.719 44.8938 267.719 44.4142ZM275.11 46.8067C274.664 46.8067 274.262 46.7091 273.905 46.5139C273.549 46.3132 273.267 46.0315 273.061 45.669C272.86 45.3065 272.759 44.8883 272.759 44.4142C272.759 43.9402 272.863 43.5219 273.069 43.1594C273.281 42.7969 273.568 42.5181 273.931 42.3229C274.293 42.1221 274.697 42.0217 275.144 42.0217C275.59 42.0217 275.994 42.1221 276.356 42.3229C276.719 42.5181 277.003 42.7969 277.21 43.1594C277.422 43.5219 277.528 43.9402 277.528 44.4142C277.528 44.8883 277.419 45.3065 277.201 45.669C276.989 46.0315 276.699 46.3132 276.331 46.5139C275.969 46.7091 275.562 46.8067 275.11 46.8067ZM275.11 45.7862C275.322 45.7862 275.52 45.736 275.704 45.6356C275.894 45.5296 276.044 45.3735 276.156 45.1671C276.267 44.9608 276.323 44.7098 276.323 44.4142C276.323 43.9737 276.206 43.6363 275.972 43.402C275.743 43.1622 275.461 43.0423 275.127 43.0423C274.792 43.0423 274.511 43.1622 274.282 43.402C274.059 43.6363 273.947 43.9737 273.947 44.4142C273.947 44.8548 274.056 45.195 274.274 45.4348C274.497 45.669 274.775 45.7862 275.11 45.7862ZM280.319 45.6523L281.49 42.097H282.737L281.022 46.7314H279.6L277.893 42.097H279.148L280.319 45.6523ZM287.703 44.3138C287.703 44.4812 287.692 44.6317 287.669 44.7656H284.281C284.309 45.1002 284.426 45.3623 284.633 45.5519C284.839 45.7415 285.093 45.8363 285.394 45.8363C285.829 45.8363 286.138 45.6495 286.322 45.2759H287.586C287.452 45.722 287.195 46.0901 286.816 46.3801C286.437 46.6645 285.971 46.8067 285.419 46.8067C284.973 46.8067 284.571 46.7091 284.214 46.5139C283.863 46.3132 283.587 46.0315 283.386 45.669C283.191 45.3065 283.093 44.8883 283.093 44.4142C283.093 43.9346 283.191 43.5136 283.386 43.1511C283.581 42.7886 283.855 42.5097 284.206 42.3145C284.557 42.1193 284.962 42.0217 285.419 42.0217C285.86 42.0217 286.253 42.1165 286.598 42.3062C286.95 42.4958 287.22 42.7663 287.41 43.1176C287.605 43.4634 287.703 43.8621 287.703 44.3138ZM286.49 43.9792C286.484 43.6781 286.375 43.4383 286.163 43.2598C285.952 43.0758 285.692 42.9838 285.385 42.9838C285.095 42.9838 284.85 43.073 284.649 43.2514C284.454 43.4243 284.334 43.6669 284.29 43.9792H286.49ZM289.729 42.8164C289.879 42.5711 290.074 42.3787 290.314 42.2392C290.56 42.0998 290.839 42.0301 291.151 42.0301V43.2598H290.841C290.473 43.2598 290.194 43.3463 290.005 43.5191C289.821 43.692 289.729 43.9932 289.729 44.4226V46.7314H288.558V42.097H289.729V42.8164ZM296.373 42.097L293.504 48.9232H292.258L293.261 46.6143L291.404 42.097H292.718L293.914 45.3344L295.127 42.097H296.373Z" fill="#212529"/>
</g>
<g clip-path="url(#clip4_539_29934)">
<rect x="70.9424" y="65.6162" width="66.9231" height="22.3077" rx="2.10402" fill="#F8F9FA"/>
<path d="M85.3383 79.0055V78.0853L88.0738 74.1703H89.4373V77.9849H90.1735V79.0055H89.4373V80.1934H88.2662V79.0055H85.3383ZM88.3415 75.4251L86.6266 77.9849H88.3415V75.4251ZM91.5716 80.2519C91.3597 80.2519 91.184 80.1878 91.0446 80.0595C90.9108 79.9257 90.8438 79.7611 90.8438 79.566C90.8438 79.3708 90.9108 79.209 91.0446 79.0808C91.184 78.9469 91.3597 78.88 91.5716 78.88C91.778 78.88 91.9481 78.9469 92.0819 79.0808C92.2158 79.209 92.2827 79.3708 92.2827 79.566C92.2827 79.7611 92.2158 79.9257 92.0819 80.0595C91.9481 80.1878 91.778 80.2519 91.5716 80.2519ZM99.4773 76.1612C99.4773 76.4736 99.402 76.7663 99.2514 77.0396C99.1064 77.3129 98.875 77.5332 98.5571 77.7005C98.2448 77.8678 97.8488 77.9514 97.3692 77.9514H96.3905V80.1934H95.2193V74.3543H97.3692C97.821 74.3543 98.2058 74.4324 98.5237 74.5886C98.8415 74.7447 99.0786 74.9594 99.2347 75.2327C99.3964 75.506 99.4773 75.8155 99.4773 76.1612ZM97.319 77.0061C97.6425 77.0061 97.8823 76.9336 98.0385 76.7886C98.1946 76.6381 98.2727 76.4289 98.2727 76.1612C98.2727 75.5924 97.9548 75.308 97.319 75.308H96.3905V77.0061H97.319ZM102.919 75.492C103.27 75.492 103.582 75.5701 103.856 75.7262C104.129 75.8768 104.341 76.1027 104.492 76.4038C104.648 76.6994 104.726 77.0563 104.726 77.4746V80.1934H103.555V77.6336C103.555 77.2655 103.463 76.9838 103.279 76.7886C103.094 76.5879 102.844 76.4875 102.526 76.4875C102.202 76.4875 101.946 76.5879 101.756 76.7886C101.572 76.9838 101.48 77.2655 101.48 77.6336V80.1934H100.309V74.003H101.48V76.1361C101.631 75.9354 101.831 75.7792 102.082 75.6677C102.333 75.5506 102.612 75.492 102.919 75.492ZM107.011 76.2784C107.161 76.033 107.356 75.8406 107.596 75.7011C107.842 75.5617 108.12 75.492 108.433 75.492V76.7217H108.123C107.755 76.7217 107.476 76.8082 107.287 76.9811C107.103 77.1539 107.011 77.4551 107.011 77.8845V80.1934H105.839V75.5589H107.011V76.2784ZM108.92 77.8594C108.92 77.391 109.012 76.9755 109.196 76.613C109.386 76.2505 109.64 75.9716 109.958 75.7764C110.281 75.5812 110.641 75.4836 111.037 75.4836C111.383 75.4836 111.684 75.5534 111.94 75.6928C112.202 75.8322 112.412 76.0079 112.568 76.2198V75.5589H113.747V80.1934H112.568V79.5158C112.417 79.7333 112.208 79.9145 111.94 80.0595C111.678 80.1989 111.374 80.2686 111.028 80.2686C110.638 80.2686 110.281 80.1683 109.958 79.9675C109.64 79.7667 109.386 79.4851 109.196 79.1226C109.012 78.7545 108.92 78.3335 108.92 77.8594ZM112.568 77.8761C112.568 77.5917 112.512 77.3491 112.4 77.1484C112.289 76.942 112.138 76.7859 111.949 76.6799C111.759 76.5684 111.555 76.5126 111.338 76.5126C111.12 76.5126 110.92 76.5656 110.736 76.6715C110.552 76.7775 110.401 76.9336 110.284 77.14C110.172 77.3408 110.117 77.5806 110.117 77.8594C110.117 78.1383 110.172 78.3836 110.284 78.5956C110.401 78.8019 110.552 78.9609 110.736 79.0724C110.925 79.1839 111.126 79.2397 111.338 79.2397C111.555 79.2397 111.759 79.1867 111.949 79.0808C112.138 78.9692 112.289 78.8131 112.4 78.6123C112.512 78.406 112.568 78.1606 112.568 77.8761ZM116.665 80.2686C116.285 80.2686 115.945 80.2017 115.644 80.0679C115.343 79.9285 115.103 79.7416 114.925 79.5074C114.752 79.2732 114.657 79.0138 114.64 78.7294H115.82C115.842 78.9079 115.928 79.0557 116.079 79.1728C116.235 79.2899 116.427 79.3485 116.656 79.3485C116.879 79.3485 117.052 79.3038 117.175 79.2146C117.303 79.1254 117.367 79.0111 117.367 78.8716C117.367 78.7211 117.289 78.6095 117.133 78.537C116.982 78.4589 116.74 78.3753 116.405 78.2861C116.059 78.2024 115.775 78.116 115.552 78.0267C115.334 77.9375 115.145 77.8009 114.983 77.6168C114.827 77.4328 114.749 77.1846 114.749 76.8723C114.749 76.6158 114.821 76.3815 114.966 76.1696C115.117 75.9577 115.329 75.7904 115.602 75.6677C115.881 75.545 116.207 75.4836 116.581 75.4836C117.133 75.4836 117.574 75.6231 117.903 75.9019C118.232 76.1752 118.413 76.5461 118.446 77.0145H117.325C117.309 76.8305 117.231 76.6855 117.091 76.5795C116.957 76.468 116.776 76.4122 116.547 76.4122C116.335 76.4122 116.171 76.4512 116.054 76.5293C115.942 76.6074 115.887 76.7161 115.887 76.8556C115.887 77.0117 115.965 77.1316 116.121 77.2153C116.277 77.2934 116.52 77.3742 116.849 77.4579C117.183 77.5415 117.459 77.628 117.677 77.7172C117.894 77.8064 118.081 77.9459 118.237 78.1355C118.399 78.3195 118.483 78.5649 118.488 78.8716C118.488 79.1393 118.413 79.3791 118.262 79.5911C118.117 79.803 117.905 79.9703 117.627 80.093C117.353 80.2101 117.033 80.2686 116.665 80.2686ZM123.758 77.7758C123.758 77.9431 123.747 78.0936 123.724 78.2275H120.336C120.364 78.5621 120.481 78.8242 120.688 79.0138C120.894 79.2035 121.148 79.2983 121.449 79.2983C121.884 79.2983 122.193 79.1114 122.377 78.7378H123.641C123.507 79.1839 123.25 79.552 122.871 79.842C122.492 80.1264 122.026 80.2686 121.474 80.2686C121.028 80.2686 120.626 80.1711 120.269 79.9759C119.918 79.7751 119.642 79.4935 119.441 79.131C119.246 78.7685 119.148 78.3502 119.148 77.8761C119.148 77.3965 119.246 76.9755 119.441 76.613C119.636 76.2505 119.91 75.9716 120.261 75.7764C120.612 75.5812 121.017 75.4836 121.474 75.4836C121.915 75.4836 122.308 75.5785 122.653 75.7681C123.005 75.9577 123.275 76.2282 123.465 76.5795C123.66 76.9253 123.758 77.324 123.758 77.7758ZM122.545 77.4411C122.539 77.14 122.43 76.9002 122.218 76.7217C122.007 76.5377 121.747 76.4457 121.44 76.4457C121.15 76.4457 120.905 76.5349 120.704 76.7134C120.509 76.8862 120.389 77.1288 120.345 77.4411H122.545Z" fill="#212529"/>
</g>
<g clip-path="url(#clip5_539_29934)">
<rect x="154.597" y="65.6162" width="66.9231" height="22.3077" rx="2.10402" fill="#F8F9FA"/>
<path d="M169.912 75.1072H167.201V76.5377C167.319 76.3927 167.486 76.2756 167.703 76.1863C167.921 76.0915 168.152 76.0441 168.398 76.0441C168.844 76.0441 169.209 76.1417 169.494 76.3369C169.778 76.5321 169.984 76.7831 170.113 77.0898C170.241 77.391 170.305 77.7144 170.305 78.0602C170.305 78.7015 170.121 79.2174 169.753 79.6078C169.39 79.9982 168.872 80.1934 168.197 80.1934C167.561 80.1934 167.054 80.0344 166.674 79.7165C166.295 79.3986 166.081 78.9832 166.03 78.4701H167.168C167.218 78.6932 167.33 78.8716 167.503 79.0055C167.681 79.1393 167.907 79.2062 168.18 79.2062C168.509 79.2062 168.757 79.1031 168.925 78.8967C169.092 78.6904 169.176 78.4171 169.176 78.0769C169.176 77.7311 169.089 77.469 168.916 77.2906C168.749 77.1065 168.501 77.0145 168.172 77.0145C167.938 77.0145 167.742 77.0731 167.586 77.1902C167.43 77.3073 167.319 77.4635 167.252 77.6586H166.131V74.0783H169.912V75.1072ZM171.849 80.2519C171.637 80.2519 171.461 80.1878 171.322 80.0595C171.188 79.9257 171.121 79.7611 171.121 79.566C171.121 79.3708 171.188 79.209 171.322 79.0808C171.461 78.9469 171.637 78.88 171.849 78.88C172.055 78.88 172.225 78.9469 172.359 79.0808C172.493 79.209 172.56 79.3708 172.56 79.566C172.56 79.7611 172.493 79.9257 172.359 80.0595C172.225 80.1878 172.055 80.2519 171.849 80.2519ZM177.513 80.2519C177.106 80.2519 176.737 80.1822 176.408 80.0428C176.085 79.9034 175.828 79.7026 175.639 79.4405C175.449 79.1784 175.352 78.8688 175.346 78.5119H176.601C176.618 78.7517 176.701 78.9413 176.852 79.0808C177.008 79.2202 177.22 79.2899 177.488 79.2899C177.761 79.2899 177.976 79.2258 178.132 79.0975C178.288 78.9636 178.366 78.7908 178.366 78.5788C178.366 78.406 178.313 78.2637 178.207 78.1522C178.101 78.0407 177.967 77.9542 177.805 77.8929C177.649 77.826 177.432 77.7535 177.153 77.6754C176.774 77.5638 176.464 77.4551 176.224 77.3491C175.99 77.2376 175.787 77.0731 175.614 76.8556C175.446 76.6325 175.363 76.3369 175.363 75.9688C175.363 75.6231 175.449 75.3219 175.622 75.0654C175.795 74.8088 176.038 74.6136 176.35 74.4798C176.662 74.3404 177.019 74.2707 177.421 74.2707C178.023 74.2707 178.511 74.4185 178.885 74.714C179.264 75.004 179.473 75.4111 179.512 75.9354H178.224C178.213 75.7346 178.126 75.5701 177.964 75.4418C177.808 75.308 177.599 75.2411 177.337 75.2411C177.108 75.2411 176.924 75.2996 176.785 75.4167C176.651 75.5338 176.584 75.7039 176.584 75.927C176.584 76.0832 176.634 76.2142 176.735 76.3202C176.841 76.4206 176.969 76.5042 177.119 76.5711C177.276 76.6325 177.493 76.705 177.772 76.7886C178.151 76.9002 178.461 77.0117 178.701 77.1233C178.94 77.2348 179.147 77.4021 179.32 77.6252C179.492 77.8483 179.579 78.1411 179.579 78.5036C179.579 78.8159 179.498 79.1059 179.336 79.3736C179.175 79.6412 178.938 79.856 178.625 80.0177C178.313 80.1738 177.942 80.2519 177.513 80.2519ZM184.902 77.7758C184.902 77.9431 184.891 78.0936 184.869 78.2275H181.481C181.509 78.5621 181.626 78.8242 181.832 79.0138C182.039 79.2035 182.292 79.2983 182.594 79.2983C183.029 79.2983 183.338 79.1114 183.522 78.7378H184.785C184.651 79.1839 184.395 79.552 184.016 79.842C183.636 80.1264 183.171 80.2686 182.619 80.2686C182.173 80.2686 181.771 80.1711 181.414 79.9759C181.063 79.7751 180.787 79.4935 180.586 79.131C180.391 78.7685 180.293 78.3502 180.293 77.8761C180.293 77.3965 180.391 76.9755 180.586 76.613C180.781 76.2505 181.054 75.9716 181.406 75.7764C181.757 75.5812 182.161 75.4836 182.619 75.4836C183.059 75.4836 183.452 75.5785 183.798 75.7681C184.15 75.9577 184.42 76.2282 184.61 76.5795C184.805 76.9253 184.902 77.324 184.902 77.7758ZM183.689 77.4411C183.684 77.14 183.575 76.9002 183.363 76.7217C183.151 76.5377 182.892 76.4457 182.585 76.4457C182.295 76.4457 182.05 76.5349 181.849 76.7134C181.654 76.8862 181.534 77.1288 181.489 77.4411H183.689ZM185.456 77.8761C185.456 77.3965 185.554 76.9783 185.749 76.6213C185.944 76.2588 186.215 75.98 186.56 75.7848C186.906 75.584 187.302 75.4836 187.748 75.4836C188.323 75.4836 188.797 75.6286 189.17 75.9186C189.55 76.2031 189.803 76.6046 189.932 77.1233H188.668C188.601 76.9225 188.487 76.7663 188.325 76.6548C188.169 76.5377 187.974 76.4791 187.74 76.4791C187.405 76.4791 187.14 76.6018 186.945 76.8472C186.75 77.087 186.652 77.43 186.652 77.8761C186.652 78.3167 186.75 78.6597 186.945 78.9051C187.14 79.1449 187.405 79.2648 187.74 79.2648C188.214 79.2648 188.523 79.0529 188.668 78.629H189.932C189.803 79.131 189.55 79.5297 189.17 79.8253C188.791 80.1209 188.317 80.2686 187.748 80.2686C187.302 80.2686 186.906 80.1711 186.56 79.9759C186.215 79.7751 185.944 79.4962 185.749 79.1393C185.554 78.7768 185.456 78.3558 185.456 77.8761ZM195.165 75.5589V80.1934H193.985V79.6078C193.835 79.8086 193.637 79.9675 193.391 80.0846C193.151 80.1961 192.889 80.2519 192.605 80.2519C192.242 80.2519 191.922 80.1766 191.643 80.0261C191.364 79.8699 191.144 79.644 190.982 79.3485C190.826 79.0473 190.748 78.6904 190.748 78.2777V75.5589H191.919V78.1104C191.919 78.4785 192.011 78.7629 192.195 78.9636C192.379 79.1588 192.63 79.2564 192.948 79.2564C193.271 79.2564 193.525 79.1588 193.709 78.9636C193.893 78.7629 193.985 78.4785 193.985 78.1104V75.5589H195.165ZM197.491 76.2784C197.642 76.033 197.837 75.8406 198.077 75.7011C198.322 75.5617 198.601 75.492 198.913 75.492V76.7217H198.604C198.236 76.7217 197.957 76.8082 197.767 76.9811C197.583 77.1539 197.491 77.4551 197.491 77.8845V80.1934H196.32V75.5589H197.491V76.2784ZM204.01 77.7758C204.01 77.9431 203.999 78.0936 203.977 78.2275H200.589C200.617 78.5621 200.734 78.8242 200.94 79.0138C201.147 79.2035 201.4 79.2983 201.702 79.2983C202.137 79.2983 202.446 79.1114 202.63 78.7378H203.893C203.76 79.1839 203.503 79.552 203.124 79.842C202.745 80.1264 202.279 80.2686 201.727 80.2686C201.281 80.2686 200.879 80.1711 200.522 79.9759C200.171 79.7751 199.895 79.4935 199.694 79.131C199.499 78.7685 199.401 78.3502 199.401 77.8761C199.401 77.3965 199.499 76.9755 199.694 76.613C199.889 76.2505 200.162 75.9716 200.514 75.7764C200.865 75.5812 201.269 75.4836 201.727 75.4836C202.167 75.4836 202.56 75.5785 202.906 75.7681C203.258 75.9577 203.528 76.2282 203.718 76.5795C203.913 76.9253 204.01 77.324 204.01 77.7758ZM202.797 77.4411C202.792 77.14 202.683 76.9002 202.471 76.7217C202.259 76.5377 202 76.4457 201.693 76.4457C201.403 76.4457 201.158 76.5349 200.957 76.7134C200.762 76.8862 200.642 77.1288 200.597 77.4411H202.797ZM206.036 74.003V80.1934H204.865V74.003H206.036ZM211.627 75.5589L208.758 82.3851H207.511L208.515 80.0762L206.658 75.5589H207.972L209.168 78.7963L210.381 75.5589H211.627Z" fill="#212529"/>
</g>
<g clip-path="url(#clip6_539_29934)">
<rect x="238.25" y="65.6162" width="66.9231" height="22.3077" rx="2.10402" fill="#F8F9FA"/>
<path d="M265.655 75.6175C265.599 75.3833 265.502 75.2076 265.362 75.0905C265.229 74.9734 265.033 74.9148 264.777 74.9148C264.392 74.9148 264.108 75.071 263.924 75.3833C263.745 75.69 263.653 76.1919 263.647 76.889C263.781 76.666 263.977 76.4931 264.233 76.3704C264.49 76.2421 264.768 76.178 265.07 76.178C265.432 76.178 265.753 76.2561 266.032 76.4122C266.31 76.5684 266.528 76.797 266.684 77.0982C266.84 77.3937 266.918 77.7507 266.918 78.1689C266.918 78.5649 266.837 78.919 266.676 79.2313C266.52 79.5381 266.288 79.7779 265.981 79.9508C265.675 80.1236 265.309 80.2101 264.886 80.2101C264.306 80.2101 263.848 80.0818 263.514 79.8253C263.185 79.5687 262.953 79.2118 262.819 78.7545C262.691 78.2916 262.627 77.7228 262.627 77.048C262.627 76.0274 262.803 75.2578 263.154 74.7391C263.505 74.2149 264.06 73.9528 264.819 73.9528C265.404 73.9528 265.859 74.1117 266.182 74.4296C266.506 74.7475 266.692 75.1435 266.743 75.6175H265.655ZM264.802 77.14C264.506 77.14 264.258 77.2264 264.057 77.3993C263.857 77.5722 263.756 77.8232 263.756 78.1522C263.756 78.4812 263.848 78.7406 264.032 78.9302C264.222 79.1198 264.487 79.2146 264.827 79.2146C265.128 79.2146 265.365 79.1226 265.538 78.9386C265.717 78.7545 265.806 78.5063 265.806 78.194C265.806 77.8706 265.719 77.614 265.546 77.4244C265.379 77.2348 265.131 77.14 264.802 77.14ZM268.496 80.2519C268.285 80.2519 268.109 80.1878 267.969 80.0595C267.836 79.9257 267.769 79.7611 267.769 79.566C267.769 79.3708 267.836 79.209 267.969 79.0808C268.109 78.9469 268.285 78.88 268.496 78.88C268.703 78.88 268.873 78.9469 269.007 79.0808C269.141 79.209 269.208 79.3708 269.208 79.566C269.208 79.7611 269.141 79.9257 269.007 80.0595C268.873 80.1878 268.703 80.2519 268.496 80.2519ZM276.118 74.3543V75.2996H274.562V80.1934H273.391V75.2996H271.835V74.3543H276.118ZM279.03 80.2686C278.584 80.2686 278.182 80.1711 277.826 79.9759C277.469 79.7751 277.187 79.4935 276.981 79.131C276.78 78.7685 276.679 78.3502 276.679 77.8761C276.679 77.4021 276.783 76.9838 276.989 76.6213C277.201 76.2588 277.488 75.98 277.851 75.7848C278.213 75.584 278.617 75.4836 279.064 75.4836C279.51 75.4836 279.914 75.584 280.277 75.7848C280.639 75.98 280.923 76.2588 281.13 76.6213C281.342 76.9838 281.448 77.4021 281.448 77.8761C281.448 78.3502 281.339 78.7685 281.121 79.131C280.91 79.4935 280.62 79.7751 280.251 79.9759C279.889 80.1711 279.482 80.2686 279.03 80.2686ZM279.03 79.2481C279.242 79.2481 279.44 79.1979 279.624 79.0975C279.814 78.9915 279.964 78.8354 280.076 78.629C280.187 78.4227 280.243 78.1717 280.243 77.8761C280.243 77.4356 280.126 77.0982 279.892 76.8639C279.663 76.6241 279.381 76.5042 279.047 76.5042C278.712 76.5042 278.431 76.6241 278.202 76.8639C277.979 77.0982 277.867 77.4356 277.867 77.8761C277.867 78.3167 277.976 78.6569 278.194 78.8967C278.417 79.131 278.696 79.2481 279.03 79.2481Z" fill="#212529"/>
</g>
<g clip-path="url(#clip7_539_29934)">
<rect x="70.9424" y="99.0771" width="66.9231" height="22.3077" rx="2.10402" fill="#F8F9FA"/>
<path d="M88.9856 108.443L86.7604 113.654H85.5725L87.8144 108.577H84.9535V107.573H88.9856V108.443ZM90.3395 113.713C90.1276 113.713 89.9519 113.649 89.8125 113.52C89.6787 113.387 89.6117 113.222 89.6117 113.027C89.6117 112.832 89.6787 112.67 89.8125 112.542C89.9519 112.408 90.1276 112.341 90.3395 112.341C90.5459 112.341 90.716 112.408 90.8498 112.542C90.9837 112.67 91.0506 112.832 91.0506 113.027C91.0506 113.222 90.9837 113.387 90.8498 113.52C90.716 113.649 90.5459 113.713 90.3395 113.713ZM98.2452 109.622C98.2452 109.934 98.1699 110.227 98.0193 110.501C97.8743 110.774 97.6429 110.994 97.325 111.161C97.0127 111.329 96.6167 111.412 96.1371 111.412H95.1584V113.654H93.9872V107.815H96.1371C96.5889 107.815 96.9737 107.893 97.2916 108.049C97.6094 108.206 97.8465 108.42 98.0026 108.694C98.1643 108.967 98.2452 109.276 98.2452 109.622ZM96.0869 110.467C96.4104 110.467 96.6502 110.395 96.8064 110.25C96.9625 110.099 97.0406 109.89 97.0406 109.622C97.0406 109.053 96.7227 108.769 96.0869 108.769H95.1584V110.467H96.0869ZM100.248 109.739C100.398 109.494 100.594 109.302 100.833 109.162C101.079 109.023 101.358 108.953 101.67 108.953V110.183H101.36C100.992 110.183 100.714 110.269 100.524 110.442C100.34 110.615 100.248 110.916 100.248 111.345V113.654H99.0767V109.02H100.248V109.739ZM104.517 113.73C104.071 113.73 103.669 113.632 103.312 113.437C102.955 113.236 102.674 112.954 102.467 112.592C102.266 112.229 102.166 111.811 102.166 111.337C102.166 110.863 102.269 110.445 102.476 110.082C102.687 109.72 102.975 109.441 103.337 109.246C103.7 109.045 104.104 108.945 104.55 108.945C104.996 108.945 105.401 109.045 105.763 109.246C106.126 109.441 106.41 109.72 106.616 110.082C106.828 110.445 106.934 110.863 106.934 111.337C106.934 111.811 106.826 112.229 106.608 112.592C106.396 112.954 106.106 113.236 105.738 113.437C105.376 113.632 104.968 113.73 104.517 113.73ZM104.517 112.709C104.729 112.709 104.927 112.659 105.111 112.558C105.3 112.452 105.451 112.296 105.562 112.09C105.674 111.884 105.73 111.633 105.73 111.337C105.73 110.897 105.613 110.559 105.378 110.325C105.15 110.085 104.868 109.965 104.533 109.965C104.199 109.965 103.917 110.085 103.689 110.325C103.465 110.559 103.354 110.897 103.354 111.337C103.354 111.778 103.463 112.118 103.68 112.358C103.903 112.592 104.182 112.709 104.517 112.709ZM109.157 109.982V112.224C109.157 112.38 109.193 112.494 109.266 112.567C109.344 112.634 109.472 112.667 109.65 112.667H110.194V113.654H109.458C108.471 113.654 107.977 113.175 107.977 112.215V109.982H107.425V109.02H107.977V107.874H109.157V109.02H110.194V109.982H109.157ZM115.345 111.237C115.345 111.404 115.334 111.555 115.311 111.688H111.923C111.951 112.023 112.068 112.285 112.275 112.475C112.481 112.664 112.735 112.759 113.036 112.759C113.471 112.759 113.78 112.572 113.964 112.199H115.228C115.094 112.645 114.837 113.013 114.458 113.303C114.079 113.587 113.613 113.73 113.061 113.73C112.615 113.73 112.213 113.632 111.856 113.437C111.505 113.236 111.229 112.954 111.028 112.592C110.833 112.229 110.735 111.811 110.735 111.337C110.735 110.857 110.833 110.436 111.028 110.074C111.223 109.711 111.497 109.433 111.848 109.237C112.199 109.042 112.604 108.945 113.061 108.945C113.502 108.945 113.895 109.039 114.241 109.229C114.592 109.419 114.862 109.689 115.052 110.04C115.247 110.386 115.345 110.785 115.345 111.237ZM114.132 110.902C114.126 110.601 114.017 110.361 113.806 110.183C113.594 109.999 113.334 109.907 113.028 109.907C112.738 109.907 112.492 109.996 112.291 110.174C112.096 110.347 111.976 110.59 111.932 110.902H114.132ZM115.898 111.337C115.898 110.857 115.996 110.439 116.191 110.082C116.386 109.72 116.657 109.441 117.003 109.246C117.348 109.045 117.744 108.945 118.191 108.945C118.765 108.945 119.239 109.09 119.613 109.38C119.992 109.664 120.246 110.066 120.374 110.584H119.111C119.044 110.383 118.93 110.227 118.768 110.116C118.612 109.999 118.416 109.94 118.182 109.94C117.848 109.94 117.583 110.063 117.387 110.308C117.192 110.548 117.095 110.891 117.095 111.337C117.095 111.778 117.192 112.121 117.387 112.366C117.583 112.606 117.848 112.726 118.182 112.726C118.656 112.726 118.966 112.514 119.111 112.09H120.374C120.246 112.592 119.992 112.991 119.613 113.286C119.233 113.582 118.759 113.73 118.191 113.73C117.744 113.73 117.348 113.632 117.003 113.437C116.657 113.236 116.386 112.957 116.191 112.6C115.996 112.238 115.898 111.817 115.898 111.337ZM122.595 109.982V112.224C122.595 112.38 122.632 112.494 122.704 112.567C122.782 112.634 122.911 112.667 123.089 112.667H123.633V113.654H122.897C121.91 113.654 121.416 113.175 121.416 112.215V109.982H120.864V109.02H121.416V107.874H122.595V109.02H123.633V109.982H122.595Z" fill="#212529"/>
</g>
<g clip-path="url(#clip8_539_29934)">
<rect x="154.597" y="99.0771" width="66.9231" height="22.3077" rx="2.10402" fill="#F8F9FA"/>
<path d="M175.238 110.425C174.681 110.135 174.402 109.686 174.402 109.078C174.402 108.777 174.477 108.504 174.628 108.259C174.784 108.008 175.015 107.81 175.322 107.665C175.634 107.514 176.014 107.439 176.46 107.439C176.906 107.439 177.282 107.514 177.589 107.665C177.901 107.81 178.133 108.008 178.283 108.259C178.44 108.504 178.518 108.777 178.518 109.078C178.518 109.385 178.442 109.656 178.292 109.89C178.141 110.119 177.94 110.297 177.689 110.425C177.996 110.559 178.236 110.754 178.409 111.011C178.582 111.267 178.668 111.571 178.668 111.923C178.668 112.302 178.571 112.634 178.375 112.918C178.186 113.197 177.924 113.412 177.589 113.562C177.254 113.713 176.878 113.788 176.46 113.788C176.041 113.788 175.665 113.713 175.33 113.562C175.001 113.412 174.739 113.197 174.544 112.918C174.354 112.634 174.26 112.302 174.26 111.923C174.26 111.571 174.346 111.267 174.519 111.011C174.692 110.749 174.932 110.554 175.238 110.425ZM177.38 109.246C177.38 108.972 177.296 108.761 177.129 108.61C176.967 108.459 176.744 108.384 176.46 108.384C176.181 108.384 175.958 108.459 175.791 108.61C175.629 108.761 175.548 108.975 175.548 109.254C175.548 109.505 175.632 109.706 175.799 109.856C175.972 110.007 176.192 110.082 176.46 110.082C176.727 110.082 176.948 110.007 177.121 109.856C177.294 109.7 177.38 109.497 177.38 109.246ZM176.46 110.936C176.142 110.936 175.883 111.016 175.682 111.178C175.487 111.34 175.389 111.571 175.389 111.872C175.389 112.151 175.484 112.38 175.673 112.558C175.869 112.731 176.131 112.818 176.46 112.818C176.789 112.818 177.048 112.729 177.238 112.55C177.427 112.372 177.522 112.146 177.522 111.872C177.522 111.577 177.425 111.348 177.229 111.187C177.034 111.019 176.778 110.936 176.46 110.936ZM180.246 113.713C180.034 113.713 179.858 113.649 179.719 113.52C179.585 113.387 179.518 113.222 179.518 113.027C179.518 112.832 179.585 112.67 179.719 112.542C179.858 112.408 180.034 112.341 180.246 112.341C180.452 112.341 180.622 112.408 180.756 112.542C180.89 112.67 180.957 112.832 180.957 113.027C180.957 113.222 180.89 113.387 180.756 113.52C180.622 113.649 180.452 113.713 180.246 113.713ZM188.536 107.815L186.562 111.622V113.654H185.391V111.622L183.408 107.815H184.73L185.985 110.484L187.231 107.815H188.536ZM191.27 113.73C190.823 113.73 190.422 113.632 190.065 113.437C189.708 113.236 189.426 112.954 189.22 112.592C189.019 112.229 188.919 111.811 188.919 111.337C188.919 110.863 189.022 110.445 189.228 110.082C189.44 109.72 189.728 109.441 190.09 109.246C190.453 109.045 190.857 108.945 191.303 108.945C191.749 108.945 192.154 109.045 192.516 109.246C192.879 109.441 193.163 109.72 193.369 110.082C193.581 110.445 193.687 110.863 193.687 111.337C193.687 111.811 193.578 112.229 193.361 112.592C193.149 112.954 192.859 113.236 192.491 113.437C192.128 113.632 191.721 113.73 191.27 113.73ZM191.27 112.709C191.481 112.709 191.679 112.659 191.864 112.558C192.053 112.452 192.204 112.296 192.315 112.09C192.427 111.884 192.483 111.633 192.483 111.337C192.483 110.897 192.365 110.559 192.131 110.325C191.903 110.085 191.621 109.965 191.286 109.965C190.952 109.965 190.67 110.085 190.441 110.325C190.218 110.559 190.107 110.897 190.107 111.337C190.107 111.778 190.216 112.118 190.433 112.358C190.656 112.592 190.935 112.709 191.27 112.709ZM198.921 109.02V113.654H197.742V113.069C197.591 113.269 197.393 113.428 197.148 113.546C196.908 113.657 196.646 113.713 196.362 113.713C195.999 113.713 195.678 113.638 195.4 113.487C195.121 113.331 194.9 113.105 194.739 112.809C194.583 112.508 194.504 112.151 194.504 111.739V109.02H195.676V111.571C195.676 111.939 195.768 112.224 195.952 112.425C196.136 112.62 196.387 112.717 196.705 112.717C197.028 112.717 197.282 112.62 197.466 112.425C197.65 112.224 197.742 111.939 197.742 111.571V109.02H198.921ZM201.248 109.739C201.399 109.494 201.594 109.302 201.834 109.162C202.079 109.023 202.358 108.953 202.67 108.953V110.183H202.361C201.993 110.183 201.714 110.269 201.524 110.442C201.34 110.615 201.248 110.916 201.248 111.345V113.654H200.077V109.02H201.248V109.739Z" fill="#212529"/>
</g>
<g clip-path="url(#clip9_539_29934)">
<rect x="238.25" y="99.0771" width="66.9231" height="22.3077" rx="2.10402" fill="#F8F9FA"/>
<path d="M254.952 111.939C254.996 112.185 255.097 112.374 255.253 112.508C255.415 112.637 255.629 112.701 255.897 112.701C256.243 112.701 256.494 112.558 256.65 112.274C256.806 111.984 256.884 111.499 256.884 110.818C256.756 110.997 256.575 111.136 256.341 111.237C256.112 111.337 255.864 111.387 255.596 111.387C255.239 111.387 254.916 111.315 254.626 111.17C254.341 111.019 254.115 110.799 253.948 110.509C253.781 110.213 253.697 109.856 253.697 109.438C253.697 108.819 253.881 108.328 254.249 107.966C254.617 107.598 255.119 107.414 255.755 107.414C256.547 107.414 257.105 107.667 257.428 108.175C257.757 108.682 257.922 109.447 257.922 110.467C257.922 111.192 257.857 111.786 257.729 112.249C257.606 112.712 257.392 113.063 257.085 113.303C256.784 113.543 256.371 113.663 255.847 113.663C255.434 113.663 255.083 113.585 254.793 113.428C254.503 113.267 254.28 113.058 254.124 112.801C253.973 112.539 253.887 112.252 253.864 111.939H254.952ZM255.839 110.434C256.129 110.434 256.357 110.344 256.525 110.166C256.692 109.987 256.776 109.748 256.776 109.447C256.776 109.117 256.686 108.864 256.508 108.685C256.335 108.501 256.098 108.409 255.797 108.409C255.496 108.409 255.256 108.504 255.077 108.694C254.904 108.878 254.818 109.123 254.818 109.43C254.818 109.725 254.902 109.968 255.069 110.158C255.242 110.342 255.498 110.434 255.839 110.434ZM259.486 113.713C259.274 113.713 259.098 113.649 258.959 113.52C258.825 113.387 258.758 113.222 258.758 113.027C258.758 112.832 258.825 112.67 258.959 112.542C259.098 112.408 259.274 112.341 259.486 112.341C259.692 112.341 259.862 112.408 259.996 112.542C260.13 112.67 260.197 112.832 260.197 113.027C260.197 113.222 260.13 113.387 259.996 113.52C259.862 113.649 259.692 113.713 259.486 113.713ZM266.714 112.542H264.388L264.003 113.654H262.774L264.873 107.807H266.237L268.337 113.654H267.099L266.714 112.542ZM266.396 111.605L265.551 109.162L264.706 111.605H266.396ZM270.895 113.73C270.516 113.73 270.176 113.663 269.874 113.529C269.573 113.389 269.333 113.203 269.155 112.968C268.982 112.734 268.887 112.475 268.871 112.19H270.05C270.072 112.369 270.159 112.517 270.309 112.634C270.466 112.751 270.658 112.809 270.887 112.809C271.11 112.809 271.283 112.765 271.405 112.676C271.534 112.586 271.598 112.472 271.598 112.333C271.598 112.182 271.52 112.07 271.363 111.998C271.213 111.92 270.97 111.836 270.636 111.747C270.29 111.663 270.005 111.577 269.782 111.488C269.565 111.398 269.375 111.262 269.214 111.078C269.057 110.894 268.979 110.646 268.979 110.333C268.979 110.077 269.052 109.842 269.197 109.631C269.347 109.419 269.559 109.251 269.833 109.129C270.111 109.006 270.438 108.945 270.811 108.945C271.363 108.945 271.804 109.084 272.133 109.363C272.462 109.636 272.643 110.007 272.677 110.475H271.556C271.539 110.291 271.461 110.146 271.322 110.04C271.188 109.929 271.007 109.873 270.778 109.873C270.566 109.873 270.401 109.912 270.284 109.99C270.173 110.068 270.117 110.177 270.117 110.317C270.117 110.473 270.195 110.593 270.351 110.676C270.507 110.754 270.75 110.835 271.079 110.919C271.414 111.002 271.69 111.089 271.907 111.178C272.125 111.267 272.312 111.407 272.468 111.596C272.629 111.78 272.713 112.026 272.719 112.333C272.719 112.6 272.643 112.84 272.493 113.052C272.348 113.264 272.136 113.431 271.857 113.554C271.584 113.671 271.263 113.73 270.895 113.73ZM275.453 113.73C275.074 113.73 274.734 113.663 274.433 113.529C274.132 113.389 273.892 113.203 273.713 112.968C273.541 112.734 273.446 112.475 273.429 112.19H274.609C274.631 112.369 274.717 112.517 274.868 112.634C275.024 112.751 275.216 112.809 275.445 112.809C275.668 112.809 275.841 112.765 275.964 112.676C276.092 112.586 276.156 112.472 276.156 112.333C276.156 112.182 276.078 112.07 275.922 111.998C275.771 111.92 275.529 111.836 275.194 111.747C274.848 111.663 274.564 111.577 274.341 111.488C274.123 111.398 273.934 111.262 273.772 111.078C273.616 110.894 273.538 110.646 273.538 110.333C273.538 110.077 273.61 109.842 273.755 109.631C273.906 109.419 274.118 109.251 274.391 109.129C274.67 109.006 274.996 108.945 275.37 108.945C275.922 108.945 276.363 109.084 276.692 109.363C277.021 109.636 277.202 110.007 277.235 110.475H276.114C276.098 110.291 276.02 110.146 275.88 110.04C275.746 109.929 275.565 109.873 275.336 109.873C275.124 109.873 274.96 109.912 274.843 109.99C274.731 110.068 274.675 110.177 274.675 110.317C274.675 110.473 274.754 110.593 274.91 110.676C275.066 110.754 275.308 110.835 275.638 110.919C275.972 111.002 276.248 111.089 276.466 111.178C276.683 111.267 276.87 111.407 277.026 111.596C277.188 111.78 277.272 112.026 277.277 112.333C277.277 112.6 277.202 112.84 277.051 113.052C276.906 113.264 276.694 113.431 276.415 113.554C276.142 113.671 275.822 113.73 275.453 113.73ZM282.547 111.237C282.547 111.404 282.536 111.555 282.513 111.688H279.125C279.153 112.023 279.27 112.285 279.477 112.475C279.683 112.664 279.937 112.759 280.238 112.759C280.673 112.759 280.982 112.572 281.166 112.199H282.43C282.296 112.645 282.039 113.013 281.66 113.303C281.281 113.587 280.815 113.73 280.263 113.73C279.817 113.73 279.415 113.632 279.058 113.437C278.707 113.236 278.431 112.954 278.23 112.592C278.035 112.229 277.937 111.811 277.937 111.337C277.937 110.857 278.035 110.436 278.23 110.074C278.425 109.711 278.699 109.433 279.05 109.237C279.401 109.042 279.806 108.945 280.263 108.945C280.703 108.945 281.097 109.039 281.442 109.229C281.794 109.419 282.064 109.689 282.254 110.04C282.449 110.386 282.547 110.785 282.547 111.237ZM281.334 110.902C281.328 110.601 281.219 110.361 281.007 110.183C280.796 109.999 280.536 109.907 280.229 109.907C279.939 109.907 279.694 109.996 279.493 110.174C279.298 110.347 279.178 110.59 279.134 110.902H281.334ZM284.765 109.982V112.224C284.765 112.38 284.801 112.494 284.874 112.567C284.952 112.634 285.08 112.667 285.259 112.667H285.802V113.654H285.066C284.079 113.654 283.586 113.175 283.586 112.215V109.982H283.033V109.02H283.586V107.874H284.765V109.02H285.802V109.982H284.765ZM288.418 113.73C288.039 113.73 287.699 113.663 287.398 113.529C287.096 113.389 286.857 113.203 286.678 112.968C286.505 112.734 286.41 112.475 286.394 112.19H287.573C287.596 112.369 287.682 112.517 287.833 112.634C287.989 112.751 288.181 112.809 288.41 112.809C288.633 112.809 288.806 112.765 288.928 112.676C289.057 112.586 289.121 112.472 289.121 112.333C289.121 112.182 289.043 112.07 288.887 111.998C288.736 111.92 288.493 111.836 288.159 111.747C287.813 111.663 287.529 111.577 287.306 111.488C287.088 111.398 286.898 111.262 286.737 111.078C286.581 110.894 286.503 110.646 286.503 110.333C286.503 110.077 286.575 109.842 286.72 109.631C286.871 109.419 287.083 109.251 287.356 109.129C287.635 109.006 287.961 108.945 288.335 108.945C288.887 108.945 289.327 109.084 289.656 109.363C289.985 109.636 290.167 110.007 290.2 110.475H289.079C289.062 110.291 288.984 110.146 288.845 110.04C288.711 109.929 288.53 109.873 288.301 109.873C288.089 109.873 287.925 109.912 287.808 109.99C287.696 110.068 287.64 110.177 287.64 110.317C287.64 110.473 287.718 110.593 287.874 110.676C288.031 110.754 288.273 110.835 288.602 110.919C288.937 111.002 289.213 111.089 289.43 111.178C289.648 111.267 289.835 111.407 289.991 111.596C290.153 111.78 290.236 112.026 290.242 112.333C290.242 112.6 290.167 112.84 290.016 113.052C289.871 113.264 289.659 113.431 289.38 113.554C289.107 113.671 288.786 113.73 288.418 113.73Z" fill="#212529"/>
</g>
<rect x="57.3486" y="21.3486" width="261.418" height="144.303" rx="2.4399" stroke="#E9E9F4" stroke-width="0.697115"/>
</g>
<defs>
<clipPath id="clip0_539_29934">
<rect width="376" height="118" rx="8" fill="white"/>
</clipPath>
<clipPath id="clip1_539_29934">
<rect width="66.9231" height="22.3077" fill="white" transform="translate(70.9424 32.1543)"/>
</clipPath>
<clipPath id="clip2_539_29934">
<rect width="66.9231" height="22.3077" fill="white" transform="translate(154.597 32.1543)"/>
</clipPath>
<clipPath id="clip3_539_29934">
<rect width="66.9231" height="22.3077" fill="white" transform="translate(238.25 32.1543)"/>
</clipPath>
<clipPath id="clip4_539_29934">
<rect width="66.9231" height="22.3077" fill="white" transform="translate(70.9424 65.6162)"/>
</clipPath>
<clipPath id="clip5_539_29934">
<rect width="66.9231" height="22.3077" fill="white" transform="translate(154.597 65.6162)"/>
</clipPath>
<clipPath id="clip6_539_29934">
<rect width="66.9231" height="22.3077" fill="white" transform="translate(238.25 65.6162)"/>
</clipPath>
<clipPath id="clip7_539_29934">
<rect width="66.9231" height="22.3077" fill="white" transform="translate(70.9424 99.0771)"/>
</clipPath>
<clipPath id="clip8_539_29934">
<rect width="66.9231" height="22.3077" fill="white" transform="translate(154.597 99.0771)"/>
</clipPath>
<clipPath id="clip9_539_29934">
<rect width="66.9231" height="22.3077" fill="white" transform="translate(238.25 99.0771)"/>
</clipPath>
</defs>
</svg>
