/* XPM */
static char *_536727060135[] = {
/* columns rows colors chars-per-pixel */
"32 32 160 2 ",
"   c #020302",
".  c #0B0101",
"X  c #010B00",
"o  c #0A0D00",
"O  c #01010B",
"+  c #0C010C",
"@  c #030A09",
"#  c #140202",
"$  c #190302",
"%  c #130904",
"&  c #13020D",
"*  c #1B010C",
"=  c #100E0F",
"-  c #1A0B0E",
";  c #011300",
":  c #020113",
">  c #0B0113",
",  c #000912",
"<  c #0A0A12",
"1  c #04001A",
"2  c #0B021C",
"3  c #010B1B",
"4  c #0D0A1D",
"5  c #120414",
"6  c #1A0814",
"7  c #11001D",
"8  c #17081D",
"9  c #111119",
"0  c #260300",
"q  c #2C0503",
"w  c #2B0C01",
"e  c #360C01",
"r  c #3C0D00",
"t  c #391A08",
"y  c #000020",
"u  c #160120",
"i  c #1C0821",
"p  c #140429",
"a  c #470903",
"s  c #550B01",
"d  c #411100",
"f  c #571606",
"g  c #5E1301",
"h  c #650C00",
"j  c #6E0B00",
"k  c #7C0F00",
"l  c #6D1103",
"z  c #681B00",
"x  c #741E00",
"c  c #732300",
"v  c #792208",
"b  c #921505",
"n  c #9E1100",
"m  c #AA1500",
"M  c #B01500",
"N  c #B41D05",
"B  c #832800",
"V  c #8E2B00",
"C  c #9A3000",
"Z  c #BC2F00",
"A  c #AD3600",
"S  c #B73700",
"D  c #D21B00",
"F  c #DF1B00",
"G  c #E41D00",
"H  c #EC1E00",
"J  c #F71F00",
"K  c #F91F00",
"L  c #CD2B00",
"P  c #FF2000",
"I  c #FF2A00",
"U  c #FF2709",
"Y  c #FF2B0D",
"T  c #FF3500",
"R  c #FF3C0A",
"E  c #FF2F11",
"W  c #FF3315",
"Q  c #FF3619",
"!  c #FF3A1D",
"~  c #FF3D21",
"^  c #CF4200",
"/  c #D74600",
"(  c #D84700",
")  c #D4400F",
"_  c #E54B00",
"`  c #ED4E00",
"'  c #FF4101",
"]  c #FE4C01",
"[  c #FF4B0E",
"{  c #F35100",
"}  c #FF5500",
"|  c #FF5906",
" . c #FF5B09",
".. c #FF4915",
"X. c #FD481D",
"o. c #FF571F",
"O. c #FF6417",
"+. c #FF6519",
"@. c #FF681D",
"#. c #FE4223",
"$. c #FF472D",
"%. c #FF4B2C",
"&. c #FF4C33",
"*. c #FF533B",
"=. c #FF6A20",
"-. c #FF712B",
";. c #FF623D",
":. c #FF7733",
">. c #FF7F3F",
",. c #FF5B44",
"<. c #FF5E48",
"1. c #FF6742",
"2. c #FF644E",
"3. c #FF7B43",
"4. c #FF6651",
"5. c #FF6B56",
"6. c #FF725E",
"7. c #FF7562",
"8. c #FF864A",
"9. c #FF894E",
"0. c #FF8755",
"q. c #FF8C53",
"w. c #FF8F58",
"e. c #FF935D",
"r. c #FF8463",
"t. c #FF856D",
"y. c #FF9967",
"u. c #FF9C6B",
"i. c #FF8473",
"p. c #FF9C72",
"a. c #FFA477",
"s. c #FFA77C",
"d. c #FF9788",
"f. c #FF9A8C",
"g. c #FFAB84",
"h. c #FFA18F",
"j. c #FFB18A",
"k. c #FFA596",
"l. c #FFB39C",
"z. c #FFBB99",
"x. c #FFAEA2",
"c. c #FFBEA3",
"v. c #FFB5AA",
"b. c #FFBEB2",
"n. c #FFC7AB",
"m. c #FFC9AF",
"M. c #FFCCB3",
"N. c #FFC5BD",
"B. c #FFD0B9",
"V. c #FFD5C4",
"C. c #FFD3CD",
"Z. c #FFDDCD",
"A. c #FFDBD4",
"S. c #FFE0D4",
"D. c #FFECE6",
"F. c #FFEDE9",
"G. c #FFF1EC",
"H. c #FFF6F4",
"J. c #FFF9F6",
"K. c #FFFFFF",
/* pixels */
"      X X   > 7 > # v ! ! ! W Q W E E E Y N : 1 5 # . .     ; X ",
"O       X X > > + f ~ ~ ! Q Q Q W E E E Y Y b 2 . .   o X       ",
"p 1 : O   X     e X.~ ~ ! Q Q W W W E Y Y Y U l .   X X , 1 : u ",
"2 1 O < w ) X.#.#.~ ~ ! Q ! Q W W E E E Y U U U U P G a 3 y 2 7 ",
". - . e ` } } } ..~ ~ ~ ! Q Q Q W W E Y Y Y U U P P K J s 2 i + ",
". . $ _ } } } } =.l.r.;.%.1.l.J.K.b.2.~ $.4.f.<.P P P P J a .   ",
"o   . { } } }  .Z.K.K.K.K.K.K.K.K.K.K.K.K.K.K.G.~ P P P P r X ; ",
"  o X A } } } z.K.K.K.K.K.K.K.K.K.K.K.K.K.K.K.K.C.U K P G X ; X ",
"  O   ( } } 9.K.K.g.q.8.y.n.J.K.K.K.N.i.4.4.i.F.K.d.P P P % X O ",
"&   t } }  .G.K.K.K.B.w.| } 0.K.K.h.K K ,.x.H.K.K.K.&.P P l O 4 ",
"# $ c } } q.K.K.K.K.K.K.G.>.p.K.K.v.! A.K.K.K.K.K.K.f.P P m $ . ",
". % d } } O.D.K.K.K.K.K.K.g.c.K.K.A.,.K.K.K.K.K.K.J.*.P P k & . ",
"X   . ` } } -.G.K.K.K.K.J.@.S.K.K.K.E A.K.K.K.K.K.5.P P P q O 1 ",
"      S } } } :.H.K.K.K.j.| J.K.K.K.*.4.K.K.K.K.7.P P P G   : : ",
"#   3 x } } } } >.J.K.K.q.| V.K.K.A.$.! K.K.K.i.K K P P m X   > ",
"# . 3 w } } } } } y.K.K.K.s.] ' R I 5.F.K.K.l.P P K P P h       ",
"X X   . _ } } } } e.K.K.K.K.A.=.R b.K.K.K.K.k.P P P K P q O O   ",
"    @ . A } } } } m.K.K.K.K.K.l.r.K.K.K.K.K.F.K K P K F $ O   @ ",
". o   . x } } } } M.K.K.K.K.V.[ T k.K.K.K.K.G.P P P P m #   O   ",
"$ . . . e } } } } :.J.K.J.g.[ ' R I 6.D.K.K.7.K P P P j .   X X ",
". .   = . ( } } } } :.u.O.+.g.G.J.x.$.U 6.2.P P P P P 0 . X X X ",
". . @     C } } } } }  .j.J.K.K.K.K.K.v.! P P P P P D . .     ; ",
"  9 O   . z } } } } }  .m.K.K.K.K.K.K.A.~ K P P P P n .     + . ",
"O O O O . 0 } } } } } } } a.K.K.K.K.x.U K K P P P P s . @ O > > ",
"O O @   . $ S } } } } } } } 3.G.J.t.P P P K P P P G # # + O > > ",
"  X     > * r { } } } } } } ] o.;.I K K P P P P K h . 5 O O : O ",
"X X   O : 2 & g { } } } } } ] R T I P P P K P K b . 2 : :   ; X ",
"    .   : 1 > * e ^ } } } } ] ' T I P K P P G s & + : : O @ X X ",
". .   . @   O     % B } } } ] ' T I P P K m $     .     @ X     ",
". .     .   X O , O O e / } ] ' T I K H g   O O   X     X O   & ",
"O < O       o       <   % V ] ' T I M 0 + 8       X X     + 5 + ",
"O : O @ X     .   < : :   . r Z L s . < > > 6 .   X X X   . + + "
};
