<svg fill="none" xmlns="http://www.w3.org/2000/svg" viewBox="0 0 249 224">
  <g opacity=".4">
    <circle cx="160.55" cy="9.62352" r="2.64955" stroke="#AEB1C2" stroke-width="1.92694"/>
    <circle cx="56.7273" cy="62.166" r="2.64955" stroke="#AEB1C2" stroke-width="1.92694"/>
    <circle cx="192.314" cy="30.3088" r="2.64955" stroke="#AEB1C2" stroke-width="1.92694"/>
    <path d="M52.7019 28.385c.1432-.1127.2375-.278.2629-.461.0255-.183-.0199-.3694-.1265-.5201l-3.0806-4.1938 4.0951-3.1049c.1432-.1128.2375-.278.2629-.461.0254-.183-.02-.3694-.1266-.5201-.1178-.1503-.2871-.2496-.4734-.2779-.1864-.0283-.3757.0167-.5296.1257l-4.0951 3.105-3.0805-4.1938c-.1118-.1467-.2748-.244-.4547-.2713-.1799-.0273-.3626.0175-.5097.125-.1374.1088-.2296.2663-.2584.4416-.0207.1882.0224.3785.122.5394l3.0805 4.1938-4.095 3.105c-.1393.1246-.2324.2942-.2638.4808-.0201.1766.0254.355.1274.5002.1118.1467.2748.244.4547.2713.1799.0273.3627-.0175.5098-.125l4.095-3.1049 3.0806 4.1938c.1178.1503.2871.2496.4734.2779.1863.0283.3757-.0167.5296-.1257z" fill="#AEB1C2"/>
    <path d="M184.076 54.2605l-.011.0095.011-.0095zm0 0l.006-.0047-.006.0047z" fill="#AEB1C2" stroke="#AEB1C2" stroke-width="2.40868"/>
  </g>
  <path fill-rule="evenodd" clip-rule="evenodd" d="M106.224 38.3507c10.279 2.7544 20.845-3.346 23.6-13.6256 2.754-10.2796-3.346-20.8457-13.626-23.60011-10.279-2.75441-20.8454 3.34596-23.5998 13.62551-2.7545 10.2796 3.3459 20.8458 13.6258 23.6002zm6.891-22.0258l2.531 8.1984 2.865 3.2592-4.372-15.2814-1.024 3.8238zm1.098 9.4761l-8.67-2.3232-3.786.9965 14.767 3.957-2.311-2.6303zm-9.215-4.1654l6.263-5.8073 1.024-3.8238-10.961 10.598 3.674-.9669zm8.349 1.9463l-1.698-5.4952-4.217 3.9102 5.915 1.585zm1.685-14.93944l6.156 21.52014c.095.3324.004.6905-.239.9364-.242.2471-.598.3445-.933.2548l-22.2472-5.9611c-.0045-.0013-.0086-.0033-.0127-.0054-.0044-.0022-.0089-.0044-.0141-.0058-.0706-.0219-.14-.0485-.2046-.0856-.0172-.0101-.0323-.0225-.0475-.0349-.0098-.0081-.0197-.0162-.0302-.0237-.0083-.006-.0166-.0118-.0248-.0177-.0334-.0235-.0665-.0469-.096-.0763-.0132-.0133-.0241-.0283-.0353-.0436-.0081-.0112-.0164-.0224-.0256-.0333-.0079-.01-.016-.0198-.024-.0295-.0242-.0296-.0481-.0588-.0675-.0924-.0195-.0336-.0331-.0711-.0466-.1083-.0049-.0135-.0098-.027-.015-.0403-.0045-.0124-.0099-.0239-.0153-.0355-.0076-.0162-.0152-.0324-.0202-.0505.0002-.001.0002-.001-.0005-.0021.0002-.0007.0003-.0009.0001-.0013-.0001-.0002-.0003-.0005-.0005-.0008-.0288-.1111-.0304-.2238-.0188-.3339.0028-.0291.007-.0558.0117-.0843.0194-.1022.0508-.201.1019-.2916.0008-.0018.0015-.0036.0022-.0054.0014-.0036.0029-.0072.0051-.0106.0436-.0737.0969-.1429.1601-.2045L113.442 8.21648c.035-.03407.074-.05877.113-.08362.009-.00537.018-.01075.026-.01623.223-.14804.498-.21138.776-.13687.278.07452.486.26727.603.50646.005.00845.009.01687.014.02528.022.04208.044.08416.058.13096zM147.251 76.1222c10.279-2.7544 16.379-13.3206 13.625-23.6002-2.754-10.2796-13.32-16.3799-23.6-13.6255-10.28 2.7544-16.38 13.3205-13.626 23.6001 2.755 10.2796 13.321 16.38 23.601 13.6256zm-5.046-22.5196l6.291 5.8342 4.11 1.3905-11.426-11.0485 1.025 3.8238zm5.689 7.6571l-8.67 2.3231-2.781 2.756 14.768-3.957-3.317-1.1221zm-10.063 1.0005l2.52-8.1604-1.025-3.8238-4.193 14.6585 2.698-2.6743zm8.203-2.4894l-4.219-3.9099-1.697 5.4949 5.916-1.585zm-6.01-13.7802l16.091 15.559c.248.2405.349.5961.261.9305-.086.335-.345.5973-.68.687l-22.247 5.9611c-.005.0012-.009.0015-.014.0018-.005.0003-.01.0006-.015.002-.072.0163-.146.028-.22.0281-.02-.0001-.039-.0032-.059-.0064-.012-.0021-.025-.0042-.038-.0055-.01-.001-.02-.0019-.03-.0028-.041-.0037-.081-.0074-.121-.0181-.018-.005-.035-.0125-.053-.0202-.012-.0056-.025-.0112-.039-.016-.011-.0047-.023-.0092-.035-.0136-.036-.0135-.071-.0268-.105-.0462-.033-.0194-.064-.045-.094-.0705-.011-.0093-.022-.0185-.033-.0274-.01-.0085-.021-.0158-.031-.0231-.015-.0102-.03-.0204-.043-.0337 0-.0006 0-.0008-.001-.001 0-.0002 0-.0003-.001-.0006 0-.0009 0-.0009-.001-.0016-.081-.0817-.138-.1785-.183-.2797-.012-.0266-.022-.0518-.032-.0789-.035-.0981-.057-.1995-.058-.3035 0-.0019 0-.0038-.001-.0057 0-.0039-.001-.0077 0-.0117 0-.0857.012-.1723.036-.2572l6.156-21.5201c.013-.0467.035-.0878.056-.1291.005-.0089.01-.0179.014-.0269.119-.2394.326-.4319.604-.5064.278-.0746.554-.0115.776.1368.008.0052.016.0102.024.0153.04.0254.08.0508.116.0843zM86.4726 85.3902c9.2164 5.3211 21.0014 2.1634 26.3224-7.0531 5.321-9.2164 2.163-21.0014-7.053-26.3225-9.2164-5.3211-21.0014-2.1633-26.3225 7.0531-5.3211 9.2164-2.1633 21.0014 7.0531 26.3225zm12.3553-19.4913l.3233 8.5742 1.9228 3.8895-.267-15.892-1.9791 3.4283zm-1.3922 9.4366l-7.7734-4.4879-3.9149-.0175 13.2403 7.6443-1.552-3.1389zm-7.8227-6.4079l7.5521-3.9885 1.9793-3.4284-13.3303 7.4 3.7989.0169zm7.5606 4.0406l-.2179-5.7473-5.0854 2.6855 5.3033 3.0618zm5.4944-13.9943l.377 22.3802c.005.3456-.175.668-.473.8427-.298.176-.667.1779-.967.0047L81.6583 70.6854c-.0041-.0023-.0075-.0054-.011-.0085-.0036-.0032-.0074-.0065-.012-.0092-.0626-.0395-.1227-.0831-.1755-.1357-.014-.0141-.0254-.03-.0368-.046-.0074-.0103-.0149-.0207-.0231-.0307-.0064-.0079-.0129-.0157-.0194-.0234-.0262-.0315-.0521-.0626-.073-.0986-.0092-.0162-.0159-.0336-.0228-.0513-.0049-.0129-.01-.0259-.0161-.0388-.005-.0117-.0103-.0232-.0155-.0347-.0157-.0348-.0313-.0692-.0413-.1067-.0101-.0375-.0135-.0772-.017-.1167-.0012-.0143-.0024-.0286-.004-.0428-.0012-.0131-.0034-.0257-.0057-.0382-.0031-.0177-.0063-.0352-.0064-.0541.0002-.0003.0003-.0005.0004-.0008 0-.0003-.0001-.0006-.0003-.0013.0005-.0009.0005-.0009.0002-.0022.0008-.1147.0285-.224.0682-.3274.0103-.0273.0212-.052.0331-.0784.0452-.0936.1011-.1809.174-.2552.0012-.0015.0024-.0031.0035-.0047.0023-.0031.0046-.0062.0076-.0089.0612-.0599.1306-.1129.2076-.156l19.57-10.8641c.042-.024.086-.0376.131-.0514.01-.003.019-.006.029-.009.253-.0855.536-.0754.785.0686.249.1439.4.3838.452.6454.002.0092.004.0185.006.0278.011.0464.021.0927.022.1415z" fill="#FFD43B"/>
  <g filter="url(#filter0_d)">
    <rect x="32.9888" y="72.3848" width="183.004" height="119.124" rx="18.8833" fill="#A78AFF"/>
  </g>
  <path d="M151.136 131.172c0-10.429 8.454-18.883 18.883-18.883h37.927c10.429 0 18.884 8.454 18.884 18.883v.773c0 10.429-8.455 18.883-18.884 18.883h-37.927c-10.429 0-18.883-8.454-18.883-18.883v-.773z" fill="#D9CDFF"/>
  <circle cx="170.462" cy="131.797" r="9.44166" fill="#EDE8FF"/>
  <path fill-rule="evenodd" clip-rule="evenodd" d="M116.744 150.83c10.659 0 19.299-8.641 19.299-19.3 0-10.658-8.64-19.299-19.299-19.299-10.659 0-19.2992 8.641-19.2992 19.299 0 10.659 8.6402 19.3 19.2992 19.3zm6.764-23.755c.496-.779.267-1.813-.512-2.309-.779-.497-1.813-.268-2.31.511l-5.667 8.892-2.409-2.561c-.633-.673-1.691-.706-2.364-.073-.673.633-.706 1.692-.073 2.365l3.883 4.128c.354.376.861.567 1.375.519.514-.048.977-.331 1.254-.766l6.823-10.706z" fill="#fff"/>
  <defs>
    <filter id="filter0_d" x=".873043" y="40.269" width="247.236" height="183.355" filterUnits="userSpaceOnUse" color-interpolation-filters="sRGB">
      <feFlood flood-opacity="0" result="BackgroundImageFix"/>
      <feColorMatrix in="SourceAlpha" type="matrix" values="0 0 0 0 0 0 0 0 0 0 0 0 0 0 0 0 0 0 127 0"/>
      <feOffset/>
      <feGaussianBlur stdDeviation="16.0579"/>
      <feColorMatrix type="matrix" values="0 0 0 0 0.439841 0 0 0 0 0.270347 0 0 0 0 0.954167 0 0 0 0.21 0"/>
      <feBlend mode="normal" in2="BackgroundImageFix" result="effect1_dropShadow"/>
      <feBlend mode="normal" in="SourceGraphic" in2="effect1_dropShadow" result="shape"/>
    </filter>
  </defs>
</svg>
