<svg height="16" width="16" fill="none" xmlns="http://www.w3.org/2000/svg" viewBox="0 0 17 17">
  <path fill-rule="evenodd" clip-rule="evenodd" d="M8.08252 16.9192c-4.41133 0-8.0000005-3.5887-8.0000005-8.00001C.0825195 4.50786 3.67119.919189 8.08252.919189c4.41138 0 7.99998 3.588671 7.99998 8.000001 0 4.41131-3.5886 8.00001-7.99998 8.00001zm-.16533-4.8947c-.13134.1507-.316.228-.50134.228-.14666 0-.294-.048-.416-.146l-3.334-2.66664c-.28733-.23-.334-.64934-.104-.93734.23067-.28733.65067-.334.93667-.104l2.83533 2.26798 4.24735-4.85264c.2427-.27734.6633-.30534.9407-.06334.2766.24267.3046.664.062.94067L7.91719 12.0245z" fill="#51CF66"/>
</svg>
