<?xml version="1.0" encoding="UTF-8"?>
<!--Generator: Apple Native CoreSVG 175-->
<!DOCTYPE svg
PUBLIC "-//W3C//DTD SVG 1.1//EN"
       "http://www.w3.org/Graphics/SVG/1.1/DTD/svg11.dtd">
<svg version="1.1" xmlns="http://www.w3.org/2000/svg" xmlns:xlink="http://www.w3.org/1999/xlink" width="3300" height="2200">
 <!--glyph: "", point size: 100.0, font version: "17.3d3e1", template writer version: "65.1"-->
 <g id="Notes">
  <rect height="2200" id="artboard" style="fill:white;opacity:1" width="3300" x="0" y="0"/>
  <line style="fill:none;stroke:black;opacity:1;stroke-width:0.5;" x1="263" x2="3036" y1="292" y2="292"/>
  <text style="stroke:none;fill:black;font-family:sans-serif;font-size:13;font-weight:bold;" transform="matrix(1 0 0 1 263 322)">Weight/Scale Variations</text>
  <text style="stroke:none;fill:black;font-family:sans-serif;font-size:13;text-anchor:middle;" transform="matrix(1 0 0 1 559.711 322)">Ultralight</text>
  <text style="stroke:none;fill:black;font-family:sans-serif;font-size:13;text-anchor:middle;" transform="matrix(1 0 0 1 856.422 322)">Thin</text>
  <text style="stroke:none;fill:black;font-family:sans-serif;font-size:13;text-anchor:middle;" transform="matrix(1 0 0 1 1153.13 322)">Light</text>
  <text style="stroke:none;fill:black;font-family:sans-serif;font-size:13;text-anchor:middle;" transform="matrix(1 0 0 1 1449.84 322)">Regular</text>
  <text style="stroke:none;fill:black;font-family:sans-serif;font-size:13;text-anchor:middle;" transform="matrix(1 0 0 1 1746.56 322)">Medium</text>
  <text style="stroke:none;fill:black;font-family:sans-serif;font-size:13;text-anchor:middle;" transform="matrix(1 0 0 1 2043.27 322)">Semibold</text>
  <text style="stroke:none;fill:black;font-family:sans-serif;font-size:13;text-anchor:middle;" transform="matrix(1 0 0 1 2339.98 322)">Bold</text>
  <text style="stroke:none;fill:black;font-family:sans-serif;font-size:13;text-anchor:middle;" transform="matrix(1 0 0 1 2636.69 322)">Heavy</text>
  <text style="stroke:none;fill:black;font-family:sans-serif;font-size:13;text-anchor:middle;" transform="matrix(1 0 0 1 2933.4 322)">Black</text>
  <line style="fill:none;stroke:black;opacity:1;stroke-width:0.5;" x1="263" x2="3036" y1="1903" y2="1903"/>
  <g transform="matrix(1 0 0 1 263 1933)">
   <path d="M9.24805 0.830078Q10.8691 0.830078 12.2949 0.214844Q13.7207-0.400391 14.8096-1.49414Q15.8984-2.58789 16.5186-4.01367Q17.1387-5.43945 17.1387-7.05078Q17.1387-8.66211 16.5186-10.0879Q15.8984-11.5137 14.8047-12.6074Q13.7109-13.7012 12.2852-14.3164Q10.8594-14.9316 9.23828-14.9316Q7.62695-14.9316 6.20117-14.3164Q4.77539-13.7012 3.69141-12.6074Q2.60742-11.5137 1.9873-10.0879Q1.36719-8.66211 1.36719-7.05078Q1.36719-5.43945 1.9873-4.01367Q2.60742-2.58789 3.69629-1.49414Q4.78516-0.400391 6.21094 0.214844Q7.63672 0.830078 9.24805 0.830078ZM9.24805-0.654297Q7.91992-0.654297 6.7627-1.14746Q5.60547-1.64062 4.73145-2.51953Q3.85742-3.39844 3.36426-4.56055Q2.87109-5.72266 2.87109-7.05078Q2.87109-8.37891 3.35938-9.54102Q3.84766-10.7031 4.72168-11.582Q5.5957-12.4609 6.75293-12.9541Q7.91016-13.4473 9.23828-13.4473Q10.5762-13.4473 11.7334-12.9541Q12.8906-12.4609 13.7695-11.582Q14.6484-10.7031 15.1465-9.54102Q15.6445-8.37891 15.6445-7.05078Q15.6445-5.72266 15.1514-4.56055Q14.6582-3.39844 13.7842-2.51953Q12.9102-1.64062 11.748-1.14746Q10.5859-0.654297 9.24805-0.654297ZM5.6543-7.05078Q5.6543-6.72852 5.85938-6.52832Q6.06445-6.32812 6.40625-6.32812L8.51562-6.32812L8.51562-4.20898Q8.51562-3.88672 8.71094-3.67676Q8.90625-3.4668 9.23828-3.4668Q9.56055-3.4668 9.77051-3.67676Q9.98047-3.88672 9.98047-4.20898L9.98047-6.32812L12.0898-6.32812Q12.4219-6.32812 12.627-6.52832Q12.832-6.72852 12.832-7.05078Q12.832-7.38281 12.627-7.58789Q12.4219-7.79297 12.0898-7.79297L9.98047-7.79297L9.98047-9.90234Q9.98047-10.2344 9.77051-10.4443Q9.56055-10.6543 9.23828-10.6543Q8.90625-10.6543 8.71094-10.4443Q8.51562-10.2344 8.51562-9.90234L8.51562-7.79297L6.40625-7.79297Q6.06445-7.79297 5.85938-7.58789Q5.6543-7.38281 5.6543-7.05078Z"/>
  </g>
  <g transform="matrix(1 0 0 1 281.867 1933)">
   <path d="M11.709 2.91016Q13.75 2.91016 15.5518 2.12891Q17.3535 1.34766 18.7305-0.0292969Q20.1074-1.40625 20.8887-3.20801Q21.6699-5.00977 21.6699-7.05078Q21.6699-9.0918 20.8887-10.8936Q20.1074-12.6953 18.7305-14.0723Q17.3535-15.4492 15.5469-16.2305Q13.7402-17.0117 11.6992-17.0117Q9.6582-17.0117 7.85645-16.2305Q6.05469-15.4492 4.68262-14.0723Q3.31055-12.6953 2.5293-10.8936Q1.74805-9.0918 1.74805-7.05078Q1.74805-5.00977 2.5293-3.20801Q3.31055-1.40625 4.6875-0.0292969Q6.06445 1.34766 7.86621 2.12891Q9.66797 2.91016 11.709 2.91016ZM11.709 1.25Q9.98047 1.25 8.47656 0.605469Q6.97266-0.0390625 5.83496-1.17676Q4.69727-2.31445 4.05762-3.81836Q3.41797-5.32227 3.41797-7.05078Q3.41797-8.7793 4.05762-10.2832Q4.69727-11.7871 5.83008-12.9297Q6.96289-14.0723 8.4668-14.7119Q9.9707-15.3516 11.6992-15.3516Q13.4277-15.3516 14.9316-14.7119Q16.4355-14.0723 17.5781-12.9297Q18.7207-11.7871 19.3652-10.2832Q20.0098-8.7793 20.0098-7.05078Q20.0098-5.32227 19.3701-3.81836Q18.7305-2.31445 17.5928-1.17676Q16.4551-0.0390625 14.9463 0.605469Q13.4375 1.25 11.709 1.25ZM7.17773-7.05078Q7.17773-6.69922 7.41211-6.47461Q7.64648-6.25 8.01758-6.25L10.8887-6.25L10.8887-3.36914Q10.8887-2.99805 11.1133-2.76855Q11.3379-2.53906 11.6895-2.53906Q12.0605-2.53906 12.29-2.76855Q12.5195-2.99805 12.5195-3.36914L12.5195-6.25L15.4004-6.25Q15.7715-6.25 16.001-6.47461Q16.2305-6.69922 16.2305-7.05078Q16.2305-7.42188 16.001-7.65137Q15.7715-7.88086 15.4004-7.88086L12.5195-7.88086L12.5195-10.752Q12.5195-11.1328 12.29-11.3623Q12.0605-11.5918 11.6895-11.5918Q11.3379-11.5918 11.1133-11.3574Q10.8887-11.123 10.8887-10.752L10.8887-7.88086L8.01758-7.88086Q7.63672-7.88086 7.40723-7.65137Q7.17773-7.42188 7.17773-7.05078Z"/>
  </g>
  <g transform="matrix(1 0 0 1 305.646 1933)">
   <path d="M14.9707 5.66406Q17.0605 5.66406 18.96 5.01465Q20.8594 4.36523 22.4512 3.19336Q24.043 2.02148 25.2197 0.429688Q26.3965-1.16211 27.0459-3.06641Q27.6953-4.9707 27.6953-7.05078Q27.6953-9.14062 27.0459-11.04Q26.3965-12.9395 25.2197-14.5312Q24.043-16.123 22.4512-17.2998Q20.8594-18.4766 18.9551-19.126Q17.0508-19.7754 14.9609-19.7754Q12.8711-19.7754 10.9717-19.126Q9.07227-18.4766 7.48535-17.2998Q5.89844-16.123 4.72168-14.5312Q3.54492-12.9395 2.90039-11.04Q2.25586-9.14062 2.25586-7.05078Q2.25586-4.9707 2.90527-3.06641Q3.55469-1.16211 4.72656 0.429688Q5.89844 2.02148 7.49023 3.19336Q9.08203 4.36523 10.9814 5.01465Q12.8809 5.66406 14.9707 5.66406ZM14.9707 3.84766Q13.1641 3.84766 11.5283 3.2959Q9.89258 2.74414 8.53516 1.74805Q7.17773 0.751953 6.17676-0.610352Q5.17578-1.97266 4.62891-3.6084Q4.08203-5.24414 4.08203-7.05078Q4.08203-8.86719 4.62891-10.5029Q5.17578-12.1387 6.17188-13.501Q7.16797-14.8633 8.52539-15.8594Q9.88281-16.8555 11.5186-17.4023Q13.1543-17.9492 14.9609-17.9492Q16.7773-17.9492 18.4131-17.4023Q20.0488-16.8555 21.4111-15.8594Q22.7734-14.8633 23.7695-13.501Q24.7656-12.1387 25.3174-10.5029Q25.8691-8.86719 25.8691-7.05078Q25.8789-5.24414 25.332-3.6084Q24.7852-1.97266 23.7842-0.610352Q22.7832 0.751953 21.4209 1.74805Q20.0586 2.74414 18.4229 3.2959Q16.7871 3.84766 14.9707 3.84766ZM9.19922-7.05078Q9.19922-6.66992 9.45801-6.4209Q9.7168-6.17188 10.1172-6.17188L14.0625-6.17188L14.0625-2.2168Q14.0625-1.81641 14.3115-1.55762Q14.5605-1.29883 14.9512-1.29883Q15.3516-1.29883 15.6104-1.55273Q15.8691-1.80664 15.8691-2.2168L15.8691-6.17188L19.8242-6.17188Q20.2246-6.17188 20.4785-6.4209Q20.7324-6.66992 20.7324-7.05078Q20.7324-7.46094 20.4785-7.71484Q20.2246-7.96875 19.8242-7.96875L15.8691-7.96875L15.8691-11.9141Q15.8691-12.3242 15.6104-12.583Q15.3516-12.8418 14.9512-12.8418Q14.5605-12.8418 14.3115-12.583Q14.0625-12.3242 14.0625-11.9141L14.0625-7.96875L10.1172-7.96875Q9.70703-7.96875 9.45312-7.71484Q9.19922-7.46094 9.19922-7.05078Z"/>
  </g>
  <text style="stroke:none;fill:black;font-family:sans-serif;font-size:13;font-weight:bold;" transform="matrix(1 0 0 1 263 1953)">Design Variations</text>
  <text style="stroke:none;fill:black;font-family:sans-serif;font-size:13;" transform="matrix(1 0 0 1 263 1971)">Symbols are supported in up to nine weights and three scales.</text>
  <text style="stroke:none;fill:black;font-family:sans-serif;font-size:13;" transform="matrix(1 0 0 1 263 1989)">For optimal layout with text and other symbols, vertically align</text>
  <text style="stroke:none;fill:black;font-family:sans-serif;font-size:13;" transform="matrix(1 0 0 1 263 2007)">symbols with the adjacent text.</text>
  <line style="fill:none;stroke:#00AEEF;stroke-width:0.5;opacity:1.0;" x1="776" x2="776" y1="1919" y2="1933"/>
  <g transform="matrix(1 0 0 1 776 1933)">
   <path d="M3.31055 0.15625Q3.70117 0.15625 3.91602-0.00976562Q4.13086-0.175781 4.26758-0.585938L5.52734-4.0332L11.2891-4.0332L12.5488-0.585938Q12.6855-0.175781 12.9004-0.00976562Q13.1152 0.15625 13.4961 0.15625Q13.8867 0.15625 14.1162-0.0585938Q14.3457-0.273438 14.3457-0.644531Q14.3457-0.869141 14.2383-1.17188L9.6582-13.3691Q9.48242-13.8184 9.17969-14.043Q8.87695-14.2676 8.4082-14.2676Q7.5-14.2676 7.17773-13.3789L2.59766-1.16211Q2.49023-0.859375 2.49023-0.634766Q2.49023-0.263672 2.70996-0.0537109Q2.92969 0.15625 3.31055 0.15625ZM6.00586-5.51758L8.37891-12.0898L8.42773-12.0898L10.8008-5.51758Z"/>
  </g>
  <line style="fill:none;stroke:#00AEEF;stroke-width:0.5;opacity:1.0;" x1="793.197" x2="793.197" y1="1919" y2="1933"/>
  <text style="stroke:none;fill:black;font-family:sans-serif;font-size:13;font-weight:bold;" transform="matrix(1 0 0 1 776 1953)">Margins</text>
  <text style="stroke:none;fill:black;font-family:sans-serif;font-size:13;" transform="matrix(1 0 0 1 776 1971)">Leading and trailing margins on the left and right side of each symbol</text>
  <text style="stroke:none;fill:black;font-family:sans-serif;font-size:13;" transform="matrix(1 0 0 1 776 1989)">can be adjusted by modifying the x-location of the margin guidelines.</text>
  <text style="stroke:none;fill:black;font-family:sans-serif;font-size:13;" transform="matrix(1 0 0 1 776 2007)">Modifications are automatically applied proportionally to all</text>
  <text style="stroke:none;fill:black;font-family:sans-serif;font-size:13;" transform="matrix(1 0 0 1 776 2025)">scales and weights.</text>
  <g transform="matrix(1 0 0 1 1289 1933)">
   <path d="M2.8418 1.86523L4.54102 3.57422Q5.18555 4.22852 5.90332 4.17969Q6.62109 4.13086 7.31445 3.35938L18.0078-8.42773L17.041-9.4043L6.42578 2.27539Q6.16211 2.57812 5.89355 2.61719Q5.625 2.65625 5.27344 2.30469L4.10156 1.14258Q3.75 0.791016 3.79395 0.522461Q3.83789 0.253906 4.14062-0.0195312L15.6152-10.8203L14.6387-11.7871L3.04688-0.898438Q2.30469-0.214844 2.25098 0.498047Q2.19727 1.21094 2.8418 1.86523ZM9.25781-16.3281Q8.94531-16.0254 8.90625-15.6348Q8.86719-15.2441 9.04297-14.9512Q9.21875-14.6777 9.55566-14.541Q9.89258-14.4043 10.3809-14.5215Q11.4746-14.7754 12.5977-14.7314Q13.7207-14.6875 14.7949-13.9844L14.209-12.5293Q13.9551-11.9043 14.0674-11.4404Q14.1797-10.9766 14.5801-10.5664L16.875-8.25195Q17.2363-7.88086 17.5781-7.82227Q17.9199-7.76367 18.3398-7.8418L19.4043-8.03711L20.0684-7.36328L20.0293-6.80664Q20-6.43555 20.1221-6.12305Q20.2441-5.81055 20.6055-5.44922L21.3672-4.70703Q21.7285-4.3457 22.1533-4.33105Q22.5781-4.31641 22.9297-4.66797L25.8398-7.58789Q26.1914-7.93945 26.1816-8.35449Q26.1719-8.76953 25.8105-9.13086L25.0391-9.89258Q24.6875-10.2539 24.3799-10.3857Q24.0723-10.5176 23.7109-10.4883L23.1348-10.4395L22.4902-11.0742L22.7344-12.1973Q22.832-12.6172 22.6953-12.9834Q22.5586-13.3496 22.1191-13.7891L19.9219-15.9766Q18.6719-17.2168 17.2607-17.8369Q15.8496-18.457 14.4189-18.4814Q12.9883-18.5059 11.665-17.959Q10.3418-17.4121 9.25781-16.3281ZM10.752-15.957Q11.6602-16.6211 12.7002-16.9043Q13.7402-17.1875 14.8047-17.085Q15.8691-16.9824 16.8701-16.5137Q17.8711-16.0449 18.7012-15.2051L21.1328-12.793Q21.3086-12.6172 21.3525-12.4512Q21.3965-12.2852 21.3379-12.0312L21.0156-10.5469L22.5195-9.0625L23.5059-9.12109Q23.6914-9.13086 23.7891-9.09668Q23.8867-9.0625 24.0332-8.91602L24.6094-8.33984L22.168-5.89844L21.5918-6.47461Q21.4453-6.62109 21.4062-6.71875Q21.3672-6.81641 21.377-7.01172L21.4453-7.98828L19.9512-9.47266L18.4277-9.21875Q18.1836-9.16992 18.042-9.2041Q17.9004-9.23828 17.7148-9.41406L15.7129-11.416Q15.5176-11.5918 15.4932-11.7529Q15.4688-11.9141 15.5859-12.1875L16.4648-14.2773Q15.293-15.3711 13.8281-15.791Q12.3633-16.2109 10.8398-15.7617Q10.7227-15.7324 10.6885-15.8057Q10.6543-15.8789 10.752-15.957Z"/>
  </g>
  <text style="stroke:none;fill:black;font-family:sans-serif;font-size:13;font-weight:bold;" transform="matrix(1 0 0 1 1289 1953)">Exporting</text>
  <text style="stroke:none;fill:black;font-family:sans-serif;font-size:13;" transform="matrix(1 0 0 1 1289 1971)">Symbols should be outlined when exporting to ensure the</text>
  <text style="stroke:none;fill:black;font-family:sans-serif;font-size:13;" transform="matrix(1 0 0 1 1289 1989)">design is preserved when submitting to Xcode.</text>
  <text id="template-version" style="stroke:none;fill:black;font-family:sans-serif;font-size:13;text-anchor:end;" transform="matrix(1 0 0 1 3036 1933)">Template v.2.0</text>
  <text style="stroke:none;fill:black;font-family:sans-serif;font-size:13;text-anchor:end;" transform="matrix(1 0 0 1 3036 1951)">Requires Xcode 12 or greater</text>
  <text id="descriptive-name" style="stroke:none;fill:black;font-family:sans-serif;font-size:13;text-anchor:end;" transform="matrix(1 0 0 1 3036 1969)">Generated from brave.bread.and.carrot</text>
  <text style="stroke:none;fill:black;font-family:sans-serif;font-size:13;text-anchor:end;" transform="matrix(1 0 0 1 3036 1987)">Typeset at 100 points</text>
  <text style="stroke:none;fill:black;font-family:sans-serif;font-size:13;" transform="matrix(1 0 0 1 263 726)">Small</text>
  <text style="stroke:none;fill:black;font-family:sans-serif;font-size:13;" transform="matrix(1 0 0 1 263 1156)">Medium</text>
  <text style="stroke:none;fill:black;font-family:sans-serif;font-size:13;" transform="matrix(1 0 0 1 263 1586)">Large</text>
 </g>
 <g id="Guides">
  <g id="H-reference" style="fill:#27AAE1;stroke:none;" transform="matrix(1 0 0 1 339 696)">
   <path d="M0.993347 0L3.6377 0L29.3282-67.1326L30.0301-67.1326L30.0301-70.459L28.1227-70.459ZM11.6882-24.4797L46.9818-24.4797L46.2311-26.7288L12.4382-26.7288ZM55.1193 0L57.7637 0L30.6381-70.459L29.4327-70.459L29.4327-67.1326Z"/>
  </g>
  <line id="Baseline-S" style="fill:none;stroke:#27AAE1;opacity:1;stroke-width:0.5;" x1="263" x2="3036" y1="696" y2="696"/>
  <line id="Capline-S" style="fill:none;stroke:#27AAE1;opacity:1;stroke-width:0.5;" x1="263" x2="3036" y1="625.541" y2="625.541"/>
  <g id="H-reference" style="fill:#27AAE1;stroke:none;" transform="matrix(1 0 0 1 339 1126)">
   <path d="M0.993347 0L3.6377 0L29.3282-67.1326L30.0301-67.1326L30.0301-70.459L28.1227-70.459ZM11.6882-24.4797L46.9818-24.4797L46.2311-26.7288L12.4382-26.7288ZM55.1193 0L57.7637 0L30.6381-70.459L29.4327-70.459L29.4327-67.1326Z"/>
  </g>
  <line id="Baseline-M" style="fill:none;stroke:#27AAE1;opacity:1;stroke-width:0.5;" x1="263" x2="3036" y1="1126" y2="1126"/>
  <line id="Capline-M" style="fill:none;stroke:#27AAE1;opacity:1;stroke-width:0.5;" x1="263" x2="3036" y1="1055.54" y2="1055.54"/>
  <g id="H-reference" style="fill:#27AAE1;stroke:none;" transform="matrix(1 0 0 1 339 1556)">
   <path d="M0.993347 0L3.6377 0L29.3282-67.1326L30.0301-67.1326L30.0301-70.459L28.1227-70.459ZM11.6882-24.4797L46.9818-24.4797L46.2311-26.7288L12.4382-26.7288ZM55.1193 0L57.7637 0L30.6381-70.459L29.4327-70.459L29.4327-67.1326Z"/>
  </g>
  <line id="Baseline-L" style="fill:none;stroke:#27AAE1;opacity:1;stroke-width:0.5;" x1="263" x2="3036" y1="1556" y2="1556"/>
  <line id="Capline-L" style="fill:none;stroke:#27AAE1;opacity:1;stroke-width:0.5;" x1="263" x2="3036" y1="1485.54" y2="1485.54"/>
  <line id="left-margin" style="fill:none;stroke:#00AEEF;stroke-width:0.5;opacity:1.0;" x1="1382.38" x2="1382.38" y1="1030.78" y2="1150.12"/>
  <line id="right-margin" style="fill:none;stroke:#00AEEF;stroke-width:0.5;opacity:1.0;" x1="1517.31" x2="1517.31" y1="1030.78" y2="1150.12"/>
 </g>
 <g id="Symbols">
  <g id="Regular-L" transform="matrix(1 0 0 1 1365.88 1556)">
   <path d="M38.3258-94.052C32.0824-92.3338 27.4557-89.8072 24.7765-86.8289C20.2591-81.8069 20.5892-73.9427 25.0508-66.8607C25.7863-65.6932 26.2252-64.2959 26.2252-62.8083L26.2251-14.615L48.5773-14.615C54.5521-27.7804 62.0274-40.2429 70.9778-48.2708C76.1868-52.9428 82.2006-56.3706 88.8898-57.263L88.8898-62.8909C88.8898-64.1614 89.2113-65.387 89.7886-66.4656C91.8813-70.3752 93.1883-73.9415 93.3881-77.2647C93.5755-80.3852 92.8125-83.6246 90.0794-87.1404C88.4133-89.2832 84.6824-91.6181 78.791-93.4329C73.0879-95.1895 66.1025-96.2286 58.8918-96.3685C51.6824-96.5084 44.4771-95.745 38.3258-94.052ZM100.12-56.3306C100.83-56.118 101.538-55.8763 102.245-55.6059C103.186-67.627 107.043-76.9028 112.31-81.9564C115.646-85.1582 120.616-87.4744 125.77-85.2932C128.348-84.202 130.274-82.2555 131.676-79.8576C132.127-80.0478 132.596-80.2312 133.08-80.4032C137.261-81.8909 144.539-83.0997 149.992-77.0987C155.28-71.2775 153.902-64.4413 152.182-60.3583C151.921-59.7392 151.64-59.1496 151.353-58.595C152.103-57.9226 152.807-57.1835 153.435-56.3831C155.598-53.6277 157.4-49.3252 155.517-44.5604C153.783-40.1713 149.528-37.0911 144.011-34.8651C139.832-33.1792 134.351-31.7452 127.299-30.6301C128.286-28.0879 128.902-25.523 129.138-22.9414C129.619-17.681 128.489-12.7159 126.248-8.16067C121.862 0.750881 113.166 8.22579 103.268 14.3665C85.349 25.4847 61.2185 33.6044 42.7369 38.1167C37.2831 39.4482 32.4144 34.5005 33.7413 29.0606C35.6069 21.4131 38.0722 12.8668 41.0867 4.22335C41.9638 1.70835 42.8886-0.818035 43.8599-3.33566L22.4818-3.33566C18.347-3.33566 14.9952-6.70213 14.9952-10.8552L14.9952-61.7597C9.48603-71.1423 7.52388-84.4744 16.444-94.3906C21.1331-99.6034 28.0663-102.924 35.3582-104.93C42.7421-106.963 51.0478-107.802 59.1087-107.646C67.1684-107.489 75.2131-106.333 82.0835-104.217C88.7654-102.158 95.1515-98.9434 98.9305-94.0817C103.339-88.4114 104.95-82.4652 104.597-76.5854C104.278-71.2547 102.363-66.3018 100.12-61.9622L100.12-56.3306ZM54.2336 0.993533C53.3449 3.3053 52.4949 5.6302 51.685 7.95248C49.5863 13.9697 47.764 19.944 46.2394 25.5697C60.7599 21.6321 77.4318 15.7541 91.1525 8.35806L83.5427 0.743873C81.3454-1.45401 81.3386-5.02459 83.5269-7.23123C85.7161-9.43787 89.2709-9.44488 91.4679-7.247L101.066 2.35747C108.377-2.66639 113.601-7.91714 116.181-13.1582C117.63-16.1025 118.222-18.9924 117.955-21.9104C117.687-24.8441 116.517-28.1685 113.888-31.9081C112.661-33.6531 111.118-35.4837 109.211-37.3919C107.546-39.0581 105.939-40.4468 104.396-41.5908C100.469-44.5007 96.9832-45.8066 93.9207-46.1287C90.4351-46.4953 86.8978-45.6323 83.2736-43.4641L93.0236-33.7083C95.2207-31.5104 95.2277-27.9399 93.0385-25.7332C90.8503-23.5266 87.2946-23.5196 85.0985-25.7175L74.7308-36.0905C68.9581-29.5955 63.6188-20.5105 58.929-10.2289L71.2438 2.09291C73.4408 4.2908 73.4476 7.86137 71.2591 10.068C69.0705 12.2747 65.5152 12.2817 63.3183 10.0838L54.2336 0.993533ZM120.998-41.1301C129.934-42.2491 135.936-43.7628 139.825-45.3316C143.925-46.986 144.891-48.3743 145.053-48.6679C145.014-48.7821 144.904-49.0334 144.617-49.3996C143.881-50.3372 142.597-51.2476 141.431-51.7141L133.924-54.7191L139.328-60.7163L139.338-60.7275L139.353-60.7447C139.382-60.7797 139.438-60.8458 139.516-60.9401C139.67-61.1298 139.902-61.427 140.172-61.8087C140.726-62.5928 141.366-63.631 141.84-64.7552C142.842-67.132 142.63-68.4677 141.696-69.4955C140.926-70.3433 139.647-70.7738 136.829-69.7711C135.553-69.3172 134.353-68.6798 133.441-68.1244C132.996-67.8533 132.645-67.6173 132.416-67.458C132.303-67.3787 132.222-67.3196 132.176-67.286L132.138-67.2574L125.065-61.798L123.235-70.586C122.627-73.504 121.79-74.5207 121.488-74.8121C121.246-74.731 120.781-74.4863 120.067-73.8005C116.954-70.8139 113.074-62.5243 113.257-48.9392C114.557-47.8564 115.85-46.671 117.137-45.383C118.547-43.9726 119.834-42.5552 120.998-41.1301Z"/>
  </g>
  <g id="Regular-M" transform="matrix(1 0 0 1 1382.38 1126)">
   <path d="M31.9928-81.6821C27.1605-80.3523 23.5796-78.3967 21.506-76.0916C18.0096-72.2048 18.2652-66.1181 21.7183-60.6368C22.2875-59.7331 22.6272-58.6517 22.6272-57.5003L22.6271-20.2001L39.9271-20.2001C44.5515-30.3897 50.3371-40.0354 57.2645-46.2487C61.2962-49.8647 65.9506-52.5177 71.1279-53.2084L71.1279-57.5642C71.1279-58.5476 71.3767-59.4962 71.8235-60.331C73.4433-63.3569 74.4549-66.1171 74.6094-68.6892C74.7545-71.1044 74.164-73.6115 72.0486-76.3327C70.7591-77.9912 67.8715-79.7984 63.3117-81.2029C58.8977-82.5625 53.4912-83.3667 47.9103-83.475C42.3304-83.5833 36.7537-82.9924 31.9928-81.6821ZM79.8199-52.4868C80.3691-52.3222 80.9176-52.1351 81.4647-51.9258C82.1929-61.2298 85.1781-68.4091 89.2542-72.3204C91.8367-74.7985 95.683-76.5912 99.6724-74.903C101.668-74.0585 103.158-72.552 104.243-70.696C104.593-70.8432 104.955-70.9852 105.33-71.1183C108.566-72.2698 114.199-73.2053 118.419-68.5607C122.512-64.0553 121.446-58.7642 120.114-55.6041C119.912-55.1249 119.695-54.6686 119.473-54.2393C120.053-53.7189 120.598-53.1469 121.084-52.5274C122.758-50.3948 124.153-47.0648 122.696-43.3769C121.353-39.9799 118.06-37.5959 113.79-35.873C110.556-34.5682 106.313-33.4583 100.855-32.5953C101.62-30.6277 102.096-28.6425 102.279-26.6444C102.651-22.5731 101.777-18.7302 100.042-15.2046C96.6478-8.30726 89.9166-2.52189 82.2566 2.23089C68.3874 10.8361 49.7111 17.1204 35.4068 20.6128C31.1857 21.6434 27.4175 17.814 28.4445 13.6037C29.8884 7.68472 31.7965 1.07016 34.1296-5.61967C34.8085-7.56621 35.5242-9.52156 36.276-11.4701L19.73-11.4701C16.5297-11.4701 13.9355-14.0757 13.9355-17.2901L13.9355-56.6887C9.67157-63.9506 8.15292-74.2693 15.0569-81.9442C18.6861-85.9787 24.0522-88.5486 29.6959-90.1017C35.4109-91.6745 41.8392-92.3244 48.0782-92.2033C54.3162-92.0823 60.5425-91.1871 65.86-89.5492C71.0316-87.9563 75.9743-85.4679 78.8992-81.7051C82.3108-77.3164 83.5584-72.7142 83.2851-68.1634C83.0377-64.0376 81.5556-60.2042 79.8199-56.8455L79.8199-52.4868ZM44.305-8.11945C43.6171-6.33021 42.9593-4.5308 42.3325-2.73342C40.7081 1.92376 39.2977 6.54772 38.1177 10.9018C49.3561 7.85422 62.2597 3.30484 72.8792-2.41951L66.9894-8.31268C65.2888-10.0138 65.2835-12.7773 66.9772-14.4852C68.6715-16.1931 71.4228-16.1985 73.1233-14.4974L80.5521-7.06381C86.2107-10.9521 90.2536-15.0161 92.2503-19.0725C93.3717-21.3513 93.8301-23.588 93.6233-25.8464C93.4158-28.1171 92.5107-30.6901 90.476-33.5845C89.5261-34.935 88.3322-36.3518 86.8562-37.8287C85.5673-39.1183 84.3238-40.1931 83.1292-41.0786C80.0897-43.3308 77.392-44.3415 75.0217-44.5908C72.3239-44.8745 69.5861-44.2066 66.7811-42.5284L74.3274-34.9777C76.0278-33.2766 76.0332-30.5131 74.3389-28.8052C72.6453-27.0974 69.8933-27.0919 68.1935-28.793L60.1693-36.8215C55.7013-31.7945 51.5688-24.763 47.9391-16.8053L57.4704-7.26856C59.1708-5.56746 59.1761-2.80393 57.4822-1.09605C55.7883 0.611829 53.0366 0.617253 51.3363-1.08385L44.305-8.11945ZM95.9786-40.722C102.895-41.588 107.541-42.7596 110.55-43.9739C113.724-45.2543 114.471-46.3288 114.597-46.556C114.567-46.6444 114.481-46.8389 114.259-47.1223C113.689-47.848 112.696-48.5527 111.794-48.9137L105.983-51.2395L110.166-55.8812L110.173-55.8898L110.185-55.9031C110.208-55.9302 110.251-55.9814 110.311-56.0544C110.43-56.2012 110.61-56.4312 110.819-56.7267C111.248-57.3336 111.743-58.1371 112.11-59.0071C112.885-60.8468 112.721-61.8806 111.998-62.676C111.402-63.3322 110.413-63.6654 108.231-62.8893C107.244-62.538 106.315-62.0447 105.61-61.6149C105.265-61.405 104.993-61.2224 104.816-61.099C104.729-61.0377 104.666-60.9919 104.631-60.966L104.601-60.9438L99.1266-56.7184L97.7103-63.52C97.2397-65.7785 96.5916-66.5654 96.3583-66.7909C96.1705-66.7281 95.8112-66.5388 95.2579-66.008C92.849-63.6965 89.8461-57.2806 89.9878-46.766C90.9933-45.928 91.994-45.0105 92.9907-44.0136C94.0816-42.922 95.0776-41.825 95.9786-40.722Z"/>
  </g>
  <g id="Regular-S" transform="matrix(1 0 0 1 1394.88 696)">
   <path d="M27.195-70.8787C23.4318-69.8431 20.6432-68.3202 19.0283-66.525C16.3055-63.4981 16.5045-58.758 19.1936-54.4894C19.6369-53.7857 19.9015-52.9435 19.9015-52.0468L19.9014-22.9989L33.374-22.9989C36.9752-30.9342 41.4809-38.4458 46.8757-43.2845C50.0154-46.1006 53.6401-48.1666 57.6719-48.7045L57.6719-52.0966C57.6719-52.8624 57.8657-53.6012 58.2137-54.2513C59.4751-56.6078 60.2628-58.7573 60.3832-60.7603C60.4962-62.6412 60.0363-64.5936 58.389-66.7128C57.3847-68.0044 55.136-69.4117 51.585-70.5055C48.1475-71.5643 43.9371-72.1906 39.591-72.2749C35.2456-72.3593 30.9027-71.8991 27.195-70.8787ZM64.4409-48.1425C64.8686-48.0143 65.2957-47.8687 65.7218-47.7057C66.2889-54.9513 68.6137-60.5422 71.788-63.5882C73.7992-65.518 76.7945-66.9141 79.9013-65.5994C81.4552-64.9417 82.6157-63.7685 83.461-62.3231C83.733-62.4378 84.0154-62.5483 84.3069-62.652C86.827-63.5487 91.2137-64.2773 94.5005-60.6603C97.688-57.1516 96.8575-53.0311 95.8205-50.5702C95.6631-50.197 95.4942-49.8416 95.321-49.5073C95.7729-49.1021 96.1975-48.6566 96.576-48.1742C97.8797-46.5133 98.9658-43.9201 97.8311-41.0481C96.7856-38.4026 94.2211-36.5461 90.8958-35.2044C88.3767-34.1882 85.073-33.3239 80.8226-32.6518C81.4177-31.1195 81.7889-29.5735 81.9309-28.0175C82.2208-24.8469 81.5402-21.8542 80.189-19.1086C77.5459-13.7372 72.3039-9.2318 66.3385-5.53052C55.5378 1.17086 40.9933 6.06489 29.8537 8.78462C26.5665 9.58718 23.6319 6.60503 24.4318 3.32615C25.5562-1.28329 27.0421-6.43445 28.8591-11.6442C29.3878-13.1601 29.9452-14.6829 30.5306-16.2003L17.6452-16.2003C15.153-16.2003 13.1327-18.2294 13.1327-20.7327L13.1327-51.4148C9.81213-57.0701 8.62947-65.1059 14.006-71.0828C16.8323-74.2247 21.0112-76.226 25.4063-77.4356C29.8569-78.6604 34.863-79.1665 39.7217-79.0722C44.5796-78.978 49.4284-78.2808 53.5695-77.0053C57.597-75.7648 61.4461-73.8269 63.7239-70.8966C66.3808-67.4789 67.3523-63.8948 67.1395-60.3509C66.9468-57.1379 65.7926-54.1526 64.4409-51.5369L64.4409-48.1425ZM36.7833-13.591C36.2476-12.1976 35.7353-10.7963 35.2472-9.39653C33.9822-5.7697 32.8838-2.16874 31.9648 1.22207C40.7169-1.15129 50.7658-4.69417 59.0358-9.15207L54.449-13.7414C53.1246-15.0662 53.1205-17.2183 54.4395-18.5484C55.759-19.8784 57.9016-19.8826 59.2258-18.5579L65.0111-12.7689C69.4178-15.7969 72.5663-18.9618 74.1213-22.1208C74.9946-23.8954 75.3515-25.6373 75.1905-27.3961C75.0289-29.1643 74.324-31.1681 72.7395-33.4221C71.9997-34.4739 71.0699-35.5773 69.9205-36.7274C68.9168-37.7317 67.9484-38.5687 67.0181-39.2583C64.651-41.0122 62.5501-41.7993 60.7042-41.9934C58.6033-42.2144 56.4713-41.6942 54.2868-40.3873L60.1636-34.5072C61.4878-33.1824 61.492-31.0303 60.1726-29.7002C58.8536-28.3702 56.7105-28.366 55.3868-29.6907L49.1378-35.943C45.6583-32.0282 42.4401-26.5523 39.6134-20.3552L47.036-12.9283C48.3602-11.6036 48.3643-9.45145 47.0452-8.12141C45.7261-6.79138 43.5832-6.78716 42.259-8.11191L36.7833-13.591ZM77.0247-38.9806C82.4108-39.655 86.0287-40.5674 88.3725-41.513C90.8441-42.5102 91.4259-43.3469 91.5236-43.5239C91.5004-43.5927 91.4338-43.7442 91.2607-43.9649C90.8171-44.53 90.0436-45.0788 89.3408-45.3599L84.8159-47.1712L88.0731-50.7859L88.0789-50.7927L88.0879-50.803C88.1059-50.8241 88.1396-50.864 88.1861-50.9208C88.279-51.0352 88.419-51.2143 88.5816-51.4444C88.9158-51.917 89.3012-52.5427 89.5869-53.2203C90.1909-54.6529 90.0632-55.458 89.5003-56.0775C89.0362-56.5885 88.2653-56.848 86.5667-56.2436C85.7974-55.97 85.0746-55.5859 84.525-55.2511C84.2567-55.0877 84.045-54.9455 83.9072-54.8494C83.8391-54.8016 83.79-54.766 83.7625-54.7458L83.7393-54.7285L79.4762-51.4379L78.3732-56.7348C78.0068-58.4936 77.502-59.1064 77.3204-59.282C77.1741-59.2331 76.8943-59.0857 76.4635-58.6723C74.5875-56.8722 72.249-51.8757 72.3593-43.6874C73.1423-43.0348 73.9217-42.3203 74.6978-41.5439C75.5474-40.6938 76.323-39.8395 77.0247-38.9806Z"/>
  </g>
 </g>
</svg>
