  <svg width="42" height="42" xmlns="http://www.w3.org/2000/svg">
    <g transform="translate(1 1)" fill="none" fill-rule="evenodd">
      <circle stroke="#FBA" cx="20" cy="20" r="20"/>
      <path d="M20.625 19.725h8.125v-2.5h-8.125v2.5zm0 8.75H27.5v-7.5h-6.875v7.5zm-8.125 0h6.875v-7.5H12.5v7.5zm-1.25-8.75h8.125v-2.5H11.25v2.5zm4.144-5.19a1.363 1.363 0 0 1 0-1.915c.254-.255.59-.395.947-.395s.693.14.947.395c.842.848 1.68 3.013 1.388 3.314 0 0-.052.041-.231.041-.864 0-2.512-.897-3.051-1.44zm5.929 1.4c-.29-.302.547-2.467 1.39-3.315.507-.508 1.387-.507 1.893 0a1.363 1.363 0 0 1 0 1.915c-.538.543-2.187 1.44-3.051 1.44-.179 0-.231-.04-.232-.04zm7.427.04h-3.955c.284-.193.527-.386.697-.558a2.615 2.615 0 0 0 0-3.678c-.978-.985-2.686-.986-3.666 0-.541.544-1.98 2.758-1.781 4.236h-.09c.198-1.478-1.24-3.692-1.781-4.236-.98-.986-2.688-.985-3.666 0a2.616 2.616 0 0 0-.002 3.678c.172.172.415.365.699.558H11.25c-.689 0-1.25.562-1.25 1.25v3.125c0 .345.28.625.625.625h.625v7.5c0 .69.561 1.25 1.25 1.25h15c.689 0 1.25-.56 1.25-1.25v-7.5h.625c.345 0 .625-.28.625-.625v-3.125c0-.688-.561-1.25-1.25-1.25z" fill="#FB542B"/>
      <path d="M12.5 21h6.667v7.5H12.5zM20.833 21H27.5v7.5h-6.667zM18.333 16c-.555-2.222-1.11-3.333-1.666-3.333-.834 0-1.667.833-.834 1.666 0 .556.834 1.111 2.5 1.667zM21.321 16c.556-2.222 1.112-3.333 1.667-3.333.833 0 1.667.833.833 1.666 0 .556-.833 1.111-2.5 1.667z"/>
    </g>
  </svg>