  <svg width="42" height="42" xmlns="http://www.w3.org/2000/svg">
    <g transform="translate(1 1)" fill="none" fill-rule="evenodd">
      <circle stroke="#9F22A1" opacity=".302" cx="20" cy="20" r="20"/>
      <path d="M12.485 18.44c1.497-1.47 4.005-1.138 5.05.67.136.234.622.664 1.232.65.488-.011.924-.298 1.164-.676.466-.736 1.033-1.13 1.536-1.338 1.115 1.938 3.495 3.414 4.394 3.703-.246 2.082-1.464 4.038-3.63 5.825a17.873 17.873 0 0 1-3.495 2.235c-3.5-1.662-7.184-4.834-7.188-8.845 0-.839.332-1.629.937-2.224zm6.767 12.513a19.42 19.42 0 0 0 3.975-2.515c2.701-2.23 4.12-4.74 4.222-7.466 1.404-.803 2.388-2.022 3.319-3.016 1.058-1.13 1.508-2.887 1.058-2.448-.45.44-1.349-1.318-1.799.879-.608 1.188-2.601 2.906-3.847 3.534-1.935-.955-3.911-2.718-3.913-4.86-.002-1.584 2.143-2.12 2.93-.76.388.669 1.472.764 1.958-.004.732-1.155 2.511-1.025 2.759.06.563 2.469.113 2.178.113 1.59 0-1.318 1.528-.105 1.8-.439.277-.342-.038-1.134-.536-1.845-1.252-1.787-3.66-2.265-5.113-.62-2.017-2.271-6.329-.68-5.293 3.294-.71.288-1.5.815-2.157 1.774-1.632-2.462-5.187-2.86-7.338-.745a4.59 4.59 0 0 0-1.39 3.3c.005 4.777 4.252 8.447 8.226 10.288a1.22 1.22 0 0 0 1.026-.001z" fill="#9F22A1"/>
    </g>
  </svg>