  <svg width="42" height="42" xmlns="http://www.w3.org/2000/svg">
    <g transform="translate(1 1)" fill="none" fill-rule="evenodd">
      <circle stroke="#D666A2" opacity=".5" cx="20" cy="20" r="20"/>
      <path d="M25.368 17.275v-5.508c0-.287-.128-.542-.337-.673a.537.537 0 0 0-.65.05c-4.49 3.785-7.069 4.272-8.813 4.272H10.58C8.606 15.416 7 17.374 7 19.782v1.622c0 2.407 1.606 4.366 3.58 4.366h2.394l2.599 7.678c.097.293.332.474.578.474a.563.563 0 0 0 .24-.056c.323-.162.47-.605.343-.998L14.33 25.77h1.233c6.076 0 8.562 3.923 8.675 4.104.123.2.307.312.501.312a.518.518 0 0 0 .195-.038c.255-.106.43-.393.43-.723v-5.501c1.242-.35 2.168-1.703 2.168-3.325.01-1.621-.92-2.981-2.164-3.324zM8.253 21.404v-1.622c0-1.566 1.044-2.838 2.328-2.838h2.189v7.298h-2.19c-1.283 0-2.327-1.273-2.327-2.838zm15.862 6.18c-1.391-1.396-4.123-3.342-8.552-3.342h-1.545v-7.298h1.545c1.79 0 4.358-.449 8.552-3.742v14.383zm1.253-5.27v-3.436c.543.293.916.954.916 1.721.005.761-.373 1.422-.916 1.715z" fill="#C12D7C"/>
      <path d="M33.351 19.625h-2.526c-.359 0-.649.322-.649.719 0 .397.29.719.65.719h2.525c.359 0 .649-.322.649-.72 0-.402-.29-.718-.649-.718zM29.923 18.087c.095.283.324.46.567.46.075 0 .15-.018.225-.047l2.31-1.073c.314-.148.468-.566.344-.938-.125-.371-.478-.554-.792-.407l-2.31 1.074c-.31.14-.464.56-.344.931zM33.025 23.624l-2.308-1.073c-.314-.147-.667.035-.792.407-.124.371.03.79.344.937l2.308 1.074c.075.035.15.047.224.047.244 0 .473-.177.568-.46.124-.366-.03-.784-.344-.932z" fill="#F3CD72"/>
    </g>
  </svg>