 <svg  version="1.0" xmlns="http://www.w3.org/2000/svg"  width="300.000000pt" height="300.000000pt" viewBox="0 0 300.000000 300.000000"  preserveAspectRatio="xMidYMid meet">  <g transform="translate(0.000000,300.000000) scale(0.050000,-0.050000)" fill="#00be64" stroke="none"> <path d="M218 5782 l-78 -77 0 -2705 0 -2705 78 -77 77 -78 343 0 342 0 0 2351 0 2351 79 84 78 84 1861 0 1861 0 76 -75 75 -76 6 -539 6 -540 419 0 419 0 0 962 0 963 -78 77 -77 78 -2705 0 -2705 0 -77 -78z"/> <path d="M2200 3000 l0 -760 800 0 800 0 0 760 0 760 -800 0 -800 0 0 -760z"/> <path d="M5020 1689 l0 -531 -79 -84 -78 -84 -1332 -5 -1331 -6 0 -419 0 -420 1752 0 1753 0 77 78 78 77 0 963 0 962 -420 0 -420 0 0 -531z"/> </g> </svg> 