<svg fill="none" xmlns="http://www.w3.org/2000/svg" viewBox="0 0 448 238">
  <path d="M68.365 62.548h140c3.3 0 6 2.7 6 6s-2.7 6-6 6h-140c-3.3 0-6-2.7-6-6s2.7-6 6-6zM68.365 91.548h161c3.3 0 6 2.7 6 6s-2.7 6-6 6h-161c-3.3 0-6-2.7-6-6s2.7-6 6-6zM290.365 62.548h53c3.3 0 6 2.7 6 6s-2.7 6-6 6h-53c-3.3 0-6-2.7-6-6s2.7-6 6-6zM290.365 120.548h53c3.3 0 6 2.7 6 6v87c0 3.3-2.7 6-6 6h-53c-3.3 0-6-2.7-6-6v-87c0-3.3 2.7-6 6-6zM290.365 91.548h53c3.3 0 6 2.7 6 6s-2.7 6-6 6h-53c-3.3 0-6-2.7-6-6s2.7-6 6-6zM68.365 178.548h155c3.3 0 6 2.7 6 6s-2.7 6-6 6h-155c-3.3 0-6-2.7-6-6s2.7-6 6-6zM68.365 120.548h181c3.3 0 6 2.7 6 6s-2.7 6-6 6h-181c-3.3 0-6-2.7-6-6s2.7-6 6-6zM68.365 207.548h181c3.3 0 6 2.7 6 6s-2.7 6-6 6h-181c-3.3 0-6-2.7-6-6s2.7-6 6-6zM68.365 149.548h125c3.3 0 6 2.7 6 6s-2.7 6-6 6h-125c-3.3 0-6-2.7-6-6s2.7-6 6-6z" fill="#E6E8F5"/>
  <path fill-rule="evenodd" clip-rule="evenodd" d="M396.765 2.548h-376.8c-4.7 0-8.6 3.9-8.6 8.6v215.7c0 4.8 3.9 8.6 8.6 8.6h376.8c4.8 0 8.6-3.9 8.6-8.6v-215.7c0-4.7-3.9-8.6-8.6-8.6zm6.6 224.4c0 3.7-3 6.6-6.6 6.6h-376.8c-3.6 0-6.6-3-6.6-6.6v-174.9h390v174.9zm0-176.9h-390v-7.5h23v-19.3c0-3.7 3-6.7 6.7-6.7h100.6c3.7 0 6.7 3 6.7 6.7v19.3h253v7.5zm0-9.5h-251v-17.3c0-4.8-3.9-8.7-8.7-8.7h-100.6c-4.8 0-8.7 3.9-8.7 8.7v17.3h-21v-29.3c0-3.7 3-6.7 6.7-6.7h376.6c3.7 0 6.7 3 6.7 6.7v29.3z" fill="url(#paint0_linear)"/>
  <path fill-rule="evenodd" clip-rule="evenodd" d="M355.665 40.748l5.7-6.2 5.7 6.2h60.5c4.9 0 8.8 3.6 8.8 8v150.9c0 4.4-3.9 8-8.8 8h-133.4c-4.9 0-8.8-3.6-8.8-8v-150.9c0-4.4 3.9-8 8.8-8h61.5z" fill="url(#paint1_linear)"/>
  <path d="M333.365 152.548h56c9.9 0 18 8.1 18 18s-8.1 18-18 18h-56c-9.9 0-18-8.1-18-18s8.1-18 18-18z" fill="#fff"/>
  <path fill-rule="evenodd" clip-rule="evenodd" d="M377.165 169.548c-.3.3-.5.8-.5 1.4 0 .6.2 1 .5 1.4.3.3.7.5 1.2.5s.9-.2 1.2-.5c.3-.3.5-.8.5-1.4 0-.6-.2-1.1-.5-1.4-.3-.3-.7-.5-1.2-.5s-.9.2-1.2.5zm3.7-2.1c.5.3.9.8 1.2 1.4.3.6.4 1.3.4 2.1s-.1 1.5-.4 2.1c-.3.6-.7 1.1-1.2 1.4-.5.3-1.1.5-1.7.5-.6 0-1.1-.1-1.5-.4-.4-.3-.7-.6-.9-1.1v5.1h-2.4v-11.5h2.4v1.4c.2-.5.5-.8.9-1.1.4-.3.9-.4 1.5-.4s1.2.1 1.7.5zm-11.2 7.4h2.4v-7.8h-2.4v7.8zm.2-10.9c.3-.2.6-.4 1-.4s.8.1 1 .4c.3.2.4.5.4.9s-.1.6-.4.9c-.3.2-.6.4-1 .4s-.8-.1-1-.4c-.3-.2-.4-.5-.4-.9s.1-.7.4-.9zm-1.7 1v1.9h-2.7v8h-2.4v-8h-2.7v-1.9h7.8z" fill="#4F30AB"/>
  <path fill-rule="evenodd" clip-rule="evenodd" d="M398.565 132.648c-.3.3-.5.8-.5 1.4 0 .6.2 1.1.5 1.4.3.3.8.5 1.3.5s1-.2 1.3-.5c.3-.3.5-.8.5-1.4 0-.6-.2-1-.5-1.4-.3-.3-.8-.5-1.3-.5s-1 .2-1.3.5zm2.2-1.6c.4.3.7.6.9 1.1v-1.4h1.7v6.6c0 .6-.1 1.2-.4 1.6-.2.5-.6.9-1.1 1.1-.5.3-1.1.4-1.8.4-1 0-1.8-.2-2.4-.7-.6-.5-1-1.1-1.1-1.8h1.7c.1.3.3.6.6.8.3.2.6.3 1.1.3.5 0 .9-.1 1.2-.4.3-.3.5-.7.5-1.3v-1.4c-.2.4-.5.8-.9 1.1-.4.3-.9.4-1.5.4s-1.1-.1-1.5-.4c-.4-.3-.8-.7-1.1-1.2-.3-.5-.4-1.1-.4-1.8s.1-1.3.4-1.8c.3-.5.6-.9 1.1-1.2.5-.3 1-.4 1.5-.4.6 0 1.1.2 1.5.4zm-6.4 0c.4-.2.9-.4 1.4-.4v1.8h-.5c-1.3 0-1.9.6-1.9 1.7v3.2h-1.7v-6.6h1.7v1.3c.2-.4.5-.8 1-1zm-8.7 1.6c-.3.3-.5.8-.5 1.4 0 .6.2 1.1.5 1.4.3.3.7.5 1.2.5s.9-.2 1.2-.5c.3-.3.5-.8.5-1.4 0-.6-.2-1.1-.5-1.4-.3-.3-.7-.5-1.2-.5-.4 0-.9.2-1.2.5zm3-1.5c.5.3.9.7 1.2 1.2.3.5.5 1.1.5 1.8s-.2 1.3-.5 1.8-.7.9-1.2 1.2c-.5.3-1.1.4-1.8.4s-1.3-.1-1.8-.4c-.5-.3-.9-.7-1.2-1.2-.3-.5-.5-1.1-.5-1.8s.2-1.3.5-1.8.7-.9 1.2-1.2c.5-.3 1.1-.4 1.8-.4.7-.1 1.3.1 1.8.4zm-7.9 6.2h1.9v-1.7h-1.9v1.7zm-5.9-4.7c-.3.3-.5.8-.5 1.4 0 .6.2 1.1.5 1.4.3.3.8.5 1.3.5s1-.2 1.3-.5c.3-.3.5-.8.5-1.4 0-.6-.2-1-.5-1.4-.3-.3-.8-.5-1.3-.5-.6 0-1 .2-1.3.5zm2.2-1.6c.4.3.7.6.9 1.1v-1.4h1.7v6.6c0 .6-.1 1.2-.4 1.6-.2.5-.6.9-1.1 1.1-.5.3-1.1.4-1.8.4-1 0-1.8-.2-2.4-.7-.6-.5-1-1.1-1.1-1.8h1.7c.1.3.3.6.6.8.3.2.6.3 1.1.3.5 0 .9-.1 1.2-.4.3-.3.5-.7.5-1.3v-1.4c-.2.4-.5.8-.9 1.1-.4.3-.9.4-1.5.4s-1.1-.1-1.5-.4c-.5-.3-.8-.7-1.1-1.2-.3-.5-.4-1.1-.4-1.8s.1-1.3.4-1.8c.3-.5.6-.9 1.1-1.2.5-.3 1-.4 1.5-.4.6 0 1.1.2 1.5.4zm-10.1 1.6c-.3.3-.5.8-.5 1.4 0 .6.2 1.1.5 1.4.3.3.7.5 1.2.5s.9-.2 1.2-.5c.3-.3.5-.8.5-1.4 0-.6-.2-1.1-.5-1.4-.3-.3-.7-.5-1.2-.5-.4 0-.8.2-1.2.5zm3-1.5c.5.3.9.7 1.2 1.2.3.5.5 1.1.5 1.8s-.2 1.3-.5 1.8-.7.9-1.2 1.2c-.5.3-1.1.4-1.8.4s-1.3-.1-1.8-.4c-.5-.3-.9-.7-1.2-1.2-.3-.5-.5-1.1-.5-1.8s.2-1.3.5-1.8.7-.9 1.2-1.2c.5-.3 1.1-.4 1.8-.4.7-.1 1.3.1 1.8.4zm-8.2 6.2h1.7v-8.8h-1.7v8.8zm-3.3-1.7c.2-.2.4-.5.4-.8 0-.4-.1-.7-.4-.9-.2-.2-.6-.3-1.1-.3h-1.6v2.3h1.6c.5 0 .9-.1 1.1-.3zm-2.7-3.2h1.6c.4 0 .8-.1 1-.3.2-.2.3-.5.3-.8 0-.3-.1-.6-.3-.8-.2-.2-.6-.3-1-.3h-1.5v2.2h-.1zm4.4 1.3c.3.4.5.8.5 1.3 0 .7-.2 1.3-.7 1.7-.5.4-1.2.6-2.1.6h-3.7v-8.4h3.6c.9 0 1.5.2 2 .6.5.4.7.9.7 1.6 0 .5-.1.9-.4 1.3-.3.4-.6.5-1.1.7.4 0 .8.2 1.2.6zm-9.5-1.3c-.3-.3-.7-.4-1.2-.4s-.9.1-1.2.4c-.3.3-.5.7-.5 1.2h3.3c.1-.5-.1-.9-.4-1.2zm2.1 1.9h-5c0 .6.2 1 .5 1.3.3.3.7.4 1.1.4.4 0 .7-.1 1-.3.3-.2.4-.4.5-.8h1.8c-.1.5-.3.9-.6 1.2-.3.4-.7.6-1.1.9-.5.2-1 .3-1.5.3-.7 0-1.2-.1-1.8-.4-.5-.3-.9-.7-1.2-1.2-.3-.5-.4-1.1-.4-1.8s.1-1.3.4-1.8c.3-.5.7-.9 1.2-1.2.5-.3 1.1-.4 1.8-.4s1.3.1 1.8.4c.5.3.9.6 1.2 1.1.3.5.4 1 .4 1.6 0 .3-.1.5-.1.7zm-8.5-2.9c.5.5.7 1.2.7 2.1v3.8h-1.7v-3.6c0-.5-.1-.9-.4-1.2-.3-.3-.6-.4-1.1-.4-.5 0-.9.1-1.1.4-.3.3-.4.7-.4 1.3v3.5h-1.7v-3.6c0-.5-.1-.9-.4-1.2-.3-.3-.6-.4-1.1-.4-.5 0-.9.1-1.1.4-.3.3-.4.7-.4 1.3v3.5h-1.7v-6.6h1.7v1.2c.2-.4.5-.8.8-1 .3-.2.8-.3 1.4-.3.5 0 1 .1 1.4.4.4.3.7.6.9 1.1.2-.5.5-.8.9-1.1.4-.3.9-.4 1.4-.4.7 0 1.4.3 1.9.8zm-16.5 1.2c-.3.3-.5.8-.5 1.4 0 .6.2 1.1.5 1.4.3.3.7.5 1.2.5s.9-.2 1.2-.5c.3-.3.5-.8.5-1.4 0-.6-.2-1.1-.5-1.4-.3-.3-.7-.5-1.2-.5s-.9.2-1.2.5zm3-1.5c.5.3.9.7 1.2 1.2.3.5.5 1.1.5 1.8s-.2 1.3-.5 1.8-.7.9-1.2 1.2c-.5.3-1.1.4-1.8.4s-1.3-.1-1.8-.4c-.5-.3-.9-.7-1.2-1.2-.3-.5-.5-1.1-.5-1.8s.2-1.3.5-1.8.7-.9 1.2-1.2c.5-.3 1.1-.4 1.8-.4s1.3.1 1.8.4zm-6.5 5.1c-.2.4-.5.6-1 .9-.4.2-1 .3-1.6.3-.6 0-1.2-.1-1.6-.3-.5-.2-.9-.5-1.2-.9-.3-.4-.5-.8-.5-1.3h1.8c0 .3.2.6.4.8.2.2.6.3 1 .3s.6-.1.8-.3c.2-.2.3-.4.3-.7 0-.3-.1-.5-.2-.6-.2-.2-.4-.3-.6-.4-.2-.1-.6-.2-1-.4-.5-.2-1-.3-1.3-.5-.3-.2-.6-.4-.9-.7-.2-.3-.4-.7-.4-1.3 0-.7.3-1.3.8-1.7.5-.4 1.2-.6 2.1-.6.9 0 1.6.2 2.2.6.5.4.9 1 .9 1.7h-1.9c0-.3-.2-.5-.4-.7-.2-.2-.5-.3-.9-.3-.3 0-.6.1-.8.2-.2.2-.3.4-.3.7 0 .2.1.4.2.6.1.2.3.3.6.4.2.1.5.2.9.3.6.2 1 .4 1.4.5.3.2.6.4.9.7.2.3.4.8.4 1.3.2.6.1 1-.1 1.4z" fill="#FEFEFE"/>
  <path fill-rule="evenodd" clip-rule="evenodd" d="M361.065 112.448c15.3 0 27.7-12.2 27.7-27.3 0-15.1-12.4-27.3-27.7-27.3-15.3 0-27.7 12.2-27.7 27.3 0 15.1 12.4 27.3 27.7 27.3z" fill="#D0D2F7"/>
  <mask id="a" mask-type="alpha" maskUnits="userSpaceOnUse" x="333" y="57" width="56" height="56">
    <path fill-rule="evenodd" clip-rule="evenodd" d="M361.065 112.448c15.3 0 27.7-12.2 27.7-27.3 0-15.1-12.4-27.3-27.7-27.3-15.3 0-27.7 12.2-27.7 27.3 0 15.1 12.4 27.3 27.7 27.3z" fill="#fff"/>
  </mask>
  <g mask="url(#a)">
    <path d="M361.165 113.348c8 0 15.2-3.3 20.1-8.4-.5-10-9.2-17.9-20.1-17.9-10.9 0-19.7 8-20.1 17.9 4.8 5.1 12.1 8.4 20.1 8.4z" fill="#4C54D2"/>
    <path fill-rule="evenodd" clip-rule="evenodd" d="M382.565 75.348c-1.3-2.1-3.4-2.6-5.9-3.8.2-5.8-2.6-11.3-7.3-14.1-6.5-3.9-14.1-1.1-17.9 3.6-2 2.5-3.4 6.1-3.5 9-3.6 1.4-6 4.1-6.2 7.1-.2 2.7 1.5 4.8 2.1 5.5 1.4 1.5 3.4 2.6 10.2 3.6 5.4.8 11.4 1.6 19.3.1 6.9-1.3 8.4-3.1 8.9-3.8 1.4-2.2 1.5-5.1.3-7.2z" fill="#FB542B"/>
    <path fill-rule="evenodd" clip-rule="evenodd" d="M362.665 84.248c-5.7 0-10.3-4.6-10.3-10.3 0-.4 0-.9.1-1.3 1.1.1 2.6.2 4.8.5 1.9.3 6.6.9 8-.7.1-.1.1-.2.2-.3.8-1.3 0-3.3-.5-4.5.6.3 1.5.8 2.6 1.7 2.8 2.5 3 5.3 5.1 5.9.1 0 .2 0 .3.1-.8 5-5.1 8.9-10.3 8.9z" fill="#4C54D2"/>
    <path fill-rule="evenodd" clip-rule="evenodd" d="M397.065 55.748l14.5 8c.5.3.8.7.8 1.3v16c0 .5-.3 1-.8 1.3l-14.5 8c-.4.2-1 .2-1.4 0l-14.5-8c-.5-.3-.8-.7-.8-1.3v-16c0-.5.3-1 .8-1.3l14.5-8c.4-.2 1-.2 1.4 0zm4 12l-6.3 7.5-3.2-3.2c-.6-.6-1.5-.6-2.1 0-.6.6-.6 1.5 0 2.1l4.4 4.4c.6.6 1.6.6 2.1-.1l7.3-8.8c.5-.6.4-1.5-.2-2.1-.6-.5-1.5-.4-2 .2z" fill="#fff"/>
  </g>
  <path fill-rule="evenodd" clip-rule="evenodd" d="M349.141 31.223l7.612-4.472L362 17.555V8.688c-.138 0-.276.092-.381.275l-6.217 10.894-6.215 10.894c-.105.184-.115.35-.046.472z" fill="#FF4724"/>
  <path fill-rule="evenodd" clip-rule="evenodd" d="M362 8.688v8.867l5.248 9.196 7.612 4.472c.069-.121.059-.288-.046-.472l-6.216-10.894-6.216-10.894c-.105-.183-.243-.275-.382-.275z" fill="#9E1F63"/>
  <path fill-rule="evenodd" clip-rule="evenodd" d="M374.86 31.223l-7.612-4.471h-10.495l-7.612 4.471c.068.122.216.197.426.197h24.866c.21 0 .358-.075.427-.197z" fill="#662D91"/>
  <path fill-rule="evenodd" clip-rule="evenodd" d="M356.753 26.751h10.495L362 17.555l-5.247 9.196z" fill="#fff"/>
  <path fill-rule="evenodd" clip-rule="evenodd" d="M337.128 177.522l5.357-3.147 3.694-6.473v-6.241c-.097 0-.195.065-.269.194l-4.375 7.667-4.375 7.668c-.073.129-.08.247-.032.332z" fill="#FF4724"/>
  <path fill-rule="evenodd" clip-rule="evenodd" d="M346.179 161.661v6.241l3.693 6.473 5.358 3.147c.048-.085.041-.203-.032-.332l-4.375-7.668-4.375-7.667c-.074-.13-.172-.194-.269-.194z" fill="#9E1F63"/>
  <path fill-rule="evenodd" clip-rule="evenodd" d="M355.23 177.522l-5.358-3.147h-7.386l-5.358 3.147c.048.086.152.139.3.139h17.502c.148 0 .252-.053.3-.139z" fill="#662D91"/>
  <path fill-rule="evenodd" clip-rule="evenodd" d="M342.486 174.374h7.386l-3.693-6.473-3.693 6.473z" fill="#fff"/>
  <defs>
    <linearGradient id="paint0_linear" x1="167.479" y1="284.903" x2="255.221" y2="-71.039" gradientUnits="userSpaceOnUse">
      <stop stop-color="#392DD1"/>
      <stop offset="1" stop-color="#FF4343"/>
    </linearGradient>
    <linearGradient id="paint1_linear" x1="316.781" y1="46.981" x2="524.156" y2="410.119" gradientUnits="userSpaceOnUse">
      <stop stop-color="#4134DF"/>
      <stop offset="1" stop-color="#FF4343"/>
    </linearGradient>
  </defs>
</svg>
