<svg width="360" height="213" xmlns="http://www.w3.org/2000/svg" xmlns:xlink="http://www.w3.org/1999/xlink">
  <defs>
    <linearGradient x1="-5.303%" y1="32.613%" x2="116.496%" y2="71.125%" id="a">
      <stop stop-color="#392DD1" offset="0%"/>
      <stop stop-color="#FF4343" offset="100%"/>
    </linearGradient>
    <linearGradient x1="-5.303%" y1="49.529%" x2="116.496%" y2="50.572%" id="b">
      <stop stop-color="#392DD1" offset="0%"/>
      <stop stop-color="#FF4343" offset="100%"/>
    </linearGradient>
    <linearGradient x1="-5.303%" y1="49.999%" x2="116.496%" y2="50.002%" id="c">
      <stop stop-color="#392DD1" offset="0%"/>
      <stop stop-color="#FF4343" offset="100%"/>
    </linearGradient>
    <linearGradient x1="-5.303%" y1="47.483%" x2="116.496%" y2="53.058%" id="d">
      <stop stop-color="#392DD1" offset="0%"/>
      <stop stop-color="#FF4343" offset="100%"/>
    </linearGradient>
    <filter x="-28.5%" y="-15.6%" width="151%" height="132.5%" filterUnits="objectBoundingBox" id="e">
      <feMorphology radius="1.5" operator="dilate" in="SourceAlpha" result="shadowSpreadOuter1"/>
      <feOffset dy="2" in="shadowSpreadOuter1" result="shadowOffsetOuter1"/>
      <feGaussianBlur stdDeviation="4" in="shadowOffsetOuter1" result="shadowBlurOuter1"/>
      <feColorMatrix values="0 0 0 0 1 0 0 0 0 0.264557927 0 0 0 0 0.264557927 0 0 0 1 0" in="shadowBlurOuter1" result="shadowMatrixOuter1"/>
      <feMerge>
        <feMergeNode in="shadowMatrixOuter1"/>
        <feMergeNode in="SourceGraphic"/>
      </feMerge>
    </filter>
    <path d="M.49 101.862a1.25 1.25 0 0 1-.138-.008c-.26-.029-.409-.131-.332-.23l67.167-86.03c.075-.098.349-.154.608-.125.26.029.409.131.332.23L.96 101.728c-.062.08-.258.133-.47.133" id="g"/>
    <filter x="-8.8%" y="-6.9%" width="117.6%" height="113.9%" filterUnits="objectBoundingBox" id="f">
      <feOffset in="SourceAlpha" result="shadowOffsetOuter1"/>
      <feGaussianBlur stdDeviation="2" in="shadowOffsetOuter1" result="shadowBlurOuter1"/>
      <feColorMatrix values="0 0 0 0 0.935886549 0 0 0 0 0.122246614 0 0 0 0 0.122246614 0 0 0 1 0" in="shadowBlurOuter1"/>
    </filter>
    <linearGradient x1="61.846%" y1="-2.856%" x2="50%" y2="14.776%" id="h">
      <stop stop-color="#FFF" stop-opacity="0" offset="0%"/>
      <stop stop-color="#FEFEFE" offset="100%"/>
    </linearGradient>
    <path d="M102.645 149.15c-.185 0-.357-.176-.416-.455L74.926 19.938c-.073-.34.054-.708.284-.815.231-.106.474.082.547.425l27.304 128.757c.072.34-.055.708-.284.816a.323.323 0 0 1-.132.03" id="j"/>
    <filter x="-21.3%" y="-4.6%" width="142.6%" height="109.2%" filterUnits="objectBoundingBox" id="i">
      <feOffset in="SourceAlpha" result="shadowOffsetOuter1"/>
      <feGaussianBlur stdDeviation="2" in="shadowOffsetOuter1" result="shadowBlurOuter1"/>
      <feColorMatrix values="0 0 0 0 0.935886549 0 0 0 0 0.122246614 0 0 0 0 0.122246614 0 0 0 1 0" in="shadowBlurOuter1"/>
    </filter>
    <linearGradient x1="50%" y1="13.209%" x2="51.428%" y2="47.018%" id="k">
      <stop stop-color="#FFF" stop-opacity="0" offset="0%"/>
      <stop stop-color="#FEFEFE" offset="100%"/>
    </linearGradient>
    <linearGradient x1="0%" y1="50.706%" y2="50.706%" id="l">
      <stop stop-color="#F50" offset="0%"/>
      <stop stop-color="#F50" offset="40.988%"/>
      <stop stop-color="#FF2000" offset="58.198%"/>
      <stop stop-color="#FF2000" offset="100%"/>
    </linearGradient>
    <linearGradient x1="2.148%" y1="50.706%" y2="50.706%" id="m">
      <stop stop-color="#FF452A" offset="0%"/>
      <stop stop-color="#FF2000" offset="100%"/>
    </linearGradient>
  </defs>
  <g fill="none" fill-rule="evenodd">
    <path d="M.909 8.525c0-4.206 3.41-7.616 7.625-7.616h340.932c4.212 0 7.625 3.406 7.625 7.616v194.81c0 4.205-3.41 7.615-7.625 7.615H8.534c-4.212 0-7.625-3.406-7.625-7.615V8.525z" stroke="url(#a)" stroke-width="2" stroke-linecap="round" stroke-linejoin="round" transform="translate(1 1)"/>
    <path d="M248.147 199.267h59.061v-90.039h-59.06v90.04zM47.34 144.698h174.457V83.763H47.34v60.935z" fill="#FB542B"/>
    <g transform="translate(46.431 56.478)" fill="#E6E8F5">
      <rect width="138.112" height="10.914" rx="5.457"/>
      <rect x="201.716" width="59.061" height="10.914" rx="5.457"/>
      <rect x="201.716" y="26.375" width="59.061" height="10.914" rx="5.457"/>
      <rect y="105.5" width="151.741" height="10.914" rx="5.457"/>
      <rect y="131.875" width="175.365" height="10.914" rx="5.457"/>
    </g>
    <path d="M147.433 123.185l-3.775-4.206a9.949 9.949 0 0 0 1.36-5.022c0-5.525-4.475-10.004-9.995-10.004a9.94 9.94 0 0 0-4.07.873l-2.028-2.258c1.977-.602 3.938-.907 5.876-.888 7.17.037 14.507 4.256 21.832 12.544-3.012 3.843-6.085 6.826-9.2 8.96m-10.843 3.942c-7.47.343-15.51-4.033-23.954-13.02 3.972-4.381 7.934-7.611 11.848-9.682l2.836 3.16a9.968 9.968 0 0 0-2.292 6.373c0 5.526 4.475 10.005 9.995 10.005a9.93 9.93 0 0 0 5.509-1.661l2.844 3.168c-2.246.99-4.51 1.551-6.786 1.657m24.791-11.636c.626-.846.59-2.011-.086-2.817-8.614-10.264-17.52-15.493-26.47-15.54l-.122-.001c-3.018 0-6.042.605-9.062 1.778l-8.022-8.937a2.27 2.27 0 0 0-3.207-.17 2.275 2.275 0 0 0-.172 3.21l7.127 7.94c-4.533 2.593-9.047 6.496-13.51 11.702a2.277 2.277 0 0 0 .032 2.998c9.53 10.649 18.9 16.04 27.876 16.04.346 0 .69-.009 1.036-.024 3.31-.155 6.562-1.05 9.745-2.668l8.027 8.941a2.266 2.266 0 0 0 3.208.171 2.275 2.275 0 0 0 .171-3.21l-7.461-8.312c3.745-2.668 7.384-6.364 10.89-11.101" fill="#FFF"/>
    <path d="M.48 8.237A7.688 7.688 0 0 1 8.165.546h340.809a7.687 7.687 0 0 1 7.687 7.691v26.87H.479V8.236z" stroke="url(#b)" stroke-width="2" stroke-linecap="round" stroke-linejoin="round" transform="translate(1.43 1.364)"/>
    <path d="M.48 43.746h356.182" stroke="url(#c)" stroke-width="2" stroke-linecap="round" stroke-linejoin="round" transform="translate(1.43 1.364)"/>
    <path d="M0 7.694C0 3.444 3.447 0 7.686 0h90.029a7.686 7.686 0 0 1 7.686 7.694v15.953H0V7.694z" stroke="url(#d)" stroke-width="2" stroke-linecap="round" stroke-linejoin="round" transform="translate(22.807 12.829)"/>
    <path fill="#FAF9FE" d="M23.716 34.65H127.3v3.639H23.716z"/>
    <g filter="url(#e)" transform="translate(200.898 10.095)">
      <use filter="url(#f)" xlink:href="#g" fill="#000"/>
      <path d="M2.347 99.134c-.05 0-.1-.003-.15-.009-.28-.031-.441-.144-.358-.251L74.38 4.692c.082-.107.377-.168.657-.136.28.031.441.143.359.251L2.854 98.99c-.067.088-.279.145-.507.145" fill="url(#h)"/>
      <use filter="url(#i)" xlink:href="#j" transform="rotate(4 88.993 84.122)" fill="#000"/>
      <path d="M102.604 149.119c-.203 0-.391-.2-.456-.516L72.202 2.738c-.08-.386.06-.801.312-.924.254-.119.52.093.6.482l29.947 145.865c.08.386-.06.802-.312.924a.345.345 0 0 1-.145.034" fill="url(#k)" transform="rotate(4 87.631 75.45)"/>
    </g>
    <path d="M209.433 152.157l-8.04-27.454-.295.05 1.362 14.266-.27.028-1.766-12.518-.214-.003-.737 29.086h-.126l-.73-31.033-.24-.011-2.375 14.2-.276-.03 1.516-12.523-.192-.059-7.36 25.067-.295-.072 6.456-26.57-.312-.104-5.209 11.377-.3-.115 4.07-10.198-.215-.1-13.328 21.885-.284-.154 13.043-23.865-.27-.17-7.803 9.429-.269-.196 5.797-7.782-.276-.261-17.887 17.047-.232-.226 19.057-19.946-.16-.206c-3.374 2.4-6.749 4.798-10.124 7.197l-.215-.276 7.863-6.194-.158-.26-21.095 11.498-.176-.311 22.052-13.432-.15-.326-11.528 4.283-.124-.302 9.993-4.287-.084-.238-26.145 6.359-.067-.256 27.474-8.041-.047-.307-14.566 1.372-.022-.246 12.701-1.796-.009-.265-28.65-.685-.003-.132 31.02-.773.018-.18-14.196-2.386.031-.275 11.688 1.394.061-.29-24.24-7.108.074-.308 26.521 6.438.092-.286-11.387-5.21.123-.31 9.705 3.874.125-.267-20.466-12.477.183-.323 23.196 12.674.131-.199-10.511-8.662.19-.258 9.134 6.85.183-.183-17.486-18.345.22-.228 19.48 18.565.256-.192-6.423-9.075.3-.226 5.833 7.4.231-.127-11.755-21.543.305-.175 13.756 22.576.27-.113-4.523-12.167.297-.116 4.273 9.994.29-.082-6.12-25.214.278-.07 8.031 27.412.202-.056-1.297-13.595.309-.039 1.6 11.276.3-.018.554-27.252.299-.008.637 29.312.258.05 2.257-13.34.3.033-1.351 11.172.262.065 7.077-24.047.319.077-6.418 26.415.25.081 5.531-12.115.295.116-4.17 10.402.243.123 13.121-21.537.29.16-13.042 23.849.238.16 8.718-10.563.246.185-6.97 9.285.214.186 17.842-17.003.248.238-18.254 19.137.187.258 11.179-7.935.17.234-9.077 7.117.176.282 21.107-11.517.18.319-22.603 13.757.117.25 12.115-4.51.124.3-10.007 4.287.089.262 25.22-6.13.073.29-27.199 7.964.055.224 15.269-1.473.027.25-12.645 1.776-.01.342 27.932.615.002.2c-10.095.24-20.189.481-30.283.723l-.048.223c4.516.77 9.031 1.54 13.547 2.312l-.03.275-11.454-1.36-.044.268 25.405 7.442-.067.273-27.603-6.717-.105.265 12.777 5.853-.107.255-11.101-4.456-.131.252 20.977 12.787-.17.309-23.25-12.705-.18.246 9.734 8.061-.209.262-8.75-6.57c-.059.058-.119.114-.178.17l18.804 19.748-.166.172-21.154-20.224-.2.162 7.806 10.976-.256.188-6.829-8.718-.265.154 11.812 21.637-.297.172-13.74-22.564-.316.126 4.252 11.517-.3.114-4.282-10.001-.227.073 6.353 26.119-.262.067" fill="#FFD8D8"/>
    <path d="M193.892 108.56l.098-1.474c.03-.48.056-.963.091-1.443.033-.444.427-.67.83-.474.786.382 1.568.773 2.352 1.16.018.01.037.016.055.025.193.092.196.095.315-.081.496-.733.993-1.466 1.482-2.203.28-.423.796-.375 1.042.009.507.79 1.039 1.564 1.568 2.356l1.027-.509c.517-.257 1.034-.516 1.552-.772.446-.22.84.02.87.518.054.927.116 1.852.175 2.778.002.024.007.05.011.084l1.65.109c.42.027.839.05 1.259.083.451.035.674.43.473.838-.279.57-.56 1.137-.841 1.705l-.445.904c.405.27.805.535 1.203.802.427.285.866.553 1.272.865.34.26.34.614.007.856-.717.518-1.463.996-2.197 1.49-.092.062-.182.125-.28.193.247.504.49 1 .735 1.494.182.37.366.739.547 1.11.196.402-.019.802-.463.835-.97.071-1.94.13-2.925.197l-.083 1.268c-.036.562-.068 1.124-.11 1.685-.032.411-.431.628-.814.444-.565-.274-1.127-.554-1.69-.831-.27-.133-.543-.262-.81-.403-.098-.053-.151-.037-.208.049-.295.45-.591.9-.89 1.348-.233.352-.45.716-.71 1.048-.227.289-.648.299-.888-.052-.533-.78-1.05-1.57-1.568-2.36-.07-.108-.127-.062-.197-.028-.82.406-1.64.811-2.461 1.215-.443.22-.83-.014-.858-.506-.055-.922-.116-1.842-.175-2.762-.002-.034-.01-.069-.017-.111l-1.383-.09c-.5-.031-1.001-.057-1.5-.096-.488-.038-.701-.423-.485-.864.397-.807.798-1.613 1.2-2.42.056-.111.075-.172-.059-.26-.757-.494-1.497-1.014-2.258-1.502-.4-.255-.408-.71-.015-.976.613-.413 1.23-.818 1.845-1.23.166-.11.333-.224.49-.348.03-.023.042-.11.024-.148-.412-.844-.835-1.683-1.245-2.528-.182-.376.05-.77.47-.8.859-.064 1.72-.114 2.578-.17l.354-.027" fill="#FF7B79"/>
    <path d="M195.302 114.308l-.521-.594c-.17-.193-.342-.385-.51-.58-.157-.18-.093-.415.134-.493.442-.152.885-.3 1.328-.451l.03-.01c.109-.04.11-.04.09-.151-.09-.464-.179-.93-.273-1.394-.054-.265.16-.442.398-.39.49.107.984.198 1.484.298.066-.195.13-.388.196-.58l.295-.88c.086-.252.326-.31.525-.133.372.33.745.655 1.117.983l.036.028c.222-.195.443-.39.665-.583.169-.149.337-.298.508-.445.184-.158.417-.092.497.138l.325.963.174.51c.254-.052.506-.104.758-.154.27-.053.536-.117.808-.153.227-.031.362.103.326.32-.075.468-.177.93-.268 1.395l-.033.179.844.286.626.213c.226.078.296.31.14.49-.34.394-.684.784-1.032 1.18l.449.512c.198.226.398.45.594.678.144.167.075.4-.14.475-.317.111-.635.217-.953.326-.153.052-.305.107-.46.154-.056.017-.07.043-.06.097.06.282.117.564.174.846.044.222.1.441.127.665.024.195-.132.358-.356.317-.497-.094-.99-.197-1.485-.3-.067-.014-.071.025-.085.065l-.472 1.39c-.085.25-.32.308-.516.133-.37-.328-.74-.652-1.11-.979-.014-.012-.03-.02-.05-.034l-.556.488c-.202.178-.4.358-.604.532-.2.17-.425.105-.51-.143a206.64 206.64 0 0 1-.461-1.369c-.02-.063-.037-.093-.121-.075-.473.1-.95.183-1.422.286-.247.054-.423-.114-.374-.363.075-.387.155-.775.232-1.162.022-.106.042-.211.054-.318.003-.02-.025-.058-.046-.065-.475-.163-.952-.32-1.427-.484-.212-.073-.272-.31-.125-.48.301-.349.607-.694.911-1.04l.125-.144" fill="#FEFEFE"/>
    <path d="M309.382 201.27l-8.04-27.455-.295.05 1.362 14.266-.27.028-1.766-12.518-.213-.003-.738 29.086h-.126l-.73-31.033-.24-.011-2.375 14.2-.276-.03 1.516-12.523-.192-.058a750994.1 750994.1 0 0 1-7.36 25.066l-.295-.072 6.456-26.57-.311-.103-5.21 11.376-.3-.115 4.071-10.198-.216-.1-13.328 21.885-.284-.154 13.044-23.865-.272-.17-7.802 9.429-.268-.196 5.796-7.782-.275-.261-17.887 17.047-.233-.226 19.057-19.946-.16-.206-10.123 7.198-.216-.277 7.864-6.194-.159-.26-21.095 11.498-.176-.311 22.052-13.432-.15-.326-11.527 4.283-.124-.302c3.33-1.43 6.661-2.858 9.992-4.287l-.084-.238-26.145 6.359a103.98 103.98 0 0 1-.067-.256l27.474-8.04-.046-.308-14.567 1.372-.022-.245 12.702-1.797-.01-.264-28.65-.686-.003-.132 31.02-.773.019-.18-14.196-2.386.03-.275 11.688 1.395.061-.291-24.24-7.108.074-.308 26.522 6.438c.03-.095.06-.19.092-.285l-11.388-5.211.123-.31 9.706 3.874.124-.267-20.466-12.477.184-.323 23.196 12.674.13-.199-10.51-8.662.19-.258 9.133 6.85.184-.183-17.487-18.345.22-.228 19.48 18.565.256-.192-6.423-9.075.3-.226 5.833 7.4.232-.127c-3.92-7.181-7.837-14.362-11.756-21.543l.305-.175 13.757 22.576.27-.113-4.523-12.167.297-.116 4.272 9.994.29-.082-6.12-25.214.279-.07 8.03 27.412.202-.056-1.297-13.595.309-.039 1.601 11.276.3-.018.554-27.252.298-.008.637 29.312.258.05 2.257-13.34.3.034-1.351 11.171.262.065 7.078-24.047.318.078-6.418 26.414.25.081 5.532-12.115.294.116-4.17 10.403.243.122 13.122-21.537.29.16-13.042 23.849.237.16 8.718-10.563.246.185-6.97 9.285.214.186 17.842-17.003.248.238c-6.084 6.38-12.17 12.758-18.254 19.137l.188.258 11.178-7.935.17.234-9.076 7.117.175.282 21.107-11.517.18.319-22.603 13.757.117.25 12.115-4.51.124.3-10.007 4.287.089.262 25.22-6.13c.025.097.05.193.073.29l-27.199 7.964.055.224 15.269-1.473.028.25-12.645 1.777-.01.341 27.932.615v.2l-30.281.723-.049.223c4.516.77 9.031 1.54 13.547 2.312l-.03.275-11.454-1.36-.043.268 25.405 7.442-.068.273-27.602-6.717-.106.265 12.777 5.853-.107.255-11.1-4.456-.132.253 20.977 12.786-.17.309-23.25-12.705-.18.246 9.734 8.061-.209.262-8.75-6.57c-.059.058-.118.114-.178.17l18.804 19.749-.165.171-21.154-20.224-.2.162 7.805 10.976-.256.188-6.829-8.718-.265.154 11.813 21.637-.298.172-13.74-22.564-.316.127 4.253 11.516-.301.114-4.282-10.001-.226.074 6.352 26.118-.262.068" fill="#FFF"/>
    <path d="M293.842 157.672l.097-1.474c.03-.48.056-.962.092-1.443.032-.444.426-.67.83-.474.785.382 1.568.773 2.35 1.16.019.01.038.016.056.025.194.092.196.095.315-.081.497-.732.994-1.465 1.482-2.203.28-.423.796-.375 1.043.009.507.79 1.038 1.564 1.567 2.356l1.027-.509 1.553-.772c.445-.22.84.02.87.518.054.927.115 1.852.175 2.778.001.025.006.05.01.084l1.65.109c.42.027.84.05 1.259.083.452.035.674.43.473.838-.279.57-.56 1.137-.841 1.705l-.445.904c.405.27.805.535 1.204.802.426.285.866.553 1.27.865.342.26.342.614.008.856-.717.518-1.463.996-2.197 1.491-.092.06-.182.124-.28.192.247.504.49 1 .735 1.494.182.37.366.739.547 1.11.197.402-.019.802-.463.835-.97.071-1.94.13-2.925.197l-.083 1.268c-.036.562-.068 1.124-.11 1.685-.031.411-.431.629-.814.444-.565-.274-1.126-.554-1.69-.831-.27-.133-.543-.262-.81-.403-.098-.053-.151-.037-.207.049-.296.45-.592.9-.89 1.348-.234.352-.452.716-.71 1.048-.228.289-.648.299-.89-.052-.532-.78-1.05-1.57-1.567-2.36-.07-.108-.127-.062-.197-.028-.82.406-1.64.811-2.461 1.215-.443.22-.829-.014-.858-.506-.055-.922-.115-1.842-.174-2.762-.002-.034-.01-.069-.018-.111l-1.383-.09c-.5-.031-1.001-.057-1.5-.096-.488-.038-.701-.423-.485-.864.397-.807.798-1.613 1.2-2.42.057-.111.076-.172-.059-.26-.757-.494-1.496-1.014-2.258-1.502-.4-.255-.408-.71-.015-.976.613-.413 1.23-.818 1.845-1.23.167-.11.333-.224.49-.348.03-.023.043-.11.025-.148-.413-.844-.835-1.683-1.245-2.528-.183-.376.05-.77.47-.8.858-.064 1.719-.114 2.577-.17l.355-.027" fill="#FF7B79"/>
    <path d="M295.25 163.42l-.52-.594c-.17-.193-.342-.385-.51-.58-.157-.18-.093-.415.134-.493.442-.152.885-.3 1.328-.451l.03-.01c.109-.04.11-.04.09-.151-.09-.464-.179-.93-.273-1.394-.054-.265.16-.442.398-.39.49.107.984.198 1.484.298l.196-.58.296-.88c.085-.252.325-.31.525-.133.37.33.744.656 1.116.983l.036.028.665-.583c.17-.149.338-.298.508-.445.184-.158.418-.092.497.138l.325.963.174.51c.255-.052.506-.104.758-.154.27-.053.536-.117.808-.153.227-.031.362.103.327.32-.076.468-.177.93-.269 1.395-.01.058-.02.116-.033.179l.844.286c.208.071.418.141.626.213.226.078.296.31.14.49-.34.394-.684.784-1.032 1.18l.449.512c.198.226.398.45.595.678.143.167.074.4-.14.475-.318.111-.636.217-.954.326-.153.052-.305.107-.46.154-.056.017-.07.043-.06.097.06.282.117.564.174.846.044.222.1.441.128.665.023.195-.133.358-.357.317-.496-.094-.99-.197-1.485-.3-.067-.014-.071.025-.085.065l-.472 1.39c-.085.25-.32.308-.516.133l-1.11-.979c-.014-.012-.03-.02-.05-.034l-.556.488c-.202.178-.4.358-.604.532-.199.17-.425.106-.51-.143-.155-.456-.308-.912-.46-1.368-.021-.064-.038-.094-.122-.076-.473.1-.95.183-1.422.287-.247.053-.423-.115-.374-.364.075-.387.156-.775.233-1.162.021-.105.041-.211.054-.318.002-.02-.026-.058-.047-.064-.475-.164-.952-.321-1.427-.485-.212-.073-.272-.31-.124-.48.3-.349.606-.694.91-1.04l.125-.144" fill="#FEFEFE"/>
    <g fill-rule="nonzero">
      <path d="M21.044 6.109l.6-1.466s-.764-.814-1.69-1.737c-.927-.923-2.89-.38-2.89-.38L14.83 0H6.978L4.743 2.525s-1.963-.542-2.89.38C.928 3.83.164 4.644.164 4.644l.6 1.466L0 8.28s2.245 8.467 2.508 9.501c.518 2.036.872 2.823 2.344 3.855 1.472 1.031 4.143 2.823 4.58 3.095.436.271.98.734 1.472.734.49 0 1.035-.463 1.472-.734.436-.272 3.107-2.064 4.579-3.095 1.472-1.032 1.826-1.819 2.344-3.855.263-1.034 2.508-9.501 2.508-9.501l-.763-2.172z" fill="url(#l)" transform="translate(266.32 6.457)"/>
      <path d="M282.605 10.34s2.796 3.457 2.796 4.196c0 .739-.352.934-.705 1.318l-2.097 2.276c-.198.216-.611.542-.368 1.13.243.588.6 1.336.202 2.095-.398.758-1.08 1.265-1.518 1.181-.438-.084-1.465-.633-1.843-.884-.377-.25-1.575-1.26-1.575-1.647 0-.386 1.238-1.08 1.467-1.237.228-.158 1.271-.768 1.293-1.007.021-.24.013-.31-.295-.902-.308-.591-.862-1.381-.77-1.906.093-.526.986-.799 1.624-1.045.638-.247 1.866-.712 2.02-.784.153-.073.114-.141-.351-.186-.465-.046-1.784-.225-2.378-.055-.595.17-1.61.427-1.693.564-.083.137-.155.141-.07.613.084.472.519 2.735.561 3.137.042.403.125.668-.299.767-.424.1-1.137.272-1.383.272-.245 0-.959-.172-1.382-.272-.424-.099-.342-.364-.3-.767.043-.402.478-2.665.562-3.137.085-.472.012-.476-.07-.613s-1.098-.395-1.693-.564c-.595-.17-1.913.01-2.378.055-.465.045-.505.113-.351.186.153.072 1.381.537 2.02.784.637.246 1.531.52 1.623 1.045.093.525-.462 1.315-.77 1.906-.307.592-.315.662-.294.902.021.24 1.064.85 1.293 1.007.229.157 1.466.851 1.466 1.237 0 .387-1.197 1.397-1.575 1.647-.378.251-1.405.8-1.842.884-.438.084-1.12-.423-1.519-1.181-.398-.759-.04-1.507.203-2.095.243-.588-.17-.914-.368-1.13l-2.097-2.276c-.354-.384-.705-.58-.705-1.318 0-.739 2.796-4.196 2.796-4.196s2.36.461 2.677.461c.318 0 1.008-.27 1.644-.488.636-.217 1.06-.218 1.06-.218s.425.001 1.06.218c.637.217 1.326.488 1.644.488.319 0 2.678-.46 2.678-.46zm-2.096 13.223c.173.11.067.32-.09.433-.158.114-2.277 1.792-2.482 1.978-.206.185-.508.492-.714.492-.205 0-.507-.307-.713-.492-.206-.186-2.324-1.864-2.482-1.978-.158-.114-.263-.322-.09-.433.173-.111.714-.39 1.462-.786.747-.395 1.678-.732 1.823-.732.146 0 1.077.337 1.824.732.747.395 1.289.675 1.462.786z" fill="#FFF"/>
      <path d="M15.204 2.451L12.977 0H5.155L2.928 2.451S.973 1.924.05 2.821c0 0 2.607-.23 3.503 1.185 0 0 2.417.448 2.743.448.326 0 1.032-.264 1.684-.474.652-.211 1.086-.213 1.086-.213s.435.002 1.087.213c.652.21 1.358.474 1.684.474.325 0 2.743-.448 2.743-.448.896-1.414 3.503-1.186 3.503-1.186-.923-.896-2.879-.369-2.879-.369" transform="translate(268.137 6.457)" fill="url(#m)"/>
    </g>
  </g>
</svg>