<svg width="304" height="137" viewBox="0 0 304 137" fill="none" xmlns="http://www.w3.org/2000/svg">
<g clip-path="url(#clip0)">
<g filter="url(#filter0_d)">
<path fill-rule="evenodd" clip-rule="evenodd" d="M98.4232 27.1204C98.4232 23.1776 101.619 19.9814 105.562 19.9814H249.284C253.227 19.9814 256.423 23.1776 256.423 27.1204V51.6796C256.423 55.6223 253.227 58.8186 249.284 58.8186H105.562C101.619 58.8186 98.4232 55.6223 98.4232 51.6796V27.1204Z" fill="#5330BF"/>
</g>
<g filter="url(#filter1_d)">
<path fill-rule="evenodd" clip-rule="evenodd" d="M229.423 71.1204C229.423 67.1776 232.619 63.9814 236.562 63.9814H286.284C290.227 63.9814 293.423 67.1776 293.423 71.1204V95.6796C293.423 99.6223 290.227 102.819 286.284 102.819H236.562C232.619 102.819 229.423 99.6223 229.423 95.6796V71.1204Z" fill="#5330BF"/>
</g>
<g filter="url(#filter2_d)">
<path fill-rule="evenodd" clip-rule="evenodd" d="M25.4092 78.139C25.4092 74.1963 28.6055 71 32.5483 71H164.298C168.241 71 171.437 74.1963 171.437 78.139V102.698C171.437 106.641 168.241 109.837 164.298 109.837H32.5483C28.6055 109.837 25.4092 106.641 25.4092 102.698V78.139Z" fill="url(#paint0_linear)"/>
</g>
<g filter="url(#filter3_d)">
<rect x="22.9999" y="36" width="18.6419" height="18.6419" rx="7.13903" fill="url(#paint1_linear)"/>
</g>
<g filter="url(#filter4_d)">
<path fill-rule="evenodd" clip-rule="evenodd" d="M0.195312 55.0832C0.195312 51.1404 3.39157 47.9442 7.33434 47.9442H295.521C299.464 47.9442 302.66 51.1404 302.66 55.0832V79.4925C302.66 83.4353 299.464 86.6316 295.521 86.6316H7.33435C3.39157 86.6316 0.195312 83.4353 0.195312 79.4925V55.0832Z" fill="white"/>
</g>
<g filter="url(#filter5_d)">
<path fill-rule="evenodd" clip-rule="evenodd" d="M65.1953 16.0832C65.1953 12.1404 68.3916 8.94418 72.3343 8.94418H107.124C111.067 8.94418 114.263 12.1404 114.263 16.0832V22.4925C114.263 26.4353 111.067 29.6316 107.124 29.6316H72.3343C68.3916 29.6316 65.1953 26.4353 65.1953 22.4925V16.0832Z" fill="white"/>
</g>
<g filter="url(#filter6_d)">
<path fill-rule="evenodd" clip-rule="evenodd" d="M202.195 121.083C202.195 117.14 205.392 113.944 209.334 113.944H244.124C248.067 113.944 251.263 117.14 251.263 121.083V127.493C251.263 131.435 248.067 134.632 244.124 134.632H209.334C205.392 134.632 202.195 131.435 202.195 127.493V121.083Z" fill="white"/>
</g>
<g filter="url(#filter7_d)">
<path fill-rule="evenodd" clip-rule="evenodd" d="M18.1953 129.083C18.1953 125.14 21.3916 121.944 25.3343 121.944H45.2236C49.1664 121.944 52.3627 125.14 52.3627 129.083V129.493C52.3627 133.435 49.1664 136.632 45.2236 136.632H25.3343C21.3916 136.632 18.1953 133.435 18.1953 129.493V129.083Z" fill="white"/>
</g>
<g filter="url(#filter8_d)">
<path fill-rule="evenodd" clip-rule="evenodd" d="M223.195 8.08322C223.195 4.14044 226.392 0.944183 230.334 0.944183H241.056C244.999 0.944183 248.195 4.14044 248.195 8.08322V14.4925C248.195 18.4353 244.999 21.6316 241.056 21.6316H230.334C226.392 21.6316 223.195 18.4353 223.195 14.4925V8.08322Z" fill="white"/>
</g>
<path fill-rule="evenodd" clip-rule="evenodd" d="M15.7472 65.1728C15.7472 62.3092 18.0767 59.979 20.9403 59.979C23.8039 59.979 26.1333 62.3092 26.1333 65.1728C26.1333 68.0357 23.8039 70.3652 20.9403 70.3652C18.0767 70.3652 15.7472 68.0357 15.7472 65.1728ZM31.8509 75.0337L26.1519 69.3347C27.0666 68.1922 27.6171 66.7463 27.6171 65.1728C27.6171 61.491 24.6214 58.4953 20.9403 58.4953C17.2591 58.4953 14.2635 61.491 14.2635 65.1728C14.2635 68.854 17.2591 71.8489 20.9403 71.8489C22.5145 71.8489 23.9604 71.2984 25.1029 70.3837L30.8019 76.0827C30.9466 76.2274 31.1365 76.3001 31.3264 76.3001C31.5163 76.3001 31.7062 76.2274 31.8509 76.0827C32.141 75.7934 32.141 75.3231 31.8509 75.0337Z" fill="#76777A"/>
<path d="M41.4884 54.9442V78.5" stroke="#76777A" stroke-width="1.75852" stroke-linecap="round" stroke-linejoin="round"/>
<g filter="url(#filter9_d)">
<path fill-rule="evenodd" clip-rule="evenodd" d="M54 5.13904C54 1.19626 57.1962 -2 61.139 -2H68.8609C72.8037 -2 76 1.19625 76 5.13903V8.50282C76 12.4456 72.8037 15.6419 68.8609 15.6419H61.139C57.1962 15.6419 54 12.4456 54 8.50283V5.13904Z" fill="url(#paint2_linear)"/>
</g>
<g filter="url(#filter10_d)">
<rect x="98" y="105" width="24.8558" height="18.6419" rx="7.13903" fill="url(#paint3_linear)"/>
</g>
<g filter="url(#filter11_d)">
<rect x="189" y="75" width="24.8558" height="24.8558" rx="7.13903" fill="url(#paint4_linear)"/>
</g>
<g filter="url(#filter12_d)">
<rect x="151" y="11" width="18.6419" height="18.6419" rx="7.13903" fill="url(#paint5_linear)"/>
</g>
</g>
<defs>
<filter id="filter0_d" x="79.4232" y="9.98138" width="196" height="76.8372" filterUnits="userSpaceOnUse" color-interpolation-filters="sRGB">
<feFlood flood-opacity="0" result="BackgroundImageFix"/>
<feColorMatrix in="SourceAlpha" type="matrix" values="0 0 0 0 0 0 0 0 0 0 0 0 0 0 0 0 0 0 127 0"/>
<feOffset dy="9"/>
<feGaussianBlur stdDeviation="9.5"/>
<feColorMatrix type="matrix" values="0 0 0 0 0.152941 0 0 0 0 0.180392 0 0 0 0 0.25098 0 0 0 0.2 0"/>
<feBlend mode="normal" in2="BackgroundImageFix" result="effect1_dropShadow"/>
<feBlend mode="normal" in="SourceGraphic" in2="effect1_dropShadow" result="shape"/>
</filter>
<filter id="filter1_d" x="210.423" y="53.9814" width="102" height="76.8372" filterUnits="userSpaceOnUse" color-interpolation-filters="sRGB">
<feFlood flood-opacity="0" result="BackgroundImageFix"/>
<feColorMatrix in="SourceAlpha" type="matrix" values="0 0 0 0 0 0 0 0 0 0 0 0 0 0 0 0 0 0 127 0"/>
<feOffset dy="9"/>
<feGaussianBlur stdDeviation="9.5"/>
<feColorMatrix type="matrix" values="0 0 0 0 0.152941 0 0 0 0 0.180392 0 0 0 0 0.25098 0 0 0 0.2 0"/>
<feBlend mode="normal" in2="BackgroundImageFix" result="effect1_dropShadow"/>
<feBlend mode="normal" in="SourceGraphic" in2="effect1_dropShadow" result="shape"/>
</filter>
<filter id="filter2_d" x="6.40924" y="61" width="184.028" height="76.8372" filterUnits="userSpaceOnUse" color-interpolation-filters="sRGB">
<feFlood flood-opacity="0" result="BackgroundImageFix"/>
<feColorMatrix in="SourceAlpha" type="matrix" values="0 0 0 0 0 0 0 0 0 0 0 0 0 0 0 0 0 0 127 0"/>
<feOffset dy="9"/>
<feGaussianBlur stdDeviation="9.5"/>
<feColorMatrix type="matrix" values="0 0 0 0 0.152941 0 0 0 0 0.180392 0 0 0 0 0.25098 0 0 0 0.2 0"/>
<feBlend mode="normal" in2="BackgroundImageFix" result="effect1_dropShadow"/>
<feBlend mode="normal" in="SourceGraphic" in2="effect1_dropShadow" result="shape"/>
</filter>
<filter id="filter3_d" x="3.99994" y="26" width="56.6419" height="56.6419" filterUnits="userSpaceOnUse" color-interpolation-filters="sRGB">
<feFlood flood-opacity="0" result="BackgroundImageFix"/>
<feColorMatrix in="SourceAlpha" type="matrix" values="0 0 0 0 0 0 0 0 0 0 0 0 0 0 0 0 0 0 127 0"/>
<feOffset dy="9"/>
<feGaussianBlur stdDeviation="9.5"/>
<feColorMatrix type="matrix" values="0 0 0 0 0.152941 0 0 0 0 0.180392 0 0 0 0 0.25098 0 0 0 0.2 0"/>
<feBlend mode="normal" in2="BackgroundImageFix" result="effect1_dropShadow"/>
<feBlend mode="normal" in="SourceGraphic" in2="effect1_dropShadow" result="shape"/>
</filter>
<filter id="filter4_d" x="-18.8047" y="37.9442" width="340.465" height="76.6874" filterUnits="userSpaceOnUse" color-interpolation-filters="sRGB">
<feFlood flood-opacity="0" result="BackgroundImageFix"/>
<feColorMatrix in="SourceAlpha" type="matrix" values="0 0 0 0 0 0 0 0 0 0 0 0 0 0 0 0 0 0 127 0"/>
<feOffset dy="9"/>
<feGaussianBlur stdDeviation="9.5"/>
<feColorMatrix type="matrix" values="0 0 0 0 0.152941 0 0 0 0 0.180392 0 0 0 0 0.25098 0 0 0 0.2 0"/>
<feBlend mode="normal" in2="BackgroundImageFix" result="effect1_dropShadow"/>
<feBlend mode="normal" in="SourceGraphic" in2="effect1_dropShadow" result="shape"/>
</filter>
<filter id="filter5_d" x="46.1953" y="-1.05582" width="87.0681" height="58.6874" filterUnits="userSpaceOnUse" color-interpolation-filters="sRGB">
<feFlood flood-opacity="0" result="BackgroundImageFix"/>
<feColorMatrix in="SourceAlpha" type="matrix" values="0 0 0 0 0 0 0 0 0 0 0 0 0 0 0 0 0 0 127 0"/>
<feOffset dy="9"/>
<feGaussianBlur stdDeviation="9.5"/>
<feColorMatrix type="matrix" values="0 0 0 0 0.152941 0 0 0 0 0.180392 0 0 0 0 0.25098 0 0 0 0.2 0"/>
<feBlend mode="normal" in2="BackgroundImageFix" result="effect1_dropShadow"/>
<feBlend mode="normal" in="SourceGraphic" in2="effect1_dropShadow" result="shape"/>
</filter>
<filter id="filter6_d" x="183.195" y="103.944" width="87.0681" height="58.6874" filterUnits="userSpaceOnUse" color-interpolation-filters="sRGB">
<feFlood flood-opacity="0" result="BackgroundImageFix"/>
<feColorMatrix in="SourceAlpha" type="matrix" values="0 0 0 0 0 0 0 0 0 0 0 0 0 0 0 0 0 0 127 0"/>
<feOffset dy="9"/>
<feGaussianBlur stdDeviation="9.5"/>
<feColorMatrix type="matrix" values="0 0 0 0 0.152941 0 0 0 0 0.180392 0 0 0 0 0.25098 0 0 0 0.2 0"/>
<feBlend mode="normal" in2="BackgroundImageFix" result="effect1_dropShadow"/>
<feBlend mode="normal" in="SourceGraphic" in2="effect1_dropShadow" result="shape"/>
</filter>
<filter id="filter7_d" x="-0.804688" y="111.944" width="72.1673" height="52.6874" filterUnits="userSpaceOnUse" color-interpolation-filters="sRGB">
<feFlood flood-opacity="0" result="BackgroundImageFix"/>
<feColorMatrix in="SourceAlpha" type="matrix" values="0 0 0 0 0 0 0 0 0 0 0 0 0 0 0 0 0 0 127 0"/>
<feOffset dy="9"/>
<feGaussianBlur stdDeviation="9.5"/>
<feColorMatrix type="matrix" values="0 0 0 0 0.152941 0 0 0 0 0.180392 0 0 0 0 0.25098 0 0 0 0.2 0"/>
<feBlend mode="normal" in2="BackgroundImageFix" result="effect1_dropShadow"/>
<feBlend mode="normal" in="SourceGraphic" in2="effect1_dropShadow" result="shape"/>
</filter>
<filter id="filter8_d" x="204.195" y="-9.05582" width="63" height="58.6874" filterUnits="userSpaceOnUse" color-interpolation-filters="sRGB">
<feFlood flood-opacity="0" result="BackgroundImageFix"/>
<feColorMatrix in="SourceAlpha" type="matrix" values="0 0 0 0 0 0 0 0 0 0 0 0 0 0 0 0 0 0 127 0"/>
<feOffset dy="9"/>
<feGaussianBlur stdDeviation="9.5"/>
<feColorMatrix type="matrix" values="0 0 0 0 0.152941 0 0 0 0 0.180392 0 0 0 0 0.25098 0 0 0 0.2 0"/>
<feBlend mode="normal" in2="BackgroundImageFix" result="effect1_dropShadow"/>
<feBlend mode="normal" in="SourceGraphic" in2="effect1_dropShadow" result="shape"/>
</filter>
<filter id="filter9_d" x="35" y="-12" width="60" height="55.6419" filterUnits="userSpaceOnUse" color-interpolation-filters="sRGB">
<feFlood flood-opacity="0" result="BackgroundImageFix"/>
<feColorMatrix in="SourceAlpha" type="matrix" values="0 0 0 0 0 0 0 0 0 0 0 0 0 0 0 0 0 0 127 0"/>
<feOffset dy="9"/>
<feGaussianBlur stdDeviation="9.5"/>
<feColorMatrix type="matrix" values="0 0 0 0 0.152941 0 0 0 0 0.180392 0 0 0 0 0.25098 0 0 0 0.2 0"/>
<feBlend mode="normal" in2="BackgroundImageFix" result="effect1_dropShadow"/>
<feBlend mode="normal" in="SourceGraphic" in2="effect1_dropShadow" result="shape"/>
</filter>
<filter id="filter10_d" x="88" y="101" width="44.8558" height="38.6419" filterUnits="userSpaceOnUse" color-interpolation-filters="sRGB">
<feFlood flood-opacity="0" result="BackgroundImageFix"/>
<feColorMatrix in="SourceAlpha" type="matrix" values="0 0 0 0 0 0 0 0 0 0 0 0 0 0 0 0 0 0 127 0"/>
<feOffset dy="6"/>
<feGaussianBlur stdDeviation="5"/>
<feColorMatrix type="matrix" values="0 0 0 0 0.152941 0 0 0 0 0.180392 0 0 0 0 0.25098 0 0 0 0.2 0"/>
<feBlend mode="normal" in2="BackgroundImageFix" result="effect1_dropShadow"/>
<feBlend mode="normal" in="SourceGraphic" in2="effect1_dropShadow" result="shape"/>
</filter>
<filter id="filter11_d" x="170" y="65" width="62.8558" height="62.8558" filterUnits="userSpaceOnUse" color-interpolation-filters="sRGB">
<feFlood flood-opacity="0" result="BackgroundImageFix"/>
<feColorMatrix in="SourceAlpha" type="matrix" values="0 0 0 0 0 0 0 0 0 0 0 0 0 0 0 0 0 0 127 0"/>
<feOffset dy="9"/>
<feGaussianBlur stdDeviation="9.5"/>
<feColorMatrix type="matrix" values="0 0 0 0 0.152941 0 0 0 0 0.180392 0 0 0 0 0.25098 0 0 0 0.311311 0"/>
<feBlend mode="normal" in2="BackgroundImageFix" result="effect1_dropShadow"/>
<feBlend mode="normal" in="SourceGraphic" in2="effect1_dropShadow" result="shape"/>
</filter>
<filter id="filter12_d" x="141" y="7" width="38.6419" height="38.6419" filterUnits="userSpaceOnUse" color-interpolation-filters="sRGB">
<feFlood flood-opacity="0" result="BackgroundImageFix"/>
<feColorMatrix in="SourceAlpha" type="matrix" values="0 0 0 0 0 0 0 0 0 0 0 0 0 0 0 0 0 0 127 0"/>
<feOffset dy="6"/>
<feGaussianBlur stdDeviation="5"/>
<feColorMatrix type="matrix" values="0 0 0 0 0.152941 0 0 0 0 0.180392 0 0 0 0 0.25098 0 0 0 0.2 0"/>
<feBlend mode="normal" in2="BackgroundImageFix" result="effect1_dropShadow"/>
<feBlend mode="normal" in="SourceGraphic" in2="effect1_dropShadow" result="shape"/>
</filter>
<linearGradient id="paint0_linear" x1="25.4092" y1="110.111" x2="171.437" y2="110.111" gradientUnits="userSpaceOnUse">
<stop stop-color="#FF5500"/>
<stop offset="1" stop-color="#FF2000"/>
</linearGradient>
<linearGradient id="paint1_linear" x1="22.9999" y1="54.7734" x2="41.6418" y2="54.7734" gradientUnits="userSpaceOnUse">
<stop stop-color="#FB542B"/>
<stop offset="1" stop-color="#E3380E"/>
</linearGradient>
<linearGradient id="paint2_linear" x1="37.216" y1="7.80318" x2="54.1406" y2="50.1463" gradientUnits="userSpaceOnUse">
<stop stop-color="#392DD1"/>
<stop offset="1" stop-color="#FF4343"/>
</linearGradient>
<linearGradient id="paint3_linear" x1="79.0372" y1="115.359" x2="96.0574" y2="160.888" gradientUnits="userSpaceOnUse">
<stop stop-color="#392DD1"/>
<stop offset="1" stop-color="#FF4343"/>
</linearGradient>
<linearGradient id="paint4_linear" x1="189" y1="100.031" x2="213.856" y2="100.031" gradientUnits="userSpaceOnUse">
<stop stop-color="#FB542B"/>
<stop offset="1" stop-color="#E3380E"/>
</linearGradient>
<linearGradient id="paint5_linear" x1="151" y1="29.7734" x2="169.642" y2="29.7734" gradientUnits="userSpaceOnUse">
<stop stop-color="#FB542B"/>
<stop offset="1" stop-color="#E3380E"/>
</linearGradient>
<clipPath id="clip0">
<rect width="303" height="136" fill="white" transform="translate(0.195312 0.944183)"/>
</clipPath>
</defs>
</svg>
