<svg fill="none" viewBox="0 0 286 200" xmlns="http://www.w3.org/2000/svg" xmlns:xlink="http://www.w3.org/1999/xlink"><filter id="a" color-interpolation-filters="sRGB" filterUnits="userSpaceOnUse" height="182.349" width="170.834" x="57.839" y="9.584"><feFlood flood-opacity="0" result="BackgroundImageFix"/><feColorMatrix in="SourceAlpha" values="0 0 0 0 0 0 0 0 0 0 0 0 0 0 0 0 0 0 127 0"/><feOffset dy="4"/><feGaussianBlur stdDeviation="4"/><feColorMatrix values="0 0 0 0 0 0 0 0 0 0 0 0 0 0 0 0 0 0 0.1 0"/><feBlend in2="BackgroundImageFix" result="effect1_dropShadow"/><feBlend in="SourceGraphic" in2="effect1_dropShadow" result="shape"/></filter><filter id="b" color-interpolation-filters="sRGB" filterUnits="userSpaceOnUse" height="48.652" width="52.634" x="137" y="-2"><feFlood flood-opacity="0" result="BackgroundImageFix"/><feColorMatrix in="SourceAlpha" values="0 0 0 0 0 0 0 0 0 0 0 0 0 0 0 0 0 0 127 0"/><feOffset dy="4"/><feGaussianBlur stdDeviation="4"/><feColorMatrix values="0 0 0 0 0 0 0 0 0 0 0 0 0 0 0 0 0 0 0.2 0"/><feBlend in2="BackgroundImageFix" result="effect1_dropShadow"/><feBlend in="SourceGraphic" in2="effect1_dropShadow" result="shape"/></filter><filter id="c" color-interpolation-filters="sRGB" filterUnits="userSpaceOnUse" height="48.816" width="53.654" x="125" y="153"><feFlood flood-opacity="0" result="BackgroundImageFix"/><feColorMatrix in="SourceAlpha" values="0 0 0 0 0 0 0 0 0 0 0 0 0 0 0 0 0 0 127 0"/><feOffset dy="4"/><feGaussianBlur stdDeviation="4"/><feColorMatrix values="0 0 0 0 0 0 0 0 0 0 0 0 0 0 0 0 0 0 0.2 0"/><feBlend in2="BackgroundImageFix" result="effect1_dropShadow"/><feBlend in="SourceGraphic" in2="effect1_dropShadow" result="shape"/></filter><filter id="d" color-interpolation-filters="sRGB" filterUnits="userSpaceOnUse" height="29.904" width="29.904" x="188" y="33"><feFlood flood-opacity="0" result="BackgroundImageFix"/><feColorMatrix in="SourceAlpha" values="0 0 0 0 0 0 0 0 0 0 0 0 0 0 0 0 0 0 127 0"/><feOffset dy="4"/><feGaussianBlur stdDeviation="4"/><feColorMatrix values="0 0 0 0 0 0 0 0 0 0 0 0 0 0 0 0 0 0 0.2 0"/><feBlend in2="BackgroundImageFix" result="effect1_dropShadow"/><feBlend in="SourceGraphic" in2="effect1_dropShadow" result="shape"/></filter><linearGradient id="e" gradientUnits="userSpaceOnUse" x1="212.916" x2="226.73" y1="65.544" y2="81.018"><stop offset="0" stop-color="#f0f0f0"/><stop offset="1" stop-color="#f2edfd"/></linearGradient><linearGradient id="f"><stop offset="0" stop-color="#392dd1"/><stop offset="1" stop-color="#ff4343"/></linearGradient><linearGradient id="g" gradientUnits="userSpaceOnUse" x1="58.446" x2="82.862" xlink:href="#f" y1="64.668" y2="90.573"/><linearGradient id="h" gradientUnits="userSpaceOnUse" x1="120.328" x2="286.149" xlink:href="#f" y1="20.251" y2="52.614"/><linearGradient id="i"><stop offset="0" stop-color="#f50"/><stop offset=".572" stop-color="#ff2000"/><stop offset="1" stop-color="#ff2000"/></linearGradient><linearGradient id="j" gradientUnits="userSpaceOnUse" x1="55" x2="92.74" xlink:href="#i" y1="134.079" y2="134.079"/><linearGradient id="k" gradientUnits="userSpaceOnUse" x1="145" x2="181.634" xlink:href="#i" y1="18.557" y2="18.557"/><linearGradient id="l" gradientUnits="userSpaceOnUse" x1="209.725" x2="238.303" xlink:href="#f" y1="95.995" y2="135.915"/><linearGradient id="m" gradientUnits="userSpaceOnUse" x1="212" x2="234" xlink:href="#i" y1="151.592" y2="151.592"/><clipPath id="n"><path d="m0 0h286v200h-286z"/></clipPath><g clip-path="url(#n)"><path d="m220.021 79.973c4.43 0 8.021-3.352 8.021-7.486 0-4.135-3.591-7.487-8.021-7.487s-8.021 3.352-8.021 7.487c0 4.134 3.591 7.486 8.021 7.486z" fill="url(#e)"/><path d="m62 81c6.627 0 12-4.925 12-11s-5.373-11-12-11-12 4.925-12 11 5.373 11 12 11z" fill="url(#g)"/><path d="m65.839 17.552a3.96 3.96 0 0 1 3.963-3.968h146.907a3.962 3.962 0 0 1 3.964 3.968v158.413a3.96 3.96 0 0 1 -3.964 3.968h-146.907a3.96 3.96 0 0 1 -3.963-3.968z" fill="#fff" filter="url(#a)"/><g stroke-width="2"><path d="m85 42h-4a2 2 0 0 0 -2 2v4a2 2 0 0 0 2 2h4a2 2 0 0 0 2-2v-4a2 2 0 0 0 -2-2z" stroke="#f2eef9"/><path d="m165 44h-70a2 2 0 1 0 0 4h70a2 2 0 1 0 0-4zm30 23h-101a1 1 0 1 0 0 2h101a1 1 0 0 0 0-2z" fill="#f2eef9" stroke="#f2eef9"/><path d="m85 65h-4a2 2 0 0 0 -2 2v4a2 2 0 0 0 2 2h4a2 2 0 0 0 2-2v-4a2 2 0 0 0 -2-2z" stroke="#f2eef9"/><path d="m81 67.84 2.49 1.903 4.634-7.757" stroke="#6431b1" stroke-linecap="round" stroke-linejoin="round"/><path d="m85 107h-4a2 2 0 0 0 -2 2v4a2 2 0 0 0 2 2h4a2 2 0 0 0 2-2v-4a2 2 0 0 0 -2-2z" stroke="#f2eef9"/><path d="m195 110h-101a1 1 0 0 0 0 2h101a1 1 0 0 0 0-2z" fill="#f2eef9" stroke="#f2eef9"/><path d="m85 150h-4a2 2 0 0 0 -2 2v4a2 2 0 0 0 2 2h4a2 2 0 0 0 2-2v-4a2 2 0 0 0 -2-2z" stroke="#f2eef9"/><path d="m194 150h-99a2 2 0 0 0 -2 2v4a2 2 0 0 0 2 2h99a2 2 0 0 0 2-2v-4a2 2 0 0 0 -2-2z" fill="#f2eef9" stroke="#f2eef9"/><path d="m85 85h-4a2 2 0 0 0 -2 2v4a2 2 0 0 0 2 2h4a2 2 0 0 0 2-2v-4a2 2 0 0 0 -2-2z" stroke="#f2eef9"/><path d="m81 87.855 2.49 1.902 4.634-7.757" stroke="#6431b1" stroke-linecap="round" stroke-linejoin="round"/><path d="m158 87h-63a2 2 0 1 0 0 4h63a2 2 0 1 0 0-4z" fill="#f2eef9" stroke="#f2eef9"/><path d="m85 128h-4a2 2 0 0 0 -2 2v4a2 2 0 0 0 2 2h4a2 2 0 0 0 2-2v-4a2 2 0 0 0 -2-2z" stroke="#f2eef9"/><path d="m81 130.841 2.49 1.901 4.634-7.756" stroke="#6431b1" stroke-linecap="round" stroke-linejoin="round"/><path d="m158 130h-63a2 2 0 1 0 0 4h63a2 2 0 1 0 0-4z" fill="#f2eef9" stroke="#f2eef9"/></g><path clip-rule="evenodd" d="m65.839 12.791h154.834v15.063h-154.834v-15.064z" fill="url(#h)" fill-rule="evenodd"/><path d="m74.573 22.304a2.38 2.38 0 0 0 2.382-2.378 2.38 2.38 0 0 0 -2.382-2.378 2.38 2.38 0 0 0 -2.382 2.378 2.38 2.38 0 0 0 2.382 2.378zm7.94 0a2.38 2.38 0 0 0 2.382-2.378 2.38 2.38 0 0 0 -2.382-2.378 2.38 2.38 0 0 0 -2.382 2.378 2.38 2.38 0 0 0 2.382 2.378zm7.94 0a2.38 2.38 0 0 0 2.382-2.378 2.38 2.38 0 0 0 -2.382-2.378 2.38 2.38 0 0 0 -2.382 2.378 2.38 2.38 0 0 0 2.382 2.378z" fill="#fff"/><path d="m88.78 118h-29.82a3.96 3.96 0 0 0 -3.96 3.961v23.789a3.96 3.96 0 0 0 3.96 3.96h29.82a3.96 3.96 0 0 0 3.96-3.96v-23.789a3.96 3.96 0 0 0 -3.96-3.961z" fill="url(#j)"/><path d="m73.778 123.549a.837.837 0 0 0 -.174.025.8.8 0 0 0 -.57.446l-2.581 5.252-5.856.867a.79.79 0 0 0 -.614.542.786.786 0 0 0 .192.796l4.193 4.112-.968 5.797a.8.8 0 0 0 .31.775.8.8 0 0 0 .832.068l5.21-2.75 5.212 2.75a.8.8 0 0 0 .83-.068.8.8 0 0 0 .31-.775l-.967-5.797 4.194-4.112a.786.786 0 0 0 .192-.796.79.79 0 0 0 -.614-.542l-5.856-.867-2.58-5.252a.797.797 0 0 0 -.695-.471zm-.025 2.626 2.084 4.187a.79.79 0 0 0 .596.421l4.64.694-3.35 3.27a.79.79 0 0 0 -.248.694l.794 4.632-4.144-2.18a.791.791 0 0 0 -.745 0l-4.143 2.18.794-4.632a.79.79 0 0 0 -.248-.694l-3.35-3.27 4.64-.694a.79.79 0 0 0 .595-.421z" fill="#fff"/><path d="m178.48 2h-30.326a3.154 3.154 0 0 0 -3.154 3.154v26.344a3.154 3.154 0 0 0 3.154 3.154h30.326a3.154 3.154 0 0 0 3.154-3.154v-26.344a3.154 3.154 0 0 0 -3.154-3.154z" fill="url(#k)" filter="url(#b)"/><path d="m161.976 9.168c-1.11 0-2.011.93-2.011 2.079v5.544h-2.178c-.946 0-1.145.157-.336.997l4.42 4.57c1.475 1.524 1.456 1.53 2.933 0l4.399-4.57c.809-.84.539-.997-.314-.997h-2.221v-5.544c0-1.148-.9-2.08-2.011-2.08h-2.681zm-7.419 12.742v2.73c0 1.131.905 2.048 2.021 2.048h13.478c1.116 0 2.022-.917 2.022-2.047v-2.731h-1.348v2.73a.68.68 0 0 1 -.674.683h-13.478a.679.679 0 0 1 -.673-.683v-2.73z" fill="#fff"/><path d="m232.44 89h-33.88a2.56 2.56 0 0 0 -2.56 2.56v22.034a2.56 2.56 0 0 0 2.56 2.56h33.88a2.56 2.56 0 0 0 2.56-2.56v-22.034a2.56 2.56 0 0 0 -2.56-2.56z" fill="url(#l)"/><path clip-rule="evenodd" d="m215.236 108.039c-3.12-2.084-5.943-5.357-6.019-5.506-.072-.075-.148-.299-.148-.447s.076-.372.148-.52c.076-.149 2.972-3.425 6.019-5.508.223-.149.519-.149.815-.073.224.148.447.372.447.668v2.753s6.462.372 6.761.596c.372.372.668 1.264.668 2.084 0 .819-.296 1.636-.668 1.936-.299.148-6.761.668-6.761.668v2.753c0 .299-.148.52-.447.671-.22.148-.519.073-.815-.075z" fill="#fff" fill-rule="evenodd"/><path d="m133 159.97a2.97 2.97 0 0 1 2.97-2.97h31.714c1.64 0 2.97 1.327 2.97 2.97v26.876a2.97 2.97 0 0 1 -2.97 2.97h-31.714a2.968 2.968 0 0 1 -2.97-2.97z" fill="#fff" filter="url(#c)"/><path d="m155.934 165.676a.404.404 0 0 0 -.438.415v1.837s-11.961.284-12.114.393c-.224.158-.372.27-.372.699s.148.563.372.722c.153.109 12.114.306 12.114.306v1.88a.41.41 0 0 0 .219.371.424.424 0 0 0 .437-.022c1.692-1.142 4.707-2.918 4.767-2.994a.426.426 0 0 0 .11-.263.43.43 0 0 0 -.11-.262c-.06-.076-3.075-1.874-4.767-3.016a.416.416 0 0 0 -.218-.066zm-7.829 8.676a.414.414 0 0 0 -.218.065c-1.692 1.142-4.707 2.918-4.767 2.994a.426.426 0 0 0 -.11.263.43.43 0 0 0 .11.262c.06.076 3.075 1.874 4.767 3.016a.42.42 0 0 0 .656-.35v-1.836s11.961-.284 12.114-.393c.224-.158.372-.27.372-.699s-.148-.563-.372-.721c-.153-.11-12.114-.306-12.114-.306v-1.88a.404.404 0 0 0 -.438-.415z" fill="#462fc9"/><path d="m212 147.837c0-1.567 1.745-2.837 3.883-2.837h14.234c2.145 0 3.883 1.27 3.883 2.837v7.326c0 1.567-1.745 2.837-3.883 2.837h-14.234c-2.145 0-3.883-1.27-3.883-2.837z" fill="url(#m)"/><path d="m196 40.966a3.965 3.965 0 0 1 3.966-3.966h5.972a3.965 3.965 0 0 1 3.965 3.966v5.972a3.965 3.965 0 0 1 -3.965 3.966h-5.972a3.965 3.965 0 0 1 -3.966-3.966z" fill="#fff" filter="url(#d)"/></g></svg>