<svg viewBox="0 0 234 195" xmlns="http://www.w3.org/2000/svg" xmlns:xlink="http://www.w3.org/1999/xlink"><defs><rect id="a" height="18.455" rx="9.228" width="45.511" x=".591" y="98.069"/><filter id="b" height="305.9%" width="183.5%" x="-41.7%" y="-75.9%"><feOffset dy="5" in="SourceAlpha" result="shadowOffsetOuter1"/><feGaussianBlur in="shadowOffsetOuter1" result="shadowBlurOuter1" stdDeviation="5.5"/><feColorMatrix in="shadowBlurOuter1" values="0 0 0 0 0.152941 0 0 0 0 0.180392 0 0 0 0 0.25098 0 0 0 0.2 0"/></filter><rect id="c" height="18.455" rx="9.228" width="45.511" x="163.591" y="80.069"/><filter id="d" height="305.9%" width="183.5%" x="-41.7%" y="-75.9%"><feOffset dy="5" in="SourceAlpha" result="shadowOffsetOuter1"/><feGaussianBlur in="shadowOffsetOuter1" result="shadowBlurOuter1" stdDeviation="5.5"/><feColorMatrix in="shadowBlurOuter1" values="0 0 0 0 0.152941 0 0 0 0 0.180392 0 0 0 0 0.25098 0 0 0 0.2 0"/></filter><linearGradient id="e"><stop offset="0" stop-color="#392dd1"/><stop offset="1" stop-color="#ff4343"/></linearGradient><linearGradient id="f" x1="35.192%" x2="146.327%" xlink:href="#e" y1="42%" y2="77.674%"/><rect id="g" height="28" rx="14" width="70" x="128.591" y="145.069"/><filter id="h" height="235.7%" width="154.3%" x="-27.1%" y="-50%"><feOffset dy="5" in="SourceAlpha" result="shadowOffsetOuter1"/><feGaussianBlur in="shadowOffsetOuter1" result="shadowBlurOuter1" stdDeviation="5.5"/><feColorMatrix in="shadowBlurOuter1" values="0 0 0 0 0.152941 0 0 0 0 0.180392 0 0 0 0 0.25098 0 0 0 0.2 0"/></filter><ellipse id="i" cx="14.058" cy="11.534" rx="8.467" ry="8.466"/><filter id="j" height="324.4%" width="324.4%" x="-112.2%" y="-82.7%"><feOffset dy="5" in="SourceAlpha" result="shadowOffsetOuter1"/><feGaussianBlur in="shadowOffsetOuter1" result="shadowBlurOuter1" stdDeviation="5.5"/><feColorMatrix in="shadowBlurOuter1" values="0 0 0 0 0.152941 0 0 0 0 0.180392 0 0 0 0 0.25098 0 0 0 0.2 0"/></filter><ellipse id="k" cx="202.175" cy="46.651" rx="10.584" ry="10.582"/><filter id="l" height="279.6%" width="279.5%" x="-89.8%" y="-66.2%"><feOffset dy="5" in="SourceAlpha" result="shadowOffsetOuter1"/><feGaussianBlur in="shadowOffsetOuter1" result="shadowBlurOuter1" stdDeviation="5.5"/><feColorMatrix in="shadowBlurOuter1" values="0 0 0 0 0.152941 0 0 0 0 0.180392 0 0 0 0 0.25098 0 0 0 0.2 0"/></filter><rect id="m" height="134.032" rx="4.072" width="150.168" x="27.212" y="22.582"/><filter id="n" height="128.4%" width="125.3%" x="-12.7%" y="-10.4%"><feOffset dy="5" in="SourceAlpha" result="shadowOffsetOuter1"/><feGaussianBlur in="shadowOffsetOuter1" result="shadowBlurOuter1" stdDeviation="5.5"/><feColorMatrix in="shadowBlurOuter1" values="0 0 0 0 0.152941176 0 0 0 0 0.180392157 0 0 0 0 0.250980392 0 0 0 0.2 0"/></filter><linearGradient id="o" x1="0%" y1="50.706%" y2="50.706%"><stop offset="0" stop-color="#fb542b"/><stop offset="1" stop-color="#e3380e"/></linearGradient><circle id="p" cx="30.591" cy="159.069" r="13"/><filter id="q" height="246.2%" width="246.2%" x="-73.1%" y="-53.8%"><feOffset dy="5" in="SourceAlpha" result="shadowOffsetOuter1"/><feGaussianBlur in="shadowOffsetOuter1" result="shadowBlurOuter1" stdDeviation="5.5"/><feColorMatrix in="shadowBlurOuter1" values="0 0 0 0 0.152941 0 0 0 0 0.180392 0 0 0 0 0.25098 0 0 0 0.2 0"/></filter><ellipse id="r" cx="85.409" cy="13.884" rx="13.818" ry="13.815"/><filter id="s" height="237.5%" width="237.5%" x="-68.8%" y="-50.7%"><feOffset dy="5" in="SourceAlpha" result="shadowOffsetOuter1"/><feGaussianBlur in="shadowOffsetOuter1" result="shadowBlurOuter1" stdDeviation="5.5"/><feColorMatrix in="shadowBlurOuter1" values="0 0 0 0 0.152941 0 0 0 0 0.180392 0 0 0 0 0.25098 0 0 0 0.2 0"/></filter><linearGradient id="t" x1="35.192%" x2="146.327%" xlink:href="#e" y1="38.443%" y2="89.979%"/><rect id="u" height="25" rx="12.5" width="52" x=".591" y="47.069"/><filter id="v" height="252%" width="173.1%" x="-36.5%" y="-56%"><feOffset dy="5" in="SourceAlpha" result="shadowOffsetOuter1"/><feGaussianBlur in="shadowOffsetOuter1" result="shadowBlurOuter1" stdDeviation="5.5"/><feColorMatrix in="shadowBlurOuter1" values="0 0 0 0 0.152941 0 0 0 0 0.180392 0 0 0 0 0.25098 0 0 0 0.2 0"/></filter><linearGradient id="w" x1="35.192%" x2="146.327%" xlink:href="#e" y1="0%" y2="222.965%"/><circle id="x" cx="154.591" cy="29.069" r="12"/><filter id="y" height="200%" width="200%" x="-50%" y="-37.5%"><feOffset dy="3" in="SourceAlpha" result="shadowOffsetOuter1"/><feGaussianBlur in="shadowOffsetOuter1" result="shadowBlurOuter1" stdDeviation="3.5"/><feColorMatrix in="shadowBlurOuter1" values="0 0 0 0 0.152941 0 0 0 0 0.180392 0 0 0 0 0.25098 0 0 0 0.2 0"/></filter></defs><g fill="none" fill-rule="evenodd"><g transform="translate(10.409 5.931)"><g fill-rule="nonzero"><use fill="#000" filter="url(#b)" xlink:href="#a"/><use fill="#fff" xlink:href="#a"/></g><g fill-rule="nonzero"><use fill="#000" filter="url(#d)" xlink:href="#c"/><use fill="#fff" xlink:href="#c"/></g><g fill-rule="nonzero"><use fill="#000" filter="url(#h)" xlink:href="#g"/><use fill="url(#f)" xlink:href="#g"/></g><g fill-rule="nonzero"><use fill="#000" filter="url(#j)" xlink:href="#i"/><use fill="#fff" xlink:href="#i"/></g><g fill-rule="nonzero"><use fill="#000" filter="url(#l)" xlink:href="#k"/><use fill="#fff" xlink:href="#k"/></g><g><use fill="#000" filter="url(#n)" xlink:href="#m"/><use fill="#fff" xlink:href="#m"/></g></g><path d="m63.793 135.2 29.196-16.99 20.129-34.939v-33.687c-.531 0-1.062.35-1.465 1.048l-23.843 41.387-23.84 41.388c-.402.698-.44 1.332-.177 1.792" fill="#ff4724"/><path d="m113.118 49.584v33.686l20.128 34.94 29.196 16.988c.264-.46.226-1.094-.176-1.792l-23.841-41.388-23.843-41.387c-.403-.698-.934-1.048-1.464-1.048" fill="#9e1f63"/><path d="m162.442 135.2-29.196-16.99h-40.256l-29.197 16.99c.263.462.83.749 1.635.749h95.379c.805 0 1.371-.287 1.635-.75" fill="#662d91"/><path d="m92.99 118.21h40.256l-20.128-34.939z" fill="#fff"/><g fill-rule="nonzero" transform="translate(10.409 5.931)"><use fill="#000" filter="url(#q)" xlink:href="#p"/><use fill="url(#o)" xlink:href="#p"/></g><g fill-rule="nonzero" transform="translate(10.409 5.931)"><use fill="#000" filter="url(#s)" xlink:href="#r"/><use fill="url(#o)" xlink:href="#r"/></g><g fill-rule="nonzero" transform="translate(10.409 5.931)"><use fill="#000" filter="url(#v)" xlink:href="#u"/><use fill="url(#t)" xlink:href="#u"/></g><g fill-rule="nonzero" transform="translate(10.409 5.931)"><use fill="#000" filter="url(#y)" xlink:href="#x"/><use fill="url(#w)" xlink:href="#x"/></g></g></svg>