<svg viewBox="0 0 339 180" xmlns="http://www.w3.org/2000/svg" xmlns:xlink="http://www.w3.org/1999/xlink">
  <defs>
    <path d="M0 7.842C0 3.512 3.509 0 7.835 0h23.868c4.327 0 7.835 3.52 7.835 7.842v4.79c0 4.33-3.51 7.842-7.835 7.842H7.835C3.508 20.474 0 16.954 0 12.63V7.842z" id="b"/>
    <filter x="-77.1%" y="-100.1%" width="254.3%" height="397.9%" filterUnits="objectBoundingBox" id="a">
      <feOffset dy="10" in="SourceAlpha" result="shadowOffsetOuter1"/>
      <feGaussianBlur stdDeviation="8.5" in="shadowOffsetOuter1" result="shadowBlurOuter1"/>
      <feColorMatrix values="0 0 0 0 0 0 0 0 0 0 0 0 0 0 0 0 0 0 0.2 0" in="shadowBlurOuter1"/>
    </filter>
    <path d="M101 116.842c0-4.33 3.5-7.842 7.84-7.842h49.857c4.33 0 7.84 3.52 7.84 7.842v4.79c0 4.33-3.5 7.842-7.84 7.842H108.84c-4.33 0-7.84-3.52-7.84-7.843v-4.789z" id="d"/>
    <filter x="-46.5%" y="-100.1%" width="193.1%" height="397.9%" filterUnits="objectBoundingBox" id="c">
      <feOffset dy="10" in="SourceAlpha" result="shadowOffsetOuter1"/>
      <feGaussianBlur stdDeviation="8.5" in="shadowOffsetOuter1" result="shadowBlurOuter1"/>
      <feColorMatrix values="0 0 0 0 0 0 0 0 0 0 0 0 0 0 0 0 0 0 0.2 0" in="shadowBlurOuter1"/>
    </filter>
    <filter x="-25.4%" y="-92.1%" width="150.4%" height="305.3%" filterUnits="objectBoundingBox" id="e">
      <feOffset dy="10" in="SourceAlpha" result="shadowOffsetOuter1"/>
      <feGaussianBlur stdDeviation="8.5" in="shadowOffsetOuter1" result="shadowBlurOuter1"/>
      <feColorMatrix values="0 0 0 0 0 0 0 0 0 0 0 0 0 0 0 0 0 0 0.2 0" in="shadowBlurOuter1" result="shadowMatrixOuter1"/>
      <feMerge>
        <feMergeNode in="shadowMatrixOuter1"/>
        <feMergeNode in="SourceGraphic"/>
      </feMerge>
    </filter>
    <path d="M0 7.889C0 3.532 3.53 0 7.877 0H228.86c4.35 0 7.876 3.534 7.876 7.889v24.64c0 4.357-3.53 7.89-7.876 7.89H7.877c-4.35 0-7.877-3.535-7.877-7.89V7.89z" id="g"/>
    <filter x="-5.9%" y="-24.7%" width="111.8%" height="169.3%" filterUnits="objectBoundingBox" id="f">
      <feOffset dy="4" in="SourceAlpha" result="shadowOffsetOuter1"/>
      <feGaussianBlur stdDeviation="4" in="shadowOffsetOuter1" result="shadowBlurOuter1"/>
      <feColorMatrix values="0 0 0 0 0.152941176 0 0 0 0 0.180392157 0 0 0 0 0.250980392 0 0 0 0.2 0" in="shadowBlurOuter1"/>
    </filter>
    <linearGradient x1="35.192%" y1="49.208%" x2="146.327%" y2="52.739%" id="h">
      <stop stop-color="#392DD1" offset="0%"/>
      <stop stop-color="#FF4343" offset="100%"/>
    </linearGradient>
    <linearGradient x1="36.57%" y1="114.015%" x2="36.57%" y2="-19.4%" id="i">
      <stop stop-color="#FFF" offset="0%"/>
      <stop stop-color="#F2EDFD" offset="100%"/>
    </linearGradient>
    <linearGradient x1="0%" y1="50.706%" y2="50.706%" id="j">
      <stop stop-color="#F50" offset="0%"/>
      <stop stop-color="#FF2000" offset="57.237%"/>
      <stop stop-color="#FF2000" offset="100%"/>
    </linearGradient>
    <filter x="-25.5%" y="-92.1%" width="151.1%" height="305.3%" filterUnits="objectBoundingBox" id="k">
      <feOffset dy="10" in="SourceAlpha" result="shadowOffsetOuter1"/>
      <feGaussianBlur stdDeviation="8.5" in="shadowOffsetOuter1" result="shadowBlurOuter1"/>
      <feColorMatrix values="0 0 0 0 0 0 0 0 0 0 0 0 0 0 0 0 0 0 0.2 0" in="shadowBlurOuter1" result="shadowMatrixOuter1"/>
      <feMerge>
        <feMergeNode in="shadowMatrixOuter1"/>
        <feMergeNode in="SourceGraphic"/>
      </feMerge>
    </filter>
    <path d="M0 7.889C0 3.532 3.53 0 7.877 0H228.86c4.35 0 7.876 3.534 7.876 7.889v24.64c0 4.357-3.53 7.89-7.876 7.89H7.877c-4.35 0-7.877-3.535-7.877-7.89V7.89z" id="m"/>
    <filter x="-5.9%" y="-24.7%" width="111.8%" height="169.3%" filterUnits="objectBoundingBox" id="l">
      <feOffset dy="4" in="SourceAlpha" result="shadowOffsetOuter1"/>
      <feGaussianBlur stdDeviation="4" in="shadowOffsetOuter1" result="shadowBlurOuter1"/>
      <feColorMatrix values="0 0 0 0 0.152941176 0 0 0 0 0.180392157 0 0 0 0 0.250980392 0 0 0 0.2 0" in="shadowBlurOuter1"/>
    </filter>
    <linearGradient x1="0%" y1="50.706%" y2="50.706%" id="n">
      <stop stop-color="#111" offset="0%"/>
      <stop stop-color="#555" offset="100%"/>
    </linearGradient>
    <linearGradient x1="35.231%" y1="0%" x2="146.073%" y2="222.965%" id="o">
      <stop stop-color="#392DD1" offset="0%"/>
      <stop stop-color="#FF4343" offset="100%"/>
    </linearGradient>
    <circle id="q" cx="7.139" cy="7.139" r="7.139"/>
    <filter x="-49%" y="-35%" width="198.1%" height="198.1%" filterUnits="objectBoundingBox" id="p">
      <feOffset dy="2" in="SourceAlpha" result="shadowOffsetOuter1"/>
      <feGaussianBlur stdDeviation="2" in="shadowOffsetOuter1" result="shadowBlurOuter1"/>
      <feColorMatrix values="0 0 0 0 0.319831295 0 0 0 0 0.319831295 0 0 0 0 0.319831295 0 0 0 0.2 0" in="shadowBlurOuter1"/>
    </filter>
    <linearGradient x1="35.192%" y1="0%" x2="146.327%" y2="222.965%" id="t">
      <stop stop-color="#392DD1" offset="0%"/>
      <stop stop-color="#FF4343" offset="100%"/>
    </linearGradient>
    <circle id="s" cx="29.104" cy="7.139" r="7.139"/>
    <filter x="-49%" y="-35%" width="198.1%" height="198.1%" filterUnits="objectBoundingBox" id="r">
      <feOffset dy="2" in="SourceAlpha" result="shadowOffsetOuter1"/>
      <feGaussianBlur stdDeviation="2" in="shadowOffsetOuter1" result="shadowBlurOuter1"/>
      <feColorMatrix values="0 0 0 0 0.319831295 0 0 0 0 0.319831295 0 0 0 0 0.319831295 0 0 0 0.2 0" in="shadowBlurOuter1"/>
    </filter>
    <linearGradient x1="0%" y1="50.706%" y2="50.706%" id="w">
      <stop stop-color="#FB542B" offset="0%"/>
      <stop stop-color="#E3380E" offset="100%"/>
    </linearGradient>
    <circle id="v" cx="51.069" cy="7.139" r="7.139"/>
    <filter x="-49%" y="-35%" width="198.1%" height="198.1%" filterUnits="objectBoundingBox" id="u">
      <feOffset dy="2" in="SourceAlpha" result="shadowOffsetOuter1"/>
      <feGaussianBlur stdDeviation="2" in="shadowOffsetOuter1" result="shadowBlurOuter1"/>
      <feColorMatrix values="0 0 0 0 0.319831295 0 0 0 0 0.319831295 0 0 0 0 0.319831295 0 0 0 0.2 0" in="shadowBlurOuter1"/>
    </filter>
    <linearGradient x1="35.192%" y1="36.593%" x2="146.327%" y2="96.38%" id="z">
      <stop stop-color="#392DD1" offset="0%"/>
      <stop stop-color="#FF4343" offset="100%"/>
    </linearGradient>
    <path d="M40 7.842C40 3.512 43.509 0 47.835 0h23.868c4.327 0 7.835 3.52 7.835 7.842v4.79c0 4.33-3.51 7.842-7.835 7.842H47.835c-4.327 0-7.835-3.52-7.835-7.843V7.842z" id="y"/>
    <filter x="-17.7%" y="-24.4%" width="135.4%" height="168.4%" filterUnits="objectBoundingBox" id="x">
      <feOffset dy="2" in="SourceAlpha" result="shadowOffsetOuter1"/>
      <feGaussianBlur stdDeviation="2" in="shadowOffsetOuter1" result="shadowBlurOuter1"/>
      <feColorMatrix values="0 0 0 0 0.319831295 0 0 0 0 0.319831295 0 0 0 0 0.319831295 0 0 0 0.2 0" in="shadowBlurOuter1"/>
    </filter>
    <linearGradient x1="0%" y1="50.706%" y2="50.706%" id="C">
      <stop stop-color="#F50" offset="0%"/>
      <stop stop-color="#FF2000" offset="57.237%"/>
      <stop stop-color="#FF2000" offset="100%"/>
    </linearGradient>
    <rect id="B" x="108" y="146" width="43.298" height="20.474" rx="7.841"/>
    <filter x="-32.3%" y="-48.8%" width="164.7%" height="236.8%" filterUnits="objectBoundingBox" id="A">
      <feOffset dy="4" in="SourceAlpha" result="shadowOffsetOuter1"/>
      <feGaussianBlur stdDeviation="4" in="shadowOffsetOuter1" result="shadowBlurOuter1"/>
      <feColorMatrix values="0 0 0 0 0.152941176 0 0 0 0 0.180392157 0 0 0 0 0.250980392 0 0 0 0.2 0" in="shadowBlurOuter1"/>
    </filter>
    <linearGradient x1="0%" y1="50.706%" y2="50.706%" id="F">
      <stop stop-color="#FB542B" offset="0%"/>
      <stop stop-color="#E3380E" offset="100%"/>
    </linearGradient>
    <rect id="E" x="23" y="103" width="30.358" height="20.474" rx="7.841"/>
    <filter x="-46.1%" y="-48.8%" width="192.2%" height="236.8%" filterUnits="objectBoundingBox" id="D">
      <feOffset dy="4" in="SourceAlpha" result="shadowOffsetOuter1"/>
      <feGaussianBlur stdDeviation="4" in="shadowOffsetOuter1" result="shadowBlurOuter1"/>
      <feColorMatrix values="0 0 0 0 0.152941176 0 0 0 0 0.180392157 0 0 0 0 0.250980392 0 0 0 0.2 0" in="shadowBlurOuter1"/>
    </filter>
    <linearGradient x1="0%" y1="50.706%" y2="50.706%" id="I">
      <stop stop-color="#FB542B" offset="0%"/>
      <stop stop-color="#E3380E" offset="100%"/>
    </linearGradient>
    <rect id="H" x="249" y="46" width="22.358" height="20.474" rx="7.841"/>
    <filter x="-31.3%" y="-24.4%" width="162.6%" height="168.4%" filterUnits="objectBoundingBox" id="G">
      <feOffset dy="2" in="SourceAlpha" result="shadowOffsetOuter1"/>
      <feGaussianBlur stdDeviation="2" in="shadowOffsetOuter1" result="shadowBlurOuter1"/>
      <feColorMatrix values="0 0 0 0 0.319831295 0 0 0 0 0.319831295 0 0 0 0 0.319831295 0 0 0 0.2 0" in="shadowBlurOuter1"/>
    </filter>
  </defs>
  <g fill="none" fill-rule="evenodd">
    <g transform="translate(132 23)">
      <use fill="#000" filter="url(#a)" xlink:href="#b"/>
      <use fill="#FFF" xlink:href="#b"/>
    </g>
    <g transform="translate(132 23)">
      <use fill="#000" filter="url(#c)" xlink:href="#d"/>
      <use fill="#FFF" xlink:href="#d"/>
    </g>
    <g filter="url(#e)" transform="translate(19 34.8)">
      <g transform="translate(0 15.89)">
        <use fill="#000" filter="url(#f)" xlink:href="#g"/>
        <use fill="#FFF" xlink:href="#g"/>
      </g>
      <path fill="#EBEBEB" fill-rule="nonzero" d="M11.924 39.724h39.747v5.959H11.924zM55.646 39.724H75.52v5.959H55.646zM79.495 39.724h31.798v5.959H79.495z"/>
      <g>
        <path fill="url(#h)" d="M0 0h236.737v29.793H0z"/>
        <path d="M69.558 15.104a3.974 3.974 0 0 1 3.981-3.973h63.942a3.974 3.974 0 0 1 3.982 3.973v16.013H69.558V15.104z" fill="url(#i)"/>
        <path fill="#EAEAEA" fill-rule="nonzero" d="M86.286 19.2h46.179v3.559H86.286z"/>
        <ellipse fill="url(#j)" fill-rule="nonzero" cx="79.095" cy="21.6" rx="3.595" ry="3.6"/>
        <path d="M147.065 13.904a3.974 3.974 0 0 1 3.981-3.973h63.943a3.974 3.974 0 0 1 3.981 3.973v16.013h-71.905V13.904z" fill="#392DD1"/>
        <ellipse fill="#FFF" cx="17.358" cy="14.171" rx="4.734" ry="4.724"/>
        <ellipse fill="#FFF" cx="33.138" cy="14.171" rx="4.734" ry="4.724"/>
        <ellipse fill="#FFF" cx="48.918" cy="14.171" rx="4.734" ry="4.724"/>
      </g>
    </g>
    <g filter="url(#k)" transform="translate(83.714 81.6)">
      <g transform="translate(0 15.89)">
        <use fill="#000" filter="url(#l)" xlink:href="#m"/>
        <use fill="#FFF" xlink:href="#m"/>
      </g>
      <path fill="#EAEAEA" fill-rule="nonzero" d="M11.924 39.724h39.747v5.959H11.924zM55.646 39.724H75.52v5.959H55.646zM79.495 39.724h31.798v5.959H79.495z"/>
      <g>
        <path fill="url(#n)" d="M0 0h236.737v29.793H0z"/>
        <path d="M69.558 15.104a3.974 3.974 0 0 1 3.981-3.973h63.942a3.974 3.974 0 0 1 3.982 3.973v16.013H69.558V15.104z" fill="url(#i)"/>
        <ellipse fill="url(#o)" fill-rule="nonzero" cx="79.095" cy="21.6" rx="3.595" ry="3.6"/>
        <path fill="#EAEAEA" fill-rule="nonzero" d="M87.484 19.2h46.179v3.559H87.484z"/>
        <path d="M147.065 13.904a3.974 3.974 0 0 1 3.981-3.973h63.943a3.974 3.974 0 0 1 3.981 3.973v16.013h-71.905V13.904z" fill="#8E8E8E"/>
        <g fill-rule="nonzero" stroke="#FFF" stroke-linecap="square" stroke-linejoin="round">
          <path d="M206.5 17.8l4.759 4.759M211.2 17.5l-4.759 4.759"/>
        </g>
        <ellipse fill="#D6D3DD" cx="17.358" cy="14.171" rx="4.734" ry="4.724"/>
        <ellipse fill="#D6D3DD" cx="33.138" cy="14.171" rx="4.734" ry="4.724"/>
        <ellipse fill="#D6D3DD" cx="48.918" cy="14.171" rx="4.734" ry="4.724"/>
      </g>
    </g>
    <g fill-rule="nonzero">
      <g transform="translate(239 10)">
        <use fill="#000" filter="url(#p)" xlink:href="#q"/>
        <use fill="#FFF" xlink:href="#q"/>
      </g>
      <g transform="translate(239 10)">
        <use fill="#000" filter="url(#r)" xlink:href="#s"/>
        <use fill="url(#t)" xlink:href="#s"/>
      </g>
      <g transform="translate(239 10)">
        <use fill="#000" filter="url(#u)" xlink:href="#v"/>
        <use fill="url(#w)" xlink:href="#v"/>
      </g>
    </g>
    <g transform="translate(19 2)">
      <use fill="#000" filter="url(#x)" xlink:href="#y"/>
      <use fill="url(#z)" xlink:href="#y"/>
    </g>
    <g transform="translate(19 2)">
      <use fill="#000" filter="url(#A)" xlink:href="#B"/>
      <use fill="url(#C)" xlink:href="#B"/>
    </g>
    <g transform="translate(19 2)">
      <use fill="#000" filter="url(#D)" xlink:href="#E"/>
      <use fill="url(#F)" xlink:href="#E"/>
    </g>
    <g transform="translate(19 2)">
      <use fill="#000" filter="url(#G)" xlink:href="#H"/>
      <use fill="url(#I)" xlink:href="#H"/>
    </g>
    <g fill-rule="nonzero" stroke="#FFF" stroke-linecap="square" stroke-linejoin="round">
      <path d="M223.5 52.8l4.759 4.759M228.2 52.5l-4.759 4.759"/>
    </g>
  </g>
</svg>