<svg width="202" height="147" viewBox="0 0 202 147" fill="none" xmlns="http://www.w3.org/2000/svg">
  <path
    d="M0.5 8.5C0.5 4.35787 3.85786 1 8 1H194C198.142 1 201.5 4.35786 201.5 8.5V138.5C201.5 142.642 198.142 146 194 146H8C3.85786 146 0.5 142.642 0.5 138.5V8.5Z"
    stroke="#687B85" stroke-opacity="0.4" />
  <rect x="32.5" y="17" width="137" height="113" rx="7.5" fill="#0D1214" stroke="#30393D" />
  <rect x="43" y="51" width="34" height="40" rx="4" fill="#21272A" />
  <rect x="84" y="51" width="77" height="7" rx="3.5" fill="#30393D" />
  <rect x="84" y="61" width="77" height="7" rx="3.5" fill="#21272A" />
  <rect x="43" y="94" width="34" height="22" rx="4" fill="#21272A" />
  <rect x="84" y="72" width="77" height="44" rx="4" fill="#21272A" />
  <circle cx="101" cy="82" r="26.5" fill="#0D1214" stroke="#30393D" />
  <path fill-rule="evenodd" clip-rule="evenodd"
    d="M112.916 97H89.0838C87.3825 97 86 95.6175 86 93.9163V70.0838C86 68.3837 87.3825 67 89.0838 67H112.916C114.618 67 116 68.3837 116 70.0838V93.9163C116 95.6175 114.618 97 112.916 97ZM113.5 70.0837C113.5 69.7674 113.233 69.4999 112.916 69.4999H89.0839C88.7676 69.4999 88.5001 69.7674 88.5001 70.0837V93.9162C88.5001 94.2324 88.7676 94.4999 89.0839 94.4999H112.916C113.233 94.4999 113.5 94.2324 113.5 93.9162V70.0837ZM108.525 92.0001C108.516 92.0001 108.508 92.0001 108.5 92.0001H93.5001C92.8101 92.0001 92.2501 91.4401 92.2501 90.7501C92.2501 87.3913 94.5889 84.7076 98.0026 83.7001C96.0751 82.6351 94.7501 80.6038 94.7501 78.2501C94.7501 74.8038 97.5539 72.0001 101 72.0001C104.446 72.0001 107.25 74.8038 107.25 78.2501C107.25 80.6026 105.928 82.6313 104.003 83.6976C107.321 84.6776 109.623 87.2451 109.745 90.4763C109.765 90.5638 109.775 90.6563 109.775 90.7501C109.775 91.4401 109.215 92.0001 108.525 92.0001ZM101 74.5C98.9325 74.5 97.25 76.1825 97.25 78.25C97.25 80.3175 98.9325 82 101 82C103.067 82 104.75 80.3175 104.75 78.25C104.75 76.1825 103.067 74.5 101 74.5ZM101 85.75C97.9238 85.75 95.5638 87.2675 94.9238 89.5H107.076C106.436 87.2675 104.076 85.75 101 85.75Z"
    fill="#546771" />
  <path
    d="M32.5 29.46C32.5 27.1357 32.5004 25.4236 32.6145 24.0721C32.728 22.7267 32.9514 21.7844 33.3718 20.9905C34.0753 19.6618 35.1618 18.5753 36.4905 17.8718C37.2844 17.4514 38.2267 17.228 39.5721 17.1145C40.9236 17.0004 42.6357 17 44.96 17H157.04C159.364 17 161.076 17.0004 162.428 17.1145C163.773 17.228 164.716 17.4514 165.509 17.8718C166.838 18.5753 167.925 19.6618 168.628 20.9905C169.049 21.7844 169.272 22.7267 169.386 24.0721C169.5 25.4236 169.5 27.1357 169.5 29.46V36H32.5V29.46Z"
    fill="black" stroke="#30393D" />
  <rect x="74.5" y="21" width="39" height="11" rx="3.5" fill="#0D1214" stroke="#30393D" />
  <circle cx="44" cy="26.5" r="2.5" stroke="#30393D" />
  <circle cx="54" cy="26.5" r="2.5" stroke="#30393D" />
  <circle cx="64" cy="26.5" r="2.5" stroke="#30393D" />
</svg>
  
