<svg width="202" height="147" viewBox="0 0 202 147" fill="none" xmlns="http://www.w3.org/2000/svg">
  <path
    d="M0.5 8.5C0.5 4.35787 3.85786 1 8 1H194C198.142 1 201.5 4.35786 201.5 8.5V138.5C201.5 142.642 198.142 146 194 146H8C3.85786 146 0.5 142.642 0.5 138.5V8.5Z"
    stroke="#A1B2BA" stroke-opacity="0.4" />
  <rect x="32.5" y="17" width="137" height="113" rx="7.5" fill="white" stroke="#A1B2BA" />
  <rect x="43" y="51" width="34" height="40" rx="4" fill="#EBEEF0" />
  <rect x="84" y="51" width="77" height="7" rx="3.5" fill="#DADFE1" />
  <rect x="84" y="61" width="77" height="7" rx="3.5" fill="#EBEEF0" />
  <rect x="43" y="94" width="34" height="22" rx="4" fill="#EBEEF0" />
  <rect x="84" y="72" width="77" height="44" rx="4" fill="#EBEEF0" />
  <circle cx="101" cy="82" r="26.5" fill="white" stroke="#A1B2BA" />
  <path fill-rule="evenodd" clip-rule="evenodd"
    d="M85.6153 80.718C84.9072 80.718 84.3333 81.292 84.3333 82C84.3333 91.2048 91.7952 98.6667 101 98.6667C110.205 98.6667 117.667 91.2048 117.667 82C117.667 72.7953 110.205 65.3334 101 65.3334C97.0956 65.3334 93.4133 66.6856 90.4924 69.0608C89.9409 68.8078 89.3272 68.6667 88.6803 68.6667C86.2789 68.6667 84.3333 70.6136 84.3333 73.0145C84.3333 75.4155 86.2789 77.3624 88.6803 77.3624C91.0833 77.3624 93.0289 75.4155 93.0289 73.0145C93.0289 72.2066 92.8086 71.45 92.4246 70.8018C94.8433 68.9465 97.8343 67.8975 101 67.8975C108.789 67.8975 115.102 74.2114 115.102 82C115.102 89.7887 108.789 96.1026 101 96.1026C93.2113 96.1026 86.8974 89.7887 86.8974 82C86.8974 81.292 86.3234 80.718 85.6153 80.718ZM109.974 82H103.221C102.996 81.6108 102.671 81.2862 102.282 81.061V75.5898C102.282 74.8817 101.708 74.3077 101 74.3077C100.292 74.3077 99.7178 74.8817 99.7178 75.5898V81.061C98.9514 81.5043 98.4358 82.333 98.4358 83.2821C98.4358 84.6982 99.5838 85.8462 101 85.8462C101.949 85.8462 102.778 85.3306 103.221 84.5641H109.974C110.682 84.5641 111.256 83.9902 111.256 83.2821C111.256 82.574 110.682 82 109.974 82Z"
    fill="#A1B2BA" />
  <path
    d="M32.5 29.46C32.5 27.1357 32.5004 25.4236 32.6145 24.0721C32.728 22.7267 32.9514 21.7844 33.3718 20.9905C34.0753 19.6618 35.1618 18.5753 36.4905 17.8718C37.2844 17.4514 38.2267 17.228 39.5721 17.1145C40.9236 17.0004 42.6357 17 44.96 17H157.04C159.364 17 161.076 17.0004 162.428 17.1145C163.773 17.228 164.716 17.4514 165.509 17.8718C166.838 18.5753 167.925 19.6618 168.628 20.9905C169.049 21.7844 169.272 22.7267 169.386 24.0721C169.5 25.4236 169.5 27.1357 169.5 29.46V36H32.5V29.46Z"
    fill="#F3F5F7" stroke="#A1B2BA" />
  <rect x="74.5" y="21" width="39" height="11" rx="3.5" fill="white" stroke="#A1B2BA" />
  <circle cx="44" cy="26.5" r="2.5" stroke="#A1B2BA" />
  <circle cx="54" cy="26.5" r="2.5" stroke="#A1B2BA" />
  <circle cx="64" cy="26.5" r="2.5" stroke="#A1B2BA" />
</svg>
  
