<svg width="202" height="147" viewBox="0 0 202 147" fill="none" xmlns="http://www.w3.org/2000/svg">
  <path
    d="M1 8.5C1 4.63401 4.13401 1.5 8 1.5H194C197.866 1.5 201 4.63401 201 8.5V138.5C201 142.366 197.866 145.5 194 145.5H8C4.13401 145.5 1 142.366 1 138.5V8.5Z"
    fill="#1C0D64" />
  <path
    d="M1 8.5C1 4.63401 4.13401 1.5 8 1.5H194C197.866 1.5 201 4.63401 201 8.5V138.5C201 142.366 197.866 145.5 194 145.5H8C4.13401 145.5 1 142.366 1 138.5V8.5Z"
    stroke="#7C91FF" stroke-width="2" />
  <g filter="url(#filter0_dd_1_10391)">
    <rect x="32.5" y="17" width="137" height="113" rx="7.5" fill="#0D1214" stroke="#3F4E55" />
    <rect x="43" y="51" width="34" height="40" rx="4" fill="#1C0D64" />
    <rect x="84" y="51" width="77" height="7" rx="3.5" fill="#2A118E" />
    <rect x="84" y="61" width="77" height="7" rx="3.5" fill="#1C0D64" />
    <rect x="43" y="94" width="34" height="22" rx="4" fill="#2A118E" />
    <rect x="84" y="72" width="77" height="44" rx="4" fill="#2A118E" />
    <circle cx="101" cy="82" r="26.5" fill="#0D1214" stroke="#3F4E55" />
    <path fill-rule="evenodd" clip-rule="evenodd"
      d="M85.6154 80.7179C84.9074 80.7179 84.3334 81.2919 84.3334 81.9999C84.3334 91.2047 91.7953 98.6666 101 98.6666C110.205 98.6666 117.667 91.2047 117.667 81.9999C117.667 72.7952 110.205 65.3333 101 65.3333C97.0957 65.3333 93.4135 66.6855 90.4926 69.0607C89.941 68.8077 89.3273 68.6666 88.6804 68.6666C86.279 68.6666 84.3334 70.6134 84.3334 73.0144C84.3334 75.4154 86.279 77.3622 88.6804 77.3622C91.0834 77.3622 93.029 75.4154 93.029 73.0144C93.029 72.2065 92.8087 71.4499 92.4248 70.8017C94.8434 68.9464 97.8344 67.8974 101 67.8974C108.789 67.8974 115.103 74.2113 115.103 81.9999C115.103 89.7886 108.789 96.1025 101 96.1025C93.2114 96.1025 86.8975 89.7886 86.8975 81.9999C86.8975 81.2919 86.3235 80.7179 85.6154 80.7179ZM109.974 81.9999H103.221C102.996 81.6107 102.671 81.2861 102.282 81.0609V75.5897C102.282 74.8816 101.708 74.3076 101 74.3076C100.292 74.3076 99.718 74.8816 99.718 75.5897V81.0609C98.9515 81.5042 98.4359 82.3329 98.4359 83.282C98.4359 84.6981 99.5839 85.8461 101 85.8461C101.949 85.8461 102.778 85.3304 103.221 84.564H109.974C110.682 84.564 111.256 83.99 111.256 83.282C111.256 82.5739 110.682 81.9999 109.974 81.9999Z"
      fill="url(#paint0_linear_1_10391)" />
    <path
      d="M32.5 29.46C32.5 27.1357 32.5004 25.4236 32.6145 24.0721C32.728 22.7267 32.9514 21.7844 33.3718 20.9905C34.0753 19.6618 35.1618 18.5753 36.4905 17.8718C37.2844 17.4514 38.2267 17.228 39.5721 17.1145C40.9236 17.0004 42.6357 17 44.96 17H157.04C159.364 17 161.076 17.0004 162.428 17.1145C163.773 17.228 164.716 17.4514 165.509 17.8718C166.838 18.5753 167.925 19.6618 168.628 20.9905C169.049 21.7844 169.272 22.7267 169.386 24.0721C169.5 25.4236 169.5 27.1357 169.5 29.46V36H32.5V29.46Z"
      fill="black" stroke="#3F4E55" />
    <rect x="74.5" y="21" width="39" height="11" rx="3.5" fill="#0D1214" stroke="#3F4E55" />
    <circle cx="44" cy="26.5" r="2.5" stroke="#3F4E55" />
    <circle cx="54" cy="26.5" r="2.5" stroke="#3F4E55" />
    <circle cx="64" cy="26.5" r="2.5" stroke="#3F4E55" />
    <path fill-rule="evenodd" clip-rule="evenodd"
      d="M136.667 36.5001C136.667 29.1363 142.636 23.1667 150 23.1667C157.364 23.1667 163.333 29.1363 163.333 36.5001C163.333 43.8639 157.364 49.8334 150 49.8334C142.636 49.8334 136.667 43.8639 136.667 36.5001ZM154.937 34.0193C155.266 33.5584 155.16 32.9178 154.699 32.5886C154.238 32.2593 153.597 32.3661 153.268 32.827L148.843 39.0213L146.623 36.8005C146.222 36.3999 145.573 36.3999 145.172 36.8005C144.772 37.201 144.772 37.8504 145.172 38.251L148.249 41.3279C148.462 41.5411 148.758 41.6497 149.059 41.6248C149.359 41.5999 149.634 41.4441 149.809 41.1988L154.937 34.0193Z"
      fill="#3F39E8" />
    <path fill-rule="evenodd" clip-rule="evenodd"
      d="M154.937 34.0193C155.266 33.5584 155.16 32.9178 154.699 32.5886C154.238 32.2593 153.597 32.3661 153.268 32.827L148.844 39.0213L146.623 36.8005C146.222 36.4 145.573 36.4 145.172 36.8005C144.772 37.201 144.772 37.8504 145.172 38.251L148.249 41.3279C148.462 41.5411 148.759 41.6497 149.059 41.6248C149.359 41.5999 149.634 41.4441 149.809 41.1988L154.937 34.0193Z"
      fill="white" />
  </g>
  <defs>
    <filter id="filter0_dd_1_10391" x="25" y="13.5" width="152" height="128"
      filterUnits="userSpaceOnUse" color-interpolation-filters="sRGB">
      <feFlood flood-opacity="0" result="BackgroundImageFix" />
      <feColorMatrix in="SourceAlpha" type="matrix"
        values="0 0 0 0 0 0 0 0 0 0 0 0 0 0 0 0 0 0 127 0" result="hardAlpha" />
      <feMorphology radius="1" operator="erode" in="SourceAlpha" result="effect1_dropShadow_1_10391" />
      <feOffset dy="4" />
      <feGaussianBlur stdDeviation="4" />
      <feComposite in2="hardAlpha" operator="out" />
      <feColorMatrix type="matrix" values="0 0 0 0 0 0 0 0 0 0 0 0 0 0 0 0 0 0 0.8 0" />
      <feBlend mode="normal" in2="BackgroundImageFix" result="effect1_dropShadow_1_10391" />
      <feColorMatrix in="SourceAlpha" type="matrix"
        values="0 0 0 0 0 0 0 0 0 0 0 0 0 0 0 0 0 0 127 0" result="hardAlpha" />
      <feOffset dy="1" />
      <feComposite in2="hardAlpha" operator="out" />
      <feColorMatrix type="matrix" values="0 0 0 0 1 0 0 0 0 1 0 0 0 0 1 0 0 0 0.15 0" />
      <feBlend mode="normal" in2="effect1_dropShadow_1_10391" result="effect2_dropShadow_1_10391" />
      <feBlend mode="normal" in="SourceGraphic" in2="effect2_dropShadow_1_10391" result="shape" />
    </filter>
    <linearGradient id="paint0_linear_1_10391" x1="115.935" y1="96.3631" x2="84.3025" y2="65.3647"
      gradientUnits="userSpaceOnUse">
      <stop offset="0.0260417" stop-color="#FA7250" />
      <stop offset="0.401042" stop-color="#FF1893" />
      <stop offset="0.994792" stop-color="#A78AFF" />
    </linearGradient>
  </defs>
</svg>
  
