<svg width="202" height="147" viewBox="0 0 202 147" fill="none" xmlns="http://www.w3.org/2000/svg">
  <path
    d="M0.5 8.5C0.5 4.35787 3.85786 1 8 1H194C198.142 1 201.5 4.35786 201.5 8.5V138.5C201.5 142.642 198.142 146 194 146H8C3.85786 146 0.5 142.642 0.5 138.5V8.5Z"
    stroke="#687B85" stroke-opacity="0.4" />
  <rect x="32.5" y="17" width="137" height="113" rx="7.5" fill="#0D1214" stroke="#30393D" />
  <rect x="43" y="51" width="34" height="40" rx="4" fill="#21272A" />
  <rect x="84" y="51" width="77" height="7" rx="3.5" fill="#30393D" />
  <rect x="84" y="61" width="77" height="7" rx="3.5" fill="#21272A" />
  <rect x="43" y="94" width="34" height="22" rx="4" fill="#21272A" />
  <rect x="84" y="72" width="77" height="44" rx="4" fill="#21272A" />
  <circle cx="101" cy="82" r="26.5" fill="#0D1214" stroke="#30393D" />
  <path fill-rule="evenodd" clip-rule="evenodd"
    d="M85.6153 80.7179C84.9072 80.7179 84.3333 81.2919 84.3333 81.9999C84.3333 91.2047 91.7952 98.6666 101 98.6666C110.205 98.6666 117.667 91.2047 117.667 81.9999C117.667 72.7952 110.205 65.3333 101 65.3333C97.0956 65.3333 93.4133 66.6855 90.4924 69.0607C89.9409 68.8077 89.3272 68.6666 88.6803 68.6666C86.2789 68.6666 84.3333 70.6134 84.3333 73.0144C84.3333 75.4154 86.2789 77.3622 88.6803 77.3622C91.0833 77.3622 93.0289 75.4154 93.0289 73.0144C93.0289 72.2065 92.8086 71.4499 92.4246 70.8017C94.8433 68.9464 97.8343 67.8974 101 67.8974C108.789 67.8974 115.102 74.2113 115.102 81.9999C115.102 89.7886 108.789 96.1025 101 96.1025C93.2113 96.1025 86.8974 89.7886 86.8974 81.9999C86.8974 81.2919 86.3234 80.7179 85.6153 80.7179ZM109.974 81.9999H103.221C102.996 81.6107 102.671 81.2861 102.282 81.0609V75.5897C102.282 74.8816 101.708 74.3076 101 74.3076C100.292 74.3076 99.7178 74.8816 99.7178 75.5897V81.0609C98.9514 81.5042 98.4358 82.3329 98.4358 83.282C98.4358 84.6981 99.5838 85.8461 101 85.8461C101.949 85.8461 102.778 85.3304 103.221 84.564H109.974C110.682 84.564 111.256 83.99 111.256 83.282C111.256 82.5739 110.682 81.9999 109.974 81.9999Z"
    fill="#546771" />
  <path
    d="M32.5 29.46C32.5 27.1357 32.5004 25.4236 32.6145 24.0721C32.728 22.7267 32.9514 21.7844 33.3718 20.9905C34.0753 19.6618 35.1618 18.5753 36.4905 17.8718C37.2844 17.4514 38.2267 17.228 39.5721 17.1145C40.9236 17.0004 42.6357 17 44.96 17H157.04C159.364 17 161.076 17.0004 162.428 17.1145C163.773 17.228 164.716 17.4514 165.509 17.8718C166.838 18.5753 167.925 19.6618 168.628 20.9905C169.049 21.7844 169.272 22.7267 169.386 24.0721C169.5 25.4236 169.5 27.1357 169.5 29.46V36H32.5V29.46Z"
    fill="black" stroke="#30393D" />
  <rect x="74.5" y="21" width="39" height="11" rx="3.5" fill="#0D1214" stroke="#30393D" />
  <circle cx="44" cy="26.5" r="2.5" stroke="#30393D" />
  <circle cx="54" cy="26.5" r="2.5" stroke="#30393D" />
  <circle cx="64" cy="26.5" r="2.5" stroke="#30393D" />
</svg>
  
