<!--
// Copyright (c) 2022 The Brave Authors. All rights reserved.
// This Source Code Form is subject to the terms of the Mozilla Public
// License, v. 2.0. If a copy of the MPL was not distributed with this file,
// you can obtain one at http://mozilla.org/MPL/2.0/.
-->

<svg width="16" height="16" viewBox="0 0 16 16" fill="none" xmlns="http://www.w3.org/2000/svg">
<path fill-rule="evenodd" clip-rule="evenodd" d="M13.6553 13.6573C12.1445 15.168 10.1353 16 7.99723 16C5.85985 16 3.85061 15.168 2.33914 13.6567C-0.779715 10.5373 -0.779715 5.462 2.33914 2.34333C3.85061 0.832 5.85985 0 7.99723 0C10.1353 0 12.1445 0.832 13.6553 2.34333C15.1675 3.854 16 5.86333 16 8C16 10.1367 15.1675 12.146 13.6553 13.6573ZM9.33159 12.6667H6.66422C6.29659 12.6667 5.99738 12.368 5.99738 12C5.99738 11.632 6.29659 11.3333 6.66422 11.3333H7.33106V8.66667H6.66422C6.29659 8.66667 5.99738 8.368 5.99738 8C5.99738 7.632 6.29659 7.33333 6.66422 7.33333H7.9979C8.36621 7.33333 8.66475 7.632 8.66475 8V11.3333H9.33159C9.69989 11.3333 9.99843 11.632 9.99843 12C9.99843 12.368 9.69989 12.6667 9.33159 12.6667ZM7.9979 6C7.26263 6 6.66422 5.40133 6.66422 4.666C6.66422 3.93133 7.26263 3.33333 7.9979 3.33333C8.73384 3.33333 9.33159 3.93133 9.33159 4.666C9.33159 5.40133 8.73384 6 7.9979 6Z" fill="#339AF0"/>
</svg>
