<svg width="24" height="24" viewBox="0 0 24 24" fill="none" xmlns="http://www.w3.org/2000/svg">
<path fill-rule="evenodd" clip-rule="evenodd" d="M2.03382 20.4649L7.93304 16.9993L12 9.87187V2.99988C11.8927 2.99988 11.7855 3.0714 11.7041 3.21366L6.88662 11.6564L2.06958 20.0992C1.98839 20.2417 1.98068 20.3709 2.03382 20.4649Z" fill="#FF4724"/>
<path fill-rule="evenodd" clip-rule="evenodd" d="M12 2.99988V9.87187L16.0668 16.9993L21.966 20.4649C22.0193 20.3709 22.0116 20.2417 21.9304 20.0992L17.1132 11.6564L12.2957 3.21366C12.2143 3.0712 12.1071 2.99988 12 2.99988Z" fill="#9E1F63"/>
<path fill-rule="evenodd" clip-rule="evenodd" d="M21.9661 20.4649L16.0669 16.9994H7.93315L2.03394 20.4649C2.08708 20.5593 2.20146 20.6178 2.36424 20.6178H21.6356C21.7984 20.6178 21.9127 20.5593 21.9661 20.4649Z" fill="#662D91"/>
<path fill-rule="evenodd" clip-rule="evenodd" d="M7.93311 16.9994H16.0668L12.0001 9.87195L7.93311 16.9994Z" fill="white"/>
</svg>
