<?xml version="1.0" encoding="UTF-8"?>
<!--Generator: Apple Native CoreSVG 175.5-->
<!DOCTYPE svg
PUBLIC "-//W3C//DTD SVG 1.1//EN"
       "http://www.w3.org/Graphics/SVG/1.1/DTD/svg11.dtd">
<svg version="1.1" xmlns="http://www.w3.org/2000/svg" xmlns:xlink="http://www.w3.org/1999/xlink" width="3300" height="2200">
 <!--glyph: "", point size: 100.0, font version: "18.0d12e2", template writer version: "101"-->
 <g id="Notes">
  <rect height="2200" id="artboard" style="fill:white;opacity:1" width="3300" x="0" y="0"/>
  <line style="fill:none;stroke:black;opacity:1;stroke-width:0.5;" x1="263" x2="3036" y1="292" y2="292"/>
  <text style="stroke:none;fill:black;font-family:sans-serif;font-size:13;font-weight:bold;" transform="matrix(1 0 0 1 263 322)">Weight/Scale Variations</text>
  <text style="stroke:none;fill:black;font-family:sans-serif;font-size:13;text-anchor:middle;" transform="matrix(1 0 0 1 559.711 322)">Ultralight</text>
  <text style="stroke:none;fill:black;font-family:sans-serif;font-size:13;text-anchor:middle;" transform="matrix(1 0 0 1 856.422 322)">Thin</text>
  <text style="stroke:none;fill:black;font-family:sans-serif;font-size:13;text-anchor:middle;" transform="matrix(1 0 0 1 1153.13 322)">Light</text>
  <text style="stroke:none;fill:black;font-family:sans-serif;font-size:13;text-anchor:middle;" transform="matrix(1 0 0 1 1449.84 322)">Regular</text>
  <text style="stroke:none;fill:black;font-family:sans-serif;font-size:13;text-anchor:middle;" transform="matrix(1 0 0 1 1746.56 322)">Medium</text>
  <text style="stroke:none;fill:black;font-family:sans-serif;font-size:13;text-anchor:middle;" transform="matrix(1 0 0 1 2043.27 322)">Semibold</text>
  <text style="stroke:none;fill:black;font-family:sans-serif;font-size:13;text-anchor:middle;" transform="matrix(1 0 0 1 2339.98 322)">Bold</text>
  <text style="stroke:none;fill:black;font-family:sans-serif;font-size:13;text-anchor:middle;" transform="matrix(1 0 0 1 2636.69 322)">Heavy</text>
  <text style="stroke:none;fill:black;font-family:sans-serif;font-size:13;text-anchor:middle;" transform="matrix(1 0 0 1 2933.4 322)">Black</text>
  <line style="fill:none;stroke:black;opacity:1;stroke-width:0.5;" x1="263" x2="3036" y1="1903" y2="1903"/>
  <g transform="matrix(1 0 0 1 263 1933)">
   <path d="M9.24805 0.830078C13.5547 0.830078 17.1387-2.74414 17.1387-7.05078C17.1387-11.3574 13.5449-14.9316 9.23828-14.9316C4.94141-14.9316 1.36719-11.3574 1.36719-7.05078C1.36719-2.74414 4.95117 0.830078 9.24805 0.830078ZM9.24805-0.654297C5.70312-0.654297 2.87109-3.49609 2.87109-7.05078C2.87109-10.6055 5.69336-13.4473 9.23828-13.4473C12.793-13.4473 15.6445-10.6055 15.6445-7.05078C15.6445-3.49609 12.8027-0.654297 9.24805-0.654297ZM5.6543-7.05078C5.6543-6.62109 5.95703-6.32812 6.40625-6.32812L8.50586-6.32812L8.50586-4.20898C8.50586-3.76953 8.79883-3.4668 9.22852-3.4668C9.67773-3.4668 9.9707-3.76953 9.9707-4.20898L9.9707-6.32812L12.0898-6.32812C12.5293-6.32812 12.832-6.62109 12.832-7.05078C12.832-7.49023 12.5293-7.79297 12.0898-7.79297L9.9707-7.79297L9.9707-9.90234C9.9707-10.3516 9.67773-10.6543 9.22852-10.6543C8.79883-10.6543 8.50586-10.3516 8.50586-9.90234L8.50586-7.79297L6.40625-7.79297C5.95703-7.79297 5.6543-7.49023 5.6543-7.05078Z"/>
  </g>
  <g transform="matrix(1 0 0 1 281.867 1933)">
   <path d="M11.709 2.91016C17.1582 2.91016 21.6699-1.61133 21.6699-7.05078C21.6699-12.5 17.1484-17.0117 11.6992-17.0117C6.25977-17.0117 1.74805-12.5 1.74805-7.05078C1.74805-1.61133 6.26953 2.91016 11.709 2.91016ZM11.709 1.25C7.09961 1.25 3.41797-2.44141 3.41797-7.05078C3.41797-11.6602 7.08984-15.3516 11.6992-15.3516C16.3086-15.3516 20.0098-11.6602 20.0098-7.05078C20.0098-2.44141 16.3184 1.25 11.709 1.25ZM7.17773-7.05078C7.17773-6.57227 7.50977-6.25 8.00781-6.25L10.8789-6.25L10.8789-3.36914C10.8789-2.88086 11.2109-2.53906 11.6895-2.53906C12.1777-2.53906 12.5195-2.87109 12.5195-3.36914L12.5195-6.25L15.4004-6.25C15.8887-6.25 16.2305-6.57227 16.2305-7.05078C16.2305-7.53906 15.8887-7.88086 15.4004-7.88086L12.5195-7.88086L12.5195-10.752C12.5195-11.25 12.1777-11.5918 11.6895-11.5918C11.2109-11.5918 10.8789-11.25 10.8789-10.752L10.8789-7.88086L8.00781-7.88086C7.50977-7.88086 7.17773-7.53906 7.17773-7.05078Z"/>
  </g>
  <g transform="matrix(1 0 0 1 305.646 1933)">
   <path d="M14.9707 5.66406C21.9336 5.66406 27.6953-0.0976562 27.6953-7.05078C27.6953-14.0137 21.9238-19.7754 14.9609-19.7754C8.00781-19.7754 2.25586-14.0137 2.25586-7.05078C2.25586-0.0976562 8.01758 5.66406 14.9707 5.66406ZM14.9707 3.84766C8.93555 3.84766 4.08203-1.01562 4.08203-7.05078C4.08203-13.0957 8.92578-17.9492 14.9609-17.9492C21.0059-17.9492 25.8691-13.0957 25.8691-7.05078C25.8691-1.01562 21.0156 3.84766 14.9707 3.84766ZM9.19922-7.05078C9.19922-6.5332 9.57031-6.17188 10.1172-6.17188L14.0625-6.17188L14.0625-2.2168C14.0625-1.67969 14.4336-1.29883 14.9512-1.29883C15.4883-1.29883 15.8594-1.66992 15.8594-2.2168L15.8594-6.17188L19.8145-6.17188C20.3516-6.17188 20.7324-6.5332 20.7324-7.05078C20.7324-7.59766 20.3613-7.96875 19.8145-7.96875L15.8594-7.96875L15.8594-11.9141C15.8594-12.4609 15.4883-12.8418 14.9512-12.8418C14.4336-12.8418 14.0625-12.4609 14.0625-11.9141L14.0625-7.96875L10.1172-7.96875C9.57031-7.96875 9.19922-7.59766 9.19922-7.05078Z"/>
  </g>
  <text style="stroke:none;fill:black;font-family:sans-serif;font-size:13;font-weight:bold;" transform="matrix(1 0 0 1 263 1953)">Design Variations</text>
  <text style="stroke:none;fill:black;font-family:sans-serif;font-size:13;" transform="matrix(1 0 0 1 263 1971)">Symbols are supported in up to nine weights and three scales.</text>
  <text style="stroke:none;fill:black;font-family:sans-serif;font-size:13;" transform="matrix(1 0 0 1 263 1989)">For optimal layout with text and other symbols, vertically align</text>
  <text style="stroke:none;fill:black;font-family:sans-serif;font-size:13;" transform="matrix(1 0 0 1 263 2007)">symbols with the adjacent text.</text>
  <line style="fill:none;stroke:#00AEEF;stroke-width:0.5;opacity:1.0;" x1="776" x2="776" y1="1919" y2="1933"/>
  <g transform="matrix(1 0 0 1 776 1933)">
   <path d="M3.31055 0.15625C3.82812 0.15625 4.08203-0.0390625 4.26758-0.585938L5.52734-4.0332L11.2891-4.0332L12.5488-0.585938C12.7344-0.0390625 12.9883 0.15625 13.4961 0.15625C14.0137 0.15625 14.3457-0.15625 14.3457-0.644531C14.3457-0.810547 14.3164-0.966797 14.2383-1.17188L9.6582-13.3691C9.43359-13.9648 9.0332-14.2676 8.4082-14.2676C7.80273-14.2676 7.39258-13.9746 7.17773-13.3789L2.59766-1.16211C2.51953-0.957031 2.49023-0.800781 2.49023-0.634766C2.49023-0.146484 2.80273 0.15625 3.31055 0.15625ZM6.00586-5.51758L8.37891-12.0898L8.42773-12.0898L10.8008-5.51758Z"/>
  </g>
  <line style="fill:none;stroke:#00AEEF;stroke-width:0.5;opacity:1.0;" x1="793.197" x2="793.197" y1="1919" y2="1933"/>
  <text style="stroke:none;fill:black;font-family:sans-serif;font-size:13;font-weight:bold;" transform="matrix(1 0 0 1 776 1953)">Margins</text>
  <text style="stroke:none;fill:black;font-family:sans-serif;font-size:13;" transform="matrix(1 0 0 1 776 1971)">Leading and trailing margins on the left and right side of each symbol</text>
  <text style="stroke:none;fill:black;font-family:sans-serif;font-size:13;" transform="matrix(1 0 0 1 776 1989)">can be adjusted by modifying the x-location of the margin guidelines.</text>
  <text style="stroke:none;fill:black;font-family:sans-serif;font-size:13;" transform="matrix(1 0 0 1 776 2007)">Modifications are automatically applied proportionally to all</text>
  <text style="stroke:none;fill:black;font-family:sans-serif;font-size:13;" transform="matrix(1 0 0 1 776 2025)">scales and weights.</text>
  <g transform="matrix(1 0 0 1 1289 1933)">
   <path d="M2.8418 1.86523L4.54102 3.57422C5.40039 4.44336 6.38672 4.38477 7.31445 3.35938L18.0078-8.42773L17.041-9.4043L6.42578 2.27539C6.07422 2.67578 5.74219 2.77344 5.27344 2.30469L4.10156 1.14258C3.63281 0.683594 3.74023 0.341797 4.14062-0.0195312L15.6152-10.8203L14.6387-11.7871L3.04688-0.898438C2.06055 0.0195312 1.98242 0.996094 2.8418 1.86523ZM9.25781-16.3281C8.83789-15.918 8.80859-15.3418 9.04297-14.9512C9.27734-14.5898 9.73633-14.3555 10.3809-14.5215C11.8457-14.8633 13.3691-14.9219 14.7949-13.9844L14.209-12.5293C13.8672-11.6992 14.043-11.1133 14.5801-10.5664L16.875-8.25195C17.3633-7.76367 17.7734-7.74414 18.3398-7.8418L19.4043-8.03711L20.0684-7.36328L20.0293-6.80664C19.9902-6.30859 20.1172-5.92773 20.6055-5.44922L21.3672-4.70703C21.8457-4.22852 22.4609-4.19922 22.9297-4.66797L25.8398-7.58789C26.3086-8.05664 26.2891-8.65234 25.8105-9.13086L25.0391-9.89258C24.5605-10.3711 24.1895-10.5273 23.7109-10.4883L23.1348-10.4395L22.4902-11.0742L22.7344-12.1973C22.8613-12.7637 22.7051-13.2031 22.1191-13.7891L19.9219-15.9766C16.582-19.2969 12.1484-19.2188 9.25781-16.3281ZM10.752-15.957C13.1836-17.7344 16.4746-17.4316 18.7012-15.2051L21.1328-12.793C21.3672-12.5586 21.4062-12.373 21.3379-12.0312L21.0156-10.5469L22.5195-9.0625L23.5059-9.12109C23.7598-9.13086 23.8379-9.11133 24.0332-8.91602L24.6094-8.33984L22.168-5.89844L21.5918-6.47461C21.3965-6.66992 21.3672-6.74805 21.377-7.01172L21.4453-7.98828L19.9512-9.47266L18.4277-9.21875C18.1055-9.15039 17.959-9.17969 17.7148-9.41406L15.7129-11.416C15.459-11.6504 15.4297-11.8164 15.5859-12.1875L16.4648-14.2773C14.9023-15.7324 12.8711-16.3574 10.8398-15.7617C10.6836-15.7227 10.625-15.8496 10.752-15.957Z"/>
  </g>
  <text style="stroke:none;fill:black;font-family:sans-serif;font-size:13;font-weight:bold;" transform="matrix(1 0 0 1 1289 1953)">Exporting</text>
  <text style="stroke:none;fill:black;font-family:sans-serif;font-size:13;" transform="matrix(1 0 0 1 1289 1971)">Symbols should be outlined when exporting to ensure the</text>
  <text style="stroke:none;fill:black;font-family:sans-serif;font-size:13;" transform="matrix(1 0 0 1 1289 1989)">design is preserved when submitting to Xcode.</text>
  <text id="template-version" style="stroke:none;fill:black;font-family:sans-serif;font-size:13;text-anchor:end;" transform="matrix(1 0 0 1 3036 1933)">Template v.2.0</text>
  <text style="stroke:none;fill:black;font-family:sans-serif;font-size:13;text-anchor:end;" transform="matrix(1 0 0 1 3036 1951)">Requires Xcode 12 or greater</text>
  <text id="descriptive-name" style="stroke:none;fill:black;font-family:sans-serif;font-size:13;text-anchor:end;" transform="matrix(1 0 0 1 3036 1969)">Generated from brave.book.alt</text>
  <text style="stroke:none;fill:black;font-family:sans-serif;font-size:13;text-anchor:end;" transform="matrix(1 0 0 1 3036 1987)">Typeset at 100 points</text>
  <text style="stroke:none;fill:black;font-family:sans-serif;font-size:13;" transform="matrix(1 0 0 1 263 726)">Small</text>
  <text style="stroke:none;fill:black;font-family:sans-serif;font-size:13;" transform="matrix(1 0 0 1 263 1156)">Medium</text>
  <text style="stroke:none;fill:black;font-family:sans-serif;font-size:13;" transform="matrix(1 0 0 1 263 1586)">Large</text>
 </g>
 <g id="Guides">
  <g id="H-reference" style="fill:#27AAE1;stroke:none;" transform="matrix(1 0 0 1 339 696)">
   <path d="M0.993654 0L3.63775 0L29.3281-67.1323L30.0303-67.1323L30.0303-70.459L28.1226-70.459ZM11.6885-24.4799L46.9815-24.4799L46.2315-26.7285L12.4385-26.7285ZM55.1196 0L57.7637 0L30.6382-70.459L29.4326-70.459L29.4326-67.1323Z"/>
  </g>
  <line id="Baseline-S" style="fill:none;stroke:#27AAE1;opacity:1;stroke-width:0.5;" x1="263" x2="3036" y1="696" y2="696"/>
  <line id="Capline-S" style="fill:none;stroke:#27AAE1;opacity:1;stroke-width:0.5;" x1="263" x2="3036" y1="625.541" y2="625.541"/>
  <g id="H-reference" style="fill:#27AAE1;stroke:none;" transform="matrix(1 0 0 1 339 1126)">
   <path d="M0.993654 0L3.63775 0L29.3281-67.1323L30.0303-67.1323L30.0303-70.459L28.1226-70.459ZM11.6885-24.4799L46.9815-24.4799L46.2315-26.7285L12.4385-26.7285ZM55.1196 0L57.7637 0L30.6382-70.459L29.4326-70.459L29.4326-67.1323Z"/>
  </g>
  <line id="Baseline-M" style="fill:none;stroke:#27AAE1;opacity:1;stroke-width:0.5;" x1="263" x2="3036" y1="1126" y2="1126"/>
  <line id="Capline-M" style="fill:none;stroke:#27AAE1;opacity:1;stroke-width:0.5;" x1="263" x2="3036" y1="1055.54" y2="1055.54"/>
  <g id="H-reference" style="fill:#27AAE1;stroke:none;" transform="matrix(1 0 0 1 339 1556)">
   <path d="M0.993654 0L3.63775 0L29.3281-67.1323L30.0303-67.1323L30.0303-70.459L28.1226-70.459ZM11.6885-24.4799L46.9815-24.4799L46.2315-26.7285L12.4385-26.7285ZM55.1196 0L57.7637 0L30.6382-70.459L29.4326-70.459L29.4326-67.1323Z"/>
  </g>
  <line id="Baseline-L" style="fill:none;stroke:#27AAE1;opacity:1;stroke-width:0.5;" x1="263" x2="3036" y1="1556" y2="1556"/>
  <line id="Capline-L" style="fill:none;stroke:#27AAE1;opacity:1;stroke-width:0.5;" x1="263" x2="3036" y1="1485.54" y2="1485.54"/>
  <line id="left-margin" style="fill:none;stroke:#00AEEF;stroke-width:0.5;opacity:1.0;" x1="1392.39" x2="1392.39" y1="1030.79" y2="1150.12"/>
  <line id="right-margin" style="fill:none;stroke:#00AEEF;stroke-width:0.5;opacity:1.0;" x1="1507.3" x2="1507.3" y1="1030.79" y2="1150.12"/>
 </g>
 <g id="Symbols">
  <g id="Regular-L" transform="matrix(1 0 0 1 1379.39 1556)">
   <path d="M56.1841-93C56.1986-93 56.2083-92.9952 56.2179-92.9952C56.2276-92.9952 56.2373-93 56.2518-93C61.9117-93 66.9484-90.4625 70.4383-86.5282C73.9281-90.4625 78.9596-93 84.6245-93L84.6924-92.9855L84.7602-93L123.636-93C126.304-93 128.47-90.8395 128.47-88.1667L128.47 3.66686C128.47 6.3395 126.304 8.5 123.636 8.5L84.9534 8.5C79.6168 8.5 75.272 12.8401 75.272 18.1669C75.272 20.8395 73.1109 23 70.4383 23C67.7651 23 65.5999 20.8395 65.5999 18.1669C65.5999 12.8401 61.2644 8.5 55.9231 8.5L17.308 8.5C14.635 8.5 12.4696 6.3395 12.4696 3.66686L12.4696-88.1667C12.4696-90.8395 14.635-93 17.308-93L56.1841-93ZM84.6924-83.343L84.6245-83.3333C79.4671-83.3333 75.2714-79.1428 75.2714-73.9905L75.2714 1.5255C78.027-0.079363 81.1735-1.06014 84.5619-1.128C84.6291-1.13264 84.6871-1.16686 84.7596-1.16686L118.798-1.16686L118.798-83.3333L84.7596-83.3333L84.6924-83.343ZM56.218-83.3382C56.2083-83.3382 56.1986-83.3334 56.1841-83.3334L22.1416-83.3334L22.1416-1.16686L56.1841-1.16686C56.276-1.16686 56.3533-1.11814 56.4452-1.1135C59.7854-1.0265 62.8884-0.059643 65.5999 1.52086L65.5999-73.9906C65.5999-79.1429 61.4094-83.3334 56.2518-83.3334C56.2373-83.3334 56.2276-83.3382 56.218-83.3382ZM109.125-30.1669C111.799-30.1669 113.964-28.0064 113.964-25.3331C113.964-22.6605 111.799-20.5 109.125-20.5L84.9481-20.5C82.2755-20.5 80.1098-22.6605 80.1098-25.3331C80.1098-28.0064 82.2755-30.1669 84.9481-30.1669L109.125-30.1669ZM55.9278-30.1669C58.6007-30.1669 60.7662-28.0064 60.7662-25.3331C60.7662-22.6605 58.6007-20.5 55.9278-20.5L31.7504-20.5C29.0775-20.5 26.9121-22.6605 26.9121-25.3331C26.9121-28.0064 29.0775-30.1669 31.7504-30.1669L55.9278-30.1669ZM109.125-49.5C111.799-49.5 113.964-47.3395 113.964-44.6669C113.964-41.9989 111.799-39.8331 109.125-39.8331L84.9481-39.8331C82.2755-39.8331 80.1098-41.9989 80.1098-44.6669C80.1098-47.3395 82.2755-49.5 84.9481-49.5L109.125-49.5ZM55.9278-49.5C58.6007-49.5 60.7662-47.3395 60.7662-44.6669C60.7662-41.9989 58.6007-39.8331 55.9278-39.8331L31.7504-39.8331C29.0775-39.8331 26.9121-41.9989 26.9121-44.6669C26.9121-47.3395 29.0775-49.5 31.7504-49.5L55.9278-49.5ZM109.125-68.8333C111.799-68.8333 113.964-66.6728 113.964-64C113.964-61.3272 111.799-59.1667 109.125-59.1667L84.9481-59.1667C82.2755-59.1667 80.1098-61.3272 80.1098-64C80.1098-66.6728 82.2755-68.8333 84.9481-68.8333L109.125-68.8333ZM55.9278-68.8333C58.6007-68.8333 60.7662-66.6728 60.7662-64C60.7662-61.3272 58.6007-59.1667 55.9278-59.1667L31.7504-59.1667C29.0775-59.1667 26.9121-61.3272 26.9121-64C26.9121-66.6728 29.0775-68.8333 31.7504-68.8333L55.9278-68.8333Z"/>
  </g>
  <g id="Regular-M" transform="matrix(1 0 0 1 1392.39 1126)">
   <path d="M46.386-79.91C46.3973-79.91 46.4048-79.9063 46.4122-79.9063C46.4198-79.9063 46.4273-79.91 46.4385-79.91C50.8299-79.91 54.7377-77.9413 57.4453-74.8888C60.153-77.9413 64.0567-79.91 68.4519-79.91C68.4708-79.91 68.4856-79.8988 68.5045-79.8988C68.5234-79.8988 68.5383-79.91 68.5572-79.91L98.7193-79.91C100.789-79.91 102.47-78.2338 102.47-76.16L102.47-4.90986C102.47-2.83626 100.789-1.16001 98.7193-1.16001L68.707-1.16001C64.5666-1.16001 61.1956 2.20734 61.1956 6.34014C61.1956 8.41374 59.5189 10.09 57.4453 10.09C55.3713 10.09 53.6914 8.41374 53.6914 6.34014C53.6914 2.20734 50.3277-1.16001 46.1835-1.16001L16.2235-1.16001C14.1497-1.16001 12.4696-2.83626 12.4696-4.90986L12.4696-76.16C12.4696-78.2338 14.1497-79.91 16.2235-79.91L46.386-79.91ZM68.5045-72.4175L68.4519-72.41C64.4505-72.41 61.1952-69.1587 61.1952-65.1613L61.1952-6.57126C63.3331-7.81641 65.7744-8.57736 68.4033-8.63001C68.4555-8.63361 68.5005-8.66016 68.5567-8.66016L94.9654-8.66016L94.9654-72.41L68.5567-72.41C68.5383-72.41 68.523-72.4175 68.5045-72.4175ZM46.4123-72.4138C46.4048-72.4138 46.3973-72.41 46.3861-72.41L19.9737-72.41L19.9737-8.66016L46.3861-8.66016C46.4573-8.66016 46.5173-8.62236 46.5886-8.61876C49.1802-8.55126 51.5877-7.80111 53.6914-6.57486L53.6914-65.1613C53.6914-69.1588 50.4402-72.41 46.4386-72.41C46.4273-72.41 46.4198-72.4138 46.4123-72.4138ZM87.4612-31.1602C89.5353-31.1602 91.2156-29.4839 91.2156-27.4099C91.2156-25.3363 89.5353-23.66 87.4612-23.66L68.703-23.66C66.6294-23.66 64.9491-25.3363 64.9491-27.4099C64.9491-29.4839 66.6294-31.1602 68.703-31.1602L87.4612-31.1602ZM46.1872-31.1602C48.261-31.1602 49.9411-29.4839 49.9411-27.4099C49.9411-25.3363 48.261-23.66 46.1872-23.66L27.4289-23.66C25.355-23.66 23.675-25.3363 23.675-27.4099C23.675-29.4839 25.355-31.1602 27.4289-31.1602L46.1872-31.1602ZM87.4612-46.16C89.5353-46.16 91.2156-44.4838 91.2156-42.4102C91.2156-40.3402 89.5353-38.6599 87.4612-38.6599L68.703-38.6599C66.6294-38.6599 64.9491-40.3402 64.9491-42.4102C64.9491-44.4838 66.6294-46.16 68.703-46.16L87.4612-46.16ZM46.1872-46.16C48.261-46.16 49.9411-44.4838 49.9411-42.4102C49.9411-40.3402 48.261-38.6599 46.1872-38.6599L27.4289-38.6599C25.355-38.6599 23.675-40.3402 23.675-42.4102C23.675-44.4838 25.355-46.16 27.4289-46.16L46.1872-46.16ZM87.4612-61.16C89.5353-61.16 91.2156-59.4837 91.2156-57.41C91.2156-55.3363 89.5353-53.66 87.4612-53.66L68.703-53.66C66.6294-53.66 64.9491-55.3363 64.9491-57.41C64.9491-59.4837 66.6294-61.16 68.703-61.16L87.4612-61.16ZM46.1872-61.16C48.261-61.16 49.9411-59.4837 49.9411-57.41C49.9411-55.3363 48.261-53.66 46.1872-53.66L27.4289-53.66C25.355-53.66 23.675-55.3363 23.675-57.41C23.675-59.4837 25.355-61.16 27.4289-61.16L46.1872-61.16Z"/>
  </g>
  <g id="Regular-S" transform="matrix(1 0 0 1 1402.39 696)">
   <path d="M38.849-70C38.8578-70 38.8636-69.9971 38.8694-69.9971C38.8753-69.9971 38.8811-70 38.8899-70C42.3054-70 45.3448-68.4688 47.4507-66.0946C49.5567-68.4688 52.5929-70 56.0114-70C56.0261-70 56.0376-69.9913 56.0523-69.9913C56.067-69.9913 56.0786-70 56.0933-70L79.5527-70C81.1627-70 82.4696-68.6962 82.4696-67.0833L82.4696-11.6666C82.4696-10.0538 81.1627-8.75 79.5527-8.75L56.2098-8.75C52.9895-8.75 50.3676-6.13095 50.3676-2.91655C50.3676-1.30375 49.0635 0 47.4507 0C45.8376 0 44.531-1.30375 44.531-2.91655C44.531-6.13095 41.9148-8.75 38.6915-8.75L15.3893-8.75C13.7763-8.75 12.4696-10.0538 12.4696-11.6666L12.4696-67.0833C12.4696-68.6962 13.7763-70 15.3893-70L38.849-70ZM56.0523-64.1725C56.0376-64.1725 56.0261-64.1667 56.0114-64.1667C52.8992-64.1667 50.3673-61.6379 50.3673-58.5287L50.3673-12.9588C52.0301-13.9272 53.9289-14.519 55.9736-14.56C56.0142-14.5628 56.0492-14.5834 56.0929-14.5834L76.633-14.5834L76.633-64.1667L56.0929-64.1667C56.0786-64.1667 56.0667-64.1725 56.0523-64.1725ZM38.8695-64.1696C38.8637-64.1696 38.8578-64.1667 38.8491-64.1667L18.3061-64.1667L18.3061-14.5834L38.8491-14.5834C38.9045-14.5834 38.9512-14.554 39.0066-14.5512C41.0223-14.4987 42.8948-13.9153 44.531-12.9615L44.531-58.5288C44.531-61.6379 42.0023-64.1667 38.8899-64.1667C38.8812-64.1667 38.8753-64.1696 38.8695-64.1696ZM70.7964-32.0834C72.4096-32.0834 73.7165-30.7797 73.7165-29.1666C73.7165-27.5538 72.4096-26.25 70.7964-26.25L56.2067-26.25C54.5939-26.25 53.287-27.5538 53.287-29.1666C53.287-30.7797 54.5939-32.0834 56.2067-32.0834L70.7964-32.0834ZM38.6944-32.0834C40.3073-32.0834 41.6141-30.7797 41.6141-29.1666C41.6141-27.5538 40.3073-26.25 38.6944-26.25L24.1046-26.25C22.4916-26.25 21.1849-27.5538 21.1849-29.1666C21.1849-30.7797 22.4916-32.0834 24.1046-32.0834L38.6944-32.0834ZM70.7964-43.75C72.4096-43.75 73.7165-42.4462 73.7165-40.8334C73.7165-39.2234 72.4096-37.9166 70.7964-37.9166L56.2067-37.9166C54.5939-37.9166 53.287-39.2234 53.287-40.8334C53.287-42.4462 54.5939-43.75 56.2067-43.75L70.7964-43.75ZM38.6944-43.75C40.3073-43.75 41.6141-42.4462 41.6141-40.8334C41.6141-39.2234 40.3073-37.9166 38.6944-37.9166L24.1046-37.9166C22.4916-37.9166 21.1849-39.2234 21.1849-40.8334C21.1849-42.4462 22.4916-43.75 24.1046-43.75L38.6944-43.75ZM70.7964-55.4167C72.4096-55.4167 73.7165-54.1129 73.7165-52.5C73.7165-50.8871 72.4096-49.5833 70.7964-49.5833L56.2067-49.5833C54.5939-49.5833 53.287-50.8871 53.287-52.5C53.287-54.1129 54.5939-55.4167 56.2067-55.4167L70.7964-55.4167ZM38.6944-55.4167C40.3073-55.4167 41.6141-54.1129 41.6141-52.5C41.6141-50.8871 40.3073-49.5833 38.6944-49.5833L24.1046-49.5833C22.4916-49.5833 21.1849-50.8871 21.1849-52.5C21.1849-54.1129 22.4916-55.4167 24.1046-55.4167L38.6944-55.4167Z"/>
  </g>
 </g>
</svg>
