<?xml version="1.0" encoding="UTF-8"?>
<svg width="3300px" height="2200px" viewBox="0 0 3300 2200" version="1.1" xmlns="http://www.w3.org/2000/svg" xmlns:xlink="http://www.w3.org/1999/xlink">
    <title>brave.eye.slash</title>
    <g id="Page-1" stroke="none" stroke-width="1" fill="none" fill-rule="evenodd">
        <g id="brave.eye.slash">
            <g id="Notes">
                <rect id="artboard" fill="#FFFFFF" fill-rule="nonzero" x="0" y="0" width="3300" height="2200"></rect>
                <line x1="263" y1="292" x2="3036" y2="292" id="Path" stroke="#000000" stroke-width="0.5"></line>
                <text id="Weight/Scale-Variations" fill="#000000" fill-rule="nonzero" font-family="Helvetica-Bold, Helvetica" font-size="13" font-weight="bold">
                    <tspan x="263" y="322">Weight/Scale Variations</tspan>
                </text>
                <text id="Ultralight" fill="#000000" fill-rule="nonzero" font-family="Helvetica" font-size="13" font-weight="normal">
                    <tspan x="533.711" y="322">Ultralight</tspan>
                </text>
                <text id="Thin" fill="#000000" fill-rule="nonzero" font-family="Helvetica" font-size="13" font-weight="normal">
                    <tspan x="843.422" y="322">Thin</tspan>
                </text>
                <text id="Light" fill="#000000" fill-rule="nonzero" font-family="Helvetica" font-size="13" font-weight="normal">
                    <tspan x="1138.63" y="322">Light</tspan>
                </text>
                <text id="Regular" fill="#000000" fill-rule="nonzero" font-family="Helvetica" font-size="13" font-weight="normal">
                    <tspan x="1426.84" y="322">Regular</tspan>
                </text>
                <text id="Medium" fill="#000000" fill-rule="nonzero" font-family="Helvetica" font-size="13" font-weight="normal">
                    <tspan x="1723.06" y="322">Medium</tspan>
                </text>
                <text id="Semibold" fill="#000000" fill-rule="nonzero" font-family="Helvetica" font-size="13" font-weight="normal">
                    <tspan x="2015.77" y="322">Semibold</tspan>
                </text>
                <text id="Bold" fill="#000000" fill-rule="nonzero" font-family="Helvetica" font-size="13" font-weight="normal">
                    <tspan x="2326.48" y="322">Bold</tspan>
                </text>
                <text id="Heavy" fill="#000000" fill-rule="nonzero" font-family="Helvetica" font-size="13" font-weight="normal">
                    <tspan x="2618.19" y="322">Heavy</tspan>
                </text>
                <text id="Black" fill="#000000" fill-rule="nonzero" font-family="Helvetica" font-size="13" font-weight="normal">
                    <tspan x="2917.4" y="322">Black</tspan>
                </text>
                <line x1="263" y1="1903" x2="3036" y2="1903" id="Path" stroke="#000000" stroke-width="0.5"></line>
                <g id="Group" transform="translate(264.000000, 1918.000000)" fill="#000000" fill-rule="nonzero">
                    <path d="M8.24805,15.830078 C12.5547,15.830078 16.1387,12.25586 16.1387,7.94922 C16.1387,3.6426 12.5449,0.0684 8.23828,0.0684 C3.94141,0.0684 0.36719,3.6426 0.36719,7.94922 C0.36719,12.25586 3.95117,15.830078 8.24805,15.830078 Z M8.24805,14.345703 C4.70312,14.345703 1.87109,11.50391 1.87109,7.94922 C1.87109,4.3945 4.69336,1.5527 8.23828,1.5527 C11.793,1.5527 14.6348,4.3945 14.6445503,7.94922 C14.6543,11.50391 11.8027,14.345703 8.24805,14.345703 Z M8.22852,11.37695 C8.69727,11.37695 8.9707,11.06445 8.9707,10.54688 L8.9707,8.68164 L11.002,8.68164 C11.5,8.68164 11.832,8.42773 11.832,7.95898 C11.832,7.48047 11.5195,7.2168 11.002,7.2168 L8.9707,7.2168 L8.9707,5.18555 C8.9707,4.668 8.69727,4.3457 8.22852,4.3457 C7.75977,4.3457 7.50586,4.6875 7.50586,5.18555 L7.50586,7.2168 L5.49414,7.2168 C4.97656,7.2168 4.64453,7.48047 4.64453,7.95898 C4.64453,8.42773 4.99609,8.68164 5.49414,8.68164 L7.50586,8.68164 L7.50586,10.54688 C7.50586,11.04492 7.75977,11.37695 8.22852,11.37695 Z" id="Shape"></path>
                </g>
                <g id="Group" transform="translate(282.506000, 1915.000000)" fill="#000000" fill-rule="nonzero">
                    <path d="M10.709,20.91016 C16.1582,20.91016 20.6699,16.38867 20.6699,10.94922 C20.6699,5.5 16.1484,0.9883 10.6992,0.9883 C5.25977,0.9883 0.74805,5.5 0.74805,10.94922 C0.74805,16.38867 5.26953,20.91016 10.709,20.91016 Z M10.709,19.25 C6.09961,19.25 2.41797,15.55859 2.41797,10.94922 C2.41797,6.3398 6.08984,2.6484 10.6992,2.6484 C15.3086,2.6484 19,6.3398 19.0098379,10.94922 C19.0195,15.55859 15.3184,19.25 10.709,19.25 Z M10.6797,15.33398 C11.207,15.33398 11.5098,14.98242 11.5098,14.40625 L11.5098,11.76953 L14.3223,11.76953 C14.8691,11.76953 15.25,11.48633 15.25,10.96875 C15.25,10.44141 14.8887,10.13867 14.3223,10.13867 L11.5098,10.13867 L11.5098,7.3164 C11.5098,6.75 11.207,6.3887 10.6797,6.3887 C10.1621,6.3887 9.8789,6.7695 9.8789,7.3164 L9.8789,10.13867 L7.07617,10.13867 C6.50977,10.13867 6.13867,10.44141 6.13867,10.96875 C6.13867,11.48633 6.5293,11.76953 7.07617,11.76953 L9.8789,11.76953 L9.8789,14.40625 C9.8789,14.96289 10.1621,15.33398 10.6797,15.33398 Z" id="Shape"></path>
                </g>
                <g id="Group" transform="translate(306.924000, 1913.000000)" fill="#000000" fill-rule="nonzero">
                    <path d="M12.9707,25.66406 C19.9336,25.66406 25.6953,19.9023438 25.6953,12.94922 C25.6953,5.9863 19.9238,0.2246 12.9609,0.2246 C6.00781,0.2246 0.25586,5.9863 0.25586,12.94922 C0.25586,19.9023438 6.01758,25.66406 12.9707,25.66406 Z M12.9707,23.84766 C6.93555,23.84766 2.08203,18.98438 2.08203,12.94922 C2.08203,6.9043 6.92578,2.0508 12.9609,2.0508 C19.0059,2.0508 23.8594,6.9043 23.8691295,12.94922 C23.8789,18.98438 19.0156,23.84766 12.9707,23.84766 Z M12.9414,18.61328 C13.5176,18.61328 13.8594,18.22266 13.8594,17.61719 L13.8594,13.86719 L17.7754,13.86719 C18.3711,13.86719 18.7812,13.53516 18.7812,12.97852 C18.7812,12.40234 18.3906,12.06055 17.7754,12.06055 L13.8594,12.06055 L13.8594,8.1348 C13.8594,7.5195 13.5176,7.1289 12.9414,7.1289 C12.375,7.1289 12.0527,7.5391 12.0527,8.1348 L12.0527,12.06055 L8.1465,12.06055 C7.53125,12.06055 7.13086,12.40234 7.13086,12.97852 C7.13086,13.53516 7.55078,13.86719 8.1465,13.86719 L12.0527,13.86719 L12.0527,17.61719 C12.0527,18.20312 12.375,18.61328 12.9414,18.61328 Z" id="Shape"></path>
                </g>
                <text id="Design-Variations" fill="#000000" fill-rule="nonzero" font-family="Helvetica-Bold, Helvetica" font-size="13" font-weight="bold">
                    <tspan x="263" y="1953">Design Variations</tspan>
                </text>
                <text id="Symbols-are-supported-in-up-to-nine-weights-and-three-scales." fill="#000000" fill-rule="nonzero" font-family="Helvetica" font-size="13" font-weight="normal">
                    <tspan x="263" y="1971">Symbols are supported in up to nine weights and three scales.</tspan>
                </text>
                <text id="For-optimal-layout-with-text-and-other-symbols,-vertically-align" fill="#000000" fill-rule="nonzero" font-family="Helvetica" font-size="13" font-weight="normal">
                    <tspan x="263" y="1989">For optimal layout with text and other symbols, vertically align</tspan>
                </text>
                <text id="symbols-with-the-adjacent-text." fill="#000000" fill-rule="nonzero" font-family="Helvetica" font-size="13" font-weight="normal">
                    <tspan x="263" y="2007">symbols with the adjacent text.</tspan>
                </text>
                <line x1="776" y1="1919" x2="776" y2="1933" id="Path" stroke="#00AEEF" stroke-width="0.5"></line>
                <g id="Group" transform="translate(778.000000, 1918.000000)" fill="#000000" fill-rule="nonzero">
                    <path d="M1.31055,15.126953 C1.82812,15.126953 2.08203,14.9316406 2.26758,14.394531 L3.52734,10.9375 L9.2891,10.9375 L10.5488,14.394531 C10.7344,14.9316406 10.9883,15.126953 11.4961,15.126953 C12.0137,15.126953 12.3457,14.814453 12.3457,14.326172 C12.3457,14.160156 12.3164,14.013672 12.2383,13.79883 L7.6582,1.6113 C7.43359,1.0059 7.0332,0.7129 6.4082,0.7129 C5.80273,0.7129 5.39258,1.0059 5.17773,1.6016 L0.59766,13.80859 C0.51953,14.023438 0.49023,14.169922 0.49023,14.335938 C0.49023,14.824219 0.80273,15.126953 1.31055,15.126953 Z M4.00586,9.46289 L6.37891,2.8906 L6.42773,2.8906 L8.8008,9.46289 L4.00586,9.46289 Z" id="Shape"></path>
                </g>
                <line x1="792.836" y1="1919" x2="792.836" y2="1933" id="Path" stroke="#00AEEF" stroke-width="0.5"></line>
                <text id="Margins" fill="#000000" fill-rule="nonzero" font-family="Helvetica-Bold, Helvetica" font-size="13" font-weight="bold">
                    <tspan x="776" y="1953">Margins</tspan>
                </text>
                <text id="Leading-and-trailing-margins-on-the-left-and-right-side-of-each-symbol" fill="#000000" fill-rule="nonzero" font-family="Helvetica" font-size="13" font-weight="normal">
                    <tspan x="776" y="1971">Leading and trailing margins on the left and right side of each symbol</tspan>
                </text>
                <text id="can-be-adjusted-by-modifying-the-x-location-of-the-margin-guidelines." fill="#000000" fill-rule="nonzero" font-family="Helvetica" font-size="13" font-weight="normal">
                    <tspan x="776" y="1989">can be adjusted by modifying the x-location of the margin guidelines.</tspan>
                </text>
                <text id="Modifications-are-automatically-applied-proportionally-to-all" fill="#000000" fill-rule="nonzero" font-family="Helvetica" font-size="13" font-weight="normal">
                    <tspan x="776" y="2007">Modifications are automatically applied proportionally to all</tspan>
                </text>
                <text id="scales-and-weights." fill="#000000" fill-rule="nonzero" font-family="Helvetica" font-size="13" font-weight="normal">
                    <tspan x="776" y="2025">scales and weights.</tspan>
                </text>
                <g id="Group" transform="translate(1291.000000, 1914.000000)" fill="#000000" fill-rule="nonzero">
                    <path d="M0.8418,20.86523 L2.54102,22.57422 C3.40039,23.44336 4.38672,23.38477 5.31445,22.35938 L15.4902,11.14844 C15.7539,11.23633 16.0273,11.2168 16.3398,11.1582 L17.4043,10.96289 L18.0684,11.63672 L18.0293,12.19336 C17.9902,12.69141 18.1172,13.07227 18.6055,13.55078 L19.3672,14.29297 C19.8457,14.77148 20.4609,14.80078 20.9297,14.33203 L23.8398,11.41211 C24.3086,10.94336 24.2891,10.34766 23.8105,9.86914 L23.0391,9.10742 C22.5605,8.6289 22.1895,8.4727 21.7109,8.5117 L21.1348,8.5605 L20.4902,7.9258 L20.7344,6.8027 C20.8613,6.2363 20.7051,5.7969 20.1191,5.2109 L17.9219,3.0234 C14.582,-0.2969 10.1484,-0.2188 7.25781,2.6719 C6.83789,3.082 6.80859,3.6582 7.04297,4.0488 C7.27734,4.4102 7.73633,4.6445 8.3809,4.4785 C9.8457,4.1367 11.3691,4.0781 12.7949,5.0156 L12.209,6.4707 C12.0137,6.9492 11.9844,7.3496 12.1113,7.7109 L1.04688,18.101562 C0.06055,19.0195312 -0.01758,19.996094 0.8418,20.86523 Z M8.752,3.043 C11.1836,1.2656 14.4746,1.5684 16.7012,3.7949 L19.1328,6.207 C19.3672,6.4414 19.4062,6.627 19.3379,6.9688 L19.0156,8.4531 L20.5195,9.9375 L21.5059,9.87891 C21.7598,9.86914 21.8379,9.88867 22.0332,10.08398 L22.6094,10.66016 L20.168,13.10156 L19.5918,12.52539 C19.3965,12.33008 19.3672,12.25195 19.377,11.98828 L19.4453,11.01172 L17.9512,9.52734 L16.4277,9.78125 C16.1055,9.84961 15.959,9.82031 15.7148,9.58594 L13.7129,7.584 C13.459,7.3496 13.4297,7.1836 13.5859,6.8125 L14.4648,4.7227 C12.9023,3.2676 10.8711,2.6426 8.8398,3.2383 C8.6836,3.2773 8.625,3.1504 8.752,3.043 Z M3.27344,21.3047 L2.10156,20.14258 C1.63281,19.683594 1.74023,19.341797 2.14062,18.9804688 L12.9512,8.8047 L14.416,10.28906 L4.42578,21.27539 C4.07422,21.67578 3.74219,21.77344 3.27344,21.3047 Z" id="Shape"></path>
                </g>
                <text id="Exporting" fill="#000000" fill-rule="nonzero" font-family="Helvetica-Bold, Helvetica" font-size="13" font-weight="bold">
                    <tspan x="1289" y="1953">Exporting</tspan>
                </text>
                <text id="Symbols-should-be-outlined-when-exporting-to-ensure-the" fill="#000000" fill-rule="nonzero" font-family="Helvetica" font-size="13" font-weight="normal">
                    <tspan x="1289" y="1971">Symbols should be outlined when exporting to ensure the</tspan>
                </text>
                <text id="design-is-preserved-when-submitting-to-Xcode." fill="#000000" fill-rule="nonzero" font-family="Helvetica" font-size="13" font-weight="normal">
                    <tspan x="1289" y="1989">design is preserved when submitting to Xcode.</tspan>
                </text>
                <text id="Template-v.2.0" fill="#000000" fill-rule="nonzero" font-family="Helvetica" font-size="13" font-weight="normal">
                    <tspan x="2952" y="1933">Template v.2.0</tspan>
                </text>
                <text id="Requires-Xcode-12-or-greater" fill="#000000" fill-rule="nonzero" font-family="Helvetica" font-size="13" font-weight="normal">
                    <tspan x="2865" y="1951">Requires Xcode 12 or greater</tspan>
                </text>
                <text id="Generated-from-eye.slash" fill="#000000" fill-rule="nonzero" font-family="Helvetica" font-size="13" font-weight="normal">
                    <tspan x="2886" y="1969">Generated from eye.slash</tspan>
                </text>
                <text id="Typeset-at-100-points" fill="#000000" fill-rule="nonzero" font-family="Helvetica" font-size="13" font-weight="normal">
                    <tspan x="2912" y="1987">Typeset at 100 points</tspan>
                </text>
                <text id="Small" fill="#000000" fill-rule="nonzero" font-family="Helvetica" font-size="13" font-weight="normal">
                    <tspan x="263" y="726">Small</tspan>
                </text>
                <text id="Medium" fill="#000000" fill-rule="nonzero" font-family="Helvetica" font-size="13" font-weight="normal">
                    <tspan x="263" y="1156">Medium</tspan>
                </text>
                <text id="Large" fill="#000000" fill-rule="nonzero" font-family="Helvetica" font-size="13" font-weight="normal">
                    <tspan x="263" y="1586">Large</tspan>
                </text>
            </g>
            <g id="Guides" transform="translate(263.000000, 625.000000)">
                <g id="H-reference" transform="translate(76.000000, 0.000000)" fill="#27AAE1" fill-rule="nonzero">
                    <path d="M0.976562,71 L3.66211,71 L12.9883,46.5371 L45.7031,46.5371 L55.0781,71 L57.7148,71 L30.6152,0.541 L28.125,0.541 L0.976562,71 Z M29.2969,3.8613 L29.3945,3.8613 L44.873,44.291 L13.8672,44.291 L29.2969,3.8613 Z" id="Shape"></path>
                </g>
                <line x1="0" y1="71" x2="2773" y2="71" id="Baseline-S" stroke="#27AAE1" stroke-width="0.5"></line>
                <line x1="0" y1="0.541" x2="2773" y2="0.541" id="Capline-S" stroke="#27AAE1" stroke-width="0.5"></line>
                <g id="H-reference" transform="translate(76.000000, 430.000000)" fill="#27AAE1" fill-rule="nonzero">
                    <path d="M0.976562,71 L3.66211,71 L12.9883,46.5371 L45.7031,46.5371 L55.0781,71 L57.7148,71 L30.6152,0.541 L28.125,0.541 L0.976562,71 Z M29.2969,3.8613 L29.3945,3.8613 L44.873,44.291 L13.8672,44.291 L29.2969,3.8613 Z" id="Shape"></path>
                </g>
                <line x1="0" y1="501" x2="2773" y2="501" id="Baseline-M" stroke="#27AAE1" stroke-width="0.5"></line>
                <line x1="0" y1="430.54" x2="2773" y2="430.54" id="Capline-M" stroke="#27AAE1" stroke-width="0.5"></line>
                <g id="H-reference" transform="translate(76.000000, 860.000000)" fill="#27AAE1" fill-rule="nonzero">
                    <path d="M0.976562,71 L3.66211,71 L12.9883,46.5371 L45.7031,46.5371 L55.0781,71 L57.7148,71 L30.6152,0.541 L28.125,0.541 L0.976562,71 Z M29.2969,3.8613 L29.3945,3.8613 L44.873,44.291 L13.8672,44.291 L29.2969,3.8613 Z" id="Shape"></path>
                </g>
                <line x1="0" y1="931" x2="2773" y2="931" id="Baseline-L" stroke="#27AAE1" stroke-width="0.5"></line>
                <line x1="0" y1="860.54" x2="2773" y2="860.54" id="Capline-L" stroke="#27AAE1" stroke-width="0.5"></line>
                <rect id="left-margin" fill="#00AEEF" fill-rule="nonzero" opacity="0.4" x="1109.79" y="405.79" width="19" height="119.336"></rect>
                <rect id="right-margin" fill="#00AEEF" fill-rule="nonzero" opacity="0.4" x="1245" y="406" width="19" height="119.336"></rect>
            </g>
            <g id="Symbols" transform="translate(1392.000000, 1039.000000)" fill="#000000" fill-rule="nonzero">
                <g id="Regular-M" transform="translate(0.160000, 0.000000)">
                    <path d="M13.02375,102.614434 C12.089375,103.539799 10.8626844,104 9.63606562,104 C8.409375,104 7.18270594,103.539799 6.24833094,102.614434 C4.37479406,100.772213 4.37479406,97.7777174 6.24833094,95.9312418 L21.0114344,81.3636552 C5.3475,71.4392031 0,57.7072105 0,51.9971051 C0,39.6513874 20.1489344,9.45392339 57.5,9.45392339 C71.8843437,9.45392339 80.9549687,13.7590338 85.9718437,17.2762012 L102.081906,1.38480355 C103.950656,-0.461601184 106.983781,-0.461601184 108.856844,1.38480355 C110.725594,3.23121538 110.725594,6.22627829 108.856844,8.06793211 L13.02375,102.614434 Z M44.62,58.0726765 L63.6860656,39.2621668 C61.7645594,38.3555927 59.670625,37.8192355 57.5,37.8192355 C49.5745594,37.8192355 43.125,44.1843292 43.125,52.001856 C43.125,54.1282812 43.7048156,56.1740826 44.62,58.0726765 Z M57.5,18.9090274 C24.9933094,18.9090274 9.58330937,45.4516184 9.58330937,51.9971051 C9.58330937,54.1045976 13.0045594,65.852267 27.9976844,74.4670261 L37.763125,64.8364927 C37.4276844,64.5279667 37.0348156,64.3001355 36.7904406,63.8919112 C34.6629406,60.2988001 33.5416906,56.1883354 33.5416906,52.001856 C33.5416906,38.9726446 44.289375,28.3688824 57.5,28.3688824 C62.2389344,28.3688824 66.7958094,29.797561 70.6914344,32.3512141 L79.0387812,24.1159611 C75.0856562,21.7046936 68.2476844,18.9090274 57.5,18.9090274 Z M57.4951844,75.629937 C54.9939344,75.629937 52.885625,73.7175158 52.7179406,71.2158391 C52.5454406,68.6099259 54.5435656,66.3599769 57.1885656,66.1890857 C65.0516906,65.6813758 71.371875,59.449166 71.8843437,51.6885792 C72.0568437,49.0874878 74.405,47.1034483 76.978125,47.2838413 C79.6180937,47.4499107 81.62125,49.6997888 81.44875,52.3056311 C80.6243437,64.7795526 70.4614344,74.8045539 57.8114344,75.6256825 C57.7060656,75.629937 57.600625,75.629937 57.4951844,75.629937 Z M44.2798156,83.5235495 C48.458125,84.5581147 52.9095594,85.0849701 57.5,85.0849701 C90.0069063,85.0849701 105.416906,58.5473428 105.416906,51.9971051 C105.416906,50.0225675 103.341875,43.6004628 96.9255937,36.3715532 C95.1819062,34.4016955 95.3831562,31.4161344 97.37625,29.6978626 C99.3650313,27.9796617 102.393125,28.1789875 104.137531,30.1440943 C110.735656,37.5771514 115,46.1588668 115,51.9971051 C115,64.3428228 94.8512812,94.5400032 57.5,94.5400032 C52.1189344,94.5400032 46.8816906,93.9188386 41.9366906,92.689273 C39.3683094,92.0532175 37.8158094,89.4806316 38.4579406,86.9505913 C39.1048156,84.4162963 41.7066906,82.8825303 44.2798156,83.5235495 Z" id="Shape"></path>
                </g>
            </g>
        </g>
    </g>
</svg>