<svg xmlns="http://www.w3.org/2000/svg" width="32" height="32" fill="none"><path fill="#fff" d="M18.72 27.464c-.831.238-1.662.386-2.463.386h-.119c-.8 0-1.66-.119-2.491-.386-.386-.118-.801.12-.92.505-.118.385.119.8.505.92.978.296 1.957.444 2.906.444h.12a9.69 9.69 0 0 0 2.876-.445c.386-.118.623-.534.505-.92-.119-.385-.534-.622-.92-.504Zm6.466-18.242v-.03a9.401 9.401 0 0 0-8.988-6.526c-4.153 0-7.772 2.64-9.018 6.556v.03c-.83 2.462-.534 5.754.801 8.81 1.84 4.182 5.191 7.118 8.157 7.118h.06c2.966 0 6.318-2.907 8.157-7.119 1.394-3.085 1.69-6.377.83-8.84Zm-4.331-3.59c-1.513-.059-3.144.594-4.657 1.87-1.543-1.276-3.174-1.929-4.657-1.87a7.986 7.986 0 0 1 4.657-1.482c1.72 0 3.322.534 4.657 1.483Zm-3.441 17.769c-.386.178-.801.267-1.216.267-.445 0-.86-.09-1.216-.267-2.522-1.157-3.056-5.844-1.128-10.234.623-1.394 1.424-2.64 2.344-3.648.92 1.008 1.72 2.254 2.343 3.648 1.898 4.39 1.394 9.077-1.127 10.234Zm-8.068-5.933c-1.216-2.758-1.483-5.665-.772-7.771.386-1.128 1.039-1.929 1.87-2.314 1.304-.593 3.025-.178 4.656 1.157-1.038 1.127-1.928 2.521-2.61 4.064-1.305 2.936-1.572 5.991-.979 8.335a14.037 14.037 0 0 1-2.165-3.47Zm13.674 0c-.593 1.305-1.335 2.492-2.165 3.47.593-2.343.296-5.398-.98-8.334-.681-1.543-1.571-2.937-2.61-4.064 1.632-1.305 3.323-1.75 4.658-1.157.83.385 1.483 1.186 1.868 2.314.742 2.106.445 5.013-.77 7.771Z"/></svg>
