<svg xmlns="http://www.w3.org/2000/svg" width="32" height="32" fill="none"><path fill="#fff" d="M13.52 5.333c.165 0 .239.092.33.175l10.26 9.763c1.042.956 2.075 1.937 3.098 2.942a.276.276 0 0 1 .056.432c-.212.312-.414.634-.598.965-.184.331-.193.193-.35 0-1.489-1.434-2.996-2.859-4.495-4.284a6510.9 6510.9 0 0 0-9.56-9.083c-.249-.23-.212-.349 0-.524a2.758 2.758 0 0 1 1.259-.386ZM10.33 12.182l.175.147 12.87 12.209c.147.147.184.257.064.431-.211.322-.404.644-.597.975-.193.33-.184.211-.35.046-1.268-1.223-2.555-2.445-3.842-3.677l-9.276-8.78c-.303-.284-.303-.284 0-.551l.8-.671.156-.129ZM5.752 23.572a4.326 4.326 0 0 1-.975-.1 2.804 2.804 0 0 1-1.755-4.083 7.566 7.566 0 0 1 1.507-1.765c.432-.46.442-.46.92 0l4.688 4.45c.064.064.285.138 0 .257a10.95 10.95 0 0 1-4.385 1.241ZM25.462 21.587l-.184.303c-.166.276-.35.542-.497.837-.147.294-.22.21-.395.045L12.141 11.116c-.211-.193-.165-.258 0-.45a4.83 4.83 0 0 1 .79-.626c.212-.129.304-.156.479 0l5.184 4.946 6.675 6.316c.073.1.184.147.193.285ZM16.967 5.407a11.28 11.28 0 0 1 3.007.809c.392.257.748.566 1.057.92 2.758 2.582 5.433 5.175 8.163 7.758.147.147.193.24.064.423-.22.322-.413.662-.606 1.002-.102.184-.166.193-.322 0l-5.139-4.817-6.178-5.884a.396.396 0 0 1-.138-.165c-.018-.064.056-.028.092-.046ZM14.182 20.851c0 .101-.065.083-.11.092a5.803 5.803 0 0 0-1.72.322c-.11 0-.156 0-.22-.092l-5.59-5.314c-.137-.128-.137-.202 0-.321.304-.267.598-.543.92-.819.11-.11.184-.137.312 0l6.334 6.04.074.092Z"/></svg>
