<svg width="56" height="12" viewBox="0 0 56 12" fill="none" xmlns="http://www.w3.org/2000/svg"><path fill-rule="evenodd" clip-rule="evenodd" d="M3.611 9.574a10.8 10.8 0 0 0 1.885 1.597l.506.319c.141.086.38.232.536.299l.496.211 1.011-.585.004-.002a10 10 0 0 0 1.24-.868 9.9 9.9 0 0 0 2.826-3.796l.14-.409c.147-.459.445-1.4.464-1.487.159-.73.257-1.402.24-2.315l-.012-.682-.492-.31C8.297-1.225 3.462.352 1.564 1.486a55 55 0 0 0-.58.357l-.019.684C.877 5.796 2.238 8.105 3.611 9.574m4.997.137c.864-.705 1.898-1.804 2.57-3.38v-.144l-.049-.071c-1.71-1.49-3.276-1.705-4.323-1.613a4.6 4.6 0 0 0-.872.162l-.196.057.071.19a7 7 0 0 0 .372.802c.12.216.257.43.395.574l.07.072.098-.017c.308-.052.57-.054.794-.028a2 2 0 0 1 .759.248 2 2 0 0 1 .259.186c-.74 1.032-1.348 1.53-1.584 1.699-2.141-1.723-2.72-4.03-2.84-4.634 2.053-.735 3.517-.723 4.625-.43.762.202 1.364.537 1.887.873a15 15 0 0 1 .331.217l.092.062.311.206.198.17.09-.288a13 13 0 0 0 .094-.468q.036-.204.062-.41c.046-.363.068-.741.06-1.188l-.002-.102-.086-.054C6.91-.678 2.65 2.074 2.192 2.37c-.015.01-.054.028-.06.032l-.088.053-.002.102c-.08 2.924 1.13 4.97 2.356 6.283a9.7 9.7 0 0 0 1.695 1.436c.234.151.735.467.868.524l.541-.313a9 9 0 0 0 1.106-.775M19.134 2.4c-2.208 0-3.773 1.493-3.773 3.602 0 2.169 1.646 3.598 3.757 3.598 1.823 0 3.443-1.305 3.443-3.528 0-.169-.01-.338-.035-.521h-3.403v1.28h1.727c-.198.819-.785 1.255-1.793 1.255-1.053 0-1.954-.749-1.954-2.084 0-1.21.815-2.044 1.95-2.044.658 0 1.159.238 1.513.61l1.206-1.16c-.618-.631-1.514-1.008-2.638-1.008m25.542.945c0 .456-.322.77-.776.77-.45 0-.767-.314-.767-.77s.312-.774.767-.774.776.313.776.774m0 1.455h-1.543v4.8h1.543zm-9.292.718V4.8h-1.508v4.8h1.508V7.262c0-.85.605-1.16 1.21-1.16.254-.026.612.056.71.1V4.895c-.123-.079-.447-.096-.594-.095-.564 0-1.097.266-1.326.718M33.19 9.6V4.8h-1.505v.568c-.272-.321-.78-.568-1.447-.568-1.263 0-2.191 1.027-2.191 2.405S28.975 9.6 30.238 9.6c.667 0 1.175-.143 1.447-.47v.47zm-2.581-3.456c.602.005 1.021.437 1.021 1.06 0 .625-.42 1.061-1.021 1.061-.603 0-1.022-.436-1.022-1.06s.42-1.061 1.022-1.061M50.333 4.8v4.8h-1.506v-.47c-.271.327-.78.47-1.446.47-1.263 0-2.191-1.018-2.191-2.395S46.118 4.8 47.38 4.8c.667 0 1.175.247 1.446.568V4.8zm-1.56 2.405c0-.624-.42-1.056-1.022-1.061-.602 0-1.021.437-1.021 1.06 0 .625.42 1.061 1.021 1.061.603 0 1.022-.436 1.022-1.06M42.447 9.6V2.57h-1.505v2.86c-.272-.317-.78-.56-1.446-.56-1.264 0-2.192 1.012-2.192 2.37s.928 2.36 2.192 2.36c.666 0 1.174-.14 1.446-.461V9.6zm-2.581-3.406c.602.004 1.021.43 1.021 1.045s-.42 1.046-1.021 1.046c-.602 0-1.022-.43-1.022-1.046 0-.615.42-1.045 1.022-1.045M26.026 7.42V4.8h1.507v2.738c0 1.195-.895 2.062-2.253 2.062s-2.204-.867-2.204-2.033V4.8h1.506v2.62c0 .465.301.774.698.774.45 0 .746-.304.746-.774m29.45-.877V9.6h-1.478V6.984c0-.524-.47-.774-.84-.774-.384 0-.904.25-.904.774V9.6h-1.407V4.8h1.407v.592c.33-.42.944-.592 1.494-.592.88 0 1.728.622 1.728 1.743" fill="#fff"/></svg>