<svg width="1024" height="1024" viewBox="0 0 1024 1024" fill="none" xmlns="http://www.w3.org/2000/svg">
<g filter="url(#filter0_i_1077_148)">
<path d="M0 399.61C0 259.733 0 189.795 27.2218 136.369C51.1667 89.3746 89.3746 51.1667 136.369 27.2218C189.795 0 259.733 0 399.61 0H624.39C764.267 0 834.205 0 887.631 27.2218C934.625 51.1667 972.833 89.3746 996.778 136.369C1024 189.795 1024 259.733 1024 399.61V624.39C1024 764.267 1024 834.205 996.778 887.631C972.833 934.625 934.625 972.833 887.631 996.778C834.205 1024 764.267 1024 624.39 1024H399.61C259.733 1024 189.795 1024 136.369 996.778C89.3746 972.833 51.1667 934.625 27.2218 887.631C0 834.205 0 764.267 0 624.39V399.61Z" fill="url(#paint0_linear_1077_148)"/>
</g>
<path d="M399.609 0.5H624.391C694.337 0.5 746.766 0.500709 788.389 3.90137C830.005 7.30154 860.773 14.0982 887.403 27.667C934.304 51.564 972.436 89.6961 996.333 136.597C1009.9 163.227 1016.7 193.995 1020.1 235.611C1023.5 277.233 1023.5 329.663 1023.5 399.609V624.391C1023.5 694.337 1023.5 746.766 1020.1 788.389C1016.7 830.005 1009.9 860.773 996.333 887.403C972.436 934.304 934.304 972.436 887.403 996.333C860.773 1009.9 830.005 1016.7 788.389 1020.1C746.766 1023.5 694.337 1023.5 624.391 1023.5H399.609C329.663 1023.5 277.233 1023.5 235.611 1020.1C193.995 1016.7 163.227 1009.9 136.597 996.333C89.6961 972.436 51.564 934.304 27.667 887.403C14.0982 860.773 7.30154 830.005 3.90137 788.389C0.500709 746.766 0.5 694.337 0.5 624.391V399.609L0.506836 374.188C0.553405 316.725 0.925794 272.031 3.90137 235.611C7.30154 193.995 14.0982 163.227 27.667 136.597C51.564 89.6961 89.6961 51.564 136.597 27.667C163.227 14.0982 193.995 7.30154 235.611 3.90137C272.031 0.925794 316.725 0.553405 374.188 0.506836L399.609 0.5Z" stroke="white" stroke-opacity="0.15"/>
<path d="M740.89 171.027C705.467 178.054 631.334 189.912 617.776 191.449H617.557H617.121C609.905 189.912 593.722 184.203 583.008 180.469C577.54 178.493 572.292 176.736 567.263 174.98C540.147 165.757 520.028 164.22 512.811 164H509.969H509.314C502.098 164 481.979 165.757 454.863 174.98C449.614 176.736 444.366 178.713 439.118 180.469C428.185 184.203 412.221 189.912 405.005 191.449H404.349C390.791 189.912 345.307 181.567 308.788 174.54L281.891 169.27L264.615 190.571C145 338.576 145 370.417 145 383.812C145 426.852 166.212 448.152 179.113 460.671L179.769 461.328C181.519 463.085 183.268 464.843 185.018 466.6L267.24 555.755C267.24 555.755 268.333 556.852 268.77 557.289L270.082 558.609L269.426 560.144C260.679 581.447 242.529 625.584 267.021 672.139C282.328 701.563 306.82 725.497 332.186 736.479L333.936 737.136V739.113C333.936 739.113 333.717 740.871 333.717 741.748C333.28 760.853 342.901 779.299 359.739 791.595C368.049 797.744 445.679 859.449 453.333 866.039L456.175 868.673C468.421 879.872 487.008 897 511.718 897C536.43 897 555.018 879.872 567.263 868.673L570.105 866.039C577.54 859.449 655.389 797.744 663.699 791.595C680.318 779.519 690.157 760.853 689.502 741.968C689.502 741.091 689.502 740.211 689.502 739.553V737.576L691.032 736.919C716.399 725.937 740.89 701.783 756.199 672.576C780.69 625.804 762.539 581.664 753.793 560.364L753.138 558.827L754.448 557.509C754.448 557.509 755.106 556.852 755.542 556.412L755.98 555.755L837.983 466.6C839.732 464.843 841.264 463.085 843.013 461.548L843.887 460.671C856.571 447.935 878 426.852 878 383.812C878 370.198 878 338.576 758.167 190.571L741.983 171.027H740.89ZM637.676 756.901C631.989 761.073 548.895 826.731 540.585 834.197L537.305 837.052C528.995 844.736 518.934 854.18 510.844 854.18C502.753 854.18 492.476 844.739 484.385 837.272L481.105 834.197C472.795 826.731 389.917 761.073 384.012 756.901C379.202 753.387 374.609 747.017 376.359 741.091L376.796 739.773L378.108 739.333C451.801 712.981 489.85 683.995 509.095 664.232L511.063 662.255L513.031 664.232C532.056 683.995 570.324 712.981 644.018 739.333L645.331 739.773L645.767 741.091C647.299 746.8 642.925 753.387 638.112 756.901H637.676ZM834.048 383.812C834.048 408.847 824.206 418.728 812.835 430.147C810.429 432.341 808.242 434.759 805.838 437.393L758.167 489.217C741.983 506.785 727.332 522.813 723.615 526.548C722.96 527.205 722.086 528.085 721.428 528.963L720.992 529.403C712.464 538.187 701.967 548.945 709.838 568.051L711.589 572.223C721.209 595.06 733.019 623.387 717.712 652.373C703.496 679.385 679.006 700.025 660.418 700.465H660.199H659.763C605.967 680.703 546.05 648.861 532.492 622.069V621.192L532.275 567.391L614.715 543.676L602.689 408.627C601.157 392.596 611.873 378.103 627.618 374.809L718.148 357.681L692.344 320.35L555.453 347.14L570.324 512.712L514.999 528.523H514.563L452.676 512.275V510.077L467.547 347.14L330.656 320.35L304.852 357.681L395.165 374.809C410.91 378.103 421.624 392.596 420.095 408.627L407.849 544.116L490.508 565.636V622.069C476.731 648.641 416.814 680.483 363.238 700.245H362.364C343.557 700.025 319.066 679.385 304.852 652.373C289.544 623.387 301.353 594.84 310.975 572.223L312.724 568.051C320.597 549.165 310.1 538.187 301.572 529.403L301.134 528.963C301.134 528.963 299.604 527.205 298.729 526.548L216.507 437.393C214.102 434.759 211.696 432.561 209.509 430.147C198.138 418.728 188.298 408.847 188.298 383.812C188.298 353.948 293.918 223.29 298.51 217.8L299.604 216.483L301.572 216.922C310.975 218.679 394.291 234.929 405.662 234.929C415.065 234.929 433.869 228.341 453.988 221.314L454.863 220.874C459.675 219.118 464.485 217.581 469.295 215.824C492.037 208.138 508.221 207.26 511.063 207.04H511.937C514.999 207.04 530.963 207.919 553.924 215.824C558.953 217.581 564.202 219.337 569.231 221.094C589.131 228.121 607.937 234.709 617.557 234.709C628.928 234.709 712.025 218.679 721.648 216.702L723.615 216.263L724.709 217.581C729.302 223.07 834.922 353.728 834.922 383.593L834.048 383.812Z" fill="white"/>
<defs>
<filter id="filter0_i_1077_148" x="0" y="0" width="1024" height="1028" filterUnits="userSpaceOnUse" color-interpolation-filters="sRGB">
<feFlood flood-opacity="0" result="BackgroundImageFix"/>
<feBlend mode="normal" in="SourceGraphic" in2="BackgroundImageFix" result="shape"/>
<feColorMatrix in="SourceAlpha" type="matrix" values="0 0 0 0 0 0 0 0 0 0 0 0 0 0 0 0 0 0 127 0" result="hardAlpha"/>
<feOffset dy="4"/>
<feGaussianBlur stdDeviation="4"/>
<feComposite in2="hardAlpha" operator="arithmetic" k2="-1" k3="1"/>
<feColorMatrix type="matrix" values="0 0 0 0 0 0 0 0 0 0 0 0 0 0 0 0 0 0 0.25 0"/>
<feBlend mode="normal" in2="shape" result="effect1_innerShadow_1077_148"/>
</filter>
<linearGradient id="paint0_linear_1077_148" x1="512" y1="0" x2="512" y2="1024" gradientUnits="userSpaceOnUse">
<stop stop-color="#1C1C1D"/>
<stop offset="1"/>
</linearGradient>
</defs>
</svg>
