<svg width="75" height="22" viewBox="0 0 75 22" fill="none" xmlns="http://www.w3.org/2000/svg">
<path d="M0.59668 22V0.862305H10.4258C14.6152 0.862305 17.1494 2.88379 17.1494 6.17969V6.20898C17.1494 8.59668 15.3184 10.501 12.916 10.8086V10.9111C15.8018 11.0576 18.0723 13.1523 18.0723 15.9209V15.9502C18.0723 19.627 15.2158 22 10.6895 22H0.59668ZM9.00488 4.65625H5.97266V9.54883H8.60938C10.7627 9.54883 11.9053 8.61133 11.9053 7.0293V7C11.9053 5.53516 10.8213 4.65625 9.00488 4.65625ZM9.00488 12.9326H5.97266V18.2061H9.16602C11.3633 18.2061 12.6084 17.2832 12.6084 15.5693V15.54C12.6084 13.8555 11.3633 12.9326 9.00488 12.9326ZM20.9428 22V0.862305H35.4301V5.18359H26.3188V9.3584H34.8881V13.4014H26.3188V17.6787H35.4301V22H20.9428ZM43.9695 22V5.18359H38.1395V0.862305H55.1609V5.18359H49.3309V22H43.9695ZM54.0471 22L61.1662 0.862305H67.7434L74.8625 22H69.2229L67.9045 17.3564H61.0051L59.6867 22H54.0471ZM64.4035 5.46191L62.1184 13.4893H66.7912L64.5061 5.46191H64.4035Z" fill="black"/>
</svg>
