<svg width="123" height="120" viewBox="0 0 123 120" fill="none" xmlns="http://www.w3.org/2000/svg">
<path d="M81.5496 5.44632C83.9304 5.44632 101.588 2.08249 101.588 2.08249C101.588 2.08249 122.514 27.3112 122.514 32.7032C122.514 37.1614 120.714 38.9063 118.595 40.9614C118.151 41.3918 117.693 41.8359 117.235 42.3214L101.544 58.9383C101.389 59.1031 101.216 59.2767 101.032 59.4605C99.4663 61.031 97.16 63.3437 98.7873 67.1845C98.8961 67.4412 99.008 67.7021 99.1216 67.967C100.906 72.1284 103.108 77.2654 100.305 82.4713C97.3224 88.0086 92.2136 91.7044 88.94 91.0934C85.6664 90.482 77.9784 86.475 75.1512 84.6447C72.324 82.8144 63.3634 75.4441 63.3634 72.624C63.3634 70.2721 69.8076 66.3593 72.9386 64.4582C73.5614 64.0801 74.0531 63.7816 74.3369 63.5907C74.6602 63.3735 75.2007 63.0386 75.866 62.6263C78.7239 60.8555 83.884 57.6581 84.0137 56.2405C84.1732 54.4925 84.1125 53.98 81.8091 49.6617C81.3193 48.7434 80.7461 47.7598 80.1538 46.7433C77.9604 42.9794 75.5043 38.7648 76.0479 35.7457C76.6617 32.3377 82.016 30.3837 86.5514 28.7285C87.1183 28.5217 87.6723 28.3195 88.2027 28.1197C89.5263 27.6212 91.1897 26.9998 92.927 26.3508C97.4553 24.6591 102.486 22.7796 103.316 22.398C104.465 21.8697 104.168 21.3667 100.689 21.0379C100.229 20.9943 99.6568 20.9337 99.0001 20.8641C94.6938 20.4077 86.7516 19.566 82.8904 20.6394C82.1309 20.8505 81.2796 21.0804 80.3869 21.3215C76.0488 22.4931 70.7325 23.9289 70.2217 24.7567C70.1324 24.9015 70.0446 25.026 69.9616 25.1436C69.473 25.8363 69.1545 26.2879 69.6952 29.2314C69.8561 30.1079 70.1871 31.832 70.5963 33.9638C71.7946 40.2056 73.6638 49.9422 73.8993 52.1296C73.9323 52.4357 73.9685 52.731 74.0035 53.0153C74.3033 55.4555 74.5028 57.0794 71.6613 57.7274C71.4248 57.7813 71.1762 57.8382 70.9179 57.8973C67.7117 58.6311 63.0112 59.7069 61.3128 59.7069C59.6137 59.7069 54.9095 58.6302 51.7035 57.8964C51.4467 57.8376 51.1995 57.781 50.9642 57.7274C48.1224 57.0794 48.3219 55.4555 48.6217 53.0152C48.6566 52.731 48.6929 52.4357 48.7259 52.1296C48.962 49.9391 50.8359 40.1786 52.034 33.9379C52.441 31.818 52.77 30.1043 52.9304 29.2314C53.4707 26.2882 53.1522 25.8364 52.6639 25.1437C52.581 25.0261 52.4932 24.9016 52.4038 24.7567C51.8931 23.929 46.5772 22.4933 42.2391 21.3217C41.3461 21.0805 40.4945 20.8505 39.7348 20.6394C35.8738 19.566 27.9324 20.4076 23.6258 20.864C22.9688 20.9337 22.3964 20.9943 21.936 21.0379C18.4576 21.3667 18.1608 21.8697 19.3091 22.398C20.1388 22.7795 25.1676 24.6581 29.6949 26.3494C31.4336 26.9989 33.0983 27.6209 34.4229 28.1197C34.9535 28.3196 35.5078 28.5219 36.0749 28.7289C40.6099 30.3839 45.9639 32.3379 46.5776 35.7457C47.1212 38.7643 44.6657 42.9781 42.4726 46.7416C41.88 47.7587 41.3065 48.7429 40.8165 49.6617C38.5131 53.98 38.452 54.4925 38.6119 56.2405C38.7412 57.6579 43.8995 60.8542 46.7576 62.6253C47.4236 63.038 47.9648 63.3734 48.2882 63.5907C48.5719 63.7814 49.0632 64.0797 49.6853 64.4574C52.816 66.3582 59.2617 70.2717 59.2617 72.624C59.2617 75.4441 50.3016 82.8144 47.4744 84.6447C44.6472 86.475 36.9592 90.482 33.6856 91.0934C30.412 91.7044 25.3032 88.0086 22.3209 82.4713C19.5176 77.2658 21.7195 72.1292 23.5032 67.968C23.6169 67.7028 23.7289 67.4415 23.8378 67.1845C25.4653 63.3432 23.1587 61.0304 21.5923 59.4599C21.4092 59.2763 21.2363 59.1029 21.0809 58.9383L5.3906 42.3214C4.9323 41.836 4.47444 41.392 4.03061 40.9616C1.91135 38.9065 0.111969 37.1616 0.111969 32.7032C0.111969 27.3112 21.0376 2.08249 21.0376 2.08249C21.0376 2.08249 38.6952 5.44632 41.076 5.44632C42.9758 5.44632 46.6442 4.18639 50.4683 2.87297C51.4365 2.54042 52.4148 2.20444 53.3768 1.88462C58.1384 0.301638 61.3128 0.290161 61.3128 0.290161C61.3128 0.290161 64.4872 0.301638 69.2488 1.88462C70.2108 2.20444 71.189 2.54042 72.1573 2.87297C75.9814 4.18639 79.6498 5.44632 81.5496 5.44632Z" fill="white"/>
<path d="M78.5186 94.683C82.2513 96.6014 84.8995 97.9624 85.9008 98.5873C87.196 99.3962 86.4059 100.921 85.2262 101.753C84.0462 102.585 68.1896 114.831 66.6509 116.184C66.4539 116.357 66.2452 116.545 66.0276 116.741C64.5449 118.073 62.6536 119.774 61.3127 119.774C59.9713 119.774 58.0787 118.072 56.5959 116.739C56.379 116.544 56.1709 116.357 55.9746 116.184C54.4354 114.831 38.5793 102.585 37.3992 101.753C36.2191 100.921 35.4295 99.3962 36.7246 98.5873C37.7265 97.9621 40.3773 96.5998 44.1138 94.6795C45.2089 94.1167 46.3973 93.5059 47.6648 92.8518C53.2561 89.966 60.2251 87.5124 61.3127 87.5124C62.4003 87.5124 69.3689 89.966 74.961 92.8518C76.231 93.5073 77.4216 94.1192 78.5186 94.683Z" fill="white"/>
</svg>
