<svg width="20" height="20" viewBox="0 0 20 20" fill="none" xmlns="http://www.w3.org/2000/svg">
<path fill-rule="evenodd" clip-rule="evenodd" d="M13.3325 16.6663C12.77 16.6663 12.2167 16.583 11.6767 16.4447C11.14 16.5838 10.5792 16.6663 9.99917 16.6663C9.4375 16.6663 8.88417 16.583 8.34417 16.4447C7.80667 16.5847 7.24667 16.6663 6.66667 16.6663C2.99083 16.6663 0 13.6755 0 9.99967C0 6.32384 2.99083 3.33301 6.66667 3.33301C7.24583 3.33301 7.80583 3.41467 8.34167 3.55467C8.88167 3.41634 9.43583 3.33301 9.99917 3.33301C10.5792 3.33301 11.1383 3.41467 11.675 3.55467C12.2142 3.41634 12.7692 3.33301 13.3325 3.33301C17.0092 3.33301 20 6.32384 20 9.99967C20 13.6755 17.0092 16.6663 13.3325 16.6663ZM6.66667 4.99967C3.90917 4.99967 1.66667 7.24301 1.66667 9.99967C1.66667 12.7563 3.90917 14.9997 6.66667 14.9997C9.42417 14.9997 11.6675 12.7563 11.6675 9.99967C11.6675 7.24301 9.42417 4.99967 6.66667 4.99967ZM11.2617 5.18134C12.5358 6.39634 13.3342 8.10467 13.3342 9.99967C13.3342 11.8947 12.5358 13.603 11.2617 14.818C13.4058 14.2547 15 12.318 15 9.99967C15 7.68134 13.4058 5.74467 11.2617 5.18134ZM14.5942 5.18051C15.8683 6.39551 16.6667 8.10467 16.6667 9.99967C16.6667 11.8947 15.8683 13.6038 14.5942 14.8188C16.7392 14.2555 18.3333 12.318 18.3333 9.99967C18.3333 7.68134 16.7392 5.74384 14.5942 5.18051ZM6.66667 9.16634C8.06917 9.16634 9.16667 10.0813 9.16667 11.2497C9.16667 12.1722 8.4775 12.9288 7.5 13.2097V13.333C7.5 13.793 7.1275 14.1663 6.66667 14.1663C6.20583 14.1663 5.83333 13.793 5.83333 13.333H5C4.53917 13.333 4.16667 12.9597 4.16667 12.4997C4.16667 12.0397 4.53917 11.6663 5 11.6663H6.66667C7.18333 11.6663 7.5 11.3963 7.5 11.2497C7.5 11.103 7.18333 10.833 6.66667 10.833C5.26417 10.833 4.16667 9.91717 4.16667 8.74884C4.16667 7.82718 4.855 7.07051 5.83333 6.78967V6.66634C5.83333 6.20634 6.20583 5.83301 6.66667 5.83301C7.1275 5.83301 7.5 6.20634 7.5 6.66634H8.33333C8.79417 6.66634 9.16667 7.03967 9.16667 7.49967C9.16667 7.95967 8.79417 8.33301 8.33333 8.33301L6.66667 8.33301C6.15 8.33301 5.83333 8.60217 5.83333 8.74884C5.83333 8.89634 6.15 9.16634 6.66667 9.16634Z" fill="#495057"/>
</svg>
