<svg width="24" height="24" viewBox="0 0 24 24" fill="none" xmlns="http://www.w3.org/2000/svg">
<path fill-rule="evenodd" clip-rule="evenodd" d="M15.999 20C15.324 20 14.66 19.9 14.012 19.734C13.368 19.901 12.695 20 11.999 20C11.325 20 10.661 19.9 10.013 19.734C9.368 19.902 8.696 20 8 20C3.589 20 0 16.411 0 12C0 7.589 3.589 4 8 4C8.695 4 9.367 4.098 10.01 4.266C10.658 4.1 11.323 4 11.999 4C12.695 4 13.366 4.098 14.01 4.266C14.657 4.1 15.323 4 15.999 4C20.411 4 24 7.589 24 12C24 16.411 20.411 20 15.999 20ZM8 6C4.691 6 2 8.692 2 12C2 15.308 4.691 18 8 18C11.309 18 14.001 15.308 14.001 12C14.001 8.692 11.309 6 8 6ZM13.514 6.218C15.043 7.676 16.001 9.726 16.001 12C16.001 14.274 15.043 16.324 13.514 17.782C16.087 17.106 18 14.782 18 12C18 9.218 16.087 6.894 13.514 6.218ZM17.513 6.217C19.042 7.675 20 9.726 20 12C20 14.274 19.042 16.325 17.513 17.783C20.087 17.107 22 14.782 22 12C22 9.218 20.087 6.893 17.513 6.217ZM8 11C9.683 11 11 12.098 11 13.5C11 14.607 10.173 15.515 9 15.852V16C9 16.552 8.553 17 8 17C7.447 17 7 16.552 7 16H6C5.447 16 5 15.552 5 15C5 14.448 5.447 14 6 14H8C8.62 14 9 13.676 9 13.5C9 13.324 8.62 13 8 13C6.317 13 5 11.901 5 10.499C5 9.393 5.826 8.485 7 8.148V8C7 7.448 7.447 7 8 7C8.553 7 9 7.448 9 8H10C10.553 8 11 8.448 11 9C11 9.552 10.553 10 10 10H8C7.38 10 7 10.323 7 10.499C7 10.676 7.38 11 8 11Z" fill="#495057"/>
</svg>
