<svg width="20" height="20" viewBox="0 0 20 20" fill="none" xmlns="http://www.w3.org/2000/svg">
<path fill-rule="evenodd" clip-rule="evenodd" d="M19.1674 17.5025V19.1675C19.1674 19.627 18.7948 20 18.334 20H10.8347C10.3746 20 10.0013 19.627 10.0013 19.1675V16.67C10.0013 16.2105 10.3746 15.8375 10.8347 15.8375V15.005H10.0013C9.54119 15.005 9.16865 14.632 9.16865 14.1725L9.16865 11.675C9.16865 11.2155 9.54119 10.8425 10.0013 10.8425L17.5005 10.8425C17.9614 10.8425 18.334 11.2155 18.334 11.675V13.34H19.1674C19.6275 13.34 20 13.713 20 14.1725V16.67C20 17.1295 19.6275 17.5025 19.1674 17.5025ZM11.6681 18.335H17.5005V17.5025H11.6681V18.335ZM16.6671 12.5075L10.8347 12.5075V13.34H11.6681L16.6671 13.34V12.5075ZM18.334 15.005H17.5005L12.5016 15.005V15.8375L18.334 15.8375V15.005ZM14.2226 9.50549C13.1425 8.04362 11.8398 7.06876 11.3289 6.62754L6.12493 6.62754C4.69559 7.85548 1.66271 10.7792 1.66271 13.3025C1.66271 16.5102 3.43126 18.335 6.66917 18.335H7.5026C7.96183 18.335 8.33604 18.7155 8.33604 19.1675C8.33604 19.6195 7.96183 20 7.5026 20H6.66917C2.50115 20 0 17.4259 0 13.3025C0 10.0408 3.40209 6.79154 4.75143 5.62604C4.12552 4.58375 3.12289 2.64069 3.38459 1.33616C3.4821 0.848318 3.74463 0.454545 4.14052 0.197303C5.0473 -0.387945 5.82489 0.543623 6.29245 1.09973C6.35996 1.17882 6.44664 1.28288 6.53248 1.37945C6.53582 1.37363 6.53915 1.3678 6.54248 1.36197C6.83085 0.856643 7.31341 0.00915751 8.33021 0.00915751C9.22865 0.00915751 9.68788 0.44289 9.96208 0.702631C9.99542 0.733433 10.0254 0.765901 10.0579 0.793373C10.363 0.782551 10.4888 0.697636 10.7272 0.538628C11.0672 0.312188 11.5323 0 12.3965 0C13.0683 0 13.6367 0.413753 13.9167 1.10556C14.3576 2.19614 14.0859 4.10589 12.8291 5.69431C13.5134 6.25541 14.6077 7.24359 15.5669 8.54229C15.837 8.90859 15.7553 9.41975 15.3836 9.68531C15.0119 9.95255 14.4918 9.87096 14.2226 9.50549ZM12.3357 1.63836C12.0273 1.64835 11.9007 1.73327 11.6615 1.89311C11.3214 2.12038 10.8564 2.43173 9.99208 2.43173C9.39201 2.43173 9.02863 2.08874 8.81194 1.88395C8.61941 1.70163 8.56024 1.64585 8.33021 1.64585C8.26103 1.69164 8.08601 1.99883 7.99183 2.16367C7.74597 2.59657 7.37259 3.25008 6.61583 3.25008C5.95658 3.25008 5.48985 2.71229 5.04146 2.17865C5.20148 2.94955 5.78656 4.14835 6.31079 4.99084L11.2306 4.99084C12.1073 4.05594 12.4532 2.93873 12.4549 2.24525C12.4557 1.90143 12.3799 1.71079 12.3357 1.63836Z" fill="#495057"/>
</svg>
