<svg width="24" height="24" viewBox="0 0 24 24" fill="none" xmlns="http://www.w3.org/2000/svg">
<path fill-rule="evenodd" clip-rule="evenodd" d="M23.0009 21.003V23.001C23.0009 23.5524 22.5538 24 22.0008 24H13.0016C12.4496 24 12.0015 23.5524 12.0015 23.001L12.0015 20.004C12.0015 19.4525 12.4496 19.005 13.0016 19.005V18.006H12.0015C11.4494 18.006 11.0024 17.5584 11.0024 17.007V14.01C11.0024 13.4585 11.4494 13.011 12.0015 13.011L21.0006 13.011C21.5537 13.011 22.0008 13.4585 22.0008 14.01V16.008H23.0009C23.5529 16.008 24 16.4555 24 17.007V20.004C24 20.5554 23.5529 21.003 23.0009 21.003ZM14.0017 22.002H21.0006V21.003H14.0017V22.002ZM20.0005 15.009L13.0016 15.009V16.008H14.0017H20.0005V15.009ZM22.0007 18.006H21.0006H15.0019V19.005H22.0007V18.006ZM17.0671 11.4066C15.771 9.65235 14.2078 8.48252 13.5947 7.95305L7.34992 7.95305C5.6347 9.42657 1.99525 12.9351 1.99525 15.963C1.99525 19.8122 4.11751 22.002 8.003 22.002L9.00313 22.002C9.55419 22.002 10.0033 22.4585 10.0033 23.001C10.0033 23.5435 9.55419 24 9.00313 24L8.003 24C3.00138 24 0 20.9111 0 15.963C0 12.049 4.08251 8.14985 5.70171 6.75125C4.95062 5.5005 3.74747 3.16883 4.06151 1.6034C4.17852 1.01798 4.49356 0.545455 4.96862 0.236763C6.05676 -0.465534 6.98987 0.652348 7.55094 1.31968C7.63195 1.41459 7.73597 1.53946 7.83898 1.65534C7.84298 1.64835 7.84698 1.64136 7.85098 1.63437C8.19702 1.02797 8.7761 0.010989 9.99625 0.010989C11.0744 0.010989 11.6255 0.531469 11.9545 0.843157C11.9945 0.88012 12.0305 0.919081 12.0695 0.952048C12.4356 0.939061 12.5866 0.837163 12.8726 0.646354C13.2807 0.374625 13.8387 0 14.8759 0C15.682 0 16.364 0.496503 16.7001 1.32667C17.2292 2.63536 16.9031 4.92707 15.3949 6.83317C16.216 7.50649 17.5292 8.69231 18.6803 10.2507C19.0044 10.6903 18.9064 11.3037 18.4603 11.6224C18.0143 11.9431 17.3902 11.8452 17.0671 11.4066ZM14.8028 1.96603C14.4328 1.97802 14.2808 2.07992 13.9937 2.27173C13.5857 2.54446 13.0276 2.91808 11.9905 2.91808C11.2704 2.91808 10.8344 2.50649 10.5743 2.26074C10.3433 2.04196 10.2723 1.97502 9.99625 1.97502C9.91324 2.02997 9.70321 2.3986 9.5902 2.5964C9.29516 3.11588 8.84711 3.9001 7.93899 3.9001C7.14789 3.9001 6.58782 3.25475 6.04976 2.61439C6.24178 3.53946 6.94387 4.97802 7.57295 5.98901L13.4767 5.98901C14.5288 4.86713 14.9439 3.52647 14.9459 2.69431C14.9469 2.28172 14.8559 2.05295 14.8028 1.96603Z" fill="#495057"/>
</svg>
