<svg width="24" height="24" viewBox="0 0 24 24" fill="none" xmlns="http://www.w3.org/2000/svg">
<path fill-rule="evenodd" clip-rule="evenodd" d="M22 24H17C16.447 24 16 23.552 16 23L16 1C16 0.448 16.447 0 17 0L22 0C22.553 0 23 0.448 23 1L23 23C23 23.552 22.553 24 22 24ZM21 2L18 2L18 22H21L21 2ZM14 24H9C8.447 24 8 23.552 8 23L8 13C8 12.448 8.447 12 9 12L14 12C14.553 12 15 12.448 15 13L15 23C15 23.552 14.553 24 14 24ZM13 14H10V22H13V14ZM6 24H1C0.447 24 0 23.552 0 23L0 8C0 7.448 0.447 7 1 7L6 7C6.553 7 7 7.448 7 8L7 23C7 23.552 6.553 24 6 24ZM5 9L2 9L2 22H5L5 9Z" fill="#495057"/>
</svg>
