<svg width="20" height="20" viewBox="0 0 20 20" fill="none" xmlns="http://www.w3.org/2000/svg">
<path fill-rule="evenodd" clip-rule="evenodd" d="M18.3333 20H14.1667C13.7058 20 13.3333 19.6267 13.3333 19.1667L13.3333 0.833333C13.3333 0.373333 13.7058 0 14.1667 0L18.3333 0C18.7942 0 19.1667 0.373333 19.1667 0.833333L19.1667 19.1667C19.1667 19.6267 18.7942 20 18.3333 20ZM17.5 1.66667L15 1.66667L15 18.3333H17.5L17.5 1.66667ZM11.6667 20L7.5 20C7.03917 20 6.66667 19.6267 6.66667 19.1667L6.66667 10.8333C6.66667 10.3733 7.03917 10 7.5 10H11.6667C12.1275 10 12.5 10.3733 12.5 10.8333L12.5 19.1667C12.5 19.6267 12.1275 20 11.6667 20ZM10.8333 11.6667H8.33333L8.33333 18.3333L10.8333 18.3333L10.8333 11.6667ZM5 20H0.833333C0.3725 20 0 19.6267 0 19.1667L0 6.66667C0 6.20667 0.3725 5.83333 0.833333 5.83333L5 5.83333C5.46083 5.83333 5.83333 6.20667 5.83333 6.66667L5.83333 19.1667C5.83333 19.6267 5.46083 20 5 20ZM4.16667 7.5L1.66667 7.5L1.66667 18.3333H4.16667L4.16667 7.5Z" fill="#495057"/>
</svg>
