<svg width="20" height="20" viewBox="0 0 20 20" fill="none" xmlns="http://www.w3.org/2000/svg">
<path fill-rule="evenodd" clip-rule="evenodd" d="M19.9361 0.517634C19.9721 0.606365 19.9964 0.699282 19.9997 0.795547C20.0006 0.800569 19.998 0.806429 19.998 0.811451C19.9997 0.884278 19.9947 0.956267 19.9763 1.02826L15.8096 17.7014C15.746 17.9533 15.5703 18.1609 15.3326 18.2647C15.2264 18.3108 15.1134 18.3334 15.0013 18.3334C14.8607 18.3334 14.7217 18.2982 14.5962 18.2279L10.7744 16.1042C10.7476 16.1804 10.7225 16.2574 10.6723 16.3252L8.22784 19.6593C8.06801 19.8778 7.81612 20 7.55586 20C7.4705 20 7.38431 19.9874 7.30062 19.9598C6.95919 19.8502 6.72571 19.5337 6.72236 19.1746L6.66713 13.3393C6.66713 13.3226 6.6755 13.3083 6.67634 13.2924C6.67717 13.2681 6.6847 13.2447 6.68973 13.2204C6.7006 13.1401 6.71818 13.0631 6.75249 12.9877C6.755 12.9827 6.755 12.9768 6.75751 12.971C6.76504 12.9567 6.7642 12.9408 6.77174 12.9266C6.78931 12.8956 6.81693 12.8764 6.83785 12.8488C6.85793 12.8211 6.86714 12.7885 6.8914 12.7625L15.3996 3.64332L2.69631 9.99681L5.1106 11.2039C5.52317 11.4098 5.6897 11.9104 5.48383 12.3222C5.27797 12.7341 4.77754 12.9015 4.36581 12.6956L0.460264 10.7418C0.178248 10.6012 0 10.3124 0 9.99681C0 9.68123 0.178248 9.39243 0.460264 9.25096L18.7947 0.0806743C18.8014 0.078163 18.8089 0.0773259 18.8147 0.0739776C18.8357 0.0647696 18.8566 0.0614213 18.8775 0.0538875C18.9495 0.0271007 19.0223 0.00952187 19.0968 0.00282517C19.1261 0.000313908 19.1528 -0.000523179 19.1821 0.000313908C19.2608 0.00115099 19.3378 0.0137073 19.4131 0.0371457C19.4307 0.0421683 19.4482 0.0438424 19.4658 0.0505391C19.5453 0.0806743 19.6206 0.121692 19.6892 0.176102C19.6993 0.184473 19.7051 0.195355 19.7152 0.203726C19.7219 0.209586 19.7303 0.21126 19.7361 0.217119C19.7495 0.228839 19.7537 0.24558 19.7654 0.258137C19.8198 0.315896 19.865 0.37784 19.9001 0.446481C19.9127 0.470757 19.9261 0.492521 19.9361 0.517634ZM14.4565 16.2432L17.5771 3.75298L8.83706 13.12L14.4565 16.2432ZM8.36592 16.6525L9.32829 15.3391C9.33582 15.3291 9.3467 15.3249 9.35423 15.3157L8.34751 14.7556L8.36592 16.6525Z" fill="#495057"/>
</svg>
