<svg width="24" height="24" viewBox="0 0 24 24" fill="none" xmlns="http://www.w3.org/2000/svg">
<path fill-rule="evenodd" clip-rule="evenodd" d="M23.9233 0.621161C23.9665 0.727638 23.9956 0.839138 23.9997 0.954656C24.0007 0.960683 23.9977 0.967715 23.9977 0.973742C23.9997 1.06113 23.9936 1.14752 23.9715 1.23391L18.9716 21.2416C18.8953 21.544 18.6844 21.7931 18.3992 21.9177C18.2716 21.9729 18.1361 22 18.0015 22C17.8328 22 17.6661 21.9578 17.5155 21.8735L12.9292 19.325C12.8971 19.4164 12.867 19.5089 12.8067 19.5902L9.87341 23.5912C9.68161 23.8533 9.37934 24 9.06703 24C8.9646 24 8.86117 23.9849 8.76075 23.9518C8.35103 23.8202 8.07085 23.4405 8.06683 23.0096L8.00056 16.0072C8.00056 15.9871 8.0106 15.97 8.0116 15.9509C8.01261 15.9218 8.02164 15.8936 8.02767 15.8645C8.04072 15.7681 8.06181 15.6757 8.10299 15.5853C8.106 15.5792 8.106 15.5722 8.10901 15.5652C8.11805 15.5481 8.11704 15.529 8.12608 15.5119C8.14717 15.4748 8.18031 15.4517 8.20542 15.4185C8.22952 15.3854 8.24056 15.3462 8.26968 15.3151L18.4795 4.37198L3.23557 11.9962L6.13272 13.4447C6.6278 13.6918 6.82764 14.2925 6.5806 14.7867C6.33356 15.2809 5.73305 15.4818 5.23897 15.2347L0.552317 12.8902C0.213897 12.7214 0 12.3749 0 11.9962C0 11.6175 0.213897 11.2709 0.552317 11.1012L22.5536 0.0968091C22.5616 0.0937956 22.5707 0.0927911 22.5777 0.0887731C22.6028 0.0777235 22.6279 0.0737055 22.653 0.064665C22.7394 0.0325208 22.8267 0.0114262 22.9161 0.0033902C22.9513 0.000376689 22.9834 -0.000627815 23.0185 0.000376689C23.1129 0.00138119 23.2053 0.0164488 23.2957 0.0445749C23.3168 0.0506019 23.3379 0.0526109 23.359 0.060647C23.4544 0.0968091 23.5448 0.14603 23.6271 0.211323C23.6391 0.221368 23.6462 0.234426 23.6582 0.244471C23.6663 0.251503 23.6763 0.253512 23.6833 0.260543C23.6994 0.274606 23.7044 0.294697 23.7185 0.309764C23.7838 0.379075 23.838 0.453408 23.8802 0.535778C23.8952 0.564908 23.9113 0.591025 23.9233 0.621161ZM17.3478 19.4918L21.0925 4.50357L10.6045 15.744L17.3478 19.4918ZM10.0391 19.983L11.1939 18.4069C11.203 18.3949 11.216 18.3898 11.2251 18.3788L10.017 17.7068L10.0391 19.983Z" fill="#495057"/>
</svg>
