<svg width="24" height="24" viewBox="0 0 24 24" fill="none" xmlns="http://www.w3.org/2000/svg">
<path fill-rule="evenodd" clip-rule="evenodd" d="M23.4476 17.895C23.304 17.966 23.1514 18 23.0008 18C22.6338 18.001 22.281 17.798 22.1052 17.447L21.2682 15.772C19.7842 19.496 16.2168 22 12.0005 22C7.41923 22 3.32419 19.043 2.04342 14.809C1.8837 14.281 2.18191 13.723 2.71059 13.563C3.23928 13.402 3.79728 13.702 3.957 14.23C4.98606 17.627 8.29363 20 12.0005 20C15.4779 20 18.3012 17.97 19.4456 14.895L17.4471 15.894C16.9527 16.141 16.3533 15.941 16.1056 15.447C15.858 14.953 16.0591 14.353 16.5524 14.106L20.5525 12.105C21.0468 11.858 21.6462 12.059 21.8949 12.553L23.8944 16.553C24.141 17.047 23.9409 17.647 23.4476 17.895ZM12.0005 13C10.3174 13 9.00023 11.902 9.00023 10.5C9.00023 9.384 9.84026 8.472 11.029 8.141C11.022 8.093 11.0007 8.05 11.0007 8V7C11.0007 6.448 11.4475 6 12.0005 6C12.5524 6 13.0002 6.448 13.0002 7V8H14C14.5529 8 14.9997 8.448 14.9997 9C14.9997 9.552 14.5529 10 14 10H12.0005C11.3798 10 11.0007 10.324 11.0007 10.5C11.0007 10.676 11.3798 11 12.0005 11C13.6826 11 14.9997 12.098 14.9997 13.5C14.9997 14.615 14.1597 15.528 12.9719 15.859C12.979 15.907 13.0002 15.95 13.0002 16V17C13.0002 17.552 12.5524 18 12.0005 18C11.4475 18 11.0007 17.552 11.0007 17V16H9.99998C9.44703 16 9.00023 15.552 9.00023 15C9.00023 14.448 9.44703 14 9.99998 14H12.0005C12.6202 14 13.0002 13.676 13.0002 13.5C13.0002 13.324 12.6202 13 12.0005 13ZM21.2904 10.438C20.7597 10.598 20.2027 10.298 20.043 9.77C19.0139 6.373 15.7074 4 12.0005 4C8.52007 4 5.69569 6.031 4.5524 9.106L6.55291 8.105C7.04723 7.859 7.64769 8.059 7.89535 8.553C8.142 9.047 7.94185 9.648 7.44753 9.895L3.44752 11.894C3.30398 11.967 3.15133 12 3.00173 12C2.63377 12 2.28199 11.798 2.10609 11.447L0.105582 7.448C-0.141071 6.953 0.0590817 6.352 0.553397 6.106C1.04872 5.858 1.64716 6.059 1.89482 6.553L2.73182 8.226C4.21376 4.504 7.78112 2 12.0005 2C16.5797 2 20.6748 4.957 21.9566 9.19C22.1173 9.719 21.8181 10.277 21.2904 10.438Z" fill="#495057"/>
</svg>
