<svg width="20" height="20" viewBox="0 0 20 20" fill="none" xmlns="http://www.w3.org/2000/svg">
<path fill-rule="evenodd" clip-rule="evenodd" d="M19.5397 14.9128C19.42 14.972 19.2928 15.0003 19.1673 15.0003C18.8615 15.0012 18.5675 14.832 18.421 14.5395L17.7235 13.1437C16.4868 16.247 13.514 18.3337 10.0004 18.3337C6.18269 18.3337 2.77016 15.8695 1.70285 12.3412C1.56975 11.9012 1.81826 11.4362 2.25883 11.3028C2.6994 11.1687 3.1644 11.4187 3.2975 11.8587C4.15505 14.6895 6.91136 16.667 10.0004 16.667C12.8982 16.667 15.251 14.9753 16.2046 12.4128L14.5392 13.2453C14.1273 13.4512 13.6278 13.2845 13.4214 12.8728C13.215 12.4612 13.3826 11.9612 13.7937 11.7553L17.127 10.0878C17.539 9.88199 18.0385 10.0495 18.2457 10.4612L19.912 13.7945C20.1175 14.2062 19.9507 14.7062 19.5397 14.9128ZM10.0004 10.8337C8.59783 10.8337 7.50019 9.91866 7.50019 8.75033C7.50019 7.82033 8.20022 7.06033 9.19087 6.78449C9.18498 6.74449 9.16728 6.70866 9.16728 6.66699L9.16728 5.83366C9.16728 5.37366 9.53962 5.00033 10.0004 5.00033C10.4604 5.00033 10.8335 5.37366 10.8335 5.83366L10.8335 6.66699L11.6667 6.66699C12.1275 6.66699 12.4998 7.04033 12.4998 7.50033C12.4998 7.96033 12.1275 8.33366 11.6667 8.33366L10.0004 8.33366C9.48318 8.33366 9.16728 8.60366 9.16728 8.75033C9.16728 8.89699 9.48318 9.16699 10.0004 9.16699C11.4022 9.16699 12.4998 10.082 12.4998 11.2503C12.4998 12.1795 11.7998 12.9403 10.8099 13.2162C10.8158 13.2562 10.8335 13.292 10.8335 13.3337V14.167C10.8335 14.627 10.4604 15.0003 10.0004 15.0003C9.53962 15.0003 9.16728 14.627 9.16728 14.167V13.3337H8.33332C7.87253 13.3337 7.50019 12.9603 7.50019 12.5003C7.50019 12.0403 7.87253 11.667 8.33332 11.667H10.0004C10.5168 11.667 10.8335 11.397 10.8335 11.2503C10.8335 11.1037 10.5168 10.8337 10.0004 10.8337ZM17.742 8.69866C17.2997 8.83199 16.8356 8.58199 16.7025 8.14199C15.8449 5.31116 13.0895 3.33366 10.0004 3.33366C7.10006 3.33366 4.74641 5.02616 3.79367 7.58866L5.46076 6.75449C5.87269 6.54949 6.37307 6.71616 6.57946 7.12783C6.785 7.53949 6.61821 8.04033 6.20628 8.24616L2.87293 9.91199C2.75331 9.97283 2.62611 10.0003 2.50144 10.0003C2.19481 10.0003 1.90165 9.83199 1.75508 9.53949L0.0879848 6.20699C-0.117559 5.79449 0.0492347 5.29366 0.461164 5.08866C0.873936 4.88199 1.37263 5.04949 1.57902 5.46116L2.27652 6.85533C3.51147 3.75366 6.48427 1.66699 10.0004 1.66699C13.8164 1.66699 17.229 4.13116 18.2971 7.65866C18.4311 8.09949 18.1817 8.56449 17.742 8.69866Z" fill="#495057"/>
</svg>
