<svg width="24" height="24" viewBox="0 0 24 24" fill="none" xmlns="http://www.w3.org/2000/svg">
<g clip-path="url(#clip0_3713_14996)">
<path d="M12 24C18.6274 24 24 18.6274 24 12C24 5.37258 18.6274 0 12 0C5.37258 0 0 5.37258 0 12C0 18.6274 5.37258 24 12 24Z" fill="#F8D339"/>
<path d="M13.2398 16.4062V17.9004L11.9371 18.6667L10.6727 17.9004V16.4062L11.9371 17.1725L13.2398 16.4062ZM6.2666 11.2338L7.53097 12V14.5671L9.71488 15.8698V17.364L6.2666 15.3334V11.2338ZM17.6076 11.2338V15.3334L14.121 17.364V15.8698L16.3049 14.5671V12L17.6076 11.2338ZM14.121 9.20311L15.4237 9.96939V11.4636L13.2398 12.7663V15.3717L11.9754 16.138L10.711 15.3717V12.7663L8.45051 11.4636V9.96939L9.75319 9.20311L11.9371 10.5058L14.121 9.20311ZM8.45051 12.5364L9.71488 13.3027V14.797L8.45051 14.0307V12.5364ZM15.4237 12.5364V14.0307L14.1593 14.797V13.3027L15.4237 12.5364ZM7.53097 7.90042L8.83365 8.66671L7.53097 9.43299V10.9272L6.2666 10.161V8.66671L7.53097 7.90042ZM16.3432 7.90042L17.6459 8.66671V10.161L16.3432 10.9272V9.43299L15.0789 8.66671L16.3432 7.90042ZM11.9371 7.90042L13.2398 8.66671L11.9371 9.43299L10.6727 8.66671L11.9371 7.90042ZM11.9371 5.33337L15.4237 7.36403L14.1593 8.13031L11.9754 6.82763L9.75319 8.13031L8.48882 7.36403L11.9371 5.33337Z" fill="black"/>
</g>
<defs>
<clipPath id="clip0_3713_14996">
<rect width="24" height="24" fill="white"/>
</clipPath>
</defs>
</svg>
