<svg width="24" height="24" viewBox="0 0 24 24" fill="none" xmlns="http://www.w3.org/2000/svg">
<path fill-rule="evenodd" clip-rule="evenodd" d="M19.9037 6.78787L20.3723 5.63894C20.3723 5.63894 19.7759 5.00064 19.0517 4.27723C18.3275 3.55383 16.7938 3.97936 16.7938 3.97936L15.0472 2H11.9799H8.91262L7.16597 3.97936C7.16597 3.97936 5.63233 3.55383 4.9081 4.27723C4.18388 5.00064 3.58747 5.63894 3.58747 5.63894L4.05608 6.78787L3.45966 8.49C3.45966 8.49 5.21377 15.1264 5.41932 15.9368C5.82403 17.5326 6.10094 18.1496 7.25117 18.9581C8.4014 19.7666 10.4889 21.1708 10.8297 21.3836C11.1705 21.5964 11.5965 21.9588 11.9799 21.9588C12.3633 21.9588 12.7893 21.5964 13.1301 21.3836C13.4709 21.1708 15.5584 19.7666 16.7086 18.9581C17.8589 18.1496 18.1358 17.5326 18.5405 15.9368C18.746 15.1264 20.5001 8.49 20.5001 8.49L19.9037 6.78787Z" fill="url(#paint0_linear_61_30358)"/>
<path d="M14.1526 5.59639C14.4082 5.59639 16.3039 5.23469 16.3039 5.23469C16.3039 5.23469 18.5505 7.94745 18.5505 8.52724C18.5505 9.00661 18.3573 9.19424 18.1298 9.41521C18.0822 9.4615 18.033 9.50925 17.9838 9.56145L16.2992 11.3482C16.2825 11.3659 16.264 11.3846 16.2443 11.4044C16.0761 11.5732 15.8285 11.8219 16.0032 12.2349C16.0149 12.2625 16.0269 12.2906 16.0391 12.319C16.2307 12.7665 16.4671 13.3189 16.1662 13.8786C15.846 14.474 15.2975 14.8715 14.946 14.8057C14.5946 14.74 13.7692 14.3092 13.4656 14.1123C13.1621 13.9155 12.2001 13.123 12.2001 12.8198C12.2001 12.5669 12.8919 12.1462 13.2281 11.9418C13.2949 11.9011 13.3477 11.869 13.3782 11.8485C13.4129 11.8251 13.4709 11.7891 13.5424 11.7448C13.8492 11.5544 14.4032 11.2106 14.4171 11.0581C14.4342 10.8702 14.4277 10.8151 14.1804 10.3507C14.1278 10.252 14.0663 10.1462 14.0027 10.0369C13.7672 9.6322 13.5035 9.17902 13.5619 8.85439C13.6278 8.48793 14.2026 8.27783 14.6896 8.09985C14.7504 8.07761 14.8099 8.05587 14.8669 8.03439C15.009 7.98078 15.1875 7.91397 15.3741 7.84418C15.8602 7.66228 16.4004 7.46018 16.4895 7.41915C16.6128 7.36234 16.5809 7.30826 16.2074 7.2729C16.158 7.26822 16.0966 7.2617 16.0261 7.25421C15.5638 7.20514 14.7111 7.11463 14.2965 7.23005C14.215 7.25275 14.1236 7.27747 14.0277 7.3034C13.562 7.42938 12.9912 7.58377 12.9364 7.67277C12.9268 7.68834 12.9174 7.70173 12.9085 7.71437C12.856 7.78886 12.8218 7.83742 12.8799 8.15392C12.8971 8.24817 12.9327 8.43356 12.9766 8.66278C13.1053 9.33394 13.3059 10.3809 13.3312 10.6161C13.3348 10.649 13.3387 10.6808 13.3424 10.7113C13.3746 10.9737 13.396 11.1483 13.0909 11.218C13.0655 11.2238 13.0389 11.2299 13.0111 11.2363C12.6669 11.3152 12.1622 11.4309 11.9799 11.4309C11.7975 11.4309 11.2924 11.3151 10.9482 11.2362C10.9207 11.2299 10.8941 11.2238 10.8689 11.218C10.5638 11.1483 10.5852 10.9737 10.6174 10.7113C10.6211 10.6808 10.625 10.649 10.6286 10.6161C10.6539 10.3806 10.8551 9.33104 10.9837 8.65999C11.0274 8.43206 11.0627 8.24779 11.08 8.15392C11.138 7.83744 11.1038 7.78886 11.0513 7.71439C11.0424 7.70174 11.033 7.68835 11.0234 7.67277C10.9686 7.58377 10.3979 7.4294 9.93212 7.30342C9.83624 7.27749 9.74481 7.25276 9.66325 7.23005C9.24872 7.11463 8.39612 7.20513 7.93376 7.25421C7.86322 7.26169 7.80176 7.26822 7.75233 7.2729C7.37889 7.30826 7.34702 7.36234 7.47031 7.41915C7.55939 7.46017 8.09928 7.66217 8.58534 7.84403C8.77201 7.91387 8.95074 7.98075 9.09295 8.03439C9.14992 8.05588 9.20943 8.07763 9.27032 8.09989C9.75721 8.27785 10.332 8.48796 10.3979 8.85439C10.4563 9.17897 10.1926 9.63206 9.95719 10.0367C9.89356 10.1461 9.83198 10.2519 9.77938 10.3507C9.53208 10.8151 9.52552 10.8702 9.54269 11.0581C9.55658 11.2105 10.1104 11.5542 10.4172 11.7447C10.4887 11.789 10.5468 11.8251 10.5816 11.8485C10.612 11.869 10.6648 11.901 10.7316 11.9417C11.0677 12.1461 11.7597 12.5669 11.7597 12.8198C11.7597 13.123 10.7977 13.9155 10.4942 14.1123C10.1907 14.3092 9.36525 14.74 9.01379 14.8057C8.66233 14.8715 8.11384 14.474 7.79365 13.8786C7.49269 13.3189 7.72909 12.7666 7.9206 12.3191C7.9328 12.2906 7.94483 12.2625 7.95652 12.2349C8.13125 11.8219 7.8836 11.5732 7.71544 11.4043C7.69578 11.3846 7.67721 11.3659 7.66052 11.3482L5.97599 9.56145C5.92678 9.50926 5.87763 9.46152 5.82998 9.41524C5.60245 9.19426 5.40926 9.00663 5.40926 8.52724C5.40926 7.94745 7.65588 5.23469 7.65588 5.23469C7.65588 5.23469 9.55163 5.59639 9.80724 5.59639C10.0112 5.59639 10.4051 5.46091 10.8156 5.31968C10.9196 5.28393 11.0246 5.2478 11.1279 5.21341C11.6391 5.0432 11.9799 5.04196 11.9799 5.04196C11.9799 5.04196 12.3207 5.0432 12.8319 5.21341C12.9352 5.2478 13.0402 5.28393 13.1442 5.31968C13.5548 5.46091 13.9486 5.59639 14.1526 5.59639Z" fill="white"/>
<path d="M13.8272 15.1917C14.2279 15.398 14.5122 15.5444 14.6197 15.6115C14.7588 15.6985 14.674 15.8625 14.5473 15.9519C14.4206 16.0414 12.7182 17.3581 12.553 17.5037C12.5319 17.5223 12.5095 17.5425 12.4861 17.5635C12.3269 17.7068 12.1239 17.8896 11.9799 17.8896C11.8359 17.8896 11.6327 17.7067 11.4735 17.5633C11.4502 17.5424 11.4279 17.5223 11.4068 17.5037C11.2415 17.3581 9.53919 16.0414 9.41249 15.9519C9.2858 15.8625 9.20102 15.6985 9.34007 15.6115C9.44764 15.5443 9.73222 15.3978 10.1334 15.1914C10.251 15.1308 10.3785 15.0652 10.5146 14.9948C11.1149 14.6845 11.8631 14.4207 11.9799 14.4207C12.0967 14.4207 12.8448 14.6845 13.4452 14.9948C13.5816 15.0653 13.7094 15.1311 13.8272 15.1917Z" fill="white"/>
<defs>
<linearGradient id="paint0_linear_61_30358" x1="3.45966" y1="22.0996" x2="20.5001" y2="22.0996" gradientUnits="userSpaceOnUse">
<stop stop-color="#FF5601"/>
<stop offset="0.5" stop-color="#FF4000"/>
<stop offset="1" stop-color="#FF1F01"/>
</linearGradient>
</defs>
</svg>
