<svg width="40" height="40" viewBox="0 0 40 40" fill="none" xmlns="http://www.w3.org/2000/svg">
<g clip-path="url(#clip0_334_91106)">
<path d="M20 40C31.0457 40 40 31.0457 40 20C40 8.9543 31.0457 0 20 0C8.9543 0 0 8.9543 0 20C0 31.0457 8.9543 40 20 40Z" fill="#2775C9"/>
<path d="M19.9993 30.8337C14.0157 30.8337 9.16602 25.984 9.16602 20.0003C9.16602 14.0166 14.0157 9.16699 19.9993 9.16699C25.983 9.16699 30.8327 14.0166 30.8327 20.0003C30.8327 22.8735 29.6913 25.629 27.6597 27.6607C25.628 29.6923 22.8725 30.8337 19.9993 30.8337ZM19.354 15.9805C18.7612 16.0099 18.2009 16.2598 17.7829 16.6811C17.365 17.1025 17.1197 17.6648 17.0951 18.2578C17.0951 19.3734 17.7774 20.1017 19.2249 20.406L20.2391 20.6457C21.2256 20.8762 21.6313 21.2081 21.6313 21.7705C21.6313 22.333 20.9213 22.8861 19.9993 22.8861C19.6719 22.9162 19.3425 22.8534 19.049 22.705C18.7556 22.5567 18.5098 22.3287 18.3398 22.0471C18.2894 21.9403 18.2099 21.8499 18.1104 21.7863C18.0109 21.7227 17.8955 21.6884 17.7774 21.6876H17.2334C17.1916 21.6953 17.1517 21.7113 17.116 21.7345C17.0804 21.7577 17.0497 21.7877 17.0257 21.8229C17.0017 21.858 16.9849 21.8975 16.9762 21.9392C16.9676 21.9808 16.9672 22.0238 16.9752 22.0656C17.1077 22.6064 17.4158 23.088 17.8513 23.435C18.2867 23.782 18.8249 23.9748 19.3816 23.9833V24.7578C19.3816 24.9302 19.4501 25.0955 19.572 25.2174C19.6939 25.3393 19.8592 25.4078 20.0316 25.4078C20.204 25.4078 20.3693 25.3393 20.4912 25.2174C20.6131 25.0955 20.6816 24.9302 20.6816 24.7578V23.9741C21.3111 23.9669 21.913 23.7143 22.359 23.27C22.805 22.8257 23.06 22.2248 23.0696 21.5954C23.0696 20.4244 22.3965 19.7514 20.8015 19.4103L19.8795 19.2074C18.9575 18.9769 18.5242 18.6727 18.5242 18.1564C18.5242 17.64 19.0774 17.0684 19.9993 17.0684C20.2897 17.0381 20.5827 17.0925 20.8428 17.225C21.1029 17.3575 21.3191 17.5625 21.4653 17.8152C21.5246 17.9414 21.6184 18.0483 21.7359 18.1233C21.8534 18.1984 21.9897 18.2386 22.1291 18.2393H22.5625C22.661 18.2152 22.7461 18.1534 22.7996 18.0672C22.853 17.981 22.8705 17.8773 22.8483 17.7783C22.7234 17.279 22.444 16.8319 22.0499 16.5008C21.6559 16.1697 21.1673 15.9714 20.654 15.9344V15.2982C20.654 15.1258 20.5855 14.9605 20.4636 14.8386C20.3417 14.7167 20.1764 14.6482 20.004 14.6482C19.8316 14.6482 19.6662 14.7167 19.5443 14.8386C19.4224 14.9605 19.354 15.1258 19.354 15.2982V15.9805ZM11.8767 20.0003C11.8777 21.6987 12.4123 23.3538 13.4049 24.7319C14.3975 26.11 15.798 27.1414 17.4086 27.6805H17.5376C17.6477 27.6805 17.7532 27.6368 17.831 27.5589C17.9088 27.4811 17.9525 27.3756 17.9525 27.2656V27.072C17.9528 26.9003 17.9022 26.7325 17.807 26.5897C17.7118 26.4469 17.5763 26.3356 17.4178 26.2698C16.1635 25.7636 15.0892 24.894 14.3326 23.7728C13.5761 22.6516 13.1719 21.3299 13.1719 19.9773C13.1719 18.6247 13.5761 17.303 14.3326 16.1818C15.0892 15.0605 16.1635 14.191 17.4178 13.6847C17.5756 13.6206 17.7107 13.511 17.806 13.3697C17.9012 13.2285 17.9522 13.0621 17.9525 12.8918V12.6798C17.9531 12.6175 17.9387 12.556 17.9105 12.5005C17.8823 12.445 17.8411 12.3971 17.7904 12.3609C17.7397 12.3247 17.6811 12.3013 17.6194 12.2926C17.5578 12.2839 17.4949 12.2902 17.4362 12.311C15.819 12.8458 14.4115 13.8766 13.4134 15.2569C12.4154 16.6373 11.8777 18.297 11.8767 20.0003ZM28.122 20.0003C28.1191 18.3035 27.5836 16.6505 26.5911 15.2742C25.5986 13.898 24.1992 12.868 22.5901 12.3294H22.4518C22.3369 12.3294 22.2267 12.3751 22.1454 12.4563C22.0642 12.5376 22.0185 12.6478 22.0185 12.7627V12.901C22.0222 13.0789 22.0773 13.2518 22.1771 13.399C22.2769 13.5463 22.4171 13.6615 22.5809 13.7308C23.8323 14.2386 24.9038 15.1082 25.6581 16.2283C26.4125 17.3485 26.8154 18.6683 26.8154 20.0188C26.8154 21.3693 26.4125 22.689 25.6581 23.8092C24.9038 24.9294 23.8323 25.799 22.5809 26.3067C22.4202 26.3768 22.2829 26.4911 22.1849 26.6365C22.0869 26.7818 22.0324 26.9521 22.0277 27.1273V27.284C22.0285 27.3524 22.0455 27.4196 22.0772 27.4801C22.1089 27.5407 22.1545 27.5929 22.2102 27.6324C22.266 27.672 22.3303 27.6978 22.3979 27.7077C22.4655 27.7177 22.5346 27.7115 22.5993 27.6897C24.2097 27.1485 25.6092 26.1151 26.6002 24.7353C27.5912 23.3555 28.1236 21.6991 28.122 20.0003Z" fill="white"/>
</g>
<defs>
<clipPath id="clip0_334_91106">
<rect width="40" height="40" fill="white"/>
</clipPath>
</defs>
</svg>
