<svg xmlns="http://www.w3.org/2000/svg" xmlns:xlink="http://www.w3.org/1999/xlink" viewBox="0 0 2500 2500"><defs><style>.cls-1{fill:url(#linear-gradient);}</style><linearGradient id="linear-gradient" x1="782.84" y1="165.91" x2="799.34" y2="165.91" gradientTransform="translate(-81568.2 55372.05) rotate(-45) scale(122.41)" gradientUnits="userSpaceOnUse"><stop offset="0" stop-color="#cf8724"/><stop offset="1" stop-color="#fdce58"/></linearGradient></defs><title>z</title><g id="Layer_2" data-name="Layer 2"><g id="Layer_1-2" data-name="Layer 1"><path class="cls-1" d="M1263.05,2297.61c-569.6,0-1034.57-465.43-1034.57-1034.56,0-569.6,465.44-1034.57,1034.57-1034.57,569.6,0,1034.56,465.44,1034.56,1034.57C2297.61,1832.65,1832.65,2297.61,1263.05,2297.61Z"/><path d="M1250,2500C562.5,2500,0,1937.5,0,1250S562.5,0,1250,0,2500,562.5,2500,1250,1937.5,2500,1250,2500Zm0-2222.06c-534.56,0-972.06,437.5-972.06,972.06s437.5,972.06,972.06,972.06,972.06-437.5,972.06-972.06S1784.56,277.94,1250,277.94Z"/><path d="M1221.05,1588.59h541.67v270.84h-319.6v229.16H1165.18V1866.53H831.85c0-90.44-13.73-180.4,7.1-263.73,7.1-41.67,55.4-83.34,90.43-125,104.17-125,208.34-250,319.61-375,41.66-48.77,83.33-90.44,132.1-145.83H860.26V686.13h305.39V457h270.84V679h333.33c0,90.43,13.73,180.4-7.1,263.73-7.1,41.67-55.4,83.33-90.44,125-104.16,125-208.33,250-319.6,375C1311,1491.53,1269.35,1539.82,1221.05,1588.59Z"/></g></g></svg>