<svg width="40" height="40" viewBox="0 0 40 40" fill="none" xmlns="http://www.w3.org/2000/svg">
<path d="M20 40C31.0457 40 40 31.0457 40 20C40 8.9543 31.0457 0 20 0C8.9543 0 0 8.9543 0 20C0 31.0457 8.9543 40 20 40Z" fill="#302C2C"/>
<path fill-rule="evenodd" clip-rule="evenodd" d="M19.3701 33.75C19.0326 33.715 18.6951 33.6838 18.3576 33.6438C16.543 33.4274 14.7906 32.8475 13.2051 31.9388C13.1814 31.9263 13.1601 31.9075 13.1139 31.8762C15.8714 29.8137 18.6164 27.7638 21.3764 25.7013L22.2076 26.51C22.6701 26.9625 23.1351 27.41 23.5889 27.8687C23.7014 27.9813 23.7826 27.98 23.9139 27.9125C25.2884 27.2263 26.4629 26.1974 27.3239 24.925L27.4576 24.7275C27.4964 24.7725 27.5326 24.8088 27.5626 24.8487C28.5214 26.1262 29.4789 27.4037 30.4414 28.6775C30.5251 28.7875 30.5151 28.8525 30.4264 28.9525C28.1976 31.485 25.4276 33.045 22.0889 33.5788C21.6689 33.6463 21.2426 33.6713 20.8189 33.7175C20.7626 33.7238 20.7064 33.7388 20.6514 33.75H19.3701ZM20.5826 6.25C20.8151 6.27375 21.0489 6.29875 21.2826 6.32C23.2526 6.5075 25.0951 7.09125 26.8114 8.07C26.8364 8.085 26.8576 8.1025 26.8989 8.1325L18.5014 14.1562C18.3901 14.0512 18.2826 13.9513 18.1764 13.8475C17.5864 13.2725 16.9939 12.6987 16.4076 12.1187C16.3139 12.0262 16.2426 12.0162 16.1251 12.075C14.7262 12.7654 13.5324 13.81 12.6626 15.105L12.5376 15.2925L9.45261 11.1825C9.76386 10.8525 10.0514 10.5237 10.3626 10.22C12.3914 8.24125 14.8001 6.9825 17.5914 6.47625C18.1289 6.37875 18.6776 6.34625 19.2214 6.2825C19.2826 6.27625 19.3439 6.26125 19.4039 6.25H20.5814H20.5826ZM8.07261 13.1675L14.3164 21.3525L13.0564 22.645C12.7426 22.9662 12.4314 23.2913 12.1114 23.6075C12.0214 23.6975 12.0176 23.7663 12.0726 23.8762C12.762 25.2754 13.8063 26.4693 15.1014 27.3388C15.1451 27.3663 15.1889 27.395 15.2301 27.4263C15.2376 27.4312 15.2414 27.4438 15.2639 27.4862L11.1876 30.5437C8.75011 28.445 7.16886 25.8587 6.53386 22.7225C5.85386 19.365 6.40511 16.1925 8.07386 13.1675H8.07261ZM25.7914 18.63L26.9389 17.4388C27.2589 17.1062 27.5739 16.77 27.9014 16.4462C28.0039 16.345 28.0026 16.2687 27.9426 16.1487C27.2488 14.7328 26.1921 13.5259 24.8801 12.6513C24.8339 12.62 24.7889 12.5863 24.7101 12.53L28.8089 9.455C31.1301 11.4425 32.6714 13.8925 33.3789 16.8488C34.2626 20.5387 33.4751 24.1887 31.9451 26.7587L25.7914 18.63Z" fill="white"/>
</svg>
