<svg fill="none" xmlns="http://www.w3.org/2000/svg" viewBox="0 0 138 114">
  <g clip-path="url(#a)">
    <rect x=".5" y=".5" width="137" height="113" rx="7.5" fill="#fff" stroke="#909094"/>
    <path d="M139.198 55.8543c.89-2.6076 1.38-5.4022 1.38-8.3124 0-14.1953-11.508-25.6984-25.699-25.6984-14.191 0-25.6982 11.5075-25.6982 25.6984 0 3.689.7832 7.1911 2.1805 10.3639-9.5051 3.7691-16.2334 13.0427-16.2334 23.8917 0 12.9849 9.6297 23.7135 22.134 25.4495 6.2341 8.281 16.1441 13.634 27.3051 13.634 18.863 0 34.153-15.29 34.153-34.153 0-13.6302-7.983-25.3913-19.526-30.8692l.004-.0045Z" fill="#fff"/>
    <path d="M124.571 121.215c-10.889 0-20.901-4.975-27.4869-13.657-12.7135-1.833-22.2853-12.8824-22.2853-25.7605 0-10.6265 6.3189-20.0381 16.1266-24.0742-1.375-3.2306-2.0737-6.6526-2.0737-10.1814 0-14.3555 11.6763-26.0321 26.0323-26.0321 14.355 0 26.032 11.6766 26.032 26.0321 0 2.7678-.441 5.5045-1.304 8.1389 11.828 5.7404 19.451 17.8932 19.451 31.0427 0 19.0195-15.473 34.4875-34.487 34.4875l-.005.004Zm-9.692-99.0377c-13.986 0-25.3642 11.3784-25.3642 25.3646 0 3.5466.7253 6.9908 2.1537 10.2259l.138.316-.3204.129c-9.732 3.8581-16.0242 13.1184-16.0242 23.5802 0 12.5889 9.3938 23.389 21.8491 25.115l.138.018.0845.111c6.4565 8.58 16.3135 13.502 27.0375 13.502 18.65 0 33.82-15.175 33.82-33.8199 0-12.9938-7.592-24.9953-19.335-30.5711l-.267-.129.098-.2803c.903-2.6478 1.361-5.4067 1.361-8.2013 0-13.9861-11.378-25.3646-25.364-25.3646l-.005.0045Z" fill="#DFE1FF"/>
    <path d="M116.076 44.9609h-.667V176.715h.667V44.9609Z" fill="#DFE1FF"/>
    <path d="M31.621 118.75h-9.3939c-1.909 0-3.4575-1.549-3.4575-3.458V80.5426c0-4.4989 3.6533-8.1567 8.1567-8.1567 4.4989 0 8.1567 3.6534 8.1567 8.1567v34.7494c0 1.909-1.5486 3.458-3.4576 3.458h-.0044Z" fill="#fff"/>
    <path d="M31.6212 119.079h-9.3938c-2.0915 0-3.7914-1.7-3.7914-3.791V80.5382c0-4.6813 3.8092-8.4905 8.4905-8.4905s8.4905 3.8092 8.4905 8.4905v34.7498c0 2.091-1.6999 3.791-3.7914 3.791h-.0044Zm-4.6947-46.3638c-4.312 0-7.823 3.5066-7.823 7.823v34.7498c0 1.722 1.4017 3.124 3.1239 3.124h9.3938c1.7221 0 3.1238-1.402 3.1238-3.124V80.5382c0-4.312-3.5065-7.823-7.8229-7.823h.0044Z" fill="#DFE1FF"/>
    <path d="M26.9932 89.7761h-.6675v49.0779h.6675V89.7761Z" fill="#DFE1FF"/>
    <path d="M11.7655 118.75H2.37169c-1.909023 0-3.45761-1.549-3.45761-3.458V80.5426c0-4.4989 3.6534-8.1567 8.15674-8.1567 4.49888 0 8.15668 3.6534 8.15668 8.1567v34.7494c0 1.909-1.5485 3.458-3.4576 3.458h-.0044Z" fill="#fff"/>
    <path d="M11.7657 119.079H2.3719c-2.091464 0-3.79133-1.7-3.79133-3.791V80.5382c0-4.6813 3.80913-8.4905 8.49046-8.4905 4.68137 0 8.49047 3.8092 8.49047 8.4905v34.7498c0 2.091-1.6999 3.791-3.7913 3.791h-.0045ZM7.07103 72.7152c-4.31198 0-7.822974 3.5066-7.822974 7.823v34.7498c0 1.722 1.401725 3.124 3.123844 3.124h9.3938c1.7221 0 3.1239-1.402 3.1239-3.124V80.5382c0-4.312-3.5066-7.823-7.82302-7.823h.00445Z" fill="#DFE1FF"/>
    <path d="M7.1421 89.7761h-.66749v49.0779h.66749V89.7761Z" fill="#DFE1FF"/>
    <rect x="9" y="28" width="10" height="10" rx="2" fill="#DFE1FF"/>
    <rect x="21" y="28" width="10" height="10" rx="2" fill="#DFE1FF"/>
    <rect x="33" y="28" width="10" height="10" rx="2" fill="#DFE1FF"/>
    <rect x="45" y="28" width="10" height="10" rx="2" fill="#DFE1FF"/>
    <rect x="57" y="28" width="10" height="10" rx="2" fill="#DFE1FF"/>
    <rect x="69" y="28" width="10" height="10" rx="2" fill="#DFE1FF"/>
    <rect x="101" y="46" width="28" height="35" rx="2" fill="#DFE1FF"/>
    <rect x="40" y="97" width="58" height="12" rx="2" fill="#DFE1FF"/>
    <rect x="40" y="89" width="58" height="6" rx="2" fill="#DFE1FF"/>
    <rect x="101" y="28" width="28" height="10" rx="2" fill="#DFE1FF"/>
    <circle cx="69" cy="65.5" r="26.5" fill="#fff" stroke="#909094"/>
    <path fill-rule="evenodd" clip-rule="evenodd" d="M69.0002 82.1666c-9.1903 0-16.6667-7.4763-16.6667-16.6666 0-9.1903 7.4764-16.6667 16.6667-16.6667 9.1902 0 16.6666 7.4764 16.6666 16.6667 0 9.1903-7.4764 16.6666-16.6666 16.6666Zm0-30.5555c-7.6584 0-13.8889 6.2305-13.8889 13.8889 0 7.6583 6.2305 13.8889 13.8889 13.8889 7.6583 0 13.8889-6.2306 13.8889-13.8889 0-7.6584-6.2306-13.8889-13.8889-13.8889Zm-1.6991 4.9642c.6286-1.5113 2.7695-1.5113 3.3981 0l1.7217 4.1394 4.4689.3583c1.6316.1308 2.2931 2.1669 1.05 3.2318l-3.4048 2.9166 1.0403 4.3608c.3797 1.5922-1.3523 2.8506-2.7492 1.9974l-3.826-2.3369-3.8259 2.3369c-1.3969.8532-3.129-.4052-2.7492-1.9974l1.0402-4.3608-3.4048-2.9166c-1.2431-1.0649-.5815-3.101 1.0501-3.2318l4.4689-.3583 1.7217-4.1394Zm1.699 2.8588-1.1524 2.7708c-.265.6372-.8642 1.0725-1.552 1.1276l-2.9913.2398 2.2791 1.9523c.524.4489.7529 1.1533.5928 1.8245l-.6963 2.919 2.5609-1.5643c.5889-.3597 1.3295-.3597 1.9184 0l2.561 1.5643-.6963-2.919c-.1601-.6712.0688-1.3756.5928-1.8245l2.2791-1.9523-2.9913-.2398c-.6879-.0551-1.287-.4905-1.552-1.1276l-1.1525-2.7708Z" fill="url(#b)"/>
    <path d="M12.96.5h112.08c2.324 0 4.036.000415 5.388.114464 1.345.11353 2.288.336979 3.081.757296 1.329.7035 2.416 1.79008 3.119 3.11877.421.79383.644 1.73622.758 3.08158.114 1.35149.114 3.06359.114 5.38789v6.54H.5v-6.54c0-2.3243.000415-4.0364.114464-5.38789.11353-1.34536.336979-2.28775.757296-3.08158.7035-1.32869 1.79008-2.41527 3.11877-3.11877C5.28436.951443 6.22675.727994 7.57211.614464 8.9236.500415 10.6357.5 12.96.5Z" fill="#F0F0F4" stroke="#909094"/>
    <rect x="42.5" y="4.5" width="39" height="11" rx="3.5" fill="#fff" stroke="#909094"/>
    <circle cx="12" cy="10" r="2.5" stroke="#909094"/>
    <circle cx="22" cy="10" r="2.5" stroke="#909094"/>
    <circle cx="32" cy="10" r="2.5" stroke="#909094"/>
    <rect x=".5" y=".5" width="137" height="113" rx="7.5" stroke="#909094"/>
  </g>
  <defs>
    <linearGradient id="b" x1="83.9352" y1="79.8631" x2="52.3026" y2="48.8648" gradientUnits="userSpaceOnUse">
      <stop offset=".026042" stop-color="#FA7250"/>
      <stop offset=".401042" stop-color="#FF1893"/>
      <stop offset=".994792" stop-color="#A78AFF"/>
    </linearGradient>
    <clipPath id="a">
      <rect width="138" height="114" rx="8" fill="#fff"/>
    </clipPath>
  </defs>
</svg>
