<svg fill="none" xmlns="http://www.w3.org/2000/svg" viewBox="0 0 55 12">
  <path fill-rule="evenodd" clip-rule="evenodd" d="M3.13637 9.57358c.68147.72872 1.36697 1.25322 1.88503 1.59772l.50526.3184c.14145.0868.37967.2322.5367.2991L6.55888 12l1.01134-.5847.00381-.0023c.32263-.1901.75949-.4754 1.24052-.868.95904-.78259 2.06695-2.01906 2.82515-3.7965l.1407-.40832c.1467-.45911.4449-1.39939.4637-1.48764.1584-.72953.2565-1.40143.2398-2.31439l-.0125-.68198-.4914-.30988C7.82142-1.22514 2.9865.351515 1.08885 1.48628c-.08197.04804-.421161.25764-.580504.35644l-.01845.6845C.401825 5.7957 1.76273 8.10476 3.13637 9.57358Zm4.99701.13789c.86394-.70502 1.89792-1.80473 2.57012-3.38055v-.14434l-.0496-.07087C8.944 4.62621 7.3777 4.41094 6.33098 4.50294c-.3558.03126-.65158.09801-.87253.1623l-.19513.05678.07078.18954c.06388.17102.17717.4321.31112.68882.0197.03771.04001.07573.0609.11368.11906.21632.25629.43069.39461.574l.06943.07196.09885-.01669c.30756-.05192.57064-.05464.79419-.02829.26301.03099.47132.10222.63295.18084.04507.02192.08681.04457.12542.06735.09075.05355.16415.10778.2222.15482.013.01054.0252.0207.0367.03045-.7398 1.03249-1.34721 1.52998-1.5838 1.69911-2.14072-1.72294-2.72068-4.03015-2.83982-4.63317 2.05313-.7359 3.51679-.72298 4.62484-.4299.76262.20172 1.36369.53659 1.88711.87225.0464.02974.0922.0595.1374.08918.0657.04309.1302.08602.1938.12847.0309.02063.0615.04116.092.06154.1059.07093.2093.14014.3109.20627l.1983.16931.0904-.28717c.0213-.09812.0414-.19444.0599-.2899.0117-.05973.0227-.1191.0332-.1784.024-.13624.045-.27199.0625-.4101.046-.36255.0681-.7414.06-1.18817l-.0019-.10136-.0861-.05425C6.43493-.677479 2.17508 2.0738 1.71662 2.36916c-.01466.00945-.05366.02771-.06037.03185l-.08708.05346-.00272.10172c-.07882 2.92412 1.12973 4.97053 2.35673 6.28256.61269.65516 1.23009 1.12755 1.69474 1.43645.23409.151.73539.4672.86795.5237l.5412-.3129c.28348-.1671.67412-.4218 1.10631-.77453ZM18.6584 2.3999c-2.2076 0-3.7722 1.49359-3.7722 3.60249 0 2.16843 1.6456 3.59751 3.757 3.59751 1.8228 0 3.443-1.30503 3.443-3.52805 0-.1687-.0101-.33742-.0354-.52102h-3.4026v1.28023h1.7266c-.1974.81874-.7848 1.2554-1.7924 1.2554-1.0531 0-1.9544-.74928-1.9544-2.08407 0-1.21075.8152-2.04439 1.9494-2.04439.6582 0 1.1595.23818 1.5139.61034l1.2051-1.16113c-.6178-.63019-1.514-1.00731-2.638-1.00731Zm25.5421.94509c0 .45615-.3211.7692-.7759.7692-.4503 0-.7669-.31305-.7669-.7692 0-.45614.3121-.77366.7669-.77366.4548 0 .7759.31304.7759.77366Zm0 1.45491h-1.5428v4.8h1.5428v-4.8Zm-9.2914.71777v-.71772h-1.5086V9.5999h1.5086V7.26204c0-.8508.6044-1.15974 1.2089-1.15974.2551-.02577.6125.0558.7111.0998V4.89501c-.1231-.07887-.4474-.09624-.5944-.09506-.5638 0-1.0971.26618-1.3256.71772ZM32.7148 9.5999v-4.8h-1.5053v.56846c-.2715-.3216-.7799-.56846-1.4462-.56846-1.2635 0-2.1914 1.0272-2.1914 2.4048s.9279 2.3952 2.1914 2.3952c.6663 0 1.1747-.14247 1.4462-.46887v.46887h1.5053Zm-2.5813-3.456c.6021.0048 1.0217.4368 1.0217 1.0608 0 .624-.4196 1.0608-1.0217 1.0608-.6021 0-1.0217-.4368-1.0217-1.0608 0-.624.4196-1.0608 1.0217-1.0608Zm19.7242-1.344v4.8h-1.5053v-.46887c-.2716.3264-.7799.46887-1.4462.46887-1.2634 0-2.1914-1.0176-2.1914-2.3952s.928-2.4048 2.1914-2.4048c.6663 0 1.1746.24686 1.4462.56846V4.7999h1.5053ZM48.298 7.2047c0-.624-.4195-1.056-1.0217-1.0608-.6021 0-1.0215.4368-1.0215 1.0608 0 .624.4194 1.0608 1.0215 1.0608.6022 0 1.0217-.4368 1.0217-1.0608Zm-6.326 2.3952V2.57133h-1.5054v2.85806c-.2715-.31697-.7798-.56027-1.4461-.56027-1.2635 0-2.1914 1.01239-2.1914 2.37012 0 1.35774.9279 2.36066 2.1914 2.36066.6663 0 1.1746-.14042 1.4461-.46212v.46212h1.5054Zm-2.5814-3.40615c.6022.00473 1.0217.43049 1.0217 1.04549s-.4195 1.04551-1.0217 1.04551c-.6021 0-1.0216-.43051-1.0216-1.04551s.4195-1.04549 1.0216-1.04549ZM25.5512 7.42031V4.7999h1.5065v2.73796c0 1.19511-.8943 2.06204-2.2525 2.06204s-2.2047-.86693-2.2047-2.03264V4.7999h1.5065v2.62041c0 .46531.3012.77388.6982.77388.4495 0 .746-.30367.746-.77388Zm29.4493-.87674V9.5999h-1.4773V6.9844c0-.52409-.4694-.77388-.8394-.77388-.3845 0-.9053.24979-.9053.77388v2.6155H50.372v-4.8h1.4065v.59265c.3311-.42122.9443-.59265 1.4942-.59265.881 0 1.7278.62205 1.7278 1.74367Z" fill="#fff"/>
</svg>
