<svg width="64" height="64" viewBox="0 0 64 64" fill="none" xmlns="http://www.w3.org/2000/svg">
<circle cx="32" cy="33" r="28" fill="#CC1800"/>
<circle cx="32" cy="31" r="28" fill="url(#paint0_linear_3867_3759)"/>
<circle cx="32" cy="31" r="28" fill="#660C00" fill-opacity="0.1"/>
<circle cx="32" cy="31" r="21.5" fill="url(#paint1_linear_3867_3759)" stroke="#CC1800"/>
<path d="M32 10C43.598 10 53 19.402 53 31C53 31.1671 52.997 31.3338 52.9932 31.5C52.7276 20.133 43.4308 11 32 11C20.5692 11 11.2715 20.133 11.0059 31.5C11.002 31.3338 11 31.1671 11 31C11 19.402 20.402 10 32 10Z" fill="#FF7433"/>
<path d="M32 3C47.464 3 60 15.536 60 31C60 31.167 59.9961 31.3337 59.9932 31.5C59.7264 16.2667 47.2969 4 32 4C16.703 4 4.27262 16.2667 4.00586 31.5C4.00295 31.3337 4 31.167 4 31C4 15.536 16.536 3 32 3Z" fill="#FF7433"/>
<path d="M35.3027 21.21C37.0053 21.21 38.3857 22.5904 38.3857 24.293V25.6143H39.707C41.4096 25.6143 42.79 26.9947 42.79 28.6973V39.707C42.7899 41.4095 41.4095 42.79 39.707 42.79H24.293C22.5903 42.79 21.21 41.4097 21.21 39.707V24.293C21.21 22.5903 22.5903 21.21 24.293 21.21H35.3027Z" fill="#CC1800"/>
<path d="M35.3027 19.21C37.0053 19.21 38.3857 20.5904 38.3857 22.293V23.6143H39.707C41.4096 23.6143 42.79 24.9947 42.79 26.6973V37.707C42.7899 39.4095 41.4095 40.79 39.707 40.79H24.293C22.5903 40.79 21.21 39.4097 21.21 37.707V22.293C21.21 20.5903 22.5903 19.21 24.293 19.21H35.3027Z" fill="white"/>
<path d="M39.707 39.79V40.79H24.293V39.79H39.707ZM41.79 37.707V26.6973C41.79 25.6188 40.9703 24.7317 39.9199 24.625L39.707 24.6143H37.3857V22.293C37.3857 21.2145 36.566 20.3274 35.5156 20.2207L35.3027 20.21H24.293C23.1426 20.21 22.21 21.1426 22.21 22.293V37.707C22.21 38.8574 23.1426 39.79 24.293 39.79V40.79C22.5903 40.79 21.21 39.4097 21.21 37.707V22.293C21.21 20.5903 22.5903 19.21 24.293 19.21H35.3027C37.0053 19.21 38.3857 20.5904 38.3857 22.293V23.6143H39.707C41.4096 23.6143 42.79 24.9947 42.79 26.6973V37.707C42.7899 39.4095 41.4095 40.79 39.707 40.79V39.79C40.7853 39.79 41.6725 38.9702 41.7793 37.9199L41.79 37.707Z" fill="#CC1800"/>
<path d="M33.1016 33.5234C33.5878 33.5237 33.9824 33.918 33.9824 34.4043C33.9823 34.8905 33.5878 35.2849 33.1016 35.2852H26.4951C26.0087 35.2852 25.6144 34.8907 25.6143 34.4043C25.6143 33.9178 26.0087 33.5234 26.4951 33.5234H33.1016ZM33.1016 29.1191C33.5878 29.1194 33.9824 29.5137 33.9824 30C33.9824 30.4863 33.5878 30.8806 33.1016 30.8809H26.4951C26.0087 30.8809 25.6143 30.4865 25.6143 30C25.6143 29.5135 26.0087 29.1191 26.4951 29.1191H33.1016ZM26.4951 24.4951C26.9815 24.4953 27.376 24.8896 27.376 25.376C27.3758 25.8622 26.9814 26.2567 26.4951 26.2568C26.0087 26.2568 25.6144 25.8623 25.6143 25.376C25.6143 24.8895 26.0087 24.4951 26.4951 24.4951ZM33.1016 24.4951C33.5878 24.4953 33.9824 24.8897 33.9824 25.376C33.9822 25.8621 33.5877 26.2556 33.1016 26.2559H30.0361C29.5498 26.2559 29.1555 25.8622 29.1553 25.376C29.1553 24.8895 29.5497 24.4951 30.0361 24.4951H33.1016Z" fill="#CC1800"/>
<path d="M37.3831 24.1165C37.3831 23.8403 37.6069 23.6165 37.8831 23.6165V23.6165C38.1592 23.6165 38.3831 23.8403 38.3831 24.1165V36.7463C38.3831 37.0225 38.1592 37.2463 37.8831 37.2463V37.2463C37.6069 37.2463 37.3831 37.0225 37.3831 36.7463V24.1165Z" fill="white"/>
<path d="M38.3831 36.7463C38.3831 37.0225 38.1592 37.2463 37.8831 37.2463C37.6069 37.2463 37.3831 37.0225 37.3831 36.7463V24.1165C37.3831 23.8403 37.6069 23.6165 37.8831 23.6165C38.1592 23.6165 38.3831 23.8403 38.3831 24.1165V36.7463Z" fill="#CC1800"/>
<path d="M37.3831 26.3181C37.3831 24.826 38.5927 23.6165 40.0847 23.6165V23.6165C41.5768 23.6165 42.7864 24.826 42.7864 26.3181V38.0847C42.7864 39.5768 41.5768 40.7864 40.0847 40.7864V40.7864C38.5927 40.7864 37.3831 39.5768 37.3831 38.0847V26.3181Z" fill="white"/>
<path d="M41.7864 38.0852V26.3176C41.7861 25.3781 41.0239 24.6165 40.0842 24.6165C39.1448 24.6167 38.3833 25.3782 38.3831 26.3176V38.0852C38.3833 39.0246 39.1448 39.7861 40.0842 39.7864V40.7864C38.6855 40.7861 37.5349 39.7229 37.3968 38.3606L37.3831 38.0852V26.3176C37.3833 24.8259 38.5926 23.6167 40.0842 23.6165C41.5762 23.6165 42.7861 24.8258 42.7864 26.3176V38.0852L42.7727 38.3606C42.6345 39.7231 41.4832 40.7864 40.0842 40.7864V39.7864C41.0239 39.7864 41.7861 39.0248 41.7864 38.0852Z" fill="#CC1800"/>
<defs>
<linearGradient id="paint0_linear_3867_3759" x1="18.4516" y1="2.99999" x2="23.9294" y2="58.459" gradientUnits="userSpaceOnUse">
<stop stop-color="#FF5601"/>
<stop offset="1" stop-color="#FF1F01"/>
</linearGradient>
<linearGradient id="paint1_linear_3867_3759" x1="21.8387" y1="10" x2="25.947" y2="51.5942" gradientUnits="userSpaceOnUse">
<stop stop-color="#FF5601"/>
<stop offset="1" stop-color="#FF1F01"/>
</linearGradient>
</defs>
</svg>
