<svg xmlns="http://www.w3.org/2000/svg" xmlns:xlink="http://www.w3.org/1999/xlink" fill="none" viewBox="0 0 71 48">
  <g clip-path="url(#a)">
    <path fill="#131313" d="M0 2C0 .895431.89543 0 2 0h67c1.1046 0 2 .895431 2 2v44c0 1.1046-.8954 2-2 2H2c-1.104568 0-2-.8954-2-2V2Z"/>
    <path fill="url(#c)" fill-rule="evenodd" d="m45.4843 17.7454.5624-1.3787s-.7157-.7659-1.5848-1.634c-.869-.8681-2.7094-.3575-2.7094-.3575L39.6565 12H32.295l-2.096 2.3752s-1.8403-.5106-2.7094.3575c-.8691.8681-1.5848 1.634-1.5848 1.634l.5624 1.3787-.7157 2.0426s2.1049 7.9637 2.3516 8.9362c.4856 1.9149.8179 2.6553 2.1982 3.6255 1.3803.9702 3.8852 2.6553 4.2942 2.9106.4089.2554.9202.6903 1.3803.6903.46 0 .9713-.4349 1.3802-.6903.409-.2553 2.914-1.9404 4.2942-2.9106 1.3803-.9702 1.7126-1.7106 2.1983-3.6255.2466-.9725 2.3515-8.9362 2.3515-8.9362l-.7157-2.0426Z" clip-rule="evenodd"/>
    <path fill="#fff" d="M38.5833 16.3157c.3067 0 2.5816-.434 2.5816-.434s2.6959 3.2553 2.6959 3.951c0 .5753-.2318.8004-.5048 1.0656-.0572.0555-.1162.1128-.1753.1755l-2.0214 2.1441c-.0201.0213-.0424.0437-.066.0674-.2017.2026-.4989.501-.2892.9966.014.0331.0284.0668.043.101.2299.5369.5137 1.1998.1525 1.8715-.3843.7145-1.0424 1.1914-1.4642 1.1125-.4217-.0789-1.4122-.5959-1.7765-.832-.3642-.2362-1.5186-1.1872-1.5186-1.5511 0-.3035.8302-.8084 1.2336-1.0537.0802-.0487.1436-.0873.1801-.1119.0417-.028.1113-.0712.197-.1244.3682-.2285 1.033-.6411 1.0497-.824.0206-.2256.0128-.2917-.284-.8489-.0631-.1185-.1369-.2454-.2133-.3766-.2825-.4856-.599-1.0294-.5289-1.419.079-.4397.7689-.6919 1.3532-.9054.073-.0267.1444-.0528.2127-.0786.1706-.0643.3848-.1445.6087-.2283.5834-.2182 1.2316-.4607 1.3384-.51.148-.0681.1098-.1331-.3384-.1755-.0593-.0056-.133-.0134-.2176-.0224-.5548-.0589-1.578-.1675-2.0755-.029-.0978.0272-.2075.0569-.3225.088-.5589.1512-1.2438.3365-1.3096.4433-.0116.0186-.0229.0347-.0336.0499-.0629.0894-.1039.1476-.0343.5274.0207.1131.0634.3356.1161.6107.1544.8054.3952 2.0617.4255 2.3439.0043.0395.009.0777.0135.1143.0386.3149.0643.5244-.3018.608-.0305.007-.0625.0143-.0958.022-.413.0947-1.0186.2335-1.2374.2335-.2189 0-.825-.139-1.238-.2337-.0331-.0075-.065-.0148-.0953-.0218-.3661-.0836-.3404-.2931-.3018-.608.0045-.0367.0092-.0748.0135-.1143.0304-.2826.2718-1.542.4262-2.3473.0524-.2735.0948-.4946.1154-.6073.0697-.3797.0286-.438-.0343-.5274-.0107-.0152-.022-.0312-.0335-.0499-.0658-.1068-.7507-.2921-1.3096-.4433-.115-.0311-.2247-.0608-.3226-.088-.4974-.1385-1.5206-.0299-2.0754.029-.0846.009-.1584.0168-.2177.0224-.4481.0424-.4864.1074-.3384.1755.1069.0492.7547.2916 1.338.5099.224.0838.4385.164.6091.2284.0684.0258.1398.0519.2129.0786.5842.2136 1.274.4657 1.3531.9054.07.3895-.2463.9332-.5289 1.4188-.0763.1313-.1502.2583-.2134.3768-.2967.5572-.3046.6233-.284.8489.0167.1829.6812.5953 1.0495.8238.0858.0533.1555.0966.1972.1246.0365.0246.0998.0631.18.1118.4033.2453 1.2337.7503 1.2337 1.0538 0 .3639-1.1543 1.3149-1.5186 1.5511-.3642.2361-1.3547.7531-1.7765.832-.4217.0789-1.0799-.398-1.4641-1.1125-.3612-.6717-.0775-1.3345.1523-1.8714.0147-.0342.0291-.0679.0431-.1011.2097-.4956-.0875-.7941-.2893-.9967-.0236-.0237-.0459-.0461-.0659-.0673l-2.0214-2.1441c-.0591-.0627-.1181-.1199-.1752-.1755-.2731-.2652-.5049-.4903-.5049-1.0656 0-.6957 2.6959-3.951 2.6959-3.951s2.275.434 2.5817.434c.2447 0 .7174-.1626 1.21-.332.1248-.043.2508-.0863.3747-.1276.6135-.2042 1.0225-.2057 1.0225-.2057s.4089.0015 1.0224.2057c.1239.0413.25.0846.3747.1276.4927.1694.9653.332 1.2101.332Z"/>
    <path fill="#fff" d="M38.1928 27.8301c.4809.2476.8221.4232.9511.5038.1668.1044.065.3011-.0869.4085-.1521.1073-2.1949 1.6874-2.3932 1.8621-.0254.0223-.0523.0465-.0803.0717-.191.172-.4347.3914-.6074.3914-.1729 0-.4167-.2195-.6077-.3916-.028-.0251-.0548-.0493-.0801-.0715-.1983-.1747-2.2411-1.7548-2.3931-1.8621-.1521-.1074-.2538-.3041-.0869-.4085.1291-.0807.4706-.2565.952-.5042.141-.0727.2941-.1515.4574-.2359.7204-.3723 1.6182-.6889 1.7584-.6889.1401 0 1.0379.3166 1.7583.6889.1637.0846.3171.1636.4584.2363Z"/>
  </g>
  <defs>
    <linearGradient id="c" x1="25.7515" x2="46.2" y1="36.1195" y2="36.1195" gradientUnits="userSpaceOnUse">
      <stop stop-color="#FF5601"/>
      <stop offset=".5" stop-color="#FF4000"/>
      <stop offset="1" stop-color="#FF1F01"/>
    </linearGradient>
    <clipPath id="a">
      <path fill="#fff" d="M0 2C0 .895431.89543 0 2 0h67c1.1046 0 2 .895431 2 2v44c0 1.1046-.8954 2-2 2H2c-1.104568 0-2-.8954-2-2V2Z"/>
    </clipPath>
  </defs>
</svg>
