<svg fill="none" xmlns="http://www.w3.org/2000/svg" viewBox="0 0 58 62">
  <path d="M56.6829 32.8415c0 15.3763-12.4651 27.8415-27.8414 27.8415S1 48.2178 1 32.8415c0-3.8056.51395-9.0761 1.89566-12.3802C7.09851 10.4151 17.2701 5 28.8415 5c12.215 0 22.7479 5.9179 26.4982 16.8611.9708 2.8323 1.3432 7.8191 1.3432 10.9804Z" fill="#828CFF" stroke="#000" stroke-miterlimit="10"/>
  <path d="M29.1497 55.8462c15.0644 0 27.2766-12.2121 27.2766-27.2766 0-15.0645-12.2122-27.27663-27.2766-27.27663-15.0645 0-27.27665 12.21213-27.27665 27.27663S14.0852 55.8462 29.1497 55.8462Z" fill="url(#a)" stroke="#000" stroke-miterlimit="10"/>
  <rect x="19" y="18" width="16" height="22" rx="2.58333" fill="#fff"/>
  <rect x="35" y="23" width="5" height="17" rx="2.5" fill="#C1C6FF"/>
  <path fill-rule="evenodd" clip-rule="evenodd" d="M20.3829 17C18.5146 17 17 18.5146 17 20.3829v16.9147c0 1.8684 1.5146 3.383 3.3829 3.383h15.7065c.0106 0 .0211-.0002.0316-.0006h1.1769c1.8683 0 3.3829-1.5145 3.3829-3.3829V25.2152c0-1.8684-1.5146-3.3829-3.3829-3.3829h-1.4501v-1.4494c0-1.8683-1.5146-3.3829-3.3829-3.3829h-12.082Zm15.4649 6.7654v13.7395c0 .3845.1527.7533.4246 1.0252l.2169.2168h.8086c.8007 0 1.4498-.6491 1.4498-1.4498V25.2152c0-.8007-.6491-1.4498-1.4498-1.4498h-1.4501Zm-16.9147-3.3825c0-.8007.6491-1.4498 1.4498-1.4498h12.082c.8007 0 1.4498.6491 1.4498 1.4498v17.122c0 .4295.0817.8506.2364 1.2426H20.3829c-.8007 0-1.4498-.6492-1.4498-1.4499V20.3829Z" fill="#000"/>
  <path d="M21.9919 23.3489c0-.5338.4328-.9666.9666-.9666s.9666.4328.9666.9666-.4328.9665-.9666.9665-.9666-.4327-.9666-.9665Z" fill="#4551D1"/>
  <path fill-rule="evenodd" clip-rule="evenodd" d="M31.1743 23.3489c0 .5338-.4327.9665-.9665.9665h-3.3636c-.5338 0-.9665-.4327-.9665-.9665s.4327-.9666.9665-.9666h3.3636c.5338 0 .9665.4328.9665.9666ZM31.1743 28.4236c0 .5338-.4327.9665-.9665.9665h-7.2492c-.5338 0-.9665-.4327-.9665-.9665s.4327-.9666.9665-.9666h7.2492c.5338 0 .9665.4328.9665.9666ZM31.1743 33.2559c0 .5338-.4327.9665-.9665.9665h-7.2492c-.5338 0-.9665-.4327-.9665-.9665 0-.5339.4327-.9666.9665-.9666h7.2492c.5338 0 .9665.4327.9665.9666Z" fill="#4551D1"/>
  <defs>
    <linearGradient id="a" x1="1.87305" y1="1.29297" x2="62.2037" y2="8.68348" gradientUnits="userSpaceOnUse">
      <stop stop-color="#4641EE"/>
      <stop offset="1" stop-color="#6261FF"/>
    </linearGradient>
  </defs>
</svg>
