<svg fill="none" xmlns="http://www.w3.org/2000/svg" viewBox="0 0 64 64">
  <path d="M61.8307 34.1107c0 15.8723-12.8672 28.7396-28.7396 28.7396-15.8723 0-28.73954-12.8673-28.73954-28.7396 0-3.9284.53053-9.3689 1.95681-12.7795C10.6468 10.9609 21.1465 5.37109 33.0911 5.37109c12.6091 0 23.4817 6.10881 27.3531 17.40501 1.0021 2.9236 1.3865 8.0713 1.3865 11.3346Z" fill="#FD4301" stroke="#000" stroke-width="1.18254" stroke-miterlimit="10"/>
  <path d="M33.0901 57.6451c15.5504 0 28.1565-12.6061 28.1565-28.1566 0-15.5504-12.6061-28.15647-28.1565-28.15647-15.5504 0-28.15651 12.60607-28.15651 28.15647 0 15.5505 12.60611 28.1566 28.15651 28.1566Z" fill="url(#a)" stroke="#000" stroke-width="1.18254" stroke-miterlimit="10"/>
  <path d="M33.0904 12.326c10.1172 0 18.3475 7.9855 18.7877 17.9944.0121-.2787.0422-.5529.0422-.8348 0-10.3992-8.4301-18.8294-18.8293-18.8294-10.3991 0-18.8293 8.4302-18.8293 18.8294 0 .2819.0301.5561.0423.8348.4402-10.0089 8.6698-17.9944 18.787-17.9944h-.0006Z" fill="#31322E" stroke="#868888" stroke-width=".448389" stroke-miterlimit="10"/>
  <path d="M33.0904 12.326c10.1172 0 18.3475 7.9855 18.7877 17.9944.0121-.2787.0422-.5529.0422-.8348 0-10.3992-8.4301-18.8294-18.8293-18.8294-10.3991 0-18.8293 8.4302-18.8293 18.8294 0 .2819.0301.5561.0423.8348.4402-10.0089 8.6698-17.9944 18.787-17.9944h-.0006Z" fill="#FD4301" stroke="#000" stroke-width=".827781" stroke-miterlimit="10"/>
  <path d="M33.0917 48.317c10.1172 0 18.3475-7.9855 18.7877-17.9944-.4402-10.009-8.6698-17.9945-18.7877-17.9945s-18.3475 7.9855-18.787 17.9945c.4402 10.0089 8.6698 17.9944 18.787 17.9944Z" fill="url(#b)" stroke="#000" stroke-width=".827781" stroke-miterlimit="10"/>
  <path d="m44.19 39.2262.0083-1.9504-11.0751-16.5662-.0045-.0026-.0044.0026L22.043 37.3239l.0083 1.9043 22.1381-.0013.0006-.0007Zm-7.282-3.5477h-7.5773v-.0013l3.7887-6.4606 3.788 6.4606v.0013h.0006Z" fill="#FD4301" stroke="#000" stroke-width=".827781" stroke-miterlimit="10"/>
  <path d="m33.1256 18.0104-.0045-.0026v8.5096l3.788 6.4606 7.2705 4.1981h.0121L33.1256 18.0104Z" fill="#fff" stroke="#000" stroke-width=".827781" stroke-linejoin="round"/>
  <path d="M36.9089 32.9778h-7.5773l.0006-.0012-7.2736 4.1994 22.1201-.0013-7.2704-4.1981.0006.0012Z" fill="#fff" stroke="#000" stroke-width=".827781" stroke-linejoin="round"/>
  <path d="M33.1221 26.5174v-8.5096l-.0045.0026-11.0629 19.167h.0058l7.2736-4.1994 3.788-6.4606Z" fill="#fff" stroke="#000" stroke-width=".827781" stroke-linejoin="round"/>
  <defs>
    <linearGradient id="a" x1="54.014" y1="10.6477" x2="12.1656" y2="48.3288" gradientUnits="userSpaceOnUse">
      <stop stop-color="#9D7CBF"/>
      <stop offset=".6" stop-color="#FD0189"/>
      <stop offset=".97" stop-color="#FD5C3F"/>
    </linearGradient>
    <linearGradient id="b" x1="46.6606" y1="18.105" x2="19.5235" y2="42.5395" gradientUnits="userSpaceOnUse">
      <stop stop-color="#9D7CBF"/>
      <stop offset=".6" stop-color="#FD0189"/>
      <stop offset=".97" stop-color="#FD5C3F"/>
    </linearGradient>
  </defs>
</svg>
