<svg width="64" height="64" viewBox="0 0 64 64" fill="none" xmlns="http://www.w3.org/2000/svg">
<circle cx="32" cy="33" r="28" fill="#CC1800"/>
<circle cx="32" cy="31" r="28" fill="url(#paint0_linear_3865_2375)"/>
<circle cx="32" cy="31" r="28" fill="#660C00" fill-opacity="0.1"/>
<circle cx="32" cy="31" r="21.5" fill="url(#paint1_linear_3865_2375)" stroke="#CC1800"/>
<path d="M53 31C53 19.402 43.598 10 32 10C20.402 10 11 19.402 11 31C11 42.598 20.402 52 32 52C43.598 52 53 42.598 53 31ZM54 31C54 43.1503 44.1503 53 32 53C19.8497 53 10 43.1503 10 31C10 18.8497 19.8497 9 32 9C44.1503 9 54 18.8497 54 31Z" fill="#CC1800"/>
<path d="M32 10C43.598 10 53 19.402 53 31C53 31.1671 52.997 31.3338 52.9932 31.5C52.7276 20.133 43.4308 11 32 11C20.5691 11 11.2715 20.133 11.0059 31.5C11.002 31.3338 11 31.1671 11 31C11 19.402 20.402 10 32 10Z" fill="#FF7433"/>
<path d="M32 3C47.464 3 60 15.536 60 31C60 31.167 59.9961 31.3337 59.9932 31.5C59.7264 16.2667 47.2969 4 32 4C16.703 4 4.27262 16.2667 4.00586 31.5C4.00295 31.3337 4 31.167 4 31C4 15.536 16.536 3 32 3Z" fill="#FF7433"/>
<path d="M32.0003 20.8799C32.1324 20.88 32.2651 20.9688 32.3655 21.1445L42.265 38.1709C42.365 38.3465 42.3745 38.0549 42.3089 38.1709H37.0228L32.0003 29.3672L26.9769 38.1709H20.6917C20.6262 38.0549 20.6354 38.3468 20.7357 38.1709L31.6351 21.1445C31.7356 20.9689 31.8678 20.8799 32.0003 20.8799Z" fill="#CC1800"/>
<path d="M32.5 17.5508C32.626 17.6452 32.7267 17.7686 32.7998 17.8965V17.8975L38.749 28.3242L44.6992 38.752C44.8514 39.0192 44.9261 39.3759 44.7432 39.6982L44.4932 40.1396L44.3418 40.0508C44.2002 40.1117 44.0465 40.1387 43.9004 40.1387H20.0996C19.7888 40.1386 19.4401 40.0227 19.2559 39.6963V39.6973C19.2537 39.6935 19.2521 39.6894 19.25 39.6855L19.0146 39.2676L19.1562 39.1836C19.1739 39.0284 19.2279 38.88 19.3008 38.752L25.25 28.3242L31.2002 17.8975V17.8965C31.3526 17.6302 31.6242 17.3799 32 17.3799H32.5V17.5508ZM27.8389 34.6699H36.1602L31.999 27.377L27.8389 34.6699Z" fill="white"/>
<path d="M32.5002 17.3804V26.5005L32.4348 26.6157L27.4113 35.4185L27.3459 35.5337L27.2307 35.6011L19.9445 39.8813L19.6916 39.4507L19.2561 39.6968C19.0739 39.3746 19.1486 39.0189 19.301 38.7515L31.2004 17.897C31.3528 17.6306 31.6243 17.3804 32.0002 17.3804H32.5002ZM20.7336 38.2573L26.6086 34.8071L31.5002 26.2339V19.3882L20.7336 38.2573Z" fill="#CC1800"/>
<path d="M31.9999 17.3804C32.3754 17.3804 32.6472 17.629 32.7997 17.896L44.6992 38.7515C44.8515 39.0188 44.9261 39.3753 44.7431 39.6978L44.4931 40.1392L44.0556 39.8813L36.7695 35.6011L36.6542 35.5337L36.5878 35.4185L31.5654 26.6157L31.4999 26.5005V17.8804H31.9999V17.3804ZM32.4999 26.2339L37.3906 34.8071L43.2656 38.2573L32.4999 19.3892V26.2339Z" fill="#CC1800"/>
<path d="M37.1594 34.6702L37.2766 34.7395L44.5618 39.0188L44.3088 39.4504L44.7444 39.6965C44.56 40.0226 44.212 40.1389 43.9006 40.1389H20.0999C19.7888 40.1389 19.4402 40.0225 19.2561 39.6956L19.0149 39.2678L26.7239 34.7395L26.8411 34.6702H37.1594ZM21.2083 39.1389H42.7922L36.8879 35.6702H27.1125L21.2083 39.1389Z" fill="#CC1800"/>
<path d="M19.1697 39.2559H44.8417V40C44.8417 41.1046 43.9462 42 42.8417 42H21.1697C20.0651 42 19.1697 41.1046 19.1697 40V39.2559Z" fill="#CC1800"/>
<defs>
<linearGradient id="paint0_linear_3865_2375" x1="18.4516" y1="2.99999" x2="23.9294" y2="58.459" gradientUnits="userSpaceOnUse">
<stop stop-color="#FF5601"/>
<stop offset="1" stop-color="#FF1F01"/>
</linearGradient>
<linearGradient id="paint1_linear_3865_2375" x1="21.8387" y1="10" x2="25.947" y2="51.5942" gradientUnits="userSpaceOnUse">
<stop stop-color="#FF5601"/>
<stop offset="1" stop-color="#FF1F01"/>
</linearGradient>
</defs>
</svg>
