<svg fill="none" xmlns="http://www.w3.org/2000/svg" viewBox="0 0 72 47">
  <mask id="a" maskUnits="userSpaceOnUse" x="18.656" y="10.1025" width="39" height="31" fill="#000">
    <path fill="#fff" d="M18.656 10.1025h39v31h-39z"/>
    <path fill-rule="evenodd" clip-rule="evenodd" d="M32.8848 11.1025c-7.3061 0-13.2288 5.9228-13.2288 13.2288 0 7.3061 5.9227 13.2288 13.2288 13.2288h9.9214c.6537 0 1.2963-.0474 1.9246-.139 1.1391-.166 2.3179-.0146 3.3198.5523.9604.5434 1.9955 1.0622 3.0623 1.5009 2.3146.9519 2.947-1.5434 1.3598-3.4785-.7741-.9437-.3924-2.1528.4-3.0812 1.9719-2.3103 3.1623-5.3078 3.1623-8.5833 0-7.306-5.9227-13.2288-13.2287-13.2288h-9.9215Z"/>
  </mask>
  <path fill-rule="evenodd" clip-rule="evenodd" d="M32.8848 11.1025c-7.3061 0-13.2288 5.9228-13.2288 13.2288 0 7.3061 5.9227 13.2288 13.2288 13.2288h9.9214c.6537 0 1.2963-.0474 1.9246-.139 1.1391-.166 2.3179-.0146 3.3198.5523.9604.5434 1.9955 1.0622 3.0623 1.5009 2.3146.9519 2.947-1.5434 1.3598-3.4785-.7741-.9437-.3924-2.1528.4-3.0812 1.9719-2.3103 3.1623-5.3078 3.1623-8.5833 0-7.306-5.9227-13.2288-13.2287-13.2288h-9.9215Z" fill="#000"/>
  <path d="m52.8727 32.9146.7606.6492-.7606-.6492Zm-1.7598 6.5597-.3804.9248.3804-.9248Zm-6.3821-2.0532.1442.9895-.1442-.9895ZM20.656 24.3313c0-6.7538 5.475-12.2288 12.2288-12.2288v-2c-7.8584 0-14.2288 6.3705-14.2288 14.2288h2Zm12.2288 12.2288c-6.7538 0-12.2288-5.475-12.2288-12.2288h-2c0 7.8583 6.3704 14.2288 14.2288 14.2288v-2Zm9.9214 0h-9.9214v2h9.9214v-2Zm1.7803-.1285c-.5806.0846-1.175.1285-1.7803.1285v2c.7021 0 1.3929-.0509 2.0688-.1495l-.2885-1.979Zm6.9067 2.1178c-1.0218-.4202-2.0193-.9197-2.9502-1.4463l-.9848 1.7407c.99.5601 2.0627 1.0982 3.1743 1.5553l.7607-1.8497Zm3.5418-14.2181c0 3.0287-1.0997 5.798-2.9229 7.9341l1.5212 1.2984c2.1205-2.4845 3.4017-5.7102 3.4017-9.2325h-2ZM42.8063 12.1025c6.7537 0 12.2287 5.475 12.2287 12.2288h2c0-7.8583-6.3704-14.2288-14.2287-14.2288v2Zm-9.9215 0h9.9215v-2h-9.9215v2Zm20.3611 23.2591c-.1786-.2177-.2285-.4491-.1768-.7329.0573-.3146.2461-.6921.5642-1.0649l-1.5212-1.2984c-.4743.5557-.8725 1.2469-1.0106 2.0048-.1438.7888.0025 1.6337.598 2.3598l1.5464-1.2684Zm-2.5134 5.0375c.7242.2978 1.4655.3872 2.1329.1456.6912-.2501 1.1337-.7945 1.3392-1.4107.3901-1.1697-.0212-2.6293-.9587-3.7724L51.6995 36.63c.6496.792.7158 1.5476.6078 1.8713-.0435.1305-.0938.1524-.1226.1629-.0526.019-.2583.0634-.6915-.1148l-.7607 1.8497Zm-5.8575-1.9885c.9631-.1403 1.9094-.0046 2.6832.4332l.9848-1.7407c-1.2301-.696-2.6412-.8632-3.9565-.6715l.2885 1.979Z" fill="#000" mask="url(#a)"/>
  <mask id="c" maskUnits="userSpaceOnUse" x="16" y="7" width="39" height="31" fill="#000">
    <path fill="#fff" d="M16 7h39v31H16z"/>
    <path fill-rule="evenodd" clip-rule="evenodd" d="M30.2288 8C22.9227 8 17 13.9227 17 21.2288c0 7.306 5.9227 13.2287 13.2288 13.2287h9.9214c.6536 0 1.2962-.0474 1.9244-.1389 1.1391-.166 2.3179-.0145 3.3198.5523.9605.5435 1.9956 1.0623 3.0623 1.5009 2.3147.952 2.9471-1.5434 1.3599-3.4785-.7741-.9437-.3923-2.1527.4-3.0811 1.9719-2.3104 3.1624-5.3079 3.1624-8.5834C53.379 13.9227 47.4563 8 40.1502 8h-9.9214Z"/>
  </mask>
  <path fill-rule="evenodd" clip-rule="evenodd" d="M30.2288 8C22.9227 8 17 13.9227 17 21.2288c0 7.306 5.9227 13.2287 13.2288 13.2287h9.9214c.6536 0 1.2962-.0474 1.9244-.1389 1.1391-.166 2.3179-.0145 3.3198.5523.9605.5435 1.9956 1.0623 3.0623 1.5009 2.3147.952 2.9471-1.5434 1.3599-3.4785-.7741-.9437-.3923-2.1527.4-3.0811 1.9719-2.3104 3.1624-5.3079 3.1624-8.5834C53.379 13.9227 47.4563 8 40.1502 8h-9.9214Z" fill="#fff"/>
  <path fill-rule="evenodd" clip-rule="evenodd" d="M30.2288 8C22.9227 8 17 13.9227 17 21.2288c0 7.306 5.9227 13.2287 13.2288 13.2287h9.9214c.6536 0 1.2962-.0474 1.9244-.1389 1.1391-.166 2.3179-.0145 3.3198.5523.9605.5435 1.9956 1.0623 3.0623 1.5009 2.3147.952 2.9471-1.5434 1.3599-3.4785-.7741-.9437-.3923-2.1527.4-3.0811 1.9719-2.3104 3.1624-5.3079 3.1624-8.5834C53.379 13.9227 47.4563 8 40.1502 8h-9.9214Z" fill="url(#b)"/>
  <path d="m48.4567 36.3718.3804-.9248-.3804.9248Zm-6.3821-2.0532.1442.9895-.1442-.9895Zm3.3198.5523-.4924.8704.4924-.8704ZM18 21.2288C18 14.475 23.475 9 30.2288 9V7C22.3704 7 16 13.3704 16 21.2288h2Zm12.2288 12.2287C23.475 33.4575 18 27.9825 18 21.2288h-2c0 7.8583 6.3704 14.2287 14.2288 14.2287v-2Zm9.9214 0h-9.9214v2h9.9214v-2Zm1.7801-.1285c-.5806.0847-1.1749.1285-1.7801.1285v2c.702 0 1.3928-.0509 2.0686-.1494l-.2885-1.9791Zm6.9068 2.118c-1.0219-.4202-2.0194-.9197-2.9502-1.4464l-.9849 1.7407c.99.5601 2.0628 1.0982 3.1744 1.5554l.7607-1.8497Zm3.5419-14.2182c0 3.0287-1.0998 5.798-2.923 7.9342l1.5213 1.2983c2.1205-2.4845 3.4017-5.7102 3.4017-9.2325h-2ZM40.1502 9C46.904 9 52.379 14.475 52.379 21.2288h2C54.379 13.3704 48.0086 7 40.1502 7v2Zm-9.9214 0h9.9214V7h-9.9214v2Zm20.361 23.2591c-.1786-.2176-.2285-.4491-.1768-.7328.0573-.3147.2461-.6922.5643-1.065L49.456 29.163c-.4742.5556-.8725 1.2468-1.0106 2.0047-.1438.7888.0025 1.6337.598 2.3598l1.5464-1.2684Zm-2.5134 5.0376c.7241.2978 1.4655.3872 2.1329.1456.6912-.2502 1.1337-.7945 1.3392-1.4107.3901-1.1698-.0211-2.6294-.9587-3.7725l-1.5464 1.2684c.6496.792.7158 1.5476.6078 1.8714-.0435.1305-.0938.1524-.1226.1629-.0526.019-.2583.0634-.6915-.1148l-.7607 1.8497Zm-5.8576-1.9886c.9631-.1403 1.9094-.0046 2.6832.4332l.9849-1.7407c-1.2302-.696-2.6413-.8632-3.9566-.6716l.2885 1.9791Z" fill="#000" mask="url(#c)"/>
  <path fill-rule="evenodd" clip-rule="evenodd" d="m42.7234 27.6372-3.8726 2.6967c-.0945.0656-.2039.1064-.3188.1171-.0421.004-.558.0522-1.2261.0522-.6966 0-1.5598-.0522-2.2245-.2617-.662-.2088-1.4585-.6639-2.1613-1.0649-.4458-.255-1.0561-.6037-1.2417-.6392-.229.0027-1.5122.3139-2.546.6031-.178.0495-.369.0234-.526-.0723-.1584-.0957-.2705-.2523-.3079-.433l-.6695-3.1398c-.074-.3454.1326-.6881.4724-.7838 4.326-1.2222 6.5722-.8909 6.6667-.8762.0435.0067.087.0181.1285.0335l3.8257 1.417c.0061.002.0095.0073.0157.0093.0054.0027.0108.0014.0163.004.2603.1118.471.2879.6348.496l1.9281-1.1412c.0157-.0094.0333-.0094.049-.0174.0156-.0073.0258-.0207.0421-.0274.8421-.34 1.8065.0689 2.1498.9109.3296.8199-.0449 1.7496-.8347 2.1171Zm-.7918-1.7902-2.2143 1.3098c-.0218.1051-.0537.2089-.0979.3106-.174.4063-.4954.7195-.9053.8822-.1984.0796-.405.1184-.6123.1184-.2216 0-.4425-.0448-.6518-.1352l-3.3704-1.2155c-.348-.1258-.5274-.5093-.4017-.8567.1244-.3474.5084-.5281.8564-.4023l3.4077 1.2303c.1414.0595.2304.0354.2767.018.0441-.018.1264-.0636.1712-.1673.0673-.1573-.0061-.3393-.1631-.409l-3.7224-1.3788c-.3331-.0341-2.1736-.164-5.4345.6841l.3901 1.8292c.7673-.2014 1.8418-.4631 2.2591-.4631.4228 0 .9298.2784 1.8643.8125.6443.3682 1.375.7851 1.901.9505.7823.247 2.1205.2135 2.7492.168l3.7782-2.6311c.0415-.0288.085-.0529.1319-.0717.1597-.0642.2378-.2476.1733-.4076-.0612-.1512-.2298-.2249-.3854-.1753ZM41.5063 20.179l-1.561-2.4827v-1.3531l2.795 4.6585-1.234-.8227Zm-3.4281.5485h3.068l.9958.6639h-5.2256l1.1618-.6639Zm1.2111-3.0312-1.5538 2.4712-1.1274.6443 2.6812-4.4686v1.3531Zm.328.7111 1.0467 1.664h-2.0931l1.0464-1.664Zm4.2176 3.1431-3.9362-6.5604c-.0105-.017-.0243-.0308-.0374-.0452-.06-.0686-.1456-.1138-.244-.1138-.0984 0-.1837.0452-.2441.1138-.0131.0144-.0269.0279-.037.0452L35.4 21.5505c-.0154.0259-.0269.0534-.0348.0816-.0006.002-.0006.004-.001.0059-.0088.0345-.0105.0699-.0078.1053.0009.0099.0019.0191.0036.0289.0059.0374.0164.0745.0357.1086.0004.0003.0004.0003.0004.0006.0003.0004.0003.0004.0003.0007.0056.0095.0131.0164.0193.0252.0109.0148.0207.0309.0335.0437.0125.0124.0269.0216.041.0321.0095.0066.0174.0144.0269.02.0154.0089.0318.0141.0482.0204.0105.0039.02.0095.0308.0124.0246.0066.0499.0092.0752.0102.0036 0 .0065.0013.0098.0013h7.8724c.1184 0 .2273-.0636.2853-.1666.0584-.1027.0568-.229-.0039-.3303Z" fill="#fff"/>
  <circle cx="4.69474" cy="34.9643" r="1.62105" stroke="#fff" stroke-width=".4"/>
  <circle cx="60.2835" cy="44.2469" r=".768422" fill="#fff" stroke="#fff" stroke-width=".4"/>
  <circle cx="53.2835" cy="4.24689" r=".768422" fill="#fff" stroke="#fff" stroke-width=".4"/>
  <path d="M4.99677 11.8881c-.07274-.3219-.53132-.3219-.60405 0l-.3531 1.5628c-.03629.1607-.22066.2371-.35994.1492l-1.35466-.8556h-.00006c-.279-.1761-.6032.1481-.42714.4271l.00003.0001.85553 1.3547c.08793.1392.01155.3236-.14913.3599h-.00001l-1.56282.3531c-.321893.0727-.321893.5313 0 .604l1.56282.3531h.00001c.16068.0363.23706.2207.14913.36l-.85553 1.3547h-.00003c-.17606.279.14814.6032.42714.4271h.00006l1.35466-.8555c.13928-.0879.32365-.0116.35994.1491l.3531 1.5628c.07273.3219.53131.3219.60405 0l.35309-1.5628c.0363-.1607.22065-.237.35992-.1491h.00002l1.35467.8555h.00006c.27899.1761.6032-.1481.42714-.4271h-.00004l-.85552-1.3547H6.6361c-.08791-.1393-.01154-.3237.14913-.36h.00001l1.56282-.3531h.00001c.32189-.0727.32189-.5313 0-.604h-.00001l-1.56282-.3531h-.00001c-.16067-.0363-.23704-.2206-.14913-.3599h.00001l.85552-1.3547.00004-.0001c.17606-.279-.14815-.6032-.42714-.4271h-.00006l-1.35467.8556c-.13927.0879-.32364.0115-.35994-.1492l-.35309-1.5628ZM65.6861 34.4297l.4731-.4561c.1723-.166.438-.1635.6014-.0021h.0001l.4613.4555v.0001c.1967.1942.4995-.0038.4414-.2496l-1.9773.2522Zm0 0c-.1918.1849-.5044.0018-.437-.2559l.1664-.6358c.0605-.2314-.0717-.462-.2924-.5256l-.623-.1795H64.5c-.2653-.0764-.2412-.4374.0018-.5071h.0001l.6276-.1801.5566 2.284Zm2.7676-2.1058-.623-.1795c-.2207-.0636-.3529-.2942-.2924-.5256l.1664-.6358c.0673-.2577-.2452-.4408-.437-.2559l-.4731.4561c-.1723.166-.438.1635-.6015.0021l-.4613-.4555s0-.0001-.0001-.0001c-.1966-.1942-.4994.0038-.4413.2496l3.1633 1.3446Zm0 0h.0001-.0001Zm-.9402 1.218.1499.6355.7334-1.5387.0552.1923h-.0001l-.6276.1801c-.2272.0653-.3651.3007-.3108.5307v.0001Zm-2.0732-1.927-.1499-.6355-.1609 1.1663c.2272-.0653.3651-.3007.3108-.5307v-.0001Zm2.9014.8316h-.0002.0002ZM27.3626 4.46558v-.00002l.4731-.45608h.0001c.1722-.166.4379-.16353.6014-.00212v.00001l.4613.45555c0 .00002 0 .00003.0001.00004.1966.19422.4994-.00374.4413-.24962l-1.9773.25224Zm0 0c-.1918.18487-.5043.00183-.437-.25591l.0001-.00003.1663-.63574v-.00002c.0605-.23137-.0717-.46198-.2924-.52556l-.623-.17949c0-.00001 0-.00003-.0001-.00004-.2653-.07638-.2412-.43735.0018-.50708 0 0 .0001-.00001.0001-.00002l.6276-.18014.5566 2.28403Zm2.7676-2.10583-.623-.17949c-.2207-.06358-.3529-.29419-.2924-.52556v-.00002l.1664-.63574v-.00003c.0674-.25774-.2452-.440778-.437-.255914v.000021l-.4731.456083c-.1722.166-.438.16353-.6014.00212l-.0001-.00001-.4613-.455554V.765615c-.1967-.19421-.4995.003734-.4414.249625l3.1633 1.34451Zm0 0c0 .00001.0001.00002.0001.00003l-.0001-.00003ZM29.19 3.57774l.1499.63553.7334-1.53864.0552.19223-.0001.00002-.6276.18015c-.2272.06522-.3651.30065-.3108.5307v.00001Zm-2.0732-1.9269-.1499-.63553-.1609 1.16624c.2272-.06523.3651-.30065.3108-.53071Zm2.9014.83153c-.0001.00002-.0001.00004-.0002.00007l.0002-.00005v-.00002ZM69.3247 17.8714l.2596-.9596c.1087-.4017.5094-.6389.9022-.5429l.9528.2328c.3001.0734.48-.2912.281-.4959l-2.3956 1.7656Zm0 0c-.0783.289-.4848.2929-.5686.0055l-.2781-.9544c-.1165-.3995-.5217-.6289-.9126-.5253m1.7593 1.4742-1.7593-1.4742m3.84-3.2834c.2985-.0793.4858.2817.2907.4903l-.6746.7216.4353-1.0186m-.0514-.1933.0514.1933m-.0514-.1933h.0001l.0513.1933m-.0514-.1933-.948.2511c-.3909.1036-.796-.1258-.9125-.5253m1.9119.4675-.9482.2511c-.4981.132-1.0096-.1613-1.1557-.6626m.192-.056-.192.056m.192-.056-.192.056m.192-.056-.2782-.9543v-.0001c-.0838-.2874-.4903-.2835-.5685.0055v.0001l-.2597.9595.1931.0522-.1931-.0522.6362-.9091.2782.9544m-1.7875 3.5016-.948.2511m.948-.2511-.948.2511m0 0c-.2984.0793-.4858-.2817-.2907-.4903h.0001l.6746-.7215-.384 1.2118Zm4.4144-1.2509.6885.7084-.6988-1.7801c-.2816.3011-.277.7761.0103 1.0717Zm-4.4482-2.237-.0475.1943.0474-.1943h.0001Zm.4074 1.2043-.6884-.7083.6988 1.78c.2815-.3011.2769-.7761-.0104-1.0717ZM28.2915 45.9531v-.0001l.1709-.6318c.0621-.2295.2901-.3631.5119-.3089l.6273.1532s.0001 0 .0001.0001c.2682.0655.4261-.2596.2502-.4405l-1.5604 1.228Zm0 0c-.0696.2569-.4314.2604-.5059.0049v-.0001l-.1832-.6283c-.0665-.2283-.297-.3575-.5177-.299h-.0001l-.6241.1653m1.831.7572-1.831-.7572m0 0c-.0001 0-.0001 0-.0001.0001l.0001-.0001Zm2.9381-.9372.4533.4663-.4593-1.0778c-.1604.1717-.1578.4429.006.6114v.0001Zm.4382-1.0865-.4441.475-3.2061-.4398c-.1759-.1809-.018-.506.2503-.4404l.6273.1532c.2219.0542.4498-.0794.5119-.3089l.171-.6318c.0695-.2569.4313-.2604.5058-.0049h.0001l.1831.6283v.0001c.0666.2282.2971.3574.5178.2989l.6241-.1653h.0002c.2666-.0707.4312.251.2587.4355 0 0-.0001 0-.0001.0001Zm-3.1968.5017-.4533-.4664.161 1.6895-.146-.1366.4442-.4751c.1605-.1717.1578-.4429-.0059-.6114Zm-.2981-.5184.0001.0001-.0001-.0001Zm3.3548 1.6215c-.0001 0-.0002 0-.0002-.0001l.0001.0001h.0001Z" stroke="#fff" stroke-width=".4" stroke-miterlimit="10"/>
  <defs>
    <linearGradient id="b" x1="48.7066" y1="12.7281" x2="27.547" y2="36.9788" gradientUnits="userSpaceOnUse">
      <stop stop-color="#9D7CBF"/>
      <stop offset=".6" stop-color="#FD0189"/>
      <stop offset=".97" stop-color="#FD5C3F"/>
    </linearGradient>
  </defs>
</svg>
