<svg fill="none" xmlns="http://www.w3.org/2000/svg" viewBox="0 0 57 62">
  <path d="M56.4154 33.0485c0 15.3763-12.4652 27.8415-27.8415 27.8415S.732422 48.4248.732422 33.0485c0-3.8056.513948-9.0761 1.895658-12.3801C6.83093 10.6221 17.0026 5.20703 28.5739 5.20703c12.215 0 22.7479 5.91787 26.4982 16.86107.9708 2.8323 1.3433 7.8191 1.3433 10.9804Z" fill="#FD4301" stroke="#000" stroke-width="1.14559" stroke-miterlimit="10"/>
  <path d="M28.1497 55.8462c15.0644 0 27.2766-12.2121 27.2766-27.2766 0-15.0645-12.2122-27.27663-27.2766-27.27663C13.0852 1.29297.873047 13.5051.873047 28.5696S13.0852 55.8462 28.1497 55.8462Z" fill="url(#a)" stroke="#000" stroke-width="1.14559" stroke-miterlimit="10"/>
  <path d="m29.2695 28.4266 9.4534-7.2489v14.4978l-9.4534-7.2489Z" fill="#FD4301"/>
  <rect x="17.666" y="20.668" width="14.8083" height="15.5" rx="2.58333" fill="#fff"/>
  <rect x="20.334" y="23.5117" width="2.58333" height="2.58333" rx="1.29167" fill="#FD4301"/>
  <rect x="24.623" y="23.8242" width="4.64681" height="1.95642" rx=".97821" fill="#FD4301"/>
  <path fill-rule="evenodd" clip-rule="evenodd" d="M19.4686 20.0627c-1.8285 0-3.3109 1.4843-3.3109 3.3153v10.0942c0 1.831 1.4824 3.3153 3.3109 3.3153h11.0997c1.741 0 3.1681-1.3455 3.3008-3.0547l2.4236 2.1673c1.3716 1.2265 3.5462.2517 3.5462-1.5896V22.5413c0-1.8413-2.1746-2.8161-3.5462-1.5896l-2.4235 2.1672c-.1319-1.71-1.5595-3.0562-3.3009-3.0562H19.4686Zm12.5186 5.1107v-1.7955c0-.7847-.6352-1.4207-1.4189-1.4207H19.4686c-.7837 0-1.4189.6361-1.4189 1.4208v10.0942c0 .7848.6352 1.4209 1.4189 1.4209h11.0997c.7836 0 1.4189-.6361 1.4189-1.4209v-1.7938c-.0138-.2422.0648-.4896.2389-.6849.348-.3902.946-.424 1.3357-.0755l3.9912 3.5691c.1524.1363.394.028.394-.1766V22.5413c0-.2046-.2416-.3129-.394-.1767l-3.9912 3.5692c-.3897.3485-.9877.3147-1.3357-.0755-.1741-.1953-.2527-.4427-.2389-.6849Z" fill="#F0F0F4"/>
  <defs>
    <linearGradient id="a" x1="48.4197" y1="10.3175" x2="7.87904" y2="46.821" gradientUnits="userSpaceOnUse">
      <stop stop-color="#9D7CBF"/>
      <stop offset=".6" stop-color="#FD0189"/>
      <stop offset=".97" stop-color="#FD5C3F"/>
    </linearGradient>
  </defs>
</svg>
