<svg width="64" height="64" viewBox="0 0 64 64" fill="none" xmlns="http://www.w3.org/2000/svg">
<circle cx="32" cy="33" r="28" fill="#CC1800"/>
<circle cx="32" cy="31" r="28" fill="url(#paint0_linear_3865_2376)"/>
<circle cx="32" cy="31" r="28" fill="#660C00" fill-opacity="0.1"/>
<circle cx="32" cy="31" r="21" fill="url(#paint1_linear_3865_2376)"/>
<path d="M53 31C53 19.402 43.598 10 32 10C20.402 10 11 19.402 11 31C11 42.598 20.402 52 32 52C43.598 52 53 42.598 53 31ZM54 31C54 43.1503 44.1503 53 32 53C19.8497 53 10 43.1503 10 31C10 18.8497 19.8497 9 32 9C44.1503 9 54 18.8497 54 31Z" fill="#CC1800"/>
<path d="M32 10C43.598 10 53 19.402 53 31C53 31.1671 52.997 31.3338 52.9932 31.5C52.7276 20.133 43.4308 11 32 11C20.5691 11 11.2715 20.133 11.0059 31.5C11.002 31.3338 11 31.1671 11 31C11 19.402 20.402 10 32 10Z" fill="#FF7433"/>
<path d="M32 3C47.464 3 60 15.536 60 31C60 31.167 59.9961 31.3337 59.9932 31.5C59.7264 16.2667 47.2969 4 32 4C16.703 4 4.27262 16.2667 4.00586 31.5C4.00295 31.3337 4 31.167 4 31C4 15.536 16.536 3 32 3Z" fill="#FF7433"/>
<path d="M34.4795 23.9346C36.1587 23.9348 37.5335 25.233 37.6611 26.8818L39.999 24.791C41.3219 23.6081 43.4199 24.5493 43.4199 26.3252V37.6758C43.4197 39.4516 41.3218 40.3919 39.999 39.209L37.6611 37.1172C37.5339 38.7663 36.159 40.0652 34.4795 40.0654H23.7734C22.01 40.0653 20.5803 38.6339 20.5801 36.8682V27.1318C20.5803 25.3661 22.01 23.9347 23.7734 23.9346H34.4795ZM24.8545 27C24.1652 27.0001 23.6064 27.5606 23.6064 28.25C23.6066 28.9392 24.1653 29.4999 24.8545 29.5C25.5438 29.4999 26.1024 28.9393 26.1025 28.25C26.1025 27.5606 25.5438 27.0001 24.8545 27ZM29.1738 27.25C28.6225 27.2503 28.1758 27.6979 28.1758 28.25C28.1758 28.8021 28.6225 29.2497 29.1738 29.25H31.7842C32.3357 29.25 32.7832 28.8023 32.7832 28.25C32.7832 27.6977 32.3357 27.25 31.7842 27.25H29.1738Z" fill="#CC1800"/>
<path d="M40.332 38.8359C41.3005 39.702 42.8209 39.0635 42.915 37.7998L42.9199 37.6758V26.3252C42.9199 24.9797 41.3315 24.2703 40.332 25.1641L37.2402 27.9287L37.1631 26.9209C37.0621 25.6164 36.0353 24.5726 34.7412 24.4473L34.4795 24.4346H23.7734C22.2868 24.4347 21.0803 25.6417 21.0801 27.1318V36.8682L21.0938 37.1436C21.2317 38.5042 22.3795 39.5653 23.7734 39.5654H34.4795L34.7412 39.5527C36.0353 39.4274 37.0622 38.3837 37.1631 37.0791L37.2402 36.0703L40.332 38.8359ZM25.6025 28.25C25.6025 27.8617 25.3074 27.5423 24.9307 27.5039L24.8545 27.5C24.4422 27.5001 24.1064 27.8359 24.1064 28.25L24.1104 28.3262C24.1486 28.7045 24.468 28.9999 24.8545 29L24.9307 28.9961C25.3072 28.9577 25.6024 28.6383 25.6025 28.25ZM32.2832 28.25C32.2832 28.0081 32.1118 27.8064 31.8848 27.7598L31.7842 27.75H29.1738C28.8994 27.7503 28.6758 27.9733 28.6758 28.25C28.6758 28.5267 28.8994 28.7497 29.1738 28.75H31.7842L31.8848 28.7402C32.1118 28.6936 32.2832 28.4919 32.2832 28.25ZM26.6025 28.25C26.6024 29.1541 25.9155 29.9014 25.0332 29.9912L24.8545 30C23.8882 29.9998 23.1066 29.2143 23.1064 28.25C23.1064 27.2854 23.8882 26.5002 24.8545 26.5L25.0332 26.5088C25.9155 26.5986 26.6025 27.3456 26.6025 28.25ZM33.2832 28.25C33.2832 29.078 32.6122 29.75 31.7842 29.75H29.1738C28.3457 29.7496 27.6758 29.0775 27.6758 28.25C27.6758 27.4225 28.3457 26.7504 29.1738 26.75H31.7842C32.6122 26.75 33.2832 27.422 33.2832 28.25ZM43.9199 37.6758C43.9197 39.8822 41.3119 41.0534 39.666 39.582L37.9707 38.0654C37.4739 39.5188 36.1008 40.5652 34.4795 40.5654H23.7734C21.7333 40.5653 20.0803 38.9094 20.0801 36.8682V27.1318C20.0803 25.0906 21.7333 23.4347 23.7734 23.4346H34.4795C36.1001 23.4348 37.4734 24.48 37.9707 25.9326L39.666 24.418C41.3123 22.9463 43.9199 24.119 43.9199 26.3252V37.6758Z" fill="#CC1800"/>
<path d="M34.4795 21.9346C36.1587 21.9348 37.5335 23.233 37.6611 24.8818L39.999 22.791C41.3219 21.6081 43.4199 22.5493 43.4199 24.3252V35.6758C43.4197 37.4516 41.3218 38.3919 39.999 37.209L37.6611 35.1172C37.5339 36.7663 36.159 38.0652 34.4795 38.0654H23.7734C22.01 38.0653 20.5803 36.6339 20.5801 34.8682V25.1318C20.5803 23.3661 22.01 21.9347 23.7734 21.9346H34.4795ZM24.8545 25C24.1652 25.0001 23.6055 25.5606 23.6055 26.25C23.6056 26.9392 24.1653 27.4999 24.8545 27.5C25.5438 27.4999 26.1024 26.9393 26.1025 26.25C26.1025 25.5606 25.5438 25.0001 24.8545 25ZM29.1738 25.25C28.6225 25.2503 28.1758 25.6979 28.1758 26.25C28.1758 26.8021 28.6225 27.2497 29.1738 27.25H31.7842C32.3357 27.25 32.7832 26.8023 32.7832 26.25C32.7832 25.6977 32.3357 25.25 31.7842 25.25H29.1738Z" fill="white"/>
<path d="M40.332 36.8359C41.3005 37.702 42.8209 37.0635 42.915 35.7998L42.9199 35.6758V24.3252C42.9199 22.9797 41.3315 22.2703 40.332 23.1641L37.2402 25.9287L37.1631 24.9209C37.0621 23.6164 36.0353 22.5726 34.7412 22.4473L34.4795 22.4346H23.7734C22.2868 22.4347 21.0803 23.6417 21.0801 25.1318V34.8682L21.0938 35.1436C21.2317 36.5042 22.3795 37.5653 23.7734 37.5654H34.4795L34.7412 37.5527C36.0353 37.4274 37.0622 36.3837 37.1631 35.0791L37.2402 34.0703L40.332 36.8359ZM25.6025 26.25C25.6025 25.8617 25.3074 25.5423 24.9307 25.5039L24.8545 25.5C24.4417 25.5001 24.1055 25.8364 24.1055 26.25L24.1094 26.3262C24.1478 26.7041 24.4675 26.9999 24.8545 27L24.9307 26.9961C25.3072 26.9577 25.6024 26.6383 25.6025 26.25ZM32.2832 26.25C32.2832 26.0081 32.1118 25.8064 31.8848 25.7598L31.7842 25.75H29.1738C28.8994 25.7503 28.6758 25.9733 28.6758 26.25C28.6758 26.5267 28.8994 26.7497 29.1738 26.75H31.7842L31.8848 26.7402C32.1118 26.6936 32.2832 26.4919 32.2832 26.25ZM26.6025 26.25C26.6024 27.1541 25.9155 27.9014 25.0332 27.9912L24.8545 28C23.8887 27.9998 23.1057 27.2148 23.1055 26.25C23.1055 25.2849 23.8887 24.5002 24.8545 24.5L25.0332 24.5088C25.9155 24.5986 26.6025 25.3456 26.6025 26.25ZM33.2832 26.25C33.2832 27.078 32.6122 27.75 31.7842 27.75H29.1738C28.3457 27.7496 27.6758 27.0775 27.6758 26.25C27.6758 25.4225 28.3457 24.7504 29.1738 24.75H31.7842C32.6122 24.75 33.2832 25.422 33.2832 26.25ZM43.9199 35.6758C43.9197 37.8822 41.3119 39.0534 39.666 37.582L37.9707 36.0654C37.4739 37.5188 36.1008 38.5652 34.4795 38.5654H23.7734C21.7333 38.5653 20.0803 36.9094 20.0801 34.8682V25.1318C20.0803 23.0906 21.7333 21.4347 23.7734 21.4346H34.4795C36.1001 21.4348 37.4734 22.48 37.9707 23.9326L39.666 22.418C41.3123 20.9463 43.9199 22.119 43.9199 24.3252V35.6758Z" fill="#CC1800"/>
<defs>
<linearGradient id="paint0_linear_3865_2376" x1="18.4516" y1="2.99999" x2="23.9294" y2="58.459" gradientUnits="userSpaceOnUse">
<stop stop-color="#FF5601"/>
<stop offset="1" stop-color="#FF1F01"/>
</linearGradient>
<linearGradient id="paint1_linear_3865_2376" x1="21.8387" y1="10" x2="25.947" y2="51.5942" gradientUnits="userSpaceOnUse">
<stop stop-color="#FF5601"/>
<stop offset="1" stop-color="#FF1F01"/>
</linearGradient>
</defs>
</svg>
