<svg width="64" height="64" viewBox="0 0 64 64" fill="none" xmlns="http://www.w3.org/2000/svg">
<circle cx="32" cy="33" r="28" fill="#CC1800"/>
<circle cx="32" cy="31" r="28" fill="url(#paint0_linear_3865_2429)"/>
<circle cx="32" cy="31" r="28" fill="#660C00" fill-opacity="0.1"/>
<circle cx="32" cy="31" r="21" fill="url(#paint1_linear_3865_2429)"/>
<path d="M53 31C53 19.402 43.598 10 32 10C20.402 10 11 19.402 11 31C11 42.598 20.402 52 32 52C43.598 52 53 42.598 53 31ZM54 31C54 43.1503 44.1503 53 32 53C19.8497 53 10 43.1503 10 31C10 18.8497 19.8497 9 32 9C44.1503 9 54 18.8497 54 31Z" fill="#CC1800"/>
<path d="M32 10C43.598 10 53 19.402 53 31C53 31.1671 52.997 31.3338 52.9932 31.5C52.7276 20.133 43.4308 11 32 11C20.5691 11 11.2715 20.133 11.0059 31.5C11.002 31.3338 11 31.1671 11 31C11 19.402 20.402 10 32 10Z" fill="#FF7433"/>
<path d="M32 3C47.464 3 60 15.536 60 31C60 31.167 59.9961 31.3337 59.9932 31.5C59.7264 16.2667 47.2969 4 32 4C16.703 4 4.27262 16.2667 4.00586 31.5C4.00295 31.3337 4 31.167 4 31C4 15.536 16.536 3 32 3Z" fill="#FF7433"/>
<path d="M31.0258 20.2448C31.6463 19.9718 32.3545 19.9717 32.975 20.2448L41.3754 23.9421C42.242 24.3236 42.8002 25.1748 42.8002 26.114V31.6999C42.8001 38.2954 38.1924 44.4631 32.0004 45.9606C25.8082 44.4632 21.1997 38.2956 21.1996 31.6999V26.114C21.1996 25.1747 21.7586 24.3236 22.6254 23.9421L31.0258 20.2448Z" fill="#CC1800"/>
<path d="M31.0258 20.2448L30.8244 19.7872L30.8243 19.7872L31.0258 20.2448ZM32.975 20.2448L32.7736 20.7025L32.7736 20.7025L32.975 20.2448ZM41.3754 23.9421L41.5768 23.4845L41.5768 23.4845L41.3754 23.9421ZM42.8002 31.6999L43.3002 31.6999V31.6999H42.8002ZM32.0004 45.9606L31.8828 46.4466L32.0004 46.4751L32.1179 46.4466L32.0004 45.9606ZM21.1996 31.6999H20.6996V31.6999L21.1996 31.6999ZM22.6254 23.9421L22.4239 23.4845L22.4239 23.4845L22.6254 23.9421ZM31.0258 20.2448L31.2271 20.7025C31.7194 20.4859 32.2815 20.4859 32.7736 20.7025L32.975 20.2448L33.1764 19.7872C32.4275 19.4576 31.5732 19.4577 30.8244 19.7872L31.0258 20.2448ZM32.975 20.2448L32.7736 20.7025L41.1739 24.3997L41.3754 23.9421L41.5768 23.4845L33.1764 19.7872L32.975 20.2448ZM41.3754 23.9421L41.1739 24.3997C41.8609 24.7022 42.3002 25.375 42.3002 26.114H42.8002H43.3002C43.3002 24.9745 42.623 23.9451 41.5768 23.4845L41.3754 23.9421ZM42.8002 26.114H42.3002V31.6999H42.8002H43.3002V26.114H42.8002ZM42.8002 31.6999L42.3002 31.6999C42.3001 38.0822 37.8337 44.0354 31.8828 45.4747L32.0004 45.9606L32.1179 46.4466C38.5511 44.8908 43.3001 38.5086 43.3002 31.6999L42.8002 31.6999ZM32.0004 45.9606L32.1179 45.4746C26.1668 44.0356 21.6997 38.0823 21.6996 31.6999L21.1996 31.6999L20.6996 31.6999C20.6997 38.5088 25.4496 44.8909 31.8828 46.4466L32.0004 45.9606ZM21.1996 31.6999H21.6996V26.114H21.1996H20.6996V31.6999H21.1996ZM21.1996 26.114H21.6996C21.6996 25.3752 22.1394 24.7023 22.8268 24.3997L22.6254 23.9421L22.4239 23.4845C21.3779 23.9449 20.6996 24.9741 20.6996 26.114H21.1996ZM22.6254 23.9421L22.8268 24.3997L31.2272 20.7025L31.0258 20.2448L30.8243 19.7872L22.4239 23.4845L22.6254 23.9421Z" fill="#CC1800"/>
<path d="M31.0258 18.2448C31.6463 17.9718 32.3545 17.9717 32.975 18.2448L41.3754 21.9421C42.242 22.3236 42.8002 23.1748 42.8002 24.114V29.6999C42.8001 36.2954 38.1924 42.4631 32.0004 43.9606C25.8082 42.4632 21.1997 36.2955 21.1996 29.6999V24.114C21.1996 23.1747 21.7586 22.3236 22.6254 21.9421L31.0258 18.2448ZM33.4818 34.57C32.5485 34.0358 31.4315 34.0359 30.4906 34.57C30.0546 34.8328 29.97 35.5201 30.3295 35.9186L31.4545 37.1647C31.7528 37.4954 32.2352 37.4954 32.5336 37.1647L33.6576 35.9186C34.0172 35.5201 33.9408 34.8329 33.4818 34.57ZM36.4271 30.9577C33.7955 28.8464 30.207 28.8464 27.5677 30.9577C27.0401 31.3817 27.0095 32.2383 27.476 32.7555C27.8508 33.171 28.4403 33.2135 28.8763 32.8659C30.7429 31.399 33.2519 31.3991 35.1185 32.8659C35.5546 33.2051 36.1441 33.171 36.5189 32.7555L36.5267 32.7468C36.9855 32.238 36.9549 31.3731 36.4271 30.9577ZM39.5336 27.5573C35.1654 23.5975 28.846 23.5977 24.4701 27.5573C23.9729 27.9982 23.934 28.8298 24.3929 29.3386C24.783 29.7709 25.4029 29.8132 25.8236 29.4235C29.3962 26.1675 34.5832 26.1672 38.1635 29.4147C38.5918 29.8048 39.2196 29.771 39.6097 29.3386C40.0611 28.8383 40.0308 28.0067 39.5336 27.5573Z" fill="white"/>
<path d="M42.3002 24.1142C42.3002 23.3753 41.8611 22.7019 41.1742 22.3994L32.7738 18.7021C32.2817 18.4855 31.7192 18.4856 31.2269 18.7021L22.8265 22.3994C22.1392 22.702 21.6996 23.3755 21.6996 24.1142V29.7002C21.6998 36.0401 26.1086 41.9535 32.0004 43.4424C37.892 41.9534 42.3 36.04 42.3002 29.7002V24.1142ZM43.3002 29.7002C43.3 36.5088 38.5506 42.8904 32.1176 44.4463L32.0004 44.4746L31.8832 44.4463C25.45 42.8906 20.6998 36.509 20.6996 29.7002V24.1142C20.6996 22.9744 21.3781 21.9448 22.4242 21.4843L30.8246 17.7871C31.5732 17.4578 32.4274 17.4576 33.1761 17.7871L41.5765 21.4843C42.6227 21.9449 43.3002 22.9748 43.3002 24.1142V29.7002Z" fill="#CC1800"/>
<defs>
<linearGradient id="paint0_linear_3865_2429" x1="18.4516" y1="2.99999" x2="23.9294" y2="58.459" gradientUnits="userSpaceOnUse">
<stop stop-color="#FF5601"/>
<stop offset="1" stop-color="#FF1F01"/>
</linearGradient>
<linearGradient id="paint1_linear_3865_2429" x1="21.8387" y1="10" x2="25.947" y2="51.5942" gradientUnits="userSpaceOnUse">
<stop stop-color="#FF5601"/>
<stop offset="1" stop-color="#FF1F01"/>
</linearGradient>
</defs>
</svg>
