<svg fill="none" xmlns="http://www.w3.org/2000/svg" viewBox="0 0 62 64">
  <path d="M33.3314 1.48999c-1.4844-.65332-3.1787-.653321-4.6631 0L8.57571 10.3335c-2.07314.9125-3.40921 2.9484-3.40921 5.1951v13.3607c0 15.7762 11.0222 30.5291 25.8333 34.1107 14.8111-3.5816 25.8334-18.3345 25.8334-34.1107V15.5286c0-2.2467-1.3361-4.2826-3.4092-5.1951L33.3314 1.48999Z" fill="url(#a)" stroke="#000" stroke-width="1.5"/>
  <path d="M14.1463 28.3177c.8644.9581 2.2374 1.0521 3.1697.1878 7.9159-7.2145 19.4084-7.2145 27.3413-.0188.9492.8643 2.3392.7891 3.2037-.169 1.0001-1.1085.9323-2.9497-.1695-3.9455-9.6788-8.7739-23.68-8.7739-33.3757 0-1.1018.977-1.1866 2.8182-.1695 3.9455ZM27.2999 42.897l2.4917 2.7619c.6611.7327 1.729.7327 2.3901 0l2.4917-2.7619c.7967-.883.6272-2.4048-.3898-2.9872-2.068-1.1837-4.5428-1.1837-6.6277 0-.9662.5824-1.1527 2.1042-.356 2.9872Zm-6.3226-7.0078c.8306.9206 2.1358 1.0145 3.102.2442 4.1359-3.2503 9.6957-3.2503 13.8317 0 .9662.7515 2.2714.6764 3.1019-.2442l.017-.0188c1.017-1.1273.9492-3.0437-.2204-3.9643-5.831-4.6781-13.7808-4.6781-19.6288 0-1.1695.9394-1.2373 2.837-.2034 3.9831Z" fill="#fff"/>
  <defs>
    <linearGradient id="a" x1="54.1491" y1="58.7154" x2="-3.51236" y2="11.6277" gradientUnits="userSpaceOnUse">
      <stop offset=".026042" stop-color="#FA7250"/>
      <stop offset=".401042" stop-color="#FF1893"/>
      <stop offset=".994792" stop-color="#A78AFF"/>
    </linearGradient>
  </defs>
</svg>
