<svg width="64" height="64" viewBox="0 0 64 64" fill="none" xmlns="http://www.w3.org/2000/svg">
<circle cx="32" cy="33" r="28" fill="#303032"/>
<circle cx="32" cy="31" r="28" fill="url(#paint0_linear_3865_2530)"/>
<circle cx="32" cy="31" r="28" fill="black" fill-opacity="0.1"/>
<path d="M53 31C53 42.598 43.598 52 32 52C20.402 52 11 42.598 11 31C11 19.402 20.402 10 32 10C43.598 10 53 19.402 53 31Z" fill="url(#paint1_linear_3865_2530)"/>
<path d="M53 31C53 19.402 43.598 10 32 10C20.402 10 11 19.402 11 31C11 42.598 20.402 52 32 52C43.598 52 53 42.598 53 31ZM54 31C54 43.1503 44.1503 53 32 53C19.8497 53 10 43.1503 10 31C10 18.8497 19.8497 9 32 9C44.1503 9 54 18.8497 54 31Z" fill="#303032"/>
<path d="M32 10C43.598 10 53 19.402 53 31C53 31.1671 52.997 31.3338 52.9932 31.5C52.7276 20.133 43.4308 11 32 11C20.5691 11 11.2715 20.133 11.0059 31.5C11.002 31.3338 11 31.1671 11 31C11 19.402 20.402 10 32 10Z" fill="#5E5E62"/>
<path d="M32 3C47.464 3 60 15.536 60 31C60 31.167 59.9961 31.3337 59.9932 31.5C59.7264 16.2667 47.2969 4 32 4C16.703 4 4.27262 16.2667 4.00586 31.5C4.00295 31.3337 4 31.167 4 31C4 15.536 16.536 3 32 3Z" fill="#5E5E62"/>
<path d="M31.0258 20.2443C31.6462 19.9714 32.3546 19.9712 32.975 20.2443L41.3754 23.9425C42.2419 24.3241 42.8002 25.1752 42.8002 26.1144V31.7003C42.8 38.2958 38.1923 44.4636 32.0004 45.9611C25.8083 44.4637 21.1998 38.2959 21.1996 31.7003V26.1144C21.1996 25.1751 21.7586 24.324 22.6254 23.9425L31.0258 20.2443Z" fill="#303032"/>
<path d="M42.3002 26.1148C42.3002 25.3759 41.8611 24.7025 41.1742 24.3999L32.7738 20.7017C32.2818 20.4852 31.7192 20.4852 31.2269 20.7017L22.8265 24.3999C22.1392 24.7025 21.6996 25.3761 21.6996 26.1148V31.7007C21.7 38.0405 26.1087 43.9541 32.0004 45.4429C37.8919 43.954 42.2998 38.0405 42.3002 31.7007V26.1148ZM30.2435 36.1353C31.3368 35.5146 32.6421 35.5138 33.7299 36.1363C34.4973 36.5759 34.5762 37.6462 34.0287 38.2534L32.9047 39.4995V39.5005C32.4078 40.051 31.5802 40.0508 31.0834 39.5005L29.9584 38.2534V38.2525C29.6694 37.9317 29.57 37.5109 29.6156 37.1333C29.6611 36.757 29.8586 36.3677 30.2328 36.1421L30.2435 36.1353ZM33.2338 37.0044C32.4572 36.56 31.5315 36.5578 30.7445 37.0015C30.6843 37.04 30.6243 37.1245 30.6088 37.2534C30.593 37.3842 30.6305 37.5057 30.7006 37.5835L31.8256 38.8306C31.9254 38.9411 32.0628 38.941 32.1625 38.8306L33.2865 37.5835L33.3392 37.5074C33.4376 37.3212 33.365 37.08 33.2338 37.0044ZM27.2552 32.5679C30.0755 30.3118 33.9213 30.3101 36.7357 32.565C37.5169 33.1799 37.5261 34.3811 36.8998 35.0786L36.8929 35.0884L36.89 35.0913C36.3305 35.7111 35.4435 35.7523 34.8119 35.2613L34.8099 35.2593C33.1254 33.9356 30.8719 33.9339 29.1869 35.2564L29.1879 35.2574C28.5491 35.7664 27.66 35.7063 27.1049 35.0913C26.4683 34.3857 26.478 33.1932 27.2543 32.5689L27.2552 32.5679ZM36.1146 33.3482C33.6663 31.3839 30.3372 31.3823 27.8802 33.3472C27.6019 33.5711 27.5507 34.0929 27.847 34.4214C28.0416 34.6369 28.3317 34.6609 28.5648 34.4751L28.5677 34.4732C30.6147 32.8647 33.3766 32.8643 35.4242 34.4712H35.4252C35.6644 34.6573 35.9547 34.6315 36.1449 34.4234L36.1527 34.4146L36.1556 34.4126C36.4446 34.0922 36.3909 33.5663 36.1176 33.3511L36.1146 33.3482ZM24.5687 28.812C29.1121 25.0594 35.453 25.1835 39.8695 29.187H39.8685C40.5772 29.8278 40.6099 30.9745 39.9808 31.6724V31.6734C39.4083 32.3076 38.464 32.3644 37.8275 31.7857L37.5052 31.5064C34.133 28.7138 29.4365 28.8069 26.1605 31.7925L26.1595 31.7915C25.5224 32.3791 24.5867 32.2991 24.0219 31.6734V31.6724C23.386 30.9668 23.425 29.8201 24.1342 29.187L24.5687 28.812ZM39.1976 29.9283C35.0203 26.1415 28.9916 26.1411 24.806 29.9283L24.7523 29.982C24.5178 30.2447 24.5016 30.7122 24.764 31.0034C24.9787 31.2412 25.2796 31.2455 25.4838 31.0562L25.4867 31.0533C29.1327 27.7303 34.388 27.6276 38.141 30.7339L38.4994 31.0445L38.5004 31.0454C38.7206 31.2458 39.0311 31.2334 39.2386 31.0034C39.5114 30.7009 39.4838 30.1861 39.1986 29.9283H39.1976ZM43.3002 31.7007C43.2998 38.5092 38.5505 44.891 32.1176 46.4468L32.0004 46.4751L31.8832 46.4468C25.4501 44.8912 20.7 38.5094 20.6996 31.7007V26.1148C20.6996 24.9749 21.3781 23.9453 22.4242 23.4849L30.8246 19.7867L30.9662 19.729C31.6796 19.459 32.4742 19.4778 33.1761 19.7867L41.5765 23.4849C42.6226 23.9455 43.3002 24.9754 43.3002 26.1148V31.7007Z" fill="#303032"/>
<path d="M31.0258 18.2446C31.6462 17.9716 32.3545 17.9715 32.975 18.2446L41.3754 21.9418C42.2419 22.3233 42.8001 23.1745 42.8002 24.1137V29.6996C42.8002 36.2952 38.1924 42.4628 32.0004 43.9604C25.8081 42.463 21.1996 36.2953 21.1996 29.6996V24.1137C21.1997 23.1745 21.7587 22.3233 22.6254 21.9418L31.0258 18.2446ZM33.4818 34.5697C32.5486 34.0357 31.4315 34.0357 30.4906 34.5697C30.0546 34.8326 29.9702 35.5198 30.3295 35.9184L31.4545 37.1645C31.7528 37.4952 32.2352 37.4952 32.5336 37.1645L33.6576 35.9184C34.0172 35.5198 33.9408 34.8326 33.4818 34.5697ZM36.4271 30.9584C33.7954 28.847 30.2071 28.847 27.5677 30.9584C27.0405 31.3824 27.0098 32.2382 27.476 32.7553C27.8508 33.1708 28.4403 33.2133 28.8763 32.8656C30.7429 31.3989 33.2519 31.399 35.1185 32.8656C35.5546 33.2048 36.1441 33.1708 36.5189 32.7553L36.5267 32.7475C36.9857 32.2388 36.9548 31.374 36.4271 30.9584ZM39.5336 27.558C35.1653 23.5981 28.846 23.5981 24.4701 27.558C23.9729 27.9989 23.9342 28.8295 24.3929 29.3383C24.783 29.7707 25.4028 29.8131 25.8236 29.4233C29.3962 26.1672 34.5832 26.1671 38.1635 29.4145C38.5919 29.8045 39.2196 29.7708 39.6097 29.3383C40.0609 28.8381 40.0304 28.0075 39.5336 27.558Z" fill="white"/>
<path d="M42.3002 24.114C42.3001 23.375 41.861 22.7015 41.1742 22.3991L32.7738 18.7019C32.2818 18.4853 31.7192 18.4853 31.2269 18.7019L22.8265 22.3991C22.1393 22.7016 21.6997 23.3753 21.6996 24.114V29.6999C21.6997 36.0399 26.1085 41.9532 32.0004 43.4421C37.892 41.9531 42.3 36.0398 42.3002 29.6999V24.114ZM43.3002 29.6999C43.3 36.5086 38.5506 42.8901 32.1176 44.446L32.0004 44.4743L31.8832 44.446C25.4499 42.8903 20.6997 36.5087 20.6996 29.6999V24.114C20.6997 22.9743 21.3782 21.9445 22.4242 21.4841L30.8246 17.7868C31.5732 17.4576 32.4274 17.4573 33.1761 17.7868L41.5765 21.4841C42.6228 21.9446 43.3001 22.9747 43.3002 24.114V29.6999Z" fill="#303032"/>
<defs>
<linearGradient id="paint0_linear_3865_2530" x1="18.4516" y1="2.99999" x2="23.9294" y2="58.459" gradientUnits="userSpaceOnUse">
<stop stop-color="#525256"/>
<stop offset="1" stop-color="#464649"/>
</linearGradient>
<linearGradient id="paint1_linear_3865_2530" x1="21.8387" y1="10" x2="25.947" y2="51.5942" gradientUnits="userSpaceOnUse">
<stop stop-color="#525256"/>
<stop offset="1" stop-color="#464649"/>
</linearGradient>
</defs>
</svg>
