<svg viewBox="0 0 32 32" fill="none" xmlns="http://www.w3.org/2000/svg">
  <defs>
    <radialGradient cx="169.267%" cy="115.927%" fx="169.267%" fy="115.927%" r="205.16%" id="a">
      <stop stop-color="#FB542B" offset="0%"/>
      <stop stop-color="#A91B78" offset="45.714%"/>
      <stop stop-color="#392DD1" offset="100%"/>
    </radialGradient>
  </defs>
  <path d="M30.668 28.004v2.664c0 .735-.596 1.332-1.334 1.332H17.336a1.333 1.333 0 0 1-1.334-1.332v-3.996c0-.735.597-1.332 1.334-1.332v-1.332h-1.334a1.332 1.332 0 0 1-1.332-1.332V18.68c0-.735.596-1.332 1.332-1.332h11.999c.737 0 1.333.597 1.333 1.332v2.664h1.334c.736 0 1.332.597 1.332 1.332v3.996c0 .735-.596 1.332-1.332 1.332zm-11.999 1.332h9.332v-1.332h-9.332v1.332zm7.998-9.324h-9.331v1.332h9.331v-1.332zm2.667 3.996h-9.331v1.332h9.331v-1.332zm-6.578-8.8c-1.728-2.338-3.812-3.898-4.63-4.604H9.8c-2.287 1.965-7.14 6.643-7.14 10.68 0 5.132 2.83 8.052 8.01 8.052h1.334c.735 0 1.334.609 1.334 1.332 0 .723-.6 1.332-1.334 1.332h-1.333C4 32 0 27.881 0 21.284c0-5.219 5.443-10.418 7.602-12.282-1.001-1.668-2.605-4.777-2.187-6.864.156-.78.576-1.41 1.21-1.822C8.075-.621 9.32.87 10.068 1.76c.108.126.247.293.384.447l.016-.028c.461-.808 1.233-2.164 2.86-2.164 1.438 0 2.173.694 2.611 1.11.054.048.102.1.154.144.488-.017.69-.153 1.07-.407C17.708.5 18.452 0 19.834 0c1.075 0 1.985.662 2.433 1.769.705 1.745.27 4.8-1.74 7.342 1.094.898 2.845 2.479 4.38 4.557a1.295 1.295 0 0 1-.293 1.829 1.34 1.34 0 0 1-1.858-.288zM19.737 2.622c-.493.016-.696.152-1.079.408-.544.364-1.288.862-2.67.862-.96 0-1.542-.549-1.889-.877-.308-.291-.403-.38-.77-.38-.111.073-.391.564-.542.828-.393.693-.99 1.738-2.202 1.738-1.054 0-1.801-.86-2.519-1.714.256 1.233 1.192 3.151 2.031 4.5h7.872c1.403-1.496 1.956-3.284 1.959-4.394.001-.55-.12-.855-.19-.97z" fill="url(#a)" fill-rule="nonzero"/>
</svg>
