<svg width="72" height="72" fill="none" xmlns="http://www.w3.org/2000/svg">
  <path fill-rule="evenodd" clip-rule="evenodd" d="M65.4545 36c0 16.2673-13.1872 29.4545-29.4545 29.4545S6.54546 52.2673 6.54546 36 19.7327 6.54545 36 6.54545C52.2673 6.54545 65.4545 19.7327 65.4545 36ZM36 72c19.8822 0 36-16.1177 36-36S55.8823-.0000014 36-.00000315C16.1178-.00000489.00000489 16.1177.00000315 36 .0000014 55.8822 16.1177 72 36 72Zm-4.1345-24.1667c0-2.284 1.8515-4.1355 4.1355-4.1355 2.2839 0 4.1354 1.8515 4.1354 4.1355 0 2.2839-1.8515 4.1354-4.1354 4.1354-2.284 0-4.1355-1.8515-4.1355-4.1354Zm4.1355-7.2103c-1.7397 0-3.15-1.4103-3.15-3.15V20.9312c0-1.7397 1.4103-3.15 3.15-3.15 1.7397 0 3.15 1.4103 3.15 3.15V37.473c0 1.7397-1.4103 3.15-3.15 3.15Z" fill="url(#a)"/>
  <defs>
    <linearGradient id="a" x1=".00000513" y1="-.00001475" x2="80.257" y2="58.1958" gradientUnits="userSpaceOnUse">
      <stop stop-color="#BF14A2"/>
      <stop offset="1" stop-color="#F73A1C"/>
    </linearGradient>
  </defs>
</svg>
