<svg viewBox="0 0 32 32" fill="none" xmlns="http://www.w3.org/2000/svg">
  <defs>
    <radialGradient cx="169.267%" cy="115.927%" fx="169.267%" fy="115.927%" r="205.16%" id="a">
      <stop stop-color="#FB542B" offset="0%"/>
      <stop stop-color="#A91B78" offset="45.714%"/>
      <stop stop-color="#392DD1" offset="100%"/>
    </radialGradient>
  </defs>
  <path d="M24.616615 32.76923c-4.072615 0-7.385846-3.313001-7.385846-7.384565s3.313231-7.384566 7.385846-7.384566C28.688 18.000099 32 21.3131 32 25.384665s-3.312 7.384566-7.383385 7.384566Zm0-12.307198c-2.715076 0-4.924307 2.206612-4.924307 4.922633 0 2.714787 2.20923 4.922633 4.924307 4.922633 2.713846 0 4.921847-2.207846 4.921847-4.922633 0-2.71602-2.208-4.922633-4.921847-4.922633Zm-1.232 4.922633v-3.6929h2.461539v2.461933h2.461538v2.461933h-4.923077v-1.230966Zm4.978462-8.620467c-.690462.06784-1.276308-.439102-1.336616-1.115023-.08123-.895473-.280615-1.747776-.536615-2.57171h-3.485538c.153846.781998.280615 1.572628.334769 2.379294.04677.678388-.46523 1.265503-1.143385 1.312373-.028307.001234-.056615.002467-.084923.002467-.64123 0-1.182769-.497074-1.227077-1.14586-.059077-.868337-.199384-1.715706-.391384-2.548273H16v17.229832c0 .680855-.551385 1.230966-1.23077 1.230966C6.62523 31.538264 0 24.913494 0 16.769132 0 8.624771 6.62523 2 14.76923 2c7.696 0 14.019693 5.772469 14.708924 13.42839.061538.675922-.438154 1.274137-1.115077 1.335808ZM13.53846 22.922732H9.832615c.841846 2.068468 2.092308 3.971655 3.705846 5.583753v-5.583753ZM9.872 28.055048c-1.154462-1.57016-2.052923-3.301901-2.681846-5.132316h-3.03877c1.316924 2.258416 3.305847 4.080197 5.720616 5.132316ZM2.461538 16.769132c0 1.287705.203077 2.526072.571077 3.6929h3.500308c-.24-1.207532-.379077-2.440965-.379077-3.690433 0-1.251935.139077-2.485368.380308-3.694133H3.032615c-.368 1.165594-.571077 2.405195-.571077 3.691666Zm1.689847-6.1536h3.04123c.628923-1.830415 1.529847-3.563389 2.685539-5.134783-2.418462 1.052119-4.409846 2.8739-5.72677 5.134784ZM13.53846 5.03918c-1.611076 1.610864-2.862769 3.511585-3.703384 5.576353h3.703385V5.03918Zm-4.48 8.038286c-.281846 1.202597-.443076 2.437264-.443076 3.694133 0 1.254402.16123 2.489069.441846 3.690433h4.48123v-7.384566h-4.48ZM16 10.615533h3.71323C18.873847 8.54583 17.625847 6.64511 16 5.025613v5.58992Zm3.645539-5.152052c1.166769 1.573861 2.055384 3.314236 2.688 5.152052h3.097846C24.112 8.321346 22.088615 6.506966 19.645539 5.46348Z" fill="url(#a)" fill-rule="nonzero"/>
</svg>
