<svg width="121" height="157" viewBox="0 0 121 157" fill="none" xmlns="http://www.w3.org/2000/svg">
<g clip-path="url(#clip0_1206_4419)">
<g filter="url(#filter0_d_1206_4419)">
<path fill-rule="evenodd" clip-rule="evenodd" d="M83.7686 95.681L98.2351 91.8047L107.184 125.204L107.184 125.204H107.185L105.045 185.817H94.3473L92.2879 127.476L83.7686 95.681Z" fill="black"/>
<path d="M85.333 96.8672L70.3562 96.8672L72.4957 185.819H83.1935L85.333 96.8672Z" fill="black"/>
<path fill-rule="evenodd" clip-rule="evenodd" d="M51.582 118.212L37.1155 114.336L28.1661 147.736L28.1667 147.736H28.166L30.3056 208.349H41.0033L43.0627 150.007L51.582 118.212Z" fill="#2F347A"/>
<path d="M50.5527 119.398L65.5296 119.398L63.39 206.211H52.6923L50.5527 119.398Z" fill="#2F347A"/>
<path d="M-6.85806 113.216C-6.9539 110.101 -4.45456 107.523 -1.33783 107.523H2.55019C5.66692 107.523 8.16626 110.101 8.07041 113.216L5.63415 192.401C5.55057 195.118 3.32413 197.277 0.606178 197.277C-2.11178 197.277 -4.33821 195.118 -4.42179 192.401L-6.85806 113.216Z" fill="#431268"/>
<path d="M10.5667 113.216C10.4709 110.101 12.9702 107.523 16.087 107.523H19.975C23.0917 107.523 25.5911 110.101 25.4952 113.216L23.059 192.401C22.9754 195.118 20.7489 197.277 18.031 197.277C15.313 197.277 13.0866 195.118 13.003 192.401L10.5667 113.216Z" fill="#431268"/>
<circle cx="9.29246" cy="36.6411" r="14.5356" fill="#212529"/>
<path d="M3.45688 47.7773H15.1282C15.1282 47.7773 15.1543 53.051 16.0914 56.2066C17.274 60.1893 21.6183 64.6359 21.6183 64.6359H-3.0332C-3.0332 64.6359 0.460181 59.4985 1.72745 56.2066C2.99472 52.9148 3.45688 47.7773 3.45688 47.7773Z" fill="#F1DDCE"/>
<path d="M9.29245 52.891C2.84058 52.891 -2.3897 42.9309 -2.3897 36.479C-2.3897 30.0272 2.84058 24.7969 9.29246 24.7969C15.7443 24.7969 20.9746 30.0272 20.9746 36.479C20.9746 42.9309 15.7443 52.891 9.29245 52.891Z" fill="#F6E5D9"/>
<path d="M-13.0452 67.239C-13.536 62.6371 -9.92906 58.625 -5.30098 58.625H23.8871C28.5152 58.625 32.1221 62.6371 31.6313 67.239L26.8025 112.516C26.3802 116.475 23.0398 119.478 19.0583 119.478H-0.472134C-4.45367 119.478 -7.79407 116.475 -8.21631 112.516L-13.0452 67.239Z" fill="#662D91"/>
<path fill-rule="evenodd" clip-rule="evenodd" d="M27.1022 116.204C26.5569 116.152 26.1051 115.822 25.8745 115.367C25.6346 115.528 25.3396 115.611 25.0294 115.582C24.3157 115.514 23.7916 114.881 23.8589 114.168L24.1763 110.798C24.1794 110.765 24.1837 110.733 24.1891 110.701C24.4643 108.638 26.3238 107.145 28.4139 107.341C30.555 107.543 32.1272 109.442 31.9255 111.584C31.848 112.406 31.5198 113.145 31.0235 113.732C31.0231 113.776 31.0209 113.82 31.0166 113.865C30.937 114.71 30.1873 115.331 29.342 115.252C29.1211 115.231 28.9156 115.164 28.7339 115.062C28.5473 115.779 27.8635 116.275 27.1022 116.204Z" fill="#F1DDCE"/>
<path fill-rule="evenodd" clip-rule="evenodd" d="M7.81683 31.2849C11.4012 31.2849 14.3069 28.3791 14.3069 24.7948C14.3069 21.2104 11.4012 18.3047 7.81683 18.3047C5.23264 18.3047 3.00121 19.815 1.9571 22.0011C1.41469 21.8541 0.844079 21.7757 0.255145 21.7757C-3.32923 21.7757 -6.23494 24.6814 -6.23494 28.2658C-6.23494 28.8059 -6.16896 29.3306 -6.04462 29.8323C-8.65662 30.6718 -10.5469 33.1213 -10.5469 36.0123C-10.5469 39.5967 -7.64117 42.5024 -4.05679 42.5024C-0.472415 42.5024 2.4333 39.5967 2.4333 36.0123C2.4333 35.4722 2.36731 34.9475 2.24297 34.4458C3.95131 33.8967 5.35092 32.6589 6.11487 31.0594C6.65728 31.2064 7.2279 31.2849 7.81683 31.2849Z" fill="#212529"/>
<path d="M35.851 85.9299C36.3303 82.9671 34.2051 80.2162 31.2173 79.932L30.683 79.8812C27.6741 79.5949 25.0577 81.9293 25.0002 84.9512L24.536 109.366C24.499 111.312 25.9641 112.96 27.9013 113.151C29.8632 113.345 31.6372 111.979 31.952 110.033L35.851 85.9299Z" fill="#F1DDCE"/>
<path d="M25.091 66.1242L30.0128 84.4932" stroke="#662D91" stroke-width="12.9802" stroke-linecap="round"/>
<path fill-rule="evenodd" clip-rule="evenodd" d="M16.0524 56.0691C14.148 55.6343 11.8259 55.3789 9.31994 55.3789C6.40634 55.3789 3.74131 55.7241 1.69234 56.2953C1.41059 57.0118 1.02792 57.8109 0.601548 58.623H-2.26509C-2.34651 58.8038 -2.38867 58.9887 -2.38867 59.1768C-2.38867 61.2743 2.85345 62.9747 9.31994 62.9747C15.7864 62.9747 21.0286 61.2743 21.0286 59.1768C21.0286 58.9887 20.9864 58.8038 20.905 58.623H17.1274C16.695 57.8247 16.3294 57.0052 16.0916 56.2044C16.0784 56.1598 16.0653 56.1147 16.0524 56.0691Z" fill="#F1DDCE"/>
<path d="M-9.09824 106.638C-3.25405 110.013 4.22052 108.007 7.59691 102.159C10.9733 96.311 8.97279 88.8351 3.12861 85.4609C-2.71558 82.0868 -10.1902 84.0922 -13.5665 89.9403C-16.9429 95.7884 -14.9424 103.264 -9.09824 106.638Z" fill="#FF5000"/>
<path d="M-8.44303 105.506C-10.3128 104.428 -11.8202 102.819 -12.7757 100.883C-13.7306 98.9475 -14.0906 96.7713 -13.8085 94.63C-13.5272 92.489 -12.6177 90.4797 -11.1945 88.8548C-9.77108 87.2308 -7.89907 86.0649 -5.81392 85.5045C-3.72907 84.9447 -1.52475 85.0155 0.519209 85.7087C2.56262 86.4017 4.35485 87.6856 5.66868 89.3982C6.98251 91.1108 7.75895 93.1744 7.89954 95.3293C8.04045 97.4838 7.53925 99.6322 6.45941 101.503C5.00998 104.007 2.62667 105.834 -0.166507 106.585C-2.95968 107.335 -5.93641 106.947 -8.44303 105.506ZM2.15711 87.1456C0.395931 86.1273 -1.62724 85.6546 -3.65732 85.7876C-5.68795 85.9202 -7.63326 86.6521 -9.24762 87.8912C-10.8625 89.13 -12.0744 90.8202 -12.7288 92.7473C-13.384 94.6746 -13.4523 96.7525 -12.9264 98.7179C-12.4005 100.683 -11.3037 102.449 -9.77387 103.79C-8.24491 105.131 -6.35143 105.988 -4.3343 106.252C-2.3175 106.517 -0.267323 106.177 1.55748 105.275C3.38197 104.374 4.89804 102.952 5.9148 101.188C7.27314 98.8253 7.64061 96.0206 6.9359 93.3888C6.23204 90.7568 4.51328 88.5117 2.15711 87.1456Z" fill="#FF1900"/>
<path d="M0.098195 90.7737L-10.5593 96.857L0.104158 103.014L0.098195 90.7737ZM-6.3373 96.8894L-2.04449 94.4849L-1.96784 99.383L-6.3373 96.8894Z" fill="white"/>
<path d="M-6.23285 65.4727L-19.6797 78.9198" stroke="#662D91" stroke-width="12.9802" stroke-linecap="round"/>
<path d="M78.8705 41.8555H89.9914C89.9914 41.8555 90.0163 46.2668 90.9092 48.9064C92.0361 52.2378 96.1755 55.9573 96.1755 55.9573H72.6865C72.6865 55.9573 76.0152 51.66 77.2227 48.9064C78.4302 46.1528 78.8705 41.8555 78.8705 41.8555Z" fill="#F1DDCE"/>
<path d="M84.4313 46.6758C79.0344 46.6758 74.1165 37.8015 74.1165 32.4046C74.1165 27.0078 79.0344 22.0898 84.4313 22.0898C89.8282 22.0898 94.7461 27.0078 94.7461 32.4046C94.7461 37.8015 89.8282 46.6758 84.4313 46.6758Z" fill="#F6E5D9"/>
<path d="M65.746 58.1352C65.3355 54.2857 68.3526 50.9297 72.2239 50.9297H96.6392C100.51 50.9297 103.528 54.2857 103.117 58.1352L99.0778 96.0083C98.7246 99.32 95.9304 101.832 92.6 101.832H76.2631C72.9326 101.832 70.1385 99.32 69.7853 96.0083L65.746 58.1352Z" fill="#9E1F63"/>
<path d="M98.9959 92.3738C103.884 89.5514 105.558 83.2979 102.734 78.4061C99.9093 73.5143 93.657 71.8368 88.7684 74.6592C83.8799 77.4816 82.2065 83.735 85.0308 88.6268C87.855 93.5186 94.1074 95.1962 98.9959 92.3738Z" fill="#FF5000"/>
<path d="M98.4482 91.4241C96.8853 92.3277 95.0895 92.747 93.2875 92.6295C91.486 92.5117 89.759 91.8623 88.3258 90.7623C86.8924 89.6631 85.8173 88.1638 85.2354 86.4533C84.6543 84.7429 84.5926 82.8992 85.0588 81.1543C85.5252 79.4099 86.4985 77.8426 87.8555 76.6519C89.2121 75.4614 90.8918 74.7001 92.682 74.4647C94.4721 74.2292 96.2917 74.5298 97.9116 75.3292C99.5312 76.1282 100.878 77.3899 101.781 78.9544C102.989 81.0517 103.316 83.5426 102.692 85.8799C102.067 88.2171 100.541 90.2111 98.4482 91.4241ZM89.5814 76.0663C88.1072 76.9163 86.9186 78.1842 86.1658 79.7104C85.4126 81.2369 85.1292 82.9522 85.3517 84.6399C85.5736 86.3279 86.2912 87.9127 87.4135 89.1927C88.5356 90.4735 90.0123 91.392 91.656 91.8331C93.2998 92.2741 95.0374 92.2179 96.6486 91.6706C98.2597 91.1239 99.6725 90.1107 100.708 88.76C101.743 87.4098 102.354 85.7824 102.464 84.0833C102.574 82.3847 102.178 80.6915 101.326 79.2174C100.182 77.2452 98.304 75.8059 96.1028 75.2157C93.9017 74.6247 91.5565 74.9309 89.5814 76.0663Z" fill="#FF1900"/>
<path d="M91.3498 79.076L91.2993 89.3407L100.219 84.1909L91.3498 79.076ZM93.0886 86.2958L93.1422 82.1804L96.7225 84.1735L93.0886 86.2958Z" fill="white"/>
<path d="M113.455 80.3322C115.183 78.4658 114.945 75.5204 112.939 73.9564L112.739 73.8008C110.715 72.2227 107.771 72.7347 106.399 74.9035L98.9155 86.7294C98.0405 88.1121 98.3546 89.9328 99.6424 90.9424C100.948 91.966 102.821 91.8168 103.948 90.5995L113.455 80.3322Z" fill="#9E1F63"/>
<path fill-rule="evenodd" clip-rule="evenodd" d="M98.9377 92.8406C99.0199 92.9939 99.1348 93.1329 99.281 93.2466C99.8414 93.6827 100.649 93.582 101.085 93.0215C101.108 92.9924 101.129 92.9627 101.149 92.9324C101.763 92.742 102.328 92.3682 102.752 91.8222C103.857 90.4025 103.602 88.3559 102.182 87.2511C100.8 86.1751 98.8224 86.3891 97.6996 87.7125C97.6787 87.7351 97.6585 87.7588 97.6393 87.7835L95.9006 90.0177C95.5324 90.491 95.6174 91.1732 96.0907 91.5414C96.2962 91.7014 96.5411 91.7758 96.7826 91.7701C96.7403 92.195 96.9106 92.6317 97.2725 92.9133C97.7777 93.3064 98.4839 93.2633 98.9377 92.8406Z" fill="#F1DDCE"/>
<path d="M97.9743 57.1549L109.371 76.3798" stroke="#9E1F63" stroke-width="10.8577" stroke-linecap="round"/>
<path d="M59.7099 74.8692C59.3589 72.3833 61.1825 70.1185 63.686 69.931L64.1336 69.8975C66.6549 69.7087 68.8038 71.7049 68.8011 74.2331L68.7789 94.6595C68.7772 96.2878 67.5242 97.6413 65.9009 97.7685C64.2569 97.8973 62.7962 96.7254 62.5657 95.0926L59.7099 74.8692Z" fill="#9E1F63"/>
<path fill-rule="evenodd" clip-rule="evenodd" d="M66.3737 100.078C66.7447 100.051 67.0672 99.8685 67.2827 99.5993C67.4989 99.8216 67.8082 99.9502 68.1416 99.9255C68.7396 99.8813 69.1885 99.3606 69.1443 98.7626L68.9186 95.7113C68.9175 95.6911 68.9162 95.6709 68.9147 95.6507C68.782 93.8567 67.22 92.5099 65.426 92.6426C63.6319 92.7753 62.2851 94.3372 62.4178 96.1313C62.4688 96.8203 62.7306 97.4434 63.1354 97.942C63.1349 97.9795 63.136 98.0174 63.1388 98.0555C63.1912 98.7637 63.8078 99.2954 64.516 99.243C64.7012 99.2293 64.8742 99.1771 65.0279 99.0947C65.1713 99.6981 65.7353 100.125 66.3737 100.078Z" fill="#F1DDCE"/>
<path d="M70.7466 56.6518L64.9782 71.4763" stroke="#9E1F63" stroke-width="10.8577" stroke-linecap="round"/>
<path d="M84.0223 56.5117L76.1493 50.9268L91.8953 50.9268L84.0223 56.5117Z" fill="#F1DDCE"/>
<path d="M91.9021 50.9291L84.026 56.5127L88.3834 61.436L93.8158 50.9291L91.9021 50.9291Z" fill="#7C194E"/>
<path d="M76.1458 50.9291L84.0219 56.5127L79.6644 61.436L74.232 50.9291L76.1458 50.9291Z" fill="#7C194E"/>
<path fill-rule="evenodd" clip-rule="evenodd" d="M76.9031 23.9366C78.3311 22.4118 79.8507 21.9305 82.1507 21.5148C83.8526 21.2072 84.9181 21.1893 86.6151 21.5148C88.8309 21.9399 90.0302 22.6167 91.6277 23.9366C91.881 24.1458 92.1522 24.3305 92.4134 24.5083C92.9467 24.8715 93.4381 25.206 93.6487 25.663C94.1576 26.0747 94.6494 26.8539 94.9508 27.814C95.2718 28.8365 94.9833 29.5585 94.7388 30.1705C94.6047 30.5061 94.4838 30.8086 94.4838 31.1095C93.7289 31.3464 92.7141 30.2552 92.2172 28.6721C92.1226 28.3709 92.0536 28.0736 92.0091 27.788C91.5183 27.9139 90.9701 27.9952 90.4273 28.0756L90.4273 28.0756C90.2783 28.0977 90.1298 28.1198 89.9829 28.1426C89.0252 28.2918 88.3002 28.0802 87.5509 27.8615C86.9167 27.6764 86.265 27.4863 85.4402 27.5054C84.4578 27.5281 83.7266 27.7732 82.9982 28.0175C82.2533 28.2673 81.5111 28.5161 80.5059 28.525C80.1013 28.5286 79.6905 28.5506 79.2849 28.5723H79.2849C78.423 28.6185 77.5847 28.6634 76.8806 28.5275C76.8602 28.6022 76.8381 28.6773 76.8145 28.7526C76.3175 30.3356 75.3027 31.4269 74.5478 31.1899C74.5478 30.8663 74.4225 30.5535 74.2856 30.2115C74.0426 29.6049 73.763 28.9068 74.0808 27.8944C74.38 26.9414 74.8669 26.1666 75.3717 25.7525C75.6491 25.2512 76.1103 24.7685 76.5883 24.2682L76.5883 24.2682L76.5884 24.2682C76.6931 24.1586 76.7986 24.0482 76.9031 23.9366Z" fill="black"/>
<circle cx="42.3762" cy="50.9406" r="7.17889" fill="black"/>
<circle cx="42.3762" cy="50.9406" r="7.17889" fill="black"/>
<circle cx="42.3762" cy="50.9406" r="7.17889" fill="black"/>
<circle cx="54.798" cy="54.0461" r="7.17889" fill="black"/>
<circle cx="54.798" cy="54.0461" r="7.17889" fill="black"/>
<circle cx="54.798" cy="54.0461" r="7.17889" fill="black"/>
<path d="M43.4861 61.5312H55.6244C55.6244 61.5312 55.6516 66.578 56.6261 69.598C57.8561 73.4093 62.3742 77.6647 62.3742 77.6647H36.7363C36.7363 77.6647 40.3695 72.7482 41.6875 69.598C43.0054 66.4477 43.4861 61.5312 43.4861 61.5312Z" fill="#F1DDCE"/>
<path d="M49.5557 66.4247C40.6412 66.4247 38.3761 56.8931 38.3761 50.7187C38.3761 44.5444 43.3814 39.5391 49.5557 39.5391C55.7301 39.5391 60.7354 44.5444 60.7354 50.7187C60.7354 56.8931 58.4702 66.4247 49.5557 66.4247Z" fill="#F6E5D9"/>
<path d="M28.178 80.1537C27.7083 75.7496 31.1601 71.9102 35.5891 71.9102H63.5217C67.9507 71.9102 71.4025 75.7496 70.9328 80.1537L66.3116 123.483C65.9075 127.272 62.7108 130.145 58.9005 130.145H40.2102C36.3999 130.145 33.2032 127.272 32.7992 123.483L28.178 80.1537Z" fill="#FF7654"/>
<path d="M64.9242 118.33C70.517 115.101 72.4314 107.947 69.2002 102.35C65.9691 96.7538 58.816 94.8346 53.2232 98.0636C47.6304 101.293 45.716 108.447 48.9471 114.043C52.1783 119.64 59.3314 121.559 64.9242 118.33Z" fill="#FF5000"/>
<path d="M64.2977 117.244C62.5096 118.278 60.4551 118.758 58.3935 118.623C56.3325 118.489 54.3567 117.746 52.717 116.487C51.0772 115.23 49.8471 113.514 49.1814 111.557C48.5166 109.601 48.4461 107.491 48.9794 105.495C49.513 103.499 50.6264 101.706 52.179 100.344C53.731 98.9821 55.6527 98.1111 57.7007 97.8417C59.7487 97.5723 61.8305 97.9162 63.6837 98.8308C65.5367 99.7449 67.0775 101.188 68.1108 102.978C69.4927 105.378 69.867 108.227 69.1524 110.901C68.4377 113.575 66.6917 115.857 64.2977 117.244ZM54.1535 99.6741C52.4669 100.646 51.1071 102.097 50.2459 103.843C49.3842 105.59 49.06 107.552 49.3144 109.483C49.5684 111.414 50.3893 113.227 51.6733 114.692C52.9571 116.157 54.6465 117.208 56.527 117.712C58.4076 118.217 60.3954 118.152 62.2389 117.526C64.082 116.901 65.6983 115.742 66.8826 114.196C68.0671 112.652 68.7662 110.79 68.892 108.846C69.0181 106.903 68.5648 104.966 67.5897 103.279C66.2814 101.023 64.1327 99.3762 61.6144 98.7009C59.0962 98.0248 56.4132 98.3751 54.1535 99.6741Z" fill="#FF1900"/>
<path d="M56.1763 103.117L56.1185 114.861L66.3232 108.969L56.1763 103.117ZM58.1655 111.377L58.2268 106.669L62.3229 108.949L58.1655 111.377Z" fill="white"/>
<path fill-rule="evenodd" clip-rule="evenodd" d="M65.0894 120.308C64.6124 120.089 64.3085 119.646 64.2446 119.162C63.9774 119.231 63.6855 119.212 63.415 119.088C62.7916 118.801 62.5184 118.064 62.8048 117.44L64.1284 114.559L64.134 114.547L64.1396 114.535L64.1568 114.497C64.1671 114.475 64.178 114.453 64.1894 114.431C65.0852 112.643 67.2447 111.875 69.0759 112.716C70.9462 113.575 71.7658 115.788 70.9067 117.658C70.5767 118.376 70.0472 118.94 69.4141 119.312C69.3997 119.352 69.3835 119.392 69.3654 119.432C69.0262 120.17 68.1528 120.494 67.4145 120.154C67.2215 120.066 67.0569 119.941 66.9251 119.791C66.5302 120.381 65.7549 120.613 65.0894 120.308Z" fill="#F1DDCE"/>
<path fill-rule="evenodd" clip-rule="evenodd" d="M30.4272 117.753C29.6889 118.092 29.3653 118.966 29.7044 119.704C30.0436 120.442 30.9171 120.766 31.6554 120.427C32.3937 120.087 32.7172 119.214 32.3781 118.476C32.0389 117.737 31.1655 117.414 30.4272 117.753Z" fill="#F1DDCE"/>
<path d="M82.706 96.5255C84.1112 94.0206 83.1062 90.8494 80.5146 89.6112L80.0512 89.3898C77.4413 88.1428 74.3221 89.38 73.2765 92.0768L64.8284 113.865C64.1549 115.602 64.9295 117.565 66.6076 118.374C68.3071 119.193 70.3505 118.549 71.2736 116.904L82.706 96.5255Z" fill="#F1DDCE"/>
<path d="M16.5187 96.5255C15.1134 94.0206 16.1184 90.8494 18.71 89.6112L19.1734 89.3898C21.7833 88.1428 24.9025 89.38 25.9481 92.0768L34.3962 113.865C35.0697 115.602 34.2951 117.565 32.617 118.374C30.9176 119.193 28.8741 118.549 27.9511 116.904L16.5187 96.5255Z" fill="#F1DDCE"/>
<path d="M65.1286 78.875L77.9971 91.7437" stroke="#FF7654" stroke-width="12.4218" stroke-linecap="round"/>
<path d="M34.095 78.875L21.2266 91.7437" stroke="#FF7654" stroke-width="12.4218" stroke-linecap="round"/>
<path d="M51.7179 77.8619C51.2511 78.3234 51.0177 78.5541 50.7771 78.7026C50.014 79.1736 49.0563 79.1968 48.2713 78.7632C48.0238 78.6266 47.7795 78.4074 47.2909 77.9692L40.5308 71.9052L57.7441 71.9052L51.7179 77.8619Z" fill="#F1DDCE"/>
<path d="M35.349 40.1232C37.1816 38.917 38.7693 38.9003 40.9147 39.3592C44.4864 40.1232 43.4219 36.5825 46.3608 35.9421C48.9692 35.3738 52.4508 36.0951 55.1015 36.4127C58.7641 36.8515 60.186 39.5038 62.304 42.524C64.2034 45.2324 66.7928 47.3498 65.4688 50.3813C64.2711 53.1235 61.4966 54.4901 58.5936 53.7643C55.6906 53.0386 56.5909 49.2308 54.1193 47.5439C50.5178 45.0859 47.2397 45.7029 42.9881 46.6709C39.7543 47.4071 38.32 50.5366 35.349 49.0626C32.9027 47.849 32.0263 46.608 32.6208 43.9427C33.0199 42.1536 33.8179 41.1309 35.349 40.1232Z" fill="black"/>
</g>
</g>
<defs>
<filter id="filter0_d_1206_4419" x="-38.7675" y="7.52438" width="176.535" height="270.687" filterUnits="userSpaceOnUse" color-interpolation-filters="sRGB">
<feFlood flood-opacity="0" result="BackgroundImageFix"/>
<feColorMatrix in="SourceAlpha" type="matrix" values="0 0 0 0 0 0 0 0 0 0 0 0 0 0 0 0 0 0 127 0" result="hardAlpha"/>
<feOffset dy="2.13955"/>
<feGaussianBlur stdDeviation="5.88375"/>
<feColorMatrix type="matrix" values="0 0 0 0 0 0 0 0 0 0 0 0 0 0 0 0 0 0 0.15 0"/>
<feBlend mode="normal" in2="BackgroundImageFix" result="effect1_dropShadow_1206_4419"/>
<feBlend mode="normal" in="SourceGraphic" in2="effect1_dropShadow_1206_4419" result="shape"/>
</filter>
<clipPath id="clip0_1206_4419">
<rect width="120.512" height="156.611" fill="white"/>
</clipPath>
</defs>
</svg>
