<svg width="433" height="261" fill="none" xmlns="http://www.w3.org/2000/svg">
  <path fill-rule="evenodd" clip-rule="evenodd" d="M314.8 108.06c1.814-16.775 16.204-29.811 33.154-29.811 18.431.013 33.369 14.951 33.382 33.382 0 16.944-13.036 31.34-29.811 33.154-1.757 16.774-16.203 29.811-33.153 29.811-18.431-.013-33.37-14.951-33.383-33.383 0-16.944 13.037-31.339 29.811-33.153zm37.011 29.24c11.226-1.707 20.04-10.521 21.756-21.756h-21.756V137.3zm-59.053 0l.007-.048h21.749v-21.708c-11.231 1.712-20.04 10.508-21.749 21.708h-.007v.048zm25.641 29.526c12.844 0 23.752-9.255 25.641-21.756h-51.282c1.889 12.501 12.797 21.756 25.641 21.756zm25.641-51.282V137.3h-21.755v-21.756h21.755zm-21.755-7.77h51.281c-1.889-12.501-12.796-21.756-25.641-21.756-12.844 0-23.751 9.255-25.64 21.756z" fill="#00DCFA" opacity=".15"/>
  <path fill-rule="evenodd" clip-rule="evenodd" d="M134.87 201.155c1.585-.998 3.675-.445 4.672 1.237.996 1.679.521 3.855-1.064 4.853a37.482 37.482 0 01-10.285 4.563l-.434.116c-3.549.949-7.339 1.348-11.271 1.185-1.87-.078-3.363-1.727-3.336-3.684.028-1.953 1.567-3.473 3.437-3.394 3.143.151 6.29-.176 9.333-.971l.43-.115a31.095 31.095 0 008.518-3.79zm5.192-76.252c5.634 8.659 7.934 21.691 6.15 34.879-2.431 17.996-11.695 32.521-22.562 35.429l-.309.083c-10.87 2.909-26.15-5.049-37.244-19.426-8.136-10.534-12.648-22.974-12.092-33.293.559-16.35 11.11-30.058 26.261-34.112 15.105-4.042 31.048 2.519 39.717 16.33l.038.051.015.025.021.031.005.003zm.562 33.908a57.158 57.158 0 01-4.323 15.501c-.236-9.664-4.427-21.102-12.227-31.209-4.078-5.283-8.804-9.752-13.798-13.091 4.625-6.688 10.409-10.017 15.853-8.962 3.486.676 6.692 3.11 9.262 7.044 4.87 7.447 6.824 18.93 5.233 30.717zm-50.167 13.424c-7.265-9.417-11.306-20.341-10.807-29.226.262-4.691 1.82-8.4 4.503-10.727 4.19-3.629 10.867-3.638 18.21-.152-2.655 5.389-4.521 11.618-5.412 18.231-1.715 12.653.368 24.659 4.993 33.145a57.179 57.179 0 01-11.487-11.271zm35.715 15.048c-1.202 1.044-2.62 1.797-4.21 2.247a10.875 10.875 0 01-4.769.156c-10.478-2.027-17.186-19.593-14.649-38.356.802-5.952 2.456-11.542 4.819-16.344 4.445 2.98 8.677 6.991 12.349 11.75 11.568 14.989 14.529 33.557 6.46 40.547zm-3.524 4.81l.071.248.067.252-.071-.251-.067-.249zm-2.231-76.731c-5.559 1.229-10.883 5.301-15.157 11.731-6.917-3.435-13.569-4.307-18.999-2.595a29.304 29.304 0 0115.54-10.315c6.31-1.688 12.792-1.174 18.615 1.176l.001.003z" fill="#49CC68" opacity=".27"/>
  <g opacity=".4">
    <circle cx="252.736" cy="17.153" r="2.65" stroke="#AEB1C2" stroke-width="1.927"/>
    <circle cx="148.913" cy="69.696" r="2.65" stroke="#AEB1C2" stroke-width="1.927"/>
    <circle cx="284.5" cy="37.839" r="2.65" stroke="#AEB1C2" stroke-width="1.927"/>
    <path d="M144.888 35.915a.714.714 0 00.263-.461.729.729 0 00-.127-.52l-3.08-4.194 4.095-3.105a.713.713 0 00.263-.461.728.728 0 00-.127-.52.744.744 0 00-.473-.278.727.727 0 00-.53.126l-4.095 3.105-3.08-4.194a.707.707 0 00-.455-.271.689.689 0 00-.51.125.712.712 0 00-.258.441.845.845 0 00.122.54l3.08 4.193-4.095 3.105a.834.834 0 00-.264.481.729.729 0 00.128.5.707.707 0 00.455.272.687.687 0 00.509-.125l4.095-3.105 3.081 4.194c.118.15.287.25.473.278a.727.727 0 00.53-.126z" fill="#AEB1C2"/>
    <path d="M276.262 61.79l-.011.01.011-.01zm0 0l.006-.004-.006.004z" fill="#AEB1C2" stroke="#AEB1C2" stroke-width="2.409"/>
  </g>
  <path fill-rule="evenodd" clip-rule="evenodd" d="M198.41 45.88c10.279 2.755 20.845-3.346 23.6-13.625 2.754-10.28-3.346-20.846-13.626-23.6C198.105 5.9 187.539 12 184.784 22.28c-2.754 10.28 3.346 20.846 13.626 23.6zm6.891-22.025l2.531 8.198 2.865 3.26-4.372-15.282-1.024 3.824zm1.098 9.476l-8.67-2.323-3.786.996 14.767 3.957-2.311-2.63zm-9.215-4.166l6.263-5.807 1.024-3.824-10.961 10.598 3.674-.967zm8.349 1.947l-1.698-5.495-4.217 3.91 5.915 1.585zm1.685-14.94l6.156 21.52a.958.958 0 01-.239.937.958.958 0 01-.933.255l-22.247-5.962a.054.054 0 01-.013-.005 1.01 1.01 0 01-.219-.091c-.017-.01-.032-.023-.047-.035l-.03-.024a.63.63 0 01-.025-.018c-.033-.023-.067-.047-.096-.076a.371.371 0 01-.035-.044l-.026-.033a3.843 3.843 0 00-.024-.03c-.024-.029-.048-.058-.068-.092a.667.667 0 01-.046-.108l-.015-.04-.015-.036c-.008-.016-.016-.032-.021-.05v-.003-.002a.92.92 0 01-.019-.334l.011-.084a.97.97 0 01.102-.291l.003-.006a.97.97 0 01.165-.215l16.091-15.559c.035-.034.074-.059.113-.083a.948.948 0 01.802-.153.943.943 0 01.603.506l.014.025c.022.042.044.084.058.131zM239.437 83.652c10.279-2.754 16.38-13.32 13.625-23.6-2.754-10.28-13.32-16.38-23.6-13.626-10.28 2.755-16.38 13.32-13.626 23.6 2.755 10.28 13.321 16.38 23.601 13.626zm-5.046-22.52l6.291 5.835 4.11 1.39-11.426-11.048 1.025 3.823zm5.689 7.658l-8.67 2.323-2.781 2.756 14.768-3.957-3.317-1.123zm-10.063 1l2.52-8.16-1.025-3.824-4.193 14.658 2.698-2.674zm8.203-2.49l-4.218-3.91-1.697 5.495 5.915-1.584zm-6.01-13.78l16.091 15.56c.248.24.349.596.261.93a.956.956 0 01-.68.687l-22.247 5.961a.075.075 0 01-.014.002c-.005 0-.01 0-.015.002a1.008 1.008 0 01-.22.028c-.02 0-.039-.003-.059-.007a.589.589 0 00-.068-.008c-.041-.004-.081-.007-.121-.018-.018-.005-.035-.012-.053-.02a.504.504 0 00-.074-.03.708.708 0 01-.105-.046.683.683 0 01-.094-.07l-.033-.028-.031-.023c-.015-.01-.03-.02-.043-.034h-.001l-.001-.001-.001-.002a.94.94 0 01-.183-.28.929.929 0 01-.09-.382l-.001-.006v-.011c0-.086.012-.173.036-.258l6.156-21.52c.013-.046.035-.087.056-.129l.015-.027a.945.945 0 01.603-.506.946.946 0 01.8.152c.04.026.08.05.116.084zM178.659 92.92c9.216 5.321 21.001 2.163 26.322-7.053 5.321-9.217 2.163-21.002-7.053-26.323-9.216-5.32-21.001-2.163-26.322 7.053-5.322 9.217-2.164 21.002 7.053 26.323zm12.355-19.491l.323 8.574 1.923 3.89L192.993 70l-1.979 3.429zm-1.392 9.436l-7.774-4.488-3.915-.017 13.241 7.644-1.552-3.139zm-7.823-6.408l7.552-3.988 1.979-3.428-13.33 7.4 3.799.016zm7.561 4.041l-.218-5.747-5.086 2.685 5.304 3.062zm5.494-13.994l.377 22.38a.96.96 0 01-1.44.847l-19.947-11.516-.011-.008a1.033 1.033 0 01-.187-.145.33.33 0 01-.037-.046.5.5 0 00-.023-.03l-.019-.024a.6.6 0 01-.073-.099c-.01-.016-.016-.034-.023-.051l-.016-.039-.016-.035a.668.668 0 01-.041-.106.644.644 0 01-.017-.117l-.004-.043c-.001-.013-.004-.026-.006-.038-.003-.018-.006-.035-.006-.054v-.001-.001-.002a.95.95 0 01.101-.406.967.967 0 01.185-.27c.062-.059.131-.112.208-.155l19.57-10.864c.042-.024.087-.038.131-.052l.029-.009a.947.947 0 01.785.069.947.947 0 01.458.673.668.668 0 01.022.142z" fill="#FFD43B"/>
  <g filter="url(#filter0_d)">
    <rect x="125.175" y="79.915" width="183.004" height="119.124" rx="18.883" fill="#A78AFF"/>
  </g>
  <path d="M243.322 138.702c0-10.429 8.454-18.883 18.883-18.883h37.927c10.429 0 18.884 8.454 18.884 18.883v.772c0 10.429-8.455 18.884-18.884 18.884h-37.927c-10.429 0-18.883-8.455-18.883-18.884v-.772z" fill="#D9CDFF"/>
  <circle cx="262.648" cy="139.326" r="9.442" fill="#EDE8FF"/>
  <path fill-rule="evenodd" clip-rule="evenodd" d="M208.93 158.359c10.659 0 19.299-8.64 19.299-19.299 0-10.659-8.64-19.299-19.299-19.299-10.659 0-19.299 8.64-19.299 19.299 0 10.659 8.64 19.299 19.299 19.299zm6.764-23.754a1.673 1.673 0 00-2.822-1.798l-5.666 8.892-2.41-2.562a1.672 1.672 0 10-2.437 2.292l3.883 4.128a1.674 1.674 0 002.629-.247l6.823-10.705z" fill="#fff"/>
  <defs>
    <filter id="filter0_d" x="93.059" y="47.799" width="247.236" height="183.355" filterUnits="userSpaceOnUse" color-interpolation-filters="sRGB">
      <feFlood flood-opacity="0" result="BackgroundImageFix"/>
      <feColorMatrix in="SourceAlpha" values="0 0 0 0 0 0 0 0 0 0 0 0 0 0 0 0 0 0 127 0"/>
      <feOffset/>
      <feGaussianBlur stdDeviation="16.058"/>
      <feColorMatrix values="0 0 0 0 0.439841 0 0 0 0 0.270347 0 0 0 0 0.954167 0 0 0 0.21 0"/>
      <feBlend in2="BackgroundImageFix" result="effect1_dropShadow"/>
      <feBlend in="SourceGraphic" in2="effect1_dropShadow" result="shape"/>
    </filter>
  </defs>
</svg>
