<svg version="1.1" id="Layer_1" xmlns="http://www.w3.org/2000/svg" xmlns:xlink="http://www.w3.org/1999/xlink" x="0" y="0" viewBox="0 0 117 157" xml:space="preserve"><style>.st3{fill:#47a2de}.st5{fill:#fff}.st10{fill:#ffbd2f}</style><defs><path id="SVGID_1_" d="M0 0h117v157H0z"/></defs><clipPath id="SVGID_2_"><use xlink:href="#SVGID_1_" overflow="visible"/></clipPath><g transform="translate(.5)" clip-path="url(#SVGID_2_)"><ellipse cx="26.6" cy="110.9" rx="60.2" ry="68.5" opacity=".789" fill="#1bba6a" fill-opacity=".15"/><ellipse cx="36.8" cy="156.5" rx="63.4" ry="72.2" opacity=".799" fill="#1bba6a" fill-opacity=".109"/><path class="st3" d="M112.4 102.4l-22.2 15.2-3.8 2.6-20.5 14c-1.2.8-2.8.5-3.6-.7l-5.6-8.3-1.5-2.2-.1-.2L85.3 110l1.6-.7 12.4-5.2c1.3-.6 1.9-2.1 1.4-3.4L88.4 71.9l.1-.1 1.9-1.3.3-.2c1.2-.8 2.8-.5 3.6.7l18.8 27.8c.8 1.2.5 2.8-.7 3.6zM-33.6 42.4z"/><path d="M103.2 105.4l-16.3 6.9h-.1l-30.2 12.8-1.5-2.2-6.9 3-12.8-30.1c-.5-1.3.1-2.8 1.4-3.3l14.6-6.2L78 75l10.1-4.3.5 1.1 1.9-1.3c.6.2 1.1.7 1.4 1.4l12.8 30.2c.4 1.3-.2 2.7-1.5 3.3z" fill="#1782b2"/><path class="st3" d="M99.5 104.1l-12.6 5.4-1.5.6L55.1 123l-6.9 3-.4.2c-1.3.6-2.8-.1-3.3-1.3L31.6 94.5c-.5-1.3.1-2.8 1.4-3.3l14-5.9 29.7-12.6 8-3.4c1.3-.6 2.8.1 3.3 1.3v.1l.5 1.1 12.3 29.1c.6 1.2 0 2.7-1.3 3.2z"/><path class="st5" d="M60.7 85.6c-7.2 3-10.5 11.3-7.5 18.5 3 7.2 11.3 10.5 18.5 7.5 7.2-3 10.5-11.3 7.5-18.5-3.1-7.2-11.4-10.5-18.5-7.5z"/><path d="M61.7 87.8l4.8 11.3 11.7 1.6-16.5-12.9z" fill="#9e1f63"/><path d="M59.5 108.7l7-9.6-4.8-11.3-2.2 20.9z" fill="#fb542b"/><path d="M59.5 108.7l18.7-7.9-11.7-1.7-7 9.6z" fill="#662d91"/><path class="st5" d="M64.9 95.3l-.6 6.9 6.2-2.6-5.6-4.3z"/><path d="M93.2 93.1l-2.5 1 1.5 3.5 2.5-1.1-1.5-3.4zm-7.3-17.2c-.5-1.3-2.1-1.8-3.5-1.3l-3.8 1.6-1.1.5 1 2.3 1.3-.6 3.7-1.6 6.3 14.9 2.5-1.1-6.4-14.7z" fill="#8ed1fd"/><path class="st10" d="M49.1 85.4c-.3 10.8-8.6 18.9-19.4 18.4-10.6-.5-17.3-8.4-17.6-18.3-.3-10.8 8.6-18.9 18.9-18.6 10.4.3 18.1 8.6 18.1 18.5zm-18.5 16.9c8.9.1 16.5-6.9 17-15.9.5-9.8-7.1-18.2-17.3-18-8.6.2-16.3 7-16.6 16.6-.3 9.2 6.9 17.3 16.9 17.3z"/><path class="st5" d="M30.6 102.3c-9.9 0-17.1-8.1-16.9-17.3.3-9.6 7.9-16.4 16.6-16.6 10.3-.2 17.9 8.1 17.3 18-.5 9.1-8.1 16-17 15.9zm-3.2-21.4c-.3 2.9-.7 5.7-1 8.6-.2 1.2-.1 2.3.6 3.5.6-.2 1.2-.4 1.9-.6.1-.5.1-1 .2-1.4.1-.3.3-.8.5-.9 1.3-.4 2.6-.7 3.8-1 .5.6.9 1.2 1.5 1.8 1.5-.4 3-.9 4.5-1.3-.4-1.5-.7-2.8-1-4.1 1.2-.3 2.2-.6 3.2-.9 2.1-.6 3.2-2.3 2.8-4.2-.4-2-1.9-3.2-4-2.8-2.2.4-4.4 1.1-6.7 1.7.7 2.7 1.3 5.2 2 7.7-.1 0-.2.1-.3.1-1.7-2.3-3.5-4.6-5.2-6.8-1 .1-1.8.3-2.8.6zm-7.6 4.5c.8 3 1.6 5.9 2.4 8.8.9-.3 1.8-.5 2.7-.8-.8-3-1.5-5.9-2.3-8.8 1.3-.4 2.3-.7 3.5-1-.2-.8-.4-1.4-.7-2.2-3.3.9-6.5 1.7-9.8 2.6.2.8.4 1.5.5 2.2 1.3-.3 2.4-.5 3.7-.8z"/><path class="st10" d="M27.4 80.9c1-.3 1.8-.5 2.8-.8 1.7 2.3 3.5 4.5 5.2 6.8.1 0 .2-.1.3-.1-.6-2.5-1.3-5-2-7.7 2.3-.6 4.5-1.3 6.7-1.7 2.1-.4 3.6.8 4 2.8.4 1.9-.7 3.6-2.8 4.2-1 .3-2 .6-3.2.9.3 1.4.6 2.6 1 4.1-1.5.4-3 .9-4.5 1.3-.5-.7-.9-1.2-1.5-1.8-1.3.3-2.6.6-3.8 1-.3.1-.4.6-.5.9-.1.4-.1.9-.2 1.4-.7.2-1.3.4-1.9.6-.7-1.2-.8-2.3-.6-3.5.4-2.7.7-5.5 1-8.4zm10.4 2.2c1.2-.3 2.2-.5 3.2-.9.3-.1.7-.9.6-1.2-.1-.4-.7-1.1-1-1.1-1.1.1-2.2.5-3.5.8.2.9.4 1.6.7 2.4zm-7.9.9c-.1 0-.2.1-.4.1-.1 1.1-.2 2.1-.3 3.5 1-.3 1.7-.5 2.7-.7-.7-1.1-1.3-2-2-2.9zM19.8 85.4c-1.2.3-2.3.5-3.6.8-.2-.7-.3-1.4-.5-2.2 3.3-.9 6.5-1.7 9.8-2.6.2.8.4 1.4.7 2.2-1.2.3-2.3.6-3.5 1 .8 3 1.5 5.8 2.3 8.8-.9.3-1.8.5-2.7.8-1-2.9-1.7-5.8-2.5-8.8z"/><path class="st5" d="M37.8 83.1c-.2-.9-.4-1.5-.7-2.5 1.3-.3 2.4-.6 3.5-.8.3 0 .9.6 1 1.1.1.4-.3 1.1-.6 1.2-1 .5-2 .7-3.2 1zM29.9 84c.6.9 1.2 1.8 2 2.9-1 .3-1.7.5-2.7.7.1-1.4.2-2.4.3-3.5.2 0 .3-.1.4-.1z"/></g></svg>
