<svg xmlns="http://www.w3.org/2000/svg" width="16" height="16" fill="none" viewBox="0 0 16 16"><path fill="#00e996" d="M0 2.667A2.667 2.667 0 0 1 2.667 0h10.666A2.667 2.667 0 0 1 16 2.667v10.666A2.667 2.667 0 0 1 13.333 16H2.667A2.667 2.667 0 0 1 0 13.333z"/><path fill="#000" d="M12.197 2.667c-.395 0-.762.204-.97.542l-2.229 3.31a.237.237 0 0 0 .352.31l2.195-1.903a.09.09 0 0 1 .149.068v5.96a.1.1 0 0 1-.027.063.09.09 0 0 1-.1.017.1.1 0 0 1-.03-.024L4.901 3.07a1.15 1.15 0 0 0-.868-.403h-.231c-.628 0-1.136.508-1.136 1.136v8.394a1.136 1.136 0 0 0 2.105.595l2.23-3.31a.237.237 0 0 0-.352-.312l-2.196 1.904a.09.09 0 0 1-.125-.007.1.1 0 0 1-.023-.06V5.044a.089.089 0 0 1 .158-.056l6.633 7.943c.216.255.533.402.867.402h.232c.627 0 1.137-.507 1.137-1.136V3.803c0-.628-.509-1.136-1.136-1.136"/></svg>
