<svg viewBox="0 0 129 124" fill="none" xmlns="http://www.w3.org/2000/svg">
  <path d="M62.8999 123.5c32.0957 0 58.1141-26.0187 58.1141-58.1143 0-32.0957-26.0184-58.1143-58.1141-58.1143-32.0956 0-58.1143 26.0186-58.1143 58.1143C4.7856 97.4813 30.8043 123.5 62.9 123.5Z" fill="url(#a)"/>
  <path d="M94.2524 20.7943H29.874c-4.0128 0-7.2658 3.253-7.2658 7.2658h78.9098c0-4.0128-3.2528-7.2658-7.2656-7.2658Z" fill="url(#b)"/>
  <g filter="url(#c)">
    <path d="M22.6082 27.8616h78.9098v60.0992a10.0746 10.0746 0 0 1-10.0748 10.0749H32.6831a10.075 10.075 0 0 1-10.0749-10.0749V27.8616Z" fill="url(#d)"/>
  </g>
  <path d="M87.9539 35.4526H36.1977c-1.0778 0-1.9516.8729-1.9516 1.9496 0 1.0766.8738 1.9495 1.9516 1.9495h51.7562c1.0779 0 1.9516-.8729 1.9516-1.9495 0-1.0767-.8737-1.9496-1.9516-1.9496Z" fill="url(#e)"/>
  <path d="M87.9539 52.0181H36.1977c-1.0778 0-1.9516.8729-1.9516 1.9495 0 1.0767.8738 1.9496 1.9516 1.9496h51.7562c1.0779 0 1.9516-.8729 1.9516-1.9496 0-1.0766-.8737-1.9495-1.9516-1.9495Z" fill="url(#f)"/>
  <path d="M87.9539 68.5836H36.1977c-1.0778 0-1.9516.8728-1.9516 1.9495s.8738 1.9496 1.9516 1.9496h51.7562c1.0779 0 1.9516-.8729 1.9516-1.9496s-.8737-1.9495-1.9516-1.9495Z" fill="url(#g)"/>
  <path d="M87.9542 85.149H36.198c-1.0779 0-1.9517.8729-1.9517 1.9496s.8738 1.9495 1.9517 1.9495h51.7562c1.0778 0 1.9516-.8728 1.9516-1.9495s-.8738-1.9496-1.9516-1.9496Z" fill="url(#h)"/>
  <g filter="url(#i)">
    <path d="M35.8473 65.0305H8.2879c-2.214 0-4.0089 1.7949-4.0089 4.0089v39.3916c0 2.214 1.7949 4.009 4.009 4.009h27.5593c2.214 0 4.0089-1.795 4.0089-4.009V69.0394c0-2.214-1.7949-4.0089-4.0089-4.0089Z" fill="url(#j)"/>
  </g>
  <g filter="url(#k)">
    <path d="M114.3 3.5H83.8596c-1.4184 0-2.5683 1.1499-2.5683 2.5684V20.376c0 1.4185 1.1499 2.5684 2.5683 2.5684H114.3c1.418 0 2.568-1.1499 2.568-2.5684V6.0684c0-1.4185-1.15-2.5684-2.568-2.5684Z" fill="url(#l)"/>
  </g>
  <path d="M32.7719 84.7369H11.3632c-.7209 0-1.3053.5844-1.3053 1.3053v.0042c0 .7209.5844 1.3053 1.3053 1.3053h21.4087c.721 0 1.3054-.5844 1.3054-1.3053v-.0042c0-.7209-.5844-1.3053-1.3054-1.3053Z" fill="url(#m)"/>
  <path d="M32.7843 103.136H11.5595c-.7147 0-1.2941.566-1.2941 1.265v.004c0 .698.5794 1.264 1.2941 1.264h21.2248c.7147 0 1.2941-.566 1.2941-1.264v-.004c0-.699-.5794-1.265-1.2941-1.265Z" fill="url(#n)"/>
  <path d="M32.7843 93.5096H11.5595c-.7147 0-1.2941.5662-1.2941 1.2646v.0041c0 .6985.5794 1.2646 1.2941 1.2646h21.2248c.7147 0 1.2941-.5661 1.2941-1.2646v-.0041c0-.6984-.5794-1.2646-1.2941-1.2646Z" fill="url(#o)"/>
  <path d="M19.191 71.1135h-6.2562c-1.3858 0-2.5093 1.1235-2.5093 2.5093v1.7362c0 1.3858 1.1235 2.5092 2.5093 2.5092h6.2562c1.3858 0 2.5092-1.1234 2.5092-2.5092v-1.7362c0-1.3858-1.1234-2.5093-2.5092-2.5093Z" fill="url(#p)"/>
  <path d="M88.8039 16.1729c1.6307 0 2.9527-1.322 2.9527-2.9528 0-1.6308-1.322-2.9528-2.9527-2.9528-1.6308 0-2.9528 1.322-2.9528 2.9528 0 1.6308 1.322 2.9528 2.9528 2.9528Z" fill="url(#q)"/>
  <path d="M99.3561 16.1729c1.6309 0 2.9529-1.322 2.9529-2.9528 0-1.6308-1.322-2.9528-2.9529-2.9528-1.6308 0-2.9528 1.322-2.9528 2.9528 0 1.6308 1.322 2.9528 2.9528 2.9528Z" fill="url(#r)"/>
  <path d="M109.908 16.1729c1.631 0 2.953-1.322 2.953-2.9528 0-1.6308-1.322-2.9528-2.953-2.9528-1.63 0-2.952 1.322-2.952 2.9528 0 1.6308 1.322 2.9528 2.952 2.9528Z" fill="url(#s)"/>
  <g filter="url(#t)">
    <path d="m81.0225 97.625-1.875 5.625 7.5-.75h7.5l12.3745-2.625 7.5-6.375 3.75-9.75-1.875-11.625-9.375-8.25-10.4995-2.25-10.125 2.25-7.875 6.375-3.75 7.5 1.5 12.375 5.25 7.5Z" fill="url(#u)" fill-opacity=".2"/>
  </g>
  <path fill-rule="evenodd" clip-rule="evenodd" d="M96.022 63.8833c-11.2173 0-20.0288 8.2996-20.0288 18.2047 0 4.6667 1.9327 8.9436 5.1555 12.1899 1.1703 1.1789 2.3241 3.0995 1.8072 5.3187a12.7163 12.7163 0 0 1-.8663 2.5034c2.4692-.126 4.749-.954 6.649-2.2891a1.8607 1.8607 0 0 1 1.5561-.2735c1.8118.4906 3.7338.7556 5.7273.7556 11.217 0 20.029-8.2999 20.029-18.205s-8.812-18.2047-20.029-18.2047ZM79.8124 105.759a15.9532 15.9532 0 0 1-1.2995-.179 1.8597 1.8597 0 0 1-1.4229-1.201 1.861 1.861 0 0 1 .3311-1.833c.915-1.08 1.5799-2.374 1.9107-3.7936.1-.4296-.0781-1.1015-.8239-1.8528-3.8544-3.8824-6.2359-9.08-6.2359-14.8116 0-12.2584 10.7889-21.9259 23.75-21.9259 12.961 0 23.75 9.6675 23.75 21.9259 0 12.2584-10.789 21.926-23.75 21.926-2.024 0-3.9916-.234-5.8717-.675-2.5291 1.583-5.5206 2.499-8.7213 2.499-.5448 0-1.0842-.027-1.6163-.078" fill="url(#v)"/>
  <path d="M102.893 88.812c1.147.8308 2.763.4675 3.444-.7744.652-1.1887.168-2.6811-1.058-3.2605l-5.7949-2.7392 5.8039-2.743c1.222-.5779 1.707-2.0649 1.06-3.2524-.684-1.2548-2.319-1.6153-3.467-.7642l-5.1276 3.8016.5682-6.5234c.1175-1.3484-.9454-2.5079-2.299-2.5079-1.3535 0-2.4164 1.1595-2.2989 2.5079l.5682 6.5234-5.1294-3.8028c-1.147-.8504-2.7811-.4902-3.4643.7637-.6471 1.1878-.1608 2.6754 1.063 3.2515l5.8314 2.7456-5.8234 2.7418c-1.227.5777-1.7126 2.0705-1.0603 3.2596.6808 1.241 2.2955 1.604 3.442.7738l5.141-3.7228-.5652 6.3978c-.119 1.3477.943 2.5076 2.2959 2.5076 1.353 0 2.415-1.1599 2.296-2.5076l-.5652-6.3978 5.1396 3.7217Z" fill="url(#w)"/>
  <g filter="url(#x)">
    <ellipse cx="79.2318" cy="85.4" rx="15.6" ry="2.1" fill="#66F" fill-opacity=".5"/>
  </g>
  <path d="M57.1996 108.983c.4571-1.894 3.1507-1.894 3.6078 0a1.854 1.854 0 0 0 1.3684 1.368c1.8937.457 1.8937 3.151 0 3.608a1.8553 1.8553 0 0 0-1.3684 1.369c-.4571 1.893-3.1507 1.893-3.6078 0a1.8553 1.8553 0 0 0-1.3684-1.369c-1.8937-.457-1.8937-3.151 0-3.608a1.854 1.854 0 0 0 1.3684-1.368Z" fill="url(#y)"/>
  <path d="M15.1469 11.7042c.4571-1.8937 3.1506-1.8937 3.6078 0a1.8558 1.8558 0 0 0 1.3684 1.3685c1.8937.4571 1.8937 3.1506 0 3.6077a1.8558 1.8558 0 0 0-1.3684 1.3685c-.4572 1.8936-3.1507 1.8936-3.6078 0a1.8559 1.8559 0 0 0-1.3685-1.3685c-1.8936-.4571-1.8936-3.1506 0-3.6077a1.8559 1.8559 0 0 0 1.3685-1.3685Z" fill="url(#z)"/>
  <mask id="B" fill="#fff">
    <path fill-rule="evenodd" clip-rule="evenodd" d="M60.5831 9.1105c.9798 0 1.7742-.7944 1.7742-1.7742 0-.9799-.7944-1.7742-1.7742-1.7742-.9799 0-1.7742.7943-1.7742 1.7742 0 .9798.7943 1.7742 1.7742 1.7742Zm0 1.3306c1.7147 0 3.1048-1.39 3.1048-3.1048s-1.3901-3.1048-3.1048-3.1048c-1.7148 0-3.1048 1.39-3.1048 3.1048 0 1.7147 1.39 3.1048 3.1048 3.1048Z"/>
  </mask>
  <path d="M59.731 7.3363a.8521.8521 0 0 1 .8521-.8521v5.2525c2.4303 0 4.4005-1.9701 4.4005-4.4004H59.731Zm.8521.852a.8521.8521 0 0 1-.8521-.852h5.2526c0-2.4303-1.9702-4.4005-4.4005-4.4005v5.2526Zm.8521-.852a.8521.8521 0 0 1-.8521.852V2.9359c-2.4303 0-4.4005 1.9701-4.4005 4.4005h5.2526Zm-.8521-.8521a.8521.8521 0 0 1 .8521.852h-5.2526c0 2.4304 1.9702 4.4005 4.4005 4.4005V6.4841Zm.4785.852a.4785.4785 0 0 1-.4785.4786v5.2526c3.1652 0 5.7311-2.5659 5.7311-5.7311h-5.2526Zm-.4785-.4785a.4785.4785 0 0 1 .4785.4786h5.2526c0-3.1652-2.5659-5.7311-5.7311-5.7311v5.2525Zm-.4785.4786a.4785.4785 0 0 1 .4785-.4786V1.6051c-3.1652 0-5.7311 2.566-5.7311 5.7312h5.2526Zm.4785.4785a.4785.4785 0 0 1-.4785-.4785H54.852c0 3.1652 2.5659 5.7311 5.7311 5.7311V7.8148Z" fill="url(#A)" mask="url(#B)"/>
  <path d="M117.016 59.9836c-.397-1.5592 1.042-2.964 2.591-2.5287l.425.1195c1.549.4353 2.046 2.3843.895 3.5081l-.316.3086c-1.152 1.1238-3.088.5797-3.486-.9795l-.109-.428Z" fill="url(#C)"/>
  <path d="M11.9635 51.6087c1.5597-.3956 2.9627 1.0456 2.5254 2.5941l-.1201.4251c-.4373 1.5485-2.3869 2.0429-3.5093.89l-.3081-.3166c-1.1224-1.1529-.5757-3.0885.9839-3.484l.4282-.1086Z" fill="url(#D)"/>
  <path d="M94.3256 112.165c1.5597-.396 2.9626 1.045 2.5253 2.594l-.12.425c-.4373 1.549-2.3869 2.043-3.5093.89l-.3081-.317c-1.1224-1.153-.5758-3.088.9839-3.484l.4282-.108Z" fill="url(#E)"/>
  <mask id="G" fill="#fff">
    <path fill-rule="evenodd" clip-rule="evenodd" d="M119.862 34.95c.98 0 1.774-.7943 1.774-1.7741 0-.9799-.794-1.7742-1.774-1.7742s-1.774.7943-1.774 1.7742c0 .9798.794 1.7741 1.774 1.7741Zm0 1.3307c1.715 0 3.105-1.3901 3.105-3.1048 0-1.7148-1.39-3.1049-3.105-3.1049s-3.105 1.3901-3.105 3.1049c0 1.7147 1.39 3.1048 3.105 3.1048Z"/>
  </mask>
  <path d="M119.01 33.1759c0-.4706.382-.8521.852-.8521v5.2525c2.43 0 4.401-1.9701 4.401-4.4004h-5.253Zm.852.8521c-.47 0-.852-.3815-.852-.8521h5.253c0-2.4304-1.971-4.4005-4.401-4.4005v5.2526Zm.852-.8521a.8518.8518 0 0 1-.852.8521v-5.2526c-2.43 0-4.4 1.9701-4.4 4.4005h5.252Zm-.852-.8521c.471 0 .852.3815.852.8521h-5.252c0 2.4303 1.97 4.4004 4.4 4.4004v-5.2525Zm.479.8521a.4791.4791 0 0 1-.479.4785v5.2526c3.165 0 5.731-2.5659 5.731-5.7311h-5.252Zm-.479-.4786c.264 0 .479.2143.479.4786h5.252c0-3.1652-2.566-5.7312-5.731-5.7312v5.2526Zm-.478.4786c0-.2643.214-.4786.478-.4786v-5.2526c-3.165 0-5.731 2.566-5.731 5.7312h5.253Zm.478.4785a.4783.4783 0 0 1-.478-.4785h-5.253c0 3.1652 2.566 5.7311 5.731 5.7311v-5.2526Z" fill="url(#F)" mask="url(#G)"/>
  <defs>
    <linearGradient id="a" x1="62.452" y1="-11.6521" x2="63.6425" y2="192.437" gradientUnits="userSpaceOnUse">
      <stop stop-color="#6767EF" stop-opacity="0"/>
      <stop offset="1" stop-color="#2A2ADE" stop-opacity=".3"/>
    </linearGradient>
    <linearGradient id="b" x1="62.0632" y1="20.7943" x2="62.0632" y2="28.0601" gradientUnits="userSpaceOnUse">
      <stop stop-color="#ABABFF"/>
      <stop offset="1" stop-color="#7070FF"/>
    </linearGradient>
    <linearGradient id="d" x1="92.9543" y1="59.0923" x2="40.161" y2="52.3282" gradientUnits="userSpaceOnUse">
      <stop stop-color="#CFCFFF"/>
      <stop offset="1" stop-color="#F3F3FF"/>
    </linearGradient>
    <linearGradient id="e" x1="94.2317" y1="35.2997" x2="28.8317" y2="35.2997" gradientUnits="userSpaceOnUse">
      <stop stop-color="#E8E8FC"/>
      <stop offset="1" stop-color="#ABABFF"/>
    </linearGradient>
    <linearGradient id="f" x1="94.2317" y1="51.8652" x2="28.8317" y2="51.8652" gradientUnits="userSpaceOnUse">
      <stop stop-color="#E8E8FC"/>
      <stop offset="1" stop-color="#ABABFF"/>
    </linearGradient>
    <linearGradient id="g" x1="94.2317" y1="68.4307" x2="28.8317" y2="68.4307" gradientUnits="userSpaceOnUse">
      <stop stop-color="#E8E8FC"/>
      <stop offset="1" stop-color="#ABABFF"/>
    </linearGradient>
    <linearGradient id="h" x1="94.232" y1="84.9961" x2="28.832" y2="84.9961" gradientUnits="userSpaceOnUse">
      <stop stop-color="#E8E8FC"/>
      <stop offset="1" stop-color="#ABABFF"/>
    </linearGradient>
    <linearGradient id="j" x1="35.9951" y1="86.1299" x2="11.9777" y2="84.0763" gradientUnits="userSpaceOnUse">
      <stop stop-color="#CFCFFF"/>
      <stop offset="1" stop-color="#F3F3FF"/>
    </linearGradient>
    <linearGradient id="l" x1="113.007" y1="12.1537" x2="89.822" y2="7.3202" gradientUnits="userSpaceOnUse">
      <stop stop-color="#C6C6FF"/>
      <stop offset="1" stop-color="#F2F2FF"/>
    </linearGradient>
    <linearGradient id="m" x1="35.9442" y1="84.6343" x2="7.7213" y2="84.6343" gradientUnits="userSpaceOnUse">
      <stop stop-color="#E8E8FC"/>
      <stop offset="1" stop-color="#ABABFF"/>
    </linearGradient>
    <linearGradient id="n" x1="35.9292" y1="103.037" x2="7.9489" y2="103.037" gradientUnits="userSpaceOnUse">
      <stop stop-color="#E8E8FC"/>
      <stop offset="1" stop-color="#ABABFF"/>
    </linearGradient>
    <linearGradient id="o" x1="35.9292" y1="93.4103" x2="7.9489" y2="93.4103" gradientUnits="userSpaceOnUse">
      <stop stop-color="#E8E8FC"/>
      <stop offset="1" stop-color="#ABABFF"/>
    </linearGradient>
    <linearGradient id="p" x1="22.5765" y1="70.8486" x2="9.3288" y2="70.8486" gradientUnits="userSpaceOnUse">
      <stop stop-color="#E8E8FC"/>
      <stop offset="1" stop-color="#ABABFF"/>
    </linearGradient>
    <linearGradient id="q" x1="88.8039" y1="10.2673" x2="88.8039" y2="16.1729" gradientUnits="userSpaceOnUse">
      <stop stop-color="#ABABFF"/>
      <stop offset="1" stop-color="#7070FF"/>
    </linearGradient>
    <linearGradient id="r" x1="99.3561" y1="10.2673" x2="99.3561" y2="16.1729" gradientUnits="userSpaceOnUse">
      <stop stop-color="#ABABFF"/>
      <stop offset="1" stop-color="#7070FF"/>
    </linearGradient>
    <linearGradient id="s" x1="109.908" y1="10.2673" x2="109.908" y2="16.1729" gradientUnits="userSpaceOnUse">
      <stop stop-color="#ABABFF"/>
      <stop offset="1" stop-color="#7070FF"/>
    </linearGradient>
    <linearGradient id="u" x1="96.0225" y1="61.625" x2="116.312" y2="116.646" gradientUnits="userSpaceOnUse">
      <stop stop-color="#fff"/>
      <stop offset="1" stop-color="#D2F7FF"/>
    </linearGradient>
    <linearGradient id="v" x1="96.022" y1="60.1621" x2="96.022" y2="105.838" gradientUnits="userSpaceOnUse">
      <stop stop-color="#ABABFF"/>
      <stop offset="1" stop-color="#7070FF"/>
    </linearGradient>
    <linearGradient id="w" x1="96.0232" y1="70.0486" x2="96.0232" y2="93.9957" gradientUnits="userSpaceOnUse">
      <stop stop-color="#7070FF"/>
      <stop offset="1" stop-color="#5555FD"/>
    </linearGradient>
    <linearGradient id="y" x1="59.0035" y1="101.51" x2="59.0035" y2="122.8" gradientUnits="userSpaceOnUse">
      <stop stop-color="#7070FF"/>
      <stop offset="1" stop-color="#5555FD"/>
    </linearGradient>
    <linearGradient id="z" x1="16.9508" y1="4.2314" x2="16.9508" y2="25.5216" gradientUnits="userSpaceOnUse">
      <stop stop-color="#7070FF"/>
      <stop offset="1" stop-color="#5555FD"/>
    </linearGradient>
    <linearGradient id="A" x1="62.7761" y1="8.5541" x2="58.8815" y2="1.1308" gradientUnits="userSpaceOnUse">
      <stop stop-color="#5149F2"/>
      <stop offset="1" stop-color="#F7F7FF"/>
    </linearGradient>
    <linearGradient id="C" x1="116.122" y1="56.4755" x2="122.318" y2="62.8239" gradientUnits="userSpaceOnUse">
      <stop stop-color="#7070FF"/>
      <stop offset="1" stop-color="#5555FD"/>
    </linearGradient>
    <linearGradient id="D" x1="15.4728" y1="50.7188" x2="9.1164" y2="56.9065" gradientUnits="userSpaceOnUse">
      <stop stop-color="#7070FF"/>
      <stop offset="1" stop-color="#5555FD"/>
    </linearGradient>
    <linearGradient id="E" x1="97.8349" y1="111.275" x2="91.4784" y2="117.463" gradientUnits="userSpaceOnUse">
      <stop stop-color="#7070FF"/>
      <stop offset="1" stop-color="#5555FD"/>
    </linearGradient>
    <linearGradient id="F" x1="122.055" y1="34.3937" x2="118.161" y2="26.9704" gradientUnits="userSpaceOnUse">
      <stop stop-color="#5149F2"/>
      <stop offset="1" stop-color="#F7F7FF"/>
    </linearGradient>
    <filter id="c" x="12.1571" y="20.8942" width="99.812" height="91.0762" filterUnits="userSpaceOnUse" color-interpolation-filters="sRGB">
      <feFlood flood-opacity="0" result="BackgroundImageFix"/>
      <feColorMatrix in="SourceAlpha" values="0 0 0 0 0 0 0 0 0 0 0 0 0 0 0 0 0 0 127 0" result="hardAlpha"/>
      <feOffset dy="3.4837"/>
      <feGaussianBlur stdDeviation="5.2255"/>
      <feComposite in2="hardAlpha" operator="out"/>
      <feColorMatrix values="0 0 0 0 0.0196078 0 0 0 0 0.168627 0 0 0 0 0.396078 0 0 0 0.15 0"/>
      <feBlend in2="BackgroundImageFix" result="effect1_dropShadow_54_16987"/>
      <feBlend in="SourceGraphic" in2="effect1_dropShadow_54_16987" result="shape"/>
    </filter>
    <filter id="i" x=".2791" y="63.0305" width="43.5771" height="55.4094" filterUnits="userSpaceOnUse" color-interpolation-filters="sRGB">
      <feFlood flood-opacity="0" result="BackgroundImageFix"/>
      <feColorMatrix in="SourceAlpha" values="0 0 0 0 0 0 0 0 0 0 0 0 0 0 0 0 0 0 127 0" result="hardAlpha"/>
      <feOffset dy="2"/>
      <feGaussianBlur stdDeviation="2"/>
      <feComposite in2="hardAlpha" operator="out"/>
      <feColorMatrix values="0 0 0 0 0.0196078 0 0 0 0 0.168627 0 0 0 0 0.396078 0 0 0 0.1 0"/>
      <feBlend in2="BackgroundImageFix" result="effect1_dropShadow_54_16987"/>
      <feBlend in="SourceGraphic" in2="effect1_dropShadow_54_16987" result="shape"/>
    </filter>
    <filter id="k" x="75.2913" y=".9837" width="47.5771" height="31.4445" filterUnits="userSpaceOnUse" color-interpolation-filters="sRGB">
      <feFlood flood-opacity="0" result="BackgroundImageFix"/>
      <feColorMatrix in="SourceAlpha" values="0 0 0 0 0 0 0 0 0 0 0 0 0 0 0 0 0 0 127 0" result="hardAlpha"/>
      <feOffset dy="3.4837"/>
      <feGaussianBlur stdDeviation="3"/>
      <feComposite in2="hardAlpha" operator="out"/>
      <feColorMatrix values="0 0 0 0 0.0196078 0 0 0 0 0.168627 0 0 0 0 0.396078 0 0 0 0.15 0"/>
      <feBlend in2="BackgroundImageFix" result="effect1_dropShadow_54_16987"/>
      <feBlend in="SourceGraphic" in2="effect1_dropShadow_54_16987" result="shape"/>
    </filter>
    <filter id="t" x="57.5973" y="44.9499" width="76.8503" height="74.9753" filterUnits="userSpaceOnUse" color-interpolation-filters="sRGB">
      <feFlood flood-opacity="0" result="BackgroundImageFix"/>
      <feGaussianBlur in="BackgroundImageFix" stdDeviation="8.3376"/>
      <feComposite in2="SourceAlpha" operator="in" result="effect1_backgroundBlur_54_16987"/>
      <feBlend in="SourceGraphic" in2="effect1_backgroundBlur_54_16987" result="shape"/>
    </filter>
    <filter id="x" x="42.7879" y="62.4561" width="72.8878" height="45.8879" filterUnits="userSpaceOnUse" color-interpolation-filters="sRGB">
      <feFlood flood-opacity="0" result="BackgroundImageFix"/>
      <feBlend in="SourceGraphic" in2="BackgroundImageFix" result="shape"/>
      <feGaussianBlur stdDeviation="10.422" result="effect1_foregroundBlur_54_16987"/>
    </filter>
  </defs>
</svg>
