<svg id="Layer_1" data-name="Layer 1" xmlns="http://www.w3.org/2000/svg" xmlns:xlink="http://www.w3.org/1999/xlink" width="800" height="800" viewBox="0 0 800 800"><defs><style>.cls-1{fill:none;}.cls-2{clip-path:url(#clip-path);}.cls-3{fill:url(#linear-gradient);}</style><clipPath id="clip-path"><rect class="cls-1" x="178.3" y="206.01" width="443.4" height="387.97"/></clipPath><linearGradient id="linear-gradient" x1="197.56" y1="199.56" x2="602.44" y2="604.44" gradientTransform="matrix(1, 0, 0, -1, 0, 802)" gradientUnits="userSpaceOnUse"><stop offset="0" stop-color="#9945ff"/><stop offset="0.2" stop-color="#7962e7"/><stop offset="1" stop-color="#00d18c"/></linearGradient></defs><title>solana-logo-freelogovectors.net_</title><circle cx="400" cy="400" r="369.5"/><g class="cls-2"><path class="cls-3" d="M258.52,501.85a14.86,14.86,0,0,1,5-3.59,15.13,15.13,0,0,1,6-1.27l338.61.28a7.44,7.44,0,0,1,5.49,12.46l-72.11,79.4a14.86,14.86,0,0,1-11,4.86l-338.6-.28a7.45,7.45,0,0,1-5.49-12.46Zm355.07-66.09a7.44,7.44,0,0,1-5.49,12.46l-338.6.28a14.86,14.86,0,0,1-11-4.86L186.41,364.2a7.47,7.47,0,0,1-1.84-3.82,7.43,7.43,0,0,1,3.27-7.43,7.52,7.52,0,0,1,4.06-1.22l338.61-.27a14.81,14.81,0,0,1,11,4.86ZM258.52,210.87a14.81,14.81,0,0,1,11-4.86l338.61.28a7.44,7.44,0,0,1,6.8,4.44,7.42,7.42,0,0,1-1.31,8l-72.11,79.4a14.86,14.86,0,0,1-11,4.86l-338.6-.28a7.42,7.42,0,0,1-6.8-4.45,7.46,7.46,0,0,1,1.31-8Z"/></g><rect class="cls-1" width="800" height="800"/></svg>