<svg width="24" height="24" viewBox="0 0 24 24" fill="none" xmlns="http://www.w3.org/2000/svg">
<g clip-path="url(#clip0_1617_13544)">
<path d="M12 24C18.6274 24 24 18.6274 24 12C24 5.37258 18.6274 0 12 0C5.37258 0 0 5.37258 0 12C0 18.6274 5.37258 24 12 24Z" fill="black"/>
<path d="M17.4434 14.7644L15.6275 16.6616C15.588 16.7028 15.5402 16.7356 15.4872 16.7581C15.4341 16.7806 15.3768 16.7921 15.319 16.7921H6.71081C6.66974 16.7921 6.62956 16.7804 6.59521 16.7585C6.56086 16.7365 6.53384 16.7053 6.51747 16.6686C6.5011 16.6319 6.49609 16.5913 6.50305 16.5519C6.51002 16.5125 6.52866 16.4759 6.55668 16.4466L8.37393 14.5494C8.4133 14.5083 8.46091 14.4755 8.5138 14.4531C8.56671 14.4306 8.62378 14.419 8.68149 14.4189H17.2892C17.3303 14.4189 17.3704 14.4306 17.4048 14.4525C17.4391 14.4745 17.4661 14.5057 17.4826 14.5424C17.4989 14.5791 17.5039 14.6196 17.4969 14.6591C17.49 14.6985 17.4713 14.7351 17.4434 14.7644ZM15.6275 10.9439C15.588 10.9027 15.5402 10.8699 15.4872 10.8474C15.4341 10.825 15.3768 10.8134 15.319 10.8134H6.71081C6.66974 10.8134 6.62956 10.8251 6.59521 10.847C6.56086 10.869 6.53384 10.9002 6.51747 10.9369C6.5011 10.9736 6.49609 11.0142 6.50305 11.0536C6.51002 11.093 6.52866 11.1296 6.55668 11.1589L8.37393 13.0561C8.4133 13.0972 8.46091 13.13 8.5138 13.1525C8.56671 13.1749 8.62378 13.1865 8.68149 13.1866H17.2892C17.3303 13.1866 17.3704 13.1749 17.4048 13.153C17.4391 13.1311 17.4661 13.0998 17.4826 13.0631C17.4989 13.0264 17.5039 12.9859 17.4969 12.9464C17.49 12.907 17.4713 12.8704 17.4434 12.8411L15.6275 10.9439ZM6.71081 9.58117H15.319C15.3768 9.58119 15.4341 9.56962 15.4872 9.54717C15.5402 9.52471 15.588 9.49185 15.6275 9.45064L17.4434 7.55343C17.4713 7.52418 17.49 7.48758 17.4969 7.44815C17.5039 7.40872 17.4989 7.36816 17.4826 7.33146C17.4661 7.29476 17.4391 7.26352 17.4048 7.24158C17.3704 7.21964 17.3303 7.20795 17.2892 7.20795H8.68149C8.62378 7.20804 8.56671 7.21968 8.5138 7.24213C8.46091 7.26458 8.4133 7.29737 8.37393 7.33847L6.55715 9.23568C6.52915 9.2649 6.51052 9.30146 6.50354 9.34085C6.49656 9.38024 6.50153 9.42076 6.51785 9.45744C6.53416 9.49413 6.56111 9.52536 6.59538 9.54734C6.62966 9.56932 6.66978 9.58107 6.71081 9.58117Z" fill="#66FFF6"/>
</g>
<defs>
<clipPath id="clip0_1617_13544">
<rect width="24" height="24" fill="white"/>
</clipPath>
</defs>
</svg>
