<svg viewBox="0 0 15 16" version="1.1" xmlns="http://www.w3.org/2000/svg">
  <g stroke="none" stroke-width="1" fill="none" fill-rule="evenodd">
    <path d="M5.82050268 10.7412688c-.13504336.0685581-.14377065.194714-.01940674.2802719l.70771443.4870647c.1243639.0855578.32049829.2349765.4357904.3319421l.19900521.167425c.11517728.0968537.30292888.2566736.41707266.3548694l.18878509.1626158c.05075609.0437296.11609595.0669924.18292863.0720252v3.4039773c-.17305301.0006664-.3345079-.0709114-.48907282-.168548-1.78059711-1.1257849-3.58473493-2.3651996-3.58473493-2.3651996-.54844137-.3804808-.9426623-.9362155-1.11387798-1.5705739L1.25877044 6.39358734.93241568 5.1863827l.5041159-1.33928809-.36769456-.79887556c-.036402-.07895928-.01917707-.17145124.04317713-.23296343l.97470064-.96137957s.99502605-.43550629 2.30963173.73199503c-.0059713-.0011184-.08842124.09293933-.18338795.20891776l-.6161927.75290918c-.09485188.11609027-.24229717.31147535-.32761793.43438788l-.4568048.65840409c-.08520593.12291254-.18327312.28172582-.21772296.35274444-.03444983.0712423-.06465085.33451446-.0623542.41694079l.02308139.07168966c.03709099.12872823.04248813.13543866.04248813.13543866.09531121.11553107.25883309.29850187.36321609.40653964L4.5742225 7.69227739c.10449783.10803777.14135915.30812014.08210544.44478904l-.2641154.60874697c-.05925371.1366689-.06476569.36225087-.01228711.50160394l.05339725.14158987c.08669875.22972006.23517753.43226292.42993393.58671443l.25355078.20108896c.1180481.0937222.32727343.1181034.46472827.0542425l.900289-.41794732c.13756967-.06386083.34254619-.19728636.45565648-.29671242l.7212647-.63391106c.12103375-.10636016.12769405-.28921912.01458376-.40363179L6.04637876 7.41088709c-.12631606-.08287369-.17110085-.25779199-.09956003-.38875703l.63100614-1.15542256c.07154082-.13096504.08532075-.33764599.03066035-.4591046-.0546604-.12145862-.21600046-.26383137-.35850794-.31628449l-1.97776499-.72740958c-.14250749-.05245312-.13504335-.10680753.01653592-.12078757l1.16130391-.10725489c.15169411-.01398004.39571377.00715779.54247006.04697295l1.01144714.27467988c.14675629.03981516.24436416.19180618.21691912.33764599l-.39720659 2.1125522c-.02744503.14595165-.03640199.3063307-.01986607.35654701.01642109.05021632.15180894.11664948.30074706.14751741l.61573337.12794535c.05959821.01230244.13435435.01923654.21209615.02124967v2.25526048h-.05925372c-.0199809 0-.15134961.04663742-.29201976.10356416l-.44359904.17950373c-.14067015.0569267-.36631657.1595962-.50135992.2280425l-.81565724.4139211zm4.2238138 0l-.81565724-.4139211c-.13504335-.0684463-.36068977-.1711158-.50135992-.2280425l-.44359904-.17961557c-.14067015-.0568149-.27203886-.10345232-.29201976-.10345232H7.9324268V7.56097683c.07762696-.00201313.15249794-.00894723.21209615-.02124967l.61573337-.12794535c.14893812-.03086793.28421114-.09730109.30074706-.14751741.01653592-.05021631.00757896-.21059536-.01986607-.35654701l-.39720659-2.1125522c-.02744504-.14583981.07016283-.29783083.21691912-.33764599l1.01144714-.27467988c.14675629-.03981516.39077595-.06095299.54247006-.04697295l1.16118906.10725489c.1516941.01398004.1591583.06833445.0166508.12078757l-1.97776502.72740958c-.14250748.05245312-.30384754.19482587-.35850794.31628449-.0546604.12145861-.04088047.32813956.03066035.4591046l.63100614 1.15542256c.07154082.13096504.02675603.30588334-.09956003.38875703L8.19148956 8.47885051c-.11311029.11441267-.10644999.29727163.01458376.40363179l.7212647.63391106c.11311029.09942606.31808681.23285159.45565648.29671242l.900289.41794732c.13745484.0638609.3466802.0394797.4647283-.0542425l.2535507-.20108896c.1947564-.15445151.3432352-.35699437.429934-.58671443l.0533972-.14158987c.0524786-.13935307.0469666-.36493504-.0122871-.50160394l-.2641154-.60874697c-.0592537-.1366689-.0223924-.33675127.0821055-.44478904l1.6131709-1.66843421c.104383-.10803777.2679048-.29100857.3632161-.40653964 0 0 .0053971-.00671043.0424881-.13543866l.0230814-.07168966c.0022966-.08242633-.0279044-.34569849-.0623542-.41694079-.0344499-.07101862-.1325171-.2298319-.217723-.35274444l-.4568048-.65840409c-.0853207-.12291253-.232766-.31829761-.3276179-.43438788l-.6161927-.75290918c-.0949667-.11597843-.1774167-.21003616-.183388-.20891776 1.3144909-1.16750132 2.3096318-.73199503 2.3096318-.73199503l.9747006.96137957c.0623542.06151219.0795791.15400415.0431771.23296343l-.3676945.79887556.5041159 1.33928809-.3263548 1.20720464-1.4859362 5.50355136c-.1712156.6343584-.5654366 1.1900931-1.1139928 1.5705739 0 0-1.80402297 1.2394147-3.58462008 2.3651996-.15456492.0976366-.31601981.1692144-.48907282.168548v-3.4040891c.06683268-.004921.13217254-.0281838.18292863-.0719134l.18878509-.1626158c.11414378-.0981958.30178055-.2580157.41707266-.3548694l.19900521-.167425c.11529211-.0969656.3114265-.2463843.4357904-.3319421l.70771443-.4870647c.12436391-.0856697.11563662-.2117138-.01940674-.2802719z" fill="#696970"/>
    <path d="M7.9324268-.00004537h.00329571l2.49830198.01946022L11.8958458 1.5756732l.2603259-.08913675c.5680778-.19471404 1.2004619-.05144656 1.6218982.36739552 0 0-.9951409-.43550629-2.3095169.73199503-.0059713.00100657-.0113684.00100657-.0122871-.00011184-.0009186-.00100656-.1240194.02091415-.2735317.04887423l-.94358094.17637222c-.14962711.02807193-.33542655.06251875-.41293868.07683431-.07739729.01420373-.25940725-.01151955-.40432622-.05726225l-.74492025-.23520024c-.14491897-.04585454-.38480465-.1106101-.5331686-.14427404 0 0-.05981882-.01297151-.21137271-.01230259-.15157927-.00067089-.21140715.01230259-.21140715.01230259-.14836395.03366394-.38824963.0984195-.5331686.14427404l-.74492025.23520024c-.14491897.0457427-.32692893.07146598-.40432622.05726225-.07762696-.01431556-.26331157-.04876238-.41293868-.07683431l-.94358097-.17637222c-.14962711-.02796008-.27261302-.04988079-.27353168-.04887423-.00091867.00111841-.00643064.00111841-.01228711.00011184-1.31449085-1.16750132-2.3095169-.73199503-2.3095169-.73199503.42143631-.41884208 1.05382044-.56210956 1.62178337-.36739552l.26044075.08913675L5.43079467.01941485l2.49830198-.01946022h.00333015z" fill="#696970"/>
    <path d="M7.9324268 2.43886774c.15155389-.00074695.21137271.01233639.21137271.01233639.14836395.0335521.38824963.0984195.5331686.1441622l.74492025.23531208c.14491897.04563086.32692893.07146597.40432622.05715041.07751213-.01420372.26331157-.04876239.41293868-.07672247l.94358094-.17637222c.1495123-.02796009.2726131-.04999263.2735317-.04887423.0009187.00100656.0063158.00100656.0122871 0 .0058565-.0011184.0883064.09293932.1832731.20891776l.6161927.75290917c.0949668.11609028.2422972.31147535.327618.43438789l.4568048.65840409c.0853207.12291253.1832731.28172582.2177229.35274444.0344499.07124229.0646509.33451446.0624691.41705263l-.0231963.07157782c-.0369761.12884007-.0423733.13543865-.0423733.13543865-.095426.11553107-.2589479.29861371-.3633309.40653964L11.2905622 7.6922662c-.104383.10803777-.1413591.30812015-.0821054.44478904l.2641154.60874698c.0592537.1366689.0648805.36225087.0122871.50160393l-.0533973.14158987c-.0866987.22972006-.2350627.43226292-.4299339.58671443l-.2535508.20108895c-.1180481.0937222-.32715858.1181034-.46472825.0543544l-.900289-.4180592c-.13745484-.06386084-.34254619-.19728636-.45554165-.29671243l-.72137953-.63391105c-.12103375-.10636017-.12769405-.28921913-.01458376-.40363179l1.62695084-1.06796342c.1264309-.0828737.17121568-.25779199.09967486-.38875703l-.63112097-1.15542257c-.07154082-.13096504-.08532075-.33753415-.03066035-.4591046.05477524-.12145861.21600046-.26383136.35850794-.31628448l1.97787987-.72740958c.1423926-.05245312.1349285-.10680753-.0166508-.12078757l-1.16130391-.10725489c-.15157927-.01398004-.39571377.00715778-.54247006.04697294l-1.01144714.27467988c-.14675629.03981516-.24424932.19180619-.21691912.33764599l.39720659 2.11255221c.02744503.14595165.03640199.30633069.0199809.35654701-.01653592.05021631-.15192377.11664947-.30086189.14751741l-.61573337.12794535c-.0595894.01230062-.13444705.01923449-.21206172.02124877-.07774177-.00201223-.15249791-.00894633-.21209612-.02124877l-.61573338-.12794535c-.14893811-.03086794-.28432596-.0973011-.30086188-.14751741-.01642109-.05021632-.00746413-.21059536.0199809-.35654701L7.22092289 4.795154c.0273302-.1458398-.07016283-.29783083-.21691912-.33764599l-1.01144714-.27467988c-.14675629-.03981516-.39089079-.06095298-.54247006-.04697294l-1.16130391.10725489c-.15157928.01398004-.15904341.06833445-.01665076.12078757l1.97787983.72740958c.14250748.05245312.3037327.19482587.35850794.31628448.0546604.12157045.04076564.32813956-.03066035.4591046l-.63112097 1.15542257c-.07154082.13096504-.02675604.30588333.09967486.38875703l1.62695084 1.06796342c.11299546.11441266.10644999.29727162-.01458376.40363179l-.72137953.63391105c-.11311029.09942607-.31808681.23285159-.45554165.29671243l-.900289.4180592c-.13756967.063749-.34668017.0393678-.46472827-.0543544l-.25355078-.20108895c-.19487123-.15445151-.34323518-.35699437-.42993393-.58671443l-.05339725-.14158987c-.05259341-.13935306-.0469666-.36493503.01228711-.50160393l.2641154-.60874698c.05925371-.13666889.02227756-.33675127-.08210544-.44478904L2.96108604 6.02383199c-.104383-.10792593-.26790488-.29100857-.36333092-.40653964 0 0-.00539714-.00659858-.0423733-.13543865l-.02319622-.07157782c-.00229665-.08253817.0280192-.34581034.06246903-.41705263.03444984-.07101862.1324022-.22983191.21760812-.35274444l.45691964-.65840409c.08532076-.12291254.23265122-.31829761.32761793-.43438789l.6161927-.75290917c.09496671-.11597844.17741665-.21003616.18327312-.20891776.00585647.00100656.01136844.00100656.01228711 0 .00091866-.0011184.12390457.02091414.27353168.04887423l.94358097.17637222c.14962711.02796008.33531172.06251875.41293868.07672247.07739729.01431556.25940725-.01140771.40432622-.05715041l.74492025-.23531208c.14491897-.0457427.38480465-.1106101.5331686-.1441622 0 0 .05982788-.01308532.21140715-.01233622zm-.00001148 7.37741431h.05936855c.01986607 0 .15123477.04652558.29190493.10345231l.44359903.17950374c.14067016.0569267.36631658.1595962.50135993.2280425l.81565724.4140329c.13504335.0685581.14388548.1946022.01940674.2801601l-.70771443.4871765c-.1243639.085446-.32049829.2348647-.43567557.3319421l-.19912004.167425c-.11529212.0968538-.30292888.2566736-.41707267.3548694l-.18878509.1626159c-.05075609.0436177-.11598111.0668805-.18292862.0718015-.06694751-.004921-.13217253-.0281838-.18292862-.0718015l-.18878509-.1626159c-.11414379-.0981958-.30189538-.2580156-.41707266-.3548694l-.19912005-.167425c-.11517728-.0970774-.31131167-.2464961-.43567557-.3319421l-.70782926-.4871765c-.1243639-.0854461-.11552178-.211602.01952157-.2801601l.81565725-.4140329c.13504335-.0684463.36068976-.1711158.50135992-.2280425l.44359903-.1793919c.14067016-.05703857.27203886-.10356415.29190493-.10356415h.05936855z" fill="#FFFFFF"/>
  </g>
</svg>