<svg height="12" viewBox="0 0 12 12" width="12" xmlns="http://www.w3.org/2000/svg"><path d="m10.7641251 10.2302779-4.23561083-4.23213643 4.23561083-4.23213645c.1469802-.14698977.1469802-.38530728 0-.53229705-.1469803-.14698978-.3852824-.14698978-.5322626 0l-4.2318625 4.23588501-4.23186248-4.23588501c-.09507956-.09508572-.23366103-.13222091-.36354212-.09741713-.12988109.03480379-.23132976.13625903-.2661313.26614853-.03480153.1298895.00233126.26847994.09741082.36356565l4.23561081 4.23213645-4.23561081 4.23213643c-.0709606.0703857-.11087492.1661976-.11087492.2661485 0 .099951.03991432.1957629.11087492.2661486.07038108.0709652.1661868.1108821.2661313.1108821s.19575021-.0399169.2661313-.1108821l4.23186248-4.23588505 4.2318625 4.23588505c.0703811.0709652.1661868.1108821.2661313.1108821s.1957502-.0399169.2661313-.1108821c.0709606-.0703857.1108749-.1661976.1108749-.2661486 0-.0999509-.0399143-.1957628-.1108749-.2661485z" fill="#373843" fill-rule="evenodd"/></svg>