<svg height="12" viewBox="0 0 12 12" width="12" xmlns="http://www.w3.org/2000/svg"><path d="m4.04590045 7.4223137-2.29878756-2.2971966c-.20075862-.20061967-.11682129-.54414581.15350127-.62822703 1.03489458-.32189396 2.13620733-.2566789 3.10681773.16193343l1.64348244-1.64152548c-.18929883-.64499902-.18870098-1.34129778.01669106-2.00237208.08393974-.27016821.42265803-.3545926.62222172-.15508666l3.84947729 3.84836338c.2007828.20072469.1166479.54435327-.153824.62825706-.6618263.20530682-1.35914861.20513766-2.00493732.01438352l-1.64048901 1.64037121c.41889418.97087509.4842542 2.07262809.16212236 3.10825885-.08400111.2700575-.42258957.3544272-.62213173.1550232l-2.3019791-2.30038596-3.18882813 3.18630236c-.14695712.1468408-.38439253.1460065-.53032685-.0018634s-.14510518-.38678.00185194-.5336207zm4.19006465-2.39086714c-.25657127-.14805266-.49684998-.33094433-.71370243-.54745441-.21910151-.2188717-.40388244-.46174618-.55307477-.7212589l-1.27095693 1.26944354c.24772984.16365503.48170043.35379494.69772066.56970294.21632935.21630295.40682364.45061495.57075805.69873112zm.76390635-.46937338c.00729382.00247367.01452686.0051793.02168773.00811685.34404943.1270813.71139259.18294986 1.07928192.16365602l-2.83574753-2.83492696c-.04040697.74958493.23247653 1.49700162.78550499 2.04945004.27585108.27541556.60025961.48136988.94927289.61370405zm-3.13252018 1.57516534c-.82970119-.82927018-1.97811642-1.2020371-3.10286073-1.0590412l4.16089109 4.15801137c.14363188-1.12298322-.22860878-2.26964986-1.05803036-3.09897017z" fill="#373843" fill-rule="evenodd"/></svg>