<svg height="12" viewBox="0 0 12 12" width="12" xmlns="http://www.w3.org/2000/svg"><path d="m4.04590045 7.4223137-2.29878756-2.2971966c-.20075862-.20061967-.11682129-.54414581.15350127-.62822703 1.03489458-.32189396 2.13620733-.2566789 3.10681773.16193343l1.64348244-1.64152548c-.18929883-.64499902-.18870098-1.34129778.01669106-2.00237208.08393974-.27016821.42265803-.3545926.62222172-.15508666l3.84947729 3.84836338c.2007828.20072469.1166479.54435327-.153824.62825706-.6618263.20530682-1.35914861.20513766-2.00493732.01438352l-1.64048901 1.64037121c.41889418.97087509.4842542 2.07262809.16212236 3.10825885-.08400111.2700575-.42258957.3544272-.62213173.1550232l-2.3019791-2.30038596-3.18882813 3.18630236c-.14695712.1468408-.38439253.1460065-.53032685-.0018634s-.14510518-.38678.00185194-.5336207z" fill="#373843" fill-rule="evenodd"/></svg>