<svg width="24" height="24" xmlns="http://www.w3.org/2000/svg"><path d="M19.61 17.472a7.471 7.471 0 0 0 .042 2.778h.598a.75.75 0 1 1 0 1.5H6.042c-1.678 0-3.042-1.339-3.042-3V4.615C3 3.294 4.132 2.25 5.5 2.25h13.382c.752 0 1.368.6 1.368 1.352V15.75a.75.75 0 1 1 0 1.5h-.21a.748.748 0 0 1-.43.222zm-1.484-.222H6.042c-.856 0-1.542.674-1.542 1.5s.686 1.5 1.542 1.5h12.084a8.965 8.965 0 0 1 0-3zM4.5 16.163c.452-.263.98-.413 1.542-.413H18.75v-12h-3v6.75a.75.75 0 0 1-1.226.58L12 9.009l-2.524 2.07A.75.75 0 0 1 8.25 10.5V3.75H5.5c-.566 0-1 .4-1 .864v11.549zM9.75 3.75v5.165l1.774-1.456a.75.75 0 0 1 .952 0l1.774 1.456V3.75h-4.5z" fill-rule="evenodd"/></svg>