<svg width="24" height="24" xmlns="http://www.w3.org/2000/svg"><path d="M12 5.4a.75.75 0 0 0-.75.75v5.209A1.494 1.494 0 0 0 12 14.15a1.5 1.5 0 0 0 1.234-.65H15.9a.75.75 0 0 0 0-1.5h-2.555a1.5 1.5 0 0 0-.595-.641V6.15A.75.75 0 0 0 12 5.4M22.5 12c0 5.79-4.71 10.5-10.5 10.5S1.5 17.79 1.5 12A.75.75 0 0 1 3 12c0 4.963 4.037 9 9 9s9-4.037 9-9-4.037-9-9-9C8.705 3 6.164 4.564 4.609 7.5H6.8a.75.75 0 0 1 0 1.5H2.9a.75.75 0 0 1-.75-.75v-4.5a.75.75 0 1 1 1.5 0v2.385C5.495 3.14 8.418 1.5 12 1.5c5.79 0 10.5 4.71 10.5 10.5" fill-rule="evenodd"/></svg>