<svg width="72" height="72" viewBox="0 0 72 72" fill="none" xmlns="http://www.w3.org/2000/svg">
<path d="M36 72C55.8823 72 72 55.8823 72 36C72 16.1177 55.8823 0 36 0C16.1177 0 0 16.1177 0 36C0 55.8823 16.1177 72 36 72Z" fill="#27155E"/>
<path fill-rule="evenodd" clip-rule="evenodd" d="M19.4664 57.3215C19.1191 57.6703 18.6631 57.8438 18.2071 57.8438C17.7511 57.8438 17.2951 57.6703 16.9478 57.3215C16.2513 56.6276 16.2513 55.499 16.9478 54.8033L22.4358 49.3144C16.6129 45.5746 14.625 40.4005 14.625 38.2489C14.625 33.597 22.1152 22.2185 36 22.2185C41.3473 22.2185 44.7192 23.8407 46.5842 25.166L52.5728 19.178C53.2674 18.4823 54.395 18.4823 55.0914 19.178C55.7861 19.8738 55.7861 21.0023 55.0914 21.6963L19.4664 57.3215ZM31.212 40.5382L38.2996 33.4503C37.5853 33.1087 36.8069 32.9066 36 32.9066C33.0538 32.9066 30.6563 35.305 30.6563 38.2507C30.6563 39.0519 30.8718 39.8228 31.212 40.5382ZM36 25.7812C23.916 25.7812 18.1875 35.7825 18.1875 38.2489C18.1875 39.043 19.4593 43.4695 25.0328 46.7157L28.663 43.0868C28.5383 42.9706 28.3923 42.8847 28.3014 42.7309C27.5105 41.377 27.0937 39.8281 27.0937 38.2507C27.0937 33.3412 31.0891 29.3457 36 29.3457C37.7616 29.3457 39.4556 29.8841 40.9038 30.8463L44.0067 27.7432C42.5372 26.8347 39.9953 25.7812 36 25.7812ZM35.9983 47.1538C35.0685 47.1538 34.2847 46.4331 34.2224 45.4905C34.1582 44.5086 34.901 43.6609 35.8843 43.5965C38.8073 43.4051 41.1568 41.0568 41.3474 38.1326C41.4115 37.1525 42.2843 36.4049 43.2408 36.4729C44.2223 36.5355 44.9669 37.3832 44.9027 38.3651C44.5964 43.0653 40.8183 46.8426 36.1158 47.152C36.0766 47.1538 36.0375 47.1538 35.9983 47.1538ZM31.0855 50.1282C32.6388 50.5181 34.2935 50.7166 36 50.7166C48.084 50.7166 53.8125 40.7171 53.8125 38.2489C53.8125 37.5049 53.0412 35.085 50.6561 32.3612C50.0077 31.6189 50.0825 30.494 50.8235 29.8465C51.5628 29.1991 52.6885 29.2742 53.3369 30.0146C55.7897 32.8154 57.375 36.049 57.375 38.2489C57.375 42.9008 49.8848 54.2793 36 54.2793C33.9996 54.2793 32.0527 54.045 30.2145 53.5818C29.2597 53.3421 28.6826 52.3727 28.9213 51.4195C29.1618 50.4644 30.129 49.8867 31.0855 50.1282Z" fill="#F0F2FF"/>
</svg>
