<svg xmlns="http://www.w3.org/2000/svg" xmlns:xlink="http://www.w3.org/1999/xlink" viewBox="0 0 296 217">
  <defs>
    <linearGradient id="private-window-b" x1="5.709%" x2="101.747%" y1="-3.224%" y2="98.229%">
      <stop offset="0%" stop-color="#8450FF"/>
      <stop offset="100%" stop-color="#5C2FB4"/>
    </linearGradient>
    <path id="private-window-a" d="M57.0329992,0.921964511 C92.8816191,9.81357982 119.861902,12.100959 137.973846,7.78410205 C165.141764,1.30881663 208.47628,1.9027386 230.284517,27.5955525 C252.092755,53.2883664 277.639726,87.0840763 249.792295,120.449369 C221.944865,153.814662 182.869233,166.004086 168.002127,143.646114 C153.135021,121.288142 112.935403,135.4668 97.199157,149.026208 C81.462911,162.585616 -11.8595643,147.914725 2.2851775,106.69307 C16.4299193,65.4714141 -8.02638454,54.8119253 2.90831964,25.0052367 C10.1981224,5.13411092 28.2396823,-2.89364646 57.0329992,0.921964511 Z"/>
    <circle id="private-window-e" cx="4.5" cy="22.5" r="21.5"/>
    <filter id="private-window-d" width="188.4%" height="188.4%" x="-44.2%" y="-32.6%" filterUnits="objectBoundingBox">
      <feOffset dy="5" in="SourceAlpha" result="shadowOffsetOuter1"/>
      <feGaussianBlur in="shadowOffsetOuter1" result="shadowBlurOuter1" stdDeviation="5.5"/>
      <feColorMatrix in="shadowBlurOuter1" values="0 0 0 0 0.152941   0 0 0 0 0.180392   0 0 0 0 0.25098  0 0 0 0.2 0"/>
    </filter>
    <path id="private-window-g" d="M221,56.8348028 C221,52.5077607 224.519664,49 228.842153,49 L265.257602,49 C269.588704,49 273.099755,52.5186027 273.099755,56.8348028 L273.099755,64.4992158 C273.099755,68.8262579 269.580091,72.3340186 265.257602,72.3340186 L228.842153,72.3340186 C224.511051,72.3340186 221,68.8154159 221,64.4992158 L221,56.8348028 Z"/>
    <filter id="private-window-f" width="240.1%" height="412.8%" x="-70.1%" y="-113.6%" filterUnits="objectBoundingBox">
      <feOffset dy="10" in="SourceAlpha" result="shadowOffsetOuter1"/>
      <feGaussianBlur in="shadowOffsetOuter1" result="shadowBlurOuter1" stdDeviation="10.5"/>
      <feColorMatrix in="shadowBlurOuter1" values="0 0 0 0 0.152941   0 0 0 0 0.180392   0 0 0 0 0.25098  0 0 0 0.2 0"/>
    </filter>
    <path id="private-window-i" d="M0.293749589,45.5882364 C-0.401535813,39.4549258 0.0113400532,32.9020546 2.90831964,25.0052367 C10.1981224,5.13411092 28.2396823,-2.89364646 57.0329992,0.921964511 C92.8816191,9.81357982 119.861902,12.100959 137.973846,7.78410205 C165.141764,1.30881663 208.47628,1.9027386 230.284517,27.5955525 C252.092755,53.2883664 277.639726,87.0840763 249.792295,120.449369 C221.944865,153.814662 182.869233,166.004086 168.002127,143.646114 C153.135021,121.288142 112.935403,135.4668 97.199157,149.026208 C81.462911,162.585616 -11.8595643,147.914725 2.2851775,106.69307 C7.90370014,90.3191543 7.43171795,78.7673628 5.50654399,68.9222539 L-3.59889516,68.9222539 C-7.9299966,68.9222539 -11.441048,65.4036512 -11.441048,61.0874511 L-11.441048,53.4230381 C-11.441048,49.095996 -7.92138406,45.5882353 -3.59889516,45.5882353 L0.293752591,45.5882353 Z"/>
    <filter id="private-window-h" width="101.8%" height="103.2%" x="-.9%" y="-1.6%" filterUnits="objectBoundingBox">
      <feGaussianBlur in="SourceAlpha" result="shadowBlurInner1" stdDeviation="2.5"/>
      <feOffset in="shadowBlurInner1" result="shadowOffsetInner1"/>
      <feComposite in="shadowOffsetInner1" in2="SourceAlpha" k2="-1" k3="1" operator="arithmetic" result="shadowInnerInner1"/>
      <feColorMatrix in="shadowInnerInner1" values="0 0 0 0 0   0 0 0 0 0   0 0 0 0 0  0 0 0 0.5 0"/>
    </filter>
    <filter id="private-window-j" width="145.4%" height="131.5%" x="-22.7%" y="-15.7%" filterUnits="objectBoundingBox">
      <feOffset dy="6" in="SourceAlpha" result="shadowOffsetOuter1"/>
      <feGaussianBlur in="shadowOffsetOuter1" result="shadowBlurOuter1" stdDeviation="5"/>
      <feColorMatrix in="shadowBlurOuter1" result="shadowMatrixOuter1" values="0 0 0 0 0.152941   0 0 0 0 0.180392   0 0 0 0 0.25098  0 0 0 0.2 0"/>
      <feMerge>
        <feMergeNode in="shadowMatrixOuter1"/>
        <feMergeNode in="SourceGraphic"/>
      </feMerge>
    </filter>
    <rect id="private-window-l" width="39" height="20" y="10.693" rx="7.841"/>
    <filter id="private-window-k" width="202.6%" height="300%" x="-51.3%" y="-65%" filterUnits="objectBoundingBox">
      <feOffset dy="7" in="SourceAlpha" result="shadowOffsetOuter1"/>
      <feGaussianBlur in="shadowOffsetOuter1" result="shadowBlurOuter1" stdDeviation="5.5"/>
      <feColorMatrix in="shadowBlurOuter1" values="0 0 0 0 0.152941176   0 0 0 0 0.180392157   0 0 0 0 0.250980392  0 0 0 0.2 0"/>
    </filter>
    <path id="private-window-m" d="M36.0817877,60.4126899 C36.9974127,63.0162816 38.8286629,78.0869193 44.3147831,82.4335011 C49.9725831,86.9071759 71.3142775,86.8371475 75.4002543,84.9017021 C84.5450598,80.5623828 88.2524824,66.5458367 89.8700867,60.4090587 C90.7818966,56.9339721 93.682235,56.9339721 93.682235,56.9339721 C93.682235,56.9339721 96.7548374,56.9339721 97.6704625,60.4054275 C99.2880668,66.5458367 102.830856,80.6023263 111.968031,84.9343831 C116.057823,86.877091 137.399517,86.9471194 143.064947,82.4734446 C148.543437,78.1268628 150.370872,63.0126503 151.286497,60.4054275 C152.194492,57.8018359 156.772618,55.1946131 157.684427,54.3267492 C158.603868,53.4588854 158.603868,49.9837987 157.684427,49.1123036 C155.856993,47.3765759 134.282576,45.8296721 111.052406,48.2444397 C106.417054,48.7273932 104.654475,49.9801674 93.6784199,49.9801674 C82.7099945,49.9801674 80.9397861,48.723762 76.3082492,48.2444397 C53.0933385,45.8333033 31.5151076,47.3802071 29.6838575,49.1159348 C28.7720475,49.9837987 28.7720475,53.4625166 29.6838575,54.3303805 C30.5994825,55.1982443 35.1699777,57.8054672 36.0817877,60.4126899 Z"/>
    <linearGradient id="private-window-p" x1="0%" x2="102%" y1="0%" y2="101%">
      <stop offset="0%" stop-color="#3023AE"/>
      <stop offset="100%" stop-color="#C86DD7"/>
    </linearGradient>
    <path id="private-window-o" d="M36.2472769,5.78619062 L34.2335393,5.78619062 C25.7758413,5.78619062 21.9678635,0.967974385 21.8168332,0.772064626 C21.3899208,0.197913256 20.6971951,-0.0484287176 20.014538,0.00782259917 C19.4245129,0.0272196049 18.8445565,0.267742476 18.4639601,0.762366123 C18.3068886,0.967974385 14.4989107,5.78619062 6.04121281,5.78619062 L4.02747521,5.78619062 C1.80632263,5.78619062 4.61852778e-14,7.52610203 4.61852778e-14,9.66559177 L4.61852778e-14,15.4846935 C4.61852778e-14,16.5573479 0.010068688,18.3127769 0.0221511136,19.3854314 C0.0241648512,19.5871602 0.467187124,39.7522874 19.4486778,46.401581 C19.4627739,46.4054604 19.4768701,46.4054604 19.4909663,46.4093398 C19.6983812,46.479169 19.9138512,46.5199027 20.137376,46.5199027 C20.3609009,46.5199027 20.5763708,46.479169 20.7837858,46.4093398 C20.797882,46.4054604 20.8119781,46.4054604 20.8260743,46.401581 C39.8075649,39.7522874 40.2505872,19.5871602 40.252601,19.3854314 C40.2646834,18.3127769 40.2747521,16.5573479 40.2747521,15.4846935 L40.2747521,9.66559177 C40.2747521,7.52610203 38.4684294,5.78619062 36.2472769,5.78619062 Z"/>
    <filter id="private-window-n" width="194.4%" height="181.7%" x="-47.2%" y="-30.1%" filterUnits="objectBoundingBox">
      <feOffset dy="5" in="SourceAlpha" result="shadowOffsetOuter1"/>
      <feGaussianBlur in="shadowOffsetOuter1" result="shadowBlurOuter1" stdDeviation="5.5"/>
      <feColorMatrix in="shadowBlurOuter1" values="0 0 0 0 0.152941   0 0 0 0 0.180392   0 0 0 0 0.25098  0 0 0 0.2 0"/>
    </filter>
    <circle id="private-window-r" cx="15.5" cy="15.5" r="15.5"/>
    <filter id="private-window-q" width="222.6%" height="222.6%" x="-61.3%" y="-45.2%" filterUnits="objectBoundingBox">
      <feOffset dy="5" in="SourceAlpha" result="shadowOffsetOuter1"/>
      <feGaussianBlur in="shadowOffsetOuter1" result="shadowBlurOuter1" stdDeviation="5.5"/>
      <feColorMatrix in="shadowBlurOuter1" values="0 0 0 0 0.152941   0 0 0 0 0.180392   0 0 0 0 0.25098  0 0 0 0.2 0"/>
    </filter>
    <path id="private-window-s" d="M12.75,14.40625 C12.75,14.7685 12.4553438,15.0625 12.09375,15.0625 L2.90625,15.0625 C2.54465625,15.0625 2.25,14.7685 2.25,14.40625 L2.25,7.84375 C2.25,7.4815 2.54465625,7.1875 2.90625,7.1875 L12.09375,7.1875 C12.4553438,7.1875 12.75,7.4815 12.75,7.84375 L12.75,14.40625 Z M4.875,4.5625 C4.875,3.1148125 6.0523125,1.9375 7.5,1.9375 C8.9476875,1.9375 10.125,3.1148125 10.125,4.5625 L10.125,5.875 L4.875,5.875 L4.875,4.5625 Z M12.09375,5.875 L11.4375,5.875 L11.4375,4.5625 C11.4375,2.39096875 9.67153125,0.625 7.5,0.625 C5.32846875,0.625 3.5625,2.39096875 3.5625,4.5625 L3.5625,5.875 L2.90625,5.875 C1.8208125,5.875 0.9375,6.7583125 0.9375,7.84375 L0.9375,14.40625 C0.9375,15.4916875 1.8208125,16.375 2.90625,16.375 L12.09375,16.375 C13.1791875,16.375 14.0625,15.4916875 14.0625,14.40625 L14.0625,7.84375 C14.0625,6.7583125 13.1791875,5.875 12.09375,5.875 Z"/>
    <circle id="private-window-u" cx="161.5" cy="160.5" r="15.5"/>
    <filter id="private-window-t" width="222.6%" height="222.6%" x="-61.3%" y="-45.2%" filterUnits="objectBoundingBox">
      <feOffset dy="5" in="SourceAlpha" result="shadowOffsetOuter1"/>
      <feGaussianBlur in="shadowOffsetOuter1" result="shadowBlurOuter1" stdDeviation="5.5"/>
      <feColorMatrix in="shadowBlurOuter1" values="0 0 0 0 0.152941   0 0 0 0 0.180392   0 0 0 0 0.25098  0 0 0 0.2 0"/>
    </filter>
    <circle id="private-window-v" cx="10" cy="83" r="10"/>
    <filter id="private-window-w" width="110%" height="110%" x="-5%" y="-5%" filterUnits="objectBoundingBox">
      <feGaussianBlur in="SourceAlpha" result="shadowBlurInner1" stdDeviation="1"/>
      <feOffset in="shadowBlurInner1" result="shadowOffsetInner1"/>
      <feComposite in="shadowOffsetInner1" in2="SourceAlpha" k2="-1" k3="1" operator="arithmetic" result="shadowInnerInner1"/>
      <feColorMatrix in="shadowInnerInner1" values="0 0 0 0 0   0 0 0 0 0   0 0 0 0 0  0 0 0 0.5 0"/>
    </filter>
    <circle id="private-window-x" cx="18.5" cy="112.5" r="7.5"/>
    <filter id="private-window-y" width="113.3%" height="113.3%" x="-6.7%" y="-6.7%" filterUnits="objectBoundingBox">
      <feGaussianBlur in="SourceAlpha" result="shadowBlurInner1" stdDeviation="1"/>
      <feOffset in="shadowBlurInner1" result="shadowOffsetInner1"/>
      <feComposite in="shadowOffsetInner1" in2="SourceAlpha" k2="-1" k3="1" operator="arithmetic" result="shadowInnerInner1"/>
      <feColorMatrix in="shadowInnerInner1" values="0 0 0 0 0   0 0 0 0 0   0 0 0 0 0  0 0 0 0.5 0"/>
    </filter>
    <circle id="private-window-z" cx="267.5" cy="39.5" r="4.5"/>
    <filter id="private-window-A" width="155.6%" height="155.6%" x="-27.8%" y="-27.8%" filterUnits="objectBoundingBox">
      <feGaussianBlur in="SourceAlpha" result="shadowBlurInner1" stdDeviation="2.5"/>
      <feOffset in="shadowBlurInner1" result="shadowOffsetInner1"/>
      <feComposite in="shadowOffsetInner1" in2="SourceAlpha" k2="-1" k3="1" operator="arithmetic" result="shadowInnerInner1"/>
      <feColorMatrix in="shadowInnerInner1" values="0 0 0 0 0   0 0 0 0 0   0 0 0 0 0  0 0 0 0.5 0"/>
    </filter>
    <filter id="private-window-B" width="260.7%" height="265%" x="-83.6%" y="-75%" filterUnits="objectBoundingBox">
      <feOffset dy="7" in="SourceAlpha" result="shadowOffsetOuter1"/>
      <feGaussianBlur in="shadowOffsetOuter1" result="shadowBlurOuter1" stdDeviation="5.5"/>
      <feColorMatrix in="shadowBlurOuter1" result="shadowMatrixOuter1" values="0 0 0 0 0.152941   0 0 0 0 0.180392   0 0 0 0 0.25098  0 0 0 0.2 0"/>
      <feMerge>
        <feMergeNode in="shadowMatrixOuter1"/>
        <feMergeNode in="SourceGraphic"/>
      </feMerge>
    </filter>
    <linearGradient id="private-window-E" x1="35.192%" x2="146.327%" y1="0%" y2="222.965%">
      <stop offset="0%" stop-color="#392DD1"/>
      <stop offset="100%" stop-color="#FF4343"/>
    </linearGradient>
    <polygon id="private-window-D" points="30.383 7.035 46.646 13.771 53.383 30.035 46.646 46.298 30.383 53.035 14.119 46.298 7.383 30.035 14.119 13.771"/>
    <filter id="private-window-C" width="182.6%" height="182.6%" x="-41.3%" y="-30.4%" filterUnits="objectBoundingBox">
      <feOffset dy="5" in="SourceAlpha" result="shadowOffsetOuter1"/>
      <feGaussianBlur in="shadowOffsetOuter1" result="shadowBlurOuter1" stdDeviation="5.5"/>
      <feColorMatrix in="shadowBlurOuter1" values="0 0 0 0 0.152941   0 0 0 0 0.180392   0 0 0 0 0.25098  0 0 0 0.2 0"/>
    </filter>
    <ellipse id="private-window-G" cx="19" cy="18.902" rx="19" ry="18.902"/>
    <filter id="private-window-F" width="200%" height="200.5%" x="-50%" y="-37%" filterUnits="objectBoundingBox">
      <feOffset dy="5" in="SourceAlpha" result="shadowOffsetOuter1"/>
      <feGaussianBlur in="shadowOffsetOuter1" result="shadowBlurOuter1" stdDeviation="5.5"/>
      <feColorMatrix in="shadowBlurOuter1" values="0 0 0 0 0.152941   0 0 0 0 0.180392   0 0 0 0 0.25098  0 0 0 0.2 0"/>
    </filter>
    <rect id="private-window-I" width="39" height="20" x="246" y="147" rx="7.841"/>
    <filter id="private-window-H" width="202.6%" height="300%" x="-51.3%" y="-65%" filterUnits="objectBoundingBox">
      <feOffset dy="7" in="SourceAlpha" result="shadowOffsetOuter1"/>
      <feGaussianBlur in="shadowOffsetOuter1" result="shadowBlurOuter1" stdDeviation="5.5"/>
      <feColorMatrix in="shadowBlurOuter1" values="0 0 0 0 0.152941176   0 0 0 0 0.180392157   0 0 0 0 0.250980392  0 0 0 0.2 0"/>
    </filter>
  </defs>
  <g fill="none" fill-rule="evenodd" transform="translate(0 4)">
    <g transform="translate(31 21)">
      <mask id="private-window-c" fill="#fff">
        <use xlink:href="#private-window-a"/>
      </mask>
      <use fill="url(#private-window-b)" fill-rule="nonzero" xlink:href="#private-window-a"/>
      <g fill-rule="nonzero" mask="url(#private-window-c)">
        <use fill="#000" filter="url(#private-window-d)" xlink:href="#private-window-e"/>
        <use fill="#3E1F85" xlink:href="#private-window-e"/>
      </g>
      <g mask="url(#private-window-c)">
        <use fill="#000" filter="url(#private-window-f)" xlink:href="#private-window-g"/>
        <use fill="#3E1F85" xlink:href="#private-window-g"/>
      </g>
      <g fill="#000" mask="url(#private-window-c)">
        <use filter="url(#private-window-h)" xlink:href="#private-window-i"/>
      </g>
    </g>
    <g filter="url(#private-window-j)" transform="translate(62)">
      <path fill="#FFF" d="M13,9.00901858 C13,4.03347501 17.0298771,0 22.0040966,0 L162.995903,0 C167.968729,0 172,4.02441948 172,9.00901858 L172,187.990981 C172,192.966525 167.970123,197 162.995903,197 L22.0040966,197 C17.0312714,197 13,192.975581 13,187.990981 L13,9.00901858 Z"/>
      <g transform="translate(0 17)">
        <rect width="134" height="9" x="29" y="70" fill="#F7F7F7" fill-rule="nonzero" rx="2"/>
        <rect width="134" height="9" x="29" y="120" fill="#F7F7F7" fill-rule="nonzero" rx="2"/>
        <rect width="159" height="6" x="13" fill="#E7DCFF" fill-rule="nonzero"/>
        <rect width="94" height="9" x="29" y="86" fill="#F7F7F7" fill-rule="nonzero" rx="2"/>
        <rect width="94" height="9" x="29" y="136" fill="#F7F7F7" fill-rule="nonzero" rx="2"/>
        <rect width="93.964" height="9.055" x="29" y="36.73" fill="#F7F7F7" fill-rule="nonzero" rx="2"/>
        <rect width="36" height="9" x="29" y="102" fill="#F7F7F7" fill-rule="nonzero" rx="2"/>
        <rect width="60" height="9" x="71" y="102" fill="#F7F7F7" fill-rule="nonzero" rx="2"/>
        <rect width="124" height="9" x="29" y="152" fill="#F7F7F7" fill-rule="nonzero" rx="2"/>
        <rect width="95" height="9" x="57" y="20" fill="#F7F7F7" fill-rule="nonzero" rx="2"/>
        <rect width="21" height="9" x="29" y="20" fill="#F7F7F7" fill-rule="nonzero" rx="2" transform="matrix(-1 0 0 1 79 0)"/>
        <use fill="#000" filter="url(#private-window-k)" xlink:href="#private-window-l"/>
        <use fill="#FFF" xlink:href="#private-window-l"/>
        <rect width="124.581" height="9.055" x="29" y="51.822" fill="#F7F7F7" fill-rule="nonzero" rx="2"/>
        <use fill="#2A1755" fill-rule="nonzero" xlink:href="#private-window-m"/>
      </g>
      <path fill="#682BF4" d="M13,2.00263143 C13,0.89660863 13.8968109,0 15.0017822,0 L170.46421,0 C171.569763,0 172.465992,0.898694517 172.465992,2.00263143 L172.465992,17.1649485 L13,17.1649485 L13,2.00263143 Z"/>
      <g transform="translate(144 112)">
        <use fill="#000" filter="url(#private-window-n)" xlink:href="#private-window-o"/>
        <use fill="url(#private-window-p)" xlink:href="#private-window-o"/>
        <polyline stroke="#FFF" stroke-linecap="round" stroke-linejoin="round" stroke-width="2" points="14.226 13.774 27.726 24.774 24.251 29.726" transform="rotate(90 20.976 21.75)"/>
      </g>
    </g>
    <g fill="#3C1B88" transform="translate(84 5)">
      <ellipse cx="4.015" cy="4" rx="4.015" ry="4"/>
      <ellipse cx="18.926" cy="4" rx="4.015" ry="4"/>
      <ellipse cx="34.985" cy="4" rx="4.015" ry="4"/>
    </g>
    <g transform="translate(215 9)">
      <g fill-rule="nonzero">
        <use fill="#000" filter="url(#private-window-q)" xlink:href="#private-window-r"/>
        <use fill="#FFF" xlink:href="#private-window-r"/>
      </g>
      <use fill="#672AF2" transform="translate(8 7)" xlink:href="#private-window-s"/>
    </g>
    <g fill-rule="nonzero">
      <use fill="#000" filter="url(#private-window-t)" xlink:href="#private-window-u"/>
      <use fill="#FFF" xlink:href="#private-window-u"/>
    </g>
    <g fill-rule="nonzero">
      <use fill="#6839CB" xlink:href="#private-window-v"/>
      <use fill="#000" filter="url(#private-window-w)" xlink:href="#private-window-v"/>
    </g>
    <g fill-rule="nonzero">
      <use fill="#6839CB" xlink:href="#private-window-x"/>
      <use fill="#000" filter="url(#private-window-y)" xlink:href="#private-window-x"/>
    </g>
    <g fill-rule="nonzero">
      <use fill="#6839CB" xlink:href="#private-window-z"/>
      <use fill="#000" filter="url(#private-window-A)" xlink:href="#private-window-z"/>
    </g>
    <g fill-rule="nonzero" filter="url(#private-window-B)" transform="rotate(-23 382.288 -36.432)">
      <use fill="#000" filter="url(#private-window-C)" xlink:href="#private-window-D"/>
      <use fill="url(#private-window-E)" xlink:href="#private-window-D"/>
    </g>
    <g transform="translate(19 73)">
      <g fill-rule="nonzero" transform="rotate(-45 32.642 13.178)">
        <use fill="#000" filter="url(#private-window-F)" xlink:href="#private-window-G"/>
        <use fill="#FFF" xlink:href="#private-window-G"/>
      </g>
      <g transform="translate(16 17)">
        <ellipse cx="10.957" cy="10" fill="#7E4BF3" rx="3.652" ry="3.6"/>
        <path stroke="#7E4BF3" stroke-linecap="round" stroke-linejoin="round" stroke-width="1.8" d="M0 9.97154515C7.05020725 1.60948495 14.0259843 1.60948495 20.927331 9.97154515 14.6117923 18.6476685 7.63601527 18.6476685 0 9.97154515zM2.5.5L19.5 19.5"/>
      </g>
    </g>
    <use fill="#000" filter="url(#private-window-H)" xlink:href="#private-window-I"/>
    <use fill="#FFF" xlink:href="#private-window-I"/>
  </g>
</svg>
