<svg viewBox="0 0 296 217" xmlns="http://www.w3.org/2000/svg" xmlns:xlink="http://www.w3.org/1999/xlink"><defs><linearGradient id="a" x1="5.709%" x2="101.747%" y1="-3.224%" y2="98.229%"><stop offset="0" stop-color="#8450ff"/><stop offset="1" stop-color="#5c2fb4"/></linearGradient><path id="b" d="m57.0329992.92196451c35.8486199 8.89161531 62.8289028 11.17899449 80.9408468 6.86213754 27.167918-6.47528542 70.502434-5.88136345 92.310671 19.81145045 21.808238 25.6928139 47.355209 59.4885238 19.507778 92.8538165-27.84743 33.365293-66.923062 45.554717-81.790168 23.196745s-55.066724-8.179314-70.80297 5.380094-109.0587213-1.111483-94.9139795-42.333138c14.1447418-41.2216559-10.31156204-51.8811447.62314214-81.6878333 7.28980276-19.87112578 25.33136266-27.89888316 54.12467956-24.08327219z"/><circle id="c" cx="4.5" cy="22.5" r="21.5"/><filter id="d" height="188.4%" width="188.4%" x="-44.2%" y="-32.6%"><feOffset dy="5" in="SourceAlpha" result="shadowOffsetOuter1"/><feGaussianBlur in="shadowOffsetOuter1" result="shadowBlurOuter1" stdDeviation="5.5"/><feColorMatrix in="shadowBlurOuter1" values="0 0 0 0 0.152941   0 0 0 0 0.180392   0 0 0 0 0.25098  0 0 0 0.2 0"/></filter><path id="e" d="m221 56.8348028c0-4.3270421 3.519664-7.8348028 7.842153-7.8348028h36.415449c4.331102 0 7.842153 3.5186027 7.842153 7.8348028v7.664413c0 4.3270421-3.519664 7.8348028-7.842153 7.8348028h-36.415449c-4.331102 0-7.842153-3.5186027-7.842153-7.8348028z"/><filter id="f" height="412.8%" width="240.1%" x="-70.1%" y="-113.6%"><feOffset dy="10" in="SourceAlpha" result="shadowOffsetOuter1"/><feGaussianBlur in="shadowOffsetOuter1" result="shadowBlurOuter1" stdDeviation="10.5"/><feColorMatrix in="shadowBlurOuter1" values="0 0 0 0 0.152941   0 0 0 0 0.180392   0 0 0 0 0.25098  0 0 0 0.2 0"/></filter><filter id="g" height="103.2%" width="101.8%" x="-.9%" y="-1.6%"><feGaussianBlur in="SourceAlpha" result="shadowBlurInner1" stdDeviation="2.5"/><feOffset in="shadowBlurInner1" result="shadowOffsetInner1"/><feComposite in="shadowOffsetInner1" in2="SourceAlpha" k2="-1" k3="1" operator="arithmetic" result="shadowInnerInner1"/><feColorMatrix in="shadowInnerInner1" values="0 0 0 0 0   0 0 0 0 0   0 0 0 0 0  0 0 0 0.5 0"/></filter><filter id="h" height="131.5%" width="145.4%" x="-22.7%" y="-15.7%"><feOffset dy="6" in="SourceAlpha" result="shadowOffsetOuter1"/><feGaussianBlur in="shadowOffsetOuter1" result="shadowBlurOuter1" stdDeviation="5"/><feColorMatrix in="shadowBlurOuter1" result="shadowMatrixOuter1" values="0 0 0 0 0.152941   0 0 0 0 0.180392   0 0 0 0 0.25098  0 0 0 0.2 0"/><feMerge><feMergeNode in="shadowMatrixOuter1"/><feMergeNode in="SourceGraphic"/></feMerge></filter><rect id="i" height="20" rx="7.841" width="39" y="10.693"/><filter id="j" height="300%" width="202.6%" x="-51.3%" y="-65%"><feOffset dy="7" in="SourceAlpha" result="shadowOffsetOuter1"/><feGaussianBlur in="shadowOffsetOuter1" result="shadowBlurOuter1" stdDeviation="5.5"/><feColorMatrix in="shadowBlurOuter1" values="0 0 0 0 0.152941176   0 0 0 0 0.180392157   0 0 0 0 0.250980392  0 0 0 0.2 0"/></filter><linearGradient id="k" x1="0%" x2="102%" y1="0%" y2="101%"><stop offset="0" stop-color="#3023ae"/><stop offset="1" stop-color="#c86dd7"/></linearGradient><path id="l" d="m36.2472769 5.78619062h-2.0137376c-8.457698 0-12.2656758-4.81821623-12.4167061-5.01412599-.4269124-.57415137-1.1196381-.82049335-1.8022952-.76424203-.5900251.019397-1.1699815.25991988-1.5505779.75454352-.1570715.20560827-3.9650494 5.0238245-12.42274729 5.0238245h-2.0137376c-2.22115258 0-4.02747521 1.73991141-4.02747521 3.87940115v5.81910173c0 1.0726544.01006869 2.8280834.02215111 3.9007379.00201374.2017288.44503601 20.366856 19.42652669 27.0161496.0140961.0038794.0281923.0038794.0422885.0077588.2074149.0698292.4228849.1105629.6464097.1105629.2235249 0 .4389948-.0407337.6464098-.1105629.0140962-.0038794.0281923-.0038794.0422885-.0077588 18.9814906-6.6492936 19.4245129-26.8144208 19.4265267-27.0161496.0120824-1.0726545.0221511-2.8280835.0221511-3.9007379v-5.81910173c0-2.13948974-1.8063227-3.87940115-4.0274752-3.87940115z"/><filter id="m" height="181.7%" width="194.4%" x="-47.2%" y="-30.1%"><feOffset dy="5" in="SourceAlpha" result="shadowOffsetOuter1"/><feGaussianBlur in="shadowOffsetOuter1" result="shadowBlurOuter1" stdDeviation="5.5"/><feColorMatrix in="shadowBlurOuter1" values="0 0 0 0 0.152941   0 0 0 0 0.180392   0 0 0 0 0.25098  0 0 0 0.2 0"/></filter><circle id="n" cx="15.5" cy="15.5" r="15.5"/><filter id="o" height="222.6%" width="222.6%" x="-61.3%" y="-45.2%"><feOffset dy="5" in="SourceAlpha" result="shadowOffsetOuter1"/><feGaussianBlur in="shadowOffsetOuter1" result="shadowBlurOuter1" stdDeviation="5.5"/><feColorMatrix in="shadowBlurOuter1" values="0 0 0 0 0.152941   0 0 0 0 0.180392   0 0 0 0 0.25098  0 0 0 0.2 0"/></filter><circle id="p" cx="161.5" cy="160.5" r="15.5"/><filter id="q" height="222.6%" width="222.6%" x="-61.3%" y="-45.2%"><feOffset dy="5" in="SourceAlpha" result="shadowOffsetOuter1"/><feGaussianBlur in="shadowOffsetOuter1" result="shadowBlurOuter1" stdDeviation="5.5"/><feColorMatrix in="shadowBlurOuter1" values="0 0 0 0 0.152941   0 0 0 0 0.180392   0 0 0 0 0.25098  0 0 0 0.2 0"/></filter><circle id="r" cx="10" cy="83" r="10"/><filter id="s" height="110%" width="110%" x="-5%" y="-5%"><feGaussianBlur in="SourceAlpha" result="shadowBlurInner1" stdDeviation="1"/><feOffset in="shadowBlurInner1" result="shadowOffsetInner1"/><feComposite in="shadowOffsetInner1" in2="SourceAlpha" k2="-1" k3="1" operator="arithmetic" result="shadowInnerInner1"/><feColorMatrix in="shadowInnerInner1" values="0 0 0 0 0   0 0 0 0 0   0 0 0 0 0  0 0 0 0.5 0"/></filter><circle id="t" cx="18.5" cy="112.5" r="7.5"/><filter id="u" height="113.3%" width="113.3%" x="-6.7%" y="-6.7%"><feGaussianBlur in="SourceAlpha" result="shadowBlurInner1" stdDeviation="1"/><feOffset in="shadowBlurInner1" result="shadowOffsetInner1"/><feComposite in="shadowOffsetInner1" in2="SourceAlpha" k2="-1" k3="1" operator="arithmetic" result="shadowInnerInner1"/><feColorMatrix in="shadowInnerInner1" values="0 0 0 0 0   0 0 0 0 0   0 0 0 0 0  0 0 0 0.5 0"/></filter><circle id="v" cx="267.5" cy="39.5" r="4.5"/><filter id="w" height="155.6%" width="155.6%" x="-27.8%" y="-27.8%"><feGaussianBlur in="SourceAlpha" result="shadowBlurInner1" stdDeviation="2.5"/><feOffset in="shadowBlurInner1" result="shadowOffsetInner1"/><feComposite in="shadowOffsetInner1" in2="SourceAlpha" k2="-1" k3="1" operator="arithmetic" result="shadowInnerInner1"/><feColorMatrix in="shadowInnerInner1" values="0 0 0 0 0   0 0 0 0 0   0 0 0 0 0  0 0 0 0.5 0"/></filter><filter id="x" height="265%" width="260.7%" x="-83.6%" y="-75%"><feOffset dy="7" in="SourceAlpha" result="shadowOffsetOuter1"/><feGaussianBlur in="shadowOffsetOuter1" result="shadowBlurOuter1" stdDeviation="5.5"/><feColorMatrix in="shadowBlurOuter1" result="shadowMatrixOuter1" values="0 0 0 0 0.152941   0 0 0 0 0.180392   0 0 0 0 0.25098  0 0 0 0.2 0"/><feMerge><feMergeNode in="shadowMatrixOuter1"/><feMergeNode in="SourceGraphic"/></feMerge></filter><linearGradient id="y" x1="35.192%" x2="146.327%" y1="0%" y2="222.965%"><stop offset="0" stop-color="#392dd1"/><stop offset="1" stop-color="#ff4343"/></linearGradient><path id="z" d="m30.383 7.035 16.263 6.736 6.737 16.264-6.737 16.263-16.263 6.737-16.264-6.737-6.736-16.263 6.736-16.264z"/><filter id="A" height="182.6%" width="182.6%" x="-41.3%" y="-30.4%"><feOffset dy="5" in="SourceAlpha" result="shadowOffsetOuter1"/><feGaussianBlur in="shadowOffsetOuter1" result="shadowBlurOuter1" stdDeviation="5.5"/><feColorMatrix in="shadowBlurOuter1" values="0 0 0 0 0.152941   0 0 0 0 0.180392   0 0 0 0 0.25098  0 0 0 0.2 0"/></filter><ellipse id="B" cx="19" cy="18.902" rx="19" ry="18.902"/><filter id="C" height="200.5%" width="200%" x="-50%" y="-37%"><feOffset dy="5" in="SourceAlpha" result="shadowOffsetOuter1"/><feGaussianBlur in="shadowOffsetOuter1" result="shadowBlurOuter1" stdDeviation="5.5"/><feColorMatrix in="shadowBlurOuter1" values="0 0 0 0 0.152941   0 0 0 0 0.180392   0 0 0 0 0.25098  0 0 0 0.2 0"/></filter><rect id="D" height="20" rx="7.841" width="39" x="246" y="147"/><filter id="E" height="300%" width="202.6%" x="-51.3%" y="-65%"><feOffset dy="7" in="SourceAlpha" result="shadowOffsetOuter1"/><feGaussianBlur in="shadowOffsetOuter1" result="shadowBlurOuter1" stdDeviation="5.5"/><feColorMatrix in="shadowBlurOuter1" values="0 0 0 0 0.152941176   0 0 0 0 0.180392157   0 0 0 0 0.250980392  0 0 0 0.2 0"/></filter><mask id="F" fill="#fff"><use fill="#fff" fill-rule="evenodd" xlink:href="#b"/></mask></defs><g fill="none" fill-rule="evenodd" transform="translate(0 4)"><g transform="translate(31 21)"><use fill="url(#a)" fill-rule="nonzero" xlink:href="#b"/><g fill-rule="nonzero" mask="url(#F)"><use fill="#000" filter="url(#d)" xlink:href="#c"/><use fill="#3e1f85" xlink:href="#c"/></g><g mask="url(#F)"><use fill="#000" filter="url(#f)" xlink:href="#e"/><use fill="#3e1f85" xlink:href="#e"/></g><g fill="#000" mask="url(#F)"><path d="m.29374959 45.5882364c-.6952854-6.1333106-.28240954-12.6861818 2.61457005-20.5829997 7.28980276-19.87112578 25.33136266-27.89888316 54.12467956-24.08327219 35.8486199 8.89161531 62.8289028 11.17899449 80.9408468 6.86213754 27.167918-6.47528542 70.502434-5.88136345 92.310671 19.81145045 21.808238 25.6928139 47.355209 59.4885238 19.507778 92.8538165-27.84743 33.365293-66.923062 45.554717-81.790168 23.196745s-55.066724-8.179314-70.80297 5.380094-109.0587213-1.111483-94.9139795-42.333138c5.61852264-16.3739157 5.14654045-27.9257072 3.22136649-37.7708161h-9.10543915c-4.33110144 0-7.84215284-3.5186027-7.84215284-7.8348028v-7.664413c0-4.3270421 3.51966394-7.8348028 7.84215284-7.8348028h3.89264775z" filter="url(#g)"/></g></g><g filter="url(#h)" transform="translate(62)"><path d="m13 9.00901858c0-4.97554357 4.0298771-9.00901858 9.0040966-9.00901858h140.9918064c4.972826 0 9.004097 4.02441948 9.004097 9.00901858v178.98196242c0 4.975544-4.029877 9.009019-9.004097 9.009019h-140.9918064c-4.9728252 0-9.0040966-4.024419-9.0040966-9.009019z" fill="#fff"/><g transform="translate(0 17)"><g fill-rule="nonzero"><rect fill="#f7f7f7" height="9" rx="2" width="134" x="29" y="70"/><rect fill="#f7f7f7" height="9" rx="2" width="134" x="29" y="120"/><path d="m13 0h159v6h-159z" fill="#e7dcff"/><rect fill="#f7f7f7" height="9" rx="2" width="94" x="29" y="86"/><rect fill="#f7f7f7" height="9" rx="2" width="94" x="29" y="136"/><rect fill="#f7f7f7" height="9.055" rx="2" width="93.964" x="29" y="36.73"/><rect fill="#f7f7f7" height="9" rx="2" width="36" x="29" y="102"/><rect fill="#f7f7f7" height="9" rx="2" width="60" x="71" y="102"/><rect fill="#f7f7f7" height="9" rx="2" width="124" x="29" y="152"/><rect fill="#f7f7f7" height="9" rx="2" width="95" x="57" y="20"/><rect fill="#f7f7f7" height="9" rx="2" transform="matrix(-1 0 0 1 79 0)" width="21" x="29" y="20"/></g><use fill="#000" filter="url(#j)" xlink:href="#i"/><use fill="#fff" xlink:href="#i"/><rect fill="#f7f7f7" fill-rule="nonzero" height="9.055" rx="2" width="124.581" x="29" y="51.822"/><path d="m36.0817877 60.4126899c.915625 2.6035917 2.7468752 17.6742294 8.2329954 22.0208112 5.6578 4.4736748 26.9994944 4.4036464 31.0854712 2.468201 9.1448055-4.3393193 12.8522281-18.3558654 14.4698324-24.4926434.9118099-3.4750866 3.8121483-3.4750866 3.8121483-3.4750866s3.0726024 0 3.9882275 3.4714554c1.6176043 6.1404092 5.1603935 20.1968988 14.2975685 24.5289556 4.089792 1.9427079 25.431486 2.0127363 31.096916-2.4609385 5.47849-4.3465818 7.305925-19.4607943 8.22155-22.0680171.907995-2.6035916 5.486121-5.2108144 6.39793-6.0786783.919441-.8678638.919441-4.3429505 0-5.2144456-1.827434-1.7357277-23.401851-3.2826315-46.632021-.8678639-4.635352.4829535-6.397931 1.7357277-17.3739861 1.7357277-10.9684254 0-12.7386338-1.2564054-17.3701707-1.7357277-23.2149107-2.4111364-44.7931416-.8642326-46.6243917.8714951-.91181.8678639-.91181 4.3465818 0 5.2144457.915625.8678638 5.4861202 3.4750867 6.3979302 6.0823094z" fill="#2a1755" fill-rule="nonzero"/></g><path d="m13 2.00263143c0-1.1060228.8968109-2.00263143 2.0017822-2.00263143h155.4624278c1.105553 0 2.001782.89869452 2.001782 2.00263143v15.16231707h-159.465992z" fill="#682bf4"/><g transform="translate(144 112)"><use fill="#000" filter="url(#m)" xlink:href="#l"/><use fill="url(#k)" xlink:href="#l"/><path d="m14.226 13.774 13.5 11-3.475 4.952" stroke="#fff" stroke-linecap="round" stroke-linejoin="round" stroke-width="2" transform="matrix(0 1 -1 0 42.726 .774)"/></g></g><g fill="#3c1b88"><ellipse cx="88.015" cy="9" rx="4.015" ry="4"/><ellipse cx="102.926" cy="9" rx="4.015" ry="4"/><ellipse cx="118.985" cy="9" rx="4.015" ry="4"/></g><g transform="translate(215 9)"><g fill-rule="nonzero"><use fill="#000" filter="url(#o)" xlink:href="#n"/><use fill="#fff" xlink:href="#n"/></g><path d="m12.75 14.40625c0 .36225-.2946562.65625-.65625.65625h-9.1875c-.36159375 0-.65625-.294-.65625-.65625v-6.5625c0-.36225.29465625-.65625.65625-.65625h9.1875c.3615938 0 .65625.294.65625.65625zm-7.875-9.84375c0-1.4476875 1.1773125-2.625 2.625-2.625s2.625 1.1773125 2.625 2.625v1.3125h-5.25zm7.21875 1.3125h-.65625v-1.3125c0-2.17153125-1.76596875-3.9375-3.9375-3.9375s-3.9375 1.76596875-3.9375 3.9375v1.3125h-.65625c-1.0854375 0-1.96875.8833125-1.96875 1.96875v6.5625c0 1.0854375.8833125 1.96875 1.96875 1.96875h9.1875c1.0854375 0 1.96875-.8833125 1.96875-1.96875v-6.5625c0-1.0854375-.8833125-1.96875-1.96875-1.96875z" fill="#672af2" transform="translate(8 7)"/></g><g fill-rule="nonzero"><g><use fill="#000" filter="url(#q)" xlink:href="#p"/><use fill="#fff" xlink:href="#p"/></g><g><use fill="#6839cb" xlink:href="#r"/><use fill="#000" filter="url(#s)" xlink:href="#r"/></g><g><use fill="#6839cb" xlink:href="#t"/><use fill="#000" filter="url(#u)" xlink:href="#t"/></g><g><use fill="#6839cb" xlink:href="#v"/><use fill="#000" filter="url(#w)" xlink:href="#v"/></g><g filter="url(#x)" transform="matrix(.92050485 -.39073113 .39073113 .92050485 44.625157 146.475654)"><use fill="#000" filter="url(#A)" xlink:href="#z"/><use fill="url(#y)" xlink:href="#z"/></g><g transform="matrix(.70710678 -.70710678 .70710678 .70710678 19.242367 99.941126)"><use fill="#000" filter="url(#C)" xlink:href="#B"/><use fill="#fff" xlink:href="#B"/></g></g><g transform="translate(35 90)"><ellipse cx="10.957" cy="10" fill="#7e4bf3" rx="3.652" ry="3.6"/><path d="m0 9.97154515c7.05020725-8.3620602 14.0259843-8.3620602 20.927331 0-6.3155387 8.67612335-13.29131573 8.67612335-20.927331 0zm2.5-9.47154515 17 19" stroke="#7e4bf3" stroke-linecap="round" stroke-linejoin="round" stroke-width="1.8"/></g><use fill="#000" filter="url(#E)" xlink:href="#D"/><use fill="#fff" xlink:href="#D"/></g></svg>