<svg width="204" height="195" viewBox="0 0 204 195" fill="none" xmlns="http://www.w3.org/2000/svg">
<g filter="url(#filter0_d_942_19477)">
<path fill-rule="evenodd" clip-rule="evenodd" d="M21 21.8077H183V155.038C183 159.457 179.418 163.038 175 163.038H29C24.5817 163.038 21 159.457 21 155.038V21.8077Z" fill="white"/>
</g>
<path fill-rule="evenodd" clip-rule="evenodd" d="M21 8C21 3.58172 24.5817 0 29 0H175C179.418 0 183 3.58172 183 8V16.6154H21V8Z" fill="url(#paint0_linear_942_19477)"/>
<path fill-rule="evenodd" clip-rule="evenodd" d="M21 21.8077H183V15.5769H21V21.8077Z" fill="url(#paint1_linear_942_19477)"/>
<path fill-rule="evenodd" clip-rule="evenodd" d="M32.4596 11.9161C32.4596 7.66778 35.9036 4.22382 40.1519 4.22382H72.5365C76.7849 4.22382 80.2288 7.66778 80.2288 11.9161V16.6854H32.4596V11.9161Z" fill="url(#paint2_linear_942_19477)"/>
<rect x="21" y="41" width="162" height="102" fill="#E6E8F5"/>
<path fill-rule="evenodd" clip-rule="evenodd" d="M112.822 86.5701C113.143 86.8934 113.572 87.0012 114 87.0012C114.428 87.0012 114.857 86.8934 115.178 86.5701L121.497 80.2107C121.818 79.8874 122.032 79.4562 122.032 78.9173C122.032 78.7017 122.032 78.4862 121.925 78.2706C121.818 78.055 121.711 77.9472 121.604 77.7317L115.178 71.2645C114.536 70.6178 113.572 70.6178 112.929 71.2645C112.287 71.9113 112.287 72.8813 112.929 73.528L116.57 77.3005H90.9748H90.8677H90.7606C86.691 77.3005 83.4781 80.5341 83.4781 84.5221C83.4781 88.5102 86.691 91.7438 90.7606 91.7438H90.8677H90.9748H114.536C114.643 91.7438 114.643 91.7438 114.75 91.7438C114.857 91.7438 114.857 91.7438 114.964 91.7438C117.106 91.7438 118.926 93.5761 118.926 95.7318C118.926 97.9953 117.106 99.8277 114.964 99.8277C114.857 99.8277 114.857 99.8277 114.75 99.8277C114.643 99.8277 114.643 99.8277 114.536 99.8277H88.94H84.442L84.0136 100.259C83.9065 100.367 83.7994 100.582 83.6923 100.798C83.4781 101.121 83.4781 101.337 83.4781 101.552C83.4781 101.768 83.4781 101.983 83.5852 102.199C83.6923 102.415 83.7994 102.522 83.9065 102.738L84.442 103.169H99.8636H114.536C114.643 103.169 114.643 103.169 114.75 103.169C114.857 103.169 114.857 103.169 114.964 103.169C118.926 103.169 122.139 99.9355 122.139 95.8396C122.139 91.8516 118.926 88.618 114.964 88.618C114.857 88.618 114.857 88.618 114.75 88.618C114.643 88.618 114.643 88.618 114.536 88.618H90.9748H90.8677H90.7606C88.5116 88.618 86.691 86.7856 86.691 84.5221C86.691 82.3664 88.5116 80.5341 90.7606 80.5341C90.9748 80.5341 91.0819 80.5341 91.296 80.4263C91.4031 80.4263 91.4031 80.4263 91.5102 80.4263H116.677L112.929 84.1988C112.287 84.8455 112.287 85.9234 112.822 86.5701Z" fill="#737ADE"/>
<circle cx="86.5874" cy="101.552" r="4.35287" fill="url(#paint3_linear_942_19477)"/>
<circle cx="106.486" cy="90.1104" r="4.35287" fill="url(#paint4_linear_942_19477)"/>
<circle cx="96.5367" cy="78.9173" r="4.35287" fill="url(#paint5_linear_942_19477)"/>
<path fill-rule="evenodd" clip-rule="evenodd" d="M78.9883 109.764C78.5976 110.201 78.0374 110.451 77.4503 110.451H32.063C31.4759 110.451 30.9157 110.201 30.5251 109.764C30.1344 109.326 29.9483 108.743 30.0124 108.161L32.063 89.7066V67.1262C32.063 65.9853 32.987 65.0631 34.1259 65.0631H75.3874C76.5263 65.0631 77.4503 65.9853 77.4503 67.1262V89.7086L79.5009 108.161C79.567 108.743 79.3789 109.326 78.9883 109.764ZM73.3244 69.1892H36.1889V87.757H73.3244V69.1892ZM73.5414 91.8831H35.9718L34.3677 106.325H75.1455L73.5414 91.8831ZM42.3777 104.262H38.2518V100.135H42.3777V104.262ZM40.3148 93.9462H44.4408V98.0724H40.3148V93.9462ZM65.0725 104.262H44.4407V100.135H65.0725V104.262ZM71.2614 104.262H67.1354V100.135H71.2614V104.262ZM65.0726 93.9462H69.1985V98.0724H65.0726V93.9462ZM58.8836 93.9462H63.0096V98.0724H58.8836V93.9462ZM52.6927 93.9462H56.8207V98.0724H52.6927V93.9462ZM46.5038 93.9462H50.6297V98.0724H46.5038V93.9462Z" fill="url(#paint6_linear_942_19477)"/>
<path d="M150.753 63C137.137 63 125.996 74.1406 125.996 87.757C125.996 101.373 137.137 112.514 150.753 112.514C164.37 112.514 175.51 101.373 175.51 87.757C175.51 74.1406 164.37 63 150.753 63ZM170.765 92.7083H160.243C160.243 92.502 160.45 92.0894 160.45 91.8831C160.862 88.7885 160.656 85.6939 160.243 83.0119H169.115C169.321 83.0119 169.527 83.0119 169.734 83.0119C170.146 83.0119 170.559 83.0119 170.559 83.0119C170.971 84.456 171.178 86.1065 171.178 87.757C171.384 89.4074 171.178 91.2642 170.765 92.7083ZM144.977 92.7083C144.977 92.2957 144.77 91.8831 144.77 91.4705C144.358 88.3759 144.564 85.6939 144.977 83.0119H150.341H156.324C156.736 85.6939 156.943 88.3759 156.53 91.4705C156.53 91.8831 156.324 92.2957 156.324 92.7083H144.977ZM155.292 96.8345C154.054 100.961 152.404 104.055 150.547 106.737C148.69 104.262 147.04 100.961 145.802 96.8345H155.292ZM130.122 87.757C130.122 86.1065 130.329 84.456 130.741 83.0119C130.948 83.0119 131.154 83.0119 131.36 83.0119H140.851C140.438 85.6939 140.232 88.7885 140.644 91.8831C140.644 92.0894 140.644 92.502 140.851 92.7083H130.741C130.329 91.2642 130.122 89.4074 130.122 87.757ZM145.802 78.8857C147.04 74.5532 148.897 71.2523 150.547 68.7766C152.197 71.2523 154.054 74.5532 155.292 78.8857H150.341H145.802ZM169.321 78.8857H159.418C158.18 74.1406 156.324 70.4271 154.467 67.5388C161.069 68.7766 166.639 73.1091 169.321 78.8857ZM146.421 67.5388C144.77 70.4271 142.707 74.1406 141.676 78.8857H132.186C134.868 73.1091 140.232 68.9829 146.421 67.5388ZM132.186 96.8345H141.469C142.501 101.167 144.358 104.881 146.215 107.975C140.232 106.531 135.074 102.405 132.186 96.8345ZM154.673 107.975C156.53 105.087 158.387 101.373 159.418 96.8345H169.321C166.433 102.611 161.069 106.737 154.673 107.975Z" fill="url(#paint7_linear_942_19477)"/>
<defs>
<filter id="filter0_d_942_19477" x="0" y="10.8077" width="204" height="183.231" filterUnits="userSpaceOnUse" color-interpolation-filters="sRGB">
<feFlood flood-opacity="0" result="BackgroundImageFix"/>
<feColorMatrix in="SourceAlpha" type="matrix" values="0 0 0 0 0 0 0 0 0 0 0 0 0 0 0 0 0 0 127 0" result="hardAlpha"/>
<feOffset dy="10"/>
<feGaussianBlur stdDeviation="10.5"/>
<feColorMatrix type="matrix" values="0 0 0 0 0.152941 0 0 0 0 0.180392 0 0 0 0 0.25098 0 0 0 0.2 0"/>
<feBlend mode="normal" in2="BackgroundImageFix" result="effect1_dropShadow_942_19477"/>
<feBlend mode="normal" in="SourceGraphic" in2="effect1_dropShadow_942_19477" result="shape"/>
</filter>
<linearGradient id="paint0_linear_942_19477" x1="-102.591" y1="9.23279" x2="-100.233" y2="55.3628" gradientUnits="userSpaceOnUse">
<stop stop-color="#392DD1"/>
<stop offset="1" stop-color="#FF4343"/>
</linearGradient>
<linearGradient id="paint1_linear_942_19477" x1="229.543" y1="14.9937" x2="229.588" y2="24.8054" gradientUnits="userSpaceOnUse">
<stop stop-color="#150D7E"/>
<stop offset="1" stop-color="#360A4C"/>
</linearGradient>
<linearGradient id="paint2_linear_942_19477" x1="76.3834" y1="17.1622" x2="127.808" y2="17.1622" gradientUnits="userSpaceOnUse">
<stop stop-color="#150D7E"/>
<stop offset="1" stop-color="#360A4C"/>
</linearGradient>
<linearGradient id="paint3_linear_942_19477" x1="80.6208" y1="104.238" x2="88.2214" y2="111.577" gradientUnits="userSpaceOnUse">
<stop stop-color="#89079C"/>
<stop offset="1" stop-color="#4348FF"/>
</linearGradient>
<linearGradient id="paint4_linear_942_19477" x1="100.52" y1="92.7966" x2="108.12" y2="100.136" gradientUnits="userSpaceOnUse">
<stop stop-color="#89079C"/>
<stop offset="1" stop-color="#4348FF"/>
</linearGradient>
<linearGradient id="paint5_linear_942_19477" x1="90.5702" y1="81.6035" x2="98.1707" y2="88.9425" gradientUnits="userSpaceOnUse">
<stop stop-color="#89079C"/>
<stop offset="1" stop-color="#4348FF"/>
</linearGradient>
<linearGradient id="paint6_linear_942_19477" x1="20.8222" y1="101.761" x2="60.4188" y2="143.471" gradientUnits="userSpaceOnUse">
<stop stop-color="#89079C"/>
<stop offset="1" stop-color="#4348FF"/>
</linearGradient>
<linearGradient id="paint7_linear_942_19477" x1="125.996" y1="63" x2="181.531" y2="103.099" gradientUnits="userSpaceOnUse">
<stop stop-color="#392DD1"/>
<stop offset="1" stop-color="#A91B78"/>
</linearGradient>
</defs>
</svg>
