<svg width="24" height="24" xmlns="http://www.w3.org/2000/svg"><path d="M12 19.061c-.081 0-.163-.001-.245-.004l-1.113 1.696c-.287.438-.83.646-1.335.5a9.75 9.75 0 0 1-4.067-2.325 1.198 1.198 0 0 1-.233-1.41l.926-1.807a7.085 7.085 0 0 1-.238-.408l-2.046-.108a1.199 1.199 0 0 1-1.106-.898 9.535 9.535 0 0 1-.293-2.335c0-.787.1-1.568.294-2.337.13-.51.583-.87 1.101-.896l2.05-.108c.074-.139.154-.274.238-.408l-.926-1.806a1.198 1.198 0 0 1 .234-1.411 9.745 9.745 0 0 1 4.064-2.324 1.206 1.206 0 0 1 1.337.499l1.113 1.696a7.047 7.047 0 0 1 .49 0l1.113-1.696c.287-.438.83-.645 1.336-.5a9.751 9.751 0 0 1 4.066 2.326 1.2 1.2 0 0 1 .233 1.41l-.926 1.806c.084.133.163.27.238.408l2.046.108a1.2 1.2 0 0 1 1.106.898c.193.767.293 1.548.293 2.335 0 .787-.1 1.568-.294 2.337-.13.51-.583.87-1.101.896l-2.05.108a7.138 7.138 0 0 1-.238.408l.927 1.81a1.2 1.2 0 0 1-.235 1.407 9.748 9.748 0 0 1-4.064 2.325 1.207 1.207 0 0 1-1.337-.5l-1.113-1.696a7.047 7.047 0 0 1-.245.004zm-2.504.653l1.226-1.867a.764.764 0 0 1 .71-.342 6.037 6.037 0 0 0 1.135 0 .764.764 0 0 1 .711.342l1.227 1.868a8.22 8.22 0 0 0 3.015-1.722l-1.018-1.987a.764.764 0 0 1 .06-.796c.22-.303.408-.625.562-.963a.764.764 0 0 1 .655-.446l2.253-.12c.126-.568.19-1.142.19-1.719 0-.577-.065-1.152-.19-1.72l-2.253-.119a.764.764 0 0 1-.655-.446 5.617 5.617 0 0 0-.561-.963.764.764 0 0 1-.061-.796L17.52 5.93a8.223 8.223 0 0 0-3.015-1.722l-1.227 1.869a.764.764 0 0 1-.71.34A6.037 6.037 0 0 0 12 6.392c-.183 0-.372.01-.568.028a.764.764 0 0 1-.71-.341L9.496 4.21A8.218 8.218 0 0 0 6.48 5.93l1.018 1.988a.764.764 0 0 1-.06.796 5.563 5.563 0 0 0-.562.962.764.764 0 0 1-.655.447l-2.253.12a7.962 7.962 0 0 0-.19 1.719c0 .577.065 1.152.19 1.72l2.253.119a.764.764 0 0 1 .655.447c.152.335.34.657.561.962.169.233.192.54.061.796L6.48 17.993a8.222 8.222 0 0 0 3.016 1.721zm.48-7.752a2.025 2.025 0 1 0 4.049 0 2.025 2.025 0 0 0-4.05 0zm-1.529 0a3.553 3.553 0 1 1 7.106 0 3.553 3.553 0 0 1-7.106 0z" fill-rule="evenodd"/></svg>