<svg xmlns="http://www.w3.org/2000/svg" fill="none" viewBox="0 0 92 99"><path fill="url(#a)" d="M67.957 40.601c.281 1.407.468 32.162.468 45.38 0 .938-.75 1.689-1.591 1.689-.936 0-1.59-.75-1.59-1.593-.096-17.065-.187-43.132-.469-44.82-.187-.843.373-1.69 1.31-1.876.844-.282 1.685.374 1.872 1.22m-3.464-8.252c-4.304-6.19-11.325-9.941-18.91-9.941-12.638 0-22.84 10.218-22.84 22.877v21.001c0 .938.75 1.594 1.59 1.594.842 0 1.592-.751 1.592-1.594V45.288c0-10.783 8.798-19.595 19.564-19.595 6.458 0 12.452 3.186 16.1 8.534.469.75 1.5.937 2.246.469.94-.568 1.126-1.597.658-2.348zm-18.91-2.44c-1.777 0-3.557.283-5.148.938a1.65 1.65 0 0 0-1.032 2.062 1.647 1.647 0 0 0 2.06 1.033c1.308-.469 2.713-.75 4.117-.75 6.648 0 11.984 5.438 11.984 12.002v.095c0 .374 1.967 33.287-2.059 44.635-.282.842.095 1.78 1.031 2.062.187.095.373.095.563.095.655 0 1.31-.374 1.5-1.125 4.213-11.816 2.435-43.973 2.34-45.945-.095-8.255-6.93-15.1-15.355-15.1zM33.6 45.195c0-2.53.75-4.97 2.245-6.937.563-.75.373-1.78-.373-2.249-.75-.564-1.777-.373-2.245.374-1.873 2.626-2.809 5.721-2.809 8.907 0 .283.563 28.034-6.366 40.884-.469.75-.096 1.78.654 2.249.282.095.563.187.75.187.563 0 1.122-.282 1.404-.843 7.394-13.691 6.835-41.448 6.74-42.572m18.441 23.35c-.936 0-1.685.655-1.685 1.593-.373 10.127-1.591 17.533-3.372 21.284-.373.842-.095 1.78.75 2.157.186.095.468.187.75.187.654 0 1.217-.374 1.499-.938 2.058-4.22 3.276-11.816 3.744-22.6-.091-.842-.75-1.592-1.686-1.683M45.583 37.41c-4.212 0-7.676 3.468-7.676 7.783 0 .374.469 33.382-6.553 43.787-.468.751-.281 1.78.468 2.25.282.186.564.281.936.281.564 0 1.032-.282 1.31-.75 7.676-11.252 7.207-44.352 7.116-45.663a4.4 4.4 0 0 1 4.4-4.406c2.435 0 4.398 1.97 4.398 4.406v.095c0 .095.469 7.688.469 16.878 0 .937.75 1.688 1.59 1.688.937 0 1.591-.75 1.591-1.593 0-8.908-.373-16.409-.468-17.064.19-4.315-3.273-7.692-7.58-7.692M7.105 28.225C13.848 13.222 28.827 3.377 45.302 3.28c.936 0 1.59-.75 1.59-1.688S46.142 0 45.302 0C27.61.095 11.412 10.687 4.11 26.91c-.373.842 0 1.78.841 2.157.187.095.468.186.655.186.563 0 1.22-.373 1.499-1.028M51.573.374C50.637.278 49.887.938 49.7 1.78c-.187.843.563 1.689 1.404 1.875C72.077 6.377 87.897 24.38 87.897 45.571c0 .938.75 1.593 1.591 1.593.936 0 1.59-.75 1.59-1.593C91.175 22.785 74.137 3.377 51.574.374M3.36 45.477c-.373-4.784.468-7.502 1.5-10.97l.186-.75c.282-.843-.282-1.78-1.123-2.063-.84-.282-1.777.282-2.058 1.125l-.187.75C.647 37.225-.289 40.415.084 45.76c.186 2.718.75 4.875 1.217 6.845.469 1.971.842 3.564.75 4.97-.095.938.563 1.69 1.5 1.78h.186c.841 0 1.5-.655 1.59-1.501.187-1.97-.28-3.937-.84-6.095-.468-1.78-.937-3.842-1.127-6.281M45.583 7.502a38.1 38.1 0 0 0-15.446 3.281c-.842.374-1.218 1.312-.842 2.158.373.842 1.31 1.22 2.154.842 4.495-1.97 9.175-3 14.043-3 19.096 0 34.734 15.567 34.734 34.79v8.156c0 .938.75 1.593 1.59 1.593s1.591-.75 1.591-1.593v-8.157c.187-21.005-16.855-38.07-37.824-38.07M11.227 47.165l-.282-1.875c-1.777-10.783 6.74-22.786 15.543-28.694.75-.469.936-1.502.468-2.249-.468-.75-1.5-.938-2.246-.469-10.02 6.564-19.009 19.69-17.04 31.88l.28 1.971c1.591 9.75 2.528 15.658-1.122 23.255-.373.842-.095 1.78.75 2.157.186.095.468.187.75.187.563 0 1.217-.374 1.499-.938 4.114-8.534 3.086-15.098 1.4-25.225M59.344 18.19c-.841-.374-1.777-.095-2.154.75-.373.843-.095 1.78.75 2.25 9.175 4.688 14.978 13.969 14.978 24.283v35.535c0 .938.75 1.593 1.591 1.593s1.591-.75 1.591-1.593l.004-35.627c-.095-11.53-6.462-21.938-16.76-27.191m-40.91 27.005c-.654-6.095 1.591-12.285 6.18-17.442 5.336-5.908 13.202-9.472 20.969-9.472 2.34 0 4.586.282 6.835.842.84.187 1.777-.282 1.967-1.22.187-.842-.281-1.78-1.218-1.97-2.526-.656-5.053-.938-7.675-.938-8.708 0-17.506 3.938-23.405 10.597-5.244 5.813-7.676 12.94-7.021 20.064v.187c4.586 21.097-3.931 32.066-4.026 32.162-.563.75-.468 1.78.281 2.344.282.282.655.374 1.032.374.468 0 .936-.187 1.309-.564.464-.74 9.64-12.365 4.772-34.964m63.564 12.567c-.936 0-1.59.75-1.59 1.593v11.438c0 .938.75 1.594 1.59 1.594s1.591-.751 1.591-1.594l.004-11.438c0-.846-.75-1.593-1.595-1.593M23.302 71.358c-.937-.096-1.686.468-1.873 1.406-.281 2.062-1.686 7.875-4.026 9.941-.655.656-.75 1.689-.095 2.344.281.374.75.564 1.218.564.373 0 .75-.186 1.122-.469 3.558-3.281 4.868-10.97 5.054-11.907.099-.941-.464-1.788-1.4-1.88m23.967-25.881c-.095-.938-.84-1.594-1.685-1.594-.937.095-1.591.843-1.591 1.689 0 .187 1.031 20.16-1.123 33.569-.186.937.468 1.78 1.31 1.875h.28c.75 0 1.5-.564 1.591-1.407 2.341-13.6 1.31-33.29 1.218-34.132m-3.558 38.07c-.841-.187-1.777.469-1.872 1.311-.655 3.564-2.904 6.095-2.904 6.095-.654.656-.563 1.688.095 2.344.282.282.75.469 1.123.469.468 0 .841-.187 1.218-.564.095-.095 2.903-3.187 3.744-7.783a1.725 1.725 0 0 0-1.404-1.872" opacity=".1"/><path fill="#252381" d="M35.426 62.489h19.66V89.17h-19.66z"/><path fill="url(#b)" fill-rule="evenodd" d="M45.609 33.002c-5.83 0-10.577 4.739-10.577 10.568v9.992H26.63V43.57c0-10.463 8.514-18.977 18.978-18.977 10.463 0 18.977 8.514 18.977 18.977v9.992h-8.4V43.57c0-5.83-4.748-10.568-10.577-10.568M25.016 55.971H66.2c4.642 0 8.4 3.767 8.4 8.4v24.093c0 4.642-3.758 8.41-8.4 8.41H25.016c-4.643 0-8.4-3.767-8.4-8.41V64.372c0-4.634 3.757-8.401 8.4-8.401m24.43 28.73v-6.853a7.3 7.3 0 0 0 3.486-6.224c0-4.039-3.286-7.315-7.325-7.315s-7.324 3.276-7.324 7.315a7.3 7.3 0 0 0 3.486 6.224V84.7a3.84 3.84 0 0 0 7.677 0" clip-rule="evenodd"/><defs><linearGradient id="a" x1="33.68" x2="43.103" y1="96.911" y2=".49" gradientUnits="userSpaceOnUse"><stop stop-color="#D7D7FF"/><stop offset="1" stop-color="#4D52FD"/></linearGradient><linearGradient id="b" x1="45" x2="3.078" y1="26.5" y2="87.583" gradientUnits="userSpaceOnUse"><stop stop-color="#5B63D0"/><stop offset="1" stop-color="#35339F"/></linearGradient></defs></svg>
