<svg xmlns="http://www.w3.org/2000/svg" fill="none" viewBox="0 0 92 99"><path fill="url(#a)" d="M68.277 40.69c.281 1.406.468 32.162.468 45.38 0 .938-.75 1.689-1.59 1.689-.937 0-1.592-.751-1.592-1.593-.095-17.065-.186-43.132-.468-44.821-.186-.843.373-1.689 1.31-1.875.844-.282 1.685.374 1.872 1.22m-3.463-8.252c-4.305-6.19-11.326-9.941-18.91-9.941-12.638 0-22.84 10.218-22.84 22.877v21.001c0 .938.749 1.593 1.59 1.593s1.59-.75 1.59-1.593V45.377c0-10.784 8.8-19.596 19.565-19.596 6.458 0 12.452 3.187 16.101 8.535.468.75 1.5.937 2.245.468.94-.567 1.127-1.596.659-2.347m-18.91-2.44c-1.777 0-3.558.282-5.149.938a1.65 1.65 0 0 0-1.031 2.062 1.647 1.647 0 0 0 2.059 1.033c1.309-.469 2.713-.75 4.117-.75 6.648 0 11.984 5.438 11.984 12.002v.095c0 .374 1.968 33.287-2.059 44.634-.281.843.095 1.78 1.032 2.063.186.095.373.095.563.095.654 0 1.309-.374 1.5-1.125 4.212-11.816 2.435-43.974 2.34-45.945-.096-8.255-6.93-15.1-15.355-15.1zM33.92 45.283c0-2.53.75-4.97 2.245-6.937.563-.75.373-1.78-.373-2.249-.75-.564-1.777-.373-2.245.374-1.872 2.626-2.808 5.72-2.808 8.907 0 .282.563 28.034-6.367 40.884-.468.75-.095 1.78.654 2.249.282.095.564.187.75.187.563 0 1.123-.282 1.404-.843 7.395-13.692 6.835-41.448 6.74-42.572m18.442 23.35c-.937 0-1.686.655-1.686 1.593-.373 10.127-1.59 17.533-3.372 21.284-.373.842-.095 1.78.75 2.157.186.095.468.187.75.187.654 0 1.217-.374 1.499-.938 2.059-4.22 3.276-11.816 3.745-22.6-.092-.842-.75-1.592-1.686-1.684M45.904 37.5c-4.213 0-7.676 3.468-7.676 7.783 0 .373.468 33.382-6.553 43.787-.469.751-.282 1.78.468 2.25.281.186.563.281.936.281.563 0 1.031-.282 1.309-.75 7.676-11.252 7.208-44.352 7.116-45.663a4.4 4.4 0 0 1 4.4-4.407c2.435 0 4.399 1.971 4.399 4.407v.095c0 .095.468 7.688.468 16.878 0 .937.75 1.688 1.59 1.688.937 0 1.591-.75 1.591-1.593 0-8.908-.373-16.409-.468-17.065.19-4.314-3.273-7.691-7.58-7.691M7.425 28.314C14.17 13.31 29.147 3.466 45.622 3.37c.936 0 1.59-.75 1.59-1.688s-.75-1.594-1.59-1.594C27.93.184 11.733 10.776 4.43 26.998c-.373.842 0 1.78.841 2.157.187.096.469.187.655.187.563 0 1.221-.373 1.5-1.028M51.893.463c-.936-.096-1.686.564-1.872 1.406s.563 1.689 1.404 1.875C72.397 6.466 88.218 24.468 88.218 45.66c0 .938.75 1.593 1.59 1.593.936 0 1.591-.75 1.591-1.593C91.494 22.874 74.456 3.466 51.893.463M3.68 45.565c-.373-4.783.469-7.5 1.5-10.97l.186-.75c.282-.842-.281-1.78-1.122-2.062s-1.778.282-2.06 1.124l-.186.751C.968 37.313.031 40.504.404 45.848c.186 2.717.75 4.875 1.218 6.845s.84 3.564.75 4.97c-.096.938.563 1.69 1.499 1.78h.186c.841 0 1.5-.655 1.591-1.501.187-1.97-.282-3.937-.841-6.095-.468-1.78-.936-3.842-1.127-6.282M45.904 7.591a38.1 38.1 0 0 0-15.447 3.281c-.841.374-1.218 1.312-.841 2.158.373.842 1.309 1.22 2.154.842 4.494-1.97 9.175-3 14.042-3 19.096 0 34.734 15.567 34.734 34.79v8.156c0 .938.75 1.593 1.59 1.593.842 0 1.592-.75 1.592-1.593V45.66c.186-21.005-16.856-38.07-37.824-38.07M11.547 47.254l-.282-1.875c-1.777-10.783 6.74-22.786 15.543-28.694.75-.469.936-1.502.468-2.25-.468-.75-1.5-.937-2.245-.468-10.02 6.564-19.01 19.69-17.042 31.88l.282 1.97c1.59 9.75 2.527 15.659-1.123 23.256-.373.842-.095 1.78.75 2.157.187.095.468.187.75.187.563 0 1.218-.374 1.5-.938 4.113-8.534 3.085-15.098 1.4-25.225M59.664 18.28c-.84-.374-1.777-.095-2.154.75-.373.843-.095 1.78.75 2.25 9.175 4.688 14.979 13.969 14.979 24.283v35.535c0 .938.75 1.593 1.59 1.593.842 0 1.591-.75 1.591-1.593l.004-35.627c-.095-11.53-6.462-21.938-16.76-27.191m-40.91 27.005C18.1 39.19 20.346 33 24.935 27.842c5.336-5.908 13.203-9.472 20.97-9.472 2.34 0 4.585.282 6.834.842.841.187 1.777-.282 1.968-1.22.186-.842-.282-1.78-1.218-1.97-2.527-.656-5.054-.938-7.676-.938-8.707 0-17.506 3.938-23.404 10.597-5.244 5.812-7.676 12.94-7.022 20.064v.186c4.586 21.097-3.93 32.067-4.026 32.163-.563.75-.468 1.78.282 2.344.281.282.654.373 1.03.373.469 0 .937-.186 1.31-.564.465-.74 9.64-12.365 4.773-34.963M82.32 57.85c-.936 0-1.591.751-1.591 1.594v11.438c0 .938.75 1.593 1.59 1.593.842 0 1.591-.75 1.591-1.593l.004-11.438c0-.846-.75-1.594-1.594-1.594M23.622 71.447c-.936-.095-1.686.47-1.872 1.407-.282 2.062-1.686 7.875-4.027 9.94-.654.657-.75 1.69-.095 2.345.282.374.75.564 1.218.564.373 0 .75-.187 1.122-.469 3.559-3.282 4.868-10.97 5.054-11.907.1-.941-.464-1.788-1.4-1.88m23.968-25.88c-.095-.938-.841-1.594-1.686-1.594-.936.095-1.59.843-1.59 1.689 0 .186 1.03 20.16-1.124 33.569-.186.937.468 1.78 1.31 1.875h.281c.75 0 1.5-.564 1.59-1.407 2.341-13.6 1.31-33.29 1.219-34.133m-3.559 38.07c-.84-.187-1.777.469-1.872 1.311-.654 3.564-2.904 6.095-2.904 6.095-.654.656-.563 1.688.096 2.344.281.282.75.469 1.122.469.468 0 .841-.187 1.218-.564.095-.095 2.904-3.187 3.745-7.784a1.725 1.725 0 0 0-1.404-1.871" opacity=".1"/><path fill="#4A48B9" d="M35.426 62.489h19.66V89.17h-19.66z"/><path fill="url(#b)" fill-rule="evenodd" d="M45.609 33.002c-5.83 0-10.577 4.739-10.577 10.568v9.992H26.63V43.57c0-10.463 8.514-18.977 18.978-18.977 10.463 0 18.977 8.514 18.977 18.977v9.992h-8.4V43.57c0-5.83-4.748-10.568-10.577-10.568M25.016 55.971H66.2c4.642 0 8.4 3.767 8.4 8.4v24.093c0 4.642-3.758 8.41-8.4 8.41H25.016c-4.643 0-8.4-3.767-8.4-8.41V64.372c0-4.634 3.757-8.401 8.4-8.401m24.43 28.73v-6.853a7.3 7.3 0 0 0 3.486-6.224c0-4.039-3.286-7.315-7.325-7.315s-7.324 3.276-7.324 7.315a7.3 7.3 0 0 0 3.486 6.224V84.7a3.84 3.84 0 0 0 7.677 0" clip-rule="evenodd"/><defs><linearGradient id="a" x1="34" x2="43.424" y1="97" y2=".579" gradientUnits="userSpaceOnUse"><stop stop-color="#D7D7FF"/><stop offset="1" stop-color="#3A36E9"/></linearGradient><linearGradient id="b" x1="45" x2="3.078" y1="26.5" y2="87.583" gradientUnits="userSpaceOnUse"><stop stop-color="#D7D7FF"/><stop offset="1" stop-color="#3A36E9"/></linearGradient></defs></svg>
