<svg width="25" height="25" viewBox="0 0 25 25" fill="none" xmlns="http://www.w3.org/2000/svg">
<path fill-rule="evenodd" clip-rule="evenodd" d="M12.2959 24.5485C5.66848 24.5485 0.295898 19.1759 0.295898 12.5485C0.295898 5.92111 5.66848 0.548523 12.2959 0.548523C18.9233 0.548523 24.2959 5.92111 24.2959 12.5485C24.2959 19.1759 18.9233 24.5485 12.2959 24.5485ZM12.2959 22.5485C17.8187 22.5485 22.2959 18.0714 22.2959 12.5485C22.2959 7.02568 17.8187 2.54852 12.2959 2.54852C6.77305 2.54852 2.2959 7.02568 2.2959 12.5485C2.2959 18.0714 6.77305 22.5485 12.2959 22.5485ZM17.8699 17.9415C18.3221 17.6245 18.4318 17.0009 18.1148 16.5487C16.8074 14.6832 14.6746 13.5484 12.3526 13.5484C9.94699 13.5484 7.74762 14.7667 6.4583 16.744C6.15663 17.2066 6.28711 17.8262 6.74973 18.1278C7.21235 18.4295 7.83193 18.299 8.13359 17.8364C9.0575 16.4195 10.6301 15.5484 12.3526 15.5484C14.0154 15.5484 15.5401 16.3596 16.477 17.6965C16.794 18.1488 17.4176 18.2585 17.8699 17.9415ZM8.7959 10.5485C9.62433 10.5485 10.2959 9.87695 10.2959 9.04852C10.2959 8.2201 9.62433 7.54852 8.7959 7.54852C7.96747 7.54852 7.2959 8.2201 7.2959 9.04852C7.2959 9.87695 7.96747 10.5485 8.7959 10.5485ZM17.2959 9.04852C17.2959 9.87695 16.6243 10.5485 15.7959 10.5485C14.9675 10.5485 14.2959 9.87695 14.2959 9.04852C14.2959 8.2201 14.9675 7.54852 15.7959 7.54852C16.6243 7.54852 17.2959 8.2201 17.2959 9.04852Z" fill="#E32444"/>
</svg>
