<svg xmlns="http://www.w3.org/2000/svg" width="800" height="800"><defs><linearGradient id="b" x1=".907" x2=".163" y1=".227" y2=".853" gradientUnits="objectBoundingBox"><stop offset="0" stop-color="#b6509e"/><stop offset="1" stop-color="#2ebac6"/></linearGradient><clipPath id="a"><path d="M0 0h800v800H0z"/></clipPath></defs><g clip-path="url(#a)"><circle cx="388" cy="388" r="388" fill="url(#b)" transform="translate(12 12)"/><path fill="#fff" d="M569.786 554.581 438.553 237.422C431.137 221.033 420.174 213 405.664 213h-11.607c-14.51 0-25.473 8.033-32.889 24.422L304.1 375.6h-43.211a23.63 23.63 0 0 0-23.538 23.458v.321a23.63 23.63 0 0 0 23.538 23.458H284.1l-54.488 131.744a27.793 27.793 0 0 0-1.612 9c0 7.391 2.257 13.175 6.449 17.674S244.444 588 251.861 588a23.574 23.574 0 0 0 13.539-4.5c4.192-2.892 7.094-7.069 9.351-11.889l59.974-148.779h41.595a23.63 23.63 0 0 0 23.538-23.458v-.643a23.63 23.63 0 0 0-23.538-23.458h-22.246L399.86 261.2l124.785 310.412c2.257 4.82 5.159 9 9.351 11.889a23.574 23.574 0 0 0 13.543 4.5q11.124 0 17.412-6.748c4.192-4.5 6.449-10.283 6.449-17.674a21.246 21.246 0 0 0-1.614-8.998Z"/></g></svg>
