<svg xmlns="http://www.w3.org/2000/svg" width="20" height="20" fill="inherit"><path d="m15.49 10.881-.086 1.056-.15 1.05-.213 1.037-.008.03-.01.028-.012.029-.013.028-.015.026-.017.026-.018.025-.02.023-.02.022-.023.021-.024.02-.025.018-.026.016-.521.285-.538.252-.552.218-.565.183-.575.147-.583.11-.588.075-.582.035-.01.002h-.593l-.01-.002-.582-.035-.588-.074-.583-.111-.575-.147-.564-.183-.553-.218-.538-.252-.521-.285-.026-.016-.025-.018-.024-.02-.022-.02-.021-.023-.02-.023-.018-.025-.017-.026-.015-.026-.013-.028-.011-.029-.01-.029-.009-.03-.213-1.037-.15-1.049-.085-1.056-.02-1.06.045-1.058.11-1.054.176-1.044.006-.029.008-.028.008-.02.002-.008.012-.027.013-.027.192-.33.213-.319.232-.303.252-.287.106-.107.163-.163.287-.252.302-.232.316-.212.33-.191.34-.169.352-.146.36-.122.367-.099.372-.074.377-.05.379-.025h.38l.378.025.377.05.373.074.367.099.36.122.35.146.341.169.33.19.316.213.302.232.287.252.163.163.106.107.252.287.233.303.212.318.192.331.013.027.012.027.003.008.007.02.008.028.007.029.174 1.044.11 1.054.046 1.059-.02 1.06Zm2.142-2.098-.009-.09-.014-.09-.02-.09-.023-.086-.03-.086-.034-.083-.038-.08-.043-.079-.048-.075-.051-.072-.056-.068-.06-.064-.063-.06-.066-.056-.07-.05-.097-.064-.026-.019-.024-.02-.022-.022-.022-.023-.02-.025-.02-.026-.016-.027-.016-.029-.014-.029-.012-.03-.01-.031-.076-.22-.088-.214-.101-.207-.113-.199-.125-.191-.136-.182-.147-.172-.157-.16-.165-.15-.022-.019-.02-.02-.02-.022-.018-.022-.017-.024-.015-.025-.015-.026-.21-.372-.231-.358-.252-.34-.271-.323-.29-.303-.307-.282-.323-.26-.338-.238-.35-.214-.363-.188-.372-.164-.382-.137-.389-.11L11 2.084l-.398-.056L10.2 2h-.4l-.402.028L9 2.084l-.395.083-.389.11-.381.137-.373.164-.363.188-.35.214-.338.237-.323.26-.307.283-.29.303-.27.323-.253.34-.231.358-.21.372-.014.026-.016.025-.017.024-.018.022-.02.022-.02.02-.021.02-.166.149-.157.16-.146.172-.137.182-.125.191-.113.2-.1.207-.089.213-.075.22-.01.03-.013.031-.014.03-.015.028-.018.027-.018.026-.02.025-.022.023-.023.022-.024.02-.025.019-.099.063-.069.051-.066.056-.063.06-.06.064-.055.068-.052.072-.048.075-.043.078-.038.081-.034.083-.03.086-.024.087-.019.089-.014.09-.009.09-.004.09.001.092.172 4.158.004.063.008.063.012.063.015.061.018.06.022.06.025.057.028.056.031.053.067.1.071.095.077.09.082.085.086.08.09.073.12.086.024.02.023.02.022.023.02.025.019.025.018.027.016.027.014.03.013.029.134.371.141.332c.105.213 2.472 2.173 2.472 2.173S7.438 18 10 18s3.79-.63 3.79-.63 2.368-1.96 2.473-2.173l.141-.332.134-.371.013-.03.015-.029.015-.027.018-.027.02-.025.02-.025.021-.022.023-.022.024-.02.12-.085.09-.073.087-.08.081-.085.077-.09.072-.095.066-.1.031-.053.028-.056.025-.058.022-.059.018-.06.015-.061.012-.063.008-.063.004-.063.172-4.158.001-.091-.004-.091Z"/><path d="M12.806 10.823h-.723c-.09 0-.164.083-.164.184v.56c0 .103-.036.2-.1.273l-.046.052a.324.324 0 0 1-.242.112H8.469a.325.325 0 0 1-.243-.112l-.046-.052a.411.411 0 0 1-.1-.272v-.56c0-.102-.073-.185-.164-.185h-.723c-.09 0-.164.083-.164.184v.813c0 .102.074.184.164.184h.545c.09 0 .178.041.242.113.064.072.1.17.1.273v.594c0 .111.08.202.18.202h3.48c.099 0 .18-.091.18-.202v-.594c0-.103.035-.2.1-.273a.325.325 0 0 1 .242-.113h.544c.09 0 .164-.082.164-.184v-.813c0-.101-.073-.184-.164-.184Z"/></svg>
