<svg xmlns="http://www.w3.org/2000/svg" xml:space="preserve" width="3840" height="2160" version="1.0"><path fill="#A16552" d="M1360.027 874.877c-12.301 44.897-18.602 91.204-18.798 137.751v9.666a708.12 708.12 0 0 1-18.796 167.101c-25.926-9.203-52.631-27.863-78.106-60.15-67.083-84.958-44.781-221.2 37.925-253.269 31.267-12.101 57.449-9.554 77.89-1.603-.062.153-.081.33-.115.504z"/><path fill="#F5DCB4" d="M1360.027 874.877c-12.301 44.897-18.602 91.204-18.798 137.751v9.666a708.12 708.12 0 0 1-18.796 167.101c-25.926-9.203-52.631-27.863-78.106-60.15-67.083-84.958-44.781-221.2 37.925-253.269 31.267-12.101 57.449-9.554 77.89-1.603-.062.153-.081.33-.115.504z"/><path fill="#A16552" d="M2595.791 1129.284c-25.452 32.228-52.18 50.869-78.126 60.149a709.762 709.762 0 0 1-18.797-167.058v-9.673a527.244 527.244 0 0 0-18.992-138.278c20.461-7.926 46.621-10.476 77.907 1.63 82.709 31.99 105.03 168.232 38.008 253.23z"/><path fill="#F5DCB4" d="M2595.791 1129.284c-25.452 32.228-52.18 50.869-78.126 60.149a709.762 709.762 0 0 1-18.797-167.058v-9.673a527.244 527.244 0 0 0-18.992-138.278c20.461-7.926 46.621-10.476 77.907 1.63 82.709 31.99 105.03 168.232 38.008 253.23z"/><path fill="#A16552" d="M2338.078 1191.139c-24.694 38.103-30.743 85.368-16.468 128.483 11.021 32.406 20.874 69.1 20.874 96.394-.081 199.7-189.147 361.353-422.448 361.353-233.319 0-422.48-161.652-422.48-361.43 0-27.296 9.849-63.91 20.85-96.394 14.296-43.098 8.268-90.344-16.426-128.446a232.433 232.433 0 0 1-36.537-124.587c0-132.521 112.784-240.017 251.881-240.017a260.67 260.67 0 0 1 128.388 33.464c45.954 26.156 102.303 26.156 148.26 0a260.505 260.505 0 0 1 128.349-33.422c139.099 0 252.118 107.493 252.118 240.008a228.965 228.965 0 0 1-20.758 95.965 230.345 230.345 0 0 1-15.603 28.629z"/><path fill="#F5DCB4" d="M2338.078 1191.139c-24.694 38.103-30.743 85.368-16.468 128.483 11.021 32.406 20.874 69.1 20.874 96.394-.081 199.7-189.147 361.353-422.448 361.353-233.319 0-422.48-161.652-422.48-361.43 0-27.296 9.849-63.91 20.85-96.394 14.296-43.098 8.268-90.344-16.426-128.446a232.433 232.433 0 0 1-36.537-124.587c0-132.521 112.784-240.017 251.881-240.017a260.67 260.67 0 0 1 128.388 33.464c45.954 26.156 102.303 26.156 148.26 0a260.505 260.505 0 0 1 128.349-33.422c139.099 0 252.118 107.493 252.118 240.008a228.965 228.965 0 0 1-20.758 95.965 230.345 230.345 0 0 1-15.603 28.629z"/><path fill="#4E3F3F" d="M1704.854 1460.679c-14.668-.04-26.025 12.864-24.105 27.411 15.036 106.948 116.541 189.654 239.288 189.654 122.754 0 224.31-82.706 239.293-189.654 1.895-14.527-9.417-27.431-24.065-27.411h-430.411z"/><path fill="#E6646E" d="M1781.06 1637.938c85.037 53.083 192.902 53.083 277.957 0-17.447-60.384-73.192-46.464-139.096-46.464-65.911 0-121.44-13.92-138.861 46.464z"/><path fill="#A16552" d="M2595.791 1129.284c-25.452 32.228-52.18 50.869-78.126 60.149a709.762 709.762 0 0 1-18.797-167.058v-9.673a527.244 527.244 0 0 0-18.992-138.278c20.461-7.926 46.621-10.476 77.907 1.63 82.709 31.99 105.03 168.232 38.008 253.23zm-242.11 33.226a230.214 230.214 0 0 1-15.603 28.629c-24.694 38.103-30.743 85.368-16.468 128.483 11.021 32.406 20.874 69.1 20.874 96.394-.081 199.7-189.147 361.353-422.448 361.353-233.319 0-422.48-161.652-422.48-361.43 0-27.296 9.849-63.91 20.85-96.394 14.296-43.098 8.268-90.344-16.426-128.446a232.433 232.433 0 0 1-36.537-124.587c0-132.521 112.784-240.017 251.881-240.017a260.67 260.67 0 0 1 128.388 33.464c45.954 26.156 102.303 26.156 148.26 0a260.505 260.505 0 0 1 128.349-33.422c139.099 0 252.118 107.493 252.118 240.008a228.98 228.98 0 0 1-20.758 95.965zm-993.654-287.633c-12.301 44.897-18.602 91.204-18.798 137.751v9.666a708.12 708.12 0 0 1-18.796 167.101c-25.926-9.203-52.631-27.863-78.106-60.15-67.083-84.958-44.781-221.2 37.925-253.269 31.267-12.101 57.449-9.554 77.89-1.603-.062.153-.081.33-.115.504zm1226.365-43.523c-50.01-19.41-89.658-9.168-117.557 6.872a615.421 615.421 0 0 0-23.5-58.977 669.113 669.113 0 0 0-20.934-41.685c-76.516-139.96-205.156-256.131-352.792-305.239l-2.901-79.473-95.549 57.366-11.515-1.272c-7.068-.646-14.06-1.138-21.202-1.429l-13.945-60.15-4.091-17.367c-4.777 0-9.437 0-13.98.525-88.91 7.229-133.168 88.017-140.074 101.84-147.598 49.11-276.182 165.413-352.681 305.199a629.64 629.64 0 0 0-20.934 41.685 621.513 621.513 0 0 0-23.533 58.977l-3.583-1.98c-27.665-14.86-66.08-23.417-113.937-4.892-105.263 40.742-133.417 213.909-48.265 321.799 34.737 43.918 71.428 67.981 106.457 78.693a244.696 244.696 0 0 0-1.314 5.933 413.7 413.7 0 0 0-9.513 88.462c0 206.12 152.02 383.46 369.851 461.388a720.24 720.24 0 0 0 158.11 37.105 755.386 755.386 0 0 0 84.37 5.267h6.698c341.829 0 618.951-225.563 618.951-503.76a413.002 413.002 0 0 0-9.518-88.385c-.453-1.996-.861-3.975-1.348-5.933 35.222-10.712 71.759-34.774 106.453-78.732 85.196-107.928 56.803-281.13-48.224-321.837z"/><path fill="#4E3F3F" d="m1814.598 1281.146.489-1.096a19.675 19.675 0 0 1 26.123-9.73l48.008 21.929c9.925 4.523 14.257 16.175 9.731 26.101l-.507 1.096c-4.528 9.927-16.174 14.256-26.1 9.732l-48.01-21.93c-9.93-4.543-14.277-16.175-9.734-26.102zm127.058 38.379-.51-1.097a19.67 19.67 0 0 1 9.752-26.101l48.012-21.93a19.666 19.666 0 0 1 26.101 9.732l.485 1.096c4.547 9.926.193 21.575-9.73 26.101l-48.012 21.929c-9.929 4.544-21.556.196-26.098-9.73zm-238.681-157.074c-39.966 0-72.372-30.682-72.372-68.586v-22.852c0-37.849 32.406-68.572 72.372-68.572 39.959 0 72.323 30.723 72.323 68.572v22.852c0 37.905-32.364 68.586-72.323 68.586z"/><path fill="#5D5360" d="M1702.975 1002.441v80.004c.875 19.326 16.796 34.561 36.159 34.561 19.348 0 35.289-15.234 36.164-34.561v-11.278c0-38.159-32.364-68.726-72.323-68.726z"/><path fill="#FFF" d="M1727.095 1048.161c0 12.61-10.809 22.852-24.12 22.852-13.341 0-24.146-10.242-24.146-22.852 0-12.628 10.805-22.868 24.146-22.868 13.311 0 24.12 10.24 24.12 22.868z"/><path fill="#4E3F3F" d="M2137.103 1162.451c-39.963 0-72.33-30.682-72.33-68.586v-22.852c0-37.849 32.367-68.572 72.33-68.572 39.967 0 72.365 30.723 72.365 68.572v22.852c0 37.905-32.48 68.586-72.365 68.586z"/><path fill="#5D5360" d="M2137.103 1002.441v80.004c1.079 19.188 16.957 34.211 36.189 34.211 19.227 0 35.104-15.023 36.176-34.211v-11.278c0-38.159-32.48-68.726-72.365-68.726z"/><path fill="#FFF" d="M2161.243 1048.161c0 12.61-10.805 22.852-24.141 22.852-13.334 0-24.138-10.242-24.138-22.852 0-12.628 10.804-22.868 24.138-22.868 13.337 0 24.141 10.24 24.141 22.868z"/><path fill="#4E3F3F" d="M1926.497 347.524c-16.191-1.583-51.648 23.869-93.985 68.039-10.553 11.009-21.615 23.225-32.893 36.462-83.157 97.743-179.587 251.39-212.622 409.243-55.434 265.039-77.948 572.565 19.877 743.13 82.899 144.521 222.213 220.257 222.213 220.257a720.304 720.304 0 0 1-158.11-37.104c-217.928-77.851-369.929-255.248-369.929-461.311 0-29.722 3.193-59.347 9.555-88.385.409-1.996.861-3.975 1.312-5.933-35.188-10.712-71.724-34.774-106.477-78.692-85.137-107.888-56.8-281.056 48.287-321.802 47.848-18.541 86.271-9.967 113.935 4.898l3.584 1.976a621.226 621.226 0 0 1 23.535-58.975 656.943 656.943 0 0 1 20.93-41.688c76.503-139.901 205.084-256.092 352.677-305.195 6.912-13.845 51.163-94.631 140.06-101.838 4.563-.373 9.225-.566 14-.527l4.051 17.445z" opacity=".35"/></svg>
