<svg xmlns="http://www.w3.org/2000/svg" xml:space="preserve" id="Layer_1" x="0" y="0" style="enable-background:new 0 0 54.2 54.2" version="1.1" viewBox="0 0 54.2 54.2"><style>.st2{fill:url(#SVGID_00000176742620248492217850000008941572123143446409_)}</style><path d="M27.1 54.2c15 0 27.1-12.1 27.1-27.1C54.2 12.1 42 0 27.1 0 12.1 0 0 12.1 0 27.1 0 42 12.1 54.2 27.1 54.2z" style="fill:#fff"/><linearGradient id="SVGID_1_" x1="36.781" x2="30.393" y1="39.801" y2="4.609" gradientTransform="matrix(1 0 0 -1 0 55.89)" gradientUnits="userSpaceOnUse"><stop offset="0" style="stop-color:#ff496a"/><stop offset="1" style="stop-color:#e42648"/></linearGradient><path d="M48 10.2c-1.9.4-3.7.9-5.1 1.2-3.4.8-6.5 3.3-7.2 8-.6 4.2.8 6 .2 10.9-1.1 8.6-9.3 11.5-13.1 13.3-2.2 1-7.6 3.4-11.7 5.2 4.5 3.3 10 5.3 16.1 5.3 15 0 27.1-12.1 27.1-27.1 0-6.4-2.2-12.2-5.9-16.9-.2.1-.3.1-.4.1z" style="fill:url(#SVGID_1_)"/><linearGradient id="SVGID_00000062914791107164500290000013177463998386082734_" x1="15.552" x2="29.676" y1="15.125" y2="55.011" gradientTransform="matrix(1 0 0 -1 0 55.89)" gradientUnits="userSpaceOnUse"><stop offset=".002" style="stop-color:#1158f1"/><stop offset="1" style="stop-color:#119bed"/></linearGradient><path d="M24 23.1c2.1-4.5 1.3-4.5 2.9-8.8 2-5.4 8.2-3.8 9.9-3.6 2.8.4 3.6-.6 9.5-1.6.3 0 .6-.1.9-.1C42.2 3.5 35 0 27 0 16.3 0 7 6.3 2.6 15.4c9 2.2 18.6 7 21.4 7.7zM18.1 4.7c.8.1 4.6 4.9 5.3 17.1 0 0-4.9-1.2-6-3.7-.8-2.1.3-4.9.7-13.4zm30.1 5.5H48h.2zM0 27.1c0-2.2.3-4.3.7-6.3 1 .8 2 1.7 3.1 2.8 7.1 6.5 18.5 11.7 22.7 6.9-.8 1-3.7 4.2-9.2 3.2L8.6 46.8C3.3 41.9 0 34.9 0 27.1z" style="fill:url(#SVGID_00000062914791107164500290000013177463998386082734_)"/></svg>
