<svg xmlns="http://www.w3.org/2000/svg" width="104" height="81"><defs><linearGradient id="a" x1="98.646%" x2="-14.138%" y1="46.728%" y2="29.638%"><stop offset="0%" stop-color="#4CFFDF"/><stop offset="63.724%" stop-color="#6676F5"/><stop offset="100%" stop-color="#C400FF"/></linearGradient></defs><path fill="url(#a)" d="M101.61 25.756c.299.491.495 1.037.58 1.604l.03.244c3.118 33.893-25.966 52.68-48.903 52.68-32.852 0-51.147-19.896-52.82-47.918l-.046-.852c.192-3.567 3.22-6.303 6.763-6.11.88.048 1.742.278 2.53.676 1.21.61 2.43 1.176 3.664 1.701 29.248 12.444 56.595 12.444 82.199-3.376l.125-.077a4.26 4.26 0 0 1 5.878 1.428ZM41.247 5.206l1.279.853.856.57c12.142 8.088 25.14 16.44 40.699 13.353 4.759-.974 6.61-1.453 9.917-1.983 2.251.985-3.374 4.357-4.216 4.94C69.795 40.197 5.326 31.275 5.326 12.28 6.09-.936 26.709-3.14 41.247 5.207Zm44.957.584.454.113.45.116c3.514.92 6.579 2.175 5.731 5.588-2.518 6.83-21.835 5.43-30.445 1.703l-.467-.21a1.2 1.2 0 0 1-.581-1.588c.21-.46.685-.736 1.186-.69l.079.007c4.451.372 9-.505 12.658-2.926 3.147-1.932 7.31-2.68 10.935-2.113Z" transform="translate(.55 .717)"/></svg>
