<svg xmlns="http://www.w3.org/2000/svg" width="16" height="16" fill="none"><circle cx="8" cy="8" r="8" fill="url(#a)"/><circle cx="8.015" cy="7.985" r="7.266" fill="#000"/><path fill="url(#b)" d="M8.878 5.594c-1.827.02-3.828 1.422-4.47 3.133 1.357-.975 2.713-.252 4.18-.11 1.466.142 1.24.038 2.437.038.641-1.71-.32-3.081-2.147-3.061Z"/><path fill="url(#c)" d="M6.544 12.267c-1.795-.003-2.756-1.374-2.146-3.062 1.824-1.15 3.009.153 6.5.01-.61 1.688-2.559 3.055-4.354 3.052Z"/><path fill="url(#d)" d="M8.878 5.594c-1.827.02-3.828 1.422-4.47 3.133 1.357-.975 2.713-.252 4.18-.11 1.466.142 1.241.038 2.437.038.641-1.71-.32-3.081-2.147-3.061Z"/><path fill="url(#e)" d="M6.545 12.267c-1.795-.003-2.756-1.374-2.147-3.062 1.825-1.15 3.01.153 6.5.01-.61 1.688-2.559 3.055-4.353 3.052Z"/><path stroke="url(#f)" stroke-width="2" d="M10.679 7.5c.727-.726.51-1.195-.184-2.885"/><path fill="url(#g)" d="M10.932 5.482a1.691 1.691 0 0 0 2.093-1.157l-.156-.045a1.691 1.691 0 0 0-2.093 1.157l.156.045Z"/><path fill="url(#h)" d="M10.866 4.945A1.691 1.691 0 0 0 9.41 3.048l-.021.161a1.691 1.691 0 0 0 1.456 1.897l.021-.16Z"/><defs><linearGradient id="a" x1="8" x2="8" y1="0" y2="16" gradientUnits="userSpaceOnUse"><stop stop-color="#13ECAB"/><stop offset="1" stop-color="#C834F7"/></linearGradient><linearGradient id="b" x1="7.447" x2="7.405" y1="10.067" y2="5.362" gradientUnits="userSpaceOnUse"><stop stop-color="#C834F7"/><stop offset=".385" stop-color="#718BD3"/><stop offset=".849" stop-color="#13ECAB"/></linearGradient><linearGradient id="c" x1="6.544" x2="6.578" y1="12.267" y2="9.198" gradientUnits="userSpaceOnUse"><stop offset="0" stop-color="#C833F7"/><stop offset=".964" stop-color="#7E7ED8"/></linearGradient><linearGradient id="d" x1="7.447" x2="7.405" y1="10.067" y2="5.362" gradientUnits="userSpaceOnUse"><stop stop-color="#C834F7"/><stop offset=".385" stop-color="#718BD3"/><stop offset=".849" stop-color="#13ECAB"/></linearGradient><linearGradient id="e" x1="6.545" x2="6.579" y1="12.267" y2="9.198" gradientUnits="userSpaceOnUse"><stop offset="0" stop-color="#C833F7"/><stop offset=".964" stop-color="#7E7ED8"/></linearGradient><linearGradient id="f" x1="11.031" x2="9.62" y1="5.64" y2="8.67" gradientUnits="userSpaceOnUse"><stop stop-color="#13ECAB"/><stop offset=".343" stop-color="#31CDB8"/><stop offset=".488" stop-color="#4DB1C4"/><stop offset=".855" stop-color="#817CDA"/></linearGradient><linearGradient id="g" x1="11.959" x2="10.395" y1="4.678" y2="6.504" gradientUnits="userSpaceOnUse"><stop stop-color="#13ECAB"/><stop offset="1" stop-color="#7E7ED8"/></linearGradient><linearGradient id="h" x1="9.918" x2="11.956" y1="4.05" y2="5.324" gradientUnits="userSpaceOnUse"><stop stop-color="#13ECAB"/><stop offset="1" stop-color="#7E7ED8"/></linearGradient></defs></svg>
