<svg xmlns="http://www.w3.org/2000/svg" width="410.151" height="472.365"><defs><radialGradient id="a" cx=".164" cy=".652" r=".804" gradientTransform="matrix(1.282 0 0 1 -.141 0)" gradientUnits="objectBoundingBox"><stop offset="0" stop-color="#3891b5"/><stop offset=".494" stop-color="#b7b7b7"/><stop offset="1" stop-color="#a11b35"/></radialGradient><radialGradient id="b" cx=".164" cy=".652" r=".804" gradientTransform="matrix(1.282 0 0 1 -.141 0)" gradientUnits="objectBoundingBox"><stop offset="0" stop-color="#d2b3d1"/><stop offset=".628" stop-color="#7994a7"/><stop offset="1" stop-color="#406887"/></radialGradient><radialGradient id="d" cx=".164" cy=".652" r=".804" gradientTransform="matrix(1.282 0 0 1 -.141 0)" gradientUnits="objectBoundingBox"><stop offset="0" stop-color="#8dbfd4"/><stop offset=".54" stop-color="#ece8f3"/><stop offset="1" stop-color="#ffbbc8"/></radialGradient><linearGradient id="c" x1=".366" x2=".803" y1="1" y2=".658" gradientUnits="objectBoundingBox"><stop offset="0" stop-color="#c9bcc6"/><stop offset="1" stop-color="#39687a"/></linearGradient></defs><path d="m138.918 305.526 7.021-27.08a1.277 1.277 0 0 0-1.185-1.55H13.73a1.185 1.185 0 0 1-1.185-1.5L79.789 24.923a1.231 1.231 0 0 1 1.185-.912L149.47-10s84.137 47.372 103.239 66.519 27.354 43.355 27.354 74.083a138.318 138.318 0 0 1-24.573 79.368 1.185 1.185 0 0 0 .957 1.869h96.741a1.231 1.231 0 0 1 .866 2.1L100.988 461.851a1.185 1.185 0 0 1-2.006-1.185Z" style="fill:url(#a)" transform="translate(-12.5 10.109)"/><path d="M145.774 124.112c.081-.367-.81-1.532-132.209-1.55a1.185 1.185 0 0 1-.975-.451c-.234-.3 68.757-32.739 67.874-32.739 48.948-35.216 168.708 0 168.708 0s-49.306 121.114-148.35 218.146a1.185 1.185 0 0 1-2.006-1.185Z" style="fill:url(#b)" transform="translate(-12.336 164.442)"/><path d="M145.774 124.112c.081-.367-.81-1.532-132.209-1.55a1.185 1.185 0 0 1-.975-.451c-.234-.3 68.757-32.739 67.874-32.739 48.948-35.216 132.675 0 132.675 0s-68.147 34.983-67.365 34.74Z" style="fill:url(#c)" transform="translate(-12.335 164.442)"/><path d="M145.939 256.394a1.276 1.276 0 0 0-1.185-1.55H13.73a1.185 1.185 0 0 1-1.185-1.5L79.789 2.872a1.231 1.231 0 0 1 1.185-.912h72.943c48.963.182 79.69 13.358 98.792 32.505s27.354 43.355 27.354 74.083a138.318 138.318 0 0 1-24.573 79.371 1.185 1.185 0 0 0 .957 1.869h96.741a1.231 1.231 0 0 1 .866 2.1C100.612 440.229 31.434 474.138 31.628 473.6Z" style="fill:url(#d)" transform="translate(55.741 -1.96)"/></svg>
