<?xml version="1.0" encoding="utf-8"?>
<!-- Generator: Adobe Illustrator 24.0.0, SVG Export Plug-In . SVG Version: 6.00 Build 0)  -->
<svg version="1.1" id="图层_1" xmlns="http://www.w3.org/2000/svg" xmlns:xlink="http://www.w3.org/1999/xlink" x="0px" y="0px"
	 viewBox="0 0 50 50" style="enable-background:new 0 0 50 50;" xml:space="preserve">
<style type="text/css">
	.st0{fill-rule:evenodd;clip-rule:evenodd;fill:#FFE804;}
	.st1{fill-rule:evenodd;clip-rule:evenodd;}
</style>
<title>画板</title>
<desc>Created with Sketch.</desc>
<g id="画板">
	<g id="编组">
		<circle id="椭圆形" class="st0" cx="25" cy="25" r="25"/>
		<path id="形状结合" class="st1" d="M25.4,8c1.1,0,2.1,1.7,2.1,3.7c0,0.1,0,0.1,0,0.1c0.6-0.7,1.3-1.1,1.9-0.9
			c0.6,0.2,0.8,1,0.7,2c0,0.5-0.1,1-0.3,1.5c-0.1,0.3-0.3,0.6-0.4,0.8C37.4,17.2,43.1,24.1,43,36l0,0h-4.9
			c0.1-10.1-5.6-15.1-13-15.2c-8.1-0.2-12.6,5.4-13.1,15.2l0,0H7c0.6-12,5.6-19.2,14.4-20.7c-0.1-0.2-0.4-0.6-0.5-0.9
			c-0.7-1.5-0.6-3,0.2-3.4c0.6-0.3,1.6,0.2,2.2,1.1c0-0.1,0-0.3,0-0.4C23.4,9.7,24.3,8,25.4,8z M20.9,26.6c0.6,0,1.1,0.6,1.1,1.2
			l0,0v3c0,0.7-0.5,1.2-1.1,1.2c-0.6,0-1.1-0.6-1.1-1.2l0,0v-3C19.9,27.1,20.3,26.6,20.9,26.6z M29.5,26.6c0.6,0,1.1,0.6,1.1,1.2
			l0,0v3c0,0.7-0.5,1.2-1.1,1.2c-0.6,0-1.1-0.6-1.1-1.2l0,0v-3C28.5,27.1,28.9,26.6,29.5,26.6z"/>
	</g>
</g>
</svg>
