<svg xmlns="http://www.w3.org/2000/svg" xml:space="preserve" style="enable-background:new 0 0 50 50" viewBox="0 0 50 50"><circle cx="25" cy="25" r="25" style="fill-rule:evenodd;clip-rule:evenodd;fill:#ffe804"/><path d="M25.4 8c1.1 0 2.1 1.7 2.1 3.7v.1c.6-.7 1.3-1.1 1.9-.9.6.2.8 1 .7 2 0 .5-.1 1-.3 1.5-.1.3-.3.6-.4.8 8 2 13.7 8.9 13.6 20.8h-4.9c.1-10.1-5.6-15.1-13-15.2C17 20.6 12.5 26.2 12 36H7c.6-12 5.6-19.2 14.4-20.7-.1-.2-.4-.6-.5-.9-.7-1.5-.6-3 .2-3.4.6-.3 1.6.2 2.2 1.1v-.4c.1-2 1-3.7 2.1-3.7zm-4.5 18.6c.6 0 1.1.6 1.1 1.2v3c0 .7-.5 1.2-1.1 1.2-.6 0-1.1-.6-1.1-1.2v-3c.1-.7.5-1.2 1.1-1.2zm8.6 0c.6 0 1.1.6 1.1 1.2v3c0 .7-.5 1.2-1.1 1.2-.6 0-1.1-.6-1.1-1.2v-3c.1-.7.5-1.2 1.1-1.2z" style="fill-rule:evenodd;clip-rule:evenodd"/></svg>
