<svg xmlns="http://www.w3.org/2000/svg" fill="none" viewBox="0 0 34 37"><path fill="url(#a)" d="m7.025 16.89 1.031.369 1.532-1.83.147-.443.147-1.534s3.152-3.38 4.684-6.906c0 0-.295 3.453-1.252 5.135 0 0 3.814-2.346 8.203-2.272 0 0-5.272 1.756 4.109 3.748 0 0-4.978 1.328-.368 3.453 0 0 2.12.442 1.679 4.264 0 0-.369-1.033-.884-1.402 0 0-1.252-.812-1.252.738 0 0 1.031 2.715-.22 4.913 0 0 .044-.634-.207-1.224a.032.032 0 0 0-.03-.03c-.161-.074-1.09-.472-1.222.605 0 0-.117 2.346-1.9 4.412 0 0-1.251.96-2.047 1.328 0 0 .884-.59 1.105-2.125 0 0-.442-.959-1.826-.073 0 0-3.52 1.903-6.893 1.756l2.49-12.41s2.194-.148 3.887 1.476c0 0 1.473 1.18 1.178 3.6 0 0-1.03-1.83-2.71-2.199l-1.251 6.168s4.757-.738 5.346-6.389c0 0 .81 1.107.81 2.051 0 0 .368-9.178-7.835-5.209l-.957-.811.073 1.475s0 .487-.545.576h-.044c-.589.074-2.71.074-2.268 2.641 0-.044-2.562-.413-2.71-3.851Z"/><path fill="#fff" d="m10.442 15.385 1.31-1.918v.885l-1.31 1.033ZM7.806 18.1l.28-.222.147.664-.427-.442Z"/><path fill="url(#b)" d="M16.966 36.5a4.63 4.63 0 0 1-2.356-.635l-11.488-6.64a4.724 4.724 0 0 1-2.356-4.087v-13.28c0-1.682.898-3.246 2.356-4.087L14.61 1.13a4.717 4.717 0 0 1 4.713 0 255.99 255.99 0 0 0 6.244 3.541c7.761 4.28 7.835 4.397 7.658 13.28-.044 1.904-.088 4.28-.059 7.186a4.724 4.724 0 0 1-2.356 4.087l-11.487 6.64a4.594 4.594 0 0 1-2.357.635Zm0-35.104a3.65 3.65 0 0 0-1.9.517L3.58 8.553a3.818 3.818 0 0 0-1.9 3.305v13.28c0 1.358.722 2.627 1.9 3.305l11.487 6.64a3.8 3.8 0 0 0 3.8 0l11.487-6.64a3.818 3.818 0 0 0 1.9-3.305c-.03-2.921.03-5.297.06-7.215.087-4.25.132-6.39-.737-7.895-.87-1.505-2.725-2.523-6.45-4.574a215.783 215.783 0 0 1-6.275-3.556 3.792 3.792 0 0 0-1.885-.502Z"/><defs><linearGradient id="a" x1="26.997" x2="3.666" y1="6.546" y2="26.234" gradientUnits="userSpaceOnUse"><stop stop-color="#FF18F6"/><stop offset=".859" stop-color="#4B73FF"/></linearGradient><linearGradient id="b" x1="33.265" x2="-2.547" y1=".5" y2="32.83" gradientUnits="userSpaceOnUse"><stop stop-color="#FF18F6"/><stop offset=".859" stop-color="#4B73FF"/></linearGradient></defs></svg>
