<svg xmlns="http://www.w3.org/2000/svg" width="56" height="59" fill="none"><path fill="url(#a)" fill-rule="evenodd" d="M37.234.283c2.138.343 3.65.793 4.532 1.353.884.559 1.822 1.659 2.816 3.3-.536.46-1.003.728-1.4.8-.397.073-1.056.011-1.977-.184l-1.098-.516C39.048 4.54 37.8 5.013 37.303 6.1c-.429.941-.04 2.063.869 2.507.077.038.157.07.239.096l1.464.47c.414.338.597.813.55 1.425-.046.612-.32 1.207-.822 1.785l.794 2.252c-.957.219-2.107.284-3.45.194-2.014-.135-3-.77-3.016-.867-.008-.05-.663-.426-1.963-1.127a16.124 16.124 0 0 0-4.191-.551c-9.204 0-16.666 7.735-16.666 17.277 0 9.542 7.462 17.278 16.666 17.278 6.176 0 11.568-3.483 14.447-8.658h-6.911c-1.23 0-2.314-.84-2.66-2.061l-1.824-6.418a.577.577 0 0 1 .375-.713.54.54 0 0 1 .157-.023h22.056c.65 0 1.224.439 1.414 1.082.303 1.023.455 2.125.455 3.306 0 1.327-.252 2.654-.756 3.981-3.272 12.127-14.01 21.022-26.753 21.022C12.437 58.357 0 45.465 0 29.561 0 16.64 8.21 5.705 19.518 2.06a.527.527 0 0 1 .162-.13c1.482-.728 3.728-1.083 6.029-1.466l.3-.05c.35-.059.702-.119 1.05-.181 1.83-.327 5.222-.31 10.175.05Zm8.132 5.67c.775.626 1.274 1.154 1.498 1.584.217.416.428 1.121.635 2.117l.02.104 5.435 5.079c.18.168.3.392.346.637l.009.053.086.628a.365.365 0 0 1-.208.384l-.028.011-.277.096-.164-.022c-5.377-.74-8.651-1.371-9.82-1.891-1.112-.494-1.287-1.651-.527-3.472a.987.987 0 0 0 .027-.687l-.017-.047-.523-1.352a.964.964 0 0 0-.167-.28l-.037-.041-1.108-1.148c-.331-.07-.698.039-1.029-.03a5.287 5.287 0 0 1-.594-.207.676.676 0 0 1-.309-.886.907.907 0 0 1 1.002-.526c.314.063.54.118.677.165.225.077.526.241.903.491 1.131.231 1.962.298 2.491.202.53-.097 1.09-.418 1.679-.962Z" clip-rule="evenodd"/><defs><linearGradient id="a" x1="7.678" x2="46.888" y1="11.518" y2="49.041" gradientUnits="userSpaceOnUse"><stop stop-color="#5750FF"/><stop offset="1" stop-color="#E659FF"/></linearGradient></defs></svg>
