<svg xmlns="http://www.w3.org/2000/svg" xmlns:xlink="http://www.w3.org/1999/xlink" width="80" height="47"><defs><linearGradient id="a" x1="50%" x2="50%" y1="100%" y2="0%"><stop offset="0%" stop-color="#EAA921"/><stop offset="100%" stop-color="#EC6523"/></linearGradient><linearGradient id="c" x1="50%" x2="50%" y1="100%" y2="0%"><stop offset="0%" stop-color="#E9A821"/><stop offset="100%" stop-color="#EB6623"/></linearGradient><path id="b" d="M23.065.18C10.795.18.452 9.778.037 21.923c-.02.638-.02 2.552-.02 2.552h6.59c.582 8.614 7.723 15.421 16.454 15.421 9.11 0 16.496-7.412 16.496-16.555h3.956v.003c0 11.334-9.155 20.522-20.448 20.522A20.3 20.3 0 0 1 9.98 39.103a2.76 2.76 0 0 0-2.639-3.556 2.76 2.76 0 0 0-2.755 2.765 2.76 2.76 0 0 0 2.755 2.765c.263 0 .516-.039.757-.108a22.93 22.93 0 0 0 14.967 5.538c12.746 0 23.08-10.37 23.08-23.163v-2.556h-6.783C38.139 12.856 31.307 6.784 23.06 6.784c-8.634 0-15.715 6.659-16.432 15.138H2.672c.728-10.67 9.576-19.1 20.393-19.1 4.555 0 8.759 1.498 12.158 4.025a2.76 2.76 0 0 0 2.62 3.618A2.76 2.76 0 0 0 40.598 7.7a2.76 2.76 0 0 0-2.755-2.765c-.231 0-.454.031-.669.085A22.925 22.925 0 0 0 23.064.18zM9.194 23.34c0-7.686 6.209-13.917 13.867-13.917 7.659 0 13.867 6.23 13.867 13.917 0 7.686-6.208 13.916-13.867 13.916-7.658 0-13.867-6.23-13.867-13.916z"/></defs><g fill="none" fill-rule="evenodd"><path fill="#FFF" d="M.083 12.64h2.615c.046 0 .082.038.082.084v20.413a.082.082 0 0 1-.082.083H.083A.083.083 0 0 1 0 33.137V12.724c0-.046.037-.083.083-.083"/><path fill="url(#a)" d="m5.141 3.151 5.392 9.374 5.393-9.374z" transform="translate(31.374 16.91)"/><path fill="#FBAE17" d="M41.618 31.323 34.73 19.35l-3.356-1.922 10.243 17.805zm-9.98-14.413 3.416 1.956h13.682l3.416-1.956zm17.459 2.42-6.9 11.992-.001 3.914 10.256-17.829z"/><g transform="translate(18.826 .11)"><mask id="d" fill="#fff"><use xlink:href="#b"/></mask><path fill="url(#c)" d="M23.065.18C10.795.18.452 9.778.037 21.923c-.02.638-.02 2.552-.02 2.552h6.59c.582 8.614 7.723 15.421 16.454 15.421 9.11 0 16.496-7.412 16.496-16.555h3.956v.003c0 11.334-9.155 20.522-20.448 20.522A20.3 20.3 0 0 1 9.98 39.103a2.76 2.76 0 0 0-2.639-3.556 2.76 2.76 0 0 0-2.755 2.765 2.76 2.76 0 0 0 2.755 2.765c.263 0 .516-.039.757-.108a22.93 22.93 0 0 0 14.967 5.538c12.746 0 23.08-10.37 23.08-23.163v-2.556h-6.783C38.139 12.856 31.307 6.784 23.06 6.784c-8.634 0-15.715 6.659-16.432 15.138H2.672c.728-10.67 9.576-19.1 20.393-19.1 4.555 0 8.759 1.498 12.158 4.025a2.76 2.76 0 0 0 2.62 3.618A2.76 2.76 0 0 0 40.598 7.7a2.76 2.76 0 0 0-2.755-2.765c-.231 0-.454.031-.669.085A22.925 22.925 0 0 0 23.064.18zM9.194 23.34c0-7.686 6.209-13.917 13.867-13.917 7.659 0 13.867 6.23 13.867 13.917 0 7.686-6.208 13.916-13.867 13.916-7.658 0-13.867-6.23-13.867-13.916z" mask="url(#d)"/></g><path fill="#FFF" d="M77.294 12.64a.08.08 0 0 0-.08.08v16.838h-.06L65.91 12.715a.167.167 0 0 0-.14-.075h-3.475a.084.084 0 0 0-.083.084v7.32c0 .046.037.083.083.083h2.614a.083.083 0 0 0 .083-.083v-3.74h.058l11.388 16.88a.08.08 0 0 0 .066.035h3.41a.08.08 0 0 0 .08-.08V12.721a.079.079 0 0 0-.08-.08h-2.62zm-66.54 9.068h-3.65v-6.625h3.65c.54 0 1.077.043 1.609.13.53.088 1.003.248 1.419.48.415.233.748.567.999 1.003.25.436.376 1.003.376 1.7 0 .698-.125 1.265-.376 1.7a2.614 2.614 0 0 1-1 1.004 4.34 4.34 0 0 1-1.418.48c-.532.086-1.067.13-1.608.13m15.448 9.025h-8.724a.226.226 0 0 1-.193-.107l-4.214-6.796a5.529 5.529 0 0 0 2.1-.625 5.745 5.745 0 0 0 1.593-1.25 5.356 5.356 0 0 0 1.347-3.561c0-.64-.097-1.303-.29-1.99a4.652 4.652 0 0 0-1.028-1.86c-.493-.553-1.164-1.008-2.013-1.367-.85-.359-1.931-.539-3.244-.539h-7.13a.083.083 0 0 0-.082.083v20.413c0 .046.037.083.083.083h2.615a.083.083 0 0 0 .083-.083V24.15h3.1l4.964 8.636a.86.86 0 0 0 .746.433h11.692a17.306 17.306 0 0 1-1.405-2.485"/></g></svg>
