<svg xmlns="http://www.w3.org/2000/svg" width="256" height="256" fill="none"><path fill="url(#a)" d="M26.146 199.614a128.384 128.384 0 0 0 90.786 52.734c-9.257-13.931-22.714-26.748-39.514-36.506-16.8-9.758-34.59-15.088-51.272-16.228Z"/><path fill="url(#b)" d="M99.993 176.988c-32.367-18.803-67.398-23.595-92.464-15.13a128.947 128.947 0 0 0 9.529 23.121c21.778-.504 45.556 5.411 67.681 18.262 22.126 12.851 39.048 30.587 49.404 49.759a129.7 129.7 0 0 0 24.82-3.178c-5.067-25.964-26.613-54.026-58.97-72.834Z"/><path fill="url(#c)" d="M254.229 100.663A128.296 128.296 0 0 0 94.549 7.894c27.697 3.39 58.441 13.787 88.591 31.303 30.151 17.516 54.433 39.07 71.089 61.466Z"/><path fill="url(#d)" d="M213.93 162.049c-14.177-23.544-38.463-46.09-68.38-63.47-29.918-17.38-61.526-27.307-88.977-27.964-24.151-.572-42.277 6.449-49.717 19.257-.043.077-.102.149-.148.225a129.025 129.025 0 0 0-1.772 7.224c10.39-4.102 22.427-6.385 35.812-6.64 29.764-.559 63.076 8.962 93.815 26.821 30.739 17.859 55.53 42.09 69.783 68.215 6.39 11.771 10.377 23.359 11.957 34.43a122.302 122.302 0 0 0 5.394-5.11c.046-.08.076-.165.123-.25 7.44-12.821 4.563-32.04-7.89-52.738Z"/><path fill="url(#e)" d="M122.788 137.754C76.974 111.137 26.346 106.968 2 125.543a127.82 127.82 0 0 0 1.33 17.372 100.851 100.851 0 0 1 22.007-4.076c27.206-2.047 57.2 5.533 84.418 21.354 27.219 15.821 48.675 38.133 60.377 62.763a100.01 100.01 0 0 1 7.356 21.134 128.877 128.877 0 0 0 15.757-7.444c4.076-30.354-24.629-72.271-70.457-98.892Z"/><path fill="url(#f)" d="M237.496 122.641c-14.338-23.52-38.837-46.128-68.966-63.622-30.129-17.495-61.86-27.579-89.4-28.388-20.995-.606-37.256 4.483-45.688 14.096 35.01-5.931 81.189 4.038 125.949 30.04 44.759 26.003 76.308 61.187 88.485 94.536 4.174-12.079.543-28.726-10.38-46.662Z"/><defs><linearGradient id="a" x1="169.969" x2="54.083" y1="53.781" y2="253" gradientUnits="userSpaceOnUse"><stop offset="0" stop-color="#A4D756"/><stop offset="1" stop-color="#00B6E7"/></linearGradient><linearGradient id="b" x1="169.969" x2="54.083" y1="53.781" y2="253" gradientUnits="userSpaceOnUse"><stop offset="0" stop-color="#A4D756"/><stop offset="1" stop-color="#00B6E7"/></linearGradient><linearGradient id="c" x1="169.969" x2="54.083" y1="53.781" y2="253" gradientUnits="userSpaceOnUse"><stop offset="0" stop-color="#A4D756"/><stop offset="1" stop-color="#00B6E7"/></linearGradient><linearGradient id="d" x1="169.969" x2="54.083" y1="53.781" y2="253" gradientUnits="userSpaceOnUse"><stop offset="0" stop-color="#A4D756"/><stop offset="1" stop-color="#00B6E7"/></linearGradient><linearGradient id="e" x1="169.969" x2="54.083" y1="53.781" y2="253" gradientUnits="userSpaceOnUse"><stop offset="0" stop-color="#A4D756"/><stop offset="1" stop-color="#00B6E7"/></linearGradient><linearGradient id="f" x1="169.969" x2="54.083" y1="53.781" y2="253" gradientUnits="userSpaceOnUse"><stop offset="0" stop-color="#A4D756"/><stop offset="1" stop-color="#00B6E7"/></linearGradient></defs></svg>
