<svg xmlns="http://www.w3.org/2000/svg" data-name="Layer 1" viewBox="0 0 47 67.05"><path d="m20 33.52 25 14.32a1.32 1.32 0 0 0 2-1.14V20.32a1.31 1.31 0 0 0-2-1.13Zm24.47-20.67L27.38.28a1.36 1.36 0 0 0-2.14.72L19 29l25.32-14a1.26 1.26 0 0 0 .15-2.15m-17.11 53.9 17.11-12.57a1.28 1.28 0 0 0-.14-2.18L19 38l6.24 28a1.35 1.35 0 0 0 2.12.77" style="fill:#31cb9e"/><path d="M13.5 33 20 2.6a1.29 1.29 0 0 0-2-1.31L1.35 14.06A3.45 3.45 0 0 0 0 16.81v32.4A3.45 3.45 0 0 0 1.35 52l16.57 12.73a1.29 1.29 0 0 0 2-1.31Z" style="fill:#31cb9e"/></svg>
