<svg xmlns="http://www.w3.org/2000/svg" viewBox="0 0 400 400"><g data-name="图层 2"><g data-name="图层 1"><path d="M0 0h400v400H0z" style="fill:#12193e"/><path d="M200 363a162.71 162.71 0 1 1 115.39-47.68A163.06 163.06 0 0 1 200 363Zm0-313.08A149.75 149.75 0 1 0 306.2 93.8 149.14 149.14 0 0 0 200 49.94Z" style="fill:#fff"/><path d="M110 249.31c0 12.24 10.73 22 23.77 22h2.32l-.58-101.44a16.6 16.6 0 0 1 2.61-9.25c1.74-2.72 4.34-4.62 7.82-6.25A19.27 19.27 0 0 1 156.1 153a17.19 17.19 0 0 1 9 4.35L207.4 193c.29.27 2 1.63 3.48 3 4.34 3.53 6.66 5.44 6.66 11.15a17 17 0 0 1-5.5 12.51 19.78 19.78 0 0 1-26.67 0 16.93 16.93 0 0 1-5.51-12.51c0-6 2.61-8.16 7.25-12 .58-.54 4.06-3.53 5.51-4.62l-19.42-16.28-3.48 3c-10.43 8.71-15.94 13.33-15.94 30.19a40.23 40.23 0 0 0 13 29.64 46.23 46.23 0 0 0 31.59 12.24A45.71 45.71 0 0 0 230 237.07a40.7 40.7 0 0 0 13-29.64c0-16.59-5.8-21.48-15.94-29.37-.58-.54-1.16-1.09-3.19-2.72l-41.45-36.17a43.52 43.52 0 0 0-22.32-10.06 45.77 45.77 0 0 0-24.63 3.26 40.71 40.71 0 0 0-18.84 15.23 37.68 37.68 0 0 0-6.63 22.3Z" style="fill-rule:evenodd;fill:#fff"/><path d="m226.79 162 5.42-4.62a18.16 18.16 0 0 1 9.33-4.35 20.6 20.6 0 0 1 10.54 1.36 19.71 19.71 0 0 1 8.13 6.25 14.22 14.22 0 0 1 2.71 9.25l-.61 101.47h2.41c13.55 0 24.39-9.79 24.69-22l.6-79.44a38.19 38.19 0 0 0-6.92-22.3c-4.52-6.53-11.44-11.7-19.57-15.24a52.2 52.2 0 0 0-25.59-3.26 46 46 0 0 0-23.18 10.06l-5.42 4.63-5.42 4.62 20.17 16.32Z" style="fill:#4ca9dc;fill-rule:evenodd"/></g></g></svg>
