<svg xmlns="http://www.w3.org/2000/svg" width="32" height="32" fill="none"><circle cx="16" cy="16" r="16" fill="#23C1AA"/><path fill="#fff" d="M14.909 18.206 5.682 12.68a3.653 3.653 0 0 1-1.13-1.086 4.652 4.652 0 0 1-.673-1.56l-.067-.284.007.005 9.197 5.428a3.69 3.69 0 0 1 1.237 1.233 4.78 4.78 0 0 1 .656 1.79Zm-1.569 9.271L8.408 24.6a3.33 3.33 0 0 1-1.051-.992 4.254 4.254 0 0 1-.63-1.438l-.097-.41.034.019v.001l6.946 4.053a.59.59 0 0 0 .38.078.642.642 0 0 0 .358-.18.89.89 0 0 0 .228-.385c.046-.152.057-.317.032-.476a4.34 4.34 0 0 0-.597-1.621 3.352 3.352 0 0 0-1.121-1.117L7 18.654a3.339 3.339 0 0 1-1.035-.98 4.25 4.25 0 0 1-.627-1.415l-.11-.456.026.014 7.912 4.67c.715.423 1.34 1.046 1.825 1.82.486.774.819 1.677.972 2.639a2.81 2.81 0 0 1-.082 1.251c-.12.4-.328.75-.6 1.013a1.69 1.69 0 0 1-.94.473 1.553 1.553 0 0 1-1.001-.206Zm3.751-9.271 9.227-5.526c.434-.26.819-.63 1.13-1.086.31-.456.54-.988.674-1.56l.066-.284-.007.005-9.197 5.428a3.69 3.69 0 0 0-1.237 1.233 4.78 4.78 0 0 0-.656 1.79Z"/><path fill="#fff" d="m18.66 27.477 4.932-2.878a3.33 3.33 0 0 0 1.051-.992c.29-.419.504-.909.63-1.438l.097-.41-.034.019v.001l-6.946 4.053a.59.59 0 0 1-.38.078.642.642 0 0 1-.358-.18.89.89 0 0 1-.228-.385 1.075 1.075 0 0 1-.032-.476 4.34 4.34 0 0 1 .597-1.621 3.353 3.353 0 0 1 1.121-1.117L25 18.654a3.338 3.338 0 0 0 1.035-.98c.286-.413.5-.894.627-1.415l.11-.456-.026.014-7.912 4.67c-.715.423-1.34 1.046-1.825 1.82a7.067 7.067 0 0 0-.972 2.639 2.81 2.81 0 0 0 .082 1.251c.12.4.328.75.6 1.013.272.262.597.426.94.473.343.048.69-.024 1.001-.206Z"/></svg>
