<svg xmlns="http://www.w3.org/2000/svg" width="24" height="24" viewBox="430 430 220 220" fill="none"><defs><style>.cls-1{fill:#f2f2f1;}.cls-2{fill:#fb4d01;}</style></defs><rect class="cls-2" x="434.44" y="435.86" width="211.12" height="208.28" rx="28.9" ry="28.9"/><path class="cls-1" d="M588.61,479.07c-4.58,0-8.82,2.34-11.22,6.19l-25.83,37.82c-.84,1.25-.5,2.93.76,3.76,1.02.67,2.38.59,3.31-.2l25.42-21.75c.42-.37,1.07-.34,1.45.08.17.19.26.44.26.69v68.1c0,.56-.47,1.01-1.04,1.01-.31,0-.59-.13-.79-.36l-76.82-90.75c-2.5-2.91-6.18-4.59-10.04-4.6h-2.69c-7.27,0-13.16,5.81-13.16,12.98v95.91c-.01,7.17,5.88,12.98,13.15,12.98,4.58,0,8.82-2.34,11.22-6.19l25.83-37.82c.84-1.25.5-2.93-.76-3.76-1.02-.67-2.38-.59-3.31.2l-25.42,21.75c-.42.37-1.07.34-1.45-.08-.17-.19-.26-.44-.26-.69v-68.12c0-.56.47-1.01,1.04-1.01.3,0,.59.13.79.36l76.81,90.77c2.5,2.91,6.18,4.59,10.04,4.6h2.69c7.27,0,13.16-5.8,13.17-12.97v-95.92c.01-7.17-5.88-12.98-13.15-12.98h0Z"/></svg>