<svg xmlns="http://www.w3.org/2000/svg" width="439" height="439" fill="none"><path fill="#FFD15C" d="M439 219.5C439 340.726 340.726 439 219.5 439S0 340.726 0 219.5 98.274 0 219.5 0 439 98.274 439 219.5Z"/><path fill="#000" d="M381.027 185.904c-11.104-15.549-22.889-23.7-30.266-27.66a162.254 162.254 0 0 0-8.61-14.052c-9.081-13.275-18.544-24.786-28.12-34.214-8.956-8.816-18.3-16.091-27.772-21.622-16.484-9.628-33.579-14.324-52.265-14.36h-.214c-17.107 0-32.731 3.893-45.765 7.703-3.741 1.093-7.54 2.276-11.222 3.425-9.409 2.93-18.298 5.699-25.798 6.933-5.11.842-9.116 2.77-11.902 5.729-2.631 2.794-4.199 6.531-4.657 11.104-.855 8.553 2.179 20.013 8.775 33.142 13.194 26.261 38.466 55.172 64.385 73.657a69.483 69.483 0 0 1 7.554 6.248 1.68 1.68 0 0 1-.107.023c-20.155 2.878-30.657 24.54-34.909 36.244-1.109 3.052 1.908 5.787 4.989 4.747 12.213-4.117 36.827-10.706 51.238-2.855 2.692 12.876 1.557 25.5-3.302 35.365-2.98 6.05-7.226 10.886-12.62 14.376-5.817 3.764-12.843 5.868-20.887 6.256-8.717.421-18.598-1.183-29.367-4.768-11.718-3.902-24.586-10.184-38.246-18.675l-.253-.155-.263-.14a13.92 13.92 0 0 1-.481-.274c19.553-23.564 7.631-59.15 2.86-70.881-.637-1.565-2.795-1.554-3.655-.098-11.172 18.916-34.086 17.512-33.68 40.04l-.028-.051c-17.518-14.245-30.522 4.706-52.32 1.86-1.677-.218-3.014 1.477-2.172 2.941 6.287 10.949 26.877 42.089 57.324 41.392a842.394 842.394 0 0 1 3.69 4.041l3.674 4.054c14.921 16.466 31.263 29.532 48.573 38.837 16.123 8.667 33.093 14.091 50.44 16.125 5.196.61 10.406.912 15.612.912 30.204 0 60.226-10.156 85.945-29.313 14.428-10.746 26.76-23.715 36.65-38.544 10.123-15.177 17.21-31.603 21.062-48.819 2.567-11.469 3.632-23.038 3.197-34.577 9.551-2.841 20.097 5.58 25.259 10.523 1.26 1.206 3.338.458 3.28-1.286-.267-7.905-2.534-24.996-15.626-43.333Zm-87.033 143.788c-25.956 18.4-56.471 26.59-86.286 23.094-15.129-1.774-29.976-6.531-44.13-14.141-13.513-7.263-26.438-17.158-38.502-29.466 26.96 16.372 51.049 24.654 71.702 24.654 1.221 0 2.43-.028 3.625-.086 11.199-.542 21.169-3.593 29.636-9.073 8.112-5.247 14.461-12.45 18.874-21.403 3.929-7.975 6.115-16.944 6.496-26.665.356-9.075-.867-18.349-3.638-27.565-5.82-19.341-17.863-36.297-33.91-47.743-11.885-8.477-23.808-19.467-34.472-31.778-8.628-9.958-15.966-20.211-21.471-29.971l.002-.012s-.044-.067-.114-.188l-.167-.3c-.914-1.706-3.316-7.368 4.252-8.449 71.493-10.211 216.961 125.609 128.103 199.092Z"/><path fill="#fff" d="M165.891 130.6c-7.57 1.081-5.166 6.74-4.252 8.449l.167.3c.072.121.114.188.114.188l-.002.012c5.505 9.76 12.843 20.013 21.471 29.971 10.667 12.311 22.587 23.301 34.472 31.778 16.049 11.446 28.092 28.402 33.909 47.743 2.772 9.216 3.995 18.49 3.639 27.565-.381 9.718-2.567 18.69-6.496 26.665-4.413 8.953-10.762 16.156-18.874 21.403-8.468 5.478-18.439 8.531-29.636 9.073a74.89 74.89 0 0 1-3.625.086c-20.653 0-44.742-8.282-71.702-24.654 12.064 12.308 24.989 22.203 38.502 29.466 14.154 7.61 29.001 12.367 44.13 14.141 29.815 3.494 60.33-4.697 86.286-23.094 88.858-73.483-56.61-209.303-128.103-199.092Z"/><path fill="#000" d="M115.693 293.02c0 .002.034.009.093.016-.065-.016-.096-.018-.093-.016Zm2.906-1.286.035-.055c-.003-.003-.014.016-.035.055Z"/><path fill="#fff" d="M240.364 125.636c-2.481-3.475-7.447-12.908 7.945-12.908 15.393 0 38.91 17.428 43.693 23.875-1.491 3.93-11.421 4.808-16.384 4.427-4.966-.381-13.406-1.197-19.86-4.427-6.457-3.229-12.911-7.491-15.394-10.967Z"/></svg>
