<svg xmlns="http://www.w3.org/2000/svg" viewBox="0 0 987.5 721.5"><path fill="#fff" d="M473.5 10.1c173-10 327.4 107.6 363.7 277 9.9 46.5 10.3 94.6 1.2 141.3-22.7 115.2-101.3 211.4-209.6 256.7-73.8 31-158.2 35.3-234.9 12.5-105.1-31.3-189.7-109.8-228.7-212.3-28-73.5-30.2-156.4-6.2-231.3C203.2 115.4 328.3 18.4 473.5 10.1"/><path fill="#4189c9" d="M277.6 335.3c1.4 6.4 2.2 12.9 3.6 19.4.9 3.9 2.1 3 4.1 1.3 3.9-3.2 7.6-6.7 11.9-9.3 1.2.2 1.9 1.2 2.5 2.1 11.4 14.9 26.5 24 44.4 28.9 8.2 2.3 16.7 3.8 25.2 4.7-2.7-3-4.9-6.3-6.6-10-2.9-6.4-1.9-12.1 3-17.2 5.9-6.2 13.6-8.8 21.5-10.8 16.5-4.3 33.3-4.7 50.2-3.5a196.67 196.67 0 0 1 40.2 6.9c11 3.1 21.7 6.7 31.4 12.9 1.4 1.1 2.3 2.6 3.6 3.7 12.5 13.4 19.8 29.2 20.3 47.5.3 12.6-3.2 24.7-9.5 35.8-11.4 20-28.1 34.6-48 45.7-20.2 11.3-42.5 18.3-65.6 20.7-41.2 4.5-79.5-4.5-114.6-26.4-29.2-18.2-51.7-43.1-70-71.9-8.5-13.7-16-28-22.5-42.8-.8-1.8-1-3.8-1.8-5.3.5 1.8 1.5 3.7-.4 5.6-.6-7.5.1-14.9.5-22.3 1-20.5 4.2-40.8 9.5-60.5 24.1-89.1 88.7-161.6 174.5-195.8 25.8-10.3 52.9-16.7 80.5-19.2 43.6-4 85.8 1.7 127 16.3-6.3 11.9-42 43.7-69.8 62.2a95.44 95.44 0 0 0-5.4-23.5c-.1-2 1.7-2.6 2.8-3.6l17.4-14.8c.6-.5 1.2-1 1.7-1.5.7-.7 1.8-1.3 1.5-2.4-.2-1.1-1.5-1.1-2.5-1.3-2.7-.6-5.4-.9-8.2-1-3.8-.4-7.6-1.3-11.4-1.4-3-.2-5.9-.9-8.8-.7-1.5 0-3-.1-4.5-.3-2.5-.8-5.1-.4-7.6-.4-1.5 0-3-.1-4.6 0-4.4.2-8.7-.5-13.1.3a17.33 17.33 0 0 1-3.2.3c-1.3 0-2.5.1-3.8 0-1.6-.2-3.3 0-4.9.5-4.6.4-9.2.8-13.7 1.6-5.5 1.2-11.1 1.4-16.5 2.8-5 1.3-10.1 2-15 3.7-6.5 1.8-13 3.8-19.4 6-9.3 3.7-18.8 7.1-27.7 11.9-20.1 9.8-38.9 22.2-55.7 36.9-15.6 13.5-29.6 28.7-41.7 45.4-6 8.4-11.6 17.1-16.5 26.2-3.2 5.9-6.2 11.9-9 18-2 4.7-4.4 9.3-6 14.2-2 4.9-3.6 9.9-5.2 15-1.9 5.1-3 10.4-4.4 15.5-.6 2-1 4.1-1.5 6.2-.6 2.5-1 5-1.5 7.5a262.66 262.66 0 0 0-2.1 12.8c-.8 4.4-1.3 8.8-1.6 13.3-.7 2.9-.2 6-.7 9-.8 3.7-.3 7.5-.5 11.2-.1 2.6-.2 5.2-.1 7.8 0 1.1-.5 2.6.6 3.1 1.3.6 2.2-.8 3.2-1.5 3.2-2.6 6.3-5.3 9.4-8l31.6-26.9c.9-.6 1.9-2.6 3.5-.6z"/><path fill="#262f71" d="M508.9 361.5c-12.4-7.4-25.9-11.6-39.8-14.9-18.2-4.3-37-6.1-55.7-5.1-13.2.7-26.3 2.5-38.5 8.3-1.5.7-2.9 1.5-4.2 2.4-9.9 6.6-11.4 15.4-4.2 24.9 1.5 2 3.1 3.8 5.1 6.2-6.4 0-12.1-1.2-17.7-2.3-15.1-3-29.3-8.2-41.5-18-5.9-4.7-11.2-9.9-15.1-16.5 1.6-2.6 4.3-3.8 6.8-5.3 4.8-2 9.2-4.9 14-7.1 21.3-9.8 44.1-15.8 67.4-18 9.3-.9 18.6-1.8 28-1.4a311.7 311.7 0 0 1 81.3 14.2c6.8 2.1 13.5 4.5 20.6 6.8 0-2-1.1-3.2-1.9-4.5-2.8-4.8-6.1-9.4-9.7-13.7-1.3-1.6-3.2-2.9-3.1-5.3l11.2 2.6c1 .2 2.2.8 2.8 0 .9-1.1-.4-2-1-2.8-5.5-8.2-12.3-15.2-19.7-21.7 3.9-2.3 7.9-.4 11.7.1 38.9 5 74.3 18.8 105.2 43 40.9 32.1 67.3 73.5 78.5 124.5 3.6 17 4.7 34.5 3.4 51.8-2.2 30.1-11.7 57.9-29.5 82.6-1.2 1.6-2.8 2.9-3.6 4.8-4 6-10 10.1-15.4 14.5-29.5 24-64 36.5-101.1 42.3a311.42 311.42 0 0 1-87.3 1.5 287.58 287.58 0 0 1-127.4-48.1c-9.3-6.3-18.4-12.8-26.5-20.6-.3-.2-.3-.6-.1-.9l.1-.1c1.7-.7 2.8.6 4 1.4 19.4 14.6 41.5 25.3 65 31.6 7.9 2 15.8 3.6 23.9 4.8 1.8.7 3.8.3 5.6.7.4 0 .8.1 1.1.2 18.2 2.2 36.4.9 54.4-2.3 39.5-7 74.7-23.5 104.7-50.2 20.5-18.1 36.7-39.5 45.3-65.9s7.4-52.1-4.7-77.5c-2.5 11.4-8.4 20.8-15.9 29.4-7.5 8.4-16.3 15.6-26.1 21.2-1.1.7-2.4 1.9-3.7.9-1.1-.9-.5-2.4-.1-3.5 2.4-7.9 4-16 4.9-24.2 3.5-34.5-9.8-61.4-37.3-81.7a126.35 126.35 0 0 0-14.2-9.1z"/><path fill="#161f42" d="M394.9 624.2c-10.1-1-20.1-3.1-29.9-6.1-18.4-5.6-35.8-13.7-51.9-24.3-3.8-2.5-7.1-5.9-11.2-7.9-2.4-.3-3.4-2.7-5.3-3.7-40.4-35.9-68-80-83.8-131.5-7.7-25-11.9-51-12.3-77.2l.4-7 5.1 11.3c14.5 31.9 33.1 60.9 58.7 85.1 27.2 25.7 58.9 42.9 96.2 48.9 43.7 7.1 84.6-.5 122.2-24.1 18.8-11.8 34.1-26.9 43-47.6 10.7-25.1 6.7-48.4-9.7-69.9-1.4-1.9-3-3.7-4.4-5.5 1.9-1.7 3 .3 4.1 1.2 9.7 8.1 17.4 18.3 22.6 29.9 5 11.1 7.7 23 7.8 35.2.2 12.4-2.6 24.7-8 35.9 1.2 0 2.3-.4 3.2-1.2 5.2-3 10.1-6.5 14.7-10.4 1.4-1.2 2.7-3.1 5-2.8-1.2 9.4-3.3 18.7-6.1 27.8 6-3.4 11.8-7.2 17.3-11.5 4.3-3.4 7.8-7.6 12.1-11.1 1.8.8 1.8 2.6 2.2 4.1 6.9 25 1.9 48.3-10.4 70.3-15 26.7-37 46.6-62.6 62.7-20.7 13-43.4 22.3-67.3 27.5-15 3.4-30.4 4.3-45.7 2.7-2-1.1-4.1.1-6-.8z"/><path fill="#4189c9" d="M772.9 438.8c-1.3-28.6-8.4-56.6-20.8-82.4-8.1-16.8-18.3-32.5-30.4-46.7-10.9-12.9-23.4-23.9-36.6-34.4 1.2-1.2 2.8-1 4.2-.8 18.4 2.1 36.4 6.4 53.8 12.8 4.3 1.6 8.5 3.5 12.5 5.8a44.94 44.94 0 0 1 4.2 2.4c.3.2.5.7 1 .6-.3-.4-.4-.9-.2-1.4-11.8-15.4-26.2-28.3-41.2-40.5-17.9-14.5-37.4-26.9-58.2-36.9-28.8-14.2-59.7-23.5-91.6-27.4-2.8-.4-5.8 0-8.5-1-.2-1.9 1.4-2.5 2.5-3.4 18.7-15.6 33.7-34 44.3-55.9 3.2-6.6 5.9-13.5 8.1-20.5.6-2 1-4.2 3-5.4 33.5 16.1 63.5 38.5 88.5 66 66.4 73 91.4 174.5 66.6 270-.7.3-.8-.4-1.2-.9z"/><path fill="#161f42" d="M659.6 597.1c0-2.9 2.3-4.6 3.8-6.7 13.7-19.5 22-41.1 26.3-64.5 2.7-14.5 2.9-29.1 2-43.6-1.5-22.3-7.2-43.8-16.2-64.4a217.9 217.9 0 0 0-24.7-42.6c-10.5-13.9-22.7-26.6-36.2-37.6-20.8-17.2-44.8-30.1-70.6-38.1-13.7-4.4-27.9-7.3-42.2-8.7-2.6-.2-5.1-.9-7.8-.7-9.1-6.7-18.4-13.2-28.8-17.9l.1-1h11.2c52.4-.9 100.8 11.9 143 43.8 43.7 33.1 71.1 76.8 81.3 130.8 8.7 46 2 89.5-23.6 129.4-5 8.1-10.5 15.6-17.6 21.8zm-40.4-493.4c-5.2 16.1-11.8 31.5-21.3 45.6-9.5 14.2-21.1 26.9-34.4 37.7-.8.6-1.5 1.3-2.2 2-4.6 2.3-8.4 5.9-12.6 8.7-15.5 10.2-32.1 18.8-49.4 25.5-.4.1-.9.2-1.3.3-.8-1.1.1-1.5.6-2 9.8-9.4 15.9-20.9 20-33.7.4-1.7 1.6-3.1 3.2-3.6 30.5-12.1 54.9-32.1 74.8-57.9 1.8-2.3 3.6-4.7 5.8-7.7-6.2-.1-10.9 3-16.1 3.8-1 .1-2.3.9-2.5-1 18.9-22.1 33.2-47.9 41.8-75.6.5-1.8 0-4.2 2.5-5.1.2.1.3.3.2.5 0 .2-.1.3-.1.3-.3 19.8-3.1 39.5-8.3 58.6-.3 1.1-.5 2.3-.7 3.6zM500.6 312.3c6.2 6.8 11.6 14.4 16.1 22.5.4.8 1.5 1.7.5 2.6-.8.7-1.6-.2-2.4-.5-20.3-7.6-41.2-13.3-62.6-17-10.8-1.9-21.7-2.7-32.6-3.5-9.8-.6-19.7-.5-29.5.4-22.4 1.8-44.2 6.6-65 15.6-6.4 2.8-12.9 5.3-18.9 9-.7.4-1.5 1.1-2.3.1a197.3 197.3 0 0 1 59.2-28.4c29.2-8.7 58.9-10.8 89.2-8.5 15.4 1.2 30.7 3.6 45.7 7 1 .1 1.8.4 2.6.7z"/><path fill="#5c94ce" d="M493.1 102.1h4.5c2.4 1 5.1-.3 7.5.7h4.5c.4 2.2-1.4 3.1-2.6 4.1l-62.2 52.8-20.5 17.4c-1.1.7-1.9 1.7-2.4 2.8-9 3.4-17.4 7.6-24 14.9-3.1 3.5-5.2 7.5-7.4 11.5-6.2 4-11.4 9.3-17 14l-44.2 37.4c-1.2 1-2.1 2.5-3.5 3.3-2.5-3.8-2-8-1.4-12.1 1.9-3.1 4.8-5 7.4-7.3l43-36.6 41.9-35.6 48.2-41 26.9-22.7c1.4-.9 2.3-1.8 1.3-3.6z"/><path fill="#161f42" d="M756.3 294.2c-17.6-8.5-36.3-13.8-55.5-16.9-5.2-.8-10.3-1.9-15.5-1.9-6.7-4.2-13.3-8.7-20.2-12.7-22.3-12.9-46.7-21.7-72.2-25.8-.6-.2-1.1-.4-1.6-.6 7.6-1.4 33.7 2.5 51.7 7.5 16.8 4.6 33 10.9 48.5 19-1.6-4.9-4.6-8.1-6.4-12-.2-1-1.6-1.9-.7-3s2.1.1 3 .5c2.6 1.2 5.1 2.6 7.7 3.8 21.8 11.3 42.4 24.9 61.4 40.5 1 1.3 1 1.3-.2 1.6z"/><path fill="#6497d0" d="M493.1 102.1c.5 1.1 1.9.3 2.6 1.5l-12.6 10.9L460 134l-32.8 27.7-22.6 19.5-27.6 23.3-21.8 18.7-23.1 19.5-7.7 6.5 2.2-9.8c-1.2-3.2 1.4-4.6 3.1-6.1l20.8-17.7 48.5-41.2 41.7-35.4 38.7-33.1c1-.9 2.9-1.9.1-3 4.5-1.6 9.1-.4 13.6-.8z"/><path fill="#689ad1" d="M479.6 102.9c1 .2 2.2-.4 3.3.5-2.6 3.9-6.5 6.4-10 9.4l-29.7 25.4-27.4 23-27.4 23.5-27.4 23-27.4 23.5c-2.7 2.4-6.4 4-7.1 8.1-4.8.6-7.4 4.6-10.9 7.2-5.6 4-9.9 9.5-15 14-5.2 3.7-9.8 8.1-14.6 12.2l-43.1 36.6c-2 1.7-3.8 3.7-6 5.1-1 .6-1.9 1.8-3.3.8-.1-2.6.4-5.2 1.5-7.5 7.2-4.6 13.2-10.7 19.7-16.1l53.4-45.3 53-45.1 51.9-44.1 53-45.1c3.5-3 7.2-5.8 10.5-9l3-.1z"/><path fill="#4e8fcc" d="M518.6 103.6c4.1-.1 8 1 12 1.5 1.1 2.4-1 3.3-2.2 4.4-5 4.4-10.2 8.5-15.1 13-.5-.7-1.1-1.4-1.6-2.1-1.1-1.6-1.9-1.2-2.6.3-5.9 12.7-16 21.5-27.1 29.3-12.4 8.7-25.8 16-39.9 21.8-.8-1.4-.8-1.5.5-2.8 2.7-2.8 5.8-5.1 8.7-7.6l63.8-54.4c1.2-1 2.3-2.2 3.5-3.4z"/><path fill="#5591cd" d="M518.6 103.6c-.1 1.2-.8 2.4-1.8 3.1l-41.1 34.9-31.4 26.9c-.9.8-2.7 1.4-2.2 3.3-6.6 3.1-13.4 5.9-20.3 8.2-2.3-.6-.4-1.5 0-1.9l12.4-10.7 23-19.5 22.7-19.2 22.6-19.4c2.4-2.1 5.4-3.7 7-6.6 3.1-.2 6.1.8 9.1.9z"/><path fill="#161f42" d="M465.4 193.8c7.9-3.9 16.2-7.2 23.1-12.9 1.4-.1 1.3.8.9 1.7-6.4 26.4-26.4 43.8-53.5 46.3-5.2.5-10.4 1.1-15.7.6.7-1.9 2.5-1.8 4-2.2 5.9-1.6 11.7-3.3 17.2-6.1 10.2-5.3 17.7-13.1 22-23.8.3-1.4 1-2.7 2-3.6z"/><path fill="#418ac9" d="M465.4 193.8c-3.3 12.6-11.3 21.3-22.4 27.6-7.1 4-15 5.9-22.8 8.1-1.9-5.6.2-10.3 3.5-14.6 3.9-5 9.3-8.1 15-10.7 8.7-4 17.6-7.4 26.7-10.4z"/><path fill="#6497d0" d="M233.6 315.1c4.4-1.6 7.3-5.4 10.8-8.3l33.5-28.2 17.4-15.1c1.6-1.4 3-2.9 5.3-3.1-6 7.5-11.7 15.2-16 23.9l-34.4 29.3-15.9 13.6c-.8.7-1.7 1.6-2.9.6.2-4.2.9-8.5 2.2-12.7z"/><path fill="#468cca" d="M277.6 335.3c-3.5.3-5.1 3.4-7.5 5.3-9.9 8-19.4 16.2-29 24.5-3.2 2.8-6.3 5.6-9.7 8.2-2.2 1.7-3.1 1-3-1.6v-9.4c3.5-3.8 7.6-6.7 11.5-10l33.6-28.4c1-.8 1.8-2.3 3.5-1.3l.6 12.7z"/><path fill="#5591cd" d="M325.8 261.2c.1-1.3.8-2.4 1.9-3.1l27-22.8 22.1-18.9 11.5-10c.7-.6 1.4-1.1 2.1 0-.8 3.4-1.8 6.8-1.7 10.4-4 4.4-8.9 7.9-13.4 11.8l-42 35.8c-.6.5-1 1.1-1.5 1.7-2.7-.5-5-2.3-6-4.9z"/><path fill="#5c94ce" d="M231.3 327.9c3.2-1 5.1-3.8 7.6-5.8l39.2-33.1c2.1-1.7 3.5-4.3 6.6-4.6-2.4 5.9-4.4 11.9-6 18-2.3-.2-3.5 1.6-5 2.9l-40.9 34.8c-.8.7-1.6 1.7-2.9 1.3-.2-4.6.3-9.1 1.4-13.5z"/><path fill="#4e8fcc" d="M331.8 266.1c-.9-1.7.6-2.2 1.5-2.9l34.5-29.3 19.6-16.5c.4-.2.9-.4 1.4-.5 0 3.1.5 6.1 1.4 9-3.9 4.6-8.9 8-13.4 11.9l-30.5 25.9c-.7.5-1.3 1.2-1.5 2-4.3 1.6-8.6 2.2-13 .4zm-55 56.6c-4.2 2.4-7.6 5.9-11.3 9-9.8 8-19.4 16.2-28.9 24.5-2.6 2.3-5 4.8-8.3 6.3.4-4-.8-8.1.7-12l44.5-37.8c1-.9 2.1-1.9 3.6-1.2l-.3 11.2z"/><path fill="#5591cd" d="M277.2 311.4c-4.8 2.5-8.4 6.5-12.5 9.9L236 345.5c-2.1 1.8-3.6 4.6-6.8 4.9.4-3-.8-6.1.8-9l28.1-23.9 19.1-16.1c2-1.7 1.5.2 1.6 1.1-.7 2.9-1.1 5.9-1.6 8.9z"/><path fill="#488dca" d="M344.8 265.8c-1.4-1-.4-1.7.3-2.4l26.5-22.2 16.4-14a3.84 3.84 0 0 1 2.2-1.3l2.2 4.5c-1.7 2.7-4.5 4.3-6.5 6.8-10.8 12-23 22.1-38.3 27.9-.9.3-1.8.5-2.8.7z"/><path fill="#468cca" d="M513.3 122.6c1.4-4.2 5.8-5.5 8.4-8.5 2.8-3.2 7.3-4.6 9-9 3.3 0 6.4.9 9.5 1.4 2.7.5 2.9 1.7 1 3.4l-12.3 10.8-11.7 9.9c-1.4-2.7-2.7-5.4-3.9-8z"/><path fill="#428ac9" d="M328.1 293.6c.7 1.7-1.3 2.5-1.1 4-1-4.6-3.5-6.3-8.1-5.4-4.9 1.1-9.3 3.6-12.6 7.4-.9 1-2 1.9-3 2.8-.8-1 0-1.9.3-2.8 2-6.5 6.4-11.1 11.9-14.8 1.2-.9 2.6-1.5 4.1-1.9 6.4-1.5 9.9 1.6 9 8.1.1.9-.1 1.8-.5 2.6z"/><path fill="#182144" d="m328.1 293.6.1-3c.1-6.5-3.6-9-9.7-6.2-7 3.2-11.4 8.9-14.5 15.8-.7.1-1.1-.1-.9-.9 2.2-8.2 6.5-14.9 13.6-19.7 1.8-1.2 3.8-1.9 5.8-2.3 3.3-.7 6.6 1.3 7.4 4.6 1.1 3.9.5 8.2-1.8 11.7z"/><path fill="#458cca" d="M385.9 237.2c-1.3-1-.1-1.4.5-1.9 2.1-1.5 3.3-4.1 5.9-4.9 3.4 5.4 8.8 7.8 14.5 9.8 1.1.4 2.3.7 4.2 1.2-8.7 2.3-16.2 1.4-23.1-3.3-.5-.6-1.2-.9-2-.9z"/><path fill="#63657d" d="M695 252c-2.8-.3-4.8-2.2-7.3-3.1-1-.4-1.9-1.6-2.9-.8-.8.7.5 1.7.2 2.7-1.5-1.3-2.1-3.3-2.9-5.2 4.5 1.8 8.9 3.6 12.9 6.4z"/><path fill="#263154" d="M756.3 294.2c.8-.5 0-1.1.1-1.7l4.3 2.4 2.3 3c-2.8-.8-4.7-2.4-6.7-3.7z"/><path fill="#a09aa9" d="M584 235c2-.3 4.1-.1 6 .4-2.4 1.4-4 1.2-6-.4z"/><path fill="#424a7f" d="M296.6 582.1c2.3.4 3.4 2.7 5.3 3.7l-.1.9c-2.1-1-3.9-2.6-5.2-4.6z"/><path fill="#8cb7de" d="m772.9 438.8 1.3.8c.2 1.5-.5 2.8-1.3 4.6v-5.4z"/><path fill="#5a5d76" d="M583.8 121.6c.5 1.1 1.7.7 2.5 1l-4 1.6c-.3-1.7.7-2.1 1.5-2.6z"/><path fill="#4f668a" d="m303.2 299.3.9.9-.7 2.2-1.6 2.1c.4-2.5.5-4 1.4-5.2z"/><path fill="#555a73" d="M489.4 182.5c-.2-.6-.1-1.4-.9-1.7.2-.6.9-1.4 1.2-1.1.9.9.5 1.9-.3 2.8z"/><path fill="#6d9cd2" d="M236.6 301.6c1-5.4 2.1-10.8 4.5-15.8 8.8-6.2 16.6-13.6 24.8-20.5l42.5-36.1 38.8-33 42-35.7 38.2-32.5 26.7-22.9c4.7-1.1 9.4-1.7 14.2-1.5.4-.4 1-.4 1.5-.2 1.1 1.8-.3 2.8-1.4 3.8L432.2 138l-38.6 32.8-35.6 30.3-43.4 36.8-53.9 45.8-20.9 17.6c-.6.7-1.8 3-3.2.3z"/><path fill="#729fd4" d="M454.1 105.1c-1.3 4.2-5.3 5.8-8.2 8.4-9.5 8.4-19.3 16.5-28.9 24.7l-32.5 27.4-28 24.1-27.4 23.1-27.2 23.3-27.4 23.1-22.4 19.2c-3 2.6-6.1 5.1-9.2 7.6-.7.5-1.3.8-1.9 0 1.1-5.2 2.8-10.3 5.2-15 6.9-4.4 12.7-10.1 18.9-15.3l42.5-36.1 43.9-37.4 36.2-30.8 47.1-40c1.2-.8 2.1-1.9 2.6-3.1 5.5-2.2 11.2-2.1 16.7-3.2z"/><path fill="#78a2d5" d="M437.6 108.1c2.3.6.4 1.5 0 1.9-4.2 3.8-8.5 7.6-12.9 11.3l-22.8 19.2-33.3 28.1-27.2 23.3-28.2 23.8L286 239l-27.3 23.1-10 8.4c-.7.5-1.4 1.8-2.4.4 1-5.1 3.7-9.6 6-14.2l37.1-31.6 38.2-32.5 36.5-31 38.5-32.8c6.6-5.6 13.1-11.5 20-17 4.7-2.2 9.9-2.8 15-3.7z"/><path fill="#7da5d6" d="M422.6 111.8c-4.8 6.2-11.2 10.5-17 15.6l-23 19.6-22.5 19-22.4 19.1-22.8 19.2-22.1 18.9-28.2 23.8-10 8.4a3.84 3.84 0 0 1-2.3 1.1c2.4-6.3 5.4-12.3 9-18 17.1-13.9 33.8-28.4 50.6-42.7l58.4-49.7c10.9-9.4 22.3-18.4 32.9-28.3 6.2-2.5 12.7-4.5 19.4-6z"/><path fill="#81a7d8" d="M403.1 117.9c.8 1.3-.6 1.7-1.2 2.3l-25.1 21.7-22.2 18.8L327 184l-22.4 19.1-28.1 23.8-11.6 10c-1 1-2.3 1.6-3.6 1.8 4.6-9.3 10.2-18.1 16.5-26.2 5.8-4.3 11.1-9.2 16.6-13.8l42.7-36.3 33-28.1c1.7-1.4 3.8-2.4 5.1-4.3 8.8-5.5 18.4-8.7 27.9-12.1z"/><path fill="#0e1f66" d="M561.3 452.4c-7.5 6.2-15 12.5-25 16.8 2.9-5.8 5.1-11.9 6.6-18.2 5.9-26 .4-49.7-14.9-71.2-3.8-5.3-8.9-9.4-13.4-14.1-.7-.8-1.5-1.7-2.8-1.1-1.4-.7-2-2-3-3 .6-.8 1.3-.4 2 0 18.1 10.3 33.2 23.6 42.5 42.7 4.5 9.4 7.3 19.6 8.2 30 .6 6 .5 12.1-.2 18.1z"/><path fill="#699ad1" d="M236.6 301.6c3 1.1 4-1.9 5.5-3.1l45.2-38.3 42.4-36.4 47.6-40.1 42.5-36.4 46-39.2c1.6-1.3 3.8-2 4.1-4.5.9-.8 2.1.1 3-.7h3.8c-1.1 4-5 5.4-7.7 7.8-7.8 7-15.9 13.6-23.8 20.3l-27.4 23.1-22.1 18.9-32.7 27.7-22.1 18.9-28.2 23.8-22.1 18.9-22.8 19.2-22.7 19.4c-2.6 2.2-5.4 4.4-8.1 6.6-.6.5-1.2.9-1.9 0 0-1.9.5-4 1.5-5.9z"/><path fill="#88abd9" d="M375.3 129.8c-.6 3.6-4.1 4.5-6.3 6.5-7.7 6.9-15.6 13.4-23.5 20.1l-27.6 23.3-22.1 18.9-16.1 13.8c-.6.5-1.2.9-1.9 0 3.9-6 8.3-11.7 13.1-17.1 17.6-20.5 37.7-38.3 60.7-52.6 7.7-4.7 15.3-9.6 23.7-12.9z"/><path fill="#5591cd" d="M505.1 102.9c-2.5-.3-5.1.8-7.5-.7 2.5.3 5.1-.8 7.5.7z"/><path fill="#689ad1" d="M472.8 102.9c-.8 1.1-2 .6-3 .7h-1.5c1.4-1.3 3-.5 4.5-.7z"/><path fill="#0e1f66" d="M400.8 624.9c24.5 1.1 48.9-2.8 71.8-11.3a215.36 215.36 0 0 0 61.6-34.7c18.1-14.7 33.7-31.5 44.1-52.6 5.6-11.3 9.1-23.5 10.2-36 1-11.3-.9-22-4-32.6.3-2.6 2.7-3.8 4.1-5.6 5.4-7.1 9.3-14.7 11-23.5a19.57 19.57 0 0 1 1.2-3.4c3.4 6.8 6.1 13.9 8 21.2 2.6 10.3 4.1 20.8 3.3 31.4-1.4 18.4-6.9 36.3-16.1 52.3-9.2 16.2-21 30-34.6 42.4-12 10.7-25.2 20-39.4 27.5-17.1 9.3-35.3 16.2-54.3 20.7-11.8 2.8-23.9 4.5-36 5.2-5.9.3-11.7.8-17.5.5-4.3-.4-8.9-.1-13.4-1.5z"/></svg>
