<svg xmlns="http://www.w3.org/2000/svg" width="18" height="18" fill="none"><g clip-path="url(#a)"><path fill="#6966FB" fill-rule="evenodd" d="M17.498 1.264a.854.854 0 0 0-.855-.855H3.795c-.561 0-1.052.081-1.473.244a3.124 3.124 0 0 0-1.053.696 2.9 2.9 0 0 0-.65 1.014c-.14.389-.21.79-.21 1.203v1.97a1.71 1.71 0 0 0 1.71 1.709H12.37L7.245 3.827h9.398a.854.854 0 0 0 .855-.855V1.264ZM.409 16.643c0 .471.383.854.855.854h12.848c.561 0 1.052-.082 1.473-.245a3.124 3.124 0 0 0 1.053-.695c.292-.3.509-.639.65-1.015.14-.388.21-.789.21-1.202v-1.97c0-.944-.765-1.709-1.709-1.709H5.536l5.126 3.418H1.264a.854.854 0 0 0-.855.854v1.71Z" clip-rule="evenodd"/></g><defs><clipPath id="a"><path fill="#fff" d="M.41 0h17.18v18H.41z"/></clipPath></defs></svg>
