<svg xmlns="http://www.w3.org/2000/svg" data-name="Layer 1" viewBox="0 0 221.21 221.21"><defs><linearGradient id="a" x1="110.61" x2="110.61" y1="220.45" y2="-.29" gradientUnits="userSpaceOnUse"><stop offset="0" stop-color="#7d5df2"/><stop offset="1" stop-color="#60f9b6"/></linearGradient></defs><path d="M110.61 24.58a86 86 0 1 0 86 86 86 86 0 0 0-86-86Zm0 159.78a73.74 73.74 0 1 1 73.73-73.75 73.74 73.74 0 0 1-73.73 73.75Zm0-184.36a110.61 110.61 0 1 0 110.6 110.61A110.61 110.61 0 0 0 110.61 0Zm0 208.94a98.32 98.32 0 1 1 98.3-98.33 98.33 98.33 0 0 1-98.3 98.33Zm0-184.36a86 86 0 1 0 86 86 86 86 0 0 0-86-86Zm0 159.78a73.74 73.74 0 1 1 73.73-73.75 73.74 73.74 0 0 1-73.73 73.75Zm0-159.78a86 86 0 1 0 86 86 86 86 0 0 0-86-86Zm0 159.78a73.74 73.74 0 1 1 73.73-73.75 73.74 73.74 0 0 1-73.73 73.75Z" style="fill:url(#a)"/></svg>
