<svg id="Layer_1" data-name="Layer 1" xmlns="http://www.w3.org/2000/svg" xmlns:xlink="http://www.w3.org/1999/xlink" viewBox="0 0 221.21 221.21"><defs><style>.cls-1{fill:url(#linear-gradient);}</style><linearGradient id="linear-gradient" x1="110.61" y1="220.45" x2="110.61" y2="-0.29" gradientUnits="userSpaceOnUse"><stop offset="0" stop-color="#7d5df2"/><stop offset="1" stop-color="#60f9b6"/></linearGradient></defs><path class="cls-1" d="M110.61,24.58a86,86,0,1,0,86,86A86,86,0,0,0,110.61,24.58Zm0,159.78a73.74,73.74,0,1,1,73.73-73.75A73.74,73.74,0,0,1,110.61,184.36ZM110.61,0a110.61,110.61,0,1,0,110.6,110.61A110.61,110.61,0,0,0,110.61,0Zm0,208.94a98.32,98.32,0,1,1,98.3-98.33A98.33,98.33,0,0,1,110.61,208.94Zm0-184.36a86,86,0,1,0,86,86A86,86,0,0,0,110.61,24.58Zm0,159.78a73.74,73.74,0,1,1,73.73-73.75A73.74,73.74,0,0,1,110.61,184.36Zm0-159.78a86,86,0,1,0,86,86A86,86,0,0,0,110.61,24.58Zm0,159.78a73.74,73.74,0,1,1,73.73-73.75A73.74,73.74,0,0,1,110.61,184.36Z"/></svg>