<svg xmlns="http://www.w3.org/2000/svg" width="29" height="29" fill="none"><g clip-path="url(#a)"><path fill="url(#b)" d="M14.547 21.838a6.236 6.236 0 0 1-6.233-6.233c0-3.344 5.642-9.249 5.881-9.496l.296-.312.303.304c.247.247 5.985 6.153 5.985 9.496a6.238 6.238 0 0 1-6.232 6.24Zm-.048-14.836a42.811 42.811 0 0 0-2.562 3.049c-1.827 2.41-2.793 4.325-2.793 5.546A5.412 5.412 0 0 0 14.547 21a5.412 5.412 0 0 0 5.402-5.403c0-1.22-.981-3.136-2.84-5.546a44.335 44.335 0 0 0-2.61-3.049Z"/><path fill="url(#c)" d="M14.547 23.833c-4.541 0-8.228-3.695-8.228-8.228 0-4.437 6.193-10.63 6.456-10.885.16-.16.43-.16.59 0 .16.16.16.43 0 .59-.063.064-6.208 6.21-6.208 10.295 0 4.078 3.32 7.398 7.398 7.398 4.078 0 7.397-3.32 7.397-7.398 0-1.676-1.085-3.99-3.144-6.711-1.58-2.083-3.168-3.663-3.184-3.68a.41.41 0 0 1 0-.59.41.41 0 0 1 .59 0c.272.264 6.576 6.536 6.576 10.981-.016 4.533-3.703 8.228-8.243 8.228Z"/><path fill="url(#d)" d="M14.547 25.828c-5.523 0-10.016-4.493-10.016-10.015 0-2.283 1.15-5.092 3.408-8.34C9.607 5.08 11.243 3.371 11.315 3.3a.417.417 0 1 1 .598.582A37.299 37.299 0 0 0 8.617 7.96c-2.13 3.057-3.256 5.77-3.256 7.853 0 5.06 4.118 9.185 9.186 9.185 5.067 0 9.185-4.118 9.185-9.185 0-2.083-1.133-4.796-3.28-7.853a37.446 37.446 0 0 0-3.328-4.078.417.417 0 1 1 .598-.583c.28.288 6.84 7.103 6.84 12.514 0 5.522-4.493 10.015-10.015 10.015Z"/></g><defs><linearGradient id="b" x1="14.547" x2="14.547" y1="21.837" y2="5.796" gradientUnits="userSpaceOnUse"><stop stop-color="#05AAC5"/><stop offset="1" stop-color="#71E0EC"/></linearGradient><linearGradient id="c" x1="14.555" x2="14.555" y1="23.832" y2="4.498" gradientUnits="userSpaceOnUse"><stop stop-color="#05AAC5"/><stop offset="1" stop-color="#71E0EC"/></linearGradient><linearGradient id="d" x1="14.547" x2="14.547" y1="25.827" y2="3.172" gradientUnits="userSpaceOnUse"><stop stop-color="#05AAC5"/><stop offset="1" stop-color="#71E0EC"/></linearGradient><clipPath id="a"><path fill="#fff" d="M4.531 3.172h20.031v22.656H4.532z"/></clipPath></defs></svg>
