<svg xmlns="http://www.w3.org/2000/svg" xml:space="preserve" id="Layer_1" x="0" y="0" style="enable-background:new 0 0 2500 2500" version="1.1" viewBox="0 0 2500 2500"><style>.st1{fill:#fff}.st4{fill:#151110}</style><g id="Layer_x0020_1"><g id="_1667685573296"><path d="M0 0h2500v2500H0z" style="fill:none"/><path d="M2385 1469c-20-147-65-296-133-443 27-71 83-236 99-422l1-8c23-271 39-467-76-561-63-52-153-47-266 15-67 36-121 81-123 82s-151 123-268 259c-109-32-238-49-368-49s-259 17-368 49C767 256 622 138 615 132c-2-2-56-46-123-82-113-62-203-67-266-15-115 94-98 290-76 561l1 7c16 187 71 351 99 422-68 147-113 296-133 443-17 121-10 198-9 207 10 102 71 306 364 516 272 196 555 308 776 308h10c221 0 504-112 776-308 293-211 353-414 364-516 1-8 8-85-9-207l-4 1z" class="st1"/><path d="M2171 1029c14-33 88-217 106-431l1-7c20-239 36-428-49-497-38-31-99-23-184 23-60 33-110 73-112 75-2 1-176 143-290 287-111-40-251-61-393-61-143 0-282 22-393 61-114-144-288-286-290-287-2-2-51-42-112-75-84-46-146-53-184-23-84 69-69 258-49 497l1 7c18 214 92 398 106 431-175 359-150 628-149 639 9 90 64 270 333 463 260 187 526 294 732 294h10c206 0 473-107 732-294 269-194 324-373 333-463 1-11 26-280-149-639z"/><path d="M2277 1617c0-38-3-97-17-175-11-60-26-122-45-183-23-73-52-145-87-215l-7-14 6-14s22-49 45-125c14-45 25-90 35-134 12-56 20-110 24-163l1-7c9-113 18-220 15-302s-19-133-47-157c-7-6-16-8-28-8-17 0-38 5-63 15-21 9-45 21-70 36-44 27-77 54-78 54 0 0-45 37-103 90-96 89-154 156-186 197l-15 19-22-8c-53-19-112-35-177-45-67-11-138-17-210-17s-143 6-210 17c-64 11-124 26-177 45l-22 8-15-19c-58-74-133-148-186-197-58-53-102-90-103-90 0 0-34-28-78-54-25-15-49-28-70-36-25-10-46-15-63-15-12 0-22 3-28 8-28 23-44 74-47 157-3 82 5 189 15 302l1 7c4 52 13 107 24 163 9 45 21 90 35 134 23 76 45 125 45 125l6 14-7 14c-35 70-64 143-87 215-19 61-35 123-45 183-14 78-17 137-17 175 0 13 0 24 1 32v15c2 19 6 45 16 75 0 1 1 2 1 2 1 2 1 3 2 5 0 1 1 2 1 4 1 3 2 6 4 9 1 2 1 3 2 5 1 1 1 3 2 4 8 20 18 41 31 63 54 92 140 181 256 265 16 12 32 23 48 34 51 35 102 66 152 94 51 28 101 53 150 74 13 5 25 11 38 15 59 23 116 40 170 52 52 11 102 17 147 17h10c46 0 95-6 147-17 54-12 112-29 170-52 12-5 24-9 36-15 50-21 101-46 152-75 37-20 74-43 111-67 2-2 5-3 7-5 4-2 8-5 11-7 24-16 47-32 71-49 53-38 99-77 139-117l4-4 8-8c2-2 4-4 6-7 1-1 2-3 4-4 2-2 4-5 6-7 3-4 7-7 10-11 12-13 23-27 33-40 3-3 5-7 8-10l2-2c13-18 25-36 36-54 9-16 17-32 24-46 23-51 32-92 34-120 1-6 2-21 2-46l6-2z" style="fill:#fea31c"/><path d="M2276 1664c-4 37-17 95-59 167-54 92-140 181-256 265-67 48-134 91-200 128-51 28-102 53-152 75l-36 15c-59 23-116 40-170 52-52 11-102 17-147 17h-10c-46 0-95-6-147-17-54-12-112-29-170-52-12-5-25-10-38-15-49-21-100-46-150-74-66-37-134-80-200-128-116-84-202-173-256-265-42-72-55-130-59-167-1-6-2-22-2-47 45-11 92-17 141-17 183 0 346 82 448 208 43-211 222-370 437-370s395 159 437 370c102-126 265-208 448-208 50 0 98 6 143 17 0 25-1 41-2 46z" class="st1"/><path d="M223 1617c0 25 1 41 2 47 4 37 17 95 59 167 54 92 140 181 256 265 67 48 134 91 200 128 51 28 101 53 150 74l-667-680v-1zm2054 0c0 25-1 41-2 46-4 37-17 95-59 167-54 92-140 181-256 265-67 48-134 91-200 128-51 28-102 53-152 75l669-680v-1z" class="st1"/><path d="M673 1004s20-82 92-85 101 37 122 64c20 27 53 102-14 112-67 11-175 19-191 3-27-26-9-94-9-94zm1151 0s-20-82-92-85-101 37-122 64c-20 27-53 102 14 112 67 11 175 19 191 3 27-26 9-94 9-94z" style="fill:#fffff2"/><path d="M614 1221s-2-63 39-53 263 122 305 168c41 45 76 90 37 92-38 2-196-9-283-61s-98-40-98-145v-1zm1270 0s2-63-39-53-263 122-305 168c-41 45-76 90-37 92 38 2 196-9 283-61s98-40 98-145v-1z" class="st4"/><path d="M2035 422c-54 58-121 145-171 222 112 99 184 199 220 259 47-123 106-416 98-534-1-12-2-23-4-33-37 7-89 29-143 87v-1zm-1572 0c54 58 121 145 171 222-112 99-184 199-220 259-47-123-106-416-98-534 1-12 2-23 4-33 37 7 89 29 143 87v-1z" style="fill:#ff8000"/><path d="M1997 334c-69 48-149 116-246 222 41 28 78 58 112 88 51-76 118-163 171-222 54-58 105-80 143-87-19-99-88-66-181-1h1zm-1496 0c69 48 149 116 246 222-41 28-78 58-112 88-51-76-118-163-171-222-54-58-105-80-143-87 19-99 88-66 181-1h-1z" style="fill:#ff8e06"/><path d="M1322 2027h-147s-16-4-16 8 17 22 24 22 19-15 28-15 26 36 38 36 29-36 38-36 21 15 28 15 24-10 24-22-16-8-16-8h-1z" class="st4"/><path d="M1524 1939c-79-1-84 5-93 9-10 4-67 2-100 3s-24-16-36-29c-10-10-23-8-24-17v-41s1-11 21-17c61-19 93-73 93-73 38-81 20-159-2-179s-69-16-69-16h-130s-47-4-69 16-40 98-2 179c0 0 33 54 93 73h-1c20 6 21 17 21 17v41c-1 10-14 7-24 17-12 13-3 29-36 29-33-1-90 2-100-3-9-4-14-10-93-9-4 0-6 5-4 8 5 6 11 13 15 21 7 14 8 45 11 48s19 0 23 4c3 4 31 89 43 89s7-127 7-127 142 10 180 10 180-10 180-10-5 127 7 127 40-85 43-89 19-2 23-4c3-3 4-34 11-48 4-8 10-16 15-21 3-3 0-8-4-8h1z" class="st4"/></g></g></svg>
