<?xml version="1.0" encoding="utf-8"?>
<!-- Generator: Adobe Illustrator 26.1.0, SVG Export Plug-In . SVG Version: 6.00 Build 0)  -->
<svg version="1.1" id="Layer_1" xmlns="http://www.w3.org/2000/svg" xmlns:xlink="http://www.w3.org/1999/xlink" x="0px" y="0px"
	 viewBox="0 0 500 500" style="enable-background:new 0 0 500 500;" xml:space="preserve">
<style type="text/css">
	.st0{fill:#FFFFFF;}
	.st1{fill:#E6FA36;}
</style>
<g>
	<path class="st0" d="M494.13,234.96c-9.18,32.79-30.76,68.12-58.35,81.63c-85.92,42.06-130.58-48.81-125.18-115.05
		c3.24-39.78,16.14-71.41,6.2-103.76c-3.17-10.32-9.91-19.87-20.95-25.04c-30.29-14.19-59.93,5.32-73.71,25.99
		c-14.87,22.29-21.85,50.18-19.96,75.67c1.81,24.56,10.31,40.66,23.13,62.65c17.13,29.38,35.37,48.46,42.35,71.02
		c4.5,14.54,7.06,38.01-13.61,39.98c-21.83,2.09-20.73-26.53-21.04-40.89c-0.93-43.64-28.65-59.36-49.52-109.63
		c-12.19-29.36-16.94-60.41-9.81-91.06c10.03-43.13,34.47-77.9,78.53-89.93c35.23-9.62,76.03-1.73,98.33,29.12
		c26.51,36.68,21.34,79.95,10.56,118.4c-19.95,71.13-2.13,105.04,14.5,113.91c31.49,16.79,64.53-2.23,79.19-22.39
		c15.88-21.84,25.35-61.68,23.85-87.18c-0.57-9.74-1.43-18.12-2.74-25.64"/>
	<path class="st0" d="M0,250c0,18.24,1.97,36.02,5.68,53.15c-0.38-12.91,0.89-25.69,4.23-37.61c9.18-32.79,30.76-68.12,58.35-81.63
		c85.92-42.06,130.58,48.81,125.18,115.05c-3.24,39.78-16.14,71.41-6.2,103.76c3.17,10.32,9.91,19.87,20.95,25.04
		c30.29,14.19,59.93-5.32,73.71-25.99c14.87-22.29,21.85-50.18,19.96-75.67c-1.81-24.56-10.31-40.66-23.12-62.65
		c-17.13-29.38-35.37-48.46-42.35-71.02c-4.5-14.54-7.06-38.01,13.61-39.98c21.83-2.09,20.73,26.53,21.04,40.89
		c0.93,43.64,28.65,59.36,49.52,109.63c12.19,29.36,16.94,60.41,9.81,91.06c-10.03,43.13-34.47,77.9-78.53,89.93
		c-35.23,9.62-76.03,1.73-98.33-29.12c-26.51-36.68-21.34-79.95-10.56-118.4c19.95-71.13,2.13-105.04-14.5-113.91
		c-31.49-16.78-64.53,2.23-79.19,22.39c-15.88,21.84-25.35,61.68-23.85,87.18c0.93,15.82,2.63,28.06,5.77,38.86"/>
	<circle class="st1" cx="250" cy="250" r="250"/>
	<g>
		<path d="M330.37,394.04c7.13-30.65,2.38-61.7-9.81-91.06c-20.87-50.27-48.6-66-49.52-109.63c-0.3-14.36,0.79-42.98-21.04-40.89
			c-20.67,1.98-18.11,25.45-13.61,39.99c6.98,22.56,25.23,41.64,42.35,71.02c12.82,21.99,21.31,38.09,23.12,62.65
			c1.88,25.49-5.09,53.38-19.96,75.67c-13.79,20.67-43.42,40.18-73.71,25.99c-11.04-5.17-17.78-14.73-20.95-25.04
			c-9.93-32.36,2.96-63.98,6.2-103.76c5.4-66.24-39.27-157.11-125.18-115.05c-27.59,13.51-49.17,48.83-58.35,81.63
			c-3.34,11.93-4.61,24.7-4.23,37.61c5.22,24.08,13.9,46.87,25.5,67.82l0,0c-3.14-10.81-4.84-23.04-5.77-38.86
			c-1.5-25.49,7.98-65.34,23.85-87.18c14.65-20.16,47.7-39.18,79.19-22.39c16.63,8.87,34.45,42.78,14.5,113.91
			c-10.79,38.46-15.96,81.72,10.56,118.4c22.3,30.85,63.1,38.74,98.33,29.12C295.9,471.94,320.35,437.17,330.37,394.04z"/>
		<path d="M494.13,234.96c1.72-6.13,2.88-12.49,3.56-18.97c0,0.03,0.01,0.05,0.01,0.07c-3.52-25.91-11-50.56-21.82-73.32
			c1.31,7.53,2.17,15.9,2.74,25.64c1.5,25.49-7.98,65.34-23.85,87.18c-14.65,20.16-47.7,39.18-79.19,22.39
			c-16.63-8.87-34.45-42.78-14.5-113.91c10.79-38.46,15.96-81.72-10.56-118.4c-22.3-30.85-63.1-38.74-98.33-29.12
			c-44.06,12.03-68.51,46.8-78.53,89.93c-7.13,30.65-2.38,61.7,9.81,91.06c20.87,50.27,48.6,66,49.52,109.63
			c0.3,14.36-0.79,42.98,21.04,40.89c20.67-1.98,18.11-25.45,13.61-39.98c-6.98-22.56-25.23-41.64-42.35-71.02
			c-12.82-21.99-21.31-38.09-23.13-62.65c-1.88-25.49,5.09-53.38,19.96-75.67c13.79-20.67,43.42-40.18,73.71-25.99
			c11.04,5.17,17.78,14.73,20.95,25.04c9.93,32.36-2.96,63.98-6.2,103.76c-5.4,66.24,39.27,157.11,125.18,115.05
			C463.36,303.08,484.95,267.75,494.13,234.96z"/>
	</g>
</g>
</svg>
