<svg xmlns="http://www.w3.org/2000/svg" width="14" height="16" fill="none"><g clip-path="url(#a)"><path fill="#64C557" fill-rule="evenodd" d="M13.65 11.855V4.146L6.967.288V8l-6.68 3.857 6.683 3.857 6.676-3.854.004.003v-.005l.002-.002h-.002Z" clip-rule="evenodd"/><path fill="#118AB2" d="M.29 4.146 6.971.288v7.716L.288 11.863V4.146Z"/><path fill="#00F8B7" d="m6.973.28 6.682 3.858-2.227 1.286-6.683-3.858L6.973.281Z"/><path fill="#09BD8E" d="M11.422 5.422v2.572L4.74 4.136V1.564l6.682 3.858Z"/><path fill="#FFE3A3" d="m4.736 4.14 6.683 3.857L9.19 9.283 2.51 5.426 4.736 4.14Z"/><path fill="#FFBB1D" d="M9.217 9.297v2.572L2.535 8.01V5.438l6.682 3.859Z"/><path fill="#FF965E" d="m2.515 7.998 6.682 3.858-2.227 1.286L.287 9.284l2.228-1.286Z"/><path fill="#D94C00" d="M6.965 13.14v2.572L.284 11.854V9.282l6.682 3.858Z"/><path fill="#06D6A0" d="m11.426 5.423 2.227-1.286v7.716l-2.227 1.286V5.423Z"/><path fill="#FFD166" d="m9.194 9.282 2.227-1.286v5.144l-2.228 1.286V9.282Z"/><path fill="#F3722C" d="m6.961 13.14 2.227-1.285v2.572l-2.227 1.286V13.14Z"/></g><defs><clipPath id="a"><path fill="#fff" d="M.23 0h13.54v16H.23z"/></clipPath></defs></svg>
