<svg width="46" height="55" viewBox="0 0 46 55" fill="none" xmlns="http://www.w3.org/2000/svg">
<path fill-rule="evenodd" clip-rule="evenodd" d="M45.1977 23.0586C45.1955 23.291 44.7066 46.4081 23.7599 54.0325C23.751 54.0364 23.7422 54.0373 23.7333 54.0382C23.7266 54.0389 23.7199 54.0396 23.7133 54.0415C23.4844 54.1197 23.2444 54.1667 22.9999 54.1667C22.7533 54.1667 22.5155 54.1197 22.2866 54.0415C22.2799 54.0396 22.2733 54.0389 22.2666 54.0382C22.2577 54.0373 22.2488 54.0364 22.2399 54.0325C1.29327 46.4081 0.804377 23.291 0.802154 23.0586C0.788821 21.8292 0.77771 19.8175 0.77771 18.5858V11.9158C0.77771 9.46374 2.77104 7.46765 5.22215 7.46765H7.44438C16.7777 7.46765 20.9799 1.94433 21.1533 1.70963C21.5733 1.14411 22.211 0.869169 22.8622 0.842346C23.6155 0.777524 24.3822 1.0614 24.8555 1.71857C25.0199 1.94433 29.2222 7.46765 38.5555 7.46765H40.7777C43.2288 7.46765 45.2222 9.46374 45.2222 11.9158V18.5858C45.2222 19.8175 45.211 21.8292 45.1977 23.0586ZM40.7778 11.9161H38.5555C30.4355 11.9161 25.4222 8.4358 23 6.18489C20.5778 8.4358 15.5644 11.9161 7.44443 11.9161H5.22221V18.5861C5.22221 19.8021 5.23332 21.7937 5.24665 23.0119C5.25776 23.8211 5.76443 42.6911 22.9978 49.5243C40.3044 42.6509 40.7511 23.2109 40.7533 23.0119C40.7667 21.7937 40.7778 19.8021 40.7778 18.5861V11.9161ZM23.4601 19.7707C23.2899 19.3615 22.7102 19.3615 22.54 19.7707L20.657 24.2981C20.5852 24.4706 20.423 24.5885 20.2367 24.6034L15.349 24.9953C14.9072 25.0307 14.7281 25.582 15.0647 25.8703L18.7886 29.0603C18.9305 29.1818 18.9925 29.3725 18.9491 29.5543L17.8114 34.3239C17.7086 34.755 18.1775 35.0957 18.5557 34.8647L22.7404 32.3088C22.8998 32.2114 23.1003 32.2114 23.2598 32.3088L27.4444 34.8647C27.8226 35.0957 28.2915 34.755 28.1887 34.3239L27.051 29.5543C27.0076 29.3725 27.0696 29.1818 27.2115 29.0603L30.9355 25.8703C31.272 25.582 31.0929 25.0307 30.6511 24.9953L25.7634 24.6034C25.5771 24.5885 25.4149 24.4706 25.3432 24.2981L23.4601 19.7707Z" fill="url(#paint0_linear_304_5011)"/>
<defs>
<linearGradient id="paint0_linear_304_5011" x1="0.77771" y1="-8.05556" x2="58.7324" y2="1.77351" gradientUnits="userSpaceOnUse">
<stop offset="0.21875" stop-color="#8B10C6"/>
<stop offset="0.697917" stop-color="#D02480"/>
<stop offset="0.963542" stop-color="#E95E3C"/>
</linearGradient>
</defs>
</svg>
