<svg width="109" height="93" fill="none" xmlns="http://www.w3.org/2000/svg"><circle cx="69.721" cy="4.524" r="1.1" stroke="#AEB1C2" stroke-width=".8"/><circle cx="26.617" cy="26.339" r="1.1" stroke="#AEB1C2" stroke-width=".8"/><circle cx="82.908" cy="13.112" r="1.1" stroke="#AEB1C2" stroke-width=".8"/><path d="M24.946 12.314a.295.295 0 00.11-.191.302.302 0 00-.053-.216l-1.28-1.741 1.701-1.29a.295.295 0 00.11-.19.302.302 0 00-.053-.217.309.309 0 00-.197-.115.301.301 0 00-.22.052l-1.7 1.29-1.279-1.742a.293.293 0 00-.189-.113.286.286 0 00-.211.052.294.294 0 00-.107.184.353.353 0 00.05.224l1.28 1.74-1.701 1.29a.345.345 0 00-.11.2.302.302 0 00.053.207c.047.06.114.101.19.113a.285.285 0 00.21-.052l1.7-1.29 1.28 1.742a.302.302 0 00.416.063z" fill="#AEB1C2"/><mask id="a" fill="#fff"><path d="M79.621 22.809a.278.278 0 00-.321.016.276.276 0 00-.074.087l-1.048 1.755-1.773-1.018a.295.295 0 00-.362.122.284.284 0 00.068.37l1.773 1.018-1.048 1.755a.272.272 0 00.014.317c.024.03.053.053.087.071a.276.276 0 00.22.034.28.28 0 00.175-.137l1.049-1.755 1.773 1.017a.278.278 0 00.322-.016.276.276 0 00.073-.087.273.273 0 00.036-.217.269.269 0 00-.137-.171l-1.774-1.018 1.049-1.755a.272.272 0 00-.014-.317.273.273 0 00-.088-.071z"/></mask><path d="M79.621 22.809a.278.278 0 00-.321.016.276.276 0 00-.074.087l-1.048 1.755-1.773-1.018a.295.295 0 00-.362.122.284.284 0 00.068.37l1.773 1.018-1.048 1.755a.272.272 0 00.014.317c.024.03.053.053.087.071a.276.276 0 00.22.034.28.28 0 00.175-.137l1.049-1.755 1.773 1.017a.278.278 0 00.322-.016.276.276 0 00.073-.087.273.273 0 00.036-.217.269.269 0 00-.137-.171l-1.774-1.018 1.049-1.755a.272.272 0 00-.014-.317.273.273 0 00-.088-.071z" fill="#AEB1C2"/><path d="M79.226 22.912l.859.513.011-.019.01-.019-.88-.475zm-1.048 1.755l-.498.867.852.49.504-.844-.858-.513zm-1.773-1.018l.498-.867-.062-.035-.066-.027-.37.93zm-.294.492l-.616.788.056.044.062.035.498-.867zm1.773 1.018l.859.512.522-.873-.883-.507-.498.868zm-1.048 1.755l.835.549.012-.018.011-.018-.858-.513zm.101.388l.535-.845-.036-.023-.039-.02-.46.888zm.22.034l.253.967-.253-.967zm.175-.137l-.858-.513-.011.018-.01.02.88.475zm1.049-1.755l.498-.868-.853-.489-.504.844.859.513zm1.773 1.017l.535-.845-.018-.011-.02-.01-.497.866zm.395-.103l-.836-.55-.023.037-.02.038.88.475zm-.101-.388l-.498.867.018.01.02.01.46-.887zm-1.774-1.018l-.858-.513-.522.874.883.506.497-.867zm1.049-1.755l-.836-.55-.011.019-.011.018.858.513zm.433-1.233a1.276 1.276 0 00-.489-.183l-.303 1.976a.723.723 0 01-.277-.103l1.07-1.69zm-.489-.183a1.282 1.282 0 00-.518.026l.505 1.935a.718.718 0 01-.29.015l.303-1.977zm-.518.026a1.28 1.28 0 00-.465.23l1.231 1.576a.72.72 0 01-.26.13l-.506-1.936zm-.465.23a1.277 1.277 0 00-.337.4l1.76.95a.724.724 0 01-.192.226l-1.231-1.575zm-.316.362l-1.049 1.755 1.717 1.026 1.049-1.755-1.717-1.026zm.308 1.4l-1.773-1.017-.996 1.735 1.773 1.017.996-1.734zm-1.9-1.079a1.296 1.296 0 00-.895-.024l.64 1.895a.705.705 0 01-.487-.013l.741-1.858zm-.895-.024c-.29.098-.538.296-.697.563l1.717 1.025a.706.706 0 01-.38.308l-.64-1.896zm-.697.563c-.16.266-.218.583-.16.893l1.966-.365a.716.716 0 01-.089.497l-1.717-1.025zm-.16.893c.057.31.226.585.471.777l1.232-1.576c.136.106.23.26.263.434l-1.966.365zm.59.856l1.772 1.018.996-1.735-1.773-1.018-.996 1.735zm1.412-.362L75.977 26.4l1.717 1.026 1.049-1.756-1.717-1.025zM76 26.365a1.27 1.27 0 00-.192.49l1.973.328a.727.727 0 01-.11.28l-1.67-1.098zm-.192.49c-.03.175-.021.355.024.528l1.935-.505c.026.1.03.204.014.305l-1.973-.329zm.024.528c.045.174.127.335.238.474l1.56-1.252a.73.73 0 01.137.273l-1.935.505zm.238.474c.112.138.25.252.407.333l.92-1.776c.09.046.169.111.233.19l-1.56 1.253zm.333.29c.149.095.316.157.489.183l.303-1.977c.097.015.192.05.277.104l-1.07 1.69zm.489.183c.173.027.35.017.518-.027l-.506-1.935a.719.719 0 01.29-.015l-.302 1.977zm.518-.027c.169-.044.327-.122.465-.23l-1.232-1.576a.718.718 0 01.261-.129l.506 1.935zm.465-.23c.138-.108.253-.243.337-.399l-1.76-.95a.723.723 0 01.191-.227l1.232 1.576zm.316-.361l1.048-1.756-1.717-1.025-1.048 1.755 1.717 1.026zm-.308-1.401l1.773 1.018.996-1.735-1.773-1.018-.996 1.735zm1.736.995c.15.095.316.157.49.183l.303-1.976c.097.014.192.05.277.103l-1.07 1.69zm.49.183c.173.027.349.018.518-.026l-.506-1.935a.72.72 0 01.29-.015l-.302 1.976zm.518-.026a1.28 1.28 0 00.465-.23l-1.232-1.576a.718.718 0 01.261-.13l.506 1.936zm.465-.23c.138-.108.253-.244.337-.4l-1.76-.95a.723.723 0 01.191-.226l1.232 1.576zm.293-.326a1.27 1.27 0 00.192-.49l-1.973-.328a.728.728 0 01.11-.28l1.67 1.098zm.192-.49c.029-.175.02-.355-.024-.529l-1.935.506a.732.732 0 01-.014-.305l1.973.329zm-.024-.529a1.267 1.267 0 00-.238-.473l-1.56 1.252a.73.73 0 01-.137-.273l1.935-.505zm-.238-.473a1.271 1.271 0 00-.407-.333l-.92 1.776a.726.726 0 01-.233-.19l1.56-1.253zm-.37-.312l-1.773-1.018-.995 1.734 1.773 1.018.995-1.734zm-1.412.362l1.048-1.755-1.716-1.026-1.05 1.755 1.718 1.026zm1.026-1.719c.097-.147.162-.314.192-.49l-1.973-.328a.727.727 0 01.11-.28l1.67 1.098zm.192-.49c.029-.175.02-.356-.024-.529l-1.936.506a.732.732 0 01-.013-.305l1.972.328zm-.024-.529a1.269 1.269 0 00-.238-.473l-1.56 1.252a.731.731 0 01-.138-.273l1.936-.506zm-.238-.473a1.271 1.271 0 00-.407-.333l-.92 1.776a.726.726 0 01-.233-.191l1.56-1.252z" fill="#AEB1C2" mask="url(#a)"/><path fill-rule="evenodd" clip-rule="evenodd" d="M47.166 16.45A8 8 0 1051.308.997a8 8 0 00-4.142 15.455zm2.86-9.144l1.052 3.404 1.189 1.353-1.815-6.344-.425 1.587zm.457 3.934l-3.6-.964-1.572.414 6.132 1.642-.96-1.092zm-3.826-1.729l2.6-2.41.425-1.588-4.55 4.4 1.525-.402zm3.466.808l-.704-2.281-1.751 1.623 2.455.658zm.7-6.202l2.556 8.934a.398.398 0 01-.487.495l-9.236-2.475-.005-.002a.418.418 0 01-.09-.038.156.156 0 01-.02-.015.202.202 0 00-.013-.01l-.01-.007c-.014-.01-.028-.02-.04-.032-.006-.005-.01-.011-.015-.018l-.01-.014-.01-.012a.28.28 0 01-.029-.038c-.008-.014-.014-.03-.02-.045l-.005-.017-.007-.015a.133.133 0 01-.008-.02v-.001-.001a.387.387 0 01-.003-.174.393.393 0 01.042-.121v-.002l.003-.005c.018-.03.04-.059.066-.085l6.681-6.46c.014-.013.03-.023.047-.034l.01-.007a.393.393 0 01.323-.056c.115.03.201.11.25.21l.006.01c.009.018.018.035.024.055zM63.644 29.91a8 8 0 10-4.141-15.456 8 8 0 004.14 15.455zm-2.095-9.35l2.612 2.422 1.706.577-4.743-4.587.425 1.588zm2.362 3.179l-3.6.964-1.154 1.144 6.131-1.642-1.377-.466zm-4.178.415l1.046-3.388-.425-1.587-1.741 6.085 1.12-1.11zm3.406-1.033l-1.751-1.624-.705 2.282 2.456-.658zM60.644 17.4l6.68 6.46a.398.398 0 01-.174.67l-9.236 2.476h-.006l-.006.001a.412.412 0 01-.091.012c-.009 0-.017-.002-.025-.003a.214.214 0 00-.016-.002l-.012-.001c-.017-.002-.034-.004-.05-.008a.16.16 0 01-.022-.008l-.016-.007-.015-.006c-.015-.005-.03-.01-.044-.019-.014-.008-.026-.018-.039-.03a.747.747 0 00-.014-.01l-.012-.01c-.007-.004-.013-.008-.018-.014l-.001-.001a.387.387 0 01-.09-.15.394.394 0 01-.024-.125v-.003a.411.411 0 01.015-.112l2.556-8.934a.26.26 0 01.023-.053l.006-.011c.05-.1.135-.18.25-.21a.392.392 0 01.323.056l.01.006c.016.011.033.022.048.035zM38.966 35.98a8 8 0 108-13.857 8 8 0 00-8 13.857zm5.13-8.092l.134 3.56.799 1.614-.111-6.598-.822 1.424zm-.578 3.917l-3.227-1.863-1.625-.007 5.497 3.174-.645-1.304zm-3.247-2.66l3.135-1.656.822-1.423-5.535 3.072 1.578.007zm3.139 1.678l-.09-2.387-2.112 1.115 2.202 1.272zm2.28-5.81l.157 9.291a.398.398 0 01-.598.352l-8.281-4.781a.031.031 0 01-.005-.004.408.408 0 01-.078-.06l-.015-.019-.01-.013-.007-.01c-.011-.012-.022-.025-.03-.04-.005-.007-.007-.014-.01-.022l-.007-.016-.006-.014a.28.28 0 01-.017-.044c-.005-.016-.006-.033-.007-.049l-.002-.018a.16.16 0 00-.002-.016c-.002-.007-.003-.014-.003-.022v-.002c0-.047.012-.093.028-.136l.014-.032a.394.394 0 01.072-.106l.002-.002c0-.002.002-.003.003-.004a.407.407 0 01.086-.065l8.125-4.51a.265.265 0 01.054-.021l.012-.004a.394.394 0 01.326.028c.104.06.166.16.188.268l.002.012c.005.02.009.038.01.059z" fill="#737ADE"/><g filter="url(#filter0_d)"><rect x="16.762" y="30.58" width="75.977" height="49.456" rx="7.84" fill="#A78AFF"/></g><path d="M65.813 54.987a7.84 7.84 0 017.84-7.84h15.745a7.84 7.84 0 017.84 7.84v.321a7.84 7.84 0 01-7.84 7.84H73.652a7.84 7.84 0 01-7.84-7.84v-.32z" fill="#D9CDFF"/><circle cx="73.836" cy="55.247" r="3.92" fill="#EDE8FF"/><path fill-rule="evenodd" clip-rule="evenodd" d="M51.775 63.148c-4.41 0-8-3.589-8-8 0-4.412 3.59-8 8-8 4.412 0 8 3.588 8 8 0 4.411-3.588 8-8 8zm-.165-4.895a.664.664 0 01-.917.082l-3.334-2.667a.667.667 0 01.832-1.04l2.836 2.267 4.247-4.853a.667.667 0 111.003.878l-4.667 5.333z" fill="#fff"/><defs><filter id="filter0_d" x=".762" y="10.66" width="107.977" height="81.456" filterUnits="userSpaceOnUse" color-interpolation-filters="sRGB"><feFlood flood-opacity="0" result="BackgroundImageFix"/><feColorMatrix in="SourceAlpha" values="0 0 0 0 0 0 0 0 0 0 0 0 0 0 0 0 0 0 127 0"/><feOffset dy="-3.92"/><feGaussianBlur stdDeviation="8"/><feColorMatrix values="0 0 0 0 0.452671 0 0 0 0 0.442396 0 0 0 0 0.570833 0 0 0 0.24 0"/><feBlend in2="BackgroundImageFix" result="effect1_dropShadow"/><feBlend in="SourceGraphic" in2="effect1_dropShadow" result="shape"/></filter></defs></svg>