<svg width="337" height="261" viewBox="0 0 337 261" fill="none" xmlns="http://www.w3.org/2000/svg">
<g clip-path="url(#clip0_9430_60204)">
<path d="M255.27 62.618C269.78 66.5059 284.697 57.8877 288.587 43.3686C292.478 28.8495 283.869 13.9277 269.359 10.0397C254.849 6.1518 239.932 14.77 236.042 29.2891C232.151 43.8082 240.76 58.73 255.27 62.618Z" fill="#A6ABE8"/>
<path d="M266.129 22.0879L263.308 32.6157L271.728 39.1334L266.129 22.0879Z" fill="#F5F4FE"/>
<path d="M266.128 22.0879L252.755 34.0498L263.307 32.6157L266.128 22.0879Z" fill="#F5F4FE"/>
<path d="M260.415 43.4144L258.498 50.5679L271.291 40.7923L260.415 43.4144Z" fill="#F5F4FE"/>
<path d="M258.497 50.5678L260.414 43.4132L252.312 35.707L258.497 50.5678Z" fill="#F5F4FE"/>
<path d="M260.858 41.7585L271.728 39.1335L263.308 32.6182L260.858 41.7585Z" fill="#F5F4FE"/>
<path d="M252.756 34.0499L260.858 41.7584L263.307 32.6181L252.756 34.0499Z" fill="#F5F4FE"/>
</g>
<g clip-path="url(#clip1_9430_60204)">
<path d="M316.192 84.2412C323.992 84.2412 330.315 77.9139 330.315 70.1089C330.315 62.3038 323.992 55.9766 316.192 55.9766C308.393 55.9766 302.07 62.3038 302.07 70.1089C302.07 77.9139 308.393 84.2412 316.192 84.2412Z" fill="#A6ABE8"/>
<path d="M318.937 67.4243C318.968 67.3739 318.996 67.3069 319.025 67.2495C319.674 66.0991 320.016 64.8006 320.017 63.4795C319.102 62.9514 318.136 62.6184 317.086 62.5029C317.475 64.201 318.025 65.8455 318.822 67.3949L318.937 67.4243ZM313.692 67.134L313.663 67.1276L313.44 67.0766V67.0728H313.437L313.638 66.197C313.786 66.2289 313.935 66.2639 314.083 66.3003H314.086C314.627 65.0781 315.049 63.8064 315.346 62.5029C313.977 62.6542 312.675 63.1733 311.577 64.0052V64.0077C310.655 64.706 309.904 65.6039 309.378 66.6341C308.853 67.6644 308.567 68.8003 308.543 69.9567V70.1098C309.359 70.5794 310.255 70.8963 311.184 71.0449L311.189 71.0405C312.165 69.8346 313.005 68.5247 313.694 67.1347H313.692V67.134ZM318.481 68.4257C318.648 68.5151 318.711 68.6426 318.79 68.8927C318.901 69.2703 318.826 69.6677 318.748 70.0409L319.673 70.2559L319.902 69.2588C320.836 70.6973 321.872 72.1829 323.129 73.349C322.901 73.8676 322.76 74.0488 322.424 74.5042C320.365 73.8702 318.172 73.534 316.017 73.555L316.202 72.8183L315.587 72.6747C315.492 72.6505 315.394 72.6078 315.337 72.5236C315.265 72.4279 315.265 72.3016 315.289 72.1887L315.673 70.5161C315.872 70.564 316.08 70.5952 316.266 70.6839C316.353 70.7189 316.431 70.7739 316.493 70.8445C316.555 70.9151 316.599 70.9993 316.622 71.0902C316.673 71.3441 316.565 71.5878 316.522 71.8321L317.349 72.0235L318.039 69.033L317.969 69.0094L317.914 68.9992C318.106 68.7983 318.273 68.6197 318.445 68.4015L318.481 68.4257H318.481ZM311.209 71.2369L311.228 71.2095C311.389 71.2452 311.513 71.2318 311.677 71.2491C312.266 71.3014 312.837 71.3128 313.422 71.2299C313.467 71.2235 313.513 71.2191 313.558 71.2172L313.422 71.739C313.398 71.8423 313.353 71.9495 313.264 72.0145C313.221 72.0436 313.171 72.0633 313.119 72.0723C313.068 72.0813 313.015 72.0794 312.964 72.0668C312.753 72.0241 312.543 71.9667 312.33 71.9259C312.266 72.2174 312.196 72.5095 312.129 72.7991L313.542 73.1264C313.484 73.3898 313.47 73.4613 313.41 73.7222C312.235 73.8835 311.073 74.1371 309.937 74.4806C309.602 74.0258 309.459 73.9161 309.235 73.3968C309.95 72.7334 310.594 71.9954 311.209 71.2369V71.2369ZM314.488 73.3445L315.055 73.4759L315.036 73.5882L314.431 73.6316L314.488 73.3445ZM313.444 71.0615C313.488 71.0554 313.532 71.0516 313.576 71.05V71.0475L314.305 67.8899C314.334 67.7464 314.391 67.6029 314.346 67.4593C314.329 67.4079 314.3 67.3611 314.261 67.3228C314.223 67.2844 314.176 67.2554 314.124 67.238L314.101 67.2303C313.98 67.1978 314.073 67.2208 313.95 67.1921C313.936 67.1889 313.875 67.2093 313.861 67.2067C313.18 68.5806 312.348 69.8743 311.38 71.0641C311.54 71.0979 311.514 71.0883 311.674 71.1049C312.264 71.1591 312.857 71.1444 313.443 71.0622L313.444 71.0615Z" fill="#F5F4FE"/>
<path d="M315.064 66.5239V66.5265C315.176 66.0525 315.282 65.5766 315.396 65.1033L316.338 65.3202L316.011 66.744L316.575 66.8754C316.631 66.6387 316.687 66.4014 316.741 66.1641L316.823 65.8082L316.905 65.4522L317.847 65.6672C317.834 65.731 317.82 65.7948 317.806 65.8586C317.715 66.2713 317.613 66.6802 317.522 67.0942L318.606 67.3468C317.81 65.7967 317.283 64.1765 316.895 62.4784C316.651 62.4497 316.549 62.4593 316.302 62.4548H316.152C315.881 62.4548 315.781 62.4478 315.516 62.4784C315.218 63.7816 314.866 65.1486 314.324 66.3708L315.064 66.5239V66.5239ZM316.314 67.7416L316.343 67.748L316.346 67.7416H316.314Z" fill="white"/>
<path d="M316.316 67.7417L315.879 69.6388C316.151 69.6988 316.434 69.7983 316.713 69.7198C316.803 69.6916 316.884 69.6416 316.95 69.5744C317.016 69.5072 317.064 69.4249 317.091 69.3345C317.143 69.1668 317.169 68.9946 317.215 68.8274L317.677 68.9448C317.697 68.948 317.674 68.9601 317.687 68.9467L317.698 68.9378C317.89 68.7324 318.106 68.5072 318.278 68.2897C317.996 68.1484 317.695 68.0477 317.385 67.9905L316.316 67.7417V67.7417ZM323.182 66.996C322.522 65.52 321.582 64.4088 320.184 63.5986C320.182 64.9203 319.865 66.0998 319.216 67.2512C319.177 67.3232 319.141 67.3971 319.108 67.4725C319.546 67.5682 319.818 67.6269 320.256 67.7252V67.7296L319.974 68.9971C320.906 70.4349 321.946 72.0182 323.201 73.1855C323.601 72.272 323.819 71.289 323.841 70.2914V69.9323C323.817 68.9194 323.593 67.9213 323.182 66.9954V66.996ZM308.543 70.2774V70.3877C308.558 71.4077 308.776 72.2465 309.184 73.1817C309.86 72.5569 310.489 71.882 311.065 71.1627C310.137 71.0148 309.356 70.7494 308.543 70.2774ZM315.991 73.722L315.671 75.1189H315.669L314.722 74.9021L314.985 73.7558L314.383 73.7985L314.16 74.77H314.159L313.212 74.5525C313.26 74.3369 313.307 74.1264 313.36 73.914C312.232 74.0671 311.119 74.3127 310.033 74.6482C310.731 75.5962 311.638 76.3705 312.683 76.9111C313.728 77.4516 314.884 77.7438 316.061 77.7649H316.374C317.542 77.7348 318.687 77.4384 319.723 76.8983C320.759 76.3582 321.658 75.5886 322.352 74.6482C320.292 74.0133 318.147 73.7009 315.991 73.722V73.722Z" fill="white"/>
</g>
<g clip-path="url(#clip2_9430_60204)">
<path d="M60.0549 76.5451C68.7047 74.2257 73.8379 65.3284 71.5202 56.6724C69.2025 48.0163 60.3116 42.8795 51.6618 45.1988C43.012 47.5182 37.8789 56.4155 40.1966 65.0715C42.5143 73.7276 51.4052 78.8644 60.0549 76.5451Z" fill="#A6ABE8"/>
<path d="M63.9292 62.5777L62.2227 65.6911C62.1856 65.7587 62.1347 65.8184 62.0733 65.8663C62.0119 65.9142 61.9412 65.9493 61.8657 65.9695L50.6308 68.9821C50.5771 68.9965 50.5206 68.9953 50.4681 68.9786C50.4156 68.962 50.3694 68.9306 50.3352 68.8884C50.301 68.8462 50.2803 68.795 50.2756 68.7411C50.2709 68.6871 50.2824 68.6328 50.3088 68.5848L52.0171 65.4709C52.0541 65.4034 52.1048 65.3439 52.1659 65.2961C52.2271 65.2483 52.2976 65.2131 52.3728 65.1928L63.6072 62.1804C63.6608 62.166 63.7173 62.1672 63.7698 62.1838C63.8223 62.2005 63.8685 62.2319 63.9028 62.274C63.9369 62.3162 63.9576 62.3674 63.9623 62.4214C63.967 62.4753 63.9555 62.5297 63.9292 62.5777ZM60.2231 58.2233C60.1572 58.1833 60.0834 58.1571 60.0063 58.1464C59.9291 58.1356 59.8504 58.1405 59.7749 58.1608L48.5399 61.1734C48.4863 61.1878 48.438 61.2171 48.4008 61.2578C48.3637 61.2985 48.3393 61.3487 48.3308 61.4024C48.3223 61.456 48.3299 61.5108 48.3528 61.5598C48.3757 61.6089 48.4128 61.6502 48.4596 61.6786L51.4948 63.5205C51.5606 63.5604 51.6342 63.5866 51.7111 63.5974C51.788 63.6082 51.8666 63.6034 51.9419 63.5833L63.1762 60.5709C63.2298 60.5566 63.2782 60.5272 63.3154 60.4866C63.3525 60.4459 63.3768 60.3956 63.3854 60.342C63.3939 60.2883 63.3863 60.2336 63.3634 60.1845C63.3405 60.1355 63.3034 60.0942 63.2566 60.0658L60.2231 58.2233ZM48.109 59.564L59.3439 56.5514C59.4195 56.5312 59.4901 56.496 59.5515 56.4481C59.613 56.4002 59.6638 56.3406 59.7009 56.2729L61.4074 53.1595C61.4337 53.1115 61.4453 53.0572 61.4406 53.0033C61.4359 52.9493 61.4151 52.8981 61.381 52.8559C61.3467 52.8137 61.3005 52.7824 61.2481 52.7657C61.1955 52.7491 61.139 52.7479 61.0854 52.7622L49.8511 55.7746C49.7758 55.795 49.7054 55.8301 49.6442 55.878C49.583 55.9258 49.5323 55.9853 49.4953 56.0528L47.7876 59.1665C47.7613 59.2145 47.7498 59.2687 47.7544 59.3226C47.7591 59.3765 47.7798 59.4277 47.8139 59.4699C47.848 59.5121 47.8941 59.5435 47.9465 59.5602C47.9989 59.5769 48.0554 59.5782 48.109 59.564Z" fill="#F5F4FE"/>
</g>
<path d="M293.963 180.942L291.975 184.524C291.9 184.658 291.771 184.753 291.62 184.783L287.585 185.59C287.175 185.672 287.022 186.178 287.317 186.473L290.113 189.271C290.224 189.382 290.279 189.536 290.264 189.692L289.855 193.784C289.815 194.184 290.221 194.477 290.588 194.314L294.234 192.693C294.384 192.626 294.557 192.633 294.701 192.713L298.214 194.666C298.599 194.881 299.061 194.55 298.982 194.116L298.183 189.715C298.152 189.547 298.206 189.374 298.327 189.252L301.105 186.473C301.4 186.178 301.247 185.672 300.837 185.59L296.83 184.788C296.664 184.755 296.524 184.643 296.455 184.488L294.899 180.984C294.723 180.589 294.173 180.565 293.963 180.942Z" fill="#E85FA9"/>
<path d="M21.6397 115.515L20.4629 117.635C20.3884 117.769 20.2587 117.864 20.1082 117.894L17.696 118.377C17.2865 118.459 17.1335 118.964 17.4287 119.259L19.0882 120.92C19.199 121.031 19.2543 121.186 19.2387 121.342L18.9921 123.809C18.9522 124.209 19.3584 124.502 19.7251 124.339L21.9105 123.367C22.0607 123.3 22.2336 123.308 22.3772 123.388L24.4291 124.529C24.815 124.743 25.2768 124.413 25.1979 123.978L24.723 121.365C24.6924 121.196 24.7464 121.023 24.8677 120.902L26.5087 119.259C26.8039 118.964 26.6509 118.459 26.2414 118.377L23.8574 117.9C23.6909 117.866 23.551 117.754 23.482 117.599L22.575 115.557C22.3998 115.162 21.8492 115.138 21.6397 115.515Z" fill="#E85FA9"/>
<ellipse cx="2.09217" cy="114.598" rx="2.09217" ry="2.09368" fill="#E2A500"/>
<ellipse cx="6.27558" cy="109.362" rx="1.04608" ry="1.04684" fill="#E85FA9"/>
<ellipse cx="18.307" cy="161.181" rx="4.70737" ry="4.71077" fill="#E2A500"/>
<ellipse cx="27.1986" cy="161.705" rx="2.09217" ry="2.09368" fill="#E85FA9"/>
<ellipse cx="307.547" cy="193.111" rx="2.09217" ry="2.09368" fill="#E2A500"/>
<ellipse cx="326.901" cy="181.072" rx="4.70737" ry="4.71077" fill="#E2A500"/>
<ellipse cx="313.825" cy="200.438" rx="1.04608" ry="1.04684" fill="#E85FA9"/>
<g clip-path="url(#clip3_9430_60204)">
<path d="M256.865 64.9939C272.602 69.2107 288.778 59.8715 292.995 44.1343C297.212 28.397 287.873 12.2211 272.135 8.0043C256.398 3.78752 240.222 13.1267 236.005 28.864C231.789 44.6012 241.128 60.7771 256.865 64.9939Z" fill="#5472E8"/>
<path d="M268.633 21.0635L265.575 32.4746L274.708 39.5409L268.633 21.0635Z" fill="#C1CCF8"/>
<path d="M268.633 21.0636L254.131 34.0275L265.575 32.4747L268.633 21.0636Z" fill="white"/>
<path d="M262.439 44.1798L260.362 51.9335L274.234 41.3395L262.439 44.1798Z" fill="#C1CCF8"/>
<path d="M260.362 51.9326L262.44 44.1777L253.65 35.8232L260.362 51.9326Z" fill="white"/>
<path d="M262.921 42.3847L274.709 39.5413L265.575 32.4775L262.921 42.3847Z" fill="#8BA1F6"/>
<path d="M254.131 34.0278L262.92 42.3849L265.574 32.4777L254.131 34.0278Z" fill="#C1CCF8"/>
</g>
<g clip-path="url(#clip4_9430_60204)">
<path d="M60.8076 78.3011C71.7436 75.3708 78.2336 64.1299 75.3033 53.1938C72.373 42.2577 61.1321 35.7678 50.196 38.6981C39.26 41.6284 32.77 52.8693 35.7003 63.8054C38.6306 74.7414 49.8715 81.2314 60.8076 78.3011Z" fill="black"/>
<path d="M65.7066 60.6548L63.549 64.5884C63.5021 64.6738 63.4378 64.7491 63.3601 64.8097C63.2825 64.8702 63.1931 64.9146 63.0976 64.9401L48.8931 68.7462C48.8253 68.7644 48.7539 68.7629 48.6875 68.7419C48.6211 68.7208 48.5627 68.6812 48.5195 68.6279C48.4762 68.5746 48.45 68.5099 48.4441 68.4417C48.4381 68.3736 48.4527 68.3049 48.486 68.2443L50.6459 64.3102C50.6926 64.2249 50.7567 64.1498 50.8341 64.0893C50.9114 64.0289 51.0005 63.9845 51.0957 63.9588L65.2994 60.1529C65.3672 60.1347 65.4386 60.1363 65.5051 60.1573C65.5714 60.1783 65.6298 60.2179 65.6731 60.2712C65.7163 60.3246 65.7425 60.3893 65.7484 60.4574C65.7544 60.5256 65.7398 60.5942 65.7066 60.6548ZM61.0209 55.1536C60.9376 55.103 60.8442 55.0699 60.7467 55.0563C60.6492 55.0427 60.5496 55.0489 60.4542 55.0746L46.2496 58.8807C46.1819 58.8988 46.1207 58.9359 46.0738 58.9873C46.0268 59.0387 45.996 59.1022 45.9852 59.17C45.9744 59.2378 45.9841 59.3069 46.013 59.3689C46.0419 59.4309 46.0889 59.483 46.1481 59.5189L49.9856 61.846C50.0687 61.8965 50.1618 61.9295 50.259 61.9432C50.3562 61.9568 50.4556 61.9508 50.5508 61.9254L64.7546 58.1195C64.8223 58.1014 64.8835 58.0643 64.9305 58.0129C64.9774 57.9615 65.0082 57.8981 65.0191 57.8302C65.0298 57.7625 65.0201 57.6933 64.9912 57.6313C64.9623 57.5693 64.9153 57.5172 64.8562 57.4813L61.0209 55.1536ZM45.7048 56.8473L59.9093 53.0412C60.0048 53.0157 60.0942 52.9713 60.1718 52.9107C60.2495 52.8502 60.3138 52.7749 60.3607 52.6894L62.5183 48.7559C62.5515 48.6953 62.5661 48.6266 62.5601 48.5585C62.5542 48.4903 62.528 48.4256 62.4848 48.3723C62.4415 48.319 62.3831 48.2794 62.3168 48.2584C62.2503 48.2374 62.1789 48.2358 62.1111 48.254L47.9074 52.0599C47.8122 52.0855 47.7231 52.13 47.6458 52.1904C47.5684 52.2509 47.5043 52.326 47.4575 52.4112L45.2985 56.3452C45.2652 56.4058 45.2506 56.4743 45.2565 56.5424C45.2624 56.6105 45.2885 56.6752 45.3317 56.7285C45.3748 56.7818 45.4331 56.8214 45.4994 56.8425C45.5657 56.8636 45.637 56.8653 45.7048 56.8473Z" fill="#66FFF6"/>
</g>
<g clip-path="url(#clip5_9430_60204)">
<path d="M323.498 82.9905C330.673 78.8484 333.131 69.6745 328.989 62.5001C324.846 55.3258 315.673 52.8676 308.498 57.0098C301.324 61.1519 298.866 70.3258 303.008 77.5001C307.15 84.6745 316.324 87.1327 323.498 82.9905Z" fill="#42C1CA"/>
<path d="M314.322 67.9905C313.965 66.7929 313.72 65.6722 313.684 64.8694C313.632 64.5063 313.702 63.5235 313.957 62.7537C314.382 61.4712 315.248 60.708 316.638 60.7594L316.631 60.9533L316.638 60.7594C317.348 60.7855 317.751 61.001 317.842 61.3705C317.91 61.6452 317.761 61.9828 317.612 62.043C317.422 62.1799 317.195 62.2569 316.918 62.2261C316.682 62.1946 316.459 62.0994 316.273 61.9508C315.936 61.6964 315.683 61.69 315.469 61.8496C315.313 61.9645 315.181 62.1826 315.161 62.2894L315.104 62.5559C315.057 62.758 315.03 62.9644 315.025 63.1719C315.013 63.8912 315.282 65.0408 316.043 67.3059L318.992 66.1343L319.471 67.3099L316.478 68.4988L316.774 69.2836L316.847 69.4803C316.885 69.5826 316.926 69.6937 316.968 69.8132L319.99 68.6128L320.458 69.7929L317.365 71.0216C317.844 72.6115 318.276 74.3622 318.312 75.1313C318.364 75.4954 318.294 76.4765 318.039 77.2469C317.614 78.5287 316.748 79.2927 315.358 79.2413C314.648 79.2152 314.245 78.9989 314.154 78.6294C314.085 78.3548 314.235 78.0179 314.384 77.9577C314.574 77.8208 314.801 77.7438 315.077 77.7739C315.291 77.798 315.507 77.8868 315.722 78.0498C316.059 78.3035 316.313 78.3106 316.527 78.151C316.682 78.0354 316.814 77.8174 316.834 77.7106C317.053 76.6775 316.78 75.087 315.645 71.7061L312.696 72.877L312.216 71.7014L315.209 70.5126L314.914 69.7281C314.847 69.5521 314.783 69.3753 314.72 69.1978L311.71 70.394L311.241 69.2143L314.322 67.9905V67.9905Z" fill="white"/>
</g>
<g opacity="0.8" filter="url(#filter0_f_9430_60204)">
<ellipse cx="165.051" cy="239" rx="70" ry="6" fill="#4F5277" fill-opacity="0.3"/>
</g>
<rect x="67" y="91.5664" width="186.798" height="121.433" rx="12.6732" fill="#3B3F70"/>
<path d="M201.392 152.16C201.392 141.333 210.169 132.556 220.996 132.556H245.085C255.912 132.556 264.689 141.333 264.689 152.16V152.16C264.689 162.987 255.912 171.764 245.085 171.764H220.996C210.169 171.764 201.392 162.987 201.392 152.16V152.16Z" fill="#0E0E34"/>
<ellipse cx="219.041" cy="152.13" rx="9.63738" ry="9.62471" fill="#6D71A5"/>
<path d="M190.269 140.177C189.676 138.536 189.093 136.889 188.522 135.236C188.464 135.047 188.47 134.843 188.54 134.658C188.974 133.574 189.426 132.489 189.886 131.383C189.936 131.297 189.953 131.196 189.935 131.098C189.917 131 189.865 130.912 189.787 130.848C188.329 129.377 186.921 127.881 185.455 126.428C184.645 125.622 183.576 125.319 182.468 125.167C181.047 125.018 179.611 125.105 178.219 125.423C178.134 125.436 178.047 125.431 177.964 125.408C177.882 125.386 177.804 125.347 177.737 125.293C175.867 123.222 174.017 121.133 172.157 119.04C172.117 118.983 172.088 118.92 172.07 118.853H151.216C150.333 119.868 149.454 120.887 148.564 121.896C147.616 122.98 146.639 124.021 145.712 125.116C145.606 125.254 145.461 125.357 145.295 125.412C145.13 125.468 144.951 125.473 144.782 125.427C143.712 125.257 142.631 125.159 141.547 125.134C140.36 125.082 139.19 125.427 138.225 126.114C137.612 126.615 137.036 127.159 136.5 127.74C136.135 128.102 135.807 128.445 135.464 128.803L133.557 130.78C133.448 130.862 133.372 130.98 133.343 131.112C133.314 131.245 133.334 131.383 133.4 131.503C133.845 132.515 134.268 133.537 134.662 134.575C134.752 134.827 134.761 135.101 134.687 135.359C134.14 136.967 133.553 138.569 133.002 140.181C132.899 140.462 132.875 140.765 132.933 141.059C134.053 145.349 135.194 149.632 136.325 153.918C136.956 156.3 137.583 158.689 138.214 161.068C138.763 163.157 139.317 165.244 139.873 167.331C139.975 167.693 140.085 168.087 140.198 168.459C140.606 169.937 141.259 171.338 142.131 172.604C142.342 172.897 142.565 173.172 142.798 173.436C143.4 174.101 144.066 174.706 144.786 175.243C145.151 175.521 145.515 175.785 145.906 176.045C145.96 176.081 146.015 176.118 146.066 176.157C146.113 176.191 146.162 176.222 146.212 176.251L147.062 176.83C147.138 176.88 147.219 176.938 147.302 176.989C149.629 178.564 151.96 180.138 154.294 181.709L156.96 183.516L157.277 183.729L157.58 183.928C157.606 183.949 157.634 183.968 157.664 183.982C158.441 184.495 159.228 184.987 160.027 185.468C160.378 185.703 160.778 185.858 161.197 185.921C161.616 185.983 162.044 185.952 162.449 185.829C162.724 185.741 162.988 185.62 163.233 185.468C163.306 185.421 163.386 185.374 163.459 185.323C164.281 184.805 165.098 184.285 165.91 183.762L166.191 183.581L166.311 183.502L166.366 183.469C167.135 182.974 167.901 182.464 168.66 181.955C168.711 181.926 168.758 181.89 168.806 181.857L169.003 181.727L169.108 181.655C170.222 180.905 171.333 180.153 172.442 179.399C174.346 178.105 176.248 176.805 178.15 175.499C180.735 173.728 182.3 171.26 183.099 168.271C183.799 165.635 184.502 162.999 185.207 160.363C185.327 159.904 185.451 159.445 185.571 158.986C187.147 153.049 188.727 147.11 190.313 141.171C190.408 140.844 190.393 140.495 190.269 140.177V140.177ZM170.4 165.705C169.783 166.2 169.141 166.659 168.521 167.15C166.559 168.688 164.603 170.23 162.653 171.777C161.818 172.438 161.453 172.46 160.629 171.816C158.04 169.8 155.456 167.777 152.879 165.748C152.226 165.235 152.259 164.783 153.003 164.393C155.516 163.077 158.003 161.689 160.724 160.807C161.016 160.713 161.311 160.641 161.646 160.547C162.117 160.699 162.609 160.84 163.105 161.013C165.658 161.921 168.018 163.243 170.4 164.494C170.965 164.808 170.961 165.264 170.4 165.716V165.705ZM182.851 143.43C180.502 145.862 178.168 148.313 175.823 150.752C175.454 151.082 175.205 151.523 175.114 152.007C175.023 152.491 175.095 152.991 175.319 153.431C175.64 154.165 175.911 154.92 176.133 155.689C176.308 156.28 176.349 156.901 176.251 157.509C176.154 158.116 175.922 158.695 175.571 159.203C174.842 160.287 174.017 161.248 172.777 161.787C172.304 162.002 171.764 162.024 171.275 161.848C168.079 160.793 165.218 158.923 162.981 156.427C162.095 155.422 162.091 154.93 163.178 154.121C164.422 153.192 165.757 152.39 167.048 151.529C167.777 151.038 168.507 150.561 169.236 150.044C169.966 149.527 170.082 149.133 169.71 148.345C169.189 147.239 168.539 146.177 167.996 145.092C167.613 144.341 167.282 143.565 167.008 142.768C166.872 142.434 166.86 142.064 166.973 141.722C167.087 141.38 167.318 141.089 167.628 140.9C168.414 140.394 169.247 139.963 170.115 139.613C172.256 138.764 174.426 137.987 176.578 137.181C176.735 137.119 176.88 137.04 177.034 136.964V136.79C176.669 136.732 176.275 136.646 175.892 136.613C174.484 136.498 173.076 136.404 171.672 136.295C170.162 136.176 168.755 136.657 167.354 137.054C166.716 137.228 166.081 137.416 165.465 137.64C164.736 137.911 164.491 138.334 164.633 139.085C164.951 140.791 165.286 142.49 165.593 144.196C165.836 145.613 166.067 147.044 166.286 148.49C166.421 149.357 166.176 149.701 165.312 149.896C164.293 150.176 163.256 150.388 162.208 150.532C161.374 150.55 160.54 150.471 159.724 150.297C159.072 150.199 158.433 150.026 157.792 149.87C157.15 149.715 156.872 149.433 156.949 148.786C157.091 147.503 157.281 146.224 157.507 144.951C157.85 143.047 158.258 141.156 158.601 139.252C158.736 138.471 158.776 137.914 157.638 137.596C156.083 137.095 154.5 136.682 152.897 136.36C151.756 136.176 150.552 136.36 149.378 136.414C148.586 136.458 147.798 136.566 147.011 136.653C146.752 136.685 146.5 136.751 146.245 136.794C146.241 136.836 146.231 136.877 146.216 136.917C146.406 137.029 146.605 137.127 146.81 137.21C149.082 138.07 151.369 138.905 153.637 139.779C154.254 140.015 154.844 140.315 155.395 140.676C156.314 141.272 156.599 141.999 156.205 143.014C155.811 144.03 155.22 145.085 154.702 146.112C154.338 146.802 153.94 147.46 153.608 148.161C153.244 149.025 153.306 149.545 154.039 150.029C155.184 150.792 156.344 151.533 157.485 152.303C158.375 152.896 159.247 153.514 160.126 154.11C160.196 154.162 160.262 154.22 160.323 154.284C161.052 154.974 161.107 155.415 160.432 156.159C159.719 156.954 158.959 157.705 158.156 158.411C156.387 159.972 154.283 160.97 152.087 161.801C151.794 161.918 151.477 161.967 151.162 161.946C150.846 161.925 150.539 161.833 150.264 161.678C149.463 161.275 148.76 160.705 148.201 160.008C147.643 159.311 147.243 158.502 147.029 157.638C146.737 156.43 147.146 155.277 147.602 154.157C147.722 153.864 147.842 153.564 147.966 153.272C148.157 152.898 148.224 152.475 148.158 152.062C148.093 151.649 147.898 151.267 147.602 150.969C146.449 149.719 145.278 148.49 144.111 147.261C142.842 145.924 141.566 144.598 140.282 143.285C139.831 142.809 139.539 142.207 139.444 141.561C139.349 140.915 139.455 140.255 139.749 139.671C140.87 137.718 142.135 135.85 143.535 134.083C144.542 132.76 145.607 131.474 146.62 130.154C146.718 130.007 146.862 129.895 147.03 129.837C147.199 129.779 147.381 129.778 147.55 129.833C149.655 130.22 151.756 130.639 153.878 130.917C154.608 131.007 155.439 130.74 156.194 130.534C157.288 130.23 158.382 129.833 159.451 129.479C161.176 128.915 162.861 129.117 164.557 129.688C165.832 130.159 167.135 130.552 168.459 130.863C169.257 130.96 170.066 130.915 170.848 130.729C172.559 130.462 174.254 130.126 175.954 129.836C176.047 129.822 176.143 129.827 176.234 129.852C176.326 129.877 176.41 129.921 176.483 129.981C178.824 132.872 181.177 135.764 183.113 138.923C183.226 139.111 183.321 139.309 183.438 139.497C184.273 140.878 183.835 142.392 182.851 143.43Z" fill="#0E0E34"/>
<path d="M170.4 165.715C169.784 166.21 169.142 166.669 168.522 167.161C166.56 168.698 164.604 170.24 162.654 171.787C161.818 172.449 161.454 172.47 160.629 171.827C158.04 169.81 155.452 167.787 152.865 165.759C152.212 165.245 152.245 164.794 152.989 164.403C155.502 163.088 157.989 161.7 160.71 160.818C161.001 160.724 161.297 160.652 161.632 160.558C162.103 160.709 162.595 160.85 163.091 161.024C165.644 161.931 168.004 163.254 170.385 164.504C170.965 164.808 170.962 165.263 170.4 165.715Z" fill="white"/>
<path d="M175.841 150.736C175.473 151.066 175.224 151.507 175.133 151.991C175.042 152.475 175.114 152.975 175.338 153.414C175.658 154.149 175.93 154.904 176.151 155.673C176.326 156.263 176.367 156.885 176.27 157.493C176.173 158.1 175.94 158.679 175.59 159.186C174.86 160.271 174.036 161.232 172.796 161.771C172.322 161.985 171.783 162.007 171.293 161.832C168.097 160.777 165.237 158.907 163 156.411C162.114 155.406 162.11 154.914 163.197 154.105C164.44 153.176 165.775 152.373 167.066 151.513C167.796 151.022 168.525 150.545 169.255 150.028C169.984 149.511 170.101 149.117 169.729 148.329C169.207 147.223 168.558 146.16 168.015 145.076C167.631 144.325 167.301 143.549 167.026 142.752C166.894 142.419 166.884 142.051 166.997 141.712C167.11 141.373 167.34 141.083 167.646 140.894C168.432 140.388 169.265 139.957 170.133 139.608C172.274 138.758 174.444 137.981 176.596 137.175C176.753 137.114 176.899 137.034 177.052 136.958V136.785C176.687 136.727 176.293 136.64 175.91 136.608C174.503 136.492 173.095 136.398 171.691 136.29C170.181 136.17 168.773 136.651 167.373 137.049C166.734 137.222 166.1 137.41 165.483 137.634C164.754 137.905 164.51 138.328 164.652 139.08C164.969 140.786 165.305 142.485 165.611 144.191C165.854 145.607 166.085 147.039 166.304 148.484C166.439 149.352 166.195 149.695 165.33 149.89C164.311 150.171 163.274 150.383 162.227 150.526C161.392 150.544 160.559 150.466 159.743 150.292C159.09 150.194 158.452 150.02 157.81 149.865C157.168 149.71 156.891 149.428 156.967 148.781C157.11 147.498 157.299 146.218 157.525 144.946C157.868 143.041 158.277 141.151 158.62 139.246C158.755 138.466 158.795 137.909 157.657 137.591C156.102 137.089 154.519 136.677 152.916 136.355C151.774 136.17 150.57 136.355 149.396 136.409C148.605 136.452 147.817 136.561 147.029 136.648C146.77 136.68 146.519 136.745 146.263 136.789C146.26 136.831 146.25 136.872 146.234 136.911C146.425 137.023 146.623 137.121 146.829 137.204C149.101 138.064 151.387 138.899 153.656 139.774C154.273 140.009 154.862 140.31 155.414 140.67C156.333 141.267 156.617 141.993 156.223 143.009C155.83 144.024 155.239 145.08 154.721 146.106C154.356 146.797 153.959 147.454 153.627 148.155C153.262 149.019 153.324 149.54 154.057 150.024C155.202 150.787 156.362 151.528 157.504 152.297C158.393 152.89 159.265 153.508 160.144 154.105C160.215 154.156 160.281 154.215 160.341 154.278C161.07 154.968 161.125 155.409 160.45 156.154C159.737 156.948 158.977 157.7 158.175 158.406C156.406 159.967 154.301 160.965 152.106 161.796C151.812 161.912 151.496 161.962 151.18 161.94C150.864 161.919 150.558 161.828 150.282 161.673C149.478 161.272 148.771 160.703 148.21 160.005C147.648 159.308 147.245 158.498 147.029 157.632C146.737 156.425 147.146 155.272 147.602 154.152C147.722 153.859 147.842 153.559 147.966 153.266C148.157 152.893 148.224 152.47 148.159 152.057C148.093 151.644 147.898 151.261 147.602 150.964C146.449 149.713 145.279 148.484 144.111 147.256C142.842 145.918 141.566 144.593 140.282 143.28C139.832 142.803 139.539 142.201 139.444 141.555C139.349 140.909 139.455 140.25 139.75 139.666C140.87 137.712 142.135 135.845 143.535 134.078C144.542 132.755 145.607 131.468 146.621 130.149C146.718 130.002 146.863 129.89 147.031 129.832C147.199 129.774 147.382 129.772 147.551 129.827C149.655 130.214 151.756 130.633 153.878 130.912C154.608 131.002 155.439 130.735 156.194 130.529C157.288 130.225 158.383 129.827 159.451 129.473C161.176 128.909 162.861 129.112 164.557 129.683C165.832 130.154 167.135 130.546 168.459 130.857C169.257 130.955 170.066 130.909 170.848 130.724C172.559 130.456 174.255 130.12 175.954 129.831C176.048 129.816 176.143 129.821 176.235 129.846C176.326 129.871 176.411 129.915 176.483 129.976C178.824 132.867 181.177 135.758 183.113 138.917C183.227 139.105 183.321 139.304 183.438 139.492C184.313 140.916 183.876 142.43 182.891 143.468C180.502 145.846 178.168 148.296 175.841 150.736Z" fill="white"/>
<path d="M190.117 32.3866L133.768 42.4561C128.889 43.328 125.832 48.2258 127.193 52.9918L138.249 91.7166H212.521L199.724 38.6625C198.686 34.3584 194.475 31.6077 190.117 32.3866Z" fill="#6D71A5"/>
<path d="M116.531 77.8965L125.173 91.6702H204.675L183.965 50.2197C182.058 46.4036 177.586 44.6324 173.584 46.1081L120.724 65.5966C115.738 67.435 113.706 73.395 116.531 77.8965Z" fill="#ACACCE"/>
<defs>
<filter id="filter0_f_9430_60204" x="79.0508" y="217" width="172" height="44" filterUnits="userSpaceOnUse" color-interpolation-filters="sRGB">
<feFlood flood-opacity="0" result="BackgroundImageFix"/>
<feBlend mode="normal" in="SourceGraphic" in2="BackgroundImageFix" result="shape"/>
<feGaussianBlur stdDeviation="8" result="effect1_foregroundBlur_9430_60204"/>
</filter>
<clipPath id="clip0_9430_60204">
<rect width="54.3989" height="54.433" fill="white" transform="translate(243.086 3) rotate(15)"/>
</clipPath>
<clipPath id="clip1_9430_60204">
<rect width="28.2442" height="28.2646" fill="white" transform="translate(302.07 55.9766)"/>
</clipPath>
<clipPath id="clip2_9430_60204">
<rect width="32.4301" height="32.4504" fill="white" transform="matrix(0.965879 -0.258993 0.258645 0.965972 36 49.3984)"/>
</clipPath>
<clipPath id="clip3_9430_60204">
<rect width="59" height="59" fill="white" transform="translate(243.641 0.369141) rotate(15)"/>
</clipPath>
<clipPath id="clip4_9430_60204">
<rect width="41" height="41" fill="white" transform="translate(30.3945 44.0039) rotate(-15)"/>
</clipPath>
<clipPath id="clip5_9430_60204">
<rect width="30" height="30" fill="white" transform="translate(295.508 64.5098) rotate(-30)"/>
</clipPath>
</defs>
</svg>
