<svg width="24" height="24" viewBox="0 0 24 24" fill="none" xmlns="http://www.w3.org/2000/svg">
<path fill-rule="evenodd" clip-rule="evenodd" d="M2.03382 20.4649L7.93304 16.9993L12 9.87187V2.99988C11.8927 2.99988 11.7855 3.0714 11.7041 3.21366L6.88662 11.6564L2.06958 20.0992C1.98839 20.2417 1.98068 20.3709 2.03382 20.4649Z" fill="#909094"/>
<path fill-rule="evenodd" clip-rule="evenodd" d="M12 3V9.87199L16.0668 16.9994L21.966 20.465C22.0193 20.371 22.0116 20.2418 21.9304 20.0993L17.1132 11.6566L12.2957 3.21378C12.2143 3.07133 12.1071 3 12 3Z" fill="#76767A"/>
<path fill-rule="evenodd" clip-rule="evenodd" d="M21.9661 20.4648L16.0669 16.9993H7.93315L2.03394 20.4648C2.08708 20.5592 2.20146 20.6177 2.36424 20.6177H21.6356C21.7984 20.6177 21.9127 20.5592 21.9661 20.4648Z" fill="#46464A"/>
</svg>
