<!-- 
  Copyright (c) 2022 The Brave Authors. All rights reserved.
  This Source Code Form is subject to the terms of the Mozilla Public
  License, v. 2.0. If a copy of the MPL was not distributed with this file,
  you can obtain one at http://mozilla.org/MPL/2.0/.
-->
<svg width="1332" height="367" viewBox="0 0 1332 367" fill="none" xmlns="http://www.w3.org/2000/svg">
  <path d="M916.919 346.234L932.793 362.266L938.578 340.385L916.919 346.234ZM930.803 354.81L924.498 348.303L933.175 345.818L930.803 354.81Z" fill="#AEB1C2" fill-opacity="0.4"/>
  <path d="M1174.52 324.141L1172.06 303.333L1155.33 315.996L1174.52 324.141ZM1169.24 309.943L1170.15 318.31L1162.37 315.182L1169.24 309.943Z" fill="#A573F4" fill-opacity="0.4"/>
  <path d="M1057.36 339.734L1041.33 355.602L1063.21 361.385L1057.36 339.734ZM1048.79 353.613L1055.3 347.31L1057.78 355.984L1048.79 353.613Z" fill="#AEB1C2" fill-opacity="0.4"/>
  <path d="M274.107 334.028L275.716 347.593L286.625 339.338L274.107 334.028ZM277.553 343.284L276.962 337.83L282.031 339.869L277.553 343.284Z" fill="#FF7654" fill-opacity="0.4"/>
  <path d="M210.56 307.406L212.598 324.588L226.416 314.132L210.56 307.406ZM214.925 319.13L214.176 312.221L220.597 314.804L214.925 319.13Z" fill="#A573F4" fill-opacity="0.4"/>
  <path d="M1319.74 89.1602L1331.11 69.688H1308.47L1319.74 89.1602ZM1324.36 73.506L1319.74 81.281L1315.11 73.5407L1324.36 73.506Z" fill="#FF5000" fill-opacity="0.4"/>
  <path d="M1218.35 38.4316L1247.08 10.3453L1208 -0.000156403L1218.35 38.4316ZM1233.69 13.8484L1222.04 25.0133L1217.58 9.64876L1233.69 13.8484Z" fill="#DADCE8" fill-opacity="0.4"/>
  <path d="M10.3504 54.4316L39.0832 26.3453L7.11167e-06 15.9998L10.3504 54.4316ZM25.6897 29.8484L14.0352 41.0133L9.5845 25.6488L25.6897 29.8484Z" fill="#DADCE8" fill-opacity="0.4"/>
  <path d="M1260.09 198.904C1254.96 198.904 1249.95 197.382 1245.69 194.534C1241.43 191.684 1238.11 187.634 1236.15 182.896C1234.19 178.157 1233.68 172.943 1234.68 167.913C1235.68 162.883 1238.15 158.263 1241.77 154.637C1245.4 151.013 1250.01 148.544 1255.04 147.544C1260.06 146.545 1265.27 147.06 1270.01 149.025C1274.74 150.988 1278.78 154.313 1281.63 158.579C1284.47 162.845 1285.99 167.858 1285.99 172.987C1285.98 179.86 1283.25 186.449 1278.39 191.307C1273.53 196.165 1266.95 198.898 1260.09 198.904ZM1260.09 200.234C1265.47 200.234 1270.74 198.635 1275.22 195.64C1279.69 192.643 1283.19 188.386 1285.24 183.405C1287.31 178.423 1287.84 172.941 1286.79 167.654C1285.74 162.366 1283.15 157.509 1279.34 153.697C1275.53 149.886 1270.67 147.289 1265.39 146.239C1260.11 145.189 1254.63 145.731 1249.66 147.795C1244.68 149.86 1240.43 153.355 1237.44 157.84C1234.45 162.324 1232.85 167.596 1232.85 172.987C1232.85 176.566 1233.56 180.111 1234.93 183.418C1236.3 186.723 1238.3 189.728 1240.83 192.258C1243.36 194.788 1246.36 196.795 1249.67 198.163C1252.97 199.532 1256.51 200.236 1260.09 200.234Z" fill="#E7EBEE" fill-opacity="0.4"/>
  <path d="M76.1817 230.195L81.6105 244.989L91.6882 232.79L76.1817 230.195ZM82.5578 239.653L80.4267 233.701L86.6545 234.655L82.5578 239.653Z" fill="#FF5000" fill-opacity="0.4"/>
  <path d="M510.405 362.889L508.167 344.022L493 355.503L510.405 362.889ZM505.614 350.016L506.436 357.602L499.387 354.765L505.614 350.016Z" fill="#A573F4" fill-opacity="0.4"/>
  <path d="M130.83 142.83L129.181 156.733L118 148.273L130.83 142.83ZM127.298 152.317L127.904 146.726L122.708 148.817L127.298 152.317Z" fill="#FF7654" fill-opacity="0.4"/>
</svg>
