<svg width="86" height="24" viewBox="0 0 86 24" fill="none" xmlns="http://www.w3.org/2000/svg">
<path d="M6.87209 6.47093C7.88663 5.93605 9.04651 5.6686 10.3488 5.6686C11.8663 5.6686 13.2384 6.0436 14.4651 6.7907C15.6919 7.53779 16.6657 8.60175 17.3808 9.97965C18.0959 11.3576 18.4535 12.9535 18.4535 14.7703C18.4535 16.5872 18.0959 18.1948 17.3808 19.593C16.6657 20.9913 15.6919 22.0756 14.4651 22.8459C13.2355 23.6163 11.8634 24 10.3488 24C9.02326 24 7.86628 23.7384 6.87209 23.2151C5.87791 22.6919 5.0814 22.0145 4.48547 21.1802V23.7122H0V0H4.48547V8.55523C5.06105 7.70058 5.85756 7.00581 6.87209 6.47384V6.47093ZM13.218 12C12.7791 11.2209 12.2035 10.6279 11.4884 10.2209C10.7733 9.81395 9.9971 9.61337 9.1657 9.61337C8.33431 9.61337 7.59012 9.82268 6.875 10.2384C6.15989 10.6541 5.5814 11.2587 5.14535 12.0494C4.7064 12.8401 4.48837 13.7704 4.48837 14.8372C4.48837 15.9041 4.7064 16.8343 5.14535 17.625C5.58431 18.4157 6.15989 19.0174 6.875 19.436C7.59012 19.8517 8.35466 20.061 9.1657 20.061C9.97675 20.061 10.7733 19.8488 11.4884 19.4215C12.2035 18.9942 12.782 18.3866 13.218 17.5959C13.657 16.8052 13.875 15.8663 13.875 14.7762C13.875 13.686 13.657 12.7849 13.218 12.0058V12Z" fill="#1B1B1F"/>
<path d="M26.5465 6.50292C27.4768 5.96803 28.5378 5.70059 29.7355 5.70059V10.4099H28.5494C27.1395 10.4099 26.0756 10.7413 25.3605 11.4041C24.6454 12.0669 24.2878 13.2209 24.2878 14.8634V23.7064H19.8023V5.95641H24.2878V8.71222C24.8634 7.77327 25.6163 7.03489 26.5465 6.50001V6.50292Z" fill="#1B1B1F"/>
<path d="M31.3837 9.99709C32.0988 8.60756 33.0698 7.54069 34.2994 6.7936C35.5262 6.04651 36.9012 5.67151 38.4157 5.67151C39.7413 5.67151 40.8983 5.93895 41.8924 6.47383C42.8866 7.00872 43.6802 7.68023 44.2791 8.49128V5.9593H48.7965V23.7093H44.2791V21.1134C43.7035 21.9477 42.907 22.6366 41.8924 23.1802C40.8779 23.7238 39.7093 23.9971 38.3837 23.9971C36.8895 23.9971 35.5262 23.6134 34.2994 22.843C33.0698 22.0727 32.0988 20.9913 31.3837 19.5901C30.6686 18.1919 30.3111 16.5843 30.3111 14.7674C30.3111 12.9506 30.6686 11.3808 31.3837 9.99418V9.99709ZM43.6395 12.032C43.2122 11.2529 42.6366 10.6541 41.9099 10.2384C41.1831 9.82267 40.4041 9.61337 39.5698 9.61337C38.7355 9.61337 37.968 9.81686 37.2616 10.2209C36.5581 10.6279 35.9855 11.2209 35.5465 12C35.1076 12.7791 34.8895 13.7035 34.8895 14.7703C34.8895 15.8372 35.1076 16.7733 35.5465 17.5727C35.9855 18.375 36.561 18.9884 37.2762 19.4157C37.9913 19.843 38.7558 20.0552 39.5669 20.0552C40.3779 20.0552 41.1802 19.8459 41.907 19.4302C42.6337 19.0145 43.2093 18.4157 43.6366 17.6366C44.064 16.8576 44.2762 15.9215 44.2762 14.8343C44.2762 13.7471 44.061 12.811 43.6366 12.032H43.6395Z" fill="#1B1B1F"/>
<path d="M59.3081 19.5785L63.7936 5.95929H68.5669L61.9971 23.7093H56.5494L50.0116 5.95929H54.8169L59.3023 19.5785H59.3081Z" fill="#1B1B1F"/>
<path d="M85.5523 16.1802H72.5756C72.6831 17.4622 73.1308 18.4651 73.9215 19.1919C74.7122 19.9186 75.6831 20.282 76.8372 20.282C78.5029 20.282 79.689 19.5669 80.3953 18.1337H85.2326C84.7209 19.843 83.7384 21.2471 82.2849 22.3459C80.8314 23.4477 79.0494 23.9971 76.9331 23.9971C75.2238 23.9971 73.6919 23.6192 72.3343 22.8605C70.9767 22.1017 69.9215 21.0291 69.1628 19.6395C68.4041 18.25 68.0262 16.6483 68.0262 14.8343C68.0262 13.0203 68.3983 11.3837 69.1483 9.99709C69.8953 8.60756 70.9419 7.54069 72.2878 6.7936C73.6337 6.04651 75.1831 5.67151 76.9331 5.67151C78.6831 5.67151 80.1308 6.03488 81.468 6.76163C82.8023 7.48837 83.8401 8.52035 84.5756 9.85465C85.311 11.189 85.6802 12.7238 85.6802 14.4535C85.6802 15.093 85.6366 15.6715 85.5523 16.1831V16.1802ZM81.0349 13.1686C81.0145 12.0145 80.5959 11.0901 79.7849 10.3983C78.9738 9.70349 77.9796 9.35756 76.8052 9.35756C75.6948 9.35756 74.7587 9.69476 74.0029 10.3663C73.2442 11.0378 72.7791 11.9738 72.6105 13.1686H81.0378H81.0349Z" fill="#1B1B1F"/>
</svg>
