<svg width="40" height="40" viewBox="0 0 40 40" fill="none" xmlns="http://www.w3.org/2000/svg">
<path d="M20 40C31.0457 40 40 31.0457 40 20C40 8.9543 31.0457 0 20 0C8.9543 0 0 8.9543 0 20C0 31.0457 8.9543 40 20 40Z" fill="#F3BA2F"/>
<path d="M15.145 18.005L20 13.15L24.8575 18.0075L27.6825 15.1825L20 7.5L12.32 15.18L15.145 18.005ZM7.5 20L10.325 17.175L13.15 20L10.325 22.825L7.5 20ZM15.145 21.995L20 26.85L24.8575 21.9925L27.6825 24.8162L20 32.5L12.32 24.82L12.3162 24.8162L15.145 21.995ZM26.85 20L29.675 17.175L32.5 20L29.675 22.825L26.85 20ZM22.865 19.9975H22.8675V20L20 22.8675L17.1362 20.005L17.1313 20L17.1362 19.9963L17.6375 19.4938L17.8813 19.25L20 17.1325L22.8662 19.9987L22.865 19.9975Z" fill="white"/>
</svg>
