<?xml version="1.0" encoding="UTF-8"?>
<!--Generator: Apple Native CoreSVG 175.5-->
<!DOCTYPE svg
PUBLIC "-//W3C//DTD SVG 1.1//EN"
       "http://www.w3.org/Graphics/SVG/1.1/DTD/svg11.dtd">
<svg version="1.1" xmlns="http://www.w3.org/2000/svg" xmlns:xlink="http://www.w3.org/1999/xlink" width="3300" height="2200">
 <!--glyph: "", point size: 100.0, font version: "18.0d12e2", template writer version: "101"-->
 <g id="Notes">
  <rect height="2200" id="artboard" style="fill:white;opacity:1" width="3300" x="0" y="0"/>
  <line style="fill:none;stroke:black;opacity:1;stroke-width:0.5;" x1="263" x2="3036" y1="292" y2="292"/>
  <text style="stroke:none;fill:black;font-family:sans-serif;font-size:13;font-weight:bold;" transform="matrix(1 0 0 1 263 322)">Weight/Scale Variations</text>
  <text style="stroke:none;fill:black;font-family:sans-serif;font-size:13;text-anchor:middle;" transform="matrix(1 0 0 1 559.711 322)">Ultralight</text>
  <text style="stroke:none;fill:black;font-family:sans-serif;font-size:13;text-anchor:middle;" transform="matrix(1 0 0 1 856.422 322)">Thin</text>
  <text style="stroke:none;fill:black;font-family:sans-serif;font-size:13;text-anchor:middle;" transform="matrix(1 0 0 1 1153.13 322)">Light</text>
  <text style="stroke:none;fill:black;font-family:sans-serif;font-size:13;text-anchor:middle;" transform="matrix(1 0 0 1 1449.84 322)">Regular</text>
  <text style="stroke:none;fill:black;font-family:sans-serif;font-size:13;text-anchor:middle;" transform="matrix(1 0 0 1 1746.56 322)">Medium</text>
  <text style="stroke:none;fill:black;font-family:sans-serif;font-size:13;text-anchor:middle;" transform="matrix(1 0 0 1 2043.27 322)">Semibold</text>
  <text style="stroke:none;fill:black;font-family:sans-serif;font-size:13;text-anchor:middle;" transform="matrix(1 0 0 1 2339.98 322)">Bold</text>
  <text style="stroke:none;fill:black;font-family:sans-serif;font-size:13;text-anchor:middle;" transform="matrix(1 0 0 1 2636.69 322)">Heavy</text>
  <text style="stroke:none;fill:black;font-family:sans-serif;font-size:13;text-anchor:middle;" transform="matrix(1 0 0 1 2933.4 322)">Black</text>
  <line style="fill:none;stroke:black;opacity:1;stroke-width:0.5;" x1="263" x2="3036" y1="1903" y2="1903"/>
  <g transform="matrix(1 0 0 1 263 1933)">
   <path d="M9.24805 0.830078C13.5547 0.830078 17.1387-2.74414 17.1387-7.05078C17.1387-11.3574 13.5449-14.9316 9.23828-14.9316C4.94141-14.9316 1.36719-11.3574 1.36719-7.05078C1.36719-2.74414 4.95117 0.830078 9.24805 0.830078ZM9.24805-0.654297C5.70312-0.654297 2.87109-3.49609 2.87109-7.05078C2.87109-10.6055 5.69336-13.4473 9.23828-13.4473C12.793-13.4473 15.6445-10.6055 15.6445-7.05078C15.6445-3.49609 12.8027-0.654297 9.24805-0.654297ZM5.6543-7.05078C5.6543-6.62109 5.95703-6.32812 6.40625-6.32812L8.50586-6.32812L8.50586-4.20898C8.50586-3.76953 8.79883-3.4668 9.22852-3.4668C9.67773-3.4668 9.9707-3.76953 9.9707-4.20898L9.9707-6.32812L12.0898-6.32812C12.5293-6.32812 12.832-6.62109 12.832-7.05078C12.832-7.49023 12.5293-7.79297 12.0898-7.79297L9.9707-7.79297L9.9707-9.90234C9.9707-10.3516 9.67773-10.6543 9.22852-10.6543C8.79883-10.6543 8.50586-10.3516 8.50586-9.90234L8.50586-7.79297L6.40625-7.79297C5.95703-7.79297 5.6543-7.49023 5.6543-7.05078Z"/>
  </g>
  <g transform="matrix(1 0 0 1 281.867 1933)">
   <path d="M11.709 2.91016C17.1582 2.91016 21.6699-1.61133 21.6699-7.05078C21.6699-12.5 17.1484-17.0117 11.6992-17.0117C6.25977-17.0117 1.74805-12.5 1.74805-7.05078C1.74805-1.61133 6.26953 2.91016 11.709 2.91016ZM11.709 1.25C7.09961 1.25 3.41797-2.44141 3.41797-7.05078C3.41797-11.6602 7.08984-15.3516 11.6992-15.3516C16.3086-15.3516 20.0098-11.6602 20.0098-7.05078C20.0098-2.44141 16.3184 1.25 11.709 1.25ZM7.17773-7.05078C7.17773-6.57227 7.50977-6.25 8.00781-6.25L10.8789-6.25L10.8789-3.36914C10.8789-2.88086 11.2109-2.53906 11.6895-2.53906C12.1777-2.53906 12.5195-2.87109 12.5195-3.36914L12.5195-6.25L15.4004-6.25C15.8887-6.25 16.2305-6.57227 16.2305-7.05078C16.2305-7.53906 15.8887-7.88086 15.4004-7.88086L12.5195-7.88086L12.5195-10.752C12.5195-11.25 12.1777-11.5918 11.6895-11.5918C11.2109-11.5918 10.8789-11.25 10.8789-10.752L10.8789-7.88086L8.00781-7.88086C7.50977-7.88086 7.17773-7.53906 7.17773-7.05078Z"/>
  </g>
  <g transform="matrix(1 0 0 1 305.646 1933)">
   <path d="M14.9707 5.66406C21.9336 5.66406 27.6953-0.0976562 27.6953-7.05078C27.6953-14.0137 21.9238-19.7754 14.9609-19.7754C8.00781-19.7754 2.25586-14.0137 2.25586-7.05078C2.25586-0.0976562 8.01758 5.66406 14.9707 5.66406ZM14.9707 3.84766C8.93555 3.84766 4.08203-1.01562 4.08203-7.05078C4.08203-13.0957 8.92578-17.9492 14.9609-17.9492C21.0059-17.9492 25.8691-13.0957 25.8691-7.05078C25.8691-1.01562 21.0156 3.84766 14.9707 3.84766ZM9.19922-7.05078C9.19922-6.5332 9.57031-6.17188 10.1172-6.17188L14.0625-6.17188L14.0625-2.2168C14.0625-1.67969 14.4336-1.29883 14.9512-1.29883C15.4883-1.29883 15.8594-1.66992 15.8594-2.2168L15.8594-6.17188L19.8145-6.17188C20.3516-6.17188 20.7324-6.5332 20.7324-7.05078C20.7324-7.59766 20.3613-7.96875 19.8145-7.96875L15.8594-7.96875L15.8594-11.9141C15.8594-12.4609 15.4883-12.8418 14.9512-12.8418C14.4336-12.8418 14.0625-12.4609 14.0625-11.9141L14.0625-7.96875L10.1172-7.96875C9.57031-7.96875 9.19922-7.59766 9.19922-7.05078Z"/>
  </g>
  <text style="stroke:none;fill:black;font-family:sans-serif;font-size:13;font-weight:bold;" transform="matrix(1 0 0 1 263 1953)">Design Variations</text>
  <text style="stroke:none;fill:black;font-family:sans-serif;font-size:13;" transform="matrix(1 0 0 1 263 1971)">Symbols are supported in up to nine weights and three scales.</text>
  <text style="stroke:none;fill:black;font-family:sans-serif;font-size:13;" transform="matrix(1 0 0 1 263 1989)">For optimal layout with text and other symbols, vertically align</text>
  <text style="stroke:none;fill:black;font-family:sans-serif;font-size:13;" transform="matrix(1 0 0 1 263 2007)">symbols with the adjacent text.</text>
  <line style="fill:none;stroke:#00AEEF;stroke-width:0.5;opacity:1.0;" x1="776" x2="776" y1="1919" y2="1933"/>
  <g transform="matrix(1 0 0 1 776 1933)">
   <path d="M3.31055 0.15625C3.82812 0.15625 4.08203-0.0390625 4.26758-0.585938L5.52734-4.0332L11.2891-4.0332L12.5488-0.585938C12.7344-0.0390625 12.9883 0.15625 13.4961 0.15625C14.0137 0.15625 14.3457-0.15625 14.3457-0.644531C14.3457-0.810547 14.3164-0.966797 14.2383-1.17188L9.6582-13.3691C9.43359-13.9648 9.0332-14.2676 8.4082-14.2676C7.80273-14.2676 7.39258-13.9746 7.17773-13.3789L2.59766-1.16211C2.51953-0.957031 2.49023-0.800781 2.49023-0.634766C2.49023-0.146484 2.80273 0.15625 3.31055 0.15625ZM6.00586-5.51758L8.37891-12.0898L8.42773-12.0898L10.8008-5.51758Z"/>
  </g>
  <line style="fill:none;stroke:#00AEEF;stroke-width:0.5;opacity:1.0;" x1="793.197" x2="793.197" y1="1919" y2="1933"/>
  <text style="stroke:none;fill:black;font-family:sans-serif;font-size:13;font-weight:bold;" transform="matrix(1 0 0 1 776 1953)">Margins</text>
  <text style="stroke:none;fill:black;font-family:sans-serif;font-size:13;" transform="matrix(1 0 0 1 776 1971)">Leading and trailing margins on the left and right side of each symbol</text>
  <text style="stroke:none;fill:black;font-family:sans-serif;font-size:13;" transform="matrix(1 0 0 1 776 1989)">can be adjusted by modifying the x-location of the margin guidelines.</text>
  <text style="stroke:none;fill:black;font-family:sans-serif;font-size:13;" transform="matrix(1 0 0 1 776 2007)">Modifications are automatically applied proportionally to all</text>
  <text style="stroke:none;fill:black;font-family:sans-serif;font-size:13;" transform="matrix(1 0 0 1 776 2025)">scales and weights.</text>
  <g transform="matrix(1 0 0 1 1289 1933)">
   <path d="M2.8418 1.86523L4.54102 3.57422C5.40039 4.44336 6.38672 4.38477 7.31445 3.35938L18.0078-8.42773L17.041-9.4043L6.42578 2.27539C6.07422 2.67578 5.74219 2.77344 5.27344 2.30469L4.10156 1.14258C3.63281 0.683594 3.74023 0.341797 4.14062-0.0195312L15.6152-10.8203L14.6387-11.7871L3.04688-0.898438C2.06055 0.0195312 1.98242 0.996094 2.8418 1.86523ZM9.25781-16.3281C8.83789-15.918 8.80859-15.3418 9.04297-14.9512C9.27734-14.5898 9.73633-14.3555 10.3809-14.5215C11.8457-14.8633 13.3691-14.9219 14.7949-13.9844L14.209-12.5293C13.8672-11.6992 14.043-11.1133 14.5801-10.5664L16.875-8.25195C17.3633-7.76367 17.7734-7.74414 18.3398-7.8418L19.4043-8.03711L20.0684-7.36328L20.0293-6.80664C19.9902-6.30859 20.1172-5.92773 20.6055-5.44922L21.3672-4.70703C21.8457-4.22852 22.4609-4.19922 22.9297-4.66797L25.8398-7.58789C26.3086-8.05664 26.2891-8.65234 25.8105-9.13086L25.0391-9.89258C24.5605-10.3711 24.1895-10.5273 23.7109-10.4883L23.1348-10.4395L22.4902-11.0742L22.7344-12.1973C22.8613-12.7637 22.7051-13.2031 22.1191-13.7891L19.9219-15.9766C16.582-19.2969 12.1484-19.2188 9.25781-16.3281ZM10.752-15.957C13.1836-17.7344 16.4746-17.4316 18.7012-15.2051L21.1328-12.793C21.3672-12.5586 21.4062-12.373 21.3379-12.0312L21.0156-10.5469L22.5195-9.0625L23.5059-9.12109C23.7598-9.13086 23.8379-9.11133 24.0332-8.91602L24.6094-8.33984L22.168-5.89844L21.5918-6.47461C21.3965-6.66992 21.3672-6.74805 21.377-7.01172L21.4453-7.98828L19.9512-9.47266L18.4277-9.21875C18.1055-9.15039 17.959-9.17969 17.7148-9.41406L15.7129-11.416C15.459-11.6504 15.4297-11.8164 15.5859-12.1875L16.4648-14.2773C14.9023-15.7324 12.8711-16.3574 10.8398-15.7617C10.6836-15.7227 10.625-15.8496 10.752-15.957Z"/>
  </g>
  <text style="stroke:none;fill:black;font-family:sans-serif;font-size:13;font-weight:bold;" transform="matrix(1 0 0 1 1289 1953)">Exporting</text>
  <text style="stroke:none;fill:black;font-family:sans-serif;font-size:13;" transform="matrix(1 0 0 1 1289 1971)">Symbols should be outlined when exporting to ensure the</text>
  <text style="stroke:none;fill:black;font-family:sans-serif;font-size:13;" transform="matrix(1 0 0 1 1289 1989)">design is preserved when submitting to Xcode.</text>
  <text id="template-version" style="stroke:none;fill:black;font-family:sans-serif;font-size:13;text-anchor:end;" transform="matrix(1 0 0 1 3036 1933)">Template v.2.0</text>
  <text style="stroke:none;fill:black;font-family:sans-serif;font-size:13;text-anchor:end;" transform="matrix(1 0 0 1 3036 1951)">Requires Xcode 12 or greater</text>
  <text id="descriptive-name" style="stroke:none;fill:black;font-family:sans-serif;font-size:13;text-anchor:end;" transform="matrix(1 0 0 1 3036 1969)">Generated from brave.building.columns</text>
  <text style="stroke:none;fill:black;font-family:sans-serif;font-size:13;text-anchor:end;" transform="matrix(1 0 0 1 3036 1987)">Typeset at 100 points</text>
  <text style="stroke:none;fill:black;font-family:sans-serif;font-size:13;" transform="matrix(1 0 0 1 263 726)">Small</text>
  <text style="stroke:none;fill:black;font-family:sans-serif;font-size:13;" transform="matrix(1 0 0 1 263 1156)">Medium</text>
  <text style="stroke:none;fill:black;font-family:sans-serif;font-size:13;" transform="matrix(1 0 0 1 263 1586)">Large</text>
 </g>
 <g id="Guides">
  <g id="H-reference" style="fill:#27AAE1;stroke:none;" transform="matrix(1 0 0 1 339 696)">
   <path d="M0.993654 0L3.63775 0L29.3281-67.1323L30.0303-67.1323L30.0303-70.459L28.1226-70.459ZM11.6885-24.4799L46.9815-24.4799L46.2315-26.7285L12.4385-26.7285ZM55.1196 0L57.7637 0L30.6382-70.459L29.4326-70.459L29.4326-67.1323Z"/>
  </g>
  <line id="Baseline-S" style="fill:none;stroke:#27AAE1;opacity:1;stroke-width:0.5;" x1="263" x2="3036" y1="696" y2="696"/>
  <line id="Capline-S" style="fill:none;stroke:#27AAE1;opacity:1;stroke-width:0.5;" x1="263" x2="3036" y1="625.541" y2="625.541"/>
  <g id="H-reference" style="fill:#27AAE1;stroke:none;" transform="matrix(1 0 0 1 339 1126)">
   <path d="M0.993654 0L3.63775 0L29.3281-67.1323L30.0303-67.1323L30.0303-70.459L28.1226-70.459ZM11.6885-24.4799L46.9815-24.4799L46.2315-26.7285L12.4385-26.7285ZM55.1196 0L57.7637 0L30.6382-70.459L29.4326-70.459L29.4326-67.1323Z"/>
  </g>
  <line id="Baseline-M" style="fill:none;stroke:#27AAE1;opacity:1;stroke-width:0.5;" x1="263" x2="3036" y1="1126" y2="1126"/>
  <line id="Capline-M" style="fill:none;stroke:#27AAE1;opacity:1;stroke-width:0.5;" x1="263" x2="3036" y1="1055.54" y2="1055.54"/>
  <g id="H-reference" style="fill:#27AAE1;stroke:none;" transform="matrix(1 0 0 1 339 1556)">
   <path d="M0.993654 0L3.63775 0L29.3281-67.1323L30.0303-67.1323L30.0303-70.459L28.1226-70.459ZM11.6885-24.4799L46.9815-24.4799L46.2315-26.7285L12.4385-26.7285ZM55.1196 0L57.7637 0L30.6382-70.459L29.4326-70.459L29.4326-67.1323Z"/>
  </g>
  <line id="Baseline-L" style="fill:none;stroke:#27AAE1;opacity:1;stroke-width:0.5;" x1="263" x2="3036" y1="1556" y2="1556"/>
  <line id="Capline-L" style="fill:none;stroke:#27AAE1;opacity:1;stroke-width:0.5;" x1="263" x2="3036" y1="1485.54" y2="1485.54"/>
  <line id="left-margin" style="fill:none;stroke:#00AEEF;stroke-width:0.5;opacity:1.0;" x1="1386.39" x2="1386.39" y1="1030.79" y2="1150.12"/>
  <line id="right-margin" style="fill:none;stroke:#00AEEF;stroke-width:0.5;opacity:1.0;" x1="1513.3" x2="1513.3" y1="1030.79" y2="1150.12"/>
 </g>
 <g id="Symbols">
  <g id="Regular-L" transform="matrix(1 0 0 1 1371.39 1556)">
   <path d="M78.4611-58.6888C95.9246-58.6888 113.073-57.3263 129.806-54.7007C132.427-54.2894 134.359-52.0309 134.359-49.3784L134.359 17.0766L139.073 17.0766C142.048 17.0766 144.461 19.4888 144.461 22.4643C144.461 25.4399 142.048 27.852 139.073 27.852L17.8492 27.852C14.8736 27.852 12.4614 25.4399 12.4614 22.4643C12.4614 19.4888 14.8736 17.0766 17.8492 17.0766L22.5634 17.0766L22.5634-49.3784C22.5634-52.0309 24.495-54.2894 27.116-54.7007C43.8488-57.3263 60.9976-58.6888 78.4611-58.6888ZM78.4611-47.9132C63.1402-47.9132 48.0756-46.8301 33.3388-44.7362L33.3388 17.0766L47.8184 17.0766L47.8184-33.0973C47.8184-36.0728 50.2305-38.4849 53.2061-38.4849C56.1816-38.4849 58.5938-36.0728 58.5938-33.0973L58.5938 17.0766L73.0735 17.0766L73.0735-33.0973C73.0735-36.0728 75.4856-38.4849 78.4611-38.4849C81.4366-38.4849 83.8487-36.0728 83.8487-33.0973L83.8487 17.0766L98.3283 17.0766L98.3283-33.0973C98.3283-36.0728 100.74-38.4849 103.716-38.4849C106.692-38.4849 109.104-36.0728 109.104-33.0973L109.104 17.0766L123.583 17.0766L123.583-44.7362C108.847-46.8301 93.782-47.9132 78.4611-47.9132ZM81.4498-103.243L142.061-62.835C144.537-61.1844 145.206-57.8393 143.555-55.3635C141.905-52.8877 138.56-52.2186 136.084-53.8692L78.4611-92.2849L20.8378-53.8692C18.3619-52.2186 15.0169-52.8877 13.3663-55.3635C11.7158-57.8393 12.3848-61.1844 14.8606-62.835L75.4724-103.243C77.2821-104.45 79.6401-104.45 81.4498-103.243ZM78.5118-78.8929C81.4873-78.8929 83.8995-76.4807 83.8995-73.5052L83.8995-73.4546C83.8995-70.479 81.4873-68.0668 78.5118-68.0668L78.4611-68.0668C75.4856-68.0668 73.0735-70.479 73.0735-73.4546L73.0735-73.5052C73.0735-76.4807 75.4856-78.8929 78.4611-78.8929L78.5118-78.8929Z"/>
  </g>
  <g id="Regular-M" transform="matrix(1 0 0 1 1386.39 1126)">
   <path d="M63.4611-54.0059C76.9556-54.0059 90.2069-52.9531 103.137-50.9242C105.162-50.6064 106.655-48.8612 106.655-46.8115L106.655 4.54008L110.297 4.54008C112.597 4.54008 114.461 6.404 114.461 8.7033C114.461 11.0026 112.597 12.8665 110.297 12.8665L16.6246 12.8665C14.3253 12.8665 12.4613 11.0026 12.4613 8.7033C12.4613 6.404 14.3253 4.54008 16.6246 4.54008L20.2674 4.54008L20.2674-46.8115C20.2674-48.8612 21.76-50.6064 23.7853-50.9242C36.7152-52.9531 49.9666-54.0059 63.4611-54.0059ZM63.4611-45.6793C51.6222-45.6793 39.9814-44.8424 28.5938-43.2244L28.5938 4.54008L39.7826 4.54008L39.7826-34.2307C39.7826-36.5299 41.6465-38.3939 43.9458-38.3939C46.2451-38.3939 48.109-36.5299 48.109-34.2307L48.109 4.54008L59.2979 4.54008L59.2979-34.2307C59.2979-36.5299 61.1618-38.3939 63.4611-38.3939C65.7603-38.3939 67.6242-36.5299 67.6242-34.2307L67.6242 4.54008L78.813 4.54008L78.813-34.2307C78.813-36.5299 80.6769-38.3939 82.9762-38.3939C85.2755-38.3939 87.1394-36.5299 87.1394-34.2307L87.1394 4.54008L98.3282 4.54008L98.3282-43.2244C86.9407-44.8424 75.2999-45.6793 63.4611-45.6793ZM65.7705-88.4342L112.606-57.2098C114.52-55.9344 115.037-53.3495 113.761-51.4364C112.486-49.5232 109.901-49.0063 107.988-50.2817L63.4611-79.9666L18.9339-50.2817C17.0208-49.0063 14.436-49.5232 13.1606-51.4364C11.8851-53.3495 12.4021-55.9344 14.3152-57.2098L61.1516-88.4342C62.55-89.3666 64.3721-89.3666 65.7705-88.4342ZM63.5002-69.6182C65.7995-69.6182 67.6634-67.7542 67.6634-65.4549L67.6634-65.4159C67.6634-63.1166 65.7995-61.2526 63.5002-61.2526L63.4611-61.2526C61.1618-61.2526 59.2979-63.1166 59.2979-65.4159L59.2979-65.4549C59.2979-67.7542 61.1618-69.6182 63.4611-69.6182L63.5002-69.6182Z"/>
  </g>
  <g id="Regular-S" transform="matrix(1 0 0 1 1397.39 696)">
   <path d="M52.461-50.449C63.0449-50.449 73.4381-49.6232 83.5791-48.032C85.1677-47.7827 86.3382-46.4139 86.3382-44.8063L86.3382-4.53053L89.1955-4.53053C90.9988-4.53053 92.4607-3.06863 92.4607-1.26526C92.4607 0.53811 90.9988 2 89.1955 2L15.7265 2C13.9232 2 12.4612 0.53811 12.4612-1.26526C12.4612-3.06863 13.9232-4.53053 15.7265-4.53053L18.5836-4.53053L18.5836-44.8063C18.5836-46.4139 19.7543-47.7827 21.3428-48.032C31.4839-49.6232 41.8771-50.449 52.461-50.449ZM52.461-43.9183C43.1757-43.9183 34.0456-43.2619 25.1142-41.9928L25.1142-4.53053L33.8897-4.53053L33.8897-34.9389C33.8897-36.7423 35.3516-38.2042 37.1549-38.2042C38.9583-38.2042 40.4202-36.7423 40.4202-34.9389L40.4202-4.53053L49.1958-4.53053L49.1958-34.9389C49.1958-36.7423 50.6577-38.2042 52.461-38.2042C54.2644-38.2042 55.7263-36.7423 55.7263-34.9389L55.7263-4.53053L64.5018-4.53053L64.5018-34.9389C64.5018-36.7423 65.9637-38.2042 67.767-38.2042C69.5704-38.2042 71.0322-36.7423 71.0322-34.9389L71.0322-4.53053L79.8078-4.53053L79.8078-41.9928C70.8765-43.2619 61.7464-43.9183 52.461-43.9183ZM54.2724-77.4516L91.0064-52.9618C92.507-51.9615 92.9125-49.9341 91.9121-48.4336C90.9121-46.9331 88.8847-46.5277 87.3841-47.528L52.461-70.8103L17.5378-47.528C16.0373-46.5277 14.01-46.9331 13.0096-48.4336C12.0093-49.9341 12.4148-51.9615 13.9153-52.9618L50.6497-77.4516C51.7465-78.1828 53.1755-78.1828 54.2724-77.4516ZM52.4918-62.6939C54.2951-62.6939 55.757-61.2319 55.757-59.4286L55.757-59.3979C55.757-57.5946 54.2951-56.1326 52.4918-56.1326L52.461-56.1326C50.6577-56.1326 49.1958-57.5946 49.1958-59.3979L49.1958-59.4286C49.1958-61.2319 50.6577-62.6939 52.461-62.6939L52.4918-62.6939Z"/>
  </g>
 </g>
</svg>
