<svg width="14" height="14" viewBox="0 0 14 14" fill="none" xmlns="http://www.w3.org/2000/svg">
<path fill-rule="evenodd" clip-rule="evenodd" d="M6.98781 13.9887C6.76972 13.9887 6.56109 13.8996 6.4102 13.7422L0.410141 7.48093C0.104446 7.16193 0.115233 6.65551 0.434236 6.34982C0.753238 6.04412 1.25965 6.05491 1.56535 6.37391L6.18781 11.1976L6.18781 1.18867C6.18781 0.746844 6.54598 0.388672 6.98781 0.388672C7.42963 0.388672 7.78781 0.746844 7.78781 1.18867L7.78781 11.1976L12.4101 6.37392C12.7158 6.05491 13.2222 6.04412 13.5412 6.34981C13.8603 6.6555 13.871 7.16192 13.5654 7.48093L7.56542 13.7422C7.41453 13.8996 7.2059 13.9887 6.98781 13.9887Z" fill="#495057"/>
</svg>
