<svg width="12" height="12" viewBox="0 0 12 12" fill="none" xmlns="http://www.w3.org/2000/svg">
<path fill-rule="evenodd" clip-rule="evenodd" d="M5.39778 10.3794L5.39778 0.500059C5.39778 0.223917 5.65819 5.91278e-05 5.97942 5.91278e-05C6.30064 5.91278e-05 6.56105 0.223917 6.56105 0.500059L6.56105 10.3794L10.2051 6.98567C10.423 6.78276 10.7909 6.77011 11.027 6.95741C11.263 7.14471 11.2777 7.46103 11.0599 7.66395L6.6918 11.7319C6.30795 12.0894 5.65089 12.0894 5.26703 11.7319L0.898965 7.66395C0.681086 7.46103 0.695808 7.14471 0.931849 6.95741C1.16789 6.77011 1.53587 6.78276 1.75375 6.98567L5.39778 10.3794Z" fill="white"/>
</svg>
