<svg width="14" height="14" viewBox="0 0 14 14" fill="none" xmlns="http://www.w3.org/2000/svg">
<path d="M13.0866 2.56665C12.889 2.37998 12.6419 2.33331 12.3948 2.33331C12.1477 2.33331 11.9006 2.47331 11.7029 2.65998L5.52545 9.37998L2.26376 6.34665C1.86841 5.97331 1.22595 5.97331 0.880014 6.34665C0.682335 6.53331 0.583496 6.76665 0.583496 6.99998C0.583496 7.23331 0.682335 7.46665 0.880014 7.65331L4.883 11.3866C5.03126 11.5733 5.27836 11.6666 5.57487 11.6666H5.62429C5.92081 11.6666 6.16791 11.5266 6.31617 11.34L13.1855 3.87331C13.5314 3.49998 13.482 2.89331 13.0866 2.56665Z" fill="white"/>
</svg>
