<svg width="18" height="18" viewBox="0 0 18 18" fill="none" xmlns="http://www.w3.org/2000/svg">
<path fill-rule="evenodd" clip-rule="evenodd" d="M16.5 9L9.75 9C9.336 9 9 8.66475 9 8.25C9 7.83525 9.336 7.5 9.75 7.5L16.5 7.5C16.914 7.5 17.25 7.83525 17.25 8.25C17.25 8.66475 16.914 9 16.5 9ZM12.75 6C12.336 6 12 5.66475 12 5.25L12 3.75H10.488C10.4895 3.792 10.5 3.83175 10.5 3.8745L10.5 4.5C10.5 4.91475 10.164 5.25 9.75 5.25L3.75 5.25C3.336 5.25 3 4.91475 3 4.5V3.8745C3 3.83175 3.0105 3.792 3.012 3.75H1.5L1.5 16.5L12.75 16.5C13.164 16.5 13.5 16.8353 13.5 17.25C13.5 17.6647 13.164 18 12.75 18L0.75 18C0.336 18 0 17.6647 0 17.25L0 3C0 2.58525 0.336 2.25 0.75 2.25L3.56325 2.25C3.90375 1.80975 4.37325 1.4865 4.91775 1.34175C5.184 0.56325 5.901 0 6.75 0C7.599 0 8.316 0.56325 8.58225 1.34175C9.12675 1.4865 9.59625 1.80975 9.93675 2.25L12.75 2.25C13.164 2.25 13.5 2.58525 13.5 3L13.5 5.25C13.5 5.66475 13.164 6 12.75 6ZM7.95 2.75025C7.53525 2.75025 7.2 2.415 7.2 2.00025C7.2 1.72425 6.99825 1.5 6.75 1.5C6.50175 1.5 6.3 1.72425 6.3 2.00025C6.3 2.415 5.96475 2.75025 5.55 2.75025C5.01075 2.75025 4.5645 3.18825 4.506 3.75L8.994 3.75C8.9355 3.18825 8.48925 2.75025 7.95 2.75025ZM9 14.25C9 13.8352 9.336 13.5 9.75 13.5L14.25 13.5C14.664 13.5 15 13.8352 15 14.25C15 14.664 14.664 15 14.25 15L9.75 15C9.336 15 9 14.664 9 14.25ZM9 11.25C9 10.8352 9.336 10.5 9.75 10.5L16.5 10.5C16.914 10.5 17.25 10.8352 17.25 11.25C17.25 11.6648 16.914 12 16.5 12L9.75 12C9.336 12 9 11.6648 9 11.25Z" fill="#495057"/>
</svg>
