<svg viewBox="0 0 20 20" fill="none" xmlns="http://www.w3.org/2000/svg">
<path fill-rule="evenodd" clip-rule="evenodd" d="M4.09937 2.43266C3.6763 2.00959 2.99037 2.00959 2.5673 2.43266C2.14423 2.85573 2.14423 3.54165 2.5673 3.96472L8.18587 9.58329L2.5673 15.2019C2.14423 15.6249 2.14423 16.3109 2.5673 16.7339C2.99037 17.157 3.6763 17.157 4.09937 16.7339L9.71794 11.1154L15.1774 16.5748C15.6004 16.9979 16.2864 16.9979 16.7094 16.5748C17.1325 16.1517 17.1325 15.4658 16.7094 15.0427L11.25 9.58329L16.7094 4.12386C17.1325 3.70079 17.1325 3.01486 16.7094 2.59179C16.2864 2.16872 15.6004 2.16872 15.1774 2.59179L9.71794 8.05123L4.09937 2.43266Z" fill="#495057"/>
</svg>
