<svg width="16" height="16" viewBox="0 0 16 16" fill="none" xmlns="http://www.w3.org/2000/svg">
  <path fill-rule="evenodd" clip-rule="evenodd" d="M11.9993 12.6667C11.6307 12.6667 11.3327 12.368 11.3327 12C11.3327 11.632 11.6307 11.3333 11.9993 11.3333C13.842 11.3333 14.6667 10.9987 14.6667 10.6667V9.65267C13.7307 9.99867 12.5513 10 11.9993 10C11.6307 10 11.3327 9.70134 11.3327 9.33334C11.3327 8.96534 11.6307 8.66667 11.9993 8.66667C13.842 8.66667 14.6667 8.33201 14.6667 8.00001V6.98601C13.7307 7.33267 12.5513 7.33334 11.9993 7.33334C11.6307 7.33334 11.3327 7.03467 11.3327 6.66667C11.3327 6.29867 11.6307 6.00001 11.9993 6.00001C13.842 6.00001 14.6667 5.66534 14.6667 5.33334L14.6667 4.07201C13.2067 4.63867 11.0247 4.66667 10.666 4.66667C10.308 4.66667 8.126 4.63867 6.666 4.07201V4.68067C6.666 5.04867 6.368 5.34667 5.99933 5.34667C5.63067 5.34667 5.33267 5.04867 5.33267 4.68067L5.33267 2.66667C5.33267 0.722672 10.1207 0.666672 10.666 0.666672C11.212 0.666672 16 0.722672 16 2.66667V8.00001L16 10.6667C16 12.6667 12.9887 12.6667 11.9993 12.6667ZM10.666 2.00001C8.574 2.00001 7.22867 2.38934 6.78 2.66667C7.22867 2.94401 8.574 3.33334 10.666 3.33334C12.758 3.33334 14.1033 2.94401 14.5527 2.66667C14.104 2.39 12.7587 2.00001 10.666 2.00001ZM10.6673 8.00001V13.3333C10.6673 15.2773 5.87933 15.3333 5.33333 15.3333C4.788 15.3333 0 15.2773 0 13.3333L0 8.00001C0 6.05601 4.788 6.00001 5.33333 6.00001C5.87933 6.00001 10.6673 6.05601 10.6673 8.00001ZM1.33333 13.248C1.614 13.5213 3.01533 14 5.33333 14C7.652 14 9.05333 13.5213 9.334 13.2473V12.072C7.874 12.6387 5.692 12.6667 5.33333 12.6667C4.97533 12.6667 2.79333 12.6387 1.33333 12.072L1.33333 13.248ZM1.33333 10.58C1.60867 10.8527 3.01 11.3333 5.33333 11.3333C7.65667 11.3333 9.058 10.8527 9.334 10.58V9.40534C7.874 9.972 5.692 10 5.33333 10C4.97533 10 2.79333 9.972 1.33333 9.40534L1.33333 10.58ZM5.33333 8.66667C7.42533 8.66667 8.77067 8.27734 9.22 8.00001C8.77067 7.72267 7.42533 7.33334 5.33333 7.33334C3.24133 7.33334 1.896 7.72267 1.44733 8.00001C1.896 8.27734 3.24133 8.66667 5.33333 8.66667Z" fill="#495057"/>
</svg>
