<svg viewBox="0 0 112 112" fill="none" xmlns="http://www.w3.org/2000/svg">
  <path d="M108.441 56C110.407 56 112.012 57.5952 111.887 59.5569C111.121 71.5909 106.487 83.0929 98.6251 92.3194C89.9919 102.451 78.0318 109.177 64.8893 111.29C51.7467 113.403 38.2813 110.765 26.9073 103.85C15.5332 96.9345 6.99454 86.1936 2.82212 73.5531C-1.3503 60.9127 -0.883547 47.1992 4.13869 34.8717C9.16094 22.5442 18.4102 12.4087 30.2281 6.28271C42.046 0.156672 55.6596 -1.55932 68.6281 1.4424C80.4375 4.17586 91.0086 10.6586 98.7877 19.8722C100.056 21.3741 99.7156 23.6115 98.1362 24.7816V24.7816C96.5568 25.9518 94.3373 25.6102 93.0554 24.1201C86.2939 16.2605 77.1835 10.7291 67.0229 8.3773C55.7029 5.75713 43.8197 7.255 33.504 12.6023C23.1883 17.9497 15.1147 26.7968 10.7309 37.5574C6.347 48.3179 5.93958 60.2882 9.58164 71.3219C13.2237 82.3557 20.677 91.7313 30.6053 97.7676C40.5335 103.804 52.2874 106.106 63.7594 104.262C75.2313 102.418 85.6711 96.547 93.207 87.7028C99.9709 79.7645 103.998 69.8966 104.752 59.5562C104.895 57.5958 106.475 56 108.441 56V56Z" fill="#737ADE"/>
</svg>
