<svg width="14" height="14" viewBox="0 0 14 14" fill="none" xmlns="http://www.w3.org/2000/svg">
  <path fill-rule="evenodd" clip-rule="evenodd" d="M12.9231 12.3846C12.9231 12.6813 12.6818 12.9231 12.3846 12.9231H6.46154C6.16431 12.9231 5.92308 12.6813 5.92308 12.3846V10.7692H7.53846C8.42908 10.7692 9.15385 10.0445 9.15385 9.15385V4.30769H12.3846C12.6818 4.30769 12.9231 4.54946 12.9231 4.84615V12.3846ZM1.07692 9.15385V1.61538C1.07692 1.31869 1.31815 1.07692 1.61538 1.07692H7.53846C7.83569 1.07692 8.07692 1.31869 8.07692 1.61538V9.15385C8.07692 9.45054 7.83569 9.69231 7.53846 9.69231H1.61538C1.31815 9.69231 1.07692 9.45054 1.07692 9.15385ZM12.3846 3.23077H9.15385V1.61538C9.15385 0.724769 8.42908 0 7.53846 0H1.61538C0.724769 0 0 0.724769 0 1.61538V9.15385C0 10.0445 0.724769 10.7692 1.61538 10.7692H4.84615V12.3846C4.84615 13.2752 5.57092 14 6.46154 14H12.3846C13.2752 14 14 13.2752 14 12.3846V4.84615C14 3.95554 13.2752 3.23077 12.3846 3.23077Z" fill="#F0F2FF"/>
</svg>