<svg width="16" height="15" viewBox="0 0 16 15" fill="none" xmlns="http://www.w3.org/2000/svg">
<path fill-rule="evenodd" clip-rule="evenodd" d="M6.57422 1.52539C4.29604 1.52539 2.44922 3.37222 2.44922 5.65039C2.44922 7.08866 3.1847 8.3555 4.30357 9.09484C4.95449 9.52496 5.73397 9.77539 6.57422 9.77539C6.91636 9.77539 7.24778 9.7339 7.56414 9.65602C9.36458 9.21284 10.6992 7.58655 10.6992 5.65039C10.6992 5.27266 10.6486 4.90793 10.5543 4.56204C10.0769 2.8114 8.47479 1.52539 6.57422 1.52539ZM0.949219 5.65039C0.949219 2.54379 3.46762 0.0253906 6.57422 0.0253906C9.04734 0.0253906 11.1461 1.62084 11.9005 3.83748L14.3346 5.05457C14.5305 5.15249 14.6737 5.33109 14.7268 5.54349L15.4768 8.54349C15.5316 8.7626 15.4847 8.99472 15.3492 9.1754L13.0992 12.1754C12.9576 12.3642 12.7353 12.4754 12.4992 12.4754H10.0532C9.45815 13.7592 8.1585 14.6504 6.6492 14.6504C4.57813 14.6504 2.8992 12.9715 2.8992 10.9004C2.8992 10.5908 2.93687 10.2893 3.00803 10.0006C1.75219 8.96986 0.949219 7.40404 0.949219 5.65039ZM4.4 10.8396C4.39947 10.8598 4.3992 10.88 4.3992 10.9004C4.3992 12.143 5.40656 13.1504 6.6492 13.1504C7.33202 13.1504 7.94459 12.846 8.35751 12.365C8.27775 12.3161 8.20683 12.2522 8.14924 12.1754L7.42609 11.2112C7.14796 11.2535 6.86344 11.2754 6.57422 11.2754C5.80416 11.2754 5.06929 11.1203 4.4 10.8396ZM8.954 10.7484L9.12424 10.9754H12.1242L13.9351 8.56098L13.3553 6.24195L12.1992 5.6639C12.1939 7.91482 10.867 9.8539 8.954 10.7484ZM6.49924 2.87539C6.77161 2.87539 7.02258 3.02306 7.15485 3.26116L9.02985 6.63616C9.15891 6.86846 9.1554 7.15171 9.02064 7.38074C8.88588 7.60977 8.63998 7.75039 8.37424 7.75039H4.62424C4.3585 7.75039 4.1126 7.60977 3.97783 7.38074C3.84307 7.15171 3.83956 6.86846 3.96862 6.63616L5.84362 3.26116C5.9759 3.02306 6.22686 2.87539 6.49924 2.87539ZM5.89887 6.25039H7.0996L6.49924 5.16974L5.89887 6.25039Z" fill="white"/>
</svg>
