<svg width="14" height="12" viewBox="0 0 14 12" fill="none" xmlns="http://www.w3.org/2000/svg">
<path fill-rule="evenodd" clip-rule="evenodd" d="M13.4167 1.33317L0.583333 1.33317C0.261333 1.33317 0 1.07184 0 0.749837C0 0.427837 0.261333 0.166504 0.583333 0.166504L13.4167 0.166504C13.7387 0.166504 14 0.427837 14 0.749837C14 1.07184 13.7387 1.33317 13.4167 1.33317ZM0.583333 3.6665L8.75058 3.6665C9.07258 3.6665 9.33392 3.92784 9.33392 4.24984C9.33392 4.57184 9.07258 4.83317 8.75058 4.83317L0.583333 4.83317C0.261333 4.83317 0 4.57184 0 4.24984C0 3.92784 0.261333 3.6665 0.583333 3.6665ZM0.583333 7.1665L13.4167 7.1665C13.7387 7.1665 14 7.42784 14 7.74984C14 8.07184 13.7387 8.33317 13.4167 8.33317L0.583333 8.33317C0.261333 8.33317 0 8.07184 0 7.74984C0 7.42784 0.261333 7.1665 0.583333 7.1665ZM0.583333 10.6665L8.75058 10.6665C9.07258 10.6665 9.33392 10.9278 9.33392 11.2498C9.33392 11.5718 9.07258 11.8332 8.75058 11.8332L0.583333 11.8332C0.261333 11.8332 0 11.5718 0 11.2498C0 10.9278 0.261333 10.6665 0.583333 10.6665Z" fill="#495057"/>
</svg>