<svg width="14" height="14" viewBox="0 0 14 14" fill="none" xmlns="http://www.w3.org/2000/svg">
<path fill-rule="evenodd" clip-rule="evenodd" d="M12.8333 14H1.16667C0.52325 14 0 13.4767 0 12.8339V9.33508C0 9.01308 0.26075 8.75233 0.583333 8.75233C0.905917 8.75233 1.16667 9.01308 1.16667 9.33508V12.8339H12.8333V9.33508C12.8333 9.01308 13.0941 8.75233 13.4167 8.75233C13.7392 8.75233 14 9.01308 14 9.33508V12.8339C14 13.4767 13.4762 14 12.8333 14ZM7.413 10.3244C7.35933 10.3787 7.29458 10.4213 7.22283 10.451C7.15167 10.4808 7.07583 10.4959 7 10.4959C6.92417 10.4959 6.84833 10.4808 6.77717 10.451C6.70658 10.4218 6.643 10.3798 6.58933 10.3267C6.58933 10.3262 6.58875 10.3262 6.58817 10.3256C6.58758 10.325 6.58758 10.325 6.587 10.3244L3.6715 7.41533C3.44283 7.18783 3.44283 6.81917 3.67033 6.59108C3.89842 6.36242 4.26708 6.36358 4.49517 6.58992L6.41667 8.50675V0.58275C6.41667 0.26075 6.67742 0 7 0C7.32258 0 7.58333 0.26075 7.58333 0.58275V8.50675L9.50483 6.58992C9.73292 6.36358 10.1016 6.36242 10.3297 6.59108C10.5572 6.81917 10.5572 7.18783 10.3285 7.41533L7.413 10.3244Z" fill="#212529"/>
</svg>
