<svg width="24" height="24" viewBox="0 0 24 24" fill="none" xmlns="http://www.w3.org/2000/svg">
<path fill-rule="evenodd" clip-rule="evenodd" d="M19.8447 4.15527C19.4472 3.75777 18.8028 3.75777 18.4053 4.15527L17.3583 5.20222L18.7978 6.64169L19.8447 5.59473C20.2422 5.19723 20.2422 4.55276 19.8447 4.15527ZM17.8381 7.60134L16.3987 6.16187L5.40507 17.1555C5.00647 17.5541 4.71346 18.0457 4.55253 18.586L4.18702 19.813L5.41405 19.4475C5.9543 19.2865 6.44594 18.9935 6.84455 18.5949L17.8381 7.60134ZM17.4456 3.19562C18.3731 2.26813 19.8769 2.26813 20.8044 3.19562C21.7319 4.12312 21.7319 5.62688 20.8044 6.55438L7.80419 19.5546C7.24615 20.1126 6.55785 20.5228 5.8015 20.7481L3.37231 21.4717C3.13352 21.5429 2.87495 21.4774 2.69877 21.3012C2.52258 21.125 2.45713 20.8665 2.52826 20.6277L3.25187 18.1985C3.47717 17.4422 3.88738 16.7539 4.44543 16.1958L17.4456 3.19562Z" fill="#6B7084"/>
</svg>
