<svg width="112" height="112" viewBox="0 0 112 112" fill="none" xmlns="http://www.w3.org/2000/svg">
  <path d="M112 56C112 86.9279 86.9279 112 56 112C25.0721 112 0 86.9279 0 56C0 25.0721 25.0721 0 56 0C86.9279 0 112 25.0721 112 56ZM7.11824 56C7.11824 82.9967 29.0033 104.882 56 104.882C82.9967 104.882 104.882 82.9967 104.882 56C104.882 29.0033 82.9967 7.11824 56 7.11824C29.0033 7.11824 7.11824 29.0033 7.11824 56Z" fill="#E32444"/>
  <path d="M53.2422 39.1562L53.7812 61.8203H59.1953L59.7344 39.1562H53.2422ZM56.5 73.6094C58.8672 73.6094 60.3906 72.1328 60.3906 69.8828C60.3906 67.6094 58.8672 66.1328 56.5 66.1328C54.1328 66.1328 52.6094 67.6094 52.6094 69.8828C52.6094 72.1328 54.1328 73.6094 56.5 73.6094Z" fill="#E32444"/>
</svg>
