<svg width="24" height="24" viewBox="0 0 24 24" fill="none" xmlns="http://www.w3.org/2000/svg">
<path fill-rule="evenodd" clip-rule="evenodd" d="M2.718 22.7068C2.523 22.9026 2.267 23 2.011 23C1.755 23 1.499 22.9026 1.304 22.7068C0.913 22.3172 0.913 21.6837 1.304 21.2931L4.385 18.2116C1.116 16.1121 0 13.2073 0 11.9994C0 9.38778 4.205 2.99986 12 2.99986C15.002 2.99986 16.895 3.91056 17.942 4.65458L21.304 1.29294C21.694 0.902354 22.327 0.902354 22.718 1.29294C23.108 1.68352 23.108 2.31709 22.718 2.70667L2.718 22.7068ZM9.312 13.2846L13.291 9.30544C12.89 9.11367 12.453 9.00021 12 9.00021C10.346 9.00021 9 10.3467 9 12.0004C9 12.4502 9.121 12.883 9.312 13.2846ZM12 4.99998C5.216 4.99998 2 10.6148 2 11.9994C2 12.4452 2.714 14.9303 5.843 16.7527L7.881 14.7154C7.811 14.6501 7.729 14.6019 7.678 14.5156C7.234 13.7555 7 12.886 7 12.0004C7 9.24419 9.243 7.0011 12 7.0011C12.989 7.0011 13.94 7.30332 14.753 7.84351L16.495 6.10145C15.67 5.59138 14.243 4.99998 12 4.99998ZM11.999 16.9987C11.477 16.9987 11.037 16.594 11.002 16.0649C10.966 15.5136 11.383 15.0377 11.935 15.0016C13.576 14.8941 14.895 13.5758 15.002 11.9341C15.038 11.3839 15.528 10.9642 16.065 11.0023C16.616 11.0375 17.034 11.5134 16.998 12.0646C16.826 14.7033 14.705 16.8239 12.065 16.9976C12.043 16.9987 12.021 16.9987 11.999 16.9987ZM9.241 18.6684C10.113 18.8873 11.042 18.9988 12 18.9988C18.784 18.9988 22 13.385 22 11.9994C22 11.5817 21.567 10.2232 20.228 8.69396C19.864 8.27727 19.906 7.64571 20.322 7.28224C20.737 6.91876 21.369 6.96093 21.733 7.37662C23.11 8.949 24 10.7644 24 11.9994C24 14.611 19.795 20.9989 12 20.9989C10.877 20.9989 9.784 20.8673 8.752 20.6073C8.216 20.4727 7.892 19.9285 8.026 19.3934C8.161 18.8572 8.704 18.5329 9.241 18.6684Z" fill="#495057"/>
</svg>
