<svg width="24" height="24" viewBox="0 0 24 24" fill="none" xmlns="http://www.w3.org/2000/svg">
<path fill-rule="evenodd" clip-rule="evenodd" d="M12 21C4.205 21 0 14.612 0 12C0 9.388 4.205 3 12 3C19.795 3 24 9.388 24 12C24 14.612 19.795 21 12 21ZM12 5C5.216 5 2 10.615 2 12C2 13.385 5.216 19 12 19C18.784 19 22 13.385 22 12C22 10.615 18.784 5 12 5ZM12 17C9.243 17 7 14.757 7 12C7 9.243 9.243 7 12 7C14.757 7 17 9.243 17 12C17 14.757 14.757 17 12 17ZM12 9C10.346 9 9 10.346 9 12C9 13.654 10.346 15 12 15C13.654 15 15 13.654 15 12C15 10.346 13.654 9 12 9Z" fill="#495057"/>
</svg>
