<svg width="13" height="13" viewBox="0 0 13 13" fill="none" xmlns="http://www.w3.org/2000/svg">
<path fill-rule="evenodd" clip-rule="evenodd" d="M8.93869 13H4.06261C3.31619 13 2.70898 12.4009 2.70898 11.6637V4.91183C2.70898 4.67783 2.85903 4.48283 3.06594 4.407C3.14394 4.36421 3.22844 4.33333 3.32323 4.33333H3.79232V0.541667C3.79232 0.242125 4.03498 0 4.33398 0H8.66732C8.96632 0 9.20898 0.242125 9.20898 0.541667V4.33333H9.67807C9.77286 4.33333 9.85736 4.36421 9.93536 4.407C10.1423 4.48283 10.2923 4.67783 10.2923 4.91183V11.6637C10.2923 12.4009 9.68511 13 8.93869 13ZM8.12565 1.08333H4.87565V4.33279H8.12565V1.08333ZM3.79232 5.41667V11.6637C3.79232 11.8007 3.91636 11.9167 4.06261 11.9167H8.93869C9.08494 11.9167 9.20898 11.8007 9.20898 11.6637V5.41667H3.79232ZM5.95898 1.625C6.25798 1.625 6.50065 1.86713 6.50065 2.16667C6.50065 1.86713 6.74332 1.625 7.04232 1.625C7.34132 1.625 7.58398 1.86713 7.58398 2.16667V3.25C7.58398 3.54954 7.34132 3.79167 7.04232 3.79167C6.74332 3.79167 6.50065 3.54954 6.50065 3.25C6.50065 3.54954 6.25798 3.79167 5.95898 3.79167C5.65998 3.79167 5.41732 3.54954 5.41732 3.25V2.16667C5.41732 1.86713 5.65998 1.625 5.95898 1.625Z" fill="#495057"/>
</svg>
