<svg width="24" height="24" viewBox="0 0 24 24" fill="none" xmlns="http://www.w3.org/2000/svg">
<path fill-rule="evenodd" clip-rule="evenodd" d="M21.1667 16.8333H18.1667L21.75 20.4167C22.0833 20.75 22.0833 21.25 21.75 21.5833C21.5833 21.75 21.3333 21.8333 21.1667 21.8333C20.9167 21.8333 20.75 21.75 20.5833 21.5833L17 18.0833V21.0833C17 21.5833 16.6667 21.9167 16.1667 21.9167C15.6667 21.9167 15.3333 21.5833 15.3333 21.0833V16.0833C15.3333 15.5833 15.6667 15.25 16.1667 15.25H21.1667C21.6667 15.25 22 15.5833 22 16.0833C22 16.5 21.5833 16.8333 21.1667 16.8333ZM21.9167 12.6667C21.9167 12.3333 21.9167 12 21.9167 12C21.9167 6.5 17.4167 2 11.9167 2C6.41667 2 2 6.5 2 12C2 17.5 6.5 22 12 22C12.3333 22 12.5833 22 12.9167 21.9167C13.3333 21.9167 13.75 21.5 13.75 21.0833C13.75 20.5833 13.3333 20.25 13 20.25C12.9167 20.25 12.8333 20.25 12.8333 20.25C12.1667 20.3333 11.5833 20.25 10.9167 20.1667C9.83333 20 8.83333 19.6667 7.83333 19.0833C7.75 19 7.66667 18.9167 7.58333 18.8333V18.75C7.58333 18.6667 7.66667 18.6667 7.66667 18.5833C7.66667 18.5 7.75 18.5 7.66667 18.4167C7.58333 18.4167 7.58333 18.3333 7.58333 18.25L7.66667 18.3333H7.75V18.25V18.1667C7.75 18.0833 7.75 18 7.83333 18C7.91667 18 7.91667 18 8 18C8.16667 18 8.25 17.9167 8.16667 17.75C8.16667 17.6667 8.08333 17.6667 8 17.5833L7.91667 17.5C8 17.5 8 17.5833 8.08333 17.5833C8.25 17.6667 8.33333 17.6667 8.41667 17.5C8.5 17.4167 8.58333 17.3333 8.58333 17.25C8.58333 17.1667 8.58333 17.0833 8.58333 17.0833C8.58333 17 8.58333 16.9167 8.66667 16.9167C8.66667 16.8333 8.75 16.75 8.66667 16.6667C8.66667 16.5833 8.66667 16.5833 8.66667 16.5C8.75 16.4167 8.83333 16.4167 9 16.3333C9 16.3333 9.08333 16.3333 9.16667 16.3333C9.25 16.3333 9.33333 16.3333 9.41667 16.25C9.5 16.0833 9.58333 15.9167 9.58333 15.75C9.58333 15.5833 9.58333 15.5 9.58333 15.3333C9.58333 15.25 9.58333 15.1667 9.66667 15.1667C9.75 15 9.91667 14.8333 10 14.5833C10.0833 14.4167 10 14.25 9.83333 14.25C9.75 14.25 9.66667 14.1667 9.58333 14.0833C9.5 14 9.41667 13.9167 9.25 13.9167C9.08333 13.9167 9 13.9167 8.83333 13.9167C8.66667 13.6667 8.58333 13.5833 8.33333 13.6667C8.33333 13.5 8.25 13.5 8.08333 13.5C8.08333 13.4167 8.08333 13.25 8 13.1667C8 13 7.83333 12.9167 7.75 12.9167C7.66667 12.9167 7.58333 12.9167 7.5 12.9167C7.33333 12.9167 7.16667 12.8333 7.08333 12.6667C7 12.5833 6.91667 12.5 6.83333 12.4167C6.83333 12.4167 6.83333 12.4167 6.83333 12.3333C6.75 12.3333 6.75 12.3333 6.75 12.3333C6.5 12.4167 6.25 12.3333 6.08333 12.25C5.83333 12.0833 5.75 12.0833 5.66667 12.4167V12.3333C5.66667 12.25 5.66667 12.25 5.66667 12.1667C5.5 12.1667 5 12.4167 5 12.6667C4.91667 12.5833 4.83333 12.5 4.66667 12.5833C4.75 12.6667 4.83333 12.6667 4.91667 12.6667V12.75C5 12.9167 5 13 4.91667 13.1667C4.83333 13.25 4.83333 13.3333 4.75 13.4167C4.75 13.5 4.66667 13.5 4.66667 13.5833C4.58333 13.6667 4.58333 13.75 4.66667 13.9167C4.66667 13.9167 4.66667 13.9167 4.58333 14C4.5 14.0833 4.5 14.1667 4.58333 14.25C4.75 14.5 5 14.8333 5.16667 15.0833C5.16667 15.1667 5.25 15.1667 5.25 15.25C5.33333 15.1667 5.41667 15.25 5.5 15.3333C5.83333 15.5 6 15.75 6.08333 16.0833C6.16667 16.5 6.25 17 6.33333 17.5C6.33333 17.8333 6.41667 18.0833 6.66667 18.3333C6.66667 18.3333 6.66667 18.4167 6.75 18.4167C6.5 18.25 6.33333 18.0833 6.16667 17.9167C4.58333 16.3333 3.66667 14.25 3.66667 12C3.75 12 3.83333 12 3.91667 12.1667C3.91667 12.25 4 12.3333 4 12.4167L4.08333 12.5L4.16667 12.4167C4.16667 12.3333 4.16667 12.3333 4.16667 12.25C4.16667 12.1667 4.25 12.0833 4.25 12C4.33333 11.8333 4.25 11.75 4.08333 11.8333C4 11.8333 3.91667 11.8333 3.91667 11.8333C3.83333 11.8333 3.75 11.8333 3.66667 11.8333C3.75 11.6667 3.83333 11.4167 3.91667 11.25C3.75 11.25 3.66667 11.1667 3.58333 11.25C3.58333 10.9167 3.66667 10.6667 3.75 10.3333C3.83333 10.3333 3.91667 10.3333 4 10.25C4.08333 10.1667 4.16667 10.1667 4.25 10.1667C4.33333 10.1667 4.41667 10.25 4.41667 10.25C4.5 10.25 4.58333 10.3333 4.66667 10.25C4.83333 10.25 4.83333 10.1667 4.91667 10.0833C5.08333 9.83333 5.25 9.83333 5.33333 9.75C5.41667 9.66667 5.5 9.66667 5.66667 9.58333C5.75 9.58333 5.75 9.5 5.75 9.33333C5.75 9.25 5.75 9.25 5.75 9.16667C5.83333 9.16667 5.83333 9.16667 5.83333 9.25C6 9.08333 6.16667 8.91667 6.41667 8.83333C6.5 8.83333 6.58333 8.75 6.58333 8.66667C6.58333 8.66667 6.58333 8.58333 6.66667 8.58333C6.83333 8.41667 7.08333 8.33333 7.33333 8.33333C7.33333 8.33333 7.25 8.33333 7.25 8.41667C7.5 8.41667 7.66667 8.33333 7.83333 8.16667C7.75 8.16667 7.66667 8.16667 7.58333 8.08333C7.5 8 7.58333 7.91667 7.58333 7.83333C7.5 7.83333 7.41667 7.83333 7.33333 7.83333C7.25 7.83333 7.16667 7.91667 7.08333 7.91667C7.08333 7.91667 7.08333 7.91667 7.08333 7.83333C7.16667 7.91667 7.25 7.83333 7.33333 7.83333C7.5 7.75 7.75 7.75 8 7.66667C8.25 7.66667 8.41667 7.5 8.66667 7.41667C8.66667 7.41667 8.66667 7.41667 8.75 7.33333C8.75 7.33333 8.83333 7.25 8.75 7.25L8.66667 7.16667C8.58333 7.16667 8.5 7.16667 8.5 7.16667C8.5 6.91667 8.5 6.75 8.41667 6.5C8.25 6.58333 8.16667 6.66667 8.16667 6.75C8.08333 6.75 8 6.83333 8 6.75C7.91667 6.75 7.91667 6.75 7.91667 6.66667C8 6.5 7.91667 6.41667 7.83333 6.41667C7.58333 6.33333 7.41667 6.33333 7.25 6.5C7.25 6.58333 7.16667 6.66667 7.08333 6.75C7.08333 6.75 7.08333 6.83333 7.08333 6.91667C7.08333 7 7 7.08333 7 7.08333C6.91667 7.16667 6.83333 7.16667 6.75 7.25C6.58333 7.25 6.5 7.33333 6.5 7.5C6.5 7.58333 6.41667 7.58333 6.41667 7.66667C6.41667 7.66667 6.33333 7.75 6.25 7.66667L6.16667 7.58333C6.16667 7.5 6.25 7.41667 6.25 7.33333C6.16667 7.25 6 7.25 5.91667 7.16667C5.83333 7.16667 5.75 7.16667 5.75 7.08333C5.66667 7 5.58333 6.91667 5.75 6.83333C5.83333 6.75 5.83333 6.75 5.91667 6.66667C5.91667 6.66667 6.08333 6.58333 6.16667 6.58333C6.25 6.58333 6.33333 6.5 6.33333 6.41667L6.41667 6.33333C6.5 6.33333 6.58333 6.33333 6.66667 6.25C6.75 6.25 6.75 6.16667 6.66667 6.08333C6.75 6.08333 6.75 6.08333 6.83333 6.08333C6.91667 6.08333 7 6.08333 7 5.91667C7 5.83333 7.08333 5.75 7.08333 5.75H7C7 5.66667 7 5.66667 7 5.58333C6.91667 5.58333 6.91667 5.58333 6.66667 5.75C6.66667 5.75 6.66667 5.75 6.66667 5.83333C6.75 5.91667 6.66667 5.91667 6.66667 5.91667C6.58333 6 6.41667 6 6.25 6C6.33333 5.91667 6.5 5.75 6.58333 5.66667C6.66667 5.58333 6.75 5.58333 6.75 5.5C6.75 5.5 6.83333 5.5 6.83333 5.41667C7.16667 5.16667 7.5 5 7.83333 4.75C7.83333 4.75 7.91667 4.75 8 4.75C8.08333 4.75 8.16667 4.66667 8.25 4.66667V4.58333C8.33333 4.5 8.41667 4.5 8.5 4.41667C8.83333 4.33333 9.08333 4.16667 9.41667 4.08333C10.5833 3.66667 11.75 3.58333 13 3.75C13.6667 3.83333 14.3333 4 15 4.25C15.0833 4.25 15.0833 4.25 15.0833 4.33333L15.1667 4.41667C15.25 4.41667 15.25 4.41667 15.25 4.5C15.25 4.66667 15.4167 4.66667 15.5 4.58333C15.5833 4.5 15.5833 4.5 15.6667 4.58333C15.9167 4.75 16.1667 4.91667 16.4167 5C16.5 5.08333 16.5833 5.08333 16.5833 5.16667H16.5C16.0833 5 15.6667 5.08333 15.3333 5.5C15.1667 5.75 14.9167 5.91667 14.5833 6.08333C14.4167 6.16667 14.3333 6.33333 14.5 6.5C14.5833 6.58333 14.6667 6.58333 14.75 6.5C14.9167 6.41667 14.9167 6.41667 15 6.58333C15 6.66667 15 6.75 15.1667 6.75C15.25 6.75 15.3333 6.75 15.3333 6.66667C15.3333 6.58333 15.4167 6.58333 15.4167 6.5C15.4167 6.41667 15.5 6.41667 15.5833 6.33333C15.6667 6.25 15.6667 6.16667 15.5833 6.16667L15.5 6.08333C15.5 6 15.5 5.91667 15.5833 5.91667C15.6667 5.91667 15.75 5.83333 15.8333 5.75C15.8333 5.66667 15.9167 5.66667 15.9167 5.66667H16V5.75C16 5.83333 16 5.91667 15.9167 6C15.8333 6.08333 15.75 6.16667 15.8333 6.25C15.9167 6.33333 16 6.33333 16.0833 6.33333C16.25 6.33333 16.3333 6.33333 16.5 6.33333H16.5833C16.5 6.33333 16.4167 6.41667 16.3333 6.41667C16.25 6.41667 16.1667 6.41667 16.0833 6.5L16.1667 6.58333V6.66667C16.1667 6.66667 16.1667 6.66667 16.0833 6.66667H16C15.9167 6.66667 15.9167 6.66667 15.9167 6.75C15.9167 6.91667 15.8333 7 15.6667 7C15.5833 7 15.5 7.08333 15.3333 7.08333H15.25C15.1667 7 15 7 14.9167 7L14.8333 6.91667V6.83333C14.8333 6.75 14.8333 6.66667 14.75 6.66667C14.6667 6.66667 14.5833 6.75 14.5833 6.83333C14.5833 6.91667 14.5833 7 14.6667 7C14.6667 7.08333 14.6667 7.08333 14.5833 7.08333C14.4167 7.08333 14.3333 7.16667 14.25 7.25C14.1667 7.33333 14.0833 7.41667 14 7.5C13.9167 7.58333 13.75 7.66667 13.5833 7.66667C13.5 7.66667 13.4167 7.66667 13.3333 7.75C13.5 7.83333 13.6667 7.91667 13.6667 8.16667C13.6667 8.33333 13.5833 8.41667 13.4167 8.41667C13.3333 8.41667 13.1667 8.33333 13.0833 8.33333C13 8.33333 13 8.33333 12.9167 8.33333L12.8333 8.41667C12.9167 8.58333 12.8333 8.66667 12.75 8.83333C12.6667 9.08333 12.6667 9.08333 12.9167 9.16667C13.0833 9.16667 13.25 9.16667 13.4167 9.16667C13.5 9.16667 13.5833 9.08333 13.6667 9C13.6667 9 13.75 8.91667 13.6667 8.83333C13.6667 8.75 13.6667 8.66667 13.75 8.66667C13.8333 8.58333 13.9167 8.58333 13.9167 8.58333C14 8.58333 14 8.5 14 8.41667L14.0833 8.33333C14.25 8.33333 14.4167 8.33333 14.5833 8.25H14.6667C14.75 8.33333 14.9167 8.41667 15 8.5C14.9167 8.58333 14.9167 8.66667 14.9167 8.75C15 8.83333 15.1667 8.83333 15.25 8.83333C15.3333 8.75 15.3333 8.66667 15.3333 8.58333C15.25 8.41667 15.1667 8.33333 15 8.25C15 8.25 14.9167 8.16667 14.8333 8.16667C14.8333 8.08333 14.9167 8.08333 14.9167 8.16667C15 8.25 15.0833 8.33333 15.25 8.41667C15.4167 8.5 15.5 8.58333 15.5833 8.75C15.5833 8.83333 15.6667 8.91667 15.75 8.91667H15.8333C15.8333 9 15.75 9.08333 15.8333 9.08333C15.8333 9.16667 15.9167 9.16667 16 9.16667C16.0833 9.16667 16.0833 9.08333 16.0833 9C16.0833 8.91667 16 8.83333 16 8.75C16.1667 8.58333 16.4167 8.66667 16.5833 8.58333C16.5 8.5 16.5 8.33333 16.5833 8.25C16.6667 8.16667 16.6667 8.08333 16.75 8C17.1667 7.83333 17.3333 7.83333 17.3333 8C17.3333 8.08333 17.4167 8.08333 17.5 8.08333C17.5833 8.08333 17.5833 8.08333 17.6667 8C17.5833 7.91667 17.5833 7.91667 17.5 7.91667C17.5833 7.83333 17.75 7.83333 17.8333 7.75C17.8333 7.83333 17.8333 7.91667 17.8333 8C17.75 8.08333 17.8333 8.16667 17.9167 8.16667C18 8.16667 18.0833 8.25 18.1667 8.25C18.25 8.25 18.25 8.33333 18.3333 8.33333C18.4167 8.41667 18.3333 8.58333 18.25 8.58333C18.1667 8.58333 18.0833 8.58333 18 8.58333C17.8333 8.58333 17.6667 8.5 17.5833 8.5H17.5C17.3333 8.58333 17.0833 8.66667 16.9167 8.75C16.9167 8.83333 17 8.91667 17 9C17.0833 9.16667 17.1667 9.25 17.25 9.16667C17.3333 9.16667 17.4167 9.16667 17.5833 9.16667C17.6667 9.16667 17.75 9.16667 17.8333 9.16667C17.9167 9.08333 18 9.16667 18 9.25C18 9.41667 18 9.5 17.9167 9.66667C17.9167 9.75 17.8333 9.83333 17.75 9.83333C17.5 9.83333 17.25 9.83333 17 9.83333C16.9167 9.83333 16.8333 9.75 16.75 9.75C16.6667 9.75 16.5833 9.66667 16.5 9.66667C16.3333 9.66667 16.25 9.66667 16.25 9.83333C16.25 10 16.1667 10 16.0833 10C16 10 16 10 15.9167 9.91667L15.8333 9.83333C15.5833 9.58333 15.5 9.5 15.3333 9.5H15.25C15 9.41667 15 9.41667 15 9.16667C15 9.08333 15 9 14.9167 9C14.6667 9 14.5 9 14.25 9C14.0833 9 14 9.08333 13.9167 9.16667C13.8333 9.16667 13.75 9.25 13.6667 9.25C13.5833 9.25 13.5 9.25 13.4167 9.16667C13.3333 9.16667 13.3333 9.16667 13.25 9.16667C13.1667 9.25 13.0833 9.33333 13 9.41667C12.9167 9.5 12.8333 9.58333 12.8333 9.66667C12.8333 9.83333 12.75 9.91667 12.5833 10C12.5 10 12.4167 10.0833 12.3333 10.1667C12.1667 10.3333 12.0833 10.5 11.9167 10.75C11.8333 10.8333 11.8333 11 11.9167 11.0833C11.9167 11.1667 11.9167 11.1667 12 11.25C12 11.3333 12 11.4167 12 11.5L11.9167 11.5833C11.9167 11.6667 11.9167 11.75 11.9167 11.75C12 11.9167 12 12 11.9167 12C12 12.0833 12 12.0833 12 12.0833C12.1667 12.1667 12.25 12.25 12.25 12.4167C12.3333 12.6667 12.5833 12.8333 12.8333 13C12.9167 13.0833 13.0833 13.0833 13.1667 13C13.25 12.9167 13.4167 12.9167 13.5 13C13.5833 13 13.5833 13 13.6667 13C13.75 13 13.9167 12.9167 14 12.8333C14.1667 12.75 14.3333 12.8333 14.4167 13C14.4167 13 14.5 13 14.5 13.0833H14.5833C14.6667 13.0833 14.75 13.0833 14.8333 13.1667C14.8333 13.1667 14.9167 13.1667 14.9167 13.25C14.9167 13.25 15 13.25 15 13.3333C16.4167 13.3333 17.75 13.3333 19.1667 13.3333H19.25C19.4167 13.25 19.4167 13.1667 19.5 12.8333C19.5833 12.6667 19.5833 12.5 19.6667 12.25C19.5833 12.25 19.5 12.3333 19.5 12.3333C19.3333 12.4167 19.25 12.4167 19.0833 12.5C19 12.5 18.8333 12.5 18.8333 12.3333C18.75 12.0833 18.5833 12 18.4167 11.8333C18.3333 11.75 18.25 11.6667 18.25 11.5833C18.25 11.5 18.1667 11.4167 18.1667 11.4167C18.0833 11.3333 18 11.25 18 11.0833V11C17.9167 10.8333 17.8333 10.75 17.75 10.5833C17.6667 10.4167 17.5833 10.25 17.5 10.0833C17.5833 10.1667 17.5833 10.1667 17.6667 10.25C17.6667 10.1667 17.6667 10.1667 17.75 10.0833C17.75 10.3333 18 10.5 18.0833 10.6667C18.1667 10.75 18.25 10.9167 18.25 11C18.25 11.0833 18.3333 11.1667 18.4167 11.25C18.4167 11.3333 18.5 11.3333 18.5833 11.4167C18.6667 11.5 18.75 11.6667 18.75 11.8333C18.75 12 18.8333 12.0833 19 12C19.25 11.9167 19.4167 11.8333 19.6667 11.75C19.6667 11.75 19.75 11.75 19.75 11.6667C19.8333 11.5833 19.9167 11.4167 20.0833 11.4167L20.1667 11.3333L20.25 11.25C20.25 11.5 20.25 11.6667 20.25 11.9167C20.25 12.0833 20.25 12.3333 20.25 12.5V12.5833C20.25 12.9167 20.5833 13.4167 21.0833 13.4167C21.5833 13.5 21.9167 13.1667 21.9167 12.6667ZM5.75 8.33333C5.83333 8.33333 5.83333 8.33333 5.91667 8.33333L5.83333 8.41667C5.75 8.41667 5.75 8.5 5.66667 8.5L5.58333 8.58333H5.5V8.5C5.5 8.5 5.5 8.41667 5.58333 8.41667C5.41667 8.33333 5.33333 8.41667 5.25 8.41667C5.25 8.5 5.16667 8.58333 5.08333 8.66667L5 8.75C5 8.75 4.91667 8.83333 4.83333 8.83333C4.83333 8.75 4.83333 8.75 4.83333 8.66667C5 8.5 5.16667 8.41667 5.33333 8.33333C5.33333 8.33333 5.33333 8.33333 5.41667 8.33333C5.25 8.33333 5.08333 8.33333 4.91667 8.33333C5 8.16667 5.16667 8.08333 5.33333 8C5.41667 8 5.5 8 5.5 8.16667C5.5 8.33333 5.5 8.33333 5.75 8.33333ZM17.3333 5.83333C17.1667 5.83333 17.0833 5.75 17 5.66667C16.9167 5.58333 16.9167 5.5 16.8333 5.41667C16.8333 5.41667 16.8333 5.33333 16.8333 5.25C16.9167 5.25 16.9167 5.33333 17 5.33333C16.9167 5.33333 16.9167 5.33333 16.8333 5.33333C16.9167 5.33333 17.0833 5.33333 17.1667 5.41667C17.25 5.5 17.3333 5.58333 17.4167 5.66667C17.4167 5.75 17.4167 5.75 17.3333 5.83333C17.4167 5.83333 17.3333 5.83333 17.3333 5.83333ZM19.0833 8.83333C19.1667 8.75 19.1667 8.66667 19.0833 8.58333C19 8.5 18.9167 8.33333 18.75 8.25C18.6667 8.16667 18.6667 8.08333 18.75 8C18.8333 7.91667 18.8333 7.91667 18.9167 7.91667C19 7.91667 19.0833 7.83333 19.1667 7.91667C19.1667 8 19.25 8.08333 19.25 8.08333H19.1667C19.0833 8.08333 19.0833 8.08333 19 8.16667C19 8.16667 19 8.25 19 8.33333C19.0833 8.41667 19.1667 8.41667 19.25 8.5C19.25 8.5 19.3333 8.5 19.3333 8.58333C19.3333 8.58333 19.3333 8.66667 19.4167 8.66667C19.4167 8.66667 19.3333 8.66667 19.25 8.66667C19.3333 8.75 19.3333 8.83333 19.4167 8.83333C19.5 8.91667 19.5 8.91667 19.5 9.08333C19.5833 9.16667 19.5 9.16667 19.5 9.08333C19.4167 9.08333 19.25 9 19.1667 9C19.0833 9 19.0833 8.91667 19.0833 8.83333ZM20.0833 10.4167C20 10.5 19.9167 10.5 19.8333 10.5833C19.6667 10.6667 19.5833 10.6667 19.5833 10.5C19.4167 10.5 19.4167 10.5 19.3333 10.3333C19.25 10.25 19.25 10.1667 19.1667 10.0833C19.1667 10.0833 19.1667 10 19.1667 9.91667C19.25 9.91667 19.25 9.91667 19.3333 9.91667L19.4167 10C19.4167 10 19.5 10.0833 19.5 10.1667C19.5833 10.3333 19.75 10.4167 20 10.3333C20.0833 10.3333 20.0833 10.3333 20.0833 10.3333C20.0833 10.4167 20.0833 10.5 20.1667 10.5833C20.1667 10.5 20.1667 10.5 20.0833 10.4167Z" fill="white"/>
</svg>
