<svg width="222" height="130" fill="none" xmlns="http://www.w3.org/2000/svg"><g filter="url(#filter0_b)"><rect x="66.233" y=".957" width="36.833" height="36.833" rx="3.069" transform="rotate(45 66.233 .957)" fill="#FFA95A" fill-opacity=".24"/></g><path d="M71.643 25.41c.256-1.708-1.044-2.626-2.822-3.239l.576-2.313-1.408-.35-.561 2.251c-.37-.092-.75-.179-1.128-.265l.565-2.267-1.407-.351-.577 2.312c-.307-.07-.608-.138-.9-.211l.002-.007-1.942-.485-.374 1.504s1.044.24 1.023.254c.57.142.673.52.656.819l-.657 2.635c.039.01.09.025.146.047l-.149-.037-.92 3.692c-.07.174-.247.433-.646.335.014.02-1.023-.256-1.023-.256l-.7 1.612 1.833.457c.341.086.675.175 1.004.26l-.583 2.339 1.407.35.577-2.314c.384.104.757.2 1.122.291l-.575 2.304 1.408.351.583-2.335c2.401.454 4.207.27 4.967-1.901.612-1.749-.03-2.757-1.294-3.415.92-.212 1.613-.817 1.798-2.067zm-3.217 4.51c-.435 1.75-3.38.804-4.334.567l.773-3.1c.955.239 4.016.71 3.561 2.534zm.436-4.536c-.397 1.59-2.848.782-3.643.584l.701-2.811c.795.198 3.355.568 2.942 2.227z" fill="#FFA95A"/><g filter="url(#filter1_b)"><rect x="155.337" y=".957" width="36.833" height="36.833" rx="3.069" transform="rotate(45 155.337 .957)" fill="#D8DCF0" fill-opacity=".4"/></g><path fill-rule="evenodd" clip-rule="evenodd" d="M155.416 17.794l-4.395 6.78-1.659 2.558 6.054-2.558v-6.78z" fill="#8C8C8C"/><path fill-rule="evenodd" clip-rule="evenodd" d="M149.363 27.132l1.942 1.067 4.111 2.26v-5.885l-6.053 2.558z" fill="#393939"/><path fill-rule="evenodd" clip-rule="evenodd" d="M155.416 17.794v6.78l6.053 2.558-1.658-2.558-4.395-6.78z" fill="#343434"/><path fill-rule="evenodd" clip-rule="evenodd" d="M155.416 28.2v2.259l4.112-2.26 1.941-1.067-6.053-2.558v3.625z" fill="#151515"/><path fill-rule="evenodd" clip-rule="evenodd" d="M149.363 28.2l1.724 2.259 4.329 5.671v-4.606l-1.94-1.065-4.113-2.26z" fill="#8C8C8C"/><path fill-rule="evenodd" clip-rule="evenodd" d="M157.357 30.458l-1.941 1.066v4.606l4.331-5.672 1.722-2.254V28.2l-4.112 2.257z" fill="#343434"/><g filter="url(#filter2_b)"><rect x="65.537" y="77.284" width="36.833" height="36.833" rx="3.069" transform="rotate(45 65.537 77.284)" fill="#FF007A" fill-opacity=".24"/></g><g clip-path="url(#clip0)" fill="#FF007A"><path d="M63.881 98.514c-.191-.027-.2-.036-.11-.045.174-.028.575.009.858.073.657.155 1.25.556 1.879 1.258l.164.192.237-.037c1.012-.164 2.052-.036 2.918.365.237.109.61.328.657.383.018.018.045.137.063.255.064.429.037.748-.1.994-.073.137-.073.173-.027.292.036.091.145.155.246.155.219 0 .447-.347.556-.83l.046-.191.082.091c.465.52.83 1.24.884 1.751l.019.136-.082-.118a1.53 1.53 0 00-.438-.465c-.31-.21-.639-.274-1.505-.319-.784-.046-1.23-.11-1.669-.256-.747-.246-1.13-.565-2.015-1.741-.392-.52-.638-.803-.885-1.04-.538-.52-1.076-.793-1.778-.903z"/><path d="M70.675 99.672c.018-.346.064-.574.164-.784a.625.625 0 01.082-.155c.01 0-.009.064-.036.137-.073.2-.082.483-.037.802.064.411.091.465.53.912.2.21.437.474.528.584l.155.201-.155-.146c-.191-.183-.63-.529-.73-.575-.063-.036-.072-.036-.118.009-.036.037-.046.091-.046.356-.009.41-.063.666-.2.93-.073.137-.082.109-.018-.046.045-.118.054-.173.054-.565 0-.793-.09-.985-.647-1.304a6.823 6.823 0 00-.51-.264 2.02 2.02 0 01-.247-.119c.018-.018.556.137.766.228.32.128.374.137.41.128.028-.028.046-.1.055-.329zm-6.42 1.359c-.383-.529-.629-1.35-.574-1.96l.018-.192.091.018c.164.028.447.137.584.22.365.218.529.519.684 1.267.045.219.11.474.137.556.045.137.218.456.364.657.1.146.037.218-.191.2-.347-.036-.812-.355-1.113-.766zm5.955 3.967c-1.806-.73-2.444-1.359-2.444-2.426 0-.155.01-.282.01-.282.008 0 .072.054.154.118.365.292.775.42 1.915.584.666.1 1.049.173 1.395.292 1.104.364 1.788 1.112 1.952 2.124a3.69 3.69 0 01-.055 1.14c-.064.228-.246.648-.292.657-.009 0-.027-.046-.027-.119-.018-.383-.21-.748-.529-1.03-.383-.329-.875-.575-2.08-1.058zm-1.277.301a2.15 2.15 0 00-.09-.383l-.047-.137.083.1c.118.137.21.301.291.529.064.174.064.228.064.511 0 .273-.009.337-.064.492-.09.247-.2.42-.383.611-.328.338-.757.52-1.367.602-.11.009-.42.037-.694.055-.683.036-1.14.109-1.55.255-.054.018-.11.037-.118.028-.019-.019.264-.183.492-.292.32-.155.648-.237 1.368-.365.356-.055.72-.128.812-.164.902-.283 1.35-.985 1.203-1.842z"/><path d="M69.763 106.767c-.237-.52-.292-1.012-.164-1.477.018-.046.036-.092.055-.092.018 0 .073.028.127.064.11.073.338.201.921.52.739.401 1.159.711 1.45 1.067.256.31.41.666.484 1.103.045.247.018.839-.046 1.086-.2.775-.657 1.395-1.322 1.75a1.28 1.28 0 01-.192.092c-.009 0 .028-.092.082-.201.22-.465.246-.912.082-1.413-.1-.31-.31-.684-.73-1.314-.5-.729-.62-.921-.747-1.185zm-6.793 2.79c.674-.565 1.504-.966 2.27-1.094.329-.055.876-.036 1.177.046.483.127.92.401 1.148.738.22.329.32.611.42 1.241.037.246.082.501.091.556.073.328.22.583.401.72.283.21.775.219 1.259.037.082-.028.155-.055.155-.046.018.018-.228.182-.392.265-.228.118-.41.155-.657.155-.438 0-.811-.228-1.112-.684a5.215 5.215 0 01-.301-.602c-.32-.739-.484-.958-.857-1.204-.329-.21-.748-.255-1.067-.1-.42.2-.53.738-.237 1.067a.934.934 0 00.52.273.556.556 0 00.629-.556c0-.219-.082-.346-.301-.447-.292-.127-.611.018-.602.301 0 .119.055.192.173.246.073.037.073.037.018.028-.264-.055-.328-.383-.118-.593.255-.255.793-.146.975.21.073.146.082.437.019.62-.155.401-.593.611-1.04.492-.3-.082-.428-.164-.793-.538-.639-.656-.885-.784-1.797-.921l-.173-.027.192-.183z"/><path fill-rule="evenodd" clip-rule="evenodd" d="M58.173 94.885c2.124 2.58 5.398 6.593 5.562 6.812.137.182.082.356-.146.483a1.395 1.395 0 01-.52.146.66.66 0 01-.437-.191c-.082-.082-.438-.602-1.24-1.852-.611-.957-1.131-1.75-1.14-1.76-.037-.018-.037-.018 1.076 1.97.702 1.249.93 1.696.93 1.751 0 .119-.037.182-.182.347-.247.273-.356.583-.438 1.231-.091.72-.337 1.231-1.04 2.097-.41.511-.474.602-.574.812-.128.255-.164.401-.182.729-.019.347.018.565.118.894.091.292.191.483.438.857.21.328.337.574.337.666 0 .073.018.073.347 0 .784-.183 1.431-.493 1.787-.876.219-.237.274-.365.274-.693 0-.21-.01-.255-.064-.383-.092-.2-.265-.365-.639-.62-.492-.337-.702-.611-.756-.976-.046-.31.009-.519.282-1.094.283-.593.356-.839.401-1.441.028-.383.073-.538.183-.656.118-.128.219-.174.501-.21.465-.064.766-.182 1.004-.41.21-.192.3-.383.31-.666l.009-.21-.119-.127c-.428-.493-6.365-7.022-6.392-7.022-.01 0 .136.173.31.392zm2.8 12.967a.376.376 0 00-.12-.501c-.154-.101-.391-.055-.391.082 0 .036.018.073.072.091.083.046.092.091.028.191-.064.101-.064.192.018.256.128.1.301.045.392-.119zm3.693-4.796c-.22.064-.429.301-.493.538-.036.146-.018.41.046.492.1.128.191.164.447.164.501 0 .93-.219.975-.483.046-.219-.146-.52-.41-.657a.93.93 0 00-.565-.054zm.583.456c.073-.11.046-.228-.091-.31-.246-.155-.62-.028-.62.209 0 .119.191.247.374.247.118 0 .282-.073.337-.146z"/></g><g filter="url(#filter3_b)"><rect x="195.855" y="40.195" width="36.833" height="36.833" rx="3.069" transform="rotate(45 195.855 40.195)" fill="#30D29D" fill-opacity=".24"/></g><g clip-path="url(#clip1)" fill="#30D29D"><path d="M188.181 60.727v11.358l7.372 2.644V63.28l7.975-2.939-7.238-2.589-8.109 2.976z"/><path d="M196.157 63.607v6.21l7.372 2.645V60.88l-7.372 2.728z"/></g><g filter="url(#filter4_f)"><rect x="111.278" y="40.195" width="36.833" height="36.833" rx="3.069" transform="rotate(45 111.278 40.195)" stroke="#EA3A0D" stroke-opacity=".72" stroke-width="1.535"/></g><g filter="url(#filter5_b)"><rect x="111.278" y="40.195" width="36.833" height="36.833" rx="3.069" transform="rotate(45 111.278 40.195)" fill="#FB542B" fill-opacity=".24"/></g><path fill-rule="evenodd" clip-rule="evenodd" d="M119.819 62.984l-.579-1.54.402-.886a.299.299 0 00-.062-.336l-1.094-1.085a1.792 1.792 0 00-1.835-.419l-.306.104-1.598-1.79h-5.875l-1.577 1.812-.297-.103a1.796 1.796 0 00-1.853.423l-1.113 1.105a.237.237 0 00-.05.268l.42.919-.576 1.54.373 1.388 1.698 6.33c.195.73.645 1.368 1.272 1.806 0 0 2.061 1.425 4.095 2.72.179.114.366.197.566.194.201.002.388-.08.567-.195a150.65 150.65 0 004.091-2.725 3.22 3.22 0 001.27-1.808l1.69-6.332.371-1.39z" fill="url(#paint0_linear)"/><path fill-rule="evenodd" clip-rule="evenodd" d="M118.013 63.29l-.027.082-.042.148c-.112.137-.349.4-.527.586l-1.632 1.7c-.177.186-.277.418-.176.651l.22.532c.101.234.111.62.014.88a1.568 1.568 0 01-.491.675l-.17.136a.829.829 0 01-.791.093l-.751-.35a3.873 3.873 0 01-.776-.506l-.711-.627a.319.319 0 01-.018-.464l1.732-1.145c.215-.142.328-.405.206-.63l-.615-1.097c-.123-.224-.171-.522-.109-.662.062-.14.312-.328.554-.418l2.011-.732c.242-.09.229-.183-.029-.207l-1.285-.093c-.258-.024-.447.013-.697.081l-.972.236c-.25.068-.302.329-.255.578l.401 2.132c.047.25.07.501.051.559-.019.058-.241.15-.494.207l-.333.074a2.611 2.611 0 01-.92.006l-.402-.084c-.254-.053-.477-.144-.496-.201-.018-.058.004-.31.051-.56l.399-2.132c.047-.25-.007-.51-.256-.578l-.973-.234c-.25-.068-.439-.104-.697-.08l-1.285.094c-.258.024-.27.117-.028.207l2.011.73c.243.09.493.277.555.417.063.14.014.437-.108.661l-.614 1.1c-.122.223-.008.486.207.628l1.733 1.143a.319.319 0 01-.016.465l-.711.627c-.192.17-.541.399-.775.508l-.751.35a.83.83 0 01-.791-.092l-.171-.136a1.595 1.595 0 01-.499-.695c-.09-.239-.08-.625.021-.859l.219-.532c.101-.234.001-.466-.177-.65l-1.634-1.7a12.552 12.552 0 01-.527-.584l-.043-.149-.026-.082c-.003-.095.032-.398.071-.48.04-.081.19-.32.336-.53l.349-.507c.145-.21.396-.545.558-.744l.512-.63c.162-.197.299-.359.32-.358.001-.001.21.037.465.085l.776.146.624.117c.089.016.363-.035.61-.113l.558-.177c.246-.078.621-.182.831-.23l.196.003.195-.003c.21.048.585.15.831.229l.559.176c.247.078.521.129.61.112l.514-.097.109-.02.776-.147c.255-.048.464-.087.479-.086.007 0 .145.16.306.359l.514.629c.161.198.413.532.558.742l.35.506c.146.21.373.593.387.68.015.086.024.235.022.33zm-6.105 5.075c.023 0 .238.079.477.176l.222.09c.24.097.625.27.856.386l.656.326c.231.115.248.33.037.477l-.56.392c-.21.148-.542.404-.736.57l-.705.603a.554.554 0 01-.698.002 86.78 86.78 0 00-.699-.598c-.194-.164-.526-.419-.738-.565l-.558-.386c-.211-.146-.196-.362.034-.48l.659-.336c.23-.117.613-.293.853-.39l.222-.09c.239-.098.454-.177.477-.177h.201z" fill="url(#paint1_linear)"/><g filter="url(#filter6_b)"><rect x="154.64" y="77.284" width="36.833" height="36.833" rx="3.069" transform="rotate(45 154.64 77.284)" fill="#4C54D2" fill-opacity=".24"/></g><path fill-rule="evenodd" clip-rule="evenodd" d="M146.993 108.801l4.51-2.625 3.11-5.398v-5.205c-.082 0-.164.055-.226.162l-3.684 6.395-3.683 6.394c-.062.108-.068.205-.027.277z" fill="#FF4724"/><path fill-rule="evenodd" clip-rule="evenodd" d="M154.613 95.573v5.205l3.11 5.398 4.511 2.625c.04-.072.034-.169-.028-.277l-3.683-6.394-3.684-6.395c-.062-.108-.144-.162-.226-.162z" fill="#9E1F63"/><path fill-rule="evenodd" clip-rule="evenodd" d="M162.234 108.801l-4.511-2.625h-6.219l-4.511 2.625c.04.071.128.115.252.115h14.736c.124 0 .212-.044.253-.115z" fill="#662D91"/><path fill-rule="evenodd" clip-rule="evenodd" d="M151.504 106.176h6.219l-3.11-5.398-3.109 5.398z" fill="#fff"/><g filter="url(#filter7_b)"><rect x="26.7" y="40.195" width="36.833" height="36.833" rx="3.069" transform="rotate(45 26.7 40.195)" fill="#50AF95" fill-opacity=".24"/></g><path fill-rule="evenodd" clip-rule="evenodd" d="M28.262 66.772c-.088.006-.538.033-1.543.033-.8 0-1.367-.024-1.566-.033-3.09-.136-5.395-.674-5.395-1.318s2.306-1.18 5.395-1.319v2.101c.202.015.78.049 1.58.049.959 0 1.44-.04 1.526-.048v-2.1c3.082.137 5.383.675 5.383 1.317 0 .643-2.3 1.18-5.383 1.317h.003zm0-2.853v-1.88h4.302v-2.866H20.85v2.866h4.301v1.88c-3.496.16-6.125.853-6.125 1.683 0 .83 2.629 1.522 6.125 1.683v6.024h3.109v-6.026c3.488-.161 6.113-.853 6.113-1.682 0-.83-2.623-1.521-6.113-1.682z" fill="#50AF95"/><defs><filter id="filter0_b" x="37.119" y="-2.113" width="58.229" height="58.229" filterUnits="userSpaceOnUse" color-interpolation-filters="sRGB"><feFlood flood-opacity="0" result="BackgroundImageFix"/><feGaussianBlur in="BackgroundImage" stdDeviation="1.535"/><feComposite in2="SourceAlpha" operator="in" result="effect1_backgroundBlur"/><feBlend in="SourceGraphic" in2="effect1_backgroundBlur" result="shape"/></filter><filter id="filter1_b" x="126.223" y="-2.113" width="58.229" height="58.229" filterUnits="userSpaceOnUse" color-interpolation-filters="sRGB"><feFlood flood-opacity="0" result="BackgroundImageFix"/><feGaussianBlur in="BackgroundImage" stdDeviation="1.535"/><feComposite in2="SourceAlpha" operator="in" result="effect1_backgroundBlur"/><feBlend in="SourceGraphic" in2="effect1_backgroundBlur" result="shape"/></filter><filter id="filter2_b" x="36.422" y="74.215" width="58.229" height="58.229" filterUnits="userSpaceOnUse" color-interpolation-filters="sRGB"><feFlood flood-opacity="0" result="BackgroundImageFix"/><feGaussianBlur in="BackgroundImage" stdDeviation="1.535"/><feComposite in2="SourceAlpha" operator="in" result="effect1_backgroundBlur"/><feBlend in="SourceGraphic" in2="effect1_backgroundBlur" result="shape"/></filter><filter id="filter3_b" x="166.74" y="37.126" width="58.229" height="58.229" filterUnits="userSpaceOnUse" color-interpolation-filters="sRGB"><feFlood flood-opacity="0" result="BackgroundImageFix"/><feGaussianBlur in="BackgroundImage" stdDeviation="1.535"/><feComposite in2="SourceAlpha" operator="in" result="effect1_backgroundBlur"/><feBlend in="SourceGraphic" in2="effect1_backgroundBlur" result="shape"/></filter><filter id="filter4_f" x="61.181" y="16.144" width="100.193" height="100.193" filterUnits="userSpaceOnUse" color-interpolation-filters="sRGB"><feFlood flood-opacity="0" result="BackgroundImageFix"/><feBlend in="SourceGraphic" in2="BackgroundImageFix" result="shape"/><feGaussianBlur stdDeviation="12.278" result="effect1_foregroundBlur"/></filter><filter id="filter5_b" x="82.163" y="37.126" width="58.229" height="58.229" filterUnits="userSpaceOnUse" color-interpolation-filters="sRGB"><feFlood flood-opacity="0" result="BackgroundImageFix"/><feGaussianBlur in="BackgroundImage" stdDeviation="1.535"/><feComposite in2="SourceAlpha" operator="in" result="effect1_backgroundBlur"/><feBlend in="SourceGraphic" in2="effect1_backgroundBlur" result="shape"/></filter><filter id="filter6_b" x="125.526" y="74.215" width="58.229" height="58.229" filterUnits="userSpaceOnUse" color-interpolation-filters="sRGB"><feFlood flood-opacity="0" result="BackgroundImageFix"/><feGaussianBlur in="BackgroundImage" stdDeviation="1.535"/><feComposite in2="SourceAlpha" operator="in" result="effect1_backgroundBlur"/><feBlend in="SourceGraphic" in2="effect1_backgroundBlur" result="shape"/></filter><filter id="filter7_b" x="-2.414" y="37.126" width="58.229" height="58.229" filterUnits="userSpaceOnUse" color-interpolation-filters="sRGB"><feFlood flood-opacity="0" result="BackgroundImageFix"/><feGaussianBlur in="BackgroundImage" stdDeviation="1.535"/><feComposite in2="SourceAlpha" operator="in" result="effect1_backgroundBlur"/><feBlend in="SourceGraphic" in2="effect1_backgroundBlur" result="shape"/></filter><linearGradient id="paint0_linear" x1="103.826" y1="75.564" x2="119.819" y2="75.564" gradientUnits="userSpaceOnUse"><stop stop-color="#F50"/><stop offset=".41" stop-color="#F50"/><stop offset=".494" stop-color="#FF4530"/><stop offset=".572" stop-color="#FF2000"/><stop offset="1" stop-color="#FF2000"/></linearGradient><linearGradient id="paint1_linear" x1="111.805" y1="74.231" x2="117.612" y2="74.231" gradientUnits="userSpaceOnUse"><stop stop-color="#fff"/><stop offset="1" stop-color="#F4F4F4"/></linearGradient><clipPath id="clip0"><path fill="#fff" transform="translate(57.863 94.493)" d="M0 0h15.347v17.673H0z"/></clipPath><clipPath id="clip1"><path fill="#fff" transform="translate(188.181 57.751)" d="M0 0h15.347v16.978H0z"/></clipPath></defs></svg>