<svg width="289" height="169" fill="none" xmlns="http://www.w3.org/2000/svg"><g filter="url(#filter0_b)"><rect x="86.0098" y=".943359" width="48" height="48" rx="4" transform="rotate(45 86.0098 .943359)" fill="#FFA95A" fill-opacity=".24"/></g><path d="M93.0598 32.8093c.3328-2.2255-1.3615-3.4218-3.6784-4.2198l.7516-3.0146-1.835-.4573-.7317 2.9353c-.4824-.1204-.9779-.2337-1.4703-.3461l.737-2.9546-1.8339-.4573-.752 3.0136c-.3992-.0909-.7914-.1807-1.1718-.2754l.0021-.0094-2.5306-.632-.4881 1.96s1.3615.3121 1.3328.3313c.7431.1855.8775.6774.8551 1.0673l-.8561 3.4343c.0512.013.1175.0318.1908.0612-.0613-.0152-.1264-.0318-.194-.0479l-1.2 4.811c-.0908.2257-.3214.5645-.8409.4359.0184.0266-1.3338-.3329-1.3338-.3329l-.911 2.1006 2.388.5953c.4443.1114.8796.228 1.3084.3376l-.7594 3.0492 1.8329.4572.752-3.0168c.5008.136.9867.2613 1.4625.3795l-.7495 3.0026 1.8351.4573.7593-3.0435c3.1292.5922 5.4821.3535 6.4725-2.4769.798-2.2787-.0397-3.5931-1.686-4.4502 1.1991-.2766 2.1022-1.0652 2.343-2.6943l-.0006-.0004v.0002zm-4.1928 5.8792c-.5671 2.2788-4.4038 1.047-5.6477.7381l1.0077-4.0397c1.2438.3106 5.2327.9251 4.6401 3.3016h-.0001zm.5676-5.9123c-.5174 2.0728-3.7107 1.0197-4.7466.7615l.9136-3.6637c1.0359.2583 4.3719.7402 3.8331 2.9022h-.0001z" fill="#FFA95A"/><g filter="url(#filter1_b)"><rect x="202.127" y=".943359" width="48" height="48" rx="4" transform="rotate(45 202.127 .943359)" fill="#D8DCF0" fill-opacity=".4"/></g><path fill-rule="evenodd" clip-rule="evenodd" d="M202.228 22.8848l-5.727 8.8357-2.161 3.3337 7.888-3.3337v-8.8357z" fill="#8C8C8C"/><path fill-rule="evenodd" clip-rule="evenodd" d="M194.34 35.0541l2.531 1.391 5.357 2.9443v-7.6689l-7.888 3.3336z" fill="#393939"/><path fill-rule="evenodd" clip-rule="evenodd" d="M202.229 22.8848v8.8357l7.888 3.3337-2.161-3.3337-5.727-8.8357z" fill="#343434"/><path fill-rule="evenodd" clip-rule="evenodd" d="M202.229 36.4451v2.9445l5.357-2.9445 2.531-1.391-7.888-3.3334v4.7244z" fill="#151515"/><path fill-rule="evenodd" clip-rule="evenodd" d="M194.34 36.4452l2.247 2.9445 5.641 7.3906v-6.0022l-2.528-1.3884-5.36-2.9445z" fill="#8C8C8C"/><path fill-rule="evenodd" clip-rule="evenodd" d="M204.758 39.3893l-2.529 1.3887v6.0021l5.644-7.3908 2.244-2.9383v-.0036l-5.359 2.9419z" fill="#343434"/><g filter="url(#filter2_b)"><rect x="85.1016" y="100.411" width="48" height="48" rx="4" transform="rotate(45 85.1016 100.411)" fill="#FF007A" fill-opacity=".24"/></g><g clip-path="url(#clip0)" fill="#FF007A"><path d="M82.9442 128.077c-.2496-.035-.2615-.047-.1426-.059.2258-.036.7486.012 1.117.095.8556.202 1.6281.725 2.448 1.64l.2139.25.309-.048c1.3191-.214 2.6738-.048 3.8027.475.309.143.7962.428.8556.499.0238.024.0595.179.0832.333.0832.559.0476.975-.1307 1.295-.0951.179-.0951.226-.0356.381.0475.119.1901.202.3208.202.2852 0 .5823-.452.7249-1.082l.0594-.249.107.119c.606.677 1.0814 1.616 1.1527 2.281l.0238.179-.107-.155c-.1783-.273-.3446-.452-.5704-.606-.404-.273-.8319-.356-1.9608-.416-1.022-.059-1.6043-.143-2.1747-.333-.9744-.321-1.4735-.736-2.6262-2.269-.511-.678-.8319-1.046-1.1527-1.355-.7012-.677-1.4023-1.034-2.3173-1.177z"/><path d="M91.7983 129.587c.0238-.452.0832-.749.2139-1.022.0476-.107.0951-.202.107-.202.0119 0-.0119.083-.0475.178-.0951.261-.107.63-.0476 1.046.0832.534.1189.606.6893 1.188.2614.273.5704.618.6892.761l.202.261-.202-.19c-.2495-.238-.8199-.689-.9507-.749-.0832-.047-.095-.047-.1545.012-.0475.048-.0594.119-.0594.464-.0119.534-.0832.867-.2614 1.212-.0951.178-.107.142-.0238-.06.0594-.154.0713-.225.0713-.736 0-1.034-.1188-1.284-.8437-1.7-.1783-.107-.4872-.261-.6655-.344-.1901-.084-.3327-.155-.3208-.155.0237-.024.7248.178.9982.297.4159.167.4872.178.5347.167.0357-.036.0595-.131.0713-.428zM83.4324 131.358c-.4991-.69-.82-1.759-.7487-2.555l.0238-.25.1188.024c.2139.035.5823.178.7606.285.4753.285.6892.677.8912 1.652.0595.285.1426.618.1783.725.0594.178.2852.594.4753.855.1307.19.0476.286-.2495.262-.4516-.048-1.0577-.464-1.4498-.998zM91.1926 136.527c-2.3529-.951-3.1848-1.771-3.1848-3.161 0-.202.0119-.369.0119-.369.0119 0 .0951.072.202.155.4754.38 1.0101.546 2.4956.76.8675.131 1.3666.226 1.8181.381 1.438.475 2.3292 1.449 2.5431 2.768.0594.381.0238 1.106-.0713 1.486-.0832.297-.3208.844-.3802.856-.0119 0-.0357-.06-.0357-.155-.0238-.499-.2733-.974-.6892-1.343-.4992-.428-1.1409-.748-2.7095-1.378zM89.5282 136.919c-.0238-.178-.0832-.404-.1189-.499l-.0594-.179.107.131c.1544.178.2733.392.3802.689.0832.226.0832.298.0832.666 0 .356-.0119.44-.0832.642-.1188.32-.2614.546-.4991.796-.4278.44-.9863.677-1.7825.784-.1426.012-.5467.048-.9032.071-.8912.048-1.4854.143-2.0202.333-.0713.024-.1426.048-.1544.036-.0238-.024.3446-.238.6417-.38.4159-.202.8437-.309 1.7825-.476.4635-.071.9388-.166 1.0576-.214 1.1765-.368 1.7588-1.283 1.5687-2.4z"/><path d="M90.6098 138.832c-.3089-.677-.3802-1.319-.2139-1.925.0238-.06.0476-.119.0713-.119.0238 0 .0951.036.1664.083.1426.095.4397.262 1.2002.678.9626.522 1.5093.927 1.8895 1.39.3328.404.5348.867.6299 1.438.0594.321.0237 1.093-.0595 1.414-.2614 1.01-.8556 1.818-1.7231 2.282-.1307.071-.2376.118-.2495.118-.0119 0 .0356-.118.1069-.261.2852-.606.3209-1.188.107-1.842-.1307-.404-.4041-.891-.9507-1.711-.6536-.951-.8081-1.2-.9745-1.545zM81.7574 142.469c.8793-.737 1.9608-1.26 2.959-1.426.4278-.072 1.1408-.048 1.5329.059.6299.166 1.2003.523 1.4974.963.2852.427.4159.796.5466 1.616.0475.321.107.653.1188.725.0951.427.2853.76.5229.938.3684.274 1.0101.286 1.64.048.1069-.036.202-.071.202-.059.0237.023-.2971.237-.511.344-.2971.155-.5348.202-.8556.202-.5704 0-1.0577-.297-1.4498-.891-.0832-.119-.2496-.463-.3922-.784-.4159-.963-.6298-1.248-1.117-1.569-.4278-.273-.9745-.333-1.3904-.131-.5467.262-.6893.963-.309 1.391.1545.178.4397.321.6774.356.4397.06.8199-.285.8199-.725 0-.285-.1069-.451-.3921-.582-.3803-.166-.7962.024-.7843.392 0 .155.0713.25.2258.321.095.048.095.048.0237.036-.3446-.072-.4278-.499-.1545-.773.3328-.333 1.0339-.19 1.2716.274.095.19.1069.57.0237.808-.202.523-.7724.796-1.3547.641-.3921-.107-.5585-.214-1.0338-.701-.8319-.855-1.1527-1.022-2.3411-1.2l-.2258-.036.2496-.237z"/><path fill-rule="evenodd" clip-rule="evenodd" d="M75.5061 123.348c2.7689 3.363 7.0351 8.592 7.249 8.877.1782.238.1069.463-.1901.63-.1664.095-.511.19-.6774.19-.1901 0-.4159-.095-.5704-.25-.107-.107-.5704-.784-1.6162-2.412-.7962-1.248-1.4735-2.282-1.4854-2.294-.0476-.023-.0476-.023 1.4022 2.567.9151 1.628 1.2122 2.211 1.2122 2.282 0 .154-.0476.238-.2377.451-.3209.357-.4635.761-.5704 1.605-.1189.939-.4397 1.604-1.3547 2.733-.5348.665-.618.784-.7487 1.058-.1664.332-.2139.523-.2377.95-.0237.452.0238.737.1545 1.165.1188.38.2496.63.5704 1.117.2733.428.4397.749.4397.867 0 .096.0238.096.4516 0 1.022-.237 1.8657-.641 2.3292-1.14.2852-.309.3565-.476.3565-.904 0-.273-.0119-.332-.0832-.499-.1189-.261-.3446-.475-.8319-.808-.6417-.439-.915-.796-.9863-1.271-.0594-.404.0119-.678.3684-1.426.3684-.773.4634-1.094.5229-1.878.0356-.499.095-.701.2376-.855.1545-.167.2852-.226.6536-.274.6061-.083.9982-.237 1.3072-.535.2733-.249.3922-.499.4041-.867l.0118-.273-.1544-.167c-.5586-.641-8.2948-9.15-8.3304-9.15-.0119 0 .1782.226.404.511zm3.6483 16.898c.1307-.225.0594-.511-.1545-.653-.202-.131-.511-.072-.511.107 0 .047.0238.095.0951.118.1069.06.1188.119.0356.25s-.0832.25.0238.333c.1664.131.3921.059.511-.155zM83.9667 133.996c-.2852.083-.5585.392-.6417.701-.0475.19-.0238.534.0594.641.1307.167.2496.214.5823.214.6536 0 1.2121-.285 1.2716-.63.0594-.285-.1902-.677-.5348-.855-.1783-.095-.5466-.131-.7368-.071zm.7606.594c.095-.143.0594-.297-.1189-.404-.3208-.202-.8081-.036-.8081.273 0 .154.2496.321.4873.321.1545 0 .3684-.095.4397-.19z"/></g><g filter="url(#filter3_b)"><rect x="254.93" y="52.0781" width="48" height="48" rx="4" transform="rotate(45 254.93 52.0781)" fill="#30D29D" fill-opacity=".24"/></g><g clip-path="url(#clip1)" fill="#30D29D"><path d="M244.93 78.8348v14.8003l9.606 3.4464V82.1611l10.394-3.8307-9.433-3.3743-10.567 3.8787z"/><path d="M255.322 82.5874v8.0937l9.607 3.4464V79.0329l-9.607 3.5545z"/></g><g filter="url(#filter4_f)"><rect x="144.711" y="52.0781" width="48" height="48" rx="4" transform="rotate(45 144.711 52.0781)" stroke="#EA3A0D" stroke-opacity=".72" stroke-width="2"/></g><g filter="url(#filter5_b)"><rect x="144.711" y="52.0781" width="48" height="48" rx="4" transform="rotate(45 144.711 52.0781)" fill="#FB542B" fill-opacity=".24"/></g><path fill-rule="evenodd" clip-rule="evenodd" d="M155.841 81.7756l-.754-2.008.524-1.1535c.067-.1485.035-.3228-.082-.438l-1.425-1.4143c-.624-.618-1.554-.8305-2.392-.5455l-.398.1355-2.082-2.3332h-7.656l-2.056 2.3615-.387-.1338c-.846-.2917-1.787-.077-2.415.5508l-1.451 1.4407c-.093.0923-.118.2308-.064.349l.547 1.1973-.75 2.007.486 1.8095 2.212 8.2477c.255.951.842 1.7838 1.658 2.354 0 0 2.686 1.8575 5.336 3.5445.233.1485.477.257.739.253.261.0035.505-.1045.738-.2537 2.976-1.9133 5.332-3.5513 5.332-3.5513.815-.5712 1.401-1.405 1.655-2.3562l2.202-8.251.483-1.812z" fill="url(#paint0_linear)"/><path fill-rule="evenodd" clip-rule="evenodd" d="M153.487 82.1737l-.034.1075-.055.1928c-.147.179-.456.5226-.687.7639l-2.127 2.2163c-.231.2411-.362.5434-.23.8479l.287.6931c.132.3043.145.8079.019 1.146-.129.344-.35.6481-.64.8799l-.222.1772c-.261.2093-.725.2643-1.03.1221l-.98-.4556c-.305-.1418-.76-.4391-1.011-.6606l-.927-.8167c-.181-.1595-.191-.4335-.022-.6051l2.256-1.4927c.28-.185.428-.5273.269-.8191l-.802-1.4313c-.159-.292-.223-.6798-.142-.8621.082-.1823.407-.4273.723-.5446l2.62-.9541c.315-.1173.299-.2383-.038-.2693l-1.674-.122c-.336-.0311-.583.017-.908.106l-1.267.3073c-.325.089-.394.4283-.333.7533l.523 2.7785c.061.3253.091.6528.066.7281-.024.0753-.314.1965-.643.2698l-.434.0963c-.329.0732-.869.0765-1.199.0077l-.524-.1095c-.331-.069-.621-.187-.646-.262-.024-.0753.005-.4034.066-.7284l.52-2.779c.061-.3253-.009-.6641-.334-.7528l-1.267-.3058c-.326-.0888-.573-.1358-.909-.1048l-1.674.1235c-.336.0313-.353.1523-.037.2691l2.621.9514c.316.117.642.3615.723.5438.082.182.018.5698-.14.8619l-.801 1.4317c-.159.2921-.01.6344.27.8192l2.259 1.4904c.168.1713.158.4456-.022.6051l-.926.8179c-.251.2218-.706.5194-1.01.6619l-.979.4568c-.305.1423-.769.088-1.031-.1208l-.222-.177c-.29-.2315-.512-.5353-.651-.9066-.116-.3108-.104-.8139.027-1.1187l.286-.6931c.132-.3048.001-.6071-.231-.8479l-2.129-2.2139c-.231-.2408-.541-.5841-.687-.7626l-.056-.193-.034-.1075c-.004-.1238.042-.5184.093-.6251.051-.1063.248-.4179.437-.6919l.456-.6604c.189-.274.516-.7098.726-.9686l.668-.8201c.211-.2586.39-.4691.417-.4674.002-.0017.274.048.606.1103l1.011.1903c.332.0622.698.1307.813.152.116.0215.473-.0445.795-.1465l.727-.2308c.322-.1023.809-.2368 1.084-.2993l.254.0037.255-.004c.274.062.762.1961 1.083.2978l.728.2301c.322.1017.679.1673.795.1457.099-.0184.382-.072.67-.1265l.143-.027 1.011-.191c.332-.0628.604-.1128.624-.1113.008-.0015.188.2083.399.4671l.669.8194c.211.2583.538.6936.728.9676l.456.6596c.19.2738.485.7722.504.8854.019.1133.031.3073.028.4311zm-7.957 6.6139c.03 0 .31.1033.622.2301l.29.1175c.312.1265.814.3525 1.115.5023l.854.4251c.301.1495.323.4295.048.6221l-.729.5106c-.274.1925-.706.5265-.96.7431l-.919.7856c-.252.2158-.661.2168-.908.0028-.248-.2143-.658-.5651-.911-.7794-.254-.2146-.687-.5461-.963-.7366l-.726-.5026c-.276-.191-.256-.4723.043-.6251l.859-.4381c.3-.153.8-.3821 1.112-.5086l.29-.118c.311-.1268.591-.2308.621-.2308h.262z" fill="url(#paint1_linear)"/><g filter="url(#filter6_b)"><rect x="201.219" y="100.411" width="48" height="48" rx="4" transform="rotate(45 201.219 100.411)" fill="#4C54D2" fill-opacity=".24"/></g><path fill-rule="evenodd" clip-rule="evenodd" d="M191.252 141.482l5.879-3.42 4.052-7.035v-6.782c-.107 0-.214.071-.295.211l-4.8 8.333-4.8 8.332c-.081.141-.089.268-.036.361z" fill="#FF4724"/><path fill-rule="evenodd" clip-rule="evenodd" d="M201.184 124.245v6.782l4.052 7.035 5.878 3.42c.053-.093.046-.22-.035-.361l-4.8-8.332-4.801-8.333c-.081-.141-.188-.211-.294-.211z" fill="#9E1F63"/><path fill-rule="evenodd" clip-rule="evenodd" d="M211.113 141.482l-5.878-3.42h-8.105l-5.878 3.42c.053.093.167.151.329.151h19.203c.162 0 .276-.058.329-.151z" fill="#662D91"/><path fill-rule="evenodd" clip-rule="evenodd" d="M197.131 138.062h8.105l-4.053-7.035-4.052 7.035z" fill="#fff"/><g filter="url(#filter7_b)"><rect x="34.4922" y="52.0781" width="48" height="48" rx="4" transform="rotate(45 34.4922 52.0781)" fill="#50AF95" fill-opacity=".24"/></g><path fill-rule="evenodd" clip-rule="evenodd" d="M36.5268 86.7115c-.1136.0086-.7007.0436-2.0105.0436-1.0417 0-1.7813-.0313-2.0408-.0436-4.0257-.1771-7.0306-.8779-7.0306-1.7169 0-.8391 3.0049-1.5389 7.0306-1.7188v2.7378c.2633.0189 1.0171.0634 2.0588.0634 1.2501 0 1.8761-.0521 1.9888-.0625v-2.7368c4.0172.1789 7.0154.8797 7.0154 1.7169s-2.9973 1.5379-7.0154 1.716l.0037.0009zm0-3.717v-2.4499h5.6064v-3.736h-15.264v3.736h5.6054v2.4489c-4.5561.2093-7.9824 1.1118-7.9824 2.1933s3.4263 1.9831 7.9824 2.1933v7.8508h4.0513v-7.8536c4.5457-.2093 7.9663-1.1109 7.9663-2.1914 0-1.0806-3.4178-1.9821-7.9663-2.1924l.0009.001z" fill="#50AF95"/><defs><filter id="filter0_b" x="48.0684" y="-3.05664" width="75.8822" height="75.8822" filterUnits="userSpaceOnUse" color-interpolation-filters="sRGB"><feFlood flood-opacity="0" result="BackgroundImageFix"/><feGaussianBlur in="BackgroundImage" stdDeviation="2"/><feComposite in2="SourceAlpha" operator="in" result="effect1_backgroundBlur"/><feBlend in="SourceGraphic" in2="effect1_backgroundBlur" result="shape"/></filter><filter id="filter1_b" x="164.186" y="-3.05664" width="75.8822" height="75.8822" filterUnits="userSpaceOnUse" color-interpolation-filters="sRGB"><feFlood flood-opacity="0" result="BackgroundImageFix"/><feGaussianBlur in="BackgroundImage" stdDeviation="2"/><feComposite in2="SourceAlpha" operator="in" result="effect1_backgroundBlur"/><feBlend in="SourceGraphic" in2="effect1_backgroundBlur" result="shape"/></filter><filter id="filter2_b" x="47.1602" y="96.4111" width="75.8822" height="75.8822" filterUnits="userSpaceOnUse" color-interpolation-filters="sRGB"><feFlood flood-opacity="0" result="BackgroundImageFix"/><feGaussianBlur in="BackgroundImage" stdDeviation="2"/><feComposite in2="SourceAlpha" operator="in" result="effect1_backgroundBlur"/><feBlend in="SourceGraphic" in2="effect1_backgroundBlur" result="shape"/></filter><filter id="filter3_b" x="216.988" y="48.0781" width="75.8822" height="75.8822" filterUnits="userSpaceOnUse" color-interpolation-filters="sRGB"><feFlood flood-opacity="0" result="BackgroundImageFix"/><feGaussianBlur in="BackgroundImage" stdDeviation="2"/><feComposite in2="SourceAlpha" operator="in" result="effect1_backgroundBlur"/><feBlend in="SourceGraphic" in2="effect1_backgroundBlur" result="shape"/></filter><filter id="filter4_f" x="79.4258" y="20.735" width="130.569" height="130.569" filterUnits="userSpaceOnUse" color-interpolation-filters="sRGB"><feFlood flood-opacity="0" result="BackgroundImageFix"/><feBlend in="SourceGraphic" in2="BackgroundImageFix" result="shape"/><feGaussianBlur stdDeviation="16" result="effect1_foregroundBlur"/></filter><filter id="filter5_b" x="106.77" y="48.0781" width="75.8822" height="75.8822" filterUnits="userSpaceOnUse" color-interpolation-filters="sRGB"><feFlood flood-opacity="0" result="BackgroundImageFix"/><feGaussianBlur in="BackgroundImage" stdDeviation="2"/><feComposite in2="SourceAlpha" operator="in" result="effect1_backgroundBlur"/><feBlend in="SourceGraphic" in2="effect1_backgroundBlur" result="shape"/></filter><filter id="filter6_b" x="163.277" y="96.4111" width="75.8822" height="75.8822" filterUnits="userSpaceOnUse" color-interpolation-filters="sRGB"><feFlood flood-opacity="0" result="BackgroundImageFix"/><feGaussianBlur in="BackgroundImage" stdDeviation="2"/><feComposite in2="SourceAlpha" operator="in" result="effect1_backgroundBlur"/><feBlend in="SourceGraphic" in2="effect1_backgroundBlur" result="shape"/></filter><filter id="filter7_b" x="-3.44922" y="48.0781" width="75.8822" height="75.8822" filterUnits="userSpaceOnUse" color-interpolation-filters="sRGB"><feFlood flood-opacity="0" result="BackgroundImageFix"/><feGaussianBlur in="BackgroundImage" stdDeviation="2"/><feComposite in2="SourceAlpha" operator="in" result="effect1_backgroundBlur"/><feBlend in="SourceGraphic" in2="effect1_backgroundBlur" result="shape"/></filter><linearGradient id="paint0_linear" x1="135" y1="98.1691" x2="155.841" y2="98.1691" gradientUnits="userSpaceOnUse"><stop stop-color="#F50"/><stop offset=".409877" stop-color="#F50"/><stop offset=".49434" stop-color="#FF4530"/><stop offset=".572365" stop-color="#FF2000"/><stop offset="1" stop-color="#FF2000"/></linearGradient><linearGradient id="paint1_linear" x1="145.397" y1="96.4317" x2="152.965" y2="96.4317" gradientUnits="userSpaceOnUse"><stop stop-color="#fff"/><stop offset="1" stop-color="#F4F4F4"/></linearGradient><clipPath id="clip0"><path fill="#fff" transform="translate(75.1016 122.837)" d="M0 0h20v23.0303H0z"/></clipPath><clipPath id="clip1"><path fill="#fff" transform="translate(244.93 74.9561)" d="M0 0h20v22.1255H0z"/></clipPath></defs></svg>