<svg width="103" height="88" fill="none" xmlns="http://www.w3.org/2000/svg"><path opacity=".24" d="M36.339 12.1745c-1.2018-4.32484-5.6821-6.85654-10.0069-5.65472-4.3248 1.20182-6.8565 5.68202-5.6547 10.00682 1.2019 4.3249 5.6821 6.8566 10.0069 5.6547 4.3248-1.2018 6.8565-5.682 5.6547-10.0068z" fill="url(#paint0_radial)"/><path d="M32.8536 21.8977c4.1637-2.4039 5.5902-7.728 3.1864-11.8916-2.4039-4.16368-7.728-5.59026-11.8916-3.18637-4.1637 2.40389-5.5903 7.72797-3.1864 11.89157 2.4039 4.1637 7.7279 5.5903 11.8916 3.1864z" fill="#FFD43B"/><path d="M33.1579 21.7006c-1.4534.924-3.1483 1.3961-4.8701 1.3567-1.7218-.0395-3.3933-.5888-4.8028-1.5785-1.4095-.9897-2.4938-2.3752-3.1157-3.9813-.6219-1.6061-.7533-3.3606-.3778-5.0414.3756-1.6808 1.2413-3.21251 2.4876-4.4012 1.2463-1.18869 2.8172-1.98099 4.5139-2.27663 1.6967-.29564 3.443-.08135 5.0179.61577 1.5749.69711 2.9076 1.84572 3.8295 3.30048 1.2347 1.94828 1.6456 4.30698 1.1427 6.55798-.503 2.2511-1.8788 4.2105-3.8252 5.4481zM24.3987 7.82105c-1.274.81076-2.2791 1.98097-2.8882 3.36275-.6092 1.3818-.7951 2.9131-.5343 4.4005.2609 1.4874.9568 2.8642 1.9998 3.9562 1.0429 1.0921 2.3863 1.8504 3.8601 2.1793 1.4739.3289 3.0121.2135 4.4204-.3316 1.4083-.545 2.6235-1.4953 3.4919-2.7307.8684-1.2354 1.3511-2.7006 1.3872-4.2102.036-1.5097-.3763-2.9962-1.1848-4.2716-1.0908-1.70711-2.813-2.913-4.7903-3.35421-1.9772-.4412-4.0487-.08184-5.7618.99956z" fill="#FFDD63"/><path d="M31.7496 20.007c3.1227-1.8029 4.1927-5.796 2.3897-8.9187-1.8029-3.12275-5.7959-4.19268-8.9187-2.38976-3.1227 1.80296-4.1926 5.79596-2.3897 8.91866 1.8029 3.1228 5.7959 4.1927 8.9187 2.3898z" fill="#FFDD63"/><path fill-rule="evenodd" clip-rule="evenodd" d="M26.8819 11.5146l-.1475 2.8607-.0557 1.0793 1.405-1.8584-1.2018-2.0816z" fill="#fff"/><path fill-rule="evenodd" clip-rule="evenodd" d="M26.6741 15.4553l.7855-.0165 1.6627-.0351-.4005-.6936-.6426-1.1131-1.4051 1.8583z" fill="#F1F1F1"/><path fill-rule="evenodd" clip-rule="evenodd" d="M26.8789 11.5148l1.2018 2.0816 2.3119-.2876-.9625-.4914-2.5512-1.3026z" fill="#fff"/><path fill-rule="evenodd" clip-rule="evenodd" d="M28.7227 14.7102l.4005.6937.8618-1.4225.4069-.6719-2.3118.2877.6426 1.113z" fill="#F1F1F1"/><path fill-rule="evenodd" clip-rule="evenodd" d="M26.8652 15.7824l.93.388 2.3343.9739-.8164-1.414v-.0001l-.7845.0168-1.6633.0354h-.0001z" fill="#fff"/><path fill-rule="evenodd" clip-rule="evenodd" d="M29.7187 15.0572l-.407.6712.8164 1.4141.3245-2.509.129-.9975-.0005-.0008-.8624 1.422z" fill="#fff"/><path d="M92.5316 26.7827c4.9341 0 8.9344-3.9998 8.9344-8.9339 0-4.9341-4.0003-8.93401-8.9344-8.93401s-8.9339 3.99991-8.9339 8.93401c0 4.9341 3.9998 8.9339 8.9339 8.9339z" fill="#FFD43B"/><path opacity=".24" d="M93.0151 26.1866c4.6044-.2671 8.1209-4.2162 7.8529-8.8205-.267-4.6044-4.2158-8.12042-8.8201-7.85332-4.6044.26709-8.1204 4.21622-7.8533 8.82052.2671 4.6044 4.2162 8.1204 8.8205 7.8533z" fill="url(#paint1_radial)"/><path d="M95.8155 26.7733c-1.767.6498-3.6869.7609-5.517.3194-1.8302-.4416-3.4882-1.416-4.7644-2.8001-1.2762-1.384-2.1133-3.1155-2.4053-4.9754-.2919-1.8598-.0258-3.7645.7649-5.473.7907-1.7086 2.0704-3.1442 3.6771-4.12539 1.6068-.98115 3.4684-1.46371 5.3495-1.38664 1.881.07707 3.697.71031 5.2181 1.81963 1.5211 1.1093 2.6786 2.6448 3.3276 4.4123.866 2.3685.758 4.9839-.302 7.2726-1.059 2.2887-2.9824 4.064-5.3485 4.9366zm-6.1646-16.7276c-1.5495.5703-2.8952 1.5872-3.8669 2.9221-.9718 1.3349-1.526 2.9278-1.5927 4.5776-.0666 1.6498.3572 3.2823 1.2181 4.6912.8609 1.409 2.1201 2.5311 3.6185 3.2246 1.4984.6935 3.1687.9273 4.8.6718 1.6312-.2556 3.1501-.9889 4.3646-2.1074 1.2146-1.1185 2.0705-2.572 2.4595-4.1766.388-1.6047.293-3.2887-.275-4.839-.7648-2.0803-2.3241-3.7718-4.3354-4.7027-2.0114-.93094-4.3101-1.02502-6.3907-.2616z" fill="#FFDD63"/><path d="M92.5314 25.0403c3.9728 0 7.1934-3.2207 7.1934-7.1935 0-3.9729-3.2206-7.1935-7.1934-7.1935-3.9729 0-7.1935 3.2206-7.1935 7.1935 0 3.9728 3.2206 7.1935 7.1935 7.1935z" fill="#FFDD63"/><path d="M96.1496 16.5494c.1514-1.0126-.6195-1.5569-1.6737-1.92l.342-1.3716-.8349-.208-.3329 1.3355c-.2195-.0548-.445-.1063-.669-.1575l.3353-1.3443-.8344-.2081-.3422 1.3712c-.1816-.0413-.36-.0822-.5331-.1253l.001-.0043-1.1514-.2875-.2222.8918s.6195.142.6065.1507c.3381.0844.3992.3082.3891.4856l-.3896 1.5626c.0233.0059.0535.0145.0868.0279-.0278-.007-.0575-.0145-.0882-.0219l-.5461 2.189c-.0413.1027-.1462.2569-.3825.1983.0083.0122-.6069-.1514-.6069-.1514l-.4145.9557 1.0865.2709c.2022.0507.4002.1037.5953.1536l-.3455 1.3874.834.208.3421-1.3726c.2279.0618.449.1189.6654.1727l-.341 1.3661.835.2081.3455-1.3848c1.4237.2695 2.4943.1608 2.9449-1.127.3631-1.0368-.0181-1.6348-.7671-2.0248.5456-.1258.9565-.4846 1.0661-1.2259l-.0003-.0002v.0001zm-1.9077 2.675c-.258 1.0369-2.0037.4764-2.5697.3359l.4585-1.8381c.5659.1413 2.3809.4209 2.1112 1.5022zm.2582-2.69c-.2354.9431-1.6883.464-2.1597.3465l.4157-1.667c.4714.1175 1.9892.3368 1.7441 1.3205h-.0001z" fill="#fff"/><path opacity=".24" d="M15.7212 37.0924c-.831-2.9905-3.9289-4.7411-6.91937-3.91-2.99047.831-4.74105 3.9289-3.91003 6.9194.83101 2.9904 3.92894 4.741 6.9194 3.91 2.9905-.831 4.7411-3.9289 3.91-6.9194z" fill="url(#paint2_radial)"/><path d="M13.3105 43.8154c2.879-1.6622 3.8654-5.3436 2.2032-8.2226-1.6622-2.8791-5.3436-3.8655-8.22263-2.2033s-3.86546 5.3436-2.20325 8.2227c1.66221 2.879 5.34358 3.8654 8.22268 2.2032z" fill="#FFD43B"/><path d="M13.5205 43.6792c-1.005.639-2.1769.9654-3.3675.9381-1.19055-.0273-2.34629-.4071-3.32093-1.0914-.97465-.6844-1.7244-1.6424-2.15439-2.753-.42999-1.1105-.5209-2.3237-.26122-3.4859.25968-1.1623.85828-2.2214 1.72005-3.0433.86178-.8219 1.948-1.3698 3.12122-1.5742 1.17317-.2044 2.38067-.0563 3.46967.4258 1.089.482 2.0105 1.2762 2.648 2.2821.8537 1.3472 1.1379 2.9782.7901 4.5347-.3477 1.5565-1.299 2.9114-2.645 3.7671zM7.46389 34.082c-.88093.5606-1.57592 1.3698-1.99714 2.3252-.42122.9555-.54977 2.0144-.3694 3.0429.18036 1.0284.66154 1.9804 1.38274 2.7355.72119.7551 1.65004 1.2795 2.66916 1.5069 1.01915.2274 2.08275.1477 3.05655-.2292.9738-.3769 1.814-1.034 2.4145-1.8883.6005-.8542.9343-1.8673.9592-2.9112.0249-1.0439-.2601-2.0717-.8192-2.9537-.7543-1.1803-1.9451-2.0142-3.3123-2.3193-1.3672-.305-2.79957-.0565-3.98411.6912z" fill="#FFDD63"/><path d="M12.5473 42.5081c2.1593-1.2467 2.8991-4.0078 1.6524-6.167-1.2466-2.1593-4.0077-2.8991-6.16694-1.6525-2.15928 1.2467-2.8991 4.0077-1.65244 6.167 1.24666 2.1593 4.00768 2.8991 6.16698 1.6525z" fill="#FFDD63"/><path fill-rule="evenodd" clip-rule="evenodd" d="M9.17959 36.6362l-.10198 1.978-.03851.7463.9715-1.2849-.83101-1.4394z" fill="#fff"/><path fill-rule="evenodd" clip-rule="evenodd" d="M9.03815 39.3613l.5431-.0114 1.14975-.0242-.277-.4797-.4443-.7696-.97155 1.2849z" fill="#F1F1F1"/><path fill-rule="evenodd" clip-rule="evenodd" d="M9.17773 36.636l.83107 1.4393 1.5986-.1988-.6656-.3399-1.76407-.9006z" fill="#fff"/><path fill-rule="evenodd" clip-rule="evenodd" d="M10.4541 38.8458l.2769.4796.5959-.9836.2814-.4646-1.5985.1989.4443.7697z" fill="#F1F1F1"/><path fill-rule="evenodd" clip-rule="evenodd" d="M9.16797 39.5869l.64306.2683 1.61407.6734-.5645-.9778-.5425.0116-1.1501.0244-.00003.0001zM11.1419 39.0861l-.2815.4641.5645.9778.2244-1.7349.0892-.6897-.0003-.0006-.5963.9833z" fill="#fff"/><path opacity=".24" d="M44.4869 46.4447c-.8311-2.9905-3.929-4.7411-6.9194-3.9101-2.9905.831-4.7411 3.929-3.9101 6.9194.831 2.9905 3.929 4.7411 6.9194 3.9101 2.9905-.8311 4.7411-3.929 3.9101-6.9194z" fill="url(#paint3_radial)"/><path d="M42.0761 53.1677c2.879-1.6622 3.8654-5.3436 2.2032-8.2227-1.6622-2.879-5.3436-3.8654-8.2226-2.2032-2.879 1.6622-3.8655 5.3436-2.2033 8.2226 1.6623 2.8791 5.3437 3.8655 8.2227 2.2033z" fill="#FFD43B"/><path d="M42.2862 53.0315c-1.005.6389-2.177.9654-3.3675.9381-1.1906-.0273-2.3464-.4071-3.321-1.0915-.9747-.6843-1.7244-1.6423-2.1544-2.7529-.43-1.1106-.5209-2.3237-.2612-3.486.2597-1.1622.8583-2.2213 1.72-3.0432.8618-.822 1.948-1.3698 3.1213-1.5742 1.1732-.2045 2.3807-.0563 3.4697.4257 1.0889.4821 2.0105 1.2763 2.6479 2.2822.8538 1.3472 1.1379 2.9781.7902 4.5347-.3478 1.5565-1.2991 2.9114-2.645 3.7671zm-6.0567-9.5972c-.8809.5606-1.5759 1.3697-1.9971 2.3252-.4212.9555-.5498 2.0143-.3694 3.0428.1803 1.0285.6615 1.9805 1.3827 2.7356.7212.7551 1.6501 1.2795 2.6692 1.5069 1.0191.2274 2.0828.1476 3.0565-.2293.9738-.3769 1.8141-1.034 2.4145-1.8882.6005-.8543.9343-1.8673.9592-2.9112.025-1.0439-.2601-2.0718-.8192-2.9537-.7543-1.1804-1.9451-2.0142-3.3123-2.3193-1.3672-.3051-2.7995-.0566-3.9841.6912z" fill="#FFDD63"/><path d="M41.3129 51.8603c2.1593-1.2466 2.8991-4.0077 1.6525-6.167-1.2467-2.1592-4.0077-2.8991-6.167-1.6524-2.1593 1.2467-2.8991 4.0077-1.6525 6.167 1.2467 2.1593 4.0078 2.8991 6.167 1.6524z" fill="#FFDD63"/><path fill-rule="evenodd" clip-rule="evenodd" d="M37.9452 45.9881l-.102 1.9781-.0385.7463.9715-1.285-.831-1.4394z" fill="#fff"/><path fill-rule="evenodd" clip-rule="evenodd" d="M37.8038 48.7133l.5431-.0114 1.1497-.0243-.2769-.4796-.4444-.7697-.9715 1.285z" fill="#F1F1F1"/><path fill-rule="evenodd" clip-rule="evenodd" d="M37.9434 45.9879l.831 1.4394 1.5986-.1989-.6656-.3398-1.764-.9007z" fill="#fff"/><path fill-rule="evenodd" clip-rule="evenodd" d="M39.2197 48.1977l.277.4797.5959-.9836.2814-.4646-1.5986.1989.4443.7696z" fill="#F1F1F1"/><path fill-rule="evenodd" clip-rule="evenodd" d="M37.9336 48.9388l.6431.2683 1.614.6734-.5645-.9777-.5424.0115-1.1502.0245zM39.9075 48.4381l-.2815.4641.5646.9778.2243-1.7349.0892-.6897-.0003-.0006-.5963.9833z" fill="#fff"/><path opacity=".24" d="M94.8695 64.0731c.7756-3.0054-1.032-6.0704-4.0373-6.8459-3.0053-.7756-6.0704 1.032-6.8459 4.0373-.7756 3.0054 1.032 6.0704 4.0374 6.8459 3.0053.7756 6.0703-1.032 6.8458-4.0373z" fill="url(#paint4_radial)"/><path d="M89.4198 68.6901c3.3244 0 6.0194-2.695 6.0194-6.0194 0-3.3244-2.695-6.0194-6.0194-6.0194-3.3244 0-6.0194 2.695-6.0194 6.0194 0 3.3244 2.695 6.0194 6.0194 6.0194z" fill="#FFD43B"/><path d="M89.6709 68.6772c-1.1898.0509-2.3679-.2523-3.3854-.8713-1.0174-.6189-1.8284-1.5257-2.3303-2.6057-.5019-1.0799-.6721-2.2845-.4893-3.4613.1829-1.1768.7108-2.2728 1.5168-3.1495.806-.8767 1.854-1.4946 3.0112-1.7755 1.1573-.281 2.3719-.2123 3.4902.1973 1.1183.4095 2.0899 1.1416 2.792 2.1035.702.962 1.103 2.1106 1.1521 3.3004.0658 1.5936-.5036 3.1481-1.5831 4.3222-1.0794 1.1741-2.5807 1.8718-4.1742 1.9399zm-.4466-11.3397c-1.0432.045-2.0496.3983-2.8921 1.0151-.8426.6169-1.4833 1.4696-1.8414 2.4505-.358.9809-.4173 2.0459-.1703 3.0604.2471 1.0146.7893 1.9331 1.5581 2.6396.7689.7065 1.73 1.1693 2.7617 1.3298 1.0318.1605 2.088.0115 3.0352-.428.9471-.4396 1.7427-1.1501 2.2863-2.0416.5435-.8916.8105-1.9243.7674-2.9676-.0631-1.3994-.6775-2.7169-1.709-3.6647-1.0314-.9478-2.3961-1.4488-3.7959-1.3935z" fill="#FFDD63"/><path d="M89.413 67.1779c2.4933 0 4.5145-2.0212 4.5145-4.5146 0-2.4933-2.0212-4.5145-4.5145-4.5145s-4.5146 2.0212-4.5146 4.5145c0 2.4934 2.0213 4.5146 4.5146 4.5146z" fill="#FFDD63"/><path d="M91.659 62.0854c.0939-.6279-.3842-.9654-1.0379-1.1906l.2121-.8506-.5178-.129-.2064.8282c-.1362-.034-.2759-.066-.4149-.0977l.208-.8336-.5175-.1291-.2122.8504c-.1126-.0257-.2233-.051-.3306-.0777l.0006-.0027-.714-.1783-.1378.553s.3842.0881.3761.0935c.2097.0523.2476.1911.2413.3011l-.2416.969c.0144.0037.0332.009.0538.0173-.0172-.0043-.0356-.0089-.0547-.0135l-.3386 1.3575c-.0256.0637-.0907.1593-.2372.123.0051.0075-.3764-.094-.3764-.094l-.2571.5927.6739.168c.1253.0314.2481.0643.3691.0953l-.2142.8603.5171.129.2122-.8512c.1413.0384.2784.0737.4127.1071l-.2115.8472.5178.129.2142-.8587c.883.1671 1.5469.0997 1.8263-.6989.2252-.643-.0112-1.0138-.4757-1.2557.3383-.078.5931-.3005.6611-.7602l-.0002-.0001zm-1.183 1.6589c-.16.643-1.2426.2954-1.5936.2083l.2843-1.1398c.351.0876 1.4765.261 1.3093.9315zm.1601-1.6682c-.146.5849-1.047.2877-1.3393.2149l.2578-1.0338c.2923.0729 1.2336.2089 1.0816.8189h-.0001z" fill="#fff"/><rect x="15.5586" y="33.317" width="71.8825" height="53.8568" rx="2.76471" fill="#D9CDFF"/><path fill-rule="evenodd" clip-rule="evenodd" d="M51.4994 14.5422c-9.3725 0-17.2795 7.4676-17.2795 18.7743h-8.2941c0-15.5384 11.279-27.06845 25.5736-27.06845 14.2946 0 25.5736 11.53005 25.5736 27.06845h-8.2942c0-11.3067-7.907-18.7743-17.2794-18.7743z" fill="url(#paint5_linear)"/><path fill-rule="evenodd" clip-rule="evenodd" d="M56.0282 62.9634c2.267-1.4804 3.7652-4.0401 3.7652-6.9496 0-4.5807-3.7135-8.2941-8.2942-8.2941s-8.2941 3.7134-8.2941 8.2941c0 2.9098 1.4984 5.4697 3.7657 6.95l.6527 6.1067c.0465.9967.4751 1.9373 1.1969 2.6263.7218.6889 1.6813 1.0734 2.6791 1.0734.9979 0 1.9574-.3845 2.6792-1.0734.7218-.689 1.1504-1.6296 1.1968-2.6263l.6527-6.1071z" fill="#7A5ECF"/><defs><radialGradient id="paint0_radial" cx="0" cy="0" r="1" gradientUnits="userSpaceOnUse" gradientTransform="rotate(-32.37 -292.66234676 -2744.02213018) scale(88.4273)"><stop stop-color="#B39117"/><stop offset=".85" stop-color="#B39117"/><stop offset="1" stop-color="#FFDD63" stop-opacity="0"/></radialGradient><radialGradient id="paint1_radial" cx="0" cy="0" r="1" gradientUnits="userSpaceOnUse" gradientTransform="rotate(-20.16 -390.80129373 -4064.04076077) scale(162.676)"><stop stop-color="#B39117"/><stop offset=".85" stop-color="#B39117"/><stop offset="1" stop-color="#FFDD63" stop-opacity="0"/></radialGradient><radialGradient id="paint2_radial" cx="0" cy="0" r="1" gradientUnits="userSpaceOnUse" gradientTransform="rotate(-32.37 -157.67061006 -1866.86100567) scale(61.1445)"><stop stop-color="#B39117"/><stop offset=".85" stop-color="#B39117"/><stop offset="1" stop-color="#FFDD63" stop-opacity="0"/></radialGradient><radialGradient id="paint3_radial" cx="0" cy="0" r="1" gradientUnits="userSpaceOnUse" gradientTransform="rotate(-32.37 -127.1789707 -1911.73314608) scale(61.1445)"><stop stop-color="#B39117"/><stop offset=".85" stop-color="#B39117"/><stop offset="1" stop-color="#FFDD63" stop-opacity="0"/></radialGradient><radialGradient id="paint4_radial" cx="0" cy="0" r="1" gradientUnits="userSpaceOnUse" gradientTransform="matrix(61.0922 -2.52848 2.52848 61.0922 1131.42 187.249)"><stop stop-color="#B39117"/><stop offset=".85" stop-color="#B39117"/><stop offset="1" stop-color="#FFDD63" stop-opacity="0"/></radialGradient><linearGradient id="paint5_linear" x1="51.4994" y1="6.24805" x2="51.4994" y2="33.3165" gradientUnits="userSpaceOnUse"><stop stop-color="#A78AFF"/><stop offset="1" stop-color="#785CCD"/></linearGradient></defs></svg>