<svg width="92" height="92" fill="none" xmlns="http://www.w3.org/2000/svg"><path fill-rule="evenodd" clip-rule="evenodd" d="M63.2539 92H28.7462c-5.2823 0-9.5795-4.2397-9.5795-9.4568V34.7607c0-1.656 1.0619-3.036 2.5262-3.5727.552-.3028 1.15-.5213 1.8208-.5213h3.3197V3.83333C26.8334 1.7135 28.5507 0 30.6667 0h30.6667c2.116 0 3.8334 1.7135 3.8334 3.83333V30.6667h3.3196c.6709 0 1.2689.2185 1.8209.5213 1.4643.5367 2.5261 1.9167 2.5261 3.5727v47.7825c0 5.2171-4.2971 9.4568-9.5795 9.4568zM57.5001 7.66667h-23V30.6628h23V7.66667zM26.8334 38.3333v44.2099c0 .9698.8778 1.7901 1.9128 1.7901h34.5077c1.035 0 1.9128-.8203 1.9128-1.7901V38.3333H26.8334zM42.1667 11.5c2.116 0 3.8334 1.7135 3.8334 3.8333 0-2.1198 1.7173-3.8333 3.8333-3.8333 2.116 0 3.8333 1.7135 3.8333 3.8333V23c0 2.1198-1.7173 3.8333-3.8333 3.8333-2.116 0-3.8333-1.7135-3.8333-3.8333 0 2.1198-1.7174 3.8333-3.8334 3.8333S38.3334 25.1198 38.3334 23v-7.6667c0-2.1198 1.7173-3.8333 3.8333-3.8333z" fill="url(#paint0_linear)"/><defs><linearGradient id="paint0_linear" x1="62.6804" y1="75.0336" x2="12.6403" y2="36.275" gradientUnits="userSpaceOnUse"><stop stop-color="#DD7131"/><stop offset="1" stop-color="#FBD460"/></linearGradient></defs></svg>