<svg width="12" height="12" viewBox="0 0 12 12" fill="none" xmlns="http://www.w3.org/2000/svg">
  <path fill-rule="evenodd" clip-rule="evenodd" d="M11.4777 12.0003H8.86896C8.58096 12.0003 8.34722 11.7665 8.34722 11.4785V8.8698C8.34722 8.5818 8.58096 8.34805 8.86896 8.34805H11.4777C11.7657 8.34805 11.9994 8.5818 11.9994 8.8698V11.4785C11.9994 11.7665 11.7657 12.0003 11.4777 12.0003ZM10.9571 9.39104H9.39187V10.9563H10.9571V9.39104ZM11.4777 7.82583H8.86896C8.58096 7.82583 8.34722 7.59209 8.34722 7.30409V4.69535C8.34722 4.40735 8.58096 4.17361 8.86896 4.17361H11.4777C11.7657 4.17361 11.9994 4.40735 11.9994 4.69535V7.30409C11.9994 7.59209 11.7657 7.82583 11.4777 7.82583ZM10.9571 5.21743H9.39187V6.78267H10.9571V5.21743ZM11.4777 3.65223H8.86896C8.58096 3.65223 8.34722 3.41848 8.34722 3.13048V0.521747C8.34722 0.233742 8.58096 0 8.86896 0H11.4777C11.7657 0 11.9994 0.233742 11.9994 0.521747V3.13048C11.9994 3.41848 11.7657 3.65223 11.4777 3.65223ZM10.9571 1.04382H9.39187V2.60906H10.9571V1.04382ZM7.30576 12.0003H4.69703C4.40902 12.0003 4.17528 11.7665 4.17528 11.4785V8.8698C4.17528 8.5818 4.40902 8.34805 4.69703 8.34805H7.30576C7.59377 8.34805 7.82751 8.5818 7.82751 8.8698V11.4785C7.82751 11.7665 7.59377 12.0003 7.30576 12.0003ZM6.78351 9.39104H5.21827V10.9563H6.78351V9.39104ZM7.30576 7.82583H4.69703C4.40902 7.82583 4.17528 7.59209 4.17528 7.30409V4.69535C4.17528 4.40735 4.40902 4.17361 4.69703 4.17361H7.30576C7.59377 4.17361 7.82751 4.40735 7.82751 4.69535V7.30409C7.82751 7.59209 7.59377 7.82583 7.30576 7.82583ZM6.78351 5.21743H5.21827V6.78267H6.78351V5.21743ZM7.30576 3.65223H4.69703C4.40902 3.65223 4.17528 3.41848 4.17528 3.13048V0.521747C4.17528 0.233742 4.40902 0 4.69703 0H7.30576C7.59377 0 7.82751 0.233742 7.82751 0.521747V3.13048C7.82751 3.41848 7.59377 3.65223 7.30576 3.65223ZM6.78351 1.04382H5.21827V2.60906H6.78351V1.04382ZM3.13048 12.0003H0.521747C0.233742 12.0003 0 11.7665 0 11.4785V8.8698C0 8.5818 0.233742 8.34805 0.521747 8.34805H3.13048C3.41848 8.34805 3.65223 8.5818 3.65223 8.8698V11.4785C3.65223 11.7665 3.41848 12.0003 3.13048 12.0003ZM2.60822 9.39104H1.04298V10.9563H2.60822V9.39104ZM3.13048 7.82583H0.521747C0.233742 7.82583 0 7.59209 0 7.30409V4.69535C0 4.40735 0.233742 4.17361 0.521747 4.17361H3.13048C3.41848 4.17361 3.65223 4.40735 3.65223 4.69535V7.30409C3.65223 7.59209 3.41848 7.82583 3.13048 7.82583ZM2.60822 5.21743H1.04298V6.78267H2.60822V5.21743ZM3.13048 3.65223H0.521747C0.233742 3.65223 0 3.41848 0 3.13048V0.521747C0 0.233742 0.233742 0 0.521747 0H3.13048C3.41848 0 3.65223 0.233742 3.65223 0.521747V3.13048C3.65223 3.41848 3.41848 3.65223 3.13048 3.65223ZM2.60822 1.04382H1.04298V2.60906H2.60822V1.04382Z" fill="white"/>
</svg>
