<svg width="18" height="18" viewBox="0 0 18 18" fill="none" xmlns="http://www.w3.org/2000/svg">
<path fill-rule="evenodd" clip-rule="evenodd" d="M0 9C0 8.61765 0.309957 8.30769 0.692308 8.30769C1.07466 8.30769 1.38462 8.61765 1.38462 9C1.38462 13.2059 4.79414 16.6154 9 16.6154C13.2059 16.6154 16.6154 13.2059 16.6154 9C16.6154 4.79414 13.2059 1.38462 9 1.38462C7.01965 1.38462 5.16586 2.14488 3.77255 3.46154H5.53846C5.92081 3.46154 6.23077 3.77149 6.23077 4.15385C6.23077 4.5362 5.92081 4.84615 5.53846 4.84615H2.07692C1.69457 4.84615 1.38462 4.5362 1.38462 4.15385V0.692308C1.38462 0.309957 1.69457 0 2.07692 0C2.45927 0 2.76923 0.309957 2.76923 0.692308V2.50502C4.42133 0.918617 6.63526 0 9 0C13.9706 0 18 4.02944 18 9C18 13.9706 13.9706 18 9 18C4.02944 18 0 13.9706 0 9ZM10.1994 10.3846C9.95997 10.7985 9.5125 11.0769 9 11.0769C8.2353 11.0769 7.61538 10.457 7.61538 9.69231C7.61538 9.1798 7.89383 8.73234 8.30769 8.49293V5.53846C8.30769 5.15611 8.61765 4.84615 9 4.84615C9.38235 4.84615 9.69231 5.15611 9.69231 5.53846V8.49293C9.90251 8.61453 10.0778 8.7898 10.1994 9H13.8462C14.2285 9 14.5385 9.30996 14.5385 9.69231C14.5385 10.0747 14.2285 10.3846 13.8462 10.3846H10.1994Z" fill="white"/>
</svg>
