<svg width="24" height="24" viewBox="0 0 24 24" fill="none" xmlns="http://www.w3.org/2000/svg">
<path fill-rule="evenodd" clip-rule="evenodd" d="M2.76925 10.3075C2.34385 10.3075 2 9.96286 2 9.53824C2 9.11361 2.34385 8.76899 2.76925 8.76899H4.00004C4.42466 8.76899 4.76928 9.11361 4.76928 9.53824C4.76928 9.96286 4.42466 10.3075 4.00004 10.3075H2.76925ZM5.77472 13.9175C6.07549 14.2183 6.07549 14.7052 5.77472 15.0052L3.92853 16.8514C3.77853 17.0022 3.5816 17.0768 3.38467 17.0768C3.18775 17.0768 2.99082 17.0022 2.84082 16.8514C2.54004 16.5514 2.54004 16.0637 2.84082 15.7637L4.68701 13.9175C4.98778 13.6175 5.47471 13.6175 5.77472 13.9175ZM2.84082 3.31272C2.54004 3.01271 2.54004 2.52578 2.84082 2.225C3.14082 1.925 3.62775 1.925 3.92853 2.225L5.77472 4.07119C6.07549 4.3712 6.07549 4.8589 5.77472 5.15891C5.62472 5.30891 5.42779 5.3843 5.23086 5.3843C5.03393 5.3843 4.83701 5.30891 4.68701 5.15891L2.84082 3.31272ZM22.0004 9.53824C22.0004 9.96286 21.6566 10.3075 21.2312 10.3075H20.0004C19.5758 10.3075 19.2311 9.96286 19.2311 9.53824C19.2311 9.11361 19.5758 8.76899 20.0004 8.76899H21.2312C21.6566 8.76899 22.0004 9.11361 22.0004 9.53824ZM21.1596 15.7637C21.4604 16.0637 21.4604 16.5514 21.1596 16.8514C21.0096 17.0022 20.8127 17.0768 20.6158 17.0768C20.4189 17.0768 20.2219 17.0022 20.0719 16.8514L18.2257 15.0052C17.925 14.7052 17.925 14.2183 18.2257 13.9175C18.5257 13.6175 19.0127 13.6175 19.3135 13.9175L21.1596 15.7637ZM18.2257 5.15891C17.925 4.8589 17.925 4.3712 18.2257 4.07119L20.0719 2.225C20.3727 1.925 20.8596 1.925 21.1596 2.225C21.4604 2.52578 21.4604 3.01271 21.1596 3.31272L19.3135 5.15891C19.1635 5.30891 18.9665 5.3843 18.7696 5.3843C18.5727 5.3843 18.3757 5.30891 18.2257 5.15891ZM14.3987 14.1191C14.3779 14.1352 14.3572 14.1521 14.3387 14.1698C13.7379 14.7252 13.691 15.8091 13.691 16.1283V16.4468C12.2979 17.0468 10.954 16.683 10.3078 16.4299V16.1283C10.3078 15.8091 10.2609 14.7245 9.65937 14.1698C9.64091 14.1529 9.62014 14.136 9.60014 14.1206C8.51935 13.3083 7.23087 11.8975 7.23087 9.78206C7.23087 7.01816 9.37014 4.76889 11.9994 4.76889C14.6287 4.76889 16.768 7.01816 16.768 9.78206C16.768 11.8975 15.4795 13.3083 14.3987 14.1191ZM11.9994 20.4615C10.674 20.4615 10.3694 19.6299 10.3079 19.3761V18.0461C10.7971 18.1876 11.4071 18.3099 12.0979 18.3099C12.5971 18.3099 13.1379 18.2338 13.691 18.0699V19.3738C13.6248 19.6423 13.3148 20.4615 11.9994 20.4615ZM11.9994 3.2304C8.52166 3.2304 5.69237 6.16969 5.69237 9.78206C5.69237 11.9375 6.70239 13.8452 8.61627 15.3045C8.6932 15.4299 8.76782 15.8237 8.76935 16.1283V19.453C8.76935 19.493 8.77243 19.5338 8.77859 19.573C8.9109 20.413 9.75476 22 11.9994 22C14.2448 22 15.0879 20.4123 15.221 19.573C15.2264 19.533 15.2295 19.493 15.2295 19.453V16.1283C15.2295 15.8537 15.301 15.4276 15.3756 15.3106C17.2934 13.8498 18.3065 11.9398 18.3065 9.78206C18.3065 6.16969 15.4779 3.2304 11.9994 3.2304Z" fill="white"/>
</svg>
