<svg width="12" height="12" viewBox="0 0 12 12" fill="none" xmlns="http://www.w3.org/2000/svg">
<path fill-rule="evenodd" clip-rule="evenodd" d="M10.2415 10.243C9.1084 11.376 7.60146 12 5.99792 12C4.39489 12 2.88795 11.376 1.75436 10.2425C-0.584786 7.903 -0.584786 4.0965 1.75436 1.7575C2.88795 0.624 4.39489 0 5.99792 0C7.60146 0 9.1084 0.624 10.2415 1.7575C11.3756 2.8905 12 4.3975 12 6C12 7.6025 11.3756 9.1095 10.2415 10.243ZM9.53457 2.4645C8.59015 1.52 7.33429 1 5.99793 1C4.66206 1 3.4062 1.52 2.46179 2.4645C0.512081 4.414 0.512081 7.586 2.46179 9.5355C3.4062 10.48 4.66206 11 5.99793 11C7.33429 11 8.59015 10.48 9.53457 9.5355C10.4795 8.5915 10.9997 7.3355 10.9997 6C10.9997 4.6645 10.4795 3.409 9.53457 2.4645ZM6.99869 9.5H4.99817C4.72244 9.5 4.49803 9.276 4.49803 9C4.49803 8.724 4.72244 8.5 4.99817 8.5H5.4983V6.5H4.99817C4.72244 6.5 4.49803 6.276 4.49803 6C4.49803 5.724 4.72244 5.5 4.99817 5.5H5.99843C6.27466 5.5 6.49856 5.724 6.49856 6V8.5H6.99869C7.27492 8.5 7.49882 8.724 7.49882 9C7.49882 9.276 7.27492 9.5 6.99869 9.5ZM5.99843 4.5C5.44698 4.5 4.99817 4.051 4.99817 3.4995C4.99817 2.9485 5.44698 2.5 5.99843 2.5C6.55038 2.5 6.99869 2.9485 6.99869 3.4995C6.99869 4.051 6.55038 4.5 5.99843 4.5Z" fill="#495057"/>
</svg>
