<svg width="14" height="14" viewBox="0 0 14 14" fill="none" xmlns="http://www.w3.org/2000/svg">
  <path d="M12.8644 3.78435C12.8644 3.77235 12.8584 3.75434 12.8584 3.74234C12.8524 3.68232 12.8344 3.62229 12.8104 3.56827C12.8044 3.55627 12.8104 3.55027 12.8043 3.53826C12.8043 3.53226 12.7983 3.53226 12.7923 3.52626C12.7623 3.46624 12.7203 3.41222 12.6663 3.3642C12.6543 3.3522 12.6423 3.3462 12.6303 3.33419C12.6063 3.31618 12.5883 3.29818 12.5643 3.28017L7.02428 0.0810289C6.83822 -0.0270096 6.61014 -0.0270096 6.42407 0.0810289L0.884092 3.28617C0.860083 3.29818 0.836074 3.31618 0.818068 3.33419C0.806064 3.3462 0.794059 3.3522 0.782055 3.3642C0.728036 3.41222 0.686021 3.46624 0.65601 3.52626C0.65601 3.53226 0.650008 3.53226 0.644006 3.53826C0.638004 3.55027 0.644006 3.55627 0.638004 3.56827C0.613995 3.62229 0.595989 3.68232 0.589987 3.74234C0.589987 3.75434 0.589987 3.76635 0.583984 3.78435C0.583984 3.79035 0.583984 3.79636 0.583984 3.80236V10.2006C0.583984 10.4167 0.698025 10.6148 0.884092 10.7228L6.42407 13.922C6.43607 13.928 6.45408 13.934 6.46609 13.94C6.48409 13.946 6.4961 13.952 6.5141 13.958C6.58013 13.982 6.65215 14 6.71818 14C6.7842 14 6.85623 13.982 6.92225 13.958C6.94026 13.952 6.95826 13.946 6.97027 13.94C6.98227 13.934 7.00028 13.928 7.01228 13.922L12.5523 10.7228C12.7383 10.6148 12.8524 10.4167 12.8524 10.2006V3.80236C12.8704 3.79636 12.8644 3.79035 12.8644 3.78435ZM6.72418 1.29946L10.9917 3.76034L6.72418 5.84309L2.46266 3.76034L6.72418 1.29946ZM1.78441 4.7627L6.12396 6.88746V12.3614L1.78441 9.85852V4.7627ZM7.32439 12.3614V6.88746L11.6639 4.7627V9.85252L7.32439 12.3614Z" fill="white"/>
</svg>
