<svg width="18" height="18" viewBox="0 0 18 18" fill="none" xmlns="http://www.w3.org/2000/svg">
<path fill-rule="evenodd" clip-rule="evenodd" d="M12.3749 11.2508C11.677 11.2508 11.0048 11.1225 10.3664 10.878L9 12.3022V12.7507C9 13.1655 8.66424 13.5007 8.25019 13.5007H6.74981V15.0007C6.74981 15.4155 6.41405 15.7515 6 15.7515H4.50038V17.25C4.50038 17.664 4.16386 18 3.74981 18H0.749812C0.335759 18 0 17.664 0 17.25L0 15.0518C0 14.9535 0.0195734 14.856 0.0579674 14.7645C0.0948557 14.6753 0.148306 14.5957 0.214555 14.5282C0.216813 14.526 0.217566 14.523 0.219824 14.5208L7.11794 7.62075C6.87629 6.98475 6.74981 6.31725 6.74981 5.625C6.74981 2.52375 9.27327 0 12.3749 0C15.4773 0 18 2.52375 18 5.625C18 8.727 15.4773 11.2508 12.3749 11.2508ZM12.3749 1.5C10.1006 1.5 8.25019 3.351 8.25019 5.625C8.25019 6.276 8.39699 6.8985 8.68607 7.47675C8.85696 7.818 8.73425 8.217 8.42635 8.42475C8.41957 8.43225 8.41731 8.44275 8.40979 8.45025L1.49962 15.3615L1.49962 16.5H3V15.0007C3 14.5868 3.33576 14.2515 3.74981 14.2515L5.25019 14.2515V12.7508C5.25019 12.3368 5.58595 12.0015 6 12.0015H7.50038C7.50038 11.9437 7.5207 11.8935 7.53275 11.8403C7.54103 11.8005 7.54178 11.7592 7.55684 11.7218C7.57942 11.6648 7.61706 11.619 7.65245 11.5702C7.67277 11.5417 7.68331 11.508 7.70891 11.4818L9.64366 9.4635C9.6527 9.4545 9.66549 9.45075 9.67528 9.4425C9.71368 9.40575 9.75809 9.38025 9.80326 9.35325C9.84241 9.32925 9.8793 9.30225 9.92146 9.2865C9.96587 9.27 10.0125 9.26475 10.0592 9.2565C10.1074 9.24825 10.1533 9.23775 10.2023 9.2385C10.2467 9.23925 10.2896 9.252 10.334 9.26175C10.3859 9.27225 10.4364 9.28125 10.4861 9.303C10.4981 9.30825 10.5109 9.30675 10.523 9.31275C11.0989 9.60375 11.7222 9.75075 12.3749 9.75075C14.6499 9.75075 16.5004 7.9005 16.5004 5.625C16.5004 3.351 14.6499 1.5 12.3749 1.5ZM13.127 6.00075C12.5051 6.00075 12 5.496 12 4.87575C12 4.25475 12.5051 3.75075 13.127 3.75075C13.7465 3.75075 14.2502 4.25475 14.2502 4.87575C14.2502 5.496 13.7465 6.00075 13.127 6.00075Z" fill="white"/>
</svg>
