<svg width="93" height="25" viewBox="0 0 93 25" fill="none" xmlns="http://www.w3.org/2000/svg">
<g clip-path="url(#clip0)">
<path d="M28.0801 18.6645V1.3423H29.3212V17.5219H37.8199V18.6645H28.0801ZM43.9575 18.9043C42.0329 18.9043 40.5445 18.3025 39.4294 17.1599C38.3774 16.0173 37.815 14.3951 37.815 12.2886C37.815 10.2432 38.3095 8.55988 39.3664 7.35617C40.4184 6.09133 41.7856 5.48947 43.5842 5.48947C45.1356 5.48947 46.3767 6.0302 47.3076 7.05524C48.2384 8.1367 48.6699 9.58022 48.6699 11.3858V12.3497H39.0561C39.0561 14.0942 39.4925 15.4765 40.3603 16.3793C41.165 17.3432 42.4062 17.7617 43.9575 17.7617C44.6993 17.7617 45.3829 17.7006 45.9404 17.583C46.4979 17.4608 47.2445 17.2821 48.1124 16.9201V18.0627C47.3706 18.3636 46.687 18.6034 46.0665 18.7256C45.3732 18.8479 44.6654 18.909 43.9575 18.9043ZM43.5842 6.57564C42.2801 6.57564 41.2911 6.99882 40.4815 7.77935C39.7397 8.62101 39.2404 9.7636 39.1192 11.3294H47.3076C47.3076 9.82473 46.9973 8.68214 46.3137 7.84048C45.6932 6.99411 44.7623 6.57564 43.5842 6.57564ZM55.1227 5.5506C56.0535 5.5506 56.9213 5.72927 57.6049 6.0302C58.2885 6.39226 58.909 6.93299 59.4666 7.77465H59.5296C59.4666 6.75431 59.4666 5.7904 59.4666 4.82649V0.199707H60.6446V18.6645H59.8399L59.5296 16.6803C58.5357 18.1238 57.0474 18.9043 55.1857 18.9043C53.324 18.9043 51.9617 18.3636 50.9679 17.221C49.974 16.1395 49.5425 14.5126 49.5425 12.4108C49.5425 10.1868 50.037 8.49876 50.9679 7.29975C51.8987 6.09603 53.324 5.5506 55.1227 5.5506ZM55.1227 6.57564C53.6973 6.57564 52.5823 7.05524 51.8357 8.08028C51.0939 9.04419 50.7206 10.4877 50.7206 12.4108C50.7206 16.0784 52.209 17.884 55.1227 17.884C56.611 17.884 57.7261 17.4608 58.4097 16.6191C59.0933 15.7775 59.4617 14.3951 59.4617 12.4061V12.2275C59.4617 10.2432 59.0884 8.79969 58.4097 7.95803C57.7891 6.99411 56.6741 6.57564 55.1227 6.57564ZM73.5405 5.7951V6.63676L70.8111 6.81544C71.5528 7.71822 71.9261 8.68214 71.9261 9.70247C71.9261 10.9673 71.4898 11.9265 70.622 12.7118C69.7542 13.4923 68.6391 13.8543 67.2089 13.8543C66.5884 13.8543 66.1569 13.8544 65.9678 13.7932C65.4733 14.033 65.1 14.334 64.8528 14.6349C64.6055 14.9969 64.4795 15.2979 64.4795 15.7163C64.4795 16.1348 64.6637 16.4358 64.974 16.6191C65.2843 16.7978 65.8418 16.9201 66.5884 16.9201H68.8815C70.3069 16.9201 71.4219 17.221 72.1685 17.7617C72.9151 18.3025 73.3466 19.1441 73.3466 20.2867C73.3466 21.6691 72.7891 22.6941 71.674 23.4135C70.559 24.1329 68.9446 24.495 66.8356 24.495C65.1631 24.495 63.8589 24.1941 62.9281 23.5311C61.9973 22.9292 61.5658 22.0264 61.5658 20.945C61.5658 20.0422 61.8761 19.3228 62.4336 18.7209C62.9911 18.1191 63.7959 17.757 64.7267 17.5172C64.3534 17.3385 63.985 17.094 63.7959 16.7978C63.5535 16.5063 63.4226 16.1489 63.4226 15.7775C63.4226 14.9358 63.9801 14.1553 65.0952 13.4923C64.3534 13.1914 63.7329 12.7118 63.2965 12.0488C62.8602 11.3858 62.676 10.6053 62.676 9.7636C62.676 8.49876 63.1123 7.41729 63.9171 6.63676C64.7849 5.85623 65.9 5.49417 67.3301 5.49417C68.198 5.49417 68.8815 5.5553 69.376 5.73397H73.5308V5.7951H73.5405ZM62.7487 20.8321C62.7487 22.5766 64.111 23.4794 66.8405 23.4794C70.3117 23.4794 72.0522 22.3979 72.0522 20.2303C72.0522 19.4497 71.8049 18.909 71.2474 18.547C70.6899 18.1849 69.8221 18.0062 68.581 18.0062H66.409C63.9898 18.0627 62.7487 18.9654 62.7487 20.8321ZM63.8056 9.7636C63.8056 10.7839 64.1159 11.508 64.7364 12.1099C65.357 12.6506 66.1618 12.9516 67.2186 12.9516C68.3337 12.9516 69.2015 12.6506 69.759 12.1099C70.3796 11.5692 70.6268 10.7886 70.6268 9.7636C70.6268 8.68214 70.3166 7.84048 69.696 7.29975C69.0755 6.75901 68.2707 6.45809 67.1556 6.45809C66.1036 6.45809 65.2309 6.75901 64.6734 7.36087C64.0528 7.8969 63.8056 8.73856 63.8056 9.7636Z" fill="#212529"/>
<path d="M79.5552 18.9045C77.6305 18.9045 76.1422 18.3026 75.0271 17.1601C73.9751 16.0175 73.4127 14.3953 73.4127 12.2888C73.4127 10.2434 73.9072 8.56008 74.9641 7.35636C76.0161 6.09152 77.3833 5.48966 79.1819 5.48966C80.7333 5.48966 81.9744 6.03039 82.9052 7.05543C83.8361 8.1369 84.2675 9.58041 84.2675 11.386V12.3499H74.7168C74.7168 14.0943 75.1532 15.4767 76.021 16.3795C76.8258 17.3434 78.0669 17.7619 79.6182 17.7619C80.36 17.7619 81.0436 17.7008 81.6011 17.5832C82.1586 17.461 82.9052 17.2823 83.773 16.9203V18.0628C83.0313 18.3638 82.3477 18.6036 81.7272 18.7258C81.0436 18.8481 80.36 18.9045 79.5552 18.9045ZM79.2449 6.57583C77.9408 6.57583 76.9518 6.99901 76.1422 7.77954C75.4004 8.6212 74.9011 9.76379 74.7799 11.3296H82.9683C82.9683 9.82492 82.658 8.68233 81.9744 7.84067C81.3539 6.99431 80.423 6.57583 79.2449 6.57583ZM91.1518 5.55079C91.7093 5.55079 92.3299 5.61192 92.9504 5.72947L92.7032 6.87205C92.1311 6.7498 91.5493 6.68868 90.9676 6.69338C89.8525 6.69338 88.9217 7.17298 88.1751 8.07577C87.4333 9.03968 87.06 10.1823 87.06 11.6258V18.6647H85.8189V5.79529H86.871L86.997 8.1416H87.06C87.6176 7.17768 88.1751 6.5194 88.7956 6.15735C89.5422 5.73417 90.284 5.55079 91.1518 5.55079ZM16.2346 0.801758H7.36261V12.3499H19.2695V3.80634C19.2743 2.18415 17.9072 0.801758 16.2346 0.801758ZM4.638 0.801758H3.14964C1.47706 0.801758 0.046875 2.12302 0.046875 3.81105V5.25456H4.638V0.801758ZM0.046875 7.95822H4.638V12.411H0.046875V7.95822ZM14.6832 19.5064H16.1716C17.8441 19.5064 19.2743 18.1851 19.2743 16.4971V15.0583H14.6832V19.5064ZM7.36261 15.0583H11.9537V19.5111H7.36261V15.0583ZM0.046875 15.0583V16.5018C0.046875 18.124 1.40918 19.5111 3.14964 19.5111H4.638V15.0583H0.046875Z" fill="#212529"/>
</g>
<defs>
<clipPath id="clip0">
<rect width="92.9333" height="24.3" fill="white" transform="translate(0.0332031 0.199707)"/>
</clipPath>
</defs>
</svg>
