<svg width="18" height="18" viewBox="0 0 18 18" fill="none" xmlns="http://www.w3.org/2000/svg">
<path fill-rule="evenodd" clip-rule="evenodd" d="M13.244 8.44418C13.3113 8.68425 13.2549 8.94206 13.0935 9.1321L6.52327 16.8679C6.294 17.1379 5.90714 17.2107 5.59545 17.0425C5.28377 16.8743 5.13223 16.511 5.23201 16.1711L7.02837 10.0531L5.60772 9.15126C5.42677 9.03639 5.30362 8.84959 5.26934 8.63802C5.23507 8.42645 5.29295 8.21032 5.42837 8.0442L11.5046 0.590442C11.7233 0.32211 12.0973 0.238362 12.4096 0.387776C12.7219 0.537191 12.8913 0.880942 12.8197 1.21963L11.4875 7.51346L12.7579 7.9347C12.9946 8.01317 13.1767 8.20411 13.244 8.44418ZM11.2304 9.00853L9.74226 8.51509L10.7111 3.93783L7.12455 8.33747L8.78579 9.3921L7.66622 13.2051L11.2304 9.00853Z" fill="white"/>
</svg>
