<svg viewBox="0 0 12 12" fill="none" xmlns="http://www.w3.org/2000/svg">
  <path fill-rule="evenodd" clip-rule="evenodd" d="M6.06481 1.96101L1.0108 1.96101L1.0108 11.0378L10.108 11.0378V5.99514C10.108 5.71931 10.2081 5.50701 10.4851 5.50701C10.7615 5.50701 10.9859 5.7304 10.9859 6.00624V11.5002C10.9859 11.7766 10.7615 12 10.4851 12L0.466991 12C0.190536 12 0 11.8179 0 11.5421L0 1.45675C0 1.18091 0.190536 1.01198 0.466991 1.01198L5.97687 1.01198C6.25333 1.01198 6.47773 1.23537 6.47773 1.51171C6.47773 1.78754 6.34127 1.96101 6.06481 1.96101ZM6.49995 4.99979C6.49995 4.87183 6.54913 4.74388 6.6465 4.64666L10.3037 0.989379L7.5002 0.999958C7.22416 0.999958 7.00032 0.77629 7.00032 0.499727C7.00032 0.223668 7.22416 -1.20659e-08 7.5002 0L11.5002 1.74846e-07C11.5007 1.74867e-07 11.5012 1.74889e-07 11.5017 1.74911e-07C11.5659 0.000503935 11.6307 0.0136016 11.6914 0.0382857C11.8134 0.0891652 11.9107 0.18639 11.9614 0.308803C11.987 0.370262 12.0001 0.435246 12.0001 0.500735L12.0001 4.50006C12.0001 4.77612 11.7762 4.99979 11.5002 4.99979C11.2242 4.99979 11.0334 4.78922 11.0334 4.51316L11.0334 1.67348L7.35365 5.35343C7.15842 5.54888 6.84173 5.54888 6.6465 5.35343C6.54913 5.2557 6.49995 5.12774 6.49995 4.99979Z" fill="#4C54D2"/>
</svg>
