<svg width="36" height="36" viewBox="0 0 36 36" fill="none" xmlns="http://www.w3.org/2000/svg">
<ellipse cx="18.1108" cy="18.1221" rx="17.7506" ry="17.7073" fill="#474747" fill-opacity="0.8"/>
<path fill-rule="evenodd" clip-rule="evenodd" d="M16.2956 24.2191C12.3192 24.2191 9.09558 20.9954 9.09558 17.0187C9.09558 13.0427 12.3194 9.81912 16.2956 9.81912C20.2718 9.81912 23.4956 13.0427 23.4956 17.0187C23.4956 18.8617 22.8032 20.543 21.6643 21.8166L26.8614 26.5677C27.1549 26.836 27.1753 27.2914 26.907 27.5849C26.6387 27.8784 26.1832 27.8988 25.8897 27.6305L20.5979 22.7928C19.3976 23.6887 17.9085 24.2191 16.2956 24.2191ZM20.2325 21.2235C20.1789 21.2572 20.1289 21.2986 20.0842 21.3476C20.0725 21.3603 20.0615 21.3733 20.0509 21.3866C19.0425 22.2545 17.7303 22.7791 16.2955 22.7791C13.1145 22.7791 10.5355 20.2001 10.5355 17.0187C10.5355 13.838 13.1146 11.2591 16.2955 11.2591C19.4765 11.2591 22.0555 13.838 22.0555 17.0187C22.0555 18.6775 21.3545 20.1725 20.2325 21.2235Z" fill="white"/>
</svg>
