<svg width="1024" height="1024" viewBox="0 0 1024 1024" fill="none" xmlns="http://www.w3.org/2000/svg">
<rect width="1024" height="1024" rx="41.7959" fill="#F4F6F8"/>
<path d="M542.492 500.588C545.691 500.268 548.875 501.316 551.258 503.472L607.744 554.571C612.405 558.788 612.766 565.985 608.549 570.646C604.332 575.307 597.135 575.668 592.474 571.451L545.307 528.783L503.03 585.994C501.091 588.617 498.12 590.283 494.87 590.567C491.62 590.852 488.404 589.728 486.038 587.481L463.251 565.834L438.372 601.909C434.804 607.084 427.716 608.386 422.542 604.817C417.367 601.249 416.065 594.161 419.634 588.987L452.07 541.953C453.959 539.214 456.952 537.439 460.262 537.094C463.571 536.75 466.865 537.871 469.278 540.163L492.378 562.108L534.47 505.148C536.38 502.564 539.294 500.907 542.492 500.588Z" fill="#6B7084"/>
<path fill-rule="evenodd" clip-rule="evenodd" d="M449.278 486.386C469.794 486.386 486.425 469.755 486.425 449.24C486.425 428.724 469.794 412.093 449.278 412.093C428.763 412.093 412.132 428.724 412.132 449.24C412.132 469.755 428.763 486.386 449.278 486.386ZM465.085 449.24C465.085 457.97 458.008 465.047 449.278 465.047C440.548 465.047 433.471 457.97 433.471 449.24C433.471 440.51 440.548 433.433 449.278 433.433C458.008 433.433 465.085 440.51 465.085 449.24Z" fill="#6B7084"/>
<path fill-rule="evenodd" clip-rule="evenodd" d="M426.358 369.456C394.93 369.456 369.453 394.933 369.453 426.361V597.077C369.453 628.505 394.93 653.983 426.358 653.983H597.074C628.502 653.983 653.979 628.505 653.979 597.077V426.361C653.979 394.933 628.502 369.456 597.074 369.456H426.358ZM597.074 392.218H426.358C407.501 392.218 392.215 407.505 392.215 426.361V597.077C392.215 615.934 407.501 631.221 426.358 631.221H597.074C615.931 631.221 631.217 615.934 631.217 597.077V426.361C631.217 407.505 615.931 392.218 597.074 392.218Z" fill="#6B7084"/>
</svg>
