<svg width="450" height="450" viewBox="0 0 450 450" fill="none" xmlns="http://www.w3.org/2000/svg">
<rect width="450" height="450" fill="#1E1E1E"/>
<rect width="450" height="450" fill="#E9E9F4"/>
<path d="M200.5 221.204C206.76 221.204 211.852 216.112 211.852 209.854C211.852 203.592 206.76 198.5 200.5 198.5C194.24 198.5 189.148 203.592 189.148 209.852C189.148 216.112 194.24 221.204 200.5 221.204Z" fill="#212529"/>
<path d="M174 172V253.538V278H275.923V253.538V172H174ZM178.077 176.077H271.846V232.426L248.763 211.265C248.363 210.9 247.837 210.719 247.295 210.731C246.755 210.755 246.245 210.994 245.88 211.393L228.833 230.064L236.595 237.826C237.392 238.623 237.392 239.911 236.595 240.708C236.198 241.108 235.676 241.308 235.154 241.308C234.632 241.308 234.11 241.108 233.713 240.71L225.914 233.262L216.245 223.593C215.483 222.833 214.264 222.794 213.456 223.504L179.343 253.538H178.077V176.077ZM271.846 273.923H178.077V257.615H271.846V273.923Z" fill="#212529"/>
</svg>
