<svg width="16" height="16" viewBox="0 0 16 16" fill="none" xmlns="http://www.w3.org/2000/svg">
<path d="M14.7067 7.10287L9.08173 7.10287L9.08173 1.43301C9.08173 0.930622 8.64904 0.5 8.14423 0.5C7.56731 0.5 7.13462 0.930622 7.13462 1.43301L7.13462 7.0311L1.4375 7.0311C0.932692 7.10287 0.5 7.53349 0.5 8.03588C0.5 8.53828 0.932692 8.9689 1.4375 8.9689L7.0625 8.9689L7.0625 14.567C7.0625 15.0694 7.49519 15.5 8 15.5C8.50481 15.5 8.9375 15.0694 8.9375 14.567L8.9375 8.9689L14.5625 8.9689C15.0673 8.9689 15.5 8.53828 15.5 8.03588C15.5 7.53349 15.2115 7.10287 14.7067 7.10287Z" fill="#495057"/>
</svg>
