<svg xmlns="http://www.w3.org/2000/svg" width="390" height="214" fill="none"><g fill-rule="evenodd" clip-rule="evenodd" opacity=".4"><path fill="#fff" d="M-57-17.408v-1.027L169.305-104h.289L801.948 54.094v.988L169.512-103.053-57-17.408Zm0 2.179v.988l233.557-83.715L801.948 62.482v-.986L176.681-98.9h-.287L-57-15.229Zm0 4.153v-1.027l240.48-81.7h.248l618.22 162.782v.986L183.645-92.858-57-11.076Zm0 2.056v.987l247.692-79.685L801.948 77.491v-.988L190.814-88.705l-.245.043L-57-9.02Zm0 4.03v-.987l254.655-77.588h.248L801.948 84.111v.986L197.779-82.618-57-4.991Zm0 1.973v.987l261.867-75.49L801.948 92.784V91.8L204.989-78.467h-.287L-57-3.017Zm0 3.906v-.945l268.789-73.312h.289L801.948 99.53v.986L211.913-72.421-57 .889Zm0 1.932v.988l276.001-71.091L801.948 108.37v-.988L219.125-68.229l-.248-.041L-57 2.82Zm0 3.826v-.988L225.964-63.13h.247l575.737 178.447v.987L226.046-62.185-57 6.647Zm0 1.85v.985l290.135-66.567 568.813 181.367v-.988L233.298-58.032h-.246L-57 8.497Zm0 3.741v-.947l297.139-64.223h.247l561.562 184.326v1.029L240.221-51.987-57 12.237Zm0 1.768v.986l304.268-61.88 554.68 187.494v-.988L247.475-47.794l-.248-.04L-57 14.005Zm0 3.7v-.945l311.314-59.455h.247l547.387 190.618v1.028L254.355-41.75-57 17.706Zm0 1.727v.946l318.402-57.03 540.546 194.033v-.988l-540.34-193.99h-.247L-57 19.432Zm0 3.62v-.947l325.447-54.603.248.04 533.253 197.404v1.027L268.489-31.553-57 23.052Zm0 1.685v.945l332.577-52.136L801.948 174.65v-.988L275.783-27.358l-.247-.042L-57 24.738Zm0 3.577v-.988l339.622-49.586h.248l519.078 204.762v1.029L282.622-21.314-57 28.315Zm0 1.603v.946l346.711-47.079 512.237 208.75v-1.027L289.958-17.12l-.247-.041L-57 29.918Zm0 3.535v-.944l353.797-44.571.248.041 504.903 212.698v1.028L296.756-11.117-57 33.453Zm0 1.605v.945l360.844-42.02 498.104 217.096v-1.027L304.092-6.923l-.248-.041L-57 35.058Zm0 3.454v-.947L310.931-1.824h.247l490.77 221.456v1.027L310.931-.879-57 38.51Zm0 1.562v.946l374.978-36.8 483.97 226.225v-1.027L318.267 3.315l-.248-.041L-57 40.074Zm0 7.606v-.945l367.397-38.98.247.042L801.948 230.65v1.029L310.355 8.702-57 47.68Zm0 5.717v.944l359.772-41.117 499.176 219.77v-1.027L303.019 12.279l-.247-.041L-57 53.397Zm0 7.565v-.947l352.149-43.254.248.041 506.551 216.522v1.028L295.149 17.706-57 60.961Zm0 5.673v.947l344.527-45.394 514.421 213.603v-1.029L287.774 21.282l-.247-.04L-57 66.635Zm0 7.566v-.945l336.904-47.491h.246l521.798 210.479v.986L279.904 26.712-57 74.2Zm0 5.634v.945l329.321-49.587 529.627 207.599v-1.028L272.527 30.288l-.248-.041L-57 79.835Zm0 7.524v-.988l321.657-51.642.247.041 537.044 204.598v.987L264.698 35.674-57 87.359Zm0 5.55v.988l314.075-53.7L801.948 242v-.988L257.281 39.252h-.247L-57 92.91Zm0 7.484v-.946l306.411-55.714.246.04 552.291 198.925v.987L249.452 44.679-57 100.393Zm0 5.51v.986l298.828-57.686 560.12 196.209v-.986L242.034 48.256l-.247-.041L-57 105.903Zm0 7.441v-.986l291.164-59.62h.247l567.537 193.415v1.027L234.246 53.683-57 113.344Zm0 5.468v.947l283.624-61.594 575.324 190.824v-1.027L226.789 57.22h-.248L-57 118.812Zm0 7.361v-.987l275.919-63.484.247.041 582.782 188.069v.986L219.001 62.688-57 126.173Zm0 5.386v.988L211.377 67.17l590.571 185.521v-.988L211.542 66.223h-.248L-57 131.56Zm0 7.32v-.988l260.671-67.185h.248l598.029 182.888v1.029L203.795 71.653-57 138.879Zm0 5.303v.988l253.172-68.996 605.776 180.381v-.987L196.296 75.229h-.247L-57 144.182Zm0 7.236v-.986l245.426-70.72h.246L801.948 257.54v.988L188.55 80.656-57 151.418Zm0 5.223v.986l237.925-72.489 621.023 175.364v-.946L181.049 84.193h-.248L-57 156.641Zm0 7.112v-.986l230.179-74.052h.247l628.522 172.856v.987L173.344 89.661-57 163.753Zm0 5.141v.986l222.721-75.736 636.227 170.47v-.987L165.803 93.197h-.247L-57 168.894Zm0 7.03v-.986l214.933-77.217.246-.042 643.769 168.045v.946L158.096 98.624-57 175.924Zm0 4.976v1.027l207.474-78.78 651.474 165.661v-.987L150.597 102.202h-.288L-57 180.9Zm0 6.949v-1.029l199.686-80.137h.289l658.973 163.276v.988L142.892 107.629-57 187.849Zm0 4.81v1.029l192.27-81.535 666.678 160.93v-.986L135.352 111.165l-.33.041L-57 192.659Zm0 6.785v-1.029l184.399-82.727h.329l674.22 158.588v.988L127.645 116.635-57 199.444Zm0 4.647v1.027l163.444-77.56L-57 209.641v1.068l148.213-74.413L-57 215.109v1.068l134.098-71.315L-57 220.453v1.07l154.194-86.921 704.754 149.542v-.945L97.903 133.798l6.915-3.678 697.13 151.762v-.944L105.236 129.256l7.205-3.618 689.507 154.024v-.986L112.54 124.665l7.482-3.55 681.926 156.327v-.945L120.105 120.17l-.33.041L-57 204.091Zm0 18.953v1.07l154.194-84.496L801.948 296.85v-.988L97.235 138.632l-.33.041L-57 223.044Zm0 3.742v-1.069l153.905-82.029.33-.041 704.713 165.25v.986L97.194 144.594-57 226.786Zm0 1.644v1.07l154.194-79.932 704.754 173.679v-.988L97.235 148.623l-.33.041L-57 228.43Zm0 3.867v-1.029l153.905-77.629.33-.042 704.713 182.397v.986L97.194 154.585-57 232.297Zm0 1.809v1.068l154.194-75.615L798.03 350.014h3.628L97.235 158.615l-.33.041L-57 234.106Zm0 3.988v-1.07L96.905 163.63l.371-.041 653.452 186.425h-3.421L97.152 164.535-57 238.094Zm0 1.932v1.027l154.152-71.501L699.88 350.014h3.296L97.276 168.565l-.33.041L-57 240.026Zm0 4.071v-1.07l153.946-69.445h.33l561.397 176.432h-3.133L97.152 174.526-57 244.097Zm0 2.056v1.027l154.152-67.678 516.894 170.512h3.049L97.276 178.556l-.33.041L-57 246.153Zm0 4.153v-1.029l153.946-65.704h.33l480.837 166.441h-2.883L97.152 184.518-57 250.306Zm0 2.138v1.027l154.152-63.977 441.734 160.52h2.801L97.277 188.547h-.33L-57 252.444Zm0 4.276v-1.029l153.946-62.168h.371l410.21 156.491h-2.637L97.152 194.468-57 256.72Zm0 2.26v1.029l154.111-60.524 375.886 150.529h2.555L97.317 198.538h-.37L-57 258.98Zm0 4.317v-.985l153.946-58.798h.371l348.277 146.5h-2.432L97.112 204.459-57 263.297Zm0 2.344v1.029l154.111-57.235 318.114 140.579h2.349L97.317 208.489h-.37L-57 265.641Zm0 4.441v-1.029l153.987-55.547h.33l293.967 136.508h-2.225L97.111 214.45-57 270.082Zm0 2.427v.985l154.111-54.068 267.43 130.588h2.184L97.317 218.48l-.165-.083-.165.083L-57 272.509Zm0 4.482v-.988l153.987-52.547.165-.041.207.082L343.69 350.014h-2.06L97.111 224.401-57 276.991Zm0 2.506v.988l154.07-51.067 223.092 120.596h2.019L97.359 228.471l-.165-.082-.207.041L-57 279.497Zm0 4.565v-1.027l153.987-49.588.207-.082.165.123L302.03 350.014h-1.895L97.07 234.394-57 284.062Zm0 2.591v.986l154.07-48.271 184.317 110.646h1.854L97.359 238.464l-.165-.123-.207.082L-57 286.653Zm0 4.605v-.987l153.987-46.874.207-.041.206.124 168.288 106.534h-1.774L97.07 244.385-57 291.258Zm0 2.631v.987l154.07-45.517 150.527 100.655h1.691L97.4 248.455l-.206-.123-.207.082L-57 293.889Zm0 4.687v-.987l153.987-44.201.248-.082.165.165 136.64 96.543h-1.606L97.029 254.335-57 298.576Zm0 2.715v.986L97.029 259.35 218.3 350.014h1.565L97.4 258.447l-.165-.124-.248.041L-57 301.291Zm0 3.741v.945l154.029-41.651 108.125 85.688h1.526L97.441 263.462l-.206-.165-.248.042L-57 305.032Zm0 7.606v.988l151.805-45.065 104.457 81.453h1.526L95.216 267.697l-.206-.164-.246.082L-57 312.638Zm0 8.677v-.988L92.539 271.85l.247-.082.204.165 101.821 78.081h-1.565L92.621 272.838-57 321.315Zm0 6.702v1.027l147.396-51.971 96.71 72.941h1.566l-97.907-73.846-.204-.165-.248.082L-57 328.017Zm0 8.757v-1.027L88.088 280.32l.247-.082.207.165 93.868 69.611h-1.609l-92.63-68.708L-57 336.774Zm0 6.743v1.028l142.986-59.003 88.389 64.472h1.606l-89.665-65.376-.206-.165-.247.124L-57 343.517Zm5.275 6.497h-2.306l137.67-61.182.247-.123.206.164 85.338 61.141h-1.648l-84.02-60.196-135.487 60.196Zm13.928 0h2.184l117.149-55.961 79.487 55.961h1.648l-80.805-56.906-.206-.164-.248.123-119.209 56.947Zm16.194 0h-2.06l102.85-52.67.248-.124.206.124 76.15 52.67H154.1l-74.748-51.726-100.955 51.726Zm10.22 0h1.936l86.573-47.449 69.887 47.449h1.689l-71.287-48.396-.206-.163-.289.122-88.304 48.437Zm12.568 0H-.671l75.366-44.202.248-.123.247.164 66.22 44.161h-1.689L74.943 306.8 1.185 350.014Zm7.458 0h1.771l62.303-38.979 59.503 38.979h1.73l-60.985-39.925-.248-.165-.247.165-63.827 39.925Zm9.765 0h-1.69l53.528-35.69.246-.165.289.165 55.505 35.69h-1.73L70.492 315.27l-52.084 34.744Zm5.315 0h1.65l42.936-30.467 48.335 30.467h1.772l-49.86-31.455-.288-.165-.247.165-44.298 31.455Zm7.623 0H29.78l36.016-27.179.247-.205.287.164 43.968 27.22h-1.771l-42.442-26.232-34.738 26.232Zm3.627 0h1.524L63.9 328.017l36.261 21.997h1.813l-37.868-22.985-.289-.164-.247.205-28.597 22.944Zm5.892 0h-1.441l21.921-18.708.248-.206.288.165 31.522 18.749H91.55L61.675 332.25l-20.81 17.764Zm2.266 0h1.442l14.917-13.487 23.157 13.487h1.897L59.654 335.5l-.288-.165-.289.247-15.946 14.432Zm4.493 0h-1.361l10.59-10.197.289-.247.288.206 17.966 10.238h-1.895l-16.236-9.252-9.641 9.252Zm1.193 0h1.318l4.946-5.017 8.984 5.017H66l-10.796-6.003-.33-.205-.248.288-5.81 5.92Zm3.297 0h-1.277l1.565-1.685.248-.288.33.205 3.254 1.768h-1.936l-1.442-.782-.742.782Z"/><path fill="url(#a)" d="M-57-17.408v-1.027L169.305-104h.289L801.948 54.094v.988L169.512-103.053-57-17.408Zm0 2.179v.988l233.557-83.715L801.948 62.482v-.986L176.681-98.9h-.287L-57-15.229Zm0 4.153v-1.027l240.48-81.7h.248l618.22 162.782v.986L183.645-92.858-57-11.076Zm0 2.056v.987l247.692-79.685L801.948 77.491v-.988L190.814-88.705l-.245.043L-57-9.02Zm0 4.03v-.987l254.655-77.588h.248L801.948 84.111v.986L197.779-82.618-57-4.991Zm0 1.973v.987l261.867-75.49L801.948 92.784V91.8L204.989-78.467h-.287L-57-3.017Zm0 3.906v-.945l268.789-73.312h.289L801.948 99.53v.986L211.913-72.421-57 .889Zm0 1.932v.988l276.001-71.091L801.948 108.37v-.988L219.125-68.229l-.248-.041L-57 2.82Zm0 3.826v-.988L225.964-63.13h.247l575.737 178.447v.987L226.046-62.185-57 6.647Zm0 1.85v.985l290.135-66.567 568.813 181.367v-.988L233.298-58.032h-.246L-57 8.497Zm0 3.741v-.947l297.139-64.223h.247l561.562 184.326v1.029L240.221-51.987-57 12.237Zm0 1.768v.986l304.268-61.88 554.68 187.494v-.988L247.475-47.794l-.248-.04L-57 14.005Zm0 3.7v-.945l311.314-59.455h.247l547.387 190.618v1.028L254.355-41.75-57 17.706Zm0 1.727v.946l318.402-57.03 540.546 194.033v-.988l-540.34-193.99h-.247L-57 19.432Zm0 3.62v-.947l325.447-54.603.248.04 533.253 197.404v1.027L268.489-31.553-57 23.052Zm0 1.685v.945l332.577-52.136L801.948 174.65v-.988L275.783-27.358l-.247-.042L-57 24.738Zm0 3.577v-.988l339.622-49.586h.248l519.078 204.762v1.029L282.622-21.314-57 28.315Zm0 1.603v.946l346.711-47.079 512.237 208.75v-1.027L289.958-17.12l-.247-.041L-57 29.918Zm0 3.535v-.944l353.797-44.571.248.041 504.903 212.698v1.028L296.756-11.117-57 33.453Zm0 1.605v.945l360.844-42.02 498.104 217.096v-1.027L304.092-6.923l-.248-.041L-57 35.058Zm0 3.454v-.947L310.931-1.824h.247l490.77 221.456v1.027L310.931-.879-57 38.51Zm0 1.562v.946l374.978-36.8 483.97 226.225v-1.027L318.267 3.315l-.248-.041L-57 40.074Zm0 7.606v-.945l367.397-38.98.247.042L801.948 230.65v1.029L310.355 8.702-57 47.68Zm0 5.717v.944l359.772-41.117 499.176 219.77v-1.027L303.019 12.279l-.247-.041L-57 53.397Zm0 7.565v-.947l352.149-43.254.248.041 506.551 216.522v1.028L295.149 17.706-57 60.961Zm0 5.673v.947l344.527-45.394 514.421 213.603v-1.029L287.774 21.282l-.247-.04L-57 66.635Zm0 7.566v-.945l336.904-47.491h.246l521.798 210.479v.986L279.904 26.712-57 74.2Zm0 5.634v.945l329.321-49.587 529.627 207.599v-1.028L272.527 30.288l-.248-.041L-57 79.835Zm0 7.524v-.988l321.657-51.642.247.041 537.044 204.598v.987L264.698 35.674-57 87.359Zm0 5.55v.988l314.075-53.7L801.948 242v-.988L257.281 39.252h-.247L-57 92.91Zm0 7.484v-.946l306.411-55.714.246.04 552.291 198.925v.987L249.452 44.679-57 100.393Zm0 5.51v.986l298.828-57.686 560.12 196.209v-.986L242.034 48.256l-.247-.041L-57 105.903Zm0 7.441v-.986l291.164-59.62h.247l567.537 193.415v1.027L234.246 53.683-57 113.344Zm0 5.468v.947l283.624-61.594 575.324 190.824v-1.027L226.789 57.22h-.248L-57 118.812Zm0 7.361v-.987l275.919-63.484.247.041 582.782 188.069v.986L219.001 62.688-57 126.173Zm0 5.386v.988L211.377 67.17l590.571 185.521v-.988L211.542 66.223h-.248L-57 131.56Zm0 7.32v-.988l260.671-67.185h.248l598.029 182.888v1.029L203.795 71.653-57 138.879Zm0 5.303v.988l253.172-68.996 605.776 180.381v-.987L196.296 75.229h-.247L-57 144.182Zm0 7.236v-.986l245.426-70.72h.246L801.948 257.54v.988L188.55 80.656-57 151.418Zm0 5.223v.986l237.925-72.489 621.023 175.364v-.946L181.049 84.193h-.248L-57 156.641Zm0 7.112v-.986l230.179-74.052h.247l628.522 172.856v.987L173.344 89.661-57 163.753Zm0 5.141v.986l222.721-75.736 636.227 170.47v-.987L165.803 93.197h-.247L-57 168.894Zm0 7.03v-.986l214.933-77.217.246-.042 643.769 168.045v.946L158.096 98.624-57 175.924Zm0 4.976v1.027l207.474-78.78 651.474 165.661v-.987L150.597 102.202h-.288L-57 180.9Zm0 6.949v-1.029l199.686-80.137h.289l658.973 163.276v.988L142.892 107.629-57 187.849Zm0 4.81v1.029l192.27-81.535 666.678 160.93v-.986L135.352 111.165l-.33.041L-57 192.659Zm0 6.785v-1.029l184.399-82.727h.329l674.22 158.588v.988L127.645 116.635-57 199.444Zm0 4.647v1.027l163.444-77.56L-57 209.641v1.068l148.213-74.413L-57 215.109v1.068l134.098-71.315L-57 220.453v1.07l154.194-86.921 704.754 149.542v-.945L97.903 133.798l6.915-3.678 697.13 151.762v-.944L105.236 129.256l7.205-3.618 689.507 154.024v-.986L112.54 124.665l7.482-3.55 681.926 156.327v-.945L120.105 120.17l-.33.041L-57 204.091Zm0 18.953v1.07l154.194-84.496L801.948 296.85v-.988L97.235 138.632l-.33.041L-57 223.044Zm0 3.742v-1.069l153.905-82.029.33-.041 704.713 165.25v.986L97.194 144.594-57 226.786Zm0 1.644v1.07l154.194-79.932 704.754 173.679v-.988L97.235 148.623l-.33.041L-57 228.43Zm0 3.867v-1.029l153.905-77.629.33-.042 704.713 182.397v.986L97.194 154.585-57 232.297Zm0 1.809v1.068l154.194-75.615L798.03 350.014h3.628L97.235 158.615l-.33.041L-57 234.106Zm0 3.988v-1.07L96.905 163.63l.371-.041 653.452 186.425h-3.421L97.152 164.535-57 238.094Zm0 1.932v1.027l154.152-71.501L699.88 350.014h3.296L97.276 168.565l-.33.041L-57 240.026Zm0 4.071v-1.07l153.946-69.445h.33l561.397 176.432h-3.133L97.152 174.526-57 244.097Zm0 2.056v1.027l154.152-67.678 516.894 170.512h3.049L97.276 178.556l-.33.041L-57 246.153Zm0 4.153v-1.029l153.946-65.704h.33l480.837 166.441h-2.883L97.152 184.518-57 250.306Zm0 2.138v1.027l154.152-63.977 441.734 160.52h2.801L97.277 188.547h-.33L-57 252.444Zm0 4.276v-1.029l153.946-62.168h.371l410.21 156.491h-2.637L97.152 194.468-57 256.72Zm0 2.26v1.029l154.111-60.524 375.886 150.529h2.555L97.317 198.538h-.37L-57 258.98Zm0 4.317v-.985l153.946-58.798h.371l348.277 146.5h-2.432L97.112 204.459-57 263.297Zm0 2.344v1.029l154.111-57.235 318.114 140.579h2.349L97.317 208.489h-.37L-57 265.641Zm0 4.441v-1.029l153.987-55.547h.33l293.967 136.508h-2.225L97.111 214.45-57 270.082Zm0 2.427v.985l154.111-54.068 267.43 130.588h2.184L97.317 218.48l-.165-.083-.165.083L-57 272.509Zm0 4.482v-.988l153.987-52.547.165-.041.207.082L343.69 350.014h-2.06L97.111 224.401-57 276.991Zm0 2.506v.988l154.07-51.067 223.092 120.596h2.019L97.359 228.471l-.165-.082-.207.041L-57 279.497Zm0 4.565v-1.027l153.987-49.588.207-.082.165.123L302.03 350.014h-1.895L97.07 234.394-57 284.062Zm0 2.591v.986l154.07-48.271 184.317 110.646h1.854L97.359 238.464l-.165-.123-.207.082L-57 286.653Zm0 4.605v-.987l153.987-46.874.207-.041.206.124 168.288 106.534h-1.774L97.07 244.385-57 291.258Zm0 2.631v.987l154.07-45.517 150.527 100.655h1.691L97.4 248.455l-.206-.123-.207.082L-57 293.889Zm0 4.687v-.987l153.987-44.201.248-.082.165.165 136.64 96.543h-1.606L97.029 254.335-57 298.576Zm0 2.715v.986L97.029 259.35 218.3 350.014h1.565L97.4 258.447l-.165-.124-.248.041L-57 301.291Zm0 3.741v.945l154.029-41.651 108.125 85.688h1.526L97.441 263.462l-.206-.165-.248.042L-57 305.032Zm0 7.606v.988l151.805-45.065 104.457 81.453h1.526L95.216 267.697l-.206-.164-.246.082L-57 312.638Zm0 8.677v-.988L92.539 271.85l.247-.082.204.165 101.821 78.081h-1.565L92.621 272.838-57 321.315Zm0 6.702v1.027l147.396-51.971 96.71 72.941h1.566l-97.907-73.846-.204-.165-.248.082L-57 328.017Zm0 8.757v-1.027L88.088 280.32l.247-.082.207.165 93.868 69.611h-1.609l-92.63-68.708L-57 336.774Zm0 6.743v1.028l142.986-59.003 88.389 64.472h1.606l-89.665-65.376-.206-.165-.247.124L-57 343.517Zm5.275 6.497h-2.306l137.67-61.182.247-.123.206.164 85.338 61.141h-1.648l-84.02-60.196-135.487 60.196Zm13.928 0h2.184l117.149-55.961 79.487 55.961h1.648l-80.805-56.906-.206-.164-.248.123-119.209 56.947Zm16.194 0h-2.06l102.85-52.67.248-.124.206.124 76.15 52.67H154.1l-74.748-51.726-100.955 51.726Zm10.22 0h1.936l86.573-47.449 69.887 47.449h1.689l-71.287-48.396-.206-.163-.289.122-88.304 48.437Zm12.568 0H-.671l75.366-44.202.248-.123.247.164 66.22 44.161h-1.689L74.943 306.8 1.185 350.014Zm7.458 0h1.771l62.303-38.979 59.503 38.979h1.73l-60.985-39.925-.248-.165-.247.165-63.827 39.925Zm9.765 0h-1.69l53.528-35.69.246-.165.289.165 55.505 35.69h-1.73L70.492 315.27l-52.084 34.744Zm5.315 0h1.65l42.936-30.467 48.335 30.467h1.772l-49.86-31.455-.288-.165-.247.165-44.298 31.455Zm7.623 0H29.78l36.016-27.179.247-.205.287.164 43.968 27.22h-1.771l-42.442-26.232-34.738 26.232Zm3.627 0h1.524L63.9 328.017l36.261 21.997h1.813l-37.868-22.985-.289-.164-.247.205-28.597 22.944Zm5.892 0h-1.441l21.921-18.708.248-.206.288.165 31.522 18.749H91.55L61.675 332.25l-20.81 17.764Zm2.266 0h1.442l14.917-13.487 23.157 13.487h1.897L59.654 335.5l-.288-.165-.289.247-15.946 14.432Zm4.493 0h-1.361l10.59-10.197.289-.247.288.206 17.966 10.238h-1.895l-16.236-9.252-9.641 9.252Zm1.193 0h1.318l4.946-5.017 8.984 5.017H66l-10.796-6.003-.33-.205-.248.288-5.81 5.92Zm3.297 0h-1.277l1.565-1.685.248-.288.33.205 3.254 1.768h-1.936l-1.442-.782-.742.782Z"/></g><defs><linearGradient id="a" x1="136.215" x2="537.098" y1="43.137" y2="277.528" gradientUnits="userSpaceOnUse"><stop stop-color="#EECBC0"/><stop offset=".364" stop-color="#B8FBF6"/><stop offset=".757" stop-color="#CAB3F5"/><stop offset="1" stop-color="#87A9F0"/></linearGradient></defs></svg>
