<svg width="18" height="18" viewBox="0 0 18 18" fill="none" xmlns="http://www.w3.org/2000/svg">
<path fill-rule="evenodd" clip-rule="evenodd" d="M17.25 18H15C14.5852 18 14.25 17.664 14.25 17.25C14.25 16.836 14.5852 16.5 15 16.5H16.5V15C16.5 14.586 16.8353 14.25 17.25 14.25C17.6647 14.25 18 14.586 18 15V17.25C18 17.664 17.6647 18 17.25 18ZM17.25 13.5998C16.8353 13.5998 16.5 13.2638 16.5 12.8498V11.7495C16.5 11.3355 16.8353 10.9995 17.25 10.9995C17.6647 10.9995 18 11.3355 18 11.7495V12.8498C18 13.2638 17.6647 13.5998 17.25 13.5998ZM17.25 10.5H15.45C15.0352 10.5 14.7 10.164 14.7 9.75V9.00075L12.7493 9C12.3352 9 12 8.664 12 8.24925C12 7.836 12.336 7.5 12.75 7.5C12.75 7.5 12.75 7.5 12.7507 7.5L15.4508 7.5015C15.864 7.5015 16.2 7.8375 16.2 8.2515L16.2 9H17.25C17.6647 9 18 9.336 18 9.75C18 10.164 17.6647 10.5 17.25 10.5ZM17.25 6L12.75 6C12.3352 6 12 5.664 12 5.25L12 0.75C12 0.336 12.3352 0 12.75 0L17.25 0C17.6647 0 18 0.336 18 0.75V5.25C18 5.664 17.6647 6 17.25 6ZM16.5 1.5L13.5 1.5L13.5 4.5L16.5 4.5V1.5ZM15.015 2.25H15.0225C15.4365 2.25 15.7725 2.586 15.7725 3C15.7725 3.414 15.4365 3.75 15.0225 3.75C14.6085 3.75 14.2688 3.414 14.2688 3C14.2688 2.586 14.601 2.25 15.015 2.25ZM15 12.0007V13.1257C15 13.5398 14.6648 13.8757 14.25 13.8757C13.8352 13.8757 13.5 13.5398 13.5 13.1257V12.7507L12 12.75L12 14.25C12 14.664 11.6648 15 11.25 15C10.8352 15 10.5 14.664 10.5 14.25L10.5 12C10.5 11.916 10.5225 11.8387 10.548 11.763C10.554 11.7458 10.5518 11.7247 10.5592 11.7083C10.581 11.655 10.6208 11.613 10.6538 11.5673C10.677 11.535 10.692 11.4975 10.7198 11.4698C10.7385 11.451 10.7655 11.442 10.7858 11.4248C10.8398 11.3813 10.893 11.3363 10.9583 11.3085C11.0483 11.271 11.1465 11.25 11.25 11.25L14.25 11.2507C14.6648 11.2507 15 11.586 15 12.0007ZM9.75 6H8.25C7.83525 6 7.5 5.664 7.5 5.25C7.5 4.836 7.83525 4.5 8.25 4.5H9.75C10.1648 4.5 10.5 4.836 10.5 5.25C10.5 5.664 10.1648 6 9.75 6ZM9.75 3.75H8.25C7.83525 3.75 7.5 3.414 7.5 3C7.5 2.99325 7.50375 2.98725 7.50375 2.9805C7.50375 2.973 7.5 2.96775 7.5 2.96025L7.5 0.75C7.5 0.336 7.83525 0 8.25 0C8.66475 0 9 0.336 9 0.75V2.25H9.75C10.1648 2.25 10.5 2.586 10.5 3C10.5 3.414 10.1648 3.75 9.75 3.75ZM5.25 6L0.75 6C0.33525 6 0 5.664 0 5.25L0 0.75C0 0.336 0.33525 0 0.75 0L5.25 0C5.66475 0 6 0.336 6 0.75L6 5.25C6 5.664 5.66475 6 5.25 6ZM4.5 1.5L1.5 1.5L1.5 4.5L4.5 4.5L4.5 1.5ZM3.01425 2.25H3.0225C3.4365 2.25 3.7725 2.586 3.7725 3C3.7725 3.414 3.4365 3.75 3.0225 3.75C2.6085 3.75 2.26875 3.414 2.26875 3C2.26875 2.586 2.601 2.25 3.01425 2.25ZM0.75 7.5L2.2485 7.5H2.24925H2.25C2.66475 7.5 3 7.836 3 8.25V9.75C3 10.164 2.66475 10.5 2.25 10.5C1.83525 10.5 1.5 10.164 1.5 9.75L1.5 9H0.75C0.33525 9 0 8.664 0 8.25C0 7.836 0.33525 7.5 0.75 7.5ZM0.75 12L5.25 12C5.66475 12 6 12.336 6 12.75L6 17.25C6 17.664 5.66475 18 5.25 18H0.75C0.33525 18 0 17.664 0 17.25L0 12.75C0 12.336 0.33525 12 0.75 12ZM1.5 16.5H4.5L4.5 13.5L1.5 13.5L1.5 16.5ZM3.0225 15.75C2.6085 15.75 2.26875 15.414 2.26875 15C2.26875 14.586 2.601 14.25 3.01425 14.25H3.0225C3.4365 14.25 3.7725 14.586 3.7725 15C3.7725 15.414 3.4365 15.75 3.0225 15.75ZM9.75 11.25C9.75 11.664 9.41475 12 9 12C8.58525 12 8.25 11.664 8.25 11.25V9.75H4.5C4.08525 9.75 3.75 9.414 3.75 9V8.25C3.75 7.836 4.08525 7.5 4.5 7.5C4.91475 7.5 5.25 7.836 5.25 8.25H9C9.41475 8.25 9.75 8.586 9.75 9C9.75 9.04425 9.732 9.0825 9.7245 9.1245C9.732 9.16725 9.75 9.2055 9.75 9.24975V11.25ZM8.25 13.5C8.66475 13.5 9 13.836 9 14.25V16.5H9.75C10.1648 16.5 10.5 16.836 10.5 17.25C10.5 17.664 10.1648 18 9.75 18L8.25 18C7.83525 18 7.5 17.664 7.5 17.25L7.5 14.25C7.5 13.836 7.83525 13.5 8.25 13.5ZM12.75 15C13.1648 15 13.5 15.336 13.5 15.75V17.25C13.5 17.664 13.1648 18 12.75 18C12.3352 18 12 17.664 12 17.25V15.75C12 15.336 12.3352 15 12.75 15Z" fill="#495057"/>
</svg>
