<svg viewBox="0 0 19 12" fill="none" xmlns="http://www.w3.org/2000/svg">
<path d="M13.2742 7.06159L11.1358 9.34201C10.9546 9.53521 10.9548 9.84927 11.1361 10.0422L12.7702 11.7809C13.0487 12.073 13.504 12.073 13.7825 11.7809L18.7911 6.52849C19.0696 6.23644 19.0696 5.75892 18.7911 5.46687L13.7825 0.219046C13.504 -0.0730153 13.0487 -0.0730153 12.7702 0.219046L11.1361 1.95779C10.9548 2.15076 10.9546 2.46481 11.1358 2.65798L13.2742 4.93842C13.8312 5.52252 13.8312 6.47749 13.2742 7.06159Z" fill="#0A6E5C"/>
<path d="M5.72584 7.06159L7.86424 9.34201C8.0454 9.53521 8.04523 9.84927 7.86388 10.0422L6.22977 11.7809C5.95126 12.073 5.49597 12.073 5.21746 11.7809L0.208875 6.52849C-0.069625 6.23644 -0.069625 5.75892 0.208875 5.46687L5.21746 0.219046C5.49597 -0.0730153 5.95126 -0.0730153 6.22977 0.219046L7.86388 1.95779C8.04523 2.15076 8.0454 2.46481 7.86424 2.65798L5.72584 4.93842C5.16882 5.52252 5.16882 6.47749 5.72584 7.06159Z" fill="#21BF73"/>
<path d="M7.17975 6.43387C6.94008 6.19424 6.94008 5.80575 7.17975 5.56612L9.56614 3.17972C9.80576 2.94009 10.1943 2.94009 10.4339 3.17972L12.8203 5.56612C13.0599 5.80575 13.0599 6.19424 12.8203 6.43387L10.4339 8.82025C10.1943 9.05992 9.80576 9.05992 9.56614 8.82025L7.17975 6.43387Z" fill="#21BF73"/>
</svg>
