<svg width="12" height="12" viewBox="0 0 12 12" fill="none" xmlns="http://www.w3.org/2000/svg">
<path fill-rule="evenodd" clip-rule="evenodd" d="M11 6.00007C11 8.29045 9.5215 10.338 7.4045 10.9785C7.3565 10.9931 7.3075 11.0001 7.2595 11.0001C7.045 11.0001 6.8465 10.8608 6.7815 10.6447C6.701 10.3807 6.8505 10.1017 7.115 10.0213C8.8135 9.50753 10 7.85359 10 6.00007C10 4.26167 8.985 2.84954 7.4475 2.27745L7.947 3.27635C8.071 3.52318 7.9705 3.82381 7.7235 3.94747C7.652 3.98317 7.5755 4.00026 7.5005 4.00026C7.317 4.00026 7.1405 3.89921 7.0525 3.72377L6.0525 1.72396C5.929 1.47712 6.0295 1.1765 6.2765 1.05333L8.2765 0.0529234C8.5245 -0.070745 8.824 0.0297984 8.947 0.276633C9.071 0.523467 8.9705 0.824092 8.7235 0.947258L7.886 1.36602C9.748 2.10803 11 3.89167 11 6.00007ZM5.7235 10.9473L3.7235 11.9472C3.652 11.9829 3.5755 12 3.5005 12C3.317 12 3.1405 11.899 3.0525 11.7235C2.929 11.4767 3.0295 11.176 3.2765 11.0529L4.113 10.6346C2.252 9.89311 1 8.10947 1 6.00007C1 3.71019 2.4785 1.66313 4.595 1.02166C4.8595 0.941728 5.1385 1.09103 5.2185 1.35496C5.299 1.61939 5.1495 1.8984 4.8855 1.97883C3.1865 2.49362 2 4.14705 2 6.00007C2 7.73997 3.0155 9.15261 4.5525 9.7237L4.0525 8.72379C3.929 8.47645 4.0295 8.17633 4.2765 8.05266C4.524 7.929 4.824 8.03004 4.947 8.27637L5.947 10.2767C6.071 10.5235 5.9705 10.8236 5.7235 10.9473Z" fill="#495057"/>
</svg>
