<svg width="1000" height="1000" viewBox="0 0 1000 1000" fill="none" xmlns="http://www.w3.org/2000/svg">
<path fill-rule="evenodd" clip-rule="evenodd" d="M498.5 872C704.226 872 871 705.226 871 499.5C871 293.774 704.226 127 498.5 127C292.774 127 126 293.774 126 499.5C126 705.226 292.774 872 498.5 872ZM249.565 624.039L354.968 519.099L550.439 714.57C550.517 714.648 550.643 714.648 550.721 714.57L765.65 499.641C765.728 499.563 765.728 499.437 765.65 499.359L550.721 284.43C550.643 284.352 550.517 284.352 550.439 284.43L355.111 479.758L249.565 374.96C249.439 374.835 249.224 374.924 249.224 375.102L249.224 623.897C249.224 624.075 249.439 624.164 249.565 624.039Z" fill="white"/>
</svg>
