<svg width="60" height="60" viewBox="0 0 60 60" fill="none" xmlns="http://www.w3.org/2000/svg">
<g clip-path="url(#clip0_4963_141756)">
<path d="M43.4649 53.7082C40.9153 55.5638 38.0041 56.8669 34.9185 57.5339C34.2145 57.6841 33.5019 57.791 32.7847 57.8541H32.7207C32.7016 57.8541 31.2117 58.0109 29.787 58.0339C30.0494 57.4842 30.299 56.9205 30.5191 56.3479C30.7201 55.8315 30.9121 55.287 31.0824 54.7463C35.5582 54.2311 39.7497 52.2978 43.0399 49.2311C46.3302 46.1645 48.5453 42.1265 49.3593 37.7115C49.3775 37.6122 49.376 37.5102 49.3547 37.4115C49.3333 37.3128 49.2927 37.2193 49.2352 37.1363C49.1776 37.0531 49.1041 36.9822 49.019 36.9274C48.934 36.8726 48.8388 36.8351 48.7391 36.8169C48.6395 36.7987 48.5372 36.8003 48.4381 36.8215C48.339 36.8427 48.2451 36.8832 48.1618 36.9405C48.0783 36.9979 48.0071 37.0711 47.9522 37.1559C47.8972 37.2407 47.8595 37.3354 47.8412 37.4347C47.0718 41.6071 44.9526 45.4137 41.8074 48.2731C38.6621 51.1324 34.6638 52.8873 30.4232 53.2695C30.2688 53.283 30.122 53.3428 30.0024 53.4408C29.8826 53.5389 29.7955 53.6708 29.7525 53.8192C29.5604 54.4747 29.3288 55.1556 29.0818 55.7894C28.7305 56.6875 28.324 57.5631 27.8645 58.4113C27.8018 58.5246 27.7688 58.6518 27.7689 58.7812C27.7689 58.9106 27.8018 59.0378 27.8646 59.1511C27.9273 59.2643 28.0179 59.3598 28.1278 59.4287C28.2377 59.4976 28.3633 59.5377 28.493 59.545C28.7963 59.5642 29.1214 59.5718 29.4542 59.5718C31.0465 59.5718 32.7925 59.3908 32.8731 59.3818H32.9268C33.7068 59.3138 34.4818 59.1979 35.2475 59.0349C38.5421 58.3243 41.6509 56.9342 44.3738 54.9542C44.5389 54.834 44.6494 54.6536 44.681 54.4523C44.7125 54.2511 44.6625 54.0456 44.542 53.8811C44.4216 53.7165 44.2404 53.6064 44.0383 53.5749C43.8364 53.5435 43.6301 53.5933 43.4649 53.7133V53.7082Z" fill="#F0F2FF"/>
<path d="M51.1563 23.1011C51.1059 23.0138 51.0387 22.9372 50.9585 22.8757C50.8784 22.8143 50.7869 22.7692 50.6893 22.7429C50.5917 22.7167 50.4897 22.7098 50.3895 22.7229C50.2892 22.7358 50.1925 22.7684 50.1048 22.8187C50.0172 22.8689 49.9403 22.9358 49.8786 23.0156C49.8169 23.0955 49.7716 23.1867 49.7453 23.2839C49.719 23.3812 49.7121 23.4827 49.7252 23.5826C49.7382 23.6826 49.7709 23.7789 49.8213 23.8662C52.3374 28.2125 53.3448 33.2641 52.6876 38.2385C52.0304 43.2129 49.7453 47.8327 46.1861 51.3823C46.0415 51.5264 45.9603 51.7218 45.9603 51.9256C45.9603 52.1293 46.0415 52.3247 46.1861 52.4688C46.3307 52.6129 46.5268 52.6938 46.7314 52.6938C46.9359 52.6938 47.132 52.6129 47.2767 52.4688C51.0749 48.6801 53.5134 43.7495 54.2148 38.4404C54.9161 33.1313 53.8412 27.74 51.1563 23.1011Z" fill="#F0F2FF"/>
<path d="M47.9346 21.0872C47.9961 21.1673 48.073 21.2345 48.1606 21.285C48.2483 21.3354 48.3451 21.3682 48.4454 21.3814C48.5459 21.3946 48.6478 21.388 48.7456 21.3619C48.8434 21.3358 48.9352 21.2908 49.0155 21.2294C49.0959 21.1681 49.1632 21.0915 49.2139 21.0042C49.2646 20.9169 49.2975 20.8204 49.3107 20.7204C49.3239 20.6204 49.3174 20.5187 49.2911 20.4214C49.265 20.3239 49.2198 20.2325 49.1582 20.1525C48.5845 19.4134 47.956 18.7181 47.2779 18.0726C47.2063 18.0012 47.1213 17.9446 47.0277 17.906C46.9342 17.8674 46.8339 17.8475 46.7326 17.8475C46.6314 17.8475 46.5311 17.8674 46.4375 17.906C46.3439 17.9446 46.2589 18.0012 46.1874 18.0726C46.1158 18.1439 46.0589 18.2286 46.0202 18.3218C45.9815 18.415 45.9615 18.5149 45.9615 18.6158C45.9615 18.7167 45.9815 18.8166 46.0202 18.9098C46.0589 19.003 46.1158 19.0877 46.1874 19.1591C46.8176 19.7571 47.4017 20.4016 47.9346 21.0872Z" fill="#F0F2FF"/>
<path d="M31.4792 12.5357C35.8045 12.8054 39.9626 14.2994 43.465 16.8422C43.6304 16.9623 43.8368 17.012 44.0389 16.9804C44.2411 16.9489 44.4223 16.8386 44.5428 16.6739C44.6633 16.5092 44.7132 16.3035 44.6815 16.1021C44.6498 15.9008 44.5391 15.7202 44.3739 15.6001C40.6335 12.8846 36.193 11.2893 31.574 11.0016C31.4731 10.9951 31.3719 11.0085 31.2763 11.041C31.1806 11.0735 31.0924 11.1245 31.0165 11.191C30.9406 11.2575 30.8786 11.3382 30.834 11.4286C30.7894 11.5189 30.7632 11.6171 30.7567 11.7176C30.7502 11.8181 30.7637 11.9189 30.7963 12.0142C30.8289 12.1095 30.88 12.1974 30.9468 12.273C31.0135 12.3487 31.0946 12.4104 31.1853 12.4548C31.276 12.4993 31.3746 12.5254 31.4754 12.5319L31.4792 12.5357Z" fill="#F0F2FF"/>
<path d="M6.78946 37.4184C7.63779 36.9623 8.51322 36.5582 9.41087 36.2082C10.0585 35.9531 10.7267 35.7325 11.3961 35.5386C11.5451 35.496 11.6776 35.4096 11.7763 35.2905C11.875 35.1715 11.9352 35.0254 11.9491 34.8717C12.2831 31.1546 13.6862 27.6123 15.99 24.6697C16.1158 24.5091 16.1724 24.3052 16.1473 24.103C16.1222 23.9008 16.0175 23.7168 15.8562 23.5915C15.695 23.4662 15.4904 23.4098 15.2874 23.4347C15.0845 23.4598 14.8998 23.5641 14.774 23.7247C12.3984 26.758 10.9081 30.385 10.4669 34.2073C9.92159 34.3782 9.38015 34.5669 8.85152 34.7709C8.2896 34.9903 7.73281 35.23 7.18753 35.4901C7.19521 34.9877 7.21441 34.4444 7.24641 33.8668C7.31826 32.4452 7.52265 31.0334 7.85697 29.6495C7.90415 29.451 7.87025 29.2419 7.76271 29.0683C7.65517 28.8947 7.4828 28.7708 7.28353 28.7237C7.08426 28.6767 6.87441 28.7105 6.70013 28.8177C6.52586 28.9248 6.40145 29.0965 6.35427 29.2951C5.99741 30.7717 5.77929 32.2784 5.70275 33.7954C5.64131 34.9227 5.62339 35.925 5.64899 36.7731C5.65222 36.9044 5.68935 37.0327 5.75678 37.1456C5.82422 37.2585 5.9197 37.3522 6.03403 37.4177C6.14835 37.4831 6.27768 37.5182 6.40954 37.5194C6.5414 37.5207 6.67136 37.488 6.7869 37.4248L6.78946 37.4184Z" fill="#F0F2FF"/>
<path d="M7.72636 27.3682C7.8161 27.4032 7.91158 27.4214 8.00796 27.4217C8.16317 27.4221 8.31487 27.3757 8.44305 27.2885C8.57124 27.2013 8.6699 27.0774 8.72604 26.9333C10.194 23.2227 12.6128 19.9603 15.7411 17.4717C18.8695 14.9831 22.5981 13.355 26.555 12.75C26.7571 12.7194 26.9388 12.61 27.06 12.4459C27.1812 12.2819 27.2321 12.0765 27.2014 11.8751C27.1706 11.6737 27.0609 11.4927 26.8962 11.372C26.7315 11.2512 26.5254 11.2005 26.3233 11.2311C22.099 11.8767 18.1184 13.6146 14.7787 16.2713C11.439 18.928 8.85685 22.4108 7.28989 26.3722C7.25246 26.4661 7.23406 26.5664 7.23576 26.6675C7.23747 26.7685 7.25924 26.8682 7.29982 26.9608C7.3404 27.0534 7.39898 27.137 7.47219 27.207C7.54541 27.2769 7.63179 27.3317 7.72636 27.3682Z" fill="#F0F2FF"/>
<path d="M23.3769 46.0081C28.2973 46.2415 32.7337 44.6346 35.9464 41.4337C39.8555 37.5392 41.3851 31.835 40.1435 25.7826C40.1137 25.6348 40.0407 25.499 39.9337 25.3923C39.8266 25.2857 39.6903 25.213 39.5419 25.1832C33.4696 23.9462 27.7443 25.4702 23.8339 29.3647C20.6199 32.567 19.0071 36.9856 19.2401 41.8864C18.2072 41.8373 17.172 41.8731 16.145 41.9936C14.7384 42.1549 13.3579 42.4925 12.0363 42.9985C10.7109 43.5057 9.46182 44.1923 8.32432 45.0389C8.16086 45.1611 8.05285 45.3431 8.02405 45.5447C7.99525 45.7463 8.048 45.9511 8.17073 46.1139C8.29345 46.2767 8.47607 46.3844 8.67843 46.4131C8.88078 46.4418 9.0863 46.3892 9.24976 46.2669C10.2746 45.5043 11.4001 44.8859 12.5944 44.4294C13.7957 43.9694 15.0507 43.663 16.3294 43.5175C17.5489 43.3742 18.7804 43.3605 20.0029 43.4767C20.1159 43.4878 20.2298 43.4738 20.3367 43.4358C20.4435 43.3977 20.5405 43.3366 20.6208 43.2567C20.7011 43.1768 20.7626 43.0802 20.801 42.9738C20.8393 42.8675 20.8535 42.7539 20.8426 42.6414C20.3972 37.8465 21.8487 33.517 24.927 30.4488C25.5601 29.8186 26.2533 29.2514 26.9968 28.7552C27.7468 30.9694 29.0009 32.9808 30.6606 34.632C32.3204 36.2833 34.3411 37.5296 36.5646 38.2736C36.0653 39.018 35.4939 39.7116 34.8584 40.3447C31.7865 43.4053 27.4346 44.8565 22.6205 44.4127C22.5075 44.4017 22.3936 44.4156 22.2868 44.4537C22.1799 44.4917 22.0829 44.5529 22.0026 44.6327C21.9223 44.7126 21.8608 44.8092 21.8225 44.9156C21.7841 45.022 21.7699 45.1355 21.7808 45.248C21.8968 46.4673 21.8831 47.6954 21.7398 48.9118C21.5934 50.1846 21.2868 51.4339 20.8273 52.6305C20.3692 53.8207 19.7481 54.9421 18.9815 55.9626C18.9207 56.0434 18.8765 56.1353 18.8514 56.233C18.8262 56.3308 18.8207 56.4324 18.835 56.5324C18.8493 56.6322 18.8832 56.7284 18.9348 56.8152C18.9865 56.902 19.0547 56.9778 19.1357 57.0384C19.2168 57.0989 19.3089 57.1429 19.407 57.168C19.5052 57.193 19.6073 57.1986 19.7075 57.1843C19.8078 57.1701 19.9042 57.1362 19.9914 57.0848C20.0785 57.0334 20.1546 56.9654 20.2154 56.8846C21.0654 55.7516 21.7546 54.5071 22.2634 53.1864C22.7696 51.8697 23.1076 50.4949 23.2695 49.0942C23.3903 48.0701 23.4262 47.038 23.3769 46.0081ZM31.7404 33.54C30.1723 31.9825 29.0101 30.0667 28.3548 27.9595C31.3513 26.4164 34.9506 25.9191 38.7227 26.5937C39.3934 30.3531 38.8994 33.9365 37.3557 36.9232C35.2348 36.2689 33.3069 35.1074 31.7404 33.54Z" fill="#F0F2FF"/>
<path d="M11.5369 40.114L11.5613 40.1051C12.9425 39.6237 14.3714 39.2906 15.8236 39.1116C15.9245 39.0993 16.0219 39.0672 16.1104 39.0173C16.1987 38.9674 16.2764 38.9006 16.339 38.8208C16.4015 38.741 16.4476 38.6497 16.4747 38.5521C16.5018 38.4546 16.5093 38.3526 16.4969 38.2521C16.4845 38.1516 16.4523 38.0546 16.4022 37.9665C16.3521 37.8784 16.2851 37.801 16.205 37.7387C16.1249 37.6764 16.0333 37.6305 15.9353 37.6035C15.8374 37.5765 15.735 37.569 15.6342 37.5813C14.0608 37.7754 12.5129 38.1376 11.0173 38.6615L10.9853 38.6743C10.8074 38.738 10.6307 38.8018 10.4528 38.8719C9.16158 39.373 7.9251 40.0041 6.7626 40.7555C6.67771 40.8104 6.60453 40.8816 6.54724 40.9648C6.48995 41.048 6.44967 41.1416 6.42868 41.2403C6.40771 41.339 6.40645 41.4409 6.42497 41.54C6.44351 41.6392 6.48146 41.7338 6.53668 41.8183C6.59189 41.9029 6.6633 41.9758 6.7468 42.0329C6.8303 42.09 6.92426 42.1302 7.02332 42.151C7.12239 42.1719 7.22462 42.1732 7.32418 42.1548C7.42374 42.1363 7.51867 42.0984 7.60355 42.0435C8.67822 41.3516 9.82073 40.7705 11.0134 40.3091C11.1837 40.2428 11.359 40.1778 11.5369 40.114Z" fill="#F0F2FF"/>
<path d="M15.9439 35.4503C15.9957 35.4605 16.0484 35.4656 16.1012 35.4657C16.2785 35.4659 16.4504 35.4052 16.5879 35.2936C16.7253 35.1821 16.8197 35.0266 16.8552 34.8535C17.3959 32.2247 18.5802 29.7698 20.3027 27.7069C22.0254 25.6441 24.2328 24.0373 26.729 23.0294C26.9186 22.9528 27.0699 22.8042 27.1496 22.6165C27.2293 22.4288 27.2309 22.2172 27.154 22.0283C27.077 21.8395 26.928 21.6887 26.7396 21.6093C26.5512 21.5299 26.3388 21.5283 26.1491 21.605C23.4184 22.7082 21.0033 24.4662 19.1185 26.7229C17.2337 28.9796 15.9374 31.6652 15.3448 34.541C15.3237 34.64 15.3225 34.7421 15.3412 34.8415C15.3599 34.9409 15.3983 35.0356 15.454 35.1202C15.5097 35.2047 15.5816 35.2774 15.6657 35.3341C15.7498 35.3908 15.8443 35.4303 15.9439 35.4503Z" fill="#F0F2FF"/>
<path d="M40.0295 43.6974C40.1082 43.761 40.1989 43.8084 40.2962 43.8368C40.3935 43.8652 40.4955 43.8742 40.5963 43.8632C40.6971 43.8522 40.7947 43.8214 40.8835 43.7726C40.9723 43.7237 41.0504 43.6579 41.1136 43.5788C43.2598 40.9042 44.5943 37.6743 44.9599 34.2695C45.331 30.8841 44.7731 27.4617 43.3459 24.3673C42.8603 23.3148 42.0119 22.4709 40.9548 21.9889C37.4254 20.3858 33.4884 19.8964 29.6717 20.5861C29.4706 20.6233 29.2925 20.7386 29.1767 20.9066C29.061 21.0746 29.0168 21.2816 29.0542 21.4819C29.0915 21.6824 29.2073 21.8598 29.3759 21.9752C29.5445 22.0906 29.7522 22.1345 29.9533 22.0972C33.4579 21.4655 37.0725 21.9167 40.3123 23.3904C41.0339 23.7186 41.6131 24.2943 41.9443 25.0125C44.6323 30.8416 43.831 37.7548 39.9104 42.6212C39.8472 42.6996 39.8002 42.7896 39.7719 42.8862C39.7438 42.9828 39.7349 43.0839 39.746 43.1839C39.757 43.2839 39.7877 43.3807 39.8364 43.4688C39.885 43.5569 39.9506 43.6346 40.0295 43.6974Z" fill="#F0F2FF"/>
<path d="M38.3309 45.3719C38.2684 45.2923 38.1908 45.2258 38.1025 45.1764C38.0141 45.1269 37.9167 45.0953 37.8161 45.0834C37.7154 45.0716 37.6134 45.0797 37.5159 45.1073C37.4184 45.1349 37.3274 45.1815 37.248 45.2443C34.3062 47.519 30.6859 48.7494 26.962 48.7398H26.9274C26.7384 48.7385 26.5555 48.8068 26.4138 48.9315C26.2721 49.0561 26.1815 49.2286 26.1595 49.4157C26.0264 50.515 25.8016 51.6015 25.4874 52.6638C25.4585 52.7605 25.4489 52.862 25.4596 52.9626C25.4702 53.063 25.5006 53.1604 25.5491 53.2491C25.5977 53.3378 25.6634 53.416 25.7425 53.4793C25.8215 53.5424 25.9124 53.5895 26.0097 53.6176C26.0803 53.6387 26.1536 53.6495 26.2273 53.6495C26.3939 53.6501 26.5562 53.5966 26.6896 53.4972C26.8231 53.3979 26.9205 53.258 26.9672 53.0986C27.2411 52.1696 27.4524 51.2233 27.5995 50.2663C31.4477 50.142 35.1577 48.8072 38.1978 46.4533C38.2783 46.3914 38.3458 46.3142 38.3962 46.2261C38.4466 46.1381 38.4789 46.0409 38.4913 45.9403C38.5037 45.8396 38.4959 45.7376 38.4683 45.6401C38.4408 45.5425 38.3941 45.4513 38.3309 45.3719Z" fill="#F0F2FF"/>
<path d="M25.5271 54.9071C25.4353 54.8643 25.3358 54.8399 25.2345 54.8357C25.1331 54.8314 25.0319 54.847 24.9367 54.8819C24.8415 54.9168 24.7541 54.9701 24.6798 55.0387C24.6054 55.1074 24.5453 55.1901 24.5032 55.282C24.1303 56.0853 23.6999 56.861 23.2155 57.6029C23.1598 57.6875 23.1214 57.7821 23.1026 57.8814C23.084 57.9808 23.0851 58.0829 23.1062 58.1818C23.1272 58.2807 23.1677 58.3744 23.2255 58.4576C23.2831 58.5408 23.3567 58.6118 23.442 58.6665C23.5268 58.7218 23.6218 58.7599 23.7213 58.7784C23.8209 58.797 23.9232 58.7958 24.0223 58.7748C24.1214 58.7538 24.2154 58.7135 24.2988 58.6562C24.3822 58.5989 24.4533 58.5257 24.5083 58.4408C25.0333 57.6372 25.4992 56.7968 25.9022 55.926C25.945 55.8346 25.9693 55.7357 25.9736 55.635C25.9779 55.5342 25.9622 55.4335 25.9274 55.3389C25.8925 55.2441 25.8392 55.1572 25.7705 55.0832C25.7019 55.0091 25.6191 54.9492 25.5271 54.9071Z" fill="#F0F2FF"/>
<path d="M31.9196 15.66C28.0559 15.5655 24.2401 16.527 20.8861 18.4401C20.7982 18.4903 20.7212 18.5573 20.6594 18.6372C20.5975 18.7171 20.5521 18.8084 20.5256 18.9058C20.4992 19.0032 20.4923 19.1048 20.5053 19.2049C20.5182 19.3049 20.5508 19.4015 20.6012 19.489C20.6517 19.5765 20.7189 19.6532 20.7991 19.7148C20.8793 19.7765 20.9709 19.8217 21.0687 19.8481C21.1664 19.8744 21.2684 19.8813 21.3689 19.8684C21.4693 19.8555 21.5662 19.8229 21.654 19.7727C27.9183 16.188 35.9131 16.3805 42.0225 20.2637C43.2693 21.0558 44.3245 22.1133 45.1124 23.36C46.919 26.2109 47.9593 29.4769 48.1332 32.844C48.1427 33.0404 48.2278 33.2257 48.3708 33.3613C48.5138 33.4969 48.7037 33.5724 48.9011 33.5722H48.9421C49.0433 33.5673 49.1426 33.5425 49.2341 33.4992C49.3257 33.4559 49.4078 33.395 49.4756 33.3199C49.5434 33.2449 49.5957 33.1572 49.6293 33.0619C49.663 32.9667 49.6774 32.8658 49.6717 32.765C49.4843 29.1336 48.363 25.6113 46.4154 22.5361C45.5067 21.0985 44.2896 19.8791 42.8519 18.9655C39.5786 16.8909 35.7981 15.7478 31.9196 15.66Z" fill="#F0F2FF"/>
<path d="M17.9446 22.5283C18.4385 22.0613 18.9563 21.6198 19.4959 21.2059C19.5761 21.1444 19.6435 21.0678 19.694 20.9805C19.7446 20.8931 19.7774 20.7966 19.7905 20.6966C19.8036 20.5966 19.7968 20.495 19.7706 20.3976C19.7443 20.3002 19.699 20.2089 19.6374 20.1289C19.5757 20.049 19.4988 19.9819 19.4111 19.9315C19.3233 19.8812 19.2266 19.8486 19.1261 19.8354C19.0258 19.8224 18.9238 19.8291 18.8261 19.8553C18.7283 19.8815 18.6367 19.9266 18.5564 19.988C17.974 20.4336 17.4155 20.9095 16.8834 21.4138C16.81 21.4832 16.751 21.5664 16.7098 21.6585C16.6686 21.7506 16.646 21.85 16.6433 21.9508C16.6379 22.1544 16.714 22.3519 16.8547 22.4996C16.9954 22.6474 17.1892 22.7335 17.3937 22.7389C17.5981 22.7443 17.7962 22.6685 17.9446 22.5283Z" fill="#F0F2FF"/>
<path d="M33.7792 29.3536C33.5632 29.5671 33.4156 29.8398 33.3553 30.137C33.295 30.4341 33.3246 30.7425 33.4405 31.0228C33.5564 31.3032 33.7532 31.5429 34.0061 31.7117C34.259 31.8804 34.5565 31.9705 34.8608 31.9705C35.1652 31.9705 35.4626 31.8804 35.7154 31.7117C35.9683 31.5429 36.1652 31.3032 36.2811 31.0228C36.3969 30.7425 36.4267 30.4341 36.3663 30.137C36.3061 29.8398 36.1585 29.5671 35.9424 29.3536C35.8004 29.2119 35.6318 29.0996 35.4462 29.0229C35.2607 28.9462 35.0618 28.9067 34.8608 28.9067C34.6599 28.9067 34.461 28.9462 34.2754 29.0229C34.0897 29.0996 33.9211 29.2119 33.7792 29.3536Z" fill="#F0F2FF"/>
</g>
<defs>
<clipPath id="clip0_4963_141756">
<rect width="50" height="49" fill="white" transform="translate(5 11)"/>
</clipPath>
</defs>
</svg>
