<svg width="745" height="745" viewBox="0 0 745 745" fill="none" xmlns="http://www.w3.org/2000/svg">
<g clip-path="url(#clip0_5984_7509)">
<circle cx="372.5" cy="372.5" r="372.5" fill="#3147FF"/>
<path d="M209.51 372.359L424.439 157.43C424.517 157.352 424.643 157.352 424.721 157.43L639.65 372.359C639.728 372.437 639.728 372.563 639.65 372.641L424.721 587.57C424.643 587.648 424.517 587.648 424.439 587.57L209.51 372.641C209.432 372.563 209.432 372.437 209.51 372.359Z" fill="white"/>
<path d="M123.224 248.102C123.224 247.924 123.439 247.835 123.565 247.96L248.681 372.19C248.759 372.268 248.76 372.395 248.681 372.473L123.565 497.039C123.439 497.164 123.224 497.075 123.224 496.897L123.224 248.102Z" fill="white"/>
</g>
<defs>
<clipPath id="clip0_5984_7509">
<rect width="745" height="745" fill="white"/>
</clipPath>
</defs>
</svg>
