<svg width="15" height="15" viewBox="0 0 15 15" fill="none" xmlns="http://www.w3.org/2000/svg">
<path fill-rule="evenodd" clip-rule="evenodd" d="M6 12C2.68638 12 0 9.31355 0 5.99964C0 2.68633 2.68651 0 6 0C9.31349 0 12 2.68633 12 5.99964C12 7.53549 11.423 8.93657 10.4739 9.99791L14.8048 13.9572C15.0494 14.1808 15.0664 14.5603 14.8428 14.8048C14.6192 15.0494 14.2397 15.0664 13.9951 14.8428L9.58526 10.8114C8.585 11.558 7.3441 12 6 12ZM9.28076 9.50367C9.23611 9.53175 9.19445 9.56623 9.15714 9.60704C9.14746 9.61763 9.13823 9.62848 9.12945 9.63955C8.28912 10.3628 7.19558 10.8 5.99998 10.8C3.34911 10.8 1.19998 8.65081 1.19998 5.99964C1.19998 3.34909 3.34921 1.2 5.99998 1.2C8.65075 1.2 10.8 3.34909 10.8 5.99964C10.8 7.38194 10.2157 8.62777 9.28076 9.50367Z" fill="#495057"/>
</svg>
