<svg width="16" height="14" viewBox="0 0 16 14" fill="none" xmlns="http://www.w3.org/2000/svg">
<path fill-rule="evenodd" clip-rule="evenodd" d="M10.9995 3.00012H12.5864L12.2923 2.70742C11.9019 2.31614 11.9019 1.68346 12.2923 1.29319C12.6838 0.902921 13.3161 0.902921 13.7066 1.29319L15.707 3.29283C16.0974 3.6841 16.0974 4.31678 15.707 4.70705L13.7066 6.70669C13.5119 6.90283 13.2559 7.0004 13 7.0004C12.744 7.0004 12.4881 6.90283 12.2923 6.70669C11.9019 6.31642 11.9019 5.68374 12.2923 5.29347L12.5854 4.99976H10.9995C9.34541 4.99976 7.99941 6.34559 7.99941 8.00021C7.99941 8.55243 7.55175 9.00003 6.99971 9.00003C6.44766 9.00003 6 8.55243 6 8.00021C6 5.24317 8.24332 3.00012 10.9995 3.00012Z" fill="#4C54D2"/>
<path d="M8 2H3C2.44772 2 2 2.44772 2 3V11C2 11.5523 2.44772 12 3 12H8C8.55228 12 9 11.5523 9 11V7H11V11C11 12.6569 9.65685 14 8 14H3C1.34315 14 0 12.6569 0 11V3C0 1.34315 1.34315 0 3 0H8C9.30622 0 10.4175 0.834808 10.8293 2L9 3C9 2.44772 8.55228 2 8 2Z" fill="#4C54D2"/>
</svg>
