<svg width="14" height="14" viewBox="0 0 14 14" fill="none" xmlns="http://www.w3.org/2000/svg">
<path fill-rule="evenodd" clip-rule="evenodd" d="M12.9891 9.91634H7C6.67742 9.91634 6.41667 9.65559 6.41667 9.33301C6.41667 9.01042 6.67742 8.74967 7 8.74967H12.8333V1.74967H1.16667V2.91634C1.16667 3.23892 0.905917 3.49967 0.583333 3.49967C0.26075 3.49967 0 3.23892 0 2.91634V1.59684C0 1.03742 0.45325 0.583008 1.01092 0.583008H12.9891C13.5468 0.583008 14 1.03742 14 1.59684V8.90367C14 9.46192 13.5468 9.91634 12.9891 9.91634ZM1.421 4.08301H4.41233C5.19575 4.08301 5.83333 4.72992 5.83333 5.52617V11.9732C5.83333 12.7688 5.19575 13.4163 4.41233 13.4163H1.421C0.637583 13.4163 0 12.7688 0 11.9732V5.52617C0 4.72992 0.637583 4.08301 1.421 4.08301ZM1.16667 11.9732C1.16667 12.1231 1.28275 12.2497 1.421 12.2497H4.41233C4.55 12.2497 4.66667 12.1231 4.66667 11.9732V5.52617C4.66667 5.37626 4.55 5.24967 4.41233 5.24967H1.421C1.28275 5.24967 1.16667 5.37626 1.16667 5.52617V11.9732ZM2.33333 5.83301H3.5C3.82258 5.83301 4.08333 6.09376 4.08333 6.41634C4.08333 6.73892 3.82258 6.99967 3.5 6.99967H2.33333C2.01075 6.99967 1.75 6.73892 1.75 6.41634C1.75 6.09376 2.01075 5.83301 2.33333 5.83301ZM3.5 11.6663H2.33333V10.4997H3.5V11.6663ZM7 11.083H10.5C10.8226 11.083 11.0833 11.3438 11.0833 11.6663C11.0833 11.9889 10.8226 12.2497 10.5 12.2497H7C6.67742 12.2497 6.41667 11.9889 6.41667 11.6663C6.41667 11.3438 6.67742 11.083 7 11.083Z" fill="white"/>
</svg>
