<svg width="17" height="17" viewBox="0 0 17 17" fill="none" xmlns="http://www.w3.org/2000/svg">
<path fill-rule="evenodd" clip-rule="evenodd" d="M13.6879 17.0001C13.488 17.0001 13.2852 16.931 13.086 16.7949L8.54206 13.6869L8.44639 13.6926L3.91383 16.7942C3.45408 17.1084 2.9315 17.0393 2.6595 16.6788C2.536 16.5163 2.41535 16.2327 2.53671 15.8038L3.90812 10.9551C3.9174 10.9045 3.8867 10.7834 3.85243 10.7435L0.322186 7.15168C0.0280579 6.85242 -0.0726024 6.46909 0.0530445 6.12565C0.178691 5.78293 0.502803 5.55564 0.92115 5.51716L5.59436 5.08039C5.6379 5.07184 5.73571 5.00058 5.75998 4.95641L7.63683 0.629277C7.80745 0.235253 8.12942 0.00012207 8.49994 0.00012207C8.87045 0.00012207 9.19385 0.236678 9.36305 0.632127L11.242 4.96139C11.2649 5.00201 11.362 5.07184 11.4105 5.0811L16.0802 5.51573C16.4992 5.55635 16.8226 5.78507 16.9475 6.12779C17.0725 6.47051 16.9711 6.85313 16.677 7.15168L13.1453 10.7449C13.1132 10.7834 13.0818 10.9045 13.0925 10.9558L14.4632 15.8038C14.5845 16.2327 14.4639 16.5163 14.3404 16.6788C14.1862 16.8826 13.9484 17.0001 13.6879 17.0001Z" fill="#FFD43B"/>
</svg>
