<svg width="18" height="18" viewBox="0 0 22 22" fill="none" xmlns="http://www.w3.org/2000/svg">
<path fill-rule="evenodd" clip-rule="evenodd" d="M14.493 18C14.2814 18 14.0667 17.9268 13.8558 17.7827L9.04453 14.4919L8.94324 14.4979L4.14405 17.782C3.65726 18.1147 3.10394 18.0415 2.81594 17.6598C2.68517 17.4877 2.55743 17.1875 2.68593 16.7333L4.13801 11.5994C4.14783 11.5458 4.11533 11.4176 4.07905 11.3753L0.341138 7.57224C0.0297083 7.25537 -0.0768731 6.84949 0.0561647 6.48585C0.189203 6.12297 0.53238 5.88231 0.975335 5.84157L5.92343 5.3791C5.96954 5.37005 6.0731 5.29461 6.0988 5.24783L8.08605 0.666164C8.26671 0.248963 8.60762 0 8.99993 0C9.39224 0 9.73466 0.250472 9.91381 0.669181L11.9033 5.25311C11.9275 5.29611 12.0303 5.37005 12.0817 5.37986L17.026 5.84006C17.4698 5.88306 17.8122 6.12524 17.9445 6.48812C18.0767 6.851 17.9694 7.25613 17.658 7.57224L13.9186 11.3768C13.8845 11.4176 13.8513 11.5458 13.8626 11.6002L15.3139 16.7333C15.4424 17.1875 15.3147 17.4877 15.1839 17.6598C15.0207 17.8755 14.7689 18 14.493 18Z" fill="#868E96"/>
</svg>
