<svg width="18" height="18" viewBox="0 0 22 22" fill="none" xmlns="http://www.w3.org/2000/svg">
<path fill-rule="evenodd" clip-rule="evenodd" d="M16.1034 20C15.8682 20 15.6297 19.9187 15.3953 19.7586L10.0495 16.1021L9.93693 16.1088L4.6045 19.7577C4.06362 20.1274 3.44882 20.0461 3.12883 19.6219C2.98353 19.4308 2.84159 19.0972 2.98437 18.5926L4.59778 12.8882C4.6087 12.8287 4.57259 12.6862 4.53227 12.6393L0.379042 8.4136C0.0330093 8.06153 -0.0854145 7.61055 0.0624053 7.2065C0.210225 6.8033 0.591533 6.5359 1.08371 6.49063L6.58159 5.97678C6.63283 5.96672 6.74789 5.88289 6.77645 5.83092L8.9845 0.740182C9.18524 0.276625 9.56403 0 9.99993 0C10.4358 0 10.8163 0.278302 11.0153 0.743535L13.2259 5.83679C13.2528 5.88457 13.367 5.96672 13.4241 5.97762L18.9178 6.48896C19.4108 6.53674 19.7913 6.80582 19.9383 7.20902C20.0853 7.61222 19.966 8.06237 19.62 8.4136L15.4651 12.6409C15.4273 12.6862 15.3903 12.8287 15.4029 12.8891L17.0155 18.5926C17.1583 19.0972 17.0163 19.4308 16.871 19.6219C16.6896 19.8617 16.4099 20 16.1034 20ZM9.99909 14.4331C10.3636 14.4331 10.7163 14.5379 10.9918 14.7282L14.9569 17.44L13.7987 13.3417C13.6198 12.7222 13.8206 11.9343 14.2775 11.4716L17.6462 8.04476L13.2637 7.63569C12.612 7.5745 11.9527 7.09586 11.6957 6.49734L9.99909 2.58854L8.30252 6.49985C8.04215 7.09753 7.38536 7.5745 6.73697 7.63569L2.35445 8.0456L5.72323 11.4724C6.17845 11.9343 6.38002 12.7222 6.20029 13.3451L5.04292 17.4391L9.00802 14.7274C9.28182 14.5379 9.63458 14.4331 9.99909 14.4331Z" fill="#AEB1C2"/>
</svg>
