<svg xmlns="http://www.w3.org/2000/svg" width="32" height="32" fill="none"><rect width="32" height="32" fill="#33DDB3" rx="6"/><path fill="#1D3944" d="M7.978 10.172a1.023 1.023 0 1 1 1.137 1.702 1.023 1.023 0 0 1-1.137-1.702ZM4 10.109h1.829v11.063H4V10.109ZM28.725 13.274a26.692 26.692 0 0 1-2.234 3.895L29 21.166h-2.16L25.298 18.7c-1.55 1.766-3.084 2.63-4.563 2.63-1.802 0-2.539-1.288-2.539-2.754 0-.349.005-.778.005-1.047 0-1.932-.204-2.476-.856-2.392-1.253.168-3.156 3.022-4.395 6.03h-1.72v-7.893h1.828v3.949c1.043-1.76 1.997-3.268 3.535-3.85.895-.34 1.647-.191 2.04-.018 1.417.625 1.415 2.151 1.396 4.197-.005.27-.005.56-.005.869 0 .741.205 1.067.71 1.117.3.026.602-.041.864-.191v-9.238h1.828v7.917s1.585-1.45 3.261-4.752h2.038ZM9.46 13.278H7.633v7.895h1.829v-7.895Z"/></svg>
