<svg width="40" height="40" viewBox="0 0 40 40" fill="none" xmlns="http://www.w3.org/2000/svg">
<g id="Frame3294">
<rect width="40" height="40" rx="8" fill="#635BFF"/>
<path id="Vector" fill-rule="evenodd" clip-rule="evenodd" d="M34.2858 20.4286C34.2858 18.3968 33.3017 16.7937 31.4207 16.7937C29.5318 16.7937 28.389 18.3968 28.389 20.4127C28.389 22.8016 29.7382 24.0079 31.6747 24.0079C32.6191 24.0079 33.3334 23.7937 33.8731 23.4921V21.9048C33.3334 22.1746 32.7144 22.3413 31.9286 22.3413C31.1588 22.3413 30.4763 22.0714 30.389 21.1349H34.2699C34.2699 21.0318 34.2858 20.6191 34.2858 20.4286ZM30.3652 19.6746C30.3652 18.7778 30.9128 18.4048 31.4128 18.4048C31.8969 18.4048 32.4128 18.7778 32.4128 19.6746H30.3652ZM25.3255 16.7937C24.5477 16.7937 24.0477 17.1587 23.7699 17.4127L23.6667 16.9206H21.9207V26.1746L23.9048 25.754L23.9128 23.5079C24.1985 23.7143 24.6191 24.0079 25.3175 24.0079C26.7382 24.0079 28.0318 22.8651 28.0318 20.3492C28.0239 18.0476 26.7144 16.7937 25.3255 16.7937ZM24.8493 22.2619C24.381 22.2619 24.1032 22.0952 23.9128 21.8889L23.9048 18.9444C24.1112 18.7143 24.3969 18.5556 24.8493 18.5556C25.5715 18.5556 26.0715 19.3651 26.0715 20.4048C26.0715 21.4683 25.5794 22.2619 24.8493 22.2619ZM19.1905 16.3254L21.1826 15.8968V14.2857L19.1905 14.7064V16.3254ZM19.1905 16.9286H21.1826V23.873H19.1905V16.9286ZM17.0556 17.5159L16.9286 16.9286H15.2144V23.873H17.1985V19.1667C17.6667 18.5556 18.4604 18.6667 18.7064 18.754V16.9286C18.4525 16.8333 17.5239 16.6587 17.0556 17.5159ZM13.0874 15.2064L11.1509 15.6191L11.1429 21.9762C11.1429 23.1508 12.0239 24.0159 13.1985 24.0159C13.8493 24.0159 14.3255 23.8968 14.5874 23.754V22.1429C14.3334 22.246 13.0794 22.6111 13.0794 21.4365V18.6191H14.5874V16.9286H13.0794L13.0874 15.2064ZM7.72229 18.9444C7.72229 18.6349 7.97626 18.5159 8.3969 18.5159C9.00007 18.5159 9.76197 18.6984 10.3651 19.0238V17.1587C9.70642 16.8968 9.05563 16.7937 8.3969 16.7937C6.78578 16.7937 5.71436 17.6349 5.71436 19.0397C5.71436 21.2302 8.73023 20.881 8.73023 21.8254C8.73023 22.1905 8.41277 22.3095 7.96832 22.3095C7.30959 22.3095 6.46832 22.0397 5.80166 21.6746V23.5635C6.53975 23.881 7.28578 24.0159 7.96832 24.0159C9.61912 24.0159 10.754 23.1984 10.754 21.7778C10.7461 19.4127 7.72229 19.8333 7.72229 18.9444Z" fill="white"/>
</g>
</svg>
