<svg width="112" height="112" viewBox="0 0 112 112" fill="none" xmlns="http://www.w3.org/2000/svg">
  <path d="M112 56C112 86.9279 86.9279 112 56 112C25.0721 112 0 86.9279 0 56C0 25.0721 25.0721 0 56 0C86.9279 0 112 25.0721 112 56ZM7.11824 56C7.11824 82.9967 29.0033 104.882 56 104.882C82.9967 104.882 104.882 82.9967 104.882 56C104.882 29.0033 82.9967 7.11824 56 7.11824C29.0033 7.11824 7.11824 29.0033 7.11824 56Z" fill="#51CF66"/>
  <path d="M73.3899 43.3334C72.8251 42.8 72.1191 42.6667 71.4131 42.6667C70.7071 42.6667 70.0012 43.0667 69.4364 43.6L51.7865 62.8L42.4674 54.1334C41.3378 53.0667 39.5022 53.0667 38.5138 54.1334C37.949 54.6667 37.6666 55.3334 37.6666 56C37.6666 56.6667 37.949 57.3334 38.5138 57.8667L49.9509 68.5334C50.3745 69.0667 51.0805 69.3334 51.9277 69.3334H52.0689C52.9161 69.3334 53.6221 68.9334 54.0457 68.4L73.6723 47.0667C74.6607 46 74.5195 44.2667 73.3899 43.3334Z" fill="#51CF66"/>
</svg>
