<svg width="14" height="14" viewBox="0 0 14 14" fill="none" xmlns="http://www.w3.org/2000/svg">
<circle cx="7" cy="7" r="6.5" fill="white" stroke="#212529"/>
<path fill-rule="evenodd" clip-rule="evenodd" d="M7 14C3.14008 14 0 10.8599 0 7C0 3.14067 3.14008 0 7 0C10.8599 0 14 3.14067 14 7C14 10.8599 10.8599 14 7 14ZM7 1.16667C3.7835 1.16667 1.16667 3.7835 1.16667 7C1.16667 10.2165 3.7835 12.8333 7 12.8333C10.2165 12.8333 12.8333 10.2165 12.8333 7C12.8333 3.7835 10.2165 1.16667 7 1.16667ZM7.41242 8.57908C7.29867 8.69283 7.14933 8.75 7 8.75C6.85067 8.75 6.70133 8.69283 6.58758 8.57908L4.25425 6.24575C4.02617 6.01825 4.02617 5.64842 4.25425 5.42092C4.48233 5.19283 4.851 5.19283 5.07908 5.42092L7 7.34183L8.92092 5.42092C9.149 5.19283 9.51767 5.19283 9.74575 5.42092C9.97383 5.64842 9.97383 6.01825 9.74575 6.24575L7.41242 8.57908Z" fill="#495057"/>
</svg>
