<svg width="430" height="430" fill="none" xmlns="http://www.w3.org/2000/svg"><path d="M214.62 429.24c118.531 0 214.62-96.089 214.62-214.62S333.151 0 214.62 0 0 96.089 0 214.62s96.089 214.62 214.62 214.62Z" fill="url(#a)"/><path d="m350.14 201.5-60.62-60.62-.11-.11-.24-.21a15.118 15.118 0 0 0-1.23-1c-.3-.24-.6-.47-.92-.68-.14-.1-.28-.18-.43-.27a16.458 16.458 0 0 0-22 3.65l-94.28 94.29v-84c0-4.416-1.754-8.651-4.877-11.773a16.646 16.646 0 0 0-23.546 0 16.646 16.646 0 0 0-4.877 11.773v84l-34.42-34.42a16.649 16.649 0 0 0-23.54 23.54l62.84 62.84c.395.4.812.777 1.25 1.13.42.34.86.67 1.3 1a16.656 16.656 0 0 0 7.56 2.61h.07c.54.05 1.08.08 1.62.08h.25c.453 0 .903-.02 1.35-.06h.33c.43-.05.86-.1 1.28-.19h.19c.47-.1.94-.21 1.4-.35h.08c.502-.151.996-.328 1.48-.53.69-.285 1.358-.619 2-1l.38-.22c.629-.384 1.23-.812 1.8-1.28l.17-.15c.35-.3.7-.6 1-.94l95.6-95.66v83.74c0 4.416 1.754 8.651 4.877 11.773a16.646 16.646 0 0 0 23.546 0 16.646 16.646 0 0 0 4.877-11.773v-84l32.3 32.36a16.647 16.647 0 0 0 23.406-.144 16.648 16.648 0 0 0 .134-23.406Z" fill="#fff"/><defs><linearGradient id="a" x1="28.72" y1="107.29" x2="400.52" y2="321.94" gradientUnits="userSpaceOnUse"><stop offset=".13" stop-color="#348BED"/><stop offset=".31" stop-color="#2B80E8"/><stop offset=".64" stop-color="#1461DB"/><stop offset=".72" stop-color="#0E57D7"/></linearGradient></defs></svg>