<svg width="18" height="18" viewBox="0 0 18 18" fill="none" xmlns="http://www.w3.org/2000/svg">
<path fill-rule="evenodd" clip-rule="evenodd" d="M15.75 4.5H14.9325L13.5787 16.5877C13.4902 17.3798 12.7965 18 12 18L6 18C5.202 18 4.50975 17.379 4.422 16.5863L3.09 4.5H2.25C1.836 4.5 1.5 4.164 1.5 3.75C1.5 3.336 1.836 3 2.25 3L6 3V2.25C6 1.0095 7.0095 0 8.25 0L9.75 0C10.9905 0 12 1.0095 12 2.25V3L15.75 3C16.164 3 16.5 3.336 16.5 3.75C16.5 4.164 16.164 4.5 15.75 4.5ZM10.5 2.25C10.5 1.83675 10.1632 1.5 9.75 1.5L8.25 1.5C7.83675 1.5 7.5 1.83675 7.5 2.25V3L10.5 3V2.25ZM4.599 4.5L5.91375 16.4228C5.91675 16.452 5.97 16.5 6 16.5L12 16.5C12.03 16.5 12.0847 16.4513 12.0885 16.4212L13.4235 4.5L4.599 4.5Z" fill="#495057"/>
</svg>
