<svg width="105" height="33" viewBox="0 0 105 33" fill="none" xmlns="http://www.w3.org/2000/svg">
<g clip-path="url(#clip0)">
<path d="M15.388 3.88281C11.8203 3.88281 8.92768 6.7422 8.92768 10.2693V12.6572C7.67565 12.8786 6.41211 13.1844 6.41211 13.5752V26.0866C6.41211 26.0866 6.41211 26.4374 6.79867 26.5894C8.22603 27.1508 13.83 29.1143 15.1161 29.564C15.2855 29.6233 15.3212 29.6216 15.38 29.6216C15.4418 29.6216 15.4737 29.6237 15.6418 29.5649C16.9255 29.1163 22.5488 27.1478 23.9672 26.5926C24.3356 26.4485 24.3462 26.0917 24.3462 26.0917V13.5758C24.3462 13.1851 23.1002 12.8786 21.848 12.6571V10.2692C21.8482 6.7422 18.9557 3.88281 15.388 3.88281ZM15.388 6.93499C17.4866 6.93499 18.7633 8.19472 18.7633 10.2693V12.3496C16.3938 12.179 14.3804 12.179 12.0106 12.3496V10.2693C12.0106 8.19457 13.2891 6.93499 15.388 6.93499ZM15.3797 15.4208C18.3154 15.4254 20.7833 15.6416 20.7833 16.0547C20.7833 16.0547 20.7833 23.7366 20.7833 23.8502C20.7833 23.9639 20.7651 23.9831 20.656 24.0239C20.5469 24.065 15.6368 25.8191 15.6368 25.8191C15.6368 25.8191 15.4353 25.8852 15.3798 25.8852C15.317 25.8852 15.1153 25.8164 15.1153 25.8164C15.1153 25.8164 10.2073 24.0639 10.097 24.0227C9.98666 23.9817 9.97243 23.9605 9.97243 23.8458C9.97243 23.7195 9.97243 16.0544 9.97243 16.0544C9.97243 15.63 12.4441 15.4162 15.3797 15.4208Z" fill="#212529"/>
<path d="M32.667 23.9606V15.4194H29.5176V12.3579H39.354V15.4194H36.2215V23.9606H32.667Z" fill="#212529"/>
<path d="M47.3247 23.9606L45.7061 20.3077H44.4215V23.9606H40.8672V12.3579H47.1312C49.876 12.3579 51.3545 14.1669 51.3545 16.3413C51.3545 18.3422 50.1754 19.4029 49.243 19.8552L51.3723 23.9604H47.3249V23.9606H47.3247ZM47.747 16.3237C47.747 15.6978 47.1839 15.4191 46.5855 15.4191H44.421V17.2455H46.5855C47.1839 17.2454 47.747 16.9677 47.747 16.3237Z" fill="#212529"/>
<path d="M53.2148 23.9606V12.3579H62.1186V15.4194H56.7693V16.5676H61.9956V19.6295H56.7693V20.8988H62.1186V23.9606H53.2148Z" fill="#212529"/>
<path d="M63.9707 23.9629V21.1798L68.4399 15.4218H63.9707V12.3604H73.1381V15.1261L68.651 20.9014H73.2611V23.9629H63.9707Z" fill="#212529"/>
<path d="M74.1309 18.1706C74.1309 14.6042 76.9283 12.1689 80.5534 12.1689C84.1779 12.1689 86.9762 14.6042 86.9762 18.1706C86.9762 21.7363 84.1779 24.1716 80.5534 24.1716C76.9283 24.1716 74.1309 21.7363 74.1309 18.1706ZM83.3689 18.1706C83.3689 16.5524 82.2604 15.2653 80.5534 15.2653C78.8466 15.2653 77.7377 16.5526 77.7377 18.1706C77.7377 19.7881 78.8463 21.0751 80.5534 21.0751C82.2601 21.0751 83.3689 19.7879 83.3689 18.1706Z" fill="#212529"/>
<path d="M94.9499 23.9629L93.3317 20.31H92.0468V23.9629H88.4922V12.3604H94.7567C97.502 12.3604 98.9801 14.1693 98.9801 16.3436C98.9801 18.3445 97.8009 19.4052 96.8682 19.8578L98.9974 23.963H94.9499V23.9629ZM95.3724 16.3261C95.3724 15.7001 94.8095 15.4215 94.211 15.4215H92.0465V17.248H94.211C94.8091 17.2481 95.3724 16.9702 95.3724 16.3261Z" fill="#212529"/>
</g>
<defs>
<clipPath id="clip0">
<rect width="103.867" height="31.4333" fill="white" transform="translate(0.566406 0.933105)"/>
</clipPath>
</defs>
</svg>
