<svg width="13" height="12" viewBox="0 0 13 12" fill="none" xmlns="http://www.w3.org/2000/svg">
<path d="M12.57 2.15896C12.1471 2.3716 11.6537 2.51336 11.1602 2.58424C11.6889 2.26528 12.0766 1.76913 12.2881 1.16666C11.7946 1.45018 11.266 1.66281 10.702 1.76913C9.9142 0.957778 8.68837 0.766558 7.69308 1.29976C6.69779 1.83295 6.17186 2.96263 6.40212 4.07269C4.42839 3.96637 2.52515 3.04495 1.29156 1.45018C0.952536 1.99465 0.843737 2.6527 0.989326 3.27819C1.13491 3.90368 1.52284 4.44483 2.06696 4.78148C1.67926 4.78148 1.29156 4.7106 0.939112 4.5334C0.974357 5.7029 1.785 6.73064 2.91284 6.97871C2.56039 7.08503 2.17269 7.08503 1.785 7.01415C2.13745 8.0419 3.08907 8.75068 4.14643 8.78612C3.12432 9.63667 1.74975 10.0265 0.445679 9.81386C2.66881 11.3055 5.54182 11.3971 7.85445 10.05C10.1671 8.70296 11.5173 6.15142 11.3365 3.47022C11.8299 3.11583 12.2528 2.69055 12.57 2.15896Z" fill="#8A939B"/>
</svg>
