<svg width="14" height="14" viewBox="0 0 14 14" fill="none" xmlns="http://www.w3.org/2000/svg">
  <path fill-rule="evenodd" clip-rule="evenodd" d="M5.83333 0.583008C6.65677 0.583008 7.42149 0.927348 7.9637 1.50727C8.37207 1.28967 8.8383 1.16634 9.33333 1.16634C10.9442 1.16634 12.25 2.47218 12.25 4.08301C13.2165 4.08301 14 4.86651 14 5.83301V11.6663C14 12.6328 13.2165 13.4163 12.25 13.4163H1.75C0.783502 13.4163 0 12.6328 0 11.6663V4.08301C0 4.04733 0.00320257 4.0124 0.00933589 3.9785C0.00314247 3.91815 0 3.85575 0 3.79134C0 2.98593 0.652918 2.33301 1.45833 2.33301H3.15936C3.60943 1.3029 4.63731 0.583008 5.83333 0.583008ZM2.91667 3.49967L1.45833 3.49967C1.29725 3.49967 1.16667 3.63026 1.16667 3.79134C1.16667 4.01002 1.26382 4.08296 1.7495 4.08301C1.74966 4.08301 1.74983 4.08301 1.75 4.08301L2.91667 4.08301L2.97512 4.08301C2.93648 3.89279 2.91667 3.69757 2.91667 3.49967ZM2.91667 5.24967H1.75C1.53979 5.24967 1.34461 5.22995 1.16667 5.19107V11.6663C1.16667 11.9885 1.42783 12.2497 1.75 12.2497H12.25C12.5722 12.2497 12.8333 11.9885 12.8333 11.6663V5.83301C12.8333 5.51084 12.5722 5.24967 12.25 5.24967H2.91667ZM4.18272 4.08301L6.41667 4.08301C6.41667 3.39006 6.65832 2.75355 7.06195 2.25316C6.74031 1.93589 6.30305 1.74967 5.83333 1.74967C4.86683 1.74967 4.08333 2.53318 4.08333 3.49967C4.08333 3.70165 4.11738 3.89809 4.18272 4.08301ZM11.0833 4.08301C11.0833 3.11651 10.2998 2.33301 9.33333 2.33301C8.36684 2.33301 7.58333 3.11651 7.58333 4.08301H11.0833ZM10.5 9.91634C11.1443 9.91634 11.6667 9.39401 11.6667 8.74967C11.6667 8.10534 11.1443 7.58301 10.5 7.58301C9.85567 7.58301 9.33333 8.10534 9.33333 8.74967C9.33333 9.39401 9.85567 9.91634 10.5 9.91634Z" fill="white"/>
</svg>
