<svg xmlns="http://www.w3.org/2000/svg" width="88" height="28" fill="none"><path fill="url(#a)" fill-rule="evenodd" d="m23.315 6.703.656-1.608s-.835-.894-1.849-1.907-3.16-.417-3.16-.417L16.515 0H7.928L5.482 2.771s-2.147-.596-3.16.417C1.306 4.201.471 5.095.471 5.095l.657 1.608-.835 2.383s2.455 9.29 2.743 10.426c.567 2.234.954 3.097 2.565 4.23 1.61 1.131 4.532 3.097 5.01 3.395s1.073.805 1.61.805 1.133-.507 1.61-.805 3.4-2.264 5.01-3.396 1.998-1.995 2.565-4.23c.288-1.134 2.743-10.425 2.743-10.425z" clip-rule="evenodd"/><path fill="#fff" d="M15.264 5.035c.357 0 3.012-.506 3.012-.506s3.145 3.797 3.145 4.61c0 .67-.27.933-.59 1.242a7 7 0 0 0-.204.205l-2.358 2.502-.077.078c-.235.237-.582.585-.337 1.163l.05.118c.268.626.599 1.4.178 2.183-.449.834-1.217 1.39-1.709 1.298s-1.647-.695-2.072-.97c-.425-.276-1.772-1.386-1.772-1.81 0-.354.969-.943 1.44-1.23a7 7 0 0 0 .21-.13c.048-.033.13-.083.23-.145.429-.267 1.204-.748 1.224-.962.024-.263.015-.34-.331-.99-.074-.138-.16-.286-.25-.44-.329-.566-.698-1.2-.616-1.655.092-.513.897-.807 1.578-1.056l.249-.092.71-.266c.68-.255 1.436-.538 1.561-.595.173-.08.128-.155-.395-.205q-.105-.01-.253-.026c-.648-.069-1.841-.195-2.422-.034l-.376.103c-.652.176-1.451.392-1.528.517L13.52 8c-.073.104-.12.172-.04.616l.136.712c.18.94.461 2.405.497 2.735l.015.133c.045.367.075.612-.352.71l-.111.025c-.482.11-1.189.272-1.444.272s-.963-.162-1.444-.272l-.112-.026c-.427-.097-.397-.342-.352-.71l.016-.132c.035-.33.317-1.8.497-2.739l.135-.708c.081-.444.033-.512-.04-.616l-.04-.058c-.076-.125-.875-.34-1.527-.517l-.376-.103c-.58-.161-1.774-.035-2.422.034q-.15.016-.254.026c-.523.05-.567.125-.395.205.125.057.881.34 1.561.595l.96.358c.681.249 1.486.543 1.578 1.056.082.455-.287 1.089-.617 1.656-.089.153-.175.3-.249.44-.346.65-.355.726-.331.99.02.213.795.694 1.224.96.1.063.181.113.23.146.043.029.117.073.21.13.47.287 1.44.876 1.44 1.23 0 .424-1.347 1.534-1.772 1.81-.425.275-1.58.878-2.073.97s-1.26-.464-1.708-1.298c-.421-.783-.09-1.557.178-2.183l.05-.118c.245-.578-.102-.927-.337-1.163l-.077-.079-2.359-2.5q-.103-.109-.204-.206c-.319-.309-.59-.572-.59-1.243.001-.812 3.146-4.61 3.146-4.61s2.654.507 3.012.507c.286 0 .837-.19 1.412-.387l.437-.15c.716-.237 1.193-.24 1.193-.24s.477.003 1.193.24l.437.15c.575.197 1.126.387 1.412.387"/><path fill="#fff" d="M14.808 18.469c.561.288.96.493 1.11.587.194.122.075.351-.102.477-.177.125-2.56 1.968-2.792 2.172l-.093.084c-.223.2-.508.456-.71.456-.2 0-.485-.256-.708-.456l-.094-.084c-.23-.204-2.614-2.047-2.792-2.172-.177-.126-.296-.355-.1-.477.15-.094.548-.299 1.11-.588l.534-.275c.84-.435 1.887-.804 2.05-.804.164 0 1.212.37 2.052.804z"/><path fill="#1B1B1F" d="m47.032 9.498-3.227 11.034h-3.007l-2.012-7.708-2.012 7.708h-3.027L30.5 9.498h2.828l1.952 8.405 2.112-8.405h2.948l2.071 8.385 1.952-8.385zM47.127 14.975q0-1.672.657-2.968.678-1.295 1.813-1.991a4.9 4.9 0 0 1 2.569-.698q1.234 0 2.151.498.936.498 1.494 1.255V9.498h2.809v11.034H55.81V18.92q-.537.777-1.494 1.295-.936.498-2.17.498-1.395 0-2.55-.717-1.135-.717-1.813-2.012-.657-1.315-.657-3.008m8.684.04q0-1.016-.398-1.733a2.73 2.73 0 0 0-1.076-1.115 2.8 2.8 0 0 0-1.454-.399q-.777 0-1.434.379-.657.378-1.076 1.115-.398.718-.398 1.713t.398 1.753q.42.737 1.076 1.135.677.399 1.434.399.777 0 1.454-.379.678-.398 1.076-1.115.398-.737.398-1.753M63.434 5.793v14.74h-2.788V5.792zM68.28 5.793v14.74h-2.788V5.792zM80.597 14.776q0 .597-.08 1.076H72.45q.1 1.194.837 1.872.737.677 1.812.677 1.554 0 2.211-1.334h3.008q-.479 1.593-1.833 2.629-1.354 1.016-3.326 1.016-1.593 0-2.868-.697a5.13 5.13 0 0 1-1.972-2.012q-.697-1.295-.697-2.988 0-1.712.697-3.008a4.87 4.87 0 0 1 1.952-1.991q1.256-.698 2.888-.698 1.574 0 2.808.678a4.67 4.67 0 0 1 1.933 1.932q.696 1.234.697 2.848m-2.888-.797q-.021-1.075-.777-1.713-.757-.657-1.853-.657-1.035 0-1.752.637-.697.618-.857 1.733zM85.182 11.788v5.338q0 .558.259.817.277.24.916.24h1.294v2.35H85.9q-3.525 0-3.526-3.427v-5.318H81.06v-2.29h1.314V6.769h2.809v2.729h2.47v2.29z"/><defs><linearGradient id="a" x1=".294" x2="24.15" y1="28.14" y2="28.14" gradientUnits="userSpaceOnUse"><stop stop-color="#FF5601"/><stop offset=".5" stop-color="#FF4000"/><stop offset="1" stop-color="#FF1F01"/></linearGradient></defs></svg>
