<svg width="13" height="12" viewBox="0 0 13 12" fill="none" xmlns="http://www.w3.org/2000/svg">
<path fill-rule="evenodd" clip-rule="evenodd" d="M0 1.80645C0 1.08492 0.58492 0.5 1.30645 0.5H9.41379C10.2422 0.5 10.9138 1.17157 10.9138 2V2.1129H11C11.8284 2.1129 12.5 2.78448 12.5 3.6129V10C12.5 10.8284 11.8284 11.5 11 11.5H1.5C0.671573 11.5 0 10.8284 0 10V1.80645ZM1 3.07676V10C1 10.2761 1.22386 10.5 1.5 10.5H11C11.2761 10.5 11.5 10.2761 11.5 10V9.05422H7.84483C7.0164 9.05422 6.34483 8.38265 6.34483 7.55422V6.13487C6.34483 5.30644 7.0164 4.63487 7.84483 4.63487H11.5V3.6129C11.5 3.33676 11.2761 3.1129 11 3.1129H1.30645C1.20091 3.1129 1.09829 3.10039 1 3.07676ZM11.5 5.63487H7.84483C7.56869 5.63487 7.34483 5.85873 7.34483 6.13487V7.55422C7.34483 7.83037 7.56868 8.05422 7.84483 8.05422H11.5V5.63487ZM1 1.80645C1 1.9757 1.1372 2.1129 1.30645 2.1129H9.91379V2C9.91379 1.72386 9.68993 1.5 9.41379 1.5H1.30645C1.1372 1.5 1 1.6372 1 1.80645Z" fill="white"/>
</svg>
