<svg xmlns="http://www.w3.org/2000/svg" width="88" height="28" fill="none"><path fill="url(#a)" fill-rule="evenodd" d="m23.315 6.703.656-1.608s-.835-.894-1.85-1.907c-1.013-1.013-3.16-.417-3.16-.417L16.516 0H7.927L5.482 2.771s-2.147-.596-3.161.417S.47 5.095.47 5.095l.657 1.608-.835 2.383s2.456 9.29 2.743 10.426c.567 2.234.955 3.097 2.565 4.23 1.61 1.131 4.533 3.097 5.01 3.395s1.073.805 1.61.805 1.133-.507 1.61-.805 3.4-2.264 5.01-3.396 1.999-1.995 2.565-4.23c.288-1.134 2.744-10.425 2.744-10.425z" clip-rule="evenodd"/><path fill="#fff" d="M15.264 5.035c.358 0 3.012-.506 3.012-.506s3.145 3.797 3.145 4.61c0 .67-.27.933-.589 1.242a7 7 0 0 0-.204.205l-2.359 2.502-.076.078c-.236.237-.583.585-.338 1.163l.05.118c.268.626.6 1.4.178 2.183-.448.834-1.216 1.39-1.708 1.298s-1.648-.695-2.073-.97c-.425-.276-1.771-1.386-1.771-1.81 0-.354.968-.943 1.439-1.23a7 7 0 0 0 .21-.13c.049-.033.13-.083.23-.145.43-.267 1.205-.748 1.224-.962.024-.263.015-.34-.33-.99q-.114-.208-.25-.44c-.33-.566-.699-1.2-.617-1.655.092-.513.897-.807 1.579-1.056l.248-.092.71-.266c.68-.255 1.437-.538 1.562-.595.172-.08.128-.155-.395-.205q-.105-.01-.254-.026c-.647-.069-1.841-.195-2.421-.034l-.377.103c-.652.176-1.45.392-1.528.517q-.02.032-.039.058c-.073.104-.121.172-.04.616l.136.712c.18.94.46 2.405.496 2.735l.016.133c.045.367.075.612-.352.71q-.054.011-.112.025c-.482.11-1.188.272-1.444.272-.255 0-.962-.162-1.444-.272l-.111-.026c-.427-.097-.397-.342-.352-.71l.015-.132c.036-.33.318-1.8.498-2.739l.134-.708c.082-.444.034-.512-.04-.616l-.039-.058c-.076-.125-.875-.34-1.528-.517l-.376-.103c-.58-.161-1.774-.035-2.421.034q-.15.016-.254.026c-.523.05-.568.125-.395.205.125.057.88.34 1.561.595l.959.358c.682.249 1.486.543 1.579 1.056.081.455-.288 1.089-.617 1.656-.09.153-.176.3-.25.44-.346.65-.355.726-.33.99.019.213.794.694 1.224.96.1.063.181.113.23.146.042.029.116.073.21.13.47.287 1.439.876 1.439 1.23 0 .424-1.347 1.534-1.772 1.81-.425.275-1.58.878-2.072.97s-1.26-.464-1.708-1.298c-.422-.783-.09-1.557.177-2.183l.05-.118c.245-.578-.101-.927-.337-1.163l-.077-.079-2.358-2.5q-.104-.109-.205-.206c-.318-.309-.589-.572-.589-1.243 0-.812 3.146-4.61 3.146-4.61s2.654.507 3.012.507c.285 0 .837-.19 1.411-.387l.438-.15c.715-.237 1.192-.24 1.192-.24s.478.003 1.193.24l.437.15c.575.197 1.127.387 1.412.387"/><path fill="#fff" d="M14.809 18.469c.56.288.959.493 1.11.587.194.122.075.351-.102.477-.178.125-2.561 1.968-2.792 2.172l-.094.084c-.223.2-.507.456-.709.456s-.486-.256-.709-.456l-.093-.084c-.231-.204-2.615-2.047-2.792-2.172-.177-.126-.296-.355-.101-.477.15-.094.549-.299 1.11-.588l.534-.275c.84-.435 1.888-.804 2.051-.804s1.211.37 2.052.804z"/><path fill="#F0F0F4" d="m47.032 9.498-3.227 11.034h-3.007l-2.012-7.708-2.012 7.708h-3.027L30.5 9.498h2.828l1.952 8.405 2.112-8.405h2.948l2.071 8.385 1.952-8.385zM47.127 14.975q0-1.672.657-2.968.678-1.295 1.813-1.991a4.9 4.9 0 0 1 2.569-.698q1.234 0 2.151.498.936.498 1.494 1.255V9.498h2.809v11.034H55.81V18.92q-.537.777-1.494 1.295-.936.498-2.17.498-1.395 0-2.55-.717-1.135-.717-1.813-2.012-.657-1.315-.657-3.008m8.684.04q0-1.016-.398-1.733a2.73 2.73 0 0 0-1.076-1.115 2.8 2.8 0 0 0-1.454-.399q-.777 0-1.434.379-.657.378-1.076 1.115-.398.718-.398 1.713t.398 1.753q.42.737 1.076 1.135.677.399 1.434.399.777 0 1.454-.379.678-.398 1.076-1.115.398-.737.398-1.753M63.434 5.793v14.74h-2.788V5.792zM68.28 5.793v14.74h-2.788V5.792zM80.597 14.776q0 .597-.08 1.076H72.45q.1 1.194.837 1.872.737.677 1.812.677 1.554 0 2.211-1.334h3.008q-.479 1.593-1.833 2.629-1.354 1.016-3.326 1.016-1.593 0-2.868-.697a5.13 5.13 0 0 1-1.972-2.012q-.697-1.295-.697-2.988 0-1.712.697-3.008a4.87 4.87 0 0 1 1.952-1.991q1.256-.698 2.888-.698 1.574 0 2.808.678a4.67 4.67 0 0 1 1.933 1.932q.696 1.234.697 2.848m-2.888-.797q-.021-1.075-.777-1.713-.757-.657-1.853-.657-1.035 0-1.752.637-.697.618-.857 1.733zM85.182 11.788v5.338q0 .558.259.817.277.24.916.24h1.294v2.35H85.9q-3.525 0-3.526-3.427v-5.318H81.06v-2.29h1.314V6.769h2.809v2.729h2.47v2.29z"/><defs><linearGradient id="a" x1=".293" x2="24.15" y1="28.14" y2="28.14" gradientUnits="userSpaceOnUse"><stop stop-color="#FF5601"/><stop offset=".5" stop-color="#FF4000"/><stop offset="1" stop-color="#FF1F01"/></linearGradient></defs></svg>
