<svg width="24" height="25" viewBox="0 0 24 25" fill="none" xmlns="http://www.w3.org/2000/svg">
<path fill-rule="evenodd" clip-rule="evenodd" d="M12 24.6387C5.383 24.6387 0 19.2557 0 12.6387C0 6.02167 5.383 0.638672 12 0.638672C18.617 0.638672 24 6.02167 24 12.6387C24 19.2557 18.617 24.6387 12 24.6387ZM12 2.63867C6.486 2.63867 2 7.12467 2 12.6387C2 18.1527 6.486 22.6387 12 22.6387C17.514 22.6387 22 18.1527 22 12.6387C22 7.12467 17.514 2.63867 12 2.63867ZM12 19.6387C11.74 19.6387 11.48 19.5287 11.29 19.3487C11.109 19.1587 11 18.8987 11 18.6387C11 18.3687 11.109 18.1187 11.29 17.9287C11.66 17.5587 12.33 17.5587 12.71 17.9287C12.89 18.1187 13 18.3687 13 18.6387C13 18.8987 12.89 19.1587 12.71 19.3487C12.52 19.5287 12.26 19.6387 12 19.6387ZM12 15.6387C11.447 15.6387 11 15.1907 11 14.6387V6.63867C11 6.08667 11.447 5.63867 12 5.63867C12.553 5.63867 13 6.08667 13 6.63867V14.6387C13 15.1907 12.553 15.6387 12 15.6387Z" fill="#E32444"/>
</svg>
