<svg width="20" height="20" viewBox="0 0 20 20" fill="none" xmlns="http://www.w3.org/2000/svg">
<g opacity="0.5">
<path fill-rule="evenodd" clip-rule="evenodd" d="M1.66666 10C1.66666 5.39765 5.39762 1.66669 9.99999 1.66669C14.6024 1.66669 18.3333 5.39765 18.3333 10C18.3333 14.6024 14.6024 18.3334 9.99999 18.3334C5.39762 18.3334 1.66666 14.6024 1.66666 10ZM10.641 6.60258C10.641 6.24855 10.354 5.96155 9.99994 5.96155C9.64592 5.96155 9.35892 6.24855 9.35892 6.60258V9.80771C9.35892 10.1617 9.64592 10.4487 9.99994 10.4487C10.354 10.4487 10.641 10.1617 10.641 9.80771V6.60258ZM10 13.5C10.5063 13.5 10.9167 13.0896 10.9167 12.5834C10.9167 12.0771 10.5063 11.6667 10 11.6667C9.49375 11.6667 9.08334 12.0771 9.08334 12.5834C9.08334 13.0896 9.49375 13.5 10 13.5Z" fill="#DC1D3C"/>
</g>
</svg>
