<svg width="20" height="20" viewBox="0 0 20 20" fill="none" xmlns="http://www.w3.org/2000/svg">
<g opacity="0.5">
<path fill-rule="evenodd" clip-rule="evenodd" d="M12.0904 3.70951C11.1617 2.09968 8.83828 2.09968 7.90953 3.70951L1.9932 13.9645C1.06497 15.5734 2.22616 17.5839 4.08366 17.5839H15.9163C17.7738 17.5839 18.935 15.5734 18.0068 13.9645L12.0904 3.70951ZM9.99994 6.79487C10.354 6.79487 10.641 7.08186 10.641 7.43589V10.641C10.641 10.995 10.354 11.282 9.99994 11.282C9.64592 11.282 9.35892 10.995 9.35892 10.641V7.43589C9.35892 7.08186 9.64592 6.79487 9.99994 6.79487ZM10.9167 13.4167C10.9167 13.9229 10.5063 14.3333 10 14.3333C9.49375 14.3333 9.08334 13.9229 9.08334 13.4167C9.08334 12.9104 9.49375 12.5 10 12.5C10.5063 12.5 10.9167 12.9104 10.9167 13.4167Z" fill="#E2A500"/>
</g>
</svg>
