<svg width="18" height="18" viewBox="0 0 18 18" fill="none" xmlns="http://www.w3.org/2000/svg">
<path fill-rule="evenodd" clip-rule="evenodd" d="M17.2502 17.25C17.245 17.25 17.2405 17.25 17.2352 17.25H0.749303C0.484855 17.25 0.23919 17.1096 0.104712 16.8808C-0.0305169 16.6527 -0.0350246 16.3688 0.0926916 16.1362L8.33564 1.10962C8.59859 0.630127 9.38592 0.630127 9.64887 1.10962L17.828 16.0199C17.9354 16.1498 18 16.3167 18 16.4987C18 16.9132 17.6642 17.25 17.2502 17.25ZM8.99225 3.03136L2.0167 15.7473H15.9678L8.99225 3.03136ZM8.99225 6.73138C9.40621 6.73138 9.74202 7.0674 9.74202 7.48271V11.2394C9.74202 11.6539 9.40621 11.9907 8.99225 11.9907C8.5783 11.9907 8.24324 11.6539 8.24324 11.2394V7.48271C8.24324 7.0674 8.5783 6.73138 8.99225 6.73138ZM9.52641 12.9595C9.66089 13.1022 9.74353 13.2978 9.74353 13.4934C9.74353 13.6889 9.66089 13.8837 9.5189 14.0265C9.38367 14.1616 9.18909 14.2447 8.99451 14.2447C8.79167 14.2447 8.6046 14.1616 8.46261 14.0265C8.31987 13.8837 8.24474 13.6889 8.24474 13.4934C8.24474 13.2978 8.31987 13.1022 8.46261 12.9595C8.73908 12.6816 9.24919 12.6816 9.52641 12.9595Z" fill="#E32444"/>
</svg>
