<svg width="14" height="15" viewBox="0 0 14 15" fill="none" xmlns="http://www.w3.org/2000/svg">
<path fill-rule="evenodd" clip-rule="evenodd" d="M7 14.9165C3.14008 14.9165 0 11.7764 0 7.9165C0 4.05659 3.14008 0.916504 7 0.916504C10.8599 0.916504 14 4.05659 14 7.9165C14 11.7764 10.8599 14.9165 7 14.9165ZM7 11.9998C6.84833 11.9998 6.69667 11.9357 6.58583 11.8307C6.48025 11.7198 6.41667 11.5682 6.41667 11.4165C6.41667 11.259 6.48025 11.1132 6.58583 11.0023C6.80167 10.7865 7.1925 10.7865 7.41417 11.0023C7.51917 11.1132 7.58333 11.259 7.58333 11.4165C7.58333 11.5682 7.51917 11.7198 7.41417 11.8307C7.30333 11.9357 7.15167 11.9998 7 11.9998ZM7 9.6665C6.67742 9.6665 6.41667 9.40517 6.41667 9.08317V4.4165C6.41667 4.0945 6.67742 3.83317 7 3.83317C7.32258 3.83317 7.58333 4.0945 7.58333 4.4165V9.08317C7.58333 9.40517 7.32258 9.6665 7 9.6665Z" fill="#BD1531"/>
</svg>
