<svg width="13" height="12" viewBox="0 0 13 12" fill="none" xmlns="http://www.w3.org/2000/svg">
<path d="M6.18644 0C2.85225 0 0.124268 2.7 0.124268 6C0.124268 9.3 2.85225 12 6.18644 12C9.52064 12 12.2486 9.3 12.2486 6C12.2486 2.7 9.52064 0 6.18644 0ZM11.0867 7.2H8.51028C8.51028 7.15 8.5608 7.05 8.5608 7C8.66183 6.25 8.61132 5.5 8.51028 4.85H10.6826C10.7331 4.85 10.7836 4.85 10.8341 4.85C10.9352 4.85 11.0362 4.85 11.0362 4.85C11.1372 5.2 11.1877 5.6 11.1877 6C11.2383 6.4 11.1877 6.85 11.0867 7.2ZM4.77194 7.2C4.77194 7.1 4.72142 7 4.72142 6.9C4.62038 6.15 4.6709 5.5 4.77194 4.85H6.08541H7.55043C7.65147 5.5 7.70199 6.15 7.60095 6.9C7.60095 7 7.55043 7.1 7.55043 7.2H4.77194ZM7.29784 8.2C6.99473 9.2 6.59059 9.95 6.13593 10.6C5.68126 10 5.27712 9.2 4.97401 8.2H7.29784ZM1.13463 6C1.13463 5.6 1.18515 5.2 1.28618 4.85C1.3367 4.85 1.38722 4.85 1.43774 4.85H3.76157C3.66054 5.5 3.61002 6.25 3.71106 7C3.71106 7.05 3.71106 7.15 3.76157 7.2H1.28618C1.18515 6.85 1.13463 6.4 1.13463 6ZM4.97401 3.85C5.27712 2.8 5.73178 2 6.13593 1.4C6.54007 2 6.99473 2.8 7.29784 3.85H6.08541H4.97401ZM10.7331 3.85H8.30821C8.0051 2.7 7.55043 1.8 7.09577 1.1C8.71235 1.4 10.0763 2.45 10.7331 3.85ZM5.12556 1.1C4.72142 1.8 4.21624 2.7 3.96365 3.85H1.63981C2.29655 2.45 3.61002 1.45 5.12556 1.1ZM1.63981 8.2H3.91313C4.16572 9.25 4.62038 10.15 5.07505 10.9C3.61002 10.55 2.34707 9.55 1.63981 8.2ZM7.14629 10.9C7.60095 10.2 8.05562 9.3 8.30821 8.2H10.7331C10.0258 9.6 8.71235 10.6 7.14629 10.9Z" fill="#8A939B"/>
</svg>
