<svg xmlns="http://www.w3.org/2000/svg" width="281" height="160" fill="none"><g clip-path="url(#a)"><path fill="#67AFFF" d="M.3 0h280v160H.3z"/><path fill="#000" fill-rule="evenodd" d="M183.622 11.798c-.483 0-.942.342-1.048.824l-.224.942a2.08 2.08 0 0 1-1.46 1.46l-.942.224a1.09 1.09 0 0 0-.824 1.048c0 .483.342.942.824 1.048l.942.224a2.08 2.08 0 0 1 1.46 1.46l.224.942c.118.482.565.824 1.048.824s.942-.342 1.048-.825l.224-.941a2.08 2.08 0 0 1 1.46-1.46l.942-.224c.482-.118.824-.565.824-1.048s-.342-.942-.824-1.048l-.942-.224a2.08 2.08 0 0 1-1.46-1.46l-.224-.942a1.09 1.09 0 0 0-1.048-.824m-.294 1.013c0-.153.153-.224.294-.224s.259.07.294.224l.224.942c.259 1.012 1.048 1.801 2.025 2.025l.942.224c.153 0 .224.153.224.294s-.071.259-.224.294l-.942.224c-1.012.26-1.801 1.048-2.025 2.025l-.224.942c0 .153-.153.224-.294.224s-.259-.07-.294-.224l-.224-.942c-.259-1.012-1.048-1.801-2.025-2.025l-.942-.224c-.153 0-.224-.153-.224-.294s.071-.26.224-.294l.942-.224c1.012-.26 1.801-1.048 2.025-2.025zM37.895 128.74c-.58 0-1.13.409-1.257.989l-.269 1.13a2.49 2.49 0 0 1-1.752 1.752l-1.13.268c-.58.142-.99.679-.99 1.258s.41 1.13.99 1.257l1.13.269a2.49 2.49 0 0 1 1.752 1.752l.269 1.13c.14.579.678.989 1.257.989.58 0 1.13-.41 1.258-.989l.268-1.13a2.49 2.49 0 0 1 1.752-1.752l1.13-.269a1.31 1.31 0 0 0 .99-1.257c0-.579-.41-1.131-.99-1.258l-1.13-.268a2.49 2.49 0 0 1-1.752-1.752l-.268-1.13a1.31 1.31 0 0 0-1.258-.989m-.353 1.215c0-.184.183-.269.353-.269s.31.085.353.269l.269 1.13c.31 1.215 1.257 2.162 2.43 2.43l1.13.269c.184 0 .269.183.269.353s-.085.311-.269.353l-1.13.268c-1.215.311-2.162 1.258-2.43 2.431l-.269 1.13c0 .184-.183.268-.353.268s-.31-.084-.353-.268l-.269-1.13c-.31-1.215-1.257-2.162-2.43-2.431l-1.13-.268c-.184 0-.269-.184-.269-.353 0-.17.085-.311.269-.353l1.13-.269c1.215-.311 2.162-1.257 2.43-2.43zM247.49 137.735c-.483 0-.942.341-1.048.824l-.224.942a2.07 2.07 0 0 1-1.46 1.46l-.942.224a1.09 1.09 0 0 0-.824 1.048c0 .482.342.942.824 1.048l.942.223a2.08 2.08 0 0 1 1.46 1.46l.224.942c.118.483.565.824 1.048.824s.942-.341 1.048-.824l.224-.942a2.08 2.08 0 0 1 1.46-1.46l.941-.223c.483-.118.825-.566.825-1.048s-.342-.942-.825-1.048l-.941-.224a2.07 2.07 0 0 1-1.46-1.46l-.224-.942a1.09 1.09 0 0 0-1.048-.824m-.294 1.013c0-.153.153-.224.294-.224s.259.071.294.224l.224.942c.259 1.012 1.048 1.801 2.025 2.025l.942.223c.153 0 .224.153.224.295 0 .141-.071.259-.224.294l-.942.224c-1.012.259-1.801 1.048-2.025 2.025l-.224.942c0 .153-.153.224-.294.224s-.259-.071-.294-.224l-.224-.942c-.259-1.013-1.048-1.801-2.025-2.025l-.942-.224c-.153 0-.224-.153-.224-.294 0-.142.071-.259.224-.295l.942-.223c1.012-.259 1.801-1.048 2.025-2.025zM53.188 8.2c-.676 0-1.32.478-1.468 1.154l-.313 1.319a2.91 2.91 0 0 1-2.044 2.043l-1.319.314a1.53 1.53 0 0 0-1.153 1.467c0 .676.478 1.319 1.154 1.467l1.318.313a2.91 2.91 0 0 1 2.044 2.044l.313 1.319a1.53 1.53 0 0 0 1.468 1.154c.675 0 1.318-.478 1.466-1.154l.314-1.319a2.91 2.91 0 0 1 2.044-2.044l1.318-.313a1.53 1.53 0 0 0 1.154-1.467c0-.676-.478-1.319-1.154-1.467l-1.318-.313a2.91 2.91 0 0 1-2.044-2.045l-.314-1.318A1.53 1.53 0 0 0 53.188 8.2m-.413 1.418c0-.215.215-.314.413-.314s.362.1.412.314l.313 1.318c.362 1.418 1.467 2.522 2.835 2.835l1.319.314c.214 0 .313.214.313.412s-.099.362-.313.412l-1.319.313c-1.418.363-2.522 1.467-2.835 2.835l-.313 1.319c0 .214-.215.313-.413.313s-.362-.099-.412-.313l-.313-1.319c-.363-1.417-1.467-2.522-2.835-2.835l-1.319-.313c-.214 0-.313-.214-.313-.412s.099-.363.313-.412l1.319-.314c1.418-.362 2.522-1.467 2.835-2.835z" clip-rule="evenodd"/><path fill="#fff" fill-rule="evenodd" d="M191.601 117.531c-.117-.432-.486-.746-.944-.746-.459 0-.828.314-.945.746l-.342 1.349c-.315 1.233-1.259 2.177-2.464 2.465l-1.35.342c-.432.117-.746.486-.746.945s.314.827.746.944l1.35.342c1.232.315 2.176 1.259 2.464 2.465l.342 1.349c.117.432.486.747.945.747s.827-.315.944-.747l.342-1.349c.315-1.233 1.259-2.177 2.465-2.465l1.349-.342c.432-.117.747-.486.747-.944 0-.459-.315-.828-.747-.945l-1.349-.342c-1.233-.315-2.177-1.259-2.465-2.465z" clip-rule="evenodd"/><path fill="#000" d="M190.656 128.721a1.26 1.26 0 0 1-1.206-.944l-.342-1.349c-.287-1.116-1.142-2.006-2.258-2.258l-1.349-.342a1.26 1.26 0 0 1-.944-1.206c0-.575.404-1.061.944-1.205l1.349-.342c1.116-.288 2.006-1.142 2.258-2.258l.342-1.349a1.26 1.26 0 0 1 1.206-.944 1.26 1.26 0 0 1 1.205.944l.342 1.349c.288 1.116 1.142 2.006 2.258 2.258l1.349.342c.54.144.945.63.945 1.205s-.405 1.062-.945 1.206l-1.349.342c-1.116.288-2.006 1.142-2.258 2.258l-.342 1.349a1.26 1.26 0 0 1-1.205.944m0-11.649a.73.73 0 0 0-.684.513l-.342 1.349c-.342 1.314-1.349 2.348-2.663 2.663l-1.349.342a.68.68 0 0 0-.513.683c0 .342.225.603.513.684l1.349.342c1.314.342 2.348 1.349 2.663 2.663l.342 1.349a.68.68 0 0 0 .684.513.7.7 0 0 0 .683-.513l.342-1.349c.342-1.314 1.349-2.348 2.663-2.663l1.349-.342a.68.68 0 0 0 .513-.684.7.7 0 0 0-.513-.683l-1.349-.342c-1.314-.342-2.348-1.349-2.663-2.663l-.342-1.349a.68.68 0 0 0-.683-.513"/><path fill="#000" fill-rule="evenodd" d="M36.302 65.381c-.088-.277-.32-.51-.656-.51a.664.664 0 0 0-.655.51l-.233.932c-.233.83-.873 1.529-1.718 1.718l-.932.233c-.277.088-.51.32-.51.655s.233.597.51.656l.932.233c.83.233 1.529.873 1.718 1.718l.233.932c.087.276.32.51.655.51a.66.66 0 0 0 .656-.51l.233-.932c.233-.83.873-1.53 1.718-1.718l.932-.233c.276-.088.51-.32.51-.656a.66.66 0 0 0-.51-.655l-.932-.233c-.83-.233-1.53-.874-1.718-1.718zM223.652 126.041a1 1 0 0 0-.948.65l-.216.77a1.63 1.63 0 0 1-1.286 1.143l-.867.193a.85.85 0 0 0-.731.842c0 .421.298.722.731.842l.867.193c.649.156 1.164.578 1.286 1.143l.216.77c.082.385.474.65.948.65s.812-.265.948-.65l.216-.77a1.63 1.63 0 0 1 1.286-1.143l.867-.193a.85.85 0 0 0 .731-.842c0-.421-.298-.722-.731-.842l-.867-.193c-.649-.156-1.164-.578-1.286-1.143l-.216-.77c-.082-.385-.474-.65-.948-.65m-.217.806c0-.12.136-.192.258-.192.121 0 .216.072.257.192l.216.77c.217.807.907 1.42 1.815 1.613l.866.192c.135 0 .217.121.217.229s-.082.193-.217.229l-.866.192c-.908.193-1.598.806-1.815 1.613l-.216.77c0 .12-.136.192-.257.192a.265.265 0 0 1-.258-.192l-.216-.77c-.217-.807-.907-1.42-1.814-1.613l-.867-.192c-.135 0-.216-.121-.216-.229s.081-.193.216-.229l.867-.192c.907-.193 1.597-.806 1.814-1.613zM197.115 27.09c-.385 0-.722.265-.842.65l-.193.77c-.156.578-.577 1.035-1.143 1.144l-.77.192c-.385.073-.65.421-.65.843 0 .42.265.722.65.842l.77.193c.578.156 1.035.577 1.143 1.143l.193.77c.072.385.421.65.842.65s.722-.265.843-.65l.192-.77c.157-.578.578-1.035 1.143-1.143l.771-.193c.385-.072.649-.421.649-.842 0-.422-.264-.722-.649-.843l-.771-.192c-.577-.157-1.034-.578-1.143-1.143l-.192-.77c-.073-.386-.422-.65-.843-.65m-.228.807c0-.12.12-.193.228-.193s.193.072.229.193l.192.77c.193.806.807 1.42 1.613 1.612l.77.193c.121 0 .193.12.193.229 0 .108-.072.192-.193.228l-.77.193a2.16 2.16 0 0 0-1.613 1.612l-.192.77c0 .121-.12.193-.229.193-.108 0-.192-.072-.228-.192l-.193-.77a2.16 2.16 0 0 0-1.612-1.613l-.771-.193c-.12 0-.192-.12-.192-.228s.072-.193.192-.229l.771-.193a2.16 2.16 0 0 0 1.612-1.612z" clip-rule="evenodd"/><path fill="#fff" fill-rule="evenodd" d="M134.451 135.628a1.04 1.04 0 0 0-.995-.768c-.456 0-.876.3-.996.768l-.348 1.379a3.46 3.46 0 0 1-2.556 2.556l-1.379.348c-.456.12-.768.54-.768.995 0 .456.3.876.768.996l1.379.348a3.46 3.46 0 0 1 2.556 2.556l.348 1.379c.12.456.54.768.996.768s.875-.3.995-.768l.348-1.379a3.46 3.46 0 0 1 2.556-2.556l1.379-.348c.456-.12.768-.54.768-.996s-.3-.875-.768-.995l-1.379-.348a3.46 3.46 0 0 1-2.556-2.556z" clip-rule="evenodd"/><path fill="#000" d="M133.467 147.229c-.611 0-1.103-.42-1.259-.996l-.348-1.379a3.3 3.3 0 0 0-2.364-2.364l-1.379-.348c-.576-.156-.996-.648-.996-1.259 0-.612.42-1.104.996-1.26l1.379-.348a3.3 3.3 0 0 0 2.364-2.364l.348-1.379c.156-.576.648-.996 1.259-.996.612 0 1.104.42 1.26.996l.348 1.379a3.3 3.3 0 0 0 2.363 2.364l1.38.348c.576.156.996.648.996 1.26 0 .611-.42 1.103-.996 1.259l-1.38.348a3.3 3.3 0 0 0-2.363 2.364l-.348 1.379c-.156.576-.648.996-1.26.996m0-12.093a.685.685 0 0 0-.683.54l-.348 1.379a3.81 3.81 0 0 1-2.784 2.784l-1.379.348a.74.74 0 0 0-.54.684c0 .299.228.611.54.683l1.379.348a3.81 3.81 0 0 1 2.784 2.784l.348 1.379c.072.3.383.54.683.54s.612-.228.684-.54l.348-1.379a3.81 3.81 0 0 1 2.783-2.784l1.38-.348c.3-.072.54-.384.54-.683s-.228-.612-.54-.684l-1.38-.348a3.81 3.81 0 0 1-2.783-2.784l-.348-1.379a.74.74 0 0 0-.684-.54"/><path fill="#fff" fill-rule="evenodd" d="M150.736 15.706a1.2 1.2 0 0 0-1.153-.89c-.529 0-1.015.348-1.154.89l-.403 1.599a4.01 4.01 0 0 1-2.961 2.96l-1.599.404c-.528.139-.89.625-.89 1.154s.348 1.014.89 1.153l1.599.404a4.01 4.01 0 0 1 2.961 2.96l.403 1.599c.139.528.625.89 1.154.89s1.014-.348 1.153-.89l.403-1.599a4.01 4.01 0 0 1 2.961-2.96l1.599-.404c.528-.139.89-.625.89-1.153 0-.529-.348-1.015-.89-1.154l-1.599-.403a4.01 4.01 0 0 1-2.961-2.961z" clip-rule="evenodd"/><path fill="#000" d="M149.596 29.204c-.709 0-1.279-.486-1.459-1.154l-.403-1.598a3.82 3.82 0 0 0-2.739-2.739l-1.599-.403c-.667-.18-1.153-.75-1.153-1.46 0-.709.486-1.279 1.153-1.46l1.599-.402a3.82 3.82 0 0 0 2.739-2.739l.403-1.598c.18-.668.75-1.154 1.459-1.154s1.279.486 1.46 1.154l.403 1.598a3.82 3.82 0 0 0 2.738 2.739l1.599.403c.667.18 1.154.75 1.154 1.46 0 .708-.487 1.278-1.154 1.459l-1.599.403a3.82 3.82 0 0 0-2.738 2.739l-.403 1.598c-.181.668-.751 1.154-1.46 1.154m0-14.026a.795.795 0 0 0-.792.625l-.403 1.6a4.42 4.42 0 0 1-3.225 3.224l-1.599.403a.86.86 0 0 0-.625.793c0 .347.264.709.625.792l1.599.403a4.42 4.42 0 0 1 3.225 3.225l.403 1.599a.86.86 0 0 0 .792.625.84.84 0 0 0 .793-.625l.403-1.599a4.42 4.42 0 0 1 3.225-3.225l1.598-.403a.86.86 0 0 0 .626-.792.84.84 0 0 0-.626-.793l-1.598-.403a4.42 4.42 0 0 1-3.225-3.225l-.403-1.599a.86.86 0 0 0-.793-.625"/><path fill="#fff" fill-rule="evenodd" d="M53.191 86.9a1.27 1.27 0 0 0-1.22-.942c-.56 0-1.074.368-1.22.941l-.427 1.691a4.24 4.24 0 0 1-3.133 3.133l-1.69.426a1.27 1.27 0 0 0-.942 1.22c0 .56.368 1.074.941 1.221l1.691.426a4.24 4.24 0 0 1 3.133 3.133l.426 1.69c.147.56.662.942 1.22.942.56 0 1.074-.368 1.221-.941l.427-1.691a4.24 4.24 0 0 1 3.132-3.133l1.69-.426c.56-.147.942-.662.942-1.22 0-.56-.368-1.074-.941-1.221l-1.691-.426a4.24 4.24 0 0 1-3.132-3.133z" clip-rule="evenodd"/><path fill="#000" d="M51.971 101.119c-.75 0-1.353-.515-1.544-1.22l-.426-1.692a4.04 4.04 0 0 0-2.897-2.897l-1.691-.426c-.706-.191-1.22-.794-1.22-1.544s.514-1.353 1.22-1.544l1.69-.427a4.04 4.04 0 0 0 2.898-2.896l.426-1.692c.191-.705.794-1.22 1.544-1.22s1.353.515 1.544 1.22l.426 1.692a4.04 4.04 0 0 0 2.897 2.897l1.691.426c.706.191 1.221.794 1.221 1.544s-.515 1.353-1.22 1.544l-1.692.426a4.04 4.04 0 0 0-2.897 2.897l-.426 1.691c-.191.706-.794 1.221-1.544 1.221m0-14.837c-.426 0-.75.279-.838.661l-.427 1.691a4.67 4.67 0 0 1-3.411 3.412l-1.691.426a.91.91 0 0 0-.662.839c0 .367.28.75.662.838l1.69.426c1.692.427 3 1.735 3.412 3.412l.427 1.69a.91.91 0 0 0 .838.663c.368 0 .75-.28.838-.662l.427-1.691a4.67 4.67 0 0 1 3.411-3.412l1.691-.426A.91.91 0 0 0 59 93.31c0-.368-.28-.75-.662-.839l-1.69-.426a4.67 4.67 0 0 1-3.412-3.412l-.427-1.69a.91.91 0 0 0-.838-.662"/><path fill="#000" fill-rule="evenodd" d="M232.647 39.684c-.625 0-1.173.43-1.369 1.056l-.312 1.252c-.255.938-.939 1.681-1.858 1.857l-1.252.313c-.626.118-1.056.685-1.056 1.37 0 .684.43 1.173 1.056 1.368l1.252.313c.938.254 1.682.939 1.858 1.858l.312 1.251c.118.626.685 1.056 1.369 1.056.685 0 1.174-.43 1.369-1.056l.313-1.251c.254-.939.939-1.682 1.858-1.858l1.251-.313c.626-.117 1.056-.684 1.056-1.369s-.43-1.173-1.056-1.369l-1.251-.313c-.939-.254-1.682-.938-1.858-1.857l-.313-1.252c-.117-.626-.684-1.056-1.369-1.056m-.371 1.31c0-.195.195-.313.371-.313s.313.118.372.313l.313 1.252a3.51 3.51 0 0 0 2.62 2.62l1.252.313c.195 0 .313.196.313.372s-.118.313-.313.371l-1.252.313a3.51 3.51 0 0 0-2.62 2.62l-.313 1.252c0 .196-.196.313-.372.313s-.313-.117-.371-.313l-.313-1.251a3.51 3.51 0 0 0-2.62-2.62l-1.252-.314c-.196 0-.313-.195-.313-.371s.117-.313.313-.372l1.252-.313a3.51 3.51 0 0 0 2.62-2.62zM243.708 26.784a.76.76 0 0 0-.716-.593.76.76 0 0 0-.715.593l-.266 1.043a2.72 2.72 0 0 1-1.881 1.88l-1.043.266a.76.76 0 0 0-.593.716c0 .327.266.654.593.715l1.043.266c.92.266 1.635.981 1.881 1.88l.266 1.044a.76.76 0 0 0 .715.592.76.76 0 0 0 .716-.593l.265-1.042a2.72 2.72 0 0 1 1.881-1.881l1.043-.266a.76.76 0 0 0 .593-.715.76.76 0 0 0-.593-.716l-1.043-.266a2.72 2.72 0 0 1-1.881-1.88zM157.237 145.37c-.075-.276-.313-.439-.601-.439a.65.65 0 0 0-.602.439l-.201.84c-.2.752-.752 1.354-1.517 1.517l-.84.201c-.276.075-.439.313-.439.602 0 .288.201.514.439.601l.84.201c.752.201 1.354.752 1.517 1.517l.201.84c.075.276.313.439.602.439a.65.65 0 0 0 .601-.439l.201-.84c.201-.752.752-1.354 1.517-1.517l.84-.201c.276-.075.439-.313.439-.601a.65.65 0 0 0-.439-.602l-.84-.201c-.752-.2-1.354-.752-1.517-1.517zM32.17 23.067a.61.61 0 0 0-.572-.474.61.61 0 0 0-.572.474l-.213.834a2.18 2.18 0 0 1-1.505 1.505l-.834.212a.61.61 0 0 0-.474.573.61.61 0 0 0 .474.572l.834.213a2.18 2.18 0 0 1 1.505 1.505l.213.834a.61.61 0 0 0 .572.474.61.61 0 0 0 .573-.474l.212-.834a2.18 2.18 0 0 1 1.505-1.505l.834-.213a.61.61 0 0 0 .474-.572.61.61 0 0 0-.474-.573l-.834-.212a2.18 2.18 0 0 1-1.505-1.505zM69.829 124.242c-.433 0-.812.298-.948.731l-.216.866c-.176.65-.65 1.165-1.287 1.286l-.866.217c-.433.081-.731.474-.731.948s.298.812.731.947l.867.217c.65.176 1.164.65 1.286 1.286l.216.867c.082.433.474.731.948.731s.812-.298.948-.731l.216-.867c.176-.65.65-1.164 1.286-1.286l.867-.217c.433-.081.73-.473.73-.947s-.297-.813-.73-.948l-.867-.217c-.65-.176-1.164-.649-1.286-1.286l-.216-.866c-.082-.433-.474-.731-.948-.731m-.257.907c0-.136.135-.217.257-.217s.217.081.257.217l.217.866a2.43 2.43 0 0 0 1.814 1.814l.866.217c.136 0 .217.135.217.257s-.081.217-.217.257l-.866.217a2.43 2.43 0 0 0-1.814 1.814l-.217.867c0 .135-.135.216-.257.216s-.217-.081-.257-.216l-.217-.867a2.43 2.43 0 0 0-1.814-1.814l-.867-.217c-.135 0-.216-.135-.216-.257s.081-.216.216-.257l.867-.217a2.43 2.43 0 0 0 1.814-1.814zM243.489 71.005c-.126-.4-.463-.736-.947-.736a.96.96 0 0 0-.946.736l-.337 1.346c-.336 1.199-1.262 2.209-2.481 2.482l-1.347.336c-.399.127-.736.463-.736.947s.337.862.736.946l1.347.337c1.198.336 2.208 1.262 2.481 2.482l.337 1.346c.126.4.463.736.946.736.484 0 .863-.337.947-.736l.336-1.346c.337-1.2 1.262-2.209 2.482-2.482l1.346-.337c.4-.126.736-.462.736-.946a.96.96 0 0 0-.736-.947l-1.346-.336c-1.199-.337-2.208-1.262-2.482-2.482z" clip-rule="evenodd"/><g clip-path="url(#b)"><rect width="214" height="140" x="33.3" y="33" fill="#A0C9FF" rx="12"/><path fill="#A0C9FF" stroke="#000" d="M32.5 32.5h214v46h-214z"/><path fill="#A0C9FF" stroke="#000" d="M32.5 32.5h214v22h-214z"/><rect width="14.091" height="9" x="63.5" y="38.5" stroke="#000" rx="2.5"/><rect width="14.091" height="9" x="79.591" y="38.5" stroke="#000" rx="2.5"/><rect width="14.091" height="9" x="95.682" y="38.5" stroke="#000" rx="2.5"/><rect width="14.091" height="9" x="111.773" y="38.5" stroke="#000" rx="2.5"/><rect width="14.091" height="9" x="127.864" y="38.5" stroke="#000" rx="2.5"/><rect width="14.091" height="9" x="143.955" y="38.5" stroke="#000" rx="2.5"/><rect width="14.091" height="9" x="160.045" y="38.5" stroke="#000" rx="2.5"/><rect width="14.091" height="9" x="176.136" y="38.5" stroke="#000" rx="2.5"/><rect width="14.091" height="9" x="192.227" y="38.5" stroke="#000" rx="2.5"/><rect width="14.091" height="9" x="208.318" y="38.5" stroke="#000" rx="2.5"/><rect width="14.091" height="9" x="224.409" y="38.5" stroke="#000" rx="2.5"/><rect width="114" height="11" x="81.8" y="60.5" fill="#A0C9FF" stroke="#000" rx="2.5"/><path stroke="#000" d="M205.257 61.536a.42.42 0 0 1 .339 0l3.209 1.426a.42.42 0 0 1 .248.381v2.155c0 2.291-1.563 4.417-3.626 4.986-2.064-.569-3.627-2.695-3.627-4.986v-2.155c0-.164.097-.314.248-.38z"/><path fill="#000" d="M235.33 63.218h-9.107a.61.61 0 0 1-.609-.61.61.61 0 0 1 .609-.608h9.107a.61.61 0 0 1 .608.609.61.61 0 0 1-.608.608M235.33 66.659h-9.107a.61.61 0 0 1-.609-.609.61.61 0 0 1 .609-.609h9.107a.61.61 0 0 1 .608.61.61.61 0 0 1-.608.608M235.33 70.096h-9.107a.61.61 0 0 1-.609-.608.61.61 0 0 1 .609-.61h9.107a.61.61 0 0 1 .608.61.61.61 0 0 1-.608.608M45.89 69.77a.62.62 0 0 1-.432-.176l-3.209-3.208 3.209-3.208a.606.606 0 1 1 .858.858l-2.344 2.344 2.344 2.344a.606.606 0 0 1-.432 1.034zM51.91 69.758a.606.606 0 0 1-.432-1.035l2.343-2.343-2.343-2.344a.606.606 0 1 1 .858-.858l3.208 3.208-3.208 3.208a.6.6 0 0 1-.432.177z"/><circle cx="42.8" cy="43.5" r="2" stroke="#000"/><circle cx="49.8" cy="43.5" r="2" stroke="#000"/><circle cx="56.8" cy="43.5" r="2" stroke="#000"/></g><rect width="213" height="59" x="33.5" y="33.5" stroke="#000" rx="11.5"/><g clip-path="url(#c)"><rect width="230" height="101" x="25" y="67" fill="#D2E4FF" rx="12"/><path fill="#fff" d="M25 67h230v22H25z"/><path fill="#fff" stroke="#000" d="M24.5 66.5h230v29h-230z"/><path fill="#67AFFF" stroke="#000" d="M158 95.5h.5V94a2.5 2.5 0 0 0-2.5-2.5H58a2.5 2.5 0 0 0-2.5 2.5v1.5H158Z"/><rect width="16" height="9" x="55.5" y="76.5" fill="#67AFFF" stroke="#000" rx="2.5"/><rect width="27" height="9" x="73.5" y="76.5" fill="#fff" stroke="#000" rx="2.5"/><rect width="27" height="9" x="102.5" y="76.5" fill="#fff" stroke="#000" rx="2.5"/><rect width="27" height="9" x="131.5" y="76.5" fill="#fff" stroke="#000" rx="2.5"/><rect width="16" height="9" x="160.5" y="76.5" fill="#FF83B6" stroke="#000" rx="2.5"/><rect width="16" height="9" x="178.5" y="76.5" fill="#79B98B" stroke="#000" rx="2.5"/><rect width="16" height="9" x="196.5" y="76.5" fill="#B79BFF" stroke="#000" rx="2.5"/><rect width="130" height="11" x="73.8" y="104.5" stroke="#000" rx="2.5"/><path stroke="#000" d="M213.257 105.536a.42.42 0 0 1 .339 0l3.209 1.426a.42.42 0 0 1 .248.381v2.155c0 2.291-1.563 4.417-3.626 4.985-2.064-.568-3.627-2.694-3.627-4.985v-2.155c0-.164.097-.314.248-.381z"/><path fill="#000" d="M243.33 107.217h-9.107a.61.61 0 0 1-.609-.608.61.61 0 0 1 .609-.609h9.107a.61.61 0 0 1 0 1.217M243.33 110.659h-9.107a.61.61 0 0 1-.609-.609.61.61 0 0 1 .609-.609h9.107a.61.61 0 0 1 .608.609.61.61 0 0 1-.608.609M243.33 114.096h-9.107a.61.61 0 0 1-.609-.608.61.61 0 0 1 .609-.609h9.107a.61.61 0 0 1 .608.609.61.61 0 0 1-.608.608M37.89 113.771a.62.62 0 0 1-.432-.177l-3.209-3.208 3.209-3.208a.607.607 0 0 1 .858.858l-2.344 2.344 2.344 2.344a.606.606 0 0 1-.432 1.034zM43.91 113.758a.606.606 0 0 1-.432-1.034l2.343-2.344-2.343-2.344a.606.606 0 1 1 .858-.858l3.208 3.208-3.208 3.208a.6.6 0 0 1-.432.177z"/><circle cx="34.8" cy="81.5" r="2" stroke="#000"/><circle cx="41.8" cy="81.5" r="2" stroke="#000"/><circle cx="48.8" cy="81.5" r="2" stroke="#000"/></g><rect width="229" height="59" x="25.5" y="67.5" stroke="#000" rx="11.5"/><path fill="#000" d="M239 149c17.673 0 32-14.327 32-32s-14.327-32-32-32-32 14.327-32 32 14.327 32 32 32"/><path fill="#67AFFF" stroke="#000" stroke-miterlimit="10" d="M237 145c17.673 0 32-14.327 32-32s-14.327-32-32-32-32 14.327-32 32 14.327 32 32 32Z"/><mask id="d" width="41" height="41" x="214.917" y="90.63" fill="#000" maskUnits="userSpaceOnUse"><path fill="#fff" d="M214.917 90.63h41v41h-41z"/><path fill-rule="evenodd" d="M254.171 94.89a1.452 1.452 0 0 0-2.413-1.615l-7.936 11.849-2.019-1.352a1.45 1.45 0 0 0-2.014.398l-.002.002-.011.017-.052.075q-.072.104-.219.305a30.595 30.595 0 0 1-4.13 4.531c-2.802 2.498-6.489 4.749-10.506 4.622a1.452 1.452 0 0 0-1.471 1.733l1.425-.281c-1.425.281-1.424.282-1.424.283v.002l.001.003.001.009.005.023.016.069q.019.085.057.226c.05.189.128.451.241.774.226.645.596 1.534 1.18 2.561 1.171 2.06 3.198 4.663 6.632 6.962 3.434 2.3 6.613 3.183 8.963 3.482a16 16 0 0 0 2.817.116 11 11 0 0 0 1.039-.105l.07-.013.023-.004.008-.001.004-.001h.002c0-.001.001-.001-.281-1.425l.282 1.424a1.452 1.452 0 0 0 1.043-2.019c-1.647-3.667-.97-7.933.273-11.475a30.6 30.6 0 0 1 2.617-5.544q.131-.213.199-.319l.05-.077.011-.017.001-.001.001-.001a1.45 1.45 0 0 0-.399-2.014l-2.02-1.352zm-13.292 12.642q.253-.31.46-.576l2.074 1.389 2.074 1.389q-.167.293-.357.645a34 34 0 0 0-.981 1.972l-4.72-3.161c.564-.605 1.05-1.17 1.45-1.658m-3.57 3.734 5.727 3.835-.001.003c-1.148 3.272-2.019 7.561-.879 11.688-.38-.013-.814-.044-1.295-.105a15 15 0 0 1-1.585-.287c-.565-1.913-.555-3.911-.191-5.87a1.451 1.451 0 1 0-2.855-.531c-.315 1.694-.419 3.492-.157 5.307a20 20 0 0 1-2.925-1.633c-3.018-2.02-4.749-4.27-5.724-5.984a14 14 0 0 1-.59-1.157c4.251-.518 7.885-2.956 10.473-5.264zm-19.843 9.439a1.452 1.452 0 1 0 0 2.904h3.872a1.452 1.452 0 1 0 0-2.904zm-1.452 7.261c0-.802.65-1.452 1.452-1.452h7.745a1.453 1.453 0 0 1 0 2.904h-7.745c-.802 0-1.452-.65-1.452-1.452m1.355-10.262a1.452 1.452 0 1 0 0-2.904 1.452 1.452 0 0 0 0 2.904" clip-rule="evenodd"/></mask><path fill="#fff" fill-rule="evenodd" d="M254.171 94.89a1.452 1.452 0 0 0-2.413-1.615l-7.936 11.849-2.019-1.352a1.45 1.45 0 0 0-2.014.398l-.002.002-.011.017-.052.075q-.072.104-.219.305a30.595 30.595 0 0 1-4.13 4.531c-2.802 2.498-6.489 4.749-10.506 4.622a1.452 1.452 0 0 0-1.471 1.733l1.425-.281c-1.425.281-1.424.282-1.424.283v.002l.001.003.001.009.005.023.016.069q.019.085.057.226c.05.189.128.451.241.774.226.645.596 1.534 1.18 2.561 1.171 2.06 3.198 4.663 6.632 6.962 3.434 2.3 6.613 3.183 8.963 3.482a16 16 0 0 0 2.817.116 11 11 0 0 0 1.039-.105l.07-.013.023-.004.008-.001.004-.001h.002c0-.001.001-.001-.281-1.425l.282 1.424a1.452 1.452 0 0 0 1.043-2.019c-1.647-3.667-.97-7.933.273-11.475a30.6 30.6 0 0 1 2.617-5.544q.131-.213.199-.319l.05-.077.011-.017.001-.001.001-.001a1.45 1.45 0 0 0-.399-2.014l-2.02-1.352zm-13.292 12.642q.253-.31.46-.576l2.074 1.389 2.074 1.389q-.167.293-.357.645a34 34 0 0 0-.981 1.972l-4.72-3.161c.564-.605 1.05-1.17 1.45-1.658m-3.57 3.734 5.727 3.835-.001.003c-1.148 3.272-2.019 7.561-.879 11.688-.38-.013-.814-.044-1.295-.105a15 15 0 0 1-1.585-.287c-.565-1.913-.555-3.911-.191-5.87a1.451 1.451 0 1 0-2.855-.531c-.315 1.694-.419 3.492-.157 5.307a20 20 0 0 1-2.925-1.633c-3.018-2.02-4.749-4.27-5.724-5.984a14 14 0 0 1-.59-1.157c4.251-.518 7.885-2.956 10.473-5.264zm-19.843 9.439a1.452 1.452 0 1 0 0 2.904h3.872a1.452 1.452 0 1 0 0-2.904zm-1.452 7.261c0-.802.65-1.452 1.452-1.452h7.745a1.453 1.453 0 0 1 0 2.904h-7.745c-.802 0-1.452-.65-1.452-1.452m1.355-10.262a1.452 1.452 0 1 0 0-2.904 1.452 1.452 0 0 0 0 2.904" clip-rule="evenodd"/><path fill="#000" d="m254.171 94.89.831.557zm-2.413-1.615-.831-.557zm-7.936 11.849-.556.831.831.556.556-.831zm-2.019-1.352-.556.831zm-1.09-.218.194.981zm-.924.616.831.557zm0 0 .827.562.003-.005zm-.002.002.827.563.001-.001zm-.011.017.822.569.005-.007zm-.052.075.82.573.002-.004zm-.219.305.806.592zm-.873 1.123.773.633zm-3.257 3.408-.666-.746zm-10.506 4.622-.032 1zm-1.153.512-.763-.647zm-.318 1.221-.981.195.194.981.981-.195zm.001.002-.981.195v.001zm0 .002-.981.195.001.002zm.001.003-.981.197.001.003zm.001.009-.979.2.001.005zm.005.023-.978.206v.003zm.016.069-.974.225zm.057.226-.966.259zm.241.774-.944.331zm1.18 2.561.869-.494zm6.632 6.962.556-.83zm8.963 3.482-.126.992zm2.817.116.054.998zm.808-.072-.129-.992zm.231-.033-.162-.987zm.07-.013.178.984h.004zm.023-.004.182.984.006-.002zm.008-.001.189.982.003-.001zm.004-.001.192.981h.001zm.002 0-.191-.982h-.002zm.001-.001-.981.194.194.981.981-.194zm1.008-.758-.888-.459zm.035-1.261.912-.41zm.273-11.475-.943-.331zm1.912-4.309-.881-.474zm.705-1.235-.854-.52zm.199-.319-.839-.543-.003.003zm.05-.077-.835-.55-.004.007zm.011-.017-.834-.551-.001.001zm.001-.001-.83-.557-.004.006zm.001-.001.83.557.001-.001zm0 0 .831.556zm.217-1.089.981-.194zm-.616-.925.556-.831zm-2.02-1.352-.83-.556-.557.83.831.557zm-4.896.216.557-.83-.773-.518-.572.733zm-.46.576.773.634zm2.534.813.56-.828-.004-.003zm0 0-.56.828.003.003zm2.074 1.389.869.494.459-.808-.772-.517zm-.357.645-.881-.474zm-.981 1.972-.557.831.977.654.489-1.069zm-4.72-3.161-.732-.682-.801.859.976.654zm3.607 5.911.944.331.256-.731-.644-.431zm-5.727-3.835.557-.831-.644-.431-.578.516zm5.726 3.838.944.331zm-.879 11.688-.033.999 1.359.046-.362-1.311zm-1.295-.105-.126.992zm-1.585-.287-.959.284.165.557.566.133zm-.191-5.87-.983-.183zm-1.162-1.693.183-.983zm-1.693 1.162.983.183zm-.157 5.307-.411.912 1.661.749-.26-1.803zm-2.925-1.633.556-.831zm-5.724-5.984.87-.494zm-.59-1.157-.121-.993-1.35.164.56 1.24zm10.473-5.264-.665-.746zm15.909-17.561c.207.139.263.42.124.627l1.662 1.113a2.453 2.453 0 0 0-.673-3.402zm-.627.124a.45.45 0 0 1 .627-.124l1.113-1.662a2.45 2.45 0 0 0-3.402.673zm-7.936 11.849 7.936-11.849-1.662-1.113-7.936 11.85zm-3.406-1.077 2.019 1.352 1.113-1.662-2.019-1.352zm-.34-.068a.45.45 0 0 1 .34.068l1.113-1.662a2.46 2.46 0 0 0-1.841-.368zm-.287.192c.066-.1.17-.169.287-.192l-.388-1.962c-.637.126-1.199.5-1.561 1.04zm-.001 0h.001l-1.661-1.114h-.001zm-.004.007.001-.002-1.655-1.124-.001.002zm-.012.017.011-.016-1.653-1.126-.011.017zm-.057.082.052-.075-1.644-1.139-.052.075zm-.235.328q.155-.212.233-.324l-1.639-1.146q-.066.095-.207.287zm-.906 1.164c.395-.482.7-.884.906-1.164l-1.613-1.183c-.187.255-.47.629-.84 1.08zm-3.365 3.522a31.5 31.5 0 0 0 3.365-3.522l-1.547-1.267a29.6 29.6 0 0 1-3.149 3.296zm-11.203 4.875c4.402.138 8.334-2.317 11.203-4.875l-1.331-1.493c-2.734 2.438-6.176 4.483-9.809 4.369zm-.359.159a.45.45 0 0 1 .359-.159l.063-1.999a2.45 2.45 0 0 0-1.947.864zm-.099.38a.46.46 0 0 1 .099-.38l-1.525-1.294a2.46 2.46 0 0 0-.536 2.063zm.25-1.068-1.425.281.388 1.962 1.425-.281zm-.25 1.069c-.005-.025.052.189-.01.438a1 1 0 0 1-.558.668c-.041.018-.075.03-.092.036a1 1 0 0 1-.097.027l.15-.03 1.245-.246-.388-1.962-1.248.247-.162.033-.043.009-.027.006-.07.021a.993.993 0 0 0-.65.705 1 1 0 0 0-.016.409l.003.022.002.007zm.001.001-.001-.002-1.961.392v.001zm0 .002-.001-.003-1.96.394v.003zm.001.006-.001-.009-1.96.4.002.009zm.004.017-.005-.023-1.957.411.005.024zm.011.049-.012-.053-1.956.419.02.085zm.049.194a4 4 0 0 1-.049-.194l-1.948.451q.022.101.065.26zm.219.701a9 9 0 0 1-.219-.701l-1.932.517c.056.212.141.498.263.846zm1.105 2.398a14.7 14.7 0 0 1-1.105-2.398l-1.888.662c.244.695.637 1.64 1.254 2.725zm6.319 6.626c-3.29-2.204-5.216-4.686-6.319-6.626l-1.739.989c1.239 2.178 3.368 4.902 6.945 7.298zm8.533 3.32c-2.215-.281-5.242-1.117-8.533-3.32l-1.113 1.661c3.578 2.396 6.908 3.327 9.394 3.643zm2.638.109a14.7 14.7 0 0 1-2.638-.109l-.252 1.984c1.238.157 2.261.162 2.997.122zm.732-.065c-.17.023-.417.048-.732.065l.107 1.997c.368-.019.665-.05.882-.078zm.198-.028-.198.028.257 1.984q.163-.022.265-.039zm.053-.009-.053.009.324 1.973.086-.015zm.02-.004-.023.004.364 1.967.023-.005zm.002-.001-.008.002.376 1.964.009-.001zm0 0-.003.001.383 1.963.004-.001zm.001 0-.002.001.386 1.962h.001zm-1.069-.249.246 1.245.029.15c.003.012.001.006 0-.005l-.004-.024a1.231 1.231 0 0 1-.009-.17c.002-.037.006-.134.042-.252a1 1 0 0 1 .738-.689l.022-.005.007-.001.381 1.963.008-.001.021-.005a.979.979 0 0 0 .373-.17 1 1 0 0 0 .407-.771c.002-.045 0-.081-.001-.099l-.008-.074-.004-.027-.008-.043-.031-.162-.247-1.248zm2.244 1.036-.282-1.424-1.962.388.282 1.424zm-.861-1.023a.45.45 0 0 1-.314.236l.388 1.962a2.45 2.45 0 0 0 1.703-1.28zm.011-.392a.45.45 0 0 1-.011.392l1.777.918a2.45 2.45 0 0 0 .058-2.13zm.242-12.216c-1.273 3.627-2.047 8.198-.242 12.216l1.824-.82c-1.489-3.316-.908-7.277.305-10.733zm1.974-4.452a31.6 31.6 0 0 0-1.974 4.452l1.887.663a29.6 29.6 0 0 1 1.848-4.167zm.732-1.281c-.181.297-.436.732-.732 1.281l1.761.948c.277-.514.515-.918.679-1.188zm.211-.339q-.073.115-.211.339l1.708 1.041q.124-.203.187-.301zm.053-.08-.05.077 1.679 1.086.05-.077zm.015-.024-.011.017 1.67 1.1.011-.016zm.002-.002-.001.001 1.668 1.103.002-.002zm.004-.007zl1.661 1.114v-.001zm0 .001h-.001l1.663 1.112zm.067-.339a.45.45 0 0 1-.068.339l1.663 1.112c.361-.54.493-1.202.367-1.839zm-.192-.288c.1.067.169.17.192.288l1.962-.388a2.45 2.45 0 0 0-1.041-1.562zm-2.019-1.352 2.019 1.352 1.113-1.662-2.019-1.352zm7.661-13.237-7.935 11.85 1.661 1.112 7.936-11.849zm-12.789 12.007q-.2.257-.446.557l1.547 1.268q.262-.32.475-.594zm3.418 1.173-2.073-1.388-1.113 1.661 2.073 1.389zm.004.003-1.121 1.656h.001zm2.07 1.386-2.074-1.389-1.113 1.662 2.074 1.389zm-.033 1.95q.185-.342.346-.625l-1.739-.988q-.172.302-.368.665zm-.952 1.914c.334-.73.662-1.376.952-1.914l-1.761-.948a35 35 0 0 0-1.01 2.03zm-6.186-2.746 4.72 3.161 1.113-1.662-4.72-3.161zm1.233-3.123a33 33 0 0 1-1.408 1.61l1.463 1.364a35 35 0 0 0 1.492-1.706zm3.487 7.372-5.726-3.835-1.113 1.662 5.726 3.835zm.387 1.165.001-.003-1.888-.662-.001.003zm-.859 11.091c-1.061-3.842-.261-7.901.859-11.091l-1.888-.662c-1.177 3.353-2.118 7.872-.899 12.285zm-2.385 1.153c.513.065.978.099 1.388.112l.066-1.999c-.351-.011-.754-.04-1.202-.097zm-1.687-.305c.606.142 1.171.239 1.687.305l.252-1.984a15 15 0 0 1-1.483-.268zm-.946-7.027c-.386 2.073-.406 4.236.215 6.337l1.918-.567c-.51-1.727-.51-3.56-.167-5.404zm-.362-.527a.45.45 0 0 1 .362.527l1.966.366a2.45 2.45 0 0 0-1.962-2.859zm-.527.362a.45.45 0 0 1 .527-.362l.366-1.966a2.45 2.45 0 0 0-2.859 1.962zm-.15 4.982c-.243-1.687-.15-3.373.15-4.982l-1.966-.366c-.331 1.779-.444 3.689-.164 5.633zm-4.472-.66a21 21 0 0 0 3.071 1.714l.822-1.823a19 19 0 0 1-2.78-1.553zm-6.036-6.321c1.042 1.833 2.876 4.205 6.036 6.321l1.113-1.662c-2.874-1.924-4.503-4.052-5.41-5.647zm-.632-1.24c.168.373.376.791.632 1.24l1.739-.988a13 13 0 0 1-.548-1.075zm10.719-6.421c-2.524 2.25-5.972 4.535-9.929 5.017l.242 1.985c4.545-.553 8.365-3.144 11.018-5.51zm.002-.002-.002.002 1.331 1.492.002-.001zm-19.63 11.637c0-.25.202-.452.452-.452v-2a2.45 2.45 0 0 0-2.452 2.452zm.452.452a.45.45 0 0 1-.452-.452h-2a2.45 2.45 0 0 0 2.452 2.452zm3.872 0h-3.872v2h3.872zm.452-.452c0 .25-.202.452-.452.452v2a2.45 2.45 0 0 0 2.452-2.452zm-.452-.452c.25 0 .452.202.452.452h2a2.45 2.45 0 0 0-2.452-2.452zm-3.872 0h3.872v-2h-3.872zm0 3.809a2.45 2.45 0 0 0-2.452 2.452h2c0-.25.202-.452.452-.452zm7.745 0h-7.745v2h7.745zm2.452 2.452a2.45 2.45 0 0 0-2.452-2.452v2c.249 0 .452.202.452.452zm-2.452 2.452a2.45 2.45 0 0 0 2.452-2.452h-2a.453.453 0 0 1-.452.452zm-7.745 0h7.745v-2h-7.745zm-2.452-2.452a2.45 2.45 0 0 0 2.452 2.452v-2a.45.45 0 0 1-.452-.452zm2.807-11.714c0 .25-.202.452-.452.452v2a2.45 2.45 0 0 0 2.452-2.452zm-.452-.452c.25 0 .452.202.452.452h2a2.45 2.45 0 0 0-2.452-2.452zm-.452.452c0-.25.202-.452.452-.452v-2a2.45 2.45 0 0 0-2.452 2.452zm.452.452a.45.45 0 0 1-.452-.452h-2a2.45 2.45 0 0 0 2.452 2.452z" mask="url(#d)"/></g><defs><clipPath id="a"><path fill="#fff" d="M.3 0h280v160H.3z"/></clipPath><clipPath id="b"><rect width="214" height="60" x="33" y="33" fill="#fff" rx="12"/></clipPath><clipPath id="c"><rect width="230" height="60" x="25" y="67" fill="#fff" rx="12"/></clipPath></defs></svg>
