<svg width="16" height="12" fill="none" xmlns="http://www.w3.org/2000/svg"><path d="M14.956.934c-.226-.214-.508-.267-.79-.267-.283 0-.566.16-.792.373l-7.06 7.68-3.727-3.466c-.452-.427-1.186-.427-1.582 0-.226.213-.338.48-.338.746 0 .267.112.534.338.747l4.575 4.267c.17.213.452.32.79.32h.057c.34 0 .622-.16.791-.374l7.85-8.533c.396-.427.34-1.12-.112-1.493Z" fill="url(#a)"/><defs><linearGradient id="a" x1="2.512" y1="1.826" x2="11.397" y2="14.019" gradientUnits="userSpaceOnUse"><stop stop-color="#FA7250"/><stop offset=".407" stop-color="#FF1893"/><stop offset="1" stop-color="#A78AFF"/></linearGradient></defs></svg>
