<svg width="75" height="18" fill="none" xmlns="http://www.w3.org/2000/svg"><path fill-rule="evenodd" clip-rule="evenodd" d="M8.073 17.042a17.688 17.688 0 0 1-3.098-2.628C2.732 12.014.523 8.27.667 2.921l.005-.186.159-.098L.89 2.6c.838-.54 8.677-5.594 17.606.04l.158.099.003.185c.027 1.481-.128 2.554-.394 3.78l-.106.49-.422-.274c-.186-.12-.374-.247-.568-.377-1.139-.763-2.44-1.634-4.224-2.106-2.025-.537-4.701-.56-8.455.786.218 1.103 1.278 5.324 5.192 8.476.433-.31 1.543-1.22 2.895-3.108a3.271 3.271 0 0 0-.703-.462c-.546-.267-1.384-.486-2.608-.28l-.181.03-.127-.13c-.297-.309-.592-.797-.833-1.259-.245-.47-.452-.947-.568-1.26l-.13-.347.357-.104c1.592-.463 5.31-.997 9.498 2.654l.188.164-.098.23c-1.228 2.882-3.119 4.894-4.698 6.184a16.39 16.39 0 0 1-2.023 1.417L9.66 18c-.242-.103-1.159-.682-1.587-.958ZM58.795 6.75c.583 0 .995-.402.995-.987 0-.591-.412-.993-.995-.993-.584 0-.985.407-.985.993 0 .585.407.987.984.987Zm-.985 1.08h1.98v6.3h-1.98v-6.3Zm-10.08.866V7.83h-1.98v6.3h1.98v-3.112c0-1.133.794-1.544 1.587-1.544.335-.034.804.074.933.133v-1.74c-.161-.105-.587-.129-.78-.127-.74 0-1.44.354-1.74.956Zm-2.88 5.434v-6.3H42.9v.746c-.35-.422-1.009-.746-1.872-.746-1.636 0-2.838 1.348-2.838 3.156s1.202 3.144 2.838 3.144c.863 0 1.521-.187 1.873-.615v.615h1.95Zm-3.343-4.536c.78.006 1.323.573 1.323 1.392 0 .82-.543 1.393-1.323 1.393-.78 0-1.323-.574-1.323-1.393 0-.819.544-1.392 1.323-1.392ZM67.35 7.83v6.3H65.4v-.615c-.35.428-1.009.615-1.872.615-1.636 0-2.838-1.336-2.838-3.144s1.202-3.156 2.838-3.156c.863 0 1.521.324 1.873.746V7.83h1.95Zm-2.02 3.156c0-.819-.543-1.386-1.323-1.392-.78 0-1.323.573-1.323 1.392 0 .82.544 1.393 1.323 1.393.78 0 1.323-.574 1.323-1.393Zm-8.42 3.144V4.77h-1.95v3.806c-.35-.422-1.009-.746-1.872-.746-1.636 0-2.838 1.348-2.838 3.156s1.202 3.144 2.838 3.144c.863 0 1.521-.187 1.873-.615v.615h1.95Zm-3.343-4.536c.78.006 1.323.573 1.323 1.392 0 .82-.543 1.393-1.323 1.393-.78 0-1.323-.574-1.323-1.393 0-.819.544-1.392 1.323-1.392Zm-18.105 1.675V7.83h2.008v3.594c0 1.568-1.192 2.706-3.002 2.706-1.81 0-2.938-1.138-2.938-2.668V7.83h2.008v3.44c0 .61.401 1.015.93 1.015.6 0 .994-.399.994-1.016ZM26.398 4.68c-2.842 0-4.857 1.96-4.857 4.728 0 2.846 2.119 4.722 4.837 4.722 2.347 0 4.433-1.713 4.433-4.63 0-.222-.013-.443-.045-.684h-4.381v1.68h2.223c-.255 1.074-1.01 1.648-2.308 1.648-1.356 0-2.516-.984-2.516-2.736 0-1.589 1.05-2.683 2.51-2.683.847 0 1.492.313 1.949.801l1.551-1.524c-.795-.827-1.949-1.322-3.396-1.322Zm47.973 5.439v4.011h-1.953v-3.433c0-.688-.621-1.016-1.11-1.016-.508 0-1.197.328-1.197 1.016v3.433h-1.86v-6.3h1.86v.778c.438-.553 1.249-.778 1.975-.778 1.165 0 2.285.816 2.285 2.289Z" fill="#C2C4CF"/></svg>
