<svg xmlns="http://www.w3.org/2000/svg" width="91" height="20" fill="none"><path fill="#fff" fill-rule="evenodd" d="M4.49 15.956a17.918 17.918 0 0 0 3.14 2.663l.843.53c.236.145.633.387.894.499l.826.352 1.686-.974.006-.004a16.738 16.738 0 0 0 2.068-1.447c1.598-1.304 3.445-3.365 4.708-6.327l.235-.681c.244-.765.741-2.332.773-2.48.264-1.215.427-2.335.4-3.857l-.021-1.136-.82-.517C12.298-2.042 4.24.586 1.077 2.477c-.137.08-.702.43-.968.594l-.03 1.141c-.147 5.447 2.12 9.296 4.41 11.744Zm8.327.23c1.44-1.175 3.164-3.008 4.284-5.634v-.241l-.083-.118c-2.85-2.483-5.46-2.841-7.205-2.688a7.591 7.591 0 0 0-1.454.27l-.325.095.118.316a10.988 10.988 0 0 0 .62 1.337c.198.361.427.718.658.957l.115.12.165-.028a4.654 4.654 0 0 1 1.324-.047 3.259 3.259 0 0 1 1.264.414 3.046 3.046 0 0 1 .431.309c-1.233 1.72-2.245 2.55-2.64 2.831-3.567-2.871-4.534-6.717-4.732-7.722 3.421-1.226 5.86-1.205 7.708-.716 1.27.336 2.272.894 3.145 1.454a26.136 26.136 0 0 1 .552.362l.153.103c.177.118.349.234.518.344l.33.282.151-.479a22.47 22.47 0 0 0 .156-.78 13.47 13.47 0 0 0 .204-2.664l-.003-.169-.144-.09c-8.14-5.133-15.24-.548-16.004-.055-.025.015-.09.046-.1.053l-.146.089-.004.17C1.74 9.133 3.755 12.544 5.8 14.73a16.128 16.128 0 0 0 2.825 2.394c.39.252 1.226.779 1.447.873l.902-.521a14.95 14.95 0 0 0 1.843-1.291ZM30.358 4c-3.679 0-6.287 2.49-6.287 6.004 0 3.614 2.743 5.996 6.262 5.996 3.038 0 5.738-2.175 5.738-5.88 0-.281-.017-.562-.059-.868h-5.67v2.133h2.877c-.329 1.365-1.308 2.093-2.987 2.093-1.755 0-3.258-1.25-3.258-3.474 0-2.018 1.359-3.407 3.25-3.407 1.096 0 1.932.397 2.522 1.017l2.009-1.935C33.725 4.629 32.232 4 30.358 4Zm42.57 1.575c0 .76-.535 1.282-1.293 1.282-.75 0-1.278-.522-1.278-1.282s.52-1.29 1.278-1.29 1.294.522 1.294 1.29Zm0 2.425h-2.57v8h2.57V8ZM57.444 9.196V8h-2.514v8h2.514v-3.896c0-1.418 1.007-1.933 2.015-1.933.425-.043 1.02.093 1.185.166V8.159c-.205-.132-.746-.16-.99-.159-.94 0-1.83.444-2.21 1.196ZM53.786 16V8h-2.51v.947C50.825 8.411 49.978 8 48.867 8c-2.105 0-3.652 1.712-3.652 4.008 0 2.296 1.547 3.992 3.653 3.992 1.11 0 1.957-.238 2.41-.781V16h2.509Zm-4.303-5.76c1.004.008 1.703.728 1.703 1.768s-.699 1.768-1.703 1.768c-1.003 0-1.702-.728-1.702-1.768s.699-1.768 1.703-1.768ZM82.358 8v8h-2.509v-.781c-.452.543-1.3.781-2.41.781-2.106 0-3.652-1.696-3.652-3.992C73.786 9.712 75.332 8 77.438 8c1.11 0 1.958.411 2.41.947V8h2.51Zm-2.6 4.008c0-1.04-.698-1.76-1.702-1.768-1.004 0-1.703.728-1.703 1.768s.7 1.768 1.703 1.768c1.004 0 1.703-.728 1.703-1.768ZM69.215 16V4.286h-2.509v4.763c-.452-.528-1.3-.934-2.41-.934-2.106 0-3.652 1.688-3.652 3.95 0 2.264 1.546 3.935 3.652 3.935 1.11 0 1.958-.234 2.41-.77V16h2.51Zm-4.302-5.677c1.004.008 1.703.718 1.703 1.743 0 1.025-.7 1.742-1.703 1.742-1.003 0-1.703-.717-1.703-1.742s.7-1.743 1.703-1.743Zm-23.066 2.044V8h2.511v4.563c0 1.992-1.49 3.437-3.754 3.437-2.264 0-3.674-1.445-3.674-3.388V8h2.51v4.367c0 .776.502 1.29 1.164 1.29.75 0 1.243-.506 1.243-1.29Zm49.083-1.46V16h-2.463v-4.36c0-.873-.782-1.289-1.399-1.289-.64 0-1.508.416-1.508 1.29V16h-2.345V8h2.345v.988C86.11 8.286 87.132 8 88.049 8c1.468 0 2.88 1.037 2.88 2.906Z" clip-rule="evenodd"/></svg>