<svg xmlns="http://www.w3.org/2000/svg" width="346" height="132" fill="none"><g fill-rule="evenodd" clip-rule="evenodd" opacity=".4"><path fill="url(#a)" d="m41 83.887-13.97-1.478a.468.468 0 0 0-.455.232l-4.31 7.465c-4.275 7.405-3.225 17.124 2.177 22.84 7.652 1.82 16.593-2.13 20.869-9.535l4.31-7.465a.468.468 0 0 0-.027-.51l-8.265-11.36a.468.468 0 0 0-.33-.19Zm.337-3.182c1.031.109 1.97.65 2.58 1.49l8.264 11.359a3.668 3.668 0 0 1 .21 3.992l-4.31 7.465c-5.088 8.814-15.946 13.536-25.296 10.806-7.04-6.733-8.38-18.497-3.29-27.311l4.31-7.465a3.668 3.668 0 0 1 3.561-1.814l13.97 1.478Zm-12.715 25.002c-3.98-2.298-5.346-7.408-3.048-11.388 2.3-3.983 7.407-5.354 11.387-3.056 3.98 2.297 5.346 7.407 3.047 11.389-2.299 3.981-7.407 5.352-11.386 3.055Zm8.499-4.722a4.95 4.95 0 0 0 .639-2.107l-9.074 2.434c.408.596.937 1.12 1.604 1.505a5.007 5.007 0 0 0 6.831-1.832Zm-8.66-5a4.954 4.954 0 0 0-.638 2.108l9.075-2.436a4.946 4.946 0 0 0-1.604-1.507 5.01 5.01 0 0 0-6.833 1.835Z"/><path fill="url(#b)" d="M70.217 24.602 58.56 40.626a.66.66 0 0 0-.037.718l6.079 10.53c6.03 10.446 18.643 16.018 29.436 13.45 7.621-8.063 9.101-21.772 3.07-32.218l-6.079-10.53a.66.66 0 0 0-.64-.326L70.68 24.334a.66.66 0 0 0-.464.268Zm-3.65-2.655a5.174 5.174 0 0 1 3.64-2.101l19.706-2.085a5.173 5.173 0 0 1 5.024 2.558l6.08 10.53c7.178 12.434 5.288 29.027-4.642 38.524-13.19 3.851-28.505-2.809-35.683-15.242l-6.08-10.53a5.174 5.174 0 0 1 .297-5.63l11.658-16.024ZM87.25 51.804a2.352 2.352 0 0 1-2.742 2.055l-10.818-1.905a2.355 2.355 0 0 1-1.912-2.724 2.348 2.348 0 0 1 2.723-1.908l8.352 1.47 1.665-14.932a2.352 2.352 0 0 1 4.673.524l-1.941 17.42Z"/><path fill="url(#c)" d="M311.078 80.13c-13.582 3.64-27.592-4.45-31.232-18.032-3.639-13.582 4.45-27.592 18.032-31.231 13.582-3.64 27.592 4.45 31.231 18.031 3.64 13.583-4.449 27.593-18.031 31.232Zm-27.126-19.132c3.032 11.319 14.708 18.06 26.026 15.027a21.157 21.157 0 0 0 11.739-8.122L285.116 46.77a21.15 21.15 0 0 0-1.164 14.227Zm15.026-26.026a21.145 21.145 0 0 0-11.737 8.12l36.598 21.131a21.151 21.151 0 0 0 1.165-14.225c-3.033-11.318-14.708-18.059-26.026-15.026Z"/></g><defs><linearGradient id="a" x1="33.681" x2="13.681" y1="75.92" y2="110.561" gradientUnits="userSpaceOnUse"><stop stop-color="#EC1349"/><stop offset="1" stop-color="#D41173"/></linearGradient><linearGradient id="b" x1="55.323" x2="83.534" y1="27.924" y2="76.787" gradientUnits="userSpaceOnUse"><stop stop-color="#EC1349"/><stop offset="1" stop-color="#D41173"/></linearGradient><linearGradient id="c" x1="282.19" x2="295.39" y1="35.07" y2="84.333" gradientUnits="userSpaceOnUse"><stop stop-color="#EC1349"/><stop offset="1" stop-color="#D41173"/></linearGradient></defs></svg>