<svg width="320" height="132" viewBox="0 0 320 132" fill="none" xmlns="http://www.w3.org/2000/svg">
<g opacity="0.4">
<path fill-rule="evenodd" clip-rule="evenodd" d="M23 83.8868L9.02982 82.4093C8.84597 82.3898 8.66791 82.4805 8.57548 82.6406L4.26556 90.1056C-0.0099897 97.511 1.03975 107.23 6.442 112.946C14.0938 114.766 23.0352 110.816 27.3108 103.411L31.6207 95.9457C31.7131 95.7856 31.7026 95.5861 31.5938 95.4366L23.3291 84.0768C23.2512 83.9698 23.1317 83.9008 23 83.8868ZM23.3366 80.7046C24.3687 80.8138 25.3062 81.355 25.9167 82.1942L34.1815 93.554C35.0342 94.7261 35.1167 96.2905 34.392 97.5457L30.0821 105.011C24.993 113.825 14.1353 118.547 4.78473 115.817C-2.25507 109.084 -3.59481 97.3201 1.49428 88.5056L5.8042 81.0406C6.52893 79.7853 7.92496 79.0746 9.3664 79.227L23.3366 80.7046ZM10.6217 105.707C6.64235 103.409 5.27571 98.2994 7.57404 94.3186C9.87321 90.3363 14.9816 88.9651 18.9609 91.2626C22.9403 93.5601 24.307 98.6697 22.0078 102.652C19.7095 106.633 14.6011 108.004 10.6217 105.707ZM19.1211 100.985C19.5066 100.317 19.704 99.5988 19.7601 98.8782L10.6857 101.312C11.0941 101.908 11.6229 102.432 12.2898 102.817C14.6771 104.196 17.7422 103.373 19.1211 100.985ZM10.4609 95.9851C10.0761 96.6514 9.87942 97.3722 9.82328 98.0927L18.8986 95.6572C18.4901 95.0613 17.9607 94.535 17.2939 94.15C14.9065 92.7717 11.8405 93.5954 10.4609 95.9851Z" fill="url(#paint0_linear_3054_3370)"/>
<path fill-rule="evenodd" clip-rule="evenodd" d="M52.2174 24.6022L40.5595 40.6258C40.4061 40.8367 40.3913 41.1182 40.5217 41.344L46.601 51.8738C52.6319 62.3196 65.2443 67.8916 76.0376 65.3241C83.6578 57.2605 85.1385 43.5519 79.1076 33.1061L73.0282 22.5763C72.8978 22.3505 72.6467 22.2226 72.3873 22.25L52.6816 24.3342C52.4959 24.3539 52.3272 24.4513 52.2174 24.6022ZM48.5674 21.9467C49.4286 20.763 50.751 19.9995 52.2068 19.8455L71.9126 17.7613C73.9458 17.5462 75.915 18.5488 76.9373 20.3194L83.0166 30.8492C90.1951 43.2826 88.3053 59.8763 78.3753 69.373C65.1858 73.2243 49.8704 66.5641 42.692 54.1307L36.6126 43.6009C35.5903 41.8302 35.7067 39.6236 36.9095 37.9703L48.5674 21.9467ZM69.2486 51.8038C69.1781 52.448 68.8414 53.0356 68.3225 53.4253C68.247 53.4825 68.17 53.5325 68.0885 53.5795C67.6121 53.8546 67.053 53.9535 66.5071 53.859L55.689 51.9541C54.4084 51.7296 53.555 50.5102 53.7768 49.2299C54.001 47.9536 55.2191 47.0919 56.5001 47.3217L64.8516 48.7912L66.5169 33.8602C66.6621 32.5694 67.8222 31.6402 69.1137 31.7847C70.4051 31.9293 71.3352 33.0935 71.19 34.3842L69.2486 51.8038Z" fill="url(#paint1_linear_3054_3370)"/>
<path fill-rule="evenodd" clip-rule="evenodd" d="M317.078 80.1299C303.496 83.7693 289.486 75.6806 285.846 62.0984C282.207 48.5162 290.296 34.5063 303.878 30.8669C317.46 27.2276 331.47 35.3162 335.109 48.8984C338.749 62.4807 330.66 76.4906 317.078 80.1299ZM289.952 60.9984C292.984 72.3166 304.66 79.0574 315.978 76.0247C320.9 74.7058 324.952 71.75 327.717 67.9029L291.116 46.7715C289.166 51.0889 288.633 56.0762 289.952 60.9984ZM304.978 34.9722C300.056 36.2911 296.005 39.2443 293.241 43.0913L329.839 64.2233C331.789 59.9059 332.322 54.9186 331.004 49.9984C327.971 38.6802 316.296 31.9395 304.978 34.9722Z" fill="url(#paint2_linear_3054_3370)"/>
</g>
<defs>
<linearGradient id="paint0_linear_3054_3370" x1="15.681" y1="75.9196" x2="-4.31899" y2="110.561" gradientUnits="userSpaceOnUse">
<stop stop-color="#EC1349"/>
<stop offset="1" stop-color="#D41173"/>
</linearGradient>
<linearGradient id="paint1_linear_3054_3370" x1="37.3229" y1="27.9239" x2="65.534" y2="76.787" gradientUnits="userSpaceOnUse">
<stop stop-color="#EC1349"/>
<stop offset="1" stop-color="#D41173"/>
</linearGradient>
<linearGradient id="paint2_linear_3054_3370" x1="288.19" y1="35.0704" x2="301.39" y2="84.3335" gradientUnits="userSpaceOnUse">
<stop stop-color="#EC1349"/>
<stop offset="1" stop-color="#D41173"/>
</linearGradient>
</defs>
</svg>
