<svg width="336" height="123" fill="none" xmlns="http://www.w3.org/2000/svg"><path opacity=".9" fill-rule="evenodd" clip-rule="evenodd" d="M328.876 64.662 304.71 40.494a17.103 17.103 0 0 1 10.869-3.885c9.475 0 17.184 7.71 17.184 17.185 0 4.12-1.461 7.903-3.887 10.868ZM298.237 53.95c0-4.12 1.459-7.905 3.885-10.869l24.167 24.166a17.097 17.097 0 0 1-10.867 3.887c-9.476 0-17.185-7.71-17.185-17.184ZM315.5 33.37c-11.304 0-20.5 9.196-20.5 20.5 0 11.302 9.196 20.5 20.5 20.5 11.302 0 20.5-9.198 20.5-20.5 0-11.304-9.198-20.5-20.5-20.5Z" fill="url(#a)" fill-opacity=".5"/><path opacity=".3" fill-rule="evenodd" clip-rule="evenodd" d="M20.914 102.433a4.564 4.564 0 0 1-1.421-1.47l8.586-1.823a4.579 4.579 0 0 1-.701 1.92 4.703 4.703 0 0 1-6.464 1.373Zm5.094-7.788a4.566 4.566 0 0 1 1.422 1.471l-8.586 1.824a4.583 4.583 0 0 1 .7-1.922 4.703 4.703 0 0 1 6.464-1.373Zm1.703-2.597c-3.598-2.317-8.43-1.29-10.774 2.288a7.698 7.698 0 0 0 2.274 10.693c3.598 2.317 8.43 1.291 10.774-2.288a7.699 7.699 0 0 0-2.274-10.693Zm9.586 8.021a326.07 326.07 0 0 1-1.704 2.572c-.077.115-7.769 11.293-20.556 8.762-7.505-10.507-.592-21.712-.29-22.188.458-.715 1.212-1.881 1.677-2.591l2.55-3.894 1.304.84c4.726 3.045 9.014 2.944 11.31 2.555.576 2.24 2.228 6.165 6.954 9.21l1.305.84-2.55 3.894Zm4.25-6.49-1.305-.84c-5.48-3.53-5.836-8.342-5.848-8.537-.025-.562-.367-1.017-.833-1.263-.391-.232-.872-.313-1.335-.142-.192.072-4.77 1.707-10.249-1.822l-1.305-.84a3.134 3.134 0 0 0-4.308.914l-2.55 3.894c-.47.718-1.232 1.897-1.694 2.62-.088.136-8.635 13.814.749 26.184.007.009.016.015.022.022.104.134.227.252.372.345.145.093.302.156.467.196.011.003.02.009.031.012 15.21 3.472 24.332-9.837 24.422-9.971a347.16 347.16 0 0 0 1.723-2.601l2.55-3.894a3.078 3.078 0 0 0-.91-4.277Z" fill="url(#b)"/><path opacity=".3" fill-rule="evenodd" clip-rule="evenodd" d="M69.917 22.105a2.265 2.265 0 0 1 1.875 2.596l-2.729 16.593a2.245 2.245 0 0 1-1.205 1.644 2.27 2.27 0 0 1-1.54.184L55.971 40.74a2.267 2.267 0 0 1-1.711-2.71 2.264 2.264 0 0 1 2.721-1.688l7.987 1.84 2.34-14.221a2.26 2.26 0 0 1 2.608-1.855Zm6.68-3.863c.565 1.1 1.48 2.907 2.035 4.014.09.18 8.728 17.977-3.817 32.15-18.86 1.731-28.097-15.114-28.483-15.84a496.674 496.674 0 0 1-2.08-3.99l-3.104-6.038 2.022-1.02c7.322-3.698 10.32-9.144 11.497-12.308 3.272.917 9.48 1.714 16.804-1.985l2.021-1.02 3.104 6.037ZM71.423 8.18 69.402 9.2c-8.49 4.288-14.884 1.218-15.139 1.093-.735-.38-1.562-.284-2.218.119-.582.324-1.034.867-1.153 1.57-.05.292-1.303 7.224-9.791 11.51l-2.022 1.021a4.493 4.493 0 0 0-1.974 6.067l3.104 6.037c.571 1.11 1.518 2.929 2.102 4.034.11.21 11.31 20.904 33.912 18.182.017-.003.03-.01.045-.012.244-.035.486-.1.71-.214.224-.113.418-.267.59-.442.012-.011.026-.019.038-.03 15.508-16.523 5.198-37.666 5.091-37.879A508.842 508.842 0 0 0 80.64 16.2l-3.104-6.037a4.572 4.572 0 0 0-6.112-1.983Z" fill="url(#c)"/><defs><linearGradient id="a" x1="295.263" y1="73.844" x2="335.736" y2="73.844" gradientUnits="userSpaceOnUse"><stop stop-color="#392DD1"/><stop offset="1" stop-color="#A91B78"/></linearGradient><linearGradient id="b" x1="42.96" y1="114.9" x2="3.934" y2="87.223" gradientUnits="userSpaceOnUse"><stop stop-color="#BF14A2"/><stop offset="1" stop-color="#F73A1C"/></linearGradient><linearGradient id="c" x1="36.607" y1="7.692" x2="95.487" y2="43.907" gradientUnits="userSpaceOnUse"><stop stop-color="#4C54D2"/><stop offset=".563" stop-color="#BF14A2"/><stop offset="1" stop-color="#F73A1C"/></linearGradient></defs></svg>
