<svg width="20" height="20" viewBox="0 0 20 20" fill="none" xmlns="http://www.w3.org/2000/svg">
<path fill-rule="evenodd" clip-rule="evenodd" d="M9.92945 3.01679L4.58056 5.39408C4.51017 5.42536 4.4648 5.49517 4.4648 5.5722V9.16379C4.4648 12.7268 6.8683 16.0149 10.0086 16.9523C13.1489 16.0149 15.5524 12.7268 15.5524 9.16379V5.5722C15.5524 5.49517 15.5071 5.42536 15.4367 5.39408L10.0878 3.01679C10.0374 2.99439 9.97985 2.99439 9.92945 3.01679ZM9.38794 1.79837C9.78309 1.62275 10.2341 1.62275 10.6293 1.79837L15.9782 4.17566C16.5301 4.42095 16.8858 4.96825 16.8858 5.5722V9.16379C16.8858 13.4047 13.9515 17.3705 10.0086 18.3333C6.06572 17.3705 3.13147 13.4047 3.13147 9.16379V5.5722C3.13147 4.96825 3.48715 4.42095 4.03904 4.17566L9.38794 1.79837ZM10.2688 12.4909C10.1556 12.6452 9.98265 12.7458 9.79237 12.7689C9.76459 12.7724 9.73751 12.7738 9.70973 12.7738C9.54723 12.7738 9.38959 12.7165 9.2639 12.6117L6.77779 10.5266C6.48334 10.28 6.44515 9.84205 6.69098 9.54727C6.93682 9.25389 7.37571 9.21337 7.66946 9.46135L9.5889 11.0708L12.2201 7.4971C12.4479 7.18835 12.882 7.12199 13.191 7.34971C13.5 7.57743 13.566 8.01261 13.3382 8.32136L10.2688 12.4909Z" fill="url(#paint0_linear_3138_4302)"/>
<defs>
<linearGradient id="paint0_linear_3138_4302" x1="5.62859" y1="1.66666" x2="5.62859" y2="18.3333" gradientUnits="userSpaceOnUse">
<stop stop-color="#EC1349"/>
<stop offset="1" stop-color="#D41173"/>
</linearGradient>
</defs>
</svg>
