<svg width="48" height="48" viewBox="0 0 48 48" fill="none" xmlns="http://www.w3.org/2000/svg">
<path fill-rule="evenodd" clip-rule="evenodd" d="M10.0986 12.2515L23.7097 6.26079C23.8938 6.17974 24.1062 6.17974 24.2903 6.26079L37.9014 12.2515C38.157 12.364 38.3 12.6023 38.3 12.842V21.8928C38.3 30.9381 32.1224 39.3232 24 41.6892C15.8776 39.3232 9.7 30.9381 9.7 21.8928V12.842C9.7 12.6023 9.84304 12.364 10.0986 12.2515ZM25.5794 3.33193C24.5739 2.88936 23.4261 2.88936 22.4206 3.33193L8.80946 9.32269C7.40508 9.94081 6.5 11.32 6.5 12.842V21.8928C6.5 32.5799 13.9667 42.5737 24 45C34.0333 42.5737 41.5 32.5799 41.5 21.8928V12.842C41.5 11.32 40.5949 9.94081 39.1905 9.32269L25.5794 3.33193ZM15.8435 21.6489C18.1433 20.0076 20.9564 19.0423 24 19.0423C27.0436 19.0423 29.8567 20.0076 32.1565 21.6489C32.9106 22.1871 33.9583 22.0121 34.4965 21.2579C35.0347 20.5038 34.8597 19.4561 34.1056 18.9179C31.2558 16.884 27.7652 15.6871 24 15.6871C20.2348 15.6871 16.7443 16.884 13.8945 18.9179C13.1403 19.4561 12.9653 20.5038 13.5035 21.2579C14.0417 22.0121 15.0894 22.1871 15.8435 21.6489ZM19.0154 27.1523C20.3645 26.0203 22.1006 25.3401 24 25.3401C25.8993 25.3401 27.6354 26.0203 28.9845 27.1523C29.6943 27.7478 30.7524 27.6552 31.3479 26.9455C31.9435 26.2357 31.8509 25.1776 31.1411 24.582C29.2104 22.962 26.7171 21.9849 24 21.9849C21.2829 21.9849 18.7896 22.962 16.8588 24.582C16.1491 25.1776 16.0565 26.2357 16.652 26.9455C17.2475 27.6552 18.3057 27.7478 19.0154 27.1523ZM27.1691 29.5288C27.6022 29.9133 27.4926 30.583 27.0034 30.8929C26.1589 31.4276 25.2742 31.8819 24.3592 32.2444C24.1284 32.3358 23.8715 32.3358 23.6407 32.2444C22.7258 31.8819 21.841 31.4276 20.9966 30.8929C20.5074 30.583 20.3978 29.9133 20.8308 29.5288C21.6739 28.7802 22.7838 28.3255 24 28.3255C25.2161 28.3255 26.3261 28.7802 27.1691 29.5288Z" fill="url(#paint0_linear_3054_3343)"/>
<defs>
<linearGradient id="paint0_linear_3054_3343" x1="39.6818" y1="42.0976" x2="0.620771" y2="10.1994" gradientUnits="userSpaceOnUse">
<stop offset="0.0260417" stop-color="#FA7250"/>
<stop offset="0.401042" stop-color="#FF1893"/>
<stop offset="0.994792" stop-color="#A78AFF"/>
</linearGradient>
</defs>
</svg>
