<svg width="41" height="48" fill="none" xmlns="http://www.w3.org/2000/svg"><path fill-rule="evenodd" clip-rule="evenodd" d="M36.48 5.972h-2.027C25.941 5.972 22.11.998 21.957.798c-.43-.592-1.127-.846-1.814-.79-.596.024-1.177.272-1.56.78-.159.21-3.993 5.184-12.503 5.184H4.053C1.818 5.972 0 7.767 0 9.974v6.004c0 1.105.01 2.918.022 4.023.002.21.448 21.014 19.552 27.877.014.004.028.004.04.008.209.07.428.114.653.114.225 0 .442-.044.65-.114.014-.004.029-.004.043-.008C40.063 41.015 40.509 20.21 40.51 20c.012-1.105.022-2.918.022-4.023V9.974c0-2.207-1.818-4.002-4.053-4.002zm-9.398 11.432c.71.567.864 1.652.34 2.422l-7.072 10.4a1.58 1.58 0 01-1.098.695 1.52 1.52 0 01-1.218-.393l-5.728-5.2c-.678-.614-.766-1.708-.2-2.443.567-.731 1.576-.832 2.255-.215l4.422 4.015 6.063-8.913c.524-.77 1.524-.936 2.236-.368z" fill="url(#paint0_linear)"/><path fill-rule="evenodd" clip-rule="evenodd" d="M27.082 17.404c.71.567.864 1.652.34 2.422l-7.072 10.4a1.58 1.58 0 01-1.098.695 1.52 1.52 0 01-1.218-.393l-5.728-5.2c-.678-.614-.766-1.708-.2-2.443.567-.731 1.576-.832 2.255-.215l4.422 4.015 6.063-8.913c.524-.77 1.524-.936 2.236-.368z" fill="#fff"/><defs><linearGradient id="paint0_linear" x1="54.791" y1="18.881" x2="14.275" y2="-17.817" gradientUnits="userSpaceOnUse"><stop stop-color="#BF14A2"/><stop offset="1" stop-color="#F73A1C"/></linearGradient></defs></svg>
