<svg xmlns="http://www.w3.org/2000/svg" width="320" height="104" fill="none"><g clip-path="url(#a)"><path fill="#2E19B0" fill-rule="evenodd" d="M360.77 23.163v-1.07c-10.276-2.522-20.626-4.318-31.083-4.954-26.649-1.612-53.623 4.442-80.537 10.773l-3.259.767c-25.85 6.092-51.63 12.168-77.127 11.78-25.684-.392-51.401-7.288-77.13-14.188l-.023-.006-2.999-.804C61.902 18.31 35.184 11.43 8.62 12.212c-6.145.182-12.151 2.263-18.058 5.285-5.906 3.02-11.745 6.997-17.548 10.996l-.862.595c-4.4 3.033-8.778 6.052-13.172 8.673v1.206c4.606-2.713 9.184-5.87 13.745-9.014l.877-.605c5.81-4.004 11.595-7.942 17.43-10.927 5.834-2.983 11.684-4.995 17.617-5.17 26.388-.779 52.963 6.056 79.693 13.214l3.067.822c25.691 6.89 51.522 13.817 77.337 14.21 25.629.39 51.524-5.712 77.335-11.796 1.102-.26 2.204-.52 3.305-.778 26.933-6.336 53.762-12.349 80.237-10.747 10.471.636 20.841 2.445 31.147 4.987ZM-41.02 66.036v-1.189c5.134-2.89 10.24-6.41 15.374-9.95l.864-.595c5.802-3.999 11.642-7.976 17.547-10.996 5.907-3.02 11.914-5.101 18.058-5.282 26.564-.785 53.283 6.094 79.993 13.246l3.024.81c25.729 6.9 51.445 13.796 77.127 14.187 25.496.389 51.275-5.686 77.123-11.778 1.087-.256 2.175-.513 3.263-.768 26.914-6.331 53.888-12.384 80.538-10.77 9.709.59 19.327 2.18 28.879 4.423v1.067c-9.581-2.261-19.219-3.863-28.944-4.454-26.474-1.603-53.304 4.41-80.237 10.744l-3.237.763-.011.002-.06.015h-.001c-25.81 6.083-51.703 12.185-77.331 11.794-25.814-.393-51.643-7.32-77.333-14.209l-.079-.02-2.992-.802c-26.73-7.158-53.305-13.992-79.693-13.212C4.92 39.237-.93 41.248-6.764 44.23c-5.836 2.984-11.62 6.922-17.43 10.926l-.88.606c-5.286 3.645-10.596 7.306-15.946 10.273Zm0 27.004v-1.17c.346-.18.692-.365 1.038-.553 5.529-3.003 11.02-6.79 16.543-10.597l.862-.594c5.803-3.998 11.642-7.976 17.548-10.995 5.907-3.021 11.914-5.103 18.058-5.284 26.564-.784 53.283 6.097 79.993 13.249l3.02.81c25.73 6.9 51.448 13.796 77.131 14.187 25.489.387 51.261-5.688 77.103-11.78l.151-.036 3.132-.737c26.913-6.333 53.888-12.386 80.538-10.766 8.962.544 17.846 1.941 26.673 3.917v1.065c-8.854-1.993-17.759-3.4-26.738-3.945-26.475-1.61-53.305 4.402-80.237 10.74-1.109.26-2.219.522-3.328.784-25.803 6.083-51.69 12.186-77.312 11.796-25.815-.393-51.646-7.32-77.337-14.21l-1.246-.334-1.195-.32-.626-.168c-26.73-7.157-53.305-13.992-79.693-13.214-5.933.175-11.783 2.187-17.616 5.17-5.836 2.984-11.621 6.923-17.431 10.926l-.877.605c-5.51 3.798-11.043 7.614-16.623 10.643-.51.277-1.02.548-1.531.811Zm0 26.885v-1.149a73.846 73.846 0 0 0 3.242-1.663c5.529-3.003 11.02-6.79 16.544-10.598l.862-.594c5.802-3.999 11.641-7.976 17.547-10.996 5.907-3.022 11.914-5.103 18.058-5.285 26.564-.783 53.283 6.097 79.993 13.249l3.02.81c25.73 6.9 51.447 13.796 77.131 14.187 25.489.388 51.262-5.688 77.103-11.78l.055-.012.006-.002 1.106-.261 2.116-.498c26.913-6.332 53.888-12.385 80.538-10.766 8.216.5 16.368 1.716 24.469 3.438v1.062c-8.128-1.737-16.3-2.962-24.534-3.463-26.475-1.609-53.305 4.403-80.238 10.74l-3.327.784c-25.803 6.083-51.69 12.186-77.312 11.797-25.815-.393-51.646-7.32-77.337-14.21l-3.067-.822C68.225 96.735 41.65 89.9 15.262 90.679c-5.933.175-11.783 2.187-17.616 5.17-5.836 2.985-11.62 6.923-17.43 10.927l-.878.604v.001c-5.51 3.799-11.043 7.614-16.622 10.644a72.907 72.907 0 0 1-3.736 1.9Zm0 26.781v-1.129a68.137 68.137 0 0 0 5.445-2.669c5.529-3.003 11.02-6.79 16.543-10.598l.863-.594c5.802-3.999 11.642-7.977 17.547-10.997 5.907-3.021 11.914-5.102 18.058-5.284 26.564-.784 53.283 6.097 79.993 13.249l3.02.81c25.73 6.899 51.448 13.796 77.131 14.187 25.497.389 51.278-5.687 77.127-11.779l.059-.014 1.254-.295 1.946-.459c26.914-6.331 53.888-12.384 80.538-10.772 7.472.454 14.89 1.501 22.266 2.982v1.06c-7.401-1.495-14.84-2.55-22.331-3.005-26.474-1.602-53.304 4.411-80.237 10.746l-1.443.34-.442.104-1.42.335c-25.811 6.083-51.706 12.186-77.335 11.796-25.815-.394-51.645-7.321-77.337-14.211l-3.066-.822c-26.73-7.157-53.306-13.992-79.694-13.214-5.932.175-11.782 2.187-17.616 5.171-5.836 2.984-11.62 6.923-17.43 10.927l-.878.604c-5.509 3.799-11.043 7.615-16.622 10.645a67.882 67.882 0 0 1-5.94 2.886Z" clip-rule="evenodd"/><g filter="url(#b)" opacity=".7"><ellipse cx="203.975" cy="90.169" fill="#2E19B0" rx="3.34" ry="3.341"/></g><g filter="url(#c)"><circle cx="203.975" cy="90.17" r="2.174" fill="#2E19B0"/></g><g filter="url(#d)" opacity=".7"><ellipse cx="296.376" cy="97.438" fill="#2E19B0" rx="3.34" ry="3.341"/></g><g filter="url(#e)"><circle cx="296.376" cy="97.439" r="2.174" fill="#2E19B0"/></g><g filter="url(#f)" opacity=".7"><ellipse cx="38.798" cy="91.107" fill="#2E19B0" rx="4.278" ry="4.279"/></g><g filter="url(#g)"><ellipse cx="38.798" cy="91.108" fill="#2E19B0" rx="2.784" ry="2.785"/></g><g filter="url(#h)" opacity=".7"><ellipse cx="12.943" cy="12.284" fill="#2E19B0" rx="3.34" ry="3.341"/></g><g filter="url(#i)"><circle cx="12.943" cy="12.285" r="2.174" fill="#2E19B0"/></g><g filter="url(#j)" opacity=".7"><ellipse cx="313.406" cy="43.019" fill="#2E19B0" rx="2.72" ry="2.721"/></g><g filter="url(#k)"><ellipse cx="313.406" cy="43.019" fill="#2E19B0" rx="1.77" ry="1.771"/></g></g><defs><filter id="b" width="15.055" height="15.056" x="196.447" y="82.641" color-interpolation-filters="sRGB" filterUnits="userSpaceOnUse"><feFlood flood-opacity="0" result="BackgroundImageFix"/><feBlend in="SourceGraphic" in2="BackgroundImageFix" result="shape"/><feGaussianBlur result="effect1_foregroundBlur_2154_19178" stdDeviation="2.094"/></filter><filter id="c" width="6.441" height="6.442" x="200.754" y="86.949" color-interpolation-filters="sRGB" filterUnits="userSpaceOnUse"><feFlood flood-opacity="0" result="BackgroundImageFix"/><feBlend in="SourceGraphic" in2="BackgroundImageFix" result="shape"/><feGaussianBlur result="effect1_foregroundBlur_2154_19178" stdDeviation=".523"/></filter><filter id="d" width="15.055" height="15.056" x="288.849" y="89.91" color-interpolation-filters="sRGB" filterUnits="userSpaceOnUse"><feFlood flood-opacity="0" result="BackgroundImageFix"/><feBlend in="SourceGraphic" in2="BackgroundImageFix" result="shape"/><feGaussianBlur result="effect1_foregroundBlur_2154_19178" stdDeviation="2.094"/></filter><filter id="e" width="6.441" height="6.442" x="293.156" y="94.218" color-interpolation-filters="sRGB" filterUnits="userSpaceOnUse"><feFlood flood-opacity="0" result="BackgroundImageFix"/><feBlend in="SourceGraphic" in2="BackgroundImageFix" result="shape"/><feGaussianBlur result="effect1_foregroundBlur_2154_19178" stdDeviation=".523"/></filter><filter id="f" width="19.281" height="19.283" x="29.157" y="81.465" color-interpolation-filters="sRGB" filterUnits="userSpaceOnUse"><feFlood flood-opacity="0" result="BackgroundImageFix"/><feBlend in="SourceGraphic" in2="BackgroundImageFix" result="shape"/><feGaussianBlur result="effect1_foregroundBlur_2154_19178" stdDeviation="2.681"/></filter><filter id="g" width="8.249" height="8.251" x="34.673" y="86.982" color-interpolation-filters="sRGB" filterUnits="userSpaceOnUse"><feFlood flood-opacity="0" result="BackgroundImageFix"/><feBlend in="SourceGraphic" in2="BackgroundImageFix" result="shape"/><feGaussianBlur result="effect1_foregroundBlur_2154_19178" stdDeviation=".67"/></filter><filter id="h" width="15.055" height="15.056" x="5.416" y="4.756" color-interpolation-filters="sRGB" filterUnits="userSpaceOnUse"><feFlood flood-opacity="0" result="BackgroundImageFix"/><feBlend in="SourceGraphic" in2="BackgroundImageFix" result="shape"/><feGaussianBlur result="effect1_foregroundBlur_2154_19178" stdDeviation="2.094"/></filter><filter id="i" width="6.441" height="6.442" x="9.723" y="9.064" color-interpolation-filters="sRGB" filterUnits="userSpaceOnUse"><feFlood flood-opacity="0" result="BackgroundImageFix"/><feBlend in="SourceGraphic" in2="BackgroundImageFix" result="shape"/><feGaussianBlur result="effect1_foregroundBlur_2154_19178" stdDeviation=".523"/></filter><filter id="j" width="12.261" height="12.263" x="307.275" y="36.888" color-interpolation-filters="sRGB" filterUnits="userSpaceOnUse"><feFlood flood-opacity="0" result="BackgroundImageFix"/><feBlend in="SourceGraphic" in2="BackgroundImageFix" result="shape"/><feGaussianBlur result="effect1_foregroundBlur_2154_19178" stdDeviation="1.705"/></filter><filter id="k" width="5.246" height="5.247" x="310.783" y="40.396" color-interpolation-filters="sRGB" filterUnits="userSpaceOnUse"><feFlood flood-opacity="0" result="BackgroundImageFix"/><feBlend in="SourceGraphic" in2="BackgroundImageFix" result="shape"/><feGaussianBlur result="effect1_foregroundBlur_2154_19178" stdDeviation=".426"/></filter><clipPath id="a"><path fill="#fff" d="M-3 0h326v108H-3z"/></clipPath></defs></svg>
