<svg width="314" height="317" fill="none" xmlns="http://www.w3.org/2000/svg"><g clip-path="url(#clip0)"><path opacity=".7" d="M-423.176 308.83c17.985-10.419 60.73-7.298 88.484-20.488 21.211-10.069 34.297-46.526 60.712-56.494 22.782-8.599 56.097 9.999 82.451 2.508 22.463-6.387 38.988-38.98 61.808-42.901 22.882-3.944 49.482 21.255 72.636 19.217 23.078-2.018 44.647-31.49 67.912-32.177 51.003-1.504 102.666 26.415 154.226 27.2 51.331.783 103.81-25.551 154.978-22.456 51.548 3.132 100.495 35.652 151.149 41.207 34.257 3.755 71.084-21.145 105.587-18.937 34.504 2.208 68.386 31.59 102.889 31.031 34.504-.559 66.936-31.011 101.239-35.592 35.288-4.71 75.699 15.358 110.054 5.702 34.243-9.624 59.252-48.14 92.515-61.042 33.346-12.937 76.906-.976 109.216-15.567 38.21-17.259 63.15-62.005 100.12-81.353 37.06-19.4 86.31-13.462 124.2-31.106 37.66-17.496 66.47-59.64 106.98-71.592 27.7-8.174 62.19 12.719 90.6 7.658 28.42-5.06 53.78-36.616 82.56-38.525 28.79-1.909 57.99 26.028 86.82 27.312 48.84 2.179 100.42-20.425 149.29-13.147 48.52 7.238 92.36 44.125 140.65 53.311 48.57 9.225 101.83-9.225 149.93-1.175 46.59 7.773 84.17 42.673 123.98 48.44 44.3 6.419 89.05-16.728 131.99-13.613 41.09 2.982 82.49 32.523 128.98 31.734 16.69-.286 31.69-29.098 46.6-29.782 17.11-.789 34.66 26.46 49.09 25.374 18.16-1.366 46.36-21.258 59.62-22.648" stroke="url(#paint0_linear)" stroke-opacity=".4" stroke-width=".902" stroke-miterlimit="10"/><path opacity=".7" d="M-421.054 333.682c17.985-10.415 60.73-7.297 88.485-20.487 21.21-10.069 34.297-46.527 60.711-56.494 22.783-8.597 56.097 10.001 82.451 2.507 22.463-6.386 38.988-38.98 61.808-42.901 22.882-3.946 49.48 21.242 72.637 19.217 23.077-2.017 44.646-31.489 67.911-32.173 51.003-1.507 102.666 26.412 154.227 27.197 51.33.782 103.809-25.551 154.977-22.454 51.548 3.13 100.495 35.65 151.149 41.204 34.257 3.755 71.084-21.144 105.588-18.934 34.504 2.211 68.387 31.608 102.889 31.04 34.503-.567 66.936-31.011 101.239-35.59 35.288-4.712 75.699 15.356 110.054 5.703 34.243-9.624 59.252-48.143 92.515-61.045 33.343-12.948 76.903-.987 109.213-15.575 38.2-17.259 63.15-62.005 100.12-81.353 37.06-19.401 86.31-13.462 124.2-31.095 37.66-17.521 66.48-59.651 106.98-71.618 27.7-8.174 62.19 12.722 90.6 7.659 28.42-5.064 53.78-36.603 82.57-38.511 28.78-1.91 57.98 26.025 86.81 27.31 48.84 2.178 100.42-20.427 149.29-13.145 48.51 7.238 92.36 44.122 140.65 53.297 48.57 9.222 101.83-9.225 149.92-1.175 46.6 7.784 84.18 42.684 123.99 48.45 44.31 6.42 89.06-16.727 131.99-13.612 41.09 2.982 82.49 32.526 128.98 31.734 16.69-.283 31.69-29.095 46.6-29.783 17.11-.788 34.66 26.46 49.1 25.375 18.16-1.363 46.35-21.259 59.61-22.648" stroke="url(#paint1_linear)" stroke-opacity=".4" stroke-width=".902" stroke-miterlimit="10"/><path opacity=".7" d="M-418.931 358.527c17.985-10.418 60.73-7.298 88.484-20.49 21.211-10.059 34.298-46.516 60.713-56.469 22.783-8.597 56.098 10.001 82.451 2.507 22.463-6.386 38.989-38.98 61.808-42.901 22.883-3.946 49.481 21.242 72.637 19.217 23.078-2.017 44.647-31.486 67.912-32.173 51.002-1.505 102.666 26.415 154.226 27.2 51.33.779 103.808-25.565 154.978-22.457 51.547 3.13 100.495 35.653 151.148 41.204 34.257 3.755 71.084-21.144 105.588-18.934 34.504 2.211 68.387 31.608 102.89 31.04 34.502-.567 66.939-31.034 101.236-35.615 35.289-4.712 75.699 15.356 110.055 5.702 34.242-9.623 59.251-48.143 92.514-61.044 33.351-12.935 76.911-.976 109.221-15.567 38.2-17.26 63.14-62.003 100.12-81.353 37.06-19.399 86.3-13.462 124.2-31.092 37.66-17.521 66.47-59.651 106.98-71.607 27.69-8.17 62.18 12.722 90.6 7.662 28.41-5.061 53.77-36.617 82.56-38.526 28.79-1.908 57.99 26.026 86.81 27.31 48.85 2.179 100.42-20.426 149.29-13.144 48.52 7.238 92.36 44.124 140.66 53.297 48.56 9.222 101.82-9.225 149.92-1.175 46.6 7.79 84.18 42.687 123.99 48.464 44.3 6.42 89.05-16.727 131.99-13.609 41.09 2.982 82.48 32.523 128.98 31.731 16.69-.283 31.68-29.095 46.6-29.782 17.11-.789 34.65 26.46 49.09 25.374 18.16-1.363 46.35-21.256 59.61-22.645" stroke="url(#paint2_linear)" stroke-opacity=".4" stroke-width=".902" stroke-miterlimit="10"/><path opacity=".7" d="M-416.806 383.39c17.984-10.418 60.729-7.311 88.484-20.487 21.21-10.069 34.297-46.53 60.712-56.494 22.782-8.6 56.096 9.998 82.45 2.507 22.463-6.386 38.988-38.983 61.808-42.901 22.883-3.943 49.481 21.242 72.637 19.217 23.078-2.017 44.647-31.489 67.911-32.176 51.003-1.504 102.666 26.415 154.227 27.2 51.33.779 103.808-25.565 154.978-22.457 51.547 3.133 100.495 35.653 151.149 41.207 34.256 3.755 71.083-21.147 105.587-18.937 34.504 2.211 68.388 31.611 102.89 31.043 34.502-.567 66.935-31.011 101.238-35.592 35.289-4.71 75.699 15.358 110.054 5.702 34.243-9.624 59.252-48.14 92.515-61.042 33.346-12.937 76.906-.979 109.216-15.57 38.21-17.259 63.15-62.002 100.12-81.353 37.07-19.398 86.31-13.459 124.21-31.092 37.66-17.521 66.47-59.652 106.99-71.605 27.7-8.174 62.18 12.72 90.6 7.659 28.41-5.061 53.76-36.627 82.55-38.524 28.78-1.898 57.98 26.026 86.81 27.312 48.84 2.176 100.42-20.425 149.28-13.147 48.52 7.239 92.37 44.125 140.66 53.297 48.57 9.225 101.82-9.225 149.92-1.175 46.6 7.776 84.18 42.676 123.99 48.439 44.3 6.422 89.05-16.724 131.99-13.609 41.09 2.982 82.48 32.523 128.98 31.731 16.69-.283 31.69-29.095 46.6-29.782 17.11-.789 34.66 26.46 49.09 25.377 18.16-1.366 46.36-21.259 59.62-22.648" stroke="url(#paint3_linear)" stroke-opacity=".4" stroke-width=".902" stroke-miterlimit="10"/><path opacity=".7" d="M-414.683 408.244c17.985-10.419 60.73-7.298 88.484-20.488 21.211-10.069 34.297-46.526 60.712-56.494 22.783-8.594 56.097 9.999 82.45 2.508 22.463-6.387 38.989-38.98 61.808-42.915 22.882-3.944 49.481 21.255 72.636 19.216 23.078-2.017 44.647-31.489 67.912-32.176 51.002-1.504 102.665 26.415 154.226 27.2 51.33.782 103.809-25.551 154.978-22.456 51.547 3.132 100.495 35.652 151.149 41.207 34.256 3.755 71.083-21.145 105.587-18.937 34.504 2.207 68.388 31.61 102.89 31.043 34.503-.568 66.936-31.012 101.238-35.593 35.289-4.71 75.7 15.358 110.055 5.702 34.242-9.624 59.251-48.14 92.515-61.042 33.353-12.937 76.903-.976 109.223-15.567 38.2-17.259 63.14-62.005 100.11-81.353 37.07-19.386 86.31-13.465 124.2-31.091 37.66-17.522 66.48-59.652 106.99-71.605 27.7-8.174 62.19 12.719 90.61 7.658 28.41-5.06 53.76-36.604 82.55-38.524 28.78-1.92 57.99 26.025 86.81 27.323 48.85 2.179 100.42-20.425 149.29-13.147 48.52 7.218 92.36 44.114 140.66 53.286 48.56 9.225 101.82-9.225 149.92-1.175 46.59 7.787 84.17 42.687 123.98 48.454 44.31 6.419 89.06-16.728 131.99-13.613 41.09 2.982 82.49 32.523 128.98 31.734 16.69-.286 31.69-29.098 46.6-29.785 17.12-.786 34.66 26.463 49.1 25.377 18.16-1.366 46.35-21.258 59.61-22.648" stroke="url(#paint4_linear)" stroke-opacity=".4" stroke-width=".902" stroke-miterlimit="10"/><path opacity=".7" d="M-412.56 433.096c17.985-10.416 60.73-7.298 88.485-20.487 21.21-10.07 34.297-46.527 60.711-56.495 22.783-8.596 56.097 10.002 82.451 2.508 22.463-6.39 38.988-38.98 61.807-42.915 22.882-3.944 49.482 21.255 72.636 19.217 23.078-2.018 44.647-31.49 67.912-32.174 51.003-1.507 102.666 26.412 154.226 27.197 51.331.783 103.81-25.551 154.978-22.456 51.548 3.132 100.495 35.652 151.149 41.207 34.257 3.755 71.084-21.145 105.588-18.934 34.503 2.21 68.387 31.607 102.889 31.04 34.503-.568 66.936-31.012 101.239-35.59 35.288-4.713 75.699 15.356 110.054 5.702 34.243-9.624 59.251-48.143 92.515-61.044 33.35-12.938 76.91-.977 109.22-15.568 38.2-17.259 63.14-62.005 100.12-81.352 37.06-19.402 86.3-13.462 124.2-31.096 37.66-17.518 66.48-59.648 106.99-71.604 27.7-8.174 62.19 12.721 90.6 7.658 28.42-5.063 53.76-36.61 82.55-38.52 28.79-1.912 57.99 26.028 86.81 27.312 48.85 2.178 100.42-20.426 149.29-13.145 48.52 7.239 92.36 44.122 140.66 53.297 48.56 9.223 101.82-9.225 149.92-1.174 46.6 7.783 84.18 42.683 123.99 48.45 44.3 6.419 89.05-16.728 131.99-13.612 41.08 2.981 82.48 32.525 128.98 31.733 16.69-.283 31.68-29.097 46.6-29.782 17.11-.789 34.65 26.46 49.09 25.374 18.16-1.366 46.35-21.258 59.61-22.647" stroke="url(#paint5_linear)" stroke-opacity=".4" stroke-width=".902" stroke-miterlimit="10"/><path opacity=".7" d="M-410.436 457.951c17.984-10.418 60.73-7.297 88.484-20.49 21.21-10.07 34.297-46.527 60.711-56.495 22.783-8.596 56.097 10.002 82.451 2.508 22.463-6.387 38.988-38.98 61.808-42.901 22.882-3.946 49.48 21.241 72.636 19.217 23.078-2.017 44.648-31.486 67.912-32.174 51.003-1.504 102.666 26.416 154.227 27.2 51.33.78 103.809-25.551 154.977-22.456 51.548 3.13 100.495 35.653 151.149 41.204 34.257 3.755 71.084-21.145 105.588-18.934 34.504 2.211 68.387 31.608 102.89 31.04 34.502-.567 66.935-31.009 101.238-35.59 35.288-4.712 75.699 15.356 110.054 5.703 34.243-9.624 59.252-48.143 92.515-61.045 33.346-12.935 76.906-.976 109.216-15.567 38.21-17.259 63.15-62.003 100.12-81.353 37.07-19.398 86.31-13.462 124.21-31.092 37.66-17.522 66.47-59.652 106.99-71.608 27.7-8.171 62.18 12.722 90.6 7.658 28.41-5.063 53.76-36.623 82.54-38.532 28.79-1.908 57.99 26.026 86.81 27.31 48.85 2.178 100.43-20.426 149.29-13.144 48.52 7.238 92.36 44.124 140.66 53.297 48.57 9.222 101.82-9.225 149.92-1.175 46.6 7.786 84.18 42.692 123.99 48.45 44.3 6.419 89.05-16.727 131.99-13.609 41.09 2.982 82.48 32.523 128.98 31.731 16.69-.283 31.69-29.095 46.6-29.783 17.11-.788 34.66 26.461 49.09 25.375 18.16-1.363 46.36-21.256 59.62-22.645" stroke="url(#paint6_linear)" stroke-opacity=".4" stroke-width=".902" stroke-miterlimit="10"/><g opacity=".7" filter="url(#filter0_f)"><circle cx="198.977" cy="253.065" r="3.217" fill="#D1C6F4"/></g><g filter="url(#filter1_f)"><circle cx="198.977" cy="253.065" r="2.094" fill="#D1C6F4"/></g><g opacity=".7" filter="url(#filter2_f)"><circle cx="287.977" cy="260.065" r="3.217" fill="#D1C6F4"/></g><g filter="url(#filter3_f)"><circle cx="287.977" cy="260.065" r="2.094" fill="#D1C6F4"/></g><g opacity=".7" filter="url(#filter4_f)"><circle cx="39.88" cy="253.968" r="4.12" fill="#D1C6F4"/></g><g filter="url(#filter5_f)"><circle cx="39.88" cy="253.968" r="2.681" fill="#D1C6F4"/></g><g opacity=".7" filter="url(#filter6_f)"><circle cx="14.977" cy="178.065" r="3.217" fill="#D1C6F4"/></g><g filter="url(#filter7_f)"><circle cx="14.977" cy="178.065" r="2.094" fill="#D1C6F4"/></g><g opacity=".7" filter="url(#filter8_f)"><circle cx="304.38" cy="207.661" r="2.62" fill="#D1C6F4"/></g><g filter="url(#filter9_f)"><circle cx="304.38" cy="207.661" r="1.705" fill="#D1C6F4"/></g></g><defs><filter id="filter0_f" x="191.572" y="245.66" width="14.809" height="14.809" filterUnits="userSpaceOnUse" color-interpolation-filters="sRGB"><feFlood flood-opacity="0" result="BackgroundImageFix"/><feBlend in="SourceGraphic" in2="BackgroundImageFix" result="shape"/><feGaussianBlur stdDeviation="2.094" result="effect1_foregroundBlur"/></filter><filter id="filter1_f" x="195.836" y="249.924" width="6.281" height="6.281" filterUnits="userSpaceOnUse" color-interpolation-filters="sRGB"><feFlood flood-opacity="0" result="BackgroundImageFix"/><feBlend in="SourceGraphic" in2="BackgroundImageFix" result="shape"/><feGaussianBlur stdDeviation=".523" result="effect1_foregroundBlur"/></filter><filter id="filter2_f" x="280.572" y="252.66" width="14.809" height="14.809" filterUnits="userSpaceOnUse" color-interpolation-filters="sRGB"><feFlood flood-opacity="0" result="BackgroundImageFix"/><feBlend in="SourceGraphic" in2="BackgroundImageFix" result="shape"/><feGaussianBlur stdDeviation="2.094" result="effect1_foregroundBlur"/></filter><filter id="filter3_f" x="284.836" y="256.924" width="6.281" height="6.281" filterUnits="userSpaceOnUse" color-interpolation-filters="sRGB"><feFlood flood-opacity="0" result="BackgroundImageFix"/><feBlend in="SourceGraphic" in2="BackgroundImageFix" result="shape"/><feGaussianBlur stdDeviation=".523" result="effect1_foregroundBlur"/></filter><filter id="filter4_f" x="30.397" y="244.485" width="18.966" height="18.966" filterUnits="userSpaceOnUse" color-interpolation-filters="sRGB"><feFlood flood-opacity="0" result="BackgroundImageFix"/><feBlend in="SourceGraphic" in2="BackgroundImageFix" result="shape"/><feGaussianBlur stdDeviation="2.681" result="effect1_foregroundBlur"/></filter><filter id="filter5_f" x="35.858" y="249.946" width="8.044" height="8.044" filterUnits="userSpaceOnUse" color-interpolation-filters="sRGB"><feFlood flood-opacity="0" result="BackgroundImageFix"/><feBlend in="SourceGraphic" in2="BackgroundImageFix" result="shape"/><feGaussianBlur stdDeviation=".67" result="effect1_foregroundBlur"/></filter><filter id="filter6_f" x="7.572" y="170.66" width="14.809" height="14.809" filterUnits="userSpaceOnUse" color-interpolation-filters="sRGB"><feFlood flood-opacity="0" result="BackgroundImageFix"/><feBlend in="SourceGraphic" in2="BackgroundImageFix" result="shape"/><feGaussianBlur stdDeviation="2.094" result="effect1_foregroundBlur"/></filter><filter id="filter7_f" x="11.836" y="174.924" width="6.281" height="6.281" filterUnits="userSpaceOnUse" color-interpolation-filters="sRGB"><feFlood flood-opacity="0" result="BackgroundImageFix"/><feBlend in="SourceGraphic" in2="BackgroundImageFix" result="shape"/><feGaussianBlur stdDeviation=".523" result="effect1_foregroundBlur"/></filter><filter id="filter8_f" x="298.349" y="201.631" width="12.061" height="12.061" filterUnits="userSpaceOnUse" color-interpolation-filters="sRGB"><feFlood flood-opacity="0" result="BackgroundImageFix"/><feBlend in="SourceGraphic" in2="BackgroundImageFix" result="shape"/><feGaussianBlur stdDeviation="1.705" result="effect1_foregroundBlur"/></filter><filter id="filter9_f" x="301.822" y="205.104" width="5.116" height="5.116" filterUnits="userSpaceOnUse" color-interpolation-filters="sRGB"><feFlood flood-opacity="0" result="BackgroundImageFix"/><feBlend in="SourceGraphic" in2="BackgroundImageFix" result="shape"/><feGaussianBlur stdDeviation=".426" result="effect1_foregroundBlur"/></filter><linearGradient id="paint0_linear" x1="1102.81" y1="-41.673" x2="1123.75" y2="197.873" gradientUnits="userSpaceOnUse"><stop stop-color="#694CD9"/><stop offset="1" stop-color="#4F86E2"/></linearGradient><linearGradient id="paint1_linear" x1="1104.93" y1="-16.817" x2="1125.87" y2="222.736" gradientUnits="userSpaceOnUse"><stop stop-color="#694CD9"/><stop offset="1" stop-color="#4F86E2"/></linearGradient><linearGradient id="paint2_linear" x1="1107.05" y1="8.036" x2="1128" y2="247.603" gradientUnits="userSpaceOnUse"><stop stop-color="#694CD9"/><stop offset="1" stop-color="#4F86E2"/></linearGradient><linearGradient id="paint3_linear" x1="1109.18" y1="32.899" x2="1130.12" y2="272.444" gradientUnits="userSpaceOnUse"><stop stop-color="#694CD9"/><stop offset="1" stop-color="#4F86E2"/></linearGradient><linearGradient id="paint4_linear" x1="1111.3" y1="57.742" x2="1132.24" y2="297.284" gradientUnits="userSpaceOnUse"><stop stop-color="#694CD9"/><stop offset="1" stop-color="#4F86E2"/></linearGradient><linearGradient id="paint5_linear" x1="1113.42" y1="82.594" x2="1134.36" y2="322.136" gradientUnits="userSpaceOnUse"><stop stop-color="#694CD9"/><stop offset="1" stop-color="#4F86E2"/></linearGradient><linearGradient id="paint6_linear" x1="1115.55" y1="107.449" x2="1136.49" y2="347.002" gradientUnits="userSpaceOnUse"><stop stop-color="#694CD9"/><stop offset="1" stop-color="#4F86E2"/></linearGradient><clipPath id="clip0"><path fill="#fff" d="M0 0h314v317H0z"/></clipPath></defs></svg>
