<svg width="72" height="40" viewBox="0 0 72 40" fill="none" xmlns="http://www.w3.org/2000/svg">
<g clip-path="url(#clip0_1_17014)">
<rect width="72" height="40" fill="#F2F2F3"/>
<path d="M31.5318 20L46.5318 -9H74.5319V49.5H25L42.0318 20H31.5318Z" fill="#434FCF"/>
<mask id="mask0_1_17014" style="mask-type:luminance" maskUnits="userSpaceOnUse" x="6" y="10" width="20" height="20">
<path d="M25.6027 18.1448H16.2086V21.9894H21.6065C21.5197 22.5336 21.3249 23.0688 21.0395 23.5569C20.7126 24.1161 20.3085 24.5418 19.8942 24.866C18.6534 25.8372 17.2067 26.0358 16.202 26.0358C13.664 26.0358 11.4955 24.3604 10.656 22.0838C10.6221 22.0012 10.5996 21.9159 10.5722 21.8315C10.3867 21.2521 10.2853 20.6384 10.2853 20.0006C10.2853 19.3369 10.3951 18.7014 10.5952 18.1013C11.3846 15.7345 13.6021 13.9667 16.2038 13.9667C16.7271 13.9667 17.2311 14.0303 17.709 14.1572C18.8012 14.4473 19.5737 15.0184 20.0471 15.4702L22.9035 12.6131C21.166 10.986 18.901 10 16.1991 10C14.0391 9.99995 12.0449 10.6873 10.4108 11.849C9.08552 12.7911 7.99862 14.0524 7.2651 15.5173C6.58282 16.8756 6.20923 18.3808 6.20923 19.9991C6.20923 21.6176 6.58339 23.1384 7.26568 24.4841V24.4932C7.98633 25.9218 9.04019 27.1519 10.321 28.0897C11.44 28.9089 13.4464 30 16.1991 30C17.7821 30 19.1851 29.7085 20.4224 29.1622C21.315 28.7681 22.1058 28.2541 22.8218 27.5935C23.7679 26.7206 24.5088 25.6409 25.0145 24.3987C25.5202 23.1565 25.7908 21.7518 25.7908 20.2289C25.7908 19.5196 25.721 18.7993 25.6027 18.1447V18.1448Z" fill="white"/>
</mask>
<g mask="url(#mask0_1_17014)">
<g filter="url(#filter0_f_1_17014)">
<path d="M6.06506 20.067C6.07545 21.66 6.51984 23.3035 7.19251 24.6302V24.6393C7.67855 25.6028 8.34282 26.3639 9.09941 27.118L13.6691 25.415C12.8045 24.9665 12.6726 24.6916 12.0528 24.1901C11.4195 23.5379 10.9475 22.789 10.6535 21.911H10.6417L10.6535 21.9019C10.4602 21.3221 10.4411 20.7067 10.434 20.067H6.06506Z" fill="url(#paint0_radial_1_17014)"/>
</g>
<g filter="url(#filter1_f_1_17014)">
<path d="M16.2086 9.92726C15.757 11.5479 15.9297 13.1233 16.2086 14.0399C16.7302 14.0403 17.2326 14.1038 17.709 14.2303C18.8012 14.5203 19.5737 15.0915 20.0471 15.5433L22.9766 12.6132C21.2412 10.988 19.1526 9.92982 16.2086 9.92726Z" fill="url(#paint1_radial_1_17014)"/>
</g>
<g filter="url(#filter2_f_1_17014)">
<path d="M16.1988 9.91444C13.9833 9.9144 11.938 10.6194 10.2619 11.8109C9.63952 12.2533 9.06841 12.7644 8.55987 13.3327C8.42665 14.6092 9.55716 16.1782 11.7959 16.1652C12.8822 14.8747 14.4887 14.0397 16.2767 14.0397C16.2784 14.0397 16.2799 14.0398 16.2816 14.0399L16.2086 9.91474C16.2053 9.91473 16.2021 9.91444 16.1988 9.91444Z" fill="url(#paint2_radial_1_17014)"/>
</g>
<g filter="url(#filter3_f_1_17014)">
<path d="M23.511 20.529L21.5335 21.9164C21.4468 22.4606 21.2518 22.9958 20.9665 23.4839C20.6395 24.0431 20.2354 24.4688 19.8212 24.793C18.5829 25.7622 17.14 25.9618 16.1356 25.9626C15.0974 27.7686 14.9154 28.6732 16.2086 30.1308C17.8088 30.1296 19.2275 29.8345 20.4789 29.2821C21.3834 28.8827 22.1848 28.3618 22.9104 27.6923C23.8692 26.8077 24.6202 25.7135 25.1327 24.4546C25.6452 23.1958 25.9193 21.7723 25.9193 20.2289L23.511 20.529Z" fill="url(#paint3_radial_1_17014)"/>
</g>
<g filter="url(#filter4_f_1_17014)">
<path d="M16.0625 17.9987V22.1355H25.5763C25.66 21.569 25.9367 20.8358 25.9367 20.2289C25.9367 19.5197 25.867 18.6533 25.7487 17.9987H16.0625Z" fill="#3086FF"/>
</g>
<g filter="url(#filter5_f_1_17014)">
<path d="M8.6053 13.1866C8.0182 13.8427 7.51664 14.5771 7.11896 15.3712C6.43669 16.7295 6.06311 18.3808 6.06311 19.9991C6.06311 20.022 6.06496 20.0443 6.06511 20.067C6.36726 20.6588 10.2389 20.5454 10.434 20.067C10.4338 20.0447 10.4313 20.0229 10.4313 20.0006C10.4313 19.3368 10.5411 18.8475 10.7412 18.2474C10.9881 17.5072 11.3747 16.8255 11.869 16.2382C11.981 16.0921 12.2799 15.778 12.3671 15.5896C12.4004 15.5178 12.3068 15.4775 12.3016 15.4523C12.2958 15.424 12.1704 15.4467 12.1423 15.4257C12.0531 15.3589 11.8764 15.324 11.7692 15.293C11.5399 15.2267 11.16 15.0805 10.949 14.9289C10.282 14.4498 9.241 13.8776 8.6053 13.1866Z" fill="url(#paint4_radial_1_17014)"/>
</g>
<g filter="url(#filter6_f_1_17014)">
<path d="M10.9633 15.4551C12.5101 16.4121 12.9549 14.9721 13.9833 14.5214L12.1944 10.7324C11.5363 11.0149 10.9146 11.3659 10.3377 11.776C9.47617 12.3884 8.71538 13.1357 8.08691 13.9862L10.9633 15.4551Z" fill="url(#paint5_radial_1_17014)"/>
</g>
<g filter="url(#filter7_f_1_17014)">
<path d="M11.5929 25.1223C9.51656 25.8879 9.19149 25.9154 9.00037 27.2297C9.3656 27.5937 9.75802 27.9304 10.175 28.2357C11.294 29.055 13.4464 30.1461 16.1991 30.1461C16.2023 30.1461 16.2054 30.1458 16.2086 30.1458V25.8896C16.2065 25.8896 16.2042 25.8897 16.2021 25.8897C15.1713 25.8897 14.3476 25.6132 13.503 25.1323C13.2948 25.0137 12.917 25.3321 12.725 25.1898C12.4601 24.9935 11.8226 25.3589 11.5929 25.1223Z" fill="url(#paint6_radial_1_17014)"/>
</g>
<g opacity="0.5" filter="url(#filter8_f_1_17014)">
<path d="M14.9926 25.7555V30.072C15.3777 30.1181 15.7785 30.1461 16.199 30.1461C16.6205 30.1461 17.0283 30.1239 17.4246 30.0833V25.7846C16.9805 25.8621 16.5623 25.8897 16.202 25.8897C15.7871 25.8897 15.3835 25.8404 14.9926 25.7555Z" fill="url(#paint7_linear_1_17014)"/>
</g>
</g>
<path fill-rule="evenodd" clip-rule="evenodd" d="M63.9038 14.7879L64.3724 13.6389C64.3724 13.6389 63.776 13.0006 63.0518 12.2772C62.3275 11.5538 60.7939 11.9794 60.7939 11.9794L59.0472 10H55.98H52.9127L51.166 11.9794C51.166 11.9794 49.6324 11.5538 48.9082 12.2772C48.1839 13.0006 47.5875 13.6389 47.5875 13.6389L48.0561 14.7879L47.4597 16.49C47.4597 16.49 49.2138 23.1264 49.4194 23.9368C49.8241 25.5326 50.101 26.1496 51.2512 26.9581C52.4015 27.7666 54.4889 29.1709 54.8297 29.3836C55.1705 29.5964 55.5965 29.9588 55.98 29.9588C56.3634 29.9588 56.7894 29.5964 57.1302 29.3836C57.471 29.1709 59.5585 27.7666 60.7087 26.9581C61.8589 26.1496 62.1358 25.5326 62.5405 23.9368C62.7461 23.1264 64.5002 16.49 64.5002 16.49L63.9038 14.7879Z" fill="url(#paint8_linear_1_17014)"/>
<path d="M58.1526 13.5964C58.4082 13.5964 60.304 13.2347 60.304 13.2347C60.304 13.2347 62.5506 15.9475 62.5506 16.5272C62.5506 17.0066 62.3574 17.1942 62.1299 17.4152C62.0822 17.4615 62.033 17.5092 61.9838 17.5615L60.2993 19.3482C60.2826 19.3659 60.264 19.3846 60.2443 19.4044C60.0762 19.5732 59.8286 19.8219 60.0033 20.2349C60.015 20.2625 60.027 20.2906 60.0392 20.319C60.2307 20.7665 60.4672 21.3189 60.1662 21.8786C59.846 22.474 59.2975 22.8715 58.9461 22.8057C58.5946 22.74 57.7692 22.3092 57.4657 22.1123C57.1621 21.9155 56.2001 21.123 56.2001 20.8198C56.2001 20.5669 56.892 20.1462 57.2281 19.9418C57.295 19.9011 57.3478 19.869 57.3782 19.8485C57.4129 19.8251 57.471 19.7891 57.5424 19.7448C57.8492 19.5544 58.4032 19.2106 58.4172 19.0581C58.4343 18.8702 58.4278 18.8151 58.1805 18.3507C58.1279 18.252 58.0663 18.1462 58.0027 18.0369C57.7673 17.6322 57.5036 17.179 57.5619 16.8544C57.6278 16.4879 58.2027 16.2778 58.6896 16.0999C58.7505 16.0776 58.81 16.0559 58.8669 16.0344C59.009 15.9808 59.1876 15.914 59.3741 15.8442C59.8603 15.6623 60.4004 15.4602 60.4895 15.4192C60.6128 15.3623 60.581 15.3083 60.2075 15.2729C60.1581 15.2682 60.0966 15.2617 60.0261 15.2542C59.5638 15.2051 58.7111 15.1146 58.2966 15.23C58.215 15.2527 58.1236 15.2775 58.0278 15.3034C57.562 15.4294 56.9913 15.5838 56.9364 15.6728C56.9268 15.6883 56.9174 15.7017 56.9085 15.7144C56.856 15.7889 56.8218 15.8374 56.8799 16.1539C56.8972 16.2482 56.9327 16.4336 56.9766 16.6628C57.1053 17.3339 57.306 18.3809 57.3313 18.6161C57.3348 18.649 57.3387 18.6808 57.3424 18.7113C57.3746 18.9737 57.396 19.1483 57.091 19.218C57.0656 19.2238 57.0389 19.2299 57.0112 19.2363C56.6669 19.3152 56.1623 19.4309 55.9799 19.4309C55.7975 19.4309 55.2925 19.3151 54.9483 19.2362C54.9207 19.2299 54.8942 19.2238 54.8689 19.218C54.5638 19.1483 54.5852 18.9737 54.6174 18.7113C54.6212 18.6808 54.625 18.649 54.6286 18.6161C54.6539 18.3806 54.8551 17.331 54.9838 16.66C55.0275 16.4321 55.0628 16.2478 55.08 16.1539C55.138 15.8374 55.1038 15.7889 55.0514 15.7144C55.0425 15.7017 55.0331 15.6883 55.0235 15.6728C54.9686 15.5838 54.3979 15.4294 53.9322 15.3034C53.8363 15.2775 53.7449 15.2528 53.6633 15.23C53.2488 15.1146 52.3962 15.2051 51.9338 15.2542C51.8633 15.2617 51.8018 15.2682 51.7524 15.2729C51.3789 15.3083 51.3471 15.3623 51.4703 15.4192C51.5594 15.4602 52.0993 15.6622 52.5854 15.844C52.7721 15.9139 52.9508 15.9807 53.093 16.0344C53.15 16.0559 53.2095 16.0776 53.2704 16.0999C53.7572 16.2779 54.3321 16.488 54.3979 16.8544C54.4563 17.179 54.1927 17.6321 53.9572 18.0367C53.8936 18.1461 53.832 18.2519 53.7794 18.3507C53.5321 18.8151 53.5256 18.8702 53.5427 19.0581C53.5566 19.2105 54.1104 19.5542 54.4173 19.7447C54.4888 19.789 54.5469 19.8251 54.5816 19.8485C54.6121 19.869 54.6648 19.901 54.7316 19.9417C55.0677 20.1461 55.7597 20.5669 55.7597 20.8198C55.7597 21.123 54.7978 21.9155 54.4942 22.1123C54.1907 22.3092 53.3653 22.74 53.0138 22.8057C52.6624 22.8715 52.1139 22.474 51.7937 21.8786C51.4927 21.3189 51.7291 20.7666 51.9206 20.3191C51.9328 20.2906 51.9449 20.2625 51.9566 20.2349C52.1313 19.8219 51.8836 19.5732 51.7155 19.4043C51.6958 19.3846 51.6772 19.3659 51.6606 19.3482L49.976 17.5615C49.9268 17.5093 49.8777 17.4615 49.83 17.4152C49.6025 17.1943 49.4093 17.0066 49.4093 16.5272C49.4093 15.9475 51.6559 13.2347 51.6559 13.2347C51.6559 13.2347 53.5517 13.5964 53.8073 13.5964C54.0112 13.5964 54.4051 13.4609 54.8157 13.3197C54.9196 13.2839 55.0246 13.2478 55.1279 13.2134C55.6391 13.0432 55.9799 13.042 55.9799 13.042C55.9799 13.042 56.3208 13.0432 56.832 13.2134C56.9353 13.2478 57.0403 13.2839 57.1442 13.3197C57.5548 13.4609 57.9486 13.5964 58.1526 13.5964Z" fill="white"/>
<path d="M57.8272 23.1917C58.2279 23.398 58.5123 23.5444 58.6198 23.6115C58.7588 23.6985 58.674 23.8625 58.5473 23.9519C58.4206 24.0414 56.7183 25.3581 56.553 25.5037C56.5319 25.5223 56.5095 25.5425 56.4861 25.5635C56.3269 25.7068 56.1239 25.8896 55.9799 25.8896C55.8359 25.8896 55.6327 25.7067 55.4735 25.5633C55.4502 25.5424 55.4279 25.5223 55.4068 25.5037C55.2416 25.3581 53.5392 24.0414 53.4125 23.9519C53.2858 23.8625 53.2011 23.6985 53.3401 23.6115C53.4477 23.5443 53.7323 23.3978 54.1334 23.1914C54.251 23.1308 54.3786 23.0652 54.5147 22.9948C55.115 22.6845 55.8632 22.4207 55.9799 22.4207C56.0967 22.4207 56.8449 22.6845 57.4452 22.9948C57.5816 23.0653 57.7094 23.1311 57.8272 23.1917Z" fill="white"/>
<rect x="26" y="13.3105" width="20" height="13" rx="5" fill="#F2F2F3"/>
<path d="M29.9531 24L27.4336 15.5449H30.3047L31.5527 21.4336H31.6699L32.918 15.5449H35.7891L33.2695 24H29.9531Z" fill="#434FCF"/>
<path d="M40.0707 24.2344C37.8793 24.2344 36.5199 23.2793 36.4379 21.6504L36.432 21.5332H38.7934L38.7992 21.5801C38.852 22.002 39.3441 22.3301 40.1 22.3301C40.8441 22.3301 41.3012 22.0137 41.3012 21.5742V21.5684C41.3012 21.1641 40.9613 21.0234 40.0238 20.8477L39.1742 20.6895C37.3578 20.3496 36.5727 19.4883 36.5727 18.1406V18.1348C36.5727 16.4004 38.0375 15.3105 40.0414 15.3105C42.3031 15.3105 43.4457 16.4004 43.5863 17.9707L43.5922 18.0352H41.3129L41.3012 17.9707C41.2191 17.5078 40.7504 17.2148 40.0707 17.2148C39.3852 17.2148 39.0336 17.5137 39.0336 17.9004V17.9062C39.0336 18.3281 39.3969 18.5273 40.2406 18.6855L41.0902 18.8438C42.9066 19.1836 43.7621 19.9102 43.7621 21.3223V21.3281C43.7621 23.1035 42.4027 24.2344 40.0707 24.2344Z" fill="#434FCF"/>
</g>
<rect x="0.5" y="0.5" width="71" height="39" rx="7.5" stroke="#E4E4E5"/>
<defs>
<filter id="filter0_f_1_17014" x="5.59498" y="19.597" width="8.54416" height="7.99114" filterUnits="userSpaceOnUse" color-interpolation-filters="sRGB">
<feFlood flood-opacity="0" result="BackgroundImageFix"/>
<feBlend mode="normal" in="SourceGraphic" in2="BackgroundImageFix" result="shape"/>
<feGaussianBlur stdDeviation="0.23504" result="effect1_foregroundBlur_1_17014"/>
</filter>
<filter id="filter1_f_1_17014" x="15.4608" y="9.45718" width="7.98581" height="6.55617" filterUnits="userSpaceOnUse" color-interpolation-filters="sRGB">
<feFlood flood-opacity="0" result="BackgroundImageFix"/>
<feBlend mode="normal" in="SourceGraphic" in2="BackgroundImageFix" result="shape"/>
<feGaussianBlur stdDeviation="0.23504" result="effect1_foregroundBlur_1_17014"/>
</filter>
<filter id="filter2_f_1_17014" x="8.07924" y="9.44436" width="8.67246" height="7.19103" filterUnits="userSpaceOnUse" color-interpolation-filters="sRGB">
<feFlood flood-opacity="0" result="BackgroundImageFix"/>
<feBlend mode="normal" in="SourceGraphic" in2="BackgroundImageFix" result="shape"/>
<feGaussianBlur stdDeviation="0.23504" result="effect1_foregroundBlur_1_17014"/>
</filter>
<filter id="filter3_f_1_17014" x="14.8273" y="19.7588" width="11.5621" height="10.842" filterUnits="userSpaceOnUse" color-interpolation-filters="sRGB">
<feFlood flood-opacity="0" result="BackgroundImageFix"/>
<feBlend mode="normal" in="SourceGraphic" in2="BackgroundImageFix" result="shape"/>
<feGaussianBlur stdDeviation="0.23504" result="effect1_foregroundBlur_1_17014"/>
</filter>
<filter id="filter4_f_1_17014" x="15.5924" y="17.5286" width="10.8144" height="5.07698" filterUnits="userSpaceOnUse" color-interpolation-filters="sRGB">
<feFlood flood-opacity="0" result="BackgroundImageFix"/>
<feBlend mode="normal" in="SourceGraphic" in2="BackgroundImageFix" result="shape"/>
<feGaussianBlur stdDeviation="0.23504" result="effect1_foregroundBlur_1_17014"/>
</filter>
<filter id="filter5_f_1_17014" x="5.59303" y="12.7165" width="7.25132" height="8.22301" filterUnits="userSpaceOnUse" color-interpolation-filters="sRGB">
<feFlood flood-opacity="0" result="BackgroundImageFix"/>
<feBlend mode="normal" in="SourceGraphic" in2="BackgroundImageFix" result="shape"/>
<feGaussianBlur stdDeviation="0.23504" result="effect1_foregroundBlur_1_17014"/>
</filter>
<filter id="filter6_f_1_17014" x="4.78206" y="7.42756" width="12.5061" height="11.654" filterUnits="userSpaceOnUse" color-interpolation-filters="sRGB">
<feFlood flood-opacity="0" result="BackgroundImageFix"/>
<feBlend mode="normal" in="SourceGraphic" in2="BackgroundImageFix" result="shape"/>
<feGaussianBlur stdDeviation="1.65243" result="effect1_foregroundBlur_1_17014"/>
</filter>
<filter id="filter7_f_1_17014" x="8.53029" y="24.6352" width="8.14841" height="5.98096" filterUnits="userSpaceOnUse" color-interpolation-filters="sRGB">
<feFlood flood-opacity="0" result="BackgroundImageFix"/>
<feBlend mode="normal" in="SourceGraphic" in2="BackgroundImageFix" result="shape"/>
<feGaussianBlur stdDeviation="0.23504" result="effect1_foregroundBlur_1_17014"/>
</filter>
<filter id="filter8_f_1_17014" x="14.5225" y="25.2854" width="3.37217" height="5.33072" filterUnits="userSpaceOnUse" color-interpolation-filters="sRGB">
<feFlood flood-opacity="0" result="BackgroundImageFix"/>
<feBlend mode="normal" in="SourceGraphic" in2="BackgroundImageFix" result="shape"/>
<feGaussianBlur stdDeviation="0.23504" result="effect1_foregroundBlur_1_17014"/>
</filter>
<radialGradient id="paint0_radial_1_17014" cx="0" cy="0" r="1" gradientUnits="userSpaceOnUse" gradientTransform="translate(13.5776 26.968) rotate(-92.3395) scale(9.96824 14.6421)">
<stop offset="0.141612" stop-color="#1ABD4D"/>
<stop offset="0.247515" stop-color="#6EC30D"/>
<stop offset="0.311547" stop-color="#8AC502"/>
<stop offset="0.366013" stop-color="#A2C600"/>
<stop offset="0.445673" stop-color="#C8C903"/>
<stop offset="0.540305" stop-color="#EBCB03"/>
<stop offset="0.615636" stop-color="#F7CD07"/>
<stop offset="0.699345" stop-color="#FDCD04"/>
<stop offset="0.771242" stop-color="#FDCE05"/>
<stop offset="0.860566" stop-color="#FFCE0A"/>
</radialGradient>
<radialGradient id="paint1_radial_1_17014" cx="0" cy="0" r="1" gradientTransform="matrix(6.91038 -1.69631e-05 -9.71282e-06 8.92439 22.7025 15.3313)" gradientUnits="userSpaceOnUse">
<stop offset="0.408458" stop-color="#FB4E5A"/>
<stop offset="1" stop-color="#FF4540"/>
</radialGradient>
<radialGradient id="paint2_radial_1_17014" cx="0" cy="0" r="1" gradientUnits="userSpaceOnUse" gradientTransform="translate(18.9287 8.62261) rotate(151.02) scale(11.0678 15.0189)">
<stop offset="0.231273" stop-color="#FF4541"/>
<stop offset="0.311547" stop-color="#FF4540"/>
<stop offset="0.457516" stop-color="#FF4640"/>
<stop offset="0.540305" stop-color="#FF473F"/>
<stop offset="0.699346" stop-color="#FF5138"/>
<stop offset="0.771242" stop-color="#FF5B33"/>
<stop offset="0.860566" stop-color="#FF6C29"/>
<stop offset="1" stop-color="#FF8C18"/>
</radialGradient>
<radialGradient id="paint3_radial_1_17014" cx="0" cy="0" r="1" gradientUnits="userSpaceOnUse" gradientTransform="translate(16.3526 28.8364) rotate(-127.454) scale(28.8731 10.6578)">
<stop offset="0.131546" stop-color="#0CBA65"/>
<stop offset="0.209784" stop-color="#0BB86D"/>
<stop offset="0.297297" stop-color="#09B479"/>
<stop offset="0.396257" stop-color="#08AD93"/>
<stop offset="0.477124" stop-color="#0AA6A9"/>
<stop offset="0.568425" stop-color="#0D9CC6"/>
<stop offset="0.667385" stop-color="#1893DD"/>
<stop offset="0.768727" stop-color="#258BF1"/>
<stop offset="0.858506" stop-color="#3086FF"/>
</radialGradient>
<radialGradient id="paint4_radial_1_17014" cx="0" cy="0" r="1" gradientUnits="userSpaceOnUse" gradientTransform="translate(15.3505 11.8034) rotate(96.6178) scale(10.782 14.908)">
<stop offset="0.366013" stop-color="#FF4E3A"/>
<stop offset="0.457516" stop-color="#FF8A1B"/>
<stop offset="0.540305" stop-color="#FFA312"/>
<stop offset="0.615636" stop-color="#FFB60C"/>
<stop offset="0.771242" stop-color="#FFCD0A"/>
<stop offset="0.860566" stop-color="#FECF0A"/>
<stop offset="0.915033" stop-color="#FECF08"/>
<stop offset="1" stop-color="#FDCD01"/>
</radialGradient>
<radialGradient id="paint5_radial_1_17014" cx="0" cy="0" r="1" gradientUnits="userSpaceOnUse" gradientTransform="translate(13.6031 11.6923) rotate(132.119) scale(5.35532 15.1049)">
<stop offset="0.315904" stop-color="#FF4C3C"/>
<stop offset="0.603818" stop-color="#FF692C"/>
<stop offset="0.726837" stop-color="#FF7825"/>
<stop offset="0.884534" stop-color="#FF8D1B"/>
<stop offset="1" stop-color="#FF9F13"/>
</radialGradient>
<radialGradient id="paint6_radial_1_17014" cx="0" cy="0" r="1" gradientTransform="matrix(-9.68194 -5.36243 7.27679 -13.1383 18.9288 31.3771)" gradientUnits="userSpaceOnUse">
<stop offset="0.231273" stop-color="#0FBC5F"/>
<stop offset="0.311547" stop-color="#0FBC5F"/>
<stop offset="0.366013" stop-color="#0FBC5E"/>
<stop offset="0.457516" stop-color="#0FBC5D"/>
<stop offset="0.540305" stop-color="#12BC58"/>
<stop offset="0.699346" stop-color="#28BF3C"/>
<stop offset="0.771242" stop-color="#38C02B"/>
<stop offset="0.860566" stop-color="#52C218"/>
<stop offset="0.915033" stop-color="#67C30F"/>
<stop offset="1" stop-color="#86C504"/>
</radialGradient>
<linearGradient id="paint7_linear_1_17014" x1="14.9926" y1="27.9508" x2="17.4246" y2="27.9508" gradientUnits="userSpaceOnUse">
<stop stop-color="#0FBC5C"/>
<stop offset="1" stop-color="#0CBA65"/>
</linearGradient>
<linearGradient id="paint8_linear_1_17014" x1="47.4597" y1="30.0996" x2="64.5002" y2="30.0996" gradientUnits="userSpaceOnUse">
<stop stop-color="#FF5601"/>
<stop offset="0.5" stop-color="#FF4000"/>
<stop offset="1" stop-color="#FF1F01"/>
</linearGradient>
<clipPath id="clip0_1_17014">
<rect width="72" height="40" rx="8" fill="white"/>
</clipPath>
</defs>
</svg>
