<?xml version="1.0" encoding="UTF-8"?>
<!--Generator: Apple Native CoreSVG 175-->
<!DOCTYPE svg
PUBLIC "-//W3C//DTD SVG 1.1//EN"
       "http://www.w3.org/Graphics/SVG/1.1/DTD/svg11.dtd">
<svg version="1.1" xmlns="http://www.w3.org/2000/svg" xmlns:xlink="http://www.w3.org/1999/xlink" width="3300" height="2200">
 <!--glyph: "", point size: 100.0, font version: "17.3d3e1", template writer version: "65.1"-->
 <g id="Notes">
  <rect height="2200" id="artboard" style="fill:white;opacity:1" width="3300" x="0" y="0"/>
  <line style="fill:none;stroke:black;opacity:1;stroke-width:0.5;" x1="263" x2="3036" y1="292" y2="292"/>
  <text style="stroke:none;fill:black;font-family:sans-serif;font-size:13;font-weight:bold;" transform="matrix(1 0 0 1 263 322)">Weight/Scale Variations</text>
  <text style="stroke:none;fill:black;font-family:sans-serif;font-size:13;text-anchor:middle;" transform="matrix(1 0 0 1 559.711 322)">Ultralight</text>
  <text style="stroke:none;fill:black;font-family:sans-serif;font-size:13;text-anchor:middle;" transform="matrix(1 0 0 1 856.422 322)">Thin</text>
  <text style="stroke:none;fill:black;font-family:sans-serif;font-size:13;text-anchor:middle;" transform="matrix(1 0 0 1 1153.13 322)">Light</text>
  <text style="stroke:none;fill:black;font-family:sans-serif;font-size:13;text-anchor:middle;" transform="matrix(1 0 0 1 1449.84 322)">Regular</text>
  <text style="stroke:none;fill:black;font-family:sans-serif;font-size:13;text-anchor:middle;" transform="matrix(1 0 0 1 1746.56 322)">Medium</text>
  <text style="stroke:none;fill:black;font-family:sans-serif;font-size:13;text-anchor:middle;" transform="matrix(1 0 0 1 2043.27 322)">Semibold</text>
  <text style="stroke:none;fill:black;font-family:sans-serif;font-size:13;text-anchor:middle;" transform="matrix(1 0 0 1 2339.98 322)">Bold</text>
  <text style="stroke:none;fill:black;font-family:sans-serif;font-size:13;text-anchor:middle;" transform="matrix(1 0 0 1 2636.69 322)">Heavy</text>
  <text style="stroke:none;fill:black;font-family:sans-serif;font-size:13;text-anchor:middle;" transform="matrix(1 0 0 1 2933.4 322)">Black</text>
  <line style="fill:none;stroke:black;opacity:1;stroke-width:0.5;" x1="263" x2="3036" y1="1903" y2="1903"/>
  <g transform="matrix(1 0 0 1 263 1933)">
   <path d="M9.24805 0.830078Q10.8691 0.830078 12.2949 0.214844Q13.7207-0.400391 14.8096-1.49414Q15.8984-2.58789 16.5186-4.01367Q17.1387-5.43945 17.1387-7.05078Q17.1387-8.66211 16.5186-10.0879Q15.8984-11.5137 14.8047-12.6074Q13.7109-13.7012 12.2852-14.3164Q10.8594-14.9316 9.23828-14.9316Q7.62695-14.9316 6.20117-14.3164Q4.77539-13.7012 3.69141-12.6074Q2.60742-11.5137 1.9873-10.0879Q1.36719-8.66211 1.36719-7.05078Q1.36719-5.43945 1.9873-4.01367Q2.60742-2.58789 3.69629-1.49414Q4.78516-0.400391 6.21094 0.214844Q7.63672 0.830078 9.24805 0.830078ZM9.24805-0.654297Q7.91992-0.654297 6.7627-1.14746Q5.60547-1.64062 4.73145-2.51953Q3.85742-3.39844 3.36426-4.56055Q2.87109-5.72266 2.87109-7.05078Q2.87109-8.37891 3.35938-9.54102Q3.84766-10.7031 4.72168-11.582Q5.5957-12.4609 6.75293-12.9541Q7.91016-13.4473 9.23828-13.4473Q10.5762-13.4473 11.7334-12.9541Q12.8906-12.4609 13.7695-11.582Q14.6484-10.7031 15.1465-9.54102Q15.6445-8.37891 15.6445-7.05078Q15.6445-5.72266 15.1514-4.56055Q14.6582-3.39844 13.7842-2.51953Q12.9102-1.64062 11.748-1.14746Q10.5859-0.654297 9.24805-0.654297ZM5.6543-7.05078Q5.6543-6.72852 5.85938-6.52832Q6.06445-6.32812 6.40625-6.32812L8.51562-6.32812L8.51562-4.20898Q8.51562-3.88672 8.71094-3.67676Q8.90625-3.4668 9.23828-3.4668Q9.56055-3.4668 9.77051-3.67676Q9.98047-3.88672 9.98047-4.20898L9.98047-6.32812L12.0898-6.32812Q12.4219-6.32812 12.627-6.52832Q12.832-6.72852 12.832-7.05078Q12.832-7.38281 12.627-7.58789Q12.4219-7.79297 12.0898-7.79297L9.98047-7.79297L9.98047-9.90234Q9.98047-10.2344 9.77051-10.4443Q9.56055-10.6543 9.23828-10.6543Q8.90625-10.6543 8.71094-10.4443Q8.51562-10.2344 8.51562-9.90234L8.51562-7.79297L6.40625-7.79297Q6.06445-7.79297 5.85938-7.58789Q5.6543-7.38281 5.6543-7.05078Z"/>
  </g>
  <g transform="matrix(1 0 0 1 281.867 1933)">
   <path d="M11.709 2.91016Q13.75 2.91016 15.5518 2.12891Q17.3535 1.34766 18.7305-0.0292969Q20.1074-1.40625 20.8887-3.20801Q21.6699-5.00977 21.6699-7.05078Q21.6699-9.0918 20.8887-10.8936Q20.1074-12.6953 18.7305-14.0723Q17.3535-15.4492 15.5469-16.2305Q13.7402-17.0117 11.6992-17.0117Q9.6582-17.0117 7.85645-16.2305Q6.05469-15.4492 4.68262-14.0723Q3.31055-12.6953 2.5293-10.8936Q1.74805-9.0918 1.74805-7.05078Q1.74805-5.00977 2.5293-3.20801Q3.31055-1.40625 4.6875-0.0292969Q6.06445 1.34766 7.86621 2.12891Q9.66797 2.91016 11.709 2.91016ZM11.709 1.25Q9.98047 1.25 8.47656 0.605469Q6.97266-0.0390625 5.83496-1.17676Q4.69727-2.31445 4.05762-3.81836Q3.41797-5.32227 3.41797-7.05078Q3.41797-8.7793 4.05762-10.2832Q4.69727-11.7871 5.83008-12.9297Q6.96289-14.0723 8.4668-14.7119Q9.9707-15.3516 11.6992-15.3516Q13.4277-15.3516 14.9316-14.7119Q16.4355-14.0723 17.5781-12.9297Q18.7207-11.7871 19.3652-10.2832Q20.0098-8.7793 20.0098-7.05078Q20.0098-5.32227 19.3701-3.81836Q18.7305-2.31445 17.5928-1.17676Q16.4551-0.0390625 14.9463 0.605469Q13.4375 1.25 11.709 1.25ZM7.17773-7.05078Q7.17773-6.69922 7.41211-6.47461Q7.64648-6.25 8.01758-6.25L10.8887-6.25L10.8887-3.36914Q10.8887-2.99805 11.1133-2.76855Q11.3379-2.53906 11.6895-2.53906Q12.0605-2.53906 12.29-2.76855Q12.5195-2.99805 12.5195-3.36914L12.5195-6.25L15.4004-6.25Q15.7715-6.25 16.001-6.47461Q16.2305-6.69922 16.2305-7.05078Q16.2305-7.42188 16.001-7.65137Q15.7715-7.88086 15.4004-7.88086L12.5195-7.88086L12.5195-10.752Q12.5195-11.1328 12.29-11.3623Q12.0605-11.5918 11.6895-11.5918Q11.3379-11.5918 11.1133-11.3574Q10.8887-11.123 10.8887-10.752L10.8887-7.88086L8.01758-7.88086Q7.63672-7.88086 7.40723-7.65137Q7.17773-7.42188 7.17773-7.05078Z"/>
  </g>
  <g transform="matrix(1 0 0 1 305.646 1933)">
   <path d="M14.9707 5.66406Q17.0605 5.66406 18.96 5.01465Q20.8594 4.36523 22.4512 3.19336Q24.043 2.02148 25.2197 0.429688Q26.3965-1.16211 27.0459-3.06641Q27.6953-4.9707 27.6953-7.05078Q27.6953-9.14062 27.0459-11.04Q26.3965-12.9395 25.2197-14.5312Q24.043-16.123 22.4512-17.2998Q20.8594-18.4766 18.9551-19.126Q17.0508-19.7754 14.9609-19.7754Q12.8711-19.7754 10.9717-19.126Q9.07227-18.4766 7.48535-17.2998Q5.89844-16.123 4.72168-14.5312Q3.54492-12.9395 2.90039-11.04Q2.25586-9.14062 2.25586-7.05078Q2.25586-4.9707 2.90527-3.06641Q3.55469-1.16211 4.72656 0.429688Q5.89844 2.02148 7.49023 3.19336Q9.08203 4.36523 10.9814 5.01465Q12.8809 5.66406 14.9707 5.66406ZM14.9707 3.84766Q13.1641 3.84766 11.5283 3.2959Q9.89258 2.74414 8.53516 1.74805Q7.17773 0.751953 6.17676-0.610352Q5.17578-1.97266 4.62891-3.6084Q4.08203-5.24414 4.08203-7.05078Q4.08203-8.86719 4.62891-10.5029Q5.17578-12.1387 6.17188-13.501Q7.16797-14.8633 8.52539-15.8594Q9.88281-16.8555 11.5186-17.4023Q13.1543-17.9492 14.9609-17.9492Q16.7773-17.9492 18.4131-17.4023Q20.0488-16.8555 21.4111-15.8594Q22.7734-14.8633 23.7695-13.501Q24.7656-12.1387 25.3174-10.5029Q25.8691-8.86719 25.8691-7.05078Q25.8789-5.24414 25.332-3.6084Q24.7852-1.97266 23.7842-0.610352Q22.7832 0.751953 21.4209 1.74805Q20.0586 2.74414 18.4229 3.2959Q16.7871 3.84766 14.9707 3.84766ZM9.19922-7.05078Q9.19922-6.66992 9.45801-6.4209Q9.7168-6.17188 10.1172-6.17188L14.0625-6.17188L14.0625-2.2168Q14.0625-1.81641 14.3115-1.55762Q14.5605-1.29883 14.9512-1.29883Q15.3516-1.29883 15.6104-1.55273Q15.8691-1.80664 15.8691-2.2168L15.8691-6.17188L19.8242-6.17188Q20.2246-6.17188 20.4785-6.4209Q20.7324-6.66992 20.7324-7.05078Q20.7324-7.46094 20.4785-7.71484Q20.2246-7.96875 19.8242-7.96875L15.8691-7.96875L15.8691-11.9141Q15.8691-12.3242 15.6104-12.583Q15.3516-12.8418 14.9512-12.8418Q14.5605-12.8418 14.3115-12.583Q14.0625-12.3242 14.0625-11.9141L14.0625-7.96875L10.1172-7.96875Q9.70703-7.96875 9.45312-7.71484Q9.19922-7.46094 9.19922-7.05078Z"/>
  </g>
  <text style="stroke:none;fill:black;font-family:sans-serif;font-size:13;font-weight:bold;" transform="matrix(1 0 0 1 263 1953)">Design Variations</text>
  <text style="stroke:none;fill:black;font-family:sans-serif;font-size:13;" transform="matrix(1 0 0 1 263 1971)">Symbols are supported in up to nine weights and three scales.</text>
  <text style="stroke:none;fill:black;font-family:sans-serif;font-size:13;" transform="matrix(1 0 0 1 263 1989)">For optimal layout with text and other symbols, vertically align</text>
  <text style="stroke:none;fill:black;font-family:sans-serif;font-size:13;" transform="matrix(1 0 0 1 263 2007)">symbols with the adjacent text.</text>
  <line style="fill:none;stroke:#00AEEF;stroke-width:0.5;opacity:1.0;" x1="776" x2="776" y1="1919" y2="1933"/>
  <g transform="matrix(1 0 0 1 776 1933)">
   <path d="M3.31055 0.15625Q3.70117 0.15625 3.91602-0.00976562Q4.13086-0.175781 4.26758-0.585938L5.52734-4.0332L11.2891-4.0332L12.5488-0.585938Q12.6855-0.175781 12.9004-0.00976562Q13.1152 0.15625 13.4961 0.15625Q13.8867 0.15625 14.1162-0.0585938Q14.3457-0.273438 14.3457-0.644531Q14.3457-0.869141 14.2383-1.17188L9.6582-13.3691Q9.48242-13.8184 9.17969-14.043Q8.87695-14.2676 8.4082-14.2676Q7.5-14.2676 7.17773-13.3789L2.59766-1.16211Q2.49023-0.859375 2.49023-0.634766Q2.49023-0.263672 2.70996-0.0537109Q2.92969 0.15625 3.31055 0.15625ZM6.00586-5.51758L8.37891-12.0898L8.42773-12.0898L10.8008-5.51758Z"/>
  </g>
  <line style="fill:none;stroke:#00AEEF;stroke-width:0.5;opacity:1.0;" x1="793.197" x2="793.197" y1="1919" y2="1933"/>
  <text style="stroke:none;fill:black;font-family:sans-serif;font-size:13;font-weight:bold;" transform="matrix(1 0 0 1 776 1953)">Margins</text>
  <text style="stroke:none;fill:black;font-family:sans-serif;font-size:13;" transform="matrix(1 0 0 1 776 1971)">Leading and trailing margins on the left and right side of each symbol</text>
  <text style="stroke:none;fill:black;font-family:sans-serif;font-size:13;" transform="matrix(1 0 0 1 776 1989)">can be adjusted by modifying the x-location of the margin guidelines.</text>
  <text style="stroke:none;fill:black;font-family:sans-serif;font-size:13;" transform="matrix(1 0 0 1 776 2007)">Modifications are automatically applied proportionally to all</text>
  <text style="stroke:none;fill:black;font-family:sans-serif;font-size:13;" transform="matrix(1 0 0 1 776 2025)">scales and weights.</text>
  <g transform="matrix(1 0 0 1 1289 1933)">
   <path d="M2.8418 1.86523L4.54102 3.57422Q5.18555 4.22852 5.90332 4.17969Q6.62109 4.13086 7.31445 3.35938L18.0078-8.42773L17.041-9.4043L6.42578 2.27539Q6.16211 2.57812 5.89355 2.61719Q5.625 2.65625 5.27344 2.30469L4.10156 1.14258Q3.75 0.791016 3.79395 0.522461Q3.83789 0.253906 4.14062-0.0195312L15.6152-10.8203L14.6387-11.7871L3.04688-0.898438Q2.30469-0.214844 2.25098 0.498047Q2.19727 1.21094 2.8418 1.86523ZM9.25781-16.3281Q8.94531-16.0254 8.90625-15.6348Q8.86719-15.2441 9.04297-14.9512Q9.21875-14.6777 9.55566-14.541Q9.89258-14.4043 10.3809-14.5215Q11.4746-14.7754 12.5977-14.7314Q13.7207-14.6875 14.7949-13.9844L14.209-12.5293Q13.9551-11.9043 14.0674-11.4404Q14.1797-10.9766 14.5801-10.5664L16.875-8.25195Q17.2363-7.88086 17.5781-7.82227Q17.9199-7.76367 18.3398-7.8418L19.4043-8.03711L20.0684-7.36328L20.0293-6.80664Q20-6.43555 20.1221-6.12305Q20.2441-5.81055 20.6055-5.44922L21.3672-4.70703Q21.7285-4.3457 22.1533-4.33105Q22.5781-4.31641 22.9297-4.66797L25.8398-7.58789Q26.1914-7.93945 26.1816-8.35449Q26.1719-8.76953 25.8105-9.13086L25.0391-9.89258Q24.6875-10.2539 24.3799-10.3857Q24.0723-10.5176 23.7109-10.4883L23.1348-10.4395L22.4902-11.0742L22.7344-12.1973Q22.832-12.6172 22.6953-12.9834Q22.5586-13.3496 22.1191-13.7891L19.9219-15.9766Q18.6719-17.2168 17.2607-17.8369Q15.8496-18.457 14.4189-18.4814Q12.9883-18.5059 11.665-17.959Q10.3418-17.4121 9.25781-16.3281ZM10.752-15.957Q11.6602-16.6211 12.7002-16.9043Q13.7402-17.1875 14.8047-17.085Q15.8691-16.9824 16.8701-16.5137Q17.8711-16.0449 18.7012-15.2051L21.1328-12.793Q21.3086-12.6172 21.3525-12.4512Q21.3965-12.2852 21.3379-12.0312L21.0156-10.5469L22.5195-9.0625L23.5059-9.12109Q23.6914-9.13086 23.7891-9.09668Q23.8867-9.0625 24.0332-8.91602L24.6094-8.33984L22.168-5.89844L21.5918-6.47461Q21.4453-6.62109 21.4062-6.71875Q21.3672-6.81641 21.377-7.01172L21.4453-7.98828L19.9512-9.47266L18.4277-9.21875Q18.1836-9.16992 18.042-9.2041Q17.9004-9.23828 17.7148-9.41406L15.7129-11.416Q15.5176-11.5918 15.4932-11.7529Q15.4688-11.9141 15.5859-12.1875L16.4648-14.2773Q15.293-15.3711 13.8281-15.791Q12.3633-16.2109 10.8398-15.7617Q10.7227-15.7324 10.6885-15.8057Q10.6543-15.8789 10.752-15.957Z"/>
  </g>
  <text style="stroke:none;fill:black;font-family:sans-serif;font-size:13;font-weight:bold;" transform="matrix(1 0 0 1 1289 1953)">Exporting</text>
  <text style="stroke:none;fill:black;font-family:sans-serif;font-size:13;" transform="matrix(1 0 0 1 1289 1971)">Symbols should be outlined when exporting to ensure the</text>
  <text style="stroke:none;fill:black;font-family:sans-serif;font-size:13;" transform="matrix(1 0 0 1 1289 1989)">design is preserved when submitting to Xcode.</text>
  <text id="template-version" style="stroke:none;fill:black;font-family:sans-serif;font-size:13;text-anchor:end;" transform="matrix(1 0 0 1 3036 1933)">Template v.2.0</text>
  <text style="stroke:none;fill:black;font-family:sans-serif;font-size:13;text-anchor:end;" transform="matrix(1 0 0 1 3036 1951)">Requires Xcode 12 or greater</text>
  <text id="descriptive-name" style="stroke:none;fill:black;font-family:sans-serif;font-size:13;text-anchor:end;" transform="matrix(1 0 0 1 3036 1969)">Generated from brave.crown</text>
  <text style="stroke:none;fill:black;font-family:sans-serif;font-size:13;text-anchor:end;" transform="matrix(1 0 0 1 3036 1987)">Typeset at 100 points</text>
  <text style="stroke:none;fill:black;font-family:sans-serif;font-size:13;" transform="matrix(1 0 0 1 263 726)">Small</text>
  <text style="stroke:none;fill:black;font-family:sans-serif;font-size:13;" transform="matrix(1 0 0 1 263 1156)">Medium</text>
  <text style="stroke:none;fill:black;font-family:sans-serif;font-size:13;" transform="matrix(1 0 0 1 263 1586)">Large</text>
 </g>
 <g id="Guides">
  <g id="H-reference" style="fill:#27AAE1;stroke:none;" transform="matrix(1 0 0 1 339 696)">
   <path d="M0.993347 0L3.6377 0L29.3282-67.1326L30.0301-67.1326L30.0301-70.459L28.1227-70.459ZM11.6882-24.4797L46.9818-24.4797L46.2311-26.7288L12.4382-26.7288ZM55.1193 0L57.7637 0L30.6381-70.459L29.4327-70.459L29.4327-67.1326Z"/>
  </g>
  <line id="Baseline-S" style="fill:none;stroke:#27AAE1;opacity:1;stroke-width:0.5;" x1="263" x2="3036" y1="696" y2="696"/>
  <line id="Capline-S" style="fill:none;stroke:#27AAE1;opacity:1;stroke-width:0.5;" x1="263" x2="3036" y1="625.541" y2="625.541"/>
  <g id="H-reference" style="fill:#27AAE1;stroke:none;" transform="matrix(1 0 0 1 339 1126)">
   <path d="M0.993347 0L3.6377 0L29.3282-67.1326L30.0301-67.1326L30.0301-70.459L28.1227-70.459ZM11.6882-24.4797L46.9818-24.4797L46.2311-26.7288L12.4382-26.7288ZM55.1193 0L57.7637 0L30.6381-70.459L29.4327-70.459L29.4327-67.1326Z"/>
  </g>
  <line id="Baseline-M" style="fill:none;stroke:#27AAE1;opacity:1;stroke-width:0.5;" x1="263" x2="3036" y1="1126" y2="1126"/>
  <line id="Capline-M" style="fill:none;stroke:#27AAE1;opacity:1;stroke-width:0.5;" x1="263" x2="3036" y1="1055.54" y2="1055.54"/>
  <g id="H-reference" style="fill:#27AAE1;stroke:none;" transform="matrix(1 0 0 1 339 1556)">
   <path d="M0.993347 0L3.6377 0L29.3282-67.1326L30.0301-67.1326L30.0301-70.459L28.1227-70.459ZM11.6882-24.4797L46.9818-24.4797L46.2311-26.7288L12.4382-26.7288ZM55.1193 0L57.7637 0L30.6381-70.459L29.4327-70.459L29.4327-67.1326Z"/>
  </g>
  <line id="Baseline-L" style="fill:none;stroke:#27AAE1;opacity:1;stroke-width:0.5;" x1="263" x2="3036" y1="1556" y2="1556"/>
  <line id="Capline-L" style="fill:none;stroke:#27AAE1;opacity:1;stroke-width:0.5;" x1="263" x2="3036" y1="1485.54" y2="1485.54"/>
  <line id="left-margin" style="fill:none;stroke:#00AEEF;stroke-width:0.5;opacity:1.0;" x1="1385.8" x2="1385.8" y1="1030.78" y2="1150.12"/>
  <line id="right-margin" style="fill:none;stroke:#00AEEF;stroke-width:0.5;opacity:1.0;" x1="1513.89" x2="1513.89" y1="1030.78" y2="1150.12"/>
 </g>
 <g id="Symbols">
  <g id="Regular-L" transform="matrix(1 0 0 1 1370.8 1556)">
   <path d="M144.606-80.3197C144.825-79.9822 144.949-79.6108 145.089-79.2338C145.207-78.9187 145.347-78.6261 145.403-78.2998C145.464-77.9623 145.436-77.6246 145.431-77.2702C145.431-76.882 145.436-76.5106 145.358-76.128C145.336-76.0324 145.364-75.9424 145.336-75.8466L128.886-15.0415L128.886 12.1738C128.886 14.5819 127.355 16.7202 125.09 17.4794C124.378 17.7217 107.266 23.359 78.9469 23.359C50.6384 23.359 33.1904 17.733 32.4615 17.4907C30.1739 16.7427 28.6321 14.5931 28.6321 12.1738L28.6321-15.7951C28.6321-15.9078 28.6994-16.0036 28.7105-16.1163L12.5465-75.8466C12.524-75.9424 12.5465-76.0324 12.5296-76.128C12.4455-76.5106 12.4567-76.8875 12.4511-77.2758C12.4511-77.6246 12.4175-77.9623 12.4791-78.2998C12.5352-78.6261 12.681-78.9243 12.7931-79.2395C12.9333-79.6164 13.0622-79.9822 13.2753-80.3197C13.3258-80.3985 13.3314-80.4941 13.3874-80.5673C13.5332-80.7755 13.7518-80.888 13.9201-81.0681C14.1836-81.355 14.4415-81.6363 14.7667-81.867C15.0807-82.0864 15.4227-82.2271 15.7703-82.3734C16.0058-82.4746 16.1908-82.6435 16.4431-82.7166C16.5384-82.7391 16.6338-82.7166 16.729-82.7335C17.1047-82.8179 17.4804-82.8066 17.8728-82.8122C18.2036-82.8122 18.5344-82.8404 18.854-82.7841C19.2072-82.7222 19.5324-82.5703 19.8688-82.4409C20.2108-82.3059 20.5416-82.1933 20.85-81.9964C20.9397-81.9401 21.0406-81.9345 21.1247-81.8726L54.6865-57.7126L73.9791-96.6027C74.08-96.7997 74.2538-96.9234 74.3716-97.1035C74.579-97.4298 74.7921-97.728 75.0669-98.0038C75.3415-98.2851 75.6387-98.4988 75.9583-98.707C76.1377-98.8252 76.2611-99.0052 76.4573-99.1009C76.5807-99.1628 76.704-99.1515 76.8273-99.2021C77.1862-99.3541 77.5506-99.4329 77.9318-99.506C78.2739-99.5679 78.599-99.641 78.9411-99.641C79.2829-99.641 79.6084-99.5679 79.95-99.506C80.3314-99.4329 80.6961-99.3541 81.0544-99.2021C81.1725-99.1515 81.3074-99.1628 81.4247-99.1009C81.621-98.9996 81.7503-98.8252 81.9298-98.707C82.249-98.4988 82.5403-98.2851 82.8156-98.0093C83.0901-97.728 83.3088-97.4298 83.5163-97.1035C83.6336-96.9234 83.8075-96.7997 83.9033-96.6027L103.196-57.7126L136.757-81.8726C136.842-81.9345 136.948-81.9401 137.032-81.9964C137.346-82.1933 137.682-82.3115 138.025-82.4409C138.361-82.5703 138.68-82.7222 139.028-82.7841C139.353-82.846 139.679-82.8122 140.009-82.8122C140.407-82.8122 140.783-82.8179 141.17-82.7335C141.26-82.7166 141.349-82.7391 141.439-82.7166C141.686-82.6491 141.865-82.4859 142.09-82.3846C142.453-82.2327 142.801-82.0921 143.127-81.8614C143.446-81.6363 143.698-81.3606 143.962-81.0737C144.13-80.8936 144.349-80.7811 144.495-80.5673C144.551-80.4941 144.556-80.3985 144.606-80.3197ZM39.7275 7.898C46.0688 9.44538 59.9397 12.1738 78.9461 12.1738C97.8859 12.1738 111.538 9.46229 117.784 7.9149L117.784-8.55408C110.137-6.83762 96.7535-4.60429 78.9461-4.60429C61.033-4.60429 47.4592-6.86016 39.7275-8.57662L39.7275 7.898ZM78.9408-81.5913L61.7058-46.8535C61.6553-46.7466 61.5432-46.7072 61.4815-46.6059C61.3918-46.4427 61.3694-46.2571 61.2573-46.0995C60.9545-45.6719 60.5171-45.4355 60.1303-45.1261C59.8836-44.9236 59.6985-44.6647 59.4239-44.5128C58.594-44.0459 57.6857-43.7589 56.7383-43.7589C55.9925-43.7589 55.2581-43.9727 54.5516-44.2822C54.4563-44.3215 54.3554-44.3046 54.2657-44.3496C54.1591-44.4003 54.0974-44.5016 53.9909-44.5635C53.8395-44.6478 53.6714-44.6928 53.52-44.7998L27.3535-63.6372L39.0996-20.2287C45.1043-18.7208 59.2669-15.7951 78.9461-15.7951C99.0741-15.7951 113.164-18.8448 118.805-20.3189L130.528-63.6372L104.362-44.7998C104.216-44.6928 104.042-44.6478 103.891-44.5635C103.789-44.5016 103.728-44.4003 103.622-44.3496C103.526-44.3046 103.426-44.3215 103.33-44.2822C102.624-43.9727 101.889-43.7589 101.143-43.7589C100.202-43.7589 99.2872-44.0459 98.458-44.5128C98.1827-44.6647 98.004-44.9236 97.7566-45.1205C97.3648-45.4355 96.9275-45.6719 96.6242-46.0995C96.5125-46.2571 96.4957-46.4427 96.4-46.6059C96.3441-46.7072 96.226-46.7466 96.1757-46.8535L78.9408-81.5913Z"/>
  </g>
  <g id="Regular-M" transform="matrix(1 0 0 1 1385.8 1126)">
   <path d="M114.795-71.1417C114.964-70.8809 115.06-70.5941 115.169-70.303C115.26-70.0596 115.368-69.8336 115.412-69.5816C115.459-69.3209 115.438-69.0601 115.433-68.7863C115.433-68.4865 115.438-68.1997 115.377-67.9042C115.36-67.8303 115.381-67.7608 115.36-67.6868L102.62-20.7235L102.62 0.296459C102.62 2.15632 101.435 3.80787 99.6805 4.39425C99.1292 4.58142 85.8774 8.9354 63.9458 8.9354C42.0227 8.9354 28.5103 4.59012 27.9458 4.40296C26.1742 3.82529 24.9802 2.16503 24.9802 0.296459L24.9802-21.3056C24.9802-21.3926 25.0323-21.4666 25.0409-21.5537L12.5229-67.6868C12.5055-67.7608 12.5229-67.8303 12.5099-67.9042C12.4447-68.1997 12.4534-68.4908 12.449-68.7907C12.449-69.0601 12.423-69.3209 12.4707-69.5816C12.5142-69.8336 12.6271-70.0639 12.7139-70.3073C12.8224-70.5985 12.9223-70.8809 13.0873-71.1417C13.1264-71.2025 13.1308-71.2764 13.1741-71.3329C13.2871-71.4937 13.4564-71.5806 13.5867-71.7197C13.7907-71.9413 13.9905-72.1585 14.2423-72.3367C14.4855-72.5062 14.7504-72.6148 15.0196-72.7278C15.2019-72.806 15.3452-72.9364 15.5406-72.9929C15.6144-73.0103 15.6882-72.9929 15.762-73.006C16.0529-73.0711 16.3439-73.0624 16.6478-73.0668C16.904-73.0668 17.1602-73.0885 17.4076-73.0451C17.6812-72.9972 17.9331-72.8799 18.1936-72.78C18.4584-72.6757 18.7146-72.5888 18.9534-72.4367C19.0229-72.3932 19.1011-72.3889 19.1662-72.341L45.1576-53.6809L60.0985-83.718C60.1767-83.8701 60.3113-83.9656 60.4025-84.1047C60.5632-84.3568 60.7282-84.5871 60.9409-84.8001C61.1537-85.0173 61.3838-85.1824 61.6313-85.3432C61.7702-85.4345 61.8658-85.5735 62.0177-85.6474C62.1133-85.6952 62.2088-85.6865 62.3043-85.7256C62.5822-85.843 62.8645-85.9039 63.1597-85.9603C63.4246-86.0081 63.6764-86.0646 63.9413-86.0646C64.206-86.0646 64.4581-86.0081 64.7226-85.9603C65.018-85.9039 65.3004-85.843 65.5779-85.7256C65.6694-85.6865 65.7738-85.6952 65.8647-85.6474C66.0167-85.5692 66.1168-85.4345 66.2559-85.3432C66.5031-85.1824 66.7286-85.0173 66.9419-84.8044C67.1544-84.5871 67.3238-84.3568 67.4845-84.1047C67.5753-83.9656 67.71-83.8701 67.7842-83.718L82.725-53.6809L108.716-72.341C108.782-72.3889 108.864-72.3932 108.929-72.4367C109.172-72.5888 109.433-72.68 109.698-72.78C109.958-72.8799 110.206-72.9972 110.475-73.0451C110.727-73.0929 110.979-73.0668 111.235-73.0668C111.543-73.0668 111.834-73.0711 112.134-73.006C112.203-72.9929 112.272-73.0103 112.342-72.9929C112.533-72.9408 112.672-72.8147 112.846-72.7365C113.128-72.6192 113.397-72.5105 113.649-72.3324C113.896-72.1585 114.092-71.9456 114.296-71.724C114.426-71.5849 114.595-71.498 114.708-71.3329C114.752-71.2764 114.756-71.2025 114.795-71.1417ZM33.5729-3.00603C38.4838-1.81089 49.2259 0.296459 63.9452 0.296459C78.6128 0.296459 89.1856-1.79783 94.0227-2.99297L94.0227-15.7129C88.1004-14.3872 77.7359-12.6623 63.9452-12.6623C50.0726-12.6623 39.5606-14.4046 33.5729-15.7303L33.5729-3.00603ZM63.9411-72.1238L50.5936-45.2937C50.5546-45.2112 50.4677-45.1808 50.42-45.1025C50.3505-44.9765 50.3331-44.8331 50.2463-44.7114C50.0118-44.3812 49.6731-44.1986 49.3735-43.9596C49.1825-43.8032 49.0392-43.6033 48.8264-43.4859C48.1838-43.1253 47.4804-42.9036 46.7466-42.9036C46.1691-42.9036 45.6003-43.0688 45.0532-43.3078C44.9794-43.3382 44.9012-43.3251 44.8317-43.3599C44.7492-43.399 44.7015-43.4772 44.619-43.525C44.5017-43.5902 44.3715-43.625 44.2543-43.7075L23.99-58.2568L33.0866-24.7299C37.7368-23.5653 48.7049-21.3056 63.9452-21.3056C79.533-21.3056 90.4451-23.661 94.8131-24.7996L103.892-58.2568L83.6279-43.7075C83.5148-43.625 83.3801-43.5902 83.2633-43.525C83.1848-43.4772 83.1372-43.399 83.055-43.3599C82.9808-43.3251 82.903-43.3382 82.8288-43.3078C82.2819-43.0688 81.7133-42.9036 81.1355-42.9036C80.4062-42.9036 79.698-43.1253 79.0559-43.4859C78.8427-43.6033 78.7043-43.8032 78.5127-43.9553C78.2092-44.1986 77.8706-44.3812 77.6357-44.7114C77.5492-44.8331 77.5362-44.9765 77.4621-45.1025C77.4188-45.1808 77.3274-45.2112 77.2884-45.2937L63.9411-72.1238Z"/>
  </g>
  <g id="Regular-S" transform="matrix(1 0 0 1 1396.8 696)">
   <path d="M92.9331-63.2187C93.0663-63.0129 93.1416-62.7864 93.2272-62.5566C93.2986-62.3645 93.3841-62.1861 93.4181-61.9871C93.4556-61.7813 93.4386-61.5754 93.4352-61.3593C93.4352-61.1226 93.4386-60.8961 93.3909-60.6628C93.3773-60.6045 93.3943-60.5496 93.3773-60.4912L83.3589-23.4149L83.3589-6.82022C83.3589-5.3519 82.4268-4.04805 81.047-3.58512C80.6135-3.43735 70.1922 0 52.945 0C35.7045 0 25.0782-3.43048 24.6343-3.57825C23.2411-4.0343 22.3021-5.34503 22.3021-6.82022L22.3021-23.8744C22.3021-23.9432 22.3431-24.0016 22.3499-24.0703L12.5056-60.4912C12.492-60.5496 12.5056-60.6045 12.4954-60.6628C12.4441-60.8961 12.4509-61.1259 12.4475-61.3627C12.4475-61.5754 12.4271-61.7813 12.4646-61.9871C12.4988-62.1861 12.5875-62.3679 12.6558-62.56C12.7412-62.7899 12.8197-63.0129 12.9495-63.2187C12.9802-63.2668 12.9836-63.3251 13.0178-63.3697C13.1065-63.4966 13.2397-63.5652 13.3422-63.675C13.5026-63.85 13.6597-64.0215 13.8578-64.1622C14.049-64.296 14.2573-64.3818 14.469-64.471C14.6124-64.5327 14.7251-64.6357 14.8788-64.6802C14.9368-64.694 14.9949-64.6802 15.0529-64.6905C15.2816-64.742 15.5105-64.7351 15.7495-64.7386C15.9509-64.7386 16.1524-64.7557 16.347-64.7214C16.5622-64.6837 16.7602-64.591 16.9651-64.5121C17.1734-64.4298 17.3748-64.3612 17.5626-64.2411C17.6173-64.2068 17.6787-64.2034 17.7299-64.1656L38.1698-49.4339L49.9195-73.1474C49.9809-73.2675 50.0868-73.3429 50.1585-73.4527C50.2848-73.6517 50.4146-73.8335 50.5819-74.0017C50.7492-74.1732 50.9302-74.3035 51.1248-74.4305C51.2341-74.5026 51.3092-74.6123 51.4287-74.6706C51.5039-74.7084 51.579-74.7015 51.6541-74.7324C51.8727-74.825 52.0946-74.8731 52.3268-74.9177C52.5351-74.9554 52.7331-75 52.9414-75C53.1496-75 53.3479-74.9554 53.5559-74.9177C53.7882-74.8731 54.0103-74.825 54.2285-74.7324C54.3004-74.7015 54.3826-74.7084 54.454-74.6706C54.5736-74.6089 54.6523-74.5026 54.7616-74.4305C54.956-74.3035 55.1334-74.1732 55.3011-74.0051C55.4683-73.8335 55.6014-73.6517 55.7278-73.4527C55.7992-73.3429 55.9052-73.2675 55.9635-73.1474L67.7131-49.4339L88.1528-64.1656C88.2043-64.2034 88.269-64.2068 88.32-64.2411C88.5115-64.3612 88.7161-64.4332 88.9246-64.5121C89.1297-64.591 89.3241-64.6837 89.536-64.7214C89.7338-64.7592 89.9321-64.7386 90.1333-64.7386C90.3758-64.7386 90.6047-64.742 90.8404-64.6905C90.8948-64.6802 90.9493-64.694 91.0042-64.6802C91.1544-64.6391 91.2637-64.5396 91.4003-64.4778C91.6219-64.3852 91.8338-64.2994 92.0321-64.1588C92.2265-64.0215 92.3801-63.8534 92.5404-63.6785C92.643-63.5687 92.7761-63.5001 92.8651-63.3697C92.8991-63.3251 92.9025-63.2668 92.9331-63.2187ZM29.0595-9.42744C32.9214-8.48391 41.3692-6.82022 52.9445-6.82022C64.4792-6.82022 72.7937-8.4736 76.5977-9.41713L76.5977-19.4592C71.9403-18.4126 63.7896-17.0508 52.9445-17.0508C42.035-17.0508 33.7682-18.4263 29.0595-19.4729L29.0595-9.42744ZM52.9413-63.9941L42.4447-42.8125C42.414-42.7473 42.3457-42.7233 42.3082-42.6615C42.2535-42.562 42.2399-42.4488 42.1716-42.3527C41.9872-42.092 41.7208-41.9479 41.4852-41.7592C41.335-41.6357 41.2223-41.4779 41.055-41.3853C40.5496-41.1005 39.9964-40.9255 39.4194-40.9255C38.9652-40.9255 38.5179-41.0559 38.0877-41.2446C38.0296-41.2686 37.9682-41.2583 37.9135-41.2858C37.8487-41.3166 37.8111-41.3784 37.7462-41.4161C37.654-41.4676 37.5516-41.495 37.4594-41.5602L21.5234-53.0465L28.677-26.5779C32.3341-25.6584 40.9594-23.8744 52.9445-23.8744C65.2029-23.8744 73.7842-25.734 77.2193-26.6329L84.3591-53.0465L68.4231-41.5602C68.3342-41.495 68.2282-41.4676 68.1364-41.4161C68.0747-41.3784 68.0372-41.3166 67.9726-41.2858C67.9143-41.2583 67.853-41.2686 67.7947-41.2446C67.3646-41.0559 66.9175-40.9255 66.4631-40.9255C65.8896-40.9255 65.3326-41.1005 64.8277-41.3853C64.66-41.4779 64.5512-41.6357 64.4005-41.7558C64.1619-41.9479 63.8955-42.092 63.7109-42.3527C63.6428-42.4488 63.6326-42.562 63.5743-42.6615C63.5403-42.7233 63.4683-42.7473 63.4377-42.8125L52.9413-63.9941Z"/>
  </g>
 </g>
</svg>
