<svg width="16" height="16" fill="none" xmlns="http://www.w3.org/2000/svg">
  <path fill-rule="evenodd" clip-rule="evenodd" d="M13.4218 15.9907c-.0153.0013-.0286.0093-.0446.0093H2.6225c-.016 0-.02933-.008-.04466-.0093C1.5165 15.9433.6665 15.072.6665 14V4.66667C.6665 4.298.96517 4 1.33317 4h1.956c.01533 0 .02867.008.044.00867v-3.342C3.33317.298 3.63184 0 3.99984 0H14.6665c.368 0 .6667.298.6667.66667V14c0 1.072-.85 1.9433-1.9114 1.9907zM3.33317 5.32467c-.01533.00066-.02867.00866-.044.00866H1.99984V14c0 .368.29933.6667.66666.6667.36734 0 .66667-.2987.66667-.6667V5.32467zM13.9998 1.33333H4.6665V14c0 .2353-.048.4573-.12266.6667h8.78936c.3673 0 .6666-.2987.6666-.6667V1.33333zm-1.3333 9.99997H5.99984c-.368 0-.66667-.298-.66667-.6666 0-.368.29867-.6667.66667-.6667h6.66666c.368 0 .6667.2987.6667.6667 0 .3686-.2987.6666-.6667.6666zm0-2.66663H5.99984c-.368 0-.66667-.298-.66667-.66667s.29867-.66667.66667-.66667h6.66666c.368 0 .6667.298.6667.66667s-.2987.66667-.6667.66667zM9.99984 5.33333h-4c-.368 0-.66667-.298-.66667-.66666C5.33317 4.298 5.63184 4 5.99984 4h4c.36796 0 .66666.298.66666.66667 0 .36866-.2987.66666-.66666.66666z" fill="#5E6175"/>
</svg>