<svg width="278" height="146" viewBox="0 0 278 146" fill="none" xmlns="http://www.w3.org/2000/svg">
  <g opacity="0.4">
    <path d="M111.861 8.23421C112.042 8.95891 109.671 10.6499 108.463 11.4048C107.105 12.7631 106.425 15.0288 104.84 16.1612C103.255 17.2935 97.14 18.6523 93.9694 20.6906C90.7988 22.7288 90.1194 26.3523 88.3076 26.5788C86.4958 26.8053 85.3635 21.1435 85.8164 16.1612C86.2694 11.1788 84.4576 10.7259 82.8723 8.9141C81.287 7.10234 76.9841 9.36704 74.04 10.2729C71.0959 11.1788 69.5106 9.59351 69.5106 8.68763C69.5106 7.78175 72.2282 6.42244 74.7194 6.64921C77.2106 6.87597 89.6664 4.83744 91.2517 5.9698C92.837 7.10215 97.5929 8.00774 101.443 7.78126C105.293 7.55479 108.463 6.19597 110.049 6.42244C111.634 6.64891 111.634 7.32832 111.861 8.23421Z" fill="#E1E2E8"/>
    <path d="M110.502 17.7465C107.105 17.52 108.463 18.8788 105.746 19.1053C104.84 20.0112 104.161 20.2376 105.293 22.2759C106.425 24.3141 112.766 21.1435 112.993 20.6906C113.219 20.2376 113.899 17.9729 110.502 17.7465Z" fill="#E1E2E8"/>
    <path d="M71.3223 14.5759C77.89 14.5759 77.437 19.1053 76.9841 22.2759C76.3047 22.9553 74.7194 23.8612 73.1341 23.8612C71.5488 23.8612 71.3223 21.5965 68.3782 20.6906C65.4341 19.7847 57.2811 24.0876 54.1106 25.4465C50.94 26.8053 52.2988 28.8435 53.2047 29.7494C54.1106 30.6553 58.187 28.617 57.2811 30.8817C56.3753 33.1465 57.7341 34.9582 59.7723 35.4112C61.8106 35.8641 63.3959 34.7317 64.5282 32.467C65.6606 30.2023 69.0576 24.5406 70.19 24.767C71.3223 24.9935 70.6429 26.8053 71.7753 27.7112C72.9076 28.617 72.9076 26.5788 75.1723 27.0317C77.437 27.4847 76.5312 29.7494 76.3047 30.6553C76.0782 31.5612 79.7017 33.3729 79.2488 34.0523C78.7959 34.7317 78.3429 35.1847 77.89 36.317C77.437 37.4494 80.1547 37.9023 79.7017 38.3553C79.2488 38.8082 78.7959 39.0347 77.2106 39.0347C75.6253 39.0347 74.4929 35.8641 72.2282 36.317C69.9635 36.77 70.8694 38.8082 70.8694 39.9406C70.8694 41.0729 69.9635 41.7523 69.0576 42.4317C68.1517 43.1112 60.2253 46.5082 58.8664 47.867C57.5076 49.2259 57.7341 50.5847 57.0547 51.9435C56.3753 53.3023 55.2429 53.0759 53.6576 53.9817C52.0723 54.8876 52.0723 54.4347 51.8459 57.6053C51.6194 60.7759 50.0341 61.0023 49.3547 61.0023C48.6753 61.0023 46.637 58.5112 43.6929 58.0582C40.7488 57.6053 39.1635 58.5112 37.1253 60.3229C35.087 62.1347 35.087 67.57 39.1635 69.6082C42.4247 71.2388 44.1459 68.9288 44.5988 67.57C45.6557 71.9484 48.63 80.3882 52.0723 79.12C56.3753 77.5347 60.9047 77.0817 63.3959 76.8553C65.887 76.6288 71.7753 81.1582 72.9076 81.6112C74.04 82.0641 76.0782 81.8376 76.3047 82.0641C76.5312 82.2906 76.7576 85.2347 79.2488 88.1788C81.74 91.1229 86.2694 90.217 89.44 91.3494C92.6106 92.4817 92.6106 97.0112 91.4782 99.7288C90.3459 102.446 89.6664 108.335 88.987 110.373C88.3076 112.411 84.4576 114.902 83.0988 115.808C81.74 116.714 80.6076 117.846 80.3811 120.791C80.1547 123.735 77.6635 126.679 75.1723 128.717C72.6811 130.755 72.0017 133.473 71.7753 136.417C71.5488 139.361 75.3988 143.664 74.2664 145.023C73.1341 146.382 68.6047 144.117 65.2076 140.72C61.8106 137.323 61.5841 124.867 61.3576 121.244C61.1311 117.62 60.9047 113.996 59.9988 110.599C59.0929 107.202 55.0164 104.938 52.9782 103.126C50.94 101.314 49.8076 97.917 50.2606 94.067C50.7135 90.217 51.8459 85.9141 50.7135 83.4229C49.5811 80.9317 46.8635 82.2906 44.5988 80.2523C42.3341 78.2141 41.8811 75.4964 38.937 73.9112C35.9929 72.3259 34.1811 73.4582 31.0106 71.8729C27.84 70.2876 28.0664 67.57 26.9341 63.4935C25.8017 59.417 21.0459 56.2464 19.687 54.4347C18.3282 52.6229 17.6488 51.9435 18.3282 46.0553C19.0076 40.167 23.537 38.1288 21.0459 32.6935C18.5547 27.2582 15.6106 29.2965 8.3635 30.6553C1.11644 32.0141 0.43703 29.9759 1.11644 27.9376C1.79585 25.8994 5.87232 25.4465 7.45762 24.0876C9.04291 22.7288 6.55174 19.7847 14.7047 16.8406C22.8576 13.8965 26.4811 17.7465 33.7282 17.9729C40.9753 18.1994 43.0135 16.8406 42.787 15.7082C42.5606 14.5759 44.3723 13.67 47.09 13.67C49.8076 13.67 49.1282 15.2553 50.94 15.2553C52.7517 15.2553 52.5253 14.5759 54.1106 14.3494C55.6959 14.1229 55.0164 15.2553 55.2429 16.1612C55.4694 17.067 55.4694 17.067 60.9047 16.8406C66.34 16.6141 64.7547 14.5759 71.3223 14.5759Z" fill="#E1E2E8"/>
    <path d="M69.2841 11.6317C69.9635 9.81998 67.4723 10.0465 66.34 10.0465C64.9811 10.4994 65.2076 12.7641 66.34 13.67C67.4723 14.5759 68.6047 13.4435 69.2841 11.6317Z" fill="#E1E2E8"/>
    <path d="M62.9429 12.3112C63.8488 11.1788 62.7164 10.2729 61.8106 9.81999C59.5459 9.81999 59.9988 12.3112 59.9988 13.217C59.9988 14.1229 62.037 13.4435 62.9429 12.3112Z" fill="#E1E2E8"/>
    <path d="M59.7723 14.3494C59.5459 13.67 58.4135 13.8965 57.7341 14.1229C56.8282 16.1612 58.64 15.9347 59.5459 15.9347C60.4517 15.9347 59.9988 15.0288 59.7723 14.3494Z" fill="#E1E2E8"/>
    <path d="M56.6017 11.4053C56.1488 11.1788 48.9017 11.1788 48.6753 11.4053C48.4488 12.3112 54.5635 13.217 55.0164 13.217C55.4694 13.217 57.0547 11.6317 56.6017 11.4053Z" fill="#E1E2E8"/>
    <path d="M52.5253 64.6259C51.8459 64.1729 49.3547 64.3994 48.6753 64.6259C47.7694 65.0788 48.2223 65.7582 48.4488 66.2112C48.6753 66.6641 51.8459 65.9847 52.5253 66.2112C53.2047 66.4376 54.337 68.4759 55.0164 68.7023C55.6959 68.9288 55.9223 68.7023 56.1488 67.3435C56.3753 65.9847 53.2047 65.0788 52.5253 64.6259Z" fill="#E1E2E8"/>
    <path d="M64.9811 68.7023C63.1694 68.7023 59.3194 68.0229 58.64 68.0229C57.2811 68.0229 56.6017 69.1553 56.8282 69.8347C57.0547 70.5141 59.0929 69.8347 60.2253 69.6082C61.3576 69.3817 62.037 70.0612 64.0753 70.0612C66.1135 70.0612 66.7929 68.7023 64.9811 68.7023Z" fill="#E1E2E8"/>
    <path d="M148.096 17.067C149.681 16.3876 151.946 12.3112 152.852 11.8582C152.625 13.3681 152.172 16.6597 152.172 17.7468C152.172 19.1056 148.775 20.6906 146.964 20.0115C145.152 19.3324 144.019 16.6144 143.34 16.8409C142.661 17.0674 143.113 17.7465 141.981 19.5585C140.849 21.3706 138.811 20.9174 136.999 20.6906C135.187 20.4638 134.508 17.5203 134.281 15.935C134.055 14.3497 132.016 13.6703 131.111 13.8965C130.205 14.1226 124.316 20.6906 125.675 20.9174C127.034 21.1441 128.846 22.7291 131.564 24.5409C134.281 26.3527 133.828 28.3909 133.375 29.2968C132.922 30.2027 132.922 29.9762 129.978 29.7497C127.034 29.5232 125.222 29.5232 125.449 34.0527C125.675 38.5821 128.619 37.6762 132.016 36.9968C135.413 36.3174 138.131 31.1085 141.075 30.6556C144.019 30.2027 144.699 32.0144 146.964 34.0527C149.228 36.0909 147.19 38.1291 147.643 39.2615C148.096 40.3938 148.096 40.1674 150.361 38.1291C152.625 36.0909 150.587 32.0144 150.814 32.0144C151.04 32.0144 152.172 32.4674 152.852 33.3732C153.531 34.2791 153.305 34.7321 152.852 36.5438C152.399 38.3556 153.984 39.7144 155.569 39.2615C157.155 38.8085 157.608 35.185 157.834 35.6379C158.061 36.0909 158.74 39.035 161.005 40.1674C163.269 41.2997 165.308 40.1674 165.987 41.5262C166.666 42.885 166.44 51.2644 166.893 52.6232C167.346 53.9821 172.781 64.8526 176.631 66.6644C180.481 68.4762 186.596 62.8144 187.955 61.4556C189.314 60.0968 189.766 58.9644 189.766 57.1526C189.766 55.3409 186.596 54.6615 185.011 54.8879C183.425 55.1144 180.934 53.7556 180.255 52.1703C179.575 50.585 180.028 49.4527 180.934 49.9056C181.84 50.3585 186.369 53.0762 189.087 53.7556C191.805 54.435 194.749 53.9821 198.146 55.7938C201.543 57.6056 201.543 60.3232 202.902 66.6644C204.261 73.0056 206.978 76.4026 207.431 76.1762C207.884 75.9497 209.469 73.685 209.922 72.3262C210.375 70.9674 210.149 68.0232 210.602 67.1174C211.055 66.2115 217.396 60.3232 219.208 60.3232C221.019 60.3232 222.152 63.9468 222.831 65.0791C223.511 66.2115 228.493 69.3821 228.493 70.2879C228.493 71.1938 228.719 75.2703 228.493 77.3085C228.266 79.3468 232.796 83.1968 233.475 83.1968C234.155 83.1968 233.928 81.6115 233.702 79.7997C233.475 77.9879 231.663 76.4026 230.984 75.2703C230.305 74.1379 230.078 71.1938 230.984 71.6468C231.89 72.0997 234.834 74.1379 235.966 74.1379C237.099 74.1379 237.552 69.835 235.966 67.7968C234.381 65.7585 234.155 61.4556 234.834 61.9085C235.514 62.3615 240.496 62.5879 243.214 61.4556C245.931 60.3232 245.252 58.5115 245.931 55.7938C246.611 53.0762 244.572 51.4909 242.308 46.9615C240.043 42.4321 243.009 41.9264 245.5 42.1528C247.991 42.3793 248.422 44.1911 248.649 45.5499C248.875 46.9087 249.525 48.5974 250.482 48.2675C251.14 48.0411 253.586 47.946 253.427 46.735C253.358 46.2102 251.329 44.9036 251.14 44.339C250.758 43.198 250.397 42.0969 251.14 41.5262C251.88 40.9573 252.725 40.1674 253.858 37.2232C254.99 34.2791 253.405 31.7879 251.593 29.5232C249.781 27.2585 247.969 27.7115 246.158 26.3527C244.346 24.9938 245.705 23.635 246.837 22.5027C247.743 21.5968 256.726 20.7664 261.105 20.4644C261.256 21.3703 261.558 23.4538 261.558 24.5409C261.558 25.8997 265.634 30.8821 266.087 30.8821C266.54 30.8821 266.54 29.9762 266.766 27.0321C266.993 24.0879 263.822 21.5968 264.502 21.1438C265.181 20.6909 266.993 21.1438 268.805 20.4644C270.616 19.785 268.352 18.1997 269.484 17.2938C270.616 16.3879 273.108 16.6144 273.334 15.7085C273.561 14.8027 268.578 12.9909 263.822 12.3115C259.066 11.6321 247.743 10.7262 245.252 10.7262C242.761 10.7262 237.778 7.5556 234.608 7.32912C231.437 7.10265 228.493 7.32912 222.378 6.87618C216.264 6.42324 201.09 1.44089 197.693 1.44089C194.296 1.44089 190.672 3.93175 187.955 5.29057C185.237 6.6494 178.443 6.64971 174.14 6.87618C169.837 7.10265 165.761 9.59383 163.496 10.2732C161.231 10.9527 160.552 6.87587 159.419 5.29057C158.287 3.70528 155.116 3.93175 151.266 3.93175C147.416 3.93175 140.622 10.4994 139.49 11.8582C138.358 13.217 138.811 14.5759 140.169 14.8023C141.528 15.0288 141.981 13.4435 144.019 13.8965C146.058 14.3494 146.511 17.7465 148.096 17.067Z" fill="#E1E2E8"/>
    <path d="M260.447 33.9999C259.36 31.6446 258.161 33.396 257.255 33.094C256.122 33.7734 256.575 34.0527 257.255 35.6379C257.934 37.2232 257.708 39.7144 257.934 40.6203C258.161 41.5262 259.293 42.2056 259.519 43.3379C259.746 44.4703 259.293 45.3762 258.613 45.3762C257.934 45.3762 257.028 46.5085 256.122 46.735C255.216 46.9615 254.537 48.3203 253.858 49.4527C253.178 50.585 253.858 51.7174 254.99 52.1703C256.122 52.6232 258.161 50.3585 259.293 49.6791C260.425 48.9997 261.331 49.2262 262.237 48.9997C263.143 48.7732 263.143 47.8674 262.916 46.9615C262.69 46.0556 261.558 42.2056 261.558 41.2997C261.558 40.3938 263.143 38.8085 263.369 38.1291C263.596 37.4497 264.049 35.8644 262.916 35.6379C261.784 35.4115 261.806 36.944 260.447 33.9999Z" fill="#E1E2E8"/>
    <path d="M249.102 63.0409C250.687 62.135 249.102 58.0585 248.649 58.0585C247.29 58.0585 246.611 60.3232 246.384 61.0027C246.158 61.6821 247.516 63.9468 249.102 63.0409Z" fill="#E1E2E8"/>
    <path d="M250.687 68.4762C250.234 65.5321 248.875 65.985 248.196 66.2115C247.743 66.3408 247.064 67.3438 247.064 68.4762C247.064 69.6085 249.102 70.7409 249.781 71.1938C250.461 71.6468 249.555 73.0056 249.781 73.9115C250.008 74.8174 251.819 75.4968 250.234 76.8556C248.649 78.2144 249.102 79.7997 249.781 80.2526C250.461 80.7056 250.461 79.3468 251.14 79.5732C251.819 79.7997 251.593 80.4791 252.499 80.9321C253.405 81.385 254.537 81.1585 255.216 79.3468C255.896 77.535 254.764 77.0821 254.311 76.4026C253.858 75.7232 254.537 75.0438 253.858 73.0056C253.178 70.9674 251.14 71.4203 250.687 68.4762Z" fill="#E1E2E8"/>
    <path d="M246.837 83.1968C247.29 82.0644 247.743 79.5732 246.837 78.8938C244.799 78.8938 243.214 82.9703 242.308 83.6497C241.402 84.3291 241.175 83.4232 238.458 86.3674C235.74 89.3115 240.496 90.8968 243.214 91.8027C245.931 92.7085 246.837 89.085 247.29 87.7262C247.743 86.3674 246.384 84.3291 246.837 83.1968Z" fill="#E1E2E8"/>
    <path d="M250.913 85.9144C250.008 86.1409 250.008 85.0085 249.555 84.7821C248.422 84.1026 248.196 85.0085 248.196 85.6879C248.196 86.3674 248.875 89.085 248.196 89.5379C247.516 89.9909 246.611 92.2556 246.837 93.1615C247.064 94.0674 248.649 93.6144 250.234 93.1615C251.819 92.7085 251.14 91.5762 251.14 89.9909C251.14 88.4056 251.366 87.7262 252.725 87.2732C254.084 86.8203 253.858 86.1409 253.631 85.6879C253.405 85.235 251.819 85.6879 250.913 85.9144Z" fill="#E1E2E8"/>
    <path d="M257.028 87.4997C257.934 86.5938 256.802 85.6879 256.575 85.4615C255.669 85.4615 254.99 87.2732 254.99 87.7262C254.99 88.1791 256.122 88.4056 257.028 87.4997Z" fill="#E1E2E8"/>
    <path d="M261.105 90.2174C261.648 88.4056 260.274 87.8017 259.519 87.7262C257.934 88.6321 259.066 89.7644 258.84 90.2174C258.613 90.6703 258.161 90.4438 256.575 90.2174C254.99 89.9909 253.858 90.6703 253.631 91.5762C253.405 92.4821 256.802 92.2556 258.161 92.2556C259.519 92.2556 260.425 92.4821 261.105 90.2174Z" fill="#E1E2E8"/>
    <path d="M268.125 90.2174C267.219 89.7644 264.275 90.4438 263.369 90.6703C262.69 90.8309 262.237 91.5762 262.011 92.2556C261.784 92.935 262.464 93.1615 263.596 93.6144C264.728 94.0674 264.275 95.4262 264.275 96.3321C264.275 97.2379 264.955 97.4644 266.766 97.9174C268.578 98.3703 269.711 97.2379 271.522 97.9174C273.334 98.5968 274.919 101.088 276.731 101.088C278.543 101.088 274.919 97.9174 274.24 97.2379C273.561 96.5585 274.013 96.3321 273.561 94.2938C273.108 92.2556 271.522 93.1615 270.843 92.935C270.164 92.7085 269.031 90.6703 268.125 90.2174Z" fill="#E1E2E8"/>
    <path d="M251.593 98.3703C252.725 97.9174 254.084 96.785 254.084 96.3321C254.084 95.4262 252.952 95.8791 252.272 96.1056C251.593 96.3321 249.781 96.3321 248.196 96.1056C246.611 95.8791 245.478 95.6526 244.799 96.3321C244.119 97.0115 247.743 98.8232 249.555 99.5026C251.366 100.182 250.461 98.8232 251.593 98.3703Z" fill="#E1E2E8"/>
    <path d="M238.458 93.3879C242.081 94.9732 243.214 96.1056 243.214 96.3321C242.534 97.0115 240.722 96.1056 238.231 95.6526C235.74 95.1997 233.928 93.8409 232.569 92.2556C231.211 90.6703 228.946 87.7262 227.361 84.7821C225.775 81.8379 226.228 80.9321 227.361 80.7056C228.493 80.4791 229.399 83.1968 230.305 84.5556C231.211 85.9144 232.796 86.1409 233.702 87.2732C234.608 88.4056 233.702 89.085 233.928 90.4438C234.155 91.8027 234.834 91.8027 238.458 93.3879Z" fill="#E1E2E8"/>
    <path d="M212.413 76.1762C212.866 74.3644 212.187 73.9115 211.508 73.4585C209.922 73.9115 209.469 76.4026 209.469 77.535C209.469 78.6674 210.149 78.4409 211.281 78.6674C212.413 78.8938 211.961 77.9879 212.413 76.1762Z" fill="#E1E2E8"/>
    <path d="M273.561 116.941C274.013 111.732 269.031 101.767 269.031 100.635C268.05 103.202 265.589 108.244 263.596 107.882C261.105 107.429 258.84 101.088 257.028 101.088C255.216 101.088 254.084 103.806 252.725 104.259C251.366 104.711 249.781 103.579 248.649 104.259C247.516 104.938 247.064 107.882 245.931 108.788C244.799 109.694 240.496 109.467 237.778 112.411C235.061 115.356 233.475 126.226 234.834 126.226C236.193 126.226 246.384 121.244 251.593 123.735C256.802 126.226 252.272 126.679 258.161 131.209C264.049 135.738 273.108 122.15 273.561 116.941Z" fill="#E1E2E8"/>
    <path d="M174.14 0.761478C176.405 -0.597345 180.708 0.308537 180.934 0.535007C180.481 1.44058 178.216 1.66767 175.952 2.57355C173.687 3.47943 174.593 5.29057 174.14 5.51767C173.687 5.74477 173.008 5.29057 172.555 4.83826C172.102 4.38594 170.969 4.38532 170.29 3.93175C169.611 3.47867 171.87 2.12324 174.133 0.765889L174.14 0.761478Z" fill="#E1E2E8"/>
    <path d="M159.193 42.8853C160.325 41.5265 157.608 40.1674 156.702 40.1674C156.022 40.1674 155.569 40.8471 155.569 41.753C155.569 42.6588 158.061 44.2441 159.193 42.8853Z" fill="#E1E2E8"/>
    <path d="M180.255 76.1762C183.199 72.5527 180.934 70.2879 180.934 69.6088C180.683 68.9294 177.084 70.2883 173.687 69.6088C170.29 68.9294 170.743 66.6644 168.931 63.7206C167.119 60.7768 164.855 49.9056 162.137 47.1883C159.419 44.4709 155.569 45.15 153.984 45.3765C152.399 45.603 151.266 47.4147 148.775 47.6412C146.284 47.8677 145.152 44.6971 144.925 42.8853C144.699 41.0736 144.699 39.0353 142.661 37.45C140.622 35.8647 137.452 38.1291 133.602 39.0353C129.752 39.9415 130.658 39.2615 128.166 40.1674C125.675 41.0732 123.864 44.9235 122.278 46.2824C120.693 47.6412 119.334 46.9618 117.749 48.7735C116.163 50.5853 115.258 56.2471 116.163 63.7206C117.069 71.1941 121.599 73.0059 127.034 73.4585C132.469 73.9112 132.922 70.7412 134.508 70.9677C136.093 71.1941 137.452 73.4585 138.811 73.4585C140.169 73.4585 139.943 73.4585 141.075 74.1383C142.208 74.818 141.302 78.8941 141.755 80.4794C142.208 82.0647 142.208 82.0647 143.34 83.8765C144.472 85.6883 144.019 89.7647 143.566 91.5765C143.113 93.3883 141.075 99.7294 142.208 101.315C143.34 102.9 145.605 111.732 146.058 114.45C146.511 117.168 145.378 118.074 149.455 120.791C153.531 123.509 163.722 109.921 164.402 108.562C165.081 107.203 163.722 106.297 164.402 104.032C165.081 101.768 168.705 99.2765 168.931 97.9177C169.158 96.5588 168.931 91.5765 170.064 87.953C171.196 84.3294 177.311 79.7997 180.255 76.1762Z" fill="#E1E2E8"/>
  </g>
  <circle cx="138.5" cy="65.5" r="11.5" fill="white"/>
  <path fill-rule="evenodd" clip-rule="evenodd" d="M140.664 102.717C140.186 103.126 139.593 103.333 139 103.333C138.407 103.333 137.814 103.126 137.336 102.717C136.465 101.969 116 84.1769 116 65.1099C116 52.3679 126.317 42 139 42C151.683 42 162 52.3679 162 65.1099C162 84.1769 141.535 101.969 140.664 102.717ZM139 75.4101C133.363 75.4101 128.778 70.8255 128.778 65.1879C128.778 59.5529 133.363 54.9657 139 54.9657C144.638 54.9657 149.222 59.5529 149.222 65.1879C149.222 70.8255 144.638 75.4101 139 75.4101Z" fill="#5D65D3"/>
</svg>
