<svg fill="none" xmlns="http://www.w3.org/2000/svg" viewBox="0 0 116 194">
  <g opacity=".798" stroke="#4C54D2" stroke-width="1.25" stroke-linecap="round">
    <g opacity=".371">
      <path opacity=".261" d="M16.63 18.593c.52 0 1.04.258 1.328.775L25.062 32.1l7.186 12.88c.28.499.237 1.056-.02 1.488M32.23 46.468c-.257.433-.73.743-1.308.743H2.342c-.58 0-1.054-.31-1.31-.743M16.63 18.593c-.519 0-1.038.258-1.326.775L8.2 32.1 1.013 44.98c-.28.499-.236 1.056.02 1.488M16.63 29.786l-3.333 5.57-3.27 4.669M22.218 40.025l-2.794-5.12-2.793-5.12M21.964 40.402H10.631"/>
    </g>
    <g opacity=".417">
      <path opacity=".261" d="M52.976 42.305c.626.507 1.004 1.319.854 2.213l-3.663 22.018-3.705 22.272a2.217 2.217 0 01-1.452 1.744"/>
      <path opacity=".261" d="M45.767 90.51c-.847.405-1.81.405-2.518-.169L25.722 76.148 8.196 61.956c-.71-.576-.91-1.517-.692-2.43"/>
      <path opacity=".261" d="M52.976 42.305c-.626-.507-1.499-.708-2.343-.376L29.86 50.09 8.844 58.346a2.217 2.217 0 00-1.404 1.783M42.182 55.635l-9.268 3.458-8.323 2.449"/>
      <path opacity=".261" d="M38.87 73.106l1.656-8.736 1.656-8.735M38.56 73.093l-6.868-5.56-6.866-5.561"/>
    </g>
    <g opacity=".496">
      <path opacity=".261" d="M38.64 111.553c1.02-.826 2.448-1.15 3.83-.6l34.055 13.511 34.446 13.667c1.339.526 2.131 1.682 2.31 2.932"/>
      <path opacity=".261" d="M112.933 140.178c.369 1.494.055 3.03-1.092 3.958l-28.37 22.974-28.37 22.974c-1.15.931-2.718.919-4.103.248"/>
      <path opacity=".261" d="M38.64 111.553c-1.022.827-1.636 2.157-1.385 3.623l6.136 36.119 6.206 36.536c.237 1.419 1.203 2.434 2.387 2.869M56.39 133.475l4.449 30.873M84.575 144.812l-14.148-5.757-14.145-5.759M84.505 145.184l-11.833 9.582-11.833 9.582"/>
    </g>
    <g opacity=".394">
      <path opacity=".261" d="M37.636 8.138c.41-.227.932-.254 1.383.022l11.095 6.78L61.337 21.8c.437.265.642.717.625 1.164"/>
      <path opacity=".261" d="M62.13 22.87c.037.544-.166 1.06-.62 1.312l-11.264 6.243-11.264 6.244c-.456.253-1 .151-1.441-.168M37.636 8.138a1.36 1.36 0 00-.715 1.184l-.129 13.002-.13 13.153c-.008.51.267.924.656 1.147M42.48 16.877l-.156 5.76-.496 5.03M51.196 22.475l-4.359-2.799-4.357-2.8M51.913 23.07l-4.832 2.679-4.832 2.678"/>
    </g>
  </g>
</svg>
