<svg width="171" height="144" viewBox="0 0 171 144" fill="none" xmlns="http://www.w3.org/2000/svg">
  <g opacity="0.5" filter="url(#filter0_f_733_75552)">
    <ellipse cx="88.7069" cy="128.134" rx="35.6776" ry="7.39728" fill="#111217"/>
  </g>
  <path d="M87.7485 59.7382H66.2231C63.8101 59.7382 61.496 58.7886 59.7898 57.0984C58.0835 55.4082 57.125 53.1158 57.125 50.7255C57.125 48.3352 58.0835 46.0428 59.7898 44.3526C61.496 42.6624 63.8101 41.7129 66.2231 41.7129C71.242 41.7129 87.7485 59.7382 87.7485 59.7382Z" fill="#8389DF"/>
  <path d="M95.2461 59.7382H116.792C117.986 59.7382 119.169 59.5051 120.273 59.0521C121.377 58.5992 122.38 57.9353 123.225 57.0984C124.07 56.2615 124.74 55.268 125.197 54.1745C125.654 53.0811 125.89 51.9091 125.89 50.7255C125.89 49.542 125.654 48.37 125.197 47.2765C124.74 46.1831 124.07 45.1895 123.225 44.3526C122.38 43.5157 121.377 42.8519 120.273 42.3989C119.169 41.946 117.986 41.7129 116.792 41.7129C111.743 41.7129 95.2461 59.7382 95.2461 59.7382Z" fill="#8389DF"/>
  <ellipse cx="30.7825" cy="5.09805" rx="30.7825" ry="5.09805" transform="matrix(0.968014 -0.250896 0.255367 0.966844 60.6309 109.18)" fill="#545A71"/>
  <g clip-path="url(#clip0_733_75552)">
    <path d="M90.4359 114.662C102.056 114.662 111.475 105.331 111.475 93.8203C111.475 82.3097 102.056 72.9785 90.4359 72.9785C78.8161 72.9785 69.3965 82.3097 69.3965 93.8203C69.3965 105.331 78.8161 114.662 90.4359 114.662Z" fill="#4C53AD"/>
    <path fill-rule="evenodd" clip-rule="evenodd" d="M78.2056 102.897L85.4457 98.6832L90.437 90.0179V81.6631C90.3054 81.6631 90.1737 81.75 90.0738 81.923L84.1614 92.1875L78.2495 102.452C78.1498 102.625 78.1404 102.782 78.2056 102.897" fill="#DB2F04"/>
    <path fill-rule="evenodd" clip-rule="evenodd" d="M90.4375 81.6631V90.0179L95.4286 98.6832L102.669 102.897C102.734 102.782 102.725 102.625 102.625 102.452L96.7129 92.1875L90.8005 81.923C90.7006 81.7498 90.5689 81.6631 90.4375 81.6631" fill="#8784F4"/>
    <path fill-rule="evenodd" clip-rule="evenodd" d="M102.668 102.897L95.4276 98.6836H85.4452L78.2051 102.897C78.2703 103.012 78.4107 103.083 78.6105 103.083H102.262C102.462 103.083 102.602 103.012 102.668 102.897" fill="#8784F4"/>
    <path fill-rule="evenodd" clip-rule="evenodd" d="M85.4453 98.6829H95.4278L90.4367 90.0176L85.4453 98.6829Z" fill="white"/>
  </g>
  <g clip-path="url(#clip1_733_75552)">
    <path d="M90.4359 114.662C102.056 114.662 111.475 105.331 111.475 93.8203C111.475 82.3097 102.056 72.9785 90.4359 72.9785C78.8161 72.9785 69.3965 82.3097 69.3965 93.8203C69.3965 105.331 78.8161 114.662 90.4359 114.662Z" fill="#F2F4F7"/>
    <path fill-rule="evenodd" clip-rule="evenodd" d="M78.2056 102.897L85.4457 98.6832L90.437 90.0179V81.6631C90.3054 81.6631 90.1737 81.75 90.0738 81.923L84.1614 92.1875L78.2495 102.452C78.1498 102.625 78.1404 102.782 78.2056 102.897" fill="#DB2F04"/>
    <path fill-rule="evenodd" clip-rule="evenodd" d="M90.4375 81.6631V90.0179L95.4286 98.6832L102.669 102.897C102.734 102.782 102.725 102.625 102.625 102.452L96.7129 92.1875L90.8005 81.923C90.7006 81.7498 90.5689 81.6631 90.4375 81.6631" fill="#662D91"/>
    <path fill-rule="evenodd" clip-rule="evenodd" d="M102.668 102.897L95.4276 98.6836H85.4452L78.2051 102.897C78.2703 103.012 78.4107 103.083 78.6105 103.083H102.262C102.462 103.083 102.602 103.012 102.668 102.897" fill="#662D91"/>
    <path fill-rule="evenodd" clip-rule="evenodd" d="M85.4453 98.6829H95.4278L90.4367 90.0176L85.4453 98.6829Z" fill="white"/>
  </g>
  <path fill-rule="evenodd" clip-rule="evenodd" d="M62.0273 114.412L63.0621 122.612C63.2068 123.758 64.1817 124.618 65.337 124.618H116.912C118.088 124.618 119.073 123.729 119.193 122.559L121.612 99L121.497 99.0294C121.095 101.869 108.733 107.233 92.9817 111.315C77.1724 115.412 63.7007 116.728 62.0273 114.412Z" fill="#262A33"/>
  <path d="M123.75 61.8945V65.2565C123.75 66.0588 123.329 66.8061 122.637 67.213C99.0886 81.0733 73.7121 83.6401 62.1058 83.1634C60.9939 83.1178 60.118 82.2408 60.0145 81.1328L58.2362 62.1079C58.1105 60.7631 59.1686 59.6016 60.5192 59.6016H121.457C122.723 59.6016 123.75 60.6281 123.75 61.8945Z" fill="#262A33"/>
  <path d="M82.9863 81.516V59.6016H98.7668V77.7446L92.1916 79.5749L90.4382 80.0092C87.3569 80.7456 90.4382 80.0092 82.9863 81.516Z" fill="#8389DF"/>
  <path d="M83.4238 113.445V124.3H99.2043V109.537L89.5607 112.068C89.5607 112.068 89.7026 112.03 83.4238 113.445Z" fill="#8389DF"/>
  <g filter="url(#filter1_d_733_75552)">
    <g filter="url(#filter2_bd_733_75552)">
      <rect width="33.9585" height="33.9585" rx="16.9793" transform="matrix(0.943891 -0.330257 0.33651 0.94168 10.5 56.7725)" fill="#D292FD"/>
      <path fill-rule="evenodd" clip-rule="evenodd" d="M20.8318 63.7513C20.4814 62.7706 20.9941 61.6968 21.9771 61.3528L32.379 57.7133C33.362 57.3694 34.443 57.8856 34.7934 58.8663L35.395 60.5497L37.7759 59.7167C38.7589 59.3728 39.8399 59.8889 40.1903 60.8696L43.2806 69.5176C43.8359 71.0714 43.0234 72.7728 41.466 73.3177L28.9837 77.6851C27.4263 78.2301 25.7136 77.4122 25.1583 75.8584L20.8318 63.7513ZM38.457 72.7101L28.4563 76.2092C27.7159 76.4683 26.9016 76.0795 26.6377 75.3408L22.3112 63.2337C22.252 63.0681 22.3386 62.8868 22.5046 62.8287L32.9064 59.1892C33.0724 59.1312 33.2549 59.2183 33.314 59.3839L37.6405 71.491C37.8135 71.9751 38.0989 72.3878 38.457 72.7101ZM40.9386 71.8418C41.679 71.5827 42.0652 70.7739 41.8013 70.0352L38.7109 61.3873C38.6518 61.2217 38.4693 61.1345 38.3033 61.1926L35.9224 62.0256L39.1199 70.9734C39.3839 71.7121 40.1981 72.1009 40.9386 71.8418ZM24.4709 65.2022C24.3253 64.7946 24.5384 64.3483 24.9469 64.2054L27.7207 63.2349C28.1293 63.0919 28.5785 63.3065 28.7241 63.714L29.7131 66.4814C29.8587 66.8889 29.6456 67.3352 29.2371 67.4781L26.4632 68.4487C26.0547 68.5916 25.6055 68.3771 25.4598 67.9695L24.4709 65.2022ZM26.214 65.4225L26.6755 66.7139L27.97 66.261L27.5085 64.9696L26.214 65.4225ZM30.0186 63.2611C29.873 62.8535 30.0861 62.4073 30.4946 62.2643L31.8815 61.7791C32.29 61.6361 32.7392 61.8507 32.8849 62.2582C33.0305 62.6658 32.8174 63.1121 32.4089 63.255L31.022 63.7403C30.6135 63.8832 30.1642 63.6687 30.0186 63.2611ZM31.0075 66.0284C30.8619 65.6209 31.075 65.1746 31.4835 65.0317L32.8704 64.5464C33.2789 64.4035 33.7282 64.618 33.8738 65.0256C34.0194 65.4331 33.8063 65.8794 33.3978 66.0223L32.0109 66.5076C31.6024 66.6505 31.1531 66.436 31.0075 66.0284ZM26.4488 70.7368C26.3031 70.3293 26.5162 69.883 26.9247 69.7401L33.8593 67.3137C34.2678 67.1708 34.7171 67.3853 34.8627 67.7929C35.0083 68.2004 34.7952 68.6467 34.3867 68.7897L27.4522 71.216C27.0436 71.3589 26.5944 71.1444 26.4488 70.7368ZM27.4377 73.5042C27.292 73.0966 27.5051 72.6503 27.9136 72.5074L34.8482 70.0811C35.2567 69.9381 35.706 70.1527 35.8516 70.5602C35.9973 70.9678 35.7842 71.414 35.3756 71.557L28.4411 73.9833C28.0325 74.1263 27.5833 73.9117 27.4377 73.5042Z" fill="#A981BF"/>
    </g>
    <g filter="url(#filter3_bd_733_75552)">
      <rect x="63.7305" y="10.248" width="27.8389" height="27.8389" rx="13.9195" fill="#85CCFF"/>
      <path fill-rule="evenodd" clip-rule="evenodd" d="M84.5223 30.5916H70.7808C70.1417 30.5916 69.6211 30.0663 69.6211 29.4205V27.2456C69.6211 26.8755 69.9209 26.5764 70.2903 26.5764V19.6989C70.2903 19.0632 70.8216 18.5459 71.4748 18.5459H83.829C84.4815 18.5459 85.0128 19.0632 85.0128 19.6989V26.5764C85.3822 26.5764 85.682 26.8755 85.682 27.2456V29.4205C85.682 30.0663 85.1614 30.5916 84.5223 30.5916ZM83.6744 19.8843H71.6287V26.5764H75.6881C76.0582 26.5764 76.3573 26.8755 76.3573 27.2456H78.9458C78.9458 26.8755 79.2449 26.5764 79.615 26.5764H83.6744V19.8843ZM84.3436 27.9148H80.3284C80.3284 28.2848 80.0286 28.584 79.6592 28.584H75.6439C75.2745 28.584 74.9747 28.2848 74.9747 27.9148H70.9595V29.2532H84.3436V27.9148Z" fill="#2795EF"/>
    </g>
    <g filter="url(#filter4_bd_733_75552)">
      <rect width="33.8396" height="33.8396" rx="16.9198" transform="matrix(0.995634 0.0933435 -0.0951057 0.995467 126.811 34.6992)" fill="#FFBEDF"/>
      <path fill-rule="evenodd" clip-rule="evenodd" d="M141.517 43.2665C136.956 42.8389 132.905 46.1894 132.469 50.7501C132.033 55.3109 135.378 59.3548 139.939 59.7824C142.139 59.9886 144.219 59.3165 145.833 58.0538L149.606 62.6153C149.881 62.9473 150.373 62.9935 150.706 62.7184C151.038 62.4433 151.085 61.9511 150.811 61.619L146.972 56.9771C148.08 55.7117 148.815 54.0996 148.988 52.2988C149.423 47.7381 146.079 43.6942 141.517 43.2665ZM134.024 50.8959C134.378 47.1939 137.666 44.4741 141.369 44.8213C145.071 45.1684 147.786 48.451 147.433 52.153C147.079 55.8551 143.79 58.5748 140.088 58.2277C136.385 57.8806 133.67 54.598 134.024 50.8959Z" fill="#E85FA9"/>
    </g>
  </g>
  <path d="M128.352 13.9269C129.436 12.8435 129.679 10.248 129.679 10.248C129.679 10.248 130.113 12.8641 131.27 13.9269C132.328 14.8987 134.719 15.2407 134.719 15.2407C134.719 15.2407 132.312 15.971 131.27 17.0801C130.26 18.1557 129.679 20.4962 129.679 20.4962C129.679 20.4962 129.103 18.151 128.087 17.0801C126.977 15.9094 124.373 15.2407 124.373 15.2407C124.373 15.2407 127.199 15.0792 128.352 13.9269Z" fill="#AF1769"/>
  <path d="M44.1757 38.5699C45.1395 37.6068 45.3548 35.2998 45.3548 35.2998C45.3548 35.2998 45.7411 37.6252 46.7696 38.5699C47.7101 39.4337 49.835 39.7378 49.835 39.7378C49.835 39.7378 47.6959 40.3869 46.7696 41.3728C45.8713 42.3288 45.3548 44.4093 45.3548 44.4093C45.3548 44.4093 44.8427 42.3247 43.9399 41.3728C42.953 40.3322 40.6387 39.7378 40.6387 39.7378C40.6387 39.7378 43.1507 39.5941 44.1757 38.5699Z" fill="#AF1769"/>
  <path d="M109.784 2.45255C110.506 1.73027 110.668 0 110.668 0C110.668 0 110.958 1.74403 111.729 2.45255C112.434 3.10045 114.028 3.32846 114.028 3.32846C114.028 3.32846 112.424 3.81531 111.729 4.55473C111.055 5.27177 110.668 6.8321 110.668 6.8321C110.668 6.8321 110.284 5.26866 109.607 4.55473C108.867 3.77426 107.131 3.32846 107.131 3.32846C107.131 3.32846 109.015 3.22076 109.784 2.45255Z" fill="#0C5FA3"/>
  <path d="M132.508 76.0575C133.11 75.4556 133.244 74.0137 133.244 74.0137C133.244 74.0137 133.486 75.467 134.129 76.0575C134.717 76.5974 136.045 76.7874 136.045 76.7874C136.045 76.7874 134.708 77.1931 134.129 77.8093C133.567 78.4068 133.244 79.7071 133.244 79.7071C133.244 79.7071 132.924 78.4042 132.36 77.8093C131.743 77.1589 130.297 76.7874 130.297 76.7874C130.297 76.7874 131.867 76.6976 132.508 76.0575Z" fill="#0C5FA3"/>
  <path d="M28.5243 24.2625C29.97 22.818 30.2929 19.3574 30.2929 19.3574C30.2929 19.3574 30.8724 22.8455 32.4151 24.2625C33.8259 25.5583 37.0133 26.0143 37.0133 26.0143C37.0133 26.0143 33.8045 26.988 32.4151 28.4669C31.0677 29.901 30.2929 33.0216 30.2929 33.0216C30.2929 33.0216 29.5247 29.8947 28.1706 28.4669C26.6903 26.9059 23.2188 26.0143 23.2188 26.0143C23.2188 26.0143 26.9867 25.7989 28.5243 24.2625Z" fill="#0C5FA3"/>
  <defs>
    <filter id="filter0_f_733_75552" x="48.3895" y="116.097" width="80.6351" height="24.0746" filterUnits="userSpaceOnUse" color-interpolation-filters="sRGB">
      <feFlood flood-opacity="0" result="BackgroundImageFix"/>
      <feBlend mode="normal" in="SourceGraphic" in2="BackgroundImageFix" result="shape"/>
      <feGaussianBlur stdDeviation="2.31991" result="effect1_foregroundBlur_733_75552"/>
    </filter>
    <filter id="filter1_d_733_75552" x="0.0604048" y="3.28832" width="170.881" height="99.3821" filterUnits="userSpaceOnUse" color-interpolation-filters="sRGB">
      <feFlood flood-opacity="0" result="BackgroundImageFix"/>
      <feColorMatrix in="SourceAlpha" type="matrix" values="0 0 0 0 0 0 0 0 0 0 0 0 0 0 0 0 0 0 127 0" result="hardAlpha"/>
      <feMorphology radius="1.15996" operator="erode" in="SourceAlpha" result="effect1_dropShadow_733_75552"/>
      <feOffset dy="3.47987"/>
      <feGaussianBlur stdDeviation="5.79978"/>
      <feComposite in2="hardAlpha" operator="out"/>
      <feColorMatrix type="matrix" values="0 0 0 0 0 0 0 0 0 0 0 0 0 0 0 0 0 0 0.06 0"/>
      <feBlend mode="multiply" in2="BackgroundImageFix" result="effect1_dropShadow_733_75552"/>
      <feBlend mode="normal" in="SourceGraphic" in2="effect1_dropShadow_733_75552" result="shape"/>
    </filter>
    <filter id="filter2_bd_733_75552" x="3.75064" y="38.8083" width="56.9792" height="59.2224" filterUnits="userSpaceOnUse" color-interpolation-filters="sRGB">
      <feFlood flood-opacity="0" result="BackgroundImageFix"/>
      <feGaussianBlur in="BackgroundImageFix" stdDeviation="3.37468"/>
      <feComposite in2="SourceAlpha" operator="in" result="effect1_backgroundBlur_733_75552"/>
      <feColorMatrix in="SourceAlpha" type="matrix" values="0 0 0 0 0 0 0 0 0 0 0 0 0 0 0 0 0 0 127 0" result="hardAlpha"/>
      <feOffset dy="4.63982"/>
      <feGaussianBlur stdDeviation="2.31991"/>
      <feComposite in2="hardAlpha" operator="out"/>
      <feColorMatrix type="matrix" values="0 0 0 0 0 0 0 0 0 0 0 0 0 0 0 0 0 0 0.12 0"/>
      <feBlend mode="normal" in2="effect1_backgroundBlur_733_75552" result="effect2_dropShadow_733_75552"/>
      <feBlend mode="normal" in="SourceGraphic" in2="effect2_dropShadow_733_75552" result="shape"/>
    </filter>
    <filter id="filter3_bd_733_75552" x="56.9811" y="3.49868" width="41.3386" height="43.8679" filterUnits="userSpaceOnUse" color-interpolation-filters="sRGB">
      <feFlood flood-opacity="0" result="BackgroundImageFix"/>
      <feGaussianBlur in="BackgroundImageFix" stdDeviation="3.37468"/>
      <feComposite in2="SourceAlpha" operator="in" result="effect1_backgroundBlur_733_75552"/>
      <feColorMatrix in="SourceAlpha" type="matrix" values="0 0 0 0 0 0 0 0 0 0 0 0 0 0 0 0 0 0 127 0" result="hardAlpha"/>
      <feOffset dy="4.63982"/>
      <feGaussianBlur stdDeviation="2.31991"/>
      <feComposite in2="hardAlpha" operator="out"/>
      <feColorMatrix type="matrix" values="0 0 0 0 0 0 0 0 0 0 0 0 0 0 0 0 0 0 0.12 0"/>
      <feBlend mode="normal" in2="effect1_backgroundBlur_733_75552" result="effect2_dropShadow_733_75552"/>
      <feBlend mode="normal" in="SourceGraphic" in2="effect2_dropShadow_733_75552" result="shape"/>
    </filter>
    <filter id="filter4_bd_733_75552" x="116.842" y="27.9499" width="50.4089" height="52.8737" filterUnits="userSpaceOnUse" color-interpolation-filters="sRGB">
      <feFlood flood-opacity="0" result="BackgroundImageFix"/>
      <feGaussianBlur in="BackgroundImageFix" stdDeviation="3.37468"/>
      <feComposite in2="SourceAlpha" operator="in" result="effect1_backgroundBlur_733_75552"/>
      <feColorMatrix in="SourceAlpha" type="matrix" values="0 0 0 0 0 0 0 0 0 0 0 0 0 0 0 0 0 0 127 0" result="hardAlpha"/>
      <feOffset dy="4.63982"/>
      <feGaussianBlur stdDeviation="2.31991"/>
      <feComposite in2="hardAlpha" operator="out"/>
      <feColorMatrix type="matrix" values="0 0 0 0 0 0 0 0 0 0 0 0 0 0 0 0 0 0 0.12 0"/>
      <feBlend mode="normal" in2="effect1_backgroundBlur_733_75552" result="effect2_dropShadow_733_75552"/>
      <feBlend mode="normal" in="SourceGraphic" in2="effect2_dropShadow_733_75552" result="shape"/>
    </filter>
    <clipPath id="clip0_733_75552">
      <rect width="42.0787" height="41.6836" fill="white" transform="translate(69.3965 72.9785)"/>
    </clipPath>
    <clipPath id="clip1_733_75552">
      <rect width="42.0787" height="41.6836" fill="white" transform="translate(69.3965 72.9785)"/>
    </clipPath>
  </defs>
</svg>
