<svg width="171" height="144" viewBox="0 0 171 144" fill="none" xmlns="http://www.w3.org/2000/svg">
  <g opacity="0.5" filter="url(#filter0_f_306_51957)">
    <ellipse cx="88.7063" cy="128.134" rx="35.6776" ry="7.39728" fill="#E1E2E8"/>
  </g>
  <path d="M87.7471 59.7382H66.2217C63.8087 59.7382 61.4946 58.7886 59.7884 57.0984C58.0821 55.4082 57.1236 53.1158 57.1236 50.7255C57.1236 48.3352 58.0821 46.0428 59.7884 44.3526C61.4946 42.6624 63.8087 41.7129 66.2217 41.7129C71.2406 41.7129 87.7471 59.7382 87.7471 59.7382Z" fill="#5D65D3"/>
  <path d="M95.2445 59.7382H116.79C117.985 59.7382 119.168 59.5051 120.272 59.0521C121.375 58.5992 122.378 57.9353 123.223 57.0984C124.068 56.2615 124.738 55.268 125.195 54.1745C125.653 53.0811 125.888 51.9091 125.888 50.7255C125.888 49.542 125.653 48.37 125.195 47.2765C124.738 46.1831 124.068 45.1895 123.223 44.3526C122.378 43.5157 121.375 42.8519 120.272 42.3989C119.168 41.946 117.985 41.7129 116.79 41.7129C111.741 41.7129 95.2445 59.7382 95.2445 59.7382Z" fill="#5D65D3"/>
  <ellipse cx="30.7825" cy="5.09805" rx="30.7825" ry="5.09805" transform="matrix(0.968014 -0.250896 0.255367 0.966844 60.6305 109.18)" fill="#A8ADBF"/>
  <g clip-path="url(#clip0_306_51957)">
    <path d="M90.4356 114.662C102.055 114.662 111.475 105.331 111.475 93.8203C111.475 82.3097 102.055 72.9785 90.4356 72.9785C78.8159 72.9785 69.3962 82.3097 69.3962 93.8203C69.3962 105.331 78.8159 114.662 90.4356 114.662Z" fill="#A6ABE8"/>
    <path fill-rule="evenodd" clip-rule="evenodd" d="M78.2041 102.897L85.4442 98.6832L90.4356 90.0179V81.6631C90.3039 81.6631 90.1723 81.75 90.0724 81.923L84.1599 92.1875L78.248 102.452C78.1483 102.625 78.1389 102.782 78.2041 102.897Z" fill="#DB2F04"/>
    <path fill-rule="evenodd" clip-rule="evenodd" d="M90.4355 81.6631V90.0179L95.4266 98.6832L102.667 102.897C102.732 102.782 102.723 102.625 102.623 102.452L96.7108 92.1875L90.7984 81.923C90.6985 81.7498 90.5669 81.6631 90.4355 81.6631Z" fill="#8784F4"/>
    <path fill-rule="evenodd" clip-rule="evenodd" d="M102.667 102.897L95.4269 98.6836H85.4444L78.2043 102.897C78.2695 103.012 78.4099 103.083 78.6097 103.083H102.261C102.461 103.083 102.602 103.012 102.667 102.897Z" fill="#8784F4"/>
    <path fill-rule="evenodd" clip-rule="evenodd" d="M85.4444 98.6829H95.4269L90.4358 90.0176L85.4444 98.6829Z" fill="white"/>
  </g>
  <g clip-path="url(#clip1_306_51957)">
    <path d="M90.4356 114.662C102.055 114.662 111.475 105.331 111.475 93.8203C111.475 82.3097 102.055 72.9785 90.4356 72.9785C78.8159 72.9785 69.3962 82.3097 69.3962 93.8203C69.3962 105.331 78.8159 114.662 90.4356 114.662Z" fill="#F2F4F7"/>
    <path fill-rule="evenodd" clip-rule="evenodd" d="M78.2041 102.897L85.4442 98.6832L90.4356 90.0179V81.6631C90.3039 81.6631 90.1723 81.75 90.0724 81.923L84.1599 92.1875L78.248 102.452C78.1483 102.625 78.1389 102.782 78.2041 102.897Z" fill="#DB2F04"/>
    <path fill-rule="evenodd" clip-rule="evenodd" d="M90.4355 81.6631V90.0179L95.4266 98.6832L102.667 102.897C102.732 102.782 102.723 102.625 102.623 102.452L96.7108 92.1875L90.7984 81.923C90.6985 81.7498 90.5669 81.6631 90.4355 81.6631Z" fill="#662D91"/>
    <path fill-rule="evenodd" clip-rule="evenodd" d="M102.667 102.897L95.4269 98.6836H85.4444L78.2043 102.897C78.2695 103.012 78.4099 103.083 78.6097 103.083H102.261C102.461 103.083 102.602 103.012 102.667 102.897Z" fill="#662D91"/>
    <path fill-rule="evenodd" clip-rule="evenodd" d="M85.4444 98.6829H95.4269L90.4358 90.0176L85.4444 98.6829Z" fill="white"/>
  </g>
  <path fill-rule="evenodd" clip-rule="evenodd" d="M61.9446 114.277L62.9559 122.292C63.1006 123.438 64.0755 124.298 65.2308 124.298H116.806C117.982 124.298 118.967 123.408 119.087 122.239L121.449 99.2289C120.525 102.114 108.37 107.326 92.9808 111.315C76.874 115.489 63.1936 116.776 61.9446 114.277ZM121.497 98.7634L121.506 98.6797L121.482 98.6856C121.488 98.7113 121.493 98.7372 121.497 98.7634Z" fill="#E1E2E8"/>
  <path d="M123.748 61.8945V65.2565C123.748 66.0588 123.327 66.8061 122.636 67.213C99.0868 81.0733 73.7103 83.6401 62.104 83.1634C60.9921 83.1178 60.1162 82.2408 60.0127 81.1328L58.2344 62.1079C58.1087 60.7631 59.1668 59.6016 60.5174 59.6016H121.455C122.722 59.6016 123.748 60.6281 123.748 61.8945Z" fill="#E1E2E8"/>
  <path d="M82.9848 81.516V59.6016H98.7652V77.7446L92.1901 79.5749L90.4367 80.0092C87.3554 80.7456 90.4367 80.0092 82.9848 81.516Z" fill="#5D65D3"/>
  <path d="M83.4229 113.445V124.3H99.2033V109.537L89.5597 112.068C89.5597 112.068 89.7016 112.03 83.4229 113.445Z" fill="#5D65D3"/>
  <g filter="url(#filter1_d_306_51957)">
    <g filter="url(#filter2_bd_306_51957)">
      <rect width="33.9585" height="33.9585" rx="16.9793" transform="matrix(0.943891 -0.330257 0.33651 0.94168 10.499 56.7725)" fill="#F8F5FA"/>
      <path fill-rule="evenodd" clip-rule="evenodd" d="M20.8296 63.7513C20.4792 62.7706 20.9919 61.6968 21.9749 61.3528L32.3768 57.7133C33.3598 57.3694 34.4408 57.8856 34.7912 58.8663L35.3928 60.5497L37.7737 59.7167C38.7567 59.3728 39.8377 59.8889 40.1881 60.8696L43.2784 69.5176C43.8337 71.0714 43.0213 72.7728 41.4638 73.3177L28.9815 77.6851C27.4241 78.2301 25.7114 77.4122 25.1561 75.8584L20.8296 63.7513ZM38.4548 72.7101L28.4541 76.2092C27.7137 76.4683 26.8994 76.0795 26.6355 75.3408L22.309 63.2337C22.2498 63.0681 22.3364 62.8868 22.5024 62.8287L32.9042 59.1892C33.0702 59.1312 33.2527 59.2183 33.3119 59.3839L37.6383 71.491C37.8113 71.9751 38.0967 72.3878 38.4548 72.7101ZM40.9364 71.8418C41.6768 71.5827 42.063 70.7739 41.7991 70.0352L38.7087 61.3873C38.6496 61.2217 38.4671 61.1345 38.3011 61.1926L35.9202 62.0256L39.1177 70.9734C39.3817 71.7121 40.1959 72.1009 40.9364 71.8418ZM24.4687 65.2022C24.3231 64.7946 24.5362 64.3483 24.9447 64.2054L27.7186 63.2349C28.1271 63.0919 28.5763 63.3065 28.7219 63.714L29.7109 66.4814C29.8565 66.8889 29.6434 67.3352 29.2349 67.4781L26.461 68.4487C26.0525 68.5916 25.6033 68.3771 25.4577 67.9695L24.4687 65.2022ZM26.2118 65.4225L26.6733 66.7139L27.9678 66.261L27.5063 64.9696L26.2118 65.4225ZM30.0164 63.2611C29.8708 62.8535 30.0839 62.4073 30.4924 62.2643L31.8793 61.7791C32.2878 61.6361 32.7371 61.8507 32.8827 62.2582C33.0283 62.6658 32.8152 63.1121 32.4067 63.255L31.0198 63.7403C30.6113 63.8832 30.162 63.6687 30.0164 63.2611ZM31.0053 66.0284C30.8597 65.6209 31.0728 65.1746 31.4813 65.0317L32.8682 64.5464C33.2767 64.4035 33.726 64.618 33.8716 65.0256C34.0172 65.4331 33.8041 65.8794 33.3956 66.0223L32.0087 66.5076C31.6002 66.6505 31.151 66.436 31.0053 66.0284ZM26.4466 70.7368C26.3009 70.3293 26.514 69.883 26.9225 69.7401L33.8571 67.3137C34.2656 67.1708 34.7149 67.3853 34.8605 67.7929C35.0062 68.2004 34.793 68.6467 34.3845 68.7897L27.45 71.216C27.0414 71.3589 26.5922 71.1444 26.4466 70.7368ZM27.4355 73.5042C27.2898 73.0966 27.5029 72.6503 27.9114 72.5074L34.846 70.0811C35.2545 69.9381 35.7038 70.1527 35.8494 70.5602C35.9951 70.9678 35.782 71.414 35.3734 71.557L28.4389 73.9833C28.0303 74.1263 27.5811 73.9117 27.4355 73.5042Z" fill="#915EAD"/>
    </g>
    <g filter="url(#filter3_bd_306_51957)">
      <rect x="63.7287" y="10.248" width="27.8389" height="27.8389" rx="13.9195" fill="#F0F7FC"/>
      <path fill-rule="evenodd" clip-rule="evenodd" d="M84.5189 30.5916H70.7774C70.1383 30.5916 69.6177 30.0663 69.6177 29.4205V27.2456C69.6177 26.8755 69.9175 26.5764 70.2869 26.5764V19.6989C70.2869 19.0632 70.8183 18.5459 71.4714 18.5459H83.8256C84.4781 18.5459 85.0094 19.0632 85.0094 19.6989V26.5764C85.3788 26.5764 85.6786 26.8755 85.6786 27.2456V29.4205C85.6786 30.0663 85.158 30.5916 84.5189 30.5916ZM83.671 19.8843H71.6253V26.5764H75.6847C76.0548 26.5764 76.3539 26.8755 76.3539 27.2456H78.9424C78.9424 26.8755 79.2415 26.5764 79.6116 26.5764H83.671V19.8843ZM84.3402 27.9148H80.325C80.325 28.2848 80.0252 28.584 79.6558 28.584H75.6405C75.2711 28.584 74.9713 28.2848 74.9713 27.9148H70.9561V29.2532H84.3402V27.9148Z" fill="#0F75C9"/>
    </g>
    <g filter="url(#filter4_bd_306_51957)">
      <rect width="33.8396" height="33.8396" rx="16.9198" transform="matrix(0.995634 0.0933435 -0.0951057 0.995467 126.809 34.6992)" fill="#FDF3F8"/>
      <path fill-rule="evenodd" clip-rule="evenodd" d="M141.515 43.2675C136.953 42.8398 132.902 46.1904 132.466 50.7511C132.031 55.3119 135.375 59.3558 139.937 59.7834C142.136 59.9896 144.217 59.3174 145.831 58.0547L149.604 62.6163C149.878 62.9483 150.371 62.9945 150.703 62.7194C151.036 62.4442 151.083 61.952 150.808 61.62L146.969 56.9781C148.077 55.7127 148.813 54.1006 148.985 52.2998C149.421 47.7391 146.076 43.6952 141.515 43.2675ZM134.021 50.8969C134.375 47.1948 137.663 44.4751 141.366 44.8222C145.069 45.1694 147.784 48.4519 147.43 52.154C147.076 55.8561 143.788 58.5758 140.085 58.2287C136.383 57.8815 133.668 54.599 134.021 50.8969Z" fill="#D41C80"/>
    </g>
  </g>
  <path d="M128.352 13.9269C129.436 12.8435 129.678 10.248 129.678 10.248C129.678 10.248 130.113 12.8641 131.27 13.9269C132.328 14.8987 134.719 15.2407 134.719 15.2407C134.719 15.2407 132.312 15.971 131.27 17.0801C130.259 18.1557 129.678 20.4962 129.678 20.4962C129.678 20.4962 129.102 18.151 128.087 17.0801C126.976 15.9094 124.373 15.2407 124.373 15.2407C124.373 15.2407 127.199 15.0792 128.352 13.9269Z" fill="#F092C5"/>
  <path d="M44.1741 38.5699C45.1378 37.6068 45.3531 35.2998 45.3531 35.2998C45.3531 35.2998 45.7394 37.6252 46.7679 38.5699C47.7084 39.4337 49.8334 39.7378 49.8334 39.7378C49.8334 39.7378 47.6942 40.3869 46.7679 41.3728C45.8696 42.3288 45.3531 44.4093 45.3531 44.4093C45.3531 44.4093 44.841 42.3247 43.9383 41.3728C42.9514 40.3322 40.637 39.7378 40.637 39.7378C40.637 39.7378 43.149 39.5941 44.1741 38.5699Z" fill="#F092C5"/>
  <path d="M109.783 2.45255C110.506 1.73027 110.667 0 110.667 0C110.667 0 110.957 1.74403 111.729 2.45255C112.434 3.10045 114.028 3.32846 114.028 3.32846C114.028 3.32846 112.423 3.81531 111.729 4.55473C111.055 5.27177 110.667 6.8321 110.667 6.8321C110.667 6.8321 110.283 5.26866 109.606 4.55473C108.866 3.77426 107.13 3.32846 107.13 3.32846C107.13 3.32846 109.014 3.22076 109.783 2.45255Z" fill="#6AB6F4"/>
  <path d="M132.507 76.0575C133.109 75.4556 133.244 74.0137 133.244 74.0137C133.244 74.0137 133.485 75.467 134.128 76.0575C134.716 76.5974 136.044 76.7874 136.044 76.7874C136.044 76.7874 134.707 77.1931 134.128 77.8093C133.567 78.4068 133.244 79.7071 133.244 79.7071C133.244 79.7071 132.924 78.4042 132.36 77.8093C131.743 77.1589 130.296 76.7874 130.296 76.7874C130.296 76.7874 131.866 76.6976 132.507 76.0575Z" fill="#6AB6F4"/>
  <path d="M28.524 24.2625C29.9697 22.818 30.2925 19.3574 30.2925 19.3574C30.2925 19.3574 30.872 22.8455 32.4148 24.2625C33.8255 25.5583 37.013 26.0143 37.013 26.0143C37.013 26.0143 33.8042 26.988 32.4148 28.4669C31.0674 29.901 30.2925 33.0216 30.2925 33.0216C30.2925 33.0216 29.5244 29.8947 28.1703 28.4669C26.69 26.9059 23.2184 26.0143 23.2184 26.0143C23.2184 26.0143 26.9864 25.7989 28.524 24.2625Z" fill="#6AB6F4"/>
  <defs>
    <filter id="filter0_f_306_51957" x="48.3889" y="116.097" width="80.6348" height="24.0746" filterUnits="userSpaceOnUse" color-interpolation-filters="sRGB">
      <feFlood flood-opacity="0" result="BackgroundImageFix"/>
      <feBlend mode="normal" in="SourceGraphic" in2="BackgroundImageFix" result="shape"/>
      <feGaussianBlur stdDeviation="2.31991" result="effect1_foregroundBlur_306_51957"/>
    </filter>
    <filter id="filter1_d_306_51957" x="0.0594282" y="3.28832" width="170.881" height="99.3821" filterUnits="userSpaceOnUse" color-interpolation-filters="sRGB">
      <feFlood flood-opacity="0" result="BackgroundImageFix"/>
      <feColorMatrix in="SourceAlpha" type="matrix" values="0 0 0 0 0 0 0 0 0 0 0 0 0 0 0 0 0 0 127 0" result="hardAlpha"/>
      <feMorphology radius="1.15996" operator="erode" in="SourceAlpha" result="effect1_dropShadow_306_51957"/>
      <feOffset dy="3.47987"/>
      <feGaussianBlur stdDeviation="5.79978"/>
      <feComposite in2="hardAlpha" operator="out"/>
      <feColorMatrix type="matrix" values="0 0 0 0 0 0 0 0 0 0 0 0 0 0 0 0 0 0 0.06 0"/>
      <feBlend mode="multiply" in2="BackgroundImageFix" result="effect1_dropShadow_306_51957"/>
      <feBlend mode="normal" in="SourceGraphic" in2="effect1_dropShadow_306_51957" result="shape"/>
    </filter>
    <filter id="filter2_bd_306_51957" x="3.74966" y="38.8083" width="56.9793" height="59.2224" filterUnits="userSpaceOnUse" color-interpolation-filters="sRGB">
      <feFlood flood-opacity="0" result="BackgroundImageFix"/>
      <feGaussianBlur in="BackgroundImageFix" stdDeviation="3.37468"/>
      <feComposite in2="SourceAlpha" operator="in" result="effect1_backgroundBlur_306_51957"/>
      <feColorMatrix in="SourceAlpha" type="matrix" values="0 0 0 0 0 0 0 0 0 0 0 0 0 0 0 0 0 0 127 0" result="hardAlpha"/>
      <feOffset dy="4.63982"/>
      <feGaussianBlur stdDeviation="2.31991"/>
      <feComposite in2="hardAlpha" operator="out"/>
      <feColorMatrix type="matrix" values="0 0 0 0 0 0 0 0 0 0 0 0 0 0 0 0 0 0 0.12 0"/>
      <feBlend mode="normal" in2="effect1_backgroundBlur_306_51957" result="effect2_dropShadow_306_51957"/>
      <feBlend mode="normal" in="SourceGraphic" in2="effect2_dropShadow_306_51957" result="shape"/>
    </filter>
    <filter id="filter3_bd_306_51957" x="56.9793" y="3.49868" width="41.3377" height="43.8679" filterUnits="userSpaceOnUse" color-interpolation-filters="sRGB">
      <feFlood flood-opacity="0" result="BackgroundImageFix"/>
      <feGaussianBlur in="BackgroundImageFix" stdDeviation="3.37468"/>
      <feComposite in2="SourceAlpha" operator="in" result="effect1_backgroundBlur_306_51957"/>
      <feColorMatrix in="SourceAlpha" type="matrix" values="0 0 0 0 0 0 0 0 0 0 0 0 0 0 0 0 0 0 127 0" result="hardAlpha"/>
      <feOffset dy="4.63982"/>
      <feGaussianBlur stdDeviation="2.31991"/>
      <feComposite in2="hardAlpha" operator="out"/>
      <feColorMatrix type="matrix" values="0 0 0 0 0 0 0 0 0 0 0 0 0 0 0 0 0 0 0.12 0"/>
      <feBlend mode="normal" in2="effect1_backgroundBlur_306_51957" result="effect2_dropShadow_306_51957"/>
      <feBlend mode="normal" in="SourceGraphic" in2="effect2_dropShadow_306_51957" result="shape"/>
    </filter>
    <filter id="filter4_bd_306_51957" x="116.841" y="27.9499" width="50.4089" height="52.8737" filterUnits="userSpaceOnUse" color-interpolation-filters="sRGB">
      <feFlood flood-opacity="0" result="BackgroundImageFix"/>
      <feGaussianBlur in="BackgroundImageFix" stdDeviation="3.37468"/>
      <feComposite in2="SourceAlpha" operator="in" result="effect1_backgroundBlur_306_51957"/>
      <feColorMatrix in="SourceAlpha" type="matrix" values="0 0 0 0 0 0 0 0 0 0 0 0 0 0 0 0 0 0 127 0" result="hardAlpha"/>
      <feOffset dy="4.63982"/>
      <feGaussianBlur stdDeviation="2.31991"/>
      <feComposite in2="hardAlpha" operator="out"/>
      <feColorMatrix type="matrix" values="0 0 0 0 0 0 0 0 0 0 0 0 0 0 0 0 0 0 0.12 0"/>
      <feBlend mode="normal" in2="effect1_backgroundBlur_306_51957" result="effect2_dropShadow_306_51957"/>
      <feBlend mode="normal" in="SourceGraphic" in2="effect2_dropShadow_306_51957" result="shape"/>
    </filter>
    <clipPath id="clip0_306_51957">
      <rect width="42.0787" height="41.6836" fill="white" transform="translate(69.3962 72.9785)"/>
    </clipPath>
    <clipPath id="clip1_306_51957">
      <rect width="42.0787" height="41.6836" fill="white" transform="translate(69.3962 72.9785)"/>
    </clipPath>
  </defs>
</svg>
