<svg fill="none" xmlns="http://www.w3.org/2000/svg" viewBox="16 0 280 201">
  <g clip-path="url(#clip0)">
    <g filter="url(#filter0_d)">
      <path d="M99.293 185.414a12.64 12.64 0 004.878-.98 12.733 12.733 0 004.136-2.791 12.875 12.875 0 002.763-4.177c.641-1.562.971-3.236.971-4.927v-27.106a17.197 17.197 0 011.283-6.527 17.06 17.06 0 013.659-5.533 16.875 16.875 0 015.477-3.698 16.746 16.746 0 016.462-1.299c2.218 0 4.413.442 6.462 1.299a16.868 16.868 0 015.478 3.698 17.075 17.075 0 013.659 5.533 17.235 17.235 0 011.283 6.527v27.106c0 1.691.329 3.365.97 4.927a12.907 12.907 0 002.763 4.177 12.744 12.744 0 004.136 2.791c1.547.647 3.205.98 4.879.98a7.845 7.845 0 015.544 2.349 8 8 0 012.293 5.613h-75c0-1.047.204-2.084.602-3.051a7.967 7.967 0 011.714-2.586 7.875 7.875 0 012.564-1.725 7.809 7.809 0 013.024-.6z" fill="#A78AFF"/>
      <path d="M206.618 56.877H42.16c-3.038 0-5.271 2.559-5.271 5.425V166.45c0 2.867 2.233 5.426 5.27 5.426h164.459c3.037 0 5.271-2.559 5.271-5.426V62.302c0-2.866-2.234-5.425-5.271-5.425z" fill="#F2EEFF" stroke="#D9CDFF" stroke-width="5"/>
      <g filter="url(#filter1_d)">
        <rect x="57.389" y="81.376" width="104" height="79" rx="4" fill="#fff"/>
        <path d="M57.389 85.376a4 4 0 014-4h96a4 4 0 014 4v20h-104v-20z" fill="#F1F3F5"/>
        <path fill="#CED4DA" d="M57.389 98.287h104v16h-104z"/>
        <rect x="65.389" y="102.287" width="88" height="8" rx="2" fill="#fff"/>
        <circle cx="63.919" cy="88.553" r="2" fill="#CED4DA"/>
        <circle cx="70.061" cy="88.553" r="2" fill="#CED4DA"/>
        <circle cx="76.203" cy="88.553" r="2" fill="#CED4DA"/>
        <path d="M82.055 92.287a2 2 0 012-2h28a2 2 0 012 2v6h-32v-6z" fill="#CED4DA"/>
        <rect x="69.389" y="119.376" width="14" height="14" rx="2" fill="#F1F3F5"/>
        <rect x="69.389" y="139.398" width="14" height="14" rx="2" fill="#F1F3F5"/>
        <rect x="90.389" y="121.376" width="47" height="4" rx="2" fill="#F1F3F5"/>
        <rect x="90.389" y="141.376" width="47" height="4" rx="2" fill="#F1F3F5"/>
        <rect x="90.389" y="129.376" width="47" height="4" rx="2" fill="#F1F3F5"/>
        <rect x="90.389" y="148.376" width="47" height="4" rx="2" fill="#F1F3F5"/>
      </g>
    </g>
    <g clip-path="url(#clip1)">
      <path d="M259.455 28.304h-304.73c-4.628 0-8.635 3.632-8.635 8.421v175.158c0 4.79 4.007 8.421 8.634 8.421h304.731c4.627 0 8.635-3.631 8.635-8.421V36.725c0-4.79-4.008-8.42-8.635-8.42z" fill="#F1ECFF" stroke="#CFC0FF" stroke-width="7"/>
      <g filter="url(#filter2_d)">
        <path d="M135.121 70.583h-182.16c-1.812 0-3.908 2.205-3.908 4.027v124.221a3.29 3.29 0 003.282 3.299h183.282a3.29 3.29 0 003.281-3.299V74.485c0-1.822-1.942-3.77-3.777-3.902z" fill="#F1F3F5"/>
      </g>
      <g filter="url(#filter3_d)">
        <rect x="153.389" y="44.377" width="99" height="34" rx="4" fill="#fff"/>
      </g>
      <path d="M177.515 56.983l.415-1.022-1.161-1.244c-.663-.663-2.017-.276-2.017-.276l-1.547-1.796h-5.526l-1.575 1.796s-1.354-.387-1.989.276-1.188 1.244-1.188 1.244l.414 1.022-.525 1.547s1.575 6.023 1.741 6.77a3.82 3.82 0 001.63 2.763l3.178 2.182c.304.194.69.525 1.022.525.331 0 .718-.331 1.022-.525l3.178-2.183a3.811 3.811 0 001.63-2.763l1.74-6.769-.442-1.547z" fill="url(#paint0_linear)"/>
      <path d="M170.471 63.917c.456.111.893.288 1.298.525l1.05.553c.138 0 0 .22 0 .304 0 .082-1.63 1.27-1.768 1.409-.138.138-.359.359-.525.359-.166 0-.359-.221-.497-.36L168.26 65.3s-.193-.221 0-.304l1.05-.553a4.846 4.846 0 011.161-.525zm0-8.51c.264.022.524.077.773.166.376.146.765.257 1.161.331.221 0 1.906-.331 1.906-.331.793.908 1.47 1.91 2.017 2.984 0 .525-.276.663-.525.94l-1.492 1.63c-.138.165-.442.386-.248.8a1.75 1.75 0 010 1.493c-.277.552-.774.912-1.078.829a5.759 5.759 0 01-1.326-.608c-.276-.194-1.133-.912-1.133-1.188 0-.277.884-.774 1.05-.884.166-.11.912-.525.939-.719.028-.193 0-.193-.221-.635s-.608-.967-.552-1.354c.055-.387.718-.553 1.16-.746l1.437-.553h-.249a6.796 6.796 0 00-1.685 0 5.7 5.7 0 00-1.216.387v.442c0 .442.387 1.962.415 2.238.027.277 0 .47-.221.553-.222.083-.802.193-.995.193-.194 0-.691 0-.995-.193-.304-.194-.221-.276-.193-.553.027-.276.331-1.906.387-2.238.055-.331 0-.331 0-.442-.382-.17-.78-.3-1.188-.387a6.993 6.993 0 00-1.713 0h-.249l1.437.553c.469.193 1.105.387 1.16.746.055.36-.332.94-.553 1.354-.221.414-.221.47-.193.635.028.166.746.608.912.719.166.11 1.05.607 1.05.884 0 .276-.857.994-1.133 1.188a5.525 5.525 0 01-1.299.608c-.304 0-.801-.277-1.077-.83a1.654 1.654 0 01.138-1.491c.166-.415-.138-.636-.276-.801l-1.492-1.63c-.249-.277-.498-.415-.498-.94a14.668 14.668 0 011.99-2.984s1.685.331 1.906.331a6.74 6.74 0 001.188-.331c.241-.087.491-.143.746-.166h.028z" fill="#fff"/>
      <path d="M174.753 54.44l-1.548-1.795h-5.526l-1.574 1.795s-1.354-.386-1.99.277c0 0 1.824-.166 2.432.856 0 0 1.685.332 1.906.332a6.748 6.748 0 001.188-.332c.238-.095.49-.151.746-.166.265.016.526.071.774.166.376.146.764.257 1.16.332.221 0 1.907-.332 1.907-.332.635-1.022 2.459-.856 2.459-.856-.663-.663-2.017-.277-2.017-.277" fill="url(#paint1_linear)"/>
      <rect x="186.389" y="52.377" width="53" height="4" rx="2" fill="#A78AFF"/>
      <rect x="186.389" y="60.377" width="46" height="4" rx="2" fill="#D0D2F7"/>
      <rect x="186.389" y="68.376" width="44" height="4" rx="2" fill="#D0D2F7"/>
    </g>
    <rect x="140.889" y="12.877" width="143" height="80" rx="8.5" stroke="url(#paint2_linear)" stroke-width="7"/>
  </g>
  <defs>
    <filter id="filter0_d" x="10.389" y="30.377" width="231" height="187" filterUnits="userSpaceOnUse" color-interpolation-filters="sRGB">
      <feFlood flood-opacity="0" result="BackgroundImageFix"/>
      <feColorMatrix in="SourceAlpha" type="matrix" values="0 0 0 0 0 0 0 0 0 0 0 0 0 0 0 0 0 0 127 0"/>
      <feOffset/>
      <feGaussianBlur stdDeviation="12"/>
      <feColorMatrix type="matrix" values="0 0 0 0 0.329583 0 0 0 0 0.369133 0 0 0 0 0.470833 0 0 0 0.25 0"/>
      <feBlend mode="normal" in2="BackgroundImageFix" result="effect1_dropShadow"/>
      <feBlend mode="normal" in="SourceGraphic" in2="effect1_dropShadow" result="shape"/>
    </filter>
    <filter id="filter1_d" x="49.389" y="73.376" width="120" height="95" filterUnits="userSpaceOnUse" color-interpolation-filters="sRGB">
      <feFlood flood-opacity="0" result="BackgroundImageFix"/>
      <feColorMatrix in="SourceAlpha" type="matrix" values="0 0 0 0 0 0 0 0 0 0 0 0 0 0 0 0 0 0 127 0"/>
      <feOffset/>
      <feGaussianBlur stdDeviation="4"/>
      <feColorMatrix type="matrix" values="0 0 0 0 0 0 0 0 0 0 0 0 0 0 0 0 0 0 0.12 0"/>
      <feBlend mode="normal" in2="BackgroundImageFix" result="effect1_dropShadow"/>
      <feBlend mode="normal" in="SourceGraphic" in2="effect1_dropShadow" result="shape"/>
    </filter>
    <filter id="filter2_d" x="-62.906" y="58.624" width="213.763" height="155.464" filterUnits="userSpaceOnUse" color-interpolation-filters="sRGB">
      <feFlood flood-opacity="0" result="BackgroundImageFix"/>
      <feColorMatrix in="SourceAlpha" type="matrix" values="0 0 0 0 0 0 0 0 0 0 0 0 0 0 0 0 0 0 127 0"/>
      <feOffset/>
      <feGaussianBlur stdDeviation="5.979"/>
      <feColorMatrix type="matrix" values="0 0 0 0 0.654902 0 0 0 0 0.541176 0 0 0 0 1 0 0 0 0.08 0"/>
      <feBlend mode="normal" in2="BackgroundImageFix" result="effect1_dropShadow"/>
      <feBlend mode="normal" in="SourceGraphic" in2="effect1_dropShadow" result="shape"/>
    </filter>
    <filter id="filter3_d" x="146.389" y="38.377" width="113" height="48" filterUnits="userSpaceOnUse" color-interpolation-filters="sRGB">
      <feFlood flood-opacity="0" result="BackgroundImageFix"/>
      <feColorMatrix in="SourceAlpha" type="matrix" values="0 0 0 0 0 0 0 0 0 0 0 0 0 0 0 0 0 0 127 0"/>
      <feOffset dy="1"/>
      <feGaussianBlur stdDeviation="3.5"/>
      <feColorMatrix type="matrix" values="0 0 0 0 0 0 0 0 0 0 0 0 0 0 0 0 0 0 0.18 0"/>
      <feBlend mode="normal" in2="BackgroundImageFix" result="effect1_dropShadow"/>
      <feBlend mode="normal" in="SourceGraphic" in2="effect1_dropShadow" result="shape"/>
    </filter>
    <linearGradient id="paint0_linear" x1="-7230.24" y1="10817.5" x2="-7228.42" y2="10817.5" gradientUnits="userSpaceOnUse">
      <stop stop-color="#F50"/>
      <stop offset=".41" stop-color="#F50"/>
      <stop offset=".58" stop-color="#FF2000"/>
      <stop offset="1" stop-color="#FF2000"/>
    </linearGradient>
    <linearGradient id="paint1_linear" x1="-5940.72" y1="1931.22" x2="-5939.34" y2="1931.22" gradientUnits="userSpaceOnUse">
      <stop stop-color="#FF452A"/>
      <stop offset="1" stop-color="#FF2000"/>
    </linearGradient>
    <linearGradient id="paint2_linear" x1="137.389" y1="9.376" x2="248.575" y2="131.666" gradientUnits="userSpaceOnUse">
      <stop stop-color="#4C54D2"/>
      <stop offset=".563" stop-color="#BF14A2"/>
      <stop offset="1" stop-color="#F73A1C"/>
    </linearGradient>
    <clipPath id="clip0">
      <path fill="#fff" transform="translate(.389 .376)" d="M0 0h315v200H0z"/>
    </clipPath>
    <clipPath id="clip1">
      <rect x="139.389" y="16.377" width="139" height="74" rx="17.938" fill="#fff"/>
    </clipPath>
  </defs>
</svg>
