<svg fill="none" xmlns="http://www.w3.org/2000/svg" viewBox="0 10 250 198">
  <g filter="url(#filter0_d)">
    <path d="M190.428 36.422H61.198a6.146 6.146 0 00-6.146 6.144v129.181a6.146 6.146 0 006.147 6.145h129.229a6.146 6.146 0 006.146-6.145V42.567a6.145 6.145 0 00-6.146-6.145z" fill="#fff"/>
  </g>
  <path d="M61.199 36.383h129.229a6.148 6.148 0 016.146 6.145v37.19H55.052v-37.19a6.144 6.144 0 016.147-6.145z" fill="#E4DBFF"/>
  <path d="M90.557 87.43H75.19c-.849 0-1.537.687-1.537 1.535v15.362c0 .848.688 1.536 1.537 1.536h15.367c.849 0 1.537-.688 1.537-1.536V88.965c0-.848-.688-1.536-1.537-1.536zM119.178 87.43h-15.367c-.849 0-1.537.687-1.537 1.535v15.362c0 .848.688 1.536 1.537 1.536h15.367c.849 0 1.537-.688 1.537-1.536V88.965c0-.848-.688-1.536-1.537-1.536zM147.807 87.43H132.44c-.849 0-1.537.687-1.537 1.535v15.362c0 .848.688 1.536 1.537 1.536h15.367c.849 0 1.537-.688 1.537-1.536V88.965c0-.848-.688-1.536-1.537-1.536z" fill="#EDE8FF"/>
  <path d="M153.646 51.09H97.971a2.573 2.573 0 100 5.147h55.675a2.573 2.573 0 100-5.146zM145.215 62.603h-36.206a2.573 2.573 0 100 5.147h36.206a2.573 2.573 0 100-5.147z" fill="#A78AFF"/>
  <path d="M176.436 87.43h-15.367c-.849 0-1.537.687-1.537 1.535v15.362c0 .848.688 1.536 1.537 1.536h15.367c.849 0 1.537-.688 1.537-1.536V88.965c0-.848-.688-1.536-1.537-1.536z" fill="#EDE8FF"/>
  <path d="M119.178 113.582h-15.367c-.849 0-1.537.687-1.537 1.536v15.361c0 .848.688 1.536 1.537 1.536h15.367c.849 0 1.537-.688 1.537-1.536v-15.361c0-.849-.688-1.536-1.537-1.536z" fill="#E4DBFF"/>
  <path d="M147.807 113.582H132.44c-.849 0-1.537.687-1.537 1.536v15.361c0 .848.688 1.536 1.537 1.536h15.367c.849 0 1.537-.688 1.537-1.536v-15.361c0-.849-.688-1.536-1.537-1.536zM176.436 113.582h-15.367c-.849 0-1.537.687-1.537 1.536v15.361c0 .848.688 1.536 1.537 1.536h15.367c.849 0 1.537-.688 1.537-1.536v-15.361c0-.849-.688-1.536-1.537-1.536zM90.557 139.734H75.19c-.849 0-1.537.688-1.537 1.537v15.361c0 .848.688 1.536 1.537 1.536h15.367c.849 0 1.537-.688 1.537-1.536v-15.361c0-.849-.688-1.537-1.537-1.537zM119.178 139.734h-15.367c-.849 0-1.537.688-1.537 1.537v15.361c0 .848.688 1.536 1.537 1.536h15.367c.849 0 1.537-.688 1.537-1.536v-15.361c0-.849-.688-1.537-1.537-1.537zM147.807 139.734H132.44c-.849 0-1.537.688-1.537 1.537v15.361c0 .848.688 1.536 1.537 1.536h15.367c.849 0 1.537-.688 1.537-1.536v-15.361c0-.849-.688-1.537-1.537-1.537zM176.436 139.734h-15.367c-.849 0-1.537.688-1.537 1.537v15.361c0 .848.688 1.536 1.537 1.536h15.367c.849 0 1.537-.688 1.537-1.536v-15.361c0-.849-.688-1.537-1.537-1.537z" fill="#EDE8FF"/>
  <path d="M114.972 87.376H60.805c-2.991 0-5.416 2.65-5.416 5.917v59.167c0 3.267 2.425 5.916 5.416 5.916h54.167c2.992 0 5.417-2.649 5.417-5.916V93.293c0-3.268-2.425-5.917-5.417-5.917z" fill="#fff"/>
  <path d="M87.484 33.311a4.61 4.61 0 00-4.61-4.608 4.61 4.61 0 00-4.61 4.608v11.145a4.61 4.61 0 004.61 4.608 4.61 4.61 0 004.61-4.608V33.31zM173.363 33.311a4.61 4.61 0 00-4.61-4.608 4.61 4.61 0 00-4.61 4.608v11.145a4.61 4.61 0 004.61 4.608 4.61 4.61 0 004.61-4.608V33.31z" fill="#A78AFF"/>
  <path fill-rule="evenodd" clip-rule="evenodd" d="M111.562 155.901a44.047 44.047 0 01-16.282 6.891 43.904 43.904 0 01-25.57-2.539 44.336 44.336 0 01-19.862-16.44 44.913 44.913 0 01-7.46-24.8 44.913 44.913 0 017.46-24.8 44.34 44.34 0 0119.862-16.44 43.902 43.902 0 0125.57-2.538 44.139 44.139 0 0122.659 12.219c8.288 8.376 12.942 19.726 12.942 31.559a44.944 44.944 0 01-8.055 25.69c5.831 5.888 22.297 22.527 22.297 22.527a8.031 8.031 0 012.152 5.595 8.026 8.026 0 01-2.314 5.529 7.892 7.892 0 01-5.477 2.347 7.886 7.886 0 01-5.552-2.157s-16.617-16.818-22.37-22.643zm-56.575-43.245a32.68 32.68 0 018.835-16.687A32.21 32.21 0 0186.68 86.43c8.57 0 16.791 3.43 22.856 9.539a32.676 32.676 0 018.835 16.687 32.843 32.843 0 01-1.843 18.826 32.529 32.529 0 01-11.9 14.621 32.113 32.113 0 01-17.948 5.49c-6.39 0-12.635-1.91-17.948-5.49a32.533 32.533 0 01-11.9-14.621 32.853 32.853 0 01-1.844-18.826z" fill="url(#paint0_linear)"/>
  <path d="M96.755 110.152h-14.74v7.832c.674-.792 1.599-1.422 2.772-1.892 1.203-.498 2.522-.748 3.96-.748 2.141 0 3.916.47 5.324 1.408a8.1 8.1 0 013.168 3.696c.704 1.526 1.056 3.227 1.056 5.104 0 3.315-.939 5.97-2.816 7.964-1.848 1.995-4.503 2.992-7.964 2.992-2.259 0-4.224-.396-5.896-1.188-1.672-.821-2.978-1.95-3.916-3.388-.939-1.466-1.452-3.168-1.54-5.104h6.028c.234 1.32.777 2.376 1.628 3.168.85.763 1.98 1.144 3.388 1.144 1.701 0 2.963-.513 3.784-1.54.85-1.056 1.276-2.449 1.276-4.18 0-1.642-.44-2.918-1.32-3.828-.88-.909-2.127-1.364-3.74-1.364-1.173 0-2.17.264-2.992.792a4.465 4.465 0 00-1.804 2.024h-6.028v-18.348h20.372v5.456z" fill="url(#paint1_linear)"/>
  <defs>
    <linearGradient id="paint0_linear" x1="42.389" y1="74.376" x2="165.452" y2="151.819" gradientUnits="userSpaceOnUse">
      <stop stop-color="#4C54D2"/>
      <stop offset=".563" stop-color="#BF14A2"/>
      <stop offset="1" stop-color="#F73A1C"/>
    </linearGradient>
    <linearGradient id="paint1_linear" x1="100.389" y1="132.376" x2="74.671" y2="108.642" gradientUnits="userSpaceOnUse">
      <stop stop-color="#BF14A2"/>
      <stop offset="1" stop-color="#F73A1C"/>
    </linearGradient>
    <filter id="filter0_d" x="31.052" y="12.422" width="189.523" height="189.47" filterUnits="userSpaceOnUse" color-interpolation-filters="sRGB">
      <feFlood flood-opacity="0" result="BackgroundImageFix"/>
      <feColorMatrix in="SourceAlpha" type="matrix" values="0 0 0 0 0 0 0 0 0 0 0 0 0 0 0 0 0 0 127 0"/>
      <feOffset/>
      <feGaussianBlur stdDeviation="12"/>
      <feColorMatrix type="matrix" values="0 0 0 0 0.329583 0 0 0 0 0.369133 0 0 0 0 0.470833 0 0 0 0.25 0"/>
      <feBlend mode="normal" in2="BackgroundImageFix" result="effect1_dropShadow"/>
      <feBlend mode="normal" in="SourceGraphic" in2="effect1_dropShadow" result="shape"/>
    </filter>
  </defs>
</svg>
