<svg fill="none" xmlns="http://www.w3.org/2000/svg" viewBox="0 0 190 164">
  <rect x="46.111" y="25.239" width="96.583" height="96.583" rx="4.39" fill="#D9CDFF"/>
  <path d="M90.792 25.24h-20.79a8.78 8.78 0 010-17.56c4.85 0 20.79 17.56 20.79 17.56zM98.015 25.24h20.79a8.78 8.78 0 000-17.56c-4.85 0-20.79 17.56-20.79 17.56z" fill="#A78AFF"/>
  <path fill="#A78AFF" d="M90.015 25.239h8.78v96.583h-8.78z"/>
  <rect x="125.962" y="43.68" width="54.899" height="90.666" rx="4.977" transform="rotate(33.145 125.962 43.68)" fill="#F1ECFF"/>
  <rect x="126.114" y="52.573" width="9.953" height="9.953" rx="2.488" transform="rotate(33.145 126.114 52.573)" fill="#D9CDFF"/>
  <rect x="138.496" y="61.156" width="29.859" height="4.977" rx="2.488" transform="rotate(33.145 138.496 61.156)" fill="#D9CDFF"/>
  <rect x="133.161" y="69.323" width="29.859" height="4.977" rx="2.488" transform="rotate(33.145 133.161 69.323)" fill="#D9CDFF"/>
  <rect x="112.063" y="74.088" width="9.953" height="9.953" rx="2.488" transform="rotate(33.145 112.063 74.088)" fill="#D9CDFF"/>
  <rect x="124.446" y="82.669" width="29.859" height="4.977" rx="2.488" transform="rotate(33.145 124.446 82.67)" fill="#D9CDFF"/>
  <rect x="119.111" y="90.838" width="29.859" height="4.977" rx="2.488" transform="rotate(33.145 119.111 90.838)" fill="#D9CDFF"/>
  <rect x="98.26" y="111.536" width="54.899" height="90.666" rx="4.977" transform="rotate(151.777 98.26 111.536)" fill="#F1ECFF"/>
  <rect x="29.548" y="69.582" width="29.859" height="4.977" rx="2.488" transform="rotate(61.777 29.548 69.582)" fill="#D9CDFF"/>
  <path fill="#D9CDFF" d="M45.893 36.743l42.877 79.889-8.77 4.706L37.123 41.45z"/>
  <g filter="url(#filter0_d)">
    <path d="M158.209 80.68H28.569c-3.413 0-6.18 2.912-6.18 6.504 0 0 14.847 57.4 14.847 60.992 0 3.592 2.767 6.504 6.18 6.504h96.456c3.413 0 6.18-2.912 6.18-6.504l18.337-60.992c0-3.592-2.767-6.504-6.18-6.504z" fill="#fff"/>
  </g>
  <path d="M61.595 97.611c.923 0 1.675.284 2.256.851.594.554.89 1.326.89 2.316 0 .989-.296 1.768-.89 2.335-.58.554-1.333.831-2.256.831-.924 0-1.683-.277-2.276-.831-.581-.567-.871-1.346-.871-2.335 0-.99.29-1.762.87-2.316.594-.567 1.353-.85 2.277-.85zm8.945.178l-7.778 14.013h-2.691l7.778-14.013h2.691zm-10.212 2.989c0 .448.112.811.336 1.088.225.264.528.396.91.396.383 0 .694-.132.931-.396.237-.277.356-.64.356-1.088 0-.449-.118-.805-.356-1.069a1.167 1.167 0 00-.93-.416c-.383 0-.686.139-.91.416-.225.264-.337.62-.337 1.069zm8.708 4.869c.924 0 1.676.283 2.257.851.58.554.87 1.326.87 2.315 0 .99-.29 1.768-.87 2.336-.581.554-1.333.831-2.257.831-.923 0-1.682-.277-2.276-.831-.58-.568-.87-1.346-.87-2.336 0-.989.29-1.761.87-2.315.594-.568 1.353-.851 2.276-.851zm-1.266 3.166c0 .462.112.831.336 1.109.224.263.528.395.91.395.383 0 .693-.132.93-.395.238-.278.357-.647.357-1.109 0-.448-.119-.811-.356-1.088a1.167 1.167 0 00-.93-.416c-.383 0-.687.139-.911.416-.224.264-.336.626-.336 1.088z" fill="#fff"/>
  <path fill-rule="evenodd" clip-rule="evenodd" d="M73.518 132.552l11.463-6.776 7.902-13.937V98.403c-.209 0-.417.14-.575.418l-9.36 16.508-9.36 16.508c-.158.278-.173.531-.07.715z" fill="#FF4724"/>
  <path fill-rule="evenodd" clip-rule="evenodd" d="M92.883 98.403v13.436l7.902 13.937 11.462 6.776c.104-.184.089-.437-.069-.715l-9.36-16.508-9.36-16.508c-.159-.279-.367-.418-.575-.418z" fill="#9E1F63"/>
  <path fill-rule="evenodd" clip-rule="evenodd" d="M112.248 132.552l-11.462-6.776H84.981l-11.462 6.776c.103.184.325.299.641.299h37.446c.316 0 .538-.115.642-.299z" fill="#662D91"/>
  <path fill-rule="evenodd" clip-rule="evenodd" d="M84.98 125.776h15.805l-7.902-13.937-7.902 13.937z" fill="#fff"/>
  <defs>
    <filter id="filter0_d" x="13.592" y="71.884" width="159.593" height="91.593" filterUnits="userSpaceOnUse" color-interpolation-filters="sRGB">
      <feFlood flood-opacity="0" result="BackgroundImageFix"/>
      <feColorMatrix in="SourceAlpha" type="matrix" values="0 0 0 0 0 0 0 0 0 0 0 0 0 0 0 0 0 0 127 0"/>
      <feOffset/>
      <feGaussianBlur stdDeviation="4.398"/>
      <feColorMatrix type="matrix" values="0 0 0 0 0.619608 0 0 0 0 0.623529 0 0 0 0 0.670588 0 0 0 0.24 0"/>
      <feBlend mode="normal" in2="BackgroundImageFix" result="effect1_dropShadow"/>
      <feBlend mode="normal" in="SourceGraphic" in2="effect1_dropShadow" result="shape"/>
    </filter>
  </defs>
</svg>
