<svg fill="none" xmlns="http://www.w3.org/2000/svg" viewBox="0 0 151 149">
  <circle cx="99.1007" cy="7.55872" r="2.04684" stroke="#AEB1C2" stroke-width="1.48861"/>
  <circle cx="18.8956" cy="48.1495" r="2.04684" stroke="#AEB1C2" stroke-width="1.48861"/>
  <circle cx="123.64" cy="23.5382" r="2.04684" stroke="#AEB1C2" stroke-width="1.48861"/>
  <path d="M15.7862 22.0527c.1106-.0871.1834-.2147.2031-.3561.0196-.1413-.0154-.2854-.0978-.4017l-2.3798-3.2399 3.1635-2.3986c.1107-.0871.1835-.2148.2031-.3561.0197-.1414-.0154-.2854-.0977-.4018-.0911-.1161-.2219-.1929-.3658-.2147-.1439-.0218-.2902.0129-.4091.0971l-3.1635 2.3987-2.3798-3.2398c-.0864-.1134-.2123-.1885-.3513-.2096-.13893-.0211-.28012.0135-.39376.0965-.10613.0841-.1773.2058-.19958.3412-.01597.1454.01727.2924.09424.4167l2.3798 3.2398-3.16353 2.3987c-.10763.0963-.17951.2273-.20379.3714-.0155.1365.0196.2743.09845.3864.08636.1134.21228.1885.35126.2096.13898.0211.28016-.0135.39381-.0965l3.1635-2.3987 2.3798 3.2398c.091.1161.2218.1929.3657.2148.144.0218.2903-.0129.4092-.0972Z" fill="#AEB1C2"/>
  <path d="M112.805 49.5053v-.0029.0029Zm0 0-.001.0016.001-.0016Zm-1.487-5.861-.001-.0009.001.0009Zm.153-.3819-.016-.0093-.162.2811-.04.0708-.033.0576.251-.4002Zm1.335 6.2367v-.0008.0008Zm-.002-.0017.002.0017-.002-.0017Z" fill="#AEB1C2" stroke="#AEB1C2" stroke-width="1.86076"/>
  <path fill-rule="evenodd" clip-rule="evenodd" d="M57.1327 29.7521c7.9412 2.1278 16.1038-2.5848 18.2317-10.5261C77.4922 11.2848 72.7795 3.12224 64.8383.994401 56.8971-1.13344 48.7345 3.57923 46.6067 11.5204c-2.1279 7.9413 2.5848 16.1038 10.526 18.2317Zm5.3234-17.0154 1.9556 6.3334 2.2128 2.5179-3.3769-11.80527-.7915 2.95397Zm.8482 7.3214-6.6978-1.7947-2.9248.7698L65.0901 22.09l-1.7858-2.0319Zm-7.1184-3.2184 4.8378-4.4862.7915-2.95395-8.4675 8.18715 2.8382-.747Zm6.4493 1.5036-1.3117-4.2451-3.2578 3.0207 4.5695 1.2244Zm1.3021-11.54119L68.693 23.4269c.0732.2568.0029.5334-.1847.7234-.187.1909-.4619.2661-.7205.1969L50.6012 19.742c-.0035-.0009-.0066-.0025-.0099-.0041-.0033-.0017-.0068-.0034-.0108-.0045-.0546-.0169-.1082-.0374-.1581-.0661-.0133-.0078-.0249-.0174-.0367-.027-.0076-.0062-.0152-.0125-.0233-.0183-.0064-.0046-.0128-.0091-.0192-.0136-.0258-.0182-.0513-.0363-.0742-.059-.0101-.0103-.0186-.0219-.0272-.0337-.0063-.0086-.0126-.0173-.0198-.0257-.0061-.0077-.0123-.0153-.0185-.0228-.0187-.0229-.0372-.0454-.0522-.0714-.015-.026-.0255-.0549-.0359-.0837-.0038-.0104-.0076-.0208-.0116-.0311-.0035-.0095-.0077-.0185-.0119-.0274-.0059-.0125-.0117-.025-.0156-.0391.0001-.0003.0001-.0004.0001-.0006 0-.0002-.0001-.0005-.0004-.001.0002-.0007.0002-.0007-.0003-.0016-.0223-.0858-.0236-.1729-.0146-.258.0022-.0224.0054-.043.009-.0651.015-.0789.0393-.1552.0788-.2252.0006-.0014.0012-.0028.0017-.0042.0011-.0028.0022-.0056.0039-.0082.0337-.0569.0749-.1104.1237-.1579L62.7091 6.47303c.0267-.02631.057-.04539.0876-.06459.0066-.00415.0132-.00831.0198-.01255.1719-.11436.3846-.16329.5994-.10573.2148.05757.3753.20647.4662.39125.0034.00654.0068.01304.0102.01954.0171.03251.0342.06502.045.10116ZM87.7929 54.7936c7.9413-2.1279 12.6541-10.2905 10.5261-18.2317-2.1279-7.9412-10.2904-12.6539-18.2317-10.526-7.9412 2.1278-12.6538 10.2904-10.526 18.2316 2.1278 7.9412 10.2904 12.6539 18.2316 10.5261Zm-3.8982-17.3963 4.8604 4.5071 3.1752 1.0741-8.8271-8.5352.7915 2.954Zm4.3951 5.9144-6.6978 1.7946-2.1481 2.1291 11.4084-3.0569-2.5625-.8668Zm-7.774.7729 1.9466-6.3041-.7915-2.954-3.2395 11.324 2.0844-2.0659Zm6.3368-1.9213-3.2585-3.0205-1.311 4.2449 4.5695-1.2244Zm-4.6429-10.6466 12.4309 12.0196c.1918.1858.2693.4606.2019.7189-.0665.2588-.2671.4614-.5256.5307L77.1303 49.391c-.0035.001-.007.0012-.0106.0014-.0038.0002-.0077.0004-.0117.0015-.0557.0127-.1124.0217-.1699.0218-.0154-.0001-.0303-.0026-.0453-.005-.0097-.0016-.0194-.0032-.0293-.0042-.0079-.0008-.0157-.0015-.0235-.0022-.0314-.0029-.0626-.0057-.0937-.014-.0139-.0038-.0271-.0096-.0404-.0156-.0098-.0043-.0197-.0087-.03-.0123-.0092-.0037-.0183-.0071-.0275-.0106-.0276-.0104-.0549-.0207-.0808-.0356-.026-.015-.0496-.0348-.073-.0545-.0085-.0072-.017-.0143-.0256-.0212-.0078-.0065-.0159-.0122-.024-.0178-.0113-.0079-.0227-.0158-.033-.026-.0001-.0003-.0002-.0005-.0003-.0006-.0001-.0002-.0003-.0004-.0008-.0007-.0002-.0007-.0002-.0007-.0011-.0012-.0622-.0632-.1068-.1379-.1416-.2161-.0093-.0206-.0169-.04-.0248-.0609-.0264-.0758-.0436-.1541-.0444-.2345a.03469.03469 0 0 0-.0006-.0045c-.0004-.0029-.0009-.0059-.0007-.009.0007-.0662.0097-.133.0282-.1986l4.7557-16.6248c.0098-.0361.0266-.0678.0435-.0997.0037-.0069.0073-.0139.0109-.0208.0917-.185.2514-.3337.4662-.3913.2148-.0575.4282-.0088.5994.1058.0062.0039.0124.0079.0186.0118.031.0196.0621.0392.0895.0651ZM41.8738 66.0888c7.1199 4.1107 16.2241 1.6712 20.3348-5.4487 4.1106-7.1199 1.6712-16.2241-5.4487-20.3348-7.1199-4.1106-16.2241-1.6712-20.3348 5.4487-4.1106 7.1199-1.6712 16.2241 5.4487 20.3348ZM51.4187 51.03l.2498 6.6238 1.4857 3.0048-.2064-12.277-1.5291 2.6484Zm-1.0755 7.2905-6.0051-3.4671-3.0244-.0134 10.2285 5.9054-1.199-2.4249Zm-6.0431-4.9498 5.8341-3.0813 1.5291-2.6484-10.298 5.7166 2.9348.0131Zm5.8406 3.121-.1683-4.4399-3.9286 2.0746 4.0969 2.3653Zm4.2448-10.8104.2908 17.2891c.0043.267-.1353.516-.3656.651-.23.136-.5151.1375-.7469.0037l-15.4091-8.8965c-.0031-.0018-.0057-.0041-.0084-.0065-.0029-.0025-.0057-.0051-.0094-.0072-.0483-.0304-.0948-.0641-.1355-.1048-.0108-.0109-.0196-.0232-.0285-.0355-.0057-.008-.0114-.016-.0178-.0237-.0049-.0061-.01-.0121-.015-.0181-.0202-.0243-.0402-.0483-.0564-.0762-.0071-.0125-.0123-.026-.0175-.0396-.0039-.01-.0078-.02-.0125-.03-.0039-.009-.0079-.0179-.012-.0268-.0121-.0269-.0242-.0535-.0319-.0824-.0078-.029-.0105-.0597-.0131-.0902-.001-.011-.0019-.0221-.0031-.033-.0009-.0102-.0027-.0199-.0044-.0296-.0024-.0136-.0049-.0272-.005-.0417.0004-.0007.0004-.0007.0001-.0017.0004-.0006.0004-.0006.0001-.0016.0007-.0887.0221-.1731.0528-.253.0079-.0211.0163-.0402.0255-.0605.0349-.0723.0782-.1398.1344-.1972.0029-.0035.0051-.0074.0086-.0105.0473-.0463.1009-.0873.1604-.1206l15.1183-8.3927c.0325-.0185.0668-.0291.1013-.0397.0074-.0023.0149-.0046.0224-.007.1956-.066.4137-.0582.6063.053.1926.1112.309.2966.349.4986.0016.0072.0032.0143.0048.0215.0081.0358.0162.0716.0173.1094Z" fill="#A0A5EB"/>
  <rect x=".556152" y="56.042" width="141.375" height="92.0259" rx="14.5878" fill="#D9CDFF"/>
  <path d="M91.8281 101.458c0-8.0567 6.5312-14.5879 14.5879-14.5879h29.3c8.056 0 14.587 6.5312 14.587 14.5879v.596c0 8.057-6.531 14.588-14.587 14.588h-29.3c-8.0567 0-14.5879-6.531-14.5879-14.588v-.596Z" fill="#A78AFF"/>
  <circle cx="106.758" cy="101.94" r="7.2939" fill="#EDE8FF"/>
  <path fill-rule="evenodd" clip-rule="evenodd" d="M65.7088 116.643c-8.2084 0-14.886-6.677-14.886-14.886 0-8.2083 6.6776-14.8859 14.886-14.8859 8.2085 0 14.8861 6.6776 14.8861 14.8859 0 8.209-6.6776 14.886-14.8861 14.886Zm-.3079-9.107c-.2443.28-.588.424-.9328.424-.2729 0-.5471-.089-.7741-.271l-6.2038-4.962c-.5346-.428-.6215-1.209-.1935-1.745.4292-.534 1.2108-.621 1.7429-.193l5.2759 4.22 7.9033-9.0296c.4515-.516 1.2343-.5681 1.7503-.1178.5148.4515.5669 1.2355.1154 1.7503l-8.6836 9.9241Z" fill="#fff"/>
</svg>
