<svg fill="none" xmlns="http://www.w3.org/2000/svg" viewBox="0 0 228 180">
  <g filter="url(#filter0_d)">
    <rect x="15.39" y="21.448" width="197" height="143" rx="7.544" fill="#fff"/>
    <path d="M15.39 28.991a7.544 7.544 0 017.543-7.543h181.913a7.544 7.544 0 017.544 7.543v31.457h-197V28.99z" fill="#F1F3F5"/>
    <circle cx="28.138" cy="34.075" r="3.772" fill="#CED4DA"/>
    <circle cx="39.721" cy="34.075" r="3.772" fill="#CED4DA"/>
    <circle cx="51.305" cy="34.075" r="3.772" fill="#CED4DA"/>
    <path fill="#CED4DA" d="M15.39 47.448h197v30h-197z"/>
    <rect x="30.909" y="54.977" width="165.96" height="15.087" rx="3.772" fill="#fff"/>
    <path fill-rule="evenodd" clip-rule="evenodd" d="M175.057 60.433l.188-.46s-.239-.255-.529-.545c-.29-.29-.904-.119-.904-.119l-.699-.792h-2.456l-.7.792s-.614-.17-.903.12c-.29.289-.529.544-.529.544l.187.46-.238.682s.702 2.657.784 2.981c.162.64.273.886.734 1.21.46.323 1.296.886 1.432.97.137.086.307.231.461.231.153 0 .324-.145.46-.23.137-.085.972-.648 1.433-.971.46-.324.571-.57.733-1.21.083-.324.785-2.981.785-2.981l-.239-.682z" fill="url(#paint0_linear)"/>
    <path fill-rule="evenodd" clip-rule="evenodd" d="M172.754 59.956c.103 0 .862-.145.862-.145s.899 1.087.899 1.319c0 .192-.077.267-.168.355l-.059.059-.674.715-.022.023c-.068.067-.167.167-.097.332l.015.034c.076.179.171.4.05.624-.128.239-.347.398-.488.371-.141-.026-.471-.199-.593-.277-.121-.08-.506-.396-.506-.518 0-.101.277-.27.411-.351l.06-.038.066-.041c.123-.076.345-.214.35-.275.007-.075.004-.097-.095-.283a3.034 3.034 0 00-.071-.126c-.094-.162-.2-.343-.176-.473.026-.147.256-.231.451-.302l.071-.027.203-.076c.195-.073.411-.154.447-.17.049-.023.037-.044-.113-.059l-.073-.007c-.185-.02-.526-.056-.692-.01l-.108.03c-.186.05-.415.112-.437.148a.09.09 0 01-.011.016c-.021.03-.034.05-.011.176l.039.204c.051.269.131.688.141.782l.005.038c.013.105.021.175-.101.203l-.032.007c-.137.032-.34.078-.413.078-.073 0-.275-.046-.413-.078l-.031-.007c-.122-.028-.114-.098-.101-.203l.004-.038c.011-.094.091-.514.143-.783l.038-.203c.023-.126.01-.146-.011-.176a.09.09 0 01-.011-.016c-.022-.036-.251-.098-.437-.148l-.108-.03c-.166-.046-.507-.01-.692.01l-.073.008c-.15.014-.162.035-.113.058.036.017.252.097.446.17a51.931 51.931 0 01.275.103c.195.07.425.155.451.302.023.13-.082.311-.176.473l-.072.126c-.099.186-.101.208-.094.283.005.061.227.199.35.275l.066.041c.012.009.033.021.06.038.134.081.411.25.411.351 0 .122-.385.439-.506.518-.122.078-.452.251-.593.277-.141.027-.36-.133-.488-.37-.121-.225-.026-.446.05-.625l.015-.034c.07-.165-.029-.265-.097-.332l-.022-.023-.674-.715-.059-.059c-.091-.088-.168-.163-.168-.355 0-.232.899-1.319.899-1.319s.759.145.862.145c.081 0 .239-.054.403-.11.042-.015.084-.03.125-.043.205-.068.341-.069.341-.069s.137 0 .342.069l.125.043c.164.056.322.11.403.11zm-.13 3.842c.161.082.274.141.318.168.055.035.021.1-.029.136a40.263 40.263 0 00-.826.645c-.063.058-.145.131-.202.131-.058 0-.139-.073-.203-.13a40.274 40.274 0 00-.825-.645c-.051-.036-.085-.102-.029-.137.043-.027.157-.086.317-.168l.153-.079c.24-.124.54-.23.587-.23.046 0 .346.106.586.23l.153.079z" fill="#fff"/>
    <path fill-rule="evenodd" clip-rule="evenodd" d="M173.812 59.309l-.699-.792h-2.456l-.699.792s-.614-.17-.904.12c0 0 .818-.075 1.1.383 0 0 .759.144.861.144.102 0 .324-.085.529-.153.204-.068.341-.069.341-.069s.136.001.341.07c.205.067.426.152.529.152.102 0 .861-.144.861-.144.281-.457 1.1-.384 1.1-.384-.29-.29-.904-.119-.904-.119z" fill="url(#paint1_linear)"/>
    <mask id="a" mask-type="alpha" maskUnits="userSpaceOnUse" x="169" y="58" width="6" height="2">
      <path fill-rule="evenodd" clip-rule="evenodd" d="M173.812 59.309l-.699-.792h-2.456l-.699.792s-.614-.17-.904.12c0 0 .818-.075 1.1.383 0 0 .759.144.861.144.102 0 .324-.085.529-.153.204-.068.341-.069.341-.069s.136.001.341.07c.205.067.426.152.529.152.102 0 .861-.144.861-.144.281-.457 1.1-.384 1.1-.384-.29-.29-.904-.119-.904-.119z" fill="#fff"/>
    </mask>
    <path fill-rule="evenodd" clip-rule="evenodd" d="M180.539 66.195l2.497-1.453 1.722-2.99v-2.88c-.045 0-.09.03-.125.089l-2.04 3.54-2.039 3.54c-.035.06-.038.115-.015.154z" fill="#FF4724"/>
    <path fill-rule="evenodd" clip-rule="evenodd" d="M184.759 58.871v2.882l1.722 2.989 2.497 1.453c.023-.04.02-.093-.015-.153l-2.039-3.54-2.04-3.541c-.034-.06-.08-.09-.125-.09z" fill="#9E1F63"/>
    <path fill-rule="evenodd" clip-rule="evenodd" d="M188.978 66.195l-2.498-1.453h-3.443l-2.498 1.453c.023.04.071.064.14.064h8.159c.069 0 .118-.024.14-.064z" fill="#662D91"/>
    <path fill-rule="evenodd" clip-rule="evenodd" d="M183.036 64.742h3.444l-1.722-2.99-1.722 2.99z" fill="#fff"/>
    <path d="M62.34 36.117a3.772 3.772 0 013.772-3.771h52.805a3.772 3.772 0 013.772 3.772v11.315h-60.35V36.117z" fill="#CED4DA"/>
    <rect x="38.453" y="87.205" width="26.403" height="26.403" rx="3.772" fill="#F1F3F5"/>
    <rect x="78.057" y="90.978" width="88.638" height="7.544" rx="3.772" fill="#F1F3F5"/>
    <rect x="78.057" y="106.064" width="88.638" height="7.544" rx="3.772" fill="#F1F3F5"/>
    <rect x="38.453" y="124.964" width="26.403" height="26.403" rx="3.772" fill="#F1F3F5"/>
    <rect x="78.057" y="128.696" width="88.638" height="7.544" rx="3.772" fill="#F1F3F5"/>
    <rect x="78.057" y="141.897" width="88.638" height="7.544" rx="3.772" fill="#F1F3F5"/>
    <path fill-rule="evenodd" clip-rule="evenodd" d="M191.098 105.948l-3.479-5.532v-3.015l6.229 10.381-2.75-1.834zm-7.639 1.222h6.836l2.219 1.48H180.87l2.589-1.48zm2.698-6.754l-3.462 5.507-2.512 1.435 5.974-9.957v3.015zm.731 1.585l2.333 3.708h-4.665l2.332-3.708zm9.399 7.003l-8.772-14.619c-.023-.038-.054-.068-.083-.1a.721.721 0 00-.544-.254c-.219 0-.409.1-.544.254-.029.032-.06.062-.082.1l-8.772 14.619a.76.76 0 00-.077.182c-.002.005-.002.009-.002.014a.707.707 0 00-.018.234l.008.065a.712.712 0 00.081.243v.001c.013.022.03.037.043.057.025.033.047.068.075.097.028.028.06.048.091.072.022.014.039.032.06.044.035.02.071.032.108.045.023.009.044.022.068.028a.739.739 0 00.168.023c.008 0 .014.003.022.003h17.543a.73.73 0 00.627-1.108z" fill="#737ADE"/>
    <path fill-rule="evenodd" clip-rule="evenodd" d="M178.484 92.448a.773.773 0 00-.773.773v1.548h-1.548a.773.773 0 000 1.547h1.548v1.547a.773.773 0 101.547 0v-1.547h1.547a.773.773 0 000-1.547h-1.547V93.22a.774.774 0 00-.774-.773z" fill="url(#paint2_linear)"/>
    <path fill-rule="evenodd" clip-rule="evenodd" d="M156.39 149.948c-16.89 0-26-13.841-26-19.5 0-5.659 9.11-19.5 26-19.5 16.889 0 26 13.841 26 19.5 0 5.659-9.111 19.5-26 19.5zm-.001-34.667c-14.698 0-21.666 12.166-21.666 15.167 0 3.001 6.968 15.166 21.666 15.166 14.699 0 21.667-12.165 21.667-15.166 0-3.001-6.968-15.167-21.667-15.167zm0 26c-5.974 0-10.833-4.859-10.833-10.833 0-5.973 4.859-10.833 10.833-10.833 5.973 0 10.833 4.86 10.833 10.833 0 5.974-4.86 10.833-10.833 10.833zm0-17.333a6.508 6.508 0 00-6.5 6.5c0 3.584 2.916 6.5 6.5 6.5 3.583 0 6.5-2.916 6.5-6.5s-2.917-6.5-6.5-6.5z" fill="url(#paint3_linear)"/>
    <path fill-rule="evenodd" clip-rule="evenodd" d="M90.745 84.32c2.494 3.53 3.978 7.82 3.978 12.461 0 11.947-9.721 21.667-21.667 21.667-11.947 0-21.666-9.72-21.666-21.667 0-11.217 8.565-20.466 19.499-21.556V70.78H68.72a2.166 2.166 0 010-4.333h8.668a2.166 2.166 0 010 4.333h-2.167v4.444c3.81.38 7.318 1.768 10.291 3.867l3.343-3.343a2.165 2.165 0 013.064 0l2.168 2.167a2.165 2.165 0 010 3.064l-3.343 3.34zm-17.689-4.872c-9.557 0-17.333 7.776-17.333 17.333 0 9.557 7.776 17.333 17.334 17.333 9.555 0 17.331-7.776 17.331-17.333 0-9.557-7.776-17.333-17.332-17.333zm0 21.667a4.34 4.34 0 01-4.335-4.334c0-.385.068-.752.163-1.11l-4.91-4.907a2.165 2.165 0 010-3.063 2.165 2.165 0 013.065 0l4.91 4.907a4.34 4.34 0 011.107-.16 4.339 4.339 0 014.333 4.333 4.34 4.34 0 01-4.333 4.334z" fill="url(#paint4_linear)"/>
    <path fill-rule="evenodd" clip-rule="evenodd" d="M119.448 104.133l-4.299-6.838V93.57l7.697 12.829-3.398-2.265zm-9.442 1.51h8.449l2.743 1.828h-14.391l3.199-1.828zm3.336-8.348l-4.279 6.806-3.105 1.774 7.384-12.306v3.726zm.903 1.959l2.883 4.582h-5.764l2.881-4.582zm11.615 8.655l-10.84-18.066c-.029-.047-.066-.085-.103-.125a.89.89 0 00-.672-.314.89.89 0 00-.672.314c-.036.04-.074.077-.102.125l-10.84 18.066a.984.984 0 00-.096.225l-.002.017a.881.881 0 00-.022.29c.003.027.005.052.01.079a.876.876 0 00.099.301l.001.002c.016.026.036.045.053.069.03.041.057.085.093.12.034.035.074.06.113.089.026.018.047.04.074.055.042.024.087.039.132.056.029.011.055.026.085.034a.913.913 0 00.207.028c.01 0 .018.004.027.004h21.68a.901.901 0 00.786-.459.9.9 0 00-.011-.91z" fill="#4C54D2"/>
    <path fill-rule="evenodd" clip-rule="evenodd" d="M104.162 87.448a.943.943 0 00-.943.943v1.886h-1.886a.943.943 0 100 1.885h1.886v1.886a.943.943 0 101.886 0v-1.886h1.885a.943.943 0 100-1.885h-1.885V88.39a.943.943 0 00-.943-.944z" fill="url(#paint5_linear)"/>
  </g>
  <defs>
    <linearGradient id="paint0_linear" x1="168.474" y1="66.564" x2="175.296" y2="66.564" gradientUnits="userSpaceOnUse">
      <stop stop-color="#F50"/>
      <stop offset=".41" stop-color="#F50"/>
      <stop offset=".582" stop-color="#FF2000"/>
      <stop offset="1" stop-color="#FF2000"/>
    </linearGradient>
    <linearGradient id="paint1_linear" x1="169.175" y1="59.951" x2="174.716" y2="59.951" gradientUnits="userSpaceOnUse">
      <stop stop-color="#FF452A"/>
      <stop offset="1" stop-color="#FF2000"/>
    </linearGradient>
    <linearGradient id="paint2_linear" x1="181.578" y1="98.636" x2="174.68" y2="93.634" gradientUnits="userSpaceOnUse">
      <stop stop-color="#BF14A2"/>
      <stop offset="1" stop-color="#F73A1C"/>
    </linearGradient>
    <linearGradient id="paint3_linear" x1="130.39" y1="110.948" x2="179.809" y2="152.982" gradientUnits="userSpaceOnUse">
      <stop stop-color="#4C54D2"/>
      <stop offset=".563" stop-color="#BF14A2"/>
      <stop offset="1" stop-color="#F73A1C"/>
    </linearGradient>
    <linearGradient id="paint4_linear" x1="51.39" y1="66.448" x2="106.728" y2="95.866" gradientUnits="userSpaceOnUse">
      <stop stop-color="#4C54D2"/>
      <stop offset=".563" stop-color="#BF14A2"/>
      <stop offset="1" stop-color="#F73A1C"/>
    </linearGradient>
    <linearGradient id="paint5_linear" x1="107.933" y1="94.991" x2="99.525" y2="88.894" gradientUnits="userSpaceOnUse">
      <stop stop-color="#BF14A2"/>
      <stop offset="1" stop-color="#F73A1C"/>
    </linearGradient>
    <filter id="filter0_d" x=".302" y=".453" width="227.175" height="179.162" filterUnits="userSpaceOnUse" color-interpolation-filters="sRGB">
      <feFlood flood-opacity="0" result="BackgroundImageFix"/>
      <feColorMatrix in="SourceAlpha" type="matrix" values="0 0 0 0 0 0 0 0 0 0 0 0 0 0 0 0 0 0 127 0"/>
      <feOffset/>
      <feGaussianBlur stdDeviation="7.544"/>
      <feColorMatrix type="matrix" values="0 0 0 0 0 0 0 0 0 0 0 0 0 0 0 0 0 0 0.12 0"/>
      <feBlend mode="normal" in2="BackgroundImageFix" result="effect1_dropShadow"/>
      <feBlend mode="normal" in="SourceGraphic" in2="effect1_dropShadow" result="shape"/>
    </filter>
  </defs>
</svg>
