<svg fill="none" xmlns="http://www.w3.org/2000/svg" viewBox="0 110 273 186">
  <path d="M136.228 222.172c110.826 0 110.826-110.826 110.826-110.826H25.401s0 110.826 110.827 110.826z" fill="url(#paint0_linear)" fill-opacity=".4"/>
  <mask id="a" mask-type="alpha" maskUnits="userSpaceOnUse" x="23" y="112" width="227" height="113">
    <path fill="#C4C4C4" d="M23.981 112.785h225.41v111.789H23.981z"/>
  </mask>
  <g mask="url(#a)">
    <path d="M34.404 111.822H28.91v1.604h-.645c.007.19.016.396.026.617l-1.601.075c.063 1.355.184 3.269.416 5.638l1.596-.156c.136 1.386.31 2.931.533 4.613l-1.59.211c.23 1.728.511 3.598.855 5.587l1.58-.273c.252 1.459.539 2.983.864 4.563l-1.57.323c.364 1.769.777 3.608 1.244 5.502l1.557-.384c.362 1.467.757 2.967 1.188 4.496l-1.543.435c.498 1.767 1.044 3.57 1.643 5.401l1.524-.498c.473 1.448.979 2.912 1.52 4.389l-1.506.551c.636 1.737 1.32 3.491 2.057 5.255l1.48-.618a119.989 119.989 0 001.87 4.248l-1.456.675c.781 1.685 1.611 3.374 2.494 5.061l1.42-.744c.712 1.358 1.457 2.714 2.238 4.065l-1.388.803a107.253 107.253 0 002.952 4.81l1.344-.875a101.427 101.427 0 002.61 3.818l-1.302.936a99.043 99.043 0 003.415 4.483l1.247-1.007a94.94 94.94 0 002.987 3.52l-1.197 1.067a93.741 93.741 0 003.878 4.095l1.13-1.137a90.571 90.571 0 003.366 3.179l-1.07 1.194a91.738 91.738 0 004.313 3.636l.995-1.258a89.173 89.173 0 003.68 2.76l-.93 1.307a91.184 91.184 0 004.693 3.122l.847-1.362a91.72 91.72 0 004.001 2.348l-.776 1.403a94.772 94.772 0 005.005 2.576l.692-1.447a95.688 95.688 0 004.2 1.884l-.621 1.478c1.71.719 3.468 1.4 5.274 2.042l.537-1.51c1.43.508 2.893.992 4.386 1.45l-.47 1.533c1.763.539 3.569 1.043 5.418 1.508l.391-1.556c1.493.375 3.015.725 4.567 1.049l-.327 1.569c1.791.374 3.622.712 5.492 1.013l.256-1.583c1.514.245 3.055.465 4.624.659l-.198 1.592c1.826.226 3.688.419 5.586.577l.133-1.598c1.524.126 3.072.23 4.645.31l-.081 1.602c1.844.093 3.721.155 5.632.183l.024-1.603a170.621 170.621 0 004.765 0l.024 1.603c1.91-.028 3.788-.09 5.632-.183l-.082-1.602a146.75 146.75 0 004.645-.31l.133 1.598c1.899-.158 3.76-.351 5.586-.577l-.197-1.592c1.568-.194 3.11-.414 4.624-.659l.255 1.583a120.77 120.77 0 005.493-1.013l-.327-1.569a115.88 115.88 0 004.566-1.049l.391 1.556c1.85-.465 3.655-.969 5.418-1.508l-.47-1.534c1.494-.457 2.956-.941 4.387-1.449l.537 1.51a100.837 100.837 0 005.274-2.042l-.621-1.478a96.048 96.048 0 004.2-1.884l.691 1.447a94.304 94.304 0 005.005-2.576l-.776-1.403a91.79 91.79 0 004.002-2.348l.847 1.362a91.374 91.374 0 004.692-3.122l-.929-1.307a89.07 89.07 0 003.68-2.76l.995 1.258a91.775 91.775 0 004.313-3.636l-1.071-1.194c1.159-1.04 2.28-2.1 3.366-3.179l1.13 1.137a93.447 93.447 0 003.878-4.095l-1.197-1.067a94.677 94.677 0 002.988-3.52l1.247 1.007a99.196 99.196 0 003.415-4.483l-1.303-.936a102.041 102.041 0 002.611-3.818l1.344.875a108.656 108.656 0 002.952-4.81l-1.388-.803a110.92 110.92 0 002.237-4.065l1.42.744a115.974 115.974 0 002.494-5.061l-1.454-.675c.657-1.419 1.28-2.837 1.869-4.248l1.48.618c.736-1.764 1.42-3.518 2.057-5.255l-1.506-.551a131.312 131.312 0 001.52-4.389l1.524.498a139.614 139.614 0 001.643-5.401l-1.544-.435c.432-1.529.827-3.029 1.189-4.496l1.556.384c.468-1.894.881-3.732 1.245-5.502l-1.571-.323c.326-1.58.612-3.104.865-4.563l1.58.273c.344-1.989.625-3.859.854-5.587l-1.589-.211c.223-1.682.397-3.227.533-4.613l1.596.156c.231-2.369.353-4.283.416-5.638l-1.602-.075c.011-.221.019-.427.027-.617h-.645v-1.604h-5.496v1.604h-4.579v-1.604h-5.496v1.604h-4.58v-1.604h-5.495v1.604h-4.58v-1.604h-5.495v1.604h-4.58v-1.604h-5.495v1.604h-4.58v-1.604h-5.495v1.604h-4.58v-1.604h-5.495v1.604h-4.58v-1.604h-5.496v1.604h-4.579v-1.604h-5.496v1.604h-4.579v-1.604h-5.496v1.604h-4.579v-1.604h-5.496v1.604h-4.579v-1.604h-5.496v1.604h-4.58v-1.604h-5.495v1.604h-4.58v-1.604h-5.495v1.604h-4.58v-1.604h-5.495v1.604h-4.58v-1.604H89.36v1.604h-4.58v-1.604h-5.496v1.604h-4.58v-1.604H69.21v1.604h-4.58v-1.604h-5.495v1.604h-4.58v-1.604H49.06v1.604h-4.58v-1.604h-5.495v1.604h-4.58v-1.604z" stroke="url(#paint1_linear)" stroke-opacity=".85" stroke-width="3.207" stroke-linejoin="round" stroke-dasharray="4.58 5.5"/>
  </g>
  <path d="M124.933 270.088l22.759.207 16.427 9.745-16.427-9.745-22.759-.207z" fill="#F0F1FF"/>
  <path d="M136.497 250.463l.178-19.021-.178 19.021z" fill="#FF4724"/>
  <path d="M147.692 270.295h.007l-11.202-19.831 11.195 19.831z" fill="#fff"/>
  <path d="M140.329 164.827l2.317.021 1.664.988-1.664-.988-2.317-.021z" fill="#F0F1FF"/>
  <path d="M141.509 162.837l.014-1.934-.014 1.934z" fill="#FF4724"/>
  <path d="M142.646 164.848l-1.137-2.012 1.137 2.012z" fill="#fff"/>
  <g filter="url(#filter0_d)">
    <path d="M150.802 229.36l-13.271-23.492a1.001 1.001 0 00-.817-.604l-.178 19.021 11.202 19.845 16.427 9.745a1.001 1.001 0 00-.093-1.009l-13.27-23.506z" fill="#9E1F63"/>
    <path d="M124.971 243.91l11.565-19.625.177-19.021a1.017 1.017 0 00-.5.18 1.014 1.014 0 00-.338.41l-13.697 23.236-13.697 23.243a1.02 1.02 0 00-.114 1.016l16.604-9.439z" fill="#FF4724"/>
    <path d="M124.971 243.91l-16.604 9.461a1.015 1.015 0 00.924.426l53.935.498a.998.998 0 00.523-.077.998.998 0 00.409-.336l-16.427-9.752-22.76-.22z" fill="#662D91"/>
    <path d="M136.535 224.285l-11.564 19.625 22.759.206-11.195-19.831z" fill="#fff"/>
  </g>
  <path d="M133.809 118.417l-2.409 4.627v2.489h-1.431v-2.489l-2.419-4.627h1.633l1.511 3.115 1.512-3.115h1.603zm3.543 1.462c.544 0 1.032.114 1.462.343.436.228.779.561 1.028.998.248.43.373.937.373 1.521 0 .585-.125 1.092-.373 1.522a2.577 2.577 0 01-1.028.998c-.43.229-.918.343-1.462.343a3.117 3.117 0 01-1.471-.343 2.577 2.577 0 01-1.018-.998c-.249-.43-.373-.937-.373-1.522 0-.584.124-1.091.373-1.521.248-.437.587-.77 1.018-.998a3.117 3.117 0 011.471-.343zm0 1.23c-.396 0-.732.141-1.008.423-.275.275-.413.679-.413 1.209 0 .531.138.938.413 1.22.276.276.612.413 1.008.413.397 0 .733-.137 1.008-.413.276-.282.413-.689.413-1.22 0-.53-.137-.934-.413-1.209a1.354 1.354 0 00-1.008-.423zm9.411-1.159v5.583h-1.422v-1.128a1.797 1.797 0 01-.735.887 2.177 2.177 0 01-1.17.312c-.645 0-1.159-.212-1.542-.635-.383-.423-.574-1.015-.574-1.774v-3.245h1.411v3.084c0 .443.114.789.343 1.038.228.242.537.363.927.363.41 0 .736-.131.978-.393.241-.262.362-.639.362-1.129v-2.963h1.422z" fill="#828597"/>
  <path fill-rule="evenodd" clip-rule="evenodd" d="M111.313 198.156c.699.544.824 1.551.28 2.25L95.264 221.37a1.375 1.375 0 00.24 1.929l3.076 2.396c.835.65.653 1.96-.328 2.358l-12.745 5.171a1.374 1.374 0 01-1.878-1.463l1.894-13.623a1.375 1.375 0 012.206-.895l3.076 2.396a1.375 1.375 0 001.929-.24l16.329-20.964a1.603 1.603 0 012.25-.279zM126.578 283.613a1.375 1.375 0 01-2.065 1.186l-11.897-6.903a1.374 1.374 0 01.005-2.38l11.926-6.853a1.375 1.375 0 012.059 1.195l-.008 3.899a1.376 1.376 0 001.372 1.378l35.011.072a1.604 1.604 0 01-.007 3.207l-35.011-.072a1.373 1.373 0 00-1.377 1.371l-.008 3.9zM171.342 215.566a1.375 1.375 0 01-2.194-.924l-1.715-13.648a1.374 1.374 0 011.897-1.438l12.677 5.339a1.374 1.374 0 01.296 2.362l-3.107 2.355a1.374 1.374 0 00-.265 1.926l16.051 21.177a1.603 1.603 0 11-2.555 1.937l-16.052-21.177a1.375 1.375 0 00-1.926-.265l-3.107 2.356z" fill="#CFC0FF"/>
  <circle cx="60.056" cy="226.185" r="8.736" fill="#212529"/>
  <path d="M56.549 232.878h7.014s.016 3.17.579 5.066c.71 2.394 3.321 5.066 3.321 5.066H52.648s2.1-3.087 2.861-5.066c.762-1.978 1.04-5.066 1.04-5.066z" fill="#F1DDCE"/>
  <path d="M60.056 235.952c-3.877 0-7.02-5.986-7.02-9.863a7.02 7.02 0 1114.041 0c0 3.877-3.143 9.863-7.02 9.863z" fill="#F6E5D9"/>
  <path d="M46.631 244.574a4.68 4.68 0 014.654-5.177h17.542a4.68 4.68 0 014.654 5.177l-2.902 27.21a4.68 4.68 0 01-4.654 4.184H54.187a4.68 4.68 0 01-4.654-4.184l-2.902-27.21z" fill="#662D91"/>
  <path fill-rule="evenodd" clip-rule="evenodd" d="M70.76 273.999a.923.923 0 01-.738-.503.778.778 0 01-1.21-.721l.185-1.97.002-.022.002-.022v-.011a2.34 2.34 0 114.115 1.763.924.924 0 01-1.376.8.924.924 0 01-.98.686z" fill="#F1DDCE"/>
  <path fill-rule="evenodd" clip-rule="evenodd" d="M59.17 222.968a3.9 3.9 0 10-3.522-5.58 3.9 3.9 0 00-4.809 4.707 3.9 3.9 0 104.981 2.772 3.913 3.913 0 002.327-2.035c.326.089.669.136 1.023.136z" fill="#212529"/>
  <path d="M76.017 255.807a3.12 3.12 0 00-2.785-3.605l-.321-.03a3.12 3.12 0 00-3.415 3.047l-.28 14.673a2.242 2.242 0 004.458.4l2.343-14.485z" fill="#F1DDCE"/>
  <path d="M69.55 243.905l2.958 11.04" stroke="#662D91" stroke-width="7.801" stroke-linecap="round"/>
  <path fill-rule="evenodd" clip-rule="evenodd" d="M64.118 237.861c-1.145-.261-2.54-.414-4.046-.414-1.751 0-3.352.207-4.584.55-.17.431-.4.911-.655 1.4h-1.724a.8.8 0 00-.074.332c0 1.261 3.15 2.282 7.037 2.282 3.886 0 7.036-1.021 7.036-2.282a.8.8 0 00-.074-.332h-2.27c-.26-.48-.48-.973-.622-1.454l-.024-.082z" fill="#F1DDCE"/>
  <path d="M39.549 253.791a3.12 3.12 0 011.841-4.166l.304-.107a3.12 3.12 0 014.046 2.141l3.783 14.18a2.244 2.244 0 01-4.232 1.456l-5.742-13.504z" fill="#F1DDCE"/>
  <path d="M50.726 243.512l-8.081 8.081" stroke="#662D91" stroke-width="7.801" stroke-linecap="round"/>
  <path fill-rule="evenodd" clip-rule="evenodd" d="M50.615 271.204a.78.78 0 00.48-.993l-1.306-3.742a2.34 2.34 0 10-3.573 2.699l.023.077a.925.925 0 001.505.37.926.926 0 001.537.133l.34.977a.78.78 0 00.994.479z" fill="#F1DDCE"/>
  <path d="M214.532 231.887h7.99s.018 3.17.659 5.066c.81 2.394 3.784 5.066 3.784 5.066h-16.876s2.391-3.087 3.259-5.066c.867-1.978 1.184-5.066 1.184-5.066z" fill="#F1DDCE"/>
  <path d="M218.527 235.351c-3.878 0-7.411-6.376-7.411-10.254 0-3.877 3.533-7.41 7.411-7.41 3.877 0 7.41 3.533 7.41 7.41 0 3.878-3.533 10.254-7.41 10.254z" fill="#F6E5D9"/>
  <path d="M205.102 243.583a4.68 4.68 0 014.654-5.177h17.541a4.68 4.68 0 014.654 5.177l-2.902 27.21a4.68 4.68 0 01-4.654 4.184h-11.737a4.68 4.68 0 01-4.654-4.184l-2.902-27.21z" fill="#9E1F63"/>
  <path d="M239.38 259.53a3.12 3.12 0 00-.371-4.58l-.144-.112a3.12 3.12 0 00-4.555.792l-5.376 8.496a2.29 2.29 0 003.615 2.781l6.831-7.377z" fill="#9E1F63"/>
  <path fill-rule="evenodd" clip-rule="evenodd" d="M227.753 268.569a.923.923 0 01-.352-.821.781.781 0 01-.634-1.259l1.25-1.605a2.34 2.34 0 112.522 3.698.923.923 0 01-1.59-.065.923.923 0 01-1.196.052z" fill="#F1DDCE"/>
  <path d="M228.257 242.88l8.187 13.812" stroke="#9E1F63" stroke-width="7.801" stroke-linecap="round"/>
  <path d="M200.766 255.606a3.12 3.12 0 012.856-3.548l.322-.024a3.12 3.12 0 013.353 3.115l-.016 14.675a2.242 2.242 0 01-4.464.312l-2.051-14.53z" fill="#9E1F63"/>
  <path fill-rule="evenodd" clip-rule="evenodd" d="M205.554 273.717a.919.919 0 00.654-.345.78.78 0 001.337-.601l-.168-2.269c-.001-.019-.004-.037-.006-.056a2.34 2.34 0 10-4.143 1.738.925.925 0 001.359.827c.103.433.508.74.967.706z" fill="#F1DDCE"/>
  <path d="M208.694 242.516l-4.144 10.651" stroke="#9E1F63" stroke-width="7.801" stroke-linecap="round"/>
  <path d="M218.233 242.418l-5.656-4.012h11.313l-5.657 4.012z" fill="#F1DDCE"/>
  <path d="M223.895 238.405l-5.659 4.011 3.131 3.537 3.903-7.548h-1.375zM212.575 238.405l5.659 4.011-3.131 3.537-3.903-7.548h1.375z" fill="#7C194E"/>
  <path fill-rule="evenodd" clip-rule="evenodd" d="M213.118 219.012c1.026-1.096 2.118-1.441 3.77-1.74 1.223-.221 1.989-.234 3.208 0 1.592.305 2.453.792 3.601 1.74.182.15.377.283.565.411.383.26.735.501.887.829.366.295.719.855.936 1.545.23.735.023 1.253-.153 1.693-.096.241-.183.459-.183.675-.542.17-1.271-.614-1.628-1.751a4.4 4.4 0 01-.15-.635c-.352.09-.746.149-1.136.207-.107.015-.214.031-.319.048-.689.107-1.209-.045-1.748-.202-.455-.133-.924-.27-1.516-.256-.706.016-1.231.192-1.755.368-.535.179-1.068.358-1.79.364-.291.003-.586.019-.878.034-.619.034-1.221.066-1.727-.032l-.047.161c-.357 1.138-1.087 1.922-1.629 1.752 0-.233-.09-.458-.188-.703-.175-.436-.376-.938-.147-1.665.215-.685.565-1.242.928-1.539.199-.36.53-.707.873-1.066l.226-.238z" fill="#000"/>
  <circle cx="133" cy="141.838" r="4.508" fill="#000"/>
  <circle cx="133" cy="141.838" r="4.508" fill="#000"/>
  <circle cx="133" cy="141.838" r="4.508" fill="#000"/>
  <circle cx="140.801" cy="143.788" r="4.508" fill="#000"/>
  <circle cx="140.801" cy="143.788" r="4.508" fill="#000"/>
  <circle cx="140.801" cy="143.788" r="4.508" fill="#000"/>
  <path d="M133.697 148.488h7.623s.017 3.169.629 5.066c.772 2.393 3.609 5.066 3.609 5.066h-16.1s2.282-3.088 3.109-5.066c.828-1.978 1.13-5.066 1.13-5.066z" fill="#F1DDCE"/>
  <path d="M137.509 151.561c-5.599 0-7.021-5.986-7.021-9.863a7.02 7.02 0 1114.041 0c0 3.877-1.422 9.863-7.02 9.863z" fill="#F6E5D9"/>
  <path d="M124.083 160.183a4.68 4.68 0 014.654-5.177h17.542a4.68 4.68 0 014.654 5.177l-2.902 27.21a4.68 4.68 0 01-4.654 4.184h-11.738a4.681 4.681 0 01-4.654-4.184l-2.902-27.21z" fill="#FF4724"/>
  <path fill-rule="evenodd" clip-rule="evenodd" d="M147.362 185.57a.923.923 0 01-.53-.72.78.78 0 01-.905-1.081l.826-1.798.009-.019.009-.019.005-.012.019-.039a2.34 2.34 0 113.282 3.063l-.03.075a.924.924 0 01-1.533.226.926.926 0 01-1.152.324zM127.727 185.57a.924.924 0 00.53-.72.78.78 0 00.905-1.08l-.826-1.799-.009-.019-.009-.019-.005-.012-.019-.037a2.34 2.34 0 10-3.282 3.061l.03.075a.924.924 0 001.532.226.927.927 0 001.153.324z" fill="#F1DDCE"/>
  <path d="M158.327 170.465a3.121 3.121 0 00-1.376-4.342l-.291-.139a3.121 3.121 0 00-4.255 1.688l-5.305 13.683a2.242 2.242 0 004.047 1.908l7.18-12.798zM116.762 170.465a3.12 3.12 0 011.376-4.342l.291-.139a3.121 3.121 0 014.255 1.688l5.305 13.683a2.243 2.243 0 01-4.048 1.908l-7.179-12.798z" fill="#F1DDCE"/>
  <path d="M147.289 159.381l8.081 8.082M127.8 159.381l-8.081 8.082" stroke="#FF4724" stroke-width="7.801" stroke-linecap="round"/>
  <path d="M138.867 158.744c-.293.29-.44.435-.591.528-.479.296-1.08.31-1.573.038-.156-.086-.309-.223-.616-.498l-4.245-3.809h10.809l-3.784 3.741z" fill="#F1DDCE"/>
  <path d="M128.588 135.043c1.151-.757 2.148-.768 3.495-.48 2.243.48 1.574-1.743 3.42-2.145 1.638-.357 3.824.096 5.489.295 2.3.276 3.193 1.941 4.523 3.838 1.193 1.701 2.819 3.03 1.988 4.934-.753 1.722-2.495 2.58-4.318 2.125-1.823-.456-1.258-2.847-2.81-3.907-2.262-1.543-4.32-1.156-6.99-.548-2.031.462-2.932 2.428-4.797 1.502-1.537-.762-2.087-1.541-1.714-3.215.251-1.124.752-1.766 1.714-2.399z" fill="#000"/>
  <path fill-rule="evenodd" clip-rule="evenodd" d="M44.766 197.638a.909.909 0 01-.648.269.915.915 0 01-.648-1.564l2.823-2.824c-2.995-1.924-4.018-4.585-4.018-5.692 0-2.393 3.853-8.246 10.996-8.246 2.75 0 4.485.834 5.445 1.516l3.08-3.08a.916.916 0 111.296 1.295l-18.326 18.326zm6.042-8.633l3.646-3.646a2.737 2.737 0 00-1.183-.28 2.753 2.753 0 00-2.749 2.749c0 .412.111.809.286 1.177zm2.463-7.591c-6.216 0-9.163 5.144-9.163 6.413 0 .409.654 2.686 3.521 4.356l1.868-1.867c-.064-.06-.14-.104-.186-.183a4.576 4.576 0 01-.621-2.305 4.587 4.587 0 014.581-4.581c.906 0 1.778.277 2.523.772l1.596-1.596c-.756-.468-2.064-1.009-4.119-1.009zm0 10.994a.916.916 0 01-.06-1.83 3.021 3.021 0 002.81-2.811.922.922 0 01.975-.853.915.915 0 01.855.973 4.86 4.86 0 01-4.52 4.52l-.06.001zm-2.528 1.53c.8.2 1.65.303 2.528.303 6.216 0 9.163-5.144 9.163-6.414 0-.383-.396-1.628-1.623-3.029a.916.916 0 111.379-1.207c1.261 1.441 2.077 3.104 2.077 4.236 0 2.393-3.853 8.246-10.996 8.246-1.029 0-2.03-.12-2.976-.359a.917.917 0 11.448-1.776zM208.892 197.638a.91.91 0 01-.648.269.915.915 0 01-.648-1.564l2.823-2.824c-2.995-1.924-4.018-4.585-4.018-5.692 0-2.393 3.853-8.246 10.996-8.246 2.751 0 4.485.834 5.445 1.516l3.08-3.08a.916.916 0 011.296 1.295l-18.326 18.326zm6.042-8.633l3.646-3.646a2.74 2.74 0 00-1.183-.28 2.753 2.753 0 00-2.749 2.749c0 .412.111.809.286 1.177zm2.463-7.591c-6.216 0-9.163 5.144-9.163 6.413 0 .409.654 2.686 3.521 4.356l1.868-1.867c-.064-.06-.14-.104-.186-.183a4.575 4.575 0 01-.622-2.305 4.588 4.588 0 014.582-4.581c.906 0 1.778.277 2.523.772l1.596-1.596c-.756-.468-2.064-1.009-4.119-1.009zm-.001 10.994a.916.916 0 01-.058-1.83 3.021 3.021 0 002.81-2.811.922.922 0 01.974-.853.915.915 0 01.855.973 4.86 4.86 0 01-4.52 4.52l-.061.001zm-2.527 1.53c.799.2 1.65.303 2.528.303 6.216 0 9.163-5.144 9.163-6.414 0-.383-.397-1.628-1.623-3.029a.915.915 0 111.379-1.207c1.261 1.441 2.077 3.104 2.077 4.236 0 2.393-3.853 8.246-10.996 8.246-1.029 0-2.03-.12-2.976-.359a.916.916 0 11.448-1.776z" fill="#A78AFF"/>
  <path d="M37.383 289.659v2.641H35.96v-7.116h2.59c.84 0 1.472.201 1.896.604.43.404.645.951.645 1.643 0 .679-.222 1.22-.665 1.623-.437.403-1.062.605-1.875.605h-1.17zm1.018-1.139c.833 0 1.25-.363 1.25-1.089 0-.356-.098-.628-.293-.816-.195-.188-.514-.282-.957-.282h-1.018v2.187H38.4zm9.158-1.804v5.584h-1.422v-1.129a1.799 1.799 0 01-.735.887 2.175 2.175 0 01-1.17.312c-.645 0-1.159-.212-1.542-.635-.383-.423-.574-1.015-.574-1.774v-3.245h1.41v3.084c0 .443.115.789.344 1.038.228.242.537.363.927.363.41 0 .736-.131.978-.393.241-.262.362-.639.362-1.129v-2.963h1.422zm4.83-.071c.47 0 .893.114 1.27.343.376.228.668.561.877.998.215.43.322.937.322 1.522 0 .584-.107 1.095-.322 1.532-.209.43-.501.759-.877.987-.377.229-.8.343-1.27.343s-.874-.111-1.21-.333a1.879 1.879 0 01-.706-.907v1.17h-1.42v-7.459h1.42v3.034c.142-.377.377-.676.706-.897.336-.222.74-.333 1.21-.333zm-.444 1.24c-.43 0-.786.148-1.068.443-.276.289-.413.682-.413 1.18 0 .49.137.883.413 1.179.282.289.638.433 1.068.433.444 0 .8-.141 1.069-.423.268-.289.403-.685.403-1.189s-.135-.901-.404-1.19c-.268-.289-.624-.433-1.068-.433zm5.541-3.044v7.459h-1.42v-7.459h1.42zm1.327.272c0-.228.08-.413.241-.554.162-.148.373-.222.635-.222.263 0 .474.074.635.222a.701.701 0 01.242.554c0 .222-.08.407-.242.554-.16.141-.372.212-.635.212-.262 0-.473-.071-.635-.212a.718.718 0 01-.242-.554zm1.582 1.603v5.584h-1.421v-5.584h1.421zm3.412-.071c.679 0 1.223.171 1.633.514.41.343.665.8.766 1.371h-1.33a1.104 1.104 0 00-.363-.645c-.188-.161-.434-.242-.736-.242-.242 0-.43.057-.564.171a.579.579 0 00-.202.464c0 .154.054.279.161.373.108.094.242.168.404.222.16.053.393.117.695.191.423.094.766.195 1.028.302.269.101.497.266.685.494.195.222.293.524.293.908 0 .477-.188.863-.565 1.159-.37.295-.87.443-1.502.443-.725 0-1.306-.161-1.743-.484-.437-.329-.702-.796-.797-1.401h1.361a.935.935 0 00.363.655c.208.155.48.232.816.232.242 0 .427-.057.555-.171a.612.612 0 00.191-.464.5.5 0 00-.171-.393 1.071 1.071 0 00-.413-.232 9.915 9.915 0 00-.696-.191 8.925 8.925 0 01-1.018-.282 1.711 1.711 0 01-.665-.474c-.181-.215-.272-.511-.272-.887 0-.484.185-.877.554-1.179.37-.303.88-.454 1.532-.454zm7.056-.01c.645 0 1.16.212 1.542.635.383.423.575 1.018.575 1.784v3.246h-1.411v-3.085c0-.443-.115-.786-.343-1.028-.229-.248-.541-.373-.938-.373-.403 0-.725.131-.967.393s-.363.639-.363 1.129v2.964h-1.421v-7.459h1.421v2.993c.148-.376.39-.668.726-.876a2.172 2.172 0 011.179-.323zm8.82 2.661c0 .141-.017.302-.05.484H75.54c.02.497.155.863.404 1.098.248.236.557.353.927.353.33 0 .601-.08.816-.242.222-.161.363-.379.424-.655h1.501a2.4 2.4 0 01-.473 1.048 2.471 2.471 0 01-.938.726 2.952 2.952 0 01-1.26.262c-.544 0-1.028-.114-1.451-.343a2.474 2.474 0 01-.988-.997c-.235-.43-.352-.938-.352-1.522 0-.585.117-1.092.352-1.522.235-.437.565-.77.988-.998.423-.229.907-.343 1.452-.343.55 0 1.03.114 1.44.343.417.228.737.544.958.947.229.397.343.85.343 1.361zm-1.431-.141c.02-.457-.101-.803-.363-1.038a1.343 1.343 0 00-.947-.353c-.384 0-.706.117-.968.353-.262.235-.407.581-.434 1.038h2.712zm4.063-1.371a2.3 2.3 0 01.826-.837 2.171 2.171 0 011.15-.312v1.522h-.414c-1.042 0-1.562.484-1.562 1.451v2.692h-1.421v-5.584h1.42v1.068zM196.018 291.057h-2.852l-.504 1.431h-1.502l2.621-7.036h1.622l2.611 7.036h-1.502l-.494-1.431zm-.383-1.079l-1.048-3.004-1.048 3.004h2.096zm5.535-3.145c.47 0 .87.111 1.199.333.336.222.578.521.726.897v-3.034h1.411v7.459h-1.411v-1.169a1.93 1.93 0 01-.726.907c-.329.221-.729.332-1.199.332a2.4 2.4 0 01-1.27-.342 2.353 2.353 0 01-.887-.988c-.208-.437-.313-.948-.313-1.532 0-.585.105-1.092.313-1.522.215-.437.51-.77.887-.998a2.4 2.4 0 011.27-.343zm.443 1.24c-.443 0-.799.145-1.068.433-.269.289-.403.686-.403 1.19 0 .504.134.9.403 1.189.269.282.625.424 1.068.424.43 0 .783-.145 1.059-.434.282-.296.423-.689.423-1.179 0-.497-.141-.891-.423-1.179-.276-.296-.629-.444-1.059-.444zm6.812 2.994l1.411-4.163h1.512l-2.067 5.584h-1.733l-2.066-5.584h1.521l1.422 4.163zm9.166-1.583c0 .141-.017.303-.051.484h-4.092c.02.497.154.863.403 1.099.249.235.558.352.927.352.33 0 .602-.08.817-.242.222-.161.363-.379.423-.655h1.502a2.41 2.41 0 01-1.411 1.774 2.95 2.95 0 01-1.26.262c-.544 0-1.028-.114-1.451-.342a2.478 2.478 0 01-.988-.998c-.235-.43-.353-.938-.353-1.522 0-.585.118-1.092.353-1.522a2.39 2.39 0 01.988-.998 3.011 3.011 0 011.451-.343c.551 0 1.031.115 1.441.343.417.228.736.544.958.947.228.397.343.85.343 1.361zm-1.432-.141c.02-.457-.101-.803-.363-1.038a1.346 1.346 0 00-.947-.353c-.383 0-.706.118-.968.353s-.406.581-.433 1.038h2.711zm4.063-1.371c.208-.356.484-.635.827-.836a2.16 2.16 0 011.149-.313v1.522h-.414c-1.041 0-1.562.484-1.562 1.452v2.691h-1.421v-5.584h1.421v1.068zm5.947 3.296v1.22h-.746c-.624 0-1.105-.151-1.441-.454-.329-.302-.494-.806-.494-1.512v-2.419h-.776v-1.199h.776v-1.381h1.421v1.381h1.25v1.199h-1.25v2.439c0 .269.054.457.162.565.107.107.289.161.544.161h.554zm1.063-5.967c0-.228.081-.413.242-.554.161-.148.373-.222.635-.222s.474.074.635.222a.702.702 0 01.242.554.723.723 0 01-.242.555c-.161.141-.373.211-.635.211s-.474-.07-.635-.211a.723.723 0 01-.242-.555zm1.583 1.603v5.584h-1.421v-5.584h1.421zm3.412-.071c.679 0 1.223.172 1.633.514.41.343.665.8.766 1.371h-1.33a1.107 1.107 0 00-.363-.645c-.188-.161-.434-.242-.736-.242-.242 0-.43.057-.565.172a.576.576 0 00-.201.463c0 .155.054.279.161.373.108.094.242.168.403.222.162.054.393.117.696.191.423.094.766.195 1.028.303a1.6 1.6 0 01.685.494c.195.221.293.524.293.907 0 .477-.189.863-.565 1.159-.369.296-.87.443-1.502.443-.725 0-1.307-.161-1.743-.483-.437-.33-.703-.797-.797-1.401h1.361a.942.942 0 00.363.655c.208.154.48.231.816.231.242 0 .427-.057.555-.171a.612.612 0 00.191-.463.501.501 0 00-.171-.394 1.073 1.073 0 00-.413-.231 9.337 9.337 0 00-.696-.192 8.955 8.955 0 01-1.018-.282 1.712 1.712 0 01-.665-.474c-.182-.215-.272-.511-.272-.887 0-.484.185-.877.554-1.179.37-.303.88-.454 1.532-.454zm8.981 2.651c0 .141-.017.303-.05.484h-4.093c.021.497.155.863.404 1.099.248.235.557.352.927.352.329 0 .601-.08.816-.242.222-.161.363-.379.424-.655h1.501a2.407 2.407 0 01-1.411 1.774 2.95 2.95 0 01-1.26.262c-.544 0-1.028-.114-1.451-.342a2.485 2.485 0 01-.988-.998c-.235-.43-.353-.938-.353-1.522 0-.585.118-1.092.353-1.522.235-.437.565-.77.988-.998a3.011 3.011 0 011.451-.343c.551 0 1.032.115 1.442.343.416.228.736.544.957.947.229.397.343.85.343 1.361zm-1.431-.141c.02-.457-.101-.803-.363-1.038a1.347 1.347 0 00-.948-.353c-.383 0-.705.118-.967.353s-.407.581-.434 1.038h2.712zm4.063-1.371c.208-.356.483-.635.826-.836a2.164 2.164 0 011.149-.313v1.522h-.413c-1.042 0-1.562.484-1.562 1.452v2.691h-1.422v-5.584h1.422v1.068z" fill="#828597"/>
  <defs>
    <linearGradient id="paint0_linear" x1="136.228" y1="223.036" x2="136.228" y2="113.481" gradientUnits="userSpaceOnUse">
      <stop stop-color="#D9CDFF"/>
      <stop offset=".854" stop-color="#D9CDFF" stop-opacity="0"/>
    </linearGradient>
    <linearGradient id="paint1_linear" x1="140.352" y1="224.115" x2="142.642" y2="108.203" gradientUnits="userSpaceOnUse">
      <stop offset=".03" stop-color="#C2C6F5"/>
      <stop offset="1" stop-color="#C2C6F5" stop-opacity="0"/>
    </linearGradient>
    <filter id="filter0_d" x="100.951" y="197.933" width="70.639" height="63.699" filterUnits="userSpaceOnUse" color-interpolation-filters="sRGB">
      <feFlood flood-opacity="0" result="BackgroundImageFix"/>
      <feColorMatrix in="SourceAlpha" type="matrix" values="0 0 0 0 0 0 0 0 0 0 0 0 0 0 0 0 0 0 127 0"/>
      <feOffset/>
      <feGaussianBlur stdDeviation="3.665"/>
      <feColorMatrix type="matrix" values="0 0 0 0 0.407843 0 0 0 0 0.411765 0 0 0 0 0.470588 0 0 0 0.16 0"/>
      <feBlend mode="normal" in2="BackgroundImageFix" result="effect1_dropShadow"/>
      <feBlend mode="normal" in="SourceGraphic" in2="effect1_dropShadow" result="shape"/>
    </filter>
  </defs>
</svg>
