<svg fill="none" xmlns="http://www.w3.org/2000/svg" viewBox="0 0 226 225">
  <g filter="url(#filter0_d)">
    <rect x="14.225" y="20.595" width="170" height="122" rx="6.534" fill="#fff"/>
    <path d="M14.225 27.13a6.534 6.534 0 016.534-6.535H177.69a6.535 6.535 0 016.535 6.534v25.466h-170V27.129z" fill="#F1F3F5"/>
    <circle cx="24.698" cy="30.426" r="3.267" fill="#CED4DA"/>
    <circle cx="34.732" cy="30.426" r="3.267" fill="#CED4DA"/>
    <circle cx="44.765" cy="30.426" r="3.267" fill="#CED4DA"/>
    <path fill="#CED4DA" d="M14.03 41.328h169.893v26.137H14.03z"/>
    <rect x="27.099" y="47.862" width="143.756" height="13.069" rx="3.267" fill="#fff"/>
    <path fill-rule="evenodd" clip-rule="evenodd" d="M152.477 52.59l.163-.4s-.207-.22-.458-.471c-.252-.251-.783-.104-.783-.104l-.606-.686h-2.128l-.605.686s-.532-.147-.783.104c-.251.25-.458.472-.458.472l.162.398-.207.59s.609 2.302.68 2.583c.14.553.236.767.635 1.048.399.28 1.123.767 1.241.841.118.074.266.2.399.2s.281-.126.399-.2c.118-.074.842-.56 1.241-.841.399-.28.495-.495.635-1.048.072-.281.68-2.582.68-2.582l-.207-.59z" fill="url(#paint0_linear)"/>
    <path fill-rule="evenodd" clip-rule="evenodd" d="M150.483 52.176c.089 0 .746-.125.746-.125s.779.94.779 1.142c0 .166-.067.23-.145.308a1.157 1.157 0 00-.051.05l-.584.62c-.006.006-.013.012-.019.02-.059.058-.145.144-.084.287l.012.03c.067.155.149.346.045.54-.112.207-.302.345-.424.322-.121-.023-.408-.172-.513-.24-.105-.069-.439-.344-.439-.449 0-.088.24-.233.357-.304a2.579 2.579 0 00.109-.069c.106-.066.298-.185.303-.238.006-.065.004-.084-.082-.245-.018-.034-.04-.071-.062-.109-.081-.14-.173-.297-.153-.41.023-.127.223-.2.391-.262l.062-.022.176-.066c.168-.063.356-.134.387-.148.042-.02.031-.038-.098-.05a4.618 4.618 0 01-.063-.007c-.16-.017-.456-.048-.6-.008l-.093.025c-.162.044-.359.097-.379.128a.165.165 0 01-.009.015c-.018.026-.03.042-.01.152l.033.177c.045.232.115.595.123.677l.004.033c.011.09.019.151-.087.176l-.028.006a2.626 2.626 0 01-.357.068c-.063 0-.239-.04-.358-.068l-.028-.006c-.105-.024-.098-.085-.087-.176a.34.34 0 00.004-.033c.009-.082.079-.446.123-.678l.034-.176c.02-.11.008-.127-.01-.152l-.01-.015c-.019-.03-.217-.084-.378-.128l-.094-.025c-.143-.04-.439-.009-.599.008l-.063.007c-.13.012-.141.03-.098.05.031.014.218.084.387.148l.176.066.061.022c.169.062.368.135.391.262.02.113-.071.27-.153.41a2.999 2.999 0 00-.061.109c-.086.16-.088.18-.082.245.004.053.196.172.303.238l.057.036.052.033c.116.07.356.216.356.304 0 .105-.333.38-.438.448-.106.069-.392.218-.514.24-.122.024-.312-.114-.423-.32-.104-.195-.022-.386.044-.541a.329.329 0 01.013-.03c.06-.143-.026-.23-.084-.288l-.019-.02-.584-.619a1.157 1.157 0 00-.051-.05c-.079-.077-.146-.142-.146-.308 0-.201.779-1.142.779-1.142s.658.125.746.125c.071 0 .208-.047.35-.096l.108-.037c.178-.059.296-.06.296-.06s.118.001.295.06l.109.037c.142.05.279.096.349.096zm-.113 3.328c.139.071.238.122.275.145.048.03.019.087-.025.118s-.634.488-.692.538l-.023.021c-.055.05-.126.113-.175.113-.05 0-.121-.063-.176-.113l-.023-.02c-.058-.051-.648-.508-.692-.539-.044-.03-.073-.088-.025-.118.037-.023.136-.074.275-.145l.132-.069c.209-.107.468-.199.509-.199.04 0 .299.092.508.2l.132.068z" fill="#fff"/>
    <path fill-rule="evenodd" clip-rule="evenodd" d="M151.399 51.615l-.606-.686h-2.127l-.606.686s-.532-.147-.783.104c0 0 .709-.064.953.332 0 0 .658.125.746.125.089 0 .281-.074.458-.133.178-.059.296-.06.296-.06s.118.001.295.06c.178.06.37.133.458.133.089 0 .746-.125.746-.125.244-.396.953-.332.953-.332-.251-.251-.783-.104-.783-.104z" fill="url(#paint1_linear)"/>
    <mask id="a" mask-type="alpha" maskUnits="userSpaceOnUse" x="147" y="50" width="6" height="3">
      <path fill-rule="evenodd" clip-rule="evenodd" d="M151.399 51.615l-.606-.686h-2.127l-.606.686s-.532-.147-.783.104c0 0 .709-.064.953.332 0 0 .658.125.746.125.089 0 .281-.074.458-.133.178-.059.296-.06.296-.06s.118.001.295.06c.178.06.37.133.458.133.089 0 .746-.125.746-.125.244-.396.953-.332.953-.332-.251-.251-.783-.104-.783-.104z" fill="#fff"/>
    </mask>
    <path fill-rule="evenodd" clip-rule="evenodd" d="M156.251 59.752l3.64-2.118 2.509-4.355v-4.2c-.066 0-.133.044-.183.131l-2.972 5.16-2.972 5.158c-.05.087-.054.166-.022.224z" fill="#FF4724"/>
    <path fill-rule="evenodd" clip-rule="evenodd" d="M162.399 49.08v4.199l2.509 4.355 3.64 2.118c.033-.058.028-.137-.022-.224l-2.972-5.159-2.972-5.159c-.05-.087-.117-.13-.183-.13z" fill="#9E1F63"/>
    <path fill-rule="evenodd" clip-rule="evenodd" d="M168.549 59.752l-3.64-2.118h-5.018l-3.639 2.118c.033.057.103.093.204.093h11.889c.1 0 .171-.036.204-.093z" fill="#662D91"/>
    <path fill-rule="evenodd" clip-rule="evenodd" d="M159.891 57.634h5.018l-2.509-4.355-2.509 4.355z" fill="#fff"/>
    <path d="M54.324 31.527a3.267 3.267 0 013.267-3.268h45.741a3.267 3.267 0 013.267 3.268v9.801H54.324v-9.801z" fill="#CED4DA"/>
    <rect x="33.633" y="75.779" width="22.87" height="22.87" rx="3.267" fill="#F1F3F5"/>
    <rect x="67.939" y="79.047" width="76.778" height="6.534" rx="3.267" fill="#F1F3F5"/>
    <rect x="67.939" y="92.115" width="76.778" height="6.534" rx="3.267" fill="#F1F3F5"/>
    <rect x="33.633" y="108.486" width="22.87" height="22.87" rx="3.267" fill="#F1F3F5"/>
    <rect x="67.939" y="111.719" width="76.778" height="6.534" rx="3.267" fill="#F1F3F5"/>
    <rect x="67.939" y="123.153" width="76.778" height="6.534" rx="3.267" fill="#F1F3F5"/>
    <path d="M187.409 65.948h-20.425l-2.849-4.77a1.176 1.176 0 00-.439-.427 1.229 1.229 0 00-1.201 0c-.183.102-.335.25-.44.427l-2.848 4.77H104.04a4.897 4.897 0 00-3.405 1.366 4.588 4.588 0 00-1.41 3.296v116.323a4.59 4.59 0 001.41 3.297 4.898 4.898 0 003.405 1.365h83.369a4.898 4.898 0 003.405-1.365 4.59 4.59 0 001.411-3.297V70.61a4.588 4.588 0 00-1.411-3.296 4.897 4.897 0 00-3.405-1.366z" fill="#fff"/>
    <rect x="108.225" y="144.595" width="76" height="24" rx="12" fill="url(#paint2_linear)"/>
    <path d="M125.93 158.989c0 .448-.116.86-.348 1.236-.224.376-.56.676-1.008.9-.44.224-.976.336-1.608.336-.952 0-1.736-.232-2.352-.696-.616-.464-.952-1.112-1.008-1.944h2.184c.032.32.144.572.336.756.2.184.452.276.756.276.264 0 .472-.072.624-.216a.756.756 0 00.228-.576.733.733 0 00-.216-.54 1.504 1.504 0 00-.516-.348 10.004 10.004 0 00-.864-.336c-.536-.184-.976-.36-1.32-.528a2.569 2.569 0 01-.876-.768c-.24-.344-.36-.788-.36-1.332 0-.504.128-.94.384-1.308a2.406 2.406 0 011.056-.84c.456-.2.976-.3 1.56-.3.944 0 1.692.224 2.244.672.56.448.876 1.064.948 1.848h-2.22c-.04-.28-.144-.5-.312-.66-.16-.168-.38-.252-.66-.252-.24 0-.436.064-.588.192-.144.128-.216.316-.216.564 0 .2.064.372.192.516.136.136.304.248.504.336.2.088.488.2.864.336.544.184.988.368 1.332.552.344.176.64.436.888.78.248.344.372.792.372 1.344zm3.546-4.464v1.776h2.868v1.548h-2.868v1.884h3.228v1.644h-5.28v-8.484h5.28v1.632h-3.228zm12.29 6.852h-2.052l-3.432-5.208v5.208h-2.052v-8.484h2.052l3.432 5.256v-5.256h2.052v8.484zm9.409-4.26c0 .832-.18 1.572-.54 2.22a3.704 3.704 0 01-1.536 1.5c-.664.36-1.448.54-2.352.54h-3.204v-8.484h3.204c.912 0 1.7.176 2.364.528a3.646 3.646 0 011.524 1.488c.36.64.54 1.376.54 2.208zm-4.608 2.424c.8 0 1.42-.212 1.86-.636.448-.424.672-1.02.672-1.788s-.224-1.364-.672-1.788c-.44-.424-1.06-.636-1.86-.636h-.972v4.848h.972zm14.995-6.648v1.632h-2.304v6.852h-2.064v-6.852h-2.28v-1.632h6.648zm3.277 0v8.484h-2.052v-8.484h2.052zm3.829 5.508v2.976h-2.052v-8.484h3.324c1.008 0 1.776.252 2.304.756.528.496.792 1.168.792 2.016 0 .528-.12 1-.36 1.416-.232.408-.58.732-1.044.972-.464.232-1.028.348-1.692.348h-1.272zm1.044-1.644c.824 0 1.236-.364 1.236-1.092 0-.744-.412-1.116-1.236-1.116h-1.044v2.208h1.044z" fill="#FFF3F3"/>
    <g filter="url(#filter1_d)">
      <path d="M204.888 176.884l-25.43-15.044a3.025 3.025 0 00-1.549-.442 2.965 2.965 0 00-1.541.421c-.466.279-.85.682-1.11 1.167a3.17 3.17 0 00-.374 1.593l.57 29.943a3.223 3.223 0 00.397 1.613c.27.493.664.904 1.14 1.19a3.02 3.02 0 001.563.436 2.96 2.96 0 001.55-.442l5.596-3.349a2.95 2.95 0 012.315-.294c.388.109.752.296 1.072.55.32.253.589.568.791.927l4.726 8.332a5.188 5.188 0 003.089 2.376 4.92 4.92 0 003.794-.501 5.032 5.032 0 002.274-3.105 5.29 5.29 0 00-.533-3.881l-4.806-8.428a3.161 3.161 0 01-.344-2.388 3.05 3.05 0 01.528-1.095c.246-.324.555-.593.906-.79l5.596-3.349a3.077 3.077 0 001.042-1.191 3.227 3.227 0 00.334-1.57 3.28 3.28 0 00-.46-1.549 3.202 3.202 0 00-1.136-1.13z" fill="#fff"/>
    </g>
    <mask id="b" mask-type="alpha" maskUnits="userSpaceOnUse" x="82" y="36" width="127" height="79">
      <path d="M208.355 75.628c0 21.557-28.235 39.033-63.065 39.033S82.225 97.185 82.225 75.628c0-21.557 28.235-39.033 63.065-39.033s63.065 17.476 63.065 39.033z" fill="#C4C4C4"/>
    </mask>
    <g mask="url(#b)">
      <path d="M187.434 65.83H166.99l-2.851-4.933a1.204 1.204 0 00-1.041-.603 1.2 1.2 0 00-1.041.603l-2.851 4.932H103.99a4.82 4.82 0 00-4.82 4.82v120.28a4.818 4.818 0 004.82 4.82h83.444a4.82 4.82 0 004.82-4.82V70.649a4.82 4.82 0 00-4.82-4.82z" fill="#C3AFFF"/>
      <path fill-rule="evenodd" clip-rule="evenodd" d="M110.244 94.49l3.327-1.935 2.294-3.982v-3.84c-.061 0-.121.04-.167.12l-2.717 4.717-2.717 4.717c-.046.08-.05.151-.02.204z" fill="#FF4724"/>
      <path fill-rule="evenodd" clip-rule="evenodd" d="M115.865 84.734v3.839l2.294 3.982 3.327 1.936c.03-.053.026-.125-.02-.204l-2.717-4.717-2.717-4.717c-.046-.08-.106-.12-.167-.12z" fill="#9E1F63"/>
      <path fill-rule="evenodd" clip-rule="evenodd" d="M121.486 94.49l-3.327-1.935h-4.588l-3.327 1.936c.03.052.095.085.186.085h10.87c.092 0 .156-.032.186-.085z" fill="#662D91"/>
      <path fill-rule="evenodd" clip-rule="evenodd" d="M113.571 92.555h4.588l-2.294-3.982-2.294 3.982z" fill="#fff"/>
      <path d="M131.849 87.443h-4.02v2.136c.184-.216.436-.388.756-.516a2.793 2.793 0 011.08-.204c.584 0 1.068.128 1.452.384.392.248.68.584.864 1.008.192.416.288.88.288 1.392 0 .904-.256 1.628-.768 2.172-.504.544-1.228.816-2.172.816-.616 0-1.152-.108-1.608-.324a2.625 2.625 0 01-1.068-.924 2.766 2.766 0 01-.42-1.392h1.644c.064.36.212.648.444.864.232.208.54.312.924.312.464 0 .808-.14 1.032-.42.232-.288.348-.668.348-1.14 0-.448-.12-.796-.36-1.044s-.58-.372-1.02-.372c-.32 0-.592.072-.816.216-.224.136-.388.32-.492.552h-1.644v-5.004h5.556v1.488zm7.161-.132l-3.096 7.284h-1.752l3.132-7.092h-3.924v-1.452h5.64v1.26zm2.794 5.52v1.764h-1.824v-1.764h1.824zm1.535-4.776c0-.408.112-.788.336-1.14.232-.352.572-.636 1.02-.852.456-.216 1.004-.324 1.644-.324.64 0 1.184.108 1.632.324.456.216.796.5 1.02.852.232.352.348.732.348 1.14 0 .464-.112.86-.336 1.188-.224.32-.56.56-1.008.72.504.192.888.472 1.152.84.272.36.408.8.408 1.32 0 .56-.14 1.044-.42 1.452-.28.4-.664.704-1.152.912-.48.208-1.028.312-1.644.312-.616 0-1.168-.104-1.656-.312a2.635 2.635 0 01-1.14-.912c-.272-.408-.408-.892-.408-1.452 0-.52.132-.96.396-1.32.272-.368.66-.648 1.164-.84-.448-.16-.788-.404-1.02-.732-.224-.328-.336-.72-.336-1.176zm1.668.276c0 .384.12.68.36.888.24.208.564.312.972.312.416 0 .744-.104.984-.312.24-.208.36-.504.36-.888s-.124-.68-.372-.888c-.24-.216-.564-.324-.972-.324-.4 0-.724.108-.972.324-.24.208-.36.504-.36.888zm-.228 3.696c0 .424.14.76.42 1.008.28.248.66.372 1.14.372.48 0 .86-.124 1.14-.372.288-.248.432-.584.432-1.008 0-.432-.148-.76-.444-.984-.288-.232-.664-.348-1.128-.348-.456 0-.832.116-1.128.348-.288.224-.432.552-.432.984zm13.722-1.812c.52.112.94.36 1.26.744.328.384.492.836.492 1.356 0 .688-.236 1.24-.708 1.656-.464.416-1.14.624-2.028.624h-3.144v-8.46h3.096c.848 0 1.492.188 1.932.564.44.376.66.892.66 1.548 0 .544-.148.984-.444 1.32-.288.336-.66.552-1.116.648zm-3.036-.372h1.824c.536 0 .944-.124 1.224-.372.288-.248.432-.596.432-1.044 0-.432-.14-.772-.42-1.02-.28-.248-.708-.372-1.284-.372h-1.776v2.808zm1.848 3.84c.576 0 1.02-.132 1.332-.396.32-.264.48-.636.48-1.116 0-.472-.164-.84-.492-1.104-.32-.272-.768-.408-1.344-.408h-1.824v3.024h1.848zm9.618-1.044h-3.72l-.708 1.956h-1.176l3.132-8.304h1.236l3.12 8.304h-1.176l-.708-1.956zm-.312-.852l-1.548-4.272-1.548 4.272h3.096zm8.846-5.652v.888h-2.388v7.572h-1.092v-7.572h-2.388v-.888h5.868z" fill="#fff"/>
    </g>
  </g>
  <defs>
    <linearGradient id="paint0_linear" x1="146.774" y1="57.899" x2="152.684" y2="57.899" gradientUnits="userSpaceOnUse">
      <stop stop-color="#F50"/>
      <stop offset=".41" stop-color="#F50"/>
      <stop offset=".582" stop-color="#FF2000"/>
      <stop offset="1" stop-color="#FF2000"/>
    </linearGradient>
    <linearGradient id="paint1_linear" x1="147.383" y1="52.172" x2="152.182" y2="52.172" gradientUnits="userSpaceOnUse">
      <stop stop-color="#FF452A"/>
      <stop offset="1" stop-color="#FF2000"/>
    </linearGradient>
    <linearGradient id="paint2_linear" x1="108.225" y1="144.595" x2="132.725" y2="194.089" gradientUnits="userSpaceOnUse">
      <stop stop-color="#4C54D2"/>
      <stop offset=".563" stop-color="#BF14A2"/>
      <stop offset="1" stop-color="#F73A1C"/>
    </linearGradient>
    <filter id="filter0_d" x=".962" y=".634" width="227.332" height="224.029" filterUnits="userSpaceOnUse" color-interpolation-filters="sRGB">
      <feFlood flood-opacity="0" result="BackgroundImageFix"/>
      <feColorMatrix in="SourceAlpha" type="matrix" values="0 0 0 0 0 0 0 0 0 0 0 0 0 0 0 0 0 0 127 0"/>
      <feOffset/>
      <feGaussianBlur stdDeviation="6.534"/>
      <feColorMatrix type="matrix" values="0 0 0 0 0 0 0 0 0 0 0 0 0 0 0 0 0 0 0.12 0"/>
      <feBlend mode="normal" in2="BackgroundImageFix" result="effect1_dropShadow"/>
      <feBlend mode="normal" in="SourceGraphic" in2="effect1_dropShadow" result="shape"/>
    </filter>
    <filter id="filter1_d" x="159.478" y="148.519" width="61.038" height="71.663" filterUnits="userSpaceOnUse" color-interpolation-filters="sRGB">
      <feFlood flood-opacity="0" result="BackgroundImageFix"/>
      <feColorMatrix in="SourceAlpha" type="matrix" values="0 0 0 0 0 0 0 0 0 0 0 0 0 0 0 0 0 0 127 0"/>
      <feOffset dy="1"/>
      <feGaussianBlur stdDeviation="4"/>
      <feColorMatrix type="matrix" values="0 0 0 0 0.207778 0 0 0 0 0.237222 0 0 0 0 0.266667 0 0 0 0.35 0"/>
      <feBlend mode="normal" in2="BackgroundImageFix" result="effect1_dropShadow"/>
      <feBlend mode="normal" in="SourceGraphic" in2="effect1_dropShadow" result="shape"/>
    </filter>
  </defs>
</svg>
