<svg fill="none" xmlns="http://www.w3.org/2000/svg" viewBox="0 0 201 95">
  <g filter="url(#a)">
    <rect x="60" y="8" width="104" height="79" rx="4" fill="#fff"/>
    <path d="M60 12c0-2.20914 1.7909-4 4-4h96c2.209 0 4 1.79086 4 4v20H60V12Z" fill="#F1F3F5"/>
    <path fill="#CED4DA" d="M60 24.9102h104v16H60z"/>
    <rect x="68" y="28.9102" width="88" height="8" rx="2" fill="#fff"/>
    <circle cx="66.5303" cy="15.1758" r="2" fill="#CED4DA"/>
    <circle cx="72.6719" cy="15.1758" r="2" fill="#CED4DA"/>
    <circle cx="78.8145" cy="15.1758" r="2" fill="#CED4DA"/>
    <path d="M84.666 18.9102c0-1.1046.8954-2 2-2h28c1.105 0 2 .8954 2 2v6h-32v-6Z" fill="#CED4DA"/>
    <rect x="72" y="46" width="14" height="14" rx="2" fill="#F1F3F5"/>
    <rect x="72" y="66.0215" width="14" height="14" rx="2" fill="#F1F3F5"/>
    <rect x="93" y="48" width="47" height="4" rx="2" fill="#F1F3F5"/>
    <rect x="93" y="68" width="47" height="4" rx="2" fill="#F1F3F5"/>
    <rect x="93" y="56" width="47" height="4" rx="2" fill="#F1F3F5"/>
    <rect x="93" y="75" width="47" height="4" rx="2" fill="#F1F3F5"/>
  </g>
  <g filter="url(#b)">
    <rect x="49" y="25.5" width="49.5" height="17" rx="4" fill="#fff"/>
  </g>
  <rect x="65.5" y="29.5" width="26.5" height="2" rx="1" fill="#A78AFF"/>
  <rect x="65.5" y="33.5" width="23" height="2" rx="1" fill="#D0D2F7"/>
  <rect x="65.5" y="37.5" width="22" height="2" rx="1" fill="#D0D2F7"/>
  <path fill-rule="evenodd" clip-rule="evenodd" d="m52.5578 38.0845 2.9276-1.7199 2.0184-3.5372V29.417c-.0533 0-.1065.0355-.1469.1061l-2.3908 4.1899-2.3906 4.19c-.0402.0707-.0441.1348-.0177.1815Z" fill="#FF4724"/>
  <path fill-rule="evenodd" clip-rule="evenodd" d="M57.5039 29.417v3.4104l2.0182 3.5372 2.9277 1.7199c.0265-.0467.0226-.1108-.0177-.1815l-2.3906-4.19-2.3908-4.1899c-.0404-.0707-.0937-.1061-.1468-.1061Z" fill="#9E1F63"/>
  <path fill-rule="evenodd" clip-rule="evenodd" d="m62.4497 38.0841-2.9276-1.7198h-4.0366l-2.9276 1.7198c.0263.0469.0831.0759.1639.0759h9.5639c.0808 0 .1376-.029.164-.0759Z" fill="#662D91"/>
  <path fill-rule="evenodd" clip-rule="evenodd" d="M55.4856 36.3643h4.0366l-2.0183-3.5372-2.0183 3.5372Z" fill="#fff"/>
  <g filter="url(#c)">
    <rect x="124" y="56.5" width="49.5" height="17" rx="4" fill="#fff"/>
  </g>
  <rect x="140.5" y="60.5" width="26.5" height="2" rx="1" fill="#A78AFF"/>
  <rect x="140.5" y="64.5" width="23" height="2" rx="1" fill="#D0D2F7"/>
  <rect x="140.5" y="68.5" width="22" height="2" rx="1" fill="#D0D2F7"/>
  <path fill-rule="evenodd" clip-rule="evenodd" d="m127.558 69.0845 2.927-1.7199 2.019-3.5372V60.417c-.053 0-.107.0355-.147.1061l-2.391 4.1899-2.39 4.19c-.041.0707-.045.1348-.018.1815Z" fill="#FF4724"/>
  <path fill-rule="evenodd" clip-rule="evenodd" d="M132.504 60.417v3.4104l2.018 3.5372 2.928 1.7199c.026-.0467.022-.1108-.018-.1815l-2.391-4.19-2.39-4.1899c-.041-.0707-.094-.1061-.147-.1061Z" fill="#9E1F63"/>
  <path fill-rule="evenodd" clip-rule="evenodd" d="m137.45 69.0841-2.928-1.7198h-4.036l-2.928 1.7198c.026.0469.083.0759.164.0759h9.564c.08 0 .137-.029.164-.0759Z" fill="#662D91"/>
  <path fill-rule="evenodd" clip-rule="evenodd" d="M130.486 67.3643h4.036l-2.018-3.5372-2.018 3.5372Z" fill="#fff"/>
  <circle cx="186.402" cy="24.9018" r="1.22741" stroke="#AEB1C2" stroke-width=".348726"/>
  <circle cx="198.726" cy="32.9272" r="1.22741" stroke="#AEB1C2" stroke-width=".348726"/>
  <path d="m195.627 44.5042-.005.008-.087.1456-.052.0871.144-.2407Zm0 0 .255.1524.204.122.014-.023-.473-.2514Zm-3.122-1.4993.02-.0355.114-.1986c-.058-.0209-.122-.0215-.181-.0016-.062.021-.115.0633-.148.1191l.195.1166Zm0 0-.017.029-.114.1996.131-.2286Zm2.988-.8215.019.0242-.019-.0242Zm0 0-.14-.1791.14.1791Zm.044.0313-.005.0039.005-.0039Zm0 0 .002-.0014-.002.0014Zm.907 1.9645Zm-.928-1.9718v.0008-.0008Zm-2.231 3.7577Z" fill="#AEB1C2" stroke="#AEB1C2" stroke-width="3.06854"/>
  <path fill-rule="evenodd" clip-rule="evenodd" d="M178.091 44.8779c3.989-1.0686 6.355-5.168 5.287-9.1563-1.069-3.9883-5.168-6.3551-9.157-5.2865-3.988 1.0687-6.355 5.1681-5.286 9.1564 1.069 3.9883 5.168 6.3551 9.156 5.2864Zm-1.959-8.7382 2.441 2.2636 1.595.5395-4.433-4.2866.397 1.4835Zm2.209 2.9704-3.364.9013-1.079 1.0693 5.73-1.5352-1.287-.4354Zm-3.906.3879.978-3.1661-.397-1.4835-1.627 5.6872 1.046-1.0376Zm3.183-.9652-1.637-1.517-.658 2.1319 2.295-.6149Zm-2.331-5.3455 6.243 6.0366c.096.0933.135.2313.101.361-.033.13-.134.2317-.264.2665l-8.631 2.3128c-.002.0005-.004.0006-.005.0007-.002.0001-.004.0002-.006.0008-.028.0063-.057.0109-.086.0109-.007 0-.015-.0013-.022-.0025-.005-.0008-.01-.0016-.015-.0021-.004-.0004-.008-.0008-.012-.0011-.016-.0015-.031-.0029-.047-.007-.007-.002-.013-.0049-.02-.0079-.005-.0021-.01-.0043-.015-.0062-.005-.0018-.009-.0035-.014-.0052-.014-.0053-.028-.0104-.041-.018-.013-.0075-.025-.0174-.036-.0273-.005-.0036-.009-.0072-.013-.0107-.004-.0032-.008-.0061-.012-.0089-.006-.004-.012-.0079-.017-.0131v-.0009c-.001-.0001-.001-.0002-.001-.0003-.031-.0317-.054-.0693-.071-.1086-.005-.0103-.008-.0201-.012-.0306-.014-.038-.022-.0773-.023-.1177V41.8017c0-.0332.004-.0668.014-.0997l2.388-8.3494c.005-.0181.014-.0341.022-.0501.002-.0035.004-.0069.005-.0104.047-.0929.127-.1676.235-.1965.108-.0289.215-.0045.301.0531.003.002.006.0039.009.0059.016.0099.031.0197.045.0327ZM29.0913 27.3779c3.9883-1.0686 6.3551-5.168 5.2865-9.1563-1.0687-3.9883-5.1681-6.3551-9.1564-5.2865-3.9883 1.0687-6.3551 5.1681-5.2864 9.1564 1.0686 3.9883 5.1681 6.3551 9.1563 5.2864Zm-1.9591-8.7382 2.4409 2.2636 1.5947.5395-4.4332-4.2866.3976 1.4835Zm2.2084 2.9704-3.3638.9013-1.0788 1.0693 5.7295-1.5352-1.2869-.4354Zm-3.9052.3879.9777-3.1661-.3976-1.4835-1.6269 5.6872 1.0468-1.0376Zm3.1825-.9652-1.6365-1.517-.6584 2.1319 2.2949-.6149Zm-2.331-5.3455 6.2432 6.0366c.0963.0933.1352.2313.1013.361-.0334.13-.1341.2317-.2639.2665l-8.6316 2.3128c-.0017.0005-.0035.0006-.0053.0007-.0019.0001-.0038.0002-.0058.0008-.028.0063-.0565.0109-.0854.0109-.0077 0-.0152-.0013-.0227-.0025-.0049-.0008-.0098-.0016-.0148-.0021-.0039-.0004-.0078-.0008-.0117-.0011-.0158-.0015-.0315-.0029-.0471-.007-.007-.002-.0136-.0049-.0203-.0079-.0049-.0021-.0099-.0043-.0151-.0062-.0046-.0018-.0092-.0035-.0137-.0052-.0139-.0053-.0276-.0104-.0407-.018-.013-.0075-.0248-.0174-.0366-.0273-.0043-.0036-.0086-.0072-.0129-.0107-.0039-.0032-.008-.0061-.012-.0089-.0057-.004-.0114-.0079-.0166-.0131 0-.0001-.0001-.0002-.0001-.0003-.0001-.0001-.0002-.0001-.0005-.0003 0-.0002 0-.0002-.0001-.0003 0-.0001-.0001-.0002-.0004-.0003-.0313-.0317-.0537-.0693-.0711-.1086-.0047-.0103-.0085-.0201-.0124-.0306-.0133-.038-.0219-.0773-.0223-.1177a.121493.121493 0 0 0-.0003-.0022c-.0003-.0015-.0005-.003-.0004-.0046.0003-.0332.0048-.0668.0141-.0997l2.3884-8.3494c.005-.0181.0134-.0341.0219-.0501a.521923.521923 0 0 0 .0055-.0104c.046-.0929.1262-.1676.2341-.1965.1079-.0289.2151-.0045.301.0531.0032.002.0063.0039.0094.0059.0156.0099.0312.0197.0449.0327ZM36.2527 62.7092c2.6079-.6988 4.1556-3.3794 3.4568-5.9874-.6988-2.6079-3.3794-4.1556-5.9874-3.4568-2.6079.6988-4.1556 3.3794-3.4568 5.9874.6988 2.6079 3.3794 4.1556 5.9874 3.4568Zm-1.281-5.7146 1.5962 1.4801 1.0427.3528-2.8988-2.803.2599.9701Zm1.4441 1.9423-2.1996.5894-.7054.6992 3.7465-1.0039-.8415-.2847Zm-2.5536.2537.6393-2.0703-.26-.9701-1.0638 3.7188.6845-.6784Zm2.0811-.6312-1.0702-.992-.4305 1.3941 1.5007-.4021Zm-1.5244-3.4955 4.0824 3.9473c.063.061.0884.1512.0663.2361-.0219.085-.0877.1515-.1726.1743l-5.6443 1.5123c-.0011.0003-.0023.0004-.0034.0005-.0013 0-.0025.0001-.0039.0005-.0183.0041-.0369.0071-.0558.0071-.005 0-.0099-.0008-.0148-.0016-.0032-.0006-.0064-.0011-.0097-.0014-.0025-.0003-.0051-.0005-.0077-.0007-.0103-.001-.0205-.0019-.0308-.0046-.0045-.0013-.0088-.0032-.0132-.0051-.0032-.0015-.0065-.0029-.0099-.0041-.003-.0012-.006-.0023-.009-.0035-.0091-.0034-.018-.0068-.0266-.0117-.0085-.0049-.0162-.0114-.0239-.0179-.0028-.0023-.0056-.0047-.0084-.0069-.0026-.0022-.0052-.004-.0079-.0059-.0037-.0026-.0074-.0052-.0109-.0085 0-.0002 0-.0002-.0003-.0004-.0001-.0003-.0001-.0003-.0004-.0004-.0204-.0208-.035-.0453-.0465-.071-.003-.0067-.0055-.0131-.0081-.02-.0087-.0249-.0143-.0506-.0146-.077 0-.0005-.0001-.001-.0002-.0015-.0001-.0009-.0003-.0019-.0002-.0029a.252245.252245 0 0 1 .0092-.0653l1.5618-5.4597c.0033-.0118.0088-.0222.0143-.0327a.421731.421731 0 0 1 .0036-.0068c.0301-.0608.0826-.1096.1531-.1285.0706-.0189.1406-.0029.1969.0347.002.0013.004.0026.0061.0039.0102.0064.0204.0129.0294.0214Z" fill="#737ADE"/>
  <defs>
    <filter id="a" x="52" y="0" width="120" height="95" filterUnits="userSpaceOnUse" color-interpolation-filters="sRGB">
      <feFlood flood-opacity="0" result="BackgroundImageFix"/>
      <feColorMatrix in="SourceAlpha" type="matrix" values="0 0 0 0 0 0 0 0 0 0 0 0 0 0 0 0 0 0 127 0" result="hardAlpha"/>
      <feOffset/>
      <feGaussianBlur stdDeviation="4"/>
      <feColorMatrix type="matrix" values="0 0 0 0 0 0 0 0 0 0 0 0 0 0 0 0 0 0 0.12 0"/>
      <feBlend mode="normal" in2="BackgroundImageFix" result="effect1_dropShadow_1043_21355"/>
      <feBlend mode="normal" in="SourceGraphic" in2="effect1_dropShadow_1043_21355" result="shape"/>
    </filter>
    <filter id="b" x="42" y="19.5" width="63.5" height="31" filterUnits="userSpaceOnUse" color-interpolation-filters="sRGB">
      <feFlood flood-opacity="0" result="BackgroundImageFix"/>
      <feColorMatrix in="SourceAlpha" type="matrix" values="0 0 0 0 0 0 0 0 0 0 0 0 0 0 0 0 0 0 127 0" result="hardAlpha"/>
      <feOffset dy="1"/>
      <feGaussianBlur stdDeviation="3.5"/>
      <feColorMatrix type="matrix" values="0 0 0 0 0 0 0 0 0 0 0 0 0 0 0 0 0 0 0.18 0"/>
      <feBlend mode="normal" in2="BackgroundImageFix" result="effect1_dropShadow_1043_21355"/>
      <feBlend mode="normal" in="SourceGraphic" in2="effect1_dropShadow_1043_21355" result="shape"/>
    </filter>
    <filter id="c" x="117" y="50.5" width="63.5" height="31" filterUnits="userSpaceOnUse" color-interpolation-filters="sRGB">
      <feFlood flood-opacity="0" result="BackgroundImageFix"/>
      <feColorMatrix in="SourceAlpha" type="matrix" values="0 0 0 0 0 0 0 0 0 0 0 0 0 0 0 0 0 0 127 0" result="hardAlpha"/>
      <feOffset dy="1"/>
      <feGaussianBlur stdDeviation="3.5"/>
      <feColorMatrix type="matrix" values="0 0 0 0 0 0 0 0 0 0 0 0 0 0 0 0 0 0 0.18 0"/>
      <feBlend mode="normal" in2="BackgroundImageFix" result="effect1_dropShadow_1043_21355"/>
      <feBlend mode="normal" in="SourceGraphic" in2="effect1_dropShadow_1043_21355" result="shape"/>
    </filter>
  </defs>
</svg>
