<svg xmlns="http://www.w3.org/2000/svg" width="125" height="111" fill="none"><circle cx="65" cy="50" r="49.4" stroke="url(#a)" stroke-opacity=".2" stroke-width="1.2"/><circle cx="65" cy="50" r="38.5" stroke="url(#b)" stroke-opacity=".2"/><circle cx="65" cy="50" r="28.6" stroke="url(#c)" stroke-opacity=".2" stroke-width=".8"/><g filter="url(#d)"><path fill="#fff" d="M32.903 27.449a2.487 2.487 0 1 0 1.287-4.805 2.487 2.487 0 0 0-1.287 4.805Z"/></g><path fill="#AAA8F7" fill-rule="evenodd" d="M34.597 26.25h-1.875a.104.104 0 0 1-.104-.104v-.07c0-.432.32-.808.747-.93a.73.73 0 1 1 .589 0c.426.122.747.498.747.93v.07a.104.104 0 0 1-.104.104Zm-.417-1.771a.521.521 0 1 0-1.042.001.521.521 0 0 0 1.042-.001Zm-.52.834c-.44 0-.812.33-.833.729h1.665c-.02-.399-.393-.73-.832-.73Z" clip-rule="evenodd"/><g filter="url(#e)"><path fill="#fff" d="M36.747 98.494c7.04 0 12.747-5.707 12.747-12.747S43.787 73 36.747 73 24 78.707 24 85.747s5.707 12.747 12.747 12.747Z"/></g><path fill="#AAA8F7" fill-rule="evenodd" d="M40.417 90.5h-7.5a.417.417 0 0 1-.417-.417v-.278c0-1.728 1.283-3.234 2.99-3.722a2.919 2.919 0 0 1-1.74-2.666 2.92 2.92 0 0 1 2.917-2.917 2.92 2.92 0 0 1 2.916 2.917c0 1.19-.716 2.213-1.74 2.666 1.707.488 2.99 1.994 2.99 3.722v.278c0 .23-.186.417-.416.417Zm-1.667-7.084a2.086 2.086 0 0 0-2.083-2.083 2.086 2.086 0 0 0-2.084 2.083c0 1.15.935 2.084 2.084 2.084a2.086 2.086 0 0 0 2.083-2.084Zm-2.083 3.334c-1.757 0-3.248 1.322-3.33 2.917h6.66c-.083-1.595-1.574-2.917-3.33-2.917Z" clip-rule="evenodd"/><g filter="url(#f)"><path fill="#fff" d="M65.209 70.418c11.161 0 20.209-9.048 20.209-20.21C85.418 39.049 76.37 30 65.208 30 54.049 30 45 39.048 45 50.209s9.048 20.209 20.209 20.209Z"/><path stroke="url(#g)" stroke-opacity=".2" stroke-width=".4" d="M85.218 50.209c0 11.05-8.959 20.009-20.01 20.009-11.05 0-20.008-8.959-20.008-20.01 0-11.05 8.958-20.008 20.009-20.008 11.05 0 20.009 8.958 20.009 20.009Z"/></g><path fill="#423EEE" fill-rule="evenodd" d="M71.528 58.333h-12.5a.695.695 0 0 1-.695-.695v-.463c0-2.88 2.14-5.39 4.984-6.203a4.865 4.865 0 0 1-2.9-4.445c0-2.68 2.18-4.861 4.86-4.861 2.681 0 4.862 2.18 4.862 4.861a4.865 4.865 0 0 1-2.9 4.445c2.844.812 4.983 3.322 4.983 6.203v.463a.695.695 0 0 1-.694.695ZM68.75 46.527a3.476 3.476 0 0 0-3.472-3.472 3.476 3.476 0 0 0-3.472 3.472 3.476 3.476 0 0 0 3.472 3.472 3.476 3.476 0 0 0 3.472-3.472Zm-3.472 5.556c-2.927 0-5.413 2.203-5.55 4.861h11.1c-.138-2.658-2.623-4.861-5.55-4.861Z" clip-rule="evenodd"/><g filter="url(#h)"><path fill="#fff" d="M102.436 34.873c6.869 0 12.437-5.568 12.437-12.437 0-6.868-5.568-12.436-12.437-12.436C95.568 10 90 15.568 90 22.436c0 6.869 5.568 12.437 12.436 12.437Z"/></g><path fill="#AAA8F7" fill-rule="evenodd" d="M106.417 27.5h-7.5a.417.417 0 0 1-.417-.417v-.278c0-1.728 1.283-3.234 2.99-3.722a2.92 2.92 0 0 1-1.74-2.666 2.92 2.92 0 0 1 2.917-2.917 2.92 2.92 0 0 1 2.916 2.917c0 1.19-.716 2.213-1.74 2.666 1.707.488 2.99 1.994 2.99 3.722v.278c0 .23-.186.417-.416.417Zm-1.667-7.084a2.086 2.086 0 0 0-2.083-2.083 2.086 2.086 0 0 0-2.084 2.083c0 1.15.935 2.084 2.084 2.084a2.086 2.086 0 0 0 2.083-2.084Zm-2.083 3.334c-1.757 0-3.248 1.322-3.33 2.917h6.659c-.082-1.595-1.573-2.917-3.329-2.917Z" clip-rule="evenodd"/><g filter="url(#i)"><path fill="#fff" d="M100.902 53.949a2.488 2.488 0 1 0 1.288-4.807 2.488 2.488 0 0 0-1.288 4.807Z"/></g><path fill="#AAA8F7" fill-rule="evenodd" d="M102.597 52.75h-1.875a.104.104 0 0 1-.104-.104v-.07c0-.432.321-.808.748-.93a.73.73 0 0 1-.436-.667.73.73 0 1 1 1.024.667c.426.122.747.498.747.93v.07a.104.104 0 0 1-.104.104Zm-.417-1.771a.52.52 0 1 0-1.042 0 .52.52 0 0 0 1.042 0Zm-.52.834c-.439 0-.812.33-.833.729h1.665c-.021-.399-.393-.73-.832-.73Z" clip-rule="evenodd"/><g filter="url(#j)"><path fill="#fff" d="M104.949 85.898c5.495 0 9.949-4.454 9.949-9.949S110.444 66 104.949 66 95 70.454 95 75.949s4.454 9.949 9.949 9.949Z"/></g><path fill="#AAA8F7" fill-rule="evenodd" d="M108.264 80.167h-6.25a.347.347 0 0 1-.347-.347v-.231c0-1.44 1.069-2.696 2.492-3.102a2.433 2.433 0 0 1-1.451-2.222c0-1.34 1.091-2.431 2.431-2.431s2.43 1.09 2.43 2.43c0 .992-.597 1.845-1.45 2.223 1.423.406 2.492 1.661 2.492 3.102v.231a.347.347 0 0 1-.347.347Zm-1.389-5.903c0-.957-.779-1.736-1.736-1.736s-1.736.78-1.736 1.736c0 .958.779 1.737 1.736 1.737s1.736-.78 1.736-1.737Zm-1.736 2.778c-1.464 0-2.706 1.102-2.775 2.43h5.55c-.069-1.328-1.312-2.43-2.775-2.43Z" clip-rule="evenodd"/><g filter="url(#k)"><path fill="#fff" d="M19.949 47.898c5.495 0 9.949-4.454 9.949-9.949S25.444 28 19.949 28 10 32.454 10 37.949s4.454 9.949 9.949 9.949Z"/></g><path fill="#AAA8F7" fill-rule="evenodd" d="M23.264 42.167h-6.25a.347.347 0 0 1-.347-.347v-.231c0-1.44 1.07-2.696 2.492-3.102a2.433 2.433 0 0 1-1.45-2.223c0-1.34 1.09-2.43 2.43-2.43s2.43 1.09 2.43 2.43c0 .992-.597 1.845-1.45 2.223 1.423.406 2.492 1.661 2.492 3.102v.231a.347.347 0 0 1-.347.347Zm-1.39-5.903c0-.957-.778-1.736-1.735-1.736-.957 0-1.736.78-1.736 1.736 0 .958.779 1.736 1.736 1.736s1.736-.778 1.736-1.736Zm-1.735 2.778c-1.464 0-2.706 1.102-2.775 2.43h5.55c-.069-1.328-1.312-2.43-2.775-2.43Z" clip-rule="evenodd"/><g filter="url(#l)"><path fill="#fff" d="M59.974 23.949a4.974 4.974 0 1 0 0-9.949 4.974 4.974 0 0 0 0 9.949Z"/></g><path fill="#AAA8F7" fill-rule="evenodd" d="M61.958 21.5h-3.75a.208.208 0 0 1-.208-.208v-.14c0-.864.642-1.617 1.495-1.86a1.46 1.46 0 0 1-.87-1.334 1.46 1.46 0 0 1 1.458-1.458 1.46 1.46 0 0 1 1.459 1.458 1.46 1.46 0 0 1-.87 1.334c.853.243 1.495.996 1.495 1.86v.14a.208.208 0 0 1-.209.208Zm-.833-3.541a1.043 1.043 0 0 0-2.083 0 1.043 1.043 0 0 0 2.083 0Zm-1.042 1.666c-.878 0-1.623.661-1.664 1.458h3.33c-.042-.797-.788-1.458-1.666-1.458Z" clip-rule="evenodd"/><g filter="url(#m)"><path fill="#fff" d="M69.975 87.949a4.974 4.974 0 1 0 0-9.949 4.974 4.974 0 0 0 0 9.949Z"/></g><path fill="#AAA8F7" fill-rule="evenodd" d="M71.958 85.5h-3.75a.208.208 0 0 1-.208-.208v-.14c0-.864.642-1.617 1.495-1.86a1.46 1.46 0 0 1-.87-1.334 1.46 1.46 0 0 1 1.458-1.458 1.46 1.46 0 0 1 1.459 1.458 1.46 1.46 0 0 1-.87 1.334c.853.243 1.495.996 1.495 1.86v.14a.208.208 0 0 1-.209.208Zm-.833-3.541a1.043 1.043 0 0 0-2.083 0 1.043 1.043 0 0 0 2.083 0Zm-1.042 1.666c-.878 0-1.623.661-1.664 1.458h3.33c-.042-.797-.787-1.458-1.666-1.458Z" clip-rule="evenodd"/><defs><filter id="d" width="23.385" height="23.385" x="21.854" y="15.755" color-interpolation-filters="sRGB" filterUnits="userSpaceOnUse"><feFlood flood-opacity="0" result="BackgroundImageFix"/><feColorMatrix in="SourceAlpha" result="hardAlpha" values="0 0 0 0 0 0 0 0 0 0 0 0 0 0 0 0 0 0 127 0"/><feMorphology in="SourceAlpha" radius=".8" result="effect1_dropShadow_4699_332798"/><feOffset dy="2.401"/><feGaussianBlur stdDeviation="5.003"/><feComposite in2="hardAlpha" operator="out"/><feColorMatrix values="0 0 0 0 0 0 0 0 0 0 0 0 0 0 0 0 0 0 0.1 0"/><feBlend in2="BackgroundImageFix" mode="multiply" result="effect1_dropShadow_4699_332798"/><feBlend in="SourceGraphic" in2="effect1_dropShadow_4699_332798" result="shape"/></filter><filter id="e" width="43.904" height="43.904" x="14.795" y="66.197" color-interpolation-filters="sRGB" filterUnits="userSpaceOnUse"><feFlood flood-opacity="0" result="BackgroundImageFix"/><feColorMatrix in="SourceAlpha" result="hardAlpha" values="0 0 0 0 0 0 0 0 0 0 0 0 0 0 0 0 0 0 127 0"/><feMorphology in="SourceAlpha" radius=".8" result="effect1_dropShadow_4699_332798"/><feOffset dy="2.401"/><feGaussianBlur stdDeviation="5.003"/><feComposite in2="hardAlpha" operator="out"/><feColorMatrix values="0 0 0 0 0 0 0 0 0 0 0 0 0 0 0 0 0 0 0.1 0"/><feBlend in2="BackgroundImageFix" mode="multiply" result="effect1_dropShadow_4699_332798"/><feBlend in="SourceGraphic" in2="effect1_dropShadow_4699_332798" result="shape"/></filter><filter id="f" width="58.827" height="58.827" x="35.795" y="23.197" color-interpolation-filters="sRGB" filterUnits="userSpaceOnUse"><feFlood flood-opacity="0" result="BackgroundImageFix"/><feColorMatrix in="SourceAlpha" result="hardAlpha" values="0 0 0 0 0 0 0 0 0 0 0 0 0 0 0 0 0 0 127 0"/><feMorphology in="SourceAlpha" radius=".8" result="effect1_dropShadow_4699_332798"/><feOffset dy="2.401"/><feGaussianBlur stdDeviation="5.003"/><feComposite in2="hardAlpha" operator="out"/><feColorMatrix values="0 0 0 0 0 0 0 0 0 0 0 0 0 0 0 0 0 0 0.1 0"/><feBlend in2="BackgroundImageFix" mode="multiply" result="effect1_dropShadow_4699_332798"/><feBlend in="SourceGraphic" in2="effect1_dropShadow_4699_332798" result="shape"/></filter><filter id="h" width="43.282" height="43.282" x="80.795" y="3.196" color-interpolation-filters="sRGB" filterUnits="userSpaceOnUse"><feFlood flood-opacity="0" result="BackgroundImageFix"/><feColorMatrix in="SourceAlpha" result="hardAlpha" values="0 0 0 0 0 0 0 0 0 0 0 0 0 0 0 0 0 0 127 0"/><feMorphology in="SourceAlpha" radius=".8" result="effect1_dropShadow_4699_332798"/><feOffset dy="2.401"/><feGaussianBlur stdDeviation="5.003"/><feComposite in2="hardAlpha" operator="out"/><feColorMatrix values="0 0 0 0 0 0 0 0 0 0 0 0 0 0 0 0 0 0 0.1 0"/><feBlend in2="BackgroundImageFix" mode="multiply" result="effect1_dropShadow_4699_332798"/><feBlend in="SourceGraphic" in2="effect1_dropShadow_4699_332798" result="shape"/></filter><filter id="i" width="23.385" height="23.385" x="89.854" y="42.255" color-interpolation-filters="sRGB" filterUnits="userSpaceOnUse"><feFlood flood-opacity="0" result="BackgroundImageFix"/><feColorMatrix in="SourceAlpha" result="hardAlpha" values="0 0 0 0 0 0 0 0 0 0 0 0 0 0 0 0 0 0 127 0"/><feMorphology in="SourceAlpha" radius=".8" result="effect1_dropShadow_4699_332798"/><feOffset dy="2.401"/><feGaussianBlur stdDeviation="5.003"/><feComposite in2="hardAlpha" operator="out"/><feColorMatrix values="0 0 0 0 0 0 0 0 0 0 0 0 0 0 0 0 0 0 0.1 0"/><feBlend in2="BackgroundImageFix" mode="multiply" result="effect1_dropShadow_4699_332798"/><feBlend in="SourceGraphic" in2="effect1_dropShadow_4699_332798" result="shape"/></filter><filter id="j" width="38.307" height="38.307" x="85.795" y="59.197" color-interpolation-filters="sRGB" filterUnits="userSpaceOnUse"><feFlood flood-opacity="0" result="BackgroundImageFix"/><feColorMatrix in="SourceAlpha" result="hardAlpha" values="0 0 0 0 0 0 0 0 0 0 0 0 0 0 0 0 0 0 127 0"/><feMorphology in="SourceAlpha" radius=".8" result="effect1_dropShadow_4699_332798"/><feOffset dy="2.401"/><feGaussianBlur stdDeviation="5.003"/><feComposite in2="hardAlpha" operator="out"/><feColorMatrix values="0 0 0 0 0 0 0 0 0 0 0 0 0 0 0 0 0 0 0.1 0"/><feBlend in2="BackgroundImageFix" mode="multiply" result="effect1_dropShadow_4699_332798"/><feBlend in="SourceGraphic" in2="effect1_dropShadow_4699_332798" result="shape"/></filter><filter id="k" width="38.307" height="38.307" x=".795" y="21.197" color-interpolation-filters="sRGB" filterUnits="userSpaceOnUse"><feFlood flood-opacity="0" result="BackgroundImageFix"/><feColorMatrix in="SourceAlpha" result="hardAlpha" values="0 0 0 0 0 0 0 0 0 0 0 0 0 0 0 0 0 0 127 0"/><feMorphology in="SourceAlpha" radius=".8" result="effect1_dropShadow_4699_332798"/><feOffset dy="2.401"/><feGaussianBlur stdDeviation="5.003"/><feComposite in2="hardAlpha" operator="out"/><feColorMatrix values="0 0 0 0 0 0 0 0 0 0 0 0 0 0 0 0 0 0 0.1 0"/><feBlend in2="BackgroundImageFix" mode="multiply" result="effect1_dropShadow_4699_332798"/><feBlend in="SourceGraphic" in2="effect1_dropShadow_4699_332798" result="shape"/></filter><filter id="l" width="28.358" height="28.358" x="45.795" y="7.197" color-interpolation-filters="sRGB" filterUnits="userSpaceOnUse"><feFlood flood-opacity="0" result="BackgroundImageFix"/><feColorMatrix in="SourceAlpha" result="hardAlpha" values="0 0 0 0 0 0 0 0 0 0 0 0 0 0 0 0 0 0 127 0"/><feMorphology in="SourceAlpha" radius=".8" result="effect1_dropShadow_4699_332798"/><feOffset dy="2.401"/><feGaussianBlur stdDeviation="5.003"/><feComposite in2="hardAlpha" operator="out"/><feColorMatrix values="0 0 0 0 0 0 0 0 0 0 0 0 0 0 0 0 0 0 0.1 0"/><feBlend in2="BackgroundImageFix" mode="multiply" result="effect1_dropShadow_4699_332798"/><feBlend in="SourceGraphic" in2="effect1_dropShadow_4699_332798" result="shape"/></filter><filter id="m" width="28.358" height="28.358" x="55.795" y="71.197" color-interpolation-filters="sRGB" filterUnits="userSpaceOnUse"><feFlood flood-opacity="0" result="BackgroundImageFix"/><feColorMatrix in="SourceAlpha" result="hardAlpha" values="0 0 0 0 0 0 0 0 0 0 0 0 0 0 0 0 0 0 127 0"/><feMorphology in="SourceAlpha" radius=".8" result="effect1_dropShadow_4699_332798"/><feOffset dy="2.401"/><feGaussianBlur stdDeviation="5.003"/><feComposite in2="hardAlpha" operator="out"/><feColorMatrix values="0 0 0 0 0 0 0 0 0 0 0 0 0 0 0 0 0 0 0.1 0"/><feBlend in2="BackgroundImageFix" mode="multiply" result="effect1_dropShadow_4699_332798"/><feBlend in="SourceGraphic" in2="effect1_dropShadow_4699_332798" result="shape"/></filter><linearGradient id="a" x1="65" x2="65" y1="0" y2="100" gradientUnits="userSpaceOnUse"><stop stop-color="#423EEE" stop-opacity=".2"/><stop offset="1" stop-color="#423EEE"/></linearGradient><linearGradient id="b" x1="65" x2="65" y1="11" y2="89" gradientUnits="userSpaceOnUse"><stop stop-color="#423EEE" stop-opacity=".2"/><stop offset="1" stop-color="#423EEE"/></linearGradient><linearGradient id="c" x1="65" x2="65" y1="21" y2="79" gradientUnits="userSpaceOnUse"><stop stop-color="#423EEE" stop-opacity=".2"/><stop offset="1" stop-color="#423EEE"/></linearGradient><linearGradient id="g" x1="65.209" x2="65.209" y1="30" y2="70.418" gradientUnits="userSpaceOnUse"><stop stop-color="#423EEE" stop-opacity=".2"/><stop offset="1" stop-color="#423EEE"/></linearGradient></defs></svg>
