<svg xmlns="http://www.w3.org/2000/svg" width="125" height="111" fill="none"><circle cx="65" cy="50.5" r="49.4" stroke="url(#a)" stroke-opacity=".2" stroke-width="1.2"/><circle cx="65" cy="50.5" r="38.5" stroke="url(#b)" stroke-opacity=".2"/><circle cx="65" cy="50.5" r="28.6" stroke="url(#c)" stroke-opacity=".2" stroke-width=".8"/><g filter="url(#d)"><path fill="#262B33" d="M36.403 24.949a2.487 2.487 0 1 0 1.287-4.805 2.487 2.487 0 0 0-1.287 4.805Z"/></g><path fill="#FF0420" fill-rule="evenodd" d="M35.205 23.311a.874.874 0 0 0 .532.153c.261 0 .47-.06.626-.182.157-.124.266-.311.33-.56.04-.152.072-.31.1-.472.008-.058.012-.106.012-.144a.556.556 0 0 0-.357-.535.941.941 0 0 0-.377-.071c-.514 0-.834.25-.958.75a8.785 8.785 0 0 0-.1.472 1.01 1.01 0 0 0-.013.147c0 .19.068.339.205.442Zm.83-.33a.39.39 0 0 1-.259.09c-.174 0-.263-.083-.262-.251 0-.04.005-.079.012-.115.034-.177.066-.326.099-.448a.502.502 0 0 1 .153-.276.4.4 0 0 1 .261-.09c.173 0 .259.083.259.249a.62.62 0 0 1-.012.117 6.423 6.423 0 0 1-.096.448.496.496 0 0 1-.155.276Zm.771.5c.012.013.027.019.047.019h.37a.08.08 0 0 0 .053-.019.078.078 0 0 0 .03-.05l.125-.597h.368c.238 0 .426-.05.563-.15.14-.1.23-.254.276-.463a.71.71 0 0 0 .016-.143.413.413 0 0 0-.186-.363.85.85 0 0 0-.486-.125h-.725a.08.08 0 0 0-.052.019.073.073 0 0 0-.03.05l-.377 1.773a.071.071 0 0 0 .008.05Zm1.211-1.086a.322.322 0 0 1-.199.063h-.313l.104-.488h.327c.074 0 .128.014.158.043.03.028.047.068.047.12 0 .024-.003.052-.01.082a.299.299 0 0 1-.114.18Z" clip-rule="evenodd"/><g filter="url(#e)"><path fill="#262B33" d="M36.747 98.994c7.04 0 12.747-5.707 12.747-12.747S43.787 73.5 36.747 73.5 24 79.207 24 86.247s5.707 12.747 12.747 12.747Z"/></g><path fill="#42C1CA" d="M36.086 83.279c.268-1.048.591-1.99.934-2.604.127-.293.638-.996 1.2-1.46.934-.775 1.983-.971 3.075-.334l-.096.141.096-.14c.557.324.78.658.683.974-.072.234-.349.422-.496.402a.944.944 0 0 1-.642-.162 1.14 1.14 0 0 1-.39-.483c-.152-.335-.353-.45-.599-.422-.178.019-.384.124-.45.195l-.17.175c-.131.13-.248.273-.348.425-.343.532-.66 1.505-1.099 3.523l2.91.396-.16 1.084-2.953-.402-.126.713-.032.178-.058.3 2.98.406-.17 1.083-3.05-.416c-.353 1.393-.817 2.885-1.145 3.474-.127.294-.638.996-1.2 1.461-.934.773-1.983.97-3.075.333-.557-.325-.78-.66-.683-.975.072-.235.349-.422.496-.402.216-.02.434.02.642.161.16.11.292.27.39.484.152.335.353.45.599.422.178-.019.384-.125.45-.196.654-.677 1.172-1.98 1.827-4.992l-2.909-.397.16-1.084 2.952.402.127-.712c.028-.16.058-.32.09-.48l-2.97-.403.17-1.083 3.04.415Z"/><g filter="url(#f)"><path fill="#262B33" d="M65.209 70.918c11.161 0 20.209-9.048 20.209-20.21 0-11.16-9.048-20.208-20.21-20.208C54.049 30.5 45 39.548 45 50.709s9.048 20.209 20.209 20.209Z"/><path stroke="url(#g)" stroke-opacity=".2" stroke-width=".4" d="M85.218 50.709c0 11.05-8.959 20.009-20.01 20.009-11.05 0-20.008-8.959-20.008-20.01 0-11.05 8.958-20.008 20.009-20.008 11.05 0 20.009 8.958 20.009 20.009Z"/></g><path fill="#6582F9" d="M65 39v8.872l7.998 3.35L65 39Z"/><path fill="#90A3FD" d="m65 39-8 12.222 8-3.35V39Z"/><path fill="#6582F9" d="M65 56.972V63l8.004-10.381L65 56.972Z"/><path fill="#90A3FD" d="M65 63v-6.03l-8-4.351L65 63Z"/><path fill="#3E64F4" d="m65 55.576 7.998-4.354L65 47.874v7.702Z"/><path fill="#6582F9" d="m57 51.222 8 4.354v-7.702l-8 3.348Z"/><g filter="url(#h)"><path fill="#262B33" d="M102.436 35.373c6.869 0 12.437-5.568 12.437-12.437 0-6.868-5.568-12.436-12.437-12.436C95.568 10.5 90 16.068 90 22.936c0 6.869 5.568 12.437 12.436 12.437Z"/></g><path fill="url(#i)" d="M98.456 24.428a.35.35 0 0 1 .243-.096h8.379c.153 0 .229.177.121.28l-1.655 1.584a.353.353 0 0 1-.243.096h-8.38c-.152 0-.228-.177-.12-.28l1.655-1.584Z"/><path fill="url(#j)" d="M98.456 18.513a.35.35 0 0 1 .243-.096h8.379c.153 0 .229.176.121.28l-1.655 1.583a.354.354 0 0 1-.243.096h-8.38c-.152 0-.228-.177-.12-.28l1.655-1.583Z"/><path fill="url(#k)" d="M105.544 21.452a.354.354 0 0 0-.243-.096h-8.38c-.152 0-.228.176-.12.28l1.655 1.583a.35.35 0 0 0 .243.096h8.379c.153 0 .229-.177.121-.28l-1.655-1.583Z"/><g filter="url(#l)"><path fill="#262B33" d="M100.903 54.449a2.488 2.488 0 1 0 1.286-4.806 2.488 2.488 0 0 0-1.286 4.806Z"/></g><path fill="#E84142" d="M100.248 53.496h.504v.004c.12 0 .179 0 .232-.017a.4.4 0 0 0 .155-.102 1 1 0 0 0 .127-.215l.002-.005.654-1.301c.058-.115.087-.173.1-.232a.519.519 0 0 0 0-.2.868.868 0 0 0-.088-.209l-.01-.021-.002-.003-.26-.509c-.05-.1-.077-.151-.11-.17a.111.111 0 0 0-.115 0c-.034.019-.06.07-.111.17l-.003.007-1.247 2.468-.009.018c-.045.093-.069.14-.067.18a.155.155 0 0 0 .059.113c.03.024.083.024.189.024ZM102.75 53.496h-.724c-.106 0-.159 0-.192-.024a.142.142 0 0 1-.058-.113c-.002-.042.024-.093.077-.196l.002-.002.36-.696c.053-.102.08-.154.114-.173a.113.113 0 0 1 .116 0c.032.018.056.063.101.148l.009.016.003.009.362.696a.044.044 0 0 0 .003.006.05.05 0 0 1 .003.005l.002.003c.048.094.074.144.072.184a.152.152 0 0 1-.059.113c-.03.024-.085.024-.191.024Z"/><g filter="url(#m)"><path fill="#262B33" d="M104.949 86.398c5.495 0 9.949-4.454 9.949-9.949s-4.454-9.949-9.949-9.949S95 70.954 95 76.449s4.454 9.949 9.949 9.949Z"/></g><path fill="#7950DD" d="M106.792 74.944a.562.562 0 0 0-.565 0l-1.295.778-.88.507-1.296.778a.56.56 0 0 1-.564 0l-1.03-.609a.585.585 0 0 1-.282-.49v-1.2c0-.204.1-.39.282-.491l1.013-.592a.562.562 0 0 1 .565 0l1.013.592a.585.585 0 0 1 .282.49v.778l.88-.524v-.778a.55.55 0 0 0-.282-.49l-1.877-1.117a.56.56 0 0 0-.564 0l-1.91 1.116a.551.551 0 0 0-.282.49v2.25c0 .203.1.39.282.49l1.91 1.117a.56.56 0 0 0 .564 0l1.296-.761.88-.524 1.295-.761a.562.562 0 0 1 .565 0l1.012.592a.586.586 0 0 1 .283.49v1.2a.55.55 0 0 1-.283.491l-1.012.61a.563.563 0 0 1-.565 0l-1.013-.593a.585.585 0 0 1-.282-.49v-.778l-.88.524v.778a.55.55 0 0 0 .282.49l1.91 1.117a.56.56 0 0 0 .564 0l1.91-1.116a.585.585 0 0 0 .282-.49v-2.25c0-.203-.1-.39-.282-.49l-1.926-1.134Z"/><g filter="url(#n)"><path fill="#262B33" d="M19.949 48.398c5.495 0 9.949-4.454 9.949-9.949S25.444 28.5 19.949 28.5 10 32.954 10 38.449s4.454 9.949 9.949 9.949Z"/></g><path fill="#FF4724" fill-rule="evenodd" d="M15.017 41.732 17.967 40 20 36.436V33c-.054 0-.107.036-.148.107l-2.409 4.221-2.408 4.222c-.04.07-.045.135-.018.182Z" clip-rule="evenodd"/><path fill="#9E1F63" fill-rule="evenodd" d="M20 33v3.436L22.033 40l2.95 1.732c.027-.047.023-.111-.018-.182l-2.408-4.222-2.41-4.221c-.04-.071-.093-.107-.147-.107Z" clip-rule="evenodd"/><path fill="#662D91" fill-rule="evenodd" d="M24.983 41.733 22.033 40h-4.066l-2.95 1.733c.027.047.084.076.165.076h9.636c.081 0 .138-.03.165-.076Z" clip-rule="evenodd"/><path fill="#fff" fill-rule="evenodd" d="M17.967 40h4.066L20 36.436 17.967 40Z" clip-rule="evenodd"/><g filter="url(#o)"><path fill="#262B33" d="M59.974 24.449a4.974 4.974 0 1 0 0-9.949 4.974 4.974 0 0 0 0 9.949Z"/></g><path fill="#F8D339" d="M58.835 19.021 60 17.856l1.166 1.166.678-.678L60 16.5l-1.843 1.843.678.678ZM57 19.5l.678-.678.678.678-.678.678L57 19.5Zm1.835.479L60 21.144l1.166-1.166.678.678L60 22.5l-1.843-1.843-.001-.001.679-.677Zm2.809-.479.678-.678.678.678-.678.678-.678-.678Zm-.956 0-.688.688-.687-.687-.002-.001h.002l.12-.122.059-.058.508-.508.688.688Z"/><g filter="url(#p)"><path fill="#262B33" d="M69.975 88.449a4.974 4.974 0 1 0 0-9.949 4.974 4.974 0 0 0 0 9.949Z"/></g><path fill="#50AF95" fill-rule="evenodd" d="m68.416 81.347-.912 1.916a.036.036 0 0 0 .007.042l2.463 2.36a.039.039 0 0 0 .051 0l2.464-2.36a.036.036 0 0 0 .007-.043l-.912-1.915a.033.033 0 0 0-.033-.022h-3.103a.036.036 0 0 0-.032.022Z" clip-rule="evenodd"/><path fill="#fff" fill-rule="evenodd" d="M70.317 83.459a4.545 4.545 0 0 1-.312.007c-.162 0-.277-.005-.319-.007-.626-.029-1.093-.138-1.093-.267 0-.13.467-.24 1.093-.268v.425c.041.003.158.01.32.01.195 0 .292-.008.31-.01v-.425c.624.028 1.091.137 1.091.266 0 .13-.465.24-1.09.269Zm0-.578v-.382h.872v-.582h-2.375v.582h.872v.382c-.708.033-1.242.172-1.242.342 0 .17.534.308 1.242.341v1.222h.631v-1.222c.707-.032 1.24-.172 1.24-.34 0-.168-.533-.31-1.24-.343Z" clip-rule="evenodd"/><defs><filter id="d" width="23.385" height="23.385" x="25.354" y="13.255" color-interpolation-filters="sRGB" filterUnits="userSpaceOnUse"><feFlood flood-opacity="0" result="BackgroundImageFix"/><feColorMatrix in="SourceAlpha" result="hardAlpha" values="0 0 0 0 0 0 0 0 0 0 0 0 0 0 0 0 0 0 127 0"/><feMorphology in="SourceAlpha" radius=".8" result="effect1_dropShadow_4784_460068"/><feOffset dy="2.401"/><feGaussianBlur stdDeviation="5.003"/><feComposite in2="hardAlpha" operator="out"/><feColorMatrix values="0 0 0 0 0 0 0 0 0 0 0 0 0 0 0 0 0 0 0.1 0"/><feBlend in2="BackgroundImageFix" mode="multiply" result="effect1_dropShadow_4784_460068"/><feBlend in="SourceGraphic" in2="effect1_dropShadow_4784_460068" result="shape"/></filter><filter id="e" width="43.904" height="43.904" x="14.795" y="66.697" color-interpolation-filters="sRGB" filterUnits="userSpaceOnUse"><feFlood flood-opacity="0" result="BackgroundImageFix"/><feColorMatrix in="SourceAlpha" result="hardAlpha" values="0 0 0 0 0 0 0 0 0 0 0 0 0 0 0 0 0 0 127 0"/><feMorphology in="SourceAlpha" radius=".8" result="effect1_dropShadow_4784_460068"/><feOffset dy="2.401"/><feGaussianBlur stdDeviation="5.003"/><feComposite in2="hardAlpha" operator="out"/><feColorMatrix values="0 0 0 0 0 0 0 0 0 0 0 0 0 0 0 0 0 0 0.1 0"/><feBlend in2="BackgroundImageFix" mode="multiply" result="effect1_dropShadow_4784_460068"/><feBlend in="SourceGraphic" in2="effect1_dropShadow_4784_460068" result="shape"/></filter><filter id="f" width="58.827" height="58.827" x="35.795" y="23.697" color-interpolation-filters="sRGB" filterUnits="userSpaceOnUse"><feFlood flood-opacity="0" result="BackgroundImageFix"/><feColorMatrix in="SourceAlpha" result="hardAlpha" values="0 0 0 0 0 0 0 0 0 0 0 0 0 0 0 0 0 0 127 0"/><feMorphology in="SourceAlpha" radius=".8" result="effect1_dropShadow_4784_460068"/><feOffset dy="2.401"/><feGaussianBlur stdDeviation="5.003"/><feComposite in2="hardAlpha" operator="out"/><feColorMatrix values="0 0 0 0 0 0 0 0 0 0 0 0 0 0 0 0 0 0 0.1 0"/><feBlend in2="BackgroundImageFix" mode="multiply" result="effect1_dropShadow_4784_460068"/><feBlend in="SourceGraphic" in2="effect1_dropShadow_4784_460068" result="shape"/></filter><filter id="h" width="43.282" height="43.282" x="80.795" y="3.696" color-interpolation-filters="sRGB" filterUnits="userSpaceOnUse"><feFlood flood-opacity="0" result="BackgroundImageFix"/><feColorMatrix in="SourceAlpha" result="hardAlpha" values="0 0 0 0 0 0 0 0 0 0 0 0 0 0 0 0 0 0 127 0"/><feMorphology in="SourceAlpha" radius=".8" result="effect1_dropShadow_4784_460068"/><feOffset dy="2.401"/><feGaussianBlur stdDeviation="5.003"/><feComposite in2="hardAlpha" operator="out"/><feColorMatrix values="0 0 0 0 0 0 0 0 0 0 0 0 0 0 0 0 0 0 0.1 0"/><feBlend in2="BackgroundImageFix" mode="multiply" result="effect1_dropShadow_4784_460068"/><feBlend in="SourceGraphic" in2="effect1_dropShadow_4784_460068" result="shape"/></filter><filter id="l" width="23.385" height="23.385" x="89.854" y="42.755" color-interpolation-filters="sRGB" filterUnits="userSpaceOnUse"><feFlood flood-opacity="0" result="BackgroundImageFix"/><feColorMatrix in="SourceAlpha" result="hardAlpha" values="0 0 0 0 0 0 0 0 0 0 0 0 0 0 0 0 0 0 127 0"/><feMorphology in="SourceAlpha" radius=".8" result="effect1_dropShadow_4784_460068"/><feOffset dy="2.401"/><feGaussianBlur stdDeviation="5.003"/><feComposite in2="hardAlpha" operator="out"/><feColorMatrix values="0 0 0 0 0 0 0 0 0 0 0 0 0 0 0 0 0 0 0.1 0"/><feBlend in2="BackgroundImageFix" mode="multiply" result="effect1_dropShadow_4784_460068"/><feBlend in="SourceGraphic" in2="effect1_dropShadow_4784_460068" result="shape"/></filter><filter id="m" width="38.307" height="38.307" x="85.795" y="59.697" color-interpolation-filters="sRGB" filterUnits="userSpaceOnUse"><feFlood flood-opacity="0" result="BackgroundImageFix"/><feColorMatrix in="SourceAlpha" result="hardAlpha" values="0 0 0 0 0 0 0 0 0 0 0 0 0 0 0 0 0 0 127 0"/><feMorphology in="SourceAlpha" radius=".8" result="effect1_dropShadow_4784_460068"/><feOffset dy="2.401"/><feGaussianBlur stdDeviation="5.003"/><feComposite in2="hardAlpha" operator="out"/><feColorMatrix values="0 0 0 0 0 0 0 0 0 0 0 0 0 0 0 0 0 0 0.1 0"/><feBlend in2="BackgroundImageFix" mode="multiply" result="effect1_dropShadow_4784_460068"/><feBlend in="SourceGraphic" in2="effect1_dropShadow_4784_460068" result="shape"/></filter><filter id="n" width="38.307" height="38.307" x=".795" y="21.697" color-interpolation-filters="sRGB" filterUnits="userSpaceOnUse"><feFlood flood-opacity="0" result="BackgroundImageFix"/><feColorMatrix in="SourceAlpha" result="hardAlpha" values="0 0 0 0 0 0 0 0 0 0 0 0 0 0 0 0 0 0 127 0"/><feMorphology in="SourceAlpha" radius=".8" result="effect1_dropShadow_4784_460068"/><feOffset dy="2.401"/><feGaussianBlur stdDeviation="5.003"/><feComposite in2="hardAlpha" operator="out"/><feColorMatrix values="0 0 0 0 0 0 0 0 0 0 0 0 0 0 0 0 0 0 0.1 0"/><feBlend in2="BackgroundImageFix" mode="multiply" result="effect1_dropShadow_4784_460068"/><feBlend in="SourceGraphic" in2="effect1_dropShadow_4784_460068" result="shape"/></filter><filter id="o" width="28.358" height="28.358" x="45.795" y="7.697" color-interpolation-filters="sRGB" filterUnits="userSpaceOnUse"><feFlood flood-opacity="0" result="BackgroundImageFix"/><feColorMatrix in="SourceAlpha" result="hardAlpha" values="0 0 0 0 0 0 0 0 0 0 0 0 0 0 0 0 0 0 127 0"/><feMorphology in="SourceAlpha" radius=".8" result="effect1_dropShadow_4784_460068"/><feOffset dy="2.401"/><feGaussianBlur stdDeviation="5.003"/><feComposite in2="hardAlpha" operator="out"/><feColorMatrix values="0 0 0 0 0 0 0 0 0 0 0 0 0 0 0 0 0 0 0.1 0"/><feBlend in2="BackgroundImageFix" mode="multiply" result="effect1_dropShadow_4784_460068"/><feBlend in="SourceGraphic" in2="effect1_dropShadow_4784_460068" result="shape"/></filter><filter id="p" width="28.358" height="28.358" x="55.795" y="71.697" color-interpolation-filters="sRGB" filterUnits="userSpaceOnUse"><feFlood flood-opacity="0" result="BackgroundImageFix"/><feColorMatrix in="SourceAlpha" result="hardAlpha" values="0 0 0 0 0 0 0 0 0 0 0 0 0 0 0 0 0 0 127 0"/><feMorphology in="SourceAlpha" radius=".8" result="effect1_dropShadow_4784_460068"/><feOffset dy="2.401"/><feGaussianBlur stdDeviation="5.003"/><feComposite in2="hardAlpha" operator="out"/><feColorMatrix values="0 0 0 0 0 0 0 0 0 0 0 0 0 0 0 0 0 0 0.1 0"/><feBlend in2="BackgroundImageFix" mode="multiply" result="effect1_dropShadow_4784_460068"/><feBlend in="SourceGraphic" in2="effect1_dropShadow_4784_460068" result="shape"/></filter><linearGradient id="a" x1="65" x2="65" y1=".5" y2="100.5" gradientUnits="userSpaceOnUse"><stop stop-color="#9F9CF9" stop-opacity=".2"/><stop offset="1" stop-color="#9E9CF8"/></linearGradient><linearGradient id="b" x1="65" x2="65" y1="11.5" y2="89.5" gradientUnits="userSpaceOnUse"><stop stop-color="#9F9CF9" stop-opacity=".2"/><stop offset="1" stop-color="#9E9CF8"/></linearGradient><linearGradient id="c" x1="65" x2="65" y1="21.5" y2="79.5" gradientUnits="userSpaceOnUse"><stop stop-color="#9F9CF9" stop-opacity=".2"/><stop offset="1" stop-color="#9E9CF8"/></linearGradient><linearGradient id="g" x1="65.209" x2="65.209" y1="30.5" y2="70.918" gradientUnits="userSpaceOnUse"><stop stop-color="#9F9CF9" stop-opacity=".2"/><stop offset="1" stop-color="#9E9CF8"/></linearGradient><linearGradient id="i" x1="103.849" x2="98.439" y1="16.256" y2="27.083" gradientUnits="userSpaceOnUse"><stop stop-color="#00FFA3"/><stop offset="1" stop-color="#DC1FFF"/></linearGradient><linearGradient id="j" x1="103.849" x2="98.439" y1="16.256" y2="27.083" gradientUnits="userSpaceOnUse"><stop stop-color="#00FFA3"/><stop offset="1" stop-color="#DC1FFF"/></linearGradient><linearGradient id="k" x1="103.849" x2="98.439" y1="16.256" y2="27.083" gradientUnits="userSpaceOnUse"><stop stop-color="#00FFA3"/><stop offset="1" stop-color="#DC1FFF"/></linearGradient></defs></svg>
