<svg xmlns="http://www.w3.org/2000/svg" width="108" height="118" fill="none"><circle cx="52" cy="58" r="49.4" stroke="url(#a)" stroke-opacity=".2" stroke-width="1.2"/><circle cx="52" cy="58" r="38.5" stroke="url(#b)" stroke-opacity=".2"/><circle cx="52" cy="58" r="28.6" stroke="url(#c)" stroke-opacity=".2" stroke-width=".8"/><g filter="url(#d)"><path stroke="url(#e)" stroke-opacity=".2" stroke-width=".4" d="M72.218 58.209c0 11.05-8.959 20.009-20.01 20.009-11.05 0-20.008-8.959-20.008-20.01 0-11.05 8.958-20.008 20.009-20.008 11.05 0 20.009 8.958 20.009 20.009Z" shape-rendering="crispEdges"/></g><g filter="url(#f)"><rect width="55.768" height="70.467" x="24" y="23.5" fill="#fff" rx="3.459" shape-rendering="crispEdges"/><rect width="43.685" height="11.71" x="30.917" y="30.849" fill="#F5F4FE" rx="1.801"/><rect width="21.617" height="2.702" x="39.024" y="35.353" fill="#AAA8F7" rx="1.351"/><rect width="7.656" height="2.702" x="63.343" y="35.353" fill="#AAA8F7" rx="1.351"/><rect width="2.702" height="2.702" x="34.52" y="35.353" fill="#AAA8F7" rx="1.351"/><rect width="43.685" height="11.71" x="40.625" y="46.017" fill="#322FB4" rx="1.801"/><rect width="21.617" height="2.702" x="48.732" y="50.521" fill="#AAA8F7" rx="1.351"/><rect width="7.656" height="2.702" x="73.052" y="50.521" fill="#AAA8F7" rx="1.351"/><rect width="2.702" height="2.702" x="44.228" y="50.521" fill="#AAA8F7" rx="1.351"/><rect width="43.685" height="11.71" x="30.917" y="61.185" fill="#F5F4FE" rx="1.801"/><rect width="21.617" height="2.702" x="39.024" y="65.689" fill="#AAA8F7" rx="1.351"/><rect width="7.656" height="2.702" x="63.343" y="65.689" fill="#AAA8F7" rx="1.351"/><rect width="2.702" height="2.702" x="34.52" y="65.689" fill="#AAA8F7" rx="1.351"/><rect width="43.685" height="11.71" x="30.917" y="76.353" fill="#F5F4FE" rx="1.801"/><rect width="21.617" height="2.702" x="39.024" y="80.857" fill="#AAA8F7" rx="1.351"/><rect width="7.656" height="2.702" x="63.343" y="80.857" fill="#AAA8F7" rx="1.351"/><rect width="2.702" height="2.702" x="34.52" y="80.857" fill="#AAA8F7" rx="1.351"/><rect width="55.336" height="70.035" x="24.216" y="23.716" stroke="url(#g)" stroke-opacity=".3" stroke-width=".432" rx="3.242" shape-rendering="crispEdges"/></g><defs><linearGradient id="a" x1="52" x2="52" y1="8" y2="108" gradientUnits="userSpaceOnUse"><stop stop-color="#423EEE" stop-opacity=".2"/><stop offset="1" stop-color="#423EEE"/></linearGradient><linearGradient id="b" x1="52" x2="52" y1="19" y2="97" gradientUnits="userSpaceOnUse"><stop stop-color="#423EEE" stop-opacity=".2"/><stop offset="1" stop-color="#423EEE"/></linearGradient><linearGradient id="c" x1="52" x2="52" y1="29" y2="87" gradientUnits="userSpaceOnUse"><stop stop-color="#423EEE" stop-opacity=".2"/><stop offset="1" stop-color="#423EEE"/></linearGradient><linearGradient id="e" x1="52.209" x2="52.209" y1="38" y2="78.418" gradientUnits="userSpaceOnUse"><stop stop-color="#423EEE" stop-opacity=".2"/><stop offset="1" stop-color="#423EEE"/></linearGradient><linearGradient id="g" x1="51.884" x2="51.884" y1="23.5" y2="93.967" gradientUnits="userSpaceOnUse"><stop stop-color="#423EEE"/><stop offset="1" stop-color="#423EEE" stop-opacity=".48"/></linearGradient><filter id="d" width="58.827" height="58.827" x="22.795" y="31.197" color-interpolation-filters="sRGB" filterUnits="userSpaceOnUse"><feFlood flood-opacity="0" result="BackgroundImageFix"/><feColorMatrix in="SourceAlpha" result="hardAlpha" values="0 0 0 0 0 0 0 0 0 0 0 0 0 0 0 0 0 0 127 0"/><feMorphology in="SourceAlpha" radius=".8" result="effect1_dropShadow_4699_332871"/><feOffset dy="2.401"/><feGaussianBlur stdDeviation="5.003"/><feComposite in2="hardAlpha" operator="out"/><feColorMatrix values="0 0 0 0 0 0 0 0 0 0 0 0 0 0 0 0 0 0 0.1 0"/><feBlend in2="BackgroundImageFix" mode="multiply" result="effect1_dropShadow_4699_332871"/><feBlend in="SourceGraphic" in2="effect1_dropShadow_4699_332871" result="shape"/></filter><filter id="f" width="106.581" height="116.738" x=".865" y=".365" color-interpolation-filters="sRGB" filterUnits="userSpaceOnUse"><feFlood flood-opacity="0" result="BackgroundImageFix"/><feColorMatrix in="SourceAlpha" result="hardAlpha" values="0 0 0 0 0 0 0 0 0 0 0 0 0 0 0 0 0 0 127 0"/><feMorphology in="SourceAlpha" radius=".865" result="effect1_dropShadow_4699_332871"/><feOffset/><feGaussianBlur stdDeviation="12"/><feComposite in2="hardAlpha" operator="out"/><feColorMatrix values="0 0 0 0 0.549749 0 0 0 0 0.546667 0 0 0 0 0.683333 0 0 0 0.1 0"/><feBlend in2="BackgroundImageFix" mode="multiply" result="effect1_dropShadow_4699_332871"/><feBlend in="SourceGraphic" in2="effect1_dropShadow_4699_332871" result="shape"/></filter></defs></svg>
