<?xml version="1.0" encoding="UTF-8"?>
<svg width="3300px" height="2200px" viewBox="0 0 3300 2200" version="1.1" xmlns="http://www.w3.org/2000/svg" xmlns:xlink="http://www.w3.org/1999/xlink">
    <title>arrow.triangle.2.circlepath</title>
    <g id="Page-1" stroke="none" stroke-width="1" fill="none" fill-rule="evenodd">
        <g id="arrow.triangle.2.circlepath">
            <g id="Notes">
                <rect id="artboard" fill="#FFFFFF" fill-rule="nonzero" x="0" y="0" width="3300" height="2200"></rect>
                <line x1="265" y1="291" x2="3038" y2="291" id="Path" stroke="#000000" stroke-width="0.5"></line>
                <text id="Weight/Scale-Variations" fill="#000000" fill-rule="nonzero" font-family="Helvetica" font-size="13" font-weight="normal">
                    <tspan x="265" y="321">Weight/Scale Variations</tspan>
                </text>
                <text id="Ultralight" fill="#000000" fill-rule="nonzero" font-family="Helvetica" font-size="13" font-weight="normal">
                    <tspan x="535.711" y="321">Ultralight</tspan>
                </text>
                <text id="Thin" fill="#000000" fill-rule="nonzero" font-family="Helvetica" font-size="13" font-weight="normal">
                    <tspan x="845.422" y="321">Thin</tspan>
                </text>
                <text id="Light" fill="#000000" fill-rule="nonzero" font-family="Helvetica" font-size="13" font-weight="normal">
                    <tspan x="1140.63" y="321">Light</tspan>
                </text>
                <text id="Regular" fill="#000000" fill-rule="nonzero" font-family="Helvetica" font-size="13" font-weight="normal">
                    <tspan x="1428.84" y="321">Regular</tspan>
                </text>
                <text id="Medium" fill="#000000" fill-rule="nonzero" font-family="Helvetica" font-size="13" font-weight="normal">
                    <tspan x="1725.06" y="321">Medium</tspan>
                </text>
                <text id="Semibold" fill="#000000" fill-rule="nonzero" font-family="Helvetica" font-size="13" font-weight="normal">
                    <tspan x="2017.77" y="321">Semibold</tspan>
                </text>
                <text id="Bold" fill="#000000" fill-rule="nonzero" font-family="Helvetica" font-size="13" font-weight="normal">
                    <tspan x="2328.48" y="321">Bold</tspan>
                </text>
                <text id="Heavy" fill="#000000" fill-rule="nonzero" font-family="Helvetica" font-size="13" font-weight="normal">
                    <tspan x="2620.19" y="321">Heavy</tspan>
                </text>
                <text id="Black" fill="#000000" fill-rule="nonzero" font-family="Helvetica" font-size="13" font-weight="normal">
                    <tspan x="2919.4" y="321">Black</tspan>
                </text>
                <line x1="265" y1="1902" x2="3038" y2="1902" id="Path" stroke="#000000" stroke-width="0.5"></line>
                <g id="Group" transform="translate(266.000000, 1917.000000)" fill="#000000" fill-rule="nonzero">
                    <path d="M8.24805,15.830078 C9.32875,15.830078 10.3443667,15.625 11.2949,15.214844 C12.2454333,14.8046873 13.0836667,14.235026 13.8096,13.50586 C14.5354667,12.7766933 15.1051333,11.93685 15.5186,10.98633 C15.932,10.03581 16.1387,9.02344 16.1387,7.94922 C16.1387,6.875 15.932,5.86262667 15.5186,4.9121 C15.1051333,3.96156667 14.5338333,3.12173333 13.8047,2.3926 C13.0755,1.6634 12.2356667,1.09373333 11.2852,0.6836 C10.3346667,0.273466667 9.31902667,0.0684 8.23828,0.0684 C7.16406,0.0684 6.15169,0.273466667 5.20117,0.6836 C4.25065,1.09373333 3.41406333,1.6634 2.69141,2.3926 C1.96875,3.12173333 1.40071333,3.96156667 0.9873,4.9121 C0.573893333,5.86262667 0.36719,6.875 0.36719,7.94922 C0.36719,9.02344 0.573893333,10.03581 0.9873,10.98633 C1.40071333,11.93685 1.97037667,12.7766933 2.69629,13.50586 C3.42220333,14.235026 4.26042,14.8046873 5.21094,15.214844 C6.16146,15.625 7.17383,15.830078 8.24805,15.830078 Z M8.24805,14.345703 C7.36263,14.345703 6.53418,14.1813153 5.7627,13.85254 C4.99121333,13.5237667 4.31413,13.06641 3.73145,12.48047 C3.14876333,11.89453 2.69303333,11.21419 2.36426,10.43945 C2.03548,9.66471 1.87109,8.83463333 1.87109,7.94922 C1.87109,7.0638 2.03385333,6.23372 2.35938,5.45898 C2.6849,4.68426 3.139,4.00393333 3.72168,3.418 C4.30436,2.83206667 4.98144333,2.3747 5.75293,2.0459 C6.52441667,1.7171 7.35286667,1.5527 8.23828,1.5527 C9.13022667,1.5527 9.96193333,1.7171 10.7334,2.0459 C11.5048667,2.3747 12.1835667,2.83206667 12.7695,3.418 C13.3554333,4.00393333 13.8144333,4.68426 14.1465,5.45898 C14.4785,6.23372 14.6445,7.0638 14.6445,7.94922 C14.6445,8.83463333 14.4801333,9.66471 14.1514,10.43945 C13.8226,11.21419 13.3668667,11.89453 12.7842,12.48047 C12.2015333,13.06641 11.5228,13.5237667 10.748,13.85254 C9.97326667,14.1813153 9.13995,14.345703 8.24805,14.345703 Z M4.6543,7.94922 C4.6543,8.16406 4.72266,8.33821333 4.85938,8.47168 C4.99609333,8.60514667 5.17838333,8.67188 5.40625,8.67188 L7.51562,8.67188 L7.51562,10.79102 C7.51562,11.00586 7.58072667,11.1832667 7.71094,11.32324 C7.84114667,11.4632133 8.01692667,11.5332 8.23828,11.5332 C8.45312667,11.5332 8.63053667,11.4632133 8.77051,11.32324 C8.91048333,11.1832667 8.98047,11.00586 8.98047,10.79102 L8.98047,8.67188 L11.0898,8.67188 C11.3112,8.67188 11.4902667,8.60514667 11.627,8.47168 C11.7636667,8.33821333 11.832,8.16406 11.832,7.94922 C11.832,7.72786667 11.7636667,7.54883 11.627,7.41211 C11.4902667,7.27539 11.3112,7.20703 11.0898,7.20703 L8.98047,7.20703 L8.98047,5.09766 C8.98047,4.87628667 8.91048333,4.69563333 8.77051,4.5557 C8.63053667,4.4157 8.45312667,4.3457 8.23828,4.3457 C8.01692667,4.3457 7.84114667,4.4157 7.71094,4.5557 C7.58072667,4.69563333 7.51562,4.87628667 7.51562,5.09766 L7.51562,7.20703 L5.40625,7.20703 C5.17838333,7.20703 4.99609333,7.27539 4.85938,7.41211 C4.72266,7.54883 4.6543,7.72786667 4.6543,7.94922 Z" id="Shape"></path>
                </g>
                <g id="Group" transform="translate(284.867000, 1914.000000)" fill="#000000" fill-rule="nonzero">
                    <path d="M10.709,20.91016 C12.0696667,20.91016 13.3506,20.6497433 14.5518,20.12891 C15.7529333,19.6080767 16.8125,18.8886744 17.7305,17.9707031 C18.6484333,17.0527344 19.3678333,15.9931633 19.8887,14.79199 C20.4095,13.5908167 20.6699,12.3098933 20.6699,10.94922 C20.6699,9.58854 20.4095,8.3076 19.8887,7.1064 C19.3678333,5.90526667 18.6484333,4.8457 17.7305,3.9277 C16.8125,3.00976667 15.7513,2.29036667 14.5469,1.7695 C13.3424333,1.2487 12.0598667,0.9883 10.6992,0.9883 C9.33853333,0.9883 8.05761667,1.2487 6.85645,1.7695 C5.65527667,2.29036667 4.59733333,3.00976667 3.68262,3.9277 C2.76790667,4.8457 2.05013333,5.90526667 1.5293,7.1064 C1.00846667,8.3076 0.74805,9.58854 0.74805,10.94922 C0.74805,12.3098933 1.00846667,13.5908167 1.5293,14.79199 C2.05013333,15.9931633 2.76953333,17.0527344 3.6875,17.9707031 C4.60546667,18.8886744 5.66503667,19.6080767 6.86621,20.12891 C8.06738333,20.6497433 9.34831333,20.91016 10.709,20.91016 Z M10.709,19.25 C9.55664667,19.25 8.47916667,19.0351563 7.47656,18.605469 C6.47396,18.1757813 5.59342667,17.581705 4.83496,16.82324 C4.0765,16.06478 3.48405333,15.1842467 3.05762,14.18164 C2.63118667,13.1790333 2.41797,12.10156 2.41797,10.94922 C2.41797,9.79687333 2.63118667,8.7194 3.05762,7.7168 C3.48405333,6.7142 4.07487333,5.83203333 4.83008,5.0703 C5.58528667,4.30856667 6.46419333,3.7145 7.4668,3.2881 C8.4694,2.86163333 9.54686667,2.6484 10.6992,2.6484 C11.8515333,2.6484 12.929,2.86163333 13.9316,3.2881 C14.9342,3.7145 15.8163667,4.30856667 16.5781,5.0703 C17.3398333,5.83203333 17.9355333,6.7142 18.3652,7.7168 C18.7949333,8.7194 19.0098,9.79687333 19.0098,10.94922 C19.0098,12.10156 18.7965667,13.1790333 18.3701,14.18164 C17.9437,15.1842467 17.3512667,16.06478 16.5928,16.82324 C15.8343333,17.581705 14.9521667,18.1757813 13.9463,18.605469 C12.9404333,19.0351563 11.8613333,19.25 10.709,19.25 Z M6.17773,10.94922 C6.17773,11.1835933 6.25585667,11.37565 6.41211,11.52539 C6.56835667,11.67513 6.77018,11.75 7.01758,11.75 L9.8887,11.75 L9.8887,14.63086 C9.8887,14.8782533 9.96356667,15.07845 10.1133,15.23145 C10.2630333,15.3844433 10.4551,15.46094 10.6895,15.46094 C10.9368333,15.46094 11.137,15.3844433 11.29,15.23145 C11.443,15.07845 11.5195,14.8782533 11.5195,14.63086 L11.5195,11.75 L14.4004,11.75 C14.6478,11.75 14.848,11.67513 15.001,11.52539 C15.154,11.37565 15.2305,11.1835933 15.2305,10.94922 C15.2305,10.70182 15.154,10.5016233 15.001,10.34863 C14.848,10.1956367 14.6478,10.11914 14.4004,10.11914 L11.5195,10.11914 L11.5195,7.248 C11.5195,6.99413333 11.443,6.7907 11.29,6.6377 C11.137,6.4847 10.9368333,6.4082 10.6895,6.4082 C10.4551,6.4082 10.2630333,6.48633333 10.1133,6.6426 C9.96356667,6.79886667 9.8887,7.00066667 9.8887,7.248 L9.8887,10.11914 L7.01758,10.11914 C6.76367333,10.11914 6.56022333,10.1956367 6.40723,10.34863 C6.25423,10.5016233 6.17773,10.70182 6.17773,10.94922 Z" id="Shape"></path>
                </g>
                <g id="Group" transform="translate(309.646000, 1912.000000)" fill="#000000" fill-rule="nonzero">
                    <path d="M12.9707,25.66406 C14.3639,25.66406 15.6936667,25.44759 16.96,25.01465 C18.2262667,24.5817033 19.39,23.9746067 20.4512,23.19336 C21.5124,22.4121067 22.4352333,21.4908827 23.2197,20.429688 C24.0042333,19.3684893 24.6129667,18.2031233 25.0459,16.93359 C25.4788333,15.6640633 25.6953,14.33594 25.6953,12.94922 C25.6953,11.5559933 25.4788333,10.2262533 25.0459,8.96 C24.6129667,7.69366667 24.0042333,6.52993333 23.2197,5.4688 C22.4352333,4.4076 21.5124,3.48473333 20.4512,2.7002 C19.39,1.91566667 18.2246333,1.30693333 16.9551,0.874 C15.6855667,0.441066667 14.3541667,0.2246 12.9609,0.2246 C11.5677,0.2246 10.2379667,0.441066667 8.9717,0.874 C7.70541333,1.30693333 6.54329667,1.91566667 5.48535,2.7002 C4.42741,3.48473333 3.50618667,4.4076 2.72168,5.4688 C1.93717333,6.52993333 1.33007667,7.69366667 0.90039,8.96 C0.470703333,10.2262533 0.25586,11.5559933 0.25586,12.94922 C0.25586,14.33594 0.47233,15.6640633 0.90527,16.93359 C1.33821667,18.2031233 1.94531333,19.3684893 2.72656,20.429688 C3.50781333,21.4908827 4.42903667,22.4121067 5.49023,23.19336 C6.55143,23.9746067 7.71515333,24.5817033 8.9814,25.01465 C10.2477333,25.44759 11.5775,25.66406 12.9707,25.66406 Z M12.9707,23.84766 C11.7663,23.84766 10.6188333,23.66374 9.5283,23.2959 C8.43782,22.92806 7.44010667,22.41211 6.53516,21.74805 C5.63020667,21.0839853 4.84407333,20.2978513 4.17676,19.389648 C3.50944,18.4814427 2.99349,17.4820933 2.62891,16.3916 C2.26432333,15.3011067 2.08203,14.1536467 2.08203,12.94922 C2.08203,11.73828 2.26432333,10.5875733 2.62891,9.4971 C2.99349,8.40656667 3.50781333,7.4072 4.17188,6.499 C4.83594,5.5908 5.62044333,4.80466667 6.52539,4.1406 C7.43033667,3.47653333 8.42807333,2.96223333 9.5186,2.5977 C10.6090667,2.2331 11.7565,2.0508 12.9609,2.0508 C14.1718333,2.0508 15.3225667,2.2331 16.4131,2.5977 C17.5035667,2.96223333 18.5029,3.47653333 19.4111,4.1406 C20.3193,4.80466667 21.1054333,5.5908 21.7695,6.499 C22.4335667,7.4072 22.9495333,8.40656667 23.3174,9.4971 C23.6852,10.5875733 23.8692725,11.73828 23.8692725,12.94922 C23.8756333,14.1536467 23.6966,15.3011067 23.332,16.3916 C22.9674667,17.4820933 22.4515333,18.4814427 21.7842,19.389648 C21.1168667,20.2978513 20.3291,21.0839853 19.4209,21.74805 C18.5127,22.41211 17.5133667,22.92806 16.4229,23.2959 C15.3323667,23.66374 14.1816333,23.84766 12.9707,23.84766 Z M7.19922,12.94922 C7.19922,13.2031267 7.28548333,13.4130867 7.45801,13.5791 C7.63053667,13.7451133 7.85026667,13.82812 8.1172,13.82812 L12.0625,13.82812 L12.0625,17.7832 C12.0625,18.0501267 12.1455,18.2698533 12.3115,18.44238 C12.4775,18.6149067 12.6907333,18.70117 12.9512,18.70117 C13.2181333,18.70117 13.4378667,18.6165367 13.6104,18.44727 C13.7828667,18.2779967 13.8691,18.05664 13.8691,17.7832 L13.8691,13.82812 L17.8242,13.82812 C18.0911333,13.82812 18.3092333,13.7451133 18.4785,13.5791 C18.6477667,13.4130867 18.7324,13.2031267 18.7324,12.94922 C18.7324,12.67578 18.6477667,12.4544267 18.4785,12.28516 C18.3092333,12.1158867 18.0911333,12.03125 17.8242,12.03125 L13.8691,12.03125 L13.8691,8.0859 C13.8691,7.8125 13.7828667,7.58953333 13.6104,7.417 C13.4378667,7.24446667 13.2181333,7.1582 12.9512,7.1582 C12.6907333,7.1582 12.4775,7.24446667 12.3115,7.417 C12.1455,7.58953333 12.0625,7.8125 12.0625,8.0859 L12.0625,12.03125 L8.1172,12.03125 C7.84375333,12.03125 7.62239333,12.1158867 7.45312,12.28516 C7.28385333,12.4544267 7.19922,12.67578 7.19922,12.94922 Z" id="Shape"></path>
                </g>
                <text id="Design-Variations" fill="#000000" fill-rule="nonzero" font-family="Helvetica" font-size="13" font-weight="normal">
                    <tspan x="265" y="1952">Design Variations</tspan>
                </text>
                <text id="Symbols-are-supported-in-up-to-nine-weights-and-three-scales." fill="#000000" fill-rule="nonzero" font-family="Helvetica" font-size="13" font-weight="normal">
                    <tspan x="265" y="1970">Symbols are supported in up to nine weights and three scales.</tspan>
                </text>
                <text id="For-optimal-layout-with-text-and-other-symbols,-vertically-align" fill="#000000" fill-rule="nonzero" font-family="Helvetica" font-size="13" font-weight="normal">
                    <tspan x="265" y="1988">For optimal layout with text and other symbols, vertically align</tspan>
                </text>
                <text id="symbols-with-the-adjacent-text." fill="#000000" fill-rule="nonzero" font-family="Helvetica" font-size="13" font-weight="normal">
                    <tspan x="265" y="2006">symbols with the adjacent text.</tspan>
                </text>
                <line x1="778" y1="1918" x2="778" y2="1932" id="Path" stroke="#00AEEF" stroke-width="0.5"></line>
                <g id="Group" transform="translate(780.000000, 1917.000000)" fill="#000000" fill-rule="nonzero">
                    <path d="M1.31055,15.15625 C1.57096333,15.15625 1.77278667,15.1009115 1.91602,14.9902344 C2.05924667,14.8795575 2.17643333,14.6875 2.26758,14.414062 L3.52734,10.9668 L9.2891,10.9668 L10.5488,14.414062 C10.6399333,14.6875 10.7571333,14.8795575 10.9004,14.9902344 C11.0436,15.1009115 11.2421667,15.15625 11.4961,15.15625 C11.7565,15.15625 11.9632,15.0846354 12.1162,14.9414062 C12.2692,14.7981767 12.3457,14.6028643 12.3457,14.355469 C12.3457,14.205729 12.3099,14.029946 12.2383,13.82812 L7.6582,1.6309 C7.54101333,1.33136667 7.38151,1.10673333 7.17969,0.957 C6.97786333,0.807266667 6.7207,0.7324 6.4082,0.7324 C5.80273333,0.7324 5.39257667,1.02863333 5.17773,1.6211 L0.59766,13.83789 C0.52604,14.0397133 0.49023,14.2154947 0.49023,14.365234 C0.49023,14.61263 0.563473333,14.806315 0.70996,14.9462891 C0.856446667,15.086263 1.05664333,15.15625 1.31055,15.15625 Z M4.00586,9.48242 L6.37891,2.9102 L6.42773,2.9102 L8.8008,9.48242 L4.00586,9.48242 Z" id="Shape"></path>
                </g>
                <line x1="795.197" y1="1918" x2="795.197" y2="1932" id="Path" stroke="#00AEEF" stroke-width="0.5"></line>
                <text id="Margins" fill="#000000" fill-rule="nonzero" font-family="Helvetica" font-size="13" font-weight="normal">
                    <tspan x="778" y="1952">Margins</tspan>
                </text>
                <text id="Leading-and-trailing-margins-on-the-left-and-right-side-of-each-symbol" fill="#000000" fill-rule="nonzero" font-family="Helvetica" font-size="13" font-weight="normal">
                    <tspan x="778" y="1970">Leading and trailing margins on the left and right side of each symbol</tspan>
                </text>
                <text id="can-be-adjusted-by-modifying-the-x-location-of-the-margin-guidelines." fill="#000000" fill-rule="nonzero" font-family="Helvetica" font-size="13" font-weight="normal">
                    <tspan x="778" y="1988">can be adjusted by modifying the x-location of the margin guidelines.</tspan>
                </text>
                <text id="Modifications-are-automatically-applied-proportionally-to-all" fill="#000000" fill-rule="nonzero" font-family="Helvetica" font-size="13" font-weight="normal">
                    <tspan x="778" y="2006">Modifications are automatically applied proportionally to all</tspan>
                </text>
                <text id="scales-and-weights." fill="#000000" fill-rule="nonzero" font-family="Helvetica" font-size="13" font-weight="normal">
                    <tspan x="778" y="2024">scales and weights.</tspan>
                </text>
                <g id="Group" transform="translate(1293.000000, 1913.000000)" fill="#000000" fill-rule="nonzero">
                    <path d="M0.8418,20.86523 L2.54102,22.57422 C2.97070667,23.01042 3.42480667,23.2122433 3.90332,23.17969 C4.38183333,23.1471367 4.85221,22.8737 5.31445,22.35938 L16.0078,10.57227 L15.041,9.5957 L4.42578,21.27539 C4.25,21.47721 4.07259,21.5911433 3.89355,21.61719 C3.71451667,21.64323 3.50781333,21.5390633 3.27344,21.30469 L2.10156,20.14258 C1.86718667,19.908204 1.76465,19.7014977 1.79395,19.522461 C1.82324333,19.3434243 1.9388,19.1627603 2.14062,18.9804688 L13.6152,8.1797 L12.6387,7.2129 L1.04688,18.101562 C0.552086667,18.5572913 0.286786667,19.0227863 0.25098,19.498047 C0.215173333,19.973309 0.412113333,20.4290367 0.8418,20.86523 Z M7.25781,2.6719 C7.04947667,2.8737 6.93229,3.1048 6.90625,3.3652 C6.88021,3.62566667 6.92578333,3.85353333 7.04297,4.0488 C7.16015667,4.23113333 7.33105333,4.36786667 7.55566,4.459 C7.78027333,4.55013333 8.05535333,4.55663333 8.3809,4.4785 C9.11003333,4.30923333 9.84896667,4.23926667 10.5977,4.2686 C11.3463667,4.29786667 12.0787667,4.54686667 12.7949,5.0156 L12.209,6.4707 C12.0397333,6.88736667 11.9925333,7.25033333 12.0674,7.5596 C12.1422667,7.8688 12.3131667,8.16013333 12.5801,8.4336 L14.875,10.74805 C15.1158667,10.9954433 15.3502333,11.13867 15.5781,11.17773 C15.8059667,11.2167967 16.0598667,11.2102867 16.3398,11.1582 L17.4043,10.96289 L18.0684,11.63672 L18.0293,12.19336 C18.0097667,12.4407533 18.0407,12.6686167 18.1221,12.87695 C18.2034333,13.0852833 18.3645667,13.3098933 18.6055,13.55078 L19.3672,14.29297 C19.6080667,14.5338567 19.8701,14.6591833 20.1533,14.66895 C20.4365,14.67871 20.6953,14.5664033 20.9297,14.33203 L23.8398,11.41211 C24.0742,11.1777367 24.1881333,10.9222033 24.1816,10.64551 C24.1751333,10.3688167 24.0514333,10.1100267 23.8105,9.86914 L23.0391,9.10742 C22.8047,8.86654 22.5849667,8.70216667 22.3799,8.6143 C22.1748333,8.52636667 21.9518333,8.49216667 21.7109,8.5117 L21.1348,8.5605 L20.4902,7.9258 L20.7344,6.8027 C20.7994667,6.52276667 20.7864333,6.26073333 20.6953,6.0166 C20.6041667,5.77246667 20.4121,5.5039 20.1191,5.2109 L17.9219,3.0234 C17.0885667,2.1966 16.2015,1.5765 15.2607,1.1631 C14.3199667,0.7497 13.3727,0.534866667 12.4189,0.5186 C11.4651667,0.502266667 10.5472,0.6764 9.665,1.041 C8.78286667,1.4056 7.98047,1.94923333 7.25781,2.6719 Z M8.752,3.043 C9.35746667,2.60026667 10.0068667,2.2845 10.7002,2.0957 C11.3935333,1.9069 12.0950333,1.84666667 12.8047,1.915 C13.5143,1.9834 14.2027667,2.17383333 14.8701,2.4863 C15.5374333,2.79883333 16.1478,3.23503333 16.7012,3.7949 L19.1328,6.207 C19.25,6.3242 19.3232333,6.43813333 19.3525,6.5488 C19.3818333,6.65946667 19.3769667,6.79946667 19.3379,6.9688 L19.0156,8.4531 L20.5195,9.9375 L21.5059,9.87891 C21.6295667,9.87239667 21.7239667,9.88053333 21.7891,9.90332 C21.8541667,9.92610667 21.9355333,9.98632667 22.0332,10.08398 L22.6094,10.66016 L20.168,13.10156 L19.5918,12.52539 C19.4941333,12.4277367 19.4322667,12.3463567 19.4062,12.28125 C19.3802,12.2161433 19.3704667,12.1184867 19.377,11.98828 L19.4453,11.01172 L17.9512,9.52734 L16.4277,9.78125 C16.2649667,9.81380333 16.1364,9.81868667 16.042,9.7959 C15.9476,9.77311333 15.8385333,9.70312667 15.7148,9.58594 L13.7129,7.584 C13.5827,7.4668 13.5094667,7.3545 13.4932,7.2471 C13.4769333,7.13963333 13.5078333,6.99476667 13.5859,6.8125 L14.4648,4.7227 C13.6836,3.9935 12.8047,3.48893333 11.8281,3.209 C10.8515667,2.92906667 9.85546667,2.93883333 8.8398,3.2383 C8.76173333,3.25783333 8.7113,3.24316667 8.6885,3.1943 C8.6657,3.1455 8.68686667,3.09506667 8.752,3.043 Z" id="Shape"></path>
                </g>
                <text id="Exporting" fill="#000000" fill-rule="nonzero" font-family="Helvetica" font-size="13" font-weight="normal">
                    <tspan x="1291" y="1952">Exporting</tspan>
                </text>
                <text id="Symbols-should-be-outlined-when-exporting-to-ensure-the" fill="#000000" fill-rule="nonzero" font-family="Helvetica" font-size="13" font-weight="normal">
                    <tspan x="1291" y="1970">Symbols should be outlined when exporting to ensure the</tspan>
                </text>
                <text id="design-is-preserved-when-submitting-to-Xcode." fill="#000000" fill-rule="nonzero" font-family="Helvetica" font-size="13" font-weight="normal">
                    <tspan x="1291" y="1988">design is preserved when submitting to Xcode.</tspan>
                </text>
                <text id="template-version" fill="#000000" fill-rule="nonzero" font-family="Helvetica" font-size="13" font-weight="normal">
                    <tspan x="2954" y="1932">Template v.3.0</tspan>
                </text>
                <text id="Requires-Xcode-13-or-greater" fill="#000000" fill-rule="nonzero" font-family="Helvetica" font-size="13" font-weight="normal">
                    <tspan x="2867" y="1950">Requires Xcode 13 or greater</tspan>
                </text>
                <text id="descriptive-name" fill="#000000" fill-rule="nonzero" font-family="Helvetica" font-size="13" font-weight="normal">
                    <tspan x="2795" y="1968">Generated from arrow.triangle.2.circlepath</tspan>
                </text>
                <text id="Typeset-at-100-points" fill="#000000" fill-rule="nonzero" font-family="Helvetica" font-size="13" font-weight="normal">
                    <tspan x="2914" y="1986">Typeset at 100 points</tspan>
                </text>
                <text id="Small" fill="#000000" fill-rule="nonzero" font-family="Helvetica" font-size="13" font-weight="normal">
                    <tspan x="265" y="725">Small</tspan>
                </text>
                <text id="Medium" fill="#000000" fill-rule="nonzero" font-family="Helvetica" font-size="13" font-weight="normal">
                    <tspan x="265" y="1155">Medium</tspan>
                </text>
                <text id="Large" fill="#000000" fill-rule="nonzero" font-family="Helvetica" font-size="13" font-weight="normal">
                    <tspan x="265" y="1585">Large</tspan>
                </text>
            </g>
            <g id="Guides" transform="translate(265.000000, 624.000000)">
                <g id="H-reference" transform="translate(76.000000, 0.000000)" fill="#27AAE1" fill-rule="nonzero">
                    <path d="M0.993347,71 L3.6377,71 L29.3282,3.8674 L30.0301,3.8674 L30.0301,0.541 L28.1227,0.541 L0.993347,71 Z M11.6882,46.5203 L46.9818,46.5203 L46.2311,44.2712 L12.4382,44.2712 L11.6882,46.5203 Z M55.1193,71 L57.7637,71 L30.6381,0.541 L29.4327,0.541 L29.4327,3.8674 L55.1193,71 Z" id="Shape"></path>
                </g>
                <line x1="0" y1="71" x2="2773" y2="71" id="Baseline-S" stroke="#27AAE1" stroke-width="0.5"></line>
                <line x1="0" y1="0.541" x2="2773" y2="0.541" id="Capline-S" stroke="#27AAE1" stroke-width="0.5"></line>
                <g id="H-reference" transform="translate(76.000000, 430.000000)" fill="#27AAE1" fill-rule="nonzero">
                    <path d="M0.993347,71 L3.6377,71 L29.3282,3.8674 L30.0301,3.8674 L30.0301,0.541 L28.1227,0.541 L0.993347,71 Z M11.6882,46.5203 L46.9818,46.5203 L46.2311,44.2712 L12.4382,44.2712 L11.6882,46.5203 Z M55.1193,71 L57.7637,71 L30.6381,0.541 L29.4327,0.541 L29.4327,3.8674 L55.1193,71 Z" id="Shape"></path>
                </g>
                <line x1="0" y1="501" x2="2773" y2="501" id="Baseline-M" stroke="#27AAE1" stroke-width="0.5"></line>
                <line x1="0" y1="430.54" x2="2773" y2="430.54" id="Capline-M" stroke="#27AAE1" stroke-width="0.5"></line>
                <g id="H-reference" transform="translate(76.000000, 860.000000)" fill="#27AAE1" fill-rule="nonzero">
                    <path d="M0.993347,71 L3.6377,71 L29.3282,3.8674 L30.0301,3.8674 L30.0301,0.541 L28.1227,0.541 L0.993347,71 Z M11.6882,46.5203 L46.9818,46.5203 L46.2311,44.2712 L12.4382,44.2712 L11.6882,46.5203 Z M55.1193,71 L57.7637,71 L30.6381,0.541 L29.4327,0.541 L29.4327,3.8674 L55.1193,71 Z" id="Shape"></path>
                </g>
                <line x1="0" y1="931" x2="2773" y2="931" id="Baseline-L" stroke="#27AAE1" stroke-width="0.5"></line>
                <line x1="0" y1="860.54" x2="2773" y2="860.54" id="Capline-L" stroke="#27AAE1" stroke-width="0.5"></line>
                <line x1="1118.44" y1="405.79" x2="1118.44" y2="525.12" id="left-margin-Regular-M" stroke="#00AEEF" stroke-width="0.5"></line>
                <line x1="1255.25" y1="405.79" x2="1255.25" y2="525.12" id="right-margin-Regular-M" stroke="#00AEEF" stroke-width="0.5"></line>
            </g>
            <g id="Symbols" transform="translate(1402.000000, 616.000000)" fill="#000000">
                <g id="Regular-M" transform="translate(0.440000, 414.000000)">
                    <path d="M100,60.0007 C100,82.9045 85.215,103.38 64.045,109.785 C63.565,109.931 63.075,110.001 62.595,110.001 C60.45,110.001 58.465,108.608 57.815,106.447 C57.01,103.807 58.505,101.017 61.15,100.213 C78.135,95.0753 90,78.5359 90,60.0007 C90,42.6167 79.85,28.4954 64.475,22.7745 L69.47,32.7635 C70.71,35.2318 69.705,38.2381 67.235,39.4747 C66.52,39.8317 65.755,40.0026 65.005,40.0026 C63.17,40.0026 61.405,38.9921 60.525,37.2377 L50.525,17.2396 C49.29,14.7712 50.295,11.765 52.765,10.5333 L72.765,0.529233952 C75.245,-0.707450049 78.24,0.297983952 79.47,2.76632995 C80.71,5.23466995 79.705,8.24091995 77.235,9.47257996 L68.86,13.6602 C87.48,21.0803 100,38.9167 100,60.0007 Z M47.235,109.473 L27.235,119.472 C26.52,119.829 25.755,120 25.005,120 C23.17,120 21.405,118.99 20.525,117.235 C19.29,114.767 20.295,111.76 22.765,110.529 L31.13,106.346 C12.52,98.9311 0,81.0947 0,60.0007 C0,37.1019 14.785,16.6313 35.95,10.2166 C38.595,9.41727996 41.385,10.9103 42.185,13.5496 C42.99,16.1939 41.495,18.984 38.855,19.7883 C21.865,24.9362 10,41.4705 10,60.0007 C10,77.3997 20.155,91.5261 35.525,97.237 L30.525,87.2379 C29.29,84.7646 30.295,81.7633 32.765,80.5266 C35.24,79.29 38.24,80.3004 39.47,82.7637 L49.47,102.767 C50.71,105.235 49.705,108.236 47.235,109.473 Z" id="Shape"></path>
                </g>
                <g id="Regular-S" transform="translate(12.820000, 0.000000)">
                    <path d="M74,44.5005191 C74,61.4875042 63.0591,76.6735 47.3933,81.423875 C47.0381,81.5321583 46.6755,81.584075 46.3203,81.584075 C44.733,81.584075 43.2641,80.5509333 42.7831,78.9481917 C42.1874,76.9901917 43.2937,74.9209417 45.251,74.3246417 C57.8199,70.5141808 66.6,58.2474592 66.6,44.5005191 C66.6,31.6073858 59.089,21.1340883 47.7115,16.8910875 L51.4078,24.2995958 C52.3254,26.1302516 51.5817,28.3599241 49.7539,29.2770691 C49.2248,29.5418441 48.6587,29.668595 48.1037,29.668595 C46.7458,29.668595 45.4397,28.9191408 44.7885,27.6179608 L37.3885,12.7860366 C36.4746,10.9553066 37.2183,8.7257083 39.0461,7.81219747 L53.8461,0.392515181 C55.6813,-0.52469212 57.8976,0.221004764 58.8078,2.05169471 C59.7254,3.88238022 58.9817,6.11201563 57.1539,7.0254968 L50.9564,10.131315 C64.7352,15.6345558 74,28.8632191 74,44.5005191 Z M34.9539,81.192475 L20.1539,88.6084 C19.6248,88.873175 19.0587,89 18.5037,89 C17.1458,89 15.8397,88.2509167 15.1885,86.9492917 C14.2746,85.1188583 15.0183,82.8886667 16.8461,81.975675 L23.0362,78.8732833 C9.2648,73.3738992 0,60.1452358 0,44.5005191 C0,27.5172425 10.9409,12.3348808 26.603,7.57731163 C28.5603,6.98448263 30.6249,8.0918058 31.2169,10.0492866 C31.8126,12.0104758 30.7063,14.0798 28.7527,14.6763225 C16.1801,18.4943483 7.4,30.7572875 7.4,44.5005191 C7.4,57.4047775 14.9147,67.8818575 26.2885,72.1174417 L22.5885,64.7014425 C21.6746,62.8670783 22.4183,60.6411142 24.2461,59.723895 C26.0776,58.80675 28.2976,59.55613 29.2078,61.3830775 L36.6078,76.2188583 C37.5254,78.0492917 36.7817,80.2750333 34.9539,81.192475 Z" id="Shape"></path>
                </g>
            </g>
        </g>
    </g>
</svg>