<svg width="24" height="24" viewBox="0 0 24 24" fill="none" xmlns="http://www.w3.org/2000/svg">
<g clip-path="url(#clip0_1265_21780)">
<path d="M12 24C18.6274 24 24 18.6274 24 12C24 5.37258 18.6274 0 12 0C5.37258 0 0 5.37258 0 12C0 18.6274 5.37258 24 12 24Z" fill="#42C1CA"/>
<path d="M11.6429 9.93726C11.8744 8.96464 12.1531 8.09035 12.4493 7.51973C12.5582 7.24717 13.0001 6.59441 13.4848 6.16317C14.2919 5.44445 15.1973 5.26212 16.14 5.8539L16.0573 5.9852L16.14 5.8539C16.6211 6.1557 16.814 6.46622 16.7293 6.75869C16.6671 6.97648 16.4288 7.15072 16.3012 7.13267C16.1145 7.15134 15.9266 7.114 15.7474 6.98208C15.5965 6.86588 15.4801 6.71077 15.4107 6.53342C15.2788 6.22229 15.1058 6.1165 14.8936 6.14139C14.7399 6.15882 14.5613 6.25713 14.5047 6.3231L14.3585 6.48489C14.2448 6.60593 14.1439 6.73834 14.0573 6.88003C13.7611 7.37349 13.4879 8.27766 13.1089 10.1513L15.6204 10.5191L15.4823 11.5253L12.9335 11.1519L12.8246 11.814L12.7966 11.9796C12.7816 12.0654 12.7655 12.1588 12.7468 12.2583L15.3205 12.6354L15.173 13.6404L12.5389 13.2546C12.2347 14.5477 11.8339 15.9335 11.5508 16.4805C11.4413 16.7536 11.0001 17.4052 10.5153 17.837C9.70823 18.5551 8.80282 18.7381 7.86007 18.1463C7.37906 17.8445 7.18615 17.5333 7.27078 17.2409C7.33301 17.0231 7.57134 16.8495 7.69891 16.8675C7.88559 16.8488 8.07351 16.8862 8.25273 17.0175C8.39087 17.1195 8.50537 17.2676 8.58938 17.4668C8.7213 17.7773 8.89429 17.8837 9.10649 17.8588C9.26019 17.8407 9.43878 17.7424 9.49541 17.6765C10.0598 17.048 10.5072 15.837 11.0729 13.0405L8.56138 12.6721L8.69952 11.6659L11.2484 12.0393L11.3579 11.3778C11.3821 11.2292 11.408 11.0809 11.4357 10.9329L8.87189 10.5577L9.01875 9.55269L11.6429 9.93726Z" fill="white"/>
</g>
<defs>
<clipPath id="clip0_1265_21780">
<rect width="24" height="24" fill="white"/>
</clipPath>
</defs>
</svg>
