<svg height="366" viewBox="0 0 366 366" width="366" xmlns="http://www.w3.org/2000/svg" xmlns:xlink="http://www.w3.org/1999/xlink"><linearGradient id="a" gradientUnits="objectBoundingBox" x1=".5" x2=".5" y1="1"><stop offset="0" stop-color="#05aac5"/><stop offset="1" stop-color="#71e0ec"/></linearGradient><linearGradient id="b" x1=".5" x2=".5" xlink:href="#a" y1="1" y2="0"/><clipPath id="c"><path d="m0 0h366v366h-366z"/></clipPath><g clip-path="url(#c)"><circle cx="183" cy="183" fill="#fff" r="183"/><g transform="translate(58 39.988)"><path d="m125.5 234.9a78.143 78.143 0 0 1 -78.1-78.1c0-41.9 70.7-115.9 73.7-119l3.7-3.9 3.8 3.8c3.1 3.1 75 77.1 75 119a78.164 78.164 0 0 1 -78.1 78.2zm-.6-185.9c-6.2 6.7-19.2 21.2-32.1 38.2-22.9 30.2-35 54.2-35 69.5a67.7 67.7 0 0 0 135.4 0c0-15.3-12.3-39.3-35.6-69.5-13.1-16.9-26.4-31.5-32.7-38.2z" fill="url(#a)"/><g fill="url(#b)"><path d="m125.5 259.9a103.216 103.216 0 0 1 -103.1-103.1c0-55.6 77.6-133.2 80.9-136.4a5.233 5.233 0 1 1 7.4 7.4c-.8.8-77.8 77.8-77.8 129a92.7 92.7 0 1 0 185.4 0c0-21-13.6-50-39.4-84.1a489.861 489.861 0 0 0 -39.9-46.1 5.233 5.233 0 1 1 7.4-7.4c3.4 3.3 82.4 81.9 82.4 137.6-.2 56.8-46.4 103.1-103.3 103.1z"/><path d="m125.5 284.9a125.643 125.643 0 0 1 -125.5-125.5c0-28.6 14.4-63.8 42.7-104.5a464.765 464.765 0 0 1 42.3-52.3 5.233 5.233 0 1 1 7.5 7.3 467.435 467.435 0 0 0 -41.3 51.1c-26.7 38.3-40.8 72.3-40.8 98.4a115.1 115.1 0 1 0 230.2 0c0-26.1-14.2-60.1-41.1-98.4a469.025 469.025 0 0 0 -41.7-51.1 5.233 5.233 0 0 1 7.5-7.3c3.5 3.6 85.7 89 85.7 156.8a125.643 125.643 0 0 1 -125.5 125.5z"/></g></g></g></svg>