<svg width="456" height="125" viewBox="0 0 456 125" fill="none" xmlns="http://www.w3.org/2000/svg">
<g clip-path="url(#clip0_981_50991)">
<g opacity="0.3">
<rect x="30.6937" y="16.0189" width="38.6393" height="26.1384" rx="3.97758" fill="white" stroke="#D9D9D9" stroke-width="1.13645"/>
<path fill-rule="evenodd" clip-rule="evenodd" d="M52.753 28.5062H54.0552C54.4682 28.4913 54.7193 28.4595 54.8097 28.4097C54.9331 28.3417 55.016 28.2056 55.0572 28.0014C55.0836 27.8654 55.0968 27.6634 55.0968 27.3949C55.0968 27.0661 55.0706 26.8224 55.018 26.6632C54.9428 26.4402 54.7629 26.3044 54.4779 26.255C54.4215 26.2476 54.2866 26.2436 54.0729 26.2436H52.753V28.5062ZM50.6636 32.3174V24.5425H54.5555C55.0893 24.5425 55.4966 24.5862 55.7765 24.6734C56.4166 24.8743 56.8461 25.2857 57.0661 25.9073C57.1796 26.2336 57.2364 26.7248 57.2364 27.3808C57.2364 28.1694 57.1734 28.7362 57.0488 29.0812C56.7992 29.7636 56.2853 30.1566 55.5094 30.2585C55.4182 30.2738 55.03 30.2875 54.3447 30.2984L53.9979 30.31H52.7525V32.3174H50.6636ZM40.1745 27.0226H42.1179C42.1304 26.8508 42.1367 26.7223 42.1367 26.6364C42.1367 25.5888 41.7139 24.9512 40.8682 24.7236C40.5217 24.6305 39.9405 24.5835 39.1248 24.5835C38.6067 24.5835 38.1357 24.6025 37.7111 24.6396C37.2009 24.6807 36.7816 24.8183 36.454 25.0527C36.2304 25.2054 36.0684 25.4287 35.9678 25.7228C35.8673 26.0168 35.817 26.4077 35.817 26.8951C35.817 27.5352 35.9101 28.0137 36.096 28.33C36.3076 28.7022 36.7316 28.9473 37.3679 29.0666C37.6095 29.108 38.041 29.1507 38.6621 29.1951C39.4355 29.2473 39.8689 29.2884 39.962 29.3179C40.2111 29.3926 40.3358 29.6009 40.3358 29.9432C40.3358 30.096 40.3211 30.2209 40.2913 30.3174C40.2353 30.4742 40.118 30.5874 39.9394 30.6578C39.839 30.6953 39.6064 30.714 39.2418 30.714H38.5273C38.3371 30.7099 38.1754 30.6749 38.0414 30.6082C37.848 30.5115 37.7512 30.2944 37.7512 29.9568L37.751 29.7951H35.8076C35.8076 30.4277 35.8539 30.8797 35.9473 31.151C36.115 31.6385 36.4615 31.9622 36.9871 32.122C37.4154 32.2524 38.1739 32.3173 39.2622 32.3173C39.9142 32.3173 40.3989 32.2874 40.7158 32.2276C41.4721 32.0862 41.9582 31.7496 42.1746 31.2166C42.294 30.9261 42.3536 30.4676 42.3536 29.8417C42.3536 29.5702 42.3406 29.3258 42.3144 29.1098C42.2697 28.7487 42.1295 28.4563 41.8943 28.2326C41.5956 27.9458 41.114 27.7689 40.4498 27.7018C40.2406 27.6794 39.716 27.6401 38.876 27.5843L38.4841 27.5565C38.3121 27.5454 38.1741 27.5081 38.0697 27.4448C37.9239 27.3554 37.8512 27.1691 37.8512 26.886C37.8512 26.5733 37.9334 26.3702 38.0974 26.2768C38.2615 26.1837 38.5979 26.1372 39.1052 26.1372C39.6276 26.1372 39.9469 26.2181 40.0625 26.3796C40.1371 26.4887 40.1745 26.7031 40.1745 27.0226ZM35.8148 33.8591L36.1062 33.8297C36.1237 33.9281 36.1593 34.0002 36.2129 34.0464C36.2665 34.0926 36.3389 34.1156 36.4299 34.1156C36.5263 34.1156 36.5989 34.0951 36.6479 34.0542C36.6968 34.0132 36.7212 33.9652 36.7212 33.9103C36.7212 33.8752 36.7109 33.8453 36.6905 33.8204C36.6699 33.7957 36.6341 33.7743 36.583 33.7559C36.548 33.744 36.4683 33.7224 36.3439 33.6915C36.1838 33.6519 36.0715 33.603 36.0069 33.545C35.9162 33.4635 35.8708 33.3641 35.8708 33.2468C35.8708 33.1714 35.8921 33.1008 35.935 33.0351C35.9777 32.9694 36.0395 32.9193 36.12 32.8849C36.2006 32.8506 36.2979 32.8334 36.4118 32.8334C36.5979 32.8334 36.7379 32.8744 36.832 32.9563C36.9261 33.0382 36.9754 33.1475 36.9801 33.2843L36.68 33.2961C36.6672 33.2197 36.6397 33.1648 36.5975 33.1312C36.5554 33.0977 36.4922 33.0809 36.408 33.0809C36.321 33.0809 36.253 33.0989 36.2037 33.1347C36.172 33.1576 36.1562 33.1884 36.1562 33.2269C36.1562 33.2621 36.1711 33.292 36.2007 33.3171C36.2384 33.3488 36.33 33.3819 36.4756 33.4162C36.6211 33.4505 36.7287 33.4861 36.7985 33.523C36.8681 33.5599 36.9228 33.6104 36.9622 33.6743C37.0016 33.7385 37.0213 33.8175 37.0213 33.9117C37.0213 33.9971 36.9977 34.077 36.9504 34.1515C36.9032 34.226 36.8364 34.2814 36.7501 34.3176C36.6637 34.3538 36.5561 34.3721 36.4272 34.3721C36.2396 34.3721 36.0955 34.3284 35.995 34.241C35.8945 34.1537 35.8344 34.0265 35.8148 33.8591ZM37.3326 33.2694H37.618V34.3453H37.3326V33.2694ZM37.3325 32.86H37.6179V33.1224H37.3325V32.86ZM38.6645 34.3458H38.95V33.6758C38.95 33.5926 38.9447 33.5287 38.9342 33.484C38.9238 33.4393 38.9052 33.3994 38.8786 33.3643C38.8519 33.3291 38.8127 33.3001 38.7608 33.2775C38.7089 33.2548 38.6516 33.2434 38.5888 33.2434C38.4467 33.2434 38.3286 33.3049 38.2349 33.428V33.2699H37.9701V34.3458H38.2555V33.8575C38.2555 33.7369 38.2627 33.6544 38.2772 33.6098C38.2916 33.5651 38.3182 33.5292 38.3572 33.5022C38.3962 33.4751 38.4402 33.4615 38.4892 33.4615C38.5274 33.4615 38.5602 33.471 38.5874 33.4899C38.6146 33.5089 38.6342 33.5355 38.6464 33.5697C38.6584 33.6038 38.6645 33.6791 38.6645 33.7955V34.3458ZM39.5273 33.7847C39.5273 33.8992 39.5491 33.9831 39.593 34.0362C39.6368 34.0895 39.6908 34.116 39.7552 34.116C39.824 34.116 39.8822 34.0887 39.9297 34.0342C39.9772 33.9797 40.001 33.8989 40.001 33.7918C40.001 33.6801 39.9782 33.5971 39.9327 33.5429C39.8872 33.4887 39.8297 33.4616 39.7601 33.4616C39.6925 33.4616 39.6368 33.4883 39.593 33.5414C39.5491 33.5947 39.5273 33.6757 39.5273 33.7847ZM39.2711 34.4165L39.5948 34.4519C39.6002 34.492 39.6128 34.5195 39.6324 34.5346C39.6595 34.5561 39.7021 34.5669 39.7603 34.5669C39.8348 34.5669 39.8906 34.5558 39.9279 34.5335C39.9529 34.5186 39.9719 34.4946 39.9848 34.4615C39.9936 34.4378 39.998 34.3943 39.998 34.3307L39.9988 34.1736C39.9147 34.2884 39.8079 34.3458 39.6783 34.3458C39.5338 34.3458 39.4195 34.2847 39.3351 34.1621C39.2689 34.0654 39.2358 33.9448 39.2358 33.8007C39.2358 33.62 39.2791 33.482 39.3659 33.3865C39.4526 33.2912 39.5605 33.2434 39.6894 33.2434C39.8224 33.2434 39.9321 33.302 40.0185 33.419V33.2699H40.2834V34.237C40.2834 34.3643 40.273 34.4594 40.252 34.5222C40.231 34.5852 40.2017 34.6345 40.1638 34.6704C40.126 34.7062 40.0755 34.7343 40.0123 34.7546C39.9491 34.7749 39.8693 34.7851 39.7728 34.7851C39.5904 34.7851 39.461 34.7536 39.3846 34.6906C39.3082 34.6277 39.2701 34.5479 39.2701 34.4512C39.2701 34.4417 39.2705 34.4302 39.2711 34.4165ZM40.9107 32.86H40.6253V34.3456H40.9107V32.86ZM41.9049 33.718C41.9029 33.6343 41.8815 33.5707 41.8407 33.527C41.8001 33.4835 41.7505 33.4616 41.6922 33.4616C41.6297 33.4616 41.5781 33.4847 41.5374 33.5306C41.4967 33.5766 41.4767 33.6391 41.4774 33.718H41.9049ZM41.8899 34.0069L42.1724 34.054C42.1359 34.1577 42.0782 34.2367 41.9993 34.291C41.9205 34.3453 41.8218 34.3724 41.7035 34.3724C41.516 34.3724 41.3773 34.311 41.2874 34.1883C41.2163 34.09 41.1808 33.9659 41.1808 33.816C41.1808 33.6371 41.2274 33.4969 41.3208 33.3955C41.4141 33.2941 41.5321 33.2434 41.6748 33.2434C41.8351 33.2434 41.9616 33.2966 42.0542 33.4029C42.1469 33.5094 42.1912 33.6723 42.1871 33.8919H41.4721C41.4741 33.9766 41.4973 34.0424 41.5415 34.0896C41.5858 34.1366 41.641 34.1602 41.7071 34.1602C41.752 34.1602 41.7898 34.1481 41.8204 34.1238C41.851 34.0997 41.8743 34.0606 41.8899 34.0069ZM43.1207 32.86V34.3456H44.2478V34.0951H43.4209V33.6913H44.1625V33.4407H43.4209V33.1106H44.2184V32.86H43.1207ZM45.268 34.3454V34.1843C45.2288 34.2417 45.1773 34.2874 45.1133 34.3212C45.0494 34.355 44.982 34.372 44.911 34.372C44.8386 34.372 44.7738 34.356 44.7162 34.3242C44.6588 34.2924 44.6172 34.2477 44.5915 34.1903C44.5658 34.1328 44.553 34.0532 44.553 33.9518V33.2695H44.8384V33.7643C44.8384 33.9158 44.8435 34.0086 44.8541 34.0427C44.8645 34.077 44.8836 34.104 44.9112 34.124C44.9389 34.1439 44.974 34.1538 45.0165 34.1538C45.0651 34.1538 45.1087 34.1406 45.1471 34.1138C45.1856 34.0871 45.2119 34.054 45.2261 34.0144C45.2403 33.9749 45.2474 33.878 45.2474 33.7239V33.2695H45.5328V34.3454H45.268ZM45.8747 34.3458H46.1602V34.0131C46.1602 33.8299 46.1682 33.7095 46.1841 33.652C46.2 33.5946 46.2218 33.5549 46.2496 33.5328C46.2774 33.5109 46.3112 33.4999 46.3512 33.4999C46.3925 33.4999 46.4373 33.5155 46.4853 33.5465L46.5721 33.2974C46.512 33.2614 46.4495 33.2434 46.3847 33.2434C46.3388 33.2434 46.2978 33.2553 46.2617 33.279C46.2255 33.3028 46.1848 33.3507 46.1395 33.4229V33.2699H45.8747V34.3458ZM46.9787 33.8081C46.9787 33.9153 47.004 33.9973 47.0548 34.0543C47.1055 34.1113 47.1681 34.1397 47.2425 34.1397C47.3169 34.1397 47.3794 34.1113 47.4297 34.0543C47.4801 33.9973 47.5054 33.9146 47.5054 33.8061C47.5054 33.7004 47.4801 33.6189 47.4297 33.562C47.3794 33.505 47.3169 33.4766 47.2425 33.4766C47.1681 33.4766 47.1055 33.505 47.0548 33.562C47.004 33.6189 46.9787 33.701 46.9787 33.8081ZM46.6871 33.7926C46.6871 33.6977 46.7104 33.6058 46.757 33.517C46.8035 33.4282 46.8694 33.3604 46.9548 33.3136C47.0401 33.2668 47.1355 33.2434 47.2408 33.2434C47.4034 33.2434 47.5367 33.2964 47.6406 33.4026C47.7445 33.5087 47.7965 33.6428 47.7965 33.8048C47.7965 33.9682 47.7439 34.1038 47.639 34.2112C47.5341 34.3186 47.402 34.3724 47.2428 34.3724C47.1443 34.3724 47.0503 34.3499 46.961 34.3053C46.8715 34.2605 46.8035 34.195 46.757 34.1085C46.7104 34.022 46.6871 33.9168 46.6871 33.7926ZM49.026 33.5352V33.1107H49.1702C49.278 33.1107 49.3495 33.1141 49.3852 33.1209C49.4336 33.1298 49.4736 33.1519 49.5053 33.1872C49.5369 33.2226 49.5527 33.2675 49.5527 33.3219C49.5527 33.3662 49.5414 33.4049 49.5189 33.4382C49.4964 33.4716 49.4652 33.4961 49.4256 33.5118C49.3859 33.5275 49.3071 33.5352 49.1894 33.5352H49.026ZM48.7259 32.86V34.3456H49.026V33.7856H49.2211C49.3564 33.7856 49.4598 33.7785 49.5312 33.7643C49.5838 33.7528 49.6355 33.7294 49.6863 33.6938C49.7372 33.6583 49.7792 33.6095 49.8121 33.5474C49.8452 33.4851 49.8617 33.4085 49.8617 33.3173C49.8617 33.199 49.833 33.1025 49.7757 33.0279C49.7183 32.9532 49.6473 32.9046 49.5623 32.8823C49.507 32.8675 49.3883 32.86 49.2063 32.86H48.7259ZM50.7583 33.83C50.7218 33.8423 50.6643 33.8568 50.5856 33.8738C50.5068 33.8907 50.4553 33.9074 50.4312 33.9236C50.3941 33.9501 50.3758 33.9837 50.3758 34.0243C50.3758 34.0644 50.3905 34.0989 50.42 34.1282C50.4497 34.1573 50.4873 34.172 50.5332 34.172C50.5843 34.172 50.633 34.155 50.6795 34.1211C50.7138 34.0953 50.7364 34.0638 50.7471 34.0264C50.7545 34.002 50.7583 33.9555 50.7583 33.8869V33.83ZM50.3759 33.5971L50.1198 33.55C50.1489 33.4458 50.1988 33.3687 50.2696 33.3186C50.3405 33.2685 50.4457 33.2434 50.5854 33.2434C50.7122 33.2434 50.8068 33.2585 50.8688 33.2885C50.9309 33.3188 50.9747 33.357 50.9999 33.4033C51.0252 33.4496 51.0379 33.5348 51.0379 33.6586L51.035 33.9916C51.035 34.0863 51.0395 34.1563 51.0486 34.2012C51.0577 34.2462 51.0748 34.2944 51.0997 34.3458H50.8172C50.8097 34.3272 50.8007 34.2996 50.7898 34.263C50.7851 34.2463 50.7817 34.2353 50.7798 34.23C50.7313 34.2774 50.6794 34.3131 50.6241 34.3368C50.5688 34.3605 50.51 34.3724 50.4473 34.3724C50.3367 34.3724 50.2495 34.3422 50.1859 34.282C50.1222 34.2218 50.0904 34.1455 50.0904 34.0535C50.0904 33.9926 50.1049 33.9383 50.1338 33.8906C50.1629 33.8429 50.2036 33.8063 50.2558 33.7809C50.3082 33.7556 50.3836 33.7332 50.4821 33.7143C50.615 33.6893 50.7071 33.666 50.7584 33.6443V33.6155C50.7584 33.5601 50.7448 33.5205 50.7177 33.4969C50.6905 33.4733 50.6393 33.4615 50.564 33.4615C50.5132 33.4615 50.4735 33.4716 50.445 33.4916C50.4165 33.5117 50.3934 33.5469 50.3759 33.5971ZM51.5459 33.2695H51.2429L51.6524 34.3484C51.6355 34.4091 51.6111 34.4592 51.5792 34.4986C51.5473 34.5379 51.4982 34.5576 51.4316 34.5576C51.3957 34.5576 51.3553 34.5533 51.3105 34.5443L51.3371 34.7674C51.3897 34.7789 51.4436 34.7846 51.4983 34.7846C51.5523 34.7846 51.6008 34.7789 51.6438 34.7673C51.6867 34.7559 51.7227 34.7396 51.7522 34.719C51.7815 34.6984 51.8076 34.6714 51.8302 34.6383C51.8528 34.6051 51.8766 34.5571 51.9017 34.4941L52.3493 33.2695H52.0551L51.8035 34.0333L51.5459 33.2695ZM52.5719 33.2699H52.8338V33.4169C52.9279 33.3012 53.0398 33.2434 53.1698 33.2434C53.2387 33.2434 53.2986 33.2576 53.3493 33.286C53.4001 33.3145 53.4417 33.3575 53.4741 33.4149C53.5214 33.3575 53.5725 33.3145 53.6271 33.286C53.6819 33.2576 53.7402 33.2434 53.8024 33.2434C53.8815 33.2434 53.9483 33.2595 54.003 33.2917C54.0577 33.3237 54.0987 33.371 54.1257 33.4333C54.1452 33.4792 54.155 33.5537 54.155 33.6566V34.3458H53.8696V33.7296C53.8696 33.6226 53.8598 33.5537 53.8403 33.5225C53.8139 33.4818 53.7735 33.4615 53.719 33.4615C53.6792 33.4615 53.6417 33.4737 53.6067 33.4981C53.5717 33.5225 53.5464 33.5582 53.531 33.6053C53.5154 33.6522 53.5076 33.7266 53.5076 33.828V34.3458H53.2222V33.755C53.2222 33.65 53.2172 33.5824 53.2071 33.5519C53.197 33.5214 53.1813 33.4988 53.1601 33.4839C53.1388 33.469 53.1101 33.4615 53.0736 33.4615C53.0298 33.4615 52.9904 33.4734 52.9554 33.4971C52.9203 33.5207 52.8953 33.555 52.88 33.5996C52.8649 33.6443 52.8573 33.7183 52.8573 33.8219V34.3458H52.5719V33.2699ZM55.0736 33.527C55.1145 33.5707 55.1358 33.6343 55.1378 33.718H54.7103C54.7097 33.6391 54.7296 33.5766 54.7704 33.5306C54.811 33.4847 54.8627 33.4616 54.925 33.4616C54.9834 33.4616 55.033 33.4835 55.0736 33.527ZM55.4059 34.054L55.1235 34.0069C55.1078 34.0606 55.0847 34.0997 55.0539 34.1238C55.0233 34.1481 54.9855 34.1602 54.9406 34.1602C54.8744 34.1602 54.8192 34.1366 54.775 34.0896C54.7308 34.0424 54.7076 33.9766 54.7056 33.8919H55.4206C55.4247 33.6723 55.3803 33.5094 55.2877 33.4029C55.195 33.2966 55.0687 33.2434 54.9083 33.2434C54.7655 33.2434 54.6476 33.2941 54.5542 33.3955C54.461 33.4969 54.4142 33.6371 54.4142 33.816C54.4142 33.9659 54.4497 34.09 54.5208 34.1883C54.6108 34.311 54.7495 34.3724 54.9369 34.3724C55.0554 34.3724 55.154 34.3453 55.2329 34.291C55.3117 34.2367 55.3693 34.1577 55.4059 34.054ZM56.6909 34.3458H56.4055V33.7955C56.4055 33.6791 56.3994 33.6038 56.3874 33.5697C56.3753 33.5355 56.3556 33.5089 56.3284 33.4899C56.3012 33.471 56.2684 33.4615 56.2302 33.4615C56.1812 33.4615 56.1371 33.4751 56.0982 33.5022C56.0592 33.5292 56.0326 33.5651 56.0181 33.6098C56.0037 33.6544 55.9964 33.7369 55.9964 33.8575V34.3458H55.711V33.2699H55.9758V33.428C56.0696 33.3049 56.1876 33.2434 56.3298 33.2434C56.3925 33.2434 56.4499 33.2548 56.5017 33.2775C56.5536 33.3001 56.593 33.3291 56.6196 33.3643C56.6463 33.3994 56.6647 33.4393 56.6752 33.484C56.6857 33.5287 56.6909 33.5926 56.6909 33.6758V34.3458ZM57.5332 33.4967V33.2698H57.3389V32.8866L57.0535 33.0546V33.2698H56.9241V33.4967H57.0535V33.967C57.0535 34.0678 57.0565 34.1349 57.0626 34.1681C57.0699 34.2148 57.0831 34.2519 57.1022 34.2792C57.1214 34.3067 57.1515 34.3291 57.1923 34.3463C57.2333 34.3635 57.2792 34.3722 57.3303 34.3722C57.4134 34.3722 57.4879 34.358 57.5537 34.3296L57.5288 34.1091C57.4796 34.1273 57.4423 34.1364 57.4163 34.1364C57.3978 34.1364 57.3822 34.1316 57.3692 34.1222C57.3563 34.1126 57.348 34.1007 57.3444 34.086C57.3407 34.0715 57.3389 34.0201 57.3389 33.932V33.4967H57.5332ZM57.6937 34.0423L57.9791 33.998C57.9913 34.053 58.0159 34.0947 58.0529 34.1233C58.09 34.1519 58.1417 34.166 58.2084 34.166C58.282 34.166 58.3372 34.1524 58.3742 34.1253C58.3992 34.1061 58.4117 34.0807 58.4117 34.0487C58.4117 34.027 58.4048 34.0089 58.3913 33.9947C58.377 33.981 58.3451 33.9685 58.2956 33.9569C58.065 33.9059 57.9188 33.8594 57.8572 33.8174C57.7717 33.7592 57.729 33.6782 57.729 33.5747C57.729 33.4811 57.7658 33.4026 57.8398 33.339C57.9138 33.2753 58.0284 33.2434 58.1837 33.2434C58.3315 33.2434 58.4413 33.2673 58.5132 33.3149C58.5851 33.3627 58.6346 33.4331 58.6618 33.5264L58.394 33.5765C58.3824 33.5347 58.3604 33.5025 58.328 33.4803C58.2955 33.4579 58.2493 33.4468 58.1893 33.4468C58.1136 33.4468 58.0593 33.4573 58.0266 33.4785C58.0046 33.4934 57.9938 33.5127 57.9938 33.5365C57.9938 33.557 58.0032 33.5743 58.0223 33.5887C58.048 33.6076 58.1369 33.6345 58.289 33.6692C58.4411 33.7039 58.5473 33.7464 58.6077 33.7966C58.6672 33.8476 58.6971 33.9186 58.6971 34.0096C58.6971 34.1088 58.6559 34.194 58.5737 34.2653C58.4913 34.3367 58.3696 34.3724 58.2084 34.3724C58.0622 34.3724 57.9464 34.3427 57.861 34.2835C57.7757 34.2242 57.72 34.1439 57.6937 34.0423ZM60.2269 33.2078L60.4343 33.7591H60.0266L60.2269 33.2078ZM60.6613 34.3456H60.9845L60.3856 32.86H60.07L59.4955 34.3456H59.8131L59.9353 34.0096H60.5331L60.6613 34.3456ZM61.4745 34.3458H61.1891V33.2699H61.4539V33.4229C61.4992 33.3507 61.5397 33.3028 61.576 33.279C61.6121 33.2553 61.653 33.2434 61.6991 33.2434C61.7638 33.2434 61.8263 33.2614 61.8864 33.2974L61.7996 33.5465C61.7515 33.5155 61.7068 33.4999 61.6655 33.4999C61.6254 33.4999 61.5916 33.5109 61.5638 33.5328C61.5361 33.5549 61.5142 33.5946 61.4984 33.652C61.4824 33.7095 61.4745 33.8299 61.4745 34.0131V34.3458ZM62.646 33.527C62.6867 33.5707 62.708 33.6343 62.7101 33.718H62.2826C62.2819 33.6391 62.3019 33.5766 62.3427 33.5306C62.3834 33.4847 62.4349 33.4616 62.4974 33.4616C62.5557 33.4616 62.6052 33.4835 62.646 33.527ZM62.9782 34.054L62.6957 34.0069C62.68 34.0606 62.6568 34.0997 62.6262 34.1238C62.5955 34.1481 62.5578 34.1602 62.5128 34.1602C62.4467 34.1602 62.3916 34.1366 62.3472 34.0896C62.3031 34.0424 62.2799 33.9766 62.2778 33.8919H62.9929C62.9969 33.6723 62.9526 33.5094 62.86 33.4029C62.7673 33.2966 62.6408 33.2434 62.4806 33.2434C62.3379 33.2434 62.2198 33.2941 62.1266 33.3955C62.0332 33.4969 61.9865 33.6371 61.9865 33.816C61.9865 33.9659 62.022 34.09 62.0931 34.1883C62.183 34.311 62.3218 34.3724 62.5093 34.3724C62.6276 34.3724 62.7263 34.3453 62.8051 34.291C62.8839 34.2367 62.9417 34.1577 62.9782 34.054ZM63.8774 33.83C63.841 33.8423 63.7834 33.8568 63.7047 33.8738C63.6259 33.8907 63.5745 33.9074 63.5503 33.9236C63.5132 33.9501 63.4949 33.9837 63.4949 34.0243C63.4949 34.0644 63.5096 34.0989 63.5392 34.1282C63.5688 34.1573 63.6064 34.172 63.6523 34.172C63.7034 34.172 63.7521 34.155 63.7986 34.1211C63.8329 34.0953 63.8555 34.0638 63.8662 34.0264C63.8736 34.002 63.8774 33.9555 63.8774 33.8869V33.83ZM63.4949 33.5971L63.2389 33.55C63.2679 33.4458 63.3178 33.3687 63.3886 33.3186C63.4595 33.2685 63.5648 33.2434 63.7044 33.2434C63.8313 33.2434 63.9258 33.2585 63.9879 33.2885C64.0499 33.3188 64.0937 33.357 64.1189 33.4033C64.1443 33.4496 64.157 33.5348 64.157 33.6586L64.154 33.9916C64.154 34.0863 64.1586 34.1563 64.1676 34.2012C64.1767 34.2462 64.1938 34.2944 64.2186 34.3458H63.9362C63.9287 34.3272 63.9198 34.2996 63.9088 34.263C63.9042 34.2463 63.9007 34.2353 63.8989 34.23C63.8503 34.2774 63.7985 34.3131 63.7432 34.3368C63.6879 34.3605 63.629 34.3724 63.5663 34.3724C63.4557 34.3724 63.3685 34.3422 63.3049 34.282C63.2413 34.2218 63.2095 34.1455 63.2095 34.0535C63.2095 33.9926 63.2239 33.9383 63.2529 33.8906C63.2819 33.8429 63.3226 33.8063 63.3748 33.7809C63.4272 33.7556 63.5026 33.7332 63.6011 33.7143C63.734 33.6893 63.8261 33.666 63.8774 33.6443V33.6155C63.8774 33.5601 63.8638 33.5205 63.8367 33.4969C63.8096 33.4733 63.7584 33.4615 63.683 33.4615C63.6322 33.4615 63.5926 33.4716 63.564 33.4916C63.5356 33.5117 63.5124 33.5469 63.4949 33.5971ZM60.302 26.0883L61.2807 29.4585H59.3521L60.302 26.0883ZM58.9029 30.9737H61.6958L62.0943 32.3174H64.2102L61.8495 24.5425H58.6984L56.3664 32.3174H58.5276L58.9029 30.9737Z" fill="#10298E"/>
<path fill-rule="evenodd" clip-rule="evenodd" d="M47.7807 25.6365C48.6423 25.6365 49.4112 26.034 49.9167 26.6568L50.367 25.6897C49.6627 25.0229 48.7043 24.6118 47.6471 24.6118C46.0011 24.6118 44.5931 25.6076 44.0152 27.0172H43.1371L42.6187 28.1306H43.7482C43.7398 28.2338 43.7343 28.3372 43.7343 28.4427C43.7343 28.5703 43.7409 28.6964 43.7535 28.821H43.1858L42.6674 29.9348H44.0421C44.6365 31.3087 46.0269 32.2733 47.6471 32.2733C48.4636 32.2733 49.2212 32.0282 49.8485 31.6096V30.2446C49.3433 30.8208 48.6044 31.1849 47.7807 31.1849C46.8178 31.1849 45.9708 30.6875 45.4776 29.9348H48.3562L48.8746 28.821H45.054C45.0343 28.687 45.0238 28.55 45.0238 28.4105C45.0238 28.3162 45.0287 28.2228 45.0377 28.1306H49.1959L49.7143 27.0172H45.3973C45.8747 26.1918 46.7632 25.6365 47.7807 25.6365Z" fill="#FFBE00"/>
<rect x="75.0155" y="16.0189" width="38.6393" height="26.1384" rx="3.97758" fill="white" stroke="#D9D9D9" stroke-width="1.13645"/>
<path fill-rule="evenodd" clip-rule="evenodd" d="M93.2331 33.3596V29.9264H95.005C95.7311 29.9264 96.344 29.6831 96.8436 29.2033L96.9635 29.0816C97.8761 28.0882 97.8161 26.5405 96.8436 25.6214C96.3573 25.1348 95.6912 24.8713 95.005 24.8848H92.1606V33.3596H93.2331ZM93.2331 28.8852V25.9251H95.032C95.4184 25.9251 95.7848 26.0738 96.058 26.3441C96.6376 26.9118 96.6509 27.858 96.0913 28.4459C95.8181 28.7365 95.4317 28.8987 95.032 28.8852H93.2331ZM101.966 28.0138C101.507 27.588 100.88 27.3718 100.088 27.3718C99.0685 27.3718 98.3024 27.7502 97.7962 28.5004L98.7421 29.1019C99.0885 28.5882 99.5614 28.3314 100.161 28.3314C100.541 28.3314 100.907 28.4733 101.193 28.7302C101.473 28.9734 101.633 29.3249 101.633 29.6966V29.9466C101.22 29.7169 100.701 29.5952 100.061 29.5952C99.315 29.5952 98.7154 29.7709 98.2691 30.1291C97.8228 30.4873 97.5963 30.9604 97.5963 31.5618C97.583 32.1093 97.8161 32.6296 98.2292 32.9811C98.6488 33.3595 99.1817 33.5487 99.8079 33.5487C100.547 33.5487 101.134 33.2176 101.58 32.5553H101.626V33.3595H102.652V29.7844C102.652 29.0343 102.426 28.4396 101.966 28.0138ZM99.0554 32.2921C98.8356 32.1299 98.7023 31.8663 98.7023 31.5825C98.7023 31.2648 98.8489 31.0012 99.1354 30.7917C99.4285 30.5822 99.795 30.4741 100.228 30.4741C100.828 30.4673 101.294 30.6025 101.627 30.8728C101.627 31.3324 101.447 31.7311 101.094 32.069C100.774 32.3934 100.341 32.5759 99.8883 32.5759C99.5884 32.5827 99.2953 32.4813 99.0554 32.2921ZM104.957 35.9074L108.541 27.561H107.375L105.716 31.724H105.696L103.998 27.561H102.832L105.183 32.9878L103.851 35.9074H104.957Z" fill="#3C4043"/>
<path d="M89.5303 29.1825C89.5303 28.8513 89.5036 28.5202 89.4503 28.1958H84.9272V30.0678H87.5185C87.4119 30.6693 87.0655 31.21 86.5593 31.5479V32.7643H88.1047C89.0107 31.9196 89.5303 30.6693 89.5303 29.1825Z" fill="#4285F4"/>
<path d="M84.9278 33.9401C86.2201 33.9401 87.3126 33.5076 88.1053 32.7642L86.5598 31.5477C86.1268 31.8451 85.5739 32.014 84.9278 32.014C83.6755 32.014 82.6163 31.1557 82.2366 30.0068H80.6445V31.2639C81.4572 32.9061 83.1159 33.9401 84.9278 33.9401Z" fill="#34A853"/>
<path d="M82.2364 30.0071C82.0365 29.4057 82.0365 28.7501 82.2364 28.1419V26.8916H80.6441C79.9578 28.2635 79.9578 29.8855 80.6441 31.2574L82.2364 30.0071Z" fill="#FBBC04"/>
<path d="M84.9278 26.1344C85.6139 26.1209 86.2734 26.3844 86.7663 26.8643L88.1386 25.4721C87.2659 24.6476 86.1202 24.1948 84.9278 24.2083C83.1159 24.2083 81.4572 25.2491 80.6445 26.8913L82.2366 28.1483C82.6163 26.9927 83.6755 26.1344 84.9278 26.1344Z" fill="#EA4335"/>
<rect x="119.337" y="16.0189" width="38.6393" height="26.1384" rx="3.97758" fill="white" stroke="#D9D9D9" stroke-width="1.13645"/>
<path fill-rule="evenodd" clip-rule="evenodd" d="M140.14 24.7034L138.12 25.137V23.4988L140.14 23.0732V24.7034ZM131.929 24.0049L129.965 24.4225L129.957 30.8547C129.957 32.0432 130.851 32.9184 132.042 32.9184C132.702 32.9184 133.185 32.798 133.451 32.6535V31.0233C133.193 31.1277 131.921 31.4971 131.921 30.3086V27.4579H133.451V25.7475H131.921L131.929 24.0049ZM127.172 27.3534C126.745 27.3534 126.488 27.4738 126.488 27.787C126.488 28.129 126.931 28.2794 127.481 28.466C128.378 28.7702 129.558 29.1706 129.563 30.6538C129.563 32.0912 128.412 32.9183 126.737 32.9183C126.045 32.9183 125.288 32.7818 124.54 32.4606V30.5494C125.216 30.9188 126.069 31.1918 126.737 31.1918C127.188 31.1918 127.51 31.0714 127.51 30.702C127.51 30.3232 127.03 30.1501 126.449 29.9411C125.566 29.6228 124.451 29.2212 124.451 27.8834C124.451 26.462 125.538 25.6108 127.172 25.6108C127.84 25.6108 128.5 25.7152 129.168 25.9802V27.8673C128.557 27.5381 127.784 27.3534 127.172 27.3534ZM150.524 25.6108C152.432 25.6108 153.43 27.2329 153.43 29.2887C153.43 29.3997 153.425 29.5853 153.42 29.7427C153.417 29.8585 153.414 29.9591 153.414 30.0034H149.478C149.566 30.9509 150.259 31.2239 151.04 31.2239C151.836 31.2239 152.464 31.0553 153.012 30.7823V32.3883C152.464 32.6935 151.74 32.9103 150.782 32.9103C148.818 32.9103 147.449 31.6897 147.449 29.2726C147.449 27.2329 148.608 25.6108 150.524 25.6108ZM150.516 27.2413C150.009 27.2413 149.454 27.6188 149.454 28.5262H151.531C151.531 27.6188 151.007 27.2413 150.516 27.2413ZM135.955 26.3413L135.826 25.7471H134.087V32.7735H136.1V28.0116C136.575 27.3933 137.38 27.5057 137.629 27.5941V25.7471C137.371 25.6507 136.43 25.4741 135.955 26.3413ZM138.12 25.7473H140.14V32.7738H138.12V25.7473ZM144.342 25.6108C143.553 25.6108 143.046 25.9802 142.764 26.2372L142.66 25.7393H140.889V35.1025L142.901 34.6769L142.909 32.4044C143.199 32.6132 143.626 32.9103 144.334 32.9103C145.775 32.9103 147.087 31.7539 147.087 29.2084C147.079 26.8796 145.751 25.6108 144.342 25.6108ZM143.859 31.144C143.384 31.144 143.103 30.9754 142.909 30.7666L142.901 27.7874C143.111 27.5546 143.4 27.3939 143.859 27.3939C144.592 27.3939 145.099 28.213 145.099 29.265C145.099 30.341 144.6 31.144 143.859 31.144Z" fill="#6461FC"/>
</g>
<rect x="9.10143" y="47.8412" width="38.6393" height="26.1384" rx="3.97758" fill="white" stroke="#D9D9D9" stroke-width="1.13645"/>
<path fill-rule="evenodd" clip-rule="evenodd" d="M18.0181 57.4247C18.5523 57.4698 19.0864 57.1544 19.4203 56.7545C19.7486 56.3433 19.9656 55.7913 19.91 55.228C19.437 55.2506 18.8527 55.5435 18.5189 55.9546C18.2128 56.3095 17.9513 56.884 18.0181 57.4247ZM24.3724 64.6796V55.8984H27.6275C29.3079 55.8984 30.482 57.0699 30.482 58.7822C30.482 60.4945 29.2857 61.6774 27.583 61.6774H25.7189V64.6796H24.3724ZM19.9044 57.5316C19.4338 57.5042 19.0044 57.6749 18.6576 57.8127C18.4344 57.9014 18.2453 57.9766 18.1016 57.9766C17.9402 57.9766 17.7434 57.8974 17.5224 57.8086L17.5224 57.8086C17.2328 57.6921 16.9018 57.559 16.5547 57.5654C15.759 57.5767 15.0189 58.0329 14.6127 58.7595C13.778 60.2127 14.3957 62.3644 15.2025 63.5472C15.5976 64.133 16.0706 64.7751 16.6938 64.7526C16.9679 64.7421 17.1652 64.6574 17.3693 64.5697C17.6043 64.4688 17.8484 64.3639 18.2295 64.3639C18.5975 64.3639 18.8309 64.466 19.055 64.5641C19.2681 64.6573 19.4727 64.7468 19.7764 64.7413C20.4219 64.73 20.8281 64.1555 21.2232 63.5697C21.6495 62.941 21.8369 62.3274 21.8653 62.2343L21.8686 62.2235C21.8679 62.2229 21.8627 62.2204 21.8534 62.2161C21.7109 62.1501 20.6215 61.6452 20.6111 60.2916C20.6006 59.1554 21.4751 58.5797 21.6128 58.489C21.6212 58.4835 21.6268 58.4798 21.6294 58.4779C21.0729 57.6443 20.2049 57.5541 19.9044 57.5316ZM32.9415 64.7471C33.7873 64.7471 34.5719 64.3134 34.928 63.6262H34.9558V64.6795H36.2022V60.3086C36.2022 59.0413 35.2007 58.2245 33.6593 58.2245C32.2293 58.2245 31.1721 59.0525 31.1331 60.1903H32.3461C32.4463 59.6496 32.9415 59.2947 33.6204 59.2947C34.4439 59.2947 34.9057 59.6834 34.9057 60.3987V60.8831L33.2253 60.9845C31.6617 61.0802 30.8159 61.728 30.8159 62.8545C30.8159 63.9923 31.6895 64.7471 32.9415 64.7471ZM33.3035 63.7053C32.5857 63.7053 32.1294 63.3561 32.1294 62.821C32.1294 62.269 32.569 61.9479 33.4092 61.8972L34.906 61.8015V62.2971C34.906 63.1195 34.216 63.7053 33.3035 63.7053ZM40.337 65.0229C39.7972 66.5606 39.1796 67.0675 37.8664 67.0675C37.7662 67.0675 37.4324 67.0563 37.3545 67.0337V65.9805C37.4379 65.9917 37.6438 66.003 37.7495 66.003C38.3449 66.003 38.6788 65.7495 38.8847 65.0905L39.0071 64.7019L36.7257 58.3089H38.1335L39.7193 63.4965H39.7471L41.333 58.3089H42.7018L40.337 65.0229ZM25.7191 57.0476H27.2716C28.4401 57.0476 29.1078 57.6784 29.1078 58.788C29.1078 59.8977 28.4401 60.5341 27.266 60.5341H25.7191V57.0476Z" fill="black"/>
<rect x="142.066" y="47.8412" width="38.6393" height="26.1384" rx="3.97758" fill="white" stroke="#D9D9D9" stroke-width="1.13645"/>
<path d="M164.335 61.0549C164.335 65.3875 160.863 68.8998 156.58 68.8998C152.297 68.8998 148.825 65.3875 148.825 61.0549C148.825 56.7222 152.297 53.21 156.58 53.21C160.863 53.21 164.335 56.7222 164.335 61.0549Z" fill="#ED0006"/>
<path d="M174.395 61.0549C174.395 65.3875 170.924 68.8998 166.641 68.8998C162.358 68.8998 158.886 65.3875 158.886 61.0549C158.886 56.7222 162.358 53.21 166.641 53.21C170.924 53.21 174.395 56.7222 174.395 61.0549Z" fill="#0099DF"/>
<path fill-rule="evenodd" clip-rule="evenodd" d="M161.61 67.0256C163.278 65.5867 164.335 63.4457 164.335 61.0548C164.335 58.6639 163.278 56.5229 161.61 55.084C159.943 56.5229 158.886 58.6639 158.886 61.0548C158.886 63.4457 159.943 65.5867 161.61 67.0256Z" fill="#6C6BBD"/>
<g opacity="0.3">
<rect x="30.6937" y="79.661" width="38.6393" height="26.1384" rx="3.97758" fill="white" stroke="#D9D9D9" stroke-width="1.13645"/>
<path d="M51.7691 101.253C56.1984 101.275 60.2413 97.608 60.2413 93.1472C60.2413 88.2695 56.1984 84.8976 51.7691 84.8994H47.9569C43.4748 84.8976 39.7852 88.2705 39.7852 93.1472C39.7852 97.6089 43.4748 101.275 47.9569 101.253H51.7691Z" fill="#0079BE"/>
<path d="M47.9753 85.5752C43.8791 85.5766 40.5604 88.9267 40.5591 93.0615C40.5604 97.1959 43.8791 100.546 47.9753 100.547C52.0719 100.546 55.3919 97.1959 55.3924 93.0615C55.3919 88.9267 52.0723 85.5766 47.9753 85.5752ZM43.2747 93.0615C43.2738 92.1055 43.5614 91.1715 44.0998 90.3815C44.6382 89.5915 45.4024 88.9823 46.2925 88.6335V97.489C45.4023 97.1405 44.638 96.5314 44.0996 95.7415C43.5612 94.9515 43.2736 94.0175 43.2747 93.0615ZM49.6576 97.4908V88.6331C50.5484 88.9813 51.3133 89.5905 51.8521 90.3807C52.3909 91.171 52.6785 92.1055 52.6773 93.0619C52.6783 94.0183 52.3906 94.9528 51.8518 95.743C51.313 96.5332 50.5483 97.1424 49.6576 97.4908Z" fill="white"/>
<path d="M51.7691 101.253C56.1984 101.275 60.2413 97.608 60.2413 93.1472C60.2413 88.2695 56.1984 84.8976 51.7691 84.8994H47.9569C43.4748 84.8976 39.7852 88.2705 39.7852 93.1472C39.7852 97.6089 43.4748 101.275 47.9569 101.253H51.7691Z" fill="#0079BE"/>
<path d="M47.9753 85.5752C43.8791 85.5766 40.5604 88.9267 40.5591 93.0615C40.5604 97.1959 43.8791 100.546 47.9753 100.547C52.0719 100.546 55.3919 97.1959 55.3924 93.0615C55.3919 88.9267 52.0723 85.5766 47.9753 85.5752ZM43.2747 93.0615C43.2738 92.1055 43.5614 91.1715 44.0998 90.3815C44.6382 89.5915 45.4024 88.9823 46.2925 88.6335V97.489C45.4023 97.1405 44.638 96.5314 44.0996 95.7415C43.5612 94.9515 43.2736 94.0175 43.2747 93.0615ZM49.6576 97.4908V88.6331C50.5484 88.9813 51.3133 89.5905 51.8521 90.3807C52.3909 91.171 52.6785 92.1055 52.6773 93.0619C52.6783 94.0183 52.3906 94.9528 51.8518 95.743C51.313 96.5332 50.5483 97.1424 49.6576 97.4908Z" fill="white"/>
<rect x="75.0155" y="79.661" width="38.6393" height="26.1384" rx="3.97758" fill="#1F72CD" stroke="#D9D9D9" stroke-width="1.13645"/>
<path fill-rule="evenodd" clip-rule="evenodd" d="M82.04 88.7524L78.4248 96.988H82.7527L83.2892 95.6749H84.5156L85.0521 96.988H89.8159V95.9858L90.2404 96.988H92.7046L93.1291 95.9646V96.988H103.036L104.241 95.709L105.369 96.988L110.458 96.9986L106.831 92.8932L110.458 88.7524H105.448L104.275 90.0078L103.183 88.7524H92.4049L91.4794 90.8781L90.5322 88.7524H86.2134V89.7205L85.7329 88.7524H82.04ZM96.8344 89.9218H102.524L104.264 91.8567L106.06 89.9218H107.8L105.156 92.8919L107.8 95.8279H105.981L104.241 93.8705L102.436 95.8279H96.8344V89.9218ZM98.2395 92.2246V91.1458V91.1448H101.789L103.338 92.8701L101.721 94.6047H98.2395V93.427H101.343V92.2246H98.2395ZM82.8773 89.9218H84.9869L87.3848 95.5064V89.9218H89.6958L91.5479 93.9259L93.2549 89.9218H95.5543V95.8313H94.1552L94.1438 91.2007L92.1039 95.8313H90.8523L88.801 91.2007V95.8313H85.9227L85.377 94.5065H82.4288L81.8843 95.8302H80.342L82.8773 89.9218ZM82.9324 93.2818L83.9037 90.9217L84.8738 93.2818H82.9324Z" fill="white"/>
<rect x="119.337" y="79.661" width="38.6393" height="26.1384" rx="3.97758" fill="white" stroke="#D9D9D9" stroke-width="1.13645"/>
<path d="M135.816 105.231L157.408 98.6968V101.822C157.408 103.705 155.882 105.231 153.999 105.231H135.816Z" fill="#FD6020"/>
<path fill-rule="evenodd" clip-rule="evenodd" d="M153.31 89.4468C154.498 89.4468 155.151 89.9963 155.151 91.0343C155.211 91.828 154.676 92.4997 153.963 92.6218L155.567 94.8809H154.32L152.953 92.6828H152.835V94.8809H151.825V89.4468H153.31ZM152.835 91.9505H153.132C153.785 91.9505 154.082 91.6452 154.082 91.0956C154.082 90.6072 153.785 90.3019 153.132 90.3019H152.835V91.9505ZM148.321 94.8809H151.172V93.9651H149.33V92.4997H151.112V91.5838H149.33V90.3626H151.172V89.4468H148.321V94.8809ZM145.351 93.1102L143.985 89.4468H142.916L145.114 95.003H145.648L147.846 89.4468H146.777L145.351 93.1102ZM133.293 92.1941C133.293 93.7206 134.481 95.0028 135.966 95.0028C136.441 95.0028 136.857 94.8807 137.273 94.6975V93.4763C136.976 93.8427 136.56 94.0869 136.085 94.0869C135.135 94.0869 134.362 93.3542 134.362 92.3773V92.2552C134.303 91.2782 135.075 90.4234 136.026 90.3624C136.501 90.3624 136.976 90.6066 137.273 90.9729V89.7518C136.916 89.5076 136.441 89.4465 136.026 89.4465C134.481 89.3244 133.293 90.6066 133.293 92.1941ZM131.452 91.5227C130.858 91.2785 130.68 91.1564 130.68 90.8511C130.74 90.4848 131.036 90.1795 131.393 90.2405C131.69 90.2405 131.987 90.4237 132.224 90.6679L132.759 89.9352C132.343 89.5689 131.809 89.3247 131.274 89.3247C130.443 89.2636 129.73 89.9352 129.67 90.79V90.8511C129.67 91.5838 129.967 92.0112 130.918 92.3165C131.155 92.3776 131.393 92.4997 131.63 92.6218C131.809 92.7439 131.927 92.9271 131.927 93.1713C131.927 93.5987 131.571 93.9651 131.215 93.9651H131.155C130.68 93.9651 130.264 93.6598 130.086 93.2324L129.433 93.904C129.789 94.5756 130.502 94.942 131.215 94.942C132.165 95.0031 132.937 94.2704 132.997 93.2934V93.1103C132.937 92.3776 132.64 92.0112 131.452 91.5227ZM128.007 94.8809H129.017V89.4468H128.007V94.8809ZM123.315 89.4468H124.8H125.097C126.522 89.5078 127.651 90.729 127.591 92.1944C127.591 92.9881 127.235 93.7208 126.641 94.2703C126.107 94.6978 125.453 94.942 124.8 94.8809H123.315V89.4468ZM124.622 93.9648C125.097 94.0259 125.631 93.8427 125.988 93.5374C126.344 93.1711 126.522 92.6826 126.522 92.1331C126.522 91.6446 126.344 91.1562 125.988 90.7898C125.631 90.4845 125.097 90.3014 124.622 90.3624H124.325V93.9648H124.622Z" fill="black"/>
<path fill-rule="evenodd" clip-rule="evenodd" d="M140.302 89.3208C138.817 89.3208 137.57 90.542 137.57 92.1295C137.57 93.6559 138.758 94.9381 140.302 94.9992C141.846 95.0603 143.034 93.778 143.094 92.1905C143.034 90.603 141.846 89.3208 140.302 89.3208V89.3208Z" fill="#FD6020"/>
</g>
<rect x="7.31934" y="13.1748" width="98.0803" height="93.6886" fill="url(#paint0_linear_981_50991)"/>
<rect x="87.833" y="13.1748" width="95.1525" height="93.6886" fill="url(#paint1_linear_981_50991)"/>
<rect opacity="0.7" x="175.279" y="68.6597" width="42.5389" height="160.908" transform="rotate(90 175.279 68.6597)" fill="url(#paint2_linear_981_50991)"/>
<rect opacity="0.7" x="14.8262" y="42.4526" width="29.2777" height="161.027" transform="rotate(-90 14.8262 42.4526)" fill="url(#paint3_linear_981_50991)"/>
<g filter="url(#filter0_dd_981_50991)">
<rect x="35.6644" y="41.8186" width="56.4318" height="38.1745" rx="5.80916" fill="white" stroke="#D9D9D9" stroke-width="1.65976"/>
<path fill-rule="evenodd" clip-rule="evenodd" d="M52.4697 67.9734H48.9505L46.3115 57.9055C46.1862 57.4423 45.9203 57.0329 45.529 56.8399C44.5527 56.355 43.4769 55.9691 42.3032 55.7744V55.3868H47.9724C48.7548 55.3868 49.3417 55.9691 49.4395 56.6453L50.8087 63.9076L54.3262 55.3868H57.7477L52.4697 67.9734ZM59.704 67.9734H56.3804L59.1172 55.3868H62.4408L59.704 67.9734ZM66.7408 58.8738C66.8386 58.1959 67.4254 57.8083 68.11 57.8083C69.1859 57.711 70.3578 57.9056 71.3359 58.3889L71.9227 55.6789C70.9446 55.2913 69.8688 55.0967 68.8925 55.0967C65.6667 55.0967 63.3194 56.8401 63.3194 59.2598C63.3194 61.1005 64.982 62.067 66.1557 62.6493C67.4254 63.2299 67.9144 63.6175 67.8166 64.1981C67.8166 65.0689 66.8386 65.4565 65.8623 65.4565C64.6886 65.4565 63.515 65.1663 62.4409 64.6813L61.854 67.3929C63.0277 67.8762 64.2974 68.0708 65.4711 68.0708C69.0881 68.1665 71.3359 66.4247 71.3359 63.8104C71.3359 60.5182 66.7408 60.3253 66.7408 58.8738ZM82.9676 67.9734L80.3286 55.3868H77.494C76.9072 55.3868 76.3204 55.7744 76.1248 56.355L71.238 67.9734H74.6594L75.3423 66.1343H79.5462L79.9374 67.9734H82.9676ZM77.9826 58.7768L78.9589 63.5205H76.2221L77.9826 58.7768Z" fill="#172B85"/>
</g>
<g filter="url(#filter1_dd_981_50991)">
<rect x="98.1102" y="41.8186" width="56.4318" height="38.1745" rx="5.80916" fill="white" stroke="#D9D9D9" stroke-width="1.65976"/>
<path fill-rule="evenodd" clip-rule="evenodd" d="M134.088 72.2022C140.343 72.2022 145.413 67.0726 145.413 60.7449C145.413 54.4172 140.343 49.2876 134.088 49.2876C131.284 49.2876 128.719 50.3179 126.741 52.0246C124.763 50.3179 122.198 49.2876 119.395 49.2876C113.14 49.2876 108.069 54.4172 108.069 60.7449C108.069 67.0726 113.14 72.2022 119.395 72.2022C122.198 72.2022 124.763 71.1719 126.741 69.4652C128.719 71.1719 131.284 72.2022 134.088 72.2022Z" fill="#ED0006"/>
<path fill-rule="evenodd" clip-rule="evenodd" d="M126.741 69.4651C129.176 67.3637 130.72 64.2367 130.72 60.7449C130.72 57.2531 129.176 54.1261 126.741 52.0246C128.719 50.3179 131.284 49.2876 134.088 49.2876C140.343 49.2876 145.414 54.4172 145.414 60.7449C145.414 67.0726 140.343 72.2022 134.088 72.2022C131.284 72.2022 128.719 71.1719 126.741 69.4651Z" fill="#F9A000"/>
<path fill-rule="evenodd" clip-rule="evenodd" d="M126.741 69.4649C129.176 67.3634 130.72 64.2365 130.72 60.7447C130.72 57.2529 129.176 54.1259 126.741 52.0244C124.306 54.1259 122.762 57.2529 122.762 60.7447C122.762 64.2365 124.306 67.3634 126.741 69.4649Z" fill="#FF5E00"/>
</g>
</g>
<path d="M229.83 48.5831L274.478 48.5831V60.2941L229.83 60.2941V72.1872L210.067 54.4386L229.83 36.6899V48.5831Z" fill="url(#paint4_linear_981_50991)"/>
<path d="M278.138 75.8471L233.489 75.8471L233.489 64.136L278.138 64.136L278.138 52.2429L297.9 69.9916L278.138 87.7402L278.138 75.8471Z" fill="url(#paint5_linear_981_50991)"/>
<g clip-path="url(#clip1_981_50991)">
<g opacity="0.6">
<path d="M386.75 105.4C389.984 105.4 392.606 102.778 392.606 99.544C392.606 96.3101 389.984 93.6885 386.75 93.6885C383.516 93.6885 380.895 96.3101 380.895 99.544C380.895 102.778 383.516 105.4 386.75 105.4Z" fill="#ECB244"/>
<path d="M386.463 100.764H388.46V101.826H387.231C387.252 102.13 387.262 102.412 387.282 102.716H386.248V101.837H385.019C385.019 101.49 384.978 101.143 385.039 100.818C385.07 100.644 385.254 100.492 385.367 100.341C385.757 99.8541 386.149 99.3697 386.545 98.8879C386.699 98.7033 386.852 98.5298 387.026 98.324H385.111V97.2614H386.248V96.3721H387.241V97.2395H388.481C388.481 97.5973 388.522 97.9443 388.46 98.2697C388.43 98.4432 388.245 98.5951 388.123 98.7468C387.733 99.2336 387.34 99.7179 386.945 100.2C386.79 100.393 386.629 100.581 386.463 100.764Z" fill="white"/>
</g>
<g opacity="0.3">
<path d="M432.745 36.5973C436.788 36.5973 440.065 33.3203 440.065 29.2779C440.065 25.2355 436.788 21.9585 432.745 21.9585C428.703 21.9585 425.426 25.2355 425.426 29.2779C425.426 33.3203 428.703 36.5973 432.745 36.5973Z" fill="#FF0420"/>
<path fill-rule="evenodd" clip-rule="evenodd" d="M429.539 30.9146C429.817 31.1195 430.175 31.222 430.611 31.222C431.138 31.222 431.559 31.102 431.873 30.856C432.189 30.6072 432.408 30.2295 432.537 29.7289C432.616 29.4214 432.681 29.1023 432.736 28.7773C432.754 28.6602 432.763 28.5636 432.763 28.4875C432.763 28.2328 432.698 28.0132 432.57 27.8287C432.441 27.6414 432.265 27.5008 432.043 27.4101C431.82 27.3134 431.565 27.2666 431.284 27.2666C430.248 27.2666 429.604 27.7702 429.355 28.7773C429.267 29.1492 429.2 29.4654 429.153 29.7289C429.135 29.846 429.126 29.9426 429.126 30.0246C429.126 30.4081 429.264 30.7067 429.539 30.9146ZM431.211 30.25C431.068 30.37 430.895 30.4315 430.69 30.4315C430.339 30.4315 430.16 30.2646 430.163 29.925C430.163 29.843 430.172 29.7669 430.186 29.6937C430.254 29.3365 430.318 29.0379 430.385 28.792C430.447 28.5402 430.549 28.3557 430.693 28.2357C430.839 28.1157 431.015 28.0542 431.22 28.0542C431.568 28.0542 431.741 28.2211 431.741 28.5548C431.741 28.6368 431.732 28.7158 431.718 28.792C431.674 29.0496 431.609 29.3482 431.524 29.6937C431.463 29.9455 431.357 30.13 431.211 30.25ZM432.765 31.2571C432.788 31.2835 432.818 31.2952 432.859 31.2952H433.605C433.643 31.2952 433.679 31.2835 433.711 31.2571C433.746 31.2308 433.763 31.1986 433.772 31.1576L434.024 29.9542H434.765C435.245 29.9542 435.623 29.8547 435.898 29.6527C436.179 29.4507 436.363 29.1403 436.454 28.7187C436.475 28.6192 436.486 28.5226 436.486 28.4318C436.486 28.1127 436.36 27.8697 436.112 27.6999C435.866 27.533 435.541 27.4481 435.134 27.4481H433.673C433.635 27.4481 433.599 27.4598 433.567 27.4861C433.532 27.5125 433.512 27.5447 433.506 27.5857L432.747 31.1576C432.742 31.1956 432.747 31.2278 432.765 31.2571ZM435.204 29.0701C435.09 29.155 434.958 29.196 434.803 29.196H434.173L434.381 28.2122H435.04C435.189 28.2122 435.298 28.2415 435.359 28.3001C435.421 28.3557 435.453 28.4377 435.453 28.5431C435.453 28.5899 435.447 28.6455 435.435 28.707C435.397 28.8651 435.321 28.9852 435.204 29.0701Z" fill="white"/>
</g>
<g opacity="0.3">
<g filter="url(#filter2_dd_981_50991)">
<path d="M365.855 36.5969C367.882 36.5969 369.863 35.9959 371.548 34.87C373.233 33.744 374.547 32.1436 375.322 30.2712C376.098 28.3987 376.301 26.3384 375.905 24.3506C375.51 22.3628 374.534 20.537 373.101 19.1039C371.668 17.6708 369.842 16.6948 367.854 16.2994C365.866 15.9041 363.806 16.107 361.934 16.8826C360.061 17.6582 358.461 18.9716 357.335 20.6567C356.209 22.3418 355.608 24.323 355.608 26.3497C355.605 27.6963 355.867 29.0303 356.381 30.2751C356.895 31.5198 357.65 32.6508 358.602 33.603C359.554 34.5552 360.685 35.3099 361.93 35.8237C363.175 36.3375 364.509 36.6002 365.855 36.5969Z" fill="#2775CA"/>
</g>
<path fill-rule="evenodd" clip-rule="evenodd" d="M362.098 29.0822C362.638 29.8882 363.403 30.502 364.288 30.8405C364.381 30.9049 364.473 31.033 364.473 31.1296V31.5782C364.473 31.6426 364.473 31.6747 364.443 31.7069C364.436 31.7371 364.423 31.7653 364.405 31.7893C364.386 31.8132 364.362 31.8322 364.335 31.8447C364.308 31.8572 364.279 31.8628 364.249 31.8611C364.22 31.8595 364.191 31.8505 364.165 31.835C363.045 31.4638 362.067 30.7307 361.373 29.7417C360.679 28.7527 360.305 27.5591 360.305 26.3338C360.305 25.1084 360.679 23.9149 361.373 22.9259C362.067 21.9369 363.045 21.2037 364.165 20.8325C364.201 20.807 364.245 20.7956 364.288 20.8004C364.344 20.8126 364.393 20.8453 364.427 20.8925C364.461 20.9398 364.478 20.9983 364.473 21.0572V21.5065C364.478 21.5734 364.463 21.6403 364.43 21.6977C364.397 21.7552 364.347 21.8004 364.288 21.827C363.403 22.1656 362.638 22.7793 362.098 23.5853C361.558 24.3913 361.269 25.3507 361.269 26.3338C361.269 27.3169 361.558 28.2763 362.098 29.0822ZM367.467 20.8065C367.496 20.8081 367.525 20.8171 367.551 20.8325C368.671 21.2089 369.647 21.9457 370.34 22.9371C371.033 23.9285 371.406 25.1234 371.406 26.3499C371.406 27.5764 371.033 28.7712 370.34 29.7626C369.647 30.7541 368.671 31.4909 367.551 31.8672C367.515 31.8927 367.471 31.9041 367.428 31.8994C367.372 31.8871 367.323 31.8542 367.289 31.807C367.255 31.7598 367.239 31.7014 367.243 31.6426V31.1932C367.238 31.1264 367.253 31.0596 367.286 31.0021C367.319 30.9446 367.369 30.8994 367.428 30.8727C368.313 30.5342 369.078 29.9204 369.618 29.1144C370.158 28.3084 370.447 27.3491 370.447 26.366C370.447 25.3829 370.158 24.4235 369.618 23.6175C369.078 22.8115 368.313 22.1978 367.428 21.8592C367.375 21.824 367.332 21.7767 367.3 21.721C367.268 21.6653 367.248 21.6027 367.243 21.538V21.0894C367.243 21.025 367.243 20.9928 367.273 20.9613C367.279 20.9311 367.292 20.9028 367.311 20.8788C367.33 20.8548 367.353 20.8357 367.38 20.8231C367.407 20.8105 367.437 20.8048 367.467 20.8065ZM365.951 25.8044C367.243 25.9646 367.889 26.353 367.889 27.4728L367.886 27.47C367.886 28.3357 367.271 29.0097 366.347 29.17V29.9398C366.317 30.1001 366.225 30.1967 366.102 30.1967H365.64C365.486 30.1645 365.394 30.0679 365.394 29.9398V29.17C364.378 29.0097 363.886 28.4323 363.762 27.6303V27.5981C363.762 27.5684 363.767 27.5389 363.777 27.5113C363.788 27.4838 363.804 27.4587 363.824 27.4378C363.844 27.4168 363.868 27.4002 363.895 27.3892C363.921 27.3781 363.949 27.3728 363.978 27.3734H364.504C364.556 27.3741 364.607 27.3941 364.647 27.4297C364.687 27.4654 364.714 27.5146 364.723 27.5687C364.818 28.053 365.092 28.4029 365.892 28.4029C366.477 28.4029 366.907 28.0523 366.907 27.5365C366.907 27.0207 366.627 26.8311 365.766 26.6708C364.473 26.5105 363.858 26.0934 363.858 25.0345C363.858 24.2325 364.443 23.5942 365.368 23.4626V22.7222C365.399 22.5619 365.491 22.466 365.614 22.466H366.076C366.23 22.4982 366.323 22.5941 366.323 22.7222V23.492C366.66 23.5217 366.979 23.6668 367.229 23.9047C367.48 24.1426 367.648 24.4601 367.707 24.8078V24.8393C367.708 24.869 367.703 24.8985 367.692 24.9261C367.682 24.9537 367.666 24.9788 367.646 24.9998C367.625 25.0208 367.601 25.0374 367.575 25.0484C367.548 25.0594 367.52 25.0647 367.492 25.0639H366.999C366.952 25.0641 366.906 25.0491 366.866 25.021C366.827 24.9928 366.798 24.9528 366.781 24.9064C366.627 24.4249 366.32 24.2325 365.765 24.2325C365.15 24.2325 364.843 24.5222 364.843 24.9708C364.843 25.4194 365.027 25.6763 365.951 25.8044Z" fill="white"/>
</g>
<g opacity="0.7">
<g filter="url(#filter3_dd_981_50991)">
<path d="M405.78 27.8136C409.823 27.8136 413.1 24.5366 413.1 20.4942C413.1 16.4518 409.823 13.1748 405.78 13.1748C401.738 13.1748 398.461 16.4518 398.461 20.4942C398.461 24.5366 401.738 27.8136 405.78 27.8136Z" fill="#26A17B"/>
</g>
<path fill-rule="evenodd" clip-rule="evenodd" d="M406.525 20.7476V20.7469C406.483 20.7499 406.268 20.7628 405.789 20.7628C405.406 20.7628 405.137 20.7514 405.042 20.7469V20.748C403.568 20.6832 402.469 20.4267 402.469 20.1197C402.469 19.8132 403.568 19.5566 405.042 19.4907V20.4926C405.138 20.4994 405.414 20.5157 405.795 20.5157C406.252 20.5157 406.482 20.4968 406.525 20.493V19.4915C407.995 19.557 409.092 19.8136 409.092 20.1197C409.092 20.4267 407.995 20.6825 406.525 20.7476ZM406.525 19.3873V18.4907H408.576V17.1235H402.99V18.4907H405.042V19.3869C403.374 19.4634 402.121 19.7939 402.121 20.1895C402.121 20.5851 403.374 20.9151 405.042 20.992V23.8651H406.525V20.9913C408.189 20.9147 409.44 20.5847 409.44 20.1895C409.44 19.7942 408.189 19.4642 406.525 19.3873Z" fill="white"/>
</g>
<g opacity="0.9">
<path d="M360 86.3692C362.425 86.3692 364.391 84.403 364.391 81.9776C364.391 79.5521 362.425 77.5859 360 77.5859C357.574 77.5859 355.608 79.5521 355.608 81.9776C355.608 84.403 357.574 86.3692 360 86.3692Z" fill="#42C1CA"/>
<path d="M359.869 81.2225C359.954 80.8666 360.056 80.5466 360.164 80.3378C360.204 80.238 360.366 79.9992 360.543 79.8413C360.838 79.5783 361.17 79.5116 361.515 79.7282L361.484 79.7762L361.515 79.7282C361.691 79.8386 361.761 79.9522 361.73 80.0593C361.708 80.139 361.62 80.2027 361.574 80.1961C361.505 80.203 361.437 80.1893 361.371 80.141C361.316 80.0985 361.273 80.0417 361.248 79.9768C361.199 79.863 361.136 79.8243 361.059 79.8334C361.002 79.8397 360.937 79.8757 360.916 79.8999L360.863 79.9591C360.821 80.0034 360.784 80.0518 360.752 80.1037C360.644 80.2843 360.544 80.6152 360.405 81.3009L361.325 81.4355L361.274 81.8037L360.341 81.6671L360.301 81.9094L360.291 81.97C360.286 82.0014 360.28 82.0356 360.273 82.072L361.215 82.21L361.161 82.5778L360.197 82.4366C360.085 82.9098 359.939 83.417 359.835 83.6172C359.795 83.7171 359.634 83.9556 359.456 84.1136C359.161 84.3764 358.829 84.4434 358.484 84.2268C358.308 84.1164 358.238 84.0025 358.269 83.8955C358.292 83.8157 358.379 83.7522 358.425 83.7588C358.494 83.752 358.563 83.7656 358.628 83.8137C358.679 83.851 358.721 83.9052 358.751 83.9781C358.8 84.0918 358.863 84.1307 358.941 84.1216C358.997 84.115 359.062 84.079 359.083 84.0549C359.289 83.8249 359.453 83.3817 359.66 82.3582L358.741 82.2234L358.792 81.8552L359.724 81.9918L359.765 81.7497C359.773 81.6954 359.783 81.6411 359.793 81.5869L358.855 81.4496L358.908 81.0818L359.869 81.2225Z" fill="white"/>
</g>
<g opacity="0.3">
<g filter="url(#filter4_dd_981_50991)">
<path d="M419.57 99.5441C422.804 99.5441 425.426 96.9225 425.426 93.6885C425.426 90.4546 422.804 87.833 419.57 87.833C416.336 87.833 413.715 90.4546 413.715 93.6885C413.715 96.9225 416.336 99.5441 419.57 99.5441Z" fill="#7950DD"/>
</g>
<path d="M421.185 92.5835C421.068 92.5114 420.916 92.5114 420.787 92.5835L419.874 93.1361L419.254 93.4965L418.341 94.0491C418.224 94.1212 418.072 94.1212 417.943 94.0491L417.218 93.6166C417.101 93.5445 417.019 93.4124 417.019 93.2682V92.4153C417.019 92.2712 417.089 92.139 417.218 92.067L417.932 91.6465C418.049 91.5744 418.201 91.5744 418.33 91.6465L419.044 92.067C419.161 92.139 419.242 92.2712 419.242 92.4153V92.9679L419.863 92.5955V92.0429C419.863 91.8988 419.793 91.7666 419.664 91.6946L418.341 90.9017C418.224 90.8296 418.072 90.8296 417.943 90.9017L416.597 91.6946C416.469 91.7666 416.398 91.8988 416.398 92.0429V93.6406C416.398 93.7848 416.469 93.9169 416.597 93.989L417.943 94.7819C418.06 94.8539 418.213 94.8539 418.341 94.7819L419.254 94.2413L419.874 93.8689L420.787 93.3283C420.904 93.2562 421.057 93.2562 421.185 93.3283L421.899 93.7488C422.016 93.8208 422.098 93.953 422.098 94.0971V94.95C422.098 95.0942 422.028 95.2263 421.899 95.2984L421.185 95.7309C421.068 95.803 420.916 95.803 420.787 95.7309L420.073 95.3104C419.956 95.2384 419.874 95.1062 419.874 94.962V94.4095L419.254 94.7819V95.3345C419.254 95.4786 419.324 95.6107 419.453 95.6828L420.799 96.4757C420.916 96.5477 421.068 96.5477 421.197 96.4757L422.543 95.6828C422.66 95.6107 422.742 95.4786 422.742 95.3345V93.7367C422.742 93.5926 422.672 93.4604 422.543 93.3884L421.185 92.5835Z" fill="white"/>
</g>
<rect opacity="0.6" x="339.76" y="-11" width="60" height="102" fill="url(#paint6_linear_981_50991)"/>
<g filter="url(#filter5_dd_981_50991)">
<path d="M435.953 76.122C445.655 76.122 453.519 68.2572 453.519 58.5554C453.519 48.8536 445.655 40.9888 435.953 40.9888C426.251 40.9888 418.386 48.8536 418.386 58.5554C418.386 68.2572 426.251 76.122 435.953 76.122Z" fill="black"/>
</g>
<path d="M443.921 62.6022L441.263 65.3795C441.205 65.4399 441.135 65.488 441.058 65.5208C440.98 65.5537 440.896 65.5707 440.811 65.5706H428.21C428.15 65.5706 428.091 65.5535 428.041 65.5214C427.99 65.4893 427.951 65.4435 427.927 65.3898C427.903 65.3361 427.896 65.2767 427.906 65.219C427.916 65.1613 427.943 65.1077 427.984 65.0649L430.645 62.2876C430.702 62.2274 430.772 62.1794 430.849 62.1465C430.927 62.1137 431.01 62.0966 431.095 62.0965H443.695C443.756 62.0965 443.814 62.1136 443.865 62.1457C443.915 62.1779 443.955 62.2236 443.979 62.2773C444.002 62.331 444.01 62.3904 444 62.4481C443.989 62.5059 443.962 62.5594 443.921 62.6022ZM441.263 57.0096C441.205 56.9493 441.135 56.9012 441.058 56.8683C440.98 56.8354 440.896 56.8185 440.811 56.8185H428.21C428.15 56.8185 428.091 56.8356 428.041 56.8678C427.99 56.8999 427.951 56.9456 427.927 56.9993C427.903 57.053 427.896 57.1124 427.906 57.1701C427.916 57.2279 427.943 57.2814 427.984 57.3243L430.645 60.1016C430.702 60.1617 430.772 60.2097 430.849 60.2426C430.927 60.2755 431.01 60.2925 431.095 60.2926H443.695C443.756 60.2926 443.814 60.2755 443.865 60.2434C443.915 60.2113 443.955 60.1655 443.979 60.1118C444.002 60.0581 444.01 59.9987 444 59.941C443.989 59.8833 443.962 59.8297 443.921 59.7869L441.263 57.0096ZM428.21 55.0146H440.811C440.896 55.0147 440.98 54.9977 441.058 54.9649C441.135 54.932 441.205 54.8839 441.263 54.8236L443.921 52.0463C443.962 52.0035 443.989 51.9499 444 51.8922C444.01 51.8344 444.002 51.7751 443.979 51.7213C443.955 51.6676 443.915 51.6219 443.865 51.5898C443.814 51.5576 443.756 51.5405 443.695 51.5405H431.095C431.01 51.5407 430.927 51.5577 430.849 51.5906C430.772 51.6234 430.702 51.6714 430.645 51.7316L427.985 54.5089C427.944 54.5517 427.917 54.6052 427.907 54.6628C427.896 54.7205 427.904 54.7798 427.927 54.8335C427.951 54.8872 427.991 54.933 428.041 54.9651C428.091 54.9973 428.15 55.0145 428.21 55.0146Z" fill="#66FFF6"/>
<g filter="url(#filter6_dd_981_50991)">
<path d="M353.975 76.122C363.677 76.122 371.542 68.2572 371.542 58.5554C371.542 48.8536 363.677 40.9888 353.975 40.9888C344.274 40.9888 336.409 48.8536 336.409 58.5554C336.409 68.2572 344.274 76.122 353.975 76.122Z" fill="#5472E8"/>
</g>
<path d="M353.974 49.04V56.0748L360.316 58.7317L353.974 49.04Z" fill="#C1CCF8"/>
<path d="M353.973 49.04L347.63 58.7317L353.973 56.0748V49.04Z" fill="white"/>
<path d="M353.974 63.2904V68.0704L360.32 59.8389L353.974 63.2904Z" fill="#C1CCF8"/>
<path d="M353.973 68.0704V63.2896L347.63 59.8389L353.973 68.0704Z" fill="white"/>
<path d="M353.974 62.1843L360.316 58.7319L353.974 56.0767V62.1843Z" fill="#8BA1F6"/>
<path d="M347.63 58.7319L353.973 62.1843V56.0767L347.63 58.7319Z" fill="#C1CCF8"/>
<g filter="url(#filter7_dd_981_50991)">
<path d="M423.995 58.5555C423.995 64.3461 422.278 70.0066 419.061 74.8213C415.844 79.636 411.272 83.3886 405.922 85.6046C400.572 87.8205 394.685 88.4003 389.006 87.2706C383.327 86.141 378.11 83.3525 374.015 79.258C369.921 75.1634 367.132 69.9466 366.003 64.2673C364.873 58.588 365.453 52.7012 367.669 47.3514C369.885 42.0016 373.637 37.4291 378.452 34.212C383.267 30.9949 388.927 29.2778 394.718 29.2778C402.483 29.2778 409.929 32.3624 415.42 37.8531C420.911 43.3437 423.995 50.7906 423.995 58.5555Z" fill="#F7931A"/>
</g>
<path fill-rule="evenodd" clip-rule="evenodd" d="M387.887 45.7565L393.299 47.2061L394.509 42.6968L397.216 43.4312L396.053 47.7543L398.261 48.3474L399.425 43.9772L402.179 44.7138L400.993 49.1075C400.993 49.1075 405.489 50.1032 406.547 53.7603C407.605 57.4175 404.222 59.3381 403.177 59.4109C403.177 59.4109 407.117 61.5714 405.763 65.8217C404.41 70.0719 400.256 70.8321 395.886 69.8578L394.7 74.4143L391.946 73.6777L393.156 69.1919L390.972 68.5966L389.762 73.1146L387.03 72.3801L388.242 67.8836L382.686 66.3848L384.086 63.2758C384.086 63.2758 385.653 63.704 386.246 63.8453C386.839 63.9867 387.221 63.37 387.388 62.7533C387.555 62.1367 390.071 51.9168 390.308 51.0753C390.546 50.2338 390.45 49.5764 389.452 49.3173C388.454 49.0583 387.096 48.6536 387.096 48.6536L387.887 45.7565ZM393.347 59.291L391.848 65.25C391.848 65.25 399.28 67.9329 400.23 64.158C401.181 60.383 393.347 59.291 393.347 59.291ZM394.036 56.4647L395.507 51.0046C395.507 51.0046 401.871 52.1437 401.087 55.1821C400.303 58.2204 396.552 57.0556 394.036 56.4647Z" fill="white"/>
</g>
<defs>
<filter id="filter0_dd_981_50991" x="27.8345" y="37.9888" width="72.0918" height="53.8345" filterUnits="userSpaceOnUse" color-interpolation-filters="sRGB">
<feFlood flood-opacity="0" result="BackgroundImageFix"/>
<feColorMatrix in="SourceAlpha" type="matrix" values="0 0 0 0 0 0 0 0 0 0 0 0 0 0 0 0 0 0 127 0" result="hardAlpha"/>
<feMorphology radius="1" operator="erode" in="SourceAlpha" result="effect1_dropShadow_981_50991"/>
<feOffset dy="4"/>
<feGaussianBlur stdDeviation="4"/>
<feComposite in2="hardAlpha" operator="out"/>
<feColorMatrix type="matrix" values="0 0 0 0 0 0 0 0 0 0 0 0 0 0 0 0 0 0 0.1 0"/>
<feBlend mode="normal" in2="BackgroundImageFix" result="effect1_dropShadow_981_50991"/>
<feColorMatrix in="SourceAlpha" type="matrix" values="0 0 0 0 0 0 0 0 0 0 0 0 0 0 0 0 0 0 127 0" result="hardAlpha"/>
<feOffset dy="1"/>
<feComposite in2="hardAlpha" operator="out"/>
<feColorMatrix type="matrix" values="0 0 0 0 0 0 0 0 0 0 0 0 0 0 0 0 0 0 0.05 0"/>
<feBlend mode="normal" in2="effect1_dropShadow_981_50991" result="effect2_dropShadow_981_50991"/>
<feBlend mode="normal" in="SourceGraphic" in2="effect2_dropShadow_981_50991" result="shape"/>
</filter>
<filter id="filter1_dd_981_50991" x="90.2803" y="37.9888" width="72.0918" height="53.8345" filterUnits="userSpaceOnUse" color-interpolation-filters="sRGB">
<feFlood flood-opacity="0" result="BackgroundImageFix"/>
<feColorMatrix in="SourceAlpha" type="matrix" values="0 0 0 0 0 0 0 0 0 0 0 0 0 0 0 0 0 0 127 0" result="hardAlpha"/>
<feMorphology radius="1" operator="erode" in="SourceAlpha" result="effect1_dropShadow_981_50991"/>
<feOffset dy="4"/>
<feGaussianBlur stdDeviation="4"/>
<feComposite in2="hardAlpha" operator="out"/>
<feColorMatrix type="matrix" values="0 0 0 0 0 0 0 0 0 0 0 0 0 0 0 0 0 0 0.1 0"/>
<feBlend mode="normal" in2="BackgroundImageFix" result="effect1_dropShadow_981_50991"/>
<feColorMatrix in="SourceAlpha" type="matrix" values="0 0 0 0 0 0 0 0 0 0 0 0 0 0 0 0 0 0 127 0" result="hardAlpha"/>
<feOffset dy="1"/>
<feComposite in2="hardAlpha" operator="out"/>
<feColorMatrix type="matrix" values="0 0 0 0 0 0 0 0 0 0 0 0 0 0 0 0 0 0 0.05 0"/>
<feBlend mode="normal" in2="effect1_dropShadow_981_50991" result="effect2_dropShadow_981_50991"/>
<feBlend mode="normal" in="SourceGraphic" in2="effect2_dropShadow_981_50991" result="shape"/>
</filter>
<filter id="filter2_dd_981_50991" x="348.608" y="13.1025" width="34.4946" height="34.4946" filterUnits="userSpaceOnUse" color-interpolation-filters="sRGB">
<feFlood flood-opacity="0" result="BackgroundImageFix"/>
<feColorMatrix in="SourceAlpha" type="matrix" values="0 0 0 0 0 0 0 0 0 0 0 0 0 0 0 0 0 0 127 0" result="hardAlpha"/>
<feMorphology radius="1" operator="erode" in="SourceAlpha" result="effect1_dropShadow_981_50991"/>
<feOffset dy="4"/>
<feGaussianBlur stdDeviation="4"/>
<feComposite in2="hardAlpha" operator="out"/>
<feColorMatrix type="matrix" values="0 0 0 0 0 0 0 0 0 0 0 0 0 0 0 0 0 0 0.1 0"/>
<feBlend mode="normal" in2="BackgroundImageFix" result="effect1_dropShadow_981_50991"/>
<feColorMatrix in="SourceAlpha" type="matrix" values="0 0 0 0 0 0 0 0 0 0 0 0 0 0 0 0 0 0 127 0" result="hardAlpha"/>
<feOffset dy="1"/>
<feComposite in2="hardAlpha" operator="out"/>
<feColorMatrix type="matrix" values="0 0 0 0 0 0 0 0 0 0 0 0 0 0 0 0 0 0 0.05 0"/>
<feBlend mode="normal" in2="effect1_dropShadow_981_50991" result="effect2_dropShadow_981_50991"/>
<feBlend mode="normal" in="SourceGraphic" in2="effect2_dropShadow_981_50991" result="shape"/>
</filter>
<filter id="filter3_dd_981_50991" x="391.461" y="10.1748" width="28.6387" height="28.6387" filterUnits="userSpaceOnUse" color-interpolation-filters="sRGB">
<feFlood flood-opacity="0" result="BackgroundImageFix"/>
<feColorMatrix in="SourceAlpha" type="matrix" values="0 0 0 0 0 0 0 0 0 0 0 0 0 0 0 0 0 0 127 0" result="hardAlpha"/>
<feMorphology radius="1" operator="erode" in="SourceAlpha" result="effect1_dropShadow_981_50991"/>
<feOffset dy="4"/>
<feGaussianBlur stdDeviation="4"/>
<feComposite in2="hardAlpha" operator="out"/>
<feColorMatrix type="matrix" values="0 0 0 0 0 0 0 0 0 0 0 0 0 0 0 0 0 0 0.1 0"/>
<feBlend mode="normal" in2="BackgroundImageFix" result="effect1_dropShadow_981_50991"/>
<feColorMatrix in="SourceAlpha" type="matrix" values="0 0 0 0 0 0 0 0 0 0 0 0 0 0 0 0 0 0 127 0" result="hardAlpha"/>
<feOffset dy="1"/>
<feComposite in2="hardAlpha" operator="out"/>
<feColorMatrix type="matrix" values="0 0 0 0 0 0 0 0 0 0 0 0 0 0 0 0 0 0 0.05 0"/>
<feBlend mode="normal" in2="effect1_dropShadow_981_50991" result="effect2_dropShadow_981_50991"/>
<feBlend mode="normal" in="SourceGraphic" in2="effect2_dropShadow_981_50991" result="shape"/>
</filter>
<filter id="filter4_dd_981_50991" x="406.715" y="84.833" width="25.7109" height="25.7109" filterUnits="userSpaceOnUse" color-interpolation-filters="sRGB">
<feFlood flood-opacity="0" result="BackgroundImageFix"/>
<feColorMatrix in="SourceAlpha" type="matrix" values="0 0 0 0 0 0 0 0 0 0 0 0 0 0 0 0 0 0 127 0" result="hardAlpha"/>
<feMorphology radius="1" operator="erode" in="SourceAlpha" result="effect1_dropShadow_981_50991"/>
<feOffset dy="4"/>
<feGaussianBlur stdDeviation="4"/>
<feComposite in2="hardAlpha" operator="out"/>
<feColorMatrix type="matrix" values="0 0 0 0 0 0 0 0 0 0 0 0 0 0 0 0 0 0 0.1 0"/>
<feBlend mode="normal" in2="BackgroundImageFix" result="effect1_dropShadow_981_50991"/>
<feColorMatrix in="SourceAlpha" type="matrix" values="0 0 0 0 0 0 0 0 0 0 0 0 0 0 0 0 0 0 127 0" result="hardAlpha"/>
<feOffset dy="1"/>
<feComposite in2="hardAlpha" operator="out"/>
<feColorMatrix type="matrix" values="0 0 0 0 0 0 0 0 0 0 0 0 0 0 0 0 0 0 0.05 0"/>
<feBlend mode="normal" in2="effect1_dropShadow_981_50991" result="effect2_dropShadow_981_50991"/>
<feBlend mode="normal" in="SourceGraphic" in2="effect2_dropShadow_981_50991" result="shape"/>
</filter>
<filter id="filter5_dd_981_50991" x="411.386" y="37.9888" width="49.1333" height="49.1333" filterUnits="userSpaceOnUse" color-interpolation-filters="sRGB">
<feFlood flood-opacity="0" result="BackgroundImageFix"/>
<feColorMatrix in="SourceAlpha" type="matrix" values="0 0 0 0 0 0 0 0 0 0 0 0 0 0 0 0 0 0 127 0" result="hardAlpha"/>
<feMorphology radius="1" operator="erode" in="SourceAlpha" result="effect1_dropShadow_981_50991"/>
<feOffset dy="4"/>
<feGaussianBlur stdDeviation="4"/>
<feComposite in2="hardAlpha" operator="out"/>
<feColorMatrix type="matrix" values="0 0 0 0 0 0 0 0 0 0 0 0 0 0 0 0 0 0 0.1 0"/>
<feBlend mode="normal" in2="BackgroundImageFix" result="effect1_dropShadow_981_50991"/>
<feColorMatrix in="SourceAlpha" type="matrix" values="0 0 0 0 0 0 0 0 0 0 0 0 0 0 0 0 0 0 127 0" result="hardAlpha"/>
<feOffset dy="1"/>
<feComposite in2="hardAlpha" operator="out"/>
<feColorMatrix type="matrix" values="0 0 0 0 0 0 0 0 0 0 0 0 0 0 0 0 0 0 0.05 0"/>
<feBlend mode="normal" in2="effect1_dropShadow_981_50991" result="effect2_dropShadow_981_50991"/>
<feBlend mode="normal" in="SourceGraphic" in2="effect2_dropShadow_981_50991" result="shape"/>
</filter>
<filter id="filter6_dd_981_50991" x="329.409" y="37.9888" width="49.1333" height="49.1333" filterUnits="userSpaceOnUse" color-interpolation-filters="sRGB">
<feFlood flood-opacity="0" result="BackgroundImageFix"/>
<feColorMatrix in="SourceAlpha" type="matrix" values="0 0 0 0 0 0 0 0 0 0 0 0 0 0 0 0 0 0 127 0" result="hardAlpha"/>
<feMorphology radius="1" operator="erode" in="SourceAlpha" result="effect1_dropShadow_981_50991"/>
<feOffset dy="4"/>
<feGaussianBlur stdDeviation="4"/>
<feComposite in2="hardAlpha" operator="out"/>
<feColorMatrix type="matrix" values="0 0 0 0 0 0 0 0 0 0 0 0 0 0 0 0 0 0 0.1 0"/>
<feBlend mode="normal" in2="BackgroundImageFix" result="effect1_dropShadow_981_50991"/>
<feColorMatrix in="SourceAlpha" type="matrix" values="0 0 0 0 0 0 0 0 0 0 0 0 0 0 0 0 0 0 127 0" result="hardAlpha"/>
<feOffset dy="1"/>
<feComposite in2="hardAlpha" operator="out"/>
<feColorMatrix type="matrix" values="0 0 0 0 0 0 0 0 0 0 0 0 0 0 0 0 0 0 0.05 0"/>
<feBlend mode="normal" in2="effect1_dropShadow_981_50991" result="effect2_dropShadow_981_50991"/>
<feBlend mode="normal" in="SourceGraphic" in2="effect2_dropShadow_981_50991" result="shape"/>
</filter>
<filter id="filter7_dd_981_50991" x="358.44" y="26.2778" width="72.5552" height="72.5552" filterUnits="userSpaceOnUse" color-interpolation-filters="sRGB">
<feFlood flood-opacity="0" result="BackgroundImageFix"/>
<feColorMatrix in="SourceAlpha" type="matrix" values="0 0 0 0 0 0 0 0 0 0 0 0 0 0 0 0 0 0 127 0" result="hardAlpha"/>
<feMorphology radius="1" operator="erode" in="SourceAlpha" result="effect1_dropShadow_981_50991"/>
<feOffset dy="4"/>
<feGaussianBlur stdDeviation="4"/>
<feComposite in2="hardAlpha" operator="out"/>
<feColorMatrix type="matrix" values="0 0 0 0 0 0 0 0 0 0 0 0 0 0 0 0 0 0 0.1 0"/>
<feBlend mode="normal" in2="BackgroundImageFix" result="effect1_dropShadow_981_50991"/>
<feColorMatrix in="SourceAlpha" type="matrix" values="0 0 0 0 0 0 0 0 0 0 0 0 0 0 0 0 0 0 127 0" result="hardAlpha"/>
<feOffset dy="1"/>
<feComposite in2="hardAlpha" operator="out"/>
<feColorMatrix type="matrix" values="0 0 0 0 0 0 0 0 0 0 0 0 0 0 0 0 0 0 0.05 0"/>
<feBlend mode="normal" in2="effect1_dropShadow_981_50991" result="effect2_dropShadow_981_50991"/>
<feBlend mode="normal" in="SourceGraphic" in2="effect2_dropShadow_981_50991" result="shape"/>
</filter>
<linearGradient id="paint0_linear_981_50991" x1="105.4" y1="60.5835" x2="7.31933" y2="60.5835" gradientUnits="userSpaceOnUse">
<stop stop-color="white" stop-opacity="0"/>
<stop offset="1" stop-color="white"/>
</linearGradient>
<linearGradient id="paint1_linear_981_50991" x1="170.408" y1="60.0191" x2="87.8321" y2="60.3342" gradientUnits="userSpaceOnUse">
<stop stop-color="white"/>
<stop offset="1" stop-color="white" stop-opacity="0"/>
</linearGradient>
<linearGradient id="paint2_linear_981_50991" x1="217.818" y1="150.083" x2="175.279" y2="150.083" gradientUnits="userSpaceOnUse">
<stop offset="0.135" stop-color="white"/>
<stop offset="1" stop-color="white" stop-opacity="0"/>
</linearGradient>
<linearGradient id="paint3_linear_981_50991" x1="44.1039" y1="123.936" x2="14.8262" y2="123.936" gradientUnits="userSpaceOnUse">
<stop offset="0.135" stop-color="white"/>
<stop offset="1" stop-color="white" stop-opacity="0"/>
</linearGradient>
<linearGradient id="paint4_linear_981_50991" x1="275.21" y1="54.1622" x2="209.335" y2="54.1622" gradientUnits="userSpaceOnUse">
<stop stop-color="#D8D8D8" stop-opacity="0"/>
<stop offset="1" stop-color="#D8D8D8"/>
</linearGradient>
<linearGradient id="paint5_linear_981_50991" x1="232.758" y1="70.268" x2="298.632" y2="70.268" gradientUnits="userSpaceOnUse">
<stop stop-color="#D8D8D8" stop-opacity="0"/>
<stop offset="1" stop-color="#D8D8D8"/>
</linearGradient>
<linearGradient id="paint6_linear_981_50991" x1="399.76" y1="40.6145" x2="339.76" y2="40.6145" gradientUnits="userSpaceOnUse">
<stop stop-color="white" stop-opacity="0"/>
<stop offset="1" stop-color="white"/>
</linearGradient>
<clipPath id="clip0_981_50991">
<rect width="174.202" height="98.0803" fill="white" transform="translate(0.731934 13.1748)"/>
</clipPath>
<clipPath id="clip1_981_50991">
<rect width="122.966" height="124.43" fill="white" transform="translate(333.034)"/>
</clipPath>
</defs>
</svg>
