<svg width="312" height="85" viewBox="0 0 312 85" fill="none" xmlns="http://www.w3.org/2000/svg">
<g clip-path="url(#clip0_981_50346)">
<g opacity="0.3">
<rect x="20.7173" y="10.9429" width="26.3951" height="17.8555" rx="2.71714" fill="white" stroke="#D9D9D9" stroke-width="0.776325"/>
<path fill-rule="evenodd" clip-rule="evenodd" d="M35.7866 19.4731H36.6762C36.9583 19.4629 37.1298 19.4412 37.1916 19.4072C37.2759 19.3607 37.3325 19.2677 37.3607 19.1282C37.3787 19.0354 37.3877 18.8974 37.3877 18.714C37.3877 18.4894 37.3698 18.3229 37.3339 18.2141C37.2825 18.0618 37.1596 17.969 36.9649 17.9353C36.9264 17.9302 36.8343 17.9275 36.6882 17.9275H35.7866V19.4731ZM34.3593 22.0763V16.7651H37.0179C37.3825 16.7651 37.6608 16.795 37.852 16.8546C38.2892 16.9918 38.5826 17.2728 38.7329 17.6975C38.8105 17.9204 38.8492 18.2559 38.8492 18.704C38.8492 19.2427 38.8062 19.6299 38.7211 19.8656C38.5506 20.3317 38.1996 20.6002 37.6695 20.6698C37.6072 20.6803 37.342 20.6896 36.8739 20.6971L36.637 20.705H35.7862V22.0763H34.3593ZM27.194 18.4593H28.5216C28.5301 18.342 28.5344 18.2542 28.5344 18.1955C28.5344 17.4799 28.2456 17.0444 27.6679 16.8889C27.4312 16.8253 27.0341 16.7932 26.477 16.7932C26.123 16.7932 25.8013 16.8061 25.5113 16.8315C25.1627 16.8596 24.8763 16.9536 24.6525 17.1137C24.4998 17.218 24.3891 17.3705 24.3204 17.5714C24.2517 17.7723 24.2174 18.0393 24.2174 18.3723C24.2174 18.8095 24.2809 19.1364 24.408 19.3524C24.5525 19.6067 24.8422 19.7742 25.2768 19.8556C25.4418 19.8839 25.7366 19.9131 26.1609 19.9434C26.6892 19.9791 26.9853 20.0071 27.0489 20.0273C27.219 20.0783 27.3042 20.2206 27.3042 20.4544C27.3042 20.5588 27.2941 20.6441 27.2738 20.7101C27.2355 20.8171 27.1555 20.8945 27.0334 20.9426C26.9649 20.9682 26.8059 20.981 26.5568 20.981H26.0688C25.9389 20.9782 25.8284 20.9543 25.7368 20.9087C25.6048 20.8427 25.5386 20.6943 25.5386 20.4637L25.5385 20.3533H24.2109C24.2109 20.7854 24.2425 21.0941 24.3063 21.2795C24.4209 21.6125 24.6576 21.8337 25.0167 21.9428C25.3092 22.0319 25.8273 22.0762 26.5708 22.0762C27.0162 22.0762 27.3473 22.0558 27.5638 22.015C28.0804 21.9184 28.4125 21.6884 28.5603 21.3243C28.6419 21.1258 28.6826 20.8127 28.6826 20.3851C28.6826 20.1996 28.6737 20.0327 28.6558 19.8851C28.6253 19.6385 28.5295 19.4387 28.3689 19.2859C28.1648 19.09 27.8358 18.9691 27.3821 18.9233C27.2391 18.908 26.8808 18.8812 26.307 18.843L26.0393 18.8241C25.9218 18.8165 25.8275 18.791 25.7562 18.7477C25.6566 18.6867 25.607 18.5594 25.607 18.366C25.607 18.1524 25.6631 18.0137 25.7751 17.9499C25.8872 17.8863 26.117 17.8545 26.4636 17.8545C26.8205 17.8545 27.0385 17.9098 27.1175 18.0201C27.1684 18.0946 27.194 18.2411 27.194 18.4593ZM24.2159 23.1295L24.4149 23.1094C24.4268 23.1766 24.4512 23.2259 24.4878 23.2574C24.5244 23.2889 24.5738 23.3047 24.636 23.3047C24.7019 23.3047 24.7515 23.2907 24.7849 23.2627C24.8183 23.2347 24.835 23.202 24.835 23.1645C24.835 23.1404 24.828 23.12 24.814 23.103C24.8 23.0862 24.7756 23.0715 24.7406 23.059C24.7167 23.0508 24.6623 23.0361 24.5773 23.015C24.4679 22.9879 24.3912 22.9545 24.3471 22.9149C24.2851 22.8592 24.2541 22.7913 24.2541 22.7112C24.2541 22.6597 24.2687 22.6114 24.2979 22.5666C24.3271 22.5217 24.3693 22.4874 24.4243 22.464C24.4794 22.4405 24.5458 22.4287 24.6237 22.4287C24.7508 22.4287 24.8464 22.4568 24.9107 22.5127C24.975 22.5687 25.0087 22.6434 25.0119 22.7368L24.8069 22.7449C24.7981 22.6927 24.7793 22.6552 24.7505 22.6322C24.7218 22.6094 24.6786 22.5979 24.621 22.5979C24.5616 22.5979 24.5152 22.6101 24.4815 22.6346C24.4598 22.6503 24.449 22.6713 24.449 22.6976C24.449 22.7216 24.4592 22.7421 24.4795 22.7592C24.5052 22.7809 24.5678 22.8035 24.6672 22.8269C24.7666 22.8503 24.8401 22.8746 24.8878 22.8999C24.9354 22.9251 24.9727 22.9596 24.9997 23.0032C25.0265 23.0471 25.0401 23.101 25.0401 23.1654C25.0401 23.2237 25.0239 23.2783 24.9916 23.3292C24.9593 23.3801 24.9137 23.4179 24.8547 23.4427C24.7957 23.4674 24.7222 23.4799 24.6342 23.4799C24.506 23.4799 24.4076 23.45 24.3389 23.3904C24.2703 23.3307 24.2292 23.2438 24.2159 23.1295ZM25.2526 22.7265H25.4476V23.4615H25.2526V22.7265ZM25.2527 22.4469H25.4476V22.6262H25.2527V22.4469ZM26.1625 23.4619H26.3575V23.0042C26.3575 22.9474 26.3539 22.9037 26.3468 22.8732C26.3396 22.8427 26.327 22.8154 26.3088 22.7914C26.2906 22.7674 26.2637 22.7476 26.2283 22.7321C26.1928 22.7167 26.1537 22.7089 26.1108 22.7089C26.0137 22.7089 25.933 22.7509 25.869 22.835V22.727H25.6882V23.4619H25.8831V23.1283C25.8831 23.046 25.888 22.9896 25.8979 22.9591C25.9078 22.9286 25.926 22.9041 25.9526 22.8856C25.9792 22.8671 26.0093 22.8578 26.0428 22.8578C26.0689 22.8578 26.0913 22.8644 26.1099 22.8772C26.1285 22.8902 26.1418 22.9084 26.1501 22.9318C26.1584 22.9551 26.1625 23.0065 26.1625 23.086V23.4619ZM26.7517 23.0786C26.7517 23.1569 26.7666 23.2141 26.7966 23.2504C26.8265 23.2868 26.8634 23.3049 26.9073 23.3049C26.9544 23.3049 26.9941 23.2863 27.0266 23.2491C27.059 23.2118 27.0753 23.1566 27.0753 23.0835C27.0753 23.0072 27.0597 22.9505 27.0286 22.9134C26.9975 22.8764 26.9583 22.8579 26.9107 22.8579C26.8646 22.8579 26.8265 22.8761 26.7966 22.9124C26.7666 22.9488 26.7517 23.0042 26.7517 23.0786ZM26.5769 23.5102L26.798 23.5344C26.8017 23.5618 26.8103 23.5806 26.8237 23.5909C26.8422 23.6056 26.8713 23.6129 26.9111 23.6129C26.962 23.6129 27.0001 23.6053 27.0256 23.5901C27.0426 23.58 27.0556 23.5636 27.0644 23.541C27.0704 23.5247 27.0734 23.495 27.0734 23.4516L27.074 23.3443C27.0165 23.4227 26.9436 23.4619 26.8551 23.4619C26.7563 23.4619 26.6782 23.4202 26.6206 23.3365C26.5754 23.2704 26.5528 23.188 26.5528 23.0896C26.5528 22.9661 26.5824 22.8718 26.6416 22.8066C26.7009 22.7415 26.7746 22.7089 26.8627 22.7089C26.9535 22.7089 27.0284 22.7489 27.0875 22.8288V22.727H27.2684V23.3876C27.2684 23.4745 27.2613 23.5395 27.2469 23.5824C27.2326 23.6254 27.2126 23.6591 27.1867 23.6836C27.1609 23.7081 27.1264 23.7273 27.0832 23.7412C27.0401 23.755 26.9855 23.762 26.9196 23.762C26.795 23.762 26.7066 23.7405 26.6544 23.6975C26.6023 23.6545 26.5762 23.6 26.5762 23.534C26.5762 23.5274 26.5765 23.5196 26.5769 23.5102ZM27.6969 22.4469H27.502V23.4618H27.6969V22.4469ZM28.3758 23.0331C28.3744 22.9759 28.3598 22.9324 28.3319 22.9026C28.3042 22.8728 28.2703 22.8579 28.2304 22.8579C28.1878 22.8579 28.1525 22.8737 28.1248 22.9051C28.0969 22.9364 28.0833 22.9792 28.0837 23.0331H28.3758ZM28.3659 23.2304L28.5588 23.2626C28.5339 23.3334 28.4944 23.3874 28.4406 23.4245C28.3868 23.4616 28.3193 23.4801 28.2385 23.4801C28.1104 23.4801 28.0157 23.4381 27.9542 23.3543C27.9057 23.2872 27.8814 23.2024 27.8814 23.1C27.8814 22.9778 27.9133 22.882 27.9771 22.8127C28.0408 22.7435 28.1214 22.7089 28.2189 22.7089C28.3284 22.7089 28.4148 22.7452 28.4781 22.8178C28.5414 22.8906 28.5716 23.0019 28.5689 23.1519H28.0804C28.0818 23.2097 28.0976 23.2547 28.1279 23.2869C28.1581 23.319 28.1958 23.3351 28.2409 23.3351C28.2716 23.3351 28.2975 23.3269 28.3184 23.3103C28.3393 23.2938 28.3552 23.2671 28.3659 23.2304ZM29.2066 22.4469V23.4618H29.9765V23.2906H29.4117V23.0148H29.9183V22.8437H29.4117V22.6181H29.9565V22.4469H29.2066ZM30.6735 23.4616V23.3516C30.6467 23.3908 30.6115 23.422 30.5678 23.4451C30.5241 23.4682 30.4781 23.4798 30.4296 23.4798C30.3801 23.4798 30.3358 23.4689 30.2965 23.4472C30.2573 23.4255 30.2289 23.3949 30.2113 23.3557C30.1937 23.3164 30.185 23.2621 30.185 23.1927V22.7267H30.38V23.0647C30.38 23.1682 30.3835 23.2316 30.3907 23.2549C30.3979 23.2783 30.4108 23.2967 30.4298 23.3104C30.4487 23.324 30.4726 23.3308 30.5017 23.3308C30.5349 23.3308 30.5646 23.3217 30.5909 23.3034C30.6172 23.2852 30.6351 23.2626 30.6449 23.2355C30.6545 23.2085 30.6594 23.1424 30.6594 23.0371V22.7267H30.8544V23.4616H30.6735ZM31.0879 23.4619H31.2829V23.2347C31.2829 23.1095 31.2884 23.0272 31.2992 22.988C31.3101 22.9488 31.325 22.9216 31.344 22.9066C31.363 22.8916 31.3861 22.8841 31.4134 22.8841C31.4416 22.8841 31.4722 22.8947 31.505 22.9159L31.5643 22.7457C31.5233 22.7212 31.4806 22.7089 31.4363 22.7089C31.4049 22.7089 31.3769 22.717 31.3522 22.7332C31.3275 22.7494 31.2998 22.7821 31.2688 22.8315V22.727H31.0879V23.4619ZM31.842 23.0946C31.842 23.1679 31.8593 23.2239 31.894 23.2628C31.9286 23.3017 31.9713 23.3212 32.0222 23.3212C32.073 23.3212 32.1157 23.3017 32.1501 23.2628C32.1845 23.2239 32.2018 23.1674 32.2018 23.0933C32.2018 23.021 32.1845 22.9654 32.1501 22.9265C32.1157 22.8876 32.073 22.8681 32.0222 22.8681C31.9713 22.8681 31.9286 22.8876 31.894 22.9265C31.8593 22.9654 31.842 23.0215 31.842 23.0946ZM31.6429 23.084C31.6429 23.0192 31.6588 22.9564 31.6906 22.8957C31.7224 22.8351 31.7674 22.7888 31.8258 22.7568C31.884 22.7249 31.9492 22.7089 32.0211 22.7089C32.1322 22.7089 32.2232 22.7451 32.2942 22.8176C32.3652 22.8901 32.4007 22.9817 32.4007 23.0924C32.4007 23.204 32.3648 23.2966 32.2931 23.37C32.2215 23.4434 32.1312 23.4801 32.0225 23.4801C31.9552 23.4801 31.891 23.4647 31.8299 23.4343C31.7688 23.4037 31.7224 23.3589 31.6906 23.2998C31.6588 23.2407 31.6429 23.1689 31.6429 23.084ZM33.2408 22.9081V22.6181H33.3394C33.413 22.6181 33.4619 22.6204 33.4862 22.6251C33.5193 22.6311 33.5466 22.6462 33.5683 22.6704C33.5899 22.6945 33.6007 22.7252 33.6007 22.7624C33.6007 22.7926 33.593 22.8191 33.5776 22.8418C33.5622 22.8646 33.5409 22.8814 33.5138 22.8921C33.4867 22.9028 33.4329 22.9081 33.3525 22.9081H33.2408ZM33.0356 22.4469V23.4618H33.2406V23.0792H33.3739C33.4663 23.0792 33.5369 23.0744 33.5857 23.0647C33.6216 23.0568 33.6569 23.0408 33.6917 23.0165C33.7264 22.9923 33.7551 22.9589 33.7776 22.9165C33.8002 22.8739 33.8115 22.8216 33.8115 22.7593C33.8115 22.6785 33.7919 22.6126 33.7527 22.5616C33.7136 22.5106 33.665 22.4774 33.607 22.4622C33.5692 22.4521 33.4881 22.4469 33.3638 22.4469H33.0356ZM34.424 23.1096C34.3991 23.118 34.3598 23.1279 34.306 23.1395C34.2523 23.151 34.2171 23.1624 34.2006 23.1735C34.1753 23.1916 34.1627 23.2146 34.1627 23.2423C34.1627 23.2697 34.1728 23.2933 34.193 23.3133C34.2132 23.3332 34.2389 23.3432 34.2703 23.3432C34.3052 23.3432 34.3385 23.3316 34.3702 23.3084C34.3936 23.2908 34.4091 23.2693 34.4164 23.2437C34.4214 23.2271 34.424 23.1953 34.424 23.1484V23.1096ZM34.1627 22.9505L33.9878 22.9183C34.0076 22.8471 34.0417 22.7944 34.0901 22.7602C34.1385 22.726 34.2105 22.7089 34.3058 22.7089C34.3925 22.7089 34.4571 22.7192 34.4995 22.7397C34.5418 22.7604 34.5718 22.7865 34.589 22.8181C34.6063 22.8497 34.615 22.9079 34.615 22.9925L34.613 23.22C34.613 23.2847 34.6161 23.3325 34.6223 23.3631C34.6285 23.3939 34.6401 23.4268 34.6572 23.4619H34.4642C34.4591 23.4492 34.4529 23.4303 34.4455 23.4053C34.4423 23.3939 34.44 23.3865 34.4387 23.3828C34.4055 23.4152 34.37 23.4396 34.3323 23.4558C34.2945 23.472 34.2543 23.4801 34.2115 23.4801C34.136 23.4801 34.0764 23.4595 34.0329 23.4184C33.9894 23.3772 33.9677 23.3251 33.9677 23.2622C33.9677 23.2207 33.9776 23.1836 33.9973 23.151C34.0172 23.1184 34.045 23.0934 34.0807 23.076C34.1165 23.0588 34.168 23.0435 34.2353 23.0305C34.326 23.0135 34.389 22.9975 34.424 22.9827V22.9631C34.424 22.9252 34.4147 22.8982 34.3962 22.882C34.3776 22.8659 34.3427 22.8578 34.2912 22.8578C34.2565 22.8578 34.2294 22.8647 34.2099 22.8784C34.1904 22.8921 34.1747 22.9162 34.1627 22.9505ZM34.962 22.7267H34.755L35.0348 23.4637C35.0232 23.5052 35.0065 23.5394 34.9847 23.5663C34.9629 23.5931 34.9294 23.6066 34.8839 23.6066C34.8594 23.6066 34.8317 23.6036 34.8012 23.5975L34.8193 23.7499C34.8553 23.7578 34.8921 23.7617 34.9295 23.7617C34.9664 23.7617 34.9995 23.7578 35.0288 23.7498C35.0582 23.742 35.0827 23.731 35.1029 23.7168C35.1229 23.7028 35.1408 23.6844 35.1562 23.6618C35.1716 23.6391 35.1879 23.6063 35.205 23.5632L35.5108 22.7267H35.3098L35.1379 23.2485L34.962 22.7267ZM35.6629 22.727H35.8418V22.8274C35.906 22.7484 35.9825 22.7089 36.0713 22.7089C36.1184 22.7089 36.1593 22.7185 36.1939 22.7379C36.2286 22.7574 36.257 22.7868 36.2792 22.826C36.3115 22.7868 36.3464 22.7574 36.3837 22.7379C36.4211 22.7185 36.4609 22.7089 36.5034 22.7089C36.5574 22.7089 36.6031 22.7198 36.6405 22.7419C36.6778 22.7637 36.7058 22.796 36.7243 22.8386C36.7376 22.87 36.7443 22.9208 36.7443 22.9911V23.4619H36.5493V23.041C36.5493 22.9679 36.5426 22.9208 36.5293 22.8995C36.5113 22.8717 36.4837 22.8578 36.4465 22.8578C36.4193 22.8578 36.3937 22.8662 36.3697 22.8828C36.3458 22.8995 36.3286 22.9239 36.318 22.956C36.3074 22.9881 36.3021 23.0389 36.3021 23.1082V23.4619H36.1071V23.0584C36.1071 22.9866 36.1037 22.9405 36.0967 22.9196C36.0899 22.8988 36.0792 22.8833 36.0646 22.8731C36.0501 22.863 36.0305 22.8578 36.0056 22.8578C35.9757 22.8578 35.9487 22.866 35.9248 22.8821C35.9009 22.8983 35.8838 22.9217 35.8733 22.9522C35.863 22.9827 35.8578 23.0333 35.8578 23.104V23.4619H35.6629V22.727ZM37.3717 22.9026C37.3996 22.9324 37.4142 22.9759 37.4156 23.0331H37.1236C37.1231 22.9792 37.1368 22.9364 37.1646 22.9051C37.1923 22.8737 37.2276 22.8579 37.2702 22.8579C37.3101 22.8579 37.344 22.8728 37.3717 22.9026ZM37.5988 23.2626L37.4059 23.2304C37.3952 23.2671 37.3794 23.2938 37.3583 23.3103C37.3374 23.3269 37.3116 23.3351 37.2809 23.3351C37.2357 23.3351 37.198 23.319 37.1679 23.2869C37.1376 23.2547 37.1218 23.2097 37.1204 23.1519H37.6089C37.6116 23.0019 37.5813 22.8906 37.518 22.8178C37.4547 22.7452 37.3684 22.7089 37.2589 22.7089C37.1614 22.7089 37.0808 22.7435 37.017 22.8127C36.9533 22.882 36.9214 22.9778 36.9214 23.1C36.9214 23.2024 36.9456 23.2872 36.9942 23.3543C37.0557 23.4381 37.1504 23.4801 37.2784 23.4801C37.3594 23.4801 37.4267 23.4616 37.4806 23.4245C37.5344 23.3874 37.5738 23.3334 37.5988 23.2626ZM38.4766 23.4619H38.2816V23.086C38.2816 23.0065 38.2775 22.9551 38.2693 22.9318C38.261 22.9084 38.2475 22.8902 38.2289 22.8772C38.2104 22.8644 38.188 22.8578 38.1619 22.8578C38.1284 22.8578 38.0983 22.8671 38.0717 22.8856C38.0451 22.9041 38.0269 22.9286 38.017 22.9591C38.0072 22.9896 38.0022 23.046 38.0022 23.1283V23.4619H37.8072V22.727H37.9881V22.835C38.0522 22.7509 38.1328 22.7089 38.2299 22.7089C38.2728 22.7089 38.312 22.7167 38.3474 22.7321C38.3828 22.7476 38.4097 22.7674 38.4279 22.7914C38.4461 22.8154 38.4587 22.8427 38.4659 22.8732C38.4731 22.9037 38.4766 22.9474 38.4766 23.0042V23.4619ZM39.052 22.8819V22.7269H38.9193V22.4651L38.7243 22.5799V22.7269H38.6359V22.8819H38.7243V23.2032C38.7243 23.272 38.7263 23.3179 38.7305 23.3405C38.7355 23.3724 38.7445 23.3978 38.7576 23.4164C38.7707 23.4352 38.7912 23.4505 38.8191 23.4623C38.8471 23.474 38.8784 23.48 38.9134 23.48C38.9702 23.48 39.0211 23.4702 39.066 23.4508L39.049 23.3002C39.0154 23.3126 38.9899 23.3189 38.9722 23.3189C38.9595 23.3189 38.9488 23.3156 38.9399 23.3092C38.9311 23.3026 38.9255 23.2945 38.923 23.2845C38.9205 23.2746 38.9193 23.2394 38.9193 23.1793V22.8819H39.052ZM39.1616 23.2546L39.3566 23.2243C39.3649 23.2619 39.3817 23.2904 39.407 23.3099C39.4323 23.3294 39.4677 23.3391 39.5132 23.3391C39.5635 23.3391 39.6012 23.3298 39.6265 23.3113C39.6436 23.2982 39.6521 23.2809 39.6521 23.2589C39.6521 23.2441 39.6474 23.2318 39.6382 23.2221C39.6284 23.2127 39.6066 23.2042 39.5728 23.1963C39.4153 23.1614 39.3154 23.1296 39.2733 23.101C39.2149 23.0612 39.1858 23.0059 39.1858 22.9352C39.1858 22.8712 39.2109 22.8176 39.2614 22.7741C39.312 22.7307 39.3902 22.7089 39.4963 22.7089C39.5973 22.7089 39.6723 22.7252 39.7215 22.7577C39.7705 22.7903 39.8044 22.8385 39.823 22.9022L39.64 22.9364C39.6321 22.9078 39.6171 22.8859 39.5949 22.8707C39.5727 22.8554 39.5412 22.8478 39.5002 22.8478C39.4485 22.8478 39.4113 22.8549 39.389 22.8694C39.374 22.8796 39.3666 22.8928 39.3666 22.9091C39.3666 22.9231 39.3731 22.9349 39.3861 22.9447C39.4036 22.9577 39.4644 22.976 39.5683 22.9997C39.6722 23.0234 39.7447 23.0524 39.786 23.0868C39.8266 23.1216 39.8471 23.1701 39.8471 23.2323C39.8471 23.3 39.8189 23.3582 39.7628 23.407C39.7065 23.4557 39.6234 23.4801 39.5132 23.4801C39.4133 23.4801 39.3342 23.4598 39.2759 23.4194C39.2177 23.3789 39.1796 23.324 39.1616 23.2546ZM40.8923 22.6844L41.0339 23.061H40.7554L40.8923 22.6844ZM41.1889 23.4618H41.4096L41.0005 22.4469H40.7849L40.3925 23.4618H40.6094L40.6929 23.2323H41.1013L41.1889 23.4618ZM41.7443 23.4619H41.5494V22.727H41.7302V22.8315C41.7612 22.7821 41.7889 22.7494 41.8137 22.7332C41.8383 22.717 41.8663 22.7089 41.8977 22.7089C41.942 22.7089 41.9846 22.7212 42.0258 22.7457L41.9664 22.9159C41.9336 22.8947 41.903 22.8841 41.8748 22.8841C41.8474 22.8841 41.8244 22.8916 41.8054 22.9066C41.7864 22.9216 41.7715 22.9488 41.7607 22.988C41.7497 23.0272 41.7443 23.1095 41.7443 23.2347V23.4619ZM42.5449 22.9026C42.5727 22.9324 42.5873 22.9759 42.5887 23.0331H42.2966C42.2961 22.9792 42.3098 22.9364 42.3377 22.9051C42.3655 22.8737 42.4007 22.8579 42.4434 22.8579C42.4832 22.8579 42.517 22.8728 42.5449 22.9026ZM42.7715 23.2626L42.5786 23.2304C42.5678 23.2671 42.552 23.2938 42.5311 23.3103C42.5101 23.3269 42.4843 23.3351 42.4536 23.3351C42.4085 23.3351 42.3708 23.319 42.3405 23.2869C42.3103 23.2547 42.2945 23.2097 42.2931 23.1519H42.7816C42.7843 23.0019 42.7541 22.8906 42.6908 22.8178C42.6275 22.7452 42.5411 22.7089 42.4316 22.7089C42.3341 22.7089 42.2535 22.7435 42.1898 22.8127C42.126 22.882 42.0941 22.9778 42.0941 23.1C42.0941 23.2024 42.1183 23.2872 42.1669 23.3543C42.2283 23.4381 42.3231 23.4801 42.4512 23.4801C42.5321 23.4801 42.5995 23.4616 42.6533 23.4245C42.7072 23.3874 42.7466 23.3334 42.7715 23.2626ZM43.3858 23.1096C43.361 23.118 43.3216 23.1279 43.2678 23.1395C43.2141 23.151 43.1789 23.1624 43.1624 23.1735C43.1371 23.1916 43.1245 23.2146 43.1245 23.2423C43.1245 23.2697 43.1346 23.2933 43.1548 23.3133C43.175 23.3332 43.2007 23.3432 43.2321 23.3432C43.267 23.3432 43.3003 23.3316 43.332 23.3084C43.3554 23.2908 43.3709 23.2693 43.3782 23.2437C43.3832 23.2271 43.3858 23.1953 43.3858 23.1484V23.1096ZM43.1245 22.9505L42.9496 22.9183C42.9694 22.8471 43.0035 22.7944 43.0519 22.7602C43.1003 22.726 43.1722 22.7089 43.2676 22.7089C43.3543 22.7089 43.4189 22.7192 43.4612 22.7397C43.5036 22.7604 43.5336 22.7865 43.5508 22.8181C43.5681 22.8497 43.5768 22.9079 43.5768 22.9925L43.5748 23.22C43.5748 23.2847 43.5779 23.3325 43.584 23.3631C43.5903 23.3939 43.6019 23.4268 43.6189 23.4619H43.426C43.4209 23.4492 43.4147 23.4303 43.4073 23.4053C43.4041 23.3939 43.4017 23.3865 43.4005 23.3828C43.3673 23.4152 43.3319 23.4396 43.2941 23.4558C43.2564 23.472 43.2161 23.4801 43.1733 23.4801C43.0978 23.4801 43.0382 23.4595 42.9947 23.4184C42.9513 23.3772 42.9295 23.3251 42.9295 23.2622C42.9295 23.2207 42.9394 23.1836 42.9592 23.151C42.979 23.1184 43.0068 23.0934 43.0425 23.076C43.0783 23.0588 43.1298 23.0435 43.1971 23.0305C43.2878 23.0135 43.3507 22.9975 43.3858 22.9827V22.9631C43.3858 22.9252 43.3765 22.8982 43.358 22.882C43.3395 22.8659 43.3045 22.8578 43.253 22.8578C43.2183 22.8578 43.1912 22.8647 43.1717 22.8784C43.1523 22.8921 43.1365 22.9162 43.1245 22.9505ZM40.9433 17.8214L41.6119 20.1236H40.2945L40.9433 17.8214ZM39.9876 21.1584H41.8955L42.1678 22.0763H43.6131L42.0005 16.7651H39.848L38.2549 22.0763H39.7313L39.9876 21.1584Z" fill="#10298E"/>
<path fill-rule="evenodd" clip-rule="evenodd" d="M32.3895 17.5124C32.9781 17.5124 33.5034 17.784 33.8487 18.2094L34.1563 17.5488C33.6752 17.0933 33.0204 16.8125 32.2983 16.8125C31.1739 16.8125 30.212 17.4927 29.8173 18.4556H29.2175L28.8633 19.2162H29.6349C29.6291 19.2868 29.6254 19.3574 29.6254 19.4294C29.6254 19.5166 29.6299 19.6027 29.6385 19.6879H29.2507L28.8966 20.4487H29.8357C30.2417 21.3872 31.1915 22.0461 32.2983 22.0461C32.856 22.0461 33.3736 21.8787 33.8021 21.5928V20.6604C33.457 21.0539 32.9523 21.3026 32.3895 21.3026C31.7318 21.3026 31.1532 20.9629 30.8162 20.4487H32.7827L33.1368 19.6879H30.5269C30.5135 19.5963 30.5063 19.5027 30.5063 19.4074C30.5063 19.343 30.5096 19.2792 30.5158 19.2162H33.3563L33.7104 18.4556H30.7614C31.0876 17.8918 31.6945 17.5124 32.3895 17.5124Z" fill="#FFBE00"/>
<rect x="50.9941" y="10.9429" width="26.3951" height="17.8555" rx="2.71714" fill="white" stroke="#D9D9D9" stroke-width="0.776325"/>
<path fill-rule="evenodd" clip-rule="evenodd" d="M63.4387 22.7886V20.4434H64.6491C65.1451 20.4434 65.5638 20.2772 65.905 19.9494L65.9869 19.8663C66.6104 19.1876 66.5694 18.1304 65.905 17.5026C65.5729 17.1702 65.1178 16.9901 64.6491 16.9994H62.7061V22.7886H63.4387ZM63.4388 19.732V17.7099H64.6676C64.9316 17.7099 65.1819 17.8115 65.3685 17.9961C65.7645 18.3839 65.7736 19.0303 65.3913 19.4319C65.2047 19.6304 64.9407 19.7412 64.6676 19.732H63.4388ZM69.4045 19.1367C69.0905 18.8459 68.6628 18.6981 68.1213 18.6981C67.4251 18.6981 66.9018 18.9567 66.5559 19.4691L67.2021 19.88C67.4387 19.5291 67.7618 19.3537 68.1713 19.3537C68.4307 19.3537 68.681 19.4506 68.8767 19.6261C69.0678 19.7923 69.177 20.0323 69.177 20.2863V20.4571C68.8949 20.3001 68.5399 20.217 68.1031 20.217C67.5934 20.217 67.1839 20.337 66.879 20.5817C66.5741 20.8264 66.4194 21.1496 66.4194 21.5604C66.4103 21.9344 66.5696 22.2899 66.8517 22.5299C67.1384 22.7885 67.5024 22.9177 67.9302 22.9177C68.4353 22.9177 68.8357 22.6915 69.1406 22.2391H69.1724V22.7885H69.8732V20.3463C69.8732 19.8338 69.7185 19.4276 69.4045 19.1367ZM67.4162 22.059C67.266 21.9482 67.175 21.7682 67.175 21.5743C67.175 21.3573 67.2751 21.1773 67.4708 21.0342C67.6711 20.891 67.9214 20.8172 68.2172 20.8172C68.6268 20.8126 68.9454 20.9049 69.1729 21.0896C69.1729 21.4035 69.0501 21.6759 68.8089 21.9067C68.5904 22.1283 68.2946 22.2529 67.9851 22.2529C67.7803 22.2576 67.58 22.1883 67.4162 22.059ZM71.4475 24.5289L73.8956 18.8274H73.0993L71.9662 21.6712H71.9526L70.7922 18.8274H69.9959L71.6022 22.5345L70.6921 24.5289H71.4475Z" fill="#3C4043"/>
<path d="M60.9095 19.9353C60.9095 19.709 60.8913 19.4828 60.8549 19.2612H57.7651V20.54H59.5353C59.4625 20.9509 59.2258 21.3202 58.88 21.5511V22.3821H59.9357C60.5546 21.805 60.9095 20.9509 60.9095 19.9353Z" fill="#4285F4"/>
<path d="M57.7653 23.1854C58.6481 23.1854 59.3944 22.8899 59.9359 22.3821L58.8802 21.5511C58.5844 21.7543 58.2067 21.8697 57.7653 21.8697C56.9098 21.8697 56.1863 21.2834 55.9269 20.4985H54.8394V21.3572C55.3945 22.4791 56.5276 23.1854 57.7653 23.1854Z" fill="#34A853"/>
<path d="M55.9271 20.4984C55.7906 20.0875 55.7906 19.6397 55.9271 19.2242V18.3701H54.8394C54.3706 19.3073 54.3706 20.4153 54.8394 21.3525L55.9271 20.4984Z" fill="#FBBC04"/>
<path d="M57.7653 17.853C58.234 17.8438 58.6845 18.0239 59.0212 18.3516L59.9586 17.4006C59.3625 16.8374 58.5798 16.5281 57.7653 16.5373C56.5276 16.5373 55.3945 17.2483 54.8394 18.3701L55.9269 19.2288C56.1863 18.4394 56.9098 17.853 57.7653 17.853Z" fill="#EA4335"/>
<rect x="81.271" y="10.9429" width="26.3951" height="17.8555" rx="2.71714" fill="white" stroke="#D9D9D9" stroke-width="0.776325"/>
<path fill-rule="evenodd" clip-rule="evenodd" d="M95.482 16.8753L94.1018 17.1715V16.0525L95.482 15.7617V16.8753ZM89.873 16.3982L88.5312 16.6834L88.5257 21.0773C88.5257 21.8892 89.1361 22.4871 89.95 22.4871C90.4009 22.4871 90.7308 22.4048 90.9123 22.3061V21.1925C90.7363 21.2638 89.8675 21.5162 89.8675 20.7043V18.757H90.9123V17.5885H89.8675L89.873 16.3982ZM86.6233 18.6855C86.3319 18.6855 86.1559 18.7678 86.1559 18.9818C86.1559 19.2153 86.4587 19.3181 86.8344 19.4456C87.4469 19.6534 88.2531 19.9269 88.2565 20.9401C88.2565 21.922 87.4702 22.487 86.3264 22.487C85.8534 22.487 85.3365 22.3938 84.8251 22.1744V20.8688C85.2871 21.1211 85.8699 21.3076 86.3264 21.3076C86.6343 21.3076 86.8543 21.2254 86.8543 20.973C86.8543 20.7143 86.526 20.596 86.1296 20.4532C85.5261 20.2358 84.7646 19.9615 84.7646 19.0476C84.7646 18.0767 85.507 17.4952 86.6233 17.4952C87.0797 17.4952 87.5306 17.5665 87.9871 17.7475V19.0366C87.5691 18.8117 87.0412 18.6855 86.6233 18.6855ZM102.576 17.4952C103.879 17.4952 104.561 18.6033 104.561 20.0076C104.561 20.0834 104.557 20.2101 104.554 20.3176V20.3177V20.3177V20.3177C104.552 20.3969 104.55 20.4655 104.55 20.4958H101.861C101.921 21.1431 102.394 21.3296 102.928 21.3296C103.472 21.3296 103.901 21.2144 104.275 21.0279V22.125C103.901 22.3334 103.406 22.4815 102.752 22.4815C101.41 22.4815 100.475 21.6477 100.475 19.9966C100.475 18.6033 101.267 17.4952 102.576 17.4952ZM102.57 18.6086C102.224 18.6086 101.844 18.8665 101.844 19.4863H103.263C103.263 18.8665 102.906 18.6086 102.57 18.6086ZM92.6229 17.9942L92.5349 17.5883H91.3471V22.3881H92.7219V19.1352C93.0463 18.7128 93.5962 18.7896 93.7667 18.8499V17.5883C93.5907 17.5224 92.9473 17.4018 92.6229 17.9942ZM94.1018 17.5884H95.482V22.3883H94.1018V17.5884ZM98.3524 17.4952C97.8135 17.4952 97.467 17.7475 97.2746 17.9231L97.2031 17.583H95.9933V23.9791L97.3681 23.6884L97.3736 22.136C97.5715 22.2786 97.863 22.4815 98.3469 22.4815C99.3312 22.4815 100.228 21.6916 100.228 19.9527C100.222 18.3619 99.3147 17.4952 98.3524 17.4952ZM98.0225 21.2746C97.6981 21.2746 97.5056 21.1594 97.3736 21.0168L97.3681 18.9817C97.5111 18.8226 97.7091 18.7129 98.0225 18.7129C98.5229 18.7129 98.8693 19.2724 98.8693 19.991C98.8693 20.7261 98.5284 21.2746 98.0225 21.2746Z" fill="#6461FC"/>
</g>
<rect x="5.96726" y="32.6811" width="26.3951" height="17.8555" rx="2.71714" fill="white" stroke="#D9D9D9" stroke-width="0.776325"/>
<path fill-rule="evenodd" clip-rule="evenodd" d="M12.0586 39.2277C12.4235 39.2584 12.7885 39.043 13.0165 38.7698C13.2408 38.4889 13.389 38.1118 13.351 37.7271C13.0279 37.7424 12.6288 37.9425 12.4007 38.2234C12.1917 38.4658 12.013 38.8583 12.0586 39.2277ZM16.3993 44.1835V38.185H18.623C19.7709 38.185 20.5729 38.9853 20.5729 40.155C20.5729 41.3247 19.7557 42.1327 18.5926 42.1327H17.3192V44.1835H16.3993ZM13.3472 39.3007C13.0257 39.2819 12.7324 39.3985 12.4955 39.4927C12.343 39.5533 12.2139 39.6046 12.1157 39.6046C12.0054 39.6046 11.871 39.5506 11.72 39.4899C11.5222 39.4103 11.2961 39.3194 11.059 39.3237C10.5154 39.3314 10.0099 39.6431 9.73239 40.1395C9.16222 41.1322 9.58414 42.602 10.1353 43.41C10.4052 43.8102 10.7283 44.2488 11.154 44.2334C11.3413 44.2262 11.476 44.1684 11.6154 44.1085C11.776 44.0395 11.9427 43.9679 12.2031 43.9679C12.4544 43.9679 12.6139 44.0377 12.767 44.1046C12.9125 44.1683 13.0523 44.2295 13.2598 44.2257C13.7007 44.218 13.9782 43.8255 14.2481 43.4254C14.5393 42.9959 14.6673 42.5768 14.6867 42.5131L14.689 42.5058C14.6885 42.5053 14.6849 42.5036 14.6786 42.5007C14.5812 42.4556 13.8371 42.1107 13.83 41.186C13.8228 40.4099 14.4202 40.0166 14.5142 39.9547C14.52 39.9509 14.5238 39.9484 14.5256 39.9471C14.1455 39.3776 13.5525 39.316 13.3472 39.3007ZM22.2531 44.2296C22.8308 44.2296 23.3668 43.9334 23.6101 43.4639H23.6291V44.1835H24.4805V41.1976C24.4805 40.3319 23.7963 39.774 22.7434 39.774C21.7665 39.774 21.0443 40.3396 21.0177 41.1168H21.8463C21.9148 40.7475 22.2531 40.5051 22.7168 40.5051C23.2794 40.5051 23.5948 40.7706 23.5948 41.2592V41.5901L22.4469 41.6594C21.3788 41.7248 20.801 42.1673 20.801 42.9368C20.801 43.714 21.3978 44.2296 22.2531 44.2296ZM22.5003 43.518C22.01 43.518 21.6983 43.2794 21.6983 42.9139C21.6983 42.5368 21.9986 42.3175 22.5725 42.2829L23.595 42.2175V42.5561C23.595 43.1178 23.1237 43.518 22.5003 43.518ZM27.305 44.4181C26.9363 45.4685 26.5144 45.8148 25.6173 45.8148C25.5489 45.8148 25.3208 45.8071 25.2676 45.7917V45.0722C25.3246 45.0799 25.4653 45.0876 25.5375 45.0876C25.9442 45.0876 26.1723 44.9144 26.3129 44.4642L26.3965 44.1988L24.8381 39.8316H25.7998L26.8831 43.3753H26.9021L27.9854 39.8316H28.9205L27.305 44.4181ZM17.3193 38.97H18.3798C19.1781 38.97 19.6342 39.4009 19.6342 40.1589C19.6342 40.9169 19.1781 41.3517 18.376 41.3517H17.3193V38.97Z" fill="black"/>
<rect x="96.7973" y="32.6811" width="26.3951" height="17.8555" rx="2.71714" fill="white" stroke="#D9D9D9" stroke-width="0.776325"/>
<path d="M112.009 41.7076C112.009 44.6673 109.638 47.0666 106.712 47.0666C103.786 47.0666 101.415 44.6673 101.415 41.7076C101.415 38.7479 103.786 36.3486 106.712 36.3486C109.638 36.3486 112.009 38.7479 112.009 41.7076Z" fill="#ED0006"/>
<path d="M118.882 41.7076C118.882 44.6673 116.51 47.0666 113.584 47.0666C110.658 47.0666 108.287 44.6673 108.287 41.7076C108.287 38.7479 110.658 36.3486 113.584 36.3486C116.51 36.3486 118.882 38.7479 118.882 41.7076Z" fill="#0099DF"/>
<path fill-rule="evenodd" clip-rule="evenodd" d="M110.148 45.7864C111.287 44.8035 112.009 43.3409 112.009 41.7077C112.009 40.0744 111.287 38.6118 110.148 37.6289C109.009 38.6118 108.287 40.0744 108.287 41.7077C108.287 43.3409 109.009 44.8035 110.148 45.7864Z" fill="#6C6BBD"/>
<g opacity="0.3">
<rect x="20.7173" y="54.4175" width="26.3951" height="17.8555" rx="2.71714" fill="white" stroke="#D9D9D9" stroke-width="0.776325"/>
<path d="M35.1141 69.1673C38.1398 69.1819 40.9016 66.677 40.9016 63.6298C40.9016 60.2978 38.1398 57.9944 35.1141 57.9956H32.51C29.4482 57.9944 26.9277 60.2984 26.9277 63.6298C26.9277 66.6776 29.4482 69.1819 32.51 69.1673H35.1141Z" fill="#0079BE"/>
<path d="M32.5222 58.4575C29.724 58.4585 27.457 60.747 27.4561 63.5715C27.457 66.3958 29.724 68.6843 32.5222 68.6852C35.3206 68.6843 37.5886 66.3958 37.5889 63.5715C37.5886 60.747 35.3209 58.4585 32.5222 58.4575ZM29.3111 63.5715C29.3105 62.9184 29.507 62.2804 29.8747 61.7408C30.2425 61.2011 30.7646 60.785 31.3726 60.5467V66.596C30.7645 66.3579 30.2424 65.9419 29.8746 65.4022C29.5068 64.8626 29.3104 64.2246 29.3111 63.5715ZM33.6714 66.5972V60.5464C34.2799 60.7843 34.8024 61.2004 35.1704 61.7402C35.5385 62.2801 35.735 62.9185 35.7341 63.5718C35.7349 64.2252 35.5383 64.8635 35.1703 65.4033C34.8022 65.9431 34.2798 66.3592 33.6714 66.5972Z" fill="white"/>
<path d="M35.1141 69.1673C38.1398 69.1819 40.9016 66.677 40.9016 63.6298C40.9016 60.2978 38.1398 57.9944 35.1141 57.9956H32.51C29.4482 57.9944 26.9277 60.2984 26.9277 63.6298C26.9277 66.6776 29.4482 69.1819 32.51 69.1673H35.1141Z" fill="#0079BE"/>
<path d="M32.5222 58.4575C29.724 58.4585 27.457 60.747 27.4561 63.5715C27.457 66.3958 29.724 68.6843 32.5222 68.6852C35.3206 68.6843 37.5886 66.3958 37.5889 63.5715C37.5886 60.747 35.3209 58.4585 32.5222 58.4575ZM29.3111 63.5715C29.3105 62.9184 29.507 62.2804 29.8747 61.7408C30.2425 61.2011 30.7646 60.785 31.3726 60.5467V66.596C30.7645 66.3579 30.2424 65.9419 29.8746 65.4022C29.5068 64.8626 29.3104 64.2246 29.3111 63.5715ZM33.6714 66.5972V60.5464C34.2799 60.7843 34.8024 61.2004 35.1704 61.7402C35.5385 62.2801 35.735 62.9185 35.7341 63.5718C35.7349 64.2252 35.5383 64.8635 35.1703 65.4033C34.8022 65.9431 34.2798 66.3592 33.6714 66.5972Z" fill="white"/>
<rect x="50.9941" y="54.4175" width="26.3951" height="17.8555" rx="2.71714" fill="#1F72CD" stroke="#D9D9D9" stroke-width="0.776325"/>
<path fill-rule="evenodd" clip-rule="evenodd" d="M55.7928 60.6279L53.3232 66.2538H56.2797L56.6462 65.3568H57.4839L57.8505 66.2538H61.1047V65.5691L61.3946 66.2538H63.0779L63.3679 65.5547V66.2538H70.1358L70.9587 65.3801L71.7293 66.2538L75.2054 66.261L72.728 63.4565L75.2054 60.6279H71.7832L70.9821 61.4855L70.2358 60.6279H62.8733L62.241 62.08L61.594 60.6279H58.6437V61.2892L58.3155 60.6279H55.7928ZM65.899 61.4267H69.7854L70.974 62.7485L72.201 61.4267H73.3897L71.5836 63.4557L73.3897 65.4613H72.1471L70.9584 64.1242L69.7252 65.4613H65.899V61.4267ZM66.8587 62.9998V62.2629V62.2622H69.2838L70.3419 63.4408L69.2369 64.6257H66.8587V63.8212H68.979V62.9998H66.8587ZM56.3646 61.4267H57.8057L59.4438 65.2417V61.4267H61.0224L62.2877 64.162L63.4537 61.4267H65.0245V65.4637H64.0687L64.0609 62.3004L62.6675 65.4637H61.8125L60.4112 62.3004V65.4637H58.445L58.0722 64.5586H56.0583L55.6863 65.4629H54.6328L56.3646 61.4267ZM56.4022 63.722L57.0657 62.1098L57.7285 63.722H56.4022Z" fill="white"/>
<rect x="81.271" y="54.4175" width="26.3951" height="17.8555" rx="2.71714" fill="white" stroke="#D9D9D9" stroke-width="0.776325"/>
<path d="M92.5278 71.8848L107.278 67.4209V69.5558C107.278 70.842 106.235 71.8848 104.949 71.8848H92.5278Z" fill="#FD6020"/>
<path fill-rule="evenodd" clip-rule="evenodd" d="M104.478 61.1022C105.29 61.1022 105.736 61.4775 105.736 62.1866C105.777 62.7288 105.411 63.1876 104.925 63.2711L106.02 64.8143H105.168L104.235 63.3128H104.154V64.8143H103.464V61.1022H104.478ZM104.154 62.8123H104.356C104.803 62.8123 105.006 62.6038 105.006 62.2284C105.006 61.8947 104.803 61.6861 104.356 61.6861H104.154V62.8123ZM101.07 64.8143H103.018V64.1887H101.76V63.1876H102.977V62.562H101.76V61.7278H103.018V61.1022H101.07V64.8143ZM99.0415 63.6047L98.1083 61.1022H97.378L98.8792 64.8977H99.2444L100.746 61.1022H100.015L99.0415 63.6047ZM90.8046 62.9793C90.8046 64.022 91.6161 64.8979 92.6305 64.8979C92.9551 64.8979 93.2391 64.8145 93.5231 64.6894V63.8552C93.3202 64.1054 93.0362 64.2723 92.7116 64.2723C92.0624 64.2723 91.535 63.7718 91.535 63.1044V63.021C91.4944 62.3536 92.0219 61.7697 92.6711 61.728C92.9956 61.728 93.3202 61.8948 93.5231 62.1451V61.3109C93.2797 61.1441 92.9551 61.1024 92.6711 61.1024C91.6161 61.0189 90.8046 61.8948 90.8046 62.9793ZM89.547 62.5203C89.1413 62.3535 89.0195 62.27 89.0195 62.0615C89.0601 61.8112 89.263 61.6027 89.5064 61.6444C89.7093 61.6444 89.9122 61.7695 90.0745 61.9364L90.4396 61.4358C90.1556 61.1856 89.7904 61.0187 89.4253 61.0187C88.8572 60.977 88.3703 61.4358 88.3298 62.0198V62.0615C88.3298 62.562 88.5326 62.854 89.1818 63.0625C89.3441 63.1042 89.5064 63.1876 89.6687 63.2711C89.7904 63.3545 89.8716 63.4796 89.8716 63.6465C89.8716 63.9384 89.6282 64.1887 89.3847 64.1887H89.3441C89.0195 64.1887 88.7355 63.9801 88.6138 63.6882L88.1675 64.147C88.4109 64.6058 88.8978 64.856 89.3847 64.856C90.0339 64.8977 90.5614 64.3972 90.6019 63.7299V63.6047C90.5614 63.1042 90.3585 62.854 89.547 62.5203ZM87.1937 64.8143H87.8834V61.1022H87.1937V64.8143ZM83.9883 61.1022H85.0026H85.2055C86.1793 61.1439 86.9502 61.9781 86.9096 62.9791C86.9096 63.5213 86.6662 64.0218 86.2604 64.3972C85.8953 64.6892 85.449 64.856 85.0026 64.8143H83.9883V61.1022ZM84.8809 64.1887C85.2055 64.2304 85.5706 64.1053 85.8141 63.8968C86.0575 63.6465 86.1793 63.3128 86.1793 62.9374C86.1793 62.6038 86.0575 62.2701 85.8141 62.0198C85.5706 61.8113 85.2055 61.6862 84.8809 61.7279H84.678V64.1887H84.8809Z" fill="black"/>
<path fill-rule="evenodd" clip-rule="evenodd" d="M95.5925 61.0161C94.5781 61.0161 93.7261 61.8503 93.7261 62.9348C93.7261 63.9775 94.5376 64.8534 95.5925 64.8951C96.6474 64.9368 97.4589 64.0609 97.4995 62.9765C97.4589 61.892 96.6474 61.0161 95.5925 61.0161V61.0161Z" fill="#FD6020"/>
</g>
<rect x="4.75" y="9" width="67" height="64" fill="url(#paint0_linear_981_50346)"/>
<rect x="59.75" y="9" width="65" height="64" fill="url(#paint1_linear_981_50346)"/>
<rect opacity="0.7" x="119.486" y="46.9023" width="29.0589" height="109.918" transform="rotate(90 119.486 46.9023)" fill="url(#paint2_linear_981_50346)"/>
<rect opacity="0.7" x="9.87793" y="29" width="20" height="110" transform="rotate(-90 9.87793 29)" fill="url(#paint3_linear_981_50346)"/>
<g filter="url(#filter0_dd_981_50346)">
<rect x="24.1128" y="28.5669" width="38.5494" height="26.0775" rx="3.96832" fill="white" stroke="#D9D9D9" stroke-width="1.13381"/>
<path fill-rule="evenodd" clip-rule="evenodd" d="M35.5928 46.4334H33.1888L31.386 39.5559C31.3005 39.2396 31.1188 38.9599 30.8515 38.8281C30.1846 38.4968 29.4497 38.2332 28.6479 38.1002V37.8354H32.5207C33.0551 37.8354 33.456 38.2332 33.5228 38.6951L34.4582 43.6561L36.861 37.8354H39.1983L35.5928 46.4334ZM40.5347 46.4334H38.2643L40.1338 37.8354H42.4042L40.5347 46.4334ZM45.3416 40.2174C45.4084 39.7543 45.8093 39.4896 46.277 39.4896C47.0119 39.4231 47.8124 39.556 48.4806 39.8862L48.8814 38.035C48.2133 37.7702 47.4784 37.6372 46.8114 37.6372C44.6078 37.6372 43.0044 38.8282 43.0044 40.4811C43.0044 41.7385 44.1402 42.3987 44.9419 42.7965C45.8093 43.1931 46.1433 43.4579 46.0765 43.8545C46.0765 44.4494 45.4084 44.7142 44.7415 44.7142C43.9397 44.7142 43.138 44.5159 42.4042 44.1846L42.0034 46.037C42.8051 46.3671 43.6725 46.5 44.4742 46.5C46.9451 46.5654 48.4806 45.3756 48.4806 43.5897C48.4806 41.3408 45.3416 41.2089 45.3416 40.2174ZM56.4264 46.4334L54.6236 37.8354H52.6873C52.2864 37.8354 51.8855 38.1002 51.7519 38.4968L48.4137 46.4334H50.7509L51.2174 45.1772H54.0891L54.3564 46.4334H56.4264ZM53.021 40.1512L53.688 43.3916H51.8184L53.021 40.1512Z" fill="#172B85"/>
</g>
<g filter="url(#filter1_dd_981_50346)">
<rect x="66.7705" y="28.5669" width="38.5494" height="26.0775" rx="3.96832" fill="white" stroke="#D9D9D9" stroke-width="1.13381"/>
<path fill-rule="evenodd" clip-rule="evenodd" d="M86.3286 47.4525C84.9776 48.6184 83.2251 49.3222 81.3101 49.3222C77.0371 49.3222 73.5732 45.8181 73.5732 41.4956C73.5732 37.1731 77.0371 33.6689 81.3101 33.6689C83.2251 33.6689 84.9777 34.3728 86.3287 35.5388C87.6797 34.3729 89.4322 33.669 91.3472 33.669C95.6202 33.669 99.0841 37.1731 99.0841 41.4957C99.0841 45.8182 95.6202 49.3223 91.3472 49.3223C89.4322 49.3223 87.6796 48.6184 86.3286 47.4525Z" fill="#ED0006"/>
<path fill-rule="evenodd" clip-rule="evenodd" d="M86.3286 47.4525C87.9921 46.017 89.0469 43.8809 89.0469 41.4956C89.0469 39.1103 87.9921 36.9742 86.3286 35.5387C87.6796 34.3728 89.4321 33.6689 91.3471 33.6689C95.6201 33.6689 99.084 37.1731 99.084 41.4956C99.084 45.8181 95.6201 49.3222 91.3471 49.3222C89.4321 49.3222 87.6796 48.6184 86.3286 47.4525Z" fill="#F9A000"/>
<path fill-rule="evenodd" clip-rule="evenodd" d="M86.3287 47.4524C87.9921 46.0169 89.0469 43.8808 89.0469 41.4955C89.0469 39.1102 87.9921 36.9741 86.3287 35.5386C84.6652 36.9741 83.6104 39.1102 83.6104 41.4955C83.6104 43.8808 84.6652 46.0169 86.3287 47.4524Z" fill="#FF5E00"/>
</g>
</g>
<path d="M156.75 33.1878L187.25 33.1878V41.1878L156.75 41.1878V49.3122L143.25 37.1878L156.75 25.0635V33.1878Z" fill="url(#paint4_linear_981_50346)"/>
<path d="M189.75 51.8122L159.25 51.8122L159.25 43.8122L189.75 43.8122L189.75 35.6878L203.25 47.8122L189.75 59.9365L189.75 51.8122Z" fill="url(#paint5_linear_981_50346)"/>
<g clip-path="url(#clip1_981_50346)">
<g opacity="0.6">
<path d="M263.944 72C266.153 72 267.944 70.2091 267.944 68C267.944 65.7909 266.153 64 263.944 64C261.735 64 259.944 65.7909 259.944 68C259.944 70.2091 261.735 72 263.944 72Z" fill="#ECB244"/>
<path d="M263.748 68.8335H265.113V69.5593H264.273C264.287 69.7669 264.294 69.9595 264.308 70.1668H263.601V69.5667H262.762C262.762 69.3298 262.734 69.0928 262.776 68.8705C262.797 68.752 262.923 68.6482 262.999 68.5446C263.266 68.2121 263.534 67.8812 263.804 67.5521C263.909 67.426 264.014 67.3075 264.133 67.1669H262.824V66.441H263.601V65.8335H264.28V66.4261H265.127C265.127 66.6705 265.155 66.9075 265.113 67.1298C265.092 67.2483 264.966 67.3521 264.882 67.4557C264.616 67.7882 264.347 68.1191 264.077 68.4482C263.972 68.5801 263.862 68.7085 263.748 68.8335Z" fill="white"/>
</g>
<g opacity="0.3">
<path d="M295.364 25C298.126 25 300.364 22.7614 300.364 20C300.364 17.2386 298.126 15 295.364 15C292.603 15 290.364 17.2386 290.364 20C290.364 22.7614 292.603 25 295.364 25Z" fill="#FF0420"/>
<path fill-rule="evenodd" clip-rule="evenodd" d="M293.174 21.118C293.364 21.258 293.608 21.328 293.906 21.328C294.266 21.328 294.554 21.246 294.768 21.078C294.984 20.908 295.134 20.65 295.222 20.308C295.276 20.098 295.32 19.88 295.358 19.658C295.37 19.578 295.376 19.512 295.376 19.46C295.376 19.286 295.332 19.136 295.244 19.01C295.156 18.882 295.036 18.786 294.884 18.724C294.732 18.658 294.558 18.626 294.366 18.626C293.658 18.626 293.218 18.97 293.048 19.658C292.988 19.912 292.942 20.128 292.91 20.308C292.898 20.388 292.892 20.454 292.892 20.51C292.892 20.772 292.986 20.976 293.174 21.118ZM294.316 20.664C294.218 20.746 294.1 20.788 293.96 20.788C293.72 20.788 293.598 20.674 293.6 20.442C293.6 20.386 293.606 20.334 293.616 20.284C293.662 20.04 293.706 19.836 293.752 19.668C293.794 19.496 293.864 19.37 293.962 19.288C294.062 19.206 294.182 19.164 294.322 19.164C294.56 19.164 294.678 19.278 294.678 19.506C294.678 19.562 294.672 19.616 294.662 19.668C294.632 19.844 294.588 20.048 294.53 20.284C294.488 20.456 294.416 20.582 294.316 20.664ZM295.378 21.3519C295.394 21.3699 295.414 21.3779 295.442 21.3779H295.952C295.978 21.3779 296.002 21.3699 296.024 21.3519C296.048 21.3339 296.06 21.3119 296.066 21.2839L296.238 20.4619H296.744C297.072 20.4619 297.33 20.3939 297.518 20.2559C297.71 20.1179 297.836 19.9059 297.898 19.6179C297.912 19.5499 297.92 19.4839 297.92 19.4219C297.92 19.2039 297.834 19.0379 297.664 18.9219C297.496 18.8079 297.274 18.7499 296.996 18.7499H295.998C295.972 18.7499 295.948 18.7579 295.926 18.7759C295.902 18.7939 295.888 18.8159 295.884 18.8439L295.366 21.2839C295.362 21.3099 295.366 21.3319 295.378 21.3519ZM297.044 19.8579C296.966 19.9159 296.876 19.9439 296.77 19.9439H296.34L296.482 19.2719H296.932C297.034 19.2719 297.108 19.2919 297.15 19.3319C297.192 19.3699 297.214 19.4259 297.214 19.4979C297.214 19.5299 297.21 19.5679 297.202 19.6099C297.176 19.7179 297.124 19.7999 297.044 19.8579Z" fill="white"/>
</g>
<g opacity="0.3">
<g filter="url(#filter2_dd_981_50346)">
<path d="M249.671 25C251.055 25 252.409 24.5895 253.56 23.8203C254.711 23.0511 255.608 21.9579 256.138 20.6788C256.668 19.3997 256.807 17.9922 256.536 16.6344C256.266 15.2765 255.6 14.0292 254.621 13.0503C253.642 12.0713 252.394 11.4046 251.037 11.1345C249.679 10.8644 248.271 11.003 246.992 11.5328C245.713 12.0627 244.62 12.9599 243.851 14.111C243.081 15.2622 242.671 16.6155 242.671 18C242.669 18.9199 242.848 19.8312 243.199 20.6815C243.55 21.5318 244.066 22.3043 244.716 22.9548C245.367 23.6053 246.139 24.1208 246.989 24.4718C247.84 24.8228 248.751 25.0023 249.671 25Z" fill="#2775CA"/>
</g>
<path fill-rule="evenodd" clip-rule="evenodd" d="M247.105 19.8667C247.473 20.4173 247.996 20.8365 248.601 21.0678C248.664 21.1118 248.727 21.1993 248.727 21.2652V21.5717C248.727 21.6157 248.727 21.6377 248.706 21.6596C248.702 21.6803 248.693 21.6995 248.68 21.7159C248.667 21.7322 248.651 21.7452 248.633 21.7538C248.614 21.7623 248.594 21.7661 248.574 21.765C248.554 21.7638 248.534 21.7577 248.517 21.7471C247.751 21.4936 247.083 20.9928 246.609 20.3172C246.135 19.6416 245.879 18.8262 245.879 17.9892C245.879 17.1521 246.135 16.3368 246.609 15.6612C247.083 14.9856 247.751 14.4847 248.517 14.2312C248.541 14.2138 248.571 14.206 248.601 14.2092C248.638 14.2175 248.672 14.2399 248.695 14.2722C248.719 14.3044 248.73 14.3444 248.727 14.3847V14.6916C248.731 14.7373 248.72 14.783 248.697 14.8222C248.675 14.8615 248.641 14.8924 248.601 14.9106C247.996 15.1418 247.473 15.5611 247.105 16.1117C246.736 16.6622 246.538 17.3176 246.538 17.9892C246.538 18.6607 246.736 19.3161 247.105 19.8667ZM250.772 14.2134C250.792 14.2145 250.812 14.2206 250.829 14.2312C251.594 14.4883 252.261 14.9916 252.735 15.6689C253.208 16.3461 253.463 17.1623 253.463 18.0002C253.463 18.838 253.208 19.6542 252.735 20.3315C252.261 21.0087 251.594 21.5121 250.829 21.7691C250.805 21.7865 250.775 21.7943 250.745 21.7911C250.707 21.7827 250.674 21.7603 250.651 21.728C250.627 21.6958 250.616 21.6559 250.619 21.6157V21.3087C250.616 21.2631 250.626 21.2174 250.648 21.1782C250.671 21.1389 250.705 21.108 250.745 21.0898C251.35 20.8585 251.872 20.4393 252.241 19.8887C252.61 19.3381 252.808 18.6827 252.808 18.0112C252.808 17.3396 252.61 16.6842 252.241 16.1336C251.872 15.5831 251.35 15.1638 250.745 14.9325C250.71 14.9084 250.68 14.8761 250.658 14.8381C250.636 14.8001 250.623 14.7573 250.619 14.7131V14.4067C250.619 14.3627 250.619 14.3407 250.64 14.3192C250.644 14.2985 250.653 14.2792 250.665 14.2628C250.678 14.2464 250.694 14.2333 250.713 14.2247C250.731 14.2162 250.752 14.2123 250.772 14.2134ZM249.736 17.6275C250.619 17.737 251.06 18.0023 251.06 18.7673L251.059 18.7653C251.059 19.3567 250.638 19.8171 250.007 19.9266V20.4525C249.987 20.562 249.923 20.628 249.839 20.628H249.524C249.419 20.606 249.356 20.54 249.356 20.4525V19.9266C248.662 19.8171 248.326 19.4227 248.241 18.8748V18.8528C248.241 18.8326 248.244 18.8124 248.252 18.7936C248.259 18.7747 248.27 18.7576 248.284 18.7433C248.297 18.729 248.314 18.7177 248.332 18.7101C248.35 18.7026 248.369 18.6989 248.389 18.6994H248.748C248.784 18.6999 248.818 18.7135 248.846 18.7378C248.873 18.7622 248.891 18.7958 248.897 18.8328C248.962 19.1636 249.15 19.4026 249.696 19.4026C250.096 19.4026 250.39 19.1631 250.39 18.8108C250.39 18.4584 250.199 18.3289 249.61 18.2194C248.727 18.1099 248.307 17.825 248.307 17.1016C248.307 16.5537 248.706 16.1177 249.339 16.0278V15.522C249.36 15.4126 249.422 15.3471 249.506 15.3471H249.822C249.927 15.369 249.99 15.4345 249.99 15.522V16.0479C250.221 16.0682 250.439 16.1673 250.61 16.3298C250.781 16.4924 250.895 16.7092 250.936 16.9467V16.9682C250.937 16.9885 250.933 17.0087 250.926 17.0276C250.919 17.0464 250.908 17.0636 250.894 17.0779C250.88 17.0923 250.864 17.1036 250.846 17.1111C250.828 17.1186 250.808 17.1222 250.789 17.1217H250.453C250.42 17.1219 250.389 17.1116 250.362 17.0924C250.335 17.0731 250.315 17.0458 250.304 17.0141C250.199 16.6852 249.988 16.5537 249.61 16.5537C249.189 16.5537 248.979 16.7517 248.979 17.0581C248.979 17.3646 249.105 17.54 249.736 17.6275Z" fill="white"/>
</g>
<g opacity="0.7">
<g filter="url(#filter3_dd_981_50346)">
<path d="M276.944 19C279.706 19 281.944 16.7614 281.944 14C281.944 11.2386 279.706 9 276.944 9C274.183 9 271.944 11.2386 271.944 14C271.944 16.7614 274.183 19 276.944 19Z" fill="#26A17B"/>
</g>
<path fill-rule="evenodd" clip-rule="evenodd" d="M277.453 14.1729V14.1724C277.424 14.1745 277.277 14.1833 276.95 14.1833C276.689 14.1833 276.505 14.1755 276.44 14.1724V14.1732C275.433 14.1289 274.682 13.9537 274.682 13.744C274.682 13.5346 275.433 13.3594 276.44 13.3143V13.9987C276.506 14.0034 276.694 14.0145 276.954 14.0145C277.267 14.0145 277.423 14.0016 277.453 13.999V13.3148C278.457 13.3596 279.206 13.5349 279.206 13.744C279.206 13.9537 278.457 14.1284 277.453 14.1729ZM277.453 13.2437V12.6312H278.854V11.6973H275.038V12.6312H276.44V13.2434C275.301 13.2957 274.444 13.5214 274.444 13.7916C274.444 14.0619 275.301 14.2873 276.44 14.3399V16.3025H277.453V14.3394C278.59 14.2871 279.444 14.0616 279.444 13.7916C279.444 13.5217 278.59 13.2962 277.453 13.2437Z" fill="white"/>
</g>
<g opacity="0.9">
<path d="M245.671 59C247.328 59 248.671 57.6569 248.671 56C248.671 54.3431 247.328 53 245.671 53C244.014 53 242.671 54.3431 242.671 56C242.671 57.6569 244.014 59 245.671 59Z" fill="#42C1CA"/>
<path d="M245.582 55.4843C245.64 55.2412 245.709 55.0226 245.783 54.8799C245.811 54.8118 245.921 54.6486 246.042 54.5408C246.244 54.3611 246.47 54.3155 246.706 54.4635L246.685 54.4963L246.706 54.4635C246.826 54.5389 246.875 54.6166 246.853 54.6897C246.838 54.7441 246.778 54.7877 246.746 54.7832C246.7 54.7878 246.653 54.7785 246.608 54.7455C246.57 54.7165 246.541 54.6777 246.524 54.6334C246.491 54.5556 246.447 54.5291 246.394 54.5353C246.356 54.5397 246.311 54.5643 246.297 54.5808L246.261 54.6212C246.232 54.6515 246.207 54.6846 246.185 54.72C246.111 54.8434 246.043 55.0694 245.948 55.5378L246.576 55.6298L246.542 55.8813L245.904 55.788L245.877 55.9535L245.87 55.9949C245.866 56.0164 245.862 56.0397 245.858 56.0646L246.501 56.1589L246.464 56.4101L245.806 56.3136C245.73 56.6369 245.629 56.9834 245.559 57.1201C245.531 57.1884 245.421 57.3513 245.3 57.4593C245.098 57.6388 244.872 57.6845 244.636 57.5366C244.516 57.4611 244.468 57.3833 244.489 57.3102C244.504 57.2558 244.564 57.2124 244.596 57.2169C244.642 57.2122 244.689 57.2215 244.734 57.2544C244.769 57.2799 244.797 57.3169 244.818 57.3667C244.851 57.4443 244.895 57.4709 244.948 57.4647C244.986 57.4602 245.031 57.4356 245.045 57.4191C245.186 57.262 245.298 56.9593 245.439 56.2601L244.811 56.168L244.846 55.9165L245.483 56.0098L245.51 55.8445C245.517 55.8073 245.523 55.7702 245.53 55.7332L244.889 55.6394L244.926 55.3882L245.582 55.4843Z" fill="white"/>
</g>
<g opacity="0.3">
<g filter="url(#filter4_dd_981_50346)">
<path d="M286.364 68C288.573 68 290.364 66.2092 290.364 64C290.364 61.7908 288.573 60 286.364 60C284.155 60 282.364 61.7908 282.364 64C282.364 66.2092 284.155 68 286.364 68Z" fill="#7950DD"/>
</g>
<path d="M287.468 63.2449C287.388 63.1956 287.284 63.1956 287.196 63.2449L286.572 63.6223L286.149 63.8685L285.525 64.246C285.445 64.2953 285.341 64.2953 285.253 64.246L284.757 63.9506C284.677 63.9014 284.621 63.8111 284.621 63.7126V63.13C284.621 63.0315 284.669 62.9412 284.757 62.892L285.245 62.6048C285.325 62.5556 285.429 62.5556 285.517 62.6048L286.005 62.892C286.085 62.9412 286.141 63.0315 286.141 63.13V63.5075L286.564 63.2531V62.8756C286.564 62.7771 286.516 62.6869 286.428 62.6376L285.525 62.096C285.445 62.0468 285.341 62.0468 285.253 62.096L284.334 62.6376C284.246 62.6869 284.198 62.7771 284.198 62.8756V63.967C284.198 64.0655 284.246 64.1557 284.334 64.205L285.253 64.7466C285.333 64.7958 285.437 64.7958 285.525 64.7466L286.149 64.3773L286.572 64.1229L287.196 63.7536C287.276 63.7044 287.38 63.7044 287.468 63.7536L287.955 64.0409C288.035 64.0901 288.091 64.1804 288.091 64.2788V64.8615C288.091 64.9599 288.043 65.0502 287.955 65.0995L287.468 65.3949C287.388 65.4441 287.284 65.4441 287.196 65.3949L286.708 65.1077C286.628 65.0584 286.572 64.9682 286.572 64.8697V64.4922L286.149 64.7466V65.1241C286.149 65.2225 286.197 65.3128 286.284 65.362L287.204 65.9037C287.284 65.9529 287.388 65.9529 287.476 65.9037L288.395 65.362C288.475 65.3128 288.531 65.2225 288.531 65.1241V64.0327C288.531 63.9342 288.483 63.8439 288.395 63.7947L287.468 63.2449Z" fill="white"/>
</g>
<rect opacity="0.6" x="233.977" y="-11" width="60" height="102" fill="url(#paint6_linear_981_50346)"/>
<g filter="url(#filter5_dd_981_50346)">
<path d="M297.556 52C304.183 52 309.556 46.6274 309.556 40C309.556 33.3726 304.183 28 297.556 28C290.928 28 285.556 33.3726 285.556 40C285.556 46.6274 290.928 52 297.556 52Z" fill="black"/>
</g>
<path d="M302.999 42.7644L301.183 44.6616C301.144 44.7028 301.096 44.7357 301.043 44.7582C300.99 44.7806 300.932 44.7922 300.875 44.7922H292.266C292.225 44.7922 292.185 44.7805 292.151 44.7585C292.117 44.7366 292.09 44.7053 292.073 44.6686C292.057 44.632 292.052 44.5914 292.059 44.552C292.066 44.5125 292.084 44.4759 292.112 44.4467L293.93 42.5495C293.969 42.5084 294.017 42.4756 294.069 42.4531C294.122 42.4307 294.179 42.419 294.237 42.4189H302.845C302.886 42.4189 302.926 42.4306 302.96 42.4526C302.995 42.4745 303.022 42.5058 303.038 42.5425C303.055 42.5792 303.06 42.6197 303.053 42.6591C303.046 42.6986 303.027 42.7352 302.999 42.7644ZM301.183 38.944C301.144 38.9028 301.096 38.8699 301.043 38.8475C300.99 38.825 300.932 38.8134 300.875 38.8135H292.266C292.225 38.8135 292.185 38.8252 292.151 38.8471C292.117 38.8691 292.09 38.9003 292.073 38.937C292.057 38.9737 292.052 39.0142 292.059 39.0537C292.066 39.0931 292.084 39.1297 292.112 39.159L293.93 41.0562C293.969 41.0973 294.017 41.1301 294.069 41.1525C294.122 41.175 294.179 41.1866 294.237 41.1867H302.845C302.886 41.1867 302.926 41.175 302.96 41.1531C302.995 41.1311 303.022 41.0999 303.038 41.0632C303.055 41.0265 303.06 40.9859 303.053 40.9465C303.046 40.9071 303.027 40.8705 302.999 40.8412L301.183 38.944ZM292.266 37.5812H300.875C300.932 37.5813 300.99 37.5697 301.043 37.5472C301.096 37.5248 301.144 37.4919 301.183 37.4507L302.999 35.5535C303.027 35.5242 303.046 35.4876 303.053 35.4482C303.06 35.4088 303.055 35.3682 303.038 35.3315C303.022 35.2948 302.995 35.2636 302.96 35.2416C302.926 35.2197 302.886 35.208 302.845 35.208H294.237C294.179 35.2081 294.122 35.2197 294.069 35.2422C294.017 35.2646 293.969 35.2974 293.93 35.3385L292.113 37.2357C292.085 37.265 292.066 37.3015 292.059 37.3409C292.052 37.3803 292.057 37.4208 292.074 37.4575C292.09 37.4942 292.117 37.5254 292.151 37.5474C292.185 37.5694 292.225 37.5811 292.266 37.5812Z" fill="#66FFF6"/>
<g filter="url(#filter6_dd_981_50346)">
<path d="M241.556 52C248.183 52 253.556 46.6274 253.556 40C253.556 33.3726 248.183 28 241.556 28C234.928 28 229.556 33.3726 229.556 40C229.556 46.6274 234.928 52 241.556 52Z" fill="#5472E8"/>
</g>
<path d="M241.555 33.5V38.3055L245.887 40.1205L241.555 33.5Z" fill="#C1CCF8"/>
<path d="M241.554 33.5L237.221 40.1205L241.554 38.3055V33.5Z" fill="white"/>
<path d="M241.555 43.2348V46.5L245.89 40.877L241.555 43.2348Z" fill="#C1CCF8"/>
<path d="M241.554 46.5V43.2342L237.221 40.877L241.554 46.5Z" fill="white"/>
<path d="M241.555 42.4789L245.887 40.1205L241.555 38.3066V42.4789Z" fill="#8BA1F6"/>
<path d="M237.221 40.1205L241.554 42.4789V38.3066L237.221 40.1205Z" fill="#C1CCF8"/>
<g filter="url(#filter7_dd_981_50346)">
<path d="M289.387 40C289.387 43.9556 288.214 47.8224 286.017 51.1114C283.819 54.4004 280.695 56.9638 277.041 58.4776C273.386 59.9913 269.365 60.3874 265.485 59.6157C261.606 58.844 258.042 56.9392 255.245 54.1421C252.448 51.3451 250.543 47.7814 249.772 43.9018C249 40.0222 249.396 36.0009 250.91 32.3463C252.423 28.6918 254.987 25.5682 258.276 23.3706C261.565 21.173 265.432 20 269.387 20C274.692 20 279.779 22.1071 283.529 25.8579C287.28 29.6086 289.387 34.6957 289.387 40Z" fill="#F7931A"/>
</g>
<path fill-rule="evenodd" clip-rule="evenodd" d="M264.721 31.2567L268.418 32.2469L269.245 29.1665L271.094 29.6682L270.299 32.6214L271.807 33.0265L272.603 30.0412L274.484 30.5443L273.674 33.5458C273.674 33.5458 276.746 34.2259 277.468 36.7242C278.191 39.2224 275.88 40.5344 275.166 40.5842C275.166 40.5842 277.857 42.06 276.933 44.9634C276.008 47.8669 273.171 48.3861 270.185 47.7206L269.375 50.8332L267.494 50.33L268.32 47.2657L266.829 46.8591L266.002 49.9453L264.136 49.4436L264.964 46.372L261.168 45.3481L262.125 43.2243C262.125 43.2243 263.195 43.5168 263.6 43.6134C264.006 43.7099 264.266 43.2887 264.38 42.8674C264.494 42.4462 266.213 35.4648 266.375 34.89C266.537 34.3151 266.472 33.8661 265.79 33.6891C265.108 33.5121 264.181 33.2357 264.181 33.2357L264.721 31.2567ZM268.451 40.5023L267.427 44.5729C267.427 44.5729 272.504 46.4056 273.153 43.8269C273.803 41.2482 268.451 40.5023 268.451 40.5023ZM268.922 38.5715L269.926 34.8417C269.926 34.8417 274.274 35.6198 273.738 37.6954C273.203 39.7709 270.64 38.9752 268.922 38.5715Z" fill="white"/>
</g>
<defs>
<filter id="filter0_dd_981_50346" x="16.5459" y="25" width="53.6831" height="41.2114" filterUnits="userSpaceOnUse" color-interpolation-filters="sRGB">
<feFlood flood-opacity="0" result="BackgroundImageFix"/>
<feColorMatrix in="SourceAlpha" type="matrix" values="0 0 0 0 0 0 0 0 0 0 0 0 0 0 0 0 0 0 127 0" result="hardAlpha"/>
<feMorphology radius="1" operator="erode" in="SourceAlpha" result="effect1_dropShadow_981_50346"/>
<feOffset dy="4"/>
<feGaussianBlur stdDeviation="4"/>
<feComposite in2="hardAlpha" operator="out"/>
<feColorMatrix type="matrix" values="0 0 0 0 0 0 0 0 0 0 0 0 0 0 0 0 0 0 0.1 0"/>
<feBlend mode="normal" in2="BackgroundImageFix" result="effect1_dropShadow_981_50346"/>
<feColorMatrix in="SourceAlpha" type="matrix" values="0 0 0 0 0 0 0 0 0 0 0 0 0 0 0 0 0 0 127 0" result="hardAlpha"/>
<feOffset dy="1"/>
<feComposite in2="hardAlpha" operator="out"/>
<feColorMatrix type="matrix" values="0 0 0 0 0 0 0 0 0 0 0 0 0 0 0 0 0 0 0.05 0"/>
<feBlend mode="normal" in2="effect1_dropShadow_981_50346" result="effect2_dropShadow_981_50346"/>
<feBlend mode="normal" in="SourceGraphic" in2="effect2_dropShadow_981_50346" result="shape"/>
</filter>
<filter id="filter1_dd_981_50346" x="59.2036" y="25" width="53.6831" height="41.2114" filterUnits="userSpaceOnUse" color-interpolation-filters="sRGB">
<feFlood flood-opacity="0" result="BackgroundImageFix"/>
<feColorMatrix in="SourceAlpha" type="matrix" values="0 0 0 0 0 0 0 0 0 0 0 0 0 0 0 0 0 0 127 0" result="hardAlpha"/>
<feMorphology radius="1" operator="erode" in="SourceAlpha" result="effect1_dropShadow_981_50346"/>
<feOffset dy="4"/>
<feGaussianBlur stdDeviation="4"/>
<feComposite in2="hardAlpha" operator="out"/>
<feColorMatrix type="matrix" values="0 0 0 0 0 0 0 0 0 0 0 0 0 0 0 0 0 0 0.1 0"/>
<feBlend mode="normal" in2="BackgroundImageFix" result="effect1_dropShadow_981_50346"/>
<feColorMatrix in="SourceAlpha" type="matrix" values="0 0 0 0 0 0 0 0 0 0 0 0 0 0 0 0 0 0 127 0" result="hardAlpha"/>
<feOffset dy="1"/>
<feComposite in2="hardAlpha" operator="out"/>
<feColorMatrix type="matrix" values="0 0 0 0 0 0 0 0 0 0 0 0 0 0 0 0 0 0 0.05 0"/>
<feBlend mode="normal" in2="effect1_dropShadow_981_50346" result="effect2_dropShadow_981_50346"/>
<feBlend mode="normal" in="SourceGraphic" in2="effect2_dropShadow_981_50346" result="shape"/>
</filter>
<filter id="filter2_dd_981_50346" x="235.671" y="8" width="28" height="28" filterUnits="userSpaceOnUse" color-interpolation-filters="sRGB">
<feFlood flood-opacity="0" result="BackgroundImageFix"/>
<feColorMatrix in="SourceAlpha" type="matrix" values="0 0 0 0 0 0 0 0 0 0 0 0 0 0 0 0 0 0 127 0" result="hardAlpha"/>
<feMorphology radius="1" operator="erode" in="SourceAlpha" result="effect1_dropShadow_981_50346"/>
<feOffset dy="4"/>
<feGaussianBlur stdDeviation="4"/>
<feComposite in2="hardAlpha" operator="out"/>
<feColorMatrix type="matrix" values="0 0 0 0 0 0 0 0 0 0 0 0 0 0 0 0 0 0 0.1 0"/>
<feBlend mode="normal" in2="BackgroundImageFix" result="effect1_dropShadow_981_50346"/>
<feColorMatrix in="SourceAlpha" type="matrix" values="0 0 0 0 0 0 0 0 0 0 0 0 0 0 0 0 0 0 127 0" result="hardAlpha"/>
<feOffset dy="1"/>
<feComposite in2="hardAlpha" operator="out"/>
<feColorMatrix type="matrix" values="0 0 0 0 0 0 0 0 0 0 0 0 0 0 0 0 0 0 0.05 0"/>
<feBlend mode="normal" in2="effect1_dropShadow_981_50346" result="effect2_dropShadow_981_50346"/>
<feBlend mode="normal" in="SourceGraphic" in2="effect2_dropShadow_981_50346" result="shape"/>
</filter>
<filter id="filter3_dd_981_50346" x="264.944" y="6" width="24" height="24" filterUnits="userSpaceOnUse" color-interpolation-filters="sRGB">
<feFlood flood-opacity="0" result="BackgroundImageFix"/>
<feColorMatrix in="SourceAlpha" type="matrix" values="0 0 0 0 0 0 0 0 0 0 0 0 0 0 0 0 0 0 127 0" result="hardAlpha"/>
<feMorphology radius="1" operator="erode" in="SourceAlpha" result="effect1_dropShadow_981_50346"/>
<feOffset dy="4"/>
<feGaussianBlur stdDeviation="4"/>
<feComposite in2="hardAlpha" operator="out"/>
<feColorMatrix type="matrix" values="0 0 0 0 0 0 0 0 0 0 0 0 0 0 0 0 0 0 0.1 0"/>
<feBlend mode="normal" in2="BackgroundImageFix" result="effect1_dropShadow_981_50346"/>
<feColorMatrix in="SourceAlpha" type="matrix" values="0 0 0 0 0 0 0 0 0 0 0 0 0 0 0 0 0 0 127 0" result="hardAlpha"/>
<feOffset dy="1"/>
<feComposite in2="hardAlpha" operator="out"/>
<feColorMatrix type="matrix" values="0 0 0 0 0 0 0 0 0 0 0 0 0 0 0 0 0 0 0.05 0"/>
<feBlend mode="normal" in2="effect1_dropShadow_981_50346" result="effect2_dropShadow_981_50346"/>
<feBlend mode="normal" in="SourceGraphic" in2="effect2_dropShadow_981_50346" result="shape"/>
</filter>
<filter id="filter4_dd_981_50346" x="275.364" y="57" width="22" height="22" filterUnits="userSpaceOnUse" color-interpolation-filters="sRGB">
<feFlood flood-opacity="0" result="BackgroundImageFix"/>
<feColorMatrix in="SourceAlpha" type="matrix" values="0 0 0 0 0 0 0 0 0 0 0 0 0 0 0 0 0 0 127 0" result="hardAlpha"/>
<feMorphology radius="1" operator="erode" in="SourceAlpha" result="effect1_dropShadow_981_50346"/>
<feOffset dy="4"/>
<feGaussianBlur stdDeviation="4"/>
<feComposite in2="hardAlpha" operator="out"/>
<feColorMatrix type="matrix" values="0 0 0 0 0 0 0 0 0 0 0 0 0 0 0 0 0 0 0.1 0"/>
<feBlend mode="normal" in2="BackgroundImageFix" result="effect1_dropShadow_981_50346"/>
<feColorMatrix in="SourceAlpha" type="matrix" values="0 0 0 0 0 0 0 0 0 0 0 0 0 0 0 0 0 0 127 0" result="hardAlpha"/>
<feOffset dy="1"/>
<feComposite in2="hardAlpha" operator="out"/>
<feColorMatrix type="matrix" values="0 0 0 0 0 0 0 0 0 0 0 0 0 0 0 0 0 0 0.05 0"/>
<feBlend mode="normal" in2="effect1_dropShadow_981_50346" result="effect2_dropShadow_981_50346"/>
<feBlend mode="normal" in="SourceGraphic" in2="effect2_dropShadow_981_50346" result="shape"/>
</filter>
<filter id="filter5_dd_981_50346" x="278.556" y="25" width="38" height="38" filterUnits="userSpaceOnUse" color-interpolation-filters="sRGB">
<feFlood flood-opacity="0" result="BackgroundImageFix"/>
<feColorMatrix in="SourceAlpha" type="matrix" values="0 0 0 0 0 0 0 0 0 0 0 0 0 0 0 0 0 0 127 0" result="hardAlpha"/>
<feMorphology radius="1" operator="erode" in="SourceAlpha" result="effect1_dropShadow_981_50346"/>
<feOffset dy="4"/>
<feGaussianBlur stdDeviation="4"/>
<feComposite in2="hardAlpha" operator="out"/>
<feColorMatrix type="matrix" values="0 0 0 0 0 0 0 0 0 0 0 0 0 0 0 0 0 0 0.1 0"/>
<feBlend mode="normal" in2="BackgroundImageFix" result="effect1_dropShadow_981_50346"/>
<feColorMatrix in="SourceAlpha" type="matrix" values="0 0 0 0 0 0 0 0 0 0 0 0 0 0 0 0 0 0 127 0" result="hardAlpha"/>
<feOffset dy="1"/>
<feComposite in2="hardAlpha" operator="out"/>
<feColorMatrix type="matrix" values="0 0 0 0 0 0 0 0 0 0 0 0 0 0 0 0 0 0 0.05 0"/>
<feBlend mode="normal" in2="effect1_dropShadow_981_50346" result="effect2_dropShadow_981_50346"/>
<feBlend mode="normal" in="SourceGraphic" in2="effect2_dropShadow_981_50346" result="shape"/>
</filter>
<filter id="filter6_dd_981_50346" x="222.556" y="25" width="38" height="38" filterUnits="userSpaceOnUse" color-interpolation-filters="sRGB">
<feFlood flood-opacity="0" result="BackgroundImageFix"/>
<feColorMatrix in="SourceAlpha" type="matrix" values="0 0 0 0 0 0 0 0 0 0 0 0 0 0 0 0 0 0 127 0" result="hardAlpha"/>
<feMorphology radius="1" operator="erode" in="SourceAlpha" result="effect1_dropShadow_981_50346"/>
<feOffset dy="4"/>
<feGaussianBlur stdDeviation="4"/>
<feComposite in2="hardAlpha" operator="out"/>
<feColorMatrix type="matrix" values="0 0 0 0 0 0 0 0 0 0 0 0 0 0 0 0 0 0 0.1 0"/>
<feBlend mode="normal" in2="BackgroundImageFix" result="effect1_dropShadow_981_50346"/>
<feColorMatrix in="SourceAlpha" type="matrix" values="0 0 0 0 0 0 0 0 0 0 0 0 0 0 0 0 0 0 127 0" result="hardAlpha"/>
<feOffset dy="1"/>
<feComposite in2="hardAlpha" operator="out"/>
<feColorMatrix type="matrix" values="0 0 0 0 0 0 0 0 0 0 0 0 0 0 0 0 0 0 0.05 0"/>
<feBlend mode="normal" in2="effect1_dropShadow_981_50346" result="effect2_dropShadow_981_50346"/>
<feBlend mode="normal" in="SourceGraphic" in2="effect2_dropShadow_981_50346" result="shape"/>
</filter>
<filter id="filter7_dd_981_50346" x="242.387" y="17" width="54" height="54" filterUnits="userSpaceOnUse" color-interpolation-filters="sRGB">
<feFlood flood-opacity="0" result="BackgroundImageFix"/>
<feColorMatrix in="SourceAlpha" type="matrix" values="0 0 0 0 0 0 0 0 0 0 0 0 0 0 0 0 0 0 127 0" result="hardAlpha"/>
<feMorphology radius="1" operator="erode" in="SourceAlpha" result="effect1_dropShadow_981_50346"/>
<feOffset dy="4"/>
<feGaussianBlur stdDeviation="4"/>
<feComposite in2="hardAlpha" operator="out"/>
<feColorMatrix type="matrix" values="0 0 0 0 0 0 0 0 0 0 0 0 0 0 0 0 0 0 0.1 0"/>
<feBlend mode="normal" in2="BackgroundImageFix" result="effect1_dropShadow_981_50346"/>
<feColorMatrix in="SourceAlpha" type="matrix" values="0 0 0 0 0 0 0 0 0 0 0 0 0 0 0 0 0 0 127 0" result="hardAlpha"/>
<feOffset dy="1"/>
<feComposite in2="hardAlpha" operator="out"/>
<feColorMatrix type="matrix" values="0 0 0 0 0 0 0 0 0 0 0 0 0 0 0 0 0 0 0.05 0"/>
<feBlend mode="normal" in2="effect1_dropShadow_981_50346" result="effect2_dropShadow_981_50346"/>
<feBlend mode="normal" in="SourceGraphic" in2="effect2_dropShadow_981_50346" result="shape"/>
</filter>
<linearGradient id="paint0_linear_981_50346" x1="71.75" y1="41.3855" x2="4.75" y2="41.3855" gradientUnits="userSpaceOnUse">
<stop stop-color="white" stop-opacity="0"/>
<stop offset="1" stop-color="white"/>
</linearGradient>
<linearGradient id="paint1_linear_981_50346" x1="116.158" y1="41" x2="59.7494" y2="41.2152" gradientUnits="userSpaceOnUse">
<stop stop-color="white"/>
<stop offset="1" stop-color="white" stop-opacity="0"/>
</linearGradient>
<linearGradient id="paint2_linear_981_50346" x1="148.545" y1="102.524" x2="119.486" y2="102.524" gradientUnits="userSpaceOnUse">
<stop offset="0.135" stop-color="white"/>
<stop offset="1" stop-color="white" stop-opacity="0"/>
</linearGradient>
<linearGradient id="paint3_linear_981_50346" x1="29.8779" y1="84.6627" x2="9.87793" y2="84.6627" gradientUnits="userSpaceOnUse">
<stop offset="0.135" stop-color="white"/>
<stop offset="1" stop-color="white" stop-opacity="0"/>
</linearGradient>
<linearGradient id="paint4_linear_981_50346" x1="187.75" y1="36.999" x2="142.75" y2="36.999" gradientUnits="userSpaceOnUse">
<stop stop-color="#D8D8D8" stop-opacity="0"/>
<stop offset="1" stop-color="#D8D8D8"/>
</linearGradient>
<linearGradient id="paint5_linear_981_50346" x1="158.75" y1="48.001" x2="203.75" y2="48.001" gradientUnits="userSpaceOnUse">
<stop stop-color="#D8D8D8" stop-opacity="0"/>
<stop offset="1" stop-color="#D8D8D8"/>
</linearGradient>
<linearGradient id="paint6_linear_981_50346" x1="293.977" y1="40.6145" x2="233.977" y2="40.6145" gradientUnits="userSpaceOnUse">
<stop stop-color="white" stop-opacity="0"/>
<stop offset="1" stop-color="white"/>
</linearGradient>
<clipPath id="clip0_981_50346">
<rect width="119" height="67" fill="white" transform="translate(0.25 9)"/>
</clipPath>
<clipPath id="clip1_981_50346">
<rect width="84" height="85" fill="white" transform="translate(227.25)"/>
</clipPath>
</defs>
</svg>
