<?xml version="1.0" encoding="UTF-8"?>
<!--Generator: Apple Native CoreSVG 175-->
<!DOCTYPE svg
PUBLIC "-//W3C//DTD SVG 1.1//EN"
       "http://www.w3.org/Graphics/SVG/1.1/DTD/svg11.dtd">
<svg version="1.1" xmlns="http://www.w3.org/2000/svg" xmlns:xlink="http://www.w3.org/1999/xlink" width="3300" height="2200">
 <!--glyph: "", point size: 100.0, font version: "17.3d3e1", template writer version: "65.1"-->
 <g id="Notes">
  <rect height="2200" id="artboard" style="fill:white;opacity:1" width="3300" x="0" y="0"/>
  <line style="fill:none;stroke:black;opacity:1;stroke-width:0.5;" x1="263" x2="3036" y1="292" y2="292"/>
  <text style="stroke:none;fill:black;font-family:sans-serif;font-size:13;font-weight:bold;" transform="matrix(1 0 0 1 263 322)">Weight/Scale Variations</text>
  <text style="stroke:none;fill:black;font-family:sans-serif;font-size:13;text-anchor:middle;" transform="matrix(1 0 0 1 559.711 322)">Ultralight</text>
  <text style="stroke:none;fill:black;font-family:sans-serif;font-size:13;text-anchor:middle;" transform="matrix(1 0 0 1 856.422 322)">Thin</text>
  <text style="stroke:none;fill:black;font-family:sans-serif;font-size:13;text-anchor:middle;" transform="matrix(1 0 0 1 1153.13 322)">Light</text>
  <text style="stroke:none;fill:black;font-family:sans-serif;font-size:13;text-anchor:middle;" transform="matrix(1 0 0 1 1449.84 322)">Regular</text>
  <text style="stroke:none;fill:black;font-family:sans-serif;font-size:13;text-anchor:middle;" transform="matrix(1 0 0 1 1746.56 322)">Medium</text>
  <text style="stroke:none;fill:black;font-family:sans-serif;font-size:13;text-anchor:middle;" transform="matrix(1 0 0 1 2043.27 322)">Semibold</text>
  <text style="stroke:none;fill:black;font-family:sans-serif;font-size:13;text-anchor:middle;" transform="matrix(1 0 0 1 2339.98 322)">Bold</text>
  <text style="stroke:none;fill:black;font-family:sans-serif;font-size:13;text-anchor:middle;" transform="matrix(1 0 0 1 2636.69 322)">Heavy</text>
  <text style="stroke:none;fill:black;font-family:sans-serif;font-size:13;text-anchor:middle;" transform="matrix(1 0 0 1 2933.4 322)">Black</text>
  <line style="fill:none;stroke:black;opacity:1;stroke-width:0.5;" x1="263" x2="3036" y1="1903" y2="1903"/>
  <g transform="matrix(1 0 0 1 263 1933)">
   <path d="M9.24805 0.830078Q10.8691 0.830078 12.2949 0.214844Q13.7207-0.400391 14.8096-1.49414Q15.8984-2.58789 16.5186-4.01367Q17.1387-5.43945 17.1387-7.05078Q17.1387-8.66211 16.5186-10.0879Q15.8984-11.5137 14.8047-12.6074Q13.7109-13.7012 12.2852-14.3164Q10.8594-14.9316 9.23828-14.9316Q7.62695-14.9316 6.20117-14.3164Q4.77539-13.7012 3.69141-12.6074Q2.60742-11.5137 1.9873-10.0879Q1.36719-8.66211 1.36719-7.05078Q1.36719-5.43945 1.9873-4.01367Q2.60742-2.58789 3.69629-1.49414Q4.78516-0.400391 6.21094 0.214844Q7.63672 0.830078 9.24805 0.830078ZM9.24805-0.654297Q7.91992-0.654297 6.7627-1.14746Q5.60547-1.64062 4.73145-2.51953Q3.85742-3.39844 3.36426-4.56055Q2.87109-5.72266 2.87109-7.05078Q2.87109-8.37891 3.35938-9.54102Q3.84766-10.7031 4.72168-11.582Q5.5957-12.4609 6.75293-12.9541Q7.91016-13.4473 9.23828-13.4473Q10.5762-13.4473 11.7334-12.9541Q12.8906-12.4609 13.7695-11.582Q14.6484-10.7031 15.1465-9.54102Q15.6445-8.37891 15.6445-7.05078Q15.6445-5.72266 15.1514-4.56055Q14.6582-3.39844 13.7842-2.51953Q12.9102-1.64062 11.748-1.14746Q10.5859-0.654297 9.24805-0.654297ZM5.6543-7.05078Q5.6543-6.72852 5.85938-6.52832Q6.06445-6.32812 6.40625-6.32812L8.51562-6.32812L8.51562-4.20898Q8.51562-3.88672 8.71094-3.67676Q8.90625-3.4668 9.23828-3.4668Q9.56055-3.4668 9.77051-3.67676Q9.98047-3.88672 9.98047-4.20898L9.98047-6.32812L12.0898-6.32812Q12.4219-6.32812 12.627-6.52832Q12.832-6.72852 12.832-7.05078Q12.832-7.38281 12.627-7.58789Q12.4219-7.79297 12.0898-7.79297L9.98047-7.79297L9.98047-9.90234Q9.98047-10.2344 9.77051-10.4443Q9.56055-10.6543 9.23828-10.6543Q8.90625-10.6543 8.71094-10.4443Q8.51562-10.2344 8.51562-9.90234L8.51562-7.79297L6.40625-7.79297Q6.06445-7.79297 5.85938-7.58789Q5.6543-7.38281 5.6543-7.05078Z"/>
  </g>
  <g transform="matrix(1 0 0 1 281.867 1933)">
   <path d="M11.709 2.91016Q13.75 2.91016 15.5518 2.12891Q17.3535 1.34766 18.7305-0.0292969Q20.1074-1.40625 20.8887-3.20801Q21.6699-5.00977 21.6699-7.05078Q21.6699-9.0918 20.8887-10.8936Q20.1074-12.6953 18.7305-14.0723Q17.3535-15.4492 15.5469-16.2305Q13.7402-17.0117 11.6992-17.0117Q9.6582-17.0117 7.85645-16.2305Q6.05469-15.4492 4.68262-14.0723Q3.31055-12.6953 2.5293-10.8936Q1.74805-9.0918 1.74805-7.05078Q1.74805-5.00977 2.5293-3.20801Q3.31055-1.40625 4.6875-0.0292969Q6.06445 1.34766 7.86621 2.12891Q9.66797 2.91016 11.709 2.91016ZM11.709 1.25Q9.98047 1.25 8.47656 0.605469Q6.97266-0.0390625 5.83496-1.17676Q4.69727-2.31445 4.05762-3.81836Q3.41797-5.32227 3.41797-7.05078Q3.41797-8.7793 4.05762-10.2832Q4.69727-11.7871 5.83008-12.9297Q6.96289-14.0723 8.4668-14.7119Q9.9707-15.3516 11.6992-15.3516Q13.4277-15.3516 14.9316-14.7119Q16.4355-14.0723 17.5781-12.9297Q18.7207-11.7871 19.3652-10.2832Q20.0098-8.7793 20.0098-7.05078Q20.0098-5.32227 19.3701-3.81836Q18.7305-2.31445 17.5928-1.17676Q16.4551-0.0390625 14.9463 0.605469Q13.4375 1.25 11.709 1.25ZM7.17773-7.05078Q7.17773-6.69922 7.41211-6.47461Q7.64648-6.25 8.01758-6.25L10.8887-6.25L10.8887-3.36914Q10.8887-2.99805 11.1133-2.76855Q11.3379-2.53906 11.6895-2.53906Q12.0605-2.53906 12.29-2.76855Q12.5195-2.99805 12.5195-3.36914L12.5195-6.25L15.4004-6.25Q15.7715-6.25 16.001-6.47461Q16.2305-6.69922 16.2305-7.05078Q16.2305-7.42188 16.001-7.65137Q15.7715-7.88086 15.4004-7.88086L12.5195-7.88086L12.5195-10.752Q12.5195-11.1328 12.29-11.3623Q12.0605-11.5918 11.6895-11.5918Q11.3379-11.5918 11.1133-11.3574Q10.8887-11.123 10.8887-10.752L10.8887-7.88086L8.01758-7.88086Q7.63672-7.88086 7.40723-7.65137Q7.17773-7.42188 7.17773-7.05078Z"/>
  </g>
  <g transform="matrix(1 0 0 1 305.646 1933)">
   <path d="M14.9707 5.66406Q17.0605 5.66406 18.96 5.01465Q20.8594 4.36523 22.4512 3.19336Q24.043 2.02148 25.2197 0.429688Q26.3965-1.16211 27.0459-3.06641Q27.6953-4.9707 27.6953-7.05078Q27.6953-9.14062 27.0459-11.04Q26.3965-12.9395 25.2197-14.5312Q24.043-16.123 22.4512-17.2998Q20.8594-18.4766 18.9551-19.126Q17.0508-19.7754 14.9609-19.7754Q12.8711-19.7754 10.9717-19.126Q9.07227-18.4766 7.48535-17.2998Q5.89844-16.123 4.72168-14.5312Q3.54492-12.9395 2.90039-11.04Q2.25586-9.14062 2.25586-7.05078Q2.25586-4.9707 2.90527-3.06641Q3.55469-1.16211 4.72656 0.429688Q5.89844 2.02148 7.49023 3.19336Q9.08203 4.36523 10.9814 5.01465Q12.8809 5.66406 14.9707 5.66406ZM14.9707 3.84766Q13.1641 3.84766 11.5283 3.2959Q9.89258 2.74414 8.53516 1.74805Q7.17773 0.751953 6.17676-0.610352Q5.17578-1.97266 4.62891-3.6084Q4.08203-5.24414 4.08203-7.05078Q4.08203-8.86719 4.62891-10.5029Q5.17578-12.1387 6.17188-13.501Q7.16797-14.8633 8.52539-15.8594Q9.88281-16.8555 11.5186-17.4023Q13.1543-17.9492 14.9609-17.9492Q16.7773-17.9492 18.4131-17.4023Q20.0488-16.8555 21.4111-15.8594Q22.7734-14.8633 23.7695-13.501Q24.7656-12.1387 25.3174-10.5029Q25.8691-8.86719 25.8691-7.05078Q25.8789-5.24414 25.332-3.6084Q24.7852-1.97266 23.7842-0.610352Q22.7832 0.751953 21.4209 1.74805Q20.0586 2.74414 18.4229 3.2959Q16.7871 3.84766 14.9707 3.84766ZM9.19922-7.05078Q9.19922-6.66992 9.45801-6.4209Q9.7168-6.17188 10.1172-6.17188L14.0625-6.17188L14.0625-2.2168Q14.0625-1.81641 14.3115-1.55762Q14.5605-1.29883 14.9512-1.29883Q15.3516-1.29883 15.6104-1.55273Q15.8691-1.80664 15.8691-2.2168L15.8691-6.17188L19.8242-6.17188Q20.2246-6.17188 20.4785-6.4209Q20.7324-6.66992 20.7324-7.05078Q20.7324-7.46094 20.4785-7.71484Q20.2246-7.96875 19.8242-7.96875L15.8691-7.96875L15.8691-11.9141Q15.8691-12.3242 15.6104-12.583Q15.3516-12.8418 14.9512-12.8418Q14.5605-12.8418 14.3115-12.583Q14.0625-12.3242 14.0625-11.9141L14.0625-7.96875L10.1172-7.96875Q9.70703-7.96875 9.45312-7.71484Q9.19922-7.46094 9.19922-7.05078Z"/>
  </g>
  <text style="stroke:none;fill:black;font-family:sans-serif;font-size:13;font-weight:bold;" transform="matrix(1 0 0 1 263 1953)">Design Variations</text>
  <text style="stroke:none;fill:black;font-family:sans-serif;font-size:13;" transform="matrix(1 0 0 1 263 1971)">Symbols are supported in up to nine weights and three scales.</text>
  <text style="stroke:none;fill:black;font-family:sans-serif;font-size:13;" transform="matrix(1 0 0 1 263 1989)">For optimal layout with text and other symbols, vertically align</text>
  <text style="stroke:none;fill:black;font-family:sans-serif;font-size:13;" transform="matrix(1 0 0 1 263 2007)">symbols with the adjacent text.</text>
  <line style="fill:none;stroke:#00AEEF;stroke-width:0.5;opacity:1.0;" x1="776" x2="776" y1="1919" y2="1933"/>
  <g transform="matrix(1 0 0 1 776 1933)">
   <path d="M3.31055 0.15625Q3.70117 0.15625 3.91602-0.00976562Q4.13086-0.175781 4.26758-0.585938L5.52734-4.0332L11.2891-4.0332L12.5488-0.585938Q12.6855-0.175781 12.9004-0.00976562Q13.1152 0.15625 13.4961 0.15625Q13.8867 0.15625 14.1162-0.0585938Q14.3457-0.273438 14.3457-0.644531Q14.3457-0.869141 14.2383-1.17188L9.6582-13.3691Q9.48242-13.8184 9.17969-14.043Q8.87695-14.2676 8.4082-14.2676Q7.5-14.2676 7.17773-13.3789L2.59766-1.16211Q2.49023-0.859375 2.49023-0.634766Q2.49023-0.263672 2.70996-0.0537109Q2.92969 0.15625 3.31055 0.15625ZM6.00586-5.51758L8.37891-12.0898L8.42773-12.0898L10.8008-5.51758Z"/>
  </g>
  <line style="fill:none;stroke:#00AEEF;stroke-width:0.5;opacity:1.0;" x1="793.197" x2="793.197" y1="1919" y2="1933"/>
  <text style="stroke:none;fill:black;font-family:sans-serif;font-size:13;font-weight:bold;" transform="matrix(1 0 0 1 776 1953)">Margins</text>
  <text style="stroke:none;fill:black;font-family:sans-serif;font-size:13;" transform="matrix(1 0 0 1 776 1971)">Leading and trailing margins on the left and right side of each symbol</text>
  <text style="stroke:none;fill:black;font-family:sans-serif;font-size:13;" transform="matrix(1 0 0 1 776 1989)">can be adjusted by modifying the x-location of the margin guidelines.</text>
  <text style="stroke:none;fill:black;font-family:sans-serif;font-size:13;" transform="matrix(1 0 0 1 776 2007)">Modifications are automatically applied proportionally to all</text>
  <text style="stroke:none;fill:black;font-family:sans-serif;font-size:13;" transform="matrix(1 0 0 1 776 2025)">scales and weights.</text>
  <g transform="matrix(1 0 0 1 1289 1933)">
   <path d="M2.8418 1.86523L4.54102 3.57422Q5.18555 4.22852 5.90332 4.17969Q6.62109 4.13086 7.31445 3.35938L18.0078-8.42773L17.041-9.4043L6.42578 2.27539Q6.16211 2.57812 5.89355 2.61719Q5.625 2.65625 5.27344 2.30469L4.10156 1.14258Q3.75 0.791016 3.79395 0.522461Q3.83789 0.253906 4.14062-0.0195312L15.6152-10.8203L14.6387-11.7871L3.04688-0.898438Q2.30469-0.214844 2.25098 0.498047Q2.19727 1.21094 2.8418 1.86523ZM9.25781-16.3281Q8.94531-16.0254 8.90625-15.6348Q8.86719-15.2441 9.04297-14.9512Q9.21875-14.6777 9.55566-14.541Q9.89258-14.4043 10.3809-14.5215Q11.4746-14.7754 12.5977-14.7314Q13.7207-14.6875 14.7949-13.9844L14.209-12.5293Q13.9551-11.9043 14.0674-11.4404Q14.1797-10.9766 14.5801-10.5664L16.875-8.25195Q17.2363-7.88086 17.5781-7.82227Q17.9199-7.76367 18.3398-7.8418L19.4043-8.03711L20.0684-7.36328L20.0293-6.80664Q20-6.43555 20.1221-6.12305Q20.2441-5.81055 20.6055-5.44922L21.3672-4.70703Q21.7285-4.3457 22.1533-4.33105Q22.5781-4.31641 22.9297-4.66797L25.8398-7.58789Q26.1914-7.93945 26.1816-8.35449Q26.1719-8.76953 25.8105-9.13086L25.0391-9.89258Q24.6875-10.2539 24.3799-10.3857Q24.0723-10.5176 23.7109-10.4883L23.1348-10.4395L22.4902-11.0742L22.7344-12.1973Q22.832-12.6172 22.6953-12.9834Q22.5586-13.3496 22.1191-13.7891L19.9219-15.9766Q18.6719-17.2168 17.2607-17.8369Q15.8496-18.457 14.4189-18.4814Q12.9883-18.5059 11.665-17.959Q10.3418-17.4121 9.25781-16.3281ZM10.752-15.957Q11.6602-16.6211 12.7002-16.9043Q13.7402-17.1875 14.8047-17.085Q15.8691-16.9824 16.8701-16.5137Q17.8711-16.0449 18.7012-15.2051L21.1328-12.793Q21.3086-12.6172 21.3525-12.4512Q21.3965-12.2852 21.3379-12.0312L21.0156-10.5469L22.5195-9.0625L23.5059-9.12109Q23.6914-9.13086 23.7891-9.09668Q23.8867-9.0625 24.0332-8.91602L24.6094-8.33984L22.168-5.89844L21.5918-6.47461Q21.4453-6.62109 21.4062-6.71875Q21.3672-6.81641 21.377-7.01172L21.4453-7.98828L19.9512-9.47266L18.4277-9.21875Q18.1836-9.16992 18.042-9.2041Q17.9004-9.23828 17.7148-9.41406L15.7129-11.416Q15.5176-11.5918 15.4932-11.7529Q15.4688-11.9141 15.5859-12.1875L16.4648-14.2773Q15.293-15.3711 13.8281-15.791Q12.3633-16.2109 10.8398-15.7617Q10.7227-15.7324 10.6885-15.8057Q10.6543-15.8789 10.752-15.957Z"/>
  </g>
  <text style="stroke:none;fill:black;font-family:sans-serif;font-size:13;font-weight:bold;" transform="matrix(1 0 0 1 1289 1953)">Exporting</text>
  <text style="stroke:none;fill:black;font-family:sans-serif;font-size:13;" transform="matrix(1 0 0 1 1289 1971)">Symbols should be outlined when exporting to ensure the</text>
  <text style="stroke:none;fill:black;font-family:sans-serif;font-size:13;" transform="matrix(1 0 0 1 1289 1989)">design is preserved when submitting to Xcode.</text>
  <text id="template-version" style="stroke:none;fill:black;font-family:sans-serif;font-size:13;text-anchor:end;" transform="matrix(1 0 0 1 3036 1933)">Template v.2.0</text>
  <text style="stroke:none;fill:black;font-family:sans-serif;font-size:13;text-anchor:end;" transform="matrix(1 0 0 1 3036 1951)">Requires Xcode 12 or greater</text>
  <text id="descriptive-name" style="stroke:none;fill:black;font-family:sans-serif;font-size:13;text-anchor:end;" transform="matrix(1 0 0 1 3036 1969)">Generated from brave.qrcode</text>
  <text style="stroke:none;fill:black;font-family:sans-serif;font-size:13;text-anchor:end;" transform="matrix(1 0 0 1 3036 1987)">Typeset at 100 points</text>
  <text style="stroke:none;fill:black;font-family:sans-serif;font-size:13;" transform="matrix(1 0 0 1 263 726)">Small</text>
  <text style="stroke:none;fill:black;font-family:sans-serif;font-size:13;" transform="matrix(1 0 0 1 263 1156)">Medium</text>
  <text style="stroke:none;fill:black;font-family:sans-serif;font-size:13;" transform="matrix(1 0 0 1 263 1586)">Large</text>
 </g>
 <g id="Guides">
  <g id="H-reference" style="fill:#27AAE1;stroke:none;" transform="matrix(1 0 0 1 339 696)">
   <path d="M0.993347 0L3.6377 0L29.3282-67.1326L30.0301-67.1326L30.0301-70.459L28.1227-70.459ZM11.6882-24.4797L46.9818-24.4797L46.2311-26.7288L12.4382-26.7288ZM55.1193 0L57.7637 0L30.6381-70.459L29.4327-70.459L29.4327-67.1326Z"/>
  </g>
  <line id="Baseline-S" style="fill:none;stroke:#27AAE1;opacity:1;stroke-width:0.5;" x1="263" x2="3036" y1="696" y2="696"/>
  <line id="Capline-S" style="fill:none;stroke:#27AAE1;opacity:1;stroke-width:0.5;" x1="263" x2="3036" y1="625.541" y2="625.541"/>
  <g id="H-reference" style="fill:#27AAE1;stroke:none;" transform="matrix(1 0 0 1 339 1126)">
   <path d="M0.993347 0L3.6377 0L29.3282-67.1326L30.0301-67.1326L30.0301-70.459L28.1227-70.459ZM11.6882-24.4797L46.9818-24.4797L46.2311-26.7288L12.4382-26.7288ZM55.1193 0L57.7637 0L30.6381-70.459L29.4327-70.459L29.4327-67.1326Z"/>
  </g>
  <line id="Baseline-M" style="fill:none;stroke:#27AAE1;opacity:1;stroke-width:0.5;" x1="263" x2="3036" y1="1126" y2="1126"/>
  <line id="Capline-M" style="fill:none;stroke:#27AAE1;opacity:1;stroke-width:0.5;" x1="263" x2="3036" y1="1055.54" y2="1055.54"/>
  <g id="H-reference" style="fill:#27AAE1;stroke:none;" transform="matrix(1 0 0 1 339 1556)">
   <path d="M0.993347 0L3.6377 0L29.3282-67.1326L30.0301-67.1326L30.0301-70.459L28.1227-70.459ZM11.6882-24.4797L46.9818-24.4797L46.2311-26.7288L12.4382-26.7288ZM55.1193 0L57.7637 0L30.6381-70.459L29.4327-70.459L29.4327-67.1326Z"/>
  </g>
  <line id="Baseline-L" style="fill:none;stroke:#27AAE1;opacity:1;stroke-width:0.5;" x1="263" x2="3036" y1="1556" y2="1556"/>
  <line id="Capline-L" style="fill:none;stroke:#27AAE1;opacity:1;stroke-width:0.5;" x1="263" x2="3036" y1="1485.54" y2="1485.54"/>
  <line id="left-margin" style="fill:none;stroke:#00AEEF;stroke-width:0.5;opacity:1.0;" x1="1392.45" x2="1392.45" y1="1030.78" y2="1150.12"/>
  <line id="right-margin" style="fill:none;stroke:#00AEEF;stroke-width:0.5;opacity:1.0;" x1="1507.24" x2="1507.24" y1="1030.78" y2="1150.12"/>
 </g>
 <g id="Symbols">
  <g id="Regular-L" transform="matrix(1 0 0 1 1379.95 1556)">
   <path d="M122.758 22.429L108.383 22.429C105.734 22.429 103.592 20.2823 103.592 17.6373C103.592 14.9923 105.734 12.8457 108.383 12.8457L117.967 12.8457L117.967 3.26233C117.967 0.617333 120.109-1.52933 122.758-1.52933C125.407-1.52933 127.55 0.617333 127.55 3.26233L127.55 17.6373C127.55 20.2823 125.407 22.429 122.758 22.429ZM122.758-5.68339C120.109-5.68339 117.967-7.83006 117.967-10.4751L117.967-17.5047C117.967-20.1497 120.109-22.2964 122.758-22.2964C125.407-22.2964 127.55-20.1497 127.55-17.5047L127.55-10.4751C127.55-7.83006 125.407-5.68339 122.758-5.68339ZM122.758-25.4877L111.258-25.4877C108.608-25.4877 106.467-27.6343 106.467-30.2793L106.467-35.0661L94.0039-35.071C91.3589-35.071 89.2167-37.2177 89.2167-39.8675C89.2167-42.5077 91.3633-44.6543 94.0083-44.6543C94.0083-44.6543 94.0083-44.6543 94.0134-44.6543L111.263-44.6447C113.903-44.6447 116.05-42.4981 116.05-39.8531L116.05-35.071L122.758-35.071C125.407-35.071 127.55-32.9243 127.55-30.2793C127.55-27.6343 125.407-25.4877 122.758-25.4877ZM122.758-54.2377L94.0083-54.2377C91.3589-54.2377 89.2167-56.3843 89.2167-59.0293L89.2167-87.7793C89.2167-90.4243 91.3589-92.571 94.0083-92.571L122.758-92.571C125.407-92.571 127.55-90.4243 127.55-87.7793L127.55-59.0293C127.55-56.3843 125.407-54.2377 122.758-54.2377ZM117.967-82.9877L98.8-82.9877L98.8-63.821L117.967-63.821L117.967-82.9877ZM108.479-78.196L108.527-78.196C111.172-78.196 113.319-76.0493 113.319-73.4043C113.319-70.7593 111.172-68.6127 108.527-68.6127C105.882-68.6127 103.712-70.7593 103.712-73.4043C103.712-76.0493 105.834-78.196 108.479-78.196ZM108.383-15.8992L108.383-8.71236C108.383-6.06736 106.241-3.92069 103.592-3.92069C100.942-3.92069 98.8-6.06736 98.8-8.71236L98.8-11.1082L89.2167-11.1127L89.2167-1.52933C89.2167 1.11567 87.0745 3.26233 84.425 3.26233C81.7755 3.26233 79.6333 1.11567 79.6333-1.52933L79.6333-15.9043L79.6333-15.9043L79.6333-15.9043C79.6333-16.441 79.7771-16.9342 79.94-17.4185C79.9783-17.5284 79.9643-17.6626 80.0122-17.768C80.1508-18.1085 80.4045-18.3768 80.6153-18.6688C80.7642-18.8752 80.86-19.1147 81.0376-19.2917C81.1571-19.4118 81.3296-19.4693 81.4593-19.5799C81.8043-19.8578 82.1442-20.1446 82.5614-20.3222C83.1357-20.5618 83.7637-20.696 84.425-20.696L103.592-20.6909C106.241-20.6909 108.383-18.5493 108.383-15.8992ZM74.8417-54.2377L65.2583-54.2377C62.6085-54.2377 60.4667-56.3843 60.4667-59.0293C60.4667-61.6743 62.6085-63.821 65.2583-63.821L74.8417-63.821C77.4911-63.821 79.6333-61.6743 79.6333-59.0293C79.6333-56.3843 77.4911-54.2377 74.8417-54.2377ZM74.8417-68.6127L65.2583-68.6127C62.6085-68.6127 60.4667-70.7593 60.4667-73.4043C60.4667-73.4475 60.4906-73.4859 60.4906-73.5289C60.4906-73.5768 60.4667-73.6104 60.4667-73.6584L60.4667-87.7793C60.4667-90.4243 62.6085-92.571 65.2583-92.571C67.9081-92.571 70.05-90.4243 70.05-87.7793L70.05-78.196L74.8417-78.196C77.4911-78.196 79.6333-76.0493 79.6333-73.4043C79.6333-70.7593 77.4911-68.6127 74.8417-68.6127ZM46.0917-54.2377L17.3417-54.2377C14.6918-54.2377 12.55-56.3843 12.55-59.0293L12.55-87.7793C12.55-90.4243 14.6918-92.571 17.3417-92.571L46.0917-92.571C48.7414-92.571 50.8833-90.4243 50.8833-87.7793L50.8833-59.0293C50.8833-56.3843 48.7414-54.2377 46.0917-54.2377ZM41.3-82.9877L22.1333-82.9877L22.1333-63.821L41.3-63.821L41.3-82.9877ZM31.8076-78.196L31.8604-78.196C34.5054-78.196 36.6521-76.0493 36.6521-73.4043C36.6521-70.7593 34.5054-68.6127 31.8604-68.6127C29.2154-68.6127 27.0447-70.7593 27.0447-73.4043C27.0447-76.0493 29.1675-78.196 31.8076-78.196ZM17.3417-44.6543L26.9154-44.6543L26.9203-44.6543L26.925-44.6543C29.5747-44.6543 31.7167-42.5077 31.7167-39.8627L31.7167-30.2793C31.7167-27.6343 29.5747-25.4877 26.925-25.4877C24.2751-25.4877 22.1333-27.6343 22.1333-30.2793L22.1333-35.071L17.3417-35.071C14.6918-35.071 12.55-37.2177 12.55-39.8627C12.55-42.5077 14.6918-44.6543 17.3417-44.6543ZM17.3417-15.9043L46.0917-15.9043C48.7414-15.9043 50.8833-13.7577 50.8833-11.1127L50.8833 17.6373C50.8833 20.2823 48.7414 22.429 46.0917 22.429L17.3417 22.429C14.6918 22.429 12.55 20.2823 12.55 17.6373L12.55-11.1127C12.55-13.7577 14.6918-15.9043 17.3417-15.9043ZM22.1333 12.8457L41.3 12.8457L41.3-6.321L22.1333-6.321L22.1333 12.8457ZM31.8604 8.054C29.2154 8.054 27.0447 5.90733 27.0447 3.26233C27.0447 0.617333 29.1675-1.52933 31.8076-1.52933L31.8604-1.52933C34.5054-1.52933 36.6521 0.617333 36.6521 3.26233C36.6521 5.90733 34.5054 8.054 31.8604 8.054ZM74.8417-20.696C74.8417-18.051 72.6997-15.9043 70.05-15.9043C67.4001-15.9043 65.2583-18.051 65.2583-20.696L65.2583-30.2793L41.3-30.2793C38.6501-30.2793 36.5083-32.426 36.5083-35.071L36.5083-39.8627C36.5083-42.5077 38.6501-44.6543 41.3-44.6543C43.9497-44.6543 46.0917-42.5077 46.0917-39.8627L70.05-39.8627C72.6997-39.8627 74.8417-37.716 74.8417-35.071C74.8417-34.7882 74.7267-34.5439 74.6788-34.2756C74.7267-34.0024 74.8417-33.7581 74.8417-33.4754L74.8417-20.696ZM65.2583-6.321C67.9081-6.321 70.05-4.17433 70.05-1.52933L70.05 12.8457L74.8417 12.8457C77.4911 12.8457 79.6333 14.9923 79.6333 17.6373C79.6333 20.2823 77.4911 22.429 74.8417 22.429L65.2583 22.429C62.6085 22.429 60.4667 20.2823 60.4667 17.6373L60.4667-1.52933C60.4667-4.17433 62.6085-6.321 65.2583-6.321ZM94.0083 3.26233C96.6578 3.26233 98.8 5.409 98.8 8.054L98.8 17.6373C98.8 20.2823 96.6578 22.429 94.0083 22.429C91.3589 22.429 89.2167 20.2823 89.2167 17.6373L89.2167 8.054C89.2167 5.409 91.3589 3.26233 94.0083 3.26233Z"/>
  </g>
  <g id="Regular-M" transform="matrix(1 0 0 1 1392.45 1126)">
   <path d="M98.8 10L87.55 10C85.4765 10 83.8 8.32 83.8 6.25C83.8 4.18 85.4765 2.5 87.55 2.5L95.05 2.5L95.05-5C95.05-7.07 96.7265-8.75 98.8-8.75C100.873-8.75 102.55-7.07 102.55-5L102.55 6.25C102.55 8.32 100.873 10 98.8 10ZM98.8-12.001C96.7265-12.001 95.05-13.681 95.05-15.751L95.05-21.2525C95.05-23.3225 96.7265-25.0025 98.8-25.0025C100.873-25.0025 102.55-23.3225 102.55-21.2525L102.55-15.751C102.55-13.681 100.873-12.001 98.8-12.001ZM98.8-27.5L89.8-27.5C87.726-27.5 86.05-29.18 86.05-31.25L86.05-34.9962L76.2965-35C74.2265-35 72.55-36.68 72.55-38.7538C72.55-40.82 74.23-42.5 76.3-42.5C76.3-42.5 76.3-42.5 76.304-42.5L89.8035-42.4925C91.87-42.4925 93.55-40.8125 93.55-38.7425L93.55-35L98.8-35C100.873-35 102.55-33.32 102.55-31.25C102.55-29.18 100.873-27.5 98.8-27.5ZM98.8-50L76.3-50C74.2265-50 72.55-51.68 72.55-53.75L72.55-76.25C72.55-78.32 74.2265-80 76.3-80L98.8-80C100.873-80 102.55-78.32 102.55-76.25L102.55-53.75C102.55-51.68 100.873-50 98.8-50ZM95.05-72.5L80.05-72.5L80.05-57.5L95.05-57.5L95.05-72.5ZM87.625-68.75L87.6625-68.75C89.7325-68.75 91.4125-67.07 91.4125-65C91.4125-62.93 89.7325-61.25 87.6625-61.25C85.5925-61.25 83.894-62.93 83.894-65C83.894-67.07 85.555-68.75 87.625-68.75ZM87.55-19.996L87.55-14.3715C87.55-12.3015 85.8735-10.6215 83.8-10.6215C81.7265-10.6215 80.05-12.3015 80.05-14.3715L80.05-16.2465L72.55-16.25L72.55-8.75C72.55-6.68 70.8735-5 68.8-5C66.7265-5 65.05-6.68 65.05-8.75L65.05-20L65.05-20L65.05-20C65.05-20.42 65.1625-20.806 65.29-21.185C65.32-21.271 65.309-21.376 65.3465-21.4585C65.455-21.725 65.6535-21.935 65.8185-22.1635C65.935-22.325 66.01-22.5125 66.149-22.651C66.2425-22.745 66.3775-22.79 66.479-22.8765C66.749-23.094 67.015-23.3185 67.3415-23.4575C67.791-23.645 68.2825-23.75 68.8-23.75L83.8-23.746C85.8735-23.746 87.55-22.07 87.55-19.996ZM61.3-50L53.8-50C51.7262-50 50.05-51.68 50.05-53.75C50.05-55.82 51.7262-57.5 53.8-57.5L61.3-57.5C63.3735-57.5 65.05-55.82 65.05-53.75C65.05-51.68 63.3735-50 61.3-50ZM61.3-61.25L53.8-61.25C51.7262-61.25 50.05-62.93 50.05-65C50.05-65.0338 50.0687-65.0638 50.0687-65.0975C50.0687-65.135 50.05-65.1613 50.05-65.1988L50.05-76.25C50.05-78.32 51.7262-80 53.8-80C55.8737-80 57.55-78.32 57.55-76.25L57.55-68.75L61.3-68.75C63.3735-68.75 65.05-67.07 65.05-65C65.05-62.93 63.3735-61.25 61.3-61.25ZM38.8-50L16.3-50C14.2262-50 12.55-51.68 12.55-53.75L12.55-76.25C12.55-78.32 14.2262-80 16.3-80L38.8-80C40.8737-80 42.55-78.32 42.55-76.25L42.55-53.75C42.55-51.68 40.8737-50 38.8-50ZM35.05-72.5L20.05-72.5L20.05-57.5L35.05-57.5L35.05-72.5ZM27.6212-68.75L27.6625-68.75C29.7325-68.75 31.4125-67.07 31.4125-65C31.4125-62.93 29.7325-61.25 27.6625-61.25C25.5925-61.25 23.8937-62.93 23.8937-65C23.8937-67.07 25.555-68.75 27.6212-68.75ZM16.3-42.5L23.7925-42.5L23.7963-42.5L23.8-42.5C25.8737-42.5 27.55-40.82 27.55-38.75L27.55-31.25C27.55-29.18 25.8737-27.5 23.8-27.5C21.7262-27.5 20.05-29.18 20.05-31.25L20.05-35L16.3-35C14.2262-35 12.55-36.68 12.55-38.75C12.55-40.82 14.2262-42.5 16.3-42.5ZM16.3-20L38.8-20C40.8737-20 42.55-18.32 42.55-16.25L42.55 6.25C42.55 8.32 40.8737 10 38.8 10L16.3 10C14.2262 10 12.55 8.32 12.55 6.25L12.55-16.25C12.55-18.32 14.2262-20 16.3-20ZM20.05 2.5L35.05 2.5L35.05-12.5L20.05-12.5L20.05 2.5ZM27.6625-1.25C25.5925-1.25 23.8937-2.93 23.8937-5C23.8937-7.07 25.555-8.75 27.6212-8.75L27.6625-8.75C29.7325-8.75 31.4125-7.07 31.4125-5C31.4125-2.93 29.7325-1.25 27.6625-1.25ZM61.3-23.75C61.3-21.68 59.6237-20 57.55-20C55.4762-20 53.8-21.68 53.8-23.75L53.8-31.25L35.05-31.25C32.9762-31.25 31.3-32.93 31.3-35L31.3-38.75C31.3-40.82 32.9762-42.5 35.05-42.5C37.1237-42.5 38.8-40.82 38.8-38.75L57.55-38.75C59.6237-38.75 61.3-37.07 61.3-35C61.3-34.7787 61.21-34.5875 61.1725-34.3775C61.21-34.1637 61.3-33.9725 61.3-33.7513L61.3-23.75ZM53.8-12.5C55.8737-12.5 57.55-10.82 57.55-8.75L57.55 2.5L61.3 2.5C63.3735 2.5 65.05 4.18 65.05 6.25C65.05 8.32 63.3735 10 61.3 10L53.8 10C51.7262 10 50.05 8.32 50.05 6.25L50.05-8.75C50.05-10.82 51.7262-12.5 53.8-12.5ZM76.3-5C78.3735-5 80.05-3.32 80.05-1.25L80.05 6.25C80.05 8.32 78.3735 10 76.3 10C74.2265 10 72.55 8.32 72.55 6.25L72.55-1.25C72.55-3.32 74.2265-5 76.3-5Z"/>
  </g>
  <g id="Regular-S" transform="matrix(1 0 0 1 1402.45 696)">
   <path d="M79.6333 0L70.8833 0C69.2706 0 67.9667-1.30667 67.9667-2.91667C67.9667-4.52667 69.2706-5.83333 70.8833-5.83333L76.7167-5.83333L76.7167-11.6667C76.7167-13.2767 78.0206-14.5833 79.6333-14.5833C81.2457-14.5833 82.55-13.2767 82.55-11.6667L82.55-2.91667C82.55-1.30667 81.2457 0 79.6333 0ZM79.6333-17.1119C78.0206-17.1119 76.7167-18.4186 76.7167-20.0286L76.7167-24.3075C76.7167-25.9175 78.0206-27.2242 79.6333-27.2242C81.2457-27.2242 82.55-25.9175 82.55-24.3075L82.55-20.0286C82.55-18.4186 81.2457-17.1119 79.6333-17.1119ZM79.6333-29.1667L72.6333-29.1667C71.0202-29.1667 69.7167-30.4733 69.7167-32.0833L69.7167-34.997L62.1306-35C60.5206-35 59.2167-36.3067 59.2167-37.9196C59.2167-39.5267 60.5233-40.8333 62.1333-40.8333C62.1333-40.8333 62.1333-40.8333 62.1364-40.8333L72.6361-40.8275C74.2433-40.8275 75.55-39.5208 75.55-37.9108L75.55-35L79.6333-35C81.2457-35 82.55-33.6933 82.55-32.0833C82.55-30.4733 81.2457-29.1667 79.6333-29.1667ZM79.6333-46.6667L62.1333-46.6667C60.5206-46.6667 59.2167-47.9733 59.2167-49.5833L59.2167-67.0833C59.2167-68.6933 60.5206-70 62.1333-70L79.6333-70C81.2457-70 82.55-68.6933 82.55-67.0833L82.55-49.5833C82.55-47.9733 81.2457-46.6667 79.6333-46.6667ZM76.7167-64.1667L65.05-64.1667L65.05-52.5L76.7167-52.5L76.7167-64.1667ZM70.9417-61.25L70.9708-61.25C72.5808-61.25 73.8875-59.9433 73.8875-58.3333C73.8875-56.7233 72.5808-55.4167 70.9708-55.4167C69.3608-55.4167 68.0398-56.7233 68.0398-58.3333C68.0398-59.9433 69.3317-61.25 70.9417-61.25ZM70.8833-23.3302L70.8833-18.9556C70.8833-17.3456 69.5794-16.0389 67.9667-16.0389C66.3539-16.0389 65.05-17.3456 65.05-18.9556L65.05-20.4139L59.2167-20.4167L59.2167-14.5833C59.2167-12.9733 57.9127-11.6667 56.3-11.6667C54.6873-11.6667 53.3833-12.9733 53.3833-14.5833L53.3833-23.3333L53.3833-23.3333L53.3833-23.3333C53.3833-23.66 53.4708-23.9602 53.57-24.255C53.5933-24.3219 53.5848-24.4036 53.6139-24.4677C53.6983-24.675 53.8527-24.8383 53.9811-25.0161C54.0717-25.1417 54.13-25.2875 54.2381-25.3952C54.3108-25.4683 54.4158-25.5033 54.4948-25.5706C54.7048-25.7398 54.9117-25.9144 55.1656-26.0225C55.5152-26.1683 55.8975-26.25 56.3-26.25L67.9667-26.2469C69.5794-26.2469 70.8833-24.9433 70.8833-23.3302ZM50.4667-46.6667L44.6333-46.6667C43.0204-46.6667 41.7167-47.9733 41.7167-49.5833C41.7167-51.1933 43.0204-52.5 44.6333-52.5L50.4667-52.5C52.0794-52.5 53.3833-51.1933 53.3833-49.5833C53.3833-47.9733 52.0794-46.6667 50.4667-46.6667ZM50.4667-55.4167L44.6333-55.4167C43.0204-55.4167 41.7167-56.7233 41.7167-58.3333C41.7167-58.3596 41.7312-58.383 41.7312-58.4092C41.7312-58.4383 41.7167-58.4588 41.7167-58.488L41.7167-67.0833C41.7167-68.6933 43.0204-70 44.6333-70C46.2462-70 47.55-68.6933 47.55-67.0833L47.55-61.25L50.4667-61.25C52.0794-61.25 53.3833-59.9433 53.3833-58.3333C53.3833-56.7233 52.0794-55.4167 50.4667-55.4167ZM32.9667-46.6667L15.4667-46.6667C13.8537-46.6667 12.55-47.9733 12.55-49.5833L12.55-67.0833C12.55-68.6933 13.8537-70 15.4667-70L32.9667-70C34.5795-70 35.8833-68.6933 35.8833-67.0833L35.8833-49.5833C35.8833-47.9733 34.5795-46.6667 32.9667-46.6667ZM30.05-64.1667L18.3833-64.1667L18.3833-52.5L30.05-52.5L30.05-64.1667ZM24.272-61.25L24.3042-61.25C25.9142-61.25 27.2208-59.9433 27.2208-58.3333C27.2208-56.7233 25.9142-55.4167 24.3042-55.4167C22.6942-55.4167 21.3729-56.7233 21.3729-58.3333C21.3729-59.9433 22.665-61.25 24.272-61.25ZM15.4667-40.8333L21.2942-40.8333L21.2971-40.8333L21.3-40.8333C22.9129-40.8333 24.2167-39.5267 24.2167-37.9167L24.2167-32.0833C24.2167-30.4733 22.9129-29.1667 21.3-29.1667C19.687-29.1667 18.3833-30.4733 18.3833-32.0833L18.3833-35L15.4667-35C13.8537-35 12.55-36.3067 12.55-37.9167C12.55-39.5267 13.8537-40.8333 15.4667-40.8333ZM15.4667-23.3333L32.9667-23.3333C34.5795-23.3333 35.8833-22.0267 35.8833-20.4167L35.8833-2.91667C35.8833-1.30667 34.5795 0 32.9667 0L15.4667 0C13.8537 0 12.55-1.30667 12.55-2.91667L12.55-20.4167C12.55-22.0267 13.8537-23.3333 15.4667-23.3333ZM18.3833-5.83333L30.05-5.83333L30.05-17.5L18.3833-17.5L18.3833-5.83333ZM24.3042-8.75C22.6942-8.75 21.3729-10.0567 21.3729-11.6667C21.3729-13.2767 22.665-14.5833 24.272-14.5833L24.3042-14.5833C25.9142-14.5833 27.2208-13.2767 27.2208-11.6667C27.2208-10.0567 25.9142-8.75 24.3042-8.75ZM50.4667-26.25C50.4667-24.64 49.1629-23.3333 47.55-23.3333C45.937-23.3333 44.6333-24.64 44.6333-26.25L44.6333-32.0833L30.05-32.0833C28.437-32.0833 27.1333-33.39 27.1333-35L27.1333-37.9167C27.1333-39.5267 28.437-40.8333 30.05-40.8333C31.6629-40.8333 32.9667-39.5267 32.9667-37.9167L47.55-37.9167C49.1629-37.9167 50.4667-36.61 50.4667-35C50.4667-34.8279 50.3967-34.6792 50.3675-34.5158C50.3967-34.3495 50.4667-34.2008 50.4667-34.0288L50.4667-26.25ZM44.6333-17.5C46.2462-17.5 47.55-16.1933 47.55-14.5833L47.55-5.83333L50.4667-5.83333C52.0794-5.83333 53.3833-4.52667 53.3833-2.91667C53.3833-1.30667 52.0794 0 50.4667 0L44.6333 0C43.0204 0 41.7167-1.30667 41.7167-2.91667L41.7167-14.5833C41.7167-16.1933 43.0204-17.5 44.6333-17.5ZM62.1333-11.6667C63.7461-11.6667 65.05-10.36 65.05-8.75L65.05-2.91667C65.05-1.30667 63.7461 0 62.1333 0C60.5206 0 59.2167-1.30667 59.2167-2.91667L59.2167-8.75C59.2167-10.36 60.5206-11.6667 62.1333-11.6667Z"/>
  </g>
 </g>
</svg>
