<svg width="61" height="37" viewBox="0 0 61 37" fill="none" xmlns="http://www.w3.org/2000/svg">
<g clip-path="url(#clip0_2331_89734)">
<path d="M60.3656 18.5586H36.6855V26.3366H60.3656V18.5586Z" fill="url(#paint0_linear_2331_89734)"/>
<path d="M60.3656 28.5632H36.6855V36.3412H60.3656V28.5632Z" fill="url(#paint1_linear_2331_89734)"/>
<path d="M60.3656 26.3359H36.6855V28.5626H60.3656V26.3359Z" fill="url(#paint2_linear_2331_89734)"/>
<path d="M55.5703 18.5586H53.3335V36.3395H55.5703V18.5586Z" fill="url(#paint3_linear_2331_89734)"/>
<path d="M60.3658 36.8971H45.6401C45.5666 36.8974 45.4937 36.8831 45.4257 36.8553C45.3577 36.8275 45.2959 36.7865 45.2438 36.7348C45.1917 36.6832 45.1504 36.6218 45.1222 36.5542C45.094 36.4866 45.0795 36.4141 45.0795 36.3409V18.5582C45.0795 18.485 45.094 18.4125 45.1222 18.3449C45.1504 18.2773 45.1917 18.2159 45.2438 18.1642C45.2959 18.1125 45.3577 18.0716 45.4257 18.0438C45.4937 18.0159 45.5666 18.0017 45.6401 18.0019H60.0564C60.1325 17.9976 60.2088 18.0088 60.2805 18.0349C60.3522 18.0609 60.4177 18.1012 60.4732 18.1534C60.5287 18.2056 60.5729 18.2684 60.6031 18.3382C60.6333 18.408 60.6488 18.4831 60.6488 18.5591C60.6488 18.635 60.6333 18.7102 60.6031 18.7799C60.5729 18.8497 60.5287 18.9126 60.4732 18.9647C60.4177 19.0169 60.3522 19.0572 60.2805 19.0833C60.2088 19.1093 60.1325 19.1205 60.0564 19.1162H46.1988V35.7847H59.8052V24.4918C59.8008 24.4159 59.8121 24.34 59.8383 24.2687C59.8644 24.1973 59.9049 24.132 59.9573 24.0768C60.0097 24.0216 60.0729 23.9776 60.143 23.9475C60.213 23.9175 60.2885 23.902 60.3648 23.902C60.4411 23.902 60.5166 23.9175 60.5867 23.9475C60.6568 23.9776 60.72 24.0216 60.7724 24.0768C60.8248 24.132 60.8653 24.1973 60.8914 24.2687C60.9176 24.34 60.9288 24.4159 60.9245 24.4918V36.3409C60.9245 36.4884 60.8656 36.6299 60.7608 36.7342C60.6561 36.8385 60.5139 36.8971 60.3658 36.8971Z" fill="url(#paint4_linear_2331_89734)"/>
<path d="M45.6404 36.8971H34.9024C34.8289 36.8974 34.7562 36.8831 34.6883 36.8553C34.6204 36.8274 34.5587 36.7864 34.5067 36.7347C34.4548 36.683 34.4137 36.6216 34.3857 36.554C34.3577 36.4864 34.3434 36.414 34.3436 36.3409V35.888C34.3423 35.7487 34.3935 35.614 34.4872 35.5105C34.5808 35.407 34.7101 35.3422 34.8494 35.329C34.9887 35.3158 35.1279 35.3551 35.2395 35.4391C35.351 35.5232 35.4269 35.6458 35.452 35.7829H45.0798V34.6614C45.0755 34.5855 45.0867 34.5096 45.1129 34.4383C45.1391 34.3669 45.1796 34.3016 45.232 34.2464C45.2844 34.1912 45.3475 34.1472 45.4176 34.1171C45.4877 34.0871 45.5632 34.0716 45.6395 34.0716C45.7158 34.0716 45.7913 34.0871 45.8614 34.1171C45.9314 34.1472 45.9946 34.1912 46.047 34.2464C46.0994 34.3016 46.1399 34.3669 46.1661 34.4383C46.1922 34.5096 46.2035 34.5855 46.1991 34.6614V36.3409C46.1994 36.414 46.1851 36.4864 46.1571 36.554C46.1291 36.6216 46.088 36.683 46.036 36.7347C45.9841 36.7864 45.9224 36.8274 45.8545 36.8553C45.7866 36.8831 45.7138 36.8974 45.6404 36.8971ZM34.9024 33.7718C34.8288 33.7718 34.756 33.7573 34.6881 33.7293C34.6202 33.7012 34.5585 33.6601 34.5066 33.6082C34.4547 33.5564 34.4136 33.4949 34.3856 33.4272C34.3577 33.3595 34.3434 33.2869 34.3436 33.2137V22.073C34.3393 21.9972 34.3505 21.9213 34.3767 21.8499C34.4029 21.7786 34.4434 21.7133 34.4958 21.6581C34.5482 21.6029 34.6113 21.5589 34.6814 21.5288C34.7515 21.4987 34.827 21.4832 34.9033 21.4832C34.9796 21.4832 35.0551 21.4987 35.1251 21.5288C35.1952 21.5589 35.2584 21.6029 35.3108 21.6581C35.3632 21.7133 35.4037 21.7786 35.4299 21.8499C35.456 21.9213 35.4673 21.9972 35.4629 22.073V33.2137C35.4629 33.287 35.4484 33.3596 35.4203 33.4273C35.3921 33.495 35.3508 33.5565 35.2987 33.6083C35.2467 33.6602 35.1849 33.7013 35.1169 33.7293C35.0489 33.7573 34.976 33.7718 34.9024 33.7718ZM45.6404 32.5434C45.5669 32.5436 45.494 32.5294 45.426 32.5016C45.358 32.4737 45.2962 32.4328 45.2441 32.3811C45.1921 32.3294 45.1507 32.268 45.1225 32.2004C45.0943 32.1328 45.0798 32.0604 45.0798 31.9872V20.8446C45.088 20.7024 45.1505 20.5686 45.2546 20.4708C45.3586 20.3729 45.4963 20.3184 45.6395 20.3184C45.7826 20.3184 45.9204 20.3729 46.0244 20.4708C46.1285 20.5686 46.191 20.7024 46.1991 20.8446V31.9872C46.1994 32.0603 46.1851 32.1327 46.1571 32.2003C46.1291 32.2679 46.088 32.3293 46.036 32.381C45.9841 32.4327 45.9224 32.4737 45.8545 32.5015C45.7866 32.5294 45.7138 32.5436 45.6404 32.5434ZM34.9024 19.9551C34.8289 19.9553 34.7562 19.9411 34.6883 19.9132C34.6204 19.8853 34.5587 19.8444 34.5067 19.7927C34.4548 19.741 34.4137 19.6796 34.3857 19.612C34.3577 19.5444 34.3434 19.4719 34.3436 19.3988V18.5582C34.3434 18.4851 34.3577 18.4126 34.3857 18.345C34.4137 18.2774 34.4548 18.216 34.5067 18.1643C34.5587 18.1126 34.6204 18.0717 34.6883 18.0438C34.7562 18.0159 34.8289 18.0017 34.9024 18.0019H45.2509C45.3271 17.9976 45.4034 18.0088 45.475 18.0349C45.5467 18.0609 45.6123 18.1012 45.6678 18.1534C45.7232 18.2056 45.7674 18.2684 45.7976 18.3382C45.8278 18.408 45.8434 18.4831 45.8434 18.5591C45.8434 18.635 45.8278 18.7102 45.7976 18.7799C45.7674 18.8497 45.7232 18.9126 45.6678 18.9647C45.6123 19.0169 45.5467 19.0572 45.475 19.0833C45.4034 19.1093 45.3271 19.1205 45.2509 19.1162H35.4629V19.3988C35.4639 19.4726 35.4501 19.5459 35.4223 19.6143C35.3946 19.6828 35.3534 19.745 35.3012 19.7975C35.2491 19.8499 35.1869 19.8915 35.1184 19.9198C35.05 19.9481 34.9765 19.9625 34.9024 19.9623V19.9551Z" fill="url(#paint5_linear_2331_89734)"/>
<path d="M40.1354 9.23689H4.04468V21.0915H40.1354V9.23689Z" fill="url(#paint6_linear_2331_89734)"/>
<path d="M40.1354 24.4866H4.04468V36.3411H40.1354V24.4866Z" fill="url(#paint7_linear_2331_89734)"/>
<path d="M40.1354 21.0918H4.04468V24.4853H40.1354V21.0918Z" fill="url(#paint8_linear_2331_89734)"/>
<path d="M13.7496 9.23788H10.3407V36.3405H13.7496V9.23788Z" fill="url(#paint9_linear_2331_89734)"/>
<path d="M40.1366 36.8962H25.6784C25.5302 36.8962 25.3881 36.8376 25.2833 36.7333C25.1786 36.6289 25.1197 36.4875 25.1197 36.3399V9.23735C25.1197 9.08967 25.1785 8.948 25.2832 8.8434C25.388 8.7388 25.5301 8.6798 25.6784 8.67932H31.0019C31.1449 8.68744 31.2792 8.74967 31.3775 8.85326C31.4758 8.95685 31.5306 9.09395 31.5306 9.23645C31.5306 9.37894 31.4758 9.51604 31.3775 9.61963C31.2792 9.72322 31.1449 9.78546 31.0019 9.79357H26.2481V35.7819H39.5869V9.79357H37.2682C37.1253 9.78546 36.9909 9.72322 36.8926 9.61963C36.7944 9.51604 36.7396 9.37894 36.7396 9.23645C36.7396 9.09395 36.7944 8.95685 36.8926 8.85326C36.9909 8.74967 37.1253 8.68744 37.2682 8.67932H40.1366C40.2102 8.67932 40.2831 8.69376 40.3511 8.7218C40.4191 8.74984 40.4809 8.79095 40.5329 8.84277C40.585 8.89458 40.6263 8.9561 40.6544 9.0238C40.6826 9.09151 40.6971 9.16407 40.6971 9.23735V36.3399C40.6971 36.4131 40.6826 36.4856 40.6544 36.5532C40.6262 36.6208 40.5849 36.6822 40.5328 36.7339C40.4807 36.7856 40.4189 36.8265 40.3509 36.8544C40.2829 36.8822 40.2101 36.8964 40.1366 36.8962Z" fill="url(#paint10_linear_2331_89734)"/>
<path d="M25.6788 36.8962H1.32711C1.17893 36.8962 1.03681 36.8376 0.932023 36.7333C0.827239 36.629 0.768372 36.4875 0.768372 36.34V18.2438C0.776525 18.1016 0.83904 17.9678 0.9431 17.87C1.04716 17.7721 1.18488 17.7176 1.32802 17.7176C1.47117 17.7176 1.60889 17.7721 1.71295 17.87C1.81701 17.9678 1.87952 18.1016 1.88768 18.2438V35.782H25.1201V30.8032C25.1282 30.6609 25.1907 30.5272 25.2948 30.4293C25.3988 30.3315 25.5366 30.2769 25.6797 30.2769C25.8228 30.2769 25.9606 30.3315 26.0646 30.4293C26.1687 30.5272 26.2312 30.6609 26.2394 30.8032V36.34C26.2394 36.4132 26.2248 36.4857 26.1967 36.5533C26.1685 36.6209 26.1271 36.6823 26.0751 36.734C26.023 36.7856 25.9612 36.8266 25.8932 36.8544C25.8252 36.8823 25.7523 36.8965 25.6788 36.8962ZM25.6788 25.1196C25.5308 25.1191 25.3889 25.0604 25.2842 24.9562C25.1796 24.8519 25.1205 24.7107 25.1201 24.5634V9.79365H1.88768V12.0058C1.87952 12.1481 1.81701 12.2819 1.71295 12.3797C1.60889 12.4776 1.47117 12.5321 1.32802 12.5321C1.18488 12.5321 1.04716 12.4776 0.9431 12.3797C0.83904 12.2819 0.776525 12.1481 0.768372 12.0058V9.23743C0.768371 9.08974 0.82718 8.94808 0.931912 8.84348C1.03664 8.73888 1.17876 8.67987 1.32711 8.67939H25.6788C25.7532 8.67819 25.827 8.69174 25.8961 8.71924C25.9652 8.74675 26.028 8.78766 26.0811 8.8396C26.1341 8.89154 26.1762 8.95346 26.2049 9.02176C26.2337 9.09006 26.2485 9.16338 26.2485 9.23743V24.5652C26.2482 24.6391 26.2333 24.7122 26.2044 24.7803C26.1756 24.8484 26.1334 24.9101 26.0804 24.9618C26.0274 25.0136 25.9646 25.0543 25.8957 25.0817C25.8267 25.1091 25.753 25.1226 25.6788 25.1214V25.1196Z" fill="url(#paint11_linear_2331_89734)"/>
<path d="M24.1431 9.79429C22.5324 9.79429 21.1001 9.08769 20.3102 7.90278C20.2585 7.82512 20.2271 7.73576 20.2191 7.6429C20.2111 7.55003 20.2266 7.45666 20.2643 7.37134C20.302 7.28602 20.3606 7.2115 20.4348 7.15461C20.509 7.09773 20.5963 7.06032 20.6888 7.0458C24.1468 6.50227 26.571 4.35892 28.9207 2.28623C29.5558 1.72638 30.1546 1.19915 30.7734 0.699096C30.8668 0.62265 30.9825 0.578399 31.1033 0.572982C31.224 0.567566 31.3433 0.601276 31.4431 0.669054C31.543 0.736833 31.6181 0.835025 31.6572 0.948897C31.6962 1.06277 31.6971 1.18618 31.6598 1.30061C31.1629 2.94028 30.6424 4.64337 29.7069 6.17252C28.6331 7.93721 27.1407 9.15654 25.5045 9.61493C25.0609 9.73559 24.603 9.79592 24.1431 9.79429ZM21.8609 7.94264C22.5192 8.43203 23.3216 8.69125 24.1431 8.68004C24.5029 8.68016 24.861 8.63202 25.2079 8.53691C26.5692 8.16006 27.8287 7.11465 28.7532 5.59637C29.2682 4.71842 29.6868 3.78784 30.0017 2.82071L29.6632 3.1124C27.5229 5.00935 25.1169 7.13096 21.8609 7.94264Z" fill="url(#paint12_linear_2331_89734)"/>
<path d="M16.5249 9.79431C15.6458 9.79814 14.7748 9.62817 13.9623 9.29425C12.7762 8.78927 11.7557 7.96412 11.016 6.91206C10.2762 5.86 9.84684 4.62295 9.77628 3.34071C9.77628 3.27367 9.77628 3.20482 9.77628 3.13597C9.77628 2.46017 9.94372 1.94925 10.2877 1.57964C10.4622 1.40069 10.6722 1.25993 10.9044 1.16634C11.1367 1.07275 11.3859 1.02839 11.6363 1.03611C12.001 1.03739 12.3607 1.12102 12.6883 1.2807C13.2689 1.56334 13.6929 2.00541 14.1042 2.43119L14.2662 2.59968C15.7386 4.10709 18.9182 6.36459 20.9675 7.12916C21.0575 7.16258 21.1373 7.21845 21.1993 7.29141C21.2614 7.36436 21.3036 7.45196 21.3218 7.5458C21.3401 7.63965 21.3338 7.73659 21.3037 7.82733C21.2735 7.91808 21.2204 7.99959 21.1495 8.06405C19.8732 9.18572 18.2274 9.80149 16.5249 9.79431ZM11.64 2.14492C11.544 2.14052 11.4481 2.15507 11.3579 2.18772C11.2676 2.22037 11.1847 2.27048 11.114 2.33516C10.972 2.48916 10.8992 2.75912 10.8992 3.13597C10.8992 3.18851 10.8992 3.24106 10.8992 3.29179C10.9669 4.36024 11.3287 5.38952 11.9451 6.2668C12.5615 7.14407 13.4086 7.83545 14.3936 8.26516C15.0693 8.54308 15.7938 8.68413 16.5249 8.68006C17.6403 8.67935 18.7329 8.36536 19.6771 7.77416C17.5204 6.736 14.8286 4.76296 13.4691 3.36969L13.2998 3.18851C12.9358 2.8171 12.6027 2.4638 12.2078 2.26812C12.0301 2.1855 11.8361 2.14341 11.64 2.14492Z" fill="url(#paint13_linear_2331_89734)"/>
</g>
<defs>
<linearGradient id="paint0_linear_2331_89734" x1="38.6475" y1="13.6305" x2="60.0514" y2="32.9118" gradientUnits="userSpaceOnUse">
<stop stop-color="#E62F4F"/>
<stop offset="1" stop-color="#B31093"/>
</linearGradient>
<linearGradient id="paint1_linear_2331_89734" x1="4315.44" y1="827.055" x2="4912.13" y2="2456.12" gradientUnits="userSpaceOnUse">
<stop stop-color="#E62F4F"/>
<stop offset="1" stop-color="#B31093"/>
</linearGradient>
<linearGradient id="paint2_linear_2331_89734" x1="38.1488" y1="17.4581" x2="58.5506" y2="37.2826" gradientUnits="userSpaceOnUse">
<stop stop-color="#EBEAF7"/>
<stop offset="1" stop-color="#D9CDFE"/>
</linearGradient>
<linearGradient id="paint3_linear_2331_89734" x1="547.975" y1="1386.09" x2="1028.3" y2="1444.54" gradientUnits="userSpaceOnUse">
<stop stop-color="#EBEAF7"/>
<stop offset="1" stop-color="#D9CDFE"/>
</linearGradient>
<linearGradient id="paint4_linear_2331_89734" x1="43.7254" y1="14.6121" x2="54.7208" y2="30.2259" gradientUnits="userSpaceOnUse">
<stop stop-color="#5E6175"/>
<stop offset="1" stop-color="#343A40"/>
</linearGradient>
<linearGradient id="paint5_linear_2331_89734" x1="2278.46" y1="2107.15" x2="3487.82" y2="3179.61" gradientUnits="userSpaceOnUse">
<stop stop-color="#5E6175"/>
<stop offset="1" stop-color="#343A40"/>
</linearGradient>
<linearGradient id="paint6_linear_2331_89734" x1="4.04468" y1="15.1651" x2="40.1372" y2="15.1651" gradientUnits="userSpaceOnUse">
<stop stop-color="#4C58CB"/>
<stop offset="1" stop-color="#68319E"/>
</linearGradient>
<linearGradient id="paint7_linear_2331_89734" x1="653.678" y1="1976.7" x2="7810.83" y2="1976.7" gradientUnits="userSpaceOnUse">
<stop stop-color="#4C58CB"/>
<stop offset="1" stop-color="#68319E"/>
</linearGradient>
<linearGradient id="paint8_linear_2331_89734" x1="621.918" y1="162.091" x2="765.55" y2="1399.78" gradientUnits="userSpaceOnUse">
<stop stop-color="#EBEAF7"/>
<stop offset="1" stop-color="#D9CDFE"/>
</linearGradient>
<linearGradient id="paint9_linear_2331_89734" x1="-5.88551" y1="1867.12" x2="1004.55" y2="1970.09" gradientUnits="userSpaceOnUse">
<stop stop-color="#EBEAF7"/>
<stop offset="1" stop-color="#D9CDFE"/>
</linearGradient>
<linearGradient id="paint10_linear_2331_89734" x1="703.828" y1="-422.756" x2="4910.6" y2="1984.57" gradientUnits="userSpaceOnUse">
<stop stop-color="#5E6175"/>
<stop offset="1" stop-color="#343A40"/>
</linearGradient>
<linearGradient id="paint11_linear_2331_89734" x1="-296.075" y1="1080.64" x2="4572.34" y2="5637.9" gradientUnits="userSpaceOnUse">
<stop stop-color="#5E6175"/>
<stop offset="1" stop-color="#343A40"/>
</linearGradient>
<linearGradient id="paint12_linear_2331_89734" x1="874.511" y1="-415.336" x2="2418.94" y2="1575.98" gradientUnits="userSpaceOnUse">
<stop stop-color="#5E6175"/>
<stop offset="1" stop-color="#343A40"/>
</linearGradient>
<linearGradient id="paint13_linear_2331_89734" x1="459.065" y1="-93.2129" x2="1902.31" y2="1880.59" gradientUnits="userSpaceOnUse">
<stop stop-color="#5E6175"/>
<stop offset="1" stop-color="#343A40"/>
</linearGradient>
<clipPath id="clip0_2331_89734">
<rect width="60.1567" height="36.321" fill="white" transform="translate(0.769745 0.575012)"/>
</clipPath>
</defs>
</svg>
