<svg width="20" height="20" viewBox="0 0 20 20" fill="none" xmlns="http://www.w3.org/2000/svg">
<path fill-rule="evenodd" clip-rule="evenodd" d="M17.2727 7.87883C15.7665 7.87883 14.5455 9.09987 14.5455 10.6061C14.5455 12.1123 15.7665 13.3334 17.2727 13.3334C18.779 13.3334 20 12.1123 20 10.6061C20 9.09987 18.779 7.87883 17.2727 7.87883ZM10 7.87883C8.49377 7.87883 7.27273 9.09987 7.27273 10.6061C7.27273 12.1123 8.49377 13.3334 10 13.3334C11.5062 13.3334 12.7273 12.1123 12.7273 10.6061C12.7273 9.09987 11.5062 7.87883 10 7.87883ZM0 10.6061C0 9.09987 1.22104 7.87883 2.72727 7.87883C4.2335 7.87883 5.45455 9.09987 5.45455 10.6061C5.45455 12.1123 4.2335 13.3334 2.72727 13.3334C1.22104 13.3334 0 12.1123 0 10.6061Z" fill="white"/>
</svg>
