<svg width="16" height="16" viewBox="0 0 16 16" fill="none" xmlns="http://www.w3.org/2000/svg">
<path d="M7.94872 0.00193614C7.88007 0.00736945 7.8129 0.0234686 7.74999 0.0495622L0.365377 3.09763C0.256345 3.14266 0.163759 3.21616 0.0988892 3.30917C0.0340193 3.40218 -0.000336997 3.5107 2.49184e-06 3.62152V12.3847C0.000896948 12.4945 0.0358313 12.6018 0.100627 12.6936C0.165423 12.7855 0.257337 12.858 0.365377 12.9027L7.74999 15.9507C7.8287 15.9832 7.91387 16 8 16C8.08613 16 8.17131 15.9832 8.25001 15.9507L15.6346 12.9027C15.7427 12.858 15.8346 12.7855 15.8994 12.6936C15.9642 12.6018 15.9991 12.4945 16 12.3847V3.62152C16.0003 3.5107 15.966 3.40218 15.9011 3.30917C15.8362 3.21616 15.7437 3.14266 15.6346 3.09763L8.25001 0.0495622C8.15549 0.0104122 8.05186 -0.00596819 7.94872 0.00193614ZM8 1.19259L13.8718 3.62152L8 6.04451L2.12821 3.62152L8 1.19259ZM1.23077 4.49666L7.38462 7.03869V14.5517L1.23077 12.0097V4.49666ZM14.7692 4.49666V12.0097L8.61538 14.5517V7.03869L14.7692 4.49666Z" fill="#ffffff"/>
</svg>
