<svg width="20" height="20" viewBox="0 0 20 20" fill="none" xmlns="http://www.w3.org/2000/svg">
<path fill-rule="evenodd" clip-rule="evenodd" d="M0.0646496 19.4856C0.148609 19.6888 0.311489 19.8511 0.514671 19.9356C0.617104 19.9774 0.724571 20 0.833717 20H7.50011C7.9602 20 8.33298 19.6269 8.33298 19.166C8.33298 18.706 7.9602 18.3338 7.50011 18.3338L2.83951 18.3388L8.92238 12.256C9.24814 11.9306 9.24814 11.4028 8.92238 11.0774C8.59662 10.752 8.06935 10.752 7.74443 11.0774L1.56333 17.2589V12.4852C1.56333 12.0251 1.29382 11.6662 0.833717 11.6662C0.37278 11.6662 0 12.0393 0 12.5002V19.166C0 19.166 0 19.166 0 19.1669C0 19.2748 0.0218296 19.3835 0.0646496 19.4856ZM11.667 9.16688C11.8803 9.16688 12.0935 9.0849 12.2556 8.92263L18.351 2.82727L18.3334 7.49979C18.3334 7.95985 18.7062 8.33292 19.1671 8.33292C19.6272 8.33292 20 7.95985 20 7.49979V0.833124C20 0.832288 20 0.831451 20 0.830615C19.9992 0.723547 19.9773 0.615642 19.9362 0.514429C19.8514 0.311167 19.6893 0.148892 19.4853 0.0644082C19.3829 0.0217482 19.2746 0 19.1654 0L12.4999 0C12.0398 0 11.667 0.373066 11.667 0.833124C11.667 1.29318 12.018 1.61104 12.4781 1.61104L17.2109 1.61104L11.0776 7.74404C10.7519 8.06943 10.7519 8.59724 11.0776 8.92263C11.2405 9.0849 11.4538 9.16688 11.667 9.16688Z" fill="white"/>
</svg>
