<svg width="24" height="24" viewBox="0 0 24 24" fill="none" xmlns="http://www.w3.org/2000/svg">
<path fill-rule="evenodd" clip-rule="evenodd" d="M12 24C5.383 24 0 18.617 0 12C0 5.383 5.383 0 12 0C18.617 0 24 5.383 24 12C24 18.617 18.617 24 12 24ZM11.752 16.658C11.555 16.884 11.278 17 11 17C10.78 17 10.559 16.928 10.376 16.781L5.375 12.781C4.944 12.436 4.874 11.807 5.219 11.375C5.565 10.944 6.195 10.874 6.624 11.219L10.877 14.621L17.248 7.342C17.612 6.926 18.243 6.884 18.659 7.247C19.074 7.611 19.116 8.243 18.752 8.658L11.752 16.658Z" fill="#12A378"/>
</svg>
