<svg width="14" height="12" viewBox="0 0 14 12" fill="none" xmlns="http://www.w3.org/2000/svg">
<path fill-rule="evenodd" clip-rule="evenodd" d="M11.4957 5.8288C11.3817 5.94305 11.2324 5.99989 11.0832 5.99989C10.9339 5.99989 10.7846 5.94305 10.6712 5.8288C10.4431 5.60146 10.4431 5.23175 10.6712 5.00441L12.0311 3.64391L0.558919 3.64391C0.23685 3.64391 0 3.40544 0 3.08318C0 2.76093 0.260946 2.49961 0.583603 2.49961L12.0082 2.49961L10.6712 1.16254C10.4431 0.934619 10.4431 0.564904 10.6712 0.337568C10.8986 0.109645 11.2677 0.109645 11.4957 0.337568L13.8284 2.67011C13.8825 2.72401 13.9254 2.78905 13.9547 2.86053C13.9847 2.93202 14 3.0076 14 3.08377C14 3.29001 13.9148 3.45348 13.7743 3.55075L11.4957 5.8288ZM0.0452542 8.69335C0.07464 8.62246 0.116956 8.55801 0.171026 8.5041L2.50426 6.17097C2.7323 5.94305 3.10138 5.94305 3.32883 6.17097C3.55686 6.39831 3.55686 6.76803 3.32883 6.99595L1.99177 8.3336L13.4164 8.3336C13.7391 8.3336 14 8.59433 14 8.91659C14 9.23884 13.7391 9.49958 13.4164 9.49958L1.99177 9.49958L3.32883 10.8372C3.55686 11.0652 3.55686 11.4343 3.32883 11.6622C3.2154 11.7759 3.06612 11.8333 2.91684 11.8333C2.76756 11.8333 2.61828 11.7759 2.50426 11.6622L0.171026 9.32908C0.116956 9.27517 0.07464 9.21072 0.0452542 9.13982C-0.0141052 8.99686 -0.0141052 8.83632 0.0452542 8.69335Z" fill="white"/>
</svg>
