<?xml version="1.0" encoding="utf-8"?>
<!-- Generator: Adobe Illustrator 22.1.0, SVG Export Plug-In . SVG Version: 6.00 Build 0)  -->
<svg version="1.1"
	 id="Layer_1" xmlns:cc="http://creativecommons.org/ns#" xmlns:dc="http://purl.org/dc/elements/1.1/" xmlns:rdf="http://www.w3.org/1999/02/22-rdf-syntax-ns#"
	 xmlns="http://www.w3.org/2000/svg" xmlns:xlink="http://www.w3.org/1999/xlink" x="0px" y="0px" viewBox="0 0 100 100"
	 style="enable-background:new 0 0 100 100;" xml:space="preserve">
<style type="text/css">
	.st0{fill:#F7931A;}
	.st1{fill:#FFFFFF;}
</style>
<g transform="translate(0.00630876,-0.00301984)">
	<path class="st0" d="M98.5,62.1c-6.7,26.8-33.8,43.1-60.6,36.4C11.1,91.8-5.2,64.7,1.5,37.9C8.2,11.1,35.3-5.2,62.1,1.5
		C88.9,8.2,105.2,35.3,98.5,62.1z"/>
	<path class="st1" d="M72,42.9c1-6.7-4.1-10.2-11-12.6l2.2-9l-5.5-1.4l-2.2,8.8c-1.4-0.4-2.9-0.7-4.4-1l2.2-8.8l-5.5-1.4l-2.2,9
		c-1.2-0.3-2.4-0.5-3.5-0.8l0,0l-7.6-1.9l-1.5,5.9c0,0,4.1,0.9,4,1c2.2,0.6,2.6,2,2.6,3.2L37.1,44c0.2,0,0.4,0.1,0.6,0.2
		c-0.2,0-0.4-0.1-0.6-0.1l-3.6,14.4c-0.3,0.7-1,1.7-2.5,1.3c0.1,0.1-4-1-4-1L24.3,65l7.1,1.8c1.3,0.3,2.6,0.7,3.9,1l-2.3,9.1
		l5.5,1.4l2.2-9c1.5,0.4,2.9,0.8,4.4,1.1l-2.2,9l5.5,1.4l2.3-9.1c9.4,1.8,16.4,1.1,19.3-7.4c2.4-6.8-0.1-10.7-5-13.3
		C68.6,50.1,71.3,47.8,72,42.9z M59.5,60.5c-1.7,6.8-13.2,3.1-16.9,2.2l3-12.1C49.3,51.5,61.3,53.4,59.5,60.5z M61.2,42.8
		c-1.5,6.2-11.1,3-14.2,2.3l2.7-11C52.8,34.9,62.8,36.3,61.2,42.8z"/>
</g>
</svg>
