<svg width="500" height="176" xmlns="http://www.w3.org/2000/svg"><g stroke="#FFF" stroke-width="1.25" fill="none" fill-rule="evenodd" opacity=".216" stroke-linecap="round"><path d="M344.84 54.273c1.828-1.589 4.44-2.275 7.026-1.346l63.702 22.823 64.437 23.084c2.504.889 4.043 2.973 4.456 5.267"/><path d="M485.206 103.453c.79 2.724.336 5.559-1.69 7.32l-50.141 43.587-50.14 43.586c-2.032 1.766-4.902 1.823-7.49.66M344.84 54.273c-1.827 1.588-2.87 4.079-2.31 6.77l13.736 66.258 13.891 67.023c.532 2.603 2.382 4.417 4.595 5.145M379.044 93.62l5.586 29.459 3.057 26.1M430.947 112.53l-25.173-9.655-25.168-9.657M432.525 112.66l-22.57 19.62-22.57 19.62"/><g><path d="M163.157 90.203c.332-1.71 1.508-3.254 3.385-3.872l46.19-15.266 46.723-15.443c1.812-.605 3.606-.106 4.856 1.011"/><path d="M264.446 55.937c1.654 1.193 2.65 3 2.282 4.895l-9.113 46.886-9.114 46.886c-.37 1.9-1.97 3.202-3.951 3.689M163.157 90.203c-.332 1.709.18 3.581 1.688 4.857l37.109 31.458 37.535 31.822c1.453 1.24 3.304 1.448 4.88.88M199.95 97.355l16.204 14.217 13.284 13.434M237.724 85.094l-18.534 5.673-18.533 5.669M238.676 84.47l-4.102 21.105-4.103 21.105"/></g><g><path d="M103.395 31.083c1.068-.018 2.146.49 2.756 1.538l15.056 25.777 15.23 26.074a3 3 0 0 1 .013 3.043"/><path d="M136.885 87.507c-.505 1.145-1.463 1.974-2.647 1.995l-29.305.511-29.304.512c-1.188.02-2.174-.774-2.719-1.901M103.395 31.083c-1.068.019-2.127.565-2.7 1.633L86.548 59.003l-14.312 26.59a3 3 0 0 0 .094 3.041M103.797 54.08L97.33 65.62l-6.368 9.687M115.333 74.882l-5.77-10.401-5.766-10.401M118.415 76.828l-13.71.24-13.708.239"/></g><g><path d="M45.057 29.305c.535-.45 1.287-.64 2.02-.369l18.037 6.645 18.245 6.72a1.89 1.89 0 0 1 1.233 1.512M84.592 43.813a2.035 2.035 0 0 1-.72 1.875l-14.71 12.343-14.71 12.343c-.595.5-1.344.599-1.973.385M45.057 29.305c-.534.448-.852 1.156-.713 1.924l3.412 18.917 3.45 19.135a1.89 1.89 0 0 0 1.274 1.477M54.485 40.54l1.26 8.471.567 7.51M68.86 45.992l-7.188-2.726-7.187-2.726M70.882 46.145l-6.862 5.758-6.863 5.758"/></g><g><path d="M21.995 5.126a1.83 1.83 0 0 1 1.443-1.173l17.306-2.6 17.505-2.63a1.739 1.739 0 0 1 1.653.66"/><path d="M59.994-.858c.509.528.746 1.234.495 1.888l-6.206 16.168-6.207 16.169c-.251.655-.9 1.02-1.631 1.072M21.995 5.126a1.83 1.83 0 0 0 .288 1.838l11.12 13.512 11.249 13.668c.435.532 1.076.72 1.67.615M34.55 9.946l4.826 6.072 3.843 5.612M48.38 8.184l-6.915.882-6.914.88M50.118 6.922l-2.904 7.564-2.903 7.563"/></g></g></svg>