<svg width="17" height="17" xmlns="http://www.w3.org/2000/svg" xmlns:xlink="http://www.w3.org/1999/xlink"><defs><path id="a" d="M.002.024h16.974V17H.002z"/></defs><g fill="none" fill-rule="evenodd"><g><mask id="b" fill="#fff"><use xlink:href="#a"/></mask><path d="M16.204 11.984a.386.386 0 0 1-.386.386h-2.7a1.545 1.545 0 0 1-1.544-1.543c0-.851.693-1.543 1.544-1.543h2.7c.213 0 .386.173.386.385v2.315zm-1.543 4.244H1.543a.773.773 0 0 1-.771-.771v-9.26c0-.425.346-.771.771-.771h13.118c.425 0 .772.346.772.771v2.315h-2.315a2.317 2.317 0 0 0-2.315 2.315 2.317 2.317 0 0 0 2.315 2.315h2.315v2.315a.773.773 0 0 1-.772.771zm-3.8-15.33a.757.757 0 0 1 1.036.281l.002.002-5.965 3.473H4.411L10.86.899zm2.186 2.288l.84 1.468h-3.363l2.523-1.468zm-5.58 1.468l4.815-2.803.381.665-3.672 2.138H7.468zm8.737 3.93V6.196a1.54 1.54 0 0 0-1.42-1.53L12.568.796a1.525 1.525 0 0 0-2.095-.565L2.877 4.654H1.543C.693 4.654 0 5.346 0 6.197v9.26C0 16.307.692 17 1.543 17h13.118c.851 0 1.543-.692 1.543-1.543V13.07c.448-.16.772-.584.772-1.087V9.67c0-.502-.324-.926-.772-1.086z" fill="#A1A8F2" mask="url(#b)"/></g><path d="M13.095 10.108a.69.69 0 0 0 0 1.378.69.69 0 0 0 0-1.378" fill="#A1A8F2"/></g></svg>
