<?xml version="1.0" encoding="utf-8"?>
<!-- Generator: Adobe Illustrator 22.1.0, SVG Export Plug-In . SVG Version: 6.00 Build 0)  -->
<svg version="1.1" id="Layer_1" xmlns="http://www.w3.org/2000/svg" xmlns:xlink="http://www.w3.org/1999/xlink" x="0px" y="0px"
	 viewBox="0 0 100 100" style="enable-background:new 0 0 100 100;" xml:space="preserve">
<style type="text/css">
	.st0{fill:#7F7F7F;}
	.st1{fill:#FFFFFF;}
</style>
<title>Litecoin</title>
<path class="st0" d="M100,50c0,27.6-22.4,50-50,50C22.4,100,0,77.6,0,50S22.4,0,50,0C77.6,0,100,22.4,100,50"/>
<path class="st0" d="M89.4,50c0,21.7-17.6,39.4-39.4,39.4S10.6,71.7,10.6,50c0-21.8,17.6-39.4,39.4-39.4
	C71.8,10.6,89.4,28.2,89.4,50"/>
<path class="st1" d="M47.1,63.4l3.2-12.2l7.7-2.8l1.9-7.2L59.9,41l-7.6,2.8l5.5-20.5H42.3L35.1,50l-6,2.2l-2,7.4l5.9-2.2L29,73.2
	h41.2l2.6-9.8L47.1,63.4"/>
</svg>
