<svg width="18" height="16" xmlns="http://www.w3.org/2000/svg"><path d="M16.712 6.958h-.421V4.293c0-1.09-.843-1.972-1.874-1.972h-.388l.004-.99C14.033.595 13.466 0 12.769 0H1.536C.697 0 .01.711 0 1.594V14.67C0 15.404.566 16 1.263 16h13.158c1.035 0 1.873-.887 1.873-1.973V11.36h.422c.544 0 .987-.467.987-1.04V7.998c-.003-.573-.446-1.04-.991-1.04zM1.562.941h11.266c.215 0 .393.185.393.412l-.003 1H1.563c-.368 0-.667-.315-.667-.704 0-.388.3-.708.667-.708zm13.9 13.063c0 .58-.45 1.055-1.003 1.055H1.29a.404.404 0 0 1-.393-.413V3.059c.204.103.43.16.669.16h12.894c.552 0 1.003.475 1.003 1.056v2.664h-2.976c-.546 0-.989.466-.989 1.04v2.32c0 .574.443 1.04.989 1.04h2.976v2.665zm1.345-3.54c0 .07-.051.124-.116.124h-4.25c-.066 0-.116-.054-.116-.123V8.123c0-.065.05-.123.116-.123h4.25c.061 0 .116.054.116.123v2.342z" fill="#A1A8F2" fill-rule="evenodd"/></svg>
