<?xml version="1.0" encoding="UTF-8"?>
<svg width="18px" height="16px" viewBox="0 0 18 16" version="1.1" xmlns="http://www.w3.org/2000/svg" xmlns:xlink="http://www.w3.org/1999/xlink">
    <!-- Generator: Sketch 50.2 (55047) - http://www.bohemiancoding.com/sketch -->
    <title>wallet (2)</title>
    <desc>Created with Sketch.</desc>
    <defs></defs>
    <g id="settings" stroke="none" stroke-width="1" fill="none" fill-rule="evenodd">
        <g id="1-full" transform="translate(-919.000000, -382.000000)" fill="#A1A8F2">
            <g id="wallet" transform="translate(850.000000, 221.000000)">
                <g id="header" transform="translate(-93.000000, -6.000000)">
                    <path d="M178.711907,173.958259 L178.290885,173.958259 L178.290885,171.293416 C178.290885,170.203766 177.448432,169.320614 176.417411,169.320614 L176.028974,169.320614 L176.032514,168.330462 C176.032514,167.596414 175.466129,167 174.769039,167 L163.535776,167 C162.697044,167 162.010801,167.711061 162,168.594213 L162,181.669538 C162,182.403538 162.566385,183 163.263475,183 L176.421132,183 C177.455739,183 178.294425,182.112882 178.294425,181.027198 L178.294425,178.358628 L178.715628,178.358628 C179.26023,178.358628 179.703081,177.892297 179.703081,177.318822 L179.703081,174.998017 C179.699541,174.424542 179.256508,173.958259 178.711907,173.958259 Z M163.562712,167.941176 L174.828012,167.941176 C175.042787,167.941176 175.221289,168.125821 175.221289,168.352925 L175.217739,169.352941 L163.562712,169.352941 C163.195059,169.352941 162.896359,169.037554 162.896359,168.649126 C162.896359,168.260506 163.195059,167.941176 163.562712,167.941176 Z M177.462185,181.003767 C177.462185,181.584887 177.011456,182.058824 176.459061,182.058824 L163.288895,182.058824 C163.074342,182.058824 162.896359,181.875327 162.896359,181.645909 L162.896359,170.058824 C163.099918,170.162088 163.325101,170.219574 163.565002,170.219574 L176.459061,170.219574 C177.011456,170.219574 177.462185,170.693511 177.462185,171.274583 L177.462185,173.9392 L174.485612,173.9392 C173.940486,173.9392 173.497207,174.405444 173.497207,174.97887 L173.497207,177.299479 C173.497207,177.872906 173.940486,178.339197 174.485612,178.339197 L177.462185,178.339197 L177.462185,181.003767 Z M178.806723,177.464896 C178.806723,177.534184 178.755994,177.588235 178.69074,177.588235 L174.440687,177.588235 C174.375477,177.588235 174.32493,177.534184 174.32493,177.464896 L174.32493,175.123339 C174.32493,175.057812 174.375477,175 174.440687,175 L178.69074,175 C178.752465,175 178.806723,175.054051 178.806723,175.123339 L178.806723,177.464896 Z" id="wallet-(2)"></path>
                </g>
            </g>
        </g>
    </g>
</svg>
