<svg width="333" height="189" viewBox="0 0 333 189" fill="none" xmlns="http://www.w3.org/2000/svg">
<g clip-path="url(#clip0_4117_210973)">
<rect width="282.31" height="28.3289" transform="translate(7.24585 12.8281)" fill="white"/>
<rect x="10.0779" y="15.6602" width="60.1846" height="22.6644" rx="2.83222" fill="#E8E9EE"/>
<path fill-rule="evenodd" clip-rule="evenodd" d="M26.5243 24.9897L26.1683 24.0419L26.4157 23.4974C26.4474 23.4273 26.4321 23.345 26.3771 23.2906L25.7042 22.623C25.41 22.3313 24.9709 22.231 24.5754 22.3655L24.3873 22.4295L23.4045 21.3281H21.9586H21.0423H19.7906L18.8203 22.4428L18.6374 22.3797C18.2383 22.242 17.7939 22.3434 17.4977 22.6397L16.8129 23.3198C16.769 23.3633 16.7569 23.4287 16.7824 23.4845L17.0409 24.0496L16.6866 24.997L16.9159 25.8512L17.9601 29.7444C18.0804 30.1933 18.3574 30.5864 18.7428 30.8556C18.7428 30.8556 20.0106 31.7324 21.2618 32.5287C21.3718 32.5988 21.4868 32.65 21.6103 32.6481C21.7338 32.6498 21.8489 32.5988 21.9586 32.5284C23.3638 31.6252 24.4755 30.852 24.4755 30.852C24.8605 30.5824 25.1371 30.1888 25.2569 29.7398L26.2961 25.845L26.5243 24.9897Z" fill="url(#paint0_linear_4117_210973)"/>
<path fill-rule="evenodd" clip-rule="evenodd" d="M25.4132 25.1777L25.3969 25.2285L25.371 25.3195C25.3018 25.404 25.156 25.5662 25.0468 25.6801L24.0429 26.7263C23.9337 26.84 23.8721 26.9827 23.9344 27.1265L24.0698 27.4537C24.132 27.5973 24.1382 27.835 24.0785 27.9946C24.0179 28.157 23.9135 28.3005 23.7767 28.4099L23.6719 28.4936C23.5484 28.5924 23.3295 28.6184 23.1854 28.5512L22.723 28.3362C22.5791 28.2692 22.3643 28.1289 22.2457 28.0243L21.8083 27.6388C21.7229 27.5635 21.7181 27.4342 21.7976 27.3532L22.8629 26.6486C22.995 26.5612 23.0649 26.3997 22.9898 26.2619L22.6111 25.5863C22.536 25.4485 22.506 25.2654 22.5443 25.1794C22.5827 25.0933 22.7361 24.9777 22.8853 24.9223L24.1219 24.4719C24.271 24.4166 24.2631 24.3594 24.1043 24.3448L23.3141 24.2872C23.1553 24.2726 23.0389 24.2952 22.8853 24.3372L22.2872 24.4823C22.1337 24.5243 22.1012 24.6845 22.13 24.8379L22.3767 26.1494C22.4057 26.303 22.4198 26.4576 22.4082 26.4931C22.3966 26.5287 22.2599 26.5859 22.1044 26.6205L21.8999 26.6659C21.7444 26.7005 21.4896 26.7021 21.3337 26.6696L21.0863 26.6179C20.9303 26.5853 20.7932 26.5296 20.7816 26.4942C20.77 26.4587 20.784 26.3038 20.8128 26.1504L21.0579 24.8386C21.0868 24.6851 21.054 24.5251 20.9005 24.4832L20.3022 24.3389C20.1486 24.297 20.0321 24.2748 19.8733 24.2894L19.0832 24.3478C18.9244 24.3625 18.9166 24.4196 19.0657 24.4748L20.303 24.9238C20.4521 24.9791 20.6057 25.0945 20.6441 25.1806C20.6827 25.2665 20.6528 25.4495 20.578 25.5874L20.1999 26.2632C20.1251 26.4011 20.1951 26.5627 20.3274 26.6499L21.3936 27.3535C21.4732 27.4343 21.4685 27.5638 21.3833 27.6391L20.9462 28.0251C20.8278 28.1298 20.6132 28.2703 20.4692 28.3376L20.0072 28.5532C19.8633 28.6204 19.6443 28.5948 19.5207 28.4962L19.416 28.4126C19.2789 28.3033 19.1743 28.1599 19.1086 27.9847C19.0536 27.838 19.0594 27.6005 19.1214 27.4566L19.2565 27.1294C19.3186 26.9856 19.2568 26.8429 19.1474 26.7292L18.1424 25.6842C18.0332 25.5705 17.8871 25.4085 17.8179 25.3242L17.7917 25.2331L17.7755 25.1823C17.7739 25.1239 17.7952 24.9377 17.8195 24.8873C17.8437 24.8371 17.9365 24.69 18.0258 24.5607L18.2409 24.249C18.3302 24.1196 18.4846 23.9139 18.5839 23.7917L18.8991 23.4046C18.9984 23.2825 19.0832 23.1832 19.096 23.184C19.0966 23.1832 19.2252 23.2067 19.3818 23.236L19.8592 23.3259C20.0158 23.3553 20.1885 23.3876 20.2431 23.3976C20.2976 23.4078 20.4663 23.3766 20.6181 23.3285L20.9615 23.2195C21.1131 23.1712 21.3434 23.1078 21.473 23.0782L21.593 23.08L21.7131 23.0781C21.8426 23.1074 22.0729 23.1707 22.2246 23.2187L22.5683 23.3273C22.72 23.3753 22.8888 23.4062 22.9433 23.3961C22.9901 23.3874 23.124 23.3621 23.26 23.3363L23.3271 23.3236L23.8044 23.2334C23.961 23.2038 24.0896 23.1802 24.0987 23.1809C24.103 23.1802 24.1877 23.2792 24.2873 23.4014L24.6029 23.7882C24.7025 23.9101 24.857 24.1156 24.9466 24.2449L25.162 24.5563C25.2514 24.6855 25.3911 24.9208 25.3998 24.9742C25.4087 25.0277 25.4146 25.1193 25.4132 25.1777ZM21.6584 28.3001C21.6724 28.3001 21.8045 28.3488 21.9518 28.4087L22.0885 28.4642C22.2358 28.5239 22.4728 28.6306 22.6149 28.7013L23.0182 28.9019C23.1603 28.9725 23.1706 29.1047 23.0409 29.1956L22.6968 29.4366C22.5672 29.5275 22.3632 29.6852 22.2437 29.7874L21.8099 30.1582C21.6908 30.2601 21.4979 30.2605 21.3811 30.1595C21.2641 30.0584 21.0707 29.8928 20.951 29.7916C20.8314 29.6904 20.627 29.5339 20.4967 29.4439L20.1539 29.2067C20.0236 29.1165 20.0329 28.9837 20.1742 28.9116L20.5797 28.7048C20.7211 28.6326 20.9573 28.5245 21.1046 28.4648L21.2412 28.409C21.3884 28.3492 21.5204 28.3001 21.5345 28.3001H21.5965H21.6584Z" fill="url(#paint1_linear_4117_210973)"/>
<path d="M36.2504 26.9335C36.5015 26.9732 36.7295 27.0756 36.9344 27.2408C37.1459 27.406 37.3111 27.6109 37.43 27.8554C37.5556 28.0999 37.6184 28.3609 37.6184 28.6385C37.6184 28.9888 37.5292 29.306 37.3507 29.5901C37.1723 29.8677 36.9113 30.0891 36.5676 30.2543C36.2306 30.4129 35.8308 30.4922 35.3682 30.4922H32.7909V23.583H35.2691C35.7383 23.583 36.1381 23.6623 36.4685 23.8209C36.7989 23.9729 37.0467 24.1811 37.212 24.4454C37.3772 24.7097 37.4598 25.0071 37.4598 25.3376C37.4598 25.7473 37.3474 26.0876 37.1227 26.3586C36.9047 26.6229 36.6139 26.8146 36.2504 26.9335ZM33.6929 26.5667H35.2096C35.6325 26.5667 35.9596 26.4676 36.1909 26.2694C36.4222 26.0711 36.5379 25.7968 36.5379 25.4466C36.5379 25.0963 36.4222 24.8221 36.1909 24.6238C35.9596 24.4256 35.6259 24.3265 35.1898 24.3265H33.6929V26.5667ZM35.2889 29.7487C35.7383 29.7487 36.0885 29.643 36.3396 29.4315C36.5908 29.2201 36.7163 28.926 36.7163 28.5493C36.7163 28.166 36.5841 27.8653 36.3198 27.6472C36.0555 27.4225 35.7019 27.3102 35.2591 27.3102H33.6929V29.7487H35.2889ZM39.7722 25.9422C39.9308 25.6316 40.1555 25.3904 40.4463 25.2186C40.7437 25.0468 41.1038 24.9609 41.5268 24.9609V25.8927H41.2889C40.2778 25.8927 39.7722 26.4412 39.7722 27.5382V30.4922H38.8702V25.06H39.7722V25.9422ZM42.2311 27.7563C42.2311 27.2012 42.3434 26.7154 42.5681 26.2991C42.7928 25.8761 43.1001 25.549 43.49 25.3177C43.8865 25.0864 44.326 24.9708 44.8084 24.9708C45.2842 24.9708 45.6972 25.0732 46.0475 25.2781C46.3977 25.4829 46.6588 25.7407 46.8306 26.0513V25.06H47.7426V30.4922H46.8306V29.4811C46.6522 29.7983 46.3845 30.0626 46.0276 30.2741C45.6774 30.479 45.2677 30.5814 44.7985 30.5814C44.316 30.5814 43.8799 30.4624 43.49 30.2245C43.1001 29.9866 42.7928 29.6529 42.5681 29.2234C42.3434 28.7938 42.2311 28.3048 42.2311 27.7563ZM46.8306 27.7662C46.8306 27.3565 46.748 26.9996 46.5828 26.6956C46.4175 26.3916 46.1929 26.1603 45.9087 26.0017C45.6311 25.8365 45.3238 25.7539 44.9868 25.7539C44.6498 25.7539 44.3425 25.8332 44.0649 25.9918C43.7874 26.1504 43.566 26.3817 43.4008 26.6857C43.2356 26.9897 43.1529 27.3465 43.1529 27.7563C43.1529 28.1726 43.2356 28.5361 43.4008 28.8467C43.566 29.1507 43.7874 29.3853 44.0649 29.5505C44.3425 29.7091 44.6498 29.7884 44.9868 29.7884C45.3238 29.7884 45.6311 29.7091 45.9087 29.5505C46.1929 29.3853 46.4175 29.1507 46.5828 28.8467C46.748 28.5361 46.8306 28.1759 46.8306 27.7662ZM51.2891 29.6595L52.9743 25.06H53.9359L51.8046 30.4922H50.7539L48.6226 25.06H49.5941L51.2891 29.6595ZM59.7799 27.5679C59.7799 27.7397 59.77 27.9215 59.7501 28.1131H55.4084C55.4414 28.6484 55.6231 29.0681 55.9536 29.372C56.2906 29.6694 56.697 29.8181 57.1728 29.8181C57.5627 29.8181 57.8866 29.7289 58.1443 29.5505C58.4086 29.3654 58.5937 29.1209 58.6994 28.8169H59.6708C59.5255 29.339 59.2347 29.7653 58.7985 30.0957C58.3624 30.4195 57.8205 30.5814 57.1728 30.5814C56.6574 30.5814 56.1948 30.4658 55.785 30.2345C55.3819 30.0032 55.0647 29.676 54.8334 29.2531C54.6021 28.8235 54.4865 28.3279 54.4865 27.7662C54.4865 27.2045 54.5988 26.7121 54.8235 26.2892C55.0482 25.8662 55.3621 25.5424 55.7652 25.3177C56.1749 25.0864 56.6442 24.9708 57.1728 24.9708C57.6883 24.9708 58.1443 25.0831 58.5408 25.3078C58.9373 25.5325 59.2413 25.8431 59.4528 26.2396C59.6708 26.6295 59.7799 27.0723 59.7799 27.5679ZM58.8481 27.3796C58.8481 27.0359 58.7721 26.7419 58.6201 26.4973C58.4681 26.2462 58.2599 26.0579 57.9956 25.9323C57.7379 25.8002 57.4504 25.7341 57.1332 25.7341C56.6772 25.7341 56.2873 25.8795 55.9635 26.1702C55.6463 26.461 55.4645 26.8641 55.4183 27.3796H58.8481Z" fill="black"/>
<rect x="79.4673" y="22.7148" width="173.948" height="8.55484" rx="4.27742" fill="#ECEFF2"/>
</g>
<g filter="url(#filter0_dd_4117_210973)">
<rect width="285.346" height="122.551" transform="translate(7.24585 56.0234)" fill="white"/>
<rect x="18.5746" y="67.3516" width="173.948" height="8.55484" rx="4.27742" fill="#ECEFF2"/>
<rect x="18.9286" y="81.9263" width="261.98" height="84.9665" stroke="#E8E9EE" stroke-width="0.708054"/>
<rect width="262.688" height="29.9419" transform="translate(18.5746 81.5723)" fill="#FDF4F2"/>
<rect x="24.239" y="92.2656" width="173.948" height="8.55484" rx="4.27742" fill="#FC9378"/>
</g>
<rect x="172.222" y="12.832" width="121.077" height="28.3222" fill="url(#paint2_linear_4117_210973)"/>
<rect x="249.366" width="82.6968" height="82.6968" rx="41.3484" fill="white"/>
<g clip-path="url(#clip1_4117_210973)">
<path d="M313.592 50.3841V51.6856H322.535V45.8155H321.232V50.3841H313.592ZM313.592 31.0117V32.3133H321.232V36.8821H322.535V31.0117H313.592ZM308.98 41.0809V38.0564H311.024C312.021 38.0564 312.378 38.3881 312.378 39.2944V39.8303C312.378 40.7618 312.033 41.0809 311.024 41.0809H308.98ZM312.225 41.6168C313.157 41.3743 313.809 40.5064 313.809 39.4729C313.809 38.8221 313.553 38.2349 313.068 37.7627C312.455 37.1755 311.637 36.8821 310.577 36.8821H307.702V45.8152H308.98V42.2549H310.896C311.88 42.2549 312.276 42.6632 312.276 43.6843V45.8155H313.579V43.8885C313.579 42.4847 313.247 41.9488 312.225 41.7956V41.6168ZM301.468 41.9102H305.403V40.7362H301.468V38.0561H305.786V36.8821H300.165V45.8152H305.978V44.6412H301.468V41.9102ZM297.188 42.3824V42.9949C297.188 44.2839 296.715 44.7051 295.527 44.7051H295.246C294.057 44.7051 293.483 44.3222 293.483 42.5483V40.149C293.483 38.3625 294.083 37.9922 295.271 37.9922H295.527C296.689 37.9922 297.06 38.4261 297.072 39.6258H298.478C298.35 37.8646 297.175 36.7545 295.412 36.7545C294.556 36.7545 293.84 37.0226 293.304 37.5329C292.499 38.2859 292.051 39.5622 292.051 41.3487C292.051 43.0715 292.435 44.3478 293.227 45.1388C293.763 45.662 294.505 45.9428 295.233 45.9428C295.999 45.9428 296.702 45.6364 297.06 44.9729H297.238V45.8152H298.414V41.2084H294.951V42.3824H297.188ZM285.919 38.0561H287.312C288.628 38.0561 289.344 38.3878 289.344 40.1747V42.5227C289.344 44.3092 288.628 44.6412 287.312 44.6412H285.919V38.0561ZM287.427 45.8155C289.867 45.8155 290.774 43.9651 290.774 41.349C290.774 38.6945 289.803 36.8824 287.401 36.8824H284.642V45.8155H287.427ZM278.471 41.9102H282.406V40.7362H278.471V38.0561H282.789V36.8821H277.168V45.8152H282.981V44.6412H278.471V41.9102ZM270.933 36.8821H269.63V45.8152H275.507V44.6412H270.933V36.8821ZM260.674 45.8155V51.6859H269.617V50.3841H261.977V45.8155H260.674ZM260.674 31.0117V36.8821H261.977V32.3133H269.617V31.0117H260.674Z" fill="black"/>
</g>
<defs>
<filter id="filter0_dd_4117_210973" x="0.165312" y="51.7751" width="299.507" height="136.712" filterUnits="userSpaceOnUse" color-interpolation-filters="sRGB">
<feFlood flood-opacity="0" result="BackgroundImageFix"/>
<feColorMatrix in="SourceAlpha" type="matrix" values="0 0 0 0 0 0 0 0 0 0 0 0 0 0 0 0 0 0 127 0" result="hardAlpha"/>
<feOffset dy="0.177013"/>
<feGaussianBlur stdDeviation="1.06208"/>
<feComposite in2="hardAlpha" operator="out"/>
<feColorMatrix type="matrix" values="0 0 0 0 0 0 0 0 0 0 0 0 0 0 0 0 0 0 0.02 0"/>
<feBlend mode="multiply" in2="BackgroundImageFix" result="effect1_dropShadow_4117_210973"/>
<feColorMatrix in="SourceAlpha" type="matrix" values="0 0 0 0 0 0 0 0 0 0 0 0 0 0 0 0 0 0 127 0" result="hardAlpha"/>
<feMorphology radius="1.41611" operator="erode" in="SourceAlpha" result="effect2_dropShadow_4117_210973"/>
<feOffset dy="2.83222"/>
<feGaussianBlur stdDeviation="4.24832"/>
<feComposite in2="hardAlpha" operator="out"/>
<feColorMatrix type="matrix" values="0 0 0 0 0 0 0 0 0 0 0 0 0 0 0 0 0 0 0.11 0"/>
<feBlend mode="multiply" in2="effect1_dropShadow_4117_210973" result="effect2_dropShadow_4117_210973"/>
<feBlend mode="normal" in="SourceGraphic" in2="effect2_dropShadow_4117_210973" result="shape"/>
</filter>
<linearGradient id="paint0_linear_4117_210973" x1="16.6866" y1="32.7281" x2="26.5243" y2="32.7281" gradientUnits="userSpaceOnUse">
<stop stop-color="#FF5500"/>
<stop offset="0.409877" stop-color="#FF5500"/>
<stop offset="0.49434" stop-color="#FF4530"/>
<stop offset="0.572365" stop-color="#FF2000"/>
<stop offset="1" stop-color="#FF2000"/>
</linearGradient>
<linearGradient id="paint1_linear_4117_210973" x1="21.5944" y1="31.9085" x2="25.1665" y2="31.9085" gradientUnits="userSpaceOnUse">
<stop stop-color="white"/>
<stop offset="1" stop-color="#F4F4F4"/>
</linearGradient>
<linearGradient id="paint2_linear_4117_210973" x1="293.299" y1="26.9931" x2="172.222" y2="26.9931" gradientUnits="userSpaceOnUse">
<stop stop-color="white"/>
<stop offset="1" stop-color="white" stop-opacity="0"/>
</linearGradient>
<clipPath id="clip0_4117_210973">
<rect width="285.346" height="28.3222" fill="white" transform="translate(7.24585 12.832)"/>
</clipPath>
<clipPath id="clip1_4117_210973">
<rect width="61.8611" height="20.6742" fill="white" transform="translate(260.673 31.0117)"/>
</clipPath>
</defs>
</svg>
