<svg width="333" height="189" viewBox="0 0 333 189" fill="none" xmlns="http://www.w3.org/2000/svg">
<g clip-path="url(#clip0_9017_63573)">
<rect width="282.31" height="28.3289" transform="translate(7.24609 12.8291)" fill="#0D1214"/>
<rect x="10.0781" y="15.6611" width="60.1846" height="22.6644" rx="2.83222" fill="#687B85" fill-opacity="0.4"/>
<path fill-rule="evenodd" clip-rule="evenodd" d="M26.5242 24.9907L26.1682 24.0428L26.4155 23.4983C26.4473 23.4282 26.432 23.346 26.377 23.2916L25.7041 22.624C25.4098 22.3323 24.9708 22.232 24.5753 22.3665L24.3872 22.4305L23.4043 21.3291H21.9585H21.0422H19.7905L18.8202 22.4438L18.6373 22.3807C18.2382 22.243 17.7938 22.3443 17.4976 22.6407L16.8128 23.3207C16.7688 23.3643 16.7568 23.4297 16.7823 23.4855L17.0407 24.0506L16.6865 24.998L16.9158 25.8521L17.96 29.7454C18.0803 30.1943 18.3573 30.5874 18.7427 30.8566C18.7427 30.8566 20.0105 31.7334 21.2616 32.5297C21.3716 32.5998 21.4867 32.651 21.6102 32.6491C21.7337 32.6508 21.8487 32.5998 21.9585 32.5293C23.3637 31.6262 24.4754 30.853 24.4754 30.853C24.8604 30.5834 25.137 30.1898 25.2567 29.7408L26.296 25.846L26.5242 24.9907Z" fill="url(#paint0_linear_9017_63573)"/>
<path fill-rule="evenodd" clip-rule="evenodd" d="M25.4122 25.1787L25.3959 25.2295L25.37 25.3205C25.3008 25.405 25.155 25.5671 25.0458 25.681L24.042 26.7272C23.9327 26.841 23.8711 26.9837 23.9334 27.1275L24.0688 27.4546C24.131 27.5983 24.1372 27.836 24.0775 27.9956C24.0169 28.158 23.9125 28.3015 23.7757 28.4109L23.6709 28.4946C23.5474 28.5934 23.3285 28.6193 23.1844 28.5522L22.7221 28.3371C22.5781 28.2702 22.3633 28.1299 22.2447 28.0253L21.8073 27.6398C21.722 27.5645 21.7171 27.4352 21.7966 27.3542L22.8619 26.6496C22.994 26.5622 23.0639 26.4006 22.9888 26.2629L22.6101 25.5873C22.535 25.4495 22.505 25.2664 22.5433 25.1804C22.5818 25.0943 22.7351 24.9786 22.8843 24.9233L24.1209 24.4729C24.27 24.4175 24.2621 24.3604 24.1033 24.3458L23.3132 24.2882C23.1543 24.2735 23.0379 24.2962 22.8843 24.3382L22.2863 24.4833C22.1327 24.5253 22.1002 24.6855 22.129 24.8389L22.3758 26.1504C22.4047 26.304 22.4188 26.4586 22.4072 26.4941C22.3957 26.5296 22.259 26.5869 22.1035 26.6215L21.8989 26.6669C21.7434 26.7015 21.4886 26.703 21.3328 26.6706L21.0853 26.6189C20.9293 26.5863 20.7923 26.5306 20.7806 26.4952C20.769 26.4597 20.783 26.3048 20.8118 26.1514L21.057 24.8396C21.0858 24.6861 21.0531 24.5261 20.8995 24.4842L20.3012 24.3399C20.1476 24.298 20.0311 24.2758 19.8724 24.2904L19.0822 24.3487C18.9234 24.3635 18.9156 24.4206 19.0647 24.4757L20.302 24.9248C20.4511 24.9801 20.6047 25.0955 20.6432 25.1815C20.6817 25.2675 20.6518 25.4505 20.577 25.5884L20.199 26.2642C20.1241 26.4021 20.1942 26.5636 20.3264 26.6509L21.3927 27.3544C21.4722 27.4353 21.4675 27.5648 21.3823 27.6401L20.9452 28.0261C20.8269 28.1308 20.6122 28.2713 20.4683 28.3385L20.0062 28.5542C19.8623 28.6213 19.6433 28.5957 19.5198 28.4972L19.415 28.4136C19.278 28.3043 19.1733 28.1609 19.1076 27.9856C19.0527 27.8389 19.0585 27.6015 19.1204 27.4576L19.2556 27.1304C19.3176 26.9865 19.2558 26.8438 19.1465 26.7302L18.1414 25.6852C18.0322 25.5715 17.8861 25.4094 17.8169 25.3252L17.7908 25.2341L17.7745 25.1833C17.7729 25.1249 17.7943 24.9386 17.8185 24.8882C17.8427 24.8381 17.9355 24.691 18.0249 24.5617L18.2399 24.2499C18.3292 24.1206 18.4836 23.9149 18.5829 23.7927L18.8981 23.4056C18.9975 23.2835 19.0822 23.1841 19.095 23.185C19.0956 23.1841 19.2242 23.2076 19.3808 23.237L19.8582 23.3268C20.0148 23.3562 20.1875 23.3886 20.2421 23.3986C20.2966 23.4088 20.4654 23.3776 20.6171 23.3294L20.9605 23.2205C21.1122 23.1722 21.3424 23.1087 21.472 23.0792L21.592 23.081L21.7121 23.0791C21.8417 23.1084 22.0719 23.1716 22.2236 23.2197L22.5673 23.3283C22.7191 23.3763 22.8878 23.4072 22.9423 23.3971C22.9892 23.3884 23.1231 23.363 23.2592 23.3373L23.3261 23.3246L23.8034 23.2344C23.96 23.2048 24.0886 23.1812 24.0978 23.1819C24.102 23.1812 24.1867 23.2802 24.2863 23.4024L24.602 23.7892C24.7015 23.9111 24.8561 24.1166 24.9456 24.2459L25.161 24.5573C25.2505 24.6865 25.3902 24.9218 25.3988 24.9752C25.4078 25.0287 25.4137 25.1203 25.4122 25.1787ZM21.6569 28.301C21.6709 28.301 21.803 28.3497 21.9503 28.4096L22.087 28.4651C22.2343 28.5248 22.4713 28.6315 22.6134 28.7022L23.0167 28.9028C23.1588 28.9734 23.1691 29.1056 23.0394 29.1965L22.6954 29.4375C22.5657 29.5284 22.3617 29.6861 22.2423 29.7883L21.8084 30.1591C21.6893 30.261 21.4964 30.2614 21.3796 30.1604C21.2626 30.0593 21.0692 29.8937 20.9495 29.7925C20.8299 29.6913 20.6255 29.5347 20.4952 29.4448L20.1524 29.2076C20.0221 29.1174 20.0314 28.9846 20.1727 28.9125L20.5782 28.7057C20.7196 28.6335 20.9558 28.5254 21.1031 28.4656L21.2397 28.4099C21.3869 28.3501 21.5189 28.301 21.533 28.301H21.595H21.6569Z" fill="url(#paint1_linear_9017_63573)"/>
<path d="M36.2502 26.9345C36.5013 26.9741 36.7293 27.0766 36.9342 27.2418C37.1456 27.407 37.3108 27.6119 37.4298 27.8564C37.5554 28.1009 37.6181 28.3619 37.6181 28.6395C37.6181 28.9897 37.5289 29.3069 37.3505 29.5911C37.1721 29.8687 36.911 30.09 36.5674 30.2553C36.2304 30.4139 35.8305 30.4932 35.3679 30.4932H32.7906V23.584H35.2688C35.738 23.584 36.1378 23.6633 36.4683 23.8219C36.7987 23.9739 37.0465 24.182 37.2117 24.4464C37.3769 24.7107 37.4595 25.0081 37.4595 25.3385C37.4595 25.7483 37.3472 26.0886 37.1225 26.3595C36.9044 26.6239 36.6136 26.8155 36.2502 26.9345ZM33.6927 26.5677H35.2093C35.6323 26.5677 35.9594 26.4686 36.1907 26.2703C36.422 26.0721 36.5376 25.7978 36.5376 25.4476C36.5376 25.0973 36.422 24.8231 36.1907 24.6248C35.9594 24.4266 35.6257 24.3274 35.1895 24.3274H33.6927V26.5677ZM35.2886 29.7497C35.738 29.7497 36.0883 29.644 36.3394 29.4325C36.5905 29.221 36.7161 28.9269 36.7161 28.5503C36.7161 28.167 36.5839 27.8663 36.3196 27.6482C36.0552 27.4235 35.7017 27.3112 35.2589 27.3112H33.6927V29.7497H35.2886ZM39.772 25.9432C39.9306 25.6326 40.1553 25.3914 40.4461 25.2196C40.7434 25.0478 41.1036 24.9618 41.5265 24.9618V25.8936H41.2886C40.2775 25.8936 39.772 26.4422 39.772 27.5392V30.4932H38.8699V25.061H39.772V25.9432ZM42.2308 27.7572C42.2308 27.2021 42.3432 26.7164 42.5679 26.3001C42.7925 25.8771 43.0998 25.55 43.4897 25.3187C43.8862 25.0874 44.3257 24.9718 44.8081 24.9718C45.2839 24.9718 45.697 25.0742 46.0472 25.2791C46.3975 25.4839 46.6585 25.7417 46.8303 26.0523V25.061H47.7423V30.4932H46.8303V29.4821C46.6519 29.7993 46.3843 30.0636 46.0274 30.2751C45.6772 30.4799 45.2674 30.5824 44.7982 30.5824C44.3158 30.5824 43.8796 30.4634 43.4897 30.2255C43.0998 29.9876 42.7925 29.6539 42.5679 29.2243C42.3432 28.7948 42.2308 28.3057 42.2308 27.7572ZM46.8303 27.7672C46.8303 27.3574 46.7477 27.0006 46.5825 26.6966C46.4173 26.3926 46.1926 26.1613 45.9084 26.0027C45.6309 25.8375 45.3236 25.7549 44.9866 25.7549C44.6495 25.7549 44.3422 25.8342 44.0647 25.9928C43.7871 26.1514 43.5657 26.3827 43.4005 26.6867C43.2353 26.9907 43.1527 27.3475 43.1527 27.7572C43.1527 28.1736 43.2353 28.537 43.4005 28.8476C43.5657 29.1516 43.7871 29.3862 44.0647 29.5515C44.3422 29.7101 44.6495 29.7894 44.9866 29.7894C45.3236 29.7894 45.6309 29.7101 45.9084 29.5515C46.1926 29.3862 46.4173 29.1516 46.5825 28.8476C46.7477 28.537 46.8303 28.1769 46.8303 27.7672ZM51.2889 29.6605L52.9741 25.061H53.9356L51.8044 30.4932H50.7536L48.6224 25.061H49.5938L51.2889 29.6605ZM59.7796 27.5689C59.7796 27.7407 59.7697 27.9225 59.7499 28.1141H55.4081C55.4412 28.6494 55.6229 29.069 55.9533 29.373C56.2904 29.6704 56.6968 29.8191 57.1726 29.8191C57.5625 29.8191 57.8863 29.7299 58.144 29.5515C58.4084 29.3664 58.5934 29.1219 58.6992 28.8179H59.6706C59.5252 29.34 59.2344 29.7662 58.7983 30.0967C58.3621 30.4205 57.8202 30.5824 57.1726 30.5824C56.6571 30.5824 56.1945 30.4667 55.7848 30.2354C55.3817 30.0041 55.0645 29.677 54.8332 29.2541C54.6019 28.8245 54.4862 28.3289 54.4862 27.7672C54.4862 27.2054 54.5986 26.7131 54.8233 26.2902C55.048 25.8672 55.3619 25.5434 55.765 25.3187C56.1747 25.0874 56.6439 24.9718 57.1726 24.9718C57.6881 24.9718 58.144 25.0841 58.5405 25.3088C58.9371 25.5335 59.241 25.8441 59.4525 26.2406C59.6706 26.6305 59.7796 27.0733 59.7796 27.5689ZM58.8478 27.3806C58.8478 27.0369 58.7718 26.7428 58.6199 26.4983C58.4679 26.2472 58.2597 26.0589 57.9953 25.9333C57.7376 25.8011 57.4501 25.735 57.1329 25.735C56.677 25.735 56.287 25.8804 55.9632 26.1712C55.646 26.462 55.4643 26.8651 55.418 27.3806H58.8478Z" fill="white"/>
<rect x="79.4678" y="22.7158" width="173.948" height="8.55484" rx="4.27742" fill="#C3C9D3" fill-opacity="0.18"/>
</g>
<g filter="url(#filter0_dd_9017_63573)">
<rect width="285.346" height="122.551" transform="translate(7.24609 56.0234)" fill="#0D1214"/>
<rect x="18.5752" y="67.3525" width="173.948" height="8.55484" rx="4.27742" fill="#ECEFF2"/>
<rect x="18.9292" y="81.9253" width="261.98" height="84.9665" stroke="#687B85" stroke-opacity="0.4" stroke-width="0.708054"/>
<rect width="262.688" height="29.9419" transform="translate(18.5752 81.5713)" fill="#FFE9E1"/>
<rect x="24.2393" y="92.2646" width="173.948" height="8.55484" rx="4.27742" fill="#FFB49B"/>
</g>
<rect x="172.222" y="12.832" width="121.077" height="28.3222" fill="url(#paint2_linear_9017_63573)"/>
<rect x="249.366" width="82.6968" height="82.6968" rx="41.3484" fill="#0D1214"/>
<g clip-path="url(#clip1_9017_63573)">
<path d="M313.593 50.3841V51.6856H322.536V45.8155H321.233V50.3841H313.593ZM313.593 31.0117V32.3133H321.233V36.8821H322.536V31.0117H313.593ZM308.981 41.0809V38.0564H311.025C312.021 38.0564 312.379 38.3881 312.379 39.2944V39.8303C312.379 40.7618 312.034 41.0809 311.025 41.0809H308.981ZM312.225 41.6168C313.158 41.3743 313.809 40.5064 313.809 39.4729C313.809 38.8221 313.554 38.2349 313.069 37.7627C312.455 37.1755 311.638 36.8821 310.577 36.8821H307.703V45.8152H308.981V42.2549H310.897C311.881 42.2549 312.277 42.6632 312.277 43.6843V45.8155H313.58V43.8885C313.58 42.4847 313.248 41.9488 312.225 41.7956V41.6168ZM301.468 41.9102H305.403V40.7362H301.468V38.0561H305.787V36.8821H300.165V45.8152H305.978V44.6412H301.468V41.9102ZM297.188 42.3824V42.9949C297.188 44.2839 296.715 44.7051 295.527 44.7051H295.246C294.058 44.7051 293.483 44.3222 293.483 42.5483V40.149C293.483 38.3625 294.084 37.9922 295.272 37.9922H295.527C296.69 37.9922 297.06 38.4261 297.073 39.6258H298.478C298.351 37.8646 297.175 36.7545 295.412 36.7545C294.556 36.7545 293.841 37.0226 293.304 37.5329C292.499 38.2859 292.052 39.5622 292.052 41.3487C292.052 43.0715 292.436 44.3478 293.227 45.1388C293.764 45.662 294.505 45.9428 295.233 45.9428C296 45.9428 296.703 45.6364 297.06 44.9729H297.239V45.8152H298.414V41.2084H294.952V42.3824H297.188ZM285.92 38.0561H287.313C288.629 38.0561 289.344 38.3878 289.344 40.1747V42.5227C289.344 44.3092 288.629 44.6412 287.313 44.6412H285.92V38.0561ZM287.428 45.8155C289.868 45.8155 290.775 43.9651 290.775 41.349C290.775 38.6945 289.804 36.8824 287.402 36.8824H284.642V45.8155H287.428ZM278.472 41.9102H282.407V40.7362H278.472V38.0561H282.79V36.8821H277.168V45.8152H282.982V44.6412H278.472V41.9102ZM270.934 36.8821H269.631V45.8152H275.508V44.6412H270.934V36.8821ZM260.675 45.8155V51.6859H269.618V50.3841H261.978V45.8155H260.675ZM260.675 31.0117V36.8821H261.978V32.3133H269.618V31.0117H260.675Z" fill="white"/>
</g>
<defs>
<filter id="filter0_dd_9017_63573" x="0.165556" y="51.7751" width="299.507" height="136.713" filterUnits="userSpaceOnUse" color-interpolation-filters="sRGB">
<feFlood flood-opacity="0" result="BackgroundImageFix"/>
<feColorMatrix in="SourceAlpha" type="matrix" values="0 0 0 0 0 0 0 0 0 0 0 0 0 0 0 0 0 0 127 0" result="hardAlpha"/>
<feOffset dy="0.177013"/>
<feGaussianBlur stdDeviation="1.06208"/>
<feComposite in2="hardAlpha" operator="out"/>
<feColorMatrix type="matrix" values="0 0 0 0 0 0 0 0 0 0 0 0 0 0 0 0 0 0 0.02 0"/>
<feBlend mode="multiply" in2="BackgroundImageFix" result="effect1_dropShadow_9017_63573"/>
<feColorMatrix in="SourceAlpha" type="matrix" values="0 0 0 0 0 0 0 0 0 0 0 0 0 0 0 0 0 0 127 0" result="hardAlpha"/>
<feMorphology radius="1.41611" operator="erode" in="SourceAlpha" result="effect2_dropShadow_9017_63573"/>
<feOffset dy="2.83222"/>
<feGaussianBlur stdDeviation="4.24832"/>
<feComposite in2="hardAlpha" operator="out"/>
<feColorMatrix type="matrix" values="0 0 0 0 0 0 0 0 0 0 0 0 0 0 0 0 0 0 0.11 0"/>
<feBlend mode="multiply" in2="effect1_dropShadow_9017_63573" result="effect2_dropShadow_9017_63573"/>
<feBlend mode="normal" in="SourceGraphic" in2="effect2_dropShadow_9017_63573" result="shape"/>
</filter>
<linearGradient id="paint0_linear_9017_63573" x1="16.6865" y1="32.729" x2="26.5242" y2="32.729" gradientUnits="userSpaceOnUse">
<stop stop-color="#FF5500"/>
<stop offset="0.409877" stop-color="#FF5500"/>
<stop offset="0.49434" stop-color="#FF4530"/>
<stop offset="0.572365" stop-color="#FF2000"/>
<stop offset="1" stop-color="#FF2000"/>
</linearGradient>
<linearGradient id="paint1_linear_9017_63573" x1="21.5934" y1="31.9094" x2="25.1655" y2="31.9094" gradientUnits="userSpaceOnUse">
<stop stop-color="white"/>
<stop offset="1" stop-color="#F4F4F4"/>
</linearGradient>
<linearGradient id="paint2_linear_9017_63573" x1="293.299" y1="26.9931" x2="172.222" y2="26.9931" gradientUnits="userSpaceOnUse">
<stop/>
<stop offset="1" stop-opacity="0"/>
</linearGradient>
<clipPath id="clip0_9017_63573">
<rect width="285.346" height="28.3222" fill="white" transform="translate(7.24609 12.832)"/>
</clipPath>
<clipPath id="clip1_9017_63573">
<rect width="61.8611" height="20.6742" fill="white" transform="translate(260.674 31.0117)"/>
</clipPath>
</defs>
</svg>
