<svg width="333" height="237" viewBox="0 0 333 237" fill="none" xmlns="http://www.w3.org/2000/svg">
<g clip-path="url(#clip0_9183_60114)">
<rect width="282.31" height="28.3289" transform="translate(7.24609 12.8291)" fill="#0D1214"/>
<rect x="10.0781" y="15.6611" width="60.1846" height="22.6644" rx="2.83222" fill="#687B85" fill-opacity="0.4"/>
<path fill-rule="evenodd" clip-rule="evenodd" d="M26.5242 24.9907L26.1682 24.0428L26.4155 23.4983C26.4473 23.4282 26.432 23.346 26.377 23.2916L25.7041 22.624C25.4098 22.3323 24.9708 22.232 24.5753 22.3665L24.3872 22.4305L23.4043 21.3291H21.9585H21.0422H19.7905L18.8202 22.4438L18.6373 22.3807C18.2382 22.243 17.7938 22.3443 17.4976 22.6407L16.8128 23.3207C16.7688 23.3643 16.7568 23.4297 16.7823 23.4855L17.0407 24.0506L16.6865 24.998L16.9158 25.8521L17.96 29.7454C18.0803 30.1943 18.3573 30.5874 18.7427 30.8566C18.7427 30.8566 20.0105 31.7334 21.2616 32.5297C21.3716 32.5998 21.4867 32.651 21.6102 32.6491C21.7337 32.6508 21.8487 32.5998 21.9585 32.5293C23.3637 31.6262 24.4754 30.853 24.4754 30.853C24.8604 30.5834 25.137 30.1898 25.2567 29.7408L26.296 25.846L26.5242 24.9907Z" fill="url(#paint0_linear_9183_60114)"/>
<path fill-rule="evenodd" clip-rule="evenodd" d="M25.4122 25.1787L25.3959 25.2295L25.37 25.3205C25.3008 25.405 25.155 25.5671 25.0458 25.681L24.042 26.7272C23.9327 26.841 23.8711 26.9837 23.9334 27.1275L24.0688 27.4546C24.131 27.5983 24.1372 27.836 24.0775 27.9956C24.0169 28.158 23.9125 28.3015 23.7757 28.4109L23.6709 28.4946C23.5474 28.5934 23.3285 28.6193 23.1844 28.5522L22.7221 28.3371C22.5781 28.2702 22.3633 28.1299 22.2447 28.0253L21.8073 27.6398C21.722 27.5645 21.7171 27.4352 21.7966 27.3542L22.8619 26.6496C22.994 26.5622 23.0639 26.4006 22.9888 26.2629L22.6101 25.5873C22.535 25.4495 22.505 25.2664 22.5433 25.1804C22.5818 25.0943 22.7351 24.9786 22.8843 24.9233L24.1209 24.4729C24.27 24.4175 24.2621 24.3604 24.1033 24.3458L23.3132 24.2882C23.1543 24.2735 23.0379 24.2962 22.8843 24.3382L22.2863 24.4833C22.1327 24.5253 22.1002 24.6855 22.129 24.8389L22.3758 26.1504C22.4047 26.304 22.4188 26.4586 22.4072 26.4941C22.3957 26.5296 22.259 26.5869 22.1035 26.6215L21.8989 26.6669C21.7434 26.7015 21.4886 26.703 21.3328 26.6706L21.0853 26.6189C20.9293 26.5863 20.7923 26.5306 20.7806 26.4952C20.769 26.4597 20.783 26.3048 20.8118 26.1514L21.057 24.8396C21.0858 24.6861 21.0531 24.5261 20.8995 24.4842L20.3012 24.3399C20.1476 24.298 20.0311 24.2758 19.8724 24.2904L19.0822 24.3487C18.9234 24.3635 18.9156 24.4206 19.0647 24.4757L20.302 24.9248C20.4511 24.9801 20.6047 25.0955 20.6432 25.1815C20.6817 25.2675 20.6518 25.4505 20.577 25.5884L20.199 26.2642C20.1241 26.4021 20.1942 26.5636 20.3264 26.6509L21.3927 27.3544C21.4722 27.4353 21.4675 27.5648 21.3823 27.6401L20.9452 28.0261C20.8269 28.1308 20.6122 28.2713 20.4683 28.3385L20.0062 28.5542C19.8623 28.6213 19.6433 28.5957 19.5198 28.4972L19.415 28.4136C19.278 28.3043 19.1733 28.1609 19.1076 27.9856C19.0527 27.8389 19.0585 27.6015 19.1204 27.4576L19.2556 27.1304C19.3176 26.9865 19.2558 26.8438 19.1465 26.7302L18.1414 25.6852C18.0322 25.5715 17.8861 25.4094 17.8169 25.3252L17.7908 25.2341L17.7745 25.1833C17.7729 25.1249 17.7943 24.9386 17.8185 24.8882C17.8427 24.8381 17.9355 24.691 18.0249 24.5617L18.2399 24.2499C18.3292 24.1206 18.4836 23.9149 18.5829 23.7927L18.8981 23.4056C18.9975 23.2835 19.0822 23.1841 19.095 23.185C19.0956 23.1841 19.2242 23.2076 19.3808 23.237L19.8582 23.3268C20.0148 23.3562 20.1875 23.3886 20.2421 23.3986C20.2966 23.4088 20.4654 23.3776 20.6171 23.3294L20.9605 23.2205C21.1122 23.1722 21.3424 23.1087 21.472 23.0792L21.592 23.081L21.7121 23.0791C21.8417 23.1084 22.0719 23.1716 22.2236 23.2197L22.5673 23.3283C22.7191 23.3763 22.8878 23.4072 22.9423 23.3971C22.9892 23.3884 23.1231 23.363 23.2592 23.3373L23.3261 23.3246L23.8034 23.2344C23.96 23.2048 24.0886 23.1812 24.0978 23.1819C24.102 23.1812 24.1867 23.2802 24.2863 23.4024L24.602 23.7892C24.7015 23.9111 24.8561 24.1166 24.9456 24.2459L25.161 24.5573C25.2505 24.6865 25.3902 24.9218 25.3988 24.9752C25.4078 25.0287 25.4137 25.1203 25.4122 25.1787ZM21.6569 28.301C21.6709 28.301 21.803 28.3497 21.9503 28.4096L22.087 28.4651C22.2343 28.5248 22.4713 28.6315 22.6134 28.7022L23.0167 28.9028C23.1588 28.9734 23.1691 29.1056 23.0394 29.1965L22.6954 29.4375C22.5657 29.5284 22.3617 29.6861 22.2423 29.7883L21.8084 30.1591C21.6893 30.261 21.4964 30.2614 21.3796 30.1604C21.2626 30.0593 21.0692 29.8937 20.9495 29.7925C20.8299 29.6913 20.6255 29.5347 20.4952 29.4448L20.1524 29.2076C20.0221 29.1174 20.0314 28.9846 20.1727 28.9125L20.5782 28.7057C20.7196 28.6335 20.9558 28.5254 21.1031 28.4656L21.2397 28.4099C21.3869 28.3501 21.5189 28.301 21.533 28.301H21.595H21.6569Z" fill="url(#paint1_linear_9183_60114)"/>
<path d="M36.2502 26.9345C36.5013 26.9741 36.7293 27.0766 36.9342 27.2418C37.1456 27.407 37.3108 27.6119 37.4298 27.8564C37.5554 28.1009 37.6181 28.3619 37.6181 28.6395C37.6181 28.9897 37.5289 29.3069 37.3505 29.5911C37.1721 29.8687 36.911 30.09 36.5674 30.2553C36.2304 30.4139 35.8305 30.4932 35.3679 30.4932H32.7906V23.584H35.2688C35.738 23.584 36.1378 23.6633 36.4683 23.8219C36.7987 23.9739 37.0465 24.182 37.2117 24.4464C37.3769 24.7107 37.4595 25.0081 37.4595 25.3385C37.4595 25.7483 37.3472 26.0886 37.1225 26.3595C36.9044 26.6239 36.6136 26.8155 36.2502 26.9345ZM33.6927 26.5677H35.2093C35.6323 26.5677 35.9594 26.4686 36.1907 26.2703C36.422 26.0721 36.5376 25.7978 36.5376 25.4476C36.5376 25.0973 36.422 24.8231 36.1907 24.6248C35.9594 24.4266 35.6257 24.3274 35.1895 24.3274H33.6927V26.5677ZM35.2886 29.7497C35.738 29.7497 36.0883 29.644 36.3394 29.4325C36.5905 29.221 36.7161 28.9269 36.7161 28.5503C36.7161 28.167 36.5839 27.8663 36.3196 27.6482C36.0552 27.4235 35.7017 27.3112 35.2589 27.3112H33.6927V29.7497H35.2886ZM39.772 25.9432C39.9306 25.6326 40.1553 25.3914 40.4461 25.2196C40.7434 25.0478 41.1036 24.9618 41.5265 24.9618V25.8936H41.2886C40.2775 25.8936 39.772 26.4422 39.772 27.5392V30.4932H38.8699V25.061H39.772V25.9432ZM42.2308 27.7572C42.2308 27.2021 42.3432 26.7164 42.5679 26.3001C42.7925 25.8771 43.0998 25.55 43.4897 25.3187C43.8862 25.0874 44.3257 24.9718 44.8081 24.9718C45.2839 24.9718 45.697 25.0742 46.0472 25.2791C46.3975 25.4839 46.6585 25.7417 46.8303 26.0523V25.061H47.7423V30.4932H46.8303V29.4821C46.6519 29.7993 46.3843 30.0636 46.0274 30.2751C45.6772 30.4799 45.2674 30.5824 44.7982 30.5824C44.3158 30.5824 43.8796 30.4634 43.4897 30.2255C43.0998 29.9876 42.7925 29.6539 42.5679 29.2243C42.3432 28.7948 42.2308 28.3057 42.2308 27.7572ZM46.8303 27.7672C46.8303 27.3574 46.7477 27.0006 46.5825 26.6966C46.4173 26.3926 46.1926 26.1613 45.9084 26.0027C45.6309 25.8375 45.3236 25.7549 44.9866 25.7549C44.6495 25.7549 44.3422 25.8342 44.0647 25.9928C43.7871 26.1514 43.5657 26.3827 43.4005 26.6867C43.2353 26.9907 43.1527 27.3475 43.1527 27.7572C43.1527 28.1736 43.2353 28.537 43.4005 28.8476C43.5657 29.1516 43.7871 29.3862 44.0647 29.5515C44.3422 29.7101 44.6495 29.7894 44.9866 29.7894C45.3236 29.7894 45.6309 29.7101 45.9084 29.5515C46.1926 29.3862 46.4173 29.1516 46.5825 28.8476C46.7477 28.537 46.8303 28.1769 46.8303 27.7672ZM51.2889 29.6605L52.9741 25.061H53.9356L51.8044 30.4932H50.7536L48.6224 25.061H49.5938L51.2889 29.6605ZM59.7796 27.5689C59.7796 27.7407 59.7697 27.9225 59.7499 28.1141H55.4081C55.4412 28.6494 55.6229 29.069 55.9533 29.373C56.2904 29.6704 56.6968 29.8191 57.1726 29.8191C57.5625 29.8191 57.8863 29.7299 58.144 29.5515C58.4084 29.3664 58.5934 29.1219 58.6992 28.8179H59.6706C59.5252 29.34 59.2344 29.7662 58.7983 30.0967C58.3621 30.4205 57.8202 30.5824 57.1726 30.5824C56.6571 30.5824 56.1945 30.4667 55.7848 30.2354C55.3817 30.0041 55.0645 29.677 54.8332 29.2541C54.6019 28.8245 54.4862 28.3289 54.4862 27.7672C54.4862 27.2054 54.5986 26.7131 54.8233 26.2902C55.048 25.8672 55.3619 25.5434 55.765 25.3187C56.1747 25.0874 56.6439 24.9718 57.1726 24.9718C57.6881 24.9718 58.144 25.0841 58.5405 25.3088C58.9371 25.5335 59.241 25.8441 59.4525 26.2406C59.6706 26.6305 59.7796 27.0733 59.7796 27.5689ZM58.8478 27.3806C58.8478 27.0369 58.7718 26.7428 58.6199 26.4983C58.4679 26.2472 58.2597 26.0589 57.9953 25.9333C57.7376 25.8011 57.4501 25.735 57.1329 25.735C56.677 25.735 56.287 25.8804 55.9632 26.1712C55.646 26.462 55.4643 26.8651 55.418 27.3806H58.8478Z" fill="white"/>
<rect x="79.4678" y="22.7158" width="173.948" height="8.55484" rx="4.27742" fill="#C3C9D3" fill-opacity="0.18"/>
</g>
<g filter="url(#filter0_dd_9183_60114)">
<rect width="285.346" height="122.551" transform="translate(7.24609 56.0234)" fill="#0D1214"/>
<rect x="18.5752" y="67.3525" width="173.948" height="8.55484" rx="4.27742" fill="#FFB49B"/>
<rect x="18.9292" y="81.9253" width="261.98" height="84.9665" stroke="#687B85" stroke-opacity="0.4" stroke-width="0.708054"/>
<rect width="262.688" height="29.9419" transform="translate(18.5752 81.5713)" fill="#591F09"/>
<rect x="24.2393" y="92.2646" width="173.948" height="8.55484" rx="4.27742" fill="#FFB49B"/>
</g>
<rect x="172.222" y="12.832" width="121.077" height="28.3222" fill="url(#paint2_linear_9183_60114)"/>
<rect x="249.366" width="82.6968" height="82.6968" rx="41.3484" fill="black"/>
<g clip-path="url(#clip1_9183_60114)">
<path d="M269.12 36.7128C269.12 34.6835 267.35 33 265.195 33C263.04 33 261.27 34.6843 261.27 36.7124V37.8996H259.654V46.435L265.194 49L270.737 46.4358V37.9372H269.122L269.121 36.7124L269.12 36.7128ZM263.271 36.7128C263.271 35.7561 264.118 34.9904 265.195 34.9904C266.273 34.9904 267.119 35.7561 267.119 36.7128V37.8996H263.271V36.7128H263.271ZM268.505 45.0576L265.194 46.5897L261.884 45.0588V39.9285H268.504V45.0576H268.505Z" fill="white"/>
<path d="M275.239 37.8986H282.205V39.9275H279.819V46.4725H277.587V39.9275H275.239V37.8986ZM290.21 40.7692C290.21 39.0465 289.017 37.9366 287.247 37.9366H283.205V46.4721H285.438V43.6018H286.284L287.862 46.4721H290.443L288.557 43.2957C289.363 42.9896 290.21 42.1852 290.21 40.7692ZM286.979 41.6114H285.438V39.8886H286.977C287.554 39.8886 287.939 40.2336 287.939 40.7312C287.939 41.2669 287.554 41.6114 286.977 41.6114H286.979ZM291.249 37.8986H297.483V39.889H293.481V41.1523H297.368V43.1042H293.481V44.4817H297.483V46.4725H291.249V37.8986ZM309.991 37.7832C307.374 37.7832 305.528 39.659 305.528 42.1855C305.528 44.7117 307.412 46.5887 309.991 46.5887C312.569 46.5887 314.494 44.7132 314.494 42.1867C314.494 39.6602 312.608 37.7836 309.991 37.7836V37.7832ZM309.991 44.5971C308.683 44.5971 307.797 43.6018 307.797 42.1875C307.797 40.7327 308.683 39.7772 309.991 39.7772C311.299 39.7772 312.223 40.7728 312.223 42.1871C312.223 43.6018 311.299 44.5967 309.991 44.5967V44.5971ZM320.767 43.2957C321.574 42.9896 322.422 42.1852 322.422 40.7692C322.422 39.0465 321.229 37.9366 319.458 37.9366H315.418V46.4721H317.65V43.6018H318.498L320.075 46.4721H322.654L320.767 43.2957ZM319.189 41.6114H317.65V39.8886H319.189C319.767 39.8886 320.151 40.2336 320.151 40.7312C320.151 41.2669 319.767 41.6114 319.189 41.6114ZM298.561 37.8986H305.142V39.621L301.563 44.444H305.142V46.4725H298.561V44.7497L302.14 39.9275H298.561V37.8986Z" fill="white"/>
</g>
<path d="M24.3277 229.731C23.2913 229.731 22.3798 229.489 21.5934 229.005C20.8121 228.515 20.2001 227.825 19.7574 226.935C19.3199 226.039 19.1012 224.981 19.1012 223.763C19.1012 222.534 19.3199 221.474 19.7574 220.583C20.2001 219.687 20.8095 218.997 21.5855 218.513C22.3616 218.023 23.247 217.778 24.2418 217.778C24.8564 217.778 25.4319 217.869 25.9684 218.052C26.5048 218.234 26.984 218.497 27.4059 218.841C27.8277 219.179 28.1767 219.583 28.4527 220.052C28.734 220.515 28.9267 221.031 29.0309 221.599H27.5152C27.3954 221.218 27.2366 220.88 27.0387 220.583C26.8407 220.281 26.6038 220.023 26.3277 219.81C26.0517 219.591 25.7392 219.427 25.3902 219.317C25.0465 219.203 24.6663 219.146 24.2496 219.146C23.5569 219.146 22.9293 219.325 22.3668 219.685C21.8095 220.039 21.3668 220.56 21.0387 221.247C20.7105 221.935 20.5465 222.773 20.5465 223.763C20.5465 224.747 20.7105 225.58 21.0387 226.263C21.372 226.945 21.8225 227.466 22.3902 227.825C22.9631 228.185 23.609 228.364 24.3277 228.364C24.984 228.364 25.5621 228.226 26.0621 227.95C26.5673 227.669 26.9605 227.271 27.2418 226.755C27.5282 226.239 27.6715 225.635 27.6715 224.942L28.1168 225.021H24.648V223.724H29.1168V224.997C29.1168 225.955 28.9085 226.789 28.4918 227.497C28.0803 228.205 27.5152 228.755 26.7965 229.146C26.0777 229.536 25.2548 229.731 24.3277 229.731ZM31.0887 229.575V220.896H32.4402V222.231H32.5262C32.6876 221.794 32.9689 221.442 33.3699 221.177C33.7762 220.906 34.2397 220.771 34.7605 220.771C34.8699 220.771 34.9923 220.773 35.1277 220.778C35.2684 220.784 35.3777 220.789 35.4559 220.794V222.2C35.4142 222.19 35.31 222.174 35.1434 222.153C34.9819 222.132 34.8074 222.122 34.6199 222.122C34.2137 222.122 33.8491 222.208 33.5262 222.38C33.2033 222.547 32.948 222.784 32.7605 223.091C32.5783 223.393 32.4871 223.747 32.4871 224.153V229.575H31.0887ZM39.248 229.771C38.7012 229.771 38.2012 229.669 37.748 229.466C37.3001 229.257 36.9434 228.955 36.6777 228.56C36.4173 228.159 36.2871 227.674 36.2871 227.106C36.2871 226.606 36.3835 226.203 36.5762 225.896C36.7741 225.583 37.0371 225.338 37.3652 225.161C37.6934 224.979 38.0579 224.843 38.459 224.755C38.86 224.666 39.2637 224.596 39.6699 224.544C40.1907 224.476 40.6126 224.424 40.9355 224.388C41.2637 224.351 41.5059 224.289 41.6621 224.2C41.8184 224.112 41.8965 223.961 41.8965 223.747V223.7C41.8965 223.341 41.8288 223.036 41.6934 222.786C41.5579 222.536 41.3522 222.343 41.0762 222.208C40.8053 222.073 40.4694 222.005 40.0684 222.005C39.6569 222.005 39.3027 222.07 39.0059 222.2C38.709 222.33 38.4668 222.494 38.2793 222.692C38.097 222.89 37.9642 223.096 37.8809 223.31L36.5293 222.911C36.7324 222.385 37.0189 221.968 37.3887 221.661C37.7585 221.349 38.1725 221.125 38.6309 220.989C39.0944 220.849 39.5605 220.778 40.0293 220.778C40.3418 220.778 40.6855 220.817 41.0605 220.896C41.4355 220.974 41.7923 221.119 42.1309 221.333C42.4694 221.541 42.748 221.846 42.9668 222.247C43.1855 222.648 43.2949 223.174 43.2949 223.825V229.575H41.9199V228.388H41.8262C41.7272 228.591 41.571 228.799 41.3574 229.013C41.1439 229.226 40.8626 229.406 40.5137 229.552C40.1699 229.698 39.748 229.771 39.248 229.771ZM39.4902 228.536C40.0111 228.536 40.4486 228.435 40.8027 228.231C41.1621 228.028 41.4329 227.765 41.6152 227.442C41.8027 227.119 41.8965 226.778 41.8965 226.419V225.231C41.8392 225.299 41.7168 225.359 41.5293 225.411C41.3418 225.463 41.1256 225.51 40.8809 225.552C40.6413 225.593 40.4043 225.63 40.1699 225.661C39.9407 225.687 39.7532 225.711 39.6074 225.731C39.2741 225.773 38.959 225.846 38.6621 225.95C38.3704 226.049 38.1361 226.195 37.959 226.388C37.7819 226.58 37.6934 226.843 37.6934 227.177C37.6934 227.474 37.7689 227.724 37.9199 227.927C38.0762 228.125 38.2897 228.276 38.5605 228.38C38.8314 228.484 39.1413 228.536 39.4902 228.536ZM46.8996 224.388V229.575H45.5012V220.896H46.8527L46.8605 222.997H46.6418C46.9074 222.2 47.285 221.632 47.7746 221.294C48.2694 220.95 48.8449 220.778 49.5012 220.778C50.0897 220.778 50.6053 220.901 51.048 221.146C51.4908 221.385 51.8371 221.75 52.0871 222.239C52.3423 222.724 52.4699 223.336 52.4699 224.075V229.575H51.0715V224.192C51.0715 223.515 50.8944 222.989 50.5402 222.614C50.1913 222.234 49.7121 222.044 49.1027 222.044C48.6861 222.044 48.3111 222.135 47.9777 222.317C47.6444 222.494 47.3814 222.757 47.1887 223.106C46.996 223.455 46.8996 223.882 46.8996 224.388ZM58.1371 220.896V222.091H53.6215V220.896H58.1371ZM54.9574 218.794H56.3559V227.341C56.3559 227.721 56.4314 228 56.5824 228.177C56.7387 228.349 57.0017 228.435 57.3715 228.435C57.46 228.435 57.572 228.427 57.7074 228.411C57.848 228.39 57.9756 228.369 58.0902 228.349L58.348 229.536C58.2074 229.583 58.046 229.617 57.8637 229.638C57.6814 229.659 57.5017 229.669 57.3246 229.669C56.5746 229.669 55.9913 229.476 55.5746 229.091C55.1631 228.7 54.9574 228.153 54.9574 227.45V218.794ZM64.1043 229.575V217.935H68.2449C69.0522 217.935 69.7215 218.073 70.2527 218.349C70.784 218.625 71.1798 218.997 71.4402 219.466C71.7059 219.929 71.8387 220.448 71.8387 221.021C71.8387 221.515 71.7501 221.927 71.573 222.255C71.4012 222.578 71.1694 222.838 70.8777 223.036C70.5913 223.229 70.2762 223.375 69.9324 223.474V223.575C70.3074 223.601 70.6746 223.729 71.034 223.958C71.3986 224.187 71.698 224.51 71.9324 224.927C72.172 225.343 72.2918 225.854 72.2918 226.458C72.2918 227.047 72.1564 227.578 71.8855 228.052C71.6147 228.521 71.1902 228.893 70.6121 229.169C70.034 229.44 69.2866 229.575 68.3699 229.575H64.1043ZM65.5809 228.271H68.3309C69.2371 228.271 69.8855 228.099 70.2762 227.755C70.6668 227.406 70.8621 226.971 70.8621 226.45C70.8621 226.054 70.7631 225.695 70.5652 225.372C70.3673 225.044 70.0861 224.784 69.7215 224.591C69.3569 224.393 68.9194 224.294 68.409 224.294H65.5809V228.271ZM65.5809 223.044H68.1746C68.6017 223.044 68.9845 222.963 69.323 222.802C69.6616 222.635 69.9272 222.403 70.1199 222.106C70.3178 221.81 70.4168 221.461 70.4168 221.06C70.4168 220.544 70.2371 220.112 69.8777 219.763C69.5236 219.414 68.9715 219.239 68.2215 219.239H65.5809V223.044ZM74.1699 229.575V220.896H75.5215V222.231H75.6074C75.7689 221.794 76.0501 221.442 76.4512 221.177C76.8574 220.906 77.321 220.771 77.8418 220.771C77.9512 220.771 78.0736 220.773 78.209 220.778C78.3496 220.784 78.459 220.789 78.5371 220.794V222.2C78.4954 222.19 78.3913 222.174 78.2246 222.153C78.0632 222.132 77.8887 222.122 77.7012 222.122C77.2949 222.122 76.9303 222.208 76.6074 222.38C76.2845 222.547 76.0293 222.784 75.8418 223.091C75.6595 223.393 75.5684 223.747 75.5684 224.153V229.575H74.1699ZM82.3293 229.771C81.7824 229.771 81.2824 229.669 80.8293 229.466C80.3814 229.257 80.0246 228.955 79.759 228.56C79.4986 228.159 79.3683 227.674 79.3683 227.106C79.3683 226.606 79.4647 226.203 79.6574 225.896C79.8553 225.583 80.1183 225.338 80.4465 225.161C80.7746 224.979 81.1392 224.843 81.5402 224.755C81.9413 224.666 82.3449 224.596 82.7512 224.544C83.272 224.476 83.6939 224.424 84.0168 224.388C84.3449 224.351 84.5871 224.289 84.7433 224.2C84.8996 224.112 84.9777 223.961 84.9777 223.747V223.7C84.9777 223.341 84.91 223.036 84.7746 222.786C84.6392 222.536 84.4335 222.343 84.1574 222.208C83.8866 222.073 83.5506 222.005 83.1496 222.005C82.7381 222.005 82.384 222.07 82.0871 222.2C81.7902 222.33 81.548 222.494 81.3605 222.692C81.1782 222.89 81.0454 223.096 80.9621 223.31L79.6105 222.911C79.8137 222.385 80.1001 221.968 80.4699 221.661C80.8397 221.349 81.2538 221.125 81.7121 220.989C82.1756 220.849 82.6418 220.778 83.1105 220.778C83.423 220.778 83.7668 220.817 84.1418 220.896C84.5168 220.974 84.8736 221.119 85.2121 221.333C85.5506 221.541 85.8293 221.846 86.048 222.247C86.2668 222.648 86.3762 223.174 86.3762 223.825V229.575H85.0012V228.388H84.9074C84.8085 228.591 84.6522 228.799 84.4387 229.013C84.2251 229.226 83.9439 229.406 83.5949 229.552C83.2512 229.698 82.8293 229.771 82.3293 229.771ZM82.5715 228.536C83.0923 228.536 83.5298 228.435 83.884 228.231C84.2433 228.028 84.5142 227.765 84.6965 227.442C84.884 227.119 84.9777 226.778 84.9777 226.419V225.231C84.9204 225.299 84.798 225.359 84.6105 225.411C84.423 225.463 84.2069 225.51 83.9621 225.552C83.7225 225.593 83.4855 225.63 83.2512 225.661C83.022 225.687 82.8345 225.711 82.6887 225.731C82.3553 225.773 82.0402 225.846 81.7433 225.95C81.4517 226.049 81.2173 226.195 81.0402 226.388C80.8631 226.58 80.7746 226.843 80.7746 227.177C80.7746 227.474 80.8501 227.724 81.0012 227.927C81.1574 228.125 81.371 228.276 81.6418 228.38C81.9126 228.484 82.2225 228.536 82.5715 228.536ZM90.848 229.575L87.5277 220.896H89.059L90.9105 226.028C91.1032 226.549 91.2673 227.07 91.4027 227.591C91.5434 228.106 91.6866 228.609 91.8324 229.099H91.3402C91.4913 228.609 91.6345 228.106 91.7699 227.591C91.9053 227.07 92.0668 226.549 92.2543 226.028L94.1059 220.896H95.6293L92.309 229.575H90.848ZM100.375 229.763C99.5309 229.763 98.8043 229.575 98.1949 229.2C97.5907 228.825 97.1246 228.304 96.7965 227.638C96.4684 226.966 96.3043 226.187 96.3043 225.302C96.3043 224.411 96.4657 223.627 96.7887 222.95C97.1116 222.268 97.5673 221.737 98.1559 221.356C98.7444 220.971 99.4319 220.778 100.218 220.778C100.692 220.778 101.153 220.859 101.601 221.021C102.054 221.177 102.463 221.429 102.828 221.778C103.192 222.122 103.481 222.573 103.695 223.13C103.908 223.682 104.015 224.351 104.015 225.138V225.7H97.234V224.521H103.257L102.609 224.95C102.609 224.377 102.518 223.872 102.336 223.435C102.153 222.992 101.885 222.646 101.531 222.396C101.177 222.146 100.739 222.021 100.218 222.021C99.6923 222.021 99.2418 222.148 98.8668 222.403C98.497 222.659 98.2131 222.994 98.0152 223.411C97.8173 223.823 97.7184 224.268 97.7184 224.747V225.513C97.7184 226.153 97.8277 226.698 98.0465 227.146C98.2704 227.593 98.5803 227.935 98.9762 228.169C99.3772 228.403 99.846 228.521 100.382 228.521C100.731 228.521 101.046 228.471 101.328 228.372C101.609 228.268 101.851 228.114 102.054 227.911C102.257 227.708 102.411 227.458 102.515 227.161L103.875 227.497C103.744 227.945 103.515 228.338 103.187 228.677C102.864 229.015 102.463 229.281 101.984 229.474C101.51 229.666 100.974 229.763 100.375 229.763ZM112.482 229.771C111.936 229.771 111.436 229.669 110.982 229.466C110.535 229.257 110.178 228.955 109.912 228.56C109.652 228.159 109.521 227.674 109.521 227.106C109.521 226.606 109.618 226.203 109.811 225.896C110.008 225.583 110.271 225.338 110.6 225.161C110.928 224.979 111.292 224.843 111.693 224.755C112.094 224.666 112.498 224.596 112.904 224.544C113.425 224.476 113.847 224.424 114.17 224.388C114.498 224.351 114.74 224.289 114.896 224.2C115.053 224.112 115.131 223.961 115.131 223.747V223.7C115.131 223.341 115.063 223.036 114.928 222.786C114.792 222.536 114.587 222.343 114.311 222.208C114.04 222.073 113.704 222.005 113.303 222.005C112.891 222.005 112.537 222.07 112.24 222.2C111.943 222.33 111.701 222.494 111.514 222.692C111.331 222.89 111.199 223.096 111.115 223.31L109.764 222.911C109.967 222.385 110.253 221.968 110.623 221.661C110.993 221.349 111.407 221.125 111.865 220.989C112.329 220.849 112.795 220.778 113.264 220.778C113.576 220.778 113.92 220.817 114.295 220.896C114.67 220.974 115.027 221.119 115.365 221.333C115.704 221.541 115.982 221.846 116.201 222.247C116.42 222.648 116.529 223.174 116.529 223.825V229.575H115.154V228.388H115.061C114.962 228.591 114.805 228.799 114.592 229.013C114.378 229.226 114.097 229.406 113.748 229.552C113.404 229.698 112.982 229.771 112.482 229.771ZM112.725 228.536C113.245 228.536 113.683 228.435 114.037 228.231C114.396 228.028 114.667 227.765 114.85 227.442C115.037 227.119 115.131 226.778 115.131 226.419V225.231C115.074 225.299 114.951 225.359 114.764 225.411C114.576 225.463 114.36 225.51 114.115 225.552C113.876 225.593 113.639 225.63 113.404 225.661C113.175 225.687 112.988 225.711 112.842 225.731C112.508 225.773 112.193 225.846 111.896 225.95C111.605 226.049 111.37 226.195 111.193 226.388C111.016 226.58 110.928 226.843 110.928 227.177C110.928 227.474 111.003 227.724 111.154 227.927C111.311 228.125 111.524 228.276 111.795 228.38C112.066 228.484 112.376 228.536 112.725 228.536ZM122.275 229.763C121.488 229.763 120.798 229.575 120.204 229.2C119.611 228.825 119.147 228.302 118.814 227.63C118.48 226.958 118.314 226.177 118.314 225.286C118.314 224.38 118.48 223.591 118.814 222.919C119.147 222.242 119.611 221.716 120.204 221.341C120.798 220.966 121.488 220.778 122.275 220.778C122.702 220.778 123.103 220.836 123.478 220.95C123.858 221.06 124.202 221.221 124.509 221.435C124.821 221.643 125.087 221.901 125.306 222.208C125.53 222.515 125.696 222.859 125.806 223.239L124.462 223.583C124.4 223.354 124.303 223.146 124.173 222.958C124.048 222.771 123.892 222.606 123.704 222.466C123.522 222.325 123.311 222.218 123.071 222.146C122.832 222.067 122.566 222.028 122.275 222.028C121.702 222.028 121.228 222.179 120.853 222.481C120.478 222.778 120.196 223.174 120.009 223.669C119.827 224.159 119.736 224.698 119.736 225.286C119.736 225.864 119.827 226.398 120.009 226.888C120.196 227.377 120.478 227.771 120.853 228.067C121.228 228.364 121.702 228.513 122.275 228.513C122.571 228.513 122.84 228.474 123.079 228.396C123.324 228.317 123.54 228.208 123.728 228.067C123.915 227.922 124.074 227.75 124.204 227.552C124.334 227.349 124.431 227.13 124.493 226.896L125.837 227.231C125.728 227.627 125.561 227.981 125.337 228.294C125.118 228.601 124.853 228.867 124.54 229.091C124.228 229.31 123.879 229.476 123.493 229.591C123.113 229.705 122.707 229.763 122.275 229.763ZM131.137 229.763C130.351 229.763 129.661 229.575 129.067 229.2C128.473 228.825 128.009 228.302 127.676 227.63C127.343 226.958 127.176 226.177 127.176 225.286C127.176 224.38 127.343 223.591 127.676 222.919C128.009 222.242 128.473 221.716 129.067 221.341C129.661 220.966 130.351 220.778 131.137 220.778C131.564 220.778 131.965 220.836 132.34 220.95C132.72 221.06 133.064 221.221 133.371 221.435C133.684 221.643 133.95 221.901 134.168 222.208C134.392 222.515 134.559 222.859 134.668 223.239L133.325 223.583C133.262 223.354 133.166 223.146 133.036 222.958C132.911 222.771 132.754 222.606 132.567 222.466C132.384 222.325 132.174 222.218 131.934 222.146C131.694 222.067 131.429 222.028 131.137 222.028C130.564 222.028 130.09 222.179 129.715 222.481C129.34 222.778 129.059 223.174 128.871 223.669C128.689 224.159 128.598 224.698 128.598 225.286C128.598 225.864 128.689 226.398 128.871 226.888C129.059 227.377 129.34 227.771 129.715 228.067C130.09 228.364 130.564 228.513 131.137 228.513C131.434 228.513 131.702 228.474 131.942 228.396C132.187 228.317 132.403 228.208 132.59 228.067C132.778 227.922 132.937 227.75 133.067 227.552C133.197 227.349 133.293 227.13 133.356 226.896L134.7 227.231C134.59 227.627 134.424 227.981 134.2 228.294C133.981 228.601 133.715 228.867 133.403 229.091C133.09 229.31 132.741 229.476 132.356 229.591C131.976 229.705 131.569 229.763 131.137 229.763ZM140.109 229.763C139.265 229.763 138.539 229.575 137.929 229.2C137.325 228.825 136.859 228.304 136.531 227.638C136.203 226.966 136.039 226.187 136.039 225.302C136.039 224.411 136.2 223.627 136.523 222.95C136.846 222.268 137.302 221.737 137.89 221.356C138.479 220.971 139.166 220.778 139.953 220.778C140.427 220.778 140.888 220.859 141.336 221.021C141.789 221.177 142.198 221.429 142.562 221.778C142.927 222.122 143.216 222.573 143.429 223.13C143.643 223.682 143.75 224.351 143.75 225.138V225.7H136.968V224.521H142.992L142.343 224.95C142.343 224.377 142.252 223.872 142.07 223.435C141.888 222.992 141.619 222.646 141.265 222.396C140.911 222.146 140.474 222.021 139.953 222.021C139.427 222.021 138.976 222.148 138.601 222.403C138.231 222.659 137.948 222.994 137.75 223.411C137.552 223.823 137.453 224.268 137.453 224.747V225.513C137.453 226.153 137.562 226.698 137.781 227.146C138.005 227.593 138.315 227.935 138.711 228.169C139.112 228.403 139.58 228.521 140.117 228.521C140.466 228.521 140.781 228.471 141.062 228.372C141.343 228.268 141.586 228.114 141.789 227.911C141.992 227.708 142.145 227.458 142.25 227.161L143.609 227.497C143.479 227.945 143.25 228.338 142.921 228.677C142.599 229.015 142.198 229.281 141.718 229.474C141.244 229.666 140.708 229.763 140.109 229.763ZM148.471 229.763C147.873 229.763 147.339 229.674 146.87 229.497C146.406 229.32 146.024 229.057 145.721 228.708C145.419 228.359 145.219 227.929 145.12 227.419L146.456 227.138C146.57 227.617 146.8 227.971 147.143 228.2C147.492 228.424 147.93 228.536 148.456 228.536C149.06 228.536 149.542 228.409 149.901 228.153C150.261 227.893 150.44 227.583 150.44 227.224C150.44 226.922 150.333 226.672 150.12 226.474C149.906 226.271 149.586 226.122 149.159 226.028L147.721 225.685C146.935 225.497 146.346 225.208 145.956 224.817C145.57 224.422 145.378 223.919 145.378 223.31C145.378 222.81 145.516 222.369 145.792 221.989C146.073 221.609 146.456 221.312 146.94 221.099C147.425 220.885 147.974 220.778 148.589 220.778C149.182 220.778 149.69 220.869 150.112 221.052C150.539 221.234 150.883 221.489 151.143 221.817C151.409 222.14 151.602 222.515 151.721 222.942L150.44 223.231C150.336 222.903 150.141 222.612 149.854 222.356C149.573 222.096 149.154 221.966 148.596 221.966C148.076 221.966 147.643 222.086 147.3 222.325C146.961 222.565 146.792 222.867 146.792 223.231C146.792 223.554 146.909 223.815 147.143 224.013C147.378 224.205 147.742 224.359 148.237 224.474L149.557 224.786C150.349 224.974 150.935 225.263 151.315 225.653C151.695 226.044 151.886 226.539 151.886 227.138C151.886 227.648 151.742 228.101 151.456 228.497C151.169 228.893 150.768 229.203 150.253 229.427C149.737 229.651 149.143 229.763 148.471 229.763ZM156.631 229.763C156.032 229.763 155.498 229.674 155.029 229.497C154.566 229.32 154.183 229.057 153.881 228.708C153.579 228.359 153.378 227.929 153.279 227.419L154.615 227.138C154.73 227.617 154.959 227.971 155.303 228.2C155.652 228.424 156.089 228.536 156.615 228.536C157.219 228.536 157.701 228.409 158.061 228.153C158.42 227.893 158.6 227.583 158.6 227.224C158.6 226.922 158.493 226.672 158.279 226.474C158.066 226.271 157.745 226.122 157.318 226.028L155.881 225.685C155.094 225.497 154.506 225.208 154.115 224.817C153.73 224.422 153.537 223.919 153.537 223.31C153.537 222.81 153.675 222.369 153.951 221.989C154.232 221.609 154.615 221.312 155.1 221.099C155.584 220.885 156.133 220.778 156.748 220.778C157.342 220.778 157.85 220.869 158.271 221.052C158.699 221.234 159.042 221.489 159.303 221.817C159.568 222.14 159.761 222.515 159.881 222.942L158.6 223.231C158.495 222.903 158.3 222.612 158.014 222.356C157.732 222.096 157.313 221.966 156.756 221.966C156.235 221.966 155.803 222.086 155.459 222.325C155.12 222.565 154.951 222.867 154.951 223.231C154.951 223.554 155.068 223.815 155.303 224.013C155.537 224.205 155.902 224.359 156.396 224.474L157.717 224.786C158.508 224.974 159.094 225.263 159.475 225.653C159.855 226.044 160.045 226.539 160.045 227.138C160.045 227.648 159.902 228.101 159.615 228.497C159.329 228.893 158.928 229.203 158.412 229.427C157.896 229.651 157.303 229.763 156.631 229.763ZM169.543 220.896V222.091H165.028V220.896H169.543ZM166.364 218.794H167.762V227.341C167.762 227.721 167.838 228 167.989 228.177C168.145 228.349 168.408 228.435 168.778 228.435C168.866 228.435 168.978 228.427 169.114 228.411C169.254 228.39 169.382 228.369 169.496 228.349L169.754 229.536C169.614 229.583 169.452 229.617 169.27 229.638C169.088 229.659 168.908 229.669 168.731 229.669C167.981 229.669 167.398 229.476 166.981 229.091C166.569 228.7 166.364 228.153 166.364 227.45V218.794ZM174.468 229.763C173.682 229.763 172.992 229.575 172.398 229.2C171.804 228.825 171.341 228.302 171.007 227.63C170.674 226.958 170.507 226.177 170.507 225.286C170.507 224.38 170.674 223.591 171.007 222.919C171.341 222.242 171.804 221.716 172.398 221.341C172.992 220.966 173.682 220.778 174.468 220.778C175.265 220.778 175.961 220.966 176.554 221.341C177.153 221.716 177.617 222.242 177.945 222.919C178.278 223.591 178.445 224.38 178.445 225.286C178.445 226.177 178.278 226.958 177.945 227.63C177.617 228.302 177.153 228.825 176.554 229.2C175.961 229.575 175.265 229.763 174.468 229.763ZM174.468 228.513C175.052 228.513 175.531 228.364 175.906 228.067C176.286 227.771 176.567 227.377 176.75 226.888C176.937 226.398 177.031 225.864 177.031 225.286C177.031 224.703 176.937 224.164 176.75 223.669C176.567 223.174 176.286 222.778 175.906 222.481C175.531 222.179 175.052 222.028 174.468 222.028C173.895 222.028 173.421 222.179 173.046 222.481C172.671 222.778 172.39 223.174 172.203 223.669C172.02 224.159 171.929 224.698 171.929 225.286C171.929 225.864 172.02 226.398 172.203 226.888C172.39 227.377 172.671 227.771 173.046 228.067C173.421 228.364 173.895 228.513 174.468 228.513ZM184.365 232.747L184.686 231.536L184.912 231.575C185.183 231.638 185.43 231.648 185.654 231.606C185.878 231.57 186.079 231.455 186.256 231.263C186.438 231.075 186.594 230.784 186.725 230.388L186.998 229.606L183.678 220.896H185.209L187.061 226.028C187.253 226.554 187.417 227.075 187.553 227.591C187.688 228.106 187.831 228.609 187.982 229.099H187.482C187.628 228.609 187.771 228.106 187.912 227.591C188.053 227.07 188.217 226.549 188.404 226.028L190.264 220.896H191.779L187.951 230.903C187.774 231.356 187.563 231.729 187.318 232.021C187.074 232.317 186.79 232.536 186.467 232.677C186.144 232.823 185.779 232.896 185.373 232.896C185.139 232.896 184.933 232.88 184.756 232.849C184.579 232.817 184.449 232.784 184.365 232.747ZM196.415 229.763C195.629 229.763 194.939 229.575 194.345 229.2C193.751 228.825 193.288 228.302 192.954 227.63C192.621 226.958 192.454 226.177 192.454 225.286C192.454 224.38 192.621 223.591 192.954 222.919C193.288 222.242 193.751 221.716 194.345 221.341C194.939 220.966 195.629 220.778 196.415 220.778C197.212 220.778 197.907 220.966 198.501 221.341C199.1 221.716 199.564 222.242 199.892 222.919C200.225 223.591 200.392 224.38 200.392 225.286C200.392 226.177 200.225 226.958 199.892 227.63C199.564 228.302 199.1 228.825 198.501 229.2C197.907 229.575 197.212 229.763 196.415 229.763ZM196.415 228.513C196.999 228.513 197.478 228.364 197.853 228.067C198.233 227.771 198.514 227.377 198.696 226.888C198.884 226.398 198.978 225.864 198.978 225.286C198.978 224.703 198.884 224.164 198.696 223.669C198.514 223.174 198.233 222.778 197.853 222.481C197.478 222.179 196.999 222.028 196.415 222.028C195.842 222.028 195.368 222.179 194.993 222.481C194.618 222.778 194.337 223.174 194.15 223.669C193.967 224.159 193.876 224.698 193.876 225.286C193.876 225.864 193.967 226.398 194.15 226.888C194.337 227.377 194.618 227.771 194.993 228.067C195.368 228.364 195.842 228.513 196.415 228.513ZM205.145 229.692C204.562 229.692 204.046 229.573 203.598 229.333C203.155 229.088 202.806 228.721 202.551 228.231C202.301 227.742 202.176 227.13 202.176 226.396V220.896H203.575V226.278C203.575 226.955 203.752 227.484 204.106 227.864C204.46 228.239 204.942 228.427 205.551 228.427C205.968 228.427 206.34 228.338 206.668 228.161C207.002 227.979 207.265 227.713 207.457 227.364C207.65 227.01 207.746 226.583 207.746 226.083V220.896H209.145V229.575H207.793V227.474H208.004C207.733 228.281 207.351 228.854 206.856 229.192C206.361 229.526 205.791 229.692 205.145 229.692ZM211.367 229.575V220.896H212.718V222.231H212.804C212.966 221.794 213.247 221.442 213.648 221.177C214.054 220.906 214.518 220.771 215.039 220.771C215.148 220.771 215.27 220.773 215.406 220.778C215.546 220.784 215.656 220.789 215.734 220.794V222.2C215.692 222.19 215.588 222.174 215.421 222.153C215.26 222.132 215.086 222.122 214.898 222.122C214.492 222.122 214.127 222.208 213.804 222.38C213.481 222.547 213.226 222.784 213.039 223.091C212.856 223.393 212.765 223.747 212.765 224.153V229.575H211.367ZM220.771 219.692V217.935H230.045V219.692H226.451V229.575H224.373V219.692H220.771ZM230.571 229.575V220.896H232.532V222.349H232.618C232.775 221.843 233.043 221.455 233.423 221.185C233.808 220.914 234.254 220.778 234.759 220.778C234.874 220.778 234.999 220.784 235.134 220.794C235.275 220.804 235.392 220.817 235.486 220.833V222.692C235.407 222.666 235.275 222.643 235.087 222.622C234.9 222.601 234.715 222.591 234.532 222.591C234.163 222.591 233.829 222.672 233.532 222.833C233.241 222.989 233.012 223.211 232.845 223.497C232.678 223.778 232.595 224.109 232.595 224.489V229.575H230.571ZM240.161 229.755C239.291 229.755 238.538 229.57 237.903 229.2C237.273 228.83 236.788 228.312 236.45 227.646C236.111 226.974 235.942 226.187 235.942 225.286C235.942 224.396 236.108 223.612 236.442 222.935C236.78 222.257 237.257 221.729 237.871 221.349C238.486 220.968 239.205 220.778 240.028 220.778C240.569 220.778 241.08 220.867 241.559 221.044C242.043 221.216 242.47 221.484 242.84 221.849C243.21 222.208 243.499 222.664 243.707 223.216C243.921 223.768 244.028 224.422 244.028 225.177V225.794H236.879V224.419H243.012L242.075 224.825C242.075 224.336 241.996 223.906 241.84 223.536C241.684 223.166 241.455 222.88 241.153 222.677C240.856 222.468 240.486 222.364 240.043 222.364C239.601 222.364 239.223 222.468 238.911 222.677C238.598 222.885 238.358 223.166 238.192 223.521C238.03 223.869 237.95 224.26 237.95 224.692V225.638C237.95 226.179 238.041 226.64 238.223 227.021C238.411 227.396 238.671 227.679 239.004 227.872C239.343 228.065 239.736 228.161 240.184 228.161C240.486 228.161 240.759 228.119 241.004 228.036C241.249 227.948 241.457 227.82 241.629 227.653C241.806 227.481 241.939 227.273 242.028 227.028L243.895 227.372C243.759 227.846 243.52 228.263 243.176 228.622C242.838 228.976 242.413 229.255 241.903 229.458C241.392 229.656 240.812 229.755 240.161 229.755ZM245.109 229.575V228.271L249.586 222.646V222.583H245.234V220.896H252.062V222.31L247.781 227.825V227.888H252.203V229.575H245.109ZM257.471 229.755C256.628 229.755 255.893 229.567 255.268 229.192C254.643 228.817 254.159 228.294 253.815 227.622C253.477 226.95 253.307 226.169 253.307 225.278C253.307 224.377 253.477 223.591 253.815 222.919C254.159 222.242 254.643 221.716 255.268 221.341C255.893 220.966 256.628 220.778 257.471 220.778C258.315 220.778 259.05 220.966 259.675 221.341C260.3 221.716 260.781 222.242 261.12 222.919C261.464 223.591 261.636 224.377 261.636 225.278C261.636 226.169 261.464 226.95 261.12 227.622C260.781 228.294 260.3 228.817 259.675 229.192C259.05 229.567 258.315 229.755 257.471 229.755ZM257.471 228.106C257.94 228.106 258.331 227.981 258.643 227.731C258.956 227.476 259.19 227.135 259.346 226.708C259.503 226.281 259.581 225.802 259.581 225.271C259.581 224.734 259.503 224.252 259.346 223.825C259.19 223.393 258.956 223.052 258.643 222.802C258.331 222.552 257.94 222.427 257.471 222.427C257.003 222.427 256.612 222.552 256.3 222.802C255.992 223.052 255.761 223.39 255.604 223.817C255.448 224.244 255.37 224.729 255.37 225.271C255.37 225.802 255.448 226.281 255.604 226.708C255.761 227.135 255.992 227.476 256.3 227.731C256.612 227.981 257.003 228.106 257.471 228.106ZM263.162 229.575V220.896H265.123V222.349H265.209C265.365 221.843 265.633 221.455 266.014 221.185C266.399 220.914 266.844 220.778 267.35 220.778C267.464 220.778 267.589 220.784 267.725 220.794C267.865 220.804 267.982 220.817 268.076 220.833V222.692C267.998 222.666 267.865 222.643 267.678 222.622C267.49 222.601 267.305 222.591 267.123 222.591C266.753 222.591 266.42 222.672 266.123 222.833C265.831 222.989 265.602 223.211 265.436 223.497C265.269 223.778 265.186 224.109 265.186 224.489V229.575H263.162ZM276.911 229.763C276.187 229.763 275.546 229.578 274.989 229.208C274.437 228.838 274.004 228.317 273.692 227.646C273.379 226.968 273.223 226.172 273.223 225.255C273.223 224.343 273.379 223.552 273.692 222.88C274.009 222.208 274.444 221.69 274.996 221.325C275.554 220.961 276.194 220.778 276.918 220.778C277.46 220.778 277.898 220.869 278.231 221.052C278.564 221.229 278.825 221.435 279.012 221.669C279.205 221.898 279.351 222.099 279.45 222.271H279.551V217.935H280.95V229.575H279.598V228.231H279.457C279.353 228.414 279.202 228.625 279.004 228.864C278.812 229.099 278.549 229.307 278.215 229.489C277.882 229.672 277.447 229.763 276.911 229.763ZM277.121 228.505C277.648 228.505 278.093 228.367 278.457 228.091C278.827 227.815 279.106 227.432 279.293 226.942C279.481 226.453 279.575 225.885 279.575 225.239C279.575 224.599 279.481 224.039 279.293 223.56C279.111 223.08 278.835 222.705 278.465 222.435C278.101 222.164 277.653 222.028 277.121 222.028C276.575 222.028 276.116 222.169 275.746 222.45C275.382 222.731 275.106 223.114 274.918 223.599C274.736 224.083 274.645 224.63 274.645 225.239C274.645 225.859 274.739 226.416 274.926 226.911C275.114 227.401 275.392 227.789 275.762 228.075C276.132 228.362 276.585 228.505 277.121 228.505ZM286.812 229.763C285.968 229.763 285.242 229.575 284.632 229.2C284.028 228.825 283.562 228.304 283.234 227.638C282.906 226.966 282.742 226.187 282.742 225.302C282.742 224.411 282.903 223.627 283.226 222.95C283.549 222.268 284.005 221.737 284.593 221.356C285.182 220.971 285.869 220.778 286.656 220.778C287.13 220.778 287.591 220.859 288.039 221.021C288.492 221.177 288.901 221.429 289.265 221.778C289.63 222.122 289.919 222.573 290.132 223.13C290.346 223.682 290.453 224.351 290.453 225.138V225.7H283.671V224.521H289.695L289.046 224.95C289.046 224.377 288.955 223.872 288.773 223.435C288.591 222.992 288.323 222.646 287.968 222.396C287.614 222.146 287.177 222.021 286.656 222.021C286.13 222.021 285.679 222.148 285.304 222.403C284.934 222.659 284.651 222.994 284.453 223.411C284.255 223.823 284.156 224.268 284.156 224.747V225.513C284.156 226.153 284.265 226.698 284.484 227.146C284.708 227.593 285.018 227.935 285.414 228.169C285.815 228.403 286.283 228.521 286.82 228.521C287.169 228.521 287.484 228.471 287.765 228.372C288.046 228.268 288.289 228.114 288.492 227.911C288.695 227.708 288.849 227.458 288.953 227.161L290.312 227.497C290.182 227.945 289.953 228.338 289.625 228.677C289.302 229.015 288.901 229.281 288.421 229.474C287.948 229.666 287.411 229.763 286.812 229.763ZM294.417 229.575L291.096 220.896H292.628L294.479 226.028C294.672 226.549 294.836 227.07 294.971 227.591C295.112 228.106 295.255 228.609 295.401 229.099H294.909C295.06 228.609 295.203 228.106 295.339 227.591C295.474 227.07 295.636 226.549 295.823 226.028L297.675 220.896H299.198L295.878 229.575H294.417ZM300.607 229.575V220.896H302.006V229.575H300.607ZM301.318 219.442C301.053 219.442 300.824 219.354 300.631 219.177C300.443 218.994 300.35 218.776 300.35 218.521C300.35 218.26 300.443 218.041 300.631 217.864C300.824 217.682 301.053 217.591 301.318 217.591C301.589 217.591 301.818 217.682 302.006 217.864C302.199 218.041 302.295 218.26 302.295 218.521C302.295 218.776 302.199 218.994 302.006 219.177C301.818 219.354 301.589 219.442 301.318 219.442ZM307.759 229.763C306.973 229.763 306.282 229.575 305.689 229.2C305.095 228.825 304.631 228.302 304.298 227.63C303.965 226.958 303.798 226.177 303.798 225.286C303.798 224.38 303.965 223.591 304.298 222.919C304.631 222.242 305.095 221.716 305.689 221.341C306.282 220.966 306.973 220.778 307.759 220.778C308.186 220.778 308.587 220.836 308.962 220.95C309.342 221.06 309.686 221.221 309.993 221.435C310.306 221.643 310.571 221.901 310.79 222.208C311.014 222.515 311.181 222.859 311.29 223.239L309.946 223.583C309.884 223.354 309.788 223.146 309.657 222.958C309.532 222.771 309.376 222.606 309.189 222.466C309.006 222.325 308.795 222.218 308.556 222.146C308.316 222.067 308.051 222.028 307.759 222.028C307.186 222.028 306.712 222.179 306.337 222.481C305.962 222.778 305.681 223.174 305.493 223.669C305.311 224.159 305.22 224.698 305.22 225.286C305.22 225.864 305.311 226.398 305.493 226.888C305.681 227.377 305.962 227.771 306.337 228.067C306.712 228.364 307.186 228.513 307.759 228.513C308.056 228.513 308.324 228.474 308.564 228.396C308.808 228.317 309.025 228.208 309.212 228.067C309.4 227.922 309.558 227.75 309.689 227.552C309.819 227.349 309.915 227.13 309.978 226.896L311.321 227.231C311.212 227.627 311.045 227.981 310.821 228.294C310.603 228.601 310.337 228.867 310.025 229.091C309.712 229.31 309.363 229.476 308.978 229.591C308.598 229.705 308.191 229.763 307.759 229.763ZM316.731 229.763C315.887 229.763 315.161 229.575 314.551 229.2C313.947 228.825 313.481 228.304 313.153 227.638C312.825 226.966 312.661 226.187 312.661 225.302C312.661 224.411 312.822 223.627 313.145 222.95C313.468 222.268 313.924 221.737 314.512 221.356C315.101 220.971 315.788 220.778 316.575 220.778C317.049 220.778 317.51 220.859 317.957 221.021C318.411 221.177 318.819 221.429 319.184 221.778C319.549 222.122 319.838 222.573 320.051 223.13C320.265 223.682 320.371 224.351 320.371 225.138V225.7H313.59V224.521H319.614L318.965 224.95C318.965 224.377 318.874 223.872 318.692 223.435C318.51 222.992 318.241 222.646 317.887 222.396C317.533 222.146 317.095 222.021 316.575 222.021C316.049 222.021 315.598 222.148 315.223 222.403C314.853 222.659 314.569 222.994 314.371 223.411C314.174 223.823 314.075 224.268 314.075 224.747V225.513C314.075 226.153 314.184 226.698 314.403 227.146C314.627 227.593 314.937 227.935 315.332 228.169C315.733 228.403 316.202 228.521 316.739 228.521C317.088 228.521 317.403 228.471 317.684 228.372C317.965 228.268 318.207 228.114 318.411 227.911C318.614 227.708 318.767 227.458 318.871 227.161L320.231 227.497C320.101 227.945 319.871 228.338 319.543 228.677C319.22 229.015 318.819 229.281 318.34 229.474C317.866 229.666 317.33 229.763 316.731 229.763Z" fill="#F3F5F7"/>
<defs>
<filter id="filter0_dd_9183_60114" x="0.165556" y="51.7751" width="299.507" height="136.713" filterUnits="userSpaceOnUse" color-interpolation-filters="sRGB">
<feFlood flood-opacity="0" result="BackgroundImageFix"/>
<feColorMatrix in="SourceAlpha" type="matrix" values="0 0 0 0 0 0 0 0 0 0 0 0 0 0 0 0 0 0 127 0" result="hardAlpha"/>
<feOffset dy="0.177013"/>
<feGaussianBlur stdDeviation="1.06208"/>
<feComposite in2="hardAlpha" operator="out"/>
<feColorMatrix type="matrix" values="0 0 0 0 0 0 0 0 0 0 0 0 0 0 0 0 0 0 0.02 0"/>
<feBlend mode="multiply" in2="BackgroundImageFix" result="effect1_dropShadow_9183_60114"/>
<feColorMatrix in="SourceAlpha" type="matrix" values="0 0 0 0 0 0 0 0 0 0 0 0 0 0 0 0 0 0 127 0" result="hardAlpha"/>
<feMorphology radius="1.41611" operator="erode" in="SourceAlpha" result="effect2_dropShadow_9183_60114"/>
<feOffset dy="2.83222"/>
<feGaussianBlur stdDeviation="4.24832"/>
<feComposite in2="hardAlpha" operator="out"/>
<feColorMatrix type="matrix" values="0 0 0 0 0 0 0 0 0 0 0 0 0 0 0 0 0 0 0.11 0"/>
<feBlend mode="multiply" in2="effect1_dropShadow_9183_60114" result="effect2_dropShadow_9183_60114"/>
<feBlend mode="normal" in="SourceGraphic" in2="effect2_dropShadow_9183_60114" result="shape"/>
</filter>
<linearGradient id="paint0_linear_9183_60114" x1="16.6865" y1="32.729" x2="26.5242" y2="32.729" gradientUnits="userSpaceOnUse">
<stop stop-color="#FF5500"/>
<stop offset="0.409877" stop-color="#FF5500"/>
<stop offset="0.49434" stop-color="#FF4530"/>
<stop offset="0.572365" stop-color="#FF2000"/>
<stop offset="1" stop-color="#FF2000"/>
</linearGradient>
<linearGradient id="paint1_linear_9183_60114" x1="21.5934" y1="31.9094" x2="25.1655" y2="31.9094" gradientUnits="userSpaceOnUse">
<stop stop-color="white"/>
<stop offset="1" stop-color="#F4F4F4"/>
</linearGradient>
<linearGradient id="paint2_linear_9183_60114" x1="293.299" y1="26.9931" x2="172.222" y2="26.9931" gradientUnits="userSpaceOnUse">
<stop/>
<stop offset="1" stop-opacity="0"/>
</linearGradient>
<clipPath id="clip0_9183_60114">
<rect width="285.346" height="28.3222" fill="white" transform="translate(7.24609 12.832)"/>
</clipPath>
<clipPath id="clip1_9183_60114">
<rect width="63" height="16" fill="white" transform="translate(259.654 33)"/>
</clipPath>
</defs>
</svg>
