<svg preserveAspectRatio="xMinYMid" viewBox="0 0 999 1759" xmlns="http://www.w3.org/2000/svg" xmlns:xlink="http://www.w3.org/1999/xlink"><defs><rect id="a" height="1759" rx="12" width="999"/><mask id="b" fill="#fff"><use fill="#fff" fill-rule="evenodd" xlink:href="#a"/></mask></defs><g fill="none" fill-rule="evenodd"><use fill="#f8faff" xlink:href="#a"/><g mask="url(#b)"><path d="m1013.939 561.72c216.37 102.849 228.657 349.228-76.439 532.78s-633.511 223.38-705.5 294.5-80.546 106.52 43.843 199.08c82.926 61.707 503.76 150.955 1262.5 267.745l111.657 95.175-2001-46.928 55.508-1387.097c728.707-38.735 1165.184-23.82 1309.43 44.745z" fill="#e3ebf8"/><path d="m620.557 634.09c203.45 99.372 248.943 175.41 249.443 248.91s-67.164 181.538-322.768 239.72c-255.604 58.183-445.577 19.97-579.368 175.578-95.864 111.495-107.58 120.825-22.864 241.071 214.333 304.223 568.333 434.378 1062 390.463l-25.5 15.168-1135.5-44.28 30-1347.72c360.738-12.19 608.923 14.84 744.557 81.09z" fill="#fff"/></g></g></svg>