<svg xmlns="http://www.w3.org/2000/svg" xmlns:xlink="http://www.w3.org/1999/xlink" fill="none" viewBox="0 0 90 28">
  <path fill="url(#a)" fill-rule="evenodd" d="m23.2377 6.70302.6539-1.60851s-.8322-.89362-1.8428-1.90638c-1.0105-1.01277-3.1505-.41702-3.1505-.41702L16.4611 0H7.90126L5.46407 2.77111s-2.13997-.59575-3.15051.41702C1.30302 4.20089.470811 5.09451.470811 5.09451l.653879 1.60851L.29248 9.086s2.44759 9.2909 2.7344 10.4255c.56472 2.2341.9511 3.0979 2.55608 4.2298 1.60497 1.1319 4.51774 3.0979 4.99324 3.3958.4756.2978 1.07.8052 1.605.8052s1.1294-.5074 1.605-.8052c.4755-.2979 3.3882-2.2639 4.9932-3.3958s1.9914-1.9957 2.5561-4.2298c.2868-1.1346 2.7344-10.4255 2.7344-10.4255z" clip-rule="evenodd"/>
  <path fill="#fff" d="M15.2129 5.03498c.3567 0 3.0019-.50638 3.0019-.50638s3.1348 3.79787 3.1348 4.60958c0 .67111-.2696.93382-.587 1.24312-.0665.0648-.1352.1317-.2038.2048l-2.3505 2.5014c-.0233.0248-.0493.051-.0767.0786-.2347.2365-.5801.5846-.3364 1.1628.0163.0386.0331.0779.0501.1178.2673.6264.5972 1.3998.1773 2.1834-.4468.8336-1.2122 1.39-1.7026 1.298-.4904-.0921-1.6421-.6952-2.0656-.9708-.4236-.2755-1.7659-1.385-1.7659-1.8096 0-.354.9654-.943 1.4344-1.2292.0933-.0569.167-.1019.2095-.1306.0484-.0327.1294-.0831.2291-.1452.4281-.2665 1.2011-.7479 1.2205-.9613.0239-.2631.0148-.3403-.3302-.9903-.0734-.1383-.1593-.2863-.248-.4394-.3286-.5666-.6965-1.201-.6151-1.65552.092-.51303.8941-.80718 1.5735-1.05634.0849-.03114.1679-.06158.2474-.09166.1983-.07504.4475-.16858.7077-.26629.6784-.25466 1.4321-.5376 1.5564-.59503.1721-.07953.1276-.15525-.3935-.20476-.069-.00655-.1547-.01568-.2531-.02616-.6451-.0687-1.8349-.19542-2.4133-.03383-.1138.03178-.2413.06639-.3751.10269-.6499.17637-1.4463.39252-1.5228.51712-.0134.0218-.0265.04054-.039.05824-.0732.10428-.1209.17227-.0399.61537.0241.13195.0737.39149.135.7124.1795.93967.4596 2.40537.4948 2.73467.005.0461.0104.0905.0156.1333.0449.3674.0748.6118-.3508.7093-.0355.0082-.0727.0167-.1114.0256-.4803.1105-1.1845.2724-1.4389.2724-.2546 0-.9593-.162-1.4396-.2725-.0384-.0089-.0755-.0174-.1107-.0255-.4257-.0975-.3959-.342-.3509-.7093.0052-.0428.0106-.0872.0156-.1333.0353-.3298.3161-1.7991.4955-2.73856.061-.31912.1103-.5771.1343-.70851.081-.44306.0333-.51108-.0399-.61535-.0124-.0177-.0256-.03645-.039-.05826-.0765-.1246-.87282-.34072-1.5227-.51709-.13378-.03631-.26136-.07093-.37517-.10272-.57841-.16158-1.76809-.03488-2.41324.03382-.09843.01048-.18418.01962-.25316.02617-.52108.04951-.56554.12523-.39351.20476.12429.05742.87763.34022 1.55586.59483.26047.09778.50986.1914.70828.26649.0795.03009.16254.06055.24749.09171.67939.24915 1.48145.54329 1.57339 1.05629.08146.45442-.28642 1.08872-.61496 1.65532-.08879.1531-.1747.3012-.2481.4396-.34507.65-.35423.7272-.33027.9903.01938.2134.79212.6946 1.22029.9612.0998.0621.1808.1126.2293.1453.0425.0287.1161.0736.2093.1305.469.2861 1.4346.8752 1.4346 1.2293 0 .4246-1.3423 1.5341-1.7658 1.8096-.42355.2756-1.57527.8787-2.06568.9708-.49041.092-1.25575-.4644-1.70253-1.298-.41995-.7836-.09009-1.5568.17714-2.1832.01703-.04.0338-.0793.05012-.118.24381-.5783-.10174-.9264-.3364-1.1628-.02742-.0277-.05334-.0538-.07662-.0786l-2.35051-2.5014c-.06866-.0731-.13725-.1399-.20374-.2047-.31748-.3094-.58704-.57208-.58704-1.24322 0-.81171 3.13481-4.60958 3.13481-4.60958s2.64524.50638 3.0019.50638c.28461 0 .83416-.18966 1.40705-.38738.145-.05006.2916-.10064.4357-.14879.7133-.23829 1.1889-.24002 1.1889-.24002s.4755.00173 1.1888.24002c.1442.04815.2907.09873.4358.14879.5728.19772 1.1224.38738 1.407.38738"/>
  <path fill="#fff" d="M14.7588 18.4685c.5592.2888.9559.4936 1.1059.5877.1941.1218.0757.3513-.101.4765-.1768.1253-2.5522 1.9687-2.7827 2.1725-.0295.0261-.0608.0543-.0934.0838-.2221.2006-.5055.4565-.7063.4565-.201 0-.4845-.2561-.7067-.4568-.0324-.0293-.0636-.0575-.093-.0835-.2306-.2038-2.60598-2.0472-2.78276-2.1725-.17679-.1252-.29508-.3547-.10105-.4765.15009-.0941.54719-.2992 1.10695-.5883.16406-.0847.34208-.1766.53196-.2751.8376-.4344 1.8816-.8038 2.0446-.8038.1629 0 1.2068.3694 2.0446.8038.1902.0987.3686.1908.5329.2757"/>
  <path fill="#1c1c1d" d="M34.7945 9.14253c.7078-.37317 1.517-.55976 2.4256-.55976 1.0587 0 2.016.26163 2.8718.78286.8559.52122 1.5353 1.26347 2.0343 2.22487.4989.9613.7483 2.0747.7483 3.3423s-.2494 2.3892-.7483 3.3647c-.499.9755-1.1784 1.732-2.0343 2.2695-.8579.5374-1.8151.8051-2.8718.8051-.9248 0-1.732-.1825-2.4256-.5476-.6936-.365-1.2493-.8376-1.6651-1.4197v1.7665H30V4.62793h3.1294v5.96877c.4016-.5963.9573-1.08099 1.6651-1.45214zM39.2219 13c-.3063-.5435-.7078-.9573-1.2068-1.2412-.4989-.2839-1.0404-.4239-1.6204-.4239-.5801 0-1.0993.1461-1.5982.4361s-.9025.7119-1.2067 1.2635c-.3063.5517-.4584 1.2007-.4584 1.945s.1521 1.3933.4584 1.9449c.3062.5517.7078.9715 1.2067 1.2636.4989.29 1.0323.436 1.5982.436.5658 0 1.1215-.148 1.6204-.4462.499-.2981.9026-.722 1.2068-1.2736.3062-.5517.4583-1.2068.4583-1.9673 0-.7606-.1521-1.3893-.4583-1.9328zm9.299-3.83526c.649-.37317 1.3893-.55976 2.2249-.55976v3.28552h-.8275c-.9836 0-1.7259.2312-2.2249.6937-.4989.4624-.7483 1.2675-.7483 2.4134v6.1696h-3.1294V8.78346h3.1294v1.92264c.4015-.6551.9268-1.17021 1.5758-1.54339zm3.3747 2.43806c.4989-.9694 1.1763-1.71376 2.0342-2.23498.8559-.52123 1.8152-.78286 2.8718-.78286.9249 0 1.732.18659 2.4257.55976.6936.37318 1.2473.84167 1.665 1.40748V8.78574h3.1518V21.1695h-3.1518v-1.8111c-.4015.582-.9572 1.0627-1.665 1.4419-.7079.3793-1.5232.5699-2.448.5699-1.0424 0-1.9936-.2677-2.8495-.8051-.8579-.5375-1.5353-1.2919-2.0342-2.2695-.4989-.9755-.7484-2.0971-.7484-3.3646 0-1.2676.2495-2.3628.7484-3.3302zm8.5506 1.4197c-.2982-.5435-.6997-.9613-1.2068-1.2514-.507-.29-1.0505-.436-1.6326-.436s-1.1175.142-1.6103.4239c-.4908.2839-.8904.6976-1.1966 1.2412-.3063.5435-.4584 1.1885-.4584 1.9328s.1521 1.3974.4584 1.9551c.3062.5598.7078.9877 1.2067 1.2858.4989.2982 1.0323.4462 1.5982.4462.5658 0 1.1256-.146 1.6326-.436.507-.2901.9086-.7078 1.2067-1.2514.2982-.5435.4462-1.1966.4462-1.9551s-.1501-1.4116-.4462-1.9551zm10.9316 5.2649 3.1294-9.50176h3.3302L73.2538 21.1694h-3.8007L64.8918 8.78564h3.3525l3.1294 9.50176zm18.31-2.3708h-9.0536c.0751.8944.3874 1.5941.939 2.1012.5517.507 1.2291.7605 2.0342.7605 1.1622 0 1.9896-.4989 2.4825-1.4988h3.3748c-.357 1.1926-1.0425 2.1721-2.0565 2.9388-1.0141.7686-2.2573 1.1519-3.7338 1.1519-1.1926 0-2.2614-.2636-3.2085-.7929-.9471-.5294-1.6834-1.2778-2.2127-2.2472-.5293-.9695-.793-2.0869-.793-3.3525 0-1.2655.2596-2.4074.7829-3.3748.5212-.9694 1.2513-1.71376 2.1903-2.23498.9391-.52123 2.02-.78286 3.241-.78286 1.2209 0 2.2309.25352 3.1639.76055.9309.50703 1.6549 1.22699 2.168 2.15789s.7707 2.0018.7707 3.2085c0 .4462-.0304.8498-.0892 1.2068zm-3.1517-2.1011c-.0142-.8052-.3063-1.4501-.8721-1.9328-.5659-.4847-1.2595-.7261-2.0789-.7261-.7747 0-1.4278.2353-1.9551.7038-.5293.4685-.8538 1.1215-.9714 1.9551h5.8795z"/>
  <defs>
    <linearGradient id="a" x1=".29248" x2="24.0699" y1="28.1395" y2="28.1395" gradientUnits="userSpaceOnUse">
      <stop stop-color="#ff5601"/>
      <stop offset=".5" stop-color="#ff4000"/>
      <stop offset="1" stop-color="#ff1f01"/>
    </linearGradient>
  </defs>
</svg>
