<svg preserveAspectRatio="none" width="100%" height="100%" overflow="visible" style="display: block;" viewBox="0 0 14 13" fill="none" xmlns="http://www.w3.org/2000/svg">
<path id="Vector" fill-rule="evenodd" clip-rule="evenodd" d="M1 4.8998C1 2.78606 2.88324 1 5.29978 1C7.71633 1 9.59957 2.78606 9.59957 4.8998C9.59957 7.01354 7.71633 8.7996 5.29978 8.7996C4.87081 8.7996 4.45747 8.7427 4.068 8.6372C3.92461 8.59836 3.77139 8.62529 3.64984 8.71068C3.28579 8.96645 2.85607 9.13448 2.39022 9.18419C2.41791 9.11556 2.44306 9.04562 2.46555 8.97447C2.67471 8.31264 2.30195 7.72921 1.99071 7.38935C1.36805 6.70946 1 5.84148 1 4.8998ZM1.44428 10.1416C1.54055 10.1588 1.6381 10.1723 1.73651 10.1819C1.85616 10.1936 1.97745 10.1996 2.09993 10.1996C2.80584 10.1996 3.46668 10.0014 4.02848 9.6577C4.43632 9.75051 4.8622 9.7996 5.29978 9.7996C8.18493 9.7996 10.5996 7.64595 10.5996 4.8998C10.5996 2.15365 8.18493 0 5.29978 0C2.41464 0 0 2.15365 0 4.8998C0 6.11104 0.475387 7.21538 1.25324 8.06474C1.50141 8.33572 1.55248 8.54515 1.51203 8.67312C1.43559 8.915 1.31175 9.13636 1.15089 9.32622C1.03529 9.46266 1.00136 9.65045 1.0619 9.81872C1.12245 9.98699 1.26825 10.1101 1.44428 10.1416ZM11.5259 5.84708C11.3376 5.64512 11.3486 5.32873 11.5506 5.1404C11.7525 4.95208 12.0689 4.96313 12.2572 5.16509C12.9295 5.88601 13.3427 6.83102 13.3427 7.8699C13.3427 8.84974 12.975 9.74664 12.3687 10.4504C12.2544 10.5831 12.1724 10.7101 12.1308 10.8213C12.0917 10.9259 12.0958 10.9933 12.1156 11.0454C12.1758 11.2034 12.2623 11.3487 12.3701 11.476C12.4857 11.6125 12.5197 11.8003 12.4591 11.9685C12.3986 12.1368 12.2528 12.2599 12.0767 12.2914C11.9948 12.3061 11.9119 12.3176 11.8282 12.3257C11.7264 12.3357 11.6233 12.3407 11.5191 12.3407C10.9313 12.3407 10.38 12.1791 9.90866 11.8979C9.5754 11.9712 9.2282 12.0098 8.8719 12.0098C8.17043 12.0098 6.97377 11.7553 6.19074 11.3773C5.94206 11.2572 5.83779 10.9583 5.95784 10.7096C6.07789 10.461 6.37681 10.3567 6.62549 10.4767C7.27294 10.7893 8.32098 11.0098 8.8719 11.0098C9.21913 11.0098 9.5535 10.9638 9.86837 10.8785C10.0118 10.8396 10.165 10.8666 10.2865 10.952C10.5397 11.1298 10.8326 11.2543 11.15 11.3092C10.9624 10.6754 11.341 10.1111 11.6111 9.7977C12.0729 9.26164 12.3427 8.59255 12.3427 7.8699C12.3427 7.10427 12.0397 6.39812 11.5259 5.84708Z" fill="var(--fill-0, #909093)"/>
</svg>
