<?xml version="1.0" encoding="UTF-8" standalone="no"?>
<svg
   width="1000"
   height="359.91382"
   version="1.1"
   viewBox="0 0 264.58333 95.227339"
   id="svg16"
   sodipodi:docname="Ford.svg"
   inkscape:version="1.2.2 (732a01da63, 2022-12-09)"
   xmlns:inkscape="http://www.inkscape.org/namespaces/inkscape"
   xmlns:sodipodi="http://sodipodi.sourceforge.net/DTD/sodipodi-0.dtd"
   xmlns="http://www.w3.org/2000/svg"
   xmlns:svg="http://www.w3.org/2000/svg">
  <defs
     id="defs20" />
  <sodipodi:namedview
     id="namedview18"
     pagecolor="#ffffff"
     bordercolor="#111111"
     borderopacity="1"
     inkscape:showpageshadow="0"
     inkscape:pageopacity="0"
     inkscape:pagecheckerboard="1"
     inkscape:deskcolor="#d1d1d1"
     showgrid="false"
     inkscape:zoom="0.6"
     inkscape:cx="462.5"
     inkscape:cy="180"
     inkscape:window-width="1366"
     inkscape:window-height="705"
     inkscape:window-x="-8"
     inkscape:window-y="-8"
     inkscape:window-maximized="1"
     inkscape:current-layer="svg16" />
  <g
     id="g2317">
    <path
       d="M 132.29167,0 C 59.199637,0 -1.9786051e-4,21.2823 -1.9786051e-4,47.614671 c 0,26.324372 59.20383486051,47.612672 132.29186786051,47.612672 73.09703,0 132.29186,-21.2893 132.29186,-47.612672 C 264.58353,21.2813 205.3897,0 132.29167,0 Z"
       fill="#064a93"
       id="path2"
       style="fill:#00095b;fill-opacity:1;stroke-width:1.00001" />
    <path
       d="m 132.96168,91.051284 c -70.384996,0 -127.4418,-19.661277 -127.4418,-43.916619 0,-24.258342 57.057804,-43.9186196 127.4418,-43.9186196 70.37799,0 127.43179,19.6592776 127.43179,43.9186196 0,24.254342 -57.0558,43.916619 -127.43179,43.916619 z m 0,-84.030185 c -67.911961,0 -122.9617369,17.956253 -122.9617369,40.113566 0,22.158312 55.0477759,40.116565 122.9617369,40.116565 67.91095,0 122.95173,-17.959253 122.95173,-40.116565 0,-22.157313 -55.04478,-40.113566 -122.95173,-40.113566 z"
       id="path6"
       style="fill:#ffffff;stroke-width:1.00001" />
    <path
       id="path8"
       style="fill:#ffffff;stroke-width:1.00001"
       d="m 99.718411,14.153162 c -1.808602,0.0057 -3.626498,0.07607 -5.456522,0.225827 -12.155159,1.013013 -23.724873,7.789341 -23.745873,18.077476 -0.013,5.217068 3.732823,9.444366 9.5369,9.258363 6.820089,-0.229002 12.418952,-5.63915 15.34999,-12.46024 1.112015,-2.588034 -0.947521,-3.663016 -1.927534,-2.172997 a 17.298244,17.298244 0 0 1 -6.882277,6.061655 c -3.209042,1.55602 -6.639117,1.136192 -7.67913,-1.443842 -1.462019,-3.640047 1.577064,-9.086919 8.512155,-11.649952 10.017131,-3.672048 20.49805,-1.242988 30.58319,0.633037 0.144,0 0.6812,0.295017 0.20619,0.54002 -1.80603,0.975013 -3.58411,1.767889 -6.35414,4.127919 -1.98603,1.684023 -4.58601,3.926065 -6.59703,6.368096 -1.99602,2.407032 -3.41086,4.553923 -5.282885,6.933954 -0.261004,0.344005 -0.582261,0.328146 -0.578261,0.328146 -4.563059,0.763009 -9.030095,1.27416 -13.120148,4.090196 -0.846012,0.578007 -1.213225,1.603995 -0.700217,2.389005 0.461005,0.696009 1.515402,0.769887 2.247411,0.242879 2.541034,-1.882024 5.157098,-2.767959 8.157137,-2.849959 0.131002,0.008 0.193994,0.02904 0.230994,0.109037 0.023,0.045 0.009,0.139807 -0.04496,0.209807 -4.494059,6.173081 -5.619453,7.568137 -9.000498,11.395187 -1.729022,1.967026 -3.42989,3.627214 -5.329915,5.355237 -7.6761,7.061092 -15.932443,6.939053 -18.894482,2.511995 -1.770023,-2.657035 -1.536737,-5.446231 -0.376722,-7.760262 1.428019,-2.834037 4.313781,-4.911167 6.713812,-6.124183 0.891011,-0.450006 1.147294,-1.578033 0.255282,-2.606046 -0.567007,-0.670008 -1.942218,-0.789067 -2.966231,-0.603065 -3.144042,0.575008 -6.859213,2.928343 -9.054242,5.760381 -2.474032,3.17804 -3.709898,7.036191 -3.294894,11.366248 0.745011,7.813102 7.242154,12.326204 14.618251,12.274204 5.869305,-0.0454 11.397783,-1.806217 18.050088,-8.492517 6.201081,-6.236082 11.850509,-15.551144 17.14058,-24.189257 0.166,-0.276004 0.28378,-0.423967 1.08779,-0.522967 3.31805,-0.411005 8.21743,-0.87885 11.35747,-1.058851 0.69801,-0.038 0.83983,-0.0303 1.11983,0.31471 0.81801,1.022014 2.04681,1.88942 3.03082,2.417427 0.48001,0.258003 0.7082,0.386741 1.08521,0.392741 0.465,0.01 0.82692,-0.237709 1.06092,-0.499712 0.33301,-0.362004 0.42495,-0.835497 0.24495,-1.1405 -0.18801,-0.320005 -2.37775,-1.521626 -2.44275,-2.007633 -0.048,-0.303004 0.2868,-0.376205 0.2868,-0.376205 1.61002,-0.500006 3.28499,-1.529031 4.3,-3.454057 0.99701,-1.895025 1.15791,-4.424126 -0.66611,-5.830144 -1.60102,-1.235016 -4.02,-1.040127 -5.95003,0.674895 -1.88802,1.665021 -2.51275,4.087455 -2.25775,6.210483 0.046,0.368005 0.0269,0.491818 -0.48007,0.533818 -2.90204,0.230003 -5.69822,0.309838 -8.80826,0.47284 -0.208,0.015 -0.27396,-0.121065 -0.15296,-0.264067 3.58104,-6.160081 8.92792,-10.546758 14.84201,-14.866815 0.392,-0.291003 0.27231,-0.844376 0.25631,-1.306382 10.67814,2.29703 20.99747,6.572268 32.07561,6.481268 4.58107,-0.037 8.96685,-0.726926 13.15891,-3.003955 3.68704,-1.991026 5.18322,-3.83292 5.29322,-5.746945 0.086,-1.323018 -0.84326,-2.159311 -2.16628,-1.874307 -11.19314,2.546034 -21.8712,2.517927 -33.00733,1.183909 -12.71917,-1.528645 -24.92411,-4.675563 -37.584331,-4.6359 z m 22.342859,17.852684 c 0.2616,0.01386 0.50635,0.100716 0.70435,0.268718 0.59001,0.499006 0.31075,1.744035 -0.28526,2.606046 -0.65101,0.951012 -1.7551,1.771973 -2.76211,1.971976 -0.202,0.037 -0.37692,-0.04895 -0.45992,-0.491961 h -0.001 c -0.164,-1.173016 0.22227,-2.743918 1.48828,-3.850933 0.39626,-0.346879 0.87968,-0.526942 1.31569,-0.503846 z m 89.85459,0.224793 c -2.03502,0 -4.70389,0.0036 -6.82491,0.0036 -0.505,0 -0.76611,0.06106 -1.00511,0.526067 -0.78201,1.485019 -10.32042,15.638499 -12.09644,18.387535 -0.29801,0.418006 -0.6639,0.3597 -0.7059,-0.117305 -0.18,-1.632022 -1.60324,-3.507927 -3.84628,-4.40594 -1.71002,-0.687008 -3.38205,-0.810913 -5.11908,-0.582911 -3.13703,0.417006 -5.93164,2.057136 -8.38968,3.904161 -3.70304,2.789037 -6.89754,6.399709 -11.0226,9.069744 -2.25203,1.453019 -5.33498,2.720466 -7.39801,0.830441 -1.86701,-1.714022 -1.65711,-5.522123 1.19993,-8.466162 0.30101,-0.309004 0.66213,-0.05118 0.60513,0.225826 -0.27,1.332017 0.0621,2.656304 1.08314,3.585316 1.24601,1.105015 3.02979,1.231004 4.5558,0.492994 1.80202,-0.883011 2.86036,-2.590386 3.17036,-4.528412 0.47701,-3.005039 -1.86011,-5.655865 -4.78215,-5.867868 -2.37503,-0.165003 -4.65184,0.653013 -6.86987,2.467037 -1.11302,0.913012 -1.74631,1.588959 -2.70733,2.942977 -0.235,0.334005 -0.59491,0.367949 -0.58291,-0.125057 0.11101,-3.84705 -1.49728,-6.011841 -4.71032,-6.082842 -2.49204,-0.058 -5.15662,1.2797 -7.23264,2.919723 -2.27604,1.810023 -4.26608,4.208117 -6.3991,6.462147 -0.265,0.278004 -0.49703,0.265121 -0.57103,-0.273885 -0.065,-2.549034 -0.71226,-5.01815 -1.90428,-6.771173 -0.42101,-0.610008 -1.30813,-0.912235 -2.05414,-0.500229 -0.344,0.187003 -1.5428,0.732297 -2.41381,1.427305 -0.43301,0.353005 -0.60031,0.863764 -0.41031,1.518773 1.15002,3.807049 0.89701,8.137116 -0.66301,11.795163 -1.43302,3.348044 -4.21796,6.370312 -7.48999,7.392325 -2.15603,0.677009 -4.39817,0.345829 -5.78519,-1.547195 -1.90502,-2.612035 -1.13478,-7.153948 1.70326,-10.926998 2.50703,-3.320043 6.13017,-5.430242 9.74722,-6.78926 0.426,-0.162003 0.51274,-0.431612 0.39274,-0.789617 -0.197,-0.590008 -0.50972,-1.390513 -0.63872,-1.757518 -0.331,-0.873012 -1.26013,-1.015972 -2.39314,-0.89297 -2.62704,0.303004 -4.996,1.19398 -7.33703,2.434997 -6.13008,3.250042 -9.20226,9.540164 -10.55027,12.906208 -0.64801,1.615021 -1.20278,2.625159 -1.91979,3.519171 -0.96601,1.203015 -2.179122,2.297079 -4.397151,4.226104 -0.200003,0.177002 -0.349903,0.545798 -0.181902,0.887803 0.227003,0.465006 1.379837,2.077054 1.705842,2.221056 0.361005,0.176002 0.779745,-0.06965 0.947747,-0.189653 1.552014,-1.041014 3.409084,-2.692161 4.318094,-3.812176 0.318,-0.383004 0.64645,-0.221822 0.81545,0.360186 0.84802,2.996039 3.06865,5.441718 6.13969,6.464731 5.62007,1.877025 11.45016,-0.839598 15.85022,-5.568661 2.79603,-3.00504 3.80522,-4.938324 4.87722,-6.252341 1.81603,-2.229029 5.40007,-7.214875 9.66713,-10.415917 1.56502,-1.180015 3.41812,-2.080124 4.35013,-1.483115 0.74701,0.480006 0.98814,1.594786 -0.21188,3.754815 -4.35005,7.867103 -10.75447,17.110339 -11.92848,19.353369 -0.214,0.389005 -0.0271,0.694016 0.38395,0.694016 2.27703,-0.01 4.53516,-0.0052 6.60219,-0.0052 0.343,-0.016 0.49825,-0.170859 0.67025,-0.411862 3.33904,-5.175068 6.48201,-10.102927 9.85006,-15.195994 0.19,-0.300004 0.363,-0.06744 0.37,0.06356 0.07,1.181016 0.36273,2.798221 1.07074,3.860235 1.27402,1.962025 3.07829,2.80492 5.08031,2.81792 1.59202,0.018 2.39694,-0.221788 4.11397,-0.856796 a 14.475204,14.475204 0 0 0 3.38016,-1.796276 c 0.50301,-0.345004 0.59075,0.23346 0.57775,0.322462 -0.77201,4.109054 0.18215,8.9767 4.3062,10.995727 4.93606,2.410032 10.35823,-0.976828 13.47827,-4.033868 0.30501,-0.295004 0.63407,-0.264005 0.66507,0.370004 0.066,1.168015 0.59805,2.553291 1.57407,3.523304 2.61403,2.598034 7.8902,1.568762 13.18526,-2.490291 3.40005,-2.597034 6.9569,-6.267899 10.16994,-10.154951 0.11901,-0.150001 0.20779,-0.393167 -0.0222,-0.637171 -0.49,-0.507006 -1.19758,-1.08727 -1.68259,-1.534275 -0.221,-0.186003 -0.54629,-0.132734 -0.73329,0.0083 -3.29305,3.101041 -6.25699,6.638215 -10.54304,9.563255 -1.44502,0.998013 -3.74713,1.80408 -4.78215,0.418062 -0.403,-0.538007 -0.35669,-1.283318 0.0403,-2.26033 1.25102,-3.086041 21.03003,-32.904445 22.05605,-34.660468 l 0.002,-0.0021 c 0.176,-0.306004 -0.01,-0.529684 -0.39998,-0.529684 z m -27.71463,18.641783 c 0.51789,-0.0045 1.0028,0.09419 1.44436,0.304375 2.43603,1.151015 1.65797,3.944073 0.56896,6.137102 a 0.58700828,0.58700828 0 0 0 -0.0439,0.45217 c 0.04,0.228003 0.33957,0.448971 0.63458,0.553972 0.103,0.038 0.16145,0.111914 0.0445,0.351917 -0.84202,1.785023 -1.61409,2.814061 -2.6691,4.364081 -0.968,1.433019 -2.06027,2.550127 -3.38429,3.626141 -1.99503,1.635021 -4.76485,3.413971 -7.05488,2.217956 -1.01801,-0.524007 -1.45712,-1.933221 -1.43712,-3.074236 0.053,-3.210042 1.49017,-6.504014 4.15221,-9.742055 2.63741,-3.214293 5.5006,-5.17171 7.74475,-5.191423 z" />
  </g>
</svg>
