<svg preserveAspectRatio="none" width="100%" height="100%" overflow="visible" style="display: block;" viewBox="0 0 14 14" fill="none" xmlns="http://www.w3.org/2000/svg">
<path id="Vector" d="M10.9961 8.66309C11.1744 8.6631 11.3297 8.78409 11.373 8.95703L11.5078 9.49414C11.6297 9.9818 12.0104 10.3625 12.498 10.4844L13.0352 10.6191C13.2081 10.6626 13.3291 10.8178 13.3291 10.9961C13.3291 11.1744 13.2081 11.3296 13.0352 11.373L12.498 11.5078C12.0104 11.6297 11.6297 12.0104 11.5078 12.498L11.373 13.0352C11.3296 13.2081 11.1744 13.3291 10.9961 13.3291C10.8178 13.3291 10.6626 13.2081 10.6191 13.0352L10.4844 12.498C10.3625 12.0104 9.9818 11.6297 9.49414 11.5078L8.95703 11.373C8.78409 11.3297 8.6631 11.1744 8.66309 10.9961C8.66309 10.8178 8.78409 10.6625 8.95703 10.6191L9.49414 10.4844C9.98181 10.3625 10.3625 9.98181 10.4844 9.49414L10.6191 8.95703C10.6625 8.78409 10.8178 8.66309 10.9961 8.66309ZM6.23047 0C6.91396 0 7.51001 0.464842 7.67578 1.12793L8.00293 2.4375C8.25186 3.43254 9.02931 4.20923 10.0244 4.45801L11.333 4.78516C11.9961 4.95092 12.4619 5.54701 12.4619 6.23047C12.4619 6.91396 11.9961 7.51001 11.333 7.67578L10.0244 8.00293C9.02917 8.25174 8.25174 9.02917 8.00293 10.0244L7.67578 11.333C7.51001 11.9961 6.91396 12.4619 6.23047 12.4619C5.54701 12.4619 4.95092 11.9961 4.78516 11.333L4.45801 10.0244C4.20923 9.02931 3.43254 8.25186 2.4375 8.00293L1.12793 7.67578C0.464843 7.51001 0 6.91396 0 6.23047C3.67453e-05 5.54701 0.46487 4.95092 1.12793 4.78516L2.4375 4.45801C3.43236 4.20911 4.20911 3.43236 4.45801 2.4375L4.78516 1.12793C4.95092 0.464869 5.54701 3.67451e-05 6.23047 0ZM6.23047 1.08203C6.04371 1.08207 5.88123 1.20944 5.83594 1.39062L5.50879 2.69922C5.16302 4.08229 4.08229 5.16302 2.69922 5.50879L1.39062 5.83594C1.20944 5.88123 1.08207 6.04371 1.08203 6.23047C1.08203 6.41726 1.20941 6.5797 1.39062 6.625L2.69922 6.95312C4.08229 7.29889 5.16302 8.37864 5.50879 9.76172L5.83594 11.0703C5.88123 11.2515 6.04371 11.3789 6.23047 11.3789C6.41726 11.3789 6.5797 11.2515 6.625 11.0703L6.95312 9.76172C7.29889 8.37864 8.37864 7.29889 9.76172 6.95312L11.0703 6.625C11.2515 6.5797 11.3789 6.41726 11.3789 6.23047C11.3789 6.04372 11.2515 5.88123 11.0703 5.83594L9.76172 5.50879C8.37864 5.16302 7.29889 4.08229 6.95312 2.69922L6.625 1.39062C6.5797 1.20941 6.41726 1.08203 6.23047 1.08203Z" fill="var(--fill-0, #909093)"/>
</svg>
