<svg preserveAspectRatio="none" width="100%" height="100%" overflow="visible" style="display: block;" viewBox="0 0 15 15" fill="none" xmlns="http://www.w3.org/2000/svg">
<path id="Vector" fill-rule="evenodd" clip-rule="evenodd" d="M7.5 15C3.36437 15 0 11.6356 0 7.5C0 3.36437 3.36437 0 7.5 0C11.6356 0 15 3.36437 15 7.5C15 11.6356 11.6356 15 7.5 15ZM7.5 1.25C4.05375 1.25 1.25 4.05375 1.25 7.5C1.25 10.9462 4.05375 13.75 7.5 13.75C10.9462 13.75 13.75 10.9462 13.75 7.5C13.75 4.05375 10.9462 1.25 7.5 1.25ZM6.794 10.5015L10.3265 8.12205C10.7678 7.82477 10.7678 7.17523 10.3265 6.87795L6.794 4.49855C6.29583 4.16299 5.625 4.51995 5.625 5.12059V9.87941C5.625 10.48 6.29583 10.837 6.794 10.5015Z" fill="var(--fill-0, #909093)"/>
</svg>
