<svg preserveAspectRatio="none" width="100%" height="100%" overflow="visible" style="display: block;" viewBox="0 0 14 14" fill="none" xmlns="http://www.w3.org/2000/svg">
<path id="Vector" d="M6.66621 1.19149C10.0203 1.19149 12.7403 3.91011 12.7404 7.26278C12.7403 10.6154 10.0203 13.3341 6.66621 13.3341C3.3124 13.3338 0.5941 10.6153 0.59394 7.26278C0.594085 3.91029 3.31239 1.19178 6.66621 1.19149ZM6.66621 2.25985C3.90238 2.26014 1.66147 4.50004 1.66132 7.26278C1.66148 10.0255 3.90239 12.2654 6.66621 12.2657C9.43026 12.2657 11.6709 10.0257 11.6711 7.26278C11.6709 4.49986 9.43027 2.25985 6.66621 2.25985ZM6.33124 3.32724C6.62624 3.32724 6.8664 3.56654 6.8664 3.86142V7.03524H8.80292L8.85761 7.0372C9.12688 7.06445 9.33687 7.29216 9.3371 7.56845C9.3371 7.84492 9.12699 8.07239 8.85761 8.0997L8.80292 8.10263H6.33124C6.03648 8.10235 5.79707 7.86315 5.79707 7.56845V3.86142C5.79707 3.56671 6.03649 3.32751 6.33124 3.32724ZM2.39667 0.101651C2.63518 -0.0711276 2.96943 -0.0183755 3.14277 0.219815C3.31614 0.45815 3.26281 0.792392 3.0246 0.965908L0.848823 2.54794C0.61025 2.72137 0.275258 2.66825 0.101753 2.42978C-0.0712412 2.1914 -0.0183038 1.85801 0.219917 1.68466L2.39667 0.101651ZM10.1916 0.219815C10.3543 -0.00343515 10.658 -0.0638319 10.8918 0.0723537L10.9377 0.101651L13.1135 1.68466C13.3518 1.85813 13.404 2.19139 13.2307 2.42978C13.0572 2.6681 12.7241 2.72116 12.4855 2.54794L10.3098 0.965908L10.2668 0.931729C10.0651 0.751252 10.029 0.443363 10.1916 0.219815Z" fill="var(--fill-0, #909093)"/>
</svg>
