<?xml version="1.0" encoding="UTF-8"?>
<!--Generator: Apple Native CoreSVG 175.5-->
<!DOCTYPE svg
PUBLIC "-//W3C//DTD SVG 1.1//EN"
       "http://www.w3.org/Graphics/SVG/1.1/DTD/svg11.dtd">
<svg version="1.1" xmlns="http://www.w3.org/2000/svg" xmlns:xlink="http://www.w3.org/1999/xlink" width="3300" height="2200">
 <!--glyph: "", point size: 100.0, font version: "18.0d12e2", template writer version: "101"-->
 <g id="Notes">
  <rect height="2200" id="artboard" style="fill:white;opacity:1" width="3300" x="0" y="0"/>
  <line style="fill:none;stroke:black;opacity:1;stroke-width:0.5;" x1="263" x2="3036" y1="292" y2="292"/>
  <text style="stroke:none;fill:black;font-family:sans-serif;font-size:13;font-weight:bold;" transform="matrix(1 0 0 1 263 322)">Weight/Scale Variations</text>
  <text style="stroke:none;fill:black;font-family:sans-serif;font-size:13;text-anchor:middle;" transform="matrix(1 0 0 1 559.711 322)">Ultralight</text>
  <text style="stroke:none;fill:black;font-family:sans-serif;font-size:13;text-anchor:middle;" transform="matrix(1 0 0 1 856.422 322)">Thin</text>
  <text style="stroke:none;fill:black;font-family:sans-serif;font-size:13;text-anchor:middle;" transform="matrix(1 0 0 1 1153.13 322)">Light</text>
  <text style="stroke:none;fill:black;font-family:sans-serif;font-size:13;text-anchor:middle;" transform="matrix(1 0 0 1 1449.84 322)">Regular</text>
  <text style="stroke:none;fill:black;font-family:sans-serif;font-size:13;text-anchor:middle;" transform="matrix(1 0 0 1 1746.56 322)">Medium</text>
  <text style="stroke:none;fill:black;font-family:sans-serif;font-size:13;text-anchor:middle;" transform="matrix(1 0 0 1 2043.27 322)">Semibold</text>
  <text style="stroke:none;fill:black;font-family:sans-serif;font-size:13;text-anchor:middle;" transform="matrix(1 0 0 1 2339.98 322)">Bold</text>
  <text style="stroke:none;fill:black;font-family:sans-serif;font-size:13;text-anchor:middle;" transform="matrix(1 0 0 1 2636.69 322)">Heavy</text>
  <text style="stroke:none;fill:black;font-family:sans-serif;font-size:13;text-anchor:middle;" transform="matrix(1 0 0 1 2933.4 322)">Black</text>
  <line style="fill:none;stroke:black;opacity:1;stroke-width:0.5;" x1="263" x2="3036" y1="1903" y2="1903"/>
  <g transform="matrix(1 0 0 1 263 1933)">
   <path d="M9.24805 0.830078C13.5547 0.830078 17.1387-2.74414 17.1387-7.05078C17.1387-11.3574 13.5449-14.9316 9.23828-14.9316C4.94141-14.9316 1.36719-11.3574 1.36719-7.05078C1.36719-2.74414 4.95117 0.830078 9.24805 0.830078ZM9.24805-0.654297C5.70312-0.654297 2.87109-3.49609 2.87109-7.05078C2.87109-10.6055 5.69336-13.4473 9.23828-13.4473C12.793-13.4473 15.6445-10.6055 15.6445-7.05078C15.6445-3.49609 12.8027-0.654297 9.24805-0.654297ZM5.6543-7.05078C5.6543-6.62109 5.95703-6.32812 6.40625-6.32812L8.50586-6.32812L8.50586-4.20898C8.50586-3.76953 8.79883-3.4668 9.22852-3.4668C9.67773-3.4668 9.9707-3.76953 9.9707-4.20898L9.9707-6.32812L12.0898-6.32812C12.5293-6.32812 12.832-6.62109 12.832-7.05078C12.832-7.49023 12.5293-7.79297 12.0898-7.79297L9.9707-7.79297L9.9707-9.90234C9.9707-10.3516 9.67773-10.6543 9.22852-10.6543C8.79883-10.6543 8.50586-10.3516 8.50586-9.90234L8.50586-7.79297L6.40625-7.79297C5.95703-7.79297 5.6543-7.49023 5.6543-7.05078Z"/>
  </g>
  <g transform="matrix(1 0 0 1 281.867 1933)">
   <path d="M11.709 2.91016C17.1582 2.91016 21.6699-1.61133 21.6699-7.05078C21.6699-12.5 17.1484-17.0117 11.6992-17.0117C6.25977-17.0117 1.74805-12.5 1.74805-7.05078C1.74805-1.61133 6.26953 2.91016 11.709 2.91016ZM11.709 1.25C7.09961 1.25 3.41797-2.44141 3.41797-7.05078C3.41797-11.6602 7.08984-15.3516 11.6992-15.3516C16.3086-15.3516 20.0098-11.6602 20.0098-7.05078C20.0098-2.44141 16.3184 1.25 11.709 1.25ZM7.17773-7.05078C7.17773-6.57227 7.50977-6.25 8.00781-6.25L10.8789-6.25L10.8789-3.36914C10.8789-2.88086 11.2109-2.53906 11.6895-2.53906C12.1777-2.53906 12.5195-2.87109 12.5195-3.36914L12.5195-6.25L15.4004-6.25C15.8887-6.25 16.2305-6.57227 16.2305-7.05078C16.2305-7.53906 15.8887-7.88086 15.4004-7.88086L12.5195-7.88086L12.5195-10.752C12.5195-11.25 12.1777-11.5918 11.6895-11.5918C11.2109-11.5918 10.8789-11.25 10.8789-10.752L10.8789-7.88086L8.00781-7.88086C7.50977-7.88086 7.17773-7.53906 7.17773-7.05078Z"/>
  </g>
  <g transform="matrix(1 0 0 1 305.646 1933)">
   <path d="M14.9707 5.66406C21.9336 5.66406 27.6953-0.0976562 27.6953-7.05078C27.6953-14.0137 21.9238-19.7754 14.9609-19.7754C8.00781-19.7754 2.25586-14.0137 2.25586-7.05078C2.25586-0.0976562 8.01758 5.66406 14.9707 5.66406ZM14.9707 3.84766C8.93555 3.84766 4.08203-1.01562 4.08203-7.05078C4.08203-13.0957 8.92578-17.9492 14.9609-17.9492C21.0059-17.9492 25.8691-13.0957 25.8691-7.05078C25.8691-1.01562 21.0156 3.84766 14.9707 3.84766ZM9.19922-7.05078C9.19922-6.5332 9.57031-6.17188 10.1172-6.17188L14.0625-6.17188L14.0625-2.2168C14.0625-1.67969 14.4336-1.29883 14.9512-1.29883C15.4883-1.29883 15.8594-1.66992 15.8594-2.2168L15.8594-6.17188L19.8145-6.17188C20.3516-6.17188 20.7324-6.5332 20.7324-7.05078C20.7324-7.59766 20.3613-7.96875 19.8145-7.96875L15.8594-7.96875L15.8594-11.9141C15.8594-12.4609 15.4883-12.8418 14.9512-12.8418C14.4336-12.8418 14.0625-12.4609 14.0625-11.9141L14.0625-7.96875L10.1172-7.96875C9.57031-7.96875 9.19922-7.59766 9.19922-7.05078Z"/>
  </g>
  <text style="stroke:none;fill:black;font-family:sans-serif;font-size:13;font-weight:bold;" transform="matrix(1 0 0 1 263 1953)">Design Variations</text>
  <text style="stroke:none;fill:black;font-family:sans-serif;font-size:13;" transform="matrix(1 0 0 1 263 1971)">Symbols are supported in up to nine weights and three scales.</text>
  <text style="stroke:none;fill:black;font-family:sans-serif;font-size:13;" transform="matrix(1 0 0 1 263 1989)">For optimal layout with text and other symbols, vertically align</text>
  <text style="stroke:none;fill:black;font-family:sans-serif;font-size:13;" transform="matrix(1 0 0 1 263 2007)">symbols with the adjacent text.</text>
  <line style="fill:none;stroke:#00AEEF;stroke-width:0.5;opacity:1.0;" x1="776" x2="776" y1="1919" y2="1933"/>
  <g transform="matrix(1 0 0 1 776 1933)">
   <path d="M3.31055 0.15625C3.82812 0.15625 4.08203-0.0390625 4.26758-0.585938L5.52734-4.0332L11.2891-4.0332L12.5488-0.585938C12.7344-0.0390625 12.9883 0.15625 13.4961 0.15625C14.0137 0.15625 14.3457-0.15625 14.3457-0.644531C14.3457-0.810547 14.3164-0.966797 14.2383-1.17188L9.6582-13.3691C9.43359-13.9648 9.0332-14.2676 8.4082-14.2676C7.80273-14.2676 7.39258-13.9746 7.17773-13.3789L2.59766-1.16211C2.51953-0.957031 2.49023-0.800781 2.49023-0.634766C2.49023-0.146484 2.80273 0.15625 3.31055 0.15625ZM6.00586-5.51758L8.37891-12.0898L8.42773-12.0898L10.8008-5.51758Z"/>
  </g>
  <line style="fill:none;stroke:#00AEEF;stroke-width:0.5;opacity:1.0;" x1="793.197" x2="793.197" y1="1919" y2="1933"/>
  <text style="stroke:none;fill:black;font-family:sans-serif;font-size:13;font-weight:bold;" transform="matrix(1 0 0 1 776 1953)">Margins</text>
  <text style="stroke:none;fill:black;font-family:sans-serif;font-size:13;" transform="matrix(1 0 0 1 776 1971)">Leading and trailing margins on the left and right side of each symbol</text>
  <text style="stroke:none;fill:black;font-family:sans-serif;font-size:13;" transform="matrix(1 0 0 1 776 1989)">can be adjusted by modifying the x-location of the margin guidelines.</text>
  <text style="stroke:none;fill:black;font-family:sans-serif;font-size:13;" transform="matrix(1 0 0 1 776 2007)">Modifications are automatically applied proportionally to all</text>
  <text style="stroke:none;fill:black;font-family:sans-serif;font-size:13;" transform="matrix(1 0 0 1 776 2025)">scales and weights.</text>
  <g transform="matrix(1 0 0 1 1289 1933)">
   <path d="M2.8418 1.86523L4.54102 3.57422C5.40039 4.44336 6.38672 4.38477 7.31445 3.35938L18.0078-8.42773L17.041-9.4043L6.42578 2.27539C6.07422 2.67578 5.74219 2.77344 5.27344 2.30469L4.10156 1.14258C3.63281 0.683594 3.74023 0.341797 4.14062-0.0195312L15.6152-10.8203L14.6387-11.7871L3.04688-0.898438C2.06055 0.0195312 1.98242 0.996094 2.8418 1.86523ZM9.25781-16.3281C8.83789-15.918 8.80859-15.3418 9.04297-14.9512C9.27734-14.5898 9.73633-14.3555 10.3809-14.5215C11.8457-14.8633 13.3691-14.9219 14.7949-13.9844L14.209-12.5293C13.8672-11.6992 14.043-11.1133 14.5801-10.5664L16.875-8.25195C17.3633-7.76367 17.7734-7.74414 18.3398-7.8418L19.4043-8.03711L20.0684-7.36328L20.0293-6.80664C19.9902-6.30859 20.1172-5.92773 20.6055-5.44922L21.3672-4.70703C21.8457-4.22852 22.4609-4.19922 22.9297-4.66797L25.8398-7.58789C26.3086-8.05664 26.2891-8.65234 25.8105-9.13086L25.0391-9.89258C24.5605-10.3711 24.1895-10.5273 23.7109-10.4883L23.1348-10.4395L22.4902-11.0742L22.7344-12.1973C22.8613-12.7637 22.7051-13.2031 22.1191-13.7891L19.9219-15.9766C16.582-19.2969 12.1484-19.2188 9.25781-16.3281ZM10.752-15.957C13.1836-17.7344 16.4746-17.4316 18.7012-15.2051L21.1328-12.793C21.3672-12.5586 21.4062-12.373 21.3379-12.0312L21.0156-10.5469L22.5195-9.0625L23.5059-9.12109C23.7598-9.13086 23.8379-9.11133 24.0332-8.91602L24.6094-8.33984L22.168-5.89844L21.5918-6.47461C21.3965-6.66992 21.3672-6.74805 21.377-7.01172L21.4453-7.98828L19.9512-9.47266L18.4277-9.21875C18.1055-9.15039 17.959-9.17969 17.7148-9.41406L15.7129-11.416C15.459-11.6504 15.4297-11.8164 15.5859-12.1875L16.4648-14.2773C14.9023-15.7324 12.8711-16.3574 10.8398-15.7617C10.6836-15.7227 10.625-15.8496 10.752-15.957Z"/>
  </g>
  <text style="stroke:none;fill:black;font-family:sans-serif;font-size:13;font-weight:bold;" transform="matrix(1 0 0 1 1289 1953)">Exporting</text>
  <text style="stroke:none;fill:black;font-family:sans-serif;font-size:13;" transform="matrix(1 0 0 1 1289 1971)">Symbols should be outlined when exporting to ensure the</text>
  <text style="stroke:none;fill:black;font-family:sans-serif;font-size:13;" transform="matrix(1 0 0 1 1289 1989)">design is preserved when submitting to Xcode.</text>
  <text id="template-version" style="stroke:none;fill:black;font-family:sans-serif;font-size:13;text-anchor:end;" transform="matrix(1 0 0 1 3036 1933)">Template v.2.0</text>
  <text style="stroke:none;fill:black;font-family:sans-serif;font-size:13;text-anchor:end;" transform="matrix(1 0 0 1 3036 1951)">Requires Xcode 12 or greater</text>
  <text id="descriptive-name" style="stroke:none;fill:black;font-family:sans-serif;font-size:13;text-anchor:end;" transform="matrix(1 0 0 1 3036 1969)">Generated from brave.moon.cloud</text>
  <text style="stroke:none;fill:black;font-family:sans-serif;font-size:13;text-anchor:end;" transform="matrix(1 0 0 1 3036 1987)">Typeset at 100 points</text>
  <text style="stroke:none;fill:black;font-family:sans-serif;font-size:13;" transform="matrix(1 0 0 1 263 726)">Small</text>
  <text style="stroke:none;fill:black;font-family:sans-serif;font-size:13;" transform="matrix(1 0 0 1 263 1156)">Medium</text>
  <text style="stroke:none;fill:black;font-family:sans-serif;font-size:13;" transform="matrix(1 0 0 1 263 1586)">Large</text>
 </g>
 <g id="Guides">
  <g id="H-reference" style="fill:#27AAE1;stroke:none;" transform="matrix(1 0 0 1 339 696)">
   <path d="M0.993654 0L3.63775 0L29.3281-67.1323L30.0303-67.1323L30.0303-70.459L28.1226-70.459ZM11.6885-24.4799L46.9815-24.4799L46.2315-26.7285L12.4385-26.7285ZM55.1196 0L57.7637 0L30.6382-70.459L29.4326-70.459L29.4326-67.1323Z"/>
  </g>
  <line id="Baseline-S" style="fill:none;stroke:#27AAE1;opacity:1;stroke-width:0.5;" x1="263" x2="3036" y1="696" y2="696"/>
  <line id="Capline-S" style="fill:none;stroke:#27AAE1;opacity:1;stroke-width:0.5;" x1="263" x2="3036" y1="625.541" y2="625.541"/>
  <g id="H-reference" style="fill:#27AAE1;stroke:none;" transform="matrix(1 0 0 1 339 1126)">
   <path d="M0.993654 0L3.63775 0L29.3281-67.1323L30.0303-67.1323L30.0303-70.459L28.1226-70.459ZM11.6885-24.4799L46.9815-24.4799L46.2315-26.7285L12.4385-26.7285ZM55.1196 0L57.7637 0L30.6382-70.459L29.4326-70.459L29.4326-67.1323Z"/>
  </g>
  <line id="Baseline-M" style="fill:none;stroke:#27AAE1;opacity:1;stroke-width:0.5;" x1="263" x2="3036" y1="1126" y2="1126"/>
  <line id="Capline-M" style="fill:none;stroke:#27AAE1;opacity:1;stroke-width:0.5;" x1="263" x2="3036" y1="1055.54" y2="1055.54"/>
  <g id="H-reference" style="fill:#27AAE1;stroke:none;" transform="matrix(1 0 0 1 339 1556)">
   <path d="M0.993654 0L3.63775 0L29.3281-67.1323L30.0303-67.1323L30.0303-70.459L28.1226-70.459ZM11.6885-24.4799L46.9815-24.4799L46.2315-26.7285L12.4385-26.7285ZM55.1196 0L57.7637 0L30.6382-70.459L29.4326-70.459L29.4326-67.1323Z"/>
  </g>
  <line id="Baseline-L" style="fill:none;stroke:#27AAE1;opacity:1;stroke-width:0.5;" x1="263" x2="3036" y1="1556" y2="1556"/>
  <line id="Capline-L" style="fill:none;stroke:#27AAE1;opacity:1;stroke-width:0.5;" x1="263" x2="3036" y1="1485.54" y2="1485.54"/>
  <line id="left-margin" style="fill:none;stroke:#FF3B30;stroke-width:0.5;opacity:1.0;" x1="1399.01" x2="1399.01" y1="1030.79" y2="1150.12"/>
  <line id="right-margin" style="fill:none;stroke:#00AEEF;stroke-width:0.5;opacity:1.0;" x1="1500.68" x2="1500.68" y1="1030.79" y2="1150.12"/>
 </g>
 <g id="Symbols">
  <g id="Regular-L" transform="matrix(1 0 0 1 1385.01 1556)">
   <path d="M81.8639-98.3862C93.0349-98.3862 103.53-95.484 112.64-90.3904C119.11-86.7737 117.348-77.7277 111.149-73.6612C96.948-64.3438 87.8957-50.2382 87.8957-34.4509C87.8957-18.9089 96.6687-4.99675 110.489 4.32152C116.653 8.47654 118.308 17.5754 111.765 21.0989C102.859 25.8939 92.6782 28.6138 81.8639 28.6138C71.9169 28.6138 62.5066 26.313 54.131 22.213C58.0497 20.3807 61.5056 17.7207 64.2749 14.4561C69.7707 16.4274 75.6921 17.5013 81.8639 17.5013C89.5382 17.5013 96.8031 15.8475 103.345 12.8827C87.6875 1.95579 76.8169-14.8265 76.8169-34.4509C76.8169-54.3923 88.0357-71.3885 104.102-82.3044C97.3644-85.4901 89.8343-87.2737 81.8639-87.2737C53.0189-87.2737 29.635-63.819 29.635-34.8862C29.635-34.0656 29.6538-33.2493 29.691-32.4386C25.7129-30.7128 22.1832-28.1432 19.3258-24.9562C18.8192-28.1912 18.5562-31.508 18.5562-34.8862C18.5562-69.9563 46.9-98.3862 81.8639-98.3862ZM39.4687-27.4602C52.7452-27.4602 63.5089-16.6645 63.5089-3.34716C63.5089 8.65363 54.7725 18.6006 43.3284 20.4562C42.7558 20.6565 42.1403 20.7659 41.4994 20.7659L9.69956 20.7659C9.17931 20.7659 8.67581 20.6939 8.19833 20.5592C-0.564561 19.2299-7.27734 11.6508-7.27734 2.49202C-7.27734-7.60025 0.879202-15.7812 10.9408-15.7812C13.4683-15.7812 15.8756-15.264 18.063-14.3312C22.0461-22.1269 30.1345-27.4602 39.4687-27.4602ZM39.4687-16.3477C32.7446-16.3477 27.2106-11.2078 26.5698-4.6348C26.3478-2.35797 24.7571-0.45015 22.562 0.171444C20.3669 0.793744 18.0163 0.0021111 16.6398-1.82246C15.327-3.56236 13.2637-4.66867 10.9408-4.66867C6.99788-4.66867 3.80148-1.46262 3.80148 2.49202C3.80148 6.20747 6.62626 9.26747 10.2353 9.61883C10.3288 9.62801 10.4216 9.64 10.5137 9.65341L40.3986 9.65341C40.5625 9.62024 40.7291 9.59414 40.8982 9.57579C47.3812 8.86601 52.4301 3.34715 52.4301-3.34716C52.4301-10.5269 46.6268-16.3477 39.4687-16.3477Z"/>
  </g>
  <g id="Regular-M" transform="matrix(1 0 0 1 1399.01 1126)">
   <path d="M61.7352-83.6708C70.3837-83.6708 78.5089-81.4313 85.5623-77.5008C90.5708-74.71 89.2066-67.7296 84.4078-64.5917C73.4132-57.4019 66.405-46.5173 66.405-34.3349C66.405-22.3419 73.197-11.6065 83.8969-4.41602C88.6686-1.20979 89.95 5.81137 84.8843 8.53032C77.9899 12.2304 70.1076 14.3292 61.7352 14.3292C54.0343 14.3292 46.7489 12.5538 40.2646 9.39C43.2984 7.97608 45.974 5.92352 48.118 3.40438C52.3728 4.92556 56.9571 5.7542 61.7352 5.7542C67.6766 5.7542 73.301 4.47802 78.3656 2.19027C66.2438-6.24154 57.8279-19.1917 57.8279-34.3349C57.8279-49.7227 66.5134-62.838 78.9516-71.2612C73.7356-73.7194 67.9059-75.0958 61.7352-75.0958C39.4036-75.0958 21.3-56.9969 21.3-34.6708C21.3-34.0376 21.3145-33.4077 21.3433-32.7821C18.2635-31.4504 15.5308-29.4675 13.3186-27.0083C12.9264-29.5046 12.7228-32.064 12.7228-34.6708C12.7228-61.7327 34.6664-83.6708 61.7352-83.6708ZM28.9131-28.9405C39.1918-28.9405 47.5249-20.61 47.5249-10.3336C47.5249-1.07313 40.7612 6.60244 31.9013 8.03433C31.458 8.18896 30.9815 8.27334 30.4853 8.27334L5.86607 8.27334C5.46329 8.27334 5.07348 8.21781 4.70382 8.11382C-2.08035 7.08809-7.27734 1.23967-7.27734-5.82777C-7.27734-13.6155-0.962597-19.9283 6.82703-19.9283C8.78377-19.9283 10.6475-19.5293 12.341-18.8095C15.4247-24.8251 21.6867-28.9405 28.9131-28.9405ZM28.9131-20.3655C23.7074-20.3655 19.423-16.3992 18.9269-11.3272C18.755-9.57028 17.5235-8.0981 15.8241-7.61844C14.1247-7.13824 12.3049-7.74911 11.2392-9.15704C10.2228-10.4996 8.6254-11.3533 6.82703-11.3533C3.77444-11.3533 1.29981-8.87938 1.29981-5.82777C1.29981-2.96072 3.48674-0.599467 6.28082-0.328333C6.35325-0.321256 6.42508-0.312 6.49636-0.301656L29.633-0.301656C29.7599-0.327244 29.8889-0.347389 30.0199-0.361544C35.0389-0.909256 38.9478-5.1679 38.9478-10.3336C38.9478-15.8739 34.4549-20.3655 28.9131-20.3655Z"/>
  </g>
  <g id="Regular-S" transform="matrix(1 0 0 1 1409.51 696)">
   <path d="M46.6387-73C53.3954-73 59.7431-71.2404 65.2536-68.1522C69.1665-65.9594 68.1007-60.4748 64.3516-58.0093C55.7622-52.3601 50.287-43.8079 50.287-34.2361C50.287-24.813 55.5933-16.3781 63.9526-10.7284C67.6804-8.20921 68.6815-2.69258 64.7239-0.556261C59.3377 2.35092 53.1797 4 46.6387 4C40.6224 4 34.9307 2.60502 29.8648 0.1192C32.235-0.991739 34.3252-2.60446 36.0003-4.58379C39.3243-3.38858 42.9058-2.7375 46.6387-2.7375C51.2804-2.7375 55.6745-3.74021 59.6312-5.53773C50.1611-12.1627 43.5861-22.3379 43.5861-34.2361C43.5861-46.3265 50.3717-56.6313 60.089-63.2496C56.014-65.1811 51.4595-66.2625 46.6387-66.2625C29.1921-66.2625 15.0487-52.0419 15.0487-34.5C15.0487-34.0025 15.0601-33.5076 15.0826-33.016C12.6764-31.9697 10.5415-30.4117 8.81324-28.4795C8.50687-30.4408 8.34779-32.4518 8.34779-34.5C8.34779-55.763 25.4912-73 46.6387-73ZM20.9965-29.9976C29.0266-29.9976 35.5369-23.4522 35.5369-15.3779C35.5369-8.10183 30.2528-2.07102 23.331-0.945967C22.9846-0.824478 22.6124-0.758172 22.2247-0.758172L2.99095-0.758172C2.67628-0.758172 2.37174-0.801806 2.08294-0.883511C-3.21719-1.68944-7.27734-6.28463-7.27734-11.8376C-7.27734-17.9565-2.34395-22.9166 3.7417-22.9166C5.2704-22.9166 6.72647-22.6031 8.04946-22.0376C10.4586-26.7641 15.3508-29.9976 20.9965-29.9976ZM20.9965-23.2601C16.9295-23.2601 13.5823-20.1438 13.1947-16.1586C13.0605-14.7782 12.0983-13.6214 10.7707-13.2446C9.443-12.8673 8.02126-13.3472 7.18869-14.4535C6.39462-15.5084 5.14668-16.1791 3.7417-16.1791C1.35686-16.1791-0.576442-14.2353-0.576442-11.8376C-0.576442-9.58494 1.1321-7.72967 3.31497-7.51663C3.37156-7.51107 3.42767-7.5038 3.48337-7.49567L21.5589-7.49567C21.658-7.51578 21.7588-7.53161 21.8611-7.54273C25.7823-7.97307 28.836-11.3192 28.836-15.3779C28.836-19.731 25.326-23.2601 20.9965-23.2601Z"/>
  </g>
 </g>
</svg>
