<svg width="24" height="24" viewBox="0 0 24 24" fill="none" xmlns="http://www.w3.org/2000/svg">
<g clip-path="url(#clip0_14364_3662)">
<path d="M12 24C18.6274 24 24 18.6274 24 12C24 5.37258 18.6274 0 12 0C5.37258 0 0 5.37258 0 12C0 18.6274 5.37258 24 12 24Z" fill="#DF42AB"/>
<path fill-rule="evenodd" clip-rule="evenodd" d="M16.9975 7.29854V11.9609C16.9992 11.9735 17 11.9862 17 11.999V16.6995C17.0003 16.7388 16.9928 16.7779 16.978 16.8143C16.9632 16.8507 16.9413 16.8839 16.9136 16.9118C16.8859 16.9397 16.853 16.9619 16.8168 16.977C16.7805 16.9922 16.7416 16.9999 16.7023 16.9999C16.661 17.0006 16.6201 16.9929 16.5819 16.9772C16.5437 16.9615 16.509 16.9382 16.4801 16.9087H16.4779L12.3074 12.7308V16.6995C12.3077 16.7388 12.3002 16.7779 12.2854 16.8143C12.2706 16.8507 12.2487 16.8839 12.221 16.9118C12.1933 16.9397 12.1604 16.9619 12.1242 16.977C12.0879 16.9922 12.049 16.9999 12.0097 16.9999H7.31134C7.30754 17 7.30373 17 7.29993 16.9999C7.26046 17.0002 7.22132 16.9927 7.1848 16.9777C7.14828 16.9627 7.11509 16.9406 7.08719 16.9126C7.05928 16.8846 7.0372 16.8514 7.02223 16.8148C7.00727 16.7782 6.99971 16.739 7.00001 16.6995V11.999C7.00001 11.9745 7.00302 11.9501 7.00894 11.9264V7.29842C7.00934 7.23903 7.02731 7.18108 7.06057 7.13191C7.09383 7.08274 7.14089 7.04455 7.19581 7.02216C7.25073 6.99977 7.31105 6.99419 7.36914 7.00613C7.42722 7.01806 7.48046 7.04698 7.52215 7.08922L11.6919 11.2664V7.29856C11.6919 7.25921 11.6997 7.22025 11.7148 7.18392C11.7299 7.14759 11.752 7.11461 11.7799 7.08689C11.8078 7.05916 11.8408 7.03725 11.8772 7.02239C11.9136 7.00753 11.9525 7.00004 11.9918 7.00033H16.6832L16.6859 7.00027C16.6937 7.00002 16.7016 7.00009 16.7094 7.00047C16.7452 7.00163 16.7806 7.00925 16.8138 7.02301C16.8499 7.038 16.8827 7.05997 16.9103 7.08767C16.938 7.11536 16.9599 7.14824 16.9749 7.18442C16.9898 7.2206 16.9975 7.25938 16.9975 7.29854Z" fill="white"/>
</g>
<defs>
<clipPath id="clip0_14364_3662">
<rect width="24" height="24" fill="white"/>
</clipPath>
</defs>
</svg>
