<svg height="68" width="70" xmlns="http://www.w3.org/2000/svg"><g fill="none" fill-rule="evenodd"><path d="m58 2v21m10-11h-21" stroke="#ff4600" stroke-linecap="round" stroke-linejoin="round" stroke-width="3"/><path d="m35 65c-6 2-13 1-19-2-5-3-8-8-10-14m38-23c7 7 9 19 4 28l-4 5m-38-22 2-6c6-9 16-13 26-10" stroke="#4a4a4a" stroke-linecap="round" stroke-linejoin="round" stroke-width="3"/><path d="m13 58a6 6 0 1 1 -10-6 6 6 0 0 1 10 6" fill="#fff"/><path d="m13 58a6 6 0 1 1 -10-6 6 6 0 0 1 10 6z" stroke="#4a4a4a" stroke-linecap="round" stroke-linejoin="round" stroke-width="3"/><path d="m54 58a6 6 0 1 1 -10-6 6 6 0 0 1 10 6" fill="#fff"/><path d="m54 58a6 6 0 1 1 -10-6 6 6 0 0 1 10 6z" stroke="#4a4a4a" stroke-linecap="round" stroke-linejoin="round" stroke-width="3"/><path d="m33 22a6 6 0 1 1 -10-6 6 6 0 0 1 10 6" fill="#fff"/><path d="m33 22a6 6 0 1 1 -10-6 6 6 0 0 1 10 6z" stroke="#4a4a4a" stroke-linecap="round" stroke-linejoin="round" stroke-width="3"/></g></svg>