<svg width="70" height="68" version="1" xmlns="http://www.w3.org/2000/svg"><g fill="none" fill-rule="evenodd"><g stroke="#FF4600" stroke-linecap="round" stroke-linejoin="round" stroke-width="3"><path d="M58 2v21M68 12H47"/></g><path d="M35 65c-6 2-13 1-19-2-5-3-8-8-10-14M44 26c7 7 9 19 4 28l-4 5M6 37l2-6c6-9 16-13 26-10" stroke="#4A4A4A" stroke-width="3" stroke-linecap="round" stroke-linejoin="round"/><path d="M13 58a6 6 0 1 1-10-6 6 6 0 0 1 10 6" fill="#FFF"/><path d="M13 58a6 6 0 1 1-10-6 6 6 0 0 1 10 6z" stroke="#4A4A4A" stroke-width="3" stroke-linecap="round" stroke-linejoin="round"/><path d="M54 58a6 6 0 1 1-10-6 6 6 0 0 1 10 6" fill="#FFF"/><path d="M54 58a6 6 0 1 1-10-6 6 6 0 0 1 10 6z" stroke="#4A4A4A" stroke-width="3" stroke-linecap="round" stroke-linejoin="round"/><path d="M33 22a6 6 0 1 1-10-6 6 6 0 0 1 10 6" fill="#FFF"/><path d="M33 22a6 6 0 1 1-10-6 6 6 0 0 1 10 6z" stroke="#4A4A4A" stroke-width="3" stroke-linecap="round" stroke-linejoin="round"/></g></svg>