<svg width="126" height="109" version="1" xmlns="http://www.w3.org/2000/svg" xmlns:xlink="http://www.w3.org/1999/xlink"><defs><path id="a" d="M0 0h108v67H0z"/><path id="c" d="M0 0h126v41H0z"/><linearGradient x1="50%" y1="0%" x2="50%" y2="76%" id="e"><stop stop-color="#FF641D" offset="0%"/><stop stop-color="#FF4600" offset="100%"/></linearGradient></defs><g fill="none" fill-rule="evenodd"><g transform="translate(11)"><mask id="b" fill="#fff"><use xlink:href="#a"/></mask><path d="M103 62l-1 1H6l-1-1V6l1-2h96l1 2v56zM71 0H6C3 0 0 3 0 6v56c0 3 3 5 6 5h96c3 0 6-2 6-5V6c0-3-3-6-6-6H71z" fill="#444" mask="url(#b)"/></g><g transform="translate(0 68)"><mask id="d" fill="#fff"><use xlink:href="#c"/></mask><path d="M122 35l-2 1L6 37l-2-2L14 6l1-1h98l2 1 7 29zM81 0H15c-3 0-4 3-5 6L0 35c0 4 2 6 6 6h114c4 0 6-3 6-6l-7-29c-1-4-3-6-6-6H81z" fill="#444" mask="url(#d)"/></g><path d="M75 103l-1 1-23 1-1-2 2-3 1-2h19l2 2 1 3zm-8-9H53c-3 0-4 2-5 6l-2 3c0 3 2 6 5 6h23c3 0 5-3 5-6l-1-3c-1-4-3-6-6-6h-5z" fill="#444"/><path d="M29 11l-1-3 1-1-1-1-2-2-3-1-3-3H9L6 3 2 4 0 6v1l1 1-1 3 4 14 2 4a268 268 0 0 0 9 5l8-5 2-4 4-14" fill="url(#e)" transform="translate(51 17)"/><path d="M66 38h-2l-1 1-2 1 2 1v1l1 1h1v1h1v-1h1l1-1 1-1 1-1-2-1-1-1h-1" fill="#FFFFFE"/><path d="M77 29v-1l-1-1-1-1v-1l-2-2h-3a363 363 0 0 1-1 0h-2l-1-1h-1l-1 1h-6l-1 2-1 1-1 1-1 1v1l1 1 4 3v1l-1 2v1l1 1 1 1h1l1-1 1-1 2-1v-1l-3-2-1-1 2-2v-1l-1-1-4-2h3l3 1-1 5 1 1h3l1-1-1-5 3-1h3l-4 2-1 1v1l2 2-1 1-3 2v1l2 1 1 1 1 1h1l1-1 1-1v-1l-1-2v-1l4-3 1-1z" fill="#FFFFFE"/></g></svg>