<svg width="107" height="99" version="1" xmlns="http://www.w3.org/2000/svg" xmlns:xlink="http://www.w3.org/1999/xlink"><defs><path d="M0 1h69v40c-5 0-8 1-8 2v46H0V1z" id="a"/><path id="c" d="M0 0h35v60H0z"/><linearGradient x1="50%" y1="0%" x2="50%" y2="76%" id="e"><stop stop-color="#FF641D" offset="0%"/><stop stop-color="#FF4600" offset="100%"/></linearGradient></defs><g fill="none" fill-rule="evenodd"><mask id="b" fill="#fff"><use xlink:href="#a"/></mask><path d="M64 83l-1 1H6l-1-1V7l1-1h57l1 1v76zM27 1H6C3 1 0 4 0 7v76c0 3 3 6 6 6h57c3 0 6-3 6-6V7c0-3-3-6-6-6H27z" fill="#444" mask="url(#b)"/><path d="M39 79a4 4 0 1 1-8 0 4 4 0 0 1 8 0" fill="#444"/><g><g transform="translate(58 39)"><mask id="d" fill="#fff"><use xlink:href="#c"/></mask><path d="M31 54l-2 2H6l-2-2V6l2-2h23l2 2v48zM24 0H6C3 0 0 3 0 6v48c0 3 3 6 6 6h23c3 0 6-3 6-6V6c0-3-3-6-6-6h-5z" fill="#444" mask="url(#d)"/></g><path d="M80 89a4 4 0 1 1-7 0 4 4 0 0 1 7 0" fill="#444"/></g><g><path d="M33 13l-1-4 1-1-1-1-2-2c-1-1-2-2-4-1l-4-4H11L7 4C5 3 4 4 3 5L0 7l1 2-1 4 4 16 3 4a304 304 0 0 0 11 6l8-6 3-4 4-16" fill="url(#e)" transform="translate(74 50)"/><path d="M91 74h-1l-1 1h-2l-2 1v1l2 1 1 1h1l1 1v1h1v-1l1-1h1l1-1 2-1v-1l-2-1h-2l-1-1" fill="#FFFFFE"/><path d="M103 63v-2l-1-1-1-1-2-2v-1h-1l-2 1a410 410 0 0 1-2 0l-2-1h-2-1l-2 1h-1-1l-2-1h-1v1l-2 2-1 1-1 1v3l1 1 4 4v1l-1 1v2l1 1 1 1h1l2-1 1-1 2-1v-1l-4-3v-1l1-3v-1l-1-1-4-1v-1h4l2 1 1 1-1 5v1h5v-1l-1-5 1-1 2-1h4v1l-4 1-1 1v1l1 3v1l-4 3v1l2 1 1 1 2 1h1l1-1 1-1v-2l-1-1v-1l4-4 1-1v-1z" fill="#FFFFFE"/></g><g><path d="M33 13l-1-4 1-1-1-1-2-2c-1-1-2-2-4-1l-4-4H11L7 4C5 3 4 4 3 5L0 7l1 2-1 4 4 16 3 4a304 304 0 0 0 11 6l8-6 3-4 4-16" fill="url(#e)" transform="translate(19 20)"/><path d="M36 44h-1l-1 1h-2l-2 1v1l2 1 1 1h1l1 1v1h1v-1l1-1h1l1-1 2-1v-1l-2-1h-2l-1-1" fill="#FFFFFE"/><path d="M48 33v-2l-1-1-1-1-2-2v-1h-1l-2 1a410 410 0 0 1-2 0l-2-1h-2-1l-2 1h-1-1l-2-1h-1v1l-2 2-1 1-1 1v3l1 1 4 4v1l-1 1v2l1 1 1 1h1l2-1 1-1 2-1v-1l-4-3v-1l1-3v-1l-1-1-4-1v-1h4l2 1 1 1-1 5v1h5v-1l-1-5 1-1 2-1h4v1l-4 1-1 1v1l1 3v1l-4 3v1l2 1 1 1 2 1h1l1-1 1-1v-2l-1-1v-1l4-4 1-1v-1z" fill="#FFFFFE"/></g></g></svg>