<svg width="57" height="57" version="1" xmlns="http://www.w3.org/2000/svg"><g fill="none" fill-rule="evenodd"><path d="M35 54c-6 2-13 1-19-2-5-3-8-8-10-14M44 15c7 7 9 19 4 28l-4 5M6 26l2-6c6-9 16-13 26-10" stroke="#4A4A4A" stroke-width="3" stroke-linecap="round" stroke-linejoin="round"/><path d="M13 47a6 6 0 1 1-10-6 6 6 0 0 1 10 6" fill="#FFF"/><path d="M13 47a6 6 0 1 1-10-6 6 6 0 0 1 10 6z" stroke="#4A4A4A" stroke-width="3" stroke-linecap="round" stroke-linejoin="round"/><path d="M54 47a6 6 0 1 1-10-6 6 6 0 0 1 10 6" fill="#FFF"/><path d="M54 47a6 6 0 1 1-10-6 6 6 0 0 1 10 6z" stroke="#4A4A4A" stroke-width="3" stroke-linecap="round" stroke-linejoin="round"/><path d="M33 11a6 6 0 1 1-10-6 6 6 0 0 1 10 6" fill="#FFF"/><path d="M33 11a6 6 0 1 1-10-6 6 6 0 0 1 10 6z" stroke="#4A4A4A" stroke-width="3" stroke-linecap="round" stroke-linejoin="round"/><g stroke="#FF4600" stroke-linecap="round" stroke-linejoin="round" stroke-width="3"><path d="M36 24L21 39M37 39L22 24"/></g></g></svg>