<svg height="57" width="57" xmlns="http://www.w3.org/2000/svg"><g fill="none" fill-rule="evenodd"><path d="m35 54c-6 2-13 1-19-2-5-3-8-8-10-14m38-23c7 7 9 19 4 28l-4 5m-38-22 2-6c6-9 16-13 26-10" stroke="#4a4a4a" stroke-linecap="round" stroke-linejoin="round" stroke-width="3"/><path d="m13 47a6 6 0 1 1 -10-6 6 6 0 0 1 10 6" fill="#fff"/><path d="m13 47a6 6 0 1 1 -10-6 6 6 0 0 1 10 6z" stroke="#4a4a4a" stroke-linecap="round" stroke-linejoin="round" stroke-width="3"/><path d="m54 47a6 6 0 1 1 -10-6 6 6 0 0 1 10 6" fill="#fff"/><path d="m54 47a6 6 0 1 1 -10-6 6 6 0 0 1 10 6z" stroke="#4a4a4a" stroke-linecap="round" stroke-linejoin="round" stroke-width="3"/><path d="m33 11a6 6 0 1 1 -10-6 6 6 0 0 1 10 6" fill="#fff"/><g stroke-linecap="round" stroke-linejoin="round" stroke-width="3"><path d="m33 11a6 6 0 1 1 -10-6 6 6 0 0 1 10 6z" stroke="#4a4a4a"/><path d="m36 24-15 15m16 0-15-15" stroke="#ff4600"/></g></g></svg>