<svg height="305" viewBox="0 0 330 305" width="300" xmlns="http://www.w3.org/2000/svg" xmlns:xlink="http://www.w3.org/1999/xlink"><linearGradient id="a" x1="0%" x2="173.088%" y1="21.282%" y2="140.418%"><stop offset="0" stop-color="#fb542b"/><stop offset="1" stop-color="#5118dd"/></linearGradient><linearGradient id="b" x1="0%" y1="50.706%" y2="50.706%"><stop offset="0" stop-color="#f50"/><stop offset=".40988" stop-color="#f50"/><stop offset=".58198" stop-color="#ff2000"/><stop offset="1" stop-color="#ff2000"/></linearGradient><linearGradient id="c" x1="2.148%" y1="50.706%" y2="50.706%"><stop offset="0" stop-color="#ff452a"/><stop offset="1" stop-color="#ff2000"/></linearGradient><g fill="none" fill-rule="evenodd"><path d="m169 254c54.124 0 98-43.652 98-97.5 0-12.01-2.183-23.514-6.175-34.139-13.908-37.01-49.773-63.361-91.825-63.361-54.124 0-98 43.652-98 97.5s43.876 97.5 98 97.5z" stroke="#aaa" stroke-dasharray="9.453 9.453" stroke-linecap="round" stroke-linejoin="round" stroke-width="2.836"/><path d="m104.917 84.547-7.198 26.03a1.89 1.89 0 0 1 -3.085.901l-17.986-16.163a1.89 1.89 0 0 1 .575-3.166l25.182-9.866a1.89 1.89 0 0 1 2.512 2.264zm148.123 24.993-23.789-12.862a1.89 1.89 0 0 1 -.183-3.212l19.822-13.85a1.89 1.89 0 0 1 2.953 1.272l3.966 26.712a1.89 1.89 0 0 1 -2.769 1.94zm-110.6 139.993 25.632-8.612a1.89 1.89 0 0 1 2.474 2.056l-3.372 23.943a1.89 1.89 0 0 1 -2.944 1.294l-22.261-15.332a1.89 1.89 0 0 1 .47-3.35z" fill="#b5b5b5" fill-rule="nonzero"/><g transform="translate(204 148)"><path d="m0 3.56a3.556 3.556 0 0 1 3.558-3.56h83.302c1.965 0 3.558 1.6 3.558 3.56v107.633a3.556 3.556 0 0 1 -3.558 3.56h-83.3a3.563 3.563 0 0 1 -3.56-3.56z" fill="url(#a)"/><path d="m3.729 6.648c0-1.074.875-1.945 1.948-1.945h79.063c1.076 0 1.949.862 1.949 1.945v89.23a1.949 1.949 0 0 1 -1.949 1.944h-79.063a1.941 1.941 0 0 1 -1.948-1.945v-89.23z" fill="#fff"/><g fill="#f1f1f1" fill-rule="nonzero" opacity=".519"><rect height="3.491" rx=".324" width="42.235" x="32.348" y="15.05"/><rect height="3.491" rx=".324" width="41.15" x="32.348" y="28.018"/><rect height="3.491" rx=".324" width="58.56" x="12.117" y="77.269"/><rect height="7.481" rx=".324" width="70.243" x="9.713" y="43.978"/><rect height="15.461" rx=".324" width="70.402" x="9.554" y="55.106"/><rect height="1.986" rx=".324" width="47.816" x="32.348" y="22.331"/><rect height="1.986" rx=".324" width="68.425" x="9.554" y="38.308"/><rect height="1.986" rx=".324" width="66.083" x="12.117" y="84.55"/></g><ellipse cx="45.675" cy="105.347" fill="#fff" fill-rule="nonzero" rx="3.729" ry="3.762"/><g transform="translate(11.672 15.506)"><path d="m14.802 4.32.422-1.037s-.537-.575-1.189-1.228-2.032-.269-2.032-.269l-1.573-1.786h-5.521l-1.573 1.786s-1.38-.384-2.032.269-1.189 1.228-1.189 1.228l.422 1.037-.537 1.536s1.579 5.988 1.764 6.72c.364 1.44.614 1.996 1.649 2.725 1.035.73 2.914 1.997 3.221 2.189s.69.519 1.036.519c.345 0 .728-.327 1.035-.519s2.186-1.46 3.221-2.189c1.036-.73 1.285-1.286 1.65-2.726.184-.731 1.763-6.719 1.763-6.719z" fill="url(#b)"/><path d="m11.562 2.919s2.022 2.447 2.022 2.97c0 .524-.254.662-.51.934l-1.516 1.612c-.144.153-.442.384-.267.8.176.416.435.946.147 1.483s-.782.896-1.098.837c-.317-.06-1.06-.448-1.333-.626s-1.14-.893-1.14-1.166c0-.274.896-.765 1.061-.877.166-.111.92-.543.936-.713.015-.17.01-.22-.214-.638-.222-.42-.623-.978-.556-1.35.066-.372.713-.566 1.174-.74.462-.175 1.35-.504 1.46-.555.112-.052.083-.1-.253-.132s-1.29-.159-1.72-.039-1.165.303-1.224.4c-.06.096-.112.1-.051.434.06.334.375 1.937.406 2.221.03.285.09.473-.216.543-.307.07-.823.193-1 .193-.178 0-.694-.122-1-.193-.307-.07-.247-.258-.217-.543.03-.284.345-1.887.407-2.221.06-.334.008-.338-.051-.434-.06-.097-.795-.28-1.225-.4s-1.384.007-1.72.039-.365.08-.254.132c.111.051 1 .38 1.46.555.462.174 1.109.368 1.176.74.066.372-.335.93-.557 1.35-.223.419-.229.469-.213.638.015.17.77.602.935.713.165.112 1.06.603 1.06.877 0 .273-.866.988-1.139 1.166s-1.016.566-1.332.626c-.317.059-.81-.3-1.099-.837-.288-.537-.029-1.067.147-1.483s-.123-.647-.267-.8l-1.516-1.612c-.256-.272-.51-.41-.51-.933 0-.524 2.022-2.971 2.022-2.971s1.707.326 1.937.326.728-.192 1.189-.346c.46-.153.767-.154.767-.154s.306 0 .767.154c.46.154.958.346 1.188.346s1.937-.326 1.937-.326zm-1.516 9.363c.125.078.049.226-.065.307a92.938 92.938 0 0 0 -1.795 1.4c-.15.131-.368.348-.516.348-.149 0-.368-.217-.516-.348a93.056 93.056 0 0 0 -1.795-1.4c-.115-.08-.19-.229-.066-.307.126-.079.517-.277 1.058-.557.54-.28 1.213-.518 1.319-.518.105 0 .778.238 1.319.518.54.28.932.478 1.057.557z" fill="#fff"/><path d="m12.003 1.786-1.573-1.786h-5.521l-1.573 1.786s-1.38-.384-2.032.269c0 0 1.84-.167 2.473.864 0 0 1.707.326 1.937.326s.728-.192 1.189-.346c.46-.153.767-.154.767-.154s.306 0 .767.154c.46.154.958.346 1.188.346s1.937-.326 1.937-.326c.633-1.03 2.473-.864 2.473-.864-.652-.653-2.032-.269-2.032-.269" fill="url(#c)"/></g></g><path d="m6.643 2.759a2.756 2.756 0 0 1 2.755-2.759h86.543a2.76 2.76 0 0 1 2.755 2.759v68.736h-92.053z" fill="url(#a)" transform="translate(36 143)"/><path d="m1.527 76.076c-1.892-2.53-.866-4.581 2.281-4.581h98.672c3.152 0 4.075 1.964 2.05 4.4l-5.834 7.024h-92.053z" fill="url(#a)" transform="matrix(1 0 0 -1 36 297.414)"/><path d="m42.797 219.73c-1.544 1.675-.942 3.032 1.333 3.032h90.017c2.28 0 2.805-1.292 1.166-2.891l-5.51-5.376h-82.176l-4.829 5.236z" fill="#000" fill-opacity=".26"/><path d="m46.439 149.644c0-1.072.863-1.94 1.943-1.94h80.575c1.073 0 1.943.87 1.943 1.94v54.444c0 1.072-.863 1.94-1.943 1.94h-80.575a1.942 1.942 0 0 1 -1.943-1.94z" fill="#fff"/><g fill="#f1f1f1" fill-rule="nonzero" opacity=".519"><rect height="3.492" rx=".324" width="42.999" x="75.576" y="158.052"/><rect height="3.492" rx=".324" width="41.895" x="75.576" y="171.021"/><rect height="7.482" rx=".324" width="69.066" x="54.98" y="186.984"/><rect height="1.986" rx=".324" width="48.681" x="75.576" y="165.334"/><rect height="1.986" rx=".324" width="67.279" x="54.98" y="180.021"/></g><g transform="translate(57.189 158.992)"><path d="m13.158 3.6.375-.864s-.478-.48-1.057-1.024c-.58-.544-1.807-.224-1.807-.224l-1.397-1.488h-4.909l-1.397 1.488s-1.228-.32-1.807.224c-.58.544-1.057 1.024-1.057 1.024l.375.864-.477 1.28s1.404 4.99 1.568 5.6c.324 1.2.545 1.663 1.466 2.271.92.608 2.59 1.664 2.863 1.824s.614.432.92.432c.307 0 .648-.272.92-.432.273-.16 1.944-1.216 2.864-1.824s1.142-1.072 1.466-2.272c.164-.609 1.568-5.599 1.568-5.599z" fill="url(#b)"/><path d="m10.277 2.432s1.798 2.04 1.798 2.476-.226.551-.454.778l-1.347 1.343c-.128.127-.393.32-.237.667s.386.788.13 1.236-.695.746-.976.697c-.281-.05-.942-.373-1.185-.521s-1.012-.744-1.012-.972.795-.638.942-.73c.147-.094.818-.454.832-.595.013-.141.008-.183-.19-.532-.198-.35-.554-.815-.495-1.125.06-.31.634-.471 1.044-.617.41-.145 1.2-.42 1.299-.462.098-.043.073-.084-.226-.11-.299-.027-1.147-.132-1.529-.032s-1.035.252-1.088.332c-.053.081-.1.084-.045.362.054.279.334 1.614.36 1.852.028.237.081.394-.192.452-.272.059-.73.16-.889.16-.157 0-.616-.101-.889-.16-.272-.058-.219-.215-.192-.452.027-.238.307-1.573.361-1.852.055-.278.008-.28-.045-.362-.053-.08-.706-.232-1.088-.332-.383-.1-1.23.005-1.53.032-.298.026-.324.067-.225.11.099.042.888.317 1.298.462.41.146.985.307 1.045.617.059.31-.297.776-.495 1.125-.198.35-.203.39-.19.532.014.141.685.501.832.594s.942.503.942.73c0 .229-.77.825-1.012.973-.243.148-.904.471-1.185.52-.281.05-.72-.248-.976-.696s-.026-.89.13-1.236c.156-.347-.11-.54-.237-.667l-1.348-1.343c-.227-.227-.453-.342-.453-.778s1.798-2.476 1.798-2.476 1.516.272 1.721.272.648-.16 1.057-.288.681-.129.681-.129.273.001.682.13c.41.127.852.287 1.057.287.204 0 1.721-.272 1.721-.272zm-1.347 7.803c.11.065.043.189-.058.256a82.136 82.136 0 0 0 -1.596 1.167c-.132.109-.326.29-.459.29-.132 0-.326-.181-.458-.29a82.24 82.24 0 0 0 -1.596-1.167c-.101-.067-.17-.19-.058-.256.111-.066.46-.23.94-.464.48-.233 1.079-.432 1.172-.432.094 0 .692.199 1.173.432.48.233.828.398.94.464z" fill="#fff"/><path d="m10.67 1.488-1.399-1.488h-4.908l-1.397 1.488s-1.228-.32-1.807.224c0 0 1.636-.138 2.199.72 0 0 1.516.272 1.721.272s.648-.16 1.057-.288.681-.129.681-.129.273.001.682.13c.41.127.852.287 1.057.287.204 0 1.721-.272 1.721-.272.563-.858 2.199-.72 2.199-.72-.58-.544-1.807-.224-1.807-.224" fill="url(#c)"/></g><path d="m0 6.19c0-3.42 2.773-6.19 6.179-6.19h50.291c3.412 0 6.178 2.78 6.178 6.19v102.373c0 3.419-2.772 6.19-6.178 6.19h-50.291c-3.413 0-6.179-2.78-6.179-6.19z" fill="url(#a)" transform="translate(137 7)"/><path d="m139.805 14.14a3.376 3.376 0 0 1 3.376-3.378h50.287a3.382 3.382 0 0 1 3.376 3.378v93.889a3.376 3.376 0 0 1 -3.376 3.377h-50.287a3.382 3.382 0 0 1 -3.376-3.377v-93.89zm6.546 101.029c0-.52.42-.94.938-.94h42.071a.94.94 0 1 1 0 1.881h-42.07a.937.937 0 0 1 -.938-.941z" fill="#fff"/><g fill="#ebebeb" fill-rule="nonzero"><g><rect height="3.292" rx=".562" width="18.47" x="167.685" y="22.049"/><rect height="3.292" rx=".562" width="35.407" x="148.399" y="38.98"/><rect height="3.292" rx=".562" width="35.407" x="148.399" y="89.772"/><rect height="7.054" rx=".562" width="41.018" x="148.399" y="54.029"/><rect height="14.579" rx=".562" width="41.018" x="148.399" y="65.317"/></g><rect height="1.625" rx=".562" width="20.846" x="167.506" y="28.862"/><rect height="1.625" rx=".562" width="20.846" x="167.506" y="34.03"/><rect height="1.625" rx=".562" width="39.964" x="148.22" y="45.565"/><rect height="1.625" rx=".562" width="39.964" x="148.22" y="96.357"/></g><g transform="translate(150.337 21.109)"><path d="m12.335 3.6.352-.864s-.448-.48-.99-1.024c-.544-.544-1.695-.224-1.695-.224l-1.31-1.488h-4.602l-1.31 1.488s-1.15-.32-1.693.224c-.544.544-.991 1.024-.991 1.024l.351.864-.447 1.28s1.316 4.99 1.47 5.6c.304 1.2.511 1.663 1.374 2.271a116.18 116.18 0 0 0 2.685 1.824c.255.16.575.432.862.432.288 0 .608-.272.863-.432a116.18 116.18 0 0 0 2.685-1.824c.862-.608 1.07-1.072 1.374-2.272.154-.609 1.47-5.599 1.47-5.599z" fill="url(#b)"/><path d="m9.635 2.432s1.685 2.04 1.685 2.476-.212.551-.425.778l-1.264 1.343c-.12.127-.368.32-.222.667.147.347.363.788.123 1.236s-.652.746-.916.697c-.263-.05-.882-.373-1.11-.521s-.95-.744-.95-.972.746-.638.884-.73c.138-.094.767-.454.78-.595.012-.141.008-.183-.178-.532-.185-.35-.52-.815-.464-1.125s.594-.471.979-.617c.384-.145 1.125-.42 1.217-.462.093-.043.069-.084-.211-.11-.28-.027-1.075-.132-1.434-.032-.358.1-.97.252-1.02.332-.05.081-.094.084-.043.362.051.279.314 1.614.339 1.852.025.237.075.394-.18.452-.256.059-.686.16-.834.16-.147 0-.578-.101-.833-.16-.256-.058-.206-.215-.18-.452.025-.238.287-1.573.338-1.852.051-.278.007-.28-.042-.362-.05-.08-.662-.232-1.02-.332-.359-.1-1.154.005-1.434.032-.28.026-.304.067-.211.11.092.042.832.317 1.217.462.384.146.923.307.979.617.055.31-.279.776-.464 1.125-.186.35-.19.39-.178.532.013.141.642.501.78.594.137.093.883.503.883.73 0 .229-.721.825-.95.973-.227.148-.846.471-1.11.52-.263.05-.675-.248-.915-.696s-.024-.89.122-1.236c.147-.347-.102-.54-.222-.667l-1.263-1.343c-.214-.227-.426-.342-.426-.778s1.686-2.476 1.686-2.476 1.422.272 1.614.272c.191 0 .607-.16.99-.288.384-.128.64-.129.64-.129s.255.001.638.13c.384.127.8.287.991.287.192 0 1.614-.272 1.614-.272zm-1.263 7.803c.104.065.04.189-.055.256a77.448 77.448 0 0 0 -1.496 1.167c-.124.109-.306.29-.43.29-.123 0-.306-.181-.43-.29-.124-.11-1.4-1.1-1.496-1.167-.095-.067-.158-.19-.054-.256s.43-.23.881-.464c.45-.233 1.012-.432 1.1-.432.087 0 .648.199 1.099.432.45.233.776.398.88.464z" fill="#fff"/><path d="m10.002 1.488-1.31-1.488h-4.602l-1.31 1.488s-1.15-.32-1.693.224c0 0 1.533-.138 2.06.72 0 0 1.423.272 1.615.272.191 0 .607-.16.99-.288.384-.128.64-.129.64-.129s.255.001.638.13c.384.127.8.287.991.287.192 0 1.614-.272 1.614-.272.527-.858 2.061-.72 2.061-.72-.543-.544-1.694-.224-1.694-.224" fill="url(#c)"/></g></g></svg>