<svg width= "300" height="305" xmlns="http://www.w3.org/2000/svg" xmlns:xlink="http://www.w3.org/1999/xlink" viewBox="0 0 330 305"><defs><linearGradient id="a" x1="0%" x2="173.088%" y1="21.282%" y2="140.418%"><stop offset="0%" stop-color="#FB542B"/><stop offset="100%" stop-color="#5118DD"/></linearGradient><linearGradient id="b" x1="0%" y1="50.706%" y2="50.706%"><stop offset="0%" stop-color="#F50"/><stop offset="40.988%" stop-color="#F50"/><stop offset="58.198%" stop-color="#FF2000"/><stop offset="100%" stop-color="#FF2000"/></linearGradient><linearGradient id="c" x1="2.148%" y1="50.706%" y2="50.706%"><stop offset="0%" stop-color="#FF452A"/><stop offset="100%" stop-color="#FF2000"/></linearGradient><path id="d" d="M12.003 1.786L10.43 0H4.909L3.336 1.786s-1.38-.384-2.032.269c0 0 1.84-.167 2.473.864 0 0 1.707.326 1.937.326.23 0 .728-.192 1.189-.346.46-.153.767-.154.767-.154s.306 0 .767.154c.46.154.958.346 1.188.346.23 0 1.937-.326 1.937-.326.633-1.03 2.473-.864 2.473-.864-.652-.653-2.032-.269-2.032-.269"/><path id="e" d="M10.67 1.488L9.271 0H4.363L2.966 1.488s-1.228-.32-1.807.224c0 0 1.636-.138 2.199.72 0 0 1.516.272 1.721.272.205 0 .648-.16 1.057-.288.409-.128.681-.129.681-.129s.273.001.682.13c.41.127.852.287 1.057.287.204 0 1.721-.272 1.721-.272.563-.858 2.199-.72 2.199-.72-.58-.544-1.807-.224-1.807-.224"/><path id="f" d="M10.002 1.488L8.692 0H4.09L2.78 1.488s-1.15-.32-1.693.224c0 0 1.533-.138 2.06.72 0 0 1.423.272 1.615.272.191 0 .607-.16.99-.288.384-.128.64-.129.64-.129s.255.001.638.13c.384.127.8.287.991.287.192 0 1.614-.272 1.614-.272.527-.858 2.061-.72 2.061-.72-.543-.544-1.694-.224-1.694-.224"/></defs><g fill="none" fill-rule="evenodd"><path stroke="#AAA" stroke-dasharray="9.453 9.453" stroke-linecap="round" stroke-linejoin="round" stroke-width="2.836" d="M169 254c54.124 0 98-43.652 98-97.5 0-12.01-2.183-23.514-6.175-34.139C246.917 85.351 211.052 59 169 59c-54.124 0-98 43.652-98 97.5s43.876 97.5 98 97.5z"/><path fill="#B5B5B5" fill-rule="nonzero" d="M104.917 84.547l-7.198 26.03a1.89 1.89 0 0 1-3.085.901L76.648 95.315a1.89 1.89 0 0 1 .575-3.166l25.182-9.866a1.89 1.89 0 0 1 2.512 2.264zM253.04 109.54l-23.789-12.862a1.89 1.89 0 0 1-.183-3.212l19.822-13.85a1.89 1.89 0 0 1 2.953 1.272l3.966 26.712a1.89 1.89 0 0 1-2.769 1.94zM142.44 249.533l25.632-8.612a1.89 1.89 0 0 1 2.474 2.056l-3.372 23.943a1.89 1.89 0 0 1-2.944 1.294l-22.261-15.332a1.89 1.89 0 0 1 .47-3.35z"/><g transform="translate(204 148)"><path fill="url(#a)" d="M0 3.56A3.556 3.556 0 0 1 3.558 0H86.86c1.965 0 3.558 1.6 3.558 3.56v107.633a3.556 3.556 0 0 1-3.558 3.56h-83.3A3.563 3.563 0 0 1 0 111.193V3.56z"/><path fill="#FFF" d="M3.729 6.648c0-1.074.875-1.945 1.948-1.945H84.74c1.076 0 1.949.862 1.949 1.945v89.23a1.949 1.949 0 0 1-1.949 1.944H5.677a1.941 1.941 0 0 1-1.948-1.945V6.647z"/><g fill="#F1F1F1" fill-rule="nonzero" opacity=".519" transform="translate(9.554 15.05)"><rect width="42.235" height="3.491" x="22.794" rx=".324"/><rect width="41.15" height="3.491" x="22.794" y="12.968" rx=".324"/><rect width="58.56" height="3.491" x="2.563" y="62.219" rx=".324"/><rect width="70.243" height="7.481" x=".159" y="28.928" rx=".324"/><rect width="70.402" height="15.461" y="40.056" rx=".324"/><rect width="47.816" height="1.986" x="22.794" y="7.281" rx=".324"/><rect width="68.425" height="1.986" y="23.258" rx=".324"/><rect width="66.083" height="1.986" x="2.563" y="69.5" rx=".324"/></g><ellipse cx="45.675" cy="105.347" fill="#FFF" fill-rule="nonzero" rx="3.729" ry="3.762"/><g transform="translate(11.672 15.506)"><path fill="url(#b)" d="M14.802 4.32l.422-1.037s-.537-.575-1.189-1.228-2.032-.269-2.032-.269L10.43 0H4.909L3.336 1.786s-1.38-.384-2.032.269C.652 2.708.115 3.283.115 3.283L.537 4.32 0 5.856s1.579 5.988 1.764 6.72c.364 1.44.614 1.996 1.649 2.725 1.035.73 2.914 1.997 3.221 2.189.307.192.69.519 1.036.519.345 0 .728-.327 1.035-.519.307-.192 2.186-1.46 3.221-2.189 1.036-.73 1.285-1.286 1.65-2.726.184-.731 1.763-6.719 1.763-6.719l-.537-1.536z"/><path fill="#FFF" d="M11.562 2.919s2.022 2.447 2.022 2.97c0 .524-.254.662-.51.934l-1.516 1.612c-.144.153-.442.384-.267.8.176.416.435.946.147 1.483-.288.537-.782.896-1.098.837-.317-.06-1.06-.448-1.333-.626-.273-.178-1.14-.893-1.14-1.166 0-.274.896-.765 1.061-.877.166-.111.92-.543.936-.713.015-.17.01-.22-.214-.638-.222-.42-.623-.978-.556-1.35.066-.372.713-.566 1.174-.74.462-.175 1.35-.504 1.46-.555.112-.052.083-.1-.253-.132s-1.29-.159-1.72-.039c-.43.12-1.165.303-1.224.4-.06.096-.112.1-.051.434.06.334.375 1.937.406 2.221.03.285.09.473-.216.543-.307.07-.823.193-1 .193-.178 0-.694-.122-1-.193-.307-.07-.247-.258-.217-.543.03-.284.345-1.887.407-2.221.06-.334.008-.338-.051-.434-.06-.097-.795-.28-1.225-.4-.43-.12-1.384.007-1.72.039-.336.032-.365.08-.254.132.111.051 1 .38 1.46.555.462.174 1.109.368 1.176.74.066.372-.335.93-.557 1.35-.223.419-.229.469-.213.638.015.17.77.602.935.713.165.112 1.06.603 1.06.877 0 .273-.866.988-1.139 1.166-.273.178-1.016.566-1.332.626-.317.059-.81-.3-1.099-.837-.288-.537-.029-1.067.147-1.483.176-.416-.123-.647-.267-.8L2.265 6.823c-.256-.272-.51-.41-.51-.933 0-.524 2.022-2.971 2.022-2.971s1.707.326 1.937.326c.23 0 .728-.192 1.189-.346.46-.153.767-.154.767-.154s.306 0 .767.154c.46.154.958.346 1.188.346.23 0 1.937-.326 1.937-.326zm-1.516 9.363c.125.078.049.226-.065.307a92.938 92.938 0 0 0-1.795 1.4c-.15.131-.368.348-.516.348-.149 0-.368-.217-.516-.348a93.056 93.056 0 0 0-1.795-1.4c-.115-.08-.19-.229-.066-.307.126-.079.517-.277 1.058-.557.54-.28 1.213-.518 1.319-.518.105 0 .778.238 1.319.518.54.28.932.478 1.057.557z"/><use fill="url(#c)" xlink:href="#d"/></g></g><path fill="url(#a)" d="M6.643 2.759A2.756 2.756 0 0 1 9.398 0h86.543a2.76 2.76 0 0 1 2.755 2.759v68.736H6.643V2.759z" transform="translate(36 143)"/><path fill="url(#a)" d="M1.527 76.076c-1.892-2.53-.866-4.581 2.281-4.581h98.672c3.152 0 4.075 1.964 2.05 4.4l-5.834 7.024H6.643l-5.116-6.843z" transform="matrix(1 0 0 -1 36 297.414)"/><path fill="#000" fill-opacity=".26" d="M42.797 219.73c-1.544 1.675-.942 3.032 1.333 3.032h90.017c2.28 0 2.805-1.292 1.166-2.891l-5.51-5.376H47.627l-4.829 5.236z"/><path fill="#FFF" d="M46.439 149.644c0-1.072.863-1.94 1.943-1.94h80.575c1.073 0 1.943.87 1.943 1.94v54.444c0 1.072-.863 1.94-1.943 1.94H48.382a1.942 1.942 0 0 1-1.943-1.94v-54.444z"/><g fill="#F1F1F1" fill-rule="nonzero" opacity=".519" transform="translate(54.98 158.052)"><rect width="42.999" height="3.492" x="20.596" rx=".324"/><rect width="41.895" height="3.492" x="20.596" y="12.969" rx=".324"/><rect width="69.066" height="7.482" y="28.932" rx=".324"/><rect width="48.681" height="1.986" x="20.596" y="7.282" rx=".324"/><rect width="67.279" height="1.986" y="21.969" rx=".324"/></g><g transform="translate(57.189 158.992)"><path fill="url(#b)" d="M13.158 3.6l.375-.864s-.478-.48-1.057-1.024c-.58-.544-1.807-.224-1.807-.224L9.272 0H4.363L2.966 1.488s-1.228-.32-1.807.224C.579 2.256.102 2.736.102 2.736l.375.864L0 4.88s1.404 4.99 1.568 5.6c.324 1.2.545 1.663 1.466 2.271.92.608 2.59 1.664 2.863 1.824.273.16.614.432.92.432.307 0 .648-.272.92-.432.273-.16 1.944-1.216 2.864-1.824.92-.608 1.142-1.072 1.466-2.272.164-.609 1.568-5.599 1.568-5.599l-.477-1.28z"/><path fill="#FFF" d="M10.277 2.432s1.798 2.04 1.798 2.476c0 .436-.226.551-.454.778l-1.347 1.343c-.128.127-.393.32-.237.667.156.347.386.788.13 1.236-.256.448-.695.746-.976.697-.281-.05-.942-.373-1.185-.521-.243-.148-1.012-.744-1.012-.972 0-.228.795-.638.942-.73.147-.094.818-.454.832-.595.013-.141.008-.183-.19-.532-.198-.35-.554-.815-.495-1.125.06-.31.634-.471 1.044-.617.41-.145 1.2-.42 1.299-.462.098-.043.073-.084-.226-.11-.299-.027-1.147-.132-1.529-.032-.382.1-1.035.252-1.088.332-.053.081-.1.084-.045.362.054.279.334 1.614.36 1.852.028.237.081.394-.192.452-.272.059-.73.16-.889.16-.157 0-.616-.101-.889-.16-.272-.058-.219-.215-.192-.452.027-.238.307-1.573.361-1.852.055-.278.008-.28-.045-.362-.053-.08-.706-.232-1.088-.332-.383-.1-1.23.005-1.53.032-.298.026-.324.067-.225.11.099.042.888.317 1.298.462.41.146.985.307 1.045.617.059.31-.297.776-.495 1.125-.198.35-.203.39-.19.532.014.141.685.501.832.594.147.093.942.503.942.73 0 .229-.77.825-1.012.973-.243.148-.904.471-1.185.52-.281.05-.72-.248-.976-.696-.256-.448-.026-.89.13-1.236.156-.347-.11-.54-.237-.667L2.013 5.686c-.227-.227-.453-.342-.453-.778s1.798-2.476 1.798-2.476 1.516.272 1.721.272c.205 0 .648-.16 1.057-.288.409-.128.681-.129.681-.129s.273.001.682.13c.41.127.852.287 1.057.287.204 0 1.721-.272 1.721-.272zM8.93 10.235c.11.065.043.189-.058.256a82.136 82.136 0 0 0-1.596 1.167c-.132.109-.326.29-.459.29-.132 0-.326-.181-.458-.29a82.24 82.24 0 0 0-1.596-1.167c-.101-.067-.17-.19-.058-.256.111-.066.46-.23.94-.464.48-.233 1.079-.432 1.172-.432.094 0 .692.199 1.173.432.48.233.828.398.94.464z"/><use fill="url(#c)" xlink:href="#e"/></g><g><path fill="url(#a)" d="M0 6.19C0 2.77 2.773 0 6.179 0H56.47c3.412 0 6.178 2.78 6.178 6.19v102.373c0 3.419-2.772 6.19-6.178 6.19H6.179c-3.413 0-6.179-2.78-6.179-6.19V6.19z" transform="translate(137 7)"/><path fill="#FFF" d="M139.805 14.14a3.376 3.376 0 0 1 3.376-3.378h50.287a3.382 3.382 0 0 1 3.376 3.378v93.889a3.376 3.376 0 0 1-3.376 3.377h-50.287a3.382 3.382 0 0 1-3.376-3.377v-93.89zm6.546 101.029c0-.52.42-.94.938-.94h42.071a.94.94 0 1 1 0 1.881H147.29a.937.937 0 0 1-.938-.941z"/><g transform="translate(148.22 21.109)"><g fill="#EBEBEB" fill-rule="nonzero" transform="translate(.179 .94)"><rect width="18.47" height="3.292" x="19.286" rx=".562"/><rect width="35.407" height="3.292" y="16.931" rx=".562"/><rect width="35.407" height="3.292" y="67.723" rx=".562"/><rect width="41.018" height="7.054" y="31.98" rx=".562"/><rect width="41.018" height="14.579" y="43.268" rx=".562"/></g><rect width="20.846" height="1.625" x="19.286" y="7.753" fill="#EBEBEB" fill-rule="nonzero" rx=".562"/><rect width="20.846" height="1.625" x="19.286" y="12.921" fill="#EBEBEB" fill-rule="nonzero" rx=".562"/><rect width="39.964" height="1.625" y="24.456" fill="#EBEBEB" fill-rule="nonzero" rx=".562"/><rect width="39.964" height="1.625" y="75.248" fill="#EBEBEB" fill-rule="nonzero" rx=".562"/><g transform="translate(2.117)"><path fill="url(#b)" d="M12.335 3.6l.352-.864s-.448-.48-.99-1.024c-.544-.544-1.695-.224-1.695-.224L8.692 0H4.09L2.78 1.488s-1.15-.32-1.693.224C.543 2.256.096 2.736.096 2.736l.351.864L0 4.88s1.316 4.99 1.47 5.6c.304 1.2.511 1.663 1.374 2.271a116.18 116.18 0 0 0 2.685 1.824c.255.16.575.432.862.432.288 0 .608-.272.863-.432a116.18 116.18 0 0 0 2.685-1.824c.862-.608 1.07-1.072 1.374-2.272.154-.609 1.47-5.599 1.47-5.599l-.448-1.28z"/><path fill="#FFF" d="M9.635 2.432s1.685 2.04 1.685 2.476c0 .436-.212.551-.425.778L9.631 7.029c-.12.127-.368.32-.222.667.147.347.363.788.123 1.236-.24.448-.652.746-.916.697-.263-.05-.882-.373-1.11-.521-.228-.148-.95-.744-.95-.972 0-.228.746-.638.884-.73.138-.094.767-.454.78-.595.012-.141.008-.183-.178-.532-.185-.35-.52-.815-.464-1.125.056-.31.594-.471.979-.617.384-.145 1.125-.42 1.217-.462.093-.043.069-.084-.211-.11-.28-.027-1.075-.132-1.434-.032-.358.1-.97.252-1.02.332-.05.081-.094.084-.043.362.051.279.314 1.614.339 1.852.025.237.075.394-.18.452-.256.059-.686.16-.834.16-.147 0-.578-.101-.833-.16-.256-.058-.206-.215-.18-.452.025-.238.287-1.573.338-1.852.051-.278.007-.28-.042-.362-.05-.08-.662-.232-1.02-.332-.359-.1-1.154.005-1.434.032-.28.026-.304.067-.211.11.092.042.832.317 1.217.462.384.146.923.307.979.617.055.31-.279.776-.464 1.125-.186.35-.19.39-.178.532.013.141.642.501.78.594.137.093.883.503.883.73 0 .229-.721.825-.95.973-.227.148-.846.471-1.11.52-.263.05-.675-.248-.915-.696-.24-.448-.024-.89.122-1.236.147-.347-.102-.54-.222-.667L1.888 5.686c-.214-.227-.426-.342-.426-.778s1.686-2.476 1.686-2.476 1.422.272 1.614.272c.191 0 .607-.16.99-.288.384-.128.64-.129.64-.129s.255.001.638.13c.384.127.8.287.991.287.192 0 1.614-.272 1.614-.272zm-1.263 7.803c.104.065.04.189-.055.256a77.448 77.448 0 0 0-1.496 1.167c-.124.109-.306.29-.43.29-.123 0-.306-.181-.43-.29-.124-.11-1.4-1.1-1.496-1.167-.095-.067-.158-.19-.054-.256.104-.066.43-.23.881-.464.45-.233 1.012-.432 1.1-.432.087 0 .648.199 1.099.432.45.233.776.398.88.464z"/><use fill="url(#c)" xlink:href="#f"/></g></g></g></g></svg>