<svg width="330" height="305" version="1" xmlns="http://www.w3.org/2000/svg" xmlns:xlink="http://www.w3.org/1999/xlink"><defs><path id="a" d="M0 0h35v60H0z"/><linearGradient x1="50%" y1="0%" x2="50%" y2="76%" id="c"><stop stop-color="#FF641D" offset="0%"/><stop stop-color="#FF4600" offset="100%"/></linearGradient><path id="d" d="M0 1h69v88H0z"/><path id="f" d="M0 0h123v77H0z"/><path id="h" d="M0 0h144v47H0z"/></defs><g fill="none" fill-rule="evenodd"><g stroke="#4A4A4A" stroke-linecap="round" stroke-linejoin="round" stroke-width="4"><path d="M235 267a124 124 0 0 1-122-23M287 45c40 39 52 100 28 152M79 85l4-8c28-50 83-74 136-64"/></g><g transform="translate(237)"><mask id="b" fill="#fff"><use xlink:href="#a"/></mask><path d="M31 54l-2 2H6l-2-2V6l2-2h23l2 2v48zM24 0H6C3 0 0 3 0 6v48c0 3 3 6 6 6h23c3 0 6-3 6-6V6c0-3-3-6-6-6h-5z" fill="#444" mask="url(#b)"/></g><path d="M259 50a4 4 0 1 1-7 0 4 4 0 0 1 7 0" fill="#444"/><path d="M33 13l-1-4 1-1-1-1-2-2c-1-1-2-2-4-1l-4-4H11L7 4C5 3 4 4 3 5L0 7l1 2-1 4 4 16 3 4a304 304 0 0 0 11 6l8-6 3-4 4-16" fill="url(#c)" transform="translate(255 11)"/><path d="M272 35h-1l-1 1h-2l-2 1v1l2 1 1 1h1l1 1v1h1v-1l1-1h1l1-1 2-1v-1l-2-1h-2l-1-1" fill="#FFFFFE"/><path d="M284 24v-2l-1-1-1-1-2-2v-1h-1l-2 1a410 410 0 0 1-2 0l-2-1h-2-1l-2 1h-1-1l-2-1h-1v1l-2 2-1 1-1 1v3l1 1 4 4v1l-1 1v2l1 1 1 1h1l2-1 1-1 2-1v-1l-4-3v-1l1-3v-1l-1-1-4-1v-1h4l2 1 1 1-1 5v1h5v-1l-1-5 1-1 2-1h4v1l-4 1-1 1v1l1 3v1l-4 3v1l2 1 1 1 2 1h1l1-1 1-1v-2l-1-1v-1l4-4 1-1v-1z" fill="#FFFFFE"/><g transform="translate(255 216)"><mask id="e" fill="#fff"><use xlink:href="#d"/></mask><path d="M64 83l-1 1H6l-1-1V7l1-1h57l1 1v76zM27 1H6C3 1 0 4 0 7v76c0 3 3 6 6 6h57c3 0 6-3 6-6V7c0-3-3-6-6-6H27z" fill="#444" mask="url(#e)"/></g><path d="M294 295a4 4 0 1 1-8 0 4 4 0 0 1 8 0" fill="#444"/><g><path d="M33 13l-1-4 1-1-1-1-2-2c-1-1-2-2-4-1l-4-4H11L7 4C5 3 4 4 3 5L0 7l1 2-1 4 4 16 3 4a304 304 0 0 0 11 6l8-6 3-4 4-16" fill="url(#c)" transform="translate(239 231)"/><path d="M256 255h-1l-1 1h-2l-2 1v1l2 1 1 1h1l1 1v1h1v-1l1-1h1l1-1 2-1v-1l-2-1h-2l-1-1" fill="#FFFFFE"/><path d="M268 244v-2l-1-1-1-1-2-2v-1h-1l-2 1a410 410 0 0 1-2 0l-2-1h-2-1l-2 1h-1-1l-2-1h-1v1l-2 2-1 1-1 1v3l1 1 4 4v1l-1 1v2l1 1 1 1h1l2-1 1-1 2-1v-1l-4-3v-1l1-3v-1l-1-1-4-1v-1h4l2 1 1 1-1 5v1h5v-1l-1-5 1-1 2-1h4v1l-4 1-1 1v1l1 3v1l-4 3v1l2 1 1 1 2 1h1l1-1 1-1v-2l-1-1v-1l4-4 1-1v-1z" fill="#FFFFFE"/></g><g><g transform="translate(13 103)"><mask id="g" fill="#fff"><use xlink:href="#f"/></mask><path d="M118 71l-2 2H7l-2-2V7l2-2h109l2 2v64zM81 0H7C3 0 0 3 0 7v64c0 4 3 6 7 6h109c4 0 7-2 7-6V7c0-4-3-7-7-7H81z" fill="#444" mask="url(#g)"/></g><g transform="translate(0 181)"><mask id="i" fill="#fff"><use xlink:href="#h"/></mask><path d="M139 40l-1 2H6l-1-1L16 7l1-2h112l2 2 8 33zM93 0H17c-3 0-5 3-6 7L0 41c0 3 3 6 6 6h132c3 0 6-3 6-7l-8-33c-2-4-3-7-7-7H93z" fill="#444" mask="url(#i)"/></g><path d="M85 221l-1 2H58l-1-1 2-5 2-1h21l2 1 1 4zm-9-10H61c-4 0-5 3-7 6l-2 5c0 3 3 6 6 6h26c3 0 6-3 6-7l-1-4c-2-4-3-6-7-6h-6z" fill="#444"/></g><g><path d="M33 13l-1-4 1-1-1-1-2-2c-1-1-2-2-4-1l-4-4H11L7 4C5 3 4 4 3 5L0 7l1 2-1 4 4 16 3 4a304 304 0 0 0 11 6l8-6 3-4 4-16" fill="url(#c)" transform="translate(58 93)"/><path d="M75 117h-1l-1 1h-2l-2 1v1l2 1 1 1h1l1 1v1h1v-1l1-1h1l1-1 2-1v-1l-2-1h-2l-1-1" fill="#FFFFFE"/><path d="M87 106v-2l-1-1-1-1-2-2v-1h-1l-2 1a410 410 0 0 1-2 0l-2-1h-2-1l-2 1h-1-1l-2-1h-1v1l-2 2-1 1-1 1v3l1 1 4 4v1l-1 1v2l1 1 1 1h1l2-1 1-1 2-1v-1l-4-3v-1l1-3v-1l-1-1-4-1v-1h4l2 1 1 1-1 5v1h5v-1l-1-5 1-1 2-1h4v1l-4 1-1 1v1l1 3v1l-4 3v1l2 1 1 1 2 1h1l1-1 1-1v-2l-1-1v-1l4-4 1-1v-1z" fill="#FFFFFE"/></g><path d="M231 19a6 6 0 1 1-10-6 6 6 0 0 1 10 6zM316 206a6 6 0 1 1-10-6 6 6 0 0 1 10 6zM113 243a6 6 0 1 1-10-6 6 6 0 0 1 10 6z" stroke="#4A4A4A" stroke-width="3" stroke-linecap="round" stroke-linejoin="round"/></g></svg>