<svg xmlns="http://www.w3.org/2000/svg" viewBox="0 0 300 202"><g fill="none" fill-rule="evenodd"><path stroke="#4A4A4A" stroke-dasharray="6.667 6.667" stroke-linecap="round" stroke-width="2.667" d="M188.875 65.333L301 0M187.54 93.333l109.456 105.334"/><path stroke="#58585B" stroke-linecap="round" stroke-width="2.667" d="M146.16 122.667L191.546 116"/><path fill="#404042" d="M112.03 171.75l-9.013-10.6c-2.117-2.12-2.116-5.59.002-7.71L206.006 41.26c2.119-2.12 5.584-2.119 7.7.002l10.814 3.548c2.117 2.12 10.21 7.171 5.277 11.273L119.73 171.753c-2.119 2.12-5.584 2.119-7.7-.002"/><path stroke="#58585B" stroke-width="4" d="M112.03 171.75l-9.013-10.6c-2.117-2.12-2.116-5.59.002-7.71L206.006 41.26c2.119-2.12 5.584-2.119 7.7.002l10.814 3.548c2.117 2.12 10.21 7.171 5.277 11.273L119.73 171.753c-2.119 2.12-5.584 2.119-7.7-.002z"/><path stroke="#58585B" stroke-linecap="round" stroke-width="4" d="M172.406 143.645c-26.407-8.477-3.495-24.043-3.495-24.043 2.253-2.255 6.693 1.223 6.693 1.223 8.367 6.766 0 19.009 0 19.009-.644 1.692-1.81 2.92-3.198 3.811-4.163 2.673-10.318 2.311-10.318 2.311l-15.446.322 8.688 9.021c1.767 4.549-2.8 11.277-4.853 13.968a6.539 6.539 0 0 1-2.14 1.812l-4.27 2.263-6.114-3.222c-1.015-.707-6.147-6.996-5.648-5.863.579 1.315 1.787 1.03 1.144 8.441-1.288 14.82-9.011 16.754-9.011 16.754l-8.308 2.9-1.655.885a21.39 21.39 0 0 1-14.299 2.117 12.31 12.31 0 0 0-4.267-.099l-12.66 1.93c-9.333 3.866-15.447 2.255-15.447 2.255l-35.398-4.51-26.387 1.933c-11.907-45.752 8.045-68.95 8.045-68.95l13.194-2.9s32.823-35.119 35.719-38.341c2.896-3.222 9.332-3.544 9.332-3.544 6.758-1.289 34.432-11.277 34.432-11.277 4.827-2.9 9.39 0 9.39 0 7.781 2.9 27.939 5.155 27.939 5.155s14.994 6.766-4.57 14.177c0 0-3.239 7.245-18.672 4.902-2.892-.44-4.696-2.547-4.696-2.547s-1.024 6.91-14.7 6.145l-5.542 4.71s4.023 13.854-5.113 20.298"/><path stroke="#58585B" stroke-width="2.667" d="M138.008 152.545s6.43-7.66 8.634-6.267c3.79 2.396.644 18.365-7.723 20.943 0 0-15.564.723-.91-14.676zm27.302-27.763s3.443-6.43 7.807-5.407c3.412.8 4.42 10.754.464 17.115-2.165 3.48-6.66 4.856-10.283 2.947-3.156-1.664-5.702-8.636 2.012-14.655zm20.768-23.276s3.443-6.43 7.807-5.407c3.412.8 4.42 10.754.464 17.115-2.165 3.481-6.66 4.856-10.283 2.947-3.156-1.663-5.702-8.636 2.012-14.655z"/><path stroke="#58585B" stroke-linecap="square" stroke-linejoin="round" stroke-width="2.667" d="M93.224 164.965s-8.079-3.402-9.344 4.814c-.923 5.998.19 7.294 9.344 11.67 0 0-7.318-3.528-7.09-8.59.177-3.974 2.368-6.217 7.09-7.894z"/><path stroke="#58585B" stroke-width="4" d="M93.224 164.965l22.193 8.356 18.032-.623"/><path stroke="#58585B" stroke-width="2.667" d="M93.224 164.965s8.87 2.457 6.436 10.31c0 0-.41 3.905-5.657 4.82-1.001.175-1.154 1.549-.211 1.929l13.705 5.524c1.955.788 11.1 3.607 12.923 3.306"/><path stroke="#58585B" stroke-linecap="round" stroke-width="2.667" d="M71.02 153.366s17.377 3.545 33.467-26.42"/><path stroke="#58585B" stroke-linecap="round" stroke-width="4" d="M114.668 108.581s3.334 11.61-4.067 26.587"/><path fill="#FEFEFE" d="M106.75 168.187l-9.013-10.6c-2.117-2.122-2.116-5.591.003-7.71L200.727 37.696c1.854-1.856 4.49-1.596 6.852-.691 6.96 2.666 6.072 2.273 6.96 2.666l9.98 5.139c2.118 2.12 2.117 5.59-.002 7.71L114.451 168.19c-2.118 2.12-5.583 2.118-7.7-.003"/><path stroke="#58585B" stroke-width="4" d="M106.75 168.187l-9.013-10.6c-2.117-2.122-2.116-5.591.003-7.71L200.727 37.696c1.854-1.856 4.49-1.596 6.852-.691 6.96 2.666 6.072 2.273 6.96 2.666l9.98 5.139c2.118 2.12 2.117 5.59-.002 7.71L114.451 168.19c-2.118 2.12-5.583 2.118-7.7-.003z"/><path stroke="#58585B" stroke-linecap="round" stroke-width="4" d="M96.63 108.581l45.398-6.946"/></g></svg>