<svg viewBox="0 0 84 90" xmlns="http://www.w3.org/2000/svg" xmlns:xlink="http://www.w3.org/1999/xlink"><linearGradient id="a"><stop offset="0" stop-color="#392dd1"/><stop offset="1" stop-color="#a91b78"/></linearGradient><linearGradient id="b" x1=".643%" x2="99.357%" xlink:href="#a" y1="49.357%" y2="49.357%"/><linearGradient id="c" x1="0%" y1="50.706%" y2="50.706%"><stop offset="0" stop-color="#f50"/><stop offset=".40988" stop-color="#f50"/><stop offset=".58198" stop-color="#ff2000"/><stop offset="1" stop-color="#ff2000"/></linearGradient><linearGradient id="d" x1="2.148%" y1="50.706%" y2="50.706%"><stop offset="0" stop-color="#ff452a"/><stop offset="1" stop-color="#ff2000"/></linearGradient><linearGradient id="e" x1="-18.33%" x2="139.352%" xlink:href="#a" y1="7.408%" y2="107.403%"/><g fill="none" fill-rule="evenodd"><path d="m0 3.76a3.767 3.767 0 0 1 3.768-3.76h63.01a3.771 3.771 0 0 1 3.767 3.76v81.29a3.767 3.767 0 0 1 -3.767 3.759h-63.01a3.771 3.771 0 0 1 -3.768-3.76z" fill="url(#b)"/><path d="m2.91 5.7c0-1.138.914-2.06 2.061-2.06h60.603c1.14 0 2.062.91 2.062 2.06v67.946c0 1.138-.915 2.06-2.062 2.06h-60.603a2.054 2.054 0 0 1 -2.062-2.06v-67.946z" fill="#fff"/><g fill="#f1f1f1" fill-rule="nonzero" opacity=".519"><rect height="2.702" rx=".342" width="32.953" x="25.239" y="11.647"/><rect height="2.702" rx=".342" width="32.106" x="25.239" y="21.683"/><rect height="2.702" rx=".342" width="45.69" x="9.455" y="59.799"/><rect height="5.79" rx=".342" width="54.805" x="7.579" y="34.035"/><rect height="11.966" rx=".342" width="54.929" x="7.455" y="42.647"/><rect height="1.537" rx=".342" width="37.307" x="25.239" y="17.282"/><rect height="1.537" rx=".342" width="53.387" x="7.455" y="29.647"/><rect height="1.537" rx=".342" width="51.559" x="9.455" y="65.434"/></g><ellipse cx="35.636" cy="81.529" fill="#fff" fill-rule="nonzero" rx="2.909" ry="2.912"/><g transform="translate(9.098 12)"><path d="m11.463 3.346.327-.803s-.416-.446-.92-.952c-.506-.505-1.575-.208-1.575-.208l-1.217-1.383h-4.278l-1.216 1.383s-1.07-.297-1.574.208c-.505.506-.92.952-.92.952l.326.803-.416 1.189s1.223 4.637 1.366 5.203c.282 1.115.475 1.547 1.277 2.112.802.564 2.257 1.546 2.495 1.694.237.149.534.402.801.402.268 0 .565-.253.802-.402.238-.148 1.693-1.13 2.495-1.694.802-.565.995-.997 1.277-2.112.143-.566 1.366-5.203 1.366-5.203l-.416-1.19z" fill="url(#c)"/><path d="m8.954 2.26s1.566 1.896 1.566 2.3c0 .406-.197.513-.395.724l-1.175 1.248c-.11.118-.342.297-.206.62.136.322.337.732.114 1.148-.224.416-.606.694-.85.648-.246-.046-.821-.347-1.033-.484-.212-.138-.882-.692-.882-.904 0-.211.693-.592.821-.678.128-.087.712-.421.724-.553.012-.13.008-.17-.165-.494-.172-.324-.482-.757-.43-1.045.05-.289.552-.438.909-.573.357-.136 1.045-.39 1.131-.43s.064-.078-.197-.103c-.26-.024-.999-.122-1.332-.03-.333.093-.902.235-.948.31s-.087.077-.04.336c.048.259.292 1.5.315 1.72.024.221.07.367-.167.421-.238.054-.637.149-.775.149-.137 0-.537-.095-.774-.149-.238-.054-.191-.2-.168-.42.024-.221.268-1.462.315-1.72.047-.26.007-.262-.04-.337-.045-.075-.614-.217-.948-.31-.333-.092-1.071.006-1.332.03-.26.025-.282.063-.196.103s.774.294 1.13.43c.358.135.859.284.91.573.052.288-.258.72-.43 1.045-.173.325-.178.363-.166.494.012.132.597.466.725.553.128.086.82.467.82.678 0 .212-.67.766-.881.904-.212.137-.787.438-1.032.484s-.628-.232-.85-.648c-.224-.416-.023-.826.113-1.148.136-.323-.095-.502-.207-.62l-1.174-1.248c-.198-.211-.395-.318-.395-.723s1.566-2.3 1.566-2.3 1.322.252 1.5.252.564-.149.92-.268c.357-.119.594-.12.594-.12s.238.001.594.12c.357.12.743.268.92.268.18 0 1.5-.253 1.5-.253zm-1.174 7.251c.097.06.037.175-.05.238-.09.062-1.276.983-1.391 1.084-.115.102-.285.27-.4.27s-.284-.168-.4-.27a72.063 72.063 0 0 0 -1.389-1.083c-.088-.063-.147-.177-.05-.238.097-.06.4-.214.819-.43.418-.218.94-.402 1.021-.402.082 0 .603.184 1.022.401.418.217.722.37.819.431z" fill="#fff"/><path d="m9.295 1.383-1.217-1.383h-4.278l-1.216 1.383s-1.07-.297-1.574.208c0 0 1.425-.129 1.915.67 0 0 1.322.252 1.5.252s.564-.149.92-.268c.357-.119.594-.12.594-.12s.238.001.594.12c.357.12.743.268.92.268.18 0 1.5-.253 1.5-.253.49-.798 1.916-.669 1.916-.669-.505-.505-1.574-.208-1.574-.208" fill="url(#d)"/></g><path d="m0 5.077a5.08 5.08 0 0 1 5.077-5.077h27.635a5.076 5.076 0 0 1 5.076 5.077v58.698a5.08 5.08 0 0 1 -5.076 5.077h-27.635a5.076 5.076 0 0 1 -5.077-5.077z" fill="url(#e)" transform="translate(46 21)"/><path d="m47.692 26.029a2.774 2.774 0 0 1 2.772-2.772h28.86a2.767 2.767 0 0 1 2.772 2.772v54.843a2.774 2.774 0 0 1 -2.771 2.772h-28.861a2.767 2.767 0 0 1 -2.772-2.772v-54.842zm3.948 59.871c0-.311.262-.564.566-.564h25.376c.313 0 .566.262.566.564a.571.571 0 0 1 -.566.565h-25.376a.571.571 0 0 1 -.566-.565z" fill="#fff"/><g fill="#ebebeb" fill-rule="nonzero"><g><rect height="1.975" rx=".461" width="11.14" x="64.509" y="30.029"/><rect height="1.975" rx=".461" width="21.357" x="52.876" y="40.187"/><rect height="1.975" rx=".461" width="21.357" x="52.876" y="70.663"/><rect height="4.233" rx=".461" width="24.741" x="52.876" y="49.217"/><rect height="8.748" rx=".461" width="24.741" x="52.876" y="55.99"/></g><rect height="1" rx=".461" width="12.574" x="64.401" y="34.117"/><rect height="1" rx=".461" width="12.574" x="64.401" y="37.218"/><rect height="1" rx=".461" width="24.105" x="52.768" y="44.138"/><rect height="1" rx=".461" width="24.105" x="52.768" y="74.614"/></g><g transform="translate(54.038 29.465)"><path d="m7.379 2.153.21-.516s-.268-.287-.593-.613c-.325-.324-1.013-.134-1.013-.134l-.783-.89h-2.753l-.784.89s-.688-.19-1.013.134c-.325.326-.593.613-.593.613l.21.516-.267.767s.787 2.985.88 3.35c.18.717.305.995.821 1.358.516.364 1.453.996 1.606 1.091.153.096.344.259.516.259s.363-.163.516-.259c.153-.095 1.09-.727 1.606-1.09.516-.364.64-.642.822-1.36.092-.364.88-3.349.88-3.349l-.268-.766z" fill="url(#c)"/><path d="m5.763 1.455s1.008 1.22 1.008 1.48c0 .262-.126.33-.254.466l-.756.804c-.071.076-.22.19-.133.398.088.208.217.472.074.74-.144.268-.39.446-.548.417-.158-.03-.528-.224-.664-.312-.136-.089-.568-.445-.568-.581 0-.137.446-.382.529-.437.082-.056.458-.271.466-.356.007-.084.004-.11-.106-.318-.111-.209-.311-.488-.278-.673s.356-.282.586-.369.672-.251.728-.277c.055-.025.04-.05-.127-.065-.167-.016-.643-.08-.857-.02-.215.06-.581.151-.61.2-.03.048-.057.05-.026.216.03.166.187.965.202 1.107.016.142.045.236-.107.271-.153.035-.41.096-.499.096-.088 0-.346-.061-.498-.096-.153-.035-.123-.129-.108-.27.015-.143.172-.942.202-1.108.03-.167.005-.168-.025-.217-.03-.048-.396-.139-.61-.199-.215-.06-.69.004-.858.02-.167.016-.182.04-.126.065.055.026.498.19.728.277s.552.184.585.369c.034.185-.166.464-.277.673s-.114.234-.106.318c.007.085.383.3.466.356.082.055.528.3.528.437 0 .136-.431.492-.568.58-.136.09-.506.283-.664.313s-.404-.15-.547-.417c-.144-.268-.015-.532.073-.74.087-.207-.061-.322-.133-.398l-.756-.805c-.127-.136-.254-.204-.254-.465s1.008-1.481 1.008-1.481.85.163.965.163.363-.096.593-.173c.23-.076.382-.077.382-.077s.153 0 .382.077c.23.077.478.173.593.173s.965-.163.965-.163zm-.755 4.667c.062.04.024.113-.033.153s-.82.633-.895.698c-.074.066-.183.174-.257.174s-.183-.108-.257-.174a46.386 46.386 0 0 0 -.895-.698c-.057-.04-.095-.114-.032-.153.062-.039.257-.138.527-.277.269-.14.605-.258.657-.258.053 0 .388.118.658.258.269.14.464.238.527.277z" fill="#fff"/><path d="m5.983.89-.783-.89h-2.753l-.784.89s-.688-.19-1.013.134c0 0 .917-.083 1.233.43 0 0 .85.164.965.164s.363-.096.593-.173c.23-.076.382-.077.382-.077s.153 0 .382.077c.23.077.478.173.593.173s.965-.163.965-.163c.316-.514 1.233-.43 1.233-.43-.325-.327-1.013-.135-1.013-.135" fill="url(#d)"/></g></g></svg>