<svg viewBox="0 0 99 78" xmlns="http://www.w3.org/2000/svg" xmlns:xlink="http://www.w3.org/1999/xlink"><linearGradient id="a"><stop offset="0" stop-color="#392dd1"/><stop offset="1" stop-color="#a91b78"/></linearGradient><linearGradient id="b" x1=".643%" x2="99.357%" xlink:href="#a" y1="49.357%" y2="49.357%"/><linearGradient id="c" x1="78.208%" x2="57.719%" xlink:href="#a" y1="100%" y2="-320.563%"/><linearGradient id="d" x1="0%" y1="50.706%" y2="50.706%"><stop offset="0" stop-color="#f50"/><stop offset=".40988" stop-color="#f50"/><stop offset=".58198" stop-color="#ff2000"/><stop offset="1" stop-color="#ff2000"/></linearGradient><linearGradient id="e" x1="2.148%" y1="50.706%" y2="50.706%"><stop offset="0" stop-color="#ff452a"/><stop offset="1" stop-color="#ff2000"/></linearGradient><g fill="none" fill-rule="evenodd"><path d="m6.208 3.544a3.544 3.544 0 0 1 3.547-3.544h78.938a3.551 3.551 0 0 1 3.546 3.544v63.695h-86.029v-63.695z" fill="url(#b)"/><path d="m1.427 71.547c-1.768-2.379-.797-4.307 2.168-4.307h92.145c2.965 0 3.834 1.86 1.952 4.139l-5.453 6.605h-86.029l-4.782-6.436z" fill="url(#c)" transform="matrix(1 0 0 -1 0 145.223)"/><path d="m6.373 72.142c-1.454 1.586-.9 2.873 1.254 2.873h84.07c2.147 0 2.65-1.215 1.118-2.72l-5.148-5.055h-76.801z" fill="#000" fill-opacity=".26"/><path d="m9.756 6.923a2.5 2.5 0 0 1 2.515-2.5h73.906a2.508 2.508 0 0 1 2.515 2.5v49.854a2.5 2.5 0 0 1 -2.515 2.5h-73.906a2.508 2.508 0 0 1 -2.515-2.5z" fill="#fff"/><g fill="#f1f1f1" fill-rule="nonzero" opacity=".519"><rect height="3.284" rx=".418" width="40.186" x="36.987" y="14.156"/><rect height="3.284" rx=".418" width="39.154" x="36.987" y="26.353"/><rect height="7.037" rx=".418" width="64.548" x="17.738" y="41.366"/><rect height="1.868" rx=".418" width="45.496" x="36.987" y="21.004"/><rect height="1.868" rx=".418" width="62.877" x="17.738" y="34.818"/></g><g transform="translate(19.805 15.04)"><path d="m12.32 3.356.352-.805s-.447-.448-.99-.955-1.692-.209-1.692-.209l-1.308-1.387h-4.596l-1.31 1.387s-1.148-.298-1.69.21c-.543.506-.99.954-.99.954l.35.805-.446 1.194s1.314 4.652 1.468 5.22c.303 1.119.51 1.551 1.373 2.118.862.567 2.426 1.55 2.68 1.7.256.15.575.403.863.403.287 0 .606-.254.861-.403.256-.15 1.82-1.133 2.682-1.7.861-.567 1.069-1 1.372-2.118.154-.568 1.468-5.22 1.468-5.22l-.447-1.193z" fill="url(#d)"/><path d="m9.623 2.267s1.684 1.902 1.684 2.308c0 .407-.212.514-.425.725l-1.262 1.253c-.12.118-.368.298-.222.621.146.324.362.735.122 1.152-.24.418-.65.696-.914.65-.263-.046-.882-.348-1.11-.486-.227-.138-.947-.693-.947-.906 0-.212.745-.594.882-.68.138-.087.766-.423.779-.555.013-.131.008-.17-.178-.496-.185-.325-.519-.76-.463-1.048.055-.29.594-.44.978-.575.384-.136 1.123-.392 1.215-.431.093-.04.069-.078-.21-.103-.28-.025-1.075-.123-1.433-.03s-.97.235-1.019.31c-.05.076-.093.078-.042.338.05.26.313 1.504.338 1.725.026.222.075.368-.18.422-.255.055-.685.15-.832.15-.148 0-.578-.095-.833-.15-.255-.054-.205-.2-.18-.422.026-.22.288-1.466.338-1.725.051-.26.008-.262-.042-.338-.05-.075-.661-.217-1.019-.31s-1.152.005-1.432.03-.303.063-.211.103.832.295 1.216.43c.384.136.922.287.977.576.056.289-.278.723-.463 1.048-.185.326-.19.365-.177.496.012.132.64.468.778.554.138.087.883.469.883.681 0 .213-.721.768-.948.906-.228.138-.846.44-1.11.486-.263.046-.674-.232-.914-.65-.24-.417-.024-.828.122-1.152.146-.323-.102-.503-.222-.621l-1.262-1.253c-.213-.211-.424-.318-.424-.725 0-.406 1.683-2.308 1.683-2.308s1.42.254 1.612.254c.191 0 .606-.15.99-.269.382-.119.638-.12.638-.12s.255.001.638.12c.383.12.798.269.99.269.191 0 1.611-.254 1.611-.254zm-1.261 7.274c.104.061.04.176-.055.239-.095.062-1.37.985-1.494 1.087s-.306.27-.43.27c-.123 0-.305-.168-.429-.27a76.993 76.993 0 0 0 -1.494-1.087c-.095-.063-.158-.178-.054-.239.104-.06.43-.215.88-.432.45-.218 1.01-.403 1.098-.403.087 0 .648.185 1.098.403.45.217.775.371.88.432z" fill="#fff"/><path d="m9.99 1.387-1.308-1.387h-4.596l-1.31 1.387s-1.148-.298-1.69.21c0 0 1.531-.13 2.058.67 0 0 1.42.254 1.612.254.191 0 .606-.15.99-.269.382-.119.638-.12.638-.12s.255.001.638.12c.383.12.798.269.99.269.191 0 1.611-.254 1.611-.254.527-.8 2.06-.67 2.06-.67-.544-.508-1.693-.21-1.693-.21" fill="url(#e)"/></g></g></svg>