<svg width="18" height="18" viewBox="0 0 18 18" fill="none" xmlns="http://www.w3.org/2000/svg">
<path fill-rule="evenodd" clip-rule="evenodd" d="M12.9856 12.7901L9.69014 7.54878L9.69014 4.69232L15.5907 14.5269L12.9856 12.7901ZM5.74857 13.948H12.2253L14.3277 15.3495L3.29582 15.3495L5.74857 13.948ZM8.30519 7.54878L5.02493 12.7659L2.64489 14.1259L8.30519 4.69232L8.30519 7.54878ZM8.99767 9.05007L11.2074 12.563H6.78867L8.99767 9.05007ZM17.9015 15.6854L9.59181 1.83585C9.56965 1.79984 9.54057 1.77076 9.51287 1.74029C9.38615 1.59556 9.20541 1.5 8.99767 1.5C8.78993 1.5 8.60988 1.59556 8.48247 1.74029C8.45477 1.77076 8.42568 1.79915 8.40422 1.83585L0.0944987 15.6854C0.0619523 15.7401 0.0377156 15.7983 0.0210962 15.8578C0.0197112 15.862 0.0197112 15.8661 0.0190188 15.8703C0.000321892 15.943 -0.00314049 16.0178 0.00239932 16.0926C0.00447675 16.1133 0.00655418 16.1327 0.0100166 16.1535C0.0224811 16.2324 0.0446404 16.3107 0.0854965 16.3827C0.086189 16.3834 0.086189 16.3834 0.086189 16.3841C0.0868814 16.3848 0.0868815 16.3848 0.0868815 16.3855C0.0986535 16.4056 0.114581 16.4201 0.127738 16.4388C0.150589 16.47 0.171364 16.5039 0.19837 16.5309C0.224684 16.5572 0.255153 16.5766 0.28493 16.5988C0.305012 16.6126 0.321631 16.6292 0.341713 16.641C0.374259 16.6597 0.408883 16.6708 0.443507 16.6839C0.465666 16.6922 0.485748 16.704 0.5086 16.7102C0.560535 16.7241 0.613856 16.7296 0.667177 16.7317C0.674794 16.7317 0.681026 16.7345 0.687951 16.7345L17.3074 16.7345C17.5574 16.7345 17.7873 16.6001 17.9098 16.3827C18.0331 16.166 18.0296 15.8994 17.9015 15.6854Z" fill="#495057"/>
</svg>
