<svg width="18" height="18" viewBox="0 0 18 18" fill="none" xmlns="http://www.w3.org/2000/svg">
<path fill-rule="evenodd" clip-rule="evenodd" d="M15.75 15L2.25 15C1.0095 15 0 13.9905 0 12.75L0 5.25C0 4.0095 1.0095 3 2.25 3L15.75 3C16.9905 3 18 4.0095 18 5.25L18 12.75C18 13.9905 16.9905 15 15.75 15ZM2.25 13.5L15.75 13.5C16.164 13.5 16.5 13.164 16.5 12.75L16.5 8.25L1.5 8.25L1.5 12.75C1.5 13.164 1.836 13.5 2.25 13.5ZM16.5 5.25C16.5 4.836 16.164 4.5 15.75 4.5L2.25 4.5C1.836 4.5 1.5 4.836 1.5 5.25L1.5 6L16.5 6V5.25Z" fill="white"/>
<path d="M10.5 11.25L14.25 11.25" stroke="white" stroke-width="1.22325"/>
</svg>
