<svg width="18" height="18" viewBox="0 0 18 18" fill="none" xmlns="http://www.w3.org/2000/svg">
<path fill-rule="evenodd" clip-rule="evenodd" d="M7.57495 3.52502C5.29678 3.52502 3.44995 5.37185 3.44995 7.65002C3.44995 9.08829 4.18543 10.3551 5.30431 11.0945C5.95522 11.5246 6.7347 11.775 7.57495 11.775C7.91709 11.775 8.24851 11.7335 8.56487 11.6557C10.3653 11.2125 11.7 9.58618 11.7 7.65002C11.7 7.27229 11.6494 6.90756 11.5551 6.56168C11.0777 4.81103 9.47553 3.52502 7.57495 3.52502ZM1.94995 7.65002C1.94995 4.54342 4.46835 2.02502 7.57495 2.02502C10.0481 2.02502 12.1468 3.62047 12.9012 5.83711L15.3354 7.05421C15.5312 7.15212 15.6745 7.33072 15.7276 7.54313L16.4776 10.5431C16.5324 10.7622 16.4855 10.9944 16.35 11.175L14.1 14.175C13.9583 14.3639 13.736 14.475 13.5 14.475H11.0539C10.4589 15.7589 9.15923 16.65 7.64993 16.65C5.57887 16.65 3.89993 14.9711 3.89993 12.9C3.89993 12.5904 3.93761 12.2889 4.00876 12.0002C2.75293 10.9695 1.94995 9.40367 1.94995 7.65002ZM5.40074 12.8392C5.4002 12.8594 5.39993 12.8797 5.39993 12.9C5.39993 14.1427 6.40729 15.15 7.64993 15.15C8.33275 15.15 8.94532 14.8456 9.35824 14.3646C9.27848 14.3158 9.20756 14.2518 9.14997 14.175L8.42682 13.2108C8.14869 13.2531 7.86418 13.275 7.57495 13.275C6.80489 13.275 6.07003 13.1199 5.40074 12.8392ZM9.95473 12.748L10.125 12.975H13.125L14.9358 10.5606L14.356 8.24158L13.1999 7.66354C13.1946 9.91445 11.8678 11.8535 9.95473 12.748ZM7.49997 4.87503C7.77235 4.87503 8.02331 5.0227 8.15559 5.26079L10.0306 8.63579C10.1596 8.86809 10.1561 9.15134 10.0214 9.38037C9.88661 9.60941 9.64071 9.75003 9.37497 9.75003L5.62497 9.75003C5.35923 9.75003 5.11333 9.60941 4.97857 9.38037C4.8438 9.15134 4.8403 8.86809 4.96935 8.63579L6.84435 5.26079C6.97663 5.0227 7.22759 4.87503 7.49997 4.87503ZM6.89961 8.25003H8.10033L7.49997 7.16937L6.89961 8.25003Z" fill="white"/>
</svg>
