<svg width="18" height="18" viewBox="0 0 18 18" fill="none" xmlns="http://www.w3.org/2000/svg">
<path fill-rule="evenodd" clip-rule="evenodd" d="M15.3622 15.3645C13.6626 17.064 11.4022 18 8.99689 18C6.59233 18 4.33193 17.064 2.63154 15.3638C-0.877179 11.8545 -0.877179 6.14475 2.63154 2.63625C4.33193 0.936 6.59233 0 8.99689 0C11.4022 0 13.6626 0.936 15.3622 2.63625C17.0634 4.33575 18 6.59625 18 9C18 11.4037 17.0634 13.6643 15.3622 15.3645ZM14.3018 3.69675C12.8852 2.28 11.0014 1.5 8.99689 1.5C6.99309 1.5 5.1093 2.28 3.69268 3.69675C0.768121 6.621 0.768121 11.379 3.69268 14.3032C5.1093 15.72 6.99309 16.5 8.99689 16.5C11.0014 16.5 12.8852 15.72 14.3018 14.3032C15.7192 12.8872 16.4996 11.0033 16.4996 9C16.4996 6.99675 15.7192 5.1135 14.3018 3.69675ZM10.498 14.25H7.49725C7.08366 14.25 6.74705 13.914 6.74705 13.5C6.74705 13.086 7.08366 12.75 7.49725 12.75H8.24745V9.75H7.49725C7.08366 9.75 6.74705 9.414 6.74705 9C6.74705 8.586 7.08366 8.25 7.49725 8.25H8.99764C9.41199 8.25 9.74784 8.586 9.74784 9V12.75H10.498C10.9124 12.75 11.2482 13.086 11.2482 13.5C11.2482 13.914 10.9124 14.25 10.498 14.25ZM8.99764 6.75C8.17046 6.75 7.49725 6.0765 7.49725 5.24925C7.49725 4.42275 8.17046 3.75 8.99764 3.75C9.82557 3.75 10.498 4.42275 10.498 5.24925C10.498 6.0765 9.82557 6.75 8.99764 6.75Z" fill="#212529"/>
</svg>
