<svg width="24" height="24" viewBox="0 0 24 24" fill="none" xmlns="http://www.w3.org/2000/svg">
<path d="M12 0C5.4 0 0 5.4 0 12C0 18.6 5.4 24 12 24C18.6 24 24 18.6 24 12C24 5.4 18.6 0 12 0ZM21.7 14.4H16.6C16.6 14.3 16.7 14.1 16.7 14C16.9 12.5 16.8 11 16.6 9.7H20.9C21 9.7 21.1 9.7 21.2 9.7C21.4 9.7 21.6 9.7 21.6 9.7C21.8 10.4 21.9 11.2 21.9 12C22 12.8 21.9 13.7 21.7 14.4ZM9.2 14.4C9.2 14.2 9.1 14 9.1 13.8C8.9 12.3 9 11 9.2 9.7H11.8H14.7C14.9 11 15 12.3 14.8 13.8C14.8 14 14.7 14.2 14.7 14.4H9.2ZM14.2 16.4C13.6 18.4 12.8 19.9 11.9 21.2C11 20 10.2 18.4 9.6 16.4H14.2ZM2 12C2 11.2 2.1 10.4 2.3 9.7C2.4 9.7 2.5 9.7 2.6 9.7H7.2C7 11 6.9 12.5 7.1 14C7.1 14.1 7.1 14.3 7.2 14.4H2.3C2.1 13.7 2 12.8 2 12ZM9.6 7.7C10.2 5.6 11.1 4 11.9 2.8C12.7 4 13.6 5.6 14.2 7.7H11.8H9.6ZM21 7.7H16.2C15.6 5.4 14.7 3.6 13.8 2.2C17 2.8 19.7 4.9 21 7.7ZM9.9 2.2C9.1 3.6 8.1 5.4 7.6 7.7H3C4.3 4.9 6.9 2.9 9.9 2.2ZM3 16.4H7.5C8 18.5 8.9 20.3 9.8 21.8C6.9 21.1 4.4 19.1 3 16.4ZM13.9 21.8C14.8 20.4 15.7 18.6 16.2 16.4H21C19.6 19.2 17 21.2 13.9 21.8Z" fill="#495057"/>
</svg>
