<svg width="20" height="20" viewBox="0 0 20 20" fill="none" xmlns="http://www.w3.org/2000/svg">
<path fill-rule="evenodd" clip-rule="evenodd" d="M14.25 18L3.75 18C2.5095 18 1.5 16.991 1.5 15.75L1.5 8.25022C1.5 7.01007 2.5095 6.00102 3.75 6.00102H4.7685C4.3695 4.88398 4.4235 3.67479 4.926 2.59551C5.433 1.50868 6.333 0.683924 7.46025 0.273812C8.586 -0.137055 9.807 -0.0841858 10.8953 0.423356C11.9827 0.930142 12.807 1.82967 13.2172 2.95729L13.434 3.45274C13.5982 3.83264 13.4235 4.27372 13.044 4.43913C12.663 4.60453 12.222 4.42855 12.057 4.04865L11.8245 3.51165C11.535 2.71938 10.986 2.12045 10.2615 1.78284C9.537 1.44448 8.7255 1.40974 7.97325 1.68315C7.2225 1.9558 6.62325 2.50488 6.28575 3.22918C5.94825 3.95349 5.913 4.76616 6.186 5.5169L6.35925 6.00102L14.25 6.00102C15.4905 6.00102 16.5 7.01007 16.5 8.25022L16.5 15.75C16.5 16.991 15.4905 18 14.25 18ZM15 8.25022C15 7.83709 14.664 7.45416 14.25 7.45416L6.0885 7.45416C6.087 7.45492 6.08625 7.45567 6.08475 7.45643C6.00075 7.48664 5.916 7.50099 5.83125 7.50099C5.745 7.50099 5.6625 7.48286 5.58225 7.45416H3.75C3.336 7.45416 3 7.83709 3 8.25022L3 15.7501C3 16.1639 3.336 16.5 3.75 16.5L14.25 16.5C14.664 16.5 15 16.1639 15 15.7501L15 8.25022ZM9.75 11.7917L9.75 13.5001C9.75 13.9147 9.41475 14.2501 9 14.2501C8.58525 14.2501 8.25 13.9147 8.25 13.5001V11.7917C7.80375 11.5311 7.5 11.053 7.5 10.5002C7.5 9.67315 8.17275 9.00096 9 9.00096C9.8265 9.00096 10.5 9.67315 10.5 10.5002C10.5 11.053 10.1962 11.5311 9.75 11.7917Z" fill="#495057"/>
</svg>
