<svg width="18" height="18" viewBox="0 0 18 18" fill="none" xmlns="http://www.w3.org/2000/svg">
<path fill-rule="evenodd" clip-rule="evenodd" d="M10.204 16.5H13.5C13.9142 16.5 14.25 16.1642 14.25 15.75V13.8292C14.25 13.415 14.5858 13.0792 15 13.0792C15.8284 13.0792 16.5 12.4076 16.5 11.5792C16.5 10.7507 15.8284 10.0792 15 10.0792C14.5858 10.0792 14.25 9.74338 14.25 9.32917V4.5C14.25 4.08579 13.9142 3.75 13.5 3.75L10.5 3.75C10.0858 3.75 9.75 3.41421 9.75 3C9.75 2.17157 9.07843 1.5 8.25 1.5C7.42157 1.5 6.75 2.17157 6.75 3C6.75 3.41421 6.41421 3.75 6 3.75L2.25 3.75C1.83579 3.75 1.5 4.08579 1.5 4.5L1.5 6.84451C2.79392 7.17755 3.75 8.35212 3.75 9.75C3.75 11.1479 2.79392 12.3225 1.5 12.6555L1.5 15.75C1.5 16.1642 1.83579 16.5 2.25 16.5H4.32406C4.60202 15.1307 5.81267 14.1 7.26404 14.1C8.71542 14.1 9.92607 15.1307 10.204 16.5ZM15.75 15.75C15.75 16.9926 14.7426 18 13.5 18H9.50912C9.07553 18 8.73227 17.6334 8.76074 17.2007C8.76294 17.1674 8.76404 17.1338 8.76404 17.1C8.76404 16.2716 8.09247 15.6 7.26404 15.6C6.43562 15.6 5.76404 16.2716 5.76404 17.1C5.76404 17.1338 5.76515 17.1674 5.76735 17.2007C5.79582 17.6334 5.45256 18 5.01897 18H2.25C1.00736 18 0 16.9926 0 15.75L0 12C0 11.5858 0.335786 11.25 0.75 11.25C1.57843 11.25 2.25 10.5784 2.25 9.75C2.25 8.92157 1.57843 8.25 0.75 8.25C0.335786 8.25 0 7.91421 0 7.5L0 4.5C0 3.25736 1.00736 2.25 2.25 2.25L5.34451 2.25C5.67755 0.95608 6.85212 0 8.25 0C9.64788 0 10.8225 0.95608 11.1555 2.25L13.5 2.25C14.7426 2.25 15.75 3.25736 15.75 4.5V8.67368C17.0439 9.00671 18 10.1813 18 11.5792C18 12.977 17.0439 14.1516 15.75 14.4847V15.75Z" fill="#495057"/>
</svg>
