<svg width="20" height="20" viewBox="0 0 20 20" fill="none" xmlns="http://www.w3.org/2000/svg">
<path fill-rule="evenodd" clip-rule="evenodd" d="M17.9442 16.6667H17.5V17.5C17.5 17.96 17.1275 18.3333 16.6667 18.3333H15C14.5392 18.3333 14.1667 17.96 14.1667 17.5V16.6667L5.83333 16.6667L5.83333 17.5C5.83333 17.96 5.46083 18.3333 5 18.3333H3.33333C2.8725 18.3333 2.5 17.96 2.5 17.5V16.6667H2.05583C0.921667 16.6667 0 15.7492 0 14.6217L0 3.71167C0 2.58417 0.921667 1.66667 2.05583 1.66667L17.9442 1.66667C19.0783 1.66667 20 2.58417 20 3.71167L20 14.6217C20 15.7492 19.0783 16.6667 17.9442 16.6667ZM18.3333 3.71167C18.3333 3.50667 18.155 3.33334 17.9442 3.33334L2.05583 3.33334C1.845 3.33334 1.66667 3.50667 1.66667 3.71167L1.66667 14.6217C1.66667 14.8267 1.845 15 2.05583 15L17.9442 15C18.155 15 18.3333 14.8267 18.3333 14.6217L18.3333 3.71167ZM14.1667 12.5C12.3283 12.5 10.8333 11.005 10.8333 9.16667C10.8333 7.32917 12.3283 5.83334 14.1667 5.83334C16.005 5.83334 17.5 7.32917 17.5 9.16667C17.5 11.005 16.005 12.5 14.1667 12.5ZM12.5 9.16667C12.5 10.0858 13.2483 10.8333 14.1667 10.8333C15.0858 10.8333 15.8333 10.0858 15.8333 9.16667C15.8333 9.01917 15.8075 8.8775 15.7717 8.74084L14.7558 9.75584C14.5933 9.91834 14.38 10 14.1667 10C13.9533 10 13.74 9.91834 13.5775 9.75584C13.2517 9.43084 13.2517 8.9025 13.5775 8.57751L14.5933 7.5625C14.4567 7.52584 14.315 7.5 14.1667 7.5C13.2483 7.5 12.5 8.2475 12.5 9.16667ZM7.5 10.8333H9.16667V12.5H7.5V10.8333ZM7.5 8.33334H9.16667V10H7.5L7.5 8.33334ZM7.5 5.83334H9.16667L9.16667 7.5H7.5V5.83334ZM5 10.8333H6.66667V12.5H5V10.8333ZM5 8.33334H6.66667L6.66667 10H5L5 8.33334ZM5 5.83334H6.66667V7.5H5V5.83334ZM2.5 10.8333H4.16667V12.5H2.5L2.5 10.8333ZM2.5 8.33334H4.16667L4.16667 10H2.5L2.5 8.33334ZM2.5 5.83334H4.16667V7.5H2.5L2.5 5.83334Z" fill="#495057"/>
</svg>
