<svg width="18" height="18" viewBox="0 0 18 18" fill="none" xmlns="http://www.w3.org/2000/svg">
<path fill-rule="evenodd" clip-rule="evenodd" d="M9 15.922C8.92512 15.922 8.84978 15.9206 8.77393 15.918L7.74613 17.4838C7.48122 17.8875 6.97991 18.0795 6.51425 17.9453C5.10071 17.5432 3.8144 16.8048 2.76038 15.7985C2.40726 15.4602 2.32363 14.9292 2.54503 14.4969L3.39934 12.8295C3.32184 12.7062 3.24863 12.5807 3.17984 12.4532L1.2917 12.3531C0.80911 12.33 0.391041 11.9967 0.270811 11.5243C0.0922401 10.816 0 10.0951 0 9.36881C0 8.64251 0.0922401 7.92163 0.271209 7.21173C0.391041 6.74096 0.80911 6.4076 1.28807 6.3847L3.17984 6.28444C3.24863 6.15688 3.32184 6.0314 3.39934 5.90812L2.54499 4.24062C2.32363 3.80844 2.40726 3.27738 2.7612 2.93836C3.8144 1.93285 5.10071 1.19446 6.51186 0.793031C6.97991 0.658097 7.48122 0.850163 7.74609 1.25378L8.77393 2.81963C8.84978 2.81699 8.92512 2.81565 9 2.81565C9.07488 2.81565 9.15022 2.81699 9.22607 2.81963L10.2539 1.25385C10.5188 0.850135 11.0198 0.658407 11.4866 0.792376C12.8995 1.19455 14.1858 1.93301 15.2396 2.93915C15.5923 3.277 15.6752 3.8067 15.455 4.24069L14.6006 5.90827C14.6778 6.0313 14.7509 6.15672 14.8198 6.28443L16.7084 6.38453C17.1903 6.40767 17.609 6.74105 17.7292 7.2133C17.9078 7.92163 18 8.64251 18 9.36881C18 10.0951 17.9078 10.816 17.7288 11.5259C17.609 11.9966 17.1903 12.33 16.7119 12.3529L14.8198 12.4532C14.7509 12.5809 14.6778 12.7063 14.6006 12.8293L15.4563 14.4994C15.6752 14.9309 15.5923 15.4606 15.2388 15.7993C14.1858 16.8046 12.8995 17.5431 11.4881 17.9448C11.0198 18.0792 10.5188 17.8875 10.2539 17.4838L9.22607 15.918C9.15022 15.9206 9.07488 15.922 9 15.922ZM6.68827 16.5248L7.82004 14.8007C7.96343 14.5822 8.21585 14.4609 8.476 14.4855C8.65668 14.5026 8.83117 14.5114 9.00001 14.5114C9.16884 14.5114 9.34333 14.5026 9.52401 14.4855C9.78416 14.4609 10.0366 14.5822 10.18 14.8007L11.3119 16.5251C12.3468 16.1978 13.2949 15.6548 14.0951 14.9361L13.1554 13.1021C13.0344 12.8659 13.0562 12.5819 13.2118 12.3669C13.4145 12.0869 13.5879 11.79 13.7303 11.4779C13.8393 11.2388 14.0722 11.0803 14.3346 11.0664L16.4142 10.9561C16.5301 10.4315 16.5894 9.90131 16.5894 9.36881C16.5894 8.83596 16.53 8.30539 16.4143 7.78149L14.3346 7.67127C14.0722 7.65737 13.8393 7.49878 13.7303 7.25975C13.5879 6.94763 13.4145 6.65069 13.2118 6.37071C13.0562 6.15577 13.0344 5.87168 13.1554 5.63551L14.0951 3.80151C13.2948 3.08286 12.3472 2.54014 11.3119 2.2126L10.18 3.93696C10.0366 4.15541 9.78416 4.27668 9.52401 4.25209C9.34333 4.23502 9.16884 4.22624 9.00001 4.22624C8.83117 4.22624 8.65668 4.23502 8.476 4.25209C8.21585 4.27668 7.96343 4.15541 7.82004 3.93696L6.68824 2.21274C5.65305 2.53997 4.70505 3.08288 3.90495 3.80148L4.84461 5.63551C4.96561 5.87168 4.94382 6.15577 4.78821 6.37071C4.58409 6.65265 4.41071 6.94934 4.27025 7.25862C4.16142 7.49824 3.92823 7.65734 3.66541 7.67127L1.58579 7.78148C1.46995 8.30609 1.41059 8.83632 1.41059 9.36881C1.41059 9.90166 1.47003 10.4322 1.58576 10.9561L3.66541 11.0664C3.92823 11.0803 4.16142 11.2394 4.27025 11.479C4.41071 11.7883 4.58409 12.085 4.78821 12.3669C4.94382 12.5819 4.96561 12.8659 4.84461 13.1021L3.90496 14.9361C4.70506 15.6546 5.65228 16.1971 6.68827 16.5248ZM5.7205 9.36881C5.7205 7.55756 7.18875 6.0893 9.00001 6.0893C10.8113 6.0893 12.2795 7.55756 12.2795 9.36881C12.2795 11.1801 10.8113 12.6483 9.00001 12.6483C7.18875 12.6483 5.7205 11.1801 5.7205 9.36881ZM7.13109 9.36882C7.13109 10.401 7.96781 11.2377 9.00002 11.2377C10.0322 11.2377 10.869 10.401 10.869 9.36882C10.869 8.33661 10.0322 7.49989 9.00002 7.49989C7.96781 7.49989 7.13109 8.33661 7.13109 9.36882Z" fill="#212529"/>
</svg>
