<?xml version="1.0" encoding="UTF-8"?>
<!--Generator: Apple Native CoreSVG 175-->
<!DOCTYPE svg
PUBLIC "-//W3C//DTD SVG 1.1//EN"
       "http://www.w3.org/Graphics/SVG/1.1/DTD/svg11.dtd">
<svg version="1.1" xmlns="http://www.w3.org/2000/svg" xmlns:xlink="http://www.w3.org/1999/xlink" width="3300" height="2200">
 <!--glyph: "", point size: 100.0, font version: "17.3d3e1", template writer version: "65.1"-->
 <g id="Notes">
  <rect height="2200" id="artboard" style="fill:white;opacity:1" width="3300" x="0" y="0"/>
  <line style="fill:none;stroke:black;opacity:1;stroke-width:0.5;" x1="263" x2="3036" y1="292" y2="292"/>
  <text style="stroke:none;fill:black;font-family:sans-serif;font-size:13;font-weight:bold;" transform="matrix(1 0 0 1 263 322)">Weight/Scale Variations</text>
  <text style="stroke:none;fill:black;font-family:sans-serif;font-size:13;text-anchor:middle;" transform="matrix(1 0 0 1 559.711 322)">Ultralight</text>
  <text style="stroke:none;fill:black;font-family:sans-serif;font-size:13;text-anchor:middle;" transform="matrix(1 0 0 1 856.422 322)">Thin</text>
  <text style="stroke:none;fill:black;font-family:sans-serif;font-size:13;text-anchor:middle;" transform="matrix(1 0 0 1 1153.13 322)">Light</text>
  <text style="stroke:none;fill:black;font-family:sans-serif;font-size:13;text-anchor:middle;" transform="matrix(1 0 0 1 1449.84 322)">Regular</text>
  <text style="stroke:none;fill:black;font-family:sans-serif;font-size:13;text-anchor:middle;" transform="matrix(1 0 0 1 1746.56 322)">Medium</text>
  <text style="stroke:none;fill:black;font-family:sans-serif;font-size:13;text-anchor:middle;" transform="matrix(1 0 0 1 2043.27 322)">Semibold</text>
  <text style="stroke:none;fill:black;font-family:sans-serif;font-size:13;text-anchor:middle;" transform="matrix(1 0 0 1 2339.98 322)">Bold</text>
  <text style="stroke:none;fill:black;font-family:sans-serif;font-size:13;text-anchor:middle;" transform="matrix(1 0 0 1 2636.69 322)">Heavy</text>
  <text style="stroke:none;fill:black;font-family:sans-serif;font-size:13;text-anchor:middle;" transform="matrix(1 0 0 1 2933.4 322)">Black</text>
  <line style="fill:none;stroke:black;opacity:1;stroke-width:0.5;" x1="263" x2="3036" y1="1903" y2="1903"/>
  <g transform="matrix(1 0 0 1 263 1933)">
   <path d="M9.24805 0.830078Q10.8691 0.830078 12.2949 0.214844Q13.7207-0.400391 14.8096-1.49414Q15.8984-2.58789 16.5186-4.01367Q17.1387-5.43945 17.1387-7.05078Q17.1387-8.66211 16.5186-10.0879Q15.8984-11.5137 14.8047-12.6074Q13.7109-13.7012 12.2852-14.3164Q10.8594-14.9316 9.23828-14.9316Q7.62695-14.9316 6.20117-14.3164Q4.77539-13.7012 3.69141-12.6074Q2.60742-11.5137 1.9873-10.0879Q1.36719-8.66211 1.36719-7.05078Q1.36719-5.43945 1.9873-4.01367Q2.60742-2.58789 3.69629-1.49414Q4.78516-0.400391 6.21094 0.214844Q7.63672 0.830078 9.24805 0.830078ZM9.24805-0.654297Q7.91992-0.654297 6.7627-1.14746Q5.60547-1.64062 4.73145-2.51953Q3.85742-3.39844 3.36426-4.56055Q2.87109-5.72266 2.87109-7.05078Q2.87109-8.37891 3.35938-9.54102Q3.84766-10.7031 4.72168-11.582Q5.5957-12.4609 6.75293-12.9541Q7.91016-13.4473 9.23828-13.4473Q10.5762-13.4473 11.7334-12.9541Q12.8906-12.4609 13.7695-11.582Q14.6484-10.7031 15.1465-9.54102Q15.6445-8.37891 15.6445-7.05078Q15.6445-5.72266 15.1514-4.56055Q14.6582-3.39844 13.7842-2.51953Q12.9102-1.64062 11.748-1.14746Q10.5859-0.654297 9.24805-0.654297ZM5.6543-7.05078Q5.6543-6.72852 5.85938-6.52832Q6.06445-6.32812 6.40625-6.32812L8.51562-6.32812L8.51562-4.20898Q8.51562-3.88672 8.71094-3.67676Q8.90625-3.4668 9.23828-3.4668Q9.56055-3.4668 9.77051-3.67676Q9.98047-3.88672 9.98047-4.20898L9.98047-6.32812L12.0898-6.32812Q12.4219-6.32812 12.627-6.52832Q12.832-6.72852 12.832-7.05078Q12.832-7.38281 12.627-7.58789Q12.4219-7.79297 12.0898-7.79297L9.98047-7.79297L9.98047-9.90234Q9.98047-10.2344 9.77051-10.4443Q9.56055-10.6543 9.23828-10.6543Q8.90625-10.6543 8.71094-10.4443Q8.51562-10.2344 8.51562-9.90234L8.51562-7.79297L6.40625-7.79297Q6.06445-7.79297 5.85938-7.58789Q5.6543-7.38281 5.6543-7.05078Z"/>
  </g>
  <g transform="matrix(1 0 0 1 281.867 1933)">
   <path d="M11.709 2.91016Q13.75 2.91016 15.5518 2.12891Q17.3535 1.34766 18.7305-0.0292969Q20.1074-1.40625 20.8887-3.20801Q21.6699-5.00977 21.6699-7.05078Q21.6699-9.0918 20.8887-10.8936Q20.1074-12.6953 18.7305-14.0723Q17.3535-15.4492 15.5469-16.2305Q13.7402-17.0117 11.6992-17.0117Q9.6582-17.0117 7.85645-16.2305Q6.05469-15.4492 4.68262-14.0723Q3.31055-12.6953 2.5293-10.8936Q1.74805-9.0918 1.74805-7.05078Q1.74805-5.00977 2.5293-3.20801Q3.31055-1.40625 4.6875-0.0292969Q6.06445 1.34766 7.86621 2.12891Q9.66797 2.91016 11.709 2.91016ZM11.709 1.25Q9.98047 1.25 8.47656 0.605469Q6.97266-0.0390625 5.83496-1.17676Q4.69727-2.31445 4.05762-3.81836Q3.41797-5.32227 3.41797-7.05078Q3.41797-8.7793 4.05762-10.2832Q4.69727-11.7871 5.83008-12.9297Q6.96289-14.0723 8.4668-14.7119Q9.9707-15.3516 11.6992-15.3516Q13.4277-15.3516 14.9316-14.7119Q16.4355-14.0723 17.5781-12.9297Q18.7207-11.7871 19.3652-10.2832Q20.0098-8.7793 20.0098-7.05078Q20.0098-5.32227 19.3701-3.81836Q18.7305-2.31445 17.5928-1.17676Q16.4551-0.0390625 14.9463 0.605469Q13.4375 1.25 11.709 1.25ZM7.17773-7.05078Q7.17773-6.69922 7.41211-6.47461Q7.64648-6.25 8.01758-6.25L10.8887-6.25L10.8887-3.36914Q10.8887-2.99805 11.1133-2.76855Q11.3379-2.53906 11.6895-2.53906Q12.0605-2.53906 12.29-2.76855Q12.5195-2.99805 12.5195-3.36914L12.5195-6.25L15.4004-6.25Q15.7715-6.25 16.001-6.47461Q16.2305-6.69922 16.2305-7.05078Q16.2305-7.42188 16.001-7.65137Q15.7715-7.88086 15.4004-7.88086L12.5195-7.88086L12.5195-10.752Q12.5195-11.1328 12.29-11.3623Q12.0605-11.5918 11.6895-11.5918Q11.3379-11.5918 11.1133-11.3574Q10.8887-11.123 10.8887-10.752L10.8887-7.88086L8.01758-7.88086Q7.63672-7.88086 7.40723-7.65137Q7.17773-7.42188 7.17773-7.05078Z"/>
  </g>
  <g transform="matrix(1 0 0 1 305.646 1933)">
   <path d="M14.9707 5.66406Q17.0605 5.66406 18.96 5.01465Q20.8594 4.36523 22.4512 3.19336Q24.043 2.02148 25.2197 0.429688Q26.3965-1.16211 27.0459-3.06641Q27.6953-4.9707 27.6953-7.05078Q27.6953-9.14062 27.0459-11.04Q26.3965-12.9395 25.2197-14.5312Q24.043-16.123 22.4512-17.2998Q20.8594-18.4766 18.9551-19.126Q17.0508-19.7754 14.9609-19.7754Q12.8711-19.7754 10.9717-19.126Q9.07227-18.4766 7.48535-17.2998Q5.89844-16.123 4.72168-14.5312Q3.54492-12.9395 2.90039-11.04Q2.25586-9.14062 2.25586-7.05078Q2.25586-4.9707 2.90527-3.06641Q3.55469-1.16211 4.72656 0.429688Q5.89844 2.02148 7.49023 3.19336Q9.08203 4.36523 10.9814 5.01465Q12.8809 5.66406 14.9707 5.66406ZM14.9707 3.84766Q13.1641 3.84766 11.5283 3.2959Q9.89258 2.74414 8.53516 1.74805Q7.17773 0.751953 6.17676-0.610352Q5.17578-1.97266 4.62891-3.6084Q4.08203-5.24414 4.08203-7.05078Q4.08203-8.86719 4.62891-10.5029Q5.17578-12.1387 6.17188-13.501Q7.16797-14.8633 8.52539-15.8594Q9.88281-16.8555 11.5186-17.4023Q13.1543-17.9492 14.9609-17.9492Q16.7773-17.9492 18.4131-17.4023Q20.0488-16.8555 21.4111-15.8594Q22.7734-14.8633 23.7695-13.501Q24.7656-12.1387 25.3174-10.5029Q25.8691-8.86719 25.8691-7.05078Q25.8789-5.24414 25.332-3.6084Q24.7852-1.97266 23.7842-0.610352Q22.7832 0.751953 21.4209 1.74805Q20.0586 2.74414 18.4229 3.2959Q16.7871 3.84766 14.9707 3.84766ZM9.19922-7.05078Q9.19922-6.66992 9.45801-6.4209Q9.7168-6.17188 10.1172-6.17188L14.0625-6.17188L14.0625-2.2168Q14.0625-1.81641 14.3115-1.55762Q14.5605-1.29883 14.9512-1.29883Q15.3516-1.29883 15.6104-1.55273Q15.8691-1.80664 15.8691-2.2168L15.8691-6.17188L19.8242-6.17188Q20.2246-6.17188 20.4785-6.4209Q20.7324-6.66992 20.7324-7.05078Q20.7324-7.46094 20.4785-7.71484Q20.2246-7.96875 19.8242-7.96875L15.8691-7.96875L15.8691-11.9141Q15.8691-12.3242 15.6104-12.583Q15.3516-12.8418 14.9512-12.8418Q14.5605-12.8418 14.3115-12.583Q14.0625-12.3242 14.0625-11.9141L14.0625-7.96875L10.1172-7.96875Q9.70703-7.96875 9.45312-7.71484Q9.19922-7.46094 9.19922-7.05078Z"/>
  </g>
  <text style="stroke:none;fill:black;font-family:sans-serif;font-size:13;font-weight:bold;" transform="matrix(1 0 0 1 263 1953)">Design Variations</text>
  <text style="stroke:none;fill:black;font-family:sans-serif;font-size:13;" transform="matrix(1 0 0 1 263 1971)">Symbols are supported in up to nine weights and three scales.</text>
  <text style="stroke:none;fill:black;font-family:sans-serif;font-size:13;" transform="matrix(1 0 0 1 263 1989)">For optimal layout with text and other symbols, vertically align</text>
  <text style="stroke:none;fill:black;font-family:sans-serif;font-size:13;" transform="matrix(1 0 0 1 263 2007)">symbols with the adjacent text.</text>
  <line style="fill:none;stroke:#00AEEF;stroke-width:0.5;opacity:1.0;" x1="776" x2="776" y1="1919" y2="1933"/>
  <g transform="matrix(1 0 0 1 776 1933)">
   <path d="M3.31055 0.15625Q3.70117 0.15625 3.91602-0.00976562Q4.13086-0.175781 4.26758-0.585938L5.52734-4.0332L11.2891-4.0332L12.5488-0.585938Q12.6855-0.175781 12.9004-0.00976562Q13.1152 0.15625 13.4961 0.15625Q13.8867 0.15625 14.1162-0.0585938Q14.3457-0.273438 14.3457-0.644531Q14.3457-0.869141 14.2383-1.17188L9.6582-13.3691Q9.48242-13.8184 9.17969-14.043Q8.87695-14.2676 8.4082-14.2676Q7.5-14.2676 7.17773-13.3789L2.59766-1.16211Q2.49023-0.859375 2.49023-0.634766Q2.49023-0.263672 2.70996-0.0537109Q2.92969 0.15625 3.31055 0.15625ZM6.00586-5.51758L8.37891-12.0898L8.42773-12.0898L10.8008-5.51758Z"/>
  </g>
  <line style="fill:none;stroke:#00AEEF;stroke-width:0.5;opacity:1.0;" x1="793.197" x2="793.197" y1="1919" y2="1933"/>
  <text style="stroke:none;fill:black;font-family:sans-serif;font-size:13;font-weight:bold;" transform="matrix(1 0 0 1 776 1953)">Margins</text>
  <text style="stroke:none;fill:black;font-family:sans-serif;font-size:13;" transform="matrix(1 0 0 1 776 1971)">Leading and trailing margins on the left and right side of each symbol</text>
  <text style="stroke:none;fill:black;font-family:sans-serif;font-size:13;" transform="matrix(1 0 0 1 776 1989)">can be adjusted by modifying the x-location of the margin guidelines.</text>
  <text style="stroke:none;fill:black;font-family:sans-serif;font-size:13;" transform="matrix(1 0 0 1 776 2007)">Modifications are automatically applied proportionally to all</text>
  <text style="stroke:none;fill:black;font-family:sans-serif;font-size:13;" transform="matrix(1 0 0 1 776 2025)">scales and weights.</text>
  <g transform="matrix(1 0 0 1 1289 1933)">
   <path d="M2.8418 1.86523L4.54102 3.57422Q5.18555 4.22852 5.90332 4.17969Q6.62109 4.13086 7.31445 3.35938L18.0078-8.42773L17.041-9.4043L6.42578 2.27539Q6.16211 2.57812 5.89355 2.61719Q5.625 2.65625 5.27344 2.30469L4.10156 1.14258Q3.75 0.791016 3.79395 0.522461Q3.83789 0.253906 4.14062-0.0195312L15.6152-10.8203L14.6387-11.7871L3.04688-0.898438Q2.30469-0.214844 2.25098 0.498047Q2.19727 1.21094 2.8418 1.86523ZM9.25781-16.3281Q8.94531-16.0254 8.90625-15.6348Q8.86719-15.2441 9.04297-14.9512Q9.21875-14.6777 9.55566-14.541Q9.89258-14.4043 10.3809-14.5215Q11.4746-14.7754 12.5977-14.7314Q13.7207-14.6875 14.7949-13.9844L14.209-12.5293Q13.9551-11.9043 14.0674-11.4404Q14.1797-10.9766 14.5801-10.5664L16.875-8.25195Q17.2363-7.88086 17.5781-7.82227Q17.9199-7.76367 18.3398-7.8418L19.4043-8.03711L20.0684-7.36328L20.0293-6.80664Q20-6.43555 20.1221-6.12305Q20.2441-5.81055 20.6055-5.44922L21.3672-4.70703Q21.7285-4.3457 22.1533-4.33105Q22.5781-4.31641 22.9297-4.66797L25.8398-7.58789Q26.1914-7.93945 26.1816-8.35449Q26.1719-8.76953 25.8105-9.13086L25.0391-9.89258Q24.6875-10.2539 24.3799-10.3857Q24.0723-10.5176 23.7109-10.4883L23.1348-10.4395L22.4902-11.0742L22.7344-12.1973Q22.832-12.6172 22.6953-12.9834Q22.5586-13.3496 22.1191-13.7891L19.9219-15.9766Q18.6719-17.2168 17.2607-17.8369Q15.8496-18.457 14.4189-18.4814Q12.9883-18.5059 11.665-17.959Q10.3418-17.4121 9.25781-16.3281ZM10.752-15.957Q11.6602-16.6211 12.7002-16.9043Q13.7402-17.1875 14.8047-17.085Q15.8691-16.9824 16.8701-16.5137Q17.8711-16.0449 18.7012-15.2051L21.1328-12.793Q21.3086-12.6172 21.3525-12.4512Q21.3965-12.2852 21.3379-12.0312L21.0156-10.5469L22.5195-9.0625L23.5059-9.12109Q23.6914-9.13086 23.7891-9.09668Q23.8867-9.0625 24.0332-8.91602L24.6094-8.33984L22.168-5.89844L21.5918-6.47461Q21.4453-6.62109 21.4062-6.71875Q21.3672-6.81641 21.377-7.01172L21.4453-7.98828L19.9512-9.47266L18.4277-9.21875Q18.1836-9.16992 18.042-9.2041Q17.9004-9.23828 17.7148-9.41406L15.7129-11.416Q15.5176-11.5918 15.4932-11.7529Q15.4688-11.9141 15.5859-12.1875L16.4648-14.2773Q15.293-15.3711 13.8281-15.791Q12.3633-16.2109 10.8398-15.7617Q10.7227-15.7324 10.6885-15.8057Q10.6543-15.8789 10.752-15.957Z"/>
  </g>
  <text style="stroke:none;fill:black;font-family:sans-serif;font-size:13;font-weight:bold;" transform="matrix(1 0 0 1 1289 1953)">Exporting</text>
  <text style="stroke:none;fill:black;font-family:sans-serif;font-size:13;" transform="matrix(1 0 0 1 1289 1971)">Symbols should be outlined when exporting to ensure the</text>
  <text style="stroke:none;fill:black;font-family:sans-serif;font-size:13;" transform="matrix(1 0 0 1 1289 1989)">design is preserved when submitting to Xcode.</text>
  <text id="template-version" style="stroke:none;fill:black;font-family:sans-serif;font-size:13;text-anchor:end;" transform="matrix(1 0 0 1 3036 1933)">Template v.2.0</text>
  <text style="stroke:none;fill:black;font-family:sans-serif;font-size:13;text-anchor:end;" transform="matrix(1 0 0 1 3036 1951)">Requires Xcode 12 or greater</text>
  <text id="descriptive-name" style="stroke:none;fill:black;font-family:sans-serif;font-size:13;text-anchor:end;" transform="matrix(1 0 0 1 3036 1969)">Generated from brave.book</text>
  <text style="stroke:none;fill:black;font-family:sans-serif;font-size:13;text-anchor:end;" transform="matrix(1 0 0 1 3036 1987)">Typeset at 100 points</text>
  <text style="stroke:none;fill:black;font-family:sans-serif;font-size:13;" transform="matrix(1 0 0 1 263 726)">Small</text>
  <text style="stroke:none;fill:black;font-family:sans-serif;font-size:13;" transform="matrix(1 0 0 1 263 1156)">Medium</text>
  <text style="stroke:none;fill:black;font-family:sans-serif;font-size:13;" transform="matrix(1 0 0 1 263 1586)">Large</text>
 </g>
 <g id="Guides">
  <g id="H-reference" style="fill:#27AAE1;stroke:none;" transform="matrix(1 0 0 1 339 696)">
   <path d="M0.993347 0L3.6377 0L29.3282-67.1326L30.0301-67.1326L30.0301-70.459L28.1227-70.459ZM11.6882-24.4797L46.9818-24.4797L46.2311-26.7288L12.4382-26.7288ZM55.1193 0L57.7637 0L30.6381-70.459L29.4327-70.459L29.4327-67.1326Z"/>
  </g>
  <line id="Baseline-S" style="fill:none;stroke:#27AAE1;opacity:1;stroke-width:0.5;" x1="263" x2="3036" y1="696" y2="696"/>
  <line id="Capline-S" style="fill:none;stroke:#27AAE1;opacity:1;stroke-width:0.5;" x1="263" x2="3036" y1="625.541" y2="625.541"/>
  <g id="H-reference" style="fill:#27AAE1;stroke:none;" transform="matrix(1 0 0 1 339 1126)">
   <path d="M0.993347 0L3.6377 0L29.3282-67.1326L30.0301-67.1326L30.0301-70.459L28.1227-70.459ZM11.6882-24.4797L46.9818-24.4797L46.2311-26.7288L12.4382-26.7288ZM55.1193 0L57.7637 0L30.6381-70.459L29.4327-70.459L29.4327-67.1326Z"/>
  </g>
  <line id="Baseline-M" style="fill:none;stroke:#27AAE1;opacity:1;stroke-width:0.5;" x1="263" x2="3036" y1="1126" y2="1126"/>
  <line id="Capline-M" style="fill:none;stroke:#27AAE1;opacity:1;stroke-width:0.5;" x1="263" x2="3036" y1="1055.54" y2="1055.54"/>
  <g id="H-reference" style="fill:#27AAE1;stroke:none;" transform="matrix(1 0 0 1 339 1556)">
   <path d="M0.993347 0L3.6377 0L29.3282-67.1326L30.0301-67.1326L30.0301-70.459L28.1227-70.459ZM11.6882-24.4797L46.9818-24.4797L46.2311-26.7288L12.4382-26.7288ZM55.1193 0L57.7637 0L30.6381-70.459L29.4327-70.459L29.4327-67.1326Z"/>
  </g>
  <line id="Baseline-L" style="fill:none;stroke:#27AAE1;opacity:1;stroke-width:0.5;" x1="263" x2="3036" y1="1556" y2="1556"/>
  <line id="Capline-L" style="fill:none;stroke:#27AAE1;opacity:1;stroke-width:0.5;" x1="263" x2="3036" y1="1485.54" y2="1485.54"/>
  <line id="left-margin" style="fill:none;stroke:#00AEEF;stroke-width:0.5;opacity:1.0;" x1="1383.19" x2="1383.19" y1="1030.78" y2="1150.12"/>
  <line id="right-margin" style="fill:none;stroke:#00AEEF;stroke-width:0.5;opacity:1.0;" x1="1516.5" x2="1516.5" y1="1030.78" y2="1150.12"/>
 </g>
 <g id="Symbols">
  <g id="Regular-L" transform="matrix(1 0 0 1 1367.46 1556)">
   <path d="M49.4109-90.4594C58.7833-91.0255 69.5694-87.0906 82.0318-78.6004L82.0318-78.6004L82.3955-78.3526L83.5011-79.101C94.3511-86.3668 103.913-90.1255 112.458-90.4457L112.458-90.4457L114.009-90.4712L115.344-90.4198L116.009-90.374C125.572-89.6434 136.449-85.7273 148.793-78.588C150.188-77.776 151.123-76.3539 151.318-74.7515L151.318-74.7515L151.354-74.1206L151.87 12.8803L151.866 13.1196C151.711 17.1549 147.105 19.4823 143.75 17.118C134.021 10.2737 125.285 6.46018 117.68 5.7182C112.313 5.20106 104.884 7.24077 95.6675 11.7641L95.6675 11.7641L94.3699 12.4114C93.4971 12.8537 92.609 13.3174 91.7057 13.8025L91.7057 13.8025L90.3394 14.5462C90.1099 14.6729 89.8793 14.8008 89.6479 14.9301L89.6479 14.9301L88.2478 15.7219L86.8255 16.5457L85.8105 17.1574L85.5339 17.3846C84.6968 18.0339 83.795 18.3897 82.8465 18.449L82.8465 18.449L82.546 18.4773C81.1509 18.5662 79.8618 18.0566 78.8353 17.0756L78.8353 17.0756L78.7183 16.9869L77.9956 16.561C77.7557 16.4204 77.5167 16.2811 77.2786 16.1431L77.2786 16.1431L75.8614 15.3315C63.4426 8.3041 53.6729 5.04058 47.0602 5.67936C39.4501 6.42188 30.7123 10.2393 20.9898 17.0922C17.7652 19.3632 13.2988 17.2956 12.8924 13.4293L12.8924 13.4293L12.8696 12.8123L13.3871-74.1928L13.3969-74.4793C13.5027-76.1903 14.4551-77.7427 15.9491-78.6152C28.571-85.928 39.6677-89.8623 49.4109-90.4594ZM113.763-80.1682L113.286-80.1682C107.11-80.092 99.5284-77.1885 90.7184-71.5082L90.7184-71.5082L89.0068-70.38L87.5662-69.4088L87.527-33.5046L87.5669 4.31812L89.3868 3.38135L90.1939 2.97292C100.374-2.13278 108.908-4.66488 115.989-4.66488L115.989-4.66488L117.445-4.62633L118.696-4.53723L119.439-4.45708C125.151-3.78851 131.16-1.87463 137.465 1.29023L137.465 1.29023L139.459 2.33246L141.497 3.44859L141.062-71.1056L139.485-71.9599L138.652-72.3978C130.909-76.4301 123.948-78.9073 117.892-79.7998L117.892-79.7998L116.368-79.9954L114.869-80.1274L113.763-80.1682ZM51.151-80.2071L50.0457-80.1682L49.4106-80.1237C43.0258-79.6162 35.6263-77.2488 27.2755-73.0417L27.2755-73.0417L25.2664-72.0047L23.678-71.128L23.2296 3.42799L25.2939 2.28647L26.1798 1.81689C31.7777-1.10568 37.132-3.05053 42.253-4.01684L42.253-4.01684L44.2842-4.36388L46.0752-4.57905L46.5876-4.62331C53.7999-5.17525 62.6361-2.87775 73.2976 2.31486L73.2976 2.31486L75.3596 3.34599L77.1594 4.28638L77.2126-33.4772L77.1604-69.4279L75.9412-70.2797L75.2531-70.7414C66.339-76.6717 58.6296-79.8284 52.3142-80.1677L52.3142-80.1677L51.151-80.2071Z"/>
  </g>
  <g id="Regular-M" transform="matrix(1 0 0 1 1383.19 1126)">
   <path d="M41.1406-78.2654C48.3918-78.7034 56.7367-75.6593 66.3785-69.0913L66.3785-69.0913L66.6599-68.8996L67.5152-69.4786C75.9096-75.0994 83.3075-78.0072 89.9187-78.2548L89.9187-78.2548L91.1183-78.2746L92.1511-78.2348L92.6657-78.1994C100.064-77.6342 108.479-74.6047 118.03-69.0816C119.109-68.4535 119.832-67.3533 119.984-66.1138L119.984-66.1138L120.011-65.6257L120.41 1.67852L120.407 1.86366C120.288 4.98541 116.724 6.7859 114.128 4.95684C106.601-0.337926 99.842-3.28809 93.9586-3.86209C89.8059-4.26215 84.0587-2.68423 76.9281 0.815067L76.9281 0.815067L75.9241 1.3158C75.2489 1.65794 74.5618 2.01667 73.8629 2.39196L73.8629 2.39196L72.8059 2.96731C72.6283 3.06527 72.4499 3.16426 72.2708 3.26429L72.2708 3.26429L71.1877 3.87683L70.0873 4.51412L69.3019 4.98729L69.088 5.1631C68.4403 5.66535 67.7426 5.94066 67.0088 5.98652L67.0088 5.98652L66.7763 6.00838C65.697 6.07714 64.6996 5.68292 63.9054 4.92405L63.9054 4.92405L63.8149 4.8554L63.2558 4.52593C63.0702 4.41714 62.8853 4.30939 62.7011 4.20267L62.7011 4.20267L61.6046 3.5748C51.9965-1.86163 44.438-4.3863 39.3219-3.89214C33.4342-3.31772 26.674-0.364587 19.152 4.93685C16.6572 6.69374 13.2016 5.09424 12.8873 2.10328L12.8873 2.10328L12.8696 1.62595L13.27-65.6815L13.2775-65.9032C13.3594-67.2268 14.0963-68.4278 15.2521-69.1027C25.0173-74.7599 33.6025-77.8035 41.1406-78.2654ZM90.9281-70.3042L90.559-70.3042C85.7806-70.2452 79.9151-67.999 73.0991-63.6047L73.0991-63.6047L71.7748-62.732L70.6603-61.9806L70.63-34.205L70.6609-4.9452L72.0688-5.66988L72.6933-5.98585C80.5696-9.93564 87.1719-11.8945 92.65-11.8945L92.65-11.8945L93.7768-11.8647L94.7447-11.7957L95.3198-11.7337C99.7385-11.2165 104.388-9.73593 109.266-7.28759L109.266-7.28759L110.808-6.48131L112.385-5.61787L112.048-63.2932L110.828-63.9541L110.184-64.2929C104.193-67.4123 98.808-69.3287 94.1229-70.0191L94.1229-70.0191L92.9436-70.1704L91.7837-70.2726L90.9281-70.3042ZM42.4868-70.3342L41.6317-70.3041L41.1404-70.2697C36.2006-69.8771 30.4758-68.0457 24.0151-64.791L24.0151-64.791L22.4607-63.9888L21.2318-63.3106L20.8849-5.6338L22.4819-6.51689L23.1673-6.88016C27.4983-9.14107 31.6408-10.6456 35.6027-11.3932L35.6027-11.3932L37.1742-11.6616L38.5599-11.8281L38.9563-11.8623C44.5363-12.2893 51.3726-10.512 59.6211-6.49493L59.6211-6.49493L61.2164-5.69724L62.6088-4.96975L62.65-34.1838L62.6096-61.9954L61.6664-62.6544L61.134-63.0115C54.2374-67.5992 48.2728-70.0413 43.3868-70.3038L43.3868-70.3038L42.4868-70.3342Z"/>
  </g>
  <g id="Regular-S" transform="matrix(1 0 0 1 1394.46 696)">
   <path d="M35.215-69.2824C40.9463-69.6304 47.5421-67.2117 55.163-61.9929L55.163-61.9929L55.3854-61.8406L56.0615-62.3006C62.6964-66.7667 68.5437-69.0772 73.7692-69.274L73.7692-69.274L74.7174-69.2896L75.5337-69.2581L75.9404-69.2299C81.7881-68.7808 88.4395-66.3737 95.9882-61.9853C96.8413-61.4861 97.4128-60.612 97.5326-59.6271L97.5326-59.6271L97.554-59.2393L97.8696-5.76167L97.8672-5.61456C97.7728-3.13412 94.9558-1.70351 92.9043-3.15683C86.9551-7.36386 81.6126-9.70796 76.9623-10.164C73.6801-10.4819 69.1375-9.22815 63.5014-6.44773L63.5014-6.44773L62.7079-6.04986C62.1742-5.77802 61.6311-5.49298 61.0787-5.19479L61.0787-5.19479L60.2433-4.73763C60.1029-4.6598 59.9619-4.58114 59.8203-4.50167L59.8203-4.50167L58.9642-4.01496L58.0945-3.50859L57.4737-3.13263L57.3046-2.99293C56.7927-2.59387 56.2413-2.37512 55.6612-2.33867L55.6612-2.33867L55.4775-2.32131C54.6244-2.26668 53.836-2.5799 53.2083-3.18288L53.2083-3.18288L53.1368-3.23743L52.6949-3.49921C52.5481-3.58565 52.402-3.67126 52.2564-3.75606L52.2564-3.75606L51.3898-4.25495C43.7955-8.57455 37.8213-10.5806 33.7775-10.1879C29.1239-9.73151 23.7806-7.38505 17.8352-3.1727C15.8633-1.77674 13.132-3.04765 12.8836-5.42416L12.8836-5.42416L12.8696-5.80343L13.1861-59.2836L13.192-59.4598C13.2568-60.5114 13.8392-61.4657 14.7528-62.002C22.4712-66.497 29.2569-68.9153 35.215-69.2824ZM74.567-62.9566L74.2753-62.9566C70.4984-62.9098 65.8624-61.125 60.475-57.6335L60.475-57.6335L59.4283-56.94L58.5474-56.343L58.5234-34.2735L58.5478-11.0246L59.6607-11.6005L60.1543-11.8515C66.3797-14.9899 71.5982-16.5463 75.928-16.5463L75.928-16.5463L76.8187-16.5226L77.5837-16.4678L78.0382-16.4186C81.5308-16.0076 85.2058-14.8312 89.0611-12.8858L89.0611-12.8858L90.2805-12.2452L91.5266-11.5591L91.2604-57.386L90.296-57.9111L89.7869-58.1803C85.0518-60.6588 80.7954-62.1816 77.0922-62.7302L77.0922-62.7302L76.1601-62.8504L75.2433-62.9315L74.567-62.9566ZM36.2791-62.9805L35.6032-62.9566L35.2148-62.9292C31.3105-62.6173 26.7856-61.1621 21.679-58.5761L21.679-58.5761L20.4504-57.9387L19.4791-57.3997L19.2049-11.5718L20.4672-12.2735L21.0089-12.5621C24.4321-14.3585 27.7063-15.554 30.8379-16.148L30.8379-16.148L32.08-16.3613L33.1752-16.4935L33.4885-16.5208C37.8989-16.86 43.3024-15.4478 49.822-12.256L49.822-12.256L51.0829-11.6222L52.1835-11.0442L52.216-34.2566L52.1841-56.3547L51.4386-56.8784L51.0178-57.1621C45.5667-60.8073 40.8523-62.7478 36.9904-62.9563L36.9904-62.9563L36.2791-62.9805Z"/>
  </g>
 </g>
</svg>
