<svg xmlns="http://www.w3.org/2000/svg" width="44" height="44" fill="none" viewBox="0 0 44 44"><rect width="44" height="44" fill="#fff" rx="22"/><g clip-path="url(#a)" data-figma-skip-parse="true"><foreignObject width="1957.71" height="1957.71" x="-978.857" y="-978.857" transform="rotate(119.592 4.597 17.403)scale(.03074)"><div xmlns="http://www.w3.org/1999/xhtml" style="background:conic-gradient(from 90deg,#c6d9f1 0deg,#a4c3e8 50.0593deg,#b8eefb 85.9386deg,#e8f2f2 134.974deg,#dcf3f9 172.049deg,#c1cfe5 200.752deg,#afbae3 224.672deg,#c7ede3 259.355deg,#e7eef5 298.822deg,#e7f2f0 328.722deg,#c6d9f1 360deg);height:100%;width:100%;opacity:1"/></foreignObject></g><rect width="44" height="44" data-figma-gradient-fill="{&quot;type&quot;:&quot;GRADIENT_ANGULAR&quot;,&quot;stops&quot;:[{&quot;color&quot;:{&quot;r&quot;:0.77647060155868530,&quot;g&quot;:0.85403925180435181,&quot;b&quot;:0.94509804248809814,&quot;a&quot;:1.0},&quot;position&quot;:0.0},{&quot;color&quot;:{&quot;r&quot;:0.64313727617263794,&quot;g&quot;:0.76580393314361572,&quot;b&quot;:0.90980392694473267,&quot;a&quot;:1.0},&quot;position&quot;:0.13905347883701324},{&quot;color&quot;:{&quot;r&quot;:0.72156864404678345,&quot;g&quot;:0.93701958656311035,&quot;b&quot;:0.98431372642517090,&quot;a&quot;:1.0},&quot;position&quot;:0.23871822655200958},{&quot;color&quot;:{&quot;r&quot;:0.90980392694473267,&quot;g&quot;:0.94901961088180542,&quot;b&quot;:0.94901961088180542,&quot;a&quot;:1.0},&quot;position&quot;:0.37492668628692627},{&quot;color&quot;:{&quot;r&quot;:0.86274510622024536,&quot;g&quot;:0.95600003004074097,&quot;b&quot;:0.97647058963775635,&quot;a&quot;:1.0},&quot;position&quot;:0.47791358828544617},{&quot;color&quot;:{&quot;r&quot;:0.75686275959014893,&quot;g&quot;:0.81333333253860474,&quot;b&quot;:0.89803922176361084,&quot;a&quot;:1.0},&quot;position&quot;:0.55764538049697876},{&quot;color&quot;:{&quot;r&quot;:0.68627452850341797,&quot;g&quot;:0.73113727569580078,&quot;b&quot;:0.89019608497619629,&quot;a&quot;:1.0},&quot;position&quot;:0.62408852577209473},{&quot;color&quot;:{&quot;r&quot;:0.78039216995239258,&quot;g&quot;:0.92941176891326904,&quot;b&quot;:0.89364707469940186,&quot;a&quot;:1.0},&quot;position&quot;:0.72043114900588989},{&quot;color&quot;:{&quot;r&quot;:0.90588235855102539,&quot;g&quot;:0.93443137407302856,&quot;b&quot;:0.96078431606292725,&quot;a&quot;:1.0},&quot;position&quot;:0.83006232976913452},{&quot;color&quot;:{&quot;r&quot;:0.90588235855102539,&quot;g&quot;:0.94901961088180542,&quot;b&quot;:0.94125491380691528,&quot;a&quot;:1.0},&quot;position&quot;:0.91311627626419067},{&quot;color&quot;:{&quot;r&quot;:0.77647060155868530,&quot;g&quot;:0.85403925180435181,&quot;b&quot;:0.94509804248809814,&quot;a&quot;:1.0},&quot;position&quot;:1.0}],&quot;stopsVar&quot;:[],&quot;transform&quot;:{&quot;m00&quot;:-30.360006332397461,&quot;m01&quot;:-53.459991455078125,&quot;m02&quot;:63.909999847412109,&quot;m10&quot;:53.459991455078125,&quot;m11&quot;:-30.360006332397461,&quot;m12&quot;:10.450005531311035},&quot;opacity&quot;:1.0,&quot;blendMode&quot;:&quot;NORMAL&quot;,&quot;visible&quot;:true}" rx="22"/><path fill="#000" fill-rule="evenodd" stroke="#000" stroke-width=".688" d="m23.676 20.27-.576 2.833 5.47.709-.384 1.328-5.374-.709c-.384 1.151-.575 2.391-1.055 3.454-.48 1.24-.96 2.479-1.536 3.63-.767 1.505-2.11 2.568-3.934 2.833-1.055.177-2.207.089-3.07-.531-.289-.177-.576-.531-.576-.797 0-.354.191-.797.48-.974.191-.088.671 0 .959.089.288.265.576.62.768.974.575.708 1.343.796 2.11.265.865-.708 1.344-1.682 1.632-2.656.576-2.125 1.152-4.161 1.631-6.286v-.355l-5.085-.708.192-1.328 5.277.708.672-2.745-5.47-.796L16 17.79l5.662.708c.192-.531.288-.974.48-1.416.48-1.594.96-3.188 2.11-4.605 1.152-1.416 2.496-2.302 4.51-2.213.864 0 1.728.265 2.304.885.096.089.288.266.288.443 0 .354 0 .797-.288 1.063-.384.265-.864.177-1.248-.178-.287-.265-.48-.53-.767-.796-.576-.709-1.44-.797-2.111-.178-.48.443-.96 1.063-1.248 1.683-.671 1.86-1.151 3.807-1.823 5.755l5.278.708-.384 1.328z" clip-rule="evenodd"/><defs><clipPath id="a"><rect width="44" height="44" rx="22"/></clipPath></defs></svg>
