<svg viewBox="0 0 148 28" xmlns="http://www.w3.org/2000/svg" xmlns:xlink="http://www.w3.org/1999/xlink">
  <defs>
    <path d="M0 6.635v10.96a1 1 0 0 0 .5.867l9.492 5.48a1 1 0 0 0 1 0l9.492-5.48a1 1 0 0 0 .5-.866V6.635a1 1 0 0 0-.5-.866L10.992.289a1 1 0 0 0-1 0L.5 5.769a1 1 0 0 0-.5.866z" id="path-1"/>
  </defs>
  <g fill="none" fill-rule="evenodd">
    <path d="M11.5.289l-11 6.35a1 1 0 0 0-.5.867v12.701a1 1 0 0 0 .5.866l11 6.351a1 1 0 0 0 1 0l11-6.35a1 1 0 0 0 .5-.867V7.506a1 1 0 0 0-.5-.866L12.5.289a1 1 0 0 0-1 0z" fill="#EF334C"/>
    <g transform="translate(1.508 1.741)">
      <mask id="mask-2" fill="#fff">
        <use xlink:href="#path-1"/>
      </mask>
      <use fill="#343B45" xlink:href="#path-1"/>
      <path fill="#262B33" mask="url(#mask-2)" d="M10.492 17.259l6 6 6-4v-4l-7-7z"/>
    </g>
    <path d="M15.462 9.126C12.923 8.549 12 10.74 12 10.74s-.923-2.192-3.462-1.615c-2.538.577-3.115 4.154 0 6.923C11.654 18.818 12 19.164 12 19.164s.346-.346 3.462-3.115c3.115-2.77 2.538-6.346 0-6.923" fill="#EF334C"/>
    <path d="M51.46 6.76h2.48L48.9 21h-2.1l-3.58-10.24L39.6 21h-2.1L32.48 6.76h2.62l3.56 10.62 3.7-10.62h1.84l3.62 10.7 3.64-10.7zm11.94 9.32h-6.96c.053 1.08.323 1.877.81 2.39.487.513 1.21.77 2.17.77 1.107 0 2.133-.36 3.08-1.08l.72 1.72c-.48.387-1.07.697-1.77.93-.7.233-1.41.35-2.13.35-1.653 0-2.953-.467-3.9-1.4-.947-.933-1.42-2.213-1.42-3.84 0-1.027.207-1.94.62-2.74.413-.8.993-1.423 1.74-1.87.747-.447 1.593-.67 2.54-.67 1.387 0 2.483.45 3.29 1.35.807.9 1.21 2.137 1.21 3.71v.38zm-4.44-3.64c-.667 0-1.21.197-1.63.59-.42.393-.69.963-.81 1.71h4.7c-.08-.76-.31-1.333-.69-1.72-.38-.387-.903-.58-1.57-.58zm12.8-1.8c.88 0 1.657.217 2.33.65.673.433 1.197 1.043 1.57 1.83.373.787.56 1.7.56 2.74 0 1.04-.19 1.963-.57 2.77-.38.807-.907 1.43-1.58 1.87-.673.44-1.443.66-2.31.66-.747 0-1.41-.16-1.99-.48a3.135 3.135 0 0 1-1.31-1.34V21H66V6.28h2.48v6.14c.307-.56.747-.997 1.32-1.31.573-.313 1.227-.47 1.96-.47zm-.66 8.56c.827 0 1.467-.293 1.92-.88.453-.587.68-1.407.68-2.46 0-1.04-.227-1.843-.68-2.41-.453-.567-1.1-.85-1.94-.85-.84 0-1.487.287-1.94.86-.453.573-.68 1.387-.68 2.44 0 1.067.227 1.883.68 2.45.453.567 1.107.85 1.96.85zM81.64 21V8.88H77V6.76h11.9v2.12h-4.66V21h-2.6zm11.5.16c-1.027 0-1.93-.213-2.71-.64a4.371 4.371 0 0 1-1.8-1.83c-.42-.793-.63-1.723-.63-2.79s.21-1.997.63-2.79a4.371 4.371 0 0 1 1.8-1.83c.78-.427 1.683-.64 2.71-.64 1.013 0 1.907.213 2.68.64a4.387 4.387 0 0 1 1.79 1.83c.42.793.63 1.723.63 2.79s-.21 1.997-.63 2.79a4.387 4.387 0 0 1-1.79 1.83c-.773.427-1.667.64-2.68.64zm-.02-1.96c.853 0 1.503-.277 1.95-.83.447-.553.67-1.377.67-2.47 0-1.08-.227-1.903-.68-2.47-.453-.567-1.093-.85-1.92-.85-.84 0-1.487.283-1.94.85-.453.567-.68 1.39-.68 2.47 0 1.093.223 1.917.67 2.47.447.553 1.09.83 1.93.83zm13.48-8.54c.387 0 .72.053 1 .16l-.02 2.28a3.476 3.476 0 0 0-1.32-.26c-.853 0-1.503.247-1.95.74-.447.493-.67 1.147-.67 1.96V21h-2.48v-7.24c0-1.067-.053-2.02-.16-2.86h2.34l.2 1.78c.253-.653.653-1.153 1.2-1.5a3.4 3.4 0 0 1 1.86-.52zm9 0c.387 0 .72.053 1 .16l-.02 2.28a3.476 3.476 0 0 0-1.32-.26c-.853 0-1.503.247-1.95.74-.447.493-.67 1.147-.67 1.96V21h-2.48v-7.24c0-1.067-.053-2.02-.16-2.86h2.34l.2 1.78c.253-.653.653-1.153 1.2-1.5a3.4 3.4 0 0 1 1.86-.52zm12.26 5.42h-6.96c.053 1.08.323 1.877.81 2.39.487.513 1.21.77 2.17.77 1.107 0 2.133-.36 3.08-1.08l.72 1.72c-.48.387-1.07.697-1.77.93-.7.233-1.41.35-2.13.35-1.653 0-2.953-.467-3.9-1.4-.947-.933-1.42-2.213-1.42-3.84 0-1.027.207-1.94.62-2.74.413-.8.993-1.423 1.74-1.87.747-.447 1.593-.67 2.54-.67 1.387 0 2.483.45 3.29 1.35.807.9 1.21 2.137 1.21 3.71v.38zm-4.44-3.64c-.667 0-1.21.197-1.63.59-.42.393-.69.963-.81 1.71h4.7c-.08-.76-.31-1.333-.69-1.72-.38-.387-.903-.58-1.57-.58zm12.34-1.8c2.413 0 3.62 1.387 3.62 4.16V21h-2.5v-6.08c0-.8-.153-1.383-.46-1.75-.307-.367-.78-.55-1.42-.55-.76 0-1.373.243-1.84.73-.467.487-.7 1.13-.7 1.93V21h-2.48v-7.24c0-1.067-.053-2.02-.16-2.86h2.34l.18 1.66a3.655 3.655 0 0 1 1.41-1.42c.593-.333 1.263-.5 2.01-.5zm9.46 2.14v4.52c0 1.187.553 1.78 1.66 1.78.307 0 .64-.053 1-.16v1.98c-.44.16-.973.24-1.6.24-1.147 0-2.027-.32-2.64-.96-.613-.64-.92-1.56-.92-2.76v-4.64h-1.94V10.9h1.94V8.44l2.5-.84v3.3h2.68v1.88h-2.68z" fill="#3B3E4F"/>
  </g>
</svg>