<svg viewBox="0 0 148 28" xmlns="http://www.w3.org/2000/svg" xmlns:xlink="http://www.w3.org/1999/xlink"><defs><path id="a" d="m0 6.635v10.96a1 1 0 0 0 .5.867l9.492 5.48a1 1 0 0 0 1 0l9.492-5.48a1 1 0 0 0 .5-.866v-10.961a1 1 0 0 0 -.5-.866l-9.492-5.48a1 1 0 0 0 -1 0l-9.492 5.48a1 1 0 0 0 -.5.866z"/><mask id="b" fill="#fff"><use fill="#fff" fill-rule="evenodd" xlink:href="#a"/></mask></defs><g fill="none" fill-rule="evenodd"><path d="m11.5.289-11 6.35a1 1 0 0 0 -.5.867v12.701a1 1 0 0 0 .5.866l11 6.351a1 1 0 0 0 1 0l11-6.35a1 1 0 0 0 .5-.867v-12.701a1 1 0 0 0 -.5-.866l-11-6.351a1 1 0 0 0 -1 0z" fill="#ef334c"/><g transform="translate(1.508 1.741)"><use fill="#343b45" xlink:href="#a"/><path d="m10.492 17.259 6 6 6-4v-4l-7-7z" fill="#262b33" mask="url(#b)"/></g><path d="m15.462 9.126c-2.539-.577-3.462 1.614-3.462 1.614s-.923-2.192-3.462-1.615c-2.538.577-3.115 4.154 0 6.923 3.116 2.77 3.462 3.116 3.462 3.116s.346-.346 3.462-3.115c3.115-2.77 2.538-6.346 0-6.923" fill="#ef334c"/><path d="m51.46 6.76h2.48l-5.04 14.24h-2.1l-3.58-10.24-3.62 10.24h-2.1l-5.02-14.24h2.62l3.56 10.62 3.7-10.62h1.84l3.62 10.7zm11.94 9.32h-6.96c.053 1.08.323 1.877.81 2.39s1.21.77 2.17.77c1.107 0 2.133-.36 3.08-1.08l.72 1.72c-.48.387-1.07.697-1.77.93s-1.41.35-2.13.35c-1.653 0-2.953-.467-3.9-1.4s-1.42-2.213-1.42-3.84c0-1.027.207-1.94.62-2.74s.993-1.423 1.74-1.87 1.593-.67 2.54-.67c1.387 0 2.483.45 3.29 1.35s1.21 2.137 1.21 3.71zm-4.44-3.64c-.667 0-1.21.197-1.63.59s-.69.963-.81 1.71h4.7c-.08-.76-.31-1.333-.69-1.72s-.903-.58-1.57-.58zm12.8-1.8c.88 0 1.657.217 2.33.65s1.197 1.043 1.57 1.83.56 1.7.56 2.74-.19 1.963-.57 2.77-.907 1.43-1.58 1.87-1.443.66-2.31.66c-.747 0-1.41-.16-1.99-.48a3.135 3.135 0 0 1 -1.31-1.34v1.66h-2.46v-14.72h2.48v6.14c.307-.56.747-.997 1.32-1.31s1.227-.47 1.96-.47zm-.66 8.56c.827 0 1.467-.293 1.92-.88s.68-1.407.68-2.46c0-1.04-.227-1.843-.68-2.41s-1.1-.85-1.94-.85-1.487.287-1.94.86-.68 1.387-.68 2.44c0 1.067.227 1.883.68 2.45s1.107.85 1.96.85zm10.54 1.8v-12.12h-4.64v-2.12h11.9v2.12h-4.66v12.12zm11.5.16c-1.027 0-1.93-.213-2.71-.64a4.371 4.371 0 0 1 -1.8-1.83c-.42-.793-.63-1.723-.63-2.79s.21-1.997.63-2.79a4.371 4.371 0 0 1 1.8-1.83c.78-.427 1.683-.64 2.71-.64 1.013 0 1.907.213 2.68.64a4.387 4.387 0 0 1 1.79 1.83c.42.793.63 1.723.63 2.79s-.21 1.997-.63 2.79a4.387 4.387 0 0 1 -1.79 1.83c-.773.427-1.667.64-2.68.64zm-.02-1.96c.853 0 1.503-.277 1.95-.83s.67-1.377.67-2.47c0-1.08-.227-1.903-.68-2.47s-1.093-.85-1.92-.85c-.84 0-1.487.283-1.94.85s-.68 1.39-.68 2.47c0 1.093.223 1.917.67 2.47s1.09.83 1.93.83zm13.48-8.54c.387 0 .72.053 1 .16l-.02 2.28a3.476 3.476 0 0 0 -1.32-.26c-.853 0-1.503.247-1.95.74s-.67 1.147-.67 1.96v5.46h-2.48v-7.24c0-1.067-.053-2.02-.16-2.86h2.34l.2 1.78c.253-.653.653-1.153 1.2-1.5a3.4 3.4 0 0 1 1.86-.52zm9 0c.387 0 .72.053 1 .16l-.02 2.28a3.476 3.476 0 0 0 -1.32-.26c-.853 0-1.503.247-1.95.74s-.67 1.147-.67 1.96v5.46h-2.48v-7.24c0-1.067-.053-2.02-.16-2.86h2.34l.2 1.78c.253-.653.653-1.153 1.2-1.5a3.4 3.4 0 0 1 1.86-.52zm12.26 5.42h-6.96c.053 1.08.323 1.877.81 2.39s1.21.77 2.17.77c1.107 0 2.133-.36 3.08-1.08l.72 1.72c-.48.387-1.07.697-1.77.93s-1.41.35-2.13.35c-1.653 0-2.953-.467-3.9-1.4s-1.42-2.213-1.42-3.84c0-1.027.207-1.94.62-2.74s.993-1.423 1.74-1.87 1.593-.67 2.54-.67c1.387 0 2.483.45 3.29 1.35s1.21 2.137 1.21 3.71zm-4.44-3.64c-.667 0-1.21.197-1.63.59s-.69.963-.81 1.71h4.7c-.08-.76-.31-1.333-.69-1.72s-.903-.58-1.57-.58zm12.34-1.8c2.413 0 3.62 1.387 3.62 4.16v6.2h-2.5v-6.08c0-.8-.153-1.383-.46-1.75s-.78-.55-1.42-.55c-.76 0-1.373.243-1.84.73s-.7 1.13-.7 1.93v5.72h-2.48v-7.24c0-1.067-.053-2.02-.16-2.86h2.34l.18 1.66a3.655 3.655 0 0 1 1.41-1.42c.593-.333 1.263-.5 2.01-.5zm9.46 2.14v4.52c0 1.187.553 1.78 1.66 1.78.307 0 .64-.053 1-.16v1.98c-.44.16-.973.24-1.6.24-1.147 0-2.027-.32-2.64-.96s-.92-1.56-.92-2.76v-4.64h-1.94v-1.88h1.94v-2.46l2.5-.84v3.3h2.68v1.88z" fill="#3b3e4f"/></g></svg>