<?xml version="1.0" encoding="UTF-8"?>

<svg xmlns="http://www.w3.org/2000/svg" viewBox="0 85.333 512 341.333">
<rect y="85.333" fill="#FFFFFF" width="512" height="341.337"/>
<polygon fill="#D80027" points="288,85.33 224,85.33 224,223.996 0,223.996 0,287.996 224,287.996 224,426.662 288,426.662   288,287.996 512,287.996 512,223.996 288,223.996 "/>
<g>
	<polygon fill="#0052B4" points="393.785,315.358 512,381.034 512,315.358  "/>
	<polygon fill="#0052B4" points="311.652,315.358 512,426.662 512,395.188 368.307,315.358  "/>
	<polygon fill="#0052B4" points="458.634,426.662 311.652,344.998 311.652,426.662  "/>
</g>
<polygon fill="#FFFFFF" points="311.652,315.358 512,426.662 512,395.188 368.307,315.358 "/>
<polygon fill="#D80027" points="311.652,315.358 512,426.662 512,395.188 368.307,315.358 "/>
<g>
	<polygon fill="#0052B4" points="90.341,315.356 0,365.546 0,315.356  "/>
	<polygon fill="#0052B4" points="200.348,329.51 200.348,426.661 25.491,426.661  "/>
</g>
<polygon fill="#D80027" points="143.693,315.358 0,395.188 0,426.662 0,426.662 200.348,315.358 "/>
<g>
	<polygon fill="#0052B4" points="118.215,196.634 0,130.958 0,196.634  "/>
	<polygon fill="#0052B4" points="200.348,196.634 0,85.33 0,116.804 143.693,196.634  "/>
	<polygon fill="#0052B4" points="53.366,85.33 200.348,166.994 200.348,85.33  "/>
</g>
<polygon fill="#FFFFFF" points="200.348,196.634 0,85.33 0,116.804 143.693,196.634 "/>
<polygon fill="#D80027" points="200.348,196.634 0,85.33 0,116.804 143.693,196.634 "/>
<g>
	<polygon fill="#0052B4" points="421.659,196.636 512,146.446 512,196.636  "/>
	<polygon fill="#0052B4" points="311.652,182.482 311.652,85.331 486.509,85.331  "/>
</g>
<polygon fill="#D80027" points="368.307,196.634 512,116.804 512,85.33 512,85.33 311.652,196.634 "/>
</svg>
