<svg xmlns="http://www.w3.org/2000/svg" fill="none" viewBox="0 0 24 18"><g clip-path="url(#a)"><mask id="b" width="24" height="18" x="0" y="0" maskUnits="userSpaceOnUse" style="mask-type:luminance"><path fill="#fff" d="M0 0h24v18H0z"/></mask><g mask="url(#b)"><path fill="#D9071E" fill-rule="evenodd" d="M16.5 0H24v18h-7.5V0Z" clip-rule="evenodd"/><path fill="#006923" fill-rule="evenodd" d="M0 0h9v18H0V0Z" clip-rule="evenodd"/><path fill="#fff" fill-rule="evenodd" d="M7.5 0h9v18h-9V0Z" clip-rule="evenodd"/><path fill="#A8AC71" fill-rule="evenodd" d="M9.792 6.256c-.08.342-.028.422.357.422.02 0 .052.057.087.118.037.068.079.141.112.153-.014.018-.161.283-.162.75 0 .096.045.254.088.406.046.166.091.324.074.386-.029.102-.156-.01-.255-.095-.056-.049-.104-.09-.117-.078-.07.059-.107-.41-.13-.694-.009-.127-.016-.216-.022-.206a.743.743 0 0 1-.044-.187c-.022-.143-.043-.282-.212-.282h-.435v.32s.252 0 .252.596c.004.09.121.873.407.877-.168.004-.166.037-.166.056v.004c0 .48.401.531.776.396.225-.082.464-.24.643-.436.252-.276.283-.634-.048-.83-.118-.07-.246-.097-.426-.107.036-.105.002-.199-.024-.272-.022-.061-.038-.108-.005-.135.375-.304.409-.585.135-.837a1.023 1.023 0 0 1-.105-.122c-.066-.086-.136-.177-.224-.203.04-.082.095-.181.164-.296l-.643-.386c-.117.194-.097.346-.08.478.01.073.018.14.003.204Zm.699 2-.012.012.008-.007a.028.028 0 0 1 .004-.005Zm-.34.235Zm-.36.25H9.8h-.007Zm.033 0H9.8h.025Z" clip-rule="evenodd"/><path fill="#FCCA3D" fill-rule="evenodd" d="M10.788 5.935s-.515.4-.419.825c.097.426 1.112 0 .989-.412-.123-.413-.57-.413-.57-.413Z" clip-rule="evenodd"/><path fill="#8F4620" fill-rule="evenodd" d="M14.45 9.302s.694-2.056-.41-3.12c-1.102-1.064-2.376-.993-2.376-.993s-.367.272 0 .48c.367.208.213.408.213.408s-.615-.624-1.023-.26c-.408.365.381.31.298.584-.084.274-.438 1.493.08 2.109.516.615-.49.481-.285.481.205 0 .93.144.93 0 0-.143.252.557.468.557.216 0 .382-.246.382-.246s.303.246.487.246.827-.16.827-.16l-1.215-1.024s.073-.452-.099-.55c-.172-.097 1.381.867 1.503 1.177.122.311.22.311.22.311Z" clip-rule="evenodd"/><path fill="#9FAB2F" d="M8.3 8.795s.112-.359.233-.384c.104-.021.324.172.324.172.39 2.168 1.334 3.014 2.9 3.014 1.583 0 2.543-.643 3.103-2.642 0 0 .298-.304.403-.27.114.036.258.439.258.439-.643 2.293-1.857 3.314-3.765 3.314-1.926 0-3.008-1.154-3.456-3.643Z"/><path fill="#2FC2DC" fill-rule="evenodd" d="M10 10.242s2.254.478 3.143.478c.89 0-.78.726-1.432.726-.284 0-.628-.173-1.03-.518-.072-.062-.002-.2-.222-.203-.306-.002-.686-.074-.65-.118.035-.041.48-.054.437-.1l-.245-.265Z" clip-rule="evenodd"/><rect width="1.5" height=".804" x="11" y="10.575" fill="#F9AA51" rx=".167"/><path fill="#259485" d="M9.132 9.102s0-.281.19-.43c.218-.172.424 0 .424 0 .799 1.138 1.994 1.513 3.665 1.122 0 0 .5.163.525.27.032.136-.354.46-.354.46-1.954.457-3.464-.016-4.45-1.422Z"/><path fill="#FCCA3D" fill-rule="evenodd" d="M12.444 9.263s-.91.479-.607.479c.303 0 1.49.24 1.26 0-.232-.24-.653-.48-.653-.48Zm-1.077-.572s-.173-.5-.533-.5c-.36 0-.258.41-.431.41s.161.289.31.289c.15 0 .654-.199.654-.199Z" clip-rule="evenodd"/></g></g><rect width="23" height="17" x=".5" y=".5" stroke="#000" stroke-opacity=".1" rx="1.5"/><defs><clipPath id="a"><rect width="24" height="18" fill="#fff" rx="2"/></clipPath></defs></svg>