<svg xmlns="http://www.w3.org/2000/svg" xmlns:xlink="http://www.w3.org/1999/xlink" fill="none" viewBox="0 0 120 100">
  <g clip-path="url(#a)">
    <path fill="#ff5601" d="M0 0h120v100H0z"/>
    <g fill="#1c1c1d" clip-path="url(#b)">
      <path d="M177.93.335892V1.49853H76.1822v1.16263h77.4668v1.16263H92.3694v1.16263H187.18v1.16264h-78.624v1.16263h55.499v1.16264h-48.561v1.16263h80.936v1.16264h-69.374v1.1626h46.249v1.1627h-39.312v1.1626h67.061v1.1626h-60.123v1.1627h41.624v1.1626h-34.687v1.1626h62.436v1.1627h-55.499v1.1626h35.843v1.1626h-28.905v1.1627h57.811v1.1626h-55.499v1.1626h35.843v1.1627h-28.905v1.1626h53.186v1.1626h-50.874v1.1627h35.843v1.1626h-28.906v1.1626h53.187v1.1626h-50.874v1.1627h32.374v1.1626h-25.437v1.1626h48.562v1.1627h-46.249v1.1626h31.218v1.1626h-24.281v1.1627h48.561v1.1626h-46.249v1.1626h27.75v1.1627h-25.437v1.1626h48.561v1.1627h-46.249v1.1626h31.218v1.1626h-24.28v1.1626h48.561v1.1627h-46.249v1.1626h27.75v1.1626h-25.437v1.1627h53.186v1.1626h-50.874v1.1626h31.218v1.1627h-24.281v1.1626h55.499v1.1626h-53.186v1.1627h27.749v1.1626h-25.437v1.1626h50.874v1.1627h-48.561v1.1626h35.843v1.1626h-28.906v1.1627h41.624v1.1626h-39.311v1.1626h39.311v1.1627h-36.999v1.1626h36.999v1.1626h-30.062v1.1627h30.062v1.1626h-27.749v1.1626h27.749v1.1627h-20.812v1.1626h20.812v1.1626h-13.874v1.1627h13.874v1.1626l-2.317.1308v1.0318h2.317v3.4879l-2.317.1357v1.0318h2.317v3.4879l-2.317.1356v1.0319h2.317v3.4879l-2.317.1356v1.032h2.317v3.488l-2.317.135v1.032h2.317v3.488l-1.161.136v1.032h1.161v3.488l-1.161.135v1.032h1.161v3.488l-1.161.136v1.031h1.161V155H-162v-10.464h1.156v-1.027l-1.161-.135v-3.488l1.161-.136v-1.032h-1.161v-3.488l1.161-.135v-1.032h-1.161v-3.488l1.161-.136v-1.031h-1.161v-3.488h1.156v-1.027l-1.161-.136v-3.488h2.313v-1.027l-2.303-.155v-3.488l2.317-.135v-1.032H-162v-3.488l2.317-.136v-1.032H-162v-3.488h3.469v-1.162H-162v-3.488h3.469v-1.163H-162v-3.4876h3.469v-1.1627H-162v-1.1626l1.161-.1308v-1.0318H-162v-1.1627h3.469v-1.1626H-162v-1.1626l1.161-.1308v-1.0319H-162v-1.1626h3.469v-1.1626H-162V86.361h1.156v-1.0318l-1.156-.1211v-1.1626h12.718v-1.1627H-162v-1.1626h19.656v-1.1626H-162v-1.1627h26.593v-1.1626H-162v-1.1626h28.905V75.907H-162v-1.1626h35.843v-1.1626H-162v-1.1627h38.155v-1.1626H-162v-1.1626h45.093v-1.1627h-32.375v-1.1626h34.687V66.606H-162v-1.1627h49.718v-1.1626h-27.75v-1.1626h30.062v-1.1627H-162v-1.1626h58.967v-1.1626h-27.749v-1.1627h30.062v-1.1626h-48.562v-1.1626h50.8742v-1.1627h-24.2802V53.817h26.5927v-1.1626h-43.9367v-1.1627h46.2491v-1.1626h-23.1241v-1.1626h30.0615v-1.1626h-43.9365v-1.1627h46.2489v-1.1626h-24.2809v-1.1627h26.5934v-1.1626h-43.9364v-1.1626h50.8737V41.028h-27.7497v-1.1626h30.0622v-1.1626h-43.9362v-1.1627h46.2486v-1.1626h-27.7494v-1.1626h34.6868v-1.1627h-48.561v-1.1626h50.8734V31.727H-89.158v-1.1626h34.6868v-1.1627h-53.1868v-1.1626h55.4992v-1.1626h-28.9056v-1.1627h35.843v-1.1626h-53.1864v-1.1626h60.1237v-1.1627h-33.5305v-1.1626h35.843v-1.1626H-89.158V18.938h60.1237v-1.1626h-33.5305v-1.1626h40.4679v-1.1627h-62.4362v-1.1626h69.3735v-1.1626H-53.315v-1.1627h45.09279v-1.1626H-75.2833V9.63696H3.34003V8.47433H-44.0652V7.31169h58.9675V6.14906h-80.9358V4.98642h92.498V3.82379h-60.1237V2.66116h76.3109V1.49853h-99.4354V.335892zM47.2766 1.49853h-3.4687v1.16263h3.4687zm4.6249 0h-3.4687v1.16263h3.4687zm4.6249 0h-3.4687v1.16263h3.4687zm4.6249 0h-3.4687v1.16263h3.4687zm4.6249 0h-3.4687v1.16263h3.4687zm4.6249 0h-3.4687v1.16263h3.4687zm4.6249 0h-3.4687v1.16263h3.4687zM31.0894 3.82379h-3.4687v1.16263h3.4687zm4.6249 0h-3.4686v1.16263h3.4686zm4.6249 0h-3.4687v1.16263h3.4687zm4.6249 0h-3.4687v1.16263h3.4687zm4.6249 0h-3.4687v1.16263h3.4687zm4.6249 0h-3.4686v1.16263h3.4686zm4.6249 0h-3.4686v1.16263h3.4686zm4.6249 0H59.995v1.16263h3.4687zm4.6249 0h-3.4687v1.16263h3.4687zm4.6249 0h-3.4687v1.16263h3.4687zm4.6249 0h-3.4687v1.16263h3.4687zm4.6249 0h-3.4687v1.16263h3.4687zm4.6249 0h-3.4687v1.16263h3.4687zm4.6249 0h-3.4686v1.16263h3.4686zM19.5272 6.14906h-3.4687v1.16263h3.4687zm4.6249 0h-3.4687v1.16263h3.4687zm4.6249 0h-3.4687v1.16263h3.4687zm4.6249 0h-3.4687v1.16263h3.4687zm4.6249 0h-3.4687v1.16263h3.4687zm4.6249 0H39.183v1.16263h3.4687zm4.6249 0h-3.4687v1.16263h3.4687zm4.6249 0h-3.4687v1.16263h3.4687zm4.6249 0h-3.4687v1.16263h3.4687zm4.6249 0h-3.4687v1.16263h3.4687zm4.6249 0h-3.4687v1.16263h3.4687zm4.6249 0h-3.4687v1.16263h3.4687zm4.6249 0h-3.4687v1.16263h3.4687zm4.6249 0h-3.4687v1.16263h3.4687zm4.6249 0h-3.4687v1.16263h3.4687zm4.6249 0H85.432v1.16263h3.4687zm4.6249 0h-3.4687v1.16263h3.4687zm4.6249 0h-3.4687v1.16263h3.4687zm4.6245 0h-3.4683v1.16263h3.4683zm4.625 0h-3.468v1.16263h3.468zM7.96492 8.47433H4.49626v1.16263h3.46866zm4.62488 0H9.12115v1.16263h3.46865zm4.6249 0H13.746v1.16263h3.4687zm4.6249 0h-3.4687v1.16263h3.4687zm4.6249 0h-3.4687v1.16263h3.4687zm4.6249 0h-3.4687v1.16263h3.4687zm4.6249 0h-3.4686v1.16263h3.4686zm4.6249 0h-3.4687v1.16263h3.4687zm4.6249 0h-3.4687v1.16263h3.4687zm4.6249 0h-3.4687v1.16263h3.4687zm4.6249 0h-3.4686v1.16263h3.4686zm4.6249 0h-3.4686v1.16263h3.4686zm4.6249 0H59.995v1.16263h3.4687zm4.6249 0h-3.4687v1.16263h3.4687zm4.6249 0h-3.4687v1.16263h3.4687zm4.6249 0h-3.4687v1.16263h3.4687zm4.6249 0h-3.4687v1.16263h3.4687zm4.6249 0h-3.4687v1.16263h3.4687zm4.6249 0h-3.4686v1.16263h3.4686zm4.6249 0h-3.4686v1.16263h3.4686zm4.625 0h-3.4687v1.16263h3.4687zm4.625 0h-3.469v1.16263h3.469zm4.625 0h-3.469v1.16263h3.469zm4.625 0h-3.469v1.16263h3.469zM-3.59732 10.7996h-3.46869v1.1626h3.46869zm4.62489 0H-2.4411v1.1626h3.46867zm4.6249 0H2.18379v1.1626h3.46868zm4.62493 0H6.80869v1.1626h3.46871zm4.6249 0h-3.4687v1.1626h3.4687zm4.6249 0h-3.4687v1.1626h3.4687zm4.6249 0h-3.4687v1.1626h3.4687zm4.6249 0h-3.4687v1.1626h3.4687zm4.6249 0h-3.4687v1.1626h3.4687zm4.6249 0h-3.4687v1.1626h3.4687zm4.6249 0H39.183v1.1626h3.4687zm4.6249 0h-3.4687v1.1626h3.4687zm4.6249 0h-3.4687v1.1626h3.4687zm4.6249 0h-3.4687v1.1626h3.4687zm4.6249 0h-3.4687v1.1626h3.4687zm4.6249 0h-3.4687v1.1626h3.4687zm4.6249 0h-3.4687v1.1626h3.4687zm4.6249 0h-3.4687v1.1626h3.4687zm4.6249 0h-3.4687v1.1626h3.4687zm4.6249 0h-3.4687v1.1626h3.4687zm4.6249 0H85.432v1.1626h3.4687zm4.6249 0h-3.4687v1.1626h3.4687zm4.6249 0h-3.4687v1.1626h3.4687zm4.6245 0h-3.4683v1.1626h3.4683zm4.625 0h-3.468v1.1626h3.468zm4.625 0h-3.469v1.1626h3.469zm4.625 0h-3.469v1.1626h3.469zm4.625 0h-3.469v1.1626h3.469zm4.625 0h-3.469v1.1626h3.469zm-136.4347 2.3253h-3.4686v1.1626h3.4686zm4.62493 0h-3.46869v1.1626h3.46869zm4.62489 0h-3.46868v1.1626h3.46868zm4.62491 0H-.128647v1.1626H3.34003zm4.62489 0H4.49626v1.1626h3.46866zm4.62488 0H9.12115v1.1626h3.46865zm4.6249 0H13.746v1.1626h3.4687zm4.6249 0h-3.4687v1.1626h3.4687zm4.6249 0h-3.4687v1.1626h3.4687zm4.6249 0h-3.4687v1.1626h3.4687zm4.6249 0h-3.4686v1.1626h3.4686zm4.6249 0h-3.4687v1.1626h3.4687zm4.6249 0h-3.4687v1.1626h3.4687zm4.6249 0h-3.4687v1.1626h3.4687zm4.6249 0h-3.4686v1.1626h3.4686zm4.6249 0h-3.4686v1.1626h3.4686zm4.6249 0H59.995v1.1626h3.4687zm4.6249 0h-3.4687v1.1626h3.4687zm4.6249 0h-3.4687v1.1626h3.4687zm4.6249 0h-3.4687v1.1626h3.4687zm4.6249 0h-3.4687v1.1626h3.4687zm4.6249 0h-3.4687v1.1626h3.4687zm4.6249 0h-3.4686v1.1626h3.4686zm4.6249 0h-3.4686v1.1626h3.4686zm4.625 0h-3.4687v1.1626h3.4687zm4.625 0h-3.469v1.1626h3.469zm4.625 0h-3.469v1.1626h3.469zm4.625 0h-3.469v1.1626h3.469zm4.625 0h-3.469v1.1626h3.469zm4.624 0h-3.468v1.1626h3.468zm4.625 0h-3.468v1.1626h3.468zm4.625 0h-3.468v1.1626h3.468zm-150.309 2.3252h-3.4687v1.1627h3.4687zm4.6249 0h-3.4687v1.1627h3.4687zm4.62489 0h-3.46869v1.1627h3.46869zm4.62489 0h-3.46869v1.1627h3.46869zm4.62489 0H-2.4411v1.1627h3.46867zm4.6249 0H2.18379v1.1627h3.46868zm4.62493 0H6.80869v1.1627h3.46871zm4.6249 0h-3.4687v1.1627h3.4687zm4.6249 0h-3.4687v1.1627h3.4687zm4.6249 0h-3.4687v1.1627h3.4687zm4.6249 0h-3.4687v1.1627h3.4687zm3.4735 0H29.938v1.1675h2.3125zm4.6249 0h-2.3125v1.1675h2.3125zm4.6249 0h-2.3125v1.1675h2.3125zm4.6249 0h-2.3125v1.1675h2.3125zm4.6249 0h-2.3125v1.1675h2.3125zm4.6249 0h-2.3125v1.1675h2.3125zm4.6248 0h-2.3124v1.1675h2.3124zm4.625 0h-2.3125v1.1675h2.3125zm4.6249 0h-2.3125v1.1675h2.3125zm4.6249 0h-2.3125v1.1675h2.3125zm4.6249 0H76.187v1.1675h2.3125zm4.6249 0h-2.3125v1.1675h2.3125zm4.6249 0h-2.3125v1.1675h2.3125zm5.7763 0h-3.4687v1.1627h3.4687zm4.6249 0h-3.4687v1.1627h3.4687zm4.6245 0h-3.4683v1.1627h3.4683zm4.625 0h-3.468v1.1627h3.468zm4.625 0h-3.469v1.1627h3.469zm4.625 0h-3.469v1.1627h3.469zm4.625 0h-3.469v1.1627h3.469zm4.625 0h-3.469v1.1627h3.469zm4.625 0h-3.469v1.1627h3.469zm4.625 0h-3.469v1.1627h3.469zm4.625 0h-3.469v1.1627h3.469zm-164.1844 2.3253h-3.4687v1.1626h3.4687zm4.6249 0h-3.4686v1.1626h3.4686zm4.6249 0h-3.4687v1.1626h3.4687zm4.6249 0h-3.4686v1.1626h3.4686zm4.62493 0h-3.46869v1.1626h3.46869zm4.62489 0h-3.46868v1.1626h3.46868zm4.62491 0H-.128647v1.1626H3.34003zm4.62489 0H4.49626v1.1626h3.46866zm4.62488 0H9.12115v1.1626h3.46865zm4.6249 0H13.746v1.1626h3.4687zm4.6249 0h-3.4687v1.1626h3.4687zm4.6249 0h-3.4687v1.1626h3.4687zm4.6249 0h-3.4687v1.1626h3.4687zm4.6249 0h-3.4686v1.1626h3.4686zm4.6249 0h-3.4687v1.1626h3.4687zm4.6249 0h-3.4687v1.1626h3.4687zm4.6249 0h-3.4687v1.1626h3.4687zm4.6249 0h-3.4686v1.1626h3.4686zm4.6249 0h-3.4686v1.1626h3.4686zm4.6249 0H59.995v1.1626h3.4687zm4.6249 0h-3.4687v1.1626h3.4687zm4.6249 0h-3.4687v1.1626h3.4687zm4.6249 0h-3.4687v1.1626h3.4687zm4.6249 0h-3.4687v1.1626h3.4687zm4.6249 0h-3.4687v1.1626h3.4687zm4.6249 0h-3.4686v1.1626h3.4686zm4.6249 0h-3.4686v1.1626h3.4686zm4.625 0h-3.4687v1.1626h3.4687zm4.625 0h-3.469v1.1626h3.469zm4.625 0h-3.469v1.1626h3.469zm4.625 0h-3.469v1.1626h3.469zm4.625 0h-3.469v1.1626h3.469zm4.624 0h-3.468v1.1626h3.468zm4.625 0h-3.468v1.1626h3.468zm4.625 0h-3.468v1.1626h3.468zm4.625 0h-3.469v1.1626h3.469zm4.625 0h-3.469v1.1626h3.469zm4.625 0h-3.469v1.1626h3.469zm-178.0587 2.3253h-3.4687v1.1626h3.4687zm4.6249 0h-3.4687v1.1626h3.4687zm4.6249 0h-3.4687v1.1626h3.4687zm4.6249 0h-3.4687v1.1626h3.4687zm4.6249 0h-3.4687v1.1626h3.4687zm4.62489 0h-3.46869v1.1626h3.46869zm4.62489 0h-3.46869v1.1626h3.46869zm4.62489 0H-2.4411v1.1626h3.46867zm4.6249 0H2.18379v1.1626h3.46868zm3.47348 0H6.81352v1.1674h2.31243zm4.62495 0h-2.3125v1.1674h2.3125zm4.6249 0h-2.3125v1.1674h2.3125zm4.6249 0h-2.3125v1.1674h2.3125zm4.6248 0h-2.3124v1.1674h2.3124zm4.625 0H29.938v1.1674h2.3125zm4.6249 0h-2.3125v1.1674h2.3125zm4.6249 0h-2.3125v1.1674h2.3125zm4.6249 0h-2.3125v1.1674h2.3125zm4.6249 0h-2.3125v1.1674h2.3125zm4.6249 0h-2.3125v1.1674h2.3125zm4.6248 0h-2.3124v1.1674h2.3124zm4.625 0h-2.3125v1.1674h2.3125zm4.6249 0h-2.3125v1.1674h2.3125zm4.6249 0h-2.3125v1.1674h2.3125zm4.6249 0H76.187v1.1674h2.3125zm4.6249 0h-2.3125v1.1674h2.3125zm4.6249 0h-2.3125v1.1674h2.3125zm4.6249 0h-2.3125v1.1674h2.3125zm4.6249 0h-2.3125v1.1674h2.3125zm4.6249 0h-2.3125v1.1674h2.3125zm4.625 0h-2.313v1.1674h2.313zm4.625 0h-2.313v1.1674h2.313zm5.776 0h-3.469v1.1626h3.469zm4.625 0h-3.469v1.1626h3.469zm4.625 0h-3.469v1.1626h3.469zm4.625 0h-3.469v1.1626h3.469zm4.625 0h-3.469v1.1626h3.469zm4.625 0h-3.469v1.1626h3.469zm4.624 0h-3.468v1.1626h3.468zm4.625 0h-3.468v1.1626h3.468zm4.625 0h-3.468v1.1626h3.468zm-187.3082 2.3252h-3.4686v1.1627h3.4686zm4.6249 0h-3.4687v1.1627h3.4687zm4.6249 0h-3.4687v1.1627h3.4687zm4.6249 0h-3.4686v1.1627h3.4686zm4.6249 0h-3.4687v1.1627h3.4687zm4.6249 0h-3.4686v1.1627h3.4686zm4.62493 0h-3.46869v1.1627h3.46869zm4.62489 0h-3.46868v1.1627h3.46868zm4.62491 0H-.128647v1.1627H3.34003zm4.62489 0H4.49626v1.1627h3.46866zm4.62488 0H9.12115v1.1627h3.46865zm4.6249 0H13.746v1.1627h3.4687zm4.6249 0h-3.4687v1.1627h3.4687zm4.6249 0h-3.4687v1.1627h3.4687zm4.6249 0h-3.4687v1.1627h3.4687zm4.6249 0h-3.4686v1.1627h3.4686zm4.6249 0h-3.4687v1.1627h3.4687zm4.6249 0h-3.4687v1.1627h3.4687zm4.6249 0h-3.4687v1.1627h3.4687zm4.6249 0h-3.4686v1.1627h3.4686zm4.6249 0h-3.4686v1.1627h3.4686zm4.6249 0H59.995v1.1627h3.4687zm4.6249 0h-3.4687v1.1627h3.4687zm4.6249 0h-3.4687v1.1627h3.4687zm4.6249 0h-3.4687v1.1627h3.4687zm4.6249 0h-3.4687v1.1627h3.4687zm4.6249 0h-3.4687v1.1627h3.4687zm4.6249 0h-3.4686v1.1627h3.4686zm4.6249 0h-3.4686v1.1627h3.4686zm4.625 0h-3.4687v1.1627h3.4687zm4.625 0h-3.469v1.1627h3.469zm4.625 0h-3.469v1.1627h3.469zm4.625 0h-3.469v1.1627h3.469zm4.625 0h-3.469v1.1627h3.469zm4.624 0h-3.468v1.1627h3.468zm4.625 0h-3.468v1.1627h3.468zm4.625 0h-3.468v1.1627h3.468zm4.625 0h-3.469v1.1627h3.469zm4.625 0h-3.469v1.1627h3.469zm4.625 0h-3.469v1.1627h3.469zm4.625 0h-3.469v1.1627h3.469zm4.625 0h-3.469v1.1627h3.469zm4.625 0h-3.469v1.1627h3.469zm-201.1835 2.3253h-3.4687v1.1626h3.4687zm4.6249 0h-3.4687v1.1626h3.4687zm4.6249 0h-3.4687v1.1626h3.4687zm4.6249 0h-3.4687v1.1626h3.4687zm4.6249 0h-3.4687v1.1626h3.4687zm4.6249 0h-3.4687v1.1626h3.4687zm4.6249 0h-3.4687v1.1626h3.4687zm3.47347 0h-2.31247v1.1675h2.31247zm4.6249 0H-7.0612v1.1675h2.31247zm4.624905 0H-2.43629v1.1675h2.312465zm4.624895 0H2.18861v1.1675h2.31246zm4.62488 0H6.81352v1.1675h2.31243zm4.62495 0h-2.3125v1.1675h2.3125zm4.6249 0h-2.3125v1.1675h2.3125zm4.6249 0h-2.3125v1.1675h2.3125zm4.6248 0h-2.3124v1.1675h2.3124zm4.625 0H29.938v1.1675h2.3125zm4.6249 0h-2.3125v1.1675h2.3125zm4.6249 0h-2.3125v1.1675h2.3125zm4.6249 0h-2.3125v1.1675h2.3125zm4.6249 0h-2.3125v1.1675h2.3125zm4.6249 0h-2.3125v1.1675h2.3125zm4.6248 0h-2.3124v1.1675h2.3124zm4.625 0h-2.3125v1.1675h2.3125zm4.6249 0h-2.3125v1.1675h2.3125zm4.6249 0h-2.3125v1.1675h2.3125zm4.6249 0H76.187v1.1675h2.3125zm4.6249 0h-2.3125v1.1675h2.3125zm4.6249 0h-2.3125v1.1675h2.3125zm4.6249 0h-2.3125v1.1675h2.3125zm4.6249 0h-2.3125v1.1675h2.3125zm4.6249 0h-2.3125v1.1675h2.3125zm4.625 0h-2.313v1.1675h2.313zm4.625 0h-2.313v1.1675h2.313zm4.625 0h-2.313v1.1675h2.313zm4.625 0h-2.313v1.1675h2.313zm4.624 0h-2.312v1.1675h2.312zm4.625 0h-2.312v1.1675h2.312zm5.777 0h-3.469v1.1626h3.469zm4.625 0h-3.469v1.1626h3.469zm4.624 0h-3.468v1.1626h3.468zm4.625 0h-3.468v1.1626h3.468zm4.625 0h-3.468v1.1626h3.468zm4.625 0h-3.469v1.1626h3.469zm4.625 0h-3.469v1.1626h3.469zm-210.4329 2.3253h-3.4686v1.1626h3.4686zm4.6249 0h-3.4686v1.1626h3.4686zm4.6249 0h-3.4686v1.1626h3.4686zm4.6249 0h-3.4686v1.1626h3.4686zm4.6249 0h-3.4687v1.1626h3.4687zm4.6249 0h-3.4687v1.1626h3.4687zm4.6249 0h-3.4686v1.1626h3.4686zm4.6249 0h-3.4687v1.1626h3.4687zm4.6249 0h-3.4686v1.1626h3.4686zm4.62493 0h-3.46869v1.1626h3.46869zm4.62489 0h-3.46868v1.1626h3.46868zm4.62491 0H-.128647v1.1626H3.34003zm4.62489 0H4.49626v1.1626h3.46866zm4.62488 0H9.12115v1.1626h3.46865zm4.6249 0H13.746v1.1626h3.4687zm4.6249 0h-3.4687v1.1626h3.4687zm4.6249 0h-3.4687v1.1626h3.4687zm4.6249 0h-3.4687v1.1626h3.4687zm4.6249 0h-3.4686v1.1626h3.4686zm4.6249 0h-3.4687v1.1626h3.4687zm4.6249 0h-3.4687v1.1626h3.4687zm4.6249 0h-3.4687v1.1626h3.4687zm4.6249 0h-3.4686v1.1626h3.4686zm4.6249 0h-3.4686v1.1626h3.4686zm4.6249 0H59.995v1.1626h3.4687zm4.6249 0h-3.4687v1.1626h3.4687zm4.6249 0h-3.4687v1.1626h3.4687zm4.6249 0h-3.4687v1.1626h3.4687zm4.6249 0h-3.4687v1.1626h3.4687zm4.6249 0h-3.4687v1.1626h3.4687zm4.6249 0h-3.4686v1.1626h3.4686zm4.6249 0h-3.4686v1.1626h3.4686zm4.625 0h-3.4687v1.1626h3.4687zm4.625 0h-3.469v1.1626h3.469zm4.625 0h-3.469v1.1626h3.469zm4.625 0h-3.469v1.1626h3.469zm4.625 0h-3.469v1.1626h3.469zm4.624 0h-3.468v1.1626h3.468zm4.625 0h-3.468v1.1626h3.468zm4.625 0h-3.468v1.1626h3.468zm4.625 0h-3.469v1.1626h3.469zm4.625 0h-3.469v1.1626h3.469zm4.625 0h-3.469v1.1626h3.469zm4.625 0h-3.469v1.1626h3.469zm4.625 0h-3.469v1.1626h3.469zm4.625 0h-3.469v1.1626h3.469zm4.625 0h-3.469v1.1626h3.469zm4.624 0h-3.468v1.1626h3.468zm-219.6823 2.3252h-3.4687v1.1627h3.4687zm4.6249 0h-3.4687v1.1627h3.4687zm4.6249 0h-3.4687v1.1627h3.4687zm4.6249 0h-3.4687v1.1627h3.4687zm4.6249 0h-3.4687v1.1627h3.4687zm4.6249 0h-3.4687v1.1627h3.4687zm3.4735 0h-2.3125v1.1675h2.3125zm4.6249 0h-2.3125v1.1675h2.3125zm4.6249 0h-2.3125v1.1675h2.3125zm4.62487 0h-2.31247v1.1675h2.31247zm4.6249 0H-7.0612v1.1675h2.31247zm4.624905 0H-2.43629v1.1675h2.312465zm4.624895 0H2.18861v1.1675h2.31246zm4.62488 0H6.81352v1.1675h2.31243zm4.62495 0h-2.3125v1.1675h2.3125zm4.6249 0h-2.3125v1.1675h2.3125zm4.6249 0h-2.3125v1.1675h2.3125zm4.6248 0h-2.3124v1.1675h2.3124zm4.625 0H29.938v1.1675h2.3125zm4.6249 0h-2.3125v1.1675h2.3125zm4.6249 0h-2.3125v1.1675h2.3125zm4.6249 0h-2.3125v1.1675h2.3125zm4.6249 0h-2.3125v1.1675h2.3125zm4.6249 0h-1.1563v1.1627h1.1563zm4.6248 0h-1.1562v1.1627h1.1562zm4.625 0h-1.1563v1.1627h1.1563zm4.6249 0h-1.1563v1.1627h1.1563zm4.6249 0h-2.3125v1.1675h2.3125zm4.6249 0H76.187v1.1675h2.3125zm4.6249 0h-2.3125v1.1675h2.3125zm4.6249 0h-2.3125v1.1675h2.3125zm4.6249 0h-2.3125v1.1675h2.3125zm4.6249 0h-2.3125v1.1675h2.3125zm4.6249 0h-2.3125v1.1675h2.3125zm4.625 0h-2.313v1.1675h2.313zm4.625 0h-2.313v1.1675h2.313zm4.625 0h-2.313v1.1675h2.313zm4.625 0h-2.313v1.1675h2.313zm4.624 0h-2.312v1.1675h2.312zm4.625 0h-2.312v1.1675h2.312zm4.625 0h-2.312v1.1675h2.312zm4.625 0h-2.312v1.1675h2.312zm4.625 0h-2.312v1.1675h2.312zm5.776 0h-3.468v1.1627h3.468zm4.625 0h-3.468v1.1627h3.468zm4.625 0h-3.469v1.1627h3.469zm4.625 0h-3.469v1.1627h3.469zm4.625 0h-3.469v1.1627h3.469zm4.625 0h-3.469v1.1627h3.469zM-56.7837 31.727h-3.4686v1.1626h3.4686zm4.6249 0h-3.4686v1.1626h3.4686zm4.6249 0h-3.4686v1.1626h3.4686zm4.6249 0h-3.4686v1.1626h3.4686zm4.6249 0h-3.4686v1.1626h3.4686zm4.6249 0h-3.4686v1.1626h3.4686zm4.6249 0h-3.4687v1.1626h3.4687zm4.6249 0h-3.4687v1.1626h3.4687zm4.6249 0h-3.4686v1.1626h3.4686zm4.6249 0h-3.4687v1.1626h3.4687zm4.6249 0h-3.4686v1.1626h3.4686zm4.62493 0h-3.46869v1.1626h3.46869zm4.62489 0h-3.46868v1.1626h3.46868zm4.62491 0H-.128647v1.1626H3.34003zm4.62489 0H4.49626v1.1626h3.46866zm4.62488 0H9.12115v1.1626h3.46865zm4.6249 0H13.746v1.1626h3.4687zm4.6249 0h-3.4687v1.1626h3.4687zm3.4735 0h-2.3124v1.1675h2.3124zm4.6249 0h-2.3125v1.1675h2.3125zm4.6249 0h-2.3124v1.1675h2.3124zm4.6249 0h-2.3124v1.1675h2.3124zm4.6249 0h-2.3124v1.1675h2.3124zm4.6249 0h-2.3124v1.1675h2.3124zm4.6249 0h-2.3124v1.1675h2.3124zm4.6249 0H55.375v1.1675h2.3124zm4.6249 0h-2.3125v1.1675h2.3125zm4.6249 0h-2.3124v1.1675h2.3124zm4.6249 0h-2.3124v1.1675h2.3124zm4.6249 0h-2.3124v1.1675h2.3124zm4.6249 0h-2.3124v1.1675h2.3124zm4.6249 0h-2.3124v1.1675h2.3124zm4.6249 0h-2.3124v1.1675h2.3124zm5.7763 0h-3.4686v1.1626h3.4686zm4.625 0h-3.4687v1.1626h3.4687zm4.625 0h-3.469v1.1626h3.469zm4.625 0h-3.469v1.1626h3.469zm4.625 0h-3.469v1.1626h3.469zm4.625 0h-3.469v1.1626h3.469zm4.624 0h-3.468v1.1626h3.468zm4.625 0h-3.468v1.1626h3.468zm4.625 0h-3.468v1.1626h3.468zm4.625 0h-3.469v1.1626h3.469zm4.625 0h-3.469v1.1626h3.469zm4.625 0h-3.469v1.1626h3.469zm4.625 0h-3.469v1.1626h3.469zm4.625 0h-3.469v1.1626h3.469zm4.625 0h-3.469v1.1626h3.469zm4.625 0h-3.469v1.1626h3.469zm4.624 0h-3.468v1.1626h3.468zm4.625 0h-3.468v1.1626h3.468zm4.625 0h-3.468v1.1626h3.468zm-238.1821 2.3252h-3.4687v1.1627h3.4687zm4.6249 0h-3.4687v1.1627h3.4687zm4.6249 0h-3.4687v1.1627h3.4687zm4.6249 0h-3.4687v1.1627h3.4687zm4.6249 0h-3.4687v1.1627h3.4687zm3.4735 0h-2.3125v1.1675h2.3125zm4.6249 0h-2.3125v1.1675h2.3125zm4.6249 0h-2.3125v1.1675h2.3125zm4.6249 0h-2.3125v1.1675h2.3125zm4.6249 0h-2.3125v1.1675h2.3125zm4.6249 0h-2.3125v1.1675h2.3125zm4.62487 0h-2.31247v1.1675h2.31247zm4.6249 0H-7.0612v1.1675h2.31247zm4.624905 0H-2.43629v1.1675h2.312465zm4.624895 0H2.18861v1.1675h2.31246zm4.62488 0H6.81352v1.1675h2.31243zm4.62495 0h-2.3125v1.1675h2.3125zm4.6249 0h-1.1563v1.1627h1.1563zm4.6249 0h-1.1563v1.1627h1.1563zm4.6248 0h-1.1562v1.1627h1.1562zm4.625 0h-1.1563v1.1627h1.1563zm4.6249 0h-1.1563v1.1627h1.1563zm4.6249 0H40.344v1.1627h1.1563zm4.6249 0h-1.1563v1.1627h1.1563zm4.6249 0h-1.1563v1.1627h1.1563zm4.6249 0h-1.1563v1.1627h1.1563zm4.6248 0h-1.1562v1.1627h1.1562zm4.625 0h-1.1563v1.1627h1.1563zm4.6249 0h-1.1563v1.1627h1.1563zm4.6249 0h-1.1563v1.1627h1.1563zm4.6249 0h-1.1563v1.1627h1.1563zm4.6249 0h-1.1563v1.1627h1.1563zm4.6249 0h-1.1562v1.1627h1.1562zm4.6249 0h-1.1563v1.1627h1.1563zm4.6249 0h-1.1563v1.1627h1.1563zm4.6249 0h-1.156v1.1627h1.156zm4.625 0h-1.156v1.1627h1.156zm4.625 0h-2.313v1.1675h2.313zm4.625 0h-2.313v1.1675h2.313zm4.625 0h-2.313v1.1675h2.313zm4.624 0h-2.312v1.1675h2.312zm4.625 0h-2.312v1.1675h2.312zm4.625 0h-2.312v1.1675h2.312zm4.625 0h-2.312v1.1675h2.312zm4.625 0h-2.312v1.1675h2.312zm4.625 0h-2.313v1.1675h2.313zm4.625 0h-2.313v1.1675h2.313zm5.776 0h-3.469v1.1627h3.469zm4.625 0h-3.469v1.1627h3.469zm4.625 0h-3.469v1.1627h3.469zm4.625 0h-3.469v1.1627h3.469zm4.625 0h-3.469v1.1627h3.469zm4.625 0h-3.469v1.1627h3.469zm-247.4325 2.3253h-3.4686v1.1626h3.4686zm4.6249 0h-3.4686v1.1626h3.4686zm4.6249 0h-3.4686v1.1626h3.4686zm4.6249 0h-3.4686v1.1626h3.4686zm4.6249 0h-3.4686v1.1626h3.4686zm4.6249 0h-3.4686v1.1626h3.4686zm4.6249 0h-3.4686v1.1626h3.4686zm4.6249 0h-3.4686v1.1626h3.4686zm4.6249 0h-3.4687v1.1626h3.4687zm4.6249 0h-3.4687v1.1626h3.4687zm4.6249 0h-3.4686v1.1626h3.4686zm4.6249 0h-3.4687v1.1626h3.4687zm4.6249 0h-3.4686v1.1626h3.4686zm4.62493 0h-3.46869v1.1626h3.46869zm4.62489 0h-3.46868v1.1626h3.46868zm4.62491 0H-.128647v1.1626H3.34003zm3.47349 0H4.50107v1.1675h2.31245zm4.62488 0H9.12595v1.1675h2.31245zm4.6249 0h-2.3124v1.1675h2.3124zm4.6249 0h-2.3124v1.1675h2.3124zm4.6249 0h-2.3124v1.1675h2.3124zm4.6249 0h-2.3125v1.1675h2.3125zm4.6249 0h-2.3124v1.1675h2.3124zm4.6249 0h-2.3124v1.1675h2.3124zm4.6249 0h-2.3124v1.1675h2.3124zm4.6249 0h-2.3124v1.1675h2.3124zm4.6249 0h-2.3124v1.1675h2.3124zm4.6249 0H55.375v1.1675h2.3124zm4.6249 0h-2.3125v1.1675h2.3125zm4.6249 0h-2.3124v1.1675h2.3124zm4.6249 0h-2.3124v1.1675h2.3124zm4.6249 0h-2.3124v1.1675h2.3124zm4.6249 0h-2.3124v1.1675h2.3124zm4.6249 0h-2.3124v1.1675h2.3124zm4.6249 0h-2.3124v1.1675h2.3124zm4.6249 0h-2.3124v1.1675h2.3124zm4.6249 0h-2.3124v1.1675h2.3124zm4.6245 0h-2.312v1.1675h2.312zm4.625 0h-2.312v1.1675h2.312zm4.625 0h-2.312v1.1675h2.312zm5.777 0h-3.469v1.1626h3.469zm4.624 0h-3.468v1.1626h3.468zm4.625 0h-3.468v1.1626h3.468zm4.625 0h-3.468v1.1626h3.468zm4.625 0h-3.469v1.1626h3.469zm4.625 0h-3.469v1.1626h3.469zm4.625 0h-3.469v1.1626h3.469zm4.625 0h-3.469v1.1626h3.469zm4.625 0h-3.469v1.1626h3.469zm4.625 0h-3.469v1.1626h3.469zm4.625 0h-3.469v1.1626h3.469zm4.624 0h-3.468v1.1626h3.468zm4.625 0h-3.468v1.1626h3.468zm4.625 0h-3.468v1.1626h3.468zm4.625 0h-3.469v1.1626h3.469zm4.625 0h-3.469v1.1626h3.469zm-256.6819 2.3253h-3.4687v1.1626h3.4687zm4.6249 0h-3.4687v1.1626h3.4687zm4.6249 0h-3.4687v1.1626h3.4687zm4.6249 0h-3.4687v1.1626h3.4687zm4.6249 0h-3.4687v1.1626h3.4687zm3.4735 0h-2.3125v1.1675h2.3125zm4.6249 0h-2.3125v1.1675h2.3125zm4.6249 0h-2.3125v1.1675h2.3125zm4.6249 0h-2.3125v1.1675h2.3125zm4.6249 0h-2.3125v1.1675h2.3125zm4.6249 0h-2.3125v1.1675h2.3125zm4.6249 0h-2.3125v1.1675h2.3125zm4.6249 0h-2.3125v1.1675h2.3125zm4.62487 0h-2.31247v1.1675h2.31247zm4.6249 0H-7.0612v1.1675h2.31247zm4.624905 0H-1.28006v1.1626h1.156235zm4.624895 0H3.34483v1.1626h1.15624zm4.62488 0H7.96974v1.1626h1.15621zm4.62495 0h-1.1562v1.1626h1.1562zm4.6249 0h-1.1563v1.1626h1.1563zm4.6249 0h-1.1563v1.1626h1.1563zm4.6248 0h-1.1562v1.1626h1.1562zm4.625 0h-1.1563v1.1626h1.1563zm4.6249 0h-1.1563v1.1626h1.1563zm4.6249 0H40.344v1.1626h1.1563zm4.6249 0h-1.1563v1.1626h1.1563zm4.6249 0h-1.1563v1.1626h1.1563zm4.6249 0h-1.1563v1.1626h1.1563zm4.6248 0h-1.1562v1.1626h1.1562zm4.625 0h-1.1563v1.1626h1.1563zm4.6249 0h-1.1563v1.1626h1.1563zm4.6249 0h-1.1563v1.1626h1.1563zm4.6249 0h-1.1563v1.1626h1.1563zm4.6249 0h-1.1563v1.1626h1.1563zm4.6249 0h-1.1562v1.1626h1.1562zm4.6249 0h-1.1563v1.1626h1.1563zm4.6249 0h-1.1563v1.1626h1.1563zm4.6249 0h-1.156v1.1626h1.156zm4.625 0h-1.156v1.1626h1.156zm4.625 0h-1.156v1.1626h1.156zm4.625 0h-1.157v1.1626h1.157zm4.625 0h-1.157v1.1626h1.157zm4.624 0h-1.156v1.1626h1.156zm4.625 0h-2.312v1.1675h2.312zm4.625 0h-2.312v1.1675h2.312zm4.625 0h-2.312v1.1675h2.312zm4.625 0h-2.312v1.1675h2.312zm4.625 0h-2.313v1.1675h2.313zm4.625 0h-2.313v1.1675h2.313zm4.625 0h-2.313v1.1675h2.313zm4.625 0h-2.313v1.1675h2.313zm4.625 0h-2.313v1.1675h2.313zm5.776 0h-3.469v1.1626h3.469zm4.625 0h-3.469v1.1626h3.469zm4.625 0h-3.469v1.1626h3.469zm4.625 0h-3.469v1.1626h3.469zm4.624 0h-3.468v1.1626h3.468zM-70.6584 41.028h-3.4686v1.1627h3.4686zm4.6249 0h-3.4686v1.1627h3.4686zm4.6249 0h-3.4686v1.1627h3.4686zm4.6249 0h-3.4686v1.1627h3.4686zm4.6249 0h-3.4686v1.1627h3.4686zm4.6249 0h-3.4686v1.1627h3.4686zm4.6249 0h-3.4686v1.1627h3.4686zm4.6249 0h-3.4686v1.1627h3.4686zm4.6249 0h-3.4686v1.1627h3.4686zm4.6249 0h-3.4687v1.1627h3.4687zm4.6249 0h-3.4687v1.1627h3.4687zm4.6249 0h-3.4686v1.1627h3.4686zm4.6249 0h-3.4687v1.1627h3.4687zm3.4735 0h-2.3124v1.1675h2.3124zm4.6249 0h-2.31243v1.1675h2.31243zm4.62491 0h-2.31244v1.1675h2.31244zm4.6249 0H-.123825v1.1675H2.18861zm4.62491 0H4.50107v1.1675h2.31245zm4.62488 0H9.12595v1.1675h2.31245zm4.6249 0h-2.3124v1.1675h2.3124zm4.6249 0h-2.3124v1.1675h2.3124zm4.6249 0h-2.3124v1.1675h2.3124zm4.6249 0h-2.3125v1.1675h2.3125zm4.6249 0h-2.3124v1.1675h2.3124zm4.6249 0h-2.3124v1.1675h2.3124zm4.6249 0h-2.3124v1.1675h2.3124zm4.6249 0h-2.3124v1.1675h2.3124zm4.6249 0h-2.3124v1.1675h2.3124zm4.6249 0H55.375v1.1675h2.3124zm4.6249 0h-2.3125v1.1675h2.3125zm4.6249 0h-2.3124v1.1675h2.3124zm4.6249 0h-2.3124v1.1675h2.3124zm4.6249 0h-2.3124v1.1675h2.3124zm4.6249 0h-2.3124v1.1675h2.3124zm4.6249 0h-2.3124v1.1675h2.3124zm4.6249 0h-2.3124v1.1675h2.3124zm4.6249 0h-2.3124v1.1675h2.3124zm4.6249 0h-2.3124v1.1675h2.3124zm4.6245 0h-2.312v1.1675h2.312zm4.625 0h-2.312v1.1675h2.312zm4.625 0h-2.312v1.1675h2.312zm4.625 0h-2.312v1.1675h2.312zm4.625 0h-2.312v1.1675h2.312zm4.625 0h-2.313v1.1675h2.313zm5.776 0h-3.468v1.1627h3.468zm4.625 0h-3.469v1.1627h3.469zm4.625 0h-3.469v1.1627h3.469zm4.625 0h-3.469v1.1627h3.469zm4.625 0h-3.469v1.1627h3.469zm4.625 0h-3.469v1.1627h3.469zm4.625 0h-3.469v1.1627h3.469zm4.625 0h-3.469v1.1627h3.469zm4.624 0h-3.468v1.1627h3.468zm4.625 0h-3.468v1.1627h3.468zm4.625 0h-3.468v1.1627h3.468zm4.625 0h-3.469v1.1627h3.469zm4.625 0h-3.469v1.1627h3.469zm4.625 0h-3.469v1.1627h3.469zm4.625 0h-3.469v1.1627h3.469zm-275.1817 2.3253h-3.4687v1.1626h3.4687zm4.6249 0h-3.4687v1.1626h3.4687zm4.6249 0h-3.4687v1.1626h3.4687zm4.6249 0h-3.4687v1.1626h3.4687zm4.6249 0h-3.4687v1.1626h3.4687zm3.4735 0h-2.3125v1.1675h2.3125zm4.6249 0h-2.3125v1.1675h2.3125zm4.6249 0h-2.3125v1.1675h2.3125zm4.6249 0h-2.3125v1.1675h2.3125zm4.6249 0h-2.3125v1.1675h2.3125zm4.6249 0h-2.3125v1.1675h2.3125zm4.6249 0h-2.3125v1.1675h2.3125zm4.6249 0h-2.3125v1.1675h2.3125zm4.6249 0h-2.3125v1.1675h2.3125zm4.6249 0h-1.1563v1.1626h1.1563zm4.62487 0h-1.15627v1.1626h1.15627zm4.6249 0h-1.15622v1.1626h1.15622zm4.624905 0H-1.28006v1.1626h1.156235zm4.624895 0H3.34483v1.1626h1.15624zm4.62488 0H7.96974v1.1626h1.15621zm4.62495 0h-1.1562v1.1626h1.1562zm4.6249 0h-1.1563v1.1626h1.1563zm4.6249 0h-1.1563v1.1626h1.1563zm4.6248 0h-1.1562v1.1626h1.1562zm4.625 0h-1.1563v1.1626h1.1563zm4.6249 0h-1.1563v1.1626h1.1563zm4.6249 0H40.344v1.1626h1.1563zm4.6249 0h-1.1563v1.1626h1.1563zm4.6249 0h-1.1563v1.1626h1.1563zm4.6249 0h-1.1563v1.1626h1.1563zm4.6248 0h-1.1562v1.1626h1.1562zm4.625 0h-1.1563v1.1626h1.1563zm4.6249 0h-1.1563v1.1626h1.1563zm4.6249 0h-1.1563v1.1626h1.1563zm4.6249 0h-1.1563v1.1626h1.1563zm4.6249 0h-1.1563v1.1626h1.1563zm4.6249 0h-1.1562v1.1626h1.1562zm4.6249 0h-1.1563v1.1626h1.1563zm4.6249 0h-1.1563v1.1626h1.1563zm4.6249 0h-1.156v1.1626h1.156zm4.625 0h-1.156v1.1626h1.156zm4.625 0h-1.156v1.1626h1.156zm4.625 0h-1.157v1.1626h1.157zm4.625 0h-1.157v1.1626h1.157zm4.624 0h-1.156v1.1626h1.156zm4.625 0h-1.156v1.1626h1.156zm4.625 0h-1.156v1.1626h1.156zm4.625 0h-1.156v1.1626h1.156zm4.625 0h-2.312v1.1675h2.312zm4.625 0h-2.313v1.1675h2.313zm4.625 0h-2.313v1.1675h2.313zm4.625 0h-2.313v1.1675h2.313zm4.625 0h-2.313v1.1675h2.313zm4.625 0h-2.313v1.1675h2.313zm4.624 0h-2.312v1.1675h2.312zm4.625 0h-2.312v1.1675h2.312zm5.777 0h-3.469v1.1626h3.469zm4.625 0h-3.469v1.1626h3.469zm4.624 0h-3.468v1.1626h3.468zm4.625 0h-3.468v1.1626h3.468zm4.625 0h-3.468v1.1626h3.468zm-279.8062 2.3253h-3.4686v1.1626h3.4686zm4.6249 0h-3.4686v1.1626h3.4686zm4.6249 0h-3.4686v1.1626h3.4686zm4.6249 0h-3.4686v1.1626h3.4686zm4.6249 0h-3.4686v1.1626h3.4686zm4.6249 0h-3.4686v1.1626h3.4686zm4.6249 0h-3.4686v1.1626h3.4686zm4.6249 0h-3.4686v1.1626h3.4686zm4.6249 0h-3.4686v1.1626h3.4686zm4.6249 0h-3.4686v1.1626h3.4686zm4.6249 0h-3.4686v1.1626h3.4686zm4.6249 0h-3.4687v1.1626h3.4687zm3.4735 0h-2.3124v1.1675h2.3124zm4.6249 0h-2.3124v1.1675h2.3124zm4.6249 0h-2.3124v1.1675h2.3124zm4.6249 0h-2.3124v1.1675h2.3124zm4.6249 0h-2.31243v1.1675h2.31243zm4.62491 0h-2.31244v1.1675h2.31244zm4.6249 0H-.123825v1.1675H2.18861zm4.62491 0H4.50107v1.1675h2.31245zm4.62488 0H9.12595v1.1675h2.31245zm4.6249 0h-2.3124v1.1675h2.3124zm4.6249 0h-2.3124v1.1675h2.3124zm4.6249 0h-2.3124v1.1675h2.3124zm4.6249 0h-2.3125v1.1675h2.3125zm4.6249 0h-2.3124v1.1675h2.3124zm4.6249 0h-2.3124v1.1675h2.3124zm4.6249 0h-2.3124v1.1675h2.3124zm4.6249 0h-2.3124v1.1675h2.3124zm4.6249 0h-2.3124v1.1675h2.3124zm4.6249 0H55.375v1.1675h2.3124zm4.6249 0h-2.3125v1.1675h2.3125zm4.6249 0h-2.3124v1.1675h2.3124zm4.6249 0h-2.3124v1.1675h2.3124zm4.6249 0h-2.3124v1.1675h2.3124zm4.6249 0h-2.3124v1.1675h2.3124zm4.6249 0h-2.3124v1.1675h2.3124zm4.6249 0h-2.3124v1.1675h2.3124zm4.6249 0h-2.3124v1.1675h2.3124zm4.6249 0h-2.3124v1.1675h2.3124zm4.6245 0h-2.312v1.1675h2.312zm4.625 0h-2.312v1.1675h2.312zm4.625 0h-2.312v1.1675h2.312zm4.625 0h-2.312v1.1675h2.312zm4.625 0h-2.312v1.1675h2.312zm4.625 0h-2.313v1.1675h2.313zm4.625 0h-2.313v1.1675h2.313zm4.625 0h-2.313v1.1675h2.313zm4.625 0h-2.313v1.1675h2.313zm5.776 0h-3.469v1.1626h3.469zm4.625 0h-3.469v1.1626h3.469zm4.625 0h-3.469v1.1626h3.469zm4.625 0h-3.469v1.1626h3.469zm4.625 0h-3.469v1.1626h3.469zm4.624 0h-3.468v1.1626h3.468zm4.625 0h-3.468v1.1626h3.468zm4.625 0h-3.468v1.1626h3.468zm4.625 0h-3.469v1.1626h3.469zm4.625 0h-3.469v1.1626h3.469zm4.625 0h-3.469v1.1626h3.469zm4.625 0h-3.469v1.1626h3.469zm4.625 0h-3.469v1.1626h3.469zm-284.4316 2.3253h-3.4687v1.1626h3.4687zm4.6249 0h-3.4687v1.1626h3.4687zm4.6249 0h-3.4687v1.1626h3.4687zm4.6249 0h-3.4687v1.1626h3.4687zm3.4735 0h-2.3125v1.1674h2.3125zm4.6249 0H-62.56v1.1674h2.3125zm4.6249 0h-2.3125v1.1674h2.3125zm4.6249 0h-2.3125v1.1674h2.3125zm4.6249 0h-2.3125v1.1674h2.3125zm4.6249 0h-2.3125v1.1674h2.3125zm4.6249 0h-2.3125v1.1674h2.3125zm4.6249 0h-2.3125v1.1674h2.3125zm4.6249 0h-1.1562v1.1626h1.1562zm4.6249 0h-1.1563v1.1626h1.1563zm4.6249 0h-1.1563v1.1626h1.1563zm4.6249 0h-1.1563v1.1626h1.1563zm4.62487 0h-1.15627v1.1626h1.15627zm4.6249 0h-1.15622v1.1626h1.15622zm4.624905 0H-1.28006v1.1626h1.156235zm4.624895 0H3.34483v1.1626h1.15624zm4.62488 0H7.96974v1.1626h1.15621zm4.62495 0h-1.1562v1.1626h1.1562zm4.6249 0h-1.1563v1.1626h1.1563zm4.6249 0h-1.1563v1.1626h1.1563zm4.6248 0h-1.1562v1.1626h1.1562zm4.625 0h-1.1563v1.1626h1.1563zm4.6249 0h-1.1563v1.1626h1.1563zm4.6249 0H40.344v1.1626h1.1563zm4.6249 0h-1.1563v1.1626h1.1563zm4.6249 0h-1.1563v1.1626h1.1563zm4.6249 0h-1.1563v1.1626h1.1563zm4.6248 0h-1.1562v1.1626h1.1562zm4.625 0h-1.1563v1.1626h1.1563zm4.6249 0h-1.1563v1.1626h1.1563zm4.6249 0h-1.1563v1.1626h1.1563zm4.6249 0h-1.1563v1.1626h1.1563zm4.6249 0h-1.1563v1.1626h1.1563zm4.6249 0h-1.1562v1.1626h1.1562zm4.6249 0h-1.1563v1.1626h1.1563zm4.6249 0h-1.1563v1.1626h1.1563zm4.6249 0h-1.156v1.1626h1.156zm4.625 0h-1.156v1.1626h1.156zm4.625 0h-1.156v1.1626h1.156zm4.625 0h-1.157v1.1626h1.157zm4.625 0h-1.157v1.1626h1.157zm4.624 0h-1.156v1.1626h1.156zm4.625 0h-1.156v1.1626h1.156zm4.625 0h-1.156v1.1626h1.156zm4.625 0h-1.156v1.1626h1.156zm4.625 0h-1.156v1.1626h1.156zm4.625 0h-1.156v1.1626h1.156zm4.625 0h-2.313v1.1674h2.313zm4.625 0h-2.313v1.1674h2.313zm4.625 0h-2.313v1.1674h2.313zm4.625 0h-2.313v1.1674h2.313zm4.624 0h-2.312v1.1674h2.312zm4.625 0h-2.312v1.1674h2.312zm4.625 0h-2.312v1.1674h2.312zm4.625 0h-2.312v1.1674h2.312zm5.776 0h-3.468v1.1626h3.468zm4.625 0h-3.468v1.1626h3.468zm4.625 0h-3.468v1.1626h3.468zm4.625 0h-3.469v1.1626h3.469zm-293.681 2.3252h-3.4686v1.1626h3.4686zm4.6249 0h-3.4686v1.1626h3.4686zm4.6249 0h-3.4686v1.1626h3.4686zm4.6249 0h-3.4686v1.1626h3.4686zm4.6249 0h-3.4686v1.1626h3.4686zm4.6249 0h-3.4686v1.1626h3.4686zm4.6249 0h-3.4686v1.1626h3.4686zm4.6249 0h-3.4686v1.1626h3.4686zm4.6249 0h-3.4686v1.1626h3.4686zm4.6249 0h-3.4686v1.1626h3.4686zm4.6249 0h-3.4686v1.1626h3.4686zm4.6249 0h-3.4686v1.1626h3.4686zm3.4735 0h-2.3124v1.1675h2.3124zm4.6249 0h-2.3124v1.1675h2.3124zm4.6249 0h-2.3124v1.1675h2.3124zm4.6249 0h-2.3124v1.1675h2.3124zm4.6249 0h-2.3124v1.1675h2.3124zm4.6249 0h-2.3124v1.1675h2.3124zm4.6249 0h-2.31243v1.1675h2.31243zm4.62491 0h-2.31244v1.1675h2.31244zm4.6249 0H-.123825v1.1675H2.18861zm4.62491 0H4.50107v1.1675h2.31245zm4.62488 0H9.12595v1.1675h2.31245zm4.6249 0h-2.3124v1.1675h2.3124zm4.6249 0h-2.3124v1.1675h2.3124zm4.6249 0h-2.3124v1.1675h2.3124zm4.6249 0h-2.3125v1.1675h2.3125zm4.6249 0h-2.3124v1.1675h2.3124zm3.4687 0h-1.1562v1.1626h1.1562zm4.6249 0h-1.1562v1.1626h1.1562zm4.6249 0h-1.1562v1.1626h1.1562zm4.6249 0h-1.1562v1.1626h1.1562zm4.6249 0H55.375v1.1626h1.1562zm4.6249 0h-1.1563v1.1626h1.1563zm4.6249 0h-1.1562v1.1626h1.1562zm4.6249 0h-1.1562v1.1626h1.1562zm4.6249 0h-1.1562v1.1626h1.1562zm4.6249 0h-1.1562v1.1626h1.1562zm5.7811 0h-2.3124v1.1675h2.3124zm4.6249 0h-2.3124v1.1675h2.3124zm4.6249 0h-2.3124v1.1675h2.3124zm4.6249 0h-2.3124v1.1675h2.3124zm4.6245 0h-2.312v1.1675h2.312zm4.625 0h-2.312v1.1675h2.312zm4.625 0h-2.312v1.1675h2.312zm4.625 0h-2.312v1.1675h2.312zm4.625 0h-2.312v1.1675h2.312zm4.625 0h-2.313v1.1675h2.313zm4.625 0h-2.313v1.1675h2.313zm4.625 0h-2.313v1.1675h2.313zm4.625 0h-2.313v1.1675h2.313zm4.624 0h-2.312v1.1675h2.312zm4.625 0h-2.312v1.1675h2.312zm4.625 0h-2.312v1.1675h2.312zm5.777 0h-3.469v1.1626h3.469zm4.625 0h-3.469v1.1626h3.469zm4.624 0h-3.468v1.1626h3.468zm4.625 0h-3.468v1.1626h3.468zm4.625 0h-3.468v1.1626h3.468zm4.625 0h-3.469v1.1626h3.469zm4.625 0h-3.469v1.1626h3.469zm4.625 0h-3.469v1.1626h3.469zm4.625 0h-3.469v1.1626h3.469zm4.625 0h-3.469v1.1626h3.469zm4.625 0h-3.469v1.1626h3.469zm4.625 0h-3.469v1.1626h3.469zm-302.9314 2.3253h-3.4687v1.1626h3.4687zm4.6249 0h-3.4687v1.1626h3.4687zm4.6249 0h-3.4687v1.1626h3.4687zm4.6249 0h-3.4687v1.1626h3.4687zm3.4735 0h-2.3125v1.1675h2.3125zm4.6249 0h-2.3125v1.1675h2.3125zm4.6249 0h-2.3125v1.1675h2.3125zm4.6249 0H-62.56v1.1675h2.3125zm4.6249 0h-2.3125v1.1675h2.3125zm4.6249 0h-2.3125v1.1675h2.3125zm4.6249 0h-2.3125v1.1675h2.3125zm4.6249 0h-2.3125v1.1675h2.3125zm4.6249 0h-1.1563v1.1626h1.1563zm4.6249 0h-1.1563v1.1626h1.1563zm4.6249 0h-1.1562v1.1626h1.1562zm4.6249 0h-1.1563v1.1626h1.1563zm4.6249 0h-1.1563v1.1626h1.1563zm4.6249 0h-1.1563v1.1626h1.1563zm4.62487 0h-1.15627v1.1626h1.15627zm4.6249 0h-1.15622v1.1626h1.15622zm4.624905 0H-1.28006v1.1626h1.156235zm4.624895 0H3.34483v1.1626h1.15624zm4.62488 0H7.96974v1.1626h1.15621zm4.62495 0h-1.1562v1.1626h1.1562zm4.6249 0h-1.1563v1.1626h1.1563zm83.2482 0h-1.156v1.1626h1.156zm4.625 0h-1.156v1.1626h1.156zm4.625 0h-1.156v1.1626h1.156zm4.625 0h-1.157v1.1626h1.157zm4.625 0h-1.157v1.1626h1.157zm4.624 0h-1.156v1.1626h1.156zm4.625 0h-1.156v1.1626h1.156zm4.625 0h-1.156v1.1626h1.156zm4.625 0h-1.156v1.1626h1.156zm4.625 0h-1.156v1.1626h1.156zm4.625 0h-1.156v1.1626h1.156zm4.625 0h-1.156v1.1626h1.156zm4.625 0h-1.156v1.1626h1.156zm4.625 0h-1.157v1.1626h1.157zm4.625 0h-2.313v1.1675h2.313zm4.624 0h-2.312v1.1675h2.312zm4.625 0h-2.312v1.1675h2.312zm4.625 0h-2.312v1.1675h2.312zm4.625 0h-2.312v1.1675h2.312zm4.625 0h-2.312v1.1675h2.312zm5.776 0h-3.468v1.1626h3.468zm4.625 0h-3.468v1.1626h3.468zm4.625 0h-3.469v1.1626h3.469zm4.625 0h-3.469v1.1626h3.469zm4.625 0h-3.469v1.1626h3.469zm-307.5559 2.3252h-3.4686v1.1627h3.4686zm4.6249 0h-3.4686v1.1627h3.4686zm4.6249 0h-3.4686v1.1627h3.4686zm4.6249 0h-3.4686v1.1627h3.4686zm4.6249 0h-3.4686v1.1627h3.4686zm4.6249 0h-3.4686v1.1627h3.4686zm4.6249 0h-3.4686v1.1627h3.4686zm4.6249 0h-3.4686v1.1627h3.4686zm4.6249 0h-3.4686v1.1627h3.4686zm4.6249 0h-3.4686v1.1627h3.4686zm4.6249 0h-3.4686v1.1627h3.4686zm3.4735 0h-2.3124v1.1675h2.3124zm4.6249 0h-2.3124v1.1675h2.3124zm4.6249 0h-2.3124v1.1675h2.3124zm4.6249 0h-2.3124v1.1675h2.3124zm4.6249 0h-2.3124v1.1675h2.3124zm4.6249 0h-2.3124v1.1675h2.3124zm4.6249 0h-2.3124v1.1675h2.3124zm4.6249 0h-2.3124v1.1675h2.3124zm4.6249 0h-2.31243v1.1675h2.31243zm4.62491 0h-2.31244v1.1675h2.31244zm4.6249 0H-.123825v1.1675H2.18861zm4.62491 0H4.50107v1.1675h2.31245zm3.46868 0H9.12595v1.1627h1.15625zm4.6249 0h-1.1562v1.1627h1.1562zm4.6249 0h-1.1562v1.1627h1.1562zm4.6249 0h-1.1562v1.1627h1.1562zm4.6249 0h-1.1563v1.1627h1.1563zm4.6249 0h-1.1562v1.1627h1.1562zm4.6249 0h-1.1562v1.1627h1.1562zm4.6249 0h-1.1562v1.1627h1.1562zm4.6249 0h-1.1562v1.1627h1.1562zm4.6249 0h-1.1562v1.1627h1.1562zm4.6249 0H55.375v1.1627h1.1562zm4.6249 0h-1.1563v1.1627h1.1563zm4.6249 0h-1.1562v1.1627h1.1562zm4.6249 0h-1.1562v1.1627h1.1562zm4.6249 0h-1.1562v1.1627h1.1562zm4.6249 0h-1.1562v1.1627h1.1562zm4.6249 0h-1.1562v1.1627h1.1562zm4.6249 0h-1.1562v1.1627h1.1562zm4.6249 0h-1.1562v1.1627h1.1562zm4.6249 0h-1.1562v1.1627h1.1562zm4.6247 0h-1.156v1.1627h1.156zm4.625 0h-1.156v1.1627h1.156zm5.781 0h-2.312v1.1675h2.312zm4.625 0h-2.312v1.1675h2.312zm4.625 0h-2.312v1.1675h2.312zm4.625 0h-2.313v1.1675h2.313zm4.625 0h-2.313v1.1675h2.313zm4.625 0h-2.313v1.1675h2.313zm4.625 0h-2.313v1.1675h2.313zm4.624 0h-2.312v1.1675h2.312zm4.625 0h-2.312v1.1675h2.312zm4.625 0h-2.312v1.1675h2.312zm4.625 0h-2.312v1.1675h2.312zm4.625 0h-2.312v1.1675h2.312zm5.776 0h-3.468v1.1627h3.468zm4.625 0h-3.468v1.1627h3.468zm4.625 0h-3.468v1.1627h3.468zm4.625 0h-3.469v1.1627h3.469zm4.625 0h-3.469v1.1627h3.469zm4.625 0h-3.469v1.1627h3.469zm4.625 0h-3.469v1.1627h3.469zm4.625 0h-3.469v1.1627h3.469zm4.625 0h-3.469v1.1627h3.469zm4.625 0h-3.469v1.1627h3.469zm4.624 0h-3.468v1.1627h3.468zm-312.1803 2.3253h-3.4687v1.1626h3.4687zm4.6249 0h-3.4687v1.1626h3.4687zm4.6249 0h-3.4687v1.1626h3.4687zm4.6249 0h-3.4687v1.1626h3.4687zm3.4735 0h-2.3125v1.1675h2.3125zm4.6249 0h-2.3125v1.1675h2.3125zm4.6249 0h-2.3125v1.1675h2.3125zm4.6249 0h-2.3125v1.1675h2.3125zm4.6249 0H-62.56v1.1675h2.3125zm4.6249 0h-2.3125v1.1675h2.3125zm4.6249 0h-1.1562v1.1626h1.1562zm4.6249 0h-1.1562v1.1626h1.1562zm4.6249 0h-1.1562v1.1626h1.1562zm4.6249 0h-1.1563v1.1626h1.1563zm4.6249 0h-1.1563v1.1626h1.1563zm4.6249 0h-1.1562v1.1626h1.1562zm4.6249 0h-1.1563v1.1626h1.1563zm4.6249 0h-1.1563v1.1626h1.1563zm4.6249 0h-1.1563v1.1626h1.1563zm4.62487 0h-1.15627v1.1626h1.15627zm4.6249 0h-1.15622v1.1626h1.15622zm4.624905 0H-1.28006v1.1626h1.156235zm124.871825 0h-1.156v1.1626h1.156zm4.625 0h-1.156v1.1626h1.156zm4.625 0h-1.156v1.1626h1.156zm4.625 0h-1.156v1.1626h1.156zm4.625 0h-1.156v1.1626h1.156zm4.625 0h-1.156v1.1626h1.156zm4.625 0h-1.156v1.1626h1.156zm4.625 0h-1.156v1.1626h1.156zm4.625 0h-1.157v1.1626h1.157zm4.625 0h-1.157v1.1626h1.157zm4.624 0h-1.156v1.1626h1.156zm4.625 0h-2.312v1.1675h2.312zm4.625 0h-2.312v1.1675h2.312zm4.625 0h-2.312v1.1675h2.312zm4.625 0h-2.312v1.1675h2.312zm4.625 0h-2.312v1.1675h2.312zm4.625 0h-2.313v1.1675h2.313zm5.776 0h-3.469v1.1626h3.469zm4.625 0h-3.469v1.1626h3.469zm4.625 0h-3.469v1.1626h3.469zm4.625 0h-3.469v1.1626h3.469zm-316.8058 2.3253h-3.4682v1.1626h3.4682zm4.6249 0h-3.4686v1.1626h3.4686zm4.6249 0h-3.4686v1.1626h3.4686zm4.6249 0h-3.4686v1.1626h3.4686zm4.6249 0h-3.4686v1.1626h3.4686zm4.6249 0h-3.4686v1.1626h3.4686zm4.6249 0h-3.4686v1.1626h3.4686zm4.6249 0h-3.4686v1.1626h3.4686zm4.6249 0h-3.4686v1.1626h3.4686zm4.6249 0h-3.4686v1.1626h3.4686zm3.4735 0h-2.3124v1.1675h2.3124zm4.6249 0h-2.3124v1.1675h2.3124zm4.6249 0h-2.3124v1.1675h2.3124zm4.6249 0h-2.3124v1.1675h2.3124zm4.6249 0h-2.3124v1.1675h2.3124zm4.6249 0h-2.3124v1.1675h2.3124zm4.6249 0h-2.3124v1.1675h2.3124zm4.6249 0h-2.3124v1.1675h2.3124zm4.6249 0h-2.3124v1.1675h2.3124zm4.6249 0h-2.3124v1.1675h2.3124zm3.46869 0h-1.15622v1.1626h1.15622zm4.6249 0h-1.15622v1.1626h1.15622zm4.6249 0H-.123825v1.1626H1.03239zm4.6249 0H4.50107v1.1626h1.15622zm4.62491 0H9.12595v1.1626h1.15625zm4.6249 0h-1.1562v1.1626h1.1562zm4.6249 0h-1.1562v1.1626h1.1562zm4.6249 0h-1.1562v1.1626h1.1562zm4.6249 0h-1.1563v1.1626h1.1563zm4.6249 0h-1.1562v1.1626h1.1562zm4.6249 0h-1.1562v1.1626h1.1562zm4.6249 0h-1.1562v1.1626h1.1562zm4.6249 0h-1.1562v1.1626h1.1562zm4.6249 0h-1.1562v1.1626h1.1562zm4.6249 0H55.375v1.1626h1.1562zm4.6249 0h-1.1563v1.1626h1.1563zm4.6249 0h-1.1562v1.1626h1.1562zm4.6249 0h-1.1562v1.1626h1.1562zm4.6249 0h-1.1562v1.1626h1.1562zm4.6249 0h-1.1562v1.1626h1.1562zm4.6249 0h-1.1562v1.1626h1.1562zm4.6249 0h-1.1562v1.1626h1.1562zm4.6249 0h-1.1562v1.1626h1.1562zm4.6249 0h-1.1562v1.1626h1.1562zm4.6247 0h-1.156v1.1626h1.156zm4.625 0h-1.156v1.1626h1.156zm4.625 0h-1.156v1.1626h1.156zm4.625 0h-1.156v1.1626h1.156zm4.625 0h-1.156v1.1626h1.156zm4.625 0h-1.157v1.1626h1.157zm5.781 0h-2.313v1.1675h2.313zm4.625 0h-2.313v1.1675h2.313zm4.625 0h-2.313v1.1675h2.313zm4.624 0h-2.312v1.1675h2.312zm4.625 0h-2.312v1.1675h2.312zm4.625 0h-2.312v1.1675h2.312zm4.625 0h-2.312v1.1675h2.312zm4.625 0h-2.312v1.1675h2.312zm4.625 0h-2.312v1.1675h2.312zm4.625 0h-2.313v1.1675h2.313zm5.776 0h-3.468v1.1626h3.468zm4.625 0h-3.469v1.1626h3.469zm4.625 0h-3.469v1.1626h3.469zm4.625 0h-3.469v1.1626h3.469zm4.625 0h-3.469v1.1626h3.469zm4.625 0h-3.469v1.1626h3.469zm4.625 0h-3.469v1.1626h3.469zm4.625 0h-3.469v1.1626h3.469zm4.624 0h-3.468v1.1626h3.468zm4.625 0h-3.468v1.1626h3.468zm4.625 0h-3.468v1.1626h3.468zm-330.68 2.3252h-3.469v1.1627h3.469zm4.625 0h-3.469v1.1627h3.469zm4.6247 0h-3.4687v1.1627h3.4687zm4.6249 0h-3.4687v1.1627h3.4687zm3.4735 0h-2.3125v1.1675h2.3125zm4.6249 0h-2.3125v1.1675h2.3125zm4.6249 0h-2.3125v1.1675h2.3125zm4.6249 0h-2.3125v1.1675h2.3125zm4.6249 0h-2.3125v1.1675h2.3125zm4.6249 0h-2.3125v1.1675h2.3125zm4.6249 0H-62.56v1.1675h2.3125zm4.6249 0h-1.1562v1.1627h1.1562zm4.6249 0h-1.1562v1.1627h1.1562zm4.6249 0h-1.1562v1.1627h1.1562zm4.6249 0h-1.1562v1.1627h1.1562zm4.6249 0h-1.1563v1.1627h1.1563zm4.6249 0h-1.1563v1.1627h1.1563zm4.6249 0h-1.1562v1.1627h1.1562zm4.6249 0h-1.1563v1.1627h1.1563zm4.6249 0h-1.1563v1.1627h1.1563zm157.2464 0h-1.156v1.1627h1.156zm4.625 0h-1.156v1.1627h1.156zm4.625 0h-1.156v1.1627h1.156zm4.625 0h-1.156v1.1627h1.156zm4.625 0h-1.156v1.1627h1.156zm4.625 0h-1.157v1.1627h1.157zm4.625 0h-1.157v1.1627h1.157zm4.624 0h-1.156v1.1627h1.156zm4.625 0h-1.156v1.1627h1.156zm4.625 0h-1.156v1.1627h1.156zm4.625 0h-2.312v1.1675h2.312zm4.625 0h-2.312v1.1675h2.312zm4.625 0h-2.312v1.1675h2.312zm4.625 0h-2.313v1.1675h2.313zm4.625 0h-2.313v1.1675h2.313zm4.625 0h-2.313v1.1675h2.313zm5.776 0h-3.469v1.1627h3.469zm4.625 0h-3.469v1.1627h3.469zm4.625 0h-3.469v1.1627h3.469zm4.625 0h-3.469v1.1627h3.469zm-335.306 2.3253h-3.468v1.1626h3.468zm4.625 0h-3.468v1.1626h3.468zm4.6252 0h-3.4682v1.1626h3.4682zm4.6249 0h-3.4686v1.1626h3.4686zm4.6249 0h-3.4686v1.1626h3.4686zm4.6249 0h-3.4686v1.1626h3.4686zm4.6249 0h-3.4686v1.1626h3.4686zm4.6249 0h-3.4686v1.1626h3.4686zm4.6249 0h-3.4686v1.1626h3.4686zm4.6249 0h-3.4686v1.1626h3.4686zm3.4735 0h-2.3124v1.1675h2.3124zm4.6249 0h-2.3124v1.1675h2.3124zm4.6249 0h-2.3124v1.1675h2.3124zm4.6249 0h-2.3124v1.1675h2.3124zm4.6249 0h-2.3124v1.1675h2.3124zm4.6249 0h-2.3124v1.1675h2.3124zm4.6249 0h-2.3124v1.1675h2.3124zm4.6249 0h-2.3124v1.1675h2.3124zm4.6249 0h-2.3124v1.1675h2.3124zm3.4687 0h-1.1562v1.1626h1.1562zm4.6249 0h-1.1562v1.1626h1.1562zm4.6249 0h-1.1562v1.1626h1.1562zm4.62489 0h-1.15622v1.1626h1.15622zm4.6249 0h-1.15622v1.1626h1.15622zm4.6249 0H-.123825v1.1626H1.03239zm4.6249 0H4.50107v1.1626h1.15622zm4.62491 0H9.12595v1.1626h1.15625zm4.6249 0h-1.1562v1.1626h1.1562zm4.6249 0h-1.1562v1.1626h1.1562zm4.6249 0h-1.1562v1.1626h1.1562zm4.6249 0h-1.1563v1.1626h1.1563zm4.6249 0h-1.1562v1.1626h1.1562zm4.6249 0h-1.1562v1.1626h1.1562zm4.6249 0h-1.1562v1.1626h1.1562zm4.6249 0h-1.1562v1.1626h1.1562zm4.6249 0h-1.1562v1.1626h1.1562zm4.6249 0H55.375v1.1626h1.1562zm4.6249 0h-1.1563v1.1626h1.1563zm4.6249 0h-1.1562v1.1626h1.1562zm4.6249 0h-1.1562v1.1626h1.1562zm4.6249 0h-1.1562v1.1626h1.1562zm4.6249 0h-1.1562v1.1626h1.1562zm4.6249 0h-1.1562v1.1626h1.1562zm4.6249 0h-1.1562v1.1626h1.1562zm4.6249 0h-1.1562v1.1626h1.1562zm4.6249 0h-1.1562v1.1626h1.1562zm4.6247 0h-1.156v1.1626h1.156zm4.625 0h-1.156v1.1626h1.156zm4.625 0h-1.156v1.1626h1.156zm4.625 0h-1.156v1.1626h1.156zm4.625 0h-1.156v1.1626h1.156zm4.625 0h-1.157v1.1626h1.157zm4.625 0h-1.157v1.1626h1.157zm4.624 0h-1.156v1.1626h1.156zm4.625 0h-1.156v1.1626h1.156zm5.781 0h-2.312v1.1675h2.312zm4.625 0h-2.312v1.1675h2.312zm4.625 0h-2.312v1.1675h2.312zm4.625 0h-2.312v1.1675h2.312zm4.625 0h-2.312v1.1675h2.312zm4.625 0h-2.312v1.1675h2.312zm4.625 0h-2.313v1.1675h2.313zm4.625 0h-2.313v1.1675h2.313zm4.625 0h-2.313v1.1675h2.313zm5.776 0h-3.469v1.1626h3.469zm4.625 0h-3.469v1.1626h3.469zm4.625 0h-3.469v1.1626h3.469zm4.625 0h-3.469v1.1626h3.469zm4.625 0h-3.469v1.1626h3.469zm4.625 0h-3.469v1.1626h3.469zm4.624 0h-3.468v1.1626h3.468zm4.625 0h-3.468v1.1626h3.468zm4.625 0h-3.468v1.1626h3.468zm4.625 0h-3.469v1.1626h3.469zm-339.93 2.3253h-3.469v1.1626h3.469zm4.625 0h-3.469v1.1626h3.469zm4.625 0h-3.469v1.1626h3.469zm4.6247 0h-3.4687v1.1626h3.4687zm3.4735 0h-2.3125v1.1675h2.3125zm4.6249 0h-2.3125v1.1675h2.3125zm4.6249 0h-2.3125v1.1675h2.3125zm4.6249 0h-2.3125v1.1675h2.3125zm4.6249 0h-2.3125v1.1675h2.3125zm4.6249 0h-2.3125v1.1675h2.3125zm4.6249 0h-1.1562v1.1626h1.1562zm4.6249 0h-1.1562v1.1626h1.1562zm4.6249 0h-1.1562v1.1626h1.1562zm4.6249 0h-1.1562v1.1626h1.1562zm4.6249 0h-1.1562v1.1626h1.1562zm4.6249 0h-1.1562v1.1626h1.1562zm4.6249 0h-1.1563v1.1626h1.1563zm4.6249 0h-1.1563v1.1626h1.1563zm184.9961 0h-1.156v1.1626h1.156zm4.625 0h-1.156v1.1626h1.156zm4.625 0h-1.157v1.1626h1.157zm4.625 0h-1.157v1.1626h1.157zm4.624 0h-1.156v1.1626h1.156zm4.625 0h-1.156v1.1626h1.156zm4.625 0h-1.156v1.1626h1.156zm4.625 0h-1.156v1.1626h1.156zm4.625 0h-1.156v1.1626h1.156zm4.625 0h-2.312v1.1675h2.312zm4.625 0h-2.313v1.1675h2.313zm4.625 0h-2.313v1.1675h2.313zm4.625 0h-2.313v1.1675h2.313zm4.625 0h-2.313v1.1675h2.313zm5.776 0h-3.469v1.1626h3.469zm4.625 0h-3.469v1.1626h3.469zm4.625 0h-3.469v1.1626h3.469zm4.625 0h-3.469v1.1626h3.469zm-344.555 2.3252h-3.469v1.1627h3.469zm4.624 0h-3.468v1.1627h3.468zm4.625 0h-3.468v1.1627h3.468zm4.6252 0h-3.4682v1.1627h3.4682zm4.6249 0h-3.4686v1.1627h3.4686zm4.6249 0h-3.4686v1.1627h3.4686zm4.6249 0h-3.4686v1.1627h3.4686zm4.6249 0h-3.4686v1.1627h3.4686zm4.6249 0h-3.4686v1.1627h3.4686zm3.4735 0h-2.3124v1.1675h2.3124zm4.6249 0h-2.3124v1.1675h2.3124zm4.6249 0h-2.3124v1.1675h2.3124zm4.6249 0h-2.3124v1.1675h2.3124zm4.6249 0h-2.3124v1.1675h2.3124zm4.6249 0h-2.3124v1.1675h2.3124zm4.6249 0h-2.3124v1.1675h2.3124zm4.6249 0h-2.3124v1.1675h2.3124zm4.6249 0h-2.3124v1.1675h2.3124zm3.4687 0h-1.1562v1.1627h1.1562zm4.6249 0h-1.1562v1.1627h1.1562zm4.6249 0h-1.1562v1.1627h1.1562zm4.6249 0h-1.1562v1.1627h1.1562zm4.6249 0h-1.1562v1.1627h1.1562zm4.62489 0h-1.15622v1.1627h1.15622zm4.6249 0h-1.15622v1.1627h1.15622zm4.6249 0H-.123825v1.1627H1.03239zm4.6249 0H4.50107v1.1627h1.15622zm4.62491 0H9.12595v1.1627h1.15625zm4.6249 0h-1.1562v1.1627h1.1562zm4.6249 0h-1.1562v1.1627h1.1562zm4.6249 0h-1.1562v1.1627h1.1562zm4.6249 0h-1.1563v1.1627h1.1563zm4.6249 0h-1.1562v1.1627h1.1562zm4.6249 0h-1.1562v1.1627h1.1562zm4.6249 0h-1.1562v1.1627h1.1562zm4.6249 0h-1.1562v1.1627h1.1562zm4.6249 0h-1.1562v1.1627h1.1562zm4.6249 0H55.375v1.1627h1.1562zm4.6249 0h-1.1563v1.1627h1.1563zm4.6249 0h-1.1562v1.1627h1.1562zm4.6249 0h-1.1562v1.1627h1.1562zm4.6249 0h-1.1562v1.1627h1.1562zm4.6249 0h-1.1562v1.1627h1.1562zm4.6249 0h-1.1562v1.1627h1.1562zm4.6249 0h-1.1562v1.1627h1.1562zm4.6249 0h-1.1562v1.1627h1.1562zm4.6249 0h-1.1562v1.1627h1.1562zm4.6247 0h-1.156v1.1627h1.156zm4.625 0h-1.156v1.1627h1.156zm4.625 0h-1.156v1.1627h1.156zm4.625 0h-1.156v1.1627h1.156zm4.625 0h-1.156v1.1627h1.156zm4.625 0h-1.157v1.1627h1.157zm4.625 0h-1.157v1.1627h1.157zm4.624 0h-1.156v1.1627h1.156zm4.625 0h-1.156v1.1627h1.156zm4.625 0h-1.156v1.1627h1.156zm4.625 0h-1.156v1.1627h1.156zm4.625 0h-1.156v1.1627h1.156zm5.781 0h-2.312v1.1675h2.312zm4.625 0h-2.312v1.1675h2.312zm4.625 0h-2.312v1.1675h2.312zm4.625 0h-2.313v1.1675h2.313zm4.625 0h-2.313v1.1675h2.313zm4.625 0h-2.313v1.1675h2.313zm4.625 0h-2.313v1.1675h2.313zm4.625 0h-2.313v1.1675h2.313zm5.776 0h-3.469v1.1627h3.469zm4.625 0h-3.469v1.1627h3.469zm4.625 0h-3.469v1.1627h3.469zm4.625 0h-3.469v1.1627h3.469zm4.624 0h-3.468v1.1627h3.468zm4.625 0h-3.468v1.1627h3.468zm4.625 0h-3.468v1.1627h3.468zm4.625 0h-3.469v1.1627h3.469zm4.625 0h-3.469v1.1627h3.469zm4.625 0h-3.469v1.1627h3.469zm-358.43 2.3253h-3.468v1.1626h3.468zm4.625 0h-3.469v1.1626h3.469zm4.625 0h-3.469v1.1626h3.469zm4.625 0h-3.469v1.1626h3.469zm3.473 0h-2.312v1.1675h2.312zm4.6253 0h-2.3125v1.1675h2.3125zm4.6249 0h-2.3125v1.1675h2.3125zm4.6249 0h-2.3125v1.1675h2.3125zm4.6249 0h-2.3125v1.1675h2.3125zm4.6249 0h-2.3125v1.1675h2.3125zm4.6249 0h-1.1563v1.1626h1.1563zm4.6249 0h-1.1562v1.1626h1.1562zm4.6249 0h-1.1562v1.1626h1.1562zm4.6249 0h-1.1562v1.1626h1.1562zm4.6249 0h-1.1562v1.1626h1.1562zm4.6249 0h-1.1562v1.1626h1.1562zm4.6249 0h-1.1562v1.1626h1.1562zm4.6249 0h-1.1562v1.1626h1.1562zm203.4959 0h-1.157v1.1626h1.157zm4.625 0h-1.157v1.1626h1.157zm4.624 0h-1.156v1.1626h1.156zm4.625 0h-1.156v1.1626h1.156zm4.625 0h-1.156v1.1626h1.156zm4.625 0h-1.156v1.1626h1.156zm4.625 0h-1.156v1.1626h1.156zm4.625 0h-1.156v1.1626h1.156zm4.625 0h-1.156v1.1626h1.156zm4.625 0h-2.313v1.1675h2.313zm4.625 0h-2.313v1.1675h2.313zm4.625 0h-2.313v1.1675h2.313zm4.624 0h-2.312v1.1675h2.312zm4.625 0h-2.312v1.1675h2.312zm5.777 0h-3.469v1.1626h3.469zm4.625 0h-3.469v1.1626h3.469zm4.624 0h-3.468v1.1626h3.468zm4.625 0h-3.468v1.1626h3.468zm-363.054 2.3253h-3.469v1.1626h3.469zm4.625 0h-3.469v1.1626h3.469zm4.625 0h-3.469v1.1626h3.469zm4.624 0h-3.468v1.1626h3.468zm4.625 0h-3.468v1.1626h3.468zm4.6252 0h-3.4682v1.1626h3.4682zm4.6249 0h-3.4686v1.1626h3.4686zm4.6249 0h-3.4686v1.1626h3.4686zm4.6249 0h-3.4686v1.1626h3.4686zm3.4735 0h-2.3124v1.1674h2.3124zm4.6249 0h-2.3124v1.1674h2.3124zm4.6249 0h-2.3124v1.1674h2.3124zm4.6249 0h-2.3124v1.1674h2.3124zm4.6249 0h-2.3124v1.1674h2.3124zm4.6249 0h-2.3124v1.1674h2.3124zm4.6249 0h-2.3124v1.1674h2.3124zm4.6249 0h-2.3124v1.1674h2.3124zm4.6249 0h-2.3124v1.1674h2.3124zm3.4687 0h-1.1562v1.1626h1.1562zm4.6249 0h-1.1562v1.1626h1.1562zm4.6249 0h-1.1562v1.1626h1.1562zm4.6249 0h-1.1562v1.1626h1.1562zm4.6249 0h-1.1562v1.1626h1.1562zm4.6249 0h-1.1562v1.1626h1.1562zm4.6249 0h-1.1562v1.1626h1.1562zm4.62489 0h-1.15622v1.1626h1.15622zm4.6249 0h-1.15622v1.1626h1.15622zm4.6249 0H-.123825v1.1626H1.03239zm4.6249 0H4.50107v1.1626h1.15622zm4.62491 0H9.12595v1.1626h1.15625zm4.6249 0h-1.1562v1.1626h1.1562zm4.6249 0h-1.1562v1.1626h1.1562zm4.6249 0h-1.1562v1.1626h1.1562zm4.6249 0h-1.1563v1.1626h1.1563zm4.6249 0h-1.1562v1.1626h1.1562zm4.6249 0h-1.1562v1.1626h1.1562zm4.6249 0h-1.1562v1.1626h1.1562zm4.6249 0h-1.1562v1.1626h1.1562zm4.6249 0h-1.1562v1.1626h1.1562zm4.6249 0H55.375v1.1626h1.1562zm4.6249 0h-1.1563v1.1626h1.1563zm4.6249 0h-1.1562v1.1626h1.1562zm4.6249 0h-1.1562v1.1626h1.1562zm4.6249 0h-1.1562v1.1626h1.1562zm4.6249 0h-1.1562v1.1626h1.1562zm4.6249 0h-1.1562v1.1626h1.1562zm4.6249 0h-1.1562v1.1626h1.1562zm4.6249 0h-1.1562v1.1626h1.1562zm4.6249 0h-1.1562v1.1626h1.1562zm4.6247 0h-1.156v1.1626h1.156zm4.625 0h-1.156v1.1626h1.156zm4.625 0h-1.156v1.1626h1.156zm4.625 0h-1.156v1.1626h1.156zm4.625 0h-1.156v1.1626h1.156zm4.625 0h-1.157v1.1626h1.157zm4.625 0h-1.157v1.1626h1.157zm4.624 0h-1.156v1.1626h1.156zm4.625 0h-1.156v1.1626h1.156zm4.625 0h-1.156v1.1626h1.156zm4.625 0h-1.156v1.1626h1.156zm4.625 0h-1.156v1.1626h1.156zm4.625 0h-1.156v1.1626h1.156zm4.625 0h-1.156v1.1626h1.156zm5.781 0h-2.312v1.1674h2.312zm4.625 0h-2.313v1.1674h2.313zm4.625 0h-2.313v1.1674h2.313zm4.625 0h-2.313v1.1674h2.313zm4.625 0h-2.313v1.1674h2.313zm4.625 0h-2.313v1.1674h2.313zm4.624 0h-2.312v1.1674h2.312zm5.777 0h-3.469v1.1626h3.469zm4.625 0h-3.469v1.1626h3.469zm4.625 0h-3.469v1.1626h3.469zm4.624 0h-3.468v1.1626h3.468zm4.625 0h-3.468v1.1626h3.468zm4.625 0h-3.468v1.1626h3.468zm4.625 0h-3.469v1.1626h3.469zm4.625 0h-3.469v1.1626h3.469zm4.625 0h-3.469v1.1626h3.469zm4.625 0h-3.469v1.1626h3.469zM-128.47 75.907h-3.468v1.1627h3.468zm4.625 0h-3.468v1.1627h3.468zm4.625 0h-3.468v1.1627h3.468zm4.625 0h-3.469v1.1627h3.469zm4.625 0h-3.469v1.1627h3.469zm3.473 0h-2.312v1.1675h2.312zm4.625 0h-2.312v1.1675h2.312zm4.6253 0h-2.3125v1.1675h2.3125zm4.6249 0h-2.3125v1.1675h2.3125zm4.6249 0h-2.3125v1.1675h2.3125zm4.6249 0h-1.1563v1.1627h1.1563zm4.6249 0h-1.1562v1.1627h1.1562zm4.6249 0h-1.1563v1.1627h1.1563zm4.6249 0h-1.1562v1.1627h1.1562zm4.6249 0h-1.1562v1.1627h1.1562zm4.6249 0h-1.1562v1.1627h1.1562zm4.6249 0h-1.1562v1.1627h1.1562zm4.6249 0h-1.1562v1.1627h1.1562zm221.9947 0h-1.156v1.1627h1.156zm4.625 0h-1.156v1.1627h1.156zm4.625 0h-1.156v1.1627h1.156zm4.625 0h-1.156v1.1627h1.156zm4.625 0h-1.156v1.1627h1.156zm4.625 0h-1.156v1.1627h1.156zm4.625 0h-1.156v1.1627h1.156zm4.625 0h-1.156v1.1627h1.156zm4.625 0h-2.313v1.1675h2.313zm4.625 0h-2.313v1.1675h2.313zm4.624 0h-2.312v1.1675h2.312zm4.625 0h-2.312v1.1675h2.312zm4.625 0h-2.312v1.1675h2.312zm5.777 0h-3.469v1.1627h3.469zm4.624 0h-3.468v1.1627h3.468zm4.625 0h-3.468v1.1627h3.468zm4.625 0h-3.468v1.1627h3.468zm4.625 0h-3.469v1.1627h3.469zm-381.554 2.3253h-3.469v1.1626h3.469zm4.625 0h-3.469v1.1626h3.469zm4.625 0h-3.469v1.1626h3.469zm4.625 0h-3.469v1.1626h3.469zm4.625 0h-3.469v1.1626h3.469zm4.624 0h-3.468v1.1626h3.468zm4.625 0h-3.468v1.1626h3.468zm4.6252 0h-3.4682v1.1626h3.4682zm4.6249 0h-3.4686v1.1626h3.4686zm4.6249 0h-3.4686v1.1626h3.4686zm3.4735 0h-2.3124v1.1675h2.3124zm4.6249 0h-2.3124v1.1675h2.3124zm4.6249 0h-2.3124v1.1675h2.3124zm4.6249 0h-2.3124v1.1675h2.3124zm4.6249 0h-2.3124v1.1675h2.3124zm4.6249 0h-2.3124v1.1675h2.3124zm4.6249 0h-2.3124v1.1675h2.3124zm3.4687 0h-1.1562v1.1626h1.1562zm4.6249 0h-1.1562v1.1626h1.1562zm4.6249 0h-1.1562v1.1626h1.1562zm4.6249 0h-1.1562v1.1626h1.1562zm4.6249 0h-1.1562v1.1626h1.1562zm4.6249 0h-1.1562v1.1626h1.1562zm4.6249 0h-1.1562v1.1626h1.1562zm4.6249 0h-1.1562v1.1626h1.1562zm4.6249 0h-1.1562v1.1626h1.1562zm4.6249 0h-1.1562v1.1626h1.1562zm4.62489 0h-1.15622v1.1626h1.15622zm4.6249 0h-1.15622v1.1626h1.15622zm4.6249 0H-.123825v1.1626H1.03239zm4.6249 0H4.50107v1.1626h1.15622zm4.62491 0H9.12595v1.1626h1.15625zm4.6249 0h-1.1562v1.1626h1.1562zm4.6249 0h-1.1562v1.1626h1.1562zm4.6249 0h-1.1562v1.1626h1.1562zm4.6249 0h-1.1563v1.1626h1.1563zm4.6249 0h-1.1562v1.1626h1.1562zm4.6249 0h-1.1562v1.1626h1.1562zm4.6249 0h-1.1562v1.1626h1.1562zm36.9992 0h-1.1562v1.1626h1.1562zm4.6249 0h-1.1562v1.1626h1.1562zm4.6249 0h-1.1562v1.1626h1.1562zm4.6249 0h-1.1562v1.1626h1.1562zm4.6249 0h-1.1562v1.1626h1.1562zm4.6247 0h-1.156v1.1626h1.156zm4.625 0h-1.156v1.1626h1.156zm4.625 0h-1.156v1.1626h1.156zm4.625 0h-1.156v1.1626h1.156zm4.625 0h-1.156v1.1626h1.156zm4.625 0h-1.157v1.1626h1.157zm4.625 0h-1.157v1.1626h1.157zm4.624 0h-1.156v1.1626h1.156zm4.625 0h-1.156v1.1626h1.156zm4.625 0h-1.156v1.1626h1.156zm4.625 0h-1.156v1.1626h1.156zm4.625 0h-1.156v1.1626h1.156zm4.625 0h-1.156v1.1626h1.156zm4.625 0h-1.156v1.1626h1.156zm4.625 0h-1.156v1.1626h1.156zm4.625 0h-1.157v1.1626h1.157zm5.781 0h-2.313v1.1675h2.313zm4.625 0h-2.313v1.1675h2.313zm4.625 0h-2.313v1.1675h2.313zm4.625 0h-2.313v1.1675h2.313zm4.624 0h-2.312v1.1675h2.312zm4.625 0h-2.312v1.1675h2.312zm4.625 0h-2.312v1.1675h2.312zm5.777 0h-3.469v1.1626h3.469zm4.624 0h-3.468v1.1626h3.468zm4.625 0h-3.468v1.1626h3.468zm4.625 0h-3.468v1.1626h3.468zm4.625 0h-3.469v1.1626h3.469zm4.625 0h-3.469v1.1626h3.469zm4.625 0h-3.469v1.1626h3.469zm4.625 0h-3.469v1.1626h3.469zm4.625 0h-3.469v1.1626h3.469zm4.625 0h-3.469v1.1626h3.469zm-390.804 2.3253h-3.469v1.1626h3.469zm4.624 0h-3.468v1.1626h3.468zm4.625 0h-3.468v1.1626h3.468zm4.625 0h-3.468v1.1626h3.468zm4.625 0h-3.468v1.1626h3.468zm3.474 0h-2.313v1.1674h2.313zm4.625 0h-2.313v1.1674h2.313zm4.624 0h-2.312v1.1674h2.312zm4.625 0h-2.312v1.1674h2.312zm4.6253 0h-2.3125v1.1674h2.3125zm4.6249 0h-2.3125v1.1674h2.3125zm4.6249 0h-1.1562v1.1626h1.1562zm4.6249 0h-1.1563v1.1626h1.1563zm4.6249 0h-1.1562v1.1626h1.1562zm4.6249 0h-1.1563v1.1626h1.1563zm4.6249 0h-1.1562v1.1626h1.1562zm4.6249 0h-1.1562v1.1626h1.1562zm4.6249 0h-1.1562v1.1626h1.1562zm240.4945 0h-1.156v1.1626h1.156zm4.625 0h-1.156v1.1626h1.156zm4.625 0h-1.156v1.1626h1.156zm4.625 0h-1.156v1.1626h1.156zm4.625 0h-1.156v1.1626h1.156zm4.625 0h-1.156v1.1626h1.156zm4.625 0h-1.157v1.1626h1.157zm4.625 0h-1.157v1.1626h1.157zm4.624 0h-2.312v1.1674h2.312zm4.625 0h-2.312v1.1674h2.312zm4.625 0h-2.312v1.1674h2.312zm4.625 0h-2.312v1.1674h2.312zm4.625 0h-2.312v1.1674h2.312zm5.776 0h-3.468v1.1626h3.468zm4.625 0h-3.468v1.1626h3.468zm4.625 0h-3.469v1.1626h3.469zm4.625 0h-3.469v1.1626h3.469zm4.625 0h-3.469v1.1626h3.469zm-404.679 2.3252h-3.468v1.1627h3.468zm4.625 0h-3.469v1.1627h3.469zm4.625 0h-3.469v1.1627h3.469zm4.625 0h-3.469v1.1627h3.469zm4.625 0h-3.469v1.1627h3.469zm4.625 0h-3.469v1.1627h3.469zm4.625 0h-3.469v1.1627h3.469zm4.625 0h-3.469v1.1627h3.469zm4.624 0h-3.468v1.1627h3.468zm4.625 0h-3.468v1.1627h3.468zm4.6252 0h-3.4682v1.1627h3.4682zm3.4735 0h-2.3124v1.1675h2.3124zm4.6249 0h-2.3124v1.1675h2.3124zm4.6249 0h-2.3124v1.1675h2.3124zm4.6249 0h-2.3124v1.1675h2.3124zm4.6249 0h-2.3124v1.1675h2.3124zm4.6249 0h-2.3124v1.1675h2.3124zm4.6249 0h-2.3124v1.1675h2.3124zm4.6249 0h-2.3124v1.1675h2.3124zm3.4687 0h-1.1562v1.1627h1.1562zm4.6249 0h-1.1562v1.1627h1.1562zm4.6249 0h-1.1562v1.1627h1.1562zm4.6249 0h-1.1562v1.1627h1.1562zm4.6249 0h-1.1562v1.1627h1.1562zm4.6249 0h-1.1562v1.1627h1.1562zm4.6249 0h-1.1562v1.1627h1.1562zm4.6249 0h-1.1562v1.1627h1.1562zm4.6249 0h-1.1562v1.1627h1.1562zm4.6249 0h-1.1562v1.1627h1.1562zm4.6249 0h-1.1562v1.1627h1.1562zm4.62489 0h-1.15622v1.1627h1.15622zm4.6249 0h-1.15622v1.1627h1.15622zm4.6249 0H-.123825v1.1627H1.03239zm4.6249 0H4.50107v1.1627h1.15622zm4.62491 0H9.12595v1.1627h1.15625zm97.1228 0h-1.156v1.1627h1.156zm4.625 0h-1.156v1.1627h1.156zm4.625 0h-1.156v1.1627h1.156zm4.625 0h-1.156v1.1627h1.156zm4.625 0h-1.157v1.1627h1.157zm4.625 0h-1.157v1.1627h1.157zm4.624 0h-1.156v1.1627h1.156zm4.625 0h-1.156v1.1627h1.156zm4.625 0h-1.156v1.1627h1.156zm4.625 0h-1.156v1.1627h1.156zm4.625 0h-1.156v1.1627h1.156zm4.625 0h-1.156v1.1627h1.156zm4.625 0h-1.156v1.1627h1.156zm4.625 0h-1.156v1.1627h1.156zm4.625 0h-1.157v1.1627h1.157zm4.625 0h-1.157v1.1627h1.157zm4.625 0h-1.157v1.1627h1.157zm5.781 0h-2.313v1.1675h2.313zm4.625 0h-2.313v1.1675h2.313zm4.624 0h-2.312v1.1675h2.312zm4.625 0h-2.312v1.1675h2.312zm4.625 0h-2.312v1.1675h2.312zm4.625 0h-2.312v1.1675h2.312zm4.625 0h-2.312v1.1675h2.312zm5.776 0h-3.468v1.1627h3.468zm4.625 0h-3.468v1.1627h3.468zm4.625 0h-3.469v1.1627h3.469zm4.625 0h-3.469v1.1627h3.469zm4.625 0h-3.469v1.1627h3.469zm4.625 0h-3.469v1.1627h3.469zm4.625 0h-3.469v1.1627h3.469zm4.625 0h-3.469v1.1627h3.469zm4.625 0h-3.469v1.1627h3.469zm4.624 0h-3.468v1.1627h3.468zm4.625 0h-3.468v1.1627h3.468zm-423.178 2.3253h-3.469v1.1626h3.469zm4.625 0h-3.469v1.1626h3.469zm4.625 0h-3.469v1.1626h3.469zm4.625 0h-3.469v1.1626h3.469zm4.625 0h-3.469v1.1626h3.469zm4.624 0h-3.468v1.1626h3.468zm4.625 0h-3.468v1.1626h3.468zm3.474 0h-2.313v1.1675h2.313zm4.625 0h-2.313v1.1675h2.313zm4.625 0h-2.313v1.1675h2.313zm4.625 0h-2.313v1.1675h2.313zm4.624 0h-2.312v1.1675h2.312zm4.625 0h-2.312v1.1675h2.312zm4.6253 0h-1.1562v1.1626h1.1562zm4.6249 0h-1.1562v1.1626h1.1562zm4.6249 0h-1.1562v1.1626h1.1562zm4.6249 0h-1.1563v1.1626h1.1563zm4.6249 0h-1.1562v1.1626h1.1562zm4.6249 0h-1.1563v1.1626h1.1563zm4.6249 0h-1.1562v1.1626h1.1562zm258.9943 0h-1.156v1.1626h1.156zm4.625 0h-1.156v1.1626h1.156zm4.625 0h-1.156v1.1626h1.156zm4.625 0h-1.156v1.1626h1.156zm4.625 0h-1.157v1.1626h1.157zm4.625 0h-1.157v1.1626h1.157zm4.624 0h-1.156v1.1626h1.156zm4.625 0h-2.312v1.1675h2.312zm4.625 0h-2.312v1.1675h2.312zm4.625 0h-2.312v1.1675h2.312zm4.625 0h-2.312v1.1675h2.312zm4.625 0h-2.313v1.1675h2.313zm5.776 0h-3.468v1.1626h3.468zm4.625 0h-3.469v1.1626h3.469zm4.625 0h-3.469v1.1626h3.469zm4.625 0h-3.469v1.1626h3.469zm4.625 0h-3.469v1.1626h3.469zm4.625 0h-3.469v1.1626h3.469zm4.625 0h-3.469v1.1626h3.469zm4.625 0h-3.469v1.1626h3.469zm-432.429 2.3253h-3.468v1.1626h3.468zm4.625 0h-3.468v1.1626h3.468zm4.625 0h-3.468v1.1626h3.468zm4.625 0h-3.469v1.1626h3.469zm4.625 0h-3.469v1.1626h3.469zm4.625 0h-3.469v1.1626h3.469zm4.625 0h-3.469v1.1626h3.469zm4.625 0h-3.469v1.1626h3.469zm4.625 0h-3.469v1.1626h3.469zm4.625 0h-3.469v1.1626h3.469zm4.624 0h-3.468v1.1626h3.468zm4.625 0h-3.468v1.1626h3.468zm3.4738 0h-2.3128v1.1674h2.3128zm4.6249 0h-2.3124v1.1674h2.3124zm4.6249 0h-2.3124v1.1674h2.3124zm4.6249 0h-2.3124v1.1674h2.3124zm4.6249 0h-2.3124v1.1674h2.3124zm4.6249 0h-2.3124v1.1674h2.3124zm4.6249 0h-2.3124v1.1674h2.3124zm3.4687 0h-1.1562v1.1626h1.1562zm4.6249 0h-1.1562v1.1626h1.1562zm4.6249 0h-1.1562v1.1626h1.1562zm4.6249 0h-1.1562v1.1626h1.1562zm4.6249 0h-1.1562v1.1626h1.1562zm4.6249 0h-1.1562v1.1626h1.1562zm4.6249 0h-1.1562v1.1626h1.1562zm4.6249 0h-1.1562v1.1626h1.1562zm4.6249 0h-1.1562v1.1626h1.1562zm4.6249 0h-1.1562v1.1626h1.1562zm4.6249 0h-1.1562v1.1626h1.1562zm4.6249 0h-1.1562v1.1626h1.1562zm4.6249 0h-1.1562v1.1626h1.1562zm4.62489 0h-1.15622v1.1626h1.15622zm4.6249 0h-1.15622v1.1626h1.15622zm129.49751 0h-1.157v1.1626h1.157zm4.625 0h-1.157v1.1626h1.157zm4.624 0h-1.156v1.1626h1.156zm4.625 0h-1.156v1.1626h1.156zm4.625 0h-1.156v1.1626h1.156zm4.625 0h-1.156v1.1626h1.156zm4.625 0h-1.156v1.1626h1.156zm4.625 0h-1.156v1.1626h1.156zm4.625 0h-1.156v1.1626h1.156zm4.625 0h-1.156v1.1626h1.156zm4.625 0h-1.157v1.1626h1.157zm4.625 0h-1.157v1.1626h1.157zm4.625 0h-1.157v1.1626h1.157zm4.624 0h-1.156v1.1626h1.156zm4.625 0h-1.156v1.1626h1.156zm5.781 0h-2.312v1.1674h2.312zm4.625 0h-2.312v1.1674h2.312zm4.625 0h-2.312v1.1674h2.312zm4.625 0h-2.312v1.1674h2.312zm4.625 0h-2.312v1.1674h2.312zm4.625 0h-2.313v1.1674h2.313zm5.776 0h-3.468v1.1626h3.468zm4.625 0h-3.469v1.1626h3.469zm4.625 0h-3.469v1.1626h3.469zm4.625 0h-3.469v1.1626h3.469zm4.625 0h-3.469v1.1626h3.469zm4.625 0h-3.469v1.1626h3.469zm4.625 0h-3.469v1.1626h3.469zm4.625 0h-3.469v1.1626h3.469zm4.624 0h-3.468v1.1626h3.468zm4.625 0h-3.468v1.1626h3.468zm4.625 0h-3.468v1.1626h3.468zm4.625 0h-3.469v1.1626h3.469zm4.625 0h-3.469v1.1626h3.469zm-437.053 2.3252h-3.469v1.1627h3.469zm4.625 0h-3.469v1.1627h3.469zm4.625 0h-3.469v1.1627h3.469zm4.625 0h-3.469v1.1627h3.469zm4.625 0h-3.469v1.1627h3.469zm3.473 0h-2.312v1.1675h2.312zm4.625 0h-2.312v1.1675h2.312zm4.625 0h-2.313v1.1675h2.313zm4.625 0h-2.313v1.1675h2.313zm4.625 0h-2.313v1.1675h2.313zm4.625 0h-2.313v1.1675h2.313zm4.624 0h-2.312v1.1675h2.312zm4.625 0h-1.156v1.1627h1.156zm4.6253 0h-1.1562v1.1627h1.1562zm4.6249 0h-1.1562v1.1627h1.1562zm4.6249 0h-1.1562v1.1627h1.1562zm4.6249 0h-1.1563v1.1627h1.1563zm4.6249 0h-1.1562v1.1627h1.1562zm277.4941 0h-1.156v1.1627h1.156zm4.625 0h-1.156v1.1627h1.156zm4.625 0h-1.157v1.1627h1.157zm4.625 0h-1.157v1.1627h1.157zm4.624 0h-1.156v1.1627h1.156zm4.625 0h-1.156v1.1627h1.156zm4.625 0h-1.156v1.1627h1.156zm4.625 0h-2.312v1.1675h2.312zm4.625 0h-2.312v1.1675h2.312zm4.625 0h-2.313v1.1675h2.313zm4.625 0h-2.313v1.1675h2.313zm4.625 0h-2.313v1.1675h2.313zm4.625 0h-2.313v1.1675h2.313zm5.776 0h-3.469v1.1627h3.469zm4.625 0h-3.469v1.1627h3.469zm4.625 0h-3.469v1.1627h3.469zm4.625 0h-3.469v1.1627h3.469zm4.625 0h-3.469v1.1627h3.469zm-432.429 2.3253h-3.468v1.1626h3.468zm4.625 0h-3.468v1.1626h3.468zm4.625 0h-3.468v1.1626h3.468zm4.625 0h-3.469v1.1626h3.469zm4.625 0h-3.469v1.1626h3.469zm4.625 0h-3.469v1.1626h3.469zm4.625 0h-3.469v1.1626h3.469zm4.625 0h-3.469v1.1626h3.469zm4.625 0h-3.469v1.1626h3.469zm4.625 0h-3.469v1.1626h3.469zm3.473 0h-2.312v1.1675h2.312zm4.625 0h-2.313v1.1675h2.313zm4.6248 0h-2.3128v1.1675h2.3128zm4.6249 0h-2.3124v1.1675h2.3124zm4.6249 0h-2.3124v1.1675h2.3124zm4.6249 0h-2.3124v1.1675h2.3124zm4.6249 0h-2.3124v1.1675h2.3124zm3.4687 0h-1.1562v1.1626h1.1562zm4.6249 0h-1.1562v1.1626h1.1562zm4.6249 0h-1.1562v1.1626h1.1562zm4.6249 0h-1.1562v1.1626h1.1562zm4.6249 0h-1.1562v1.1626h1.1562zm4.6249 0h-1.1562v1.1626h1.1562zm4.6249 0h-1.1562v1.1626h1.1562zm4.6249 0h-1.1562v1.1626h1.1562zm4.6249 0h-1.1562v1.1626h1.1562zm4.6249 0h-1.1562v1.1626h1.1562zm4.6249 0h-1.1562v1.1626h1.1562zm4.6249 0h-1.1562v1.1626h1.1562zm4.6249 0h-1.1562v1.1626h1.1562zm4.6249 0h-1.1562v1.1626h1.1562zm157.2462 0h-1.156v1.1626h1.156zm4.625 0h-1.156v1.1626h1.156zm4.625 0h-1.156v1.1626h1.156zm4.625 0h-1.156v1.1626h1.156zm4.625 0h-1.156v1.1626h1.156zm4.625 0h-1.156v1.1626h1.156zm4.625 0h-1.156v1.1626h1.156zm4.625 0h-1.157v1.1626h1.157zm4.625 0h-1.157v1.1626h1.157zm4.625 0h-1.157v1.1626h1.157zm4.624 0h-1.156v1.1626h1.156zm4.625 0h-1.156v1.1626h1.156zm4.625 0h-1.156v1.1626h1.156zm5.781 0h-2.312v1.1675h2.312zm4.625 0h-2.312v1.1675h2.312zm4.625 0h-2.312v1.1675h2.312zm4.625 0h-2.312v1.1675h2.312zm4.625 0h-2.313v1.1675h2.313zm4.625 0h-2.313v1.1675h2.313zm4.625 0h-2.313v1.1675h2.313zm5.776 0h-3.469v1.1626h3.469zm4.625 0h-3.469v1.1626h3.469zm4.625 0h-3.469v1.1626h3.469zm4.625 0h-3.469v1.1626h3.469zm4.625 0h-3.469v1.1626h3.469zm4.625 0h-3.469v1.1626h3.469zm4.624 0h-3.468v1.1626h3.468zm4.625 0h-3.468v1.1626h3.468zm4.625 0h-3.468v1.1626h3.468zm4.625 0h-3.469v1.1626h3.469zm4.625 0h-3.469v1.1626h3.469zm-437.053 2.3253h-3.469v1.1626h3.469zm3.473 0h-2.312v1.1674h2.312zm4.625 0h-2.312v1.1674h2.312zm4.625 0h-2.312v1.1674h2.312zm4.625 0h-2.312v1.1674h2.312zm4.625 0h-2.312v1.1674h2.312zm4.625 0h-2.312v1.1674h2.312zm4.625 0h-2.313v1.1674h2.313zm4.625 0h-2.313v1.1674h2.313zm4.625 0h-2.313v1.1674h2.313zm4.625 0h-1.157v1.1626h1.157zm4.624 0h-1.156v1.1626h1.156zm4.625 0h-1.156v1.1626h1.156zm4.6253 0h-1.1562v1.1626h1.1562zm4.6249 0h-1.1562v1.1626h1.1562zm4.6249 0h-1.1562v1.1626h1.1562zm4.6249 0h-1.1563v1.1626h1.1563zm286.744 0h-1.156v1.1626h1.156zm4.625 0h-1.157v1.1626h1.157zm4.625 0h-1.157v1.1626h1.157zm4.624 0h-1.156v1.1626h1.156zm4.625 0h-1.156v1.1626h1.156zm4.625 0h-1.156v1.1626h1.156zm4.625 0h-1.156v1.1626h1.156zm4.625 0h-2.312v1.1674h2.312zm4.625 0h-2.313v1.1674h2.313zm4.625 0h-2.313v1.1674h2.313zm4.625 0h-2.313v1.1674h2.313zm4.625 0h-2.313v1.1674h2.313zm4.625 0h-2.313v1.1674h2.313zm4.624 0h-2.312v1.1674h2.312zm4.625 0h-2.312v1.1674h2.312zm5.777 0h-3.469v1.1626h3.469zm4.625 0h-3.469v1.1626h3.469zm-432.429 2.3252h-3.468v1.1627h3.468zm4.625 0h-3.468v1.1627h3.468zm4.625 0h-3.468v1.1627h3.468zm4.625 0h-3.469v1.1627h3.469zm4.625 0h-3.469v1.1627h3.469zm4.625 0h-3.469v1.1627h3.469zm4.625 0h-3.469v1.1627h3.469zm4.625 0h-3.469v1.1627h3.469zm3.473 0h-2.312v1.1675h2.312zm4.625 0h-2.312v1.1675h2.312zm4.625 0h-2.312v1.1675h2.312zm4.625 0h-2.313v1.1675h2.313zm4.6248 0h-2.3128v1.1675h2.3128zm4.6249 0h-2.3124v1.1675h2.3124zm4.6249 0h-2.3124v1.1675h2.3124zm3.4687 0h-1.1562v1.1627h1.1562zm4.6249 0h-1.1562v1.1627h1.1562zm4.6249 0h-1.1562v1.1627h1.1562zm4.6249 0h-1.1562v1.1627h1.1562zm4.6249 0h-1.1562v1.1627h1.1562zm4.6249 0h-1.1562v1.1627h1.1562zm4.6249 0h-1.1562v1.1627h1.1562zm4.6249 0h-1.1562v1.1627h1.1562zm4.6249 0h-1.1562v1.1627h1.1562zm4.6249 0h-1.1562v1.1627h1.1562zm4.6249 0h-1.1562v1.1627h1.1562zm4.6249 0h-1.1562v1.1627h1.1562zm4.6249 0h-1.1562v1.1627h1.1562zm184.9959 0h-1.156v1.1627h1.156zm4.625 0h-1.156v1.1627h1.156zm4.625 0h-1.156v1.1627h1.156zm4.625 0h-1.156v1.1627h1.156zm4.625 0h-1.157v1.1627h1.157zm4.625 0h-1.157v1.1627h1.157zm4.625 0h-1.157v1.1627h1.157zm4.624 0h-1.156v1.1627h1.156zm4.625 0h-1.156v1.1627h1.156zm4.625 0h-1.156v1.1627h1.156zm4.625 0h-1.156v1.1627h1.156zm4.625 0h-1.156v1.1627h1.156zm5.781 0h-2.312v1.1675h2.312zm4.625 0h-2.312v1.1675h2.312zm4.625 0h-2.313v1.1675h2.313zm4.625 0h-2.313v1.1675h2.313zm4.625 0h-2.313v1.1675h2.313zm4.625 0h-2.313v1.1675h2.313zm5.776 0h-3.469v1.1627h3.469zm4.625 0h-3.469v1.1627h3.469zm4.625 0h-3.469v1.1627h3.469zm4.625 0h-3.469v1.1627h3.469zm4.625 0h-3.469v1.1627h3.469zm4.624 0h-3.468v1.1627h3.468zm4.625 0h-3.468v1.1627h3.468zm4.625 0h-3.468v1.1627h3.468zm4.625 0h-3.469v1.1627h3.469zm4.625 0h-3.469v1.1627h3.469zm-438.204 2.3253h-2.313v1.1673h2.313zm4.624 0h-2.312v1.1673h2.312zm4.625 0h-2.312v1.1673h2.312zm4.625 0h-2.312v1.1673h2.312zm4.625 0h-2.312v1.1673h2.312zm4.625 0h-2.312v1.1673h2.312zm4.625 0h-2.312v1.1673h2.312zm4.625 0h-2.313v1.1673h2.313zm4.625 0h-1.156v1.1623h1.156zm4.625 0h-1.157v1.1623h1.157zm4.625 0h-1.157v1.1623h1.157zm4.624 0h-1.156v1.1623h1.156zm4.625 0h-1.156v1.1623h1.156zm4.6253 0h-1.1562v1.1623h1.1562zm4.6249 0h-1.1562v1.1623h1.1562zm305.2438 0h-1.157v1.1623h1.157zm4.624 0h-1.156v1.1623h1.156zm4.625 0h-1.156v1.1623h1.156zm4.625 0h-1.156v1.1623h1.156zm4.625 0h-1.156v1.1623h1.156zm4.625 0h-1.156v1.1623h1.156zm4.625 0h-1.156v1.1623h1.156zm4.625 0h-2.313v1.1673h2.313zm4.625 0h-2.313v1.1673h2.313zm4.625 0h-2.313v1.1673h2.313zm4.625 0h-2.313v1.1673h2.313zm4.624 0h-2.312v1.1673h2.312zm4.625 0h-2.312v1.1673h2.312zm4.625 0h-2.312v1.1673h2.312zm4.625 0h-2.312v1.1673h2.312zm-431.277 2.3253h-3.468v1.163h3.468zm4.625 0h-3.468v1.163h3.468zm4.625 0h-3.468v1.163h3.468zm4.625 0h-3.469v1.163h3.469zm4.625 0h-3.469v1.163h3.469zm4.625 0h-3.469v1.163h3.469zm3.473 0h-2.312v1.167h2.312zm4.625 0h-2.312v1.167h2.312zm4.625 0h-2.312v1.167h2.312zm4.625 0h-2.312v1.167h2.312zm4.625 0h-2.312v1.167h2.312zm4.625 0h-2.313v1.167h2.313zm4.6248 0h-2.3128v1.167h2.3128zm4.6249 0h-2.3124v1.167h2.3124zm3.4687 0h-1.1562v1.163h1.1562zm4.6249 0h-1.1562v1.163h1.1562zm4.6249 0h-1.1562v1.163h1.1562zm4.6249 0h-1.1562v1.163h1.1562zm4.6249 0h-1.1562v1.163h1.1562zm4.6249 0h-1.1562v1.163h1.1562zm4.6249 0h-1.1562v1.163h1.1562zm4.6249 0h-1.1562v1.163h1.1562zm4.6249 0h-1.1562v1.163h1.1562zm4.6249 0h-1.1562v1.163h1.1562zm4.6249 0h-1.1562v1.163h1.1562zm208.1206 0h-1.156v1.163h1.156zm4.625 0h-1.156v1.163h1.156zm4.625 0h-1.157v1.163h1.157zm4.625 0h-1.157v1.163h1.157zm4.625 0h-1.157v1.163h1.157zm4.624 0h-1.156v1.163h1.156zm4.625 0h-1.156v1.163h1.156zm4.625 0h-1.156v1.163h1.156zm4.625 0h-1.156v1.163h1.156zm4.625 0h-1.156v1.163h1.156zm4.625 0h-1.156v1.163h1.156zm5.781 0h-2.312v1.167h2.312zm4.625 0h-2.313v1.167h2.313zm4.625 0h-2.313v1.167h2.313zm4.625 0h-2.313v1.167h2.313zm4.625 0h-2.313v1.167h2.313zm4.624 0h-2.312v1.167h2.312zm4.625 0h-2.312v1.167h2.312zm4.625 0h-2.312v1.167h2.312zm5.777 0h-3.469v1.163h3.469zm4.625 0h-3.469v1.163h3.469zm4.624 0h-3.468v1.163h3.468zm4.625 0h-3.468v1.163h3.468zm4.625 0h-3.468v1.163h3.468zm4.625 0h-3.469v1.163h3.469zm4.625 0h-3.469v1.163h3.469zm-438.204 2.325h-2.313v1.168h2.313zm4.624 0h-2.312v1.168h2.312zm4.625 0h-2.312v1.168h2.312zm4.625 0h-2.312v1.168h2.312zm4.625 0h-2.312v1.168h2.312zm4.625 0h-2.312v1.168h2.312zm4.625 0h-1.156v1.163h1.156zm4.625 0h-1.156v1.163h1.156zm4.625 0h-1.156v1.163h1.156zm4.625 0h-1.157v1.163h1.157zm4.625 0h-1.157v1.163h1.157zm4.624 0h-1.156v1.163h1.156zm4.625 0h-1.156v1.163h1.156zm323.743 0h-1.156v1.163h1.156zm4.625 0h-1.156v1.163h1.156zm4.625 0h-1.156v1.163h1.156zm4.625 0h-1.156v1.163h1.156zm4.625 0h-1.156v1.163h1.156zm4.625 0h-1.156v1.163h1.156zm4.625 0h-1.156v1.163h1.156zm4.625 0h-1.157v1.163h1.157zm4.625 0h-2.313v1.168h2.313zm4.624 0h-2.312v1.168h2.312zm4.625 0h-2.312v1.168h2.312zm4.625 0h-2.312v1.168h2.312zm4.625 0h-2.312v1.168h2.312zm-431.277 2.325h-3.468v1.163h3.468zm4.625 0h-3.468v1.163h3.468zm4.625 0h-3.468v1.163h3.468zm3.474 0h-2.313v1.168h2.313zm4.625 0h-2.313v1.168h2.313zm4.625 0h-2.313v1.168h2.313zm4.624 0h-2.312v1.168h2.312zm4.625 0h-2.312v1.168h2.312zm4.625 0h-2.312v1.168h2.312zm4.625 0h-2.312v1.168h2.312zm4.625 0h-2.312v1.168h2.312zm4.625 0h-2.313v1.168h2.313zm3.469 0h-1.157v1.163h1.157zm4.6245 0h-1.1562v1.163h1.1562zm4.6249 0h-1.1562v1.163h1.1562zm4.6249 0h-1.1562v1.163h1.1562zm4.6249 0h-1.1562v1.163h1.1562zm4.6249 0h-1.1562v1.163h1.1562zm4.6249 0h-1.1562v1.163h1.1562zm4.6249 0h-1.1562v1.163h1.1562zm4.6249 0h-1.1562v1.163h1.1562zm4.6249 0h-1.1562v1.163h1.1562zm4.6249 0h-1.1562v1.163h1.1562zm4.6249 0h-1.1562v1.163h1.1562zm221.9955 0h-1.157v1.163h1.157zm4.625 0h-1.157v1.163h1.157zm4.625 0h-1.157v1.163h1.157zm4.624 0h-1.156v1.163h1.156zm4.625 0h-1.156v1.163h1.156zm4.625 0h-1.156v1.163h1.156zm4.625 0h-1.156v1.163h1.156zm4.625 0h-1.156v1.163h1.156zm4.625 0h-1.156v1.163h1.156zm4.625 0h-1.156v1.163h1.156zm4.625 0h-1.157v1.163h1.157zm5.781 0h-2.313v1.168h2.313zm4.625 0h-2.313v1.168h2.313zm4.625 0h-2.313v1.168h2.313zm4.624 0h-2.312v1.168h2.312zm4.625 0h-2.312v1.168h2.312zm4.625 0h-2.312v1.168h2.312zm4.625 0h-2.312v1.168h2.312zm4.625 0h-2.312v1.168h2.312zm4.625 0h-2.312v1.168h2.312zm5.776 0h-3.468v1.163h3.468zm4.625 0h-3.468v1.163h3.468zm4.625 0h-3.469v1.163h3.469zm4.625 0h-3.469v1.163h3.469zm-438.204 2.326h-1.157v1.162h1.157zm4.624 0h-1.156v1.162h1.156zm4.625 0h-1.156v1.162h1.156zm4.625 0h-1.156v1.162h1.156zm4.625 0h-1.156v1.162h1.156zm4.625 0h-1.156v1.162h1.156zm4.625 0h-1.156v1.162h1.156zm4.625 0h-1.156v1.162h1.156zm4.625 0h-1.156v1.162h1.156zm4.625 0h-1.157v1.162h1.157zm4.625 0h-1.157v1.162h1.157zm4.624 0h-1.156v1.162h1.156zm332.993 0h-1.156v1.162h1.156zm4.625 0h-1.156v1.162h1.156zm4.625 0h-1.156v1.162h1.156zm4.625 0h-1.156v1.162h1.156zm4.625 0h-1.156v1.162h1.156zm4.625 0h-1.156v1.162h1.156zm4.625 0h-1.157v1.162h1.157zm4.625 0h-1.157v1.162h1.157zm4.624 0h-1.156v1.162h1.156zm4.625 0h-1.156v1.162h1.156zm4.625 0h-1.156v1.162h1.156zm4.625 0h-1.156v1.162h1.156zm-432.428 2.325h-2.312v1.167h2.312zm4.625 0h-2.313v1.167h2.313zm4.625 0h-2.313v1.167h2.313zm4.625 0h-2.313v1.167h2.313zm4.625 0h-2.313v1.167h2.313zm4.625 0h-2.313v1.167h2.313zm4.624 0h-2.312v1.167h2.312zm4.625 0h-2.312v1.167h2.312zm4.625 0h-2.312v1.167h2.312zm4.625 0h-2.312v1.167h2.312zm3.469 0h-1.156v1.163h1.156zm4.625 0h-1.157v1.163h1.157zm4.625 0h-1.157v1.163h1.157zm4.6245 0h-1.1562v1.163h1.1562zm4.6249 0h-1.1562v1.163h1.1562zm4.6249 0h-1.1562v1.163h1.1562zm4.6249 0h-1.1562v1.163h1.1562zm4.6249 0h-1.1562v1.163h1.1562zm4.6249 0h-1.1562v1.163h1.1562zm4.6249 0h-1.1562v1.163h1.1562zm4.6249 0h-1.1562v1.163h1.1562zm4.6249 0h-1.1562v1.163h1.1562zm240.4953 0h-1.157v1.163h1.157zm4.624 0h-1.156v1.163h1.156zm4.625 0h-1.156v1.163h1.156zm4.625 0h-1.156v1.163h1.156zm4.625 0h-1.156v1.163h1.156zm4.625 0h-1.156v1.163h1.156zm4.625 0h-1.156v1.163h1.156zm4.625 0h-1.156v1.163h1.156zm4.625 0h-1.157v1.163h1.157zm4.625 0h-1.157v1.163h1.157zm4.624 0h-1.156v1.163h1.156zm5.782 0h-2.313v1.167h2.313zm4.624 0h-2.312v1.167h2.312zm4.625 0h-2.312v1.167h2.312zm4.625 0h-2.312v1.167h2.312zm4.625 0h-2.312v1.167h2.312zm4.625 0h-2.312v1.167h2.312zm4.625 0h-2.312v1.167h2.312zm4.625 0h-2.313v1.167h2.313zm4.625 0h-2.313v1.167h2.313zm4.625 0h-2.313v1.167h2.313zm4.625 0h-2.313v1.167h2.313zm-437.053 2.325h-1.157v1.163h1.157zm4.624 0h-1.156v1.163h1.156zm4.625 0h-1.156v1.163h1.156zm4.625 0h-1.156v1.163h1.156zm4.625 0h-1.156v1.163h1.156zm4.625 0h-1.156v1.163h1.156zm4.625 0h-1.156v1.163h1.156zm4.625 0h-1.156v1.163h1.156zm4.625 0h-1.156v1.163h1.156zm4.625 0h-1.157v1.163h1.157zm351.492 0h-1.156v1.163h1.156zm4.625 0h-1.156v1.163h1.156zm4.625 0h-1.156v1.163h1.156zm4.625 0h-1.156v1.163h1.156zm4.625 0h-1.157v1.163h1.157zm4.625 0h-1.157v1.163h1.157zm4.624 0h-1.156v1.163h1.156zm4.625 0h-1.156v1.163h1.156zm4.625 0h-1.156v1.163h1.156zm4.625 0h-1.156v1.163h1.156zm-432.428 2.326h-2.312v1.167h2.312zm4.625 0h-2.313v1.167h2.313zm4.625 0h-2.313v1.167h2.313zm4.625 0h-2.313v1.167h2.313zm4.625 0h-2.313v1.167h2.313zm4.625 0h-2.313v1.167h2.313zm4.624 0h-2.312v1.167h2.312zm4.625 0h-2.312v1.167h2.312zm4.625 0h-2.312v1.167h2.312zm3.469 0h-1.156v1.162h1.156zm4.625 0h-1.156v1.162h1.156zm4.625 0h-1.157v1.162h1.157zm4.625 0h-1.157v1.162h1.157zm4.6245 0h-1.1562v1.162h1.1562zm4.6249 0h-1.1562v1.162h1.1562zm4.6249 0h-1.1562v1.162h1.1562zm4.6249 0h-1.1562v1.162h1.1562zm4.6249 0h-1.1562v1.162h1.1562zm4.6249 0h-1.1562v1.162h1.1562zm4.6249 0h-1.1562v1.162h1.1562zm258.9941 0h-1.156v1.162h1.156zm4.625 0h-1.156v1.162h1.156zm4.625 0h-1.156v1.162h1.156zm4.625 0h-1.156v1.162h1.156zm4.625 0h-1.156v1.162h1.156zm4.625 0h-1.156v1.162h1.156zm4.625 0h-1.157v1.162h1.157zm4.625 0h-1.157v1.162h1.157zm4.624 0h-1.156v1.162h1.156zm4.625 0h-1.156v1.162h1.156zm4.625 0h-1.156v1.162h1.156zm5.781 0h-2.312v1.167h2.312zm4.625 0h-2.312v1.167h2.312zm4.625 0h-2.312v1.167h2.312zm4.625 0h-2.312v1.167h2.312zm4.625 0h-2.312v1.167h2.312zm4.625 0h-2.313v1.167h2.313zm4.625 0h-2.313v1.167h2.313zm4.625 0h-2.313v1.167h2.313zm4.625 0h-2.313v1.167h2.313zm-437.053 2.325h-1.157v1.162h1.157zm4.624 0h-1.156v1.162h1.156zm4.625 0h-1.156v1.162h1.156zm4.625 0h-1.156v1.162h1.156zm4.625 0h-1.156v1.162h1.156zm4.625 0h-1.156v1.162h1.156zm4.625 0h-1.156v1.162h1.156zm4.625 0h-1.156v1.162h1.156zm369.992 0h-1.156v1.162h1.156zm4.625 0h-1.156v1.162h1.156zm4.625 0h-1.157v1.162h1.157zm4.625 0h-1.157v1.162h1.157zm4.624 0h-1.156v1.162h1.156zm4.625 0h-1.156v1.162h1.156zm4.625 0h-1.156v1.162h1.156zm4.625 0h-1.156v1.162h1.156zm-432.428 2.325h-2.312v1.168h2.312zm4.625 0h-2.313v1.168h2.313zm4.625 0h-2.313v1.168h2.313zm4.625 0h-2.313v1.168h2.313zm4.625 0h-2.313v1.168h2.313zm4.625 0h-2.313v1.168h2.313zm3.468 0h-1.156v1.163h1.156zm4.625 0h-1.156v1.163h1.156zm4.625 0h-1.156v1.163h1.156zm4.625 0h-1.156v1.163h1.156zm4.625 0h-1.156v1.163h1.156zm4.625 0h-1.157v1.163h1.157zm4.625 0h-1.157v1.163h1.157zm4.6245 0h-1.1562v1.163h1.1562zm4.6249 0h-1.1562v1.163h1.1562zm4.6249 0h-1.1562v1.163h1.1562zm4.6249 0h-1.1562v1.163h1.1562zm4.6249 0h-1.1562v1.163h1.1562zm272.8689 0h-1.156v1.163h1.156zm4.625 0h-1.156v1.163h1.156zm4.625 0h-1.156v1.163h1.156zm4.625 0h-1.156v1.163h1.156zm4.625 0h-1.156v1.163h1.156zm4.625 0h-1.157v1.163h1.157zm4.625 0h-1.157v1.163h1.157zm4.624 0h-1.156v1.163h1.156zm4.625 0h-1.156v1.163h1.156zm4.625 0h-1.156v1.163h1.156zm4.625 0h-1.156v1.163h1.156zm4.625 0h-1.156v1.163h1.156zm5.781 0h-2.312v1.168h2.312zm4.625 0h-2.312v1.168h2.312zm4.625 0h-2.312v1.168h2.312zm4.625 0h-2.313v1.168h2.313zm4.625 0h-2.313v1.168h2.313zm4.625 0h-2.313v1.168h2.313zm4.625 0h-2.313v1.168h2.313zm-432.429 2.325h-1.156v1.163h1.156zm-3.468 2.326h-1.156v1.162h1.156zm4.625 0h-1.157v1.162h1.157zm4.625 0h-1.157v1.162h1.157zm4.625 0h-1.157v1.162h1.157zm4.624 0h-1.156v1.162h1.156zm4.625 0h-1.156v1.162h1.156zm4.625 0h-1.156v1.162h1.156zm4.625 0h-1.156v1.162h1.156zm4.625 0h-1.156v1.162h1.156zm4.625 0h-1.156v1.162h1.156zm4.625 0h-1.156v1.162h1.156zm4.625 0h-1.157v1.162h1.157zm4.625 0h-1.157v1.162h1.157zm4.6245 0h-1.1562v1.162h1.1562zm4.6249 0h-1.1562v1.162h1.1562zm4.6249 0h-1.1562v1.162h1.1562zm4.6249 0h-1.1562v1.162h1.1562zm286.7438 0h-1.156v1.162h1.156zm4.625 0h-1.156v1.162h1.156zm4.625 0h-1.156v1.162h1.156zm4.625 0h-1.157v1.162h1.157zm4.625 0h-1.157v1.162h1.157zm4.624 0h-1.156v1.162h1.156zm4.625 0h-1.156v1.162h1.156zm4.625 0h-1.156v1.162h1.156zm4.625 0h-1.156v1.162h1.156zm4.625 0h-1.156v1.162h1.156zm4.625 0h-1.156v1.162h1.156zm4.625 0h-1.156v1.162h1.156zm4.625 0h-1.156v1.162h1.156zm4.625 0h-1.157v1.162h1.157zm4.625 0h-1.157v1.162h1.157zm4.624 0h-1.156v1.162h1.156zm4.625 0h-1.156v1.162h1.156zm-434.74 4.65h-1.156v1.163h1.156zm4.625 0h-1.157v1.163h1.157zm4.625 0h-1.157v1.163h1.157zm4.625 0h-1.157v1.163h1.157zm4.624 0h-1.156v1.163h1.156zm4.625 0h-1.156v1.163h1.156zm4.625 0h-1.156v1.163h1.156zm4.625 0h-1.156v1.163h1.156zm4.625 0h-1.156v1.163h1.156zm4.625 0h-1.156v1.163h1.156zm4.625 0h-1.156v1.163h1.156zm4.625 0h-1.157v1.163h1.157zm4.625 0h-1.157v1.163h1.157zm4.6245 0h-1.1562v1.163h1.1562zm4.6249 0h-1.1562v1.163h1.1562zm300.6186 0h-1.156v1.163h1.156zm4.625 0h-1.156v1.163h1.156zm4.625 0h-1.157v1.163h1.157zm4.625 0h-1.157v1.163h1.157zm4.624 0h-1.156v1.163h1.156zm4.625 0h-1.156v1.163h1.156zm4.625 0h-1.156v1.163h1.156zm4.625 0h-1.156v1.163h1.156zm4.625 0h-1.156v1.163h1.156zm4.625 0h-1.156v1.163h1.156zm4.625 0h-1.156v1.163h1.156zm4.625 0h-1.156v1.163h1.156zm4.625 0h-1.157v1.163h1.157zm4.625 0h-1.157v1.163h1.157zm4.624 0h-1.156v1.163h1.156zm4.625 0h-1.156v1.163h1.156zm-434.74 4.651h-1.156v1.162h1.156zm4.625 0h-1.157v1.162h1.157zm4.625 0h-1.157v1.162h1.157zm4.625 0h-1.157v1.162h1.157zm4.624 0h-1.156v1.162h1.156zm4.625 0h-1.156v1.162h1.156zm4.625 0h-1.156v1.162h1.156zm4.625 0h-1.156v1.162h1.156zm4.625 0h-1.156v1.162h1.156zm4.625 0h-1.156v1.162h1.156zm4.625 0h-1.156v1.162h1.156zm4.625 0h-1.157v1.162h1.157zm4.625 0h-1.157v1.162h1.157zm4.6245 0h-1.1562v1.162h1.1562zm314.4935 0h-1.157v1.162h1.157zm4.625 0h-1.157v1.162h1.157zm4.624 0h-1.156v1.162h1.156zm4.625 0h-1.156v1.162h1.156zm4.625 0h-1.156v1.162h1.156zm4.625 0h-1.156v1.162h1.156zm4.625 0h-1.156v1.162h1.156zm4.625 0h-1.156v1.162h1.156zm4.625 0h-1.156v1.162h1.156zm4.625 0h-1.156v1.162h1.156zm4.625 0h-1.157v1.162h1.157zm4.625 0h-1.157v1.162h1.157zm4.624 0h-1.156v1.162h1.156zm4.625 0h-1.156v1.162h1.156zm-434.74 4.65h-1.156v1.163h1.156zm4.625 0h-1.157v1.163h1.157zm4.625 0h-1.157v1.163h1.157zm4.625 0h-1.157v1.163h1.157zm4.624 0h-1.156v1.163h1.156zm4.625 0h-1.156v1.163h1.156zm4.625 0h-1.156v1.163h1.156zm4.625 0h-1.156v1.163h1.156zm4.625 0h-1.156v1.163h1.156zm4.625 0h-1.156v1.163h1.156zm4.625 0h-1.156v1.163h1.156zm4.625 0h-1.157v1.163h1.157zm328.368 0h-1.157v1.163h1.157zm4.624 0h-1.156v1.163h1.156zm4.625 0h-1.156v1.163h1.156zm4.625 0h-1.156v1.163h1.156zm4.625 0h-1.156v1.163h1.156zm4.625 0h-1.156v1.163h1.156zm4.625 0h-1.156v1.163h1.156zm4.625 0h-1.156v1.163h1.156zm4.625 0h-1.156v1.163h1.156zm4.625 0h-1.157v1.163h1.157zm4.625 0h-1.157v1.163h1.157zm4.624 0h-1.156v1.163h1.156zm4.625 0h-1.156v1.163h1.156zm-434.74 4.651h-1.156v1.162h1.156zm4.625 0h-1.157v1.162h1.157zm4.625 0h-1.157v1.162h1.157zm4.625 0h-1.157v1.162h1.157zm4.624 0h-1.156v1.162h1.156zm4.625 0h-1.156v1.162h1.156zm4.625 0h-1.156v1.162h1.156zm4.625 0h-1.156v1.162h1.156zm4.625 0h-1.156v1.162h1.156zm4.625 0h-1.156v1.162h1.156zm351.492 0h-1.156v1.162h1.156zm4.625 0h-1.156v1.162h1.156zm4.625 0h-1.156v1.162h1.156zm4.625 0h-1.156v1.162h1.156zm4.625 0h-1.156v1.162h1.156zm4.625 0h-1.156v1.162h1.156zm4.625 0h-1.157v1.162h1.157zm4.625 0h-1.157v1.162h1.157zm4.624 0h-1.156v1.162h1.156zm4.625 0h-1.156v1.162h1.156zm-420.865 4.65h-1.157v1.163h1.157zm4.624 0h-1.156v1.163h1.156zm4.625 0h-1.156v1.163h1.156zm4.625 0h-1.156v1.163h1.156zm374.617 0h-1.156v1.163h1.156zm4.625 0h-1.156v1.163h1.156zm4.625 0h-1.156v1.163h1.156zm4.625 0h-1.156v1.163h1.156zM168.68-4.31464H-47.5339V-3.152H168.68zm-9.25-4.65052H-38.2841v1.16262H159.43zm-13.874-4.65054H-24.4094v1.1626H145.556zm-5.781 11.62633H-20.9407v1.162626H139.775zm-8.094-16.27683H-10.5347v1.1626H131.681zM125.9-6.63991H-5.90976v1.16264H125.9zM113.181-22.9168H7.96492v1.1627H113.181zm-9.249 11.6264H16.0585v1.1626h87.8735zM80.8071-27.5673H40.3392v1.1626h40.4679zM196.43 4.98642h-3.469v1.16264h3.469zM-155.063-92.6747h-3.468v1.1626h3.468zm4.625 0h-3.469v1.1626h3.469zm4.625 0h-3.469v1.1626h3.469zm4.625 0h-3.469v1.1626h3.469zm4.625 0h-3.469v1.1626h3.469z"/>
    </g>
    <mask id="c" width="80" height="80" x="19" y="9" fill="#000" maskUnits="userSpaceOnUse">
      <path fill="#fff" d="M19 9h80v80H19z"/>
      <path d="M59 10c21.5391 0 39 17.4609 39 39S80.5391 88 59 88 20 70.5391 20 49s17.4609-39 39-39m0 23c-8.8366 0-16 7.1634-16 16s7.1634 16 16 16 16-7.1634 16-16-7.1634-16-16-16"/>
    </mask>
    <path fill="#1c1c1d" d="M59 10c21.5391 0 39 17.4609 39 39S80.5391 88 59 88 20 70.5391 20 49s17.4609-39 39-39m0 23c-8.8366 0-16 7.1634-16 16s7.1634 16 16 16 16-7.1634 16-16-7.1634-16-16-16"/>
    <path fill="#000" d="M59 10v1c20.9868 0 38 17.0132 38 38h2C99 26.9086 81.0914 9 59 9zm39 39h-1c0 20.9868-17.0132 38-38 38v2c22.0914 0 40-17.9086 40-40zM59 88v-1c-20.9868 0-38-17.0132-38-38h-2c0 22.0914 17.9086 40 40 40zM20 49h1c0-20.9868 17.0132-38 38-38V9C36.9086 9 19 26.9086 19 49zm39-16v-1c-9.3888 0-17 7.6112-17 17h2c0-8.2843 6.7157-15 15-15zM43 49h-1c0 9.3888 7.6112 17 17 17v-2c-8.2843 0-15-6.7157-15-15zm16 16v1c9.3888 0 17-7.6112 17-17h-2c0 8.2843-6.7157 15-15 15zm16-16h1c0-9.3888-7.6112-17-17-17v2c8.2843 0 15 6.7157 15 15z" mask="url(#c)"/>
    <path fill="#ff5601" d="M81.6274 26.3726c1.1716-1.1716 1.1793-3.0823-.0883-4.1493-3.6207-3.0477-7.8304-5.3364-12.3791-6.7162-5.508-1.6708-11.343-1.9575-16.9882-.8346s-10.9263 3.6207-15.3756 7.2721c-4.4492 3.6515-7.9293 8.3438-10.132 13.6615-2.2026 5.3176-3.0598 11.0964-2.4957 16.8245.5642 5.7281 2.5323 11.2286 5.7301 16.0144 3.1977 4.7857 7.5264 8.709 12.6025 11.4222 4.1921 2.2408 8.7872 3.5991 13.5025 4.0043C57.6544 84.0134 59 82.6569 59 81v-9.2966c0-1.6569-1.3508-2.9767-2.9885-3.228-2.1963-.337-4.3272-1.0443-6.2996-2.0986-2.8577-1.5274-5.2945-3.736-7.0947-6.4302-1.8002-2.6941-2.9081-5.7907-3.2257-9.0153-.3176-3.2247.1649-6.4779 1.4049-9.4715s3.1992-5.6351 5.7039-7.6907 5.4778-3.4618 8.6558-4.0939c3.1779-.6321 6.4628-.4708 9.5635.4698 2.1402.6492 4.1471 1.6559 5.9385 2.9706 1.3357.9803 3.224 1.0022 4.3956-.1693z"/>
    <path fill="#000" fill-rule="evenodd" d="M33.1595 47.8439c.4085 1.3285 1.2255 9.0184 3.673 11.2363 2.5242 2.2827 12.0456 2.247 13.8685 1.2594 4.0798-2.2141 5.7339-9.3662 6.4555-12.4975.4068-1.7732 1.7008-1.7732 1.7008-1.7732s1.3708 0 1.7793 1.7713c.7217 3.1332 2.3022 10.3056 6.3787 12.5161 1.8246.9913 11.346 1.027 13.8736-1.2557 2.4441-2.2179 3.2594-9.93 3.6679-11.2604.4051-1.3285 2.4476-2.6588 2.8544-3.1017.4102-.4428.4102-2.216 0-2.6607-.8153-.8856-10.4405-1.675-20.8044-.4428-2.068.2464-2.8544.8857-7.7512.8857-4.8935 0-5.6832-.6411-7.7495-.8857-10.3571-1.2303-19.984-.441-20.801.4447-.4068.4428-.4068 2.2178 0 2.6607.4085.4428 2.4476 1.7732 2.8544 3.1035" clip-rule="evenodd"/>
    <path fill="#fff" fill-rule="evenodd" stroke="#000" d="M33.1749 45.8439c.4104 1.3285 1.2314 9.0184 3.6909 11.2363 2.5365 2.2827 12.1042 2.247 13.936 1.2594 4.0998-2.2141 5.7618-9.3662 6.487-12.4975.4088-1.7732 1.7091-1.7732 1.7091-1.7732s1.3774 0 1.7879 1.7713c.7252 3.1332 2.3135 10.3056 6.4098 12.5161 1.8335.9913 11.4013 1.027 13.9412-1.2557 2.456-2.2179 3.2753-9.93 3.6858-11.2604.407-1.3285 2.4595-2.6588 2.8682-3.1017.4122-.4428.4122-2.216 0-2.6607-.8192-.8856-10.4913-1.675-20.9057-.4428-2.0781.2464-2.8682.8857-7.7889.8857-4.9173 0-5.7109-.6411-7.7873-.8857-10.4076-1.2303-20.0813-.441-20.9023.4447-.4088.4428-.4088 2.2178 0 2.6607.4105.4428 2.4595 1.7732 2.8683 3.1035Z" clip-rule="evenodd"/>
  </g>
  <defs>
    <clipPath id="a">
      <path fill="#fff" d="M0 19.2C0 12.4794 0 9.11905 1.30792 6.55211 2.4584 4.29417 4.29417 2.4584 6.55211 1.30792 9.11905 0 12.4794 0 19.2 0h81.6c6.721 0 10.081 0 12.648 1.30792 2.258 1.15048 4.094 2.98625 5.244 5.24419C120 9.11905 120 12.4794 120 19.2v61.6c0 6.7206 0 10.0809-1.308 12.6479-1.15 2.2579-2.986 4.0937-5.244 5.2442C110.881 100 107.521 100 100.8 100H19.2c-6.7206 0-10.08095 0-12.64789-1.3079-2.25794-1.1505-4.09371-2.9863-5.24419-5.2442C0 90.8809 0 87.5206 0 80.8z"/>
    </clipPath>
    <clipPath id="b">
      <path fill="#fff" d="M-162-95h444v250h-444z"/>
    </clipPath>
  </defs>
</svg>
