<svg width="100" height="84" viewBox="0 0 100 84" fill="none" xmlns="http://www.w3.org/2000/svg">
<g clip-path="url(#clip0_3139_12875)">
<rect width="100" height="84" fill="url(#paint0_linear_3139_12875)"/>
<path fill-rule="evenodd" clip-rule="evenodd" d="M26.6665 26.3441C26.6665 23.6504 28.8502 21.4667 31.5439 21.4667H61.8113C64.9041 21.4667 67.4113 23.9739 67.4113 27.0667V27.4882H67.7332C70.826 27.4882 73.3332 29.9954 73.3332 33.0882V56.9333C73.3332 60.0261 70.826 62.5333 67.7332 62.5333H32.2665C29.1737 62.5333 26.6665 60.0261 26.6665 56.9333V26.3441ZM30.3998 31.0866V56.9333C30.3998 57.9643 31.2356 58.8 32.2665 58.8H67.7332C68.7641 58.8 69.5998 57.9643 69.5998 56.9333V53.4024H55.9539C52.8611 53.4024 50.3539 50.8952 50.3539 47.8024V42.5035C50.3539 39.4107 52.8611 36.9035 55.9539 36.9035H69.5998V33.0882C69.5998 32.0572 68.7641 31.2215 67.7332 31.2215H31.5439C31.1499 31.2215 30.7668 31.1748 30.3998 31.0866ZM69.5998 40.6368H55.9539C54.9229 40.6368 54.0872 41.4726 54.0872 42.5035V47.8024C54.0872 48.8334 54.9229 49.6691 55.9539 49.6691H69.5998V40.6368ZM30.3998 26.3441C30.3998 26.976 30.9121 27.4882 31.5439 27.4882H63.678V27.0667C63.678 26.0357 62.8423 25.2 61.8113 25.2H31.5439C30.9121 25.2 30.3998 25.7122 30.3998 26.3441Z" fill="white"/>
</g>
<defs>
<linearGradient id="paint0_linear_3139_12875" x1="50" y1="0" x2="50" y2="84" gradientUnits="userSpaceOnUse">
<stop stop-color="#252527"/>
<stop offset="1" stop-color="#141415"/>
</linearGradient>
<clipPath id="clip0_3139_12875">
<path d="M0 19.2C0 12.4794 0 9.11905 1.30792 6.55211C2.4584 4.29417 4.29417 2.4584 6.55211 1.30792C9.11905 0 12.4794 0 19.2 0H80.8C87.5206 0 90.8809 0 93.4479 1.30792C95.7058 2.4584 97.5416 4.29417 98.6921 6.55211C100 9.11905 100 12.4794 100 19.2V64.8C100 71.5206 100 74.8809 98.6921 77.4479C97.5416 79.7058 95.7058 81.5416 93.4479 82.6921C90.8809 84 87.5206 84 80.8 84H19.2C12.4794 84 9.11905 84 6.55211 82.6921C4.29417 81.5416 2.4584 79.7058 1.30792 77.4479C0 74.8809 0 71.5206 0 64.8V19.2Z" fill="white"/>
</clipPath>
</defs>
</svg>
