<svg xmlns="http://www.w3.org/2000/svg" width="15" height="49" viewBox="0 0 15 49" fill="none">
  <path d="M7.36403 0C10.3096 0 12.697 2.38749 12.697 5.33301C12.697 7.93657 10.8313 10.1021 8.36403 10.5703V44.9189L13.0213 40.2617C13.4118 39.8715 14.0449 39.8713 14.4353 40.2617C14.8257 40.6521 14.8256 41.2852 14.4353 41.6758L8.07107 48.04C7.68054 48.4306 7.04753 48.4306 6.657 48.04L0.292745 41.6758C-0.0974833 41.2852 -0.0976804 40.6521 0.292745 40.2617C0.683171 39.8713 1.31626 39.8715 1.70681 40.2617L6.36403 44.9189V10.5703C3.89673 10.1021 2.03103 7.93657 2.03103 5.33301C2.03103 2.38749 4.41852 0 7.36403 0Z" fill="#F45202"/>
</svg>