<svg width="176" height="24" viewBox="0 0 176 24" fill="none" xmlns="http://www.w3.org/2000/svg">
<path d="M13.5072 2.46725C13.5072 0.528048 11.664 -0.057552 10.1184 0.009648V0.182448C11.04 0.249648 11.7504 0.624048 11.7504 1.24805C11.7504 1.68005 11.4432 2.21765 10.5216 2.21765C9.792 2.21765 8.5824 1.78565 7.4496 1.41125C6.2016 0.979248 5.0112 0.576048 4.0224 0.576048C2.0832 0.576048 0.6144 2.01605 0.6144 3.80165C0.6144 5.24165 1.728 5.74085 2.1792 5.92325L2.208 5.85605C1.92 5.66405 1.7376 5.45285 1.7376 4.83845C1.7376 4.32005 2.112 3.62885 3.1104 3.62885C4.0128 3.62885 5.1936 4.03205 6.7584 4.47365C8.1024 4.84805 9.552 5.20325 10.3584 5.30885V8.45765L8.8416 9.70565L10.3584 11.0112V15.3216C9.5808 15.7632 8.6784 15.9072 7.9008 15.9072C6.4608 15.9072 5.136 15.504 4.0416 14.2944L8.1312 12.3072V5.50085L3.1392 7.72805C3.6576 6.40325 4.6272 5.41445 5.6928 4.77125L5.664 4.69445C2.6976 5.50085 0 8.21765 0 11.5776C0 15.6 3.216 18.5856 6.9312 18.5856C10.9536 18.5856 13.3152 15.4368 13.2768 12.1056H13.2C12.6144 13.3824 11.6352 14.592 10.5312 15.2256V11.0208L12.1152 9.74405L10.5312 8.46725V5.31845C12 5.31845 13.5168 4.34885 13.5168 2.47685M5.088 13.5648L3.9264 14.1504C3.216 13.2288 2.7456 11.9232 2.7456 10.2432C2.7456 9.55205 2.8224 8.61125 3.0528 7.94885L5.1072 7.02725L5.0784 13.5552L5.088 13.5648ZM23.7792 8.03525L23.0016 8.64965L20.6304 6.53765L17.8848 8.65925V0.460848L14.1504 3.04325C14.5824 3.18725 15.1008 3.41765 15.1008 4.41605V15.7536L13.824 16.7232L13.9392 16.8384L14.5824 16.3968L16.8096 18.4321L19.7952 16.4448L19.6992 16.3008L18.9408 16.8L17.904 15.7632V8.92805L18.6144 8.40965L20.2464 9.83045V15.7728C20.2464 19.5361 19.4112 20.3136 17.7216 20.928V21.024C20.5344 21.1392 23.0688 20.1889 23.0688 15.3696V8.88965L23.9136 8.19845L23.7984 8.05445L23.7792 8.03525ZM28.7904 18.4032L33.12 14.928L33.0048 14.7648L30.7392 16.56L28.1376 14.5056V13.2288L32.6304 10.0608L30.3648 6.53765L25.3728 9.28325V15.8112L24.4032 16.5696L24.5184 16.7136L25.44 15.984L28.8 18.4224H28.7904V18.4032ZM28.128 12.96V8.01605L30.3072 11.424L28.128 12.96ZM51.024 1.54565C51.024 1.23845 50.9472 0.979248 50.832 0.624048H50.7648C50.4576 1.45925 50.1216 1.90085 49.152 1.90085C48.3072 1.90085 47.6352 1.38245 47.28 0.998448C47.28 1.02725 44.4384 4.28165 44.4384 4.28165L44.5824 4.39685L45.3888 3.47525C46.0032 3.94565 46.5504 4.49285 47.9136 4.51205V12.8064L42.096 2.72645C41.6448 1.96805 40.8672 0.835248 39.5424 0.835248C37.9776 0.835248 36.7968 2.17925 36.9888 4.45445H37.0848C37.2 3.88805 37.536 3.17765 38.2176 3.17765C38.7648 3.17765 39.2064 3.69605 39.4656 4.16645V7.41125C37.6704 7.41125 36.6528 8.24645 36.6528 9.65765C36.6528 10.2432 37.0848 11.52 38.304 11.7408V11.6736C38.1408 11.5104 37.9776 11.3664 37.9776 11.0304C37.9776 10.4832 38.3808 10.1856 39.1104 10.1856C39.2256 10.1856 39.3984 10.2144 39.4656 10.2336V14.4384C37.3536 14.4672 35.7312 15.6192 35.7312 17.6161C35.7312 19.6129 37.3632 20.3808 39.0624 20.2848V20.2176C37.9968 20.1024 37.4496 19.5552 37.4496 18.7776C37.4496 17.9328 38.064 17.472 38.8416 17.472C39.6192 17.472 40.2144 17.9712 40.7136 18.5376L43.5552 15.3408L43.44 15.2256L42.7104 16.0608C41.616 15.0912 40.9152 14.64 39.6576 14.448V4.48325L47.6832 18.4704H48.1152V4.53125C49.6512 4.43525 51.024 3.28325 51.024 1.54565ZM53.7216 18.384L58.0512 14.9088L57.936 14.7456L55.6704 16.5408L53.0688 14.4864V13.2096L57.5616 10.0416L55.296 6.51845L50.304 9.26405V15.7921L49.3344 16.5504L49.4496 16.6944L50.3712 15.9648L53.7312 18.4032L53.7216 18.384ZM53.0592 12.9408V7.99685L55.2384 11.4048L53.0592 12.9408ZM73.4304 7.64165L72.768 8.14085L70.8768 6.52805L68.6784 8.51525L69.5808 9.36005V16.7712L67.3344 15.2352V9.22565L68.112 8.67845L65.7984 6.52805L63.648 8.51525L64.5504 9.36005V16.5216L64.4064 16.6176L62.2944 15.0816V9.19685C62.2944 7.82405 61.6032 7.42085 60.7296 6.88325C60 6.43205 59.616 6.00965 59.616 5.31845C59.616 4.56005 60.2784 4.25285 60.4896 4.13765C59.7312 4.10885 57.6288 4.86725 57.5808 6.78725C57.552 7.77605 58.032 8.20805 58.5312 8.67845C59.0304 9.14885 59.5008 9.60005 59.5008 10.4352V16.2048L58.4832 17.0112L58.5984 17.1264L59.568 16.368L62.0928 18.4224L64.5024 16.7425L67.152 18.4224L72.3552 15.3504V8.67845L73.5168 7.77605L73.4208 7.63205L73.4304 7.64165ZM90.8544 2.03525L89.8656 2.93765L87.6384 0.998448L84.6336 3.40805V1.14245H84.4512V17.3953C84.1248 17.3472 83.4336 17.1552 82.6752 17.04V3.43685C82.6752 2.44805 81.9648 1.06565 80.1888 1.06565C78.4128 1.06565 77.2992 2.56325 77.2992 3.85925H77.376C77.472 3.27365 77.8752 2.74565 78.4608 2.74565C79.0464 2.74565 79.5936 3.12005 79.5936 4.45445V8.33285C77.9136 8.40005 76.896 9.44645 76.896 10.5792C76.896 11.2224 77.2992 12.4224 78.576 12.4704V12.3744C78.144 12.192 78.0576 11.9712 78.0576 11.7312C78.0576 11.1648 78.6048 10.9728 79.3632 10.9728H79.5456V17.2225C78.1056 17.7216 77.4336 18.6912 77.4336 19.8912C77.4336 21.5424 78.7584 22.8193 80.6976 22.8193C82.0704 22.8193 83.04 22.5793 84.2976 22.3008C85.3152 22.0896 86.4192 21.8496 87.0144 21.8496C87.7728 21.8496 88.1088 22.1856 88.1088 22.7232C88.1088 23.4144 87.8496 23.76 87.4464 23.8848V23.9809C89.0784 23.6736 90.0288 22.7328 90.0288 21.264C90.0288 19.7952 88.5888 18.8256 86.976 18.8256C86.1408 18.8256 84.6336 19.0849 83.4048 19.3729C82.032 19.68 80.8512 19.824 80.4192 19.824C79.728 19.824 78.8832 19.5168 78.8832 18.5953C78.8832 17.76 79.5744 17.0976 81.2736 17.0976C82.1952 17.0976 83.0976 17.2416 84.2304 17.5008C85.44 17.76 86.2656 18.1152 87.3024 18.1152C88.7424 18.1152 89.904 17.5968 89.904 15.4848V3.15845L90.9696 2.18885L90.8544 2.04485V2.03525ZM86.784 8.54405C86.5248 8.83205 86.2176 9.06245 85.7184 9.06245C85.1712 9.06245 84.8832 8.77445 84.624 8.54405V3.65765L85.3344 3.09125L86.7744 4.32005V8.55365L86.784 8.54405ZM86.784 10.8576C86.544 10.6176 86.2368 10.4064 85.7184 10.4064C85.2 10.4064 84.8448 10.6656 84.624 10.8576V8.77445C84.8352 8.95685 85.1904 9.24485 85.7184 9.24485C86.2464 9.24485 86.5536 9.00485 86.784 8.77445V10.8576ZM86.784 15.7536C86.784 16.56 86.3808 17.4625 85.344 17.4625C85.1808 17.4625 84.7968 17.4336 84.6336 17.4144V11.0976C84.8736 10.8864 85.1808 10.5984 85.728 10.5984C86.2272 10.5984 86.5056 10.8384 86.7936 11.0976V15.7632L86.784 15.7536ZM95.2128 18.384L100.042 15.3792V8.80325L96.9216 6.50885L92.0928 9.27365V15.7824L91.1424 16.5408L91.2384 16.6848L92.016 16.0416L95.2128 18.384ZM94.8576 14.976V7.96805L97.2672 9.76325V16.7712L94.8576 14.976ZM109.267 6.67205C108.893 6.93125 108.557 7.07525 108.202 7.07525C107.827 7.07525 107.357 6.83525 107.107 6.52805C107.107 6.55685 105.312 8.46725 105.312 8.46725L103.517 6.52805L100.589 8.56325L100.685 8.72645L101.462 8.20805L102.528 9.36965V15.7344L101.251 16.704L101.366 16.8193L102.01 16.3776L104.4 18.4128L107.424 16.4065L107.328 16.2624L106.55 16.7328L105.322 15.6192V8.63045C105.821 9.17765 106.387 9.64805 107.069 9.64805C108.298 9.64805 109.123 8.17925 109.267 6.66245M120.672 16.08L119.77 16.6465L114.778 9.19685L115.037 8.84165C115.584 9.16805 116.074 9.61925 117.12 9.61925C118.166 9.61925 119.491 8.52485 119.606 6.51845C119.347 6.87365 118.829 7.29605 117.974 7.29605C117.36 7.29605 116.746 6.89285 116.371 6.51845L112.963 11.5296L117.485 18.4128L120.768 16.2336L120.672 16.0704V16.08ZM114.614 16.2624L113.856 16.7616L112.819 15.7248V0.460848L109.085 3.04325C109.517 3.18725 110.035 3.41765 110.035 4.41605V15.7536L108.758 16.7232L108.874 16.8384L109.517 16.3968L111.744 18.4321L114.73 16.4448L114.634 16.3008L114.614 16.2624ZM136.589 2.44805C136.589 0.508848 134.746 -0.076752 133.2 -0.00955201V0.182448C134.122 0.249648 134.832 0.624048 134.832 1.24805C134.832 1.68005 134.525 2.21765 133.603 2.21765C132.874 2.21765 131.664 1.78565 130.531 1.41125C129.283 0.979248 128.093 0.576048 127.104 0.576048C125.165 0.576048 123.696 2.01605 123.696 3.79205C123.696 5.23205 124.81 5.73125 125.261 5.91365L125.29 5.84645C125.002 5.65445 124.819 5.44325 124.819 4.82885C124.819 4.31045 125.194 3.61925 126.192 3.61925C127.094 3.61925 128.275 4.02245 129.84 4.46405C131.184 4.83845 132.634 5.19365 133.44 5.29925V8.44805L131.923 9.69605L133.44 11.0016V15.312C132.662 15.7536 131.76 15.8976 130.982 15.8976C129.542 15.8976 128.208 15.4944 127.123 14.2848L131.213 12.2976V5.50085L126.221 7.72805C126.739 6.40325 127.709 5.41445 128.774 4.77125L128.746 4.69445C125.789 5.50085 123.091 8.21765 123.091 11.5776C123.091 15.6 126.307 18.5856 130.022 18.5856C134.045 18.5856 136.406 15.4368 136.368 12.1056H136.301C135.715 13.3824 134.736 14.592 133.632 15.2256V11.0208L135.216 9.74405L133.632 8.46725V5.31845C135.101 5.31845 136.618 4.34885 136.618 2.47685M128.189 13.5744L127.027 14.16C126.317 13.2384 125.846 11.9328 125.846 10.2528C125.846 9.56165 125.914 8.62085 126.154 7.95845L128.208 7.03685L128.179 13.5648L128.189 13.5744ZM139.642 1.75685L137.558 3.50405L139.334 5.51045L141.418 3.76325L139.642 1.75685ZM142.81 16.3008L142.051 16.8L141.014 15.7632V8.88005L141.888 8.18885L141.773 8.04485L141.043 8.61125L139.315 6.55685L136.474 8.54405L136.57 8.70725L137.28 8.23685L138.23 9.41765V15.7632L136.954 16.7328L137.069 16.848L137.712 16.4065L139.939 18.4416L142.925 16.4544L142.829 16.3104L142.81 16.3008ZM158.774 16.2048L158.064 16.6753L156.95 15.6096V8.86085L157.853 8.16965L157.738 8.02565L156.931 8.64005L154.56 6.52805L151.891 8.61125L149.549 6.52805L146.918 8.58245L145.142 6.52805L142.301 8.51525L142.397 8.67845L143.107 8.20805L144.125 9.36965V15.7153L143.347 16.4928L145.613 18.4128L147.811 16.4256L146.909 15.5808V8.82245L147.494 8.39045L149.126 9.81125V15.7248L148.368 16.5024L150.662 18.4224L152.813 16.4352L151.91 15.5904V8.83205L152.477 8.38085L154.128 9.82085V15.6384L153.466 16.3296L155.779 18.4416L158.832 16.3584L158.736 16.2144H158.755L158.774 16.2048ZM167.03 14.7648L164.765 16.56L162.163 14.5056V13.2288L166.656 10.0608L164.39 6.53765L159.398 9.28325V15.936L162.826 18.4224L167.155 14.9472L167.04 14.784L167.03 14.7648ZM162.154 12.96V8.01605L164.333 11.424L162.154 12.96ZM175.709 12.0288L173.789 10.56C175.066 9.44645 175.517 8.03525 175.517 7.01765C175.517 6.87365 175.488 6.61445 175.469 6.37445H175.392C175.21 6.89285 174.701 7.34405 173.923 7.34405C173.146 7.34405 172.714 6.91205 172.243 6.39365L167.846 8.83205V12.4032L169.526 13.728C167.846 15.216 167.52 16.1376 167.52 16.9921C167.52 17.8465 168.019 18.5952 168.874 18.9312L168.941 18.816C168.73 18.6336 168.538 18.5088 168.538 18.0576C168.538 17.7312 168.874 17.2129 169.632 17.2129C170.602 17.2129 171.197 17.8752 171.504 18.2304C171.504 18.2016 175.709 15.648 175.709 15.648V12.0288ZM174.72 9.10085C174.058 10.2816 172.598 11.4432 171.734 12.1056L170.669 11.2032V7.72805C171.101 8.67845 171.974 9.47525 173.107 9.47525C173.77 9.47525 174.202 9.36005 174.71 9.10085M172.886 16.9056C172.387 15.792 171.322 14.9856 170.141 14.9856C169.853 14.9856 168.979 14.9568 168.221 15.4272C168.672 14.6688 170.016 13.3056 171.725 12.2784L172.886 13.248V16.896V16.9056Z" fill="black"/>
</svg>
