<svg xmlns="http://www.w3.org/2000/svg" width="177" height="24" viewBox="0 0 177 24" fill="none">
  <g clip-path="url(#clip0_184_15362)">
    <path d="M13.9872 2.46725C13.9872 0.528048 12.144 -0.057552 10.5984 0.009648V0.182448C11.52 0.249648 12.2304 0.624048 12.2304 1.24805C12.2304 1.68005 11.9232 2.21765 11.0016 2.21765C10.272 2.21765 9.06238 1.78565 7.92958 1.41125C6.68158 0.979248 5.49118 0.576048 4.50238 0.576048C2.56318 0.576048 1.09438 2.01605 1.09438 3.80165C1.09438 5.24165 2.20798 5.74085 2.65918 5.92325L2.68798 5.85605C2.39998 5.66405 2.21758 5.45285 2.21758 4.83845C2.21758 4.32005 2.59198 3.62885 3.59038 3.62885C4.49278 3.62885 5.67358 4.03205 7.23838 4.47365C8.58238 4.84805 10.032 5.20325 10.8384 5.30885V8.45765L9.32158 9.70565L10.8384 11.0112V15.3216C10.0608 15.7632 9.15838 15.9072 8.38078 15.9072C6.94078 15.9072 5.61598 15.504 4.52158 14.2944L8.61118 12.3072V5.50085L3.61918 7.72805C4.13758 6.40325 5.10718 5.41445 6.17278 4.77125L6.14398 4.69445C3.17758 5.50085 0.47998 8.21765 0.47998 11.5776C0.47998 15.6 3.69598 18.5856 7.41118 18.5856C11.4336 18.5856 13.7952 15.4368 13.7568 12.1056H13.68C13.0944 13.3824 12.1152 14.592 11.0112 15.2256V11.0208L12.5952 9.74405L11.0112 8.46725V5.31845C12.48 5.31845 13.9968 4.34885 13.9968 2.47685M5.56798 13.5648L4.40638 14.1504C3.69598 13.2288 3.22558 11.9232 3.22558 10.2432C3.22558 9.55205 3.30238 8.61125 3.53278 7.94885L5.58718 7.02725L5.55838 13.5552L5.56798 13.5648ZM24.2592 8.03525L23.4816 8.64965L21.1104 6.53765L18.3648 8.65925V0.460848L14.6304 3.04325C15.0624 3.18725 15.5808 3.41765 15.5808 4.41605V15.7536L14.304 16.7232L14.4192 16.8384L15.0624 16.3968L17.2896 18.4321L20.2752 16.4448L20.1792 16.3008L19.4208 16.8L18.384 15.7632V8.92805L19.0944 8.40965L20.7264 9.83045V15.7728C20.7264 19.5361 19.8912 20.3136 18.2016 20.928V21.024C21.0144 21.1392 23.5488 20.1889 23.5488 15.3696V8.88965L24.3936 8.19845L24.2784 8.05445L24.2592 8.03525ZM29.2704 18.4032L33.6 14.928L33.4848 14.7648L31.2192 16.56L28.6176 14.5056V13.2288L33.1104 10.0608L30.8448 6.53765L25.8528 9.28325V15.8112L24.8832 16.5696L24.9984 16.7136L25.92 15.984L29.28 18.4224H29.2704V18.4032ZM28.608 12.96V8.01605L30.7872 11.424L28.608 12.96ZM51.504 1.54565C51.504 1.23845 51.4272 0.979248 51.312 0.624048H51.2448C50.9376 1.45925 50.6016 1.90085 49.632 1.90085C48.7872 1.90085 48.1152 1.38245 47.76 0.998448C47.76 1.02725 44.9184 4.28165 44.9184 4.28165L45.0624 4.39685L45.8688 3.47525C46.4832 3.94565 47.0304 4.49285 48.3936 4.51205V12.8064L42.576 2.72645C42.1248 1.96805 41.3472 0.835248 40.0224 0.835248C38.4576 0.835248 37.2768 2.17925 37.4688 4.45445H37.5648C37.68 3.88805 38.016 3.17765 38.6976 3.17765C39.2448 3.17765 39.6864 3.69605 39.9456 4.16645V7.41125C38.1504 7.41125 37.1328 8.24645 37.1328 9.65765C37.1328 10.2432 37.5648 11.52 38.784 11.7408V11.6736C38.6208 11.5104 38.4576 11.3664 38.4576 11.0304C38.4576 10.4832 38.8608 10.1856 39.5904 10.1856C39.7056 10.1856 39.8784 10.2144 39.9456 10.2336V14.4384C37.8336 14.4672 36.2112 15.6192 36.2112 17.6161C36.2112 19.6129 37.8432 20.3808 39.5424 20.2848V20.2176C38.4768 20.1024 37.9296 19.5552 37.9296 18.7776C37.9296 17.9328 38.544 17.472 39.3216 17.472C40.0992 17.472 40.6944 17.9712 41.1936 18.5376L44.0352 15.3408L43.92 15.2256L43.1904 16.0608C42.096 15.0912 41.3952 14.64 40.1376 14.448V4.48325L48.1632 18.4704H48.5952V4.53125C50.1312 4.43525 51.504 3.28325 51.504 1.54565ZM54.2016 18.384L58.5312 14.9088L58.416 14.7456L56.1504 16.5408L53.5488 14.4864V13.2096L58.0416 10.0416L55.776 6.51845L50.784 9.26405V15.7921L49.8144 16.5504L49.9296 16.6944L50.8512 15.9648L54.2112 18.4032L54.2016 18.384ZM53.5392 12.9408V7.99685L55.7184 11.4048L53.5392 12.9408ZM73.9104 7.64165L73.248 8.14085L71.3568 6.52805L69.1584 8.51525L70.0608 9.36005V16.7712L67.8144 15.2352V9.22565L68.592 8.67845L66.2784 6.52805L64.128 8.51525L65.0304 9.36005V16.5216L64.8864 16.6176L62.7744 15.0816V9.19685C62.7744 7.82405 62.0832 7.42085 61.2096 6.88325C60.48 6.43205 60.096 6.00965 60.096 5.31845C60.096 4.56005 60.7584 4.25285 60.9696 4.13765C60.2112 4.10885 58.1088 4.86725 58.0608 6.78725C58.032 7.77605 58.512 8.20805 59.0112 8.67845C59.5104 9.14885 59.9808 9.60005 59.9808 10.4352V16.2048L58.9632 17.0112L59.0784 17.1264L60.048 16.368L62.5728 18.4224L64.9824 16.7425L67.632 18.4224L72.8352 15.3504V8.67845L73.9968 7.77605L73.9008 7.63205L73.9104 7.64165ZM91.3344 2.03525L90.3456 2.93765L88.1184 0.998448L85.1136 3.40805V1.14245H84.9312V17.3953C84.6048 17.3472 83.9136 17.1552 83.1552 17.04V3.43685C83.1552 2.44805 82.4448 1.06565 80.6688 1.06565C78.8928 1.06565 77.7792 2.56325 77.7792 3.85925H77.856C77.952 3.27365 78.3552 2.74565 78.9408 2.74565C79.5264 2.74565 80.0736 3.12005 80.0736 4.45445V8.33285C78.3936 8.40005 77.376 9.44645 77.376 10.5792C77.376 11.2224 77.7792 12.4224 79.056 12.4704V12.3744C78.624 12.192 78.5376 11.9712 78.5376 11.7312C78.5376 11.1648 79.0848 10.9728 79.8432 10.9728H80.0256V17.2225C78.5856 17.7216 77.9136 18.6912 77.9136 19.8912C77.9136 21.5424 79.2384 22.8193 81.1776 22.8193C82.5504 22.8193 83.52 22.5793 84.7776 22.3008C85.7952 22.0896 86.8992 21.8496 87.4944 21.8496C88.2528 21.8496 88.5888 22.1856 88.5888 22.7232C88.5888 23.4144 88.3296 23.76 87.9264 23.8848V23.9809C89.5584 23.6736 90.5088 22.7328 90.5088 21.264C90.5088 19.7952 89.0688 18.8256 87.456 18.8256C86.6208 18.8256 85.1136 19.0849 83.8848 19.3729C82.512 19.68 81.3312 19.824 80.8992 19.824C80.208 19.824 79.3632 19.5168 79.3632 18.5953C79.3632 17.76 80.0544 17.0976 81.7536 17.0976C82.6752 17.0976 83.5776 17.2416 84.7104 17.5008C85.92 17.76 86.7456 18.1152 87.7824 18.1152C89.2224 18.1152 90.384 17.5968 90.384 15.4848V3.15845L91.4496 2.18885L91.3344 2.04485V2.03525ZM87.264 8.54405C87.0048 8.83205 86.6976 9.06245 86.1984 9.06245C85.6512 9.06245 85.3632 8.77445 85.104 8.54405V3.65765L85.8144 3.09125L87.2544 4.32005V8.55365L87.264 8.54405ZM87.264 10.8576C87.024 10.6176 86.7168 10.4064 86.1984 10.4064C85.68 10.4064 85.3248 10.6656 85.104 10.8576V8.77445C85.3152 8.95685 85.6704 9.24485 86.1984 9.24485C86.7264 9.24485 87.0336 9.00485 87.264 8.77445V10.8576ZM87.264 15.7536C87.264 16.56 86.8608 17.4625 85.824 17.4625C85.6608 17.4625 85.2768 17.4336 85.1136 17.4144V11.0976C85.3536 10.8864 85.6608 10.5984 86.208 10.5984C86.7072 10.5984 86.9856 10.8384 87.2736 11.0976V15.7632L87.264 15.7536ZM95.6928 18.384L100.522 15.3792V8.80325L97.4016 6.50885L92.5728 9.27365V15.7824L91.6224 16.5408L91.7184 16.6848L92.496 16.0416L95.6928 18.384ZM95.3376 14.976V7.96805L97.7472 9.76325V16.7712L95.3376 14.976ZM109.747 6.67205C109.373 6.93125 109.037 7.07525 108.682 7.07525C108.307 7.07525 107.837 6.83525 107.587 6.52805C107.587 6.55685 105.792 8.46725 105.792 8.46725L103.997 6.52805L101.069 8.56325L101.165 8.72645L101.942 8.20805L103.008 9.36965V15.7344L101.731 16.704L101.846 16.8193L102.49 16.3776L104.88 18.4128L107.904 16.4065L107.808 16.2624L107.03 16.7328L105.802 15.6192V8.63045C106.301 9.17765 106.867 9.64805 107.549 9.64805C108.778 9.64805 109.603 8.17925 109.747 6.66245M121.152 16.08L120.25 16.6465L115.258 9.19685L115.517 8.84165C116.064 9.16805 116.554 9.61925 117.6 9.61925C118.646 9.61925 119.971 8.52485 120.086 6.51845C119.827 6.87365 119.309 7.29605 118.454 7.29605C117.84 7.29605 117.226 6.89285 116.851 6.51845L113.443 11.5296L117.965 18.4128L121.248 16.2336L121.152 16.0704V16.08ZM115.094 16.2624L114.336 16.7616L113.299 15.7248V0.460848L109.565 3.04325C109.997 3.18725 110.515 3.41765 110.515 4.41605V15.7536L109.238 16.7232L109.354 16.8384L109.997 16.3968L112.224 18.4321L115.21 16.4448L115.114 16.3008L115.094 16.2624ZM137.069 2.44805C137.069 0.508848 135.226 -0.076752 133.68 -0.00955201V0.182448C134.602 0.249648 135.312 0.624048 135.312 1.24805C135.312 1.68005 135.005 2.21765 134.083 2.21765C133.354 2.21765 132.144 1.78565 131.011 1.41125C129.763 0.979248 128.573 0.576048 127.584 0.576048C125.645 0.576048 124.176 2.01605 124.176 3.79205C124.176 5.23205 125.29 5.73125 125.741 5.91365L125.77 5.84645C125.482 5.65445 125.299 5.44325 125.299 4.82885C125.299 4.31045 125.674 3.61925 126.672 3.61925C127.574 3.61925 128.755 4.02245 130.32 4.46405C131.664 4.83845 133.114 5.19365 133.92 5.29925V8.44805L132.403 9.69605L133.92 11.0016V15.312C133.142 15.7536 132.24 15.8976 131.462 15.8976C130.022 15.8976 128.688 15.4944 127.603 14.2848L131.693 12.2976V5.50085L126.701 7.72805C127.219 6.40325 128.189 5.41445 129.254 4.77125L129.226 4.69445C126.269 5.50085 123.571 8.21765 123.571 11.5776C123.571 15.6 126.787 18.5856 130.502 18.5856C134.525 18.5856 136.886 15.4368 136.848 12.1056H136.781C136.195 13.3824 135.216 14.592 134.112 15.2256V11.0208L135.696 9.74405L134.112 8.46725V5.31845C135.581 5.31845 137.098 4.34885 137.098 2.47685M128.669 13.5744L127.507 14.16C126.797 13.2384 126.326 11.9328 126.326 10.2528C126.326 9.56165 126.394 8.62085 126.634 7.95845L128.688 7.03685L128.659 13.5648L128.669 13.5744ZM140.122 1.75685L138.038 3.50405L139.814 5.51045L141.898 3.76325L140.122 1.75685ZM143.29 16.3008L142.531 16.8L141.494 15.7632V8.88005L142.368 8.18885L142.253 8.04485L141.523 8.61125L139.795 6.55685L136.954 8.54405L137.05 8.70725L137.76 8.23685L138.71 9.41765V15.7632L137.434 16.7328L137.549 16.848L138.192 16.4065L140.419 18.4416L143.405 16.4544L143.309 16.3104L143.29 16.3008ZM159.254 16.2048L158.544 16.6753L157.43 15.6096V8.86085L158.333 8.16965L158.218 8.02565L157.411 8.64005L155.04 6.52805L152.371 8.61125L150.029 6.52805L147.398 8.58245L145.622 6.52805L142.781 8.51525L142.877 8.67845L143.587 8.20805L144.605 9.36965V15.7153L143.827 16.4928L146.093 18.4128L148.291 16.4256L147.389 15.5808V8.82245L147.974 8.39045L149.606 9.81125V15.7248L148.848 16.5024L151.142 18.4224L153.293 16.4352L152.39 15.5904V8.83205L152.957 8.38085L154.608 9.82085V15.6384L153.946 16.3296L156.259 18.4416L159.312 16.3584L159.216 16.2144H159.235L159.254 16.2048ZM167.51 14.7648L165.245 16.56L162.643 14.5056V13.2288L167.136 10.0608L164.87 6.53765L159.878 9.28325V15.936L163.306 18.4224L167.635 14.9472L167.52 14.784L167.51 14.7648ZM162.634 12.96V8.01605L164.813 11.424L162.634 12.96ZM176.189 12.0288L174.269 10.56C175.546 9.44645 175.997 8.03525 175.997 7.01765C175.997 6.87365 175.968 6.61445 175.949 6.37445H175.872C175.69 6.89285 175.181 7.34405 174.403 7.34405C173.626 7.34405 173.194 6.91205 172.723 6.39365L168.326 8.83205V12.4032L170.006 13.728C168.326 15.216 168 16.1376 168 16.9921C168 17.8465 168.499 18.5952 169.354 18.9312L169.421 18.816C169.21 18.6336 169.018 18.5088 169.018 18.0576C169.018 17.7312 169.354 17.2129 170.112 17.2129C171.082 17.2129 171.677 17.8752 171.984 18.2304C171.984 18.2016 176.189 15.648 176.189 15.648V12.0288ZM175.2 9.10085C174.538 10.2816 173.078 11.4432 172.214 12.1056L171.149 11.2032V7.72805C171.581 8.67845 172.454 9.47525 173.587 9.47525C174.25 9.47525 174.682 9.36005 175.19 9.10085M173.366 16.9056C172.867 15.792 171.802 14.9856 170.621 14.9856C170.333 14.9856 169.459 14.9568 168.701 15.4272C169.152 14.6688 170.496 13.3056 172.205 12.2784L173.366 13.248V16.896V16.9056Z" fill="black"/>
  </g>
  <defs>
    <clipPath id="clip0_184_15362">
      <rect width="176.64" height="24" fill="white"/>
    </clipPath>
  </defs>
</svg>