<svg width="129" height="40" viewBox="0 0 129 40" fill="none" xmlns="http://www.w3.org/2000/svg">
<path d="M29.5484 12.4333C29.744 12.7234 29.9666 13.0997 30.0456 13.2678C30.1247 13.436 30.1933 14.0582 30.1871 14.2537L30.1351 14.424C30.0498 14.7267 30.0394 14.7435 30.0394 14.7435C29.821 15.0168 29.4486 15.4499 29.2114 15.7042L25.5336 19.6499C25.2964 19.9043 25.2111 20.3794 25.3464 20.7031L25.9475 22.141C26.0828 22.4647 26.0973 22.9965 25.9767 23.3287L25.8539 23.6629C25.6584 24.2053 25.3193 24.6846 24.8762 25.0503L24.2979 25.5254C24.0275 25.7461 23.5511 25.8029 23.2391 25.6536L21.1859 24.6635C20.8718 24.5143 20.4058 24.199 20.1478 23.9635L18.5044 22.4647C18.2278 22.2124 18.2132 21.7794 18.4712 21.5082L22.1782 18.9857C22.4652 18.7881 22.5692 18.3739 22.4049 18.0649L20.9675 15.3321C20.8052 15.0231 20.7719 14.5354 20.8988 14.2474C21.0215 13.9594 21.3897 13.6231 21.7143 13.4991L26.2221 11.7795C26.5467 11.6555 26.53 11.5273 26.1847 11.4936L23.5386 11.2414C23.1933 11.2077 22.6358 11.2561 22.3009 11.3507L19.996 12.0002C19.6611 12.0948 19.4385 12.4543 19.503 12.7991L20.4079 17.7937C20.4682 18.1385 20.4911 18.519 20.4536 18.6388C20.4141 18.7565 20.1062 18.9142 19.7672 18.9878L18.363 19.2884C18.2278 19.3178 18.0572 19.3346 17.8804 19.3388C17.7036 19.3346 17.533 19.3178 17.3957 19.2884L15.9936 18.9878C15.6545 18.9142 15.3466 18.7565 15.3092 18.6388C15.2697 18.519 15.2905 18.1385 15.3529 17.7937L16.2599 12.7991C16.3202 12.4543 16.0976 12.0948 15.7648 12.0002L13.4599 11.3507C13.1249 11.2561 12.5695 11.2077 12.2221 11.2414L9.57606 11.4936C9.23074 11.5273 9.21409 11.6555 9.53861 11.7795L14.0465 13.4991C14.371 13.6231 14.7392 13.9594 14.864 14.2474C14.9868 14.5354 14.9556 15.0231 14.7933 15.3321L13.3559 18.0649C13.1915 18.3739 13.2934 18.7881 13.5805 18.9857L17.2896 21.5082C17.5475 21.7794 17.533 22.2124 17.2563 22.4647L15.6129 23.9635C15.355 24.199 14.8869 24.5143 14.5749 24.6635L12.5217 25.6536C12.2096 25.8029 11.7333 25.7461 11.4628 25.5254L10.8866 25.0503C10.4414 24.6846 10.1044 24.2053 9.90473 23.6629L9.78408 23.3287C9.66343 22.9965 9.67591 22.4647 9.81112 22.141L10.4123 20.7031C10.5475 20.3794 10.4643 19.9043 10.2272 19.6499L6.55139 15.7042C6.31216 15.4499 5.9398 15.0168 5.72345 14.7435C5.72345 14.7435 5.70889 14.7267 5.62568 14.424L5.57159 14.2537C5.56743 14.0582 5.63608 13.436 5.71513 13.2678C5.79418 13.0997 6.01676 12.7234 6.21023 12.4333L7.25243 10.8756C7.44589 10.5855 7.78289 10.123 7.99923 9.84976L9.4034 8.06925C9.61974 7.79387 9.80696 7.57314 9.82152 7.57525C9.83401 7.57735 9.84857 7.57735 9.85065 7.57525C9.85065 7.57314 10.1315 7.6236 10.4726 7.69086L12.6236 8.10709C12.9648 8.17436 13.3871 8.25634 13.5639 8.28787C13.7407 8.32151 14.1547 8.26265 14.4854 8.15334L16.1829 7.59837C16.5137 7.48906 17.0608 7.3356 17.3978 7.25782C17.3978 7.25782 17.5351 7.22419 17.8804 7.22629C18.2257 7.22419 18.3609 7.25782 18.3609 7.25782C18.7 7.3356 19.2471 7.48906 19.5779 7.59837L21.2753 8.15334C21.604 8.26265 22.0201 8.32151 22.1969 8.28787C22.3737 8.25634 22.796 8.17436 23.1371 8.10709L25.2881 7.69086C25.6293 7.6236 25.9101 7.57314 25.9122 7.57525C25.9143 7.57735 25.9267 7.57735 25.9392 7.57525C25.9517 7.57314 26.141 7.79387 26.3574 8.06925L27.7615 9.84976C27.9779 10.123 28.3128 10.5855 28.5083 10.8756L29.5484 12.4333Z" fill="white"/>
<path d="M20.8341 25.8813L22.6938 26.8609C23.0017 27.0206 23.0204 27.3213 22.7375 27.521L21.1253 28.6729C20.8404 28.8768 20.3952 29.23 20.1331 29.4591L19.6775 29.8564C19.4154 30.0835 18.9869 30.4619 18.7268 30.6931L18.2983 31.0799C18.1818 31.1829 18.032 31.2375 17.8802 31.2502C17.7283 31.2375 17.5806 31.1829 17.4641 31.0799L17.0335 30.6931C16.7735 30.4619 16.345 30.0835 16.0828 29.8564L15.6293 29.4591C15.3672 29.23 14.92 28.8768 14.635 28.6729L13.0228 27.521C12.7399 27.3213 12.7586 27.0206 13.0686 26.8609L14.9262 25.8813C15.2341 25.7194 15.7479 25.4777 16.0683 25.341L17.0793 24.9164C17.3996 24.784 17.6992 24.6726 17.745 24.6726H18.0154C18.0611 24.6726 18.3607 24.784 18.6811 24.9164L19.6921 25.341C20.0124 25.4777 20.5262 25.7194 20.8341 25.8813Z" fill="white"/>
<path fill-rule="evenodd" clip-rule="evenodd" d="M34.5496 12.9493C34.6215 13.1474 34.6315 13.3627 34.5783 13.5666L30.4473 29.4364C29.9975 31.1695 28.958 32.6898 27.5067 33.7342C27.3978 33.8119 27.1939 33.9567 26.9073 34.159C26.4303 34.4957 25.8956 34.8708 25.3155 35.2747C23.6579 36.429 21.9683 37.5833 20.3456 38.6615C20.0445 38.8615 19.748 39.0574 19.4566 39.2488L19.3087 39.3458C18.7518 39.7154 18.2122 39.9219 17.624 39.9187C17.0255 39.9219 16.4909 39.717 15.9334 39.3492L15.7804 39.2488C15.4889 39.0574 15.1925 38.8615 14.8914 38.6615C13.2687 37.5833 11.5791 36.429 9.92146 35.2747C9.34137 34.8708 8.80663 34.4957 8.32964 34.159C8.04307 33.9567 7.83915 33.8119 7.72682 33.7318C6.27901 32.6898 5.23952 31.1695 4.78987 29.437L0.658684 13.5666C0.605494 13.3627 0.615484 13.1474 0.687333 12.9493L1.69284 10.1772L1.02254 8.6661C0.770645 8.09175 0.891042 7.41523 1.3312 6.97046L3.5495 4.70154C4.77717 3.43404 6.61747 2.98856 8.28074 3.55441L11.1453 0.388516C11.3405 0.172766 11.6172 0.0486446 11.9081 0.0462813L17.6102 0L23.3289 0.0462813C23.6197 0.0486437 23.8963 0.17267 24.0915 0.388277L26.9576 3.55394C28.6195 2.98875 30.4591 3.43395 31.6865 4.6984L33.9014 6.96598C34.3459 7.41523 34.4663 8.09175 34.2127 8.67012L33.5441 10.1772L34.5496 12.9493ZM32.4838 13.3545L31.4458 10.4928C31.3542 10.2403 31.3638 9.96201 31.4728 9.71641L32.1622 8.16246L30.1961 6.14963C29.5174 5.45046 28.5033 5.21149 27.5965 5.53412L27.0037 5.74644C26.6073 5.88837 26.1645 5.77739 25.8819 5.4653L22.8557 2.12275L17.6268 2.08024L12.3815 2.12275L9.35736 5.46506C9.0751 5.77702 8.63272 5.88822 8.2365 5.74682L7.64248 5.53484C6.73376 5.21152 5.72016 5.45047 5.04036 6.15231L3.07491 8.1626L3.76419 9.71641C3.87314 9.96201 3.88283 10.2403 3.79121 10.4928L2.75324 13.3545L6.80325 28.9138C7.13124 30.1776 7.88859 31.2852 8.93844 32.0408C9.04458 32.1165 9.24572 32.2593 9.5294 32.4596C10.0028 32.7938 10.5339 33.1663 11.1102 33.5676C12.7563 34.7138 14.4339 35.8599 16.0426 36.9289C16.3406 37.1269 16.634 37.3207 16.9223 37.51L17.0763 37.611C17.3241 37.7745 17.4927 37.8391 17.624 37.8385C17.745 37.8391 17.915 37.7741 18.1635 37.6092L18.3147 37.51C18.603 37.3207 18.8963 37.1269 19.1944 36.9289C20.8031 35.8599 22.4807 34.7138 24.1268 33.5676C24.7031 33.1663 25.2342 32.7938 25.7076 32.4596C25.9913 32.2593 26.1924 32.1165 26.2951 32.0433C27.3484 31.2852 28.1058 30.1776 28.4339 28.9132L32.4838 13.3545Z" fill="white"/>
<path d="M49.8721 13.4709C50.8866 12.936 52.0465 12.6686 53.3488 12.6686C54.8663 12.6686 56.2384 13.0436 57.4651 13.7907C58.6919 14.5378 59.6657 15.6017 60.3808 16.9797C61.0959 18.3576 61.4535 19.9535 61.4535 21.7703C61.4535 23.5872 61.0959 25.1948 60.3808 26.593C59.6657 27.9913 58.6919 29.0756 57.4651 29.8459C56.2355 30.6163 54.8634 31 53.3488 31C52.0233 31 50.8663 30.7384 49.8721 30.2151C48.8779 29.6919 48.0814 29.0145 47.4855 28.1802V30.7122H43V7H47.4855V15.5552C48.061 14.7006 48.8576 14.0058 49.8721 13.4738V13.4709ZM56.218 19C55.7791 18.2209 55.2035 17.6279 54.4884 17.2209C53.7733 16.814 52.9971 16.6134 52.1657 16.6134C51.3343 16.6134 50.5901 16.8227 49.875 17.2384C49.1599 17.6541 48.5814 18.2587 48.1454 19.0494C47.7064 19.8401 47.4884 20.7704 47.4884 21.8372C47.4884 22.9041 47.7064 23.8343 48.1454 24.625C48.5843 25.4157 49.1599 26.0174 49.875 26.436C50.5901 26.8517 51.3547 27.061 52.1657 27.061C52.9767 27.061 53.7733 26.8488 54.4884 26.4215C55.2035 25.9942 55.782 25.3866 56.218 24.5959C56.657 23.8052 56.875 22.8663 56.875 21.7762C56.875 20.686 56.657 19.7849 56.218 19.0058V19Z" fill="white"/>
<path d="M69.5465 13.5029C70.4768 12.968 71.5378 12.7006 72.7355 12.7006V17.4099H71.5494C70.1395 17.4099 69.0756 17.7413 68.3605 18.404C67.6454 19.0668 67.2878 20.2209 67.2878 21.8634V30.7064H62.8023V12.9564H67.2878V15.7122C67.8634 14.7732 68.6163 14.0349 69.5465 13.5V13.5029Z" fill="white"/>
<path d="M74.3837 16.9971C75.0989 15.6076 76.0698 14.5407 77.2994 13.7936C78.5262 13.0465 79.9012 12.6715 81.4157 12.6715C82.7413 12.6715 83.8983 12.939 84.8925 13.4738C85.8866 14.0087 86.6802 14.6802 87.2791 15.4913V12.9593H91.7965V30.7093H87.2791V28.1134C86.7035 28.9477 85.907 29.6366 84.8925 30.1802C83.8779 30.7238 82.7093 30.9971 81.3837 30.9971C79.8896 30.9971 78.5262 30.6134 77.2994 29.843C76.0698 29.0727 75.0989 27.9913 74.3837 26.5901C73.6686 25.1919 73.3111 23.5843 73.3111 21.7674C73.3111 19.9506 73.6686 18.3808 74.3837 16.9942V16.9971ZM86.6396 19.032C86.2122 18.2529 85.6366 17.6541 84.9099 17.2384C84.1832 16.8227 83.4041 16.6134 82.5698 16.6134C81.7355 16.6134 80.968 16.8169 80.2616 17.2209C79.5582 17.6279 78.9855 18.2209 78.5465 19C78.1076 19.7791 77.8896 20.7035 77.8896 21.7703C77.8896 22.8372 78.1076 23.7733 78.5465 24.5727C78.9855 25.375 79.5611 25.9884 80.2762 26.4157C80.9913 26.843 81.7558 27.0552 82.5669 27.0552C83.3779 27.0552 84.1803 26.8459 84.907 26.4302C85.6337 26.0145 86.2093 25.4157 86.6366 24.6366C87.064 23.8576 87.2762 22.9215 87.2762 21.8343C87.2762 20.7471 87.0611 19.811 86.6366 19.032H86.6396Z" fill="white"/>
<path d="M102.308 26.5785L106.794 12.9593H111.567L104.997 30.7093H99.5494L93.0116 12.9593H97.8169L102.302 26.5785H102.308Z" fill="white"/>
<path d="M128.552 23.1802H115.576C115.683 24.4622 116.131 25.4651 116.922 26.1919C117.712 26.9186 118.683 27.282 119.837 27.282C121.503 27.282 122.689 26.5669 123.395 25.1337H128.233C127.721 26.843 126.738 28.2471 125.285 29.3459C123.831 30.4477 122.049 30.9971 119.933 30.9971C118.224 30.9971 116.692 30.6192 115.334 29.8605C113.977 29.1017 112.922 28.0291 112.163 26.6395C111.404 25.25 111.026 23.6483 111.026 21.8343C111.026 20.0203 111.398 18.3837 112.148 16.9971C112.895 15.6076 113.942 14.5407 115.288 13.7936C116.634 13.0465 118.183 12.6715 119.933 12.6715C121.683 12.6715 123.131 13.0349 124.468 13.7616C125.802 14.4884 126.84 15.5203 127.576 16.8546C128.311 18.189 128.68 19.7238 128.68 21.4535C128.68 22.093 128.637 22.6715 128.552 23.1831V23.1802ZM124.035 20.1686C124.015 19.0145 123.596 18.0901 122.785 17.3983C121.974 16.7035 120.98 16.3576 119.805 16.3576C118.695 16.3576 117.759 16.6948 117.003 17.3663C116.244 18.0378 115.779 18.9738 115.61 20.1686H124.038H124.035Z" fill="white"/>
</svg>
