<svg width="24" height="24" viewBox="0 0 24 24" fill="none" xmlns="http://www.w3.org/2000/svg">
<path fill-rule="evenodd" clip-rule="evenodd" d="M21.4843 5.74545L22.0467 4.36672C22.0467 4.36672 21.331 3.60077 20.4619 2.73268C19.5929 1.8646 17.7525 2.37523 17.7525 2.37523L15.6565 0H11.9758H8.29501L6.19903 2.37523C6.19903 2.37523 4.35866 1.8646 3.48959 2.73268C2.62053 3.60077 1.90483 4.36672 1.90483 4.36672L2.46717 5.74545L1.75146 7.788C1.75146 7.788 3.85639 15.7517 4.10305 16.7242C4.58871 18.6391 4.921 19.3795 6.30127 20.3497C7.68155 21.3199 10.1865 23.005 10.5955 23.2603C11.0044 23.5157 11.5157 23.9506 11.9758 23.9506C12.4358 23.9506 12.9471 23.5157 13.356 23.2603C13.765 23.005 16.27 21.3199 17.6502 20.3497C19.0305 19.3795 19.3628 18.6391 19.8485 16.7242C20.0951 15.7517 22.2 7.788 22.2 7.788L21.4843 5.74545Z" fill="url(#paint0_linear_4280_17018)"/>
<path d="M14.5833 4.31566C14.89 4.31566 17.1649 3.88161 17.1649 3.88161C17.1649 3.88161 19.8608 7.13693 19.8608 7.83268C19.8608 8.40792 19.629 8.63308 19.356 8.89824C19.2988 8.95379 19.2398 9.01109 19.1807 9.07373L17.1593 11.2179C17.1392 11.2391 17.1169 11.2615 17.0933 11.2852C16.8916 11.4879 16.5944 11.7863 16.8041 12.2819C16.8181 12.315 16.8325 12.3487 16.8471 12.3828C17.077 12.9198 17.3608 13.5826 16.9996 14.2544C16.6153 14.9688 15.9572 15.4457 15.5354 15.3669C15.1137 15.288 14.1232 14.771 13.7589 14.5348C13.3947 14.2986 12.2403 13.3476 12.2403 12.9837C12.2403 12.6803 13.0705 12.1754 13.4739 11.9301C13.5541 11.8813 13.6175 11.8428 13.654 11.8182C13.6957 11.7901 13.7653 11.7469 13.851 11.6937C14.2192 11.4652 14.884 11.0527 14.9007 10.8697C14.9213 10.6442 14.9135 10.5781 14.6167 10.0209C14.5536 9.90237 14.4798 9.77546 14.4034 9.6443C14.1209 9.15863 13.8044 8.61481 13.8745 8.22526C13.9535 7.78551 14.6434 7.53338 15.2277 7.31981C15.3007 7.29312 15.3721 7.26703 15.4404 7.24126C15.611 7.17693 15.8252 7.09675 16.0491 7.013C16.6325 6.79472 17.2807 6.55221 17.3875 6.50297C17.5355 6.4348 17.4973 6.3699 17.0491 6.32747C16.9898 6.32185 16.9161 6.31403 16.8315 6.30505C16.2767 6.24616 15.2535 6.13754 14.756 6.27605C14.6582 6.30329 14.5485 6.33296 14.4335 6.36407C13.8746 6.51524 13.1897 6.70051 13.1239 6.80732C13.1123 6.826 13.101 6.84207 13.0903 6.85723C13.0274 6.94662 12.9864 7.00489 13.056 7.38469C13.0767 7.49779 13.1194 7.72026 13.1721 7.99533C13.3265 8.80072 13.5673 10.0571 13.5976 10.3393C13.6019 10.3788 13.6066 10.4169 13.6111 10.4536C13.6497 10.7685 13.6754 10.978 13.3093 11.0616C13.2788 11.0686 13.2468 11.0759 13.2135 11.0835C12.8005 11.1782 12.1949 11.317 11.9761 11.317C11.7572 11.317 11.1511 11.1781 10.7381 11.0834C10.705 11.0758 10.6731 11.0685 10.6428 11.0616C10.2767 10.978 10.3024 10.7685 10.341 10.4536C10.3455 10.4169 10.3502 10.3788 10.3545 10.3393C10.3849 10.0567 10.6263 8.79724 10.7807 7.99198C10.8331 7.71846 10.8755 7.49734 10.8961 7.38469C10.9658 7.00493 10.9247 6.94663 10.8618 6.85726C10.8511 6.84208 10.8398 6.82601 10.8283 6.80732C10.7625 6.70052 10.0776 6.51527 9.51873 6.36409C9.40368 6.33297 9.29397 6.3033 9.19609 6.27605C8.69866 6.13755 7.67553 6.24615 7.1207 6.30504C7.03605 6.31402 6.96231 6.32185 6.90299 6.32747C6.45486 6.3699 6.41662 6.4348 6.56456 6.50297C6.67146 6.55219 7.31933 6.7946 7.90261 7.01283C8.12661 7.09664 8.34108 7.17689 8.51173 7.24126C8.58009 7.26705 8.65151 7.29315 8.72457 7.31986C9.30884 7.53341 9.99862 7.78554 10.0777 8.22526C10.1477 8.61475 9.83136 9.15847 9.54882 9.64408C9.47246 9.77531 9.39857 9.90231 9.33545 10.0209C9.03869 10.5781 9.03082 10.6442 9.05142 10.8697C9.06808 11.0526 9.73265 11.4651 10.1009 11.6936C10.1867 11.7468 10.2564 11.7901 10.2981 11.8182C10.3346 11.8428 10.3979 11.8812 10.4781 11.93C10.8814 12.1753 11.7118 12.6802 11.7118 12.9837C11.7118 13.3476 10.5575 14.2986 10.1932 14.5348C9.82898 14.771 8.8385 15.288 8.41675 15.3669C7.99499 15.4457 7.33681 14.9688 6.95258 14.2544C6.59142 13.5827 6.8751 12.9199 7.10491 12.383C7.11956 12.3487 7.13398 12.315 7.14801 12.2819C7.35769 11.7862 7.06052 11.4878 6.85872 11.2852C6.83513 11.2615 6.81284 11.2391 6.79282 11.2179L4.77138 9.07373C4.71233 9.0111 4.65334 8.95381 4.59616 8.89828C4.32313 8.6331 4.09131 8.40795 4.09131 7.83268C4.09131 7.13693 6.78725 3.88161 6.78725 3.88161C6.78725 3.88161 9.06215 4.31566 9.36888 4.31566C9.61364 4.31566 10.0863 4.15308 10.5789 3.98361C10.7037 3.9407 10.8297 3.89735 10.9536 3.85608C11.5671 3.65183 11.9761 3.65034 11.9761 3.65034C11.9761 3.65034 12.385 3.65183 12.9985 3.85608C13.1224 3.89735 13.2485 3.9407 13.3732 3.98361C13.8659 4.15308 14.3385 4.31566 14.5833 4.31566Z" fill="white"/>
<path d="M14.1928 15.8301C14.6737 16.0776 15.0149 16.2532 15.1439 16.3338C15.3107 16.4382 15.2089 16.635 15.057 16.7423C14.9049 16.8496 12.8621 18.4298 12.6638 18.6044C12.6384 18.6268 12.6115 18.651 12.5835 18.6762C12.3925 18.8482 12.1488 19.0676 11.9761 19.0676C11.8032 19.0676 11.5594 18.848 11.3684 18.676C11.3404 18.6508 11.3136 18.6267 11.2883 18.6044C11.09 18.4298 9.04722 16.8496 8.89518 16.7423C8.74315 16.635 8.64142 16.4382 8.80828 16.3338C8.93736 16.2532 9.27886 16.0774 9.76025 15.8296C9.90134 15.757 10.0544 15.6782 10.2177 15.5938C10.9381 15.2214 11.8359 14.9048 11.9761 14.9048C12.1162 14.9048 13.014 15.2214 13.7344 15.5938C13.8981 15.6784 14.0514 15.7573 14.1928 15.8301Z" fill="white"/>
<defs>
<linearGradient id="paint0_linear_4280_17018" x1="1.75146" y1="24.1195" x2="22.2" y2="24.1195" gradientUnits="userSpaceOnUse">
<stop stop-color="#FF5601"/>
<stop offset="0.5" stop-color="#FF4000"/>
<stop offset="1" stop-color="#FF1F01"/>
</linearGradient>
</defs>
</svg>
