<svg width="160" height="186" viewBox="0 0 160 186" fill="none" xmlns="http://www.w3.org/2000/svg">
<path fill-rule="evenodd" clip-rule="evenodd" d="M154.118 44.5273L158.482 33.8422C158.482 33.8422 152.927 27.906 146.182 21.1783C139.436 14.4507 125.151 18.4081 125.151 18.4081L108.882 6.10352e-05H80.3128H51.7432L35.4744 18.4081C35.4744 18.4081 21.1896 14.4507 14.444 21.1783C7.69845 27.906 2.14325 33.8422 2.14325 33.8422L6.50805 44.5273L0.95285 60.3571C0.95285 60.3571 17.2911 122.075 19.2056 129.612C22.9752 144.453 25.5544 150.191 36.268 157.71C46.9816 165.229 66.4248 178.289 69.5992 180.268C72.7736 182.246 76.7416 185.617 80.3128 185.617C83.884 185.617 87.852 182.246 91.0264 180.268C94.2008 178.289 113.644 165.229 124.358 157.71C135.071 150.191 137.65 144.453 141.42 129.612C143.334 122.075 159.673 60.3571 159.673 60.3571L154.118 44.5273Z" fill="url(#paint0_linear_2155_36)"/>
<defs>
<linearGradient id="paint0_linear_2155_36" x1="0.95285" y1="185.799" x2="157.745" y2="185.799" gradientUnits="userSpaceOnUse">
<stop stop-color="#901EE1"/>
<stop offset="0.510417" stop-color="#65149E"/>
<stop offset="1" stop-color="#480F71"/>
</linearGradient>
</defs>
</svg>
