<svg width="130" height="23" viewBox="0 0 130 23" fill="none" xmlns="http://www.w3.org/2000/svg">
<path d="M0.59668 22V0.862305H5.15234L13.6045 13.0645H13.707V0.862305H19.0684V22H14.5566L6.06055 9.66602H5.95801V22H0.59668ZM22.8764 22V0.862305H28.2523V22H22.8764ZM41.9188 22.3809C35.4002 22.3809 31.4744 18.3525 31.4744 11.3945V11.3799C31.4744 4.52441 35.4148 0.481445 41.7869 0.481445C46.9725 0.481445 50.7078 3.52832 51.2645 7.62988L51.2938 7.80566H45.9764L45.9324 7.65918C45.3758 5.94531 43.867 4.93457 41.8016 4.93457C38.7547 4.93457 36.9529 7.21973 36.9529 11.3213V11.3359C36.9529 15.5254 38.9451 17.9277 42.0359 17.9277C44.4676 17.9277 46.1375 16.6094 46.3133 14.4854L46.3279 14.2217H42.0945V10.4131H51.5135V13.0645C51.5135 18.8506 47.9393 22.3809 41.9188 22.3809ZM54.7795 22V0.862305H60.1555V9.16797H68.5783V0.862305H73.9396V22H68.5783V13.4893H60.1555V22H54.7795ZM82.6695 22V5.18359H76.8395V0.862305H93.8609V5.18359H88.0309V22H82.6695ZM96.7314 22V0.862305H102.107V17.6787H110.853V22H96.7314ZM116.418 22V14.7344L109.138 0.862305H114.851L119.055 9.65137H119.158L123.362 0.862305H129.075L121.794 14.7344V22H116.418Z" fill="black"/>
</svg>
