<svg width="56" height="56" viewBox="0 0 56 56" fill="none" xmlns="http://www.w3.org/2000/svg">
    <path fill-rule="evenodd" clip-rule="evenodd" d="M0 28C0 43.464 12.536 56 28 56C43.464 56 56 43.464 56 28C56 12.536 43.464 0 28 0C12.536 0 0 12.536 0 28ZM51.3333 28C51.3333 40.8866 40.8866 51.3333 28 51.3333C15.1134 51.3333 4.66667 40.8866 4.66667 28C4.66667 15.1134 15.1134 4.66667 28 4.66667C40.8866 4.66667 51.3333 15.1134 51.3333 28ZM31.7314 28C31.3531 27.346 30.8078 26.8007 30.1538 26.4224V17.2308C30.1538 16.0412 29.1895 15.0769 28 15.0769C26.8105 15.0769 25.8462 16.0412 25.8462 17.2308V26.4224C24.5586 27.1673 23.6923 28.5594 23.6923 30.1538C23.6923 32.5329 25.6209 34.4615 28 34.4615C29.5945 34.4615 30.9866 33.5953 31.7314 32.3077H43.0769C44.2665 32.3077 45.2308 31.3434 45.2308 30.1538C45.2308 28.9643 44.2665 28 43.0769 28H31.7314Z" fill="url(#paint0_linear)"/>
    <defs>
        <linearGradient id="paint0_linear" x1="0" y1="0" x2="62.809" y2="45.3516" gradientUnits="userSpaceOnUse">
            <stop stop-color="#392DD1"/>
            <stop offset="1" stop-color="#A91B78"/>
        </linearGradient>
    </defs>
</svg>
