<svg xmlns="http://www.w3.org/2000/svg" width="566" height="142" fill="none"><g stroke="#fff" stroke-miterlimit="10" clip-path="url(#a)"><path d="M223.188-414.071C94.535-420.197 83.186-136.789 156.166-35.006c90.435 126.215 324.687-38.938 412.903-2.4 38.501 15.918-27.464-146.426-39.514-294.569-12.108-148.87-1.399-253.942-53.051-192.217-34.018 40.641-91.002 117.862-253.316 110.121Z"/><path d="M212.553-416.245c-136.726-9.284-146.541 293.112-68.288 400.41 97.435 133.592 342.053-48.279 437.299-5.82C622.507-3.38 562.366-177.35 547.308-335.59c-15.087-158.444-13.181-274.298-69.435-203.857-37.339 46.781-92.283 134.959-265.32 123.202Z"/><path d="M204.642-421.034C59.83-433.475 51.519-112.046 135.089.695 239.524 141.678 494.627-56.927 596.8-8.458c43.43 20.604-10.918-165.08-29-333.302-18.08-168.223-24.976-294.642-85.833-215.542-40.674 52.907-93.563 152.056-277.325 136.268Z"/><path d="M194.074-423.258C41.173-438.843 34.366-98.513 123.238 19.815 234.689 168.234 500.337-47.118 609.346 7.287c45.947 22.947-2.622-174.421-23.727-352.67-21.044-177.622-36.742-314.953-102.231-227.153-43.996 59.004-94.829 169.096-289.314 149.278Z"/><path d="M183.41-425.423C22.422-444.15 17.358-85.02 111.354 38.997c118.748 155.52 394.688-76.392 510.502-15.919 48.465 25.304 5.675-183.748-18.469-372.022-24.008-187.211-48.508-335.281-118.614-238.809-47.378 65.145-96.185 186.208-301.363 162.33Z"/><path d="M172.884-430.127C3.809-451.997.234-73.907 99.518 55.595c125.719 162.97 412.278-85.85 534.899-19.293 51.012 27.646 13.97-193.091-13.211-391.419-26.959-196.816-60.275-355.58-134.999-250.464-50.669 71.342-97.436 203.363-313.323 175.454Z"/><path d="M162.392-432.336C-14.846-457.333-16.871-60.269 87.759 74.749c132.69 170.244 429.897-95.178 559.296-22.671 53.617 30.019 22.623-202.461-7.954-410.756-29.564-206.448-72.041-375.879-151.381-262.091-54.006 77.425-98.747 220.401-325.328 188.433Z"/><path d="M151.887-437.107C-33.439-464.913-33.99-49.195 75.987 91.323c139.66 177.724 447.547-104.578 583.707-26.046 56.105 32.361 30.83-211.803-2.696-430.123-32.603-216.038-83.823-396.163-167.795-273.747-57.326 83.581-100.101 237.922-337.316 201.486Z"/><path d="M141.377-439.242C-52.036-470.263-51.083-35.512 64.211 110.52 210.827 295.636 529.422-3.472 672.314 81.098c58.667 34.718 39.068-221.173 2.562-449.491-35.626-225.626-95.574-416.461-184.177-285.386-60.709 89.793-101.398 254.93-349.322 214.537Z"/><path d="M130.893-443.98c-201.5-34.224-199.086 419.574-78.431 571.092C206.048 319.592 535.368 3.736 684.961 94.315c61.244 37.091 47.378-230.457 7.82-468.8C654.057-609.7 585.203-811.39 492.219-671.527 428.041-575.796 389.526-399.63 130.893-443.98Z"/><path d="M117.75-446.108C-91.838-483.577-87.995-10.673 38.052 146.33 198.61 346.245 538.651 13.554 694.948 110.099c63.835 39.462 55.539-239.799 13.091-488.211-41.688-244.76-119.225-457.043-216.959-308.639-67.425 102.001-103.959 289.024-373.33 240.643Z"/><path d="M492.582-704.581c-70.656 108.2-105.285 305.962-385.32 253.695C-110.427-491.527-105.051.351 26.284 162.885 193.825 370.205 544.592 20.708 707.59 123.32c131.81 82.999-8.386-1144.34-215.009-827.901Z"/></g><defs><clipPath id="a"><path fill="#fff" d="M-67-758h827v989H-67z"/></clipPath></defs></svg>
