<svg width="240" height="160" viewBox="0 0 240 160" fill="none" xmlns="http://www.w3.org/2000/svg">
<path d="M206.194 107.547H113.77C113.452 107.547 113.147 107.421 112.921 107.196C112.696 106.971 112.57 106.665 112.57 106.347V91.4241C112.57 91.2665 112.601 91.1105 112.661 90.9649C112.722 90.8193 112.81 90.687 112.921 90.5756C113.033 90.4642 113.165 90.3758 113.311 90.3155C113.456 90.2552 113.612 90.2241 113.77 90.2241H206.189C206.347 90.2241 206.503 90.2552 206.648 90.3155C206.794 90.3758 206.926 90.4642 207.038 90.5756C207.149 90.687 207.237 90.8193 207.298 90.9649C207.358 91.1105 207.389 91.2665 207.389 91.4241V106.347C207.394 107.01 206.856 107.547 206.194 107.547ZM114.97 105.147H204.989V92.6241H114.97V105.147Z" fill="#6AB6F4"/>
<path fill-rule="evenodd" clip-rule="evenodd" d="M74.218 130.774C74.2173 131.092 74.3431 131.398 74.5677 131.623C74.7923 131.849 75.0972 131.976 75.4155 131.977C75.7338 131.977 76.0393 131.852 76.2648 131.627C76.4903 131.402 76.6173 131.097 76.618 130.779V28.0262C76.618 27.7079 76.4916 27.4027 76.2665 27.1776C76.0415 26.9526 75.7363 26.8262 75.418 26.8262C75.0997 26.8262 74.7945 26.9526 74.5695 27.1776C74.3444 27.4027 74.218 27.7079 74.218 28.0262V130.774ZM89.386 131.974C89.0677 131.974 88.7625 131.848 88.5375 131.623C88.3124 131.398 88.186 131.092 88.186 130.774V28.0262C88.186 27.7079 88.3124 27.4027 88.5375 27.1776C88.7625 26.9526 89.0677 26.8262 89.386 26.8262C89.7043 26.8262 90.0095 26.9526 90.2345 27.1776C90.4596 27.4027 90.586 27.7079 90.586 28.0262V130.779C90.586 131.442 90.048 131.974 89.386 131.974ZM108.206 36.7332H95.021C94.8634 36.7332 94.7074 36.7642 94.5618 36.8245C94.4162 36.8848 94.2839 36.9732 94.1725 37.0846C94.061 37.1961 93.9727 37.3284 93.9123 37.474C93.852 37.6195 93.821 37.7756 93.821 37.9332V130.779C93.821 131.097 93.9474 131.403 94.1725 131.628C94.3975 131.853 94.7027 131.979 95.021 131.979H108.206C108.364 131.979 108.52 131.948 108.665 131.888C108.811 131.828 108.943 131.739 109.055 131.628C109.166 131.516 109.254 131.384 109.315 131.238C109.375 131.093 109.406 130.937 109.406 130.779V37.9332C109.406 37.7756 109.375 37.6195 109.315 37.474C109.254 37.3284 109.166 37.1961 109.055 37.0846C108.943 36.9732 108.811 36.8848 108.665 36.8245C108.52 36.7642 108.364 36.7332 108.206 36.7332Z" fill="#5F5CF1"/>
<path fill-rule="evenodd" clip-rule="evenodd" d="M71.554 40.5782L71.242 40.4912L60.082 37.3912C60.0732 37.3887 60.0641 37.387 60.055 37.3862C59.7511 37.3058 59.4277 37.3491 59.1556 37.5065C58.8835 37.6639 58.6848 37.9227 58.603 38.2262L33.854 127.266C33.831 127.339 33.822 127.418 33.812 127.492V127.501C33.8084 127.543 33.8098 127.585 33.816 127.626C33.816 127.664 33.816 127.698 33.821 127.736C33.8277 127.785 33.8387 127.833 33.854 127.88C33.8582 127.909 33.8648 127.938 33.874 127.966C33.898 128.034 33.926 128.096 33.96 128.158L33.965 128.17L33.967 128.177C33.967 128.179 33.969 128.18 33.97 128.182C33.9708 128.184 33.9718 128.186 33.973 128.188C33.9749 128.19 33.9769 128.192 33.979 128.194L33.989 128.206C34.0217 128.265 34.0602 128.32 34.104 128.37C34.116 128.384 34.129 128.395 34.142 128.406C34.1502 128.413 34.1582 128.42 34.166 128.427L34.176 128.437L34.191 128.453C34.217 128.479 34.243 128.506 34.272 128.528C34.302 128.552 34.3342 128.572 34.368 128.59C34.4659 128.661 34.5766 128.711 34.694 128.739L46.166 131.926C46.272 131.955 46.382 131.97 46.488 131.97C46.579 131.97 46.67 131.955 46.762 131.936L46.776 131.932C46.8782 131.908 46.9767 131.871 47.069 131.821C47.074 131.821 47.079 131.816 47.079 131.816L47.084 131.812L47.09 131.808C47.1664 131.766 47.2367 131.714 47.299 131.653C47.338 131.619 47.371 131.581 47.405 131.542C47.419 131.523 47.434 131.509 47.448 131.49C47.481 131.446 47.5097 131.399 47.534 131.35C47.5826 131.269 47.6197 131.182 47.644 131.091L72.394 42.0462C72.3986 42.0288 72.402 42.0111 72.404 41.9932C72.405 41.9832 72.406 41.9712 72.409 41.9592C72.4658 41.6636 72.4094 41.3574 72.251 41.1014C72.0927 40.8455 71.8439 40.6593 71.554 40.5782ZM192.85 73.1942H116.894C116.576 73.1942 116.27 73.0678 116.045 72.8427C115.82 72.6177 115.694 72.3125 115.694 71.9942C115.694 71.6759 115.82 71.3707 116.045 71.1457C116.27 70.9206 116.576 70.7942 116.894 70.7942H192.85C193.168 70.7942 193.473 70.9206 193.699 71.1457C193.924 71.3707 194.05 71.6759 194.05 71.9942C194.05 72.3125 193.924 72.6177 193.699 72.8427C193.473 73.0678 193.168 73.1942 192.85 73.1942ZM116.894 87.2342H192.85C193.168 87.2342 193.473 87.1078 193.699 86.8827C193.924 86.6577 194.05 86.3525 194.05 86.0342C194.05 85.7159 193.924 85.4107 193.699 85.1857C193.473 84.9606 193.168 84.8342 192.85 84.8342H116.894C116.576 84.8342 116.27 84.9606 116.045 85.1857C115.82 85.4107 115.694 85.7159 115.694 86.0342C115.694 86.3525 115.82 86.6577 116.045 86.8827C116.27 87.1078 116.576 87.2342 116.894 87.2342Z" fill="#FE5907"/>
<path fill-rule="evenodd" clip-rule="evenodd" d="M80.073 131.974C79.7547 131.974 79.4495 131.848 79.2245 131.623C78.9994 131.398 78.873 131.092 78.873 130.774V28.0262C78.873 27.7079 78.9994 27.4027 79.2245 27.1776C79.4495 26.9526 79.7547 26.8262 80.073 26.8262C80.3913 26.8262 80.6965 26.9526 80.9215 27.1776C81.1466 27.4027 81.273 27.7079 81.273 28.0262V130.779C81.273 131.442 80.736 131.974 80.073 131.974ZM84.73 131.974C84.4117 131.974 84.1065 131.848 83.8815 131.623C83.6564 131.398 83.53 131.092 83.53 130.774V28.0262C83.53 27.7079 83.6564 27.4027 83.8815 27.1776C84.1065 26.9526 84.4117 26.8262 84.73 26.8262C85.0483 26.8262 85.3535 26.9526 85.5785 27.1776C85.8036 27.4027 85.93 27.7079 85.93 28.0262V130.779C85.93 131.442 85.392 131.974 84.73 131.974ZM116.894 77.8742H192.85C193.168 77.8742 193.473 77.7477 193.699 77.5227C193.924 77.2977 194.05 76.9924 194.05 76.6742C194.05 76.3559 193.924 76.0507 193.699 75.8256C193.473 75.6006 193.168 75.4742 192.85 75.4742H116.894C116.576 75.4742 116.271 75.6006 116.045 75.8256C115.82 76.0507 115.694 76.3559 115.694 76.6742C115.694 76.9924 115.82 77.2977 116.045 77.5227C116.271 77.7477 116.576 77.8742 116.894 77.8742ZM192.85 82.5542H116.894C116.576 82.5542 116.271 82.4277 116.045 82.2027C115.82 81.9777 115.694 81.6724 115.694 81.3542C115.694 81.0359 115.82 80.7307 116.045 80.5056C116.271 80.2806 116.576 80.1542 116.894 80.1542H192.85C193.168 80.1542 193.473 80.2806 193.699 80.5056C193.924 80.7307 194.05 81.0359 194.05 81.3542C194.05 81.6724 193.924 81.9777 193.699 82.2027C193.473 82.4277 193.168 82.5542 192.85 82.5542ZM202.046 110.019H129.341C129.023 110.019 128.718 110.146 128.492 110.371C128.267 110.596 128.141 110.901 128.141 111.219V130.779C128.141 131.097 128.267 131.403 128.492 131.628C128.718 131.853 129.023 131.979 129.341 131.979H202.051C202.369 131.979 202.674 131.853 202.9 131.628C203.125 131.403 203.251 131.097 203.251 130.779V111.219C203.25 110.9 203.122 110.595 202.896 110.37C202.67 110.145 202.365 110.019 202.046 110.019ZM186.202 123.954C185.418 123.954 184.666 123.642 184.111 123.088C183.557 122.533 183.245 121.781 183.245 120.997C183.245 120.213 183.557 119.461 184.111 118.907C184.666 118.352 185.418 118.04 186.202 118.04H194.083C194.867 118.04 195.619 118.352 196.174 118.907C196.728 119.461 197.04 120.213 197.04 120.997C197.04 121.781 196.728 122.533 196.174 123.088C195.619 123.642 194.867 123.954 194.083 123.954H186.202Z" fill="#CED8DD"/>
<path d="M101.616 125.826C100.514 125.824 99.4573 125.386 98.678 124.607C97.8987 123.827 97.4603 122.771 97.459 121.669V113.792C97.4603 112.69 97.8987 111.633 98.678 110.854C99.4573 110.074 100.514 109.636 101.616 109.635C102.718 109.636 103.775 110.074 104.554 110.854C105.333 111.633 105.772 112.69 105.773 113.792V121.674C105.771 122.775 105.332 123.831 104.553 124.609C103.774 125.387 102.717 125.825 101.616 125.826ZM101.616 112.035C100.646 112.035 99.859 112.822 99.859 113.792V121.674C99.859 122.14 100.044 122.587 100.374 122.916C100.703 123.246 101.15 123.431 101.616 123.431C102.082 123.431 102.529 123.246 102.858 122.916C103.188 122.587 103.373 122.14 103.373 121.674V113.792C103.372 113.326 103.187 112.88 102.858 112.55C102.528 112.221 102.082 112.036 101.616 112.035Z" fill="#423EEE"/>
</svg>
