<svg width="256" height="256" viewBox="0 0 256 256" fill="none" xmlns="http://www.w3.org/2000/svg">
<path fill-rule="evenodd" clip-rule="evenodd" d="M139.333 101.707C127.744 76.5604 100.101 60.3668 69.531 66.4222L69.5099 66.4265C45.4702 71.2554 25.9921 90.3964 20.9404 114.48C12.3773 154.919 43.1618 190.849 82.3269 190.849C107.63 190.849 129.416 175.87 139.337 154.315H165.625V164.545C165.625 179.031 177.444 190.849 191.929 190.849C206.415 190.849 218.233 179.031 218.233 164.545V153.056C228.81 149.645 236.5 139.696 236.5 128.011C236.5 113.525 224.682 101.707 210.196 101.707H139.333ZM82.3269 117.781C76.7186 117.781 72.0967 122.403 72.0967 128.011C72.0967 133.619 76.7186 138.241 82.3269 138.241C87.9351 138.241 92.5571 133.619 92.5571 128.011C92.5571 122.403 87.9351 117.781 82.3269 117.781Z" fill="white"/>
<path opacity="0.3" fill-rule="evenodd" clip-rule="evenodd" d="M139.333 101.707C127.744 76.5604 100.101 60.3668 69.531 66.4222L69.5099 66.4265C45.4702 71.2554 25.9921 90.3964 20.9404 114.48C12.3773 154.919 43.1618 190.849 82.3269 190.849C107.63 190.849 129.416 175.87 139.337 154.315H165.625V164.545C165.625 179.031 177.444 190.849 191.929 190.849C206.415 190.849 218.233 179.031 218.233 164.545V153.056C228.81 149.645 236.5 139.696 236.5 128.011C236.5 113.525 224.682 101.707 210.196 101.707H139.333ZM82.3269 117.781C76.7186 117.781 72.0967 122.403 72.0967 128.011C72.0967 133.619 76.7186 138.241 82.3269 138.241C87.9351 138.241 92.5571 133.619 92.5571 128.011C92.5571 122.403 87.9351 117.781 82.3269 117.781Z" fill="url(#paint0_linear_0_499)"/>
<path fill-rule="evenodd" clip-rule="evenodd" d="M139.333 101.707C127.744 76.5604 100.101 60.3668 69.531 66.4222L69.5099 66.4265C45.4702 71.2554 25.9921 90.3964 20.9404 114.48C12.3773 154.919 43.1618 190.849 82.3269 190.849C107.63 190.849 129.416 175.87 139.337 154.315H165.625V164.545C165.625 179.031 177.444 190.849 191.929 190.849C206.415 190.849 218.233 179.031 218.233 164.545V153.056C228.81 149.645 236.5 139.696 236.5 128.011C236.5 113.525 224.682 101.707 210.196 101.707H139.333ZM72.6648 82.1875C97.1447 77.3438 118.943 91.4373 126.353 112.42L128.246 117.781H210.196C215.804 117.781 220.426 122.403 220.426 128.011C220.426 133.619 215.804 138.241 210.196 138.241H202.159V164.545C202.159 170.153 197.537 174.775 191.929 174.775C186.321 174.775 181.699 170.153 181.699 164.545V138.241H128.24L126.35 143.61C119.957 161.776 102.649 174.775 82.3269 174.775C53.176 174.775 30.2571 148.054 36.6668 117.803L36.6704 117.786C40.3889 100.046 54.8807 85.7644 72.6648 82.1875ZM82.3269 117.781C76.7186 117.781 72.0967 122.403 72.0967 128.011C72.0967 133.619 76.7186 138.241 82.3269 138.241C87.9351 138.241 92.5571 133.619 92.5571 128.011C92.5571 122.403 87.9351 117.781 82.3269 117.781ZM56.023 128.011C56.023 113.525 67.8414 101.707 82.3269 101.707C96.8124 101.707 108.631 113.525 108.631 128.011C108.631 142.496 96.8124 154.315 82.3269 154.315C67.8414 154.315 56.023 142.496 56.023 128.011Z" fill="url(#paint1_linear_0_499)"/>
<defs>
<linearGradient id="paint0_linear_0_499" x1="225.227" y1="182.162" x2="120.7" y2="5.33024" gradientUnits="userSpaceOnUse">
<stop offset="0.0260417" stop-color="#FA7250"/>
<stop offset="0.401042" stop-color="#FF1893"/>
<stop offset="0.994792" stop-color="#A78AFF"/>
</linearGradient>
<linearGradient id="paint1_linear_0_499" x1="225.227" y1="182.162" x2="120.7" y2="5.33024" gradientUnits="userSpaceOnUse">
<stop offset="0.0260417" stop-color="#FA7250"/>
<stop offset="0.401042" stop-color="#FF1893"/>
<stop offset="0.994792" stop-color="#A78AFF"/>
</linearGradient>
</defs>
</svg>
