<svg width="180" height="186" viewBox="0 0 180 186" fill="none" xmlns="http://www.w3.org/2000/svg">
<g filter="url(#filter0_dd_1941_8974)">
<circle cx="90" cy="90" r="77" fill="white"/>
</g>
<path fill-rule="evenodd" clip-rule="evenodd" d="M95.4837 77.2776C89.8763 65.1099 76.5006 57.2743 61.7086 60.2043L61.6983 60.2064C50.0662 62.5429 40.6414 71.8047 38.197 83.4581C34.0535 103.025 48.9493 120.411 67.9001 120.411C80.1435 120.411 90.6853 113.163 95.4858 102.733H108.206V107.683C108.206 114.692 113.924 120.411 120.933 120.411C127.943 120.411 133.661 114.692 133.661 107.683V102.124C138.779 100.473 142.5 95.6593 142.5 90.0053C142.5 82.9962 136.781 77.2776 129.772 77.2776H95.4837ZM63.2249 67.8327C75.07 65.4889 85.6175 72.3084 89.2031 82.4614L90.1191 85.0552H129.772C132.486 85.0552 134.722 87.2917 134.722 90.0053C134.722 92.719 132.486 94.9554 129.772 94.9554H125.884V107.683C125.884 110.397 123.647 112.633 120.933 112.633C118.22 112.633 115.983 110.397 115.983 107.683V94.9554H90.116L89.2017 97.5532C86.1083 106.343 77.7335 112.633 67.9001 112.633C53.7948 112.633 42.705 99.7035 45.8065 85.0661L45.8083 85.0578C47.6075 76.4738 54.6197 69.5634 63.2249 67.8327ZM67.9001 85.0552C65.1864 85.0552 62.95 87.2917 62.95 90.0053C62.95 92.719 65.1864 94.9554 67.9001 94.9554C70.6138 94.9554 72.8502 92.719 72.8502 90.0053C72.8502 87.2917 70.6138 85.0552 67.9001 85.0552ZM55.1724 90.0053C55.1724 82.9962 60.891 77.2776 67.9001 77.2776C74.9092 77.2776 80.6278 82.9962 80.6278 90.0053C80.6278 97.0144 74.9092 102.733 67.9001 102.733C60.891 102.733 55.1724 97.0144 55.1724 90.0053Z" fill="url(#paint0_linear_1941_8974)"/>
<defs>
<filter id="filter0_dd_1941_8974" x="0.38" y="6.69" width="179.24" height="179.24" filterUnits="userSpaceOnUse" color-interpolation-filters="sRGB">
<feFlood flood-opacity="0" result="BackgroundImageFix"/>
<feColorMatrix in="SourceAlpha" type="matrix" values="0 0 0 0 0 0 0 0 0 0 0 0 0 0 0 0 0 0 127 0" result="hardAlpha"/>
<feOffset dy="6.31"/>
<feGaussianBlur stdDeviation="6.31"/>
<feColorMatrix type="matrix" values="0 0 0 0 0.321632 0 0 0 0 0.413189 0 0 0 0 0.491667 0 0 0 0.08 0"/>
<feBlend mode="normal" in2="BackgroundImageFix" result="effect1_dropShadow_1941_8974"/>
<feColorMatrix in="SourceAlpha" type="matrix" values="0 0 0 0 0 0 0 0 0 0 0 0 0 0 0 0 0 0 127 0" result="hardAlpha"/>
<feOffset dy="4.733"/>
<feGaussianBlur stdDeviation="3.155"/>
<feColorMatrix type="matrix" values="0 0 0 0 0.321632 0 0 0 0 0.413189 0 0 0 0 0.491667 0 0 0 0.04 0"/>
<feBlend mode="normal" in2="effect1_dropShadow_1941_8974" result="effect2_dropShadow_1941_8974"/>
<feBlend mode="normal" in="SourceGraphic" in2="effect2_dropShadow_1941_8974" result="shape"/>
</filter>
<linearGradient id="paint0_linear_1941_8974" x1="137.045" y1="116.208" x2="86.4678" y2="30.6437" gradientUnits="userSpaceOnUse">
<stop offset="0.0260417" stop-color="#FA7250"/>
<stop offset="0.401042" stop-color="#FF1893"/>
<stop offset="0.994792" stop-color="#A78AFF"/>
</linearGradient>
</defs>
</svg>
