<svg width="256" height="256" viewBox="0 0 256 256" fill="none" xmlns="http://www.w3.org/2000/svg">
<path fill-rule="evenodd" clip-rule="evenodd" d="M229.168 61.2848L235.166 46.5784C235.166 46.5784 227.532 38.4082 218.262 29.1487C208.992 19.8891 189.361 25.3359 189.361 25.3359L167.004 6.38962e-05H127.743H88.4815L66.1244 25.3359C66.1244 25.3359 46.4937 19.8891 37.2237 29.1487C27.9537 38.4082 20.3196 46.5784 20.3196 46.5784L26.3178 61.2848L18.6837 83.0721C18.6837 83.0721 41.1362 168.018 43.7673 178.391C48.9476 198.817 52.492 206.715 67.215 217.064C81.938 227.412 108.657 245.387 113.02 248.11C117.382 250.834 122.835 255.473 127.743 255.473C132.65 255.473 138.103 250.834 142.466 248.11C146.828 245.387 173.548 227.412 188.271 217.064C202.994 206.715 206.538 198.817 211.718 178.391C214.349 168.018 236.802 83.0721 236.802 83.0721L229.168 61.2848Z" fill="url(#paint0_linear_1648_3)"/>
<path d="M155.553 46.0337C158.825 46.0337 183.09 41.4039 183.09 41.4039C183.09 41.4039 211.847 76.1273 211.847 83.5486C211.847 89.6845 209.374 92.0862 206.462 94.9146C205.852 95.5071 205.222 96.1183 204.592 96.7865L183.03 119.657C182.817 119.884 182.579 120.123 182.327 120.376C180.175 122.537 177.005 125.72 179.242 131.007C179.391 131.36 179.545 131.719 179.701 132.084C182.153 137.811 185.179 144.881 181.327 152.047C177.228 159.668 170.208 164.754 165.709 163.913C161.21 163.072 150.645 157.557 146.76 155.038C142.875 152.519 130.561 142.375 130.561 138.493C130.561 135.256 139.417 129.871 143.719 127.254C144.575 126.734 145.251 126.323 145.641 126.06C146.085 125.761 146.828 125.3 147.742 124.733C151.67 122.296 158.761 117.895 158.939 115.944C159.158 113.538 159.075 112.833 155.909 106.889C155.236 105.625 154.449 104.272 153.635 102.873C150.62 97.6921 147.245 91.8913 147.992 87.7361C148.836 83.0454 156.194 80.3561 162.427 78.078C163.205 77.7933 163.967 77.515 164.696 77.2401C166.515 76.5539 168.801 75.6987 171.188 74.8054C177.411 72.4771 184.325 69.8902 185.465 69.3651C187.044 68.6379 186.636 67.9456 181.855 67.493C181.223 67.4331 180.436 67.3496 179.534 67.2538C173.616 66.6257 162.702 65.4671 157.395 66.9445C156.352 67.2351 155.182 67.5515 153.955 67.8834C147.993 69.4959 140.688 71.4721 139.986 72.6114C139.863 72.8107 139.742 72.982 139.628 73.1438C138.957 74.0973 138.519 74.7189 139.262 78.7701C139.483 79.9765 139.938 82.3494 140.501 85.2835C142.147 93.8743 144.716 107.275 145.04 110.286C145.085 110.707 145.135 111.114 145.183 111.505C145.595 114.864 145.869 117.099 141.964 117.99C141.639 118.065 141.297 118.143 140.942 118.224C136.536 119.234 130.077 120.715 127.743 120.715C125.408 120.715 118.943 119.233 114.537 118.223C114.184 118.142 113.845 118.064 113.521 117.99C109.616 117.099 109.89 114.864 110.302 111.505C110.35 111.114 110.4 110.707 110.445 110.286C110.77 107.271 113.345 93.8372 114.992 85.2478C115.551 82.3302 116.003 79.9716 116.223 78.7701C116.966 74.7192 116.528 74.0974 115.857 73.1441C115.743 72.9822 115.623 72.8108 115.5 72.6114C114.798 71.4722 107.493 69.4962 101.531 67.8837C100.304 67.5517 99.1336 67.2352 98.0896 66.9445C92.7836 65.4672 81.8703 66.6256 75.9521 67.2537C75.0492 67.3496 74.2625 67.4331 73.6298 67.493C68.8497 67.9456 68.4419 68.6379 70.0199 69.3651C71.1601 69.89 78.0708 72.4757 84.2924 74.8035C86.6817 75.6975 88.9695 76.5534 90.7897 77.2401C91.5189 77.5152 92.2807 77.7936 93.06 78.0785C99.2922 80.3564 106.65 83.0457 107.493 87.7361C108.24 91.8907 104.866 97.6903 101.852 102.87C101.038 104.27 100.249 105.625 99.576 106.889C96.4106 112.833 96.3266 113.538 96.5464 115.944C96.7242 117.895 103.813 122.294 107.74 124.732C108.656 125.3 109.399 125.761 109.844 126.06C110.234 126.323 110.909 126.733 111.764 127.253C116.066 129.869 124.924 135.256 124.924 138.493C124.924 142.375 112.611 152.519 108.726 155.038C104.84 157.557 94.2752 163.072 89.7765 163.913C85.2779 164.754 78.2572 159.668 74.1587 152.047C70.3064 144.882 73.3323 137.812 75.7836 132.085C75.9399 131.72 76.0938 131.36 76.2434 131.007C78.48 125.72 75.3101 122.537 73.1576 120.375C72.906 120.122 72.6682 119.884 72.4547 119.657L50.8926 96.7865C50.2628 96.1184 49.6336 95.5073 49.0237 94.9149C46.1113 92.0864 43.6385 89.6847 43.6385 83.5486C43.6385 76.1273 72.3953 41.4039 72.3953 41.4039C72.3953 41.4039 96.6609 46.0337 99.9327 46.0337C102.543 46.0337 107.585 44.2996 112.84 42.4918C114.17 42.0341 115.515 41.5717 116.837 41.1315C123.38 38.9528 127.743 38.937 127.743 38.937C127.743 38.937 132.105 38.9528 138.649 41.1315C139.971 41.5717 141.315 42.0341 142.646 42.4919C147.901 44.2996 152.942 46.0337 155.553 46.0337Z" fill="white"/>
<path d="M151.388 168.854C156.517 171.494 160.156 173.368 161.532 174.228C163.312 175.341 162.227 177.44 160.605 178.585C158.984 179.73 137.193 196.584 135.078 198.447C134.808 198.685 134.521 198.944 134.222 199.213C132.184 201.047 129.585 203.387 127.743 203.387C125.899 203.387 123.298 201.045 121.261 199.211C120.963 198.942 120.677 198.685 120.407 198.447C118.292 196.584 96.5016 179.73 94.8799 178.585C93.2582 177.44 92.173 175.341 93.9529 174.228C95.3297 173.367 98.9725 171.492 104.107 168.849C105.612 168.075 107.245 167.234 108.987 166.334C116.671 162.362 126.248 158.985 127.743 158.985C129.237 158.985 138.814 162.362 146.499 166.334C148.244 167.236 149.88 168.078 151.388 168.854Z" fill="white"/>
<defs>
<linearGradient id="paint0_linear_1648_3" x1="18.6837" y1="257.275" x2="236.802" y2="257.275" gradientUnits="userSpaceOnUse">
<stop stop-color="#FF5500"/>
<stop offset="0.333333" stop-color="#FF5500"/>
<stop offset="0.666667" stop-color="#FF2000"/>
<stop offset="1" stop-color="#FF2000"/>
</linearGradient>
</defs>
</svg>
