<!-- This Source Code Form is subject to the terms of the Mozilla Public
     License, v. 2.0. If a copy of the MPL was not distributed with this file,
     You can obtain one at http://mozilla.org/MPL/2.0/.
-->
<svg width="194" height="228" xmlns="http://www.w3.org/2000/svg">
  <defs>
    <linearGradient x1="0%" y1="50.706%" x2="100%" y2="50.706%" id="a">
      <stop stop-color="#FB542B" offset="0%"/>
      <stop stop-color="#E3380E" offset="100%"/>
    </linearGradient>
    <linearGradient x1=".643%" y1="49.357%" x2="99.357%" y2="49.357%" id="b">
      <stop stop-color="#392DD1" offset="0%"/>
      <stop stop-color="#A91B78" offset="100%"/>
    </linearGradient>
    <linearGradient x1="35.192%" y1="0%" x2="146.327%" y2="222.965%" id="c">
      <stop stop-color="#392DD1" offset="0%"/>
      <stop stop-color="#FF4343" offset="100%"/>
    </linearGradient>
  </defs>
  <g transform="rotate(-15 163.383 99.308)" fill="none" fill-rule="evenodd" opacity=".06">
    <g fill-rule="nonzero">
      <circle cx="15" cy="15" r="15" fill="#000" transform="translate(132 191)"/>
      <circle cx="15" cy="15" r="15" fill="#FFF" transform="translate(132 191)"/>
    </g>
    <g fill-rule="nonzero">
      <ellipse cx="14.914" cy="14.911" rx="14.914" ry="14.911" fill="#000" transform="translate(64)"/>
      <ellipse cx="14.914" cy="14.911" rx="14.914" ry="14.911" fill="#FFF" transform="translate(64)"/>
    </g>
    <rect width="212.821" height="189.63" rx="4.072" fill="#000" fill-rule="nonzero" transform="translate(21 18)"/>
    <rect width="212.821" height="189.63" rx="4.072" fill="#FFF" transform="translate(21 18)"/>
    <g fill-rule="nonzero">
      <path d="M61.043 165.013l39.67-23.043 27.35-47.393V48.883c-.722 0-1.443.475-1.99 1.421l-32.396 56.14-32.393 56.138c-.546.947-.598 1.807-.24 2.431" fill="#FF4724"/>
      <path d="M128.063 48.883v45.694l27.348 47.393 39.67 23.043c.359-.624.307-1.484-.239-2.431l-32.394-56.139-32.396-56.139c-.547-.947-1.269-1.421-1.989-1.421" fill="#9E1F63"/>
      <path d="M195.081 165.013l-39.67-23.043h-54.697l-39.67 23.043c.357.628 1.127 1.017 2.221 1.017H192.86c1.094 0 1.864-.39 2.222-1.017" fill="#662D91"/>
      <path fill="#FFF" d="M100.714 141.97h54.697l-27.348-47.393z"/>
    </g>
    <g fill-rule="nonzero">
      <circle cx="22.5" cy="22.5" r="22.5" fill="#000" transform="translate(2 54)"/>
      <circle cx="22.5" cy="22.5" r="22.5" fill="url(#a)" transform="translate(2 54)"/>
    </g>
    <circle fill="url(#b)" fill-rule="nonzero" cx="15.5" cy="172.5" r="15.5"/>
    <g fill-rule="nonzero">
      <circle cx="19" cy="19" r="19" fill="#000" transform="translate(162 2)"/>
      <circle cx="19" cy="19" r="19" fill="url(#c)" transform="translate(162 2)"/>
    </g>
  </g>
</svg>
