<svg fill="none" xmlns="http://www.w3.org/2000/svg" viewBox="0 0 1114 453">
  <mask id="a" mask-type="alpha" maskUnits="userSpaceOnUse" x="0" y="0" width="1114" height="453">
    <path fill="#C4C4C4" d="M0 .187h1113.68V453H0z"/>
  </mask>
  <g>
    <path fill="url(#paint0_linear)" d="M0 0h1114v453H0z"/>
    <path opacity=".16" d="M-951.339 289.118h.001c6.455-.525 13.045.935 19.761 3.476 6.72 2.541 13.502 6.138 20.35 9.837l1.399.756c6.368 3.444 12.79 6.918 19.185 9.586 6.868 2.864 13.776 4.832 20.651 4.832 6.853 0 13.72-1.974 20.539-4.858 6.471-2.737 12.962-6.321 19.402-9.877l1.03-.569c6.799-3.752 13.538-7.422 20.237-10.065 6.695-2.642 13.284-4.231 19.773-3.867 29.158 1.637 57.817 11.441 86.677 21.63l3.327 1.175c27.717 9.797 55.64 19.667 84.173 22.516 28.319 2.828 57.538-1.299 86.604-5.403l3.76-.531c30.357-4.273 60.506-8.197 89.532-3.997 29.246 4.232 57.062 16.546 84.86 29.256a3536.4 3536.4 0 013.994 1.828c26.42 12.099 52.885 24.218 80.415 29.538 19.691 3.804 40.792-.41 61.709-4.773l1.622-.339c20.455-4.271 40.704-8.5 59.669-5.695 18.554 2.744 36.378 12.286 54.388 21.928.888.476 1.777.952 2.667 1.427 18.838 10.067 37.924 19.878 57.985 21.259 20.063 1.381 40.212-5.716 60.159-13.276 1.413-.535 2.826-1.073 4.237-1.611 18.59-7.081 37.003-14.095 55.311-14.906 18.448-.816 37.617 4.127 56.974 9.119 1.928.497 3.858.995 5.789 1.487 21.236 5.416 42.621 10.201 63.039 6.45 20.349-3.738 38.684-15.835 56.728-28.253 1.057-.727 2.113-1.456 3.169-2.184 17.034-11.751 33.905-23.39 52.281-28.58 18.953-5.356 40.089-4.041 61.394-2.717l2.053.128c21.91 1.355 43.93 2.495 63.393-4.133l-.322-.947.322.946c22.952-7.821 42.71-23.677 62.163-39.699l2.44-2.012c18.676-15.399 37.183-30.658 58.243-39.196 22.029-8.928 46.939-10.575 72.138-11.968l2.778-.152c24.224-1.33 48.621-2.668 70.541-10.407 20.101-7.096 38.656-19.817 57.15-32.496 2.305-1.58 4.61-3.16 6.916-4.728 20.87-14.19 41.921-27.451 65.518-32.092 15.996-3.148 33.269 1.812 50.895 7.324 1.014.317 2.03.637 3.047.956 16.53 5.194 33.3 10.463 49.113 9.091 15.82-1.373 31.395-9.459 46.74-17.428.94-.487 1.88-.973 2.81-1.457 16.37-8.469 32.48-16.337 48.79-16.004 16.31.332 32.08 8.846 48.07 17.974.92.525 1.85 1.053 2.77 1.581 14.99 8.584 30.2 17.294 45.94 19.32 25.37 3.266 51.87.908 78.3-1.444 2.79-.248 5.57-.496 8.35-.737 29.24-2.534 58.27-4.338 85.76 2.056 27.29 6.355 52.57 20.811 77.93 35.628l2.56 1.493c24.47 14.305 49.09 28.696 75.57 35.946 27.55 7.546 57.11 7.449 86.46 7.19l1.96-.018c28.74-.257 57.22-.513 83.66 6.126l.24-.97-.24.97c26.17 6.567 49.13 20.423 71.29 34.008l1.65 1.017c21.52 13.195 42.36 25.978 64.52 31.043 25.28 5.776 51.39 3.259 77.16.293 1.66-.191 3.33-.384 4.98-.577 24.13-2.806 47.9-5.569 70.64-2.013 20.99 3.281 41.53 12.553 62.78 22.147 2.29 1.036 4.6 2.076 6.91 3.113 23.68 10.607 48.32 20.827 75.22 22.665 5.06.346 10.11-1.423 15.03-4.143 4.92-2.721 9.81-6.455 14.58-10.154l1.02-.791c4.43-3.447 8.75-6.803 12.96-9.327 4.53-2.722 8.8-4.388 12.8-4.228 4.66.187 9.27 2.23 13.86 5.303 4.6 3.072 9.09 7.11 13.55 11.186l.92.838c4.13 3.775 8.23 7.529 12.28 10.406 4.34 3.084 8.76 5.269 13.24 5.321 10.7.126 24.69-4.749 37.75-9.586a950.6 950.6 0 003.8-1.412c5.21-1.944 10.23-3.812 14.8-5.298 5.28-1.717 9.88-2.889 13.44-3.098 1.59 7.611.55 13.572-1.9 18.734-2.56 5.388-6.66 9.953-11.11 14.654l-1.32 1.383c-8.5 8.937-17.68 18.579-17.68 35.024 0 17.239 8.29 25.911 16.35 34.339l.03.031c8.03 8.404 15.83 16.573 15.83 32.991 0 8.505 1.08 15.881 2.16 22.16.19 1.106.38 2.175.56 3.206.86 4.871 1.58 8.925 1.59 12.315.01 4.032-.99 6.886-3.84 8.925-2.95 2.118-8.04 3.473-16.57 3.96-555.77 31.73-586.82 31.724-1084.83 31.625-29.45-.006-60.53-.013-93.45-.013-294.798 0-442.19-7.911-589.59-15.822h-.003c-147.422-7.913-294.852-15.826-589.698-15.826-259.435 0-405.067 11.95-536.93 22.77-18.008 1.478-35.76 2.934-53.51 4.336-147.681 11.667-295.259 19.573-589.639 4.522-3.73-.191-6.07-1.028-7.46-2.238-1.34-1.17-1.94-2.823-1.87-5.042.07-2.251.83-4.995 2.1-8.163 1.28-3.155 3.03-6.659 5.04-10.415a685.99 685.99 0 014-7.28c3.05-5.504 6.29-11.333 9.03-17.142 4-8.453 7.05-17.047 7.05-24.814 0-7.682-1.55-13.319-4.04-17.905-2.48-4.568-5.85-8.033-9.36-11.391a262.87 262.87 0 00-1.6-1.509c-6.57-6.211-13.42-12.683-16.76-25.926-4.2-16.638-6.34-26.481-6.34-35.751-.01-9.156 2.05-17.812 6.41-31.973 5.21-2.283 12.04-3.594 19.93-4.427 7.42-.783 15.69-1.137 24.36-1.508l2.37-.102c19-.822 39.62-1.909 56.35-7.958 6.5-2.35 12.52-6.618 18.35-11.762 4.85-4.284 9.63-9.22 14.46-14.22l2.91-3.007c11.74-12.068 24.03-23.83 39.37-28.014 6.55-1.79 13.73-1.688 21.35-.577 7.62 1.111 15.61 3.22 23.79 5.397l.57.151c16.11 4.288 32.96 8.776 48.52 5.871 6.78-1.265 13.24-4.432 19.49-8.446 5.73-3.673 11.336-8.092 16.894-12.471l1.539-1.211c6.082-4.784 12.113-9.435 18.268-13.028 6.151-3.59 12.366-6.086 18.8-6.606z" stroke="url(#paint1_linear)" stroke-width="2"/>
    <path opacity=".04" d="M-1299.48 390.308c21.65-9.856 70.37-2.231 103.49-14.207 25.31-9.153 43.89-48.495 75.16-57.028 26.98-7.361 63.36 16.603 94.32 10.824 26.39-4.928 48.538-39.63 75.091-41.776 26.633-2.165 54.671 28.484 81.427 28.484 26.665 0 54.29-30.734 81.037-29.234 58.645 3.291 115.159 39.428 174.22 45.324 58.794 5.871 121.562-18.372 179.94-9.925 58.817 8.51 111.765 49.508 169.315 60.629 38.921 7.52 83.601-16.635 122.957-10.814 39.356 5.82 75.336 41.877 114.963 44.605 39.626 2.728 79.803-28.031 119.594-29.794 40.937-1.81 85.318 24.484 125.666 17.071 40.212-7.386 72.669-47.862 112.086-58.996 39.517-11.165 88.3 6.403 126.79-6.706 45.504-15.508 78.496-62.93 122.792-80.888 44.416-18.001 100.308-6.589 145.5-22.543 44.906-15.853 82.084-59.983 129.724-69.355 32.57-6.408 70.073 20.227 103.161 17.357 33.089-2.871 65.247-35.57 98.447-34.893 33.21.677 63.96 34.643 96.89 38.883 55.81 7.185 117.18-12.975 172.5-.107 54.94 12.789 101.61 58.154 156.1 73.076 54.8 15.008 117.69-.36 172.06 13.293 52.68 13.219 92.36 55.761 137.44 66.063 50.19 11.466 103.78-9.963 152.72-2.31 46.83 7.323 91.41 44.267 144.81 47.916 19.18 1.307 39.2-29.332 56.37-28.645 19.7.791 37.15 32.857 53.82 33.053 20.96.247 55.24-19.169 70.58-19.426 7.52 32.861-31.81 37.15-31.81 70.827s32.21 33.68 32.21 67.361c0 33.68 17.18 49.609-17.04 51.565-588.66 33.607-588.7 31.613-1178.34 31.613-589.645 0-589.648-31.648-1179.291-31.648-589.642 0-591.278 61.734-1180.129 31.626-30.64-1.563 16.94-45.947 16.94-76.092 0-30.146-24.35-27.218-31.73-56.487-8.39-33.24-8.68-39.845.22-68.696z" fill="url(#paint2_linear)"/>
    <path opacity=".08" d="M-1197.63 374.638c21.65-9.855 70.37-2.231 103.49-14.207 25.32-9.153 43.9-48.495 75.17-57.028 26.972-7.361 63.358 16.603 94.314 10.824 26.391-4.928 48.538-39.63 75.091-41.776 26.633-2.165 54.671 28.484 81.427 28.484 26.666 0 54.291-30.734 81.037-29.234 58.646 3.291 115.159 39.428 174.22 45.324 58.794 5.871 121.563-18.372 179.941-9.925 58.816 8.51 111.764 49.508 169.315 60.629 38.921 7.52 83.601-16.634 122.957-10.814 39.356 5.82 75.336 41.877 114.962 44.605 39.627 2.728 79.804-28.031 119.595-29.794 40.937-1.81 85.317 24.484 125.665 17.071 40.213-7.386 72.67-47.862 112.087-58.996 39.516-11.165 88.3 6.403 126.789-6.706 45.505-15.508 78.496-62.93 122.793-80.887 44.416-18.002 100.308-6.59 145.5-22.544 44.905-15.853 82.084-59.983 129.724-69.354 32.569-6.409 70.073 20.226 103.163 17.356 33.09-2.871 65.24-35.57 98.45-34.893 33.2.677 63.95 34.643 96.88 38.884 55.81 7.184 117.18-12.976 172.51-.108 54.93 12.789 101.6 58.154 156.1 73.076 54.79 15.008 117.68-.36 172.06 13.293 52.67 13.22 92.36 55.762 137.43 66.063 50.19 11.466 103.78-9.963 152.72-2.31 46.83 7.323 91.42 44.267 144.82 47.916 19.17 1.307 39.19-29.332 56.36-28.645 19.71.791 37.15 32.857 53.82 33.053 20.96.247 55.25-19.169 70.59-19.425 7.51 32.86-31.82 37.149-31.82 70.826 0 33.677 32.21 33.68 32.21 67.361 0 33.68 17.18 49.609-17.04 51.565-588.65 33.607-588.7 31.614-1178.34 31.614-589.641 0-589.644-31.649-1179.286-31.649s-591.279 61.734-1180.124 31.626c-30.64-1.563 16.94-45.947 16.94-76.092 0-30.146-24.35-27.218-31.74-56.487-8.38-33.24-8.68-39.845.22-68.696z" fill="url(#paint3_linear)"/>
    <path opacity=".5" d="M-849.484 273.448h0c6.456-.525 13.045.935 19.762 3.476 6.72 2.541 13.502 6.138 20.349 9.837l1.4.756c6.368 3.445 12.79 6.918 19.185 9.586 6.867 2.864 13.775 4.832 20.65 4.832 6.854 0 13.721-1.974 20.54-4.858 6.471-2.737 12.962-6.321 19.401-9.877l1.031-.569c6.798-3.752 13.538-7.422 20.236-10.065 6.695-2.642 13.285-4.231 19.773-3.867 29.159 1.637 57.818 11.441 86.678 21.63l3.326 1.175c27.718 9.798 55.64 19.667 84.173 22.516 28.319 2.828 57.538-1.298 86.604-5.403l3.761-.531c30.357-4.273 60.505-8.196 89.532-3.996 29.245 4.231 57.062 16.545 84.859 29.255 1.332.608 2.663 1.218 3.995 1.828 26.42 12.099 52.884 24.218 80.414 29.538 19.691 3.804 40.793-.41 61.71-4.773l1.622-.339c20.455-4.271 40.704-8.5 59.669-5.695 18.553 2.744 36.377 12.286 54.388 21.928l2.666 1.427c18.838 10.067 37.925 19.878 57.986 21.259 20.063 1.381 40.212-5.716 60.158-13.276 1.414-.535 2.826-1.073 4.238-1.611 18.59-7.081 37.003-14.095 55.311-14.906 18.447-.816 37.616 4.128 56.973 9.119 1.928.497 3.858.995 5.789 1.488 21.237 5.415 42.622 10.2 63.04 6.449 20.348-3.738 38.684-15.835 56.728-28.253 1.057-.727 2.113-1.456 3.168-2.184 17.034-11.751 33.906-23.39 52.281-28.58 18.953-5.355 40.09-4.041 61.395-2.716l2.052.127c21.911 1.355 43.931 2.495 63.394-4.133l-.323-.947.323.947c22.951-7.822 42.709-23.678 62.162-39.7l2.441-2.012c18.675-15.399 37.182-30.658 58.243-39.196 22.029-8.928 46.939-10.575 72.138-11.968l2.777-.152c24.224-1.33 48.621-2.668 70.542-10.407 20.1-7.096 38.655-19.816 57.15-32.495 2.305-1.581 4.609-3.161 6.916-4.729 20.869-14.19 41.921-27.451 65.518-32.092 15.995-3.148 33.269 1.812 50.89 7.324 1.02.317 2.03.637 3.05.956 16.53 5.194 33.3 10.463 49.11 9.091 15.82-1.373 31.4-9.459 46.75-17.428.94-.487 1.87-.973 2.81-1.457 16.36-8.469 32.48-16.337 48.79-16.004 16.31.332 32.08 8.846 48.07 17.974l2.76 1.581c15 8.584 30.21 17.294 45.95 19.32 25.36 3.266 51.86.908 78.3-1.444 2.78-.248 5.56-.496 8.34-.737 29.24-2.534 58.27-4.338 85.76 2.056 27.3 6.355 52.57 20.811 77.94 35.628l2.56 1.494c24.47 14.304 49.09 28.695 75.56 35.945 27.56 7.546 57.12 7.449 86.46 7.19l1.97-.018c28.73-.257 57.22-.513 83.65 6.126l.25-.97-.25.97c26.17 6.567 49.14 20.423 71.29 34.008l1.66 1.017c21.51 13.195 42.35 25.978 64.51 31.043 25.28 5.776 51.39 3.259 77.17.294l4.98-.578c24.13-2.805 47.9-5.569 70.64-2.013 20.98 3.281 41.52 12.554 62.77 22.147 2.3 1.036 4.6 2.076 6.92 3.113 23.67 10.607 48.31 20.827 75.21 22.665 5.07.346 10.11-1.423 15.03-4.143 4.92-2.721 9.82-6.455 14.58-10.154l1.02-.791c4.44-3.447 8.76-6.803 12.96-9.327 4.54-2.722 8.8-4.388 12.8-4.228 4.67.187 9.27 2.23 13.87 5.303 4.59 3.072 9.09 7.11 13.55 11.186l.91.838c4.13 3.775 8.23 7.529 12.28 10.406 4.34 3.084 8.77 5.269 13.24 5.321 10.7.126 24.7-4.749 37.76-9.586 1.27-.472 2.54-.945 3.8-1.412 5.21-1.944 10.22-3.812 14.79-5.298 5.28-1.717 9.88-2.889 13.45-3.098 1.58 7.611.54 13.572-1.91 18.734-2.55 5.388-6.66 9.953-11.11 14.654-.43.46-.87.921-1.31 1.383-8.51 8.937-17.69 18.579-17.69 35.024 0 17.239 8.29 25.911 16.35 34.339l.03.031c8.04 8.404 15.83 16.573 15.83 32.991 0 8.505 1.09 15.881 2.16 22.16.19 1.106.38 2.175.57 3.206.86 4.871 1.58 8.925 1.58 12.315.01 4.032-.99 6.886-3.83 8.925-2.96 2.118-8.05 3.473-16.58 3.96-555.76 31.73-586.81 31.724-1084.83 31.625-29.45-.006-60.53-.012-93.45-.012-294.793 0-442.185-7.912-589.586-15.823h-.003C439.35 551.2 291.919 543.287-2.926 543.287c-259.435 0-405.068 11.95-536.931 22.77-18.008 1.478-35.76 2.934-53.509 4.337-147.682 11.666-295.26 19.572-589.634 4.521-3.74-.191-6.08-1.028-7.47-2.237-1.34-1.171-1.93-2.824-1.86-5.043.07-2.251.82-4.995 2.1-8.163 1.27-3.155 3.03-6.659 5.04-10.415 1.25-2.337 2.6-4.775 3.99-7.28 3.06-5.504 6.29-11.333 9.04-17.142 3.99-8.453 7.05-17.047 7.05-24.814 0-7.682-1.56-13.319-4.04-17.905-2.48-4.568-5.85-8.033-9.37-11.39l-1.59-1.51c-6.58-6.211-13.43-12.683-16.77-25.926-4.2-16.637-6.33-26.481-6.34-35.751-.01-9.156 2.06-17.811 6.42-31.973 5.21-2.282 12.03-3.594 19.92-4.427 7.42-.783 15.7-1.137 24.36-1.508l2.38-.102c18.99-.822 39.61-1.909 56.34-7.958 6.5-2.35 12.52-6.618 18.35-11.762 4.86-4.284 9.63-9.22 14.46-14.22.97-1.001 1.94-2.005 2.92-3.007 11.74-12.068 24.03-23.829 39.36-28.014 6.56-1.79 13.74-1.688 21.356-.577 7.621 1.111 15.61 3.22 23.789 5.397l.569.152c16.106 4.287 32.963 8.775 48.523 5.87 6.776-1.265 13.234-4.432 19.49-8.446 5.724-3.673 11.333-8.092 16.891-12.471l1.539-1.211c6.082-4.784 12.114-9.435 18.269-13.028 6.15-3.59 12.366-6.086 18.8-6.606z" stroke="url(#paint4_linear)" stroke-width="2"/>
  </g>
  <defs>
    <linearGradient id="paint0_linear" x1="122.87" y1=".39" x2="402.992" y2="676.884" gradientUnits="userSpaceOnUse">
      <stop stop-color="#FB542B"/>
      <stop offset="1" stop-color="#B22134"/>
    </linearGradient>
    <linearGradient id="paint1_linear" x1="1305.69" y1="226.56" x2="1197.97" y2="-104.031" gradientUnits="userSpaceOnUse">
      <stop stop-color="#fff" stop-opacity="0"/>
      <stop offset="1" stop-color="#fff"/>
    </linearGradient>
    <linearGradient id="paint2_linear" x1="-1306.07" y1="148.433" x2="-1125.3" y2="1183.67" gradientUnits="userSpaceOnUse">
      <stop stop-color="#fff"/>
      <stop offset="1" stop-color="#fff" stop-opacity="0"/>
    </linearGradient>
    <linearGradient id="paint3_linear" x1="504.909" y1="267.611" x2="492.297" y2="430.357" gradientUnits="userSpaceOnUse">
      <stop stop-color="#fff" stop-opacity=".23"/>
      <stop offset="1" stop-color="#fff"/>
    </linearGradient>
    <linearGradient id="paint4_linear" x1="1363.64" y1="358.476" x2="1240" y2="-45.044" gradientUnits="userSpaceOnUse">
      <stop stop-color="#fff"/>
      <stop offset="1" stop-color="#fff" stop-opacity="0"/>
    </linearGradient>
  </defs>
</svg>
