<svg version="1.2" xmlns="http://www.w3.org/2000/svg" viewBox="0 0 2062 659" width="2062" height="659">
	<defs>
		<radialGradient id="g1" cx="0" cy="0" r="1" gradientUnits="userSpaceOnUse" gradientTransform="matrix(941.771,0,0,941.771,1067.067,610.157)">
			<stop offset="0" stop-color="#ff0000"/>
			<stop offset="1" stop-color="#000f9e"/>
		</radialGradient>
		<radialGradient id="g2" cx="0" cy="0" r="1" gradientUnits="userSpaceOnUse" gradientTransform="matrix(636.243,0,0,636.243,737.657,518.581)">
			<stop offset="0" stop-color="#ff0000"/>
			<stop offset="1" stop-color="#000f9e"/>
		</radialGradient>
	</defs>
	<style>
		.s0 { fill: #000000 } 
		.s1 { opacity: .25;fill: url(#g1);stroke: #000000;stroke-miterlimit:10;stroke-width: .4 } 
		.s2 { fill: url(#g2);stroke: #000000;stroke-miterlimit:10;stroke-width: .4 } 
	</style>
	<path class="s0" d="m2062 0h-2062v659h2062z"/>
	<path id="Layer copy" class="s1" d="m1179.84 189.95c3.02-17.93 7.54-35.27 25.33-39.06 17.12-3.66 685.72-146.34 702.85-149.99 17.78-3.8 35.27 7.54 39.07 25.32 3.79 17.78-122.6 430.89-125.52 442.99-4.72 19.6-7.54 35.27-25.32 39.07-17.13 3.65-685.73 146.33-702.86 149.99-17.78 3.79-35.27-7.55-39.07-25.33-3.79-17.78 123.56-431.33 125.52-442.99zm202.46 150.01c0 14.05 43.54 111.33 46.75 119.16 5.47 13.3 9.22 25.45 20.58 25.45 11.36 0 15.1-11.4 20.57-25.45 3.08-7.92 46.76-105.11 46.76-119.16 0-14.06-43.9-110.38-46.76-119.16-4.24-13.04-9.21-25.45-20.57-25.45-11.36 0-15.46 12.9-20.58 25.45-2.86 7.01-46.75 105.1-46.75 119.16z"/>
	<path class="s2" d="m813.84 234.7c2.05-12.11 5.1-23.83 17.11-26.39 11.58-2.47 463.27-98.87 474.84-101.33 12.01-2.57 23.83 5.09 26.39 17.11 2.57 12.01-82.82 291.1-84.79 299.27-3.19 13.24-5.1 23.83-17.11 26.39-11.57 2.47-463.27 98.87-474.84 101.33-12.01 2.57-23.83-5.09-26.39-17.11-2.56-12.01 83.47-291.39 84.79-299.27zm136.78 101.34c0 9.5 29.41 75.21 31.59 80.5 3.69 8.99 6.22 17.19 13.9 17.19 7.67 0 10.2-7.69 13.9-17.19 2.08-5.35 31.59-71 31.59-80.5 0-9.5-29.66-74.57-31.59-80.5-2.87-8.81-6.23-17.2-13.9-17.2-7.68 0-10.44 8.72-13.9 17.2-1.93 4.74-31.59 71-31.59 80.5z"/>
</svg>
