<svg width="14" height="14" viewBox="0 0 14 14" fill="none" xmlns="http://www.w3.org/2000/svg">
<path fill-rule="evenodd" clip-rule="evenodd" d="M7 14C3.14008 14 0 10.8599 0 7C0 3.14008 3.14008 0 7 0C10.8599 0 14 3.14008 14 7C14 10.8599 10.8599 14 7 14ZM7 11.0833C6.84833 11.0833 6.69667 11.0192 6.58583 10.9142C6.48025 10.8033 6.41667 10.6517 6.41667 10.5C6.41667 10.3425 6.48025 10.1967 6.58583 10.0858C6.80167 9.87 7.1925 9.87 7.41417 10.0858C7.51917 10.1967 7.58333 10.3425 7.58333 10.5C7.58333 10.6517 7.51917 10.8033 7.41417 10.9142C7.30333 11.0192 7.15167 11.0833 7 11.0833ZM7 8.75C6.67742 8.75 6.41667 8.48867 6.41667 8.16667V3.5C6.41667 3.178 6.67742 2.91667 7 2.91667C7.32258 2.91667 7.58333 3.178 7.58333 3.5V8.16667C7.58333 8.48867 7.32258 8.75 7 8.75Z" fill="#BD1531"/>
</svg>
