<svg width="20" height="20" viewBox="0 0 20 20" fill="none" xmlns="http://www.w3.org/2000/svg">
<path fill-rule="evenodd" clip-rule="evenodd" d="M16.9583 4.90175C17.2183 5.28175 17.1191 5.80008 16.7391 6.05925C16.3591 6.31842 15.8399 6.22092 15.5808 5.84092C14.1974 3.81092 11.6808 2.50008 9.16911 2.50008C5.03244 2.50008 1.66744 5.86508 1.66744 10.0001C1.66744 14.1351 5.03244 17.5001 9.16911 17.5001C13.1366 17.5001 16.3866 14.4026 16.6458 10.5009L14.5783 11.6842C14.1791 11.9117 13.6699 11.7734 13.4416 11.3742C13.2124 10.9742 13.3508 10.4659 13.7508 10.2367L16.8858 8.44342C17.0791 8.33258 17.3083 8.30425 17.5224 8.36342C17.7374 8.42258 17.9191 8.56592 18.0274 8.76008L19.8933 12.0934C19.9658 12.2217 19.9999 12.3617 19.9999 12.4992C19.9999 12.7917 19.8458 13.0742 19.5733 13.2276C19.1716 13.4526 18.6633 13.3084 18.4391 12.9067L18.0549 12.2217C17.0574 16.2042 13.4574 19.1667 9.16911 19.1667C4.11327 19.1667 -6.10352e-05 15.0542 -6.10352e-05 10.0001C-6.10352e-05 4.94592 4.11327 0.833416 9.16911 0.833416C12.2158 0.833416 15.2733 2.43008 16.9583 4.90175Z" fill="white"/>
</svg>
