<svg width="24" height="24" viewBox="0 0 24 24" fill="none" xmlns="http://www.w3.org/2000/svg">
<g clip-path="url(#clip0_3713_14994)">
<path d="M12 24C18.6274 24 24 18.6274 24 12C24 5.37258 18.6274 0 12 0C5.37258 0 0 5.37258 0 12C0 18.6274 5.37258 24 12 24Z" fill="#FCFE53"/>
<path d="M6.03809 6H17.9616V10.2576H16.0169C15.3345 8.69546 13.7992 7.59666 12.0082 7.59666C9.58593 7.59666 7.62433 9.57085 7.62433 11.9916C7.62433 14.4124 9.58593 16.4036 12.0082 16.4036C13.7652 16.4036 15.3005 15.3393 15.9826 13.8112H17.9613V18H6.03809V6Z" fill="black"/>
</g>
<defs>
<clipPath id="clip0_3713_14994">
<rect width="24" height="24" fill="white"/>
</clipPath>
</defs>
</svg>
