<svg preserveAspectRatio="xMinYMid" viewBox="0 0 400 455" xmlns="http://www.w3.org/2000/svg"><g style="stroke:#fff;stroke-width:1.25;fill:none;fill-rule:evenodd;opacity:.798;stroke-linecap:round"><g opacity=".311"><path d="m17 6.19c.52 0 1.04.259 1.327.776l7.104 12.734 7.186 12.879c.28.499.237 1.056-.02 1.488" opacity=".261"/><path d="m32.598 34.066c-.256.434-.73.744-1.307.744h-28.581c-.579 0-1.053-.31-1.309-.744m15.599-27.876c-.52 0-1.04.259-1.327.776l-7.104 12.734-7.187 12.878c-.28.499-.236 1.056.02 1.488m15.598-16.682-3.334 5.57-3.27 4.669m12.191 0-2.794-5.12-2.793-5.12m6.667 11.321h-13.334" opacity=".261"/></g><g opacity=".496"><path d="m53.345 29.903c.626.507 1.004 1.319.854 2.213l-3.663 22.018-3.705 22.272a2.217 2.217 0 0 1 -1.452 1.744" opacity=".261"/><path d="m45.634 78.356c-.841.41-1.792.42-2.486-.143l-17.17-13.903-17.17-13.906c-.697-.563-.885-1.495-.66-2.402m45.197-18.099c-.626-.507-1.5-.708-2.343-.376l-20.774 8.163-21.015 8.253a2.217 2.217 0 0 0 -1.404 1.783m34.741-4.493-9.267 3.459-8.323 2.448m14.28 11.564 1.654-8.736 1.657-8.735m-2.465 20.075-8.032-6.504-8.033-6.505" opacity=".261"/></g><g opacity=".496"><path d="m39.008 99.152c1.021-.827 2.45-1.151 3.832-.601l34.054 13.512 34.447 13.666c1.338.526 2.13 1.683 2.31 2.932" opacity=".261"/><path d="m114.066 128.324c.375 1.489.073 3.015-1.06 3.932l-28.014 22.686-28.014 22.685c-1.135.92-2.691.898-4.07.222m-13.9-78.697c-1.02.826-1.635 2.156-1.384 3.623l6.136 36.118 6.206 36.536c.237 1.419 1.203 2.434 2.388 2.869m4.406-57.225 2.446 16.05 1.142 14.185m24.152-19.056-13.444-5.683-13.442-5.685m27.738 11.468-12.61 10.212-12.61 10.211" opacity=".261"/></g><path d="m38.005-4.263c.41-.228.932-.255 1.383.02l11.095 6.781 11.223 6.859c.437.265.642.717.625 1.165m.168-.093c.037.543-.166 1.059-.62 1.311l-11.264 6.244-11.263 6.243c-.457.253-1.001.151-1.442-.168m.095-28.362c-.41.227-.71.655-.714 1.183l-.13 13.003-.13 13.152c-.008.51.267.924.656 1.147m5.162-19.747-.156 5.76-.496 5.03m9.368-5.192-4.359-2.799-4.357-2.8m10.308 5.71-5.27 2.92-5.269 2.921" opacity=".129456"/></g></svg>