<svg width="201" height="160" viewBox="0 0 201 160" fill="none" xmlns="http://www.w3.org/2000/svg">
<g clip-path="url(#clip0)">
<path d="M200.03 146.19C200.03 146.447 199.984 146.702 199.895 146.943C198.389 150.818 185.34 154.265 165.381 156.659C147.838 158.743 124.997 160.008 100.019 160.008C91.5898 160.008 83.4017 159.872 75.5898 159.594C70.7507 159.436 66.0546 159.217 61.5315 158.954C55.3528 158.6 49.4901 158.156 44.0113 157.644C17.46 155.153 0 150.954 0 146.19C0 144.083 3.40169 142.088 9.49765 140.305C16.2709 138.318 26.3255 136.595 38.7131 135.262C39.1646 135.262 39.6087 135.172 40.0602 135.119C44.7563 134.638 49.7611 134.209 55.0442 133.84C60.3274 133.471 65.8739 133.163 71.6463 132.929C74.9802 132.794 78.4196 132.681 81.8664 132.598C84.2396 132.538 86.6378 132.488 89.0611 132.448C92.6585 132.393 96.3111 132.365 100.019 132.365H102.412C119.533 132.418 135.594 133.065 149.547 134.171C153.716 134.497 157.682 134.866 161.445 135.278C184.933 137.806 200.03 141.757 200.03 146.19Z" fill="url(#paint0_linear)"/>
<path d="M56.6621 115.861V121.016L41.9189 118.615V113.829L56.6621 115.861Z" fill="#D9CDFE"/>
<path d="M64.0451 78.0433V83.3866L60.395 83.4694V78.2164L64.0451 78.0433Z" fill="#D9CDFE"/>
<path d="M39.9849 107.612L94.6979 104.941L158.901 109.456L99.9284 113.934L39.9849 107.612Z" fill="#A78AFE"/>
<path d="M99.9284 62.1863L158.901 66.6566L94.6979 71.1722L39.9849 68.5005L99.9284 62.1863Z" fill="#A78AFE"/>
<path d="M159.135 104.271L100.147 107.665C100.466 107.645 100.773 107.538 101.035 107.357C101.321 107.155 101.564 106.9 101.75 106.604C101.967 106.252 102.129 105.868 102.232 105.468C102.356 105.014 102.416 104.545 102.412 104.075L161.445 101.283C161.448 101.677 161.387 102.068 161.265 102.442C161.155 102.781 160.99 103.099 160.775 103.383C160.57 103.644 160.314 103.862 160.023 104.023C159.75 104.172 159.446 104.257 159.135 104.271V104.271Z" fill="#A78AFE"/>
<path d="M102.389 71.5936V71.3001C102.363 71.0865 102.32 70.8751 102.261 70.6679C102.261 70.6679 102.261 70.6679 102.261 70.6679C102.164 70.2747 102.007 69.8989 101.795 69.5541C101.608 69.2589 101.365 69.0032 101.08 68.8015C101.034 68.7644 100.983 68.734 100.929 68.7112C100.865 68.6702 100.797 68.635 100.726 68.6058H100.621C100.589 68.5949 100.555 68.5949 100.523 68.6058H100.335H100.259C100.167 68.5942 100.073 68.5942 99.9809 68.6058L77.2754 70.4271H76.8389L73.0308 70.7357L62.6526 71.5635L40.075 73.3772C39.8667 73.3981 39.6723 73.4913 39.5256 73.6406C39.3428 73.8258 39.1949 74.0426 39.0891 74.2803C38.9534 74.5756 38.8548 74.8865 38.7956 75.206C38.7182 75.5722 38.6803 75.9456 38.6827 76.3199V100.064C38.6803 100.438 38.7182 100.812 38.7956 101.178C38.8548 101.497 38.9534 101.808 39.0891 102.103C39.1987 102.339 39.3461 102.555 39.5256 102.743C39.6756 102.889 39.8679 102.984 40.075 103.014L43.8906 103.323L67.6272 105.212L76.1992 105.897L76.8615 105.949L88.9932 106.92L100.011 107.801C100.104 107.808 100.197 107.808 100.289 107.801H100.402C100.425 107.806 100.448 107.806 100.47 107.801C100.535 107.79 100.598 107.772 100.658 107.748L100.801 107.703C100.841 107.676 100.884 107.653 100.929 107.635C101.248 107.447 101.521 107.19 101.727 106.882C101.752 106.849 101.775 106.814 101.795 106.777C101.85 106.699 101.897 106.616 101.938 106.529C101.988 106.44 102.031 106.346 102.066 106.25C102.103 106.16 102.148 106.062 102.186 105.949C102.216 105.877 102.239 105.801 102.254 105.723C102.257 105.703 102.257 105.683 102.254 105.663C102.317 105.451 102.365 105.235 102.397 105.016V104.715C102.397 104.564 102.397 104.406 102.397 104.248V72.0677C102.412 71.9022 102.397 71.7441 102.389 71.5936ZM64.0073 83.3867L60.3648 83.4694V78.2013L63.4955 78.0508H64.0073V83.3867ZM41.8812 79.1044L54.5473 78.4948L56.6169 78.397V83.5372L41.8812 83.8608V79.1044ZM96.5792 99.635L91.7326 99.3942V93.3735L96.5792 93.4788V99.635Z" fill="#D9CDFE"/>
<path d="M56.6621 78.397V83.5522L41.9189 83.8834V79.0969L56.6621 78.397Z" fill="#D9CDFE"/>
<path d="M56.6621 40.9257V46.0884L41.9189 49.1515V44.365L56.6621 40.9257Z" fill="#D9CDFE"/>
<path d="M64.0451 116.877V122.22L60.395 121.626V116.373L64.0451 116.877Z" fill="#D9CDFE"/>
<path d="M64.0451 39.2098V44.5532L60.395 45.3133V40.0602L64.0451 39.2098Z" fill="#D9CDFE"/>
<path d="M102.209 116.5C102.093 116.054 101.916 115.626 101.682 115.229C101.477 114.881 101.206 114.577 100.884 114.333C100.609 114.114 100.278 113.976 99.9284 113.934L76.9519 111.518L71.8569 110.977L69.9905 110.781L68.3348 110.6L44.5003 108.094L39.9848 107.612C39.7892 107.603 39.5959 107.658 39.4354 107.77C39.2543 107.931 39.1061 108.125 38.9989 108.342C38.8607 108.616 38.7619 108.907 38.7054 109.208C38.6267 109.566 38.5889 109.932 38.5925 110.299V134.051C38.5913 134.43 38.6291 134.808 38.7054 135.18C38.7054 135.18 38.7054 135.232 38.7054 135.262C38.7676 135.57 38.8609 135.87 38.9839 136.158C39.0935 136.428 39.2404 136.681 39.4204 136.911C39.5619 137.086 39.7535 137.215 39.9698 137.279L40.3762 137.392L41.4825 137.678L73.6029 146.198L90.7468 150.751L99.9208 153.189C100.152 153.237 100.39 153.237 100.621 153.189H100.749C100.876 153.149 100.997 153.094 101.11 153.024C101.188 152.98 101.263 152.933 101.336 152.881C101.355 152.865 101.373 152.847 101.388 152.828C101.477 152.748 101.56 152.663 101.637 152.572L101.674 152.527C101.761 152.423 101.834 152.31 101.893 152.188C101.976 152.046 102.049 151.897 102.111 151.744C102.175 151.575 102.227 151.401 102.269 151.225C102.315 151.034 102.345 150.841 102.359 150.645C102.39 150.439 102.405 150.23 102.404 150.021V118.013C102.406 117.503 102.34 116.994 102.209 116.5ZM60.4025 116.373L64.045 116.877V122.228L60.4025 121.626V116.373ZM41.919 113.836L46.3893 114.453L53.6217 115.447L56.632 115.853V121.024L41.8964 118.615L41.919 113.836ZM96.617 138.318V144.497L91.7703 143.375V137.31L96.617 138.318Z" fill="#D9CDFE"/>
<path d="M96.6169 138.318V144.504L91.7627 143.368V137.317L96.6169 138.318Z" fill="white"/>
<path d="M96.6169 93.4487V99.6275L91.7627 99.3942V93.3434L96.6169 93.4487Z" fill="#A78AFE"/>
<path d="M96.6169 48.5795V54.7582L91.7627 55.4205V49.3697L96.6169 48.5795Z" fill="white"/>
<path d="M159.624 141.885L100.628 153.174C100.891 153.122 101.137 153.006 101.343 152.835C101.571 152.646 101.763 152.417 101.908 152.158C102.075 151.853 102.199 151.526 102.277 151.187C102.37 150.795 102.416 150.393 102.412 149.991L161.445 139.229C161.448 139.565 161.402 139.899 161.309 140.222C161.228 140.512 161.098 140.787 160.926 141.035C160.775 141.266 160.581 141.465 160.354 141.622C160.132 141.761 159.883 141.85 159.624 141.885V141.885Z" fill="#A78AFE"/>
<path d="M102.412 118.013L161.445 112.783V139.191L102.412 149.998V118.013Z" fill="#A78AFE"/>
<path d="M99.9287 113.934L158.901 109.456C159.251 109.481 159.589 109.589 159.887 109.772C160.202 109.971 160.478 110.226 160.7 110.525C160.935 110.84 161.118 111.191 161.242 111.564C161.379 111.963 161.448 112.383 161.445 112.805L102.412 118.036C102.413 117.528 102.347 117.022 102.217 116.531C102.099 116.082 101.917 115.654 101.675 115.259C101.484 114.915 101.228 114.611 100.922 114.363C100.641 114.124 100.295 113.975 99.9287 113.934Z" fill="#A78AFE"/>
<path d="M102.412 72.0602L161.445 74.8523V101.261L102.412 104.053V72.0602Z" fill="#A78AFE"/>
<path d="M100.147 68.4403L159.127 71.842C159.448 71.8591 159.76 71.9519 160.038 72.1129C160.329 72.2734 160.585 72.491 160.79 72.7526C161.005 73.0394 161.17 73.3598 161.28 73.7009C161.402 74.0722 161.463 74.4612 161.46 74.8523L102.427 72.0602C102.431 71.5901 102.37 71.1216 102.247 70.6679C102.144 70.267 101.982 69.8839 101.765 69.5315C101.579 69.2358 101.336 68.98 101.05 68.7789C100.785 68.5876 100.473 68.4707 100.147 68.4403V68.4403Z" fill="#A78AFE"/>
<path d="M102.412 58.1073L161.445 63.3302C161.448 63.7526 161.379 64.1724 161.242 64.572C161.118 64.9449 160.935 65.2955 160.7 65.6105C160.481 65.912 160.205 66.1676 159.887 66.3631C159.589 66.5463 159.251 66.6547 158.901 66.6792L99.9287 62.2089C100.277 62.1631 100.607 62.0254 100.884 61.81C101.191 61.5598 101.446 61.2533 101.637 60.9069C101.88 60.5124 102.063 60.0837 102.179 59.635C102.325 59.1386 102.404 58.6247 102.412 58.1073V58.1073Z" fill="#A78AFE"/>
<path d="M102.412 26.1148L161.445 36.9219V63.3302L102.412 58.1073V26.1148Z" fill="#A78AFE"/>
<path d="M100.628 22.9313L159.624 34.2201C159.894 34.2632 160.151 34.366 160.376 34.5212C160.603 34.678 160.797 34.8773 160.948 35.1082C161.121 35.3558 161.25 35.6305 161.332 35.921C161.425 36.2439 161.471 36.5785 161.468 36.9144L102.412 26.1148C102.416 25.7119 102.37 25.3101 102.277 24.9182C102.199 24.5791 102.075 24.2523 101.908 23.9473C101.763 23.6888 101.571 23.4592 101.343 23.27C101.137 23.0994 100.891 22.983 100.628 22.9313V22.9313Z" fill="#A78AFE"/>
<path d="M102.397 25.746C102.397 25.6557 102.397 25.5804 102.397 25.4901C102.397 25.3998 102.352 25.1289 102.322 24.9633C102.292 24.7977 102.269 24.7676 102.239 24.6849C102.212 24.5803 102.179 24.4773 102.141 24.3763C102.084 24.2309 102.016 24.0901 101.938 23.9549C101.902 23.8876 101.859 23.8245 101.81 23.7667C101.784 23.7188 101.754 23.6734 101.72 23.6312V23.6312V23.5861L101.569 23.428C101.516 23.3829 101.471 23.3302 101.419 23.2926L101.291 23.2023C101.224 23.1521 101.15 23.1115 101.072 23.0819C101.053 23.0764 101.032 23.0764 101.012 23.0819H100.959H100.899C100.835 23.0632 100.77 23.0482 100.704 23.0367C100.473 22.9882 100.234 22.9882 100.004 23.0367L88.7148 26.047L78.3969 28.6736L48.2181 36.6811L39.9999 38.8636C39.7864 38.9339 39.5964 39.0614 39.4505 39.2324C39.2705 39.4616 39.1236 39.7149 39.014 39.985C38.8795 40.2989 38.781 40.6271 38.7205 40.9633C38.6438 41.3372 38.606 41.718 38.6076 42.0997V65.8137C38.6044 66.1831 38.6423 66.5516 38.7205 66.9125C38.7782 67.2131 38.877 67.5043 39.014 67.778C39.1171 67.9933 39.2661 68.1834 39.4505 68.3349C39.6046 68.4605 39.8021 68.52 39.9999 68.5005L61.8249 66.2427L70.3668 65.3321L79.0215 64.3838L84.5079 63.8043H84.5606H84.7487L93.426 62.9012L99.1005 62.2916L99.8908 62.2089C100.239 62.1693 100.57 62.0339 100.847 61.8175C101.165 61.5701 101.435 61.2666 101.644 60.9219C101.712 60.809 101.772 60.6811 101.832 60.5532C101.893 60.4252 101.953 60.2898 102.006 60.1618C102.058 60.0339 102.073 59.9962 102.096 59.9059C102.129 59.8206 102.154 59.7324 102.171 59.6425C102.305 59.1519 102.373 58.6458 102.374 58.1374V26.1148C102.39 25.9924 102.397 25.8693 102.397 25.746ZM60.4025 40.0452L64.0451 39.2098V44.5532L60.4025 45.3057V40.0452ZM41.919 44.4026L42.6716 44.2295L51.6048 42.1449L56.1805 41.0837L56.6471 40.9708V46.1261L50.4759 47.413L44.7863 48.5946L41.919 49.1891V44.4026ZM96.617 54.7959L91.7704 55.4657V49.3697L96.617 48.6171V54.7959Z" fill="#D9CDFE"/>
<path d="M165.975 96.6924C165.669 95.5027 165.16 94.3748 164.47 93.3584C163.795 92.3508 162.964 91.4566 162.009 90.7093C161.082 89.9715 160.036 89.3964 158.916 89.0085C157.831 88.6226 156.679 88.4564 155.529 88.5193L159.473 84.8918C160.631 84.8315 161.789 85.0003 162.882 85.3885C164.007 85.7863 165.06 86.3659 165.998 87.1044C166.958 87.8595 167.794 88.7611 168.474 89.7761C169.168 90.8012 169.677 91.9397 169.979 93.1402L165.975 96.6924Z" fill="#D9CDFE"/>
<path d="M164.689 97.0837L160.693 100.628C160.924 100.425 161.123 100.186 161.28 99.921C161.448 99.6529 161.575 99.3611 161.656 99.0555C161.748 98.7323 161.793 98.3979 161.792 98.0621C161.79 97.6992 161.744 97.3379 161.656 96.9859C161.5 96.4143 161.246 95.8744 160.904 95.3904C160.583 94.9061 160.187 94.4767 159.73 94.1185C159.277 93.7671 158.768 93.4949 158.224 93.3133C157.706 93.1277 157.156 93.0484 156.606 93.08C156.414 93.0953 156.223 93.123 156.034 93.1628C155.851 93.2034 155.672 93.2613 155.5 93.3359C155.335 93.4036 155.176 93.4867 155.026 93.5842C154.876 93.6767 154.735 93.7825 154.604 93.9003L154.996 93.5466L155.192 93.366L155.59 93.0122L155.982 92.651L156.177 92.4704L156.576 92.1091L156.968 91.7479L157.163 91.5673L157.562 91.2136L157.961 90.8523L158.157 90.6642L158.556 90.3029C158.686 90.1851 158.827 90.0794 158.977 89.9868C159.129 89.8878 159.29 89.8045 159.459 89.7385C159.629 89.6651 159.805 89.6072 159.985 89.5654C160.176 89.5226 160.37 89.4949 160.565 89.4826C161.119 89.4516 161.675 89.5309 162.198 89.7159C162.742 89.9029 163.251 90.1802 163.703 90.5362C164.167 90.8947 164.569 91.3269 164.892 91.8156C165.235 92.3016 165.49 92.8443 165.645 93.4186C165.733 93.7732 165.779 94.137 165.78 94.5024C165.781 94.8401 165.738 95.1766 165.652 95.5033C165.569 95.8107 165.442 96.1046 165.276 96.3763C165.116 96.6395 164.918 96.8778 164.689 97.0837V97.0837Z" fill="white"/>
<path d="M155.538 88.5193C155.122 88.5453 154.71 88.6032 154.303 88.6924C153.921 88.7858 153.546 88.9091 153.182 89.0612C152.829 89.2064 152.489 89.3827 152.166 89.588C151.847 89.8026 151.548 90.0443 151.271 90.3105L155.191 86.683C155.468 86.4253 155.768 86.1935 156.087 85.9906C156.409 85.7829 156.749 85.6041 157.103 85.4563C157.469 85.3044 157.846 85.1836 158.232 85.095C158.64 85.0022 159.056 84.9442 159.474 84.9219L157.494 86.7432L156.975 87.2173L156.727 87.4506L155.786 88.3161C155.713 88.3951 155.63 88.4635 155.538 88.5193V88.5193Z" fill="#D9CDFE"/>
<path d="M163.921 104.391C164.417 103.957 164.843 103.45 165.185 102.886C165.536 102.314 165.804 101.696 165.983 101.05C166.169 100.366 166.263 99.6594 166.261 98.9502C166.258 98.1888 166.162 97.4307 165.975 96.6924L166.442 96.286L166.939 95.842L167.451 95.3904L167.977 94.9238L168.504 94.4572L169.023 93.9981L169.528 93.5541L169.994 93.1402C170.186 93.8775 170.285 94.636 170.288 95.398C170.29 96.1121 170.196 96.8233 170.009 97.5127C169.832 98.1621 169.564 98.7829 169.212 99.3566C168.869 99.9193 168.442 100.427 167.947 100.862L163.921 104.391Z" fill="#D9CDFE"/>
<path d="M160.692 100.628C160.564 100.744 160.425 100.847 160.278 100.937C160.13 101.031 159.974 101.111 159.812 101.178C159.646 101.246 159.474 101.302 159.3 101.343C159.114 101.383 158.925 101.411 158.735 101.426L162.724 97.8815C162.921 97.8795 163.117 97.8644 163.311 97.8363C163.488 97.7936 163.661 97.7383 163.83 97.6708C163.993 97.6042 164.149 97.5237 164.297 97.4299C164.444 97.34 164.583 97.2367 164.711 97.1214L160.692 100.628Z" fill="#D9CDFE"/>
<path d="M158.735 101.426H158.352H158.163H157.968L159.955 99.6651L160.474 99.1985L160.986 98.747L161.482 98.3029L161.949 97.889H162.145H162.34H162.724L162.498 98.0922L160.466 99.8984L159.202 101.02C159.059 101.133 158.909 101.351 158.735 101.426Z" fill="#D9CDFE"/>
<path d="M153.731 97.5127C153.641 97.1637 153.598 96.8043 153.603 96.444C153.602 96.1137 153.645 95.7848 153.731 95.4657C153.811 95.1642 153.932 94.8755 154.092 94.6077C154.246 94.3448 154.439 94.1063 154.664 93.9003L158.615 90.3029C158.39 90.5104 158.195 90.7485 158.036 91.0104C157.876 91.2808 157.754 91.572 157.674 91.8758C157.589 92.1975 157.546 92.5289 157.546 92.8617C157.548 93.2221 157.593 93.581 157.682 93.9304L153.731 97.5127Z" fill="#D9CDFE"/>
<path d="M157.969 101.396C157.482 101.334 157.009 101.192 156.569 100.975C156.113 100.754 155.692 100.467 155.319 100.124C154.935 99.78 154.603 99.382 154.334 98.9426C154.062 98.4988 153.86 98.0168 153.731 97.5127L155.696 95.7291L157.683 93.9304C157.81 94.4405 158.016 94.9278 158.292 95.3754C158.837 96.2584 159.619 96.9704 160.55 97.4299C160.994 97.6452 161.469 97.7899 161.957 97.8589C160.628 99.043 159.298 100.222 157.969 101.396Z" fill="#D9CDFE"/>
<path d="M167.948 100.884L163.921 104.391C163.656 104.625 163.372 104.837 163.071 105.024C162.443 105.408 161.757 105.688 161.039 105.851C160.658 105.941 160.27 105.999 159.88 106.024C158.722 106.102 157.56 105.945 156.463 105.565C155.333 105.18 154.277 104.604 153.34 103.865C152.375 103.107 151.534 102.203 150.849 101.185C150.153 100.153 149.643 99.0071 149.344 97.7987C149.162 97.0752 149.068 96.3322 149.065 95.5861C149.07 94.8951 149.161 94.2074 149.336 93.5391C149.502 92.9098 149.756 92.3069 150.089 91.7479C150.41 91.191 150.81 90.6839 151.278 90.2427L155.199 86.6153C154.73 87.0548 154.329 87.5621 154.01 88.1204C153.679 88.6832 153.426 89.2883 153.257 89.9191C153.08 90.5921 152.991 91.2853 152.994 91.9812C152.994 92.7424 153.088 93.5006 153.272 94.239C153.571 95.4546 154.08 96.6085 154.778 97.6482C155.463 98.6768 156.309 99.589 157.284 100.35C158.23 101.092 159.293 101.672 160.429 102.066C161.533 102.45 162.702 102.611 163.869 102.54C164.261 102.511 164.651 102.453 165.035 102.367C165.401 102.279 165.761 102.166 166.112 102.028C166.445 101.888 166.767 101.722 167.075 101.532C167.385 101.343 167.677 101.126 167.948 100.884Z" fill="white"/>
<path d="M157.908 78.5851C159.9 78.4868 161.891 78.7782 163.771 79.4431C165.699 80.1277 167.502 81.1244 169.107 82.3932C170.753 83.6896 172.185 85.2361 173.351 86.9765C174.543 88.7378 175.423 90.6902 175.955 92.7488C176.465 94.69 176.595 96.7113 176.339 98.7018C176.103 100.491 175.479 102.207 174.51 103.729C173.571 105.204 172.298 106.437 170.793 107.326C169.172 108.266 167.356 108.817 165.487 108.937C163.475 109.073 161.456 108.804 159.549 108.147C157.58 107.469 155.738 106.467 154.1 105.182C152.415 103.865 150.952 102.287 149.765 100.508C148.561 98.7091 147.678 96.7154 147.154 94.6153C146.652 92.6487 146.547 90.602 146.845 88.5946C147.114 86.8008 147.777 85.0889 148.787 83.5823C149.763 82.1303 151.068 80.9287 152.595 80.0753C154.228 79.1773 156.046 78.6674 157.908 78.5851ZM163.884 102.517C164.967 102.45 166.021 102.133 166.962 101.592C167.836 101.078 168.579 100.367 169.129 99.5146C169.7 98.6332 170.068 97.6357 170.206 96.5946C170.365 95.4405 170.293 94.2663 169.995 93.1402C169.693 91.9397 169.184 90.8012 168.49 89.7761C167.81 88.7611 166.974 87.8595 166.014 87.1044C165.076 86.3659 164.023 85.7863 162.898 85.3885C161.805 85.0003 160.647 84.8315 159.489 84.8918C158.409 84.9447 157.355 85.246 156.411 85.7724C155.524 86.2744 154.769 86.9783 154.206 87.8269C153.627 88.7045 153.249 89.699 153.099 90.7394C152.929 91.899 152.991 93.0807 153.28 94.2164C153.578 95.432 154.088 96.5859 154.785 97.6256C155.471 98.6543 156.317 99.5664 157.291 100.327C158.238 101.069 159.301 101.649 160.437 102.043C161.541 102.427 162.71 102.588 163.876 102.517" fill="#D9CDFE"/>
<path d="M160.625 89.4826C161.179 89.4516 161.734 89.5309 162.258 89.7159C162.802 89.9029 163.311 90.1802 163.763 90.5362C164.227 90.8947 164.629 91.3269 164.952 91.8156C165.295 92.3016 165.55 92.8443 165.705 93.4186C165.844 93.9565 165.877 94.5163 165.803 95.0668C165.734 95.5634 165.557 96.0388 165.283 96.4591C165.022 96.8665 164.665 97.2047 164.245 97.445C163.796 97.7029 163.294 97.8524 162.777 97.8815C162.223 97.9157 161.668 97.8389 161.144 97.6557C160.601 97.4673 160.092 97.1901 159.639 96.8354C159.177 96.4722 158.775 96.0378 158.45 95.5485C158.104 95.0588 157.849 94.5107 157.697 93.9304C157.56 93.3921 157.53 92.8323 157.607 92.2822C157.676 91.7846 157.856 91.3088 158.134 90.8899C158.397 90.4853 158.753 90.1498 159.172 89.9116C159.616 89.656 160.114 89.509 160.625 89.4826V89.4826Z" fill="#D9CDFE"/>
<path d="M159.481 84.8918C160.639 84.8315 161.797 85.0003 162.89 85.3885C164.015 85.7863 165.068 86.3659 166.005 87.1044C166.966 87.8595 167.802 88.7611 168.481 89.7761C169.175 90.8012 169.685 91.9397 169.987 93.1402C170.285 94.2663 170.357 95.4405 170.197 96.5946C170.06 97.6357 169.692 98.6332 169.121 99.5146C168.571 100.367 167.828 101.078 166.954 101.592C166.013 102.133 164.959 102.45 163.876 102.517C162.709 102.588 161.54 102.427 160.436 102.043C159.3 101.649 158.237 101.069 157.291 100.327C156.316 99.5664 155.47 98.6543 154.784 97.6256C154.087 96.5859 153.578 95.432 153.279 94.2164C152.99 93.0807 152.929 91.899 153.099 90.7394C153.249 89.699 153.626 88.7045 154.205 87.8269C154.768 86.9783 155.524 86.2744 156.41 85.7724C157.352 85.2471 158.403 84.9458 159.481 84.8918V84.8918ZM162.724 97.8815C163.241 97.8523 163.743 97.7029 164.192 97.445C164.612 97.2047 164.968 96.8665 165.23 96.4591C165.504 96.0388 165.681 95.5634 165.75 95.0668C165.824 94.5163 165.791 93.9565 165.652 93.4186C165.497 92.8443 165.242 92.3016 164.899 91.8156C164.576 91.3269 164.174 90.8947 163.71 90.5362C163.258 90.1802 162.749 89.9029 162.205 89.7159C161.681 89.5309 161.126 89.4516 160.572 89.4826C160.043 89.5006 159.526 89.6479 159.067 89.9116C158.647 90.1498 158.291 90.4853 158.028 90.8899C157.75 91.3088 157.57 91.7846 157.501 92.2822C157.424 92.8323 157.455 93.3921 157.592 93.9304C157.743 94.5107 157.998 95.0588 158.344 95.5485C158.67 96.0378 159.071 96.4722 159.533 96.8354C159.986 97.1901 160.495 97.4673 161.038 97.6557C161.562 97.8389 162.118 97.9157 162.671 97.8815" fill="white"/>
<path d="M172.343 106.205L168.279 109.675C167.36 110.458 166.32 111.089 165.201 111.541C164.617 111.777 164.016 111.966 163.402 112.105C162.756 112.257 162.099 112.358 161.438 112.406C159.44 112.554 157.434 112.298 155.537 111.654C153.581 110.988 151.751 109.995 150.126 108.719C148.457 107.414 147.007 105.851 145.829 104.09C144.633 102.304 143.756 100.322 143.24 98.2352C142.936 97.0039 142.779 95.7407 142.773 94.4723C142.773 93.2966 142.922 92.1257 143.217 90.9878C143.496 89.916 143.922 88.8878 144.482 87.9323C145.021 87.0042 145.69 86.1578 146.469 85.4187L150.36 81.7536C149.575 82.4935 148.9 83.3426 148.358 84.2747C147.796 85.2376 147.371 86.2734 147.093 87.3528C146.8 88.4961 146.653 89.672 146.657 90.8523C146.66 92.1387 146.819 93.4199 147.131 94.6679C147.655 96.7681 148.538 98.7618 149.742 100.561C150.929 102.34 152.392 103.918 154.077 105.234C155.726 106.503 157.575 107.487 159.549 108.147C161.455 108.804 163.474 109.073 165.487 108.937C166.15 108.891 166.81 108.793 167.458 108.643C168.077 108.502 168.684 108.311 169.272 108.072C169.841 107.845 170.39 107.571 170.913 107.251C171.416 106.941 171.895 106.591 172.343 106.205V106.205Z" fill="#A78AFE"/>
<g opacity="0.5">
<path opacity="0.5" d="M72.4364 48.0452C57.5503 49.6105 42.6114 51.4544 27.9585 54.5776C23.5843 55.4041 19.2814 56.5717 15.0893 58.0696C13.8776 58.5362 10.363 59.62 10.3405 61.3735C10.2878 65.3923 25.3019 65.603 27.5145 65.7686" stroke="white" stroke-width="3" stroke-linecap="round" stroke-linejoin="round"/>
<path opacity="0.5" d="M169.415 56.0677C174.456 55.1882 179.425 53.9304 184.278 52.3048C185.58 51.8307 189.734 50.6491 189.697 48.7075C189.644 46.2465 183.548 45.6971 181.983 45.4036C165.215 42.619 147.522 43.477 130.619 44.0339C116.749 44.493 102.893 45.3434 89.0684 46.5024" stroke="white" stroke-width="3" stroke-linecap="round" stroke-linejoin="round"/>
<path opacity="0.5" d="M174.638 86.5475C179.153 87.0066 181.689 87.5184 181.689 88.0527C181.689 90.0997 145.121 91.7554 100.019 91.7554C54.9161 91.7554 18.3403 90.1073 18.3403 88.0527C18.3403 87.3001 22.9386 86.6454 30.886 86.0734" stroke="white" stroke-width="3" stroke-linecap="round" stroke-linejoin="round"/>
<path opacity="0.5" d="M47.4129 127.819C38.0733 127.067 28.681 126.314 19.4392 124.756C18.2878 124.561 9.1062 123.379 10.7995 121.189C11.6349 120.113 14.8108 119.962 15.9924 119.774C19.6349 119.187 23.3226 118.894 26.9952 118.638" stroke="white" stroke-width="3" stroke-linecap="round" stroke-linejoin="round"/>
<path opacity="0.5" d="M171.123 122.356C176.512 122.434 181.866 123.223 187.048 124.704C187.801 125.456 190.058 125.456 189.306 126.961C188.948 127.42 188.492 127.794 187.971 128.054C187.45 128.315 186.878 128.455 186.296 128.467C144.903 132.982 104.264 129.972 63.9775 128.926" stroke="white" stroke-width="3" stroke-linecap="round" stroke-linejoin="round"/>
</g>
<path d="M33.5879 48.4967C33.5027 48.7182 33.4397 48.9476 33.3997 49.1816C33.3697 49.3862 33.3697 49.5941 33.3997 49.7987C33.4189 49.9673 33.47 50.1308 33.5502 50.2803C33.6257 50.4099 33.7349 50.5166 33.8663 50.5889L29.5239 48.3311C29.3948 48.2583 29.2881 48.1516 29.2153 48.0226C29.1329 47.8739 29.0817 47.71 29.0648 47.5409C29.035 47.3388 29.035 47.1334 29.0648 46.9313C29.1002 46.694 29.1633 46.4616 29.2529 46.2389L33.5803 48.4967L29.2529 46.2389C29.359 45.9747 29.4927 45.7225 29.6518 45.4864C29.7966 45.2741 29.9687 45.0818 30.1636 44.9144C30.3307 44.7658 30.5214 44.6462 30.728 44.5607C30.8996 44.4912 31.0864 44.4679 31.2699 44.4929L35.5973 46.7507C35.4113 46.7257 35.2221 46.749 35.0479 46.8184C34.8439 46.9014 34.6556 47.0185 34.491 47.1646C34.2997 47.333 34.1281 47.5223 33.9792 47.7291C33.819 47.9686 33.6876 48.2263 33.5879 48.4967V48.4967Z" fill="#D9CDFE"/>
<path d="M33.8663 50.5889L29.5239 48.3311H29.5766H29.6293H29.682H29.7346L34.0771 50.5889H34.0169H33.9642H33.9115H33.8663Z" fill="white"/>
<path d="M35.0628 41.2343L39.3827 43.5522L37.9453 47.1872L33.6104 44.8843L35.0628 41.2343Z" fill="#D9CDFE"/>
<path d="M36.139 45.3133L40.4815 47.6237L37.9453 47.1872L33.6104 44.8843L36.139 45.3133Z" fill="white"/>
<path d="M41.3924 41.8062C41.2058 41.7799 41.0156 41.8059 40.843 41.8815C40.635 41.9687 40.4419 42.088 40.271 42.2352C40.0779 42.4044 39.9061 42.5965 39.7592 42.8071C39.5963 43.0409 39.4624 43.2937 39.3604 43.5597L35.0405 41.2418C35.1431 40.9759 35.277 40.7233 35.4394 40.4892C35.5886 40.2781 35.763 40.0861 35.9587 39.9172C36.1237 39.764 36.3149 39.6416 36.5231 39.556C36.6957 39.4804 36.8859 39.4544 37.0725 39.4807L41.3924 41.8062Z" fill="#D9CDFE"/>
<path d="M37.5917 41.6407L41.9266 43.9661L40.4816 47.6237L36.1392 45.3133L37.5917 41.6407Z" fill="white"/>
<path d="M38.5249 45.7197L42.8748 48.0376L40.4816 47.6237L36.1392 45.3133L38.5249 45.7197Z" fill="#D9CDFE"/>
<path d="M38.5248 45.7197C38.6934 45.748 38.8474 45.8329 38.9613 45.9605C39.0825 46.1 39.1655 46.2685 39.2021 46.4497C39.2407 46.6738 39.2407 46.9029 39.2021 47.127C39.1673 47.3978 39.099 47.6632 38.9989 47.9172C38.8907 48.1819 38.7545 48.4342 38.5925 48.6698C38.4428 48.8872 38.2657 49.0845 38.0657 49.2568C37.8947 49.404 37.7017 49.5233 37.4937 49.6105C37.3151 49.6836 37.1201 49.7071 36.9293 49.6783L34.6188 49.2568L32.0977 48.8053L29.7647 48.3913C29.6014 48.3598 29.4532 48.2751 29.3432 48.1505C29.231 48.0072 29.1538 47.8397 29.1174 47.6613C29.0826 47.4394 29.0826 47.2134 29.1174 46.9915C29.1537 46.7332 29.222 46.4804 29.3206 46.2389C29.4267 45.9747 29.5604 45.7225 29.7195 45.4863C29.8643 45.2741 30.0364 45.0818 30.2313 44.9144C30.3983 44.7658 30.5891 44.6462 30.7957 44.5607C30.9673 44.4912 31.1541 44.4679 31.3376 44.4929L33.6706 44.8843L36.1993 45.3133L38.5248 45.7197Z" fill="white"/>
<path d="M33.6104 44.8843L37.9453 47.1872L35.6047 46.7808L31.2773 44.493L33.6104 44.8843Z" fill="white"/>
<path d="M32.0601 48.8053L36.41 51.0856L34.0695 50.6566L29.7271 48.3914L32.0601 48.8053Z" fill="white"/>
<path d="M41.6629 41.889H41.6027H41.5425H41.4823H41.4146L37.0947 39.556H37.1625H37.2227H37.2829H37.3356L41.6629 41.889Z" fill="#D9CDFE"/>
<path d="M32.0604 48.8053L36.4104 51.0856L34.9654 54.7357L30.6079 52.4704L32.0604 48.8053Z" fill="#D9CDFE"/>
<path d="M37.3359 39.556L41.6633 41.889C41.7903 41.962 41.8945 42.0688 41.9643 42.1975C42.0516 42.3419 42.1055 42.5039 42.1224 42.6717C42.1485 42.874 42.1485 43.0789 42.1224 43.2813C42.0814 43.515 42.0184 43.7443 41.9342 43.9661L37.6294 41.6406C37.7207 41.4186 37.7839 41.186 37.8176 40.9483C37.8474 40.7461 37.8474 40.5408 37.8176 40.3387C37.7831 40.1779 37.7193 40.0248 37.6294 39.8871C37.5651 39.751 37.4633 39.6361 37.3359 39.556Z" fill="white"/>
<path d="M35.2434 56.8655L30.8784 54.6077C30.7433 54.5378 30.631 54.4308 30.5548 54.2992C30.4721 54.1447 30.4185 53.9763 30.3967 53.8025C30.3671 53.5953 30.3671 53.385 30.3967 53.1778C30.4322 52.9372 30.4979 52.702 30.5924 52.4779L34.9499 54.7357C34.8577 54.96 34.7944 55.1952 34.7617 55.4356C34.7321 55.6427 34.7321 55.8531 34.7617 56.0602C34.7847 56.2325 34.8409 56.3986 34.9273 56.5494C35.0004 56.6827 35.1101 56.7924 35.2434 56.8655V56.8655Z" fill="#D9CDFE"/>
<path d="M34.5812 49.2568L38.9387 51.5447L36.41 51.0856L32.0601 48.8053L34.5812 49.2568Z" fill="white"/>
<path d="M34.5811 49.2568L38.9386 51.5447L37.4861 55.2173L33.1211 52.9445L34.5811 49.2568Z" fill="white"/>
<path d="M35.2434 56.8655L30.8784 54.6077H30.9236H30.9687H31.0214H31.0741C31.2616 54.6428 31.4553 54.6219 31.631 54.5475C31.8379 54.466 32.029 54.3488 32.1954 54.2013C32.3911 54.0324 32.5655 53.8404 32.7147 53.6294C32.8767 53.3938 33.013 53.1414 33.1211 52.8768L37.4861 55.1345C37.3841 55.4006 37.2502 55.6533 37.0873 55.8871C36.938 56.0981 36.7636 56.2902 36.568 56.4591C36.4005 56.6033 36.2096 56.7178 36.0035 56.7977C35.826 56.8646 35.6344 56.8853 35.4466 56.858H35.3939H35.3413H35.2961L35.2434 56.8655Z" fill="white"/>
<path d="M38.7582 45.7949L43.1082 48.1129H43.0555H43.0028H42.9426H42.8749L38.5249 45.7949H38.5851H38.6453H38.7055H38.7582Z" fill="#D9CDFE"/>
<path d="M36.9592 49.6783L41.3242 51.9737L38.9385 51.5447L34.5811 49.2568L36.9592 49.6783Z" fill="white"/>
<path d="M38.758 45.7949L43.1079 48.1129C43.2419 48.1877 43.3536 48.2968 43.4315 48.429C43.5119 48.5818 43.5653 48.7472 43.5896 48.9182C43.6157 49.123 43.6157 49.3304 43.5896 49.5353C43.5532 49.7724 43.4901 50.0047 43.4014 50.2277C43.295 50.4932 43.1587 50.7456 42.995 50.9802C42.8454 51.1955 42.6683 51.3903 42.4682 51.5597C42.2997 51.7101 42.1061 51.8299 41.8962 51.9135C41.7171 51.9844 41.5219 52.0052 41.3318 51.9737L36.9668 49.7159C37.1576 49.7447 37.3527 49.7213 37.5312 49.6482C37.7392 49.561 37.9323 49.4416 38.1032 49.2945C38.3033 49.1222 38.4803 48.9249 38.63 48.7074C38.792 48.4718 38.9283 48.2195 39.0364 47.9548C39.1251 47.7293 39.1882 47.4946 39.2246 47.2549C39.2542 47.0503 39.2542 46.8425 39.2246 46.6378C39.2003 46.4669 39.1469 46.3014 39.0665 46.1486C39.0015 46.0025 38.894 45.8792 38.758 45.7949V45.7949Z" fill="white"/>
<path d="M40.9933 34.5136L45.3056 36.8768C46.1639 37.3637 46.872 38.077 47.3527 38.9389C47.9064 39.9294 48.2617 41.0184 48.3988 42.1449C48.5666 43.5036 48.5438 44.879 48.331 46.2314C48.094 47.8171 47.6748 49.3702 47.0817 50.8598C46.3731 52.6519 45.4562 54.3544 44.3498 55.9323C43.344 57.3699 42.1578 58.6725 40.8202 59.8081C39.679 60.7933 38.3752 61.5725 36.967 62.111C35.7863 62.5681 34.5024 62.6905 33.2567 62.4647L32.9256 62.3895L32.602 62.2841L32.2934 62.1637C32.188 62.1637 32.0902 62.0734 31.9924 62.0282L27.6123 59.7705L27.9058 59.9059L28.2144 60.0263L28.5305 60.1242L28.8616 60.1994C30.1067 60.4251 31.3901 60.2946 32.5643 59.8231C33.9731 59.279 35.2768 58.4947 36.4176 57.5052C37.7617 56.3599 38.9507 55.0444 39.9547 53.5917C41.0704 52.0091 41.9926 50.2986 42.7017 48.4967C43.3008 46.9997 43.7275 45.4393 43.9735 43.8457C44.1871 42.4886 44.2149 41.1087 44.0563 39.7441C43.9236 38.6126 43.5762 37.5168 43.0328 36.5155C42.5461 35.6764 41.8414 34.9846 40.9933 34.5136V34.5136Z" fill="#A78AFE"/>
<path d="M39.285 33.9567C40.4063 34.1022 41.4418 34.6345 42.2125 35.4619C43.0349 36.3772 43.6009 37.4936 43.8532 38.698C44.1784 40.1804 44.2497 41.7073 44.0639 43.2136C43.8445 45.0415 43.3866 46.8329 42.7017 48.5419C41.9926 50.3437 41.0704 52.0542 39.9548 53.6369C38.9508 55.0895 37.7617 56.4051 36.4176 57.5503C35.2768 58.5399 33.9731 59.3242 32.5644 59.8683C31.3902 60.3398 30.1067 60.4702 28.8616 60.2446C27.7531 60.0242 26.7555 59.4257 26.0394 58.5513C25.2723 57.5828 24.7553 56.4404 24.5343 55.2248C24.2582 53.7502 24.2227 52.2405 24.4289 50.7545C24.6647 48.9881 25.1224 47.2586 25.7911 45.6068C26.4843 43.8732 27.3731 42.2244 28.4402 40.6924C29.4108 39.2838 30.5535 38.002 31.8419 36.8768C32.9548 35.8779 34.2266 35.0716 35.6048 34.4911C36.7624 33.9897 38.0326 33.8053 39.285 33.9567V33.9567ZM36.9595 49.6707C37.1503 49.6995 37.3453 49.6761 37.5239 49.603C37.7319 49.5158 37.9249 49.3964 38.0959 49.2493C38.2959 49.077 38.473 48.8797 38.6227 48.6623C38.7847 48.4267 38.9209 48.1744 39.0291 47.9097C39.1292 47.6557 39.1975 47.3903 39.2323 47.1195C39.2709 46.8954 39.2709 46.6663 39.2323 46.4421C39.1957 46.261 39.1127 46.0925 38.9915 45.953C38.8775 45.8254 38.7236 45.7405 38.555 45.7121L36.1241 45.3133L37.6293 41.6406C37.7253 41.3983 37.7935 41.1458 37.8325 40.8881C37.871 40.6665 37.871 40.4399 37.8325 40.2183C37.7959 40.0393 37.7129 39.8732 37.5916 39.7366C37.4766 39.6118 37.3228 39.5296 37.1551 39.5033C36.9686 39.477 36.7784 39.503 36.6058 39.5786C36.3975 39.6642 36.2063 39.7866 36.0413 39.9398C35.8456 40.1087 35.6713 40.3007 35.522 40.5118C35.3596 40.7459 35.2257 40.9985 35.1232 41.2644L33.6707 44.9144L31.3376 44.5231C31.1542 44.498 30.9674 44.5213 30.7958 44.5908C30.5892 44.6763 30.3984 44.7959 30.2313 44.9445C30.0365 45.1119 29.8644 45.3042 29.7196 45.5165C29.5605 45.7526 29.4268 46.0048 29.3207 46.2691C29.222 46.5105 29.1538 46.7633 29.1175 47.0216C29.0827 47.2436 29.0827 47.4695 29.1175 47.6914C29.1538 47.8698 29.2311 48.0373 29.3433 48.1806C29.4533 48.3052 29.6015 48.3899 29.7647 48.4215L32.0978 48.8354L30.6453 52.508C30.5421 52.7485 30.4713 53.0015 30.4345 53.2606C30.3962 53.4822 30.3962 53.7088 30.4345 53.9304C30.4687 54.1131 30.549 54.2841 30.6678 54.4271C30.7734 54.5584 30.9233 54.6467 31.0893 54.6755C31.2768 54.7105 31.4705 54.6896 31.6462 54.6152C31.8531 54.5337 32.0442 54.4165 32.2106 54.2691C32.4063 54.1002 32.5807 53.9081 32.7299 53.6971C32.8919 53.4615 33.0282 53.2092 33.1363 52.9445L34.6189 49.2568L36.9971 49.6783" fill="#D9CDFE"/>
<path d="M37.0947 39.4732C37.2624 39.4995 37.4162 39.5817 37.5312 39.7065C37.6525 39.8431 37.7355 40.0092 37.7721 40.1881C37.8106 40.4098 37.8106 40.6363 37.7721 40.8579C37.7331 41.1157 37.6649 41.3682 37.5689 41.6105L36.1239 45.3133L33.5952 44.8843L35.0477 41.2342C35.1503 40.9684 35.2842 40.7158 35.4466 40.4817C35.5958 40.2706 35.7702 40.0786 35.9659 39.9097C36.1309 39.7565 36.3221 39.6341 36.5303 39.5484C36.7074 39.4701 36.9033 39.444 37.0947 39.4732Z" fill="white"/>
<path d="M30.6077 52.4779L32.0602 48.8053L34.5814 49.2568L33.1138 52.9445C33.0057 53.2092 32.8694 53.4615 32.7075 53.6971C32.5582 53.9081 32.3838 54.1002 32.1882 54.269C32.0217 54.4165 31.8306 54.5337 31.6237 54.6152C31.448 54.6896 31.2543 54.7105 31.0668 54.6754C30.9008 54.6467 30.7509 54.5584 30.6454 54.4271C30.5266 54.2841 30.4462 54.1131 30.4121 53.9304C30.3737 53.7088 30.3737 53.4822 30.4121 53.2606C30.4413 52.992 30.5072 52.7287 30.6077 52.4779Z" fill="white"/>
<path d="M142.555 9.17406L140.508 13.3509C140.415 13.1306 140.282 12.9291 140.117 12.7564C139.905 12.5385 139.674 12.3419 139.424 12.1694C139.144 11.966 138.847 11.7873 138.536 11.635C138.212 11.4813 137.878 11.3506 137.535 11.2437L139.567 7.07434C139.91 7.1818 140.245 7.31514 140.568 7.47321C140.879 7.62754 141.178 7.80358 141.464 8.00002C141.715 8.17279 141.947 8.37212 142.156 8.59457C142.323 8.76205 142.458 8.95838 142.555 9.17406V9.17406Z" fill="#D9CDFE"/>
<path d="M139.567 7.07433L137.535 11.2437L125.275 7.54846L127.27 3.32645L139.567 7.07433Z" fill="#D9CDFE"/>
<path d="M123.206 7.72156L123.424 7.30012L123.522 7.08939L123.725 6.66794L123.921 6.23897L124.026 6.02824L124.222 5.60679L124.425 5.18535L124.523 4.9671L124.703 4.51554L124.899 4.08657L125.004 3.87584L125.2 3.4544C125.256 3.34757 125.346 3.2627 125.456 3.21357C125.596 3.14872 125.746 3.11044 125.9 3.10068C126.105 3.07541 126.312 3.07541 126.517 3.10068C126.771 3.13819 127.023 3.19351 127.27 3.26625L125.275 7.52589C125.029 7.44957 124.778 7.39418 124.523 7.36032C124.317 7.33864 124.111 7.33864 123.905 7.36032C123.749 7.36915 123.596 7.40746 123.454 7.47321C123.345 7.52515 123.258 7.61281 123.206 7.72156V7.72156Z" fill="#D9CDFE"/>
<path d="M123.206 7.72156L125.2 3.4845V3.57481C125.196 3.60731 125.196 3.64014 125.2 3.67264C125.196 3.71018 125.196 3.74799 125.2 3.78553C125.197 3.8256 125.197 3.86588 125.2 3.90595L123.198 8.15054C123.195 8.11047 123.195 8.07019 123.198 8.03012C123.194 7.99259 123.194 7.95477 123.198 7.91723C123.194 7.88221 123.194 7.84689 123.198 7.81187C123.198 7.78159 123.2 7.75134 123.206 7.72156V7.72156Z" fill="white"/>
<path d="M138.092 9.03106L136.052 13.238L128.7 11.0405L130.724 6.80341L138.092 9.03106Z" fill="white"/>
<path d="M139.597 13.095L137.52 17.3396L136.052 13.238L138.092 9.03107L139.597 13.095Z" fill="white"/>
<path d="M145.181 16.0226L143.082 20.2596L140.508 13.3509L142.555 9.17404L145.181 16.0226Z" fill="#D9CDFE"/>
<path d="M145.189 16.5569L143.089 20.8015C143.105 20.7651 143.117 20.7273 143.126 20.6886C143.13 20.6486 143.13 20.6083 143.126 20.5682C143.133 20.5233 143.133 20.4777 143.126 20.4328C143.129 20.3851 143.129 20.3374 143.126 20.2898L145.226 16.0527C145.226 16.1054 145.226 16.1505 145.271 16.1957C145.275 16.2408 145.275 16.2861 145.271 16.3312C145.275 16.3687 145.275 16.4065 145.271 16.444C145.252 16.4871 145.224 16.5256 145.189 16.5569V16.5569Z" fill="#D9CDFE"/>
<path d="M139.597 13.095L137.52 17.3396L130.077 15.1345L132.139 10.8523L139.597 13.095Z" fill="#D9CDFE"/>
<path d="M132.139 10.8523L130.077 15.1345L128.7 11.0405L130.724 6.80341L132.139 10.8523Z" fill="#D9CDFE"/>
<path d="M145.188 16.5569L143.089 20.8015C143.034 20.9043 142.946 20.9862 142.84 21.0348C142.704 21.1024 142.556 21.1432 142.404 21.1552C142.206 21.1773 142.007 21.1773 141.809 21.1552C141.555 21.1217 141.303 21.0689 141.057 20.9972L143.156 16.7375C143.403 16.8081 143.655 16.861 143.909 16.8956C144.107 16.9172 144.306 16.9172 144.503 16.8956C144.655 16.8859 144.803 16.8476 144.94 16.7827C145.045 16.737 145.133 16.6576 145.188 16.5569V16.5569Z" fill="white"/>
<path d="M139.567 7.07432C139.91 7.18178 140.245 7.31512 140.568 7.47319C140.879 7.62752 141.178 7.80356 141.464 8C141.715 8.17277 141.947 8.3721 142.156 8.59455C142.323 8.76203 142.458 8.95836 142.555 9.17404L145.181 16.0226C145.215 16.1011 145.232 16.1856 145.232 16.2709C145.232 16.3563 145.215 16.4408 145.181 16.5193C145.143 16.5896 145.09 16.6513 145.027 16.7005C144.963 16.7497 144.89 16.7853 144.813 16.8053C144.588 16.87 144.353 16.893 144.12 16.873C143.798 16.8499 143.48 16.7892 143.172 16.6924L130.521 12.9294C130.161 12.8229 129.811 12.6844 129.475 12.5155C129.15 12.357 128.838 12.1733 128.542 11.9661C128.289 11.7836 128.054 11.5769 127.842 11.349C127.673 11.1705 127.54 10.9609 127.45 10.7319L125.193 3.95861C125.158 3.8856 125.141 3.80595 125.141 3.72531C125.141 3.64467 125.158 3.56502 125.193 3.49201C125.287 3.35763 125.43 3.26572 125.591 3.23613C125.823 3.1805 126.062 3.16523 126.299 3.19097C126.618 3.2201 126.934 3.28318 127.24 3.37912L139.567 7.07432ZM139.567 13.095L138.062 9.03105L130.724 6.77329L132.139 10.8222L139.597 13.08" fill="white"/>
<path d="M132.139 10.8523L130.724 6.80341L138.092 9.03106L139.597 13.095L132.139 10.8523Z" fill="#D9CDFE"/>
<path d="M127.465 10.7169L125.411 15.0367L123.198 8.15054L125.2 3.90594L127.465 10.7169Z" fill="white"/>
<path d="M143.187 16.6924L141.087 20.952L128.459 17.2342L130.536 12.9144L143.187 16.6924Z" fill="white"/>
<path d="M130.536 12.9144L128.459 17.2343C128.099 17.1251 127.749 16.9867 127.413 16.8203C127.092 16.6619 126.785 16.4782 126.494 16.271C126.237 16.0946 126.002 15.8873 125.794 15.6538C125.625 15.4772 125.494 15.267 125.411 15.0367L127.465 10.7169C127.555 10.9459 127.687 11.1555 127.857 11.334C128.069 11.5619 128.304 11.7686 128.556 11.9511C128.853 12.1583 129.165 12.342 129.49 12.5005C129.825 12.6694 130.175 12.8079 130.536 12.9144V12.9144Z" fill="white"/>
<path d="M151.27 18.0621L149.147 22.2766C148.796 22.9321 148.245 23.4592 147.575 23.7818C146.709 24.2041 145.772 24.4594 144.813 24.5343C143.542 24.6508 142.262 24.623 140.997 24.4516C139.408 24.2402 137.838 23.9055 136.301 23.4506C133.971 22.766 131.705 21.8822 129.528 20.809C127.442 19.7867 125.445 18.5909 123.559 17.2343C121.912 16.0753 120.397 14.7376 119.044 13.2455C117.99 12.1271 117.185 10.7986 116.681 9.34714C116.604 9.10104 116.546 8.84945 116.508 8.59455C116.471 8.36066 116.456 8.12382 116.463 7.88712C116.471 7.67181 116.498 7.45769 116.545 7.24742C116.591 7.0449 116.66 6.84805 116.749 6.66041L118.735 2.38571C118.65 2.56888 118.584 2.76061 118.54 2.95768C118.495 3.16811 118.47 3.38227 118.464 3.59738C118.458 3.83157 118.473 4.06587 118.51 4.29728C118.551 4.55231 118.611 4.80387 118.69 5.04987C119.24 6.47855 120.083 7.77589 121.166 8.85796C122.522 10.3452 124.036 11.6802 125.682 12.8391C127.588 14.1932 129.601 15.3887 131.702 16.4139C133.882 17.4867 136.148 18.3754 138.476 19.0706C140.014 19.5373 141.587 19.882 143.179 20.1016C144.443 20.2778 145.723 20.3157 146.995 20.2145C147.952 20.1483 148.888 19.9059 149.757 19.4995C150.399 19.1907 150.929 18.6879 151.27 18.0621V18.0621Z" fill="#A78AFE"/>
<path d="M132.049 1.31704C136.338 2.65317 140.398 4.63516 144.09 7.19474C145.693 8.29993 147.183 9.56033 148.538 10.9577C149.633 12.0559 150.521 13.3436 151.157 14.7582C151.396 15.2416 151.533 15.7684 151.562 16.3066C151.59 16.8448 151.509 17.3832 151.323 17.889C151.091 18.3486 150.766 18.7547 150.368 19.0813C149.97 19.4079 149.508 19.6478 149.012 19.7855C147.581 20.223 146.077 20.3764 144.587 20.2371C142.49 20.0809 140.418 19.6896 138.408 19.0706C136.08 18.3754 133.815 17.4867 131.635 16.4139C129.534 15.3887 127.52 14.1932 125.614 12.8391C123.969 11.6802 122.455 10.3452 121.099 8.85796C120.039 7.75054 119.223 6.4326 118.705 4.98966C118.514 4.50285 118.436 3.97909 118.477 3.45772C118.517 2.93634 118.675 2.43089 118.939 1.97932C119.585 1.11304 120.533 0.521886 121.595 0.323625C123.076 -0.0130181 124.603 -0.0969856 126.111 0.0752714C128.127 0.288198 130.116 0.704233 132.049 1.31704V1.31704ZM145.182 16.0226L142.555 9.17405C142.458 8.95837 142.323 8.76204 142.156 8.59456C141.947 8.37211 141.715 8.17278 141.464 8.00001C141.178 7.80357 140.879 7.62753 140.568 7.4732C140.245 7.31513 139.91 7.18179 139.567 7.07433L127.27 3.3114C126.964 3.21545 126.649 3.15238 126.329 3.12325C126.093 3.0975 125.853 3.11278 125.622 3.1684C125.46 3.19799 125.317 3.28991 125.223 3.42428C125.189 3.49729 125.171 3.57694 125.171 3.65759C125.171 3.73823 125.189 3.81788 125.223 3.89089L127.481 10.7018C127.57 10.9308 127.703 11.1404 127.872 11.3189C128.085 11.5468 128.319 11.7535 128.572 11.936C128.868 12.1433 129.18 12.3269 129.505 12.4854C129.841 12.6543 130.191 12.7928 130.551 12.8994L143.202 16.6623C143.51 16.7591 143.828 16.8198 144.15 16.8429C144.383 16.8629 144.618 16.8399 144.843 16.7752C144.921 16.7553 144.993 16.7196 145.057 16.6704C145.12 16.6212 145.173 16.5595 145.212 16.4892C145.245 16.4107 145.262 16.3262 145.262 16.2408C145.262 16.1555 145.245 16.071 145.212 15.9925" fill="#D9CDFE"/>
</g>
<defs>
<linearGradient id="paint0_linear" x1="88.4591" y1="113.272" x2="103.135" y2="155.063" gradientUnits="userSpaceOnUse">
<stop stop-color="#D9CDFE"/>
<stop offset="1" stop-color="#A78AFE"/>
</linearGradient>
<clipPath id="clip0">
<rect width="200.03" height="160" fill="white"/>
</clipPath>
</defs>
</svg>
