<?xml version="1.0" encoding="UTF-8"?>
<svg fill="none" viewBox="0 0 201 160" xmlns="http://www.w3.org/2000/svg">
<g clip-path="url(#u)">
<path d="m200.03 146.19c0 0.257-0.046 0.512-0.135 0.753-1.506 3.875-14.555 7.322-34.514 9.716-17.543 2.084-40.384 3.349-65.362 3.349-8.4292 0-16.617-0.136-24.429-0.414-4.8391-0.158-9.5352-0.377-14.058-0.64-6.1787-0.354-12.041-0.798-17.52-1.31-26.551-2.491-44.011-6.69-44.011-11.454 0-2.107 3.4017-4.102 9.4976-5.885 6.7732-1.987 16.828-3.71 29.215-5.043 0.4515 0 0.8956-0.09 1.3471-0.143 4.6961-0.481 9.7009-0.91 14.984-1.279 5.2832-0.369 10.83-0.677 16.602-0.911 3.3339-0.135 6.7733-0.248 10.22-0.331 2.3732-0.06 4.7714-0.11 7.1947-0.15 3.5974-0.055 7.25-0.083 10.958-0.083h2.393c17.121 0.053 33.182 0.7 47.135 1.806 4.169 0.326 8.135 0.695 11.898 1.107 23.488 2.528 38.585 6.479 38.585 10.912z" fill="url(#t)"/>
<path d="m39.985 107.61 54.713-2.671 64.203 4.515-58.973 4.478-59.944-6.322z" fill="url(#i)"/>
<path d="m99.928 62.186 58.973 4.4704-64.203 4.5155-54.713-2.6716 59.944-6.3143z" fill="url(#h)"/>
<path d="m159.14 104.27-58.988 3.394c0.319-0.02 0.626-0.127 0.888-0.308 0.286-0.202 0.529-0.457 0.715-0.753 0.217-0.352 0.379-0.736 0.482-1.136 0.124-0.454 0.184-0.923 0.18-1.393l59.033-2.792c3e-3 0.394-0.058 0.785-0.18 1.159-0.11 0.339-0.275 0.657-0.49 0.941-0.205 0.262-0.461 0.479-0.752 0.64-0.273 0.149-0.577 0.234-0.888 0.248z" fill="url(#g)"/>
<path d="m102.39 71.594v-0.2935c-0.026-0.2137-0.069-0.425-0.128-0.6322-0.097-0.3932-0.254-0.769-0.466-1.1138-0.187-0.2952-0.43-0.5509-0.715-0.7526-0.046-0.0371-0.097-0.0675-0.151-0.0903-0.064-0.041-0.132-0.0762-0.203-0.1054h-0.105c-0.032-0.0109-0.066-0.0109-0.098 0h-0.264c-0.092-0.0116-0.186-0.0116-0.2781 0l-22.706 1.8213h-0.4365l-3.8081 0.3085-10.378 0.8279-22.578 1.8137c-0.2083 0.0209-0.4027 0.1141-0.5494 0.2634-0.1828 0.1852-0.3307 0.4019-0.4365 0.6397-0.1357 0.2953-0.2343 0.6062-0.2935 0.9257-0.0774 0.3662-0.1153 0.7396-0.1129 1.1138v23.744c-0.0024 0.374 0.0355 0.748 0.1129 1.114 0.0592 0.319 0.1578 0.63 0.2935 0.925 0.1096 0.236 0.257 0.452 0.4365 0.64 0.15 0.146 0.3423 0.241 0.5494 0.271l3.8156 0.309 23.737 1.889 8.572 0.685 0.6623 0.052 12.132 0.971 11.018 0.881c0.093 7e-3 0.186 7e-3 0.278 0h0.113c0.023 5e-3 0.046 5e-3 0.068 0 0.065-0.011 0.128-0.029 0.188-0.053l0.143-0.045c0.04-0.027 0.083-0.05 0.128-0.068 0.319-0.188 0.592-0.445 0.798-0.753 0.025-0.033 0.048-0.068 0.068-0.105 0.055-0.078 0.102-0.162 0.143-0.248 0.05-0.089 0.093-0.183 0.128-0.279 0.037-0.09 0.082-0.188 0.12-0.301 0.03-0.072 0.053-0.148 0.068-0.226 3e-3 -0.02 3e-3 -0.04 0-0.06 0.063-0.212 0.111-0.428 0.143-0.647v-0.301-0.467-32.18c0.015-0.1655 0-0.3236-8e-3 -0.4741zm-5.7721 28.041-4.8467-0.2408v-6.0207l4.8467 0.1053v6.1562z" fill="#fff"/>
<path d="m102.21 116.5c-0.116-0.446-0.293-0.874-0.527-1.271-0.205-0.348-0.476-0.652-0.798-0.896-0.275-0.219-0.606-0.357-0.9556-0.399l-22.976-2.416-5.095-0.542-1.8664-0.195-1.6557-0.181-23.834-2.506-4.5155-0.482c-0.1956-9e-3 -0.3889 0.046-0.5494 0.158-0.1811 0.161-0.3293 0.355-0.4365 0.572-0.1382 0.274-0.237 0.565-0.2935 0.866-0.0787 0.358-0.1165 0.724-0.1129 1.091v23.752c-0.0012 0.379 0.0366 0.757 0.1129 1.129v0.082c0.0622 0.308 0.1555 0.608 0.2785 0.896 0.1096 0.27 0.2565 0.523 0.4365 0.753 0.1415 0.175 0.3331 0.304 0.5494 0.368l0.4064 0.113 1.1063 0.286 32.12 8.52 17.144 4.553 9.174 2.438c0.2312 0.048 0.4692 0.048 0.7002 0h0.128c0.127-0.04 0.248-0.095 0.361-0.165 0.078-0.044 0.153-0.091 0.226-0.143 0.019-0.016 0.037-0.034 0.052-0.053 0.089-0.08 0.172-0.165 0.249-0.256l0.037-0.045c0.087-0.104 0.16-0.217 0.219-0.339 0.083-0.142 0.156-0.291 0.218-0.444 0.064-0.169 0.116-0.343 0.158-0.519 0.046-0.191 0.076-0.384 0.09-0.58 0.031-0.206 0.046-0.415 0.045-0.624v-32.008c2e-3 -0.51-0.064-1.019-0.195-1.513zm-5.592 21.825v6.172l-4.8467-1.122v-6.066l4.8467 1.016z" fill="#fff"/>
<path d="m96.617 138.32v6.186l-4.8542-1.136v-6.051l4.8542 1.001z" fill="url(#f)"/>
<path d="m96.617 93.449v6.1788l-4.8542-0.2333v-6.0508l4.8542 0.1053z" fill="url(#e)"/>
<path d="m96.617 48.58v6.1787l-4.8542 0.6623v-6.0508l4.8542-0.7902z" fill="url(#d)"/>
<path d="m159.62 141.88-58.996 11.289c0.263-0.052 0.509-0.168 0.715-0.339 0.228-0.189 0.42-0.418 0.565-0.677 0.167-0.305 0.291-0.632 0.369-0.971 0.093-0.392 0.139-0.794 0.135-1.196l59.033-10.762c3e-3 0.336-0.043 0.67-0.136 0.993-0.081 0.29-0.211 0.565-0.383 0.813-0.151 0.231-0.345 0.43-0.572 0.587-0.222 0.139-0.471 0.228-0.73 0.263z" fill="url(#c)"/>
<path d="m102.41 118.01 59.033-5.23v26.408l-59.033 10.807v-31.985z" fill="url(#b)"/>
<path d="m99.929 113.93 58.972-4.478c0.35 0.025 0.688 0.133 0.986 0.316 0.315 0.199 0.591 0.454 0.813 0.753 0.235 0.315 0.418 0.666 0.542 1.039 0.137 0.399 0.206 0.819 0.203 1.241l-59.033 5.231c1e-3 -0.508-0.065-1.014-0.195-1.505-0.118-0.449-0.3-0.877-0.542-1.272-0.191-0.344-0.447-0.648-0.753-0.896-0.281-0.239-0.627-0.388-0.9933-0.429z" fill="url(#a)"/>
<path d="m102.41 72.06 59.033 2.7921v26.409l-59.033 2.792v-31.993z" fill="url(#s)"/>
<path d="m100.15 68.44 58.98 3.4017c0.321 0.0171 0.633 0.1099 0.911 0.2709 0.291 0.1605 0.547 0.3781 0.752 0.6397 0.215 0.2868 0.38 0.6072 0.49 0.9483 0.122 0.3713 0.183 0.7603 0.18 1.1514l-59.033-2.7921c4e-3 -0.4701-0.057-0.9386-0.18-1.3923-0.103-0.4009-0.265-0.784-0.482-1.1364-0.186-0.2957-0.429-0.5515-0.715-0.7526-0.265-0.1913-0.577-0.3082-0.903-0.3386z" fill="url(#r)"/>
<path d="m102.41 58.107 59.033 5.2229c3e-3 0.4224-0.066 0.8422-0.203 1.2418-0.124 0.3729-0.307 0.7235-0.542 1.0385-0.219 0.3015-0.495 0.5571-0.813 0.7526-0.298 0.1832-0.636 0.2916-0.986 0.3161l-58.972-4.4703c0.3483-0.0458 0.6783-0.1835 0.9553-0.3989 0.307-0.2502 0.562-0.5567 0.753-0.9031 0.243-0.3945 0.426-0.8232 0.542-1.2719 0.146-0.4964 0.225-1.0103 0.233-1.5277z" fill="url(#q)"/>
<path d="m102.41 26.115 59.033 10.807v26.408l-59.033-5.2229v-31.992z" fill="url(#p)"/>
<path d="m100.63 22.931 58.996 11.289c0.27 0.0431 0.527 0.1459 0.752 0.3011 0.227 0.1568 0.421 0.3561 0.572 0.587 0.173 0.2476 0.302 0.5223 0.384 0.8128 0.093 0.3229 0.139 0.6575 0.136 0.9934l-59.056-10.8c4e-3 -0.4029-0.042-0.8047-0.135-1.1966-0.078-0.3391-0.202-0.6659-0.369-0.9709-0.145-0.2585-0.337-0.4881-0.565-0.6773-0.206-0.1706-0.452-0.287-0.715-0.3387z" fill="url(#o)"/>
<path d="m102.4 25.746v-0.2559c0-0.0903-0.045-0.3612-0.075-0.5268s-0.053-0.1957-0.083-0.2784c-0.027-0.1046-0.06-0.2076-0.098-0.3086-0.057-0.1454-0.125-0.2862-0.203-0.4214-0.036-0.0673-0.079-0.1304-0.128-0.1882-0.026-0.0479-0.056-0.0933-0.09-0.1355v-0.0451l-0.151-0.1581c-0.053-0.0451-0.098-0.0978-0.15-0.1354l-0.128-0.0903c-0.067-0.0502-0.141-0.0908-0.219-0.1204-0.019-0.0055-0.04-0.0055-0.06 0h-0.113c-0.064-0.0187-0.129-0.0337-0.195-0.0452-0.231-0.0485-0.47-0.0485-0.7 0l-11.289 3.0103-10.318 2.6266-30.179 8.0075-8.2182 2.1825c-0.2135 0.0703-0.4035 0.1978-0.5494 0.3688-0.18 0.2292-0.3269 0.4825-0.4365 0.7526-0.1345 0.3139-0.233 0.6421-0.2935 0.9783-0.0767 0.3739-0.1145 0.7547-0.1129 1.1364v23.714c-0.0032 0.3693 0.0347 0.7379 0.1129 1.0988 0.0577 0.3006 0.1565 0.5918 0.2935 0.8655 0.1031 0.2153 0.2521 0.4054 0.4365 0.5569 0.1541 0.1256 0.3516 0.1851 0.5494 0.1656l21.825-2.2578 8.5419-0.9106 8.6547-0.9483 5.4864-0.5795h0.2408l8.6773-0.9031 5.6745-0.6096 0.7903-0.0828c0.3482-0.0395 0.6792-0.1749 0.9562-0.3913 0.318-0.2474 0.588-0.5509 0.797-0.8956 0.068-0.1129 0.128-0.2408 0.188-0.3687 0.061-0.128 0.121-0.2635 0.174-0.3914 0.052-0.1279 0.067-0.1656 0.09-0.2559 0.033-0.0853 0.058-0.1735 0.075-0.2634 0.134-0.4906 0.202-0.9967 0.203-1.5052v-32.022c0.016-0.1224 0.023-0.2455 0.023-0.3688zm-5.78 29.012-4.8466 0.6698v-6.0583l4.8466-0.7526v6.1411z" fill="#fff"/>
<path d="m165.98 96.692c-0.306-1.1897-0.815-2.3176-1.505-3.334-0.675-1.0077-1.506-1.9018-2.461-2.6491-0.927-0.7378-1.973-1.3129-3.093-1.7008-1.085-0.3859-2.237-0.5522-3.387-0.4892l3.944-3.6275c1.158-0.0603 2.316 0.1085 3.409 0.4967 1.125 0.3977 2.178 0.9774 3.116 1.7159 0.96 0.755 1.796 1.6567 2.476 2.6717 0.694 1.025 1.203 2.1635 1.505 3.3641l-4.004 3.5522z" fill="#D9CDFE"/>
<path d="m164.69 97.084-3.996 3.5443c0.231-0.203 0.43-0.442 0.587-0.707 0.168-0.2682 0.295-0.5599 0.376-0.8655 0.092-0.3232 0.137-0.6576 0.136-0.9934-2e-3 -0.3629-0.048-0.7242-0.136-1.0762-0.156-0.5716-0.41-1.1116-0.752-1.5955-0.321-0.4843-0.717-0.9138-1.174-1.2719-0.453-0.3514-0.962-0.6237-1.506-0.8053-0.518-0.1855-1.068-0.2649-1.618-0.2333-0.192 0.0154-0.383 0.0431-0.572 0.0828-0.183 0.0406-0.362 0.0986-0.534 0.1731-0.165 0.0677-0.324 0.1509-0.474 0.2484-0.15 0.0925-0.291 0.1983-0.422 0.3161l0.392-0.3537 0.196-0.1807 0.398-0.3537 0.392-0.3612 0.195-0.1806 0.399-0.3613 0.392-0.3612 0.195-0.1807 0.399-0.3537 0.399-0.3612 0.196-0.1882 0.399-0.3612c0.13-0.1178 0.271-0.2236 0.421-0.3161 0.152-0.0991 0.313-0.1823 0.482-0.2483 0.17-0.0734 0.346-0.1314 0.526-0.1731 0.191-0.0429 0.385-0.0706 0.58-0.0828 0.554-0.031 1.11 0.0483 1.633 0.2333 0.544 0.187 1.053 0.4643 1.505 0.8203 0.464 0.3585 0.866 0.7907 1.189 1.2794 0.343 0.486 0.598 1.0286 0.753 1.603 0.088 0.3546 0.134 0.7184 0.135 1.0837 1e-3 0.3378-0.042 0.6742-0.128 1.001-0.083 0.3073-0.21 0.6013-0.376 0.873-0.16 0.2631-0.358 0.5015-0.587 0.7074z" fill="#fff"/>
<path d="m155.54 88.519c-0.416 0.026-0.828 0.0838-1.235 0.173-0.382 0.0934-0.757 0.2167-1.121 0.3688-0.353 0.1453-0.693 0.3216-1.016 0.5268-0.319 0.2147-0.618 0.4564-0.895 0.7225l3.92-3.6275c0.277-0.2577 0.577-0.4894 0.896-0.6923 0.322-0.2077 0.662-0.3866 1.016-0.5344 0.366-0.1518 0.743-0.2727 1.129-0.3612 0.408-0.0929 0.824-0.1508 1.242-0.1731l-1.98 1.8213-0.519 0.4741-0.248 0.2333-0.941 0.8655c-0.073 0.0789-0.156 0.1473-0.248 0.2032z" fill="#D9CDFE"/>
<path d="m163.92 104.39c0.496-0.434 0.922-0.941 1.264-1.505 0.351-0.572 0.619-1.19 0.798-1.836 0.186-0.684 0.28-1.3907 0.278-2.0999-3e-3 -0.7614-0.099-1.5195-0.286-2.2577l0.467-0.4064 0.497-0.444 0.512-0.4516 0.526-0.4666 0.527-0.4666 0.519-0.4591 0.505-0.444 0.466-0.4139c0.192 0.7373 0.291 1.4958 0.294 2.2577 2e-3 0.7142-0.092 1.4254-0.279 2.1148-0.177 0.6494-0.445 1.2702-0.797 1.8438-0.343 0.5628-0.77 1.0705-1.265 1.5055l-4.026 3.529z" fill="#D9CDFE"/>
<path d="m160.69 100.63c-0.128 0.116-0.267 0.219-0.414 0.309-0.148 0.094-0.304 0.174-0.466 0.241-0.166 0.068-0.338 0.124-0.512 0.165-0.186 0.04-0.375 0.068-0.565 0.083l3.989-3.5446c0.197-2e-3 0.393-0.017 0.587-0.0451 0.177-0.0427 0.35-0.098 0.519-0.1656 0.163-0.0665 0.319-0.1471 0.467-0.2408 0.147-0.09 0.286-0.1932 0.414-0.3086l-4.019 3.5067z" fill="#D9CDFE"/>
<path d="m158.74 101.43h-0.767l1.987-1.7609 0.519-0.4666 0.512-0.4516 0.496-0.444 0.467-0.4139h0.775l-0.226 0.2032-2.032 1.8062-1.264 1.1216c-0.143 0.113-0.293 0.331-0.467 0.406z" fill="#D9CDFE"/>
<path d="m153.73 97.513c-0.09-0.3491-0.133-0.7084-0.128-1.0687-1e-3 -0.3303 0.042-0.6593 0.128-0.9783 0.08-0.3015 0.201-0.5903 0.361-0.858 0.154-0.263 0.347-0.5014 0.572-0.7074l3.951-3.5974c-0.225 0.2075-0.42 0.4456-0.579 0.7074-0.16 0.2704-0.282 0.5617-0.362 0.8655-0.085 0.3216-0.128 0.6531-0.128 0.9859 2e-3 0.3604 0.047 0.7193 0.136 1.0687l-3.951 3.5823z" fill="#D9CDFE"/>
<path d="m157.97 101.4c-0.487-0.062-0.96-0.204-1.4-0.421-0.456-0.221-0.877-0.508-1.25-0.851-0.384-0.3441-0.716-0.742-0.985-1.1814-0.272-0.4439-0.474-0.9259-0.603-1.4299l1.965-1.7837 1.987-1.7986c0.127 0.51 0.333 0.9974 0.609 1.4449 0.545 0.8831 1.327 1.5951 2.258 2.0546 0.444 0.2152 0.919 0.36 1.407 0.429-1.329 1.184-2.659 2.3631-3.988 3.5371z" fill="#D9CDFE"/>
<path d="m167.95 100.88-4.027 3.507c-0.265 0.234-0.549 0.446-0.85 0.632-0.628 0.385-1.314 0.665-2.032 0.828-0.381 0.09-0.768 0.147-1.159 0.173-1.158 0.077-2.32-0.079-3.417-0.459-1.13-0.386-2.186-0.961-3.123-1.701-0.965-0.757-1.806-1.661-2.491-2.679-0.696-1.032-1.206-2.1779-1.505-3.3864-0.182-0.7234-0.276-1.4664-0.279-2.2126 5e-3 -0.6909 0.096-1.3786 0.271-2.047 0.166-0.6292 0.42-1.2321 0.753-1.7911 0.321-0.557 0.721-1.0641 1.189-1.5052l3.921-3.6275c-0.469 0.4395-0.87 0.9469-1.189 1.5052-0.331 0.5627-0.584 1.1678-0.753 1.7987-0.177 0.6729-0.266 1.3661-0.263 2.0621 0 0.7611 0.094 1.5193 0.278 2.2577 0.299 1.2157 0.808 2.3695 1.506 3.4092 0.685 1.0287 1.531 1.9408 2.506 2.7019 0.946 0.742 2.009 1.321 3.145 1.716 1.104 0.384 2.273 0.545 3.44 0.474 0.392-0.029 0.782-0.087 1.166-0.173 0.366-0.088 0.726-0.201 1.077-0.339 0.333-0.14 0.655-0.306 0.963-0.497 0.31-0.188 0.602-0.405 0.873-0.647z" fill="#fff"/>
<path d="m157.91 78.585c1.992-0.0984 3.983 0.1931 5.863 0.858 1.928 0.6846 3.731 1.6812 5.336 2.9501 1.646 1.2963 3.078 2.8429 4.244 4.5833 1.192 1.7613 2.072 3.7136 2.604 5.7723 0.51 1.9412 0.64 3.9624 0.384 5.953-0.236 1.7892-0.86 3.5052-1.829 5.0272-0.939 1.475-2.212 2.708-3.717 3.597-1.621 0.94-3.437 1.491-5.306 1.611-2.012 0.136-4.031-0.133-5.938-0.79-1.969-0.678-3.811-1.68-5.449-2.965-1.685-1.317-3.148-2.895-4.335-4.674-1.204-1.7989-2.087-3.7926-2.611-5.8928-0.502-1.9665-0.607-4.0132-0.309-6.0207 0.269-1.7938 0.932-3.5057 1.942-5.0122 0.976-1.4521 2.281-2.6536 3.808-3.5071 1.633-0.898 3.451-1.4079 5.313-1.4901zm5.976 23.932c1.083-0.067 2.137-0.384 3.078-0.925 0.874-0.514 1.617-1.225 2.167-2.0774 0.571-0.8814 0.939-1.8789 1.077-2.9201 0.159-1.154 0.087-2.3282-0.211-3.4543-0.302-1.2006-0.811-2.3391-1.505-3.3641-0.68-1.015-1.516-1.9167-2.476-2.6717-0.938-0.7385-1.991-1.3182-3.116-1.7159-1.093-0.3882-2.251-0.557-3.409-0.4967-1.08 0.0528-2.134 0.3542-3.078 0.8805-0.887 0.502-1.642 1.2059-2.205 2.0546-0.579 0.8776-0.957 1.8721-1.107 2.9125-0.17 1.1595-0.108 2.3412 0.181 3.477 0.298 1.2156 0.808 2.3695 1.505 3.4092 0.686 1.0286 1.532 1.9408 2.506 2.7014 0.947 0.742 2.01 1.322 3.146 1.716 1.104 0.384 2.273 0.545 3.439 0.474" fill="url(#n)"/>
<path d="m160.62 89.483c0.554-0.031 1.109 0.0483 1.633 0.2333 0.544 0.187 1.053 0.4643 1.505 0.8203 0.464 0.3585 0.866 0.7907 1.189 1.2794 0.343 0.486 0.598 1.0286 0.753 1.603 0.139 0.5379 0.172 1.0976 0.098 1.6482-0.069 0.4966-0.246 0.972-0.52 1.3923-0.261 0.4073-0.618 0.7455-1.038 0.9859-0.449 0.2578-0.951 0.4073-1.468 0.4365-0.554 0.0341-1.109-0.0426-1.633-0.2258-0.543-0.1884-1.052-0.4656-1.505-0.8203-0.462-0.3632-0.864-0.7976-1.189-1.287-0.346-0.4896-0.601-1.0378-0.753-1.618-0.137-0.5383-0.167-1.0982-0.09-1.6482 0.069-0.4977 0.249-0.9735 0.527-1.3923 0.263-0.4046 0.619-0.7402 1.038-0.9783 0.444-0.2556 0.942-0.4026 1.453-0.429z" fill="url(#m)"/>
<path d="m159.48 84.892c1.158-0.0603 2.316 0.1085 3.409 0.4967 1.125 0.3977 2.178 0.9774 3.115 1.7159 0.961 0.755 1.797 1.6567 2.476 2.6717 0.694 1.025 1.204 2.1635 1.506 3.3641 0.298 1.1261 0.37 2.3003 0.21 3.4543-0.137 1.0412-0.505 2.0387-1.076 2.9201-0.55 0.8524-1.293 1.5634-2.167 2.0774-0.941 0.541-1.995 0.858-3.078 0.925-1.167 0.071-2.336-0.09-3.44-0.474-1.136-0.394-2.199-0.974-3.145-1.716-0.975-0.7606-1.821-1.6728-2.507-2.7014-0.697-1.0397-1.206-2.1936-1.505-3.4092-0.289-1.1358-0.35-2.3175-0.18-3.477 0.15-1.0404 0.527-2.0349 1.106-2.9125 0.563-0.8487 1.319-1.5526 2.205-2.0546 0.942-0.5252 1.993-0.8265 3.071-0.8805zm3.243 12.99c0.517-0.0291 1.019-0.1786 1.468-0.4365 0.42-0.2403 0.776-0.5785 1.038-0.9858 0.274-0.4203 0.451-0.8957 0.52-1.3923 0.074-0.5506 0.041-1.1104-0.098-1.6482-0.155-0.5744-0.41-1.117-0.753-1.603-0.323-0.4887-0.725-0.9209-1.189-1.2794-0.452-0.356-0.961-0.6333-1.505-0.8203-0.524-0.185-1.079-0.2643-1.633-0.2333-0.529 0.018-1.046 0.1652-1.505 0.429-0.42 0.2381-0.776 0.5737-1.039 0.9783-0.278 0.4188-0.458 0.8946-0.527 1.3923-0.077 0.55-0.046 1.1099 0.091 1.6482 0.151 0.5802 0.406 1.1284 0.752 1.618 0.326 0.4894 0.727 0.9238 1.189 1.287 0.453 0.3547 0.962 0.6318 1.505 0.8203 0.524 0.1832 1.08 0.2599 1.633 0.2257" fill="#fff"/>
<path d="m172.34 106.2-4.064 3.469c-0.919 0.784-1.959 1.414-3.078 1.867-0.584 0.236-1.185 0.425-1.799 0.564-0.646 0.152-1.303 0.253-1.964 0.301-1.998 0.148-4.004-0.108-5.901-0.752-1.956-0.666-3.786-1.659-5.411-2.935-1.669-1.306-3.119-2.868-4.297-4.629-1.196-1.786-2.073-3.768-2.589-5.8548-0.304-1.2314-0.461-2.4946-0.467-3.763 0-1.1756 0.149-2.3466 0.444-3.4844 0.279-1.0718 0.705-2.1 1.265-3.0556 0.539-0.928 1.208-1.7744 1.987-2.5136l3.891-3.6651c-0.785 0.74-1.46 1.5891-2.002 2.5212-0.562 0.9628-0.987 1.9987-1.265 3.0781-0.293 1.1433-0.44 2.3192-0.436 3.4995 3e-3 1.2864 0.162 2.5676 0.474 3.8156 0.524 2.1002 1.407 4.0939 2.611 5.8931 1.187 1.779 2.65 3.357 4.335 4.673 1.649 1.269 3.498 2.253 5.472 2.913 1.906 0.657 3.925 0.926 5.938 0.79 0.663-0.046 1.323-0.144 1.971-0.294 0.619-0.141 1.226-0.333 1.814-0.572 0.569-0.226 1.118-0.5 1.641-0.82 0.503-0.31 0.982-0.66 1.43-1.046z" fill="#fff"/>
<g opacity=".5" stroke="#fff" stroke-linecap="round" stroke-linejoin="round" stroke-width="3">
<path d="m72.436 48.045c-14.886 1.5654-29.825 3.4093-44.478 6.5325-4.3742 0.8265-8.6771 1.9941-12.869 3.492-1.2117 0.4666-4.7263 1.5503-4.7488 3.3039-0.0527 4.0188 14.961 4.2295 17.174 4.3951" opacity=".5"/>
<path d="m169.42 56.068c5.042-0.8795 10.011-2.1374 14.864-3.7629 1.302-0.4741 5.456-1.6557 5.418-3.5974-0.052-2.4609-6.148-3.0103-7.714-3.3038-16.767-2.7846-34.461-1.9267-51.364-1.3697-13.87 0.459-27.725 1.3095-41.55 2.4684" opacity=".5"/>
<path d="m174.64 86.548c4.515 0.4591 7.051 0.9708 7.051 1.5052 0 2.047-36.568 3.7027-81.67 3.7027-45.103 0-81.679-1.6482-81.679-3.7027 0-0.7526 4.5983-1.4074 12.546-1.9793" opacity=".5"/>
<path d="m47.413 127.82c-9.3396-0.752-18.732-1.505-27.974-3.063-1.1514-0.195-10.333-1.377-8.6397-3.567 0.8354-1.076 4.0113-1.227 5.1929-1.415 3.6425-0.587 7.3302-0.88 11.003-1.136" opacity=".5"/>
<path d="m171.12 122.36c5.389 0.078 10.743 0.867 15.925 2.348 0.753 0.752 3.01 0.752 2.258 2.257-0.358 0.459-0.814 0.833-1.335 1.093-0.521 0.261-1.093 0.401-1.675 0.413-41.393 4.515-82.032 1.505-122.32 0.459" opacity=".5"/>
</g>
<path d="m33.588 48.497c-0.0852 0.2215-0.1482 0.4509-0.1882 0.6849-0.03 0.2046-0.03 0.4125 0 0.6171 0.0192 0.1686 0.0703 0.3321 0.1505 0.4817 0.0755 0.1295 0.1847 0.2362 0.3161 0.3085l-4.3424-2.2577c-0.1291-0.0728-0.2358-0.1795-0.3086-0.3086-0.0824-0.1486-0.1336-0.3125-0.1505-0.4817-0.0298-0.2021-0.0298-0.4074 0-0.6096 0.0354-0.2373 0.0985-0.4697 0.1881-0.6923l4.3274 2.2577-4.3274-2.2577c0.1061-0.2642 0.2398-0.5165 0.3989-0.7526 0.1448-0.2123 0.3169-0.4046 0.5118-0.572 0.1671-0.1486 0.3578-0.2681 0.5644-0.3537 0.1716-0.0695 0.3584-0.0928 0.5419-0.0677l4.3274 2.2577c-0.186-0.025-0.3752-0.0017-0.5494 0.0678-0.204 0.0829-0.3923 0.2-0.5569 0.3461-0.1913 0.1684-0.3629 0.3577-0.5118 0.5645-0.1602 0.2396-0.2916 0.4972-0.3913 0.7676z" fill="#D9CDFE"/>
<path d="m33.866 50.589-4.3424-2.2578h0.2107l4.3425 2.2578h-0.2108z" fill="#fff"/>
<path d="m35.063 41.234 4.3199 2.3179-1.4374 3.635-4.3349-2.3029 1.4524-3.65z" fill="#D9CDFE"/>
<path d="m36.139 45.313 4.3425 2.3104-2.5362-0.4365-4.3349-2.3029 2.5286 0.429z" fill="#fff"/>
<path d="m41.392 41.806c-0.1866-0.0263-0.3768-2e-4 -0.5494 0.0753-0.208 0.0872-0.4011 0.2066-0.572 0.3537-0.1931 0.1693-0.3649 0.3613-0.5118 0.572-0.1629 0.2338-0.2968 0.4865-0.3988 0.7526l-4.3199-2.318c0.1026-0.2658 0.2365-0.5185 0.3989-0.7526 0.1492-0.211 0.3236-0.4031 0.5193-0.572 0.165-0.1532 0.3562-0.2755 0.5644-0.3612 0.1726-0.0755 0.3628-0.1016 0.5494-0.0753l4.3199 2.3255z" fill="#D9CDFE"/>
<path d="m37.592 41.641 4.3349 2.3254-1.445 3.6576-4.3424-2.3104 1.4525-3.6726z" fill="#fff"/>
<path d="m38.525 45.72 4.3499 2.3179-2.3932-0.4139-4.3424-2.3104 2.3857 0.4064z" fill="#D9CDFE"/>
<path d="m38.525 45.72c0.1686 0.0283 0.3226 0.1133 0.4365 0.2408 0.1212 0.1395 0.2042 0.3081 0.2408 0.4892 0.0386 0.2241 0.0386 0.4532 0 0.6773-0.0348 0.2708-0.1031 0.5362-0.2032 0.7902-0.1082 0.2647-0.2444 0.517-0.4064 0.7526-0.1497 0.2175-0.3268 0.4148-0.5268 0.587-0.171 0.1472-0.364 0.2666-0.572 0.3538-0.1786 0.0731-0.3736 0.0965-0.5644 0.0677l-2.3105-0.4215-2.5211-0.4515-2.333-0.4139c-0.1633-0.0316-0.3115-0.1162-0.4215-0.2409-0.1122-0.1433-0.1894-0.3108-0.2258-0.4891-0.0348-0.2219-0.0348-0.4479 0-0.6698 0.0363-0.2584 0.1046-0.5112 0.2032-0.7526 0.1061-0.2642 0.2398-0.5165 0.3989-0.7526 0.1448-0.2123 0.3169-0.4045 0.5118-0.572 0.167-0.1486 0.3578-0.2681 0.5644-0.3537 0.1716-0.0695 0.3584-0.0928 0.5419-0.0677l2.333 0.3913 2.5287 0.429 2.3255 0.4064z" fill="#fff"/>
<path d="m33.61 44.884 4.3349 2.3029-2.3406-0.4064-4.3274-2.2878 2.3331 0.3913z" fill="#fff"/>
<path d="m32.06 48.805 4.3499 2.2803-2.3405-0.429-4.3424-2.2652 2.333 0.4139z" fill="#fff"/>
<path d="m41.663 41.889h-0.2483l-4.3199-2.333h0.2409l4.3273 2.333z" fill="#D9CDFE"/>
<path d="m32.06 48.805 4.35 2.2803-1.445 3.6501-4.3575-2.2653 1.4525-3.6651z" fill="#D9CDFE"/>
<path d="m37.336 39.556 4.3274 2.333c0.127 0.073 0.2312 0.1798 0.301 0.3086 0.0873 0.1443 0.1412 0.3063 0.1581 0.4741 0.0261 0.2024 0.0261 0.4072 0 0.6096-0.041 0.2337-0.104 0.463-0.1882 0.6849l-4.3048-2.3255c0.0913-0.2221 0.1545-0.4547 0.1882-0.6924 0.0298-0.2021 0.0298-0.4075 0-0.6096-0.0345-0.1608-0.0983-0.3139-0.1882-0.4516-0.0643-0.136-0.1661-0.2509-0.2935-0.3311z" fill="#fff"/>
<path d="m35.243 56.866-4.365-2.2578c-0.1351-0.0699-0.2474-0.1769-0.3236-0.3085-0.0827-0.1545-0.1363-0.3229-0.1581-0.4967-0.0296-0.2072-0.0296-0.4175 0-0.6247 0.0355-0.2406 0.1012-0.4758 0.1957-0.6999l4.3575 2.2578c-0.0922 0.2243-0.1555 0.4595-0.1882 0.6999-0.0296 0.2071-0.0296 0.4175 0 0.6246 0.023 0.1723 0.0792 0.3384 0.1656 0.4892 0.0731 0.1333 0.1828 0.243 0.3161 0.3161z" fill="#D9CDFE"/>
<path d="m34.581 49.257 4.3575 2.2879-2.5287-0.4591-4.3499-2.2803 2.5211 0.4515z" fill="#fff"/>
<path d="m34.581 49.257 4.3575 2.2879-1.4525 3.6726-4.365-2.2728 1.46-3.6877z" fill="#fff"/>
<path d="m35.243 56.866-4.365-2.2578h0.1957c0.1875 0.0351 0.3812 0.0142 0.5569-0.0602 0.2069-0.0815 0.398-0.1987 0.5644-0.3462 0.1957-0.1689 0.3701-0.3609 0.5193-0.5719 0.162-0.2356 0.2983-0.488 0.4064-0.7526l4.365 2.2577c-0.102 0.2661-0.2359 0.5188-0.3988 0.7526-0.1493 0.211-0.3236 0.4031-0.5193 0.572-0.1675 0.1442-0.3584 0.2587-0.5645 0.3386-0.1775 0.0669-0.3691 0.0876-0.5569 0.0603h-0.1505l-0.0527 0.0075z" fill="#fff"/>
<path d="m38.758 45.795 4.35 2.318h-0.2333l-4.35-2.318h0.2333z" fill="#D9CDFE"/>
<path d="m36.959 49.678 4.365 2.2954-2.3857-0.429-4.3574-2.2879 2.3781 0.4215z" fill="#fff"/>
<path d="m38.758 45.795 4.3499 2.318c0.134 0.0748 0.2457 0.1839 0.3236 0.3161 0.0804 0.1528 0.1338 0.3182 0.1581 0.4892 0.0261 0.2048 0.0261 0.4122 0 0.6171-0.0364 0.2371-0.0995 0.4694-0.1882 0.6924-0.1064 0.2654-0.2427 0.5179-0.4064 0.7525-0.1496 0.2153-0.3267 0.4101-0.5268 0.5795-0.1685 0.1504-0.3621 0.2702-0.572 0.3538-0.1791 0.0709-0.3743 0.0917-0.5644 0.0602l-4.365-2.2578c0.1908 0.0288 0.3859 0.0054 0.5644-0.0677 0.208-0.0872 0.4011-0.2066 0.572-0.3537 0.2001-0.1723 0.3771-0.3696 0.5268-0.5871 0.162-0.2356 0.2983-0.4879 0.4064-0.7526 0.0887-0.2255 0.1518-0.4602 0.1882-0.6999 0.0296-0.2046 0.0296-0.4124 0-0.6171-0.0243-0.1709-0.0777-0.3364-0.1581-0.4892-0.065-0.1461-0.1725-0.2694-0.3085-0.3537z" fill="#fff"/>
<path d="m40.993 34.514 4.3123 2.3632c0.8583 0.4869 1.5664 1.2002 2.0471 2.0621 0.5537 0.9905 0.909 2.0795 1.0461 3.206 0.1678 1.3587 0.145 2.7341-0.0678 4.0865-0.237 1.5857-0.6562 3.1388-1.2493 4.6284-0.7086 1.7921-1.6255 3.4946-2.7319 5.0725-1.0058 1.4376-2.192 2.7402-3.5296 3.8758-1.1412 0.9852-2.445 1.7644-3.8532 2.3029-1.1807 0.4571-2.4646 0.5795-3.7103 0.3537l-0.3311-0.0752-0.3236-0.1054-0.3086-0.1204c-0.1054 0-0.2032-0.0903-0.301-0.1355l-4.3801-2.2577 0.2935 0.1354 0.3086 0.1204 0.3161 0.0979 0.3311 0.0752c1.2451 0.2257 2.5285 0.0952 3.7027-0.3763 1.4088-0.5441 2.7125-1.3284 3.8533-2.3179 1.3441-1.1453 2.5331-2.4608 3.5371-3.9135 1.1157-1.5826 2.0379-3.2931 2.747-5.095 0.5991-1.497 1.0258-3.0574 1.2718-4.651 0.2136-1.3571 0.2414-2.737 0.0828-4.1016-0.1327-1.1315-0.4801-2.2273-1.0235-3.2286-0.4867-0.8391-1.1914-1.5309-2.0395-2.0019z" fill="#fff"/>
<path d="m39.285 33.957c1.1213 0.1455 2.1568 0.6778 2.9275 1.5052 0.8224 0.9153 1.3884 2.0317 1.6407 3.2361 0.3252 1.4824 0.3965 3.0093 0.2107 4.5156-0.2194 1.8279-0.6773 3.6193-1.3622 5.3283-0.7091 1.8018-1.6313 3.5123-2.7469 5.095-1.004 1.4526-2.1931 2.7682-3.5372 3.9134-1.1408 0.9896-2.4445 1.7739-3.8532 2.318-1.1742 0.4715-2.4577 0.6019-3.7028 0.3763-1.1085-0.2204-2.1061-0.8189-2.8222-1.6933-0.7671-0.9685-1.2841-2.1109-1.5051-3.3265-0.2761-1.4746-0.3116-2.9843-0.1054-4.4703 0.2358-1.7664 0.6935-3.4959 1.3622-5.1477 0.6932-1.7336 1.582-3.3824 2.6491-4.9144 0.9706-1.4086 2.1133-2.6904 3.4017-3.8156 1.1129-0.9989 2.3847-1.8052 3.7629-2.3857 1.1576-0.5014 2.4278-0.6858 3.6802-0.5344zm-2.3255 15.714c0.1908 0.0287 0.3858 0.0053 0.5644-0.0678 0.208-0.0872 0.401-0.2065 0.572-0.3537 0.2-0.1723 0.3771-0.3696 0.5268-0.587 0.162-0.2356 0.2982-0.4879 0.4064-0.7526 0.1001-0.254 0.1684-0.5194 0.2032-0.7902 0.0386-0.2241 0.0386-0.4532 0-0.6773-0.0366-0.1812-0.1196-0.3497-0.2408-0.4892-0.114-0.1276-0.2679-0.2125-0.4365-0.2409l-2.4309-0.3988 1.5052-3.6727c0.096-0.2423 0.1642-0.4948 0.2032-0.7525 0.0385-0.2216 0.0385-0.4482 0-0.6698-0.0366-0.179-0.1196-0.3451-0.2409-0.4817-0.115-0.1248-0.2688-0.207-0.4365-0.2333-0.1865-0.0263-0.3767-3e-4 -0.5493 0.0753-0.2083 0.0856-0.3995 0.208-0.5645 0.3612-0.1957 0.1689-0.37 0.3609-0.5193 0.572-0.1624 0.2341-0.2963 0.4867-0.3988 0.7526l-1.4525 3.65-2.3331-0.3913c-0.1834-0.0251-0.3702-0.0018-0.5418 0.0677-0.2066 0.0855-0.3974 0.2051-0.5645 0.3537-0.1948 0.1674-0.3669 0.3597-0.5117 0.572-0.1591 0.2361-0.2928 0.4883-0.3989 0.7526-0.0987 0.2414-0.1669 0.4942-0.2032 0.7525-0.0348 0.222-0.0348 0.4479 0 0.6698 0.0363 0.1784 0.1136 0.3459 0.2258 0.4892 0.11 0.1246 0.2582 0.2093 0.4214 0.2409l2.3331 0.4139-1.4525 3.6726c-0.1032 0.2405-0.174 0.4935-0.2108 0.7526-0.0383 0.2216-0.0383 0.4482 0 0.6698 0.0342 0.1827 0.1145 0.3537 0.2333 0.4967 0.1056 0.1313 0.2555 0.2196 0.4215 0.2484 0.1875 0.035 0.3812 0.0141 0.5569-0.0603 0.2069-0.0815 0.398-0.1987 0.5644-0.3461 0.1957-0.1689 0.3701-0.361 0.5193-0.572 0.162-0.2356 0.2983-0.4879 0.4064-0.7526l1.4826-3.6877 2.3782 0.4215" fill="url(#l)"/>
<path d="m37.095 39.473c0.1677 0.0263 0.3215 0.1085 0.4365 0.2333 0.1213 0.1366 0.2043 0.3027 0.2409 0.4816 0.0385 0.2216 0.0385 0.4482 0 0.6698-0.039 0.2578-0.1072 0.5103-0.2032 0.7526l-1.445 3.7028-2.5287-0.429 1.4525-3.6501c0.1026-0.2658 0.2365-0.5184 0.3989-0.7526 0.1492-0.211 0.3236-0.403 0.5193-0.5719 0.165-0.1532 0.3562-0.2756 0.5644-0.3613 0.1771-0.0783 0.373-0.1044 0.5644-0.0752z" fill="#fff"/>
<path d="m30.608 52.478 1.4525-3.6726 2.5212 0.4515-1.4675 3.6877c-0.1082 0.2647-0.2444 0.517-0.4064 0.7526-0.1493 0.211-0.3237 0.4031-0.5193 0.572-0.1665 0.1474-0.3576 0.2646-0.5645 0.3461-0.1757 0.0744-0.3694 0.0953-0.5569 0.0602-0.166-0.0287-0.3159-0.117-0.4214-0.2483-0.1188-0.143-0.1992-0.314-0.2333-0.4967-0.0384-0.2216-0.0384-0.4482 0-0.6698 0.0292-0.2686 0.0951-0.5319 0.1956-0.7827z" fill="#fff"/>
<path d="m142.56 9.1741-2.047 4.1768c-0.093-0.2203-0.225-0.4218-0.391-0.5945-0.211-0.2179-0.443-0.4145-0.692-0.587-0.28-0.2034-0.578-0.3821-0.888-0.5344-0.324-0.1537-0.659-0.2844-1.001-0.3913l2.032-4.1694c0.343 0.10746 0.677 0.2408 1.001 0.39887 0.31 0.15433 0.609 0.33037 0.895 0.52681 0.252 0.17277 0.484 0.3721 0.693 0.59455 0.166 0.16748 0.302 0.36381 0.398 0.57949z" fill="#D9CDFE"/>
<path d="m139.57 7.0743-2.031 4.1694-12.26-3.6952 1.994-4.222 12.297 3.7479z" fill="#D9CDFE"/>
<path d="m123.21 7.7216 0.218-0.42144 0.098-0.21073 0.203-0.42145 0.196-0.42897 0.105-0.21073 0.196-0.42145 0.203-0.42144 0.098-0.21825 0.181-0.45156 0.195-0.42897 0.106-0.21073 0.195-0.42144c0.056-0.10683 0.146-0.1917 0.256-0.24083 0.14-0.06485 0.291-0.10313 0.444-0.11289 0.205-0.02527 0.413-0.02527 0.617 0 0.255 0.03751 0.506 0.09283 0.753 0.16557l-1.994 4.2596c-0.246-0.07632-0.498-0.13171-0.753-0.16557-0.205-0.02168-0.412-0.02168-0.617 0-0.156 0.00883-0.31 0.04714-0.452 0.11289-0.108 0.05194-0.196 0.1396-0.248 0.24835z" fill="#D9CDFE"/>
<path d="m123.21 7.7215 1.994-4.2371v0.09031c-3e-3 0.0325-3e-3 0.06533 0 0.09783-3e-3 0.03754-3e-3 0.07535 0 0.11289-3e-3 0.04007-3e-3 0.08035 0 0.12042l-2.001 4.2446c-4e-3 -0.04007-4e-3 -0.08035 0-0.12042-4e-3 -0.03754-4e-3 -0.07535 0-0.11289-4e-3 -0.03502-4e-3 -0.07034 0-0.10536-1e-3 -0.03028 2e-3 -0.06053 7e-3 -0.09031z" fill="#fff"/>
<path d="m138.09 9.0311-2.039 4.2069-7.353-2.1975 2.025-4.2371 7.367 2.2276z" fill="#fff"/>
<path d="m139.6 13.095-2.077 4.2446-1.467-4.1016 2.039-4.207 1.505 4.064z" fill="#fff"/>
<path d="m145.18 16.023-2.099 4.237-2.574-6.9087 2.047-4.1769 2.626 6.8486z" fill="#D9CDFE"/>
<path d="m145.19 16.557-2.1 4.2446c0.016-0.0364 0.028-0.0742 0.037-0.1129 4e-3 -0.04 4e-3 -0.0803 0-0.1204 7e-3 -0.0449 7e-3 -0.0905 0-0.1354 3e-3 -0.0477 3e-3 -0.0954 0-0.143l2.1-4.2371c0 0.0527 0 0.0978 0.045 0.143 4e-3 0.0451 4e-3 0.0904 0 0.1355 4e-3 0.0375 4e-3 0.0753 0 0.1128-0.019 0.0431-0.047 0.0816-0.082 0.1129z" fill="#D9CDFE"/>
<path d="m139.6 13.095-2.077 4.2446-7.443-2.2051 2.062-4.2822 7.458 2.2427z" fill="#D9CDFE"/>
<path d="m132.14 10.852-2.063 4.2822-1.377-4.094 2.025-4.2371 1.415 4.0489z" fill="#D9CDFE"/>
<path d="m145.19 16.557-2.099 4.2446c-0.055 0.1028-0.143 0.1847-0.249 0.2333-0.136 0.0676-0.284 0.1084-0.436 0.1204-0.198 0.0221-0.397 0.0221-0.595 0-0.254-0.0335-0.506-0.0863-0.752-0.158l2.099-4.2597c0.247 0.0706 0.499 0.1235 0.753 0.1581 0.198 0.0216 0.397 0.0216 0.594 0 0.152-0.0097 0.3-0.048 0.437-0.1129 0.105-0.0457 0.193-0.1251 0.248-0.2258z" fill="#fff"/>
<path d="m139.57 7.0743c0.343 0.10746 0.677 0.2408 1 0.39887 0.311 0.15433 0.61 0.33037 0.896 0.52681 0.251 0.17277 0.484 0.3721 0.692 0.59455 0.167 0.16748 0.302 0.36381 0.399 0.57949l2.627 6.8486c0.033 0.0785 0.051 0.163 0.051 0.2483 0 0.0854-0.018 0.1699-0.051 0.2484-0.039 0.0703-0.092 0.132-0.155 0.1812s-0.136 0.0848-0.214 0.1048c-0.225 0.0647-0.459 0.0877-0.692 0.0677-0.322-0.0231-0.641-0.0838-0.949-0.1806l-12.651-3.763c-0.36-0.1065-0.71-0.245-1.046-0.4139-0.325-0.1585-0.637-0.3422-0.933-0.5494-0.253-0.1825-0.487-0.3892-0.7-0.6171-0.169-0.1785-0.302-0.3881-0.391-0.6171l-2.258-6.7733c-0.034-0.07301-0.052-0.15266-0.052-0.2333s0.018-0.16029 0.052-0.2333c0.094-0.13438 0.238-0.22629 0.399-0.25588 0.231-0.05563 0.471-0.0709 0.707-0.04516 0.32 0.02913 0.635 0.09221 0.941 0.18815l12.328 3.6952zm0 6.0207-1.506-4.064-7.337-2.2578 1.414 4.0489 7.459 2.2578" fill="#fff"/>
<path d="m132.14 10.852-1.414-4.0489 7.367 2.2276 1.506 4.0639-7.459-2.2427z" fill="url(#k)"/>
<path d="m127.47 10.717-2.055 4.3198-2.212-6.8862 2.002-4.2446 2.265 6.811z" fill="#fff"/>
<path d="m143.19 16.692-2.1 4.2597-12.629-3.7178 2.078-4.3199 12.651 3.778z" fill="#fff"/>
<path d="m130.54 12.914-2.077 4.3199c-0.359-0.1092-0.709-0.2476-1.046-0.414-0.32-0.1584-0.627-0.3421-0.918-0.5493-0.258-0.1764-0.493-0.3837-0.7-0.6172-0.17-0.1766-0.3-0.3868-0.384-0.6171l2.055-4.3198c0.089 0.229 0.222 0.4386 0.391 0.6171 0.213 0.2279 0.447 0.4346 0.7 0.6171 0.296 0.2072 0.608 0.3909 0.933 0.5494 0.336 0.1689 0.686 0.3074 1.046 0.4139z" fill="#fff"/>
<path d="m151.27 18.062-2.122 4.2145c-0.352 0.6555-0.903 1.1826-1.573 1.5052-0.865 0.4223-1.802 0.6776-2.762 0.7525-1.271 0.1165-2.551 0.0887-3.816-0.0827-1.589-0.2114-3.159-0.5461-4.696-1.001-2.329-0.6846-4.595-1.5684-6.773-2.6416-2.086-1.0223-4.082-2.2181-5.968-3.5747-1.648-1.159-3.162-2.4967-4.516-3.9888-1.053-1.1184-1.858-2.4469-2.363-3.8984-0.076-0.2461-0.134-0.49769-0.173-0.75259-0.037-0.23389-0.052-0.47073-0.045-0.70743 8e-3 -0.21531 0.036-0.42943 0.083-0.6397 0.046-0.20252 0.114-0.39937 0.203-0.58701l1.987-4.2747c-0.085 0.18317-0.151 0.3749-0.196 0.57197-0.045 0.21043-0.07 0.42459-0.075 0.6397-7e-3 0.23419 9e-3 0.46849 0.045 0.6999 0.041 0.25503 0.102 0.50659 0.181 0.75259 0.549 1.4287 1.393 2.726 2.476 3.8081 1.356 1.4872 2.87 2.8222 4.515 3.9811 1.906 1.3541 3.92 2.5496 6.021 3.5748 2.18 1.0728 4.445 1.9615 6.773 2.6567 1.539 0.4667 3.111 0.8114 4.704 1.031 1.264 0.1762 2.543 0.2141 3.816 0.1129 0.956-0.0662 1.893-0.3086 2.762-0.715 0.642-0.3088 1.171-0.8116 1.512-1.4374z" fill="#fff"/>
<path d="m132.05 1.317c4.289 1.3361 8.35 3.3181 12.042 5.8777 1.602 1.1052 3.092 2.3656 4.448 3.763 1.095 1.0982 1.982 2.3859 2.619 3.8005 0.238 0.4834 0.376 1.0102 0.404 1.5484 0.029 0.5382-0.053 1.0766-0.239 1.5824-0.232 0.4596-0.557 0.8657-0.955 1.1923s-0.859 0.5665-1.355 0.7042c-1.432 0.4375-2.935 0.5909-4.426 0.4516-2.096-0.1562-4.169-0.5475-6.178-1.1665-2.328-0.6952-4.594-1.5839-6.774-2.6567-2.101-1.0252-4.114-2.2207-6.02-3.5748-1.646-1.1589-3.16-2.4939-4.516-3.9811-1.06-1.1074-1.875-2.4254-2.393-3.8683-0.191-0.48681-0.269-1.0106-0.229-1.5319 0.041-0.52138 0.199-1.0268 0.462-1.4784 0.646-0.86628 1.595-1.4574 2.657-1.6557 1.48-0.33664 3.007-0.42061 4.515-0.24835 2.017 0.21293 4.006 0.62896 5.938 1.2418zm13.133 14.706-2.627-6.8486c-0.096-0.21568-0.232-0.41201-0.398-0.57949-0.209-0.22245-0.441-0.42178-0.693-0.59455-0.286-0.19644-0.585-0.37248-0.895-0.52681-0.323-0.15807-0.658-0.29141-1.001-0.39887l-12.298-3.7629c-0.306-0.09595-0.621-0.15902-0.94-0.18815-0.237-0.02575-0.476-0.01047-0.708 0.04515-0.161 0.02959-0.304 0.12151-0.399 0.25588-0.034 0.07301-0.052 0.15266-0.052 0.23331 0 0.08064 0.018 0.16029 0.052 0.2333l2.258 6.8109c0.09 0.229 0.222 0.4386 0.391 0.6171 0.213 0.2279 0.448 0.4346 0.7 0.6171 0.297 0.2073 0.609 0.3909 0.934 0.5494 0.335 0.1689 0.685 0.3074 1.046 0.414l12.651 3.7629c0.308 0.0968 0.626 0.1575 0.948 0.1806 0.233 0.02 0.468-3e-3 0.692-0.0677 0.078-0.0199 0.151-0.0556 0.214-0.1048 0.064-0.0492 0.116-0.1109 0.155-0.1812 0.034-0.0785 0.051-0.163 0.051-0.2484 0-0.0853-0.017-0.1698-0.051-0.2483" fill="url(#j)"/>
</g>
<defs>
<linearGradient id="t" x1="27.537" x2="157.87" y1="127.38" y2="161.2" gradientUnits="userSpaceOnUse">
<stop stop-color="#D34255" offset="0"/>
<stop stop-color="#97358A" offset="1"/>
</linearGradient>
<linearGradient id="i" x1="46.751" x2="134.16" y1="42.318" y2="152.17" gradientUnits="userSpaceOnUse">
<stop stop-color="#4C58CB" offset="0"/>
<stop stop-color="#68319E" offset="1"/>
</linearGradient>
<linearGradient id="h" x1="10580" x2="10708" y1="377.86" y2="2512.3" gradientUnits="userSpaceOnUse">
<stop stop-color="#4C58CB" offset="0"/>
<stop stop-color="#68319E" offset="1"/>
</linearGradient>
<linearGradient id="g" x1="5633.6" x2="5758.7" y1="317.18" y2="1828.1" gradientUnits="userSpaceOnUse">
<stop stop-color="#4C58CB" offset="0"/>
<stop stop-color="#68319E" offset="1"/>
</linearGradient>
<linearGradient id="f" x1="622.86" x2="793.23" y1="537.5" y2="1498.3" gradientUnits="userSpaceOnUse">
<stop stop-color="#D34255" offset="0"/>
<stop stop-color="#97358A" offset="1"/>
</linearGradient>
<linearGradient id="e" x1="656.69" x2="787.88" y1="437.96" y2="1284.1" gradientUnits="userSpaceOnUse">
<stop stop-color="#D34255" offset="0"/>
<stop stop-color="#97358A" offset="1"/>
</linearGradient>
<linearGradient id="d" x1="690.53" x2="845.33" y1="418.06" y2="1335.2" gradientUnits="userSpaceOnUse">
<stop stop-color="#D34255" offset="0"/>
<stop stop-color="#97358A" offset="1"/>
</linearGradient>
<linearGradient id="c" x1="3959.4" x2="4546.5" y1="908.6" y2="4125.9" gradientUnits="userSpaceOnUse">
<stop stop-color="#4C58CB" offset="0"/>
<stop stop-color="#68319E" offset="1"/>
</linearGradient>
<linearGradient id="b" x1="4456.1" x2="8011.8" y1="1860.8" y2="8948.7" gradientUnits="userSpaceOnUse">
<stop stop-color="#4C58CB" offset="0"/>
<stop stop-color="#68319E" offset="1"/>
</linearGradient>
<linearGradient id="a" x1="5300.5" x2="5524.8" y1="438.82" y2="2459.2" gradientUnits="userSpaceOnUse">
<stop stop-color="#4C58CB" offset="0"/>
<stop stop-color="#68319E" offset="1"/>
</linearGradient>
<linearGradient id="s" x1="6058.8" x2="8832.1" y1="883.71" y2="7314.3" gradientUnits="userSpaceOnUse">
<stop stop-color="#4C58CB" offset="0"/>
<stop stop-color="#68319E" offset="1"/>
</linearGradient>
<linearGradient id="r" x1="6946.4" x2="7072.7" y1="176.16" y2="1694.2" gradientUnits="userSpaceOnUse">
<stop stop-color="#4C58CB" offset="0"/>
<stop stop-color="#68319E" offset="1"/>
</linearGradient>
<linearGradient id="q" x1="7308.4" x2="7532.2" y1="164.57" y2="2183.1" gradientUnits="userSpaceOnUse">
<stop stop-color="#4C58CB" offset="0"/>
<stop stop-color="#68319E" offset="1"/>
</linearGradient>
<linearGradient id="p" x1="7662.2" x2="11218" y1="166.04" y2="7253.7" gradientUnits="userSpaceOnUse">
<stop stop-color="#4C58CB" offset="0"/>
<stop stop-color="#68319E" offset="1"/>
</linearGradient>
<linearGradient id="o" x1="8544.5" x2="9134.4" y1="-43.908" y2="3181.4" gradientUnits="userSpaceOnUse">
<stop stop-color="#4C58CB" offset="0"/>
<stop stop-color="#68319E" offset="1"/>
</linearGradient>
<linearGradient id="n" x1="5026.7" x2="6076.6" y1="-609.8" y2="2367.5" gradientUnits="userSpaceOnUse">
<stop stop-color="#4C58CB" offset="0"/>
<stop stop-color="#68319E" offset="1"/>
</linearGradient>
<linearGradient id="m" x1="1514.7" x2="1804.3" y1="-101.42" y2="723.17" gradientUnits="userSpaceOnUse">
<stop stop-color="#4C58CB" offset="0"/>
<stop stop-color="#68319E" offset="1"/>
</linearGradient>
<linearGradient id="l" x1="655.9" x2="1761.2" y1="641.66" y2="3045.2" gradientUnits="userSpaceOnUse">
<stop stop-color="#4C58CB" offset="0"/>
<stop stop-color="#68319E" offset="1"/>
</linearGradient>
<linearGradient id="k" x1="1611.2" x2="1771.3" y1="-142.18" y2="511.31" gradientUnits="userSpaceOnUse">
<stop stop-color="#4C58CB" offset="0"/>
<stop stop-color="#68319E" offset="1"/>
</linearGradient>
<linearGradient id="j" x1="5634.1" x2="6087.2" y1="-479.26" y2="1659.8" gradientUnits="userSpaceOnUse">
<stop stop-color="#4C58CB" offset="0"/>
<stop stop-color="#68319E" offset="1"/>
</linearGradient>
<clipPath id="u">
<rect width="200.03" height="160" fill="#fff"/>
</clipPath>
</defs>
</svg>
