<?xml version="1.0" encoding="UTF-8"?>
<svg fill="none" viewBox="0 0 240 183" xmlns="http://www.w3.org/2000/svg">
<g clip-path="url(#n)">
<path d="m239.76 49.68c-1.366-3.8228-2.707-7.6597-4.022-11.511-0.134-0.4415-0.119-0.9149 0.042-1.3472 0.999-2.5261 2.04-5.0522 3.098-7.6288 0.115-0.2013 0.155-0.4366 0.113-0.6645-0.041-0.2279-0.162-0.4339-0.339-0.5817-3.359-3.4271-6.6-6.9131-9.975-10.298-1.864-1.8778-4.324-2.5851-6.877-2.9387-3.271-0.3455-6.576-0.1435-9.782 0.5978-0.195 0.0292-0.395 0.0174-0.585-0.0348-0.191-0.0522-0.369-0.1436-0.523-0.2683-4.307-4.8249-8.564-9.6918-12.846-14.567-0.092-0.13297-0.161-0.28118-0.202-0.43786h-48.01c-2.032 2.3661-4.055 4.7406-6.104 7.0899-2.183 2.5261-4.433 4.9511-6.566 7.5025-0.244 0.3206-0.579 0.5607-0.96 0.6897-0.382 0.129-0.793 0.141-1.181 0.0344-2.464-0.3952-4.952-0.6231-7.447-0.682-2.733-0.1215-5.427 0.6822-7.649 2.2819-1.411 1.1687-2.738 2.4349-3.972 3.7891-0.839 0.8421-1.595 1.642-2.384 2.4756l-4.392 4.6059c-0.251 0.1911-0.425 0.466-0.491 0.775-0.066 0.3089-0.02 0.6314 0.13 0.9091 1.025 2.3577 1.999 4.7406 2.905 7.1572 0.208 0.5883 0.229 1.2267 0.059 1.8272-1.259 3.7471-2.611 7.4773-3.879 11.233-0.237 0.655-0.292 1.3622-0.159 2.0462 2.577 9.9949 5.205 19.973 7.808 29.959 1.453 5.549 2.897 11.115 4.349 16.655 1.265 4.8668 2.539 9.7308 3.821 14.593 0.235 0.842 0.487 1.759 0.747 2.627 0.94 3.444 2.443 6.708 4.45 9.658 0.487 0.682 0.999 1.322 1.537 1.936 1.385 1.55 2.917 2.96 4.576 4.211 0.839 0.648 1.679 1.263 2.577 1.869 0.126 0.084 0.252 0.168 0.37 0.261 0.108 0.079 0.22 0.152 0.336 0.219l1.956 1.347c0.176 0.118 0.361 0.253 0.554 0.371 5.357 3.671 10.722 7.336 16.096 10.997l6.137 4.21 0.731 0.496 0.697 0.464c0.059 0.049 0.124 0.092 0.193 0.126 1.788 1.196 3.602 2.341 5.441 3.461 0.807 0.549 1.727 0.909 2.692 1.055s1.95 0.073 2.883-0.213c0.634-0.205 1.241-0.488 1.805-0.842 0.168-0.11 0.353-0.219 0.521-0.337 1.892-1.207 3.772-2.42 5.642-3.638l0.646-0.421 0.278-0.185 0.126-0.076c1.771-1.153 3.534-2.341 5.281-3.528 0.117-0.067 0.226-0.151 0.336-0.227l0.453-0.303 0.244-0.169c2.563-1.746 5.121-3.497 7.674-5.254 4.383-3.015 8.763-6.043 13.14-9.086 5.953-4.126 9.555-9.877 11.394-16.84 1.612-6.141 3.23-12.283 4.853-18.424 0.277-1.0694 0.562-2.1388 0.839-3.2081 3.628-13.832 7.266-27.666 10.916-41.504 0.22-0.7621 0.185-1.5757-0.101-2.3156zm-45.743 59.472c-1.419 1.154-2.897 2.223-4.324 3.369-4.517 3.581-9.021 7.174-13.51 10.778-1.923 1.54-2.762 1.591-4.66 0.092-5.961-4.698-11.909-9.411-17.842-14.138-1.503-1.195-1.427-2.248 0.285-3.157 5.786-3.065 11.512-6.2985 17.775-8.3531 0.672-0.2189 1.352-0.3873 2.125-0.6063 1.083 0.3537 2.216 0.6821 3.358 1.0863 5.878 2.1131 11.31 5.1951 16.793 8.1091 1.301 0.732 1.293 1.793 0 2.846v-0.026zm28.665-51.894c-5.407 5.6668-10.781 11.376-16.18 17.06-0.849 0.7687-1.422 1.7958-1.631 2.9233-0.209 1.1274-0.043 2.2926 0.472 3.3162 0.738 1.7116 1.363 3.4695 1.873 5.2626 0.403 1.375 0.497 2.8228 0.273 4.2385-0.224 1.4156-0.759 2.7636-1.566 3.9461-1.679 2.5261-3.577 4.7659-6.432 6.0207-1.09 0.5-2.332 0.551-3.459 0.143-7.358-2.4589-13.943-6.8147-19.093-12.63-2.041-2.3409-2.049-3.486 0.453-5.3722 2.863-2.164 5.936-4.0333 8.909-6.0373 1.679-1.1452 3.358-2.2567 5.037-3.4608 1.68-1.2041 1.948-2.1219 1.092-3.9575-1.201-2.5766-2.695-5.0522-3.946-7.5783-0.883-1.7497-1.643-3.5588-2.276-5.4142-0.312-0.7779-0.341-1.6416-0.079-2.4383 0.261-0.7967 0.795-1.475 1.507-1.915 1.809-1.179 3.727-2.1827 5.726-2.9977 4.929-1.9787 9.924-3.7891 14.878-5.6668 0.361-0.1432 0.697-0.3284 1.05-0.5053v-0.4041c-0.84-0.1348-1.747-0.3368-2.628-0.4126-3.241-0.2695-6.482-0.4884-9.715-0.741-3.476-0.2779-6.717 0.842-9.941 1.7683-1.469 0.4041-2.93 0.842-4.349 1.364-1.68 0.6316-2.242 1.6167-1.915 3.3682 0.731 3.9743 1.503 7.9319 2.208 11.906 0.56 3.3007 1.092 6.6352 1.596 10.003 0.31 2.0209-0.252 2.8208-2.242 3.2755-2.346 0.6527-4.733 1.1478-7.145 1.482-1.921 0.0417-3.84-0.142-5.718-0.5473-1.503-0.2274-2.972-0.6316-4.45-0.9936-1.478-0.3621-2.116-1.0189-1.94-2.5261 0.328-2.9892 0.764-5.97 1.285-8.934 0.789-4.4375 1.73-8.8413 2.519-13.279 0.31-1.8188 0.403-3.1155-2.217-3.8565-3.58-1.1684-7.225-2.1299-10.915-2.8797-2.628-0.4295-5.399 0-8.102 0.1263-1.822 0.101-3.636 0.3536-5.45 0.5557-0.596 0.0758-1.175 0.2273-1.763 0.3284-8e-3 0.0982-0.031 0.1946-0.067 0.2863 0.439 0.2608 0.896 0.4887 1.369 0.682 5.23 2.0041 10.495 3.9492 15.717 5.9869 1.42 0.5484 2.777 1.2485 4.047 2.0882 2.116 1.3894 2.771 3.0818 1.864 5.4479-0.906 2.3661-2.267 4.8249-3.459 7.2162-0.84 1.6083-1.755 3.1408-2.519 4.7744-0.839 2.0124-0.697 3.2249 0.991 4.3533 2.636 1.7766 5.306 3.5028 7.935 5.2963 2.048 1.381 4.055 2.8208 6.078 4.2102 0.163 0.1207 0.315 0.256 0.454 0.4041 1.679 1.6083 1.805 2.6356 0.252 4.3702-1.642 1.8503-3.392 3.602-5.24 5.2458-4.072 3.6376-8.916 5.9616-13.971 7.8978-0.676 0.272-1.405 0.387-2.132 0.337-0.726-0.049-1.433-0.262-2.066-0.6228-1.844-0.9396-3.463-2.267-4.749-3.8916-1.285-1.6246-2.206-3.5083-2.699-5.5223-0.671-2.8124 0.269-5.4985 1.319-8.1088 0.277-0.682 0.554-1.3809 0.839-2.0629 0.438-0.8695 0.593-1.8552 0.442-2.8176-0.15-0.9625-0.599-1.8532-1.281-2.5462-2.654-2.9134-5.349-5.7763-8.036-8.6392-2.922-3.1155-5.86-6.203-8.816-9.2623-1.037-1.1103-1.71-2.5122-1.929-4.0175-0.219-1.5052 0.026-3.0416 0.703-4.4028 2.579-4.5501 5.493-8.9013 8.716-13.018 2.317-3.0819 4.769-6.0795 7.103-9.1529 0.225-0.3437 0.557-0.6033 0.944-0.7388s0.808-0.1392 1.197-0.0106c4.845 0.901 9.681 1.8777 14.568 2.5261 1.679 0.2105 3.593-0.4126 5.331-0.8926 2.519-0.7073 5.038-1.6335 7.498-2.4587 3.972-1.3136 7.851-0.842 11.755 0.4884 2.935 1.0973 5.936 2.0112 8.984 2.7366 1.837 0.2266 3.7 0.1211 5.5-0.3116 3.937-0.6231 7.842-1.4062 11.754-2.0798 0.216-0.0347 0.436-0.0225 0.646 0.0356s0.405 0.1608 0.572 0.3012c5.39 6.7363 10.806 13.472 15.264 20.832 0.261 0.4379 0.479 0.901 0.748 1.3389 1.922 3.2165 0.915 6.7446-1.352 9.1613z" fill="url(#l)"/>
<path d="m194.02 109.18c-1.419 1.153-2.897 2.223-4.324 3.368-4.517 3.581-9.021 7.174-13.51 10.778-1.923 1.541-2.762 1.591-4.66 0.092-5.961-4.698-11.92-9.411-17.876-14.137-1.503-1.196-1.427-2.248 0.286-3.158 5.785-3.065 11.511-6.2983 17.775-8.3528 0.672-0.219 1.352-0.3874 2.124-0.6063 1.083 0.3537 2.217 0.6821 3.359 1.0862 5.877 2.1139 11.309 5.1949 16.792 8.1089 1.335 0.707 1.327 1.768 0.034 2.821z" fill="#fff"/>
<path d="m206.55 74.292c-0.849 0.7686-1.422 1.7958-1.631 2.9232-0.209 1.1275-0.043 2.2927 0.472 3.3162 0.738 1.7116 1.363 3.4696 1.873 5.2627 0.403 1.375 0.497 2.8228 0.273 4.2384s-0.759 2.7636-1.566 3.9461c-1.679 2.5261-3.577 4.7659-6.432 6.0206-1.09 0.5004-2.332 0.5514-3.459 0.1434-7.358-2.4592-13.943-6.8149-19.093-12.631-2.041-2.3408-2.049-3.486 0.453-5.3721 2.863-2.164 5.936-4.0333 8.909-6.0374 1.679-1.1451 3.358-2.2566 5.037-3.4607 1.68-1.2041 1.948-2.1219 1.092-3.9576-1.201-2.5766-2.695-5.0522-3.946-7.5782-0.883-1.7498-1.643-3.5589-2.276-5.4143-0.304-0.775-0.328-1.6323-0.067-2.423s0.79-1.4648 1.495-1.905c1.809-1.179 3.727-2.1827 5.726-2.9977 4.929-1.9787 9.924-3.7891 14.878-5.6668 0.361-0.1432 0.697-0.3284 1.05-0.5053v-0.4041c-0.84-0.1348-1.747-0.3368-2.628-0.4126-3.241-0.2695-6.482-0.4884-9.715-0.741-3.476-0.2779-6.717 0.842-9.941 1.7683-1.469 0.4041-2.93 0.842-4.349 1.364-1.68 0.6316-2.242 1.6167-1.915 3.3682 0.731 3.9744 1.503 7.9319 2.208 11.906 0.56 3.3007 1.092 6.6352 1.596 10.003 0.31 2.0209-0.252 2.8208-2.242 3.2755-2.346 0.6527-4.733 1.1478-7.145 1.482-1.921 0.0417-3.84-0.142-5.718-0.5473-1.503-0.2274-2.972-0.6316-4.45-0.9936-1.478-0.3621-2.116-1.0189-1.94-2.5261 0.328-2.9892 0.764-5.97 1.285-8.934 0.789-4.4375 1.73-8.8413 2.519-13.279 0.31-1.8188 0.403-3.1155-2.217-3.8565-3.58-1.1684-7.225-2.1299-10.915-2.8797-2.628-0.4295-5.399 0-8.102 0.1263-1.822 0.101-3.636 0.3536-5.45 0.5557-0.596 0.0758-1.175 0.2273-1.763 0.3284-8e-3 0.0982-0.031 0.1946-0.067 0.2863 0.439 0.2608 0.896 0.4887 1.369 0.682 5.23 2.0041 10.495 3.9492 15.717 5.9869 1.42 0.5484 2.777 1.2485 4.047 2.0882 2.116 1.3894 2.771 3.0818 1.864 5.4479-0.906 2.3661-2.267 4.8249-3.459 7.2162-0.84 1.6083-1.755 3.1408-2.519 4.7744-0.839 2.0124-0.697 3.2249 0.991 4.3533 2.636 1.7766 5.306 3.5028 7.935 5.2963 2.048 1.381 4.055 2.8208 6.078 4.2102 0.163 0.1207 0.315 0.256 0.454 0.4042 1.679 1.6082 1.805 2.6355 0.252 4.3701-1.642 1.8503-3.392 3.602-5.24 5.2458-4.072 3.6376-8.916 5.9616-13.971 7.8978-0.676 0.272-1.405 0.387-2.132 0.337-0.726-0.049-1.433-0.262-2.066-0.6228-1.852-0.9348-3.479-2.2601-4.772-3.885s-2.22-3.511-2.718-5.5289c-0.671-2.8124 0.269-5.4985 1.319-8.1088 0.277-0.682 0.554-1.3809 0.839-2.0629 0.438-0.8695 0.593-1.8551 0.442-2.8176-0.15-0.9625-0.599-1.8532-1.281-2.5462-2.654-2.9134-5.349-5.7763-8.036-8.6392-2.922-3.1155-5.86-6.203-8.816-9.2623-1.037-1.1103-1.71-2.5122-1.929-4.0175-0.219-1.5052 0.026-3.0416 0.703-4.4028 2.579-4.5501 5.493-8.9013 8.716-13.018 2.317-3.0819 4.769-6.0795 7.103-9.1529 0.225-0.3437 0.557-0.6033 0.944-0.7388s0.808-0.1392 1.197-0.0106c4.845 0.901 9.681 1.8777 14.568 2.5261 1.679 0.2105 3.593-0.4126 5.331-0.8926 2.519-0.7073 5.038-1.6335 7.498-2.4587 3.972-1.3136 7.851-0.842 11.755 0.4884 2.935 1.0973 5.936 2.0112 8.984 2.7366 1.837 0.2266 3.7 0.1211 5.5-0.3116 3.937-0.6231 7.842-1.4062 11.754-2.0798 0.216-0.0347 0.436-0.0225 0.646 0.0356s0.405 0.1608 0.572 0.3012c5.39 6.7363 10.806 13.472 15.264 20.832 0.261 0.4378 0.479 0.9009 0.748 1.3388 2.015 3.3176 1.007 6.8457-1.26 9.2623-5.499 5.5406-10.873 11.25-16.23 16.933z" fill="#fff"/>
<path d="m135.07 111.35 0.042 2.476-49.546-16.942-1.4274-1.8693 50.932 16.335z" fill="#fff"/>
<path d="m136.12 107.16c0.013-0.357-0.021-0.713-0.101-1.061-0.19-0.741-0.546-1.43-1.041-2.013-0.565-0.665-1.235-1.233-1.982-1.684-0.873-0.52-1.806-0.933-2.779-1.229l-0.663-0.185c-0.227-0.059-0.453-0.118-0.688-0.16l-0.714-0.143-0.739-0.11-13.51-1.6839-14.131-1.8104-11.066-1.4315c-2.7876-0.362-4.5004-0.5894-4.5508-0.6062l50.932 16.335v2.476l0.84-3.065c0.016-0.115 0.044-0.228 0.084-0.337 0.025-0.111 0.042-0.223 0.05-0.337v-0.328c9e-3 -0.112 9e-3 -0.225 0-0.337v-2.408l0.059 0.118zm-0.092 0.842c0 0.118-0.051 0.227-0.084 0.337 0.04-0.184 0.068-0.369 0.084-0.556 8e-3 0.073 8e-3 0.146 0 0.219zm0.092-0.657v0.387-0.48 0.093z" fill="url(#i)"/>
<path d="m110.05 123.03c-1.367-1.121-2.93-1.977-4.609-2.526l-21.478-7.376c-1.8094-0.607-3.6943-0.959-5.6004-1.044-1.9682-0.102-3.9415 0.034-5.8774 0.404-1.8938 0.327-3.7387 0.893-5.4912 1.684-1.6441 0.729-3.1607 1.719-4.492 2.93-1.141 1.011-2.0321 2.273-2.6028 3.688-0.4695 1.198-0.5632 2.511-0.2687 3.764 0.3371 1.291 1.033 2.459 2.0067 3.368 1.2267 1.152 2.6794 2.036 4.2653 2.594l21.83 8.235c1.9572 0.716 4.0076 1.145 6.0873 1.271 2.1332 0.133 4.2744-6e-3 6.3727-0.412 2.038-0.375 4.015-1.026 5.878-1.937 1.693-0.812 3.224-1.928 4.517-3.292 1.083-1.125 1.858-2.511 2.25-4.025 0.309-1.314 0.212-2.692-0.277-3.949-0.547-1.316-1.409-2.476-2.511-3.377z" fill="url(#h)"/>
<path d="m136.86 111.93c1.436 0.441 2.79 1.118 4.005 2.004 0.983 0.722 1.788 1.661 2.351 2.745 0.481 0.978 0.651 2.08 0.487 3.158-0.216 1.196-0.766 2.305-1.587 3.199l-31.453 36.107c-1.134 1.264-2.492 2.306-4.005 3.073-1.632 0.835-3.373 1.436-5.172 1.785-1.86 0.365-3.7604 0.478-5.6506 0.337-1.8549-0.132-3.6786-0.55-5.4072-1.238l-86.23-35.112c-1.167-0.43-2.2087-1.145-3.0311-2.08-0.68011-0.771-1.09-1.744-1.1671-2.77-0.049264-1.064 0.20097-2.121 0.72208-3.049 0.64873-1.163 1.5222-2.185 2.5693-3.006l34.811-28.629c1.0761-0.857 2.2657-1.5598 3.5348-2.0882 1.3518-0.5623 2.759-0.9801 4.1981-1.2462 1.4628-0.2609 2.9482-0.3709 4.4333-0.3284 1.407 0.0447 2.8018 0.2769 4.1478 0.6904l82.444 26.448zm-49.077 26.886c1.9571 0.717 4.0076 1.145 6.0873 1.272 2.1331 0.132 4.2744-7e-3 6.3723-0.413 2.038-0.374 4.016-1.026 5.878-1.937 1.693-0.812 3.224-1.928 4.517-3.292 1.084-1.125 1.859-2.511 2.25-4.025 0.309-1.314 0.213-2.691-0.277-3.949-0.541-1.34-1.406-2.524-2.519-3.444-1.367-1.121-2.93-1.977-4.609-2.526l-21.52-7.376c-1.8094-0.607-3.6943-0.959-5.6004-1.044-1.9682-0.102-3.9415 0.034-5.8774 0.404-1.8938 0.327-3.7387 0.893-5.4912 1.684-1.6441 0.729-3.1607 1.719-4.492 2.93-1.141 1.011-2.0321 2.273-2.6028 3.688-0.4695 1.198-0.5632 2.511-0.2687 3.764 0.3371 1.291 1.033 2.459 2.0067 3.368 1.2267 1.152 2.6794 2.036 4.2653 2.594l21.83 8.235" fill="#EBEAF7"/>
<path d="m143.8 118.99c0 0.701-0.134 1.396-0.394 2.046-0.312 0.731-0.737 1.407-1.26 2.005l-31.478 36.106c-1.134 1.264-2.492 2.306-4.005 3.073-1.632 0.835-3.373 1.436-5.172 1.785-1.86 0.365-3.7604 0.478-5.6506 0.337-1.8577-0.132-3.6841-0.55-5.4156-1.238l-86.222-35.112c-0.53457-0.209-1.0466-0.471-1.5281-0.783-0.43058-0.27-0.82796-0.589-1.1839-0.952-0.32817-0.319-0.61073-0.681-0.83963-1.078-0.2205-0.369-0.38465-0.769-0.48699-1.187l4.3577 16.773c0.11765 0.418 0.29286 0.818 0.52057 1.188 0.2313 0.402 0.51352 0.773 0.83963 1.103 0.35165 0.368 0.74309 0.695 1.1671 0.976 0.47135 0.326 0.97164 0.608 1.4945 0.842l83.82 36.022c1.6636 0.706 3.4299 1.139 5.2309 1.28 1.8271 0.161 3.6677 0.059 5.4657-0.303 1.743-0.339 3.427-0.935 4.996-1.768 1.469-0.774 2.78-1.82 3.862-3.082l30.437-36.401c0.513-0.605 0.925-1.291 1.217-2.029 0.128-0.336 0.226-0.683 0.294-1.036 0.057-0.342 0.086-0.689 0.084-1.036l-0.151-17.531z" fill="url(#g)"/>
<path d="m194.24 132.2 0.773 6.088c-0.156-0.057-0.316-0.102-0.479-0.135-0.168 0-0.344-0.051-0.512-0.067h-0.546c-0.184 8e-3 -0.367 0.033-0.546 0.075-0.178 0.033-0.355 0.075-0.529 0.127l-0.487 0.193c-0.148 0.072-0.291 0.153-0.428 0.245-0.131 0.081-0.252 0.177-0.361 0.286l-0.84-6.08c0.109-0.109 0.231-0.205 0.362-0.286 0.137-0.094 0.284-0.176 0.436-0.244 0.16-0.077 0.326-0.142 0.496-0.194 0.172-0.059 0.349-0.104 0.528-0.135 0.185 0 0.37-0.05 0.555-0.067h0.545c0.175 0.01 0.349 0.033 0.521 0.067 0.174 0.026 0.346 0.068 0.512 0.127z" fill="#D9CDFE"/>
<path d="m205.74 136.22 0.688 6.13-11.41-4.1-0.773-6.088 11.495 4.058z" fill="#D9CDFE"/>
<path d="m207.62 143.41c-0.039-0.115-0.093-0.226-0.159-0.328-0.073-0.107-0.161-0.204-0.26-0.286-0.11-0.092-0.225-0.176-0.345-0.253-0.137-0.077-0.28-0.141-0.428-0.194l-0.688-6.13c0.15 0.053 0.296 0.117 0.436 0.194 0.12 0.074 0.235 0.155 0.345 0.244 0.1 0.088 0.19 0.187 0.268 0.295 0.062 0.102 0.115 0.209 0.16 0.32 0.218 2.046 0.445 4.092 0.671 6.138z" fill="#D9CDFE"/>
<path d="m190.31 132.89 0.814 6.08-8.102 7.797-0.907-6.105 8.195-7.772z" fill="#D9CDFE"/>
<path d="m200.14 138.55 0.739 6.138-6.801-2.484-0.79-6.105 6.852 2.451z" fill="#fff"/>
<path d="m193.29 136.1 0.79 6.105-4.795 4.673-0.848-6.121 4.853-4.657z" fill="#fff"/>
<path d="m206.99 137.49 0.671 6.13c0.017 0.1 0.017 0.203 0 0.303-0.016 0.1-0.041 0.199-0.075 0.295-0.048 0.1-0.102 0.199-0.16 0.294-0.071 0.098-0.15 0.191-0.235 0.278l-0.68-6.138c0.085-0.087 0.164-0.18 0.235-0.278 0.062-0.094 0.115-0.192 0.16-0.295 0.037-0.095 0.065-0.194 0.084-0.295 8e-3 -0.098 8e-3 -0.196 0-0.294z" fill="#fff"/>
<path d="m182.48 148.05-0.906-6.113c-0.017-0.109-0.017-0.219 0-0.328 0.019-0.113 0.05-0.223 0.092-0.329 0.05-0.113 0.112-0.22 0.185-0.32 0.075-0.11 0.162-0.212 0.26-0.303l0.923 6.105c-0.095 0.093-0.182 0.194-0.26 0.303-0.075 0.1-0.134 0.211-0.176 0.328-0.042 0.106-0.073 0.216-0.092 0.329-0.03 0.107-0.039 0.218-0.026 0.328z" fill="#D9CDFE"/>
<path d="m182.48 148.05-0.906-6.113v0.101c0.026 0.12 0.074 0.235 0.142 0.337 0.065 0.111 0.147 0.21 0.244 0.295 0.099 0.1 0.212 0.185 0.336 0.252 0.135 0.078 0.275 0.145 0.419 0.202l0.899 6.122c-0.145-0.057-0.285-0.125-0.42-0.202-0.123-0.073-0.235-0.16-0.336-0.261-0.092-0.087-0.171-0.186-0.235-0.295-0.068-0.102-0.116-0.217-0.143-0.337v-0.101z" fill="#fff"/>
<path d="m195.32 143.27 0.79 6.147-6.827-2.543-0.848-6.121 6.885 2.517z" fill="#D9CDFE"/>
<path d="m200.14 138.55 0.739 6.138-4.769 4.732-0.79-6.147 4.82-4.723z" fill="#D9CDFE"/>
<path d="m188.44 140.75 4.853-4.657 6.852 2.451-4.82 4.723-6.885-2.517z" fill="#D9CDFE"/>
<path d="m206.5 138.65 0.68 6.138-7.993 8.033-0.773-6.164 8.086-8.007z" fill="#fff"/>
<path d="m194.35 147.42 0.806 6.163-11.511-4.336-0.898-6.122 11.603 4.295z" fill="#fff"/>
<path d="m198.41 146.66 0.773 6.164c-0.118 0.111-0.241 0.215-0.37 0.312-0.143 0.092-0.292 0.176-0.445 0.252-0.33 0.169-0.684 0.285-1.049 0.346-0.188 0.041-0.379 0.066-0.571 0.075h-0.563c-0.182 0.013-0.365-0.013-0.537-0.075-0.169-0.035-0.334-0.083-0.496-0.144l-0.839-6.163c0.163 0.061 0.332 0.109 0.504 0.143 0.18 0.035 0.362 0.058 0.545 0.067h0.563c0.192-8e-3 0.383-0.033 0.571-0.076 0.187-0.035 0.372-0.083 0.554-0.143 0.168-0.059 0.344-0.126 0.512-0.202 0.155-0.075 0.304-0.163 0.445-0.261 0.143-0.086 0.278-0.184 0.403-0.295z" fill="#fff"/>
<path d="m212.66 137.78 0.629 6.147c0.059 0.615 0.042 1.234-0.05 1.844-0.1 0.644-0.271 1.274-0.512 1.878-0.269 0.658-0.604 1.287-0.999 1.878-0.445 0.653-0.948 1.265-1.503 1.827-1.531 1.525-3.312 2.776-5.265 3.697-2.117 1.01-4.355 1.742-6.658 2.18-2.36 0.446-4.765 0.599-7.162 0.455-2.298-0.127-4.563-0.604-6.717-1.415-1.033-0.388-2.023-0.882-2.956-1.473-0.811-0.514-1.556-1.128-2.216-1.827-0.598-0.614-1.1-1.315-1.486-2.08-0.367-0.71-0.617-1.475-0.739-2.265l-0.957-6.105c0.119 0.786 0.369 1.545 0.738 2.248 0.396 0.76 0.899 1.457 1.495 2.072 0.666 0.698 1.419 1.307 2.242 1.81 0.936 0.594 1.932 1.085 2.972 1.465 2.183 0.8 4.472 1.271 6.793 1.398 2.417 0.142 4.842-0.017 7.22-0.472 2.323-0.439 4.58-1.171 6.718-2.18 1.966-0.919 3.764-2.166 5.314-3.689 0.563-0.56 1.072-1.171 1.52-1.827 0.402-0.592 0.743-1.224 1.016-1.886 0.241-0.602 0.415-1.229 0.521-1.869 0.089-0.599 0.103-1.208 0.042-1.811z" fill="#A78AFE"/>
<path d="m204.65 129.61c1.841 0.606 3.55 1.558 5.037 2.804 1.211 1.017 2.125 2.344 2.645 3.839 0.472 1.434 0.486 2.979 0.042 4.421-0.552 1.709-1.518 3.254-2.813 4.496-1.55 1.523-3.348 2.77-5.314 3.689-2.138 1.009-4.395 1.741-6.717 2.18-2.379 0.455-4.804 0.614-7.221 0.472-2.321-0.127-4.61-0.598-6.793-1.398-1.853-0.658-3.551-1.693-4.987-3.04-1.151-1.083-1.97-2.473-2.36-4.008-0.338-1.473-0.224-3.014 0.328-4.42 0.67-1.661 1.716-3.143 3.056-4.328 1.559-1.426 3.337-2.592 5.264-3.453 2.055-0.93 4.215-1.606 6.432-2.012 2.261-0.422 4.563-0.58 6.86-0.472 2.227 0.101 4.428 0.515 6.541 1.23zm-6.239 17.042 8.086-8.007c0.098-0.102 0.188-0.212 0.268-0.329 0.07-0.111 0.126-0.229 0.168-0.353 0.067-0.228 0.067-0.471 0-0.699-0.044-0.111-0.098-0.218-0.159-0.32-0.079-0.108-0.169-0.207-0.269-0.295-0.109-0.089-0.224-0.17-0.344-0.244-0.14-0.077-0.286-0.141-0.437-0.194l-11.486-4.016c-0.157-0.059-0.321-0.101-0.487-0.127-0.172-0.034-0.346-0.057-0.52-0.067h-0.546c-0.187-0.011-0.375 0.012-0.554 0.067-0.18 0.031-0.357 0.076-0.529 0.135-0.17 0.052-0.336 0.117-0.496 0.194-0.152 0.068-0.298 0.15-0.436 0.244-0.131 0.081-0.252 0.177-0.361 0.286l-8.195 7.772c-0.106 0.097-0.199 0.208-0.277 0.329-0.083 0.102-0.145 0.219-0.185 0.345-0.049 0.115-0.077 0.237-0.084 0.362-0.024 0.114-0.024 0.231 0 0.345 0.026 0.12 0.075 0.235 0.143 0.337 0.064 0.111 0.147 0.211 0.243 0.295 0.099 0.1 0.212 0.185 0.336 0.252 0.135 0.078 0.275 0.145 0.42 0.202l11.604 4.295c0.163 0.061 0.332 0.109 0.503 0.143 0.181 0.035 0.363 0.058 0.546 0.067h0.563c0.192-8e-3 0.383-0.033 0.571-0.075 0.187-0.036 0.372-0.084 0.554-0.144 0.168-0.059 0.344-0.126 0.512-0.202 0.155-0.075 0.304-0.163 0.445-0.261 0.129-0.094 0.252-0.195 0.37-0.303" fill="#D9CDFE"/>
<path d="m206.94 137.25c0.067 0.228 0.067 0.471 0 0.699-0.042 0.124-0.099 0.243-0.168 0.354-0.08 0.116-0.17 0.226-0.269 0.328l-8.085 8.008c-0.118 0.108-0.241 0.209-0.37 0.303-0.141 0.098-0.29 0.185-0.445 0.261-0.168 0.076-0.344 0.143-0.512 0.202-0.182 0.059-0.367 0.107-0.554 0.143-0.185 0-0.378 0.059-0.571 0.076s-0.378 0-0.563 0c-0.183-0.01-0.365-0.032-0.546-0.068-0.171-0.033-0.34-0.081-0.503-0.143l-11.612-4.269c-0.145-0.057-0.285-0.125-0.42-0.202-0.124-0.067-0.237-0.152-0.336-0.253-0.097-0.084-0.179-0.183-0.244-0.294-0.068-0.103-0.116-0.217-0.142-0.337-0.024-0.114-0.024-0.231 0-0.345 7e-3 -0.125 0.035-0.247 0.084-0.362 0.039-0.126 0.102-0.243 0.184-0.346 0.078-0.12 0.171-0.231 0.277-0.328l8.195-7.772c0.109-0.109 0.23-0.205 0.361-0.286 0.138-0.095 0.284-0.176 0.437-0.244 0.16-0.077 0.326-0.142 0.495-0.194 0.173-0.059 0.35-0.104 0.529-0.135 0.185 0 0.37-0.05 0.554-0.067h0.546c0.175 0.01 0.349 0.032 0.521 0.067 0.166 0.025 0.329 0.068 0.487 0.127l11.444 4.041c0.151 0.053 0.297 0.117 0.437 0.194 0.119 0.074 0.234 0.155 0.344 0.244 0.1 0.088 0.19 0.187 0.268 0.295 0.069 0.095 0.128 0.196 0.177 0.303zm-11.621 6.004 4.82-4.716-6.852-2.458-4.853 4.656 6.885 2.526" fill="#fff"/>
<path d="m160.92 149.42c-0.411-0.144-0.841-0.226-1.276-0.244-0.444-0.027-0.89 2e-3 -1.327 0.084-0.427 0.085-0.844 0.218-1.242 0.396-0.368 0.168-0.706 0.395-0.999 0.674l-0.983-7.89c0.297-0.278 0.637-0.506 1.008-0.674 0.4-0.179 0.82-0.312 1.251-0.395 0.443-0.082 0.893-0.113 1.343-0.093 0.437 0.027 0.869 0.109 1.285 0.244 0.31 2.636 0.621 5.263 0.94 7.898z" fill="#D9CDFE"/>
<path d="m162.41 150.95c-0.023-0.16-0.068-0.316-0.135-0.463-0.083-0.152-0.184-0.294-0.302-0.421-0.139-0.135-0.291-0.256-0.453-0.362-0.192-0.116-0.394-0.212-0.605-0.287-0.319-2.635-0.63-5.262-0.94-7.898 0.21 0.075 0.413 0.171 0.604 0.286 0.169 0.101 0.324 0.223 0.462 0.362 0.118 0.128 0.219 0.269 0.302 0.421 0.07 0.143 0.116 0.297 0.135 0.455 0.285 2.375 0.655 5.541 0.932 7.907z" fill="#D9CDFE"/>
<path d="m142.18 152.96c-0.125 0.109-0.235 0.233-0.328 0.37-0.086 0.12-0.157 0.25-0.21 0.388-0.056 0.125-0.093 0.259-0.109 0.395-0.017 0.126-0.017 0.254 0 0.379l-1.117-7.881c-0.016-0.129-0.016-0.259 0-0.387 0.017-0.133 0.051-0.264 0.101-0.388 0.06-0.133 0.133-0.26 0.218-0.379 0.101-0.134 0.21-0.26 0.328-0.379 0.369 2.628 0.747 5.255 1.117 7.882-0.37-2.627-0.748-5.254-1.117-7.882 0.303-0.278 0.649-0.506 1.024-0.673 0.401-0.186 0.825-0.319 1.26-0.396 0.442-0.086 0.893-0.117 1.343-0.093 0.432 0.019 0.86 0.101 1.268 0.245l1.066 7.881c-0.405-0.144-0.829-0.227-1.259-0.244-0.444-0.027-0.89 1e-3 -1.327 0.084-0.431 0.083-0.85 0.216-1.251 0.396-0.371 0.17-0.711 0.401-1.007 0.682z" fill="#D9CDFE"/>
<path d="m161.48 143.04 0.932 7.907c0.017 0.12 0.017 0.242 0 0.362-0.017 0.127-0.051 0.252-0.101 0.37-0.051 0.128-0.116 0.249-0.193 0.362-0.092 0.126-0.193 0.244-0.302 0.354l-0.941-7.907c0.11-0.11 0.211-0.228 0.302-0.353 0.077-0.115 0.145-0.236 0.202-0.362 0.049-0.12 0.086-0.244 0.109-0.371 0.01-0.12 7e-3 -0.242-8e-3 -0.362z" fill="#fff"/>
<path d="m151.31 146.08 1.024 7.898-5.315-1.945-1.066-7.881 5.357 1.928z" fill="#D9CDFE"/>
<path d="m155.09 142.44 0.983 7.89-3.737 3.654-1.024-7.898 3.778-3.646z" fill="#D9CDFE"/>
<path d="m141.53 154.49c-0.369-2.627-0.747-5.254-1.117-7.881 0.019 0.153 0.065 0.301 0.135 0.438 0.078 0.145 0.177 0.279 0.294 0.396 0.128 0.135 0.275 0.252 0.436 0.345 0.177 0.117 0.369 0.211 0.571 0.278l1.117 7.898c-0.199-0.074-0.39-0.167-0.571-0.278-0.16-0.099-0.306-0.218-0.437-0.354-0.116-0.118-0.212-0.254-0.285-0.404-0.076-0.135-0.125-0.284-0.143-0.438z" fill="#fff"/>
<path d="m159.98 141.52c0.354 0.122 0.682 0.31 0.965 0.556 0.228 0.195 0.399 0.448 0.496 0.732 0.084 0.275 0.084 0.568 0 0.842-0.114 0.322-0.304 0.611-0.554 0.842l-3.779 3.705-5.793-2.079 3.778-3.646c0.297-0.279 0.637-0.506 1.008-0.674 0.4-0.18 0.82-0.312 1.251-0.396 0.443-0.081 0.893-0.112 1.343-0.092 0.436 0.015 0.867 0.086 1.285 0.21z" fill="#fff"/>
<path d="m160.86 144.49 0.94 7.907-3.728 3.688-0.974-7.923 3.762-3.672z" fill="#fff"/>
<path d="m157.1 148.16 0.974 7.923-5.743-2.105-1.024-7.898 5.793 2.08z" fill="#fff"/>
<path d="m162.57 150.13 0.932 7.94-5.424-1.979-0.974-7.923 5.466 1.962z" fill="#D9CDFE"/>
<path d="m147.22 150.02 1.066 7.915-3.829 3.747-1.108-7.932 3.871-3.73z" fill="#D9CDFE"/>
<path d="m143.81 163.25c-0.37-2.644-0.747-5.288-1.117-7.932-0.017-0.129-0.017-0.259 0-0.387 0.015-0.14 0.052-0.277 0.109-0.405 0.051-0.142 0.125-0.276 0.219-0.395 0.095-0.141 0.204-0.271 0.327-0.388l1.117 7.932c-0.246 0.21-0.434 0.48-0.546 0.783-0.057 0.126-0.093 0.259-0.109 0.396-0.017 0.132-0.017 0.265 0 0.396z" fill="#D9CDFE"/>
<path d="m143.81 163.25c-0.37-2.644-0.747-5.288-1.117-7.932 0.018 0.159 0.067 0.314 0.143 0.455 0.077 0.153 0.176 0.295 0.294 0.421 0.135 0.134 0.284 0.252 0.445 0.353 0.187 0.118 0.387 0.214 0.596 0.287 0.418 0.153 0.857 0.241 1.301 0.261 0.915 0.06 1.83-0.111 2.662-0.497 0.379-0.184 0.73-0.423 1.041-0.707l1.058 7.948c-0.305 0.285-0.65 0.523-1.024 0.708-0.407 0.19-0.836 0.328-1.276 0.412-0.452 0.083-0.911 0.111-1.369 0.084-0.439-0.019-0.873-0.107-1.285-0.261-0.206-0.076-0.403-0.174-0.587-0.294-0.163-0.102-0.313-0.224-0.445-0.362-0.118-0.123-0.217-0.262-0.294-0.413-0.077-0.144-0.125-0.301-0.143-0.463z" fill="#fff"/>
<path d="m143.35 153.75 3.871-3.73 5.81 2.114-3.854 3.764c-0.311 0.284-0.662 0.523-1.041 0.707-0.832 0.386-1.747 0.557-2.662 0.497-0.444-0.02-0.883-0.108-1.301-0.261-0.36-0.124-0.691-0.319-0.974-0.573-0.226-0.213-0.388-0.484-0.47-0.783-0.084-0.274-0.084-0.568 0-0.842 0.131-0.344 0.344-0.651 0.621-0.893z" fill="#fff"/>
<path d="m148.14 156.62c0.379-0.185 0.73-0.423 1.041-0.708l0.328 2.526 4.542 1.685-1.016-7.941-5.81-2.113 0.89 6.593 0.025-0.042z" fill="#fff"/>
<path d="m164.11 151.71 0.915 7.957c-0.022-0.166-0.068-0.327-0.134-0.48-0.081-0.161-0.186-0.308-0.311-0.438-0.134-0.149-0.289-0.277-0.461-0.379-0.195-0.124-0.404-0.226-0.622-0.303l-0.932-7.94c0.217 0.077 0.425 0.176 0.622 0.294 0.169 0.11 0.327 0.237 0.47 0.379 0.125 0.127 0.229 0.272 0.31 0.43 0.073 0.151 0.121 0.313 0.143 0.48z" fill="#D9CDFE"/>
<path d="m162.57 150.13c0.364 0.12 0.701 0.312 0.991 0.564 0.229 0.209 0.402 0.473 0.504 0.766 0.084 0.274 0.084 0.568 0 0.842-0.114 0.322-0.304 0.611-0.554 0.842-0.301 0.285-0.644 0.52-1.016 0.699-0.832 0.386-1.747 0.557-2.662 0.497-0.445-0.02-0.884-0.108-1.301-0.261l-5.483-1.996-5.81-2.113-5.374-1.954c-0.348-0.118-0.669-0.307-0.94-0.556-0.224-0.2-0.387-0.46-0.471-0.749-0.067-0.279-0.049-0.573 0.051-0.842 0.122-0.322 0.318-0.61 0.571-0.842 0.303-0.279 0.649-0.506 1.024-0.674 0.401-0.186 0.824-0.319 1.26-0.395 0.442-0.086 0.893-0.117 1.343-0.093 0.432 0.018 0.859 0.101 1.268 0.244l5.357 1.928 5.793 2.08 5.449 2.013z" fill="#fff"/>
<path d="m164.11 151.71 0.915 7.957c0.017 0.123 0.017 0.247 0 0.37-0.016 0.131-0.05 0.258-0.1 0.379-0.118 0.275-0.29 0.524-0.504 0.733-0.295 0.291-0.639 0.527-1.016 0.699-0.399 0.195-0.823 0.334-1.26 0.412-0.45 0.086-0.91 0.117-1.368 0.093-0.442-0.026-0.878-0.116-1.293-0.27l-0.974-7.99c0.418 0.153 0.857 0.241 1.301 0.261 0.915 0.06 1.83-0.111 2.662-0.497 0.373-0.179 0.715-0.415 1.016-0.699 0.112-0.113 0.216-0.234 0.311-0.362 0.075-0.119 0.142-0.243 0.201-0.371 0.05-0.121 0.084-0.248 0.101-0.379 0.011-0.111 0.014-0.224 8e-3 -0.336z" fill="#fff"/>
<path d="m153.03 152.14 1.016 7.932-3.812 3.772-1.058-7.948 3.854-3.756z" fill="#fff"/>
<path d="m175.92 146.67 0.84 7.949c0.077 0.794 0.057 1.594-0.059 2.383-0.123 0.832-0.345 1.646-0.663 2.425-0.349 0.85-0.782 1.662-1.293 2.425-0.576 0.844-1.225 1.636-1.94 2.366-1.98 1.971-4.283 3.586-6.809 4.775-2.748 1.305-5.656 2.239-8.648 2.778-3.042 0.582-6.145 0.782-9.236 0.598-2.985-0.151-5.929-0.756-8.732-1.793-1.333-0.505-2.61-1.145-3.812-1.912-1.053-0.665-2.02-1.456-2.88-2.358-0.765-0.802-1.412-1.709-1.923-2.694-0.472-0.917-0.795-1.903-0.957-2.922l-1.234-7.898c0.162 1.016 0.485 2 0.957 2.913 0.516 0.979 1.166 1.88 1.931 2.678 0.869 0.894 1.841 1.68 2.897 2.341 1.216 0.757 2.504 1.391 3.845 1.894 2.824 1.028 5.783 1.635 8.783 1.802 3.128 0.186 6.267-0.018 9.345-0.606 3.007-0.567 5.93-1.515 8.698-2.821 2.545-1.186 4.871-2.798 6.877-4.766 0.724-0.723 1.379-1.512 1.956-2.357 0.52-0.758 0.959-1.568 1.31-2.417 0.32-0.775 0.546-1.587 0.672-2.417 0.122-0.782 0.147-1.577 0.075-2.366z" fill="#A78AFE"/>
<path d="m165.56 136.11c2.382 0.774 4.592 2.003 6.508 3.621 1.569 1.311 2.753 3.025 3.425 4.96 0.611 1.853 0.632 3.851 0.059 5.717-0.714 2.211-1.963 4.21-3.636 5.818-2.006 1.968-4.331 3.58-6.876 4.766-2.769 1.306-5.692 2.254-8.699 2.821-3.078 0.588-6.217 0.792-9.345 0.606-2.999-0.167-5.958-0.774-8.782-1.802-2.397-0.855-4.592-2.197-6.449-3.94-1.486-1.399-2.541-3.196-3.039-5.179-0.447-1.901-0.3-3.894 0.42-5.709 0.861-2.147 2.209-4.064 3.937-5.599 2.019-1.839 4.318-3.343 6.81-4.455 2.658-1.205 5.452-2.081 8.321-2.61 2.922-0.547 5.897-0.75 8.866-0.606 2.887 0.132 5.741 0.668 8.48 1.591zm-7.044 17.978c0.418 0.153 0.857 0.241 1.301 0.261 0.915 0.06 1.83-0.111 2.662-0.497 0.373-0.179 0.715-0.415 1.016-0.699 0.25-0.232 0.44-0.521 0.554-0.842 0.084-0.274 0.084-0.568 0-0.842-0.102-0.293-0.275-0.557-0.504-0.766-0.29-0.252-0.626-0.444-0.99-0.565l-5.45-1.945 3.762-3.671c0.25-0.231 0.44-0.52 0.554-0.842 0.084-0.274 0.084-0.568 0-0.842-0.097-0.284-0.268-0.537-0.495-0.733-0.284-0.245-0.612-0.434-0.966-0.555-0.416-0.136-0.848-0.218-1.285-0.244-0.449-0.02-0.9 0.011-1.343 0.092-0.431 0.084-0.851 0.216-1.251 0.396-0.37 0.168-0.711 0.395-1.008 0.674l-3.778 3.646-5.357-1.929c-0.408-0.143-0.835-0.225-1.268-0.244-0.45-0.024-0.901 7e-3 -1.343 0.093-0.435 0.076-0.859 0.209-1.259 0.395-0.376 0.168-0.722 0.395-1.025 0.674-0.253 0.232-0.449 0.521-0.571 0.842-0.1 0.269-0.118 0.563-0.05 0.842 0.084 0.289 0.246 0.549 0.47 0.75 0.272 0.248 0.592 0.437 0.94 0.555l5.374 1.954-3.871 3.73c-0.255 0.232-0.454 0.52-0.579 0.842-0.097 0.27-0.112 0.563-0.042 0.842 0.082 0.3 0.244 0.571 0.47 0.783 0.283 0.255 0.615 0.449 0.974 0.573 0.418 0.153 0.857 0.241 1.302 0.261 0.914 0.06 1.829-0.111 2.661-0.497 0.379-0.184 0.73-0.423 1.041-0.707l3.854-3.764 5.483 1.995" fill="#D9CDFE"/>
<path d="m142.8 154.54c0-0.016 4e-3 -0.032 0.011-0.047 8e-3 -0.015 0.018-0.027 0.031-0.037-5e-3 -0.028-5e-3 -0.057 0-0.085l0.05-0.092 0.059-0.093 0.134-0.168 0.076-0.084 0.084-0.093 3.871-3.73-5.374-1.954 0.924 6.551 0.134-0.168z" fill="#D9CDFE"/>
<path d="m158.51 154.12 0.974 7.957-5.441-2.012-1.016-7.932 5.483 1.987z" fill="#D9CDFE"/>
<g clip-path="url(#m)">
<path d="m239.76 49.54c-1.366-3.812-2.707-7.6381-4.022-11.478-0.129-0.441-0.114-0.9114 0.042-1.3435 0.999-2.5189 2.04-5.0379 3.098-7.6073 0.116-0.2003 0.157-0.4354 0.116-0.6631-0.042-0.2277-0.163-0.4332-0.342-0.5796-3.359-3.4174-6.6-6.8936-9.976-10.269-1.864-1.8725-4.324-2.5778-6.876-2.9304-3.272-0.3446-6.577-0.1431-9.782 0.5961-0.196 0.0302-0.396 0.0189-0.587-0.0332s-0.369-0.1437-0.522-0.2691c-4.307-4.8112-8.556-9.6644-12.847-14.526-0.09-0.13364-0.158-0.28111-0.201-0.43662h-48.012c-2.032 2.3594-4.055 4.7273-6.104 7.0699-2.183 2.519-4.434 4.9372-6.566 7.4814-0.245 0.3197-0.579 0.5591-0.961 0.6878-0.381 0.1286-0.792 0.1405-1.18 0.0343-2.465-0.393-4.953-0.6202-7.448-0.6801-2.733-0.1198-5.427 0.6815-7.65 2.2755-1.408 1.1675-2.735 2.4299-3.971 3.7784-0.84 0.8397-1.596 1.6374-2.385 2.4686-1.461 1.517-2.925 3.034-4.391 4.551-0.25 0.1916-0.423 0.4657-0.489 0.7733s-0.021 0.6288 0.128 0.906c1.024 2.3511 1.998 4.7273 2.905 7.1371 0.208 0.5866 0.229 1.2234 0.059 1.8221-1.26 3.7365-2.612 7.4562-3.879 11.201-0.236 0.6534-0.291 1.3582-0.16 2.0403 2.578 9.9668 5.206 19.917 7.809 29.875 1.452 5.5334 2.897 11.084 4.349 16.608 1.271 4.8537 2.544 9.7037 3.821 14.552 0.235 0.839 0.487 1.754 0.747 2.619 0.942 3.434 2.446 6.688 4.45 9.631 0.487 0.68 0.999 1.319 1.537 1.931 1.386 1.545 2.918 2.951 4.576 4.199 0.84 0.646 1.679 1.259 2.578 1.864 0.126 0.084 0.252 0.168 0.369 0.26 0.118 0.092 0.218 0.143 0.336 0.218l1.956 1.344c0.177 0.117 0.361 0.252 0.555 0.369 5.357 3.661 10.722 7.317 16.096 10.966 2.049 1.394 4.095 2.794 6.138 4.199l0.73 0.495 0.697 0.462c0.061 0.047 0.126 0.089 0.193 0.126 1.789 1.192 3.602 2.334 5.441 3.451 0.808 0.547 1.728 0.907 2.693 1.052s1.95 0.073 2.883-0.213c0.635-0.202 1.241-0.484 1.805-0.839 0.168-0.109 0.353-0.219 0.521-0.336 1.892-1.204 3.772-2.413 5.642-3.627l0.647-0.42c0.095-0.057 0.188-0.119 0.277-0.185l0.126-0.076c1.771-1.15 3.535-2.334 5.281-3.518 0.118-0.067 0.227-0.151 0.336-0.226l0.453-0.303 0.244-0.168c2.564-1.735 5.122-3.481 7.674-5.239 4.383-3.006 8.764-6.026 13.141-9.06 5.953-4.114 9.555-9.849 11.394-16.793 1.618-6.119 3.236-12.243 4.853-18.372 0.278-1.0664 0.563-2.1328 0.84-3.1991 3.633-13.798 7.272-27.594 10.916-41.387 0.214-0.7465 0.178-1.5425-0.101-2.2671zm-45.745 59.305c-1.419 1.15-2.897 2.217-4.324 3.359-4.517 3.571-9.021 7.154-13.51 10.747-1.923 1.537-2.763 1.587-4.66 0.093-5.962-4.686-11.909-9.385-17.843-14.098-1.503-1.192-1.427-2.242 0.285-3.149 5.786-3.056 11.512-6.2805 17.776-8.3293 0.672-0.2183 1.352-0.3862 2.124-0.6045 1.084 0.3526 2.217 0.6801 3.359 1.0831 5.878 2.1077 11.31 5.1807 16.793 8.0857 1.302 0.731 1.293 1.789 0 2.838v-0.025zm28.666-51.748c-5.407 5.6509-10.781 11.344-16.18 17.012-0.848 0.7673-1.42 1.7915-1.629 2.9154-0.209 1.124-0.044 2.2855 0.47 3.3065 0.738 1.7068 1.363 3.4598 1.873 5.2478 0.403 1.3711 0.497 2.8149 0.273 4.2265-0.224 1.4117-0.759 2.7558-1.566 3.935-1.68 2.519-3.577 4.7525-6.432 6.0036-1.09 0.4988-2.332 0.5498-3.46 0.1428-7.357-2.4541-13.941-6.7973-19.093-12.595-2.041-2.3343-2.049-3.4762 0.453-5.3571 2.863-2.1579 5.936-4.0219 8.909-6.0203 1.679-1.142 3.358-2.2503 5.038-3.451 1.679-1.2008 1.948-2.116 1.091-3.9464-1.2-2.5694-2.695-5.038-3.946-7.557-0.883-1.7448-1.643-3.5488-2.276-5.399-0.31-0.7759-0.338-1.6365-0.077-2.4306 0.261-0.794 0.794-1.4705 1.505-1.9104 1.811-1.174 3.728-2.1748 5.726-2.9892 4.929-1.9732 9.925-3.7785 14.879-5.6509 0.361-0.1428 0.697-0.3275 1.05-0.5038v-0.4031c-0.84-0.1343-1.747-0.3358-2.628-0.4114-3.242-0.2687-6.483-0.487-9.715-0.7389-3.477-0.2771-6.718 0.8397-9.942 1.7633-1.469 0.403-2.93 0.8396-4.349 1.3602-1.68 0.6298-2.242 1.6122-1.915 3.3587 0.731 3.9632 1.503 7.9096 2.209 11.873 0.565 3.2914 1.097 6.6165 1.595 9.9751 0.311 2.0152-0.252 2.8129-2.242 3.2663-2.346 0.6524-4.733 1.1461-7.146 1.4778-1.92 0.0426-3.84-0.1406-5.718-0.5458-1.503-0.2267-2.972-0.6297-4.45-0.9908-1.478-0.361-2.116-1.016-1.939-2.519 0.327-2.9808 0.764-5.9531 1.284-8.9088 0.79-4.425 1.73-8.8164 2.519-13.241 0.311-1.8137 0.403-3.1067-2.216-3.8456-3.581-1.1651-7.226-2.1239-10.916-2.8717-2.628-0.4282-5.399 0-8.103 0.126-1.822 0.1007-3.635 0.3526-5.449 0.5542-0.596 0.0755-1.176 0.2267-1.763 0.3274 0 0.1008-0.042 0.2015-0.068 0.2855 0.441 0.2567 0.898 0.4839 1.369 0.6801 5.231 1.9984 10.496 3.938 15.718 5.97 1.42 0.5469 2.777 1.245 4.048 2.0824 2.116 1.3854 2.771 3.0731 1.864 5.4326-0.907 2.3594-2.267 4.8112-3.46 7.1959-0.839 1.6037-1.755 3.1319-2.519 4.7608-0.839 2.0068-0.697 3.2159 0.991 4.3411 2.637 1.7717 5.307 3.493 7.935 5.2814 2.049 1.3771 4.055 2.8129 6.079 4.1983 0.165 0.1184 0.317 0.2534 0.453 0.4031 1.68 1.6037 1.806 2.6281 0.252 4.3578-1.644 1.8431-3.393 3.5897-5.239 5.2311-4.072 3.6273-8.917 5.9448-13.972 7.876-0.676 0.2702-1.405 0.3852-2.132 0.3362-0.727-0.05-1.433-0.2621-2.066-0.6217-1.841-0.9396-3.458-2.2643-4.742-3.884-1.283-1.6198-2.204-3.4967-2.698-5.5034-0.671-2.8045 0.269-5.483 1.319-8.0859 0.277-0.6801 0.554-1.3771 0.839-2.0572 0.44-0.8667 0.595-1.8499 0.444-2.8099-0.15-0.9601-0.6-1.8483-1.283-2.5387-2.662-2.9052-5.358-5.7601-8.053-8.6149-2.922-3.1068-5.861-6.1855-8.816-9.2363-1.037-1.1071-1.71-2.5051-1.93-4.0061-0.219-1.501 0.027-3.0331 0.704-4.3905 2.583-4.5347 5.496-8.8735 8.715-12.981 2.318-3.0732 4.77-6.0624 7.104-9.1271 0.226-0.3416 0.558-0.5997 0.945-0.7347 0.386-0.135 0.807-0.1394 1.196-0.0126 4.845 0.8984 9.681 1.8724 14.568 2.519 1.722 0.2099 3.594-0.4115 5.332-0.8901 2.519-0.7053 5.038-1.6289 7.498-2.4518 3.972-1.3099 7.851-0.8397 11.755 0.487 2.936 1.0946 5.937 2.0059 8.985 2.7289 1.746 0.3527 3.686 0 5.5-0.3107 3.938-0.6213 7.842-1.4022 11.755-2.0739 0.215-0.0352 0.435-0.0233 0.645 0.0346 0.211 0.058 0.406 0.1608 0.572 0.3012 5.391 6.7173 10.807 13.393 15.265 20.773 0.261 0.4366 0.479 0.8985 0.748 1.3351 1.931 3.2075 0.923 6.7257-1.344 9.1355z" fill="url(#f)"/>
<path d="m194.02 108.87c-1.419 1.151-2.897 2.217-4.324 3.359-4.517 3.571-9.021 7.154-13.51 10.748-1.923 1.536-2.763 1.587-4.66 0.092-5.962-4.685-11.909-9.385-17.843-14.098-1.503-1.192-1.427-2.242 0.285-3.149 5.786-3.056 11.512-6.2803 17.776-8.3291 0.672-0.2183 1.352-0.3862 2.124-0.6045 1.084 0.3526 2.217 0.6801 3.359 1.0831 5.878 2.1075 11.31 5.1805 16.793 8.0855 1.302 0.706 1.293 1.764 0 2.813z" fill="#fff"/>
<path d="m206.51 74.083c-0.848 0.7673-1.42 1.7915-1.629 2.9154-0.209 1.124-0.044 2.2855 0.47 3.3065 0.738 1.7068 1.363 3.4598 1.873 5.2478 0.403 1.3711 0.497 2.8149 0.273 4.2265-0.224 1.4117-0.759 2.7558-1.566 3.935-1.68 2.519-3.577 4.7525-6.432 6.0036-1.09 0.499-2.332 0.55-3.46 0.1428-7.357-2.4541-13.941-6.7973-19.093-12.595-2.041-2.3343-2.049-3.4762 0.453-5.3571 2.863-2.1579 5.936-4.022 8.909-6.0203 1.679-1.142 3.358-2.2503 5.038-3.451 1.679-1.2008 1.948-2.116 1.091-3.9464-1.2-2.5694-2.695-5.038-3.946-7.557-0.883-1.7448-1.643-3.5488-2.276-5.399-0.304-0.7728-0.328-1.6277-0.067-2.4162s0.79-1.4606 1.495-1.8997c1.811-1.1739 3.728-2.1747 5.726-2.9891 4.929-1.9732 9.925-3.7785 14.879-5.651 0.361-0.1427 0.697-0.3274 1.05-0.5037v-0.4031c-0.84-0.1343-1.747-0.3358-2.628-0.4114-3.242-0.2687-6.483-0.487-9.715-0.7389-3.477-0.2771-6.718 0.8396-9.942 1.7633-1.469 0.403-2.93 0.8396-4.349 1.3602-1.68 0.6298-2.242 1.6122-1.915 3.3587 0.731 3.9632 1.503 7.9096 2.209 11.873 0.565 3.2914 1.097 6.6165 1.595 9.9751 0.311 2.0152-0.252 2.8129-2.242 3.2663-2.346 0.6524-4.733 1.1461-7.146 1.4778-1.92 0.0426-3.84-0.1406-5.718-0.5458-1.503-0.2267-2.972-0.6297-4.45-0.9908-1.478-0.361-2.116-1.016-1.939-2.519 0.327-2.9808 0.764-5.9532 1.284-8.9088 0.79-4.425 1.73-8.8164 2.519-13.241 0.311-1.8137 0.403-3.1067-2.216-3.8456-3.581-1.1651-7.226-2.1239-10.916-2.8717-2.628-0.4282-5.399 0-8.103 0.126-1.822 0.1007-3.635 0.3526-5.449 0.5541-0.596 0.0756-1.176 0.2268-1.763 0.3275 0 0.1008-0.042 0.2015-0.068 0.2855 0.441 0.2567 0.898 0.4839 1.369 0.6801 5.231 1.9984 10.496 3.938 15.718 5.97 1.42 0.5469 2.777 1.245 4.048 2.0824 2.116 1.3854 2.77 3.0731 1.864 5.4326-0.907 2.3594-2.267 4.8112-3.46 7.1958-0.839 1.6038-1.755 3.132-2.519 4.7609-0.839 2.0068-0.697 3.2159 0.991 4.3411 2.637 1.7716 5.307 3.493 7.935 5.2814 2.049 1.3771 4.055 2.8129 6.079 4.1983 0.165 0.1184 0.317 0.2534 0.453 0.4031 1.68 1.6037 1.806 2.6281 0.252 4.3578-1.644 1.8431-3.393 3.5897-5.239 5.2311-4.073 3.6273-8.917 5.9448-13.972 7.876-0.676 0.2702-1.405 0.3852-2.132 0.3362-0.727-0.05-1.433-0.2621-2.066-0.6217-1.841-0.9397-3.458-2.2643-4.742-3.884-1.283-1.6198-2.204-3.4967-2.698-5.5034-0.672-2.8045 0.269-5.483 1.318-8.0859 0.278-0.6801 0.555-1.3771 0.84-2.0572 0.44-0.8667 0.595-1.8499 0.444-2.81-0.15-0.96-0.6-1.8482-1.284-2.5386-2.661-2.9052-5.357-5.7601-8.052-8.6149-2.922-3.1068-5.861-6.1855-8.816-9.2363-1.037-1.1071-1.71-2.5051-1.93-4.0061-0.219-1.501 0.027-3.0331 0.704-4.3905 2.583-4.5347 5.496-8.8735 8.715-12.981 2.318-3.0732 4.77-6.0624 7.104-9.1271 0.226-0.3417 0.558-0.5997 0.945-0.7347 0.386-0.135 0.807-0.1394 1.196-0.0126 4.845 0.8984 9.681 1.8724 14.568 2.5189 1.722 0.21 3.594-0.4114 5.332-0.89 2.519-0.7053 5.038-1.6289 7.498-2.4518 3.972-1.3099 7.851-0.8397 11.755 0.487 2.936 1.0946 5.937 2.0059 8.985 2.7289 1.746 0.3526 3.686 0 5.5-0.3107 3.938-0.6213 7.842-1.4022 11.755-2.0739 0.215-0.0352 0.435-0.0234 0.645 0.0346 0.211 0.058 0.406 0.1607 0.572 0.3012 5.391 6.7173 10.807 13.393 15.265 20.773 0.261 0.4366 0.479 0.8984 0.748 1.3351 2.015 3.3082 1.007 6.8264-1.26 9.2362-5.491 5.525-10.865 11.218-16.264 16.886z" fill="#fff"/>
<path d="m135.07 111.04 0.042 2.468-49.549-16.894-1.4275-1.8641 50.934 16.29z" fill="#fff"/>
<path d="m136.12 106.86c0.018-0.355-0.013-0.711-0.092-1.058-0.188-0.74-0.544-1.427-1.041-2.007-0.566-0.663-1.235-1.23-1.982-1.679-0.874-0.517-1.807-0.929-2.779-1.226l-0.663-0.185c-0.227-0.058-0.454-0.117-0.689-0.159l-0.714-0.143-0.739-0.109-13.51-1.6793-14.131-1.8053-11.067-1.4274c-2.7877-0.3611-4.5006-0.5878-4.551-0.6046l50.934 16.29v2.468l0.84-3.056c0-0.109 0.058-0.227 0.084-0.336 0.025-0.109 0.042-0.226 0.05-0.336 8e-3 -0.109 0-0.218 0-0.327 8e-3 -0.112 8e-3 -0.224 0-0.336v-2.401c0.02 0.037 0.037 0.077 0.05 0.117zm-0.092 0.84c-0.021 0.113-0.049 0.226-0.084 0.336 0.041-0.183 0.069-0.368 0.084-0.555 7e-3 0.073 7e-3 0.146 0 0.219zm0.092-0.655v0.327 0.059c0.023-0.159 0.037-0.318 0.042-0.478l-0.042 0.092z" fill="#fff"/>
<path d="m110.05 122.68c-1.369-1.116-2.932-1.97-4.61-2.519l-21.47-7.356c-1.8092-0.606-3.6943-0.956-5.6005-1.041-1.9683-0.099-3.9413 0.036-5.8776 0.403-1.8932 0.33-3.7378 0.894-5.4914 1.679-1.6442 0.728-3.1609 1.714-4.4922 2.923-1.139 1.009-2.0298 2.267-2.6029 3.677-0.47 1.195-0.5638 2.504-0.2687 3.754 0.3396 1.286 1.0352 2.45 2.0068 3.358 1.2271 1.142 2.6762 2.02 4.257 2.578l21.831 8.212c1.9566 0.717 4.0075 1.144 6.0875 1.268 2.1332 0.132 4.2746-6e-3 6.3728-0.412 2.038-0.372 4.016-1.022 5.878-1.931 1.694-0.809 3.225-1.922 4.517-3.283 1.085-1.12 1.861-2.503 2.251-4.014 0.309-1.31 0.212-2.684-0.278-3.938-0.546-1.309-1.409-2.463-2.51-3.358z" fill="#fff"/>
<path d="m136.86 111.62c1.437 0.437 2.791 1.113 4.005 1.998 0.984 0.719 1.788 1.656 2.351 2.738 0.483 0.974 0.653 2.074 0.487 3.148-0.213 1.194-0.764 2.301-1.587 3.191l-31.462 36.005c-1.133 1.261-2.491 2.301-4.005 3.064-1.632 0.835-3.373 1.434-5.173 1.781-1.8599 0.363-3.7604 0.476-5.6506 0.335-1.8551-0.131-3.6789-0.548-5.4074-1.234l-86.225-35.014c-1.1656-0.431-2.2067-1.144-3.0312-2.074-0.67751-0.77-1.087-1.739-1.1671-2.762-0.050179-1.061 0.20012-2.115 0.72211-3.04 0.65167-1.158 1.5247-2.176 2.5694-2.997l34.812-28.549c1.0756-0.8554 2.2654-1.5563 3.5349-2.0824 1.3516-0.5615 2.7589-0.9781 4.1983-1.2427 1.4625-0.2627 2.9483-0.3725 4.4334-0.3275 1.407 0.0455 2.8018 0.2771 4.148 0.6886l82.447 26.374zm-49.078 26.81c1.9566 0.717 4.0074 1.144 6.0875 1.268 2.1332 0.133 4.2745-6e-3 6.373-0.411 2.038-0.372 4.016-1.022 5.878-1.931 1.693-0.81 3.225-1.922 4.517-3.284 1.085-1.12 1.861-2.503 2.25-4.013 0.31-1.31 0.213-2.684-0.277-3.938-0.538-1.338-1.404-2.519-2.519-3.434-1.369-1.116-2.931-1.97-4.61-2.519l-21.52-7.356c-1.8092-0.606-3.6943-0.956-5.6005-1.041-1.9683-0.099-3.9413 0.036-5.8776 0.403-1.8932 0.33-3.7378 0.894-5.4914 1.679-1.6442 0.728-3.1609 1.714-4.4922 2.923-1.139 1.009-2.0298 2.267-2.603 3.677-0.4699 1.195-0.5637 2.504-0.2686 3.753 0.3396 1.287 1.0352 2.451 2.0068 3.359 1.2271 1.142 2.6762 2.02 4.257 2.578l21.831 8.212" fill="url(#e)"/>
<path d="m143.79 118.65c3e-3 0.7-0.131 1.393-0.395 2.041-0.307 0.73-0.733 1.405-1.259 1.998l-31.479 36.005c-1.133 1.261-2.491 2.301-4.005 3.064-1.632 0.835-3.373 1.434-5.173 1.781-1.8599 0.363-3.7604 0.476-5.6506 0.335-1.8577-0.132-3.6841-0.548-5.4158-1.234l-86.216-35.014c-0.53395-0.209-1.0458-0.47-1.5282-0.781-0.42871-0.271-0.82581-0.589-1.1839-0.948-0.32538-0.321-0.60764-0.682-0.83966-1.075-0.21771-0.37-0.38169-0.768-0.487-1.184l4.3578 16.726c0.11867 0.417 0.29383 0.815 0.52059 1.184 0.23341 0.4 0.51544 0.769 0.83966 1.1 0.35308 0.365 0.74437 0.692 1.1671 0.974 0.47218 0.324 0.97237 0.605 1.4946 0.84l83.823 35.92c1.6632 0.706 3.4299 1.137 5.2311 1.276 1.8272 0.157 3.6673 0.055 5.4663-0.302 1.743-0.337 3.427-0.931 4.996-1.763 1.47-0.77 2.781-1.813 3.862-3.073l30.43-36.299c0.264-0.313 0.503-0.647 0.713-0.999 0.197-0.327 0.365-0.669 0.504-1.024 0.129-0.335 0.227-0.681 0.294-1.033 0.061-0.341 0.089-0.687 0.084-1.033l-0.151-17.482z" fill="url(#d)"/>
<path d="m194.24 131.83 0.772 6.07c-0.155-0.058-0.315-0.103-0.479-0.134-0.169-0.032-0.34-0.054-0.512-0.067h-0.546c-0.184 0-0.369 0.042-0.545 0.075-0.179 0.033-0.355 0.075-0.529 0.126l-0.487 0.193c-0.148 0.073-0.291 0.154-0.429 0.244-0.128 0.084-0.249 0.18-0.361 0.285l-0.839-6.062c0.111-0.106 0.232-0.202 0.361-0.285 0.14-0.091 0.285-0.173 0.436-0.244 0.161-0.074 0.327-0.139 0.496-0.193 0.174-0.055 0.35-0.099 0.529-0.134 0.185 0 0.369-0.051 0.554-0.068h0.546c0.175 0.01 0.349 0.032 0.52 0.068 0.176 0.021 0.348 0.063 0.513 0.126z" fill="#D9CDFE"/>
<path d="m205.73 135.83 0.689 6.113-11.411-4.09-0.772-6.07 11.494 4.047z" fill="#D9CDFE"/>
<path d="m207.61 143c-0.039-0.115-0.093-0.225-0.159-0.327-0.073-0.107-0.161-0.203-0.261-0.285-0.106-0.096-0.221-0.18-0.344-0.252-0.136-0.078-0.279-0.143-0.428-0.193l-0.689-6.113c0.151 0.052 0.297 0.117 0.437 0.193 0.121 0.072 0.236 0.154 0.344 0.243 0.101 0.088 0.191 0.186 0.269 0.294 0.065 0.1 0.118 0.207 0.16 0.319 0.218 2.038 0.442 4.078 0.671 6.121z" fill="#D9CDFE"/>
<path d="m190.31 132.52 0.814 6.062-8.102 7.776-0.907-6.088 8.195-7.75z" fill="#D9CDFE"/>
<path d="m207.66 143.21v-0.1-0.059-0.051c-0.224-2.043-0.448-4.083-0.671-6.121v0.059 0.051 0.05 0.059l0.671 6.112z" fill="#D9CDFE"/>
<path d="m200.14 138.16 0.739 6.121-6.801-2.477-0.789-6.088 6.851 2.444z" fill="#fff"/>
<path d="m193.29 135.71 0.789 6.088-4.794 4.66-0.849-6.104 4.854-4.644z" fill="#fff"/>
<path d="m206.98 137.1 0.671 6.112c0.017 0.1 0.017 0.203 0 0.303-0.012 0.101-0.037 0.199-0.075 0.294-0.045 0.102-0.098 0.2-0.16 0.293-0.071 0.099-0.149 0.192-0.235 0.278l-0.68-6.122c0.086-0.086 0.164-0.178 0.235-0.277 0.063-0.092 0.116-0.191 0.16-0.294 0.039-0.094 0.067-0.193 0.084-0.293 0.012-0.098 0.012-0.197 0-0.294z" fill="#fff"/>
<path d="m182.48 147.64-0.907-6.096c-0.016-0.108-0.016-0.218 0-0.327 0.019-0.112 0.05-0.222 0.093-0.327 0.05-0.113 0.112-0.22 0.185-0.32 0.075-0.11 0.162-0.211 0.26-0.302l0.932 6.088c-0.094 0.094-0.181 0.195-0.26 0.302-0.072 0.102-0.131 0.212-0.177 0.327-0.042 0.106-0.073 0.216-0.092 0.328-0.028 0.107-0.04 0.217-0.034 0.327z" fill="#D9CDFE"/>
<path d="m182.48 147.64-0.907-6.096v0.101c0.028 0.12 0.077 0.233 0.143 0.336 0.066 0.11 0.148 0.209 0.244 0.294 0.101 0.097 0.214 0.182 0.336 0.252 0.134 0.079 0.274 0.146 0.419 0.201l0.899 6.105c-0.145-0.056-0.286-0.123-0.42-0.202-0.12-0.075-0.233-0.162-0.336-0.26-0.09-0.088-0.169-0.187-0.235-0.294-0.066-0.103-0.115-0.217-0.143-0.336v-0.101z" fill="#fff"/>
<path d="m195.32 142.87 0.789 6.13-6.826-2.536-0.849-6.104 6.886 2.51z" fill="#D9CDFE"/>
<path d="m200.14 138.16 0.739 6.121-4.769 4.719-0.789-6.13 4.819-4.71z" fill="#D9CDFE"/>
<path d="m188.44 140.36 4.854-4.644 6.851 2.444-4.819 4.71-6.886-2.51z" fill="url(#c)"/>
<path d="m206.5 138.26 0.68 6.122-7.994 8.01-0.772-6.146 8.086-7.986z" fill="#fff"/>
<path d="m194.35 147.01 0.806 6.146-11.512-4.324-0.898-6.105 11.604 4.283z" fill="#fff"/>
<path d="m198.41 146.24 0.772 6.146c-0.116 0.112-0.239 0.216-0.369 0.311-0.142 0.095-0.291 0.179-0.445 0.251-0.162 0.084-0.331 0.154-0.504 0.21-0.179 0.058-0.361 0.103-0.546 0.135-0.188 0.041-0.379 0.066-0.571 0.075h-0.562c-0.185 0-0.361 0-0.538-0.075-0.168-0.035-0.334-0.083-0.495-0.143l-0.84-6.146c0.164 0.061 0.332 0.109 0.504 0.142 0.18 0.036 0.362 0.059 0.546 0.068 0.187 0.012 0.375 0.012 0.562 0 0.193 0 0.387-0.042 0.571-0.076 0.188-0.034 0.374-0.081 0.554-0.143 0.174-0.058 0.345-0.125 0.513-0.201 0.155-0.075 0.303-0.162 0.445-0.261 0.143-0.085 0.278-0.183 0.403-0.293z" fill="#fff"/>
<path d="m212.66 137.39 0.629 6.129c0.059 0.613 0.042 1.23-0.05 1.839-0.096 0.642-0.268 1.271-0.512 1.872-0.265 0.659-0.6 1.286-0.999 1.873-0.444 0.653-0.947 1.263-1.503 1.822-1.53 1.522-3.311 2.769-5.265 3.686-2.116 1.011-4.354 1.742-6.658 2.175-2.36 0.447-4.766 0.6-7.163 0.453-2.297-0.13-4.562-0.605-6.717-1.411-1.033-0.387-2.023-0.88-2.956-1.469-0.81-0.515-1.554-1.127-2.216-1.822-0.596-0.614-1.097-1.313-1.487-2.074-0.364-0.709-0.614-1.471-0.738-2.259l-0.958-6.087c0.124 0.782 0.373 1.539 0.739 2.242 0.393 0.759 0.897 1.455 1.495 2.065 0.668 0.694 1.421 1.301 2.242 1.806 0.937 0.589 1.933 1.079 2.972 1.461 2.182 0.801 4.472 1.271 6.793 1.393 2.417 0.142 4.843-0.016 7.221-0.47 2.323-0.434 4.58-1.165 6.717-2.175 1.969-0.913 3.767-2.157 5.315-3.677 0.564-0.558 1.073-1.168 1.52-1.822 0.403-0.591 0.743-1.221 1.016-1.881 0.242-0.6 0.417-1.225 0.521-1.864 0.091-0.598 0.105-1.204 0.042-1.805z" fill="#fff"/>
<path d="m204.65 129.25c1.842 0.603 3.552 1.552 5.038 2.796 1.213 1.012 2.128 2.336 2.645 3.829 0.476 1.428 0.491 2.971 0.042 4.408-0.551 1.705-1.517 3.246-2.813 4.484-1.548 1.52-3.346 2.764-5.315 3.677-2.137 1.01-4.394 1.741-6.717 2.175-2.378 0.454-4.804 0.612-7.221 0.47-2.321-0.122-4.611-0.592-6.793-1.393-1.853-0.658-3.55-1.69-4.987-3.032-1.15-1.081-1.968-2.467-2.36-3.996-0.338-1.469-0.224-3.006 0.328-4.409 0.67-1.656 1.716-3.133 3.056-4.315 1.56-1.421 3.338-2.583 5.265-3.443 2.054-0.927 4.214-1.6 6.431-2.007 2.261-0.42 4.563-0.578 6.86-0.47 2.227 0.104 4.428 0.516 6.541 1.226zm-6.238 16.995 8.086-7.986c0.099-0.1 0.189-0.21 0.268-0.327 0.07-0.111 0.126-0.229 0.168-0.353 0.073-0.226 0.073-0.47 0-0.697-0.041-0.112-0.095-0.219-0.159-0.319-0.078-0.108-0.168-0.206-0.269-0.294-0.108-0.089-0.224-0.171-0.344-0.243-0.14-0.076-0.286-0.141-0.437-0.193l-11.486-4.005c-0.157-0.061-0.321-0.103-0.487-0.126-0.172-0.036-0.346-0.058-0.521-0.068h-0.546c-0.185 0-0.369 0-0.554 0.068-0.179 0.035-0.355 0.079-0.529 0.134-0.169 0.054-0.334 0.119-0.495 0.193-0.151 0.071-0.297 0.153-0.437 0.244-0.129 0.083-0.25 0.179-0.361 0.285l-8.195 7.75c-0.106 0.097-0.199 0.207-0.277 0.328-0.079 0.104-0.142 0.22-0.185 0.344-0.048 0.115-0.076 0.237-0.084 0.361-0.021 0.114-0.021 0.23 0 0.344 0.028 0.12 0.076 0.233 0.143 0.336 0.066 0.11 0.148 0.209 0.243 0.294 0.102 0.097 0.215 0.182 0.336 0.252 0.134 0.079 0.275 0.146 0.42 0.201l11.604 4.283c0.164 0.061 0.332 0.109 0.504 0.142 0.18 0.036 0.362 0.059 0.546 0.068 0.187 0.012 0.375 0.012 0.562 0 0.193 0 0.387-0.042 0.571-0.076 0.188-0.034 0.374-0.081 0.554-0.143 0.174-0.058 0.345-0.125 0.513-0.201 0.155-0.075 0.303-0.162 0.445-0.261 0.132-0.089 0.255-0.19 0.369-0.302" fill="url(#b)"/>
<path d="m206.94 136.86c0.072 0.226 0.072 0.47 0 0.696-0.042 0.124-0.099 0.243-0.168 0.353-0.08 0.117-0.17 0.227-0.269 0.328l-8.086 7.985c-0.114 0.112-0.237 0.213-0.369 0.302-0.142 0.098-0.29 0.185-0.445 0.26-0.168 0.076-0.339 0.143-0.513 0.202-0.181 0.061-0.366 0.109-0.554 0.143-0.185 0-0.378 0.058-0.571 0.075-0.187 0.013-0.375 0.013-0.562 0-0.184-9e-3 -0.366-0.031-0.546-0.067-0.172-0.034-0.34-0.081-0.504-0.143l-11.612-4.257c-0.146-0.055-0.286-0.123-0.42-0.201-0.122-0.071-0.235-0.155-0.336-0.252-0.095-0.086-0.177-0.185-0.244-0.294-0.066-0.103-0.114-0.217-0.142-0.336-0.022-0.114-0.022-0.23 0-0.344 8e-3 -0.124 0.036-0.246 0.084-0.361 0.043-0.124 0.105-0.24 0.184-0.345 0.078-0.12 0.171-0.23 0.277-0.327l8.196-7.75c0.111-0.106 0.232-0.202 0.361-0.286 0.139-0.091 0.285-0.172 0.436-0.243 0.161-0.074 0.327-0.139 0.496-0.193 0.173-0.055 0.35-0.1 0.529-0.135 0.184 0 0.369-0.05 0.554-0.067h0.546c0.175 0.01 0.349 0.032 0.52 0.067 0.167 0.023 0.33 0.066 0.487 0.126l11.445 4.031c0.15 0.052 0.296 0.117 0.436 0.193 0.121 0.072 0.236 0.154 0.345 0.243 0.1 0.088 0.19 0.186 0.268 0.294 0.07 0.094 0.129 0.196 0.177 0.303zm-11.621 5.986 4.819-4.702-6.851-2.452-4.853 4.644 6.885 2.519" fill="#fff"/>
<path d="m160.91 149c-0.41-0.146-0.841-0.228-1.276-0.244-0.444-0.026-0.889 2e-3 -1.327 0.084-0.428 0.082-0.845 0.214-1.242 0.395-0.366 0.17-0.704 0.397-0.999 0.671l-0.983-7.867c0.298-0.277 0.638-0.504 1.008-0.672 0.4-0.18 0.82-0.313 1.251-0.394 0.443-0.081 0.893-0.112 1.343-0.093 0.437 0.024 0.869 0.106 1.285 0.244 0.311 2.628 0.621 5.248 0.94 7.876z" fill="#D9CDFE"/>
<path d="m162.41 150.53c-0.02-0.16-0.065-0.316-0.134-0.462-0.082-0.153-0.184-0.294-0.303-0.42-0.136-0.137-0.288-0.258-0.453-0.361-0.192-0.113-0.395-0.209-0.605-0.285-0.319-2.628-0.629-5.248-0.94-7.876 0.211 0.074 0.413 0.17 0.605 0.285 0.168 0.1 0.323 0.222 0.461 0.361 0.121 0.125 0.223 0.266 0.303 0.42 0.072 0.141 0.118 0.295 0.134 0.453 0.285 2.368 0.655 5.525 0.932 7.885z" fill="#D9CDFE"/>
<path d="m142.17 152.52c-0.12 0.113-0.23 0.237-0.327 0.37-0.084 0.12-0.155 0.25-0.21 0.386-0.056 0.125-0.093 0.258-0.109 0.395-0.017 0.125-0.017 0.252 0 0.377l-1.117-7.859c-0.017-0.128-0.017-0.258 0-0.386 0.019-0.132 0.053-0.262 0.101-0.386 0.06-0.133 0.133-0.26 0.218-0.378 0.099-0.134 0.209-0.261 0.327-0.378 0.37 2.62 0.748 5.239 1.117 7.859-0.369-2.62-0.747-5.239-1.117-7.859 0.303-0.278 0.649-0.505 1.025-0.672 0.401-0.185 0.824-0.318 1.259-0.394 0.443-0.085 0.894-0.116 1.344-0.093 0.432 0.02 0.859 0.102 1.268 0.244l1.066 7.859c-0.404-0.147-0.829-0.229-1.259-0.243-0.444-0.027-0.89 1e-3 -1.327 0.083-0.431 0.082-0.851 0.215-1.251 0.395-0.37 0.171-0.711 0.401-1.008 0.68z" fill="#D9CDFE"/>
<path d="m161.48 142.64 0.932 7.885c0.021 0.119 0.021 0.241 0 0.361-0.018 0.127-0.052 0.251-0.101 0.369-0.051 0.127-0.116 0.248-0.193 0.361-0.089 0.128-0.19 0.246-0.302 0.353l-0.941-7.884c0.111-0.109 0.212-0.227 0.303-0.353 0.08-0.113 0.147-0.234 0.201-0.361 0.052-0.118 0.089-0.242 0.109-0.37 0.014-0.12 0.012-0.241-8e-3 -0.361z" fill="#fff"/>
<path d="m151.31 145.67 1.024 7.876-5.315-1.94-1.066-7.859 5.357 1.923z" fill="#D9CDFE"/>
<path d="m155.08 142.04 0.983 7.867-3.737 3.645-1.024-7.876 3.778-3.636z" fill="#D9CDFE"/>
<path d="m141.52 154.05c-0.37-2.619-0.748-5.239-1.117-7.859 0.02 0.152 0.066 0.3 0.134 0.437 0.08 0.144 0.178 0.277 0.294 0.394 0.129 0.135 0.276 0.251 0.437 0.345 0.179 0.114 0.37 0.207 0.571 0.277l1.117 7.876c-0.199-0.076-0.39-0.168-0.571-0.277-0.16-0.1-0.306-0.218-0.437-0.353-0.115-0.119-0.212-0.255-0.286-0.403-0.072-0.136-0.12-0.284-0.142-0.437z" fill="#fff"/>
<path d="m159.97 141.12c0.356 0.118 0.684 0.306 0.966 0.554 0.227 0.195 0.398 0.447 0.495 0.73 0.084 0.274 0.084 0.566 0 0.84-0.113 0.321-0.304 0.609-0.554 0.84l-3.779 3.694-5.793-2.074 3.778-3.636c0.298-0.276 0.638-0.503 1.008-0.671 0.4-0.181 0.82-0.313 1.251-0.395 0.443-0.081 0.893-0.112 1.343-0.092 0.436 0.013 0.868 0.084 1.285 0.21z" fill="#fff"/>
<path d="m160.86 144.09 0.94 7.884-3.728 3.678-0.974-7.901 3.762-3.661z" fill="#fff"/>
<path d="m157.1 147.75 0.974 7.901-5.743-2.099-1.024-7.876 5.793 2.074z" fill="#fff"/>
<path d="m162.57 149.7 0.932 7.918-5.425-1.973-0.974-7.901 5.467 1.956z" fill="#D9CDFE"/>
<path d="m147.22 149.59 1.066 7.893-3.829 3.736-1.108-7.909 3.871-3.72z" fill="#D9CDFE"/>
<path d="m143.81 162.79c-0.37-2.636-0.748-5.273-1.117-7.909-0.017-0.129-0.017-0.258 0-0.387 0.016-0.138 0.053-0.274 0.109-0.403 0.055-0.14 0.128-0.273 0.218-0.394 0.097-0.139 0.207-0.268 0.328-0.386l1.117 7.909c-0.244 0.211-0.431 0.48-0.546 0.781-0.055 0.126-0.092 0.259-0.109 0.395-0.017 0.131-0.017 0.263 0 0.394z" fill="#D9CDFE"/>
<path d="m143.81 162.79c-0.37-2.636-0.748-5.273-1.117-7.909 0.022 0.158 0.07 0.311 0.143 0.453 0.079 0.152 0.178 0.293 0.293 0.42 0.136 0.133 0.285 0.251 0.445 0.353 0.188 0.116 0.388 0.212 0.597 0.285 0.418 0.153 0.857 0.24 1.301 0.26 0.915 0.058 1.829-0.112 2.662-0.495 0.38-0.182 0.731-0.419 1.041-0.705l1.058 7.926c-0.304 0.286-0.649 0.524-1.024 0.705-0.407 0.19-0.836 0.328-1.277 0.412-0.451 0.082-0.91 0.11-1.368 0.084-0.439-0.02-0.873-0.108-1.285-0.261-0.206-0.077-0.402-0.176-0.588-0.293-0.162-0.102-0.312-0.224-0.445-0.361-0.115-0.124-0.214-0.263-0.294-0.412-0.071-0.145-0.119-0.301-0.142-0.462z" fill="#fff"/>
<path d="m143.35 153.31 3.871-3.72 5.81 2.107-3.854 3.754c-0.31 0.286-0.661 0.523-1.041 0.705-0.833 0.383-1.747 0.553-2.662 0.495-0.444-0.02-0.883-0.107-1.301-0.26-0.361-0.122-0.692-0.316-0.974-0.571-0.224-0.213-0.387-0.483-0.471-0.781-0.068-0.278-0.054-0.57 0.042-0.839 0.119-0.339 0.318-0.644 0.58-0.89z" fill="#fff"/>
<path d="m148.13 156.18c0.38-0.182 0.731-0.42 1.041-0.706l0.327 2.519 4.543 1.68-1.016-7.918-5.81-2.108 0.89 6.575 0.025-0.042z" fill="#fff"/>
<path d="m164.11 151.28 0.915 7.934c-0.019-0.165-0.065-0.327-0.135-0.478-0.08-0.161-0.185-0.308-0.31-0.437-0.135-0.148-0.291-0.275-0.462-0.378-0.196-0.122-0.404-0.223-0.621-0.302l-0.932-7.918c0.216 0.076 0.425 0.174 0.621 0.294 0.172 0.106 0.33 0.233 0.47 0.378 0.126 0.125 0.231 0.27 0.311 0.428 0.074 0.15 0.122 0.312 0.143 0.479z" fill="#D9CDFE"/>
<path d="m162.57 149.7c0.363 0.121 0.7 0.312 0.99 0.563 0.231 0.207 0.404 0.47 0.504 0.764 0.083 0.273 0.083 0.566 0 0.839-0.113 0.321-0.303 0.61-0.554 0.84-0.297 0.287-0.641 0.523-1.016 0.697-0.832 0.385-1.747 0.555-2.662 0.495-0.444-0.021-0.883-0.108-1.301-0.26l-5.483-1.99-5.811-2.108-5.373-1.948c-0.348-0.119-0.668-0.308-0.941-0.554-0.223-0.2-0.386-0.459-0.47-0.747-0.067-0.279-0.049-0.571 0.05-0.84 0.124-0.32 0.319-0.607 0.571-0.839 0.303-0.278 0.649-0.505 1.025-0.672 0.401-0.185 0.824-0.318 1.259-0.395 0.443-0.085 0.894-0.116 1.344-0.092 0.432 0.019 0.859 0.101 1.267 0.243l5.358 1.923 5.793 2.074 5.45 2.007z" fill="#fff"/>
<path d="m164.11 151.28 0.915 7.934c0.017 0.123 0.017 0.247 0 0.37-0.018 0.129-0.052 0.256-0.101 0.378-0.054 0.129-0.122 0.253-0.202 0.369-0.088 0.13-0.189 0.251-0.302 0.361-0.295 0.29-0.639 0.525-1.016 0.697-0.399 0.195-0.822 0.333-1.259 0.411-0.451 0.086-0.911 0.117-1.369 0.093-0.442-0.028-0.877-0.118-1.293-0.269l-0.974-7.968c0.418 0.151 0.857 0.239 1.301 0.26 0.915 0.06 1.83-0.111 2.662-0.495 0.375-0.174 0.719-0.41 1.016-0.697 0.113-0.112 0.217-0.233 0.311-0.361 0.078-0.117 0.146-0.241 0.201-0.37 0.05-0.121 0.083-0.248 0.101-0.378 0.013-0.111 0.016-0.223 9e-3 -0.335z" fill="#fff"/>
<path d="m153.03 151.71 1.016 7.909-3.812 3.762-1.058-7.926 3.854-3.745z" fill="#fff"/>
<path d="m175.92 146.26 0.84 7.927c0.077 0.791 0.057 1.589-0.059 2.376-0.123 0.83-0.345 1.642-0.663 2.418-0.347 0.849-0.78 1.659-1.293 2.418-0.574 0.844-1.223 1.634-1.94 2.36-1.979 1.967-4.282 3.578-6.81 4.761-2.746 1.305-5.655 2.237-8.648 2.771-3.042 0.581-6.145 0.782-9.236 0.596-2.982-0.152-5.923-0.755-8.724-1.789-1.333-0.504-2.61-1.143-3.812-1.906-1.052-0.664-2.019-1.453-2.881-2.351-0.764-0.8-1.411-1.705-1.922-2.687-0.47-0.915-0.793-1.898-0.958-2.913l-1.234-7.876c0.163 1.013 0.486 1.993 0.957 2.905 0.517 0.975 1.167 1.874 1.932 2.67 0.87 0.89 1.842 1.673 2.896 2.334 1.217 0.755 2.505 1.387 3.846 1.89 2.824 1.027 5.783 1.632 8.783 1.796 3.128 0.185 6.267-0.018 9.345-0.604 3.008-0.563 5.931-1.508 8.699-2.813 2.546-1.182 4.871-2.79 6.877-4.752 0.726-0.72 1.381-1.507 1.956-2.352 0.522-0.754 0.961-1.562 1.31-2.409 0.321-0.774 0.546-1.583 0.672-2.41 0.123-0.781 0.145-1.573 0.067-2.36z" fill="#fff"/>
<path d="m165.56 135.73c2.382 0.77 4.593 1.997 6.507 3.611 1.569 1.307 2.753 3.017 3.426 4.945 0.612 1.848 0.632 3.841 0.059 5.701-0.71 2.207-1.96 4.201-3.636 5.803-2.006 1.962-4.331 3.57-6.877 4.752-2.768 1.305-5.691 2.25-8.699 2.813-3.078 0.586-6.217 0.789-9.345 0.604-3-0.164-5.959-0.769-8.783-1.796-2.396-0.854-4.591-2.192-6.449-3.93-1.485-1.396-2.539-3.188-3.039-5.164-0.446-1.896-0.299-3.883 0.42-5.693 0.863-2.14 2.211-4.052 3.938-5.584 2.021-1.831 4.319-3.33 6.809-4.441 2.658-1.203 5.452-2.077 8.321-2.603 2.923-0.545 5.898-0.748 8.867-0.605 2.887 0.131 5.742 0.665 8.481 1.587zm-7.045 17.927c0.418 0.151 0.857 0.239 1.301 0.26 0.915 0.06 1.83-0.111 2.662-0.495 0.375-0.174 0.719-0.41 1.016-0.697 0.251-0.23 0.441-0.519 0.554-0.84 0.083-0.274 0.083-0.566 0-0.84-0.099-0.293-0.273-0.556-0.503-0.764-0.291-0.25-0.628-0.441-0.991-0.562l-5.45-1.94 3.762-3.661c0.251-0.23 0.441-0.518 0.554-0.839 0.084-0.274 0.084-0.566 0-0.84-0.097-0.283-0.268-0.536-0.495-0.731-0.282-0.247-0.61-0.435-0.966-0.554-0.415-0.137-0.847-0.219-1.284-0.243-0.45-0.02-0.901 0.011-1.344 0.092-0.431 0.082-0.851 0.214-1.251 0.395-0.37 0.168-0.71 0.395-1.008 0.671l-3.778 3.636-5.357-1.923c-0.409-0.142-0.836-0.224-1.268-0.243-0.45-0.024-0.901 7e-3 -1.343 0.092-0.435 0.077-0.859 0.21-1.26 0.395-0.375 0.167-0.721 0.394-1.024 0.672-0.253 0.232-0.448 0.519-0.571 0.839-0.1 0.269-0.118 0.561-0.051 0.84 0.084 0.288 0.247 0.547 0.471 0.747 0.273 0.246 0.592 0.435 0.94 0.554l5.374 1.948-3.871 3.72c-0.255 0.232-0.453 0.519-0.579 0.84-0.096 0.27-0.111 0.561-0.042 0.839 0.084 0.298 0.246 0.568 0.47 0.781 0.282 0.255 0.614 0.449 0.974 0.571 0.418 0.153 0.857 0.241 1.301 0.261 0.915 0.057 1.829-0.113 2.662-0.496 0.381-0.181 0.732-0.419 1.041-0.705l3.854-3.753 5.483 1.99" fill="url(#a)"/>
<path d="m142.79 154.1s0-0.059 0.042-0.084c0.01-0.03 0.024-0.058 0.042-0.084l0.05-0.092 0.059-0.093 0.134-0.168 0.076-0.084 0.084-0.092 3.87-3.72-5.373-1.948 0.923 6.533 0.093-0.168z" fill="url(#k)"/>
<path d="m158.51 153.69 0.974 7.935-5.441-2.007-1.016-7.909 5.483 1.981z" fill="url(#j)"/>
</g>
</g>
<defs>
<linearGradient id="l" x1="173.85" x2="173.85" y1="-.98518" y2="157.51" gradientUnits="userSpaceOnUse">
<stop stop-color="#D9CDFE" offset="0"/>
<stop stop-color="#A78AFE" offset="1"/>
</linearGradient>
<linearGradient id="i" x1="-21370" x2="-22639" y1="-9267" y2="-12060" gradientUnits="userSpaceOnUse">
<stop stop-color="#D9CDFE" offset="0"/>
<stop stop-color="#A78AFE" offset="1"/>
</linearGradient>
<linearGradient id="h" x1="-21958" x2="-24261" y1="-13893" y2="-17399" gradientUnits="userSpaceOnUse">
<stop stop-color="#D9CDFE" offset="0"/>
<stop stop-color="#A78AFE" offset="1"/>
</linearGradient>
<linearGradient id="g" x1="21.276" x2="126.08" y1="101.36" y2="159.42" gradientUnits="userSpaceOnUse">
<stop stop-color="#EBEAF7" offset="0"/>
<stop stop-color="#D9CDFE" offset="1"/>
</linearGradient>
<linearGradient id="f" x1="173.84" x2="173.84" y1="-.9824" y2="157.07" gradientUnits="userSpaceOnUse">
<stop stop-color="#4C58CB" offset="0"/>
<stop stop-color="#68319E" offset="1"/>
</linearGradient>
<linearGradient id="e" x1="37.457" x2="96.737" y1="71.85" y2="155.54" gradientUnits="userSpaceOnUse">
<stop stop-color="#D34255" offset="0"/>
<stop stop-color="#97358A" offset="1"/>
</linearGradient>
<linearGradient id="d" x1="5919.8" x2="8594.8" y1="5670.3" y2="14280" gradientUnits="userSpaceOnUse">
<stop stop-color="#D34255" offset="0"/>
<stop stop-color="#97358A" offset="1"/>
</linearGradient>
<linearGradient id="c" x1="2527.9" x2="2733.3" y1="1029.4" y2="1465.8" gradientUnits="userSpaceOnUse">
<stop stop-color="#4C58CB" offset="0"/>
<stop stop-color="#68319E" offset="1"/>
</linearGradient>
<linearGradient id="b" x1="7510.2" x2="8188.1" y1="3022.4" y2="4418.4" gradientUnits="userSpaceOnUse">
<stop stop-color="#4C58CB" offset="0"/>
<stop stop-color="#68319E" offset="1"/>
</linearGradient>
<linearGradient id="a" x1="7859.4" x2="8735.6" y1="4727.8" y2="6532.8" gradientUnits="userSpaceOnUse">
<stop stop-color="#4C58CB" offset="0"/>
<stop stop-color="#68319E" offset="1"/>
</linearGradient>
<linearGradient id="k" x1="978.75" x2="1221.6" y1="1185.8" y2="1445.2" gradientUnits="userSpaceOnUse">
<stop stop-color="#4C58CB" offset="0"/>
<stop stop-color="#68319E" offset="1"/>
</linearGradient>
<linearGradient id="j" x1="1195.4" x2="1559.7" y1="1684.1" y2="1992.1" gradientUnits="userSpaceOnUse">
<stop stop-color="#4C58CB" offset="0"/>
<stop stop-color="#68319E" offset="1"/>
</linearGradient>
<clipPath id="n">
<rect width="240" height="182.24" fill="#fff"/>
</clipPath>
<clipPath id="m">
<rect width="240" height="181.74" fill="#fff"/>
</clipPath>
</defs>
</svg>
