<svg width="240" height="183" viewBox="0 0 240 183" fill="none" xmlns="http://www.w3.org/2000/svg">
<g clip-path="url(#clip0)">
<path d="M239.765 49.6798C238.399 45.857 237.058 42.0201 235.743 38.1692C235.609 37.7277 235.624 37.2543 235.785 36.822C236.784 34.2959 237.825 31.7698 238.883 29.1932C238.998 28.9919 239.038 28.7566 238.996 28.5287C238.955 28.3008 238.834 28.0948 238.657 27.947C235.298 24.5199 232.057 21.0339 228.682 17.649C226.818 15.7712 224.358 15.0639 221.805 14.7103C218.534 14.3648 215.229 14.5668 212.023 15.3081C211.828 15.3373 211.628 15.3255 211.438 15.2733C211.247 15.2211 211.069 15.1297 210.915 15.005C206.608 10.1801 202.351 5.31321 198.069 0.437856C197.977 0.304887 197.908 0.156675 197.867 0L149.857 0C147.825 2.36611 145.802 4.74063 143.753 7.0899C141.57 9.61599 139.32 12.041 137.187 14.5924C136.943 14.913 136.608 15.1531 136.227 15.2821C135.845 15.4111 135.434 15.4231 135.046 15.3165C132.582 14.9213 130.094 14.6934 127.599 14.6345C124.866 14.513 122.172 15.3167 119.95 16.9164C118.539 18.0851 117.212 19.3513 115.978 20.7055C115.139 21.5476 114.383 22.3475 113.594 23.1811L109.202 27.787C108.951 27.9781 108.777 28.253 108.711 28.562C108.645 28.8709 108.691 29.1934 108.841 29.4711C109.866 31.8288 110.84 34.2117 111.746 36.6283C111.954 37.2166 111.975 37.855 111.805 38.4555C110.546 42.2026 109.194 45.9328 107.926 49.6882C107.689 50.3432 107.634 51.0504 107.767 51.7344C110.344 61.7293 112.972 71.7073 115.575 81.6938C117.028 87.2428 118.472 92.8086 119.924 98.3492C121.189 103.216 122.463 108.08 123.745 112.942C123.98 113.784 124.232 114.701 124.492 115.569C125.432 119.013 126.935 122.277 128.942 125.227C129.429 125.909 129.941 126.549 130.479 127.163C131.864 128.713 133.396 130.123 135.055 131.374C135.894 132.022 136.734 132.637 137.632 133.243C137.758 133.327 137.884 133.411 138.002 133.504C138.11 133.583 138.222 133.656 138.338 133.723L140.294 135.07C140.47 135.188 140.655 135.323 140.848 135.441C146.205 139.112 151.57 142.777 156.944 146.438L163.081 150.648L163.812 151.144L164.509 151.608C164.568 151.657 164.633 151.7 164.702 151.734C166.49 152.93 168.304 154.075 170.143 155.195C170.95 155.744 171.87 156.104 172.835 156.25C173.8 156.396 174.785 156.323 175.718 156.037C176.352 155.832 176.959 155.549 177.523 155.195C177.691 155.085 177.876 154.976 178.044 154.858C179.936 153.651 181.816 152.438 183.686 151.22L184.332 150.799L184.61 150.614L184.736 150.538C186.507 149.385 188.27 148.197 190.017 147.01C190.134 146.943 190.243 146.859 190.353 146.783L190.806 146.48L191.05 146.311C193.613 144.565 196.171 142.814 198.724 141.057C203.107 138.042 207.487 135.014 211.864 131.971C217.817 127.845 221.419 122.094 223.258 115.131C224.87 108.99 226.488 102.848 228.111 96.7072C228.388 95.6378 228.673 94.5684 228.95 93.4991C232.578 79.6673 236.216 65.8327 239.866 51.9954C240.086 51.2333 240.051 50.4197 239.765 49.6798V49.6798ZM194.022 109.152C192.603 110.306 191.125 111.375 189.698 112.521C185.181 116.102 180.677 119.695 176.188 123.299C174.265 124.839 173.426 124.89 171.528 123.391C165.567 118.693 159.619 113.98 153.686 109.253C152.183 108.058 152.259 107.005 153.971 106.096C159.757 103.031 165.483 99.7975 171.746 97.7429C172.418 97.524 173.098 97.3556 173.871 97.1366C174.954 97.4903 176.087 97.8187 177.229 98.2229C183.107 100.336 188.539 103.418 194.022 106.332C195.323 107.064 195.315 108.125 194.022 109.178V109.152ZM222.687 57.2581C217.28 62.9249 211.906 68.6339 206.507 74.3176C205.658 75.0863 205.085 76.1134 204.876 77.2409C204.667 78.3683 204.833 79.5335 205.348 80.5571C206.086 82.2687 206.711 84.0266 207.221 85.8197C207.624 87.1947 207.718 88.6425 207.494 90.0581C207.27 91.4738 206.735 92.8218 205.928 94.0043C204.249 96.5304 202.351 98.7702 199.496 100.025C198.406 100.525 197.164 100.576 196.037 100.168C188.679 97.7091 182.094 93.3533 176.944 87.5375C174.903 85.1966 174.895 84.0515 177.397 82.1653C180.26 80.0013 183.333 78.132 186.306 76.128C187.985 74.9828 189.664 73.8713 191.343 72.6672C193.023 71.4631 193.291 70.5453 192.435 68.7097C191.234 66.1331 189.74 63.6575 188.489 61.1314C187.606 59.3817 186.846 57.5726 186.213 55.7172C185.901 54.9393 185.872 54.0756 186.134 53.2789C186.395 52.4822 186.929 51.8039 187.641 51.3639C189.45 50.1849 191.368 49.1812 193.367 48.3662C198.296 46.3875 203.291 44.5771 208.245 42.6994C208.606 42.5562 208.942 42.371 209.295 42.1941V41.79C208.455 41.6552 207.548 41.4532 206.667 41.3774C203.426 41.1079 200.185 40.889 196.952 40.6364C193.476 40.3585 190.235 41.4784 187.011 42.4047C185.542 42.8088 184.081 43.2467 182.662 43.7687C180.982 44.4003 180.42 45.3854 180.747 47.1369C181.478 51.1112 182.25 55.0688 182.955 59.0432C183.515 62.3439 184.047 65.6784 184.551 69.0465C184.861 71.0674 184.299 71.8673 182.309 72.322C179.963 72.9747 177.576 73.4698 175.164 73.804C173.243 73.8457 171.324 73.662 169.446 73.2567C167.943 73.0293 166.474 72.6251 164.996 72.2631C163.518 71.901 162.88 71.2442 163.056 69.737C163.384 66.7478 163.82 63.767 164.341 60.803C165.13 56.3655 166.071 51.9617 166.86 47.5242C167.17 45.7054 167.263 44.4087 164.643 43.6677C161.063 42.4993 157.418 41.5378 153.728 40.788C151.1 40.3585 148.329 40.788 145.626 40.9143C143.804 41.0153 141.99 41.2679 140.176 41.47C139.58 41.5458 139.001 41.6973 138.413 41.7984C138.405 41.8966 138.382 41.993 138.346 42.0847C138.785 42.3455 139.242 42.5734 139.715 42.7667C144.945 44.7708 150.21 46.7159 155.432 48.7536C156.852 49.302 158.209 50.0021 159.479 50.8418C161.595 52.2312 162.25 53.9236 161.343 56.2897C160.437 58.6558 159.076 61.1146 157.884 63.5059C157.044 65.1142 156.129 66.6467 155.365 68.2802C154.526 70.2927 154.668 71.5052 156.356 72.6335C158.992 74.4102 161.662 76.1364 164.291 77.9299C166.339 79.3109 168.346 80.7507 170.369 82.1401C170.532 82.2608 170.684 82.3961 170.823 82.5442C172.502 84.1525 172.628 85.1798 171.075 86.9144C169.433 88.7647 167.683 90.5164 165.835 92.1602C161.763 95.7978 156.919 98.1218 151.864 100.058C151.188 100.33 150.459 100.445 149.732 100.395C149.006 100.346 148.299 100.133 147.666 99.7722C145.822 98.8326 144.203 97.5052 142.917 95.8806C141.632 94.256 140.711 92.3723 140.218 90.3583C139.547 87.5459 140.487 84.8598 141.537 82.2495C141.814 81.5675 142.091 80.8686 142.376 80.1866C142.814 79.3171 142.969 78.3314 142.818 77.369C142.668 76.4065 142.219 75.5158 141.537 74.8228C138.883 71.9094 136.188 69.0465 133.501 66.1836C130.579 63.0681 127.641 59.9806 124.685 56.9213C123.648 55.811 122.975 54.4091 122.756 52.9038C122.537 51.3986 122.782 49.8622 123.459 48.501C126.038 43.9509 128.952 39.5997 132.175 35.4832C134.492 32.4013 136.944 29.4037 139.278 26.3303C139.503 25.9866 139.835 25.727 140.222 25.5915C140.609 25.456 141.03 25.4523 141.419 25.5809C146.264 26.4819 151.1 27.4586 155.987 28.107C157.666 28.3175 159.58 27.6944 161.318 27.2144C163.837 26.5071 166.356 25.5809 168.816 24.7557C172.788 23.4421 176.667 23.9137 180.571 25.2441C183.506 26.3414 186.507 27.2553 189.555 27.9807C191.392 28.2073 193.255 28.1018 195.055 27.6691C198.992 27.046 202.897 26.2629 206.809 25.5893C207.025 25.5546 207.245 25.5668 207.455 25.6249C207.665 25.683 207.86 25.7857 208.027 25.9261C213.417 32.6624 218.833 39.3986 223.291 46.758C223.552 47.1958 223.77 47.6589 224.039 48.0968C225.961 51.3133 224.954 54.8414 222.687 57.2581Z" fill="url(#paint0_linear)"/>
<path d="M194.022 109.178C192.603 110.331 191.125 111.401 189.698 112.546C185.181 116.127 180.677 119.72 176.188 123.324C174.265 124.865 173.426 124.915 171.528 123.416C165.567 118.718 159.608 114.005 153.652 109.279C152.149 108.083 152.225 107.031 153.938 106.121C159.723 103.056 165.449 99.8227 171.713 97.7682C172.385 97.5492 173.065 97.3808 173.837 97.1619C174.92 97.5156 176.054 97.844 177.196 98.2481C183.073 100.362 188.505 103.443 193.988 106.357C195.323 107.064 195.315 108.125 194.022 109.178Z" fill="white"/>
<path d="M206.549 74.2924C205.7 75.061 205.127 76.0882 204.918 77.2156C204.709 78.3431 204.875 79.5083 205.39 80.5318C206.128 82.2434 206.753 84.0014 207.263 85.7945C207.666 87.1695 207.76 88.6173 207.536 90.0329C207.312 91.4485 206.777 92.7965 205.97 93.979C204.291 96.5051 202.393 98.7449 199.538 99.9996C198.448 100.5 197.206 100.551 196.079 100.143C188.721 97.6838 182.136 93.3281 176.986 87.5122C174.945 85.1714 174.937 84.0262 177.439 82.1401C180.302 79.9761 183.375 78.1068 186.348 76.1027C188.027 74.9576 189.706 73.8461 191.385 72.642C193.065 71.4379 193.333 70.5201 192.477 68.6844C191.276 66.1078 189.782 63.6322 188.531 61.1062C187.648 59.3564 186.888 57.5473 186.255 55.6919C185.951 54.9169 185.927 54.0596 186.188 53.2689C186.449 52.4782 186.978 51.8041 187.683 51.3639C189.492 50.1849 191.41 49.1812 193.409 48.3662C198.338 46.3875 203.333 44.5771 208.287 42.6994C208.648 42.5562 208.984 42.371 209.337 42.1941V41.79C208.497 41.6552 207.59 41.4532 206.709 41.3774C203.468 41.1079 200.227 40.889 196.994 40.6364C193.518 40.3585 190.277 41.4784 187.053 42.4047C185.584 42.8088 184.123 43.2467 182.704 43.7687C181.024 44.4003 180.462 45.3854 180.789 47.1369C181.52 51.1113 182.292 55.0688 182.997 59.0432C183.557 62.3439 184.089 65.6784 184.593 69.0465C184.903 71.0674 184.341 71.8673 182.351 72.322C180.005 72.9747 177.618 73.4698 175.206 73.804C173.285 73.8457 171.366 73.662 169.488 73.2567C167.985 73.0293 166.516 72.6251 165.038 72.2631C163.56 71.901 162.922 71.2442 163.098 69.737C163.426 66.7478 163.862 63.767 164.383 60.803C165.172 56.3655 166.113 51.9617 166.902 47.5242C167.212 45.7054 167.305 44.4087 164.685 43.6677C161.105 42.4993 157.46 41.5378 153.77 40.788C151.142 40.3585 148.371 40.788 145.668 40.9143C143.846 41.0153 142.032 41.2679 140.218 41.47C139.622 41.5458 139.043 41.6973 138.455 41.7984C138.447 41.8966 138.424 41.993 138.388 42.0847C138.827 42.3455 139.284 42.5734 139.757 42.7667C144.987 44.7708 150.252 46.7159 155.474 48.7536C156.894 49.302 158.251 50.0021 159.521 50.8418C161.637 52.2312 162.292 53.9236 161.385 56.2897C160.479 58.6558 159.118 61.1146 157.926 63.5059C157.086 65.1142 156.171 66.6467 155.407 68.2803C154.568 70.2927 154.71 71.5052 156.398 72.6336C159.034 74.4102 161.704 76.1364 164.333 77.9299C166.381 79.3109 168.388 80.7507 170.411 82.1401C170.574 82.2608 170.726 82.3961 170.865 82.5443C172.544 84.1525 172.67 85.1798 171.117 86.9144C169.475 88.7647 167.725 90.5164 165.877 92.1602C161.805 95.7978 156.961 98.1218 151.906 100.058C151.23 100.33 150.501 100.445 149.774 100.395C149.048 100.346 148.341 100.133 147.708 99.7722C145.856 98.8374 144.229 97.5121 142.936 95.8872C141.643 94.2623 140.716 92.3762 140.218 90.3583C139.547 87.5459 140.487 84.8598 141.537 82.2495C141.814 81.5675 142.091 80.8686 142.376 80.1866C142.814 79.3171 142.969 78.3315 142.818 77.369C142.668 76.4065 142.219 75.5158 141.537 74.8228C138.883 71.9094 136.188 69.0465 133.501 66.1836C130.579 63.0681 127.641 59.9806 124.685 56.9213C123.648 55.811 122.975 54.4091 122.756 52.9038C122.537 51.3986 122.782 49.8622 123.459 48.501C126.038 43.9509 128.952 39.5997 132.175 35.4832C134.492 32.4013 136.944 29.4037 139.278 26.3303C139.503 25.9866 139.835 25.727 140.222 25.5915C140.609 25.456 141.03 25.4523 141.419 25.5809C146.264 26.4819 151.1 27.4586 155.987 28.107C157.666 28.3175 159.58 27.6944 161.318 27.2144C163.837 26.5071 166.356 25.5809 168.816 24.7557C172.788 23.4421 176.667 23.9137 180.571 25.2441C183.506 26.3414 186.507 27.2553 189.555 27.9807C191.392 28.2073 193.255 28.1018 195.055 27.6691C198.992 27.046 202.897 26.2629 206.809 25.5893C207.025 25.5546 207.245 25.5668 207.455 25.6249C207.665 25.683 207.86 25.7857 208.027 25.9261C213.417 32.6624 218.833 39.3986 223.291 46.758C223.552 47.1958 223.77 47.6589 224.039 48.0968C226.054 51.4144 225.046 54.9425 222.779 57.3591C217.28 62.8997 211.906 68.6087 206.549 74.2924Z" fill="white"/>
<path d="M135.071 111.35L135.113 113.826L85.5668 96.884L84.1394 95.0147L135.071 111.35Z" fill="white"/>
<path d="M136.121 107.157C136.134 106.8 136.1 106.444 136.02 106.096C135.83 105.355 135.474 104.666 134.979 104.083C134.414 103.418 133.744 102.85 132.997 102.399C132.124 101.879 131.191 101.466 130.218 101.17L129.555 100.985C129.328 100.926 129.102 100.867 128.867 100.825L128.153 100.682L127.414 100.572L113.904 98.8881L99.7733 97.0777L88.707 95.6462C85.9194 95.2842 84.2066 95.0568 84.1562 95.04L135.088 111.375V113.851L135.928 110.786C135.944 110.671 135.972 110.558 136.012 110.449C136.037 110.338 136.054 110.226 136.062 110.112C136.062 110.003 136.062 109.893 136.062 109.784C136.071 109.672 136.071 109.559 136.062 109.447V107.039L136.121 107.157ZM136.029 107.999C136.029 108.117 135.978 108.226 135.945 108.336C135.985 108.152 136.013 107.967 136.029 107.78C136.037 107.853 136.037 107.926 136.029 107.999V107.999ZM136.121 107.342V107.729C136.121 107.569 136.121 107.409 136.121 107.249V107.342Z" fill="url(#paint1_linear)"/>
<path d="M110.05 123.029C108.683 121.908 107.12 121.052 105.441 120.503L83.9631 113.127C82.1537 112.52 80.2688 112.168 78.3627 112.083C76.3945 111.981 74.4212 112.117 72.4853 112.487C70.5915 112.814 68.7466 113.38 66.9941 114.171C65.35 114.9 63.8334 115.89 62.5021 117.101C61.3611 118.112 60.47 119.374 59.8993 120.789C59.4298 121.987 59.3361 123.3 59.6306 124.553C59.9677 125.844 60.6636 127.012 61.6373 127.921C62.864 129.073 64.3167 129.957 65.9026 130.515L87.733 138.75C89.6902 139.466 91.7406 139.895 93.8203 140.021C95.9535 140.154 98.0947 140.015 100.193 139.609C102.231 139.234 104.208 138.583 106.071 137.672C107.764 136.86 109.295 135.744 110.588 134.38C111.671 133.255 112.446 131.869 112.838 130.355C113.147 129.041 113.05 127.663 112.561 126.406C112.014 125.09 111.152 123.93 110.05 123.029V123.029Z" fill="url(#paint2_linear)"/>
<path d="M136.86 111.931C138.296 112.372 139.65 113.049 140.865 113.935C141.848 114.657 142.653 115.596 143.216 116.68C143.697 117.658 143.867 118.76 143.703 119.838C143.487 121.034 142.937 122.143 142.116 123.037L110.663 159.144C109.529 160.408 108.171 161.45 106.658 162.217C105.026 163.052 103.285 163.653 101.486 164.002C99.626 164.367 97.7256 164.48 95.8354 164.339C93.9805 164.207 92.1568 163.789 90.4282 163.101L4.19817 127.989C3.03119 127.559 1.98944 126.844 1.16711 125.909C0.487002 125.138 0.077118 124.165 2.07103e-05 123.139C-0.0492437 122.075 0.200986 121.018 0.722103 120.09C1.37083 118.927 2.24427 117.905 3.29137 117.084L38.1025 88.4553C39.1786 87.5983 40.3682 86.8955 41.6373 86.3671C42.9891 85.8048 44.3963 85.387 45.8355 85.1209C47.2982 84.86 48.7836 84.75 50.2687 84.7925C51.6757 84.8372 53.0705 85.0694 54.4165 85.4829L136.86 111.931ZM87.7834 138.817C89.7405 139.534 91.791 139.962 93.8707 140.089C96.0038 140.221 98.1451 140.082 100.244 139.676C102.281 139.302 104.259 138.65 106.121 137.739C107.814 136.927 109.345 135.811 110.638 134.447C111.722 133.322 112.497 131.936 112.888 130.422C113.197 129.108 113.101 127.731 112.611 126.473C112.07 125.133 111.205 123.949 110.092 123.029C108.725 121.908 107.162 121.052 105.483 120.503L83.9631 113.127C82.1537 112.52 80.2688 112.168 78.3627 112.083C76.3945 111.981 74.4212 112.117 72.4853 112.487C70.5915 112.814 68.7466 113.38 66.9941 114.171C65.35 114.9 63.8334 115.89 62.5021 117.101C61.3611 118.112 60.47 119.374 59.8993 120.789C59.4298 121.987 59.3361 123.3 59.6306 124.553C59.9677 125.844 60.6636 127.012 61.6373 127.921C62.864 129.073 64.3167 129.957 65.9026 130.515L87.733 138.75" fill="#EBEAF7"/>
<path d="M143.795 118.987C143.795 119.688 143.661 120.383 143.401 121.033C143.089 121.764 142.664 122.44 142.141 123.038L110.663 159.144C109.529 160.408 108.171 161.45 106.658 162.217C105.026 163.052 103.285 163.653 101.486 164.002C99.626 164.367 97.7256 164.48 95.8354 164.339C93.9777 164.207 92.1513 163.789 90.4198 163.101L4.19817 127.989C3.6636 127.78 3.15159 127.518 2.67004 127.206C2.23946 126.936 1.84208 126.617 1.48616 126.254C1.15799 125.935 0.875431 125.573 0.646532 125.176C0.426028 124.807 0.26188 124.407 0.159546 123.989L4.51723 140.762C4.63488 141.18 4.81009 141.58 5.0378 141.95C5.2691 142.352 5.55132 142.723 5.87743 143.053C6.22908 143.421 6.62052 143.748 7.04452 144.029C7.51587 144.355 8.01616 144.637 8.53906 144.871L92.3594 180.893C94.023 181.599 95.7893 182.032 97.5903 182.173C99.4174 182.334 101.258 182.232 103.056 181.87C104.799 181.531 106.483 180.935 108.052 180.102C109.522 179.328 110.832 178.282 111.914 177.02L142.351 140.619C142.864 140.014 143.276 139.328 143.568 138.59C143.696 138.254 143.794 137.907 143.862 137.554C143.919 137.212 143.948 136.865 143.946 136.518L143.795 118.987Z" fill="url(#paint3_linear)"/>
<path d="M194.24 132.199L195.013 138.287C194.857 138.23 194.697 138.185 194.534 138.152C194.366 138.152 194.19 138.101 194.022 138.085H193.476C193.292 138.093 193.109 138.118 192.93 138.16C192.752 138.193 192.575 138.235 192.401 138.287L191.914 138.48C191.766 138.552 191.623 138.633 191.486 138.725C191.355 138.806 191.234 138.902 191.125 139.011L190.285 132.931C190.394 132.822 190.516 132.726 190.647 132.645C190.784 132.551 190.931 132.469 191.083 132.401C191.243 132.324 191.409 132.259 191.579 132.207C191.751 132.148 191.928 132.103 192.107 132.072C192.292 132.072 192.477 132.022 192.662 132.005H193.207C193.382 132.015 193.556 132.038 193.728 132.072C193.902 132.098 194.074 132.14 194.24 132.199Z" fill="#D9CDFE"/>
<path d="M205.735 136.215L206.423 142.345L195.013 138.245L194.24 132.157L205.735 136.215Z" fill="#D9CDFE"/>
<path d="M207.615 143.406C207.576 143.291 207.522 143.18 207.456 143.078C207.383 142.971 207.295 142.874 207.196 142.792C207.086 142.7 206.971 142.616 206.851 142.539C206.714 142.462 206.571 142.398 206.423 142.345L205.735 136.215C205.885 136.268 206.031 136.332 206.171 136.409C206.291 136.483 206.406 136.564 206.516 136.653C206.616 136.741 206.706 136.84 206.784 136.948C206.846 137.05 206.899 137.157 206.944 137.268C207.162 139.314 207.389 141.36 207.615 143.406Z" fill="#D9CDFE"/>
<path d="M190.311 132.889L191.125 138.969L183.023 146.766L182.116 140.661L190.311 132.889Z" fill="#D9CDFE"/>
<path d="M200.143 138.548L200.882 144.686L194.081 142.202L193.291 136.097L200.143 138.548Z" fill="white"/>
<path d="M193.291 136.097L194.081 142.202L189.286 146.875L188.438 140.754L193.291 136.097Z" fill="white"/>
<path d="M206.986 137.487L207.657 143.617C207.674 143.717 207.674 143.82 207.657 143.92C207.641 144.02 207.616 144.119 207.582 144.215C207.534 144.315 207.48 144.414 207.422 144.509C207.351 144.607 207.272 144.7 207.187 144.787L206.507 138.649C206.592 138.562 206.671 138.469 206.742 138.371C206.804 138.277 206.857 138.179 206.902 138.076C206.939 137.981 206.967 137.882 206.986 137.781C206.994 137.683 206.994 137.585 206.986 137.487Z" fill="white"/>
<path d="M182.485 148.054L181.579 141.941C181.562 141.832 181.562 141.722 181.579 141.613C181.598 141.5 181.629 141.39 181.671 141.284C181.721 141.171 181.783 141.064 181.856 140.964C181.931 140.854 182.018 140.752 182.116 140.661L183.039 146.766C182.944 146.859 182.857 146.96 182.779 147.069C182.704 147.169 182.645 147.28 182.603 147.397C182.561 147.503 182.53 147.613 182.511 147.726C182.481 147.833 182.472 147.944 182.485 148.054Z" fill="#D9CDFE"/>
<path d="M182.485 148.054L181.579 141.941V142.042C181.605 142.162 181.653 142.277 181.721 142.379C181.786 142.49 181.868 142.589 181.965 142.674C182.064 142.774 182.177 142.859 182.301 142.926C182.436 143.004 182.576 143.071 182.72 143.128L183.619 149.25C183.474 149.193 183.334 149.125 183.199 149.048C183.076 148.975 182.964 148.888 182.863 148.787C182.771 148.7 182.692 148.601 182.628 148.492C182.56 148.39 182.512 148.275 182.485 148.155V148.054V148.054Z" fill="white"/>
<path d="M195.323 143.271L196.113 149.418L189.286 146.875L188.438 140.754L195.323 143.271Z" fill="#D9CDFE"/>
<path d="M200.143 138.548L200.882 144.686L196.113 149.418L195.323 143.271L200.143 138.548Z" fill="#D9CDFE"/>
<path d="M188.438 140.754L193.291 136.097L200.143 138.548L195.323 143.271L188.438 140.754Z" fill="#D9CDFE"/>
<path d="M206.499 138.649L207.179 144.787L199.186 152.82L198.413 146.656L206.499 138.649Z" fill="white"/>
<path d="M194.349 147.423L195.155 153.586L183.644 149.25L182.746 143.128L194.349 147.423Z" fill="white"/>
<path d="M198.413 146.656L199.186 152.82C199.068 152.931 198.945 153.035 198.816 153.132C198.673 153.224 198.524 153.308 198.371 153.384C198.041 153.553 197.687 153.669 197.322 153.73C197.134 153.771 196.943 153.796 196.751 153.805H196.188C196.006 153.818 195.823 153.792 195.651 153.73C195.482 153.695 195.317 153.647 195.155 153.586L194.316 147.423C194.479 147.484 194.648 147.532 194.82 147.566C195 147.601 195.182 147.624 195.365 147.633H195.928C196.12 147.625 196.311 147.6 196.499 147.557C196.686 147.522 196.871 147.474 197.053 147.414C197.221 147.355 197.397 147.288 197.565 147.212C197.72 147.137 197.869 147.049 198.01 146.951C198.153 146.865 198.288 146.767 198.413 146.656V146.656Z" fill="white"/>
<path d="M212.662 137.781L213.291 143.928C213.35 144.543 213.333 145.162 213.241 145.772C213.141 146.416 212.97 147.046 212.729 147.65C212.46 148.308 212.125 148.937 211.73 149.528C211.285 150.181 210.782 150.793 210.227 151.355C208.696 152.88 206.915 154.131 204.962 155.052C202.845 156.062 200.607 156.794 198.304 157.232C195.944 157.678 193.539 157.831 191.142 157.687C188.844 157.56 186.579 157.083 184.425 156.272C183.392 155.884 182.402 155.39 181.469 154.799C180.658 154.285 179.913 153.671 179.253 152.972C178.655 152.358 178.153 151.657 177.767 150.892C177.4 150.182 177.15 149.417 177.028 148.627L176.071 142.522C176.19 143.308 176.44 144.067 176.809 144.77C177.205 145.53 177.708 146.227 178.304 146.842C178.97 147.54 179.723 148.149 180.546 148.652C181.482 149.246 182.478 149.737 183.518 150.117C185.701 150.917 187.99 151.388 190.311 151.515C192.728 151.657 195.153 151.498 197.531 151.043C199.854 150.604 202.111 149.872 204.249 148.863C206.215 147.944 208.013 146.697 209.563 145.174C210.126 144.614 210.635 144.003 211.083 143.347C211.485 142.755 211.826 142.123 212.099 141.461C212.34 140.859 212.514 140.232 212.62 139.592C212.709 138.993 212.723 138.384 212.662 137.781V137.781Z" fill="#A78AFE"/>
<path d="M204.652 129.614C206.493 130.22 208.202 131.172 209.689 132.418C210.9 133.435 211.814 134.762 212.334 136.257C212.806 137.691 212.82 139.236 212.376 140.678C211.824 142.387 210.858 143.932 209.563 145.174C208.013 146.697 206.215 147.944 204.249 148.863C202.111 149.872 199.854 150.604 197.532 151.043C195.153 151.498 192.728 151.657 190.311 151.515C187.99 151.388 185.701 150.917 183.518 150.117C181.665 149.459 179.967 148.424 178.531 147.077C177.38 145.994 176.561 144.604 176.171 143.069C175.833 141.596 175.947 140.055 176.499 138.649C177.169 136.988 178.215 135.506 179.555 134.321C181.114 132.895 182.892 131.729 184.819 130.868C186.874 129.938 189.034 129.262 191.251 128.856C193.512 128.434 195.814 128.276 198.111 128.384C200.338 128.485 202.539 128.899 204.652 129.614V129.614ZM198.413 146.656L206.499 138.649C206.597 138.547 206.687 138.437 206.767 138.32C206.837 138.209 206.893 138.091 206.935 137.967C207.002 137.739 207.002 137.496 206.935 137.268C206.891 137.157 206.837 137.05 206.776 136.948C206.697 136.84 206.607 136.741 206.507 136.653C206.398 136.564 206.283 136.483 206.163 136.409C206.023 136.332 205.877 136.268 205.726 136.215L194.24 132.199C194.083 132.14 193.919 132.098 193.753 132.072C193.581 132.038 193.407 132.015 193.233 132.005H192.687C192.5 131.994 192.312 132.017 192.133 132.072C191.953 132.103 191.776 132.148 191.604 132.207C191.434 132.259 191.268 132.324 191.108 132.401C190.956 132.469 190.81 132.551 190.672 132.645C190.541 132.726 190.42 132.822 190.311 132.931L182.116 140.703C182.01 140.8 181.917 140.911 181.839 141.032C181.756 141.134 181.694 141.251 181.654 141.377C181.605 141.492 181.577 141.614 181.57 141.739C181.546 141.853 181.546 141.97 181.57 142.084C181.596 142.204 181.645 142.319 181.713 142.421C181.777 142.532 181.86 142.632 181.956 142.716C182.055 142.816 182.168 142.901 182.292 142.968C182.427 143.046 182.567 143.113 182.712 143.17L194.316 147.465C194.479 147.526 194.648 147.574 194.819 147.608C195 147.643 195.182 147.666 195.365 147.675H195.928C196.12 147.667 196.311 147.642 196.499 147.6C196.686 147.564 196.871 147.516 197.053 147.456C197.221 147.397 197.397 147.33 197.565 147.254C197.72 147.179 197.869 147.091 198.01 146.993C198.139 146.899 198.262 146.798 198.38 146.69" fill="#D9CDFE"/>
<path d="M206.944 137.251C207.011 137.479 207.011 137.722 206.944 137.95C206.902 138.074 206.845 138.193 206.776 138.304C206.696 138.42 206.606 138.53 206.507 138.632L198.422 146.64C198.304 146.748 198.181 146.849 198.052 146.943C197.911 147.041 197.762 147.128 197.607 147.204C197.439 147.28 197.263 147.347 197.095 147.406C196.913 147.465 196.728 147.513 196.541 147.549C196.356 147.549 196.163 147.608 195.97 147.625C195.777 147.642 195.592 147.625 195.407 147.625C195.224 147.615 195.042 147.593 194.861 147.557C194.69 147.524 194.521 147.476 194.358 147.414L182.746 143.145C182.601 143.088 182.461 143.02 182.326 142.943C182.202 142.876 182.089 142.791 181.99 142.69C181.893 142.606 181.811 142.507 181.746 142.396C181.678 142.293 181.63 142.179 181.604 142.059C181.58 141.945 181.58 141.828 181.604 141.714C181.611 141.589 181.639 141.467 181.688 141.352C181.727 141.226 181.79 141.109 181.872 141.006C181.95 140.886 182.043 140.775 182.149 140.678L190.344 132.906C190.453 132.797 190.574 132.701 190.705 132.62C190.843 132.525 190.989 132.444 191.142 132.376C191.302 132.299 191.468 132.234 191.637 132.182C191.81 132.123 191.987 132.078 192.166 132.047C192.351 132.047 192.536 131.997 192.72 131.98H193.266C193.441 131.99 193.615 132.012 193.787 132.047C193.953 132.072 194.116 132.115 194.274 132.174L205.718 136.215C205.869 136.268 206.015 136.332 206.155 136.409C206.274 136.483 206.389 136.564 206.499 136.653C206.599 136.741 206.689 136.84 206.767 136.948C206.836 137.043 206.895 137.144 206.944 137.251V137.251ZM195.323 143.255L200.143 138.539L193.291 136.081L188.438 140.737L195.323 143.263" fill="white"/>
<path d="M160.915 149.418C160.504 149.274 160.074 149.192 159.639 149.174C159.195 149.147 158.749 149.176 158.312 149.258C157.885 149.343 157.468 149.476 157.07 149.654C156.702 149.822 156.364 150.049 156.071 150.328L155.088 142.438C155.385 142.16 155.725 141.932 156.096 141.764C156.496 141.585 156.916 141.452 157.347 141.369C157.79 141.287 158.24 141.256 158.69 141.276C159.127 141.303 159.559 141.385 159.975 141.52C160.285 144.156 160.596 146.783 160.915 149.418Z" fill="#D9CDFE"/>
<path d="M162.41 150.951C162.387 150.791 162.342 150.635 162.275 150.488C162.192 150.336 162.091 150.194 161.973 150.067C161.834 149.932 161.682 149.811 161.52 149.705C161.328 149.589 161.126 149.493 160.915 149.418C160.596 146.783 160.285 144.156 159.975 141.52C160.185 141.595 160.388 141.691 160.579 141.806C160.748 141.907 160.903 142.029 161.041 142.168C161.159 142.296 161.26 142.437 161.343 142.589C161.413 142.732 161.459 142.886 161.478 143.044C161.763 145.419 162.133 148.585 162.41 150.951Z" fill="#D9CDFE"/>
<path d="M142.175 152.955C142.05 153.064 141.94 153.188 141.847 153.325C141.761 153.445 141.69 153.575 141.637 153.713C141.581 153.838 141.544 153.972 141.528 154.108C141.511 154.234 141.511 154.362 141.528 154.487L140.411 146.606C140.395 146.477 140.395 146.347 140.411 146.219C140.428 146.086 140.462 145.955 140.512 145.831C140.572 145.698 140.645 145.571 140.73 145.452C140.831 145.318 140.94 145.192 141.058 145.073C141.427 147.701 141.805 150.328 142.175 152.955C141.805 150.328 141.427 147.701 141.058 145.073C141.361 144.795 141.707 144.567 142.082 144.4C142.483 144.214 142.907 144.081 143.342 144.004C143.784 143.918 144.235 143.887 144.685 143.911C145.117 143.93 145.545 144.012 145.953 144.156L147.019 152.037C146.614 151.893 146.19 151.81 145.76 151.793C145.316 151.766 144.87 151.794 144.433 151.877C144.002 151.96 143.583 152.093 143.182 152.273C142.811 152.443 142.471 152.674 142.175 152.955V152.955Z" fill="#D9CDFE"/>
<path d="M161.478 143.044L162.41 150.951C162.427 151.071 162.427 151.193 162.41 151.313C162.393 151.44 162.359 151.565 162.309 151.683C162.258 151.811 162.193 151.932 162.116 152.045C162.024 152.171 161.923 152.289 161.814 152.399L160.873 144.492C160.983 144.382 161.084 144.264 161.175 144.139C161.252 144.024 161.32 143.903 161.377 143.777C161.426 143.657 161.463 143.533 161.486 143.406C161.496 143.286 161.493 143.164 161.478 143.044V143.044Z" fill="white"/>
<path d="M151.31 146.084L152.334 153.982L147.019 152.037L145.953 144.156L151.31 146.084Z" fill="#D9CDFE"/>
<path d="M155.088 142.438L156.071 150.328L152.334 153.982L151.31 146.084L155.088 142.438Z" fill="#D9CDFE"/>
<path d="M141.528 154.487C141.159 151.86 140.781 149.233 140.411 146.606C140.43 146.759 140.476 146.907 140.546 147.044C140.624 147.189 140.723 147.323 140.84 147.44C140.968 147.575 141.115 147.692 141.276 147.785C141.453 147.902 141.645 147.996 141.847 148.063L142.964 155.961C142.765 155.887 142.574 155.794 142.393 155.683C142.233 155.584 142.087 155.465 141.956 155.329C141.84 155.211 141.744 155.075 141.671 154.925C141.595 154.79 141.546 154.641 141.528 154.487V154.487Z" fill="white"/>
<path d="M159.975 141.52C160.329 141.642 160.657 141.83 160.94 142.076C161.168 142.271 161.339 142.524 161.436 142.808C161.52 143.083 161.52 143.376 161.436 143.65C161.322 143.972 161.132 144.261 160.882 144.492L157.103 148.197L151.31 146.118L155.088 142.472C155.385 142.193 155.725 141.966 156.096 141.798C156.496 141.618 156.916 141.486 157.347 141.402C157.79 141.321 158.24 141.29 158.69 141.31C159.126 141.325 159.557 141.396 159.975 141.52V141.52Z" fill="white"/>
<path d="M160.865 144.492L161.805 152.399L158.077 156.087L157.103 148.164L160.865 144.492Z" fill="white"/>
<path d="M157.103 148.164L158.077 156.087L152.334 153.982L151.31 146.084L157.103 148.164Z" fill="white"/>
<path d="M162.569 150.126L163.501 158.066L158.077 156.087L157.103 148.164L162.569 150.126Z" fill="#D9CDFE"/>
<path d="M147.221 150.016L148.287 157.931L144.458 161.678L143.35 153.746L147.221 150.016Z" fill="#D9CDFE"/>
<path d="M143.812 163.253C143.442 160.609 143.065 157.965 142.695 155.321C142.678 155.192 142.678 155.062 142.695 154.934C142.71 154.794 142.747 154.657 142.804 154.529C142.855 154.387 142.929 154.253 143.023 154.134C143.118 153.993 143.227 153.863 143.35 153.746L144.467 161.678C144.221 161.888 144.033 162.158 143.921 162.461C143.864 162.587 143.828 162.72 143.812 162.857C143.795 162.989 143.795 163.122 143.812 163.253V163.253Z" fill="#D9CDFE"/>
<path d="M143.812 163.253C143.442 160.609 143.065 157.965 142.695 155.321C142.713 155.48 142.762 155.635 142.838 155.776C142.915 155.929 143.014 156.071 143.132 156.197C143.267 156.331 143.416 156.449 143.577 156.55C143.764 156.668 143.964 156.764 144.173 156.837C144.591 156.99 145.03 157.078 145.474 157.098C146.389 157.158 147.304 156.987 148.136 156.601C148.515 156.417 148.866 156.178 149.177 155.894L150.235 163.842C149.93 164.127 149.585 164.365 149.211 164.55C148.804 164.74 148.375 164.878 147.935 164.962C147.483 165.045 147.024 165.073 146.566 165.046C146.127 165.027 145.693 164.939 145.281 164.785C145.075 164.709 144.878 164.611 144.694 164.491C144.531 164.389 144.381 164.267 144.249 164.129C144.131 164.006 144.032 163.867 143.955 163.716C143.878 163.572 143.83 163.415 143.812 163.253V163.253Z" fill="white"/>
<path d="M143.35 153.746L147.221 150.016L153.031 152.13L149.177 155.894C148.866 156.178 148.515 156.417 148.136 156.601C147.304 156.987 146.389 157.158 145.474 157.098C145.03 157.078 144.591 156.99 144.173 156.837C143.813 156.713 143.482 156.518 143.199 156.264C142.973 156.051 142.811 155.78 142.729 155.481C142.645 155.207 142.645 154.913 142.729 154.639C142.86 154.295 143.073 153.988 143.35 153.746V153.746Z" fill="white"/>
<path d="M148.136 156.618C148.515 156.433 148.866 156.195 149.177 155.91L149.505 158.436L154.047 160.121L153.031 152.18L147.221 150.067L148.111 156.66L148.136 156.618Z" fill="white"/>
<path d="M164.114 151.709L165.029 159.666C165.007 159.5 164.961 159.339 164.895 159.186C164.814 159.025 164.709 158.878 164.584 158.748C164.45 158.599 164.295 158.471 164.123 158.369C163.928 158.245 163.719 158.143 163.501 158.066L162.569 150.126C162.786 150.203 162.994 150.302 163.191 150.42C163.36 150.53 163.518 150.657 163.661 150.799C163.786 150.926 163.89 151.071 163.971 151.229C164.044 151.38 164.092 151.542 164.114 151.709V151.709Z" fill="#D9CDFE"/>
<path d="M162.569 150.126C162.933 150.246 163.27 150.438 163.56 150.69C163.789 150.899 163.962 151.163 164.064 151.456C164.148 151.73 164.148 152.024 164.064 152.298C163.95 152.62 163.76 152.909 163.51 153.14C163.209 153.425 162.866 153.66 162.494 153.839C161.662 154.225 160.747 154.396 159.832 154.336C159.387 154.316 158.948 154.228 158.531 154.075L153.048 152.079L147.238 149.966L141.864 148.012C141.516 147.894 141.195 147.705 140.924 147.456C140.7 147.256 140.537 146.996 140.453 146.707C140.386 146.428 140.404 146.134 140.504 145.865C140.626 145.543 140.822 145.255 141.075 145.023C141.378 144.744 141.724 144.517 142.099 144.349C142.5 144.163 142.923 144.03 143.359 143.954C143.801 143.868 144.252 143.837 144.702 143.861C145.134 143.879 145.561 143.962 145.97 144.105L151.327 146.033L157.12 148.113L162.569 150.126Z" fill="white"/>
<path d="M164.114 151.709L165.029 159.666C165.046 159.789 165.046 159.913 165.029 160.036C165.013 160.167 164.979 160.294 164.929 160.415C164.811 160.69 164.639 160.939 164.425 161.148C164.13 161.439 163.786 161.675 163.409 161.847C163.01 162.042 162.586 162.181 162.149 162.259C161.699 162.345 161.239 162.376 160.781 162.352C160.339 162.326 159.903 162.236 159.488 162.082L158.514 154.092C158.932 154.245 159.371 154.333 159.815 154.353C160.73 154.413 161.645 154.242 162.477 153.856C162.85 153.677 163.192 153.441 163.493 153.157C163.605 153.044 163.709 152.923 163.804 152.795C163.879 152.676 163.946 152.552 164.005 152.424C164.055 152.303 164.089 152.176 164.106 152.045C164.117 151.934 164.12 151.821 164.114 151.709V151.709Z" fill="white"/>
<path d="M153.031 152.138L154.047 160.07L150.235 163.842L149.177 155.894L153.031 152.138Z" fill="white"/>
<path d="M175.919 146.673L176.759 154.622C176.836 155.416 176.816 156.216 176.7 157.005C176.577 157.837 176.355 158.651 176.037 159.43C175.688 160.28 175.255 161.092 174.744 161.855C174.168 162.699 173.519 163.491 172.804 164.221C170.824 166.192 168.521 167.807 165.995 168.996C163.247 170.301 160.339 171.235 157.347 171.774C154.305 172.356 151.202 172.556 148.111 172.372C145.126 172.221 142.182 171.616 139.379 170.579C138.046 170.074 136.769 169.434 135.567 168.667C134.514 168.002 133.547 167.211 132.687 166.309C131.922 165.507 131.275 164.6 130.764 163.615C130.292 162.698 129.969 161.712 129.807 160.693L128.573 152.795C128.735 153.811 129.058 154.795 129.53 155.708C130.046 156.687 130.696 157.588 131.461 158.386C132.33 159.28 133.302 160.066 134.358 160.727C135.574 161.484 136.862 162.118 138.203 162.621C141.027 163.649 143.986 164.256 146.986 164.423C150.114 164.609 153.253 164.405 156.331 163.817C159.338 163.25 162.261 162.302 165.029 160.996C167.574 159.81 169.9 158.198 171.906 156.23C172.63 155.507 173.285 154.718 173.862 153.873C174.382 153.115 174.821 152.305 175.172 151.456C175.492 150.681 175.718 149.869 175.844 149.039C175.966 148.257 175.991 147.462 175.919 146.673V146.673Z" fill="#A78AFE"/>
<path d="M165.558 136.114C167.94 136.888 170.15 138.117 172.066 139.735C173.635 141.046 174.819 142.76 175.491 144.695C176.102 146.548 176.123 148.546 175.55 150.412C174.836 152.623 173.587 154.622 171.914 156.23C169.908 158.198 167.583 159.81 165.038 160.996C162.269 162.302 159.346 163.25 156.339 163.817C153.261 164.405 150.122 164.609 146.994 164.423C143.995 164.256 141.036 163.649 138.212 162.621C135.815 161.766 133.62 160.424 131.763 158.681C130.277 157.282 129.222 155.485 128.724 153.502C128.277 151.601 128.424 149.608 129.144 147.793C130.005 145.646 131.353 143.729 133.081 142.194C135.1 140.355 137.399 138.851 139.891 137.739C142.549 136.534 145.343 135.658 148.212 135.129C151.134 134.582 154.109 134.379 157.078 134.523C159.965 134.655 162.819 135.191 165.558 136.114V136.114ZM158.514 154.092C158.932 154.245 159.371 154.333 159.815 154.353C160.73 154.413 161.645 154.242 162.477 153.856C162.85 153.677 163.192 153.441 163.493 153.157C163.743 152.925 163.933 152.636 164.047 152.315C164.131 152.041 164.131 151.747 164.047 151.473C163.945 151.18 163.772 150.916 163.543 150.707C163.253 150.455 162.917 150.263 162.553 150.142L157.103 148.197L160.865 144.526C161.115 144.295 161.305 144.006 161.419 143.684C161.503 143.41 161.503 143.116 161.419 142.842C161.322 142.558 161.151 142.305 160.924 142.109C160.64 141.864 160.312 141.675 159.958 141.554C159.542 141.418 159.11 141.336 158.673 141.31C158.224 141.29 157.773 141.321 157.33 141.402C156.899 141.486 156.479 141.618 156.079 141.798C155.709 141.966 155.368 142.193 155.071 142.472L151.293 146.118L145.936 144.189C145.528 144.046 145.101 143.964 144.668 143.945C144.218 143.921 143.767 143.952 143.325 144.038C142.89 144.114 142.466 144.247 142.066 144.433C141.69 144.601 141.344 144.828 141.041 145.107C140.788 145.339 140.592 145.628 140.47 145.949C140.37 146.218 140.352 146.512 140.42 146.791C140.504 147.08 140.666 147.34 140.89 147.541C141.162 147.789 141.482 147.978 141.83 148.096L147.204 150.05L143.333 153.78C143.078 154.012 142.879 154.3 142.754 154.622C142.657 154.892 142.642 155.185 142.712 155.464C142.794 155.764 142.956 156.035 143.182 156.247C143.465 156.502 143.797 156.696 144.156 156.82C144.574 156.973 145.013 157.061 145.458 157.081C146.372 157.141 147.287 156.97 148.119 156.584C148.498 156.4 148.849 156.161 149.16 155.877L153.014 152.113L158.497 154.108" fill="#D9CDFE"/>
<path d="M142.796 154.538C142.796 154.522 142.8 154.506 142.807 154.491C142.815 154.476 142.825 154.464 142.838 154.454C142.833 154.426 142.833 154.397 142.838 154.369V154.369L142.888 154.277L142.947 154.184L143.014 154.1L143.081 154.016L143.157 153.932L143.241 153.839L147.112 150.109L141.738 148.155L142.662 154.706L142.796 154.538Z" fill="#D9CDFE"/>
<path d="M158.514 154.125L159.488 162.082L154.047 160.07L153.031 152.138L158.514 154.125Z" fill="#D9CDFE"/>
</g>
<defs>
<linearGradient id="paint0_linear" x1="173.846" y1="-0.985176" x2="173.846" y2="157.51" gradientUnits="userSpaceOnUse">
<stop stop-color="#D9CDFE"/>
<stop offset="1" stop-color="#A78AFE"/>
</linearGradient>
<linearGradient id="paint1_linear" x1="-21369.5" y1="-9266.99" x2="-22638.6" y2="-12059.6" gradientUnits="userSpaceOnUse">
<stop stop-color="#D9CDFE"/>
<stop offset="1" stop-color="#A78AFE"/>
</linearGradient>
<linearGradient id="paint2_linear" x1="-21958.2" y1="-13892.6" x2="-24261.3" y2="-17398.7" gradientUnits="userSpaceOnUse">
<stop stop-color="#D9CDFE"/>
<stop offset="1" stop-color="#A78AFE"/>
</linearGradient>
<linearGradient id="paint3_linear" x1="21.2763" y1="101.364" x2="126.077" y2="159.42" gradientUnits="userSpaceOnUse">
<stop stop-color="#EBEAF7"/>
<stop offset="1" stop-color="#D9CDFE"/>
</linearGradient>
<clipPath id="clip0">
<rect width="240" height="182.241" fill="white"/>
</clipPath>
</defs>
</svg>
