<svg width="240" height="161" viewBox="0 0 240 161" fill="none" xmlns="http://www.w3.org/2000/svg">
<g clip-path="url(#clip0)">
<path d="M120 160.885C164.427 160.885 200.443 124.87 200.443 80.4427C200.443 36.0154 164.427 0 120 0C75.5727 0 39.5573 36.0154 39.5573 80.4427C39.5573 124.87 75.5727 160.885 120 160.885Z" fill="url(#paint0_linear)"/>
<path d="M166.747 108.277C166.588 108.18 166.424 108.09 166.256 108.01C166.086 107.924 165.91 107.849 165.729 107.786C165.552 107.72 165.371 107.665 165.188 107.62C165.007 107.577 164.824 107.543 164.639 107.519L166.906 101.174C167.093 101.197 167.278 101.231 167.462 101.275C167.648 101.32 167.831 101.375 168.01 101.441C168.191 101.506 168.371 101.586 168.544 101.665C168.71 101.748 168.872 101.839 169.028 101.939L167.88 105.123C167.469 106.148 167.086 107.202 166.747 108.277Z" fill="#D9CDFE"/>
<path d="M167.902 109.613C167.862 109.486 167.806 109.365 167.736 109.252C167.663 109.126 167.576 109.01 167.476 108.905C167.369 108.783 167.254 108.67 167.129 108.566C167.007 108.463 166.879 108.367 166.747 108.277L167.007 107.555L167.288 106.769L167.584 105.96L167.88 105.13L168.183 104.3L168.479 103.484L168.761 102.69L169.028 101.968C169.179 102.062 169.323 102.166 169.461 102.279C169.586 102.384 169.704 102.498 169.815 102.618C169.912 102.727 169.999 102.846 170.075 102.972C170.144 103.082 170.2 103.201 170.241 103.325L167.902 109.613Z" fill="#D9CDFE"/>
<path d="M166.869 101.145L164.603 107.49L153.14 106.083L155.327 99.68L166.869 101.145Z" fill="#D9CDFE"/>
<path d="M150.866 106.927L153.032 100.503C153.051 100.448 153.076 100.395 153.104 100.344C153.133 100.293 153.167 100.245 153.205 100.2L153.342 100.063L153.501 99.9471C153.617 99.8775 153.74 99.8218 153.869 99.781C154.013 99.7348 154.16 99.701 154.309 99.68C154.474 99.6567 154.641 99.6446 154.807 99.6439C154.986 99.6454 155.164 99.6574 155.342 99.68L153.176 106.083C152.999 106.06 152.821 106.048 152.642 106.047C152.326 106.052 152.013 106.1 151.711 106.191C151.585 106.236 151.464 106.294 151.35 106.364C151.292 106.399 151.236 106.437 151.184 106.48C151.137 106.522 151.093 106.568 151.054 106.617C151.016 106.662 150.982 106.71 150.953 106.761C150.916 106.812 150.887 106.868 150.866 106.927V106.927Z" fill="#D9CDFE"/>
<path d="M150.866 106.927L151.083 106.285L151.191 105.967L151.408 105.325L151.624 104.69L151.732 104.365L151.949 103.73L152.173 103.08L152.281 102.762L152.498 102.12L152.721 101.47L152.83 101.153L153.046 100.503C153.046 100.546 153.046 100.597 153.046 100.64C153.043 100.69 153.043 100.741 153.046 100.792C153.039 100.842 153.039 100.893 153.046 100.943C153.043 100.996 153.043 101.049 153.046 101.102L150.881 107.526C150.877 107.474 150.877 107.421 150.881 107.368C150.877 107.317 150.877 107.267 150.881 107.216C150.877 107.166 150.877 107.115 150.881 107.064C150.873 107.019 150.868 106.973 150.866 106.927Z" fill="white"/>
<path d="M165.181 104.358L162.899 110.739L156.937 110.017L159.175 103.607L165.181 104.358Z" fill="white"/>
<path d="M166.364 108.234L164.054 114.637L162.899 110.739L165.18 104.358L166.364 108.234Z" fill="white"/>
<path d="M172.572 110.753L170.212 117.141L167.902 109.613L170.205 103.268L172.572 110.753Z" fill="#D9CDFE"/>
<path d="M172.572 111.453C171.788 113.59 170.999 115.724 170.205 117.856C170.205 117.798 170.241 117.741 170.255 117.69C170.259 117.632 170.259 117.575 170.255 117.517C170.259 117.454 170.259 117.392 170.255 117.329C170.248 117.268 170.233 117.207 170.212 117.149L172.572 110.753C172.594 110.814 172.608 110.877 172.616 110.941C172.623 111.001 172.623 111.061 172.616 111.121C172.623 111.179 172.623 111.237 172.616 111.294C172.608 111.349 172.593 111.402 172.572 111.453V111.453Z" fill="#D9CDFE"/>
<path d="M166.364 108.234L164.054 114.637L158.034 113.922L160.301 107.49L166.364 108.234Z" fill="#D9CDFE"/>
<path d="M160.301 107.49L158.034 113.922L156.937 110.017L159.175 103.607L160.301 107.49Z" fill="#D9CDFE"/>
<path d="M172.572 111.453L170.205 117.856C170.188 117.906 170.166 117.955 170.14 118L170.046 118.13C170.013 118.176 169.974 118.218 169.93 118.253C169.89 118.295 169.843 118.332 169.793 118.361C169.683 118.438 169.564 118.501 169.439 118.549C169.298 118.599 169.154 118.638 169.006 118.665C168.847 118.665 168.681 118.679 168.508 118.708C168.328 118.718 168.147 118.718 167.967 118.708L170.327 112.291C170.507 112.305 170.688 112.305 170.869 112.291C171.036 112.291 171.202 112.277 171.367 112.247C171.515 112.228 171.66 112.192 171.8 112.139C171.927 112.094 172.048 112.033 172.161 111.959C172.211 111.929 172.257 111.892 172.298 111.85C172.34 111.813 172.379 111.772 172.413 111.728C172.449 111.687 172.48 111.644 172.507 111.598C172.536 111.553 172.558 111.504 172.572 111.453V111.453Z" fill="white"/>
<path d="M155.111 108.631L152.866 115.106L150.823 107.534L153.01 101.102L155.111 108.631Z" fill="white"/>
<path d="M170.327 112.262L167.967 118.679L156.237 117.315L158.511 110.84L170.327 112.262Z" fill="white"/>
<path d="M168.992 101.91C169.143 102.005 169.287 102.108 169.425 102.221C169.55 102.327 169.668 102.44 169.779 102.56C169.876 102.67 169.963 102.788 170.039 102.914C170.108 103.024 170.164 103.143 170.205 103.268L172.572 110.753C172.612 110.867 172.631 110.986 172.63 111.107C172.636 111.217 172.618 111.328 172.579 111.432C172.545 111.537 172.492 111.635 172.421 111.72C172.346 111.812 172.259 111.893 172.161 111.959C172.048 112.033 171.927 112.094 171.8 112.139C171.66 112.192 171.515 112.228 171.367 112.247C171.202 112.277 171.036 112.291 170.869 112.291C170.688 112.305 170.507 112.305 170.327 112.291L158.511 110.847C158.318 110.825 158.128 110.789 157.94 110.739C157.747 110.694 157.557 110.639 157.37 110.573C157.182 110.5 157.002 110.428 156.821 110.342C156.651 110.254 156.484 110.158 156.323 110.053C156.182 109.951 156.047 109.84 155.919 109.721C155.792 109.612 155.674 109.494 155.565 109.367C155.469 109.251 155.382 109.128 155.306 108.999C155.238 108.883 155.184 108.76 155.147 108.631L153.032 101.102C153.002 100.991 152.99 100.877 152.996 100.763C152.999 100.654 153.021 100.547 153.061 100.445C153.106 100.347 153.164 100.254 153.234 100.171C153.316 100.085 153.408 100.01 153.508 99.9471C153.624 99.8775 153.748 99.8218 153.876 99.781C154.02 99.7348 154.167 99.701 154.317 99.68C154.482 99.6567 154.648 99.6446 154.815 99.6439C154.993 99.6454 155.172 99.6574 155.349 99.68L166.898 101.124C167.086 101.147 167.271 101.181 167.454 101.225C167.64 101.269 167.824 101.325 168.003 101.391C168.183 101.456 168.364 101.535 168.537 101.615C168.694 101.705 168.845 101.804 168.992 101.91V101.91ZM166.364 108.227L165.18 104.358L159.175 103.636L160.301 107.519L166.364 108.241" fill="white"/>
<path d="M158.511 110.84L156.237 117.336C156.044 117.314 155.854 117.278 155.667 117.228C155.476 117.184 155.288 117.128 155.104 117.062C154.918 116.997 154.737 116.92 154.562 116.831C154.391 116.746 154.225 116.652 154.064 116.55C153.913 116.451 153.768 116.342 153.631 116.225C153.508 116.114 153.393 115.996 153.285 115.871C153.184 115.757 153.1 115.631 153.032 115.496C152.964 115.38 152.911 115.256 152.873 115.128L155.118 108.631C155.156 108.76 155.209 108.883 155.277 108.999C155.354 109.128 155.441 109.251 155.537 109.367C155.645 109.494 155.764 109.612 155.89 109.721C156.03 109.839 156.177 109.947 156.331 110.046C156.492 110.15 156.658 110.247 156.829 110.334C157.009 110.421 157.19 110.493 157.377 110.565C157.564 110.632 157.755 110.687 157.948 110.731C158.132 110.781 158.321 110.817 158.511 110.84Z" fill="white"/>
<path d="M177.827 111.576L175.409 117.943C175.09 118.777 174.572 119.52 173.9 120.108C173.133 120.774 172.25 121.293 171.294 121.639C170.147 122.063 168.948 122.332 167.729 122.44C166.272 122.568 164.806 122.546 163.354 122.375C161.226 122.122 159.136 121.62 157.125 120.881C155.188 120.178 153.34 119.253 151.617 118.123C150.064 117.127 148.664 115.911 147.459 114.514C146.431 113.36 145.679 111.987 145.257 110.5C145.186 110.215 145.131 109.926 145.091 109.634C145.062 109.359 145.05 109.081 145.055 108.804C145.057 108.54 145.081 108.277 145.128 108.017C145.172 107.772 145.235 107.531 145.315 107.295L147.481 100.842C147.4 101.078 147.338 101.319 147.293 101.564C147.249 101.822 147.228 102.082 147.228 102.344C147.221 102.619 147.236 102.894 147.271 103.166C147.31 103.456 147.368 103.743 147.445 104.025C147.881 105.51 148.645 106.877 149.682 108.025C150.907 109.418 152.321 110.633 153.884 111.634C157.457 113.933 161.504 115.396 165.722 115.914C167.18 116.095 168.653 116.126 170.118 116.008C171.35 115.911 172.563 115.652 173.727 115.236C174.684 114.899 175.57 114.388 176.34 113.727C177.008 113.145 177.519 112.406 177.827 111.576V111.576Z" fill="#A78AFE"/>
<path d="M159.918 96.3667C163.942 96.9069 167.804 98.3025 171.244 100.46C172.774 101.41 174.17 102.561 175.395 103.881C176.456 104.998 177.274 106.323 177.798 107.772C178.227 108.952 178.255 110.241 177.878 111.439C177.463 112.581 176.684 113.555 175.662 114.211C174.4 115.032 172.978 115.574 171.489 115.799C169.579 116.108 167.634 116.137 165.715 115.885C161.497 115.367 157.45 113.904 153.876 111.605C152.314 110.604 150.9 109.389 149.675 107.996C148.638 106.848 147.873 105.481 147.437 103.997C147.085 102.806 147.156 101.531 147.639 100.387C148.158 99.2782 149.012 98.3593 150.079 97.7599C151.379 97.0075 152.814 96.517 154.302 96.3162C156.168 96.0824 158.057 96.0994 159.918 96.3667ZM172.572 110.753L170.204 103.268C170.164 103.143 170.108 103.024 170.038 102.914C169.963 102.788 169.876 102.67 169.779 102.56C169.668 102.44 169.55 102.327 169.425 102.221C169.287 102.108 169.143 102.005 168.992 101.91C168.836 101.811 168.674 101.719 168.508 101.636C168.335 101.557 168.154 101.477 167.974 101.412C167.795 101.346 167.611 101.291 167.425 101.246C167.242 101.202 167.057 101.169 166.87 101.145L155.32 99.7016C155.143 99.6791 154.964 99.667 154.786 99.6656C154.619 99.6663 154.453 99.6783 154.288 99.7016C154.138 99.7226 153.991 99.7564 153.847 99.8027C153.719 99.8434 153.595 99.8992 153.479 99.9687C153.379 100.032 153.287 100.107 153.205 100.192C153.136 100.276 153.077 100.368 153.032 100.467C152.992 100.568 152.97 100.676 152.967 100.784C152.961 100.899 152.973 101.013 153.003 101.124L155.103 108.653C155.141 108.781 155.194 108.905 155.262 109.021C155.339 109.15 155.426 109.273 155.522 109.389C155.631 109.516 155.749 109.634 155.876 109.743C156.015 109.861 156.162 109.969 156.316 110.067C156.477 110.172 156.643 110.268 156.814 110.356C156.995 110.443 157.175 110.515 157.363 110.587C157.55 110.653 157.74 110.709 157.933 110.753C158.12 110.803 158.311 110.839 158.503 110.861L170.32 112.305C170.5 112.319 170.681 112.319 170.861 112.305C171.028 112.306 171.195 112.291 171.359 112.262C171.508 112.243 171.653 112.207 171.793 112.154C171.92 112.108 172.041 112.047 172.153 111.973C172.252 111.907 172.339 111.827 172.413 111.735C172.484 111.65 172.538 111.552 172.572 111.446C172.611 111.342 172.628 111.232 172.623 111.121C172.624 111.001 172.604 110.881 172.565 110.768" fill="#D9CDFE"/>
<path d="M166.364 108.234L165.181 104.358L159.175 103.607L160.301 107.49L166.364 108.234Z" fill="#D9CDFE"/>
<path d="M134.155 60.6352H114.702C114.185 60.6352 113.689 60.8405 113.324 61.2061C112.958 61.5716 112.753 62.0673 112.753 62.5842V79.4177C112.753 79.9346 112.958 80.4303 113.324 80.7958C113.689 81.1613 114.185 81.3667 114.702 81.3667H134.155C134.674 81.3667 135.172 81.5728 135.539 81.9396C135.906 82.3065 136.112 82.8041 136.112 83.3229V90.5414C136.113 90.927 136.229 91.3034 136.444 91.6235C136.659 91.9435 136.964 92.1928 137.32 92.3402C137.677 92.4875 138.069 92.5262 138.447 92.4515C138.825 92.3767 139.173 92.1919 139.447 91.9201L158.937 72.4302C159.119 72.2497 159.263 72.0349 159.362 71.7983C159.46 71.5616 159.511 71.3078 159.511 71.0515C159.511 70.7951 159.46 70.5413 159.362 70.3047C159.263 70.068 159.119 69.8533 158.937 69.6727L139.447 50.1829C139.173 49.9111 138.825 49.7262 138.447 49.6515C138.069 49.5767 137.677 49.6155 137.32 49.7628C136.964 49.9101 136.659 50.1594 136.444 50.4795C136.229 50.7995 136.113 51.176 136.112 51.5616V58.7801C136.086 59.2812 135.868 59.7532 135.504 60.0984C135.14 60.4437 134.657 60.6359 134.155 60.6352V60.6352Z" fill="url(#paint1_linear)"/>
<path d="M102.214 111.627C101.822 111.763 101.45 111.953 101.109 112.19C100.733 112.438 100.382 112.724 100.062 113.041C99.7422 113.358 99.4522 113.703 99.1962 114.074C98.9578 114.413 98.7637 114.782 98.6188 115.171L92.2593 108.732C92.4111 108.343 92.6099 107.975 92.8512 107.635C93.3685 106.889 94.0195 106.245 94.7713 105.736C95.1185 105.502 95.4915 105.308 95.883 105.159L96.6048 105.924L97.3916 106.725L98.2073 107.555L99.0374 108.407C100.113 109.475 101.16 110.551 102.214 111.627Z" fill="#D9CDFE"/>
<path d="M88.3181 125.334C88.2513 125.51 88.2006 125.691 88.1665 125.876C88.1492 126.029 88.1492 126.184 88.1665 126.338C88.1785 126.466 88.2076 126.592 88.2531 126.713C88.2966 126.822 88.363 126.921 88.448 127.002L81.9947 120.628C81.9136 120.548 81.8498 120.452 81.807 120.346C81.7605 120.224 81.7337 120.095 81.7276 119.964C81.7106 119.813 81.7106 119.66 81.7276 119.509C81.7678 119.325 81.8208 119.144 81.8864 118.968L88.3109 125.334L81.8864 118.968C82.0395 118.578 82.2382 118.207 82.4784 117.863C82.7416 117.492 83.0362 117.144 83.359 116.824C83.6804 116.506 84.0308 116.218 84.4057 115.965C84.7465 115.732 85.1151 115.543 85.5029 115.402L91.9057 121.79C91.5187 121.93 91.1502 122.117 90.8085 122.346C90.4344 122.594 90.0861 122.88 89.769 123.198C89.447 123.513 89.1569 123.858 88.9028 124.23C88.6593 124.57 88.4626 124.942 88.3181 125.334V125.334Z" fill="#D9CDFE"/>
<path d="M103.831 111.756C103.753 111.674 103.66 111.608 103.556 111.562C103.438 111.517 103.314 111.488 103.188 111.475C103.037 111.457 102.884 111.457 102.733 111.475C102.557 111.507 102.383 111.553 102.214 111.612L95.8831 105.115C96.052 105.055 96.2259 105.009 96.4028 104.978C96.5516 104.964 96.7015 104.964 96.8503 104.978C96.9751 104.984 97.0975 105.013 97.2113 105.065C97.316 105.105 97.41 105.17 97.4856 105.253C99.3912 107.216 101.932 109.808 103.831 111.756Z" fill="#D9CDFE"/>
<path d="M90.4259 113.684L96.8359 120.123L91.9057 121.79L85.5029 115.402L90.4259 113.684Z" fill="#D9CDFE"/>
<path d="M92.2593 108.732L98.6188 115.171L96.8358 120.123L90.4258 113.684L92.2593 108.732Z" fill="#D9CDFE"/>
<path d="M88.4191 127.002L87.7767 126.374L87.4519 126.056L86.8094 125.421L86.167 124.786L85.8494 124.468L85.1997 123.826L84.5573 123.191L84.2324 122.873L83.59 122.23L82.9403 121.588L82.6155 121.27L81.9658 120.628C82.0429 120.704 82.1334 120.765 82.2329 120.808C82.3439 120.852 82.4606 120.878 82.5794 120.888C82.7208 120.905 82.8638 120.905 83.0053 120.888C83.1722 120.861 83.3364 120.82 83.4961 120.765L89.9928 127.161C89.8305 127.214 89.6638 127.253 89.4947 127.276C89.3533 127.294 89.2102 127.294 89.0688 127.276C88.9498 127.264 88.8332 127.234 88.7223 127.19C88.6078 127.152 88.5038 127.088 88.4191 127.002Z" fill="white"/>
<path d="M97.4855 105.274L98.1279 105.924L98.4455 106.249L99.0807 106.898L100.669 108.523L101.304 109.172L101.622 109.497L102.257 110.14L102.885 110.789L103.203 111.107L103.831 111.756C103.911 111.833 103.973 111.927 104.011 112.031C104.063 112.144 104.092 112.267 104.098 112.392C104.119 112.538 104.119 112.686 104.098 112.832C104.066 113.004 104.02 113.173 103.96 113.337L97.601 106.841C97.664 106.677 97.71 106.508 97.7381 106.335C97.7554 106.189 97.7554 106.041 97.7381 105.895C97.7313 105.771 97.7045 105.649 97.6587 105.534C97.6196 105.436 97.5606 105.348 97.4855 105.274V105.274Z" fill="white"/>
<path d="M88.4407 119.047L94.9013 125.493L89.9566 127.139L83.4961 120.743L88.4407 119.047Z" fill="white"/>
<path d="M95.883 105.159C96.186 105.04 96.5106 104.986 96.8358 105C97.0743 105.006 97.3024 105.099 97.4782 105.26C97.6434 105.431 97.7387 105.657 97.7453 105.895C97.7568 106.221 97.7002 106.545 97.5793 106.848L95.7602 111.821L90.4258 113.684L92.2593 108.732C92.4111 108.343 92.6099 107.975 92.8512 107.635C93.3685 106.889 94.0195 106.245 94.7713 105.736C95.1185 105.502 95.4915 105.308 95.883 105.159V105.159Z" fill="white"/>
<path d="M95.7602 111.821L102.177 118.318L96.8358 120.123L90.4258 113.684L95.7602 111.821Z" fill="white"/>
<path d="M97.5793 106.848L103.939 113.337L102.177 118.318L95.7603 111.821L97.5793 106.848Z" fill="white"/>
<path d="M88.4408 119.047L94.9013 125.493L93.075 130.561L86.5568 124.115L88.4408 119.047Z" fill="#D9CDFE"/>
<path d="M100.813 110.06L107.23 116.607L102.177 118.318L95.7603 111.821L100.813 110.06Z" fill="#D9CDFE"/>
<path d="M93.7969 117.206L100.265 123.71L94.9013 125.493L88.4408 119.047L93.7969 117.206Z" fill="white"/>
<path d="M93.1906 132.279L86.6939 125.825C86.6088 125.742 86.5424 125.641 86.499 125.529C86.4467 125.406 86.4174 125.274 86.4124 125.14C86.3915 124.984 86.3915 124.826 86.4124 124.67C86.4454 124.481 86.4962 124.295 86.564 124.115L93.0607 130.561C92.9928 130.741 92.9421 130.927 92.9091 131.116C92.8879 131.275 92.8879 131.435 92.9091 131.593C92.9163 131.727 92.9481 131.86 93.0029 131.983C93.0441 132.093 93.108 132.194 93.1906 132.279Z" fill="#D9CDFE"/>
<path d="M102.502 110.19L108.927 116.752C108.844 116.669 108.746 116.603 108.638 116.557C108.52 116.502 108.393 116.47 108.263 116.463C108.109 116.442 107.954 116.442 107.801 116.463C107.619 116.488 107.44 116.532 107.267 116.593L100.849 110.046C101.023 109.986 101.202 109.94 101.384 109.909C101.537 109.891 101.692 109.891 101.846 109.909C101.975 109.92 102.101 109.952 102.221 110.002C102.328 110.043 102.424 110.107 102.502 110.19V110.19Z" fill="#D9CDFE"/>
<path d="M93.7969 117.206L100.265 123.71L98.4529 128.799L91.9346 122.303L93.7969 117.206Z" fill="white"/>
<path d="M98.8642 115.467L105.339 122.014L100.265 123.71L93.7969 117.206L98.8642 115.467Z" fill="white"/>
<path d="M93.1905 132.279L86.6938 125.825C86.7735 125.902 86.8665 125.963 86.9682 126.006C87.0793 126.057 87.1995 126.087 87.3219 126.092C87.4679 126.114 87.6162 126.114 87.7622 126.092C87.9344 126.069 88.1037 126.028 88.2675 125.97C88.6652 125.83 89.0436 125.641 89.3936 125.407C89.778 125.146 90.138 124.852 90.4691 124.526C90.8031 124.199 91.1052 123.842 91.3714 123.458C91.6157 123.103 91.8168 122.72 91.9706 122.317L98.4672 128.814C98.3206 129.218 98.1216 129.602 97.8753 129.954C97.6158 130.337 97.3184 130.693 96.9874 131.015C96.6581 131.341 96.2979 131.633 95.9118 131.889C95.5633 132.124 95.1845 132.311 94.7858 132.445C94.622 132.501 94.4526 132.54 94.2805 132.56C94.1366 132.578 93.9912 132.578 93.8474 132.56C93.7226 132.55 93.6005 132.518 93.4864 132.466C93.3756 132.425 93.2748 132.361 93.1905 132.279V132.279Z" fill="white"/>
<path d="M86.5568 124.115L88.4336 119.062L93.7969 117.221L91.9346 122.317C91.7808 122.72 91.5797 123.103 91.3354 123.458C91.0692 123.842 90.7671 124.199 90.4331 124.526C90.102 124.852 89.742 125.146 89.3576 125.407C89.0076 125.641 88.6292 125.83 88.2315 125.97C87.9207 126.086 87.588 126.133 87.257 126.107C87.0151 126.088 86.7888 125.98 86.6218 125.804C86.4658 125.612 86.3793 125.373 86.3763 125.125C86.3689 124.78 86.4302 124.436 86.5568 124.115V124.115Z" fill="white"/>
<path d="M102.502 110.19L108.927 116.752C109.008 116.836 109.074 116.934 109.122 117.04C109.167 117.161 109.196 117.287 109.208 117.416C109.229 117.564 109.229 117.715 109.208 117.863C109.184 118.041 109.14 118.215 109.078 118.383C108.933 118.784 108.736 119.165 108.494 119.516C108.213 119.888 107.899 120.234 107.555 120.549C107.227 120.875 106.867 121.168 106.48 121.422C106.128 121.658 105.747 121.847 105.346 121.985L98.8931 115.496C99.2971 115.354 99.6806 115.16 100.034 114.918C100.811 114.401 101.482 113.739 102.011 112.969C102.256 112.618 102.455 112.237 102.603 111.836C102.667 111.668 102.713 111.494 102.741 111.316C102.758 111.167 102.758 111.017 102.741 110.869C102.729 110.742 102.7 110.619 102.654 110.5C102.625 110.388 102.574 110.282 102.502 110.19Z" fill="white"/>
<path d="M100.813 110.06C101.126 109.941 101.46 109.887 101.795 109.901C102.042 109.909 102.278 110.007 102.459 110.176C102.626 110.355 102.725 110.588 102.741 110.833C102.756 111.165 102.699 111.498 102.575 111.807C102.426 112.208 102.227 112.589 101.983 112.94C101.454 113.71 100.782 114.372 100.005 114.889C99.6517 115.131 99.2682 115.325 98.8642 115.467L93.8113 117.206L88.4479 119.047L83.5105 120.743C83.2084 120.855 82.8866 120.904 82.5649 120.888C82.3317 120.871 82.1131 120.768 81.9513 120.599C81.7963 120.415 81.7119 120.183 81.7131 119.942C81.7066 119.608 81.7705 119.276 81.9008 118.968C82.0538 118.578 82.2525 118.207 82.4927 117.863C82.7559 117.492 83.0506 117.144 83.3734 116.824C83.6948 116.506 84.0452 116.218 84.42 115.965C84.7608 115.732 85.1294 115.543 85.5172 115.402L90.4402 113.684L95.7747 111.821L100.813 110.06Z" fill="white"/>
<path d="M98.5827 97.8176C100.631 97.0069 102.819 96.6119 105.022 96.6554C106.645 96.6777 108.209 97.2706 109.439 98.3301C110.595 99.4533 111.293 100.966 111.396 102.575C111.532 104.799 111.19 107.027 110.392 109.107C109.403 111.822 108.066 114.396 106.415 116.766C102.821 121.99 98.2672 126.482 92.9956 130.005C90.6215 131.605 88.0462 132.884 85.3368 133.809C83.2742 134.562 81.0691 134.843 78.8835 134.632C77.2945 134.481 75.8229 133.73 74.769 132.531C73.7563 131.24 73.2185 129.639 73.2459 127.998C73.2662 125.767 73.7172 123.561 74.5741 121.501C75.6095 118.91 76.9495 116.45 78.5659 114.175C82.0137 109.275 86.3117 105.034 91.256 101.651C93.5357 100.084 95.9956 98.7969 98.5827 97.8176ZM98.8931 115.496C99.2971 115.354 99.6806 115.16 100.034 114.918C100.811 114.401 101.482 113.739 102.012 112.969C102.256 112.618 102.455 112.237 102.603 111.836C102.728 111.527 102.785 111.194 102.769 110.861C102.754 110.616 102.655 110.384 102.488 110.205C102.307 110.035 102.071 109.938 101.824 109.93C101.489 109.916 101.155 109.97 100.842 110.089L95.7892 111.85L97.6082 106.877C97.7292 106.574 97.7857 106.25 97.7743 105.924C97.7676 105.686 97.6723 105.46 97.5072 105.289C97.3314 105.127 97.1032 105.035 96.8647 105.029C96.5395 105.014 96.2149 105.069 95.9119 105.188C95.5204 105.337 95.1474 105.531 94.8003 105.765C94.0484 106.274 93.3974 106.918 92.8801 107.664C92.6388 108.004 92.44 108.372 92.2882 108.761L90.4547 113.713L85.5317 115.431C85.1439 115.572 84.7753 115.761 84.4345 115.994C84.0597 116.247 83.7092 116.534 83.3878 116.853C83.065 117.173 82.7704 117.521 82.5072 117.892C82.2642 118.234 82.0654 118.605 81.9153 118.997C81.785 119.305 81.721 119.637 81.7276 119.971C81.7264 120.211 81.8108 120.444 81.9658 120.628C82.1276 120.797 82.3462 120.9 82.5794 120.917C82.9011 120.933 83.2228 120.884 83.525 120.772L88.4624 119.076L86.5856 124.129C86.4609 124.446 86.3996 124.784 86.4052 125.125C86.4081 125.372 86.4946 125.612 86.6506 125.804C86.8176 125.98 87.0439 126.088 87.2858 126.107C87.6168 126.133 87.9495 126.086 88.2603 125.97C88.658 125.83 89.0364 125.641 89.3864 125.407C89.7709 125.146 90.1309 124.852 90.4619 124.526C90.7959 124.199 91.098 123.842 91.3643 123.458C91.6085 123.103 91.8097 122.72 91.9634 122.317L93.8258 117.221L98.8787 115.481" fill="#D9CDFE"/>
<path d="M109.721 98.5683L116.044 105.166C116.561 105.702 116.97 106.332 117.25 107.021C117.567 107.787 117.762 108.598 117.827 109.425C117.907 110.403 117.871 111.386 117.719 112.356C117.542 113.515 117.259 114.655 116.874 115.763C115.914 118.473 114.601 121.046 112.969 123.414C109.411 128.618 104.876 133.08 99.615 136.552C97.2437 138.131 94.6731 139.389 91.9707 140.291C90.8945 140.628 89.7905 140.87 88.6718 141.013C87.7338 141.14 86.7841 141.157 85.8422 141.064C85.0412 140.984 84.2573 140.782 83.5178 140.464C82.8525 140.193 82.2412 139.804 81.7132 139.317L75.1516 132.964C75.6645 133.457 76.2641 133.851 76.9201 134.127C77.6564 134.434 78.4355 134.626 79.2301 134.697C80.1683 134.78 81.1132 134.754 82.0453 134.617C83.1634 134.452 84.2649 134.189 85.3369 133.831C88.0463 132.906 90.6216 131.626 92.9957 130.026C98.2673 126.504 102.821 122.011 106.415 116.788C108.067 114.418 109.404 111.843 110.392 109.129C110.785 108.021 111.08 106.881 111.273 105.722C111.432 104.768 111.478 103.799 111.41 102.834C111.353 102.015 111.171 101.209 110.869 100.445C110.609 99.7522 110.219 99.1151 109.721 98.5683V98.5683Z" fill="#A78AFE"/>
<path d="M121.047 36.2801C120.679 35.1261 120.123 34.0408 119.401 33.0679C118.699 32.1163 117.854 31.2788 116.896 30.5847C115.969 29.9106 114.938 29.3936 113.843 29.0544C112.789 28.725 111.678 28.6144 110.58 28.7295L113.633 25.936C114.742 25.8254 115.862 25.9409 116.925 26.2753C118.03 26.622 119.071 27.1462 120.007 27.8272C120.974 28.5229 121.829 29.3628 122.541 30.3176C123.275 31.2964 123.839 32.3922 124.208 33.5587L121.047 36.2801Z" fill="#D9CDFE"/>
<path d="M119.22 37.9476L116.08 40.6112C116.326 40.4066 116.536 40.1626 116.701 39.8893C116.873 39.6049 116.999 39.2957 117.077 38.9726C117.156 38.6272 117.187 38.2726 117.17 37.9187C117.147 37.5338 117.077 37.1532 116.961 36.7854C116.801 36.2306 116.549 35.7062 116.218 35.2334C115.879 34.777 115.473 34.3752 115.012 34.0424C114.573 33.7247 114.086 33.4809 113.568 33.3205C113.064 33.1664 112.534 33.1148 112.009 33.1689C111.846 33.1884 111.684 33.2197 111.526 33.2628C111.372 33.3026 111.222 33.3557 111.078 33.4216C110.936 33.485 110.799 33.5574 110.667 33.6381C110.543 33.7214 110.424 33.8131 110.313 33.9124L113.33 31.155C113.443 31.0539 113.564 30.9621 113.691 30.8807C113.821 30.8 113.956 30.7277 114.095 30.6641C114.243 30.5994 114.395 30.5463 114.55 30.5053C114.711 30.4623 114.875 30.4309 115.041 30.4115C115.571 30.3567 116.106 30.4108 116.615 30.5703C117.131 30.7331 117.618 30.9768 118.058 31.2921C118.53 31.6238 118.949 32.0254 119.3 32.4832C119.65 32.9545 119.919 33.4816 120.094 34.0424C120.217 34.4136 120.29 34.7996 120.31 35.1901C120.328 35.5464 120.296 35.9034 120.217 36.2512C120.138 36.5762 120.012 36.8876 119.841 37.1752C119.678 37.4646 119.468 37.7254 119.22 37.9476V37.9476Z" fill="white"/>
<path d="M110.58 28.7296C110.221 28.7639 109.866 28.8291 109.519 28.9245C109.187 29.0116 108.863 29.1275 108.551 29.2709C108.246 29.4067 107.952 29.566 107.671 29.7474C107.396 29.927 107.138 30.1298 106.898 30.3537L109.93 27.5602C110.171 27.3345 110.432 27.1315 110.71 26.9538C110.99 26.7686 111.284 26.6069 111.59 26.4702C111.905 26.3303 112.231 26.2168 112.565 26.1309C112.915 26.0356 113.272 25.9704 113.633 25.936L112.096 27.3364L111.504 27.885L111.309 28.0582L111.114 28.2315L110.934 28.4047C110.825 28.4986 110.71 28.6718 110.58 28.7296Z" fill="#D9CDFE"/>
<path d="M119.141 44.4225C119.672 43.9841 120.126 43.4595 120.484 42.8705C120.845 42.2679 121.11 41.6129 121.27 40.9288C121.447 40.1967 121.518 39.4431 121.48 38.691C121.438 37.8717 121.29 37.0613 121.039 36.2801L124.201 33.5876C124.456 34.3756 124.609 35.1932 124.656 36.0202C124.693 36.7791 124.625 37.5393 124.454 38.2796C124.289 38.969 124.019 39.6289 123.653 40.2358C123.297 40.8284 122.843 41.3558 122.31 41.795L119.141 44.4225Z" fill="#D9CDFE"/>
<path d="M116.08 40.6112C115.975 40.7051 115.861 40.7896 115.741 40.8638C115.617 40.9383 115.49 41.0058 115.359 41.0659C115.221 41.1259 115.078 41.1742 114.933 41.2103C114.784 41.2534 114.632 41.2847 114.478 41.3042L114.839 40.9938L115.221 40.6689L115.626 40.3224L116.03 39.976L116.441 39.6295L116.846 39.283L117.235 38.9509L117.604 38.6333C117.759 38.6162 117.914 38.5873 118.065 38.5467C118.21 38.5038 118.352 38.4531 118.491 38.3951C118.625 38.3393 118.753 38.2717 118.874 38.193C118.997 38.1195 119.113 38.0349 119.22 37.9403L116.08 40.6112Z" fill="#D9CDFE"/>
<path d="M114.478 41.3041H114.261H113.821H113.604L116.723 38.6333C116.795 38.6333 116.874 38.6333 116.947 38.6333H117.387H117.604L114.478 41.3041Z" fill="#D9CDFE"/>
<path d="M109.418 37.6805C109.306 37.3172 109.24 36.9413 109.223 36.5616C109.203 36.2176 109.232 35.8724 109.309 35.5366C109.384 35.2205 109.503 34.9167 109.663 34.6343C109.82 34.3649 110.017 34.1214 110.248 33.9124L113.33 31.155C113.095 31.3619 112.895 31.6057 112.738 31.8768C112.575 32.1577 112.456 32.462 112.384 32.7791C112.308 33.12 112.279 33.4698 112.298 33.8186C112.314 34.2014 112.382 34.5803 112.5 34.9447L109.418 37.6805Z" fill="#D9CDFE"/>
<path d="M113.604 41.3042C113.142 41.2495 112.692 41.1229 112.269 40.9288C111.83 40.7241 111.422 40.4593 111.056 40.142C110.679 39.8197 110.346 39.4483 110.067 39.0376C109.789 38.6173 109.571 38.1606 109.418 37.6805L109.771 37.3629L110.154 37.0308L110.544 36.6843L110.948 36.3306L111.352 35.9697L111.749 35.6232L112.132 35.2839L112.493 34.9591C112.644 35.4459 112.865 35.9079 113.15 36.3306C113.431 36.7499 113.769 37.1287 114.153 37.4567C114.522 37.7781 114.936 38.0454 115.38 38.2507C115.804 38.45 116.258 38.5792 116.723 38.6333L113.604 41.3042Z" fill="#D9CDFE"/>
<path d="M122.317 41.795C121.263 42.6757 120.205 43.5515 119.141 44.4225C118.913 44.6056 118.671 44.7721 118.419 44.9206C118.17 45.0753 117.91 45.2104 117.64 45.3248C117.359 45.4421 117.072 45.5433 116.781 45.628C116.475 45.7117 116.164 45.772 115.849 45.8085C114.741 45.95 113.615 45.859 112.543 45.5414C111.434 45.2105 110.385 44.701 109.439 44.0327C108.455 43.3254 107.588 42.468 106.87 41.4918C106.132 40.5005 105.57 39.3895 105.209 38.2074C104.975 37.4555 104.837 36.6769 104.798 35.8903C104.762 35.1633 104.825 34.4347 104.986 33.7248C105.136 33.0703 105.379 32.4407 105.707 31.8552C106.029 31.2948 106.433 30.7862 106.906 30.3465L109.938 27.5529C109.46 27.9958 109.053 28.5095 108.732 29.076C108.4 29.6652 108.157 30.3 108.01 30.9601C107.853 31.6705 107.792 32.3989 107.83 33.1256C107.871 33.9173 108.012 34.7006 108.248 35.4572C108.619 36.6519 109.19 37.7748 109.938 38.7777C110.66 39.7685 111.537 40.6362 112.536 41.3475C113.492 42.0416 114.559 42.5688 115.691 42.9067C116.771 43.2292 117.906 43.325 119.026 43.1882C119.342 43.1475 119.655 43.0872 119.964 43.0077C120.258 42.923 120.547 42.8218 120.83 42.7045C121.1 42.5901 121.361 42.455 121.61 42.3003C121.86 42.1527 122.096 41.9836 122.317 41.795V41.795Z" fill="white"/>
<path d="M126.432 47.2594L123.205 49.8075C122.834 50.0975 122.446 50.365 122.043 50.6088C121.628 50.8554 121.196 51.0724 120.751 51.2584C120.293 51.4543 119.823 51.6184 119.343 51.7493C118.842 51.8863 118.334 51.9924 117.82 52.0669C115.9 52.3156 113.949 52.1682 112.089 51.6338C110.141 51.0734 108.305 50.1821 106.66 48.999C104.949 47.7751 103.441 46.2891 102.192 44.5958C100.913 42.8672 99.9368 40.934 99.3046 38.8787C98.9102 37.6053 98.6679 36.2896 98.5828 34.9591C98.5254 33.7479 98.6273 32.5345 98.886 31.3499C99.1411 30.23 99.5568 29.1529 100.12 28.1521C100.646 27.1985 101.313 26.3297 102.098 25.5751V25.5751L102.394 25.2936L102.69 25.0048L102.986 24.7233L103.282 24.4418L103.578 24.153L103.874 23.8715L104.026 23.7272L104.321 23.4384L104.625 23.1569L104.769 23.0125L105.072 22.7238C104.281 23.4827 103.611 24.3592 103.087 25.3224C102.539 26.3227 102.141 27.3976 101.903 28.513C101.645 29.7122 101.548 30.9406 101.615 32.1656C101.693 33.511 101.935 34.8419 102.336 36.1285C102.964 38.2034 103.94 40.1563 105.224 41.9033C106.475 43.6294 107.993 45.145 109.721 46.3932C111.381 47.5908 113.234 48.4943 115.2 49.064C117.072 49.6158 119.039 49.7707 120.975 49.5188C121.992 49.3844 122.988 49.115 123.934 48.7175C124.383 48.5306 124.817 48.311 125.233 48.0607C125.651 47.8224 126.052 47.5547 126.432 47.2594V47.2594Z" fill="#A78AFE"/>
<path d="M111.713 19.8003C113.622 19.6252 115.547 19.8364 117.373 20.4211C119.259 21.0163 121.035 21.9187 122.628 23.0919C124.282 24.294 125.743 25.7425 126.959 27.3869C128.215 29.0661 129.19 30.9385 129.846 32.9307C130.467 34.8069 130.734 36.7823 130.633 38.756C130.541 40.518 130.076 42.2403 129.269 43.809C128.493 45.3335 127.362 46.6484 125.97 47.642C124.493 48.6708 122.789 49.3271 121.003 49.5549C119.068 49.8068 117.101 49.6519 115.229 49.1001C113.263 48.5304 111.41 47.6269 109.75 46.4293C108.016 45.1916 106.491 43.6857 105.231 41.9682C103.948 40.2213 102.971 38.2684 102.344 36.1935C101.736 34.2557 101.511 32.2186 101.68 30.1949C101.834 28.416 102.374 26.6918 103.26 25.142C104.111 23.6774 105.302 22.4394 106.733 21.5327C108.234 20.5719 109.94 19.9784 111.713 19.8003V19.8003ZM119.026 43.1882C120.062 43.067 121.053 42.6954 121.913 42.1054C122.717 41.5476 123.376 40.805 123.833 39.9399C124.315 39.0282 124.595 38.0239 124.656 36.9947C124.722 35.8434 124.57 34.6899 124.208 33.5948C123.843 32.4157 123.279 31.3074 122.541 30.3176C121.831 29.3525 120.976 28.5028 120.007 27.7984C119.073 27.1289 118.037 26.6146 116.939 26.2753C115.876 25.9409 114.757 25.8255 113.648 25.936C112.619 26.0361 111.629 26.38 110.76 26.9394C109.937 27.4778 109.254 28.2055 108.768 29.0616C108.263 29.965 107.96 30.9674 107.88 31.9995C107.789 33.1669 107.924 34.3408 108.277 35.4572C108.648 36.6519 109.219 37.7748 109.966 38.7777C110.689 39.7685 111.566 40.6362 112.565 41.3475C113.521 42.0416 114.588 42.5688 115.72 42.9067C116.8 43.2292 117.935 43.325 119.054 43.1882" fill="#D9CDFE"/>
<path d="M115.034 30.4115C115.564 30.3567 116.099 30.4108 116.607 30.5703C117.124 30.7331 117.611 30.9768 118.051 31.2921C118.526 31.6232 118.947 32.0249 119.3 32.4832C119.65 32.9545 119.919 33.4816 120.094 34.0424C120.266 34.5655 120.337 35.1167 120.303 35.6665C120.273 36.1563 120.137 36.6339 119.906 37.0669C119.687 37.4809 119.369 37.8351 118.982 38.0991C118.57 38.3764 118.097 38.5498 117.603 38.6044C117.072 38.6682 116.534 38.619 116.023 38.4601C115.487 38.3064 114.982 38.0623 114.528 37.7382C114.069 37.401 113.665 36.9943 113.33 36.5327C112.976 36.0574 112.705 35.5253 112.529 34.9591C112.357 34.431 112.291 33.8742 112.334 33.3205C112.37 32.8297 112.51 32.3522 112.745 31.9201C112.976 31.511 113.3 31.1622 113.691 30.9023C114.094 30.635 114.554 30.4668 115.034 30.4115V30.4115Z" fill="#D9CDFE"/>
<path d="M113.633 25.936C114.742 25.8254 115.862 25.9409 116.925 26.2753C118.03 26.622 119.071 27.1462 120.007 27.8272C120.974 28.5229 121.829 29.3628 122.541 30.3176C123.275 31.2964 123.839 32.3922 124.208 33.5587C124.57 34.6538 124.722 35.8073 124.656 36.9586C124.595 37.9878 124.315 38.9921 123.833 39.9037C123.376 40.7689 122.717 41.5115 121.913 42.0693C121.053 42.6593 120.062 43.0309 119.026 43.1521C117.906 43.2889 116.771 43.1931 115.691 42.8705C114.559 42.5327 113.492 42.0055 112.536 41.3114C111.537 40.6001 110.66 39.7324 109.938 38.7416C109.19 37.7387 108.619 36.6158 108.248 35.4211C107.895 34.3047 107.76 33.1308 107.851 31.9634C107.931 30.9313 108.234 29.9289 108.739 29.0255C109.225 28.1694 109.908 27.4417 110.732 26.9033C111.608 26.3545 112.603 26.0229 113.633 25.936ZM117.604 38.6333C118.097 38.5787 118.57 38.4053 118.982 38.128C119.369 37.864 119.687 37.5097 119.906 37.0958C120.137 36.6628 120.273 36.1852 120.303 35.6954C120.337 35.1456 120.266 34.5944 120.094 34.0712C119.919 33.5105 119.65 32.9834 119.3 32.512C118.957 32.0508 118.545 31.6443 118.08 31.3065C117.64 30.9912 117.153 30.7475 116.636 30.5847C116.128 30.4252 115.593 30.3711 115.063 30.4259C114.57 30.4756 114.097 30.644 113.684 30.9167C113.293 31.1766 112.969 31.5254 112.738 31.9346C112.503 32.3666 112.362 32.8441 112.327 33.3349C112.284 33.8886 112.35 34.4454 112.522 34.9735C112.701 35.5351 112.975 36.0623 113.33 36.5327C113.674 37.0022 114.091 37.414 114.565 37.7526C115.018 38.0767 115.523 38.3208 116.059 38.4745C116.57 38.6335 117.108 38.6827 117.64 38.6189" fill="white"/>
<path d="M27.3941 105.245L29.1482 90.4187L17.7141 90.7435L27.3941 105.245Z" fill="url(#paint2_linear)"/>
<path d="M63.9846 90.4187L65.7387 105.245L75.4187 90.7435L63.9846 90.4187Z" fill="url(#paint3_linear)"/>
<path d="M72.6829 74.0905L52.1536 75.0072L54.052 85.5606L57.0838 79.2012L64.3889 82.5289L72.6829 74.0905Z" fill="url(#paint4_linear)"/>
<path d="M28.7801 82.5289L36.0852 79.2012L39.0808 85.5606L41.0154 75.0072L20.45 74.0905L28.7801 82.5289Z" fill="url(#paint5_linear)"/>
<path d="M40.3513 54.8749L40.6472 55.0987L40.3296 54.2902L40.2863 52.9115L39.9109 53.2363L34.2589 38.922L4.60535 27.8561L39.1169 53.9437L26.2247 65.3633L20.4499 74.0905L41.0154 75.0072L40.3513 54.8749Z" fill="#EBEAF7"/>
<path d="M75.4187 90.4187L65.7388 105.245L86.4486 110.941L92.4038 90.7435L75.4187 90.4187Z" fill="#EBEAF7"/>
<path d="M53.7561 53.655L88.4914 27.8561L58.874 38.922L52.9548 52.9403L52.63 52.6516L52.6083 53.7777L52.1536 54.846L52.5867 54.5212L52.1536 75.0072L72.6829 74.0905L66.872 65.3633L53.7561 53.655Z" fill="#EBEAF7"/>
<path d="M53.359 99.218L65.7387 105.245L54.2324 110.688L54.3479 107.288L53.4312 106.487H39.6655L38.821 107.288L38.8931 110.688L27.3941 105.245L39.7377 99.218L29.0688 90.8879L27.3941 105.245L17.7141 90.4187L0.765137 90.7435L6.68429 110.941L27.3941 105.245L31.4076 108.53L39.5572 114.189H53.5394L61.7252 108.53L65.7387 105.245L64.0207 90.8879L53.359 99.218Z" fill="#EBEAF7"/>
<path d="M20.45 74.0905L29.0688 90.8879L28.7801 82.5289L20.45 74.0905Z" fill="#EBEAF7"/>
<path d="M64.3889 82.5289L64.0208 90.8879L72.6829 74.0905L64.3889 82.5289Z" fill="#EBEAF7"/>
<path d="M41.4918 98.0125L42.0332 81.6121L41.0154 75.0072L39.0808 85.5606L41.4918 98.0125Z" fill="#EBEAF7"/>
<path d="M51.6049 98.0125L54.0519 85.5606L52.1535 75.0072L51.1646 81.576L51.6049 98.0125Z" fill="#EBEAF7"/>
<path d="M36.049 79.2011L28.78 82.5289L39.0808 85.5606L36.049 79.2011Z" fill="url(#paint6_linear)"/>
<path d="M54.0159 85.5606L64.3527 82.5289L57.0476 79.2011L54.0159 85.5606Z" fill="url(#paint7_linear)"/>
<path d="M51.6048 98.0125H41.4918L39.7377 99.218L38.8209 107.288L39.6655 106.487H53.4311L54.3479 107.288L53.3589 99.218L51.6048 98.0125Z" fill="url(#paint8_linear)"/>
<path d="M90.0289 56.6001L93.1328 41.6939L88.4914 27.8561L53.359 53.9293L66.872 65.3633L85.9721 70.9504L90.2094 66.0202L88.3831 64.7064L91.3066 62.0356L89.04 60.2887L91.9634 58.0582L90.0289 56.6001Z" fill="url(#paint9_linear)"/>
<path d="M4.60539 27.8561L0 41.6939L3.10395 56.6001L1.1333 58.0582L4.05679 60.2887L1.82628 62.0356L4.74976 64.7064L2.92348 66.0202L7.12464 70.9504L26.2247 65.3633L39.7377 53.9293L4.60539 27.8561Z" fill="url(#paint10_linear)"/>
<path d="M54.3479 107.288L53.359 99.218L65.7387 105.245L54.2324 110.688L54.3479 107.288ZM38.8931 110.688L38.821 107.288L39.7377 99.218L27.4302 105.245L38.8931 110.688ZM64.3888 82.5361L54.0519 85.5678L51.6049 98.0197L53.359 99.2252L64.0207 90.8951L64.3888 82.5361ZM28.7801 82.5361L29.0688 90.8951L39.7377 99.2252L41.4918 98.0197L39.0808 85.5678L28.7801 82.5361ZM92.3965 90.7435L85.9721 70.9504L66.872 65.3633L72.6468 74.0905L63.9846 90.8879L75.3826 90.7435H92.3965ZM26.2247 65.3633L7.12462 70.9504L0.765137 90.7435H17.7141L29.0688 90.8879L20.4499 74.0905L26.2247 65.3633ZM52.1535 75L53.359 53.9292L58.91 38.922H34.2589L39.7377 53.9292L41.0154 75L41.4557 81.6482V98.0125H51.5616L51.6338 81.6482L52.1535 75Z" fill="white"/>
<path d="M239.87 55.3152C239.112 53.2002 238.369 51.0852 237.639 48.9557C237.566 48.7207 237.566 48.4689 237.639 48.2339C238.193 46.8239 238.766 45.4211 239.357 44.0255C239.427 43.9099 239.452 43.7729 239.428 43.6401C239.405 43.5073 239.333 43.3877 239.228 43.3037C237.38 41.4196 235.568 39.4851 233.705 37.6155C232.65 36.6636 231.305 36.0941 229.887 35.9986C228.077 35.8029 226.247 35.9127 224.473 36.3234C224.364 36.341 224.252 36.3352 224.145 36.3066C224.038 36.278 223.938 36.2272 223.852 36.1574C221.47 33.4793 219.11 30.7868 216.742 28.0943C216.692 28.021 216.653 27.9407 216.626 27.8561H190.062C188.929 29.1627 187.818 30.4764 186.684 31.7685C185.551 33.0606 184.223 34.5115 183.075 35.9119C182.94 36.0917 182.755 36.2265 182.542 36.2987C182.33 36.3709 182.1 36.3769 181.884 36.3162C180.518 36.0942 179.138 35.9688 177.755 35.9408C176.243 35.8707 174.751 36.3161 173.525 37.204C172.754 37.8461 172.03 38.5433 171.359 39.2902C170.912 39.7449 170.479 40.1997 170.031 40.6617C169.223 41.499 168.421 42.3436 167.606 43.1809C167.463 43.2854 167.363 43.4387 167.326 43.6117C167.289 43.7847 167.316 43.9653 167.404 44.1193C167.974 45.4187 168.515 46.7396 169.013 48.0678C169.122 48.396 169.122 48.7503 169.013 49.0784C168.292 51.1501 167.57 53.2074 166.848 55.2863C166.716 55.6465 166.686 56.0363 166.761 56.4124C168.205 61.9345 169.649 67.4495 171.092 72.9716C171.894 76.0322 172.695 79.1073 173.503 82.1679C174.196 84.8628 174.901 87.5505 175.618 90.231C175.748 90.7146 175.885 91.1983 176.03 91.6747C176.552 93.5771 177.386 95.3797 178.498 97.0091C178.763 97.3828 179.047 97.7418 179.35 98.0847C180.115 98.9445 180.964 99.7255 181.884 100.416C182.346 100.777 182.822 101.138 183.328 101.456L183.53 101.593L183.717 101.716L184.793 102.437L185.111 102.647C188.08 104.678 191.049 106.704 194.018 108.725L197.425 111.027L197.83 111.295C197.952 111.388 198.089 111.468 198.212 111.554C198.247 111.579 198.283 111.6 198.32 111.619C199.317 112.283 200.32 112.919 201.338 113.539C201.784 113.842 202.293 114.04 202.826 114.12C203.36 114.2 203.904 114.16 204.42 114.001C204.774 113.892 205.112 113.734 205.423 113.532L205.712 113.345C206.761 112.68 207.803 112.009 208.838 111.331L209.199 111.1L209.35 110.999L209.422 110.955C210.385 110.315 211.359 109.666 212.346 109.006L212.534 108.884L212.786 108.718L212.916 108.616C214.36 107.656 215.753 106.689 217.168 105.729C219.603 104.059 222.031 102.375 224.451 100.676C227.623 98.4588 229.869 95.1521 230.76 91.3859C231.663 88.0005 232.558 84.6006 233.446 81.2079C233.604 80.6232 233.763 80.0241 233.915 79.4394L239.957 56.5063C240.055 56.1101 240.024 55.693 239.87 55.3152ZM214.533 88.1665C213.746 88.8017 212.923 89.4009 212.129 90.0289C209.632 92.0067 207.139 93.9942 204.651 95.9913C203.583 96.8359 203.121 96.8648 202.067 96.0346C198.77 93.4408 195.476 90.8397 192.185 88.2315C191.355 87.5674 191.391 86.9827 192.336 86.4846C195.549 84.7883 198.717 83.0053 202.19 81.872C202.558 81.7493 202.911 81.6554 203.366 81.5399C203.965 81.7276 204.593 81.9081 205.207 82.1319C208.413 83.4046 211.524 84.9025 214.519 86.6145C215.248 86.9971 215.248 87.589 214.533 88.1665V88.1665ZM230.414 59.473C227.418 62.5986 224.444 65.7603 221.456 68.9004C220.986 69.3246 220.669 69.8913 220.553 70.5135C220.437 71.1356 220.528 71.7786 220.813 72.3436C221.221 73.2821 221.566 74.2467 221.845 75.231C222.069 75.9916 222.12 76.7925 221.995 77.5755C221.87 78.3584 221.573 79.1036 221.124 79.757C220.301 81.1987 219.06 82.3567 217.565 83.0775C216.961 83.3582 216.271 83.3893 215.645 83.1641C211.567 81.7962 207.919 79.3847 205.062 76.1694C203.936 74.8773 203.936 74.2421 205.322 73.2026C206.903 72.0043 208.607 70.9721 210.253 69.8677C211.191 69.2396 212.129 68.6189 213.039 67.9548C213.948 67.2907 214.114 66.7781 213.638 65.7892C212.974 64.3455 212.151 63.0173 211.472 61.6097C210.989 60.6397 210.569 59.639 210.216 58.614C210.05 58.1849 210.039 57.711 210.185 57.2746C210.332 56.8381 210.626 56.4667 211.018 56.2247C212.021 55.5776 213.082 55.0242 214.187 54.5717C216.922 53.4817 219.68 52.4783 222.43 51.4389C222.632 51.3595 222.82 51.2584 223.015 51.1646V50.9408C222.531 50.8614 222.048 50.7531 221.571 50.7098C219.781 50.5582 217.962 50.4427 216.186 50.3056C214.266 50.154 212.483 50.7676 210.678 51.2729C209.87 51.5038 209.061 51.7421 208.275 51.9947C208.068 52.0316 207.871 52.1133 207.699 52.2341C207.526 52.3549 207.383 52.512 207.277 52.6942C207.172 52.8764 207.108 53.0794 207.09 53.289C207.071 53.4986 207.099 53.7098 207.17 53.9076C207.574 56.0731 208.008 58.2892 208.397 60.4836C208.722 62.3099 209.018 64.1434 209.292 65.9697C209.466 67.0958 209.155 67.5289 208.058 67.7887C206.751 68.1392 205.423 68.4021 204.081 68.5755C203.017 68.6007 201.954 68.5038 200.912 68.2868C200.082 68.1641 199.266 67.9403 198.45 67.7454C197.635 67.5505 197.281 67.1752 197.368 66.3523C197.555 64.6992 197.801 63.0534 198.089 61.4148C198.523 58.9678 199.042 56.5279 199.461 54.0808C199.634 53.0703 199.685 52.3556 198.234 51.9514C196.248 51.3 194.226 50.7673 192.177 50.3561C190.682 50.2252 189.178 50.2494 187.688 50.4283C186.677 50.4788 185.674 50.6232 184.67 50.7387C184.338 50.782 184.013 50.8614 183.689 50.9192C183.689 50.9769 183.689 51.0274 183.652 51.078C183.887 51.2151 184.128 51.3404 184.374 51.4533C187.262 52.5577 190.2 53.6189 193.087 54.7594C193.872 55.0648 194.625 55.4493 195.332 55.9071C195.868 56.1698 196.277 56.6343 196.471 57.1987C196.664 57.763 196.626 58.3811 196.364 58.9172C195.837 60.2887 195.108 61.5881 194.444 62.909C194.004 63.7969 193.47 64.6415 193.08 65.551C192.589 66.6554 192.69 67.3268 193.621 67.9475C195.065 68.9365 196.566 69.8893 198.024 70.8349C199.151 71.6001 200.269 72.4013 201.388 73.1809C201.481 73.2482 201.566 73.3257 201.641 73.4119C202.55 74.2926 202.637 74.8556 201.778 75.8229C200.874 76.8418 199.91 77.806 198.891 78.7103C196.593 80.6126 193.969 82.0803 191.145 83.0414C190.77 83.1913 190.365 83.2548 189.961 83.2273C189.558 83.1998 189.166 83.082 188.814 82.8826C187.792 82.3604 186.894 81.6238 186.183 80.7231C185.472 79.8224 184.963 78.7788 184.692 77.6636C184.317 76.1044 184.836 74.6246 185.414 73.1882C185.573 72.8056 185.724 72.4158 185.89 72.0476C186.132 71.5652 186.216 71.0186 186.129 70.4859C186.042 69.9531 185.789 69.4614 185.407 69.0808C183.963 67.4711 182.44 65.8903 180.953 64.3094C179.331 62.5914 177.702 60.8807 176.066 59.1771C175.487 58.5611 175.111 57.782 174.989 56.9452C174.868 56.1085 175.007 55.2547 175.387 54.4995C176.813 51.9769 178.425 49.564 180.209 47.281C181.501 45.5703 182.858 43.9172 184.151 42.2281C184.276 42.0401 184.46 41.8981 184.673 41.8239C184.887 41.7496 185.119 41.7471 185.334 41.8166C188.02 42.3147 190.698 42.8561 193.405 43.1954C194.413 43.2213 195.418 43.0547 196.364 42.7045C197.757 42.3147 199.136 41.8022 200.508 41.3402C202.644 40.7091 204.929 40.8056 207.004 41.6145C208.629 42.2232 210.29 42.7294 211.978 43.1304C212.996 43.2481 214.026 43.1895 215.024 42.9572C217.189 42.6107 219.355 42.1776 221.521 41.8094C221.639 41.7882 221.76 41.7934 221.876 41.8246C221.992 41.8558 222.1 41.9122 222.192 41.9899C225.282 45.6777 228.123 49.5675 230.695 53.6333C230.84 53.8715 230.962 54.1314 231.107 54.3551C231.596 55.1587 231.794 56.1064 231.666 57.0385C231.538 57.9707 231.094 58.8304 230.407 59.473H230.414Z" fill="url(#paint11_linear)"/>
<path d="M214.533 88.1665C213.746 88.8017 212.923 89.4009 212.129 90.0289C209.632 92.0067 207.139 93.9942 204.651 95.9913C203.583 96.8359 203.121 96.8648 202.067 96.0346C198.77 93.4408 195.476 90.8397 192.185 88.2315C191.355 87.5674 191.391 86.9827 192.336 86.4846C195.549 84.7882 198.717 83.0053 202.19 81.872C202.558 81.7493 202.911 81.6554 203.366 81.5399C203.965 81.7276 204.593 81.9081 205.207 82.1318C208.413 83.4046 211.524 84.9025 214.519 86.6145C215.248 86.9971 215.248 87.589 214.533 88.1665Z" fill="white"/>
<path d="M221.448 68.9004C220.979 69.3246 220.662 69.8914 220.545 70.5135C220.429 71.1356 220.521 71.7786 220.806 72.3436C221.214 73.2822 221.558 74.2467 221.838 75.231C222.062 75.9916 222.113 76.7925 221.988 77.5755C221.863 78.3584 221.565 79.1036 221.116 79.757C220.294 81.1988 219.053 82.3567 217.558 83.0775C216.954 83.3582 216.264 83.3893 215.638 83.1641C211.56 81.7962 207.912 79.3847 205.055 76.1694C203.929 74.8773 203.929 74.2421 205.315 73.2026C206.896 72.0043 208.599 70.9721 210.245 69.8677C211.184 69.2397 212.122 68.6189 213.032 67.9548C213.941 67.2907 214.107 66.7782 213.631 65.7892C212.967 64.3455 212.144 63.0173 211.465 61.6097C210.981 60.6397 210.562 59.639 210.209 58.6141C210.043 58.1849 210.032 57.711 210.178 57.2746C210.324 56.8382 210.619 56.4667 211.01 56.2247C212.014 55.5776 213.075 55.0242 214.179 54.5717C216.915 53.4817 219.673 52.4784 222.423 51.4389C222.625 51.3595 222.813 51.2584 223.008 51.1646V50.9408C222.524 50.8614 222.04 50.7531 221.564 50.7098C219.774 50.5582 217.955 50.4427 216.179 50.3056C214.259 50.154 212.476 50.7676 210.671 51.2729C209.863 51.5039 209.054 51.7421 208.267 51.9947C208.061 52.0325 207.865 52.1149 207.694 52.2361C207.522 52.3573 207.379 52.5144 207.275 52.6965C207.17 52.8787 207.107 53.0814 207.089 53.2905C207.071 53.4997 207.099 53.7103 207.17 53.9076C207.574 56.0732 208.008 58.2892 208.397 60.4837C208.722 62.3099 209.018 64.1434 209.292 65.9697C209.466 67.0958 209.155 67.5289 208.058 67.7888C206.751 68.1392 205.423 68.4021 204.081 68.5756C203.017 68.6007 201.954 68.5038 200.912 68.2868C200.082 68.1641 199.266 67.9403 198.45 67.7454C197.635 67.5505 197.281 67.1752 197.368 66.3523C197.555 64.6992 197.801 63.0534 198.089 61.4148C198.523 58.9678 199.042 56.5279 199.461 54.0809C199.634 53.0703 199.685 52.3556 198.234 51.9514C196.248 51.3 194.226 50.7673 192.177 50.3561C190.682 50.2253 189.178 50.2494 187.688 50.4283C186.677 50.4788 185.674 50.6232 184.67 50.7387C184.338 50.782 184.013 50.8614 183.689 50.9192C183.689 50.9769 183.689 51.0274 183.652 51.078C183.887 51.2151 184.128 51.3404 184.374 51.4533C187.262 52.5578 190.2 53.6189 193.087 54.7594C193.872 55.0648 194.625 55.4494 195.332 55.9071C195.868 56.1698 196.277 56.6343 196.471 57.1987C196.664 57.763 196.626 58.3811 196.364 58.9172C195.837 60.2888 195.108 61.5881 194.444 62.9091C194.004 63.7969 193.47 64.6415 193.08 65.551C192.589 66.6554 192.69 67.3268 193.621 67.9476C195.065 68.9365 196.566 69.8893 198.024 70.8349C199.15 71.6001 200.269 72.4014 201.388 73.181C201.481 73.2482 201.566 73.3257 201.641 73.4119C202.55 74.2926 202.637 74.8556 201.778 75.8229C200.874 76.8418 199.91 77.806 198.891 78.7103C196.593 80.6127 193.969 82.0803 191.145 83.0414C190.77 83.1913 190.365 83.2548 189.961 83.2274C189.558 83.1999 189.166 83.082 188.814 82.8826C187.792 82.3604 186.894 81.6238 186.183 80.7232C185.472 79.8225 184.963 78.7789 184.692 77.6636C184.317 76.1044 184.836 74.6246 185.414 73.1882C185.573 72.8056 185.724 72.4158 185.89 72.0477C186.132 71.5652 186.216 71.0186 186.129 70.4859C186.042 69.9531 185.789 69.4614 185.407 69.0809C183.963 67.4711 182.44 65.8903 180.953 64.3094C179.331 62.5914 177.702 60.8807 176.066 59.1771C175.487 58.5612 175.111 57.782 174.989 56.9452C174.868 56.1085 175.007 55.2547 175.387 54.4995C176.813 51.9769 178.425 49.564 180.209 47.2811C181.501 45.5703 182.858 43.9172 184.151 42.2281C184.276 42.0401 184.46 41.8982 184.673 41.8239C184.887 41.7497 185.119 41.7471 185.334 41.8167C188.02 42.3147 190.698 42.8561 193.405 43.1954C194.413 43.2213 195.418 43.0547 196.364 42.7045C197.757 42.3147 199.136 41.8022 200.508 41.3402C202.644 40.7091 204.929 40.8056 207.004 41.6145C208.629 42.2232 210.29 42.7295 211.978 43.1304C212.996 43.2482 214.026 43.1896 215.024 42.9572C217.189 42.6107 219.355 42.1776 221.521 41.8094C221.639 41.7882 221.76 41.7934 221.876 41.8246C221.992 41.8558 222.1 41.9122 222.192 41.9899C225.282 45.6777 228.123 49.5675 230.695 53.6333C230.84 53.8715 230.962 54.1314 231.107 54.3552C231.59 55.1597 231.781 56.1057 231.65 57.0348C231.519 57.9639 231.072 58.8196 230.385 59.4586C227.382 62.5987 224.437 65.7604 221.448 68.9004Z" fill="white"/>
</g>
<defs>
<linearGradient id="paint0_linear" x1="120" y1="-48.5443" x2="120" y2="251.254" gradientUnits="userSpaceOnUse">
<stop stop-color="#EBEAF7"/>
<stop offset="1" stop-color="#D9CDFE"/>
</linearGradient>
<linearGradient id="paint1_linear" x1="98.6333" y1="71.0226" x2="185.796" y2="71.0226" gradientUnits="userSpaceOnUse">
<stop stop-color="#D9CDFE"/>
<stop offset="1" stop-color="#A78AFE"/>
</linearGradient>
<linearGradient id="paint2_linear" x1="388.864" y1="1274.48" x2="388.864" y2="2665.08" gradientUnits="userSpaceOnUse">
<stop stop-color="#EBEAF7"/>
<stop offset="1" stop-color="#D9CDFE"/>
</linearGradient>
<linearGradient id="paint3_linear" x1="1168.06" y1="1274.48" x2="1168.06" y2="2665.08" gradientUnits="userSpaceOnUse">
<stop stop-color="#EBEAF7"/>
<stop offset="1" stop-color="#D9CDFE"/>
</linearGradient>
<linearGradient id="paint4_linear" x1="1827.33" y1="990.098" x2="1827.33" y2="2065.88" gradientUnits="userSpaceOnUse">
<stop stop-color="#EBEAF7"/>
<stop offset="1" stop-color="#D9CDFE"/>
</linearGradient>
<linearGradient id="paint5_linear" x1="896.127" y1="990.098" x2="896.127" y2="2065.88" gradientUnits="userSpaceOnUse">
<stop stop-color="#EBEAF7"/>
<stop offset="1" stop-color="#D9CDFE"/>
</linearGradient>
<linearGradient id="paint6_linear" x1="512.916" y1="296.059" x2="512.916" y2="1081.52" gradientUnits="userSpaceOnUse">
<stop stop-color="#D9CDFE"/>
<stop offset="1" stop-color="#A78AFE"/>
</linearGradient>
<linearGradient id="paint7_linear" x1="901.535" y1="296.059" x2="901.535" y2="1081.52" gradientUnits="userSpaceOnUse">
<stop stop-color="#D9CDFE"/>
<stop offset="1" stop-color="#A78AFE"/>
</linearGradient>
<linearGradient id="paint8_linear" x1="1040.78" y1="414.316" x2="1040.78" y2="1559.96" gradientUnits="userSpaceOnUse">
<stop stop-color="#D9CDFE"/>
<stop offset="1" stop-color="#A78AFE"/>
</linearGradient>
<linearGradient id="paint9_linear" x1="4089.21" y1="1497.37" x2="4089.21" y2="6819.95" gradientUnits="userSpaceOnUse">
<stop stop-color="#D9CDFE"/>
<stop offset="1" stop-color="#A78AFE"/>
</linearGradient>
<linearGradient id="paint10_linear" x1="1093.58" y1="1497.37" x2="1093.58" y2="6819.95" gradientUnits="userSpaceOnUse">
<stop stop-color="#D9CDFE"/>
<stop offset="1" stop-color="#A78AFE"/>
</linearGradient>
<linearGradient id="paint11_linear" x1="20813.9" y1="3292.74" x2="20813.9" y2="13761.4" gradientUnits="userSpaceOnUse">
<stop stop-color="#D9CDFE"/>
<stop offset="1" stop-color="#A78AFE"/>
</linearGradient>
<clipPath id="clip0">
<rect width="240" height="160.878" fill="white"/>
</clipPath>
</defs>
</svg>
