<?xml version="1.0" encoding="UTF-8"?>
<svg fill="none" viewBox="0 0 240 161" xmlns="http://www.w3.org/2000/svg">
<g clip-path="url(#ad)">
<path d="m120 160.88c44.427 0 80.443-36.015 80.443-80.442s-36.016-80.443-80.443-80.443c-44.427 0-80.443 36.015-80.443 80.443s36.015 80.442 80.443 80.442z" fill="url(#ac)"/>
<path d="m166.75 108.28c-0.159-0.097-0.323-0.187-0.491-0.267-0.17-0.086-0.346-0.161-0.527-0.224-0.177-0.066-0.358-0.121-0.541-0.166-0.181-0.043-0.364-0.077-0.549-0.101l2.267-6.345c0.187 0.023 0.372 0.057 0.556 0.101 0.186 0.045 0.369 0.1 0.548 0.166 0.181 0.065 0.361 0.145 0.534 0.224 0.166 0.083 0.328 0.174 0.484 0.274l-1.148 3.184c-0.411 1.025-0.794 2.079-1.133 3.154z" fill="#D9CDFE"/>
<path d="m167.9 109.61c-0.04-0.127-0.096-0.248-0.166-0.361-0.073-0.126-0.16-0.242-0.26-0.347-0.107-0.122-0.222-0.235-0.347-0.339-0.122-0.103-0.25-0.199-0.382-0.289l0.26-0.722 0.281-0.786 0.296-0.809 0.296-0.83 0.303-0.83 0.296-0.816 0.282-0.794 0.267-0.722c0.151 0.094 0.295 0.198 0.433 0.311 0.125 0.105 0.243 0.219 0.354 0.339 0.097 0.109 0.184 0.228 0.26 0.354 0.069 0.11 0.125 0.229 0.166 0.353l-2.339 6.288z" fill="#D9CDFE"/>
<path d="m166.87 101.14-2.266 6.345-11.463-1.407 2.187-6.403 11.542 1.465z" fill="#D9CDFE"/>
<path d="m150.87 106.93 2.166-6.424c0.019-0.055 0.044-0.108 0.072-0.159 0.029-0.051 0.063-0.099 0.101-0.144l0.137-0.137 0.159-0.1159c0.116-0.0696 0.239-0.1253 0.368-0.1661 0.144-0.0462 0.291-0.08 0.44-0.101 0.165-0.0233 0.332-0.0354 0.498-0.0361 0.179 0.0015 0.357 0.0135 0.535 0.0361l-2.166 6.403c-0.177-0.023-0.355-0.035-0.534-0.036-0.316 5e-3 -0.629 0.053-0.931 0.144-0.126 0.045-0.247 0.103-0.361 0.173-0.058 0.035-0.114 0.073-0.166 0.116-0.047 0.042-0.091 0.088-0.13 0.137-0.038 0.045-0.072 0.093-0.101 0.144-0.037 0.051-0.066 0.107-0.087 0.166z" fill="#D9CDFE"/>
<path d="m150.87 106.93 0.217-0.642 0.108-0.318 0.217-0.642 0.216-0.635 0.108-0.325 0.217-0.635 0.224-0.65 0.108-0.318 0.217-0.642 0.223-0.65 0.109-0.317 0.216-0.65v0.137c-3e-3 0.05-3e-3 0.101 0 0.152-7e-3 0.05-7e-3 0.101 0 0.151-3e-3 0.053-3e-3 0.106 0 0.159l-2.165 6.424c-4e-3 -0.052-4e-3 -0.105 0-0.158-4e-3 -0.051-4e-3 -0.101 0-0.152-4e-3 -0.05-4e-3 -0.101 0-0.152-8e-3 -0.045-0.013-0.091-0.015-0.137z" fill="#fff"/>
<path d="m165.18 104.36-2.282 6.381-5.962-0.722 2.238-6.41 6.006 0.751z" fill="#fff"/>
<path d="m166.36 108.23-2.31 6.403-1.155-3.898 2.281-6.381 1.184 3.876z" fill="#fff"/>
<path d="m172.57 110.75-2.36 6.388-2.31-7.528 2.303-6.345 2.367 7.485z" fill="#D9CDFE"/>
<path d="m172.57 111.45c-0.784 2.137-1.573 4.271-2.367 6.403 0-0.058 0.036-0.115 0.05-0.166 4e-3 -0.058 4e-3 -0.115 0-0.173 4e-3 -0.063 4e-3 -0.125 0-0.188-7e-3 -0.061-0.022-0.122-0.043-0.18l2.36-6.396c0.022 0.061 0.036 0.124 0.044 0.188 7e-3 0.06 7e-3 0.12 0 0.18 7e-3 0.058 7e-3 0.116 0 0.173-8e-3 0.055-0.023 0.108-0.044 0.159z" fill="#D9CDFE"/>
<path d="m166.36 108.23-2.31 6.403-6.02-0.715 2.267-6.432 6.063 0.744z" fill="#D9CDFE"/>
<path d="m160.3 107.49-2.267 6.432-1.097-3.905 2.238-6.41 1.126 3.883z" fill="#D9CDFE"/>
<path d="m172.57 111.45-2.367 6.403c-0.017 0.05-0.039 0.099-0.065 0.144l-0.094 0.13c-0.033 0.046-0.072 0.088-0.116 0.123-0.04 0.042-0.087 0.079-0.137 0.108-0.11 0.077-0.229 0.14-0.354 0.188-0.141 0.05-0.285 0.089-0.433 0.116-0.159 0-0.325 0.014-0.498 0.043-0.18 0.01-0.361 0.01-0.541 0l2.36-6.417c0.18 0.014 0.361 0.014 0.542 0 0.167 0 0.333-0.014 0.498-0.044 0.148-0.019 0.293-0.055 0.433-0.108 0.127-0.045 0.248-0.106 0.361-0.18 0.05-0.03 0.096-0.067 0.137-0.109 0.042-0.037 0.081-0.078 0.115-0.122 0.036-0.041 0.067-0.084 0.094-0.13 0.029-0.045 0.051-0.094 0.065-0.145z" fill="#fff"/>
<path d="m155.11 108.63-2.245 6.475-2.043-7.572 2.187-6.432 2.101 7.529z" fill="#fff"/>
<path d="m170.33 112.26-2.36 6.417-11.73-1.364 2.274-6.475 11.816 1.422z" fill="#fff"/>
<path d="m168.99 101.91c0.151 0.095 0.295 0.198 0.433 0.311 0.125 0.106 0.243 0.219 0.354 0.339 0.097 0.11 0.184 0.228 0.26 0.354 0.069 0.11 0.125 0.229 0.166 0.354l2.367 7.485c0.04 0.114 0.059 0.233 0.058 0.354 6e-3 0.11-0.012 0.221-0.051 0.325-0.034 0.105-0.087 0.203-0.158 0.288-0.075 0.092-0.162 0.173-0.26 0.239-0.113 0.074-0.234 0.135-0.361 0.18-0.14 0.053-0.285 0.089-0.433 0.108-0.165 0.03-0.331 0.044-0.498 0.044-0.181 0.014-0.362 0.014-0.542 0l-11.816-1.444c-0.193-0.022-0.383-0.058-0.571-0.108-0.193-0.045-0.383-0.1-0.57-0.166-0.188-0.073-0.368-0.145-0.549-0.231-0.17-0.088-0.337-0.184-0.498-0.289-0.141-0.102-0.276-0.213-0.404-0.332-0.127-0.109-0.245-0.227-0.354-0.354-0.096-0.116-0.183-0.239-0.259-0.368-0.068-0.116-0.122-0.239-0.159-0.368l-2.115-7.529c-0.03-0.111-0.042-0.225-0.036-0.339 3e-3 -0.109 0.025-0.216 0.065-0.318 0.045-0.098 0.103-0.191 0.173-0.274 0.082-0.086 0.174-0.161 0.274-0.2239 0.116-0.0696 0.24-0.1253 0.368-0.1661 0.144-0.0462 0.291-0.08 0.441-0.101 0.165-0.0233 0.331-0.0354 0.498-0.0361 0.178 0.0015 0.357 0.0135 0.534 0.0361l11.549 1.444c0.188 0.023 0.373 0.057 0.556 0.101 0.186 0.044 0.37 0.1 0.549 0.166 0.18 0.065 0.361 0.144 0.534 0.224 0.157 0.09 0.308 0.189 0.455 0.295zm-2.628 6.317-1.184-3.869-6.005-0.722 1.126 3.883 6.063 0.722" fill="#fff"/>
<path d="m158.51 110.84-2.274 6.496c-0.193-0.022-0.383-0.058-0.57-0.108-0.191-0.044-0.379-0.1-0.563-0.166-0.186-0.065-0.367-0.142-0.542-0.231-0.171-0.085-0.337-0.179-0.498-0.281-0.151-0.099-0.296-0.208-0.433-0.325-0.123-0.111-0.238-0.229-0.346-0.354-0.101-0.114-0.185-0.24-0.253-0.375-0.068-0.116-0.121-0.24-0.159-0.368l2.245-6.497c0.038 0.129 0.091 0.252 0.159 0.368 0.077 0.129 0.164 0.252 0.26 0.368 0.108 0.127 0.227 0.245 0.353 0.354 0.14 0.118 0.287 0.226 0.441 0.325 0.161 0.104 0.327 0.201 0.498 0.288 0.18 0.087 0.361 0.159 0.548 0.231 0.187 0.067 0.378 0.122 0.571 0.166 0.184 0.05 0.373 0.086 0.563 0.109z" fill="#fff"/>
<path d="m177.83 111.58-2.418 6.367c-0.319 0.834-0.837 1.577-1.509 2.165-0.767 0.666-1.65 1.185-2.606 1.531-1.147 0.424-2.346 0.693-3.565 0.801-1.457 0.128-2.923 0.106-4.375-0.065-2.128-0.253-4.218-0.755-6.229-1.494-1.937-0.703-3.785-1.628-5.508-2.758-1.553-0.996-2.953-2.212-4.158-3.609-1.028-1.154-1.78-2.527-2.202-4.014-0.071-0.285-0.126-0.574-0.166-0.866-0.029-0.275-0.041-0.553-0.036-0.83 2e-3 -0.264 0.026-0.527 0.073-0.787 0.044-0.245 0.107-0.486 0.187-0.722l2.166-6.453c-0.081 0.236-0.143 0.477-0.188 0.722-0.044 0.258-0.065 0.518-0.065 0.78-7e-3 0.275 8e-3 0.55 0.043 0.822 0.039 0.29 0.097 0.577 0.174 0.859 0.436 1.485 1.2 2.852 2.237 4 1.225 1.393 2.639 2.608 4.202 3.609 3.573 2.299 7.62 3.762 11.838 4.28 1.458 0.181 2.931 0.212 4.396 0.094 1.232-0.097 2.445-0.356 3.609-0.772 0.957-0.337 1.843-0.848 2.613-1.509 0.668-0.582 1.179-1.321 1.487-2.151z" fill="#fff"/>
<path d="m159.92 96.367c4.024 0.5402 7.886 1.9358 11.326 4.0933 1.53 0.95 2.926 2.101 4.151 3.421 1.061 1.117 1.879 2.442 2.403 3.891 0.429 1.18 0.457 2.469 0.08 3.667-0.415 1.142-1.194 2.116-2.216 2.772-1.262 0.821-2.684 1.363-4.173 1.588-1.91 0.309-3.855 0.338-5.774 0.086-4.218-0.518-8.265-1.981-11.839-4.28-1.562-1.001-2.976-2.216-4.201-3.609-1.037-1.148-1.802-2.515-2.238-3.999-0.352-1.191-0.281-2.466 0.202-3.61 0.519-1.1088 1.373-2.0277 2.44-2.6271 1.3-0.7524 2.735-1.2429 4.223-1.4437 1.866-0.2338 3.755-0.2168 5.616 0.0505zm12.654 14.386-2.368-7.485c-0.04-0.125-0.096-0.244-0.166-0.354-0.075-0.126-0.162-0.244-0.259-0.354-0.111-0.12-0.229-0.233-0.354-0.339-0.138-0.113-0.282-0.216-0.433-0.311-0.156-0.099-0.318-0.191-0.484-0.274-0.173-0.079-0.354-0.159-0.534-0.224-0.179-0.066-0.363-0.121-0.549-0.166-0.183-0.044-0.368-0.077-0.555-0.101l-11.55-1.4434c-0.177-0.0225-0.356-0.0346-0.534-0.036-0.167 7e-4 -0.333 0.0127-0.498 0.036-0.15 0.021-0.297 0.0548-0.441 0.1011-0.128 0.0407-0.252 0.0965-0.368 0.166-0.1 0.0633-0.192 0.1383-0.274 0.2233-0.069 0.084-0.128 0.176-0.173 0.275-0.04 0.101-0.062 0.209-0.065 0.317-6e-3 0.115 6e-3 0.229 0.036 0.34l2.1 7.529c0.038 0.128 0.091 0.252 0.159 0.368 0.077 0.129 0.164 0.252 0.26 0.368 0.109 0.127 0.227 0.245 0.354 0.354 0.139 0.118 0.286 0.226 0.44 0.324 0.161 0.105 0.327 0.201 0.498 0.289 0.181 0.087 0.361 0.159 0.549 0.231 0.187 0.066 0.377 0.122 0.57 0.166 0.187 0.05 0.378 0.086 0.57 0.108l11.817 1.444c0.18 0.014 0.361 0.014 0.541 0 0.167 1e-3 0.334-0.014 0.498-0.043 0.149-0.019 0.294-0.055 0.434-0.108 0.127-0.046 0.248-0.107 0.36-0.181 0.099-0.066 0.186-0.146 0.26-0.238 0.071-0.085 0.125-0.183 0.159-0.289 0.039-0.104 0.056-0.214 0.051-0.325 1e-3 -0.12-0.019-0.24-0.058-0.353" fill="url(#r)"/>
<path d="m166.36 108.23-1.183-3.876-6.006-0.751 1.126 3.883 6.063 0.744z" fill="url(#h)"/>
<path d="m134.16 60.635h-19.453c-0.517 0-1.013 0.2054-1.378 0.5709-0.366 0.3655-0.571 0.8612-0.571 1.3781v16.834c0 0.5169 0.205 1.0126 0.571 1.3781 0.365 0.3655 0.861 0.5709 1.378 0.5709h19.453c0.519 0 1.017 0.2061 1.384 0.5729 0.367 0.3669 0.573 0.8645 0.573 1.3833v7.2185c1e-3 0.3856 0.117 0.762 0.332 1.0821 0.215 0.32 0.52 0.5694 0.876 0.7167 0.357 0.1473 0.749 0.186 1.127 0.1113 0.378-0.0748 0.726-0.2596 1-0.5314l19.49-19.49c0.182-0.1805 0.326-0.3953 0.425-0.6319 0.098-0.2367 0.149-0.4905 0.149-0.7468 0-0.2564-0.051-0.5102-0.149-0.7468-0.099-0.2367-0.243-0.4514-0.425-0.632l-19.49-19.49c-0.274-0.2718-0.622-0.4567-1-0.5314-0.378-0.0748-0.77-0.036-1.127 0.1113-0.356 0.1473-0.661 0.3966-0.876 0.7167-0.215 0.32-0.331 0.6965-0.332 1.0821v7.2185c-0.026 0.5011-0.244 0.9731-0.608 1.3183-0.364 0.3453-0.847 0.5375-1.349 0.5368z" fill="url(#g)"/>
<path d="m102.21 111.63c-0.392 0.136-0.764 0.326-1.105 0.563-0.376 0.248-0.726 0.534-1.046 0.851-0.3206 0.317-0.6106 0.662-0.8665 1.033-0.2385 0.339-0.4325 0.708-0.5775 1.097l-6.3595-6.439c0.1518-0.389 0.3506-0.757 0.5919-1.097 0.5173-0.746 1.1683-1.39 1.9201-1.899 0.3472-0.234 0.7202-0.428 1.1117-0.577l0.7218 0.765 0.7869 0.801 0.8156 0.83 0.8302 0.852c1.0753 1.068 2.1223 2.144 3.1763 3.22z" fill="#D9CDFE"/>
<path d="m88.318 125.33c-0.0668 0.176-0.1175 0.357-0.1516 0.542-0.0173 0.153-0.0173 0.308 0 0.462 0.012 0.128 0.0411 0.254 0.0867 0.375 0.0434 0.109 0.1098 0.208 0.1948 0.289l-6.4533-6.374c-0.081-0.08-0.1449-0.176-0.1876-0.282-0.0465-0.122-0.0733-0.251-0.0794-0.382-0.0171-0.151-0.0171-0.304 0-0.455 0.0401-0.184 0.0931-0.365 0.1588-0.541l6.4244 6.366-6.4244-6.366c0.153-0.39 0.3517-0.761 0.5919-1.105 0.2632-0.371 0.5578-0.719 0.8806-1.039 0.3214-0.318 0.6718-0.606 1.0467-0.859 0.3408-0.233 0.7094-0.422 1.0972-0.563l6.4028 6.388c-0.387 0.14-0.7555 0.327-1.0972 0.556-0.3741 0.248-0.7223 0.534-1.0395 0.852-0.322 0.315-0.6121 0.66-0.8662 1.032-0.2435 0.34-0.4401 0.712-0.5847 1.104z" fill="#D9CDFE"/>
<path d="m103.83 111.76c-0.078-0.082-0.171-0.148-0.275-0.194-0.118-0.045-0.242-0.074-0.368-0.087-0.151-0.018-0.303-0.018-0.454 0-0.177 0.032-0.351 0.078-0.52 0.137l-6.3308-6.497c0.1689-0.06 0.3428-0.106 0.5197-0.137 0.1489-0.014 0.2987-0.014 0.4476 0 0.1247 6e-3 0.2472 0.035 0.3609 0.087 0.1048 0.04 0.1987 0.105 0.2743 0.188 1.9057 1.963 4.4463 4.555 6.3453 6.503z" fill="#D9CDFE"/>
<path d="m90.426 113.68 6.41 6.439-4.9302 1.667-6.4028-6.388 4.923-1.718z" fill="#D9CDFE"/>
<path d="m92.26 108.73 6.3595 6.439-1.783 4.952-6.41-6.439 1.8335-4.952z" fill="#D9CDFE"/>
<path d="m88.419 127-0.6425-0.628-0.3248-0.318-0.6425-0.635-0.6424-0.635-0.3176-0.318-0.6497-0.642-0.6424-0.635-0.3249-0.318-0.6424-0.643-0.6497-0.642-0.3248-0.318-0.6497-0.642c0.0771 0.076 0.1677 0.137 0.2671 0.18 0.111 0.044 0.2278 0.07 0.3465 0.08 0.1414 0.017 0.2845 0.017 0.4259 0 0.1669-0.027 0.3311-0.068 0.4909-0.123l6.4966 6.396c-0.1623 0.053-0.329 0.092-0.4981 0.115-0.1414 0.018-0.2845 0.018-0.4259 0-0.1189-0.012-0.2356-0.042-0.3465-0.086-0.1145-0.038-0.2185-0.102-0.3031-0.188z" fill="#fff"/>
<path d="m97.486 105.27 0.6425 0.65 0.3176 0.325 0.6352 0.649 1.588 1.625 0.953 0.974 0.635 0.643 0.628 0.649 0.318 0.318 0.628 0.649c0.08 0.077 0.142 0.171 0.18 0.275 0.052 0.113 0.081 0.236 0.087 0.361 0.021 0.146 0.021 0.294 0 0.44-0.032 0.172-0.078 0.341-0.137 0.505l-6.3598-6.496c0.0631-0.164 0.109-0.333 0.1372-0.506 0.0172-0.146 0.0172-0.294 0-0.44-0.0068-0.124-0.0337-0.246-0.0794-0.361-0.0391-0.098-0.0981-0.186-0.1733-0.26z" fill="#fff"/>
<path d="m88.441 119.05 6.4605 6.446-4.9446 1.646-6.4606-6.396 4.9447-1.696z" fill="#fff"/>
<path d="m95.883 105.16c0.303-0.119 0.6276-0.173 0.9528-0.159 0.2385 6e-3 0.4667 0.099 0.6425 0.26 0.1651 0.171 0.2604 0.397 0.2671 0.635 0.0114 0.326-0.0451 0.65-0.1661 0.953l-1.819 4.973-5.3345 1.863 1.8335-4.952c0.1518-0.389 0.3506-0.757 0.5919-1.097 0.5173-0.746 1.1683-1.39 1.9201-1.899 0.3472-0.234 0.7202-0.428 1.1117-0.577z" fill="#fff"/>
<path d="m95.76 111.82 6.4175 6.497-5.342 1.805-6.41-6.439 5.3345-1.863z" fill="#fff"/>
<path d="m97.579 106.85 6.3596 6.489-1.761 4.981-6.4176-6.497 1.819-4.973z" fill="#fff"/>
<path d="m88.441 119.05 6.4605 6.446-1.8262 5.068-6.5183-6.446 1.884-5.068z" fill="#D9CDFE"/>
<path d="m100.81 110.06 6.418 6.547-5.053 1.711-6.4176-6.497 5.0526-1.761z" fill="#D9CDFE"/>
<path d="m93.797 117.21 6.468 6.504-5.3635 1.783-6.4606-6.446 5.3561-1.841z" fill="#fff"/>
<path d="m93.191 132.28-6.4967-6.454c-0.0851-0.083-0.1515-0.184-0.1949-0.296-0.0523-0.123-0.0816-0.255-0.0866-0.389-0.0209-0.156-0.0209-0.314 0-0.47 0.033-0.189 0.0838-0.375 0.1516-0.555l6.4967 6.446c-0.0679 0.18-0.1186 0.366-0.1516 0.555-0.0212 0.159-0.0212 0.319 0 0.477 0.0072 0.134 0.039 0.267 0.0938 0.39 0.0412 0.11 0.1051 0.211 0.1877 0.296z" fill="#D9CDFE"/>
<path d="m102.5 110.19 6.424 6.562c-0.083-0.083-0.181-0.149-0.289-0.195-0.118-0.055-0.245-0.087-0.375-0.094-0.153-0.021-0.309-0.021-0.462 0-0.182 0.025-0.361 0.069-0.534 0.13l-6.418-6.547c0.175-0.06 0.353-0.106 0.535-0.137 0.153-0.018 0.308-0.018 0.462 0 0.129 0.011 0.256 0.043 0.375 0.093 0.107 0.041 0.203 0.105 0.282 0.188z" fill="#D9CDFE"/>
<path d="m93.797 117.21 6.4679 6.504-1.812 5.089-6.5183-6.496 1.8624-5.097z" fill="#fff"/>
<path d="m98.864 115.47 6.4746 6.547-5.074 1.696-6.468-6.504 5.0674-1.739z" fill="#fff"/>
<path d="m93.191 132.28-6.4966-6.454c0.0796 0.077 0.1726 0.138 0.2743 0.181 0.1112 0.051 0.2313 0.081 0.3537 0.086 0.146 0.022 0.2943 0.022 0.4403 0 0.1722-0.023 0.3415-0.064 0.5053-0.122 0.3977-0.14 0.7761-0.329 1.1261-0.563 0.3845-0.261 0.7445-0.555 1.0756-0.881 0.3339-0.327 0.636-0.684 0.9023-1.068 0.2442-0.355 0.4454-0.738 0.5991-1.141l6.4966 6.497c-0.1466 0.404-0.3456 0.788-0.5919 1.14-0.2594 0.383-0.5569 0.739-0.8879 1.061-0.3292 0.326-0.6895 0.618-1.0755 0.874-0.3486 0.235-0.7274 0.422-1.1261 0.556-0.1638 0.056-0.3332 0.095-0.5053 0.115-0.1438 0.018-0.2893 0.018-0.4331 0-0.1248-0.01-0.2468-0.042-0.3609-0.094-0.1108-0.041-0.2117-0.105-0.296-0.187z" fill="#fff"/>
<path d="m86.557 124.12 1.8768-5.053 5.3634-1.841-1.8624 5.096c-0.1537 0.403-0.3549 0.786-0.5992 1.141-0.2662 0.384-0.5683 0.741-0.9023 1.068-0.331 0.326-0.691 0.62-1.0755 0.881-0.35 0.234-0.7284 0.423-1.1261 0.563-0.3108 0.116-0.6435 0.163-0.9745 0.137-0.2419-0.019-0.4682-0.127-0.6352-0.303-0.156-0.192-0.2425-0.431-0.2454-0.679-0.0075-0.345 0.0539-0.689 0.1804-1.01z" fill="#fff"/>
<path d="m102.5 110.19 6.425 6.562c0.081 0.084 0.147 0.182 0.195 0.288 0.045 0.121 0.074 0.247 0.086 0.376 0.021 0.148 0.021 0.299 0 0.447-0.024 0.178-0.068 0.352-0.13 0.52-0.145 0.401-0.342 0.782-0.584 1.133-0.281 0.372-0.595 0.718-0.939 1.033-0.328 0.326-0.688 0.619-1.075 0.873-0.352 0.236-0.733 0.425-1.133 0.563l-6.4538-6.489c0.404-0.142 0.7875-0.336 1.1408-0.578 0.777-0.517 1.449-1.179 1.978-1.949 0.244-0.351 0.443-0.732 0.591-1.133 0.065-0.168 0.111-0.342 0.138-0.52 0.017-0.149 0.017-0.299 0-0.447-0.012-0.127-0.041-0.25-0.087-0.369-0.028-0.112-0.08-0.218-0.152-0.31z" fill="#fff"/>
<path d="m100.81 110.06c0.313-0.119 0.647-0.173 0.982-0.159 0.247 8e-3 0.483 0.106 0.664 0.275 0.167 0.179 0.267 0.412 0.282 0.657 0.015 0.332-0.042 0.665-0.166 0.974-0.149 0.401-0.348 0.782-0.592 1.133-0.529 0.77-1.201 1.432-1.978 1.949-0.3532 0.242-0.7367 0.436-1.1407 0.578l-5.0529 1.739-5.3633 1.841-4.9375 1.696c-0.3021 0.112-0.6239 0.161-0.9456 0.145-0.2332-0.017-0.4518-0.12-0.6136-0.289-0.1549-0.184-0.2394-0.416-0.2382-0.657-0.0065-0.334 0.0574-0.666 0.1877-0.974 0.1531-0.39 0.3517-0.761 0.5919-1.105 0.2633-0.371 0.5579-0.719 0.8807-1.039 0.3214-0.318 0.6718-0.606 1.0467-0.859 0.3408-0.233 0.7094-0.422 1.0972-0.563l4.923-1.718 5.3344-1.863 5.0382-1.761z" fill="#fff"/>
<path d="m98.583 97.818c2.0481-0.8107 4.2371-1.2057 6.4391-1.1622 1.623 0.0223 3.187 0.6152 4.417 1.6747 1.156 1.1232 1.854 2.6359 1.957 4.2449 0.136 2.224-0.206 4.452-1.004 6.532-0.988 2.715-2.325 5.289-3.977 7.659-3.594 5.224-8.1477 9.716-13.419 13.239-2.3742 1.6-4.9494 2.879-7.6589 3.804-2.0626 0.753-4.2677 1.034-6.4533 0.823-1.589-0.151-3.0606-0.902-4.1145-2.101-1.0127-1.291-1.5505-2.892-1.5231-4.533 0.0203-2.231 0.4713-4.437 1.3282-6.497 1.0355-2.591 2.3755-5.051 3.9918-7.326 3.4479-4.9 7.7458-9.141 12.69-12.524 2.2797-1.567 4.7397-2.8541 7.3268-3.8334zm0.3104 17.678c0.4039-0.142 0.7874-0.336 1.1407-0.578 0.777-0.517 1.449-1.179 1.978-1.949 0.244-0.351 0.443-0.732 0.592-1.133 0.124-0.309 0.181-0.642 0.166-0.975-0.015-0.245-0.115-0.477-0.282-0.656-0.181-0.17-0.417-0.267-0.664-0.275-0.335-0.014-0.669 0.04-0.982 0.159l-5.0527 1.761 1.8191-4.973c0.1209-0.303 0.1774-0.627 0.166-0.953-0.0067-0.238-0.1019-0.464-0.2671-0.635-0.1758-0.162-0.404-0.254-0.6424-0.26-0.3253-0.015-0.6499 0.04-0.9529 0.159-0.3915 0.149-0.7645 0.343-1.1116 0.577-0.7518 0.509-1.4029 1.153-1.9201 1.899-0.2414 0.34-0.4402 0.708-0.592 1.097l-1.8335 4.952-4.923 1.718c-0.3878 0.141-0.7564 0.33-1.0972 0.563-0.3748 0.253-0.7252 0.54-1.0466 0.859-0.3228 0.32-0.6175 0.668-0.8807 1.039-0.2429 0.342-0.4418 0.713-0.5919 1.105-0.1303 0.308-0.1942 0.64-0.1877 0.974-0.0012 0.24 0.0832 0.473 0.2382 0.657 0.1618 0.169 0.3804 0.272 0.6136 0.289 0.3217 0.016 0.6435-0.033 0.9456-0.145l4.9374-1.696-1.8768 5.053c-0.1247 0.317-0.186 0.655-0.1804 0.996 0.0029 0.247 0.0894 0.487 0.2454 0.679 0.167 0.176 0.3933 0.284 0.6352 0.303 0.331 0.026 0.6637-0.021 0.9745-0.137 0.3977-0.14 0.7761-0.329 1.1261-0.563 0.3845-0.261 0.7445-0.555 1.0756-0.881 0.3339-0.327 0.636-0.684 0.9023-1.068 0.2443-0.355 0.4454-0.738 0.5991-1.141l1.8624-5.096 5.0529-1.74" fill="url(#f)"/>
<path d="m109.72 98.568 6.323 6.5977c0.517 0.536 0.926 1.166 1.206 1.855 0.318 0.766 0.513 1.577 0.577 2.404 0.081 0.978 0.044 1.961-0.108 2.931-0.177 1.159-0.459 2.299-0.844 3.407-0.961 2.71-2.274 5.283-3.906 7.651-3.557 5.204-8.093 9.666-13.354 13.138-2.3714 1.579-4.942 2.837-7.6444 3.739-1.0762 0.337-2.1801 0.579-3.2989 0.722-0.938 0.127-1.8877 0.144-2.8296 0.051-0.8009-0.08-1.5849-0.282-2.3244-0.6-0.6653-0.271-1.2765-0.66-1.8046-1.147l-6.5616-6.353c0.5129 0.493 1.1125 0.887 1.7686 1.163 0.7363 0.307 1.5153 0.499 2.3099 0.57 0.9383 0.083 1.8831 0.057 2.8152-0.08 1.1181-0.165 2.2196-0.428 3.2916-0.786 2.7094-0.925 5.2847-2.205 7.6588-3.805 5.2716-3.522 9.8252-8.015 13.419-13.238 1.652-2.37 2.989-4.945 3.977-7.659 0.394-1.108 0.688-2.248 0.881-3.407 0.159-0.954 0.205-1.923 0.137-2.888-0.057-0.819-0.239-1.625-0.541-2.389-0.26-0.6928-0.649-1.3299-1.148-1.8767z" fill="#fff"/>
<path d="m121.05 36.28c-0.369-1.154-0.925-2.2393-1.646-3.2122-0.703-0.9516-1.547-1.7891-2.505-2.4832-0.927-0.6741-1.959-1.1911-3.053-1.5303-1.055-0.3294-2.165-0.44-3.263-0.3249l3.053-2.7935c1.109-0.1106 2.229 0.0049 3.292 0.3393 1.105 0.3467 2.146 0.8709 3.082 1.5519 0.967 0.6957 1.822 1.5356 2.534 2.4904 0.734 0.9788 1.298 2.0746 1.667 3.2411l-3.161 2.7214z" fill="#D9CDFE"/>
<path d="m119.22 37.948-3.14 2.6636c0.246-0.2046 0.456-0.4485 0.621-0.7218 0.172-0.2844 0.298-0.5937 0.376-0.9167 0.079-0.3454 0.11-0.7 0.093-1.0539-0.023-0.385-0.093-0.7656-0.209-1.1334-0.16-0.5548-0.412-1.0792-0.743-1.5519-0.339-0.4565-0.745-0.8582-1.206-1.1911-0.439-0.3176-0.926-0.5614-1.444-0.7218-0.504-0.1542-1.034-0.2057-1.559-0.1516-0.163 0.0194-0.325 0.0508-0.483 0.0938-0.154 0.0398-0.304 0.093-0.448 0.1588-0.142 0.0635-0.279 0.1358-0.411 0.2166-0.124 0.0833-0.243 0.175-0.354 0.2743l3.017-2.7575c0.113-0.101 0.234-0.1928 0.361-0.2743 0.13-0.0806 0.265-0.153 0.404-0.2165 0.148-0.0648 0.3-0.1179 0.455-0.1588 0.161-0.0431 0.325-0.0744 0.491-0.0939 0.53-0.0547 1.065-7e-4 1.574 0.1588 0.516 0.1629 1.003 0.4065 1.443 0.7219 0.472 0.3317 0.891 0.7333 1.242 1.191 0.35 0.4714 0.619 0.9985 0.794 1.5592 0.123 0.3713 0.196 0.7573 0.216 1.1478 0.018 0.3563-0.014 0.7133-0.093 1.0611-0.079 0.3249-0.205 0.6364-0.376 0.9239-0.163 0.2894-0.373 0.5503-0.621 0.7724z" fill="#fff"/>
<path d="m110.58 28.73c-0.359 0.0344-0.714 0.0996-1.061 0.1949-0.332 0.0872-0.656 0.2031-0.968 0.3465-0.305 0.1358-0.599 0.2951-0.88 0.4764-0.275 0.1796-0.533 0.3825-0.773 0.6064l3.032-2.7936c0.241-0.2256 0.502-0.4286 0.78-0.6063 0.28-0.1852 0.574-0.347 0.88-0.4837 0.315-0.1399 0.641-0.2533 0.975-0.3392 0.35-0.0954 0.707-0.1606 1.068-0.1949l-1.537 1.4004-0.592 0.5486-0.195 0.1732-0.195 0.1733-0.18 0.1732c-0.109 0.0938-0.224 0.2671-0.354 0.3248z" fill="#D9CDFE"/>
<path d="m119.14 44.422c0.531-0.4384 0.985-0.963 1.343-1.552 0.361-0.6026 0.626-1.2577 0.786-1.9418 0.177-0.732 0.248-1.4856 0.21-2.2377-0.042-0.8193-0.19-1.6298-0.441-2.411l3.162-2.6924c0.255 0.788 0.408 1.6056 0.455 2.4326 0.037 0.7588-0.031 1.5191-0.202 2.2594-0.165 0.6894-0.435 1.3492-0.801 1.9562-0.356 0.5926-0.81 1.1199-1.343 1.5592l-3.169 2.6275z" fill="#D9CDFE"/>
<path d="m116.08 40.611c-0.105 0.0939-0.219 0.1785-0.339 0.2527-0.124 0.0745-0.251 0.1419-0.382 0.2021-0.138 0.06-0.281 0.1083-0.426 0.1444-0.149 0.043-0.301 0.0744-0.455 0.0938l0.361-0.3104 0.382-0.3248 0.405-0.3465 0.404-0.3465 0.411-0.3465 0.405-0.3465 0.389-0.332 0.369-0.3176c0.155-0.0171 0.31-0.046 0.461-0.0866 0.145-0.043 0.287-0.0936 0.426-0.1516 0.134-0.0558 0.262-0.1235 0.383-0.2021 0.123-0.0736 0.239-0.1581 0.346-0.2527l-3.14 2.6708z" fill="#D9CDFE"/>
<path d="m114.48 41.304h-0.874l3.119-2.6708h0.224 0.657l-3.126 2.6708z" fill="#D9CDFE"/>
<path d="m109.42 37.68c-0.112-0.3632-0.178-0.7391-0.195-1.1188-0.02-0.3441 9e-3 -0.6892 0.087-1.025 0.074-0.3161 0.193-0.62 0.353-0.9024 0.157-0.2693 0.354-0.5128 0.585-0.7218l3.082-2.7575c-0.235 0.207-0.435 0.4508-0.592 0.7219-0.163 0.2809-0.282 0.5852-0.353 0.9023-0.077 0.3408-0.106 0.6906-0.087 1.0395 0.016 0.3828 0.084 0.7616 0.202 1.126l-3.082 2.7358z" fill="#D9CDFE"/>
<path d="m113.6 41.304c-0.462-0.0546-0.912-0.1812-1.335-0.3753-0.439-0.2047-0.847-0.4695-1.213-0.7869-0.377-0.3222-0.71-0.6937-0.989-1.1044-0.278-0.4202-0.496-0.8769-0.649-1.3571l0.353-0.3176 0.383-0.332 0.39-0.3465 0.404-0.3537 0.404-0.3609 0.397-0.3465 0.383-0.3393 0.361-0.3248c0.151 0.4867 0.372 0.9488 0.657 1.3715 0.281 0.4192 0.619 0.7981 1.003 1.1261 0.369 0.3214 0.783 0.5887 1.227 0.794 0.424 0.1993 0.878 0.3285 1.343 0.3826l-3.119 2.6708z" fill="#D9CDFE"/>
<path d="m122.32 41.795c-1.054 0.8806-2.112 1.7565-3.176 2.6275-0.228 0.1831-0.47 0.3495-0.722 0.4981-0.249 0.1546-0.509 0.2898-0.779 0.4042-0.281 0.1172-0.568 0.2184-0.859 0.3032-0.306 0.0836-0.617 0.144-0.932 0.1805-1.108 0.1414-2.234 0.0505-3.306-0.2671-1.109-0.3309-2.158-0.8405-3.104-1.5087-0.984-0.7073-1.851-1.5647-2.569-2.5409-0.738-0.9913-1.3-2.1024-1.661-3.2844-0.234-0.7519-0.372-1.5305-0.411-2.3171-0.036-0.7271 0.027-1.4557 0.188-2.1656 0.15-0.6545 0.393-1.2841 0.721-1.8696 0.322-0.5603 0.726-1.0689 1.199-1.5086l3.032-2.7936c-0.478 0.4428-0.885 0.9566-1.206 1.5231-0.332 0.5891-0.575 1.224-0.722 1.884-0.157 0.7105-0.218 1.4389-0.18 2.1656 0.041 0.7916 0.182 1.575 0.418 2.3316 0.371 1.1947 0.942 2.3176 1.69 3.3205 0.722 0.9907 1.599 1.8585 2.598 2.5697 0.956 0.6942 2.023 1.2214 3.155 1.5592 1.08 0.3225 2.215 0.4184 3.335 0.2815 0.316-0.0406 0.629-0.1009 0.938-0.1804 0.294-0.0848 0.583-0.186 0.866-0.3032 0.27-0.1144 0.531-0.2496 0.78-0.4042 0.25-0.1476 0.486-0.3167 0.707-0.5053z" fill="#fff"/>
<path d="m126.43 47.259-3.227 2.5481c-0.371 0.29-0.759 0.5575-1.162 0.8012-0.415 0.2466-0.847 0.4637-1.292 0.6497-0.458 0.1959-0.928 0.3599-1.408 0.4909-0.501 0.137-1.009 0.2431-1.523 0.3176-1.92 0.2487-3.871 0.1013-5.731-0.4331-1.948-0.5604-3.784-1.4517-5.429-2.6348-1.711-1.224-3.219-2.7099-4.468-4.4033-1.279-1.7286-2.2552-3.6617-2.8874-5.717-0.3944-1.2735-0.6367-2.5892-0.7218-3.9196-0.0574-1.2112 0.0445-2.4246 0.3032-3.6093 0.2551-1.1198 0.6708-2.1969 1.234-3.1977 0.526-0.9536 1.193-1.8224 1.978-2.577l0.296-0.2816 0.296-0.2887 0.592-0.563 0.296-0.2888 0.296-0.2815 0.152-0.1444 0.295-0.2887 0.304-0.2815 0.144-0.1444 0.303-0.2887c-0.791 0.7589-1.461 1.6354-1.985 2.5986-0.548 1.0003-0.946 2.0751-1.184 3.1906-0.258 1.1992-0.355 2.4276-0.288 3.6525 0.078 1.3455 0.32 2.6763 0.721 3.963 0.628 2.0749 1.604 4.0278 2.888 5.7748 1.251 1.726 2.769 3.2417 4.497 4.4898 1.66 1.1977 3.513 2.1011 5.479 2.6709 1.872 0.5518 3.839 0.7067 5.775 0.4548 1.017-0.1344 2.013-0.4039 2.959-0.8013 0.449-0.187 0.883-0.4065 1.299-0.6569 0.418-0.2382 0.819-0.506 1.199-0.8012z" fill="#fff"/>
<path d="m111.71 19.8c1.909-0.1751 3.834 0.036 5.659 0.6208 1.887 0.5952 3.663 1.4976 5.255 2.6708 1.655 1.2021 3.116 2.6506 4.332 4.295 1.256 1.6792 2.231 3.5516 2.887 5.5438 0.621 1.8762 0.888 3.8515 0.787 5.8253-0.092 1.7619-0.557 3.4843-1.365 5.0529-0.775 1.5246-1.906 2.8395-3.298 3.833-1.477 1.0289-3.181 1.6852-4.967 1.9129-1.935 0.2519-3.902 0.0971-5.774-0.4547-1.966-0.5698-3.82-1.4732-5.479-2.6709-1.734-1.2376-3.259-2.7435-4.519-4.461-1.283-1.747-2.26-3.6998-2.887-5.7748-0.608-1.9377-0.833-3.9749-0.665-5.9985 0.155-1.779 0.694-3.5031 1.581-5.053 0.851-1.4645 2.042-2.7026 3.472-3.6092 1.501-0.9608 3.208-1.5544 4.981-1.7324zm7.312 23.388c1.037-0.1211 2.028-0.4927 2.888-1.0827 0.804-0.5578 1.462-1.3005 1.92-2.1656 0.481-0.9116 0.762-1.9159 0.823-2.9451 0.066-1.1514-0.086-2.3048-0.448-3.3999-0.365-1.1792-0.929-2.2874-1.667-3.2772-0.71-0.9651-1.565-1.8149-2.534-2.5193-0.934-0.6695-1.97-1.1838-3.068-1.5231-1.063-0.3344-2.182-0.4498-3.291-0.3392-1.029 0.1-2.019 0.444-2.888 1.0033-0.824 0.5385-1.507 1.2661-1.992 2.1223-0.505 0.9033-0.808 1.9058-0.888 2.9379-0.091 1.1674 0.044 2.3413 0.397 3.4577 0.371 1.1947 0.942 2.3176 1.689 3.3205 0.723 0.9907 1.6 1.8585 2.599 2.5697 0.956 0.6942 2.022 1.2214 3.154 1.5592 1.081 0.3225 2.216 0.4184 3.335 0.2815" fill="url(#e)"/>
<path d="m115.03 30.411c0.53-0.0547 1.065-7e-4 1.573 0.1588 0.517 0.1629 1.004 0.4065 1.444 0.7219 0.475 0.3311 0.896 0.7327 1.249 1.191 0.35 0.4714 0.619 0.9985 0.794 1.5592 0.172 0.5232 0.243 1.0744 0.209 1.6242-0.03 0.4898-0.166 0.9674-0.397 1.4004-0.219 0.4139-0.537 0.7682-0.924 1.0322-0.412 0.2773-0.885 0.4507-1.379 0.5053-0.531 0.0638-1.069 0.0146-1.58-0.1444-0.536-0.1536-1.041-0.3978-1.495-0.7218-0.459-0.3372-0.863-0.7439-1.198-1.2055-0.354-0.4753-0.625-1.0074-0.801-1.5736-0.172-0.5281-0.238-1.0849-0.195-1.6386 0.036-0.4909 0.176-0.9684 0.411-1.4004 0.231-0.4092 0.555-0.758 0.946-1.0178 0.403-0.2673 0.863-0.4355 1.343-0.4909z" fill="url(#d)"/>
<path d="m113.63 25.936c1.109-0.1106 2.229 0.0049 3.292 0.3393 1.105 0.3467 2.146 0.8709 3.082 1.5519 0.967 0.6957 1.822 1.5356 2.534 2.4904 0.734 0.9788 1.298 2.0746 1.667 3.2411 0.362 1.0951 0.514 2.2486 0.448 3.3999-0.061 1.0292-0.342 2.0335-0.823 2.9452-0.458 0.8651-1.116 1.6077-1.92 2.1655-0.86 0.59-1.851 0.9616-2.888 1.0828-1.119 0.1368-2.254 0.041-3.334-0.2816-1.132-0.3378-2.199-0.865-3.155-1.5591-0.999-0.7113-1.876-1.579-2.599-2.5698-0.747-1.0029-1.318-2.1258-1.689-3.3205-0.353-1.1164-0.488-2.2903-0.397-3.4577 0.08-1.0321 0.383-2.0345 0.888-2.9379 0.486-0.8561 1.169-1.5838 1.992-2.1222 0.877-0.5488 1.872-0.8804 2.902-0.9673zm3.97 12.697c0.494-0.0546 0.967-0.228 1.379-0.5053 0.387-0.264 0.704-0.6183 0.924-1.0322 0.231-0.433 0.367-0.9106 0.397-1.4004 0.034-0.5498-0.037-1.101-0.209-1.6242-0.175-0.5607-0.444-1.0878-0.794-1.5592-0.344-0.4612-0.755-0.8677-1.22-1.2055-0.44-0.3153-0.928-0.559-1.444-0.7218-0.508-0.1595-1.044-0.2136-1.573-0.1588-0.493 0.0497-0.966 0.2181-1.379 0.4908-0.391 0.2599-0.715 0.6087-0.946 1.0179-0.235 0.432-0.376 0.9095-0.411 1.4003-0.044 0.5537 0.023 1.1105 0.195 1.6386 0.179 0.5616 0.453 1.0888 0.808 1.5592 0.344 0.4695 0.761 0.8813 1.234 1.2199 0.454 0.3241 0.959 0.5682 1.495 0.7219 0.511 0.159 1.049 0.2082 1.581 0.1444" fill="#fff"/>
<path d="m27.394 105.24 1.7541-14.826-11.434 0.3248 9.68 14.502z" fill="url(#c)"/>
<path d="m63.985 90.419 1.7541 14.826 9.68-14.502-11.434-0.3248z" fill="url(#b)"/>
<path d="m72.683 74.09-20.529 0.9167 1.8984 10.553 3.0318-6.3594 7.3051 3.3277 8.294-8.4384z" fill="url(#a)"/>
<path d="m28.78 82.529 7.3051-3.3277 2.9956 6.3594 1.9346-10.553-20.565-0.9167 8.3301 8.4384z" fill="url(#ab)"/>
<g opacity=".1">
<path d="m27.394 105.24 1.7541-14.826-11.434 0.3248 9.68 14.502z" fill="url(#aa)" opacity=".1"/>
<path d="m63.985 90.419 1.7541 14.826 9.68-14.502-11.434-0.3248z" fill="url(#z)" opacity=".1"/>
<path d="m72.683 74.09-20.529 0.9167 1.8985 10.553 3.0318-6.3594 7.3051 3.3277 8.294-8.4384z" fill="url(#y)" opacity=".1"/>
<path d="m28.78 82.529 7.3051-3.3277 2.9956 6.3594 1.9346-10.553-20.565-0.9167 8.3301 8.4384z" fill="url(#x)" opacity=".1"/>
</g>
<path d="m40.351 54.875 0.2959 0.2238-0.3176-0.8085-0.0433-1.3787-0.3754 0.3248-5.652-14.314-29.654-11.066 34.512 26.088-12.892 11.42-5.7748 8.7272 20.566 0.9167-0.6641-20.132z" fill="#EBEAF7"/>
<path d="m75.419 90.419-9.6799 14.826 20.71 5.696 5.9552-20.198-16.985-0.3248z" fill="#EBEAF7"/>
<path d="m53.756 53.655 34.735-25.799-29.617 11.066-5.9192 14.018-0.3248-0.2887-0.0217 1.1261-0.4547 1.0683 0.4331-0.3248-0.4331 20.486 20.529-0.9167-5.8109-8.7272-13.116-11.708z" fill="#EBEAF7"/>
<path d="m53.359 99.218 12.38 6.027-11.506 5.443 0.1155-3.4-0.9167-0.801h-13.766l-0.8445 0.801 0.0721 3.4-11.499-5.443 12.344-6.027-10.669-8.3301-1.6747 14.357-9.68-14.826-16.949 0.3248 5.9192 20.198 20.71-5.696 4.0135 3.285 8.1496 5.659h13.982l8.1858-5.659 4.0135-3.285-1.718-14.357-10.662 8.3301z" fill="#EBEAF7"/>
<path d="m20.45 74.09 8.6188 16.797-0.2887-8.359-8.3301-8.4384z" fill="#EBEAF7"/>
<path d="m64.389 82.529-0.3681 8.359 8.6621-16.797-8.294 8.4384z" fill="#EBEAF7"/>
<path d="m41.492 98.012 0.5414-16.4-1.0178-6.6049-1.9346 10.553 2.411 12.452z" fill="#EBEAF7"/>
<path d="m51.605 98.012 2.447-12.452-1.8984-10.553-0.9889 6.5688 0.4403 16.436z" fill="#EBEAF7"/>
<g opacity=".1">
<path d="m40.351 54.875 0.2959 0.2238-0.3176-0.8085-0.0433-1.3787-0.3754 0.3248-5.652-14.314-29.654-11.066 34.512 26.088-12.892 11.42-5.7748 8.7272 20.566 0.9167-0.6641-20.132z" fill="url(#w)" opacity=".1"/>
<path d="m75.419 90.419-9.68 14.826 20.71 5.696 5.9552-20.198-16.985-0.3248z" fill="url(#v)" opacity=".1"/>
<path d="m53.756 53.655 34.735-25.799-29.617 11.066-5.9192 14.018-0.3248-0.2887-0.0217 1.1261-0.4547 1.0683 0.4331-0.3248-0.4331 20.486 20.529-0.9167-5.8109-8.7272-13.116-11.708z" fill="url(#u)" opacity=".1"/>
<path d="m53.359 99.218 12.38 6.027-11.506 5.443 0.1155-3.4-0.9167-0.801h-13.766l-0.8445 0.801 0.0721 3.4-11.499-5.443 12.344-6.027-10.669-8.3301-1.6747 14.357-9.68-14.826-16.949 0.3248 5.9192 20.198 20.71-5.696 4.0135 3.285 8.1496 5.659h13.982l8.1858-5.659 4.0135-3.285-1.718-14.357-10.662 8.3301z" fill="url(#t)" opacity=".1"/>
<path d="m20.45 74.09 8.6188 16.797-0.2887-8.359-8.3301-8.4384z" fill="url(#s)" opacity=".1"/>
<path d="m64.389 82.529-0.3682 8.359 8.6622-16.797-8.294 8.4384z" fill="url(#q)" opacity=".1"/>
<path d="m41.492 98.012 0.5414-16.4-1.0178-6.6049-1.9346 10.553 2.411 12.452z" fill="url(#p)" opacity=".1"/>
<path d="m51.605 98.012 2.447-12.452-1.8984-10.553-0.9889 6.5688 0.4403 16.436z" fill="url(#o)" opacity=".1"/>
</g>
<path d="m36.049 79.201-7.269 3.3278 10.301 3.0317-3.0318-6.3595z" fill="url(#n)"/>
<path d="m54.016 85.561 10.337-3.0317-7.3051-3.3278-3.0317 6.3595z" fill="url(#m)"/>
<path d="m51.605 98.012h-10.113l-1.7541 1.2055-0.9168 8.07 0.8446-0.801h13.766l0.9168 0.801-0.989-8.07-1.7541-1.2055z" fill="url(#l)"/>
<path d="m90.029 56.6 3.1039-14.906-4.6414-13.838-35.132 26.073 13.513 11.434 19.1 5.5871 4.2373-4.9302-1.8263-1.3138 2.9235-2.6708-2.2666-1.7469 2.9234-2.2305-1.9345-1.4581z" fill="url(#k)"/>
<path d="m4.6054 27.856-4.6054 13.838 3.104 14.906-1.9706 1.4581 2.9235 2.2305-2.2305 1.7469 2.9235 2.6708-1.8263 1.3138 4.2012 4.9302 19.1-5.5871 13.513-11.434-35.132-26.073z" fill="url(#j)"/>
<path d="m54.348 107.29-0.9889-8.07 12.38 6.027-11.506 5.443 0.1155-3.4zm-15.455 3.4-0.0721-3.4 0.9167-8.07-12.308 6.027 11.463 5.443zm25.496-28.152-10.337 3.0317-2.447 12.452 1.7541 1.2055 10.662-8.3301 0.3681-8.359zm-35.609 0 0.2887 8.359 10.669 8.3301 1.7541-1.2055-2.411-12.452-10.301-3.0317zm63.616 8.2074-6.4244-19.793-19.1-5.5871 5.7748 8.7272-8.6622 16.797 11.398-0.1444h17.014zm-66.172-25.38-19.1 5.5871-6.3595 19.793h16.949l11.355 0.1444-8.6189-16.797 5.7748-8.7272zm25.929 9.6367 1.2055-21.071 5.551-15.007h-24.651l5.4788 15.007 1.2777 21.071 0.4403 6.6482v16.364h10.106l0.0722-16.364 0.5197-6.6482z" fill="#fff"/>
<path d="m239.87 55.315c-0.758-2.115-1.501-4.23-2.231-6.3595-0.073-0.235-0.073-0.4868 0-0.7218 0.554-1.41 1.127-2.8128 1.718-4.2084 0.07-0.1156 0.095-0.2526 0.071-0.3854-0.023-0.1328-0.095-0.2524-0.2-0.3364-1.848-1.8841-3.66-3.8186-5.523-5.6882-1.055-0.9519-2.4-1.5214-3.818-1.6169-1.81-0.1957-3.64-0.0859-5.414 0.3248-0.109 0.0176-0.221 0.0118-0.328-0.0168s-0.207-0.0794-0.293-0.1492c-2.382-2.6781-4.742-5.3706-7.11-8.0631-0.05-0.0733-0.089-0.1536-0.116-0.2382h-26.564c-1.133 1.3066-2.244 2.6203-3.378 3.9124-1.133 1.2921-2.461 2.743-3.609 4.1434-0.135 0.1798-0.32 0.3146-0.533 0.3868-0.212 0.0722-0.442 0.0782-0.658 0.0175-1.366-0.222-2.746-0.3474-4.129-0.3754-1.512-0.0701-3.004 0.3753-4.23 1.2632-0.771 0.6421-1.495 1.3393-2.166 2.0862-0.447 0.4547-0.88 0.9095-1.328 1.3715-0.808 0.8373-1.61 1.6819-2.425 2.5192-0.143 0.1045-0.243 0.2578-0.28 0.4308s-0.01 0.3536 0.078 0.5076c0.57 1.2994 1.111 2.6203 1.609 3.9485 0.109 0.3282 0.109 0.6825 0 1.0106-0.721 2.0717-1.443 4.129-2.165 6.2079-0.132 0.3602-0.162 0.75-0.087 1.1261 1.444 5.5221 2.888 11.037 4.331 16.559 0.802 3.0606 1.603 6.1357 2.411 9.1963 0.693 2.6949 1.398 5.3826 2.115 8.0631 0.13 0.4836 0.267 0.9673 0.412 1.4437 0.522 1.9024 1.356 3.705 2.468 5.3344 0.265 0.3737 0.549 0.7327 0.852 1.0756 0.765 0.8598 1.614 1.6408 2.534 2.3313 0.462 0.361 0.938 0.722 1.444 1.04l0.202 0.137 0.187 0.123 1.076 0.721 0.318 0.21c2.969 2.031 5.938 4.057 8.907 6.078l3.407 2.302 0.405 0.268c0.122 0.093 0.259 0.173 0.382 0.259 0.035 0.025 0.071 0.046 0.108 0.065 0.997 0.664 2 1.3 3.018 1.92 0.446 0.303 0.955 0.501 1.488 0.581 0.534 0.08 1.078 0.04 1.594-0.119 0.354-0.109 0.692-0.267 1.003-0.469l0.289-0.187c1.049-0.665 2.091-1.336 3.126-2.014l0.361-0.231 0.151-0.101 0.072-0.044c0.963-0.64 1.937-1.289 2.924-1.949l0.188-0.122 0.252-0.166 0.13-0.102c1.444-0.96 2.837-1.927 4.252-2.887 2.435-1.67 4.863-3.354 7.283-5.053 3.172-2.2172 5.418-5.5239 6.309-9.2901 0.903-3.3854 1.798-6.7853 2.686-10.178 0.158-0.5847 0.317-1.1838 0.469-1.7685l6.042-22.933c0.098-0.3962 0.067-0.8133-0.087-1.1911zm-25.337 32.851c-0.787 0.6352-1.61 1.2344-2.404 1.8624-2.497 1.9778-4.99 3.9653-7.478 5.9624-1.068 0.8446-1.53 0.8735-2.584 0.0433-3.297-2.5938-6.591-5.1949-9.882-7.8031-0.83-0.6641-0.794-1.2488 0.151-1.7469 3.213-1.6963 6.381-3.4793 9.854-4.6126 0.368-0.1227 0.721-0.2166 1.176-0.3321 0.599 0.1877 1.227 0.3682 1.841 0.592 3.206 1.2727 6.317 2.7706 9.312 4.4826 0.729 0.3826 0.729 0.9745 0.014 1.552zm15.881-28.694c-2.996 3.1256-5.97 6.2873-8.958 9.4274-0.47 0.4242-0.787 0.9909-0.903 1.6131-0.116 0.6221-0.025 1.2651 0.26 1.8301 0.408 0.9385 0.753 1.9031 1.032 2.8874 0.224 0.7606 0.275 1.5615 0.15 2.3445-0.125 0.7829-0.422 1.5281-0.871 2.1815-0.823 1.4417-2.064 2.5997-3.559 3.3205-0.604 0.2807-1.294 0.3118-1.92 0.0866-4.078-1.3679-7.726-3.7794-10.583-6.9947-1.126-1.2921-1.126-1.9273 0.26-2.9668 1.581-1.1983 3.285-2.2305 4.931-3.3349 0.938-0.6281 1.876-1.2488 2.786-1.9129 0.909-0.6641 1.075-1.1767 0.599-2.1656-0.664-1.4437-1.487-2.7719-2.166-4.1795-0.483-0.97-0.903-1.9707-1.256-2.9957-0.166-0.4291-0.177-0.903-0.031-1.3394 0.147-0.4365 0.441-0.8079 0.833-1.0499 1.003-0.6471 2.064-1.2005 3.169-1.653 2.735-1.09 5.493-2.0934 8.243-3.1328 0.202-0.0794 0.39-0.1805 0.585-0.2743v-0.2238c-0.484-0.0794-0.967-0.1877-1.444-0.231-1.79-0.1516-3.609-0.2671-5.385-0.4042-1.92-0.1516-3.703 0.462-5.508 0.9673-0.808 0.2309-1.617 0.4692-2.403 0.7218-0.207 0.0369-0.404 0.1186-0.576 0.2394-0.173 0.1208-0.316 0.2779-0.422 0.4601-0.105 0.1822-0.169 0.3852-0.187 0.5948-0.019 0.2096 9e-3 0.4208 0.08 0.6186 0.404 2.1655 0.838 4.3816 1.227 6.576 0.325 1.8263 0.621 3.6598 0.895 5.4861 0.174 1.1261-0.137 1.5592-1.234 1.819-1.307 0.3505-2.635 0.6134-3.977 0.7868-1.064 0.0252-2.127-0.0717-3.169-0.2887-0.83-0.1227-1.646-0.3465-2.462-0.5414-0.815-0.1949-1.169-0.5702-1.082-1.3931 0.187-1.6531 0.433-3.2989 0.721-4.9375 0.434-2.447 0.953-4.8869 1.372-7.334 0.173-1.0105 0.224-1.7252-1.227-2.1294-1.986-0.6514-4.008-1.1841-6.057-1.5953-1.495-0.1309-2.999-0.1067-4.489 0.0722-1.011 0.0505-2.014 0.1949-3.018 0.3104-0.332 0.0433-0.657 0.1227-0.981 0.1805 0 0.0577 0 0.1082-0.037 0.1588 0.235 0.1371 0.476 0.2624 0.722 0.3753 2.888 1.1044 5.826 2.1656 8.713 3.3061 0.785 0.3054 1.538 0.6899 2.245 1.1477 0.536 0.2627 0.945 0.7272 1.139 1.2916 0.193 0.5643 0.155 1.1824-0.107 1.7185-0.527 1.3715-1.256 2.6709-1.92 3.9918-0.44 0.8879-0.974 1.7325-1.364 2.642-0.491 1.1044-0.39 1.7758 0.541 2.3965 1.444 0.989 2.945 1.9418 4.403 2.8874 1.127 0.7652 2.245 1.5664 3.364 2.346 0.093 0.0673 0.178 0.1448 0.253 0.231 0.909 0.8807 0.996 1.4437 0.137 2.411-0.904 1.0189-1.868 1.9831-2.887 2.8874-2.298 1.9023-4.922 3.37-7.746 4.3311-0.375 0.1499-0.78 0.2134-1.184 0.1859-0.403-0.0275-0.795-0.1453-1.147-0.3447-1.022-0.5222-1.92-1.2588-2.631-2.1595s-1.22-1.9443-1.491-3.0595c-0.375-1.5592 0.144-3.039 0.722-4.4754 0.159-0.3826 0.31-0.7724 0.476-1.1406 0.242-0.4824 0.326-1.029 0.239-1.5617-0.087-0.5328-0.34-1.0245-0.722-1.4051-1.444-1.6097-2.967-3.1905-4.454-4.7714-1.622-1.718-3.251-3.4287-4.887-5.1323-0.579-0.616-0.955-1.3951-1.077-2.2319-0.121-0.8367 0.018-1.6905 0.398-2.4457 1.426-2.5226 3.038-4.9355 4.822-7.2185 1.292-1.7107 2.649-3.3638 3.942-5.0529 0.125-0.188 0.309-0.33 0.522-0.4042 0.214-0.0743 0.446-0.0768 0.661-0.0073 2.686 0.4981 5.364 1.0395 8.071 1.3788 1.008 0.0259 2.013-0.1407 2.959-0.4909 1.393-0.3898 2.772-0.9023 4.144-1.3643 2.136-0.6311 4.421-0.5346 6.496 0.2743 1.625 0.6087 3.286 1.1149 4.974 1.5159 1.018 0.1177 2.048 0.0591 3.046-0.1732 2.165-0.3465 4.331-0.7796 6.497-1.1478 0.118-0.0212 0.239-0.016 0.355 0.0152s0.224 0.0876 0.316 0.1653c3.09 3.6878 5.931 7.5776 8.503 11.643 0.145 0.2382 0.267 0.4981 0.412 0.7218 0.489 0.8036 0.687 1.7513 0.559 2.6834-0.128 0.9322-0.572 1.7919-1.259 2.4345h7e-3z" fill="url(#i)"/>
<path d="m214.53 88.166c-0.787 0.6352-1.61 1.2344-2.404 1.8624-2.497 1.9778-4.99 3.9653-7.478 5.9624-1.068 0.8446-1.53 0.8735-2.584 0.0433-3.297-2.5938-6.591-5.1949-9.882-7.8031-0.83-0.6641-0.794-1.2488 0.151-1.7469 3.213-1.6964 6.381-3.4793 9.854-4.6126 0.368-0.1227 0.721-0.2166 1.176-0.3321 0.599 0.1877 1.227 0.3682 1.841 0.5919 3.206 1.2728 6.317 2.7707 9.312 4.4827 0.729 0.3826 0.729 0.9745 0.014 1.552z" fill="#fff"/>
<path d="m221.45 68.9c-0.469 0.4242-0.786 0.991-0.903 1.6131-0.116 0.6221-0.024 1.2651 0.261 1.8301 0.408 0.9386 0.752 1.9031 1.032 2.8874 0.224 0.7606 0.275 1.5615 0.15 2.3445-0.125 0.7829-0.423 1.5281-0.872 2.1815-0.822 1.4418-2.063 2.5997-3.558 3.3205-0.604 0.2807-1.294 0.3118-1.92 0.0866-4.078-1.3679-7.726-3.7794-10.583-6.9947-1.126-1.2921-1.126-1.9273 0.26-2.9668 1.581-1.1983 3.284-2.2305 4.93-3.3349 0.939-0.628 1.877-1.2488 2.787-1.9129 0.909-0.6641 1.075-1.1766 0.599-2.1656-0.664-1.4437-1.487-2.7719-2.166-4.1795-0.484-0.97-0.903-1.9707-1.256-2.9956-0.166-0.4292-0.177-0.9031-0.031-1.3395s0.441-0.8079 0.832-1.0499c1.004-0.6471 2.065-1.2005 3.169-1.653 2.736-1.09 5.494-2.0933 8.244-3.1328 0.202-0.0794 0.39-0.1805 0.585-0.2743v-0.2238c-0.484-0.0794-0.968-0.1877-1.444-0.231-1.79-0.1516-3.609-0.2671-5.385-0.4042-1.92-0.1516-3.703 0.462-5.508 0.9673-0.808 0.231-1.617 0.4692-2.404 0.7218-0.206 0.0378-0.402 0.1202-0.573 0.2414-0.172 0.1212-0.315 0.2783-0.419 0.4604-0.105 0.1822-0.168 0.3849-0.186 0.594-0.018 0.2092 0.01 0.4198 0.081 0.6171 0.404 2.1656 0.838 4.3816 1.227 6.5761 0.325 1.8262 0.621 3.6597 0.895 5.486 0.174 1.1261-0.137 1.5592-1.234 1.8191-1.307 0.3504-2.635 0.6133-3.977 0.7868-1.064 0.0251-2.127-0.0718-3.169-0.2888-0.83-0.1227-1.646-0.3465-2.462-0.5414-0.815-0.1949-1.169-0.5702-1.082-1.3931 0.187-1.6531 0.433-3.2989 0.721-4.9375 0.434-2.447 0.953-4.8869 1.372-7.3339 0.173-1.0106 0.224-1.7253-1.227-2.1295-1.986-0.6514-4.008-1.1841-6.057-1.5953-1.495-0.1308-2.999-0.1067-4.489 0.0722-1.011 0.0505-2.014 0.1949-3.018 0.3104-0.332 0.0433-0.657 0.1227-0.981 0.1805 0 0.0577 0 0.1082-0.037 0.1588 0.235 0.1371 0.476 0.2624 0.722 0.3753 2.888 1.1045 5.826 2.1656 8.713 3.3061 0.785 0.3054 1.538 0.69 2.245 1.1477 0.536 0.2627 0.945 0.7272 1.139 1.2916 0.193 0.5643 0.155 1.1824-0.107 1.7185-0.527 1.3716-1.256 2.6709-1.92 3.9919-0.44 0.8878-0.974 1.7324-1.364 2.6419-0.491 1.1044-0.39 1.7758 0.541 2.3966 1.444 0.9889 2.945 1.9417 4.403 2.8873 1.126 0.7652 2.245 1.5665 3.364 2.3461 0.093 0.0672 0.178 0.1447 0.253 0.2309 0.909 0.8807 0.996 1.4437 0.137 2.411-0.904 1.0189-1.868 1.9831-2.887 2.8874-2.298 1.9024-4.922 3.37-7.746 4.3311-0.375 0.1499-0.78 0.2134-1.184 0.186-0.403-0.0275-0.795-0.1454-1.147-0.3448-1.022-0.5222-1.92-1.2588-2.631-2.1594-0.711-0.9007-1.22-1.9443-1.491-3.0596-0.375-1.5592 0.144-3.039 0.722-4.4754 0.159-0.3826 0.31-0.7724 0.476-1.1405 0.242-0.4825 0.326-1.0291 0.239-1.5618-0.087-0.5328-0.34-1.0245-0.722-1.405-1.444-1.6098-2.967-3.1906-4.454-4.7715-1.622-1.718-3.251-3.4287-4.887-5.1323-0.579-0.6159-0.955-1.3951-1.077-2.2319-0.121-0.8367 0.018-1.6905 0.398-2.4457 1.426-2.5226 3.038-4.9355 4.822-7.2184 1.292-1.7108 2.649-3.3639 3.942-5.053 0.125-0.188 0.309-0.3299 0.522-0.4042 0.214-0.0742 0.446-0.0768 0.661-0.0072 2.686 0.498 5.364 1.0394 8.071 1.3787 1.008 0.0259 2.013-0.1407 2.959-0.4909 1.393-0.3898 2.772-0.9023 4.144-1.3643 2.136-0.6311 4.421-0.5346 6.496 0.2743 1.625 0.6087 3.286 1.115 4.974 1.5159 1.018 0.1178 2.048 0.0592 3.046-0.1732 2.165-0.3465 4.331-0.7796 6.497-1.1478 0.118-0.0212 0.239-0.016 0.355 0.0152s0.224 0.0876 0.316 0.1653c3.09 3.6878 5.931 7.5776 8.503 11.643 0.145 0.2382 0.267 0.4981 0.412 0.7219 0.483 0.8045 0.674 1.7505 0.543 2.6796s-0.578 1.7848-1.265 2.4238c-3.003 3.1401-5.948 6.3018-8.937 9.4418z" fill="#fff"/>
</g>
<defs>
<linearGradient id="ac" x1="96.742" x2="142.38" y1="-1.9201" y2="159.69" gradientUnits="userSpaceOnUse">
<stop stop-color="#D34255" offset="0"/>
<stop stop-color="#97358A" offset="1"/>
</linearGradient>
<linearGradient id="r" x1="127.72" x2="170.67" y1="9.4418" y2="128.16" gradientUnits="userSpaceOnUse">
<stop stop-color="#4C58CB" offset="0"/>
<stop stop-color="#68319E" offset="1"/>
</linearGradient>
<linearGradient id="h" x1="1432.3" x2="1622.4" y1="163.9" y2="980.21" gradientUnits="userSpaceOnUse">
<stop stop-color="#4C58CB" offset="0"/>
<stop stop-color="#68319E" offset="1"/>
</linearGradient>
<linearGradient id="g" x1="8434.8" x2="9177.8" y1="2975.8" y2="5721.7" gradientUnits="userSpaceOnUse">
<stop stop-color="#4C58CB" offset="0"/>
<stop stop-color="#68319E" offset="1"/>
</linearGradient>
<linearGradient id="f" x1="3376.6" x2="5634.4" y1="1838.9" y2="8101.2" gradientUnits="userSpaceOnUse">
<stop stop-color="#4C58CB" offset="0"/>
<stop stop-color="#68319E" offset="1"/>
</linearGradient>
<linearGradient id="e" x1="4500.3" x2="6323" y1="686.32" y2="5573.4" gradientUnits="userSpaceOnUse">
<stop stop-color="#4C58CB" offset="0"/>
<stop stop-color="#68319E" offset="1"/>
</linearGradient>
<linearGradient id="d" x1="1325.5" x2="1827.4" y1="213.01" y2="1558.5" gradientUnits="userSpaceOnUse">
<stop stop-color="#4C58CB" offset="0"/>
<stop stop-color="#68319E" offset="1"/>
</linearGradient>
<linearGradient id="c" x1="23.431" x2="23.431" y1="57.647" y2="125.35" gradientUnits="userSpaceOnUse">
<stop stop-color="#EBEAF7" offset="0"/>
<stop stop-color="#D9CDFE" offset="1"/>
</linearGradient>
<linearGradient id="b" x1="1168.1" x2="1168.1" y1="1274.5" y2="2665.1" gradientUnits="userSpaceOnUse">
<stop stop-color="#EBEAF7" offset="0"/>
<stop stop-color="#D9CDFE" offset="1"/>
</linearGradient>
<linearGradient id="a" x1="1827.3" x2="1827.3" y1="990.1" y2="2065.9" gradientUnits="userSpaceOnUse">
<stop stop-color="#EBEAF7" offset="0"/>
<stop stop-color="#D9CDFE" offset="1"/>
</linearGradient>
<linearGradient id="ab" x1="896.13" x2="896.13" y1="990.1" y2="2065.9" gradientUnits="userSpaceOnUse">
<stop stop-color="#EBEAF7" offset="0"/>
<stop stop-color="#D9CDFE" offset="1"/>
</linearGradient>
<linearGradient id="aa" x1="620.98" x2="192.63" y1="2565.2" y2="1891.1" gradientUnits="userSpaceOnUse">
<stop stop-color="#4C58CB" offset="0"/>
<stop stop-color="#68319E" offset="1"/>
</linearGradient>
<linearGradient id="z" x1="1223.1" x2="794.71" y1="2212" y2="1538" gradientUnits="userSpaceOnUse">
<stop stop-color="#4C58CB" offset="0"/>
<stop stop-color="#68319E" offset="1"/>
</linearGradient>
<linearGradient id="y" x1="2172" x2="1985.6" y1="1704.7" y2="1023.7" gradientUnits="userSpaceOnUse">
<stop stop-color="#4C58CB" offset="0"/>
<stop stop-color="#68319E" offset="1"/>
</linearGradient>
<linearGradient id="x" x1="1453.9" x2="1267.7" y1="1893.4" y2="1212.2" gradientUnits="userSpaceOnUse">
<stop stop-color="#4C58CB" offset="0"/>
<stop stop-color="#68319E" offset="1"/>
</linearGradient>
<linearGradient id="w" x1="2510.7" x2="409.51" y1="7647" y2="3182.7" gradientUnits="userSpaceOnUse">
<stop stop-color="#4C58CB" offset="0"/>
<stop stop-color="#68319E" offset="1"/>
</linearGradient>
<linearGradient id="v" x1="3081" x2="2465.3" y1="3076.4" y2="875.14" gradientUnits="userSpaceOnUse">
<stop stop-color="#4C58CB" offset="0"/>
<stop stop-color="#68319E" offset="1"/>
</linearGradient>
<linearGradient id="u" x1="4525" x2="2421.1" y1="6716.7" y2="2255.6" gradientUnits="userSpaceOnUse">
<stop stop-color="#4C58CB" offset="0"/>
<stop stop-color="#68319E" offset="1"/>
</linearGradient>
<linearGradient id="t" x1="3788.1" x2="3428.8" y1="4022.5" y2="1321" gradientUnits="userSpaceOnUse">
<stop stop-color="#4C58CB" offset="0"/>
<stop stop-color="#68319E" offset="1"/>
</linearGradient>
<linearGradient id="s" x1="496.21" x2="-420.11" y1="2871.5" y2="1577.9" gradientUnits="userSpaceOnUse">
<stop stop-color="#4C58CB" offset="0"/>
<stop stop-color="#68319E" offset="1"/>
</linearGradient>
<linearGradient id="q" x1="989.66" x2="74.867" y1="2556.1" y2="1258.1" gradientUnits="userSpaceOnUse">
<stop stop-color="#4C58CB" offset="0"/>
<stop stop-color="#68319E" offset="1"/>
</linearGradient>
<linearGradient id="p" x1="251.38" x2="-583.95" y1="3766.7" y2="3471.7" gradientUnits="userSpaceOnUse">
<stop stop-color="#4C58CB" offset="0"/>
<stop stop-color="#68319E" offset="1"/>
</linearGradient>
<linearGradient id="o" x1="296.36" x2="-524.55" y1="3657.8" y2="3374.4" gradientUnits="userSpaceOnUse">
<stop stop-color="#4C58CB" offset="0"/>
<stop stop-color="#68319E" offset="1"/>
</linearGradient>
<linearGradient id="n" x1="166.19" x2="371.03" y1="292.5" y2="1109.5" gradientUnits="userSpaceOnUse">
<stop stop-color="#4C58CB" offset="0"/>
<stop stop-color="#68319E" offset="1"/>
</linearGradient>
<linearGradient id="m" x1="502.43" x2="706.63" y1="214.91" y2="1032.3" gradientUnits="userSpaceOnUse">
<stop stop-color="#4C58CB" offset="0"/>
<stop stop-color="#68319E" offset="1"/>
</linearGradient>
<linearGradient id="l" x1="326.54" x2="616.72" y1="389.55" y2="1585.8" gradientUnits="userSpaceOnUse">
<stop stop-color="#4C58CB" offset="0"/>
<stop stop-color="#68319E" offset="1"/>
</linearGradient>
<linearGradient id="k" x1="3162.9" x2="5332" y1="338.57" y2="5268.3" gradientUnits="userSpaceOnUse">
<stop stop-color="#4C58CB" offset="0"/>
<stop stop-color="#68319E" offset="1"/>
</linearGradient>
<linearGradient id="j" x1="396.58" x2="2567" y1="1531.8" y2="6460.5" gradientUnits="userSpaceOnUse">
<stop stop-color="#4C58CB" offset="0"/>
<stop stop-color="#68319E" offset="1"/>
</linearGradient>
<linearGradient id="i" x1="20814" x2="20814" y1="3292.7" y2="13761" gradientUnits="userSpaceOnUse">
<stop stop-color="#4C58CB" offset="0"/>
<stop stop-color="#68319E" offset="1"/>
</linearGradient>
<clipPath id="ad">
<rect width="240" height="160.88" fill="#fff"/>
</clipPath>
</defs>
</svg>
