<svg width="227" height="160" viewBox="0 0 227 160" fill="none" xmlns="http://www.w3.org/2000/svg">
<g clip-path="url(#clip0)">
<path d="M212.119 81.0662C211.854 79.6734 211.487 78.302 211.02 76.9631C210.157 74.4264 208.967 72.0131 207.479 69.7844L175.107 21.1033C172.595 17.3308 168.957 14.4469 164.711 12.8621C160.465 11.2773 155.827 11.0726 151.458 12.2769L135.395 16.6707L124.345 19.7077L123.841 19.8433L116.307 21.8981L114.421 22.4215L96.0698 27.4615L85.3631 30.3692L47.0399 40.9402C42.3105 42.2403 38.1601 45.1022 35.2636 49.0604C32.3671 53.0186 30.8949 57.8403 31.0864 62.7413L31.1962 65.4681L31.4095 71.025L32.1655 90.2028V90.5388L33.167 116.178L33.4125 122.394L33.8519 133.656C33.9794 135.715 34.5501 137.722 35.525 139.539C36.4999 141.357 37.8559 142.942 39.5003 144.187C41.1447 145.432 43.0387 146.307 45.0526 146.753C47.0665 147.198 49.1528 147.203 51.1688 146.767L58.7158 145.132L83.7219 139.724L104.696 135.201L117.91 132.345L125.218 130.762L136.26 128.371L140.564 127.44L141.494 127.24L146.709 126.103L154.152 124.494L156.091 124.068L159.406 123.35L161.17 122.969L188.786 116.992C196.547 115.147 203.296 110.38 207.629 103.683C211.962 96.9857 213.545 88.8752 212.048 81.0403L212.119 81.0662ZM76.8404 70.773L76.3751 71.7228L74.1072 76.5431L73.8875 76.7499L76.0908 71.8585L76.5819 70.7601C76.5819 70.7148 77.0019 68.9315 77.6351 66.0238C78.1908 63.4392 78.9275 60.0598 79.7804 56.1894C80.7884 55.9955 82.2034 55.9503 83.3084 55.821L76.5755 70.7665L76.8404 70.773Z" fill="#EBEAF7"/>
<path d="M50.4644 150.411C49.9834 150.411 49.515 150.257 49.1273 149.972C48.7397 149.687 48.453 149.286 48.3089 148.827C48.1647 148.368 48.1708 147.875 48.326 147.42C48.4812 146.964 48.7776 146.57 49.1721 146.295C64.2791 135.782 81.4086 123.867 101.077 120.139C116.378 117.231 131.802 119.435 146.709 121.56L201.153 129.314C201.747 129.4 202.283 129.718 202.642 130.198C203.001 130.679 203.155 131.282 203.069 131.876C202.984 132.47 202.665 133.006 202.185 133.365C201.705 133.724 201.101 133.878 200.507 133.792L146.063 126.038C131.518 123.964 116.482 121.819 101.917 124.578C83.1791 128.132 66.489 139.75 51.7503 150.004C51.3743 150.27 50.9249 150.412 50.4644 150.411V150.411ZM23.5005 133.107C23.0365 133.099 22.5857 132.951 22.2082 132.681C21.7234 132.331 21.3974 131.803 21.3016 131.213C21.2059 130.623 21.3484 130.019 21.6978 129.534V129.534C32.6177 114.395 47.8669 102.331 65.804 94.6418C83.7412 86.9526 102.99 84.2065 121.483 86.7264C135.117 88.5744 148.272 93.104 161.002 97.4784C164.439 98.6609 167.993 99.8821 171.489 101.032C186.415 105.924 203.996 110.602 221.178 108.198C221.771 108.112 222.375 108.266 222.855 108.625C223.336 108.985 223.654 109.52 223.74 110.114C223.825 110.708 223.672 111.311 223.312 111.792C222.953 112.272 222.418 112.59 221.824 112.676C203.731 115.209 185.517 110.382 170.099 105.329C166.571 104.173 162.992 102.945 159.548 101.756C147.032 97.4526 134.083 93.0006 120.895 91.2043C84.9301 86.3129 46.5229 102.738 25.3356 132.17C25.1258 132.461 24.85 132.697 24.531 132.86C24.2119 133.023 23.8587 133.108 23.5005 133.107V133.107ZM2.26799 102.144C1.66648 102.144 1.08961 101.905 0.664279 101.479C0.238948 101.054 0 100.477 0 99.8756C0.000384869 99.4589 0.11431 99.0501 0.329537 98.6932C10.668 81.8932 27.946 65.7394 46.5681 55.4915C68.0203 43.6992 90.5064 40.3263 109.794 46.0124C122.808 49.8441 134.089 57.6432 145.003 65.2161C147.749 67.1222 150.598 69.093 153.403 70.9539C177.769 87.1077 197.07 95.7855 223.614 92.5095C223.909 92.453 224.213 92.4562 224.507 92.5186C224.802 92.5811 225.081 92.7017 225.328 92.8734C225.575 93.0451 225.786 93.2644 225.947 93.5184C226.108 93.7724 226.217 94.0561 226.268 94.3528C226.318 94.6495 226.308 94.9533 226.24 95.2463C226.171 95.5393 226.045 95.8157 225.868 96.0592C225.691 96.3028 225.468 96.5086 225.21 96.6647C224.953 96.8207 224.667 96.9238 224.37 96.968H224.169C196.236 100.425 176.154 91.4175 150.909 74.7016C148.053 72.8083 145.19 70.8247 142.418 68.8862C131.815 61.5782 120.83 53.9795 108.553 50.3546C90.6615 45.0884 68.8797 48.4161 48.7844 59.4589C30.8214 69.3385 14.1636 84.8914 4.19998 101.065C3.99738 101.395 3.71329 101.668 3.37499 101.857C3.03668 102.045 2.65549 102.144 2.26799 102.144V102.144ZM208.158 81.5314C183.669 81.5314 169.673 68.3887 161.182 58.3346C159.554 56.3961 157.952 54.4124 156.343 52.5192C149.319 43.9383 142.056 35.0731 132.836 29.0768C117.606 19.1261 96.3218 16.9809 74.5271 23.1387C52.4675 29.3999 34.0586 38.6205 19.8239 50.5678C19.363 50.939 18.7749 51.1147 18.1859 51.0573C17.5969 50.9999 17.0539 50.7138 16.6734 50.2606C16.2929 49.8074 16.1052 49.223 16.1506 48.6329C16.196 48.0429 16.4709 47.4941 16.9162 47.1044C31.6614 34.7436 50.613 25.1999 73.2929 18.8095C96.3476 12.2898 118.944 14.6418 135.323 25.271C145.139 31.6485 152.627 40.7786 159.877 49.6309C161.441 51.5693 163.063 53.5078 164.672 55.4463C172.858 65.1385 186.55 77.9259 210.768 76.9825C211.368 76.9585 211.953 77.1737 212.394 77.5809C212.835 77.9881 213.096 78.5538 213.12 79.1536C213.144 79.7533 212.929 80.3381 212.522 80.7792C212.115 81.2203 211.549 81.4816 210.949 81.5055V81.5055C209.999 81.512 209.062 81.5314 208.158 81.5314Z" fill="url(#paint0_linear)"/>
<path d="M132.086 56.8613C131.764 54.7143 131.11 52.6304 130.148 50.6841C129.257 48.8287 128.015 47.1632 126.491 45.7798C125.154 44.552 123.54 43.6653 121.787 43.1952C120.215 42.7688 118.558 42.7688 116.986 43.1952C115.368 43.6436 113.88 44.4696 112.644 45.6054C111.233 46.913 110.09 48.482 109.277 50.2254L98.8612 72.1363C98.0027 73.9604 97.4441 75.911 97.207 77.9129C96.9668 79.9523 97.0016 82.0148 97.3104 84.0449C97.6142 86.0537 98.1948 88.0108 99.0356 89.8603C99.8505 91.6482 100.96 93.2864 102.318 94.7064C103.528 95.9589 104.993 96.9353 106.615 97.5689C108.056 98.1182 109.614 98.2851 111.138 98.0535C112.7 97.7944 114.168 97.138 115.403 96.1473C116.838 94.9852 118.004 93.5258 118.821 91.8698L130.206 69.7133C131.199 67.7634 131.854 65.6595 132.144 63.4908C132.455 61.2904 132.435 59.056 132.086 56.8613V56.8613Z" fill="url(#paint1_linear)"/>
<path d="M104.03 44.5845L114.427 22.4215L114.84 21.5362L116.029 18.9969L112.43 17.879C112.292 17.8281 112.149 17.7892 112.004 17.7627L111.577 17.6787L111.157 17.6206H110.731L100.677 17.3298L94.8614 17.1618H94.9842C94.5532 17.1296 94.1201 17.1426 93.6919 17.2006C92.7974 17.3248 91.939 17.6352 91.1719 18.1116C90.3337 18.6293 89.5887 19.2847 88.9685 20.0501C88.9103 20.1212 88.8457 20.1987 88.794 20.2762C88.1804 21.0711 87.6681 21.9393 87.2691 22.8608C87.1722 23.0805 87.0817 23.3067 86.9913 23.507C86.9008 23.7073 86.8233 23.9787 86.7457 24.2178C86.6682 24.4568 86.5971 24.7088 86.526 24.9544C86.455 25.1999 86.3968 25.4648 86.3451 25.7233C86.0285 27.1836 85.699 28.7344 85.3436 30.3562C84.6974 33.322 84.006 36.5269 83.3017 39.7771C83.0239 41.0694 82.7396 42.3617 82.4553 43.6928C82.1064 45.2952 81.7639 46.9235 81.4214 48.4614C80.9756 50.529 80.5362 52.5515 80.1291 54.4835C80.0064 55.0521 79.8836 55.6143 79.7673 56.1699L77.6221 66.0044C76.9759 68.9121 76.5882 70.6954 76.5688 70.7407L83.2953 55.8016C83.5126 55.7908 83.7286 55.7627 83.9414 55.7176L76.8338 70.7213L92.3866 69.429L102.092 48.7844L104.03 44.5845Z" fill="url(#paint2_linear)"/>
<path d="M162.656 94.099C162.766 93.86 162.869 93.6144 162.972 93.3689L161.938 96.128C162.129 95.6256 162.289 95.112 162.417 94.5901L162.656 94.099Z" fill="#A78AFE"/>
<path d="M163.961 88.988V89.4403C163.948 89.2898 163.948 89.1385 163.961 88.988Z" fill="#A78AFE"/>
<path d="M67.3225 89.5954C67.2966 90.1338 67.2966 90.6701 67.3225 91.2043L67.1868 87.9218V87.812C67.1954 88.4064 67.2406 89.0009 67.3225 89.5954Z" fill="#A78AFE"/>
<path d="M162.972 93.3689L161.938 96.128C162.129 95.6256 162.289 95.112 162.417 94.5901L162.649 94.112C162.766 93.86 162.869 93.6144 162.972 93.3689Z" fill="#D9CDFE"/>
<path d="M163.961 88.988V89.4403C163.948 89.2898 163.948 89.1385 163.961 88.988Z" fill="#D9CDFE"/>
<path d="M67.3032 91.2043L67.1675 87.9218V87.812C67.1933 88.4064 67.245 89.0009 67.3226 89.5954C67.2924 90.1338 67.2859 90.6701 67.3032 91.2043Z" fill="#D9CDFE"/>
<path d="M169.834 20.147C169.608 19.3428 169.216 18.5947 168.684 17.9501C168.045 17.137 167.312 16.4018 166.5 15.7596C164.632 14.2706 162.514 13.1243 160.246 12.3738L164.213 4.82675C166.495 5.58675 168.627 6.73911 170.513 8.23197C171.333 8.87296 172.076 9.60573 172.729 10.416C173.264 11.0541 173.662 11.7952 173.899 12.5935L169.834 20.147Z" fill="#D9CDFE"/>
<path d="M169.854 21.4845C169.885 21.386 169.905 21.284 169.912 21.1809C169.925 21.0736 169.925 20.9651 169.912 20.8578C169.918 20.7416 169.918 20.6251 169.912 20.5089C169.903 20.3858 169.879 20.2642 169.841 20.147L173.899 12.5935C173.931 12.7163 173.957 12.839 173.976 12.9554C173.989 13.0691 173.989 13.184 173.976 13.2978C173.989 13.4029 173.989 13.5093 173.976 13.6144C173.968 13.7149 173.951 13.8144 173.924 13.9117L169.854 21.4845Z" fill="#D9CDFE"/>
<path d="M160.246 12.3738C159.421 12.1006 158.573 11.9017 157.713 11.7794C157.013 11.6728 156.304 11.6532 155.6 11.7212C155.044 11.7666 154.502 11.918 154.004 12.1671C153.598 12.3725 153.263 12.6942 153.041 13.0911L157.015 5.46001C157.222 5.0554 157.552 4.72723 157.958 4.52309C158.457 4.28505 158.996 4.14259 159.548 4.10309C160.255 4.03823 160.967 4.06429 161.667 4.18063C162.531 4.32039 163.381 4.53662 164.207 4.82678L160.246 12.3738Z" fill="#D9CDFE"/>
<path d="M169.401 11.9473L165.356 19.5396C165.356 19.4815 165.408 19.4233 165.428 19.3652C165.447 19.307 165.428 19.2359 165.46 19.1713C165.466 19.1004 165.466 19.029 165.46 18.9581C165.453 18.8834 165.438 18.8097 165.415 18.7384C165.312 18.3553 165.13 17.9984 164.878 17.6916C164.574 17.3005 164.223 16.9488 163.832 16.6449C163.398 16.2893 162.931 15.9776 162.436 15.7144C161.926 15.4306 161.389 15.1969 160.833 15.0166C160.442 14.8876 160.04 14.7946 159.632 14.7387C159.297 14.6935 158.958 14.6935 158.624 14.7387C158.36 14.7618 158.104 14.8341 157.868 14.952C157.679 15.0502 157.522 15.2004 157.415 15.3849L161.415 7.76675C161.52 7.58282 161.677 7.43435 161.867 7.34029C162.102 7.22653 162.357 7.15855 162.617 7.13998C162.953 7.10742 163.292 7.12046 163.625 7.17875C164.036 7.23586 164.441 7.33325 164.833 7.46952C165.926 7.8122 166.95 8.34599 167.857 9.04613C168.252 9.34823 168.606 9.70007 168.91 10.0929C169.167 10.3962 169.357 10.7509 169.466 11.1332C169.486 11.2073 169.499 11.283 169.505 11.3594V11.5726C169.504 11.637 169.491 11.7007 169.466 11.76C169.456 11.8259 169.435 11.8895 169.401 11.9473V11.9473Z" fill="white"/>
<path d="M157.351 16.1538L157.312 15.9341V15.7338C157.323 15.6076 157.358 15.4847 157.415 15.372L161.415 7.75385C161.39 7.80828 161.368 7.86441 161.35 7.92184L161.312 8.10277C161.305 8.17154 161.305 8.24076 161.312 8.30954L161.35 8.52277L157.351 16.1538Z" fill="#D9CDFE"/>
<path d="M165.357 19.5396C165.25 19.7239 165.093 19.874 164.904 19.9726C164.669 20.0862 164.415 20.1584 164.155 20.1858C163.822 20.2245 163.486 20.2245 163.153 20.1858C162.748 20.1247 162.348 20.0318 161.958 19.9079L166.009 12.2769C166.402 12.4005 166.804 12.4955 167.211 12.5612C167.544 12.5998 167.88 12.5998 168.213 12.5612C168.47 12.5403 168.722 12.4724 168.956 12.3609C169.146 12.2728 169.302 12.1254 169.401 11.9409L165.357 19.5396Z" fill="#D9CDFE"/>
<path d="M161.958 19.8821C161.399 19.6939 160.857 19.4605 160.336 19.1843C159.849 18.9098 159.386 18.5942 158.953 18.2409C158.569 17.9239 158.219 17.5688 157.906 17.1812C157.663 16.869 157.485 16.5108 157.383 16.128L161.389 8.49692C161.498 8.87745 161.68 9.23304 161.925 9.54368C162.241 9.93101 162.596 10.284 162.985 10.5969C163.431 10.9519 163.907 11.2675 164.407 11.5403C164.93 11.8246 165.477 12.0624 166.041 12.2511L161.958 19.8821Z" fill="#D9CDFE"/>
<path d="M164.84 7.43078C165.933 7.78597 166.955 8.33295 167.857 9.04616C168.252 9.34826 168.606 9.70009 168.91 10.0929C169.167 10.3963 169.357 10.7509 169.466 11.1332C169.51 11.2715 169.526 11.4174 169.511 11.5619C169.497 11.7064 169.453 11.8464 169.382 11.9732C169.232 12.2068 169.002 12.3787 168.736 12.4578C168.358 12.5627 167.964 12.5977 167.573 12.5612C167.06 12.5186 166.554 12.4233 166.061 12.2769C165.496 12.0883 164.949 11.8505 164.426 11.5661C163.926 11.2933 163.45 10.9777 163.005 10.6228C162.615 10.3099 162.26 9.95687 161.945 9.56954C161.7 9.2589 161.517 8.90331 161.409 8.52277C161.369 8.38532 161.358 8.2415 161.375 8.09957C161.391 7.95764 161.436 7.82039 161.505 7.6957C161.671 7.4587 161.917 7.28904 162.197 7.21755C162.577 7.11359 162.974 7.08289 163.366 7.12709C163.868 7.16887 164.363 7.27083 164.84 7.43078V7.43078Z" fill="#D9CDFE"/>
<path d="M164.206 4.82678C166.489 5.58678 168.621 6.73913 170.506 8.232C171.326 8.87299 172.07 9.60576 172.723 10.416C173.258 11.0541 173.656 11.7953 173.892 12.5935C173.989 12.8822 174.025 13.1875 173.999 13.4908C173.974 13.7941 173.887 14.089 173.744 14.3575C173.421 14.866 172.922 15.2368 172.342 15.3978C171.551 15.6246 170.725 15.7013 169.906 15.624C168.807 15.538 167.722 15.3211 166.675 14.9778C165.48 14.5849 164.323 14.0853 163.218 13.4852C162.172 12.9052 161.178 12.2372 160.246 11.4886C159.423 10.8318 158.677 10.0839 158.023 9.25938C157.5 8.61385 157.119 7.86524 156.905 7.06246C156.825 6.77308 156.804 6.47043 156.844 6.17281C156.884 5.87518 156.984 5.58874 157.138 5.33078C157.496 4.84141 158.015 4.49373 158.604 4.34863C159.402 4.1371 160.233 4.07575 161.053 4.16771C162.126 4.26564 163.184 4.48679 164.206 4.82678V4.82678ZM166.009 12.2769C166.509 12.4382 167.025 12.5465 167.547 12.6C167.938 12.6364 168.332 12.6014 168.71 12.4966C168.977 12.4174 169.206 12.2455 169.356 12.012C169.427 11.8852 169.471 11.7452 169.486 11.6007C169.5 11.4562 169.485 11.3103 169.44 11.172C169.331 10.7897 169.142 10.435 168.885 10.1317C168.59 9.72715 168.245 9.3623 167.857 9.04615C166.956 8.32836 165.934 7.77697 164.84 7.41785C164.348 7.24339 163.835 7.13264 163.315 7.08831C162.923 7.04411 162.526 7.07481 162.145 7.17877C161.865 7.25027 161.62 7.41993 161.454 7.65692C161.384 7.78162 161.34 7.91887 161.323 8.0608C161.306 8.20273 161.318 8.34654 161.357 8.484C161.466 8.86453 161.648 9.22012 161.893 9.53076C162.209 9.91809 162.564 10.2711 162.953 10.584C163.399 10.9389 163.874 11.2546 164.374 11.5274C164.898 11.8117 165.445 12.0495 166.009 12.2381" fill="white"/>
<path d="M173.769 14.3123L169.692 21.8916C169.473 22.277 169.145 22.5894 168.749 22.7898C168.26 23.0352 167.73 23.1865 167.185 23.2356C166.49 23.3046 165.789 23.2894 165.098 23.1904C164.245 23.0679 163.404 22.8733 162.585 22.6088C161.398 22.224 160.25 21.7309 159.153 21.1356C158.101 20.5608 157.102 19.8926 156.168 19.139C155.354 18.4795 154.617 17.7294 153.971 16.9033C153.46 16.2494 153.088 15.4972 152.879 14.6935C152.848 14.5442 152.827 14.3932 152.815 14.2412C152.815 14.099 152.815 13.9569 152.815 13.8212C152.827 13.6918 152.853 13.564 152.892 13.44C152.93 13.3208 152.975 13.2042 153.028 13.091L157.015 5.45999C156.956 5.5662 156.911 5.679 156.879 5.79599C156.845 5.92102 156.822 6.04848 156.808 6.17722C156.808 6.31076 156.808 6.44645 156.808 6.58429C156.822 6.73427 156.846 6.88318 156.879 7.03014C157.093 7.83292 157.474 8.58153 157.997 9.22705C158.659 10.0531 159.414 10.8009 160.245 11.4563C161.188 12.2064 162.193 12.8744 163.25 13.4529C164.355 14.053 165.512 14.5526 166.707 14.9455C167.529 15.2157 168.372 15.4167 169.227 15.5464C169.917 15.6518 170.618 15.6735 171.314 15.611C171.858 15.5739 172.389 15.4313 172.878 15.191C173.256 14.9936 173.566 14.6876 173.769 14.3123Z" fill="white"/>
<path d="M163.347 1.29232C165.335 1.95182 167.26 2.78873 169.098 3.79293C170.863 4.74846 172.541 5.85767 174.112 7.10768C175.518 8.19726 176.793 9.44622 177.911 10.8295C178.842 11.9276 179.54 13.2024 179.966 14.5772C180.136 15.0747 180.205 15.6008 180.171 16.1253C180.137 16.6499 179.999 17.1624 179.766 17.6335C179.234 18.52 178.387 19.1731 177.394 19.4621C176.036 19.8692 174.613 20.0118 173.201 19.8821C171.29 19.7245 169.406 19.3406 167.586 18.7384C165.509 18.0583 163.498 17.1933 161.577 16.1538C159.74 15.1454 157.997 13.9755 156.369 12.6581C154.945 11.5196 153.659 10.2184 152.537 8.78122C151.644 7.66774 150.999 6.37698 150.644 4.99477C150.51 4.49491 150.481 3.97285 150.559 3.46137C150.637 2.94988 150.82 2.46 151.096 2.02247C151.734 1.17906 152.649 0.588511 153.681 0.355402C155.061 0.00711834 156.493 -0.0848671 157.906 0.0840188C159.76 0.277997 161.586 0.6834 163.347 1.29232V1.29232ZM166.668 14.9455C167.716 15.2888 168.8 15.5057 169.899 15.5917C170.718 15.669 171.544 15.5922 172.335 15.3655C172.915 15.2044 173.415 14.8337 173.737 14.3252C173.88 14.0566 173.967 13.7618 173.993 13.4585C174.018 13.1552 173.982 12.8499 173.886 12.5612C173.649 11.7629 173.251 11.0218 172.716 10.3837C172.063 9.57344 171.32 8.84067 170.5 8.19968C168.614 6.70682 166.482 5.55446 164.2 4.79446C163.166 4.44146 162.095 4.20946 161.008 4.10308C160.188 4.01112 159.357 4.07247 158.559 4.284C157.97 4.42911 157.451 4.77678 157.092 5.26615C156.939 5.52411 156.839 5.81055 156.799 6.10818C156.759 6.40581 156.779 6.70845 156.86 6.99784C157.074 7.80062 157.455 8.54923 157.978 9.19475C158.632 10.0193 159.378 10.7671 160.2 11.424C161.143 12.1741 162.148 12.8421 163.205 13.4206C164.31 14.0207 165.467 14.5203 166.662 14.9132" fill="#D9CDFE"/>
<path d="M179.766 17.64L176.903 23.0418C176.525 23.6911 175.966 24.2164 175.294 24.5538C174.459 24.9746 173.551 25.2333 172.619 25.3162C171.425 25.4347 170.222 25.4109 169.033 25.2452C167.571 25.0416 166.128 24.7108 164.723 24.2565C162.654 23.5842 160.653 22.7189 158.746 21.6719C156.922 20.6769 155.191 19.5177 153.577 18.2086C152.164 17.0727 150.893 15.7711 149.791 14.3317C148.919 13.2096 148.298 11.9142 147.969 10.5323C147.924 10.2821 147.891 10.0298 147.872 9.77629C147.852 9.54408 147.852 9.31066 147.872 9.07845C147.895 8.85955 147.938 8.64325 148.001 8.4323C148.057 8.23056 148.135 8.03556 148.234 7.85076L150.902 2.34555C150.81 2.52783 150.734 2.71815 150.676 2.91416C150.618 3.12603 150.577 3.34207 150.553 3.56032C150.534 3.78821 150.534 4.01734 150.553 4.24524C150.571 4.49706 150.606 4.74744 150.657 4.99477C150.994 6.37222 151.62 7.66263 152.492 8.78122C153.613 10.2184 154.899 11.5196 156.323 12.6581C157.955 13.9749 159.7 15.1447 161.538 16.1538C163.46 17.1933 165.471 18.0583 167.547 18.7384C168.96 19.1972 170.408 19.5386 171.876 19.7593C173.063 19.9346 174.267 19.9714 175.462 19.8692C176.39 19.7989 177.295 19.5533 178.131 19.1455C178.814 18.8175 179.383 18.2933 179.766 17.64V17.64Z" fill="#A78AFE"/>
<path d="M163.903 86.2419V85.9834C163.887 86.0688 163.887 86.1565 163.903 86.2419V86.2419Z" fill="#D9CDFE"/>
<path d="M176.554 56.2152C176.271 54.3896 175.688 52.6233 174.829 50.9878C174.002 49.4009 172.874 47.9898 171.508 46.8331L130.723 12.8003C130.353 12.4907 129.96 12.2099 129.547 11.9603C129.159 11.7258 128.753 11.5227 128.332 11.3529C127.931 11.19 127.515 11.0624 127.092 10.9717C126.679 10.8817 126.26 10.8277 125.838 10.8101L109.943 10.08H110.279C110.385 10.0861 110.491 10.0991 110.595 10.1188L111.015 10.1898H111.138L111.455 10.2674C111.597 10.3061 111.745 10.3514 111.888 10.4031L112.075 10.4677C112.373 10.5698 112.662 10.6951 112.941 10.8424C113.069 10.8989 113.192 10.9659 113.309 11.0428C113.533 11.1603 113.749 11.2919 113.955 11.4369C114.091 11.5274 114.22 11.6178 114.349 11.7212C114.479 11.8246 114.653 11.9538 114.802 12.0831L156.039 47.3823C157.437 48.585 158.587 50.049 159.425 51.6921C160.303 53.3964 160.898 55.2315 161.189 57.1263C161.493 59.0528 161.493 61.0151 161.189 62.9416C160.905 64.8602 160.289 66.7145 159.367 68.421L142.25 99.6689L130.032 122.064L128.507 124.843L111.552 155.794C111.481 155.929 111.403 156.059 111.325 156.181C111.248 156.304 111.216 156.362 111.157 156.446C111.021 156.671 110.87 156.887 110.705 157.092C110.655 157.162 110.601 157.229 110.544 157.293C110.387 157.502 110.212 157.696 110.02 157.874C109.949 157.96 109.869 158.038 109.781 158.107C109.691 158.197 109.594 158.281 109.497 158.365C109.29 158.54 109.077 158.708 108.851 158.869L108.799 158.902L108.521 159.076L108.431 159.128L108.301 159.199L108.043 159.328C107.907 159.393 107.765 159.457 107.629 159.509L107.222 159.658L122.439 155.367C122.886 155.234 123.318 155.059 123.732 154.844C124.165 154.613 124.574 154.341 124.953 154.03C125.352 153.696 125.72 153.326 126.051 152.925C126.41 152.49 126.728 152.022 127.001 151.529L139.278 129.76L140.855 126.962L154.883 102.144L162.636 88.4259L163.871 86.2419V85.9834C163.864 86.0687 163.875 86.1544 163.903 86.2354L172.522 71.0379L174.765 67.0705C175.68 65.4355 176.295 63.6498 176.58 61.7979C176.873 59.9478 176.864 58.0626 176.554 56.2152V56.2152Z" fill="url(#paint3_linear)"/>
<path d="M163.98 88.6779C163.987 88.7811 163.987 88.8847 163.98 88.988C163.985 89.1395 163.975 89.2911 163.948 89.4403C163.948 89.7892 163.864 90.1446 163.799 90.4935C163.767 90.7003 163.728 90.9135 163.683 91.1397C163.638 91.3658 163.56 91.6501 163.489 91.9021C163.418 92.1541 163.347 92.3932 163.269 92.6387C163.192 92.8843 163.089 93.1427 162.992 93.3947C162.895 93.6467 162.785 93.8858 162.675 94.1249L162.442 94.603C162.638 93.8465 162.77 93.0749 162.837 92.2963C162.953 91.0156 162.901 89.7252 162.681 88.4582L163.916 86.2742L163.954 86.6554C163.954 86.8105 163.954 86.972 163.993 87.1271C164.032 87.2822 163.993 87.3532 163.993 87.4695C164.015 87.8722 164.01 88.2758 163.98 88.6779V88.6779Z" fill="url(#paint4_linear)"/>
<path d="M161.396 59.349C161.402 59.3214 161.402 59.2926 161.396 59.265V58.7029C161.402 58.6427 161.402 58.5821 161.396 58.5219V58.2958C161.4 58.148 161.384 58.0003 161.35 57.8564C161.305 57.7078 161.292 57.417 161.26 57.2103C160.969 55.3155 160.373 53.4804 159.496 51.7761C158.664 50.1294 157.518 48.6611 156.123 47.4534L123.815 19.8433L123.169 19.2747L114.834 12.167C114.685 12.0378 114.537 11.915 114.382 11.8052L113.987 11.5209L113.619 11.2818L113.348 11.1267H113.296C113.196 11.0606 113.09 11.0044 112.979 10.9587C112.701 10.8114 112.412 10.6861 112.114 10.584L111.926 10.5194C111.784 10.4677 111.635 10.4224 111.493 10.3837L111.041 10.2803L110.615 10.2092H110.492C110.414 10.1885 110.333 10.1777 110.253 10.1769H109.917C108.968 10.1302 108.018 10.2639 107.119 10.571C105.796 11.0437 104.597 11.8078 103.61 12.8067C102.859 13.5651 102.208 14.4163 101.672 15.3396C101.385 15.8221 101.126 16.3204 100.896 16.8323L100.644 17.4009L99.5589 19.8046L96.0697 27.5584L88.9426 43.2922L86.8297 47.9832L83.3017 55.8146L76.5753 70.773L76.0842 71.8714L73.8808 76.7628L67.5421 90.8295L65.8556 94.5772L63.0126 100.897L62.7735 101.42C62.1731 102.798 61.7895 104.26 61.6363 105.756C61.3192 108.887 61.7924 112.049 63.0126 114.95C63.5989 116.336 64.3943 117.624 65.371 118.769L69.8489 123.88L74.5916 129.301L75.0051 129.773L78.0679 133.275L83.7282 139.737L98.2601 156.369C99.2345 157.504 100.417 158.442 101.743 159.134C102.875 159.716 104.134 160.007 105.407 159.981C106.015 159.963 106.617 159.858 107.196 159.67C107.332 159.625 107.468 159.58 107.603 159.522L108.017 159.341C108.153 159.276 108.282 159.212 108.405 159.141C108.527 159.07 108.689 158.973 108.825 158.882C108.96 158.792 109.264 158.553 109.471 158.378C109.568 158.294 109.665 158.21 109.755 158.12C110.032 157.871 110.287 157.598 110.518 157.306C110.575 157.242 110.629 157.175 110.679 157.105C110.844 156.9 110.995 156.684 111.131 156.459C111.19 156.375 111.248 156.285 111.299 156.194C111.351 156.104 111.455 155.942 111.526 155.806L125.23 130.788L128.461 124.856L128.991 123.887L129.986 122.077L131.362 119.57L142.218 99.7529L143.949 96.5932L146.166 92.5418L154.566 77.1505L156.743 73.1702L159.328 68.505C160.25 66.7985 160.866 64.9442 161.15 63.0256C161.295 62.0784 161.366 61.1214 161.363 60.1632V60.0921C161.404 59.8466 161.415 59.5971 161.396 59.349V59.349ZM119.279 91.0104L118.834 91.8763C118.017 93.5304 116.85 94.9876 115.415 96.1473C114.186 97.1524 112.716 97.8204 111.151 98.0858C109.627 98.3174 108.068 98.1505 106.628 97.6012C104.993 96.9603 103.52 95.9676 102.311 94.6935C102.008 94.3833 101.723 94.0473 101.452 93.7307L101.291 93.5369L101.136 93.3366C101.013 93.1815 100.89 93.02 100.774 92.852C100.657 92.684 100.457 92.3996 100.308 92.167C100.218 92.0313 100.128 91.8892 100.044 91.747C99.9595 91.6049 99.869 91.4627 99.7915 91.3141C99.714 91.1655 99.5912 90.9523 99.4943 90.7713C99.3327 90.4677 99.1777 90.1575 99.0355 89.8474C98.8934 89.5372 98.8287 89.3951 98.7318 89.1624C98.6349 88.9298 98.5444 88.6972 98.454 88.4646L98.286 87.9864C98.202 87.7474 98.118 87.5018 98.0469 87.2563C97.9758 87.0107 97.8854 86.7329 97.8207 86.468V86.3581C97.6204 85.5892 97.4589 84.8074 97.3361 84.0255C97.0261 81.9954 96.9935 79.9325 97.2392 77.8936C97.4711 75.8913 98.0276 73.9402 98.8869 72.117L109.174 50.5678L109.335 50.2318C109.419 50.0574 109.503 49.8894 109.594 49.7214C109.684 49.5534 109.723 49.4694 109.794 49.3466C109.923 49.114 110.059 48.8814 110.195 48.6617L110.285 48.5195C110.388 48.3451 110.505 48.1706 110.621 48.0026C110.737 47.8346 110.711 47.8669 110.757 47.8087C110.802 47.7506 110.918 47.5826 111.002 47.4792C111.086 47.3758 111.177 47.2401 111.274 47.1238C111.371 47.0075 111.551 46.7878 111.694 46.6263C111.836 46.4648 112.023 46.2709 112.191 46.1029L112.34 45.9543C112.456 45.8315 112.579 45.7217 112.702 45.6118C113.905 44.4669 115.362 43.6233 116.953 43.15C118.526 42.73 120.181 42.73 121.754 43.15C123.507 43.6208 125.121 44.5074 126.458 45.7346C127.979 47.1215 129.22 48.7861 130.115 50.6389C130.225 50.865 130.335 51.0912 130.438 51.3238C130.438 51.382 130.49 51.4337 130.51 51.4853L130.581 51.6534C130.581 51.7115 130.71 51.9506 130.768 52.0992C130.949 52.545 131.11 53.0038 131.259 53.469C131.311 53.6176 131.356 53.7663 131.395 53.9213C131.398 53.9284 131.4 53.9361 131.4 53.944C131.4 53.9518 131.398 53.9595 131.395 53.9666C131.447 54.0914 131.486 54.2213 131.511 54.3543C131.64 54.826 131.75 55.3041 131.854 55.7887V55.8533C131.892 56.0666 131.938 56.2798 131.97 56.4995C131.98 56.6086 132 56.7166 132.028 56.8226C132.255 58.2494 132.344 59.6949 132.293 61.1389C132.301 61.3938 132.285 61.649 132.248 61.9013C132.254 61.9463 132.254 61.992 132.248 62.037C132.247 62.2537 132.228 62.4699 132.19 62.6832C132.179 62.9414 132.149 63.1984 132.099 63.4521C132.022 64.0013 131.925 64.5376 131.802 65.0739C131.744 65.3453 131.679 65.6102 131.608 65.8751C131.472 66.405 131.311 66.9284 131.13 67.4388C131.039 67.6973 130.942 67.9493 130.839 68.2013C130.736 68.4533 130.69 68.5631 130.606 68.7441C130.522 68.925 130.503 68.9896 130.445 69.1124C130.387 69.2351 130.264 69.4871 130.167 69.6745L121.476 86.7071L119.279 91.0104Z" fill="#EBEAF7"/>
<path d="M76.0842 71.8908L73.8809 76.7822C71.9397 78.5267 70.325 80.6032 69.1123 82.9142C68.0633 84.9947 67.454 87.269 67.3224 89.5954C67.2449 89.0009 67.1932 88.4065 67.1674 87.812V86.2419C67.161 86.0815 67.174 85.9209 67.2061 85.7637C67.2449 85.6022 67.2449 85.3308 67.2772 85.1175C67.3095 84.9043 67.316 84.8268 67.3418 84.6782C67.3677 84.5296 67.3806 84.4197 67.4064 84.2905C67.4323 84.1612 67.4646 83.9739 67.5034 83.8188C67.5421 83.6637 67.5744 83.4957 67.6132 83.3406C67.652 83.1856 67.736 82.8625 67.807 82.6234C67.8781 82.3843 67.891 82.3391 67.9363 82.1969C68.0526 81.8286 68.1883 81.4668 68.3304 81.1049C68.4015 80.924 68.479 80.7431 68.5566 80.5686C68.6854 80.2557 68.8299 79.9495 68.9895 79.6511C69.067 79.4896 69.151 79.3345 69.235 79.1859C69.319 79.0373 69.3643 78.9403 69.4353 78.8176C69.5064 78.6948 69.668 78.417 69.7907 78.2231C69.9135 78.0293 70.1526 77.661 70.3464 77.3831C70.4433 77.241 70.5467 77.0923 70.6566 76.9502C70.8375 76.6982 71.0313 76.4462 71.2381 76.2007C71.2758 76.1465 71.3168 76.0947 71.3609 76.0456L71.755 75.5803C71.9618 75.3348 72.1815 75.0957 72.4012 74.8567C72.524 74.721 72.6532 74.5917 72.7889 74.456L73.015 74.2299L73.6612 73.5837C73.8938 73.377 74.1329 73.1637 74.3719 72.9376L74.5141 72.8213C74.7661 72.608 75.0246 72.4077 75.2895 72.1751C75.3099 72.152 75.3339 72.1324 75.3606 72.117C75.5914 72.0116 75.8345 71.9356 76.0842 71.8908Z" fill="url(#paint5_linear)"/>
<path d="M177.136 110.13C175.474 112.044 173.587 113.75 171.514 115.209C169.201 116.831 166.723 118.206 164.122 119.312C161.203 120.56 158.175 121.536 155.076 122.226L153.894 125.269C156.955 124.568 159.947 123.588 162.83 122.342C165.404 121.235 167.852 119.855 170.132 118.226C172.19 116.766 174.062 115.061 175.708 113.148C177.23 111.387 178.51 109.431 179.514 107.332L180.922 104.308C179.926 106.409 178.653 108.368 177.136 110.13V110.13Z" fill="url(#paint6_linear)"/>
<path d="M158.953 133.107C158.611 133.363 158.223 133.549 157.81 133.656C157.598 133.709 157.381 133.741 157.163 133.753C156.927 133.773 156.689 133.773 156.453 133.753C156.202 133.722 155.954 133.674 155.71 133.611C155.445 133.533 155.186 133.438 154.934 133.327L127.15 120.804C126.773 120.634 126.419 120.417 126.096 120.158C125.811 119.914 125.563 119.629 125.36 119.312C125.181 119.019 125.054 118.698 124.985 118.362C124.921 118.044 124.921 117.717 124.985 117.399L124.255 120.52C124.19 120.838 124.19 121.165 124.255 121.483C124.319 121.817 124.443 122.137 124.623 122.426C124.821 122.741 125.063 123.026 125.341 123.273C125.658 123.532 126.008 123.749 126.381 123.919L153.7 136.338C153.945 136.45 154.197 136.543 154.456 136.616C154.698 136.682 154.944 136.729 155.193 136.758C155.643 136.795 156.097 136.76 156.537 136.655C156.759 136.604 156.976 136.53 157.183 136.435C157.366 136.34 157.542 136.23 157.706 136.105C158.013 135.861 158.257 135.546 158.417 135.188L159.709 132.183C159.636 132.365 159.535 132.535 159.412 132.687C159.275 132.843 159.121 132.984 158.953 133.107V133.107Z" fill="url(#paint7_linear)"/>
<path d="M119.157 128.003C118.931 129.03 118.705 130.064 118.511 131.098C118.429 131.483 118.285 131.851 118.084 132.19C117.887 132.545 117.634 132.865 117.335 133.14C117.028 133.433 116.682 133.683 116.307 133.883C115.9 134.102 115.466 134.265 115.015 134.367H114.517C113.69 134.49 112.857 134.593 112.023 134.684C110.382 134.871 108.734 135 107.067 135.065C105.9 135.125 104.73 135.151 103.559 135.143C99.8259 135.168 96.0962 134.919 92.3997 134.4C89.7883 133.999 87.2001 133.459 84.6459 132.784C83.6314 132.526 82.6234 132.241 81.6283 131.931C78.1594 130.858 74.7786 129.519 71.5161 127.925C68.0389 126.233 64.7326 124.209 61.6429 121.884C58.8639 119.797 56.3203 117.413 54.0571 114.776C52.0172 112.38 50.281 109.741 48.8879 106.919C47.6142 104.314 46.7054 101.546 46.1869 98.6932L46.1288 98.3895C46.1359 98.2883 46.1205 98.1868 46.0836 98.0923C46.0523 97.9941 46.0371 97.8916 46.0383 97.7886C46.0396 97.6877 46.0243 97.5873 45.9931 97.4913L45.5537 94.2606C45.5989 94.6354 45.6636 95.0101 45.7282 95.3849C46.2625 98.2172 47.1821 100.963 48.4614 103.546C49.8692 106.381 51.6252 109.029 53.6888 111.429C55.9858 114.094 58.5662 116.501 61.3844 118.608C64.5228 120.958 67.8761 123.007 71.3998 124.727C74.7179 126.334 78.1548 127.684 81.68 128.765C81.9514 128.849 82.2228 128.933 82.4942 129.004C85.8285 129.992 89.2266 130.75 92.6646 131.272C96.3944 131.841 100.161 132.137 103.934 132.157C105.568 132.157 107.164 132.157 108.812 132.028C110.46 131.899 112.159 131.776 113.813 131.569L115.105 131.401H115.609C115.771 131.363 115.926 131.324 116.075 131.272H116.191L116.624 131.104C116.734 131.059 116.831 131.007 116.934 130.956H116.953C117.137 130.865 117.312 130.759 117.477 130.639L117.735 130.439C117.816 130.383 117.889 130.317 117.955 130.245C118.155 130.071 118.333 129.874 118.485 129.657C118.57 129.555 118.643 129.445 118.705 129.327V129.327C118.776 129.203 118.84 129.076 118.898 128.946C118.957 128.81 119.008 128.675 119.053 128.532C119.112 128.19 119.137 128.1 119.157 128.003Z" fill="url(#paint8_linear)"/>
<path d="M183.261 94.9261C183.16 98.2362 182.363 101.488 180.922 104.47C180.8 104.722 180.677 104.967 180.548 105.213L180.502 105.297C180.418 105.465 180.321 105.639 180.225 105.807C180.128 105.975 180.056 106.105 179.966 106.253C179.876 106.402 179.72 106.673 179.591 106.899C179.581 106.924 179.565 106.946 179.546 106.964C179.423 107.164 179.3 107.358 179.165 107.545C178.952 107.869 178.732 108.192 178.519 108.502L178.473 108.56C178.338 108.754 178.196 108.935 178.047 109.122L178.008 109.167L177.976 109.206C177.808 109.426 177.633 109.639 177.446 109.852L177.414 109.897L177.369 109.949C177.285 110.053 177.194 110.162 177.097 110.266C177 110.369 176.91 110.479 176.819 110.582L176.445 110.989C176.315 111.132 176.18 111.267 176.044 111.409C175.811 111.655 175.566 111.888 175.32 112.127C175.075 112.366 174.868 112.56 174.635 112.773C174.403 112.986 174.351 113.031 174.202 113.154L173.685 113.593C173.492 113.761 173.298 113.923 173.097 114.078L172.845 114.278L172.716 114.375L172.587 114.472C172.477 114.563 172.374 114.64 172.264 114.718L171.76 115.086C171.398 115.345 171.036 115.596 170.661 115.842L170.603 115.881C170.397 116.023 170.183 116.159 169.957 116.288C169.731 116.417 169.376 116.656 169.072 116.831C168.768 117.005 168.471 117.186 168.161 117.354C167.566 117.69 166.953 118.013 166.319 118.323L166.229 118.368L165.279 118.814L165.066 118.918L164.271 119.267C163.929 119.415 163.58 119.557 163.224 119.7C162.966 119.809 162.707 119.906 162.442 120.003H162.397L162.055 120.132L161.887 120.197L161.06 120.494H160.976L159.942 120.837C159.567 120.96 159.186 121.082 158.798 121.192L157.635 121.528L157.176 121.651L156.453 121.838C156.052 121.942 155.651 122.039 155.244 122.129L156.608 124.513L159.522 129.612C159.766 130.003 159.916 130.445 159.961 130.904C159.997 131.302 159.93 131.702 159.767 132.067V132.067L159.729 132.138C159.704 132.197 159.673 132.253 159.638 132.306C159.593 132.382 159.543 132.456 159.49 132.526C159.429 132.595 159.365 132.666 159.296 132.739C159.225 132.81 159.147 132.875 159.07 132.939C158.906 133.064 158.731 133.172 158.546 133.262C158.351 133.353 158.148 133.425 157.939 133.476C157.726 133.527 157.51 133.561 157.293 133.579C157.056 133.598 156.818 133.598 156.582 133.579C156.331 133.55 156.083 133.503 155.839 133.437C155.575 133.36 155.316 133.267 155.063 133.159L140.861 126.969L138.923 126.103L129.993 122.077L127.408 120.914L127.085 120.766C126.643 120.569 126.237 120.301 125.883 119.971C125.591 119.696 125.348 119.373 125.166 119.015L125.127 118.944V118.892C125.127 118.892 125.088 118.808 125.075 118.769L125.037 118.646L124.979 118.446V118.407C124.984 118.339 124.973 118.27 124.946 118.207V117.819C124.94 117.742 124.94 117.664 124.946 117.587C124.946 117.522 124.946 117.457 124.979 117.399C125.033 117.173 125.117 116.956 125.231 116.753L135.866 98.6027C135.952 98.4526 136.058 98.3155 136.183 98.1956C136.305 98.0737 136.442 97.9674 136.59 97.879C136.742 97.7835 136.905 97.7054 137.075 97.6464C137.247 97.5841 137.424 97.5365 137.604 97.5043C138.011 97.4396 138.425 97.4396 138.832 97.5043C139.261 97.5425 139.681 97.6449 140.079 97.8079C140.243 97.8706 140.403 97.944 140.557 98.0276C140.788 98.1373 141.005 98.274 141.203 98.4347C141.536 98.6895 141.815 99.008 142.024 99.3716L142.282 99.8175L145.591 105.633C148.039 105.156 150.424 104.4 152.698 103.378C153.467 103.022 154.204 102.648 154.902 102.241C155.47 101.917 156.013 101.575 156.53 101.213C159.004 99.5594 161.025 97.3139 162.41 94.6806C162.282 95.2024 162.122 95.716 161.932 96.2184L162.966 93.4594C163.063 93.2074 163.153 92.9618 163.244 92.7034C163.334 92.4449 163.399 92.2123 163.463 91.9667C163.528 91.7212 163.599 91.4627 163.657 91.2043C163.715 90.9458 163.741 90.7907 163.773 90.5581C163.838 90.2092 163.89 89.8538 163.922 89.5049V89.0526C163.929 88.9493 163.929 88.8457 163.922 88.7424C163.948 88.3315 163.948 87.9193 163.922 87.5083V87.1658C163.927 87.0076 163.914 86.8494 163.883 86.6941C163.864 86.5657 163.864 86.435 163.883 86.3065L172.522 71.0379C173.721 72.2409 174.847 73.5139 175.895 74.8502C177.48 76.8393 178.865 78.9798 180.031 81.2406C181.135 83.3798 181.983 85.6419 182.557 87.98C183.111 90.2518 183.348 92.5893 183.261 94.9261V94.9261Z" fill="url(#paint9_linear)"/>
<path d="M119.234 127.434C119.217 127.723 119.167 128.009 119.086 128.287V128.287C119.04 128.429 118.989 128.565 118.931 128.7C118.872 128.831 118.808 128.958 118.737 129.082V129.082C118.676 129.199 118.602 129.31 118.517 129.411C118.365 129.628 118.187 129.826 117.987 129.999C117.922 130.072 117.848 130.137 117.767 130.193L117.509 130.393C117.344 130.514 117.169 130.62 116.986 130.71H116.953L116.643 130.859L116.21 131.027H116.094C115.945 131.078 115.79 131.117 115.629 131.156H115.125L113.832 131.324C112.178 131.531 110.511 131.679 108.831 131.783C107.151 131.886 105.6 131.918 103.953 131.912C100.18 131.891 96.4136 131.595 92.6839 131.027C92.1928 130.955 91.7017 130.871 91.2106 130.787L90.1057 130.587C89.2463 130.432 88.3934 130.251 87.5211 130.064L86.2288 129.767L85.3953 129.566L85.2273 129.521C84.7944 129.411 84.355 129.295 83.935 129.172L82.4747 128.759C82.2033 128.688 81.9319 128.603 81.6605 128.519C80.7236 128.229 79.7931 127.925 78.8691 127.602C78.3005 127.402 77.7384 127.195 77.1762 126.956L76.8079 126.814C76.2458 126.6 75.6901 126.374 75.1344 126.168L73.6353 125.521L72.8729 125.179C72.3689 124.953 71.8713 124.714 71.3803 124.475L70.4369 124.145L69.8618 123.848C69.0929 123.447 68.3369 123.04 67.6003 122.62L66.9153 122.22C66.392 121.916 65.8815 121.573 65.3775 121.289L65.3258 121.257L64.4083 120.669C63.8914 120.326 63.3809 119.984 62.8834 119.635L62.1984 119.144L61.3843 118.608C58.5683 116.501 55.9901 114.094 53.6951 111.429C52.9456 110.544 52.2348 109.645 51.5822 108.728C51.4013 108.476 51.2203 108.224 51.0523 107.965L50.9425 107.81L50.9037 107.752C50.6969 107.449 50.5031 107.145 50.3093 106.835C50.1154 106.525 49.9474 106.253 49.773 105.962L49.689 105.814C49.5468 105.581 49.4111 105.342 49.2819 105.103C49.2108 104.98 49.1462 104.851 49.0751 104.722C48.92 104.437 48.7714 104.147 48.6293 103.856C48.5711 103.753 48.5194 103.649 48.4677 103.546C47.1809 100.939 46.2611 98.1664 45.7345 95.3073L45.6376 94.7452C45.6213 94.5566 45.5954 94.369 45.56 94.183C45.56 93.9956 45.5084 93.8147 45.4954 93.6338C45.2499 91.5215 45.2499 89.3879 45.4954 87.2757C45.56 86.6941 45.644 86.1191 45.7539 85.544C45.8637 84.9689 45.9348 84.5812 46.0576 84.1031C46.2127 83.4181 46.4065 82.7461 46.6197 82.0741C46.833 81.4021 47.1367 80.5815 47.4403 79.8449C47.8055 78.961 48.2196 78.0981 48.681 77.2603L48.9976 76.6852C49.3788 76.0391 49.7859 75.3477 50.2188 74.6951C50.5613 74.1846 50.9166 73.6806 51.2914 73.1831C51.8471 72.4508 52.4286 71.7379 53.036 71.0443C53.4108 70.6179 53.8049 70.1979 54.2056 69.752L54.3994 69.5582C54.9228 69.0154 55.4785 68.4856 56.0535 67.9622L56.7708 67.3161C58.8701 65.509 61.1303 63.8977 63.5231 62.5022C63.8009 62.3407 64.0787 62.1792 64.3631 62.0241C66.5501 60.7887 68.8216 59.7091 71.1606 58.7933C73.8699 57.7435 76.6485 56.8821 79.4765 56.2152L79.7544 56.1635L77.6092 65.9979C76.963 68.9056 76.5753 70.689 76.5559 70.7342L76.0649 71.8327C75.8385 71.9086 75.6217 72.0105 75.4187 72.1363C75.392 72.1517 75.368 72.1714 75.3476 72.1945C75.0827 72.3948 74.8242 72.5951 74.5722 72.8083L74.4301 72.9246C74.191 73.125 73.9519 73.3382 73.7193 73.5708L73.0732 74.217L72.847 74.4431C72.7759 74.5206 72.5821 74.708 72.4593 74.8437C72.2317 75.0737 72.016 75.3153 71.8132 75.5674L71.419 76.0326C71.375 76.0818 71.334 76.1336 71.2963 76.1877C71.0895 76.4333 70.8956 76.6852 70.7147 76.9372C70.6049 77.0794 70.5015 77.228 70.4046 77.3702C70.2107 77.648 70.0233 77.9259 69.8489 78.2102C69.6744 78.4945 69.6098 78.6043 69.4935 78.8046C69.3772 79.0049 69.3578 79.0502 69.2932 79.1729C69.2286 79.2957 69.1252 79.4766 69.0476 79.6382C68.8926 79.9418 68.7504 80.2455 68.6147 80.5557C68.5372 80.7302 68.4596 80.9111 68.3886 81.092C68.2464 81.4538 68.1107 81.8157 67.9944 82.184C67.9492 82.3261 67.904 82.4683 67.8652 82.6105C67.8264 82.7526 67.7295 83.0886 67.6713 83.3277C67.6132 83.5668 67.5938 83.6443 67.5615 83.8058C67.5292 83.9674 67.4904 84.116 67.4646 84.2775C67.4387 84.4391 67.4193 84.536 67.4 84.6652C67.3806 84.7944 67.3547 84.956 67.3353 85.1046C67.316 85.2532 67.2837 85.5375 67.2643 85.7508C67.2632 85.9109 67.2503 86.0707 67.2255 86.2289C67.1997 86.7458 67.1997 87.2692 67.2255 87.7991V87.8766L67.3612 91.159C67.3353 90.6206 67.3353 90.0843 67.3612 89.5501C67.4193 89.9637 67.4904 90.3837 67.5809 90.8037C67.6713 91.2236 67.736 91.4498 67.8329 91.8181C67.9944 92.3932 68.1818 92.9618 68.395 93.5175L68.4596 93.6919C68.9458 94.9196 69.5428 96.1005 70.243 97.2199C70.3206 97.3492 70.4046 97.4719 70.495 97.6012C71.2051 98.7263 72 99.7955 72.8729 100.8C75.5787 103.698 78.7689 106.103 82.3002 107.907C86.2348 109.927 90.4388 111.372 94.7839 112.198C99.3438 113.065 104.004 113.282 108.624 112.844C109.896 112.715 111.178 112.95 112.32 113.522C112.851 113.783 113.335 114.128 113.755 114.543C114.162 114.937 114.489 115.407 114.718 115.926L115.939 118.756L116.12 119.176L117.89 123.286L118.162 123.932L118.898 125.644C119.059 126.016 119.164 126.411 119.208 126.814C119.238 127.019 119.246 127.227 119.234 127.434V127.434Z" fill="url(#paint10_linear)"/>
<path d="M40.9015 75.0699C40.7967 75.3589 40.7209 75.6576 40.6753 75.9616C40.6495 76.2151 40.6495 76.4705 40.6753 76.724C40.7033 76.9306 40.7644 77.1314 40.8563 77.3185C40.9432 77.4755 41.0675 77.6087 41.2181 77.7062L34.2461 73.5256C34.0975 73.4277 33.9754 73.2945 33.8907 73.1379C33.8027 72.9502 33.7459 72.7494 33.7227 72.5434C33.6969 72.2899 33.6969 72.0345 33.7227 71.781C33.7736 71.4774 33.8514 71.179 33.9554 70.8893L40.8886 75.0699L33.9554 70.8893C34.1068 70.48 34.2972 70.0862 34.524 69.7133C34.7475 69.3615 35.005 69.0326 35.2929 68.7311C35.5554 68.4555 35.8556 68.2184 36.1846 68.0268C36.4425 67.8547 36.7365 67.7442 37.044 67.7038L43.9384 71.9296C43.6306 71.9684 43.335 72.0742 43.0726 72.2398C42.7555 72.4294 42.4663 72.6621 42.2132 72.9311C41.6293 73.5454 41.1784 74.2735 40.8886 75.0699H40.9015Z" fill="#D9CDFE"/>
<path d="M41.1987 77.7062L34.2461 73.5256L34.3882 73.5902C34.4921 73.6278 34.601 73.6495 34.7113 73.6548C34.7715 73.6613 34.8321 73.6613 34.8922 73.6548L41.8578 77.8483H41.5024L41.3473 77.8031L41.1987 77.7062Z" fill="white"/>
<path d="M52.7776 62.8124C52.4652 62.8609 52.1661 62.973 51.8988 63.1419C51.5846 63.338 51.2978 63.5748 51.0459 63.8462C50.7595 64.1512 50.5021 64.4822 50.277 64.8348C50.0515 65.2062 49.8611 65.5977 49.7084 66.0044L42.7751 61.7204C43.0644 60.9097 43.5225 60.1697 44.1191 59.5493C44.3747 59.2612 44.6681 59.009 44.9914 58.7998C45.2632 58.6317 45.5668 58.5217 45.8831 58.4767L52.7776 62.8124Z" fill="#D9CDFE"/>
<path d="M42.7752 61.7204L49.6825 66.0044L47.7376 71.5419L40.7915 67.2902L42.7752 61.7204Z" fill="#D9CDFE"/>
<path d="M44.8752 66.8315L51.8536 71.1284L47.7376 71.5419L40.7915 67.2902L44.8752 66.8315Z" fill="white"/>
<path d="M46.8654 61.2229L53.8051 65.5456L51.8537 71.1284L44.8752 66.8314L46.8654 61.2229Z" fill="white"/>
<path d="M48.7522 66.3985L55.75 70.7277L51.8537 71.1284L44.8752 66.8314L48.7522 66.3985Z" fill="#D9CDFE"/>
<path d="M49.4759 66.5536L56.4737 70.8893C56.4277 70.8534 56.375 70.827 56.3186 70.8117C56.2641 70.7839 56.205 70.7664 56.1442 70.7601H55.75L48.7522 66.4308H48.959C49.0213 66.4243 49.0841 66.4243 49.1463 66.4308L49.3208 66.4825C49.3758 66.4983 49.4281 66.5222 49.4759 66.5536V66.5536Z" fill="#D9CDFE"/>
<path d="M53.5013 62.9545C53.4538 62.9211 53.4015 62.8949 53.3462 62.877L53.1718 62.8253C53.1095 62.8188 53.0467 62.8188 52.9844 62.8253H52.7776L45.8767 58.4961C45.9455 58.4896 46.0147 58.4896 46.0835 58.4961C46.1458 58.4896 46.2086 58.4896 46.2709 58.4961C46.3317 58.5024 46.3908 58.52 46.4453 58.5478C46.4986 58.5658 46.5487 58.5919 46.5939 58.6253L53.5013 62.9545Z" fill="#D9CDFE"/>
<path d="M46.5874 58.6318L53.5012 62.9545C53.6545 63.0469 53.7779 63.1815 53.8566 63.3422C53.9533 63.5223 54.0127 63.7201 54.0311 63.9238C54.0634 64.1726 54.0634 64.4245 54.0311 64.6733C53.9891 64.9704 53.9177 65.2626 53.8178 65.5456L46.8652 61.2228C46.9723 60.939 47.0481 60.6443 47.0914 60.3441C47.1237 60.0953 47.1237 59.8433 47.0914 59.5945C47.076 59.3904 47.0165 59.1919 46.9169 59.013C46.8518 58.8533 46.736 58.7194 46.5874 58.6318V58.6318Z" fill="white"/>
<path d="M38.6463 73.2736L45.6377 77.4994L41.8577 77.8419L34.8857 73.6484L38.6463 73.2736Z" fill="white"/>
<path d="M38.6462 73.2736L45.6376 77.4994L43.6539 83.108L36.6367 78.9145L38.6462 73.2736Z" fill="#D9CDFE"/>
<path d="M43.9836 85.8283L36.9341 81.6412C36.7778 81.5409 36.649 81.4032 36.5593 81.2406C36.4573 81.0392 36.3958 80.8196 36.3784 80.5945C36.3462 80.3327 36.3462 80.068 36.3784 79.8062C36.4314 79.4919 36.5114 79.1827 36.6175 78.8822L43.6411 83.0757C43.5312 83.3724 43.4532 83.68 43.4085 83.9932C43.3827 84.2554 43.3827 84.5194 43.4085 84.7815C43.4335 85.0069 43.4992 85.2258 43.6024 85.4277C43.6943 85.5907 43.8253 85.7284 43.9836 85.8283V85.8283Z" fill="#D9CDFE"/>
<path d="M42.7364 72.8665L49.7407 77.1246L45.6376 77.4994L38.6462 73.2736L42.7364 72.8665Z" fill="white"/>
<path d="M42.7366 72.8665L49.7408 77.1246L47.7636 82.7785L40.7141 78.5462L42.7366 72.8665Z" fill="white"/>
<path d="M43.9836 85.8283L36.9341 81.6412L37.0762 81.7123L37.2249 81.7576H37.5738C37.8875 81.7181 38.1893 81.6124 38.459 81.4474C38.7796 81.2694 39.0769 81.0523 39.3442 80.8013C39.6375 80.4919 39.8993 80.1542 40.1261 79.7933C40.3636 79.4153 40.5586 79.0122 40.7076 78.5914L47.7571 82.8172C47.4696 83.6375 47.0065 84.385 46.4002 85.0077C46.1392 85.2824 45.8413 85.5194 45.515 85.712C45.2431 85.87 44.9419 85.9712 44.6297 86.0092H44.2808L44.1257 85.964L43.9836 85.8283Z" fill="white"/>
<path d="M46.6135 72.4788L53.6436 76.7757L49.7409 77.1246L42.7366 72.8665L46.6135 72.4788Z" fill="white"/>
<path d="M48.8491 50.1414C50.5078 49.8393 52.2199 50.1201 53.6953 50.9361C55.0824 51.7858 56.1326 53.0895 56.6676 54.6256C57.3777 56.5671 57.6641 58.6381 57.5076 60.6995C57.3253 63.3904 56.7641 66.0421 55.8405 68.576C54.8363 71.4458 53.5096 74.1923 51.886 76.7628C50.346 79.2428 48.5436 81.5499 46.5101 83.6443C44.7224 85.5066 42.69 87.1173 40.4685 88.4323C38.6636 89.5318 36.6338 90.2099 34.5304 90.416C32.8737 90.588 31.211 90.1517 29.8523 89.1883C28.5685 88.1605 27.6415 86.7542 27.2031 85.1692C26.6488 83.1843 26.4777 81.112 26.6991 79.0631C26.9508 76.4689 27.5327 73.9175 28.4307 71.4708C30.3858 66.1643 33.3923 61.3072 37.2701 57.1909C38.978 55.3693 40.9078 53.7694 43.0144 52.4287C44.7834 51.2771 46.7688 50.4988 48.8491 50.1414V50.1414ZM46.607 72.4788C46.927 72.4408 47.2342 72.3303 47.5051 72.1557C47.837 71.9604 48.1394 71.7189 48.4033 71.4385C48.7046 71.1329 48.9711 70.7948 49.198 70.4305C49.4356 70.0525 49.6306 69.6495 49.7796 69.2287C49.9198 68.8527 50.0067 68.4591 50.038 68.0591C50.0646 67.7464 50.0249 67.4316 49.9217 67.1351C49.8495 66.8921 49.6904 66.684 49.4748 66.5506C49.2591 66.4172 49.002 66.3676 48.7522 66.4114L44.8753 66.8444L46.8654 61.2358C47.0069 60.8695 47.0918 60.4839 47.1174 60.0921C47.1514 59.7887 47.1161 59.4816 47.0141 59.1939C46.9472 58.9558 46.793 58.7516 46.5821 58.6223C46.3713 58.4929 46.1194 58.4478 45.8768 58.4961C45.5632 58.5439 45.2636 58.6585 44.9981 58.8321C44.6789 59.0344 44.386 59.2753 44.1258 59.5493C43.5291 60.1697 43.071 60.9097 42.7818 61.7204L40.7916 67.2902L37.031 67.7037C36.7236 67.7441 36.4295 67.8547 36.1716 68.0268C35.8542 68.2211 35.5651 68.4581 35.3123 68.7311C35.0244 69.0325 34.7669 69.3615 34.5433 69.7133C34.3166 70.0862 34.1261 70.48 33.9747 70.8893C33.8404 71.2535 33.7535 71.6336 33.7163 72.02C33.6893 72.322 33.7178 72.6264 33.8003 72.9182C33.8719 73.1463 34.0117 73.347 34.2009 73.4933C34.4022 73.6337 34.6489 73.6936 34.8923 73.6613L38.6464 73.2865L36.6369 78.9274C36.5 79.3024 36.411 79.6932 36.3719 80.0905C36.3472 80.4014 36.3778 80.7142 36.4624 81.0145C36.5343 81.253 36.6789 81.4631 36.8759 81.6154C37.0854 81.7489 37.3327 81.8102 37.5802 81.7898C37.894 81.7504 38.1957 81.6447 38.4655 81.4797C38.7853 81.2809 39.0785 81.042 39.3378 80.7689C39.631 80.4595 39.8929 80.1219 40.1196 79.7609C40.3571 79.383 40.5522 78.9799 40.7012 78.5591L42.7236 72.873L46.6005 72.4853L46.607 72.4788Z" fill="#D9CDFE"/>
<path d="M45.8768 58.4961C46.1187 58.4455 46.3707 58.4879 46.5827 58.6148C46.7946 58.7417 46.951 58.9439 47.0205 59.181C47.1208 59.4736 47.1539 59.785 47.1174 60.0921C47.0918 60.4839 47.0069 60.8695 46.8654 61.2358L44.8753 66.8444L40.7852 67.3031L42.7753 61.7333C43.0646 60.9226 43.5227 60.1826 44.1193 59.5622C44.3756 59.2712 44.6689 59.0149 44.9916 58.7998C45.2629 58.6393 45.5641 58.5359 45.8768 58.4961Z" fill="white"/>
<path d="M56.8614 71.2705C56.7755 71.1069 56.6457 70.9704 56.4866 70.8764L55.2524 70.1074C54.4415 72.1397 53.4691 74.1038 52.3448 75.981L53.6371 76.7757C53.9555 76.7393 54.2621 76.6334 54.5352 76.4656C54.8671 76.2702 55.1695 76.0288 55.4334 75.7483C55.7319 75.4435 55.9942 75.1053 56.2152 74.7403C56.459 74.3682 56.6544 73.9665 56.7967 73.545C56.9017 73.2543 56.9754 72.9532 57.0164 72.6468C57.0487 72.3915 57.0487 72.1332 57.0164 71.8779C57.0047 71.6673 56.9521 71.461 56.8614 71.2705V71.2705ZM49.7149 66.7604L49.6762 66.7151L49.7149 66.7604ZM49.6309 66.6699L49.5857 66.6311L49.6309 66.6699ZM49.8635 67.0835C49.8699 67.1023 49.8699 67.1228 49.8635 67.1416V67.1416V67.0835ZM49.8635 67.0835V67.0318V67.0835ZM49.8635 66.9542L49.8312 66.909L49.8635 66.9542ZM49.8248 66.8961C49.8313 66.8794 49.8313 66.861 49.8248 66.8444H49.7925L49.8248 66.8961Z" fill="white"/>
<path d="M48.7521 66.3985C49.0019 66.3547 49.259 66.4043 49.4747 66.5377C49.6903 66.6711 49.8494 66.8792 49.9216 67.1222C50.0248 67.4186 50.0645 67.7335 50.0379 68.0462C50.0066 68.4462 49.9196 68.8398 49.7795 69.2158C49.6305 69.6366 49.4355 70.0396 49.1979 70.4176C48.9742 70.788 48.7074 71.1307 48.4032 71.4385C48.1393 71.7189 47.8369 71.9604 47.505 72.1557C47.2341 72.3303 46.9269 72.4408 46.6069 72.4788L42.73 72.8665L38.6398 73.2736L34.8922 73.6613C34.6505 73.6949 34.4049 73.6399 34.2008 73.5062C34.0116 73.36 33.8718 73.1593 33.8002 72.9311C33.7177 72.6394 33.6892 72.335 33.7162 72.033C33.7534 71.6465 33.8403 71.2665 33.9746 70.9022C34.126 70.4929 34.3165 70.0991 34.5432 69.7262C34.7668 69.3744 35.0243 69.0455 35.3122 68.7441C35.5686 68.4661 35.8622 68.2248 36.1845 68.0268C36.4424 67.8547 36.7364 67.7441 37.0438 67.7038L40.8044 67.2902L44.8946 66.8315L48.7521 66.3985Z" fill="white"/>
<path d="M43.9576 71.9231L47.7376 71.5419L40.7915 67.2902L37.0244 67.7038L43.9576 71.9231Z" fill="white"/>
<path d="M36.6303 78.9145L38.6398 73.2736L42.7299 72.8665L40.7075 78.5526C40.5585 78.9734 40.3635 79.3765 40.126 79.7545C39.8972 80.1237 39.6332 80.47 39.3376 80.7883C39.0767 81.063 38.7787 81.3001 38.4524 81.4926C38.1827 81.6576 37.8809 81.7633 37.5672 81.8028C37.3197 81.8231 37.0723 81.7618 36.8629 81.6283C36.6658 81.476 36.5212 81.2659 36.4494 81.0274C36.3648 80.7272 36.3342 80.4143 36.3589 80.1034C36.3969 79.6969 36.4882 79.2972 36.6303 78.9145Z" fill="white"/>
<path d="M53.8954 51.046L60.7898 55.4527C61.7826 56.0982 62.5925 56.9883 63.1418 58.0373C63.7891 59.2592 64.2012 60.5919 64.3565 61.9659C64.5623 63.6451 64.5449 65.3442 64.3049 67.0188C64.0275 69.0393 63.5469 71.0266 62.8704 72.9505C61.8905 75.8003 60.5899 78.5295 58.9935 81.0855C57.4622 83.5404 55.6635 85.818 53.6304 87.8766C51.8466 89.7223 49.8156 91.3118 47.5954 92.6C45.7791 93.6877 43.7402 94.3504 41.6314 94.5384C41.2463 94.5643 40.8599 94.5643 40.4748 94.5384C40.1191 94.5148 39.7653 94.4695 39.4151 94.4027C39.0792 94.3263 38.7489 94.227 38.4265 94.1055C38.1165 93.9796 37.8144 93.835 37.5219 93.6726L30.4465 89.5566C30.7292 89.7233 31.0253 89.8659 31.3318 89.9831C31.6514 90.1045 31.9797 90.2017 32.3139 90.2738C33.042 90.4273 33.7884 90.4752 34.5302 90.416C36.6336 90.2099 38.6634 89.5318 40.4683 88.4323C42.6943 87.1183 44.7311 85.5075 46.5228 83.6443C48.5518 81.5492 50.3498 79.2421 51.8858 76.7628C53.5094 74.1923 54.8361 71.4458 55.8403 68.5761C56.5323 66.6449 57.028 64.649 57.32 62.6185C57.5606 60.9246 57.5802 59.2065 57.3781 57.5075C57.2339 56.1543 56.8395 54.8397 56.215 53.6306C55.6809 52.5812 54.8811 51.6901 53.8954 51.046V51.046Z" fill="#A78AFE"/>
</g>
<defs>
<linearGradient id="paint0_linear" x1="8.98797" y1="55.0133" x2="216.254" y2="134.632" gradientUnits="userSpaceOnUse">
<stop stop-color="#EBEAF7"/>
<stop offset="1" stop-color="#D9CDFE"/>
</linearGradient>
<linearGradient id="paint1_linear" x1="106.512" y1="46.7297" x2="122.82" y2="94.1249" gradientUnits="userSpaceOnUse">
<stop stop-color="#D9CDFE"/>
<stop offset="1" stop-color="#A78AFE"/>
</linearGradient>
<linearGradient id="paint2_linear" x1="5419.52" y1="11712.3" x2="7072.7" y2="8174" gradientUnits="userSpaceOnUse">
<stop stop-color="#D9CDFE"/>
<stop offset="1" stop-color="#A78AFE"/>
</linearGradient>
<linearGradient id="paint3_linear" x1="16242.8" y1="35756.1" x2="8832.49" y2="19968.9" gradientUnits="userSpaceOnUse">
<stop stop-color="#EBEAF7"/>
<stop offset="1" stop-color="#D9CDFE"/>
</linearGradient>
<linearGradient id="paint4_linear" x1="441.281" y1="1676.42" x2="765.484" y2="1608.68" gradientUnits="userSpaceOnUse">
<stop stop-color="#D9CDFE"/>
<stop offset="1" stop-color="#A78AFE"/>
</linearGradient>
<linearGradient id="paint5_linear" x1="885.703" y1="2626.48" x2="2643.02" y2="1643.93" gradientUnits="userSpaceOnUse">
<stop stop-color="#D9CDFE"/>
<stop offset="1" stop-color="#A78AFE"/>
</linearGradient>
<linearGradient id="paint6_linear" x1="4136.28" y1="4177.9" x2="6429.55" y2="895.97" gradientUnits="userSpaceOnUse">
<stop stop-color="#D9CDFE"/>
<stop offset="1" stop-color="#A78AFE"/>
</linearGradient>
<linearGradient id="paint7_linear" x1="4246.08" y1="3337.19" x2="6033.74" y2="-298.446" gradientUnits="userSpaceOnUse">
<stop stop-color="#D9CDFE"/>
<stop offset="1" stop-color="#A78AFE"/>
</linearGradient>
<linearGradient id="paint8_linear" x1="5434.77" y1="5309.39" x2="9247.66" y2="-2309.06" gradientUnits="userSpaceOnUse">
<stop stop-color="#D9CDFE"/>
<stop offset="1" stop-color="#A78AFE"/>
</linearGradient>
<linearGradient id="paint9_linear" x1="8680.12" y1="12189.3" x2="15964.1" y2="4650.2" gradientUnits="userSpaceOnUse">
<stop stop-color="#D9CDFE"/>
<stop offset="1" stop-color="#A78AFE"/>
</linearGradient>
<linearGradient id="paint10_linear" x1="6341.78" y1="10534.5" x2="15140" y2="1005.39" gradientUnits="userSpaceOnUse">
<stop stop-color="#D9CDFE"/>
<stop offset="1" stop-color="#A78AFE"/>
</linearGradient>
<clipPath id="clip0">
<rect width="226.256" height="160" fill="white"/>
</clipPath>
</defs>
</svg>
