<?xml version="1.0" encoding="UTF-8"?>
<svg fill="none" viewBox="0 0 227 160" xmlns="http://www.w3.org/2000/svg">
<g clip-path="url(#o)">
<path d="m212.16 81.066c-0.266-1.3927-0.634-2.7643-1.098-4.1041-0.869-2.529-2.059-4.9357-3.542-7.1611l-32.374-48.712c-2.51-3.7775-6.149-6.6663-10.398-8.255-4.248-1.5886-8.89-1.7962-13.263-0.5929l-16.067 4.4142-11.052 3.0377-0.504 0.1357-7.53 2.0553-1.887 0.5235-18.355 5.0412-10.716 2.9278-38.333 10.554c-4.7305 1.3004-8.8819 4.163-11.779 8.1221-2.8972 3.9592-4.3698 8.782-4.1782 13.684l0.1099 2.7274 0.2132 5.5583 0.7562 19.182v0.3361l1.0018 25.646 0.2456 6.217 0.4395 11.265c0.1254 2.06 0.6948 4.069 1.6693 5.888s2.3309 3.406 3.9763 4.651c1.6453 1.246 3.5406 2.121 5.5559 2.566 2.0153 0.444 4.1029 0.447 6.1195 9e-3l7.5489-1.635 25.012-5.41 20.979-4.524 13.217-2.857 7.31-1.583 11.045-2.391 4.304-0.931 0.931-0.2 5.216-1.138 7.445-1.609 1.939-0.427 3.316-0.717 1.764-0.382 27.623-5.978c4.957-1.161 9.547-3.535 13.36-6.908 3.812-3.372 6.728-7.639 8.486-12.416 1.982-5.3123 2.465-11.068 1.396-16.636l0.096 0.0259zm-135.31-10.296-0.4654 0.9759-2.2685 4.8215-0.2198 0.2068 2.2039-4.8925 0.4912-1.0988c0-0.0452 0.4201-1.829 1.0535-4.7374 0.5558-2.5852 1.2926-5.9654 2.1458-9.8368 1.0082-0.1939 2.4236-0.2392 3.5288-0.3684l-6.7345 14.949 0.265-0.0194z" fill="url(#n)"/>
<g opacity=".1">
<path d="m50.47 150.43c-0.4811 0-0.9496-0.154-1.3374-0.439-0.3877-0.285-0.6745-0.686-0.8186-1.145-0.1442-0.459-0.1382-0.952 0.0171-1.408 0.1553-0.455 0.4518-0.849 0.8463-1.125 15.111-10.515 32.244-22.433 51.918-26.162 15.304-2.909 30.731-0.705 45.642 1.422l54.458 7.755c0.594 0.086 1.129 0.404 1.489 0.885 0.359 0.48 0.513 1.084 0.427 1.678s-0.404 1.129-0.884 1.489c-0.481 0.359-1.085 0.513-1.679 0.427l-54.457-7.756c-14.549-2.074-29.588-4.22-44.156-1.46-18.743 3.554-35.437 15.175-50.18 25.432-0.3766 0.265-0.8257 0.407-1.2862 0.407zm-26.97-17.289c-0.4648-4e-3 -0.9167-0.153-1.2926-0.426-0.241-0.173-0.4455-0.393-0.6016-0.645-0.1562-0.252-0.261-0.533-0.3084-0.826s-0.0366-0.593 0.032-0.881c0.0685-0.289 0.1934-0.562 0.3674-0.802 10.923-15.143 26.176-27.21 44.117-34.901 17.942-7.6911 37.195-10.438 55.692-7.9173 13.637 1.8484 26.796 6.379 39.528 10.755 3.439 1.1827 6.993 2.4042 10.49 3.5544 14.929 4.893 32.515 9.572 49.701 7.168 0.294-0.043 0.593-0.027 0.881 0.047 0.288 0.073 0.559 0.202 0.797 0.38s0.439 0.401 0.59 0.657c0.152 0.255 0.252 0.538 0.294 0.832 0.043 0.294 0.027 0.594-0.046 0.882-0.074 0.288-0.203 0.558-0.381 0.796s-0.401 0.439-0.656 0.591c-0.256 0.151-0.539 0.251-0.833 0.294-18.096 2.533-36.316-2.295-51.737-7.349-3.529-1.157-7.109-2.385-10.554-3.574-12.519-4.3043-25.471-8.7574-38.662-10.554-35.974-4.9055-74.384 11.543-95.583 40.963-0.207 0.295-0.4818 0.535-0.8012 0.702-0.3194 0.166-0.6741 0.254-1.0343 0.254zm-21.238-30.99c-0.40326 1e-3 -0.79938-0.106-1.1476-0.31-0.34818-0.203-0.63584-0.496-0.83335-0.847-0.19751-0.352-0.29774-0.75-0.29036-1.1531 0.0073788-0.4032 0.1221-0.7971 0.33234-1.1412 10.341-16.804 27.623-32.962 46.25-43.212 21.457-11.795 43.949-15.169 63.241-9.4813 13.017 3.8326 24.301 11.634 35.218 19.208 2.746 1.9066 5.597 3.8778 8.402 5.7392 24.372 16.158 43.677 24.838 70.227 21.561 0.302-0.051 0.61-0.0405 0.907 0.031s0.577 0.2023 0.822 0.3848c0.245 0.1824 0.45 0.4126 0.604 0.6766 0.154 0.2641 0.252 0.5565 0.29 0.8598 0.038 0.3032 0.013 0.6108-0.071 0.9044-0.085 0.2936-0.228 0.567-0.421 0.8037-0.193 0.2368-0.432 0.4319-0.703 0.5737s-0.567 0.2273-0.872 0.2514c-27.94 3.4581-48.027-5.5518-73.278-22.272-2.857-1.8937-5.72-3.8778-8.493-5.8168-10.599-7.3355-21.586-14.936-33.866-18.562-17.896-5.2674-39.684-1.9389-59.784 9.1065-17.967 9.882-34.629 25.439-44.595 41.616-0.20276 0.331-0.48783 0.605-0.82755 0.794-0.33973 0.189-0.72257 0.287-1.1114 0.285zm205.94-20.617c-24.495 0-38.494-13.146-46.987-23.202-1.629-1.9389-3.264-3.9231-4.841-5.8168-7.025-8.57-14.29-17.45-23.512-23.429-15.234-9.9532-36.523-12.099-58.323-5.9396-22.065 6.2433-40.478 15.466-54.716 27.416-0.461 0.3713-1.0492 0.547-1.6384 0.4896-0.5891-0.0575-1.1323-0.3436-1.5129-0.7969-0.3806-0.4534-0.5684-1.0379-0.5229-1.6281 0.0454-0.5902 0.3203-1.1391 0.7658-1.5288 14.755-12.364 33.705-21.89 56.39-28.302 23.06-6.5212 45.662-4.1687 62.046 6.4631 9.817 6.3791 17.308 15.511 24.56 24.366 1.564 1.9389 3.186 3.8779 4.795 5.8168 8.189 9.6946 21.884 22.485 46.108 21.541 0.6-0.024 1.185 0.1913 1.626 0.5986s0.702 0.9731 0.726 1.573c0.024 0.6-0.191 1.1849-0.598 1.6261s-0.973 0.7025-1.573 0.7265c-0.944 0.0065-1.887 0.0258-2.792 0.0258z" fill="url(#i)" opacity=".1"/>
</g>
<path d="m132.11 56.875c-0.328-2.1463-0.982-4.2298-1.939-6.1787-0.895-1.8538-2.137-3.519-3.658-4.9055-1.338-1.2271-2.952-2.1138-4.705-2.5852-1.573-0.4234-3.23-0.4234-4.802 0-1.619 0.4473-3.108 1.2736-4.344 2.4107-1.414 1.3049-2.558 2.875-3.367 4.6211l-10.451 21.897c-0.8603 1.8239-1.4191 3.7752-1.6545 5.778-0.2434 2.0398-0.2086 4.1031 0.1034 6.1335 0.3035 2.0094 0.8842 3.967 1.7256 5.8168 0.8117 1.7902 1.9222 3.4293 3.2832 4.8473 1.216 1.2684 2.697 2.2527 4.337 2.8825 1.44 0.5517 2.999 0.7188 4.524 0.4847 1.562-0.2588 3.031-0.9154 4.266-1.9066 1.434-1.1633 2.6-2.6228 3.419-4.2785l11.387-22.162c0.99-1.952 1.645-4.0557 1.939-6.224 0.305-2.2015 0.284-4.436-0.064-6.6311z" fill="#fff"/>
<path d="m104.06 44.595 10.392-22.188 0.414-0.8855 1.189-2.54-3.593-1.1181c-0.143-0.0474-0.285-0.0862-0.427-0.1163l-0.427-0.084-0.42-0.0582h-0.426l-15.874-0.4589h0.1357c-0.431-0.0334-0.8644-0.0204-1.2926 0.0388-0.8941 0.1265-1.7523 0.4368-2.5206 0.9113-0.8386 0.5175-1.5838 1.173-2.2039 1.9389-0.0582 0.0711-0.1228 0.1487-0.1745 0.2262-0.6141 0.7949-1.1265 1.6634-1.5253 2.5853-0.0969 0.2197-0.1874 0.4459-0.2779 0.6463-0.0905 0.2003-0.168 0.4718-0.2456 0.7109s-0.1487 0.4912-0.2198 0.7368c-0.071 0.2456-0.1292 0.5106-0.1809 0.7691-0.3167 1.4607-0.6463 3.0118-1.0018 4.634-0.6463 2.9666-1.3378 6.1723-2.0423 9.4232-0.2779 1.2926-0.5623 2.5852-0.8467 3.9166-0.349 1.6029-0.6915 3.2316-1.0341 4.7698-0.4459 2.0682-0.8854 4.0911-1.2926 6.0236-0.1228 0.5687-0.2456 1.131-0.3619 1.6868-0.8467 3.8779-1.5899 7.2839-2.1458 9.8368-0.6463 2.9084-1.0341 4.6922-1.0535 4.7375l6.7281-14.943c0.2262 0 0.4395-0.0517 0.6463-0.084l-7.1094 15.007 15.557-1.2926 9.695-20.65 1.939-4.1816zm-8.9325-27.455h0.265-0.265zm0.3361 0.0387c0.0495-0.0031 0.0992-0.0031 0.1487 0h0.1163-0.265z" fill="#fff"/>
<path d="m162.69 94.102c0.109-0.2392 0.213-0.4848 0.316-0.7304l-1.034 2.7598c0.189-0.5033 0.348-1.0168 0.478-1.5383l0.24-0.4911z" fill="#A78AFE"/>
<path d="m163.99 88.99v0.2456 0.2068c-0.019-0.1551-6e-3 -0.3038 0-0.4524z" fill="#A78AFE"/>
<path d="m67.332 89.598c-0.0292 0.536-0.0292 1.0732 0 1.6093l-0.1357-3.2833v-0.1098c0.0137 0.5966 0.059 1.192 0.1357 1.7838z" fill="#A78AFE"/>
<path d="m163 93.372-1.034 2.7598c0.189-0.5033 0.348-1.0168 0.478-1.5383l0.233-0.4782c0.116-0.2521 0.22-0.4977 0.323-0.7433z" fill="#D9CDFE"/>
<path d="m163.99 88.99v0.2456 0.2068c-0.019-0.1551-6e-3 -0.3038 0-0.4524z" fill="#D9CDFE"/>
<path d="m67.313 91.207-0.1358-3.2833v-0.1098c0.0202 0.5969 0.072 1.1923 0.1552 1.7838-0.0357 0.5357-0.0421 1.0729-0.0194 1.6093z" fill="#D9CDFE"/>
<path d="m169.87 20.132c-0.229-0.8034-0.621-1.5512-1.15-2.1975-0.643-0.8105-1.376-1.5455-2.185-2.191-1.868-1.4864-3.984-2.6327-6.25-3.3866l3.969-7.5489c2.281 0.76249 4.413 1.9149 6.301 3.406 0.818 0.64318 1.562 1.3759 2.217 2.1846 0.533 0.6398 0.931 1.3806 1.17 2.178l-4.072 7.5554z" fill="#D9CDFE"/>
<path d="m169.89 21.47c0.026-0.0998 0.045-0.2013 0.058-0.3038 6e-3 -0.1076 6e-3 -0.2155 0-0.3231 6e-3 -0.1163 6e-3 -0.2328 0-0.349 0-0.1163-0.039-0.2391-0.071-0.3619l4.059-7.5554c0.032 0.1228 0.058 0.2456 0.077 0.362 9e-3 0.1139 9e-3 0.2285 0 0.3425 0.01 0.1053 0.01 0.2114 0 0.3167-0.01 0.1002-0.028 0.1995-0.052 0.2973l-4.071 7.5747z" fill="#D9CDFE"/>
<path d="m160.28 12.357c-0.825-0.2708-1.673-0.4697-2.533-0.5946-0.7-0.1047-1.409-0.1242-2.113-0.0582-0.556 0.0459-1.098 0.1973-1.597 0.446-0.407 0.2042-0.742 0.5263-0.963 0.9242l3.975-7.6329c0.207-0.3973 0.536-0.7186 0.937-0.91776 0.499-0.23955 1.038-0.38212 1.59-0.4201 0.707-0.06204 1.419-0.03598 2.12 0.07756 0.863 0.14321 1.713 0.35942 2.54 0.64631l-3.956 7.5295z" fill="#D9CDFE"/>
<path d="m169.44 11.931-4.046 7.5941c0-0.0581 0.052-0.1163 0.071-0.1745 0.02-0.0581 0-0.1292 0.033-0.1939 6e-3 -0.0709 6e-3 -0.1423 0-0.2133-9e-3 -0.0675-0.022-0.1344-0.039-0.2003-0.104-0.3827-0.287-0.7393-0.537-1.047-0.307-0.3883-0.658-0.7397-1.047-1.047-0.436-0.3522-0.903-0.6637-1.396-0.9307-0.511-0.2824-1.047-0.5161-1.602-0.698-0.393-0.1261-0.795-0.2191-1.203-0.278-0.334-0.0411-0.673-0.0411-1.008 0-0.263 0.0234-0.519 0.0957-0.756 0.2133-0.19 0.0968-0.347 0.2474-0.452 0.4331l4-7.62c0.104-0.18497 0.262-0.33381 0.453-0.42656 0.235-0.11379 0.489-0.18179 0.749-0.20036 0.337-0.02781 0.675-0.01479 1.009 0.03878 0.41 0.06054 0.815 0.15788 1.208 0.29084 1.09 0.34693 2.111 0.88052 3.018 1.577 0.392 0.30561 0.746 0.65713 1.054 1.047 0.254 0.3056 0.443 0.6596 0.556 1.0405 0.018 0.0744 0.031 0.15 0.039 0.2263v0.2132c-6e-3 0.0637-0.02 0.1266-0.039 0.1875-0.014 0.0585-0.036 0.115-0.065 0.168z" fill="#fff"/>
<path d="m169.72 21.878c0.02-0.0309 0.037-0.0633 0.052-0.0969 0.019-0.0327 0.034-0.0674 0.045-0.1035l0.039-0.1034c0-0.0323 0-0.0711 0.032-0.1034l4.079-7.5747c-0.013 0.0338-0.024 0.0683-0.033 0.1034l-0.038 0.1034v-0.0022c-0.045 0.0977-0.045 0.0977-0.091 0.1955l-4.085 7.5818z" fill="#D9CDFE"/>
<path d="m157.38 16.112c-0.018-0.0721-0.031-0.1456-0.038-0.2197v-0.2004c7e-3 -0.1267 0.043-0.2502 0.103-0.3619l4.001-7.62c-0.029 0.05324-0.05 0.10965-0.065 0.16804-0.019 0.05884-0.032 0.11948-0.039 0.18096-6e-3 0.06879-6e-3 0.13804 0 0.20682 7e-3 0.07202 0.02 0.14334 0.039 0.21328l-4.001 7.6329z" fill="#D9CDFE"/>
<path d="m165.39 19.525c-0.107 0.1842-0.264 0.3344-0.452 0.433-0.236 0.1147-0.49 0.1869-0.75 0.2133-0.333 0.0411-0.669 0.0411-1.002 0-0.405-0.059-0.805-0.1519-1.196-0.2779l4.053-7.6329c0.392 0.1272 0.794 0.2223 1.202 0.2843 0.331 0.0517 0.668 0.0625 1.002 0.0324 0.258-0.0185 0.51-0.0865 0.743-0.2004 0.19-0.0885 0.346-0.2358 0.446-0.4201l-4.046 7.5683z" fill="#D9CDFE"/>
<path d="m161.99 19.868c-0.561-0.1831-1.104-0.4167-1.622-0.698-0.5-0.2714-0.973-0.5872-1.416-0.9436-0.387-0.3134-0.738-0.6689-1.047-1.06-0.245-0.3111-0.424-0.6698-0.523-1.0534l4.007-7.633c0.105 0.38218 0.287 0.7386 0.536 1.047 0.314 0.38897 0.669 0.74223 1.06 1.0535 0.443 0.3586 0.919 0.6745 1.422 0.9436 0.522 0.287 1.069 0.525 1.635 0.7109l-4.052 7.6329z" fill="#D9CDFE"/>
<path d="m164.87 7.4131c1.094 0.36468 2.116 0.91809 3.018 1.6352 0.392 0.30561 0.746 0.65713 1.054 1.047 0.254 0.3056 0.443 0.6596 0.556 1.0405 0.043 0.1385 0.058 0.2843 0.044 0.4288-0.015 0.1444-0.058 0.2844-0.128 0.4114-0.152 0.2329-0.381 0.4046-0.647 0.4848-0.377 0.1079-0.772 0.143-1.163 0.1034-0.523-0.0495-1.039-0.1579-1.538-0.3232-0.566-0.1859-1.113-0.4239-1.635-0.7109-0.503-0.269-0.979-0.585-1.422-0.9436-0.391-0.3112-0.747-0.66453-1.06-1.0535-0.249-0.30841-0.432-0.66484-0.537-1.047-0.04-0.13734-0.052-0.28136-0.035-0.42349 0.016-0.14212 0.062-0.27944 0.132-0.40378 0.166-0.23705 0.412-0.40675 0.692-0.47827 0.381-0.10337 0.778-0.13406 1.17-0.09048 0.51 0.04883 1.014 0.15729 1.499 0.32315z" fill="url(#h)"/>
<path d="m164.24 4.8085c2.281 0.76249 4.413 1.9149 6.301 3.406 0.818 0.64319 1.562 1.3759 2.217 2.1846 0.533 0.6398 0.931 1.3806 1.17 2.178 0.095 0.2891 0.13 0.5942 0.105 0.8973-0.026 0.3031-0.112 0.598-0.254 0.8671-0.323 0.5083-0.822 0.8789-1.402 1.0406-0.791 0.2308-1.618 0.3076-2.437 0.2262-1.099-0.0853-2.184-0.3023-3.231-0.6463-1.196-0.3903-2.354-0.89-3.458-1.493-1.059-0.5756-2.065-1.2439-3.005-1.9971-0.825-0.6549-1.571-1.4032-2.224-2.2297-0.525-0.64417-0.907-1.3935-1.118-2.1974-0.081-0.28932-0.103-0.59223-0.063-0.8901s0.141-0.58441 0.296-0.842c0.356-0.49238 0.876-0.84091 1.467-0.98239 0.798-0.20939 1.629-0.27072 2.449-0.18097 1.084 0.09871 2.153 0.31987 3.187 0.65923zm1.803 7.4261c0.499 0.1653 1.015 0.2737 1.538 0.3231 0.391 0.0397 0.786 0.0046 1.163-0.1034 0.266-0.0802 0.495-0.2519 0.647-0.4847 0.07-0.1271 0.113-0.2671 0.128-0.4115 0.014-0.1444-1e-3 -0.2903-0.044-0.4287-0.113-0.3809-0.302-0.7349-0.556-1.0406-0.3-0.38608-0.645-0.73535-1.028-1.0405-0.903-0.71478-1.925-1.266-3.018-1.6287-0.493-0.17005-1.006-0.2807-1.525-0.32962-0.392-0.04358-0.789-0.01288-1.17 0.09048-0.28 0.07152-0.526 0.24122-0.692 0.47827-0.07 0.12434-0.116 0.26166-0.132 0.40378-0.017 0.14213-5e-3 0.28615 0.035 0.4235 0.105 0.38217 0.288 0.7386 0.537 1.047 0.314 0.38897 0.669 0.74229 1.06 1.0535 0.443 0.3586 0.919 0.6746 1.422 0.9436 0.522 0.287 1.069 0.525 1.635 0.7109" fill="#fff"/>
<path d="m173.8 14.296-4.078 7.5812c-0.22 0.3853-0.548 0.6976-0.944 0.8984-0.489 0.2442-1.019 0.3954-1.564 0.4459-0.695 0.0708-1.396 0.0556-2.087-0.0452-0.854-0.1179-1.696-0.3125-2.514-0.5817-1.188-0.3825-2.337-0.8758-3.432-1.4736-1.055-0.5718-2.055-1.2404-2.986-1.9971-0.819-0.6555-1.557-1.4062-2.198-2.2362-0.516-0.651-0.889-1.4045-1.092-2.2104-0.033-0.1489-0.055-0.3001-0.065-0.4524-9e-3 -0.1398-9e-3 -0.2802 0-0.4201 0.013-0.1295 0.039-0.2573 0.078-0.3813 0.035-0.1202 0.08-0.237 0.136-0.349l3.994-7.6329c-0.058 0.10624-0.104 0.21906-0.136 0.33608-0.037 0.1242-0.061 0.25204-0.071 0.38133-0.01 0.13554-0.01 0.27162 0 0.40717 0.012 0.15033 0.035 0.29948 0.071 0.44595 0.212 0.80397 0.593 1.5533 1.118 2.1974 0.653 0.82653 1.399 1.5748 2.224 2.2297 0.94 0.7532 1.946 1.4215 3.005 1.9971 1.104 0.603 2.262 1.1027 3.458 1.493 0.821 0.2719 1.664 0.473 2.52 0.6011 0.691 0.1065 1.392 0.1282 2.088 0.0646 0.543-0.0395 1.074-0.1821 1.564-0.4201 0.386-0.1933 0.704-0.5 0.911-0.879z" fill="#fff"/>
<path d="m163.38 1.2926c1.988 0.66122 3.913 1.4983 5.752 2.5012 1.765 0.9575 3.443 2.0669 5.016 3.3156 1.404 1.0925 2.679 2.3414 3.8 3.7227 0.925 1.1018 1.624 2.3758 2.055 3.7486 0.341 1.0053 0.269 2.1048-0.2 3.057-0.533 0.8863-1.38 1.5394-2.372 1.8291-1.358 0.4104-2.782 0.5531-4.195 0.4201-1.911-0.1552-3.797-0.5392-5.616-1.144-2.079-0.6751-4.091-1.5405-6.011-2.5852-1.836-1.0138-3.577-2.1905-5.203-3.5159-1.427-1.1359-2.713-2.4377-3.832-3.8779-0.898-1.1105-1.544-2.4027-1.894-3.7874-0.134-0.4999-0.163-1.0222-0.085-1.534 0.077-0.51174 0.261-1.0018 0.538-1.4391 0.637-0.84362 1.553-1.4343 2.585-1.6675 1.38-0.34837 2.813-0.44038 4.227-0.27145 1.852 0.20317 3.675 0.61511 5.435 1.228zm3.322 13.657c1.048 0.344 2.132 0.561 3.232 0.6463 0.819 0.0814 1.646 0.0046 2.436-0.2262 0.58-0.1617 1.08-0.5324 1.403-1.0406 0.142-0.2691 0.228-0.564 0.253-0.8671 0.026-0.3031-0.01-0.6083-0.105-0.8973-0.239-0.7974-0.637-1.5383-1.169-2.1781-0.656-0.80856-1.399-1.5413-2.217-2.1845-1.888-1.4911-4.02-2.6436-6.302-3.406-1.034-0.35082-2.105-0.58283-3.193-0.69155-0.82-0.08975-1.65-0.02842-2.449 0.18097-0.591 0.14148-1.111 0.49002-1.467 0.98239-0.155 0.25759-0.255 0.54413-0.296 0.842-0.04 0.29787-0.018 0.60078 0.063 0.8901 0.212 0.80397 0.593 1.5533 1.118 2.1974 0.653 0.82657 1.399 1.5748 2.224 2.2298 0.94 0.7532 1.946 1.4215 3.005 1.9971 1.104 0.6029 2.262 1.1027 3.458 1.493" fill="url(#g)"/>
<path d="m179.8 17.625-2.863 5.4031c-0.376 0.6566-0.935 1.1891-1.61 1.5318-0.835 0.4208-1.743 0.6795-2.675 0.7626-1.194 0.1195-2.399 0.0956-3.587-0.0711-1.464-0.2015-2.906-0.5324-4.311-0.9888-2.071-0.6681-4.073-1.5339-5.979-2.5853-1.828-0.9904-3.559-2.1502-5.17-3.4642-1.416-1.1329-2.688-2.4352-3.787-3.8778-0.89-1.1225-1.523-2.4263-1.855-3.8197-0.05-0.2495-0.082-0.5022-0.097-0.7562-0.02-0.23225-0.02-0.46576 0-0.69801 0.021-0.21921 0.065-0.43572 0.129-0.64631 0.056-0.20179 0.134-0.39683 0.233-0.58168l2.669-5.5065c-0.093 0.18232-0.168 0.37269-0.226 0.56875-0.059 0.21162-0.1 0.42782-0.123 0.64631-0.02 0.22795-0.02 0.45714 0 0.68509 0.013 0.25235 0.048 0.50313 0.103 0.74971 0.35 1.3847 0.996 2.6769 1.894 3.7874 1.119 1.4402 2.406 2.742 3.833 3.8778 1.631 1.3127 3.376 2.4764 5.215 3.4772 1.92 1.0447 3.932 1.9101 6.011 2.5852 1.412 0.4632 2.86 0.8048 4.33 1.0212 1.187 0.1781 2.392 0.215 3.587 0.1098 0.928-0.0712 1.833-0.3168 2.67-0.7238 0.671-0.3255 1.231-0.8428 1.609-1.4865z" fill="#fff"/>
<path d="m163.94 86.243v-0.2585c-0.019 0.0905-0.013 0.1745 0 0.2585z" fill="#D9CDFE"/>
<path d="m176.59 56.184c-0.289-1.8249-0.871-3.5908-1.726-5.2286-0.832-1.5849-1.959-2.9956-3.322-4.1558l-40.795-34.015c-0.372-0.3078-0.765-0.5886-1.176-0.8402-0.389-0.2332-0.795-0.4363-1.215-0.6075-0.403-0.1594-0.818-0.2869-1.241-0.3813-0.413-0.0884-0.832-0.1424-1.254-0.1616l-15.899-0.7304h0.336c0.106 0.0062 0.212 0.0192 0.316 0.0388l0.421 0.0711h0.135l0.317 0.0776c0.142 0.0388 0.291 0.084 0.433 0.1357l0.187 0.0646c0.297 0.1046 0.587 0.2299 0.866 0.3749 0.127 0.0592 0.25 0.1261 0.369 0.2003 0.222 0.1194 0.438 0.2511 0.646 0.3943 0.136 0.0905 0.265 0.181 0.394 0.2844 0.13 0.1034 0.304 0.2326 0.453 0.3619l41.247 35.308c1.392 1.2111 2.538 2.6791 3.374 4.3238 0.876 1.7055 1.471 3.5408 1.764 5.4355 0.3 1.9273 0.3 3.8893 0 5.8167-0.286 1.9184-0.903 3.7727-1.822 5.4807l-17.121 31.256-12.222 22.401-1.525 2.779-16.959 30.958c-0.071 0.136-0.149 0.265-0.226 0.388-0.078 0.122-0.11 0.181-0.168 0.265-0.138 0.224-0.289 0.44-0.453 0.646-0.05 0.07-0.104 0.136-0.161 0.2-0.161 0.206-0.336 0.401-0.524 0.582-0.073 0.084-0.153 0.162-0.239 0.233-0.09 0.09-0.187 0.174-0.284 0.258-0.207 0.179-0.423 0.347-0.647 0.504l-0.051 0.033c-0.09 0.062-0.183 0.121-0.278 0.174l-0.091 0.052-0.129 0.071-0.258 0.129c-0.136 0.065-0.278 0.129-0.414 0.181s-0.272 0.104-0.407 0.149l15.22-4.292c0.447-0.131 0.88-0.307 1.293-0.523 0.433-0.231 0.842-0.503 1.221-0.815 0.4-0.333 0.768-0.703 1.099-1.105 0.357-0.436 0.675-0.903 0.95-1.396l12.312-21.774 1.577-2.798 14.032-24.825 7.755-13.721 1.235-2.1845v-0.2585c0 0.084 0 0.168 0.032 0.252l8.596-15.214 2.243-3.9683c0.912-1.637 1.526-3.4225 1.816-5.2739 0.29-1.8596 0.279-3.7537-0.032-5.6099z" fill="url(#f)"/>
<path d="m164.01 88.68c6e-3 0.1033 6e-3 0.2069 0 0.3103 0 0.1486 0 0.2973-0.033 0.4524-0.032 0.349-0.084 0.7044-0.148 1.0535-0.035 0.2068-0.074 0.4222-0.117 0.6463-0.058 0.2585-0.123 0.5105-0.194 0.7626s-0.142 0.4912-0.219 0.7368c-0.078 0.2456-0.181 0.5041-0.278 0.7562-0.097 0.252-0.207 0.4912-0.317 0.7303l-0.233 0.4783c0.193-0.7573 0.325-1.5289 0.395-2.3073 0.112-1.2811 0.06-2.5713-0.156-3.8391l1.235-2.1845 0.039 0.3813c0 0.1551 0.032 0.3167 0.038 0.4718 7e-3 0.1551 0 0.2262 0 0.3425 0.018 0.4028 0.014 0.8063-0.012 1.2086z" fill="url(#e)"/>
<path d="m161.43 59.344c3e-3 -0.0279 3e-3 -0.0561 0-0.084v-0.5623c3e-3 -0.0603 3e-3 -0.1207 0-0.181v-0.2262c0-0.0776 0-0.2908-0.045-0.4395-0.045-0.1486-0.058-0.4395-0.09-0.6463-0.293-1.8947-0.889-3.7299-1.765-5.4354-0.836-1.6447-1.982-3.1128-3.374-4.3238l-32.321-27.617-0.647-0.5687-8.337-7.1094c-0.149-0.1293-0.297-0.2521-0.453-0.362-0.155-0.1098-0.265-0.1938-0.394-0.2843l-0.368-0.2392c-0.091-0.0581-0.181-0.1034-0.272-0.1551-0.017-0.0039-0.034-0.0039-0.051 0-0.102-0.0623-0.208-0.1184-0.317-0.168-0.28-0.145-0.569-0.2703-0.866-0.3749l-0.188-0.0646c-0.142-0.0517-0.29-0.097-0.433-0.1357l-0.452-0.1034-0.427-0.0711h-0.109c-0.079-0.0176-0.159-0.0284-0.24-0.0323h-0.336c-0.949-0.0458-1.898 0.0879-2.798 0.3942-1.323 0.4716-2.523 1.236-3.51 2.2362-0.752 0.7577-1.404 1.6092-1.939 2.5336-0.289 0.481-0.548 0.9796-0.775 1.4929l-0.252 0.5688-1.0859 2.4042-3.4901 7.7557-7.1353 15.757-2.1134 4.6922-3.5288 7.8333-6.7281 14.962-0.4912 1.0987-2.2039 4.8926-6.3403 14.07-1.6868 3.7486-2.8438 6.3209-0.2391 0.523c-0.6027 1.378-0.9865 2.841-1.1375 4.337-0.3185 3.133 0.1548 6.295 1.3766 9.197 0.582 1.389 1.378 2.678 2.359 3.82l4.4789 5.112 4.7439 5.423 0.4137 0.471 3.0635 3.503 5.6616 6.464 14.536 16.636c0.9702 1.139 2.1535 2.079 3.4835 2.766 1.131 0.586 2.391 0.877 3.665 0.846 0.608-0.018 1.211-0.123 1.79-0.31 0.136-0.045 0.271-0.09 0.407-0.149 0.136-0.058 0.278-0.116 0.414-0.18 0.135-0.065 0.265-0.13 0.388-0.201 0.122-0.071 0.284-0.168 0.42-0.258 0.223-0.158 0.439-0.326 0.646-0.504 0.097-0.084 0.194-0.169 0.284-0.259 0.275-0.251 0.53-0.523 0.763-0.814 0.057-0.064 0.111-0.131 0.162-0.201 0.163-0.206 0.314-0.422 0.452-0.646 0.058-0.084 0.116-0.175 0.168-0.265s0.155-0.252 0.226-0.388l13.708-25.025 3.232-5.933 0.53-0.969 0.995-1.81 1.377-2.508 10.858-19.822 1.732-3.1604 2.217-4.0524 8.402-15.395 2.178-3.9813 2.585-4.6663c0.919-1.7081 1.536-3.5623 1.823-5.4807 0.142-0.9478 0.213-1.9048 0.213-2.8632v-0.0711c0.052-0.265 0.045-0.5106 0.032-0.7626zm-42.126 31.669-0.446 0.866c-0.818 1.654-1.985 3.1114-3.419 4.2721-1.23 1.0048-2.7 1.6729-4.266 1.9389-1.524 0.2323-3.083 0.0653-4.524-0.4847-1.636-0.6395-3.11-1.6326-4.317-2.9084-0.304-0.3102-0.588-0.6463-0.86-0.963l-0.161-0.1939-0.155-0.2003c-0.123-0.1551-0.246-0.3167-0.362-0.4847-0.117-0.1681-0.317-0.4525-0.466-0.6851-0.09-0.1358-0.181-0.2779-0.265-0.4201-0.0837-0.1422-0.1742-0.2844-0.2517-0.4331-0.0776-0.1486-0.2004-0.3619-0.2973-0.5429-0.1616-0.3037-0.3167-0.6139-0.4589-0.9242-0.1422-0.3102-0.2068-0.4524-0.3038-0.6851-0.0969-0.2326-0.1874-0.4653-0.2779-0.698l-0.168-0.4782c-0.0841-0.2392-0.1681-0.4848-0.2392-0.7304s-0.1615-0.5235-0.2262-0.7885c-0.0137-0.0357-0.0245-0.0724-0.0323-0.1098-0.2012-0.769-0.363-1.5477-0.4847-2.3332-0.3132-2.0304-0.3458-4.0942-0.097-6.1335 0.2312-2.0029 0.7878-3.9545 1.6481-5.778l10.289-21.554 0.162-0.3361c0.084-0.1745 0.168-0.3426 0.258-0.5106 0.091-0.168 0.13-0.2521 0.201-0.3749 0.129-0.2326 0.265-0.4653 0.4-0.685 0.027-0.0498 0.057-0.0973 0.091-0.1422 0.103-0.1745 0.22-0.349 0.336-0.5171 0.043-0.0689 0.088-0.1336 0.136-0.1939 0.076-0.114 0.158-0.224 0.245-0.3296 0.084-0.1228 0.175-0.2391 0.272-0.3555 0.097-0.1163 0.278-0.336 0.42-0.4976s0.33-0.3555 0.498-0.5235l0.148-0.1487c0.117-0.1228 0.239-0.2326 0.362-0.3425 1.215-1.1493 2.686-1.9933 4.292-2.4625 1.573-0.417 3.228-0.417 4.802 0 1.755 0.4837 3.368 1.3813 4.705 2.6176 1.519 1.389 2.76 3.0536 3.658 4.9055 0.11 0.2262 0.22 0.4524 0.323 0.6851 0 0.0581 0.052 0.1098 0.071 0.1615 0.02 0.0517 0.045 0.1099 0.071 0.1681 0.026 0.0581 0.13 0.2973 0.188 0.4459 0.181 0.446 0.342 0.9049 0.491 1.3702 0.052 0.1486 0.097 0.2973 0.136 0.4524 2e-3 0.015 2e-3 0.0303 0 0.0453 0.045 0.1271 0.084 0.2565 0.116 0.3877 0.129 0.4718 0.239 0.9501 0.343 1.4348v0.0647c0.038 0.2133 0.084 0.4265 0.116 0.6463 0 0.1034 0.039 0.2133 0.058 0.3231 0.224 1.4276 0.313 2.8731 0.265 4.3174 0 0.2585 0 0.5106-0.045 0.7626 3e-3 0.0452 3e-3 0.0906 0 0.1357 0 0.2112-0.02 0.4266-0.058 0.6463 0 0.2586-0.052 0.5171-0.091 0.7692-0.077 0.5493-0.174 1.0858-0.297 1.6222-0.058 0.2714-0.123 0.5364-0.194 0.8014-0.136 0.53-0.297 1.0535-0.478 1.5641-0.091 0.2585-0.188 0.5106-0.291 0.7626-0.104 0.2521-0.149 0.362-0.233 0.5429-0.084 0.181-0.103 0.2456-0.161 0.3684-0.059 0.1228-0.181 0.3749-0.278 0.5623l-8.693 17.004-2.204 4.3044z" fill="url(#d)"/>
<path d="m76.096 71.889-2.2039 4.8925c-1.9438 1.743-3.5593 3.8203-4.7698 6.1335-1.0522 2.0799-1.6618 4.3554-1.7902 6.6828-0.0832-0.5915-0.135-1.1869-0.1552-1.7838v-1.5706c0-0.1615 0-0.3166 0.0388-0.4782s0.0388-0.433 0.0711-0.6463 0.0388-0.2909 0.0646-0.4395c0.0259-0.1487 0.0388-0.2585 0.0647-0.3878 0.0258-0.1293 0.0581-0.3167 0.0969-0.4718s0.0711-0.3232 0.1099-0.4783 0.1228-0.4782 0.1939-0.7174c0.0711-0.2391 0.084-0.2844 0.1292-0.4265 0.1164-0.3684 0.2521-0.7304 0.3943-1.0923 0.0711-0.181 0.1486-0.3619 0.2262-0.5364 0.1357-0.3103 0.2779-0.6463 0.433-0.9178 0.0776-0.1616 0.1616-0.3167 0.2456-0.4653 0.084-0.1487 0.1293-0.2456 0.2004-0.3684s0.2327-0.4007 0.3555-0.5946 0.3619-0.5623 0.5558-0.8402c0.0969-0.1422 0.2003-0.2909 0.3102-0.4331 0.181-0.252 0.3749-0.5041 0.5817-0.7497 0.0369-0.0547 0.0779-0.1066 0.1228-0.1551l0.3942-0.4653c0.2068-0.2456 0.4266-0.4848 0.6463-0.7239 0.1228-0.1357 0.2521-0.265 0.3878-0.4007l0.8725-0.8725c0.2327-0.2068 0.4718-0.4201 0.711-0.6463l0.1422-0.1164c0.252-0.2132 0.5105-0.4136 0.7755-0.614 0.0207-0.0228 0.0447-0.0424 0.0711-0.0581 0.23-0.1152 0.473-0.202 0.7239-0.2585z" fill="url(#c)"/>
<path d="m177.17 110.14c-1.662 1.915-3.55 3.62-5.622 5.08-2.313 1.622-4.789 2.998-7.388 4.104-2.92 1.248-5.949 2.224-9.048 2.915l-1.183 3.044c3.063-0.7 6.055-1.68 8.939-2.927 2.574-1.108 5.022-2.488 7.303-4.117 2.057-1.463 3.93-3.168 5.578-5.08 1.519-1.763 2.799-3.719 3.806-5.817l1.409-3.025c-0.999 2.102-2.275 4.06-3.794 5.823z" fill="url(#b)"/>
<path d="m158.99 133.1c-0.165 0.126-0.342 0.234-0.53 0.323-0.196 0.097-0.402 0.173-0.614 0.226-0.212 0.052-0.428 0.085-0.646 0.097-0.237 0.019-0.475 0.019-0.711 0-0.251-0.03-0.5-0.077-0.744-0.142-0.265-0.076-0.524-0.171-0.775-0.285l-27.791-12.525c-0.38-0.165-0.735-0.383-1.054-0.646-0.288-0.242-0.537-0.528-0.737-0.847-0.181-0.291-0.308-0.613-0.375-0.95-0.068-0.317-0.068-0.646 0-0.963l-0.73 3.122c-0.068 0.317-0.068 0.645 0 0.963 0.062 0.334 0.187 0.655 0.368 0.943 0.195 0.317 0.437 0.603 0.718 0.847 0.316 0.261 0.666 0.479 1.04 0.646l27.32 12.422c0.244 0.113 0.497 0.206 0.756 0.278 0.241 0.068 0.488 0.116 0.737 0.142 0.232 0.019 0.466 0.019 0.698 0 0.218-0.016 0.434-0.051 0.646-0.103 0.212-0.051 0.418-0.124 0.614-0.22 0.184-0.094 0.359-0.205 0.524-0.329 0.153-0.124 0.292-0.265 0.413-0.421 0.118-0.154 0.217-0.321 0.298-0.497l1.292-3.006c-0.076 0.181-0.176 0.35-0.297 0.505-0.125 0.154-0.266 0.295-0.42 0.42z" fill="url(#a)"/>
<path d="m119.18 128.01c-0.226 1.028-0.452 2.062-0.646 3.096-0.083 0.384-0.227 0.753-0.427 1.092-0.198 0.354-0.451 0.675-0.749 0.95-0.313 0.296-0.665 0.546-1.047 0.744-0.408 0.218-0.842 0.381-1.293 0.484h-0.498c-0.827 0.123-1.661 0.227-2.494 0.317-1.642 0.19-3.294 0.317-4.958 0.381-1.172 0.061-2.341 0.087-3.509 0.078-3.7256 0.019-7.4476-0.236-11.136-0.763-2.6232-0.398-5.223-0.937-7.788-1.616-1.0147-0.258-2.0229-0.542-3.0183-0.853-3.4705-1.071-6.8523-2.41-10.115-4.007-3.4791-1.691-6.7864-3.714-9.8756-6.043-2.7815-2.085-5.3259-4.469-7.5876-7.109-2.0424-2.396-3.7792-5.035-5.1705-7.859-1.2761-2.605-2.1853-5.374-2.7015-8.2277l-0.0582-0.3038c0-0.0969 0-0.2003-0.0453-0.2973-0.0452-0.0969-0.0323-0.2003-0.0452-0.3038-0.0129-0.1034 0-0.2003-0.0452-0.2972l-0.4395-3.2316c0.0452 0.3749 0.1098 0.7497 0.1745 1.1246 0.539 2.8423 1.47 5.5958 2.7662 8.1818 1.4054 2.838 3.1621 5.487 5.2286 7.885 2.2952 2.668 4.8765 5.076 7.6975 7.181 3.1363 2.355 6.4909 4.405 10.018 6.12 3.3176 1.612 6.7556 2.962 10.283 4.04 0.2714 0.084 0.5429 0.168 0.8143 0.239 3.335 0.988 6.734 1.746 10.173 2.269 3.7306 0.569 7.4979 0.865 11.272 0.885 1.635 0 3.264 0 4.879-0.129 1.616-0.13 3.348-0.252 5.003-0.459l1.292-0.168h0.504c0.162-0.039 0.317-0.078 0.466-0.129l0.116-0.033 0.433-0.168c0.11-0.045 0.207-0.097 0.31-0.148h0.033c0.183-0.091 0.358-0.197 0.523-0.317l0.259-0.201c0.078-0.059 0.151-0.124 0.22-0.193 0.2-0.174 0.378-0.372 0.529-0.589 0.083-0.103 0.157-0.213 0.22-0.329v-0.032c0.071-0.124 0.136-0.252 0.194-0.382 0.058-0.136 0.11-0.271 0.155-0.413 0.039-0.278 0.065-0.369 0.084-0.466z" fill="url(#m)"/>
<path d="m183.3 94.93c-0.077 2.3721-0.513 4.7189-1.292 6.9603-0.309 0.882-0.667 1.745-1.073 2.586-0.123 0.252-0.246 0.497-0.375 0.743v0.032l-0.045 0.084c-0.084 0.168-0.181 0.343-0.278 0.511s-0.168 0.297-0.259 0.446c-0.09 0.148-0.245 0.42-0.375 0.646-0.011 0.024-0.026 0.046-0.045 0.065-0.123 0.2-0.245 0.394-0.381 0.581-0.213 0.324-0.433 0.647-0.646 0.957l-0.046 0.058c-0.135 0.194-0.278 0.375-0.426 0.562l-0.039 0.046-0.032 0.038c-0.168 0.22-0.343 0.433-0.53 0.647l-0.033 0.045-0.045 0.052c-0.084 0.103-0.174 0.213-0.271 0.316-0.097 0.104-0.188 0.214-0.278 0.317l-0.375 0.407c-0.129 0.142-0.265 0.278-0.401 0.42-0.232 0.246-0.478 0.479-0.724 0.718-0.245 0.239-0.452 0.433-0.685 0.646-0.232 0.213-0.284 0.259-0.433 0.381l-0.517 0.44c-0.194 0.168-0.388 0.329-0.588 0.485l-0.252 0.2-0.129 0.097-0.13 0.097c-0.109 0.09-0.213 0.168-0.323 0.245l-0.504 0.369c-0.362 0.258-0.724 0.51-1.099 0.756l-0.058 0.039c-0.207 0.142-0.42 0.278-0.646 0.407s-0.582 0.368-0.885 0.543c-0.304 0.174-0.602 0.355-0.912 0.523-0.594 0.336-1.208 0.66-1.842 0.97l-0.09 0.045c-0.31 0.149-0.647 0.304-0.95 0.446l-0.214 0.103-0.795 0.349c-0.342 0.149-0.691 0.291-1.047 0.433-0.258 0.11-0.517 0.207-0.782 0.304h-0.045l-0.342 0.129-0.168 0.065-0.828 0.297h-0.084l-1.034 0.343c-0.375 0.123-0.756 0.246-1.144 0.355l-1.163 0.337-0.459 0.122-0.724 0.188c-0.401 0.103-0.801 0.2-1.208 0.291l1.363 2.384 2.915 5.1c0.24 0.393 0.39 0.835 0.44 1.292 0.033 0.398-0.034 0.798-0.194 1.164l-0.039 0.071c-0.026 0.058-0.057 0.114-0.091 0.168-0.045 0.076-0.095 0.149-0.148 0.22-0.06 0.075-0.125 0.146-0.194 0.213-0.071 0.071-0.149 0.136-0.226 0.2-0.163 0.127-0.338 0.235-0.524 0.323-0.194 0.093-0.398 0.164-0.607 0.214-0.212 0.054-0.428 0.089-0.647 0.103-0.236 0.019-0.474 0.019-0.711 0-0.251-0.026-0.5-0.074-0.743-0.142-0.265-0.075-0.524-0.167-0.775-0.278l-14.174-6.224-1.939-0.866-8.932-4.026-2.585-1.164-0.323-0.148c-0.444-0.194-0.851-0.463-1.202-0.795-0.296-0.273-0.539-0.597-0.718-0.957l-0.039-0.071c-2e-3 -0.021-2e-3 -0.043 0-0.065 0 0-0.038-0.084-0.051-0.122l-0.039-0.123c-0.023-0.066-0.043-0.133-0.058-0.201v-0.038c0-0.065 0-0.136-0.033-0.201v-0.148-0.194c-3e-3 -0.015-3e-3 -0.031 0-0.046-6e-3 -0.077-6e-3 -0.155 0-0.232 8e-3 -0.063 0.019-0.126 0.033-0.188 0.051-0.226 0.136-0.444 0.252-0.646l10.638-18.155c0.086-0.1502 0.192-0.2873 0.317-0.4072 0.122-0.1215 0.259-0.2278 0.407-0.3167 0.154-0.0929 0.316-0.1708 0.485-0.2327 0.172-0.061 0.35-0.1085 0.53-0.1422 0.407-0.0616 0.821-0.0616 1.228 0 0.428 0.0429 0.847 0.1452 1.247 0.3038 0.164 0.0639 0.323 0.1373 0.478 0.2198 0.229 0.1135 0.445 0.2499 0.647 0.4071 0.33 0.2582 0.608 0.5761 0.82 0.9372l0.259 0.4459 3.309 5.8167c2.449-0.474 4.835-1.231 7.109-2.256 0.77-0.355 1.506-0.73 2.204-1.137 0.569-0.323 1.112-0.666 1.629-1.028 2.474-1.6538 4.496-3.8998 5.881-6.5338-0.13 0.5214-0.289 1.035-0.478 1.5382l1.034-2.7597c0.097-0.2521 0.188-0.4977 0.278-0.7562 0.091-0.2585 0.155-0.4912 0.22-0.7368s0.136-0.5041 0.194-0.7627c0.058-0.2585 0.084-0.4136 0.116-0.6463 0.065-0.349 0.116-0.7044 0.149-1.0534v-0.2069-0.2456c6e-3 -0.1033 6e-3 -0.2069 0-0.3102 0.022-0.4112 0.022-0.8233 0-1.2344v-0.3426c0-0.1163 0-0.3167-0.039-0.4718s0-0.2585 0-0.3878l8.641-15.259c1.195 1.2071 2.321 2.4802 3.374 3.8132 1.583 1.9913 2.968 4.1321 4.136 6.392 1.103 2.1405 1.951 4.4029 2.527 6.741 0.548 2.2734 0.783 4.6109 0.698 6.9478z" fill="url(#l)"/>
<path d="m119.26 127.44c-0.02 0.289-0.07 0.575-0.149 0.854-0.045 0.142-0.097 0.277-0.155 0.413-0.058 0.131-0.123 0.258-0.194 0.382v0.032c-0.063 0.116-0.137 0.226-0.22 0.329-0.152 0.217-0.33 0.415-0.53 0.589-0.068 0.069-0.142 0.134-0.219 0.193l-0.259 0.201c-0.165 0.12-0.34 0.226-0.523 0.317h-0.033l-0.31 0.148-0.433 0.168-0.116 0.033c-0.149 0.051-0.304 0.09-0.466 0.129h-0.504l-1.292 0.168c-1.655 0.207-3.322 0.36-5.003 0.459-1.616 0.097-3.231 0.135-4.88 0.129-3.773-0.02-7.5405-0.316-11.271-0.885-0.4912-0.072-0.9824-0.156-1.4736-0.24l-1.1052-0.2c-0.8596-0.155-1.7127-0.336-2.5852-0.523l-1.2926-0.298-0.8338-0.2-0.168-0.045c-0.433-0.11-0.8725-0.227-1.2926-0.349-0.4201-0.123-0.976-0.272-1.4607-0.414-0.2714-0.071-0.5429-0.155-0.8143-0.239-0.9372-0.291-1.8679-0.595-2.7921-0.918-0.5687-0.2-1.131-0.407-1.6933-0.646l-0.3684-0.142c-0.5623-0.214-1.1181-0.44-1.6739-0.647l-1.4995-0.646-0.7626-0.343c-0.5041-0.226-1.0018-0.465-1.493-0.704l-0.9436-0.33-0.5752-0.297c-0.7691-0.401-1.5253-0.808-2.2621-1.228l-0.6851-0.401c-0.5235-0.303-1.0341-0.646-1.5382-0.93l-0.0517-0.033-0.9178-0.588c-0.517-0.342-1.0276-0.685-1.5252-1.034l-0.6851-0.491-0.8079-0.601c-2.821-2.105-5.4023-4.513-7.6975-7.181-0.7498-0.885-1.4607-1.783-2.1135-2.701-0.1809-0.252-0.3619-0.504-0.5299-0.763l-0.1099-0.155-0.0388-0.058c-0.2068-0.304-0.4007-0.608-0.5946-0.918s-0.3619-0.582-0.5364-0.872l-0.0841-0.149c-0.1421-0.233-0.2779-0.472-0.4071-0.711-0.0711-0.123-0.1357-0.252-0.2068-0.381-0.1552-0.285-0.3038-0.575-0.446-0.866-0.0582-0.104-0.1099-0.207-0.1616-0.311-1.2901-2.606-2.2103-5.3794-2.7339-8.24l-0.0969-0.5623c0-0.1874-0.0582-0.3748-0.0776-0.5623-0.0193-0.1874-0.0517-0.3684-0.0646-0.5493-0.2487-2.1126-0.2487-4.2471 0-6.3597 0.0646-0.5817 0.1487-1.1569 0.2585-1.7321 0.1099-0.5752 0.181-0.963 0.3038-1.4413 0.1551-0.6851 0.349-1.3572 0.5623-2.0294 0.2133-0.6721 0.517-1.4929 0.8208-2.2297 0.3662-0.8876 0.7799-1.7494 1.2409-2.5853l0.3167-0.5752c0.3813-0.6463 0.7885-1.3378 1.2215-1.9906 0.3426-0.5106 0.698-1.0147 1.0729-1.5124 0.5515-0.7281 1.1332-1.4412 1.745-2.1393 0.3749-0.4265 0.7691-0.8466 1.1698-1.2926 0.0604-0.0646 0.125-0.1292 0.1939-0.1939 0.5235-0.5429 1.0794-1.0728 1.6546-1.5963 0.2327-0.2133 0.4718-0.4266 0.7174-0.6463 2.1-1.8074 4.3607-3.4191 6.7539-4.815 0.2779-0.1616 0.5558-0.3232 0.8402-0.4783 2.1887-1.2261 4.4607-2.2973 6.7992-3.2057 2.7155-1.0548 5.5014-1.9186 8.3373-2.5852l0.2779-0.0517c-0.8466 3.8778-1.5899 7.2839-2.1457 9.8368-0.6463 2.9084-1.0341 4.6922-1.0535 4.7374l-0.4912 1.0987c-0.2261 0.0767-0.4429 0.1786-0.6463 0.3038-0.0264 0.0158-0.0504 0.0354-0.0711 0.0582-0.265 0.2003-0.5235 0.4007-0.7755 0.614l-0.1422 0.1163c-0.2392 0.2003-0.4783 0.4136-0.711 0.6463l-0.6463 0.6463c-0.0775 0.0776-0.1551 0.1487-0.2262 0.2262-0.0711 0.0776-0.265 0.265-0.3878 0.4007-0.2326 0.2392-0.4524 0.4783-0.6463 0.7239l-0.3942 0.4653c-0.0449 0.0485-0.0859 0.1004-0.1228 0.1552-0.2068 0.2455-0.4007 0.4976-0.5817 0.7497-0.1099 0.1422-0.2133 0.2908-0.3102 0.433-0.1939 0.2779-0.3813 0.5558-0.5558 0.8402-0.1746 0.2844-0.2392 0.3942-0.3555 0.5946-0.1164 0.2004-0.1357 0.2456-0.2004 0.3684-0.0646 0.1228-0.168 0.3038-0.2456 0.4653-0.1551 0.3038-0.2973 0.6076-0.433 0.9178-0.0776 0.1745-0.1551 0.3555-0.2262 0.5364-0.1422 0.362-0.2779 0.7239-0.3943 1.0923-0.0452 0.1422-0.0904 0.2844-0.1292 0.4265-0.0388 0.1422-0.1357 0.4783-0.1939 0.7175-0.0582 0.2391-0.0776 0.3166-0.1099 0.4782s-0.0711 0.3102-0.0969 0.4718c-0.0259 0.1616-0.0453 0.2585-0.0647 0.3878-0.0193 0.1293-0.0452 0.2909-0.0646 0.4395-0.0194 0.1487-0.0517 0.433-0.0711 0.6463s0 0.3167-0.0388 0.4783c-0.0301 0.517-0.0301 1.0405 0 1.5705v0.0776l0.1358 3.2832c-0.0292-0.536-0.0292-1.0733 0-1.6093 0.0581 0.4136 0.1292 0.8337 0.2197 1.2538s0.1551 0.6463 0.2521 1.0147c0.1582 0.5759 0.3459 1.1432 0.5623 1.6998l0.0646 0.1745c0.4824 1.2297 1.0797 2.4112 1.7838 3.5289 0.0776 0.1292 0.1616 0.252 0.2521 0.3813 0.7064 1.128 1.5017 2.1978 2.3784 3.1992 2.7036 2.903 5.8951 5.309 9.4296 7.109 3.9344 2.023 8.1399 3.469 12.487 4.292 4.5608 0.869 9.2222 1.087 13.844 0.646 0.647-0.064 1.3-0.036 1.939 0.084 0.61 0.119 1.201 0.319 1.758 0.595 0.529 0.262 1.013 0.607 1.434 1.021 0.406 0.396 0.733 0.865 0.963 1.383l1.222 2.831 0.181 0.42 1.771 4.111 0.271 0.646 0.737 1.713c0.156 0.373 0.261 0.767 0.31 1.169 0.019 0.2 0.021 0.401 7e-3 0.601z" fill="url(#k)"/>
<path d="m40.905 75.069c-0.107 0.2883-0.1829 0.5873-0.2262 0.8919-0.0317 0.2532-0.0317 0.5094 0 0.7626 0.0241 0.2075 0.0854 0.4089 0.181 0.5946 0.0836 0.1594 0.2086 0.2934 0.3619 0.3878l-6.9672-4.1816c-0.1499-0.0965-0.2724-0.2301-0.3555-0.3878-0.091-0.1866-0.1479-0.388-0.168-0.5946-0.0317-0.2532-0.0317-0.5094 0-0.7627 0.048-0.3042 0.1259-0.603 0.2327-0.8919l6.9349 4.1817-6.9349-4.1817c0.1488-0.4105 0.3393-0.8047 0.5687-1.1762 0.2229-0.3524 0.4805-0.6815 0.7691-0.9824 0.2626-0.2757 0.5629-0.5129 0.8919-0.7045 0.2593-0.1696 0.5528-0.2799 0.8596-0.3232l6.8961 4.2269c-0.308 0.0381-0.6038 0.1441-0.866 0.3102-0.3174 0.1893-0.6067 0.4221-0.8596 0.6916-0.5855 0.6133-1.0367 1.3418-1.3249 2.1393h0.0064z" fill="#D9CDFE"/>
<path d="m41.202 77.706-6.9478-4.1816 0.1422 0.0646c0.1033 0.0396 0.2125 0.0615 0.3231 0.0646 0.0602 0.0065 0.1209 0.0065 0.181 0l6.9672 4.1946c-0.0623 0.0064-0.1251 0.0064-0.1874 0-0.0558 0.0067-0.1123 0.0067-0.1681 0l-0.1551-0.0453-0.1551-0.0969z" fill="#fff"/>
<path d="m52.784 62.808c-0.3125 0.0483-0.6118 0.1605-0.879 0.3296-0.3121 0.1964-0.5968 0.4333-0.8466 0.7045-0.2891 0.3029-0.5468 0.6342-0.7692 0.9889-0.228 0.37-0.4186 0.7619-0.5687 1.1698l-6.9413-4.2851c0.146-0.4116 0.3368-0.8061 0.5687-1.1762 0.225-0.3566 0.4848-0.69 0.7756-0.9953 0.2579-0.2803 0.5512-0.5258 0.8725-0.7304 0.2715-0.1686 0.5753-0.2787 0.8919-0.3231l6.8961 4.3173z" fill="#D9CDFE"/>
<path d="m42.779 61.716 6.909 4.2851-1.9518 5.5388-6.9478-4.2527 1.9906-5.5712z" fill="#D9CDFE"/>
<path d="m44.88 66.828 6.9737 4.2979-4.117 0.4137-6.9478-4.2527 4.0911-0.4589z" fill="#fff"/>
<path d="m46.87 61.218 6.9348 4.3238-1.9518 5.5841-6.9737-4.298 1.9907-5.6099z" fill="#fff"/>
<path d="m48.758 66.395 6.9995 4.3303-3.9037 0.4007-6.9737-4.298 3.8779-0.433z" fill="#D9CDFE"/>
<path d="m49.481 66.57 6.9995 4.3367c-0.0475-0.0334-0.0998-0.0596-0.1551-0.0775-0.0556-0.0249-0.1143-0.0423-0.1745-0.0517h-0.3942l-6.9995-4.3303h0.2068c0.0623-0.0067 0.1251-0.0067 0.1874 0l0.1745 0.0517c0.0539 0.0185 0.1059 0.0424 0.1551 0.0711z" fill="#D9CDFE"/>
<path d="m53.508 62.95c-0.049-0.031-0.1009-0.057-0.1551-0.0776l-0.1745-0.0517c-0.0623-0.0066-0.1251-0.0066-0.1874 0h-0.2069l-6.8961-4.3302c0.0688-0.0063 0.1381-0.0063 0.2069 0 0.0623-0.0067 0.1251-0.0067 0.1874 0 0.0598 0.0112 0.1182 0.0285 0.1745 0.0517 0.0527 0.0193 0.1027 0.0453 0.1486 0.0775l6.9026 4.3303z" fill="#D9CDFE"/>
<path d="m46.592 58.627 6.9155 4.3238c0.1499 0.0964 0.2724 0.23 0.3554 0.3878 0.0935 0.1815 0.1526 0.3787 0.1746 0.5816 0.0319 0.2489 0.0319 0.5009 0 0.7498-0.0449 0.2966-0.1163 0.5886-0.2133 0.8725l-6.9543-4.3238c0.1039-0.2849 0.1797-0.5793 0.2262-0.879 0.0318-0.2489 0.0318-0.5008 0-0.7497-0.0189-0.2036-0.0783-0.4013-0.1745-0.5817-0.07-0.1568-0.1846-0.2894-0.3296-0.3813z" fill="#fff"/>
<path d="m38.649 73.272 6.9866 4.2269-3.7809 0.3425-6.9672-4.1945 3.7615-0.3749z" fill="#fff"/>
<path d="m38.649 73.272 6.9866 4.2269-1.9777 5.6099-7.0254-4.1945 2.0165-5.6423z" fill="#D9CDFE"/>
<path d="m43.988 85.83-7.0512-4.1881c-0.1592-0.0968-0.2888-0.2354-0.3749-0.4007-0.1033-0.201-0.1649-0.4208-0.1809-0.6463-0.0353-0.2616-0.0353-0.5268 0-0.7885 0.0501-0.315 0.1302-0.6244 0.2391-0.9242l7.0254 4.1945c-0.11 0.2968-0.188 0.6045-0.2327 0.9178-0.0322 0.2619-0.0322 0.5266 0 0.7885 0.0211 0.2262 0.0871 0.4459 0.1939 0.6463 0.0884 0.1657 0.2202 0.3043 0.3813 0.4007z" fill="#D9CDFE"/>
<path d="m42.734 72.865 7.0125 4.2592-4.1105 0.3749-6.9866-4.2269 4.0846-0.4072z" fill="#fff"/>
<path d="m42.734 72.865 7.0124 4.2592-1.9841 5.6552-7.0513-4.2333 2.023-5.6811z" fill="#fff"/>
<path d="m43.988 85.83-7.0512-4.1881c0.0454 0.0275 0.093 0.0513 0.1422 0.0711l0.1487 0.0453h0.349c0.3139-0.0389 0.6159-0.1447 0.8854-0.3103 0.3221-0.1809 0.6197-0.4025 0.8855-0.6592 0.2914-0.311 0.5532-0.6486 0.782-1.0082 0.2362-0.3789 0.4312-0.7819 0.5817-1.2022l7.0512 4.2269c-0.1482 0.418-0.3411 0.8189-0.5752 1.1956-0.2237 0.3593-0.486 0.693-0.7821 0.9954-0.2616 0.2741-0.5595 0.5111-0.8854 0.7044-0.271 0.1602-0.5727 0.2615-0.8855 0.2973h-0.349l-0.1551-0.0452-0.1422-0.1228z" fill="#fff"/>
<path d="m46.612 72.477 7.0319 4.298-3.8973 0.349-7.0124-4.2592 3.8778-0.3878z" fill="#fff"/>
<path d="m48.854 50.134c1.6592-0.301 3.3713-0.0202 4.8474 0.795 1.3839 0.8539 2.4332 2.1564 2.973 3.6904 0.6947 1.9455 0.9701 4.0159 0.8079 6.0753-0.1864 2.691-0.7477 5.3427-1.6675 7.8785-1.0073 2.8692-2.3341 5.6161-3.9554 8.1887-1.5409 2.4803-3.3436 4.7879-5.3773 6.8832-1.7876 1.8633-3.8206 3.4745-6.043 4.7891-1.8053 1.1-3.8356 1.7783-5.9396 1.9842-1.6572 0.1739-3.321-0.2627-4.6792-1.228-1.2874-1.0249-2.2154-2.4328-2.6499-4.02-0.5561-1.9851-0.7272-4.0582-0.5041-6.1076 0.2599-2.5972 0.8552-5.1499 1.7709-7.5942 1.9555-5.3078 4.9627-10.166 8.8415-14.283 1.7075-1.8228 3.6379-3.4231 5.7457-4.7633 1.7674-1.151 3.7511-1.9295 5.8296-2.2879zm-2.2426 22.343c0.3197-0.0395 0.6267-0.1499 0.8983-0.3232 0.3315-0.196 0.6339-0.4375 0.8984-0.7174 0.3007-0.2992 0.5673-0.6308 0.795-0.9888 0.2362-0.3788 0.4312-0.7818 0.5816-1.2022 0.1377-0.3767 0.2246-0.7701 0.2586-1.1698 0.0252-0.3128-0.0145-0.6274-0.1164-0.9242-0.0723-0.2431-0.2314-0.4512-0.4471-0.5847-0.2156-0.1334-0.4729-0.183-0.7227-0.1392l-3.8778 0.4331 1.9906-5.61c0.1379-0.3674 0.2228-0.7526 0.252-1.144 0.0296-0.3034-0.0057-0.6096-0.1034-0.8983-0.0641-0.2397-0.216-0.4465-0.4255-0.5794s-0.4614-0.1821-0.7055-0.138c-0.3131 0.0501-0.6124 0.1645-0.879 0.3361-0.3205 0.2005-0.6138 0.4416-0.8725 0.7174-0.2908 0.3053-0.5506 0.6387-0.7756 0.9953-0.2319 0.3701-0.4226 0.7646-0.5687 1.1763l-1.9906 5.5711-3.7616 0.4137c-0.3068 0.0432-0.6003 0.1535-0.8596 0.3231-0.3176 0.1941-0.6068 0.4312-0.8595 0.7045-0.2886 0.3009-0.5463 0.63-0.7691 0.9824-0.2294 0.3716-0.42 0.7657-0.5688 1.1763-0.1373 0.3634-0.2243 0.744-0.2585 1.131-0.0319 0.3021-0.0034 0.6075 0.084 0.8984 0.0667 0.2305 0.2076 0.4327 0.4007 0.5752 0.1987 0.1473 0.4457 0.2142 0.6916 0.1874l3.755-0.3748-2.01 5.6422c-0.1401 0.3742-0.2293 0.7655-0.265 1.1634-0.0295 0.311 0.0012 0.6248 0.0905 0.9242 0.0686 0.2401 0.2138 0.4512 0.4136 0.6011 0.2079 0.1372 0.4566 0.1988 0.7045 0.1745 0.3139-0.0389 0.6159-0.1447 0.8854-0.3103 0.3207-0.1978 0.614-0.4369 0.8726-0.7109 0.2914-0.311 0.5532-0.6486 0.782-1.0082 0.2362-0.3788 0.4312-0.7818 0.5817-1.2022l2.0229-5.6875 3.8779-0.3878v-0.0258z" fill="url(#j)"/>
<path d="m45.888 58.491c0.2418-0.0491 0.4932-0.0061 0.7049 0.1207 0.2116 0.1268 0.3683 0.328 0.4391 0.5644 0.098 0.2998 0.1289 0.6175 0.0905 0.9306-0.0292 0.3914-0.1141 0.7766-0.2521 1.144l-1.9906 5.61-4.0911 0.4589 1.9906-5.5712c0.1461-0.4117 0.3368-0.8061 0.5688-1.1763 0.2249-0.3566 0.4847-0.69 0.7755-0.9953 0.2559-0.2917 0.5493-0.5481 0.8725-0.7627 0.2716-0.1686 0.5754-0.2787 0.8919-0.3231z" fill="#fff"/>
<path d="m56.875 71.268c-0.088-0.1622-0.2173-0.2982-0.3748-0.3943l-1.2345-0.7691c-0.8125 2.0322-1.785 3.9967-2.9084 5.875l1.2926 0.7949c0.3183-0.0376 0.6247-0.1434 0.8984-0.3102 0.3315-0.1961 0.6338-0.4376 0.8984-0.7174 0.2982-0.3053 0.5605-0.6435 0.782-1.0082 0.24-0.3745 0.4352-0.7758 0.5817-1.1957 0.1029-0.2914 0.1765-0.5924 0.2197-0.8984 0.0322-0.2553 0.0322-0.5137 0-0.7691-0.0169-0.2098-0.0694-0.4152-0.1551-0.6075zm-7.1094-4.4596v-0.0452 0.0452zm-0.0387-0.0517-0.0388-0.0452 0.0388 0.0452zm-0.0841-0.0904h0.0388-0.0388zm0 0-0.0452-0.0388 0.0452 0.0388zm-0.0581-0.0453h-0.0388 0.0388zm-0.0905-0.0711h0.0452-0.0452zm0.349 2.5336v-0.0388 0.0388zm0.0323-2.0036c0.0024 0.0193 0.0024 0.0388 0 0.0582v-0.0582zm0 0c-0.0035-0.0171-0.0035-0.0347 0-0.0517 0.0093 0.0103 0.0202 0.019 0.0323 0.0258l-0.0323 0.0259zm0-0.0582v-0.0581 0.0581zm0-0.0711-0.0323-0.0452 0.0323 0.0452zm-0.0388-0.0581c2e-3 -0.0172 2e-3 -0.0346 0-0.0517-0.0099 0.0095-0.0208 0.0182-0.0323 0.0258l0.0323 0.0259z" fill="#fff"/>
<path d="m48.758 66.395c0.2498-0.0438 0.507 0.0057 0.7227 0.1392s0.3748 0.3415 0.4471 0.5847c0.1019 0.2968 0.1415 0.6114 0.1163 0.9242-0.0339 0.3997-0.1209 0.7931-0.2585 1.1698-0.1505 0.4203-0.3455 0.8233-0.5817 1.2021-0.2256 0.3693-0.4923 0.7119-0.795 1.0212-0.2645 0.2799-0.5669 0.5213-0.8983 0.7174-0.2717 0.1732-0.5786 0.2836-0.8984 0.3232l-3.8778 0.3878-4.0912 0.4071-3.7421 0.4072c-0.2418 0.0361-0.4884-0.0192-0.6915-0.1551-0.1932-0.1425-0.334-0.3447-0.4008-0.5752-0.0873-0.2909-0.1159-0.5963-0.084-0.8984 0.0343-0.387 0.1213-0.7676 0.2586-1.131 0.1487-0.4106 0.3393-0.8047 0.5687-1.1763 0.2229-0.3524 0.4805-0.6815 0.7691-0.9824 0.2545-0.2857 0.5483-0.5338 0.8725-0.7368 0.2593-0.1696 0.5528-0.2799 0.8596-0.3231l3.7615-0.4137 4.0912-0.4589 3.852-0.433z" fill="#fff"/>
<path d="m43.956 71.921 3.7809-0.3813-6.9478-4.2527-3.7615 0.4136 6.9284 4.2204z" fill="#fff"/>
<path d="m36.633 78.914 2.01-5.6423 4.0911-0.4072-2.0164 5.6876c-0.1505 0.4203-0.3455 0.8233-0.5817 1.2021-0.2295 0.3689-0.4935 0.7151-0.7885 1.0341-0.263 0.2726-0.5607 0.5095-0.8855 0.7045-0.2695 0.1655-0.5714 0.2713-0.8854 0.3102-0.2479 0.0243-0.4966-0.0373-0.7045-0.1745-0.1998-0.1499-0.345-0.361-0.4136-0.6011-0.0893-0.2994-0.12-0.6132-0.0905-0.9242 0.0334-0.4067 0.1226-0.8068 0.265-1.1892z" fill="#fff"/>
<path d="m53.902 51.058 6.8961 4.4078c0.9899 0.6494 1.7992 1.5388 2.3526 2.5853 0.6425 1.2243 1.0543 2.5563 1.215 3.9295 0.2015 1.6799 0.1841 3.3788-0.0517 5.0542-0.2804 2.0203-0.7611 4.0078-1.4348 5.9331-0.9931 2.8507-2.3048 5.5803-3.9101 8.137-1.5215 2.4521-3.3074 4.73-5.3256 6.7927-1.7836 1.8468-3.8152 3.4369-6.0365 4.7245-1.817 1.0876-3.8563 1.7504-5.9654 1.9389-0.3852 0.026-0.7717 0.026-1.1569 0-0.3608-0.0272-0.7192-0.079-1.0729-0.1551-0.3362-0.0758-0.6666-0.1752-0.9889-0.2973-0.3112-0.1234-0.6135-0.2681-0.9048-0.433l-7.0706-4.117c0.2814 0.1692 0.5778 0.312 0.8855 0.4265 0.3185 0.125 0.6471 0.2223 0.9823 0.2909 0.7282 0.1544 1.4749 0.2023 2.2169 0.1422 2.1039-0.206 4.1343-0.8842 5.9395-1.9842 2.2225-1.3146 4.2555-2.9258 6.043-4.7891 2.0337-2.0953 3.8365-4.4029 5.3773-6.8832 1.6214-2.5726 2.9482-5.3195 3.9554-8.1887 0.6892-1.9325 1.185-3.9286 1.4801-5.959 0.2388-1.688 0.2583-3.3999 0.0581-5.0929-0.1454-1.3525-0.5375-2.6668-1.1569-3.8778-0.5388-1.0486-1.3405-1.9394-2.3267-2.5853z" fill="#fff"/>
</g>
<defs>
<linearGradient id="n" x1="130.08" x2="100.17" y1="136.62" y2="14.742" gradientUnits="userSpaceOnUse">
<stop stop-color="#D34255" offset="0"/>
<stop stop-color="#CC415B" offset=".05"/>
<stop stop-color="#B53B70" offset=".25"/>
<stop stop-color="#A4387E" offset=".46"/>
<stop stop-color="#9A3687" offset=".7"/>
<stop stop-color="#97358A" offset="1"/>
</linearGradient>
<linearGradient id="i" x1="8.9773" x2="216.29" y1="55.014" y2="134.65" gradientUnits="userSpaceOnUse">
<stop stop-color="#EBEAF7" offset="0"/>
<stop stop-color="#D9CDFE" offset="1"/>
</linearGradient>
<linearGradient id="h" x1="104.44" x2="153.58" y1="-38.468" y2=".42667" gradientUnits="userSpaceOnUse">
<stop stop-color="#4C58CB" offset="0"/>
<stop stop-color="#68319E" offset="1"/>
</linearGradient>
<linearGradient id="g" x1="4939.7" x2="6477.9" y1="-1184" y2="626.1" gradientUnits="userSpaceOnUse">
<stop stop-color="#4C58CB" offset="0"/>
<stop stop-color="#68319E" offset="1"/>
</linearGradient>
<linearGradient id="f" x1="101.95" x2="152.74" y1="1.0212" y2="136.3" gradientUnits="userSpaceOnUse">
<stop stop-color="#D34255" offset="0"/>
<stop stop-color="#97358A" offset="1"/>
</linearGradient>
<linearGradient id="e" x1="368.24" x2="730.2" y1="472.41" y2="524.99" gradientUnits="userSpaceOnUse">
<stop stop-color="#4C58CB" offset="0"/>
<stop stop-color="#68319E" offset="1"/>
</linearGradient>
<linearGradient id="d" x1="12895" x2="28200" y1="1892.5" y2="29064" gradientUnits="userSpaceOnUse">
<stop stop-color="#D34255" offset="0"/>
<stop stop-color="#97358A" offset="1"/>
</linearGradient>
<linearGradient id="c" x1="833.41" x2="2665.3" y1="1940.7" y2="2655.6" gradientUnits="userSpaceOnUse">
<stop stop-color="#4C58CB" offset="0"/>
<stop stop-color="#68319E" offset="1"/>
</linearGradient>
<linearGradient id="b" x1="3289.7" x2="6491.8" y1="1503" y2="4702.5" gradientUnits="userSpaceOnUse">
<stop stop-color="#4C58CB" offset="0"/>
<stop stop-color="#68319E" offset="1"/>
</linearGradient>
<linearGradient id="a" x1="3381.9" x2="6168.9" y1="2014.3" y2="5968.3" gradientUnits="userSpaceOnUse">
<stop stop-color="#4C58CB" offset="0"/>
<stop stop-color="#68319E" offset="1"/>
</linearGradient>
<linearGradient id="m" x1="4733.2" x2="10650" y1="5587.2" y2="13841" gradientUnits="userSpaceOnUse">
<stop stop-color="#4C58CB" offset="0"/>
<stop stop-color="#68319E" offset="1"/>
</linearGradient>
<linearGradient id="l" x1="7117.5" x2="16193" y1="3935.5" y2="10490" gradientUnits="userSpaceOnUse">
<stop stop-color="#4C58CB" offset="0"/>
<stop stop-color="#68319E" offset="1"/>
</linearGradient>
<linearGradient id="k" x1="5980" x2="17119" y1="8610.1" y2="17030" gradientUnits="userSpaceOnUse">
<stop stop-color="#4C58CB" offset="0"/>
<stop stop-color="#68319E" offset="1"/>
</linearGradient>
<linearGradient id="j" x1="1344.1" x2="4144.5" y1="3724.8" y2="5421.3" gradientUnits="userSpaceOnUse">
<stop stop-color="#4C58CB" offset="0"/>
<stop stop-color="#68319E" offset="1"/>
</linearGradient>
<clipPath id="o">
<rect width="226.22" height="160" fill="#fff"/>
</clipPath>
</defs>
</svg>
