<?xml version="1.0" encoding="UTF-8"?>
<svg fill="none" viewBox="0 0 177 160" xmlns="http://www.w3.org/2000/svg">
<g clip-path="url(#l)">
<path d="m160.87 160h-139.34v-30.3h139.34c4.025 0 7.885 1.599 10.731 4.445s4.445 6.706 4.445 10.731c-0.014 4.016-1.619 7.863-4.464 10.698-2.844 2.834-6.696 4.426-10.712 4.426z" fill="url(#k)"/>
<path d="m132.24 134.56c-0.774-15.435-1.551-30.864-2.33-46.289-0.068-1.3566-0.324-2.6971-0.758-3.9839-0.373-1.152-0.921-2.2398-1.624-3.2251-0.612-0.872-1.385-1.619-2.277-2.2006-0.805-0.5256-1.734-0.8317-2.694-0.8878-2.891-0.1366-5.797-0.2808-8.696-0.4325-0.359-12.582-0.718-25.168-1.077-37.76 0-1.0244-0.092-2.0412-0.183-3.0353s-0.212-1.9957-0.364-2.9671c-0.152-0.9713-0.326-1.935-0.531-2.8759-0.205-0.941-0.433-1.8516-0.683-2.747-0.379-1.3406-0.809-2.6281-1.29-3.8625-0.461-1.1906-0.986-2.3558-1.571-3.4906-0.54-1.0486-1.146-2.0624-1.813-3.0353-0.611-0.9072-1.285-1.7694-2.019-2.5801-0.574-0.6405-1.195-1.2366-1.859-1.7832-0.615-0.5146-1.275-0.9718-1.973-1.3659-0.6524-0.3732-1.3416-0.6784-2.0564-0.9106-0.6903-0.22-1.403-0.3626-2.1248-0.425-1.2293-0.0986-2.4662-0.1897-3.7031-0.2732h0.1063c-1.0939-0.0829-2.1938 0.0302-3.2478 0.3339-0.5529 0.1552-1.0912 0.3583-1.6088 0.6071-0.5272 0.2579-1.0344 0.5547-1.5176 0.8878-0.5283 0.3487-1.0351 0.7288-1.5177 1.1383-0.7499 0.6582-1.4476 1.3737-2.0868 2.1399-0.6876 0.8233-1.3213 1.6901-1.8971 2.5952-0.613 0.9667-1.1753 1.9646-1.6846 2.9898-0.5059 1.0624-0.9915 2.1779-1.4569 3.3465-0.4655 1.1686-0.8575 2.3701-1.1762 3.6044-0.3542 1.2597-0.6653 2.5573-0.9334 3.8928-0.258 1.328-0.4705 2.7015-0.6222 4.0901-0.1518 1.3887-0.2505 2.8077-0.2808 4.2495-0.3288 13.209-0.6501 26.418-0.9637 39.626-0.0209 0.696 0.0453 1.392 0.1973 2.0716 0.1324 0.6031 0.3469 1.1852 0.6374 1.7301 0.245 0.4684 0.5803 0.8836 0.9865 1.2218 0.3499 0.298 0.7803 0.4855 1.2369 0.5387 0.101 0.0076 0.2025 0.0076 0.3035 0l4.0522-0.1897c0.4232-0.0277 0.8293-0.178 1.1686-0.4325 0.3923-0.2887 0.7204-0.6556 0.9637-1.0776 0.2912-0.497 0.5085-1.0338 0.645-1.5935 0.1667-0.6394 0.2534-1.297 0.258-1.9578 0.1366-13.421 0.2782-26.845 0.4249-40.271 0-0.6146 1e-4 -1.2141 0.0683-1.8136 0.0683-0.5995 0.0987-1.1762 0.1746-1.7529s0.1593-1.1458 0.2656-1.6998c0.1062-0.5539 0.22-1.1003 0.3566-1.6391 0.1926-0.7697 0.4231-1.5294 0.6906-2.2765 0.258-0.7588 0.5463-1.4645 0.8574-2.1399 0.3016-0.6675 0.6385-1.3185 1.0093-1.9502 0.345-0.5785 0.7278-1.1337 1.1458-1.6618 0.3923-0.4895 0.821-0.9486 1.2825-1.3735 0.42-0.3928 0.8775-0.7435 1.3659-1.0472 0.4762-0.2923 0.9857-0.5267 1.5176-0.6981 0.1214-0.038 0.2428-0.0607 0.3643-0.0911 0.1967 0.0699 0.3892 0.1509 0.5767 0.2428 0.3358 0.1655 0.6603 0.3531 0.9713 0.5616 0.4921 0.3447 0.9541 0.7306 1.3811 1.1534 0.4602 0.4731 0.8838 0.9804 1.2672 1.5177 0.4211 0.5736 0.8039 1.1744 1.1458 1.7984 0.369 0.6745 0.7009 1.3686 0.994 2.0792 0.31 0.7441 0.581 1.504 0.812 2.2765 0.25 0.8287 0.458 1.6695 0.622 2.5193 0.175 0.8651 0.311 1.7681 0.41 2.6863s0.152 1.8743 0.167 2.838l0.501 37.418 0.068 5.107c0.011 0.7486 0.116 1.493 0.311 2.2158 0.18 0.6517 0.451 1.275 0.805 1.8515 0.304 0.5046 0.703 0.9453 1.176 1.2976 0.417 0.3125 0.914 0.5018 1.434 0.5464 0.121 0.0076 0.243 0.0076 0.364 0l2.778-0.2049v0.1745c0.364 16.451 0.731 32.893 1.1 49.324 0.035 1.444-0.126 2.886-0.478 4.287-0.321 1.255-0.833 2.453-1.518 3.552-0.589 0.966-1.362 1.807-2.276 2.474-0.843 0.604-1.829 0.979-2.861 1.085 7.325-0.668 14.628-1.607 21.907-2.816 1.037-0.18 2.013-0.609 2.846-1.252 0.913-0.686 1.686-1.541 2.277-2.519 0.651-1.073 1.132-2.24 1.426-3.46 0.302-1.318 0.415-2.672 0.334-4.022zm-23.471-98.079c-0.083-1.0168-0.205-2.0185-0.349-3.0353 0.144 1.0168 0.266 2.0185 0.349 3.0353zm-4.348-16.064c0.564 1.1425 1.071 2.3126 1.518 3.5058 0.47 1.2344 0.893 2.5294 1.267 3.8852-0.369-1.3507-0.792-2.6458-1.267-3.8852-0.447-1.1932-0.954-2.3633-1.518-3.5058-0.54-1.0457-1.141-2.0592-1.798-3.0353 0.657 0.9761 1.258 1.9896 1.798 3.0353zm-9.6522-9.6372h0.0911c-0.3785-0.1208-0.7636-0.2196-1.1535-0.2959 0.3592 0.0797 0.7138 0.1785 1.0624 0.2959zm1.2217 0.4705c-0.258-0.1138-0.516-0.2125-0.7588-0.3111 0.2428 0.0986 0.5008 0.1973 0.7588 0.3111zm-13.644 19.472c0.2527-0.7332 0.544-1.4526 0.8727-2.155 0.2998-0.6635 0.6367-1.3095 1.0092-1.9351-0.3776 0.6252-0.7196 1.2713-1.0244 1.9351-0.3287 0.7024-0.62 1.4218-0.8727 2.155-0.2722 0.7668-0.5052 1.5468-0.6981 2.3373 0.1979-0.7907 0.436-1.5708 0.7133-2.3373zm-4.9476 54.72h-0.1745 0.1745zm0.3036-0.091-0.167 0.0531 0.167-0.0531zm0.1365-0.0608 0.1594-0.0834-0.1594 0.0834zm0.2884-0.1669 0.129-0.0835-0.129 0.0835zm0.5691-0.4932 0.0683-0.0759-0.0683 0.0759zm0.4402-0.5768c0.0834-0.129 0.1517-0.2807 0.2276-0.4249-0.0546 0.1219-0.1154 0.241-0.1821 0.3566l-0.0455 0.0683zm0.387-0.7588c0.071-0.1682 0.1318-0.3405 0.1821-0.516-0.05 0.1781-0.1109 0.3529-0.1821 0.5236v-0.0076zm0.3035-0.8651c0.0531-0.2048 0.091-0.4249 0.1366-0.6526 0 0.2049-0.0683 0.4174-0.1214 0.6071-0.0097 0.0161-0.0149 0.0344-0.0152 0.0531v-0.0076zm0.1973-0.9637c0.0487-0.3495 0.0741-0.7019 0.0759-1.0548-0.0015 0.3555-0.0268 0.7104-0.0759 1.0624v-0.0076zm9.5613-59.705c-0.5317 0.1785-1.041 0.4178-1.5177 0.7133-0.4862 0.3068-0.9434 0.6573-1.3659 1.0472 0.4287-0.3989 0.8936-0.7571 1.3887-1.0699 0.4767-0.2955 0.9859-0.5349 1.5176-0.7133 0.51-0.1761 1.0405-0.2858 1.5784-0.3263-0.547 0.0484-1.0853 0.1683-1.6011 0.3566v-0.0076zm6.8295-10.312c0.1366 0.0683 0.2808 0.129 0.4173 0.2049l0.2808 0.1745c-0.2428-0.129-0.4781-0.2504-0.7436-0.3718l0.0455-0.0076zm1.1231 0.645c0.2276 0.1442 0.4477 0.3035 0.6677 0.4705-0.2352-0.1594-0.4553-0.3187-0.6829-0.425l0.0152-0.0455zm1.0699 0.7588c0.0607 0.0531 0.1214 0.0911 0.1821 0.1366 0.1746 0.1442 0.3491 0.3111 0.5236 0.4629-0.2504-0.1897-0.4856-0.3946-0.7209-0.5539l0.0152-0.0456zm1.0396 0.8954c0.3339 0.3188 0.6679 0.6602 0.9939 1.0169-0.341-0.3491-0.6752-0.683-1.0091-1.0017l0.0152-0.0152zm7.4369 74.138h-0.228 0.228zm0.341-0.1139c-0.068 0-0.136 0.0456-0.205 0.0683 0.053-0.0076 0.122-0.0227 0.19-0.0531l0.015-0.0152zm0.137-0.0607 0.189-0.0986-0.189 0.0986zm0.326-0.1821 0.152-0.1062-0.152 0.1062zm0.645-0.5464 0.068-0.0834-0.068 0.0834zm0.455-0.6146c0.09-0.1442 0.171-0.2937 0.243-0.4477-0.061 0.1214-0.114 0.2504-0.182 0.3642-0.022 0.0355-0.047 0.0686-0.076 0.0987l0.015-0.0152z" fill="url(#i)"/>
<path d="m101.86 76.938c1.001-0.0733 1.999 0.1624 2.861 0.6753 0.953 0.5763 1.769 1.3531 2.391 2.2765 0.746 1.0896 1.315 2.2909 1.684 3.559 0.429 1.4497 0.661 2.9504 0.691 4.4619 0.364 16.451 0.731 32.893 1.1 49.324 0.04 1.518-0.142 3.034-0.539 4.5-0.345 1.308-0.907 2.55-1.662 3.673-0.656 0.983-1.518 1.811-2.527 2.428-0.931 0.564-2.007 0.846-3.096 0.812-14.908-0.531-29.756-2.169-44.422-4.902-0.9305-0.192-1.7927-0.629-2.4965-1.267-0.8004-0.71-1.4662-1.559-1.9654-2.505-0.5621-1.08-0.9683-2.235-1.2066-3.43-0.2679-1.299-0.3699-2.628-0.3035-3.953 0.7133-14.119 1.4241-28.239 2.1323-42.358 0.0609-1.3171 0.2827-2.6218 0.6602-3.8852 0.3322-1.1329 0.8118-2.2172 1.4266-3.225 0.5232-0.8748 1.2022-1.6464 2.0033-2.2765 0.6855-0.5395 1.5137-0.8665 2.3828-0.941 13.651-0.8499 27.31-1.8895 40.886-2.967z" fill="url(#h)"/>
<path d="m81.855 95.105c0.6835-0.0283 1.3591 0.1545 1.9351 0.5236 0.6449 0.4134 1.1893 0.9656 1.5935 1.6163 0.4859 0.7634 0.8495 1.5981 1.0776 2.4738 0.2628 1.0077 0.3903 2.0467 0.3794 3.0887-9e-4 0.764-0.0772 1.527-0.2277 2.276-0.135 0.692-0.341 1.369-0.6146 2.019-0.2463 0.588-0.5595 1.145-0.9334 1.662-0.3338 0.46-0.7355 0.866-1.1914 1.206l-0.1821 17.294c-0.0047 0.447-0.0711 0.891-0.1973 1.32-0.1031 0.376-0.2728 0.731-0.5008 1.047-0.1964 0.282-0.4564 0.513-0.7588 0.676-0.2675 0.151-0.5744 0.217-0.8803 0.19-0.3175-0.029-0.6203-0.147-0.8726-0.342-0.2773-0.208-0.5139-0.465-0.6982-0.759-0.2046-0.348-0.3579-0.723-0.4553-1.115-0.1117-0.434-0.1653-0.88-0.1593-1.328l0.2732-16.99c-0.4276-0.342-0.8011-0.746-1.1079-1.199-0.3445-0.505-0.6297-1.047-0.8499-1.617-0.2386-0.628-0.414-1.279-0.5236-1.942-0.1233-0.722-0.1767-1.454-0.1594-2.186 0.0179-1.011 0.1658-2.016 0.4401-2.99 0.2386-0.8717 0.6015-1.7048 1.0776-2.4734 0.4104-0.6682 0.9464-1.2506 1.5784-1.715 0.5661-0.4322 1.247-0.6882 1.9577-0.736z" fill="url(#g)"/>
<path d="m23.608 128.15 1.8288 8.438c-1.3368 0.128-2.6411 0.488-3.8549 1.062-0.905 0.355-1.6551 1.019-2.1171 1.875l-1.8212-8.454c0.4531-0.847 1.1927-1.506 2.0868-1.859 1.2205-0.578 2.5329-0.937 3.8776-1.062z" fill="#D9CDFE"/>
<path d="m48.664 125.82 1.8212 8.453-25.049 2.345-1.8288-8.461 25.057-2.337z" fill="#D9CDFE"/>
<path d="m53.824 134.65c-1.064-0.402-2.2116-0.533-3.3388-0.379l-1.8212-8.453c1.1271-0.154 2.2748-0.024 3.3388 0.379l1.8212 8.453z" fill="#D9CDFE"/>
<path d="m54.742 135.63c-0.0677-0.222-0.1858-0.426-0.345-0.596s-0.3553-0.301-0.5732-0.383l-1.8212-8.453c0.2157 0.082 0.4097 0.212 0.5675 0.38 0.1578 0.169 0.2752 0.371 0.3431 0.591 0.5464 2.542 1.2825 5.919 1.8288 8.461z" fill="#D9CDFE"/>
<path d="m52.914 127.16 1.8288 8.461c0.0383 0.209 0.0199 0.424-0.0532 0.622l-1.8287-8.453c0.0807-0.2 0.0992-0.419 0.0531-0.63z" fill="#fff"/>
<path d="m41.804 131.21 1.8212 8.453-14.888 1.389-1.8288-8.453 14.896-1.389z" fill="#fff"/>
<path d="m26.908 132.6 1.8288 8.453-2.6104 7.201-1.8287-8.453 2.6103-7.201z" fill="#fff"/>
<path d="m17.643 131.09 1.8212 8.454-4.3937 12.126-1.8212-8.453 4.3937-12.127z" fill="#D9CDFE"/>
<path d="m15.017 152.3-1.8212-8.461c-0.046-0.208-0.0275-0.425 0.0531-0.622l1.8212 8.453c-0.073 0.202-0.0913 0.419-0.0531 0.63z" fill="#D9CDFE"/>
<path d="m39.194 138.41 1.8212 8.454-14.888 1.388-1.8287-8.453 14.896-1.389z" fill="#D9CDFE"/>
<path d="m41.804 131.21 1.8212 8.453-2.6104 7.202-1.8212-8.454 2.6104-7.201z" fill="#D9CDFE"/>
<path d="m15.018 152.3-1.8212-8.461c0.0648 0.222 0.181 0.426 0.3392 0.594 0.1582 0.169 0.354 0.298 0.5714 0.377 1.0597 0.409 2.206 0.542 3.3313 0.387l1.8212 8.454c-1.121 0.158-2.2638 0.033-3.3237-0.365-0.2187-0.082-0.4154-0.214-0.5746-0.385-0.1593-0.172-0.2769-0.377-0.3436-0.601z" fill="#fff"/>
<path d="m52.86 127.8 1.8288 8.454-4.3937 12.126-1.8212-8.454 4.3861-12.126z" fill="#fff"/>
<path d="m42.495 142.85 1.8212 8.461-25.057 2.338-1.8212-8.454 25.057-2.345z" fill="#fff"/>
<path d="m48.474 139.92 1.8212 8.454c-0.462 0.855-1.2121 1.519-2.1171 1.874-1.2168 0.574-2.5235 0.933-3.8625 1.062l-1.8212-8.453c1.3368-0.128 2.6412-0.488 3.8549-1.062 0.9082-0.353 1.6614-1.018 2.1247-1.875z" fill="#fff"/>
<path d="m38.761 119.75c17.977-1.677 29.997 4.007 26.848 12.711-3.1492 8.704-20.276 17.112-38.291 18.796-18.015 1.685-29.966-4.044-26.817-12.71 3.1492-8.666 20.276-17.135 38.26-18.797zm9.7131 20.17 4.3861-12.141c0.2352-0.645-0.0759-1.229-0.8575-1.601-1.064-0.403-2.2117-0.533-3.3389-0.38l-25.042 2.338c-1.3343 0.128-2.6362 0.487-3.8473 1.062-0.9078 0.35-1.6593 1.016-2.1171 1.874l-4.3937 12.142c-0.2352 0.645 0.0759 1.229 0.8575 1.593 1.0598 0.409 2.206 0.542 3.3313 0.387l25.042-2.337c1.3368-0.128 2.6411-0.488 3.8549-1.062 0.9082-0.353 1.6613-1.018 2.1247-1.875" fill="url(#f)"/>
<path d="m52.003 126.19c0.7589 0.372 1.0928 0.956 0.8575 1.601l-4.386 12.141c-0.4634 0.858-1.2165 1.522-2.1248 1.875-1.2137 0.574-2.5181 0.934-3.8549 1.062l-25.041 2.337c-1.1253 0.155-2.2716 0.022-3.3313-0.387-0.7589-0.364-1.0927-0.948-0.8575-1.593l4.3936-12.142c0.4466-0.85 1.1808-1.514 2.0717-1.874 1.2111-0.574 2.5129-0.934 3.8472-1.062l25.042-2.337c1.1421-0.162 2.3064-0.031 3.3844 0.379zm-12.809 12.217 2.6104-7.201-14.896 1.389-2.6255 7.201 14.896-1.389" fill="#fff"/>
<path d="m24.298 139.8 2.6103-7.201 14.896-1.389-2.6104 7.201-14.896 1.389z" fill="url(#e)"/>
<path d="m65.965 128.4 1.8212 8.453c0.2717 1.362 0.148 2.773-0.3566 4.067-3.1492 8.697-20.276 17.112-38.253 18.797-14.994 1.396-25.846-2.322-27.204-8.643l-1.8288-8.454c1.3735 6.321 12.21 10.04 27.174 8.643 17.984-1.684 35.111-10.1 38.26-18.796 0.5148-1.291 0.6491-2.702 0.387-4.067z" fill="#fff"/>
<path d="m146.26 88.457-4.515 0.2884-1.199-19.115 4.523-0.2883 1.191 19.115z" fill="#D9CDFE"/>
<path d="m140.54 69.63c-0.044-0.9861-0.412-1.9302-1.047-2.6863l4.553-0.2883c0.631 0.7583 0.998 1.701 1.047 2.6863l-4.553 0.2883z" fill="#D9CDFE"/>
<path d="m139.5 66.944c-0.258-0.3198-0.586-0.5767-0.958-0.7515-0.372-0.1749-0.778-0.263-1.189-0.2578l4.553-0.2883c0.417-0.0111 0.831 0.0743 1.21 0.2493s0.713 0.4351 0.975 0.7599l-4.591 0.2884z" fill="#D9CDFE"/>
<path d="m143.51 92.517-4.553 0.2884c0.414-0.0386 0.814-0.1724 1.168-0.3909s0.653-0.5158 0.873-0.8688c0.529-0.8336 0.776-1.8152 0.706-2.8001l4.552-0.2883c0.079 0.9855-0.169 1.9696-0.705 2.8001-0.219 0.3541-0.518 0.6524-0.872 0.871-0.354 0.2187-0.755 0.3517-1.169 0.3886z" fill="#D9CDFE"/>
<path d="m140.04 84.944-4.523 0.2959-0.713-11.367 4.522-0.2884 0.714 11.36z" fill="#fff"/>
<path d="m139.33 73.584-4.522 0.2884-8.757 0.5388 4.522-0.2884 8.757-0.5388z" fill="#fff"/>
<path d="m140.04 84.944-4.523 0.2959-8.765 0.5312 4.523-0.2884 8.765-0.5387z" fill="#D9CDFE"/>
<path d="m131.28 85.482-0.706-11.36 8.757-0.5388 0.714 11.36-8.765 0.5387z" fill="url(#d)"/>
<path d="m131.28 85.482-4.522 0.2884-0.706-11.36 4.522-0.2884 0.706 11.36z" fill="#D9CDFE"/>
<path d="m141.83 65.647-4.515 0.2883-14.744 0.903 4.523-0.2883 14.736-0.903z" fill="#D9CDFE"/>
<path d="m143.51 92.517-4.515 0.2884-14.744 0.9106 4.523-0.2959 14.736-0.9031z" fill="#fff"/>
<path d="m124.34 70.609-4.553 0.2884c-0.077-0.983 0.171-1.9639 0.706-2.7925 0.221-0.3529 0.52-0.6505 0.874-0.8701 0.353-0.2197 0.753-0.3555 1.167-0.3972l4.553-0.2883c-0.416 0.0394-0.817 0.1743-1.173 0.3941-0.355 0.2197-0.655 0.5185-0.876 0.8731-0.525 0.8324-0.77 1.811-0.698 2.7925z" fill="#fff"/>
<path d="m125.54 89.732-4.522 0.2884-1.192-19.123 4.515-0.2884 1.199 19.123z" fill="#fff"/>
<path d="m128.77 93.42-4.553 0.2883c-0.416 0.0128-0.83-0.0701-1.209-0.2425-0.379-0.1723-0.713-0.4295-0.977-0.7515-0.629-0.7621-0.996-1.7067-1.047-2.6939l4.553-0.2884c0.046 0.986 0.414 1.9297 1.047 2.6863 0.262 0.3252 0.596 0.5851 0.975 0.759 0.379 0.1738 0.794 0.2569 1.211 0.2427z" fill="#fff"/>
<path d="m144.02 66.656c0.63 0.7583 0.998 1.701 1.047 2.6863l1.191 19.115c0.079 0.9855-0.169 1.9696-0.706 2.8001-0.219 0.3541-0.517 0.6524-0.871 0.8711-0.355 0.2186-0.755 0.3517-1.17 0.3885l-14.736 0.903c-0.417 0.0143-0.832-0.0688-1.211-0.2427-0.38-0.1738-0.713-0.4337-0.975-0.7589-0.634-0.7566-1.001-1.7004-1.047-2.6863l-1.199-19.123c-0.069-0.9823 0.178-1.961 0.706-2.7925 0.221-0.3546 0.521-0.6534 0.876-0.8731 0.355-0.2198 0.757-0.3547 1.173-0.3941l14.736-0.903c0.417-0.0111 0.832 0.0743 1.211 0.2493s0.712 0.4351 0.975 0.7599zm-3.977 18.288-0.713-11.382-8.757 0.5388 0.706 11.382 8.764-0.5388" fill="#fff"/>
<path d="m136.86 104.38-4.553 0.289c-10.57 0.652-19.843-9.9485-20.701-23.668-0.857-13.72 7.027-25.36 17.598-26.013l4.553-0.2883c-10.571 0.645-18.455 12.293-17.598 26.013 0.858 13.72 10.123 24.32 20.701 23.668z" fill="#fff"/>
<path d="m133.75 54.697c10.578-0.645 19.843 9.9483 20.701 23.668 0.857 13.72-7.019 25.367-17.597 26.012-10.579 0.646-19.852-9.9478-20.701-23.668-0.85-13.72 7.026-25.368 17.597-26.013zm12.505 33.76-1.191-19.115c-0.049-0.9853-0.416-1.928-1.047-2.6863-0.262-0.3248-0.596-0.5849-0.975-0.7599s-0.793-0.2604-1.211-0.2493l-14.736 0.903c-0.416 0.0394-0.817 0.1743-1.173 0.3941-0.355 0.2198-0.655 0.5185-0.876 0.8731-0.528 0.8315-0.775 1.8102-0.706 2.7925l1.199 19.123c0.046 0.9859 0.414 1.9297 1.048 2.6863 0.261 0.3252 0.595 0.5851 0.974 0.7589 0.379 0.1739 0.794 0.257 1.211 0.2427l14.737-0.903c0.414-0.0368 0.815-0.1699 1.169-0.3885 0.354-0.2187 0.653-0.517 0.872-0.8711 0.536-0.8305 0.784-1.8146 0.705-2.8001" fill="url(#c)"/>
<path d="m64.023 40.977-2.489-0.6071c0.1973-1.0927 1.0244-1.8895 1.8515-1.7832l2.489 0.607c-0.8271-0.091-1.6618 0.7134-1.8515 1.7833z" fill="#D9CDFE"/>
<path d="m64.023 40.977c-0.1897 1.0396 0.258 1.9654 1.0092 2.1475l-2.489-0.6071c-0.4056-0.1677-0.734-0.4809-0.9207-0.8781-0.1867-0.3973-0.2183-0.85-0.0885-1.2694l2.489 0.6071z" fill="#D9CDFE"/>
<path d="m65.032 43.14-2.4889-0.6071h0.129l2.4889 0.6147-0.129-0.0076z" fill="#fff"/>
<path d="m66.178 38.958 2.4889 0.6146-2.7925-0.3642-2.4889-0.6071 2.7925 0.3567z" fill="#D9CDFE"/>
<path d="m66.846 35.263 2.489 0.6071-0.6678 3.7031-2.489-0.6147 0.6678-3.6955z" fill="#D9CDFE"/>
<path d="m65.472 42.912 2.4814 0.6147-2.7925-0.3642-2.489-0.6071 2.8001 0.3566z" fill="#fff"/>
<path d="m65.472 42.912 2.4814 0.6147-0.6602 3.7031-2.489-0.6146 0.6678-3.7032z" fill="#D9CDFE"/>
<path d="m71.186 34.087c-0.8271-0.1062-1.6542 0.6905-1.8515 1.7833l-2.489-0.6071c0.1973-1.1003 1.0244-1.8971 1.8516-1.7909l2.4889 0.6147z" fill="#D9CDFE"/>
<path d="m71.33 34.148h-0.129l-2.489-0.6146h0.129l2.489 0.6146z" fill="#D9CDFE"/>
<path d="m68.295 49.377-2.4889-0.6147c-0.7589-0.1821-1.199-1.1079-1.0093-2.1475l2.489 0.6147c-0.1298 0.4193-0.0983 0.872 0.0885 1.2693 0.1867 0.3973 0.5151 0.7105 0.9207 0.8782z" fill="#D9CDFE"/>
<path d="m68.826 33.495 2.5041 0.6526c0.7589 0.1821 1.199 1.1079 1.0093 2.1475l-2.5269-0.6298c0.1377-0.4196 0.1127-0.8756-0.07-1.2775-0.1828-0.402-0.5099-0.7207-0.9165-0.8928z" fill="#fff"/>
<path d="m69.836 35.642 2.4889 0.6146-0.6677 3.7032-2.4814-0.6147 0.6602-3.7031z" fill="#fff"/>
<path d="m69.175 39.346 2.4814 0.6147-2.9898-0.387-2.489-0.6147 2.9974 0.387z" fill="#fff"/>
<path d="m68.462 43.299 2.489 0.6146-2.9974-0.387-2.4814-0.6147 2.9898 0.3871z" fill="#fff"/>
<path d="m68.462 43.299 2.489 0.6147-0.6678 3.7031-2.489-0.6147 0.6678-3.7031z" fill="#fff"/>
<path d="m68.295 49.377-2.4889-0.6146c0.0427 0.0072 0.0863 0.0072 0.129 0 0.8271 0.1062 1.6542-0.6906 1.8515-1.7833l2.489 0.6147c-0.1973 1.0927-1.0244 1.8894-1.8516 1.7832h-0.129z" fill="#fff"/>
<path d="m71.968 39.71 2.489 0.607-2.8001-0.3566-2.4814-0.6147 2.7925 0.3643z" fill="#D9CDFE"/>
<path d="m72.089 39.732 2.4889 0.6071h-0.129l-2.4889-0.6071c0.0427-0.0072 0.0863-0.0072 0.129 0z" fill="#D9CDFE"/>
<path d="m71.254 43.663 2.489 0.6146-2.7925-0.3642-2.489-0.6147 2.7925 0.3643z" fill="#fff"/>
<path d="m72.089 39.732 2.489 0.6071c0.4087 0.1664 0.7401 0.4802 0.9284 0.8793 0.1884 0.3992 0.2199 0.8545 0.0884 1.2758-0.1973 1.0927-1.0244 1.8971-1.8515 1.7908l-2.489-0.6146c0.8271 0.1062 1.6618-0.6906 1.8515-1.7909 0.1312-0.4202 0.0994-0.8744-0.089-1.2723s-0.5196-0.7103-0.9278-0.8752z" fill="#fff"/>
<path d="m70.571 28.077 2.4814 0.6147c5.0311 1.2369 8.036 7.4442 6.784 14.418-1.3128 7.3228-6.8295 12.672-12.399 11.959-0.2835-0.037-0.5648-0.0902-0.8423-0.1593l-2.4889-0.6147c0.2775 0.0691 0.5587 0.1223 0.8423 0.1594 5.5318 0.7133 11.086-4.6365 12.399-11.959 1.2369-7.0041-1.7681-13.219-6.7764-14.418z" fill="#fff"/>
<path d="m69.706 27.88c5.5319 0.7133 8.9466 7.2241 7.5883 14.539-1.3583 7.3151-6.8295 12.672-12.399 11.959-5.5699-0.7133-8.9467-7.2241-7.5884-14.539 1.3584-7.3152 6.8675-12.673 12.399-11.959zm1.5176 15.784c0.8272 0.1062 1.6619-0.6906 1.8516-1.7909s-0.3111-2.0564-1.1382-2.1626l-2.7926-0.3643 0.6678-3.6803c0.1973-1.0927-0.3111-2.0641-1.1382-2.1703-0.8272-0.1062-1.6543 0.6905-1.8516 1.7909l-0.6678 3.6955-2.7925-0.3567c-0.8271-0.1062-1.6542 0.6906-1.8515 1.7833s0.3111 2.064 1.1382 2.1702l2.8001 0.3567-0.6677 3.7031c-0.1973 1.0927 0.3111 2.064 1.1382 2.1703 0.8271 0.1062 1.6543-0.6906 1.8516-1.7833l0.6677-3.7031 2.7925 0.3642" fill="url(#b)"/>
<path d="m68.697 33.472c0.8271 0.1063 1.3356 1.0776 1.1383 2.1703l-0.6602 3.7031-3.0354-0.387 0.6678-3.6955c0.2353-1.1155 1.0624-1.8743 1.8895-1.7909z" fill="#fff"/>
<path d="m64.804 46.615 0.6678-3.7032 2.9898 0.3871-0.6678 3.7031c-0.1973 1.0927-1.0244 1.8895-1.8515 1.7832-0.8272-0.1062-1.3356-1.0775-1.1383-2.1702z" fill="#fff"/>
<path d="m71.968 39.71c0.8271 0.1062 1.3355 1.0775 1.1382 2.1627-0.1973 1.0851-1.0168 1.897-1.8515 1.7908l-2.7925-0.3642-2.9899-0.387-2.8-0.3567c-0.8272-0.1062-1.3356-1.0775-1.1383-2.1703 0.1973-1.0927 1.0244-1.8895 1.8516-1.7832l2.7925 0.3566 3.0353 0.387 2.7546 0.3643z" fill="#fff"/>
<path d="m125.34 21.08c-0.364-4.7048-4.91-9.6979-10.146-11.216l2.527-2.9822c5.206 1.4646 9.759 6.5108 10.146 11.216l-2.527 2.9822z" fill="#D9CDFE"/>
<path d="m125.34 22.241c0.03-0.3864 0.03-0.7746 0-1.161l0.296-0.3491 0.311-0.3642 0.326-0.387 0.326-0.3871 0.334-0.3945 0.327-0.3795 0.311-0.3718 0.296-0.3491c0.03 0.3865 0.03 0.7746 0 1.1611l-0.152 0.1669c-0.311 0.3794-0.63 0.7588-0.949 1.1231l-0.979 1.161-0.303 0.3566-0.144 0.1746z" fill="#D9CDFE"/>
<path d="m124.11 25.375c0.733-0.8878 1.166-1.9849 1.237-3.134l2.527-2.9822c-0.074 1.1498-0.509 2.2469-1.245 3.134l-2.519 2.9822z" fill="#D9CDFE"/>
<path d="m122.31 18.743-2.519 2.9822c0.457-0.5789 0.667-1.3155 0.584-2.0489-0.167-2.2385-2.337-4.6364-4.826-5.3118-1.571-0.4401-2.899-0.1138-3.628 0.7588l2.527-2.9822c0.759-0.8651 2.057-1.1913 3.62-0.7588 2.497 0.7057 4.659 3.1036 4.834 5.3118 0.081 0.7344-0.132 1.4711-0.592 2.0489z" fill="#fff"/>
<path d="m115.2 9.8648c-3.286-0.92578-6.07-0.24283-7.588 1.5632l2.519-2.9746c1.518-1.8136 4.318-2.4966 7.589-1.5708l-2.52 2.9822z" fill="#D9CDFE"/>
<path d="m111.34 17.119c-0.044-0.362-0.014-0.7291 0.086-1.0796 0.101-0.3505 0.27-0.6774 0.498-0.9617l2.527-2.9367c-0.228 0.283-0.398 0.6084-0.5 0.9575-0.101 0.3491-0.133 0.7149-0.092 1.0762l-2.519 2.9443z" fill="#D9CDFE"/>
<path d="m119.79 21.725c-0.759 0.8575-2.056 1.1838-3.62 0.7588l2.52-2.9822c1.571 0.4401 2.891 0.1138 3.619-0.7588l-2.519 2.9822z" fill="#D9CDFE"/>
<path d="m116.17 22.469c-2.497-0.7057-4.667-3.1036-4.834-5.3118l2.489-3.0201c0.174 2.2765 2.345 4.644 4.834 5.3497l-2.489 2.9822z" fill="#D9CDFE"/>
<path d="m118.07 11.382c2.496 0.7057 4.659 3.1036 4.834 5.3118 0.174 2.2082-1.715 3.4982-4.212 2.7925-2.496-0.7057-4.659-3.1036-4.834-5.3118-0.174-2.2082 1.723-3.5514 4.212-2.7925z" fill="url(#a)"/>
<path d="m126.63 22.393-2.527 2.9822c-1.518 1.806-4.31 2.489-7.588 1.5632-5.236-1.5177-9.782-6.5108-10.146-11.223-0.089-0.7609-0.025-1.532 0.187-2.2681 0.212-0.7362 0.569-1.4226 1.05-2.0193l2.519-2.9746c-0.478 0.59679-0.833 1.2821-1.045 2.0165-0.212 0.7345-0.277 1.5036-0.192 2.2633 0.38 4.72 4.933 9.7434 10.146 11.223 3.278 0.9257 6.063 0.2428 7.596-1.5632z" fill="#fff"/>
<path d="m117.72 6.8826c5.206 1.4646 9.759 6.5108 10.146 11.216 0.387 4.7047-3.605 7.3379-8.833 5.8582-5.228-1.4798-9.766-6.5032-10.153-11.223-0.387-4.7199 3.604-7.3303 8.84-5.8506zm0.964 12.604c2.497 0.7057 4.378-0.5463 4.211-2.7925-0.166-2.2461-2.337-4.6364-4.833-5.3118-2.497-0.6754-4.386 0.5463-4.212 2.7849 0.175 2.2386 2.345 4.6441 4.834 5.3498" fill="#fff"/>
<path d="m117.25 0.7133c9.03 2.5497 16.854 11.208 17.453 19.328 0.6 8.1195-6.199 12.635-15.222 10.085-9.022-2.5497-16.853-11.208-17.453-19.328-0.599-8.1195 6.2-12.635 15.222-10.085zm1.791 23.243c5.228 1.5176 9.19-1.1459 8.833-5.8582-0.357-4.7124-4.94-9.751-10.146-11.216-5.205-1.4646-9.212 1.1458-8.84 5.8506 0.372 4.7048 4.94 9.7434 10.153 11.223z" fill="url(#j)"/>
<path d="m132.6 27.432-2.519 2.9822c-2.633 3.1112-7.429 4.295-13.09 2.6939-9.03-2.5573-16.853-11.208-17.453-19.328-0.1515-1.313-0.041-2.6429 0.325-3.9129 0.3659-1.27 0.9799-2.4547 1.8069-3.4857l2.52-2.9822c-0.826 1.0318-1.438 2.2168-1.803 3.4867s-0.474 2.5995-0.322 3.9119c0.622 8.1195 8.446 16.77 17.453 19.328 5.691 1.6011 10.449 0.4173 13.082-2.6939z" fill="#fff"/>
</g>
<defs>
<linearGradient id="k" x1="30.642" x2="144.54" y1="118.25" y2="167.02" gradientUnits="userSpaceOnUse">
<stop stop-color="#D34255" offset="0"/>
<stop stop-color="#97358A" offset="1"/>
</linearGradient>
<linearGradient id="i" x1="82.402" x2="120.95" y1="12.665" y2="154.48" gradientUnits="userSpaceOnUse">
<stop stop-color="#fff" offset="0"/>
<stop stop-color="#FBFBFE" offset=".07"/>
<stop stop-color="#EEEFFA" offset=".15"/>
<stop stop-color="#D8DBF4" offset=".23"/>
<stop stop-color="#BABFEB" offset=".32"/>
<stop stop-color="#939BE0" offset=".4"/>
<stop stop-color="#656FD2" offset=".49"/>
<stop stop-color="#4C58CB" offset=".53"/>
<stop stop-color="#5B43B2" offset=".7"/>
<stop stop-color="#6536A3" offset=".87"/>
<stop stop-color="#68319E" offset="1"/>
</linearGradient>
<linearGradient id="h" x1="70.435" x2="90.468" y1="72.104" y2="145.82" gradientUnits="userSpaceOnUse">
<stop stop-color="#4C58CB" offset="0"/>
<stop stop-color="#68319E" offset="1"/>
</linearGradient>
<linearGradient id="g" x1="1073.8" x2="1885.7" y1="3488.3" y2="4740.5" gradientUnits="userSpaceOnUse">
<stop stop-color="#4C58CB" offset="0"/>
<stop stop-color="#68319E" offset="1"/>
</linearGradient>
<linearGradient id="f" x1="-1947" x2="-8.0442" y1="1874.4" y2="8651.6" gradientUnits="userSpaceOnUse">
<stop stop-color="#4C58CB" offset="0"/>
<stop stop-color="#68319E" offset="1"/>
</linearGradient>
<linearGradient id="e" x1="-491.44" x2="32.25" y1="600.91" y2="2412" gradientUnits="userSpaceOnUse">
<stop stop-color="#4C58CB" offset="0"/>
<stop stop-color="#68319E" offset="1"/>
</linearGradient>
<linearGradient id="d" x1="1104.3" x2="2404.3" y1="-203.29" y2="1552.4" gradientUnits="userSpaceOnUse">
<stop stop-color="#4C58CB" offset="0"/>
<stop stop-color="#68319E" offset="1"/>
</linearGradient>
<linearGradient id="c" x1="4067" x2="9546.2" y1="-1102.7" y2="6080" gradientUnits="userSpaceOnUse">
<stop stop-color="#4C58CB" offset="0"/>
<stop stop-color="#68319E" offset="1"/>
</linearGradient>
<linearGradient id="b" x1="1260.5" x2="4193.1" y1="104.23" y2="3951.5" gradientUnits="userSpaceOnUse">
<stop stop-color="#4C58CB" offset="0"/>
<stop stop-color="#68319E" offset="1"/>
</linearGradient>
<linearGradient id="a" x1="1231.2" x2="2054.8" y1="-289.28" y2="1199.6" gradientUnits="userSpaceOnUse">
<stop stop-color="#4C58CB" offset="0"/>
<stop stop-color="#68319E" offset="1"/>
</linearGradient>
<linearGradient id="j" x1="4137.3" x2="7126.2" y1="-1088.5" y2="4297.5" gradientUnits="userSpaceOnUse">
<stop stop-color="#4C58CB" offset="0"/>
<stop stop-color="#68319E" offset="1"/>
</linearGradient>
<clipPath id="l">
<rect width="176.05" height="160" fill="#fff"/>
</clipPath>
</defs>
</svg>
