<svg width="177" height="160" viewBox="0 0 177 160" fill="none" xmlns="http://www.w3.org/2000/svg">
<g clip-path="url(#clip0)">
<path d="M160.873 160H21.5356V129.7H160.873C164.898 129.7 168.758 131.299 171.604 134.145C174.45 136.991 176.049 140.851 176.049 144.876V144.876C176.035 148.892 174.43 152.739 171.585 155.574C168.741 158.408 164.889 160 160.873 160V160Z" fill="url(#paint0_linear)"/>
<path d="M132.242 134.564C131.468 119.129 130.691 103.7 129.912 88.2751C129.844 86.9185 129.588 85.578 129.154 84.2912C128.781 83.1392 128.233 82.0514 127.53 81.0661C126.918 80.1941 126.145 79.4471 125.253 78.8655C124.448 78.3399 123.519 78.0338 122.559 77.9777C119.668 77.8411 116.762 77.6969 113.863 77.5452C113.504 64.9637 113.145 52.3772 112.786 39.7856C112.786 38.7612 112.694 37.7444 112.603 36.7503C112.512 35.7562 112.391 34.7546 112.239 33.7832C112.087 32.8119 111.913 31.8482 111.708 30.9073C111.503 29.9663 111.275 29.0557 111.025 28.1603C110.646 26.8197 110.216 25.5322 109.735 24.2978C109.274 23.1072 108.749 21.942 108.164 20.8072C107.624 19.7586 107.018 18.7448 106.351 17.7719C105.74 16.8647 105.066 16.0025 104.332 15.1918C103.758 14.5513 103.137 13.9552 102.473 13.4086C101.858 12.894 101.198 12.4368 100.5 12.0427C99.8475 11.6695 99.1584 11.3643 98.4436 11.1321C97.7533 10.9121 97.0406 10.7695 96.3188 10.7071C95.0895 10.6085 93.8526 10.5174 92.6157 10.4339H92.722C91.6281 10.351 90.5282 10.4641 89.4742 10.7678C88.9213 10.923 88.383 11.1261 87.8654 11.3749C87.3382 11.6328 86.831 11.9296 86.3478 12.2627C85.8195 12.6114 85.3127 12.9915 84.8301 13.401C84.0802 14.0592 83.3825 14.7747 82.7433 15.5409C82.0557 16.3642 81.422 17.231 80.8462 18.1361C80.2332 19.1028 79.6709 20.1007 79.1616 21.1259C78.6557 22.1883 78.1701 23.3038 77.7047 24.4724C77.2392 25.641 76.8472 26.8425 76.5285 28.0768C76.1743 29.3365 75.8632 30.6341 75.5951 31.9696C75.3371 33.2976 75.1246 34.6711 74.9729 36.0597C74.8211 37.4484 74.7224 38.8674 74.6921 40.3092C74.3633 53.518 74.042 66.7267 73.7284 79.9355C73.7075 80.6315 73.7737 81.3275 73.9257 82.0071C74.0581 82.6102 74.2726 83.1923 74.5631 83.7372C74.8081 84.2056 75.1434 84.6208 75.5496 84.959C75.8995 85.257 76.3299 85.4445 76.7865 85.4977C76.8875 85.5053 76.989 85.5053 77.09 85.4977L81.1422 85.308C81.5654 85.2803 81.9715 85.13 82.3108 84.8755C82.7031 84.5868 83.0312 84.2199 83.2745 83.7979C83.5657 83.3009 83.783 82.7641 83.9195 82.2044C84.0862 81.565 84.1729 80.9074 84.1775 80.2466C84.3141 66.8254 84.4557 53.4016 84.6024 39.9753C84.6024 39.3607 84.6024 38.7612 84.6707 38.1617C84.739 37.5622 84.7694 36.9855 84.8453 36.4088C84.9212 35.8321 85.0046 35.263 85.1109 34.709C85.2171 34.1551 85.3309 33.6087 85.4675 33.0699C85.6601 32.3002 85.8906 31.5405 86.1581 30.7934C86.4161 30.0346 86.7044 29.3289 87.0155 28.6535C87.3171 27.986 87.654 27.335 88.0248 26.7033C88.3698 26.1248 88.7526 25.5696 89.1706 25.0415C89.5629 24.552 89.9916 24.0929 90.4531 23.668C90.8731 23.2752 91.3306 22.9245 91.819 22.6208C92.2952 22.3285 92.8047 22.0941 93.3366 21.9227C93.458 21.8847 93.5794 21.862 93.7009 21.8316C93.8976 21.9015 94.0901 21.9825 94.2776 22.0744C94.6134 22.2399 94.9379 22.4275 95.2489 22.636C95.741 22.9807 96.203 23.3666 96.63 23.7894C97.0902 24.2625 97.5138 24.7698 97.8972 25.3071C98.3183 25.8807 98.701 26.4815 99.043 27.1055C99.412 27.78 99.7439 28.4741 100.037 29.1847C100.347 29.9288 100.618 30.6887 100.849 31.4612C101.099 32.2899 101.307 33.1307 101.471 33.9805C101.646 34.8456 101.782 35.7486 101.881 36.6668C101.98 37.585 102.033 38.5411 102.048 39.5048L102.549 76.9229L102.617 82.0299C102.628 82.7785 102.733 83.5229 102.928 84.2457C103.108 84.8974 103.379 85.5207 103.733 86.0972C104.037 86.6018 104.436 87.0425 104.909 87.3948C105.326 87.7073 105.823 87.8966 106.343 87.9412C106.464 87.9488 106.586 87.9488 106.707 87.9412V87.9412L109.485 87.7363C109.485 87.797 109.485 87.8501 109.485 87.9108C109.849 104.362 110.216 120.804 110.585 137.235C110.62 138.679 110.459 140.121 110.107 141.522C109.786 142.777 109.274 143.975 108.589 145.074C108 146.04 107.227 146.881 106.313 147.548C105.47 148.152 104.484 148.527 103.452 148.633C110.777 147.965 118.08 147.026 125.359 145.817C126.396 145.637 127.372 145.208 128.205 144.565C129.118 143.879 129.891 143.024 130.482 142.046C131.133 140.973 131.614 139.806 131.908 138.586C132.21 137.268 132.323 135.914 132.242 134.564V134.564ZM108.771 36.4847C108.688 35.4679 108.566 34.4662 108.422 33.4494C108.566 34.4662 108.688 35.4679 108.771 36.4847ZM104.423 20.4202C104.987 21.5627 105.494 22.7328 105.941 23.926C106.411 25.1604 106.834 26.4554 107.208 27.8112C106.839 26.4605 106.416 25.1654 105.941 23.926C105.494 22.7328 104.987 21.5627 104.423 20.4202C103.883 19.3745 103.282 18.361 102.625 17.3849C103.282 18.361 103.883 19.3745 104.423 20.4202V20.4202ZM94.7708 10.783H94.8619C94.4834 10.6622 94.0983 10.5634 93.7084 10.4871C94.0676 10.5668 94.4222 10.6656 94.7708 10.783V10.783ZM95.9925 11.2535C95.7345 11.1397 95.4765 11.041 95.2337 10.9424C95.4765 11.041 95.7345 11.1397 95.9925 11.2535V11.2535ZM82.3487 30.7251C82.6014 29.9919 82.8927 29.2725 83.2214 28.5701C83.5212 27.9066 83.8581 27.2606 84.2306 26.635C83.853 27.2602 83.5109 27.9063 83.2062 28.5701C82.8775 29.2725 82.5862 29.9919 82.3335 30.7251C82.0613 31.4919 81.8283 32.2719 81.6354 33.0624C81.8333 32.2717 82.0714 31.4916 82.3487 30.7251V30.7251ZM77.4011 85.4446H77.2266H77.4011ZM77.7047 85.3536L77.5377 85.4067L77.7047 85.3536ZM77.8412 85.2928L78.0006 85.2094L77.8412 85.2928ZM78.1296 85.1259L78.2586 85.0424L78.1296 85.1259ZM78.6987 84.6327L78.767 84.5568L78.6987 84.6327ZM79.1389 84.0559C79.2223 83.9269 79.2906 83.7752 79.3665 83.631C79.3119 83.7529 79.2511 83.872 79.1844 83.9876L79.1389 84.0559ZM79.5259 83.2971C79.5969 83.1289 79.6577 82.9566 79.708 82.7811C79.658 82.9592 79.5971 83.134 79.5259 83.3047V83.2971ZM79.8294 82.432C79.8825 82.2272 79.9204 82.0071 79.966 81.7794C79.966 81.9843 79.8977 82.1968 79.8446 82.3865C79.8349 82.4026 79.8297 82.4209 79.8294 82.4396V82.432ZM80.0267 81.4683C80.0754 81.1188 80.1008 80.7664 80.1026 80.4135C80.1011 80.769 80.0758 81.1239 80.0267 81.4759V81.4683ZM89.588 21.7633C89.0563 21.9418 88.547 22.1811 88.0703 22.4766C87.5841 22.7834 87.1269 23.1339 86.7044 23.5238C87.1331 23.1249 87.598 22.7667 88.0931 22.4539C88.5698 22.1584 89.079 21.919 89.6107 21.7406C90.1207 21.5645 90.6512 21.4548 91.1891 21.4143C90.6421 21.4627 90.1038 21.5826 89.588 21.7709V21.7633ZM96.4175 11.4508C96.5541 11.5191 96.6983 11.5798 96.8348 11.6557L97.1156 11.8302C96.8728 11.7012 96.6375 11.5798 96.372 11.4584L96.4175 11.4508ZM97.5405 12.0958C97.7682 12.24 97.9883 12.3993 98.2083 12.5663C97.9731 12.4069 97.753 12.2476 97.5254 12.1413L97.5405 12.0958ZM98.6105 12.8546C98.6712 12.9077 98.7319 12.9457 98.7926 12.9912C98.9672 13.1354 99.1417 13.3023 99.3162 13.4541C99.0658 13.2644 98.8306 13.0595 98.5953 12.9002L98.6105 12.8546ZM99.6501 13.75C99.984 14.0688 100.318 14.4102 100.644 14.7669C100.303 14.4178 99.9688 14.0839 99.6349 13.7652L99.6501 13.75ZM107.087 87.8881H106.859H107.087ZM107.428 87.7742C107.36 87.7742 107.292 87.8198 107.223 87.8425C107.276 87.8349 107.345 87.8198 107.413 87.7894L107.428 87.7742ZM107.565 87.7135L107.754 87.6149L107.565 87.7135ZM107.891 87.5314L108.043 87.4252L107.891 87.5314ZM108.536 86.985L108.604 86.9016L108.536 86.985ZM108.991 86.3704C109.081 86.2262 109.162 86.0767 109.234 85.9227C109.173 86.0441 109.12 86.1731 109.052 86.2869C109.03 86.3224 109.005 86.3555 108.976 86.3856L108.991 86.3704Z" fill="url(#paint1_linear)"/>
<path d="M101.858 76.9381C102.859 76.8648 103.857 77.1005 104.719 77.6135C105.672 78.1897 106.488 78.9665 107.11 79.89C107.856 80.9795 108.425 82.1808 108.794 83.4489C109.223 84.8986 109.455 86.3993 109.485 87.9108C109.849 104.362 110.216 120.804 110.585 137.235C110.625 138.753 110.443 140.269 110.046 141.735C109.701 143.043 109.139 144.285 108.384 145.408C107.728 146.391 106.866 147.219 105.857 147.836C104.926 148.4 103.85 148.682 102.761 148.648C87.853 148.117 73.0047 146.479 58.3393 143.746C57.4088 143.554 56.5466 143.117 55.8428 142.479C55.0424 141.769 54.3766 140.921 53.8774 139.974C53.3153 138.894 52.9091 137.739 52.6708 136.544C52.4029 135.245 52.3009 133.916 52.3673 132.591C53.0806 118.472 53.7914 104.352 54.4996 90.2329C54.5605 88.9157 54.7823 87.611 55.1598 86.3476C55.492 85.2147 55.9716 84.1304 56.5864 83.1226C57.1096 82.2478 57.7886 81.4762 58.5897 80.8461C59.2752 80.3067 60.1034 79.9796 60.9725 79.9051C74.6239 79.0552 88.2829 78.0156 101.858 76.9381Z" fill="#D9CDFE"/>
<path d="M81.8553 95.1046C82.5388 95.0763 83.2144 95.2591 83.7904 95.6282C84.4353 96.0416 84.9797 96.5938 85.3839 97.2445C85.8698 98.0079 86.2334 98.8426 86.4615 99.7183C86.7242 100.726 86.8518 101.765 86.8409 102.807C86.84 103.571 86.7637 104.334 86.6132 105.083C86.4782 105.775 86.2722 106.452 85.9986 107.102C85.7523 107.69 85.4391 108.247 85.0652 108.764C84.7314 109.224 84.3297 109.63 83.8738 109.97L83.6917 127.264C83.687 127.711 83.6206 128.155 83.4944 128.584C83.3913 128.96 83.2216 129.315 82.9936 129.631C82.7972 129.913 82.5372 130.144 82.2348 130.307C81.9673 130.458 81.6604 130.524 81.3545 130.497C81.037 130.468 80.7342 130.35 80.4819 130.155C80.2046 129.947 79.968 129.69 79.7837 129.396C79.5791 129.048 79.4258 128.673 79.3284 128.281C79.2167 127.847 79.1631 127.401 79.1691 126.953L79.4423 109.963C79.0147 109.621 78.6412 109.217 78.3344 108.764C77.9899 108.259 77.7047 107.717 77.4845 107.147C77.2459 106.519 77.0705 105.868 76.9609 105.205C76.8376 104.483 76.7842 103.751 76.8015 103.019C76.8194 102.008 76.9673 101.003 77.2416 100.029C77.4802 99.1573 77.8431 98.3242 78.3192 97.5556C78.7296 96.8874 79.2656 96.305 79.8976 95.8406C80.4637 95.4084 81.1446 95.1524 81.8553 95.1046V95.1046Z" fill="#A78AFE"/>
<path d="M23.6075 128.152L25.4363 136.59C24.0995 136.718 22.7952 137.078 21.5814 137.652C20.6764 138.007 19.9263 138.671 19.4643 139.527L17.6431 131.073C18.0962 130.226 18.8358 129.567 19.7299 129.214C20.9504 128.636 22.2628 128.277 23.6075 128.152V128.152Z" fill="#D9CDFE"/>
<path d="M48.6641 125.815L50.4853 134.268L25.4362 136.613L23.6074 128.152L48.6641 125.815Z" fill="#D9CDFE"/>
<path d="M53.8241 134.647C52.7601 134.245 51.6125 134.114 50.4853 134.268L48.6641 125.815C49.7912 125.661 50.9389 125.791 52.0029 126.194L53.8241 134.647Z" fill="#D9CDFE"/>
<path d="M54.7423 135.626C54.6746 135.404 54.5565 135.2 54.3973 135.03C54.2381 134.86 54.042 134.729 53.8241 134.647L52.0029 126.194C52.2186 126.276 52.4126 126.406 52.5704 126.574C52.7282 126.743 52.8456 126.945 52.9135 127.165C53.4599 129.707 54.196 133.084 54.7423 135.626Z" fill="#D9CDFE"/>
<path d="M52.9135 127.165L54.7423 135.626C54.7806 135.835 54.7622 136.05 54.6891 136.249L52.8604 127.795C52.9411 127.595 52.9596 127.376 52.9135 127.165V127.165Z" fill="white"/>
<path d="M41.8041 131.21L43.6253 139.663L28.737 141.052L26.9082 132.599L41.8041 131.21Z" fill="white"/>
<path d="M26.9082 132.599L28.737 141.052L26.1266 148.253L24.2979 139.8L26.9082 132.599Z" fill="white"/>
<path d="M17.6427 131.088L19.4639 139.542L15.0702 151.668L13.249 143.215L17.6427 131.088Z" fill="#D9CDFE"/>
<path d="M15.0173 152.298L13.1961 143.837C13.1501 143.629 13.1686 143.412 13.2492 143.215L15.0704 151.668C14.9974 151.87 14.9791 152.087 15.0173 152.298V152.298Z" fill="#D9CDFE"/>
<path d="M39.1937 138.411L41.0149 146.865L26.1266 148.253L24.2979 139.8L39.1937 138.411Z" fill="#D9CDFE"/>
<path d="M41.8042 131.21L43.6254 139.663L41.015 146.865L39.1938 138.411L41.8042 131.21Z" fill="#D9CDFE"/>
<path d="M15.0175 152.298L13.1963 143.837C13.2611 144.059 13.3773 144.263 13.5355 144.431C13.6937 144.6 13.8895 144.729 14.1069 144.808C15.1666 145.217 16.3129 145.35 17.4382 145.195L19.2594 153.649C18.1384 153.807 16.9956 153.682 15.9357 153.284C15.717 153.202 15.5203 153.07 15.3611 152.899C15.2018 152.727 15.0842 152.522 15.0175 152.298V152.298Z" fill="white"/>
<path d="M52.8602 127.795L54.689 136.249L50.2953 148.375L48.4741 139.921L52.8602 127.795Z" fill="white"/>
<path d="M42.4947 142.85L44.3159 151.311L19.2592 153.649L17.438 145.195L42.4947 142.85Z" fill="white"/>
<path d="M48.4742 139.921L50.2954 148.375C49.8334 149.23 49.0833 149.894 48.1783 150.249C46.9615 150.823 45.6548 151.182 44.3158 151.311L42.4946 142.858C43.8314 142.73 45.1358 142.37 46.3495 141.796C47.2577 141.443 48.0109 140.778 48.4742 139.921V139.921Z" fill="white"/>
<path d="M38.7612 119.751C56.738 118.074 68.7579 123.758 65.6088 132.462C62.4596 141.166 45.3327 149.574 27.318 151.258C9.30333 152.943 -2.64829 147.214 0.500867 138.548C3.65003 129.882 20.7769 121.413 38.7612 119.751ZM48.4743 139.921L52.8604 127.78C53.0956 127.135 52.7845 126.551 52.0029 126.179C50.9389 125.776 49.7912 125.646 48.664 125.799L23.6225 128.137C22.2882 128.265 20.9863 128.624 19.7752 129.199C18.8674 129.549 18.1159 130.215 17.6581 131.073L13.2644 143.215C13.0292 143.86 13.3403 144.444 14.1219 144.808C15.1817 145.217 16.3279 145.35 17.4532 145.195L42.4947 142.858C43.8315 142.73 45.1358 142.37 46.3496 141.796C47.2578 141.443 48.0109 140.778 48.4743 139.921" fill="#D9CDFE"/>
<path d="M52.0031 126.194C52.7619 126.566 53.0958 127.15 52.8606 127.795L48.4745 139.936C48.0112 140.794 47.258 141.458 46.3498 141.811C45.1361 142.385 43.8317 142.745 42.4949 142.873L17.4534 145.21C16.3282 145.365 15.1819 145.232 14.1222 144.823C13.3633 144.459 13.0294 143.875 13.2647 143.23L17.6583 131.088C18.1049 130.238 18.8391 129.574 19.7299 129.214C20.9411 128.64 22.2429 128.28 23.5772 128.152L48.6187 125.815C49.7608 125.653 50.9251 125.784 52.0031 126.194ZM39.194 138.411L41.8044 131.21L26.9085 132.599L24.2829 139.8L39.1788 138.411" fill="white"/>
<path d="M24.2979 139.8L26.9082 132.599L41.8041 131.21L39.1937 138.411L24.2979 139.8Z" fill="#D9CDFE"/>
<path d="M65.9652 128.395L67.7864 136.848C68.0581 138.21 67.9344 139.621 67.4298 140.915C64.2806 149.612 47.1538 158.027 29.177 159.712C14.1825 161.108 3.33114 157.39 1.97283 151.069L0.144043 142.615C1.51753 148.936 12.3537 152.654 27.3179 151.258C45.3022 149.574 62.4291 141.158 65.5782 132.462C66.093 131.171 66.2273 129.759 65.9652 128.395V128.395Z" fill="#A78AFE"/>
<path d="M146.257 88.4572L141.742 88.7455L140.543 69.6305L145.066 69.3422L146.257 88.4572Z" fill="#D9CDFE"/>
<path d="M140.543 69.6305C140.499 68.6444 140.131 67.7003 139.496 66.9443L144.049 66.6559C144.68 67.4142 145.047 68.3569 145.096 69.3422L140.543 69.6305Z" fill="#D9CDFE"/>
<path d="M139.496 66.9443C139.238 66.6245 138.91 66.3676 138.538 66.1928C138.166 66.018 137.76 65.9298 137.349 65.935L141.902 65.6467C142.319 65.6356 142.733 65.721 143.112 65.896C143.491 66.071 143.825 66.3311 144.087 66.6559L139.496 66.9443Z" fill="#D9CDFE"/>
<path d="M143.511 92.5169L138.958 92.8053C139.372 92.7667 139.772 92.6329 140.126 92.4144C140.48 92.1959 140.779 91.8986 140.999 91.5456C141.528 90.712 141.775 89.7304 141.704 88.7455L146.257 88.4572C146.336 89.4427 146.088 90.4268 145.552 91.2573C145.333 91.6114 145.034 91.9097 144.68 92.1284C144.326 92.347 143.925 92.4801 143.511 92.5169V92.5169Z" fill="#D9CDFE"/>
<path d="M140.043 84.9438L135.52 85.2397L134.807 73.8724L139.329 73.584L140.043 84.9438Z" fill="white"/>
<path d="M139.329 73.584L134.807 73.8724L126.05 74.4112L130.572 74.1228L139.329 73.584Z" fill="white"/>
<path d="M140.043 84.9438L135.52 85.2397L126.755 85.7709L131.278 85.4826L140.043 84.9438Z" fill="#D9CDFE"/>
<path d="M131.278 85.4825L130.572 74.1228L139.329 73.584L140.043 84.9438L131.278 85.4825Z" fill="#D9CDFE"/>
<path d="M131.278 85.4825L126.756 85.7709L126.05 74.4112L130.572 74.1228L131.278 85.4825Z" fill="#D9CDFE"/>
<path d="M141.833 65.6467L137.318 65.935L122.574 66.838L127.097 66.5497L141.833 65.6467Z" fill="#D9CDFE"/>
<path d="M143.51 92.5169L138.995 92.8053L124.251 93.7159L128.774 93.42L143.51 92.5169Z" fill="white"/>
<path d="M124.342 70.6094L119.789 70.8978C119.713 69.9148 119.961 68.9339 120.495 68.1053C120.716 67.7524 121.015 67.4548 121.369 67.2352C121.723 67.0156 122.122 66.8797 122.536 66.838L127.089 66.5497C126.673 66.5891 126.272 66.724 125.917 66.9438C125.562 67.1636 125.262 67.4624 125.041 67.8169C124.516 68.6493 124.271 69.6279 124.342 70.6094V70.6094Z" fill="white"/>
<path d="M125.541 89.732L121.019 90.0204L119.827 70.8978L124.342 70.6094L125.541 89.732Z" fill="white"/>
<path d="M128.774 93.42L124.221 93.7083C123.805 93.7211 123.391 93.6382 123.012 93.4658C122.633 93.2934 122.299 93.0363 122.035 92.7142C121.406 91.9522 121.039 91.0075 120.988 90.0204L125.541 89.732C125.587 90.7179 125.955 91.6617 126.588 92.4183C126.85 92.7435 127.184 93.0034 127.563 93.1772C127.942 93.3511 128.357 93.4342 128.774 93.42V93.42Z" fill="white"/>
<path d="M144.019 66.6559C144.65 67.4142 145.017 68.3569 145.066 69.3422L146.258 88.4572C146.336 89.4427 146.088 90.4268 145.552 91.2573C145.333 91.6114 145.034 91.9097 144.68 92.1284C144.326 92.347 143.925 92.4801 143.511 92.5169L128.774 93.42C128.357 93.4342 127.942 93.3511 127.563 93.1772C127.184 93.0034 126.85 92.7435 126.589 92.4183C125.955 91.6617 125.587 90.7179 125.541 89.732L124.342 70.6094C124.273 69.6271 124.52 68.6484 125.048 67.8169C125.269 67.4623 125.569 67.1635 125.924 66.9438C126.28 66.724 126.681 66.5891 127.097 66.5497L141.834 65.6467C142.251 65.6356 142.665 65.721 143.044 65.896C143.423 66.071 143.757 66.3311 144.019 66.6559V66.6559ZM140.043 84.9438L139.329 73.5613L130.573 74.1001L131.278 85.4826L140.043 84.9438" fill="white"/>
<path d="M136.855 104.378L132.302 104.666C121.732 105.318 112.459 94.7176 111.601 80.9979C110.744 67.2782 118.628 55.6377 129.199 54.9851L133.752 54.6967C123.181 55.3417 115.297 66.9898 116.154 80.7095C117.012 94.4292 126.277 105.03 136.855 104.378Z" fill="#A78AFE"/>
<path d="M133.752 54.6967C144.33 54.0517 153.595 64.645 154.453 78.3647C155.31 92.0844 147.434 103.732 136.856 104.377C126.277 105.023 117.004 94.4292 116.155 80.7095C115.305 66.9898 123.181 55.3417 133.752 54.6967ZM146.257 88.4572L145.066 69.3422C145.017 68.3569 144.65 67.4142 144.019 66.6559C143.757 66.3311 143.423 66.071 143.044 65.896C142.665 65.721 142.251 65.6356 141.833 65.6467L127.097 66.5497C126.681 66.5891 126.28 66.724 125.924 66.9438C125.569 67.1636 125.269 67.4623 125.048 67.8169C124.52 68.6484 124.273 69.6271 124.342 70.6094L125.541 89.732C125.587 90.7179 125.955 91.6617 126.589 92.4183C126.85 92.7435 127.184 93.0034 127.563 93.1772C127.942 93.3511 128.357 93.4342 128.774 93.4199L143.511 92.5169C143.925 92.4801 144.326 92.347 144.68 92.1284C145.034 91.9097 145.333 91.6114 145.552 91.2573C146.088 90.4268 146.336 89.4427 146.257 88.4572" fill="#D9CDFE"/>
<path d="M64.0227 40.977L61.5337 40.3699C61.731 39.2772 62.5581 38.4804 63.3852 38.5867L65.8742 39.1937C65.0471 39.1027 64.2124 39.907 64.0227 40.977Z" fill="#D9CDFE"/>
<path d="M64.0228 40.977C63.8331 42.0166 64.2808 42.9424 65.032 43.1245L62.543 42.5174C62.1374 42.3497 61.809 42.0365 61.6223 41.6393C61.4356 41.242 61.404 40.7893 61.5338 40.3699L64.0228 40.977Z" fill="#D9CDFE"/>
<path d="M65.0319 43.1397L62.543 42.5326H62.672L65.161 43.1473L65.0319 43.1397Z" fill="white"/>
<path d="M66.1778 38.9585L68.6667 39.5732L65.8742 39.2089L63.3853 38.6019L66.1778 38.9585Z" fill="#D9CDFE"/>
<path d="M66.8455 35.263L69.3345 35.8701L68.6667 39.5732L66.1777 38.9585L66.8455 35.263Z" fill="#D9CDFE"/>
<path d="M65.472 42.912L67.9534 43.5267L65.1609 43.1625L62.6719 42.5554L65.472 42.912Z" fill="white"/>
<path d="M65.472 42.912L67.9534 43.5267L67.2932 47.2298L64.8042 46.6151L65.472 42.912Z" fill="#D9CDFE"/>
<path d="M71.1862 34.0868C70.3591 33.9806 69.532 34.7773 69.3347 35.8701L66.8457 35.263C67.043 34.1627 67.8701 33.3659 68.6973 33.4721L71.1862 34.0868Z" fill="#D9CDFE"/>
<path d="M71.3304 34.1475H71.2014L68.7124 33.5328H68.8414L71.3304 34.1475Z" fill="#D9CDFE"/>
<path d="M68.2951 49.3773L65.8062 48.7626C65.0473 48.5805 64.6072 47.6547 64.7969 46.6151L67.2859 47.2298C67.1561 47.6491 67.1877 48.1018 67.3744 48.4991C67.5611 48.8964 67.8895 49.2096 68.2951 49.3773Z" fill="#D9CDFE"/>
<path d="M68.8262 33.4949L71.3303 34.1475C72.0892 34.3296 72.5293 35.2554 72.3396 36.295L69.8127 35.6652C69.9504 35.2456 69.9254 34.7896 69.7427 34.3877C69.5599 33.9857 69.2328 33.667 68.8262 33.4949V33.4949Z" fill="white"/>
<path d="M69.8355 35.6424L72.3244 36.257L71.6567 39.9602L69.1753 39.3455L69.8355 35.6424Z" fill="white"/>
<path d="M69.1751 39.3455L71.6565 39.9602L68.6667 39.5732L66.1777 38.9585L69.1751 39.3455Z" fill="white"/>
<path d="M68.462 43.299L70.951 43.9137L67.9536 43.5267L65.4722 42.912L68.462 43.299Z" fill="white"/>
<path d="M68.4617 43.299L70.9507 43.9137L70.2829 47.6168L67.7939 47.0021L68.4617 43.299Z" fill="white"/>
<path d="M68.2951 49.3773L65.8062 48.7626C65.8488 48.7698 65.8925 48.7698 65.9352 48.7626C66.7623 48.8689 67.5894 48.0721 67.7867 46.9794L70.2757 47.594C70.0784 48.6867 69.2512 49.4835 68.4241 49.3773H68.2951Z" fill="white"/>
<path d="M71.9678 39.7098L74.4568 40.3168L71.6567 39.9602L69.1753 39.3455L71.9678 39.7098Z" fill="#D9CDFE"/>
<path d="M72.089 39.7325L74.5779 40.3396H74.4489L71.96 39.7325C72.0027 39.7253 72.0463 39.7253 72.089 39.7325V39.7325Z" fill="#D9CDFE"/>
<path d="M71.2544 43.6633L73.7434 44.2779L70.9509 43.9137L68.4619 43.299L71.2544 43.6633Z" fill="white"/>
<path d="M72.0891 39.7325L74.5781 40.3396C74.9868 40.506 75.3182 40.8198 75.5065 41.2189C75.6949 41.6181 75.7264 42.0734 75.5949 42.4947C75.3976 43.5874 74.5705 44.3918 73.7434 44.2855L71.2544 43.6709C72.0815 43.7771 72.9162 42.9803 73.1059 41.88C73.2371 41.4598 73.2053 41.0056 73.0169 40.6077C72.8285 40.2098 72.4973 39.8974 72.0891 39.7325V39.7325Z" fill="white"/>
<path d="M70.5717 28.0768L73.0531 28.6915C78.0841 29.9284 81.0891 36.1357 79.8371 43.1093C78.5243 50.4321 73.0076 55.7818 67.4377 55.0685C67.1542 55.0315 66.8729 54.9783 66.5954 54.9092L64.1064 54.2945C64.384 54.3636 64.6652 54.4168 64.9487 54.4539C70.4806 55.1672 76.0353 49.8174 77.3481 42.4947C78.585 35.4906 75.58 29.2758 70.5717 28.0768Z" fill="#A78AFE"/>
<path d="M69.7064 27.8795C75.2383 28.5928 78.653 35.1036 77.2947 42.4188C75.9364 49.7339 70.4652 55.0913 64.8954 54.378C59.3255 53.6647 55.9487 47.1539 57.307 39.8388C58.6654 32.5236 64.1745 27.1662 69.7064 27.8795ZM71.224 43.6633C72.0512 43.7695 72.8859 42.9727 73.0756 41.8724C73.2653 40.7721 72.7645 39.816 71.9373 39.7098L69.1448 39.3455L69.8126 35.6652C70.0099 34.5725 69.5015 33.6011 68.6744 33.4949C67.8472 33.3887 67.0201 34.1854 66.8228 35.2858L66.155 38.9813L63.3625 38.6246C62.5354 38.5184 61.7083 39.3152 61.511 40.4079C61.3137 41.5006 61.8221 42.4719 62.6492 42.5781L65.4493 42.9348L64.7816 46.6379C64.5843 47.7306 65.0927 48.7019 65.9198 48.8082C66.7469 48.9144 67.5741 48.1176 67.7713 47.0249L68.4391 43.3218L71.2316 43.686" fill="#D9CDFE"/>
<path d="M68.6969 33.4721C69.524 33.5784 70.0325 34.5497 69.8352 35.6424L69.175 39.3455L66.1396 38.9585L66.8074 35.263C67.0427 34.1475 67.8698 33.3887 68.6969 33.4721Z" fill="white"/>
<path d="M64.8042 46.6151L65.472 42.912L68.4618 43.299L67.794 47.0021C67.5967 48.0948 66.7696 48.8916 65.9425 48.7854C65.1153 48.6791 64.6069 47.7078 64.8042 46.6151Z" fill="white"/>
<path d="M71.9677 39.7097C72.7948 39.816 73.3032 40.7873 73.1059 41.8724C72.9086 42.9576 72.0891 43.7695 71.2544 43.6633L68.4619 43.299L65.472 42.912L62.672 42.5554C61.8448 42.4491 61.3364 41.4778 61.5337 40.3851C61.731 39.2924 62.5581 38.4956 63.3853 38.6018L66.1778 38.9585L69.2131 39.3455L71.9677 39.7097Z" fill="white"/>
<path d="M125.344 21.0804C124.98 16.3756 120.434 11.3825 115.198 9.86481L117.725 6.8826C122.931 8.34715 127.484 13.3934 127.871 18.0982L125.344 21.0804Z" fill="#D9CDFE"/>
<path d="M125.344 22.2414C125.374 21.855 125.374 21.4668 125.344 21.0804L125.64 20.7313L125.951 20.3671L126.277 19.9801L126.603 19.5931L126.937 19.1985L127.264 18.8191L127.575 18.4472L127.871 18.0982C127.901 18.4846 127.901 18.8728 127.871 19.2592L127.719 19.4261C127.408 19.8055 127.089 20.185 126.77 20.5492L125.791 21.7102L125.488 22.0669L125.344 22.2414Z" fill="#D9CDFE"/>
<path d="M124.107 25.3754C124.84 24.4876 125.273 23.3905 125.344 22.2414L127.871 19.2592C127.797 20.409 127.362 21.5061 126.626 22.3932L124.107 25.3754Z" fill="#D9CDFE"/>
<path d="M122.309 18.7432L119.79 21.7254C120.247 21.1465 120.457 20.4099 120.374 19.6765C120.207 17.438 118.037 15.0401 115.548 14.3647C113.977 13.9246 112.649 14.2509 111.92 15.1235L114.447 12.1413C115.206 11.2762 116.504 10.95 118.067 11.3825C120.564 12.0882 122.726 14.4861 122.901 16.6943C122.982 17.4287 122.769 18.1654 122.309 18.7432V18.7432Z" fill="white"/>
<path d="M115.198 9.86483C111.912 8.93905 109.128 9.622 107.61 11.428L110.129 8.4534C111.647 6.63979 114.447 5.95684 117.718 6.88261L115.198 9.86483Z" fill="#D9CDFE"/>
<path d="M111.336 17.1193C111.292 16.7573 111.322 16.3902 111.422 16.0397C111.523 15.6892 111.692 15.3623 111.92 15.078L114.447 12.1413C114.219 12.4243 114.049 12.7497 113.947 13.0988C113.846 13.4479 113.814 13.8137 113.855 14.175L111.336 17.1193Z" fill="#D9CDFE"/>
<path d="M119.789 21.7254C119.03 22.5829 117.733 22.9092 116.169 22.4842L118.689 19.502C120.26 19.9421 121.58 19.6158 122.308 18.7432L119.789 21.7254Z" fill="#D9CDFE"/>
<path d="M116.17 22.469C113.673 21.7633 111.503 19.3654 111.336 17.1572L113.825 14.1371C113.999 16.4136 116.17 18.7811 118.659 19.4868L116.17 22.469Z" fill="#D9CDFE"/>
<path d="M118.067 11.3825C120.563 12.0882 122.726 14.4861 122.901 16.6943C123.075 18.9025 121.186 20.1925 118.689 19.4868C116.193 18.7811 114.03 16.3832 113.855 14.175C113.681 11.9668 115.578 10.6236 118.067 11.3825Z" fill="#D9CDFE"/>
<path d="M126.634 22.3932L124.107 25.3754C122.589 27.1814 119.797 27.8644 116.519 26.9386C111.283 25.4209 106.737 20.4278 106.373 15.7154C106.284 14.9545 106.348 14.1834 106.56 13.4473C106.772 12.7111 107.129 12.0247 107.61 11.428L110.129 8.4534C109.651 9.05019 109.296 9.73548 109.084 10.4699C108.872 11.2044 108.807 11.9735 108.892 12.7332C109.272 17.4532 113.825 22.4766 119.038 23.9564C122.316 24.8821 125.101 24.1992 126.634 22.3932Z" fill="white"/>
<path d="M117.725 6.88261C122.931 8.34716 127.484 13.3934 127.871 18.0982C128.258 22.8029 124.266 25.4361 119.038 23.9564C113.81 22.4766 109.272 17.4532 108.885 12.7332C108.498 8.01327 112.489 5.40288 117.725 6.88261ZM118.689 19.4868C121.186 20.1925 123.067 18.9405 122.9 16.6943C122.734 14.4482 120.563 12.0579 118.067 11.3825C115.57 10.7071 113.681 11.9288 113.855 14.1674C114.03 16.406 116.2 18.8115 118.689 19.5172" fill="white"/>
<path d="M117.247 0.713295C126.277 3.26297 134.101 11.9213 134.7 20.0408C135.3 28.1603 128.501 32.6754 119.478 30.1257C110.456 27.576 102.625 18.9177 102.025 10.7982C101.426 2.67867 108.225 -1.83638 117.247 0.713295ZM119.038 23.9564C124.266 25.474 128.228 22.8105 127.871 18.0982C127.514 13.3858 122.931 8.34716 117.725 6.88261C112.52 5.41806 108.513 8.02845 108.885 12.7332C109.257 17.438 113.825 22.4766 119.038 23.9564Z" fill="#D9CDFE"/>
<path d="M132.598 27.4318L130.079 30.414C127.446 33.5252 122.65 34.709 116.989 33.1079C107.959 30.5506 100.136 21.8999 99.5361 13.7804C99.3846 12.4674 99.4951 11.1375 99.8611 9.86749C100.227 8.59751 100.841 7.41275 101.668 6.38178L104.188 3.39957C103.362 4.43132 102.75 5.61638 102.385 6.88628C102.02 8.15618 101.911 9.48575 102.063 10.7982C102.685 18.9177 110.509 27.5684 119.516 30.1257C125.207 31.7268 129.965 30.543 132.598 27.4318Z" fill="#A78AFE"/>
</g>
<defs>
<linearGradient id="paint0_linear" x1="98.7925" y1="125.815" x2="98.7925" y2="168.977" gradientUnits="userSpaceOnUse">
<stop stop-color="#D9CDFE"/>
<stop offset="1" stop-color="#A78AFE"/>
</linearGradient>
<linearGradient id="paint1_linear" x1="8019.13" y1="1760.34" x2="8019.13" y2="18271.3" gradientUnits="userSpaceOnUse">
<stop stop-color="#D9CDFE"/>
<stop offset="1" stop-color="#A78AFE"/>
</linearGradient>
<clipPath id="clip0">
<rect width="176.049" height="160" fill="white"/>
</clipPath>
</defs>
</svg>
