<svg fill="none" xmlns="http://www.w3.org/2000/svg" viewBox="0 1 440 73">
  <mask id="a" mask-type="alpha" maskUnits="userSpaceOnUse" x="0" y="0" width="441" height="73">
    <path d="M.021.375h440v72h-440v-72z" fill="#C4C4C4"/>
  </mask>
  <g mask="url(#a)">
    <path d="M.021.14h440v72.443h-440V.14z" fill="url(#paint0_linear)"/>
    <path opacity=".04" d="M474.615 120.117c-1.948 17.01-23.796 32.772-49.207 29.845-9.403-1.069-18.274-3.82-27.357-5.72-4.345-.934-8.885-1.661-13.507-1.269-10.688.918-18.751 9.212-16.137 16.464 5.588 15.381 29.436 27.817 5.341 43.077-9.74 6.159-24.93 7.612-36.752 3.621-7.03-2.407-12.565-6.439-18.187-10.243-18.833-12.795-41.545-24.41-67.735-26.065-20.295-1.282-41.345 3.937-55.951 13.843-11.715 7.976-19.527 18.787-33.479 24.725-35.615 15.173-81.63 5.723-112.563 28.656-37.639 27.997-11.355 61.3-21.981 93.495-5.241 15.909-22.699 29.008-43.597 36.402-44.093 15.776-90.515 10.259-127.129-12.177-35.931-21.943-62.051-55.822-69.08-88.766-9.525-45.033 23.651-91.037 90.294-102.031 19.026-3.126 38.763-2.961 58.073-4.86 19.31-1.899 39.264-6.23 52.323-16.344 20.393-15.75 14.347-38.101 23.13-57.034 9.559-20.65 27.828-39.186 50.657-53.873C135.413-15.488 254.853-36.5 330.21 21.566c11.835 9.097 22.195 20.064 38.546 24.66 22.472 6.346 46.42-1.126 69.539.36 18.189 1.172 52.042 4.34 64.887 14.435 18.025 14.142-24.219 43.547-28.567 59.096z" fill="#fff"/>
  </g>
  <defs>
    <linearGradient id="paint0_linear" x1=".021" y1="20.604" x2="46.411" y2="177.268" gradientUnits="userSpaceOnUse">
      <stop stop-color="#4D55D3"/>
      <stop offset="1" stop-color="#9FA6F1"/>
    </linearGradient>
  </defs>
</svg>
