<svg width="24" height="24" viewBox="0 0 24 24" fill="none" xmlns="http://www.w3.org/2000/svg">
<g clip-path="url(#clip0_1265_22270)">
<path d="M24 12C24 14.3734 23.2962 16.6935 21.9776 18.6668C20.6591 20.6402 18.7849 22.1783 16.5922 23.0866C14.3995 23.9948 11.9867 24.2324 9.65892 23.7694C7.33115 23.3064 5.19295 22.1635 3.51472 20.4853C1.83649 18.8071 0.693605 16.6689 0.230582 14.3411C-0.232441 12.0133 0.00519936 9.60051 0.913451 7.4078C1.8217 5.21509 3.35977 3.34094 5.33316 2.02236C7.30655 0.703788 9.62663 0 12 0C15.1826 0 18.2348 1.26428 20.4853 3.51472C22.7357 5.76516 24 8.8174 24 12Z" fill="#F7931A"/>
<path fill-rule="evenodd" clip-rule="evenodd" d="M9.20007 6.7541L11.4187 7.34824L11.9145 5.5L13.0238 5.80102L12.5473 7.57291L13.4521 7.81601L13.9295 6.02481L15.0581 6.32671L14.5719 8.12756C14.5719 8.12756 16.4149 8.53564 16.8484 10.0346C17.282 11.5336 15.8953 12.3208 15.4671 12.3506C15.4671 12.3506 17.0819 13.2361 16.5272 14.9782C15.9726 16.7202 14.27 17.0318 12.4788 16.6325L11.9926 18.5L10.864 18.1981L11.3599 16.3595L10.4647 16.1155L9.96885 17.9673L8.84903 17.6663L9.34575 15.8233L7.06836 15.209L7.64231 13.9347C7.64231 13.9347 8.28472 14.1102 8.52782 14.1681C8.77092 14.2261 8.92713 13.9733 8.99559 13.7205C9.06404 13.4678 10.0952 9.27898 10.1926 8.93408C10.2901 8.58918 10.2506 8.31975 9.8416 8.21356C9.43263 8.10737 8.87623 7.9415 8.87623 7.9415L9.20007 6.7541ZM11.438 12.3015L10.8236 14.7438C10.8236 14.7438 13.8698 15.8435 14.2595 14.2963C14.6491 12.749 11.438 12.3015 11.438 12.3015ZM11.7206 11.143L12.3235 8.90512C12.3235 8.90512 14.9317 9.372 14.6105 10.6173C14.2893 11.8627 12.7517 11.3852 11.7206 11.143Z" fill="white"/>
</g>
<defs>
<clipPath id="clip0_1265_22270">
<rect width="24" height="24" fill="white"/>
</clipPath>
</defs>
</svg>
