<svg height="98" width="120" xmlns="http://www.w3.org/2000/svg"><g fill="none" fill-rule="evenodd" stroke="#fff" stroke-linecap="round" stroke-width="1.25"><path d="m94.065 30.574c.83.672 1.328 1.755 1.123 2.95l-5.036 29.424-5.093 29.763a3 3 0 0 1 -1.946 2.34m.337.273c-1.122.553-2.388.572-3.309-.173l-22.777-18.445-22.778-18.445c-.923-.747-1.167-1.99-.86-3.203m60.339-24.484c-.83-.672-1.992-.934-3.118-.485l-27.735 11.043-28.054 11.17a3 3 0 0 0 -1.883 2.39m46.315-6.243-12.37 4.683-11.106 3.328m18.943 15.34 2.266-11.677 2.267-11.673m-3.424 26.821-10.655-8.629-10.656-8.628" opacity=".129456"/><path d="m31.5 7.25c.698 0 1.396.338 1.783 1.016l9.547 16.684 9.657 16.876a1.89 1.89 0 0 1 -.027 1.95m0 0c-.344.568-.981.974-1.757.974h-38.405a2.035 2.035 0 0 1 -1.76-.974m20.962-36.526c-.698 0-1.397.338-1.784 1.016l-9.546 16.684-9.656 16.876a1.89 1.89 0 0 0 .026 1.95m20.96-21.859-4.48 7.299-4.393 6.117m16.381 0-3.755-6.708-3.753-6.708m8.958 14.833h-17.917" opacity=".081171"/><path d="m58.757-6.662a1.83 1.83 0 0 1 1.86.029l14.928 9.132 15.1 9.236c.588.357.864.966.843 1.568m.225-.124c.05.731-.222 1.425-.834 1.764l-15.147 8.397-15.148 8.397c-.614.34-1.346.203-1.94-.228m.113-38.171a1.83 1.83 0 0 0 -.96 1.592l-.167 17.5-.17 17.7a1.739 1.739 0 0 0 .885 1.545m6.932-26.575-.206 7.753-.664 6.77m12.598-6.983-5.865-3.77-5.863-3.77m13.869 7.69-7.086 3.928-7.086 3.928" opacity=".129456"/></g></svg>