<svg width="24" height="24" viewBox="0 0 24 24" fill="none" xmlns="http://www.w3.org/2000/svg">
<g clip-path="url(#clip0_3713_14935)">
<path d="M12 24C18.6274 24 24 18.6274 24 12C24 5.37258 18.6274 0 12 0C5.37258 0 0 5.37258 0 12C0 18.6274 5.37258 24 12 24Z" fill="#E84142"/>
<path d="M6.57615 16.7666H8.76047V16.783C9.27781 16.783 9.53237 16.783 9.7623 16.7173C10.0169 16.6352 10.2468 16.5038 10.4357 16.3232C10.6081 16.1507 10.7395 15.929 10.9859 15.4938L10.9941 15.4774L13.8271 10.46C14.0817 10.0166 14.2049 9.79484 14.2623 9.56491C14.3198 9.31035 14.3198 9.04757 14.2623 8.79301C14.2163 8.57814 14.0985 8.37044 13.8823 7.98897L13.8353 7.90614L13.8271 7.89793L12.7039 5.93428C12.4836 5.54882 12.3705 5.3507 12.2258 5.27838C12.0698 5.19627 11.8809 5.19627 11.7249 5.27838C11.5803 5.3507 11.4671 5.54882 11.2469 5.93428L11.2322 5.95996L5.82888 15.4774L5.79086 15.5463C5.59406 15.9028 5.49268 16.0865 5.50041 16.2411C5.51683 16.4217 5.60716 16.5777 5.75497 16.6763C5.88636 16.7666 6.11629 16.7666 6.57615 16.7666Z" fill="white"/>
<path d="M17.4156 16.7666H14.2788C13.8189 16.7666 13.589 16.7666 13.4494 16.6763C13.2933 16.5777 13.203 16.4217 13.1948 16.2411C13.1866 16.0768 13.3016 15.8797 13.5315 15.4856L13.5315 15.4856L13.5397 15.4774L15.0999 12.7921C15.3299 12.398 15.4448 12.2009 15.5926 12.127C15.7487 12.0449 15.9375 12.0449 16.0935 12.127C16.2328 12.1966 16.3356 12.3682 16.5324 12.6969L16.5698 12.7593L16.5863 12.7921L18.1547 15.4774C18.1588 15.4856 18.1629 15.4917 18.167 15.4979C18.1711 15.504 18.1752 15.5102 18.1793 15.5184L18.1863 15.5305C18.3953 15.8923 18.5077 16.0867 18.4996 16.2411C18.4914 16.4135 18.3928 16.5777 18.245 16.6763C18.1136 16.7666 17.8755 16.7666 17.4156 16.7666Z" fill="white"/>
</g>
<defs>
<clipPath id="clip0_3713_14935">
<rect width="24" height="24" fill="white"/>
</clipPath>
</defs>
</svg>
