<svg width="279" height="60" xmlns="http://www.w3.org/2000/svg"><g fill="none" fill-rule="evenodd"><ellipse fill="#D0D2F7" transform="rotate(152 186.576 7.807)" cx="186.576" cy="7.807" rx="5.576" ry="5.591"/><ellipse fill="#FF977D" transform="rotate(152 186.33 55.184)" cx="186.329" cy="55.184" rx="3.199" ry="3.207"/><ellipse fill="#A0A5EB" transform="rotate(152 63.998 54.382)" cx="63.998" cy="54.382" rx="3.998" ry="4.009"/><ellipse fill="#F0F1FF" transform="rotate(152 272.998 42.009)" cx="272.998" cy="42.009" rx="3.998" ry="4.009"/><path d="M234.443 35.345l-4.097-.004.004 4.117a1.262 1.262 0 01-2.156.895 1.272 1.272 0 01-.37-.898l-.005-4.117-4.097-.004a1.272 1.272 0 01-1.265-1.27c0-.703.563-1.27 1.262-1.27l4.097.005-.004-4.117c0-.702.563-1.269 1.262-1.268.699.001 1.264.569 1.265 1.271l.004 4.117 4.097.005c.7 0 1.264.568 1.265 1.27 0 .702-.563 1.27-1.262 1.268z" fill="#A0A5EB"/><path d="M9.35 28.682L9.347 32.8l4.097-.004c.7 0 1.263.566 1.262 1.268a1.272 1.272 0 01-1.264 1.27l-4.098.005-.004 4.117a1.272 1.272 0 01-1.265 1.271 1.262 1.262 0 01-1.262-1.268l.005-4.117-4.098.004a1.262 1.262 0 01-1.262-1.268c.001-.702.566-1.27 1.265-1.27l4.097-.005.005-4.117c0-.702.566-1.27 1.265-1.27.698-.002 1.262.565 1.262 1.267z" fill="#FF977D"/><path d="M81.443 16.345l-4.097-.004.004 4.117a1.262 1.262 0 01-2.156.895 1.272 1.272 0 01-.37-.898l-.005-4.117-4.097-.004a1.272 1.272 0 01-1.265-1.27c0-.703.563-1.27 1.262-1.27l4.097.005-.004-4.117c0-.702.563-1.269 1.262-1.268.699.001 1.264.569 1.265 1.271l.004 4.117 4.097.005c.7 0 1.264.568 1.265 1.27 0 .702-.563 1.27-1.262 1.268z" fill="#D660C3"/><g fill="#FFF"><path d="M161.083 47.25h-15.34a3.842 3.842 0 00-3.839 3.833 1.917 1.917 0 11-3.835 0 3.84 3.84 0 00-3.837-3.833h-15.313A1.917 1.917 0 01117 45.333V8.917c0-1.06.859-1.917 1.919-1.917h15.416l.013.002.014-.002c2.244 0 4.242 1.006 5.626 2.566C141.37 8.006 143.367 7 145.613 7c.01 0 .017.006.027.006.01 0 .017-.006.027-.006h15.416c1.058 0 1.917.857 1.917 1.917v36.416c0 1.06-.859 1.917-1.917 1.917zM138.07 14.538a3.71 3.71 0 00-3.707-3.705l-.014-.002-.013.002h-13.5v32.584h13.5c.036 0 .067.019.104.02a7.573 7.573 0 013.63 1.045V14.538zm21.096-3.705h-13.498c-.01 0-.017-.003-.027-.003-.01 0-.017.003-.027.003a3.71 3.71 0 00-3.709 3.705v29.946a7.591 7.591 0 013.684-1.052c.027-.002.05-.015.079-.015h13.498V10.833zm-15.342 23c0-1.06.859-1.916 1.919-1.916h9.587a1.917 1.917 0 110 3.833h-9.587a1.917 1.917 0 01-1.919-1.917zm11.506-5.75h-9.587a1.918 1.918 0 110-3.833h9.587a1.917 1.917 0 110 3.833zm0-7.666h-9.587a1.917 1.917 0 110-3.834h9.587a1.917 1.917 0 110 3.834zM124.646 35.75a1.917 1.917 0 110-3.833h9.587a1.917 1.917 0 110 3.833h-9.587zm9.587-7.667h-9.587a1.918 1.918 0 110-3.833h9.587a1.917 1.917 0 110 3.833zm0-7.666h-9.587a1.917 1.917 0 110-3.834h9.587a1.917 1.917 0 110 3.834z"/></g></g></svg>
