<!-- Copyright (c) 2023 The Brave Authors. All rights reserved.
This Source Code Form is subject to the terms of the Mozilla Public
License, v. 2.0. If a copy of the MPL was not distributed with this file,
You can obtain one at https://mozilla.org/MPL/2.0/. -->

<svg width="240" height="240" viewBox="0 0 240 240" fill="none" xmlns="http://www.w3.org/2000/svg">
<rect width="240" height="240" fill="url(#paint0_linear_777_22321)"/>
<g opacity="0.35" filter="url(#filter0_di_777_22321)">
<path d="M232.268 182.378C231.656 182.768 231.157 183.507 231.157 184.033C231.157 184.56 231.656 184.665 232.268 184.264C232.88 183.862 233.373 183.115 233.373 182.6C233.373 182.085 232.88 181.987 232.268 182.377L232.268 182.378Z" fill="#111217"/>
<path d="M232.268 173.963C231.472 174.403 230.822 175.311 230.822 175.998C230.822 176.685 231.472 176.874 232.268 176.414C233.064 175.954 233.704 175.035 233.704 174.367C233.704 173.7 233.064 173.522 232.268 173.963Z" fill="#111217"/>
<path d="M232.268 165.547C231.236 166.051 230.511 166.996 230.487 167.909C230.464 168.74 231.318 169.059 232.268 168.565C233.275 168.042 234.006 167.098 234.033 166.189C234.058 165.388 233.22 165.083 232.268 165.548L232.268 165.547Z" fill="#111217"/>
<path d="M232.268 157.131C231.023 157.636 230.176 158.72 230.151 159.766C230.129 160.759 231.141 161.213 232.268 160.715C233.476 160.181 234.334 159.103 234.362 158.063C234.388 157.114 233.396 156.674 232.268 157.131Z" fill="#111217"/>
<path d="M232.268 148.716C230.801 149.202 229.869 150.417 229.815 151.572C229.768 152.575 230.945 153.367 232.268 152.866C233.674 152.334 234.638 151.147 234.692 149.992C234.738 148.999 233.551 148.291 232.268 148.717L232.268 148.716Z" fill="#111217"/>
<path d="M232.268 140.301C230.576 140.702 229.522 142.055 229.479 143.324C229.44 144.451 230.685 145.475 232.268 145.016C233.891 144.546 234.976 143.244 235.019 141.975C235.057 140.859 233.789 139.94 232.268 140.301Z" fill="#111217"/>
<path d="M232.268 131.886C230.358 132.162 229.164 133.656 229.141 135.023C229.12 136.283 230.434 137.543 232.268 137.166C234.089 136.792 235.319 135.388 235.347 134.013C235.372 132.765 234.031 131.63 232.268 131.885L232.268 131.886Z" fill="#111217"/>
<path d="M232.268 123.47C230.149 123.586 228.813 125.2 228.803 126.671C228.794 128.078 230.178 129.566 232.268 129.318C234.283 129.078 235.662 127.568 235.674 126.107C235.684 124.711 234.249 123.363 232.268 123.471L232.268 123.47Z" fill="#111217"/>
<path d="M232.268 121.468C234.463 121.389 236 119.811 236 118.256C236 116.703 234.463 115.127 232.268 115.055C229.944 114.979 228.465 116.694 228.465 118.267C228.465 119.839 229.946 121.551 232.268 121.468Z" fill="#111217"/>
<path d="M232.268 53.8471C232.88 54.2371 233.373 54.1394 233.373 53.6243C233.373 53.1092 232.88 52.3625 232.268 51.9613C231.656 51.5601 231.157 51.6653 231.157 52.1916C231.157 52.718 231.656 53.4572 232.268 53.8471Z" fill="#111217"/>
<path d="M232.268 62.263C233.064 62.7036 233.704 62.5252 233.703 61.858C233.703 61.1908 233.064 60.2714 232.268 59.8113C231.472 59.3513 230.822 59.5409 230.822 60.2276C230.822 60.9142 231.472 61.823 232.268 62.2636L232.268 62.263Z" fill="#111217"/>
<path d="M232.268 70.6782C233.219 71.1433 234.057 70.8372 234.033 70.0373C234.006 69.1285 233.275 68.1834 232.268 67.6608C231.318 67.1669 230.465 67.4855 230.487 68.3167C230.511 69.2299 231.236 70.1744 232.268 70.6788L232.268 70.6782Z" fill="#111217"/>
<path d="M232.268 79.0935C233.396 79.551 234.388 79.1116 234.362 78.1628C234.334 77.1225 233.476 76.0441 232.268 75.5102C231.142 75.0119 230.129 75.4657 230.151 76.459C230.175 77.5056 231.022 78.5896 232.268 79.0941L232.268 79.0935Z" fill="#111217"/>
<path d="M232.268 87.5087C233.551 87.9343 234.737 87.2264 234.692 86.2331C234.638 85.0777 233.673 83.8916 232.269 83.359C230.946 82.8583 229.769 83.65 229.816 84.6527C229.87 85.8075 230.801 87.0218 232.269 87.5081L232.268 87.5087Z" fill="#111217"/>
<path d="M232.268 95.9246C233.789 96.2857 235.057 95.3669 235.019 94.2503C234.976 92.9816 233.891 91.6791 232.268 91.209C230.685 90.7509 229.44 91.7742 229.479 92.9015C229.522 94.1708 230.577 95.5227 232.268 95.9246Z" fill="#111217"/>
<path d="M232.268 104.34C234.03 104.594 235.372 103.46 235.347 102.212C235.32 100.837 234.09 99.4327 232.268 99.0584C230.432 98.681 229.12 99.9428 229.141 101.202C229.164 102.57 230.358 104.064 232.268 104.34L232.268 104.34Z" fill="#111217"/>
<path d="M232.268 112.754C234.25 112.862 235.685 111.515 235.674 110.118C235.662 108.658 234.284 107.148 232.268 106.908C230.177 106.659 228.794 108.148 228.803 109.554C228.813 111.026 230.149 112.64 232.268 112.755L232.268 112.754Z" fill="#111217"/>
<path d="M219.853 170.888C218.723 171.356 217.993 172.365 217.973 173.318C217.954 174.244 218.855 174.685 219.853 174.245C220.961 173.758 221.697 172.751 221.72 171.8C221.74 170.902 220.853 170.474 219.853 170.888Z" fill="#111217"/>
<path d="M219.853 161.525C218.484 162.01 217.671 163.183 217.619 164.262C217.577 165.169 218.596 165.999 219.853 165.512C221.184 164.996 222.016 163.839 222.068 162.758C222.111 161.854 221.083 161.09 219.853 161.525Z" fill="#111217"/>
<path d="M219.853 152.162C218.251 152.602 217.31 153.945 217.265 155.159C217.225 156.201 218.345 157.25 219.853 156.78C221.41 156.293 222.37 154.979 222.416 153.765C222.455 152.726 221.318 151.761 219.853 152.163L219.853 152.162Z" fill="#111217"/>
<path d="M219.853 142.8C218.018 143.166 216.94 144.664 216.91 146.009C216.884 147.191 218.088 148.475 219.853 148.046C221.63 147.615 222.732 146.163 222.763 144.819C222.791 143.641 221.563 142.458 219.853 142.8Z" fill="#111217"/>
<path d="M219.853 133.437C217.784 133.685 216.574 135.364 216.554 136.812C216.536 138.145 217.828 139.651 219.853 139.312C221.847 138.978 223.09 137.367 223.11 135.921C223.128 134.593 221.806 133.202 219.853 133.436L219.853 133.437Z" fill="#111217"/>
<path d="M219.853 124.074C217.551 124.183 216.207 126.008 216.198 127.571C216.19 129.064 217.574 130.806 219.853 130.579C222.062 130.359 223.447 128.63 223.457 127.073C223.465 125.587 222.042 123.97 219.853 124.074Z" fill="#111217"/>
<path d="M219.853 121.846C222.275 121.774 223.802 119.932 223.802 118.273C223.802 116.615 222.273 114.776 219.853 114.71C217.321 114.642 215.842 116.615 215.842 118.283C215.842 119.949 217.319 121.921 219.853 121.846Z" fill="#111217"/>
<path d="M219.853 65.3374C220.852 65.7511 221.74 65.3236 221.72 64.4255C221.698 63.4741 220.961 62.467 219.853 61.9801C218.855 61.5407 217.954 61.982 217.973 62.907C217.993 63.8603 218.723 64.8699 219.853 65.3374Z" fill="#111217"/>
<path d="M219.853 74.7003C221.083 75.1346 222.111 74.371 222.068 73.4666C222.016 72.3863 221.184 71.2284 219.853 70.7126C218.596 70.2257 217.577 71.0563 217.619 71.9632C217.67 73.0422 218.483 74.2158 219.853 74.6996L219.853 74.7003Z" fill="#111217"/>
<path d="M219.853 84.0625C221.319 84.4643 222.455 83.4992 222.416 82.4608C222.37 81.2459 221.41 79.9328 219.853 79.4458C218.346 78.9745 217.226 80.0248 217.265 81.0663C217.31 82.2793 218.25 83.6231 219.853 84.0625Z" fill="#111217"/>
<path d="M219.853 93.426C221.561 93.7671 222.791 92.5848 222.763 91.4068C222.731 90.0624 221.63 88.6115 219.853 88.1797C218.087 87.7503 216.884 89.0346 216.91 90.217C216.94 91.5614 218.019 93.0598 219.853 93.426Z" fill="#111217"/>
<path d="M219.853 102.788C221.806 103.022 223.128 101.632 223.11 100.304C223.09 98.8575 221.846 97.2465 219.853 96.9122C217.829 96.5724 216.537 98.0795 216.554 99.4127C216.574 100.86 217.784 102.54 219.853 102.788Z" fill="#111217"/>
<path d="M219.853 112.151C222.041 112.254 223.465 110.639 223.457 109.152C223.447 107.594 222.062 105.866 219.853 105.646C217.573 105.419 216.19 107.161 216.198 108.655C216.207 110.217 217.553 112.043 219.853 112.151Z" fill="#111217"/>
<path d="M206.802 195.945C206.124 196.243 205.574 196.996 205.574 197.632C205.574 198.267 206.125 198.537 206.802 198.23C207.479 197.923 208.025 197.162 208.025 196.536C208.025 195.91 207.479 195.647 206.802 195.946L206.802 195.945Z" fill="#111217"/>
<path d="M206.802 185.753C205.823 186.151 205.22 187.035 205.204 187.856C205.189 188.672 205.956 189.081 206.802 188.723C207.767 188.313 208.374 187.428 208.39 186.609C208.406 185.808 207.648 185.409 206.802 185.753Z" fill="#111217"/>
<path d="M206.802 175.561C205.586 175.985 204.85 177.054 204.835 178.039C204.819 179.048 205.761 179.601 206.802 179.216C207.998 178.773 208.739 177.706 208.756 176.723C208.774 175.738 207.843 175.198 206.802 175.561Z" fill="#111217"/>
<path d="M206.802 165.37C205.332 165.795 204.508 167.067 204.465 168.182C204.429 169.119 205.408 170.151 206.802 169.71C208.242 169.254 209.078 167.998 209.121 166.88C209.157 165.944 208.167 164.975 206.802 165.37L206.802 165.37Z" fill="#111217"/>
<path d="M206.802 155.177C205.094 155.56 204.133 157.025 204.094 158.284C204.061 159.373 205.161 160.621 206.802 160.203C208.471 159.776 209.447 158.338 209.486 157.076C209.519 155.989 208.404 154.817 206.802 155.177L206.802 155.177Z" fill="#111217"/>
<path d="M206.802 144.985C204.838 145.302 203.746 146.959 203.723 148.347C203.703 149.584 204.88 151.073 206.802 150.696C208.714 150.32 209.827 148.704 209.85 147.316C209.871 146.08 208.672 144.683 206.802 144.985Z" fill="#111217"/>
<path d="M206.802 134.793C204.589 135.017 203.364 136.851 203.353 138.369C203.341 139.768 204.617 141.496 206.802 141.188C208.949 140.887 210.2 139.114 210.214 137.597C210.227 136.201 208.923 134.578 206.802 134.792L206.802 134.793Z" fill="#111217"/>
<path d="M206.802 124.601C204.342 124.692 202.987 126.721 202.98 128.353C202.974 129.925 204.353 131.878 206.802 131.683C209.182 131.493 210.571 129.552 210.577 127.922C210.584 126.352 209.171 124.514 206.802 124.601Z" fill="#111217"/>
<path d="M206.802 122.176C209.41 122.112 210.94 120.039 210.94 118.289C210.94 116.54 209.41 114.468 206.802 114.409C204.097 114.349 202.609 116.544 202.609 118.297C202.609 120.048 204.097 122.242 206.802 122.176Z" fill="#111217"/>
<path d="M206.802 81.0482C208.404 81.4074 209.52 80.237 209.486 79.1485C209.447 77.8861 208.471 76.449 206.802 76.0222C205.162 75.6034 204.061 76.8515 204.094 77.9399C204.133 79.1992 205.094 80.6651 206.802 81.0475L206.802 81.0482Z" fill="#111217"/>
<path d="M206.802 91.2397C208.672 91.5414 209.871 90.1456 209.85 88.9088C209.827 87.5206 208.714 85.9045 206.802 85.5283C204.881 85.1509 203.704 86.64 203.723 87.8774C203.745 89.265 204.839 90.923 206.802 91.2391L206.802 91.2397Z" fill="#111217"/>
<path d="M206.802 101.432C208.923 101.647 210.227 100.024 210.214 98.6278C210.2 97.11 208.949 95.3368 206.802 95.0358C204.617 94.7291 203.341 96.4572 203.353 97.8555C203.365 99.3733 204.589 101.208 206.802 101.432Z" fill="#111217"/>
<path d="M206.802 111.623C209.171 111.711 210.584 109.872 210.577 108.304C210.571 106.673 209.182 104.733 206.802 104.543C204.353 104.346 202.974 106.301 202.98 107.872C202.987 109.504 204.34 111.533 206.802 111.624L206.802 111.623Z" fill="#111217"/>
<path d="M193.196 190.469C192.156 190.82 191.55 191.744 191.539 192.579C191.527 193.453 192.322 193.953 193.196 193.645C194.226 193.283 194.835 192.359 194.847 191.524C194.859 190.663 194.072 190.173 193.196 190.469Z" fill="#111217"/>
<path d="M193.196 179.566C191.907 179.94 191.167 181.064 191.156 182.07C191.144 183.151 192.12 183.808 193.196 183.476C194.47 183.084 195.214 181.963 195.227 180.958C195.241 179.897 194.276 179.254 193.196 179.567L193.196 179.566Z" fill="#111217"/>
<path d="M193.196 168.664C191.649 169.024 190.807 170.385 190.772 171.528C190.743 172.501 191.703 173.686 193.196 173.307C194.721 172.919 195.57 171.57 195.607 170.426C195.637 169.451 194.665 168.322 193.196 168.664Z" fill="#111217"/>
<path d="M193.196 157.762C191.39 158.098 190.412 159.65 190.388 160.951C190.367 162.078 191.432 163.512 193.196 163.138C194.972 162.761 195.961 161.232 195.986 159.929C196.008 158.801 194.929 157.439 193.196 157.762Z" fill="#111217"/>
<path d="M193.196 146.859C191.129 147.128 190.022 148.91 190.004 150.34C189.987 151.633 191.159 153.291 193.196 152.968C195.221 152.647 196.345 150.901 196.365 149.468C196.382 148.174 195.193 146.599 193.196 146.859Z" fill="#111217"/>
<path d="M193.196 135.957C190.868 136.149 189.629 138.125 189.619 139.697C189.61 141.157 190.886 143.064 193.196 142.799C195.472 142.538 196.732 140.616 196.743 139.043C196.753 137.583 195.453 135.77 193.196 135.957Z" fill="#111217"/>
<path d="M193.196 125.054C190.6 125.137 189.238 127.323 189.234 129.02C189.23 130.656 190.608 132.802 193.196 132.629C195.726 132.461 197.117 130.352 197.121 128.655C197.125 127.019 195.718 124.974 193.196 125.054Z" fill="#111217"/>
<path d="M193.196 122.46C195.965 122.404 197.499 120.128 197.499 118.302C197.499 116.476 195.964 114.202 193.196 114.151C190.349 114.099 188.848 116.483 188.849 118.309C188.849 120.134 190.348 122.517 193.196 122.46Z" fill="#111217"/>
<path d="M193.196 56.6587C194.275 56.9716 195.241 56.3276 195.227 55.2679C195.214 54.2627 194.47 53.1411 193.196 52.7493C192.119 52.4176 191.144 53.0747 191.156 54.1544C191.167 55.1603 191.907 56.2844 193.196 56.6587Z" fill="#111217"/>
<path d="M193.196 67.5612C194.665 67.903 195.637 66.7745 195.607 65.7993C195.571 64.6546 194.721 63.3057 193.196 62.9183C191.705 62.539 190.743 63.7238 190.772 64.6971C190.807 65.8394 191.649 67.2014 193.196 67.5606L193.196 67.5612Z" fill="#111217"/>
<path d="M193.196 78.4638C194.928 78.7868 196.008 77.4248 195.986 76.2963C195.961 74.9932 194.972 73.4641 193.196 73.0886C191.431 72.7143 190.368 74.1482 190.388 75.2748C190.411 76.5755 191.39 78.1277 193.196 78.4644L193.196 78.4638Z" fill="#111217"/>
<path d="M193.196 89.3664C195.193 89.6267 196.382 88.0514 196.365 86.757C196.345 85.3243 195.222 83.5793 193.196 83.2569C191.159 82.9327 189.987 84.592 190.004 85.8845C190.023 87.3153 191.129 89.0966 193.196 89.3657L193.196 89.3664Z" fill="#111217"/>
<path d="M193.196 100.268C195.454 100.455 196.753 98.6435 196.743 97.182C196.732 95.6085 195.471 93.687 193.196 93.4266C190.887 93.1618 189.61 95.069 189.619 96.5285C189.629 98.1002 190.868 100.076 193.196 100.268Z" fill="#111217"/>
<path d="M193.196 111.171C195.717 111.251 197.125 109.207 197.121 107.571C197.117 105.874 195.727 103.765 193.196 103.596C190.607 103.423 189.23 105.57 189.234 107.206C189.238 108.903 190.602 111.089 193.196 111.171Z" fill="#111217"/>
<path d="M179.124 171.409C177.514 171.701 176.655 173.139 176.627 174.299C176.602 175.312 177.555 176.615 179.124 176.304C180.715 175.989 181.58 174.559 181.609 173.397C181.634 172.381 180.674 171.128 179.124 171.409Z" fill="#111217"/>
<path d="M179.124 159.915C177.234 160.185 176.249 161.846 176.231 163.158C176.216 164.327 177.257 165.887 179.124 165.583C180.989 165.279 181.983 163.634 182.001 162.321C182.017 161.15 180.963 159.653 179.124 159.915Z" fill="#111217"/>
<path d="M179.124 148.42C176.964 148.649 175.847 150.522 175.836 151.988C175.826 153.325 176.98 155.137 179.124 154.861C181.251 154.588 182.38 152.743 182.392 151.275C182.403 149.935 181.233 148.197 179.124 148.42Z" fill="#111217"/>
<path d="M179.124 136.925C176.692 137.078 175.448 139.189 175.44 140.792C175.432 142.307 176.701 144.352 179.124 144.139C181.513 143.929 182.774 141.862 182.783 140.257C182.791 138.739 181.503 136.776 179.124 136.925Z" fill="#111217"/>
<path d="M179.124 125.431C176.421 125.498 175.047 127.821 175.044 129.569C175.041 131.262 176.425 133.56 179.124 133.417C181.774 133.277 183.169 131.018 183.173 129.27C183.177 127.574 181.768 125.364 179.124 125.431Z" fill="#111217"/>
<path d="M179.124 122.696C182.038 122.65 183.564 120.195 183.564 118.313C183.564 116.432 182.039 113.979 179.124 113.937C176.145 113.894 174.647 116.438 174.647 118.319C174.647 120.2 176.144 122.743 179.124 122.696L179.124 122.696Z" fill="#111217"/>
<path d="M179.124 41.8273C180.025 42.0745 180.836 41.5025 180.826 40.5899C180.817 39.7474 180.208 38.7879 179.124 38.4781C178.224 38.2209 177.409 38.803 177.417 39.7268C177.424 40.5693 178.034 41.5281 179.124 41.8273Z" fill="#111217"/>
<path d="M179.124 53.3214C180.404 53.6181 181.245 52.5715 181.218 51.7228C181.186 50.7082 180.457 49.5272 179.124 49.1992C177.83 48.8806 176.996 49.9659 177.022 50.8121C177.053 51.8248 177.78 53.0097 179.124 53.3208L179.124 53.3214Z" fill="#111217"/>
<path d="M179.124 64.816C180.674 65.0971 181.635 63.8434 181.609 62.8282C181.58 61.6665 180.714 60.2369 179.124 59.9215C177.555 59.6098 176.603 60.9136 176.627 61.9269C176.654 63.0867 177.514 64.525 179.124 64.8167L179.124 64.816Z" fill="#111217"/>
<path d="M179.124 76.3107C180.964 76.5736 182.018 75.0764 182.001 73.9041C181.982 72.5916 180.988 70.9467 179.124 70.6432C177.259 70.339 176.216 71.8987 176.231 73.0685C176.249 74.3786 177.233 76.0409 179.124 76.3113L179.124 76.3107Z" fill="#111217"/>
<path d="M179.124 87.8047C181.234 88.0282 182.403 86.2888 182.392 84.9506C182.38 83.4823 181.251 81.6377 179.124 81.3642C176.98 81.0882 175.826 82.9002 175.836 84.2371C175.847 85.703 176.963 87.5757 179.124 87.8047Z" fill="#111217"/>
<path d="M179.124 99.2994C181.502 99.4484 182.791 97.4862 182.783 95.9678C182.775 94.3629 181.513 92.2962 179.124 92.0859C176.701 91.8725 175.432 93.9173 175.44 95.4332C175.448 97.0374 176.693 99.1467 179.124 99.2994Z" fill="#111217"/>
<path d="M179.124 110.794C181.768 110.86 183.177 108.652 183.173 106.955C183.169 105.205 181.774 102.948 179.124 102.808C176.426 102.664 175.041 104.963 175.044 106.656C175.047 108.403 176.422 110.726 179.124 110.794Z" fill="#111217"/>
<path d="M164.669 185.573C163.286 185.815 162.541 187.049 162.517 188.066C162.497 188.945 163.325 190.115 164.669 189.865C166.042 189.61 166.789 188.377 166.813 187.358C166.834 186.477 166.003 185.339 164.668 185.574L164.669 185.573Z" fill="#111217"/>
<path d="M164.669 173.605C163.011 173.829 162.135 175.327 162.113 176.496C162.094 177.549 163.041 178.942 164.669 178.702C166.312 178.46 167.192 176.965 167.215 175.794C167.235 174.739 166.282 173.388 164.669 173.605Z" fill="#111217"/>
<path d="M164.669 161.637C162.719 161.845 161.722 163.578 161.709 164.903C161.697 166.114 162.735 167.774 164.669 167.538C166.6 167.302 167.602 165.579 167.616 164.253C167.629 163.038 166.581 161.432 164.669 161.637Z" fill="#111217"/>
<path d="M164.669 149.669C162.44 149.848 161.313 151.802 161.305 153.29C161.298 154.672 162.452 156.592 164.669 156.375C166.872 156.16 168.008 154.226 168.017 152.736C168.025 151.351 166.859 149.493 164.669 149.669L164.669 149.669Z" fill="#111217"/>
<path d="M164.669 137.7C162.154 137.824 160.905 140.021 160.9 141.656C160.897 143.213 162.158 145.383 164.669 145.211C167.151 145.042 168.413 142.877 168.418 141.24C168.423 139.68 167.144 137.578 164.669 137.7Z" fill="#111217"/>
<path d="M164.669 125.732C161.882 125.786 160.497 128.215 160.495 130.002C160.492 131.745 161.884 134.16 164.669 134.048C167.415 133.938 168.816 131.558 168.818 129.77C168.821 128.023 167.411 125.68 164.669 125.732Z" fill="#111217"/>
<path d="M164.669 122.885C167.691 122.848 169.218 120.254 169.218 118.322C169.218 116.392 167.691 113.797 164.669 113.764C161.596 113.731 160.09 116.397 160.09 118.326C160.09 120.255 161.596 122.921 164.669 122.884L164.669 122.885Z" fill="#111217"/>
<path d="M164.669 26.7156C165.41 26.8758 166.01 26.4114 166.01 25.6735C166.01 24.9355 165.41 24.1982 164.669 24.033C163.927 23.8677 163.325 24.3403 163.325 25.0839C163.325 25.8274 163.928 26.5554 164.669 26.7156Z" fill="#111217"/>
<path d="M164.669 38.684C165.591 38.8825 166.418 38.2359 166.412 37.2814C166.406 36.4371 165.795 35.4494 164.669 35.1965C163.748 34.99 162.917 35.6472 162.922 36.6104C162.926 37.4548 163.537 38.4406 164.669 38.684Z" fill="#111217"/>
<path d="M164.669 50.6519C166.004 50.886 166.834 49.7481 166.814 48.8675C166.789 47.8485 166.043 46.6161 164.669 46.3601C163.324 46.1097 162.498 47.2802 162.518 48.1589C162.54 49.176 163.286 50.409 164.669 50.6519Z" fill="#111217"/>
<path d="M164.669 62.6204C166.282 62.8375 167.235 61.4862 167.215 60.4316C167.192 59.2612 166.312 57.7659 164.669 57.5237C163.042 57.2839 162.095 58.6766 162.113 59.73C162.135 60.8979 163.011 62.3969 164.669 62.6204Z" fill="#111217"/>
<path d="M164.669 74.5882C166.582 74.7929 167.629 73.1862 167.616 71.972C167.602 70.6457 166.598 68.9226 164.669 68.6872C162.736 68.4513 161.697 70.1099 161.709 71.3223C161.723 72.6467 162.718 74.3798 164.669 74.5889L164.669 74.5882Z" fill="#111217"/>
<path d="M164.669 86.5567C166.861 86.7332 168.025 84.8743 168.017 83.4904C168.009 82.0008 166.873 80.0655 164.669 79.8508C162.451 79.6342 161.298 81.5539 161.306 82.9359C161.313 84.4236 162.44 86.3777 164.669 86.5573L164.669 86.5567Z" fill="#111217"/>
<path d="M164.669 98.5246C167.145 98.6472 168.423 96.5442 168.418 94.9845C168.413 93.3484 167.152 91.1834 164.669 91.0137C162.157 90.8423 160.896 93.0116 160.9 94.5689C160.905 96.2037 162.154 98.3994 164.669 98.5246Z" fill="#111217"/>
<path d="M164.669 110.493C167.41 110.546 168.821 108.203 168.818 106.456C168.816 104.667 167.416 102.288 164.669 102.177C161.883 102.065 160.493 104.481 160.496 106.224C160.498 108.011 161.883 110.439 164.669 110.493Z" fill="#111217"/>
<path d="M149.916 212.221C149.162 212.336 148.55 213.044 148.55 213.809C148.55 214.574 149.162 215.102 149.916 214.983C150.671 214.866 151.282 214.149 151.282 213.388C151.282 212.627 150.671 212.107 149.916 212.221Z" fill="#111217"/>
<path d="M149.916 199.898C148.753 200.083 148.14 201.088 148.139 201.927C148.137 202.92 148.978 203.644 149.916 203.488C151.076 203.296 151.689 202.288 151.691 201.448C151.694 200.461 150.856 199.748 149.916 199.897L149.916 199.898Z" fill="#111217"/>
<path d="M149.916 187.575C148.508 187.747 147.744 189.016 147.729 190.03C147.715 190.941 148.535 192.174 149.916 191.994C151.318 191.812 152.083 190.54 152.1 189.524C152.115 188.612 151.291 187.406 149.916 187.575Z" fill="#111217"/>
<path d="M149.916 175.251C148.208 175.423 147.328 176.944 147.318 178.117C147.309 179.188 148.223 180.685 149.916 180.499C151.616 180.312 152.497 178.79 152.508 177.616C152.519 176.542 151.599 175.082 149.916 175.251Z" fill="#111217"/>
<path d="M149.916 162.928C147.925 163.075 146.917 164.859 146.907 166.189C146.899 167.439 147.933 169.171 149.916 169.005C151.896 168.839 152.907 167.056 152.917 165.725C152.927 164.472 151.883 162.784 149.916 162.928Z" fill="#111217"/>
<path d="M149.916 150.605C147.638 150.733 146.502 152.748 146.496 154.247C146.491 155.667 147.645 157.666 149.916 157.51C152.177 157.355 153.319 155.351 153.326 153.85C153.332 152.427 152.169 150.478 149.916 150.605Z" fill="#111217"/>
<path d="M149.916 138.282C147.347 138.371 146.088 140.635 146.085 142.289C146.082 143.886 147.348 146.139 149.916 146.015C152.465 145.893 153.73 143.648 153.734 141.993C153.737 140.393 152.459 138.194 149.916 138.282Z" fill="#111217"/>
<path d="M149.916 125.958C147.063 125.992 145.676 128.51 145.674 130.318C145.672 132.1 147.062 134.596 149.916 134.521C152.742 134.446 154.139 131.961 154.142 130.152C154.144 128.368 152.74 125.925 149.916 125.958Z" fill="#111217"/>
<path d="M149.916 123.026C153.02 123 154.55 120.297 154.55 118.329C154.55 116.361 153.02 113.659 149.916 113.636C146.778 113.612 145.262 116.366 145.262 118.332C145.262 120.298 146.777 123.052 149.916 123.026Z" fill="#111217"/>
<path d="M149.916 60.9736C151.6 61.1426 152.519 59.6818 152.508 58.6083C152.497 57.4335 151.615 55.9113 149.916 55.7254C148.224 55.5396 147.309 57.0361 147.318 58.1076C147.328 59.2806 148.206 60.8015 149.916 60.9736Z" fill="#111217"/>
<path d="M149.916 73.297C151.884 73.4416 152.927 71.7529 152.917 70.5005C152.907 69.1692 151.894 67.3866 149.916 67.2207C147.935 67.0543 146.898 68.7861 146.907 70.036C146.917 71.3661 147.923 73.1505 149.916 73.297Z" fill="#111217"/>
<path d="M149.916 85.6203C152.169 85.748 153.331 83.7977 153.326 82.3751C153.32 80.8742 152.177 78.87 149.916 78.7154C147.644 78.5596 146.491 80.5587 146.496 81.9789C146.501 83.4785 147.638 85.4914 149.916 85.6203Z" fill="#111217"/>
<path d="M149.916 97.9431C152.461 98.032 153.737 95.8307 153.734 94.2321C153.73 92.5766 152.464 90.3315 149.916 90.2088C147.348 90.0849 146.082 92.3388 146.085 93.9354C146.088 95.5897 147.345 97.8536 149.916 97.9431Z" fill="#111217"/>
<path d="M149.916 110.266C152.742 110.3 154.144 107.857 154.142 106.073C154.139 104.264 152.742 101.779 149.916 101.704C147.062 101.629 145.672 104.124 145.674 105.907C145.677 107.714 147.061 110.233 149.916 110.266L149.916 110.266Z" fill="#111217"/>
<path d="M134.951 188.908C133.528 189.012 132.748 190.301 132.74 191.305C132.732 192.246 133.546 193.521 134.951 193.413C136.37 193.304 137.15 192.007 137.16 191.002C137.17 190.061 136.354 188.807 134.951 188.909L134.951 188.908Z" fill="#111217"/>
<path d="M134.951 176.348C133.219 176.452 132.33 177.999 132.324 179.164C132.319 180.267 133.229 181.809 134.951 181.697C136.677 181.585 137.567 180.029 137.574 178.864C137.58 177.76 136.667 176.246 134.951 176.348Z" fill="#111217"/>
<path d="M134.951 163.788C132.932 163.872 131.916 165.688 131.91 167.014C131.903 168.298 132.937 170.077 134.951 169.981C136.963 169.886 137.981 168.063 137.988 166.736C137.995 165.45 136.956 163.705 134.951 163.788L134.951 163.788Z" fill="#111217"/>
<path d="M134.951 151.229C132.643 151.307 131.497 153.356 131.494 154.857C131.491 156.31 132.645 158.361 134.951 158.267C137.251 158.173 138.398 156.122 138.402 154.62C138.405 153.166 137.244 151.152 134.951 151.23L134.951 151.229Z" fill="#111217"/>
<path d="M134.951 138.669C132.345 138.723 131.081 141.029 131.079 142.691C131.078 144.318 132.344 146.625 134.951 146.551C137.546 146.477 138.813 144.176 138.815 142.513C138.818 140.885 137.541 138.615 134.951 138.669Z" fill="#111217"/>
<path d="M134.951 126.109C132.052 126.132 130.665 128.692 130.664 130.517C130.663 132.323 132.051 134.884 134.951 134.836C137.834 134.788 139.227 132.243 139.229 130.418C139.23 128.61 137.832 126.086 134.951 126.109Z" fill="#111217"/>
<path d="M134.951 123.121C138.112 123.105 139.642 120.325 139.642 118.334C139.642 116.342 138.112 113.564 134.951 113.549C131.77 113.535 130.248 116.345 130.248 118.336C130.248 120.326 131.77 123.136 134.951 123.121Z" fill="#111217"/>
<path d="M134.951 47.3165C136.354 47.4179 137.17 46.1648 137.16 45.2235C137.15 44.2183 136.37 42.9214 134.951 42.8125C133.545 42.7042 132.731 43.9792 132.739 44.9205C132.748 45.9238 133.528 47.2132 134.951 47.3165Z" fill="#111217"/>
<path d="M134.951 59.8771C136.668 59.9791 137.581 58.465 137.574 57.3615C137.567 56.1949 136.676 54.6408 134.951 54.5281C133.23 54.4161 132.319 55.9589 132.324 57.0611C132.33 58.2259 133.219 59.7738 134.951 59.8771Z" fill="#111217"/>
<path d="M134.951 72.4364C136.957 72.5184 137.995 70.774 137.988 69.4884C137.981 68.1615 136.962 66.3388 134.951 66.2437C132.937 66.1486 131.904 67.9261 131.91 69.2105C131.915 70.5368 132.932 72.3538 134.951 72.437L134.951 72.4364Z" fill="#111217"/>
<path d="M134.951 84.9963C137.246 85.0733 138.405 83.0592 138.402 81.6052C138.398 80.103 137.25 78.0519 134.951 77.9587C132.646 77.8648 131.492 79.9153 131.494 81.368C131.497 82.8689 132.641 84.9187 134.951 84.9963Z" fill="#111217"/>
<path d="M134.951 97.5563C137.541 97.6095 138.818 95.3406 138.815 93.712C138.813 92.049 137.544 89.7475 134.951 89.6743C132.345 89.6004 131.077 91.9069 131.079 93.5342C131.081 95.1972 132.344 97.5037 134.951 97.5569L134.951 97.5563Z" fill="#111217"/>
<path d="M134.951 110.116C137.834 110.139 139.23 107.614 139.229 105.808C139.227 103.983 137.836 101.437 134.951 101.39C132.049 101.342 130.663 103.904 130.664 105.708C130.664 107.532 132.051 110.093 134.951 110.116Z" fill="#111217"/>
<path d="M7.732 182.378C8.34386 182.768 8.84339 183.507 8.84339 184.033C8.84339 184.56 8.34386 184.665 7.732 184.264C7.12014 183.862 6.62688 183.115 6.62688 182.6C6.62688 182.085 7.12014 181.987 7.732 182.377L7.732 182.378Z" fill="#111217"/>
<path d="M7.732 173.962C8.52773 174.403 9.1785 175.311 9.1785 175.998C9.1785 176.685 8.52773 176.874 7.732 176.414C6.93627 175.954 6.29679 175.035 6.29679 174.367C6.29679 173.7 6.93627 173.522 7.732 173.962Z" fill="#111217"/>
<path d="M7.732 165.547C8.76432 166.051 9.4885 166.996 9.51297 167.909C9.53556 168.74 8.6821 169.059 7.732 168.565C6.72605 168.042 5.99431 167.098 5.96671 166.189C5.94223 165.388 6.78002 165.083 7.732 165.548L7.732 165.547Z" fill="#111217"/>
<path d="M7.732 157.131C8.97706 157.636 9.82424 158.72 9.84871 159.766C9.8713 160.759 8.85845 161.213 7.732 160.715C6.52398 160.181 5.66611 159.103 5.63787 158.063C5.61214 157.114 6.60367 156.674 7.732 157.131Z" fill="#111217"/>
<path d="M7.732 148.716C9.19858 149.202 10.1311 150.417 10.1851 151.572C10.2315 152.575 9.05486 153.367 7.732 152.866C6.3263 152.334 5.36239 151.147 5.30904 149.992C5.26259 148.999 6.4493 148.291 7.732 148.717L7.732 148.716Z" fill="#111217"/>
<path d="M7.732 140.301C9.42387 140.702 10.4781 142.055 10.5214 143.324C10.5604 144.451 9.31467 145.475 7.732 145.016C6.10917 144.546 5.0235 143.244 4.98084 141.975C4.94318 140.859 6.21084 139.94 7.732 140.301Z" fill="#111217"/>
<path d="M7.732 131.886C9.64288 132.162 10.8359 133.656 10.8591 135.023C10.8804 136.283 9.56632 137.543 7.732 137.166C5.91086 136.792 4.68087 135.388 4.65325 134.013C4.62815 132.765 5.96923 131.63 7.732 131.885L7.732 131.886Z" fill="#111217"/>
<path d="M7.732 123.47C9.85059 123.586 11.1866 125.2 11.1967 126.671C11.2061 128.078 9.82172 129.566 7.732 129.318C5.71633 129.078 4.33761 127.568 4.3263 126.107C4.31501 124.711 5.75021 123.363 7.732 123.471L7.732 123.47Z" fill="#111217"/>
<path d="M7.732 121.468C5.53747 121.389 3.99999 119.812 3.99999 118.256C3.99999 116.703 5.53684 115.127 7.732 115.055C10.0564 114.979 11.5349 116.694 11.5349 118.267C11.5349 119.839 10.0539 121.551 7.732 121.468Z" fill="#111217"/>
<path d="M7.73201 53.8471C7.12015 54.2371 6.62689 54.1394 6.62689 53.6243C6.62689 53.1092 7.12015 52.3625 7.73201 51.9613C8.3445 51.5601 8.8434 51.6652 8.8434 52.1916C8.8434 52.718 8.3445 53.4572 7.73201 53.8471Z" fill="#111217"/>
<path d="M7.73201 62.263C6.93628 62.7036 6.2968 62.5252 6.2968 61.858C6.2968 61.1908 6.93628 60.2714 7.73201 59.8113C8.52774 59.3513 9.17851 59.5409 9.17851 60.2275C9.17851 60.9141 8.52836 61.823 7.73201 62.2636L7.73201 62.263Z" fill="#111217"/>
<path d="M7.73201 70.6782C6.78065 71.1432 5.94287 70.8372 5.96672 70.0373C5.99432 69.1285 6.72543 68.1834 7.73201 67.6607C8.68211 67.1669 9.53494 67.4855 9.51298 68.3167C9.48851 69.2299 8.76433 70.1744 7.73201 70.6788L7.73201 70.6782Z" fill="#111217"/>
<path d="M7.73201 79.0934C6.60305 79.551 5.61152 79.1116 5.63725 78.1627C5.66549 77.1225 6.52336 76.044 7.73138 75.5102C8.85783 75.0119 9.87068 75.4657 9.8481 76.459C9.82425 77.5055 8.97706 78.5896 7.73201 79.0941L7.73201 79.0934Z" fill="#111217"/>
<path d="M7.73201 87.5087C6.44868 87.9343 5.2626 87.2264 5.30905 86.2331C5.36302 85.0777 6.32693 83.8916 7.73201 83.359C9.05424 82.8582 10.2315 83.65 10.1851 84.6527C10.1311 85.8075 9.19984 87.0217 7.73201 87.5081L7.73201 87.5087Z" fill="#111217"/>
<path d="M7.73201 95.9245C6.21147 96.2857 4.94256 95.3669 4.98085 94.2503C5.02413 92.9816 6.10855 91.679 7.73201 91.209C9.31468 90.7508 10.561 91.7742 10.5214 92.9014C10.4775 94.1708 9.42324 95.5227 7.73201 95.9245Z" fill="#111217"/>
<path d="M7.732 104.34C5.96986 104.594 4.62815 103.46 4.65325 102.212C4.68025 100.837 5.91024 99.4327 7.732 99.0584C9.56758 98.681 10.8804 99.9428 10.8591 101.202C10.8359 102.57 9.64225 104.064 7.732 104.34L7.732 104.34Z" fill="#111217"/>
<path d="M7.732 112.754C5.75021 112.862 4.31564 111.514 4.3263 110.118C4.33761 108.658 5.71569 107.148 7.732 106.908C9.82299 106.659 11.2061 108.148 11.1967 109.554C11.1866 111.026 9.85059 112.64 7.732 112.755L7.732 112.754Z" fill="#111217"/>
<path d="M20.1461 170.888C21.2763 171.356 22.0062 172.365 22.0262 173.318C22.0457 174.244 21.1446 174.685 20.1461 174.245C19.0385 173.758 18.3024 172.751 18.2798 171.8C18.2591 170.902 19.1464 170.474 20.1461 170.888Z" fill="#111217"/>
<path d="M20.1461 161.525C21.5154 162.01 22.3294 163.183 22.3802 164.262C22.4235 165.169 21.4031 165.999 20.1461 165.512C18.8157 164.996 17.9836 163.839 17.9315 162.758C17.8882 161.854 18.9168 161.09 20.1461 161.525Z" fill="#111217"/>
<path d="M20.1461 152.162C21.7483 152.602 22.6889 153.945 22.7347 155.159C22.7737 156.201 21.6541 157.25 20.1461 156.78C18.5892 156.293 17.6297 154.979 17.5839 153.765C17.5443 152.726 18.6814 151.761 20.1461 152.163L20.1461 152.162Z" fill="#111217"/>
<path d="M20.1461 142.8C21.9817 143.166 23.0598 144.664 23.0893 146.009C23.115 147.191 21.9114 148.475 20.1461 148.046C18.3695 147.615 17.2676 146.163 17.2362 144.819C17.2086 143.641 18.4367 142.458 20.1461 142.8Z" fill="#111217"/>
<path d="M20.1461 133.437C22.2151 133.685 23.4257 135.364 23.4445 136.812C23.4627 138.145 22.1706 139.651 20.1461 139.312C18.1524 138.978 16.9092 137.367 16.8898 135.921C16.8722 134.593 18.1938 133.202 20.1461 133.436L20.1461 133.437Z" fill="#111217"/>
<path d="M20.1461 124.074C22.448 124.183 23.7928 126.008 23.801 127.571C23.8085 129.064 22.4254 130.806 20.1461 130.579C17.9378 130.359 16.5522 128.63 16.5427 127.072C16.534 125.587 17.9572 123.97 20.1461 124.074Z" fill="#111217"/>
<path d="M20.1461 121.846C17.7244 121.774 16.197 119.932 16.197 118.273C16.197 116.615 17.7263 114.776 20.1461 114.71C22.6783 114.641 24.1574 116.615 24.1574 118.283C24.1574 119.949 22.6802 121.921 20.1461 121.846Z" fill="#111217"/>
<path d="M20.1461 65.3374C19.1465 65.7511 18.2591 65.3236 18.2798 64.4255C18.3018 63.4741 19.0379 62.467 20.1461 61.9801C21.1439 61.5407 22.0451 61.9819 22.0256 62.907C22.0062 63.8603 21.2757 64.8699 20.1461 65.3374Z" fill="#111217"/>
<path d="M20.1461 74.7002C18.9168 75.1346 17.8882 74.371 17.9315 73.4666C17.9836 72.3863 18.8157 71.2284 20.1461 70.7126C21.4025 70.2257 22.4229 71.0562 22.3802 71.9632C22.3294 73.0422 21.5161 74.2158 20.1461 74.6996L20.1461 74.7002Z" fill="#111217"/>
<path d="M20.1461 84.0625C18.6808 84.4643 17.5443 83.4992 17.5839 82.4608C17.6297 81.2459 18.5898 79.9328 20.1461 79.4458C21.6535 78.9745 22.7737 80.0248 22.7348 81.0663C22.6889 82.2793 21.7489 83.6231 20.1461 84.0625Z" fill="#111217"/>
<path d="M20.1461 93.4259C18.438 93.7671 17.2086 92.5847 17.2362 91.4068C17.2682 90.0624 18.3689 88.6115 20.1461 88.1796C21.9127 87.7503 23.115 89.0346 23.0893 90.217C23.0598 91.5614 21.9804 93.0598 20.1461 93.4259Z" fill="#111217"/>
<path d="M20.1461 102.788C18.1938 103.022 16.8716 101.632 16.8898 100.304C16.9092 98.8575 18.153 97.2464 20.1461 96.9122C22.1706 96.5723 23.4627 98.0795 23.4445 99.4127C23.425 100.86 22.2145 102.54 20.1461 102.788Z" fill="#111217"/>
<path d="M20.1461 112.151C17.9585 112.254 16.534 110.639 16.5427 109.152C16.5522 107.594 17.9365 105.866 20.1461 105.646C22.426 105.419 23.8091 107.161 23.801 108.655C23.7928 110.217 22.4467 112.043 20.1461 112.151Z" fill="#111217"/>
<path d="M33.1984 195.945C33.8749 196.243 34.4259 196.996 34.4259 197.632C34.4259 198.267 33.8749 198.537 33.1984 198.23C32.5213 197.923 31.9754 197.162 31.9754 196.536C31.9754 195.91 32.5213 195.647 33.1984 195.946L33.1984 195.945Z" fill="#111217"/>
<path d="M33.1984 185.753C34.1762 186.151 34.7805 187.035 34.7955 187.856C34.81 188.672 34.0444 189.081 33.1984 188.722C32.2333 188.313 31.6258 187.428 31.6095 186.609C31.5938 185.808 32.3519 185.409 33.1984 185.753Z" fill="#111217"/>
<path d="M33.1984 175.561C34.414 175.985 35.1501 177.054 35.1652 178.039C35.1809 179.048 34.2389 179.601 33.1984 179.216C32.0017 178.773 31.2612 177.706 31.2436 176.723C31.2261 175.738 32.1561 175.198 33.1984 175.561Z" fill="#111217"/>
<path d="M33.1984 165.369C34.6675 165.795 35.4928 167.067 35.5348 168.182C35.5706 169.119 34.5916 170.151 33.1984 169.71C31.7582 169.254 30.9217 167.998 30.8784 166.88C30.842 165.944 31.8323 164.975 33.1984 165.37L33.1984 165.369Z" fill="#111217"/>
<path d="M33.1984 155.177C34.9066 155.56 35.8668 157.025 35.9057 158.284C35.9389 159.373 34.8389 160.621 33.1984 160.203C31.5286 159.776 30.5527 158.338 30.5138 157.076C30.4799 155.988 31.5957 154.817 33.1984 155.177L33.1984 155.177Z" fill="#111217"/>
<path d="M33.1984 144.985C35.162 145.302 36.254 146.959 36.2759 148.347C36.296 149.584 35.12 151.073 33.1984 150.696C31.2857 150.32 30.173 148.704 30.1498 147.316C30.1291 146.08 31.3271 144.683 33.1984 144.985Z" fill="#111217"/>
<path d="M33.1984 134.793C35.4106 135.017 36.6349 136.851 36.6474 138.369C36.6587 139.768 35.3829 141.496 33.1984 141.188C31.051 140.887 29.7997 139.114 29.7858 137.597C29.7733 136.201 31.0767 134.578 33.1984 134.792L33.1984 134.793Z" fill="#111217"/>
<path d="M33.1984 124.601C35.6578 124.692 37.0127 126.721 37.0189 128.353C37.0259 129.925 35.6459 131.878 33.1984 131.683C30.8182 131.493 29.4294 129.552 29.4225 127.922C29.4162 126.352 30.8295 124.514 33.1984 124.601Z" fill="#111217"/>
<path d="M33.1984 122.176C30.5897 122.112 29.0598 120.039 29.0592 118.289C29.0592 116.54 30.5891 114.468 33.1984 114.409C35.9032 114.349 37.3911 116.544 37.3911 118.297C37.3911 120.048 35.9026 122.242 33.1984 122.176Z" fill="#111217"/>
<path d="M33.1985 81.0481C31.5957 81.4074 30.4799 80.237 30.5138 79.1485C30.5534 77.8861 31.5286 76.449 33.1985 76.0222C34.8376 75.6034 35.9389 76.8515 35.9057 77.9399C35.8674 79.1992 34.906 80.6651 33.1985 81.0475L33.1985 81.0481Z" fill="#111217"/>
<path d="M33.1985 91.2397C31.3277 91.5414 30.1291 90.1456 30.1499 88.9088C30.1731 87.5206 31.2863 85.9045 33.1985 85.5283C35.1194 85.1509 36.296 86.6399 36.2759 87.8773C36.254 89.265 35.1614 90.923 33.1985 91.2391L33.1985 91.2397Z" fill="#111217"/>
<path d="M33.1985 101.432C31.0767 101.647 29.7733 100.024 29.7859 98.6278C29.7997 97.11 31.051 95.3368 33.1985 95.0358C35.3829 94.7291 36.6594 96.4572 36.6474 97.8555C36.6349 99.3733 35.4106 101.208 33.1985 101.432Z" fill="#111217"/>
<path d="M33.1984 111.623C30.8288 111.711 29.4162 109.872 29.4225 108.304C29.4294 106.673 30.8182 104.733 33.1985 104.543C35.6459 104.346 37.0259 106.301 37.0189 107.872C37.012 109.504 35.6591 111.533 33.1984 111.624L33.1984 111.623Z" fill="#111217"/>
<path d="M46.8036 190.469C47.8435 190.82 48.4497 191.744 48.461 192.579C48.4729 193.453 47.6784 193.953 46.8036 193.645C45.7745 193.283 45.1658 192.359 45.1532 191.524C45.1407 190.663 45.9276 190.173 46.8036 190.469Z" fill="#111217"/>
<path d="M46.8036 179.566C48.0926 179.94 48.8331 181.064 48.8438 182.07C48.8551 183.151 47.8799 183.808 46.8036 183.476C45.531 183.084 44.7861 181.963 44.7735 180.958C44.7597 179.897 45.7249 179.254 46.8036 179.567L46.8036 179.566Z" fill="#111217"/>
<path d="M46.8036 168.664C48.3512 169.024 49.1933 170.385 49.2279 171.528C49.2573 172.501 48.2966 173.686 46.8036 173.307C45.2793 172.919 44.4296 171.57 44.3939 170.426C44.3631 169.451 45.3352 168.322 46.8036 168.664Z" fill="#111217"/>
<path d="M46.8036 157.762C48.611 158.098 49.5887 159.65 49.6119 160.951C49.6326 162.078 48.5689 163.512 46.8036 163.138C45.0283 162.761 44.0393 161.232 44.0142 159.929C43.9922 158.801 45.071 157.439 46.8036 157.762Z" fill="#111217"/>
<path d="M46.8036 146.859C48.8714 147.128 49.9778 148.91 49.9966 150.34C50.0135 151.633 48.8413 153.291 46.8036 152.968C44.7792 152.647 43.6546 150.901 43.6358 149.468C43.6182 148.174 44.8074 146.599 46.8036 146.859Z" fill="#111217"/>
<path d="M46.8036 135.957C49.1318 136.149 50.3712 138.125 50.3813 139.697C50.3907 141.157 49.1143 143.064 46.8036 142.799C44.5282 142.538 43.2681 140.616 43.2568 139.043C43.2467 137.583 44.547 135.77 46.8036 135.957Z" fill="#111217"/>
<path d="M46.8037 125.054C49.3998 125.137 50.7622 127.323 50.766 129.02C50.7697 130.656 49.3923 132.802 46.8037 132.629C44.2747 132.461 42.884 130.352 42.879 128.655C42.8746 127.019 44.2809 124.974 46.8037 125.054Z" fill="#111217"/>
<path d="M46.8036 122.46C44.0349 122.404 42.5012 120.128 42.5012 118.302C42.5012 116.476 44.0355 114.202 46.8036 114.151C49.6515 114.099 51.1519 116.483 51.1519 118.309C51.1519 120.134 49.6527 122.517 46.8036 122.46Z" fill="#111217"/>
<path d="M46.8036 56.6586C45.7249 56.9716 44.7591 56.3276 44.7729 55.2679C44.7861 54.2627 45.5304 53.1411 46.8036 52.7493C47.8811 52.4176 48.8557 53.0747 48.8438 54.1544C48.8331 55.1602 48.0926 56.2844 46.8036 56.6586Z" fill="#111217"/>
<path d="M46.8036 67.5612C45.3346 67.903 44.3631 66.7745 44.3939 65.7993C44.4296 64.6545 45.28 63.3057 46.8036 62.9183C48.296 62.539 49.258 63.7238 49.2279 64.6971C49.1927 65.8394 48.3512 67.2013 46.8036 67.5606L46.8036 67.5612Z" fill="#111217"/>
<path d="M46.8036 78.4638C45.0716 78.7868 43.9929 77.4248 44.0142 76.2963C44.0393 74.9932 45.0283 73.4641 46.8036 73.0885C48.5689 72.7143 49.632 74.1482 49.6119 75.2748C49.5887 76.5755 48.6097 78.1277 46.8036 78.4644L46.8036 78.4638Z" fill="#111217"/>
<path d="M46.8036 89.3664C44.8074 89.6267 43.6182 88.0513 43.6352 86.757C43.6546 85.3243 44.7779 83.5793 46.803 83.2569C48.8413 82.9327 50.0123 84.592 49.996 85.8845C49.9772 87.3153 48.8702 89.0966 46.8036 89.3657L46.8036 89.3664Z" fill="#111217"/>
<path d="M46.8036 100.268C44.5464 100.455 43.2467 98.6435 43.2568 97.182C43.2681 95.6085 44.5288 93.6869 46.8036 93.4266C49.113 93.1618 50.3907 95.0689 50.3813 96.5285C50.3712 98.1002 49.1325 100.076 46.8036 100.268Z" fill="#111217"/>
<path d="M46.8036 111.171C44.2828 111.251 42.8746 109.207 42.879 107.571C42.8834 105.874 44.2734 103.765 46.8036 103.596C49.3935 103.423 50.7704 105.57 50.766 107.206C50.7622 108.903 49.3979 111.089 46.8036 111.171Z" fill="#111217"/>
<path d="M60.8757 171.409C62.486 171.701 63.3451 173.139 63.3727 174.299C63.3972 175.312 62.4446 176.615 60.8757 176.304C59.2849 175.989 58.4195 174.559 58.39 173.397C58.3649 172.381 59.3257 171.128 60.8757 171.409Z" fill="#111217"/>
<path d="M60.8757 159.915C62.7665 160.185 63.7511 161.846 63.7687 163.158C63.7844 164.327 62.7433 165.887 60.8757 165.583C59.0107 165.279 58.0173 163.634 57.9991 162.321C57.9821 161.15 59.037 159.653 60.8757 159.915Z" fill="#111217"/>
<path d="M60.8757 148.42C63.0364 148.649 64.1534 150.522 64.1641 151.988C64.1741 153.325 63.0201 155.137 60.8757 154.861C58.7484 154.588 57.62 152.743 57.6081 151.275C57.5974 149.935 58.7672 148.197 60.8757 148.42Z" fill="#111217"/>
<path d="M60.8757 136.925C63.3081 137.078 64.5519 139.189 64.5601 140.792C64.5676 142.307 63.2987 144.352 60.8757 144.139C58.4867 143.929 57.2259 141.862 57.2172 140.257C57.209 138.739 58.4973 136.776 60.8757 136.925Z" fill="#111217"/>
<path d="M60.8757 125.431C63.5786 125.498 64.9529 127.821 64.956 129.569C64.9592 131.262 63.5754 133.56 60.8757 133.417C58.2256 133.277 56.8306 131.018 56.8268 129.27C56.8237 127.574 58.2319 125.364 60.8757 125.431Z" fill="#111217"/>
<path d="M60.8757 122.696C57.9614 122.65 56.4365 120.195 56.4365 118.313C56.4365 116.432 57.9614 113.979 60.8757 113.937C63.8553 113.894 65.352 116.438 65.3527 118.319C65.3527 120.2 63.8559 122.743 60.8757 122.696L60.8757 122.696Z" fill="#111217"/>
<path d="M60.8757 41.8273C59.9746 42.0745 59.1644 41.5025 59.1738 40.5899C59.1826 39.7474 59.792 38.7879 60.8757 38.4781C61.7763 38.2209 62.5915 38.8029 62.5833 39.7268C62.5758 40.5692 61.9664 41.5281 60.8757 41.8273Z" fill="#111217"/>
<path d="M60.8757 53.3214C59.5962 53.618 58.7553 52.5715 58.7823 51.7228C58.8149 50.7082 59.5441 49.5271 60.8757 49.1992C62.1697 48.8806 63.0038 49.9659 62.978 50.8121C62.9473 51.8248 62.2199 53.0097 60.8757 53.3207L60.8757 53.3214Z" fill="#111217"/>
<path d="M60.8757 64.816C59.3257 65.097 58.3649 63.8434 58.39 62.8282C58.4189 61.6665 59.2849 60.2369 60.8757 59.9215C62.4446 59.6098 63.3972 60.9135 63.3728 61.9269C63.3451 63.0867 62.4854 64.525 60.8757 64.8167L60.8757 64.816Z" fill="#111217"/>
<path d="M60.8757 76.3107C59.0364 76.5736 57.9821 75.0764 57.9991 73.9041C58.0173 72.5916 59.0119 70.9467 60.8757 70.6432C62.7414 70.339 63.7838 71.8987 63.7687 73.0685C63.7512 74.3785 62.7665 76.0409 60.8757 76.3113L60.8757 76.3107Z" fill="#111217"/>
<path d="M60.8757 87.8047C58.7659 88.0282 57.5968 86.2888 57.6081 84.9506C57.62 83.4823 58.749 81.6377 60.8757 81.3642C63.0201 81.0882 64.1735 82.9002 64.1641 84.2371C64.154 85.703 63.037 87.5757 60.8757 87.8047Z" fill="#111217"/>
<path d="M60.8757 99.2994C58.498 99.4484 57.2096 97.4862 57.2172 95.9677C57.2253 94.3629 58.4867 92.2962 60.8757 92.0859C63.2993 91.8725 64.5676 93.9173 64.5601 95.4332C64.5519 97.0374 63.3075 99.1467 60.8757 99.2994Z" fill="#111217"/>
<path d="M60.8757 110.794C58.2319 110.86 56.8231 108.652 56.8268 106.955C56.8306 105.205 58.2262 102.948 60.8757 102.808C63.5748 102.664 64.9592 104.963 64.956 106.656C64.9529 108.403 63.578 110.726 60.8757 110.794Z" fill="#111217"/>
<path d="M75.3313 185.573C76.7144 185.815 77.4599 187.049 77.4825 188.066C77.5026 188.945 76.6755 190.115 75.3313 189.865C73.9582 189.61 73.2108 188.377 73.1869 187.358C73.1656 186.477 73.9971 185.339 75.3319 185.574L75.3313 185.573Z" fill="#111217"/>
<path d="M75.3306 173.605C76.988 173.829 77.8647 175.327 77.886 176.496C77.9054 177.549 76.9579 178.942 75.3306 178.702C73.6883 178.46 72.8073 176.965 72.7847 175.794C72.7646 174.739 73.7178 173.388 75.3306 173.605Z" fill="#111217"/>
<path d="M75.3306 161.637C77.2804 161.845 78.277 163.578 78.2901 164.903C78.3021 166.114 77.2647 167.774 75.3306 167.538C73.4003 167.302 72.3975 165.579 72.383 164.253C72.3699 163.038 73.4185 161.432 75.3306 161.637Z" fill="#111217"/>
<path d="M75.3306 149.669C77.5597 149.848 78.6868 151.802 78.6949 153.29C78.7024 154.672 77.549 156.592 75.3306 156.375C73.1273 156.16 71.9915 154.226 71.9827 152.736C71.9745 151.351 73.1399 149.493 75.3306 149.669L75.3306 149.669Z" fill="#111217"/>
<path d="M75.3306 137.7C77.8452 137.824 79.0947 140.021 79.0997 141.656C79.1034 143.213 77.8421 145.383 75.3306 145.211C72.8481 145.041 71.5867 142.877 71.5817 141.24C71.5767 139.68 72.8556 137.578 75.3306 137.7Z" fill="#111217"/>
<path d="M75.3306 125.732C78.1176 125.786 79.5019 128.215 79.5044 130.002C79.507 131.745 78.1157 134.16 75.3306 134.048C72.5845 133.938 71.1844 131.558 71.1813 129.77C71.1782 128.023 72.5883 125.68 75.3306 125.732Z" fill="#111217"/>
<path d="M75.3306 122.885C72.3084 122.848 70.7809 120.254 70.7809 118.322C70.7809 116.392 72.3084 113.797 75.3306 113.764C78.4031 113.731 79.9092 116.397 79.9092 118.326C79.9092 120.255 78.4031 122.921 75.3306 122.884L75.3306 122.885Z" fill="#111217"/>
<path d="M75.3306 26.7156C74.5895 26.8758 73.9896 26.4114 73.9896 25.6734C73.9896 24.9355 74.5895 24.1982 75.3306 24.033C76.0724 23.8677 76.6748 24.3403 76.6748 25.0838C76.6748 25.8274 76.0724 26.5553 75.3306 26.7156Z" fill="#111217"/>
<path d="M75.3306 38.684C74.4082 38.8824 73.5817 38.2359 73.588 37.2814C73.5936 36.4371 74.2048 35.4494 75.3306 35.1965C76.2513 34.99 77.0834 35.6472 77.0784 36.6104C77.074 37.4548 76.4634 38.4406 75.3306 38.684Z" fill="#111217"/>
<path d="M75.3306 50.6519C73.9958 50.886 73.165 49.7481 73.1863 48.8674C73.2102 47.8485 73.9569 46.6161 75.3306 46.3601C76.6755 46.1097 77.502 47.2802 77.4819 48.1589C77.4593 49.176 76.7138 50.409 75.3306 50.6519Z" fill="#111217"/>
<path d="M75.3306 62.6204C73.7172 62.8375 72.764 61.4862 72.7847 60.4316C72.8073 59.2612 73.6884 57.7659 75.3313 57.5237C76.9585 57.2839 77.9061 58.6766 77.8866 59.73C77.8647 60.8979 76.9886 62.3969 75.3313 62.6204L75.3306 62.6204Z" fill="#111217"/>
<path d="M75.3306 74.5882C73.4172 74.7929 72.3705 73.1862 72.3831 71.972C72.3975 70.6457 73.4009 68.9226 75.3306 68.6872C77.2635 68.4513 78.3027 70.1099 78.2901 71.3223C78.2763 72.6467 77.281 74.3798 75.3306 74.5889L75.3306 74.5882Z" fill="#111217"/>
<path d="M75.3313 86.5567C73.1392 86.7332 71.9745 84.8743 71.9827 83.4904C71.9915 82.0007 73.128 80.0655 75.3306 79.8508C77.549 79.6342 78.7018 81.5539 78.6949 82.9359C78.6874 84.4236 77.5603 86.3777 75.3313 86.5573L75.3313 86.5567Z" fill="#111217"/>
<path d="M75.3306 98.5246C72.8543 98.6472 71.5773 96.5442 71.5817 94.9845C71.5867 93.3484 72.8474 91.1834 75.3306 91.0137C77.8421 90.8422 79.1034 93.0116 79.0991 94.5689C79.0947 96.2037 77.8458 98.3994 75.33 98.5246L75.3306 98.5246Z" fill="#111217"/>
<path d="M75.3313 110.493C72.5895 110.546 71.1788 108.203 71.1819 106.456C71.1844 104.667 72.5839 102.288 75.3313 102.177C78.1163 102.065 79.5063 104.481 79.5044 106.224C79.5019 108.011 78.1169 110.439 75.3313 110.493Z" fill="#111217"/>
<path d="M90.0836 212.221C90.8379 212.336 91.4504 213.044 91.4504 213.809C91.4504 214.574 90.8379 215.102 90.0836 214.983C89.3293 214.866 88.7187 214.149 88.7187 213.388C88.7187 212.627 89.3293 212.107 90.0836 212.221Z" fill="#111217"/>
<path d="M90.0836 199.898C91.2471 200.083 91.8596 201.088 91.8608 201.927C91.8627 202.92 91.0218 203.644 90.0836 203.488C88.9239 203.296 88.3114 202.288 88.3095 201.448C88.307 200.461 89.1442 199.748 90.0836 199.897L90.0836 199.898Z" fill="#111217"/>
<path d="M90.0836 187.575C91.4925 187.747 92.2562 189.016 92.2712 190.03C92.285 190.941 91.4648 192.174 90.0836 191.994C88.6817 191.812 87.9173 190.54 87.9004 189.524C87.8847 188.612 88.7087 187.406 90.0836 187.575Z" fill="#111217"/>
<path d="M90.0836 175.251C91.793 175.423 92.6722 176.944 92.6823 178.117C92.6917 179.188 91.778 180.685 90.0836 180.499C88.3836 180.312 87.5031 178.79 87.4919 177.616C87.4818 176.542 88.4012 175.082 90.0836 175.251Z" fill="#111217"/>
<path d="M90.0836 162.928C92.0754 163.075 93.0833 164.859 93.0927 166.189C93.1015 167.439 92.0667 169.171 90.0836 169.005C88.1043 168.839 87.0934 167.056 87.0827 165.725C87.0727 164.472 88.1169 162.784 90.0836 162.928Z" fill="#111217"/>
<path d="M90.0836 150.605C92.3622 150.733 93.4981 152.748 93.5037 154.247C93.5088 155.667 92.3553 157.666 90.0836 157.51C87.8232 157.355 86.6811 155.351 86.6748 153.85C86.6685 152.427 87.832 150.478 90.0836 150.605Z" fill="#111217"/>
<path d="M90.0836 138.282C92.6534 138.371 93.9123 140.635 93.9148 142.289C93.9179 143.886 92.6522 146.139 90.0836 146.015C87.5352 145.893 86.27 143.648 86.2663 141.993C86.2625 140.393 87.5414 138.194 90.0836 138.282Z" fill="#111217"/>
<path d="M90.0836 125.958C92.9377 125.992 94.3246 128.51 94.3265 130.318C94.3283 132.1 92.939 134.596 90.0836 134.521C87.2578 134.446 85.8609 131.961 85.8583 130.152C85.8558 128.367 87.2603 125.925 90.0836 125.958Z" fill="#111217"/>
<path d="M90.0836 123.026C86.9798 123 85.4504 120.297 85.4504 118.329C85.4504 116.361 86.981 113.659 90.0836 113.636C93.222 113.612 94.7375 116.366 94.7375 118.332C94.7375 120.298 93.2232 123.052 90.0836 123.026Z" fill="#111217"/>
<path d="M90.0836 60.9736C88.3999 61.1426 87.4812 59.6818 87.4919 58.6083C87.5038 57.4335 88.3849 55.9113 90.0836 55.7254C91.7761 55.5396 92.6911 57.0361 92.6823 58.1076C92.6716 59.2806 91.7943 60.8015 90.0836 60.9736Z" fill="#111217"/>
<path d="M90.0836 73.297C88.1163 73.4416 87.0727 71.7529 87.0827 70.5005C87.0934 69.1692 88.1056 67.3866 90.0836 67.2207C92.0654 67.0542 93.1021 68.7861 93.0927 70.036C93.0833 71.3661 92.0767 73.1505 90.0836 73.297Z" fill="#111217"/>
<path d="M90.0836 85.6203C87.8307 85.748 86.6685 83.7977 86.6742 82.375C86.6804 80.8741 87.8226 78.87 90.083 78.7154C92.3553 78.5596 93.5081 80.5587 93.5031 81.9789C93.4981 83.4785 92.3616 85.4914 90.083 85.6203L90.0836 85.6203Z" fill="#111217"/>
<path d="M90.0836 97.9431C87.5396 98.032 86.2625 95.8307 86.2663 94.2321C86.27 92.5766 87.5358 90.3315 90.0836 90.2088C92.6522 90.0849 93.9179 92.3388 93.9148 93.9354C93.9123 95.5897 92.6553 97.8536 90.0836 97.9431Z" fill="#111217"/>
<path d="M90.0836 110.266C87.2584 110.3 85.8558 107.857 85.8583 106.073C85.8609 104.264 87.2578 101.779 90.0836 101.704C92.939 101.629 94.3283 104.124 94.3265 105.907C94.3239 107.714 92.9396 110.233 90.0836 110.266L90.0836 110.266Z" fill="#111217"/>
<path d="M105.048 188.908C106.471 189.012 107.251 190.301 107.26 191.305C107.268 192.246 106.454 193.521 105.048 193.413C103.63 193.304 102.849 192.007 102.839 191.002C102.829 190.061 103.645 188.807 105.048 188.909L105.048 188.908Z" fill="#111217"/>
<path d="M105.048 176.348C106.78 176.452 107.669 177.999 107.675 179.164C107.681 180.267 106.771 181.809 105.048 181.697C103.322 181.585 102.432 180.029 102.426 178.864C102.419 177.76 103.332 176.246 105.048 176.348Z" fill="#111217"/>
<path d="M105.048 163.788C107.067 163.872 108.084 165.688 108.09 167.014C108.096 168.298 107.062 170.077 105.048 169.981C103.037 169.886 102.018 168.063 102.011 166.736C102.004 165.45 103.044 163.705 105.048 163.788L105.048 163.788Z" fill="#111217"/>
<path d="M105.048 151.229C107.357 151.307 108.502 153.356 108.505 154.857C108.508 156.31 107.354 158.361 105.048 158.267C102.749 158.173 101.602 156.122 101.598 154.62C101.594 153.166 102.754 151.152 105.048 151.23L105.048 151.229Z" fill="#111217"/>
<path d="M105.048 138.669C107.654 138.723 108.919 141.029 108.921 142.691C108.923 144.318 107.656 146.625 105.048 146.551C102.454 146.477 101.187 144.176 101.184 142.513C101.182 140.885 102.458 138.615 105.048 138.669Z" fill="#111217"/>
<path d="M105.048 126.109C107.947 126.132 109.335 128.692 109.335 130.517C109.335 132.323 107.948 134.884 105.048 134.836C102.166 134.788 100.772 132.243 100.771 130.418C100.769 128.61 102.167 126.086 105.048 126.109Z" fill="#111217"/>
<path d="M105.048 123.121C101.887 123.105 100.358 120.325 100.358 118.334C100.358 116.342 101.888 113.564 105.048 113.549C108.23 113.535 109.751 116.345 109.751 118.336C109.751 120.326 108.23 123.136 105.048 123.121Z" fill="#111217"/>
<path d="M105.048 47.3165C103.645 47.4179 102.83 46.1648 102.839 45.2235C102.849 44.2183 103.629 42.9214 105.048 42.8125C106.454 42.7042 107.268 43.9792 107.26 44.9205C107.251 45.9238 106.471 47.2132 105.048 47.3165Z" fill="#111217"/>
<path d="M105.048 59.877C103.332 59.9791 102.419 58.465 102.426 57.3615C102.432 56.1949 103.324 54.6408 105.048 54.5281C106.77 54.4161 107.68 55.9589 107.675 57.0611C107.67 58.2259 106.78 59.7738 105.048 59.877Z" fill="#111217"/>
<path d="M105.048 72.4364C103.042 72.5184 102.004 70.774 102.011 69.4884C102.018 68.1615 103.037 66.3388 105.048 66.2437C107.062 66.1486 108.095 67.9261 108.09 69.2105C108.084 70.5368 107.068 72.3537 105.048 72.437L105.048 72.4364Z" fill="#111217"/>
<path d="M105.049 84.9963C102.754 85.0733 101.595 83.0592 101.598 81.6052C101.602 80.103 102.75 78.0519 105.049 77.9587C107.354 77.8648 108.508 79.9153 108.506 81.368C108.503 82.8689 107.359 84.9187 105.049 84.9963Z" fill="#111217"/>
<path d="M105.048 97.5563C102.458 97.6095 101.182 95.3406 101.184 93.712C101.187 92.049 102.455 89.7475 105.048 89.6743C107.654 89.6004 108.922 91.9069 108.921 93.5342C108.919 95.1972 107.656 97.5037 105.048 97.5569L105.048 97.5563Z" fill="#111217"/>
<path d="M105.049 110.116C102.166 110.139 100.77 107.614 100.771 105.808C100.773 103.983 102.164 101.437 105.049 101.39C107.951 101.342 109.337 103.904 109.336 105.708C109.336 107.532 107.949 110.093 105.049 110.116Z" fill="#111217"/>
<path d="M119.859 202.252C118.665 202.313 118.061 203.34 118.053 204.141C118.045 204.961 118.739 205.954 119.859 205.946C120.982 205.938 121.669 204.856 121.665 204.046C121.661 203.03 120.822 202.204 119.859 202.252Z" fill="#111217"/>
<path d="M119.859 189.574C118.432 189.608 117.639 190.903 117.636 191.891C117.634 192.858 118.439 194.157 119.859 194.121C121.283 194.085 122.078 192.779 122.082 191.79C122.085 190.823 121.28 189.541 119.859 189.574Z" fill="#111217"/>
<path d="M119.859 176.896C118.119 176.931 117.221 178.486 117.219 179.636C117.218 180.765 118.122 182.332 119.859 182.294C121.598 182.257 122.496 180.687 122.498 179.536C122.501 178.406 121.595 176.861 119.859 176.895L119.859 176.896Z" fill="#111217"/>
<path d="M119.859 164.218C117.816 164.25 116.803 166.064 116.802 167.381C116.801 168.678 117.816 170.505 119.859 170.469C121.901 170.434 122.913 168.605 122.915 167.288C122.917 165.989 121.899 164.187 119.859 164.218L119.859 164.218Z" fill="#111217"/>
<path d="M119.859 151.54C117.537 151.566 116.386 153.629 116.385 155.122C116.385 156.599 117.538 158.675 119.859 158.644C122.179 158.613 123.33 156.537 123.331 155.043C123.333 153.565 122.176 151.515 119.859 151.54Z" fill="#111217"/>
<path d="M119.859 138.863C117.237 138.88 115.969 141.202 115.968 142.863C115.968 144.511 117.237 146.844 119.859 146.819C122.478 146.794 123.747 144.465 123.748 142.804C123.749 141.154 122.476 138.845 119.859 138.863L119.859 138.863Z" fill="#111217"/>
<path d="M119.859 126.184C116.943 126.192 115.551 128.771 115.551 130.601C115.551 132.423 116.942 135.01 119.859 134.993C122.771 134.977 124.164 132.398 124.164 130.568C124.164 128.744 122.77 126.177 119.859 126.185L119.859 126.184Z" fill="#111217"/>
<path d="M119.859 113.507C116.658 113.502 115.134 116.335 115.134 118.337C115.134 120.341 116.66 123.173 119.859 123.168C123.052 123.163 124.58 120.34 124.58 118.337C124.58 116.334 123.054 113.512 119.859 113.507Z" fill="#111217"/>
<path d="M119.859 33.9735C120.822 34.0223 121.66 33.1955 121.665 32.1797C121.669 31.3698 120.981 30.287 119.859 30.2795C118.739 30.2713 118.045 31.264 118.053 32.0839C118.06 32.8838 118.665 33.9128 119.859 33.9729L119.859 33.9735Z" fill="#111217"/>
<path d="M119.859 46.6511C121.279 46.6849 122.085 45.4025 122.082 44.4354C122.078 43.4471 121.285 42.1409 119.859 42.1046C118.438 42.0689 117.634 43.3677 117.636 44.3347C117.639 45.3223 118.433 46.6167 119.859 46.6505L119.859 46.6511Z" fill="#111217"/>
<path d="M119.859 59.3288C121.595 59.3626 122.501 57.8172 122.498 56.6881C122.496 55.537 121.598 53.9673 119.859 53.9304C118.122 53.8934 117.218 55.4588 117.219 56.5886C117.221 57.739 118.119 59.295 119.859 59.3294L119.859 59.3288Z" fill="#111217"/>
<path d="M119.859 72.007C121.9 72.0377 122.917 70.2357 122.915 68.937C122.913 67.6201 121.9 65.7912 119.859 65.7561C117.817 65.7211 116.801 67.5468 116.802 68.8449C116.803 70.1612 117.815 71.9763 119.859 72.007Z" fill="#111217"/>
<path d="M119.859 84.6846C122.177 84.7103 123.333 82.6592 123.331 81.1815C123.33 79.6874 122.178 77.6119 119.859 77.5813C117.538 77.5506 116.385 79.6255 116.385 81.1032C116.385 82.5966 117.537 84.6602 119.859 84.6852L119.859 84.6846Z" fill="#111217"/>
<path d="M119.859 97.3629C122.478 97.381 123.749 95.0715 123.748 93.4222C123.746 91.7617 122.478 89.4308 119.859 89.407C117.236 89.3826 115.967 91.7147 115.968 93.3634C115.968 95.0239 117.236 97.3453 119.859 97.3629Z" fill="#111217"/>
<path d="M119.859 110.04C122.771 110.049 124.165 107.481 124.164 105.657C124.164 103.828 122.773 101.248 119.859 101.232C116.94 101.215 115.551 103.803 115.551 105.624C115.551 107.446 116.943 110.032 119.859 110.04L119.859 110.04Z" fill="#111217"/>
</g>
<g filter="url(#filter1_d_777_22321)">
<path d="M140.311 142.429L119.814 156L100 142.429L90 107.749L92.236 100.586L90.7453 97.5707L97.4534 91.5393L103.416 90.7853L109.752 84H130.621L137.329 90.7853H143.292L150 97.5707L147.391 100.586L150 107.749L140.311 142.429Z" fill="#27268D"/>
<path d="M142.591 105.812C142.957 106.356 143.375 107.062 143.523 107.377C143.671 107.693 143.8 108.859 143.788 109.226L143.691 109.545C143.531 110.113 143.511 110.144 143.511 110.144C143.102 110.657 142.404 111.468 141.959 111.945L135.063 119.344C134.618 119.821 134.458 120.711 134.712 121.318L135.839 124.014C136.093 124.621 136.12 125.619 135.894 126.241L135.664 126.868C135.297 127.885 134.661 128.784 133.83 129.469L132.746 130.36C132.239 130.774 131.346 130.88 130.761 130.601L126.911 128.744C126.322 128.464 125.448 127.873 124.965 127.432L121.883 124.621C121.365 124.148 121.337 123.336 121.821 122.828L128.772 118.098C129.31 117.728 129.505 116.951 129.197 116.372L126.501 111.248C126.197 110.668 126.135 109.754 126.373 109.214C126.603 108.674 127.293 108.043 127.902 107.811L136.354 104.587C136.962 104.354 136.931 104.114 136.284 104.051L131.322 103.578C130.675 103.515 129.63 103.605 129.002 103.783L124.68 105C124.052 105.178 123.635 105.852 123.756 106.498L125.452 115.863C125.565 116.51 125.608 117.223 125.538 117.448C125.464 117.668 124.887 117.964 124.251 118.102L121.618 118.666C121.365 118.721 121.045 118.752 120.713 118.76C120.382 118.752 120.062 118.721 119.804 118.666L117.175 118.102C116.54 117.964 115.962 117.668 115.892 117.448C115.818 117.223 115.857 116.51 115.974 115.863L117.675 106.498C117.788 105.852 117.371 105.178 116.746 105L112.425 103.783C111.797 103.605 110.755 103.515 110.104 103.578L105.143 104.051C104.495 104.114 104.464 104.354 105.072 104.587L113.525 107.811C114.133 108.043 114.824 108.674 115.058 109.214C115.288 109.754 115.229 110.668 114.925 111.248L112.23 116.372C111.922 116.951 112.113 117.728 112.651 118.098L119.605 122.828C120.089 123.336 120.062 124.148 119.543 124.621L116.462 127.432C115.978 127.873 115.1 128.464 114.515 128.744L110.666 130.601C110.081 130.88 109.187 130.774 108.68 130.36L107.6 129.469C106.765 128.784 106.133 127.885 105.759 126.868L105.533 126.241C105.306 125.619 105.33 124.621 105.583 124.014L106.711 121.318C106.964 120.711 106.808 119.821 106.363 119.344L99.4713 111.945C99.0228 111.468 98.3246 110.657 97.919 110.144C97.919 110.144 97.8917 110.113 97.7356 109.545L97.6342 109.226C97.6264 108.859 97.7552 107.693 97.9034 107.377C98.0516 107.062 98.4689 106.356 98.8317 105.812L100.786 102.892C101.149 102.348 101.78 101.481 102.186 100.968L104.819 97.6298C105.225 97.1135 105.576 96.6996 105.603 96.7036C105.626 96.7075 105.654 96.7075 105.657 96.7036C105.657 96.6996 106.184 96.7942 106.824 96.9204L110.857 97.7008C111.496 97.8269 112.288 97.9806 112.62 98.0398C112.951 98.1028 113.727 97.9925 114.348 97.7875L117.53 96.7469C118.151 96.542 119.176 96.2543 119.808 96.1084C119.808 96.1084 120.066 96.0454 120.713 96.0493C121.361 96.0454 121.614 96.1084 121.614 96.1084C122.25 96.2543 123.276 96.542 123.896 96.7469L127.079 97.7875C127.695 97.9925 128.475 98.1028 128.807 98.0398C129.138 97.9806 129.93 97.8269 130.57 97.7008L134.603 96.9204C135.242 96.7942 135.769 96.6996 135.773 96.7036C135.777 96.7075 135.8 96.7075 135.824 96.7036C135.847 96.6996 136.202 97.1135 136.608 97.6298L139.24 100.968C139.646 101.481 140.274 102.348 140.641 102.892L142.591 105.812Z" fill="#423EEE"/>
<path d="M126.251 131.027L129.738 132.864C130.316 133.164 130.351 133.727 129.82 134.102L126.798 136.262C126.263 136.644 125.428 137.306 124.937 137.736L124.083 138.481C123.591 138.906 122.788 139.616 122.3 140.05L121.497 140.775C121.278 140.968 120.998 141.07 120.713 141.094C120.428 141.07 120.151 140.968 119.933 140.775L119.125 140.05C118.638 139.616 117.834 138.906 117.343 138.481L116.493 137.736C116.001 137.306 115.162 136.644 114.628 136.262L111.605 134.102C111.075 133.727 111.11 133.164 111.691 132.864L115.174 131.027C115.751 130.724 116.715 130.271 117.316 130.014L119.211 129.218C119.812 128.97 120.373 128.761 120.459 128.761H120.966C121.052 128.761 121.614 128.97 122.214 129.218L124.11 130.014C124.711 130.271 125.674 130.724 126.251 131.027Z" fill="#423EEE"/>
<path fill-rule="evenodd" clip-rule="evenodd" d="M151.968 106.78C152.103 107.151 152.122 107.555 152.022 107.937L144.276 137.693C143.433 140.943 141.484 143.793 138.762 145.752C138.558 145.897 138.176 146.169 137.639 146.548C136.744 147.179 135.742 147.883 134.654 148.64C131.546 150.804 128.378 152.969 125.336 154.99C124.771 155.365 124.215 155.733 123.669 156.092L123.391 156.273C122.347 156.966 121.335 157.354 120.233 157.348C119.11 157.354 118.108 156.969 117.063 156.28L116.776 156.092C116.229 155.733 115.673 155.365 115.109 154.99C112.066 152.969 108.898 150.804 105.79 148.64C104.703 147.883 103.7 147.179 102.806 146.548C102.268 146.169 101.886 145.897 101.675 145.747C98.9606 143.793 97.0116 140.943 96.1685 137.694L88.4225 107.937C88.3228 107.555 88.3415 107.151 88.4763 106.78L90.3616 101.582L89.1048 98.7489C88.6325 97.672 88.8582 96.4035 89.6835 95.5696L93.8428 91.3154C96.1447 88.9388 99.5953 88.1035 102.714 89.1645L108.085 83.2285C108.451 82.8239 108.97 82.5912 109.515 82.5868L120.207 82.5L130.929 82.5868C131.474 82.5912 131.993 82.8238 132.359 83.228L137.733 89.1636C140.849 88.1039 144.298 88.9387 146.6 91.3095L150.753 95.5612C151.586 96.4035 151.812 97.672 151.336 98.7565L150.083 101.582L151.968 106.78ZM148.095 107.54L146.148 102.174C145.977 101.7 145.995 101.179 146.199 100.718L147.492 97.8046L143.805 94.0306C142.533 92.7196 140.631 92.2715 138.931 92.8765L137.819 93.2746C137.076 93.5407 136.246 93.3326 135.716 92.7474L130.042 86.4801L120.238 86.4005L110.403 86.4802L104.733 92.747C104.203 93.3319 103.374 93.5404 102.631 93.2753L101.517 92.8778C99.8133 92.2716 97.9128 92.7196 96.6382 94.0356L92.953 97.8049L94.2454 100.718C94.4496 101.179 94.4678 101.7 94.296 102.174L92.3498 107.54L99.9436 136.713C100.559 139.083 101.979 141.16 103.947 142.576C104.146 142.718 104.523 142.986 105.055 143.362C105.943 143.988 106.939 144.687 108.019 145.439C111.106 147.588 114.251 149.737 117.267 151.742C117.826 152.113 118.376 152.476 118.917 152.831L119.206 153.021C119.67 153.327 119.986 153.448 120.233 153.447C120.459 153.448 120.778 153.326 121.244 153.017L121.528 152.831C122.068 152.476 122.618 152.113 123.177 151.742C126.193 149.737 129.339 147.588 132.425 145.439C133.506 144.687 134.502 143.988 135.389 143.362C135.921 142.986 136.298 142.718 136.491 142.581C138.466 141.16 139.886 139.083 140.501 136.712L148.095 107.54Z" fill="#423EEE"/>
</g>
<defs>
<filter id="filter0_di_777_22321" x="3" y="24" width="234" height="193" filterUnits="userSpaceOnUse" color-interpolation-filters="sRGB">
<feFlood flood-opacity="0" result="BackgroundImageFix"/>
<feColorMatrix in="SourceAlpha" type="matrix" values="0 0 0 0 0 0 0 0 0 0 0 0 0 0 0 0 0 0 127 0" result="hardAlpha"/>
<feOffset dy="1"/>
<feGaussianBlur stdDeviation="0.5"/>
<feComposite in2="hardAlpha" operator="out"/>
<feColorMatrix type="matrix" values="0 0 0 0 0.36 0 0 0 0 0.36 0 0 0 0 1 0 0 0 0.8 0"/>
<feBlend mode="normal" in2="BackgroundImageFix" result="effect1_dropShadow_777_22321"/>
<feBlend mode="normal" in="SourceGraphic" in2="effect1_dropShadow_777_22321" result="shape"/>
<feColorMatrix in="SourceAlpha" type="matrix" values="0 0 0 0 0 0 0 0 0 0 0 0 0 0 0 0 0 0 127 0" result="hardAlpha"/>
<feOffset dy="1"/>
<feGaussianBlur stdDeviation="0.5"/>
<feComposite in2="hardAlpha" operator="arithmetic" k2="-1" k3="1"/>
<feColorMatrix type="matrix" values="0 0 0 0 0 0 0 0 0 0 0 0 0 0 0 0 0 0 1 0"/>
<feBlend mode="normal" in2="shape" result="effect2_innerShadow_777_22321"/>
</filter>
<filter id="filter1_d_777_22321" x="76" y="74" width="88" height="100" filterUnits="userSpaceOnUse" color-interpolation-filters="sRGB">
<feFlood flood-opacity="0" result="BackgroundImageFix"/>
<feColorMatrix in="SourceAlpha" type="matrix" values="0 0 0 0 0 0 0 0 0 0 0 0 0 0 0 0 0 0 127 0" result="hardAlpha"/>
<feMorphology radius="2" operator="erode" in="SourceAlpha" result="effect1_dropShadow_777_22321"/>
<feOffset dy="4"/>
<feGaussianBlur stdDeviation="8"/>
<feComposite in2="hardAlpha" operator="out"/>
<feColorMatrix type="matrix" values="0 0 0 0 0 0 0 0 0 0 0 0 0 0 0 0 0 0 0.3 0"/>
<feBlend mode="normal" in2="BackgroundImageFix" result="effect1_dropShadow_777_22321"/>
<feBlend mode="normal" in="SourceGraphic" in2="effect1_dropShadow_777_22321" result="shape"/>
</filter>
<linearGradient id="paint0_linear_777_22321" x1="0" y1="0" x2="160.237" y2="284.866" gradientUnits="userSpaceOnUse">
<stop stop-color="#322FB4"/>
<stop offset="1" stop-color="#3835CA"/>
</linearGradient>
</defs>
</svg>
