<!-- Copyright (c) 2023 The Brave Authors. All rights reserved.
This Source Code Form is subject to the terms of the Mozilla Public
License, v. 2.0. If a copy of the MPL was not distributed with this file,
You can obtain one at https://mozilla.org/MPL/2.0/. -->

<svg width="122" height="120" viewBox="0 0 122 120" fill="none" xmlns="http://www.w3.org/2000/svg">
    <path
        d="M60.9209 118C91.2966 118 115.921 93.3757 115.921 63C115.921 32.6243 91.2966 8 60.9209 8C30.5452 8 5.9209 32.6243 5.9209 63C5.9209 93.3757 30.5452 118 60.9209 118Z"
        fill="url(#paint0_linear_1937_24623)" />
    <g clip-path="url(#clip0_1937_24623)">
        <path
            d="M92.6595 18.1638C94.7394 19.5527 96.7111 21.1058 98.567 22.8191C98.7584 22.9963 98.9486 23.1735 99.1361 23.3533C99.071 23.2868 99.0033 23.2191 98.933 23.1526L98.2714 22.5311C97.2399 21.5983 97.025 21.4028 95.9466 20.4999C95.1427 19.8493 94.5292 19.3642 94.1064 19.0446C93.2694 18.4244 92.63 17.9614 92.188 17.6557L91.2217 17.0029C91.8012 17.3847 92.2792 17.7729 92.6595 18.1625"
            fill="#5F5CF1" fill-opacity="0.2" />
        <path
            d="M81.4331 12.0547C82.0856 12.426 82.5961 12.8052 82.9712 13.1895C85.5902 14.181 88.0947 15.3823 90.4702 16.7881C89.9883 16.2943 89.3384 15.8044 88.5127 15.3263L88.0869 15.0813C85.9731 13.8801 83.7526 12.869 81.4331 12.0547Z"
            fill="#5F5CF1" fill-opacity="0.05" />
        <path
            d="M71.4907 9.87012C71.8254 10.0603 72.0872 10.2545 72.2786 10.4512C75.0709 10.846 77.8111 11.4701 80.4848 12.3235C80.1527 11.9834 79.7008 11.646 79.1213 11.3176C76.635 10.6023 74.0863 10.1203 71.4907 9.87012Z"
            fill="#5F5CF1" fill-opacity="0.05" />
        <path
            d="M61.0405 10.0924C63.9487 9.87877 66.8217 9.89831 69.6452 10.1485C69.4981 9.99733 69.2975 9.8488 69.0422 9.70288C66.4167 9.59865 63.7455 9.72763 61.0405 10.0924Z"
            fill="white" fill-opacity="0.1" />
        <path
            d="M115.78 58.4326C115.799 58.6515 115.814 58.8717 115.83 59.0919L115.782 58.447L115.776 58.3779C115.778 58.3962 115.779 58.4144 115.78 58.4326Z"
            fill="#5F5CF1" fill-opacity="0.1" />
        <path
            d="M113.637 47.4365C114.491 50.1583 115.11 52.9399 115.492 55.7672C115.486 55.6747 115.477 55.5822 115.464 55.4897C115.395 55.0129 115.302 54.377 115.225 53.9015C115.05 52.9035 114.91 52.1547 114.806 51.6553C114.589 50.6651 114.418 49.9229 114.293 49.4286C114.034 48.448 113.832 47.7127 113.686 47.2228L113.448 46.4463C113.552 46.7759 113.614 47.1056 113.637 47.4352"
            fill="#5F5CF1" fill-opacity="0.05" />
        <path
            d="M109.095 37.1079C110.043 38.7496 110.9 40.4434 111.666 42.188C112.059 43.0844 112.426 43.9886 112.766 44.9006C112.739 44.4993 112.65 44.0967 112.499 43.6941L112.188 42.8824C111.805 41.9339 111.509 41.2234 111.3 40.7509C110.891 39.8484 110.577 39.1735 110.357 38.7261C109.912 37.8419 109.572 37.1809 109.335 36.7431C109.083 36.2884 108.745 35.6839 108.487 35.2344C108.851 35.8585 109.052 36.4852 109.095 37.1079Z"
            fill="#5F5CF1" fill-opacity="0.1" />
        <path
            d="M101.535 25.8574C102.064 26.561 102.347 27.2698 102.396 27.9746C104.359 30.1205 106.126 32.4045 107.689 34.8136C107.641 34.123 107.394 33.4299 106.94 32.7393C106.599 32.2312 106.138 31.5576 105.787 31.056C105.55 30.7303 105.235 30.2938 104.993 29.9694C103.92 28.5401 102.767 27.1681 101.535 25.8574Z"
            fill="white" fill-opacity="0.5" />
        <path
            d="M93.1089 18.6865C93.5269 19.2442 93.7523 19.8057 93.79 20.3634C95.9441 21.8969 97.9875 23.5867 99.9085 25.4303C100.106 25.6206 100.303 25.8121 100.498 26.0049C100.452 25.3326 100.182 24.6564 99.678 23.9841C99.4865 23.8017 99.2951 23.6206 99.101 23.4408C97.2191 21.6962 95.22 20.1106 93.1102 18.6878"
            fill="white" fill-opacity="0.5" />
        <path
            d="M83.2822 13.5501C83.5727 13.9371 83.7276 14.3254 83.755 14.7123C86.4678 15.8862 89.0608 17.2621 91.5223 18.8321C91.4871 18.3122 91.2774 17.7898 90.888 17.2712C88.4786 15.8263 85.939 14.5833 83.2822 13.5488"
            fill="#5F5CF1" fill-opacity="0.05" />
        <path
            d="M72.439 10.6357C72.5874 10.8338 72.6669 11.0331 72.6812 11.2312C75.5737 11.8201 78.4116 12.6344 81.1817 13.6741C81.1583 13.3314 81.0202 12.9862 80.7624 12.6435C78.0495 11.7458 75.2716 11.0761 72.439 10.6357Z"
            fill="white" fill-opacity="0.5" />
        <path
            d="M61.0405 10.0925C64.0529 10.0808 67.0288 10.2997 69.9539 10.7466C69.9435 10.5941 69.8823 10.4417 69.7689 10.2906C66.9051 9.99349 63.9917 9.92704 61.0418 10.0925"
            fill="#5F5CF1" fill-opacity="0.1" />
        <path
            d="M106.464 93.8288C105.629 95.09 104.735 96.3108 103.783 97.4899L104.309 96.8267C104.915 96.0354 105.365 95.4348 105.659 95.0248C106.014 94.5206 106.481 93.8457 106.825 93.335C106.716 93.5004 106.595 93.6646 106.463 93.8275"
            fill="#5F5CF1" fill-opacity="0.2" />
        <path
            d="M111.456 84.0368C111.12 84.9319 110.758 85.8166 110.37 86.6935C109.617 88.3898 108.776 90.0315 107.846 91.6158C108.053 91.3604 108.233 91.1025 108.385 90.8432C108.643 90.395 108.986 89.7957 109.236 89.3436C109.701 88.4706 110.045 87.81 110.267 87.3618C110.698 86.4698 111.015 85.7958 111.218 85.3397C111.626 84.3982 111.925 83.6881 112.114 83.2095L112.432 82.3887C112.222 82.9437 111.895 83.4948 111.458 84.0381"
            fill="white" fill-opacity="0.5" />
        <path
            d="M114.152 73.3318C113.77 76.1369 113.156 78.8809 112.313 81.5531C112.823 80.9238 113.182 80.2841 113.388 79.6378L113.626 78.8717C113.91 77.8963 114.116 77.1615 114.242 76.6672C114.485 75.6822 114.659 74.9404 114.765 74.4419C114.965 73.4482 115.108 72.6995 115.193 72.1957C115.269 71.7175 115.37 71.0791 115.439 70.5996C115.312 71.5234 114.878 72.438 114.155 73.3331"
            fill="white" fill-opacity="0.1" />
        <path
            d="M115.749 59.3057C115.62 60.2346 115.185 61.1558 114.458 62.0548C114.573 63.4919 114.628 64.9355 114.625 66.3843C114.623 67.8305 114.561 69.2637 114.443 70.6839C115.17 69.7836 115.605 68.8637 115.734 67.9348C115.855 66.5094 115.917 65.0723 115.92 63.6261C115.922 62.1773 115.865 60.7362 115.748 59.3057"
            fill="white" fill-opacity="0.5" />
        <path
            d="M113.607 48.2754C113.483 49.1679 113.065 50.0525 112.367 50.9164C113.2 53.6955 113.805 56.5175 114.177 59.3709C114.9 58.4758 115.333 57.5599 115.461 56.6361C115.08 53.8023 114.46 51.0102 113.607 48.2754Z"
            fill="white" fill-opacity="0.5" />
        <path
            d="M109.069 37.876C108.956 38.6916 108.574 39.4981 107.936 40.2876C108.861 41.9918 109.698 43.7429 110.446 45.5383C110.83 46.4608 111.188 47.3898 111.519 48.3239C112.205 47.4744 112.617 46.6041 112.738 45.7273C112.398 44.81 112.032 43.8993 111.639 42.9964C110.873 41.2401 110.016 39.532 109.069 37.876Z"
            fill="#5F5CF1" fill-opacity="0.1" />
        <path
            d="M102.373 28.6357C102.275 29.3367 101.947 30.0325 101.398 30.7113C103.314 32.9874 105.039 35.3874 106.564 37.9007C107.182 37.1346 107.553 36.3502 107.663 35.5594C106.1 33.1255 104.334 30.8142 102.373 28.637"
            fill="#5F5CF1" fill-opacity="0.05" />
        <path
            d="M93.7715 20.8841C93.6946 21.4392 93.4342 21.989 93.0005 22.5271C95.1025 24.2026 97.0964 26.0293 98.9718 27.998C99.1659 28.2012 99.3573 28.4058 99.5475 28.6116C100.071 27.9641 100.385 27.3009 100.477 26.6312C100.282 26.4358 100.087 26.2403 99.8874 26.0475C97.9664 24.1739 95.9256 22.4502 93.7715 20.8828"
            fill="#5F5CF1" fill-opacity="0.05" />
        <path
            d="M83.7423 15.0762C83.6889 15.4618 83.5092 15.8423 83.207 16.2162C85.8547 17.5699 88.3852 19.1165 90.7868 20.8493C91.1918 20.349 91.4327 19.837 91.5044 19.3197C89.0455 17.7106 86.4538 16.2931 83.7423 15.0762Z"
            fill="white" fill-opacity="0.5" />
        <path
            d="M72.6749 11.418C72.6475 11.6147 72.555 11.8101 72.4014 12.0017C75.2236 12.7808 77.9937 13.784 80.6961 15.0062C80.9631 14.6752 81.1233 14.3378 81.1702 13.9964C78.4013 12.9124 75.5661 12.0525 72.6749 11.418Z"
            fill="white" fill-opacity="0.1" />
        <path
            d="M61.0405 10.0928C63.98 10.2804 66.8842 10.696 69.739 11.3357C69.8575 11.1898 69.9278 11.04 69.9487 10.8888C67.0249 10.3963 64.0516 10.1293 61.0405 10.0928Z"
            fill="white" fill-opacity="0.1" />
        <path d="M88.2157 110.761L87.8823 110.951L88.3355 110.693L88.2157 110.761Z" fill="#5F5CF1"
            fill-opacity="0.05" />
        <path
            d="M96.2891 104.676C96.1119 104.846 95.9335 105.016 95.7525 105.184C94.0242 106.792 92.1892 108.234 90.2539 109.505C90.5339 109.348 90.797 109.189 91.0431 109.027C91.5224 108.705 92.1606 108.273 92.6346 107.943C93.8693 107.051 93.8927 107.034 94.5322 106.54C95.7199 105.602 95.7434 105.584 96.3542 105.069C97.4976 104.085 97.5198 104.066 98.1032 103.532L98.7753 102.906C98.1319 103.515 97.301 104.108 96.2891 104.676Z"
            fill="#5F5CF1" fill-opacity="0.05" />
        <path
            d="M105.812 94.541C105.038 95.2954 104.02 96.0302 102.768 96.7338C101.358 98.9539 99.765 101.023 97.999 102.933C99.1086 102.309 100.011 101.659 100.698 100.989C102.592 98.9878 104.301 96.8354 105.813 94.541"
            fill="#5F5CF1" fill-opacity="0.05" />
        <path
            d="M110.731 84.8281C109.873 85.6646 108.742 86.4789 107.354 87.2593C107.045 88.1323 106.712 88.9948 106.355 89.8469C105.664 91.4964 104.889 93.0846 104.036 94.609C105.325 93.8846 106.375 93.1276 107.172 92.3498C108.087 90.7811 108.918 89.1525 109.659 87.4678C110.042 86.5975 110.399 85.718 110.73 84.8281"
            fill="white" fill-opacity="0.5" />
        <path
            d="M113.389 74.165C112.485 75.0458 111.296 75.9031 109.834 76.7252C109.482 79.5056 108.917 82.2118 108.142 84.8306C109.554 84.0371 110.703 83.2085 111.575 82.3577C112.406 79.6985 113.012 76.9637 113.388 74.165"
            fill="white" fill-opacity="0.5" />
        <path
            d="M113.691 62.8926C112.782 63.7786 111.587 64.6411 110.118 65.4671C110.222 66.912 110.274 68.3596 110.27 69.8084C110.267 71.2546 110.211 72.6839 110.102 74.0962C111.571 73.2702 112.768 72.4077 113.676 71.5217C113.793 70.1041 113.853 68.6709 113.855 67.2247C113.858 65.7759 113.803 64.331 113.691 62.8926Z"
            fill="white" fill-opacity="0.5" />
        <path
            d="M111.631 51.7197C110.758 52.5705 109.61 53.3992 108.198 54.1926C108.962 57.0251 109.517 59.8863 109.86 62.7644C111.321 61.9423 112.511 61.085 113.415 60.2042C113.048 57.3443 112.453 54.5131 111.631 51.721"
            fill="#5F5CF1" fill-opacity="0.2" />
        <path
            d="M107.263 41.0225C106.466 41.8003 105.416 42.556 104.127 43.2817C104.976 45.0445 105.746 46.8503 106.432 48.6926C106.785 49.6398 107.113 50.5923 107.418 51.5473C108.806 50.7669 109.935 49.9525 110.794 49.1161C110.467 48.1767 110.114 47.2425 109.736 46.3135C109 44.5064 108.175 42.7423 107.263 41.0238"
            fill="#5F5CF1" fill-opacity="0.1" />
        <path
            d="M100.82 31.3431C100.134 32.0115 99.2312 32.6629 98.1216 33.2857C99.8811 35.6844 101.465 38.1951 102.867 40.8048C104.119 40.1012 105.137 39.3664 105.911 38.612C104.407 36.0752 102.707 33.6479 100.82 31.3418"
            fill="white" fill-opacity="0.5" />
        <path
            d="M92.5421 23.0293C91.999 23.5583 91.284 24.0742 90.4062 24.568C92.3377 26.3778 94.1688 28.3308 95.8918 30.4207C96.0689 30.6356 96.246 30.8532 96.4206 31.0708C97.4794 30.4754 98.3402 29.8552 98.9953 29.2168C98.8078 29.0083 98.6189 28.8011 98.4275 28.594C96.5794 26.5953 94.6142 24.7374 92.5421 23.0293Z"
            fill="white" fill-opacity="0.5" />
        <path
            d="M82.889 16.5625C82.5126 16.9299 82.0164 17.2869 81.4082 17.6296C83.841 19.1514 86.1657 20.8608 88.3719 22.7474C89.1898 22.2874 89.8553 21.808 90.3606 21.3155C87.9942 19.5448 85.5002 17.9579 82.8903 16.5625"
            fill="#5F5CF1" fill-opacity="0.1" />
        <path
            d="M72.2373 12.1787C72.0446 12.3663 71.7906 12.55 71.478 12.7259C74.071 13.6849 76.6158 14.8653 79.0994 16.2594C79.6399 15.9558 80.0788 15.6392 80.4122 15.3135C77.7476 14.0484 75.0178 13.0021 72.236 12.1787"
            fill="#5F5CF1" fill-opacity="0.05" />
        <path
            d="M61.0405 10.0928C63.7416 10.468 66.4102 11.0686 69.0331 11.8908C69.2714 11.7566 69.4668 11.6159 69.614 11.4725C66.8009 10.7885 63.9383 10.3273 61.0405 10.0941"
            fill="white" fill-opacity="0.5" />
        <path
            d="M87.4046 111.186C86.493 111.633 85.4315 112.058 84.2282 112.454C82.3384 113.59 80.3471 114.51 78.2646 115.205C78.2855 115.199 78.3063 115.191 78.3285 115.184L79.2271 114.876C80.7053 114.336 80.8251 114.292 81.7758 113.905C83.2201 113.295 83.3061 113.259 84.1683 112.857L85.1424 112.391C85.9108 112.015 86.6649 111.612 87.4059 111.185"
            fill="white" fill-opacity="0.5" />
        <path
            d="M95.2396 105.225C94.0584 105.803 92.6844 106.353 91.1267 106.866C90.9757 107.027 90.822 107.184 90.6683 107.342C89.1914 108.844 87.6234 110.173 85.9707 111.325C87.2639 110.899 88.4048 110.443 89.3842 109.962C91.2622 108.72 93.0425 107.307 94.72 105.725C94.8945 105.559 95.069 105.393 95.2409 105.225"
            fill="#5F5CF1" fill-opacity="0.1" />
        <path
            d="M101.526 97.3838C100.13 98.0678 98.5044 98.718 96.6628 99.3251C95.4568 101.458 94.0972 103.429 92.5864 105.23C94.2196 104.692 95.66 104.115 96.8972 103.509C98.6124 101.627 100.157 99.5818 101.526 97.3838Z"
            fill="white" fill-opacity="0.5" />
        <path
            d="M105.977 87.9814C104.429 88.7397 102.626 89.4615 100.583 90.1351C100.319 90.9898 100.035 91.8315 99.7286 92.6615C99.1373 94.2679 98.4757 95.808 97.7451 97.2802C99.6427 96.6549 101.317 95.9852 102.755 95.2803C103.584 93.7689 104.335 92.1924 105.007 90.5547C105.354 89.7091 105.676 88.8505 105.976 87.9827"
            fill="#5F5CF1" fill-opacity="0.1" />
        <path
            d="M108.384 77.4847C106.754 78.2834 104.856 79.043 102.705 79.7518C102.403 82.5113 101.919 85.1822 101.258 87.7529C103.335 87.0675 105.169 86.334 106.743 85.5627C107.495 82.9569 108.043 80.2599 108.386 77.4834"
            fill="white" fill-opacity="0.5" />
        <path
            d="M108.66 66.2314C107.02 67.034 105.112 67.7975 102.949 68.5115C103.038 69.963 103.081 71.4131 103.078 72.8619C103.076 74.3081 103.027 75.7348 102.934 77.1406C105.097 76.4279 107.005 75.6644 108.644 74.8606C108.751 73.4495 108.806 72.0215 108.809 70.5753C108.811 69.1265 108.762 67.6777 108.66 66.2327"
            fill="white" fill-opacity="0.5" />
        <path
            d="M106.797 54.9281C105.222 55.6994 103.39 56.4329 101.312 57.1169C101.965 59.9963 102.439 62.8927 102.729 65.7916C104.881 65.0829 106.779 64.3233 108.409 63.5246C108.077 60.6413 107.539 57.771 106.797 54.9268"
            fill="#5F5CF1" fill-opacity="0.05" />
        <path
            d="M102.849 43.9505C101.411 44.6554 99.7364 45.3251 97.8389 45.9505C98.5643 47.7667 99.2207 49.6194 99.8067 51.5047C100.108 52.4741 100.389 53.4461 100.648 54.4206C102.691 53.747 104.494 53.0265 106.042 52.2669C105.747 51.3067 105.428 50.3504 105.087 49.3966C104.421 47.5426 103.675 45.7264 102.85 43.9492"
            fill="white" fill-opacity="0.1" />
        <path
            d="M97.0213 33.8623C95.784 34.4682 94.3436 35.0453 92.7104 35.5834C94.2134 38.0915 95.5652 40.6999 96.7621 43.3969C98.6036 42.7898 100.229 42.1396 101.625 41.4556C100.265 38.8238 98.7274 36.2883 97.0213 33.8623Z"
            fill="#5F5CF1" fill-opacity="0.2" />
        <path
            d="M89.5352 25.0234C88.5559 25.5029 87.415 25.9602 86.123 26.3863C87.7731 28.3159 89.3373 30.3823 90.8076 32.579C90.96 32.8057 91.1098 33.0337 91.2596 33.2617C92.8172 32.7483 94.1912 32.1985 95.3724 31.62C95.2031 31.3998 95.0325 31.1796 94.8593 30.9621C93.1871 28.8461 91.4106 26.8631 89.5365 25.0234"
            fill="#5F5CF1" fill-opacity="0.2" />
        <path
            d="M80.8039 17.9453C80.1241 18.2776 79.3335 18.5942 78.4375 18.8899C80.5148 20.5628 82.5009 22.4156 84.3854 24.439C85.5888 24.0429 86.6502 23.6181 87.5618 23.1712C85.4208 21.2508 83.1651 19.5049 80.8052 17.9453"
            fill="#5F5CF1" fill-opacity="0.05" />
        <path
            d="M71.169 12.8867C70.8213 13.0574 70.4163 13.219 69.9565 13.3714C72.1719 14.4919 74.3455 15.8287 76.4657 17.3778C77.2602 17.1159 77.9622 16.8358 78.5638 16.5401C76.1532 15.1069 73.6852 13.8873 71.1677 12.888"
            fill="white" fill-opacity="0.1" />
        <path
            d="M61.0405 10.0928C63.3483 10.6348 65.6274 11.4009 67.8675 12.3846C68.2191 12.2686 68.5291 12.1448 68.7961 12.0146C66.2513 11.152 63.6622 10.5097 61.0405 10.0928Z"
            fill="#5F5CF1" fill-opacity="0.05" />
        <path
            d="M72.6865 116.716C72.3974 116.792 72.1057 116.86 71.814 116.92C72.2776 116.821 72.8962 116.692 73.3586 116.585L74.4799 116.312C73.9147 116.456 73.3169 116.59 72.6852 116.716"
            fill="#5F5CF1" fill-opacity="0.1" />
        <path
            d="M83.0585 112.818C81.7679 113.196 80.3366 113.544 78.7751 113.855C77.3255 114.88 75.7992 115.68 74.2012 116.25C75.3655 116.018 76.4308 115.759 77.3933 115.478C79.3715 114.814 81.2626 113.926 83.0585 112.818Z"
            fill="#5F5CF1" fill-opacity="0.05" />
        <path
            d="M89.6121 107.338C87.9411 107.828 86.0892 108.279 84.0666 108.682C83.9507 108.833 83.8335 108.981 83.715 109.128C82.5819 110.542 81.3798 111.777 80.1113 112.83C81.7888 112.495 83.3256 112.121 84.7139 111.715C86.2845 110.589 87.7744 109.283 89.1771 107.805C89.3229 107.651 89.4688 107.495 89.6121 107.337"
            fill="white" fill-opacity="0.1" />
        <path
            d="M94.8707 99.8828C92.8937 100.461 90.7045 100.994 88.3133 101.471C87.3887 103.532 86.3442 105.421 85.1851 107.132C87.304 106.71 89.2445 106.237 90.9975 105.724C92.4327 103.948 93.7246 101.997 94.8707 99.8828Z"
            fill="#5F5CF1" fill-opacity="0.05" />
        <path
            d="M98.5982 90.751C96.4063 91.3933 93.9774 91.9835 91.3258 92.5125C91.1227 93.3516 90.9039 94.1763 90.6694 94.988C90.2149 96.5593 89.707 98.0602 89.147 99.4882C91.6097 98.997 93.8654 98.4485 95.9023 97.8518C96.5965 96.3912 97.2242 94.8616 97.7868 93.2643C98.0773 92.4395 98.3482 91.6018 98.5982 90.751Z"
            fill="#5F5CF1" fill-opacity="0.05" />
        <path
            d="M100.613 80.4023C98.3051 81.0785 95.7472 81.7013 92.9563 82.2577C92.7245 84.999 92.352 87.6413 91.8428 90.1728C94.5387 89.6347 97.0079 89.0341 99.2376 88.3813C99.8666 85.8211 100.326 83.1567 100.613 80.4023Z"
            fill="white" fill-opacity="0.5" />
        <path
            d="M100.847 69.1631C98.5264 69.8432 95.9555 70.4686 93.1489 71.0275C93.2167 72.4842 93.2492 73.9382 93.2466 75.387C93.244 76.8333 93.2062 78.2573 93.1333 79.6566C95.9399 79.0977 98.5107 78.471 100.832 77.7922C100.921 76.3877 100.967 74.9623 100.97 73.5161C100.972 72.0673 100.932 70.6158 100.847 69.1631Z"
            fill="#5F5CF1" fill-opacity="0.05" />
        <path
            d="M99.2923 57.7451C97.0639 58.3979 94.5933 58.9985 91.8975 59.5366C92.3963 62.4564 92.7583 65.3814 92.981 68.2973C95.7733 67.741 98.3298 67.1182 100.638 66.442C100.362 63.5378 99.9122 60.635 99.2923 57.7451Z"
            fill="#5F5CF1" fill-opacity="0.05" />
        <path
            d="M95.9933 46.5244C93.9577 47.1211 91.702 47.6697 89.2393 48.1609C89.7941 50.0201 90.2968 51.9132 90.7461 53.8337C90.9766 54.8213 91.1915 55.8102 91.3895 56.8004C94.0411 56.2714 96.4687 55.6812 98.6605 55.0389C98.4144 54.0604 98.1474 53.0832 97.8609 52.1099C97.3048 50.2155 96.6809 48.3524 95.992 46.5244"
            fill="#5F5CF1" fill-opacity="0.2" />
        <path
            d="M91.1241 36.0765C89.3724 36.5898 87.4319 37.0615 85.313 37.4836C86.4643 40.0816 87.4997 42.7721 88.4165 45.5408C90.8063 45.0639 92.9969 44.531 94.9726 43.9525C93.8356 41.2373 92.5515 38.6067 91.1241 36.0752"
            fill="#5F5CF1" fill-opacity="0.2" />
        <path
            d="M84.8649 26.7764C83.4779 27.1829 81.9411 27.5568 80.2637 27.8903C81.5283 29.919 82.7264 32.0805 83.853 34.3645C83.9689 34.6003 84.0848 34.8374 84.1994 35.0745C86.2207 34.6719 88.0726 34.2211 89.7436 33.7313C89.6016 33.5006 89.4583 33.27 89.3151 33.042C87.9176 30.8232 86.4316 28.7307 84.8649 26.7764Z"
            fill="#5F5CF1" fill-opacity="0.2" />
        <path
            d="M77.5663 19.1611C76.6051 19.4426 75.5385 19.7018 74.3755 19.9338C75.9683 21.7318 77.4894 23.703 78.9338 25.8398C80.4953 25.5284 81.9253 25.1805 83.2159 24.8027C81.4265 22.7506 79.5407 20.8666 77.5663 19.1611Z"
            fill="#5F5CF1" fill-opacity="0.1" />
        <path
            d="M69.51 13.5098C69.0177 13.6544 68.4707 13.7873 67.8755 13.9058C69.5738 15.1592 71.2395 16.6263 72.8648 18.3018C73.8963 18.096 74.8405 17.8667 75.6936 17.6165C73.6788 16.0348 71.6146 14.6641 69.51 13.5098Z"
            fill="white" fill-opacity="0.5" />
        <path
            d="M61.0396 10.0928C62.8082 10.7729 64.5559 11.6758 66.2737 12.795C66.7296 12.7038 67.1476 12.6022 67.5253 12.4914C65.3972 11.4725 63.2327 10.6713 61.0396 10.0928Z"
            fill="white" fill-opacity="0.1" />
        <path
            d="M71.6929 116.903C71.0639 117.013 70.4075 117.114 69.7225 117.207C69.225 117.273 68.7222 117.335 68.2143 117.389C67.7663 117.535 67.3131 117.634 66.856 117.686C67.2831 117.636 67.8549 117.57 68.282 117.513C68.9658 117.413 69.8761 117.272 70.5586 117.159C70.9389 117.09 71.3178 117.004 71.6942 116.903"
            fill="#5F5CF1" fill-opacity="0.1" />
        <path
            d="M77.2721 114.137C76.32 114.303 75.3263 114.457 74.2897 114.597C73.5356 114.698 72.775 114.789 72.0079 114.873C71.1041 115.815 70.1534 116.528 69.1597 117.008C69.7314 116.947 70.2992 116.878 70.8606 116.802C71.6329 116.698 72.3739 116.584 73.0824 116.46C74.5449 115.914 75.945 115.137 77.2734 114.137"
            fill="white" fill-opacity="0.1" />
        <path
            d="M82.121 109.045C80.8889 109.262 79.6022 109.46 78.2595 109.641C77.284 109.772 76.2981 109.891 75.3057 109.998C75.2328 110.142 75.1598 110.284 75.0869 110.425C74.381 111.775 73.6309 112.941 72.8403 113.922C73.6647 113.833 74.4826 113.734 75.2927 113.625C76.4062 113.475 77.4741 113.31 78.4965 113.131C79.6582 112.098 80.7613 110.882 81.7993 109.486C81.9074 109.34 82.0155 109.192 82.121 109.044"
            fill="white" fill-opacity="0.1" />
        <path
            d="M86.015 101.901C84.5589 102.157 83.0365 102.391 81.4502 102.605C80.2963 102.76 79.132 102.901 77.9573 103.027C77.3803 105.036 76.7279 106.867 76.0063 108.511C77.0469 108.399 78.081 108.274 79.1034 108.137C80.5099 107.948 81.8592 107.74 83.1498 107.513C84.2112 105.822 85.1685 103.948 86.0163 101.901"
            fill="#5F5CF1" fill-opacity="0.1" />
        <path
            d="M88.7747 92.9912C87.1597 93.2739 85.4706 93.5345 83.7111 93.7716C82.4322 93.9436 81.1389 94.1 79.8366 94.2407C79.7102 95.068 79.5735 95.881 79.4263 96.6784C79.1424 98.2237 78.8246 99.6959 78.4756 101.093C79.6855 100.962 80.8863 100.818 82.074 100.657C83.7085 100.437 85.2765 100.195 86.7768 99.9331C87.29 98.5142 87.7562 97.0211 88.173 95.4563C88.3879 94.6485 88.5884 93.8264 88.7747 92.9912Z"
            fill="white" fill-opacity="0.5" />
        <path
            d="M90.2696 82.7588C88.5687 83.0572 86.791 83.3308 84.9377 83.5809C83.5911 83.762 82.2301 83.9262 80.8587 84.0747C80.7115 86.803 80.4784 89.4257 80.1606 91.9273C81.4851 91.784 82.7992 91.6263 84.1003 91.4504C85.8897 91.2094 87.6062 90.9449 89.2485 90.657C89.7148 88.1333 90.056 85.4975 90.2696 82.7588Z"
            fill="white" fill-opacity="0.5" />
        <path
            d="M90.448 71.5332C88.738 71.8329 86.9498 72.1091 85.0875 72.3592C83.733 72.5416 82.3655 72.7071 80.9863 72.8556C81.028 74.3162 81.0462 75.7715 81.0436 77.2204C81.041 78.6666 81.0163 80.088 80.9707 81.4848C82.3499 81.3362 83.7187 81.1708 85.0718 80.9884C86.9342 80.7382 88.7224 80.462 90.4324 80.1623C90.4988 78.763 90.5339 77.3402 90.5365 75.894C90.5392 74.4452 90.5092 72.9911 90.448 71.5332Z"
            fill="#5F5CF1" fill-opacity="0.05" />
        <path
            d="M89.3047 60.0208C87.6624 60.3088 85.9446 60.5733 84.1564 60.8143C82.8554 60.9889 81.5413 61.1478 80.2168 61.2912C80.5255 64.2396 80.7482 67.1855 80.8849 70.1144C82.2563 69.9672 83.6173 69.8017 84.9639 69.6206C86.8159 69.3718 88.5949 69.0968 90.2958 68.7985C90.0926 65.8787 89.7618 62.9471 89.3047 60.0195"
            fill="white" fill-opacity="0.1" />
        <path
            d="M86.8706 48.6038C85.3703 48.867 83.8022 49.1094 82.1678 49.3283C80.98 49.4885 79.7792 49.6331 78.5693 49.7634C78.9132 51.6552 79.2257 53.5757 79.5031 55.5222C79.6464 56.5229 79.7792 57.5248 79.9016 58.5254C81.204 58.3847 82.4973 58.2297 83.7762 58.0564C85.5357 57.8193 87.2235 57.5587 88.8398 57.276C88.6574 56.2831 88.4608 55.2903 88.2498 54.2988C87.8395 52.3705 87.3798 50.4709 86.8706 48.6025"
            fill="#5F5CF1" fill-opacity="0.2" />
        <path
            d="M83.2735 37.8652C81.9829 38.0919 80.6336 38.2991 79.2271 38.4893C78.2047 38.6274 77.1719 38.7512 76.1313 38.8633C76.8463 41.5264 77.4897 44.2755 78.0575 47.0976C79.2323 46.9712 80.3979 46.8305 81.5505 46.6754C83.1368 46.4618 84.6592 46.2273 86.1153 45.9719C85.2765 43.1889 84.3271 40.4815 83.2735 37.8652Z"
            fill="white" fill-opacity="0.1" />
        <path
            d="M78.65 28.1924C77.6276 28.3709 76.5597 28.5363 75.4462 28.6862C74.6374 28.7956 73.8195 28.8933 72.9951 28.9832C73.7804 31.0835 74.5254 33.3128 75.2248 35.6619C75.2964 35.9043 75.368 36.1479 75.4396 36.3915C76.4333 36.2847 77.4179 36.1661 78.3934 36.0345C79.7348 35.8534 81.0216 35.6554 82.2536 35.4391C82.1494 35.1994 82.0439 34.961 81.9371 34.7238C80.9044 32.4216 79.8078 30.2418 78.65 28.1924Z"
            fill="#5F5CF1" fill-opacity="0.05" />
        <path
            d="M73.2569 20.1426C72.5484 20.2664 71.8073 20.381 71.035 20.4852C70.4737 20.5608 69.9072 20.6299 69.3354 20.6911C70.3252 22.579 71.2721 24.6376 72.1694 26.8564C72.9365 26.7743 73.6971 26.6818 74.4511 26.5802C75.4865 26.4408 76.4815 26.2871 77.4322 26.1203C76.1103 23.9614 74.7155 21.9653 73.2569 20.1426Z"
            fill="white" fill-opacity="0.5" />
        <path
            d="M67.301 14.0146C66.9377 14.0785 66.5587 14.1371 66.1628 14.1905C65.875 14.2296 65.5845 14.2648 65.2915 14.2961C66.3477 15.6459 67.3844 17.2081 68.395 18.9761C68.9017 18.9214 69.4044 18.8601 69.9019 18.7937C70.5869 18.7012 71.2433 18.5996 71.871 18.4901C70.3811 16.7885 68.8561 15.2954 67.2997 14.016"
            fill="#5F5CF1" fill-opacity="0.05" />
        <path
            d="M61.0396 10.0928C62.14 10.8745 63.2275 11.8751 64.2955 13.0921C64.5195 13.0673 64.7422 13.0412 64.9623 13.0113C65.2657 12.9709 65.5561 12.9253 65.8335 12.8771C64.2603 11.7318 62.6597 10.8016 61.0396 10.0928Z"
            fill="#5F5CF1" fill-opacity="0.05" />
        <path
            d="M67.0797 117.501C65.8633 117.609 64.6286 117.683 63.3914 117.725C63.196 117.884 62.9981 117.967 62.7988 117.974C63.4735 117.944 64.3734 117.896 65.048 117.851L65.8294 117.788C66.2514 117.749 66.6681 117.652 67.081 117.501"
            fill="white" fill-opacity="0.1" />
        <path
            d="M70.29 115.041C68.4484 115.205 66.5795 115.317 64.7068 115.38C64.3929 116.28 64.0634 116.951 63.7183 117.386C65.1144 117.339 66.5066 117.256 67.8793 117.133C68.7206 116.668 69.5255 115.969 70.29 115.041Z"
            fill="#5F5CF1" fill-opacity="0.05" />
        <path
            d="M73.081 110.217C70.6964 110.429 68.2766 110.574 65.8529 110.656C65.8281 110.797 65.8021 110.936 65.776 111.074C65.5299 112.391 65.2694 113.525 64.9946 114.469C67.0068 114.402 69.015 114.281 70.9933 114.105C71.6627 113.135 72.297 111.98 72.8948 110.642C72.9573 110.502 73.0185 110.36 73.081 110.217Z"
            fill="white" fill-opacity="0.1" />
        <path
            d="M75.3252 103.285C72.5056 103.537 69.6443 103.707 66.7778 103.804C66.5759 105.787 66.348 107.587 66.0967 109.199C68.6376 109.113 71.1733 108.961 73.6738 108.739C74.2859 107.105 74.8368 105.285 75.3265 103.285"
            fill="white" fill-opacity="0.5" />
        <path
            d="M76.9191 94.5254C73.7922 94.8042 70.6183 94.9944 67.4392 95.1013C67.3949 95.9221 67.3455 96.7299 67.2947 97.5208C67.1944 99.053 67.0837 100.511 66.96 101.892C69.9137 101.793 72.861 101.616 75.7652 101.358C76.0622 99.9663 76.3304 98.4992 76.5714 96.9579C76.6951 96.1618 76.811 95.3514 76.9191 94.5254Z"
            fill="white" fill-opacity="0.1" />
        <path
            d="M77.7867 84.376C74.4943 84.6691 71.1525 84.8698 67.8041 84.9818C67.7507 87.7036 67.666 90.3159 67.5527 92.8044C70.7865 92.6963 74.0124 92.5022 77.1928 92.2194C77.4637 89.7218 77.6617 87.1029 77.7867 84.3773"
            fill="white" fill-opacity="0.1" />
        <path
            d="M77.8983 73.1595C74.5877 73.454 71.2289 73.6559 67.8623 73.7693C67.8753 75.2324 67.8792 76.6878 67.8766 78.1366C67.874 79.5828 67.8636 81.003 67.8467 82.3971C71.2133 82.2837 74.5721 82.0818 77.8827 81.7873C77.9217 80.3919 77.9439 78.9704 77.9465 77.5242C77.9491 76.0754 77.9335 74.6201 77.8996 73.1582"
            fill="white" fill-opacity="0.5" />
        <path
            d="M77.2501 61.582C74.0697 61.8648 70.8438 62.0589 67.6113 62.167C67.7142 65.1298 67.7884 68.0861 67.8314 71.0215C71.1798 70.9095 74.5204 70.7088 77.8127 70.4157C77.6981 67.4842 77.5106 64.5344 77.2501 61.582Z"
            fill="#5F5CF1" fill-opacity="0.1" />
        <path
            d="M75.859 50.0306C72.9547 50.2886 70.0075 50.4658 67.0537 50.5648C67.1709 52.4722 67.2764 54.407 67.3702 56.3666C67.4184 57.3738 67.4627 58.3809 67.5043 59.388C70.6834 59.2812 73.8572 59.091 76.9842 58.8122C76.88 57.8089 76.768 56.8057 76.6482 55.8025C76.4138 53.852 76.1507 51.9263 75.8603 50.0293"
            fill="white" fill-opacity="0.1" />
        <path
            d="M73.8 39.0928C71.3007 39.3156 68.765 39.468 66.2241 39.5527C66.4677 42.2484 66.6878 45.0275 66.8805 47.8756C69.747 47.7792 72.6083 47.6072 75.4266 47.3571C74.946 44.5272 74.4029 41.7676 73.7987 39.0941"
            fill="white" fill-opacity="0.5" />
        <path
            d="M71.1497 29.1641C69.1714 29.34 67.1632 29.4611 65.1523 29.5289C65.4219 31.6656 65.6759 33.9288 65.9155 36.3092C65.9403 36.5554 65.965 36.8017 65.9885 37.0492C68.4122 36.9671 70.8319 36.8225 73.2166 36.6101C73.1567 36.3652 73.0954 36.1202 73.0355 35.8779C72.4443 33.5184 71.8152 31.2774 71.151 29.1654"
            fill="white" fill-opacity="0.5" />
        <path
            d="M68.0552 20.8164C66.6839 20.9389 65.2916 21.0223 63.8955 21.0692C64.2354 23.0027 64.561 25.1043 64.8684 27.3635C66.7412 27.3009 68.6088 27.1889 70.4503 27.0247C69.6923 24.7929 68.8914 22.7199 68.0552 20.8164Z"
            fill="white" fill-opacity="0.5" />
        <path
            d="M64.6365 14.3594C63.9332 14.4219 63.2209 14.4649 62.5059 14.4884C62.8692 15.8864 63.2261 17.4955 63.5738 19.3104C64.811 19.2687 66.0444 19.1944 67.2608 19.0863C66.4064 17.3026 65.5299 15.7248 64.6365 14.3594Z"
            fill="white" fill-opacity="0.1" />
        <path
            d="M61.0396 10.0928C61.4198 10.924 61.7936 11.9755 62.1622 13.2393C62.7092 13.221 63.2562 13.1885 63.794 13.1403C62.8902 11.9077 61.9707 10.8901 61.0396 10.0928Z"
            fill="#5F5CF1" fill-opacity="0.05" />
        <path
            d="M62.2311 117.754C60.9938 117.775 59.7592 117.764 58.5415 117.723C58.7173 117.882 58.8944 117.965 59.0742 117.972L60.146 117.998C60.6735 118 61.3754 118.001 61.9029 117.995C62.0136 117.992 62.123 117.91 62.2311 117.753"
            fill="#5F5CF1" fill-opacity="0.05" />
        <path
            d="M62.9498 115.424C61.077 115.456 59.2081 115.439 57.3652 115.377C57.6439 116.277 57.9396 116.948 58.2482 117.383C59.6209 117.43 61.0144 117.442 62.4093 117.419C62.5981 116.987 62.7778 116.322 62.9498 115.424Z"
            fill="#5F5CF1" fill-opacity="0.05" />
        <path
            d="M63.5789 110.713C61.1539 110.755 58.7341 110.734 56.3481 110.653C56.3703 110.794 56.3924 110.933 56.4159 111.072C56.6321 112.389 56.8639 113.522 57.1074 114.467C59.087 114.535 61.0965 114.552 63.1087 114.516C63.2598 113.574 63.4017 112.445 63.5372 111.13C63.5515 110.993 63.5658 110.854 63.5789 110.713Z"
            fill="white" fill-opacity="0.5" />
        <path
            d="M64.0881 103.872C61.2216 103.922 58.359 103.897 55.5381 103.801C55.7126 105.784 55.9119 107.586 56.1333 109.196C58.6338 109.281 61.1708 109.303 63.7117 109.26C63.8498 107.651 63.9761 105.853 64.0881 103.872Z"
            fill="#5F5CF1" fill-opacity="0.2" />
        <path
            d="M64.4566 95.1771C61.2775 95.2319 58.1037 95.2045 54.9741 95.0977C55.0119 95.9198 55.0523 96.7263 55.0965 97.5171C55.1812 99.0494 55.2763 100.509 55.3818 101.888C58.2873 101.987 61.2359 102.013 64.1896 101.961C64.2573 100.582 64.3199 99.1249 64.3759 97.594C64.4045 96.8032 64.4319 95.9967 64.4566 95.1758"
            fill="white" fill-opacity="0.5" />
        <path
            d="M64.6651 85.0629C61.3167 85.1202 57.9748 85.0915 54.6812 84.9795C54.7202 87.7013 54.7866 90.3136 54.8804 92.8021C58.0621 92.9102 61.2893 92.9389 64.5231 92.8829C64.5869 90.3956 64.6351 87.7859 64.6664 85.0642"
            fill="#5F5CF1" fill-opacity="0.1" />
        <path
            d="M64.7054 73.849C61.3401 73.9076 57.98 73.8777 54.6681 73.7656C54.6512 75.2288 54.642 76.6841 54.6394 78.133C54.6368 79.5792 54.6407 80.9993 54.6525 82.3934C57.9644 82.5055 61.3245 82.5354 64.6911 82.4768C64.7015 81.0827 64.708 79.6625 64.7119 78.2163C64.7145 76.7675 64.7119 75.3109 64.708 73.8477"
            fill="#5F5CF1" fill-opacity="0.1" />
        <path
            d="M64.5781 62.2448C61.3457 62.3009 58.1184 62.2722 54.9367 62.1641C54.8338 65.1269 54.757 68.0818 54.7075 71.0186C58.0025 71.1306 61.3444 71.1593 64.6914 71.102C64.6706 68.1652 64.6328 65.2076 64.5781 62.2448Z"
            fill="#5F5CF1" fill-opacity="0.2" />
        <path
            d="M64.2848 50.6345C61.3311 50.6853 58.3838 50.6592 55.4783 50.5615C55.3663 52.469 55.2647 54.4038 55.1735 56.3633C55.1266 57.3705 55.0824 58.3776 55.042 59.3848C58.1703 59.4916 61.3441 59.519 64.5232 59.4642C64.501 58.4571 64.4776 57.4487 64.4528 56.4402C64.4034 54.4793 64.3474 52.5432 64.2848 50.6345Z"
            fill="white" fill-opacity="0.1" />
        <path
            d="M63.8419 39.6127C61.301 39.657 58.7653 39.6348 56.2648 39.5488C56.0356 42.2445 55.8285 45.0236 55.6436 47.8705C58.4645 47.9669 61.3258 47.9916 64.1922 47.9421C64.0894 45.0927 63.9721 42.311 63.8419 39.6114"
            fill="#5F5CF1" fill-opacity="0.1" />
        <path
            d="M63.2651 29.5769C61.253 29.612 59.246 29.5938 57.2664 29.5273C57.0164 31.6641 56.7794 33.9272 56.5554 36.3076C56.5319 36.5539 56.5098 36.8001 56.4863 37.0464C58.8723 37.1272 61.292 37.148 63.7157 37.1063C63.7027 36.8588 63.6897 36.6125 63.6767 36.3663C63.5477 33.982 63.411 31.7162 63.2664 29.5769"
            fill="#5F5CF1" fill-opacity="0.05" />
        <path
            d="M62.5882 21.1035C61.1933 21.127 59.8011 21.1153 58.4284 21.0684C58.1145 23.0019 57.815 25.1034 57.5298 27.3627C59.3726 27.4252 61.2415 27.4421 63.113 27.4096C62.9476 25.1464 62.7718 23.041 62.5882 21.1035Z"
            fill="#5F5CF1" fill-opacity="0.1" />
        <path
            d="M61.835 14.5055C61.12 14.5173 60.4063 14.5121 59.703 14.4873C59.3709 15.8853 59.044 17.4944 58.7236 19.308C59.94 19.3497 61.1747 19.3602 62.4119 19.3393C62.2244 17.5205 62.0303 15.9075 61.8337 14.5055"
            fill="white" fill-opacity="0.5" />
        <path
            d="M61.0394 10.0928C60.6943 10.924 60.3531 11.9742 60.0171 13.2393C60.555 13.2575 61.102 13.2627 61.6489 13.2523C61.4497 11.9833 61.2465 10.9279 61.0394 10.0928Z"
            fill="white" fill-opacity="0.1" />
        <path
            d="M57.4044 117.675C56.1997 117.615 55.0159 117.524 53.8711 117.404C54.3178 117.558 54.7697 117.658 55.2255 117.707H55.2282C56.8327 117.856 56.8626 117.859 57.7469 117.911L58.1858 117.935C57.9227 117.92 57.6623 117.834 57.4057 117.675"
            fill="white" fill-opacity="0.5" />
        <path
            d="M55.6449 115.306C53.8202 115.214 52.0308 115.078 50.2974 114.896C51.1478 115.836 52.0438 116.547 52.9815 117.025C54.2735 117.16 55.6071 117.263 56.9668 117.33C56.5044 116.889 56.0642 116.212 55.6462 115.306"
            fill="#5F5CF1" fill-opacity="0.1" />
        <path
            d="M54.1226 110.56C51.7614 110.441 49.4432 110.264 47.1992 110.029C47.2669 110.174 47.336 110.316 47.405 110.457C48.0679 111.804 48.7712 112.97 49.5148 113.95C51.3772 114.144 53.3008 114.291 55.2608 114.39C54.8949 113.439 54.5497 112.302 54.2242 110.979C54.1903 110.841 54.1564 110.702 54.1226 110.56Z"
            fill="#5F5CF1" fill-opacity="0.2" />
        <path
            d="M52.9073 103.691C50.1151 103.552 47.3749 103.341 44.7207 103.064C45.2586 105.072 45.8681 106.901 46.544 108.544C48.8961 108.789 51.325 108.976 53.8008 109.099C53.4687 107.484 53.1704 105.677 52.9073 103.691Z"
            fill="#5F5CF1" fill-opacity="0.1" />
        <path
            d="M52.0543 94.9747C48.9573 94.8197 45.9176 94.5865 42.9756 94.2803C43.0928 95.1076 43.2191 95.9193 43.3546 96.718C43.6177 98.2632 43.912 99.7342 44.2376 101.131C46.9712 101.416 49.7947 101.633 52.6704 101.776C52.5115 100.392 52.3669 98.9329 52.2393 97.3981C52.1729 96.606 52.1116 95.7982 52.0543 94.976"
            fill="#5F5CF1" fill-opacity="0.05" />
        <path
            d="M51.6065 84.8504C48.3454 84.6862 45.1455 84.4413 42.0459 84.1182C42.1748 86.8464 42.3858 89.4679 42.6775 91.9694C45.6704 92.2808 48.7609 92.518 51.91 92.6756C51.768 90.1858 51.6664 87.5722 51.6065 84.8491"
            fill="white" fill-opacity="0.1" />
        <path
            d="M51.578 73.6346C48.2999 73.4704 45.0818 73.2242 41.9666 72.8984C41.9223 74.359 41.8988 75.8143 41.8962 77.2632C41.8936 78.7094 41.9119 80.1308 41.9496 81.5276C45.0649 81.852 48.283 82.0982 51.5611 82.2637C51.5428 80.8696 51.5363 79.4481 51.5389 78.0019C51.5415 76.5531 51.5545 75.0964 51.578 73.6346Z"
            fill="white" fill-opacity="0.1" />
        <path
            d="M51.9671 62.0392C48.818 61.8815 45.7275 61.6444 42.7347 61.333C42.4325 64.2815 42.2111 67.2273 42.0718 70.1576C45.1701 70.4807 48.3713 70.7256 51.6311 70.8898C51.7027 67.9543 51.8147 65.0007 51.9658 62.0392"
            fill="white" fill-opacity="0.5" />
        <path
            d="M52.7654 50.4477C49.8885 50.303 47.0663 50.0868 44.3326 49.8027C44.0005 51.6945 43.6997 53.6163 43.4301 55.5642C43.292 56.5648 43.1618 57.5667 43.042 58.5686C45.984 58.8748 49.0237 59.1081 52.1207 59.2631C52.1807 58.2573 52.2458 57.2501 52.3148 56.2443C52.4489 54.2873 52.6 52.3538 52.7654 50.449"
            fill="white" fill-opacity="0.1" />
        <path
            d="M53.931 39.4525C51.4565 39.3287 49.0276 39.1424 46.6755 38.8975C45.9905 41.5619 45.3732 44.3136 44.8262 47.1357C47.4791 47.4119 50.2192 47.6217 53.0115 47.7624C53.2837 44.9182 53.5911 42.1443 53.931 39.4525Z"
            fill="white" fill-opacity="0.5" />
        <path
            d="M55.4185 29.4479C53.4598 29.3501 51.5362 29.2016 49.6738 29.0088C48.9237 31.1117 48.2126 33.3422 47.5432 35.6927C47.4741 35.935 47.4051 36.1787 47.3374 36.4223C49.5814 36.6555 51.8983 36.834 54.2594 36.9526C54.2933 36.7063 54.3272 36.4601 54.361 36.2151C54.6931 33.8386 55.0461 31.5807 55.4185 29.4492"
            fill="#5F5CF1" fill-opacity="0.05" />
        <path
            d="M57.1466 21.0148C55.7882 20.9471 54.4546 20.8442 53.1627 20.71C52.2198 22.6005 51.3185 24.6604 50.4629 26.8818C52.195 27.0629 53.9858 27.1997 55.8091 27.2909C56.2336 25.0369 56.6791 22.9418 57.1453 21.0148"
            fill="white" fill-opacity="0.1" />
        <path
            d="M59.047 14.4601C58.3502 14.4249 57.6678 14.3728 57.0062 14.3037C56.0033 15.6561 55.0188 17.2196 54.0576 18.9902C55.2024 19.1101 56.3849 19.2 57.5896 19.2599C58.065 17.4515 58.5521 15.8503 59.0483 14.4588"
            fill="#5F5CF1" fill-opacity="0.05" />
        <path
            d="M61.0396 10.0928C59.9964 10.8758 58.9662 11.8804 57.9517 13.0986C58.4583 13.152 58.9818 13.1911 59.5145 13.2184C60.0159 11.9611 60.5251 10.9175 61.0396 10.0928Z"
            fill="#5F5CF1" fill-opacity="0.1" />
        <path
            d="M52.8096 117.285C51.6896 117.148 50.6125 116.983 49.5928 116.79C49.9574 116.888 50.3247 116.972 50.6946 117.043C51.2233 117.137 51.9266 117.262 52.4567 117.346C52.9841 117.422 53.6887 117.524 54.2175 117.591C53.7434 117.531 53.2745 117.43 52.8096 117.284"
            fill="white" fill-opacity="0.5" />
        <path
            d="M48.6894 114.714C46.9937 114.507 45.3631 114.257 43.8198 113.965C45.1925 114.98 46.6394 115.771 48.1541 116.331C49.3041 116.547 50.5192 116.734 51.7825 116.889C50.7015 116.393 49.6687 115.668 48.6894 114.713"
            fill="#5F5CF1" fill-opacity="0.05" />
        <path
            d="M45.1182 109.793C42.9237 109.524 40.8113 109.2 38.8135 108.823C38.9229 108.973 39.0336 109.122 39.1456 109.269C40.2161 110.675 41.3544 111.903 42.5552 112.948C44.2131 113.261 45.966 113.529 47.788 113.752C46.9311 112.759 46.1197 111.583 45.3552 110.223C45.2758 110.081 45.1963 109.937 45.1182 109.791"
            fill="#5F5CF1" fill-opacity="0.05" />
        <path
            d="M42.2594 102.786C39.6638 102.468 37.1672 102.085 34.8047 101.64C35.676 103.694 36.6606 105.578 37.7545 107.281C39.8487 107.676 42.0627 108.016 44.3627 108.297C43.5826 106.643 42.8806 104.803 42.2594 102.786Z"
            fill="white" fill-opacity="0.1" />
        <path
            d="M40.2457 93.9718C37.3675 93.62 34.5987 93.194 31.9771 92.7002C32.1672 93.538 32.3717 94.3614 32.5905 95.1718C33.0163 96.7405 33.493 98.2375 34.0205 99.6629C36.4546 100.122 39.0267 100.516 41.7005 100.843C41.3254 99.4414 40.9855 97.9652 40.682 96.4161C40.5257 95.6161 40.3799 94.8005 40.2444 93.9718"
            fill="white" fill-opacity="0.1" />
        <path
            d="M39.1716 83.7922C36.141 83.4208 33.225 82.974 30.4653 82.4541C30.6763 85.1941 31.0201 87.8351 31.4942 90.3627C34.1588 90.8643 36.9745 91.2969 39.9022 91.6552C39.5649 89.1484 39.3214 86.5231 39.1716 83.7922Z"
            fill="white" fill-opacity="0.1" />
        <path
            d="M39.0763 72.5734C36.0287 72.2008 33.0971 71.75 30.3231 71.2275C30.2541 72.6842 30.2176 74.1382 30.215 75.587C30.2124 77.0333 30.2424 78.4573 30.3075 79.8567C33.0815 80.3791 36.0131 80.8299 39.0606 81.2026C39.0164 79.8058 38.9942 78.3844 38.9968 76.9382C38.9994 75.4893 39.0255 74.034 39.0763 72.5747"
            fill="white" fill-opacity="0.5" />
        <path
            d="M39.9595 61.0181C37.0331 60.6598 34.2174 60.2272 31.5528 59.7256C31.0683 62.648 30.7141 65.5756 30.4927 68.4941C33.2524 69.014 36.1684 69.4609 39.199 69.8322C39.3591 66.9046 39.6131 63.9626 39.9608 61.0181"
            fill="white" fill-opacity="0.1" />
        <path
            d="M41.7983 49.5144C39.1246 49.1874 36.5524 48.7926 34.1183 48.334C33.5843 50.1971 33.0998 52.0929 32.6675 54.0159C32.4447 55.0048 32.2377 55.995 32.0449 56.9865C34.6653 57.4803 37.4341 57.9051 40.3123 58.2582C40.4504 57.2589 40.5988 56.2595 40.7577 55.2602C41.0677 53.3176 41.4141 51.401 41.797 49.5144"
            fill="white" fill-opacity="0.5" />
        <path
            d="M44.4944 38.6491C42.1944 38.3676 39.9817 38.0276 37.8875 37.6328C36.7857 40.2373 35.792 42.9343 34.9116 45.7095C37.2741 46.1551 39.7707 46.5381 42.3663 46.856C42.9967 44.0431 43.7078 41.3031 44.4957 38.6491"
            fill="white" fill-opacity="0.1" />
        <path
            d="M47.9466 28.8137C46.1259 28.5909 44.3729 28.3212 42.715 28.0098C41.5077 30.0462 40.3616 32.2142 39.282 34.506C39.1713 34.7432 39.0606 34.9803 38.9512 35.2174C40.949 35.5939 43.0601 35.9184 45.2546 36.1868C45.3327 35.9444 45.4122 35.7021 45.4916 35.4598C46.2626 33.121 47.0818 30.9022 47.9453 28.8124"
            fill="#5F5CF1" fill-opacity="0.1" />
        <path
            d="M51.9657 20.5742C50.7024 20.4192 49.4873 20.2329 48.3387 20.0166C46.8201 21.8237 45.368 23.8054 43.9888 25.9513C45.5321 26.2419 47.1626 26.492 48.857 26.6992C49.8429 24.4934 50.8809 22.4478 51.9657 20.5742Z"
            fill="#5F5CF1" fill-opacity="0.1" />
        <path
            d="M56.3927 14.2346C55.7454 14.1551 55.1229 14.06 54.5342 13.9492C52.9167 15.213 51.3291 16.6905 49.7793 18.3765C50.799 18.568 51.8761 18.7335 52.9961 18.8716C54.1044 17.1179 55.2375 15.57 56.3927 14.2359"
            fill="white" fill-opacity="0.5" />
        <path
            d="M61.0393 10.0928C59.3567 10.7846 57.6935 11.6979 56.0591 12.8263C56.5097 12.9109 56.9864 12.9839 57.4826 13.0451C58.6508 11.8439 59.8385 10.8576 61.0393 10.0928Z"
            fill="#5F5CF1" fill-opacity="0.05" />
        <path
            d="M48.6538 116.602C48.1784 116.5 47.7174 116.394 47.272 116.28C47.8593 116.424 48.6421 116.613 49.232 116.745L49.4847 116.8C49.2073 116.74 48.9299 116.675 48.6538 116.602Z"
            fill="white" fill-opacity="0.1" />
        <path
            d="M42.3985 113.681C40.9125 113.365 39.5203 113.01 38.2466 112.616C40.0699 113.739 41.9909 114.645 44.0017 115.326C44.9511 115.619 45.9878 115.884 47.0961 116.12C45.4551 115.533 43.8871 114.719 42.3998 113.681"
            fill="#5F5CF1" fill-opacity="0.1" />
        <path
            d="M36.973 108.457C35.0481 108.047 33.2469 107.588 31.5981 107.078C31.744 107.237 31.8912 107.395 32.0396 107.55C33.4618 109.042 34.9726 110.359 36.5666 111.5C37.9354 111.922 39.4305 112.305 41.0272 112.644C39.7262 111.578 38.4928 110.331 37.3324 108.907C37.2113 108.759 37.0915 108.609 36.9717 108.457"
            fill="#5F5CF1" fill-opacity="0.05" />
        <path
            d="M32.6298 101.204C30.3545 100.721 28.2239 100.176 26.2729 99.5742C27.4307 101.699 28.7396 103.66 30.1931 105.45C31.9213 105.984 33.8097 106.467 35.8271 106.895C34.6406 105.174 33.574 103.274 32.6298 101.204Z"
            fill="white" fill-opacity="0.5" />
        <path
            d="M29.5653 92.2166C27.0413 91.6798 24.6788 91.0766 22.5156 90.4082C22.7683 91.2603 23.0405 92.1007 23.3322 92.928C23.8987 94.5306 24.5317 96.0667 25.2323 97.5325C27.2419 98.1526 29.4364 98.7142 31.7806 99.2119C31.2089 97.7787 30.6918 96.2726 30.2308 94.6974C29.9925 93.883 29.7711 93.057 29.5653 92.2153"
            fill="#5F5CF1" fill-opacity="0.05" />
        <path
            d="M27.9254 81.9465C25.2686 81.3823 22.7798 80.7452 20.502 80.043C20.7833 82.7999 21.2404 85.4682 21.872 88.0337C24.0717 88.7125 26.4746 89.3261 29.0402 89.8721C28.5258 87.3353 28.1533 84.6904 27.9241 81.9465"
            fill="white" fill-opacity="0.5" />
        <path
            d="M27.7693 70.7147C25.0982 70.1467 22.5963 69.5083 20.3068 68.8008C20.2156 70.2522 20.1687 71.7036 20.1661 73.1525C20.1635 74.5987 20.2052 76.0254 20.2912 77.4299C22.5807 78.1361 25.0825 78.7758 27.7537 79.3439C27.6847 77.9432 27.6508 76.5192 27.6534 75.0729C27.656 73.6241 27.6951 72.1714 27.7706 70.7147"
            fill="white" fill-opacity="0.1" />
        <path
            d="M29.0992 59.2339C26.5335 58.688 24.1306 58.0743 21.931 57.3955C21.2889 60.2801 20.8214 63.1791 20.5283 66.0806C22.8061 66.7842 25.2937 67.42 27.9505 67.9842C28.1901 65.0696 28.573 62.1485 29.0979 59.2339"
            fill="#5F5CF1" fill-opacity="0.2" />
        <path
            d="M31.8781 47.8855C29.5339 47.3878 27.3394 46.8262 25.3312 46.2061C24.6227 48.0275 23.9819 49.8841 23.4089 51.7747C23.1145 52.7466 22.8397 53.7199 22.5845 54.6971C24.7477 55.3641 27.1102 55.9687 29.6342 56.5055C29.8425 55.5179 30.0665 54.5303 30.3075 53.5453C30.7763 51.6287 31.2999 49.7421 31.8781 47.8868"
            fill="#5F5CF1" fill-opacity="0.1" />
        <path
            d="M35.96 37.2477C33.9427 36.819 32.0556 36.3369 30.326 35.8027C28.8648 38.3212 27.5468 40.9388 26.3799 43.6449C28.3295 44.2468 30.4602 44.7914 32.7354 45.2748C33.6887 42.5153 34.7645 39.8339 35.9587 37.2477"
            fill="white" fill-opacity="0.5" />
        <path
            d="M41.19 27.7035C39.5933 27.3648 38.0982 26.9817 36.7294 26.5596C35.1275 28.5009 33.6077 30.5777 32.1777 32.7848C32.0305 33.0128 31.8833 33.2408 31.7388 33.4702C33.3876 33.9796 35.1887 34.4395 37.1136 34.8486C37.2321 34.6128 37.3519 34.377 37.4718 34.1425C38.64 31.8689 39.8811 29.7191 41.19 27.7035Z"
            fill="#5F5CF1" fill-opacity="0.1" />
        <path
            d="M47.2789 19.8042C46.1719 19.5684 45.1352 19.3039 44.1858 19.0107C42.171 20.698 40.2449 22.5651 38.415 24.6015C39.6887 24.995 41.0797 25.3507 42.5657 25.666C44.0595 23.5435 45.6327 21.5866 47.2776 19.8042"
            fill="#5F5CF1" fill-opacity="0.2" />
        <path
            d="M53.9913 13.8391C53.4234 13.718 52.8934 13.5825 52.4063 13.4326C50.26 14.5687 48.1541 15.9199 46.0977 17.4833C46.939 17.7426 47.8584 17.9784 48.8404 18.1869C50.5192 16.527 52.2396 15.0756 53.9913 13.8391Z"
            fill="#5F5CF1" fill-opacity="0.05" />
        <path
            d="M61.0379 10.0928C58.8043 10.6517 56.5981 11.4322 54.4297 12.4328C54.8022 12.5474 55.2085 12.6517 55.6435 12.7442C57.4147 11.6419 59.2159 10.7573 61.0392 10.0941"
            fill="white" fill-opacity="0.1" />
        <path
            d="M37.0876 112.238C35.8894 111.821 34.8163 111.367 33.8916 110.88C34.3461 111.144 34.8046 111.398 35.2695 111.645L35.9923 112.02C37.447 112.74 37.4744 112.755 38.2975 113.129C39.7861 113.781 39.8447 113.807 40.7342 114.161C41.3711 114.404 42.2241 114.722 42.8662 114.953C40.8501 114.25 38.9213 113.344 37.0863 112.239"
            fill="#5F5CF1" fill-opacity="0.05" />
        <path
            d="M30.0967 106.586C28.5456 106.046 27.1573 105.46 25.9604 104.828C26.135 104.999 26.3095 105.167 26.4866 105.334C28.1823 106.935 29.986 108.369 31.8875 109.632C32.8812 110.156 34.0338 110.643 35.3205 111.091C33.6444 109.924 32.0555 108.58 30.5604 107.065C30.4041 106.908 30.2491 106.747 30.0967 106.586Z"
            fill="#5F5CF1" fill-opacity="0.2" />
        <path
            d="M24.4976 98.9935C22.6639 98.3564 21.0216 97.6619 19.606 96.9141C20.9878 99.1277 22.5493 101.19 24.2827 103.092C25.5369 103.754 26.9929 104.369 28.6183 104.935C27.0906 103.121 25.714 101.137 24.4976 98.9922"
            fill="#5F5CF1" fill-opacity="0.2" />
        <path
            d="M20.5462 89.7651C18.512 89.0576 16.6913 88.2876 15.1206 87.459C15.4215 88.3306 15.747 89.1918 16.0948 90.0426C16.7707 91.6882 17.5274 93.2738 18.3635 94.7943C19.8208 95.5643 21.5139 96.2796 23.4023 96.9363C22.6652 95.4575 21.9984 93.911 21.4045 92.2993C21.0971 91.4667 20.8106 90.6224 20.5462 89.7651Z"
            fill="white" fill-opacity="0.1" />
        <path
            d="M18.4299 79.3638C16.2875 78.6186 14.3705 77.8082 12.7178 76.9365C13.0551 79.7156 13.6008 82.4191 14.3548 85.0341C15.9515 85.877 17.8035 86.6588 19.8716 87.378C19.2074 84.8008 18.7269 82.126 18.4312 79.3638"
            fill="#5F5CF1" fill-opacity="0.2" />
        <path
            d="M18.2232 68.12C16.0704 67.3708 14.1416 66.5565 12.4798 65.6797C12.3717 67.1246 12.3157 68.5721 12.3131 70.0209C12.3105 71.4672 12.36 72.8965 12.4629 74.3088C14.1247 75.1856 16.0522 76.0013 18.2063 76.7491C18.1164 75.3433 18.0721 73.9153 18.0747 72.4691C18.0773 71.0203 18.1268 69.5701 18.2232 68.12Z"
            fill="#5F5CF1" fill-opacity="0.1" />
        <path
            d="M19.9306 56.7404C17.8624 56.0212 16.0105 55.2382 14.4138 54.3965C13.6493 57.2316 13.0919 60.0967 12.7441 62.9748C14.3968 63.8477 16.3152 64.6581 18.4563 65.4021C18.7637 62.5057 19.2546 59.6146 19.9293 56.7404"
            fill="#5F5CF1" fill-opacity="0.05" />
        <path
            d="M23.5026 45.6078C21.6129 44.9511 19.9211 44.2358 18.4638 43.4658C17.6198 45.2326 16.8553 47.041 16.1729 48.8872C15.8213 49.8357 15.4944 50.7894 15.1909 51.7458C16.7603 52.5744 18.5823 53.3444 20.6153 54.0506C20.8835 53.0786 21.1714 52.1093 21.4813 51.1425C22.0843 49.2624 22.7576 47.4162 23.5013 45.6065"
            fill="#5F5CF1" fill-opacity="0.05" />
        <path
            d="M28.7527 35.2876C27.1274 34.7222 25.6714 34.1072 24.4172 33.4453C22.6746 35.8518 21.104 38.369 19.7144 40.9852C21.13 41.7318 22.7723 42.4262 24.606 43.0633C25.8328 40.378 27.2173 37.7814 28.754 35.2876"
            fill="white" fill-opacity="0.1" />
        <path
            d="M35.4846 26.1516C34.1979 25.7047 33.0453 25.2175 32.0516 24.6924C30.141 26.5099 28.3294 28.4721 26.6246 30.5685C26.4488 30.7847 26.2743 31.0023 26.1011 31.2212C27.2979 31.8531 28.6863 32.4394 30.2374 32.9788C30.3898 32.7521 30.5434 32.5254 30.6984 32.3C32.2013 30.1177 33.7993 28.0656 35.4833 26.1503"
            fill="#5F5CF1" fill-opacity="0.2" />
        <path
            d="M43.3236 18.7278C42.4315 18.4178 41.6318 18.0803 40.9429 17.7168C38.54 19.249 36.2427 20.9688 34.0625 22.8646C34.9872 23.3518 36.059 23.8053 37.2572 24.2222C39.1795 22.217 41.2046 20.3825 43.3236 18.7292"
            fill="white" fill-opacity="0.5" />
        <path
            d="M51.9646 13.2881C51.5075 13.1291 51.0985 12.9558 50.7456 12.7695C48.1864 13.7402 45.6755 14.931 43.2231 16.3356C43.834 16.6574 44.5424 16.9571 45.333 17.232C47.4949 15.7037 49.7089 14.3864 51.9646 13.2868"
            fill="#5F5CF1" fill-opacity="0.05" />
        <path
            d="M61.0383 10.0928C58.375 10.4797 55.7442 11.0921 53.1577 11.9247C53.4273 12.0667 53.7412 12.1996 54.0915 12.322C56.3719 11.3592 58.6914 10.6139 61.0396 10.0928"
            fill="#5F5CF1" fill-opacity="0.1" />
        <path
            d="M24.899 104.224C24.1124 103.741 23.4625 103.251 22.9429 102.756L23.6123 103.384C24.3746 104.074 24.955 104.588 25.3535 104.926C26.1471 105.587 26.7523 106.079 27.169 106.403C27.9956 107.032 28.6264 107.503 29.0614 107.814C29.5354 108.145 30.1697 108.582 30.6502 108.904C30.7649 108.98 30.8847 109.055 31.0071 109.131C29.047 107.835 27.1899 106.369 25.4421 104.739C25.2598 104.568 25.0787 104.398 24.899 104.224Z"
            fill="white" fill-opacity="0.5" />
        <path
            d="M18.3517 96.2013C17.1001 95.4326 16.139 94.647 15.4565 93.8535C16.277 95.0743 17.2968 96.5948 19.1865 98.8019C19.5381 99.2019 20.007 99.7335 20.3638 100.127L20.8145 100.612C21.4005 101.236 22.1845 101.853 23.1717 102.459C21.3849 100.528 19.7765 98.4371 18.353 96.2"
            fill="white" fill-opacity="0.5" />
        <path
            d="M13.7297 86.6676C12.3414 85.8142 11.2747 84.9439 10.5181 84.0645C10.8489 84.9582 11.207 85.8442 11.5912 86.7211C12.3349 88.4174 13.1684 90.0591 14.0891 91.6421C14.7924 92.459 15.7822 93.2681 17.0728 94.0603C16.212 92.5255 15.4319 90.9268 14.7351 89.2695C14.3757 88.4135 14.041 87.5471 13.731 86.669"
            fill="white" fill-opacity="0.5" />
        <path
            d="M11.2514 76.1026C9.78882 75.2049 8.66619 74.2864 7.86914 73.3613C8.24031 76.1665 8.842 78.9104 9.67161 81.5813C10.4413 82.4751 11.5249 83.3611 12.9379 84.2288C12.1617 81.6009 11.5978 78.8882 11.2514 76.1026Z"
            fill="white" fill-opacity="0.1" />
        <path
            d="M11.0067 64.8406C9.53635 63.9377 8.4085 63.0152 7.60625 62.085C7.48773 63.5221 7.42652 64.9657 7.42392 66.4145C7.42131 67.8607 7.47601 69.2939 7.58932 70.7141C8.39027 71.6443 9.51942 72.5668 10.9898 73.4697C10.8843 72.0561 10.8322 70.6255 10.8348 69.1793C10.8374 67.7304 10.8947 66.2842 11.0067 64.8406Z"
            fill="#5F5CF1" fill-opacity="0.05" />
        <path
            d="M12.998 53.5928C11.5862 52.7251 10.5014 51.8391 9.73298 50.9453C8.89295 53.7244 8.27954 56.5478 7.89795 59.4011C8.69499 60.3262 9.81763 61.2447 11.2802 62.1424C11.6383 59.2695 12.2127 56.4149 12.9993 53.5928"
            fill="#5F5CF1" fill-opacity="0.2" />
        <path
            d="M17.1705 42.7317C15.8812 41.9395 14.8901 41.1304 14.1881 40.3135C13.2595 42.0177 12.4195 43.7701 11.668 45.5655C11.2812 46.4879 10.9218 47.4169 10.5884 48.3524C11.3451 49.2318 12.4117 50.1022 13.8 50.9556C14.1126 50.0045 14.4499 49.0559 14.8119 48.1139C15.5152 46.2795 16.3031 44.4854 17.1718 42.733"
            fill="#5F5CF1" fill-opacity="0.05" />
        <path
            d="M23.3047 32.8122C22.1951 32.1308 21.3434 31.4337 20.7378 30.7314C18.8207 33.0089 17.0924 35.4102 15.5635 37.9235C16.2459 38.7156 17.2071 39.5013 18.4586 40.27C19.8912 37.6785 21.5088 35.1874 23.3047 32.8109"
            fill="#5F5CF1" fill-opacity="0.2" />
        <path
            d="M31.1709 24.1928C30.2918 23.6534 29.6172 23.1022 29.1393 22.5459C27.0372 24.2227 25.0446 26.0494 23.1679 28.0207C22.9739 28.2239 22.7824 28.4285 22.5923 28.6344C23.1692 29.304 23.9819 29.9685 25.0407 30.6187C25.2191 30.4037 25.3989 30.1887 25.5799 29.975C27.3368 27.9073 29.2031 25.9777 31.1709 24.1928Z"
            fill="white" fill-opacity="0.1" />
        <path
            d="M40.3318 17.3692C39.7223 16.9953 39.2548 16.6122 38.9227 16.2266C36.2789 17.5816 33.751 19.1294 31.3521 20.8649C31.7975 21.3821 32.4252 21.8955 33.2431 22.3984C35.4896 20.5405 37.856 18.861 40.3318 17.3692Z"
            fill="#5F5CF1" fill-opacity="0.1" />
        <path
            d="M50.4319 12.5928C50.1194 12.4013 49.8797 12.2046 49.7104 12.0078C46.8947 12.7896 44.1311 13.7928 41.4326 15.0175C41.727 15.3589 42.1411 15.6989 42.6816 16.0299C45.2082 14.667 47.7959 13.5192 50.4319 12.5928Z"
            fill="white" fill-opacity="0.5" />
        <path
            d="M61.038 10.0928C58.1077 10.2817 55.2112 10.6986 52.3643 11.341C52.4945 11.4921 52.6781 11.6419 52.9165 11.7892C55.5824 11.0009 58.2926 10.4341 61.0367 10.0941"
            fill="white" fill-opacity="0.1" />
        <path
            d="M9.89855 83.2386C9.67975 82.8972 9.50654 82.5546 9.37891 82.2119L9.69408 83.0327C10.0778 83.9813 10.3739 84.6918 10.5823 85.1643C10.9912 86.0668 11.3055 86.7417 11.5252 87.189C11.9697 88.0732 12.3105 88.7342 12.5476 89.172C12.7976 89.6241 13.1336 90.2248 13.3915 90.673C13.4306 90.7394 13.4709 90.8071 13.5139 90.8736C12.5827 89.2749 11.7388 87.6202 10.986 85.9121C10.5966 85.0301 10.2346 84.1389 9.89985 83.2386"
            fill="#5F5CF1" fill-opacity="0.05" />
        <path
            d="M7.21811 72.4909C6.77661 71.8003 6.51223 71.1085 6.41846 70.418C6.48878 70.8974 6.58125 71.5359 6.65809 72.014C6.83348 73.012 6.97326 73.7608 7.07745 74.2602C7.29451 75.2504 7.46556 75.9926 7.59058 76.4869C7.84932 77.4675 8.05162 78.2028 8.19748 78.6927L8.43191 79.4601C8.56605 79.8874 8.76922 80.3148 9.04271 80.7422C8.20269 78.0569 7.59319 75.3025 7.21811 72.4922"
            fill="#5F5CF1" fill-opacity="0.05" />
        <path
            d="M6.95107 61.2104C6.35328 60.2762 6.07848 59.3368 6.11104 58.4053C6.01206 59.7277 5.99904 59.8984 5.95736 60.9446C5.94304 61.5218 5.92611 62.2905 5.9209 62.8677C5.92958 63.8927 5.94391 64.6618 5.96388 65.1751C6.01423 66.194 6.05982 66.9588 6.10062 67.4696L6.10583 67.5295C6.16835 68.2982 6.44184 69.0695 6.93414 69.8382C6.81953 68.4168 6.76353 66.9823 6.76613 65.5361C6.76874 64.0872 6.82995 62.6449 6.95107 61.2091"
            fill="#5F5CF1" fill-opacity="0.2" />
        <path
            d="M9.10249 50.1046C8.52815 49.2069 8.26377 48.3052 8.29633 47.4102C7.43286 50.1319 6.80252 52.9136 6.41051 55.7409C6.37665 56.6673 6.65014 57.6014 7.24532 58.5304C7.63212 55.6836 8.25205 52.8693 9.10249 50.1046Z"
            fill="#5F5CF1" fill-opacity="0.1" />
        <path
            d="M13.6127 39.5461C13.0878 38.7266 12.8469 37.9032 12.8768 37.085C11.9222 38.7253 11.0587 40.4204 10.2864 42.1637C9.88923 43.0601 9.51936 43.9643 9.17684 44.8763C9.14558 45.7558 9.40475 46.643 9.96997 47.5264C10.3073 46.5974 10.6719 45.6737 11.0627 44.7577C11.8232 42.9741 12.675 41.236 13.614 39.5474"
            fill="white" fill-opacity="0.5" />
        <path
            d="M20.2443 30.0723C19.7924 29.3674 19.5853 28.6586 19.6101 27.9551C17.6396 30.0997 15.8632 32.3823 14.2899 34.7914C14.2613 35.5849 14.4957 36.3848 15.0049 37.1796C16.5534 34.6911 18.3025 32.3185 20.243 30.0723"
            fill="white" fill-opacity="0.5" />
        <path
            d="M28.7472 22.0235C28.3904 21.4646 28.225 20.9043 28.2458 20.3467C26.0852 21.8789 24.0366 23.5688 22.1078 25.4098C21.9085 25.6 21.7119 25.7915 21.5152 25.983C21.4905 26.654 21.6897 27.3302 22.1195 28.0025C22.3123 27.8006 22.5063 27.5986 22.703 27.398C24.6018 25.458 26.6205 23.6639 28.7472 22.0209"
            fill="#5F5CF1" fill-opacity="0.2" />
        <path
            d="M38.6507 15.8643C38.4032 15.4774 38.2886 15.0878 38.3029 14.7021C35.5849 15.8748 32.9867 17.2493 30.52 18.818C30.5018 19.3366 30.6542 19.859 30.9863 20.3776C33.4152 18.6825 35.9743 17.1751 38.6507 15.863"
            fill="white" fill-opacity="0.1" />
        <path
            d="M49.5708 11.821C49.4445 11.623 49.3859 11.4236 49.3924 11.2256C46.4972 11.8119 43.6568 12.6262 40.8828 13.6646C40.871 14.0073 40.9713 14.3525 41.1914 14.6952C43.9238 13.5161 46.7212 12.5572 49.5708 11.8223"
            fill="#5F5CF1" fill-opacity="0.05" />
        <path
            d="M61.038 10.0923C58.0256 10.0793 55.0484 10.2969 52.122 10.7412C52.1168 10.8923 52.1611 11.0448 52.2587 11.1972C55.1409 10.6031 58.0725 10.2331 61.0393 10.0923"
            fill="white" fill-opacity="0.1" />
        <path
            d="M8.41247 46.5741C8.43722 46.4725 8.46587 46.3708 8.49713 46.2705L8.25619 47.047C7.97314 48.0225 7.7678 48.7573 7.64017 49.2515L7.46826 49.9382C7.74306 48.8073 8.05693 47.6855 8.41117 46.5741"
            fill="white" fill-opacity="0.1" />
        <path
            d="M12.9824 36.3211C13.1283 35.9407 13.3054 35.4221 13.5033 35.0664C13.2442 35.5172 12.9003 36.1191 12.649 36.5739C12.1827 37.4468 11.8389 38.1074 11.6175 38.5556C11.1869 39.4476 10.87 40.1221 10.6668 40.579C10.2596 41.5197 9.96092 42.2298 9.77077 42.7092L9.4569 43.5209C9.38918 43.6981 9.33448 43.8766 9.2915 44.0551C9.63402 43.1496 10.0026 42.2506 10.3998 41.3607C11.1708 39.6292 12.033 37.9484 12.985 36.3237"
            fill="#5F5CF1" fill-opacity="0.05" />
        <path
            d="M19.7025 27.2975C19.8718 26.5979 20.2716 25.9073 20.8902 25.2324C20.7092 25.4226 20.5308 25.6142 20.3536 25.8083C19.9447 26.263 19.4029 26.8741 19.0031 27.3366C18.3623 28.1053 17.8852 28.6899 17.5718 29.0903C16.9658 29.8816 16.5156 30.4822 16.2213 30.8922C15.8683 31.3938 15.4034 32.0661 15.0609 32.5743C14.7379 33.0602 14.5152 33.5527 14.394 34.0492C15.9634 31.6661 17.7359 29.4121 19.7025 27.2975Z"
            fill="#5F5CF1" fill-opacity="0.1" />
        <path
            d="M28.3188 19.8265C28.453 19.2728 28.7694 18.7256 29.2591 18.1914C27.1649 19.5816 25.1788 21.1373 23.3099 22.8519C23.1172 23.0291 22.9257 23.2076 22.7356 23.3874C22.1456 24.031 21.764 24.6903 21.6025 25.3574C21.7979 25.1684 21.9945 24.9795 22.1938 24.7932C24.1187 22.9822 26.1634 21.3249 28.3188 19.8265Z"
            fill="#5F5CF1" fill-opacity="0.05" />
        <path
            d="M38.3534 14.3415C38.4472 13.9572 38.6659 13.578 39.0059 13.208C36.3725 14.2021 33.8537 15.406 31.4626 16.8131C31.0068 17.3095 30.7124 17.819 30.5874 18.3349C33.0489 16.8053 35.6419 15.4711 38.3534 14.3428"
            fill="white" fill-opacity="0.1" />
        <path
            d="M49.4186 11.0411C49.4668 10.8443 49.5788 10.6502 49.7533 10.46C46.9481 10.856 44.1949 11.484 41.5055 12.3387C41.2046 12.6671 41.0106 13.0032 40.9272 13.3433C43.6948 12.3492 46.53 11.5805 49.4186 11.0398"
            fill="white" fill-opacity="0.5" />
        <path
            d="M61.038 10.0929C58.1181 9.88178 55.2334 9.90393 52.3969 10.1554C52.264 10.3 52.1781 10.4498 52.1416 10.5997C55.0628 10.201 58.0322 10.0316 61.038 10.0915"
            fill="#5F5CF1" fill-opacity="0.05" />
        <path
            d="M29.7687 17.6945C30.0812 17.4196 30.442 17.1486 30.847 16.8828C30.3652 17.2059 29.7231 17.6411 29.2464 17.9733C28.0118 18.8658 27.9883 18.8828 27.3489 19.3766C26.1611 20.3147 26.1377 20.3329 25.5269 20.8475C25.2586 21.0795 24.8978 21.3843 24.6309 21.6189C26.2588 20.187 27.9727 18.8776 29.7674 17.6945"
            fill="#5F5CF1" fill-opacity="0.05" />
        <path
            d="M39.3592 12.8639C39.7733 12.5004 40.306 12.1473 40.9507 11.8086C39.0505 12.4626 37.2168 13.2522 35.4547 14.176L35.4482 14.1799C34.8777 14.4861 34.1211 14.9017 33.5558 15.2196C33.0557 15.5375 32.4033 15.9857 31.937 16.3518C34.2891 14.9825 36.7675 13.8177 39.3592 12.8652"
            fill="white" fill-opacity="0.5" />
        <path
            d="M49.9329 10.2839C50.1452 10.0976 50.4174 9.91645 50.7482 9.74316C48.1903 9.96205 45.6794 10.4142 43.2283 11.0982C42.6566 11.3978 42.1851 11.7105 41.8179 12.0337C44.463 11.2207 47.1732 10.6357 49.9329 10.2839Z"
            fill="#5F5CF1" fill-opacity="0.05" />
        <path
            d="M61.0379 10.0923C58.3759 9.69625 55.7465 9.53469 53.16 9.60635C52.9073 9.73925 52.6976 9.87736 52.5361 10.0207C55.3271 9.81221 58.1649 9.83566 61.0379 10.0923Z"
            fill="#5F5CF1" fill-opacity="0.05" />
        <path
            d="M41.5875 11.4972C42.1736 11.2288 42.8339 10.9722 43.5645 10.7285L42.6554 11.0399C41.1773 11.5793 41.0574 11.6236 40.1067 12.0106C39.479 12.2764 38.6455 12.636 38.0229 12.9148C39.1821 12.3832 40.3698 11.9102 41.5862 11.4972"
            fill="#5F5CF1" fill-opacity="0.05" />
        <path
            d="M51.075 9.58265C51.4409 9.41458 51.8642 9.25563 52.3396 9.1084C50.1776 9.16963 48.0548 9.4667 45.9827 10.0009C45.1583 10.2563 44.4277 10.5325 43.7935 10.823C46.1677 10.1768 48.5979 9.76245 51.075 9.58396"
            fill="#5F5CF1" fill-opacity="0.2" />
        <path
            d="M61.0379 10.0921C58.7874 9.53183 56.5643 9.20741 54.3776 9.12012C54.013 9.23347 53.69 9.35464 53.4087 9.48363C55.9131 9.45105 58.4592 9.65431 61.0366 10.0921"
            fill="#5F5CF1" fill-opacity="0.2" />
        <path
            d="M52.8017 8.97318C53.311 8.83246 53.8736 8.70348 54.4857 8.58882C53.2406 8.53671 52.0138 8.624 50.8065 8.85201L50.3728 8.93539C48.7918 9.26372 48.6277 9.2989 47.522 9.57251L46.7822 9.76664C48.7449 9.26503 50.7544 9.00054 52.8017 8.97318Z"
            fill="white" fill-opacity="0.1" />
        <path
            d="M61.038 10.092C59.3436 9.39756 57.6688 8.94024 56.0213 8.72266C55.5524 8.80995 55.1226 8.90897 54.7319 9.01711C56.8027 9.13828 58.9073 9.49658 61.038 10.092Z"
            fill="#5F5CF1" fill-opacity="0.05" />
        <path
            d="M55.0744 8.48712C55.3453 8.44283 55.624 8.40113 55.9118 8.36205C56.3077 8.30863 56.7088 8.26302 57.1139 8.22263C56.5916 8.13795 56.0746 8.12101 55.5641 8.17312C54.9793 8.23827 54.1992 8.32556 53.6157 8.39983C53.1352 8.47019 52.4944 8.56139 52.0151 8.63956C53.0206 8.47149 54.0416 8.42068 55.0757 8.48582"
            fill="#5F5CF1" fill-opacity="0.05" />
        <path
            d="M61.0392 10.0928C60.0234 9.30327 59.0206 8.75345 58.0334 8.44336C57.7234 8.47333 57.4161 8.50981 57.1139 8.5502C56.8938 8.58016 56.6802 8.61143 56.4731 8.64531C57.9722 8.88895 59.4972 9.37102 61.0392 10.0928Z"
            fill="#5F5CF1" fill-opacity="0.1" />
        <path
            d="M61.0394 10.0923C60.7477 9.25841 60.4586 8.66559 60.1734 8.3125C59.6264 8.32683 59.0781 8.35419 58.5376 8.39719C59.3594 8.72161 60.1942 9.28707 61.0381 10.0923"
            fill="white" fill-opacity="0.1" />
        <path
            d="M61.0395 10.0925C61.4705 9.26515 61.8964 8.67755 62.3145 8.33097C61.7779 8.30883 61.2335 8.29971 60.6865 8.30361C60.8024 8.65931 60.9209 9.25473 61.0395 10.0925Z"
            fill="#5F5CF1" fill-opacity="0.05" />
        <path
            d="M63.3564 8.10907C64.048 8.14946 64.7252 8.20678 65.3803 8.28105C65.9768 8.20157 66.5668 8.19506 67.1502 8.26151L66.6449 8.20678C65.043 8.05825 65.013 8.05434 64.1379 8.00353C63.88 7.9879 63.6195 8.02438 63.3564 8.10907Z"
            fill="#5F5CF1" fill-opacity="0.2" />
        <path
            d="M61.0396 10.0922C62.1635 9.31701 63.2731 8.78282 64.3632 8.48706C63.8618 8.42973 63.3434 8.38674 62.8134 8.35547C62.2312 8.69422 61.6386 9.27271 61.0396 10.0922Z"
            fill="#5F5CF1" fill-opacity="0.1" />
        <path
            d="M65.9873 8.35581C66.6268 8.4405 67.2389 8.54082 67.8184 8.65678C69.1638 8.61509 70.4896 8.72714 71.7906 8.99032C71.0808 8.85612 70.1327 8.68544 69.419 8.56688L68.1701 8.38708C67.2962 8.29066 66.8482 8.28415 65.9873 8.35581Z"
            fill="#5F5CF1" fill-opacity="0.2" />
        <path
            d="M61.0396 10.0928C62.7938 9.41526 64.526 8.97618 66.2295 8.77554C65.7867 8.68694 65.3178 8.61007 64.8281 8.54492C63.5857 8.82114 62.3211 9.33709 61.0396 10.0928Z"
            fill="#5F5CF1" fill-opacity="0.1" />
        <path
            d="M68.3496 8.7703C68.9057 8.89538 69.4241 9.0361 69.8955 9.19114C72.0952 9.27192 74.2545 9.58983 76.3604 10.1423C75.8108 9.96246 75.2248 9.79308 74.6062 9.63543C74.1464 9.52338 73.5356 9.37094 73.0746 9.26541C71.53 8.91493 69.9528 8.74946 68.3496 8.7703Z"
            fill="#5F5CF1" fill-opacity="0.1" />
        <path
            d="M61.0396 10.0926C63.3317 9.55317 65.5952 9.24959 67.8196 9.18314C67.4589 9.06458 67.0617 8.95774 66.6358 8.86133C64.7995 9.03331 62.9306 9.44372 61.0396 10.0926Z"
            fill="white" fill-opacity="0.5" />
        <path
            d="M79.1541 11.0199C80.015 11.3378 80.7808 11.683 81.4333 12.0544C83.7528 12.8687 85.9733 13.8797 88.087 15.081C87.6468 14.8374 87.0621 14.5129 86.618 14.2758C85.1828 13.5371 85.1554 13.524 84.3493 13.1423C82.8815 12.4713 82.8242 12.4452 81.9581 12.0856C81.3812 11.855 80.6115 11.5501 80.0306 11.3299C79.7402 11.2218 79.4472 11.1189 79.1528 11.0186"
            fill="#5F5CF1" fill-opacity="0.05" />
        <path
            d="M70.3237 9.33984C70.7652 9.50271 71.1572 9.6799 71.4919 9.87012C74.0889 10.1203 76.6363 10.6024 79.1225 11.3176C78.5442 10.9893 77.8657 10.6831 77.1025 10.4004C74.8937 9.81149 72.6302 9.45841 70.3237 9.33984Z"
            fill="#5F5CF1" fill-opacity="0.05" />
        <path
            d="M61.0405 10.092C63.7455 9.72846 66.4167 9.59817 69.0422 9.7024C68.7857 9.55648 68.4861 9.42098 68.1488 9.2959C65.8163 9.32456 63.4434 9.59035 61.0405 10.0907"
            fill="#5F5CF1" fill-opacity="0.05" />
    </g>
    <path
        d="M122 36.0123C122.002 37.6803 121.392 39.292 120.283 40.5469C119.175 41.8019 117.644 42.6143 115.976 42.8328C115.671 42.8714 115.364 42.8912 115.057 42.8921H91.9743C91.4736 42.891 90.9737 42.8501 90.4796 42.7698C88.3578 42.4069 86.4464 41.2786 85.1134 39.6023C83.7803 37.926 83.1198 35.8201 83.259 33.6899C83.3981 31.5597 84.3271 29.5559 85.8672 28.064C87.4072 26.5722 89.4494 25.6978 91.6006 25.6092C92.7156 23.209 94.5876 21.2333 96.9343 19.9802C99.2809 18.7271 101.975 18.2645 104.61 18.6622C107.245 19.0599 109.678 20.2963 111.542 22.185C113.407 24.0736 114.601 26.5121 114.945 29.1325H115.05C115.962 29.131 116.865 29.3079 117.709 29.653C118.552 29.9981 119.318 30.5046 119.964 31.1436C120.609 31.7826 121.121 32.5415 121.471 33.3769C121.82 34.2124 122 35.1079 122 36.0123Z"
        fill="url(#paint1_linear_1937_24623)" />
    <path
        d="M4.62305 22.5372C4.62305 23.9128 5.17423 25.2321 6.15536 26.2048C7.13648 27.1775 8.46717 27.7239 9.85468 27.7239H27.2237C28.935 27.7149 30.5752 27.0439 31.7949 25.8536C33.0145 24.6634 33.7172 23.0481 33.7532 21.3518C33.7893 19.6555 33.1558 18.0123 31.9879 16.7722C30.8199 15.5321 29.2097 14.7931 27.5002 14.7127C26.6571 12.9123 25.2477 11.4316 23.4836 10.4929C21.7195 9.55422 19.6959 9.20816 17.7165 9.50669C15.7371 9.80522 13.9088 10.7322 12.5061 12.1486C11.1033 13.5649 10.2018 15.3941 9.93689 17.3616H9.85842C8.47219 17.3606 7.14225 17.9051 6.16064 18.8755C5.17903 19.8459 4.62602 21.1629 4.62305 22.5372Z"
        fill="url(#paint2_linear_1937_24623)" />
    <g filter="url(#filter0_f_1937_24623)">
        <ellipse cx="60.9999" cy="73.8951" rx="22.6645" ry="4.81497" fill="#5858FC" fill-opacity="0.2" />
    </g>
    <g opacity="0.15" filter="url(#filter1_d_1937_24623)">
        <path
            d="M74.539 57.4219C76.139 58.3457 76.139 60.6551 74.539 61.5788L51.2001 75.0536C49.6001 75.9773 47.6001 74.8226 47.6001 72.9751L47.6001 46.0256C47.6001 44.1781 49.6001 43.0234 51.2001 43.9472L74.539 57.4219Z"
            fill="url(#paint3_linear_1937_24623)" />
    </g>
    <path fill-rule="evenodd" clip-rule="evenodd"
        d="M71.8588 51.9388C72.5174 52.5148 73.5124 52.4451 74.0852 51.7917C74.6597 51.1335 74.593 50.1383 73.9376 49.564L60.8853 41.0239C60.4172 40.6172 59.7571 40.5191 59.1953 40.7739C58.6304 41.0302 58.3733 41.5507 58.3733 42.171V67.244C57.0324 66.4007 55.3662 65.8769 53.5349 65.8769C49.1852 65.8769 45.6465 68.7138 45.6465 72.201C45.6465 75.6739 49.1852 78.4997 53.5349 78.4997C57.8845 78.4997 61.4233 75.6739 61.4233 72.201C61.4233 72.1675 61.4177 72.1359 61.412 72.1041C61.4073 72.0773 61.4025 72.0504 61.4011 72.0222C61.4025 72.005 61.4072 71.9888 61.4119 71.9725C61.4176 71.9529 61.4233 71.9331 61.4233 71.9114V45.6882L71.8588 51.9388ZM73.9998 78.4996C73.1574 78.4996 72.4745 77.8167 72.4745 76.9743V73.1163H68.6165C67.7741 73.1163 67.0912 72.4334 67.0912 71.591C67.0912 70.7486 67.7741 70.0657 68.6165 70.0657H72.4745V66.2074C72.4745 65.365 73.1574 64.6821 73.9998 64.6821C74.8422 64.6821 75.5251 65.365 75.5251 66.2074V70.0657H79.3834C80.2258 70.0657 80.9087 70.7486 80.9087 71.591C80.9087 72.4334 80.2258 73.1163 79.3834 73.1163H75.5251V76.9743C75.5251 77.8167 74.8422 78.4996 73.9998 78.4996Z"
        fill="url(#paint4_linear_1937_24623)" />
    <path
        d="M9.09054e-06 88.852C-0.000819331 90.513 0.607506 92.1178 1.71164 93.3672C2.81577 94.6165 4.3404 95.4253 6.00144 95.6429C6.30356 95.6845 6.60821 95.7055 6.91324 95.7058H29.8951C30.3958 95.7051 30.8957 95.6642 31.3898 95.5836C33.5146 95.2329 35.4322 94.1122 36.7706 92.439C38.109 90.7658 38.7727 88.6593 38.6331 86.5283C38.4934 84.3973 37.5603 82.3937 36.0147 80.9063C34.4692 79.4189 32.4214 78.5537 30.2687 78.4785C29.1571 76.09 27.2925 74.1243 24.9561 72.8777C22.6196 71.6311 19.9377 71.171 17.3146 71.5669C14.6914 71.9628 12.2691 73.1931 10.4126 75.0726C8.55614 76.952 7.36603 79.3787 7.02161 81.987H6.91324C6.00444 81.987 5.10455 82.1646 4.26507 82.5098C3.42559 82.8549 2.66298 83.3607 2.02088 83.9984C1.37878 84.636 0.869789 85.3929 0.523026 86.2257C0.176264 87.0585 -0.00146464 87.951 9.09054e-06 88.852Z"
        fill="url(#paint5_linear_1937_24623)" />
    <path
        d="M104.029 52.9583C103.651 51.4885 105.019 50.1645 106.492 50.5748C107.965 50.9852 108.438 52.8228 107.343 53.8822C106.248 54.9417 104.407 54.4284 104.029 52.9583Z"
        fill="url(#paint6_linear_1937_24623)" />
    <path
        d="M12.2021 52.9583C11.8241 51.4885 13.1925 50.1645 14.6654 50.5748C16.1385 50.9852 16.6114 52.8228 15.5165 53.8822C14.4215 54.9417 12.5801 54.4284 12.2021 52.9583Z"
        fill="url(#paint7_linear_1937_24623)" />
    <path
        d="M46.7546 6.63875C47.1665 4.94691 49.5755 4.94691 49.9875 6.63875C50.1339 7.24013 50.6048 7.70989 51.2068 7.85395C52.8946 8.25789 52.8946 10.6592 51.2068 11.0631C50.6048 11.2072 50.1339 11.677 49.9875 12.2783C49.5755 13.9702 47.1665 13.9702 46.7546 12.2783C46.6082 11.677 46.1373 11.2072 45.5353 11.0631C43.8475 10.6592 43.8475 8.25789 45.5353 7.85395C46.1373 7.70989 46.6082 7.24013 46.7546 6.63875Z"
        fill="url(#paint8_linear_1937_24623)" />
    <path
        d="M63.2506 107.985C63.2506 108.777 62.6003 109.438 61.7743 109.438C60.9484 109.438 60.2981 108.777 60.2981 107.985C60.2981 107.194 60.9484 106.533 61.7743 106.533C62.6003 106.533 63.2506 107.194 63.2506 107.985Z"
        stroke="url(#paint9_linear_1937_24623)" stroke-width="2.61276" />
    <path
        d="M102.295 92.9483C102.707 91.2565 105.116 91.2565 105.528 92.9483C105.674 93.5497 106.145 94.0195 106.747 94.1635C108.435 94.5675 108.435 96.9688 106.747 97.3727C106.145 97.5168 105.674 97.9865 105.528 98.5879C105.116 100.28 102.707 100.28 102.295 98.5879C102.149 97.9865 101.678 97.5168 101.076 97.3727C99.388 96.9688 99.388 94.5675 101.076 94.1635C101.678 94.0195 102.149 93.5497 102.295 92.9483Z"
        fill="url(#paint10_linear_1937_24623)" />
    <path
        d="M108.171 76.457C108.171 77.2485 107.52 77.9093 106.694 77.9093C105.868 77.9093 105.218 77.2485 105.218 76.457C105.218 75.6655 105.868 75.0046 106.694 75.0046C107.52 75.0046 108.171 75.6655 108.171 76.457Z"
        stroke="url(#paint11_linear_1937_24623)" stroke-width="2.61276" />
    <defs>
        <filter id="filter0_f_1937_24623" x="17.6449" y="48.3895" width="86.7102" height="51.011"
            filterUnits="userSpaceOnUse" color-interpolation-filters="sRGB">
            <feFlood flood-opacity="0" result="BackgroundImageFix" />
            <feBlend mode="normal" in="SourceGraphic" in2="BackgroundImageFix" result="shape" />
            <feGaussianBlur stdDeviation="10.3453" result="effect1_foregroundBlur_1937_24623" />
        </filter>
        <filter id="filter1_d_1937_24623" x="38.6001" y="37.6221" width="46.1387" height="49.7568"
            filterUnits="userSpaceOnUse" color-interpolation-filters="sRGB">
            <feFlood flood-opacity="0" result="BackgroundImageFix" />
            <feColorMatrix in="SourceAlpha" type="matrix" values="0 0 0 0 0 0 0 0 0 0 0 0 0 0 0 0 0 0 127 0"
                result="hardAlpha" />
            <feMorphology radius="1" operator="erode" in="SourceAlpha" result="effect1_dropShadow_1937_24623" />
            <feOffset dy="3" />
            <feGaussianBlur stdDeviation="5" />
            <feComposite in2="hardAlpha" operator="out" />
            <feColorMatrix type="matrix" values="0 0 0 0 0 0 0 0 0 0 0 0 0 0 0 0 0 0 0.05 0" />
            <feBlend mode="multiply" in2="BackgroundImageFix" result="effect1_dropShadow_1937_24623" />
            <feBlend mode="normal" in="SourceGraphic" in2="effect1_dropShadow_1937_24623" result="shape" />
        </filter>
        <linearGradient id="paint0_linear_1937_24623" x1="60.4969" y1="-9.90935" x2="61.6236" y2="183.242"
            gradientUnits="userSpaceOnUse">
            <stop stop-color="#6767EF" stop-opacity="0" />
            <stop offset="1" stop-color="#2A2ADE" stop-opacity="0.15" />
        </linearGradient>
        <linearGradient id="paint1_linear_1937_24623" x1="117.794" y1="29.3686" x2="92.2748" y2="24.7439"
            gradientUnits="userSpaceOnUse">
            <stop stop-color="#F0F0FF" />
            <stop offset="1" stop-color="white" stop-opacity="0.7" />
        </linearGradient>
        <linearGradient id="paint2_linear_1937_24623" x1="30.5931" y1="17.5563" x2="11.4127" y2="14.0814"
            gradientUnits="userSpaceOnUse">
            <stop stop-color="#F0F0FF" stop-opacity="0.7" />
            <stop offset="1" stop-color="#FAFAFF" />
        </linearGradient>
        <linearGradient id="paint3_linear_1937_24623" x1="61.6696" y1="43.6221" x2="61.6696" y2="75.3787"
            gradientUnits="userSpaceOnUse">
            <stop stop-color="white" />
            <stop offset="1" stop-color="#F5F5FF" />
        </linearGradient>
        <linearGradient id="paint4_linear_1937_24623" x1="79.0768" y1="75.8829" x2="43.2855" y2="43.2209"
            gradientUnits="userSpaceOnUse">
            <stop offset="0.0260417" stop-color="#FA7250" />
            <stop offset="0.401042" stop-color="#FF1893" />
            <stop offset="0.994792" stop-color="#A78AFF" />
        </linearGradient>
        <linearGradient id="paint5_linear_1937_24623" x1="34.4567" y1="82.2332" x2="9.01051" y2="77.6171"
            gradientUnits="userSpaceOnUse">
            <stop stop-color="white" stop-opacity="0.7" />
            <stop offset="1" stop-color="#F0F0FF" />
        </linearGradient>
        <linearGradient id="paint6_linear_1937_24623" x1="103.178" y1="49.6516" x2="108.682" y2="55.3399"
            gradientUnits="userSpaceOnUse">
            <stop stop-color="#CCCCFF" />
            <stop offset="1" stop-color="#9090FE" />
        </linearGradient>
        <linearGradient id="paint7_linear_1937_24623" x1="11.3517" y1="49.6516" x2="16.8557" y2="55.3399"
            gradientUnits="userSpaceOnUse">
            <stop stop-color="#CCCCFF" />
            <stop offset="1" stop-color="#9090FE" />
        </linearGradient>
        <linearGradient id="paint8_linear_1937_24623" x1="48.371" y1="0" x2="48.371" y2="18.9171"
            gradientUnits="userSpaceOnUse">
            <stop stop-color="#CCCCFF" />
            <stop offset="1" stop-color="#9090FE" />
        </linearGradient>
        <linearGradient id="paint9_linear_1937_24623" x1="58.354" y1="106.261" x2="66.9853" y2="113.806"
            gradientUnits="userSpaceOnUse">
            <stop stop-color="#9494FF" />
            <stop offset="1" stop-color="#4C4CFE" />
        </linearGradient>
        <linearGradient id="paint10_linear_1937_24623" x1="103.912" y1="86.3096" x2="103.912" y2="105.227"
            gradientUnits="userSpaceOnUse">
            <stop stop-color="#CCCCFF" />
            <stop offset="1" stop-color="#9090FE" />
        </linearGradient>
        <linearGradient id="paint11_linear_1937_24623" x1="103.274" y1="74.7328" x2="111.905" y2="82.278"
            gradientUnits="userSpaceOnUse">
            <stop stop-color="#9494FF" />
            <stop offset="1" stop-color="#4C4CFE" />
        </linearGradient>
        <clipPath id="clip0_1937_24623">
            <rect width="110" height="110" fill="white" transform="translate(5.9209 8)" />
        </clipPath>
    </defs>
</svg>
