<svg id="e40YxoPXqS11" xmlns="http://www.w3.org/2000/svg" xmlns:xlink="http://www.w3.org/1999/xlink" viewBox="0 0 110 110" shape-rendering="geometricPrecision" text-rendering="geometricPrecision">
<style><![CDATA[
#e40YxoPXqS114_to {animation: e40YxoPXqS114_to__to 3000ms linear 1 normal forwards}@keyframes e40YxoPXqS114_to__to { 0% {transform: translate(-21.225381px,38.02475px)} 13.333333% {transform: translate(-21.225381px,38.02475px)} 33.333333% {transform: translate(108.774619px,38.02475px)} 100% {transform: translate(108.774619px,38.02475px)}} #e40YxoPXqS119 {animation: e40YxoPXqS119__fl 3000ms linear 1 normal forwards}@keyframes e40YxoPXqS119__fl { 0% {filter: brightness(100%);animation-timing-function: cubic-bezier(0.42,0,1,1)} 16.666667% {filter: brightness(100%);animation-timing-function: cubic-bezier(0.42,0,1,1)} 26.666667% {filter: brightness(150%);animation-timing-function: cubic-bezier(0.333452,0,0.749419,0.587945)} 56.666667% {filter: brightness(150%);animation-timing-function: cubic-bezier(0.608291,0.565059,1,1)} 63.333333% {filter: brightness(100%)} 100% {filter: brightness(100%)}} #e40YxoPXqS131_to {animation: e40YxoPXqS131_to__to 3000ms linear 1 normal forwards}@keyframes e40YxoPXqS131_to__to { 0% {transform: translate(-11.225381px,68.02475px);animation-timing-function: cubic-bezier(0.68,-0.55,0.265,1.55)} 41% {transform: translate(97.774619px,15.02475px)} 100% {transform: translate(97.774619px,15.02475px)}} #e40YxoPXqS148_to {animation: e40YxoPXqS148_to__to 3000ms linear 1 normal forwards}@keyframes e40YxoPXqS148_to__to { 0% {transform: translate(-21.225381px,38.02475px)} 13.333333% {transform: translate(-21.225381px,38.02475px)} 23.333333% {transform: translate(108.774619px,38.02475px)} 36.666667% {transform: translate(-21.225381px,38.02475px)} 100% {transform: translate(-21.225381px,38.02475px)}} #e40YxoPXqS157_tr {animation: e40YxoPXqS157_tr__tr 3000ms linear 1 normal forwards}@keyframes e40YxoPXqS157_tr__tr { 0% {transform: translate(85.966531px,19.798929px) rotate(180deg)} 25.666667% {transform: translate(85.966531px,19.798929px) rotate(180deg)} 34.666667% {transform: translate(85.966531px,19.798929px) rotate(0deg)} 100% {transform: translate(85.966531px,19.798929px) rotate(0deg)}} #e40YxoPXqS157_ts {animation: e40YxoPXqS157_ts__ts 3000ms linear 1 normal forwards}@keyframes e40YxoPXqS157_ts__ts { 0% {transform: scale(0.02495,0.02495)} 25.666667% {transform: scale(0.02495,0.02495)} 38.333333% {transform: scale(0.467688,0.467689)} 57% {transform: scale(0.391822,0.391823)} 64% {transform: scale(0.037783,0.037783)} 100% {transform: scale(0.037783,0.037783)}} #e40YxoPXqS157 {animation: e40YxoPXqS157_c_o 3000ms linear 1 normal forwards}@keyframes e40YxoPXqS157_c_o { 0% {opacity: 0} 25.666667% {opacity: 0} 30% {opacity: 1} 59.666667% {opacity: 1} 64% {opacity: 0} 100% {opacity: 0}}
]]></style>
<defs><linearGradient id="e40YxoPXqS16-fill" x1="71.3522" y1="13.9241" x2="11.8327" y2="67.5166" spreadMethod="pad" gradientUnits="userSpaceOnUse" gradientTransform="translate(0 0)"><stop id="e40YxoPXqS16-fill-0" offset="0%" stop-color="#e5e5e5"/><stop id="e40YxoPXqS16-fill-1" offset="60%" stop-color="#d0d0d0"/><stop id="e40YxoPXqS16-fill-2" offset="97%" stop-color="#e5e5e5"/></linearGradient><linearGradient id="e40YxoPXqS19-fill" x1="60.8897" y1="24.5336" x2="22.2936" y2="59.2859" spreadMethod="pad" gradientUnits="userSpaceOnUse" gradientTransform="translate(0 0)"><stop id="e40YxoPXqS19-fill-0" offset="0%" stop-color="#d1d1d1"/><stop id="e40YxoPXqS19-fill-1" offset="60%" stop-color="#b3b3b3"/><stop id="e40YxoPXqS19-fill-2" offset="97%" stop-color="#d1d1d1"/></linearGradient><linearGradient id="e40YxoPXqS118-fill" x1="71.3522" y1="13.9241" x2="11.8327" y2="67.5166" spreadMethod="pad" gradientUnits="userSpaceOnUse" gradientTransform="translate(0 0)"><stop id="e40YxoPXqS118-fill-0" offset="0%" stop-color="#e5e5e5"/><stop id="e40YxoPXqS118-fill-1" offset="60%" stop-color="#d0d0d0"/><stop id="e40YxoPXqS118-fill-2" offset="97%" stop-color="#e5e5e5"/></linearGradient><linearGradient id="e40YxoPXqS123-fill" x1="71.3522" y1="13.9241" x2="11.8327" y2="67.5166" spreadMethod="pad" gradientUnits="userSpaceOnUse" gradientTransform="translate(0 0)"><stop id="e40YxoPXqS123-fill-0" offset="0%" stop-color="#9d7cbf"/><stop id="e40YxoPXqS123-fill-1" offset="60%" stop-color="#fd0189"/><stop id="e40YxoPXqS123-fill-2" offset="97%" stop-color="#fd5c3f"/></linearGradient><linearGradient id="e40YxoPXqS126-fill" x1="60.8897" y1="24.5336" x2="22.2936" y2="59.2859" spreadMethod="pad" gradientUnits="userSpaceOnUse" gradientTransform="translate(0 0)"><stop id="e40YxoPXqS126-fill-0" offset="0%" stop-color="#9d7cbf"/><stop id="e40YxoPXqS126-fill-1" offset="60%" stop-color="#fd0189"/><stop id="e40YxoPXqS126-fill-2" offset="97%" stop-color="#fd5c3f"/></linearGradient><linearGradient id="e40YxoPXqS135-fill" x1="71.3522" y1="13.9241" x2="11.8327" y2="67.5166" spreadMethod="pad" gradientUnits="userSpaceOnUse" gradientTransform="translate(0 0)"><stop id="e40YxoPXqS135-fill-0" offset="0%" stop-color="#e5e5e5"/><stop id="e40YxoPXqS135-fill-1" offset="60%" stop-color="#d0d0d0"/><stop id="e40YxoPXqS135-fill-2" offset="97%" stop-color="#e5e5e5"/></linearGradient><linearGradient id="e40YxoPXqS140-fill" x1="71.3522" y1="13.9241" x2="11.8327" y2="67.5166" spreadMethod="pad" gradientUnits="userSpaceOnUse" gradientTransform="translate(0 0)"><stop id="e40YxoPXqS140-fill-0" offset="0%" stop-color="#e5e5e5"/><stop id="e40YxoPXqS140-fill-1" offset="60%" stop-color="#d0d0d0"/><stop id="e40YxoPXqS140-fill-2" offset="97%" stop-color="#e5e5e5"/></linearGradient><linearGradient id="e40YxoPXqS143-fill" x1="60.8897" y1="24.5336" x2="22.2936" y2="59.2859" spreadMethod="pad" gradientUnits="userSpaceOnUse" gradientTransform="translate(0 0)"><stop id="e40YxoPXqS143-fill-0" offset="0%" stop-color="#d1d1d1"/><stop id="e40YxoPXqS143-fill-1" offset="60%" stop-color="#b3b3b3"/><stop id="e40YxoPXqS143-fill-2" offset="97%" stop-color="#d1d1d1"/></linearGradient><filter id="e40YxoPXqS149-filter" x="-150%" width="400%" y="-150%" height="400%"><feGaussianBlur id="e40YxoPXqS149-filter-blur-0" stdDeviation="10,10" result="result"/></filter><filter id="e40YxoPXqS150-filter" x="-150%" width="400%" y="-150%" height="400%"><feGaussianBlur id="e40YxoPXqS150-filter-blur-0" stdDeviation="10,10" result="result"/></filter><linearGradient id="e40YxoPXqS152-fill" x1="71.3522" y1="13.9241" x2="11.8327" y2="67.5166" spreadMethod="pad" gradientUnits="userSpaceOnUse" gradientTransform="translate(0 0)"><stop id="e40YxoPXqS152-fill-0" offset="0%" stop-color="#e5e5e5"/><stop id="e40YxoPXqS152-fill-1" offset="60%" stop-color="#d0d0d0"/><stop id="e40YxoPXqS152-fill-2" offset="97%" stop-color="#e5e5e5"/></linearGradient><linearGradient id="e40YxoPXqS157-fill" x1="0.353999" y1="0.709641" x2="0.770555" y2="0.211279" spreadMethod="pad" gradientUnits="objectBoundingBox" gradientTransform="translate(0 0)"><stop id="e40YxoPXqS157-fill-0" offset="0%" stop-color="#ffd06e"/><stop id="e40YxoPXqS157-fill-1" offset="97%" stop-color="#fff"/><stop id="e40YxoPXqS157-fill-2" offset="100%" stop-color="#e7b7fa"/></linearGradient></defs><g display="none" transform="translate(13 8)" mask="url(#e40YxoPXqS117)"><g><g transform="translate(3.406914 0.577846)"><path d="M82.4684,47.2942c0,22.5747-18.3007,40.8753-40.8753,40.8753-22.5747,0-40.875327-18.3006-40.875327-40.8753c0-5.5871.754557-13.3249,2.783097-18.1758C9.67126,14.3691,24.6047,6.41895,41.5931,6.41895c17.9334,0,33.3972,8.68825,38.9032,24.75445c1.4253,4.1582,1.9721,11.4796,1.9721,16.1208Z" fill="#b4b4b4" stroke="#353535" stroke-miterlimit="10"/><path d="M41.5929,80.7668c22.1168,0,40.046-17.9292,40.046-40.046s-17.9292-40.045995-40.046-40.045995-40.04602,17.929195-40.04602,40.045995s17.92922,40.046,40.04602,40.046Z" fill="url(#e40YxoPXqS16-fill)" stroke="#353535" stroke-miterlimit="10"/><path d="M41.5919,16.3153c14.3893,0,26.0949,11.3575,26.721,25.5928.0173-.3964.0601-.7864.0601-1.1874c0-14.7903-11.9899-26.7803-26.7802-26.7803s-26.7803,11.99-26.7803,26.7803c0,.401.0428.791.0601,1.1874.6261-14.2353,12.3308-25.5928,26.7202-25.5928h-.0009Z" fill="#505050" stroke="#868888" stroke-width="0.58323" stroke-miterlimit="10"/><path d="M41.5919,16.3153c14.3893,0,26.0949,11.3575,26.721,25.5928.0173-.3964.0601-.7864.0601-1.1874c0-14.7903-11.9899-26.7803-26.7802-26.7803s-26.7803,11.99-26.7803,26.7803c0,.401.0428.791.0601,1.1874.6261-14.2353,12.3308-25.5928,26.7202-25.5928h-.0009Z" fill="#5f5f5f" stroke="#353535" stroke-width="0.6" stroke-miterlimit="10"/><path d="M41.5912,67.5031c14.3894,0,26.095-11.3575,26.7211-25.5929-.6261-14.2353-12.3308-25.5928-26.7211-25.5928s-26.095,11.3575-26.7201,25.5928c.6261,14.2354,12.3307,25.5929,26.7201,25.5929Z" fill="url(#e40YxoPXqS19-fill)" stroke="#353535" stroke-width="0.6" stroke-miterlimit="10"/><path d="M57.3818,54.5687l.0118-2.774L41.6419,28.2331l-.0064-.0036-.0064.0036-15.7463,23.63.0119,2.7083l31.4862-.0018.0009-.0009ZM47.0249,49.5228h-10.777v-.0018l5.3885-9.1886L47.024,49.521v.0018h.0009Z" fill="#737373" stroke="#353535" stroke-width="0.6" stroke-miterlimit="10"/><path d="M41.6431,24.3972l-.0064-.0036v12.1029l5.3876,9.1886l10.3405,5.9708h.0173L41.6431,24.3972Z" fill="#fff" stroke="#353535" stroke-width="0.6" stroke-linejoin="round"/><path d="M47.0244,45.6864h-10.777l.001-.0018-10.3451,5.9726l31.4607-.0018-10.3405-5.9708.0009.0018Z" fill="#fff" stroke="#353535" stroke-width="0.6" stroke-linejoin="round"/><path d="M41.6363,36.4965v-12.1029l-.0064.0036L25.8955,51.6577h.0082l10.345-5.9726l5.3876-9.1886Z" fill="#fff" stroke="#353535" stroke-width="0.6" stroke-linejoin="round"/></g><g id="e40YxoPXqS114_to" transform="translate(-21.225381,38.02475)"><g transform="translate(-49.891689,-38.024725)"><rect width="23.776555" height="134.918125" rx="0" ry="0" transform="matrix(.49682 0.286839-.5 0.866025 85.1872-23.806531)" fill="#fff" stroke-width="0"/><rect width="23.776555" height="134.918125" rx="0" ry="0" transform="matrix(.269179 0.155411-.5 0.866025 70.242572-21.395583)" fill="#fff" stroke-width="0"/></g></g></g><mask id="e40YxoPXqS117" mask-type="alpha" x="-150%" y="-150%" height="400%" width="400%"><path d="M41.301164,-0.125975c19.026943,0,34.98877,13.123268,39.327864,30.812197.003003.008736.005996.017473.008999.026219C82.079208,34.916972,82.6321,42.319947,82.6321,47.01286c0,22.826227-18.504607,41.330733-41.330733,41.330733-22.826228,0-41.330765-18.504506-41.330765-41.330733c0-4.480806.47998-10.329666,1.701985-15.004994C5.524148,13.65493,21.803302,-0.125965,41.301154,-0.125965l.00001-.00001Z" transform="translate(3.699172 0.890632)" fill="url(#e40YxoPXqS118-fill)" stroke="#353535" stroke-width="0" stroke-miterlimit="10"/></mask></g><g id="e40YxoPXqS119" style="filter:brightness(100%)" transform="translate(13 8)" mask="url(#e40YxoPXqS134)"><g><g transform="translate(3.406914 0.577846)"><path d="M82.4684,47.2942c0,22.5747-18.3007,40.8753-40.8753,40.8753-22.5747,0-40.875327-18.3006-40.875327-40.8753c0-5.5871.754557-13.3249,2.783097-18.1758C9.67126,14.3691,24.6047,6.41895,41.5931,6.41895c17.9334,0,33.3972,8.68825,38.9032,24.75445c1.4253,4.1582,1.9721,11.4796,1.9721,16.1208Z" fill="#fd4301" stroke="#000" stroke-miterlimit="10"/><path d="M41.5929,80.7668c22.1168,0,40.046-17.9292,40.046-40.046s-17.9292-40.045995-40.046-40.045995-40.04602,17.929195-40.04602,40.045995s17.92922,40.046,40.04602,40.046Z" fill="url(#e40YxoPXqS123-fill)" stroke="#000" stroke-miterlimit="10"/><path d="M41.5919,16.3153c14.3893,0,26.0949,11.3575,26.721,25.5928.0173-.3964.0601-.7864.0601-1.1874c0-14.7903-11.9899-26.7803-26.7802-26.7803s-26.7803,11.99-26.7803,26.7803c0,.401.0428.791.0601,1.1874.6261-14.2353,12.3308-25.5928,26.7202-25.5928h-.0009Z" fill="#505050" stroke="#868888" stroke-width="0.58323" stroke-miterlimit="10"/><path d="M41.5919,16.3153c14.3893,0,26.0949,11.3575,26.721,25.5928.0173-.3964.0601-.7864.0601-1.1874c0-14.7903-11.9899-26.7803-26.7802-26.7803s-26.7803,11.99-26.7803,26.7803c0,.401.0428.791.0601,1.1874.6261-14.2353,12.3308-25.5928,26.7202-25.5928h-.0009Z" fill="#fd4301" stroke="#000" stroke-width="0.6" stroke-miterlimit="10"/><path d="M41.5912,67.5031c14.3894,0,26.095-11.3575,26.7211-25.5929-.6261-14.2353-12.3308-25.5928-26.7211-25.5928s-26.095,11.3575-26.7201,25.5928c.6261,14.2354,12.3307,25.5929,26.7201,25.5929Z" fill="url(#e40YxoPXqS126-fill)" stroke="#000" stroke-width="0.6" stroke-miterlimit="10"/><path d="M57.3818,54.5687l.0118-2.774L41.6419,28.2331l-.0064-.0036-.0064.0036-15.7463,23.63.0119,2.7083l31.4862-.0018.0009-.0009ZM47.0249,49.5228h-10.777v-.0018l5.3885-9.1886L47.024,49.521v.0018h.0009Z" fill="#fd4301" stroke="#000" stroke-width="0.6" stroke-miterlimit="10"/><path d="M41.6431,24.3972l-.0064-.0036v12.1029l5.3876,9.1886l10.3405,5.9708h.0173L41.6431,24.3972Z" fill="#fff" stroke="#000" stroke-width="0.6" stroke-linejoin="round"/><path d="M47.0244,45.6864h-10.777l.001-.0018-10.3451,5.9726l31.4607-.0018-10.3405-5.9708.0009.0018Z" fill="#fff" stroke="#000" stroke-width="0.6" stroke-linejoin="round"/><path d="M41.6363,36.4965v-12.1029l-.0064.0036L25.8955,51.6577h.0082l10.345-5.9726l5.3876-9.1886Z" fill="#fff" stroke="#000" stroke-width="0.6" stroke-linejoin="round"/></g><g id="e40YxoPXqS131_to" transform="translate(-11.225381,68.02475)"><g transform="rotate(-75) translate(-49.891689,-38.024725)" opacity="0.5"><rect width="23.776555" height="134.918125" rx="0" ry="0" transform="matrix(.49682 0.286839-.5 0.866025 85.1872-23.806531)" fill="#fff" stroke-width="0"/><rect width="23.776555" height="134.918125" rx="0" ry="0" transform="matrix(.269179 0.155411-.5 0.866025 70.242572-21.395583)" fill="#fff" stroke-width="0"/></g></g></g><mask id="e40YxoPXqS134" mask-type="alpha" x="-150%" y="-150%" height="400%" width="400%"><path d="M41.301164,-0.125975c19.026943,0,34.98877,13.123268,39.327864,30.812197.003003.008736.005996.017473.008999.026219C82.079208,34.916972,82.6321,42.319947,82.6321,47.01286c0,22.826227-18.504607,41.330733-41.330733,41.330733-22.826228,0-41.330765-18.504506-41.330765-41.330733c0-4.480806.47998-10.329666,1.701985-15.004994C5.524148,13.65493,21.803302,-0.125965,41.301154,-0.125965l.00001-.00001Z" transform="translate(3.699172 0.890632)" fill="url(#e40YxoPXqS135-fill)" stroke="#353535" stroke-width="0" stroke-miterlimit="10"/></mask></g><g display="none" transform="translate(13 8)" mask="url(#e40YxoPXqS151)"><g><g transform="translate(3.406914 0.577846)"><path d="M82.4684,47.2942c0,22.5747-18.3007,40.8753-40.8753,40.8753-22.5747,0-40.875327-18.3006-40.875327-40.8753c0-5.5871.754557-13.3249,2.783097-18.1758C9.67126,14.3691,24.6047,6.41895,41.5931,6.41895c17.9334,0,33.3972,8.68825,38.9032,24.75445c1.4253,4.1582,1.9721,11.4796,1.9721,16.1208Z" fill="#b4b4b4" stroke="#353535" stroke-miterlimit="10"/><path d="M41.5929,80.7668c22.1168,0,40.046-17.9292,40.046-40.046s-17.9292-40.045995-40.046-40.045995-40.04602,17.929195-40.04602,40.045995s17.92922,40.046,40.04602,40.046Z" fill="url(#e40YxoPXqS140-fill)" stroke="#353535" stroke-miterlimit="10"/><path d="M41.5919,16.3153c14.3893,0,26.0949,11.3575,26.721,25.5928.0173-.3964.0601-.7864.0601-1.1874c0-14.7903-11.9899-26.7803-26.7802-26.7803s-26.7803,11.99-26.7803,26.7803c0,.401.0428.791.0601,1.1874.6261-14.2353,12.3308-25.5928,26.7202-25.5928h-.0009Z" fill="#505050" stroke="#868888" stroke-width="0.58323" stroke-miterlimit="10"/><path d="M41.5919,16.3153c14.3893,0,26.0949,11.3575,26.721,25.5928.0173-.3964.0601-.7864.0601-1.1874c0-14.7903-11.9899-26.7803-26.7802-26.7803s-26.7803,11.99-26.7803,26.7803c0,.401.0428.791.0601,1.1874.6261-14.2353,12.3308-25.5928,26.7202-25.5928h-.0009Z" fill="#5f5f5f" stroke="#353535" stroke-width="0.6" stroke-miterlimit="10"/><path d="M41.5912,67.5031c14.3894,0,26.095-11.3575,26.7211-25.5929-.6261-14.2353-12.3308-25.5928-26.7211-25.5928s-26.095,11.3575-26.7201,25.5928c.6261,14.2354,12.3307,25.5929,26.7201,25.5929Z" fill="url(#e40YxoPXqS143-fill)" stroke="#353535" stroke-width="0.6" stroke-miterlimit="10"/><path d="M57.3818,54.5687l.0118-2.774L41.6419,28.2331l-.0064-.0036-.0064.0036-15.7463,23.63.0119,2.7083l31.4862-.0018.0009-.0009ZM47.0249,49.5228h-10.777v-.0018l5.3885-9.1886L47.024,49.521v.0018h.0009Z" fill="#737373" stroke="#353535" stroke-width="0.6" stroke-miterlimit="10"/><path d="M41.6431,24.3972l-.0064-.0036v12.1029l5.3876,9.1886l10.3405,5.9708h.0173L41.6431,24.3972Z" fill="#fff" stroke="#353535" stroke-width="0.6" stroke-linejoin="round"/><path d="M47.0244,45.6864h-10.777l.001-.0018-10.3451,5.9726l31.4607-.0018-10.3405-5.9708.0009.0018Z" fill="#fff" stroke="#353535" stroke-width="0.6" stroke-linejoin="round"/><path d="M41.6363,36.4965v-12.1029l-.0064.0036L25.8955,51.6577h.0082l10.345-5.9726l5.3876-9.1886Z" fill="#fff" stroke="#353535" stroke-width="0.6" stroke-linejoin="round"/></g><g id="e40YxoPXqS148_to" transform="translate(-21.225381,38.02475)"><g transform="translate(-49.891689,-38.024725)"><rect width="23.776555" height="134.918125" rx="0" ry="0" transform="matrix(.49682 0.286839-.5 0.866025 85.1872-23.806531)" filter="url(#e40YxoPXqS149-filter)" fill="#fff" stroke-width="0"/><rect width="23.776555" height="134.918125" rx="0" ry="0" transform="matrix(.269179 0.155411-.5 0.866025 70.242572-21.395583)" filter="url(#e40YxoPXqS150-filter)" fill="#fff" stroke-width="0"/></g></g></g><mask id="e40YxoPXqS151" mask-type="alpha" x="-150%" y="-150%" height="400%" width="400%"><path d="M41.301164,-0.125975c19.026943,0,34.98877,13.123268,39.327864,30.812197.003003.008736.005996.017473.008999.026219C82.079208,34.916972,82.6321,42.319947,82.6321,47.01286c0,22.826227-18.504607,41.330733-41.330733,41.330733-22.826228,0-41.330765-18.504506-41.330765-41.330733c0-4.480806.47998-10.329666,1.701985-15.004994C5.524148,13.65493,21.803302,-0.125965,41.301154,-0.125965l.00001-.00001Z" transform="translate(3.699172 0.890632)" fill="url(#e40YxoPXqS152-fill)" stroke="#353535" stroke-width="0" stroke-miterlimit="10"/></mask></g><rect width="26.124754" height="14.275959" rx="7.14" ry="7.14" transform="translate(11.263198 11.114671)" fill="#fff" stroke="#000"/><g transform="translate(11.568077 9)"><rect width="1.263993" height="3.237054" rx="0.5" ry="0.5" transform="matrix(.728168 0 0 1.251869 12.297299 7.226467)" stroke-width="0"/><rect width="1.263993" height="3.237054" rx="0.5" ry="0.5" transform="matrix(0 0.728168-1.251869 0 14.783682 8.792452)" stroke-width="0"/></g><g id="e40YxoPXqS157_tr" transform="translate(85.966531,19.798929) rotate(180)"><g id="e40YxoPXqS157_ts" transform="scale(0.02495,0.02495)"><polygon id="e40YxoPXqS157" points="3.650803,-18.846658 6.673343,0.628212 26.148263,3.650745 6.673343,6.673278 3.650803,26.148148 0.628262,6.673278 -18.846658,3.650745 0.628262,0.628212 3.650803,-18.846658" transform="translate(0,0)" opacity="0" fill="url(#e40YxoPXqS157-fill)" stroke-width="0"/></g></g></svg>
