<svg id="e8nbfgrZYNJ1" xmlns="http://www.w3.org/2000/svg" xmlns:xlink="http://www.w3.org/1999/xlink" viewBox="0 0 110 110" shape-rendering="geometricPrecision" text-rendering="geometricPrecision">
<style><![CDATA[
#e8nbfgrZYNJ38_to {animation: e8nbfgrZYNJ38_to__to 10000ms linear 1 normal forwards}@keyframes e8nbfgrZYNJ38_to__to { 0% {transform: translate(57.998614px,146.168682px);animation-timing-function: cubic-bezier(0.42,0,0.58,1)} 16% {transform: translate(58.998614px,106.168682px);animation-timing-function: cubic-bezier(0.42,0,0.58,1)} 23% {transform: translate(97.998768px,116.167139px);animation-timing-function: cubic-bezier(0.42,0,0.58,1)} 33% {transform: translate(48.998614px,96.168682px);animation-timing-function: cubic-bezier(0.42,0,0.58,1)} 43% {transform: translate(57.998614px,116.168682px);animation-timing-function: cubic-bezier(0.42,0,0.58,1)} 51% {transform: translate(37.998614px,111.168682px);animation-timing-function: cubic-bezier(0.42,0,0.58,1)} 60% {transform: translate(57.998614px,116.168682px);animation-timing-function: cubic-bezier(0.42,0,0.58,1)} 70% {transform: translate(87.998614px,108.648331px);animation-timing-function: cubic-bezier(0.42,0,0.58,1)} 81% {transform: translate(57.998614px,156.168682px)} 100% {transform: translate(57.998614px,156.168682px)}} #e8nbfgrZYNJ52_to {animation: e8nbfgrZYNJ52_to__to 10000ms linear 1 normal forwards}@keyframes e8nbfgrZYNJ52_to__to { 0% {transform: translate(-21.225381px,38.02475px)} 4% {transform: translate(-21.225381px,38.02475px)} 7% {transform: translate(108.774619px,38.02475px)} 11% {transform: translate(-21.225381px,38.02475px)} 100% {transform: translate(-21.225381px,38.02475px)}}
]]></style>
<defs><linearGradient id="e8nbfgrZYNJ6-fill" x1="71.3522" y1="13.9241" x2="11.8327" y2="67.5166" spreadMethod="pad" gradientUnits="userSpaceOnUse" gradientTransform="translate(0 0)"><stop id="e8nbfgrZYNJ6-fill-0" offset="0%" stop-color="#e5e5e5"/><stop id="e8nbfgrZYNJ6-fill-1" offset="60%" stop-color="#d0d0d0"/><stop id="e8nbfgrZYNJ6-fill-2" offset="97%" stop-color="#e5e5e5"/></linearGradient><linearGradient id="e8nbfgrZYNJ9-fill" x1="60.8897" y1="24.5336" x2="22.2936" y2="59.2859" spreadMethod="pad" gradientUnits="userSpaceOnUse" gradientTransform="translate(0 0)"><stop id="e8nbfgrZYNJ9-fill-0" offset="0%" stop-color="#d1d1d1"/><stop id="e8nbfgrZYNJ9-fill-1" offset="60%" stop-color="#b3b3b3"/><stop id="e8nbfgrZYNJ9-fill-2" offset="97%" stop-color="#d1d1d1"/></linearGradient><linearGradient id="e8nbfgrZYNJ18-fill" x1="71.3522" y1="13.9241" x2="11.8327" y2="67.5166" spreadMethod="pad" gradientUnits="userSpaceOnUse" gradientTransform="translate(0 0)"><stop id="e8nbfgrZYNJ18-fill-0" offset="0%" stop-color="#e5e5e5"/><stop id="e8nbfgrZYNJ18-fill-1" offset="60%" stop-color="#d0d0d0"/><stop id="e8nbfgrZYNJ18-fill-2" offset="97%" stop-color="#e5e5e5"/></linearGradient><linearGradient id="e8nbfgrZYNJ24-fill" x1="71.3522" y1="13.9241" x2="11.8327" y2="67.5166" spreadMethod="pad" gradientUnits="userSpaceOnUse" gradientTransform="translate(0 0)"><stop id="e8nbfgrZYNJ24-fill-0" offset="0%" stop-color="#9d7cbf"/><stop id="e8nbfgrZYNJ24-fill-1" offset="60%" stop-color="#fd0189"/><stop id="e8nbfgrZYNJ24-fill-2" offset="97%" stop-color="#fd5c3f"/></linearGradient><linearGradient id="e8nbfgrZYNJ27-fill" x1="60.8897" y1="24.5336" x2="22.2936" y2="59.2859" spreadMethod="pad" gradientUnits="userSpaceOnUse" gradientTransform="translate(0 0)"><stop id="e8nbfgrZYNJ27-fill-0" offset="0%" stop-color="#9d7cbf"/><stop id="e8nbfgrZYNJ27-fill-1" offset="60%" stop-color="#fd0189"/><stop id="e8nbfgrZYNJ27-fill-2" offset="97%" stop-color="#fd5c3f"/></linearGradient><linearGradient id="e8nbfgrZYNJ36-fill" x1="71.3522" y1="13.9241" x2="11.8327" y2="67.5166" spreadMethod="pad" gradientUnits="userSpaceOnUse" gradientTransform="translate(0 0)"><stop id="e8nbfgrZYNJ36-fill-0" offset="0%" stop-color="#e5e5e5"/><stop id="e8nbfgrZYNJ36-fill-1" offset="60%" stop-color="#d0d0d0"/><stop id="e8nbfgrZYNJ36-fill-2" offset="97%" stop-color="#e5e5e5"/></linearGradient><linearGradient id="e8nbfgrZYNJ44-fill" x1="71.3522" y1="13.9241" x2="11.8327" y2="67.5166" spreadMethod="pad" gradientUnits="userSpaceOnUse" gradientTransform="translate(0 0)"><stop id="e8nbfgrZYNJ44-fill-0" offset="0%" stop-color="#e5e5e5"/><stop id="e8nbfgrZYNJ44-fill-1" offset="60%" stop-color="#d0d0d0"/><stop id="e8nbfgrZYNJ44-fill-2" offset="97%" stop-color="#e5e5e5"/></linearGradient><linearGradient id="e8nbfgrZYNJ47-fill" x1="60.8897" y1="24.5336" x2="22.2936" y2="59.2859" spreadMethod="pad" gradientUnits="userSpaceOnUse" gradientTransform="translate(0 0)"><stop id="e8nbfgrZYNJ47-fill-0" offset="0%" stop-color="#d1d1d1"/><stop id="e8nbfgrZYNJ47-fill-1" offset="60%" stop-color="#b3b3b3"/><stop id="e8nbfgrZYNJ47-fill-2" offset="97%" stop-color="#d1d1d1"/></linearGradient><filter id="e8nbfgrZYNJ53-filter" x="-150%" width="400%" y="-150%" height="400%"><feGaussianBlur id="e8nbfgrZYNJ53-filter-blur-0" stdDeviation="10,10" result="result"/></filter><filter id="e8nbfgrZYNJ54-filter" x="-150%" width="400%" y="-150%" height="400%"><feGaussianBlur id="e8nbfgrZYNJ54-filter-blur-0" stdDeviation="10,10" result="result"/></filter><linearGradient id="e8nbfgrZYNJ56-fill" x1="71.3522" y1="13.9241" x2="11.8327" y2="67.5166" spreadMethod="pad" gradientUnits="userSpaceOnUse" gradientTransform="translate(0 0)"><stop id="e8nbfgrZYNJ56-fill-0" offset="0%" stop-color="#e5e5e5"/><stop id="e8nbfgrZYNJ56-fill-1" offset="60%" stop-color="#d0d0d0"/><stop id="e8nbfgrZYNJ56-fill-2" offset="97%" stop-color="#e5e5e5"/></linearGradient></defs><g transform="translate(13 8)" mask="url(#e8nbfgrZYNJ17)"><g><g transform="translate(3.406914 0.577846)"><path d="M82.4684,47.2942c0,22.5747-18.3007,40.8753-40.8753,40.8753-22.5747,0-40.875327-18.3006-40.875327-40.8753c0-5.5871.754557-13.3249,2.783097-18.1758C9.67126,14.3691,24.6047,6.41895,41.5931,6.41895c17.9334,0,33.3972,8.68825,38.9032,24.75445c1.4253,4.1582,1.9721,11.4796,1.9721,16.1208Z" fill="#b4b4b4" stroke="#353535" stroke-miterlimit="10"/><path d="M41.5929,80.7668c22.1168,0,40.046-17.9292,40.046-40.046s-17.9292-40.045995-40.046-40.045995-40.04602,17.929195-40.04602,40.045995s17.92922,40.046,40.04602,40.046Z" fill="url(#e8nbfgrZYNJ6-fill)" stroke="#353535" stroke-miterlimit="10"/><path d="M41.5919,16.3153c14.3893,0,26.0949,11.3575,26.721,25.5928.0173-.3964.0601-.7864.0601-1.1874c0-14.7903-11.9899-26.7803-26.7802-26.7803s-26.7803,11.99-26.7803,26.7803c0,.401.0428.791.0601,1.1874.6261-14.2353,12.3308-25.5928,26.7202-25.5928h-.0009Z" fill="#505050" stroke="#868888" stroke-width="0.58323" stroke-miterlimit="10"/><path d="M41.5919,16.3153c14.3893,0,26.0949,11.3575,26.721,25.5928.0173-.3964.0601-.7864.0601-1.1874c0-14.7903-11.9899-26.7803-26.7802-26.7803s-26.7803,11.99-26.7803,26.7803c0,.401.0428.791.0601,1.1874.6261-14.2353,12.3308-25.5928,26.7202-25.5928h-.0009Z" fill="#5f5f5f" stroke="#353535" stroke-width="0.6" stroke-miterlimit="10"/><path d="M41.5912,67.5031c14.3894,0,26.095-11.3575,26.7211-25.5929-.6261-14.2353-12.3308-25.5928-26.7211-25.5928s-26.095,11.3575-26.7201,25.5928c.6261,14.2354,12.3307,25.5929,26.7201,25.5929Z" fill="url(#e8nbfgrZYNJ9-fill)" stroke="#353535" stroke-width="0.6" stroke-miterlimit="10"/><path d="M57.3818,54.5687l.0118-2.774L41.6419,28.2331l-.0064-.0036-.0064.0036-15.7463,23.63.0119,2.7083l31.4862-.0018.0009-.0009ZM47.0249,49.5228h-10.777v-.0018l5.3885-9.1886L47.024,49.521v.0018h.0009Z" fill="#737373" stroke="#353535" stroke-width="0.6" stroke-miterlimit="10"/><path d="M41.6431,24.3972l-.0064-.0036v12.1029l5.3876,9.1886l10.3405,5.9708h.0173L41.6431,24.3972Z" fill="#fff" stroke="#353535" stroke-width="0.6" stroke-linejoin="round"/><path d="M47.0244,45.6864h-10.777l.001-.0018-10.3451,5.9726l31.4607-.0018-10.3405-5.9708.0009.0018Z" fill="#fff" stroke="#353535" stroke-width="0.6" stroke-linejoin="round"/><path d="M41.6363,36.4965v-12.1029l-.0064.0036L25.8955,51.6577h.0082l10.345-5.9726l5.3876-9.1886Z" fill="#fff" stroke="#353535" stroke-width="0.6" stroke-linejoin="round"/></g></g><mask id="e8nbfgrZYNJ17" mask-type="alpha" x="-150%" y="-150%" height="400%" width="400%"><path d="M41.301164,-0.125975c19.026943,0,34.98877,13.123268,39.327864,30.812197.003003.008736.005996.017473.008999.026219C82.079208,34.916972,82.6321,42.319947,82.6321,47.01286c0,22.826227-18.504607,41.330733-41.330733,41.330733-22.826228,0-41.330765-18.504506-41.330765-41.330733c0-4.480806.47998-10.329666,1.701985-15.004994C5.524148,13.65493,21.803302,-0.125965,41.301154,-0.125965l.00001-.00001Z" transform="translate(3.699172 0.890632)" fill="url(#e8nbfgrZYNJ18-fill)" stroke="#353535" stroke-width="0" stroke-miterlimit="10"/></mask></g><g mask="url(#e8nbfgrZYNJ37)"><g transform="translate(13 8)" mask="url(#e8nbfgrZYNJ35)"><g><g transform="translate(3.406914 0.577846)"><path d="M82.4684,47.2942c0,22.5747-18.3007,40.8753-40.8753,40.8753-22.5747,0-40.875327-18.3006-40.875327-40.8753c0-5.5871.754557-13.3249,2.783097-18.1758C9.67126,14.3691,24.6047,6.41895,41.5931,6.41895c17.9334,0,33.3972,8.68825,38.9032,24.75445c1.4253,4.1582,1.9721,11.4796,1.9721,16.1208Z" fill="#fd4301" stroke="#000" stroke-miterlimit="10"/><path d="M41.5929,80.7668c22.1168,0,40.046-17.9292,40.046-40.046s-17.9292-40.045995-40.046-40.045995-40.04602,17.929195-40.04602,40.045995s17.92922,40.046,40.04602,40.046Z" fill="url(#e8nbfgrZYNJ24-fill)" stroke="#000" stroke-miterlimit="10"/><path d="M41.5919,16.3153c14.3893,0,26.0949,11.3575,26.721,25.5928.0173-.3964.0601-.7864.0601-1.1874c0-14.7903-11.9899-26.7803-26.7802-26.7803s-26.7803,11.99-26.7803,26.7803c0,.401.0428.791.0601,1.1874.6261-14.2353,12.3308-25.5928,26.7202-25.5928h-.0009Z" fill="#505050" stroke="#868888" stroke-width="0.58323" stroke-miterlimit="10"/><path d="M41.5919,16.3153c14.3893,0,26.0949,11.3575,26.721,25.5928.0173-.3964.0601-.7864.0601-1.1874c0-14.7903-11.9899-26.7803-26.7802-26.7803s-26.7803,11.99-26.7803,26.7803c0,.401.0428.791.0601,1.1874.6261-14.2353,12.3308-25.5928,26.7202-25.5928h-.0009Z" fill="#fd4301" stroke="#000" stroke-width="0.6" stroke-miterlimit="10"/><path d="M41.5912,67.5031c14.3894,0,26.095-11.3575,26.7211-25.5929-.6261-14.2353-12.3308-25.5928-26.7211-25.5928s-26.095,11.3575-26.7201,25.5928c.6261,14.2354,12.3307,25.5929,26.7201,25.5929Z" fill="url(#e8nbfgrZYNJ27-fill)" stroke="#000" stroke-width="0.6" stroke-miterlimit="10"/><path d="M57.3818,54.5687l.0118-2.774L41.6419,28.2331l-.0064-.0036-.0064.0036-15.7463,23.63.0119,2.7083l31.4862-.0018.0009-.0009ZM47.0249,49.5228h-10.777v-.0018l5.3885-9.1886L47.024,49.521v.0018h.0009Z" fill="#fd4301" stroke="#000" stroke-width="0.6" stroke-miterlimit="10"/><path d="M41.6431,24.3972l-.0064-.0036v12.1029l5.3876,9.1886l10.3405,5.9708h.0173L41.6431,24.3972Z" fill="#fff" stroke="#000" stroke-width="0.6" stroke-linejoin="round"/><path d="M47.0244,45.6864h-10.777l.001-.0018-10.3451,5.9726l31.4607-.0018-10.3405-5.9708.0009.0018Z" fill="#fff" stroke="#000" stroke-width="0.6" stroke-linejoin="round"/><path d="M41.6363,36.4965v-12.1029l-.0064.0036L25.8955,51.6577h.0082l10.345-5.9726l5.3876-9.1886Z" fill="#fff" stroke="#000" stroke-width="0.6" stroke-linejoin="round"/></g></g><mask id="e8nbfgrZYNJ35" mask-type="alpha" x="-150%" y="-150%" height="400%" width="400%"><path d="M41.301164,-0.125975c19.026943,0,34.98877,13.123268,39.327864,30.812197.003003.008736.005996.017473.008999.026219C82.079208,34.916972,82.6321,42.319947,82.6321,47.01286c0,22.826227-18.504607,41.330733-41.330733,41.330733-22.826228,0-41.330765-18.504506-41.330765-41.330733c0-4.480806.47998-10.329666,1.701985-15.004994C5.524148,13.65493,21.803302,-0.125965,41.301154,-0.125965l.00001-.00001Z" transform="translate(3.699172 0.890632)" fill="url(#e8nbfgrZYNJ36-fill)" stroke="#353535" stroke-width="0" stroke-miterlimit="10"/></mask></g><mask id="e8nbfgrZYNJ37"><g id="e8nbfgrZYNJ38_to" transform="translate(57.998614,146.168682)"><path d="M22.359436,9.124249c5.066811-.100526,14.89985-5.906912,19.951176-6.315301c9.527911-.770312,17.257145,7.576418,26.799335,7.009781c6.287076-.373341,13.494015-7.209742,19.788991-7.009781c5.347629.169868,16.399072,7.009781,16.399072,7.009781v86.928617h-100.596023v-93.938398c0,0,12.032708,6.426897,17.657449,6.315301Z" transform="scale(1.807333,1) translate(-54.999998,-49.778147)" fill="#fff" stroke-width="0"/></g></mask></g><g display="none" transform="translate(13 8)" mask="url(#e8nbfgrZYNJ55)"><g><g transform="translate(3.406914 0.577846)"><path d="M82.4684,47.2942c0,22.5747-18.3007,40.8753-40.8753,40.8753-22.5747,0-40.875327-18.3006-40.875327-40.8753c0-5.5871.754557-13.3249,2.783097-18.1758C9.67126,14.3691,24.6047,6.41895,41.5931,6.41895c17.9334,0,33.3972,8.68825,38.9032,24.75445c1.4253,4.1582,1.9721,11.4796,1.9721,16.1208Z" fill="#b4b4b4" stroke="#353535" stroke-miterlimit="10"/><path d="M41.5929,80.7668c22.1168,0,40.046-17.9292,40.046-40.046s-17.9292-40.045995-40.046-40.045995-40.04602,17.929195-40.04602,40.045995s17.92922,40.046,40.04602,40.046Z" fill="url(#e8nbfgrZYNJ44-fill)" stroke="#353535" stroke-miterlimit="10"/><path d="M41.5919,16.3153c14.3893,0,26.0949,11.3575,26.721,25.5928.0173-.3964.0601-.7864.0601-1.1874c0-14.7903-11.9899-26.7803-26.7802-26.7803s-26.7803,11.99-26.7803,26.7803c0,.401.0428.791.0601,1.1874.6261-14.2353,12.3308-25.5928,26.7202-25.5928h-.0009Z" fill="#505050" stroke="#868888" stroke-width="0.58323" stroke-miterlimit="10"/><path d="M41.5919,16.3153c14.3893,0,26.0949,11.3575,26.721,25.5928.0173-.3964.0601-.7864.0601-1.1874c0-14.7903-11.9899-26.7803-26.7802-26.7803s-26.7803,11.99-26.7803,26.7803c0,.401.0428.791.0601,1.1874.6261-14.2353,12.3308-25.5928,26.7202-25.5928h-.0009Z" fill="#5f5f5f" stroke="#353535" stroke-width="0.6" stroke-miterlimit="10"/><path d="M41.5912,67.5031c14.3894,0,26.095-11.3575,26.7211-25.5929-.6261-14.2353-12.3308-25.5928-26.7211-25.5928s-26.095,11.3575-26.7201,25.5928c.6261,14.2354,12.3307,25.5929,26.7201,25.5929Z" fill="url(#e8nbfgrZYNJ47-fill)" stroke="#353535" stroke-width="0.6" stroke-miterlimit="10"/><path d="M57.3818,54.5687l.0118-2.774L41.6419,28.2331l-.0064-.0036-.0064.0036-15.7463,23.63.0119,2.7083l31.4862-.0018.0009-.0009ZM47.0249,49.5228h-10.777v-.0018l5.3885-9.1886L47.024,49.521v.0018h.0009Z" fill="#737373" stroke="#353535" stroke-width="0.6" stroke-miterlimit="10"/><path d="M41.6431,24.3972l-.0064-.0036v12.1029l5.3876,9.1886l10.3405,5.9708h.0173L41.6431,24.3972Z" fill="#fff" stroke="#353535" stroke-width="0.6" stroke-linejoin="round"/><path d="M47.0244,45.6864h-10.777l.001-.0018-10.3451,5.9726l31.4607-.0018-10.3405-5.9708.0009.0018Z" fill="#fff" stroke="#353535" stroke-width="0.6" stroke-linejoin="round"/><path d="M41.6363,36.4965v-12.1029l-.0064.0036L25.8955,51.6577h.0082l10.345-5.9726l5.3876-9.1886Z" fill="#fff" stroke="#353535" stroke-width="0.6" stroke-linejoin="round"/></g><g id="e8nbfgrZYNJ52_to" transform="translate(-21.225381,38.02475)"><g transform="translate(-49.891689,-38.024725)"><rect width="23.776555" height="134.918125" rx="0" ry="0" transform="matrix(.49682 0.286839-.5 0.866025 85.1872-23.806531)" filter="url(#e8nbfgrZYNJ53-filter)" fill="#fff" stroke-width="0"/><rect width="23.776555" height="134.918125" rx="0" ry="0" transform="matrix(.269179 0.155411-.5 0.866025 70.242572-21.395583)" filter="url(#e8nbfgrZYNJ54-filter)" fill="#fff" stroke-width="0"/></g></g></g><mask id="e8nbfgrZYNJ55" mask-type="alpha" x="-150%" y="-150%" height="400%" width="400%"><path d="M41.301164,-0.125975c19.026943,0,34.98877,13.123268,39.327864,30.812197.003003.008736.005996.017473.008999.026219C82.079208,34.916972,82.6321,42.319947,82.6321,47.01286c0,22.826227-18.504607,41.330733-41.330733,41.330733-22.826228,0-41.330765-18.504506-41.330765-41.330733c0-4.480806.47998-10.329666,1.701985-15.004994C5.524148,13.65493,21.803302,-0.125965,41.301154,-0.125965l.00001-.00001Z" transform="translate(3.699172 0.890632)" fill="url(#e8nbfgrZYNJ56-fill)" stroke="#353535" stroke-width="0" stroke-miterlimit="10"/></mask></g></svg>
