<svg fill="none" xmlns="http://www.w3.org/2000/svg" viewBox="0 0 392 276">
  <g clip-path="url(#a)" stroke="#fff" stroke-opacity=".2" stroke-width=".5" stroke-miterlimit="10">
    <path d="M533.805 105.091c-10.564 74.766-116.383 122.256-195.874 121.321-91.604-1.086-126.113-66.228-195.83-46.395-63.621 18.078-67.3854 81.605-114.1567 91.628-42.9839 9.21-110.9872-29.18-223.0233-219.2646"/>
    <path d="M-189.733 43.9536C-79.0583 231.29-11.0165 271.164 32.5766 263.657c32.3089-5.607 44.7676-36.457 70.0514-60.576 12.62-12.415 28.14-21.52 45.168-26.498 55.773-16.347 89.006 19.794 148.597 35.287 15.19 3.994 30.799 6.198 46.508 6.567 79.815 2.135 184.452-39.034 196.649-111.077"/>
    <path d="M-184.374 35.5533C-75.0601 220.13-7.01859 261.474 37.0928 255.657c32.4253-4.278 45.623-33.658 70.9582-56.551 12.922-11.969 28.419-20.847 45.31-25.956 54.97-16.618 88.19 15.937 147.99 30.706 15.196 3.786 30.747 5.995 46.403 6.594 80.152 3.089 183.594-31.5 197.425-100.822"/>
    <path d="M-179.03 27.1788C-71.1033 208.956-3.02331 251.758 41.6583 247.67c32.5677-2.976 46.4523-30.859 71.8787-52.539 13.196-11.516 28.658-20.171 45.4-25.414 54.218-16.889 87.309 12.092 147.381 26.126 15.211 3.61 30.721 5.839 46.339 6.658 80.476 4.186 182.723-23.965 198.187-90.565"/>
    <path d="M-173.684 18.7396C-67.1187 197.795.948026 242.029 46.2388 239.67c32.6711-1.686 47.3076-28.073 72.8112-48.502 13.48-11.068 28.935-19.51 45.556-24.885 53.465-17.159 86.467 8.235 146.837 21.547 15.195 3.399 30.631 5.629 46.171 6.671 80.813 5.282 181.865-16.444 198.975-80.322"/>
    <path d="M-168.389 10.3273C-63.1459 186.635 4.95902 233.552 50.8203 231.683c32.7359-1.298 48.1629-25.208 73.7177-44.489 13.757-10.601 29.205-18.83 45.699-24.343 52.713-17.43 85.599 4.377 146.177 16.954 15.19 3.222 30.573 5.467 46.054 6.722 81.149 6.43 181.007-8.909 199.751-70.078"/>
    <path d="M-162.979 1.91488C-59.1615 175.462 8.89147 222.483 55.3875 223.761c32.8391.74 49.0575-22.486 74.6505-40.554 14.019-10.13 29.461-18.15 45.828-23.802 51.961-17.701 84.77.533 145.569 12.374 15.186 3.03 30.518 5.282 45.937 6.749 81.487 7.527 180.149-1.336 200.527-59.822"/>
    <path d="M-157.635-6.49816C-55.2177 164.301 12.8479 212.78 59.9661 215.697c32.9165 2.081 49.9639-19.507 75.5709-36.453 14.269-9.649 29.712-17.456 45.957-23.233 51.196-17.985 83.928-3.35 144.961 7.794 14.201 2.577 29.362 5.05 45.82 6.787 81.836 8.662 179.291 6.135 201.302-49.604"/>
    <path d="M-152.287-14.9102C-51.205 153.129 16.8083 202.936 64.5356 207.736c33.007 3.308 50.8974-16.642 76.5294-32.44 14.52-9.163 29.973-16.774 46.1-22.705 50.444-18.255 83.073-7.181 144.352 3.202 14.266 2.422 29.388 4.869 45.716 6.826 82.07 9.784 178.382 13.656 202.026-39.348"/>
    <path d="M-146.929-23.3102C-47.2215 141.968 20.7656 193.117 69.1149 199.711c33.0841 4.52 51.8821-13.74 77.4101-28.403 14.752-8.672 30.212-16.09 46.217-22.176 49.705-18.526 82.244-11.038 143.756-1.326 14.266 2.267 29.401 4.714 45.6 6.878 82.498 10.971 177.563 21.216 202.841-29.079"/>
    <path d="M-141.584-31.7256C-43.2497 130.805 24.7241 183.27 73.6566 191.721c33.1624 5.72 52.8154-10.824 78.3434-24.403 14.98-8.162 30.459-15.383 46.346-21.621 48.939-18.797 81.389-14.883 143.148-5.971 14.331 2.086 29.427 4.547 45.483 6.904 82.834 12.157 176.692 28.75 203.629-18.823"/>
    <path d="M-136.239-40.1367C-39.2668 119.634 28.7066 173.428 78.2612 183.736c33.2528 6.907 53.7748-7.896 79.2498-20.391 14.645-7.177 29.64-14.418 46.489-21.08 48.187-19.054 80.546-18.74 142.54-10.55 14.369 1.919 29.44 4.392 45.392 6.942 83.171 13.345 175.834 36.286 204.391-8.579"/>
    <path d="M-130.892-48.5515C-35.28 108.42 32.6023 163.555 82.8309 175.734c33.3431 8.107 54.7721-4.929 80.1831-16.366 14.994-6.751 30.028-13.786 46.618-20.538 47.435-19.363 79.692-22.584 141.931-15.13 14.409 1.738 29.466 4.224 45.25 6.981 83.495 14.557 174.976 43.82 205.167 1.664"/>
    <path d="M-125.573-56.9636C-31.3094 97.2986 36.6374 153.673 87.3972 167.735c33.4338 9.268 55.7698-1.949 81.1158-12.354 15.358-6.3 30.417-13.141 46.696-19.996 46.696-19.596 78.836-26.441 141.374-19.723 14.461 1.583 29.48 4.082 45.133 7.02 83.832 15.796 174.118 51.38 205.943 11.933"/>
    <path d="M-120.188-65.3637C-27.3243 86.138 40.5834 143.764 91.9782 159.748c33.5368 10.442 56.7678 1.057 82.0228-8.329 15.72-5.835 30.832-12.509 46.89-19.454 45.918-19.867 77.995-30.286 140.714-24.303 15.122 1.6 30.152 3.969 45.029 7.097 84.144 16.97 173.287 58.838 206.706 22.138"/>
    <path d="M-114.843-73.7758C-23.3412 74.9653 44.6309 133.894 96.5052 151.762c33.6408 11.603 57.7788 4.075 83.0068-4.317 16.084-5.358 31.221-11.864 47.007-18.912 45.179-20.138 77.153-34.1437 140.08-28.883 15.109 1.405 30.111 3.775 44.913 7.097 84.492 18.312 172.415 66.411 207.519 32.472"/>
    <path d="M-109.497-82.1892C-19.3691 63.8043 48.6806 123.933 101.125 143.775c33.718 12.737 58.777 7.119 83.875-.293 16.447-4.868 31.61-11.245 47.137-18.383 44.413-20.408 76.31-37.9876 139.51-33.4623 15.095 1.226 30.072 3.6118 44.796 7.1359 84.778 19.5244 171.531 73.9324 208.269 42.6634"/>
    <path d="M-104.138-90.6018C-15.3836 52.5796 52.6269 114.011 105.693 135.775c33.861 13.899 59.788 10.203 84.795 3.733 16.862-4.352 32.012-10.6 47.279-17.842 43.662-20.653 75.456-41.8446 138.902-38.0548 15.08 1.0556 30.033 3.4568 44.679 7.1747 85.089 20.8011 170.674 81.4801 209.045 52.9201"/>
    <path d="M-98.7917-99.0158C-11.4635 41.4696 56.6504 104.062 110.274 127.735c33.977 15.034 60.773 13.286 85.715 7.719 17.186-3.874 32.427-9.968 47.408-17.299 42.909-20.9499 74.614-45.7025 138.294-42.6094 15.063.8849 29.995 3.3019 44.562 7.2134 85.4 22.091 169.88 88.976 209.821 63.163"/>
    <path d="M-93.4475-107.43C-7.42859 30.2953 60.685 94.1135 114.84 119.786c34.119 16.183 61.77 16.408 86.647 11.77 17.549-3.281 32.803-9.336 47.539-16.784 42.144-21.2199 73.758-49.5461 137.685-47.2143 15.047.7077 29.961 3.1412 44.445 7.2522 85.698 23.4199 168.958 96.5621 210.596 73.4321"/>
    <path d="M-88.0876-115.829C-3.44282 19.1351 64.7224 84.1015 119.37 111.8c34.248 17.304 62.742 19.529 87.554 15.781 17.912-2.7 33.205-8.69 47.668-16.203 41.404-21.5036 72.929-53.4164 137.09-51.807 15.033.5438 29.934 2.9939 44.341 7.2909C521.954 91.7137 604.11 170.92 647.408 150.525"/>
    <path d="M-82.757-124.241C52.3845 90.3372 147.935 131.107 212.474 123.608c70.453-8.185 97.356-73.2266 184.279-72.0616C498.72 52.9268 600.592 173.476 653.112 152.795"/>
  </g>
  <defs>
    <clipPath id="a">
      <path fill="#fff" d="M0 275.676h392v-275H0z"/>
    </clipPath>
  </defs>
</svg>
