<svg width="315" height="97" viewBox="0 0 315 97" fill="none" xmlns="http://www.w3.org/2000/svg">
  <path fill-rule="evenodd" clip-rule="evenodd" d="M160.5 96C185.077 96 205 76.0767 205 51.5C205 26.9233 185.077 7 160.5 7C135.923 7 116 26.9233 116 51.5C116 76.0767 135.923 96 160.5 96ZM181.552 36.8937C183.114 38.4558 183.114 40.9885 181.552 42.5506L156.544 67.5579C154.982 69.1199 152.45 69.12 150.887 67.5579L139.403 56.0741C137.841 54.512 137.841 51.9793 139.403 50.4172C140.965 48.8551 143.498 48.855 145.06 50.4171L153.716 59.0727L175.895 36.8937C177.457 35.3316 179.989 35.3316 181.552 36.8937Z" fill="#8784F4"/>
  <path d="M279.336 81.9175L277.348 85.4993C277.273 85.6334 277.144 85.7281 276.993 85.7583L272.958 86.5659C272.548 86.6479 272.395 87.1531 272.69 87.4485L275.486 90.2463C275.597 90.3572 275.652 90.512 275.637 90.668L275.228 94.76C275.188 95.1594 275.594 95.453 275.961 95.2899L279.607 93.6682C279.757 93.6014 279.93 93.609 280.074 93.6889L283.587 95.6419C283.973 95.8564 284.434 95.5257 284.355 95.0912L283.556 90.691C283.525 90.5222 283.579 90.3492 283.701 90.2278L286.478 87.4485C286.773 87.1531 286.62 86.6479 286.21 86.5659L282.203 85.7639C282.037 85.7306 281.897 85.6185 281.828 85.4633L280.272 81.9591C280.096 81.5646 279.546 81.5401 279.336 81.9175Z" fill="#4C53AD"/>
  <path d="M43.6397 14.0113L42.4629 16.131C42.3884 16.2652 42.2587 16.3599 42.1082 16.39L39.696 16.8728C39.2865 16.9548 39.1335 17.46 39.4287 17.7554L41.0882 19.4161C41.199 19.5271 41.2543 19.6818 41.2387 19.8379L40.9921 22.3054C40.9522 22.7048 41.3584 22.9984 41.7251 22.8353L43.9105 21.8633C44.0607 21.7965 44.2336 21.8042 44.3772 21.8841L46.4291 23.0248C46.815 23.2394 47.2768 22.9087 47.1979 22.4742L46.723 19.8608C46.6924 19.6921 46.7464 19.519 46.8677 19.3976L48.5087 17.7554C48.8039 17.46 48.6509 16.9548 48.2414 16.8728L45.8574 16.3957C45.6909 16.3624 45.551 16.2503 45.482 16.0951L44.575 14.0528C44.3998 13.6584 43.8492 13.6339 43.6397 14.0113Z" fill="#4C53AD"/>
  <path d="M227.901 24.9175L226.725 27.0373C226.65 27.1715 226.52 27.2662 226.37 27.2963L223.958 27.7791C223.548 27.861 223.395 28.3662 223.69 28.6617L225.35 30.3224C225.461 30.4333 225.516 30.5881 225.5 30.7441L225.254 33.2117C225.214 33.611 225.62 33.9047 225.987 33.7416L228.172 32.7696C228.322 32.7028 228.495 32.7105 228.639 32.7903L230.691 33.9311C231.077 34.1457 231.539 33.8149 231.46 33.3805L230.985 30.7671C230.954 30.5983 231.008 30.4252 231.129 30.3039L232.77 28.6617C233.066 28.3662 232.913 27.861 232.503 27.7791L230.119 27.3019C229.953 27.2686 229.813 27.1566 229.744 27.0014L228.837 24.9591C228.662 24.5646 228.111 24.5401 227.901 24.9175Z" fill="#4C53AD"/>
  <ellipse cx="24.0922" cy="13.0937" rx="2.09217" ry="2.09368" fill="#5F0C39"/>
  <ellipse cx="1.27655" cy="4.04684" rx="1.04608" ry="1.04684" fill="#4C53AD"/>
  <ellipse cx="26.7074" cy="68.7108" rx="4.70737" ry="4.71077" fill="#5F0C39"/>
  <ellipse cx="41.0922" cy="83.0937" rx="2.09217" ry="2.09368" fill="#4C53AD"/>
  <ellipse cx="302.548" cy="87.7958" rx="2.09217" ry="2.09368" fill="#5F0C39"/>
  <ellipse cx="309.707" cy="50.7108" rx="4.70737" ry="4.71077" fill="#5F0C39"/>
  <ellipse cx="222.707" cy="4.71077" rx="4.70737" ry="4.71077" fill="#5F0C39"/>
  <ellipse cx="308.825" cy="95.123" rx="1.04608" ry="1.04684" fill="#4C53AD"/>
</svg>

