<svg class="icon" fill="none" xmlns="http://www.w3.org/2000/svg" viewBox="0 0 80 80">
  <g filter="url(#a)">
    <g clip-path="url(#b)">
      <circle cx="40" cy="40" r="40" fill="#F6F8FD"/>
      <path fill-rule="evenodd" clip-rule="evenodd" d="M50.2427 46.2198 42.187 33.426v-6.9724l14.4237 24.0055-6.368-4.2393ZM32.5521 49.046h15.832l5.1391 3.4211H26.5564l5.9957-3.4211Zm6.2495-15.62-8.0184 12.7347-5.8179 3.3197 13.8363-23.0268v6.9724Zm1.6927 3.6646 5.4015 8.5748H35.0945l5.3998-8.5748Zm21.765 16.1963L41.9467 19.4812c-.0542-.0879-.1253-.1589-.193-.2333-.3098-.3532-.7516-.5865-1.2594-.5865s-.9479.2333-1.2594.5865c-.0677.0744-.1388.1437-.1913.2333L18.731 53.2869c-.0796.1336-.1388.2755-.1794.4209-.0034.0101-.0034.0203-.0051.0304-.0457.1775-.0542.3601-.0406.5426.005.0507.0101.098.0186.1487.0305.1927.0846.3837.1845.5595.0017.0017.0017.0017.0017.0034.0017.0017.0017.0017.0017.0034.0288.049.0677.0845.0998.1301.0559.0761.1067.1589.1727.2249.0643.0642.1388.1115.2116.1656.0491.0338.0897.0744.1388.1031.0796.0456.1642.0727.2488.1048.0542.0203.1033.049.1591.0642.127.0338.2573.0474.3877.0524.0186 0 .0338.0068.0508.0068h40.6252c.6111 0 1.1731-.3279 1.4727-.8587.3013-.529.2928-1.1798-.0203-1.7021Z" fill="#A0A5EB"/>
      <path transform="rotate(135.0412 24.72903 27.570608)" stroke="#F6F8FD" stroke-width="4" d="M0-2h50.09"/>
      <path d="M58.4019 30.4657 28.2058 60.5378" stroke="#A0A5EB" stroke-width="4" stroke-linecap="round"/>
    </g>
  </g>
  <defs>
    <clipPath id="b">
      <rect x="-644" y="-229" width="1366" height="1024" rx="8" fill="#fff"/>
    </clipPath>
  </defs>
</svg>
