<svg fill="none" xmlns="http://www.w3.org/2000/svg" viewBox="0 0 128 35">
  <path fill-rule="evenodd" clip-rule="evenodd" d="m27.8686 9.10423.7842-1.95319s-.9981-1.08511-2.21-2.3149c-1.2119-1.22979-3.7784-.50638-3.7784-.50638L19.7415.964844H9.47573L6.55283 4.32976s-2.56645-.72341-3.77838.50638C1.56252 6.06593.564456 7.15104.564456 7.15104l.784194 1.95319-.998064 2.89357S3.28596 23.2797 3.62993 24.6574c.67726 2.7128 1.14065 3.7617 3.06548 5.1362 1.92483 1.3745 5.41809 3.7617 5.98839 4.1234.5703.3617 1.2832.9778 1.9248.9778.6416 0 1.3545-.6161 1.9249-.9778.5703-.3617 4.0635-2.7489 5.9883-4.1234 1.9249-1.3745 2.3882-2.4234 3.0655-5.1362.3439-1.3777 3.2794-12.6596 3.2794-12.6596l-.9981-2.89357Z" fill="url(#a)"/>
  <path d="M18.2446 7.07827c.4277 0 3.6001-.6149 3.6001-.6149s3.7596 4.61173 3.7596 5.59733c0 .8149-.3233 1.1339-.7041 1.5096-.0797.0787-.162.1598-.2443.2486l-2.819 3.0375c-.0279.0301-.059.0618-.092.0954-.2813.2871-.6957.7098-.4033 1.4119.0195.047.0396.0947.06.1431.3206.7607.7163 1.6997.2126 2.6513-.5358 1.0122-1.4537 1.6878-2.0418 1.5761-.5882-.1118-1.9694-.8442-2.4774-1.1788-.5079-.3346-2.1178-1.6818-2.1178-2.1973 0-.43 1.1578-1.1452 1.7203-1.4927.1119-.0691.2002-.1237.2512-.1586.0581-.0397.1552-.1009.2748-.1763.5134-.3237 1.4405-.9081 1.4638-1.1673.0287-.3195.0178-.4132-.3961-1.2026-.088-.1678-.191-.3476-.2974-.5334-.3941-.6881-.8353-1.4585-.7376-2.0103.1102-.623 1.0722-.9802 1.887-1.2827.1019-.0379.2014-.0748.2967-.1113.2378-.0912.5367-.2047.8488-.3234.8136-.3092 1.7175-.6528 1.8665-.7225.2064-.0966.1531-.18855-.4719-.24867-.0827-.00795-.1855-.01904-.3035-.03176-.7737-.08343-2.2006-.23729-2.8943-.04108-.1365.03859-.2894.08062-.4498.12469-.7794.21412-1.7345.47662-1.8263.62792-.0161.0265-.0318.0492-.0467.0707-.0878.1267-.1451.2092-.0479.7473.0289.1602.0884.4754.1619.865.2153 1.141.5511 2.9208.5934 3.3207.0059.0559.0125.1099.0187.1619.0539.446.0897.7429-.4208.8613-.0425.0099-.0871.0203-.1335.0311-.5761.1341-1.4206.3308-1.7257.3308-.3053 0-1.1504-.1969-1.7264-.331-.0462-.0107-.0906-.0211-.1329-.0309-.5105-.1184-.4747-.4153-.4208-.8613.0063-.052.0128-.106.0187-.1619.0424-.4004.3791-2.1846.5943-3.3254.0732-.3875.1323-.7008.1611-.8603.0971-.538.0398-.6206-.0479-.7472-.0149-.0215-.0307-.0443-.0467-.0708-.0918-.1513-1.0468-.4137-1.8262-.62788-.1605-.04409-.3135-.08613-.45-.12473-.6937-.19621-2.12042-.04236-2.89415.04107-.11805.01273-.22089.02382-.30361.03177-.62493.06012-.67825.15207-.47194.24867.14907.0697 1.05254.4131 1.86593.7223.31238.1187.61147.2324.84944.3236.09534.0365.19492.0735.29683.1113.8148.3026 1.7767.6597 1.8869 1.2827.0977.5518-.3435 1.322-.7375 2.01-.1065.1859-.2095.3658-.2975.5337-.4139.7894-.4248.8831-.3961 1.2026.0232.2591.95.8434 1.4635 1.1671.1196.0755.2169.1368.275.1765.0509.0349.1392.0894.251.1584.5624.3475 1.7205 1.0629 1.7205 1.4929 0 .5155-1.6098 1.8627-2.1178 2.1973-.5079.3346-1.8891 1.067-2.47729 1.1788-.58814.1117-1.506-.5639-2.04182-1.5761-.50364-.9515-.10805-1.8905.21243-2.6511.02043-.0485.04055-.0963.06011-.1433.29241-.7021-.12201-1.1249-.40343-1.412-.03289-.0335-.06397-.0652-.09189-.0953l-2.81896-3.0375c-.08234-.0888-.1646-.1699-.24434-.2486-.38075-.3757-.70403-.6946-.70403-1.5096 0-.9856 3.75956-5.59733 3.75956-5.59733s3.17246.6149 3.60016.6149c.3413 0 1.0004-.23031 1.6874-.4704.174-.06079.3497-.12221.5226-.18067.8555-.28936 1.4258-.29146 1.4258-.29146s.5703.0021 1.4258.29146c.1728.05846.3486.11988.5225.18067.6871.24009 1.3462.4704 1.6875.4704Z" fill="#fff"/>
  <path d="M17.7 23.3903c.6707.3507 1.1464.5995 1.3263.7137.2327.1479.0908.4266-.1211.5787-.2121.1521-3.0609 2.3906-3.3374 2.638-.0353.0316-.0728.0659-.1119.1017-.2664.2436-.6062.5544-.8471.5544-.241 0-.581-.311-.8475-.5547-.0389-.0357-.0763-.0699-.1116-.1014-.2765-.2474-3.1253-2.4859-3.3373-2.638-.212-.1521-.35388-.4308-.1212-.5787.18-.1143.6563-.3633 1.3276-.7143.1967-.1029.4102-.2145.638-.3341 1.0045-.5275 2.2566-.976 2.452-.976.1954 0 1.4474.4485 2.4521.976.2281.1198.4421.2317.6391.3347Z" fill="#fff"/>
  <path d="M39.7902 13.9605c.4286-.7094.9841-1.2657 1.6666-1.6688.6984-.4031 1.492-.6047 2.3808-.6047v3.5554h-.8809c-1.0476 0-1.8412.2499-2.3808.7498-.5238.4998-.7857 1.3705-.7857 2.6121v6.6754H36.457V11.8805h3.3332v2.08ZM57.5107 18.2899c0 .4837-.0318.9191-.0952 1.306h-9.6424c.0793.9675.4126 1.7253.9999 2.2736.5873.5482 1.3095.8223 2.1666.8223 1.238 0 2.1189-.5402 2.6427-1.6205h3.5951c-.381 1.29-1.1111 2.3542-2.1904 3.1926-1.0793.8224-2.4046 1.2335-3.976 1.2335-1.2698 0-2.4126-.2822-3.4284-.8465-.9999-.5805-1.7856-1.3947-2.357-2.4428-.5556-1.0481-.8333-2.2574-.8333-3.628 0-1.3867.2777-2.604.8333-3.6521.5555-1.0481 1.3332-1.8543 2.3332-2.4187.9999-.5643 2.1507-.8465 3.4522-.8465 1.2539 0 2.3729.2741 3.357.8224.9999.5482 1.7697 1.3302 2.3094 2.346.5555.9997.8333 2.1526.8333 3.4587Zm-3.4522-.9675c-.0159-.8707-.3254-1.564-.9286-2.08-.6031-.5321-1.3412-.7981-2.2141-.7981-.8254 0-1.5238.2579-2.0952.7739-.5555.4999-.8967 1.2013-1.0237 2.1042h6.2616ZM77.3951 11.8805l-3.8569 13.3992h-3.5951l-2.4046-9.3601-2.4047 9.3601H61.515l-3.8808-13.3992h3.3808l2.3332 10.2066 2.5237-10.2066h3.5236l2.4761 10.1825 2.3332-10.1825h3.1903ZM77.5082 18.5317c0-1.3544.2619-2.5556.7857-3.6037.5396-1.0481 1.2618-1.8543 2.1665-2.4187.9206-.5643 1.9444-.8465 3.0713-.8465.9841 0 1.8412.2016 2.5713.6047.746.4031 1.3412.911 1.7857 1.5237v-1.9107h3.3569v13.3992h-3.3569v-1.9591c-.4286.6289-1.0238 1.1529-1.7857 1.5722-.746.4031-1.611.6046-2.5951.6046-1.111 0-2.1269-.2902-3.0475-.8707-.9047-.5805-1.6269-1.3947-2.1665-2.4428-.5238-1.0642-.7857-2.2816-.7857-3.6522Zm10.3805.0484c0-.8223-.1588-1.5237-.4762-2.1042-.3175-.5966-.746-1.0481-1.2857-1.3544-.5396-.3225-1.119-.4838-1.738-.4838s-1.1904.1532-1.7142.4596c-.5238.3063-.9523.7578-1.2856 1.3544-.3175.5805-.4762 1.2738-.4762 2.08 0 .8063.1587 1.5157.4762 2.1284.3333.5966.7618 1.0562 1.2856 1.3787.5397.3225 1.1111.4837 1.7142.4837.619 0 1.1984-.1532 1.738-.4595.5397-.3225.9682-.774 1.2857-1.3545.3174-.5966.4762-1.306.4762-2.1284ZM97.0009 13.9605c.4286-.7094.9841-1.2657 1.6666-1.6688.6984-.4031 1.4925-.6047 2.3805-.6047v3.5554h-.881c-1.0471 0-1.8407.2499-2.3804.7498-.5238.4998-.7857 1.3705-.7857 2.6121v6.6754h-3.3331V11.8805h3.3331v2.08ZM101.603 18.5317c0-1.3544.262-2.5556.786-3.6037.539-1.0481 1.269-1.8543 2.19-2.4187.921-.5643 1.944-.8465 3.071-.8465.857 0 1.675.1935 2.453.5805.777.3709 1.396.8707 1.857 1.4995V7.38184h3.38V25.2797h-3.38v-1.9832c-.413.6611-.992 1.1932-1.738 1.5963s-1.611.6046-2.595.6046c-1.112 0-2.127-.2902-3.048-.8707-.921-.5805-1.651-1.3947-2.19-2.4428-.524-1.0642-.786-2.2816-.786-3.6522Zm10.38.0484c0-.8223-.158-1.5237-.476-2.1042-.317-.5966-.746-1.0481-1.285-1.3544-.54-.3225-1.119-.4838-1.738-.4838s-1.191.1532-1.715.4596c-.523.3063-.952.7578-1.285 1.3544-.318.5805-.476 1.2738-.476 2.08 0 .8063.158 1.5157.476 2.1284.333.5966.762 1.0562 1.285 1.3787.54.3225 1.111.4837 1.715.4837.619 0 1.198-.1532 1.738-.4595.539-.3225.968-.774 1.285-1.3545.318-.5966.476-1.306.476-2.1284ZM122.81 25.4974c-1.079 0-2.048-.1935-2.905-.5805-.857-.4031-1.539-.9432-2.047-1.6204-.492-.6773-.762-1.427-.81-2.2494h3.357c.064.516.31.9433.738 1.2819.445.3386.992.5079 1.643.5079.635 0 1.127-.129 1.476-.387.365-.258.548-.5885.548-.9916 0-.4354-.222-.7578-.667-.9675-.428-.2257-1.119-.4676-2.071-.7255-.984-.2419-1.794-.4918-2.429-.7498-.619-.258-1.158-.6531-1.619-1.1852-.444-.5321-.666-1.2496-.666-2.1525 0-.7418.206-1.419.619-2.0317.428-.6127 1.032-1.0964 1.809-1.4512.794-.3547 1.722-.5321 2.786-.5321 1.571 0 2.825.4031 3.762 1.2093.936.7901 1.452 1.8624 1.547 3.2168h-3.19c-.048-.5321-.27-.9513-.667-1.2577-.381-.3225-.897-.4837-1.547-.4837-.604 0-1.072.1129-1.405.3386-.318.2258-.476.5402-.476.9433 0 .4515.222.7981.666 1.04.445.2257 1.135.4595 2.072.7014.952.2419 1.738.4918 2.357.7498.619.258 1.15.6611 1.595 1.2093.46.5321.698 1.2416.714 2.1284 0 .774-.214 1.4673-.643 2.08-.412.6127-1.015 1.0965-1.809 1.4512-.778.3386-1.691.5079-2.738.5079Z" fill="#1B1B1F"/>
  <defs>
    <linearGradient id="a" x1=".350586" y1="35.1342" x2="28.8667" y2="35.1342" gradientUnits="userSpaceOnUse">
      <stop stop-color="#FF5601"/>
      <stop offset=".5" stop-color="#FF4000"/>
      <stop offset="1" stop-color="#FF1F01"/>
    </linearGradient>
  </defs>
</svg>
