<svg fill="none" xmlns="http://www.w3.org/2000/svg" viewBox="0 0 278 146">
  <g opacity=".4" fill="#E3E3E8">
    <path d="M111.789 8.48518c.181.72471-2.19 2.41572-3.398 3.17062-1.358 1.3583-2.038 3.624-3.623 4.7563-1.585 1.1324-7.7001 2.4912-10.8706 4.5294-3.1706 2.0383-3.85 5.6618-5.6618 5.8883-1.8118.2265-2.9441-5.4353-2.4912-10.4177.453-4.9823-1.3588-5.4353-2.9441-7.24702-1.5853-1.81177-5.8882.45294-8.8324 1.35882-2.9441.9059-4.5294-.67941-4.5294-1.58529 0-.90588 2.7177-2.26519 5.2089-2.03843 2.4911.22677 14.947-1.81176 16.5323-.67941 1.5853 1.13236 6.3412 2.03794 10.1913 1.81147 3.85-.22647 7.02-1.58529 8.606-1.35882 1.585.22647 1.585.90588 1.812 1.81176ZM110.43 17.9974c-3.397-.2264-2.039 1.1324-4.756 1.3589-.906.9058-1.585 1.1323-.453 3.1705 1.132 2.0383 7.473-1.1323 7.7-1.5853.226-.4529.906-2.7176-2.491-2.9441Z"/>
    <path d="M71.2503 14.8268c6.5676 0 6.1147 4.5295 5.6618 7.7-.6794.6795-2.2647 1.5853-3.85 1.5853-1.5853 0-1.8118-2.2647-4.7559-3.1706-2.9441-.9058-11.0971 3.3971-14.2677 4.7559-3.1706 1.3589-1.8117 3.3971-.9058 4.303.9058.9059 4.9823-1.1324 4.0764 1.1323-.9059 2.2647.453 4.0765 2.4912 4.5294 2.0382.453 3.6235-.6794 4.7559-2.9441 1.1323-2.2647 4.5294-7.9265 5.6618-7.7 1.1323.2265.4529 2.0383 1.5852 2.9441 1.1324.9059 1.1324-1.1323 3.3971-.6794 2.2647.453 1.3588 2.7177 1.1324 3.6236-.2265.9058 3.397 2.7176 2.9441 3.397-.453.6794-.9059 1.1324-1.3589 2.2647-.4529 1.1324 2.2648 1.5853 1.8118 2.0383-.4529.4529-.9059.6794-2.4912.6794-1.5853 0-2.7176-3.1706-4.9823-2.7177-2.2647.453-1.3588 2.4912-1.3588 3.6235 0 1.1324-.9059 1.8118-1.8118 2.4912s-8.8324 4.0765-10.1912 5.4353c-1.3588 1.3588-1.1323 2.7177-1.8117 4.0765-.6795 1.3588-1.8118 1.1323-3.3971 2.0382-1.5853.9059-1.5853.453-1.8118 3.6236-.2264 3.1705-1.8117 3.397-2.4911 3.397-.6795 0-2.7177-2.4912-5.6618-2.9441-2.9441-.4529-4.5294.4529-6.5677 2.2647-2.0382 1.8118-2.0382 7.2471 2.0383 9.2853 3.2612 1.6306 4.9823-.6794 5.4353-2.0382 1.0568 4.3784 4.0311 12.8182 7.4735 11.55 4.3029-1.5853 8.8324-2.0383 11.3235-2.2648 2.4912-.2264 8.3794 4.303 9.5118 4.7559 1.1323.453 3.1706.2265 3.3971.453.2264.2264.4529 3.1706 2.9441 6.1147 2.4911 2.9441 7.0206 2.0382 10.1912 3.1706 3.1705 1.1323 3.1705 5.6617 2.0382 8.3794-1.1324 2.7172-1.8118 8.6062-2.4912 10.6442-.6794 2.038-4.5294 4.529-5.8882 5.435-1.3589.906-2.4912 2.038-2.7177 4.983-.2264 2.944-2.7176 5.888-5.2088 7.926-2.4912 2.038-3.1706 4.756-3.3971 7.7-.2264 2.944 3.6236 7.247 2.4912 8.606-1.1323 1.359-5.6617-.906-9.0588-4.303s-3.6235-15.853-3.85-19.477c-.2265-3.623-.4529-7.247-1.3588-10.644-.9059-3.397-4.9824-5.661-7.0206-7.473-2.0382-1.812-3.1706-5.209-2.7177-9.059.453-3.85 1.5853-8.1529.453-10.6441-1.1324-2.4912-3.85-1.1324-6.1147-3.1706s-2.7177-4.7559-5.6618-6.3412c-2.9441-1.5853-4.7559-.4529-7.9265-2.0382-3.1706-1.5853-2.9441-4.3029-4.0764-8.3794-1.1324-4.0765-5.8883-7.2471-7.2471-9.0588-1.3588-1.8118-2.0382-2.4912-1.3588-8.3794.6794-5.8883 5.2088-7.9265 2.7176-13.3618-2.4911-5.4353-5.4353-3.3971-12.68232-2.0382-7.24706 1.3588-7.926471-.6795-7.24706-2.7177.67941-2.0382 4.75588-2.4912 6.34118-3.85 1.58529-1.3588-.90588-4.3029 7.2471-7.2471 8.1529-2.9441 11.7764.9059 19.0235 1.1324 7.247.2265 9.2853-1.1324 9.0588-2.2647-.2265-1.1324 1.5853-2.0382 4.3029-2.0382 2.7177 0 2.0383 1.5853 3.85 1.5853 1.8118 0 1.5853-.6795 3.1706-.9059 1.5853-.2265.9059.9059 1.1324 1.8117.2265.9059.2265.9059 5.6618.6794 5.4353-.2264 3.85-2.2647 10.4176-2.2647ZM69.2121 11.8827c.6794-1.8117-1.8118-1.5853-2.9441-1.5853-1.3589.453-1.1324 2.7177 0 3.6236 1.1323.9058 2.2647-.2265 2.9441-2.0383ZM62.8709 12.5621c.9059-1.1323-.2265-2.0382-1.1324-2.4911-2.2647 0-1.8117 2.4911-1.8117 3.397 0 .9059 2.0382.2265 2.9441-.9059Z"/>
    <path d="M59.7003 14.6004c-.2265-.6794-1.3588-.453-2.0382-.2265-.9059 2.0382.9058 1.8118 1.8117 1.8118s.453-.9059.2265-1.5853ZM56.5297 11.6563c-.4529-.2265-7.7-.2265-7.9265 0-.2264.9058 5.8883 1.8117 6.3412 1.8117.453 0 2.0383-1.5853 1.5853-1.8117ZM52.4532 64.8768c-.6794-.4529-3.1705-.2264-3.85 0-.9058.453-.4529 1.1324-.2264 1.5853.2264.453 3.397-.2264 4.0764 0 .6795.2265 1.8118 2.2647 2.4912 2.4912.6794.2265.9059 0 1.1324-1.3588.2264-1.3588-2.9441-2.2647-3.6236-2.7177ZM64.9091 68.9533c-1.8117 0-5.6617-.6794-6.3412-.6794-1.3588 0-2.0382 1.1323-1.8117 1.8118.2265.6794 2.2647 0 3.397-.2265 1.1324-.2265 1.8118.4529 3.85.4529 2.0383 0 2.7177-1.3588.9059-1.3588ZM148.024 17.318c1.585-.6794 3.85-4.7559 4.756-5.2088-.227 1.5099-.68 4.8015-.68 5.8885 0 1.3589-3.397 2.9438-5.209 2.2648-1.811-.6791-2.944-3.3971-3.623-3.1706-.679.2264-.227.9055-1.359 2.7176s-3.17 1.3588-4.982 1.132c-1.812-.2267-2.491-3.1702-2.718-4.7555-.226-1.5853-2.265-2.2647-3.17-2.0386-.906.2262-6.795 6.7941-5.436 7.0209 1.359.2268 3.171 1.8118 5.888 3.6236 2.718 1.8117 2.265 3.85 1.812 4.7558-.453.9059-.453.6795-3.397.453-2.944-.2265-4.756-.2265-4.529 4.3029.226 4.5294 3.17 3.6236 6.567 2.9441 3.397-.6794 6.115-5.8882 9.059-6.3411 2.944-.453 3.624 1.3588 5.888 3.397 2.265 2.0383.227 4.0765.68 5.2089.453 1.1323.453.9058 2.718-1.1324 2.264-2.0382.226-6.1147.452-6.1147.227 0 1.359.4529 2.039 1.3588.679.9059.453 1.3588 0 3.1706-.453 1.8118 1.132 3.1706 2.717 2.7177 1.586-.453 2.039-4.0765 2.265-3.6236.227.453.906 3.3971 3.171 4.5294 2.264 1.1324 4.303 0 4.982 1.3589.679 1.3588.453 9.7382.906 11.097.453 1.3588 5.888 12.2294 9.738 14.0412 3.85 1.8118 9.965-3.85 11.324-5.2088 1.358-1.3589 1.811-2.4912 1.811-4.303 0-1.8117-3.17-2.4912-4.755-2.2647-1.586.2265-4.077-1.1323-4.756-2.7176-.68-1.5853-.227-2.7177.679-2.2647.906.4529 5.435 3.1706 8.153 3.85 2.718.6794 5.662.2264 9.059 2.0382 3.397 1.8118 3.397 4.5294 4.756 10.8706 1.359 6.3412 4.076 9.7382 4.529 9.5118.453-.2265 2.038-2.4912 2.491-3.85.453-1.3589.227-4.303.68-5.2089.453-.9059 6.794-6.7941 8.606-6.7941 1.811 0 2.944 3.6235 3.623 4.7559.68 1.1323 5.662 4.3029 5.662 5.2088 0 .9059.226 4.9824 0 7.0206-.227 2.0382 4.303 5.8882 4.982 5.8882.68 0 .453-1.5853.227-3.397-.227-1.8118-2.039-3.3971-2.718-4.5294-.679-1.1324-.906-4.0765 0-3.6236.906.453 3.85 2.4912 4.982 2.4912 1.133 0 1.586-4.3029 0-6.3412-1.585-2.0382-1.811-6.3411-1.132-5.8882.679.4529 5.662.6794 8.379-.4529 2.718-1.1324 2.039-2.9441 2.718-5.6618.68-2.7176-1.359-4.3029-3.623-8.8323-2.265-4.5295.701-5.0352 3.192-4.8087 2.491.2265 2.922 2.0382 3.149 3.3971.226 1.3588.876 3.0474 1.833 2.7176.658-.2265 3.104-.3215 2.945-1.5325-.07-.5248-2.098-1.8314-2.287-2.396-.383-1.141-.743-2.2421 0-2.8128.74-.5689 1.585-1.3589 2.718-4.303 1.132-2.9441-.453-5.4353-2.265-7.7-1.812-2.2647-3.624-1.8117-5.435-3.1706-1.812-1.3588-.453-2.7176.679-3.85.906-.9059 9.889-1.7362 14.268-2.0382.151.9059.453 2.9894.453 4.0765 0 1.3588 4.076 6.3411 4.529 6.3411.453 0 .453-.9058.679-3.85.227-2.9441-2.944-5.4353-2.264-5.8882.679-.4529 2.491 0 4.303-.6794 1.811-.6794-.453-2.2647.679-3.1706 1.132-.9059 3.624-.6794 3.85-1.5853.227-.9059-4.756-2.7176-9.512-3.397-4.756-.6795-16.079-1.5853-18.57-1.5853-2.491 0-7.474-3.17063-10.644-3.3971-3.171-.22647-6.115 0-12.23-.45294s-21.288-5.43529-24.685-5.43529c-3.397 0-7.021 2.49086-9.738 3.84968-2.718 1.35882-9.512 1.35914-13.815 1.58561-4.303.22647-8.379 2.71765-10.644 3.39704-2.265.6794-2.944-3.39736-4.077-4.98265-1.132-1.58529-4.303-1.35882-8.153-1.35882-3.85 0-10.644 6.56767-11.776 7.92647-1.132 1.3588-.679 2.7176.679 2.9441 1.359.2265 1.812-1.3588 3.85-.9059 2.039.453 2.492 3.85 4.077 3.1706Z"/>
    <path d="M260.375 34.2509c-1.087-2.3553-2.286-.604-3.192-.9059-1.133.6794-.68.9586 0 2.5439.679 1.5853.453 4.0765.679 4.9824.227.9059 1.359 1.5853 1.585 2.7176.227 1.1324-.226 2.0383-.906 2.0383-.679 0-1.585 1.1323-2.491 1.3588-.906.2265-1.585 1.5853-2.264 2.7176-.68 1.1324 0 2.2647 1.132 2.7177 1.132.4529 3.171-1.8118 4.303-2.4912 1.132-.6794 2.038-.4529 2.944-.6794.906-.2265.906-1.1324.679-2.0382-.226-.9059-1.358-4.7559-1.358-5.6618 0-.9059 1.585-2.4912 1.811-3.1706.227-.6794.68-2.2647-.453-2.4912-1.132-.2264-1.11 1.3061-2.469-1.638ZM249.03 63.2919c1.585-.9059 0-4.9824-.453-4.9824-1.359 0-2.038 2.2647-2.265 2.9441-.226.6794 1.132 2.9441 2.718 2.0383ZM250.615 68.7272c-.453-2.9442-1.812-2.4912-2.491-2.2648-.453.1294-1.133 1.1324-1.133 2.2648 0 1.1323 2.039 2.2647 2.718 2.7176.68.4529-.226 1.8118 0 2.7176.227.9059 2.038 1.5853.453 2.9442-1.585 1.3588-1.132 2.9441-.453 3.397.68.453.68-.9059 1.359-.6794.679.2265.453.9059 1.359 1.3588.906.453 2.038.2265 2.717-1.5853.68-1.8117-.453-2.2647-.905-2.9441-.453-.6794.226-1.3588-.453-3.397-.68-2.0383-2.718-1.5853-3.171-4.5294ZM246.765 83.4477c.453-1.1323.906-3.6235 0-4.3029-2.038 0-3.624 4.0765-4.529 4.7559-.906.6794-1.133-.2265-3.85 2.7176-2.718 2.9441 2.038 4.5294 4.755 5.4353 2.718.9059 3.624-2.7176 4.077-4.0764.453-1.3589-.906-3.3971-.453-4.5295ZM250.841 86.1654c-.905.2265-.905-.9059-1.358-1.1324-1.133-.6794-1.359.2265-1.359.9059s.679 3.3971 0 3.85c-.68.453-1.585 2.7177-1.359 3.6235.226.9059 1.812.453 3.397 0 1.585-.4529.906-1.5852.906-3.1705 0-1.5853.226-2.2647 1.585-2.7177 1.359-.4529 1.133-1.1323.906-1.5853-.226-.4529-1.812 0-2.718.2265ZM256.956 87.7507c.906-.9059-.226-1.8118-.453-2.0383-.906 0-1.585 1.8118-1.585 2.2648 0 .4529 1.132.6794 2.038-.2265ZM261.033 90.4683c.543-1.8117-.831-2.4157-1.586-2.4911-1.585.9058-.453 2.0382-.679 2.4911-.227.453-.679.2265-2.265 0-1.585-.2264-2.717.453-2.944 1.3589-.226.9058 3.171.6794 4.53.6794 1.358 0 2.264.2264 2.944-2.0383ZM268.053 90.4683c-.906-.4529-3.85.2265-4.756.453-.679.1606-1.132.9059-1.358 1.5853-.227.6794.452.9058 1.585 1.3588 1.132.4529.679 1.8118.679 2.7176 0 .9059.68 1.1324 2.491 1.5853 1.812.453 2.945-.6794 4.756 0 1.812.6794 3.397 3.1707 5.209 3.1707 1.812 0-1.812-3.1707-2.491-3.8501-.679-.6794-.227-.9059-.679-2.9441-.453-2.0382-2.039-1.1324-2.718-1.3588-.68-.2265-1.812-2.2647-2.718-2.7177ZM251.521 98.6213c1.132-.453 2.491-1.5853 2.491-2.0383 0-.9058-1.132-.4529-1.812-.2264-.679.2264-2.491.2264-4.076 0-1.585-.2265-2.718-.453-3.397.2264-.68.6795 2.944 2.4912 4.756 3.1706 1.811.6794.906-.6794 2.038-1.1323ZM238.386 93.6389c3.623 1.5853 4.755 2.7177 4.755 2.9441-.679.6795-2.491-.2264-4.982-.6794-2.491-.4529-4.303-1.8117-5.662-3.397-1.358-1.5853-3.623-4.5294-5.208-7.4736-1.586-2.9441-1.133-3.85 0-4.0764 1.132-.2265 2.038 2.4911 2.944 3.85.906 1.3588 2.491 1.5853 3.397 2.7176.906 1.1324 0 1.8118.226 3.1706.227 1.3588.906 1.3588 4.53 2.9441ZM212.341 76.4272c.453-1.8118-.226-2.2648-.905-2.7177-1.586.4529-2.039 2.9441-2.039 4.0765 0 1.1323.68.9059 1.812 1.1323 1.132.2265.68-.6794 1.132-2.4911ZM273.489 117.192c.452-5.209-4.53-15.174-4.53-16.306-.981 2.567-3.442 7.609-5.435 7.247-2.491-.453-4.756-6.794-6.568-6.794-1.812 0-2.944 2.718-4.303 3.171-1.359.452-2.944-.68-4.076 0-1.133.679-1.586 3.623-2.718 4.529-1.132.906-5.435.679-8.153 3.623-2.717 2.945-4.303 13.815-2.944 13.815s11.55-4.982 16.759-2.491.679 2.944 6.568 7.474c5.888 4.529 14.947-9.059 15.4-14.268ZM174.068 1.01245c2.265-1.358819 6.568-.452937 6.794-.226466-.453.905576-2.718 1.132666-4.982 2.038546-2.265.90588-1.359 2.71702-1.812 2.94412-.453.22709-1.132-.2271-1.585-.67942-.453-.45231-1.586-.45294-2.265-.9065-.679-.45308 1.58-1.80851 3.843-3.16586l.007-.00442ZM159.121 43.1363c1.132-1.3588-1.585-2.718-2.491-2.718-.68 0-1.133.6798-1.133 1.5856 0 .9059 2.492 2.4912 3.624 1.1324ZM180.183 76.4272c2.944-3.6236.679-5.8883.679-6.5674-.251-.6794-3.85.6794-7.247 0s-2.944-2.9444-4.756-5.8882c-1.812-2.9438-4.076-13.815-6.794-16.5324-2.718-2.7173-6.568-2.0382-8.153-1.8117-1.585.2264-2.718 2.0382-5.209 2.2647-2.491.2264-3.623-2.9441-3.85-4.7559-.226-1.8118-.226-3.85-2.264-5.4353-2.039-1.5853-5.209.6791-9.059 1.5853-3.85.9062-2.944.2262-5.436 1.132-2.491.9059-4.303 4.7562-5.888 6.115-1.585 1.3589-2.944.6795-4.529 2.4912-1.586 1.8118-2.491 7.4736-1.586 14.9471.906 7.4735 5.436 9.2853 10.871 9.7379 5.435.4526 5.888-2.7173 7.474-2.4909 1.585.2265 2.944 2.4909 4.303 2.4909 1.358 0 1.132 0 2.264.6797 1.133.6798.227 4.7559.68 6.3412.453 1.5853.453 1.5853 1.585 3.3971 1.132 1.8117.679 5.8882.226 7.7-.453 1.8117-2.491 8.1529-1.358 9.7385 1.132 1.585 3.397 10.417 3.85 13.135.453 2.718-.68 3.624 3.397 6.341 4.076 2.718 14.267-10.87 14.947-12.229.679-1.359-.68-2.265 0-4.53.679-2.264 4.303-4.7555 4.529-6.1144.227-1.3588 0-6.3411 1.132-9.9647 1.133-3.6235 7.248-8.1532 10.192-11.7767Z"/>
  </g>
  <circle cx="138.428" cy="65.751" r="11.5" fill="#fff"/>
  <path fill-rule="evenodd" clip-rule="evenodd" d="M140.591 102.968c-.477.409-1.07.616-1.663.616s-1.186-.207-1.664-.616c-.871-.748-21.336-18.5401-21.336-37.6071 0-12.742 10.317-23.1099 23-23.1099s23 10.3679 23 23.1099c0 19.067-20.465 36.8591-21.337 37.6071Zm-1.663-27.3069c-5.638 0-10.222-4.5846-10.222-10.2222 0-5.635 4.584-10.2222 10.222-10.2222 5.637 0 10.222 4.5872 10.222 10.2222 0 5.6376-4.585 10.2222-10.222 10.2222Z" fill="#7267DC"/>
</svg>
