<svg xmlns="http://www.w3.org/2000/svg" fill="none" viewBox="0 0 236 141">
  <path d="M56.9585 20.9355c-.1835-.1835-.9174-1.1927-1.232-.8781-.2228.0524-1.1402.9698-.8781 1.232.0525.2228.9699 1.1402 1.232.8781.2228-.0524 1.1402-.9699.8781-1.232ZM120.72 55.9552c-.171-.1704-.747-.983-1.049-.6947-.21.0525-.93.7995-.694 1.0485.052.2097.799.9306 1.048.6947.21-.0525.931-.7995.695-1.0485ZM205.517 52.3252c-.197-.1966-1.022-1.2975-1.337-.9829-.236.0655-1.31 1.1271-1.048 1.4023.065.2228 1.074 1.2451 1.337.983.235-.0655 1.31-1.1271 1.048-1.4024ZM178.833 81.6568c.196.1966 1.048 1.3368 1.363 1.0091.236-.0655 1.284-1.1009 1.009-1.363-.066-.2359-1.101-1.2844-1.363-1.0092-.236.0656-1.284 1.101-1.009 1.3631ZM204.547 121.604c.196.197 1.022 1.298 1.337.983.235-.065 1.31-1.127 1.048-1.402-.065-.223-1.075-1.245-1.337-.983-.236.065-1.31 1.127-1.048 1.402ZM222.765 118c.196.196 1.022 1.297 1.336.983.236-.066 1.311-1.127 1.049-1.403-.066-.222-1.075-1.245-1.337-.983-.236.066-1.311 1.127-1.048 1.403ZM192.175 81.0013c-.275-.2752-1.337.8126-1.402 1.0485-.263.2621.747 1.2713.983 1.3369.275.2752 1.336-.8126 1.402-1.0485.314-.3146-.786-1.1403-.983-1.3369ZM119.881 40.5946c-.158.1572-.905.6815-.616.9698.039.2097.734.8519.97.616 1.402-.3145.026-1.9659-.354-1.5858Z" fill="#FDF1DC" stroke="#000" stroke-width=".982962" stroke-miterlimit="10"/>
  <path d="M215.149 27.9348c-1.494 0-1.939-2.228-3.551-2.228h-11.586c-1.075 0-2.333.1835-3.395 0-1.651 0-2.162-2.6999-3.879-2.6999h-5.636c-1.206 0-2.962.367-3.919-.5635-.681-.6684-1.376-1.3369-2.057-2.0053-.511-.498-1.193-1.4417-1.979-1.4417-1.534-.249-8.375-.4718-9.227.3801l-7.038 7.038c-.917.9175-3.67.3801-4.81.3801h-2.228c-.786 0-1.337.7602-1.835 1.2713-.537.5374-1.061 1.2582-1.691 1.6907-.537.5374-1.572.3539-2.254.3539h-3.224c-.681 0-1.717-.1835-2.254.3538-1.442.9699-1.77 2.4116-3.683 2.4116h-2.87c-.944 0-1.468-.7471-2.084-1.3631-.275-.2752-.865-.7077-.433-1.1402.184-.3539.761-.6291 1.127-.6291.263-.0524 1.626.2097 1.324-.4325-.183-.3801-.668-.7208-.957-1.0092-.576-.5635-1.087-1.2844-1.965-1.2844-.8 0-2.281.2884-2.91-.3539-.642-.4587-.904-1.2057-1.809-1.2057h-2.988c-1.428 0-2.071.9961-3.014 1.9397-1.521 1.5203-3.054 3.0537-4.574 4.574-1.075 1.0747-1.626 1.5728-1.626 3.1586v2.5819c0 .5898.97 1.9135 1.639 1.9135.301.0787.668-.0786.983 0 .537 0 .721.7078 1.284.7078.695.1573 2.018.1179 2.543-.4063.629-.6291 1.061-1.0616 1.061-1.9922 0-.8387-.157-1.8217 0-2.6474 0-.8388 1.088-1.5858 1.612-2.1101.656-.6553 1.298-1.481 2.346-1.1664 2.923.8519-.956 2.6998-.956 4.0367 0 1.3368.537 3.8794-.459 4.8623-.524.5243-1.049 1.232-1.665 1.6645-.563.5636-1.717.3539-2.424.3539-1.403 0-3.277-.4063-4.338.6553-1.429 1.4286-2.871 2.8703-4.299 4.2988-.341.3408-.8.6815-1.075 1.0747-.681.6815-.196 1.8218-.354 2.6606 0 2.6212-3.46.6946-4.456 1.6907-.694.4063-.76 1.0354-.76 1.73 0 .3932-.249 2.3198.079 2.5688.589.4587.825 1.0223 1.638 1.0223.812 0 1.874.249 2.477-.3539.262-.2621.681-.5505.826-.9043.183-.4325-.118-.9437.249-1.3106.642-.6422 1.271-1.2713 1.913-1.9135.721-.7209 1.625-.1835 2.425-.616.721-.3932 1.061-1.4679 1.9-.6291.695.6946 1.389 1.3892 2.071 2.0708.144.1441.432.6553.708 1.7562.078 0-.105 1.3761.065 1.4417.184.0786.957-.8782 1.075-1.0092.341-.3408.262-1.1796.485-1.35.131-.1048.694.1049.694-.3931 0-.1311-.602-.7078-.602-.7078.013-.0131-1.573-1.5858-1.652-1.6645-.406-.4062-1.651-1.245-1.009-1.8872.878-.8781 1.245-.3539 1.966.38.655.6554 1.311 1.3107 1.979 1.9791.642.6422.498 1.5072.498 2.3329 0 .3407 1.035 2.1887 1.507 1.7169.787-.2228.328-1.5728 1.18-1.9266.563-.2359 1.717-.3277 1.717-1.2582.078-.3146-.079-.6815.052-.9961.131-.3145.498-.5767.734-.8126.354-.3538 1.245-1.6382 1.73-1.73.328-.3276 1.468 1.35 2.294.5243.76-.4325.786-1.0616 1.756-1.0616s1.284.3407 1.992 1.0485c.511.5111 1.245.9698 1.245 1.7431 0 .7077-.026 2.1363-1.114 2.1363-.708.1966-1.704 0-2.425 0-.825 0-1.035-1.114-1.821-1.114-.669 0-1.363-.1573-1.861.3538-.708.7078-1.416 1.4155-2.11 2.1101-.394.3932-.407 1.4417 0 1.848.72.7208 1.389.5635 2.372.5635 2.333 0 2.398 1.9791 2.398 3.7877 0 .9437-3.932.7602-4.626.367-.787-.4325-.996-1.114-2.019-1.114-.812 0-2.084-.249-2.726.3932-.524.5242-1.14 1.4285-1.979 1.4285-.786 0-2.175.2622-2.804-.3538-.616-.4325-1.154-1.1534-1.678-1.6776-.76-.7602-.144-1.8611-.904-2.6213-.603-.6028-1.481-.4456-2.255-.4456-.773 0-1.979-.2228-2.713.1704-.707.3932-1.087 1.2713-1.795 1.6514-.747.4063-1.966.1704-2.792.1704-1.35 0-3.119 2.1363-3.119 3.3945 0 1.9004-1.271 2.6867-2.556 3.9842-.891.8913-2.765 2.1232-2.765 3.5256v5.3211c0 1.2582 2.123 2.6868 2.896 3.46.721.7209 1.429 1.4286 2.15 2.1494.445.4456.943 1.1403 1.638 1.1403 1.284.2359 3.604.3145 4.574-.6553.655-.6553 1.101-1.2058 2.084-1.2058.865 0 1.979-.2228 2.647.4587 1.114 1.1402 2.032 1.8087 2.032 3.4338v6.173c0 1.0092-.472 3.5256.354 4.3513.406.6029 1.179.9567 1.533 1.5989.275.5112.17 1.2189.17 1.7693v6.3173c0 1.586.132 2.215 1.285 3.355.983.983 2.136 2.779 3.643 2.779h5.623c1.429 0 2.713-1.966 3.63-2.897.512-.511.433-1.166.433-1.822v-3.289c0-1.625 1.756-2.753 2.831-3.814.459-.4589 1.14-.9569 1.14-1.6777v-2.8048c0-.747.079-1.4154-.498-1.9921-.695-.6946-1.337-1.1664-1.337-2.2149 0-.7602-.17-1.7038.42-2.2936.707-.7077 1.415-1.4155 2.11-2.1101.55-.5505 1.114-1.363 1.966-1.363.969 0 1.73-1.1272 2.346-1.7432.642-.6422 1.35-1.1402 1.35-2.1232 0-.3538.262-2.7654-.105-2.9095-.341-.1442-1.652 1.5072-1.875 1.73-.694.6946-1.494.5767-2.411.5767-1.494 0-3.041-2.346-3.997-3.2897-.446-.4456-1.088-.9174-1.088-1.612v-2.7392c0-1.4155-2.333-2.962-3.237-3.8664-.564-.5635-.498-1.2057-.498-1.9397 0-.7863-.276-2.2542.34-2.8964.656-.865 1.56-.4587 1.848.5111.249.8519.053 1.9659.053 2.8309 0 1.7432 1.756 2.3198 2.634 3.6042 1.206 1.2058-.433 3.6173.813 4.8624.537.5374 1.087 1.3238 1.756 1.6776.629.3408 2.018.3277 2.7.1311.563-.1704.996-.7471 1.402-1.1534.8-.7994 1.612-1.612 2.412-2.4115 1.114-1.114 2.568-2.0577 2.241-3.8532 0-2.2543-3.08-1.3631-4.129-2.4115-.681-.6816-1.363-1.3631-2.044-2.0446-.249-.249-.642-.6029-.262-.983.17-.38.917-.9436 1.284-.5766.59.249 1.206 1.2057 1.664 1.6644.616.6029 1.822.3801 2.596.3801.773 0 1.756-.1835 2.359.4194.72.7209 1.31.7209 2.28.7209h2.648c.851 0 1.559 1.0222 2.083 1.5596.512.5111 1.18.983 1.18 1.7824v3.0144c0 .6685-.105 1.3762.419 1.9004.682.6816 1.377 1.3762 2.058 2.0577.616.616.97 1.0747 1.717.3277.799-.7995.695-1.5466.695-2.6082 0-1.6251 2.07-2.962 3.119-4.0105.445-.4456.904-1.0878 1.455-1.3892.655-.367 2.372-.3801 2.922.1835.642.4325 1.18 1.1795 1.73 1.73.184.1835.38.4587.603.6029.472.4718.957.2359 1.494.3538.721 0 1.258.7602 1.717 1.2189.813.8126 1.612 1.6121 2.425 2.4247.524.5242.943 1.1664 1.651.4587.629-.6291.97-2.0708.236-2.7916-.38-.5374-1.664-1.1272-.917-1.8742.563-.5636 1.284-1.6383 2.175-1.6383 1.494 0 2.988.3277 4.103-.7995 1.389-1.3892 2.778-2.7785 4.167-4.1677.813-.8126 1.232-3.329.315-4.2333-1.232-1.232-2.464-2.464-3.683-3.6828-.799-.7995 2.346-3.7353 2.936-3.1586.55.249 1.127 1.1271 1.546 1.5465.38.3801 1.285 1.7038 1.914 1.7038.59 0 1.743-1.3368 1.245-1.8349-.642-.6422-1.376-1.114-.577-1.9266.538-.5373 1.088-1.2975 1.73-1.73.76-.747 1.94 0 2.713-.7732.891-.8913 2.949-2.2412 2.949-3.6305v-2.7916c0-.7077.21-1.9135-.354-2.477-.485-.6947-1.389-1.0092-1.389-1.9791 0-1.1402.301-1.5989 1.075-2.3722.511-.5111 1.179-1.4679 1.992-1.4679h2.385c1.494 0 3.801.4981 4.954-.6553.695-.6946 1.154-1.0091 2.163-1.0091 1.166 0 1.415.1441 1.415 1.3237 0 .8519.066 1.5203-.576 2.1625-.564.5636-1.77 1.3892-1.77 2.2674-.275 1.4678 0 3.2241 0 4.7182 0 .6029.931 1.9397 1.586 1.2844.695-.6946 1.402-1.4024 2.097-2.097.485-.4849 1.35-1.1009 1.35-1.8611.105-.6422 0-1.4023 0-2.0445v-3.1324c0-.6815-.118-1.4679.406-1.9922.656-.6553 1.101-.996 2.045-.996.786 0 2.11.249 2.726-.367.839-.8388 3.145-2.3853 3.145-3.6959 0-.3277 0-2.1232-.039-2.4116-.013-.1179-1.809-1.5072-2.097-1.5072h-8.047l.052.0393ZM61.3617 36.4014c.2228-.2359 1.73-1.4024 1.3893-1.7431-.0524-.2622-1.4679-1.6645-1.7431-1.3893-.2622.0524-1.6645 1.4679-1.3893 1.7431.0524.2621 1.4679 1.6645 1.7431 1.3893ZM63.2093 20.5689c.4456-.4457 1.0485-.8782 1.4024-1.4024.5636-.5636.3539-1.7169.3539-2.4378 0-.8125.8257-1.3892 1.3499-1.9135.6422-.6422 1.4286-.2621 2.1887-.4062.8126 0 1.481-.983 2.0053-1.4941.5242-.5243-.1704-.485-.5636-.485h-5.3866c-1.0878 0-2.4247-.2752-3.2504.5636-1.1533 1.1533-2.2935 2.2936-3.4469 3.4469-1.2975 1.2975.0524 3.0144.983 3.945.7995.7994 3.4731 1.0616 4.3512.1835h.0131ZM51.1653 20.7652l2.3329-2.1756c.2228-.2097 2.3853-1.8611 2.2412-2.228-.1442-.367-2.8179-.1049-3.1455-.1049-.9961 0-2.097-.2228-2.8572.5374-.5242.5242-2.4901 1.8741-1.7038 2.6605.7471.7471 1.966 2.3984 3.1455 1.2975l-.0131.0131ZM43.3932 25.4309c1.0878 1.0878 1.73 2.0314 3.3289 2.0314h2.6344c.8519 0 1.2844-.5635 1.848-1.1271.7863-.7864-1.8873-2.7523-2.6606-2.7523-1.1664 0-3.827.5243-4.7444-.3801-.4718-.4718-.9437-1.114-1.4941-1.4941-.5112-.5111-1.4679-.3538-2.1232-.3538h-2.5295c-.8388 0-1.3762.7732-1.9135 1.3106-.6815.6815.3407 1.3237.8126 1.7955.5504.5505 1.0485.616 1.7824.616h2.8571c.6685 0 1.6776-.1704 2.2019.3539ZM51.7153 23.6752c.2228.2228 1.4024 1.73 1.7431 1.3893.2621-.0525 1.6645-1.4679 1.3893-1.7432-.0525-.2621-1.4679-1.6644-1.7432-1.3892-.2621.0524-1.6644 1.4679-1.3892 1.7431ZM73.0523 28.8389c-1.1402-1.1403-2.2674-2.2674-3.4076-3.4076-.7602-.7602-2.1363-2.7917-3.3683-2.7917H61.034c-.8782 0-3.5911 2.215-2.7785 3.0145l1.7431 1.7431c.5766.5767 1.8086.3801 2.5688.3801.7601 0 1.9659-.2228 2.5426.3538.8126.5636.9829 1.2975.9829 2.215 0 .7863-.2359 1.6776.3539 2.2673.5111.6291 1.1796 1.1796 1.7562 1.7563 1.1534 1.1533 2.5819 2.6867 4.4299 1.6775 1.4548-.7994.7733-2.6343-.1048-3.5124-.4456-.4456-.5505-1.2713-.367-1.8611.1442-.498 1.4155-1.3106.8912-1.8479v.0131ZM101.807 22.0629c.603-.6029 1.101-1.1534.944-2.0708 0-.6029-.446-.7864-.721-1.2189-.446-.4456-.354-1.0878-.354-1.6513 0-1.7038 2.608-2.3723 3.054-3.8926.236-.8257-.039-1.363-.865-1.363h-3.146c-.616 0-1.3233.1048-1.9262 0-.9043 0-1.7824-1.2451-2.3329-1.8349-.8519-.9174-3.2503-.58975-4.6003-.58975-1.1926 0-4.1677-.13106-4.7444.44561-1.1402 1.15334-1.8873 2.26734-3.578 2.26734h-5.7274c-1.4285 0-2.7523 2.0315-3.6697 2.9489-.6029.6029-1.1927.6029-1.9921.6029-1.0616 0-1.5203.3801-2.2412 1.114-.5636.5636.734 1.6907 1.2189 1.9528.6946.3801 1.8217.1704 2.5819.1704 1.9266 0 3.1062-.1442 4.5478 1.2844 1.0616 1.0616 2.4902 2.097 3.329 3.329.5374.5373.3539 1.5858.3539 2.2542v2.9358c0 .8912.747 1.1534 1.1926 1.7825.6422.6422.3539 2.1232.3539 2.9226 0 1.5597 2.0839 2.9227 3.093 3.9319.7078.7077 1.9922 1.0485 2.9358.5242 1.2713-.6946 1.1272-1.9659 1.1272-3.1979 0-1.0616.6684-1.5334 1.363-2.228.8912-.8912 1.7955-1.7956 2.6868-2.6868.7339-.7339 1.7693-.5504 2.7392-.5504 1.2844 0 1.8348-.1704 2.7522-1.0879.865-.865 1.284-1.3499 1.284-2.6081 0-.8912-.367-2.7916.354-3.5124l-.013.0262Z" fill="#FDF1DC" stroke="#000" stroke-width=".982962" stroke-miterlimit="10"/>
  <path d="M111.441 42.6001c.59.5898 1.022 1.3893.655 2.2805-.078.1966-1.966 1.8742-1.166 2.2018.223.0918.839-.9043 1.232-.9043.55-.1572 1.232.1704 1.782-.0524 1.14-.4718 1.363-1.7955.538-2.5819-.512-.4849-1.023-.983-1.521-1.4679-.76-.734.354-.8912.354-1.4941 0-.6553-1.009-.4849-1.311-.7995-.366-.2621-.38-1.3761-.511-1.4286-.131-.0524-.681.5636-.734.6685-.249.249-.262 1.0222-.183 1.3368 0 .4587.498.6029.655.983.171.4062-.118.9174.236 1.2712l-.026-.0131ZM202.004 57.6855c-.38.3801-.918 1.1927-1.507 1.1927-.59 0-1.468-.1966-1.914.3277-.367.4325-3.25 3.2241-3.067 3.6435.105.2228 1.573.0524 1.809.0524.498 0 .917-.616 1.232-.9305.537-.5374 1.088-1.0879 1.625-1.6252.485-.4849 1.127-.1049 1.704-.249.563 0 1.179-.9306 1.533-1.2844.459-.4587.42-.8257.42-1.4417 0-.4849.209-1.5858-.184-1.979-.092-.1835-1.271-1.4417-1.442-1.3631-.576.2359.367 3.0669-.235 3.6566h.026ZM178.99 84.9985c-.826-.8388-1.639-1.6776-2.464-2.5164-.223-.2228-2.097-2.4901-2.399-2.3722-.38.1573-.052 2.3722.262 2.6737.931.9043 1.861 1.8086 2.792 2.7129.826.7995.223 1.5466.524 2.5426 0 .4457 2.005 2.5557 2.267 2.4378.328-.1311.079-2.3591-.209-2.6475-.42-.4194-.59-.6553-.59-1.245 0-.4194.157-1.232-.17-1.5859h-.013ZM142.672 103.452c-.406.406-.183 1.56-.183 2.071 0 .681.668 1.114 1.114 1.559.852.852 3.093-.367 3.093-1.468.301-1.127 0-2.765 0-3.931 0-.38.327-3.7226-.105-3.9061-.341-.1441-2.399 2.1757-2.569 2.5821-.223.537.118 1.219-.105 1.756-.209.511-.878.957-1.258 1.337h.013ZM190.707 91.6827c.34-.3408 1.625-1.2189 1.625-1.73 0-.3539-1.612-1.9266-1.888-1.6383-.275.0524-1.625 1.4155-1.625 1.73 0 .3539 1.612 1.9266 1.888 1.6383ZM199.146 89.6117c1.101 0 1.193 1.4286 1.193 2.1626 0 1.0747-.144 2.11.97 2.726.747.7471 2.097 0 2.634-.5504.328-.3277.97-.6029 1.39-.1966.183.1048.786 1.0354 1.009.9436.209-.0917.052-1.5596.052-1.7955 0-.5243-.694-.9961-1.022-1.3237-.406-.4063-.891-1.1403-1.442-1.3631-.55-.2228-1.337.2097-1.795-.2621-.787-.8257-1.468-2.0183-2.674-2.0183-.472 0-4.024-.3408-4.207.1048-.131.3146 1.415 1.5727 1.769 1.5727.616.1704 1.481 0 2.137 0h-.014ZM217.47 123.505c.196.196 1.022 1.297 1.337.983.314-.066.851-.852 1.074-1.075.289-.288 2.988-2.608 2.622-2.975-.066-.223-1.075-1.245-1.337-.983-.315.065-.852.852-1.075 1.074-.288.289-2.988 2.609-2.621 2.976ZM187.928 94.5399c-.917-.9174-1.848-1.848-2.765-2.7654-.184-.1835-.616-.8126-.918-.8126-.301 0-1.35 1.0485-1.074 1.3237.065.2622.72.7209.904.9044.616.6159 1.245 1.2451 1.861 1.861.183.1835.616.8126.917.8126.302 0 1.35-1.0485 1.075-1.3237ZM187.207 80.2545c0 .9699.079 1.5073-.616 2.2019-.511.5111-1.547 2.0576-2.359 2.0576-.38 0-1.219-.1703-1.547 0-.511 0-.354.5636-.354.9437 0 1.1009.381 2.7654 1.835 2.7654.983 0 1.901.2228 2.622-.5111.524-.5243 1.952-1.4679 1.952-2.3067V81.919c0-.3932-1.376-2.0839-1.507-1.9528 0 .0918-.013.1704 0 .2621l-.026.0262ZM110.339 44.5139c0-.6029.315-1.7825-.511-1.7825-.734 0-2.084.367-2.084 1.3631-.17.6291-.236 1.9004.551 1.9004.707 0 2.044-.5898 2.044-1.481ZM204.154 99.8739c-.42-.4194-.039-1.1927-.184-1.6907 0-.2883-.93-1.481-1.245-1.3499-.327.1441-.105 2.1101-.105 2.3853 0 .7339.197 1.6644-.537 2.1104-.852.852-3.381-1.6517-3.381-2.4774 0-.616-.38-1.8349-1.193-1.8349-.878-.2228-1.494.7078-2.018 1.2451-.695.6947-.8.9306-1.547.1966-.747-.7339-1.245.249-1.848.8519-.59.5898-.445 1.2587-.445 2.0447 0 .878-.682 1.31-1.285 1.9-1.075 1.075-3.054-.288-4.089.747-.511.511-1.193.944-1.193 1.717 0 .774-.222 1.888 0 2.621 0 .721 1.075.918 1.075 1.678v3.001c0 .826.092 1.101.682 1.704.812.813.904-.223 1.638-.616.55-.55 1.664.197 2.215-.354.616-.34.865-1.271 1.664-1.271.721 0 1.691-.183 2.386 0 .734 0 1.192 1.193 1.756 1.507.603.603 1.533.04 1.979-.406.708-.708 1.101-1.612 1.94-.76 1.1 1.101-.407 3.368.616 4.39.406.407 1.1 1.455 1.743 1.455h2.804c.551 0 1.363-.786 1.612-1.232.485-.485.184-2.058.184-2.66 0-1.481 1.953-1.835 1.953-3.264v-3.932c0-.865-1.193-1.638-1.743-2.188-.695-.695-2.071-1.612-2.464-2.543-.197-.485-.053-1.219-.053-1.73 0-.511-.616-.917-.943-1.2451h.026ZM77.6135 83.2559c-1.6252 0-2.1232-2.6081-3.8532-2.6081h-5.7536c-.2228 0-.4587-.0131-.6815.0524-.4063.118-.8257.7602-1.2844.6422-.4457-.1179-.9044-.7732-1.1927-1.0615-1.5203-1.481-3.0537-2.962-4.5741-4.443-.3669-.3539-.7339-.7209-1.114-1.0747-.498-.485-.0786-2.1495-.9043-2.1495-1.3761 0-4.2595.4588-4.2595-1.7169 0-1.612-.5111-3.9318 1.1927-4.8623.6159-.3408 1.5596-.1704 2.228-.1704h2.8965c1.1795 0 2.962 3.4469 3.8663 1.4154.5767-.5766-1.0747-1.7824-1.4024-2.1232-.747-.747-.7077-1.4285-.7077-2.4377 0-1.6121 2.1625-2.5295 2.9882-3.7222.7339-.7339.0655-1.9135.5373-2.7522.3277-.5898 1.0092-1.0748 1.4679-1.5466.7471-.747 1.481-1.481 2.2281-2.228.4849-.485 1.1402-.9568 1.1402-1.7169 0-.9306-.0655-1.6252.6422-2.3198.6946-.6947 1.1403-1.1665 2.1625-1.1665 1.8611 0 3.5125.0656 4.5479-1.8086.3014-.5636.2883-1.73.1704-2.346 0-.7471-.8651-1.3631-1.3369-1.8349l-2.2018-2.2018c-.4587-.4587-.9699-1.1665-1.6907-1.1665h-4.8755c-.8257 0-1.481.9568-1.9921 1.4679-.6553.6553-.6029 1.2975-.6029 2.1625v2.6606c0 .5373-1.1534 2.2674-1.8218 1.6383-.3145-.1311-.6553-.6291-.9043-.865-.7601-.7209-1.5203-1.4548-2.2936-2.1757-1.3368-1.2713-2.6867-2.5557-4.0236-3.827-.9043-.865-.7863-3.0144.0656-3.8663 1.0616-1.0616 3.1323-2.3984 3.1323-4.0236 0-.7863.1835-1.7693-.4325-2.3853-.6815-.6815-1.363-1.363-2.0445-2.0446-.865-.865-.7078.6029-.7078 1.1796 0 .8912-.6684 2.1232-1.73 2.1232-1.4679.2752-3.2503 0-4.7444 0h-3.0013c-.5636 0-1.2844.1048-1.8087-.1704-1.2582-.6815-1.9397-2.7523-3.5255-2.7523h-5.7929c-.4981 0-1.0747-.0917-1.5597 0-1.1009 0-1.4941 1.4286-2.477 1.7169-2.1363.6291-3.2504-.7208-4.6003-2.0707-1.0878-1.0879-2.3329-.8257-3.8008-.8257h-6.2909c-.5636 0-1.2058-.0787-1.6645.3407-.5767.367-1.7431 1.3631-1.7431 2.1101-.3015 1.6121 0 3.5256 0 5.1638 0 1.6383-1.5597 2.6213-2.6475 3.7091-.91742.9174 1.8742 2.9096 2.5164 3.5649 1.3892 1.3892 3.1848-.2228 4.1284-1.1796.8781-.8781 2.346-3.093 3.7353-3.093h5.5701c1.2451 0 1.9659 1.0878 2.7916 1.9135 1.5597 1.5596 3.1193 3.1192 4.6789 4.6789.6684.6684 2.0708 1.6251 2.0708 2.6867v11.1927c0 1.1009-.1966 2.4115 0 3.5124 0 1.1796 2.1494 2.6475 2.8702 3.3683l4.3251 4.325c.3407.3408.7732.9568 1.2844.4457.7077-.7078.7339-1.0485.0524-1.717-1.3368-1.3368-2.6606-2.6605-3.9974-3.9973-.4849-.485.3015-1.6514.9568-1.6514.4456 0 .9829.7733 1.2451 1.0354l4.5216 4.5216c.9567.9568 2.0183 1.6383 2.0183 3.08 0 1.7431-.3932 3.4338.9044 4.7313.6422.6422 1.2712 1.2713 1.9135 1.9135.6028.6029 1.5989.4325 2.3722.4325.5897 0 1.6907-.1966 2.1887.2097.4194.3407.7995.7732 1.1796 1.1664 1.5203 1.5203 3.0275 3.0275 4.5478 4.5479.4718.4718.9436.9436 1.4155 1.4154.6291.6291-.2884 1.232-.7209 1.6514-.5242.5243-1.5727 1.2451-1.5727 2.0708-.1049.5635 0 1.2451 0 1.8217v5.7405c0 1.2975 2.0707 2.6999 2.8833 3.5125.7733.7733 2.6868 2.0579 2.6868 3.3029v15.085c0 .773-.7077 1.271-1.1927 1.756-.5504.551-.6553 1.049-.6553 1.796v6.002c0 1.56 1.6121 2.582 2.6344 3.618.4718.472 1.0616 1.31 1.8086 1.31.3932.079.8781 0 1.2713 0 .5767 0 2.0053.262 2.4771-.078.3538-.262-1.3237-1.717-1.481-1.874-.5636-.564-1.1665-1.023-1.1665-1.888 0-1.192-.5242-3.814.4194-4.757 2.5033-2.504 5.0066-5.007 7.5099-7.51 1.1664-1.167-.1311-3.093.9567-4.181 1.232-1.232 2.4771-2.477 3.709-3.709.5898-.59 1.3369-.472 2.097-.472 1.0223 0 1.6383 0 2.3985-.76.5111-.511 1.3106-1.062 1.3106-1.861v-5.4916c0-.6422-.118-1.4155.3801-1.9135.5897-.5898 1.1926-1.1926 1.7824-1.7824.5767-.5767.3801-1.6776.3801-2.4247 0-.7863.2228-1.9659-.1704-2.6867-.249-.4456-.7602-.8257-1.114-1.1796-1.5466-1.5465-3.0931-3.093-4.6396-4.6396-1.0747-1.0747-1.6252-1.4285-3.1717-1.4285h-5.3342v-.0525ZM103.525 34.4484c.616-.616 1.966-1.35 1.166-2.1363-.314-.3146-.668-.8519-1.166-.8519-.498 0-1.481-.2097-1.861.1834-.433.236-.826.8257-1.18 1.1796-.472.4718-.5765.6029-.065 1.114.603.6029 2.333 1.2975 3.106.5243v-.0131Z" fill="#FDF1DC" stroke="#000" stroke-width=".982962" stroke-miterlimit="10"/>
  <path d="M128.635 32.5219c-16.015-7.2215-31.4543 6.3434-31.4543 21.8217l5.3993-.5111c0 2.228.564 4.4168 1.639 6.3696l14.403 35.4391h.577l5.898.0131c.419 0 .799-.2229.996-.5898l18.781-34.561c1.18-2.1494 1.809-4.5609 1.809-7.0118 0-8.1913-5.033-15.0983-18.048-20.9698Z" fill="#FD4301" stroke="#000" stroke-width=".982962" stroke-miterlimit="10"/>
  <path d="M139.278 59.0614c1.088-1.9921 1.664-4.2202 1.664-6.4875v-1.0485c0-7.7458-4.246-14.9804-11.205-18.3749-16.566-8.0733-32.9099 3.7746-32.9099 19.4496v.3276c0 2.0446.5243 4.0499 1.5072 5.8454l20.1177 36.5793c.184.3407.682.3407.865 0l19.948-36.2779.013-.0131Z" fill="url(#a)" stroke="#000" stroke-width=".982962" stroke-miterlimit="10"/>
  <path d="M118.911 65.8375c7.687 0 13.919-6.2316 13.919-13.9188C132.83 44.2316 126.598 38 118.911 38s-13.919 6.2316-13.919 13.9187c0 7.6872 6.232 13.9188 13.919 13.9188Z" fill="#FD4301" stroke="#000" stroke-width=".982962" stroke-miterlimit="10"/>
  <path d="M121.637 65.4833c-7.497 0-13.565-6.0682-13.565-13.5649s6.068-13.5649 13.565-13.5649" stroke="#000" stroke-width=".982962" stroke-miterlimit="10"/>
  <defs>
    <linearGradient id="a" x1="100.444" y1="39.8609" x2="137.64" y2="77.0562" gradientUnits="userSpaceOnUse">
      <stop stop-color="#9D7CBF"/>
      <stop offset=".6" stop-color="#FD0189"/>
      <stop offset=".97" stop-color="#FD5C3F"/>
    </linearGradient>
  </defs>
</svg>
