<svg fill="none" xmlns="http://www.w3.org/2000/svg" viewBox="0 0 367 343">
  <path d="M314.973 278.159s.094-.121.147-.175c-.254.323-.267.349-.147.175Z" fill="#fff"/>
  <path d="M45.6306 150.761c.1671-1.33.4297-2.66.7997-4.002.2387-1.102.561-2.181.9548-3.223C64.7033 85.8527 113.996 36.4015 172.945 22.7176c30.972-7.1894 66.718-5.3201 94.933 10.5804 14.466 8.16 26.377 20.8493 37.298 33.1672 11.267 12.7013 19.085 26.6368 25.076 42.4778 10.682 28.242 10.826 60.355 4.703 89.628-2.936 14.055-8.104 27.775-14.621 40.548-2.721 5.332-5.848 10.473-9.381 15.313-2.017 2.756-4.154 5.488-6.254 8.172 7.304-9.334-2.244 2.948-3.127 4.098-2.423 3.08-4.906 6.087-7.555 8.975-38.468 41.795-102.25 60.631-156.317 40.8-16.053-5.895-29.958-13.863-42.9913-24.959-4.9054-4.17-8.7725-9.011-13.1169-13.708-6.2064-6.722-12.1382-12.857-17.5808-20.382-22.1996-30.699-25.3267-70.396-18.3804-106.643v-.024Z" fill="url(#a)" fill-opacity=".5"/>
  <path d="M176.412 225.269c33.925 5.601 65.974-17.311 71.585-51.174 5.612-33.864-17.341-65.856-51.265-71.457-33.924-5.6014-65.974 17.31-71.585 51.174-5.611 33.863 17.341 65.856 51.265 71.457Z" fill="#fff" fill-opacity=".7"/>
  <path d="M74.0836 165.899C96.3974 83.7233 190.99 19.4699 273.222 56.9399c66.112 36.906 66.38 140.8711 22.876 195.1361-79.075 108.167-253.7861 58.172-222.0144-86.177Zm28.1864 38.772c2.529 52.748 54.862 81.586 102.713 68.107 39.839-11.21 73.457-45.512 84.56-85.318 13.164-53.097-8.682-117.4842-73.483-108.6772-60.708 2.8327-116.6927 65.4082-113.803 125.8882h.013Z" fill="#FFECE5"/>
  <path d="M61.2938 152.352C83.6076 70.1764 178.214 5.92308 260.446 43.393c66.099 36.8926 67.918 141.784 24.414 196.049-79.075 108.167-255.3379 57.259-223.5528-87.09h-.0134Zm28.1866 38.773c2.5284 52.747 54.8616 81.585 102.7126 68.106 39.839-11.21 73.457-45.512 84.56-85.318 13.164-53.097-8.682-117.4841-73.483-108.6771C142.563 68.0686 86.5775 130.644 89.467 191.125h.0134Z" fill="url(#b)"/>
  <path d="M141.426 94.2739C247.711 40.7742 340.805 203.757 235.644 257.364c-19.986 7.491-42.647 4.511-62.955.148-70.058-15.386-101.0405-127.205-31.276-163.2247l.013-.0134Zm-7.465 69.7981c.402 27.548 20.187 55.782 47.263 62.36 43.317 11.224 72.052-4.685 67.102-52.439-9.043-68.428-113.91-81.0348-114.378-9.921h.013Z" fill="#FFECE5"/>
  <path d="M135.768 80.3132C242.066 26.8001 335.147 189.796 229.986 243.39c-19.986 7.491-42.647 4.511-62.955.148-70.058-15.386-101.0405-127.205-31.276-163.2248h.013Zm-7.465 69.7978c.402 27.549 20.187 55.782 47.263 62.36 43.317 11.224 72.052-4.685 67.102-52.439-9.043-68.4281-113.91-81.0345-114.378-9.921h.013Z" fill="url(#c)"/>
  <path d="m318.1 157.972-20.94 12.398-3.362-20.09 20.94-12.399 3.362 20.091Z" fill="#fff" stroke="#FFD6E1" stroke-width=".695094" stroke-linecap="round" stroke-linejoin="round"/>
  <path d="m318.1 157.973 15.77 11.987-20.94 12.399-15.77-11.988 20.94-12.398Z" fill="#FCF7F0"/>
  <mask id="d" style="mask-type:luminance" maskUnits="userSpaceOnUse" x="297" y="157" width="37" height="26">
    <path fill-rule="evenodd" clip-rule="evenodd" d="m318.1 157.973 15.77 11.987-20.94 12.399-15.77-11.988 20.94-12.398Z" fill="#fff"/>
  </mask>
  <g mask="url(#d)">
    <path d="M288.647 182.505h53.737-53.737Z" fill="#FCF7F0"/>
    <path d="M288.647 182.505h53.737" stroke="#FFD6E1" stroke-width=".695094" stroke-linecap="round" stroke-linejoin="round"/>
    <path d="M288.647 180.448h53.737-53.737Z" fill="#FCF7F0"/>
    <path d="M288.647 180.448h53.737" stroke="#FFD6E1" stroke-width=".695094" stroke-linecap="round" stroke-linejoin="round"/>
    <path d="M288.647 178.392h53.737-53.737Z" fill="#FCF7F0"/>
    <path d="M288.647 178.392h53.737" stroke="#FFD6E1" stroke-width=".695094" stroke-linecap="round" stroke-linejoin="round"/>
    <path d="M288.647 176.335h53.737-53.737Z" fill="#FCF7F0"/>
    <path d="M288.647 176.335h53.737" stroke="#FFD6E1" stroke-width=".695094" stroke-linecap="round" stroke-linejoin="round"/>
    <path d="M288.647 174.279h53.737-53.737Z" fill="#FCF7F0"/>
    <path d="M288.647 174.279h53.737" stroke="#FFD6E1" stroke-width=".695094" stroke-linecap="round" stroke-linejoin="round"/>
    <path d="M288.647 172.222h53.737-53.737Z" fill="#FCF7F0"/>
    <path d="M288.647 172.222h53.737" stroke="#FFD6E1" stroke-width=".695094" stroke-linecap="round" stroke-linejoin="round"/>
    <path d="M288.647 170.165h53.737-53.737Z" fill="#FCF7F0"/>
    <path d="M288.647 170.165h53.737" stroke="#FFD6E1" stroke-width=".695094" stroke-linecap="round" stroke-linejoin="round"/>
    <path d="M288.647 168.109h53.737-53.737Z" fill="#FCF7F0"/>
    <path d="M288.647 168.109h53.737" stroke="#FFD6E1" stroke-width=".695094" stroke-linecap="round" stroke-linejoin="round"/>
    <path d="M288.647 166.052h53.737-53.737Z" fill="#FCF7F0"/>
    <path d="M288.647 166.052h53.737" stroke="#FFD6E1" stroke-width=".695094" stroke-linecap="round" stroke-linejoin="round"/>
    <path d="M288.647 163.995h53.737-53.737Z" fill="#FCF7F0"/>
    <path d="M288.647 163.995h53.737" stroke="#FFD6E1" stroke-width=".695094" stroke-linecap="round" stroke-linejoin="round"/>
    <path d="M288.647 161.939h53.737-53.737Z" fill="#FCF7F0"/>
    <path d="M288.647 161.939h53.737" stroke="#FFD6E1" stroke-width=".695094" stroke-linecap="round" stroke-linejoin="round"/>
    <path d="M288.647 159.88h53.737-53.737Z" fill="#FCF7F0"/>
    <path d="M288.647 159.88h53.737" stroke="#FFD6E1" stroke-width=".695094" stroke-linecap="round" stroke-linejoin="round"/>
    <path d="M288.647 157.823h53.737-53.737Z" fill="#FCF7F0"/>
    <path d="M288.647 157.823h53.737" stroke="#FFD6E1" stroke-width=".695094" stroke-linecap="round" stroke-linejoin="round"/>
  </g>
  <path clip-rule="evenodd" d="m318.1 157.973 15.77 11.987-20.94 12.399-15.77-11.988 20.94-12.398v0Z" stroke="#FFD6E1" stroke-width=".695094" stroke-linecap="round" stroke-linejoin="round"/>
  <path d="m314.738 137.881 15.77 11.988 3.362 20.09-15.77-11.987-3.362-20.091Z" fill="#FEFDFB" stroke="#FFD6E1" stroke-width=".695094" stroke-linecap="round" stroke-linejoin="round"/>
  <path d="M305.278 156.23c-.282 1.129-.946 2.124-1.88 2.817l1.88-2.817Z" fill="#FCF7F0"/>
  <path d="M305.278 156.23c-.282 1.129-.946 2.124-1.88 2.817" stroke="#FFD6E1" stroke-width=".695094" stroke-linecap="round" stroke-linejoin="round"/>
  <path d="m327.261 150.783-.264.776.264-.776Z" fill="#FCF7F0"/>
  <path d="m327.261 150.783-.264.776" stroke="#FFD6E1" stroke-width=".695094" stroke-linecap="round" stroke-linejoin="round"/>
  <mask id="f" fill="#fff">
    <path d="M18.5591 200.149c0-6.398 5.1867-11.585 11.5849-11.585h307c6.398 0 11.585 5.187 11.585 11.585v121.642c0 6.398-5.187 11.585-11.585 11.585h-307c-6.3982 0-11.5849-5.187-11.5849-11.585V200.149Z"/>
  </mask>
  <path d="M18.5591 200.149c0-6.398 5.1867-11.585 11.5849-11.585h307c6.398 0 11.585 5.187 11.585 11.585v121.642c0 6.398-5.187 11.585-11.585 11.585h-307c-6.3982 0-11.5849-5.187-11.5849-11.585V200.149Z" fill="url(#e)"/>
  <path d="M30.144 189.289h307v-1.449h-307v1.449Zm317.861 10.86v121.642h1.448V200.149h-1.448Zm-10.861 132.503h-307v1.448h307v-1.448ZM19.2831 321.791V200.149H17.835v121.642h1.4481Zm10.8609 10.861c-5.9983 0-10.8609-4.863-10.8609-10.861H17.835c0 6.798 5.5109 12.309 12.309 12.309v-1.448Zm317.861-10.861c0 5.998-4.863 10.861-10.861 10.861v1.448c6.798 0 12.309-5.511 12.309-12.309h-1.448Zm-10.861-132.502c5.998 0 10.861 4.862 10.861 10.86h1.448c0-6.798-5.511-12.309-12.309-12.309v1.449Zm-307-1.449c-6.7981 0-12.309 5.511-12.309 12.309h1.4481c0-5.998 4.8626-10.86 10.8609-10.86v-1.449Z" fill="#FFD6E1" mask="url(#f)"/>
  <path fill-rule="evenodd" clip-rule="evenodd" d="M247.887 81.4043h-66.635c-1.879.0009-3.402 2.0052-3.401 4.4769v29.1918l-6.208 5.617c-.492.444-.177 1.261.485 1.261h5.723v7.684c-.001 2.471 1.522 4.476 3.401 4.477H247.887c1.879-.001 3.402-2.006 3.401-4.477V85.8812c.001-2.4717-1.522-4.4761-3.401-4.4769Z" fill="#fff"/>
  <path d="M181.252 81.4043v-.3475.3475Zm66.635 0v-.3475.3475Zm-70.036 4.4769h.348v-.0001l-.348.0001Zm0 29.1918.233.257c.073-.065.115-.159.115-.257h-.348Zm-6.208 5.617.233.258-.233-.258Zm6.208 1.261h.348c0-.192-.156-.348-.348-.348v.348Zm0 7.684h.348-.348Zm3.401 4.477v.347-.347Zm50.803 0v-.348.348Zm15.832 0v.347-.347Zm3.401-4.477h-.348.348Zm0-43.7538-.348-.0001v.0001h.348Zm-70.036-4.1294h66.635v-.695h-66.635v.695Zm-3.053 4.1293c-.001-1.1668.359-2.2103.924-2.9547.566-.7441 1.322-1.1742 2.129-1.1746v-.695c-1.072.0004-2.017.573-2.682 1.4492-.666.8759-1.067 2.0704-1.067 3.3753l.696-.0002Zm0 29.1919V85.8812h-.696v29.1918h.696Zm-6.323 5.875 6.208-5.618-.466-.515-6.209 5.617.467.516Zm.252.655c-.344 0-.508-.424-.252-.655l-.467-.516c-.727.658-.261 1.866.719 1.866v-.695Zm5.723 0h-5.723v.695h5.723v-.695Zm.348 8.032v-7.684h-.696v7.684h.696Zm3.053 4.129c-.807 0-1.563-.43-2.129-1.175-.565-.744-.925-1.787-.924-2.954h-.696c0 1.304.401 2.499 1.067 3.375.665.876 1.61 1.449 2.682 1.449v-.695Zm50.803 0h-50.803v.695h50.803v-.695Zm15.832 0h-15.832v.695h15.832v-.695Zm3.053-4.129c.001 1.167-.359 2.21-.924 2.954-.566.745-1.322 1.175-2.129 1.175v.695c1.072 0 2.016-.573 2.682-1.449.665-.876 1.067-2.071 1.066-3.375h-.695Zm0-43.7538v43.7538h.695V85.8812h-.695Zm-3.053-4.1294c.807.0004 1.563.4305 2.129 1.1746.565.7444.925 1.7879.924 2.9547l.695.0002c.001-1.3049-.401-2.4994-1.066-3.3754-.666-.8762-1.611-1.4487-2.682-1.4491v.695Z" fill="#FFD6E1"/>
  <path fill-rule="evenodd" clip-rule="evenodd" d="m230.291 121.26-9.611-5.646-6.626-11.611V92.8076c.175 0 .35.1165.483.3483l7.848 13.7541 7.847 13.755c.133.232.145.442.059.595Z" fill="#FF4724"/>
  <path fill-rule="evenodd" clip-rule="evenodd" d="M214.055 92.8076v11.1954l-6.626 11.611-9.61 5.646c-.087-.153-.074-.363.058-.595l7.848-13.755 7.848-13.7541c.132-.2321.307-.3483.482-.3483Z" fill="#9E1F63"/>
  <path fill-rule="evenodd" clip-rule="evenodd" d="m197.819 121.26 9.61-5.646h13.251l9.611 5.646c-.087.154-.273.249-.539.249h-31.395c-.265 0-.452-.095-.538-.249Z" fill="#662D91"/>
  <path fill-rule="evenodd" clip-rule="evenodd" d="M220.68 115.614h-13.251l6.625-11.611 6.626 11.611Z" fill="#fff"/>
  <path d="m188.366 87.5293-3.908 2.9315 3.908-2.9315Z" fill="#FCF7F0"/>
  <path d="m188.366 87.5293-3.908 2.9315" stroke="#FFD6E1" stroke-width=".695094" stroke-linecap="round" stroke-linejoin="round"/>
  <path d="M243.184 121.545c-.706 1.395-1.722 2.611-2.969 3.554l2.969-3.554Z" fill="#FCF7F0"/>
  <path d="M243.184 121.545c-.706 1.395-1.722 2.611-2.969 3.554" stroke="#FFD6E1" stroke-width=".695094" stroke-linecap="round" stroke-linejoin="round"/>
  <path d="m244.283 125.438-2.684 1.77 2.684-1.77Z" fill="#FCF7F0"/>
  <path d="m244.283 125.438-2.684 1.77" stroke="#FFD6E1" stroke-width=".695094" stroke-linecap="round" stroke-linejoin="round"/>
  <g filter="url(#g)">
    <path d="m183.083 304.881-.031-.017-.105-.061c-.089-.052-.217-.127-.381-.225-.328-.195-.8-.482-1.396-.856-1.19-.748-2.876-1.849-4.894-3.282-4.027-2.86-9.409-7.065-14.805-12.438-10.679-10.634-21.994-26.433-21.994-45.894 0-14.517 11.435-26.03 25.238-26.03 8.117 0 15.385 3.962 20.016 10.172 4.63-6.21 11.898-10.172 20.015-10.172 13.804 0 25.238 11.513 25.238 26.03 0 19.461-11.315 35.26-21.994 45.894-5.396 5.373-10.778 9.578-14.805 12.438-2.018 1.433-3.704 2.534-4.894 3.282-.596.374-1.068.661-1.396.856-.164.098-.292.173-.381.225l-.105.061-.031.017-.012.007c-1.021.579-2.25.579-3.27 0l-.013-.007Z" fill="#FEFDFB"/>
  </g>
  <path d="M18.5591 113.449c0-3.692 2.9933-6.685 6.6857-6.685H139.069c3.692 0 6.686 2.993 6.686 6.685v23.597c0 3.692-2.994 6.685-6.686 6.685H25.2448c-3.6924 0-6.6857-2.993-6.6857-6.685v-23.597Z" fill="#fff" stroke="#FFD6E1" stroke-width=".695094" stroke-linecap="round" stroke-linejoin="round"/>
  <path d="M62.9187 119.344c0-1.411 1.1436-2.554 2.5544-2.554h60.8559c1.411 0 2.555 1.143 2.555 2.554 0 1.411-1.144 2.555-2.555 2.555H65.4731c-1.4108 0-2.5544-1.144-2.5544-2.555Z" fill="url(#h)" stroke="#FFD6E1" stroke-width=".724056"/>
  <rect x="62.9187" y="125.61" width="30.0079" height="5.02071" rx="2.51036" fill="url(#i)" stroke="#FFD6E1" stroke-width=".724056"/>
  <path d="M97.0319 128.12c0-1.386 1.124-2.51 2.5104-2.51h19.1947c1.386 0 2.51 1.124 2.51 2.51 0 1.387-1.124 2.511-2.51 2.511H99.5423c-1.3864 0-2.5104-1.124-2.5104-2.511Z" fill="url(#j)" stroke="#FFD6E1" stroke-width=".724056"/>
  <path d="M31.4809 125.308h-.0002c-1.0677-.981-1.1393-2.641-.16-3.71s2.6393-1.142 3.7095-.164h.0005l5.8452 5.362 10.5489-10.01h.0001c1.0531-.998 2.7159-.953 3.714.1s.9535 2.715-.0995 3.714L42.714 132.295c-.4877.464-1.1351.722-1.8081.721m-9.425-7.708 9.4254 7.346m-9.4254-7.346 7.6502 7.017m-7.6502-7.017 7.6502 7.017m1.7748.691.0004-.362m-.0004.362h.0008l-.0004-.362m-.0004.362c-.6572.001-1.2906-.246-1.7745-.691m1.7749.329c-.5667.001-1.113-.212-1.5302-.595l-.2447.266m0 0h-.0003m.0003 0h-.0003" fill="url(#k)" stroke="#FFD6E1" stroke-width=".724056"/>
  <path d="m39.0934 113.787-1.0592 1.06 1.0592-1.06Z" fill="#FCF7F0"/>
  <path d="m39.0934 113.787-1.0592 1.06" stroke="#FFD6E1" stroke-width=".695094" stroke-linecap="round" stroke-linejoin="round"/>
  <path d="M149.208 132.469c-1.901 1.727-4.211 2.943-6.711 3.531l6.711-3.531Z" fill="#FCF7F0"/>
  <path d="M149.208 132.469c-1.901 1.727-4.211 2.943-6.711 3.531" stroke="#FFD6E1" stroke-width=".695094" stroke-linecap="round" stroke-linejoin="round"/>
  <path d="m273.289 186.903-3.812-.13-8.757-.297-6.494-.22-6.386 6.672 32.983.632-7.534-6.657Z" fill="#fff"/>
  <mask id="l" style="mask-type:luminance" maskUnits="userSpaceOnUse" x="247" y="186" width="34" height="8">
    <path fill-rule="evenodd" clip-rule="evenodd" d="m273.289 186.903-3.812-.13-8.757-.297-6.494-.22-6.386 6.672 32.983.632-7.534-6.657Z" fill="#fff"/>
  </mask>
  <g mask="url(#l)">
    <path d="M260.633 187.182c2.065 3.505 2.68 2.353 4.064 4.194 2.332 3.103 11.461 1.667 11.328 2.184-.133.517-11.394 3.505-11.394 3.505l-5.264-2.586.466-5.229" fill="#8C8AF5" fill-opacity=".2"/>
  </g>
  <path clip-rule="evenodd" d="m273.289 186.903-3.812-.13-8.757-.297-6.494-.22-6.386 6.672 32.983.632-7.534-6.657v0Z" stroke="#B6B4F8" stroke-width=".695094" stroke-linecap="round" stroke-linejoin="round"/>
  <path d="m208.741 176.726 10.997 11.289 5.349-3.526s-7.582-9.731-8.491-10.925c-.91-1.193-7.855 3.162-7.855 3.162Z" fill="#fff"/>
  <mask id="m" style="mask-type:luminance" maskUnits="userSpaceOnUse" x="208" y="173" width="18" height="16">
    <path fill-rule="evenodd" clip-rule="evenodd" d="m208.741 176.728 10.997 11.289 5.349-3.526s-7.582-9.731-8.491-10.925c-.91-1.193-7.855 3.162-7.855 3.162Z" fill="#fff"/>
  </mask>
  <g mask="url(#m)">
    <path d="M216.885 174.871c.291 5.369-2.618 4.215-1.454 6.824 1.163 2.609-.699 4.516-1.397 4.666-.698.151-4.655-7.125-4.655-7.125l3.084-1.706 4.422-2.659Z" fill="#BAB9F9"/>
  </g>
  <path clip-rule="evenodd" d="m208.741 176.726 10.997 11.289 5.349-3.526s-7.582-9.731-8.491-10.925c-.91-1.193-7.855 3.162-7.855 3.162Z" stroke="#B6B4F8" stroke-width=".695094" stroke-linecap="round" stroke-linejoin="round"/>
  <path d="m215.066 185.384.451 3.619c.149 1.193 1.511 1.98 2.847 1.646l19.572-4.898c-.492-1.596-2.015-2.8-3.902-3.084l-11.677-1.757s.807 2.619-7.291 4.474ZM270.112 186.795s3.819 4.784 1.183 6.765l14.606 2.77c5.936 1.026 8.028.391 7.663-1.301l.365-.181-17.579-8.592-6.238.539Z" fill="#BAB9F9" stroke="#B6B4F8" stroke-width=".695094" stroke-linecap="round" stroke-linejoin="round"/>
  <path d="M104.741 195.24c3.611.452 10.38-.903 10.831-.451.452.451-.902 1.355-.902 1.355s8.123.451 6.769 3.161c-.727 1.456-5.867-.452-7.672 0-1.805.451-5.867 1.354-9.026-.904-3.159-2.257.451-2.709.451-2.709" fill="#fff"/>
  <path d="M104.741 195.24c3.611.452 10.38-.903 10.831-.451.452.451-.902 1.355-.902 1.355s8.123.451 6.769 3.161c-.727 1.456-5.867-.452-7.672 0-1.805.451-5.867 1.354-9.026-.904-3.159-2.257.451-2.709.451-2.709" stroke="#B6B4F8" stroke-width=".695094" stroke-linecap="round" stroke-linejoin="round"/>
  <path d="M145.357 125.698s6.532-6.128 8.198-14.873c.194-1.018.561-1.995 1.085-2.888 1.662-2.834 5.27-8.6262 6.893-8.4261 2.146.2646-3.088 7.2201-3.088 7.2201s2.301 2.955 2.707 4.968c.406 2.012-.207 2.999-2.625 5.419-3.61 3.612-4.595 9.031-4.595 9.031l-8.575-.451Z" fill="#fff"/>
  <mask id="n" style="mask-type:luminance" maskUnits="userSpaceOnUse" x="145" y="99" width="18" height="28">
    <path fill-rule="evenodd" clip-rule="evenodd" d="M145.357 125.698s6.532-6.128 8.198-14.873c.194-1.018.561-1.995 1.085-2.888 1.662-2.834 5.27-8.6262 6.893-8.4261 2.146.2646-3.088 7.2201-3.088 7.2201s2.301 2.955 2.707 4.968c.406 2.012-.207 2.999-2.625 5.419-3.61 3.612-4.595 9.031-4.595 9.031l-8.575-.451Z" fill="#fff"/>
  </mask>
  <g mask="url(#n)">
    <path d="M152.667 114.941c5.063 5.067 5.696.634 8.228 1.9l1.266.634-4.005 4.482-1.058.584-5.064-7.6" fill="#BAB9F9"/>
  </g>
  <path clip-rule="evenodd" d="M145.357 125.698s6.532-6.128 8.198-14.873c.194-1.018.561-1.995 1.085-2.888 1.662-2.834 5.27-8.6262 6.893-8.4261 2.146.2646-3.088 7.2201-3.088 7.2201s2.301 2.955 2.707 4.968c.406 2.012-.207 2.999-2.625 5.419-3.61 3.612-4.595 9.031-4.595 9.031l-8.575-.451Z" stroke="#B6B4F8" stroke-width=".695094" stroke-linecap="round" stroke-linejoin="round"/>
  <path d="M151.716 114.602c4.955 1.841 6.729 6.128 6.729 6.128s-4.924 17.354-8.534 22.773c-3.61 5.419-14.893 20.321-14.893 20.321l-29.786-10.386s29.335-11.741 32.945-16.709c3.611-4.967 13.539-22.127 13.539-22.127Z" fill="#D1D0FB"/>
  <mask id="o" style="mask-type:luminance" maskUnits="userSpaceOnUse" x="105" y="114" width="54" height="50">
    <path fill-rule="evenodd" clip-rule="evenodd" d="M151.716 114.602c4.955 1.841 6.729 6.128 6.729 6.128s-4.924 17.354-8.534 22.773c-3.61 5.419-14.893 20.321-14.893 20.321l-29.786-10.386s29.335-11.741 32.945-16.709c3.611-4.967 13.539-22.127 13.539-22.127Z" fill="#fff"/>
  </mask>
  <g mask="url(#o)">
    <path d="M115.421 153.965c15.812-.69 20.945 8.047 30.64-5.002s3.239 14.229 3.239 14.229l-20.534 6.237-13.821-3.814" fill="#BAB9F9"/>
  </g>
  <path clip-rule="evenodd" d="M151.716 114.602c4.955 1.841 6.729 6.128 6.729 6.128s-4.924 17.354-8.534 22.773c-3.61 5.419-14.893 20.321-14.893 20.321l-29.786-10.386s29.335-11.741 32.945-16.709c3.611-4.967 13.539-22.127 13.539-22.127Z" stroke="#B6B4F8" stroke-width=".695094" stroke-linecap="round" stroke-linejoin="round"/>
  <path d="M210.54 182.339s6.719-3.807 9.197-6.065c0 0-10.997-30.908-22.343-32.112-4.946-.525-52.52 21.017-52.52 21.017l8.728 16.708s-10.476-13.999-4.956.904c5.52 14.902 42.288-13.51 46.102-17.355l15.792 16.903Z" fill="#fff"/>
  <mask id="p" style="mask-type:luminance" maskUnits="userSpaceOnUse" x="144" y="144" width="76" height="44">
    <path fill-rule="evenodd" clip-rule="evenodd" d="M210.54 182.339s6.719-3.807 9.197-6.065c0 0-10.997-30.908-22.343-32.112-4.946-.525-52.52 21.017-52.52 21.017l8.728 16.708s-10.476-13.999-4.956.904c5.52 14.902 42.288-13.51 46.102-17.355l15.792 16.903Z" fill="#fff"/>
  </mask>
  <g mask="url(#p)">
    <path d="M217.891 167.186 202.607 178.9l6.829 6.916 15.65-7.35-8.173-12.851" fill="#fff"/>
    <path d="M217.891 167.186 202.607 178.9l6.829 6.916 15.65-7.35-8.173-12.851" stroke="#B6B4F8" stroke-width=".695094" stroke-linecap="round" stroke-linejoin="round"/>
  </g>
  <path clip-rule="evenodd" d="M210.54 182.339s6.719-3.807 9.197-6.065c0 0-10.997-30.908-22.343-32.112-4.946-.525-52.52 21.017-52.52 21.017l8.728 16.708s-10.476-13.999-4.956.904c5.52 14.902 42.288-13.51 46.102-17.355l15.792 16.903Z" stroke="#B6B4F8" stroke-width=".695094" stroke-linecap="round" stroke-linejoin="round"/>
  <path d="M162.023 175.217c18.588 2.505 47.154 6.327 48.782 6.383 2.425.082 46.439 3.789 49.642 4.395 3.204.606 4.415 9.565 3.405 10.42 0 0-50.176-.912-57.451-1.159-7.274-.247-68.774 7.814-73.675-4.555-3.823-9.649 13.501-17.619 13.501-17.619" fill="#fff"/>
  <mask id="q" style="mask-type:luminance" maskUnits="userSpaceOnUse" x="132" y="173" width="133" height="25">
    <path fill-rule="evenodd" clip-rule="evenodd" d="M162.023 175.217c18.588 2.505 47.154 6.327 48.782 6.383 2.425.082 46.439 3.789 49.642 4.395 3.204.606 4.415 9.565 3.405 10.42 0 0-50.176-.912-57.451-1.159-7.274-.247-68.774 7.814-73.675-4.555-3.823-9.649 13.501-17.619 13.501-17.619" fill="#fff"/>
  </mask>
  <g mask="url(#q)">
    <path d="M149.084 169.682c12.573 1.952-13.008 26.495 17.993 26.805 31.001.311-33.602 15.279-33.602 15.279s-8.021-24.31-7.371-24.086c.65.223 17.657-12.916 17.657-12.916" fill="#8C8AF5" fill-opacity=".2"/>
    <path d="M251.927 182.967c6.016 5.532 4.227 17.571 4.227 17.571l11.057-.163-4.065-18.547" fill="#fff"/>
    <path d="M251.927 182.967c6.016 5.532 4.227 17.571 4.227 17.571l11.057-.163-4.065-18.547" stroke="#B6B4F8" stroke-width=".695094" stroke-linecap="round" stroke-linejoin="round"/>
    <path d="M153.072 178.141c7.371 4.121 2.71 12.583 2.71 12.583l-2.71-12.583Z" fill="#fff"/>
    <path d="M153.072 178.141c7.371 4.121 2.71 12.583 2.71 12.583" stroke="#B6B4F8" stroke-width=".695094" stroke-linecap="round" stroke-linejoin="round"/>
  </g>
  <path d="M162.023 175.217c18.588 2.505 47.154 6.327 48.782 6.383 2.425.082 46.439 3.789 49.642 4.395 3.204.606 4.415 9.565 3.405 10.42 0 0-50.176-.912-57.451-1.159-7.274-.247-68.774 7.814-73.675-4.555-3.823-9.649 13.501-17.619 13.501-17.619" stroke="#B6B4F8" stroke-width=".695094" stroke-linecap="round" stroke-linejoin="round"/>
  <path d="M123.115 153.871c3.201 1.479 6.14 3.467 8.703 5.889 7.672 7.225 22.114-4.516 22.154 9.483.023 7.887-11.283 33.417-23.468 29.353s-38.8112-9.032-38.8112-9.032l-.9026-16.257-.0402-9.225s12.528-11.488 20.395-13.094" fill="#D1D0FB"/>
  <mask id="r" style="mask-type:luminance" maskUnits="userSpaceOnUse" x="90" y="150" width="64" height="50">
    <path fill-rule="evenodd" clip-rule="evenodd" d="M123.115 153.871c3.201 1.479 6.14 3.467 8.703 5.889 7.672 7.225 22.114-4.516 22.154 9.483.023 7.887-11.283 33.417-23.468 29.353s-38.8112-9.032-38.8112-9.032l-.9026-16.257-.0402-9.225s12.528-11.488 20.395-13.094" fill="#fff"/>
  </mask>
  <g mask="url(#r)">
    <path d="M94.8266 171.049c4.0617 7.225 3.5963 15.16 14.8784 17.418 11.283 2.258 28.883 15.354 28.883 15.805 0 .452-41.0677 4.516-41.0677 4.516l-16.698-16.709 14.0043-21.03Z" fill="#8C8AF5" fill-opacity=".2"/>
    <path d="M105.23 153.859c1.26 2.184 1.035 7.266-2.932 9.558-3.9669 2.292-10.1743.925-11.4341-1.258-1.2599-2.184.9347-5.812 4.9019-8.104 3.9671-2.291 8.2042-2.379 9.4642-.196Z" fill="#fff" stroke="#B6B4F8" stroke-width=".695094" stroke-linecap="round" stroke-linejoin="round"/>
  </g>
  <path d="M123.115 153.871c3.201 1.479 6.14 3.467 8.703 5.889 7.672 7.225 22.114-4.516 22.154 9.483.023 7.887-11.283 33.417-23.468 29.353s-38.8112-9.032-38.8112-9.032l-.9026-16.257-.0402-9.225s12.528-11.488 20.395-13.094" stroke="#B6B4F8" stroke-width=".695094" stroke-linecap="round" stroke-linejoin="round"/>
  <path d="M96.427 149.094c.6574 4.656 4.737 6.48 6.683 7.093.277.087.502.289.62.555.117.265.114.568-.007.832-.835 1.804-3.121 5.126-8.5615 4.81-.5582-.032-1.0262-.433-1.1444-.979-.2225-1.038-1.1225-2.925-4.4498-5.226-5.116-3.539 6.8597-7.085 6.8597-7.085Z" fill="#fff"/>
  <mask id="s" style="mask-type:luminance" maskUnits="userSpaceOnUse" x="88" y="149" width="16" height="14">
    <path fill-rule="evenodd" clip-rule="evenodd" d="M96.427 149.094c.6574 4.656 4.737 6.48 6.683 7.093.277.087.502.289.62.555.117.265.114.568-.007.832-.835 1.804-3.121 5.126-8.5615 4.81-.5582-.032-1.0262-.433-1.1444-.979-.2225-1.038-1.1225-2.925-4.4498-5.226-5.116-3.539 6.8597-7.085 6.8597-7.085Z" fill="#fff"/>
  </mask>
  <g mask="url(#s)">
    <ellipse cx="98.7548" cy="147.261" rx="8.04589" ry="6.99415" transform="rotate(-60.495 98.7548 147.261)" fill="#BAB9F9"/>
  </g>
  <path clip-rule="evenodd" d="M96.427 149.094c.6574 4.656 4.737 6.48 6.683 7.093.277.087.502.289.62.555.117.265.114.568-.007.832-.835 1.804-3.121 5.126-8.5615 4.81-.5582-.032-1.0262-.433-1.1444-.979-.2225-1.038-1.1225-2.925-4.4498-5.226-5.116-3.539 6.8597-7.085 6.8597-7.085Z" stroke="#B6B4F8" stroke-width=".695094" stroke-linecap="round" stroke-linejoin="round"/>
  <path d="M95.204 154.597c4.1787-2.214 6.974-6.908-5.3668-16.519l-6.2576 1.767-1.6836 5.96s-1.0364 1.84-.709 2.519 13.9741 14.06 13.9741 14.06" fill="#fff"/>
  <mask id="t" style="mask-type:luminance" maskUnits="userSpaceOnUse" x="81" y="138" width="18" height="25">
    <path fill-rule="evenodd" clip-rule="evenodd" d="M95.204 154.597c4.1787-2.214 6.974-6.908-5.3668-16.519l-6.2576 1.767-1.6836 5.96s-1.0364 1.84-.709 2.519 13.9741 14.06 13.9741 14.06" fill="#fff"/>
  </mask>
  <g mask="url(#t)">
    <ellipse cx="97.0631" cy="144.275" rx="1.91018" ry="1.45471" transform="rotate(-40.562 97.0631 144.275)" fill="#BAB9F9" opacity=".27"/>
    <ellipse cx="90.2047" cy="150.136" rx="1.91018" ry="1.45471" transform="rotate(-40.562 90.2047 150.136)" fill="#BAB9F9" opacity=".27"/>
    <path d="M92.5332 142.343c.2669-.263.6969-.26.9604.006l.8058.817c.2635.267.2607.697-.0062.96-.267.264-.697.261-.9605-.006l-.8058-.816c-.2635-.267-.2607-.697.0063-.961ZM88.6733 145.617c.1282-.127.3014-.197.4815-.196.1801.001.3524.074.479.202l.8057.816c.2635.267.2607.697-.0062.961-.267.263-.697.26-.9605-.007l-.8058-.816c-.2635-.267-.2607-.697.0063-.96Z" fill="#B6B4F8"/>
    <path d="M91.5311 141.083c1.2703-.685 1.529.121.7629.601-.7661.481-1.5928-.153-.7629-.601ZM87.5429 144.408c-.7027 1.262-.016 1.564.4746.804.4906-.76-.0156-1.628-.4746-.804ZM92.1002 146.154c.2834.361.4802-.025.8617-.325.3814-.299.803-.399.5196-.76-.3081-.351-.8369-.4-1.2042-.112-.3674.289-.4452.814-.1771 1.197ZM95.7863 146.353c1.6204 2.951-1.6688 3.861-3.0157 2.305-.0684-.081-.0785-.197-.0252-.289.2209-.393.9461-1.435 2.721-2.131.1202-.046.2566.002.3199.115Z" fill="#BAB9F9"/>
    <mask id="u" style="mask-type:luminance" maskUnits="userSpaceOnUse" x="92" y="146" width="5" height="4">
      <path fill-rule="evenodd" clip-rule="evenodd" d="M95.7863 146.353c1.6204 2.951-1.6688 3.861-3.0157 2.305-.0684-.081-.0785-.197-.0252-.289.2209-.393.9461-1.435 2.721-2.131.1202-.046.2566.002.3199.115Z" fill="#fff"/>
    </mask>
    <g mask="url(#u)">
      <ellipse cx="95.1124" cy="149.266" rx="1.68737" ry="1.50678" transform="rotate(-20.286 95.1124 149.266)" fill="#BAB9F9" opacity=".29"/>
      <path d="M94.9994 146.309c.1345.172.3012.42.2896.498-.0715.479-1.5055 1.416-1.8065 1.41-.0838-.002-.526-.553-.526-.553l1.7653-1.289" fill="#fff"/>
    </g>
  </g>
  <path d="M95.204 154.597c4.1787-2.214 6.974-6.908-5.3668-16.519l-6.2576 1.767-1.6836 5.96s-1.0364 1.84-.709 2.519 13.9741 14.06 13.9741 14.06" stroke="#B6B4F8" stroke-width=".695094" stroke-linecap="round" stroke-linejoin="round"/>
  <path d="M85.6974 151.085c-2.5673-3.154-.4545-9.699 4.1401-13.006 4.5945-3.307-5.3102-11.789-9.7811-5.278 0 0-11.2066 2.981-5.6431 12.825.6074 1.075.3062 2.448-.3041 3.522-1.0043 1.765-2.3092 4.291 1.8727 6 1.4335.586 3.2826-.068 4.0213 1.294 1.461 2.693 6.8834 3.958 8.2926.984 2.7536-5.811-2.5984-6.341-2.5984-6.341Z" fill="#fff" stroke="#B6B4F8" stroke-width=".695094" stroke-linecap="round" stroke-linejoin="round"/>
  <path d="m85.636 150.7.4495-1.324s-.4012-6.736 5.5611-9.833l-2.2524-1.92s-8.4894 8.442-5.3928 12.651l1.3159.262.3187.164Z" fill="#BAB9F9" stroke="#B6B4F8" stroke-width=".695094" stroke-linecap="round" stroke-linejoin="round"/>
  <path d="M86.7922 148.847s-3.7287-1.153-3.7287 1.152c0 2.305 6.224 2.399 6.224 2.399" fill="#fff"/>
  <path d="M86.7922 148.847s-3.7287-1.153-3.7287 1.152c0 2.305 6.224 2.399 6.224 2.399" stroke="#B6B4F8" stroke-width=".695094" stroke-linecap="round" stroke-linejoin="round"/>
  <path d="M114.67 196.146c4.331-.334 11.002-.297 13.342-.782 1.24-.257 2.531-.044 3.623.599 5.592 3.292 6.731 3.062 6.731 3.908 0 .903-21.542 1.587-21.542 1.587l-3.056-2.151" fill="#fff"/>
  <mask id="v" style="mask-type:luminance" maskUnits="userSpaceOnUse" x="113" y="195" width="26" height="7">
    <path fill-rule="evenodd" clip-rule="evenodd" d="M114.67 196.146c4.331-.334 11.002-.297 13.342-.782 1.24-.257 2.531-.044 3.623.599 5.592 3.292 6.731 3.062 6.731 3.908 0 .903-21.542 1.587-21.542 1.587l-3.056-2.151" fill="#fff"/>
  </mask>
  <g mask="url(#v)">
    <path d="M120.361 194.697c4.634 2.329 2.521 6.556 7.236 6.761 4.715.205-8.943 2.646-8.943 2.646l-.975-6.82" fill="#BAB9F9"/>
  </g>
  <path d="M114.67 196.146c4.331-.334 11.002-.297 13.342-.782 1.24-.257 2.531-.044 3.623.599 5.592 3.292 6.731 3.062 6.731 3.908 0 .903-21.542 1.587-21.542 1.587l-3.056-2.151" stroke="#B6B4F8" stroke-width=".695094" stroke-linecap="round" stroke-linejoin="round"/>
  <path d="M96.6035 173.081c1.1722 6.531.9568 14.225.9568 14.225l23.8787 7.225s1.805 3.161 1.354 7.226c0 0-37.458 5.419-39.7145-3.613-2.2565-9.032 1.8052-34.257 8.1234-34.063" fill="#D1D0FB"/>
  <path d="M96.6035 173.081c1.1722 6.531.9568 14.225.9568 14.225l23.8787 7.225s1.805 3.161 1.354 7.226c0 0-37.458 5.419-39.7145-3.613-2.2565-9.032 1.8052-34.257 8.1234-34.063" stroke="#B6B4F8" stroke-width=".695094" stroke-linecap="round" stroke-linejoin="round"/>
  <path d="M79.933 132.928c-.336.611-.3089 1.357.0705 1.943l-.0705-1.943Z" fill="#FCF7F0"/>
  <path d="M79.933 132.928c-.336.611-.3089 1.357.0705 1.943" stroke="#B6B4F8" stroke-width=".695094" stroke-linecap="round" stroke-linejoin="round"/>
  <path d="M74.4761 145.822c.2776.776.8076 1.436 1.5052 1.874l-1.5052-1.874Z" fill="#FCF7F0"/>
  <path d="M74.4761 145.822c.2776.776.8076 1.436 1.5052 1.874" stroke="#B6B4F8" stroke-width=".695094" stroke-linecap="round" stroke-linejoin="round"/>
  <path d="m85.4594 150.077-.0541.081.0541-.081Z" fill="#FCF7F0"/>
  <path d="m85.4594 150.077-.0541.081" stroke="#B6B4F8" stroke-width=".695094" stroke-linecap="round" stroke-linejoin="round"/>
  <path d="M97.6313 187.363c-.364.759-.8636 1.445-1.4741 2.025l1.4741-2.025Z" fill="#FCF7F0"/>
  <path d="M97.6313 187.363c-.364.759-.8636 1.445-1.4741 2.025" stroke="#B6B4F8" stroke-width=".695094" stroke-linecap="round" stroke-linejoin="round"/>
  <path d="m147.54 142.686 2.056.556-2.056-.556Z" fill="#FCF7F0"/>
  <path d="m147.54 142.686 2.056.556" stroke="#B6B4F8" stroke-width=".695094" stroke-linecap="round" stroke-linejoin="round"/>
  <path d="M194.769 162.965c.181.776.125 1.588-.161 2.332l.161-2.332Z" fill="#FCF7F0"/>
  <path d="M194.769 162.965c.181.776.125 1.588-.161 2.332M117.662 173.699c-.259 2.175-1.18 4.217-2.64 5.85M273.6 193.656c.926 1.279 2.103 2.357 3.46 3.166M273.497 193.543l-1.282 1.213M222.873 178.576c.099.706.281 1.399.543 2.062M224.625 178.477c-.434.645-.818 1.323-1.147 2.028" stroke="#B6B4F8" stroke-width=".695094" stroke-linecap="round" stroke-linejoin="round"/>
  <path d="m195.106 187.742-.906 5.2.906-5.2Z" fill="#FCF7F0"/>
  <path d="m195.106 187.742-.906 5.2" stroke="#B6B4F8" stroke-width=".695094" stroke-linecap="round" stroke-linejoin="round"/>
  <path d="M81.6644 143.586v.868-.868Z" fill="#FCF7F0"/>
  <path d="M81.6644 143.586v.868" stroke="#B6B4F8" stroke-width=".695094" stroke-linecap="round" stroke-linejoin="round"/>
  <defs>
    <linearGradient id="b" x1="185.931" y1="32.4473" x2="185.931" y2="297.502" gradientUnits="userSpaceOnUse">
      <stop stop-color="#FFF4F0"/>
      <stop offset=".776042" stop-color="#FFFBFA"/>
    </linearGradient>
    <linearGradient id="c" x1="186.293" y1="69.6719" x2="186.293" y2="247.971" gradientUnits="userSpaceOnUse">
      <stop offset=".208333" stop-color="#FFFBFA"/>
      <stop offset="1" stop-color="#FFF4F0"/>
    </linearGradient>
    <linearGradient id="e" x1="183.644" y1="195.213" x2="183.644" y2="334.322" gradientUnits="userSpaceOnUse">
      <stop offset=".208333" stop-color="#FFFBFA"/>
      <stop offset="1" stop-color="#FFF4F0"/>
    </linearGradient>
    <linearGradient id="h" x1="104.59" y1="116.428" x2="104.59" y2="122.261" gradientUnits="userSpaceOnUse">
      <stop offset=".208333" stop-color="#FFFBFA"/>
      <stop offset="1" stop-color="#FFF4F0"/>
    </linearGradient>
    <linearGradient id="i" x1="77.9226" y1="125.248" x2="77.9226" y2="130.993" gradientUnits="userSpaceOnUse">
      <stop offset=".208333" stop-color="#FFFBFA"/>
      <stop offset="1" stop-color="#FFF4F0"/>
    </linearGradient>
    <linearGradient id="j" x1="112.036" y1="125.248" x2="112.036" y2="130.993" gradientUnits="userSpaceOnUse">
      <stop offset=".208333" stop-color="#FFFBFA"/>
      <stop offset="1" stop-color="#FFF4F0"/>
    </linearGradient>
    <linearGradient id="k" x1="43.245" y1="116.428" x2="43.245" y2="132.654" gradientUnits="userSpaceOnUse">
      <stop offset=".208333" stop-color="#FFFBFA"/>
      <stop offset="1" stop-color="#FFF4F0"/>
    </linearGradient>
    <radialGradient id="a" cx="0" cy="0" r="1" gradientUnits="userSpaceOnUse" gradientTransform="matrix(0 152.843 -148.348 0 190.69 171.55)">
      <stop stop-color="#fff"/>
      <stop offset="1" stop-color="#fff" stop-opacity=".6"/>
    </radialGradient>
    <filter id="g" x="113.411" y="190.012" width="142.639" height="141.376" filterUnits="userSpaceOnUse" color-interpolation-filters="sRGB">
      <feFlood flood-opacity="0" result="BackgroundImageFix"/>
      <feColorMatrix in="SourceAlpha" type="matrix" values="0 0 0 0 0 0 0 0 0 0 0 0 0 0 0 0 0 0 127 0" result="hardAlpha"/>
      <feOffset/>
      <feGaussianBlur stdDeviation="13.033"/>
      <feComposite in2="hardAlpha" operator="out"/>
      <feColorMatrix type="matrix" values="0 0 0 0 1 0 0 0 0 0.8 0 0 0 0 0.85098 0 0 0 0.3 0"/>
      <feBlend mode="normal" in2="BackgroundImageFix" result="effect1_dropShadow_492_75338"/>
      <feBlend mode="normal" in="SourceGraphic" in2="effect1_dropShadow_492_75338" result="shape"/>
    </filter>
  </defs>
</svg>
