<svg fill="none" xmlns="http://www.w3.org/2000/svg" viewBox="0 0 367 344">
  <path d="M314.803 278.485s.093-.121.147-.174c-.254.322-.268.349-.147.174Z" fill="#fff"/>
  <path d="M45.4602 151.087c.1671-1.33.4297-2.66.7997-4.002.2387-1.102.561-2.181.9548-3.223C64.5329 86.1788 113.826 36.7276 172.774 23.0438c30.973-7.1894 66.719-5.3202 94.934 10.5804 14.466 8.16 26.377 20.8493 37.298 33.1672 11.267 12.7013 19.084 26.6368 25.076 42.4776 10.682 28.242 10.825 60.355 4.702 89.628-2.936 14.055-8.104 27.775-14.62 40.548-2.722 5.332-5.849 10.473-9.381 15.314-2.018 2.756-4.154 5.488-6.255 8.172 7.305-9.335-2.243 2.947-3.127 4.098-2.423 3.079-4.905 6.087-7.555 8.974-38.467 41.795-102.25 60.631-156.317 40.8-16.053-5.895-29.957-13.863-42.9907-24.959-4.9054-4.17-8.7725-9.011-13.1169-13.708-6.2064-6.722-12.1382-12.857-17.5808-20.382-22.1996-30.699-25.3267-70.396-18.3804-106.643v-.024Z" fill="url(#a)" fill-opacity=".5"/>
  <path d="M176.242 225.595c33.924 5.601 65.974-17.31 71.585-51.174 5.611-33.864-17.341-65.856-51.265-71.457-33.925-5.6012-65.974 17.31-71.586 51.174-5.611 33.863 17.342 65.856 51.266 71.457Z" fill="#251F9B"/>
  <path d="M73.9132 166.225C96.227 84.0494 190.82 19.7961 273.052 57.266c66.112 36.9061 66.38 140.871 22.876 195.136-79.075 108.168-253.7865 58.172-222.0148-86.177ZM102.1 204.998c2.528 52.747 54.861 81.585 102.713 68.106 39.838-11.21 73.456-45.512 84.56-85.318 13.163-53.096-8.682-117.484-73.483-108.6771-60.708 2.8328-116.6931 65.4081-113.804 125.8891h.014Z" fill="url(#b)"/>
  <path d="M73.9132 166.225C96.227 84.0494 190.82 19.7961 273.052 57.266c66.112 36.9061 66.38 140.871 22.876 195.136-79.075 108.168-253.7865 58.172-222.0148-86.177ZM102.1 204.998c2.528 52.747 54.861 81.585 102.713 68.106 39.838-11.21 73.456-45.512 84.56-85.318 13.163-53.096-8.682-117.484-73.483-108.6771-60.708 2.8328-116.6931 65.4081-113.804 125.8891h.014Z" fill="url(#c)"/>
  <path d="M61.1234 152.679C83.4372 70.5025 178.043 6.24925 260.275 43.7192c66.099 36.8926 67.918 141.7838 24.415 196.0488-79.075 108.168-255.3383 57.259-223.5532-87.089h-.0134ZM89.31 191.451c2.5284 52.748 54.861 81.585 102.713 68.106 39.839-11.21 73.456-45.512 84.56-85.317 13.163-53.097-8.682-117.4849-73.483-108.6779C142.392 68.3948 86.407 130.97 89.2966 191.451h.0134Z" fill="url(#d)"/>
  <path d="M61.1234 152.679C83.4372 70.5025 178.043 6.24925 260.275 43.7192c66.099 36.8926 67.918 141.7838 24.415 196.0488-79.075 108.168-255.3383 57.259-223.5532-87.089h-.0134ZM89.31 191.451c2.5284 52.748 54.861 81.585 102.713 68.106 39.839-11.21 73.456-45.512 84.56-85.317 13.163-53.097-8.682-117.4849-73.483-108.6779C142.392 68.3948 86.407 130.97 89.2966 191.451h.0134Z" fill="url(#e)"/>
  <path d="M141.256 94.6001C247.54 41.1004 340.635 204.083 235.474 257.69c-19.986 7.491-42.648 4.511-62.955.148-70.058-15.386-101.0409-127.205-31.277-163.2245l.014-.0134Zm-7.465 69.7979c.401 27.549 20.187 55.782 47.263 62.36 43.316 11.224 72.051-4.685 67.102-52.439-9.043-68.428-113.91-81.0346-114.379-9.921h.014Z" fill="url(#f)"/>
  <path d="M141.256 94.6001C247.54 41.1004 340.635 204.083 235.474 257.69c-19.986 7.491-42.648 4.511-62.955.148-70.058-15.386-101.0409-127.205-31.277-163.2245l.014-.0134Zm-7.465 69.7979c.401 27.549 20.187 55.782 47.263 62.36 43.316 11.224 72.051-4.685 67.102-52.439-9.043-68.428-113.91-81.0346-114.379-9.921h.014Z" fill="url(#g)"/>
  <path d="M135.598 80.6394C241.896 27.1263 334.977 190.122 229.816 243.716c-19.986 7.491-42.648 4.511-62.955.148-70.0584-15.386-101.0409-127.205-31.277-163.2246h.014Zm-7.465 69.7976c.401 27.549 20.187 55.782 47.263 62.361 43.317 11.223 72.052-4.686 67.102-52.439-9.043-68.429-113.91-81.0353-114.378-9.922h.013Z" fill="url(#h)"/>
  <path d="M135.598 80.6394C241.896 27.1263 334.977 190.122 229.816 243.716c-19.986 7.491-42.648 4.511-62.955.148-70.0584-15.386-101.0409-127.205-31.277-163.2246h.014Zm-7.465 69.7976c.401 27.549 20.187 55.782 47.263 62.361 43.317 11.223 72.052-4.686 67.102-52.439-9.043-68.429-113.91-81.0353-114.378-9.922h.013Z" fill="url(#i)"/>
  <path d="m317.93 158.298-20.94 12.399-3.363-20.091 20.941-12.399 3.362 20.091Z" fill="#6760FD" stroke="#9893FF" stroke-width=".695094" stroke-linecap="round" stroke-linejoin="round"/>
  <path d="m317.929 158.299 15.77 11.988-20.94 12.398-15.77-11.987 20.94-12.399Z" fill="#6760FD"/>
  <mask id="j" style="mask-type:luminance" maskUnits="userSpaceOnUse" x="296" y="158" width="38" height="25">
    <path fill-rule="evenodd" clip-rule="evenodd" d="m317.929 158.299 15.77 11.988-20.94 12.398-15.77-11.987 20.94-12.399Z" fill="#fff"/>
  </mask>
  <g mask="url(#j)">
    <path d="M288.477 182.831h53.737-53.737Z" fill="#FCF7F0"/>
    <path d="M288.477 182.831h53.737" stroke="#9893FF" stroke-width=".695094" stroke-linecap="round" stroke-linejoin="round"/>
    <path d="M288.477 180.775h53.737-53.737Z" fill="#FCF7F0"/>
    <path d="M288.477 180.775h53.737" stroke="#9893FF" stroke-width=".695094" stroke-linecap="round" stroke-linejoin="round"/>
    <path d="M288.477 178.718h53.737-53.737Z" fill="#FCF7F0"/>
    <path d="M288.477 178.718h53.737" stroke="#9893FF" stroke-width=".695094" stroke-linecap="round" stroke-linejoin="round"/>
    <path d="M288.477 176.661h53.737-53.737Z" fill="#FCF7F0"/>
    <path d="M288.477 176.661h53.737" stroke="#9893FF" stroke-width=".695094" stroke-linecap="round" stroke-linejoin="round"/>
    <path d="M288.477 174.605h53.737-53.737Z" fill="#FCF7F0"/>
    <path d="M288.477 174.605h53.737" stroke="#9893FF" stroke-width=".695094" stroke-linecap="round" stroke-linejoin="round"/>
    <path d="M288.477 172.548h53.737-53.737Z" fill="#FCF7F0"/>
    <path d="M288.477 172.548h53.737" stroke="#9893FF" stroke-width=".695094" stroke-linecap="round" stroke-linejoin="round"/>
    <path d="M288.477 170.491h53.737-53.737Z" fill="#FCF7F0"/>
    <path d="M288.477 170.491h53.737" stroke="#9893FF" stroke-width=".695094" stroke-linecap="round" stroke-linejoin="round"/>
    <path d="M288.477 168.435h53.737-53.737Z" fill="#FCF7F0"/>
    <path d="M288.477 168.435h53.737" stroke="#9893FF" stroke-width=".695094" stroke-linecap="round" stroke-linejoin="round"/>
    <path d="M288.477 166.378h53.737-53.737Z" fill="#FCF7F0"/>
    <path d="M288.477 166.378h53.737" stroke="#9893FF" stroke-width=".695094" stroke-linecap="round" stroke-linejoin="round"/>
    <path d="M288.477 164.322h53.737-53.737Z" fill="#FCF7F0"/>
    <path d="M288.477 164.322h53.737" stroke="#9893FF" stroke-width=".695094" stroke-linecap="round" stroke-linejoin="round"/>
    <path d="M288.477 162.265h53.737-53.737Z" fill="#FCF7F0"/>
    <path d="M288.477 162.265h53.737" stroke="#9893FF" stroke-width=".695094" stroke-linecap="round" stroke-linejoin="round"/>
    <path d="M288.477 160.206h53.737-53.737Z" fill="#FCF7F0"/>
    <path d="M288.477 160.206h53.737" stroke="#9893FF" stroke-width=".695094" stroke-linecap="round" stroke-linejoin="round"/>
    <path d="M288.477 158.15h53.737-53.737Z" fill="#FCF7F0"/>
    <path d="M288.477 158.15h53.737" stroke="#9893FF" stroke-width=".695094" stroke-linecap="round" stroke-linejoin="round"/>
  </g>
  <path clip-rule="evenodd" d="m317.929 158.299 15.77 11.988-20.94 12.398-15.77-11.987 20.94-12.399v0Z" stroke="#9893FF" stroke-width=".695094" stroke-linecap="round" stroke-linejoin="round"/>
  <path d="m314.567 138.207 15.77 11.988 3.363 20.091-15.771-11.988-3.362-20.091Z" fill="#6760FD" stroke="#9893FF" stroke-width=".695094" stroke-linecap="round" stroke-linejoin="round"/>
  <path d="M305.108 156.557c-.282 1.128-.946 2.123-1.88 2.816l1.88-2.816Z" fill="#FCF7F0"/>
  <path d="M305.108 156.557c-.282 1.128-.946 2.123-1.88 2.816" stroke="#9893FF" stroke-width=".695094" stroke-linecap="round" stroke-linejoin="round"/>
  <path d="m327.09 151.109-.264.776.264-.776Z" fill="#FCF7F0"/>
  <path d="m327.09 151.109-.264.776" stroke="#9893FF" stroke-width=".695094" stroke-linecap="round" stroke-linejoin="round"/>
  <mask id="l" fill="#fff">
    <path d="M18.3887 200.476c0-6.399 5.1867-11.585 11.5849-11.585H336.973c6.398 0 11.585 5.186 11.585 11.585v121.641c0 6.398-5.187 11.585-11.585 11.585H29.9736c-6.3982 0-11.5849-5.187-11.5849-11.585V200.476Z"/>
  </mask>
  <path d="M18.3887 200.476c0-6.399 5.1867-11.585 11.5849-11.585H336.973c6.398 0 11.585 5.186 11.585 11.585v121.641c0 6.398-5.187 11.585-11.585 11.585H29.9736c-6.3982 0-11.5849-5.187-11.5849-11.585V200.476Z" fill="url(#k)"/>
  <path d="M29.9736 189.615H336.973v-1.448H29.9736v1.448Zm317.8604 10.861v121.641h1.448V200.476h-1.448Zm-10.861 132.502H29.9736v1.448H336.973v-1.448ZM19.1127 322.117V200.476h-1.4481v121.641h1.4481Zm10.8609 10.861c-5.9983 0-10.8609-4.863-10.8609-10.861h-1.4481c0 6.798 5.5109 12.309 12.309 12.309v-1.448Zm317.8604-10.861c0 5.998-4.862 10.861-10.861 10.861v1.448c6.798 0 12.309-5.511 12.309-12.309h-1.448Zm-10.861-132.502c5.999 0 10.861 4.862 10.861 10.861h1.448c0-6.799-5.511-12.309-12.309-12.309v1.448Zm-306.9994-1.448c-6.7981 0-12.309 5.51-12.309 12.309h1.4481c0-5.999 4.8626-10.861 10.8609-10.861v-1.448Z" fill="#302AB3" mask="url(#l)"/>
  <path fill-rule="evenodd" clip-rule="evenodd" d="M247.717 81.7305h-66.636c-1.878.0008-3.401 2.0052-3.4 4.4769v29.1916l-6.209 5.617c-.491.445-.177 1.261.486 1.261h5.723v7.684c-.001 2.472 1.522 4.476 3.4 4.477h66.636c1.878-.001 3.401-2.005 3.401-4.477V86.2074c0-2.4717-1.523-4.4761-3.401-4.4769Z" fill="#9691FF"/>
  <path d="M181.081 81.7305v-.3476.3476Zm66.636 0v-.3476.3476Zm-70.036 4.4769h.347v-.0001l-.347.0001Zm0 29.1916.233.258c.073-.066.114-.16.114-.258h-.347Zm-6.209 5.617.233.258-.233-.258Zm6.209 1.261h.347c0-.192-.155-.348-.347-.348v.348Zm0 7.684h.347-.347Zm3.4 4.477v.347-.347Zm50.803 0v-.348.348Zm15.833 0v.347-.347Zm3.401-4.477h-.348.348Zm0-43.7536-.348-.0001v.0001h.348Zm-70.037-4.1294h66.636v-.6951h-66.636v.6951Zm-3.053 4.1293c0-1.1668.359-2.2103.925-2.9547.565-.7441 1.321-1.1742 2.129-1.1746l-.001-.6951c-1.071.0005-2.016.573-2.682 1.4492-.665.876-1.066 2.0705-1.066 3.3754l.695-.0002Zm0 29.1917V86.2074h-.695v29.1916h.695Zm-6.323 5.875 6.209-5.617-.467-.516-6.208 5.617.466.516Zm.253.655c-.345 0-.508-.424-.253-.655l-.466-.516c-.727.658-.262 1.867.719 1.867v-.696Zm5.723 0h-5.723v.696h5.723v-.696Zm.347 8.032v-7.684h-.695v7.684h.695Zm3.054 4.129c-.808 0-1.564-.43-2.129-1.174-.566-.745-.925-1.788-.925-2.955h-.695c0 1.305.401 2.499 1.066 3.375.666.876 1.611 1.449 2.682 1.449l.001-.695Zm50.802 0h-50.803v.695h50.803v-.695Zm15.833 0h-15.833v.695h15.833v-.695Zm3.053-4.129c0 1.167-.359 2.21-.925 2.955-.565.744-1.321 1.174-2.129 1.174l.001.695c1.071 0 2.016-.573 2.682-1.449.665-.876 1.066-2.07 1.066-3.375h-.695Zm0-43.7536v43.7536h.695V86.2074h-.695Zm-3.054-4.1294c.808.0004 1.564.4305 2.129 1.1746.566.7444.925 1.7879.925 2.9547l.695.0002c0-1.3049-.401-2.4994-1.066-3.3754-.666-.8762-1.611-1.4487-2.682-1.4492l-.001.6951Z" fill="#C8C5FF"/>
  <path fill="#9691FF" d="m233.434 88.2461-39.099.000003.000003 39.099 39.099-.000003z"/>
  <path fill-rule="evenodd" clip-rule="evenodd" d="m206.669 113.571 5.966-9.487v-5.1709l-10.681 17.8019 4.715-3.144Zm13.1 2.096h-11.723l-3.806 2.537h19.969l-4.44-2.537Zm-4.627-11.583 5.937 9.443 4.309 2.462-10.246-17.0759v5.1709Zm-1.254 2.717-4 6.359h7.999l-3.999-6.359Zm-16.117 12.011 15.042-25.0693c.04-.0652.093-.1178.143-.173.229-.262.556-.4349.932-.4349s.702.1729.933.4349c.05.0552.103.1066.141.173l15.042 25.0693c.059.099.103.205.133.312.003.008.003.015.004.023.034.132.04.267.03.402-.004.038-.008.073-.014.111-.022.143-.063.284-.136.415-.002.001-.002.001-.002.002-.001.001-.001.001-.001.003-.021.036-.05.062-.074.096-.041.056-.079.118-.128.167-.047.047-.103.083-.156.123-.037.025-.067.055-.103.076-.059.034-.122.054-.185.078-.04.015-.076.036-.117.047-.094.025-.191.036-.287.039-.014 0-.025.005-.038.005h-30.083c-.453 0-.869-.243-1.091-.636-.223-.393-.217-.875.015-1.263Z" fill="#fff"/>
  <path d="m188.195 87.8555-3.907 2.9315 3.907-2.9315Z" fill="#9691FF"/>
  <path d="m188.195 87.8555-3.907 2.9315" stroke="#6760FD" stroke-width=".695094" stroke-linecap="round" stroke-linejoin="round"/>
  <path d="M243.014 121.871c-.707 1.395-1.722 2.611-2.97 3.554l2.97-3.554Z" fill="#9691FF"/>
  <path d="M243.014 121.871c-.707 1.395-1.722 2.611-2.97 3.554" stroke="#6760FD" stroke-width=".695094" stroke-linecap="round" stroke-linejoin="round"/>
  <path d="m244.113 125.764-2.685 1.77 2.685-1.77Z" fill="#9691FF"/>
  <path d="m244.113 125.764-2.685 1.77" stroke="#6760FD" stroke-width=".695094" stroke-linecap="round" stroke-linejoin="round"/>
  <g filter="url(#m)">
    <path d="m182.912 305.207-.03-.017-.105-.061c-.09-.052-.218-.127-.382-.225-.328-.195-.8-.481-1.395-.856-1.19-.748-2.877-1.849-4.894-3.282-4.028-2.86-9.41-7.064-14.806-12.438-10.679-10.634-21.993-26.433-21.993-45.894 0-14.517 11.434-26.03 25.237-26.03 8.117 0 15.386 3.962 20.016 10.172 4.631-6.21 11.899-10.172 20.016-10.172 13.803 0 25.238 11.513 25.238 26.03 0 19.461-11.315 35.26-21.994 45.894-5.396 5.374-10.778 9.578-14.806 12.438-2.017 1.433-3.703 2.534-4.894 3.282-.595.375-1.067.661-1.395.856-.164.098-.292.173-.382.225l-.105.061-.03.017-.013.007c-1.021.58-2.249.58-3.27 0l-.013-.007Z" fill="#1B149F"/>
  </g>
  <path d="M18.3887 113.776c0-3.693 2.9933-6.686 6.6857-6.686H138.899c3.692 0 6.685 2.993 6.685 6.686v23.596c0 3.692-2.993 6.685-6.685 6.685H25.0744c-3.6924 0-6.6857-2.993-6.6857-6.685v-23.596Z" fill="#9691FF" stroke="#C8C5FF" stroke-width=".695094" stroke-linecap="round" stroke-linejoin="round"/>
  <path d="M62.7483 119.67c0-1.41 1.1436-2.554 2.5544-2.554h60.8563c1.411 0 2.554 1.144 2.554 2.554 0 1.411-1.143 2.555-2.554 2.555H65.3027c-1.4108 0-2.5544-1.144-2.5544-2.555Z" fill="#C8C5FF" stroke="#6760FD" stroke-width=".724056"/>
  <rect x="62.7483" y="125.936" width="30.0079" height="5.02071" rx="2.51036" fill="#C8C5FF" stroke="#6760FD" stroke-width=".724056"/>
  <path d="M96.8615 128.447c0-1.387 1.124-2.511 2.5104-2.511h19.1951c1.386 0 2.51 1.124 2.51 2.511 0 1.386-1.124 2.51-2.51 2.51H99.3719c-1.3864 0-2.5104-1.124-2.5104-2.51ZM31.3105 125.634h-.0002c-1.0677-.981-1.1393-2.641-.16-3.71.9793-1.068 2.6393-1.142 3.7095-.164h.0004l5.8453 5.362 10.5488-10.01h.0002c1.0531-.998 2.7159-.953 3.714.1s.9535 2.716-.0995 3.714l-12.3254 11.695c-.4877.464-1.1351.722-1.8081.721m-9.425-7.708 9.4254 7.346m-9.4254-7.346 7.6502 7.017m-7.6502-7.017 7.6502 7.017m1.7748.691.0004-.362m-.0004.362h.0008l-.0004-.362m-.0004.362c-.6572.001-1.2906-.246-1.7745-.69m1.7749.328c-.5668.001-1.113-.212-1.5302-.595l-.2447.267m0 0c-.0001 0-.0002-.001-.0003-.001m.0003.001-.0003-.001" fill="#C8C5FF" stroke="#6760FD" stroke-width=".724056"/>
  <path d="m38.923 114.113-1.0592 1.06 1.0592-1.06Z" fill="#9691FF"/>
  <path d="m38.923 114.113-1.0592 1.06" stroke="#C8C5FF" stroke-width=".695094" stroke-linecap="round" stroke-linejoin="round"/>
  <path d="M149.037 132.795c-1.901 1.727-4.21 2.943-6.71 3.531l6.71-3.531Z" fill="#9691FF"/>
  <path d="M149.037 132.795c-1.901 1.727-4.21 2.943-6.71 3.531" stroke="#FFD6E1" stroke-width=".695094" stroke-linecap="round" stroke-linejoin="round"/>
  <path d="m273.119 187.229-3.813-.13-8.757-.297-6.493-.22-6.387 6.672 32.983.632-7.533-6.657Z" fill="#000"/>
  <mask id="n" style="mask-type:luminance" maskUnits="userSpaceOnUse" x="247" y="186" width="34" height="8">
    <path fill-rule="evenodd" clip-rule="evenodd" d="m273.119 187.229-3.813-.13-8.757-.297-6.493-.22-6.387 6.672 32.983.632-7.533-6.657Z" fill="#fff"/>
  </mask>
  <g mask="url(#n)">
    <path d="M260.462 187.508c2.066 3.505 2.681 2.353 4.065 4.194 2.332 3.103 11.461 1.667 11.327 2.184-.133.517-11.394 3.505-11.394 3.505l-5.264-2.586.467-5.229" fill="#191851" fill-opacity=".2"/>
  </g>
  <path clip-rule="evenodd" d="m273.119 187.229-3.813-.13-8.757-.297-6.493-.22-6.387 6.672 32.983.632-7.533-6.657v0Z" stroke="#323161" stroke-width=".695094" stroke-linecap="round" stroke-linejoin="round"/>
  <path d="m208.57 177.052 10.997 11.289 5.349-3.526s-7.581-9.731-8.491-10.924c-.909-1.194-7.855 3.161-7.855 3.161Z" fill="#000"/>
  <mask id="o" style="mask-type:luminance" maskUnits="userSpaceOnUse" x="208" y="173" width="17" height="16">
    <path fill-rule="evenodd" clip-rule="evenodd" d="m208.57 177.054 10.997 11.289 5.349-3.526s-7.581-9.731-8.491-10.924c-.909-1.194-7.855 3.161-7.855 3.161Z" fill="#fff"/>
  </mask>
  <g mask="url(#o)">
    <path d="M216.715 175.197c.291 5.369-2.619 4.215-1.455 6.824 1.164 2.609-.698 4.516-1.396 4.667-.698.15-4.655-7.125-4.655-7.125l3.084-1.706 4.422-2.66Z" fill="#454486"/>
  </g>
  <path clip-rule="evenodd" d="m208.57 177.052 10.997 11.289 5.349-3.526s-7.581-9.731-8.491-10.924c-.909-1.194-7.855 3.161-7.855 3.161Z" stroke="#323161" stroke-width=".695094" stroke-linecap="round" stroke-linejoin="round"/>
  <path d="m214.896 185.71.451 3.619c.148 1.193 1.51 1.98 2.846 1.646l19.573-4.898c-.492-1.596-2.015-2.8-3.902-3.084l-11.677-1.757s.807 2.619-7.291 4.474ZM269.942 187.121s3.818 4.784 1.182 6.765l14.606 2.77c5.937 1.026 8.029.391 7.664-1.301l.365-.181-17.579-8.592-6.238.539Z" fill="#454486" stroke="#323161" stroke-width=".695094" stroke-linecap="round" stroke-linejoin="round"/>
  <path d="M104.571 195.567c3.61.451 10.38-.904 10.831-.452.451.452-.903 1.355-.903 1.355s8.124.451 6.77 3.161c-.728 1.456-5.867-.452-7.672 0-1.805.451-5.867 1.355-9.026-.903s.451-2.71.451-2.71" fill="#000"/>
  <path d="M104.571 195.567c3.61.451 10.38-.904 10.831-.452.451.452-.903 1.355-.903 1.355s8.124.451 6.77 3.161c-.728 1.456-5.867-.452-7.672 0-1.805.451-5.867 1.355-9.026-.903s.451-2.71.451-2.71" stroke="#323161" stroke-width=".695094" stroke-linecap="round" stroke-linejoin="round"/>
  <path d="M145.187 126.024s6.531-6.127 8.198-14.873c.194-1.018.561-1.994 1.085-2.888 1.661-2.833 5.269-8.6261 6.893-8.4259 2.146.2649-3.089 7.2199-3.089 7.2199s2.302 2.956 2.708 4.968c.406 2.012-.208 3-2.625 5.419-3.611 3.612-4.596 9.031-4.596 9.031l-8.574-.451Z" fill="#C8C5FF"/>
  <mask id="p" style="mask-type:luminance" maskUnits="userSpaceOnUse" x="145" y="99" width="17" height="28">
    <path fill-rule="evenodd" clip-rule="evenodd" d="M145.187 126.024s6.531-6.127 8.198-14.873c.194-1.018.561-1.994 1.085-2.888 1.661-2.833 5.269-8.6261 6.893-8.4259 2.146.2649-3.089 7.2199-3.089 7.2199s2.302 2.956 2.708 4.968c.406 2.012-.208 3-2.625 5.419-3.611 3.612-4.596 9.031-4.596 9.031l-8.574-.451Z" fill="#fff"/>
  </mask>
  <g mask="url(#p)">
    <path d="M152.497 115.268c5.063 5.066 5.696.633 8.228 1.9l1.265.633-4.004 4.483-1.059.583-5.063-7.599" fill="#454486"/>
  </g>
  <path clip-rule="evenodd" d="M145.187 126.024s6.531-6.127 8.198-14.873c.194-1.018.561-1.994 1.085-2.888 1.661-2.833 5.269-8.6261 6.893-8.4259 2.146.2649-3.089 7.2199-3.089 7.2199s2.302 2.956 2.708 4.968c.406 2.012-.208 3-2.625 5.419-3.611 3.612-4.596 9.031-4.596 9.031l-8.574-.451Z" stroke="#323161" stroke-width=".695094" stroke-linecap="round" stroke-linejoin="round"/>
  <path d="M151.546 114.928c4.954 1.841 6.729 6.128 6.729 6.128s-4.924 17.354-8.535 22.773c-3.61 5.419-14.892 20.321-14.892 20.321l-29.786-10.386s29.334-11.741 32.945-16.709c3.61-4.967 13.539-22.127 13.539-22.127Z" fill="#908FC7"/>
  <mask id="q" style="mask-type:luminance" maskUnits="userSpaceOnUse" x="105" y="114" width="54" height="51">
    <path fill-rule="evenodd" clip-rule="evenodd" d="M151.546 114.928c4.954 1.841 6.729 6.128 6.729 6.128s-4.924 17.354-8.535 22.773c-3.61 5.419-14.892 20.321-14.892 20.321l-29.786-10.386s29.334-11.741 32.945-16.709c3.61-4.967 13.539-22.127 13.539-22.127Z" fill="#fff"/>
  </mask>
  <g mask="url(#q)">
    <path d="M115.251 154.292c15.812-.691 20.945 8.046 30.64-5.003s3.239 14.229 3.239 14.229l-20.535 6.237-13.82-3.814" fill="#454486"/>
  </g>
  <path clip-rule="evenodd" d="M151.546 114.928c4.954 1.841 6.729 6.128 6.729 6.128s-4.924 17.354-8.535 22.773c-3.61 5.419-14.892 20.321-14.892 20.321l-29.786-10.386s29.334-11.741 32.945-16.709c3.61-4.967 13.539-22.127 13.539-22.127Z" stroke="#323161" stroke-width=".695094" stroke-linecap="round" stroke-linejoin="round"/>
  <path d="M210.37 182.665s6.718-3.807 9.196-6.064c0 0-10.997-30.909-22.343-32.113-4.946-.525-52.519 21.017-52.519 21.017l8.728 16.709s-10.476-13.999-4.956.903c5.52 14.902 42.287-13.51 46.102-17.354l15.792 16.902Z" fill="#000"/>
  <mask id="r" style="mask-type:luminance" maskUnits="userSpaceOnUse" x="144" y="144" width="76" height="44">
    <path fill-rule="evenodd" clip-rule="evenodd" d="M210.37 182.665s6.718-3.807 9.196-6.064c0 0-10.997-30.909-22.343-32.113-4.946-.525-52.519 21.017-52.519 21.017l8.728 16.709s-10.476-13.999-4.956.903c5.52 14.902 42.287-13.51 46.102-17.354l15.792 16.902Z" fill="#fff"/>
  </mask>
  <g mask="url(#r)">
    <path d="m217.721 167.512-15.284 11.714 6.829 6.917 15.649-7.351-8.173-12.851" fill="#000"/>
    <path d="m217.721 167.512-15.284 11.714 6.829 6.917 15.649-7.351-8.173-12.851" stroke="#323161" stroke-width=".695094" stroke-linecap="round" stroke-linejoin="round"/>
  </g>
  <path clip-rule="evenodd" d="M210.37 182.665s6.718-3.807 9.196-6.064c0 0-10.997-30.909-22.343-32.113-4.946-.525-52.519 21.017-52.519 21.017l8.728 16.709s-10.476-13.999-4.956.903c5.52 14.902 42.287-13.51 46.102-17.354l15.792 16.902Z" stroke="#323161" stroke-width=".695094" stroke-linecap="round" stroke-linejoin="round"/>
  <path d="M161.852 175.543c18.589 2.505 47.155 6.328 48.783 6.383 2.425.082 46.438 3.789 49.642 4.395 3.203.606 4.415 9.565 3.404 10.42 0 0-50.175-.912-57.45-1.159-7.275-.246-68.775 7.814-73.675-4.554-3.823-9.65 13.5-17.62 13.5-17.62" fill="#000"/>
  <mask id="s" style="mask-type:luminance" maskUnits="userSpaceOnUse" x="132" y="173" width="133" height="25">
    <path fill-rule="evenodd" clip-rule="evenodd" d="M161.852 175.543c18.589 2.505 47.155 6.328 48.783 6.383 2.425.082 46.438 3.789 49.642 4.395 3.203.606 4.415 9.565 3.404 10.42 0 0-50.175-.912-57.45-1.159-7.275-.246-68.775 7.814-73.675-4.554-3.823-9.65 13.5-17.62 13.5-17.62" fill="#fff"/>
  </mask>
  <g mask="url(#s)">
    <path d="M148.913 170.008c12.574 1.952-13.007 26.495 17.994 26.805 31.001.311-33.603 15.279-33.603 15.279s-8.021-24.31-7.37-24.086c.65.224 17.656-12.916 17.656-12.916" fill="#191851" fill-opacity=".2"/>
    <path d="M251.756 183.293c6.016 5.532 4.228 17.571 4.228 17.571l11.056-.162-4.065-18.548" fill="#000"/>
    <path d="M251.756 183.293c6.016 5.532 4.228 17.571 4.228 17.571l11.056-.162-4.065-18.548" stroke="#323161" stroke-width=".695094" stroke-linecap="round" stroke-linejoin="round"/>
    <path d="M152.901 178.467c7.371 4.121 2.71 12.584 2.71 12.584l-2.71-12.584Z" fill="#000"/>
    <path d="M152.901 178.467c7.371 4.121 2.71 12.584 2.71 12.584" stroke="#323161" stroke-width=".695094" stroke-linecap="round" stroke-linejoin="round"/>
  </g>
  <path d="M161.852 175.543c18.589 2.505 47.155 6.328 48.783 6.383 2.425.082 46.438 3.789 49.642 4.395 3.203.606 4.415 9.565 3.404 10.42 0 0-50.175-.912-57.45-1.159-7.275-.246-68.775 7.814-73.675-4.554-3.823-9.65 13.5-17.62 13.5-17.62" stroke="#323161" stroke-width=".695094" stroke-linecap="round" stroke-linejoin="round"/>
  <path d="M122.945 154.198c3.201 1.478 6.14 3.467 8.703 5.888 7.672 7.225 22.113-4.516 22.153 9.483.023 7.887-11.282 33.417-23.467 29.353-12.185-4.064-38.8116-9.031-38.8116-9.031l-.9026-16.257-.0402-9.226s12.5274-11.488 20.3954-13.094" fill="#908FC7"/>
  <mask id="t" style="mask-type:luminance" maskUnits="userSpaceOnUse" x="90" y="151" width="64" height="49">
    <path fill-rule="evenodd" clip-rule="evenodd" d="M122.945 154.198c3.201 1.478 6.14 3.467 8.703 5.888 7.672 7.225 22.113-4.516 22.153 9.483.023 7.887-11.282 33.417-23.467 29.353-12.185-4.064-38.8116-9.031-38.8116-9.031l-.9026-16.257-.0402-9.226s12.5274-11.488 20.3954-13.094" fill="#fff"/>
  </mask>
  <g mask="url(#t)">
    <path d="M94.6562 171.375c4.0617 7.225 3.5963 15.16 14.8788 17.418 11.282 2.258 28.883 15.354 28.883 15.805 0 .452-41.0681 4.516-41.0681 4.516l-16.698-16.708 14.0043-21.031Z" fill="#191851" fill-opacity=".2"/>
    <path d="M105.06 154.185c1.26 2.184 1.035 7.267-2.932 9.558-3.9673 2.292-10.1747.926-11.4346-1.258-1.2598-2.184.9348-5.812 4.902-8.103 3.9671-2.292 8.2046-2.38 9.4646-.197Z" fill="#BEBDE3" stroke="#323161" stroke-width=".695094" stroke-linecap="round" stroke-linejoin="round"/>
  </g>
  <path d="M122.945 154.198c3.201 1.478 6.14 3.467 8.703 5.888 7.672 7.225 22.113-4.516 22.153 9.483.023 7.887-11.282 33.418-23.467 29.353-12.185-4.064-38.8116-9.031-38.8116-9.031l-.9026-16.257-.0402-9.226s12.5274-11.488 20.3954-13.094" stroke="#BEBDE3" stroke-width=".695094" stroke-linecap="round" stroke-linejoin="round"/>
  <path d="M96.2566 149.42c.6574 4.656 4.7374 6.481 6.6824 7.093.277.087.503.289.62.555.118.265.115.569-.007.832-.835 1.805-3.12 5.126-8.5609 4.81-.5582-.032-1.0262-.433-1.1444-.979-.2226-1.038-1.1225-2.924-4.4498-5.226-5.116-3.539 6.8597-7.085 6.8597-7.085Z" fill="#BEBDE3"/>
  <mask id="u" style="mask-type:luminance" maskUnits="userSpaceOnUse" x="88" y="149" width="16" height="14">
    <path fill-rule="evenodd" clip-rule="evenodd" d="M96.2566 149.42c.6574 4.656 4.7374 6.481 6.6824 7.093.277.087.503.289.62.555.118.265.115.569-.007.832-.835 1.805-3.12 5.126-8.5609 4.81-.5582-.032-1.0262-.433-1.1444-.979-.2226-1.038-1.1225-2.924-4.4498-5.226-5.116-3.539 6.8597-7.085 6.8597-7.085Z" fill="#fff"/>
  </mask>
  <g mask="url(#u)">
    <ellipse cx="98.5844" cy="147.587" rx="8.04589" ry="6.99415" transform="rotate(-60.495 98.5844 147.587)" fill="#454486"/>
  </g>
  <path clip-rule="evenodd" d="M96.2566 149.42c.6574 4.656 4.7374 6.481 6.6824 7.093.277.087.503.289.62.555.118.265.115.569-.007.832-.835 1.805-3.12 5.126-8.5609 4.81-.5582-.032-1.0262-.433-1.1444-.979-.2226-1.038-1.1225-2.924-4.4498-5.226-5.116-3.539 6.8597-7.085 6.8597-7.085Z" stroke="#BEBDE3" stroke-width=".695094" stroke-linecap="round" stroke-linejoin="round"/>
  <path d="M95.0336 154.924c4.1787-2.215 6.9734-6.909-5.3669-16.52l-6.2575 1.767-1.6836 5.96s-1.0364 1.84-.709 2.519 13.9741 14.06 13.9741 14.06" fill="#BEBDE3"/>
  <mask id="v" style="mask-type:luminance" maskUnits="userSpaceOnUse" x="80" y="138" width="19" height="25">
    <path fill-rule="evenodd" clip-rule="evenodd" d="M95.0336 154.924c4.1787-2.215 6.9734-6.909-5.3669-16.52l-6.2575 1.767-1.6836 5.96s-1.0364 1.84-.709 2.519 13.9741 14.06 13.9741 14.06" fill="#fff"/>
  </mask>
  <g mask="url(#v)">
    <ellipse cx="96.8927" cy="144.601" rx="1.91018" ry="1.45471" transform="rotate(-40.562 96.8927 144.601)" fill="#454486" opacity=".27"/>
    <ellipse cx="90.0343" cy="150.463" rx="1.91018" ry="1.45471" transform="rotate(-40.562 90.0343 150.463)" fill="#454486" opacity=".27"/>
    <path d="M92.3627 142.669c.267-.263.697-.26.9605.007l.8058.816c.2635.267.2607.697-.0063.96-.2669.264-.6969.261-.9604-.006l-.8058-.816c-.2635-.267-.2607-.697.0063-.961h-.0001ZM88.5029 145.943c.1282-.127.3014-.197.4815-.196.1801.001.3524.074.4789.202l.8058.816c.2635.267.2607.697-.0062.961-.267.263-.697.261-.9605-.006l-.8058-.817c-.2635-.267-.2607-.697.0063-.96Z" fill="#323161"/>
    <path d="M91.3607 141.41c1.2703-.686 1.5289.12.7628.601-.7661.48-1.5927-.153-.7628-.601ZM87.3725 144.734c-.7027 1.262-.016 1.564.4746.804.4906-.76-.0156-1.628-.4746-.804ZM91.9298 146.48c.2834.361.4802-.025.8617-.324.3814-.3.803-.399.5195-.761-.308-.351-.8368-.4-1.2041-.112-.3674.289-.4452.814-.1771 1.197ZM95.6159 146.679c1.6204 2.952-1.6688 3.861-3.0157 2.306-.0684-.082-.0785-.198-.0252-.29.2209-.393.946-1.435 2.721-2.13.1202-.047.2566.001.3199.114Z" fill="#454486"/>
    <mask id="w" style="mask-type:luminance" maskUnits="userSpaceOnUse" x="92" y="146" width="5" height="4">
      <path fill-rule="evenodd" clip-rule="evenodd" d="M95.6159 146.679c1.6204 2.952-1.6688 3.861-3.0157 2.306-.0684-.082-.0785-.198-.0252-.29.2209-.393.946-1.435 2.721-2.13.1202-.047.2566.001.3199.114Z" fill="#fff"/>
    </mask>
    <g mask="url(#w)">
      <ellipse cx="94.942" cy="149.592" rx="1.68737" ry="1.50678" transform="rotate(-20.286 94.942 149.592)" fill="#454486" opacity=".29"/>
      <path d="M94.829 146.635c.1345.173.3012.42.2895.498-.0714.479-1.5054 1.416-1.8064 1.41-.0838-.002-.526-.552-.526-.552l1.7653-1.29" fill="#BEBDE3"/>
    </g>
  </g>
  <path d="M95.0336 154.924c4.1787-2.215 6.9734-6.909-5.3669-16.52l-6.2575 1.767-1.6836 5.96s-1.0364 1.84-.709 2.519 13.9741 14.06 13.9741 14.06" stroke="#323161" stroke-width=".695094" stroke-linecap="round" stroke-linejoin="round"/>
  <path d="M85.527 151.412c-2.5674-3.155-.4545-9.699 4.1401-13.006 4.5945-3.308-5.3102-11.79-9.7811-5.278 0 0-11.2066 2.98-5.6431 12.824.6073 1.075.3062 2.449-.3041 3.522-1.0043 1.765-2.3092 4.291 1.8727 6 1.4335.586 3.2826-.067 4.0213 1.294 1.461 2.693 6.8834 3.958 8.2926.984 2.7536-5.811-2.5984-6.34-2.5984-6.34Z" fill="#BEBDE3" stroke="#323161" stroke-width=".695094" stroke-linecap="round" stroke-linejoin="round"/>
  <path d="m85.4656 151.026.4495-1.324s-.4012-6.736 5.5611-9.833l-2.2524-1.92s-8.4894 8.442-5.3928 12.651l1.3158.262.3188.164Z" fill="#454486" stroke="#323161" stroke-width=".695094" stroke-linecap="round" stroke-linejoin="round"/>
  <path d="M86.6218 149.173s-3.7287-1.152-3.7287 1.152c0 2.305 6.224 2.4 6.224 2.4" fill="#BEBDE3"/>
  <path d="M86.6218 149.173s-3.7287-1.152-3.7287 1.152c0 2.305 6.224 2.4 6.224 2.4" stroke="#323161" stroke-width=".695094" stroke-linecap="round" stroke-linejoin="round"/>
  <path d="M114.5 196.472c4.331-.334 11.002-.296 13.342-.782 1.24-.257 2.531-.043 3.622.599 5.593 3.292 6.731 3.062 6.731 3.908 0 .904-21.541 1.587-21.541 1.587l-3.057-2.151" fill="#C8C5FF"/>
  <mask id="x" style="mask-type:luminance" maskUnits="userSpaceOnUse" x="113" y="195" width="26" height="7">
    <path fill-rule="evenodd" clip-rule="evenodd" d="M114.5 196.472c4.331-.334 11.002-.296 13.342-.782 1.24-.257 2.531-.043 3.622.599 5.593 3.292 6.731 3.062 6.731 3.908 0 .904-21.541 1.587-21.541 1.587l-3.057-2.151" fill="#fff"/>
  </mask>
  <g mask="url(#x)">
    <path d="M120.191 195.023c4.634 2.33 2.52 6.556 7.235 6.761 4.716.205-8.942 2.646-8.942 2.646l-.976-6.82" fill="#454486"/>
  </g>
  <path d="M114.5 196.472c4.331-.334 11.002-.296 13.342-.782 1.24-.257 2.531-.043 3.622.599 5.593 3.292 6.731 3.062 6.731 3.908 0 .904-21.541 1.587-21.541 1.587l-3.057-2.151" stroke="#323161" stroke-width=".695094" stroke-linecap="round" stroke-linejoin="round"/>
  <path d="M96.4331 173.407c1.1722 6.532.9567 14.225.9567 14.225l23.8782 7.226s1.806 3.161 1.354 7.225c0 0-37.4574 5.419-39.7139-3.613-2.2565-9.031 1.8052-34.257 8.1234-34.063" fill="#908FC7"/>
  <path d="M96.4331 173.407c1.1722 6.532.9567 14.225.9567 14.225l23.8782 7.226s1.806 3.161 1.354 7.225c0 0-37.4574 5.419-39.7139-3.613-2.2565-9.031 1.8052-34.257 8.1234-34.063" stroke="#323161" stroke-width=".695094" stroke-linecap="round" stroke-linejoin="round"/>
  <path d="M79.7626 133.254c-.336.611-.3089 1.358.0705 1.943l-.0705-1.943Z" fill="#FCF7F0"/>
  <path d="M79.7626 133.254c-.336.611-.3089 1.358.0705 1.943" stroke="#323161" stroke-width=".695094" stroke-linecap="round" stroke-linejoin="round"/>
  <path d="M74.3057 146.148c.2776.776.8076 1.436 1.5052 1.874l-1.5052-1.874Z" fill="#FCF7F0"/>
  <path d="M74.3057 146.148c.2776.776.8076 1.436 1.5052 1.874" stroke="#323161" stroke-width=".695094" stroke-linecap="round" stroke-linejoin="round"/>
  <path d="m85.289 150.403-.0541.081.0541-.081Z" fill="#FCF7F0"/>
  <path d="m85.289 150.403-.0541.081" stroke="#323161" stroke-width=".695094" stroke-linecap="round" stroke-linejoin="round"/>
  <path d="M97.4609 187.689c-.364.759-.8636 1.445-1.4741 2.025l1.4741-2.025Z" fill="#FCF7F0"/>
  <path d="M97.4609 187.689c-.364.759-.8636 1.445-1.4741 2.025" stroke="#323161" stroke-width=".695094" stroke-linecap="round" stroke-linejoin="round"/>
  <path d="m147.37 143.012 2.055.556-2.055-.556Z" fill="#FCF7F0"/>
  <path d="m147.37 143.012 2.055.556" stroke="#323161" stroke-width=".695094" stroke-linecap="round" stroke-linejoin="round"/>
  <path d="M194.599 163.291c.18.776.124 1.589-.161 2.333l.161-2.333Z" fill="#FCF7F0"/>
  <path d="M194.599 163.291c.18.776.124 1.589-.161 2.333M117.492 174.025c-.259 2.175-1.181 4.218-2.64 5.851M273.429 193.982c.927 1.28 2.104 2.357 3.46 3.166M273.327 193.869l-1.282 1.214M222.703 178.902c.098.707.28 1.399.542 2.062M224.455 178.803c-.435.645-.818 1.323-1.148 2.028" stroke="#323161" stroke-width=".695094" stroke-linecap="round" stroke-linejoin="round"/>
  <path d="m194.936 188.068-.906 5.2.906-5.2Z" fill="#FCF7F0"/>
  <path d="m194.936 188.068-.906 5.2" stroke="#323161" stroke-width=".695094" stroke-linecap="round" stroke-linejoin="round"/>
  <path d="M81.494 143.912v.868-.868Z" fill="#FCF7F0"/>
  <path d="M81.494 143.912v.868" stroke="#323161" stroke-width=".695094" stroke-linecap="round" stroke-linejoin="round"/>
  <defs>
    <linearGradient id="b" x1="198.077" y1="46.3203" x2="198.077" y2="310.743" gradientUnits="userSpaceOnUse">
      <stop stop-color="#FFF4F0"/>
      <stop offset=".776042" stop-color="#FFFBFA"/>
    </linearGradient>
    <linearGradient id="c" x1="198.077" y1="58.4611" x2="198.077" y2="312.471" gradientUnits="userSpaceOnUse">
      <stop offset=".208333" stop-color="#524BE8"/>
      <stop offset="1" stop-color="#181465"/>
    </linearGradient>
    <linearGradient id="d" x1="185.761" y1="32.7734" x2="185.761" y2="297.828" gradientUnits="userSpaceOnUse">
      <stop stop-color="#FFF4F0"/>
      <stop offset=".776042" stop-color="#FFFBFA"/>
    </linearGradient>
    <linearGradient id="e" x1="185.761" y1="44.9432" x2="185.761" y2="299.56" gradientUnits="userSpaceOnUse">
      <stop offset=".208333" stop-color="#3E37D4"/>
      <stop offset="1" stop-color="#040051"/>
    </linearGradient>
    <linearGradient id="f" x1="191.779" y1="83.9629" x2="191.779" y2="262.271" gradientUnits="userSpaceOnUse">
      <stop stop-color="#FFF4F0"/>
      <stop offset=".776042" stop-color="#FFFBFA"/>
    </linearGradient>
    <linearGradient id="g" x1="191.779" y1="92.1498" x2="191.779" y2="263.437" gradientUnits="userSpaceOnUse">
      <stop offset=".208333" stop-color="#524BE8"/>
      <stop offset="1" stop-color="#181465"/>
    </linearGradient>
    <linearGradient id="h" x1="186.122" y1="69.998" x2="186.122" y2="248.297" gradientUnits="userSpaceOnUse">
      <stop stop-color="#FFF4F0"/>
      <stop offset=".776042" stop-color="#FFFBFA"/>
    </linearGradient>
    <linearGradient id="i" x1="186.122" y1="78.1845" x2="186.122" y2="249.462" gradientUnits="userSpaceOnUse">
      <stop offset=".208333" stop-color="#665FFC"/>
      <stop offset="1" stop-color="#2C2879"/>
    </linearGradient>
    <linearGradient id="k" x1="183.473" y1="195.54" x2="183.473" y2="334.648" gradientUnits="userSpaceOnUse">
      <stop offset=".208333" stop-color="#02007D"/>
      <stop offset="1" stop-color="#0A0A1F"/>
    </linearGradient>
    <radialGradient id="a" cx="0" cy="0" r="1" gradientUnits="userSpaceOnUse" gradientTransform="matrix(0 152.843 -148.348 0 190.519 171.876)">
      <stop stop-color="#3730C2"/>
      <stop offset="1" stop-color="#3E37D3" stop-opacity=".2"/>
    </radialGradient>
    <filter id="m" x="113.241" y="190.338" width="142.639" height="141.376" filterUnits="userSpaceOnUse" color-interpolation-filters="sRGB">
      <feFlood flood-opacity="0" result="BackgroundImageFix"/>
      <feColorMatrix in="SourceAlpha" type="matrix" values="0 0 0 0 0 0 0 0 0 0 0 0 0 0 0 0 0 0 127 0" result="hardAlpha"/>
      <feOffset/>
      <feGaussianBlur stdDeviation="13.033"/>
      <feComposite in2="hardAlpha" operator="out"/>
      <feColorMatrix type="matrix" values="0 0 0 0 0.34902 0 0 0 0 0.32549 0 0 0 0 0.870588 0 0 0 0.3 0"/>
      <feBlend mode="normal" in2="BackgroundImageFix" result="effect1_dropShadow_1559_32060"/>
      <feBlend mode="normal" in="SourceGraphic" in2="effect1_dropShadow_1559_32060" result="shape"/>
    </filter>
  </defs>
</svg>
