<svg fill="none" xmlns="http://www.w3.org/2000/svg" viewBox="0 0 367 343">
  <path d="M314.515 277.848s.094-.12.148-.174c-.255.322-.268.349-.148.174Z" fill="#fff"/>
  <path d="M45.1731 150.451c.1671-1.33.4297-2.661.7997-4.003.2387-1.102.561-2.18.9548-3.223C64.2458 85.5421 113.539 36.0909 172.487 22.4071c30.972-7.1894 66.719-5.3202 94.934 10.5804 14.465 8.16 26.377 20.8493 37.298 33.1672 11.267 12.7013 19.084 26.6367 25.076 42.4773 10.682 28.243 10.825 60.355 4.702 89.628-2.936 14.055-8.104 27.775-14.62 40.548-2.722 5.333-5.849 10.473-9.382 15.314-2.017 2.756-4.153 5.488-6.254 8.172 7.305-9.334-2.244 2.948-3.127 4.098-2.423 3.079-4.905 6.087-7.555 8.975-38.467 41.794-102.25 60.63-156.317 40.8-16.053-5.896-29.957-13.864-42.9908-24.96-4.9054-4.17-8.7725-9.01-13.1169-13.707-6.2064-6.723-12.1382-12.858-17.5808-20.382-22.1996-30.699-25.3267-70.397-18.3804-106.643v-.024Z" fill="url(#a)" fill-opacity=".5"/>
  <path d="M175.955 224.958c33.924 5.601 65.974-17.31 71.585-51.174 5.611-33.863-17.341-65.856-51.266-71.457-33.924-5.6009-65.974 17.31-71.585 51.174-5.611 33.864 17.342 65.856 51.266 71.457Z" fill="#251F9B"/>
  <path d="M73.6261 165.589C95.9399 83.4127 190.533 19.1594 272.765 56.6293c66.112 36.9061 66.379 140.8717 22.876 195.1367-79.075 108.167-253.7866 58.171-222.0149-86.177Zm28.1869 38.772c2.528 52.748 54.861 81.585 102.713 68.106 39.838-11.21 73.456-45.511 84.559-85.317 13.164-53.097-8.682-117.4848-73.483-108.6778C154.895 81.3049 98.9098 143.88 101.799 204.361h.014Z" fill="url(#b)"/>
  <path d="M73.6261 165.589C95.9399 83.4127 190.533 19.1594 272.765 56.6293c66.112 36.9061 66.379 140.8717 22.876 195.1367-79.075 108.167-253.7866 58.171-222.0149-86.177Zm28.1869 38.772c2.528 52.748 54.861 81.585 102.713 68.106 39.838-11.21 73.456-45.511 84.559-85.317 13.164-53.097-8.682-117.4848-73.483-108.6778C154.895 81.3049 98.9098 143.88 101.799 204.361h.014Z" fill="url(#c)"/>
  <path d="M60.8363 152.042C83.1501 69.8658 177.756 5.61254 259.988 43.0824c66.099 36.8927 67.918 141.7846 24.414 196.0496-79.074 108.167-255.3374 57.258-223.5523-87.09h-.0134Zm28.1866 38.772c2.5284 52.748 54.8611 81.585 102.7131 68.106 39.838-11.21 73.456-45.511 84.56-85.317 13.163-53.097-8.682-117.4846-73.483-108.6777C142.105 67.7581 86.1199 130.333 89.0095 190.814h.0134Z" fill="url(#d)"/>
  <path d="M60.8363 152.042C83.1501 69.8658 177.756 5.61254 259.988 43.0824c66.099 36.8927 67.918 141.7846 24.414 196.0496-79.074 108.167-255.3374 57.258-223.5523-87.09h-.0134Zm28.1866 38.772c2.5284 52.748 54.8611 81.585 102.7131 68.106 39.838-11.21 73.456-45.511 84.56-85.317 13.163-53.097-8.682-117.4846-73.483-108.6777C142.105 67.7581 86.1199 130.333 89.0095 190.814h.0134Z" fill="url(#e)"/>
  <path d="M140.968 93.9634c106.285-53.4997 199.38 109.4826 94.219 163.0896-19.986 7.492-42.648 4.511-62.955.148-70.059-15.385-101.041-127.204-31.277-163.2242l.013-.0134Zm-7.464 69.7976c.401 27.549 20.187 55.782 47.263 62.361 43.316 11.223 72.051-4.686 67.102-52.439-9.044-68.429-113.91-81.0353-114.379-9.922h.014Z" fill="url(#f)"/>
  <path d="M140.968 93.9634c106.285-53.4997 199.38 109.4826 94.219 163.0896-19.986 7.492-42.648 4.511-62.955.148-70.059-15.385-101.041-127.204-31.277-163.2242l.013-.0134Zm-7.464 69.7976c.401 27.549 20.187 55.782 47.263 62.361 43.316 11.223 72.051-4.686 67.102-52.439-9.044-68.429-113.91-81.0353-114.379-9.922h.014Z" fill="url(#g)"/>
  <path d="M135.31 80.0027C241.609 26.4896 334.69 189.486 229.529 243.079c-19.986 7.492-42.648 4.511-62.955.148-70.0585-15.385-101.041-127.204-31.277-163.2243h.013Zm-7.464 69.7983c.401 27.548 20.187 55.782 47.263 62.36 43.316 11.223 72.051-4.685 67.102-52.439-9.044-68.4287-113.91-81.035-114.379-9.921h.014Z" fill="url(#h)"/>
  <path d="M135.31 80.0027C241.609 26.4896 334.69 189.486 229.529 243.079c-19.986 7.492-42.648 4.511-62.955.148-70.0585-15.385-101.041-127.204-31.277-163.2243h.013Zm-7.464 69.7983c.401 27.548 20.187 55.782 47.263 62.36 43.316 11.223 72.051-4.685 67.102-52.439-9.044-68.4287-113.91-81.035-114.379-9.921h.014Z" fill="url(#i)"/>
  <path d="m317.642 158.661-20.94 12.399-3.362-20.091 20.94-12.399 3.362 20.091Z" fill="#6760FD" stroke="#9893FF" stroke-width=".695094" stroke-linecap="round" stroke-linejoin="round"/>
  <path d="m317.642 158.662 15.77 11.988-20.94 12.399-15.77-11.988 20.94-12.399Z" fill="#6760FD"/>
  <mask id="j" style="mask-type:luminance" maskUnits="userSpaceOnUse" x="296" y="158" width="38" height="26">
    <path fill-rule="evenodd" clip-rule="evenodd" d="m317.642 158.662 15.77 11.988-20.94 12.399-15.77-11.988 20.94-12.399Z" fill="#fff"/>
  </mask>
  <g mask="url(#j)">
    <path d="M288.189 183.195h53.737-53.737Z" fill="#FCF7F0"/>
    <path d="M288.189 183.195h53.737" stroke="#9893FF" stroke-width=".695094" stroke-linecap="round" stroke-linejoin="round"/>
    <path d="M288.189 181.138h53.737-53.737Z" fill="#FCF7F0"/>
    <path d="M288.189 181.138h53.737" stroke="#9893FF" stroke-width=".695094" stroke-linecap="round" stroke-linejoin="round"/>
    <path d="M288.189 179.081h53.737-53.737Z" fill="#FCF7F0"/>
    <path d="M288.189 179.081h53.737" stroke="#9893FF" stroke-width=".695094" stroke-linecap="round" stroke-linejoin="round"/>
    <path d="M288.189 177.025h53.737-53.737Z" fill="#FCF7F0"/>
    <path d="M288.189 177.025h53.737" stroke="#9893FF" stroke-width=".695094" stroke-linecap="round" stroke-linejoin="round"/>
    <path d="M288.189 174.968h53.737-53.737Z" fill="#FCF7F0"/>
    <path d="M288.189 174.968h53.737" stroke="#9893FF" stroke-width=".695094" stroke-linecap="round" stroke-linejoin="round"/>
    <path d="M288.189 172.911h53.737-53.737Z" fill="#FCF7F0"/>
    <path d="M288.189 172.911h53.737" stroke="#9893FF" stroke-width=".695094" stroke-linecap="round" stroke-linejoin="round"/>
    <path d="M288.189 170.855h53.737-53.737Z" fill="#FCF7F0"/>
    <path d="M288.189 170.855h53.737" stroke="#9893FF" stroke-width=".695094" stroke-linecap="round" stroke-linejoin="round"/>
    <path d="M288.189 168.798h53.737-53.737Z" fill="#FCF7F0"/>
    <path d="M288.189 168.798h53.737" stroke="#9893FF" stroke-width=".695094" stroke-linecap="round" stroke-linejoin="round"/>
    <path d="M288.189 166.741h53.737-53.737Z" fill="#FCF7F0"/>
    <path d="M288.189 166.741h53.737" stroke="#9893FF" stroke-width=".695094" stroke-linecap="round" stroke-linejoin="round"/>
    <path d="M288.189 164.685h53.737-53.737Z" fill="#FCF7F0"/>
    <path d="M288.189 164.685h53.737" stroke="#9893FF" stroke-width=".695094" stroke-linecap="round" stroke-linejoin="round"/>
    <path d="M288.189 162.628h53.737-53.737Z" fill="#FCF7F0"/>
    <path d="M288.189 162.628h53.737" stroke="#9893FF" stroke-width=".695094" stroke-linecap="round" stroke-linejoin="round"/>
    <path d="M288.189 160.57h53.737-53.737Z" fill="#FCF7F0"/>
    <path d="M288.189 160.57h53.737" stroke="#9893FF" stroke-width=".695094" stroke-linecap="round" stroke-linejoin="round"/>
    <path d="M288.189 158.513h53.737-53.737Z" fill="#FCF7F0"/>
    <path d="M288.189 158.513h53.737" stroke="#9893FF" stroke-width=".695094" stroke-linecap="round" stroke-linejoin="round"/>
  </g>
  <path clip-rule="evenodd" d="m317.642 158.662 15.77 11.988-20.94 12.399-15.77-11.988 20.94-12.399v0Z" stroke="#9893FF" stroke-width=".695094" stroke-linecap="round" stroke-linejoin="round"/>
  <path d="m314.28 138.57 15.77 11.988 3.362 20.091-15.77-11.988-3.362-20.091Z" fill="#6760FD" stroke="#9893FF" stroke-width=".695094" stroke-linecap="round" stroke-linejoin="round"/>
  <path d="M304.82 156.92c-.282 1.128-.946 2.124-1.88 2.817l1.88-2.817Z" fill="#FCF7F0"/>
  <path d="M304.82 156.92c-.282 1.128-.946 2.124-1.88 2.817" stroke="#9893FF" stroke-width=".695094" stroke-linecap="round" stroke-linejoin="round"/>
  <path d="m326.803 151.473-.264.775.264-.775Z" fill="#FCF7F0"/>
  <path d="m326.803 151.473-.264.775" stroke="#9893FF" stroke-width=".695094" stroke-linecap="round" stroke-linejoin="round"/>
  <mask id="k" fill="#fff">
    <path d="M336.584 189c6.399 0 11.585 5.187 11.585 11.585v121.642c0 6.398-5.186 11.585-11.585 11.585H29.5845c-6.3979-.001-11.5848-5.188-11.585-11.585V200.585c0-6.398 5.187-11.585 11.585-11.585H336.584Z"/>
  </mask>
  <path d="M336.584 189c6.399 0 11.585 5.187 11.585 11.585v121.642c0 6.398-5.186 11.585-11.585 11.585H29.5845c-6.3979-.001-11.5848-5.188-11.585-11.585V200.585c0-6.398 5.187-11.585 11.585-11.585H336.584Z" fill="#252529"/>
  <path d="M348.169 322.227h.724-.724ZM29.5845 333.812l-.0001.724h.0001v-.724Zm-11.585-11.585h-.724.724ZM29.5845 189v-.724h-.0001l.0001.724Zm306.9995 0v.724c5.999 0 10.861 4.863 10.861 10.861h1.448c0-6.798-5.51-12.309-12.309-12.309V189Zm11.585 11.585h-.724v121.642h1.448V200.585h-.724Zm0 121.642h-.724c0 5.998-4.862 10.86-10.861 10.86V334.536c6.798 0 12.309-5.512 12.309-12.309h-.724Zm-11.585 11.585v-.725H29.5845V334.536H336.584v-.724Zm-306.9995 0v-.725c-5.998 0-10.8608-4.862-10.8609-10.86h-1.4481c.0001 6.797 5.5112 12.308 12.3089 12.309l.0001-.724Zm-11.585-11.585h.7241V200.585h-1.4481v121.642h.724Zm0-121.642h.7241c0-5.998 4.8628-10.861 10.8609-10.861V189l-.0001-.724c-6.7978 0-12.3089 5.511-12.3089 12.309h.724ZM29.5845 189v.724H336.584v-1.448H29.5845V189Z" fill="#46464A" mask="url(#k)"/>
  <path fill-rule="evenodd" clip-rule="evenodd" d="M247.429 82.0938h-66.635c-1.879.0008-3.402 2.0052-3.401 4.4769v29.1913l-6.208 5.617c-.492.445-.177 1.261.485 1.261h5.723v7.684c-.001 2.472 1.522 4.476 3.401 4.477H247.429c1.879-.001 3.402-2.005 3.401-4.477V86.5707c.001-2.4717-1.522-4.4761-3.401-4.4769Z" fill="#9691FF"/>
  <path d="M180.794 82.0938v-.3476.3476Zm66.635 0v-.3476.3476Zm-70.036 4.4769h.348v-.0001l-.348.0001Zm0 29.1913.233.258c.073-.066.115-.16.115-.258h-.348Zm-6.208 5.617.233.258-.233-.258Zm6.208 1.261h.348c0-.192-.156-.347-.348-.347v.347Zm0 7.684h.348-.348Zm3.401 4.477v.348-.348Zm50.803 0v-.348.348Zm15.832 0v.348-.348Zm3.401-4.477h-.348.348Zm0-43.7533-.348-.0001v.0001h.348Zm-70.036-4.4769v.3475h66.635v-.6951h-66.635v.3476Zm-3.401 4.4769.348-.0001c-.001-1.1668.359-2.2103.924-2.9547.566-.7441 1.322-1.1742 2.129-1.1746v-.6951c-1.072.0005-2.017.573-2.682 1.4492-.666.876-1.067 2.0705-1.067 3.3754l.348-.0001Zm0 29.1913h.348V86.5707h-.696v29.1913h.348Zm-6.208 5.617.233.258 6.208-5.617-.233-.258-.233-.258-6.209 5.618.234.257Zm.485 1.261v-.347c-.344 0-.508-.425-.252-.656l-.233-.258-.234-.257c-.727.658-.261 1.866.719 1.866v-.348Zm5.723 0v-.347h-5.723v.695h5.723v-.348Zm0 7.684h.348v-7.684h-.696v7.684h.348Zm3.401 4.477v-.348c-.807 0-1.563-.43-2.129-1.174-.565-.744-.925-1.788-.924-2.955h-.696c0 1.305.401 2.499 1.067 3.375.665.877 1.61 1.449 2.682 1.45v-.348Zm50.803 0v-.348h-50.803v.696h50.803v-.348Zm15.832 0v-.347l-15.832-.001v.696h15.832v-.348Zm3.401-4.477h-.348c.001 1.167-.359 2.211-.924 2.955-.566.744-1.322 1.174-2.129 1.175v.695c1.072-.001 2.016-.573 2.682-1.45.665-.876 1.067-2.07 1.066-3.375h-.347Zm0-43.7533h-.348v43.7533h.695V86.5707h-.347Zm-3.401-4.4769v.3475c.807.0004 1.563.4304 2.129 1.1746.565.7444.925 1.7879.924 2.9547l.348.0001.347.0001c.001-1.3049-.401-2.4994-1.066-3.3754-.666-.8762-1.611-1.4487-2.682-1.4492v.3476Z" fill="#C8C5FF"/>
  <path fill="#9691FF" d="m233.146 88.6094-39.099.000003.000003 39.099 39.099-.000003z"/>
  <path fill-rule="evenodd" clip-rule="evenodd" d="m206.382 113.935 5.965-9.488v-5.1706l-10.681 17.8016 4.716-3.143Zm13.1 2.095h-11.724l-3.806 2.537h19.97l-4.44-2.537Zm-4.628-11.583 5.938 9.444 4.308 2.461-10.246-17.0756v5.1706Zm-1.253 2.718-4 6.358h7.998l-3.998-6.358Zm-16.118 12.011 15.042-25.07c.04-.0652.093-.1178.143-.173.229-.262.557-.435.933-.435s.702.173.932.435c.05.0552.103.1066.142.173l15.042 25.07c.059.099.102.204.133.312.002.007.002.015.003.022.034.132.04.267.03.403-.003.037-.007.072-.013.11-.023.143-.063.284-.137.415-.001.001-.001.001-.001.002-.002.002-.002.002-.002.003-.021.036-.05.063-.074.096-.041.057-.078.118-.127.167-.048.048-.103.083-.157.123-.036.025-.066.055-.103.076-.059.034-.121.054-.184.078-.04.015-.077.036-.118.048-.094.025-.19.035-.287.039-.014 0-.025.005-.038.005h-30.083c-.453 0-.869-.244-1.091-.637-.223-.393-.216-.875.015-1.262Z" fill="#1B1B1F"/>
  <path d="M187.908 88.2188 184 91.1503l3.908-2.9315Z" fill="#9691FF"/>
  <path d="M187.908 88.2188 184 91.1503" stroke="#6760FD" stroke-width=".695094" stroke-linecap="round" stroke-linejoin="round"/>
  <path d="M242.726 122.234c-.706 1.396-1.722 2.611-2.969 3.554l2.969-3.554Z" fill="#9691FF"/>
  <path d="M242.726 122.234c-.706 1.396-1.722 2.611-2.969 3.554" stroke="#6760FD" stroke-width=".695094" stroke-linecap="round" stroke-linejoin="round"/>
  <path d="m243.825 126.127-2.684 1.771 2.684-1.771Z" fill="#9691FF"/>
  <path d="m243.825 126.127-2.684 1.771" stroke="#6760FD" stroke-width=".695094" stroke-linecap="round" stroke-linejoin="round"/>
  <path d="m182.625 305.57-.031-.017-.105-.061c-.089-.052-.217-.127-.381-.224-.328-.196-.8-.482-1.396-.856-1.19-.748-2.876-1.85-4.894-3.282-4.027-2.861-9.409-7.065-14.805-12.439-10.679-10.634-21.994-26.432-21.994-45.893 0-14.518 11.435-26.03 25.238-26.03 8.117 0 15.385 3.962 20.016 10.172 4.63-6.21 11.898-10.172 20.015-10.172 13.803 0 25.238 11.512 25.238 26.03 0 19.461-11.315 35.259-21.994 45.893-5.396 5.374-10.778 9.578-14.805 12.439-2.018 1.432-3.704 2.534-4.894 3.282-.596.374-1.068.66-1.396.856-.164.097-.292.172-.381.224l-.105.061-.031.017-.012.008c-1.021.579-2.25.579-3.27 0l-.013-.008Z" fill="#1B1B1F"/>
  <path d="M18.1011 114.139c0-3.693 2.9933-6.686 6.6857-6.686H138.611c3.692 0 6.686 2.993 6.686 6.686v23.596c0 3.692-2.994 6.686-6.686 6.686H24.7868c-3.6924 0-6.6857-2.994-6.6857-6.686v-23.596Z" fill="#9691FF" stroke="#C8C5FF" stroke-width=".695094" stroke-linecap="round" stroke-linejoin="round"/>
  <path d="M65.0146 117.479h60.8564c1.411 0 2.555 1.144 2.555 2.554 0 1.411-1.144 2.555-2.555 2.555H65.0146c-1.4105 0-2.5537-1.144-2.5537-2.555.0003-1.41 1.1433-2.553 2.5537-2.554Z" fill="#C8C5FF" stroke="#6760FD" stroke-width=".724056"/>
  <rect x="62.4607" y="126.3" width="30.0079" height="5.02071" rx="2.51036" fill="#C8C5FF" stroke="#6760FD" stroke-width=".724056"/>
  <path d="M99.084 126.3h19.195c1.387 0 2.51 1.123 2.51 2.51 0 1.386-1.123 2.51-2.51 2.51H99.084c-1.3863 0-2.5098-1.124-2.5098-2.51.0002-1.387 1.1236-2.51 2.5098-2.51ZM50.9673 117.476c1.0531-.998 2.7158-.954 3.7139.099.9978 1.053.9533 2.716-.0997 3.714l-12.3261 11.694c-.4875.464-1.134.723-1.8067.722v.001c-.5754.001-1.1323-.189-1.5869-.534l-.1885-.157-7.6504-7.018c-1.0676-.981-1.1392-2.64-.1601-3.709.9792-1.069 2.6389-1.143 3.709-.165l.001.001 5.8447 5.361 10.5488-10.009h.001Z" fill="#C8C5FF" stroke="#6760FD" stroke-width=".724056"/>
  <path d="m38.6354 114.477-1.0592 1.059 1.0592-1.059Z" fill="#9691FF"/>
  <path d="m38.6354 114.477-1.0592 1.059" stroke="#C8C5FF" stroke-width=".695094" stroke-linecap="round" stroke-linejoin="round"/>
  <path d="M148.75 133.158c-1.901 1.728-4.211 2.943-6.711 3.531l6.711-3.531Z" fill="#9691FF"/>
  <path d="M148.75 133.158c-1.901 1.728-4.211 2.943-6.711 3.531" stroke="#FFD6E1" stroke-width=".695094" stroke-linecap="round" stroke-linejoin="round"/>
  <path d="m272.831 187.592-3.812-.129-8.757-.298-6.494-.22-6.386 6.672 32.983.632-7.534-6.657Z" fill="#000"/>
  <mask id="l" style="mask-type:luminance" maskUnits="userSpaceOnUse" x="247" y="186" width="34" height="9">
    <path fill-rule="evenodd" clip-rule="evenodd" d="m272.831 187.592-3.812-.129-8.757-.298-6.494-.22-6.386 6.672 32.983.632-7.534-6.657Z" fill="#fff"/>
  </mask>
  <g mask="url(#l)">
    <path d="M260.175 187.871c2.065 3.505 2.68 2.353 4.064 4.195 2.332 3.103 11.461 1.666 11.328 2.183-.134.517-11.394 3.505-11.394 3.505l-5.264-2.585.466-5.229" fill="#191851" fill-opacity=".2"/>
  </g>
  <path clip-rule="evenodd" d="m272.831 187.592-3.812-.129-8.757-.298-6.494-.22-6.386 6.672 32.983.632-7.534-6.657v0Z" stroke="#323161" stroke-width=".695094" stroke-linecap="round" stroke-linejoin="round"/>
  <path d="m208.283 177.415 10.997 11.29 5.349-3.527s-7.582-9.731-8.491-10.924c-.91-1.193-7.855 3.161-7.855 3.161Z" fill="#000"/>
  <mask id="m" style="mask-type:luminance" maskUnits="userSpaceOnUse" x="208" y="174" width="17" height="15">
    <path fill-rule="evenodd" clip-rule="evenodd" d="m208.283 177.417 10.997 11.29 5.349-3.527s-7.582-9.731-8.491-10.924c-.91-1.193-7.855 3.161-7.855 3.161Z" fill="#fff"/>
  </mask>
  <g mask="url(#m)">
    <path d="M216.427 175.561c.291 5.368-2.618 4.214-1.454 6.823 1.163 2.61-.699 4.516-1.397 4.667-.698.15-4.655-7.125-4.655-7.125l3.084-1.706 4.422-2.659Z" fill="#454486"/>
  </g>
  <path clip-rule="evenodd" d="m208.283 177.415 10.997 11.29 5.349-3.527s-7.582-9.731-8.491-10.924c-.91-1.193-7.855 3.161-7.855 3.161Z" stroke="#323161" stroke-width=".695094" stroke-linecap="round" stroke-linejoin="round"/>
  <path d="m214.608 186.074.451 3.618c.149 1.193 1.511 1.981 2.847 1.646l19.572-4.897c-.492-1.597-2.015-2.801-3.902-3.085l-11.677-1.756s.807 2.618-7.291 4.474ZM269.654 187.484s3.819 4.785 1.183 6.765l14.606 2.771c5.936 1.026 8.028.391 7.663-1.301l.365-.181-17.579-8.593-6.238.539Z" fill="#454486" stroke="#323161" stroke-width=".695094" stroke-linecap="round" stroke-linejoin="round"/>
  <path d="M104.283 195.93c3.611.451 10.38-.903 10.831-.452.452.452-.902 1.355-.902 1.355s8.123.452 6.769 3.161c-.727 1.456-5.867-.451-7.672 0-1.805.452-5.867 1.355-9.026-.903s.451-2.71.451-2.71" fill="#000"/>
  <path d="M104.283 195.93c3.611.451 10.38-.903 10.831-.452.452.452-.902 1.355-.902 1.355s8.123.452 6.769 3.161c-.727 1.456-5.867-.451-7.672 0-1.805.452-5.867 1.355-9.026-.903s.451-2.71.451-2.71" stroke="#323161" stroke-width=".695094" stroke-linecap="round" stroke-linejoin="round"/>
  <path d="M144.899 126.387s6.532-6.127 8.198-14.873c.194-1.017.561-1.994 1.085-2.888 1.662-2.833 5.27-8.626 6.893-8.426 2.146.265-3.088 7.221-3.088 7.221s2.301 2.955 2.707 4.967c.406 2.012-.207 3-2.625 5.419-3.61 3.613-4.595 9.032-4.595 9.032l-8.575-.452Z" fill="#C8C5FF"/>
  <mask id="n" style="mask-type:luminance" maskUnits="userSpaceOnUse" x="144" y="100" width="18" height="27">
    <path fill-rule="evenodd" clip-rule="evenodd" d="M144.899 126.387s6.532-6.127 8.198-14.873c.194-1.017.561-1.994 1.085-2.888 1.662-2.833 5.27-8.626 6.893-8.426 2.146.265-3.088 7.221-3.088 7.221s2.301 2.955 2.707 4.967c.406 2.012-.207 3-2.625 5.419-3.61 3.613-4.595 9.032-4.595 9.032l-8.575-.452Z" fill="#fff"/>
  </mask>
  <g mask="url(#n)">
    <path d="M152.209 115.631c5.063 5.066 5.696.633 8.228 1.9l1.266.633-4.005 4.483-1.058.584-5.064-7.6" fill="#454486"/>
  </g>
  <path clip-rule="evenodd" d="M144.899 126.387s6.532-6.127 8.198-14.873c.194-1.017.561-1.994 1.085-2.888 1.662-2.833 5.27-8.626 6.893-8.426 2.146.265-3.088 7.221-3.088 7.221s2.301 2.955 2.707 4.967c.406 2.012-.207 3-2.625 5.419-3.61 3.613-4.595 9.032-4.595 9.032l-8.575-.452Z" stroke="#323161" stroke-width=".695094" stroke-linecap="round" stroke-linejoin="round"/>
  <path d="M151.258 115.291c4.955 1.842 6.729 6.128 6.729 6.128s-4.924 17.354-8.534 22.773c-3.61 5.419-14.893 20.322-14.893 20.322l-29.786-10.387s29.335-11.741 32.945-16.708c3.611-4.968 13.539-22.128 13.539-22.128Z" fill="#908FC7"/>
  <mask id="o" style="mask-type:luminance" maskUnits="userSpaceOnUse" x="104" y="115" width="54" height="50">
    <path fill-rule="evenodd" clip-rule="evenodd" d="M151.258 115.291c4.955 1.842 6.729 6.128 6.729 6.128s-4.924 17.354-8.534 22.773c-3.61 5.419-14.893 20.322-14.893 20.322l-29.786-10.387s29.335-11.741 32.945-16.708c3.611-4.968 13.539-22.128 13.539-22.128Z" fill="#fff"/>
  </mask>
  <g mask="url(#o)">
    <path d="M114.963 154.655c15.812-.691 20.945 8.046 30.64-5.003s3.239 14.229 3.239 14.229l-20.534 6.237-13.821-3.813" fill="#454486"/>
  </g>
  <path clip-rule="evenodd" d="M151.258 115.291c4.955 1.842 6.729 6.128 6.729 6.128s-4.924 17.354-8.534 22.773c-3.61 5.419-14.893 20.322-14.893 20.322l-29.786-10.387s29.335-11.741 32.945-16.708c3.611-4.968 13.539-22.128 13.539-22.128Z" stroke="#323161" stroke-width=".695094" stroke-linecap="round" stroke-linejoin="round"/>
  <path d="M210.082 183.028s6.719-3.806 9.197-6.064c0 0-10.997-30.909-22.343-32.113-4.947-.525-52.52 21.017-52.52 21.017l8.728 16.709s-10.476-13.999-4.956.903c5.52 14.902 42.288-13.51 46.102-17.354l15.792 16.902Z" fill="#000"/>
  <mask id="p" style="mask-type:luminance" maskUnits="userSpaceOnUse" x="144" y="144" width="76" height="44">
    <path fill-rule="evenodd" clip-rule="evenodd" d="M210.082 183.028s6.719-3.806 9.197-6.064c0 0-10.997-30.909-22.343-32.113-4.947-.525-52.52 21.017-52.52 21.017l8.728 16.709s-10.476-13.999-4.956.903c5.52 14.902 42.288-13.51 46.102-17.354l15.792 16.902Z" fill="#fff"/>
  </mask>
  <g mask="url(#p)">
    <path d="m217.433 167.875-15.284 11.714 6.829 6.917 15.65-7.351-8.173-12.85" fill="#000"/>
    <path d="m217.433 167.875-15.284 11.714 6.829 6.917 15.65-7.351-8.173-12.85" stroke="#323161" stroke-width=".695094" stroke-linecap="round" stroke-linejoin="round"/>
  </g>
  <path clip-rule="evenodd" d="M210.082 183.028s6.719-3.806 9.197-6.064c0 0-10.997-30.909-22.343-32.113-4.947-.525-52.52 21.017-52.52 21.017l8.728 16.709s-10.476-13.999-4.956.903c5.52 14.902 42.288-13.51 46.102-17.354l15.792 16.902Z" stroke="#323161" stroke-width=".695094" stroke-linecap="round" stroke-linejoin="round"/>
  <path d="M161.565 175.907c18.588 2.504 47.154 6.327 48.782 6.382 2.425.082 46.439 3.79 49.642 4.396 3.204.605 4.415 9.564 3.405 10.419 0 0-50.176-.912-57.451-1.158-7.274-.247-68.774 7.813-73.675-4.555-3.823-9.649 13.501-17.62 13.501-17.62" fill="#000"/>
  <mask id="q" style="mask-type:luminance" maskUnits="userSpaceOnUse" x="131" y="173" width="133" height="26">
    <path fill-rule="evenodd" clip-rule="evenodd" d="M161.565 175.907c18.588 2.504 47.154 6.327 48.782 6.382 2.425.082 46.439 3.79 49.642 4.396 3.204.605 4.415 9.564 3.405 10.419 0 0-50.176-.912-57.451-1.158-7.274-.247-68.774 7.813-73.675-4.555-3.823-9.649 13.501-17.62 13.501-17.62" fill="#fff"/>
  </mask>
  <g mask="url(#q)">
    <path d="M148.626 170.371c12.573 1.952-13.008 26.495 17.993 26.806 31.001.31-33.602 15.278-33.602 15.278s-8.021-24.31-7.371-24.086c.65.224 17.657-12.915 17.657-12.915" fill="#191851" fill-opacity=".2"/>
    <path d="M251.469 183.656c6.016 5.532 4.227 17.572 4.227 17.572l11.056-.163-4.064-18.547" fill="#000"/>
    <path d="M251.469 183.656c6.016 5.532 4.227 17.572 4.227 17.572l11.056-.163-4.064-18.547" stroke="#323161" stroke-width=".695094" stroke-linecap="round" stroke-linejoin="round"/>
    <path d="M152.614 178.83c7.371 4.122 2.71 12.584 2.71 12.584l-2.71-12.584Z" fill="#000"/>
    <path d="M152.614 178.83c7.371 4.122 2.71 12.584 2.71 12.584" stroke="#323161" stroke-width=".695094" stroke-linecap="round" stroke-linejoin="round"/>
  </g>
  <path d="M161.565 175.907c18.588 2.504 47.154 6.327 48.782 6.382 2.425.082 46.439 3.79 49.642 4.396 3.204.605 4.415 9.564 3.405 10.419 0 0-50.176-.912-57.451-1.158-7.274-.247-68.774 7.813-73.675-4.555-3.823-9.649 13.501-17.62 13.501-17.62" stroke="#323161" stroke-width=".695094" stroke-linecap="round" stroke-linejoin="round"/>
  <path d="M122.657 154.561c3.201 1.478 6.14 3.467 8.703 5.888 7.672 7.226 22.114-4.515 22.154 9.484.023 7.886-11.283 33.417-23.468 29.353-12.185-4.065-38.8112-9.032-38.8112-9.032l-.9026-16.257-.0402-9.226s12.528-11.488 20.395-13.093" fill="#908FC7"/>
  <mask id="r" style="mask-type:luminance" maskUnits="userSpaceOnUse" x="90" y="151" width="64" height="49">
    <path fill-rule="evenodd" clip-rule="evenodd" d="M122.657 154.561c3.201 1.478 6.14 3.467 8.703 5.888 7.672 7.226 22.114-4.515 22.154 9.484.023 7.886-11.283 33.417-23.468 29.353-12.185-4.065-38.8112-9.032-38.8112-9.032l-.9026-16.257-.0402-9.226s12.528-11.488 20.395-13.093" fill="#fff"/>
  </mask>
  <g mask="url(#r)">
    <path d="M94.3686 171.738c4.0617 7.226 3.5963 15.16 14.8784 17.418 11.283 2.258 28.883 15.354 28.883 15.806 0 .451-41.0677 4.515-41.0677 4.515l-16.698-16.708 14.0043-21.031Z" fill="#191851" fill-opacity=".2"/>
    <path d="M104.772 154.549c1.26 2.183 1.035 7.266-2.932 9.558-3.9669 2.292-10.1743.925-11.4342-1.259-1.2598-2.183.9348-5.811 4.902-8.103 3.9671-2.292 8.2042-2.38 9.4642-.196Z" fill="#BEBDE3" stroke="#323161" stroke-width=".695094" stroke-linecap="round" stroke-linejoin="round"/>
  </g>
  <path d="M122.657 154.561c3.201 1.478 6.14 3.467 8.703 5.888 7.672 7.226 22.114-4.515 22.154 9.484.023 7.886-11.283 33.417-23.468 29.353-12.185-4.065-38.8112-9.032-38.8112-9.032l-.9026-16.257-.0402-9.226s12.528-11.488 20.395-13.093" stroke="#BEBDE3" stroke-width=".695094" stroke-linecap="round" stroke-linejoin="round"/>
  <path d="M95.969 149.783c.6574 4.656 4.737 6.481 6.683 7.093.277.087.502.29.62.555.117.266.114.569-.007.832-.835 1.805-3.121 5.126-8.5615 4.811-.5582-.033-1.0262-.434-1.1444-.98-.2226-1.038-1.1225-2.924-4.4498-5.226-5.116-3.538 6.8597-7.085 6.8597-7.085Z" fill="#BEBDE3"/>
  <mask id="s" style="mask-type:luminance" maskUnits="userSpaceOnUse" x="87" y="149" width="17" height="15">
    <path fill-rule="evenodd" clip-rule="evenodd" d="M95.969 149.783c.6574 4.656 4.737 6.481 6.683 7.093.277.087.502.29.62.555.117.266.114.569-.007.832-.835 1.805-3.121 5.126-8.5615 4.811-.5582-.033-1.0262-.434-1.1444-.98-.2226-1.038-1.1225-2.924-4.4498-5.226-5.116-3.538 6.8597-7.085 6.8597-7.085Z" fill="#fff"/>
  </mask>
  <g mask="url(#s)">
    <ellipse cx="98.2968" cy="147.95" rx="8.04589" ry="6.99415" transform="rotate(-60.495 98.2968 147.95)" fill="#454486"/>
  </g>
  <path clip-rule="evenodd" d="M95.969 149.783c.6574 4.656 4.737 6.481 6.683 7.093.277.087.502.29.62.555.117.266.114.569-.007.832-.835 1.805-3.121 5.126-8.5615 4.811-.5582-.033-1.0262-.434-1.1444-.98-.2226-1.038-1.1225-2.924-4.4498-5.226-5.116-3.538 6.8597-7.085 6.8597-7.085Z" stroke="#BEBDE3" stroke-width=".695094" stroke-linecap="round" stroke-linejoin="round"/>
  <path d="M94.746 155.287c4.1787-2.214 6.974-6.909-5.3669-16.519l-6.2575 1.766-1.6836 5.961s-1.0364 1.839-.709 2.518c.3274.679 13.9741 14.061 13.9741 14.061" fill="#BEBDE3"/>
  <mask id="t" style="mask-type:luminance" maskUnits="userSpaceOnUse" x="80" y="138" width="19" height="26">
    <path fill-rule="evenodd" clip-rule="evenodd" d="M94.746 155.287c4.1787-2.214 6.974-6.909-5.3669-16.519l-6.2575 1.766-1.6836 5.961s-1.0364 1.839-.709 2.518c.3274.679 13.9741 14.061 13.9741 14.061" fill="#fff"/>
  </mask>
  <g mask="url(#t)">
    <ellipse cx="96.6051" cy="144.965" rx="1.91018" ry="1.45471" transform="rotate(-40.562 96.6051 144.965)" fill="#454486" opacity=".27"/>
    <ellipse cx="89.7467" cy="150.826" rx="1.91018" ry="1.45471" transform="rotate(-40.562 89.7467 150.826)" fill="#454486" opacity=".27"/>
    <path d="M92.0751 143.033c.267-.264.697-.261.9605.006l.8058.816c.2635.267.2607.697-.0063.961-.2669.263-.6969.26-.9604-.007l-.8058-.816c-.2635-.267-.2607-.697.0063-.96h-.0001ZM88.2153 146.306c.1282-.126.3014-.197.4815-.196.1801.002.3524.074.4789.202l.8058.817c.2635.267.2607.697-.0062.96-.267.264-.697.261-.9605-.006l-.8058-.816c-.2635-.267-.2607-.697.0063-.961Z" fill="#323161"/>
    <path d="M91.0731 141.773c1.2703-.686 1.529.12.7628.601-.7661.48-1.5927-.153-.7628-.601ZM87.0849 145.098c-.7027 1.261-.016 1.564.4746.804.4906-.76-.0156-1.629-.4746-.804ZM91.6422 146.843c.2834.361.4802-.025.8617-.324.3814-.3.803-.399.5195-.761-.308-.351-.8368-.4-1.2041-.111-.3674.288-.4452.814-.1771 1.196ZM95.3283 147.042c1.6204 2.952-1.6688 3.861-3.0157 2.306-.0684-.082-.0785-.197-.0252-.29.2209-.393.946-1.434 2.721-2.13.1202-.047.2566.002.3199.114Z" fill="#454486"/>
    <mask id="u" style="mask-type:luminance" maskUnits="userSpaceOnUse" x="92" y="146" width="4" height="5">
      <path fill-rule="evenodd" clip-rule="evenodd" d="M95.3283 147.042c1.6204 2.952-1.6688 3.861-3.0157 2.306-.0684-.082-.0785-.197-.0252-.29.2209-.393.946-1.434 2.721-2.13.1202-.047.2566.002.3199.114Z" fill="#fff"/>
    </mask>
    <g mask="url(#u)">
      <ellipse cx="94.6544" cy="149.955" rx="1.68737" ry="1.50678" transform="rotate(-20.286 94.6544 149.955)" fill="#454486" opacity=".29"/>
      <path d="M94.5414 146.998c.1345.173.3012.42.2896.498-.0715.48-1.5055 1.416-1.8065 1.41-.0838-.002-.526-.552-.526-.552l1.7653-1.289" fill="#BEBDE3"/>
    </g>
  </g>
  <path d="M94.746 155.287c4.1787-2.214 6.974-6.909-5.3669-16.519l-6.2575 1.766-1.6836 5.961s-1.0364 1.839-.709 2.518c.3274.679 13.9741 14.061 13.9741 14.061" stroke="#323161" stroke-width=".695094" stroke-linecap="round" stroke-linejoin="round"/>
  <path d="M85.2394 151.775c-2.5674-3.155-.4545-9.699 4.1401-13.006 4.5945-3.307-5.3102-11.79-9.7811-5.278 0 0-11.2066 2.98-5.6431 12.825.6074 1.074.3062 2.448-.3041 3.521-1.0043 1.766-2.3092 4.292 1.8727 6.001 1.4335.585 3.2826-.068 4.0213 1.294 1.461 2.693 6.8834 3.957 8.2926.983 2.7536-5.811-2.5984-6.34-2.5984-6.34Z" fill="#BEBDE3" stroke="#323161" stroke-width=".695094" stroke-linecap="round" stroke-linejoin="round"/>
  <path d="m85.178 151.39.4495-1.324s-.4012-6.736 5.5611-9.834l-2.2524-1.92s-8.4894 8.442-5.3928 12.652l1.3158.261.3188.165Z" fill="#454486" stroke="#323161" stroke-width=".695094" stroke-linecap="round" stroke-linejoin="round"/>
  <path d="M86.3342 149.536s-3.7287-1.152-3.7287 1.152c0 2.305 6.224 2.4 6.224 2.4" fill="#BEBDE3"/>
  <path d="M86.3342 149.536s-3.7287-1.152-3.7287 1.152c0 2.305 6.224 2.4 6.224 2.4" stroke="#323161" stroke-width=".695094" stroke-linecap="round" stroke-linejoin="round"/>
  <path d="M114.212 196.835c4.331-.333 11.002-.296 13.342-.782 1.24-.257 2.531-.043 3.623.599 5.592 3.292 6.731 3.063 6.731 3.909 0 .903-21.542 1.586-21.542 1.586l-3.056-2.151" fill="#C8C5FF"/>
  <mask id="v" style="mask-type:luminance" maskUnits="userSpaceOnUse" x="113" y="195" width="25" height="8">
    <path fill-rule="evenodd" clip-rule="evenodd" d="M114.212 196.835c4.331-.333 11.002-.296 13.342-.782 1.24-.257 2.531-.043 3.623.599 5.592 3.292 6.731 3.063 6.731 3.909 0 .903-21.542 1.586-21.542 1.586l-3.056-2.151" fill="#fff"/>
  </mask>
  <g mask="url(#v)">
    <path d="M119.903 195.387c4.634 2.329 2.521 6.555 7.236 6.76 4.715.206-8.943 2.646-8.943 2.646l-.975-6.819" fill="#454486"/>
  </g>
  <path d="M114.212 196.835c4.331-.333 11.002-.296 13.342-.782 1.24-.257 2.531-.043 3.623.599 5.592 3.292 6.731 3.063 6.731 3.909 0 .903-21.542 1.586-21.542 1.586l-3.056-2.151" stroke="#323161" stroke-width=".695094" stroke-linecap="round" stroke-linejoin="round"/>
  <path d="M96.1455 173.771c1.1722 6.531.9568 14.224.9568 14.224l23.8787 7.226s1.805 3.161 1.354 7.225c0 0-37.458 5.419-39.7145-3.613-2.2565-9.031 1.8052-34.256 8.1234-34.062" fill="#908FC7"/>
  <path d="M96.1455 173.771c1.1722 6.531.9568 14.224.9568 14.224l23.8787 7.226s1.805 3.161 1.354 7.225c0 0-37.458 5.419-39.7145-3.613-2.2565-9.031 1.8052-34.256 8.1234-34.062" stroke="#323161" stroke-width=".695094" stroke-linecap="round" stroke-linejoin="round"/>
  <path d="M79.475 133.617c-.336.611-.3089 1.358.0705 1.943l-.0705-1.943Z" fill="#FCF7F0"/>
  <path d="M79.475 133.617c-.336.611-.3089 1.358.0705 1.943" stroke="#323161" stroke-width=".695094" stroke-linecap="round" stroke-linejoin="round"/>
  <path d="M74.0181 146.512c.2776.775.8076 1.435 1.5052 1.874l-1.5052-1.874Z" fill="#FCF7F0"/>
  <path d="M74.0181 146.512c.2776.775.8076 1.435 1.5052 1.874" stroke="#323161" stroke-width=".695094" stroke-linecap="round" stroke-linejoin="round"/>
  <path d="m85.0014 150.766-.0541.081.0541-.081Z" fill="#FCF7F0"/>
  <path d="m85.0014 150.766-.0541.081" stroke="#323161" stroke-width=".695094" stroke-linecap="round" stroke-linejoin="round"/>
  <path d="M97.1733 188.053c-.364.759-.8636 1.445-1.4741 2.024l1.4741-2.024Z" fill="#FCF7F0"/>
  <path d="M97.1733 188.053c-.364.759-.8636 1.445-1.4741 2.024" stroke="#323161" stroke-width=".695094" stroke-linecap="round" stroke-linejoin="round"/>
  <path d="m147.082 143.375 2.056.556-2.056-.556Z" fill="#FCF7F0"/>
  <path d="m147.082 143.375 2.056.556" stroke="#323161" stroke-width=".695094" stroke-linecap="round" stroke-linejoin="round"/>
  <path d="M194.311 163.654c.181.776.125 1.589-.161 2.333l.161-2.333Z" fill="#FCF7F0"/>
  <path d="M194.311 163.654c.181.776.125 1.589-.161 2.333M117.204 174.389c-.259 2.174-1.18 4.217-2.64 5.85M273.142 194.346c.926 1.279 2.103 2.356 3.46 3.166M273.039 194.232l-1.282 1.214M222.415 179.266c.099.706.281 1.398.543 2.061M224.167 179.166c-.434.645-.818 1.324-1.147 2.028" stroke="#323161" stroke-width=".695094" stroke-linecap="round" stroke-linejoin="round"/>
  <path d="m194.648 188.432-.906 5.199.906-5.199Z" fill="#FCF7F0"/>
  <path d="m194.648 188.432-.906 5.199" stroke="#323161" stroke-width=".695094" stroke-linecap="round" stroke-linejoin="round"/>
  <path d="M81.2064 144.275v.868-.868Z" fill="#FCF7F0"/>
  <path d="M81.2064 144.275v.868" stroke="#323161" stroke-width=".695094" stroke-linecap="round" stroke-linejoin="round"/>
  <defs>
    <linearGradient id="b" x1="197.789" y1="45.6836" x2="197.789" y2="310.106" gradientUnits="userSpaceOnUse">
      <stop stop-color="#FFF4F0"/>
      <stop offset=".776042" stop-color="#FFFBFA"/>
    </linearGradient>
    <linearGradient id="c" x1="197.789" y1="57.8244" x2="197.789" y2="311.834" gradientUnits="userSpaceOnUse">
      <stop offset=".208333" stop-color="#524BE8"/>
      <stop offset="1" stop-color="#181465"/>
    </linearGradient>
    <linearGradient id="d" x1="185.474" y1="32.1367" x2="185.474" y2="297.191" gradientUnits="userSpaceOnUse">
      <stop stop-color="#FFF4F0"/>
      <stop offset=".776042" stop-color="#FFFBFA"/>
    </linearGradient>
    <linearGradient id="e" x1="185.474" y1="44.3065" x2="185.474" y2="298.924" gradientUnits="userSpaceOnUse">
      <stop offset=".208333" stop-color="#3E37D4"/>
      <stop offset="1" stop-color="#040051"/>
    </linearGradient>
    <linearGradient id="f" x1="191.492" y1="83.3262" x2="191.492" y2="261.634" gradientUnits="userSpaceOnUse">
      <stop stop-color="#FFF4F0"/>
      <stop offset=".776042" stop-color="#FFFBFA"/>
    </linearGradient>
    <linearGradient id="g" x1="191.492" y1="91.5131" x2="191.492" y2="262.8" gradientUnits="userSpaceOnUse">
      <stop offset=".208333" stop-color="#524BE8"/>
      <stop offset="1" stop-color="#181465"/>
    </linearGradient>
    <linearGradient id="h" x1="185.835" y1="69.3613" x2="185.835" y2="247.66" gradientUnits="userSpaceOnUse">
      <stop stop-color="#FFF4F0"/>
      <stop offset=".776042" stop-color="#FFFBFA"/>
    </linearGradient>
    <linearGradient id="i" x1="185.835" y1="77.5478" x2="185.835" y2="248.826" gradientUnits="userSpaceOnUse">
      <stop offset=".208333" stop-color="#665FFC"/>
      <stop offset="1" stop-color="#2C2879"/>
    </linearGradient>
    <radialGradient id="a" cx="0" cy="0" r="1" gradientUnits="userSpaceOnUse" gradientTransform="matrix(0 152.843 -148.348 0 190.232 171.239)">
      <stop stop-color="#3730C2"/>
      <stop offset="1" stop-color="#3E37D3" stop-opacity=".2"/>
    </radialGradient>
  </defs>
</svg>
