<svg xmlns="http://www.w3.org/2000/svg" fill="none" viewBox="0 0 122 120">
  <path d="M61.0009 111.839c28.626 0 51.8321-23.2063 51.8321-51.8323 0-28.6259-23.2061-51.8319-51.8321-51.8319-28.626 0-51.83195 23.206-51.83195 51.8319 0 28.626 23.20595 51.8323 51.83195 51.8323Z" fill="#FDF1DC" stroke="#000" stroke-width="1.0084" stroke-miterlimit="10"/>
  <path d="M96.5229 81.5327c-2.689 4.437-10.8773 3.7916-14.8168 6.6689-3.9395 2.8773-5.9697 10.9445-10.8101 12.1274-4.8403 1.184-10.1915-4.9879-15.1932-5.7543s-11.7916 3.6168-16.2286.9277c-4.437-2.689-3.7916-10.8773-6.6689-14.8168-2.8773-3.9395-10.9445-5.9697-12.1277-10.8101-1.1832-4.8403 4.9882-10.1916 5.7546-15.1932.7664-5.0017-3.6168-11.7916-.9278-16.2286 2.6891-4.437 10.8774-3.7916 14.8169-6.6689 4.0874-2.9983 5.9697-10.9446 10.81-12.1277 4.8404-1.1832 10.1916 4.9882 15.1933 5.7546 5.0017.7664 11.7916-3.6168 16.2286-.9278 4.437 2.6891 3.7916 10.8774 6.6689 14.8168 2.8773 3.9395 10.9449 5.9698 12.1279 10.8101 1.183 4.8404-4.9884 10.1916-5.7548 15.1933-.7664 5.0017 3.6168 11.7916.9277 16.2286Z" stroke="#000" stroke-width="1.0084" stroke-miterlimit="10"/>
  <path d="M96.5229 81.5327c-2.689 4.437-10.8773 3.7916-14.8168 6.6689-3.9395 2.8773-5.9697 10.9445-10.8101 12.1274-4.8403 1.184-10.1915-4.9879-15.1932-5.7543s-11.7916 3.6168-16.2286.9277c-4.437-2.689-3.7916-10.8773-6.6689-14.8168-2.8773-3.9395-10.9445-5.9697-12.1277-10.8101-1.1832-4.8403 4.9882-10.1916 5.7546-15.1932.7664-5.0017-3.6168-11.7916-.9278-16.2286 2.6891-4.437 10.8774-3.7916 14.8169-6.6689 4.0874-2.9983 5.9697-10.9446 10.81-12.1277 4.8404-1.1832 10.1916 4.9882 15.1933 5.7546 5.0017.7664 11.7916-3.6168 16.2286-.9278 4.437 2.6891 3.7916 10.8774 6.6689 14.8168 2.8773 3.9395 10.9449 5.9698 12.1279 10.8101 1.183 4.8404-4.9884 10.1916-5.7548 15.1933-.7664 5.0017 3.6168 11.7916.9277 16.2286Z" stroke="#000" stroke-width="1.0084" stroke-miterlimit="10"/>
  <path d="M83.2663 95.0724c-4.3832 2.7832-11.4286-1.4387-16.242-.5916-4.9883.8739-10.2185 7.1532-15.0723 6.0642-4.8538-1.0894-6.9244-8.9953-11.0656-11.913-4.1411-2.9176-12.168-1.9899-14.9512-6.3731-2.7832-4.3832 1.4386-11.4286.5916-16.242-.8471-4.8134-7.153-10.2185-6.0639-15.0723 1.0891-4.8537 8.995-6.9243 11.9126-11.0655 2.9177-4.1412 1.9899-12.1681 6.3731-14.9513 4.3832-2.7832 11.4286 1.4387 16.242.5916 4.9883-.8739 10.2185-7.1529 15.0723-6.0638 4.8538 1.089 6.9244 8.9949 11.0656 11.9126 4.1411 2.9176 12.168 1.9899 14.9512 6.3731 2.7832 4.3832-1.4386 11.4285-.5916 16.242.8471 4.8134 7.1529 10.2185 6.0639 15.0723-1.089 4.8537-8.995 6.9243-11.9126 11.0655-2.9177 4.1412-1.9899 12.1681-6.3731 14.9513Z" stroke="#000" stroke-width="1.0084" stroke-miterlimit="10"/>
  <path fill-rule="evenodd" clip-rule="evenodd" d="m79.3803 48.2829 1.0891-2.6622s-1.3849-1.479-3.0655-3.1597c-1.6807-1.6807-5.2303-.6857-5.2303-.6857l-4.047-4.5849H53.9014l-4.0471 4.5849s-3.563-.9815-5.2303.6857c-1.6806 1.6807-3.0655 3.1597-3.0655 3.1597l1.0891 2.6622-1.3849 3.9529s4.0739 15.395 4.5445 17.2639c.9412 3.6974 1.5866 5.1361 4.2488 7.005 2.6622 1.8689 7.5025 5.1362 8.2958 5.6202.7932.4975 1.7748 1.3311 2.6622 1.3311s1.8823-.8471 2.6621-1.3311c.7933-.4975 5.6337-3.7513 8.2958-5.6202 2.6622-1.8689 3.3076-3.3076 4.2488-7.005.4706-1.8824 4.5445-17.2639 4.5445-17.2639l-1.3849-3.9529Z" fill="url(#a)" stroke="#000" stroke-width="1.0084" stroke-miterlimit="10"/>
  <defs>
    <linearGradient id="a" x1="45.5787" y1="41.493" x2="76.4224" y2="72.3366" gradientUnits="userSpaceOnUse">
      <stop stop-color="#9D7CBF"/>
      <stop offset=".6" stop-color="#FD0189"/>
      <stop offset=".97" stop-color="#FD5C3F"/>
    </linearGradient>
  </defs>
</svg>
