/* XPM */
static char * product_logo_32__xpm[] = {
"32 32 426 2",
"  	c None",
". 	c #EC8A38",
"+ 	c #EF8C36",
"@ 	c #EE8D36",
"# 	c #EE8C37",
"$ 	c #EF8D36",
"% 	c #E87748",
"& 	c #FF874F",
"* 	c #F27F4B",
"= 	c #F4804C",
"- 	c #F4804B",
"; 	c #F17F4B",
"> 	c #E77747",
", 	c #EA653E",
"' 	c #FF6F46",
") 	c #F0653F",
"! 	c #EF663F",
"~ 	c #EF653E",
"{ 	c #EF6742",
"] 	c #EF6A48",
"^ 	c #EF6A47",
"/ 	c #FF7046",
"( 	c #EA643F",
"_ 	c #EF5C2C",
": 	c #FB6436",
"< 	c #FF6030",
"[ 	c #F4582D",
"} 	c #FB5723",
"| 	c #F65521",
"1 	c #F65D34",
"2 	c #F55E36",
"3 	c #F55C34",
"4 	c #F5500F",
"5 	c #F53A00",
"6 	c #F53C00",
"7 	c #F5500D",
"8 	c #F55B32",
"9 	c #F55D35",
"0 	c #F55C32",
"a 	c #F65420",
"b 	c #FC5722",
"c 	c #F65A2D",
"d 	c #FB5C2A",
"e 	c #ED5A29",
"f 	c #E05321",
"g 	c #F55B19",
"h 	c #FF6D28",
"i 	c #FC6522",
"j 	c #FB6629",
"k 	c #FC5600",
"l 	c #FC5B25",
"m 	c #FB561D",
"n 	c #FB2A00",
"o 	c #FB1A00",
"p 	c #FB6744",
"q 	c #FC9D8E",
"r 	c #FA9C8D",
"s 	c #FB6846",
"t 	c #FC3300",
"u 	c #FC2700",
"v 	c #FC3200",
"w 	c #FB5721",
"x 	c #FA5A29",
"y 	c #F04700",
"z 	c #E95215",
"A 	c #EB5000",
"B 	c #FD5708",
"C 	c #E24D04",
"D 	c #FF6E24",
"E 	c #FF641D",
"F 	c #FF6425",
"G 	c #FE5A00",
"H 	c #FF6E3E",
"I 	c #FFEBE8",
"J 	c #FFF0EF",
"K 	c #FFD8D3",
"L 	c #FEC1BA",
"M 	c #FFD7D3",
"N 	c #FFF8F6",
"O 	c #FFFFFF",
"P 	c #F9FEFE",
"Q 	c #F4EEED",
"R 	c #F5CECA",
"S 	c #F5B7B0",
"T 	c #F2CBC7",
"U 	c #EFE1E0",
"V 	c #EDDDDC",
"W 	c #EC623E",
"X 	c #ED4300",
"Y 	c #ED5115",
"Z 	c #ED4D00",
"` 	c #FF5501",
" .	c #FF6622",
"..	c #FF6420",
"+.	c #FF6528",
"@.	c #FF5100",
"#.	c #FFDFDA",
"$.	c #FFFEFE",
"%.	c #F9F8F8",
"&.	c #F3F4F5",
"*.	c #F0F6F7",
"=.	c #EEF9FB",
"-.	c #EDF9FA",
";.	c #EDF4F6",
">.	c #EDF6F9",
",.	c #EDD2CF",
"'.	c #ED4000",
").	c #ED500F",
"!.	c #EE4F05",
"~.	c #EA4E02",
"{.	c #FA631E",
"].	c #FF6C32",
"^.	c #FF4400",
"/.	c #FFC0B5",
"(.	c #FFF2F0",
"_.	c #FFEAE7",
":.	c #FFE8E4",
"<.	c #FFF3F1",
"[.	c #FFFFFE",
"}.	c #F9F8F9",
"|.	c #F4F8F9",
"1.	c #F1F4F5",
"2.	c #EFE4E3",
"3.	c #EED8D6",
"4.	c #EDDAD8",
"5.	c #EDE0DF",
"6.	c #EDF5F7",
"7.	c #EDB6AF",
"8.	c #ED2500",
"9.	c #F45821",
"0.	c #E74E00",
"a.	c #FF6F2E",
"b.	c #FF5700",
"c.	c #FF9177",
"d.	c #FFE5E1",
"e.	c #FFA997",
"f.	c #FF620D",
"g.	c #FF5400",
"h.	c #FF8F74",
"i.	c #FFD9D3",
"j.	c #F9FBFC",
"k.	c #F4D1CD",
"l.	c #F1826E",
"m.	c #EF4000",
"n.	c #EE4E00",
"o.	c #ED998B",
"p.	c #EDD4D1",
"q.	c #EDEEEF",
"r.	c #EDEFF0",
"s.	c #ED8774",
"t.	c #EE3B00",
"u.	c #F6581A",
"v.	c #F86523",
"w.	c #FF712F",
"x.	c #FFE3DF",
"y.	c #FFFDFD",
"z.	c #FFF3F0",
"A.	c #FFCCC3",
"B.	c #FFAD9D",
"C.	c #F9FFFF",
"D.	c #F4A89D",
"E.	c #F13600",
"F.	c #EFBDB6",
"G.	c #EEE3E1",
"H.	c #EDF3F4",
"I.	c #EDF1F3",
"J.	c #EDEBEC",
"K.	c #EDD6D4",
"L.	c #ED4200",
"M.	c #FD5813",
"N.	c #E55114",
"O.	c #F06528",
"P.	c #FF702E",
"Q.	c #FF5500",
"R.	c #FFE0DA",
"S.	c #FFFCFC",
"T.	c #FFC9C0",
"U.	c #FFC8BE",
"V.	c #F4C2BB",
"W.	c #F1B9B0",
"X.	c #EFFFFF",
"Y.	c #EEF0F0",
"Z.	c #EDEDEE",
"`.	c #EDECED",
" +	c #EDEBEB",
".+	c #EDF3F5",
"++	c #ED4100",
"@+	c #FC5813",
"#+	c #DD511B",
"$+	c #FF6F2B",
"%+	c #FF5E00",
"&+	c #FF7446",
"*+	c #FFEFED",
"=+	c #FF9D88",
"-+	c #FFDED9",
";+	c #F9FDFD",
">+	c #F4D8D4",
",+	c #F18D7A",
"'+	c #EFF3F4",
")+	c #EEEDED",
"!+	c #ED6642",
"~+	c #ED4700",
"{+	c #F85715",
"]+	c #FB6522",
"^+	c #FF692B",
"/+	c #FF5600",
"(+	c #FF7952",
"_+	c #FFF4F2",
":+	c #FFDDD7",
"<+	c #FF6621",
"[+	c #FFF9F8",
"}+	c #F9F9FA",
"|+	c #F4F0F0",
"1+	c #F15A26",
"2+	c #EFCAC5",
"3+	c #EEF4F5",
"4+	c #EDF1F2",
"5+	c #EDE4E4",
"6+	c #ED6E4F",
"7+	c #ED3D00",
"8+	c #F05519",
"9+	c #E95006",
"0+	c #F76423",
"a+	c #FF681D",
"b+	c #FF6A31",
"c+	c #FF5200",
"d+	c #FF8260",
"e+	c #FFF7F5",
"f+	c #FFAFA0",
"g+	c #FF5300",
"h+	c #FFF2EF",
"i+	c #F4EAE9",
"j+	c #F14A00",
"k+	c #EF9B8E",
"l+	c #EEF5F6",
"m+	c #EDE8E7",
"n+	c #ED775E",
"o+	c #ED3A00",
"p+	c #ED5722",
"q+	c #F85300",
"r+	c #E44F0D",
"s+	c #EE6225",
"t+	c #FF6C21",
"u+	c #FF6419",
"v+	c #FF6932",
"w+	c #FF4C00",
"x+	c #FF8F75",
"y+	c #FFFDFC",
"z+	c #FFFBFA",
"A+	c #FFB9AC",
"B+	c #FF5900",
"C+	c #FF896C",
"D+	c #F9836D",
"E+	c #F44500",
"F+	c #F1A99E",
"G+	c #EFEBEB",
"H+	c #EEEFF0",
"I+	c #ED8672",
"J+	c #ED3100",
"K+	c #ED5724",
"L+	c #ED4F00",
"M+	c #FD5501",
"N+	c #DB4E12",
"O+	c #FF6A22",
"P+	c #FF6523",
"Q+	c #FF5D00",
"R+	c #FF7D58",
"S+	c #FFFAFA",
"T+	c #FFE1DD",
"U+	c #FF7A55",
"V+	c #F96845",
"W+	c #F4D4D1",
"X+	c #F1F8F9",
"Y+	c #EFF1F1",
"Z+	c #EEEFEF",
"`+	c #EDECEC",
" @	c #ED755B",
".@	c #ED4600",
"+@	c #ED5211",
"@@	c #EE5000",
"#@	c #F55303",
"$@	c #FB6420",
"%@	c #FF651D",
"&@	c #FF682F",
"*@	c #FF4500",
"=@	c #FFC4B9",
"-@	c #FFFBFB",
";@	c #F9B1A6",
">@	c #F4FFFF",
",@	c #F1EEEE",
"'@	c #EFEEEE",
")@	c #EDBAB3",
"!@	c #ED2A00",
"~@	c #ED5721",
"{@	c #F15100",
"]@	c #E85003",
"^@	c #F56221",
"/@	c #FF691E",
"(@	c #FF4700",
"_@	c #FFBCB0",
":@	c #FFC5BA",
"<@	c #FF3200",
"[@	c #F90000",
"}@	c #F4B4AC",
"|@	c #F1F9FA",
"1@	c #EFF5F6",
"2@	c #EEECEC",
"3@	c #EDF7F9",
"4@	c #EDB3AA",
"5@	c #ED2C00",
"6@	c #EC5620",
"7@	c #FA5400",
"8@	c #E34D07",
"9@	c #ED5F23",
"0@	c #FF6B20",
"a@	c #FE6421",
"b@	c #FF6114",
"c@	c #FF6521",
"d@	c #FFE3DE",
"e@	c #FF9982",
"f@	c #FF6C35",
"g@	c #FFC1B6",
"h@	c #F9BCB4",
"i@	c #F35F34",
"j@	c #F18774",
"k@	c #EFD4D0",
"l@	c #ED5824",
"m@	c #ED510A",
"n@	c #FC5500",
"o@	c #D94A08",
"p@	c #FF681F",
"q@	c #FF631B",
"r@	c #FF6423",
"s@	c #FF5A00",
"t@	c #FF692E",
"u@	c #FF977F",
"v@	c #FF7F5B",
"w@	c #FFC4BA",
"x@	c #FFFCFB",
"y@	c #F8FFFF",
"z@	c #F4F3F3",
"A@	c #F1BDB6",
"B@	c #EF755A",
"C@	c #EE8774",
"D@	c #ED4500",
"E@	c #F05100",
"F@	c #FB621E",
"G@	c #FF6319",
"H@	c #FF6526",
"I@	c #FFEAE6",
"J@	c #F9F7F7",
"K@	c #F1FFFF",
"L@	c #EFE0DE",
"M@	c #EE4500",
"N@	c #ED4B00",
"O@	c #ED5418",
"P@	c #ED5000",
"Q@	c #F35200",
"R@	c #E84E01",
"S@	c #F3601F",
"T@	c #FE621B",
"U@	c #FF621A",
"V@	c #FF6524",
"W@	c #FF7245",
"X@	c #FFD7D0",
"Y@	c #F4FAFB",
"Z@	c #F1CCC7",
"`@	c #EF613A",
" #	c #EE4F00",
".#	c #ED5314",
"+#	c #FB5500",
"@#	c #E14C00",
"##	c #FF6A1E",
"$#	c #FE621C",
"%#	c #F4B9B1",
"&#	c #F12F00",
"*#	c #EF4800",
"=#	c #EE5211",
"-#	c #FA621E",
";#	c #FF651C",
">#	c #FE631A",
",#	c #FF6219",
"'#	c #FF672A",
")#	c #FF4100",
"!#	c #FFB0A0",
"~#	c #F9ACA0",
"{#	c #F31C00",
"]#	c #F15419",
"^#	c #EF5314",
"/#	c #EE5001",
"(#	c #F55200",
"_#	c #E74F05",
":#	c #FF661C",
"<#	c #FF631A",
"[#	c #FF631C",
"}#	c #FF682C",
"|#	c #F83500",
"1#	c #F4551D",
"2#	c #F15104",
"3#	c #EF5000",
"4#	c #F65300",
"5#	c #EE5101",
"6#	c #F65E19",
"7#	c #FF691D",
"8#	c #FF662A",
"9#	c #F8581F",
"0#	c #F34F00",
"a#	c #F15000",
"b#	c #FD5500",
"c#	c #E44D01",
"d#	c #E95816",
"e#	c #FF671C",
"f#	c #FF6119",
"g#	c #F95304",
"h#	c #F65200",
"i#	c #D74800",
"j#	c #FE6119",
"k#	c #F45000",
"l#	c #E84E00",
"m#	c #EA5815",
"n#	c #FF651B",
"o#	c #FF5604",
"p#	c #FC5200",
"q#	c #DD4901",
"r#	c #F55B17",
"s#	c #EF4F03",
"                                                                ",
"                      . + @ + + + + # $ .                       ",
"                    % & * = - - - - = ; & >                     ",
"                  , ' ) ! ~ { ] ^ { ~ ! ) / (                   ",
"          _ : < [ } | 1 2 3 4 5 6 7 8 9 0 a b c d e f           ",
"        g h i j k l m n o n p q r s t u v w x y z A B C         ",
"        D E F G H I J K L M N O P Q R S T U V W X Y Z `         ",
"         ...+.@.#.O O O O O O $.%.&.*.=.-.;.>.,.'.).!.~.        ",
"        {.].^./.O (._.:.<.O O [.}.|.1.2.3.4.5.6.7.8.9.0.        ",
"        a.b.c.O O d.e.f.g.h.i.O j.k.l.m.n.o.p.q.r.s.t.u.        ",
"      v.w.g.x.O y.O O z.A.g.B.O C.D.E.F.G.H.I.J.I.K.L.M.N.      ",
"      O.P.Q.R.O S.$.$.O O T.U.O C.V.W.X.Y.Z.`. +.+,.++@+#+      ",
"        $+%+&+*+O y.O y.O =+-+O ;+>+,+'+)+q.J.I.5.!+~+{+        ",
"        ]+^+/+(+_+O S.O :+<+[+O }+|+1+2+3+J.4+5+6+7+8+9+        ",
"        0+a+b+c+d+e+O O f+g+h+O j.i+j+k+l+r.m+n+o+p+q+r+        ",
"        s+t+u+v+w+x+y+O z+A+B+C+D+E+F+G+H+Z.I+J+K+L+M+N+        ",
"          O+E P+Q+R+S+O O O T+U+V+W+X+Y+Z+`+ @.@+@@@#@          ",
"          $@%@&@*@=@O y.y.-@O /.;@>@,@'@)+;.)@!@~@{@]@          ",
"          ^@/@&@(@_@O S.O O :@<@[@}@|@1@2@3@4@5@6@7@8@          ",
"          9@0@a@b@c@d@O d.e@f@g@h@i@j@k@3+K.l@Z m@n@o@          ",
"            p@q@r@s@t@u@v@w@x@O y@z@A@B@C@e D@+@@@E@            ",
"            F@%@G@H@b@g+I@O $.y+J@z@K@L@M@N@O@P@Q@R@            ",
"            S@a+T@U@V@q@W@X@O $.J@Y@Z@`@ #.#P@P@+#@#            ",
"              ##$#q@U@P+Q+(@/.O C.%#&#*#=#L+P@P@n@              ",
"              -#;#>#q@,#V@'#)#!#~#{#]#^# #/#P@(#_#              ",
"                ;#:#q@q@<#[#}#w+|#1#2#3#@@@@4#5#                ",
"                  6#7#q@q@q@<#8#9#0#a#3#3#b#c#                  ",
"                    d#e#:#>#q@f#g#0#a#h#4#i#                    ",
"                        6#7#q@j#g#k#Q.l#                        ",
"                          m#e#n#o#p#q#                          ",
"                              r#s#                              ",
"                                                                "};
