<svg width="240" height="160" viewBox="0 0 240 160" fill="none" xmlns="http://www.w3.org/2000/svg">
<path d="M206.193 107.548H113.769C113.451 107.548 113.146 107.422 112.92 107.197C112.695 106.972 112.569 106.666 112.569 106.348V91.4251C112.569 91.1068 112.695 90.8016 112.92 90.5766C113.146 90.3515 113.451 90.2251 113.769 90.2251H206.188C206.506 90.2251 206.811 90.3515 207.037 90.5766C207.262 90.8016 207.388 91.1068 207.388 91.4251V106.348C207.393 107.011 206.855 107.548 206.193 107.548ZM114.969 105.148H204.988V92.6251H114.969V105.148Z" fill="#2795EF"/>
<path d="M202.045 110.019H129.34C129.022 110.019 128.717 110.145 128.491 110.371C128.266 110.596 128.14 110.901 128.14 111.219V130.779C128.14 131.097 128.266 131.403 128.491 131.628C128.717 131.853 129.022 131.979 129.34 131.979H202.05C202.368 131.979 202.673 131.853 202.899 131.628C203.124 131.403 203.25 131.097 203.25 130.779V111.219C203.249 110.9 203.121 110.595 202.895 110.37C202.669 110.145 202.364 110.019 202.045 110.019Z" fill="#607D8B"/>
<path fill-rule="evenodd" clip-rule="evenodd" d="M74.216 130.775C74.2153 131.093 74.3411 131.399 74.5657 131.624C74.7903 131.85 75.0952 131.977 75.4135 131.978C75.7318 131.978 76.0373 131.853 76.2628 131.628C76.4883 131.403 76.6153 131.098 76.616 130.78V28.0262C76.616 27.7079 76.4896 27.4027 76.2645 27.1776C76.0395 26.9526 75.7343 26.8262 75.416 26.8262C75.0977 26.8262 74.7925 26.9526 74.5675 27.1776C74.3424 27.4027 74.216 27.7079 74.216 28.0262V130.775ZM89.386 131.975C89.0677 131.975 88.7625 131.849 88.5375 131.624C88.3124 131.399 88.186 131.093 88.186 130.775V28.0262C88.186 27.7079 88.3124 27.4027 88.5375 27.1776C88.7625 26.9526 89.0677 26.8262 89.386 26.8262C89.7043 26.8262 90.0095 26.9526 90.2345 27.1776C90.4596 27.4027 90.586 27.7079 90.586 28.0262V130.78C90.586 131.442 90.048 131.975 89.386 131.975ZM108.206 36.7332H95.02C94.8624 36.7332 94.7064 36.7642 94.5608 36.8245C94.4152 36.8848 94.2829 36.9732 94.1715 37.0846C94.06 37.1961 93.9717 37.3284 93.9113 37.474C93.851 37.6195 93.82 37.7756 93.82 37.9332V130.78C93.82 131.098 93.9464 131.404 94.1715 131.629C94.3965 131.854 94.7017 131.98 95.02 131.98H108.206C108.868 131.98 109.406 131.442 109.406 130.78V37.9332C109.406 37.7756 109.375 37.6195 109.315 37.474C109.254 37.3284 109.166 37.1961 109.055 37.0846C108.943 36.9732 108.811 36.8848 108.665 36.8245C108.52 36.7642 108.364 36.7332 108.206 36.7332Z" fill="#423EEE"/>
<path fill-rule="evenodd" clip-rule="evenodd" d="M71.553 40.578L71.241 40.492L60.081 37.391C60.061 37.386 60.047 37.386 60.028 37.381C59.7272 37.3088 59.4102 37.3567 59.1441 37.5144C58.878 37.6722 58.6839 37.9274 58.603 38.226L33.853 127.266C33.8326 127.34 33.8189 127.416 33.812 127.492L33.811 127.501C33.8074 127.543 33.8088 127.585 33.815 127.626C33.8136 127.712 33.8264 127.798 33.853 127.88C33.859 127.909 33.863 127.938 33.873 127.967C33.8979 128.037 33.9284 128.105 33.964 128.171L33.969 128.183C33.971 128.188 33.975 128.191 33.979 128.195C33.9832 128.198 33.9866 128.202 33.989 128.207C34.0214 128.265 34.0596 128.32 34.103 128.37C34.1143 128.384 34.1274 128.396 34.142 128.406C34.1504 128.413 34.1584 128.42 34.166 128.428L34.191 128.453C34.2405 128.51 34.3002 128.556 34.367 128.591C34.4649 128.661 34.5756 128.712 34.693 128.74L46.166 131.927C46.271 131.956 46.382 131.97 46.487 131.97C46.579 131.97 46.67 131.956 46.761 131.936C46.781 131.932 46.795 131.927 46.814 131.922C46.902 131.897 46.9872 131.864 47.068 131.821C47.073 131.821 47.078 131.816 47.078 131.816L47.083 131.813L47.09 131.808C47.1675 131.768 47.2381 131.716 47.299 131.654V131.653C47.337 131.62 47.371 131.581 47.404 131.543C47.419 131.524 47.433 131.509 47.447 131.49C47.4805 131.447 47.5097 131.4 47.534 131.351L47.548 131.33C47.5902 131.255 47.6228 131.175 47.645 131.092L72.393 42.047C72.3976 42.0296 72.401 42.0119 72.403 41.994L72.407 41.966C72.4655 41.6696 72.41 41.3621 72.2517 41.1048C72.0934 40.8475 71.8439 40.6594 71.553 40.578ZM192.849 73.194H116.894C116.576 73.194 116.271 73.0675 116.045 72.8425C115.82 72.6175 115.694 72.3122 115.694 71.994C115.694 71.6757 115.82 71.3705 116.045 71.1454C116.271 70.9204 116.576 70.794 116.894 70.794H192.849C193.167 70.794 193.472 70.9204 193.698 71.1454C193.923 71.3705 194.049 71.6757 194.049 71.994C194.049 72.3122 193.923 72.6175 193.698 72.8425C193.472 73.0675 193.167 73.194 192.849 73.194ZM116.894 87.234H192.849C193.167 87.234 193.472 87.1075 193.698 86.8825C193.923 86.6575 194.049 86.3522 194.049 86.034C194.049 85.7157 193.923 85.4105 193.698 85.1854C193.472 84.9604 193.167 84.834 192.849 84.834H116.894C116.576 84.834 116.271 84.9604 116.045 85.1854C115.82 85.4105 115.694 85.7157 115.694 86.034C115.694 86.3522 115.82 86.6575 116.045 86.8825C116.271 87.1075 116.576 87.234 116.894 87.234Z" fill="#FB5930"/>
<path fill-rule="evenodd" clip-rule="evenodd" d="M80.073 131.975C79.7547 131.975 79.4495 131.849 79.2245 131.624C78.9994 131.399 78.873 131.093 78.873 130.775V28.0262C78.873 27.7079 78.9994 27.4027 79.2245 27.1776C79.4495 26.9526 79.7547 26.8262 80.073 26.8262C80.3913 26.8262 80.6965 26.9526 80.9215 27.1776C81.1466 27.4027 81.273 27.7079 81.273 28.0262V130.78C81.273 131.442 80.735 131.975 80.073 131.975ZM84.728 131.975C84.4097 131.975 84.1045 131.849 83.8795 131.624C83.6544 131.399 83.528 131.093 83.528 130.775V28.0262C83.528 27.7079 83.6544 27.4027 83.8795 27.1776C84.1045 26.9526 84.4097 26.8262 84.728 26.8262C85.0463 26.8262 85.3515 26.9526 85.5765 27.1776C85.8016 27.4027 85.928 27.7079 85.928 28.0262V130.78C85.928 131.442 85.391 131.975 84.728 131.975ZM116.894 77.8742H192.849C193.167 77.8742 193.472 77.7477 193.698 77.5227C193.923 77.2977 194.049 76.9924 194.049 76.6742C194.049 76.3559 193.923 76.0507 193.698 75.8256C193.472 75.6006 193.167 75.4742 192.849 75.4742H116.894C116.576 75.4742 116.271 75.6006 116.045 75.8256C115.82 76.0507 115.694 76.3559 115.694 76.6742C115.694 76.9924 115.82 77.2977 116.045 77.5227C116.271 77.7477 116.576 77.8742 116.894 77.8742ZM192.849 82.5542H116.894C116.576 82.5542 116.271 82.4277 116.045 82.2027C115.82 81.9777 115.694 81.6724 115.694 81.3542C115.694 81.0359 115.82 80.7307 116.045 80.5056C116.271 80.2806 116.576 80.1542 116.894 80.1542H192.849C193.167 80.1542 193.472 80.2806 193.698 80.5056C193.923 80.7307 194.049 81.0359 194.049 81.3542C194.049 81.6724 193.923 81.9777 193.698 82.2027C193.472 82.4277 193.167 82.5542 192.849 82.5542ZM183.245 120.996C183.245 121.78 183.557 122.532 184.111 123.086C184.665 123.641 185.417 123.953 186.201 123.953H194.083C194.851 123.929 195.579 123.606 196.113 123.055C196.648 122.503 196.947 121.765 196.947 120.997C196.947 120.228 196.648 119.49 196.113 118.939C195.579 118.387 194.851 118.065 194.083 118.04H186.201C185.417 118.04 184.665 118.352 184.111 118.906C183.557 119.461 183.245 120.212 183.245 120.996Z" fill="#78909C"/>
<path d="M101.616 125.826C100.514 125.825 99.4571 125.387 98.6777 124.608C97.8984 123.828 97.4601 122.771 97.459 121.669V113.792C97.4603 112.69 97.8987 111.634 98.6781 110.855C99.4574 110.075 100.514 109.637 101.616 109.636C102.718 109.637 103.774 110.075 104.554 110.855C105.333 111.634 105.771 112.69 105.772 113.792V121.674C105.77 122.775 105.331 123.831 104.552 124.609C103.773 125.388 102.717 125.825 101.616 125.826ZM101.616 112.036C100.646 112.036 99.859 112.823 99.859 113.792V121.674C99.8777 122.128 100.071 122.556 100.398 122.87C100.726 123.184 101.162 123.36 101.616 123.36C102.069 123.36 102.505 123.184 102.833 122.87C103.16 122.556 103.353 122.128 103.372 121.674V113.792C103.371 113.327 103.186 112.881 102.857 112.552C102.527 112.223 102.081 112.037 101.616 112.036Z" fill="#8784F4"/>
</svg>
