<svg viewBox="0 0 999 1759" xmlns="http://www.w3.org/2000/svg" xmlns:xlink="http://www.w3.org/1999/xlink" preserveAspectRatio="xMinYMid">
  <defs>
    <rect id="a" width="999" height="1759" rx="12"/>
  </defs>
  <g fill="none" fill-rule="evenodd">
    <mask id="b" fill="#fff">
      <use xlink:href="#a"/>
    </mask>
    <use fill="#F8FAFF" xlink:href="#a"/>
    <g mask="url(#b)">
      <path d="M1013.939 561.72c216.37 102.849 228.657 349.228-76.439 532.78C632.404 1278.052 303.989 1317.88 232 1389c-71.989 71.12-80.546 106.52 43.843 199.08 82.926 61.707 503.76 150.955 1262.5 267.745L1650 1951l-2001-46.928 55.508-1387.097c728.707-38.735 1165.184-23.82 1309.43 44.745z" fill="#E3EBF8"/>
      <path d="M620.557 634.09C824.007 733.462 869.5 809.5 870 883s-67.164 181.538-322.768 239.72c-255.604 58.183-445.577 19.97-579.368 175.578C-128 1409.793-139.716 1419.123-55 1539.369c214.333 304.223 568.333 434.378 1062 390.463L981.5 1945-154 1900.72-124 553c360.738-12.19 608.923 14.84 744.557 81.09z" fill="#FFF"/>
    </g>
  </g>
</svg>

